<svg version="1.1" viewBox="0.0 0.0 600.0 371.0" fill="none" stroke="none" stroke-linecap="square" stroke-miterlimit="10" width="600" height="371" xmlns:xlink="http://www.w3.org/1999/xlink" xmlns="http://www.w3.org/2000/svg"><path fill="#ffffff" fill-opacity="0.0" d="M0 0L600.0 0L600.0 371.0L0 371.0L0 0Z" fill-rule="nonzero"/><path fill="#533990" d="M300.0 54.916668C348.89026 54.916668 394.65973 78.93835 422.43256 119.17423L330.60815 182.55606C323.66495 172.49709 312.22256 166.49167 300.0 166.49167Z" fill-rule="nonzero"/><path fill="#e5a345" d="M160.90076 150.92995C182.81891 93.136505 238.18991 54.916668 300.0 54.916668L300.0 166.49167C284.5475 166.49167 270.70474 176.04663 265.2252 190.49498Z" fill-rule="nonzero"/><path fill="#df8d43" d="M155.09128 237.34312C148.41475 208.60004 150.43695 178.5207 160.90076 150.92995L265.2252 190.49498C262.60925 197.39267 262.1037 204.9125 263.77283 212.09828Z" fill-rule="nonzero"/><path fill="#d8753e" d="M159.53458 252.68317C157.77988 247.65308 156.29663 242.53235 155.09128 237.34312L263.77283 212.09828C264.07416 213.39558 264.44498 214.67577 264.88364 215.93329Z" fill-rule="nonzero"/><path fill="#d0473d" d="M210.62958 322.61377C187.03935 304.88687 169.25383 280.54492 159.53458 252.68317L264.88364 215.93329C267.31345 222.89873 271.75983 228.98422 277.65738 233.41594Z" fill-rule="nonzero"/><path fill="#cf4366" d="M422.43256 119.17423C463.8731 179.21124 455.6663 260.4397 403.0543 310.9742C350.4423 361.50873 268.94925 366.43817 210.62958 322.61377L277.65738 233.41594C292.2373 244.37204 312.61057 243.13968 325.76358 230.50606C338.91656 217.87242 340.9683 197.5653 330.60815 182.55606Z" fill-rule="nonzero"/><path fill="#ffffff" d="M330.27365 116.68728L328.69553 116.68728L328.69553 106.60915Q328.1174 107.15603 327.19553 107.7029Q326.27365 108.23415 325.52365 108.5154L325.52365 106.98415Q326.85178 106.35915 327.85178 105.46853Q328.85178 104.5779 329.25803 103.74978L330.27365 103.74978L330.27365 116.68728ZM334.32053 113.31228L335.97678 113.17165Q336.16428 114.3904 336.83615 114.99978Q337.50803 115.60915 338.46115 115.60915Q339.60178 115.60915 340.38303 114.74978Q341.1799 113.8904 341.1799 112.4529Q341.1799 111.10915 340.41428 110.3279Q339.66428 109.54665 338.4299 109.54665Q337.66428 109.54665 337.03928 109.8904Q336.4299 110.23415 336.08615 110.79665L334.60178 110.59353L335.85178 103.98415L342.25803 103.98415L342.25803 105.48415L337.1174 105.48415L336.41428 108.9529Q337.58615 108.1404 338.85178 108.1404Q340.53928 108.1404 341.69553 109.31228Q342.8674 110.48415 342.8674 112.31228Q342.8674 114.06228 341.83615 115.34353Q340.60178 116.90603 338.46115 116.90603Q336.69553 116.90603 335.58615 115.92165Q334.47678 114.93728 334.32053 113.31228ZM345.21115 116.68728L345.21115 114.8904L347.00803 114.8904L347.00803 116.68728L345.21115 116.68728ZM354.38303 116.68728L354.38303 113.60915L348.8049 113.60915L348.8049 112.15603L354.6799 103.79665L355.97678 103.79665L355.97678 112.15603L357.71115 112.15603L357.71115 113.60915L355.97678 113.60915L355.97678 116.68728L354.38303 116.68728ZM354.38303 112.15603L354.38303 106.34353L350.35178 112.15603L354.38303 112.15603ZM359.6174 106.8904Q359.6174 105.5154 360.3049 104.54665Q361.00803 103.5779 362.32053 103.5779Q363.53928 103.5779 364.33615 104.4529Q365.13303 105.31228 365.13303 106.99978Q365.13303 108.62478 364.32053 109.5154Q363.52365 110.3904 362.33615 110.3904Q361.1799 110.3904 360.39865 109.53103Q359.6174 108.65603 359.6174 106.8904ZM362.3674 104.67165Q361.77365 104.67165 361.38303 105.18728Q360.9924 105.68728 360.9924 107.04665Q360.9924 108.29665 361.38303 108.79665Q361.78928 109.29665 362.3674 109.29665Q362.96115 109.29665 363.35178 108.79665Q363.7424 108.28103 363.7424 106.93728Q363.7424 105.68728 363.35178 105.18728Q362.96115 104.67165 362.3674 104.67165ZM362.38303 117.15603L369.4299 103.5779L370.71115 103.5779L363.6799 117.15603L362.38303 117.15603ZM367.94553 113.65603Q367.94553 112.28103 368.63303 111.31228Q369.33615 110.34353 370.66428 110.34353Q371.88303 110.34353 372.66428 111.21853Q373.46115 112.0779 373.46115 113.7654Q373.46115 115.3904 372.66428 116.28103Q371.8674 117.15603 370.6799 117.15603Q369.50803 117.15603 368.72678 116.28103Q367.94553 115.40603 367.94553 113.65603ZM370.71115 111.43728Q370.1174 111.43728 369.72678 111.9529Q369.33615 112.4529 369.33615 113.8279Q369.33615 115.04665 369.72678 115.56228Q370.1174 116.0779 370.69553 116.0779Q371.3049 116.0779 371.69553 115.56228Q372.08615 115.04665 372.08615 113.7029Q372.08615 112.4529 371.69553 111.9529Q371.3049 111.43728 370.71115 111.43728Z" fill-rule="nonzero"/><path fill="#ffffff" d="M351.00275 283.7797L351.00275 280.70157L345.42462 280.70157L345.42462 279.24844L351.29962 270.88907L352.5965 270.88907L352.5965 279.24844L354.33087 279.24844L354.33087 280.70157L352.5965 280.70157L352.5965 283.7797L351.00275 283.7797ZM351.00275 279.24844L351.00275 273.43594L346.9715 279.24844L351.00275 279.24844ZM361.00275 283.7797L361.00275 280.70157L355.42462 280.70157L355.42462 279.24844L361.29962 270.88907L362.5965 270.88907L362.5965 279.24844L364.33087 279.24844L364.33087 280.70157L362.5965 280.70157L362.5965 283.7797L361.00275 283.7797ZM361.00275 279.24844L361.00275 273.43594L356.9715 279.24844L361.00275 279.24844ZM366.83087 283.7797L366.83087 281.98282L368.62775 281.98282L368.62775 283.7797L366.83087 283.7797ZM371.17462 280.79532L372.69025 280.6547Q372.89337 281.73282 373.42462 282.2172Q373.9715 282.70157 374.83087 282.70157Q375.56525 282.70157 376.11212 282.37344Q376.659 282.0297 377.00275 281.48282Q377.36212 280.92032 377.5965 279.9672Q377.83087 279.01407 377.83087 278.0297Q377.83087 277.92032 377.83087 277.7172Q377.3465 278.4672 376.51837 278.93594Q375.70587 279.4047 374.75275 279.4047Q373.159 279.4047 372.04962 278.24844Q370.94025 277.0922 370.94025 275.18594Q370.94025 273.23282 372.0965 272.04532Q373.25275 270.8422 374.98712 270.8422Q376.25275 270.8422 377.284 271.5297Q378.33087 272.20157 378.86212 273.45157Q379.409 274.70157 379.409 277.07657Q379.409 279.54532 378.86212 281.01407Q378.33087 282.4672 377.26837 283.23282Q376.2215 283.99844 374.79962 283.99844Q373.284 283.99844 372.31525 283.17032Q371.36212 282.32657 371.17462 280.79532ZM377.659 275.10782Q377.659 273.74844 376.92462 272.95157Q376.20587 272.1547 375.19025 272.1547Q374.12775 272.1547 373.3465 273.01407Q372.56525 273.87344 372.56525 275.24844Q372.56525 276.48282 373.29962 277.24844Q374.04962 278.01407 375.14337 278.01407Q376.23712 278.01407 376.94025 277.24844Q377.659 276.48282 377.659 275.10782ZM381.23712 273.98282Q381.23712 272.60782 381.92462 271.63907Q382.62775 270.67032 383.94025 270.67032Q385.159 270.67032 385.95587 271.54532Q386.75275 272.4047 386.75275 274.0922Q386.75275 275.7172 385.94025 276.60782Q385.14337 277.48282 383.95587 277.48282Q382.79962 277.48282 382.01837 276.62344Q381.23712 275.74844 381.23712 273.98282ZM383.98712 271.76407Q383.39337 271.76407 383.00275 272.2797Q382.61212 272.7797 382.61212 274.13907Q382.61212 275.38907 383.00275 275.88907Q383.409 276.38907 383.98712 276.38907Q384.58087 276.38907 384.9715 275.88907Q385.36212 275.37344 385.36212 274.0297Q385.36212 272.7797 384.9715 272.2797Q384.58087 271.76407 383.98712 271.76407ZM384.00275 284.24844L391.04962 270.67032L392.33087 270.67032L385.29962 284.24844L384.00275 284.24844ZM389.56525 280.74844Q389.56525 279.37344 390.25275 278.4047Q390.95587 277.43594 392.284 277.43594Q393.50275 277.43594 394.284 278.31094Q395.08087 279.17032 395.08087 280.85782Q395.08087 282.48282 394.284 283.37344Q393.48712 284.24844 392.29962 284.24844Q391.12775 284.24844 390.3465 283.37344Q389.56525 282.49844 389.56525 280.74844ZM392.33087 278.5297Q391.73712 278.5297 391.3465 279.04532Q390.95587 279.54532 390.95587 280.92032Q390.95587 282.13907 391.3465 282.6547Q391.73712 283.17032 392.31525 283.17032Q392.92462 283.17032 393.31525 282.6547Q393.70587 282.13907 393.70587 280.79532Q393.70587 279.54532 393.31525 279.04532Q392.92462 278.5297 392.33087 278.5297Z" fill-rule="nonzero"/><path fill="#ffffff" d="M195.51735 269.28036L197.03297 269.13974Q197.2361 270.21786 197.76735 270.70224Q198.31422 271.1866 199.1736 271.1866Q199.90797 271.1866 200.45485 270.8585Q201.00172 270.51474 201.34547 269.96786Q201.70485 269.40536 201.93922 268.45224Q202.1736 267.4991 202.1736 266.51474Q202.1736 266.40536 202.1736 266.20224Q201.68922 266.95224 200.8611 267.421Q200.0486 267.88974 199.09547 267.88974Q197.50172 267.88974 196.39235 266.7335Q195.28297 265.57724 195.28297 263.671Q195.28297 261.71786 196.43922 260.53036Q197.59547 259.32724 199.32985 259.32724Q200.59547 259.32724 201.62672 260.01474Q202.6736 260.6866 203.20485 261.9366Q203.75172 263.1866 203.75172 265.5616Q203.75172 268.03036 203.20485 269.4991Q202.6736 270.95224 201.6111 271.71786Q200.56422 272.4835 199.14235 272.4835Q197.62672 272.4835 196.65797 271.65536Q195.70485 270.8116 195.51735 269.28036ZM202.00172 263.59286Q202.00172 262.2335 201.26735 261.4366Q200.5486 260.63974 199.53297 260.63974Q198.47047 260.63974 197.68922 261.4991Q196.90797 262.3585 196.90797 263.7335Q196.90797 264.96786 197.64235 265.7335Q198.39235 266.4991 199.4861 266.4991Q200.57985 266.4991 201.28297 265.7335Q202.00172 264.96786 202.00172 263.59286ZM206.1736 272.26474L206.1736 270.46786L207.97047 270.46786L207.97047 272.26474L206.1736 272.26474ZM215.34547 272.26474L215.34547 269.1866L209.76735 269.1866L209.76735 267.7335L215.64235 259.3741L216.93922 259.3741L216.93922 267.7335L218.6736 267.7335L218.6736 269.1866L216.93922 269.1866L216.93922 272.26474L215.34547 272.26474ZM215.34547 267.7335L215.34547 261.921L211.31422 267.7335L215.34547 267.7335ZM220.57985 262.46786Q220.57985 261.09286 221.26735 260.1241Q221.97047 259.15536 223.28297 259.15536Q224.50172 259.15536 225.2986 260.03036Q226.09547 260.88974 226.09547 262.57724Q226.09547 264.20224 225.28297 265.09286Q224.4861 265.96786 223.2986 265.96786Q222.14235 265.96786 221.3611 265.1085Q220.57985 264.2335 220.57985 262.46786ZM223.32985 260.2491Q222.7361 260.2491 222.34547 260.76474Q221.95485 261.26474 221.95485 262.6241Q221.95485 263.8741 222.34547 264.3741Q222.75172 264.8741 223.32985 264.8741Q223.9236 264.8741 224.31422 264.3741Q224.70485 263.8585 224.70485 262.51474Q224.70485 261.26474 224.31422 260.76474Q223.9236 260.2491 223.32985 260.2491ZM223.34547 272.7335L230.39235 259.15536L231.6736 259.15536L224.64235 272.7335L223.34547 272.7335ZM228.90797 269.2335Q228.90797 267.8585 229.59547 266.88974Q230.2986 265.921 231.62672 265.921Q232.84547 265.921 233.62672 266.796Q234.4236 267.65536 234.4236 269.34286Q234.4236 270.96786 233.62672 271.8585Q232.82985 272.7335 231.64235 272.7335Q230.47047 272.7335 229.68922 271.8585Q228.90797 270.9835 228.90797 269.2335ZM231.6736 267.01474Q231.07985 267.01474 230.68922 267.53036Q230.2986 268.03036 230.2986 269.40536Q230.2986 270.6241 230.68922 271.13974Q231.07985 271.65536 231.65797 271.65536Q232.26735 271.65536 232.65797 271.13974Q233.0486 270.6241 233.0486 269.28036Q233.0486 268.03036 232.65797 267.53036Q232.26735 267.01474 231.6736 267.01474Z" fill-rule="nonzero"/><path fill="#ffffff" d="M170.74496 199.82127L172.26059 199.68065Q172.46371 200.75877 172.99496 201.24315Q173.54184 201.72752 174.40121 201.72752Q175.13559 201.72752 175.68246 201.3994Q176.22934 201.05565 176.57309 200.50877Q176.93246 199.94627 177.16684 198.99315Q177.40121 198.04002 177.40121 197.05565Q177.40121 196.94627 177.40121 196.74315Q176.91684 197.49315 176.08871 197.9619Q175.27621 198.43065 174.32309 198.43065Q172.72934 198.43065 171.61996 197.2744Q170.51059 196.11815 170.51059 194.2119Q170.51059 192.25877 171.66684 191.07127Q172.82309 189.86815 174.55746 189.86815Q175.82309 189.86815 176.85434 190.55565Q177.90121 191.22752 178.43246 192.47752Q178.97934 193.72752 178.97934 196.10252Q178.97934 198.57127 178.43246 200.04002Q177.90121 201.49315 176.83871 202.25877Q175.79184 203.0244 174.36996 203.0244Q172.85434 203.0244 171.88559 202.19627Q170.93246 201.35252 170.74496 199.82127ZM177.22934 194.13377Q177.22934 192.7744 176.49496 191.97752Q175.77621 191.18065 174.76059 191.18065Q173.69809 191.18065 172.91684 192.04002Q172.13559 192.8994 172.13559 194.2744Q172.13559 195.50877 172.86996 196.2744Q173.61996 197.04002 174.71371 197.04002Q175.80746 197.04002 176.51059 196.2744Q177.22934 195.50877 177.22934 194.13377ZM181.40121 202.80565L181.40121 201.00877L183.19809 201.00877L183.19809 202.80565L181.40121 202.80565ZM190.57309 202.80565L190.57309 199.72752L184.99496 199.72752L184.99496 198.2744L190.86996 189.91502L192.16684 189.91502L192.16684 198.2744L193.90121 198.2744L193.90121 199.72752L192.16684 199.72752L192.16684 202.80565L190.57309 202.80565ZM190.57309 198.2744L190.57309 192.4619L186.54184 198.2744L190.57309 198.2744ZM195.80746 193.00877Q195.80746 191.63377 196.49496 190.66502Q197.19809 189.69627 198.51059 189.69627Q199.72934 189.69627 200.52621 190.57127Q201.32309 191.43065 201.32309 193.11815Q201.32309 194.74315 200.51059 195.63377Q199.71371 196.50877 198.52621 196.50877Q197.36996 196.50877 196.58871 195.6494Q195.80746 194.7744 195.80746 193.00877ZM198.55746 190.79002Q197.96371 190.79002 197.57309 191.30565Q197.18246 191.80565 197.18246 193.16502Q197.18246 194.41502 197.57309 194.91502Q197.97934 195.41502 198.55746 195.41502Q199.15121 195.41502 199.54184 194.91502Q199.93246 194.3994 199.93246 193.05565Q199.93246 191.80565 199.54184 191.30565Q199.15121 190.79002 198.55746 190.79002ZM198.57309 203.2744L205.61996 189.69627L206.90121 189.69627L199.86996 203.2744L198.57309 203.2744ZM204.13559 199.7744Q204.13559 198.3994 204.82309 197.43065Q205.52621 196.4619 206.85434 196.4619Q208.07309 196.4619 208.85434 197.3369Q209.65121 198.19627 209.65121 199.88377Q209.65121 201.50877 208.85434 202.3994Q208.05746 203.2744 206.86996 203.2744Q205.69809 203.2744 204.91684 202.3994Q204.13559 201.5244 204.13559 199.7744ZM206.90121 197.55565Q206.30746 197.55565 205.91684 198.07127Q205.52621 198.57127 205.52621 199.94627Q205.52621 201.16502 205.91684 201.68065Q206.30746 202.19627 206.88559 202.19627Q207.49496 202.19627 207.88559 201.68065Q208.27621 201.16502 208.27621 199.82127Q208.27621 198.57127 207.88559 198.07127Q207.49496 197.55565 206.90121 197.55565Z" fill-rule="nonzero"/><path fill="#ffffff" d="M222.2658 124.79787L220.68767 124.79787L220.68767 114.71974Q220.10954 115.26662 219.18767 115.81349Q218.2658 116.34474 217.5158 116.62599L217.5158 115.09474Q218.84392 114.46974 219.84392 113.57912Q220.84392 112.68849 221.25017 111.86037L222.2658 111.86037L222.2658 124.79787ZM226.54704 121.81349L228.06267 121.67287Q228.2658 122.75099 228.79704 123.23537Q229.34392 123.71974 230.2033 123.71974Q230.93767 123.71974 231.48454 123.39162Q232.03142 123.04787 232.37517 122.50099Q232.73454 121.93849 232.96892 120.98537Q233.2033 120.03224 233.2033 119.04787Q233.2033 118.93849 233.2033 118.73537Q232.71892 119.48537 231.8908 119.95412Q231.0783 120.42287 230.12517 120.42287Q228.53142 120.42287 227.42204 119.26662Q226.31267 118.11037 226.31267 116.20412Q226.31267 114.25099 227.46892 113.06349Q228.62517 111.86037 230.35954 111.86037Q231.62517 111.86037 232.65642 112.54787Q233.7033 113.21974 234.23454 114.46974Q234.78142 115.71974 234.78142 118.09474Q234.78142 120.56349 234.23454 122.03224Q233.7033 123.48537 232.6408 124.25099Q231.59392 125.01662 230.17204 125.01662Q228.65642 125.01662 227.68767 124.18849Q226.73454 123.34474 226.54704 121.81349ZM233.03142 116.12599Q233.03142 114.76662 232.29704 113.96974Q231.5783 113.17287 230.56267 113.17287Q229.50017 113.17287 228.71892 114.03224Q227.93767 114.89162 227.93767 116.26662Q227.93767 117.50099 228.67204 118.26662Q229.42204 119.03224 230.5158 119.03224Q231.60954 119.03224 232.31267 118.26662Q233.03142 117.50099 233.03142 116.12599ZM237.2033 124.79787L237.2033 123.00099L239.00017 123.00099L239.00017 124.79787L237.2033 124.79787ZM249.62517 123.28224L249.62517 124.79787L241.10954 124.79787Q241.09392 124.21974 241.29704 123.70412Q241.62517 122.82912 242.3283 121.98537Q243.04704 121.14162 244.40642 120.03224Q246.50017 118.31349 247.23454 117.31349Q247.98454 116.29787 247.98454 115.40724Q247.98454 114.45412 247.31267 113.81349Q246.6408 113.17287 245.56267 113.17287Q244.40642 113.17287 243.71892 113.86037Q243.04704 114.54787 243.03142 115.75099L241.40642 115.57912Q241.5783 113.76662 242.65642 112.81349Q243.75017 111.86037 245.59392 111.86037Q247.43767 111.86037 248.5158 112.89162Q249.60954 113.92287 249.60954 115.43849Q249.60954 116.20412 249.28142 116.95412Q248.96892 117.70412 248.23454 118.53224Q247.50017 119.36037 245.79704 120.79787Q244.37517 122.00099 243.96892 122.42287Q243.56267 122.84474 243.31267 123.28224L249.62517 123.28224ZM251.60954 115.00099Q251.60954 113.62599 252.29704 112.65724Q253.00017 111.68849 254.31267 111.68849Q255.53142 111.68849 256.3283 112.56349Q257.12518 113.42287 257.12518 115.11037Q257.12518 116.73537 256.31268 117.62599Q255.5158 118.50099 254.3283 118.50099Q253.17204 118.50099 252.3908 117.64162Q251.60954 116.76662 251.60954 115.00099ZM254.35954 112.78224Q253.7658 112.78224 253.37517 113.29787Q252.98454 113.79787 252.98454 115.15724Q252.98454 116.40724 253.37517 116.90724Q253.78142 117.40724 254.35954 117.40724Q254.9533 117.40724 255.34392 116.90724Q255.73454 116.39162 255.73454 115.04787Q255.73454 113.79787 255.34392 113.29787Q254.9533 112.78224 254.35954 112.78224ZM254.37517 125.26662L261.42206 111.68849L262.7033 111.68849L255.67204 125.26662L254.37517 125.26662ZM259.93768 121.76662Q259.93768 120.39162 260.62518 119.42287Q261.3283 118.45412 262.65643 118.45412Q263.87518 118.45412 264.65643 119.32912Q265.4533 120.18849 265.4533 121.87599Q265.4533 123.50099 264.65643 124.39162Q263.85956 125.26662 262.67206 125.26662Q261.50018 125.26662 260.71893 124.39162Q259.93768 123.51662 259.93768 121.76662ZM262.7033 119.54787Q262.10956 119.54787 261.71893 120.06349Q261.3283 120.56349 261.3283 121.93849Q261.3283 123.15724 261.71893 123.67287Q262.10956 124.18849 262.68768 124.18849Q263.29706 124.18849 263.68768 123.67287Q264.0783 123.15724 264.0783 121.81349Q264.0783 120.56349 263.68768 120.06349Q263.29706 119.54787 262.7033 119.54787Z" fill-rule="nonzero"/><path stroke="#ffffff" stroke-width="1.0" stroke-linejoin="round" stroke-linecap="round" d="M330.60815 182.55606C323.66495 172.49709 312.22256 166.49167 300.0 166.49167L300.0 54.916668C348.89026 54.916668 394.65973 78.93835 422.43256 119.17423" fill-rule="nonzero"/><path stroke="#ffffff" stroke-width="1.0" stroke-linejoin="round" stroke-linecap="round" d="M277.65738 233.41594C292.2373 244.37204 312.61057 243.13968 325.76358 230.50606C338.91656 217.87242 340.9683 197.5653 330.60815 182.55606L422.43256 119.17423C463.8731 179.21124 455.6663 260.4397 403.0543 310.9742C350.4423 361.50873 268.94925 366.43817 210.62958 322.61377" fill-rule="nonzero"/><path stroke="#ffffff" stroke-width="1.0" stroke-linejoin="round" stroke-linecap="round" d="M264.88364 215.93329C267.31345 222.89873 271.75983 228.98422 277.65738 233.41594L210.62958 322.61377C187.03935 304.88687 169.25383 280.54492 159.53458 252.68317" fill-rule="nonzero"/><path stroke="#ffffff" stroke-width="1.0" stroke-linejoin="round" stroke-linecap="round" d="M263.77283 212.09828C264.07416 213.39558 264.44498 214.67577 264.88364 215.93329L159.53458 252.68317C157.77988 247.65308 156.29663 242.53235 155.09128 237.34312" fill-rule="nonzero"/><path stroke="#ffffff" stroke-width="1.0" stroke-linejoin="round" stroke-linecap="round" d="M265.2252 190.49498C262.60925 197.39267 262.1037 204.9125 263.77283 212.09828L155.09128 237.34312C148.41475 208.60004 150.43695 178.5207 160.90076 150.92995" fill-rule="nonzero"/><path stroke="#ffffff" stroke-width="1.0" stroke-linejoin="round" stroke-linecap="round" d="M300.0 166.49167C284.5475 166.49167 270.70474 176.04663 265.2252 190.49498L160.90076 150.92995C182.81891 93.136505 238.18991 54.916668 300.0 54.916668" fill-rule="nonzero"/><path fill="#efefef" d="M27.3 70.41927L28.815624 70.41927L28.815624 77.02865Q28.815624 78.76302 28.425 79.77865Q28.034374 80.79427 27.01875 81.4349Q26.003124 82.07552 24.346874 82.07552Q22.7375 82.07552 21.70625 81.51302Q20.690624 80.95052 20.253124 79.90365Q19.815624 78.85677 19.815624 77.02865L19.815624 70.41927L21.33125 70.41927L21.33125 77.02865Q21.33125 78.51302 21.596874 79.23177Q21.878124 79.9349 22.55 80.32552Q23.2375 80.70052 24.20625 80.70052Q25.878124 80.70052 26.58125 79.95052Q27.3 79.1849 27.3 77.02865L27.3 70.41927ZM31.596874 81.8724L31.596874 73.57552L32.8625 73.57552L32.8625 74.82552Q33.346874 73.95052 33.753124 73.66927Q34.159374 73.38802 34.659374 73.38802Q35.3625 73.38802 36.096874 73.84115L35.6125 75.13802Q35.096874 74.84115 34.58125 74.84115Q34.128124 74.84115 33.753124 75.1224Q33.39375 75.38802 33.2375 75.88802Q33.003124 76.63802 33.003124 77.52865L33.003124 81.8724L31.596874 81.8724ZM37.909374 81.8724L36.596874 81.8724L36.596874 70.41927L38.003124 70.41927L38.003124 74.4974Q38.89375 73.38802 40.284374 73.38802Q41.05 73.38802 41.721874 73.70052Q42.409374 73.9974 42.846874 74.5599Q43.3 75.1224 43.55 75.91927Q43.8 76.70052 43.8 77.59115Q43.8 79.73177 42.7375 80.90365Q41.690624 82.0599 40.20625 82.0599Q38.7375 82.0599 37.909374 80.82552L37.909374 81.8724ZM37.89375 77.65365Q37.89375 79.15365 38.3 79.8099Q38.95625 80.90365 40.096874 80.90365Q41.01875 80.90365 41.690624 80.10677Q42.3625 79.29427 42.3625 77.71615Q42.3625 76.09115 41.70625 75.32552Q41.065624 74.54427 40.159374 74.54427Q39.2375 74.54427 38.565624 75.34115Q37.89375 76.13802 37.89375 77.65365ZM51.01875 80.84115Q50.2375 81.51302 49.51875 81.79427Q48.8 82.0599 47.971874 82.0599Q46.596874 82.0599 45.8625 81.38802Q45.128124 80.71615 45.128124 79.6849Q45.128124 79.07552 45.409374 78.57552Q45.690624 78.0599 46.128124 77.76302Q46.58125 77.45052 47.14375 77.29427Q47.565624 77.1849 48.39375 77.09115Q50.096874 76.88802 50.909374 76.60677Q50.909374 76.3099 50.909374 76.23177Q50.909374 75.3724 50.51875 75.02865Q49.971874 74.54427 48.909374 74.54427Q47.925 74.54427 47.440624 74.90365Q46.971874 75.2474 46.753124 76.1224L45.378124 75.9349Q45.565624 75.0599 45.9875 74.51302Q46.425 73.96615 47.2375 73.6849Q48.05 73.38802 49.1125 73.38802Q50.175 73.38802 50.83125 73.63802Q51.503124 73.88802 51.815624 74.26302Q52.128124 74.63802 52.253124 75.21615Q52.33125 75.57552 52.33125 76.51302L52.33125 78.38802Q52.33125 80.35677 52.409374 80.8724Q52.503124 81.38802 52.76875 81.8724L51.3 81.8724Q51.08125 81.4349 51.01875 80.84115ZM50.909374 77.70052Q50.14375 78.01302 48.6125 78.23177Q47.7375 78.35677 47.378124 78.51302Q47.01875 78.66927 46.815624 78.98177Q46.628124 79.27865 46.628124 79.63802Q46.628124 80.20052 47.05 80.57552Q47.4875 80.95052 48.3 80.95052Q49.1125 80.95052 49.7375 80.60677Q50.378124 80.2474 50.675 79.6224Q50.909374 79.15365 50.909374 78.21615L50.909374 77.70052ZM54.6125 81.8724L54.6125 73.57552L55.878124 73.57552L55.878124 74.7474Q56.784374 73.38802 58.51875 73.38802Q59.26875 73.38802 59.89375 73.65365Q60.51875 73.91927 60.83125 74.35677Q61.14375 74.79427 61.26875 75.40365Q61.346874 75.79427 61.346874 76.76302L61.346874 81.8724L59.940624 81.8724L59.940624 76.82552Q59.940624 75.96615 59.76875 75.54427Q59.6125 75.10677 59.190624 74.85677Q58.784374 74.60677 58.221874 74.60677Q57.315624 74.60677 56.659374 75.1849Q56.01875 75.7474 56.01875 77.34115L56.01875 81.8724L54.6125 81.8724ZM63.05 79.38802L64.44063 79.16927Q64.55 80.01302 65.08125 80.46615Q65.62813 80.90365 66.58125 80.90365Q67.55 80.90365 68.01875 80.51302Q68.4875 80.10677 68.4875 79.57552Q68.4875 79.10677 68.08125 78.82552Q67.78438 78.63802 66.64375 78.35677Q65.09688 77.96615 64.4875 77.6849Q63.89375 77.38802 63.58125 76.88802Q63.284374 76.38802 63.284374 75.77865Q63.284374 75.21615 63.534374 74.7474Q63.784374 74.27865 64.22188 73.96615Q64.55 73.71615 65.1125 73.5599Q65.69063 73.38802 66.33125 73.38802Q67.31563 73.38802 68.05 73.66927Q68.78438 73.95052 69.12813 74.4349Q69.4875 74.90365 69.62813 75.71615L68.25313 75.90365Q68.15938 75.26302 67.70625 74.90365Q67.25313 74.54427 66.44063 74.54427Q65.47188 74.54427 65.05 74.8724Q64.64375 75.1849 64.64375 75.60677Q64.64375 75.88802 64.81563 76.10677Q64.9875 76.32552 65.34688 76.48177Q65.56563 76.5599 66.59688 76.84115Q68.08125 77.23177 68.675 77.4974Q69.26875 77.7474 69.59688 78.23177Q69.94063 78.71615 69.94063 79.4349Q69.94063 80.13802 69.51875 80.76302Q69.1125 81.3724 68.33125 81.71615Q67.56563 82.0599 66.59688 82.0599Q64.97188 82.0599 64.12813 81.38802Q63.284374 80.71615 63.05 79.38802ZM77.01875 78.82552L78.40938 79.01302Q78.175 80.4349 77.2375 81.2474Q76.31563 82.0599 74.95625 82.0599Q73.25313 82.0599 72.20625 80.95052Q71.175 79.82552 71.175 77.7474Q71.175 76.40365 71.6125 75.40365Q72.06563 74.38802 72.97188 73.88802Q73.89375 73.38802 74.95625 73.38802Q76.31563 73.38802 77.175 74.07552Q78.03438 74.7474 78.26875 76.01302L76.90938 76.21615Q76.70625 75.38802 76.20625 74.96615Q75.72188 74.54427 75.01875 74.54427Q73.95625 74.54427 73.28438 75.3099Q72.62813 76.0599 72.62813 77.71615Q72.62813 79.38802 73.26875 80.15365Q73.90938 80.90365 74.94063 80.90365Q75.76875 80.90365 76.31563 80.40365Q76.87813 79.88802 77.01875 78.82552ZM85.01875 80.84115Q84.2375 81.51302 83.51875 81.79427Q82.8 82.0599 81.97188 82.0599Q80.59688 82.0599 79.8625 81.38802Q79.12813 80.71615 79.12813 79.6849Q79.12813 79.07552 79.40938 78.57552Q79.69063 78.0599 80.12813 77.76302Q80.58125 77.45052 81.14375 77.29427Q81.56563 77.1849 82.39375 77.09115Q84.09688 76.88802 84.90938 76.60677Q84.90938 76.3099 84.90938 76.23177Q84.90938 75.3724 84.51875 75.02865Q83.97188 74.54427 82.90938 74.54427Q81.925 74.54427 81.44063 74.90365Q80.97188 75.2474 80.75313 76.1224L79.37813 75.9349Q79.56563 75.0599 79.9875 74.51302Q80.425 73.96615 81.2375 73.6849Q82.05 73.38802 83.1125 73.38802Q84.175 73.38802 84.83125 73.63802Q85.50313 73.88802 85.81563 74.26302Q86.12813 74.63802 86.25313 75.21615Q86.33125 75.57552 86.33125 76.51302L86.33125 78.38802Q86.33125 80.35677 86.40938 80.8724Q86.50313 81.38802 86.76875 81.8724L85.3 81.8724Q85.08125 81.4349 85.01875 80.84115ZM84.90938 77.70052Q84.14375 78.01302 82.6125 78.23177Q81.7375 78.35677 81.37813 78.51302Q81.01875 78.66927 80.81563 78.98177Q80.62813 79.27865 80.62813 79.63802Q80.62813 80.20052 81.05 80.57552Q81.4875 80.95052 82.3 80.95052Q83.1125 80.95052 83.7375 80.60677Q84.37813 80.2474 84.675 79.6224Q84.90938 79.15365 84.90938 78.21615L84.90938 77.70052ZM88.6125 85.0599L88.6125 73.57552L89.89375 73.57552L89.89375 74.65365Q90.34688 74.01302 90.90938 73.70052Q91.4875 73.38802 92.3 73.38802Q93.3625 73.38802 94.175 73.9349Q94.9875 74.48177 95.39375 75.48177Q95.81563 76.46615 95.81563 77.65365Q95.81563 78.9349 95.34688 79.95052Q94.89375 80.96615 94.01875 81.51302Q93.15938 82.0599 92.19063 82.0599Q91.4875 82.0599 90.925 81.76302Q90.37813 81.46615 90.01875 81.01302L90.01875 85.0599L88.6125 85.0599ZM89.87813 77.76302Q89.87813 79.3724 90.51875 80.13802Q91.175 80.90365 92.09688 80.90365Q93.03438 80.90365 93.70625 80.10677Q94.37813 79.3099 94.37813 77.65365Q94.37813 76.0599 93.72188 75.27865Q93.06563 74.48177 92.15938 74.48177Q91.26875 74.48177 90.56563 75.32552Q89.87813 76.16927 89.87813 77.76302ZM103.28438 79.20052L104.7375 79.3724Q104.39375 80.65365 103.45625 81.35677Q102.53438 82.0599 101.09688 82.0599Q99.26875 82.0599 98.20625 80.9349Q97.14375 79.8099 97.14375 77.79427Q97.14375 75.70052 98.22188 74.54427Q99.3 73.38802 101.01875 73.38802Q102.675 73.38802 103.72188 74.52865Q104.78438 75.65365 104.78438 77.70052Q104.78438 77.82552 104.78438 78.07552L98.59688 78.07552Q98.675 79.45052 99.3625 80.1849Q100.06563 80.90365 101.09688 80.90365Q101.87813 80.90365 102.425 80.4974Q102.97188 80.09115 103.28438 79.20052ZM98.675 76.91927L103.3 76.91927Q103.20625 75.8724 102.76875 75.35677Q102.09688 74.54427 101.03438 74.54427Q100.06563 74.54427 99.39375 75.20052Q98.7375 75.84115 98.675 76.91927Z" fill-rule="nonzero"/><path fill="#9e9e9e" d="M24.51875 103.8724L23.1125 103.8724L23.1125 94.90365Q22.596874 95.38802 21.76875 95.8724Q20.95625 96.35677 20.3 96.60677L20.3 95.2474Q21.471874 94.6849 22.346874 93.90365Q23.2375 93.10677 23.6125 92.3724L24.51875 92.3724L24.51875 103.8724ZM28.425 101.21615L29.784374 101.09115Q29.95625 102.04427 30.440624 102.48177Q30.925 102.90365 31.675 102.90365Q32.33125 102.90365 32.815624 102.60677Q33.3 102.3099 33.6125 101.82552Q33.925 101.32552 34.128124 100.48177Q34.346874 99.63802 34.346874 98.76302Q34.346874 98.66927 34.346874 98.48177Q33.925 99.15365 33.190624 99.57552Q32.45625 99.98177 31.6125 99.98177Q30.190624 99.98177 29.20625 98.95052Q28.221874 97.91927 28.221874 96.23177Q28.221874 94.4974 29.2375 93.4349Q30.26875 92.3724 31.815624 92.3724Q32.940624 92.3724 33.8625 92.98177Q34.784374 93.57552 35.26875 94.6849Q35.753124 95.79427 35.753124 97.90365Q35.753124 100.10677 35.26875 101.40365Q34.8 102.70052 33.846874 103.38802Q32.909374 104.07552 31.64375 104.07552Q30.3 104.07552 29.440624 103.32552Q28.596874 102.57552 28.425 101.21615ZM34.190624 96.16927Q34.190624 94.95052 33.534374 94.2474Q32.89375 93.52865 31.9875 93.52865Q31.05 93.52865 30.346874 94.29427Q29.659374 95.0599 29.659374 96.27865Q29.659374 97.3724 30.315624 98.0599Q30.9875 98.7474 31.95625 98.7474Q32.925 98.7474 33.55 98.0599Q34.190624 97.3724 34.190624 96.16927ZM38.003124 103.8724L38.003124 102.26302L39.6125 102.26302L39.6125 103.8724L38.003124 103.8724ZM48.6125 102.51302L48.6125 103.8724L41.034374 103.8724Q41.01875 103.35677 41.20625 102.88802Q41.4875 102.1224 42.128124 101.3724Q42.76875 100.6224 43.971874 99.63802Q45.83125 98.10677 46.4875 97.21615Q47.14375 96.3099 47.14375 95.51302Q47.14375 94.6849 46.55 94.10677Q45.95625 93.52865 44.9875 93.52865Q43.971874 93.52865 43.3625 94.13802Q42.753124 94.7474 42.753124 95.82552L41.3 95.6849Q41.45625 94.0599 42.425 93.21615Q43.39375 92.3724 45.01875 92.3724Q46.675 92.3724 47.628124 93.29427Q48.596874 94.20052 48.596874 95.54427Q48.596874 96.23177 48.315624 96.90365Q48.034374 97.5599 47.378124 98.29427Q46.721874 99.02865 45.20625 100.3099Q43.940624 101.3724 43.58125 101.76302Q43.221874 102.13802 42.9875 102.51302L48.6125 102.51302ZM50.4875 95.16927Q50.4875 93.9349 51.096874 93.07552Q51.721874 92.21615 52.89375 92.21615Q53.971874 92.21615 54.675 92.9974Q55.378124 93.76302 55.378124 95.2474Q55.378124 96.70052 54.659374 97.4974Q53.95625 98.27865 52.909374 98.27865Q51.8625 98.27865 51.175 97.51302Q50.4875 96.73177 50.4875 95.16927ZM52.925 93.1849Q52.409374 93.1849 52.05 93.63802Q51.70625 94.09115 51.70625 95.3099Q51.70625 96.40365 52.05 96.85677Q52.409374 97.3099 52.925 97.3099Q53.45625 97.3099 53.8 96.85677Q54.159374 96.40365 54.159374 95.20052Q54.159374 94.09115 53.8 93.63802Q53.45625 93.1849 52.925 93.1849ZM52.940624 104.29427L59.20625 92.21615L60.346874 92.21615L54.096874 104.29427L52.940624 104.29427ZM57.89375 101.1849Q57.89375 99.95052 58.503124 99.09115Q59.128124 98.23177 60.3 98.23177Q61.378124 98.23177 62.08125 99.01302Q62.8 99.77865 62.8 101.26302Q62.8 102.71615 62.08125 103.51302Q61.3625 104.29427 60.315624 104.29427Q59.26875 104.29427 58.58125 103.51302Q57.89375 102.73177 57.89375 101.1849ZM60.346874 99.20052Q59.815624 99.20052 59.45625 99.65365Q59.1125 100.10677 59.1125 101.32552Q59.1125 102.41927 59.45625 102.8724Q59.815624 103.32552 60.33125 103.32552Q60.878124 103.32552 61.221874 102.8724Q61.565624 102.41927 61.565624 101.21615Q61.565624 100.10677 61.20625 99.65365Q60.8625 99.20052 60.346874 99.20052Z" fill-rule="nonzero"/><path stroke="#757575" stroke-width="1.0" stroke-linecap="butt" d="M18.55 87.3724L145.23334 87.3724L219.71635 87.3724" fill-rule="nonzero"/><path fill="#9e9e9e" d="M221.71635 87.3724C221.71635 86.26782 220.82092 85.3724 219.71635 85.3724C218.61179 85.3724 217.71635 86.26782 217.71635 87.3724C217.71635 88.47697 218.61179 89.3724 219.71635 89.3724C220.82092 89.3724 221.71635 88.47697 221.71635 87.3724" fill-rule="nonzero"/><path fill="#efefef" d="M19.76875 188.70337L19.76875 177.25024L21.33125 177.25024L27.346874 186.23462L27.346874 177.25024L28.8 177.25024L28.8 188.70337L27.2375 188.70337L21.221874 179.70337L21.221874 188.70337L19.76875 188.70337ZM37.01875 187.67212Q36.2375 188.344 35.51875 188.62524Q34.8 188.89087 33.971874 188.89087Q32.596874 188.89087 31.8625 188.219Q31.128124 187.54712 31.128124 186.51587Q31.128124 185.9065 31.409374 185.4065Q31.690624 184.89087 32.128124 184.594Q32.58125 184.2815 33.14375 184.12524Q33.565624 184.01587 34.39375 183.92212Q36.096874 183.719 36.909374 183.43774Q36.909374 183.14087 36.909374 183.06274Q36.909374 182.20337 36.51875 181.85962Q35.971874 181.37524 34.909374 181.37524Q33.925 181.37524 33.440624 181.73462Q32.971874 182.07837 32.753124 182.95337L31.378124 182.76587Q31.565624 181.89087 31.9875 181.344Q32.425 180.79712 33.2375 180.51587Q34.05 180.219 35.1125 180.219Q36.175 180.219 36.83125 180.469Q37.503124 180.719 37.815624 181.094Q38.128124 181.469 38.253124 182.04712Q38.33125 182.4065 38.33125 183.344L38.33125 185.219Q38.33125 187.18774 38.409374 187.70337Q38.503124 188.219 38.76875 188.70337L37.3 188.70337Q37.08125 188.26587 37.01875 187.67212ZM36.909374 184.5315Q36.14375 184.844 34.6125 185.06274Q33.7375 185.18774 33.378124 185.344Q33.01875 185.50024 32.815624 185.81274Q32.628124 186.10962 32.628124 186.469Q32.628124 187.0315 33.05 187.4065Q33.4875 187.7815 34.3 187.7815Q35.1125 187.7815 35.7375 187.43774Q36.378124 187.07837 36.675 186.45337Q36.909374 185.98462 36.909374 185.04712L36.909374 184.5315ZM43.675 187.43774L43.878124 188.68774Q43.284374 188.81274 42.815624 188.81274Q42.05 188.81274 41.628124 188.57837Q41.20625 188.32837 41.034374 187.93774Q40.8625 187.5315 40.8625 186.26587L40.8625 181.50024L39.83125 181.50024L39.83125 180.4065L40.8625 180.4065L40.8625 178.344L42.26875 177.50024L42.26875 180.4065L43.675 180.4065L43.675 181.50024L42.26875 181.50024L42.26875 186.344Q42.26875 186.95337 42.33125 187.12524Q42.409374 187.29712 42.58125 187.4065Q42.753124 187.50024 43.065624 187.50024Q43.3 187.50024 43.675 187.43774ZM50.05 188.70337L50.05 187.48462Q49.08125 188.89087 47.409374 188.89087Q46.675 188.89087 46.034374 188.60962Q45.409374 188.32837 45.096874 187.9065Q44.784374 187.469 44.659374 186.85962Q44.58125 186.43774 44.58125 185.54712L44.58125 180.4065L45.9875 180.4065L45.9875 185.00024Q45.9875 186.10962 46.065624 186.48462Q46.20625 187.04712 46.628124 187.35962Q47.065624 187.67212 47.690624 187.67212Q48.33125 187.67212 48.878124 187.35962Q49.440624 187.0315 49.659374 186.469Q49.89375 185.9065 49.89375 184.844L49.89375 180.4065L51.3 180.4065L51.3 188.70337L50.05 188.70337ZM53.596874 188.70337L53.596874 180.4065L54.8625 180.4065L54.8625 181.6565Q55.346874 180.7815 55.753124 180.50024Q56.159374 180.219 56.659374 180.219Q57.3625 180.219 58.096874 180.67212L57.6125 181.969Q57.096874 181.67212 56.58125 181.67212Q56.128124 181.67212 55.753124 181.95337Q55.39375 182.219 55.2375 182.719Q55.003124 183.469 55.003124 184.35962L55.003124 188.70337L53.596874 188.70337ZM64.28438 186.0315L65.7375 186.20337Q65.39375 187.48462 64.45625 188.18774Q63.534374 188.89087 62.096874 188.89087Q60.26875 188.89087 59.20625 187.76587Q58.14375 186.64087 58.14375 184.62524Q58.14375 182.5315 59.221874 181.37524Q60.3 180.219 62.01875 180.219Q63.675 180.219 64.72188 181.35962Q65.78438 182.48462 65.78438 184.5315Q65.78438 184.6565 65.78438 184.9065L59.596874 184.9065Q59.675 186.2815 60.3625 187.01587Q61.065624 187.73462 62.096874 187.73462Q62.878124 187.73462 63.425 187.32837Q63.971874 186.92212 64.28438 186.0315ZM59.675 183.75024L64.3 183.75024Q64.20625 182.70337 63.76875 182.18774Q63.096874 181.37524 62.034374 181.37524Q61.065624 181.37524 60.39375 182.0315Q59.7375 182.67212 59.675 183.75024ZM67.05 186.219L68.44063 186.00024Q68.55 186.844 69.08125 187.29712Q69.62813 187.73462 70.58125 187.73462Q71.55 187.73462 72.01875 187.344Q72.4875 186.93774 72.4875 186.4065Q72.4875 185.93774 72.08125 185.6565Q71.78438 185.469 70.64375 185.18774Q69.09688 184.79712 68.4875 184.51587Q67.89375 184.219 67.58125 183.719Q67.28438 183.219 67.28438 182.60962Q67.28438 182.04712 67.53438 181.57837Q67.78438 181.10962 68.22188 180.79712Q68.55 180.54712 69.1125 180.39087Q69.69063 180.219 70.33125 180.219Q71.31563 180.219 72.05 180.50024Q72.78438 180.7815 73.12813 181.26587Q73.4875 181.73462 73.62813 182.54712L72.25313 182.73462Q72.15938 182.094 71.70625 181.73462Q71.25313 181.37524 70.44063 181.37524Q69.47188 181.37524 69.05 181.70337Q68.64375 182.01587 68.64375 182.43774Q68.64375 182.719 68.81563 182.93774Q68.9875 183.1565 69.34688 183.31274Q69.56563 183.39087 70.59688 183.67212Q72.08125 184.06274 72.675 184.32837Q73.26875 184.57837 73.59688 185.06274Q73.94063 185.54712 73.94063 186.26587Q73.94063 186.969 73.51875 187.594Q73.1125 188.20337 72.33125 188.54712Q71.56563 188.89087 70.59688 188.89087Q68.97188 188.89087 68.12813 188.219Q67.28438 187.54712 67.05 186.219ZM81.01875 185.6565L82.40938 185.844Q82.175 187.26587 81.2375 188.07837Q80.31563 188.89087 78.95625 188.89087Q77.25313 188.89087 76.20625 187.7815Q75.175 186.6565 75.175 184.57837Q75.175 183.23462 75.6125 182.23462Q76.06563 181.219 76.97188 180.719Q77.89375 180.219 78.95625 180.219Q80.31563 180.219 81.175 180.9065Q82.03438 181.57837 82.26875 182.844L80.90938 183.04712Q80.70625 182.219 80.20625 181.79712Q79.72188 181.37524 79.01875 181.37524Q77.95625 181.37524 77.28438 182.14087Q76.62813 182.89087 76.62813 184.54712Q76.62813 186.219 77.26875 186.98462Q77.90938 187.73462 78.94063 187.73462Q79.76875 187.73462 80.31563 187.23462Q80.87813 186.719 81.01875 185.6565ZM89.01875 187.67212Q88.2375 188.344 87.51875 188.62524Q86.8 188.89087 85.97188 188.89087Q84.59688 188.89087 83.8625 188.219Q83.12813 187.54712 83.12813 186.51587Q83.12813 185.9065 83.40938 185.4065Q83.69063 184.89087 84.12813 184.594Q84.58125 184.2815 85.14375 184.12524Q85.56563 184.01587 86.39375 183.92212Q88.09688 183.719 88.90938 183.43774Q88.90938 183.14087 88.90938 183.06274Q88.90938 182.20337 88.51875 181.85962Q87.97188 181.37524 86.90938 181.37524Q85.925 181.37524 85.44063 181.73462Q84.97188 182.07837 84.75313 182.95337L83.37813 182.76587Q83.56563 181.89087 83.9875 181.344Q84.425 180.79712 85.2375 180.51587Q86.05 180.219 87.1125 180.219Q88.175 180.219 88.83125 180.469Q89.50313 180.719 89.81563 181.094Q90.12813 181.469 90.25313 182.04712Q90.33125 182.4065 90.33125 183.344L90.33125 185.219Q90.33125 187.18774 90.40938 187.70337Q90.50313 188.219 90.76875 188.70337L89.3 188.70337Q89.08125 188.26587 89.01875 187.67212ZM88.90938 184.5315Q88.14375 184.844 86.6125 185.06274Q85.7375 185.18774 85.37813 185.344Q85.01875 185.50024 84.81563 185.81274Q84.62813 186.10962 84.62813 186.469Q84.62813 187.0315 85.05 187.4065Q85.4875 187.7815 86.3 187.7815Q87.1125 187.7815 87.7375 187.43774Q88.37813 187.07837 88.675 186.45337Q88.90938 185.98462 88.90938 185.04712L88.90938 184.5315ZM92.6125 191.89087L92.6125 180.4065L93.89375 180.4065L93.89375 181.48462Q94.34688 180.844 94.90938 180.5315Q95.4875 180.219 96.3 180.219Q97.3625 180.219 98.175 180.76587Q98.9875 181.31274 99.39375 182.31274Q99.81563 183.29712 99.81563 184.48462Q99.81563 185.76587 99.34688 186.7815Q98.89375 187.79712 98.01875 188.344Q97.15938 188.89087 96.19063 188.89087Q95.4875 188.89087 94.925 188.594Q94.37813 188.29712 94.01875 187.844L94.01875 191.89087L92.6125 191.89087ZM93.87813 184.594Q93.87813 186.20337 94.51875 186.969Q95.175 187.73462 96.09688 187.73462Q97.03438 187.73462 97.70625 186.93774Q98.37813 186.14087 98.37813 184.48462Q98.37813 182.89087 97.72188 182.10962Q97.06563 181.31274 96.15938 181.31274Q95.26875 181.31274 94.56563 182.1565Q93.87813 183.00024 93.87813 184.594ZM107.28438 186.0315L108.7375 186.20337Q108.39375 187.48462 107.45625 188.18774Q106.53438 188.89087 105.09688 188.89087Q103.26875 188.89087 102.20625 187.76587Q101.14375 186.64087 101.14375 184.62524Q101.14375 182.5315 102.22188 181.37524Q103.3 180.219 105.01875 180.219Q106.675 180.219 107.72188 181.35962Q108.78438 182.48462 108.78438 184.5315Q108.78438 184.6565 108.78438 184.9065L102.59688 184.9065Q102.675 186.2815 103.3625 187.01587Q104.06563 187.73462 105.09688 187.73462Q105.87813 187.73462 106.425 187.32837Q106.97188 186.92212 107.28438 186.0315ZM102.675 183.75024L107.3 183.75024Q107.20625 182.70337 106.76875 182.18774Q106.09688 181.37524 105.03438 181.37524Q104.06563 181.37524 103.39375 182.0315Q102.7375 182.67212 102.675 183.75024Z" fill-rule="nonzero"/><path fill="#9e9e9e" d="M19.425 208.04712L20.784374 207.92212Q20.95625 208.87524 21.440624 209.31274Q21.925 209.73462 22.675 209.73462Q23.33125 209.73462 23.815624 209.43774Q24.3 209.14087 24.6125 208.6565Q24.925 208.1565 25.128124 207.31274Q25.346874 206.469 25.346874 205.594Q25.346874 205.50024 25.346874 205.31274Q24.925 205.98462 24.190624 206.4065Q23.45625 206.81274 22.6125 206.81274Q21.190624 206.81274 20.20625 205.7815Q19.221874 204.75024 19.221874 203.06274Q19.221874 201.32837 20.2375 200.26587Q21.26875 199.20337 22.815624 199.20337Q23.940624 199.20337 24.8625 199.81274Q25.784374 200.4065 26.26875 201.51587Q26.753124 202.62524 26.753124 204.73462Q26.753124 206.93774 26.26875 208.23462Q25.8 209.5315 24.846874 210.219Q23.909374 210.9065 22.64375 210.9065Q21.3 210.9065 20.440624 210.1565Q19.596874 209.4065 19.425 208.04712ZM25.190624 203.00024Q25.190624 201.7815 24.534374 201.07837Q23.89375 200.35962 22.9875 200.35962Q22.05 200.35962 21.346874 201.12524Q20.659374 201.89087 20.659374 203.10962Q20.659374 204.20337 21.315624 204.89087Q21.9875 205.57837 22.95625 205.57837Q23.925 205.57837 24.55 204.89087Q25.190624 204.20337 25.190624 203.00024ZM29.003124 210.70337L29.003124 209.094L30.6125 209.094L30.6125 210.70337L29.003124 210.70337ZM36.721874 210.70337L36.721874 207.95337L31.753124 207.95337L31.753124 206.67212L36.9875 199.25024L38.128124 199.25024L38.128124 206.67212L39.675 206.67212L39.675 207.95337L38.128124 207.95337L38.128124 210.70337L36.721874 210.70337ZM36.721874 206.67212L36.721874 201.50024L33.14375 206.67212L36.721874 206.67212ZM41.4875 202.00024Q41.4875 200.76587 42.096874 199.9065Q42.721874 199.04712 43.89375 199.04712Q44.971874 199.04712 45.675 199.82837Q46.378124 200.594 46.378124 202.07837Q46.378124 203.5315 45.659374 204.32837Q44.95625 205.10962 43.909374 205.10962Q42.8625 205.10962 42.175 204.344Q41.4875 203.56274 41.4875 202.00024ZM43.925 200.01587Q43.409374 200.01587 43.05 200.469Q42.70625 200.92212 42.70625 202.14087Q42.70625 203.23462 43.05 203.68774Q43.409374 204.14087 43.925 204.14087Q44.45625 204.14087 44.8 203.68774Q45.159374 203.23462 45.159374 202.0315Q45.159374 200.92212 44.8 200.469Q44.45625 200.01587 43.925 200.01587ZM43.940624 211.12524L50.20625 199.04712L51.346874 199.04712L45.096874 211.12524L43.940624 211.12524ZM48.89375 208.01587Q48.89375 206.7815 49.503124 205.92212Q50.128124 205.06274 51.3 205.06274Q52.378124 205.06274 53.08125 205.844Q53.8 206.60962 53.8 208.094Q53.8 209.54712 53.08125 210.344Q52.3625 211.12524 51.315624 211.12524Q50.26875 211.12524 49.58125 210.344Q48.89375 209.56274 48.89375 208.01587ZM51.346874 206.0315Q50.815624 206.0315 50.45625 206.48462Q50.1125 206.93774 50.1125 208.1565Q50.1125 209.25024 50.45625 209.70337Q50.815624 210.1565 51.33125 210.1565Q51.878124 210.1565 52.221874 209.70337Q52.565624 209.25024 52.565624 208.04712Q52.565624 206.93774 52.20625 206.48462Q51.8625 206.0315 51.346874 206.0315Z" fill-rule="nonzero"/><path stroke="#757575" stroke-width="1.0" stroke-linecap="butt" d="M18.55 194.20337L145.23334 194.20337L158.98997 194.20337" fill-rule="nonzero"/><path fill="#9e9e9e" d="M160.98997 194.20337C160.98997 193.09879 160.09454 192.20337 158.98997 192.20337C157.8854 192.20337 156.98997 193.09879 156.98997 194.20337C156.98997 195.30794 157.8854 196.20337 158.98997 196.20337C160.09454 196.20337 160.98997 195.30794 160.98997 194.20337" fill-rule="nonzero"/><path fill="#efefef" d="M18.51875 237.50334L22.925 226.05022L24.565624 226.05022L29.253124 237.50334L27.51875 237.50334L26.190624 234.03459L21.39375 234.03459L20.14375 237.50334L18.51875 237.50334ZM21.83125 232.80022L25.721874 232.80022L24.51875 229.62834Q23.971874 228.17522 23.70625 227.25334Q23.4875 228.34709 23.096874 229.44084L21.83125 232.80022ZM30.6125 237.50334L30.6125 229.20647L31.878124 229.20647L31.878124 230.37834Q32.784374 229.01897 34.51875 229.01897Q35.26875 229.01897 35.89375 229.28459Q36.51875 229.55022 36.83125 229.98772Q37.14375 230.42522 37.26875 231.03459Q37.346874 231.42522 37.346874 232.39397L37.346874 237.50334L35.940624 237.50334L35.940624 232.45647Q35.940624 231.59709 35.76875 231.17522Q35.6125 230.73772 35.190624 230.48772Q34.784374 230.23772 34.221874 230.23772Q33.315624 230.23772 32.659374 230.81584Q32.01875 231.37834 32.01875 232.97209L32.01875 237.50334L30.6125 237.50334ZM39.6125 227.65959L39.6125 226.05022L41.01875 226.05022L41.01875 227.65959L39.6125 227.65959ZM39.6125 237.50334L39.6125 229.20647L41.01875 229.20647L41.01875 237.50334L39.6125 237.50334ZM43.6125 237.50334L43.6125 229.20647L44.8625 229.20647L44.8625 230.36272Q45.253124 229.75334 45.89375 229.39397Q46.55 229.01897 47.378124 229.01897Q48.3 229.01897 48.89375 229.40959Q49.4875 229.78459 49.721874 230.47209Q50.70625 229.01897 52.284374 229.01897Q53.51875 229.01897 54.175 229.70647Q54.846874 230.37834 54.846874 231.80022L54.846874 237.50334L53.45625 237.50334L53.45625 232.26897Q53.45625 231.42522 53.315624 231.06584Q53.175 230.69084 52.815624 230.47209Q52.45625 230.23772 51.971874 230.23772Q51.096874 230.23772 50.51875 230.81584Q49.940624 231.39397 49.940624 232.67522L49.940624 237.50334L48.534374 237.50334L48.534374 232.11272Q48.534374 231.17522 48.190624 230.70647Q47.846874 230.23772 47.065624 230.23772Q46.471874 230.23772 45.971874 230.55022Q45.471874 230.86272 45.2375 231.47209Q45.01875 232.06584 45.01875 233.19084L45.01875 237.50334L43.6125 237.50334ZM62.01875 236.47209Q61.2375 237.14397 60.51875 237.42522Q59.8 237.69084 58.971874 237.69084Q57.596874 237.69084 56.8625 237.01897Q56.128124 236.34709 56.128124 235.31584Q56.128124 234.70647 56.409374 234.20647Q56.690624 233.69084 57.128124 233.39397Q57.58125 233.08147 58.14375 232.92522Q58.565624 232.81584 59.39375 232.72209Q61.096874 232.51897 61.909374 232.23772Q61.909374 231.94084 61.909374 231.86272Q61.909374 231.00334 61.51875 230.65959Q60.971874 230.17522 59.909374 230.17522Q58.925 230.17522 58.440624 230.53459Q57.971874 230.87834 57.753124 231.75334L56.378124 231.56584Q56.565624 230.69084 56.9875 230.14397Q57.425 229.59709 58.2375 229.31584Q59.05 229.01897 60.1125 229.01897Q61.175 229.01897 61.83125 229.26897Q62.503124 229.51897 62.815624 229.89397Q63.128124 230.26897 63.253124 230.84709Q63.33125 231.20647 63.33125 232.14397L63.33125 234.01897Q63.33125 235.98772 63.409374 236.50334Q63.503124 237.01897 63.76875 237.50334L62.3 237.50334Q62.08125 237.06584 62.01875 236.47209ZM61.909374 233.33147Q61.14375 233.64397 59.6125 233.86272Q58.7375 233.98772 58.378124 234.14397Q58.01875 234.30022 57.815624 234.61272Q57.628124 234.90959 57.628124 235.26897Q57.628124 235.83147 58.05 236.20647Q58.4875 236.58147 59.3 236.58147Q60.1125 236.58147 60.7375 236.23772Q61.378124 235.87834 61.675 235.25334Q61.909374 234.78459 61.909374 233.84709L61.909374 233.33147ZM65.58125 237.50334L65.58125 226.05022L66.9875 226.05022L66.9875 237.50334L65.58125 237.50334ZM69.05 235.01897L70.44063 234.80022Q70.55 235.64397 71.08125 236.09709Q71.62813 236.53459 72.58125 236.53459Q73.55 236.53459 74.01875 236.14397Q74.4875 235.73772 74.4875 235.20647Q74.4875 234.73772 74.08125 234.45647Q73.78438 234.26897 72.64375 233.98772Q71.09688 233.59709 70.4875 233.31584Q69.89375 233.01897 69.58125 232.51897Q69.28438 232.01897 69.28438 231.40959Q69.28438 230.84709 69.53438 230.37834Q69.78438 229.90959 70.22188 229.59709Q70.55 229.34709 71.1125 229.19084Q71.69063 229.01897 72.33125 229.01897Q73.31563 229.01897 74.05 229.30022Q74.78438 229.58147 75.12813 230.06584Q75.4875 230.53459 75.62813 231.34709L74.25313 231.53459Q74.15938 230.89397 73.70625 230.53459Q73.25313 230.17522 72.44063 230.17522Q71.47188 230.17522 71.05 230.50334Q70.64375 230.81584 70.64375 231.23772Q70.64375 231.51897 70.81563 231.73772Q70.9875 231.95647 71.34688 232.11272Q71.56563 232.19084 72.59688 232.47209Q74.08125 232.86272 74.675 233.12834Q75.26875 233.37834 75.59688 233.86272Q75.94063 234.34709 75.94063 235.06584Q75.94063 235.76897 75.51875 236.39397Q75.1125 237.00334 74.33125 237.34709Q73.56563 237.69084 72.59688 237.69084Q70.97188 237.69084 70.12813 237.01897Q69.28438 236.34709 69.05 235.01897Z" fill-rule="nonzero"/><path fill="#9e9e9e" d="M24.51875 259.50336L23.1125 259.50336L23.1125 250.5346Q22.596874 251.01898 21.76875 251.50336Q20.95625 251.98773 20.3 252.23773L20.3 250.87836Q21.471874 250.31586 22.346874 249.5346Q23.2375 248.73773 23.6125 248.00336L24.51875 248.00336L24.51875 259.50336ZM29.003124 259.50336L29.003124 257.89398L30.6125 257.89398L30.6125 259.50336L29.003124 259.50336ZM32.315624 249.55023L32.315624 248.19086L39.721874 248.19086L39.721874 249.2846Q38.628124 250.45648 37.55 252.39398Q36.4875 254.31586 35.89375 256.3471Q35.471874 257.7846 35.3625 259.50336L33.909374 259.50336Q33.940624 258.14398 34.440624 256.23773Q34.95625 254.31586 35.89375 252.55023Q36.846874 250.76898 37.925 249.55023L32.315624 249.55023ZM41.4875 250.80023Q41.4875 249.56586 42.096874 248.70648Q42.721874 247.8471 43.89375 247.8471Q44.971874 247.8471 45.675 248.62836Q46.378124 249.39398 46.378124 250.87836Q46.378124 252.33148 45.659374 253.12836Q44.95625 253.9096 43.909374 253.9096Q42.8625 253.9096 42.175 253.14398Q41.4875 252.36273 41.4875 250.80023ZM43.925 248.81586Q43.409374 248.81586 43.05 249.26898Q42.70625 249.7221 42.70625 250.94086Q42.70625 252.0346 43.05 252.48773Q43.409374 252.94086 43.925 252.94086Q44.45625 252.94086 44.8 252.48773Q45.159374 252.0346 45.159374 250.83148Q45.159374 249.7221 44.8 249.26898Q44.45625 248.81586 43.925 248.81586ZM43.940624 259.92523L50.20625 247.8471L51.346874 247.8471L45.096874 259.92523L43.940624 259.92523ZM48.89375 256.81586Q48.89375 255.58148 49.503124 254.7221Q50.128124 253.86273 51.3 253.86273Q52.378124 253.86273 53.08125 254.64398Q53.8 255.4096 53.8 256.89398Q53.8 258.3471 53.08125 259.14398Q52.3625 259.92523 51.315624 259.92523Q50.26875 259.92523 49.58125 259.14398Q48.89375 258.36273 48.89375 256.81586ZM51.346874 254.83148Q50.815624 254.83148 50.45625 255.2846Q50.1125 255.73773 50.1125 256.95648Q50.1125 258.05023 50.45625 258.50336Q50.815624 258.95648 51.33125 258.95648Q51.878124 258.95648 52.221874 258.50336Q52.565624 258.05023 52.565624 256.8471Q52.565624 255.73773 52.20625 255.2846Q51.8625 254.83148 51.346874 254.83148Z" fill-rule="nonzero"/><path stroke="#757575" stroke-width="1.0" stroke-linecap="butt" d="M18.55 243.00334L145.23334 243.00334L164.25157 243.00334" fill-rule="nonzero"/><path fill="#9e9e9e" d="M166.25157 243.00334C166.25157 241.89877 165.35614 241.00334 164.25157 241.00334C163.147 241.00334 162.25157 241.89877 162.25157 243.00334C162.25157 244.10791 163.147 245.00334 164.25157 245.00334C165.35614 245.00334 166.25157 244.10791 166.25157 243.00334" fill-rule="nonzero"/><path fill="#efefef" d="M19.784374 281.56076L19.784374 270.10764L24.1125 270.10764Q25.253124 270.10764 25.846874 270.217Q26.690624 270.35764 27.253124 270.74826Q27.83125 271.1389 28.175 271.85764Q28.534374 272.56076 28.534374 273.42014Q28.534374 274.87326 27.596874 275.8889Q26.675 276.9045 24.2375 276.9045L21.3 276.9045L21.3 281.56076L19.784374 281.56076ZM21.3 275.54514L24.26875 275.54514Q25.7375 275.54514 26.346874 274.99826Q26.971874 274.4514 26.971874 273.467Q26.971874 272.74826 26.596874 272.23264Q26.2375 271.717 25.64375 271.56076Q25.26875 271.4514 24.2375 271.4514L21.3 271.4514L21.3 275.54514ZM30.58125 281.56076L30.58125 270.10764L31.9875 270.10764L31.9875 281.56076L30.58125 281.56076ZM40.01875 280.5295Q39.2375 281.2014 38.51875 281.48264Q37.8 281.74826 36.971874 281.74826Q35.596874 281.74826 34.8625 281.0764Q34.128124 280.4045 34.128124 279.37326Q34.128124 278.7639 34.409374 278.2639Q34.690624 277.74826 35.128124 277.4514Q35.58125 277.1389 36.14375 276.98264Q36.565624 276.87326 37.39375 276.7795Q39.096874 276.5764 39.909374 276.29514Q39.909374 275.99826 39.909374 275.92014Q39.909374 275.06076 39.51875 274.717Q38.971874 274.23264 37.909374 274.23264Q36.925 274.23264 36.440624 274.592Q35.971874 274.93576 35.753124 275.81076L34.378124 275.62326Q34.565624 274.74826 34.9875 274.2014Q35.425 273.6545 36.2375 273.37326Q37.05 273.0764 38.1125 273.0764Q39.175 273.0764 39.83125 273.3264Q40.503124 273.5764 40.815624 273.9514Q41.128124 274.3264 41.253124 274.9045Q41.33125 275.2639 41.33125 276.2014L41.33125 278.0764Q41.33125 280.04514 41.409374 280.56076Q41.503124 281.0764 41.76875 281.56076L40.3 281.56076Q40.08125 281.12326 40.01875 280.5295ZM39.909374 277.3889Q39.14375 277.7014 37.6125 277.92014Q36.7375 278.04514 36.378124 278.2014Q36.01875 278.35764 35.815624 278.67014Q35.628124 278.967 35.628124 279.3264Q35.628124 279.8889 36.05 280.2639Q36.4875 280.6389 37.3 280.6389Q38.1125 280.6389 38.7375 280.29514Q39.378124 279.93576 39.675 279.31076Q39.909374 278.842 39.909374 277.9045L39.909374 277.3889ZM43.6125 281.56076L43.6125 273.2639L44.878124 273.2639L44.878124 274.43576Q45.784374 273.0764 47.51875 273.0764Q48.26875 273.0764 48.89375 273.342Q49.51875 273.60764 49.83125 274.04514Q50.14375 274.48264 50.26875 275.092Q50.346874 275.48264 50.346874 276.4514L50.346874 281.56076L48.940624 281.56076L48.940624 276.5139Q48.940624 275.6545 48.76875 275.23264Q48.6125 274.79514 48.190624 274.54514Q47.784374 274.29514 47.221874 274.29514Q46.315624 274.29514 45.659374 274.87326Q45.01875 275.43576 45.01875 277.0295L45.01875 281.56076L43.6125 281.56076ZM55.675 280.29514L55.878124 281.54514Q55.284374 281.67014 54.815624 281.67014Q54.05 281.67014 53.628124 281.43576Q53.20625 281.18576 53.034374 280.79514Q52.8625 280.3889 52.8625 279.12326L52.8625 274.35764L51.83125 274.35764L51.83125 273.2639L52.8625 273.2639L52.8625 271.2014L54.26875 270.35764L54.26875 273.2639L55.675 273.2639L55.675 274.35764L54.26875 274.35764L54.26875 279.2014Q54.26875 279.81076 54.33125 279.98264Q54.409374 280.1545 54.58125 280.2639Q54.753124 280.35764 55.065624 280.35764Q55.3 280.35764 55.675 280.29514ZM56.05 279.0764L57.440624 278.85764Q57.55 279.7014 58.08125 280.1545Q58.628124 280.592 59.58125 280.592Q60.55 280.592 61.01875 280.2014Q61.4875 279.79514 61.4875 279.2639Q61.4875 278.79514 61.08125 278.5139Q60.784374 278.3264 59.64375 278.04514Q58.096874 277.6545 57.4875 277.37326Q56.89375 277.0764 56.58125 276.5764Q56.284374 276.0764 56.284374 275.467Q56.284374 274.9045 56.534374 274.43576Q56.784374 273.967 57.221874 273.6545Q57.55 273.4045 58.1125 273.24826Q58.690624 273.0764 59.33125 273.0764Q60.315624 273.0764 61.05 273.35764Q61.784374 273.6389 62.128124 274.12326Q62.4875 274.592 62.628124 275.4045L61.253124 275.592Q61.159374 274.9514 60.70625 274.592Q60.253124 274.23264 59.440624 274.23264Q58.471874 274.23264 58.05 274.56076Q57.64375 274.87326 57.64375 275.29514Q57.64375 275.5764 57.815624 275.79514Q57.9875 276.0139 58.346874 276.17014Q58.565624 276.24826 59.596874 276.5295Q61.08125 276.92014 61.675 277.18576Q62.26875 277.43576 62.596874 277.92014Q62.940624 278.4045 62.940624 279.12326Q62.940624 279.8264 62.51875 280.4514Q62.1125 281.06076 61.33125 281.4045Q60.565624 281.74826 59.596874 281.74826Q57.971874 281.74826 57.128124 281.0764Q56.284374 280.4045 56.05 279.0764Z" fill-rule="nonzero"/><path fill="#9e9e9e" d="M19.425 300.9045L20.784374 300.7795Q20.95625 301.73264 21.440624 302.17014Q21.925 302.592 22.675 302.592Q23.33125 302.592 23.815624 302.29514Q24.3 301.99826 24.6125 301.5139Q24.925 301.0139 25.128124 300.17014Q25.346874 299.3264 25.346874 298.4514Q25.346874 298.35764 25.346874 298.17014Q24.925 298.842 24.190624 299.2639Q23.45625 299.67014 22.6125 299.67014Q21.190624 299.67014 20.20625 298.6389Q19.221874 297.60764 19.221874 295.92014Q19.221874 294.18576 20.2375 293.12326Q21.26875 292.06076 22.815624 292.06076Q23.940624 292.06076 24.8625 292.67014Q25.784374 293.2639 26.26875 294.37326Q26.753124 295.48264 26.753124 297.592Q26.753124 299.79514 26.26875 301.092Q25.8 302.3889 24.846874 303.0764Q23.909374 303.7639 22.64375 303.7639Q21.3 303.7639 20.440624 303.0139Q19.596874 302.2639 19.425 300.9045ZM25.190624 295.85764Q25.190624 294.6389 24.534374 293.93576Q23.89375 293.217 22.9875 293.217Q22.05 293.217 21.346874 293.98264Q20.659374 294.74826 20.659374 295.967Q20.659374 297.06076 21.315624 297.74826Q21.9875 298.43576 22.95625 298.43576Q23.925 298.43576 24.55 297.74826Q25.190624 297.06076 25.190624 295.85764ZM29.003124 303.56076L29.003124 301.9514L30.6125 301.9514L30.6125 303.56076L29.003124 303.56076ZM36.721874 303.56076L36.721874 300.81076L31.753124 300.81076L31.753124 299.5295L36.9875 292.10764L38.128124 292.10764L38.128124 299.5295L39.675 299.5295L39.675 300.81076L38.128124 300.81076L38.128124 303.56076L36.721874 303.56076ZM36.721874 299.5295L36.721874 294.35764L33.14375 299.5295L36.721874 299.5295ZM41.4875 294.85764Q41.4875 293.62326 42.096874 292.7639Q42.721874 291.9045 43.89375 291.9045Q44.971874 291.9045 45.675 292.68576Q46.378124 293.4514 46.378124 294.93576Q46.378124 296.3889 45.659374 297.18576Q44.95625 297.967 43.909374 297.967Q42.8625 297.967 42.175 297.2014Q41.4875 296.42014 41.4875 294.85764ZM43.925 292.87326Q43.409374 292.87326 43.05 293.3264Q42.70625 293.7795 42.70625 294.99826Q42.70625 296.092 43.05 296.54514Q43.409374 296.99826 43.925 296.99826Q44.45625 296.99826 44.8 296.54514Q45.159374 296.092 45.159374 294.8889Q45.159374 293.7795 44.8 293.3264Q44.45625 292.87326 43.925 292.87326ZM43.940624 303.98264L50.20625 291.9045L51.346874 291.9045L45.096874 303.98264L43.940624 303.98264ZM48.89375 300.87326Q48.89375 299.6389 49.503124 298.7795Q50.128124 297.92014 51.3 297.92014Q52.378124 297.92014 53.08125 298.7014Q53.8 299.467 53.8 300.9514Q53.8 302.4045 53.08125 303.2014Q52.3625 303.98264 51.315624 303.98264Q50.26875 303.98264 49.58125 303.2014Q48.89375 302.42014 48.89375 300.87326ZM51.346874 298.8889Q50.815624 298.8889 50.45625 299.342Q50.1125 299.79514 50.1125 301.0139Q50.1125 302.10764 50.45625 302.56076Q50.815624 303.0139 51.33125 303.0139Q51.878124 303.0139 52.221874 302.56076Q52.565624 302.10764 52.565624 300.9045Q52.565624 299.79514 52.20625 299.342Q51.8625 298.8889 51.346874 298.8889Z" fill-rule="nonzero"/><path stroke="#757575" stroke-width="1.0" stroke-linecap="butt" d="M18.55 287.06076L145.23334 287.06076L185.88644 287.06076" fill-rule="nonzero"/><path fill="#9e9e9e" d="M187.88644 287.06076C187.88644 285.95618 186.99101 285.06076 185.88644 285.06076C184.78188 285.06076 183.88644 285.95618 183.88644 287.06076C183.88644 288.1653 184.78188 289.06076 185.88644 289.06076C186.99101 289.06076 187.88644 288.1653 187.88644 287.06076" fill-rule="nonzero"/><path fill="#efefef" d="M498.6844 73.04331L498.6844 61.590187L503.0125 61.590187Q504.15314 61.590187 504.7469 61.699562Q505.59064 61.840187 506.15314 62.230812Q506.73126 62.621437 507.075 63.340187Q507.4344 64.04331 507.4344 64.90269Q507.4344 66.35581 506.4969 67.37144Q505.575 68.38706 503.1375 68.38706L500.2 68.38706L500.2 73.04331L498.6844 73.04331ZM500.2 67.02769L503.16876 67.02769Q504.6375 67.02769 505.2469 66.48081Q505.8719 65.93394 505.8719 64.94956Q505.8719 64.23081 505.4969 63.715187Q505.1375 63.199562 504.54376 63.043312Q504.16876 62.933937 503.1375 62.933937L500.2 62.933937L500.2 67.02769ZM515.1844 70.37144L516.6375 70.54331Q516.29376 71.82456 515.35626 72.52769Q514.4344 73.23081 512.9969 73.23081Q511.16876 73.23081 510.10626 72.10581Q509.04376 70.98081 509.04376 68.96519Q509.04376 66.87144 510.1219 65.71519Q511.2 64.55894 512.91876 64.55894Q514.575 64.55894 515.6219 65.69956Q516.6844 66.82456 516.6844 68.87144Q516.6844 68.99644 516.6844 69.24644L510.4969 69.24644Q510.575 70.62144 511.2625 71.35581Q511.96564 72.07456 512.9969 72.07456Q513.77814 72.07456 514.325 71.66831Q514.8719 71.26206 515.1844 70.37144ZM510.575 68.09019L515.2 68.09019Q515.10626 67.04331 514.66876 66.52769Q513.9969 65.71519 512.9344 65.71519Q511.96564 65.71519 511.29376 66.37144Q510.6375 67.01206 510.575 68.09019ZM518.4969 73.04331L518.4969 64.74644L519.7625 64.74644L519.7625 65.99644Q520.2469 65.12144 520.65314 64.84019Q521.0594 64.55894 521.5594 64.55894Q522.2625 64.55894 522.9969 65.01206L522.5125 66.30894Q521.9969 66.01206 521.48126 66.01206Q521.02814 66.01206 520.65314 66.29331Q520.29376 66.55894 520.1375 67.05894Q519.90314 67.80894 519.90314 68.69956L519.90314 73.04331L518.4969 73.04331ZM522.95 70.55894L524.34064 70.34019Q524.45 71.18394 524.98126 71.63706Q525.52814 72.07456 526.48126 72.07456Q527.45 72.07456 527.91876 71.68394Q528.3875 71.27769 528.3875 70.74644Q528.3875 70.27769 527.98126 69.99644Q527.6844 69.80894 526.54376 69.52769Q524.9969 69.13706 524.3875 68.85581Q523.79376 68.55894 523.48126 68.05894Q523.1844 67.55894 523.1844 66.94956Q523.1844 66.38706 523.4344 65.91831Q523.6844 65.44956 524.1219 65.13706Q524.45 64.88706 525.0125 64.73081Q525.59064 64.55894 526.23126 64.55894Q527.21564 64.55894 527.95 64.84019Q528.6844 65.12144 529.02814 65.60581Q529.3875 66.07456 529.52814 66.88706L528.15314 67.07456Q528.0594 66.43394 527.60626 66.07456Q527.15314 65.71519 526.34064 65.71519Q525.3719 65.71519 524.95 66.04331Q524.54376 66.35581 524.54376 66.77769Q524.54376 67.05894 524.71564 67.27769Q524.8875 67.49644 525.2469 67.65269Q525.46564 67.73081 526.4969 68.01206Q527.98126 68.40269 528.575 68.66831Q529.16876 68.91831 529.4969 69.40269Q529.84064 69.88706 529.84064 70.60581Q529.84064 71.30894 529.41876 71.93394Q529.0125 72.54331 528.23126 72.88706Q527.46564 73.23081 526.4969 73.23081Q524.8719 73.23081 524.02814 72.55894Q523.1844 71.88706 522.95 70.55894ZM531.5125 76.23081L531.5125 64.74644L532.79376 64.74644L532.79376 65.82456Q533.2469 65.18394 533.8094 64.87144Q534.3875 64.55894 535.2 64.55894Q536.2625 64.55894 537.075 65.10581Q537.8875 65.65269 538.29376 66.65269Q538.71564 67.63706 538.71564 68.82456Q538.71564 70.10581 538.2469 71.12144Q537.79376 72.13706 536.91876 72.68394Q536.0594 73.23081 535.09064 73.23081Q534.3875 73.23081 533.825 72.93394Q533.27814 72.63706 532.91876 72.18394L532.91876 76.23081L531.5125 76.23081ZM532.77814 68.93394Q532.77814 70.54331 533.41876 71.30894Q534.075 72.07456 534.9969 72.07456Q535.9344 72.07456 536.60626 71.27769Q537.27814 70.48081 537.27814 68.82456Q537.27814 67.23081 536.6219 66.44956Q535.96564 65.65269 535.0594 65.65269Q534.16876 65.65269 533.46564 66.49644Q532.77814 67.34019 532.77814 68.93394ZM546.1844 70.37144L547.6375 70.54331Q547.29376 71.82456 546.35626 72.52769Q545.4344 73.23081 543.9969 73.23081Q542.16876 73.23081 541.10626 72.10581Q540.04376 70.98081 540.04376 68.96519Q540.04376 66.87144 541.1219 65.71519Q542.2 64.55894 543.91876 64.55894Q545.575 64.55894 546.6219 65.69956Q547.6844 66.82456 547.6844 68.87144Q547.6844 68.99644 547.6844 69.24644L541.4969 69.24644Q541.575 70.62144 542.2625 71.35581Q542.96564 72.07456 543.9969 72.07456Q544.77814 72.07456 545.325 71.66831Q545.8719 71.26206 546.1844 70.37144ZM541.575 68.09019L546.2 68.09019Q546.10626 67.04331 545.66876 66.52769Q544.9969 65.71519 543.9344 65.71519Q542.96564 65.71519 542.29376 66.37144Q541.6375 67.01206 541.575 68.09019ZM554.91876 69.99644L556.3094 70.18394Q556.075 71.60581 555.1375 72.41831Q554.21564 73.23081 552.85626 73.23081Q551.15314 73.23081 550.10626 72.12144Q549.075 70.99644 549.075 68.91831Q549.075 67.57456 549.5125 66.57456Q549.96564 65.55894 550.8719 65.05894Q551.79376 64.55894 552.85626 64.55894Q554.21564 64.55894 555.075 65.24644Q555.9344 65.91831 556.16876 67.18394L554.8094 67.38706Q554.60626 66.55894 554.10626 66.13706Q553.6219 65.71519 552.91876 65.71519Q551.85626 65.71519 551.1844 66.48081Q550.52814 67.23081 550.52814 68.88706Q550.52814 70.55894 551.16876 71.32456Q551.8094 72.07456 552.84064 72.07456Q553.66876 72.07456 554.21564 71.57456Q554.77814 71.05894 554.91876 69.99644ZM560.575 71.77769L560.77814 73.02769Q560.1844 73.15269 559.71564 73.15269Q558.95 73.15269 558.52814 72.91831Q558.10626 72.66831 557.9344 72.27769Q557.7625 71.87144 557.7625 70.60581L557.7625 65.84019L556.73126 65.84019L556.73126 64.74644L557.7625 64.74644L557.7625 62.683937L559.16876 61.840187L559.16876 64.74644L560.575 64.74644L560.575 65.84019L559.16876 65.84019L559.16876 70.68394Q559.16876 71.29331 559.23126 71.46519Q559.3094 71.63706 559.48126 71.74644Q559.65314 71.84019 559.96564 71.84019Q560.2 71.84019 560.575 71.77769ZM561.5125 63.199562L561.5125 61.590187L562.91876 61.590187L562.91876 63.199562L561.5125 63.199562ZM561.5125 73.04331L561.5125 64.74644L562.91876 64.74644L562.91876 73.04331L561.5125 73.04331ZM567.8094 73.04331L564.65314 64.74644L566.1375 64.74644L567.91876 69.71519Q568.21564 70.51206 568.45 71.38706Q568.6375 70.73081 568.98126 69.80894L570.825 64.74644L572.2625 64.74644L569.1219 73.04331L567.8094 73.04331ZM579.1844 70.37144L580.6375 70.54331Q580.29376 71.82456 579.35626 72.52769Q578.4344 73.23081 576.9969 73.23081Q575.16876 73.23081 574.10626 72.10581Q573.04376 70.98081 573.04376 68.96519Q573.04376 66.87144 574.1219 65.71519Q575.2 64.55894 576.91876 64.55894Q578.575 64.55894 579.6219 65.69956Q580.6844 66.82456 580.6844 68.87144Q580.6844 68.99644 580.6844 69.24644L574.4969 69.24644Q574.575 70.62144 575.2625 71.35581Q575.96564 72.07456 576.9969 72.07456Q577.77814 72.07456 578.325 71.66831Q578.8719 71.26206 579.1844 70.37144ZM574.575 68.09019L579.2 68.09019Q579.10626 67.04331 578.66876 66.52769Q577.9969 65.71519 576.9344 65.71519Q575.96564 65.71519 575.29376 66.37144Q574.6375 67.01206 574.575 68.09019Z" fill-rule="nonzero"/><path fill="#9e9e9e" d="M542.41876 95.04331L541.0125 95.04331L541.0125 86.07456Q540.4969 86.55894 539.66876 87.04331Q538.85626 87.52769 538.2 87.77769L538.2 86.41831Q539.3719 85.85581 540.2469 85.07456Q541.1375 84.27769 541.5125 83.54331L542.41876 83.54331L542.41876 95.04331ZM546.1219 92.04331L547.59064 91.91831Q547.7625 92.99644 548.35626 93.54331Q548.95 94.07456 549.79376 94.07456Q550.8094 94.07456 551.5125 93.30894Q552.21564 92.54331 552.21564 91.27769Q552.21564 90.07456 551.54376 89.38706Q550.8719 88.68394 549.77814 88.68394Q549.09064 88.68394 548.54376 88.99644Q547.9969 89.30894 547.6844 89.79331L546.3719 89.62144L547.48126 83.74644L553.16876 83.74644L553.16876 85.09019L548.60626 85.09019L547.98126 88.16831Q549.0125 87.44956 550.15314 87.44956Q551.65314 87.44956 552.6844 88.49644Q553.71564 89.52769 553.71564 91.15269Q553.71564 92.71519 552.8094 93.84019Q551.7 95.24644 549.79376 95.24644Q548.23126 95.24644 547.2469 94.37144Q546.2625 93.48081 546.1219 92.04331ZM555.90314 95.04331L555.90314 93.43394L557.5125 93.43394L557.5125 95.04331L555.90314 95.04331ZM563.6219 95.04331L563.6219 92.29331L558.65314 92.29331L558.65314 91.01206L563.8875 83.59019L565.02814 83.59019L565.02814 91.01206L566.575 91.01206L566.575 92.29331L565.02814 92.29331L565.02814 95.04331L563.6219 95.04331ZM563.6219 91.01206L563.6219 85.84019L560.04376 91.01206L563.6219 91.01206ZM568.3875 86.34019Q568.3875 85.10581 568.9969 84.24644Q569.6219 83.38706 570.79376 83.38706Q571.8719 83.38706 572.575 84.16831Q573.27814 84.93394 573.27814 86.41831Q573.27814 87.87144 572.5594 88.66831Q571.85626 89.44956 570.8094 89.44956Q569.7625 89.44956 569.075 88.68394Q568.3875 87.90269 568.3875 86.34019ZM570.825 84.35581Q570.3094 84.35581 569.95 84.80894Q569.60626 85.26206 569.60626 86.48081Q569.60626 87.57456 569.95 88.02769Q570.3094 88.48081 570.825 88.48081Q571.35626 88.48081 571.7 88.02769Q572.0594 87.57456 572.0594 86.37144Q572.0594 85.26206 571.7 84.80894Q571.35626 84.35581 570.825 84.35581ZM570.84064 95.46519L577.10626 83.38706L578.2469 83.38706L571.9969 95.46519L570.84064 95.46519ZM575.79376 92.35581Q575.79376 91.12144 576.40314 90.26206Q577.02814 89.40269 578.2 89.40269Q579.27814 89.40269 579.98126 90.18394Q580.7 90.94956 580.7 92.43394Q580.7 93.88706 579.98126 94.68394Q579.2625 95.46519 578.21564 95.46519Q577.16876 95.46519 576.48126 94.68394Q575.79376 93.90269 575.79376 92.35581ZM578.2469 90.37144Q577.71564 90.37144 577.35626 90.82456Q577.0125 91.27769 577.0125 92.49644Q577.0125 93.59019 577.35626 94.04331Q577.71564 94.49644 578.23126 94.49644Q578.77814 94.49644 579.1219 94.04331Q579.46564 93.59019 579.46564 92.38706Q579.46564 91.27769 579.10626 90.82456Q578.7625 90.37144 578.2469 90.37144Z" fill-rule="nonzero"/><path stroke="#757575" stroke-width="1.0" stroke-linecap="butt" d="M581.45 78.54331L454.76666 78.54331L365.67856 78.54331" fill-rule="nonzero"/><path fill="#9e9e9e" d="M367.67856 78.54331C367.67856 77.438736 366.7831 76.54331 365.67856 76.54331C364.57397 76.54331 363.67856 77.438736 363.67856 78.54331C363.67856 79.64788 364.57397 80.54331 365.67856 80.54331C366.7831 80.54331 367.67856 79.64788 367.67856 78.54331" fill-rule="nonzero"/><path fill="#efefef" d="M531.6844 300.10968L531.6844 288.65656L536.0125 288.65656Q537.15314 288.65656 537.7469 288.76593Q538.59064 288.90656 539.15314 289.29718Q539.73126 289.6878 540.075 290.40656Q540.4344 291.10968 540.4344 291.96906Q540.4344 293.42218 539.4969 294.4378Q538.575 295.45343 536.1375 295.45343L533.2 295.45343L533.2 300.10968L531.6844 300.10968ZM533.2 294.09406L536.16876 294.09406Q537.6375 294.09406 538.2469 293.54718Q538.8719 293.0003 538.8719 292.01593Q538.8719 291.29718 538.4969 290.78156Q538.1375 290.26593 537.54376 290.10968Q537.16876 290.0003 536.1375 290.0003L533.2 290.0003L533.2 294.09406ZM548.1844 297.4378L549.6375 297.60968Q549.29376 298.89093 548.35626 299.59406Q547.4344 300.29718 545.9969 300.29718Q544.16876 300.29718 543.10626 299.17218Q542.04376 298.04718 542.04376 296.03156Q542.04376 293.9378 543.1219 292.78156Q544.2 291.6253 545.91876 291.6253Q547.575 291.6253 548.6219 292.76593Q549.6844 293.89093 549.6844 295.9378Q549.6844 296.0628 549.6844 296.3128L543.4969 296.3128Q543.575 297.6878 544.2625 298.42218Q544.96564 299.14093 545.9969 299.14093Q546.77814 299.14093 547.325 298.73468Q547.8719 298.32843 548.1844 297.4378ZM543.575 295.15656L548.2 295.15656Q548.10626 294.10968 547.66876 293.59406Q546.9969 292.78156 545.9344 292.78156Q544.96564 292.78156 544.29376 293.4378Q543.6375 294.07843 543.575 295.15656ZM550.98126 295.95343Q550.98126 293.65656 552.2625 292.54718Q553.34064 291.6253 554.8719 291.6253Q556.59064 291.6253 557.66876 292.7503Q558.7625 293.85968 558.7625 295.84406Q558.7625 297.4378 558.27814 298.35968Q557.79376 299.28156 556.8719 299.79718Q555.96564 300.29718 554.8719 300.29718Q553.1375 300.29718 552.0594 299.1878Q550.98126 298.0628 550.98126 295.95343ZM552.4344 295.95343Q552.4344 297.54718 553.1219 298.34406Q553.825 299.14093 554.8719 299.14093Q555.91876 299.14093 556.60626 298.34406Q557.3094 297.54718 557.3094 295.90656Q557.3094 294.3753 556.60626 293.57843Q555.91876 292.78156 554.8719 292.78156Q553.825 292.78156 553.1219 293.57843Q552.4344 294.35968 552.4344 295.95343ZM560.5125 303.29718L560.5125 291.8128L561.79376 291.8128L561.79376 292.89093Q562.2469 292.2503 562.8094 291.9378Q563.3875 291.6253 564.2 291.6253Q565.2625 291.6253 566.075 292.17218Q566.8875 292.71906 567.29376 293.71906Q567.71564 294.70343 567.71564 295.89093Q567.71564 297.17218 567.2469 298.1878Q566.79376 299.20343 565.91876 299.7503Q565.0594 300.29718 564.09064 300.29718Q563.3875 300.29718 562.825 300.0003Q562.27814 299.70343 561.91876 299.2503L561.91876 303.29718L560.5125 303.29718ZM561.77814 296.0003Q561.77814 297.60968 562.41876 298.3753Q563.075 299.14093 563.9969 299.14093Q564.9344 299.14093 565.60626 298.34406Q566.27814 297.54718 566.27814 295.89093Q566.27814 294.29718 565.6219 293.51593Q564.96564 292.71906 564.0594 292.71906Q563.16876 292.71906 562.46564 293.5628Q561.77814 294.40656 561.77814 296.0003ZM569.48126 300.10968L569.48126 288.65656L570.8875 288.65656L570.8875 300.10968L569.48126 300.10968ZM579.1844 297.4378L580.6375 297.60968Q580.29376 298.89093 579.35626 299.59406Q578.4344 300.29718 576.9969 300.29718Q575.16876 300.29718 574.10626 299.17218Q573.04376 298.04718 573.04376 296.03156Q573.04376 293.9378 574.1219 292.78156Q575.2 291.6253 576.91876 291.6253Q578.575 291.6253 579.6219 292.76593Q580.6844 293.89093 580.6844 295.9378Q580.6844 296.0628 580.6844 296.3128L574.4969 296.3128Q574.575 297.6878 575.2625 298.42218Q575.96564 299.14093 576.9969 299.14093Q577.77814 299.14093 578.325 298.73468Q578.8719 298.32843 579.1844 297.4378ZM574.575 295.15656L579.2 295.15656Q579.10626 294.10968 578.66876 293.59406Q577.9969 292.78156 576.9344 292.78156Q575.96564 292.78156 575.29376 293.4378Q574.6375 294.07843 574.575 295.15656Z" fill-rule="nonzero"/><path fill="#9e9e9e" d="M541.6219 322.10968L541.6219 319.35968L536.65314 319.35968L536.65314 318.07843L541.8875 310.65656L543.02814 310.65656L543.02814 318.07843L544.575 318.07843L544.575 319.35968L543.02814 319.35968L543.02814 322.10968L541.6219 322.10968ZM541.6219 318.07843L541.6219 312.90656L538.04376 318.07843L541.6219 318.07843ZM550.6219 322.10968L550.6219 319.35968L545.65314 319.35968L545.65314 318.07843L550.8875 310.65656L552.02814 310.65656L552.02814 318.07843L553.575 318.07843L553.575 319.35968L552.02814 319.35968L552.02814 322.10968L550.6219 322.10968ZM550.6219 318.07843L550.6219 312.90656L547.04376 318.07843L550.6219 318.07843ZM555.90314 322.10968L555.90314 320.5003L557.5125 320.5003L557.5125 322.10968L555.90314 322.10968ZM559.325 319.45343L560.6844 319.32843Q560.85626 320.28156 561.34064 320.71906Q561.825 321.14093 562.575 321.14093Q563.23126 321.14093 563.71564 320.84406Q564.2 320.54718 564.5125 320.0628Q564.825 319.5628 565.02814 318.71906Q565.2469 317.8753 565.2469 317.0003Q565.2469 316.90656 565.2469 316.71906Q564.825 317.39093 564.09064 317.8128Q563.35626 318.21906 562.5125 318.21906Q561.09064 318.21906 560.10626 317.1878Q559.1219 316.15656 559.1219 314.46906Q559.1219 312.73468 560.1375 311.67218Q561.16876 310.60968 562.71564 310.60968Q563.84064 310.60968 564.7625 311.21906Q565.6844 311.8128 566.16876 312.92218Q566.65314 314.03156 566.65314 316.14093Q566.65314 318.34406 566.16876 319.64093Q565.7 320.9378 564.7469 321.6253Q563.8094 322.3128 562.54376 322.3128Q561.2 322.3128 560.34064 321.5628Q559.4969 320.8128 559.325 319.45343ZM565.09064 314.40656Q565.09064 313.1878 564.4344 312.48468Q563.79376 311.76593 562.8875 311.76593Q561.95 311.76593 561.2469 312.53156Q560.5594 313.29718 560.5594 314.51593Q560.5594 315.60968 561.21564 316.29718Q561.8875 316.98468 562.85626 316.98468Q563.825 316.98468 564.45 316.29718Q565.09064 315.60968 565.09064 314.40656ZM568.3875 313.40656Q568.3875 312.17218 568.9969 311.3128Q569.6219 310.45343 570.79376 310.45343Q571.8719 310.45343 572.575 311.23468Q573.27814 312.0003 573.27814 313.48468Q573.27814 314.9378 572.5594 315.73468Q571.85626 316.51593 570.8094 316.51593Q569.7625 316.51593 569.075 315.7503Q568.3875 314.96906 568.3875 313.40656ZM570.825 311.42218Q570.3094 311.42218 569.95 311.8753Q569.60626 312.32843 569.60626 313.54718Q569.60626 314.64093 569.95 315.09406Q570.3094 315.54718 570.825 315.54718Q571.35626 315.54718 571.7 315.09406Q572.0594 314.64093 572.0594 313.4378Q572.0594 312.32843 571.7 311.8753Q571.35626 311.42218 570.825 311.42218ZM570.84064 322.53156L577.10626 310.45343L578.2469 310.45343L571.9969 322.53156L570.84064 322.53156ZM575.79376 319.42218Q575.79376 318.1878 576.40314 317.32843Q577.02814 316.46906 578.2 316.46906Q579.27814 316.46906 579.98126 317.2503Q580.7 318.01593 580.7 319.5003Q580.7 320.95343 579.98126 321.7503Q579.2625 322.53156 578.21564 322.53156Q577.16876 322.53156 576.48126 321.7503Q575.79376 320.96906 575.79376 319.42218ZM578.2469 317.4378Q577.71564 317.4378 577.35626 317.89093Q577.0125 318.34406 577.0125 319.5628Q577.0125 320.65656 577.35626 321.10968Q577.71564 321.5628 578.23126 321.5628Q578.77814 321.5628 579.1219 321.10968Q579.46564 320.65656 579.46564 319.45343Q579.46564 318.34406 579.10626 317.89093Q578.7625 317.4378 578.2469 317.4378Z" fill-rule="nonzero"/><path stroke="#757575" stroke-width="1.0" stroke-linecap="butt" d="M581.45 305.60968L454.76666 305.60968L397.90158 305.60968" fill-rule="nonzero"/><path fill="#9e9e9e" d="M399.90158 305.60968C399.90158 304.5051 399.00613 303.60968 397.90158 303.60968C396.797 303.60968 395.90158 304.5051 395.90158 305.60968C395.90158 306.71423 396.797 307.60968 397.90158 307.60968C399.00613 307.60968 399.90158 306.71423 399.90158 305.60968" fill-rule="nonzero"/><path fill="#f3f3f3" d="M265.98438 37.55L265.98438 23.2375L268.84375 23.2375L272.21875 33.3625Q272.6875 34.784374 272.90625 35.4875Q273.15625 34.70625 273.67188 33.190624L277.09375 23.2375L279.64062 23.2375L279.64062 37.55L277.82812 37.55L277.82812 25.565624L273.65625 37.55L271.95312 37.55L267.8125 25.3625L267.8125 37.55L265.98438 37.55ZM289.92188 34.20625L291.73438 34.440624Q291.3125 36.01875 290.14062 36.909374Q288.98438 37.784374 287.17188 37.784374Q284.90625 37.784374 283.5625 36.39375Q282.23438 34.9875 282.23438 32.45625Q282.23438 29.83125 283.57812 28.39375Q284.92188 26.940624 287.07812 26.940624Q289.15625 26.940624 290.46875 28.3625Q291.79688 29.76875 291.79688 32.346874Q291.79688 32.503124 291.78125 32.815624L284.04688 32.815624Q284.14062 34.51875 285.01562 35.425Q285.89062 36.33125 287.1875 36.33125Q288.15625 36.33125 288.82812 35.83125Q289.51562 35.315624 289.92188 34.20625ZM284.14062 31.3625L289.9375 31.3625Q289.82812 30.065624 289.28125 29.409374Q288.4375 28.39375 287.09375 28.39375Q285.89062 28.39375 285.0625 29.20625Q284.23438 30.003124 284.14062 31.3625ZM300.54688 37.55L300.54688 36.2375Q299.5625 37.784374 297.64062 37.784374Q296.40625 37.784374 295.35938 37.096874Q294.32812 36.409374 293.75 35.190624Q293.1875 33.971874 293.1875 32.378124Q293.1875 30.815624 293.70312 29.55Q294.21875 28.284374 295.25 27.6125Q296.29688 26.940624 297.5625 26.940624Q298.5 26.940624 299.23438 27.346874Q299.96875 27.7375 300.4375 28.3625L300.4375 23.2375L302.17188 23.2375L302.17188 37.55L300.54688 37.55ZM294.98438 32.378124Q294.98438 34.3625 295.82812 35.346874Q296.67188 36.33125 297.8125 36.33125Q298.96875 36.33125 299.76562 35.39375Q300.57812 34.45625 300.57812 32.51875Q300.57812 30.39375 299.75 29.39375Q298.9375 28.39375 297.73438 28.39375Q296.5625 28.39375 295.76562 29.3625Q294.98438 30.315624 294.98438 32.378124ZM304.82812 25.253124L304.82812 23.2375L306.59375 23.2375L306.59375 25.253124L304.82812 25.253124ZM304.82812 37.55L304.82812 27.175L306.59375 27.175L306.59375 37.55L304.82812 37.55ZM315.60938 37.55L315.60938 36.01875Q314.40625 37.784374 312.32812 37.784374Q311.40625 37.784374 310.60938 37.440624Q309.8125 37.08125 309.42188 36.55Q309.04688 36.01875 308.89062 35.2375Q308.78125 34.721874 308.78125 33.596874L308.78125 27.175L310.53125 27.175L310.53125 32.925Q310.53125 34.3 310.64062 34.784374Q310.8125 35.471874 311.34375 35.878124Q311.89062 36.26875 312.67188 36.26875Q313.46875 36.26875 314.15625 35.8625Q314.85938 35.45625 315.14062 34.76875Q315.4375 34.065624 315.4375 32.7375L315.4375 27.175L317.1875 27.175L317.1875 37.55L315.60938 37.55ZM319.8125 37.55L319.8125 27.175L321.39062 27.175L321.39062 28.628124Q321.875 27.878124 322.6875 27.409374Q323.5 26.940624 324.53125 26.940624Q325.6875 26.940624 326.42188 27.425Q327.15625 27.89375 327.46875 28.753124Q328.70312 26.940624 330.67188 26.940624Q332.21875 26.940624 333.04688 27.8Q333.875 28.659374 333.875 30.425L333.875 37.55L332.125 37.55L332.125 31.01875Q332.125 29.95625 331.95312 29.503124Q331.78125 29.034374 331.32812 28.753124Q330.89062 28.471874 330.28125 28.471874Q329.1875 28.471874 328.45312 29.20625Q327.73438 29.925 327.73438 31.51875L327.73438 37.55L325.98438 37.55L325.98438 30.815624Q325.98438 29.64375 325.54688 29.065624Q325.125 28.471874 324.14062 28.471874Q323.40625 28.471874 322.76562 28.8625Q322.14062 29.253124 321.85938 30.003124Q321.57812 30.753124 321.57812 32.175L321.57812 37.55L319.8125 37.55Z" fill-rule="nonzero"/></svg>