<svg version="1.1" viewBox="0.0 0.0 600.0 371.0" fill="none" stroke="none" stroke-linecap="square" stroke-miterlimit="10" width="600" height="371" xmlns:xlink="http://www.w3.org/1999/xlink" xmlns="http://www.w3.org/2000/svg"><path fill="#ffffff" fill-opacity="0.0" d="M0 0L600.0 0L600.0 371.0L0 371.0L0 0Z" fill-rule="nonzero"/><path fill="#304388" d="M300.0 54.916668C305.88052 54.916668 311.75586 55.26534 317.5951 55.960846L304.39877 166.75272C302.93896 166.57884 301.47012 166.49167 300.0 166.49167Z" fill-rule="nonzero"/><path fill="#533990" d="M317.5951 55.960846C359.05438 60.899025 396.5302 83.03221 420.87097 116.95542C445.2117 150.87863 454.17667 193.46909 445.5766 234.32608L336.39413 211.34402C338.54416 201.12978 336.30292 190.48216 330.21774 182.00136C324.13257 173.52055 314.76358 167.98726 304.39877 166.75272Z" fill-rule="nonzero"/><path fill="#6190bc" d="M248.1992 64.22653C264.7756 58.069283 282.317 54.916668 300.0 54.916668L300.0 166.49167C295.57925 166.49167 291.1939 167.27982 287.0498 168.81914Z" fill-rule="nonzero"/><path fill="#e5a345" d="M165.69377 267.6627C147.73755 229.9688 146.4478 186.46416 162.13948 147.77272C177.83115 109.081276 209.05975 78.76476 248.1992 64.22653L287.0498 168.81914C277.26495 172.45369 269.4578 180.03282 265.53488 189.70567C261.61194 199.37854 261.9344 210.2547 266.42343 219.67818Z" fill-rule="nonzero"/><path fill="#df8d43" d="M224.34752 331.77792C198.85112 316.7198 178.42845 294.39548 165.69377 267.6627L266.42343 219.67818C269.60712 226.36137 274.71277 231.94244 281.08688 235.70699Z" fill-rule="nonzero"/><path fill="#cf4366" d="M445.5766 234.32608C435.70364 281.2302 403.83603 320.504 359.97134 339.8265C316.10663 359.149 265.61902 356.1528 224.34752 331.77792L281.08688 235.70699C291.40475 241.8007 304.02664 242.54974 314.99283 237.71913C325.959 232.8885 333.9259 223.07005 336.39413 211.34402Z" fill-rule="nonzero"/><path fill="#ffffff" d="M365.7361 149.70609L365.7361 151.22171L357.2205 151.22171Q357.20486 150.64359 357.408 150.12796Q357.7361 149.25296 358.43924 148.40921Q359.158 147.56546 360.51736 146.45609Q362.6111 144.73734 363.3455 143.73734Q364.0955 142.72171 364.0955 141.83109Q364.0955 140.87796 363.4236 140.23734Q362.75174 139.59671 361.6736 139.59671Q360.51736 139.59671 359.82986 140.28421Q359.158 140.97171 359.14236 142.17484L357.51736 142.00296Q357.68924 140.19046 358.76736 139.23734Q359.8611 138.28421 361.70486 138.28421Q363.5486 138.28421 364.62674 139.31546Q365.7205 140.34671 365.7205 141.86234Q365.7205 142.62796 365.39236 143.37796Q365.07986 144.12796 364.3455 144.95609Q363.6111 145.78421 361.908 147.22171Q360.4861 148.42484 360.07986 148.84671Q359.6736 149.26859 359.4236 149.70609L365.7361 149.70609ZM375.62674 141.48734L374.06424 141.61234Q373.8455 140.69046 373.45486 140.26859Q372.81424 139.58109 371.87674 139.58109Q371.12674 139.58109 370.5486 140.00296Q369.7986 140.54984 369.3611 141.59671Q368.93924 142.64359 368.9236 144.58109Q369.50174 143.70609 370.31424 143.28421Q371.14236 142.86234 372.0486 142.86234Q373.64236 142.86234 374.75174 144.03421Q375.8611 145.19046 375.8611 147.03421Q375.8611 148.25296 375.32986 149.29984Q374.81424 150.33109 373.89236 150.89359Q372.9861 151.44046 371.82986 151.44046Q369.8455 151.44046 368.5955 149.98734Q367.3455 148.53421 367.3455 145.19046Q367.3455 141.45609 368.7361 139.75296Q369.93924 138.28421 371.9705 138.28421Q373.50174 138.28421 374.4705 139.14359Q375.43924 139.98734 375.62674 141.48734ZM369.1736 147.04984Q369.1736 147.86234 369.51736 148.61234Q369.8611 149.36234 370.4861 149.75296Q371.1111 150.14359 371.7986 150.14359Q372.7986 150.14359 373.51736 149.33109Q374.2361 148.51859 374.2361 147.12796Q374.2361 145.79984 373.51736 145.03421Q372.81424 144.25296 371.7361 144.25296Q370.658 144.25296 369.908 145.03421Q369.1736 145.79984 369.1736 147.04984ZM378.31424 151.22171L378.31424 149.42484L380.1111 149.42484L380.1111 151.22171L378.31424 151.22171ZM387.4861 151.22171L387.4861 148.14359L381.908 148.14359L381.908 146.69046L387.783 138.33109L389.07986 138.33109L389.07986 146.69046L390.81424 146.69046L390.81424 148.14359L389.07986 148.14359L389.07986 151.22171L387.4861 151.22171ZM387.4861 146.69046L387.4861 140.87796L383.45486 146.69046L387.4861 146.69046ZM392.7205 141.42484Q392.7205 140.04984 393.408 139.08109Q394.1111 138.11234 395.4236 138.11234Q396.64236 138.11234 397.43924 138.98734Q398.2361 139.84671 398.2361 141.53421Q398.2361 143.15921 397.4236 144.04984Q396.62674 144.92484 395.43924 144.92484Q394.283 144.92484 393.50174 144.06546Q392.7205 143.19046 392.7205 141.42484ZM395.4705 139.20609Q394.87674 139.20609 394.4861 139.72171Q394.0955 140.22171 394.0955 141.58109Q394.0955 142.83109 394.4861 143.33109Q394.89236 143.83109 395.4705 143.83109Q396.06424 143.83109 396.45486 143.33109Q396.8455 142.81546 396.8455 141.47171Q396.8455 140.22171 396.45486 139.72171Q396.06424 139.20609 395.4705 139.20609ZM395.4861 151.69046L402.533 138.11234L403.81424 138.11234L396.783 151.69046L395.4861 151.69046ZM401.0486 148.19046Q401.0486 146.81546 401.7361 145.84671Q402.43924 144.87796 403.76736 144.87796Q404.9861 144.87796 405.76736 145.75296Q406.56424 146.61234 406.56424 148.29984Q406.56424 149.92484 405.76736 150.81546Q404.9705 151.69046 403.783 151.69046Q402.6111 151.69046 401.82986 150.81546Q401.0486 149.94046 401.0486 148.19046ZM403.81424 145.97171Q403.2205 145.97171 402.82986 146.48734Q402.43924 146.98734 402.43924 148.36234Q402.43924 149.58109 402.82986 150.09671Q403.2205 150.61234 403.7986 150.61234Q404.408 150.61234 404.7986 150.09671Q405.18924 149.58109 405.18924 148.23734Q405.18924 146.98734 404.7986 146.48734Q404.408 145.97171 403.81424 145.97171Z" fill-rule="nonzero"/><path fill="#ffffff" d="M318.3226 304.5578L319.91635 304.35468Q320.18198 305.69843 320.83823 306.29218Q321.49448 306.88593 322.43198 306.88593Q323.55698 306.88593 324.3226 306.1203Q325.08823 305.33905 325.08823 304.19843Q325.08823 303.10468 324.36948 302.40155Q323.66635 301.6828 322.5726 301.6828Q322.11948 301.6828 321.4476 301.8703L321.61948 300.47968Q321.77573 300.4953 321.8851 300.4953Q322.8851 300.4953 323.6976 299.96405Q324.5101 299.4328 324.5101 298.33905Q324.5101 297.46405 323.91635 296.90155Q323.3226 296.32343 322.40073 296.32343Q321.47885 296.32343 320.85385 296.90155Q320.24448 297.47968 320.0726 298.65155L318.49448 298.3703Q318.77573 296.77655 319.80698 295.90155Q320.83823 295.02655 322.36948 295.02655Q323.41635 295.02655 324.30698 295.47968Q325.1976 295.9328 325.66635 296.71405Q326.1351 297.4953 326.1351 298.3703Q326.1351 299.21405 325.68198 299.90155Q325.24448 300.57343 324.35385 300.97968Q325.49448 301.2453 326.11948 302.08905Q326.7601 302.91718 326.7601 304.15155Q326.7601 305.83905 325.52573 307.02655Q324.30698 308.19843 322.43198 308.19843Q320.72885 308.19843 319.60385 307.1828Q318.49448 306.16718 318.3226 304.5578ZM328.3226 301.60468Q328.3226 299.32343 328.79135 297.9328Q329.2601 296.54218 330.18198 295.79218Q331.11948 295.02655 332.52573 295.02655Q333.55698 295.02655 334.33823 295.44843Q335.11948 295.85468 335.61948 296.65155Q336.1351 297.4328 336.43198 298.57343Q336.72885 299.69843 336.72885 301.60468Q336.72885 303.8703 336.2601 305.27655Q335.79135 306.66718 334.85385 307.4328Q333.93198 308.1828 332.52573 308.1828Q330.65073 308.1828 329.58823 306.85468Q328.3226 305.2453 328.3226 301.60468ZM329.9476 301.60468Q329.9476 304.77655 330.68198 305.83905Q331.43198 306.88593 332.52573 306.88593Q333.60385 306.88593 334.35385 305.83905Q335.10385 304.77655 335.10385 301.60468Q335.10385 298.4328 334.35385 297.38593Q333.60385 296.33905 332.5101 296.33905Q331.41635 296.33905 330.7601 297.26093Q329.9476 298.4328 329.9476 301.60468ZM339.21323 307.96405L339.21323 306.16718L341.0101 306.16718L341.0101 307.96405L339.21323 307.96405ZM351.6351 306.44843L351.6351 307.96405L343.11948 307.96405Q343.10385 307.38593 343.30698 306.8703Q343.6351 305.9953 344.33823 305.15155Q345.05698 304.3078 346.41635 303.19843Q348.5101 301.47968 349.24448 300.47968Q349.99448 299.46405 349.99448 298.57343Q349.99448 297.6203 349.3226 296.97968Q348.65073 296.33905 347.5726 296.33905Q346.41635 296.33905 345.72885 297.02655Q345.05698 297.71405 345.04135 298.91718L343.41635 298.7453Q343.58823 296.9328 344.66635 295.97968Q345.7601 295.02655 347.60385 295.02655Q349.4476 295.02655 350.52573 296.0578Q351.61948 297.08905 351.61948 298.60468Q351.61948 299.3703 351.29135 300.1203Q350.97885 300.8703 350.24448 301.69843Q349.5101 302.52655 347.80698 303.96405Q346.3851 305.16718 345.97885 305.58905Q345.5726 306.01093 345.3226 306.44843L351.6351 306.44843ZM353.61948 298.16718Q353.61948 296.79218 354.30698 295.82343Q355.0101 294.85468 356.3226 294.85468Q357.54135 294.85468 358.33823 295.72968Q359.1351 296.58905 359.1351 298.27655Q359.1351 299.90155 358.3226 300.79218Q357.52573 301.66718 356.33823 301.66718Q355.18198 301.66718 354.40073 300.8078Q353.61948 299.9328 353.61948 298.16718ZM356.36948 295.94843Q355.77573 295.94843 355.3851 296.46405Q354.99448 296.96405 354.99448 298.32343Q354.99448 299.57343 355.3851 300.07343Q355.79135 300.57343 356.36948 300.57343Q356.96323 300.57343 357.35385 300.07343Q357.74448 299.5578 357.74448 298.21405Q357.74448 296.96405 357.35385 296.46405Q356.96323 295.94843 356.36948 295.94843ZM356.3851 308.4328L363.43198 294.85468L364.71323 294.85468L357.68198 308.4328L356.3851 308.4328ZM361.9476 304.9328Q361.9476 303.5578 362.6351 302.58905Q363.33823 301.6203 364.66635 301.6203Q365.8851 301.6203 366.66635 302.4953Q367.46323 303.35468 367.46323 305.04218Q367.46323 306.66718 366.66635 307.5578Q365.86948 308.4328 364.68198 308.4328Q363.5101 308.4328 362.72885 307.5578Q361.9476 306.6828 361.9476 304.9328ZM364.71323 302.71405Q364.11948 302.71405 363.72885 303.22968Q363.33823 303.72968 363.33823 305.10468Q363.33823 306.32343 363.72885 306.83905Q364.11948 307.35468 364.6976 307.35468Q365.30698 307.35468 365.6976 306.83905Q366.08823 306.32343 366.08823 304.97968Q366.08823 303.72968 365.6976 303.22968Q365.30698 302.71405 364.71323 302.71405Z" fill-rule="nonzero"/><path fill="#ffffff" d="M202.6825 278.3735L204.19812 278.23288Q204.40125 279.311 204.9325 279.79538Q205.47937 280.27975 206.33875 280.27975Q207.07312 280.27975 207.62 279.95163Q208.16687 279.60788 208.51062 279.061Q208.87 278.4985 209.10437 277.54538Q209.33875 276.59225 209.33875 275.60788Q209.33875 275.4985 209.33875 275.29538Q208.85437 276.04538 208.02625 276.51413Q207.21375 276.98288 206.26062 276.98288Q204.66687 276.98288 203.5575 275.82663Q202.44812 274.67038 202.44812 272.76413Q202.44812 270.811 203.60437 269.6235Q204.76062 268.42038 206.495 268.42038Q207.76062 268.42038 208.79187 269.10788Q209.83875 269.77975 210.37 271.02975Q210.91687 272.27975 210.91687 274.65475Q210.91687 277.1235 210.37 278.59225Q209.83875 280.04538 208.77625 280.811Q207.72937 281.57663 206.3075 281.57663Q204.79187 281.57663 203.82312 280.7485Q202.87 279.90475 202.6825 278.3735ZM209.16687 272.686Q209.16687 271.32663 208.4325 270.52975Q207.71375 269.73288 206.69812 269.73288Q205.63562 269.73288 204.85437 270.59225Q204.07312 271.45163 204.07312 272.82663Q204.07312 274.061 204.8075 274.82663Q205.5575 275.59225 206.65125 275.59225Q207.745 275.59225 208.44812 274.82663Q209.16687 274.061 209.16687 272.686ZM213.33875 281.35788L213.33875 279.561L215.13562 279.561L215.13562 281.35788L213.33875 281.35788ZM222.51062 281.35788L222.51062 278.27975L216.9325 278.27975L216.9325 276.82663L222.8075 268.46725L224.10437 268.46725L224.10437 276.82663L225.83875 276.82663L225.83875 278.27975L224.10437 278.27975L224.10437 281.35788L222.51062 281.35788ZM222.51062 276.82663L222.51062 271.01413L218.47937 276.82663L222.51062 276.82663ZM227.745 271.561Q227.745 270.186 228.4325 269.21725Q229.13562 268.2485 230.44812 268.2485Q231.66687 268.2485 232.46375 269.1235Q233.26062 269.98288 233.26062 271.67038Q233.26062 273.29538 232.44812 274.186Q231.65125 275.061 230.46375 275.061Q229.3075 275.061 228.52625 274.20163Q227.745 273.32663 227.745 271.561ZM230.495 269.34225Q229.90125 269.34225 229.51062 269.85788Q229.12 270.35788 229.12 271.71725Q229.12 272.96725 229.51062 273.46725Q229.91687 273.96725 230.495 273.96725Q231.08875 273.96725 231.47937 273.46725Q231.87 272.95163 231.87 271.60788Q231.87 270.35788 231.47937 269.85788Q231.08875 269.34225 230.495 269.34225ZM230.51062 281.82663L237.5575 268.2485L238.83875 268.2485L231.8075 281.82663L230.51062 281.82663ZM236.07312 278.32663Q236.07312 276.95163 236.76062 275.98288Q237.46375 275.01413 238.79187 275.01413Q240.01062 275.01413 240.79187 275.88913Q241.58875 276.7485 241.58875 278.436Q241.58875 280.061 240.79187 280.95163Q239.995 281.82663 238.8075 281.82663Q237.63562 281.82663 236.85437 280.95163Q236.07312 280.07663 236.07312 278.32663ZM238.83875 276.10788Q238.245 276.10788 237.85437 276.6235Q237.46375 277.1235 237.46375 278.4985Q237.46375 279.71725 237.85437 280.23288Q238.245 280.7485 238.82312 280.7485Q239.4325 280.7485 239.82312 280.23288Q240.21375 279.71725 240.21375 278.3735Q240.21375 277.1235 239.82312 276.6235Q239.4325 276.10788 238.83875 276.10788Z" fill-rule="nonzero"/><path fill="#ffffff" d="M189.43054 170.49162L189.43054 172.00725L180.91492 172.00725Q180.89929 171.42912 181.10242 170.9135Q181.43054 170.0385 182.13367 169.19475Q182.85242 168.351 184.21179 167.24162Q186.30554 165.52287 187.03992 164.52287Q187.78992 163.50725 187.78992 162.61662Q187.78992 161.6635 187.11804 161.02287Q186.44617 160.38225 185.36804 160.38225Q184.21179 160.38225 183.52429 161.06975Q182.85242 161.75725 182.83679 162.96037L181.21179 162.7885Q181.38367 160.976 182.46179 160.02287Q183.55554 159.06975 185.39929 159.06975Q187.24304 159.06975 188.32117 160.101Q189.41492 161.13225 189.41492 162.64787Q189.41492 163.4135 189.08679 164.1635Q188.77429 164.9135 188.03992 165.74162Q187.30554 166.56975 185.60242 168.00725Q184.18054 169.21037 183.77429 169.63225Q183.36804 170.05412 183.11804 170.49162L189.43054 170.49162ZM199.32117 162.27287L197.75867 162.39787Q197.53992 161.476 197.14929 161.05412Q196.50867 160.36662 195.57117 160.36662Q194.82117 160.36662 194.24304 160.7885Q193.49304 161.33537 193.05554 162.38225Q192.63367 163.42912 192.61804 165.36662Q193.19617 164.49162 194.00867 164.06975Q194.83679 163.64787 195.74304 163.64787Q197.33679 163.64787 198.44617 164.81975Q199.55554 165.976 199.55554 167.81975Q199.55554 169.0385 199.02429 170.08537Q198.50867 171.11662 197.58679 171.67912Q196.68054 172.226 195.52429 172.226Q193.53992 172.226 192.28992 170.77287Q191.03992 169.31975 191.03992 165.976Q191.03992 162.24162 192.43054 160.5385Q193.63367 159.06975 195.66492 159.06975Q197.19617 159.06975 198.16492 159.92912Q199.13367 160.77287 199.32117 162.27287ZM192.86804 167.83537Q192.86804 168.64787 193.21179 169.39787Q193.55554 170.14787 194.18054 170.5385Q194.80554 170.92912 195.49304 170.92912Q196.49304 170.92912 197.21179 170.11662Q197.93054 169.30412 197.93054 167.9135Q197.93054 166.58537 197.21179 165.81975Q196.50867 165.0385 195.43054 165.0385Q194.35242 165.0385 193.60242 165.81975Q192.86804 166.58537 192.86804 167.83537ZM202.00867 172.00725L202.00867 170.21037L203.80554 170.21037L203.80554 172.00725L202.00867 172.00725ZM211.18054 172.00725L211.18054 168.92912L205.60242 168.92912L205.60242 167.476L211.47742 159.11662L212.77429 159.11662L212.77429 167.476L214.50867 167.476L214.50867 168.92912L212.77429 168.92912L212.77429 172.00725L211.18054 172.00725ZM211.18054 167.476L211.18054 161.6635L207.14929 167.476L211.18054 167.476ZM216.41492 162.21037Q216.41492 160.83537 217.10242 159.86662Q217.80554 158.89787 219.11804 158.89787Q220.33679 158.89787 221.13367 159.77287Q221.93054 160.63225 221.93054 162.31975Q221.93054 163.94475 221.11804 164.83537Q220.32117 165.71037 219.13367 165.71037Q217.97742 165.71037 217.19617 164.851Q216.41492 163.976 216.41492 162.21037ZM219.16492 159.99162Q218.57117 159.99162 218.18054 160.50725Q217.78992 161.00725 217.78992 162.36662Q217.78992 163.61662 218.18054 164.11662Q218.58679 164.61662 219.16492 164.61662Q219.75867 164.61662 220.14929 164.11662Q220.53992 163.601 220.53992 162.25725Q220.53992 161.00725 220.14929 160.50725Q219.75867 159.99162 219.16492 159.99162ZM219.18054 172.476L226.22742 158.89787L227.50867 158.89787L220.47742 172.476L219.18054 172.476ZM224.74304 168.976Q224.74304 167.601 225.43054 166.63225Q226.13367 165.6635 227.46179 165.6635Q228.68054 165.6635 229.46179 166.5385Q230.25867 167.39787 230.25867 169.08537Q230.25867 170.71037 229.46179 171.601Q228.66492 172.476 227.47742 172.476Q226.30554 172.476 225.52429 171.601Q224.74304 170.726 224.74304 168.976ZM227.50867 166.75725Q226.91492 166.75725 226.52429 167.27287Q226.13367 167.77287 226.13367 169.14787Q226.13367 170.36662 226.52429 170.88225Q226.91492 171.39787 227.49304 171.39787Q228.10242 171.39787 228.49304 170.88225Q228.88367 170.36662 228.88367 169.02287Q228.88367 167.77287 228.49304 167.27287Q228.10242 166.75725 227.50867 166.75725Z" fill-rule="nonzero"/><path stroke="#ffffff" stroke-width="1.0" stroke-linejoin="round" stroke-linecap="round" d="M304.39877 166.75272C302.93896 166.57884 301.47012 166.49167 300.0 166.49167L300.0 54.916668C305.88052 54.916668 311.75586 55.26534 317.5951 55.960846" fill-rule="nonzero"/><path stroke="#ffffff" stroke-width="1.0" stroke-linejoin="round" stroke-linecap="round" d="M336.39413 211.34402C338.54416 201.12978 336.30292 190.48216 330.21774 182.00136C324.13257 173.52055 314.76358 167.98726 304.39877 166.75272L317.5951 55.960846C359.05438 60.899025 396.5302 83.03221 420.87097 116.95542C445.2117 150.87863 454.17667 193.46909 445.5766 234.32608" fill-rule="nonzero"/><path stroke="#ffffff" stroke-width="1.0" stroke-linejoin="round" stroke-linecap="round" d="M281.08688 235.70699C291.40475 241.8007 304.02664 242.54974 314.99283 237.71913C325.959 232.8885 333.9259 223.07005 336.39413 211.34402L445.5766 234.32608C435.70364 281.2302 403.83603 320.504 359.97134 339.8265C316.10663 359.149 265.61902 356.1528 224.34752 331.77792" fill-rule="nonzero"/><path stroke="#ffffff" stroke-width="1.0" stroke-linejoin="round" stroke-linecap="round" d="M266.42343 219.67818C269.60712 226.36137 274.71277 231.94244 281.08688 235.70699L224.34752 331.77792C198.85112 316.7198 178.42845 294.39548 165.69377 267.6627" fill-rule="nonzero"/><path stroke="#ffffff" stroke-width="1.0" stroke-linejoin="round" stroke-linecap="round" d="M287.0498 168.81914C277.26495 172.45369 269.4578 180.03282 265.53488 189.70567C261.61194 199.37854 261.9344 210.2547 266.42343 219.67818L165.69377 267.6627C147.73755 229.9688 146.4478 186.46416 162.13948 147.77272C177.83115 109.081276 209.05975 78.76476 248.1992 64.22653" fill-rule="nonzero"/><path stroke="#ffffff" stroke-width="1.0" stroke-linejoin="round" stroke-linecap="round" d="M300.0 166.49167C295.57925 166.49167 291.1939 167.27982 287.0498 168.81914L248.1992 64.22653C264.7756 58.069283 282.317 54.916668 300.0 54.916668" fill-rule="nonzero"/><path fill="#efefef" d="M27.3 58.46354L28.815624 58.46354L28.815624 65.072914Q28.815624 66.80729 28.425 67.822914Q28.034374 68.83854 27.01875 69.479164Q26.003124 70.11979 24.346874 70.11979Q22.7375 70.11979 21.70625 69.55729Q20.690624 68.99479 20.253124 67.947914Q19.815624 66.90104 19.815624 65.072914L19.815624 58.46354L21.33125 58.46354L21.33125 65.072914Q21.33125 66.55729 21.596874 67.27604Q21.878124 67.979164 22.55 68.36979Q23.2375 68.74479 24.20625 68.74479Q25.878124 68.74479 26.58125 67.99479Q27.3 67.229164 27.3 65.072914L27.3 58.46354ZM31.596874 69.916664L31.596874 61.61979L32.8625 61.61979L32.8625 62.86979Q33.346874 61.99479 33.753124 61.71354Q34.159374 61.43229 34.659374 61.43229Q35.3625 61.43229 36.096874 61.885414L35.6125 63.18229Q35.096874 62.885414 34.58125 62.885414Q34.128124 62.885414 33.753124 63.166664Q33.39375 63.43229 33.2375 63.93229Q33.003124 64.68229 33.003124 65.572914L33.003124 69.916664L31.596874 69.916664ZM37.909374 69.916664L36.596874 69.916664L36.596874 58.46354L38.003124 58.46354L38.003124 62.541664Q38.89375 61.43229 40.284374 61.43229Q41.05 61.43229 41.721874 61.74479Q42.409374 62.041664 42.846874 62.604164Q43.3 63.166664 43.55 63.96354Q43.8 64.74479 43.8 65.635414Q43.8 67.77604 42.7375 68.947914Q41.690624 70.104164 40.20625 70.104164Q38.7375 70.104164 37.909374 68.86979L37.909374 69.916664ZM37.89375 65.697914Q37.89375 67.197914 38.3 67.854164Q38.95625 68.947914 40.096874 68.947914Q41.01875 68.947914 41.690624 68.15104Q42.3625 67.33854 42.3625 65.760414Q42.3625 64.135414 41.70625 63.36979Q41.065624 62.58854 40.159374 62.58854Q39.2375 62.58854 38.565624 63.385414Q37.89375 64.18229 37.89375 65.697914ZM51.01875 68.885414Q50.2375 69.55729 49.51875 69.83854Q48.8 70.104164 47.971874 70.104164Q46.596874 70.104164 45.8625 69.43229Q45.128124 68.760414 45.128124 67.729164Q45.128124 67.11979 45.409374 66.61979Q45.690624 66.104164 46.128124 65.80729Q46.58125 65.49479 47.14375 65.33854Q47.565624 65.229164 48.39375 65.135414Q50.096874 64.93229 50.909374 64.65104Q50.909374 64.354164 50.909374 64.27604Q50.909374 63.416664 50.51875 63.072914Q49.971874 62.58854 48.909374 62.58854Q47.925 62.58854 47.440624 62.947914Q46.971874 63.291664 46.753124 64.166664L45.378124 63.979164Q45.565624 63.104164 45.9875 62.55729Q46.425 62.010414 47.2375 61.729164Q48.05 61.43229 49.1125 61.43229Q50.175 61.43229 50.83125 61.68229Q51.503124 61.93229 51.815624 62.30729Q52.128124 62.68229 52.253124 63.260414Q52.33125 63.61979 52.33125 64.55729L52.33125 66.43229Q52.33125 68.40104 52.409374 68.916664Q52.503124 69.43229 52.76875 69.916664L51.3 69.916664Q51.08125 69.479164 51.01875 68.885414ZM50.909374 65.74479Q50.14375 66.05729 48.6125 66.27604Q47.7375 66.40104 47.378124 66.55729Q47.01875 66.71354 46.815624 67.02604Q46.628124 67.322914 46.628124 67.68229Q46.628124 68.24479 47.05 68.61979Q47.4875 68.99479 48.3 68.99479Q49.1125 68.99479 49.7375 68.65104Q50.378124 68.291664 50.675 67.666664Q50.909374 67.197914 50.909374 66.260414L50.909374 65.74479ZM54.6125 69.916664L54.6125 61.61979L55.878124 61.61979L55.878124 62.791664Q56.784374 61.43229 58.51875 61.43229Q59.26875 61.43229 59.89375 61.697914Q60.51875 61.96354 60.83125 62.40104Q61.14375 62.83854 61.26875 63.447914Q61.346874 63.83854 61.346874 64.80729L61.346874 69.916664L59.940624 69.916664L59.940624 64.86979Q59.940624 64.010414 59.76875 63.58854Q59.6125 63.15104 59.190624 62.90104Q58.784374 62.65104 58.221874 62.65104Q57.315624 62.65104 56.659374 63.229164Q56.01875 63.791664 56.01875 65.385414L56.01875 69.916664L54.6125 69.916664ZM63.05 67.43229L64.44063 67.21354Q64.55 68.05729 65.08125 68.510414Q65.62813 68.947914 66.58125 68.947914Q67.55 68.947914 68.01875 68.55729Q68.4875 68.15104 68.4875 67.61979Q68.4875 67.15104 68.08125 66.86979Q67.78438 66.68229 66.64375 66.40104Q65.09688 66.010414 64.4875 65.729164Q63.89375 65.43229 63.58125 64.93229Q63.284374 64.43229 63.284374 63.822914Q63.284374 63.260414 63.534374 62.791664Q63.784374 62.322914 64.22188 62.010414Q64.55 61.760414 65.1125 61.604164Q65.69063 61.43229 66.33125 61.43229Q67.31563 61.43229 68.05 61.71354Q68.78438 61.99479 69.12813 62.479164Q69.4875 62.947914 69.62813 63.760414L68.25313 63.947914Q68.15938 63.30729 67.70625 62.947914Q67.25313 62.58854 66.44063 62.58854Q65.47188 62.58854 65.05 62.916664Q64.64375 63.229164 64.64375 63.65104Q64.64375 63.93229 64.81563 64.15104Q64.9875 64.36979 65.34688 64.52604Q65.56563 64.604164 66.59688 64.885414Q68.08125 65.27604 68.675 65.541664Q69.26875 65.791664 69.59688 66.27604Q69.94063 66.760414 69.94063 67.479164Q69.94063 68.18229 69.51875 68.80729Q69.1125 69.416664 68.33125 69.760414Q67.56563 70.104164 66.59688 70.104164Q64.97188 70.104164 64.12813 69.43229Q63.284374 68.760414 63.05 67.43229ZM77.01875 66.86979L78.40938 67.05729Q78.175 68.479164 77.2375 69.291664Q76.31563 70.104164 74.95625 70.104164Q73.25313 70.104164 72.20625 68.99479Q71.175 67.86979 71.175 65.791664Q71.175 64.447914 71.6125 63.447914Q72.06563 62.43229 72.97188 61.93229Q73.89375 61.43229 74.95625 61.43229Q76.31563 61.43229 77.175 62.11979Q78.03438 62.791664 78.26875 64.05729L76.90938 64.260414Q76.70625 63.43229 76.20625 63.010414Q75.72188 62.58854 75.01875 62.58854Q73.95625 62.58854 73.28438 63.354164Q72.62813 64.104164 72.62813 65.760414Q72.62813 67.43229 73.26875 68.197914Q73.90938 68.947914 74.94063 68.947914Q75.76875 68.947914 76.31563 68.447914Q76.87813 67.93229 77.01875 66.86979ZM85.01875 68.885414Q84.2375 69.55729 83.51875 69.83854Q82.8 70.104164 81.97188 70.104164Q80.59688 70.104164 79.8625 69.43229Q79.12813 68.760414 79.12813 67.729164Q79.12813 67.11979 79.40938 66.61979Q79.69063 66.104164 80.12813 65.80729Q80.58125 65.49479 81.14375 65.33854Q81.56563 65.229164 82.39375 65.135414Q84.09688 64.93229 84.90938 64.65104Q84.90938 64.354164 84.90938 64.27604Q84.90938 63.416664 84.51875 63.072914Q83.97188 62.58854 82.90938 62.58854Q81.925 62.58854 81.44063 62.947914Q80.97188 63.291664 80.75313 64.166664L79.37813 63.979164Q79.56563 63.104164 79.9875 62.55729Q80.425 62.010414 81.2375 61.729164Q82.05 61.43229 83.1125 61.43229Q84.175 61.43229 84.83125 61.68229Q85.50313 61.93229 85.81563 62.30729Q86.12813 62.68229 86.25313 63.260414Q86.33125 63.61979 86.33125 64.55729L86.33125 66.43229Q86.33125 68.40104 86.40938 68.916664Q86.50313 69.43229 86.76875 69.916664L85.3 69.916664Q85.08125 69.479164 85.01875 68.885414ZM84.90938 65.74479Q84.14375 66.05729 82.6125 66.27604Q81.7375 66.40104 81.37813 66.55729Q81.01875 66.71354 80.81563 67.02604Q80.62813 67.322914 80.62813 67.68229Q80.62813 68.24479 81.05 68.61979Q81.4875 68.99479 82.3 68.99479Q83.1125 68.99479 83.7375 68.65104Q84.37813 68.291664 84.675 67.666664Q84.90938 67.197914 84.90938 66.260414L84.90938 65.74479ZM88.6125 73.104164L88.6125 61.61979L89.89375 61.61979L89.89375 62.697914Q90.34688 62.05729 90.90938 61.74479Q91.4875 61.43229 92.3 61.43229Q93.3625 61.43229 94.175 61.979164Q94.9875 62.52604 95.39375 63.52604Q95.81563 64.510414 95.81563 65.697914Q95.81563 66.979164 95.34688 67.99479Q94.89375 69.010414 94.01875 69.55729Q93.15938 70.104164 92.19063 70.104164Q91.4875 70.104164 90.925 69.80729Q90.37813 69.510414 90.01875 69.05729L90.01875 73.104164L88.6125 73.104164ZM89.87813 65.80729Q89.87813 67.416664 90.51875 68.18229Q91.175 68.947914 92.09688 68.947914Q93.03438 68.947914 93.70625 68.15104Q94.37813 67.354164 94.37813 65.697914Q94.37813 64.104164 93.72188 63.322914Q93.06563 62.52604 92.15938 62.52604Q91.26875 62.52604 90.56563 63.36979Q89.87813 64.21354 89.87813 65.80729ZM103.28438 67.24479L104.7375 67.416664Q104.39375 68.697914 103.45625 69.40104Q102.53438 70.104164 101.09688 70.104164Q99.26875 70.104164 98.20625 68.979164Q97.14375 67.854164 97.14375 65.83854Q97.14375 63.74479 98.22188 62.58854Q99.3 61.43229 101.01875 61.43229Q102.675 61.43229 103.72188 62.572914Q104.78438 63.697914 104.78438 65.74479Q104.78438 65.86979 104.78438 66.11979L98.59688 66.11979Q98.675 67.49479 99.3625 68.229164Q100.06563 68.947914 101.09688 68.947914Q101.87813 68.947914 102.425 68.541664Q102.97188 68.135414 103.28438 67.24479ZM98.675 64.96354L103.3 64.96354Q103.20625 63.916664 102.76875 63.40104Q102.09688 62.58854 101.03438 62.58854Q100.06563 62.58854 99.39375 63.24479Q98.7375 63.885414 98.675 64.96354Z" fill-rule="nonzero"/><path fill="#9e9e9e" d="M19.221874 88.916664L20.690624 88.791664Q20.8625 89.86979 21.45625 90.416664Q22.05 90.947914 22.89375 90.947914Q23.909374 90.947914 24.6125 90.18229Q25.315624 89.416664 25.315624 88.15104Q25.315624 86.947914 24.64375 86.260414Q23.971874 85.55729 22.878124 85.55729Q22.190624 85.55729 21.64375 85.86979Q21.096874 86.18229 20.784374 86.666664L19.471874 86.49479L20.58125 80.61979L26.26875 80.61979L26.26875 81.96354L21.70625 81.96354L21.08125 85.041664Q22.1125 84.322914 23.253124 84.322914Q24.753124 84.322914 25.784374 85.36979Q26.815624 86.40104 26.815624 88.02604Q26.815624 89.58854 25.909374 90.71354Q24.8 92.11979 22.89375 92.11979Q21.33125 92.11979 20.346874 91.24479Q19.3625 90.354164 19.221874 88.916664ZM29.003124 91.916664L29.003124 90.30729L30.6125 90.30729L30.6125 91.916664L29.003124 91.916664ZM32.315624 81.96354L32.315624 80.604164L39.721874 80.604164L39.721874 81.697914Q38.628124 82.86979 37.55 84.80729Q36.4875 86.729164 35.89375 88.760414Q35.471874 90.197914 35.3625 91.916664L33.909374 91.916664Q33.940624 90.55729 34.440624 88.65104Q34.95625 86.729164 35.89375 84.96354Q36.846874 83.18229 37.925 81.96354L32.315624 81.96354ZM41.4875 83.21354Q41.4875 81.979164 42.096874 81.11979Q42.721874 80.260414 43.89375 80.260414Q44.971874 80.260414 45.675 81.041664Q46.378124 81.80729 46.378124 83.291664Q46.378124 84.74479 45.659374 85.541664Q44.95625 86.322914 43.909374 86.322914Q42.8625 86.322914 42.175 85.55729Q41.4875 84.77604 41.4875 83.21354ZM43.925 81.229164Q43.409374 81.229164 43.05 81.68229Q42.70625 82.135414 42.70625 83.354164Q42.70625 84.447914 43.05 84.90104Q43.409374 85.354164 43.925 85.354164Q44.45625 85.354164 44.8 84.90104Q45.159374 84.447914 45.159374 83.24479Q45.159374 82.135414 44.8 81.68229Q44.45625 81.229164 43.925 81.229164ZM43.940624 92.33854L50.20625 80.260414L51.346874 80.260414L45.096874 92.33854L43.940624 92.33854ZM48.89375 89.229164Q48.89375 87.99479 49.503124 87.135414Q50.128124 86.27604 51.3 86.27604Q52.378124 86.27604 53.08125 87.05729Q53.8 87.822914 53.8 89.30729Q53.8 90.760414 53.08125 91.55729Q52.3625 92.33854 51.315624 92.33854Q50.26875 92.33854 49.58125 91.55729Q48.89375 90.77604 48.89375 89.229164ZM51.346874 87.24479Q50.815624 87.24479 50.45625 87.697914Q50.1125 88.15104 50.1125 89.36979Q50.1125 90.46354 50.45625 90.916664Q50.815624 91.36979 51.33125 91.36979Q51.878124 91.36979 52.221874 90.916664Q52.565624 90.46354 52.565624 89.260414Q52.565624 88.15104 52.20625 87.697914Q51.8625 87.24479 51.346874 87.24479Z" fill-rule="nonzero"/><path stroke="#757575" stroke-width="1.0" stroke-linecap="butt" d="M18.55 75.416664L145.23334 75.416664L275.0004 64.583664" fill-rule="nonzero"/><path fill="#9e9e9e" d="M277.0004 64.583664C277.0004 63.479095 276.10495 62.583668 275.0004 62.583668C273.8958 62.583668 273.0004 63.479095 273.0004 64.583664C273.0004 65.68823 273.8958 66.583664 275.0004 66.583664C276.10495 66.583664 277.0004 65.68823 277.0004 64.583664" fill-rule="nonzero"/><path fill="#efefef" d="M27.3 133.61513L28.815624 133.61513L28.815624 140.2245Q28.815624 141.95888 28.425 142.9745Q28.034374 143.99013 27.01875 144.63075Q26.003124 145.27138 24.346874 145.27138Q22.7375 145.27138 21.70625 144.70888Q20.690624 144.14638 20.253124 143.0995Q19.815624 142.05263 19.815624 140.2245L19.815624 133.61513L21.33125 133.61513L21.33125 140.2245Q21.33125 141.70888 21.596874 142.42763Q21.878124 143.13075 22.55 143.52138Q23.2375 143.89638 24.20625 143.89638Q25.878124 143.89638 26.58125 143.14638Q27.3 142.38075 27.3 140.2245L27.3 133.61513ZM31.596874 145.06825L31.596874 136.77138L32.8625 136.77138L32.8625 138.02138Q33.346874 137.14638 33.753124 136.86513Q34.159374 136.58388 34.659374 136.58388Q35.3625 136.58388 36.096874 137.037L35.6125 138.33388Q35.096874 138.037 34.58125 138.037Q34.128124 138.037 33.753124 138.31825Q33.39375 138.58388 33.2375 139.08388Q33.003124 139.83388 33.003124 140.7245L33.003124 145.06825L31.596874 145.06825ZM37.909374 145.06825L36.596874 145.06825L36.596874 133.61513L38.003124 133.61513L38.003124 137.69325Q38.89375 136.58388 40.284374 136.58388Q41.05 136.58388 41.721874 136.89638Q42.409374 137.19325 42.846874 137.75575Q43.3 138.31825 43.55 139.11513Q43.8 139.89638 43.8 140.787Q43.8 142.92763 42.7375 144.0995Q41.690624 145.25575 40.20625 145.25575Q38.7375 145.25575 37.909374 144.02138L37.909374 145.06825ZM37.89375 140.8495Q37.89375 142.3495 38.3 143.00575Q38.95625 144.0995 40.096874 144.0995Q41.01875 144.0995 41.690624 143.30263Q42.3625 142.49013 42.3625 140.912Q42.3625 139.287 41.70625 138.52138Q41.065624 137.74013 40.159374 137.74013Q39.2375 137.74013 38.565624 138.537Q37.89375 139.33388 37.89375 140.8495ZM51.01875 144.037Q50.2375 144.70888 49.51875 144.99013Q48.8 145.25575 47.971874 145.25575Q46.596874 145.25575 45.8625 144.58388Q45.128124 143.912 45.128124 142.88075Q45.128124 142.27138 45.409374 141.77138Q45.690624 141.25575 46.128124 140.95888Q46.58125 140.64638 47.14375 140.49013Q47.565624 140.38075 48.39375 140.287Q50.096874 140.08388 50.909374 139.80263Q50.909374 139.50575 50.909374 139.42763Q50.909374 138.56825 50.51875 138.2245Q49.971874 137.74013 48.909374 137.74013Q47.925 137.74013 47.440624 138.0995Q46.971874 138.44325 46.753124 139.31825L45.378124 139.13075Q45.565624 138.25575 45.9875 137.70888Q46.425 137.162 47.2375 136.88075Q48.05 136.58388 49.1125 136.58388Q50.175 136.58388 50.83125 136.83388Q51.503124 137.08388 51.815624 137.45888Q52.128124 137.83388 52.253124 138.412Q52.33125 138.77138 52.33125 139.70888L52.33125 141.58388Q52.33125 143.55263 52.409374 144.06825Q52.503124 144.58388 52.76875 145.06825L51.3 145.06825Q51.08125 144.63075 51.01875 144.037ZM50.909374 140.89638Q50.14375 141.20888 48.6125 141.42763Q47.7375 141.55263 47.378124 141.70888Q47.01875 141.86513 46.815624 142.17763Q46.628124 142.4745 46.628124 142.83388Q46.628124 143.39638 47.05 143.77138Q47.4875 144.14638 48.3 144.14638Q49.1125 144.14638 49.7375 143.80263Q50.378124 143.44325 50.675 142.81825Q50.909374 142.3495 50.909374 141.412L50.909374 140.89638ZM54.6125 145.06825L54.6125 136.77138L55.878124 136.77138L55.878124 137.94325Q56.784374 136.58388 58.51875 136.58388Q59.26875 136.58388 59.89375 136.8495Q60.51875 137.11513 60.83125 137.55263Q61.14375 137.99013 61.26875 138.5995Q61.346874 138.99013 61.346874 139.95888L61.346874 145.06825L59.940624 145.06825L59.940624 140.02138Q59.940624 139.162 59.76875 138.74013Q59.6125 138.30263 59.190624 138.05263Q58.784374 137.80263 58.221874 137.80263Q57.315624 137.80263 56.659374 138.38075Q56.01875 138.94325 56.01875 140.537L56.01875 145.06825L54.6125 145.06825ZM63.05 142.58388L64.44063 142.36513Q64.55 143.20888 65.08125 143.662Q65.62813 144.0995 66.58125 144.0995Q67.55 144.0995 68.01875 143.70888Q68.4875 143.30263 68.4875 142.77138Q68.4875 142.30263 68.08125 142.02138Q67.78438 141.83388 66.64375 141.55263Q65.09688 141.162 64.4875 140.88075Q63.89375 140.58388 63.58125 140.08388Q63.284374 139.58388 63.284374 138.9745Q63.284374 138.412 63.534374 137.94325Q63.784374 137.4745 64.22188 137.162Q64.55 136.912 65.1125 136.75575Q65.69063 136.58388 66.33125 136.58388Q67.31563 136.58388 68.05 136.86513Q68.78438 137.14638 69.12813 137.63075Q69.4875 138.0995 69.62813 138.912L68.25313 139.0995Q68.15938 138.45888 67.70625 138.0995Q67.25313 137.74013 66.44063 137.74013Q65.47188 137.74013 65.05 138.06825Q64.64375 138.38075 64.64375 138.80263Q64.64375 139.08388 64.81563 139.30263Q64.9875 139.52138 65.34688 139.67763Q65.56563 139.75575 66.59688 140.037Q68.08125 140.42763 68.675 140.69325Q69.26875 140.94325 69.59688 141.42763Q69.94063 141.912 69.94063 142.63075Q69.94063 143.33388 69.51875 143.95888Q69.1125 144.56825 68.33125 144.912Q67.56563 145.25575 66.59688 145.25575Q64.97188 145.25575 64.12813 144.58388Q63.284374 143.912 63.05 142.58388ZM77.01875 142.02138L78.40938 142.20888Q78.175 143.63075 77.2375 144.44325Q76.31563 145.25575 74.95625 145.25575Q73.25313 145.25575 72.20625 144.14638Q71.175 143.02138 71.175 140.94325Q71.175 139.5995 71.6125 138.5995Q72.06563 137.58388 72.97188 137.08388Q73.89375 136.58388 74.95625 136.58388Q76.31563 136.58388 77.175 137.27138Q78.03438 137.94325 78.26875 139.20888L76.90938 139.412Q76.70625 138.58388 76.20625 138.162Q75.72188 137.74013 75.01875 137.74013Q73.95625 137.74013 73.28438 138.50575Q72.62813 139.25575 72.62813 140.912Q72.62813 142.58388 73.26875 143.3495Q73.90938 144.0995 74.94063 144.0995Q75.76875 144.0995 76.31563 143.5995Q76.87813 143.08388 77.01875 142.02138ZM85.01875 144.037Q84.2375 144.70888 83.51875 144.99013Q82.8 145.25575 81.97188 145.25575Q80.59688 145.25575 79.8625 144.58388Q79.12813 143.912 79.12813 142.88075Q79.12813 142.27138 79.40938 141.77138Q79.69063 141.25575 80.12813 140.95888Q80.58125 140.64638 81.14375 140.49013Q81.56563 140.38075 82.39375 140.287Q84.09688 140.08388 84.90938 139.80263Q84.90938 139.50575 84.90938 139.42763Q84.90938 138.56825 84.51875 138.2245Q83.97188 137.74013 82.90938 137.74013Q81.925 137.74013 81.44063 138.0995Q80.97188 138.44325 80.75313 139.31825L79.37813 139.13075Q79.56563 138.25575 79.9875 137.70888Q80.425 137.162 81.2375 136.88075Q82.05 136.58388 83.1125 136.58388Q84.175 136.58388 84.83125 136.83388Q85.50313 137.08388 85.81563 137.45888Q86.12813 137.83388 86.25313 138.412Q86.33125 138.77138 86.33125 139.70888L86.33125 141.58388Q86.33125 143.55263 86.40938 144.06825Q86.50313 144.58388 86.76875 145.06825L85.3 145.06825Q85.08125 144.63075 85.01875 144.037ZM84.90938 140.89638Q84.14375 141.20888 82.6125 141.42763Q81.7375 141.55263 81.37813 141.70888Q81.01875 141.86513 80.81563 142.17763Q80.62813 142.4745 80.62813 142.83388Q80.62813 143.39638 81.05 143.77138Q81.4875 144.14638 82.3 144.14638Q83.1125 144.14638 83.7375 143.80263Q84.37813 143.44325 84.675 142.81825Q84.90938 142.3495 84.90938 141.412L84.90938 140.89638ZM88.6125 148.25575L88.6125 136.77138L89.89375 136.77138L89.89375 137.8495Q90.34688 137.20888 90.90938 136.89638Q91.4875 136.58388 92.3 136.58388Q93.3625 136.58388 94.175 137.13075Q94.9875 137.67763 95.39375 138.67763Q95.81563 139.662 95.81563 140.8495Q95.81563 142.13075 95.34688 143.14638Q94.89375 144.162 94.01875 144.70888Q93.15938 145.25575 92.19063 145.25575Q91.4875 145.25575 90.925 144.95888Q90.37813 144.662 90.01875 144.20888L90.01875 148.25575L88.6125 148.25575ZM89.87813 140.95888Q89.87813 142.56825 90.51875 143.33388Q91.175 144.0995 92.09688 144.0995Q93.03438 144.0995 93.70625 143.30263Q94.37813 142.50575 94.37813 140.8495Q94.37813 139.25575 93.72188 138.4745Q93.06563 137.67763 92.15938 137.67763Q91.26875 137.67763 90.56563 138.52138Q89.87813 139.36513 89.87813 140.95888ZM103.28438 142.39638L104.7375 142.56825Q104.39375 143.8495 103.45625 144.55263Q102.53438 145.25575 101.09688 145.25575Q99.26875 145.25575 98.20625 144.13075Q97.14375 143.00575 97.14375 140.99013Q97.14375 138.89638 98.22188 137.74013Q99.3 136.58388 101.01875 136.58388Q102.675 136.58388 103.72188 137.7245Q104.78438 138.8495 104.78438 140.89638Q104.78438 141.02138 104.78438 141.27138L98.59688 141.27138Q98.675 142.64638 99.3625 143.38075Q100.06563 144.0995 101.09688 144.0995Q101.87813 144.0995 102.425 143.69325Q102.97188 143.287 103.28438 142.39638ZM98.675 140.11513L103.3 140.11513Q103.20625 139.06825 102.76875 138.55263Q102.09688 137.74013 101.03438 137.74013Q100.06563 137.74013 99.39375 138.39638Q98.7375 139.037 98.675 140.11513Z" fill-rule="nonzero"/><path fill="#9e9e9e" d="M26.6125 165.70888L26.6125 167.06825L19.034374 167.06825Q19.01875 166.55263 19.20625 166.08388Q19.4875 165.31825 20.128124 164.56825Q20.76875 163.81825 21.971874 162.83388Q23.83125 161.30263 24.4875 160.412Q25.14375 159.50575 25.14375 158.70888Q25.14375 157.88075 24.55 157.30263Q23.95625 156.7245 22.9875 156.7245Q21.971874 156.7245 21.3625 157.33388Q20.753124 157.94325 20.753124 159.02138L19.3 158.88075Q19.45625 157.25575 20.425 156.412Q21.39375 155.56825 23.01875 155.56825Q24.675 155.56825 25.628124 156.49013Q26.596874 157.39638 26.596874 158.74013Q26.596874 159.42763 26.315624 160.0995Q26.034374 160.75575 25.378124 161.49013Q24.721874 162.2245 23.20625 163.50575Q21.940624 164.56825 21.58125 164.95888Q21.221874 165.33388 20.9875 165.70888L26.6125 165.70888ZM35.51875 158.412L34.1125 158.52138Q33.925 157.69325 33.58125 157.31825Q33.01875 156.7245 32.175 156.7245Q31.503124 156.7245 31.003124 157.0995Q30.33125 157.58388 29.940624 158.52138Q29.565624 159.44325 29.55 161.162Q30.065624 160.38075 30.8 160.00575Q31.534374 159.63075 32.33125 159.63075Q33.7375 159.63075 34.721874 160.67763Q35.721874 161.70888 35.721874 163.3495Q35.721874 164.42763 35.253124 165.3495Q34.784374 166.27138 33.971874 166.77138Q33.159374 167.27138 32.128124 167.27138Q30.378124 167.27138 29.26875 165.9745Q28.159374 164.67763 28.159374 161.70888Q28.159374 158.38075 29.378124 156.88075Q30.45625 155.56825 32.26875 155.56825Q33.6125 155.56825 34.471874 156.33388Q35.346874 157.08388 35.51875 158.412ZM29.76875 163.3495Q29.76875 164.08388 30.08125 164.75575Q30.39375 165.412 30.940624 165.75575Q31.503124 166.0995 32.1125 166.0995Q33.003124 166.0995 33.64375 165.38075Q34.284374 164.662 34.284374 163.42763Q34.284374 162.24013 33.64375 161.56825Q33.01875 160.88075 32.05 160.88075Q31.096874 160.88075 30.425 161.56825Q29.76875 162.24013 29.76875 163.3495ZM38.003124 167.06825L38.003124 165.45888L39.6125 165.45888L39.6125 167.06825L38.003124 167.06825ZM45.721874 167.06825L45.721874 164.31825L40.753124 164.31825L40.753124 163.037L45.9875 155.61513L47.128124 155.61513L47.128124 163.037L48.675 163.037L48.675 164.31825L47.128124 164.31825L47.128124 167.06825L45.721874 167.06825ZM45.721874 163.037L45.721874 157.86513L42.14375 163.037L45.721874 163.037ZM50.4875 158.36513Q50.4875 157.13075 51.096874 156.27138Q51.721874 155.412 52.89375 155.412Q53.971874 155.412 54.675 156.19325Q55.378124 156.95888 55.378124 158.44325Q55.378124 159.89638 54.659374 160.69325Q53.95625 161.4745 52.909374 161.4745Q51.8625 161.4745 51.175 160.70888Q50.4875 159.92763 50.4875 158.36513ZM52.925 156.38075Q52.409374 156.38075 52.05 156.83388Q51.70625 157.287 51.70625 158.50575Q51.70625 159.5995 52.05 160.05263Q52.409374 160.50575 52.925 160.50575Q53.45625 160.50575 53.8 160.05263Q54.159374 159.5995 54.159374 158.39638Q54.159374 157.287 53.8 156.83388Q53.45625 156.38075 52.925 156.38075ZM52.940624 167.49013L59.20625 155.412L60.346874 155.412L54.096874 167.49013L52.940624 167.49013ZM57.89375 164.38075Q57.89375 163.14638 58.503124 162.287Q59.128124 161.42763 60.3 161.42763Q61.378124 161.42763 62.08125 162.20888Q62.8 162.9745 62.8 164.45888Q62.8 165.912 62.08125 166.70888Q61.3625 167.49013 60.315624 167.49013Q59.26875 167.49013 58.58125 166.70888Q57.89375 165.92763 57.89375 164.38075ZM60.346874 162.39638Q59.815624 162.39638 59.45625 162.8495Q59.1125 163.30263 59.1125 164.52138Q59.1125 165.61513 59.45625 166.06825Q59.815624 166.52138 60.33125 166.52138Q60.878124 166.52138 61.221874 166.06825Q61.565624 165.61513 61.565624 164.412Q61.565624 163.30263 61.20625 162.8495Q60.8625 162.39638 60.346874 162.39638Z" fill-rule="nonzero"/><path stroke="#757575" stroke-width="1.0" stroke-linecap="butt" d="M18.55 150.56825L145.23334 150.56825L169.0325 150.56825" fill-rule="nonzero"/><path fill="#9e9e9e" d="M171.0325 150.56825C171.0325 149.46368 170.13707 148.56825 169.0325 148.56825C167.92793 148.56825 167.0325 149.46368 167.0325 150.56825C167.0325 151.67282 167.92793 152.56825 169.0325 152.56825C170.13707 152.56825 171.0325 151.67282 171.0325 150.56825" fill-rule="nonzero"/><path fill="#efefef" d="M19.76875 293.57755L19.76875 282.12442L21.33125 282.12442L27.346874 291.1088L27.346874 282.12442L28.8 282.12442L28.8 293.57755L27.2375 293.57755L21.221874 284.57755L21.221874 293.57755L19.76875 293.57755ZM37.01875 292.5463Q36.2375 293.21817 35.51875 293.49942Q34.8 293.76505 33.971874 293.76505Q32.596874 293.76505 31.8625 293.09317Q31.128124 292.4213 31.128124 291.39005Q31.128124 290.78067 31.409374 290.28067Q31.690624 289.76505 32.128124 289.46817Q32.58125 289.15567 33.14375 288.99942Q33.565624 288.89005 34.39375 288.7963Q36.096874 288.59317 36.909374 288.31192Q36.909374 288.01505 36.909374 287.93692Q36.909374 287.07755 36.51875 286.7338Q35.971874 286.24942 34.909374 286.24942Q33.925 286.24942 33.440624 286.6088Q32.971874 286.95255 32.753124 287.82755L31.378124 287.64005Q31.565624 286.76505 31.9875 286.21817Q32.425 285.6713 33.2375 285.39005Q34.05 285.09317 35.1125 285.09317Q36.175 285.09317 36.83125 285.34317Q37.503124 285.59317 37.815624 285.96817Q38.128124 286.34317 38.253124 286.9213Q38.33125 287.28067 38.33125 288.21817L38.33125 290.09317Q38.33125 292.06192 38.409374 292.57755Q38.503124 293.09317 38.76875 293.57755L37.3 293.57755Q37.08125 293.14005 37.01875 292.5463ZM36.909374 289.40567Q36.14375 289.71817 34.6125 289.93692Q33.7375 290.06192 33.378124 290.21817Q33.01875 290.37442 32.815624 290.68692Q32.628124 290.9838 32.628124 291.34317Q32.628124 291.90567 33.05 292.28067Q33.4875 292.65567 34.3 292.65567Q35.1125 292.65567 35.7375 292.31192Q36.378124 291.95255 36.675 291.32755Q36.909374 290.8588 36.909374 289.9213L36.909374 289.40567ZM43.675 292.31192L43.878124 293.56192Q43.284374 293.68692 42.815624 293.68692Q42.05 293.68692 41.628124 293.45255Q41.20625 293.20255 41.034374 292.81192Q40.8625 292.40567 40.8625 291.14005L40.8625 286.37442L39.83125 286.37442L39.83125 285.28067L40.8625 285.28067L40.8625 283.21817L42.26875 282.37442L42.26875 285.28067L43.675 285.28067L43.675 286.37442L42.26875 286.37442L42.26875 291.21817Q42.26875 291.82755 42.33125 291.99942Q42.409374 292.1713 42.58125 292.28067Q42.753124 292.37442 43.065624 292.37442Q43.3 292.37442 43.675 292.31192ZM50.05 293.57755L50.05 292.3588Q49.08125 293.76505 47.409374 293.76505Q46.675 293.76505 46.034374 293.4838Q45.409374 293.20255 45.096874 292.78067Q44.784374 292.34317 44.659374 291.7338Q44.58125 291.31192 44.58125 290.4213L44.58125 285.28067L45.9875 285.28067L45.9875 289.87442Q45.9875 290.9838 46.065624 291.3588Q46.20625 291.9213 46.628124 292.2338Q47.065624 292.5463 47.690624 292.5463Q48.33125 292.5463 48.878124 292.2338Q49.440624 291.90567 49.659374 291.34317Q49.89375 290.78067 49.89375 289.71817L49.89375 285.28067L51.3 285.28067L51.3 293.57755L50.05 293.57755ZM53.596874 293.57755L53.596874 285.28067L54.8625 285.28067L54.8625 286.53067Q55.346874 285.65567 55.753124 285.37442Q56.159374 285.09317 56.659374 285.09317Q57.3625 285.09317 58.096874 285.5463L57.6125 286.84317Q57.096874 286.5463 56.58125 286.5463Q56.128124 286.5463 55.753124 286.82755Q55.39375 287.09317 55.2375 287.59317Q55.003124 288.34317 55.003124 289.2338L55.003124 293.57755L53.596874 293.57755ZM64.28438 290.90567L65.7375 291.07755Q65.39375 292.3588 64.45625 293.06192Q63.534374 293.76505 62.096874 293.76505Q60.26875 293.76505 59.20625 292.64005Q58.14375 291.51505 58.14375 289.49942Q58.14375 287.40567 59.221874 286.24942Q60.3 285.09317 62.01875 285.09317Q63.675 285.09317 64.72188 286.2338Q65.78438 287.3588 65.78438 289.40567Q65.78438 289.53067 65.78438 289.78067L59.596874 289.78067Q59.675 291.15567 60.3625 291.89005Q61.065624 292.6088 62.096874 292.6088Q62.878124 292.6088 63.425 292.20255Q63.971874 291.7963 64.28438 290.90567ZM59.675 288.62442L64.3 288.62442Q64.20625 287.57755 63.76875 287.06192Q63.096874 286.24942 62.034374 286.24942Q61.065624 286.24942 60.39375 286.90567Q59.7375 287.5463 59.675 288.62442ZM67.05 291.09317L68.44063 290.87442Q68.55 291.71817 69.08125 292.1713Q69.62813 292.6088 70.58125 292.6088Q71.55 292.6088 72.01875 292.21817Q72.4875 291.81192 72.4875 291.28067Q72.4875 290.81192 72.08125 290.53067Q71.78438 290.34317 70.64375 290.06192Q69.09688 289.6713 68.4875 289.39005Q67.89375 289.09317 67.58125 288.59317Q67.28438 288.09317 67.28438 287.4838Q67.28438 286.9213 67.53438 286.45255Q67.78438 285.9838 68.22188 285.6713Q68.55 285.4213 69.1125 285.26505Q69.69063 285.09317 70.33125 285.09317Q71.31563 285.09317 72.05 285.37442Q72.78438 285.65567 73.12813 286.14005Q73.4875 286.6088 73.62813 287.4213L72.25313 287.6088Q72.15938 286.96817 71.70625 286.6088Q71.25313 286.24942 70.44063 286.24942Q69.47188 286.24942 69.05 286.57755Q68.64375 286.89005 68.64375 287.31192Q68.64375 287.59317 68.81563 287.81192Q68.9875 288.03067 69.34688 288.18692Q69.56563 288.26505 70.59688 288.5463Q72.08125 288.93692 72.675 289.20255Q73.26875 289.45255 73.59688 289.93692Q73.94063 290.4213 73.94063 291.14005Q73.94063 291.84317 73.51875 292.46817Q73.1125 293.07755 72.33125 293.4213Q71.56563 293.76505 70.59688 293.76505Q68.97188 293.76505 68.12813 293.09317Q67.28438 292.4213 67.05 291.09317ZM81.01875 290.53067L82.40938 290.71817Q82.175 292.14005 81.2375 292.95255Q80.31563 293.76505 78.95625 293.76505Q77.25313 293.76505 76.20625 292.65567Q75.175 291.53067 75.175 289.45255Q75.175 288.1088 75.6125 287.1088Q76.06563 286.09317 76.97188 285.59317Q77.89375 285.09317 78.95625 285.09317Q80.31563 285.09317 81.175 285.78067Q82.03438 286.45255 82.26875 287.71817L80.90938 287.9213Q80.70625 287.09317 80.20625 286.6713Q79.72188 286.24942 79.01875 286.24942Q77.95625 286.24942 77.28438 287.01505Q76.62813 287.76505 76.62813 289.4213Q76.62813 291.09317 77.26875 291.8588Q77.90938 292.6088 78.94063 292.6088Q79.76875 292.6088 80.31563 292.1088Q80.87813 291.59317 81.01875 290.53067ZM89.01875 292.5463Q88.2375 293.21817 87.51875 293.49942Q86.8 293.76505 85.97188 293.76505Q84.59688 293.76505 83.8625 293.09317Q83.12813 292.4213 83.12813 291.39005Q83.12813 290.78067 83.40938 290.28067Q83.69063 289.76505 84.12813 289.46817Q84.58125 289.15567 85.14375 288.99942Q85.56563 288.89005 86.39375 288.7963Q88.09688 288.59317 88.90938 288.31192Q88.90938 288.01505 88.90938 287.93692Q88.90938 287.07755 88.51875 286.7338Q87.97188 286.24942 86.90938 286.24942Q85.925 286.24942 85.44063 286.6088Q84.97188 286.95255 84.75313 287.82755L83.37813 287.64005Q83.56563 286.76505 83.9875 286.21817Q84.425 285.6713 85.2375 285.39005Q86.05 285.09317 87.1125 285.09317Q88.175 285.09317 88.83125 285.34317Q89.50313 285.59317 89.81563 285.96817Q90.12813 286.34317 90.25313 286.9213Q90.33125 287.28067 90.33125 288.21817L90.33125 290.09317Q90.33125 292.06192 90.40938 292.57755Q90.50313 293.09317 90.76875 293.57755L89.3 293.57755Q89.08125 293.14005 89.01875 292.5463ZM88.90938 289.40567Q88.14375 289.71817 86.6125 289.93692Q85.7375 290.06192 85.37813 290.21817Q85.01875 290.37442 84.81563 290.68692Q84.62813 290.9838 84.62813 291.34317Q84.62813 291.90567 85.05 292.28067Q85.4875 292.65567 86.3 292.65567Q87.1125 292.65567 87.7375 292.31192Q88.37813 291.95255 88.675 291.32755Q88.90938 290.8588 88.90938 289.9213L88.90938 289.40567ZM92.6125 296.76505L92.6125 285.28067L93.89375 285.28067L93.89375 286.3588Q94.34688 285.71817 94.90938 285.40567Q95.4875 285.09317 96.3 285.09317Q97.3625 285.09317 98.175 285.64005Q98.9875 286.18692 99.39375 287.18692Q99.81563 288.1713 99.81563 289.3588Q99.81563 290.64005 99.34688 291.65567Q98.89375 292.6713 98.01875 293.21817Q97.15938 293.76505 96.19063 293.76505Q95.4875 293.76505 94.925 293.46817Q94.37813 293.1713 94.01875 292.71817L94.01875 296.76505L92.6125 296.76505ZM93.87813 289.46817Q93.87813 291.07755 94.51875 291.84317Q95.175 292.6088 96.09688 292.6088Q97.03438 292.6088 97.70625 291.81192Q98.37813 291.01505 98.37813 289.3588Q98.37813 287.76505 97.72188 286.9838Q97.06563 286.18692 96.15938 286.18692Q95.26875 286.18692 94.56563 287.03067Q93.87813 287.87442 93.87813 289.46817ZM107.28438 290.90567L108.7375 291.07755Q108.39375 292.3588 107.45625 293.06192Q106.53438 293.76505 105.09688 293.76505Q103.26875 293.76505 102.20625 292.64005Q101.14375 291.51505 101.14375 289.49942Q101.14375 287.40567 102.22188 286.24942Q103.3 285.09317 105.01875 285.09317Q106.675 285.09317 107.72188 286.2338Q108.78438 287.3588 108.78438 289.40567Q108.78438 289.53067 108.78438 289.78067L102.59688 289.78067Q102.675 291.15567 103.3625 291.89005Q104.06563 292.6088 105.09688 292.6088Q105.87813 292.6088 106.425 292.20255Q106.97188 291.7963 107.28438 290.90567ZM102.675 288.62442L107.3 288.62442Q107.20625 287.57755 106.76875 287.06192Q106.09688 286.24942 105.03438 286.24942Q104.06563 286.24942 103.39375 286.90567Q102.7375 287.5463 102.675 288.62442Z" fill-rule="nonzero"/><path fill="#9e9e9e" d="M19.425 312.9213L20.784374 312.7963Q20.95625 313.74942 21.440624 314.18692Q21.925 314.6088 22.675 314.6088Q23.33125 314.6088 23.815624 314.31192Q24.3 314.01505 24.6125 313.53067Q24.925 313.03067 25.128124 312.18692Q25.346874 311.34317 25.346874 310.46817Q25.346874 310.37442 25.346874 310.18692Q24.925 310.8588 24.190624 311.28067Q23.45625 311.68692 22.6125 311.68692Q21.190624 311.68692 20.20625 310.65567Q19.221874 309.62442 19.221874 307.93692Q19.221874 306.20255 20.2375 305.14005Q21.26875 304.07755 22.815624 304.07755Q23.940624 304.07755 24.8625 304.68692Q25.784374 305.28067 26.26875 306.39005Q26.753124 307.49942 26.753124 309.6088Q26.753124 311.81192 26.26875 313.1088Q25.8 314.40567 24.846874 315.09317Q23.909374 315.78067 22.64375 315.78067Q21.3 315.78067 20.440624 315.03067Q19.596874 314.28067 19.425 312.9213ZM25.190624 307.87442Q25.190624 306.65567 24.534374 305.95255Q23.89375 305.2338 22.9875 305.2338Q22.05 305.2338 21.346874 305.99942Q20.659374 306.76505 20.659374 307.9838Q20.659374 309.07755 21.315624 309.76505Q21.9875 310.45255 22.95625 310.45255Q23.925 310.45255 24.55 309.76505Q25.190624 309.07755 25.190624 307.87442ZM29.003124 315.57755L29.003124 313.96817L30.6125 313.96817L30.6125 315.57755L29.003124 315.57755ZM36.721874 315.57755L36.721874 312.82755L31.753124 312.82755L31.753124 311.5463L36.9875 304.12442L38.128124 304.12442L38.128124 311.5463L39.675 311.5463L39.675 312.82755L38.128124 312.82755L38.128124 315.57755L36.721874 315.57755ZM36.721874 311.5463L36.721874 306.37442L33.14375 311.5463L36.721874 311.5463ZM41.4875 306.87442Q41.4875 305.64005 42.096874 304.78067Q42.721874 303.9213 43.89375 303.9213Q44.971874 303.9213 45.675 304.70255Q46.378124 305.46817 46.378124 306.95255Q46.378124 308.40567 45.659374 309.20255Q44.95625 309.9838 43.909374 309.9838Q42.8625 309.9838 42.175 309.21817Q41.4875 308.43692 41.4875 306.87442ZM43.925 304.89005Q43.409374 304.89005 43.05 305.34317Q42.70625 305.7963 42.70625 307.01505Q42.70625 308.1088 43.05 308.56192Q43.409374 309.01505 43.925 309.01505Q44.45625 309.01505 44.8 308.56192Q45.159374 308.1088 45.159374 306.90567Q45.159374 305.7963 44.8 305.34317Q44.45625 304.89005 43.925 304.89005ZM43.940624 315.99942L50.20625 303.9213L51.346874 303.9213L45.096874 315.99942L43.940624 315.99942ZM48.89375 312.89005Q48.89375 311.65567 49.503124 310.7963Q50.128124 309.93692 51.3 309.93692Q52.378124 309.93692 53.08125 310.71817Q53.8 311.4838 53.8 312.96817Q53.8 314.4213 53.08125 315.21817Q52.3625 315.99942 51.315624 315.99942Q50.26875 315.99942 49.58125 315.21817Q48.89375 314.43692 48.89375 312.89005ZM51.346874 310.90567Q50.815624 310.90567 50.45625 311.3588Q50.1125 311.81192 50.1125 313.03067Q50.1125 314.12442 50.45625 314.57755Q50.815624 315.03067 51.33125 315.03067Q51.878124 315.03067 52.221874 314.57755Q52.565624 314.12442 52.565624 312.9213Q52.565624 311.81192 52.20625 311.3588Q51.8625 310.90567 51.346874 310.90567Z" fill-rule="nonzero"/><path stroke="#757575" stroke-width="1.0" stroke-linecap="butt" d="M18.55 299.07755L145.23334 299.07755L195.72325 299.07755" fill-rule="nonzero"/><path fill="#9e9e9e" d="M197.72325 299.07755C197.72325 297.973 196.82782 297.07755 195.72325 297.07755C194.61868 297.07755 193.72325 297.973 193.72325 299.07755C193.72325 300.18213 194.61868 301.07755 195.72325 301.07755C196.82782 301.07755 197.72325 300.18213 197.72325 299.07755" fill-rule="nonzero"/><path fill="#efefef" d="M551.6375 69.916664L551.6375 58.46354L553.91876 58.46354L556.6375 66.572914Q557.0125 67.697914 557.1844 68.260414Q557.3719 67.635414 557.79376 66.43229L560.52814 58.46354L562.575 58.46354L562.575 69.916664L561.10626 69.916664L561.10626 60.322914L557.77814 69.916664L556.41876 69.916664L553.10626 60.166664L553.10626 69.916664L551.6375 69.916664ZM569.91876 68.885414Q569.1375 69.55729 568.41876 69.83854Q567.7 70.104164 566.8719 70.104164Q565.4969 70.104164 564.7625 69.43229Q564.02814 68.760414 564.02814 67.729164Q564.02814 67.11979 564.3094 66.61979Q564.59064 66.104164 565.02814 65.80729Q565.48126 65.49479 566.04376 65.33854Q566.46564 65.229164 567.29376 65.135414Q568.9969 64.93229 569.8094 64.65104Q569.8094 64.354164 569.8094 64.27604Q569.8094 63.416664 569.41876 63.072914Q568.8719 62.58854 567.8094 62.58854Q566.825 62.58854 566.34064 62.947914Q565.8719 63.291664 565.65314 64.166664L564.27814 63.979164Q564.46564 63.104164 564.8875 62.55729Q565.325 62.010414 566.1375 61.729164Q566.95 61.43229 568.0125 61.43229Q569.075 61.43229 569.73126 61.68229Q570.40314 61.93229 570.71564 62.30729Q571.02814 62.68229 571.15314 63.260414Q571.23126 63.61979 571.23126 64.55729L571.23126 66.43229Q571.23126 68.40104 571.3094 68.916664Q571.40314 69.43229 571.66876 69.916664L570.2 69.916664Q569.98126 69.479164 569.91876 68.885414ZM569.8094 65.74479Q569.04376 66.05729 567.5125 66.27604Q566.6375 66.40104 566.27814 66.55729Q565.91876 66.71354 565.71564 67.02604Q565.52814 67.322914 565.52814 67.68229Q565.52814 68.24479 565.95 68.61979Q566.3875 68.99479 567.2 68.99479Q568.0125 68.99479 568.6375 68.65104Q569.27814 68.291664 569.575 67.666664Q569.8094 67.197914 569.8094 66.260414L569.8094 65.74479ZM573.5125 73.104164L573.5125 61.61979L574.79376 61.61979L574.79376 62.697914Q575.2469 62.05729 575.8094 61.74479Q576.3875 61.43229 577.2 61.43229Q578.2625 61.43229 579.075 61.979164Q579.8875 62.52604 580.29376 63.52604Q580.71564 64.510414 580.71564 65.697914Q580.71564 66.979164 580.2469 67.99479Q579.79376 69.010414 578.91876 69.55729Q578.0594 70.104164 577.09064 70.104164Q576.3875 70.104164 575.825 69.80729Q575.27814 69.510414 574.91876 69.05729L574.91876 73.104164L573.5125 73.104164ZM574.77814 65.80729Q574.77814 67.416664 575.41876 68.18229Q576.075 68.947914 576.9969 68.947914Q577.9344 68.947914 578.60626 68.15104Q579.27814 67.354164 579.27814 65.697914Q579.27814 64.104164 578.6219 63.322914Q577.96564 62.52604 577.0594 62.52604Q576.16876 62.52604 575.46564 63.36979Q574.77814 64.21354 574.77814 65.80729Z" fill-rule="nonzero"/><path fill="#9e9e9e" d="M551.41876 91.916664L550.0125 91.916664L550.0125 82.947914Q549.4969 83.43229 548.66876 83.916664Q547.85626 84.40104 547.2 84.65104L547.2 83.291664Q548.3719 82.729164 549.2469 81.947914Q550.1375 81.15104 550.5125 80.416664L551.41876 80.416664L551.41876 91.916664ZM555.90314 91.916664L555.90314 90.30729L557.5125 90.30729L557.5125 91.916664L555.90314 91.916664ZM559.325 89.260414L560.6844 89.135414Q560.85626 90.08854 561.34064 90.52604Q561.825 90.947914 562.575 90.947914Q563.23126 90.947914 563.71564 90.65104Q564.2 90.354164 564.5125 89.86979Q564.825 89.36979 565.02814 88.52604Q565.2469 87.68229 565.2469 86.80729Q565.2469 86.71354 565.2469 86.52604Q564.825 87.197914 564.09064 87.61979Q563.35626 88.02604 562.5125 88.02604Q561.09064 88.02604 560.10626 86.99479Q559.1219 85.96354 559.1219 84.27604Q559.1219 82.541664 560.1375 81.479164Q561.16876 80.416664 562.71564 80.416664Q563.84064 80.416664 564.7625 81.02604Q565.6844 81.61979 566.16876 82.729164Q566.65314 83.83854 566.65314 85.947914Q566.65314 88.15104 566.16876 89.447914Q565.7 90.74479 564.7469 91.43229Q563.8094 92.11979 562.54376 92.11979Q561.2 92.11979 560.34064 91.36979Q559.4969 90.61979 559.325 89.260414ZM565.09064 84.21354Q565.09064 82.99479 564.4344 82.291664Q563.79376 81.572914 562.8875 81.572914Q561.95 81.572914 561.2469 82.33854Q560.5594 83.104164 560.5594 84.322914Q560.5594 85.416664 561.21564 86.104164Q561.8875 86.791664 562.85626 86.791664Q563.825 86.791664 564.45 86.104164Q565.09064 85.416664 565.09064 84.21354ZM568.3875 83.21354Q568.3875 81.979164 568.9969 81.11979Q569.6219 80.260414 570.79376 80.260414Q571.8719 80.260414 572.575 81.041664Q573.27814 81.80729 573.27814 83.291664Q573.27814 84.74479 572.5594 85.541664Q571.85626 86.322914 570.8094 86.322914Q569.7625 86.322914 569.075 85.55729Q568.3875 84.77604 568.3875 83.21354ZM570.825 81.229164Q570.3094 81.229164 569.95 81.68229Q569.60626 82.135414 569.60626 83.354164Q569.60626 84.447914 569.95 84.90104Q570.3094 85.354164 570.825 85.354164Q571.35626 85.354164 571.7 84.90104Q572.0594 84.447914 572.0594 83.24479Q572.0594 82.135414 571.7 81.68229Q571.35626 81.229164 570.825 81.229164ZM570.84064 92.33854L577.10626 80.260414L578.2469 80.260414L571.9969 92.33854L570.84064 92.33854ZM575.79376 89.229164Q575.79376 87.99479 576.40314 87.135414Q577.02814 86.27604 578.2 86.27604Q579.27814 86.27604 579.98126 87.05729Q580.7 87.822914 580.7 89.30729Q580.7 90.760414 579.98126 91.55729Q579.2625 92.33854 578.21564 92.33854Q577.16876 92.33854 576.48126 91.55729Q575.79376 90.77604 575.79376 89.229164ZM578.2469 87.24479Q577.71564 87.24479 577.35626 87.697914Q577.0125 88.15104 577.0125 89.36979Q577.0125 90.46354 577.35626 90.916664Q577.71564 91.36979 578.23126 91.36979Q578.77814 91.36979 579.1219 90.916664Q579.46564 90.46354 579.46564 89.260414Q579.46564 88.15104 579.10626 87.697914Q578.7625 87.24479 578.2469 87.24479Z" fill-rule="nonzero"/><path stroke="#757575" stroke-width="1.0" stroke-linecap="butt" d="M581.45 75.416664L454.76666 75.416664L308.37238 62.60321" fill-rule="nonzero"/><path fill="#9e9e9e" d="M310.37238 62.60321C310.37238 61.498642 309.47696 60.60321 308.37238 60.60321C307.26782 60.60321 306.37238 61.498642 306.37238 62.60321C306.37238 63.70778 307.26782 64.60321 308.37238 64.60321C309.47696 64.60321 310.37238 63.70778 310.37238 62.60321" fill-rule="nonzero"/><path fill="#efefef" d="M498.6844 115.79182L498.6844 104.33869L503.0125 104.33869Q504.15314 104.33869 504.7469 104.44807Q505.59064 104.58869 506.15314 104.97932Q506.73126 105.36994 507.075 106.08869Q507.4344 106.79182 507.4344 107.65119Q507.4344 109.10432 506.4969 110.11994Q505.575 111.13557 503.1375 111.13557L500.2 111.13557L500.2 115.79182L498.6844 115.79182ZM500.2 109.77619L503.16876 109.77619Q504.6375 109.77619 505.2469 109.22932Q505.8719 108.68244 505.8719 107.69807Q505.8719 106.97932 505.4969 106.46369Q505.1375 105.94807 504.54376 105.79182Q504.16876 105.68244 503.1375 105.68244L500.2 105.68244L500.2 109.77619ZM515.1844 113.11994L516.6375 113.29182Q516.29376 114.57307 515.35626 115.27619Q514.4344 115.97932 512.9969 115.97932Q511.16876 115.97932 510.10626 114.85432Q509.04376 113.72932 509.04376 111.71369Q509.04376 109.61994 510.1219 108.46369Q511.2 107.30744 512.91876 107.30744Q514.575 107.30744 515.6219 108.44807Q516.6844 109.57307 516.6844 111.61994Q516.6844 111.74494 516.6844 111.99494L510.4969 111.99494Q510.575 113.36994 511.2625 114.10432Q511.96564 114.82307 512.9969 114.82307Q513.77814 114.82307 514.325 114.41682Q514.8719 114.01057 515.1844 113.11994ZM510.575 110.83869L515.2 110.83869Q515.10626 109.79182 514.66876 109.27619Q513.9969 108.46369 512.9344 108.46369Q511.96564 108.46369 511.29376 109.11994Q510.6375 109.76057 510.575 110.83869ZM518.4969 115.79182L518.4969 107.49494L519.7625 107.49494L519.7625 108.74494Q520.2469 107.86994 520.65314 107.58869Q521.0594 107.30744 521.5594 107.30744Q522.2625 107.30744 522.9969 107.76057L522.5125 109.05744Q521.9969 108.76057 521.48126 108.76057Q521.02814 108.76057 520.65314 109.04182Q520.29376 109.30744 520.1375 109.80744Q519.90314 110.55744 519.90314 111.44807L519.90314 115.79182L518.4969 115.79182ZM522.95 113.30744L524.34064 113.08869Q524.45 113.93244 524.98126 114.38557Q525.52814 114.82307 526.48126 114.82307Q527.45 114.82307 527.91876 114.43244Q528.3875 114.02619 528.3875 113.49494Q528.3875 113.02619 527.98126 112.74494Q527.6844 112.55744 526.54376 112.27619Q524.9969 111.88557 524.3875 111.60432Q523.79376 111.30744 523.48126 110.80744Q523.1844 110.30744 523.1844 109.69807Q523.1844 109.13557 523.4344 108.66682Q523.6844 108.19807 524.1219 107.88557Q524.45 107.63557 525.0125 107.47932Q525.59064 107.30744 526.23126 107.30744Q527.21564 107.30744 527.95 107.58869Q528.6844 107.86994 529.02814 108.35432Q529.3875 108.82307 529.52814 109.63557L528.15314 109.82307Q528.0594 109.18244 527.60626 108.82307Q527.15314 108.46369 526.34064 108.46369Q525.3719 108.46369 524.95 108.79182Q524.54376 109.10432 524.54376 109.52619Q524.54376 109.80744 524.71564 110.02619Q524.8875 110.24494 525.2469 110.40119Q525.46564 110.47932 526.4969 110.76057Q527.98126 111.15119 528.575 111.41682Q529.16876 111.66682 529.4969 112.15119Q529.84064 112.63557 529.84064 113.35432Q529.84064 114.05744 529.41876 114.68244Q529.0125 115.29182 528.23126 115.63557Q527.46564 115.97932 526.4969 115.97932Q524.8719 115.97932 524.02814 115.30744Q523.1844 114.63557 522.95 113.30744ZM531.5125 118.97932L531.5125 107.49494L532.79376 107.49494L532.79376 108.57307Q533.2469 107.93244 533.8094 107.61994Q534.3875 107.30744 535.2 107.30744Q536.2625 107.30744 537.075 107.85432Q537.8875 108.40119 538.29376 109.40119Q538.71564 110.38557 538.71564 111.57307Q538.71564 112.85432 538.2469 113.86994Q537.79376 114.88557 536.91876 115.43244Q536.0594 115.97932 535.09064 115.97932Q534.3875 115.97932 533.825 115.68244Q533.27814 115.38557 532.91876 114.93244L532.91876 118.97932L531.5125 118.97932ZM532.77814 111.68244Q532.77814 113.29182 533.41876 114.05744Q534.075 114.82307 534.9969 114.82307Q535.9344 114.82307 536.60626 114.02619Q537.27814 113.22932 537.27814 111.57307Q537.27814 109.97932 536.6219 109.19807Q535.96564 108.40119 535.0594 108.40119Q534.16876 108.40119 533.46564 109.24494Q532.77814 110.08869 532.77814 111.68244ZM546.1844 113.11994L547.6375 113.29182Q547.29376 114.57307 546.35626 115.27619Q545.4344 115.97932 543.9969 115.97932Q542.16876 115.97932 541.10626 114.85432Q540.04376 113.72932 540.04376 111.71369Q540.04376 109.61994 541.1219 108.46369Q542.2 107.30744 543.91876 107.30744Q545.575 107.30744 546.6219 108.44807Q547.6844 109.57307 547.6844 111.61994Q547.6844 111.74494 547.6844 111.99494L541.4969 111.99494Q541.575 113.36994 542.2625 114.10432Q542.96564 114.82307 543.9969 114.82307Q544.77814 114.82307 545.325 114.41682Q545.8719 114.01057 546.1844 113.11994ZM541.575 110.83869L546.2 110.83869Q546.10626 109.79182 545.66876 109.27619Q544.9969 108.46369 543.9344 108.46369Q542.96564 108.46369 542.29376 109.11994Q541.6375 109.76057 541.575 110.83869ZM554.91876 112.74494L556.3094 112.93244Q556.075 114.35432 555.1375 115.16682Q554.21564 115.97932 552.85626 115.97932Q551.15314 115.97932 550.10626 114.86994Q549.075 113.74494 549.075 111.66682Q549.075 110.32307 549.5125 109.32307Q549.96564 108.30744 550.8719 107.80744Q551.79376 107.30744 552.85626 107.30744Q554.21564 107.30744 555.075 107.99494Q555.9344 108.66682 556.16876 109.93244L554.8094 110.13557Q554.60626 109.30744 554.10626 108.88557Q553.6219 108.46369 552.91876 108.46369Q551.85626 108.46369 551.1844 109.22932Q550.52814 109.97932 550.52814 111.63557Q550.52814 113.30744 551.16876 114.07307Q551.8094 114.82307 552.84064 114.82307Q553.66876 114.82307 554.21564 114.32307Q554.77814 113.80744 554.91876 112.74494ZM560.575 114.52619L560.77814 115.77619Q560.1844 115.90119 559.71564 115.90119Q558.95 115.90119 558.52814 115.66682Q558.10626 115.41682 557.9344 115.02619Q557.7625 114.61994 557.7625 113.35432L557.7625 108.58869L556.73126 108.58869L556.73126 107.49494L557.7625 107.49494L557.7625 105.43244L559.16876 104.58869L559.16876 107.49494L560.575 107.49494L560.575 108.58869L559.16876 108.58869L559.16876 113.43244Q559.16876 114.04182 559.23126 114.21369Q559.3094 114.38557 559.48126 114.49494Q559.65314 114.58869 559.96564 114.58869Q560.2 114.58869 560.575 114.52619ZM561.5125 105.94807L561.5125 104.33869L562.91876 104.33869L562.91876 105.94807L561.5125 105.94807ZM561.5125 115.79182L561.5125 107.49494L562.91876 107.49494L562.91876 115.79182L561.5125 115.79182ZM567.8094 115.79182L564.65314 107.49494L566.1375 107.49494L567.91876 112.46369Q568.21564 113.26057 568.45 114.13557Q568.6375 113.47932 568.98126 112.55744L570.825 107.49494L572.2625 107.49494L569.1219 115.79182L567.8094 115.79182ZM579.1844 113.11994L580.6375 113.29182Q580.29376 114.57307 579.35626 115.27619Q578.4344 115.97932 576.9969 115.97932Q575.16876 115.97932 574.10626 114.85432Q573.04376 113.72932 573.04376 111.71369Q573.04376 109.61994 574.1219 108.46369Q575.2 107.30744 576.91876 107.30744Q578.575 107.30744 579.6219 108.44807Q580.6844 109.57307 580.6844 111.61994Q580.6844 111.74494 580.6844 111.99494L574.4969 111.99494Q574.575 113.36994 575.2625 114.10432Q575.96564 114.82307 576.9969 114.82307Q577.77814 114.82307 578.325 114.41682Q578.8719 114.01057 579.1844 113.11994ZM574.575 110.83869L579.2 110.83869Q579.10626 109.79182 578.66876 109.27619Q577.9969 108.46369 576.9344 108.46369Q575.96564 108.46369 575.29376 109.11994Q574.6375 109.76057 574.575 110.83869Z" fill-rule="nonzero"/><path fill="#9e9e9e" d="M544.5125 136.43243L544.5125 137.79181L536.9344 137.79181Q536.91876 137.27618 537.10626 136.80743Q537.3875 136.04181 538.02814 135.29181Q538.66876 134.54181 539.8719 133.55743Q541.73126 132.02618 542.3875 131.13556Q543.04376 130.22931 543.04376 129.43243Q543.04376 128.60431 542.45 128.02618Q541.85626 127.44806 540.8875 127.44806Q539.8719 127.44806 539.2625 128.05743Q538.65314 128.66681 538.65314 129.74493L537.2 129.60431Q537.35626 127.97931 538.325 127.13556Q539.29376 126.29181 540.91876 126.29181Q542.575 126.29181 543.52814 127.213684Q544.4969 128.11993 544.4969 129.46368Q544.4969 130.15118 544.21564 130.82306Q543.9344 131.47931 543.27814 132.21368Q542.6219 132.94806 541.10626 134.22931Q539.84064 135.29181 539.48126 135.68243Q539.1219 136.05743 538.8875 136.43243L544.5125 136.43243ZM553.41876 129.13556L552.0125 129.24493Q551.825 128.41681 551.48126 128.04181Q550.91876 127.44806 550.075 127.44806Q549.40314 127.44806 548.90314 127.82306Q548.23126 128.30743 547.84064 129.24493Q547.46564 130.16681 547.45 131.88556Q547.96564 131.10431 548.7 130.72931Q549.4344 130.35431 550.23126 130.35431Q551.6375 130.35431 552.6219 131.40118Q553.6219 132.43243 553.6219 134.07306Q553.6219 135.15118 553.15314 136.07306Q552.6844 136.99493 551.8719 137.49493Q551.0594 137.99493 550.02814 137.99493Q548.27814 137.99493 547.16876 136.69806Q546.0594 135.40118 546.0594 132.43243Q546.0594 129.10431 547.27814 127.60431Q548.35626 126.29181 550.16876 126.29181Q551.5125 126.29181 552.3719 127.057434Q553.2469 127.807434 553.41876 129.13556ZM547.66876 134.07306Q547.66876 134.80743 547.98126 135.47931Q548.29376 136.13556 548.84064 136.47931Q549.40314 136.82306 550.0125 136.82306Q550.90314 136.82306 551.54376 136.10431Q552.1844 135.38556 552.1844 134.15118Q552.1844 132.96368 551.54376 132.29181Q550.91876 131.60431 549.95 131.60431Q548.9969 131.60431 548.325 132.29181Q547.66876 132.96368 547.66876 134.07306ZM555.90314 137.79181L555.90314 136.18243L557.5125 136.18243L557.5125 137.79181L555.90314 137.79181ZM563.6219 137.79181L563.6219 135.04181L558.65314 135.04181L558.65314 133.76056L563.8875 126.338684L565.02814 126.338684L565.02814 133.76056L566.575 133.76056L566.575 135.04181L565.02814 135.04181L565.02814 137.79181L563.6219 137.79181ZM563.6219 133.76056L563.6219 128.58868L560.04376 133.76056L563.6219 133.76056ZM568.3875 129.08868Q568.3875 127.85431 568.9969 126.994934Q569.6219 126.13556 570.79376 126.13556Q571.8719 126.13556 572.575 126.91681Q573.27814 127.682434 573.27814 129.16681Q573.27814 130.61993 572.5594 131.41681Q571.85626 132.19806 570.8094 132.19806Q569.7625 132.19806 569.075 131.43243Q568.3875 130.65118 568.3875 129.08868ZM570.825 127.10431Q570.3094 127.10431 569.95 127.557434Q569.60626 128.01056 569.60626 129.22931Q569.60626 130.32306 569.95 130.77618Q570.3094 131.22931 570.825 131.22931Q571.35626 131.22931 571.7 130.77618Q572.0594 130.32306 572.0594 129.11993Q572.0594 128.01056 571.7 127.557434Q571.35626 127.10431 570.825 127.10431ZM570.84064 138.21368L577.10626 126.13556L578.2469 126.13556L571.9969 138.21368L570.84064 138.21368ZM575.79376 135.10431Q575.79376 133.86993 576.40314 133.01056Q577.02814 132.15118 578.2 132.15118Q579.27814 132.15118 579.98126 132.93243Q580.7 133.69806 580.7 135.18243Q580.7 136.63556 579.98126 137.43243Q579.2625 138.21368 578.21564 138.21368Q577.16876 138.21368 576.48126 137.43243Q575.79376 136.65118 575.79376 135.10431ZM578.2469 133.11993Q577.71564 133.11993 577.35626 133.57306Q577.0125 134.02618 577.0125 135.24493Q577.0125 136.33868 577.35626 136.79181Q577.71564 137.24493 578.23126 137.24493Q578.77814 137.24493 579.1219 136.79181Q579.46564 136.33868 579.46564 135.13556Q579.46564 134.02618 579.10626 133.57306Q578.7625 133.11993 578.2469 133.11993Z" fill-rule="nonzero"/><path stroke="#757575" stroke-width="1.0" stroke-linecap="butt" d="M581.45 121.29182L454.76666 121.29182L414.82742 121.29182" fill-rule="nonzero"/><path fill="#9e9e9e" d="M416.82742 121.29182C416.82742 120.18725 415.93198 119.29182 414.82742 119.29182C413.72284 119.29182 412.82742 120.18725 412.82742 121.29182C412.82742 122.396385 413.72284 123.29182 414.82742 123.29182C415.93198 123.29182 416.82742 122.396385 416.82742 121.29182" fill-rule="nonzero"/><path fill="#efefef" d="M531.6844 326.45L531.6844 314.9969L536.0125 314.9969Q537.15314 314.9969 537.7469 315.10626Q538.59064 315.2469 539.15314 315.6375Q539.73126 316.02814 540.075 316.7469Q540.4344 317.45 540.4344 318.3094Q540.4344 319.7625 539.4969 320.77814Q538.575 321.79376 536.1375 321.79376L533.2 321.79376L533.2 326.45L531.6844 326.45ZM533.2 320.4344L536.16876 320.4344Q537.6375 320.4344 538.2469 319.8875Q538.8719 319.34064 538.8719 318.35626Q538.8719 317.6375 538.4969 317.1219Q538.1375 316.60626 537.54376 316.45Q537.16876 316.34064 536.1375 316.34064L533.2 316.34064L533.2 320.4344ZM548.1844 323.77814L549.6375 323.95Q549.29376 325.23126 548.35626 325.9344Q547.4344 326.6375 545.9969 326.6375Q544.16876 326.6375 543.10626 325.5125Q542.04376 324.3875 542.04376 322.3719Q542.04376 320.27814 543.1219 319.1219Q544.2 317.96564 545.91876 317.96564Q547.575 317.96564 548.6219 319.10626Q549.6844 320.23126 549.6844 322.27814Q549.6844 322.40314 549.6844 322.65314L543.4969 322.65314Q543.575 324.02814 544.2625 324.7625Q544.96564 325.48126 545.9969 325.48126Q546.77814 325.48126 547.325 325.075Q547.8719 324.66876 548.1844 323.77814ZM543.575 321.4969L548.2 321.4969Q548.10626 320.45 547.66876 319.9344Q546.9969 319.1219 545.9344 319.1219Q544.96564 319.1219 544.29376 319.77814Q543.6375 320.41876 543.575 321.4969ZM550.98126 322.29376Q550.98126 319.9969 552.2625 318.8875Q553.34064 317.96564 554.8719 317.96564Q556.59064 317.96564 557.66876 319.09064Q558.7625 320.2 558.7625 322.1844Q558.7625 323.77814 558.27814 324.7Q557.79376 325.6219 556.8719 326.1375Q555.96564 326.6375 554.8719 326.6375Q553.1375 326.6375 552.0594 325.52814Q550.98126 324.40314 550.98126 322.29376ZM552.4344 322.29376Q552.4344 323.8875 553.1219 324.6844Q553.825 325.48126 554.8719 325.48126Q555.91876 325.48126 556.60626 324.6844Q557.3094 323.8875 557.3094 322.2469Q557.3094 320.71564 556.60626 319.91876Q555.91876 319.1219 554.8719 319.1219Q553.825 319.1219 553.1219 319.91876Q552.4344 320.7 552.4344 322.29376ZM560.5125 329.6375L560.5125 318.15314L561.79376 318.15314L561.79376 319.23126Q562.2469 318.59064 562.8094 318.27814Q563.3875 317.96564 564.2 317.96564Q565.2625 317.96564 566.075 318.5125Q566.8875 319.0594 567.29376 320.0594Q567.71564 321.04376 567.71564 322.23126Q567.71564 323.5125 567.2469 324.52814Q566.79376 325.54376 565.91876 326.09064Q565.0594 326.6375 564.09064 326.6375Q563.3875 326.6375 562.825 326.34064Q562.27814 326.04376 561.91876 325.59064L561.91876 329.6375L560.5125 329.6375ZM561.77814 322.34064Q561.77814 323.95 562.41876 324.71564Q563.075 325.48126 563.9969 325.48126Q564.9344 325.48126 565.60626 324.6844Q566.27814 323.8875 566.27814 322.23126Q566.27814 320.6375 565.6219 319.85626Q564.96564 319.0594 564.0594 319.0594Q563.16876 319.0594 562.46564 319.90314Q561.77814 320.7469 561.77814 322.34064ZM569.48126 326.45L569.48126 314.9969L570.8875 314.9969L570.8875 326.45L569.48126 326.45ZM579.1844 323.77814L580.6375 323.95Q580.29376 325.23126 579.35626 325.9344Q578.4344 326.6375 576.9969 326.6375Q575.16876 326.6375 574.10626 325.5125Q573.04376 324.3875 573.04376 322.3719Q573.04376 320.27814 574.1219 319.1219Q575.2 317.96564 576.91876 317.96564Q578.575 317.96564 579.6219 319.10626Q580.6844 320.23126 580.6844 322.27814Q580.6844 322.40314 580.6844 322.65314L574.4969 322.65314Q574.575 324.02814 575.2625 324.7625Q575.96564 325.48126 576.9969 325.48126Q577.77814 325.48126 578.325 325.075Q578.8719 324.66876 579.1844 323.77814ZM574.575 321.4969L579.2 321.4969Q579.10626 320.45 578.66876 319.9344Q577.9969 319.1219 576.9344 319.1219Q575.96564 319.1219 575.29376 319.77814Q574.6375 320.41876 574.575 321.4969Z" fill-rule="nonzero"/><path fill="#9e9e9e" d="M537.1219 345.41876L538.52814 345.23126Q538.77814 346.4344 539.35626 346.96564Q539.9344 347.48126 540.77814 347.48126Q541.7625 347.48126 542.45 346.79376Q543.1375 346.10626 543.1375 345.09064Q543.1375 344.1219 542.4969 343.4969Q541.8719 342.8719 540.8875 342.8719Q540.4969 342.8719 539.90314 343.02814L540.0594 341.79376Q540.2 341.8094 540.27814 341.8094Q541.1844 341.8094 541.90314 341.34064Q542.6219 340.8719 542.6219 339.8875Q542.6219 339.1219 542.09064 338.6219Q541.575 338.10626 540.7469 338.10626Q539.91876 338.10626 539.3719 338.6219Q538.825 339.1375 538.66876 340.16876L537.2625 339.91876Q537.52814 338.4969 538.4344 337.73126Q539.35626 336.95 540.71564 336.95Q541.65314 336.95 542.4344 337.35626Q543.23126 337.7469 543.6375 338.45Q544.0594 339.1375 544.0594 339.91876Q544.0594 340.66876 543.65314 341.27814Q543.2625 341.8875 542.48126 342.2469Q543.4969 342.48126 544.0594 343.21564Q544.6219 343.95 544.6219 345.0594Q544.6219 346.5594 543.52814 347.60626Q542.4344 348.65314 540.7625 348.65314Q539.2625 348.65314 538.2625 347.7625Q537.2625 346.85626 537.1219 345.41876ZM546.1219 342.79376Q546.1219 340.7625 546.52814 339.52814Q546.95 338.29376 547.77814 337.6219Q548.60626 336.95 549.85626 336.95Q550.77814 336.95 551.46564 337.325Q552.16876 337.6844 552.6219 338.3875Q553.075 339.09064 553.325 340.09064Q553.59064 341.09064 553.59064 342.79376Q553.59064 344.8094 553.16876 346.0594Q552.7625 347.29376 551.9344 347.98126Q551.10626 348.65314 549.85626 348.65314Q548.2 348.65314 547.2469 347.45Q546.1219 346.02814 546.1219 342.79376ZM547.5594 342.79376Q547.5594 345.6219 548.21564 346.5594Q548.8875 347.48126 549.85626 347.48126Q550.825 347.48126 551.48126 346.54376Q552.1375 345.60626 552.1375 342.79376Q552.1375 339.96564 551.48126 339.04376Q550.825 338.10626 549.84064 338.10626Q548.8719 338.10626 548.29376 338.9344Q547.5594 339.98126 547.5594 342.79376ZM555.90314 348.45L555.90314 346.84064L557.5125 346.84064L557.5125 348.45L555.90314 348.45ZM566.5125 347.09064L566.5125 348.45L558.9344 348.45Q558.91876 347.9344 559.10626 347.46564Q559.3875 346.7 560.02814 345.95Q560.66876 345.2 561.8719 344.21564Q563.73126 342.6844 564.3875 341.79376Q565.04376 340.8875 565.04376 340.09064Q565.04376 339.2625 564.45 338.6844Q563.85626 338.10626 562.8875 338.10626Q561.8719 338.10626 561.2625 338.71564Q560.65314 339.325 560.65314 340.40314L559.2 340.2625Q559.35626 338.6375 560.325 337.79376Q561.29376 336.95 562.91876 336.95Q564.575 336.95 565.52814 337.8719Q566.4969 338.77814 566.4969 340.1219Q566.4969 340.8094 566.21564 341.48126Q565.9344 342.1375 565.27814 342.8719Q564.6219 343.60626 563.10626 344.8875Q561.84064 345.95 561.48126 346.34064Q561.1219 346.71564 560.8875 347.09064L566.5125 347.09064ZM568.3875 339.7469Q568.3875 338.5125 568.9969 337.65314Q569.6219 336.79376 570.79376 336.79376Q571.8719 336.79376 572.575 337.575Q573.27814 338.34064 573.27814 339.825Q573.27814 341.27814 572.5594 342.075Q571.85626 342.85626 570.8094 342.85626Q569.7625 342.85626 569.075 342.09064Q568.3875 341.3094 568.3875 339.7469ZM570.825 337.7625Q570.3094 337.7625 569.95 338.21564Q569.60626 338.66876 569.60626 339.8875Q569.60626 340.98126 569.95 341.4344Q570.3094 341.8875 570.825 341.8875Q571.35626 341.8875 571.7 341.4344Q572.0594 340.98126 572.0594 339.77814Q572.0594 338.66876 571.7 338.21564Q571.35626 337.7625 570.825 337.7625ZM570.84064 348.8719L577.10626 336.79376L578.2469 336.79376L571.9969 348.8719L570.84064 348.8719ZM575.79376 345.7625Q575.79376 344.52814 576.40314 343.66876Q577.02814 342.8094 578.2 342.8094Q579.27814 342.8094 579.98126 343.59064Q580.7 344.35626 580.7 345.84064Q580.7 347.29376 579.98126 348.09064Q579.2625 348.8719 578.21564 348.8719Q577.16876 348.8719 576.48126 348.09064Q575.79376 347.3094 575.79376 345.7625ZM578.2469 343.77814Q577.71564 343.77814 577.35626 344.23126Q577.0125 344.6844 577.0125 345.90314Q577.0125 346.9969 577.35626 347.45Q577.71564 347.90314 578.23126 347.90314Q578.77814 347.90314 579.1219 347.45Q579.46564 346.9969 579.46564 345.79376Q579.46564 344.6844 579.10626 344.23126Q578.7625 343.77814 578.2469 343.77814Z" fill-rule="nonzero"/><path stroke="#757575" stroke-width="1.0" stroke-linecap="butt" d="M581.45 331.95L454.76666 331.95L356.97275 333.01935" fill-rule="nonzero"/><path fill="#9e9e9e" d="M358.97275 333.01935C358.97275 331.91476 358.07733 331.01935 356.97275 331.01935C355.8682 331.01935 354.97275 331.91476 354.97275 333.01935C354.97275 334.1239 355.8682 335.01935 356.97275 335.01935C358.07733 335.01935 358.97275 334.1239 358.97275 333.01935" fill-rule="nonzero"/><path fill="#f3f3f3" d="M265.98438 37.55L265.98438 23.2375L268.84375 23.2375L272.21875 33.3625Q272.6875 34.784374 272.90625 35.4875Q273.15625 34.70625 273.67188 33.190624L277.09375 23.2375L279.64062 23.2375L279.64062 37.55L277.82812 37.55L277.82812 25.565624L273.65625 37.55L271.95312 37.55L267.8125 25.3625L267.8125 37.55L265.98438 37.55ZM289.92188 34.20625L291.73438 34.440624Q291.3125 36.01875 290.14062 36.909374Q288.98438 37.784374 287.17188 37.784374Q284.90625 37.784374 283.5625 36.39375Q282.23438 34.9875 282.23438 32.45625Q282.23438 29.83125 283.57812 28.39375Q284.92188 26.940624 287.07812 26.940624Q289.15625 26.940624 290.46875 28.3625Q291.79688 29.76875 291.79688 32.346874Q291.79688 32.503124 291.78125 32.815624L284.04688 32.815624Q284.14062 34.51875 285.01562 35.425Q285.89062 36.33125 287.1875 36.33125Q288.15625 36.33125 288.82812 35.83125Q289.51562 35.315624 289.92188 34.20625ZM284.14062 31.3625L289.9375 31.3625Q289.82812 30.065624 289.28125 29.409374Q288.4375 28.39375 287.09375 28.39375Q285.89062 28.39375 285.0625 29.20625Q284.23438 30.003124 284.14062 31.3625ZM300.54688 37.55L300.54688 36.2375Q299.5625 37.784374 297.64062 37.784374Q296.40625 37.784374 295.35938 37.096874Q294.32812 36.409374 293.75 35.190624Q293.1875 33.971874 293.1875 32.378124Q293.1875 30.815624 293.70312 29.55Q294.21875 28.284374 295.25 27.6125Q296.29688 26.940624 297.5625 26.940624Q298.5 26.940624 299.23438 27.346874Q299.96875 27.7375 300.4375 28.3625L300.4375 23.2375L302.17188 23.2375L302.17188 37.55L300.54688 37.55ZM294.98438 32.378124Q294.98438 34.3625 295.82812 35.346874Q296.67188 36.33125 297.8125 36.33125Q298.96875 36.33125 299.76562 35.39375Q300.57812 34.45625 300.57812 32.51875Q300.57812 30.39375 299.75 29.39375Q298.9375 28.39375 297.73438 28.39375Q296.5625 28.39375 295.76562 29.3625Q294.98438 30.315624 294.98438 32.378124ZM304.82812 25.253124L304.82812 23.2375L306.59375 23.2375L306.59375 25.253124L304.82812 25.253124ZM304.82812 37.55L304.82812 27.175L306.59375 27.175L306.59375 37.55L304.82812 37.55ZM315.60938 37.55L315.60938 36.01875Q314.40625 37.784374 312.32812 37.784374Q311.40625 37.784374 310.60938 37.440624Q309.8125 37.08125 309.42188 36.55Q309.04688 36.01875 308.89062 35.2375Q308.78125 34.721874 308.78125 33.596874L308.78125 27.175L310.53125 27.175L310.53125 32.925Q310.53125 34.3 310.64062 34.784374Q310.8125 35.471874 311.34375 35.878124Q311.89062 36.26875 312.67188 36.26875Q313.46875 36.26875 314.15625 35.8625Q314.85938 35.45625 315.14062 34.76875Q315.4375 34.065624 315.4375 32.7375L315.4375 27.175L317.1875 27.175L317.1875 37.55L315.60938 37.55ZM319.8125 37.55L319.8125 27.175L321.39062 27.175L321.39062 28.628124Q321.875 27.878124 322.6875 27.409374Q323.5 26.940624 324.53125 26.940624Q325.6875 26.940624 326.42188 27.425Q327.15625 27.89375 327.46875 28.753124Q328.70312 26.940624 330.67188 26.940624Q332.21875 26.940624 333.04688 27.8Q333.875 28.659374 333.875 30.425L333.875 37.55L332.125 37.55L332.125 31.01875Q332.125 29.95625 331.95312 29.503124Q331.78125 29.034374 331.32812 28.753124Q330.89062 28.471874 330.28125 28.471874Q329.1875 28.471874 328.45312 29.20625Q327.73438 29.925 327.73438 31.51875L327.73438 37.55L325.98438 37.55L325.98438 30.815624Q325.98438 29.64375 325.54688 29.065624Q325.125 28.471874 324.14062 28.471874Q323.40625 28.471874 322.76562 28.8625Q322.14062 29.253124 321.85938 30.003124Q321.57812 30.753124 321.57812 32.175L321.57812 37.55L319.8125 37.55Z" fill-rule="nonzero"/></svg>