<svg version="1.1" viewBox="0.0 0.0 600.0 371.0" fill="none" stroke="none" stroke-linecap="square" stroke-miterlimit="10" width="600" height="371" xmlns:xlink="http://www.w3.org/1999/xlink" xmlns="http://www.w3.org/2000/svg"><path fill="#ffffff" fill-opacity="0.0" d="M0 0L600.0 0L600.0 371.0L0 371.0L0 0Z" fill-rule="nonzero"/><path fill="#fcef53" d="M300.0 54.916668C345.27335 54.916668 388.08298 75.53269 416.31046 110.92883L329.0776 180.4947C322.02075 171.64568 311.31833 166.49167 300.0 166.49167Z" fill-rule="nonzero"/><path fill="#f5ee58" d="M416.31046 110.92883C446.49127 148.77438 456.3719 198.9376 442.79745 245.40158C429.223 291.86557 393.891 328.81992 348.08282 344.4653L312.0207 238.87883C323.47275 234.96748 332.30576 225.7289 335.69937 214.1129C339.09296 202.4969 336.62283 189.9561 329.0776 180.4947Z" fill-rule="nonzero"/><path fill="#b3ca48" d="M348.08282 344.4653C342.4649 346.38406 336.73715 347.9648 330.93033 349.1991L307.73257 240.06227C309.1843 239.75371 310.6162 239.35852 312.0207 238.87883Z" fill-rule="nonzero"/><path fill="#6190bc" d="M235.45256 337.71747C172.91847 307.60263 139.51859 238.24706 154.96323 170.57964C170.40787 102.91222 230.59239 54.916668 300.0 54.916668L300.0 166.49167C282.6481 166.49167 267.60196 178.49055 263.7408 195.40741C259.87964 212.32426 268.2296 229.66316 283.86313 237.19186Z" fill-rule="nonzero"/><path fill="#78b2c0" d="M330.93033 349.1991C298.71094 356.04755 265.12973 352.00925 235.45256 337.71747L283.86313 237.19186C291.28244 240.76482 299.67773 241.77438 307.73257 240.06227Z" fill-rule="nonzero"/><path fill="#ffffff" d="M327.28397 114.495476L325.70584 114.495476L325.70584 104.41735Q325.12772 104.964226 324.20584 105.5111Q323.28397 106.04235 322.53397 106.3236L322.53397 104.79235Q323.8621 104.16735 324.8621 103.276726Q325.8621 102.3861 326.26834 101.557976L327.28397 101.557976L327.28397 114.495476ZM336.39334 114.495476L336.39334 111.41735L330.81522 111.41735L330.81522 109.964226L336.69022 101.60485L337.9871 101.60485L337.9871 109.964226L339.72147 109.964226L339.72147 111.41735L337.9871 111.41735L337.9871 114.495476L336.39334 114.495476ZM336.39334 109.964226L336.39334 104.151726L332.3621 109.964226L336.39334 109.964226ZM342.22147 114.495476L342.22147 112.6986L344.01834 112.6986L344.01834 114.495476L342.22147 114.495476ZM346.33084 111.089226L347.9246 110.8861Q348.19022 112.22985 348.84647 112.8236Q349.50272 113.41735 350.44022 113.41735Q351.56522 113.41735 352.33084 112.651726Q353.09647 111.870476 353.09647 110.72985Q353.09647 109.6361 352.37772 108.932976Q351.6746 108.214226 350.58084 108.214226Q350.12772 108.214226 349.45584 108.401726L349.62772 107.0111Q349.78397 107.026726 349.89334 107.026726Q350.89334 107.026726 351.70584 106.495476Q352.51834 105.964226 352.51834 104.870476Q352.51834 103.995476 351.9246 103.432976Q351.33084 102.85485 350.40897 102.85485Q349.4871 102.85485 348.8621 103.432976Q348.25272 104.0111 348.08084 105.182976L346.50272 104.901726Q346.78397 103.307976 347.81522 102.432976Q348.84647 101.557976 350.37772 101.557976Q351.4246 101.557976 352.31522 102.0111Q353.20584 102.464226 353.6746 103.245476Q354.14334 104.026726 354.14334 104.901726Q354.14334 105.745476 353.69022 106.432976Q353.25272 107.10485 352.3621 107.5111Q353.50272 107.776726 354.12772 108.620476Q354.76834 109.4486 354.76834 110.682976Q354.76834 112.370476 353.53397 113.557976Q352.31522 114.72985 350.44022 114.72985Q348.7371 114.72985 347.6121 113.714226Q346.50272 112.6986 346.33084 111.089226ZM356.62772 104.6986Q356.62772 103.3236 357.31522 102.35485Q358.01834 101.3861 359.33084 101.3861Q360.5496 101.3861 361.34647 102.2611Q362.14334 103.120476 362.14334 104.807976Q362.14334 106.432976 361.33084 107.3236Q360.53397 108.1986 359.34647 108.1986Q358.19022 108.1986 357.40897 107.339226Q356.62772 106.464226 356.62772 104.6986ZM359.37772 102.47985Q358.78397 102.47985 358.39334 102.995476Q358.00272 103.495476 358.00272 104.85485Q358.00272 106.10485 358.39334 106.60485Q358.7996 107.10485 359.37772 107.10485Q359.97147 107.10485 360.3621 106.60485Q360.75272 106.089226 360.75272 104.745476Q360.75272 103.495476 360.3621 102.995476Q359.97147 102.47985 359.37772 102.47985ZM359.39334 114.964226L366.44022 101.3861L367.72147 101.3861L360.69022 114.964226L359.39334 114.964226ZM364.95584 111.464226Q364.95584 110.089226 365.64334 109.120476Q366.34647 108.151726 367.6746 108.151726Q368.89334 108.151726 369.6746 109.026726Q370.47147 109.8861 370.47147 111.5736Q370.47147 113.1986 369.6746 114.089226Q368.87772 114.964226 367.69022 114.964226Q366.51834 114.964226 365.7371 114.089226Q364.95584 113.214226 364.95584 111.464226ZM367.72147 109.245476Q367.12772 109.245476 366.7371 109.7611Q366.34647 110.2611 366.34647 111.6361Q366.34647 112.85485 366.7371 113.370476Q367.12772 113.8861 367.70584 113.8861Q368.31522 113.8861 368.70584 113.370476Q369.09647 112.85485 369.09647 111.5111Q369.09647 110.2611 368.70584 109.7611Q368.31522 109.245476 367.72147 109.245476Z" fill-rule="nonzero"/><path fill="#ffffff" d="M373.46594 235.47086L375.0597 235.26773Q375.32532 236.61148 375.98157 237.20523Q376.63782 237.79898 377.57532 237.79898Q378.70032 237.79898 379.46594 237.03336Q380.23157 236.2521 380.23157 235.11148Q380.23157 234.01773 379.51282 233.3146Q378.8097 232.59586 377.71594 232.59586Q377.26282 232.59586 376.59094 232.78336L376.76282 231.39273Q376.91907 231.40836 377.02844 231.40836Q378.02844 231.40836 378.84094 230.8771Q379.65344 230.34586 379.65344 229.2521Q379.65344 228.3771 379.0597 227.8146Q378.46594 227.23648 377.54407 227.23648Q376.6222 227.23648 375.9972 227.8146Q375.38782 228.39273 375.21594 229.5646L373.63782 229.28336Q373.91907 227.6896 374.95032 226.8146Q375.98157 225.9396 377.51282 225.9396Q378.5597 225.9396 379.45032 226.39273Q380.34094 226.84586 380.8097 227.6271Q381.27844 228.40836 381.27844 229.28336Q381.27844 230.1271 380.82532 230.8146Q380.38782 231.48648 379.4972 231.89273Q380.63782 232.15836 381.26282 233.0021Q381.90344 233.83023 381.90344 235.0646Q381.90344 236.7521 380.66907 237.9396Q379.45032 239.11148 377.57532 239.11148Q375.8722 239.11148 374.7472 238.09586Q373.63782 237.08023 373.46594 235.47086ZM383.46594 232.51773Q383.46594 230.23648 383.9347 228.84586Q384.40344 227.45523 385.32532 226.70523Q386.26282 225.9396 387.66907 225.9396Q388.70032 225.9396 389.48157 226.36148Q390.26282 226.76773 390.76282 227.5646Q391.27844 228.34586 391.57532 229.48648Q391.8722 230.61148 391.8722 232.51773Q391.8722 234.78336 391.40344 236.1896Q390.9347 237.58023 389.9972 238.34586Q389.07532 239.09586 387.66907 239.09586Q385.79407 239.09586 384.73157 237.76773Q383.46594 236.15836 383.46594 232.51773ZM385.09094 232.51773Q385.09094 235.6896 385.82532 236.7521Q386.57532 237.79898 387.66907 237.79898Q388.7472 237.79898 389.4972 236.7521Q390.2472 235.6896 390.2472 232.51773Q390.2472 229.34586 389.4972 228.29898Q388.7472 227.2521 387.65344 227.2521Q386.5597 227.2521 385.90344 228.17398Q385.09094 229.34586 385.09094 232.51773ZM394.35657 238.8771L394.35657 237.08023L396.15344 237.08023L396.15344 238.8771L394.35657 238.8771ZM398.46594 235.5021L400.1222 235.36148Q400.3097 236.58023 400.98157 237.1896Q401.65344 237.79898 402.60657 237.79898Q403.7472 237.79898 404.52844 236.9396Q405.32532 236.08023 405.32532 234.64273Q405.32532 233.29898 404.5597 232.51773Q403.8097 231.73648 402.57532 231.73648Q401.8097 231.73648 401.1847 232.08023Q400.57532 232.42398 400.23157 232.98648L398.7472 232.78336L399.9972 226.17398L406.40344 226.17398L406.40344 227.67398L401.26282 227.67398L400.5597 231.14273Q401.73157 230.33023 402.9972 230.33023Q404.6847 230.33023 405.84094 231.5021Q407.01282 232.67398 407.01282 234.5021Q407.01282 236.2521 405.98157 237.53336Q404.7472 239.09586 402.60657 239.09586Q400.84094 239.09586 399.73157 238.11148Q398.6222 237.1271 398.46594 235.5021ZM408.76282 229.08023Q408.76282 227.70523 409.45032 226.73648Q410.15344 225.76773 411.46594 225.76773Q412.6847 225.76773 413.48157 226.64273Q414.27844 227.5021 414.27844 229.1896Q414.27844 230.8146 413.46594 231.70523Q412.66907 232.58023 411.48157 232.58023Q410.32532 232.58023 409.54407 231.72086Q408.76282 230.84586 408.76282 229.08023ZM411.51282 226.86148Q410.91907 226.86148 410.52844 227.3771Q410.13782 227.8771 410.13782 229.23648Q410.13782 230.48648 410.52844 230.98648Q410.9347 231.48648 411.51282 231.48648Q412.10657 231.48648 412.4972 230.98648Q412.88782 230.47086 412.88782 229.1271Q412.88782 227.8771 412.4972 227.3771Q412.10657 226.86148 411.51282 226.86148ZM411.52844 239.34586L418.57532 225.76773L419.85657 225.76773L412.82532 239.34586L411.52844 239.34586ZM417.09094 235.84586Q417.09094 234.47086 417.77844 233.5021Q418.48157 232.53336 419.8097 232.53336Q421.02844 232.53336 421.8097 233.40836Q422.60657 234.26773 422.60657 235.95523Q422.60657 237.58023 421.8097 238.47086Q421.01282 239.34586 419.82532 239.34586Q418.65344 239.34586 417.8722 238.47086Q417.09094 237.59586 417.09094 235.84586ZM419.85657 233.6271Q419.26282 233.6271 418.8722 234.14273Q418.48157 234.64273 418.48157 236.01773Q418.48157 237.23648 418.8722 237.7521Q419.26282 238.26773 419.84094 238.26773Q420.45032 238.26773 420.84094 237.7521Q421.23157 237.23648 421.23157 235.89273Q421.23157 234.64273 420.84094 234.14273Q420.45032 233.6271 419.85657 233.6271Z" fill-rule="nonzero"/><path fill="#ffffff" d="M267.58487 323.4287L266.00674 323.4287L266.00674 313.3506Q265.42862 313.89746 264.50674 314.44434Q263.58487 314.9756 262.83487 315.25684L262.83487 313.7256Q264.163 313.1006 265.163 312.20996Q266.163 311.31934 266.56924 310.4912L267.58487 310.4912L267.58487 323.4287ZM271.63174 317.06934Q271.63174 314.7881 272.1005 313.39746Q272.56924 312.00684 273.49112 311.25684Q274.42862 310.4912 275.83487 310.4912Q276.86612 310.4912 277.64737 310.9131Q278.42862 311.31934 278.92862 312.1162Q279.44424 312.89746 279.74112 314.0381Q280.038 315.1631 280.038 317.06934Q280.038 319.33496 279.56924 320.7412Q279.1005 322.13184 278.163 322.89746Q277.24112 323.64746 275.83487 323.64746Q273.95987 323.64746 272.89737 322.31934Q271.63174 320.70996 271.63174 317.06934ZM273.25674 317.06934Q273.25674 320.2412 273.99112 321.3037Q274.74112 322.3506 275.83487 322.3506Q276.913 322.3506 277.663 321.3037Q278.413 320.2412 278.413 317.06934Q278.413 313.89746 277.663 312.8506Q276.913 311.8037 275.81924 311.8037Q274.7255 311.8037 274.06924 312.7256Q273.25674 313.89746 273.25674 317.06934ZM282.52237 323.4287L282.52237 321.63184L284.31924 321.63184L284.31924 323.4287L282.52237 323.4287ZM286.63174 320.0537L288.288 319.9131Q288.4755 321.13184 289.14737 321.7412Q289.81924 322.3506 290.77237 322.3506Q291.913 322.3506 292.69424 321.4912Q293.49112 320.63184 293.49112 319.19434Q293.49112 317.8506 292.7255 317.06934Q291.9755 316.2881 290.74112 316.2881Q289.9755 316.2881 289.3505 316.63184Q288.74112 316.9756 288.39737 317.5381L286.913 317.33496L288.163 310.7256L294.56924 310.7256L294.56924 312.2256L289.42862 312.2256L288.7255 315.69434Q289.89737 314.88184 291.163 314.88184Q292.8505 314.88184 294.00674 316.0537Q295.17862 317.2256 295.17862 319.0537Q295.17862 320.8037 294.14737 322.08496Q292.913 323.64746 290.77237 323.64746Q289.00674 323.64746 287.89737 322.6631Q286.788 321.6787 286.63174 320.0537ZM296.92862 313.63184Q296.92862 312.25684 297.61612 311.2881Q298.31924 310.31934 299.63174 310.31934Q300.8505 310.31934 301.64737 311.19434Q302.44424 312.0537 302.44424 313.7412Q302.44424 315.3662 301.63174 316.25684Q300.83487 317.13184 299.64737 317.13184Q298.49112 317.13184 297.70987 316.27246Q296.92862 315.39746 296.92862 313.63184ZM299.67862 311.4131Q299.08487 311.4131 298.69424 311.9287Q298.30362 312.4287 298.30362 313.7881Q298.30362 315.0381 298.69424 315.5381Q299.1005 316.0381 299.67862 316.0381Q300.27237 316.0381 300.663 315.5381Q301.05362 315.02246 301.05362 313.6787Q301.05362 312.4287 300.663 311.9287Q300.27237 311.4131 299.67862 311.4131ZM299.69424 323.89746L306.74112 310.31934L308.02237 310.31934L300.99112 323.89746L299.69424 323.89746ZM305.25674 320.39746Q305.25674 319.02246 305.94424 318.0537Q306.64737 317.08496 307.9755 317.08496Q309.19424 317.08496 309.9755 317.95996Q310.77237 318.81934 310.77237 320.50684Q310.77237 322.13184 309.9755 323.02246Q309.17862 323.89746 307.99112 323.89746Q306.81924 323.89746 306.038 323.02246Q305.25674 322.14746 305.25674 320.39746ZM308.02237 318.1787Q307.42862 318.1787 307.038 318.69434Q306.64737 319.19434 306.64737 320.56934Q306.64737 321.7881 307.038 322.3037Q307.42862 322.81934 308.00674 322.81934Q308.61612 322.81934 309.00674 322.3037Q309.39737 321.7881 309.39737 320.44434Q309.39737 319.19434 309.00674 318.69434Q308.61612 318.1787 308.02237 318.1787Z" fill-rule="nonzero"/><path fill="#ffffff" d="M179.97409 187.28175L179.97409 184.20363L174.39597 184.20363L174.39597 182.7505L180.27097 174.39113L181.56784 174.39113L181.56784 182.7505L183.30222 182.7505L183.30222 184.20363L181.56784 184.20363L181.56784 187.28175L179.97409 187.28175ZM179.97409 182.7505L179.97409 176.938L175.94284 182.7505L179.97409 182.7505ZM193.22409 185.76613L193.22409 187.28175L184.70847 187.28175Q184.69284 186.70363 184.89597 186.188Q185.22409 185.313 185.92722 184.46925Q186.64597 183.6255 188.00534 182.51613Q190.09909 180.79738 190.83347 179.79738Q191.58347 178.78175 191.58347 177.89113Q191.58347 176.938 190.91159 176.29738Q190.23972 175.65675 189.16159 175.65675Q188.00534 175.65675 187.31784 176.34425Q186.64597 177.03175 186.63034 178.23488L185.00534 178.063Q185.17722 176.2505 186.25534 175.29738Q187.34909 174.34425 189.19284 174.34425Q191.03659 174.34425 192.11472 175.3755Q193.20847 176.40675 193.20847 177.92238Q193.20847 178.688 192.88034 179.438Q192.56784 180.188 191.83347 181.01613Q191.09909 181.84425 189.39597 183.28175Q187.97409 184.48488 187.56784 184.90675Q187.16159 185.32863 186.91159 185.76613L193.22409 185.76613ZM195.80222 187.28175L195.80222 185.48488L197.59909 185.48488L197.59909 187.28175L195.80222 187.28175ZM200.14597 184.29738L201.66159 184.15675Q201.86472 185.23488 202.39597 185.71925Q202.94284 186.20363 203.80222 186.20363Q204.53659 186.20363 205.08347 185.8755Q205.63034 185.53175 205.97409 184.98488Q206.33347 184.42238 206.56784 183.46925Q206.80222 182.51613 206.80222 181.53175Q206.80222 181.42238 206.80222 181.21925Q206.31784 181.96925 205.48972 182.438Q204.67722 182.90675 203.72409 182.90675Q202.13034 182.90675 201.02097 181.7505Q199.91159 180.59425 199.91159 178.688Q199.91159 176.73488 201.06784 175.54738Q202.22409 174.34425 203.95847 174.34425Q205.22409 174.34425 206.25534 175.03175Q207.30222 175.70363 207.83347 176.95363Q208.38034 178.20363 208.38034 180.57863Q208.38034 183.04738 207.83347 184.51613Q207.30222 185.96925 206.23972 186.73488Q205.19284 187.5005 203.77097 187.5005Q202.25534 187.5005 201.28659 186.67238Q200.33347 185.82863 200.14597 184.29738ZM206.63034 178.60988Q206.63034 177.2505 205.89597 176.45363Q205.17722 175.65675 204.16159 175.65675Q203.09909 175.65675 202.31784 176.51613Q201.53659 177.3755 201.53659 178.7505Q201.53659 179.98488 202.27097 180.7505Q203.02097 181.51613 204.11472 181.51613Q205.20847 181.51613 205.91159 180.7505Q206.63034 179.98488 206.63034 178.60988ZM210.20847 177.48488Q210.20847 176.10988 210.89597 175.14113Q211.59909 174.17238 212.91159 174.17238Q214.13034 174.17238 214.92722 175.04738Q215.72409 175.90675 215.72409 177.59425Q215.72409 179.21925 214.91159 180.10988Q214.11472 180.98488 212.92722 180.98488Q211.77097 180.98488 210.98972 180.1255Q210.20847 179.2505 210.20847 177.48488ZM212.95847 175.26613Q212.36472 175.26613 211.97409 175.78175Q211.58347 176.28175 211.58347 177.64113Q211.58347 178.89113 211.97409 179.39113Q212.38034 179.89113 212.95847 179.89113Q213.55222 179.89113 213.94284 179.39113Q214.33347 178.8755 214.33347 177.53175Q214.33347 176.28175 213.94284 175.78175Q213.55222 175.26613 212.95847 175.26613ZM212.97409 187.7505L220.02097 174.17238L221.30222 174.17238L214.27097 187.7505L212.97409 187.7505ZM218.53659 184.2505Q218.53659 182.8755 219.22409 181.90675Q219.92722 180.938 221.25534 180.938Q222.47409 180.938 223.25534 181.813Q224.05222 182.67238 224.05222 184.35988Q224.05222 185.98488 223.25534 186.8755Q222.45847 187.7505 221.27097 187.7505Q220.09909 187.7505 219.31784 186.8755Q218.53659 186.0005 218.53659 184.2505ZM221.30222 182.03175Q220.70847 182.03175 220.31784 182.54738Q219.92722 183.04738 219.92722 184.42238Q219.92722 185.64113 220.31784 186.15675Q220.70847 186.67238 221.28659 186.67238Q221.89597 186.67238 222.28659 186.15675Q222.67722 185.64113 222.67722 184.29738Q222.67722 183.04738 222.28659 182.54738Q221.89597 182.03175 221.30222 182.03175Z" fill-rule="nonzero"/><path stroke="#ffffff" stroke-width="1.0" stroke-linejoin="round" stroke-linecap="round" d="M329.0776 180.4947C322.02075 171.64568 311.31833 166.49167 300.0 166.49167L300.0 54.916668C345.27335 54.916668 388.08298 75.53269 416.31046 110.92883" fill-rule="nonzero"/><path stroke="#ffffff" stroke-width="1.0" stroke-linejoin="round" stroke-linecap="round" d="M312.0207 238.87883C323.47275 234.96748 332.30576 225.7289 335.69937 214.1129C339.09296 202.4969 336.62283 189.9561 329.0776 180.4947L416.31046 110.92883C446.49127 148.77438 456.3719 198.9376 442.79745 245.40158C429.223 291.86557 393.891 328.81992 348.08282 344.4653" fill-rule="nonzero"/><path stroke="#ffffff" stroke-width="1.0" stroke-linejoin="round" stroke-linecap="round" d="M307.73257 240.06227C309.1843 239.75371 310.6162 239.35852 312.0207 238.87883L348.08282 344.4653C342.4649 346.38406 336.73715 347.9648 330.93033 349.1991" fill-rule="nonzero"/><path stroke="#ffffff" stroke-width="1.0" stroke-linejoin="round" stroke-linecap="round" d="M283.86313 237.19186C291.28244 240.76482 299.67773 241.77438 307.73257 240.06227L330.93033 349.1991C298.71094 356.04755 265.12973 352.00925 235.45256 337.71747" fill-rule="nonzero"/><path stroke="#ffffff" stroke-width="1.0" stroke-linejoin="round" stroke-linecap="round" d="M300.0 166.49167C282.6481 166.49167 267.60196 178.49055 263.7408 195.40741C259.87964 212.32426 268.2296 229.66316 283.86313 237.19186L235.45256 337.71747C172.91847 307.60263 139.51859 238.24706 154.96323 170.57964C170.40787 102.91222 230.59239 54.916668 300.0 54.916668" fill-rule="nonzero"/><path fill="#efefef" d="M27.3 155.2817L28.815624 155.2817L28.815624 161.89107Q28.815624 163.62544 28.425 164.64107Q28.034374 165.6567 27.01875 166.29732Q26.003124 166.93794 24.346874 166.93794Q22.7375 166.93794 21.70625 166.37544Q20.690624 165.81294 20.253124 164.76607Q19.815624 163.7192 19.815624 161.89107L19.815624 155.2817L21.33125 155.2817L21.33125 161.89107Q21.33125 163.37544 21.596874 164.0942Q21.878124 164.79732 22.55 165.18794Q23.2375 165.56294 24.20625 165.56294Q25.878124 165.56294 26.58125 164.81294Q27.3 164.04732 27.3 161.89107L27.3 155.2817ZM31.596874 166.73482L31.596874 158.43794L32.8625 158.43794L32.8625 159.68794Q33.346874 158.81294 33.753124 158.5317Q34.159374 158.25044 34.659374 158.25044Q35.3625 158.25044 36.096874 158.70357L35.6125 160.00044Q35.096874 159.70357 34.58125 159.70357Q34.128124 159.70357 33.753124 159.98482Q33.39375 160.25044 33.2375 160.75044Q33.003124 161.50044 33.003124 162.39107L33.003124 166.73482L31.596874 166.73482ZM37.909374 166.73482L36.596874 166.73482L36.596874 155.2817L38.003124 155.2817L38.003124 159.35982Q38.89375 158.25044 40.284374 158.25044Q41.05 158.25044 41.721874 158.56294Q42.409374 158.85982 42.846874 159.42232Q43.3 159.98482 43.55 160.7817Q43.8 161.56294 43.8 162.45357Q43.8 164.5942 42.7375 165.76607Q41.690624 166.92232 40.20625 166.92232Q38.7375 166.92232 37.909374 165.68794L37.909374 166.73482ZM37.89375 162.51607Q37.89375 164.01607 38.3 164.67232Q38.95625 165.76607 40.096874 165.76607Q41.01875 165.76607 41.690624 164.9692Q42.3625 164.1567 42.3625 162.57857Q42.3625 160.95357 41.70625 160.18794Q41.065624 159.4067 40.159374 159.4067Q39.2375 159.4067 38.565624 160.20357Q37.89375 161.00044 37.89375 162.51607ZM51.01875 165.70357Q50.2375 166.37544 49.51875 166.6567Q48.8 166.92232 47.971874 166.92232Q46.596874 166.92232 45.8625 166.25044Q45.128124 165.57857 45.128124 164.54732Q45.128124 163.93794 45.409374 163.43794Q45.690624 162.92232 46.128124 162.62544Q46.58125 162.31294 47.14375 162.1567Q47.565624 162.04732 48.39375 161.95357Q50.096874 161.75044 50.909374 161.4692Q50.909374 161.17232 50.909374 161.0942Q50.909374 160.23482 50.51875 159.89107Q49.971874 159.4067 48.909374 159.4067Q47.925 159.4067 47.440624 159.76607Q46.971874 160.10982 46.753124 160.98482L45.378124 160.79732Q45.565624 159.92232 45.9875 159.37544Q46.425 158.82857 47.2375 158.54732Q48.05 158.25044 49.1125 158.25044Q50.175 158.25044 50.83125 158.50044Q51.503124 158.75044 51.815624 159.12544Q52.128124 159.50044 52.253124 160.07857Q52.33125 160.43794 52.33125 161.37544L52.33125 163.25044Q52.33125 165.2192 52.409374 165.73482Q52.503124 166.25044 52.76875 166.73482L51.3 166.73482Q51.08125 166.29732 51.01875 165.70357ZM50.909374 162.56294Q50.14375 162.87544 48.6125 163.0942Q47.7375 163.2192 47.378124 163.37544Q47.01875 163.5317 46.815624 163.8442Q46.628124 164.14107 46.628124 164.50044Q46.628124 165.06294 47.05 165.43794Q47.4875 165.81294 48.3 165.81294Q49.1125 165.81294 49.7375 165.4692Q50.378124 165.10982 50.675 164.48482Q50.909374 164.01607 50.909374 163.07857L50.909374 162.56294ZM54.6125 166.73482L54.6125 158.43794L55.878124 158.43794L55.878124 159.60982Q56.784374 158.25044 58.51875 158.25044Q59.26875 158.25044 59.89375 158.51607Q60.51875 158.7817 60.83125 159.2192Q61.14375 159.6567 61.26875 160.26607Q61.346874 160.6567 61.346874 161.62544L61.346874 166.73482L59.940624 166.73482L59.940624 161.68794Q59.940624 160.82857 59.76875 160.4067Q59.6125 159.9692 59.190624 159.7192Q58.784374 159.4692 58.221874 159.4692Q57.315624 159.4692 56.659374 160.04732Q56.01875 160.60982 56.01875 162.20357L56.01875 166.73482L54.6125 166.73482ZM63.05 164.25044L64.44063 164.0317Q64.55 164.87544 65.08125 165.32857Q65.62813 165.76607 66.58125 165.76607Q67.55 165.76607 68.01875 165.37544Q68.4875 164.9692 68.4875 164.43794Q68.4875 163.9692 68.08125 163.68794Q67.78438 163.50044 66.64375 163.2192Q65.09688 162.82857 64.4875 162.54732Q63.89375 162.25044 63.58125 161.75044Q63.284374 161.25044 63.284374 160.64107Q63.284374 160.07857 63.534374 159.60982Q63.784374 159.14107 64.22188 158.82857Q64.55 158.57857 65.1125 158.42232Q65.69063 158.25044 66.33125 158.25044Q67.31563 158.25044 68.05 158.5317Q68.78438 158.81294 69.12813 159.29732Q69.4875 159.76607 69.62813 160.57857L68.25313 160.76607Q68.15938 160.12544 67.70625 159.76607Q67.25313 159.4067 66.44063 159.4067Q65.47188 159.4067 65.05 159.73482Q64.64375 160.04732 64.64375 160.4692Q64.64375 160.75044 64.81563 160.9692Q64.9875 161.18794 65.34688 161.3442Q65.56563 161.42232 66.59688 161.70357Q68.08125 162.0942 68.675 162.35982Q69.26875 162.60982 69.59688 163.0942Q69.94063 163.57857 69.94063 164.29732Q69.94063 165.00044 69.51875 165.62544Q69.1125 166.23482 68.33125 166.57857Q67.56563 166.92232 66.59688 166.92232Q64.97188 166.92232 64.12813 166.25044Q63.284374 165.57857 63.05 164.25044ZM77.01875 163.68794L78.40938 163.87544Q78.175 165.29732 77.2375 166.10982Q76.31563 166.92232 74.95625 166.92232Q73.25313 166.92232 72.20625 165.81294Q71.175 164.68794 71.175 162.60982Q71.175 161.26607 71.6125 160.26607Q72.06563 159.25044 72.97188 158.75044Q73.89375 158.25044 74.95625 158.25044Q76.31563 158.25044 77.175 158.93794Q78.03438 159.60982 78.26875 160.87544L76.90938 161.07857Q76.70625 160.25044 76.20625 159.82857Q75.72188 159.4067 75.01875 159.4067Q73.95625 159.4067 73.28438 160.17232Q72.62813 160.92232 72.62813 162.57857Q72.62813 164.25044 73.26875 165.01607Q73.90938 165.76607 74.94063 165.76607Q75.76875 165.76607 76.31563 165.26607Q76.87813 164.75044 77.01875 163.68794ZM85.01875 165.70357Q84.2375 166.37544 83.51875 166.6567Q82.8 166.92232 81.97188 166.92232Q80.59688 166.92232 79.8625 166.25044Q79.12813 165.57857 79.12813 164.54732Q79.12813 163.93794 79.40938 163.43794Q79.69063 162.92232 80.12813 162.62544Q80.58125 162.31294 81.14375 162.1567Q81.56563 162.04732 82.39375 161.95357Q84.09688 161.75044 84.90938 161.4692Q84.90938 161.17232 84.90938 161.0942Q84.90938 160.23482 84.51875 159.89107Q83.97188 159.4067 82.90938 159.4067Q81.925 159.4067 81.44063 159.76607Q80.97188 160.10982 80.75313 160.98482L79.37813 160.79732Q79.56563 159.92232 79.9875 159.37544Q80.425 158.82857 81.2375 158.54732Q82.05 158.25044 83.1125 158.25044Q84.175 158.25044 84.83125 158.50044Q85.50313 158.75044 85.81563 159.12544Q86.12813 159.50044 86.25313 160.07857Q86.33125 160.43794 86.33125 161.37544L86.33125 163.25044Q86.33125 165.2192 86.40938 165.73482Q86.50313 166.25044 86.76875 166.73482L85.3 166.73482Q85.08125 166.29732 85.01875 165.70357ZM84.90938 162.56294Q84.14375 162.87544 82.6125 163.0942Q81.7375 163.2192 81.37813 163.37544Q81.01875 163.5317 80.81563 163.8442Q80.62813 164.14107 80.62813 164.50044Q80.62813 165.06294 81.05 165.43794Q81.4875 165.81294 82.3 165.81294Q83.1125 165.81294 83.7375 165.4692Q84.37813 165.10982 84.675 164.48482Q84.90938 164.01607 84.90938 163.07857L84.90938 162.56294ZM88.6125 169.92232L88.6125 158.43794L89.89375 158.43794L89.89375 159.51607Q90.34688 158.87544 90.90938 158.56294Q91.4875 158.25044 92.3 158.25044Q93.3625 158.25044 94.175 158.79732Q94.9875 159.3442 95.39375 160.3442Q95.81563 161.32857 95.81563 162.51607Q95.81563 163.79732 95.34688 164.81294Q94.89375 165.82857 94.01875 166.37544Q93.15938 166.92232 92.19063 166.92232Q91.4875 166.92232 90.925 166.62544Q90.37813 166.32857 90.01875 165.87544L90.01875 169.92232L88.6125 169.92232ZM89.87813 162.62544Q89.87813 164.23482 90.51875 165.00044Q91.175 165.76607 92.09688 165.76607Q93.03438 165.76607 93.70625 164.9692Q94.37813 164.17232 94.37813 162.51607Q94.37813 160.92232 93.72188 160.14107Q93.06563 159.3442 92.15938 159.3442Q91.26875 159.3442 90.56563 160.18794Q89.87813 161.0317 89.87813 162.62544ZM103.28438 164.06294L104.7375 164.23482Q104.39375 165.51607 103.45625 166.2192Q102.53438 166.92232 101.09688 166.92232Q99.26875 166.92232 98.20625 165.79732Q97.14375 164.67232 97.14375 162.6567Q97.14375 160.56294 98.22188 159.4067Q99.3 158.25044 101.01875 158.25044Q102.675 158.25044 103.72188 159.39107Q104.78438 160.51607 104.78438 162.56294Q104.78438 162.68794 104.78438 162.93794L98.59688 162.93794Q98.675 164.31294 99.3625 165.04732Q100.06563 165.76607 101.09688 165.76607Q101.87813 165.76607 102.425 165.35982Q102.97188 164.95357 103.28438 164.06294ZM98.675 161.7817L103.3 161.7817Q103.20625 160.73482 102.76875 160.2192Q102.09688 159.4067 101.03438 159.4067Q100.06563 159.4067 99.39375 160.06294Q98.7375 160.70357 98.675 161.7817Z" fill-rule="nonzero"/><path fill="#9e9e9e" d="M23.721874 188.73482L23.721874 185.98482L18.753124 185.98482L18.753124 184.70357L23.9875 177.2817L25.128124 177.2817L25.128124 184.70357L26.675 184.70357L26.675 185.98482L25.128124 185.98482L25.128124 188.73482L23.721874 188.73482ZM23.721874 184.70357L23.721874 179.5317L20.14375 184.70357L23.721874 184.70357ZM35.6125 187.37544L35.6125 188.73482L28.034374 188.73482Q28.01875 188.2192 28.20625 187.75044Q28.4875 186.98482 29.128124 186.23482Q29.76875 185.48482 30.971874 184.50044Q32.83125 182.9692 33.4875 182.07857Q34.14375 181.17232 34.14375 180.37544Q34.14375 179.54732 33.55 178.9692Q32.95625 178.39107 31.9875 178.39107Q30.971874 178.39107 30.3625 179.00044Q29.753124 179.60982 29.753124 180.68794L28.3 180.54732Q28.45625 178.92232 29.425 178.07857Q30.39375 177.23482 32.01875 177.23482Q33.675 177.23482 34.628124 178.1567Q35.596874 179.06294 35.596874 180.4067Q35.596874 181.0942 35.315624 181.76607Q35.034374 182.42232 34.378124 183.1567Q33.721874 183.89107 32.20625 185.17232Q30.940624 186.23482 30.58125 186.62544Q30.221874 187.00044 29.9875 187.37544L35.6125 187.37544ZM38.003124 188.73482L38.003124 187.12544L39.6125 187.12544L39.6125 188.73482L38.003124 188.73482ZM41.425 186.07857L42.784374 185.95357Q42.95625 186.9067 43.440624 187.3442Q43.925 187.76607 44.675 187.76607Q45.33125 187.76607 45.815624 187.4692Q46.3 187.17232 46.6125 186.68794Q46.925 186.18794 47.128124 185.3442Q47.346874 184.50044 47.346874 183.62544Q47.346874 183.5317 47.346874 183.3442Q46.925 184.01607 46.190624 184.43794Q45.45625 184.8442 44.6125 184.8442Q43.190624 184.8442 42.20625 183.81294Q41.221874 182.7817 41.221874 181.0942Q41.221874 179.35982 42.2375 178.29732Q43.26875 177.23482 44.815624 177.23482Q45.940624 177.23482 46.8625 177.8442Q47.784374 178.43794 48.26875 179.54732Q48.753124 180.6567 48.753124 182.76607Q48.753124 184.9692 48.26875 186.26607Q47.8 187.56294 46.846874 188.25044Q45.909374 188.93794 44.64375 188.93794Q43.3 188.93794 42.440624 188.18794Q41.596874 187.43794 41.425 186.07857ZM47.190624 181.0317Q47.190624 179.81294 46.534374 179.10982Q45.89375 178.39107 44.9875 178.39107Q44.05 178.39107 43.346874 179.1567Q42.659374 179.92232 42.659374 181.14107Q42.659374 182.23482 43.315624 182.92232Q43.9875 183.60982 44.95625 183.60982Q45.925 183.60982 46.55 182.92232Q47.190624 182.23482 47.190624 181.0317ZM50.4875 180.0317Q50.4875 178.79732 51.096874 177.93794Q51.721874 177.07857 52.89375 177.07857Q53.971874 177.07857 54.675 177.85982Q55.378124 178.62544 55.378124 180.10982Q55.378124 181.56294 54.659374 182.35982Q53.95625 183.14107 52.909374 183.14107Q51.8625 183.14107 51.175 182.37544Q50.4875 181.5942 50.4875 180.0317ZM52.925 178.04732Q52.409374 178.04732 52.05 178.50044Q51.70625 178.95357 51.70625 180.17232Q51.70625 181.26607 52.05 181.7192Q52.409374 182.17232 52.925 182.17232Q53.45625 182.17232 53.8 181.7192Q54.159374 181.26607 54.159374 180.06294Q54.159374 178.95357 53.8 178.50044Q53.45625 178.04732 52.925 178.04732ZM52.940624 189.1567L59.20625 177.07857L60.346874 177.07857L54.096874 189.1567L52.940624 189.1567ZM57.89375 186.04732Q57.89375 184.81294 58.503124 183.95357Q59.128124 183.0942 60.3 183.0942Q61.378124 183.0942 62.08125 183.87544Q62.8 184.64107 62.8 186.12544Q62.8 187.57857 62.08125 188.37544Q61.3625 189.1567 60.315624 189.1567Q59.26875 189.1567 58.58125 188.37544Q57.89375 187.5942 57.89375 186.04732ZM60.346874 184.06294Q59.815624 184.06294 59.45625 184.51607Q59.1125 184.9692 59.1125 186.18794Q59.1125 187.2817 59.45625 187.73482Q59.815624 188.18794 60.33125 188.18794Q60.878124 188.18794 61.221874 187.73482Q61.565624 187.2817 61.565624 186.07857Q61.565624 184.9692 61.20625 184.51607Q60.8625 184.06294 60.346874 184.06294Z" fill-rule="nonzero"/><path stroke="#757575" stroke-width="1.0" stroke-linecap="butt" d="M18.55 172.23482L145.23334 172.23482L162.21506 172.23482" fill-rule="nonzero"/><path fill="#9e9e9e" d="M164.21506 172.23482C164.21506 171.13025 163.31963 170.23482 162.21506 170.23482C161.11049 170.23482 160.21506 171.13025 160.21506 172.23482C160.21506 173.33939 161.11049 174.23482 162.21506 174.23482C163.31963 174.23482 164.21506 173.33939 164.21506 172.23482" fill-rule="nonzero"/><path fill="#efefef" d="M19.76875 326.45L19.76875 314.9969L21.33125 314.9969L27.346874 323.98126L27.346874 314.9969L28.8 314.9969L28.8 326.45L27.2375 326.45L21.221874 317.45L21.221874 326.45L19.76875 326.45ZM37.01875 325.41876Q36.2375 326.09064 35.51875 326.3719Q34.8 326.6375 33.971874 326.6375Q32.596874 326.6375 31.8625 325.96564Q31.128124 325.29376 31.128124 324.2625Q31.128124 323.65314 31.409374 323.15314Q31.690624 322.6375 32.128124 322.34064Q32.58125 322.02814 33.14375 321.8719Q33.565624 321.7625 34.39375 321.66876Q36.096874 321.46564 36.909374 321.1844Q36.909374 320.8875 36.909374 320.8094Q36.909374 319.95 36.51875 319.60626Q35.971874 319.1219 34.909374 319.1219Q33.925 319.1219 33.440624 319.48126Q32.971874 319.825 32.753124 320.7L31.378124 320.5125Q31.565624 319.6375 31.9875 319.09064Q32.425 318.54376 33.2375 318.2625Q34.05 317.96564 35.1125 317.96564Q36.175 317.96564 36.83125 318.21564Q37.503124 318.46564 37.815624 318.84064Q38.128124 319.21564 38.253124 319.79376Q38.33125 320.15314 38.33125 321.09064L38.33125 322.96564Q38.33125 324.9344 38.409374 325.45Q38.503124 325.96564 38.76875 326.45L37.3 326.45Q37.08125 326.0125 37.01875 325.41876ZM36.909374 322.27814Q36.14375 322.59064 34.6125 322.8094Q33.7375 322.9344 33.378124 323.09064Q33.01875 323.2469 32.815624 323.5594Q32.628124 323.85626 32.628124 324.21564Q32.628124 324.77814 33.05 325.15314Q33.4875 325.52814 34.3 325.52814Q35.1125 325.52814 35.7375 325.1844Q36.378124 324.825 36.675 324.2Q36.909374 323.73126 36.909374 322.79376L36.909374 322.27814ZM43.675 325.1844L43.878124 326.4344Q43.284374 326.5594 42.815624 326.5594Q42.05 326.5594 41.628124 326.325Q41.20625 326.075 41.034374 325.6844Q40.8625 325.27814 40.8625 324.0125L40.8625 319.2469L39.83125 319.2469L39.83125 318.15314L40.8625 318.15314L40.8625 316.09064L42.26875 315.2469L42.26875 318.15314L43.675 318.15314L43.675 319.2469L42.26875 319.2469L42.26875 324.09064Q42.26875 324.7 42.33125 324.8719Q42.409374 325.04376 42.58125 325.15314Q42.753124 325.2469 43.065624 325.2469Q43.3 325.2469 43.675 325.1844ZM50.05 326.45L50.05 325.23126Q49.08125 326.6375 47.409374 326.6375Q46.675 326.6375 46.034374 326.35626Q45.409374 326.075 45.096874 325.65314Q44.784374 325.21564 44.659374 324.60626Q44.58125 324.1844 44.58125 323.29376L44.58125 318.15314L45.9875 318.15314L45.9875 322.7469Q45.9875 323.85626 46.065624 324.23126Q46.20625 324.79376 46.628124 325.10626Q47.065624 325.41876 47.690624 325.41876Q48.33125 325.41876 48.878124 325.10626Q49.440624 324.77814 49.659374 324.21564Q49.89375 323.65314 49.89375 322.59064L49.89375 318.15314L51.3 318.15314L51.3 326.45L50.05 326.45ZM53.596874 326.45L53.596874 318.15314L54.8625 318.15314L54.8625 319.40314Q55.346874 318.52814 55.753124 318.2469Q56.159374 317.96564 56.659374 317.96564Q57.3625 317.96564 58.096874 318.41876L57.6125 319.71564Q57.096874 319.41876 56.58125 319.41876Q56.128124 319.41876 55.753124 319.7Q55.39375 319.96564 55.2375 320.46564Q55.003124 321.21564 55.003124 322.10626L55.003124 326.45L53.596874 326.45ZM64.28438 323.77814L65.7375 323.95Q65.39375 325.23126 64.45625 325.9344Q63.534374 326.6375 62.096874 326.6375Q60.26875 326.6375 59.20625 325.5125Q58.14375 324.3875 58.14375 322.3719Q58.14375 320.27814 59.221874 319.1219Q60.3 317.96564 62.01875 317.96564Q63.675 317.96564 64.72188 319.10626Q65.78438 320.23126 65.78438 322.27814Q65.78438 322.40314 65.78438 322.65314L59.596874 322.65314Q59.675 324.02814 60.3625 324.7625Q61.065624 325.48126 62.096874 325.48126Q62.878124 325.48126 63.425 325.075Q63.971874 324.66876 64.28438 323.77814ZM59.675 321.4969L64.3 321.4969Q64.20625 320.45 63.76875 319.9344Q63.096874 319.1219 62.034374 319.1219Q61.065624 319.1219 60.39375 319.77814Q59.7375 320.41876 59.675 321.4969ZM67.05 323.96564L68.44063 323.7469Q68.55 324.59064 69.08125 325.04376Q69.62813 325.48126 70.58125 325.48126Q71.55 325.48126 72.01875 325.09064Q72.4875 324.6844 72.4875 324.15314Q72.4875 323.6844 72.08125 323.40314Q71.78438 323.21564 70.64375 322.9344Q69.09688 322.54376 68.4875 322.2625Q67.89375 321.96564 67.58125 321.46564Q67.28438 320.96564 67.28438 320.35626Q67.28438 319.79376 67.53438 319.325Q67.78438 318.85626 68.22188 318.54376Q68.55 318.29376 69.1125 318.1375Q69.69063 317.96564 70.33125 317.96564Q71.31563 317.96564 72.05 318.2469Q72.78438 318.52814 73.12813 319.0125Q73.4875 319.48126 73.62813 320.29376L72.25313 320.48126Q72.15938 319.84064 71.70625 319.48126Q71.25313 319.1219 70.44063 319.1219Q69.47188 319.1219 69.05 319.45Q68.64375 319.7625 68.64375 320.1844Q68.64375 320.46564 68.81563 320.6844Q68.9875 320.90314 69.34688 321.0594Q69.56563 321.1375 70.59688 321.41876Q72.08125 321.8094 72.675 322.075Q73.26875 322.325 73.59688 322.8094Q73.94063 323.29376 73.94063 324.0125Q73.94063 324.71564 73.51875 325.34064Q73.1125 325.95 72.33125 326.29376Q71.56563 326.6375 70.59688 326.6375Q68.97188 326.6375 68.12813 325.96564Q67.28438 325.29376 67.05 323.96564ZM81.01875 323.40314L82.40938 323.59064Q82.175 325.0125 81.2375 325.825Q80.31563 326.6375 78.95625 326.6375Q77.25313 326.6375 76.20625 325.52814Q75.175 324.40314 75.175 322.325Q75.175 320.98126 75.6125 319.98126Q76.06563 318.96564 76.97188 318.46564Q77.89375 317.96564 78.95625 317.96564Q80.31563 317.96564 81.175 318.65314Q82.03438 319.325 82.26875 320.59064L80.90938 320.79376Q80.70625 319.96564 80.20625 319.54376Q79.72188 319.1219 79.01875 319.1219Q77.95625 319.1219 77.28438 319.8875Q76.62813 320.6375 76.62813 322.29376Q76.62813 323.96564 77.26875 324.73126Q77.90938 325.48126 78.94063 325.48126Q79.76875 325.48126 80.31563 324.98126Q80.87813 324.46564 81.01875 323.40314ZM89.01875 325.41876Q88.2375 326.09064 87.51875 326.3719Q86.8 326.6375 85.97188 326.6375Q84.59688 326.6375 83.8625 325.96564Q83.12813 325.29376 83.12813 324.2625Q83.12813 323.65314 83.40938 323.15314Q83.69063 322.6375 84.12813 322.34064Q84.58125 322.02814 85.14375 321.8719Q85.56563 321.7625 86.39375 321.66876Q88.09688 321.46564 88.90938 321.1844Q88.90938 320.8875 88.90938 320.8094Q88.90938 319.95 88.51875 319.60626Q87.97188 319.1219 86.90938 319.1219Q85.925 319.1219 85.44063 319.48126Q84.97188 319.825 84.75313 320.7L83.37813 320.5125Q83.56563 319.6375 83.9875 319.09064Q84.425 318.54376 85.2375 318.2625Q86.05 317.96564 87.1125 317.96564Q88.175 317.96564 88.83125 318.21564Q89.50313 318.46564 89.81563 318.84064Q90.12813 319.21564 90.25313 319.79376Q90.33125 320.15314 90.33125 321.09064L90.33125 322.96564Q90.33125 324.9344 90.40938 325.45Q90.50313 325.96564 90.76875 326.45L89.3 326.45Q89.08125 326.0125 89.01875 325.41876ZM88.90938 322.27814Q88.14375 322.59064 86.6125 322.8094Q85.7375 322.9344 85.37813 323.09064Q85.01875 323.2469 84.81563 323.5594Q84.62813 323.85626 84.62813 324.21564Q84.62813 324.77814 85.05 325.15314Q85.4875 325.52814 86.3 325.52814Q87.1125 325.52814 87.7375 325.1844Q88.37813 324.825 88.675 324.2Q88.90938 323.73126 88.90938 322.79376L88.90938 322.27814ZM92.6125 329.6375L92.6125 318.15314L93.89375 318.15314L93.89375 319.23126Q94.34688 318.59064 94.90938 318.27814Q95.4875 317.96564 96.3 317.96564Q97.3625 317.96564 98.175 318.5125Q98.9875 319.0594 99.39375 320.0594Q99.81563 321.04376 99.81563 322.23126Q99.81563 323.5125 99.34688 324.52814Q98.89375 325.54376 98.01875 326.09064Q97.15938 326.6375 96.19063 326.6375Q95.4875 326.6375 94.925 326.34064Q94.37813 326.04376 94.01875 325.59064L94.01875 329.6375L92.6125 329.6375ZM93.87813 322.34064Q93.87813 323.95 94.51875 324.71564Q95.175 325.48126 96.09688 325.48126Q97.03438 325.48126 97.70625 324.6844Q98.37813 323.8875 98.37813 322.23126Q98.37813 320.6375 97.72188 319.85626Q97.06563 319.0594 96.15938 319.0594Q95.26875 319.0594 94.56563 319.90314Q93.87813 320.7469 93.87813 322.34064ZM107.28438 323.77814L108.7375 323.95Q108.39375 325.23126 107.45625 325.9344Q106.53438 326.6375 105.09688 326.6375Q103.26875 326.6375 102.20625 325.5125Q101.14375 324.3875 101.14375 322.3719Q101.14375 320.27814 102.22188 319.1219Q103.3 317.96564 105.01875 317.96564Q106.675 317.96564 107.72188 319.10626Q108.78438 320.23126 108.78438 322.27814Q108.78438 322.40314 108.78438 322.65314L102.59688 322.65314Q102.675 324.02814 103.3625 324.7625Q104.06563 325.48126 105.09688 325.48126Q105.87813 325.48126 106.425 325.075Q106.97188 324.66876 107.28438 323.77814ZM102.675 321.4969L107.3 321.4969Q107.20625 320.45 106.76875 319.9344Q106.09688 319.1219 105.03438 319.1219Q104.06563 319.1219 103.39375 319.77814Q102.7375 320.41876 102.675 321.4969Z" fill-rule="nonzero"/><path fill="#9e9e9e" d="M24.51875 348.45L23.1125 348.45L23.1125 339.48126Q22.596874 339.96564 21.76875 340.45Q20.95625 340.9344 20.3 341.1844L20.3 339.825Q21.471874 339.2625 22.346874 338.48126Q23.2375 337.6844 23.6125 336.95L24.51875 336.95L24.51875 348.45ZM28.221874 342.79376Q28.221874 340.7625 28.628124 339.52814Q29.05 338.29376 29.878124 337.6219Q30.70625 336.95 31.95625 336.95Q32.878124 336.95 33.565624 337.325Q34.26875 337.6844 34.721874 338.3875Q35.175 339.09064 35.425 340.09064Q35.690624 341.09064 35.690624 342.79376Q35.690624 344.8094 35.26875 346.0594Q34.8625 347.29376 34.034374 347.98126Q33.20625 348.65314 31.95625 348.65314Q30.3 348.65314 29.346874 347.45Q28.221874 346.02814 28.221874 342.79376ZM29.659374 342.79376Q29.659374 345.6219 30.315624 346.5594Q30.9875 347.48126 31.95625 347.48126Q32.925 347.48126 33.58125 346.54376Q34.2375 345.60626 34.2375 342.79376Q34.2375 339.96564 33.58125 339.04376Q32.925 338.10626 31.940624 338.10626Q30.971874 338.10626 30.39375 338.9344Q29.659374 339.98126 29.659374 342.79376ZM38.003124 348.45L38.003124 346.84064L39.6125 346.84064L39.6125 348.45L38.003124 348.45ZM41.221874 345.45L42.690624 345.325Q42.8625 346.40314 43.45625 346.95Q44.05 347.48126 44.89375 347.48126Q45.909374 347.48126 46.6125 346.71564Q47.315624 345.95 47.315624 344.6844Q47.315624 343.48126 46.64375 342.79376Q45.971874 342.09064 44.878124 342.09064Q44.190624 342.09064 43.64375 342.40314Q43.096874 342.71564 42.784374 343.2L41.471874 343.02814L42.58125 337.15314L48.26875 337.15314L48.26875 338.4969L43.70625 338.4969L43.08125 341.575Q44.1125 340.85626 45.253124 340.85626Q46.753124 340.85626 47.784374 341.90314Q48.815624 342.9344 48.815624 344.5594Q48.815624 346.1219 47.909374 347.2469Q46.8 348.65314 44.89375 348.65314Q43.33125 348.65314 42.346874 347.77814Q41.3625 346.8875 41.221874 345.45ZM50.4875 339.7469Q50.4875 338.5125 51.096874 337.65314Q51.721874 336.79376 52.89375 336.79376Q53.971874 336.79376 54.675 337.575Q55.378124 338.34064 55.378124 339.825Q55.378124 341.27814 54.659374 342.075Q53.95625 342.85626 52.909374 342.85626Q51.8625 342.85626 51.175 342.09064Q50.4875 341.3094 50.4875 339.7469ZM52.925 337.7625Q52.409374 337.7625 52.05 338.21564Q51.70625 338.66876 51.70625 339.8875Q51.70625 340.98126 52.05 341.4344Q52.409374 341.8875 52.925 341.8875Q53.45625 341.8875 53.8 341.4344Q54.159374 340.98126 54.159374 339.77814Q54.159374 338.66876 53.8 338.21564Q53.45625 337.7625 52.925 337.7625ZM52.940624 348.8719L59.20625 336.79376L60.346874 336.79376L54.096874 348.8719L52.940624 348.8719ZM57.89375 345.7625Q57.89375 344.52814 58.503124 343.66876Q59.128124 342.8094 60.3 342.8094Q61.378124 342.8094 62.08125 343.59064Q62.8 344.35626 62.8 345.84064Q62.8 347.29376 62.08125 348.09064Q61.3625 348.8719 60.315624 348.8719Q59.26875 348.8719 58.58125 348.09064Q57.89375 347.3094 57.89375 345.7625ZM60.346874 343.77814Q59.815624 343.77814 59.45625 344.23126Q59.1125 344.6844 59.1125 345.90314Q59.1125 346.9969 59.45625 347.45Q59.815624 347.90314 60.33125 347.90314Q60.878124 347.90314 61.221874 347.45Q61.565624 346.9969 61.565624 345.79376Q61.565624 344.6844 61.20625 344.23126Q60.8625 343.77814 60.346874 343.77814Z" fill-rule="nonzero"/><path stroke="#757575" stroke-width="1.0" stroke-linecap="butt" d="M18.55 331.95L145.23334 331.95L283.12622 344.00073" fill-rule="nonzero"/><path fill="#9e9e9e" d="M285.12622 344.00073C285.12622 342.89618 284.23077 342.00073 283.12622 342.00073C282.02164 342.00073 281.12622 342.89618 281.12622 344.00073C281.12622 345.10532 282.02164 346.00073 283.12622 346.00073C284.23077 346.00073 285.12622 345.10532 285.12622 344.00073" fill-rule="nonzero"/><path fill="#efefef" d="M528.23126 65.27278Q528.23126 62.413406 529.7625 60.80403Q531.29376 59.194656 533.71564 59.194656Q535.29376 59.194656 536.5594 59.96028Q537.84064 60.71028 538.5125 62.069656Q539.1844 63.413406 539.1844 65.13216Q539.1844 66.88216 538.48126 68.25716Q537.77814 69.63216 536.48126 70.35091Q535.2 71.05403 533.7 71.05403Q532.09064 71.05403 530.8094 70.27278Q529.54376 69.47591 528.8875 68.13216Q528.23126 66.77278 528.23126 65.27278ZM529.79376 65.28841Q529.79376 67.36653 530.90314 68.55403Q532.0125 69.74153 533.7 69.74153Q535.40314 69.74153 536.5125 68.53841Q537.6219 67.33528 537.6219 65.13216Q537.6219 63.725906 537.1375 62.694656Q536.66876 61.64778 535.7625 61.069656Q534.85626 60.49153 533.71564 60.49153Q532.10626 60.49153 530.95 61.600906Q529.79376 62.71028 529.79376 65.28841ZM541.8094 70.85091L540.4969 70.85091L540.4969 59.39778L541.90314 59.39778L541.90314 63.475906Q542.79376 62.36653 544.1844 62.36653Q544.95 62.36653 545.6219 62.67903Q546.3094 62.975906 546.7469 63.538406Q547.2 64.10091 547.45 64.89778Q547.7 65.67903 547.7 66.56966Q547.7 68.71028 546.6375 69.88216Q545.59064 71.03841 544.10626 71.03841Q542.6375 71.03841 541.8094 69.80403L541.8094 70.85091ZM541.79376 66.63216Q541.79376 68.13216 542.2 68.78841Q542.85626 69.88216 543.9969 69.88216Q544.91876 69.88216 545.59064 69.08528Q546.2625 68.27278 546.2625 66.69466Q546.2625 65.06966 545.60626 64.30403Q544.96564 63.52278 544.0594 63.52278Q543.1375 63.52278 542.46564 64.31966Q541.79376 65.11653 541.79376 66.63216ZM549.4969 61.02278L549.4969 59.39778L550.90314 59.39778L550.90314 61.02278L549.4969 61.02278ZM547.71564 74.06966L547.98126 72.88216Q548.40314 72.99153 548.65314 72.99153Q549.075 72.99153 549.27814 72.69466Q549.4969 72.41341 549.4969 71.27278L549.4969 62.55403L550.90314 62.55403L550.90314 71.30403Q550.90314 72.83528 550.5125 73.44466Q549.9969 74.22591 548.825 74.22591Q548.2469 74.22591 547.71564 74.06966ZM559.1844 68.17903L560.6375 68.35091Q560.29376 69.63216 559.35626 70.33528Q558.4344 71.03841 556.9969 71.03841Q555.16876 71.03841 554.10626 69.91341Q553.04376 68.78841 553.04376 66.77278Q553.04376 64.67903 554.1219 63.52278Q555.2 62.36653 556.91876 62.36653Q558.575 62.36653 559.6219 63.507156Q560.6844 64.63216 560.6844 66.67903Q560.6844 66.80403 560.6844 67.05403L554.4969 67.05403Q554.575 68.42903 555.2625 69.16341Q555.96564 69.88216 556.9969 69.88216Q557.77814 69.88216 558.325 69.47591Q558.8719 69.06966 559.1844 68.17903ZM554.575 65.89778L559.2 65.89778Q559.10626 64.85091 558.66876 64.33528Q557.9969 63.52278 556.9344 63.52278Q555.96564 63.52278 555.29376 64.17903Q554.6375 64.81966 554.575 65.89778ZM567.91876 67.80403L569.3094 67.99153Q569.075 69.41341 568.1375 70.22591Q567.21564 71.03841 565.85626 71.03841Q564.15314 71.03841 563.10626 69.92903Q562.075 68.80403 562.075 66.72591Q562.075 65.38216 562.5125 64.38216Q562.96564 63.36653 563.8719 62.86653Q564.79376 62.36653 565.85626 62.36653Q567.21564 62.36653 568.075 63.05403Q568.9344 63.725906 569.16876 64.99153L567.8094 65.19466Q567.60626 64.36653 567.10626 63.944656Q566.6219 63.52278 565.91876 63.52278Q564.85626 63.52278 564.1844 64.28841Q563.52814 65.03841 563.52814 66.69466Q563.52814 68.36653 564.16876 69.13216Q564.8094 69.88216 565.84064 69.88216Q566.66876 69.88216 567.21564 69.38216Q567.77814 68.86653 567.91876 67.80403ZM573.575 69.58528L573.77814 70.83528Q573.1844 70.96028 572.71564 70.96028Q571.95 70.96028 571.52814 70.72591Q571.10626 70.47591 570.9344 70.08528Q570.7625 69.67903 570.7625 68.41341L570.7625 63.64778L569.73126 63.64778L569.73126 62.55403L570.7625 62.55403L570.7625 60.49153L572.16876 59.64778L572.16876 62.55403L573.575 62.55403L573.575 63.64778L572.16876 63.64778L572.16876 68.49153Q572.16876 69.10091 572.23126 69.27278Q572.3094 69.44466 572.48126 69.55403Q572.65314 69.64778 572.96564 69.64778Q573.2 69.64778 573.575 69.58528ZM573.95 68.36653L575.34064 68.14778Q575.45 68.99153 575.98126 69.44466Q576.52814 69.88216 577.48126 69.88216Q578.45 69.88216 578.91876 69.49153Q579.3875 69.08528 579.3875 68.55403Q579.3875 68.08528 578.98126 67.80403Q578.6844 67.61653 577.54376 67.33528Q575.9969 66.94466 575.3875 66.66341Q574.79376 66.36653 574.48126 65.86653Q574.1844 65.36653 574.1844 64.75716Q574.1844 64.19466 574.4344 63.725906Q574.6844 63.257156 575.1219 62.944656Q575.45 62.694656 576.0125 62.538406Q576.59064 62.36653 577.23126 62.36653Q578.21564 62.36653 578.95 62.64778Q579.6844 62.92903 580.02814 63.413406Q580.3875 63.882156 580.52814 64.69466L579.15314 64.88216Q579.0594 64.24153 578.60626 63.882156Q578.15314 63.52278 577.34064 63.52278Q576.3719 63.52278 575.95 63.850906Q575.54376 64.16341 575.54376 64.58528Q575.54376 64.86653 575.71564 65.08528Q575.8875 65.30403 576.2469 65.46028Q576.46564 65.53841 577.4969 65.81966Q578.98126 66.21028 579.575 66.47591Q580.16876 66.72591 580.4969 67.21028Q580.84064 67.69466 580.84064 68.41341Q580.84064 69.11653 580.41876 69.74153Q580.0125 70.35091 579.23126 70.69466Q578.46564 71.03841 577.4969 71.03841Q575.8719 71.03841 575.02814 70.36653Q574.1844 69.69466 573.95 68.36653Z" fill-rule="nonzero"/><path fill="#9e9e9e" d="M542.41876 92.85091L541.0125 92.85091L541.0125 83.88216Q540.4969 84.36653 539.66876 84.85091Q538.85626 85.33528 538.2 85.58528L538.2 84.22591Q539.3719 83.66341 540.2469 82.88216Q541.1375 82.08528 541.5125 81.35091L542.41876 81.35091L542.41876 92.85091ZM550.6219 92.85091L550.6219 90.10091L545.65314 90.10091L545.65314 88.81966L550.8875 81.39778L552.02814 81.39778L552.02814 88.81966L553.575 88.81966L553.575 90.10091L552.02814 90.10091L552.02814 92.85091L550.6219 92.85091ZM550.6219 88.81966L550.6219 83.64778L547.04376 88.81966L550.6219 88.81966ZM555.90314 92.85091L555.90314 91.24153L557.5125 91.24153L557.5125 92.85091L555.90314 92.85091ZM559.1219 89.81966L560.52814 89.63216Q560.77814 90.83528 561.35626 91.36653Q561.9344 91.88216 562.77814 91.88216Q563.7625 91.88216 564.45 91.19466Q565.1375 90.50716 565.1375 89.49153Q565.1375 88.52278 564.4969 87.89778Q563.8719 87.27278 562.8875 87.27278Q562.4969 87.27278 561.90314 87.42903L562.0594 86.19466Q562.2 86.21028 562.27814 86.21028Q563.1844 86.21028 563.90314 85.74153Q564.6219 85.27278 564.6219 84.28841Q564.6219 83.52278 564.09064 83.02278Q563.575 82.50716 562.7469 82.50716Q561.91876 82.50716 561.3719 83.02278Q560.825 83.53841 560.66876 84.56966L559.2625 84.31966Q559.52814 82.89778 560.4344 82.13216Q561.35626 81.35091 562.71564 81.35091Q563.65314 81.35091 564.4344 81.75716Q565.23126 82.14778 565.6375 82.85091Q566.0594 83.53841 566.0594 84.31966Q566.0594 85.06966 565.65314 85.67903Q565.2625 86.28841 564.48126 86.64778Q565.4969 86.88216 566.0594 87.61653Q566.6219 88.35091 566.6219 89.46028Q566.6219 90.96028 565.52814 92.00716Q564.4344 93.05403 562.7625 93.05403Q561.2625 93.05403 560.2625 92.16341Q559.2625 91.25716 559.1219 89.81966ZM568.3875 84.14778Q568.3875 82.91341 568.9969 82.05403Q569.6219 81.19466 570.79376 81.19466Q571.8719 81.19466 572.575 81.97591Q573.27814 82.74153 573.27814 84.22591Q573.27814 85.67903 572.5594 86.47591Q571.85626 87.25716 570.8094 87.25716Q569.7625 87.25716 569.075 86.49153Q568.3875 85.71028 568.3875 84.14778ZM570.825 82.16341Q570.3094 82.16341 569.95 82.61653Q569.60626 83.06966 569.60626 84.28841Q569.60626 85.38216 569.95 85.83528Q570.3094 86.28841 570.825 86.28841Q571.35626 86.28841 571.7 85.83528Q572.0594 85.38216 572.0594 84.17903Q572.0594 83.06966 571.7 82.61653Q571.35626 82.16341 570.825 82.16341ZM570.84064 93.27278L577.10626 81.19466L578.2469 81.19466L571.9969 93.27278L570.84064 93.27278ZM575.79376 90.16341Q575.79376 88.92903 576.40314 88.06966Q577.02814 87.21028 578.2 87.21028Q579.27814 87.21028 579.98126 87.99153Q580.7 88.75716 580.7 90.24153Q580.7 91.69466 579.98126 92.49153Q579.2625 93.27278 578.21564 93.27278Q577.16876 93.27278 576.48126 92.49153Q575.79376 91.71028 575.79376 90.16341ZM578.2469 88.17903Q577.71564 88.17903 577.35626 88.63216Q577.0125 89.08528 577.0125 90.30403Q577.0125 91.39778 577.35626 91.85091Q577.71564 92.30403 578.23126 92.30403Q578.77814 92.30403 579.1219 91.85091Q579.46564 91.39778 579.46564 90.19466Q579.46564 89.08528 579.10626 88.63216Q578.7625 88.17903 578.2469 88.17903Z" fill-rule="nonzero"/><path stroke="#757575" stroke-width="1.0" stroke-linecap="butt" d="M581.45 76.35091L454.76666 76.35091L361.32007 76.35091" fill-rule="nonzero"/><path fill="#9e9e9e" d="M363.32007 76.35091C363.32007 75.24634 362.42462 74.35091 361.32007 74.35091C360.21548 74.35091 359.32007 75.24634 359.32007 76.35091C359.32007 77.455475 360.21548 78.35091 361.32007 78.35091C362.42462 78.35091 363.32007 77.455475 363.32007 76.35091" fill-rule="nonzero"/><path fill="#efefef" d="M504.23126 232.23755Q504.23126 229.37817 505.7625 227.7688Q507.29376 226.15942 509.71564 226.15942Q511.29376 226.15942 512.5594 226.92505Q513.84064 227.67505 514.5125 229.03442Q515.1844 230.37817 515.1844 232.09692Q515.1844 233.84692 514.48126 235.22192Q513.77814 236.59692 512.48126 237.31567Q511.2 238.0188 509.7 238.0188Q508.09064 238.0188 506.8094 237.23755Q505.54376 236.44067 504.8875 235.09692Q504.23126 233.73755 504.23126 232.23755ZM505.79376 232.25317Q505.79376 234.3313 506.90314 235.5188Q508.0125 236.7063 509.7 236.7063Q511.40314 236.7063 512.5125 235.50317Q513.6219 234.30005 513.6219 232.09692Q513.6219 230.69067 513.1375 229.65942Q512.66876 228.61255 511.7625 228.03442Q510.85626 227.4563 509.71564 227.4563Q508.10626 227.4563 506.95 228.56567Q505.79376 229.67505 505.79376 232.25317ZM516.4969 237.81567L516.4969 229.5188L517.7625 229.5188L517.7625 230.7688Q518.2469 229.8938 518.65314 229.61255Q519.0594 229.3313 519.5594 229.3313Q520.2625 229.3313 520.9969 229.78442L520.5125 231.0813Q519.9969 230.78442 519.48126 230.78442Q519.02814 230.78442 518.65314 231.06567Q518.29376 231.3313 518.1375 231.8313Q517.90314 232.5813 517.90314 233.47192L517.90314 237.81567L516.4969 237.81567ZM521.5125 237.81567L521.5125 229.5188L522.77814 229.5188L522.77814 230.69067Q523.6844 229.3313 525.41876 229.3313Q526.16876 229.3313 526.79376 229.59692Q527.41876 229.86255 527.73126 230.30005Q528.04376 230.73755 528.16876 231.34692Q528.2469 231.73755 528.2469 232.7063L528.2469 237.81567L526.84064 237.81567L526.84064 232.7688Q526.84064 231.90942 526.66876 231.48755Q526.5125 231.05005 526.09064 230.80005Q525.6844 230.55005 525.1219 230.55005Q524.21564 230.55005 523.5594 231.12817Q522.91876 231.69067 522.91876 233.28442L522.91876 237.81567L521.5125 237.81567ZM535.91876 236.78442Q535.1375 237.4563 534.41876 237.73755Q533.7 238.00317 532.8719 238.00317Q531.4969 238.00317 530.7625 237.3313Q530.02814 236.65942 530.02814 235.62817Q530.02814 235.0188 530.3094 234.5188Q530.59064 234.00317 531.02814 233.7063Q531.48126 233.3938 532.04376 233.23755Q532.46564 233.12817 533.29376 233.03442Q534.9969 232.8313 535.8094 232.55005Q535.8094 232.25317 535.8094 232.17505Q535.8094 231.31567 535.41876 230.97192Q534.8719 230.48755 533.8094 230.48755Q532.825 230.48755 532.34064 230.84692Q531.8719 231.19067 531.65314 232.06567L530.27814 231.87817Q530.46564 231.00317 530.8875 230.4563Q531.325 229.90942 532.1375 229.62817Q532.95 229.3313 534.0125 229.3313Q535.075 229.3313 535.73126 229.5813Q536.40314 229.8313 536.71564 230.2063Q537.02814 230.5813 537.15314 231.15942Q537.23126 231.5188 537.23126 232.4563L537.23126 234.3313Q537.23126 236.30005 537.3094 236.81567Q537.40314 237.3313 537.66876 237.81567L536.2 237.81567Q535.98126 237.37817 535.91876 236.78442ZM535.8094 233.6438Q535.04376 233.9563 533.5125 234.17505Q532.6375 234.30005 532.27814 234.4563Q531.91876 234.61255 531.71564 234.92505Q531.52814 235.22192 531.52814 235.5813Q531.52814 236.1438 531.95 236.5188Q532.3875 236.8938 533.2 236.8938Q534.0125 236.8938 534.6375 236.55005Q535.27814 236.19067 535.575 235.56567Q535.8094 235.09692 535.8094 234.15942L535.8094 233.6438ZM539.5125 237.81567L539.5125 229.5188L540.7625 229.5188L540.7625 230.67505Q541.15314 230.06567 541.79376 229.7063Q542.45 229.3313 543.27814 229.3313Q544.2 229.3313 544.79376 229.72192Q545.3875 230.09692 545.6219 230.78442Q546.60626 229.3313 548.1844 229.3313Q549.41876 229.3313 550.075 230.0188Q550.7469 230.69067 550.7469 232.11255L550.7469 237.81567L549.35626 237.81567L549.35626 232.5813Q549.35626 231.73755 549.21564 231.37817Q549.075 231.00317 548.71564 230.78442Q548.35626 230.55005 547.8719 230.55005Q546.9969 230.55005 546.41876 231.12817Q545.84064 231.7063 545.84064 232.98755L545.84064 237.81567L544.4344 237.81567L544.4344 232.42505Q544.4344 231.48755 544.09064 231.0188Q543.7469 230.55005 542.96564 230.55005Q542.3719 230.55005 541.8719 230.86255Q541.3719 231.17505 541.1375 231.78442Q540.91876 232.37817 540.91876 233.50317L540.91876 237.81567L539.5125 237.81567ZM558.1844 235.1438L559.6375 235.31567Q559.29376 236.59692 558.35626 237.30005Q557.4344 238.00317 555.9969 238.00317Q554.16876 238.00317 553.10626 236.87817Q552.04376 235.75317 552.04376 233.73755Q552.04376 231.6438 553.1219 230.48755Q554.2 229.3313 555.91876 229.3313Q557.575 229.3313 558.6219 230.47192Q559.6844 231.59692 559.6844 233.6438Q559.6844 233.7688 559.6844 234.0188L553.4969 234.0188Q553.575 235.3938 554.2625 236.12817Q554.96564 236.84692 555.9969 236.84692Q556.77814 236.84692 557.325 236.44067Q557.8719 236.03442 558.1844 235.1438ZM553.575 232.86255L558.2 232.86255Q558.10626 231.81567 557.66876 231.30005Q556.9969 230.48755 555.9344 230.48755Q554.96564 230.48755 554.29376 231.1438Q553.6375 231.78442 553.575 232.86255ZM561.5125 237.81567L561.5125 229.5188L562.77814 229.5188L562.77814 230.69067Q563.6844 229.3313 565.41876 229.3313Q566.16876 229.3313 566.79376 229.59692Q567.41876 229.86255 567.73126 230.30005Q568.04376 230.73755 568.16876 231.34692Q568.2469 231.73755 568.2469 232.7063L568.2469 237.81567L566.84064 237.81567L566.84064 232.7688Q566.84064 231.90942 566.66876 231.48755Q566.5125 231.05005 566.09064 230.80005Q565.6844 230.55005 565.1219 230.55005Q564.21564 230.55005 563.5594 231.12817Q562.91876 231.69067 562.91876 233.28442L562.91876 237.81567L561.5125 237.81567ZM573.575 236.55005L573.77814 237.80005Q573.1844 237.92505 572.71564 237.92505Q571.95 237.92505 571.52814 237.69067Q571.10626 237.44067 570.9344 237.05005Q570.7625 236.6438 570.7625 235.37817L570.7625 230.61255L569.73126 230.61255L569.73126 229.5188L570.7625 229.5188L570.7625 227.4563L572.16876 226.61255L572.16876 229.5188L573.575 229.5188L573.575 230.61255L572.16876 230.61255L572.16876 235.4563Q572.16876 236.06567 572.23126 236.23755Q572.3094 236.40942 572.48126 236.5188Q572.65314 236.61255 572.96564 236.61255Q573.2 236.61255 573.575 236.55005ZM573.95 235.3313L575.34064 235.11255Q575.45 235.9563 575.98126 236.40942Q576.52814 236.84692 577.48126 236.84692Q578.45 236.84692 578.91876 236.4563Q579.3875 236.05005 579.3875 235.5188Q579.3875 235.05005 578.98126 234.7688Q578.6844 234.5813 577.54376 234.30005Q575.9969 233.90942 575.3875 233.62817Q574.79376 233.3313 574.48126 232.8313Q574.1844 232.3313 574.1844 231.72192Q574.1844 231.15942 574.4344 230.69067Q574.6844 230.22192 575.1219 229.90942Q575.45 229.65942 576.0125 229.50317Q576.59064 229.3313 577.23126 229.3313Q578.21564 229.3313 578.95 229.61255Q579.6844 229.8938 580.02814 230.37817Q580.3875 230.84692 580.52814 231.65942L579.15314 231.84692Q579.0594 231.2063 578.60626 230.84692Q578.15314 230.48755 577.34064 230.48755Q576.3719 230.48755 575.95 230.81567Q575.54376 231.12817 575.54376 231.55005Q575.54376 231.8313 575.71564 232.05005Q575.8875 232.2688 576.2469 232.42505Q576.46564 232.50317 577.4969 232.78442Q578.98126 233.17505 579.575 233.44067Q580.16876 233.69067 580.4969 234.17505Q580.84064 234.65942 580.84064 235.37817Q580.84064 236.0813 580.41876 236.7063Q580.0125 237.31567 579.23126 237.65942Q578.46564 238.00317 577.4969 238.00317Q575.8719 238.00317 575.02814 237.3313Q574.1844 236.65942 573.95 235.3313Z" fill-rule="nonzero"/><path fill="#9e9e9e" d="M537.1219 256.78442L538.52814 256.59692Q538.77814 257.80005 539.35626 258.3313Q539.9344 258.84692 540.77814 258.84692Q541.7625 258.84692 542.45 258.15942Q543.1375 257.47192 543.1375 256.4563Q543.1375 255.48755 542.4969 254.86255Q541.8719 254.23755 540.8875 254.23755Q540.4969 254.23755 539.90314 254.3938L540.0594 253.15942Q540.2 253.17505 540.27814 253.17505Q541.1844 253.17505 541.90314 252.7063Q542.6219 252.23755 542.6219 251.25317Q542.6219 250.48755 542.09064 249.98755Q541.575 249.47192 540.7469 249.47192Q539.91876 249.47192 539.3719 249.98755Q538.825 250.50317 538.66876 251.53442L537.2625 251.28442Q537.52814 249.86255 538.4344 249.09692Q539.35626 248.31567 540.71564 248.31567Q541.65314 248.31567 542.4344 248.72192Q543.23126 249.11255 543.6375 249.81567Q544.0594 250.50317 544.0594 251.28442Q544.0594 252.03442 543.65314 252.6438Q543.2625 253.25317 542.48126 253.61255Q543.4969 253.84692 544.0594 254.5813Q544.6219 255.31567 544.6219 256.42505Q544.6219 257.92505 543.52814 258.97192Q542.4344 260.0188 540.7625 260.0188Q539.2625 260.0188 538.2625 259.12817Q537.2625 258.22192 537.1219 256.78442ZM546.1219 254.15942Q546.1219 252.12817 546.52814 250.8938Q546.95 249.65942 547.77814 248.98755Q548.60626 248.31567 549.85626 248.31567Q550.77814 248.31567 551.46564 248.69067Q552.16876 249.05005 552.6219 249.75317Q553.075 250.4563 553.325 251.4563Q553.59064 252.4563 553.59064 254.15942Q553.59064 256.17505 553.16876 257.42505Q552.7625 258.65942 551.9344 259.34692Q551.10626 260.0188 549.85626 260.0188Q548.2 260.0188 547.2469 258.81567Q546.1219 257.3938 546.1219 254.15942ZM547.5594 254.15942Q547.5594 256.98755 548.21564 257.92505Q548.8875 258.84692 549.85626 258.84692Q550.825 258.84692 551.48126 257.90942Q552.1375 256.97192 552.1375 254.15942Q552.1375 251.3313 551.48126 250.40942Q550.825 249.47192 549.84064 249.47192Q548.8719 249.47192 548.29376 250.30005Q547.5594 251.34692 547.5594 254.15942ZM555.90314 259.81567L555.90314 258.2063L557.5125 258.2063L557.5125 259.81567L555.90314 259.81567ZM559.1219 256.81567L560.59064 256.69067Q560.7625 257.7688 561.35626 258.31567Q561.95 258.84692 562.79376 258.84692Q563.8094 258.84692 564.5125 258.0813Q565.21564 257.31567 565.21564 256.05005Q565.21564 254.84692 564.54376 254.15942Q563.8719 253.4563 562.77814 253.4563Q562.09064 253.4563 561.54376 253.7688Q560.9969 254.0813 560.6844 254.56567L559.3719 254.3938L560.48126 248.5188L566.16876 248.5188L566.16876 249.86255L561.60626 249.86255L560.98126 252.94067Q562.0125 252.22192 563.15314 252.22192Q564.65314 252.22192 565.6844 253.2688Q566.71564 254.30005 566.71564 255.92505Q566.71564 257.48755 565.8094 258.61255Q564.7 260.0188 562.79376 260.0188Q561.23126 260.0188 560.2469 259.1438Q559.2625 258.25317 559.1219 256.81567ZM568.3875 251.11255Q568.3875 249.87817 568.9969 249.0188Q569.6219 248.15942 570.79376 248.15942Q571.8719 248.15942 572.575 248.94067Q573.27814 249.7063 573.27814 251.19067Q573.27814 252.6438 572.5594 253.44067Q571.85626 254.22192 570.8094 254.22192Q569.7625 254.22192 569.075 253.4563Q568.3875 252.67505 568.3875 251.11255ZM570.825 249.12817Q570.3094 249.12817 569.95 249.5813Q569.60626 250.03442 569.60626 251.25317Q569.60626 252.34692 569.95 252.80005Q570.3094 253.25317 570.825 253.25317Q571.35626 253.25317 571.7 252.80005Q572.0594 252.34692 572.0594 251.1438Q572.0594 250.03442 571.7 249.5813Q571.35626 249.12817 570.825 249.12817ZM570.84064 260.23755L577.10626 248.15942L578.2469 248.15942L571.9969 260.23755L570.84064 260.23755ZM575.79376 257.12817Q575.79376 255.8938 576.40314 255.03442Q577.02814 254.17505 578.2 254.17505Q579.27814 254.17505 579.98126 254.9563Q580.7 255.72192 580.7 257.2063Q580.7 258.65942 579.98126 259.4563Q579.2625 260.23755 578.21564 260.23755Q577.16876 260.23755 576.48126 259.4563Q575.79376 258.67505 575.79376 257.12817ZM578.2469 255.1438Q577.71564 255.1438 577.35626 255.59692Q577.0125 256.05005 577.0125 257.2688Q577.0125 258.36255 577.35626 258.81567Q577.71564 259.2688 578.23126 259.2688Q578.77814 259.2688 579.1219 258.81567Q579.46564 258.36255 579.46564 257.15942Q579.46564 256.05005 579.10626 255.59692Q578.7625 255.1438 578.2469 255.1438Z" fill-rule="nonzero"/><path stroke="#757575" stroke-width="1.0" stroke-linecap="butt" d="M581.45 243.31567L454.76666 243.31567L435.65756 243.31567" fill-rule="nonzero"/><path fill="#9e9e9e" d="M437.65756 243.31567C437.65756 242.2111 436.76215 241.31567 435.65756 241.31567C434.553 241.31567 433.65756 242.2111 433.65756 243.31567C433.65756 244.42024 434.553 245.31567 435.65756 245.31567C436.76215 245.31567 437.65756 244.42024 437.65756 243.31567" fill-rule="nonzero"/><path fill="#efefef" d="M531.6844 326.45L531.6844 314.9969L536.0125 314.9969Q537.15314 314.9969 537.7469 315.10626Q538.59064 315.2469 539.15314 315.6375Q539.73126 316.02814 540.075 316.7469Q540.4344 317.45 540.4344 318.3094Q540.4344 319.7625 539.4969 320.77814Q538.575 321.79376 536.1375 321.79376L533.2 321.79376L533.2 326.45L531.6844 326.45ZM533.2 320.4344L536.16876 320.4344Q537.6375 320.4344 538.2469 319.8875Q538.8719 319.34064 538.8719 318.35626Q538.8719 317.6375 538.4969 317.1219Q538.1375 316.60626 537.54376 316.45Q537.16876 316.34064 536.1375 316.34064L533.2 316.34064L533.2 320.4344ZM548.1844 323.77814L549.6375 323.95Q549.29376 325.23126 548.35626 325.9344Q547.4344 326.6375 545.9969 326.6375Q544.16876 326.6375 543.10626 325.5125Q542.04376 324.3875 542.04376 322.3719Q542.04376 320.27814 543.1219 319.1219Q544.2 317.96564 545.91876 317.96564Q547.575 317.96564 548.6219 319.10626Q549.6844 320.23126 549.6844 322.27814Q549.6844 322.40314 549.6844 322.65314L543.4969 322.65314Q543.575 324.02814 544.2625 324.7625Q544.96564 325.48126 545.9969 325.48126Q546.77814 325.48126 547.325 325.075Q547.8719 324.66876 548.1844 323.77814ZM543.575 321.4969L548.2 321.4969Q548.10626 320.45 547.66876 319.9344Q546.9969 319.1219 545.9344 319.1219Q544.96564 319.1219 544.29376 319.77814Q543.6375 320.41876 543.575 321.4969ZM550.98126 322.29376Q550.98126 319.9969 552.2625 318.8875Q553.34064 317.96564 554.8719 317.96564Q556.59064 317.96564 557.66876 319.09064Q558.7625 320.2 558.7625 322.1844Q558.7625 323.77814 558.27814 324.7Q557.79376 325.6219 556.8719 326.1375Q555.96564 326.6375 554.8719 326.6375Q553.1375 326.6375 552.0594 325.52814Q550.98126 324.40314 550.98126 322.29376ZM552.4344 322.29376Q552.4344 323.8875 553.1219 324.6844Q553.825 325.48126 554.8719 325.48126Q555.91876 325.48126 556.60626 324.6844Q557.3094 323.8875 557.3094 322.2469Q557.3094 320.71564 556.60626 319.91876Q555.91876 319.1219 554.8719 319.1219Q553.825 319.1219 553.1219 319.91876Q552.4344 320.7 552.4344 322.29376ZM560.5125 329.6375L560.5125 318.15314L561.79376 318.15314L561.79376 319.23126Q562.2469 318.59064 562.8094 318.27814Q563.3875 317.96564 564.2 317.96564Q565.2625 317.96564 566.075 318.5125Q566.8875 319.0594 567.29376 320.0594Q567.71564 321.04376 567.71564 322.23126Q567.71564 323.5125 567.2469 324.52814Q566.79376 325.54376 565.91876 326.09064Q565.0594 326.6375 564.09064 326.6375Q563.3875 326.6375 562.825 326.34064Q562.27814 326.04376 561.91876 325.59064L561.91876 329.6375L560.5125 329.6375ZM561.77814 322.34064Q561.77814 323.95 562.41876 324.71564Q563.075 325.48126 563.9969 325.48126Q564.9344 325.48126 565.60626 324.6844Q566.27814 323.8875 566.27814 322.23126Q566.27814 320.6375 565.6219 319.85626Q564.96564 319.0594 564.0594 319.0594Q563.16876 319.0594 562.46564 319.90314Q561.77814 320.7469 561.77814 322.34064ZM569.48126 326.45L569.48126 314.9969L570.8875 314.9969L570.8875 326.45L569.48126 326.45ZM579.1844 323.77814L580.6375 323.95Q580.29376 325.23126 579.35626 325.9344Q578.4344 326.6375 576.9969 326.6375Q575.16876 326.6375 574.10626 325.5125Q573.04376 324.3875 573.04376 322.3719Q573.04376 320.27814 574.1219 319.1219Q575.2 317.96564 576.91876 317.96564Q578.575 317.96564 579.6219 319.10626Q580.6844 320.23126 580.6844 322.27814Q580.6844 322.40314 580.6844 322.65314L574.4969 322.65314Q574.575 324.02814 575.2625 324.7625Q575.96564 325.48126 576.9969 325.48126Q577.77814 325.48126 578.325 325.075Q578.8719 324.66876 579.1844 323.77814ZM574.575 321.4969L579.2 321.4969Q579.10626 320.45 578.66876 319.9344Q577.9969 319.1219 576.9344 319.1219Q575.96564 319.1219 575.29376 319.77814Q574.6375 320.41876 574.575 321.4969Z" fill-rule="nonzero"/><path fill="#9e9e9e" d="M551.41876 348.45L550.0125 348.45L550.0125 339.48126Q549.4969 339.96564 548.66876 340.45Q547.85626 340.9344 547.2 341.1844L547.2 339.825Q548.3719 339.2625 549.2469 338.48126Q550.1375 337.6844 550.5125 336.95L551.41876 336.95L551.41876 348.45ZM555.90314 348.45L555.90314 346.84064L557.5125 346.84064L557.5125 348.45L555.90314 348.45ZM559.325 345.79376L560.6844 345.66876Q560.85626 346.6219 561.34064 347.0594Q561.825 347.48126 562.575 347.48126Q563.23126 347.48126 563.71564 347.1844Q564.2 346.8875 564.5125 346.40314Q564.825 345.90314 565.02814 345.0594Q565.2469 344.21564 565.2469 343.34064Q565.2469 343.2469 565.2469 343.0594Q564.825 343.73126 564.09064 344.15314Q563.35626 344.5594 562.5125 344.5594Q561.09064 344.5594 560.10626 343.52814Q559.1219 342.4969 559.1219 340.8094Q559.1219 339.075 560.1375 338.0125Q561.16876 336.95 562.71564 336.95Q563.84064 336.95 564.7625 337.5594Q565.6844 338.15314 566.16876 339.2625Q566.65314 340.3719 566.65314 342.48126Q566.65314 344.6844 566.16876 345.98126Q565.7 347.27814 564.7469 347.96564Q563.8094 348.65314 562.54376 348.65314Q561.2 348.65314 560.34064 347.90314Q559.4969 347.15314 559.325 345.79376ZM565.09064 340.7469Q565.09064 339.52814 564.4344 338.825Q563.79376 338.10626 562.8875 338.10626Q561.95 338.10626 561.2469 338.8719Q560.5594 339.6375 560.5594 340.85626Q560.5594 341.95 561.21564 342.6375Q561.8875 343.325 562.85626 343.325Q563.825 343.325 564.45 342.6375Q565.09064 341.95 565.09064 340.7469ZM568.3875 339.7469Q568.3875 338.5125 568.9969 337.65314Q569.6219 336.79376 570.79376 336.79376Q571.8719 336.79376 572.575 337.575Q573.27814 338.34064 573.27814 339.825Q573.27814 341.27814 572.5594 342.075Q571.85626 342.85626 570.8094 342.85626Q569.7625 342.85626 569.075 342.09064Q568.3875 341.3094 568.3875 339.7469ZM570.825 337.7625Q570.3094 337.7625 569.95 338.21564Q569.60626 338.66876 569.60626 339.8875Q569.60626 340.98126 569.95 341.4344Q570.3094 341.8875 570.825 341.8875Q571.35626 341.8875 571.7 341.4344Q572.0594 340.98126 572.0594 339.77814Q572.0594 338.66876 571.7 338.21564Q571.35626 337.7625 570.825 337.7625ZM570.84064 348.8719L577.10626 336.79376L578.2469 336.79376L571.9969 348.8719L570.84064 348.8719ZM575.79376 345.7625Q575.79376 344.52814 576.40314 343.66876Q577.02814 342.8094 578.2 342.8094Q579.27814 342.8094 579.98126 343.59064Q580.7 344.35626 580.7 345.84064Q580.7 347.29376 579.98126 348.09064Q579.2625 348.8719 578.21564 348.8719Q577.16876 348.8719 576.48126 348.09064Q575.79376 347.3094 575.79376 345.7625ZM578.2469 343.77814Q577.71564 343.77814 577.35626 344.23126Q577.0125 344.6844 577.0125 345.90314Q577.0125 346.9969 577.35626 347.45Q577.71564 347.90314 578.23126 347.90314Q578.77814 347.90314 579.1219 347.45Q579.46564 346.9969 579.46564 345.79376Q579.46564 344.6844 579.10626 344.23126Q578.7625 343.77814 578.2469 343.77814Z" fill-rule="nonzero"/><path stroke="#757575" stroke-width="1.0" stroke-linecap="butt" d="M581.45 331.95L454.76666 331.95L337.59854 339.9186" fill-rule="nonzero"/><path fill="#9e9e9e" d="M339.59854 339.9186C339.59854 338.81403 338.70312 337.9186 337.59854 337.9186C336.494 337.9186 335.59854 338.81403 335.59854 339.9186C335.59854 341.02316 336.494 341.9186 337.59854 341.9186C338.70312 341.9186 339.59854 341.02316 339.59854 339.9186" fill-rule="nonzero"/><path fill="#f3f3f3" d="M265.98438 37.55L265.98438 23.2375L268.84375 23.2375L272.21875 33.3625Q272.6875 34.784374 272.90625 35.4875Q273.15625 34.70625 273.67188 33.190624L277.09375 23.2375L279.64062 23.2375L279.64062 37.55L277.82812 37.55L277.82812 25.565624L273.65625 37.55L271.95312 37.55L267.8125 25.3625L267.8125 37.55L265.98438 37.55ZM289.92188 34.20625L291.73438 34.440624Q291.3125 36.01875 290.14062 36.909374Q288.98438 37.784374 287.17188 37.784374Q284.90625 37.784374 283.5625 36.39375Q282.23438 34.9875 282.23438 32.45625Q282.23438 29.83125 283.57812 28.39375Q284.92188 26.940624 287.07812 26.940624Q289.15625 26.940624 290.46875 28.3625Q291.79688 29.76875 291.79688 32.346874Q291.79688 32.503124 291.78125 32.815624L284.04688 32.815624Q284.14062 34.51875 285.01562 35.425Q285.89062 36.33125 287.1875 36.33125Q288.15625 36.33125 288.82812 35.83125Q289.51562 35.315624 289.92188 34.20625ZM284.14062 31.3625L289.9375 31.3625Q289.82812 30.065624 289.28125 29.409374Q288.4375 28.39375 287.09375 28.39375Q285.89062 28.39375 285.0625 29.20625Q284.23438 30.003124 284.14062 31.3625ZM300.54688 37.55L300.54688 36.2375Q299.5625 37.784374 297.64062 37.784374Q296.40625 37.784374 295.35938 37.096874Q294.32812 36.409374 293.75 35.190624Q293.1875 33.971874 293.1875 32.378124Q293.1875 30.815624 293.70312 29.55Q294.21875 28.284374 295.25 27.6125Q296.29688 26.940624 297.5625 26.940624Q298.5 26.940624 299.23438 27.346874Q299.96875 27.7375 300.4375 28.3625L300.4375 23.2375L302.17188 23.2375L302.17188 37.55L300.54688 37.55ZM294.98438 32.378124Q294.98438 34.3625 295.82812 35.346874Q296.67188 36.33125 297.8125 36.33125Q298.96875 36.33125 299.76562 35.39375Q300.57812 34.45625 300.57812 32.51875Q300.57812 30.39375 299.75 29.39375Q298.9375 28.39375 297.73438 28.39375Q296.5625 28.39375 295.76562 29.3625Q294.98438 30.315624 294.98438 32.378124ZM304.82812 25.253124L304.82812 23.2375L306.59375 23.2375L306.59375 25.253124L304.82812 25.253124ZM304.82812 37.55L304.82812 27.175L306.59375 27.175L306.59375 37.55L304.82812 37.55ZM315.60938 37.55L315.60938 36.01875Q314.40625 37.784374 312.32812 37.784374Q311.40625 37.784374 310.60938 37.440624Q309.8125 37.08125 309.42188 36.55Q309.04688 36.01875 308.89062 35.2375Q308.78125 34.721874 308.78125 33.596874L308.78125 27.175L310.53125 27.175L310.53125 32.925Q310.53125 34.3 310.64062 34.784374Q310.8125 35.471874 311.34375 35.878124Q311.89062 36.26875 312.67188 36.26875Q313.46875 36.26875 314.15625 35.8625Q314.85938 35.45625 315.14062 34.76875Q315.4375 34.065624 315.4375 32.7375L315.4375 27.175L317.1875 27.175L317.1875 37.55L315.60938 37.55ZM319.8125 37.55L319.8125 27.175L321.39062 27.175L321.39062 28.628124Q321.875 27.878124 322.6875 27.409374Q323.5 26.940624 324.53125 26.940624Q325.6875 26.940624 326.42188 27.425Q327.15625 27.89375 327.46875 28.753124Q328.70312 26.940624 330.67188 26.940624Q332.21875 26.940624 333.04688 27.8Q333.875 28.659374 333.875 30.425L333.875 37.55L332.125 37.55L332.125 31.01875Q332.125 29.95625 331.95312 29.503124Q331.78125 29.034374 331.32812 28.753124Q330.89062 28.471874 330.28125 28.471874Q329.1875 28.471874 328.45312 29.20625Q327.73438 29.925 327.73438 31.51875L327.73438 37.55L325.98438 37.55L325.98438 30.815624Q325.98438 29.64375 325.54688 29.065624Q325.125 28.471874 324.14062 28.471874Q323.40625 28.471874 322.76562 28.8625Q322.14062 29.253124 321.85938 30.003124Q321.57812 30.753124 321.57812 32.175L321.57812 37.55L319.8125 37.55Z" fill-rule="nonzero"/></svg>