<svg version="1.1" viewBox="0.0 0.0 600.0 371.0" fill="none" stroke="none" stroke-linecap="square" stroke-miterlimit="10" width="600" height="371" xmlns:xlink="http://www.w3.org/1999/xlink" xmlns="http://www.w3.org/2000/svg"><path fill="#ffffff" fill-opacity="0.0" d="M0 0L600.0 0L600.0 371.0L0 371.0L0 0Z" fill-rule="nonzero"/><path fill="#f7d750" d="M300.0 54.916668C347.62094 54.916668 392.36386 77.71432 420.35477 116.24048C448.34564 154.76665 456.2012 204.36455 441.4855 249.65475L370.74277 226.66905C378.1006 204.02394 374.17282 179.22499 360.17737 159.96191C346.18195 140.69882 323.8105 129.3 300.0 129.3Z" fill-rule="nonzero"/><path fill="#4571b0" d="M441.4855 249.65475C431.77728 279.53357 412.85928 305.572 387.44284 324.0381L343.72144 263.86072C356.42963 254.62766 365.88864 241.60844 370.74277 226.66905Z" fill-rule="nonzero"/><path fill="#d0473d" d="M158.5145 157.7119C178.43053 96.416664 235.55037 54.916668 300.0 54.916668L300.0 129.3C267.77518 129.3 239.21526 150.05 229.25725 180.69762Z" fill-rule="nonzero"/><path fill="#8c4595" d="M212.55714 324.0381C160.4163 286.15555 138.59846 219.00714 158.5145 157.7119L229.25725 180.69762C219.29922 211.34525 230.20815 244.91945 256.27856 263.86072Z" fill-rule="nonzero"/><path fill="#78a94e" d="M387.44284 324.0381C335.302 361.92062 264.698 361.92062 212.55714 324.0381L256.27856 263.86072C282.349 282.80197 317.651 282.80197 343.72144 263.86072Z" fill-rule="nonzero"/><path fill="#ffffff" d="M365.51608 141.19495L367.10983 140.99182Q367.37546 142.33557 368.0317 142.92932Q368.68796 143.52307 369.62546 143.52307Q370.75046 143.52307 371.51608 142.75745Q372.2817 141.9762 372.2817 140.83557Q372.2817 139.74182 371.56296 139.0387Q370.85983 138.31995 369.76608 138.31995Q369.31296 138.31995 368.64108 138.50745L368.81296 137.11682Q368.9692 137.13245 369.07858 137.13245Q370.07858 137.13245 370.89108 136.6012Q371.70358 136.06995 371.70358 134.9762Q371.70358 134.1012 371.10983 133.5387Q370.51608 132.96057 369.5942 132.96057Q368.67233 132.96057 368.04733 133.5387Q367.43796 134.11682 367.26608 135.2887L365.68796 135.00745Q365.9692 133.4137 367.00046 132.5387Q368.0317 131.6637 369.56296 131.6637Q370.60983 131.6637 371.50046 132.11682Q372.39108 132.56995 372.85983 133.3512Q373.32858 134.13245 373.32858 135.00745Q373.32858 135.8512 372.87546 136.5387Q372.43796 137.21057 371.54733 137.61682Q372.68796 137.88245 373.31296 138.7262Q373.95358 139.55432 373.95358 140.7887Q373.95358 142.4762 372.7192 143.6637Q371.50046 144.83557 369.62546 144.83557Q367.92233 144.83557 366.79733 143.81995Q365.68796 142.80432 365.51608 141.19495ZM375.51608 138.24182Q375.51608 135.96057 375.98483 134.56995Q376.45358 133.17932 377.37546 132.42932Q378.31296 131.6637 379.7192 131.6637Q380.75046 131.6637 381.5317 132.08557Q382.31296 132.49182 382.81296 133.2887Q383.32858 134.06995 383.62546 135.21057Q383.92233 136.33557 383.92233 138.24182Q383.92233 140.50745 383.45358 141.9137Q382.98483 143.30432 382.04733 144.06995Q381.12546 144.81995 379.7192 144.81995Q377.8442 144.81995 376.7817 143.49182Q375.51608 141.88245 375.51608 138.24182ZM377.14108 138.24182Q377.14108 141.4137 377.87546 142.4762Q378.62546 143.52307 379.7192 143.52307Q380.79733 143.52307 381.54733 142.4762Q382.29733 141.4137 382.29733 138.24182Q382.29733 135.06995 381.54733 134.02307Q380.79733 132.9762 379.70358 132.9762Q378.60983 132.9762 377.95358 133.89807Q377.14108 135.06995 377.14108 138.24182ZM386.4067 144.6012L386.4067 142.80432L388.20358 142.80432L388.20358 144.6012L386.4067 144.6012ZM390.51608 138.24182Q390.51608 135.96057 390.98483 134.56995Q391.45358 133.17932 392.37546 132.42932Q393.31296 131.6637 394.7192 131.6637Q395.75046 131.6637 396.5317 132.08557Q397.31296 132.49182 397.81296 133.2887Q398.32858 134.06995 398.62546 135.21057Q398.92233 136.33557 398.92233 138.24182Q398.92233 140.50745 398.45358 141.9137Q397.98483 143.30432 397.04733 144.06995Q396.12546 144.81995 394.7192 144.81995Q392.8442 144.81995 391.7817 143.49182Q390.51608 141.88245 390.51608 138.24182ZM392.14108 138.24182Q392.14108 141.4137 392.87546 142.4762Q393.62546 143.52307 394.7192 143.52307Q395.79733 143.52307 396.54733 142.4762Q397.29733 141.4137 397.29733 138.24182Q397.29733 135.06995 396.54733 134.02307Q395.79733 132.9762 394.70358 132.9762Q393.60983 132.9762 392.95358 133.89807Q392.14108 135.06995 392.14108 138.24182ZM400.81296 134.80432Q400.81296 133.42932 401.50046 132.46057Q402.20358 131.49182 403.51608 131.49182Q404.73483 131.49182 405.5317 132.36682Q406.32858 133.2262 406.32858 134.9137Q406.32858 136.5387 405.51608 137.42932Q404.7192 138.30432 403.5317 138.30432Q402.37546 138.30432 401.5942 137.44495Q400.81296 136.56995 400.81296 134.80432ZM403.56296 132.58557Q402.9692 132.58557 402.57858 133.1012Q402.18796 133.6012 402.18796 134.96057Q402.18796 136.21057 402.57858 136.71057Q402.98483 137.21057 403.56296 137.21057Q404.1567 137.21057 404.54733 136.71057Q404.93796 136.19495 404.93796 134.8512Q404.93796 133.6012 404.54733 133.1012Q404.1567 132.58557 403.56296 132.58557ZM403.57858 145.06995L410.62546 131.49182L411.9067 131.49182L404.87546 145.06995L403.57858 145.06995ZM409.14108 141.56995Q409.14108 140.19495 409.82858 139.2262Q410.5317 138.25745 411.85983 138.25745Q413.07858 138.25745 413.85983 139.13245Q414.6567 139.99182 414.6567 141.67932Q414.6567 143.30432 413.85983 144.19495Q413.06296 145.06995 411.87546 145.06995Q410.70358 145.06995 409.92233 144.19495Q409.14108 143.31995 409.14108 141.56995ZM411.9067 139.3512Q411.31296 139.3512 410.92233 139.86682Q410.5317 140.36682 410.5317 141.74182Q410.5317 142.96057 410.92233 143.4762Q411.31296 143.99182 411.89108 143.99182Q412.50046 143.99182 412.89108 143.4762Q413.2817 142.96057 413.2817 141.61682Q413.2817 140.36682 412.89108 139.86682Q412.50046 139.3512 411.9067 139.3512Z" fill-rule="nonzero"/><path fill="#ffffff" d="M371.4692 275.76547L369.89108 275.76547L369.89108 265.68735Q369.31296 266.23422 368.39108 266.7811Q367.4692 267.31235 366.7192 267.5936L366.7192 266.06235Q368.04733 265.43735 369.04733 264.54672Q370.04733 263.6561 370.45358 262.82797L371.4692 262.82797L371.4692 275.76547ZM375.51608 269.4061Q375.51608 267.12485 375.98483 265.73422Q376.45358 264.3436 377.37546 263.5936Q378.31296 262.82797 379.7192 262.82797Q380.75046 262.82797 381.5317 263.24985Q382.31296 263.6561 382.81296 264.45297Q383.32858 265.23422 383.62546 266.37485Q383.92233 267.49985 383.92233 269.4061Q383.92233 271.67172 383.45358 273.07797Q382.98483 274.4686 382.04733 275.23422Q381.12546 275.98422 379.7192 275.98422Q377.8442 275.98422 376.7817 274.6561Q375.51608 273.04672 375.51608 269.4061ZM377.14108 269.4061Q377.14108 272.57797 377.87546 273.64047Q378.62546 274.68735 379.7192 274.68735Q380.79733 274.68735 381.54733 273.64047Q382.29733 272.57797 382.29733 269.4061Q382.29733 266.23422 381.54733 265.18735Q380.79733 264.14047 379.70358 264.14047Q378.60983 264.14047 377.95358 265.06235Q377.14108 266.23422 377.14108 269.4061ZM386.4067 275.76547L386.4067 273.9686L388.20358 273.9686L388.20358 275.76547L386.4067 275.76547ZM390.51608 269.4061Q390.51608 267.12485 390.98483 265.73422Q391.45358 264.3436 392.37546 263.5936Q393.31296 262.82797 394.7192 262.82797Q395.75046 262.82797 396.5317 263.24985Q397.31296 263.6561 397.81296 264.45297Q398.32858 265.23422 398.62546 266.37485Q398.92233 267.49985 398.92233 269.4061Q398.92233 271.67172 398.45358 273.07797Q397.98483 274.4686 397.04733 275.23422Q396.12546 275.98422 394.7192 275.98422Q392.8442 275.98422 391.7817 274.6561Q390.51608 273.04672 390.51608 269.4061ZM392.14108 269.4061Q392.14108 272.57797 392.87546 273.64047Q393.62546 274.68735 394.7192 274.68735Q395.79733 274.68735 396.54733 273.64047Q397.29733 272.57797 397.29733 269.4061Q397.29733 266.23422 396.54733 265.18735Q395.79733 264.14047 394.70358 264.14047Q393.60983 264.14047 392.95358 265.06235Q392.14108 266.23422 392.14108 269.4061ZM400.81296 265.9686Q400.81296 264.5936 401.50046 263.62485Q402.20358 262.6561 403.51608 262.6561Q404.73483 262.6561 405.5317 263.5311Q406.32858 264.39047 406.32858 266.07797Q406.32858 267.70297 405.51608 268.5936Q404.7192 269.4686 403.5317 269.4686Q402.37546 269.4686 401.5942 268.60922Q400.81296 267.73422 400.81296 265.9686ZM403.56296 263.74985Q402.9692 263.74985 402.57858 264.26547Q402.18796 264.76547 402.18796 266.12485Q402.18796 267.37485 402.57858 267.87485Q402.98483 268.37485 403.56296 268.37485Q404.1567 268.37485 404.54733 267.87485Q404.93796 267.35922 404.93796 266.01547Q404.93796 264.76547 404.54733 264.26547Q404.1567 263.74985 403.56296 263.74985ZM403.57858 276.23422L410.62546 262.6561L411.9067 262.6561L404.87546 276.23422L403.57858 276.23422ZM409.14108 272.73422Q409.14108 271.35922 409.82858 270.39047Q410.5317 269.42172 411.85983 269.42172Q413.07858 269.42172 413.85983 270.29672Q414.6567 271.1561 414.6567 272.8436Q414.6567 274.4686 413.85983 275.35922Q413.06296 276.23422 411.87546 276.23422Q410.70358 276.23422 409.92233 275.35922Q409.14108 274.48422 409.14108 272.73422ZM411.9067 270.51547Q411.31296 270.51547 410.92233 271.0311Q410.5317 271.5311 410.5317 272.9061Q410.5317 274.12485 410.92233 274.64047Q411.31296 275.1561 411.89108 275.1561Q412.50046 275.1561 412.89108 274.64047Q413.2817 274.12485 413.2817 272.7811Q413.2817 271.5311 412.89108 271.0311Q412.50046 270.51547 411.9067 270.51547Z" fill-rule="nonzero"/><path fill="#ffffff" d="M283.5625 326.4736L283.5625 327.98923L275.04688 327.98923Q275.03125 327.4111 275.23438 326.89548Q275.5625 326.02048 276.26562 325.17673Q276.98438 324.33298 278.34375 323.2236Q280.4375 321.50485 281.17188 320.50485Q281.92188 319.48923 281.92188 318.5986Q281.92188 317.64548 281.25 317.00485Q280.57812 316.36423 279.5 316.36423Q278.34375 316.36423 277.65625 317.05173Q276.98438 317.73923 276.96875 318.94235L275.34375 318.77048Q275.51562 316.95798 276.59375 316.00485Q277.6875 315.05173 279.53125 315.05173Q281.375 315.05173 282.45312 316.08298Q283.54688 317.11423 283.54688 318.62985Q283.54688 319.39548 283.21875 320.14548Q282.90625 320.89548 282.17188 321.7236Q281.4375 322.55173 279.73438 323.98923Q278.3125 325.19235 277.90625 325.61423Q277.5 326.0361 277.25 326.4736L283.5625 326.4736ZM285.25 321.62985Q285.25 319.3486 285.71875 317.95798Q286.1875 316.56735 287.10938 315.81735Q288.04688 315.05173 289.45312 315.05173Q290.48438 315.05173 291.26562 315.4736Q292.04688 315.87985 292.54688 316.67673Q293.0625 317.45798 293.35938 318.5986Q293.65625 319.7236 293.65625 321.62985Q293.65625 323.89548 293.1875 325.30173Q292.71875 326.69235 291.78125 327.45798Q290.85938 328.20798 289.45312 328.20798Q287.57812 328.20798 286.51562 326.87985Q285.25 325.27048 285.25 321.62985ZM286.875 321.62985Q286.875 324.80173 287.60938 325.86423Q288.35938 326.9111 289.45312 326.9111Q290.53125 326.9111 291.28125 325.86423Q292.03125 324.80173 292.03125 321.62985Q292.03125 318.45798 291.28125 317.4111Q290.53125 316.36423 289.4375 316.36423Q288.34375 316.36423 287.6875 317.2861Q286.875 318.45798 286.875 321.62985ZM296.14062 327.98923L296.14062 326.19235L297.9375 326.19235L297.9375 327.98923L296.14062 327.98923ZM300.25 321.62985Q300.25 319.3486 300.71875 317.95798Q301.1875 316.56735 302.10938 315.81735Q303.04688 315.05173 304.45312 315.05173Q305.48438 315.05173 306.26562 315.4736Q307.04688 315.87985 307.54688 316.67673Q308.0625 317.45798 308.35938 318.5986Q308.65625 319.7236 308.65625 321.62985Q308.65625 323.89548 308.1875 325.30173Q307.71875 326.69235 306.78125 327.45798Q305.85938 328.20798 304.45312 328.20798Q302.57812 328.20798 301.51562 326.87985Q300.25 325.27048 300.25 321.62985ZM301.875 321.62985Q301.875 324.80173 302.60938 325.86423Q303.35938 326.9111 304.45312 326.9111Q305.53125 326.9111 306.28125 325.86423Q307.03125 324.80173 307.03125 321.62985Q307.03125 318.45798 306.28125 317.4111Q305.53125 316.36423 304.4375 316.36423Q303.34375 316.36423 302.6875 317.2861Q301.875 318.45798 301.875 321.62985ZM310.54688 318.19235Q310.54688 316.81735 311.23438 315.8486Q311.9375 314.87985 313.25 314.87985Q314.46875 314.87985 315.26562 315.75485Q316.0625 316.61423 316.0625 318.30173Q316.0625 319.92673 315.25 320.81735Q314.45312 321.69235 313.26562 321.69235Q312.10938 321.69235 311.32812 320.83298Q310.54688 319.95798 310.54688 318.19235ZM313.29688 315.9736Q312.70312 315.9736 312.3125 316.48923Q311.92188 316.98923 311.92188 318.3486Q311.92188 319.5986 312.3125 320.0986Q312.71875 320.5986 313.29688 320.5986Q313.89062 320.5986 314.28125 320.0986Q314.67188 319.58298 314.67188 318.23923Q314.67188 316.98923 314.28125 316.48923Q313.89062 315.9736 313.29688 315.9736ZM313.3125 328.45798L320.35938 314.87985L321.64062 314.87985L314.60938 328.45798L313.3125 328.45798ZM318.875 324.95798Q318.875 323.58298 319.5625 322.61423Q320.26562 321.64548 321.59375 321.64548Q322.8125 321.64548 323.59375 322.52048Q324.39062 323.37985 324.39062 325.06735Q324.39062 326.69235 323.59375 327.58298Q322.79688 328.45798 321.60938 328.45798Q320.4375 328.45798 319.65625 327.58298Q318.875 326.70798 318.875 324.95798ZM321.64062 322.73923Q321.04688 322.73923 320.65625 323.25485Q320.26562 323.75485 320.26562 325.12985Q320.26562 326.3486 320.65625 326.86423Q321.04688 327.37985 321.625 327.37985Q322.23438 327.37985 322.625 326.86423Q323.01562 326.3486 323.01562 325.00485Q323.01562 323.75485 322.625 323.25485Q322.23438 322.73923 321.64062 322.73923Z" fill-rule="nonzero"/><path fill="#ffffff" d="M177.44836 243.14629L177.44836 244.66191L168.93274 244.66191Q168.91711 244.08379 169.12024 243.56816Q169.44836 242.69316 170.15149 241.84941Q170.87024 241.00566 172.22961 239.89629Q174.32336 238.17754 175.05774 237.17754Q175.80774 236.16191 175.80774 235.27129Q175.80774 234.31816 175.13586 233.67754Q174.46399 233.03691 173.38586 233.03691Q172.22961 233.03691 171.54211 233.72441Q170.87024 234.41191 170.85461 235.61504L169.22961 235.44316Q169.40149 233.63066 170.47961 232.67754Q171.57336 231.72441 173.41711 231.72441Q175.26086 231.72441 176.33899 232.75566Q177.43274 233.78691 177.43274 235.30254Q177.43274 236.06816 177.10461 236.81816Q176.79211 237.56816 176.05774 238.39629Q175.32336 239.22441 173.62024 240.66191Q172.19836 241.86504 171.79211 242.28691Q171.38586 242.70879 171.13586 243.14629L177.44836 243.14629ZM179.13586 238.30254Q179.13586 236.02129 179.60461 234.63066Q180.07336 233.24004 180.99524 232.49004Q181.93274 231.72441 183.33899 231.72441Q184.37024 231.72441 185.15149 232.14629Q185.93274 232.55254 186.43274 233.34941Q186.94836 234.13066 187.24524 235.27129Q187.54211 236.39629 187.54211 238.30254Q187.54211 240.56816 187.07336 241.97441Q186.60461 243.36504 185.66711 244.13066Q184.74524 244.88066 183.33899 244.88066Q181.46399 244.88066 180.40149 243.55254Q179.13586 241.94316 179.13586 238.30254ZM180.76086 238.30254Q180.76086 241.47441 181.49524 242.53691Q182.24524 243.58379 183.33899 243.58379Q184.41711 243.58379 185.16711 242.53691Q185.91711 241.47441 185.91711 238.30254Q185.91711 235.13066 185.16711 234.08379Q184.41711 233.03691 183.32336 233.03691Q182.22961 233.03691 181.57336 233.95879Q180.76086 235.13066 180.76086 238.30254ZM190.02649 244.66191L190.02649 242.86504L191.82336 242.86504L191.82336 244.66191L190.02649 244.66191ZM194.13586 238.30254Q194.13586 236.02129 194.60461 234.63066Q195.07336 233.24004 195.99524 232.49004Q196.93274 231.72441 198.33899 231.72441Q199.37024 231.72441 200.15149 232.14629Q200.93274 232.55254 201.43274 233.34941Q201.94836 234.13066 202.24524 235.27129Q202.54211 236.39629 202.54211 238.30254Q202.54211 240.56816 202.07336 241.97441Q201.60461 243.36504 200.66711 244.13066Q199.74524 244.88066 198.33899 244.88066Q196.46399 244.88066 195.40149 243.55254Q194.13586 241.94316 194.13586 238.30254ZM195.76086 238.30254Q195.76086 241.47441 196.49524 242.53691Q197.24524 243.58379 198.33899 243.58379Q199.41711 243.58379 200.16711 242.53691Q200.91711 241.47441 200.91711 238.30254Q200.91711 235.13066 200.16711 234.08379Q199.41711 233.03691 198.32336 233.03691Q197.22961 233.03691 196.57336 233.95879Q195.76086 235.13066 195.76086 238.30254ZM204.43274 234.86504Q204.43274 233.49004 205.12024 232.52129Q205.82336 231.55254 207.13586 231.55254Q208.35461 231.55254 209.15149 232.42754Q209.94836 233.28691 209.94836 234.97441Q209.94836 236.59941 209.13586 237.49004Q208.33899 238.36504 207.15149 238.36504Q205.99524 238.36504 205.21399 237.50566Q204.43274 236.63066 204.43274 234.86504ZM207.18274 232.64629Q206.58899 232.64629 206.19836 233.16191Q205.80774 233.66191 205.80774 235.02129Q205.80774 236.27129 206.19836 236.77129Q206.60461 237.27129 207.18274 237.27129Q207.77649 237.27129 208.16711 236.77129Q208.55774 236.25566 208.55774 234.91191Q208.55774 233.66191 208.16711 233.16191Q207.77649 232.64629 207.18274 232.64629ZM207.19836 245.13066L214.24524 231.55254L215.52649 231.55254L208.49524 245.13066L207.19836 245.13066ZM212.76086 241.63066Q212.76086 240.25566 213.44836 239.28691Q214.15149 238.31816 215.47961 238.31816Q216.69836 238.31816 217.47961 239.19316Q218.27649 240.05254 218.27649 241.74004Q218.27649 243.36504 217.47961 244.25566Q216.68274 245.13066 215.49524 245.13066Q214.32336 245.13066 213.54211 244.25566Q212.76086 243.38066 212.76086 241.63066ZM215.52649 239.41191Q214.93274 239.41191 214.54211 239.92754Q214.15149 240.42754 214.15149 241.80254Q214.15149 243.02129 214.54211 243.53691Q214.93274 244.05254 215.51086 244.05254Q216.12024 244.05254 216.51086 243.53691Q216.90149 243.02129 216.90149 241.67754Q216.90149 240.42754 216.51086 239.92754Q216.12024 239.41191 215.52649 239.41191Z" fill-rule="nonzero"/><path fill="#ffffff" d="M217.98036 118.401634L217.98036 119.91726L209.46474 119.91726Q209.44911 119.339134 209.65224 118.82351Q209.98036 117.94851 210.68349 117.10476Q211.40224 116.26101 212.76161 115.151634Q214.85536 113.432884 215.58974 112.432884Q216.33974 111.41726 216.33974 110.526634Q216.33974 109.57351 215.66786 108.932884Q214.99599 108.29226 213.91786 108.29226Q212.76161 108.29226 212.07411 108.97976Q211.40224 109.66726 211.38661 110.870384L209.76161 110.69851Q209.93349 108.88601 211.01161 107.932884Q212.10536 106.97976 213.94911 106.97976Q215.79286 106.97976 216.87099 108.01101Q217.96474 109.04226 217.96474 110.557884Q217.96474 111.32351 217.63661 112.07351Q217.32411 112.82351 216.58974 113.651634Q215.85536 114.47976 214.15224 115.91726Q212.73036 117.120384 212.32411 117.54226Q211.91786 117.964134 211.66786 118.401634L217.98036 118.401634ZM219.66786 113.557884Q219.66786 111.276634 220.13661 109.88601Q220.60536 108.495384 221.52724 107.745384Q222.46474 106.97976 223.87099 106.97976Q224.90224 106.97976 225.68349 107.401634Q226.46474 107.807884 226.96474 108.60476Q227.48036 109.38601 227.77724 110.526634Q228.07411 111.651634 228.07411 113.557884Q228.07411 115.82351 227.60536 117.22976Q227.13661 118.620384 226.19911 119.38601Q225.27724 120.13601 223.87099 120.13601Q221.99599 120.13601 220.93349 118.807884Q219.66786 117.19851 219.66786 113.557884ZM221.29286 113.557884Q221.29286 116.72976 222.02724 117.79226Q222.77724 118.839134 223.87099 118.839134Q224.94911 118.839134 225.69911 117.79226Q226.44911 116.72976 226.44911 113.557884Q226.44911 110.38601 225.69911 109.339134Q224.94911 108.29226 223.85536 108.29226Q222.76161 108.29226 222.10536 109.214134Q221.29286 110.38601 221.29286 113.557884ZM230.55849 119.91726L230.55849 118.120384L232.35536 118.120384L232.35536 119.91726L230.55849 119.91726ZM234.66786 113.557884Q234.66786 111.276634 235.13661 109.88601Q235.60536 108.495384 236.52724 107.745384Q237.46474 106.97976 238.87099 106.97976Q239.90224 106.97976 240.68349 107.401634Q241.46474 107.807884 241.96474 108.60476Q242.48036 109.38601 242.77724 110.526634Q243.07411 111.651634 243.07411 113.557884Q243.07411 115.82351 242.60536 117.22976Q242.13661 118.620384 241.19911 119.38601Q240.27724 120.13601 238.87099 120.13601Q236.99599 120.13601 235.93349 118.807884Q234.66786 117.19851 234.66786 113.557884ZM236.29286 113.557884Q236.29286 116.72976 237.02724 117.79226Q237.77724 118.839134 238.87099 118.839134Q239.94911 118.839134 240.69911 117.79226Q241.44911 116.72976 241.44911 113.557884Q241.44911 110.38601 240.69911 109.339134Q239.94911 108.29226 238.85536 108.29226Q237.76161 108.29226 237.10536 109.214134Q236.29286 110.38601 236.29286 113.557884ZM244.96474 110.120384Q244.96474 108.745384 245.65224 107.776634Q246.35536 106.807884 247.66786 106.807884Q248.88661 106.807884 249.68349 107.682884Q250.48036 108.54226 250.48036 110.22976Q250.48036 111.85476 249.66786 112.745384Q248.87099 113.620384 247.68349 113.620384Q246.52724 113.620384 245.74599 112.76101Q244.96474 111.88601 244.96474 110.120384ZM247.71474 107.901634Q247.12099 107.901634 246.73036 108.41726Q246.33974 108.91726 246.33974 110.276634Q246.33974 111.526634 246.73036 112.026634Q247.13661 112.526634 247.71474 112.526634Q248.30849 112.526634 248.69911 112.026634Q249.08974 111.51101 249.08974 110.16726Q249.08974 108.91726 248.69911 108.41726Q248.30849 107.901634 247.71474 107.901634ZM247.73036 120.38601L254.77724 106.807884L256.05847 106.807884L249.02724 120.38601L247.73036 120.38601ZM253.29286 116.88601Q253.29286 115.51101 253.98036 114.54226Q254.68349 113.57351 256.0116 113.57351Q257.23035 113.57351 258.0116 114.44851Q258.80847 115.307884 258.80847 116.995384Q258.80847 118.620384 258.0116 119.51101Q257.21472 120.38601 256.02722 120.38601Q254.85536 120.38601 254.07411 119.51101Q253.29286 118.63601 253.29286 116.88601ZM256.05847 114.66726Q255.46474 114.66726 255.07411 115.182884Q254.68349 115.682884 254.68349 117.057884Q254.68349 118.276634 255.07411 118.79226Q255.46474 119.307884 256.04285 119.307884Q256.65222 119.307884 257.04285 118.79226Q257.43347 118.276634 257.43347 116.932884Q257.43347 115.682884 257.04285 115.182884Q256.65222 114.66726 256.05847 114.66726Z" fill-rule="nonzero"/><path stroke="#ffffff" stroke-width="1.0" stroke-linejoin="round" stroke-linecap="round" d="M370.74277 226.66905C378.1006 204.02394 374.17282 179.22499 360.17737 159.96191C346.18195 140.69882 323.8105 129.3 300.0 129.3L300.0 54.916668C347.62094 54.916668 392.36386 77.71432 420.35477 116.24048C448.34564 154.76665 456.2012 204.36455 441.4855 249.65475" fill-rule="nonzero"/><path stroke="#ffffff" stroke-width="1.0" stroke-linejoin="round" stroke-linecap="round" d="M343.72144 263.86072C356.42963 254.62766 365.88864 241.60844 370.74277 226.66905L441.4855 249.65475C431.77728 279.53357 412.85928 305.572 387.44284 324.0381" fill-rule="nonzero"/><path stroke="#ffffff" stroke-width="1.0" stroke-linejoin="round" stroke-linecap="round" d="M256.27856 263.86072C282.349 282.80197 317.651 282.80197 343.72144 263.86072L387.44284 324.0381C335.302 361.92062 264.698 361.92062 212.55714 324.0381" fill-rule="nonzero"/><path stroke="#ffffff" stroke-width="1.0" stroke-linejoin="round" stroke-linecap="round" d="M229.25725 180.69762C219.29922 211.34525 230.20815 244.91945 256.27856 263.86072L212.55714 324.0381C160.4163 286.15555 138.59846 219.00714 158.5145 157.7119" fill-rule="nonzero"/><path stroke="#ffffff" stroke-width="1.0" stroke-linejoin="round" stroke-linecap="round" d="M300.0 129.3C267.77518 129.3 239.21526 150.05 229.25725 180.69762L158.5145 157.7119C178.43053 96.416664 235.55037 54.916668 300.0 54.916668" fill-rule="nonzero"/><path fill="#efefef" d="M19.76875 83.84631L19.76875 72.39319L21.33125 72.39319L27.346874 81.37756L27.346874 72.39319L28.8 72.39319L28.8 83.84631L27.2375 83.84631L21.221874 74.84631L21.221874 83.84631L19.76875 83.84631ZM37.01875 82.81506Q36.2375 83.48694 35.51875 83.76819Q34.8 84.03381 33.971874 84.03381Q32.596874 84.03381 31.8625 83.36194Q31.128124 82.69006 31.128124 81.65881Q31.128124 81.04944 31.409374 80.54944Q31.690624 80.03381 32.128124 79.73694Q32.58125 79.42444 33.14375 79.26819Q33.565624 79.15881 34.39375 79.06506Q36.096874 78.86194 36.909374 78.58069Q36.909374 78.28381 36.909374 78.20569Q36.909374 77.34631 36.51875 77.00256Q35.971874 76.51819 34.909374 76.51819Q33.925 76.51819 33.440624 76.87756Q32.971874 77.22131 32.753124 78.09631L31.378124 77.90881Q31.565624 77.03381 31.9875 76.48694Q32.425 75.94006 33.2375 75.65881Q34.05 75.36194 35.1125 75.36194Q36.175 75.36194 36.83125 75.61194Q37.503124 75.86194 37.815624 76.23694Q38.128124 76.61194 38.253124 77.19006Q38.33125 77.54944 38.33125 78.48694L38.33125 80.36194Q38.33125 82.33069 38.409374 82.84631Q38.503124 83.36194 38.76875 83.84631L37.3 83.84631Q37.08125 83.40881 37.01875 82.81506ZM36.909374 79.67444Q36.14375 79.98694 34.6125 80.20569Q33.7375 80.33069 33.378124 80.48694Q33.01875 80.64319 32.815624 80.95569Q32.628124 81.25256 32.628124 81.61194Q32.628124 82.17444 33.05 82.54944Q33.4875 82.92444 34.3 82.92444Q35.1125 82.92444 35.7375 82.58069Q36.378124 82.22131 36.675 81.59631Q36.909374 81.12756 36.909374 80.19006L36.909374 79.67444ZM42.909374 83.84631L39.753124 75.54944L41.2375 75.54944L43.01875 80.51819Q43.315624 81.31506 43.55 82.19006Q43.7375 81.53381 44.08125 80.61194L45.925 75.54944L47.3625 75.54944L44.221874 83.84631L42.909374 83.84631ZM54.01875 82.81506Q53.2375 83.48694 52.51875 83.76819Q51.8 84.03381 50.971874 84.03381Q49.596874 84.03381 48.8625 83.36194Q48.128124 82.69006 48.128124 81.65881Q48.128124 81.04944 48.409374 80.54944Q48.690624 80.03381 49.128124 79.73694Q49.58125 79.42444 50.14375 79.26819Q50.565624 79.15881 51.39375 79.06506Q53.096874 78.86194 53.909374 78.58069Q53.909374 78.28381 53.909374 78.20569Q53.909374 77.34631 53.51875 77.00256Q52.971874 76.51819 51.909374 76.51819Q50.925 76.51819 50.440624 76.87756Q49.971874 77.22131 49.753124 78.09631L48.378124 77.90881Q48.565624 77.03381 48.9875 76.48694Q49.425 75.94006 50.2375 75.65881Q51.05 75.36194 52.1125 75.36194Q53.175 75.36194 53.83125 75.61194Q54.503124 75.86194 54.815624 76.23694Q55.128124 76.61194 55.253124 77.19006Q55.33125 77.54944 55.33125 78.48694L55.33125 80.36194Q55.33125 82.33069 55.409374 82.84631Q55.503124 83.36194 55.76875 83.84631L54.3 83.84631Q54.08125 83.40881 54.01875 82.81506ZM53.909374 79.67444Q53.14375 79.98694 51.6125 80.20569Q50.7375 80.33069 50.378124 80.48694Q50.01875 80.64319 49.815624 80.95569Q49.628124 81.25256 49.628124 81.61194Q49.628124 82.17444 50.05 82.54944Q50.4875 82.92444 51.3 82.92444Q52.1125 82.92444 52.7375 82.58069Q53.378124 82.22131 53.675 81.59631Q53.909374 81.12756 53.909374 80.19006L53.909374 79.67444ZM57.58125 83.84631L57.58125 72.39319L58.9875 72.39319L58.9875 83.84631L57.58125 83.84631ZM65.26875 80.15881L66.70625 80.03381Q66.8 80.89319 67.175 81.45569Q67.55 82.00256 68.33125 82.34631Q69.1125 82.67444 70.08125 82.67444Q70.95625 82.67444 71.6125 82.42444Q72.28438 82.15881 72.59688 81.72131Q72.925 81.26819 72.925 80.73694Q72.925 80.19006 72.6125 79.79944Q72.3 79.39319 71.58125 79.11194Q71.12813 78.94006 69.55 78.56506Q67.97188 78.17444 67.33125 77.84631Q66.51875 77.40881 66.1125 76.78381Q65.70625 76.14319 65.70625 75.34631Q65.70625 74.48694 66.19063 73.73694Q66.69063 72.97131 67.62813 72.58069Q68.58125 72.19006 69.7375 72.19006Q71.01875 72.19006 71.9875 72.61194Q72.95625 73.01819 73.47188 73.81506Q74.00313 74.61194 74.05 75.61194L72.59688 75.72131Q72.47188 74.64319 71.8 74.09631Q71.12813 73.53381 69.8 73.53381Q68.425 73.53381 67.8 74.03381Q67.175 74.53381 67.175 75.25256Q67.175 75.86194 67.6125 76.26819Q68.05 76.65881 69.89375 77.08069Q71.75313 77.50256 72.44063 77.81506Q73.44063 78.26819 73.90938 78.98694Q74.39375 79.69006 74.39375 80.61194Q74.39375 81.51819 73.8625 82.33069Q73.34688 83.14319 72.3625 83.59631Q71.37813 84.04944 70.15938 84.04944Q68.59688 84.04944 67.55 83.59631Q66.50313 83.12756 65.89375 82.22131Q65.3 81.31506 65.26875 80.15881ZM79.675 82.58069L79.87813 83.83069Q79.28438 83.95569 78.81563 83.95569Q78.05 83.95569 77.62813 83.72131Q77.20625 83.47131 77.03438 83.08069Q76.8625 82.67444 76.8625 81.40881L76.8625 76.64319L75.83125 76.64319L75.83125 75.54944L76.8625 75.54944L76.8625 73.48694L78.26875 72.64319L78.26875 75.54944L79.675 75.54944L79.675 76.64319L78.26875 76.64319L78.26875 81.48694Q78.26875 82.09631 78.33125 82.26819Q78.40938 82.44006 78.58125 82.54944Q78.75313 82.64319 79.06563 82.64319Q79.3 82.64319 79.675 82.58069ZM80.59688 83.84631L80.59688 75.54944L81.8625 75.54944L81.8625 76.79944Q82.34688 75.92444 82.75313 75.64319Q83.15938 75.36194 83.65938 75.36194Q84.3625 75.36194 85.09688 75.81506L84.6125 77.11194Q84.09688 76.81506 83.58125 76.81506Q83.12813 76.81506 82.75313 77.09631Q82.39375 77.36194 82.2375 77.86194Q82.00313 78.61194 82.00313 79.50256L82.00313 83.84631L80.59688 83.84631ZM91.05 83.84631L91.05 82.62756Q90.08125 84.03381 88.40938 84.03381Q87.675 84.03381 87.03438 83.75256Q86.40938 83.47131 86.09688 83.04944Q85.78438 82.61194 85.65938 82.00256Q85.58125 81.58069 85.58125 80.69006L85.58125 75.54944L86.9875 75.54944L86.9875 80.14319Q86.9875 81.25256 87.06563 81.62756Q87.20625 82.19006 87.62813 82.50256Q88.06563 82.81506 88.69063 82.81506Q89.33125 82.81506 89.87813 82.50256Q90.44063 82.17444 90.65938 81.61194Q90.89375 81.04944 90.89375 79.98694L90.89375 75.54944L92.3 75.54944L92.3 83.84631L91.05 83.84631ZM100.01875 80.79944L101.40938 80.98694Q101.175 82.40881 100.2375 83.22131Q99.31563 84.03381 97.95625 84.03381Q96.25313 84.03381 95.20625 82.92444Q94.175 81.79944 94.175 79.72131Q94.175 78.37756 94.6125 77.37756Q95.06563 76.36194 95.97188 75.86194Q96.89375 75.36194 97.95625 75.36194Q99.31563 75.36194 100.175 76.04944Q101.03438 76.72131 101.26875 77.98694L99.90938 78.19006Q99.70625 77.36194 99.20625 76.94006Q98.72188 76.51819 98.01875 76.51819Q96.95625 76.51819 96.28438 77.28381Q95.62813 78.03381 95.62813 79.69006Q95.62813 81.36194 96.26875 82.12756Q96.90938 82.87756 97.94063 82.87756Q98.76875 82.87756 99.31563 82.37756Q99.87813 81.86194 100.01875 80.79944ZM105.675 82.58069L105.87813 83.83069Q105.28438 83.95569 104.81563 83.95569Q104.05 83.95569 103.62813 83.72131Q103.20625 83.47131 103.03438 83.08069Q102.8625 82.67444 102.8625 81.40881L102.8625 76.64319L101.83125 76.64319L101.83125 75.54944L102.8625 75.54944L102.8625 73.48694L104.26875 72.64319L104.26875 75.54944L105.675 75.54944L105.675 76.64319L104.26875 76.64319L104.26875 81.48694Q104.26875 82.09631 104.33125 82.26819Q104.40938 82.44006 104.58125 82.54944Q104.75313 82.64319 105.06563 82.64319Q105.3 82.64319 105.675 82.58069ZM112.05 83.84631L112.05 82.62756Q111.08125 84.03381 109.40938 84.03381Q108.675 84.03381 108.03438 83.75256Q107.40938 83.47131 107.09688 83.04944Q106.78438 82.61194 106.65938 82.00256Q106.58125 81.58069 106.58125 80.69006L106.58125 75.54944L107.9875 75.54944L107.9875 80.14319Q107.9875 81.25256 108.06563 81.62756Q108.20625 82.19006 108.62813 82.50256Q109.06563 82.81506 109.69063 82.81506Q110.33125 82.81506 110.87813 82.50256Q111.44063 82.17444 111.65938 81.61194Q111.89375 81.04944 111.89375 79.98694L111.89375 75.54944L113.3 75.54944L113.3 83.84631L112.05 83.84631ZM115.59688 83.84631L115.59688 75.54944L116.8625 75.54944L116.8625 76.79944Q117.34688 75.92444 117.75313 75.64319Q118.15938 75.36194 118.65938 75.36194Q119.3625 75.36194 120.09688 75.81506L119.6125 77.11194Q119.09688 76.81506 118.58125 76.81506Q118.12813 76.81506 117.75313 77.09631Q117.39375 77.36194 117.2375 77.86194Q117.00313 78.61194 117.00313 79.50256L117.00313 83.84631L115.59688 83.84631ZM126.28438 81.17444L127.7375 81.34631Q127.39375 82.62756 126.45625 83.33069Q125.53438 84.03381 124.09688 84.03381Q122.26875 84.03381 121.20625 82.90881Q120.14375 81.78381 120.14375 79.76819Q120.14375 77.67444 121.22188 76.51819Q122.3 75.36194 124.01875 75.36194Q125.675 75.36194 126.72188 76.50256Q127.78438 77.62756 127.78438 79.67444Q127.78438 79.79944 127.78438 80.04944L121.59688 80.04944Q121.675 81.42444 122.3625 82.15881Q123.06563 82.87756 124.09688 82.87756Q124.87813 82.87756 125.425 82.47131Q125.97188 82.06506 126.28438 81.17444ZM121.675 78.89319L126.3 78.89319Q126.20625 77.84631 125.76875 77.33069Q125.09688 76.51819 124.03438 76.51819Q123.06563 76.51819 122.39375 77.17444Q121.7375 77.81506 121.675 78.89319ZM129.05 81.36194L130.44063 81.14319Q130.55 81.98694 131.08125 82.44006Q131.62813 82.87756 132.58125 82.87756Q133.55 82.87756 134.01875 82.48694Q134.4875 82.08069 134.4875 81.54944Q134.4875 81.08069 134.08125 80.79944Q133.78438 80.61194 132.64375 80.33069Q131.09688 79.94006 130.4875 79.65881Q129.89375 79.36194 129.58125 78.86194Q129.28438 78.36194 129.28438 77.75256Q129.28438 77.19006 129.53438 76.72131Q129.78438 76.25256 130.22188 75.94006Q130.55 75.69006 131.1125 75.53381Q131.69063 75.36194 132.33125 75.36194Q133.31563 75.36194 134.05 75.64319Q134.78438 75.92444 135.12813 76.40881Q135.4875 76.87756 135.62813 77.69006L134.25313 77.87756Q134.15938 77.23694 133.70625 76.87756Q133.25313 76.51819 132.44063 76.51819Q131.47188 76.51819 131.05 76.84631Q130.64375 77.15881 130.64375 77.58069Q130.64375 77.86194 130.81563 78.08069Q130.9875 78.29944 131.34688 78.45569Q131.56563 78.53381 132.59688 78.81506Q134.08125 79.20569 134.675 79.47131Q135.26875 79.72131 135.59688 80.20569Q135.94063 80.69006 135.94063 81.40881Q135.94063 82.11194 135.51875 82.73694Q135.1125 83.34631 134.33125 83.69006Q133.56563 84.03381 132.59688 84.03381Q130.97188 84.03381 130.12813 83.36194Q129.28438 82.69006 129.05 81.36194Z" fill-rule="nonzero"/><path fill="#9e9e9e" d="M26.6125 104.48694L26.6125 105.84631L19.034374 105.84631Q19.01875 105.33069 19.20625 104.86194Q19.4875 104.09631 20.128124 103.34631Q20.76875 102.59631 21.971874 101.61194Q23.83125 100.08069 24.4875 99.19006Q25.14375 98.28381 25.14375 97.48694Q25.14375 96.65881 24.55 96.08069Q23.95625 95.50256 22.9875 95.50256Q21.971874 95.50256 21.3625 96.11194Q20.753124 96.72131 20.753124 97.79944L19.3 97.65881Q19.45625 96.03381 20.425 95.19006Q21.39375 94.34631 23.01875 94.34631Q24.675 94.34631 25.628124 95.26819Q26.596874 96.17444 26.596874 97.51819Q26.596874 98.20569 26.315624 98.87756Q26.034374 99.53381 25.378124 100.26819Q24.721874 101.00256 23.20625 102.28381Q21.940624 103.34631 21.58125 103.73694Q21.221874 104.11194 20.9875 104.48694L26.6125 104.48694ZM28.221874 100.19006Q28.221874 98.15881 28.628124 96.92444Q29.05 95.69006 29.878124 95.01819Q30.70625 94.34631 31.95625 94.34631Q32.878124 94.34631 33.565624 94.72131Q34.26875 95.08069 34.721874 95.78381Q35.175 96.48694 35.425 97.48694Q35.690624 98.48694 35.690624 100.19006Q35.690624 102.20569 35.26875 103.45569Q34.8625 104.69006 34.034374 105.37756Q33.20625 106.04944 31.95625 106.04944Q30.3 106.04944 29.346874 104.84631Q28.221874 103.42444 28.221874 100.19006ZM29.659374 100.19006Q29.659374 103.01819 30.315624 103.95569Q30.9875 104.87756 31.95625 104.87756Q32.925 104.87756 33.58125 103.94006Q34.2375 103.00256 34.2375 100.19006Q34.2375 97.36194 33.58125 96.44006Q32.925 95.50256 31.940624 95.50256Q30.971874 95.50256 30.39375 96.33069Q29.659374 97.37756 29.659374 100.19006ZM38.003124 105.84631L38.003124 104.23694L39.6125 104.23694L39.6125 105.84631L38.003124 105.84631ZM41.221874 100.19006Q41.221874 98.15881 41.628124 96.92444Q42.05 95.69006 42.878124 95.01819Q43.70625 94.34631 44.95625 94.34631Q45.878124 94.34631 46.565624 94.72131Q47.26875 95.08069 47.721874 95.78381Q48.175 96.48694 48.425 97.48694Q48.690624 98.48694 48.690624 100.19006Q48.690624 102.20569 48.26875 103.45569Q47.8625 104.69006 47.034374 105.37756Q46.20625 106.04944 44.95625 106.04944Q43.3 106.04944 42.346874 104.84631Q41.221874 103.42444 41.221874 100.19006ZM42.659374 100.19006Q42.659374 103.01819 43.315624 103.95569Q43.9875 104.87756 44.95625 104.87756Q45.925 104.87756 46.58125 103.94006Q47.2375 103.00256 47.2375 100.19006Q47.2375 97.36194 46.58125 96.44006Q45.925 95.50256 44.940624 95.50256Q43.971874 95.50256 43.39375 96.33069Q42.659374 97.37756 42.659374 100.19006ZM50.4875 97.14319Q50.4875 95.90881 51.096874 95.04944Q51.721874 94.19006 52.89375 94.19006Q53.971874 94.19006 54.675 94.97131Q55.378124 95.73694 55.378124 97.22131Q55.378124 98.67444 54.659374 99.47131Q53.95625 100.25256 52.909374 100.25256Q51.8625 100.25256 51.175 99.48694Q50.4875 98.70569 50.4875 97.14319ZM52.925 95.15881Q52.409374 95.15881 52.05 95.61194Q51.70625 96.06506 51.70625 97.28381Q51.70625 98.37756 52.05 98.83069Q52.409374 99.28381 52.925 99.28381Q53.45625 99.28381 53.8 98.83069Q54.159374 98.37756 54.159374 97.17444Q54.159374 96.06506 53.8 95.61194Q53.45625 95.15881 52.925 95.15881ZM52.940624 106.26819L59.20625 94.19006L60.346874 94.19006L54.096874 106.26819L52.940624 106.26819ZM57.89375 103.15881Q57.89375 101.92444 58.503124 101.06506Q59.128124 100.20569 60.3 100.20569Q61.378124 100.20569 62.08125 100.98694Q62.8 101.75256 62.8 103.23694Q62.8 104.69006 62.08125 105.48694Q61.3625 106.26819 60.315624 106.26819Q59.26875 106.26819 58.58125 105.48694Q57.89375 104.70569 57.89375 103.15881ZM60.346874 101.17444Q59.815624 101.17444 59.45625 101.62756Q59.1125 102.08069 59.1125 103.29944Q59.1125 104.39319 59.45625 104.84631Q59.815624 105.29944 60.33125 105.29944Q60.878124 105.29944 61.221874 104.84631Q61.565624 104.39319 61.565624 103.19006Q61.565624 102.08069 61.20625 101.62756Q60.8625 101.17444 60.346874 101.17444Z" fill-rule="nonzero"/><path stroke="#757575" stroke-width="1.0" stroke-linecap="butt" d="M18.55 89.34631L145.23334 89.34631L216.92929 89.34631" fill-rule="nonzero"/><path fill="#9e9e9e" d="M218.92929 89.34631C218.92929 88.24174 218.03386 87.34631 216.92929 87.34631C215.82472 87.34631 214.92929 88.24174 214.92929 89.34631C214.92929 90.45088 215.82472 91.34631 216.92929 91.34631C218.03386 91.34631 218.92929 90.45088 218.92929 89.34631" fill-rule="nonzero"/><path fill="#efefef" d="M19.76875 241.85619L19.76875 230.40306L21.33125 230.40306L27.346874 239.38744L27.346874 230.40306L28.8 230.40306L28.8 241.85619L27.2375 241.85619L21.221874 232.85619L21.221874 241.85619L19.76875 241.85619ZM37.01875 240.82494Q36.2375 241.49681 35.51875 241.77806Q34.8 242.04369 33.971874 242.04369Q32.596874 242.04369 31.8625 241.37181Q31.128124 240.69994 31.128124 239.66869Q31.128124 239.05931 31.409374 238.55931Q31.690624 238.04369 32.128124 237.74681Q32.58125 237.43431 33.14375 237.27806Q33.565624 237.16869 34.39375 237.07494Q36.096874 236.87181 36.909374 236.59056Q36.909374 236.29369 36.909374 236.21556Q36.909374 235.35619 36.51875 235.01244Q35.971874 234.52806 34.909374 234.52806Q33.925 234.52806 33.440624 234.88744Q32.971874 235.23119 32.753124 236.10619L31.378124 235.91869Q31.565624 235.04369 31.9875 234.49681Q32.425 233.94994 33.2375 233.66869Q34.05 233.37181 35.1125 233.37181Q36.175 233.37181 36.83125 233.62181Q37.503124 233.87181 37.815624 234.24681Q38.128124 234.62181 38.253124 235.19994Q38.33125 235.55931 38.33125 236.49681L38.33125 238.37181Q38.33125 240.34056 38.409374 240.85619Q38.503124 241.37181 38.76875 241.85619L37.3 241.85619Q37.08125 241.41869 37.01875 240.82494ZM36.909374 237.68431Q36.14375 237.99681 34.6125 238.21556Q33.7375 238.34056 33.378124 238.49681Q33.01875 238.65306 32.815624 238.96556Q32.628124 239.26244 32.628124 239.62181Q32.628124 240.18431 33.05 240.55931Q33.4875 240.93431 34.3 240.93431Q35.1125 240.93431 35.7375 240.59056Q36.378124 240.23119 36.675 239.60619Q36.909374 239.13744 36.909374 238.19994L36.909374 237.68431ZM43.675 240.59056L43.878124 241.84056Q43.284374 241.96556 42.815624 241.96556Q42.05 241.96556 41.628124 241.73119Q41.20625 241.48119 41.034374 241.09056Q40.8625 240.68431 40.8625 239.41869L40.8625 234.65306L39.83125 234.65306L39.83125 233.55931L40.8625 233.55931L40.8625 231.49681L42.26875 230.65306L42.26875 233.55931L43.675 233.55931L43.675 234.65306L42.26875 234.65306L42.26875 239.49681Q42.26875 240.10619 42.33125 240.27806Q42.409374 240.44994 42.58125 240.55931Q42.753124 240.65306 43.065624 240.65306Q43.3 240.65306 43.675 240.59056ZM50.05 241.85619L50.05 240.63744Q49.08125 242.04369 47.409374 242.04369Q46.675 242.04369 46.034374 241.76244Q45.409374 241.48119 45.096874 241.05931Q44.784374 240.62181 44.659374 240.01244Q44.58125 239.59056 44.58125 238.69994L44.58125 233.55931L45.9875 233.55931L45.9875 238.15306Q45.9875 239.26244 46.065624 239.63744Q46.20625 240.19994 46.628124 240.51244Q47.065624 240.82494 47.690624 240.82494Q48.33125 240.82494 48.878124 240.51244Q49.440624 240.18431 49.659374 239.62181Q49.89375 239.05931 49.89375 237.99681L49.89375 233.55931L51.3 233.55931L51.3 241.85619L50.05 241.85619ZM53.596874 241.85619L53.596874 233.55931L54.8625 233.55931L54.8625 234.80931Q55.346874 233.93431 55.753124 233.65306Q56.159374 233.37181 56.659374 233.37181Q57.3625 233.37181 58.096874 233.82494L57.6125 235.12181Q57.096874 234.82494 56.58125 234.82494Q56.128124 234.82494 55.753124 235.10619Q55.39375 235.37181 55.2375 235.87181Q55.003124 236.62181 55.003124 237.51244L55.003124 241.85619L53.596874 241.85619ZM64.01875 240.82494Q63.2375 241.49681 62.51875 241.77806Q61.8 242.04369 60.971874 242.04369Q59.596874 242.04369 58.8625 241.37181Q58.128124 240.69994 58.128124 239.66869Q58.128124 239.05931 58.409374 238.55931Q58.690624 238.04369 59.128124 237.74681Q59.58125 237.43431 60.14375 237.27806Q60.565624 237.16869 61.39375 237.07494Q63.096874 236.87181 63.909374 236.59056Q63.909374 236.29369 63.909374 236.21556Q63.909374 235.35619 63.51875 235.01244Q62.971874 234.52806 61.909374 234.52806Q60.925 234.52806 60.440624 234.88744Q59.971874 235.23119 59.753124 236.10619L58.378124 235.91869Q58.565624 235.04369 58.9875 234.49681Q59.425 233.94994 60.2375 233.66869Q61.05 233.37181 62.1125 233.37181Q63.175 233.37181 63.83125 233.62181Q64.50313 233.87181 64.81563 234.24681Q65.12813 234.62181 65.25313 235.19994Q65.33125 235.55931 65.33125 236.49681L65.33125 238.37181Q65.33125 240.34056 65.40938 240.85619Q65.50313 241.37181 65.76875 241.85619L64.3 241.85619Q64.08125 241.41869 64.01875 240.82494ZM63.909374 237.68431Q63.14375 237.99681 61.6125 238.21556Q60.7375 238.34056 60.378124 238.49681Q60.01875 238.65306 59.815624 238.96556Q59.628124 239.26244 59.628124 239.62181Q59.628124 240.18431 60.05 240.55931Q60.4875 240.93431 61.3 240.93431Q62.1125 240.93431 62.7375 240.59056Q63.378124 240.23119 63.675 239.60619Q63.909374 239.13744 63.909374 238.19994L63.909374 237.68431ZM67.58125 241.85619L67.58125 230.40306L68.9875 230.40306L68.9875 241.85619L67.58125 241.85619Z" fill-rule="nonzero"/><path fill="#9e9e9e" d="M26.6125 262.49683L26.6125 263.8562L19.034374 263.8562Q19.01875 263.34058 19.20625 262.87183Q19.4875 262.1062 20.128124 261.3562Q20.76875 260.6062 21.971874 259.62183Q23.83125 258.09058 24.4875 257.19995Q25.14375 256.2937 25.14375 255.49683Q25.14375 254.6687 24.55 254.09058Q23.95625 253.51245 22.9875 253.51245Q21.971874 253.51245 21.3625 254.12183Q20.753124 254.7312 20.753124 255.80933L19.3 255.6687Q19.45625 254.0437 20.425 253.19995Q21.39375 252.3562 23.01875 252.3562Q24.675 252.3562 25.628124 253.27808Q26.596874 254.18433 26.596874 255.52808Q26.596874 256.21558 26.315624 256.88745Q26.034374 257.5437 25.378124 258.27808Q24.721874 259.01245 23.20625 260.2937Q21.940624 261.3562 21.58125 261.74683Q21.221874 262.12183 20.9875 262.49683L26.6125 262.49683ZM28.221874 258.19995Q28.221874 256.1687 28.628124 254.93433Q29.05 253.69995 29.878124 253.02808Q30.70625 252.3562 31.95625 252.3562Q32.878124 252.3562 33.565624 252.7312Q34.26875 253.09058 34.721874 253.7937Q35.175 254.49683 35.425 255.49683Q35.690624 256.49683 35.690624 258.19995Q35.690624 260.21558 35.26875 261.46558Q34.8625 262.69995 34.034374 263.38745Q33.20625 264.05933 31.95625 264.05933Q30.3 264.05933 29.346874 262.8562Q28.221874 261.43433 28.221874 258.19995ZM29.659374 258.19995Q29.659374 261.02808 30.315624 261.96558Q30.9875 262.88745 31.95625 262.88745Q32.925 262.88745 33.58125 261.94995Q34.2375 261.01245 34.2375 258.19995Q34.2375 255.37183 33.58125 254.44995Q32.925 253.51245 31.940624 253.51245Q30.971874 253.51245 30.39375 254.34058Q29.659374 255.38745 29.659374 258.19995ZM38.003124 263.8562L38.003124 262.24683L39.6125 262.24683L39.6125 263.8562L38.003124 263.8562ZM41.221874 258.19995Q41.221874 256.1687 41.628124 254.93433Q42.05 253.69995 42.878124 253.02808Q43.70625 252.3562 44.95625 252.3562Q45.878124 252.3562 46.565624 252.7312Q47.26875 253.09058 47.721874 253.7937Q48.175 254.49683 48.425 255.49683Q48.690624 256.49683 48.690624 258.19995Q48.690624 260.21558 48.26875 261.46558Q47.8625 262.69995 47.034374 263.38745Q46.20625 264.05933 44.95625 264.05933Q43.3 264.05933 42.346874 262.8562Q41.221874 261.43433 41.221874 258.19995ZM42.659374 258.19995Q42.659374 261.02808 43.315624 261.96558Q43.9875 262.88745 44.95625 262.88745Q45.925 262.88745 46.58125 261.94995Q47.2375 261.01245 47.2375 258.19995Q47.2375 255.37183 46.58125 254.44995Q45.925 253.51245 44.940624 253.51245Q43.971874 253.51245 43.39375 254.34058Q42.659374 255.38745 42.659374 258.19995ZM50.4875 255.15308Q50.4875 253.9187 51.096874 253.05933Q51.721874 252.19995 52.89375 252.19995Q53.971874 252.19995 54.675 252.9812Q55.378124 253.74683 55.378124 255.2312Q55.378124 256.68433 54.659374 257.4812Q53.95625 258.26245 52.909374 258.26245Q51.8625 258.26245 51.175 257.49683Q50.4875 256.71558 50.4875 255.15308ZM52.925 253.1687Q52.409374 253.1687 52.05 253.62183Q51.70625 254.07495 51.70625 255.2937Q51.70625 256.38745 52.05 256.84058Q52.409374 257.2937 52.925 257.2937Q53.45625 257.2937 53.8 256.84058Q54.159374 256.38745 54.159374 255.18433Q54.159374 254.07495 53.8 253.62183Q53.45625 253.1687 52.925 253.1687ZM52.940624 264.27808L59.20625 252.19995L60.346874 252.19995L54.096874 264.27808L52.940624 264.27808ZM57.89375 261.1687Q57.89375 259.93433 58.503124 259.07495Q59.128124 258.21558 60.3 258.21558Q61.378124 258.21558 62.08125 258.99683Q62.8 259.76245 62.8 261.24683Q62.8 262.69995 62.08125 263.49683Q61.3625 264.27808 60.315624 264.27808Q59.26875 264.27808 58.58125 263.49683Q57.89375 262.71558 57.89375 261.1687ZM60.346874 259.18433Q59.815624 259.18433 59.45625 259.63745Q59.1125 260.09058 59.1125 261.30933Q59.1125 262.40308 59.45625 262.8562Q59.815624 263.30933 60.33125 263.30933Q60.878124 263.30933 61.221874 262.8562Q61.565624 262.40308 61.565624 261.19995Q61.565624 260.09058 61.20625 259.63745Q60.8625 259.18433 60.346874 259.18433Z" fill-rule="nonzero"/><path stroke="#757575" stroke-width="1.0" stroke-linecap="butt" d="M18.55 247.35619L145.23334 247.35619L165.58876 247.35619" fill-rule="nonzero"/><path fill="#9e9e9e" d="M167.58876 247.35619C167.58876 246.25162 166.69334 245.35619 165.58876 245.35619C164.48419 245.35619 163.58876 246.25162 163.58876 247.35619C163.58876 248.46075 164.48419 249.35619 165.58876 249.35619C166.69334 249.35619 167.58876 248.46075 167.58876 247.35619" fill-rule="nonzero"/><path fill="#efefef" d="M481.71564 115.112625L481.71564 103.6595L489.9969 103.6595L489.9969 105.00325L483.23126 105.00325L483.23126 108.518875L489.575 108.518875L489.575 109.862625L483.23126 109.862625L483.23126 113.75325L490.2625 113.75325L490.2625 115.112625L481.71564 115.112625ZM495.575 113.847L495.77814 115.097Q495.1844 115.222 494.71564 115.222Q493.95 115.222 493.52814 114.987625Q493.10626 114.737625 492.9344 114.347Q492.7625 113.94075 492.7625 112.675125L492.7625 107.9095L491.73126 107.9095L491.73126 106.81575L492.7625 106.81575L492.7625 104.75325L494.16876 103.9095L494.16876 106.81575L495.575 106.81575L495.575 107.9095L494.16876 107.9095L494.16876 112.75325Q494.16876 113.362625 494.23126 113.5345Q494.3094 113.706375 494.48126 113.81575Q494.65314 113.9095 494.96564 113.9095Q495.2 113.9095 495.575 113.847ZM496.5125 115.112625L496.5125 103.6595L497.91876 103.6595L497.91876 107.768875Q498.90314 106.62825 500.40314 106.62825Q501.325 106.62825 501.9969 106.987625Q502.6844 107.347 502.96564 107.987625Q503.2625 108.62825 503.2625 109.847L503.2625 115.112625L501.85626 115.112625L501.85626 109.847Q501.85626 108.800125 501.40314 108.31575Q500.95 107.831375 500.10626 107.831375Q499.48126 107.831375 498.9344 108.1595Q498.3875 108.487625 498.15314 109.050125Q497.91876 109.597 497.91876 110.56575L497.91876 115.112625L496.5125 115.112625ZM505.5125 115.112625L505.5125 106.81575L506.77814 106.81575L506.77814 107.987625Q507.6844 106.62825 509.41876 106.62825Q510.16876 106.62825 510.79376 106.893875Q511.41876 107.1595 511.73126 107.597Q512.04376 108.0345 512.16876 108.643875Q512.2469 109.0345 512.2469 110.00325L512.2469 115.112625L510.84064 115.112625L510.84064 110.06575Q510.84064 109.206375 510.66876 108.7845Q510.5125 108.347 510.09064 108.097Q509.6844 107.847 509.1219 107.847Q508.21564 107.847 507.5594 108.425125Q506.91876 108.987625 506.91876 110.581375L506.91876 115.112625L505.5125 115.112625ZM514.5125 105.268875L514.5125 103.6595L515.91876 103.6595L515.91876 105.268875L514.5125 105.268875ZM514.5125 115.112625L514.5125 106.81575L515.91876 106.81575L515.91876 115.112625L514.5125 115.112625ZM523.91876 112.06575L525.3094 112.25325Q525.075 113.675125 524.1375 114.487625Q523.21564 115.300125 521.85626 115.300125Q520.15314 115.300125 519.10626 114.19075Q518.075 113.06575 518.075 110.987625Q518.075 109.643875 518.5125 108.643875Q518.96564 107.62825 519.8719 107.12825Q520.79376 106.62825 521.85626 106.62825Q523.21564 106.62825 524.075 107.31575Q524.9344 107.987625 525.16876 109.25325L523.8094 109.456375Q523.60626 108.62825 523.10626 108.206375Q522.6219 107.7845 521.91876 107.7845Q520.85626 107.7845 520.1844 108.550125Q519.52814 109.300125 519.52814 110.956375Q519.52814 112.62825 520.16876 113.393875Q520.8094 114.143875 521.84064 114.143875Q522.66876 114.143875 523.21564 113.643875Q523.77814 113.12825 523.91876 112.06575ZM536.04376 110.612625L536.04376 109.268875L540.90314 109.268875L540.90314 113.518875Q539.77814 114.4095 538.59064 114.862625Q537.40314 115.31575 536.15314 115.31575Q534.46564 115.31575 533.09064 114.597Q531.71564 113.862625 531.0125 112.50325Q530.3094 111.12825 530.3094 109.44075Q530.3094 107.768875 530.9969 106.31575Q531.7 104.862625 533.0125 104.1595Q534.325 103.456375 536.04376 103.456375Q537.27814 103.456375 538.27814 103.862625Q539.29376 104.268875 539.85626 104.987625Q540.4344 105.706375 540.73126 106.862625L539.35626 107.237625Q539.10626 106.362625 538.71564 105.862625Q538.34064 105.362625 537.6219 105.06575Q536.91876 104.75325 536.04376 104.75325Q535.0125 104.75325 534.2469 105.081375Q533.4969 105.393875 533.02814 105.9095Q532.5594 106.425125 532.3094 107.0345Q531.8719 108.097 531.8719 109.347Q531.8719 110.87825 532.3875 111.9095Q532.91876 112.94075 533.91876 113.44075Q534.9344 113.94075 536.075 113.94075Q537.0594 113.94075 537.9969 113.56575Q538.9344 113.175125 539.41876 112.75325L539.41876 110.612625L536.04376 110.612625ZM542.4969 115.112625L542.4969 106.81575L543.7625 106.81575L543.7625 108.06575Q544.2469 107.19075 544.65314 106.9095Q545.0594 106.62825 545.5594 106.62825Q546.2625 106.62825 546.9969 107.081375L546.5125 108.37825Q545.9969 108.081375 545.48126 108.081375Q545.02814 108.081375 544.65314 108.362625Q544.29376 108.62825 544.1375 109.12825Q543.90314 109.87825 543.90314 110.768875L543.90314 115.112625L542.4969 115.112625ZM546.98126 110.956375Q546.98126 108.6595 548.2625 107.550125Q549.34064 106.62825 550.8719 106.62825Q552.59064 106.62825 553.66876 107.75325Q554.7625 108.862625 554.7625 110.847Q554.7625 112.44075 554.27814 113.362625Q553.79376 114.2845 552.8719 114.800125Q551.96564 115.300125 550.8719 115.300125Q549.1375 115.300125 548.0594 114.19075Q546.98126 113.06575 546.98126 110.956375ZM548.4344 110.956375Q548.4344 112.550125 549.1219 113.347Q549.825 114.143875 550.8719 114.143875Q551.91876 114.143875 552.60626 113.347Q553.3094 112.550125 553.3094 110.9095Q553.3094 109.37825 552.60626 108.581375Q551.91876 107.7845 550.8719 107.7845Q549.825 107.7845 549.1219 108.581375Q548.4344 109.362625 548.4344 110.956375ZM561.95 115.112625L561.95 113.893875Q560.98126 115.300125 559.3094 115.300125Q558.575 115.300125 557.9344 115.018875Q557.3094 114.737625 556.9969 114.31575Q556.6844 113.87825 556.5594 113.268875Q556.48126 112.847 556.48126 111.956375L556.48126 106.81575L557.8875 106.81575L557.8875 111.4095Q557.8875 112.518875 557.96564 112.893875Q558.10626 113.456375 558.52814 113.768875Q558.96564 114.081375 559.59064 114.081375Q560.23126 114.081375 560.77814 113.768875Q561.34064 113.44075 561.5594 112.87825Q561.79376 112.31575 561.79376 111.25325L561.79376 106.81575L563.2 106.81575L563.2 115.112625L561.95 115.112625ZM565.5125 118.300125L565.5125 106.81575L566.79376 106.81575L566.79376 107.893875Q567.2469 107.25325 567.8094 106.94075Q568.3875 106.62825 569.2 106.62825Q570.2625 106.62825 571.075 107.175125Q571.8875 107.722 572.29376 108.722Q572.71564 109.706375 572.71564 110.893875Q572.71564 112.175125 572.2469 113.19075Q571.79376 114.206375 570.91876 114.75325Q570.0594 115.300125 569.09064 115.300125Q568.3875 115.300125 567.825 115.00325Q567.27814 114.706375 566.91876 114.25325L566.91876 118.300125L565.5125 118.300125ZM566.77814 111.00325Q566.77814 112.612625 567.41876 113.37825Q568.075 114.143875 568.9969 114.143875Q569.9344 114.143875 570.60626 113.347Q571.27814 112.550125 571.27814 110.893875Q571.27814 109.300125 570.6219 108.518875Q569.96564 107.722 569.0594 107.722Q568.16876 107.722 567.46564 108.56575Q566.77814 109.4095 566.77814 111.00325ZM573.95 112.62825L575.34064 112.4095Q575.45 113.25325 575.98126 113.706375Q576.52814 114.143875 577.48126 114.143875Q578.45 114.143875 578.91876 113.75325Q579.3875 113.347 579.3875 112.81575Q579.3875 112.347 578.98126 112.06575Q578.6844 111.87825 577.54376 111.597Q575.9969 111.206375 575.3875 110.925125Q574.79376 110.62825 574.48126 110.12825Q574.1844 109.62825 574.1844 109.018875Q574.1844 108.456375 574.4344 107.987625Q574.6844 107.518875 575.1219 107.206375Q575.45 106.956375 576.0125 106.800125Q576.59064 106.62825 577.23126 106.62825Q578.21564 106.62825 578.95 106.9095Q579.6844 107.19075 580.02814 107.675125Q580.3875 108.143875 580.52814 108.956375L579.15314 109.143875Q579.0594 108.50325 578.60626 108.143875Q578.15314 107.7845 577.34064 107.7845Q576.3719 107.7845 575.95 108.112625Q575.54376 108.425125 575.54376 108.847Q575.54376 109.12825 575.71564 109.347Q575.8875 109.56575 576.2469 109.722Q576.46564 109.800125 577.4969 110.081375Q578.98126 110.472 579.575 110.737625Q580.16876 110.987625 580.4969 111.472Q580.84064 111.956375 580.84064 112.675125Q580.84064 113.37825 580.41876 114.00325Q580.0125 114.612625 579.23126 114.956375Q578.46564 115.300125 577.4969 115.300125Q575.8719 115.300125 575.02814 114.62825Q574.1844 113.956375 573.95 112.62825Z" fill-rule="nonzero"/><path fill="#9e9e9e" d="M537.1219 134.08138L538.52814 133.89388Q538.77814 135.097 539.35626 135.62825Q539.9344 136.14388 540.77814 136.14388Q541.7625 136.14388 542.45 135.45638Q543.1375 134.76888 543.1375 133.75325Q543.1375 132.7845 542.4969 132.1595Q541.8719 131.5345 540.8875 131.5345Q540.4969 131.5345 539.90314 131.69075L540.0594 130.45638Q540.2 130.472 540.27814 130.472Q541.1844 130.472 541.90314 130.00325Q542.6219 129.5345 542.6219 128.55013Q542.6219 127.7845 542.09064 127.2845Q541.575 126.768875 540.7469 126.768875Q539.91876 126.768875 539.3719 127.2845Q538.825 127.800125 538.66876 128.83138L537.2625 128.58138Q537.52814 127.1595 538.4344 126.393875Q539.35626 125.612625 540.71564 125.612625Q541.65314 125.612625 542.4344 126.018875Q543.23126 126.4095 543.6375 127.112625Q544.0594 127.800125 544.0594 128.58138Q544.0594 129.33138 543.65314 129.94075Q543.2625 130.55013 542.48126 130.9095Q543.4969 131.14388 544.0594 131.87825Q544.6219 132.61263 544.6219 133.722Q544.6219 135.222 543.52814 136.26888Q542.4344 137.31575 540.7625 137.31575Q539.2625 137.31575 538.2625 136.42513Q537.2625 135.51888 537.1219 134.08138ZM546.1219 131.45638Q546.1219 129.42513 546.52814 128.19075Q546.95 126.956375 547.77814 126.2845Q548.60626 125.612625 549.85626 125.612625Q550.77814 125.612625 551.46564 125.987625Q552.16876 126.347 552.6219 127.050125Q553.075 127.75325 553.325 128.75325Q553.59064 129.75325 553.59064 131.45638Q553.59064 133.472 553.16876 134.722Q552.7625 135.95638 551.9344 136.64388Q551.10626 137.31575 549.85626 137.31575Q548.2 137.31575 547.2469 136.11263Q546.1219 134.69075 546.1219 131.45638ZM547.5594 131.45638Q547.5594 134.2845 548.21564 135.222Q548.8875 136.14388 549.85626 136.14388Q550.825 136.14388 551.48126 135.20638Q552.1375 134.26888 552.1375 131.45638Q552.1375 128.62825 551.48126 127.706375Q550.825 126.768875 549.84064 126.768875Q548.8719 126.768875 548.29376 127.597Q547.5594 128.64388 547.5594 131.45638ZM555.90314 137.11263L555.90314 135.50325L557.5125 135.50325L557.5125 137.11263L555.90314 137.11263ZM559.1219 131.45638Q559.1219 129.42513 559.52814 128.19075Q559.95 126.956375 560.77814 126.2845Q561.60626 125.612625 562.85626 125.612625Q563.77814 125.612625 564.46564 125.987625Q565.16876 126.347 565.6219 127.050125Q566.075 127.75325 566.325 128.75325Q566.59064 129.75325 566.59064 131.45638Q566.59064 133.472 566.16876 134.722Q565.7625 135.95638 564.9344 136.64388Q564.10626 137.31575 562.85626 137.31575Q561.2 137.31575 560.2469 136.11263Q559.1219 134.69075 559.1219 131.45638ZM560.5594 131.45638Q560.5594 134.2845 561.21564 135.222Q561.8875 136.14388 562.85626 136.14388Q563.825 136.14388 564.48126 135.20638Q565.1375 134.26888 565.1375 131.45638Q565.1375 128.62825 564.48126 127.706375Q563.825 126.768875 562.84064 126.768875Q561.8719 126.768875 561.29376 127.597Q560.5594 128.64388 560.5594 131.45638ZM568.3875 128.4095Q568.3875 127.175125 568.9969 126.31575Q569.6219 125.456375 570.79376 125.456375Q571.8719 125.456375 572.575 126.237625Q573.27814 127.00325 573.27814 128.48763Q573.27814 129.94075 572.5594 130.73763Q571.85626 131.51888 570.8094 131.51888Q569.7625 131.51888 569.075 130.75325Q568.3875 129.972 568.3875 128.4095ZM570.825 126.425125Q570.3094 126.425125 569.95 126.87825Q569.60626 127.331375 569.60626 128.55013Q569.60626 129.64388 569.95 130.097Q570.3094 130.55013 570.825 130.55013Q571.35626 130.55013 571.7 130.097Q572.0594 129.64388 572.0594 128.44075Q572.0594 127.331375 571.7 126.87825Q571.35626 126.425125 570.825 126.425125ZM570.84064 137.5345L577.10626 125.456375L578.2469 125.456375L571.9969 137.5345L570.84064 137.5345ZM575.79376 134.42513Q575.79376 133.19075 576.40314 132.33138Q577.02814 131.472 578.2 131.472Q579.27814 131.472 579.98126 132.25325Q580.7 133.01888 580.7 134.50325Q580.7 135.95638 579.98126 136.75325Q579.2625 137.5345 578.21564 137.5345Q577.16876 137.5345 576.48126 136.75325Q575.79376 135.972 575.79376 134.42513ZM578.2469 132.44075Q577.71564 132.44075 577.35626 132.89388Q577.0125 133.347 577.0125 134.56575Q577.0125 135.6595 577.35626 136.11263Q577.71564 136.56575 578.23126 136.56575Q578.77814 136.56575 579.1219 136.11263Q579.46564 135.6595 579.46564 134.45638Q579.46564 133.347 579.10626 132.89388Q578.7625 132.44075 578.2469 132.44075Z" fill-rule="nonzero"/><path stroke="#757575" stroke-width="1.0" stroke-linecap="butt" d="M581.45 120.612625L454.76666 120.612625L414.33704 120.612625" fill-rule="nonzero"/><path fill="#9e9e9e" d="M416.33704 120.612625C416.33704 119.50806 415.4416 118.612625 414.33704 118.612625C413.23245 118.612625 412.33704 119.50806 412.33704 120.612625C412.33704 121.71719 413.23245 122.612625 414.33704 122.612625C415.4416 122.612625 416.33704 121.71719 416.33704 120.612625" fill-rule="nonzero"/><path fill="#efefef" d="M531.6375 281.25403L531.6375 269.8009L533.91876 269.8009L536.6375 277.91028Q537.0125 279.03528 537.1844 279.59778Q537.3719 278.97278 537.79376 277.76965L540.52814 269.8009L542.575 269.8009L542.575 281.25403L541.10626 281.25403L541.10626 271.66028L537.77814 281.25403L536.41876 281.25403L533.10626 271.50403L533.10626 281.25403L531.6375 281.25403ZM544.5125 271.41028L544.5125 269.8009L545.91876 269.8009L545.91876 271.41028L544.5125 271.41028ZM544.5125 281.25403L544.5125 272.95715L545.91876 272.95715L545.91876 281.25403L544.5125 281.25403ZM548.48126 281.25403L548.48126 269.8009L549.8875 269.8009L549.8875 281.25403L548.48126 281.25403ZM552.5125 271.41028L552.5125 269.8009L553.91876 269.8009L553.91876 271.41028L552.5125 271.41028ZM552.5125 281.25403L552.5125 272.95715L553.91876 272.95715L553.91876 281.25403L552.5125 281.25403ZM559.575 279.9884L559.77814 281.2384Q559.1844 281.3634 558.71564 281.3634Q557.95 281.3634 557.52814 281.12903Q557.10626 280.87903 556.9344 280.4884Q556.7625 280.08215 556.7625 278.81653L556.7625 274.0509L555.73126 274.0509L555.73126 272.95715L556.7625 272.95715L556.7625 270.89465L558.16876 270.0509L558.16876 272.95715L559.575 272.95715L559.575 274.0509L558.16876 274.0509L558.16876 278.89465Q558.16876 279.50403 558.23126 279.6759Q558.3094 279.84778 558.48126 279.95715Q558.65314 280.0509 558.96564 280.0509Q559.2 280.0509 559.575 279.9884ZM565.91876 280.22278Q565.1375 280.89465 564.41876 281.1759Q563.7 281.44153 562.8719 281.44153Q561.4969 281.44153 560.7625 280.76965Q560.02814 280.09778 560.02814 279.06653Q560.02814 278.45715 560.3094 277.95715Q560.59064 277.44153 561.02814 277.14465Q561.48126 276.83215 562.04376 276.6759Q562.46564 276.56653 563.29376 276.47278Q564.9969 276.26965 565.8094 275.9884Q565.8094 275.69153 565.8094 275.6134Q565.8094 274.75403 565.41876 274.41028Q564.8719 273.9259 563.8094 273.9259Q562.825 273.9259 562.34064 274.28528Q561.8719 274.62903 561.65314 275.50403L560.27814 275.31653Q560.46564 274.44153 560.8875 273.89465Q561.325 273.34778 562.1375 273.06653Q562.95 272.76965 564.0125 272.76965Q565.075 272.76965 565.73126 273.01965Q566.40314 273.26965 566.71564 273.64465Q567.02814 274.01965 567.15314 274.59778Q567.23126 274.95715 567.23126 275.89465L567.23126 277.76965Q567.23126 279.7384 567.3094 280.25403Q567.40314 280.76965 567.66876 281.25403L566.2 281.25403Q565.98126 280.81653 565.91876 280.22278ZM565.8094 277.08215Q565.04376 277.39465 563.5125 277.6134Q562.6375 277.7384 562.27814 277.89465Q561.91876 278.0509 561.71564 278.3634Q561.52814 278.66028 561.52814 279.01965Q561.52814 279.58215 561.95 279.95715Q562.3875 280.33215 563.2 280.33215Q564.0125 280.33215 564.6375 279.9884Q565.27814 279.62903 565.575 279.00403Q565.8094 278.53528 565.8094 277.59778L565.8094 277.08215ZM569.4969 281.25403L569.4969 272.95715L570.7625 272.95715L570.7625 274.20715Q571.2469 273.33215 571.65314 273.0509Q572.0594 272.76965 572.5594 272.76965Q573.2625 272.76965 573.9969 273.22278L573.5125 274.51965Q572.9969 274.22278 572.48126 274.22278Q572.02814 274.22278 571.65314 274.50403Q571.29376 274.76965 571.1375 275.26965Q570.90314 276.01965 570.90314 276.91028L570.90314 281.25403L569.4969 281.25403ZM574.45 284.45715L574.29376 283.12903Q574.7469 283.25403 575.09064 283.25403Q575.5594 283.25403 575.84064 283.09778Q576.1219 282.94153 576.3094 282.66028Q576.4344 282.45715 576.73126 281.6134Q576.77814 281.50403 576.85626 281.26965L573.71564 272.95715L575.23126 272.95715L576.95 277.75403Q577.29376 278.6759 577.5594 279.6759Q577.79376 278.70715 578.1375 277.78528L579.90314 272.95715L581.3094 272.95715L578.15314 281.39465Q577.65314 282.76965 577.3719 283.28528Q576.9969 283.97278 576.5125 284.3009Q576.02814 284.62903 575.35626 284.62903Q574.95 284.62903 574.45 284.45715Z" fill-rule="nonzero"/><path fill="#9e9e9e" d="M542.41876 303.25403L541.0125 303.25403L541.0125 294.28528Q540.4969 294.76965 539.66876 295.25403Q538.85626 295.7384 538.2 295.9884L538.2 294.62903Q539.3719 294.06653 540.2469 293.28528Q541.1375 292.4884 541.5125 291.75403L542.41876 291.75403L542.41876 303.25403ZM546.1219 297.59778Q546.1219 295.56653 546.52814 294.33215Q546.95 293.09778 547.77814 292.4259Q548.60626 291.75403 549.85626 291.75403Q550.77814 291.75403 551.46564 292.12903Q552.16876 292.4884 552.6219 293.19153Q553.075 293.89465 553.325 294.89465Q553.59064 295.89465 553.59064 297.59778Q553.59064 299.6134 553.16876 300.8634Q552.7625 302.09778 551.9344 302.78528Q551.10626 303.45715 549.85626 303.45715Q548.2 303.45715 547.2469 302.25403Q546.1219 300.83215 546.1219 297.59778ZM547.5594 297.59778Q547.5594 300.4259 548.21564 301.3634Q548.8875 302.28528 549.85626 302.28528Q550.825 302.28528 551.48126 301.34778Q552.1375 300.41028 552.1375 297.59778Q552.1375 294.76965 551.48126 293.84778Q550.825 292.91028 549.84064 292.91028Q548.8719 292.91028 548.29376 293.7384Q547.5594 294.78528 547.5594 297.59778ZM555.90314 303.25403L555.90314 301.64465L557.5125 301.64465L557.5125 303.25403L555.90314 303.25403ZM559.1219 297.59778Q559.1219 295.56653 559.52814 294.33215Q559.95 293.09778 560.77814 292.4259Q561.60626 291.75403 562.85626 291.75403Q563.77814 291.75403 564.46564 292.12903Q565.16876 292.4884 565.6219 293.19153Q566.075 293.89465 566.325 294.89465Q566.59064 295.89465 566.59064 297.59778Q566.59064 299.6134 566.16876 300.8634Q565.7625 302.09778 564.9344 302.78528Q564.10626 303.45715 562.85626 303.45715Q561.2 303.45715 560.2469 302.25403Q559.1219 300.83215 559.1219 297.59778ZM560.5594 297.59778Q560.5594 300.4259 561.21564 301.3634Q561.8875 302.28528 562.85626 302.28528Q563.825 302.28528 564.48126 301.34778Q565.1375 300.41028 565.1375 297.59778Q565.1375 294.76965 564.48126 293.84778Q563.825 292.91028 562.84064 292.91028Q561.8719 292.91028 561.29376 293.7384Q560.5594 294.78528 560.5594 297.59778ZM568.3875 294.5509Q568.3875 293.31653 568.9969 292.45715Q569.6219 291.59778 570.79376 291.59778Q571.8719 291.59778 572.575 292.37903Q573.27814 293.14465 573.27814 294.62903Q573.27814 296.08215 572.5594 296.87903Q571.85626 297.66028 570.8094 297.66028Q569.7625 297.66028 569.075 296.89465Q568.3875 296.1134 568.3875 294.5509ZM570.825 292.56653Q570.3094 292.56653 569.95 293.01965Q569.60626 293.47278 569.60626 294.69153Q569.60626 295.78528 569.95 296.2384Q570.3094 296.69153 570.825 296.69153Q571.35626 296.69153 571.7 296.2384Q572.0594 295.78528 572.0594 294.58215Q572.0594 293.47278 571.7 293.01965Q571.35626 292.56653 570.825 292.56653ZM570.84064 303.6759L577.10626 291.59778L578.2469 291.59778L571.9969 303.6759L570.84064 303.6759ZM575.79376 300.56653Q575.79376 299.33215 576.40314 298.47278Q577.02814 297.6134 578.2 297.6134Q579.27814 297.6134 579.98126 298.39465Q580.7 299.16028 580.7 300.64465Q580.7 302.09778 579.98126 302.89465Q579.2625 303.6759 578.21564 303.6759Q577.16876 303.6759 576.48126 302.89465Q575.79376 302.1134 575.79376 300.56653ZM578.2469 298.58215Q577.71564 298.58215 577.35626 299.03528Q577.0125 299.4884 577.0125 300.70715Q577.0125 301.8009 577.35626 302.25403Q577.71564 302.70715 578.23126 302.70715Q578.77814 302.70715 579.1219 302.25403Q579.46564 301.8009 579.46564 300.59778Q579.46564 299.4884 579.10626 299.03528Q578.7625 298.58215 578.2469 298.58215Z" fill-rule="nonzero"/><path stroke="#757575" stroke-width="1.0" stroke-linecap="butt" d="M581.45 286.75403L454.76666 286.75403L414.33704 286.75403" fill-rule="nonzero"/><path fill="#9e9e9e" d="M416.33704 286.75403C416.33704 285.64948 415.4416 284.75403 414.33704 284.75403C413.23245 284.75403 412.33704 285.64948 412.33704 286.75403C412.33704 287.8586 413.23245 288.75403 414.33704 288.75403C415.4416 288.75403 416.33704 287.8586 416.33704 286.75403" fill-rule="nonzero"/><path fill="#efefef" d="M481.41876 326.45L485.825 314.9969L487.46564 314.9969L492.15314 326.45L490.41876 326.45L489.09064 322.98126L484.29376 322.98126L483.04376 326.45L481.41876 326.45ZM484.73126 321.7469L488.6219 321.7469L487.41876 318.575Q486.8719 317.1219 486.60626 316.2Q486.3875 317.29376 485.9969 318.3875L484.73126 321.7469ZM493.4969 326.45L493.4969 318.15314L494.7625 318.15314L494.7625 319.40314Q495.2469 318.52814 495.65314 318.2469Q496.0594 317.96564 496.5594 317.96564Q497.2625 317.96564 497.9969 318.41876L497.5125 319.71564Q496.9969 319.41876 496.48126 319.41876Q496.02814 319.41876 495.65314 319.7Q495.29376 319.96564 495.1375 320.46564Q494.90314 321.21564 494.90314 322.10626L494.90314 326.45L493.4969 326.45ZM503.91876 323.40314L505.3094 323.59064Q505.075 325.0125 504.1375 325.825Q503.21564 326.6375 501.85626 326.6375Q500.15314 326.6375 499.10626 325.52814Q498.075 324.40314 498.075 322.325Q498.075 320.98126 498.5125 319.98126Q498.96564 318.96564 499.8719 318.46564Q500.79376 317.96564 501.85626 317.96564Q503.21564 317.96564 504.075 318.65314Q504.9344 319.325 505.16876 320.59064L503.8094 320.79376Q503.60626 319.96564 503.10626 319.54376Q502.6219 319.1219 501.91876 319.1219Q500.85626 319.1219 500.1844 319.8875Q499.52814 320.6375 499.52814 322.29376Q499.52814 323.96564 500.16876 324.73126Q500.8094 325.48126 501.84064 325.48126Q502.66876 325.48126 503.21564 324.98126Q503.77814 324.46564 503.91876 323.40314ZM506.5125 326.45L506.5125 314.9969L507.91876 314.9969L507.91876 319.10626Q508.90314 317.96564 510.40314 317.96564Q511.325 317.96564 511.9969 318.325Q512.6844 318.6844 512.96564 319.325Q513.2625 319.96564 513.2625 321.1844L513.2625 326.45L511.85626 326.45L511.85626 321.1844Q511.85626 320.1375 511.40314 319.65314Q510.95 319.16876 510.10626 319.16876Q509.48126 319.16876 508.9344 319.4969Q508.3875 319.825 508.15314 320.3875Q507.91876 320.9344 507.91876 321.90314L507.91876 326.45L506.5125 326.45ZM515.5125 316.60626L515.5125 314.9969L516.91876 314.9969L516.91876 316.60626L515.5125 316.60626ZM515.5125 326.45L515.5125 318.15314L516.91876 318.15314L516.91876 326.45L515.5125 326.45ZM522.575 325.1844L522.77814 326.4344Q522.1844 326.5594 521.71564 326.5594Q520.95 326.5594 520.52814 326.325Q520.10626 326.075 519.9344 325.6844Q519.7625 325.27814 519.7625 324.0125L519.7625 319.2469L518.73126 319.2469L518.73126 318.15314L519.7625 318.15314L519.7625 316.09064L521.16876 315.2469L521.16876 318.15314L522.575 318.15314L522.575 319.2469L521.16876 319.2469L521.16876 324.09064Q521.16876 324.7 521.23126 324.8719Q521.3094 325.04376 521.48126 325.15314Q521.65314 325.2469 521.96564 325.2469Q522.2 325.2469 522.575 325.1844ZM529.1844 323.77814L530.6375 323.95Q530.29376 325.23126 529.35626 325.9344Q528.4344 326.6375 526.9969 326.6375Q525.16876 326.6375 524.10626 325.5125Q523.04376 324.3875 523.04376 322.3719Q523.04376 320.27814 524.1219 319.1219Q525.2 317.96564 526.91876 317.96564Q528.575 317.96564 529.6219 319.10626Q530.6844 320.23126 530.6844 322.27814Q530.6844 322.40314 530.6844 322.65314L524.4969 322.65314Q524.575 324.02814 525.2625 324.7625Q525.96564 325.48126 526.9969 325.48126Q527.77814 325.48126 528.325 325.075Q528.8719 324.66876 529.1844 323.77814ZM524.575 321.4969L529.2 321.4969Q529.10626 320.45 528.66876 319.9344Q527.9969 319.1219 526.9344 319.1219Q525.96564 319.1219 525.29376 319.77814Q524.6375 320.41876 524.575 321.4969ZM537.91876 323.40314L539.3094 323.59064Q539.075 325.0125 538.1375 325.825Q537.21564 326.6375 535.85626 326.6375Q534.15314 326.6375 533.10626 325.52814Q532.075 324.40314 532.075 322.325Q532.075 320.98126 532.5125 319.98126Q532.96564 318.96564 533.8719 318.46564Q534.79376 317.96564 535.85626 317.96564Q537.21564 317.96564 538.075 318.65314Q538.9344 319.325 539.16876 320.59064L537.8094 320.79376Q537.60626 319.96564 537.10626 319.54376Q536.6219 319.1219 535.91876 319.1219Q534.85626 319.1219 534.1844 319.8875Q533.52814 320.6375 533.52814 322.29376Q533.52814 323.96564 534.16876 324.73126Q534.8094 325.48126 535.84064 325.48126Q536.66876 325.48126 537.21564 324.98126Q537.77814 324.46564 537.91876 323.40314ZM543.575 325.1844L543.77814 326.4344Q543.1844 326.5594 542.71564 326.5594Q541.95 326.5594 541.52814 326.325Q541.10626 326.075 540.9344 325.6844Q540.7625 325.27814 540.7625 324.0125L540.7625 319.2469L539.73126 319.2469L539.73126 318.15314L540.7625 318.15314L540.7625 316.09064L542.16876 315.2469L542.16876 318.15314L543.575 318.15314L543.575 319.2469L542.16876 319.2469L542.16876 324.09064Q542.16876 324.7 542.23126 324.8719Q542.3094 325.04376 542.48126 325.15314Q542.65314 325.2469 542.96564 325.2469Q543.2 325.2469 543.575 325.1844ZM549.95 326.45L549.95 325.23126Q548.98126 326.6375 547.3094 326.6375Q546.575 326.6375 545.9344 326.35626Q545.3094 326.075 544.9969 325.65314Q544.6844 325.21564 544.5594 324.60626Q544.48126 324.1844 544.48126 323.29376L544.48126 318.15314L545.8875 318.15314L545.8875 322.7469Q545.8875 323.85626 545.96564 324.23126Q546.10626 324.79376 546.52814 325.10626Q546.96564 325.41876 547.59064 325.41876Q548.23126 325.41876 548.77814 325.10626Q549.34064 324.77814 549.5594 324.21564Q549.79376 323.65314 549.79376 322.59064L549.79376 318.15314L551.2 318.15314L551.2 326.45L549.95 326.45ZM553.4969 326.45L553.4969 318.15314L554.7625 318.15314L554.7625 319.40314Q555.2469 318.52814 555.65314 318.2469Q556.0594 317.96564 556.5594 317.96564Q557.2625 317.96564 557.9969 318.41876L557.5125 319.71564Q556.9969 319.41876 556.48126 319.41876Q556.02814 319.41876 555.65314 319.7Q555.29376 319.96564 555.1375 320.46564Q554.90314 321.21564 554.90314 322.10626L554.90314 326.45L553.4969 326.45ZM564.1844 323.77814L565.6375 323.95Q565.29376 325.23126 564.35626 325.9344Q563.4344 326.6375 561.9969 326.6375Q560.16876 326.6375 559.10626 325.5125Q558.04376 324.3875 558.04376 322.3719Q558.04376 320.27814 559.1219 319.1219Q560.2 317.96564 561.91876 317.96564Q563.575 317.96564 564.6219 319.10626Q565.6844 320.23126 565.6844 322.27814Q565.6844 322.40314 565.6844 322.65314L559.4969 322.65314Q559.575 324.02814 560.2625 324.7625Q560.96564 325.48126 561.9969 325.48126Q562.77814 325.48126 563.325 325.075Q563.8719 324.66876 564.1844 323.77814ZM559.575 321.4969L564.2 321.4969Q564.10626 320.45 563.66876 319.9344Q562.9969 319.1219 561.9344 319.1219Q560.96564 319.1219 560.29376 319.77814Q559.6375 320.41876 559.575 321.4969ZM578.0594 325.09064Q577.35626 325.8719 576.52814 326.2625Q575.71564 326.65314 574.7625 326.65314Q573.0125 326.65314 571.98126 325.45Q571.1375 324.48126 571.1375 323.29376Q571.1375 322.23126 571.825 321.3719Q572.5125 320.5125 573.8719 319.8719Q573.09064 318.98126 572.825 318.4344Q572.575 317.8719 572.575 317.35626Q572.575 316.325 573.3875 315.5594Q574.2 314.79376 575.41876 314.79376Q576.59064 314.79376 577.34064 315.5125Q578.09064 316.23126 578.09064 317.2469Q578.09064 318.8719 575.91876 320.02814L577.98126 322.65314Q578.325 321.96564 578.52814 321.0594L579.98126 321.3719Q579.60626 322.8719 578.96564 323.84064Q579.7625 324.8875 580.7625 325.59064L579.8094 326.71564Q578.96564 326.16876 578.0594 325.09064ZM575.2 319.1219Q576.10626 318.59064 576.3719 318.1844Q576.65314 317.77814 576.65314 317.27814Q576.65314 316.7 576.27814 316.325Q575.90314 315.95 575.35626 315.95Q574.77814 315.95 574.40314 316.325Q574.02814 316.6844 574.02814 317.21564Q574.02814 317.48126 574.15314 317.77814Q574.29376 318.075 574.575 318.40314L575.2 319.1219ZM577.16876 323.98126L574.59064 320.79376Q573.45 321.46564 573.04376 322.0594Q572.65314 322.6375 572.65314 323.2Q572.65314 323.90314 573.2 324.65314Q573.7625 325.40314 574.77814 325.40314Q575.41876 325.40314 576.09064 325.0125Q576.7625 324.60626 577.16876 323.98126Z" fill-rule="nonzero"/><path fill="#9e9e9e" d="M544.5125 347.09064L544.5125 348.45L536.9344 348.45Q536.91876 347.9344 537.10626 347.46564Q537.3875 346.7 538.02814 345.95Q538.66876 345.2 539.8719 344.21564Q541.73126 342.6844 542.3875 341.79376Q543.04376 340.8875 543.04376 340.09064Q543.04376 339.2625 542.45 338.6844Q541.85626 338.10626 540.8875 338.10626Q539.8719 338.10626 539.2625 338.71564Q538.65314 339.325 538.65314 340.40314L537.2 340.2625Q537.35626 338.6375 538.325 337.79376Q539.29376 336.95 540.91876 336.95Q542.575 336.95 543.52814 337.8719Q544.4969 338.77814 544.4969 340.1219Q544.4969 340.8094 544.21564 341.48126Q543.9344 342.1375 543.27814 342.8719Q542.6219 343.60626 541.10626 344.8875Q539.84064 345.95 539.48126 346.34064Q539.1219 346.71564 538.8875 347.09064L544.5125 347.09064ZM546.1219 342.79376Q546.1219 340.7625 546.52814 339.52814Q546.95 338.29376 547.77814 337.6219Q548.60626 336.95 549.85626 336.95Q550.77814 336.95 551.46564 337.325Q552.16876 337.6844 552.6219 338.3875Q553.075 339.09064 553.325 340.09064Q553.59064 341.09064 553.59064 342.79376Q553.59064 344.8094 553.16876 346.0594Q552.7625 347.29376 551.9344 347.98126Q551.10626 348.65314 549.85626 348.65314Q548.2 348.65314 547.2469 347.45Q546.1219 346.02814 546.1219 342.79376ZM547.5594 342.79376Q547.5594 345.6219 548.21564 346.5594Q548.8875 347.48126 549.85626 347.48126Q550.825 347.48126 551.48126 346.54376Q552.1375 345.60626 552.1375 342.79376Q552.1375 339.96564 551.48126 339.04376Q550.825 338.10626 549.84064 338.10626Q548.8719 338.10626 548.29376 338.9344Q547.5594 339.98126 547.5594 342.79376ZM555.90314 348.45L555.90314 346.84064L557.5125 346.84064L557.5125 348.45L555.90314 348.45ZM559.1219 342.79376Q559.1219 340.7625 559.52814 339.52814Q559.95 338.29376 560.77814 337.6219Q561.60626 336.95 562.85626 336.95Q563.77814 336.95 564.46564 337.325Q565.16876 337.6844 565.6219 338.3875Q566.075 339.09064 566.325 340.09064Q566.59064 341.09064 566.59064 342.79376Q566.59064 344.8094 566.16876 346.0594Q565.7625 347.29376 564.9344 347.98126Q564.10626 348.65314 562.85626 348.65314Q561.2 348.65314 560.2469 347.45Q559.1219 346.02814 559.1219 342.79376ZM560.5594 342.79376Q560.5594 345.6219 561.21564 346.5594Q561.8875 347.48126 562.85626 347.48126Q563.825 347.48126 564.48126 346.54376Q565.1375 345.60626 565.1375 342.79376Q565.1375 339.96564 564.48126 339.04376Q563.825 338.10626 562.84064 338.10626Q561.8719 338.10626 561.29376 338.9344Q560.5594 339.98126 560.5594 342.79376ZM568.3875 339.7469Q568.3875 338.5125 568.9969 337.65314Q569.6219 336.79376 570.79376 336.79376Q571.8719 336.79376 572.575 337.575Q573.27814 338.34064 573.27814 339.825Q573.27814 341.27814 572.5594 342.075Q571.85626 342.85626 570.8094 342.85626Q569.7625 342.85626 569.075 342.09064Q568.3875 341.3094 568.3875 339.7469ZM570.825 337.7625Q570.3094 337.7625 569.95 338.21564Q569.60626 338.66876 569.60626 339.8875Q569.60626 340.98126 569.95 341.4344Q570.3094 341.8875 570.825 341.8875Q571.35626 341.8875 571.7 341.4344Q572.0594 340.98126 572.0594 339.77814Q572.0594 338.66876 571.7 338.21564Q571.35626 337.7625 570.825 337.7625ZM570.84064 348.8719L577.10626 336.79376L578.2469 336.79376L571.9969 348.8719L570.84064 348.8719ZM575.79376 345.7625Q575.79376 344.52814 576.40314 343.66876Q577.02814 342.8094 578.2 342.8094Q579.27814 342.8094 579.98126 343.59064Q580.7 344.35626 580.7 345.84064Q580.7 347.29376 579.98126 348.09064Q579.2625 348.8719 578.21564 348.8719Q577.16876 348.8719 576.48126 348.09064Q575.79376 347.3094 575.79376 345.7625ZM578.2469 343.77814Q577.71564 343.77814 577.35626 344.23126Q577.0125 344.6844 577.0125 345.90314Q577.0125 346.9969 577.35626 347.45Q577.71564 347.90314 578.23126 347.90314Q578.77814 347.90314 579.1219 347.45Q579.46564 346.9969 579.46564 345.79376Q579.46564 344.6844 579.10626 344.23126Q578.7625 343.77814 578.2469 343.77814Z" fill-rule="nonzero"/><path stroke="#757575" stroke-width="1.0" stroke-linecap="butt" d="M581.45 331.95L454.76666 331.95L300.0 345.01166" fill-rule="nonzero"/><path fill="#9e9e9e" d="M302.0 345.01166C302.0 343.9071 301.10458 343.01166 300.0 343.01166C298.89542 343.01166 298.0 343.9071 298.0 345.01166C298.0 346.11624 298.89542 347.01166 300.0 347.01166C301.10458 347.01166 302.0 346.11624 302.0 345.01166" fill-rule="nonzero"/><path fill="#f3f3f3" d="M271.26562 32.534374L273.15625 33.003124Q272.5625 35.346874 271.01562 36.58125Q269.46875 37.8 267.21875 37.8Q264.90625 37.8 263.45312 36.8625Q262.01562 35.909374 261.25 34.128124Q260.5 32.33125 260.5 30.284374Q260.5 28.05 261.34375 26.39375Q262.20312 24.721874 263.78125 23.8625Q265.35938 22.9875 267.25 22.9875Q269.40625 22.9875 270.85938 24.08125Q272.32812 25.175 272.90625 27.159374L271.04688 27.596874Q270.54688 26.034374 269.59375 25.33125Q268.65625 24.6125 267.21875 24.6125Q265.5625 24.6125 264.45312 25.409374Q263.34375 26.190624 262.89062 27.534374Q262.45312 28.8625 262.45312 30.26875Q262.45312 32.096874 262.98438 33.471874Q263.51562 34.83125 264.64062 35.503124Q265.76562 36.175 267.0625 36.175Q268.65625 36.175 269.76562 35.253124Q270.875 34.33125 271.26562 32.534374ZM281.59375 36.26875Q280.60938 37.096874 279.70312 37.440624Q278.79688 37.784374 277.76562 37.784374Q276.0625 37.784374 275.14062 36.95625Q274.21875 36.1125 274.21875 34.815624Q274.21875 34.05 274.5625 33.425Q274.92188 32.8 275.48438 32.425Q276.04688 32.034374 276.75 31.83125Q277.26562 31.70625 278.3125 31.565624Q280.4375 31.315624 281.4375 30.971874Q281.45312 30.6125 281.45312 30.503124Q281.45312 29.440624 280.95312 28.9875Q280.28125 28.39375 278.95312 28.39375Q277.70312 28.39375 277.10938 28.83125Q276.53125 29.26875 276.25 30.378124L274.53125 30.14375Q274.76562 29.034374 275.29688 28.3625Q275.82812 27.675 276.84375 27.315624Q277.85938 26.940624 279.20312 26.940624Q280.53125 26.940624 281.35938 27.253124Q282.1875 27.565624 282.57812 28.05Q282.96875 28.51875 283.125 29.2375Q283.21875 29.690624 283.21875 30.8625L283.21875 33.20625Q283.21875 35.659374 283.32812 36.315624Q283.4375 36.95625 283.78125 37.55L281.9375 37.55Q281.67188 37.003124 281.59375 36.26875ZM281.4375 32.346874Q280.48438 32.7375 278.5625 33.003124Q277.48438 33.159374 277.03125 33.3625Q276.59375 33.55 276.34375 33.925Q276.09375 34.3 276.09375 34.76875Q276.09375 35.471874 276.625 35.940624Q277.15625 36.409374 278.1875 36.409374Q279.20312 36.409374 279.98438 35.971874Q280.78125 35.51875 281.15625 34.753124Q281.4375 34.14375 281.4375 32.9875L281.4375 32.346874ZM289.65625 35.971874L289.90625 37.534374Q289.17188 37.690624 288.57812 37.690624Q287.625 37.690624 287.09375 37.39375Q286.57812 37.08125 286.35938 36.596874Q286.14062 36.096874 286.14062 34.51875L286.14062 28.55L284.85938 28.55L284.85938 27.175L286.14062 27.175L286.14062 24.6125L287.89062 23.55L287.89062 27.175L289.65625 27.175L289.65625 28.55L287.89062 28.55L287.89062 34.6125Q287.89062 35.3625 287.98438 35.58125Q288.07812 35.784374 288.28125 35.925Q288.5 36.05 288.89062 36.05Q289.17188 36.05 289.65625 35.971874ZM298.92188 34.20625L300.73438 34.440624Q300.3125 36.01875 299.14062 36.909374Q297.98438 37.784374 296.17188 37.784374Q293.90625 37.784374 292.5625 36.39375Q291.23438 34.9875 291.23438 32.45625Q291.23438 29.83125 292.57812 28.39375Q293.92188 26.940624 296.07812 26.940624Q298.15625 26.940624 299.46875 28.3625Q300.79688 29.76875 300.79688 32.346874Q300.79688 32.503124 300.78125 32.815624L293.04688 32.815624Q293.14062 34.51875 294.01562 35.425Q294.89062 36.33125 296.1875 36.33125Q297.15625 36.33125 297.82812 35.83125Q298.51562 35.315624 298.92188 34.20625ZM293.14062 31.3625L298.9375 31.3625Q298.82812 30.065624 298.28125 29.409374Q297.4375 28.39375 296.09375 28.39375Q294.89062 28.39375 294.0625 29.20625Q293.23438 30.003124 293.14062 31.3625ZM302.5 38.409374L304.20312 38.659374Q304.3125 39.45625 304.79688 39.815624Q305.45312 40.3 306.59375 40.3Q307.8125 40.3 308.46875 39.815624Q309.14062 39.33125 309.375 38.45625Q309.51562 37.909374 309.5 36.190624Q308.34375 37.55 306.625 37.55Q304.48438 37.55 303.3125 36.003124Q302.14062 34.45625 302.14062 32.3Q302.14062 30.815624 302.67188 29.565624Q303.21875 28.315624 304.23438 27.628124Q305.26562 26.940624 306.64062 26.940624Q308.46875 26.940624 309.67188 28.425L309.67188 27.175L311.28125 27.175L311.28125 36.14375Q311.28125 38.565624 310.78125 39.565624Q310.29688 40.58125 309.21875 41.159374Q308.15625 41.753124 306.59375 41.753124Q304.75 41.753124 303.59375 40.925Q302.45312 40.096874 302.5 38.409374ZM303.95312 32.175Q303.95312 34.221874 304.76562 35.159374Q305.57812 36.096874 306.79688 36.096874Q308.0 36.096874 308.8125 35.159374Q309.64062 34.221874 309.64062 32.2375Q309.64062 30.33125 308.79688 29.3625Q307.95312 28.39375 306.76562 28.39375Q305.59375 28.39375 304.76562 29.346874Q303.95312 30.3 303.95312 32.175ZM313.17188 32.3625Q313.17188 29.4875 314.76562 28.096874Q316.10938 26.940624 318.03125 26.940624Q320.17188 26.940624 321.51562 28.346874Q322.875 29.753124 322.875 32.221874Q322.875 34.221874 322.28125 35.378124Q321.6875 36.51875 320.53125 37.159374Q319.39062 37.784374 318.03125 37.784374Q315.84375 37.784374 314.5 36.39375Q313.17188 34.9875 313.17188 32.3625ZM314.96875 32.3625Q314.96875 34.3625 315.82812 35.346874Q316.70312 36.33125 318.03125 36.33125Q319.34375 36.33125 320.20312 35.346874Q321.07812 34.346874 321.07812 32.3Q321.07812 30.378124 320.20312 29.39375Q319.32812 28.39375 318.03125 28.39375Q316.70312 28.39375 315.82812 29.39375Q314.96875 30.378124 314.96875 32.3625ZM324.79688 37.55L324.79688 27.175L326.375 27.175L326.375 28.753124Q326.98438 27.64375 327.5 27.3Q328.01562 26.940624 328.625 26.940624Q329.51562 26.940624 330.4375 27.503124L329.82812 29.14375Q329.1875 28.753124 328.54688 28.753124Q327.96875 28.753124 327.5 29.1125Q327.04688 29.45625 326.84375 30.065624Q326.5625 31.003124 326.5625 32.1125L326.5625 37.55L324.79688 37.55ZM331.73438 41.55L331.54688 39.89375Q332.125 40.05 332.54688 40.05Q333.14062 40.05 333.48438 39.846874Q333.84375 39.659374 334.0625 39.315624Q334.23438 39.05 334.60938 38.003124Q334.65625 37.846874 334.76562 37.565624L330.82812 27.175L332.71875 27.175L334.875 33.190624Q335.29688 34.33125 335.625 35.58125Q335.9375 34.378124 336.34375 33.221874L338.5625 27.175L340.32812 27.175L336.375 37.721874Q335.75 39.440624 335.39062 40.08125Q334.92188 40.95625 334.3125 41.346874Q333.71875 41.753124 332.875 41.753124Q332.35938 41.753124 331.73438 41.55Z" fill-rule="nonzero"/></svg>