<svg version="1.1" viewBox="0.0 0.0 600.0 371.0" fill="none" stroke="none" stroke-linecap="square" stroke-miterlimit="10" width="600" height="371" xmlns:xlink="http://www.w3.org/1999/xlink" xmlns="http://www.w3.org/2000/svg"><path fill="#ffffff" fill-opacity="0.0" d="M0 0L600.0 0L600.0 371.0L0 371.0L0 0Z" fill-rule="nonzero"/><path fill="#304388" d="M300.0 54.916668C358.24243 54.916668 411.12814 88.904236 435.3229 141.88342L333.83072 188.23335C327.78204 174.98856 314.5606 166.49167 300.0 166.49167Z" fill-rule="nonzero"/><path fill="#533990" d="M435.3229 141.88342C459.5177 194.86263 450.57104 257.08807 412.43036 301.10477L328.10757 228.0387C337.64276 217.03452 339.87943 201.47815 333.83072 188.23335Z" fill-rule="nonzero"/><path fill="#e5a345" d="M164.67708 141.88342C188.87187 88.904236 241.75755 54.916668 300.0 54.916668L300.0 166.49167C285.4394 166.49167 272.21796 174.98856 266.16928 188.23335Z" fill-rule="nonzero"/><path fill="#df8d43" d="M187.56966 301.10477C149.42897 257.08807 140.4823 194.86263 164.67708 141.88342L266.16928 188.23335C260.12057 201.47815 262.35724 217.03452 271.89243 228.0387Z" fill-rule="nonzero"/><path fill="#cf4366" d="M412.43036 301.10477C384.17337 333.7151 343.1496 352.45 300.0 352.45C256.8504 352.45 215.82664 333.7151 187.56966 301.10477L271.89243 228.0387C278.95667 236.19127 289.2126 240.875 300.0 240.875C310.7874 240.875 321.04333 236.19127 328.10757 228.0387Z" fill-rule="nonzero"/><path fill="#ffffff" d="M337.54056 122.5206L335.96243 122.5206L335.96243 112.442474Q335.3843 112.98935 334.46243 113.536224Q333.54056 114.067474 332.79056 114.348724L332.79056 112.817474Q334.11868 112.192474 335.11868 111.30185Q336.11868 110.411224 336.52493 109.5831L337.54056 109.5831L337.54056 122.5206ZM344.02493 115.536224Q343.04056 115.17685 342.55618 114.504974Q342.08743 113.8331 342.08743 112.911224Q342.08743 111.504974 343.08743 110.55185Q344.10306 109.5831 345.79056 109.5831Q347.47806 109.5831 348.49368 110.567474Q349.52493 111.536224 349.52493 112.942474Q349.52493 113.848724 349.05618 114.5206Q348.58743 115.17685 347.6343 115.536224Q348.8218 115.92685 349.43118 116.786224Q350.05618 117.6456 350.05618 118.8331Q350.05618 120.48935 348.8843 121.61435Q347.71243 122.73935 345.80618 122.73935Q343.89993 122.73935 342.72806 121.61435Q341.5718 120.473724 341.5718 118.786224Q341.5718 117.536224 342.1968 116.692474Q342.83743 115.8331 344.02493 115.536224ZM343.6968 112.848724Q343.6968 113.7706 344.29056 114.348724Q344.8843 114.92685 345.8218 114.92685Q346.72806 114.92685 347.30618 114.348724Q347.89993 113.7706 347.89993 112.942474Q347.89993 112.067474 347.29056 111.473724Q346.6968 110.879974 345.80618 110.879974Q344.89993 110.879974 344.29056 111.4581Q343.6968 112.036224 343.6968 112.848724ZM343.1968 118.80185Q343.1968 119.473724 343.5093 120.11435Q343.83743 120.73935 344.46243 121.098724Q345.10306 121.442474 345.83743 121.442474Q346.96243 121.442474 347.6968 120.7081Q348.4468 119.973724 348.4468 118.848724Q348.4468 117.7081 347.68118 116.973724Q346.91556 116.223724 345.77493 116.223724Q344.66556 116.223724 343.93118 116.9581Q343.1968 117.692474 343.1968 118.80185ZM352.47806 122.5206L352.47806 120.723724L354.27493 120.723724L354.27493 122.5206L352.47806 122.5206ZM364.89993 121.004974L364.89993 122.5206L356.3843 122.5206Q356.36868 121.942474 356.5718 121.42685Q356.89993 120.55185 357.60306 119.7081Q358.3218 118.86435 359.68118 117.754974Q361.77493 116.036224 362.5093 115.036224Q363.2593 114.0206 363.2593 113.129974Q363.2593 112.17685 362.58743 111.536224Q361.91556 110.8956 360.83743 110.8956Q359.68118 110.8956 358.99368 111.5831Q358.3218 112.2706 358.30618 113.473724L356.68118 113.30185Q356.85306 111.48935 357.93118 110.536224Q359.02493 109.5831 360.86868 109.5831Q362.71243 109.5831 363.79056 110.61435Q364.8843 111.6456 364.8843 113.161224Q364.8843 113.92685 364.55618 114.67685Q364.24368 115.42685 363.5093 116.254974Q362.77493 117.0831 361.0718 118.5206Q359.64993 119.723724 359.24368 120.1456Q358.83743 120.567474 358.58743 121.004974L364.89993 121.004974ZM366.8843 112.723724Q366.8843 111.348724 367.5718 110.379974Q368.27493 109.411224 369.58743 109.411224Q370.80618 109.411224 371.60306 110.286224Q372.39993 111.1456 372.39993 112.8331Q372.39993 114.4581 371.58743 115.348724Q370.79056 116.223724 369.60306 116.223724Q368.4468 116.223724 367.66556 115.36435Q366.8843 114.48935 366.8843 112.723724ZM369.6343 110.504974Q369.04056 110.504974 368.64993 111.0206Q368.2593 111.5206 368.2593 112.879974Q368.2593 114.129974 368.64993 114.629974Q369.05618 115.129974 369.6343 115.129974Q370.22806 115.129974 370.61868 114.629974Q371.0093 114.11435 371.0093 112.7706Q371.0093 111.5206 370.61868 111.0206Q370.22806 110.504974 369.6343 110.504974ZM369.64993 122.98935L376.6968 109.411224L377.97806 109.411224L370.9468 122.98935L369.64993 122.98935ZM375.21243 119.48935Q375.21243 118.11435 375.89993 117.1456Q376.60306 116.17685 377.93118 116.17685Q379.14993 116.17685 379.93118 117.05185Q380.72806 117.911224 380.72806 119.598724Q380.72806 121.223724 379.93118 122.11435Q379.1343 122.98935 377.9468 122.98935Q376.77493 122.98935 375.99368 122.11435Q375.21243 121.23935 375.21243 119.48935ZM377.97806 117.2706Q377.3843 117.2706 376.99368 117.786224Q376.60306 118.286224 376.60306 119.661224Q376.60306 120.879974 376.99368 121.3956Q377.3843 121.911224 377.96243 121.911224Q378.5718 121.911224 378.96243 121.3956Q379.35306 120.879974 379.35306 119.536224Q379.35306 118.286224 378.96243 117.786224Q378.5718 117.2706 377.97806 117.2706Z" fill-rule="nonzero"/><path fill="#ffffff" d="M384.06815 224.97308L382.49002 224.97308L382.49002 214.89496Q381.9119 215.44183 380.99002 215.98871Q380.06815 216.51996 379.31815 216.80121L379.31815 215.26996Q380.64627 214.64496 381.64627 213.75433Q382.64627 212.86371 383.05252 212.03558L384.06815 212.03558L384.06815 224.97308ZM390.55252 217.98871Q389.56815 217.62933 389.08377 216.95746Q388.61502 216.28558 388.61502 215.36371Q388.61502 213.95746 389.61502 213.00433Q390.63065 212.03558 392.31815 212.03558Q394.00565 212.03558 395.02127 213.01996Q396.05252 213.98871 396.05252 215.39496Q396.05252 216.30121 395.58377 216.97308Q395.11502 217.62933 394.1619 217.98871Q395.3494 218.37933 395.95877 219.23871Q396.58377 220.09808 396.58377 221.28558Q396.58377 222.94183 395.4119 224.06683Q394.24002 225.19183 392.33377 225.19183Q390.42752 225.19183 389.25565 224.06683Q388.0994 222.92621 388.0994 221.23871Q388.0994 219.98871 388.7244 219.14496Q389.36502 218.28558 390.55252 217.98871ZM390.2244 215.30121Q390.2244 216.22308 390.81815 216.80121Q391.4119 217.37933 392.3494 217.37933Q393.25565 217.37933 393.83377 216.80121Q394.42752 216.22308 394.42752 215.39496Q394.42752 214.51996 393.81815 213.92621Q393.2244 213.33246 392.33377 213.33246Q391.42752 213.33246 390.81815 213.91058Q390.2244 214.48871 390.2244 215.30121ZM389.7244 221.25433Q389.7244 221.92621 390.0369 222.56683Q390.36502 223.19183 390.99002 223.55121Q391.63065 223.89496 392.36502 223.89496Q393.49002 223.89496 394.2244 223.16058Q394.9744 222.42621 394.9744 221.30121Q394.9744 220.16058 394.20877 219.42621Q393.44315 218.67621 392.30252 218.67621Q391.19315 218.67621 390.45877 219.41058Q389.7244 220.14496 389.7244 221.25433ZM399.00565 224.97308L399.00565 223.17621L400.80252 223.17621L400.80252 224.97308L399.00565 224.97308ZM411.42752 223.45746L411.42752 224.97308L402.9119 224.97308Q402.89627 224.39496 403.0994 223.87933Q403.42752 223.00433 404.13065 222.16058Q404.8494 221.31683 406.20877 220.20746Q408.30252 218.48871 409.0369 217.48871Q409.7869 216.47308 409.7869 215.58246Q409.7869 214.62933 409.11502 213.98871Q408.44315 213.34808 407.36502 213.34808Q406.20877 213.34808 405.52127 214.03558Q404.8494 214.72308 404.83377 215.92621L403.20877 215.75433Q403.38065 213.94183 404.45877 212.98871Q405.55252 212.03558 407.39627 212.03558Q409.24002 212.03558 410.31815 213.06683Q411.4119 214.09808 411.4119 215.61371Q411.4119 216.37933 411.08377 217.12933Q410.77127 217.87933 410.0369 218.70746Q409.30252 219.53558 407.5994 220.97308Q406.17752 222.17621 405.77127 222.59808Q405.36502 223.01996 405.11502 223.45746L411.42752 223.45746ZM413.4119 215.17621Q413.4119 213.80121 414.0994 212.83246Q414.80252 211.86371 416.11502 211.86371Q417.33377 211.86371 418.13065 212.73871Q418.92752 213.59808 418.92752 215.28558Q418.92752 216.91058 418.11502 217.80121Q417.31815 218.67621 416.13065 218.67621Q414.9744 218.67621 414.19315 217.81683Q413.4119 216.94183 413.4119 215.17621ZM416.1619 212.95746Q415.56815 212.95746 415.17752 213.47308Q414.7869 213.97308 414.7869 215.33246Q414.7869 216.58246 415.17752 217.08246Q415.58377 217.58246 416.1619 217.58246Q416.75565 217.58246 417.14627 217.08246Q417.5369 216.56683 417.5369 215.22308Q417.5369 213.97308 417.14627 213.47308Q416.75565 212.95746 416.1619 212.95746ZM416.17752 225.44183L423.2244 211.86371L424.50565 211.86371L417.4744 225.44183L416.17752 225.44183ZM421.74002 221.94183Q421.74002 220.56683 422.42752 219.59808Q423.13065 218.62933 424.45877 218.62933Q425.67752 218.62933 426.45877 219.50433Q427.25565 220.36371 427.25565 222.05121Q427.25565 223.67621 426.45877 224.56683Q425.6619 225.44183 424.4744 225.44183Q423.30252 225.44183 422.52127 224.56683Q421.74002 223.69183 421.74002 221.94183ZM424.50565 219.72308Q423.9119 219.72308 423.52127 220.23871Q423.13065 220.73871 423.13065 222.11371Q423.13065 223.33246 423.52127 223.84808Q423.9119 224.36371 424.49002 224.36371Q425.0994 224.36371 425.49002 223.84808Q425.88065 223.33246 425.88065 221.98871Q425.88065 220.73871 425.49002 220.23871Q425.0994 219.72308 424.50565 219.72308Z" fill-rule="nonzero"/><path fill="#ffffff" d="M283.5625 326.4736L283.5625 327.98923L275.04688 327.98923Q275.03125 327.4111 275.23438 326.89548Q275.5625 326.02048 276.26562 325.17673Q276.98438 324.33298 278.34375 323.2236Q280.4375 321.50485 281.17188 320.50485Q281.92188 319.48923 281.92188 318.5986Q281.92188 317.64548 281.25 317.00485Q280.57812 316.36423 279.5 316.36423Q278.34375 316.36423 277.65625 317.05173Q276.98438 317.73923 276.96875 318.94235L275.34375 318.77048Q275.51562 316.95798 276.59375 316.00485Q277.6875 315.05173 279.53125 315.05173Q281.375 315.05173 282.45312 316.08298Q283.54688 317.11423 283.54688 318.62985Q283.54688 319.39548 283.21875 320.14548Q282.90625 320.89548 282.17188 321.7236Q281.4375 322.55173 279.73438 323.98923Q278.3125 325.19235 277.90625 325.61423Q277.5 326.0361 277.25 326.4736L283.5625 326.4736ZM285.35938 316.7861L285.35938 315.27048L293.6875 315.27048L293.6875 316.50485Q292.46875 317.81735 291.25 319.98923Q290.04688 322.14548 289.39062 324.44235Q288.90625 326.06735 288.78125 327.98923L287.15625 327.98923Q287.1875 326.4736 287.75 324.31735Q288.32812 322.1611 289.39062 320.1611Q290.45312 318.1611 291.65625 316.7861L285.35938 316.7861ZM296.14062 327.98923L296.14062 326.19235L297.9375 326.19235L297.9375 327.98923L296.14062 327.98923ZM300.25 324.58298L301.84375 324.37985Q302.10938 325.7236 302.76562 326.31735Q303.42188 326.9111 304.35938 326.9111Q305.48438 326.9111 306.25 326.14548Q307.01562 325.36423 307.01562 324.2236Q307.01562 323.12985 306.29688 322.42673Q305.59375 321.70798 304.5 321.70798Q304.04688 321.70798 303.375 321.89548L303.54688 320.50485Q303.70312 320.52048 303.8125 320.52048Q304.8125 320.52048 305.625 319.98923Q306.4375 319.45798 306.4375 318.36423Q306.4375 317.48923 305.84375 316.92673Q305.25 316.3486 304.32812 316.3486Q303.40625 316.3486 302.78125 316.92673Q302.17188 317.50485 302.0 318.67673L300.42188 318.39548Q300.70312 316.80173 301.73438 315.92673Q302.76562 315.05173 304.29688 315.05173Q305.34375 315.05173 306.23438 315.50485Q307.125 315.95798 307.59375 316.73923Q308.0625 317.52048 308.0625 318.39548Q308.0625 319.23923 307.60938 319.92673Q307.17188 320.5986 306.28125 321.00485Q307.42188 321.27048 308.04688 322.11423Q308.6875 322.94235 308.6875 324.17673Q308.6875 325.86423 307.45312 327.05173Q306.23438 328.2236 304.35938 328.2236Q302.65625 328.2236 301.53125 327.20798Q300.42188 326.19235 300.25 324.58298ZM310.54688 318.19235Q310.54688 316.81735 311.23438 315.8486Q311.9375 314.87985 313.25 314.87985Q314.46875 314.87985 315.26562 315.75485Q316.0625 316.61423 316.0625 318.30173Q316.0625 319.92673 315.25 320.81735Q314.45312 321.69235 313.26562 321.69235Q312.10938 321.69235 311.32812 320.83298Q310.54688 319.95798 310.54688 318.19235ZM313.29688 315.9736Q312.70312 315.9736 312.3125 316.48923Q311.92188 316.98923 311.92188 318.3486Q311.92188 319.5986 312.3125 320.0986Q312.71875 320.5986 313.29688 320.5986Q313.89062 320.5986 314.28125 320.0986Q314.67188 319.58298 314.67188 318.23923Q314.67188 316.98923 314.28125 316.48923Q313.89062 315.9736 313.29688 315.9736ZM313.3125 328.45798L320.35938 314.87985L321.64062 314.87985L314.60938 328.45798L313.3125 328.45798ZM318.875 324.95798Q318.875 323.58298 319.5625 322.61423Q320.26562 321.64548 321.59375 321.64548Q322.8125 321.64548 323.59375 322.52048Q324.39062 323.37985 324.39062 325.06735Q324.39062 326.69235 323.59375 327.58298Q322.79688 328.45798 321.60938 328.45798Q320.4375 328.45798 319.65625 327.58298Q318.875 326.70798 318.875 324.95798ZM321.64062 322.73923Q321.04688 322.73923 320.65625 323.25485Q320.26562 323.75485 320.26562 325.12985Q320.26562 326.3486 320.65625 326.86423Q321.04688 327.37985 321.625 327.37985Q322.23438 327.37985 322.625 326.86423Q323.01562 326.3486 323.01562 325.00485Q323.01562 323.75485 322.625 323.25485Q322.23438 322.73923 321.64062 322.73923Z" fill-rule="nonzero"/><path fill="#ffffff" d="M178.3381 224.97308L176.75998 224.97308L176.75998 214.89496Q176.18185 215.44183 175.25998 215.98871Q174.3381 216.51996 173.5881 216.80121L173.5881 215.26996Q174.91623 214.64496 175.91623 213.75433Q176.91623 212.86371 177.32248 212.03558L178.3381 212.03558L178.3381 224.97308ZM184.82248 217.98871Q183.8381 217.62933 183.35373 216.95746Q182.88498 216.28558 182.88498 215.36371Q182.88498 213.95746 183.88498 213.00433Q184.9006 212.03558 186.5881 212.03558Q188.2756 212.03558 189.29123 213.01996Q190.32248 213.98871 190.32248 215.39496Q190.32248 216.30121 189.85373 216.97308Q189.38498 217.62933 188.43185 217.98871Q189.61935 218.37933 190.22873 219.23871Q190.85373 220.09808 190.85373 221.28558Q190.85373 222.94183 189.68185 224.06683Q188.50998 225.19183 186.60373 225.19183Q184.69748 225.19183 183.5256 224.06683Q182.36935 222.92621 182.36935 221.23871Q182.36935 219.98871 182.99435 219.14496Q183.63498 218.28558 184.82248 217.98871ZM184.49435 215.30121Q184.49435 216.22308 185.0881 216.80121Q185.68185 217.37933 186.61935 217.37933Q187.5256 217.37933 188.10373 216.80121Q188.69748 216.22308 188.69748 215.39496Q188.69748 214.51996 188.0881 213.92621Q187.49435 213.33246 186.60373 213.33246Q185.69748 213.33246 185.0881 213.91058Q184.49435 214.48871 184.49435 215.30121ZM183.99435 221.25433Q183.99435 221.92621 184.30685 222.56683Q184.63498 223.19183 185.25998 223.55121Q185.9006 223.89496 186.63498 223.89496Q187.75998 223.89496 188.49435 223.16058Q189.24435 222.42621 189.24435 221.30121Q189.24435 220.16058 188.47873 219.42621Q187.7131 218.67621 186.57248 218.67621Q185.4631 218.67621 184.72873 219.41058Q183.99435 220.14496 183.99435 221.25433ZM193.2756 224.97308L193.2756 223.17621L195.07248 223.17621L195.07248 224.97308L193.2756 224.97308ZM205.69748 223.45746L205.69748 224.97308L197.18185 224.97308Q197.16623 224.39496 197.36935 223.87933Q197.69748 223.00433 198.4006 222.16058Q199.11935 221.31683 200.47873 220.20746Q202.57248 218.48871 203.30685 217.48871Q204.05685 216.47308 204.05685 215.58246Q204.05685 214.62933 203.38498 213.98871Q202.7131 213.34808 201.63498 213.34808Q200.47873 213.34808 199.79123 214.03558Q199.11935 214.72308 199.10373 215.92621L197.47873 215.75433Q197.6506 213.94183 198.72873 212.98871Q199.82248 212.03558 201.66623 212.03558Q203.50998 212.03558 204.5881 213.06683Q205.68185 214.09808 205.68185 215.61371Q205.68185 216.37933 205.35373 217.12933Q205.04123 217.87933 204.30685 218.70746Q203.57248 219.53558 201.86935 220.97308Q200.44748 222.17621 200.04123 222.59808Q199.63498 223.01996 199.38498 223.45746L205.69748 223.45746ZM207.68185 215.17621Q207.68185 213.80121 208.36935 212.83246Q209.07248 211.86371 210.38498 211.86371Q211.60373 211.86371 212.4006 212.73871Q213.19748 213.59808 213.19748 215.28558Q213.19748 216.91058 212.38498 217.80121Q211.5881 218.67621 210.4006 218.67621Q209.24435 218.67621 208.4631 217.81683Q207.68185 216.94183 207.68185 215.17621ZM210.43185 212.95746Q209.8381 212.95746 209.44748 213.47308Q209.05685 213.97308 209.05685 215.33246Q209.05685 216.58246 209.44748 217.08246Q209.85373 217.58246 210.43185 217.58246Q211.0256 217.58246 211.41623 217.08246Q211.80685 216.56683 211.80685 215.22308Q211.80685 213.97308 211.41623 213.47308Q211.0256 212.95746 210.43185 212.95746ZM210.44748 225.44183L217.49435 211.86371L218.7756 211.86371L211.74435 225.44183L210.44748 225.44183ZM216.00998 221.94183Q216.00998 220.56683 216.69748 219.59808Q217.4006 218.62933 218.72873 218.62933Q219.94748 218.62933 220.72873 219.50433Q221.5256 220.36371 221.5256 222.05121Q221.5256 223.67621 220.72873 224.56683Q219.93185 225.44183 218.74435 225.44183Q217.57248 225.44183 216.79123 224.56683Q216.00998 223.69183 216.00998 221.94183ZM218.7756 219.72308Q218.18185 219.72308 217.79123 220.23871Q217.4006 220.73871 217.4006 222.11371Q217.4006 223.33246 217.79123 223.84808Q218.18185 224.36371 218.75998 224.36371Q219.36935 224.36371 219.75998 223.84808Q220.1506 223.33246 220.1506 221.98871Q220.1506 220.73871 219.75998 220.23871Q219.36935 219.72308 218.7756 219.72308Z" fill-rule="nonzero"/><path fill="#ffffff" d="M224.8657 122.5206L223.28758 122.5206L223.28758 112.442474Q222.70946 112.98935 221.78758 113.536224Q220.8657 114.067474 220.1157 114.348724L220.1157 112.817474Q221.44383 112.192474 222.44383 111.30185Q223.44383 110.411224 223.85008 109.5831L224.8657 109.5831L224.8657 122.5206ZM231.35008 115.536224Q230.3657 115.17685 229.88133 114.504974Q229.41258 113.8331 229.41258 112.911224Q229.41258 111.504974 230.41258 110.55185Q231.4282 109.5831 233.1157 109.5831Q234.8032 109.5831 235.81883 110.567474Q236.85008 111.536224 236.85008 112.942474Q236.85008 113.848724 236.38133 114.5206Q235.91258 115.17685 234.95946 115.536224Q236.14696 115.92685 236.75633 116.786224Q237.38133 117.6456 237.38133 118.8331Q237.38133 120.48935 236.20946 121.61435Q235.03758 122.73935 233.13133 122.73935Q231.22508 122.73935 230.0532 121.61435Q228.89696 120.473724 228.89696 118.786224Q228.89696 117.536224 229.52196 116.692474Q230.16258 115.8331 231.35008 115.536224ZM231.02196 112.848724Q231.02196 113.7706 231.6157 114.348724Q232.20946 114.92685 233.14696 114.92685Q234.0532 114.92685 234.63133 114.348724Q235.22508 113.7706 235.22508 112.942474Q235.22508 112.067474 234.6157 111.473724Q234.02196 110.879974 233.13133 110.879974Q232.22508 110.879974 231.6157 111.4581Q231.02196 112.036224 231.02196 112.848724ZM230.52196 118.80185Q230.52196 119.473724 230.83446 120.11435Q231.16258 120.73935 231.78758 121.098724Q232.4282 121.442474 233.16258 121.442474Q234.28758 121.442474 235.02196 120.7081Q235.77196 119.973724 235.77196 118.848724Q235.77196 117.7081 235.00633 116.973724Q234.2407 116.223724 233.10008 116.223724Q231.9907 116.223724 231.25633 116.9581Q230.52196 117.692474 230.52196 118.80185ZM239.8032 122.5206L239.8032 120.723724L241.60008 120.723724L241.60008 122.5206L239.8032 122.5206ZM252.22508 121.004974L252.22508 122.5206L243.70946 122.5206Q243.69383 121.942474 243.89696 121.42685Q244.22508 120.55185 244.9282 119.7081Q245.64696 118.86435 247.00633 117.754974Q249.10008 116.036224 249.83446 115.036224Q250.58446 114.0206 250.58446 113.129974Q250.58446 112.17685 249.91258 111.536224Q249.2407 110.8956 248.16258 110.8956Q247.00633 110.8956 246.31883 111.5831Q245.64696 112.2706 245.63133 113.473724L244.00633 113.30185Q244.1782 111.48935 245.25633 110.536224Q246.35008 109.5831 248.19383 109.5831Q250.03758 109.5831 251.1157 110.61435Q252.20946 111.6456 252.20946 113.161224Q252.20946 113.92685 251.88133 114.67685Q251.56883 115.42685 250.83446 116.254974Q250.10008 117.0831 248.39696 118.5206Q246.97508 119.723724 246.56883 120.1456Q246.16258 120.567474 245.91258 121.004974L252.22508 121.004974ZM254.20946 112.723724Q254.20946 111.348724 254.89696 110.379974Q255.60008 109.411224 256.9126 109.411224Q258.13135 109.411224 258.92822 110.286224Q259.7251 111.1456 259.7251 112.8331Q259.7251 114.4581 258.9126 115.348724Q258.11572 116.223724 256.92822 116.223724Q255.77196 116.223724 254.9907 115.36435Q254.20946 114.48935 254.20946 112.723724ZM256.95947 110.504974Q256.36572 110.504974 255.97508 111.0206Q255.58446 111.5206 255.58446 112.879974Q255.58446 114.129974 255.97508 114.629974Q256.38135 115.129974 256.95947 115.129974Q257.55322 115.129974 257.94385 114.629974Q258.33447 114.11435 258.33447 112.7706Q258.33447 111.5206 257.94385 111.0206Q257.55322 110.504974 256.95947 110.504974ZM256.9751 122.98935L264.02197 109.411224L265.30322 109.411224L258.27197 122.98935L256.9751 122.98935ZM262.5376 119.48935Q262.5376 118.11435 263.2251 117.1456Q263.92822 116.17685 265.25635 116.17685Q266.4751 116.17685 267.25635 117.05185Q268.05322 117.911224 268.05322 119.598724Q268.05322 121.223724 267.25635 122.11435Q266.45947 122.98935 265.27197 122.98935Q264.1001 122.98935 263.31885 122.11435Q262.5376 121.23935 262.5376 119.48935ZM265.30322 117.2706Q264.70947 117.2706 264.31885 117.786224Q263.92822 118.286224 263.92822 119.661224Q263.92822 120.879974 264.31885 121.3956Q264.70947 121.911224 265.2876 121.911224Q265.89697 121.911224 266.2876 121.3956Q266.67822 120.879974 266.67822 119.536224Q266.67822 118.286224 266.2876 117.786224Q265.89697 117.2706 265.30322 117.2706Z" fill-rule="nonzero"/><path stroke="#ffffff" stroke-width="1.0" stroke-linejoin="round" stroke-linecap="round" d="M333.83072 188.23335C327.78204 174.98856 314.5606 166.49167 300.0 166.49167L300.0 54.916668C358.24243 54.916668 411.12814 88.904236 435.3229 141.88342" fill-rule="nonzero"/><path stroke="#ffffff" stroke-width="1.0" stroke-linejoin="round" stroke-linecap="round" d="M328.10757 228.0387C337.64276 217.03452 339.87943 201.47815 333.83072 188.23335L435.3229 141.88342C459.5177 194.86263 450.57104 257.08807 412.43036 301.10477" fill-rule="nonzero"/><path stroke="#ffffff" stroke-width="1.0" stroke-linejoin="round" stroke-linecap="round" d="M271.89243 228.0387C278.95667 236.19127 289.2126 240.875 300.0 240.875C310.7874 240.875 321.04333 236.19127 328.10757 228.0387L412.43036 301.10477C384.17337 333.7151 343.1496 352.45 300.0 352.45C256.8504 352.45 215.82664 333.7151 187.56966 301.10477" fill-rule="nonzero"/><path stroke="#ffffff" stroke-width="1.0" stroke-linejoin="round" stroke-linecap="round" d="M266.16928 188.23335C260.12057 201.47815 262.35724 217.03452 271.89243 228.0387L187.56966 301.10477C149.42897 257.08807 140.4823 194.86263 164.67708 141.88342" fill-rule="nonzero"/><path stroke="#ffffff" stroke-width="1.0" stroke-linejoin="round" stroke-linecap="round" d="M300.0 166.49167C285.4394 166.49167 272.21796 174.98856 266.16928 188.23335L164.67708 141.88342C188.87187 88.904236 241.75755 54.916668 300.0 54.916668" fill-rule="nonzero"/><path fill="#efefef" d="M27.3 67.83725L28.815624 67.83725L28.815624 74.446625Q28.815624 76.181 28.425 77.196625Q28.034374 78.21225 27.01875 78.852875Q26.003124 79.4935 24.346874 79.4935Q22.7375 79.4935 21.70625 78.931Q20.690624 78.3685 20.253124 77.321625Q19.815624 76.27475 19.815624 74.446625L19.815624 67.83725L21.33125 67.83725L21.33125 74.446625Q21.33125 75.931 21.596874 76.64975Q21.878124 77.352875 22.55 77.7435Q23.2375 78.1185 24.20625 78.1185Q25.878124 78.1185 26.58125 77.3685Q27.3 76.602875 27.3 74.446625L27.3 67.83725ZM31.596874 79.290375L31.596874 70.9935L32.8625 70.9935L32.8625 72.2435Q33.346874 71.3685 33.753124 71.08725Q34.159374 70.806 34.659374 70.806Q35.3625 70.806 36.096874 71.259125L35.6125 72.556Q35.096874 72.259125 34.58125 72.259125Q34.128124 72.259125 33.753124 72.540375Q33.39375 72.806 33.2375 73.306Q33.003124 74.056 33.003124 74.946625L33.003124 79.290375L31.596874 79.290375ZM37.909374 79.290375L36.596874 79.290375L36.596874 67.83725L38.003124 67.83725L38.003124 71.915375Q38.89375 70.806 40.284374 70.806Q41.05 70.806 41.721874 71.1185Q42.409374 71.415375 42.846874 71.977875Q43.3 72.540375 43.55 73.33725Q43.8 74.1185 43.8 75.009125Q43.8 77.14975 42.7375 78.321625Q41.690624 79.477875 40.20625 79.477875Q38.7375 79.477875 37.909374 78.2435L37.909374 79.290375ZM37.89375 75.071625Q37.89375 76.571625 38.3 77.227875Q38.95625 78.321625 40.096874 78.321625Q41.01875 78.321625 41.690624 77.52475Q42.3625 76.71225 42.3625 75.134125Q42.3625 73.509125 41.70625 72.7435Q41.065624 71.96225 40.159374 71.96225Q39.2375 71.96225 38.565624 72.759125Q37.89375 73.556 37.89375 75.071625ZM51.01875 78.259125Q50.2375 78.931 49.51875 79.21225Q48.8 79.477875 47.971874 79.477875Q46.596874 79.477875 45.8625 78.806Q45.128124 78.134125 45.128124 77.102875Q45.128124 76.4935 45.409374 75.9935Q45.690624 75.477875 46.128124 75.181Q46.58125 74.8685 47.14375 74.71225Q47.565624 74.602875 48.39375 74.509125Q50.096874 74.306 50.909374 74.02475Q50.909374 73.727875 50.909374 73.64975Q50.909374 72.790375 50.51875 72.446625Q49.971874 71.96225 48.909374 71.96225Q47.925 71.96225 47.440624 72.321625Q46.971874 72.665375 46.753124 73.540375L45.378124 73.352875Q45.565624 72.477875 45.9875 71.931Q46.425 71.384125 47.2375 71.102875Q48.05 70.806 49.1125 70.806Q50.175 70.806 50.83125 71.056Q51.503124 71.306 51.815624 71.681Q52.128124 72.056 52.253124 72.634125Q52.33125 72.9935 52.33125 73.931L52.33125 75.806Q52.33125 77.77475 52.409374 78.290375Q52.503124 78.806 52.76875 79.290375L51.3 79.290375Q51.08125 78.852875 51.01875 78.259125ZM50.909374 75.1185Q50.14375 75.431 48.6125 75.64975Q47.7375 75.77475 47.378124 75.931Q47.01875 76.08725 46.815624 76.39975Q46.628124 76.696625 46.628124 77.056Q46.628124 77.6185 47.05 77.9935Q47.4875 78.3685 48.3 78.3685Q49.1125 78.3685 49.7375 78.02475Q50.378124 77.665375 50.675 77.040375Q50.909374 76.571625 50.909374 75.634125L50.909374 75.1185ZM54.6125 79.290375L54.6125 70.9935L55.878124 70.9935L55.878124 72.165375Q56.784374 70.806 58.51875 70.806Q59.26875 70.806 59.89375 71.071625Q60.51875 71.33725 60.83125 71.77475Q61.14375 72.21225 61.26875 72.821625Q61.346874 73.21225 61.346874 74.181L61.346874 79.290375L59.940624 79.290375L59.940624 74.2435Q59.940624 73.384125 59.76875 72.96225Q59.6125 72.52475 59.190624 72.27475Q58.784374 72.02475 58.221874 72.02475Q57.315624 72.02475 56.659374 72.602875Q56.01875 73.165375 56.01875 74.759125L56.01875 79.290375L54.6125 79.290375ZM63.05 76.806L64.44063 76.58725Q64.55 77.431 65.08125 77.884125Q65.62813 78.321625 66.58125 78.321625Q67.55 78.321625 68.01875 77.931Q68.4875 77.52475 68.4875 76.9935Q68.4875 76.52475 68.08125 76.2435Q67.78438 76.056 66.64375 75.77475Q65.09688 75.384125 64.4875 75.102875Q63.89375 74.806 63.58125 74.306Q63.284374 73.806 63.284374 73.196625Q63.284374 72.634125 63.534374 72.165375Q63.784374 71.696625 64.22188 71.384125Q64.55 71.134125 65.1125 70.977875Q65.69063 70.806 66.33125 70.806Q67.31563 70.806 68.05 71.08725Q68.78438 71.3685 69.12813 71.852875Q69.4875 72.321625 69.62813 73.134125L68.25313 73.321625Q68.15938 72.681 67.70625 72.321625Q67.25313 71.96225 66.44063 71.96225Q65.47188 71.96225 65.05 72.290375Q64.64375 72.602875 64.64375 73.02475Q64.64375 73.306 64.81563 73.52475Q64.9875 73.7435 65.34688 73.89975Q65.56563 73.977875 66.59688 74.259125Q68.08125 74.64975 68.675 74.915375Q69.26875 75.165375 69.59688 75.64975Q69.94063 76.134125 69.94063 76.852875Q69.94063 77.556 69.51875 78.181Q69.1125 78.790375 68.33125 79.134125Q67.56563 79.477875 66.59688 79.477875Q64.97188 79.477875 64.12813 78.806Q63.284374 78.134125 63.05 76.806ZM77.01875 76.2435L78.40938 76.431Q78.175 77.852875 77.2375 78.665375Q76.31563 79.477875 74.95625 79.477875Q73.25313 79.477875 72.20625 78.3685Q71.175 77.2435 71.175 75.165375Q71.175 73.821625 71.6125 72.821625Q72.06563 71.806 72.97188 71.306Q73.89375 70.806 74.95625 70.806Q76.31563 70.806 77.175 71.4935Q78.03438 72.165375 78.26875 73.431L76.90938 73.634125Q76.70625 72.806 76.20625 72.384125Q75.72188 71.96225 75.01875 71.96225Q73.95625 71.96225 73.28438 72.727875Q72.62813 73.477875 72.62813 75.134125Q72.62813 76.806 73.26875 77.571625Q73.90938 78.321625 74.94063 78.321625Q75.76875 78.321625 76.31563 77.821625Q76.87813 77.306 77.01875 76.2435ZM85.01875 78.259125Q84.2375 78.931 83.51875 79.21225Q82.8 79.477875 81.97188 79.477875Q80.59688 79.477875 79.8625 78.806Q79.12813 78.134125 79.12813 77.102875Q79.12813 76.4935 79.40938 75.9935Q79.69063 75.477875 80.12813 75.181Q80.58125 74.8685 81.14375 74.71225Q81.56563 74.602875 82.39375 74.509125Q84.09688 74.306 84.90938 74.02475Q84.90938 73.727875 84.90938 73.64975Q84.90938 72.790375 84.51875 72.446625Q83.97188 71.96225 82.90938 71.96225Q81.925 71.96225 81.44063 72.321625Q80.97188 72.665375 80.75313 73.540375L79.37813 73.352875Q79.56563 72.477875 79.9875 71.931Q80.425 71.384125 81.2375 71.102875Q82.05 70.806 83.1125 70.806Q84.175 70.806 84.83125 71.056Q85.50313 71.306 85.81563 71.681Q86.12813 72.056 86.25313 72.634125Q86.33125 72.9935 86.33125 73.931L86.33125 75.806Q86.33125 77.77475 86.40938 78.290375Q86.50313 78.806 86.76875 79.290375L85.3 79.290375Q85.08125 78.852875 85.01875 78.259125ZM84.90938 75.1185Q84.14375 75.431 82.6125 75.64975Q81.7375 75.77475 81.37813 75.931Q81.01875 76.08725 80.81563 76.39975Q80.62813 76.696625 80.62813 77.056Q80.62813 77.6185 81.05 77.9935Q81.4875 78.3685 82.3 78.3685Q83.1125 78.3685 83.7375 78.02475Q84.37813 77.665375 84.675 77.040375Q84.90938 76.571625 84.90938 75.634125L84.90938 75.1185ZM88.6125 82.477875L88.6125 70.9935L89.89375 70.9935L89.89375 72.071625Q90.34688 71.431 90.90938 71.1185Q91.4875 70.806 92.3 70.806Q93.3625 70.806 94.175 71.352875Q94.9875 71.89975 95.39375 72.89975Q95.81563 73.884125 95.81563 75.071625Q95.81563 76.352875 95.34688 77.3685Q94.89375 78.384125 94.01875 78.931Q93.15938 79.477875 92.19063 79.477875Q91.4875 79.477875 90.925 79.181Q90.37813 78.884125 90.01875 78.431L90.01875 82.477875L88.6125 82.477875ZM89.87813 75.181Q89.87813 76.790375 90.51875 77.556Q91.175 78.321625 92.09688 78.321625Q93.03438 78.321625 93.70625 77.52475Q94.37813 76.727875 94.37813 75.071625Q94.37813 73.477875 93.72188 72.696625Q93.06563 71.89975 92.15938 71.89975Q91.26875 71.89975 90.56563 72.7435Q89.87813 73.58725 89.87813 75.181ZM103.28438 76.6185L104.7375 76.790375Q104.39375 78.071625 103.45625 78.77475Q102.53438 79.477875 101.09688 79.477875Q99.26875 79.477875 98.20625 78.352875Q97.14375 77.227875 97.14375 75.21225Q97.14375 73.1185 98.22188 71.96225Q99.3 70.806 101.01875 70.806Q102.675 70.806 103.72188 71.946625Q104.78438 73.071625 104.78438 75.1185Q104.78438 75.2435 104.78438 75.4935L98.59688 75.4935Q98.675 76.8685 99.3625 77.602875Q100.06563 78.321625 101.09688 78.321625Q101.87813 78.321625 102.425 77.915375Q102.97188 77.509125 103.28438 76.6185ZM98.675 74.33725L103.3 74.33725Q103.20625 73.290375 102.76875 72.77475Q102.09688 71.96225 101.03438 71.96225Q100.06563 71.96225 99.39375 72.6185Q98.7375 73.259125 98.675 74.33725Z" fill-rule="nonzero"/><path fill="#9e9e9e" d="M24.51875 101.290375L23.1125 101.290375L23.1125 92.321625Q22.596874 92.806 21.76875 93.290375Q20.95625 93.77475 20.3 94.02475L20.3 92.665375Q21.471874 92.102875 22.346874 91.321625Q23.2375 90.52475 23.6125 89.790375L24.51875 89.790375L24.51875 101.290375ZM30.378124 95.071625Q29.503124 94.759125 29.08125 94.165375Q28.659374 93.571625 28.659374 92.7435Q28.659374 91.4935 29.55 90.64975Q30.45625 89.790375 31.95625 89.790375Q33.45625 89.790375 34.3625 90.665375Q35.284374 91.52475 35.284374 92.77475Q35.284374 93.571625 34.8625 94.165375Q34.440624 94.759125 33.596874 95.071625Q34.64375 95.415375 35.190624 96.181Q35.753124 96.946625 35.753124 98.009125Q35.753124 99.477875 34.70625 100.4935Q33.675 101.4935 31.971874 101.4935Q30.284374 101.4935 29.2375 100.4935Q28.20625 99.477875 28.20625 97.977875Q28.20625 96.852875 28.76875 96.102875Q29.33125 95.352875 30.378124 95.071625ZM30.096874 92.696625Q30.096874 93.509125 30.6125 94.02475Q31.14375 94.540375 31.9875 94.540375Q32.8 94.540375 33.315624 94.02475Q33.83125 93.509125 33.83125 92.77475Q33.83125 91.9935 33.3 91.477875Q32.76875 90.946625 31.971874 90.946625Q31.159374 90.946625 30.628124 91.46225Q30.096874 91.977875 30.096874 92.696625ZM29.64375 97.977875Q29.64375 98.58725 29.925 99.14975Q30.221874 99.71225 30.784374 100.02475Q31.346874 100.321625 31.9875 100.321625Q33.003124 100.321625 33.659374 99.681Q34.315624 99.02475 34.315624 98.02475Q34.315624 97.009125 33.628124 96.352875Q32.95625 95.681 31.940624 95.681Q30.95625 95.681 30.3 96.33725Q29.64375 96.9935 29.64375 97.977875ZM38.003124 101.290375L38.003124 99.681L39.6125 99.681L39.6125 101.290375L38.003124 101.290375ZM48.6125 99.931L48.6125 101.290375L41.034374 101.290375Q41.01875 100.77475 41.20625 100.306Q41.4875 99.540375 42.128124 98.790375Q42.76875 98.040375 43.971874 97.056Q45.83125 95.52475 46.4875 94.634125Q47.14375 93.727875 47.14375 92.931Q47.14375 92.102875 46.55 91.52475Q45.95625 90.946625 44.9875 90.946625Q43.971874 90.946625 43.3625 91.556Q42.753124 92.165375 42.753124 93.2435L41.3 93.102875Q41.45625 91.477875 42.425 90.634125Q43.39375 89.790375 45.01875 89.790375Q46.675 89.790375 47.628124 90.71225Q48.596874 91.6185 48.596874 92.96225Q48.596874 93.64975 48.315624 94.321625Q48.034374 94.977875 47.378124 95.71225Q46.721874 96.446625 45.20625 97.727875Q43.940624 98.790375 43.58125 99.181Q43.221874 99.556 42.9875 99.931L48.6125 99.931ZM50.4875 92.58725Q50.4875 91.352875 51.096874 90.4935Q51.721874 89.634125 52.89375 89.634125Q53.971874 89.634125 54.675 90.415375Q55.378124 91.181 55.378124 92.665375Q55.378124 94.1185 54.659374 94.915375Q53.95625 95.696625 52.909374 95.696625Q51.8625 95.696625 51.175 94.931Q50.4875 94.14975 50.4875 92.58725ZM52.925 90.602875Q52.409374 90.602875 52.05 91.056Q51.70625 91.509125 51.70625 92.727875Q51.70625 93.821625 52.05 94.27475Q52.409374 94.727875 52.925 94.727875Q53.45625 94.727875 53.8 94.27475Q54.159374 93.821625 54.159374 92.6185Q54.159374 91.509125 53.8 91.056Q53.45625 90.602875 52.925 90.602875ZM52.940624 101.71225L59.20625 89.634125L60.346874 89.634125L54.096874 101.71225L52.940624 101.71225ZM57.89375 98.602875Q57.89375 97.3685 58.503124 96.509125Q59.128124 95.64975 60.3 95.64975Q61.378124 95.64975 62.08125 96.431Q62.8 97.196625 62.8 98.681Q62.8 100.134125 62.08125 100.931Q61.3625 101.71225 60.315624 101.71225Q59.26875 101.71225 58.58125 100.931Q57.89375 100.14975 57.89375 98.602875ZM60.346874 96.6185Q59.815624 96.6185 59.45625 97.071625Q59.1125 97.52475 59.1125 98.7435Q59.1125 99.83725 59.45625 100.290375Q59.815624 100.7435 60.33125 100.7435Q60.878124 100.7435 61.221874 100.290375Q61.565624 99.83725 61.565624 98.634125Q61.565624 97.52475 61.20625 97.071625Q60.8625 96.6185 60.346874 96.6185Z" fill-rule="nonzero"/><path stroke="#757575" stroke-width="1.0" stroke-linecap="butt" d="M18.55 84.790375L145.23334 84.790375L223.59213 84.790375" fill-rule="nonzero"/><path fill="#9e9e9e" d="M225.59213 84.790375C225.59213 83.68581 224.6967 82.790375 223.59213 82.790375C222.48756 82.790375 221.59213 83.68581 221.59213 84.790375C221.59213 85.89494 222.48756 86.790375 223.59213 86.790375C224.6967 86.790375 225.59213 85.89494 225.59213 84.790375" fill-rule="nonzero"/><path fill="#efefef" d="M19.76875 218.29645L19.76875 206.84332L21.33125 206.84332L27.346874 215.8277L27.346874 206.84332L28.8 206.84332L28.8 218.29645L27.2375 218.29645L21.221874 209.29645L21.221874 218.29645L19.76875 218.29645ZM37.01875 217.2652Q36.2375 217.93707 35.51875 218.21832Q34.8 218.48395 33.971874 218.48395Q32.596874 218.48395 31.8625 217.81207Q31.128124 217.1402 31.128124 216.10895Q31.128124 215.49957 31.409374 214.99957Q31.690624 214.48395 32.128124 214.18707Q32.58125 213.87457 33.14375 213.71832Q33.565624 213.60895 34.39375 213.5152Q36.096874 213.31207 36.909374 213.03082Q36.909374 212.73395 36.909374 212.65582Q36.909374 211.79645 36.51875 211.4527Q35.971874 210.96832 34.909374 210.96832Q33.925 210.96832 33.440624 211.3277Q32.971874 211.67145 32.753124 212.54645L31.378124 212.35895Q31.565624 211.48395 31.9875 210.93707Q32.425 210.3902 33.2375 210.10895Q34.05 209.81207 35.1125 209.81207Q36.175 209.81207 36.83125 210.06207Q37.503124 210.31207 37.815624 210.68707Q38.128124 211.06207 38.253124 211.6402Q38.33125 211.99957 38.33125 212.93707L38.33125 214.81207Q38.33125 216.78082 38.409374 217.29645Q38.503124 217.81207 38.76875 218.29645L37.3 218.29645Q37.08125 217.85895 37.01875 217.2652ZM36.909374 214.12457Q36.14375 214.43707 34.6125 214.65582Q33.7375 214.78082 33.378124 214.93707Q33.01875 215.09332 32.815624 215.40582Q32.628124 215.7027 32.628124 216.06207Q32.628124 216.62457 33.05 216.99957Q33.4875 217.37457 34.3 217.37457Q35.1125 217.37457 35.7375 217.03082Q36.378124 216.67145 36.675 216.04645Q36.909374 215.5777 36.909374 214.6402L36.909374 214.12457ZM43.675 217.03082L43.878124 218.28082Q43.284374 218.40582 42.815624 218.40582Q42.05 218.40582 41.628124 218.17145Q41.20625 217.92145 41.034374 217.53082Q40.8625 217.12457 40.8625 215.85895L40.8625 211.09332L39.83125 211.09332L39.83125 209.99957L40.8625 209.99957L40.8625 207.93707L42.26875 207.09332L42.26875 209.99957L43.675 209.99957L43.675 211.09332L42.26875 211.09332L42.26875 215.93707Q42.26875 216.54645 42.33125 216.71832Q42.409374 216.8902 42.58125 216.99957Q42.753124 217.09332 43.065624 217.09332Q43.3 217.09332 43.675 217.03082ZM50.05 218.29645L50.05 217.0777Q49.08125 218.48395 47.409374 218.48395Q46.675 218.48395 46.034374 218.2027Q45.409374 217.92145 45.096874 217.49957Q44.784374 217.06207 44.659374 216.4527Q44.58125 216.03082 44.58125 215.1402L44.58125 209.99957L45.9875 209.99957L45.9875 214.59332Q45.9875 215.7027 46.065624 216.0777Q46.20625 216.6402 46.628124 216.9527Q47.065624 217.2652 47.690624 217.2652Q48.33125 217.2652 48.878124 216.9527Q49.440624 216.62457 49.659374 216.06207Q49.89375 215.49957 49.89375 214.43707L49.89375 209.99957L51.3 209.99957L51.3 218.29645L50.05 218.29645ZM53.596874 218.29645L53.596874 209.99957L54.8625 209.99957L54.8625 211.24957Q55.346874 210.37457 55.753124 210.09332Q56.159374 209.81207 56.659374 209.81207Q57.3625 209.81207 58.096874 210.2652L57.6125 211.56207Q57.096874 211.2652 56.58125 211.2652Q56.128124 211.2652 55.753124 211.54645Q55.39375 211.81207 55.2375 212.31207Q55.003124 213.06207 55.003124 213.9527L55.003124 218.29645L53.596874 218.29645ZM64.28438 215.62457L65.7375 215.79645Q65.39375 217.0777 64.45625 217.78082Q63.534374 218.48395 62.096874 218.48395Q60.26875 218.48395 59.20625 217.35895Q58.14375 216.23395 58.14375 214.21832Q58.14375 212.12457 59.221874 210.96832Q60.3 209.81207 62.01875 209.81207Q63.675 209.81207 64.72188 210.9527Q65.78438 212.0777 65.78438 214.12457Q65.78438 214.24957 65.78438 214.49957L59.596874 214.49957Q59.675 215.87457 60.3625 216.60895Q61.065624 217.3277 62.096874 217.3277Q62.878124 217.3277 63.425 216.92145Q63.971874 216.5152 64.28438 215.62457ZM59.675 213.34332L64.3 213.34332Q64.20625 212.29645 63.76875 211.78082Q63.096874 210.96832 62.034374 210.96832Q61.065624 210.96832 60.39375 211.62457Q59.7375 212.2652 59.675 213.34332ZM67.05 215.81207L68.44063 215.59332Q68.55 216.43707 69.08125 216.8902Q69.62813 217.3277 70.58125 217.3277Q71.55 217.3277 72.01875 216.93707Q72.4875 216.53082 72.4875 215.99957Q72.4875 215.53082 72.08125 215.24957Q71.78438 215.06207 70.64375 214.78082Q69.09688 214.3902 68.4875 214.10895Q67.89375 213.81207 67.58125 213.31207Q67.28438 212.81207 67.28438 212.2027Q67.28438 211.6402 67.53438 211.17145Q67.78438 210.7027 68.22188 210.3902Q68.55 210.1402 69.1125 209.98395Q69.69063 209.81207 70.33125 209.81207Q71.31563 209.81207 72.05 210.09332Q72.78438 210.37457 73.12813 210.85895Q73.4875 211.3277 73.62813 212.1402L72.25313 212.3277Q72.15938 211.68707 71.70625 211.3277Q71.25313 210.96832 70.44063 210.96832Q69.47188 210.96832 69.05 211.29645Q68.64375 211.60895 68.64375 212.03082Q68.64375 212.31207 68.81563 212.53082Q68.9875 212.74957 69.34688 212.90582Q69.56563 212.98395 70.59688 213.2652Q72.08125 213.65582 72.675 213.92145Q73.26875 214.17145 73.59688 214.65582Q73.94063 215.1402 73.94063 215.85895Q73.94063 216.56207 73.51875 217.18707Q73.1125 217.79645 72.33125 218.1402Q71.56563 218.48395 70.59688 218.48395Q68.97188 218.48395 68.12813 217.81207Q67.28438 217.1402 67.05 215.81207ZM81.01875 215.24957L82.40938 215.43707Q82.175 216.85895 81.2375 217.67145Q80.31563 218.48395 78.95625 218.48395Q77.25313 218.48395 76.20625 217.37457Q75.175 216.24957 75.175 214.17145Q75.175 212.8277 75.6125 211.8277Q76.06563 210.81207 76.97188 210.31207Q77.89375 209.81207 78.95625 209.81207Q80.31563 209.81207 81.175 210.49957Q82.03438 211.17145 82.26875 212.43707L80.90938 212.6402Q80.70625 211.81207 80.20625 211.3902Q79.72188 210.96832 79.01875 210.96832Q77.95625 210.96832 77.28438 211.73395Q76.62813 212.48395 76.62813 214.1402Q76.62813 215.81207 77.26875 216.5777Q77.90938 217.3277 78.94063 217.3277Q79.76875 217.3277 80.31563 216.8277Q80.87813 216.31207 81.01875 215.24957ZM89.01875 217.2652Q88.2375 217.93707 87.51875 218.21832Q86.8 218.48395 85.97188 218.48395Q84.59688 218.48395 83.8625 217.81207Q83.12813 217.1402 83.12813 216.10895Q83.12813 215.49957 83.40938 214.99957Q83.69063 214.48395 84.12813 214.18707Q84.58125 213.87457 85.14375 213.71832Q85.56563 213.60895 86.39375 213.5152Q88.09688 213.31207 88.90938 213.03082Q88.90938 212.73395 88.90938 212.65582Q88.90938 211.79645 88.51875 211.4527Q87.97188 210.96832 86.90938 210.96832Q85.925 210.96832 85.44063 211.3277Q84.97188 211.67145 84.75313 212.54645L83.37813 212.35895Q83.56563 211.48395 83.9875 210.93707Q84.425 210.3902 85.2375 210.10895Q86.05 209.81207 87.1125 209.81207Q88.175 209.81207 88.83125 210.06207Q89.50313 210.31207 89.81563 210.68707Q90.12813 211.06207 90.25313 211.6402Q90.33125 211.99957 90.33125 212.93707L90.33125 214.81207Q90.33125 216.78082 90.40938 217.29645Q90.50313 217.81207 90.76875 218.29645L89.3 218.29645Q89.08125 217.85895 89.01875 217.2652ZM88.90938 214.12457Q88.14375 214.43707 86.6125 214.65582Q85.7375 214.78082 85.37813 214.93707Q85.01875 215.09332 84.81563 215.40582Q84.62813 215.7027 84.62813 216.06207Q84.62813 216.62457 85.05 216.99957Q85.4875 217.37457 86.3 217.37457Q87.1125 217.37457 87.7375 217.03082Q88.37813 216.67145 88.675 216.04645Q88.90938 215.5777 88.90938 214.6402L88.90938 214.12457ZM92.6125 221.48395L92.6125 209.99957L93.89375 209.99957L93.89375 211.0777Q94.34688 210.43707 94.90938 210.12457Q95.4875 209.81207 96.3 209.81207Q97.3625 209.81207 98.175 210.35895Q98.9875 210.90582 99.39375 211.90582Q99.81563 212.8902 99.81563 214.0777Q99.81563 215.35895 99.34688 216.37457Q98.89375 217.3902 98.01875 217.93707Q97.15938 218.48395 96.19063 218.48395Q95.4875 218.48395 94.925 218.18707Q94.37813 217.8902 94.01875 217.43707L94.01875 221.48395L92.6125 221.48395ZM93.87813 214.18707Q93.87813 215.79645 94.51875 216.56207Q95.175 217.3277 96.09688 217.3277Q97.03438 217.3277 97.70625 216.53082Q98.37813 215.73395 98.37813 214.0777Q98.37813 212.48395 97.72188 211.7027Q97.06563 210.90582 96.15938 210.90582Q95.26875 210.90582 94.56563 211.74957Q93.87813 212.59332 93.87813 214.18707ZM107.28438 215.62457L108.7375 215.79645Q108.39375 217.0777 107.45625 217.78082Q106.53438 218.48395 105.09688 218.48395Q103.26875 218.48395 102.20625 217.35895Q101.14375 216.23395 101.14375 214.21832Q101.14375 212.12457 102.22188 210.96832Q103.3 209.81207 105.01875 209.81207Q106.675 209.81207 107.72188 210.9527Q108.78438 212.0777 108.78438 214.12457Q108.78438 214.24957 108.78438 214.49957L102.59688 214.49957Q102.675 215.87457 103.3625 216.60895Q104.06563 217.3277 105.09688 217.3277Q105.87813 217.3277 106.425 216.92145Q106.97188 216.5152 107.28438 215.62457ZM102.675 213.34332L107.3 213.34332Q107.20625 212.29645 106.76875 211.78082Q106.09688 210.96832 105.03438 210.96832Q104.06563 210.96832 103.39375 211.62457Q102.7375 212.2652 102.675 213.34332Z" fill-rule="nonzero"/><path fill="#9e9e9e" d="M24.51875 240.29645L23.1125 240.29645L23.1125 231.3277Q22.596874 231.81207 21.76875 232.29645Q20.95625 232.78082 20.3 233.03082L20.3 231.67145Q21.471874 231.10895 22.346874 230.3277Q23.2375 229.53082 23.6125 228.79645L24.51875 228.79645L24.51875 240.29645ZM30.378124 234.0777Q29.503124 233.7652 29.08125 233.17145Q28.659374 232.5777 28.659374 231.74957Q28.659374 230.49957 29.55 229.65582Q30.45625 228.79645 31.95625 228.79645Q33.45625 228.79645 34.3625 229.67145Q35.284374 230.53082 35.284374 231.78082Q35.284374 232.5777 34.8625 233.17145Q34.440624 233.7652 33.596874 234.0777Q34.64375 234.42145 35.190624 235.18707Q35.753124 235.9527 35.753124 237.0152Q35.753124 238.48395 34.70625 239.49957Q33.675 240.49957 31.971874 240.49957Q30.284374 240.49957 29.2375 239.49957Q28.20625 238.48395 28.20625 236.98395Q28.20625 235.85895 28.76875 235.10895Q29.33125 234.35895 30.378124 234.0777ZM30.096874 231.7027Q30.096874 232.5152 30.6125 233.03082Q31.14375 233.54645 31.9875 233.54645Q32.8 233.54645 33.315624 233.03082Q33.83125 232.5152 33.83125 231.78082Q33.83125 230.99957 33.3 230.48395Q32.76875 229.9527 31.971874 229.9527Q31.159374 229.9527 30.628124 230.46832Q30.096874 230.98395 30.096874 231.7027ZM29.64375 236.98395Q29.64375 237.59332 29.925 238.15582Q30.221874 238.71832 30.784374 239.03082Q31.346874 239.3277 31.9875 239.3277Q33.003124 239.3277 33.659374 238.68707Q34.315624 238.03082 34.315624 237.03082Q34.315624 236.0152 33.628124 235.35895Q32.95625 234.68707 31.940624 234.68707Q30.95625 234.68707 30.3 235.34332Q29.64375 235.99957 29.64375 236.98395ZM38.003124 240.29645L38.003124 238.68707L39.6125 238.68707L39.6125 240.29645L38.003124 240.29645ZM48.6125 238.93707L48.6125 240.29645L41.034374 240.29645Q41.01875 239.78082 41.20625 239.31207Q41.4875 238.54645 42.128124 237.79645Q42.76875 237.04645 43.971874 236.06207Q45.83125 234.53082 46.4875 233.6402Q47.14375 232.73395 47.14375 231.93707Q47.14375 231.10895 46.55 230.53082Q45.95625 229.9527 44.9875 229.9527Q43.971874 229.9527 43.3625 230.56207Q42.753124 231.17145 42.753124 232.24957L41.3 232.10895Q41.45625 230.48395 42.425 229.6402Q43.39375 228.79645 45.01875 228.79645Q46.675 228.79645 47.628124 229.71832Q48.596874 230.62457 48.596874 231.96832Q48.596874 232.65582 48.315624 233.3277Q48.034374 233.98395 47.378124 234.71832Q46.721874 235.4527 45.20625 236.73395Q43.940624 237.79645 43.58125 238.18707Q43.221874 238.56207 42.9875 238.93707L48.6125 238.93707ZM50.4875 231.59332Q50.4875 230.35895 51.096874 229.49957Q51.721874 228.6402 52.89375 228.6402Q53.971874 228.6402 54.675 229.42145Q55.378124 230.18707 55.378124 231.67145Q55.378124 233.12457 54.659374 233.92145Q53.95625 234.7027 52.909374 234.7027Q51.8625 234.7027 51.175 233.93707Q50.4875 233.15582 50.4875 231.59332ZM52.925 229.60895Q52.409374 229.60895 52.05 230.06207Q51.70625 230.5152 51.70625 231.73395Q51.70625 232.8277 52.05 233.28082Q52.409374 233.73395 52.925 233.73395Q53.45625 233.73395 53.8 233.28082Q54.159374 232.8277 54.159374 231.62457Q54.159374 230.5152 53.8 230.06207Q53.45625 229.60895 52.925 229.60895ZM52.940624 240.71832L59.20625 228.6402L60.346874 228.6402L54.096874 240.71832L52.940624 240.71832ZM57.89375 237.60895Q57.89375 236.37457 58.503124 235.5152Q59.128124 234.65582 60.3 234.65582Q61.378124 234.65582 62.08125 235.43707Q62.8 236.2027 62.8 237.68707Q62.8 239.1402 62.08125 239.93707Q61.3625 240.71832 60.315624 240.71832Q59.26875 240.71832 58.58125 239.93707Q57.89375 239.15582 57.89375 237.60895ZM60.346874 235.62457Q59.815624 235.62457 59.45625 236.0777Q59.1125 236.53082 59.1125 237.74957Q59.1125 238.84332 59.45625 239.29645Q59.815624 239.74957 60.33125 239.74957Q60.878124 239.74957 61.221874 239.29645Q61.565624 238.84332 61.565624 237.6402Q61.565624 236.53082 61.20625 236.0777Q60.8625 235.62457 60.346874 235.62457Z" fill-rule="nonzero"/><path stroke="#757575" stroke-width="1.0" stroke-linecap="butt" d="M18.55 223.79645L145.23334 223.79645L160.11018 223.79645" fill-rule="nonzero"/><path fill="#9e9e9e" d="M162.11018 223.79645C162.11018 222.69188 161.21475 221.79645 160.11018 221.79645C159.00562 221.79645 158.11018 222.69188 158.11018 223.79645C158.11018 224.90102 159.00562 225.79645 160.11018 225.79645C161.21475 225.79645 162.11018 224.90102 162.11018 223.79645" fill-rule="nonzero"/><path fill="#efefef" d="M551.6375 79.290375L551.6375 67.83725L553.91876 67.83725L556.6375 75.946625Q557.0125 77.071625 557.1844 77.634125Q557.3719 77.009125 557.79376 75.806L560.52814 67.83725L562.575 67.83725L562.575 79.290375L561.10626 79.290375L561.10626 69.696625L557.77814 79.290375L556.41876 79.290375L553.10626 69.540375L553.10626 79.290375L551.6375 79.290375ZM569.91876 78.259125Q569.1375 78.931 568.41876 79.21225Q567.7 79.477875 566.8719 79.477875Q565.4969 79.477875 564.7625 78.806Q564.02814 78.134125 564.02814 77.102875Q564.02814 76.4935 564.3094 75.9935Q564.59064 75.477875 565.02814 75.181Q565.48126 74.8685 566.04376 74.71225Q566.46564 74.602875 567.29376 74.509125Q568.9969 74.306 569.8094 74.02475Q569.8094 73.727875 569.8094 73.64975Q569.8094 72.790375 569.41876 72.446625Q568.8719 71.96225 567.8094 71.96225Q566.825 71.96225 566.34064 72.321625Q565.8719 72.665375 565.65314 73.540375L564.27814 73.352875Q564.46564 72.477875 564.8875 71.931Q565.325 71.384125 566.1375 71.102875Q566.95 70.806 568.0125 70.806Q569.075 70.806 569.73126 71.056Q570.40314 71.306 570.71564 71.681Q571.02814 72.056 571.15314 72.634125Q571.23126 72.9935 571.23126 73.931L571.23126 75.806Q571.23126 77.77475 571.3094 78.290375Q571.40314 78.806 571.66876 79.290375L570.2 79.290375Q569.98126 78.852875 569.91876 78.259125ZM569.8094 75.1185Q569.04376 75.431 567.5125 75.64975Q566.6375 75.77475 566.27814 75.931Q565.91876 76.08725 565.71564 76.39975Q565.52814 76.696625 565.52814 77.056Q565.52814 77.6185 565.95 77.9935Q566.3875 78.3685 567.2 78.3685Q568.0125 78.3685 568.6375 78.02475Q569.27814 77.665375 569.575 77.040375Q569.8094 76.571625 569.8094 75.634125L569.8094 75.1185ZM573.5125 82.477875L573.5125 70.9935L574.79376 70.9935L574.79376 72.071625Q575.2469 71.431 575.8094 71.1185Q576.3875 70.806 577.2 70.806Q578.2625 70.806 579.075 71.352875Q579.8875 71.89975 580.29376 72.89975Q580.71564 73.884125 580.71564 75.071625Q580.71564 76.352875 580.2469 77.3685Q579.79376 78.384125 578.91876 78.931Q578.0594 79.477875 577.09064 79.477875Q576.3875 79.477875 575.825 79.181Q575.27814 78.884125 574.91876 78.431L574.91876 82.477875L573.5125 82.477875ZM574.77814 75.181Q574.77814 76.790375 575.41876 77.556Q576.075 78.321625 576.9969 78.321625Q577.9344 78.321625 578.60626 77.52475Q579.27814 76.727875 579.27814 75.071625Q579.27814 73.477875 578.6219 72.696625Q577.96564 71.89975 577.0594 71.89975Q576.16876 71.89975 575.46564 72.7435Q574.77814 73.58725 574.77814 75.181Z" fill-rule="nonzero"/><path fill="#9e9e9e" d="M542.41876 101.290375L541.0125 101.290375L541.0125 92.321625Q540.4969 92.806 539.66876 93.290375Q538.85626 93.77475 538.2 94.02475L538.2 92.665375Q539.3719 92.102875 540.2469 91.321625Q541.1375 90.52475 541.5125 89.790375L542.41876 89.790375L542.41876 101.290375ZM548.27814 95.071625Q547.40314 94.759125 546.98126 94.165375Q546.5594 93.571625 546.5594 92.7435Q546.5594 91.4935 547.45 90.64975Q548.35626 89.790375 549.85626 89.790375Q551.35626 89.790375 552.2625 90.665375Q553.1844 91.52475 553.1844 92.77475Q553.1844 93.571625 552.7625 94.165375Q552.34064 94.759125 551.4969 95.071625Q552.54376 95.415375 553.09064 96.181Q553.65314 96.946625 553.65314 98.009125Q553.65314 99.477875 552.60626 100.4935Q551.575 101.4935 549.8719 101.4935Q548.1844 101.4935 547.1375 100.4935Q546.10626 99.477875 546.10626 97.977875Q546.10626 96.852875 546.66876 96.102875Q547.23126 95.352875 548.27814 95.071625ZM547.9969 92.696625Q547.9969 93.509125 548.5125 94.02475Q549.04376 94.540375 549.8875 94.540375Q550.7 94.540375 551.21564 94.02475Q551.73126 93.509125 551.73126 92.77475Q551.73126 91.9935 551.2 91.477875Q550.66876 90.946625 549.8719 90.946625Q549.0594 90.946625 548.52814 91.46225Q547.9969 91.977875 547.9969 92.696625ZM547.54376 97.977875Q547.54376 98.58725 547.825 99.14975Q548.1219 99.71225 548.6844 100.02475Q549.2469 100.321625 549.8875 100.321625Q550.90314 100.321625 551.5594 99.681Q552.21564 99.02475 552.21564 98.02475Q552.21564 97.009125 551.52814 96.352875Q550.85626 95.681 549.84064 95.681Q548.85626 95.681 548.2 96.33725Q547.54376 96.9935 547.54376 97.977875ZM555.90314 101.290375L555.90314 99.681L557.5125 99.681L557.5125 101.290375L555.90314 101.290375ZM566.5125 99.931L566.5125 101.290375L558.9344 101.290375Q558.91876 100.77475 559.10626 100.306Q559.3875 99.540375 560.02814 98.790375Q560.66876 98.040375 561.8719 97.056Q563.73126 95.52475 564.3875 94.634125Q565.04376 93.727875 565.04376 92.931Q565.04376 92.102875 564.45 91.52475Q563.85626 90.946625 562.8875 90.946625Q561.8719 90.946625 561.2625 91.556Q560.65314 92.165375 560.65314 93.2435L559.2 93.102875Q559.35626 91.477875 560.325 90.634125Q561.29376 89.790375 562.91876 89.790375Q564.575 89.790375 565.52814 90.71225Q566.4969 91.6185 566.4969 92.96225Q566.4969 93.64975 566.21564 94.321625Q565.9344 94.977875 565.27814 95.71225Q564.6219 96.446625 563.10626 97.727875Q561.84064 98.790375 561.48126 99.181Q561.1219 99.556 560.8875 99.931L566.5125 99.931ZM568.3875 92.58725Q568.3875 91.352875 568.9969 90.4935Q569.6219 89.634125 570.79376 89.634125Q571.8719 89.634125 572.575 90.415375Q573.27814 91.181 573.27814 92.665375Q573.27814 94.1185 572.5594 94.915375Q571.85626 95.696625 570.8094 95.696625Q569.7625 95.696625 569.075 94.931Q568.3875 94.14975 568.3875 92.58725ZM570.825 90.602875Q570.3094 90.602875 569.95 91.056Q569.60626 91.509125 569.60626 92.727875Q569.60626 93.821625 569.95 94.27475Q570.3094 94.727875 570.825 94.727875Q571.35626 94.727875 571.7 94.27475Q572.0594 93.821625 572.0594 92.6185Q572.0594 91.509125 571.7 91.056Q571.35626 90.602875 570.825 90.602875ZM570.84064 101.71225L577.10626 89.634125L578.2469 89.634125L571.9969 101.71225L570.84064 101.71225ZM575.79376 98.602875Q575.79376 97.3685 576.40314 96.509125Q577.02814 95.64975 578.2 95.64975Q579.27814 95.64975 579.98126 96.431Q580.7 97.196625 580.7 98.681Q580.7 100.134125 579.98126 100.931Q579.2625 101.71225 578.21564 101.71225Q577.16876 101.71225 576.48126 100.931Q575.79376 100.14975 575.79376 98.602875ZM578.2469 96.6185Q577.71564 96.6185 577.35626 97.071625Q577.0125 97.52475 577.0125 98.7435Q577.0125 99.83725 577.35626 100.290375Q577.71564 100.7435 578.23126 100.7435Q578.77814 100.7435 579.1219 100.290375Q579.46564 99.83725 579.46564 98.634125Q579.46564 97.52475 579.10626 97.071625Q578.7625 96.6185 578.2469 96.6185Z" fill-rule="nonzero"/><path stroke="#757575" stroke-width="1.0" stroke-linecap="butt" d="M581.45 84.790375L454.76666 84.790375L376.40787 84.790375" fill-rule="nonzero"/><path fill="#9e9e9e" d="M378.40787 84.790375C378.40787 83.68581 377.51242 82.790375 376.40787 82.790375C375.30328 82.790375 374.40787 83.68581 374.40787 84.790375C374.40787 85.89494 375.30328 86.790375 376.40787 86.790375C377.51242 86.790375 378.40787 85.89494 378.40787 84.790375" fill-rule="nonzero"/><path fill="#efefef" d="M498.6844 218.29645L498.6844 206.84332L503.0125 206.84332Q504.15314 206.84332 504.7469 206.9527Q505.59064 207.09332 506.15314 207.48395Q506.73126 207.87457 507.075 208.59332Q507.4344 209.29645 507.4344 210.15582Q507.4344 211.60895 506.4969 212.62457Q505.575 213.6402 503.1375 213.6402L500.2 213.6402L500.2 218.29645L498.6844 218.29645ZM500.2 212.28082L503.16876 212.28082Q504.6375 212.28082 505.2469 211.73395Q505.8719 211.18707 505.8719 210.2027Q505.8719 209.48395 505.4969 208.96832Q505.1375 208.4527 504.54376 208.29645Q504.16876 208.18707 503.1375 208.18707L500.2 208.18707L500.2 212.28082ZM515.1844 215.62457L516.6375 215.79645Q516.29376 217.0777 515.35626 217.78082Q514.4344 218.48395 512.9969 218.48395Q511.16876 218.48395 510.10626 217.35895Q509.04376 216.23395 509.04376 214.21832Q509.04376 212.12457 510.1219 210.96832Q511.2 209.81207 512.91876 209.81207Q514.575 209.81207 515.6219 210.9527Q516.6844 212.0777 516.6844 214.12457Q516.6844 214.24957 516.6844 214.49957L510.4969 214.49957Q510.575 215.87457 511.2625 216.60895Q511.96564 217.3277 512.9969 217.3277Q513.77814 217.3277 514.325 216.92145Q514.8719 216.5152 515.1844 215.62457ZM510.575 213.34332L515.2 213.34332Q515.10626 212.29645 514.66876 211.78082Q513.9969 210.96832 512.9344 210.96832Q511.96564 210.96832 511.29376 211.62457Q510.6375 212.2652 510.575 213.34332ZM518.4969 218.29645L518.4969 209.99957L519.7625 209.99957L519.7625 211.24957Q520.2469 210.37457 520.65314 210.09332Q521.0594 209.81207 521.5594 209.81207Q522.2625 209.81207 522.9969 210.2652L522.5125 211.56207Q521.9969 211.2652 521.48126 211.2652Q521.02814 211.2652 520.65314 211.54645Q520.29376 211.81207 520.1375 212.31207Q519.90314 213.06207 519.90314 213.9527L519.90314 218.29645L518.4969 218.29645ZM522.95 215.81207L524.34064 215.59332Q524.45 216.43707 524.98126 216.8902Q525.52814 217.3277 526.48126 217.3277Q527.45 217.3277 527.91876 216.93707Q528.3875 216.53082 528.3875 215.99957Q528.3875 215.53082 527.98126 215.24957Q527.6844 215.06207 526.54376 214.78082Q524.9969 214.3902 524.3875 214.10895Q523.79376 213.81207 523.48126 213.31207Q523.1844 212.81207 523.1844 212.2027Q523.1844 211.6402 523.4344 211.17145Q523.6844 210.7027 524.1219 210.3902Q524.45 210.1402 525.0125 209.98395Q525.59064 209.81207 526.23126 209.81207Q527.21564 209.81207 527.95 210.09332Q528.6844 210.37457 529.02814 210.85895Q529.3875 211.3277 529.52814 212.1402L528.15314 212.3277Q528.0594 211.68707 527.60626 211.3277Q527.15314 210.96832 526.34064 210.96832Q525.3719 210.96832 524.95 211.29645Q524.54376 211.60895 524.54376 212.03082Q524.54376 212.31207 524.71564 212.53082Q524.8875 212.74957 525.2469 212.90582Q525.46564 212.98395 526.4969 213.2652Q527.98126 213.65582 528.575 213.92145Q529.16876 214.17145 529.4969 214.65582Q529.84064 215.1402 529.84064 215.85895Q529.84064 216.56207 529.41876 217.18707Q529.0125 217.79645 528.23126 218.1402Q527.46564 218.48395 526.4969 218.48395Q524.8719 218.48395 524.02814 217.81207Q523.1844 217.1402 522.95 215.81207ZM531.5125 221.48395L531.5125 209.99957L532.79376 209.99957L532.79376 211.0777Q533.2469 210.43707 533.8094 210.12457Q534.3875 209.81207 535.2 209.81207Q536.2625 209.81207 537.075 210.35895Q537.8875 210.90582 538.29376 211.90582Q538.71564 212.8902 538.71564 214.0777Q538.71564 215.35895 538.2469 216.37457Q537.79376 217.3902 536.91876 217.93707Q536.0594 218.48395 535.09064 218.48395Q534.3875 218.48395 533.825 218.18707Q533.27814 217.8902 532.91876 217.43707L532.91876 221.48395L531.5125 221.48395ZM532.77814 214.18707Q532.77814 215.79645 533.41876 216.56207Q534.075 217.3277 534.9969 217.3277Q535.9344 217.3277 536.60626 216.53082Q537.27814 215.73395 537.27814 214.0777Q537.27814 212.48395 536.6219 211.7027Q535.96564 210.90582 535.0594 210.90582Q534.16876 210.90582 533.46564 211.74957Q532.77814 212.59332 532.77814 214.18707ZM546.1844 215.62457L547.6375 215.79645Q547.29376 217.0777 546.35626 217.78082Q545.4344 218.48395 543.9969 218.48395Q542.16876 218.48395 541.10626 217.35895Q540.04376 216.23395 540.04376 214.21832Q540.04376 212.12457 541.1219 210.96832Q542.2 209.81207 543.91876 209.81207Q545.575 209.81207 546.6219 210.9527Q547.6844 212.0777 547.6844 214.12457Q547.6844 214.24957 547.6844 214.49957L541.4969 214.49957Q541.575 215.87457 542.2625 216.60895Q542.96564 217.3277 543.9969 217.3277Q544.77814 217.3277 545.325 216.92145Q545.8719 216.5152 546.1844 215.62457ZM541.575 213.34332L546.2 213.34332Q546.10626 212.29645 545.66876 211.78082Q544.9969 210.96832 543.9344 210.96832Q542.96564 210.96832 542.29376 211.62457Q541.6375 212.2652 541.575 213.34332ZM554.91876 215.24957L556.3094 215.43707Q556.075 216.85895 555.1375 217.67145Q554.21564 218.48395 552.85626 218.48395Q551.15314 218.48395 550.10626 217.37457Q549.075 216.24957 549.075 214.17145Q549.075 212.8277 549.5125 211.8277Q549.96564 210.81207 550.8719 210.31207Q551.79376 209.81207 552.85626 209.81207Q554.21564 209.81207 555.075 210.49957Q555.9344 211.17145 556.16876 212.43707L554.8094 212.6402Q554.60626 211.81207 554.10626 211.3902Q553.6219 210.96832 552.91876 210.96832Q551.85626 210.96832 551.1844 211.73395Q550.52814 212.48395 550.52814 214.1402Q550.52814 215.81207 551.16876 216.5777Q551.8094 217.3277 552.84064 217.3277Q553.66876 217.3277 554.21564 216.8277Q554.77814 216.31207 554.91876 215.24957ZM560.575 217.03082L560.77814 218.28082Q560.1844 218.40582 559.71564 218.40582Q558.95 218.40582 558.52814 218.17145Q558.10626 217.92145 557.9344 217.53082Q557.7625 217.12457 557.7625 215.85895L557.7625 211.09332L556.73126 211.09332L556.73126 209.99957L557.7625 209.99957L557.7625 207.93707L559.16876 207.09332L559.16876 209.99957L560.575 209.99957L560.575 211.09332L559.16876 211.09332L559.16876 215.93707Q559.16876 216.54645 559.23126 216.71832Q559.3094 216.8902 559.48126 216.99957Q559.65314 217.09332 559.96564 217.09332Q560.2 217.09332 560.575 217.03082ZM561.5125 208.4527L561.5125 206.84332L562.91876 206.84332L562.91876 208.4527L561.5125 208.4527ZM561.5125 218.29645L561.5125 209.99957L562.91876 209.99957L562.91876 218.29645L561.5125 218.29645ZM567.8094 218.29645L564.65314 209.99957L566.1375 209.99957L567.91876 214.96832Q568.21564 215.7652 568.45 216.6402Q568.6375 215.98395 568.98126 215.06207L570.825 209.99957L572.2625 209.99957L569.1219 218.29645L567.8094 218.29645ZM579.1844 215.62457L580.6375 215.79645Q580.29376 217.0777 579.35626 217.78082Q578.4344 218.48395 576.9969 218.48395Q575.16876 218.48395 574.10626 217.35895Q573.04376 216.23395 573.04376 214.21832Q573.04376 212.12457 574.1219 210.96832Q575.2 209.81207 576.91876 209.81207Q578.575 209.81207 579.6219 210.9527Q580.6844 212.0777 580.6844 214.12457Q580.6844 214.24957 580.6844 214.49957L574.4969 214.49957Q574.575 215.87457 575.2625 216.60895Q575.96564 217.3277 576.9969 217.3277Q577.77814 217.3277 578.325 216.92145Q578.8719 216.5152 579.1844 215.62457ZM574.575 213.34332L579.2 213.34332Q579.10626 212.29645 578.66876 211.78082Q577.9969 210.96832 576.9344 210.96832Q575.96564 210.96832 575.29376 211.62457Q574.6375 212.2652 574.575 213.34332Z" fill-rule="nonzero"/><path fill="#9e9e9e" d="M542.41876 240.29645L541.0125 240.29645L541.0125 231.3277Q540.4969 231.81207 539.66876 232.29645Q538.85626 232.78082 538.2 233.03082L538.2 231.67145Q539.3719 231.10895 540.2469 230.3277Q541.1375 229.53082 541.5125 228.79645L542.41876 228.79645L542.41876 240.29645ZM548.27814 234.0777Q547.40314 233.7652 546.98126 233.17145Q546.5594 232.5777 546.5594 231.74957Q546.5594 230.49957 547.45 229.65582Q548.35626 228.79645 549.85626 228.79645Q551.35626 228.79645 552.2625 229.67145Q553.1844 230.53082 553.1844 231.78082Q553.1844 232.5777 552.7625 233.17145Q552.34064 233.7652 551.4969 234.0777Q552.54376 234.42145 553.09064 235.18707Q553.65314 235.9527 553.65314 237.0152Q553.65314 238.48395 552.60626 239.49957Q551.575 240.49957 549.8719 240.49957Q548.1844 240.49957 547.1375 239.49957Q546.10626 238.48395 546.10626 236.98395Q546.10626 235.85895 546.66876 235.10895Q547.23126 234.35895 548.27814 234.0777ZM547.9969 231.7027Q547.9969 232.5152 548.5125 233.03082Q549.04376 233.54645 549.8875 233.54645Q550.7 233.54645 551.21564 233.03082Q551.73126 232.5152 551.73126 231.78082Q551.73126 230.99957 551.2 230.48395Q550.66876 229.9527 549.8719 229.9527Q549.0594 229.9527 548.52814 230.46832Q547.9969 230.98395 547.9969 231.7027ZM547.54376 236.98395Q547.54376 237.59332 547.825 238.15582Q548.1219 238.71832 548.6844 239.03082Q549.2469 239.3277 549.8875 239.3277Q550.90314 239.3277 551.5594 238.68707Q552.21564 238.03082 552.21564 237.03082Q552.21564 236.0152 551.52814 235.35895Q550.85626 234.68707 549.84064 234.68707Q548.85626 234.68707 548.2 235.34332Q547.54376 235.99957 547.54376 236.98395ZM555.90314 240.29645L555.90314 238.68707L557.5125 238.68707L557.5125 240.29645L555.90314 240.29645ZM566.5125 238.93707L566.5125 240.29645L558.9344 240.29645Q558.91876 239.78082 559.10626 239.31207Q559.3875 238.54645 560.02814 237.79645Q560.66876 237.04645 561.8719 236.06207Q563.73126 234.53082 564.3875 233.6402Q565.04376 232.73395 565.04376 231.93707Q565.04376 231.10895 564.45 230.53082Q563.85626 229.9527 562.8875 229.9527Q561.8719 229.9527 561.2625 230.56207Q560.65314 231.17145 560.65314 232.24957L559.2 232.10895Q559.35626 230.48395 560.325 229.6402Q561.29376 228.79645 562.91876 228.79645Q564.575 228.79645 565.52814 229.71832Q566.4969 230.62457 566.4969 231.96832Q566.4969 232.65582 566.21564 233.3277Q565.9344 233.98395 565.27814 234.71832Q564.6219 235.4527 563.10626 236.73395Q561.84064 237.79645 561.48126 238.18707Q561.1219 238.56207 560.8875 238.93707L566.5125 238.93707ZM568.3875 231.59332Q568.3875 230.35895 568.9969 229.49957Q569.6219 228.6402 570.79376 228.6402Q571.8719 228.6402 572.575 229.42145Q573.27814 230.18707 573.27814 231.67145Q573.27814 233.12457 572.5594 233.92145Q571.85626 234.7027 570.8094 234.7027Q569.7625 234.7027 569.075 233.93707Q568.3875 233.15582 568.3875 231.59332ZM570.825 229.60895Q570.3094 229.60895 569.95 230.06207Q569.60626 230.5152 569.60626 231.73395Q569.60626 232.8277 569.95 233.28082Q570.3094 233.73395 570.825 233.73395Q571.35626 233.73395 571.7 233.28082Q572.0594 232.8277 572.0594 231.62457Q572.0594 230.5152 571.7 230.06207Q571.35626 229.60895 570.825 229.60895ZM570.84064 240.71832L577.10626 228.6402L578.2469 228.6402L571.9969 240.71832L570.84064 240.71832ZM575.79376 237.60895Q575.79376 236.37457 576.40314 235.5152Q577.02814 234.65582 578.2 234.65582Q579.27814 234.65582 579.98126 235.43707Q580.7 236.2027 580.7 237.68707Q580.7 239.1402 579.98126 239.93707Q579.2625 240.71832 578.21564 240.71832Q577.16876 240.71832 576.48126 239.93707Q575.79376 239.15582 575.79376 237.60895ZM578.2469 235.62457Q577.71564 235.62457 577.35626 236.0777Q577.0125 236.53082 577.0125 237.74957Q577.0125 238.84332 577.35626 239.29645Q577.71564 239.74957 578.23126 239.74957Q578.77814 239.74957 579.1219 239.29645Q579.46564 238.84332 579.46564 237.6402Q579.46564 236.53082 579.10626 236.0777Q578.7625 235.62457 578.2469 235.62457Z" fill-rule="nonzero"/><path stroke="#757575" stroke-width="1.0" stroke-linecap="butt" d="M581.45 223.79645L454.76666 223.79645L439.8898 223.79645" fill-rule="nonzero"/><path fill="#9e9e9e" d="M441.8898 223.79645C441.8898 222.69188 440.9944 221.79645 439.8898 221.79645C438.78525 221.79645 437.8898 222.69188 437.8898 223.79645C437.8898 224.90102 438.78525 225.79645 439.8898 225.79645C440.9944 225.79645 441.8898 224.90102 441.8898 223.79645" fill-rule="nonzero"/><path fill="#efefef" d="M531.6844 326.45L531.6844 314.9969L536.0125 314.9969Q537.15314 314.9969 537.7469 315.10626Q538.59064 315.2469 539.15314 315.6375Q539.73126 316.02814 540.075 316.7469Q540.4344 317.45 540.4344 318.3094Q540.4344 319.7625 539.4969 320.77814Q538.575 321.79376 536.1375 321.79376L533.2 321.79376L533.2 326.45L531.6844 326.45ZM533.2 320.4344L536.16876 320.4344Q537.6375 320.4344 538.2469 319.8875Q538.8719 319.34064 538.8719 318.35626Q538.8719 317.6375 538.4969 317.1219Q538.1375 316.60626 537.54376 316.45Q537.16876 316.34064 536.1375 316.34064L533.2 316.34064L533.2 320.4344ZM548.1844 323.77814L549.6375 323.95Q549.29376 325.23126 548.35626 325.9344Q547.4344 326.6375 545.9969 326.6375Q544.16876 326.6375 543.10626 325.5125Q542.04376 324.3875 542.04376 322.3719Q542.04376 320.27814 543.1219 319.1219Q544.2 317.96564 545.91876 317.96564Q547.575 317.96564 548.6219 319.10626Q549.6844 320.23126 549.6844 322.27814Q549.6844 322.40314 549.6844 322.65314L543.4969 322.65314Q543.575 324.02814 544.2625 324.7625Q544.96564 325.48126 545.9969 325.48126Q546.77814 325.48126 547.325 325.075Q547.8719 324.66876 548.1844 323.77814ZM543.575 321.4969L548.2 321.4969Q548.10626 320.45 547.66876 319.9344Q546.9969 319.1219 545.9344 319.1219Q544.96564 319.1219 544.29376 319.77814Q543.6375 320.41876 543.575 321.4969ZM550.98126 322.29376Q550.98126 319.9969 552.2625 318.8875Q553.34064 317.96564 554.8719 317.96564Q556.59064 317.96564 557.66876 319.09064Q558.7625 320.2 558.7625 322.1844Q558.7625 323.77814 558.27814 324.7Q557.79376 325.6219 556.8719 326.1375Q555.96564 326.6375 554.8719 326.6375Q553.1375 326.6375 552.0594 325.52814Q550.98126 324.40314 550.98126 322.29376ZM552.4344 322.29376Q552.4344 323.8875 553.1219 324.6844Q553.825 325.48126 554.8719 325.48126Q555.91876 325.48126 556.60626 324.6844Q557.3094 323.8875 557.3094 322.2469Q557.3094 320.71564 556.60626 319.91876Q555.91876 319.1219 554.8719 319.1219Q553.825 319.1219 553.1219 319.91876Q552.4344 320.7 552.4344 322.29376ZM560.5125 329.6375L560.5125 318.15314L561.79376 318.15314L561.79376 319.23126Q562.2469 318.59064 562.8094 318.27814Q563.3875 317.96564 564.2 317.96564Q565.2625 317.96564 566.075 318.5125Q566.8875 319.0594 567.29376 320.0594Q567.71564 321.04376 567.71564 322.23126Q567.71564 323.5125 567.2469 324.52814Q566.79376 325.54376 565.91876 326.09064Q565.0594 326.6375 564.09064 326.6375Q563.3875 326.6375 562.825 326.34064Q562.27814 326.04376 561.91876 325.59064L561.91876 329.6375L560.5125 329.6375ZM561.77814 322.34064Q561.77814 323.95 562.41876 324.71564Q563.075 325.48126 563.9969 325.48126Q564.9344 325.48126 565.60626 324.6844Q566.27814 323.8875 566.27814 322.23126Q566.27814 320.6375 565.6219 319.85626Q564.96564 319.0594 564.0594 319.0594Q563.16876 319.0594 562.46564 319.90314Q561.77814 320.7469 561.77814 322.34064ZM569.48126 326.45L569.48126 314.9969L570.8875 314.9969L570.8875 326.45L569.48126 326.45ZM579.1844 323.77814L580.6375 323.95Q580.29376 325.23126 579.35626 325.9344Q578.4344 326.6375 576.9969 326.6375Q575.16876 326.6375 574.10626 325.5125Q573.04376 324.3875 573.04376 322.3719Q573.04376 320.27814 574.1219 319.1219Q575.2 317.96564 576.91876 317.96564Q578.575 317.96564 579.6219 319.10626Q580.6844 320.23126 580.6844 322.27814Q580.6844 322.40314 580.6844 322.65314L574.4969 322.65314Q574.575 324.02814 575.2625 324.7625Q575.96564 325.48126 576.9969 325.48126Q577.77814 325.48126 578.325 325.075Q578.8719 324.66876 579.1844 323.77814ZM574.575 321.4969L579.2 321.4969Q579.10626 320.45 578.66876 319.9344Q577.9969 319.1219 576.9344 319.1219Q575.96564 319.1219 575.29376 319.77814Q574.6375 320.41876 574.575 321.4969Z" fill-rule="nonzero"/><path fill="#9e9e9e" d="M544.5125 347.09064L544.5125 348.45L536.9344 348.45Q536.91876 347.9344 537.10626 347.46564Q537.3875 346.7 538.02814 345.95Q538.66876 345.2 539.8719 344.21564Q541.73126 342.6844 542.3875 341.79376Q543.04376 340.8875 543.04376 340.09064Q543.04376 339.2625 542.45 338.6844Q541.85626 338.10626 540.8875 338.10626Q539.8719 338.10626 539.2625 338.71564Q538.65314 339.325 538.65314 340.40314L537.2 340.2625Q537.35626 338.6375 538.325 337.79376Q539.29376 336.95 540.91876 336.95Q542.575 336.95 543.52814 337.8719Q544.4969 338.77814 544.4969 340.1219Q544.4969 340.8094 544.21564 341.48126Q543.9344 342.1375 543.27814 342.8719Q542.6219 343.60626 541.10626 344.8875Q539.84064 345.95 539.48126 346.34064Q539.1219 346.71564 538.8875 347.09064L544.5125 347.09064ZM546.21564 338.4969L546.21564 337.1375L553.6219 337.1375L553.6219 338.23126Q552.52814 339.40314 551.45 341.34064Q550.3875 343.2625 549.79376 345.29376Q549.3719 346.73126 549.2625 348.45L547.8094 348.45Q547.84064 347.09064 548.34064 345.1844Q548.85626 343.2625 549.79376 341.4969Q550.7469 339.71564 551.825 338.4969L546.21564 338.4969ZM555.90314 348.45L555.90314 346.84064L557.5125 346.84064L557.5125 348.45L555.90314 348.45ZM559.1219 345.41876L560.52814 345.23126Q560.77814 346.4344 561.35626 346.96564Q561.9344 347.48126 562.77814 347.48126Q563.7625 347.48126 564.45 346.79376Q565.1375 346.10626 565.1375 345.09064Q565.1375 344.1219 564.4969 343.4969Q563.8719 342.8719 562.8875 342.8719Q562.4969 342.8719 561.90314 343.02814L562.0594 341.79376Q562.2 341.8094 562.27814 341.8094Q563.1844 341.8094 563.90314 341.34064Q564.6219 340.8719 564.6219 339.8875Q564.6219 339.1219 564.09064 338.6219Q563.575 338.10626 562.7469 338.10626Q561.91876 338.10626 561.3719 338.6219Q560.825 339.1375 560.66876 340.16876L559.2625 339.91876Q559.52814 338.4969 560.4344 337.73126Q561.35626 336.95 562.71564 336.95Q563.65314 336.95 564.4344 337.35626Q565.23126 337.7469 565.6375 338.45Q566.0594 339.1375 566.0594 339.91876Q566.0594 340.66876 565.65314 341.27814Q565.2625 341.8875 564.48126 342.2469Q565.4969 342.48126 566.0594 343.21564Q566.6219 343.95 566.6219 345.0594Q566.6219 346.5594 565.52814 347.60626Q564.4344 348.65314 562.7625 348.65314Q561.2625 348.65314 560.2625 347.7625Q559.2625 346.85626 559.1219 345.41876ZM568.3875 339.7469Q568.3875 338.5125 568.9969 337.65314Q569.6219 336.79376 570.79376 336.79376Q571.8719 336.79376 572.575 337.575Q573.27814 338.34064 573.27814 339.825Q573.27814 341.27814 572.5594 342.075Q571.85626 342.85626 570.8094 342.85626Q569.7625 342.85626 569.075 342.09064Q568.3875 341.3094 568.3875 339.7469ZM570.825 337.7625Q570.3094 337.7625 569.95 338.21564Q569.60626 338.66876 569.60626 339.8875Q569.60626 340.98126 569.95 341.4344Q570.3094 341.8875 570.825 341.8875Q571.35626 341.8875 571.7 341.4344Q572.0594 340.98126 572.0594 339.77814Q572.0594 338.66876 571.7 338.21564Q571.35626 337.7625 570.825 337.7625ZM570.84064 348.8719L577.10626 336.79376L578.2469 336.79376L571.9969 348.8719L570.84064 348.8719ZM575.79376 345.7625Q575.79376 344.52814 576.40314 343.66876Q577.02814 342.8094 578.2 342.8094Q579.27814 342.8094 579.98126 343.59064Q580.7 344.35626 580.7 345.84064Q580.7 347.29376 579.98126 348.09064Q579.2625 348.8719 578.21564 348.8719Q577.16876 348.8719 576.48126 348.09064Q575.79376 347.3094 575.79376 345.7625ZM578.2469 343.77814Q577.71564 343.77814 577.35626 344.23126Q577.0125 344.6844 577.0125 345.90314Q577.0125 346.9969 577.35626 347.45Q577.71564 347.90314 578.23126 347.90314Q578.77814 347.90314 579.1219 347.45Q579.46564 346.9969 579.46564 345.79376Q579.46564 344.6844 579.10626 344.23126Q578.7625 343.77814 578.2469 343.77814Z" fill-rule="nonzero"/><path stroke="#757575" stroke-width="1.0" stroke-linecap="butt" d="M581.45 331.95L454.76666 331.95L300.0 345.01166" fill-rule="nonzero"/><path fill="#9e9e9e" d="M302.0 345.01166C302.0 343.9071 301.10458 343.01166 300.0 343.01166C298.89542 343.01166 298.0 343.9071 298.0 345.01166C298.0 346.11624 298.89542 347.01166 300.0 347.01166C301.10458 347.01166 302.0 346.11624 302.0 345.01166" fill-rule="nonzero"/><path fill="#f3f3f3" d="M265.98438 37.55L265.98438 23.2375L268.84375 23.2375L272.21875 33.3625Q272.6875 34.784374 272.90625 35.4875Q273.15625 34.70625 273.67188 33.190624L277.09375 23.2375L279.64062 23.2375L279.64062 37.55L277.82812 37.55L277.82812 25.565624L273.65625 37.55L271.95312 37.55L267.8125 25.3625L267.8125 37.55L265.98438 37.55ZM289.92188 34.20625L291.73438 34.440624Q291.3125 36.01875 290.14062 36.909374Q288.98438 37.784374 287.17188 37.784374Q284.90625 37.784374 283.5625 36.39375Q282.23438 34.9875 282.23438 32.45625Q282.23438 29.83125 283.57812 28.39375Q284.92188 26.940624 287.07812 26.940624Q289.15625 26.940624 290.46875 28.3625Q291.79688 29.76875 291.79688 32.346874Q291.79688 32.503124 291.78125 32.815624L284.04688 32.815624Q284.14062 34.51875 285.01562 35.425Q285.89062 36.33125 287.1875 36.33125Q288.15625 36.33125 288.82812 35.83125Q289.51562 35.315624 289.92188 34.20625ZM284.14062 31.3625L289.9375 31.3625Q289.82812 30.065624 289.28125 29.409374Q288.4375 28.39375 287.09375 28.39375Q285.89062 28.39375 285.0625 29.20625Q284.23438 30.003124 284.14062 31.3625ZM300.54688 37.55L300.54688 36.2375Q299.5625 37.784374 297.64062 37.784374Q296.40625 37.784374 295.35938 37.096874Q294.32812 36.409374 293.75 35.190624Q293.1875 33.971874 293.1875 32.378124Q293.1875 30.815624 293.70312 29.55Q294.21875 28.284374 295.25 27.6125Q296.29688 26.940624 297.5625 26.940624Q298.5 26.940624 299.23438 27.346874Q299.96875 27.7375 300.4375 28.3625L300.4375 23.2375L302.17188 23.2375L302.17188 37.55L300.54688 37.55ZM294.98438 32.378124Q294.98438 34.3625 295.82812 35.346874Q296.67188 36.33125 297.8125 36.33125Q298.96875 36.33125 299.76562 35.39375Q300.57812 34.45625 300.57812 32.51875Q300.57812 30.39375 299.75 29.39375Q298.9375 28.39375 297.73438 28.39375Q296.5625 28.39375 295.76562 29.3625Q294.98438 30.315624 294.98438 32.378124ZM304.82812 25.253124L304.82812 23.2375L306.59375 23.2375L306.59375 25.253124L304.82812 25.253124ZM304.82812 37.55L304.82812 27.175L306.59375 27.175L306.59375 37.55L304.82812 37.55ZM315.60938 37.55L315.60938 36.01875Q314.40625 37.784374 312.32812 37.784374Q311.40625 37.784374 310.60938 37.440624Q309.8125 37.08125 309.42188 36.55Q309.04688 36.01875 308.89062 35.2375Q308.78125 34.721874 308.78125 33.596874L308.78125 27.175L310.53125 27.175L310.53125 32.925Q310.53125 34.3 310.64062 34.784374Q310.8125 35.471874 311.34375 35.878124Q311.89062 36.26875 312.67188 36.26875Q313.46875 36.26875 314.15625 35.8625Q314.85938 35.45625 315.14062 34.76875Q315.4375 34.065624 315.4375 32.7375L315.4375 27.175L317.1875 27.175L317.1875 37.55L315.60938 37.55ZM319.8125 37.55L319.8125 27.175L321.39062 27.175L321.39062 28.628124Q321.875 27.878124 322.6875 27.409374Q323.5 26.940624 324.53125 26.940624Q325.6875 26.940624 326.42188 27.425Q327.15625 27.89375 327.46875 28.753124Q328.70312 26.940624 330.67188 26.940624Q332.21875 26.940624 333.04688 27.8Q333.875 28.659374 333.875 30.425L333.875 37.55L332.125 37.55L332.125 31.01875Q332.125 29.95625 331.95312 29.503124Q331.78125 29.034374 331.32812 28.753124Q330.89062 28.471874 330.28125 28.471874Q329.1875 28.471874 328.45312 29.20625Q327.73438 29.925 327.73438 31.51875L327.73438 37.55L325.98438 37.55L325.98438 30.815624Q325.98438 29.64375 325.54688 29.065624Q325.125 28.471874 324.14062 28.471874Q323.40625 28.471874 322.76562 28.8625Q322.14062 29.253124 321.85938 30.003124Q321.57812 30.753124 321.57812 32.175L321.57812 37.55L319.8125 37.55Z" fill-rule="nonzero"/></svg>