<svg version="1.1" viewBox="0.0 0.0 600.0 371.0" fill="none" stroke="none" stroke-linecap="square" stroke-miterlimit="10" width="600" height="371" xmlns:xlink="http://www.w3.org/1999/xlink" xmlns="http://www.w3.org/2000/svg"><path fill="#ffffff" fill-opacity="0.0" d="M0 0L600.0 0L600.0 371.0L0 371.0L0 0Z" fill-rule="nonzero"/><path fill="#533990" d="M300.0 54.916668C339.45538 54.916668 377.29477 70.590256 405.1939 98.48942L326.2985 177.38486C319.3237 170.41006 309.86383 166.49167 300.0 166.49167Z" fill-rule="nonzero"/><path fill="#b5428d" d="M405.1939 98.48942C447.74088 141.03638 460.46872 205.02357 437.44247 260.61386C414.41623 316.20416 360.1705 352.45 300.0 352.45L300.0 240.875C315.04263 240.875 328.60406 231.81354 334.36063 217.91597C340.1172 204.0184 336.9352 188.02159 326.2985 177.38486Z" fill-rule="nonzero"/><path fill="#f7d750" d="M194.80608 98.48942C222.70525 70.590256 260.54462 54.916668 300.0 54.916668L300.0 166.49167C290.13617 166.49167 280.6763 170.41006 273.7015 177.38486Z" fill-rule="nonzero"/><path fill="#e5a345" d="M151.23334 203.68333C151.23334 164.22797 166.90692 126.38857 194.80608 98.48942L273.7015 177.38486C266.7267 184.35965 262.80832 193.81949 262.80832 203.68333Z" fill-rule="nonzero"/><path fill="#df8d43" d="M194.80608 308.87726C166.90692 280.9781 151.23334 243.1387 151.23334 203.68333L262.80832 203.68333C262.80832 213.54718 266.7267 223.00702 273.7015 229.98181Z" fill-rule="nonzero"/><path fill="#cf4366" d="M300.0 352.45C260.54462 352.45 222.70525 336.77643 194.80608 308.87726L273.7015 229.98181C280.6763 236.9566 290.13617 240.875 300.0 240.875Z" fill-rule="nonzero"/><path fill="#ffffff" d="M322.26086 111.06117L320.68274 111.06117L320.68274 100.98305Q320.1046 101.52992 319.18274 102.0768Q318.26086 102.60805 317.51086 102.8893L317.51086 101.35805Q318.839 100.73305 319.839 99.84242Q320.839 98.9518 321.24524 98.12367L322.26086 98.12367L322.26086 111.06117ZM334.62024 109.54555L334.62024 111.06117L326.1046 111.06117Q326.089 110.48305 326.2921 109.96742Q326.62024 109.09242 327.32336 108.24867Q328.0421 107.40492 329.4015 106.29555Q331.49524 104.5768 332.2296 103.5768Q332.9796 102.56117 332.9796 101.67055Q332.9796 100.71742 332.30774 100.0768Q331.63586 99.43617 330.55774 99.43617Q329.4015 99.43617 328.714 100.12367Q328.0421 100.81117 328.0265 102.0143L326.4015 101.84242Q326.57336 100.02992 327.6515 99.0768Q328.74524 98.12367 330.589 98.12367Q332.43274 98.12367 333.51086 99.15492Q334.6046 100.18617 334.6046 101.7018Q334.6046 102.46742 334.2765 103.21742Q333.964 103.96742 333.2296 104.79555Q332.49524 105.62367 330.7921 107.06117Q329.37024 108.2643 328.964 108.68617Q328.55774 109.10805 328.30774 109.54555L334.62024 109.54555ZM337.19836 111.06117L337.19836 109.2643L338.99524 109.2643L338.99524 111.06117L337.19836 111.06117ZM341.30774 107.68617L342.964 107.54555Q343.1515 108.7643 343.82336 109.37367Q344.49524 109.98305 345.44836 109.98305Q346.589 109.98305 347.37024 109.12367Q348.1671 108.2643 348.1671 106.8268Q348.1671 105.48305 347.4015 104.7018Q346.6515 103.92055 345.4171 103.92055Q344.6515 103.92055 344.0265 104.2643Q343.4171 104.60805 343.07336 105.17055L341.589 104.96742L342.839 98.35805L349.24524 98.35805L349.24524 99.85805L344.1046 99.85805L343.4015 103.3268Q344.57336 102.5143 345.839 102.5143Q347.5265 102.5143 348.68274 103.68617Q349.8546 104.85805 349.8546 106.68617Q349.8546 108.43617 348.82336 109.71742Q347.589 111.27992 345.44836 111.27992Q343.68274 111.27992 342.57336 110.29555Q341.464 109.31117 341.30774 107.68617ZM351.6046 101.2643Q351.6046 99.8893 352.2921 98.92055Q352.99524 97.9518 354.30774 97.9518Q355.5265 97.9518 356.32336 98.8268Q357.12024 99.68617 357.12024 101.37367Q357.12024 102.99867 356.30774 103.8893Q355.51086 104.7643 354.32336 104.7643Q353.1671 104.7643 352.38586 103.90492Q351.6046 103.02992 351.6046 101.2643ZM354.3546 99.04555Q353.76086 99.04555 353.37024 99.56117Q352.9796 100.06117 352.9796 101.42055Q352.9796 102.67055 353.37024 103.17055Q353.7765 103.67055 354.3546 103.67055Q354.94836 103.67055 355.339 103.17055Q355.7296 102.65492 355.7296 101.31117Q355.7296 100.06117 355.339 99.56117Q354.94836 99.04555 354.3546 99.04555ZM354.37024 111.52992L361.4171 97.9518L362.69836 97.9518L355.6671 111.52992L354.37024 111.52992ZM359.93274 108.02992Q359.93274 106.65492 360.62024 105.68617Q361.32336 104.71742 362.6515 104.71742Q363.87024 104.71742 364.6515 105.59242Q365.44836 106.4518 365.44836 108.1393Q365.44836 109.7643 364.6515 110.65492Q363.8546 111.52992 362.6671 111.52992Q361.49524 111.52992 360.714 110.65492Q359.93274 109.77992 359.93274 108.02992ZM362.69836 105.81117Q362.1046 105.81117 361.714 106.3268Q361.32336 106.8268 361.32336 108.2018Q361.32336 109.42055 361.714 109.93617Q362.1046 110.4518 362.68274 110.4518Q363.2921 110.4518 363.68274 109.93617Q364.07336 109.42055 364.07336 108.0768Q364.07336 106.8268 363.68274 106.3268Q363.2921 105.81117 362.69836 105.81117Z" fill-rule="nonzero"/><path fill="#ffffff" d="M369.0583 245.63374L370.65204 245.43062Q370.91766 246.77437 371.5739 247.36812Q372.23016 247.96187 373.16766 247.96187Q374.29266 247.96187 375.0583 247.19624Q375.8239 246.415 375.8239 245.27437Q375.8239 244.18062 375.10516 243.4775Q374.40204 242.75874 373.3083 242.75874Q372.85516 242.75874 372.1833 242.94624L372.35516 241.55562Q372.5114 241.57124 372.6208 241.57124Q373.6208 241.57124 374.4333 241.04Q375.2458 240.50874 375.2458 239.415Q375.2458 238.54 374.65204 237.9775Q374.0583 237.39937 373.1364 237.39937Q372.21454 237.39937 371.58954 237.9775Q370.98016 238.55562 370.8083 239.7275L369.23016 239.44624Q369.5114 237.8525 370.54266 236.9775Q371.5739 236.1025 373.10516 236.1025Q374.15204 236.1025 375.04266 236.55562Q375.9333 237.00874 376.40204 237.79Q376.8708 238.57124 376.8708 239.44624Q376.8708 240.29 376.41766 240.9775Q375.98016 241.64937 375.08954 242.05562Q376.23016 242.32124 376.85516 243.165Q377.4958 243.99312 377.4958 245.2275Q377.4958 246.915 376.2614 248.1025Q375.04266 249.27437 373.16766 249.27437Q371.46454 249.27437 370.33954 248.25874Q369.23016 247.24312 369.0583 245.63374ZM379.16766 237.83687L379.16766 236.32124L387.4958 236.32124L387.4958 237.55562Q386.27704 238.86812 385.0583 241.04Q383.85516 243.19624 383.1989 245.49312Q382.71454 247.11812 382.58954 249.04L380.96454 249.04Q380.9958 247.52437 381.5583 245.36812Q382.1364 243.21187 383.1989 241.21187Q384.2614 239.21187 385.46454 237.83687L379.16766 237.83687ZM389.9489 249.04L389.9489 247.24312L391.7458 247.24312L391.7458 249.04L389.9489 249.04ZM394.0583 245.665L395.71454 245.52437Q395.90204 246.74312 396.5739 247.3525Q397.2458 247.96187 398.1989 247.96187Q399.33954 247.96187 400.1208 247.1025Q400.91766 246.24312 400.91766 244.80562Q400.91766 243.46187 400.15204 242.68062Q399.40204 241.89937 398.16766 241.89937Q397.40204 241.89937 396.77704 242.24312Q396.16766 242.58687 395.8239 243.14937L394.33954 242.94624L395.58954 236.33687L401.9958 236.33687L401.9958 237.83687L396.85516 237.83687L396.15204 241.30562Q397.3239 240.49312 398.58954 240.49312Q400.27704 240.49312 401.4333 241.665Q402.60516 242.83687 402.60516 244.665Q402.60516 246.415 401.5739 247.69624Q400.33954 249.25874 398.1989 249.25874Q396.4333 249.25874 395.3239 248.27437Q394.21454 247.29 394.0583 245.665ZM404.35516 239.24312Q404.35516 237.86812 405.04266 236.89937Q405.7458 235.93062 407.0583 235.93062Q408.27704 235.93062 409.0739 236.80562Q409.8708 237.665 409.8708 239.3525Q409.8708 240.9775 409.0583 241.86812Q408.2614 242.74312 407.0739 242.74312Q405.91766 242.74312 405.1364 241.88374Q404.35516 241.00874 404.35516 239.24312ZM407.10516 237.02437Q406.5114 237.02437 406.1208 237.54Q405.73016 238.04 405.73016 239.39937Q405.73016 240.64937 406.1208 241.14937Q406.52704 241.64937 407.10516 241.64937Q407.6989 241.64937 408.08954 241.14937Q408.48016 240.63374 408.48016 239.29Q408.48016 238.04 408.08954 237.54Q407.6989 237.02437 407.10516 237.02437ZM407.1208 249.50874L414.16766 235.93062L415.4489 235.93062L408.41766 249.50874L407.1208 249.50874ZM412.6833 246.00874Q412.6833 244.63374 413.3708 243.665Q414.0739 242.69624 415.40204 242.69624Q416.6208 242.69624 417.40204 243.57124Q418.1989 244.43062 418.1989 246.11812Q418.1989 247.74312 417.40204 248.63374Q416.60516 249.50874 415.41766 249.50874Q414.2458 249.50874 413.46454 248.63374Q412.6833 247.75874 412.6833 246.00874ZM415.4489 243.79Q414.85516 243.79 414.46454 244.30562Q414.0739 244.80562 414.0739 246.18062Q414.0739 247.39937 414.46454 247.915Q414.85516 248.43062 415.4333 248.43062Q416.04266 248.43062 416.4333 247.915Q416.8239 247.39937 416.8239 246.05562Q416.8239 244.80562 416.4333 244.30562Q416.04266 243.79 415.4489 243.79Z" fill-rule="nonzero"/><path fill="#ffffff" d="M240.14539 309.30548L238.56726 309.30548L238.56726 299.22736Q237.98914 299.77423 237.06726 300.3211Q236.14539 300.85236 235.39539 301.1336L235.39539 299.60236Q236.72351 298.97736 237.72351 298.08673Q238.72351 297.1961 239.12976 296.36798L240.14539 296.36798L240.14539 309.30548ZM252.50476 307.78986L252.50476 309.30548L243.98914 309.30548Q243.97351 308.72736 244.17664 308.21173Q244.50476 307.33673 245.20789 306.49298Q245.92664 305.64923 247.28601 304.53986Q249.37976 302.8211 250.11414 301.8211Q250.86414 300.80548 250.86414 299.91486Q250.86414 298.96173 250.19226 298.3211Q249.52039 297.68048 248.44226 297.68048Q247.28601 297.68048 246.59851 298.36798Q245.92664 299.05548 245.91101 300.2586L244.28601 300.08673Q244.45789 298.27423 245.53601 297.3211Q246.62976 296.36798 248.47351 296.36798Q250.31726 296.36798 251.39539 297.39923Q252.48914 298.43048 252.48914 299.9461Q252.48914 300.71173 252.16101 301.46173Q251.84851 302.21173 251.11414 303.03986Q250.37976 303.86798 248.67664 305.30548Q247.25476 306.5086 246.84851 306.93048Q246.44226 307.35236 246.19226 307.78986L252.50476 307.78986ZM255.08289 309.30548L255.08289 307.5086L256.87976 307.5086L256.87976 309.30548L255.08289 309.30548ZM259.19226 305.93048L260.8485 305.78986Q261.036 307.0086 261.7079 307.61798Q262.37976 308.22736 263.3329 308.22736Q264.4735 308.22736 265.25476 307.36798Q266.05164 306.5086 266.05164 305.0711Q266.05164 303.72736 265.286 302.9461Q264.536 302.16486 263.30164 302.16486Q262.536 302.16486 261.911 302.5086Q261.30164 302.85236 260.9579 303.41486L259.4735 303.21173L260.7235 296.60236L267.12976 296.60236L267.12976 298.10236L261.98914 298.10236L261.286 301.5711Q262.4579 300.7586 263.7235 300.7586Q265.411 300.7586 266.56726 301.93048Q267.73914 303.10236 267.73914 304.93048Q267.73914 306.68048 266.7079 307.96173Q265.4735 309.52423 263.3329 309.52423Q261.56726 309.52423 260.4579 308.53986Q259.3485 307.55548 259.19226 305.93048ZM269.48914 299.5086Q269.48914 298.1336 270.17664 297.16486Q270.87976 296.1961 272.19226 296.1961Q273.411 296.1961 274.2079 297.0711Q275.00476 297.93048 275.00476 299.61798Q275.00476 301.24298 274.19226 302.1336Q273.3954 303.0086 272.2079 303.0086Q271.05164 303.0086 270.2704 302.14923Q269.48914 301.27423 269.48914 299.5086ZM272.23914 297.28986Q271.6454 297.28986 271.25476 297.80548Q270.86414 298.30548 270.86414 299.66486Q270.86414 300.91486 271.25476 301.41486Q271.661 301.91486 272.23914 301.91486Q272.8329 301.91486 273.2235 301.41486Q273.61414 300.89923 273.61414 299.55548Q273.61414 298.30548 273.2235 297.80548Q272.8329 297.28986 272.23914 297.28986ZM272.25476 309.77423L279.30164 296.1961L280.5829 296.1961L273.55164 309.77423L272.25476 309.77423ZM277.81726 306.27423Q277.81726 304.89923 278.50476 303.93048Q279.2079 302.96173 280.536 302.96173Q281.75476 302.96173 282.536 303.83673Q283.3329 304.6961 283.3329 306.3836Q283.3329 308.0086 282.536 308.89923Q281.73914 309.77423 280.55164 309.77423Q279.37976 309.77423 278.5985 308.89923Q277.81726 308.02423 277.81726 306.27423ZM280.5829 304.05548Q279.98914 304.05548 279.5985 304.5711Q279.2079 305.0711 279.2079 306.4461Q279.2079 307.66486 279.5985 308.18048Q279.98914 308.6961 280.56726 308.6961Q281.17664 308.6961 281.56726 308.18048Q281.9579 307.66486 281.9579 306.3211Q281.9579 305.0711 281.56726 304.5711Q281.17664 304.05548 280.5829 304.05548Z" fill-rule="nonzero"/><path fill="#ffffff" d="M187.39484 249.04L185.81671 249.04L185.81671 238.96187Q185.23859 239.50874 184.31671 240.05562Q183.39484 240.58687 182.64484 240.86812L182.64484 239.33687Q183.97296 238.71187 184.97296 237.82124Q185.97296 236.93062 186.37921 236.1025L187.39484 236.1025L187.39484 249.04ZM199.75421 247.52437L199.75421 249.04L191.23859 249.04Q191.22296 248.46187 191.42609 247.94624Q191.75421 247.07124 192.45734 246.2275Q193.17609 245.38374 194.53546 244.27437Q196.62921 242.55562 197.36359 241.55562Q198.11359 240.54 198.11359 239.64937Q198.11359 238.69624 197.44171 238.05562Q196.76984 237.415 195.69171 237.415Q194.53546 237.415 193.84796 238.1025Q193.17609 238.79 193.16046 239.99312L191.53546 239.82124Q191.70734 238.00874 192.78546 237.05562Q193.87921 236.1025 195.72296 236.1025Q197.56671 236.1025 198.64484 237.13374Q199.73859 238.165 199.73859 239.68062Q199.73859 240.44624 199.41046 241.19624Q199.09796 241.94624 198.36359 242.77437Q197.62921 243.6025 195.92609 245.04Q194.50421 246.24312 194.09796 246.665Q193.69171 247.08687 193.44171 247.52437L199.75421 247.52437ZM202.33234 249.04L202.33234 247.24312L204.12921 247.24312L204.12921 249.04L202.33234 249.04ZM206.44171 245.665L208.09796 245.52437Q208.28546 246.74312 208.95734 247.3525Q209.62921 247.96187 210.58234 247.96187Q211.72296 247.96187 212.50421 247.1025Q213.30109 246.24312 213.30109 244.80562Q213.30109 243.46187 212.53546 242.68062Q211.78546 241.89937 210.55109 241.89937Q209.78546 241.89937 209.16046 242.24312Q208.55109 242.58687 208.20734 243.14937L206.72296 242.94624L207.97296 236.33687L214.37921 236.33687L214.37921 237.83687L209.23859 237.83687L208.53546 241.30562Q209.70734 240.49312 210.97296 240.49312Q212.66046 240.49312 213.81671 241.665Q214.98859 242.83687 214.98859 244.665Q214.98859 246.415 213.95734 247.69624Q212.72296 249.25874 210.58234 249.25874Q208.81671 249.25874 207.70734 248.27437Q206.59796 247.29 206.44171 245.665ZM216.73859 239.24312Q216.73859 237.86812 217.42609 236.89937Q218.12921 235.93062 219.44171 235.93062Q220.66046 235.93062 221.45734 236.80562Q222.25421 237.665 222.25421 239.3525Q222.25421 240.9775 221.44171 241.86812Q220.64484 242.74312 219.45734 242.74312Q218.30109 242.74312 217.51984 241.88374Q216.73859 241.00874 216.73859 239.24312ZM219.48859 237.02437Q218.89484 237.02437 218.50421 237.54Q218.11359 238.04 218.11359 239.39937Q218.11359 240.64937 218.50421 241.14937Q218.91046 241.64937 219.48859 241.64937Q220.08234 241.64937 220.47296 241.14937Q220.86359 240.63374 220.86359 239.29Q220.86359 238.04 220.47296 237.54Q220.08234 237.02437 219.48859 237.02437ZM219.50421 249.50874L226.55109 235.93062L227.83234 235.93062L220.80109 249.50874L219.50421 249.50874ZM225.06671 246.00874Q225.06671 244.63374 225.75421 243.665Q226.45734 242.69624 227.78546 242.69624Q229.00421 242.69624 229.78546 243.57124Q230.58234 244.43062 230.58234 246.11812Q230.58234 247.74312 229.78546 248.63374Q228.98859 249.50874 227.80109 249.50874Q226.62921 249.50874 225.84796 248.63374Q225.06671 247.75874 225.06671 246.00874ZM227.83234 243.79Q227.23859 243.79 226.84796 244.30562Q226.45734 244.80562 226.45734 246.18062Q226.45734 247.39937 226.84796 247.915Q227.23859 248.43062 227.81671 248.43062Q228.42609 248.43062 228.81671 247.915Q229.20734 247.39937 229.20734 246.05562Q229.20734 244.80562 228.81671 244.30562Q228.42609 243.79 227.83234 243.79Z" fill-rule="nonzero"/><path fill="#ffffff" d="M187.39484 171.32668L185.81671 171.32668L185.81671 161.24855Q185.23859 161.79543 184.31671 162.3423Q183.39484 162.87355 182.64484 163.1548L182.64484 161.62355Q183.97296 160.99855 184.97296 160.10793Q185.97296 159.2173 186.37921 158.38918L187.39484 158.38918L187.39484 171.32668ZM199.75421 169.81105L199.75421 171.32668L191.23859 171.32668Q191.22296 170.74855 191.42609 170.23293Q191.75421 169.35793 192.45734 168.51418Q193.17609 167.67043 194.53546 166.56105Q196.62921 164.8423 197.36359 163.8423Q198.11359 162.82668 198.11359 161.93605Q198.11359 160.98293 197.44171 160.3423Q196.76984 159.70168 195.69171 159.70168Q194.53546 159.70168 193.84796 160.38918Q193.17609 161.07668 193.16046 162.2798L191.53546 162.10793Q191.70734 160.29543 192.78546 159.3423Q193.87921 158.38918 195.72296 158.38918Q197.56671 158.38918 198.64484 159.42043Q199.73859 160.45168 199.73859 161.9673Q199.73859 162.73293 199.41046 163.48293Q199.09796 164.23293 198.36359 165.06105Q197.62921 165.88918 195.92609 167.32668Q194.50421 168.5298 194.09796 168.95168Q193.69171 169.37355 193.44171 169.81105L199.75421 169.81105ZM202.33234 171.32668L202.33234 169.5298L204.12921 169.5298L204.12921 171.32668L202.33234 171.32668ZM206.44171 167.95168L208.09796 167.81105Q208.28546 169.0298 208.95734 169.63918Q209.62921 170.24855 210.58234 170.24855Q211.72296 170.24855 212.50421 169.38918Q213.30109 168.5298 213.30109 167.0923Q213.30109 165.74855 212.53546 164.9673Q211.78546 164.18605 210.55109 164.18605Q209.78546 164.18605 209.16046 164.5298Q208.55109 164.87355 208.20734 165.43605L206.72296 165.23293L207.97296 158.62355L214.37921 158.62355L214.37921 160.12355L209.23859 160.12355L208.53546 163.5923Q209.70734 162.7798 210.97296 162.7798Q212.66046 162.7798 213.81671 163.95168Q214.98859 165.12355 214.98859 166.95168Q214.98859 168.70168 213.95734 169.98293Q212.72296 171.54543 210.58234 171.54543Q208.81671 171.54543 207.70734 170.56105Q206.59796 169.57668 206.44171 167.95168ZM216.73859 161.5298Q216.73859 160.1548 217.42609 159.18605Q218.12921 158.2173 219.44171 158.2173Q220.66046 158.2173 221.45734 159.0923Q222.25421 159.95168 222.25421 161.63918Q222.25421 163.26418 221.44171 164.1548Q220.64484 165.0298 219.45734 165.0298Q218.30109 165.0298 217.51984 164.17043Q216.73859 163.29543 216.73859 161.5298ZM219.48859 159.31105Q218.89484 159.31105 218.50421 159.82668Q218.11359 160.32668 218.11359 161.68605Q218.11359 162.93605 218.50421 163.43605Q218.91046 163.93605 219.48859 163.93605Q220.08234 163.93605 220.47296 163.43605Q220.86359 162.92043 220.86359 161.57668Q220.86359 160.32668 220.47296 159.82668Q220.08234 159.31105 219.48859 159.31105ZM219.50421 171.79543L226.55109 158.2173L227.83234 158.2173L220.80109 171.79543L219.50421 171.79543ZM225.06671 168.29543Q225.06671 166.92043 225.75421 165.95168Q226.45734 164.98293 227.78546 164.98293Q229.00421 164.98293 229.78546 165.85793Q230.58234 166.7173 230.58234 168.4048Q230.58234 170.0298 229.78546 170.92043Q228.98859 171.79543 227.80109 171.79543Q226.62921 171.79543 225.84796 170.92043Q225.06671 170.04543 225.06671 168.29543ZM227.83234 166.07668Q227.23859 166.07668 226.84796 166.5923Q226.45734 167.0923 226.45734 168.4673Q226.45734 169.68605 226.84796 170.20168Q227.23859 170.7173 227.81671 170.7173Q228.42609 170.7173 228.81671 170.20168Q229.20734 169.68605 229.20734 168.3423Q229.20734 167.0923 228.81671 166.5923Q228.42609 166.07668 227.83234 166.07668Z" fill-rule="nonzero"/><path fill="#ffffff" d="M240.14539 111.06117L238.56726 111.06117L238.56726 100.98305Q237.98914 101.52992 237.06726 102.0768Q236.14539 102.60805 235.39539 102.8893L235.39539 101.35805Q236.72351 100.73305 237.72351 99.84242Q238.72351 98.9518 239.12976 98.12367L240.14539 98.12367L240.14539 111.06117ZM252.50476 109.54555L252.50476 111.06117L243.98914 111.06117Q243.97351 110.48305 244.17664 109.96742Q244.50476 109.09242 245.20789 108.24867Q245.92664 107.40492 247.28601 106.29555Q249.37976 104.5768 250.11414 103.5768Q250.86414 102.56117 250.86414 101.67055Q250.86414 100.71742 250.19226 100.0768Q249.52039 99.43617 248.44226 99.43617Q247.28601 99.43617 246.59851 100.12367Q245.92664 100.81117 245.91101 102.0143L244.28601 101.84242Q244.45789 100.02992 245.53601 99.0768Q246.62976 98.12367 248.47351 98.12367Q250.31726 98.12367 251.39539 99.15492Q252.48914 100.18617 252.48914 101.7018Q252.48914 102.46742 252.16101 103.21742Q251.84851 103.96742 251.11414 104.79555Q250.37976 105.62367 248.67664 107.06117Q247.25476 108.2643 246.84851 108.68617Q246.44226 109.10805 246.19226 109.54555L252.50476 109.54555ZM255.08289 111.06117L255.08289 109.2643L256.87976 109.2643L256.87976 111.06117L255.08289 111.06117ZM259.19226 107.68617L260.8485 107.54555Q261.036 108.7643 261.7079 109.37367Q262.37976 109.98305 263.3329 109.98305Q264.4735 109.98305 265.25476 109.12367Q266.05164 108.2643 266.05164 106.8268Q266.05164 105.48305 265.286 104.7018Q264.536 103.92055 263.30164 103.92055Q262.536 103.92055 261.911 104.2643Q261.30164 104.60805 260.9579 105.17055L259.4735 104.96742L260.7235 98.35805L267.12976 98.35805L267.12976 99.85805L261.98914 99.85805L261.286 103.3268Q262.4579 102.5143 263.7235 102.5143Q265.411 102.5143 266.56726 103.68617Q267.73914 104.85805 267.73914 106.68617Q267.73914 108.43617 266.7079 109.71742Q265.4735 111.27992 263.3329 111.27992Q261.56726 111.27992 260.4579 110.29555Q259.3485 109.31117 259.19226 107.68617ZM269.48914 101.2643Q269.48914 99.8893 270.17664 98.92055Q270.87976 97.9518 272.19226 97.9518Q273.411 97.9518 274.2079 98.8268Q275.00476 99.68617 275.00476 101.37367Q275.00476 102.99867 274.19226 103.8893Q273.3954 104.7643 272.2079 104.7643Q271.05164 104.7643 270.2704 103.90492Q269.48914 103.02992 269.48914 101.2643ZM272.23914 99.04555Q271.6454 99.04555 271.25476 99.56117Q270.86414 100.06117 270.86414 101.42055Q270.86414 102.67055 271.25476 103.17055Q271.661 103.67055 272.23914 103.67055Q272.8329 103.67055 273.2235 103.17055Q273.61414 102.65492 273.61414 101.31117Q273.61414 100.06117 273.2235 99.56117Q272.8329 99.04555 272.23914 99.04555ZM272.25476 111.52992L279.30164 97.9518L280.5829 97.9518L273.55164 111.52992L272.25476 111.52992ZM277.81726 108.02992Q277.81726 106.65492 278.50476 105.68617Q279.2079 104.71742 280.536 104.71742Q281.75476 104.71742 282.536 105.59242Q283.3329 106.4518 283.3329 108.1393Q283.3329 109.7643 282.536 110.65492Q281.73914 111.52992 280.55164 111.52992Q279.37976 111.52992 278.5985 110.65492Q277.81726 109.77992 277.81726 108.02992ZM280.5829 105.81117Q279.98914 105.81117 279.5985 106.3268Q279.2079 106.8268 279.2079 108.2018Q279.2079 109.42055 279.5985 109.93617Q279.98914 110.4518 280.56726 110.4518Q281.17664 110.4518 281.56726 109.93617Q281.9579 109.42055 281.9579 108.0768Q281.9579 106.8268 281.56726 106.3268Q281.17664 105.81117 280.5829 105.81117Z" fill-rule="nonzero"/><path stroke="#ffffff" stroke-width="1.0" stroke-linejoin="round" stroke-linecap="round" d="M326.2985 177.38486C319.3237 170.41006 309.86383 166.49167 300.0 166.49167L300.0 54.916668C339.45538 54.916668 377.29477 70.590256 405.1939 98.48942" fill-rule="nonzero"/><path stroke="#ffffff" stroke-width="1.0" stroke-linejoin="round" stroke-linecap="round" d="M300.0 240.875C315.04263 240.875 328.60406 231.81354 334.36063 217.91597C340.1172 204.0184 336.9352 188.02159 326.2985 177.38486L405.1939 98.48942C447.74088 141.03638 460.46872 205.02357 437.44247 260.61386C414.41623 316.20416 360.1705 352.45 300.0 352.45" fill-rule="nonzero"/><path stroke="#ffffff" stroke-width="1.0" stroke-linejoin="round" stroke-linecap="round" d="M273.7015 229.98181C280.6763 236.9566 290.13617 240.875 300.0 240.875L300.0 352.45C260.54462 352.45 222.70525 336.77643 194.80608 308.87726" fill-rule="nonzero"/><path stroke="#ffffff" stroke-width="1.0" stroke-linejoin="round" stroke-linecap="round" d="M262.80832 203.68333C262.80832 213.54718 266.7267 223.00702 273.7015 229.98181L194.80608 308.87726C166.90692 280.9781 151.23334 243.1387 151.23334 203.68333" fill-rule="nonzero"/><path stroke="#ffffff" stroke-width="1.0" stroke-linejoin="round" stroke-linecap="round" d="M273.7015 177.38486C266.7267 184.35965 262.80832 193.81949 262.80832 203.68333L151.23334 203.68333C151.23334 164.22797 166.90692 126.38857 194.80608 98.48942" fill-rule="nonzero"/><path stroke="#ffffff" stroke-width="1.0" stroke-linejoin="round" stroke-linecap="round" d="M300.0 166.49167C290.13617 166.49167 280.6763 170.41006 273.7015 177.38486L194.80608 98.48942C222.70525 70.590256 260.54462 54.916668 300.0 54.916668" fill-rule="nonzero"/><path fill="#efefef" d="M19.784374 69.916664L19.784374 58.46354L24.1125 58.46354Q25.253124 58.46354 25.846874 58.572914Q26.690624 58.71354 27.253124 59.104164Q27.83125 59.49479 28.175 60.21354Q28.534374 60.916664 28.534374 61.77604Q28.534374 63.229164 27.596874 64.24479Q26.675 65.260414 24.2375 65.260414L21.3 65.260414L21.3 69.916664L19.784374 69.916664ZM21.3 63.90104L24.26875 63.90104Q25.7375 63.90104 26.346874 63.354164Q26.971874 62.80729 26.971874 61.822914Q26.971874 61.104164 26.596874 60.58854Q26.2375 60.072914 25.64375 59.916664Q25.26875 59.80729 24.2375 59.80729L21.3 59.80729L21.3 63.90104ZM36.01875 68.885414Q35.2375 69.55729 34.51875 69.83854Q33.8 70.104164 32.971874 70.104164Q31.596874 70.104164 30.8625 69.43229Q30.128124 68.760414 30.128124 67.729164Q30.128124 67.11979 30.409374 66.61979Q30.690624 66.104164 31.128124 65.80729Q31.58125 65.49479 32.14375 65.33854Q32.565624 65.229164 33.39375 65.135414Q35.096874 64.93229 35.909374 64.65104Q35.909374 64.354164 35.909374 64.27604Q35.909374 63.416664 35.51875 63.072914Q34.971874 62.58854 33.909374 62.58854Q32.925 62.58854 32.440624 62.947914Q31.971874 63.291664 31.753124 64.166664L30.378124 63.979164Q30.565624 63.104164 30.9875 62.55729Q31.425 62.010414 32.2375 61.729164Q33.05 61.43229 34.1125 61.43229Q35.175 61.43229 35.83125 61.68229Q36.503124 61.93229 36.815624 62.30729Q37.128124 62.68229 37.253124 63.260414Q37.33125 63.61979 37.33125 64.55729L37.33125 66.43229Q37.33125 68.40104 37.409374 68.916664Q37.503124 69.43229 37.76875 69.916664L36.3 69.916664Q36.08125 69.479164 36.01875 68.885414ZM35.909374 65.74479Q35.14375 66.05729 33.6125 66.27604Q32.7375 66.40104 32.378124 66.55729Q32.01875 66.71354 31.815624 67.02604Q31.628124 67.322914 31.628124 67.68229Q31.628124 68.24479 32.05 68.61979Q32.4875 68.99479 33.3 68.99479Q34.1125 68.99479 34.7375 68.65104Q35.378124 68.291664 35.675 67.666664Q35.909374 67.197914 35.909374 66.260414L35.909374 65.74479ZM39.346874 70.604164L40.721874 70.80729Q40.8 71.447914 41.190624 71.729164Q41.721874 72.11979 42.628124 72.11979Q43.596874 72.11979 44.128124 71.729164Q44.659374 71.33854 44.846874 70.635414Q44.95625 70.21354 44.95625 68.822914Q44.034374 69.916664 42.659374 69.916664Q40.940624 69.916664 40.003124 68.68229Q39.065624 67.447914 39.065624 65.71354Q39.065624 64.52604 39.4875 63.52604Q39.925 62.52604 40.7375 61.979164Q41.565624 61.43229 42.659374 61.43229Q44.128124 61.43229 45.08125 62.61979L45.08125 61.61979L46.378124 61.61979L46.378124 68.791664Q46.378124 70.729164 45.9875 71.541664Q45.596874 72.354164 44.7375 72.822914Q43.878124 73.291664 42.628124 73.291664Q41.14375 73.291664 40.221874 72.61979Q39.315624 71.947914 39.346874 70.604164ZM40.51875 65.61979Q40.51875 67.24479 41.159374 67.99479Q41.815624 68.74479 42.784374 68.74479Q43.753124 68.74479 44.409374 68.010414Q45.065624 67.260414 45.065624 65.666664Q45.065624 64.135414 44.39375 63.36979Q43.721874 62.58854 42.76875 62.58854Q41.83125 62.58854 41.175 63.354164Q40.51875 64.11979 40.51875 65.61979ZM54.284374 67.24479L55.7375 67.416664Q55.39375 68.697914 54.45625 69.40104Q53.534374 70.104164 52.096874 70.104164Q50.26875 70.104164 49.20625 68.979164Q48.14375 67.854164 48.14375 65.83854Q48.14375 63.74479 49.221874 62.58854Q50.3 61.43229 52.01875 61.43229Q53.675 61.43229 54.721874 62.572914Q55.784374 63.697914 55.784374 65.74479Q55.784374 65.86979 55.784374 66.11979L49.596874 66.11979Q49.675 67.49479 50.3625 68.229164Q51.065624 68.947914 52.096874 68.947914Q52.878124 68.947914 53.425 68.541664Q53.971874 68.135414 54.284374 67.24479ZM49.675 64.96354L54.3 64.96354Q54.20625 63.916664 53.76875 63.40104Q53.096874 62.58854 52.034374 62.58854Q51.065624 62.58854 50.39375 63.24479Q49.7375 63.885414 49.675 64.96354Z" fill-rule="nonzero"/><path fill="#9e9e9e" d="M24.51875 91.916664L23.1125 91.916664L23.1125 82.947914Q22.596874 83.43229 21.76875 83.916664Q20.95625 84.40104 20.3 84.65104L20.3 83.291664Q21.471874 82.729164 22.346874 81.947914Q23.2375 81.15104 23.6125 80.416664L24.51875 80.416664L24.51875 91.916664ZM35.6125 90.55729L35.6125 91.916664L28.034374 91.916664Q28.01875 91.40104 28.20625 90.93229Q28.4875 90.166664 29.128124 89.416664Q29.76875 88.666664 30.971874 87.68229Q32.83125 86.15104 33.4875 85.260414Q34.14375 84.354164 34.14375 83.55729Q34.14375 82.729164 33.55 82.15104Q32.95625 81.572914 31.9875 81.572914Q30.971874 81.572914 30.3625 82.18229Q29.753124 82.791664 29.753124 83.86979L28.3 83.729164Q28.45625 82.104164 29.425 81.260414Q30.39375 80.416664 32.01875 80.416664Q33.675 80.416664 34.628124 81.33854Q35.596874 82.24479 35.596874 83.58854Q35.596874 84.27604 35.315624 84.947914Q35.034374 85.604164 34.378124 86.33854Q33.721874 87.072914 32.20625 88.354164Q30.940624 89.416664 30.58125 89.80729Q30.221874 90.18229 29.9875 90.55729L35.6125 90.55729ZM38.003124 91.916664L38.003124 90.30729L39.6125 90.30729L39.6125 91.916664L38.003124 91.916664ZM41.221874 88.916664L42.690624 88.791664Q42.8625 89.86979 43.45625 90.416664Q44.05 90.947914 44.89375 90.947914Q45.909374 90.947914 46.6125 90.18229Q47.315624 89.416664 47.315624 88.15104Q47.315624 86.947914 46.64375 86.260414Q45.971874 85.55729 44.878124 85.55729Q44.190624 85.55729 43.64375 85.86979Q43.096874 86.18229 42.784374 86.666664L41.471874 86.49479L42.58125 80.61979L48.26875 80.61979L48.26875 81.96354L43.70625 81.96354L43.08125 85.041664Q44.1125 84.322914 45.253124 84.322914Q46.753124 84.322914 47.784374 85.36979Q48.815624 86.40104 48.815624 88.02604Q48.815624 89.58854 47.909374 90.71354Q46.8 92.11979 44.89375 92.11979Q43.33125 92.11979 42.346874 91.24479Q41.3625 90.354164 41.221874 88.916664ZM50.4875 83.21354Q50.4875 81.979164 51.096874 81.11979Q51.721874 80.260414 52.89375 80.260414Q53.971874 80.260414 54.675 81.041664Q55.378124 81.80729 55.378124 83.291664Q55.378124 84.74479 54.659374 85.541664Q53.95625 86.322914 52.909374 86.322914Q51.8625 86.322914 51.175 85.55729Q50.4875 84.77604 50.4875 83.21354ZM52.925 81.229164Q52.409374 81.229164 52.05 81.68229Q51.70625 82.135414 51.70625 83.354164Q51.70625 84.447914 52.05 84.90104Q52.409374 85.354164 52.925 85.354164Q53.45625 85.354164 53.8 84.90104Q54.159374 84.447914 54.159374 83.24479Q54.159374 82.135414 53.8 81.68229Q53.45625 81.229164 52.925 81.229164ZM52.940624 92.33854L59.20625 80.260414L60.346874 80.260414L54.096874 92.33854L52.940624 92.33854ZM57.89375 89.229164Q57.89375 87.99479 58.503124 87.135414Q59.128124 86.27604 60.3 86.27604Q61.378124 86.27604 62.08125 87.05729Q62.8 87.822914 62.8 89.30729Q62.8 90.760414 62.08125 91.55729Q61.3625 92.33854 60.315624 92.33854Q59.26875 92.33854 58.58125 91.55729Q57.89375 90.77604 57.89375 89.229164ZM60.346874 87.24479Q59.815624 87.24479 59.45625 87.697914Q59.1125 88.15104 59.1125 89.36979Q59.1125 90.46354 59.45625 90.916664Q59.815624 91.36979 60.33125 91.36979Q60.878124 91.36979 61.221874 90.916664Q61.565624 90.46354 61.565624 89.260414Q61.565624 88.15104 61.20625 87.697914Q60.8625 87.24479 60.346874 87.24479Z" fill-rule="nonzero"/><path stroke="#757575" stroke-width="1.0" stroke-linecap="butt" d="M18.55 75.416664L145.23334 75.416664L245.91599 73.112976" fill-rule="nonzero"/><path fill="#9e9e9e" d="M247.91599 73.112976C247.91599 72.00841 247.02055 71.112976 245.91599 71.112976C244.81142 71.112976 243.91599 72.00841 243.91599 73.112976C243.91599 74.217545 244.81142 75.112976 245.91599 75.112976C247.02055 75.112976 247.91599 74.217545 247.91599 73.112976" fill-rule="nonzero"/><path fill="#efefef" d="M27.3 132.6462L28.815624 132.6462L28.815624 139.25557Q28.815624 140.98994 28.425 142.00557Q28.034374 143.0212 27.01875 143.66182Q26.003124 144.30244 24.346874 144.30244Q22.7375 144.30244 21.70625 143.73994Q20.690624 143.17744 20.253124 142.13057Q19.815624 141.0837 19.815624 139.25557L19.815624 132.6462L21.33125 132.6462L21.33125 139.25557Q21.33125 140.73994 21.596874 141.4587Q21.878124 142.16182 22.55 142.55244Q23.2375 142.92744 24.20625 142.92744Q25.878124 142.92744 26.58125 142.17744Q27.3 141.41182 27.3 139.25557L27.3 132.6462ZM31.596874 144.09932L31.596874 135.80244L32.8625 135.80244L32.8625 137.05244Q33.346874 136.17744 33.753124 135.8962Q34.159374 135.61494 34.659374 135.61494Q35.3625 135.61494 36.096874 136.06807L35.6125 137.36494Q35.096874 137.06807 34.58125 137.06807Q34.128124 137.06807 33.753124 137.34932Q33.39375 137.61494 33.2375 138.11494Q33.003124 138.86494 33.003124 139.75557L33.003124 144.09932L31.596874 144.09932ZM37.909374 144.09932L36.596874 144.09932L36.596874 132.6462L38.003124 132.6462L38.003124 136.72432Q38.89375 135.61494 40.284374 135.61494Q41.05 135.61494 41.721874 135.92744Q42.409374 136.22432 42.846874 136.78682Q43.3 137.34932 43.55 138.1462Q43.8 138.92744 43.8 139.81807Q43.8 141.9587 42.7375 143.13057Q41.690624 144.28682 40.20625 144.28682Q38.7375 144.28682 37.909374 143.05244L37.909374 144.09932ZM37.89375 139.88057Q37.89375 141.38057 38.3 142.03682Q38.95625 143.13057 40.096874 143.13057Q41.01875 143.13057 41.690624 142.3337Q42.3625 141.5212 42.3625 139.94307Q42.3625 138.31807 41.70625 137.55244Q41.065624 136.7712 40.159374 136.7712Q39.2375 136.7712 38.565624 137.56807Q37.89375 138.36494 37.89375 139.88057ZM51.01875 143.06807Q50.2375 143.73994 49.51875 144.0212Q48.8 144.28682 47.971874 144.28682Q46.596874 144.28682 45.8625 143.61494Q45.128124 142.94307 45.128124 141.91182Q45.128124 141.30244 45.409374 140.80244Q45.690624 140.28682 46.128124 139.98994Q46.58125 139.67744 47.14375 139.5212Q47.565624 139.41182 48.39375 139.31807Q50.096874 139.11494 50.909374 138.8337Q50.909374 138.53682 50.909374 138.4587Q50.909374 137.59932 50.51875 137.25557Q49.971874 136.7712 48.909374 136.7712Q47.925 136.7712 47.440624 137.13057Q46.971874 137.47432 46.753124 138.34932L45.378124 138.16182Q45.565624 137.28682 45.9875 136.73994Q46.425 136.19307 47.2375 135.91182Q48.05 135.61494 49.1125 135.61494Q50.175 135.61494 50.83125 135.86494Q51.503124 136.11494 51.815624 136.48994Q52.128124 136.86494 52.253124 137.44307Q52.33125 137.80244 52.33125 138.73994L52.33125 140.61494Q52.33125 142.5837 52.409374 143.09932Q52.503124 143.61494 52.76875 144.09932L51.3 144.09932Q51.08125 143.66182 51.01875 143.06807ZM50.909374 139.92744Q50.14375 140.23994 48.6125 140.4587Q47.7375 140.5837 47.378124 140.73994Q47.01875 140.8962 46.815624 141.2087Q46.628124 141.50557 46.628124 141.86494Q46.628124 142.42744 47.05 142.80244Q47.4875 143.17744 48.3 143.17744Q49.1125 143.17744 49.7375 142.8337Q50.378124 142.47432 50.675 141.84932Q50.909374 141.38057 50.909374 140.44307L50.909374 139.92744ZM54.6125 144.09932L54.6125 135.80244L55.878124 135.80244L55.878124 136.97432Q56.784374 135.61494 58.51875 135.61494Q59.26875 135.61494 59.89375 135.88057Q60.51875 136.1462 60.83125 136.5837Q61.14375 137.0212 61.26875 137.63057Q61.346874 138.0212 61.346874 138.98994L61.346874 144.09932L59.940624 144.09932L59.940624 139.05244Q59.940624 138.19307 59.76875 137.7712Q59.6125 137.3337 59.190624 137.0837Q58.784374 136.8337 58.221874 136.8337Q57.315624 136.8337 56.659374 137.41182Q56.01875 137.97432 56.01875 139.56807L56.01875 144.09932L54.6125 144.09932ZM63.05 141.61494L64.44063 141.3962Q64.55 142.23994 65.08125 142.69307Q65.62813 143.13057 66.58125 143.13057Q67.55 143.13057 68.01875 142.73994Q68.4875 142.3337 68.4875 141.80244Q68.4875 141.3337 68.08125 141.05244Q67.78438 140.86494 66.64375 140.5837Q65.09688 140.19307 64.4875 139.91182Q63.89375 139.61494 63.58125 139.11494Q63.284374 138.61494 63.284374 138.00557Q63.284374 137.44307 63.534374 136.97432Q63.784374 136.50557 64.22188 136.19307Q64.55 135.94307 65.1125 135.78682Q65.69063 135.61494 66.33125 135.61494Q67.31563 135.61494 68.05 135.8962Q68.78438 136.17744 69.12813 136.66182Q69.4875 137.13057 69.62813 137.94307L68.25313 138.13057Q68.15938 137.48994 67.70625 137.13057Q67.25313 136.7712 66.44063 136.7712Q65.47188 136.7712 65.05 137.09932Q64.64375 137.41182 64.64375 137.8337Q64.64375 138.11494 64.81563 138.3337Q64.9875 138.55244 65.34688 138.7087Q65.56563 138.78682 66.59688 139.06807Q68.08125 139.4587 68.675 139.72432Q69.26875 139.97432 69.59688 140.4587Q69.94063 140.94307 69.94063 141.66182Q69.94063 142.36494 69.51875 142.98994Q69.1125 143.59932 68.33125 143.94307Q67.56563 144.28682 66.59688 144.28682Q64.97188 144.28682 64.12813 143.61494Q63.284374 142.94307 63.05 141.61494ZM77.01875 141.05244L78.40938 141.23994Q78.175 142.66182 77.2375 143.47432Q76.31563 144.28682 74.95625 144.28682Q73.25313 144.28682 72.20625 143.17744Q71.175 142.05244 71.175 139.97432Q71.175 138.63057 71.6125 137.63057Q72.06563 136.61494 72.97188 136.11494Q73.89375 135.61494 74.95625 135.61494Q76.31563 135.61494 77.175 136.30244Q78.03438 136.97432 78.26875 138.23994L76.90938 138.44307Q76.70625 137.61494 76.20625 137.19307Q75.72188 136.7712 75.01875 136.7712Q73.95625 136.7712 73.28438 137.53682Q72.62813 138.28682 72.62813 139.94307Q72.62813 141.61494 73.26875 142.38057Q73.90938 143.13057 74.94063 143.13057Q75.76875 143.13057 76.31563 142.63057Q76.87813 142.11494 77.01875 141.05244ZM85.01875 143.06807Q84.2375 143.73994 83.51875 144.0212Q82.8 144.28682 81.97188 144.28682Q80.59688 144.28682 79.8625 143.61494Q79.12813 142.94307 79.12813 141.91182Q79.12813 141.30244 79.40938 140.80244Q79.69063 140.28682 80.12813 139.98994Q80.58125 139.67744 81.14375 139.5212Q81.56563 139.41182 82.39375 139.31807Q84.09688 139.11494 84.90938 138.8337Q84.90938 138.53682 84.90938 138.4587Q84.90938 137.59932 84.51875 137.25557Q83.97188 136.7712 82.90938 136.7712Q81.925 136.7712 81.44063 137.13057Q80.97188 137.47432 80.75313 138.34932L79.37813 138.16182Q79.56563 137.28682 79.9875 136.73994Q80.425 136.19307 81.2375 135.91182Q82.05 135.61494 83.1125 135.61494Q84.175 135.61494 84.83125 135.86494Q85.50313 136.11494 85.81563 136.48994Q86.12813 136.86494 86.25313 137.44307Q86.33125 137.80244 86.33125 138.73994L86.33125 140.61494Q86.33125 142.5837 86.40938 143.09932Q86.50313 143.61494 86.76875 144.09932L85.3 144.09932Q85.08125 143.66182 85.01875 143.06807ZM84.90938 139.92744Q84.14375 140.23994 82.6125 140.4587Q81.7375 140.5837 81.37813 140.73994Q81.01875 140.8962 80.81563 141.2087Q80.62813 141.50557 80.62813 141.86494Q80.62813 142.42744 81.05 142.80244Q81.4875 143.17744 82.3 143.17744Q83.1125 143.17744 83.7375 142.8337Q84.37813 142.47432 84.675 141.84932Q84.90938 141.38057 84.90938 140.44307L84.90938 139.92744ZM88.6125 147.28682L88.6125 135.80244L89.89375 135.80244L89.89375 136.88057Q90.34688 136.23994 90.90938 135.92744Q91.4875 135.61494 92.3 135.61494Q93.3625 135.61494 94.175 136.16182Q94.9875 136.7087 95.39375 137.7087Q95.81563 138.69307 95.81563 139.88057Q95.81563 141.16182 95.34688 142.17744Q94.89375 143.19307 94.01875 143.73994Q93.15938 144.28682 92.19063 144.28682Q91.4875 144.28682 90.925 143.98994Q90.37813 143.69307 90.01875 143.23994L90.01875 147.28682L88.6125 147.28682ZM89.87813 139.98994Q89.87813 141.59932 90.51875 142.36494Q91.175 143.13057 92.09688 143.13057Q93.03438 143.13057 93.70625 142.3337Q94.37813 141.53682 94.37813 139.88057Q94.37813 138.28682 93.72188 137.50557Q93.06563 136.7087 92.15938 136.7087Q91.26875 136.7087 90.56563 137.55244Q89.87813 138.3962 89.87813 139.98994ZM103.28438 141.42744L104.7375 141.59932Q104.39375 142.88057 103.45625 143.5837Q102.53438 144.28682 101.09688 144.28682Q99.26875 144.28682 98.20625 143.16182Q97.14375 142.03682 97.14375 140.0212Q97.14375 137.92744 98.22188 136.7712Q99.3 135.61494 101.01875 135.61494Q102.675 135.61494 103.72188 136.75557Q104.78438 137.88057 104.78438 139.92744Q104.78438 140.05244 104.78438 140.30244L98.59688 140.30244Q98.675 141.67744 99.3625 142.41182Q100.06563 143.13057 101.09688 143.13057Q101.87813 143.13057 102.425 142.72432Q102.97188 142.31807 103.28438 141.42744ZM98.675 139.1462L103.3 139.1462Q103.20625 138.09932 102.76875 137.5837Q102.09688 136.7712 101.03438 136.7712Q100.06563 136.7712 99.39375 137.42744Q98.7375 138.06807 98.675 139.1462Z" fill-rule="nonzero"/><path fill="#9e9e9e" d="M24.51875 166.09932L23.1125 166.09932L23.1125 157.13057Q22.596874 157.61494 21.76875 158.09932Q20.95625 158.5837 20.3 158.8337L20.3 157.47432Q21.471874 156.91182 22.346874 156.13057Q23.2375 155.3337 23.6125 154.59932L24.51875 154.59932L24.51875 166.09932ZM35.6125 164.73994L35.6125 166.09932L28.034374 166.09932Q28.01875 165.5837 28.20625 165.11494Q28.4875 164.34932 29.128124 163.59932Q29.76875 162.84932 30.971874 161.86494Q32.83125 160.3337 33.4875 159.44307Q34.14375 158.53682 34.14375 157.73994Q34.14375 156.91182 33.55 156.3337Q32.95625 155.75557 31.9875 155.75557Q30.971874 155.75557 30.3625 156.36494Q29.753124 156.97432 29.753124 158.05244L28.3 157.91182Q28.45625 156.28682 29.425 155.44307Q30.39375 154.59932 32.01875 154.59932Q33.675 154.59932 34.628124 155.5212Q35.596874 156.42744 35.596874 157.7712Q35.596874 158.4587 35.315624 159.13057Q35.034374 159.78682 34.378124 160.5212Q33.721874 161.25557 32.20625 162.53682Q30.940624 163.59932 30.58125 163.98994Q30.221874 164.36494 29.9875 164.73994L35.6125 164.73994ZM38.003124 166.09932L38.003124 164.48994L39.6125 164.48994L39.6125 166.09932L38.003124 166.09932ZM41.221874 163.09932L42.690624 162.97432Q42.8625 164.05244 43.45625 164.59932Q44.05 165.13057 44.89375 165.13057Q45.909374 165.13057 46.6125 164.36494Q47.315624 163.59932 47.315624 162.3337Q47.315624 161.13057 46.64375 160.44307Q45.971874 159.73994 44.878124 159.73994Q44.190624 159.73994 43.64375 160.05244Q43.096874 160.36494 42.784374 160.84932L41.471874 160.67744L42.58125 154.80244L48.26875 154.80244L48.26875 156.1462L43.70625 156.1462L43.08125 159.22432Q44.1125 158.50557 45.253124 158.50557Q46.753124 158.50557 47.784374 159.55244Q48.815624 160.5837 48.815624 162.2087Q48.815624 163.7712 47.909374 164.8962Q46.8 166.30244 44.89375 166.30244Q43.33125 166.30244 42.346874 165.42744Q41.3625 164.53682 41.221874 163.09932ZM50.4875 157.3962Q50.4875 156.16182 51.096874 155.30244Q51.721874 154.44307 52.89375 154.44307Q53.971874 154.44307 54.675 155.22432Q55.378124 155.98994 55.378124 157.47432Q55.378124 158.92744 54.659374 159.72432Q53.95625 160.50557 52.909374 160.50557Q51.8625 160.50557 51.175 159.73994Q50.4875 158.9587 50.4875 157.3962ZM52.925 155.41182Q52.409374 155.41182 52.05 155.86494Q51.70625 156.31807 51.70625 157.53682Q51.70625 158.63057 52.05 159.0837Q52.409374 159.53682 52.925 159.53682Q53.45625 159.53682 53.8 159.0837Q54.159374 158.63057 54.159374 157.42744Q54.159374 156.31807 53.8 155.86494Q53.45625 155.41182 52.925 155.41182ZM52.940624 166.5212L59.20625 154.44307L60.346874 154.44307L54.096874 166.5212L52.940624 166.5212ZM57.89375 163.41182Q57.89375 162.17744 58.503124 161.31807Q59.128124 160.4587 60.3 160.4587Q61.378124 160.4587 62.08125 161.23994Q62.8 162.00557 62.8 163.48994Q62.8 164.94307 62.08125 165.73994Q61.3625 166.5212 60.315624 166.5212Q59.26875 166.5212 58.58125 165.73994Q57.89375 164.9587 57.89375 163.41182ZM60.346874 161.42744Q59.815624 161.42744 59.45625 161.88057Q59.1125 162.3337 59.1125 163.55244Q59.1125 164.6462 59.45625 165.09932Q59.815624 165.55244 60.33125 165.55244Q60.878124 165.55244 61.221874 165.09932Q61.565624 164.6462 61.565624 163.44307Q61.565624 162.3337 61.20625 161.88057Q60.8625 161.42744 60.346874 161.42744Z" fill-rule="nonzero"/><path stroke="#757575" stroke-width="1.0" stroke-linecap="butt" d="M18.55 149.59932L145.23334 149.59932L169.42964 149.59932" fill-rule="nonzero"/><path fill="#9e9e9e" d="M171.42964 149.59932C171.42964 148.49475 170.53421 147.59932 169.42964 147.59932C168.32507 147.59932 167.42964 148.49475 167.42964 149.59932C167.42964 150.70389 168.32507 151.59932 169.42964 151.59932C170.53421 151.59932 171.42964 150.70389 171.42964 149.59932" fill-rule="nonzero"/><path fill="#efefef" d="M19.76875 252.26735L19.76875 240.81422L21.33125 240.81422L27.346874 249.7986L27.346874 240.81422L28.8 240.81422L28.8 252.26735L27.2375 252.26735L21.221874 243.26735L21.221874 252.26735L19.76875 252.26735ZM37.01875 251.2361Q36.2375 251.90797 35.51875 252.18922Q34.8 252.45485 33.971874 252.45485Q32.596874 252.45485 31.8625 251.78297Q31.128124 251.1111 31.128124 250.07985Q31.128124 249.47047 31.409374 248.97047Q31.690624 248.45485 32.128124 248.15797Q32.58125 247.84547 33.14375 247.68922Q33.565624 247.57985 34.39375 247.4861Q36.096874 247.28297 36.909374 247.00172Q36.909374 246.70485 36.909374 246.62672Q36.909374 245.76735 36.51875 245.4236Q35.971874 244.93922 34.909374 244.93922Q33.925 244.93922 33.440624 245.2986Q32.971874 245.64235 32.753124 246.51735L31.378124 246.32985Q31.565624 245.45485 31.9875 244.90797Q32.425 244.3611 33.2375 244.07985Q34.05 243.78297 35.1125 243.78297Q36.175 243.78297 36.83125 244.03297Q37.503124 244.28297 37.815624 244.65797Q38.128124 245.03297 38.253124 245.6111Q38.33125 245.97047 38.33125 246.90797L38.33125 248.78297Q38.33125 250.75172 38.409374 251.26735Q38.503124 251.78297 38.76875 252.26735L37.3 252.26735Q37.08125 251.82985 37.01875 251.2361ZM36.909374 248.09547Q36.14375 248.40797 34.6125 248.62672Q33.7375 248.75172 33.378124 248.90797Q33.01875 249.06422 32.815624 249.37672Q32.628124 249.6736 32.628124 250.03297Q32.628124 250.59547 33.05 250.97047Q33.4875 251.34547 34.3 251.34547Q35.1125 251.34547 35.7375 251.00172Q36.378124 250.64235 36.675 250.01735Q36.909374 249.5486 36.909374 248.6111L36.909374 248.09547ZM43.675 251.00172L43.878124 252.25172Q43.284374 252.37672 42.815624 252.37672Q42.05 252.37672 41.628124 252.14235Q41.20625 251.89235 41.034374 251.50172Q40.8625 251.09547 40.8625 249.82985L40.8625 245.06422L39.83125 245.06422L39.83125 243.97047L40.8625 243.97047L40.8625 241.90797L42.26875 241.06422L42.26875 243.97047L43.675 243.97047L43.675 245.06422L42.26875 245.06422L42.26875 249.90797Q42.26875 250.51735 42.33125 250.68922Q42.409374 250.8611 42.58125 250.97047Q42.753124 251.06422 43.065624 251.06422Q43.3 251.06422 43.675 251.00172ZM50.05 252.26735L50.05 251.0486Q49.08125 252.45485 47.409374 252.45485Q46.675 252.45485 46.034374 252.1736Q45.409374 251.89235 45.096874 251.47047Q44.784374 251.03297 44.659374 250.4236Q44.58125 250.00172 44.58125 249.1111L44.58125 243.97047L45.9875 243.97047L45.9875 248.56422Q45.9875 249.6736 46.065624 250.0486Q46.20625 250.6111 46.628124 250.9236Q47.065624 251.2361 47.690624 251.2361Q48.33125 251.2361 48.878124 250.9236Q49.440624 250.59547 49.659374 250.03297Q49.89375 249.47047 49.89375 248.40797L49.89375 243.97047L51.3 243.97047L51.3 252.26735L50.05 252.26735ZM53.596874 252.26735L53.596874 243.97047L54.8625 243.97047L54.8625 245.22047Q55.346874 244.34547 55.753124 244.06422Q56.159374 243.78297 56.659374 243.78297Q57.3625 243.78297 58.096874 244.2361L57.6125 245.53297Q57.096874 245.2361 56.58125 245.2361Q56.128124 245.2361 55.753124 245.51735Q55.39375 245.78297 55.2375 246.28297Q55.003124 247.03297 55.003124 247.9236L55.003124 252.26735L53.596874 252.26735ZM64.28438 249.59547L65.7375 249.76735Q65.39375 251.0486 64.45625 251.75172Q63.534374 252.45485 62.096874 252.45485Q60.26875 252.45485 59.20625 251.32985Q58.14375 250.20485 58.14375 248.18922Q58.14375 246.09547 59.221874 244.93922Q60.3 243.78297 62.01875 243.78297Q63.675 243.78297 64.72188 244.9236Q65.78438 246.0486 65.78438 248.09547Q65.78438 248.22047 65.78438 248.47047L59.596874 248.47047Q59.675 249.84547 60.3625 250.57985Q61.065624 251.2986 62.096874 251.2986Q62.878124 251.2986 63.425 250.89235Q63.971874 250.4861 64.28438 249.59547ZM59.675 247.31422L64.3 247.31422Q64.20625 246.26735 63.76875 245.75172Q63.096874 244.93922 62.034374 244.93922Q61.065624 244.93922 60.39375 245.59547Q59.7375 246.2361 59.675 247.31422ZM67.05 249.78297L68.44063 249.56422Q68.55 250.40797 69.08125 250.8611Q69.62813 251.2986 70.58125 251.2986Q71.55 251.2986 72.01875 250.90797Q72.4875 250.50172 72.4875 249.97047Q72.4875 249.50172 72.08125 249.22047Q71.78438 249.03297 70.64375 248.75172Q69.09688 248.3611 68.4875 248.07985Q67.89375 247.78297 67.58125 247.28297Q67.28438 246.78297 67.28438 246.1736Q67.28438 245.6111 67.53438 245.14235Q67.78438 244.6736 68.22188 244.3611Q68.55 244.1111 69.1125 243.95485Q69.69063 243.78297 70.33125 243.78297Q71.31563 243.78297 72.05 244.06422Q72.78438 244.34547 73.12813 244.82985Q73.4875 245.2986 73.62813 246.1111L72.25313 246.2986Q72.15938 245.65797 71.70625 245.2986Q71.25313 244.93922 70.44063 244.93922Q69.47188 244.93922 69.05 245.26735Q68.64375 245.57985 68.64375 246.00172Q68.64375 246.28297 68.81563 246.50172Q68.9875 246.72047 69.34688 246.87672Q69.56563 246.95485 70.59688 247.2361Q72.08125 247.62672 72.675 247.89235Q73.26875 248.14235 73.59688 248.62672Q73.94063 249.1111 73.94063 249.82985Q73.94063 250.53297 73.51875 251.15797Q73.1125 251.76735 72.33125 252.1111Q71.56563 252.45485 70.59688 252.45485Q68.97188 252.45485 68.12813 251.78297Q67.28438 251.1111 67.05 249.78297ZM81.01875 249.22047L82.40938 249.40797Q82.175 250.82985 81.2375 251.64235Q80.31563 252.45485 78.95625 252.45485Q77.25313 252.45485 76.20625 251.34547Q75.175 250.22047 75.175 248.14235Q75.175 246.7986 75.6125 245.7986Q76.06563 244.78297 76.97188 244.28297Q77.89375 243.78297 78.95625 243.78297Q80.31563 243.78297 81.175 244.47047Q82.03438 245.14235 82.26875 246.40797L80.90938 246.6111Q80.70625 245.78297 80.20625 245.3611Q79.72188 244.93922 79.01875 244.93922Q77.95625 244.93922 77.28438 245.70485Q76.62813 246.45485 76.62813 248.1111Q76.62813 249.78297 77.26875 250.5486Q77.90938 251.2986 78.94063 251.2986Q79.76875 251.2986 80.31563 250.7986Q80.87813 250.28297 81.01875 249.22047ZM89.01875 251.2361Q88.2375 251.90797 87.51875 252.18922Q86.8 252.45485 85.97188 252.45485Q84.59688 252.45485 83.8625 251.78297Q83.12813 251.1111 83.12813 250.07985Q83.12813 249.47047 83.40938 248.97047Q83.69063 248.45485 84.12813 248.15797Q84.58125 247.84547 85.14375 247.68922Q85.56563 247.57985 86.39375 247.4861Q88.09688 247.28297 88.90938 247.00172Q88.90938 246.70485 88.90938 246.62672Q88.90938 245.76735 88.51875 245.4236Q87.97188 244.93922 86.90938 244.93922Q85.925 244.93922 85.44063 245.2986Q84.97188 245.64235 84.75313 246.51735L83.37813 246.32985Q83.56563 245.45485 83.9875 244.90797Q84.425 244.3611 85.2375 244.07985Q86.05 243.78297 87.1125 243.78297Q88.175 243.78297 88.83125 244.03297Q89.50313 244.28297 89.81563 244.65797Q90.12813 245.03297 90.25313 245.6111Q90.33125 245.97047 90.33125 246.90797L90.33125 248.78297Q90.33125 250.75172 90.40938 251.26735Q90.50313 251.78297 90.76875 252.26735L89.3 252.26735Q89.08125 251.82985 89.01875 251.2361ZM88.90938 248.09547Q88.14375 248.40797 86.6125 248.62672Q85.7375 248.75172 85.37813 248.90797Q85.01875 249.06422 84.81563 249.37672Q84.62813 249.6736 84.62813 250.03297Q84.62813 250.59547 85.05 250.97047Q85.4875 251.34547 86.3 251.34547Q87.1125 251.34547 87.7375 251.00172Q88.37813 250.64235 88.675 250.01735Q88.90938 249.5486 88.90938 248.6111L88.90938 248.09547ZM92.6125 255.45485L92.6125 243.97047L93.89375 243.97047L93.89375 245.0486Q94.34688 244.40797 94.90938 244.09547Q95.4875 243.78297 96.3 243.78297Q97.3625 243.78297 98.175 244.32985Q98.9875 244.87672 99.39375 245.87672Q99.81563 246.8611 99.81563 248.0486Q99.81563 249.32985 99.34688 250.34547Q98.89375 251.3611 98.01875 251.90797Q97.15938 252.45485 96.19063 252.45485Q95.4875 252.45485 94.925 252.15797Q94.37813 251.8611 94.01875 251.40797L94.01875 255.45485L92.6125 255.45485ZM93.87813 248.15797Q93.87813 249.76735 94.51875 250.53297Q95.175 251.2986 96.09688 251.2986Q97.03438 251.2986 97.70625 250.50172Q98.37813 249.70485 98.37813 248.0486Q98.37813 246.45485 97.72188 245.6736Q97.06563 244.87672 96.15938 244.87672Q95.26875 244.87672 94.56563 245.72047Q93.87813 246.56422 93.87813 248.15797ZM107.28438 249.59547L108.7375 249.76735Q108.39375 251.0486 107.45625 251.75172Q106.53438 252.45485 105.09688 252.45485Q103.26875 252.45485 102.20625 251.32985Q101.14375 250.20485 101.14375 248.18922Q101.14375 246.09547 102.22188 244.93922Q103.3 243.78297 105.01875 243.78297Q106.675 243.78297 107.72188 244.9236Q108.78438 246.0486 108.78438 248.09547Q108.78438 248.22047 108.78438 248.47047L102.59688 248.47047Q102.675 249.84547 103.3625 250.57985Q104.06563 251.2986 105.09688 251.2986Q105.87813 251.2986 106.425 250.89235Q106.97188 250.4861 107.28438 249.59547ZM102.675 247.31422L107.3 247.31422Q107.20625 246.26735 106.76875 245.75172Q106.09688 244.93922 105.03438 244.93922Q104.06563 244.93922 103.39375 245.59547Q102.7375 246.2361 102.675 247.31422Z" fill-rule="nonzero"/><path fill="#9e9e9e" d="M24.51875 274.26733L23.1125 274.26733L23.1125 265.29858Q22.596874 265.78296 21.76875 266.26733Q20.95625 266.7517 20.3 267.0017L20.3 265.64233Q21.471874 265.07983 22.346874 264.29858Q23.2375 263.5017 23.6125 262.76733L24.51875 262.76733L24.51875 274.26733ZM35.6125 272.90796L35.6125 274.26733L28.034374 274.26733Q28.01875 273.7517 28.20625 273.28296Q28.4875 272.51733 29.128124 271.76733Q29.76875 271.01733 30.971874 270.03296Q32.83125 268.5017 33.4875 267.61108Q34.14375 266.70483 34.14375 265.90796Q34.14375 265.07983 33.55 264.5017Q32.95625 263.92358 31.9875 263.92358Q30.971874 263.92358 30.3625 264.53296Q29.753124 265.14233 29.753124 266.22046L28.3 266.07983Q28.45625 264.45483 29.425 263.61108Q30.39375 262.76733 32.01875 262.76733Q33.675 262.76733 34.628124 263.6892Q35.596874 264.59546 35.596874 265.9392Q35.596874 266.6267 35.315624 267.29858Q35.034374 267.95483 34.378124 268.6892Q33.721874 269.42358 32.20625 270.70483Q30.940624 271.76733 30.58125 272.15796Q30.221874 272.53296 29.9875 272.90796L35.6125 272.90796ZM38.003124 274.26733L38.003124 272.65796L39.6125 272.65796L39.6125 274.26733L38.003124 274.26733ZM41.221874 271.26733L42.690624 271.14233Q42.8625 272.22046 43.45625 272.76733Q44.05 273.29858 44.89375 273.29858Q45.909374 273.29858 46.6125 272.53296Q47.315624 271.76733 47.315624 270.5017Q47.315624 269.29858 46.64375 268.61108Q45.971874 267.90796 44.878124 267.90796Q44.190624 267.90796 43.64375 268.22046Q43.096874 268.53296 42.784374 269.01733L41.471874 268.84546L42.58125 262.97046L48.26875 262.97046L48.26875 264.3142L43.70625 264.3142L43.08125 267.39233Q44.1125 266.67358 45.253124 266.67358Q46.753124 266.67358 47.784374 267.72046Q48.815624 268.7517 48.815624 270.3767Q48.815624 271.9392 47.909374 273.0642Q46.8 274.47046 44.89375 274.47046Q43.33125 274.47046 42.346874 273.59546Q41.3625 272.70483 41.221874 271.26733ZM50.4875 265.5642Q50.4875 264.32983 51.096874 263.47046Q51.721874 262.61108 52.89375 262.61108Q53.971874 262.61108 54.675 263.39233Q55.378124 264.15796 55.378124 265.64233Q55.378124 267.09546 54.659374 267.89233Q53.95625 268.67358 52.909374 268.67358Q51.8625 268.67358 51.175 267.90796Q50.4875 267.1267 50.4875 265.5642ZM52.925 263.57983Q52.409374 263.57983 52.05 264.03296Q51.70625 264.48608 51.70625 265.70483Q51.70625 266.79858 52.05 267.2517Q52.409374 267.70483 52.925 267.70483Q53.45625 267.70483 53.8 267.2517Q54.159374 266.79858 54.159374 265.59546Q54.159374 264.48608 53.8 264.03296Q53.45625 263.57983 52.925 263.57983ZM52.940624 274.6892L59.20625 262.61108L60.346874 262.61108L54.096874 274.6892L52.940624 274.6892ZM57.89375 271.57983Q57.89375 270.34546 58.503124 269.48608Q59.128124 268.6267 60.3 268.6267Q61.378124 268.6267 62.08125 269.40796Q62.8 270.17358 62.8 271.65796Q62.8 273.11108 62.08125 273.90796Q61.3625 274.6892 60.315624 274.6892Q59.26875 274.6892 58.58125 273.90796Q57.89375 273.1267 57.89375 271.57983ZM60.346874 269.59546Q59.815624 269.59546 59.45625 270.04858Q59.1125 270.5017 59.1125 271.72046Q59.1125 272.8142 59.45625 273.26733Q59.815624 273.72046 60.33125 273.72046Q60.878124 273.72046 61.221874 273.26733Q61.565624 272.8142 61.565624 271.61108Q61.565624 270.5017 61.20625 270.04858Q60.8625 269.59546 60.346874 269.59546Z" fill-rule="nonzero"/><path stroke="#757575" stroke-width="1.0" stroke-linecap="butt" d="M18.55 257.76733L145.23334 257.76733L169.42964 257.76733" fill-rule="nonzero"/><path fill="#9e9e9e" d="M171.42964 257.76733C171.42964 256.66278 170.53421 255.76735 169.42964 255.76735C168.32507 255.76735 167.42964 256.66278 167.42964 257.76733C167.42964 258.87192 168.32507 259.76733 169.42964 259.76733C170.53421 259.76733 171.42964 258.87192 171.42964 257.76733" fill-rule="nonzero"/><path fill="#efefef" d="M19.784374 326.45L19.784374 314.9969L24.1125 314.9969Q25.253124 314.9969 25.846874 315.10626Q26.690624 315.2469 27.253124 315.6375Q27.83125 316.02814 28.175 316.7469Q28.534374 317.45 28.534374 318.3094Q28.534374 319.7625 27.596874 320.77814Q26.675 321.79376 24.2375 321.79376L21.3 321.79376L21.3 326.45L19.784374 326.45ZM21.3 320.4344L24.26875 320.4344Q25.7375 320.4344 26.346874 319.8875Q26.971874 319.34064 26.971874 318.35626Q26.971874 317.6375 26.596874 317.1219Q26.2375 316.60626 25.64375 316.45Q25.26875 316.34064 24.2375 316.34064L21.3 316.34064L21.3 320.4344ZM36.284374 323.77814L37.7375 323.95Q37.39375 325.23126 36.45625 325.9344Q35.534374 326.6375 34.096874 326.6375Q32.26875 326.6375 31.20625 325.5125Q30.14375 324.3875 30.14375 322.3719Q30.14375 320.27814 31.221874 319.1219Q32.3 317.96564 34.01875 317.96564Q35.675 317.96564 36.721874 319.10626Q37.784374 320.23126 37.784374 322.27814Q37.784374 322.40314 37.784374 322.65314L31.596874 322.65314Q31.675 324.02814 32.3625 324.7625Q33.065624 325.48126 34.096874 325.48126Q34.878124 325.48126 35.425 325.075Q35.971874 324.66876 36.284374 323.77814ZM31.675 321.4969L36.3 321.4969Q36.20625 320.45 35.76875 319.9344Q35.096874 319.1219 34.034374 319.1219Q33.065624 319.1219 32.39375 319.77814Q31.7375 320.41876 31.675 321.4969ZM39.08125 322.29376Q39.08125 319.9969 40.3625 318.8875Q41.440624 317.96564 42.971874 317.96564Q44.690624 317.96564 45.76875 319.09064Q46.8625 320.2 46.8625 322.1844Q46.8625 323.77814 46.378124 324.7Q45.89375 325.6219 44.971874 326.1375Q44.065624 326.6375 42.971874 326.6375Q41.2375 326.6375 40.159374 325.52814Q39.08125 324.40314 39.08125 322.29376ZM40.534374 322.29376Q40.534374 323.8875 41.221874 324.6844Q41.925 325.48126 42.971874 325.48126Q44.01875 325.48126 44.70625 324.6844Q45.409374 323.8875 45.409374 322.2469Q45.409374 320.71564 44.70625 319.91876Q44.01875 319.1219 42.971874 319.1219Q41.925 319.1219 41.221874 319.91876Q40.534374 320.7 40.534374 322.29376ZM48.6125 329.6375L48.6125 318.15314L49.89375 318.15314L49.89375 319.23126Q50.346874 318.59064 50.909374 318.27814Q51.4875 317.96564 52.3 317.96564Q53.3625 317.96564 54.175 318.5125Q54.9875 319.0594 55.39375 320.0594Q55.815624 321.04376 55.815624 322.23126Q55.815624 323.5125 55.346874 324.52814Q54.89375 325.54376 54.01875 326.09064Q53.159374 326.6375 52.190624 326.6375Q51.4875 326.6375 50.925 326.34064Q50.378124 326.04376 50.01875 325.59064L50.01875 329.6375L48.6125 329.6375ZM49.878124 322.34064Q49.878124 323.95 50.51875 324.71564Q51.175 325.48126 52.096874 325.48126Q53.034374 325.48126 53.70625 324.6844Q54.378124 323.8875 54.378124 322.23126Q54.378124 320.6375 53.721874 319.85626Q53.065624 319.0594 52.159374 319.0594Q51.26875 319.0594 50.565624 319.90314Q49.878124 320.7469 49.878124 322.34064ZM57.58125 326.45L57.58125 314.9969L58.9875 314.9969L58.9875 326.45L57.58125 326.45ZM67.28438 323.77814L68.7375 323.95Q68.39375 325.23126 67.45625 325.9344Q66.53438 326.6375 65.09688 326.6375Q63.26875 326.6375 62.20625 325.5125Q61.14375 324.3875 61.14375 322.3719Q61.14375 320.27814 62.221874 319.1219Q63.3 317.96564 65.01875 317.96564Q66.675 317.96564 67.72188 319.10626Q68.78438 320.23126 68.78438 322.27814Q68.78438 322.40314 68.78438 322.65314L62.596874 322.65314Q62.675 324.02814 63.3625 324.7625Q64.06563 325.48126 65.09688 325.48126Q65.87813 325.48126 66.425 325.075Q66.97188 324.66876 67.28438 323.77814ZM62.675 321.4969L67.3 321.4969Q67.20625 320.45 66.76875 319.9344Q66.09688 319.1219 65.03438 319.1219Q64.06563 319.1219 63.39375 319.77814Q62.7375 320.41876 62.675 321.4969Z" fill-rule="nonzero"/><path fill="#9e9e9e" d="M24.51875 348.45L23.1125 348.45L23.1125 339.48126Q22.596874 339.96564 21.76875 340.45Q20.95625 340.9344 20.3 341.1844L20.3 339.825Q21.471874 339.2625 22.346874 338.48126Q23.2375 337.6844 23.6125 336.95L24.51875 336.95L24.51875 348.45ZM35.6125 347.09064L35.6125 348.45L28.034374 348.45Q28.01875 347.9344 28.20625 347.46564Q28.4875 346.7 29.128124 345.95Q29.76875 345.2 30.971874 344.21564Q32.83125 342.6844 33.4875 341.79376Q34.14375 340.8875 34.14375 340.09064Q34.14375 339.2625 33.55 338.6844Q32.95625 338.10626 31.9875 338.10626Q30.971874 338.10626 30.3625 338.71564Q29.753124 339.325 29.753124 340.40314L28.3 340.2625Q28.45625 338.6375 29.425 337.79376Q30.39375 336.95 32.01875 336.95Q33.675 336.95 34.628124 337.8719Q35.596874 338.77814 35.596874 340.1219Q35.596874 340.8094 35.315624 341.48126Q35.034374 342.1375 34.378124 342.8719Q33.721874 343.60626 32.20625 344.8875Q30.940624 345.95 30.58125 346.34064Q30.221874 346.71564 29.9875 347.09064L35.6125 347.09064ZM38.003124 348.45L38.003124 346.84064L39.6125 346.84064L39.6125 348.45L38.003124 348.45ZM41.221874 345.45L42.690624 345.325Q42.8625 346.40314 43.45625 346.95Q44.05 347.48126 44.89375 347.48126Q45.909374 347.48126 46.6125 346.71564Q47.315624 345.95 47.315624 344.6844Q47.315624 343.48126 46.64375 342.79376Q45.971874 342.09064 44.878124 342.09064Q44.190624 342.09064 43.64375 342.40314Q43.096874 342.71564 42.784374 343.2L41.471874 343.02814L42.58125 337.15314L48.26875 337.15314L48.26875 338.4969L43.70625 338.4969L43.08125 341.575Q44.1125 340.85626 45.253124 340.85626Q46.753124 340.85626 47.784374 341.90314Q48.815624 342.9344 48.815624 344.5594Q48.815624 346.1219 47.909374 347.2469Q46.8 348.65314 44.89375 348.65314Q43.33125 348.65314 42.346874 347.77814Q41.3625 346.8875 41.221874 345.45ZM50.4875 339.7469Q50.4875 338.5125 51.096874 337.65314Q51.721874 336.79376 52.89375 336.79376Q53.971874 336.79376 54.675 337.575Q55.378124 338.34064 55.378124 339.825Q55.378124 341.27814 54.659374 342.075Q53.95625 342.85626 52.909374 342.85626Q51.8625 342.85626 51.175 342.09064Q50.4875 341.3094 50.4875 339.7469ZM52.925 337.7625Q52.409374 337.7625 52.05 338.21564Q51.70625 338.66876 51.70625 339.8875Q51.70625 340.98126 52.05 341.4344Q52.409374 341.8875 52.925 341.8875Q53.45625 341.8875 53.8 341.4344Q54.159374 340.98126 54.159374 339.77814Q54.159374 338.66876 53.8 338.21564Q53.45625 337.7625 52.925 337.7625ZM52.940624 348.8719L59.20625 336.79376L60.346874 336.79376L54.096874 348.8719L52.940624 348.8719ZM57.89375 345.7625Q57.89375 344.52814 58.503124 343.66876Q59.128124 342.8094 60.3 342.8094Q61.378124 342.8094 62.08125 343.59064Q62.8 344.35626 62.8 345.84064Q62.8 347.29376 62.08125 348.09064Q61.3625 348.8719 60.315624 348.8719Q59.26875 348.8719 58.58125 348.09064Q57.89375 347.3094 57.89375 345.7625ZM60.346874 343.77814Q59.815624 343.77814 59.45625 344.23126Q59.1125 344.6844 59.1125 345.90314Q59.1125 346.9969 59.45625 347.45Q59.815624 347.90314 60.33125 347.90314Q60.878124 347.90314 61.221874 347.45Q61.565624 346.9969 61.565624 345.79376Q61.565624 344.6844 61.20625 344.23126Q60.8625 343.77814 60.346874 343.77814Z" fill-rule="nonzero"/><path stroke="#757575" stroke-width="1.0" stroke-linecap="butt" d="M18.55 331.95L145.23334 331.95L245.91599 334.2537" fill-rule="nonzero"/><path fill="#9e9e9e" d="M247.91599 334.2537C247.91599 333.1491 247.02055 332.2537 245.91599 332.2537C244.81142 332.2537 243.91599 333.1491 243.91599 334.2537C243.91599 335.35825 244.81142 336.2537 245.91599 336.2537C247.02055 336.2537 247.91599 335.35825 247.91599 334.2537" fill-rule="nonzero"/><path fill="#efefef" d="M498.6844 69.916664L498.6844 58.46354L503.0125 58.46354Q504.15314 58.46354 504.7469 58.572914Q505.59064 58.71354 506.15314 59.104164Q506.73126 59.49479 507.075 60.21354Q507.4344 60.916664 507.4344 61.77604Q507.4344 63.229164 506.4969 64.24479Q505.575 65.260414 503.1375 65.260414L500.2 65.260414L500.2 69.916664L498.6844 69.916664ZM500.2 63.90104L503.16876 63.90104Q504.6375 63.90104 505.2469 63.354164Q505.8719 62.80729 505.8719 61.822914Q505.8719 61.104164 505.4969 60.58854Q505.1375 60.072914 504.54376 59.916664Q504.16876 59.80729 503.1375 59.80729L500.2 59.80729L500.2 63.90104ZM515.1844 67.24479L516.6375 67.416664Q516.29376 68.697914 515.35626 69.40104Q514.4344 70.104164 512.9969 70.104164Q511.16876 70.104164 510.10626 68.979164Q509.04376 67.854164 509.04376 65.83854Q509.04376 63.74479 510.1219 62.58854Q511.2 61.43229 512.91876 61.43229Q514.575 61.43229 515.6219 62.572914Q516.6844 63.697914 516.6844 65.74479Q516.6844 65.86979 516.6844 66.11979L510.4969 66.11979Q510.575 67.49479 511.2625 68.229164Q511.96564 68.947914 512.9969 68.947914Q513.77814 68.947914 514.325 68.541664Q514.8719 68.135414 515.1844 67.24479ZM510.575 64.96354L515.2 64.96354Q515.10626 63.916664 514.66876 63.40104Q513.9969 62.58854 512.9344 62.58854Q511.96564 62.58854 511.29376 63.24479Q510.6375 63.885414 510.575 64.96354ZM518.4969 69.916664L518.4969 61.61979L519.7625 61.61979L519.7625 62.86979Q520.2469 61.99479 520.65314 61.71354Q521.0594 61.43229 521.5594 61.43229Q522.2625 61.43229 522.9969 61.885414L522.5125 63.18229Q521.9969 62.885414 521.48126 62.885414Q521.02814 62.885414 520.65314 63.166664Q520.29376 63.43229 520.1375 63.93229Q519.90314 64.68229 519.90314 65.572914L519.90314 69.916664L518.4969 69.916664ZM522.95 67.43229L524.34064 67.21354Q524.45 68.05729 524.98126 68.510414Q525.52814 68.947914 526.48126 68.947914Q527.45 68.947914 527.91876 68.55729Q528.3875 68.15104 528.3875 67.61979Q528.3875 67.15104 527.98126 66.86979Q527.6844 66.68229 526.54376 66.40104Q524.9969 66.010414 524.3875 65.729164Q523.79376 65.43229 523.48126 64.93229Q523.1844 64.43229 523.1844 63.822914Q523.1844 63.260414 523.4344 62.791664Q523.6844 62.322914 524.1219 62.010414Q524.45 61.760414 525.0125 61.604164Q525.59064 61.43229 526.23126 61.43229Q527.21564 61.43229 527.95 61.71354Q528.6844 61.99479 529.02814 62.479164Q529.3875 62.947914 529.52814 63.760414L528.15314 63.947914Q528.0594 63.30729 527.60626 62.947914Q527.15314 62.58854 526.34064 62.58854Q525.3719 62.58854 524.95 62.916664Q524.54376 63.229164 524.54376 63.65104Q524.54376 63.93229 524.71564 64.15104Q524.8875 64.36979 525.2469 64.52604Q525.46564 64.604164 526.4969 64.885414Q527.98126 65.27604 528.575 65.541664Q529.16876 65.791664 529.4969 66.27604Q529.84064 66.760414 529.84064 67.479164Q529.84064 68.18229 529.41876 68.80729Q529.0125 69.416664 528.23126 69.760414Q527.46564 70.104164 526.4969 70.104164Q524.8719 70.104164 524.02814 69.43229Q523.1844 68.760414 522.95 67.43229ZM531.5125 73.104164L531.5125 61.61979L532.79376 61.61979L532.79376 62.697914Q533.2469 62.05729 533.8094 61.74479Q534.3875 61.43229 535.2 61.43229Q536.2625 61.43229 537.075 61.979164Q537.8875 62.52604 538.29376 63.52604Q538.71564 64.510414 538.71564 65.697914Q538.71564 66.979164 538.2469 67.99479Q537.79376 69.010414 536.91876 69.55729Q536.0594 70.104164 535.09064 70.104164Q534.3875 70.104164 533.825 69.80729Q533.27814 69.510414 532.91876 69.05729L532.91876 73.104164L531.5125 73.104164ZM532.77814 65.80729Q532.77814 67.416664 533.41876 68.18229Q534.075 68.947914 534.9969 68.947914Q535.9344 68.947914 536.60626 68.15104Q537.27814 67.354164 537.27814 65.697914Q537.27814 64.104164 536.6219 63.322914Q535.96564 62.52604 535.0594 62.52604Q534.16876 62.52604 533.46564 63.36979Q532.77814 64.21354 532.77814 65.80729ZM546.1844 67.24479L547.6375 67.416664Q547.29376 68.697914 546.35626 69.40104Q545.4344 70.104164 543.9969 70.104164Q542.16876 70.104164 541.10626 68.979164Q540.04376 67.854164 540.04376 65.83854Q540.04376 63.74479 541.1219 62.58854Q542.2 61.43229 543.91876 61.43229Q545.575 61.43229 546.6219 62.572914Q547.6844 63.697914 547.6844 65.74479Q547.6844 65.86979 547.6844 66.11979L541.4969 66.11979Q541.575 67.49479 542.2625 68.229164Q542.96564 68.947914 543.9969 68.947914Q544.77814 68.947914 545.325 68.541664Q545.8719 68.135414 546.1844 67.24479ZM541.575 64.96354L546.2 64.96354Q546.10626 63.916664 545.66876 63.40104Q544.9969 62.58854 543.9344 62.58854Q542.96564 62.58854 542.29376 63.24479Q541.6375 63.885414 541.575 64.96354ZM554.91876 66.86979L556.3094 67.05729Q556.075 68.479164 555.1375 69.291664Q554.21564 70.104164 552.85626 70.104164Q551.15314 70.104164 550.10626 68.99479Q549.075 67.86979 549.075 65.791664Q549.075 64.447914 549.5125 63.447914Q549.96564 62.43229 550.8719 61.93229Q551.79376 61.43229 552.85626 61.43229Q554.21564 61.43229 555.075 62.11979Q555.9344 62.791664 556.16876 64.05729L554.8094 64.260414Q554.60626 63.43229 554.10626 63.010414Q553.6219 62.58854 552.91876 62.58854Q551.85626 62.58854 551.1844 63.354164Q550.52814 64.104164 550.52814 65.760414Q550.52814 67.43229 551.16876 68.197914Q551.8094 68.947914 552.84064 68.947914Q553.66876 68.947914 554.21564 68.447914Q554.77814 67.93229 554.91876 66.86979ZM560.575 68.65104L560.77814 69.90104Q560.1844 70.02604 559.71564 70.02604Q558.95 70.02604 558.52814 69.791664Q558.10626 69.541664 557.9344 69.15104Q557.7625 68.74479 557.7625 67.479164L557.7625 62.71354L556.73126 62.71354L556.73126 61.61979L557.7625 61.61979L557.7625 59.55729L559.16876 58.71354L559.16876 61.61979L560.575 61.61979L560.575 62.71354L559.16876 62.71354L559.16876 67.55729Q559.16876 68.166664 559.23126 68.33854Q559.3094 68.510414 559.48126 68.61979Q559.65314 68.71354 559.96564 68.71354Q560.2 68.71354 560.575 68.65104ZM561.5125 60.072914L561.5125 58.46354L562.91876 58.46354L562.91876 60.072914L561.5125 60.072914ZM561.5125 69.916664L561.5125 61.61979L562.91876 61.61979L562.91876 69.916664L561.5125 69.916664ZM567.8094 69.916664L564.65314 61.61979L566.1375 61.61979L567.91876 66.58854Q568.21564 67.385414 568.45 68.260414Q568.6375 67.604164 568.98126 66.68229L570.825 61.61979L572.2625 61.61979L569.1219 69.916664L567.8094 69.916664ZM579.1844 67.24479L580.6375 67.416664Q580.29376 68.697914 579.35626 69.40104Q578.4344 70.104164 576.9969 70.104164Q575.16876 70.104164 574.10626 68.979164Q573.04376 67.854164 573.04376 65.83854Q573.04376 63.74479 574.1219 62.58854Q575.2 61.43229 576.91876 61.43229Q578.575 61.43229 579.6219 62.572914Q580.6844 63.697914 580.6844 65.74479Q580.6844 65.86979 580.6844 66.11979L574.4969 66.11979Q574.575 67.49479 575.2625 68.229164Q575.96564 68.947914 576.9969 68.947914Q577.77814 68.947914 578.325 68.541664Q578.8719 68.135414 579.1844 67.24479ZM574.575 64.96354L579.2 64.96354Q579.10626 63.916664 578.66876 63.40104Q577.9969 62.58854 576.9344 62.58854Q575.96564 62.58854 575.29376 63.24479Q574.6375 63.885414 574.575 64.96354Z" fill-rule="nonzero"/><path fill="#9e9e9e" d="M542.41876 91.916664L541.0125 91.916664L541.0125 82.947914Q540.4969 83.43229 539.66876 83.916664Q538.85626 84.40104 538.2 84.65104L538.2 83.291664Q539.3719 82.729164 540.2469 81.947914Q541.1375 81.15104 541.5125 80.416664L542.41876 80.416664L542.41876 91.916664ZM553.5125 90.55729L553.5125 91.916664L545.9344 91.916664Q545.91876 91.40104 546.10626 90.93229Q546.3875 90.166664 547.02814 89.416664Q547.66876 88.666664 548.8719 87.68229Q550.73126 86.15104 551.3875 85.260414Q552.04376 84.354164 552.04376 83.55729Q552.04376 82.729164 551.45 82.15104Q550.85626 81.572914 549.8875 81.572914Q548.8719 81.572914 548.2625 82.18229Q547.65314 82.791664 547.65314 83.86979L546.2 83.729164Q546.35626 82.104164 547.325 81.260414Q548.29376 80.416664 549.91876 80.416664Q551.575 80.416664 552.52814 81.33854Q553.4969 82.24479 553.4969 83.58854Q553.4969 84.27604 553.21564 84.947914Q552.9344 85.604164 552.27814 86.33854Q551.6219 87.072914 550.10626 88.354164Q548.84064 89.416664 548.48126 89.80729Q548.1219 90.18229 547.8875 90.55729L553.5125 90.55729ZM555.90314 91.916664L555.90314 90.30729L557.5125 90.30729L557.5125 91.916664L555.90314 91.916664ZM559.1219 88.916664L560.59064 88.791664Q560.7625 89.86979 561.35626 90.416664Q561.95 90.947914 562.79376 90.947914Q563.8094 90.947914 564.5125 90.18229Q565.21564 89.416664 565.21564 88.15104Q565.21564 86.947914 564.54376 86.260414Q563.8719 85.55729 562.77814 85.55729Q562.09064 85.55729 561.54376 85.86979Q560.9969 86.18229 560.6844 86.666664L559.3719 86.49479L560.48126 80.61979L566.16876 80.61979L566.16876 81.96354L561.60626 81.96354L560.98126 85.041664Q562.0125 84.322914 563.15314 84.322914Q564.65314 84.322914 565.6844 85.36979Q566.71564 86.40104 566.71564 88.02604Q566.71564 89.58854 565.8094 90.71354Q564.7 92.11979 562.79376 92.11979Q561.23126 92.11979 560.2469 91.24479Q559.2625 90.354164 559.1219 88.916664ZM568.3875 83.21354Q568.3875 81.979164 568.9969 81.11979Q569.6219 80.260414 570.79376 80.260414Q571.8719 80.260414 572.575 81.041664Q573.27814 81.80729 573.27814 83.291664Q573.27814 84.74479 572.5594 85.541664Q571.85626 86.322914 570.8094 86.322914Q569.7625 86.322914 569.075 85.55729Q568.3875 84.77604 568.3875 83.21354ZM570.825 81.229164Q570.3094 81.229164 569.95 81.68229Q569.60626 82.135414 569.60626 83.354164Q569.60626 84.447914 569.95 84.90104Q570.3094 85.354164 570.825 85.354164Q571.35626 85.354164 571.7 84.90104Q572.0594 84.447914 572.0594 83.24479Q572.0594 82.135414 571.7 81.68229Q571.35626 81.229164 570.825 81.229164ZM570.84064 92.33854L577.10626 80.260414L578.2469 80.260414L571.9969 92.33854L570.84064 92.33854ZM575.79376 89.229164Q575.79376 87.99479 576.40314 87.135414Q577.02814 86.27604 578.2 86.27604Q579.27814 86.27604 579.98126 87.05729Q580.7 87.822914 580.7 89.30729Q580.7 90.760414 579.98126 91.55729Q579.2625 92.33854 578.21564 92.33854Q577.16876 92.33854 576.48126 91.55729Q575.79376 90.77604 575.79376 89.229164ZM578.2469 87.24479Q577.71564 87.24479 577.35626 87.697914Q577.0125 88.15104 577.0125 89.36979Q577.0125 90.46354 577.35626 90.916664Q577.71564 91.36979 578.23126 91.36979Q578.77814 91.36979 579.1219 90.916664Q579.46564 90.46354 579.46564 89.260414Q579.46564 88.15104 579.10626 87.697914Q578.7625 87.24479 578.2469 87.24479Z" fill-rule="nonzero"/><path stroke="#757575" stroke-width="1.0" stroke-linecap="butt" d="M581.45 75.416664L454.76666 75.416664L354.084 73.112976" fill-rule="nonzero"/><path fill="#9e9e9e" d="M356.084 73.112976C356.084 72.00841 355.18857 71.112976 354.084 71.112976C352.97943 71.112976 352.084 72.00841 352.084 73.112976C352.084 74.217545 352.97943 75.112976 354.084 75.112976C355.18857 75.112976 356.084 74.217545 356.084 73.112976" fill-rule="nonzero"/><path fill="#efefef" d="M532.6844 252.26735L532.6844 240.81422L536.6375 240.81422Q537.96564 240.81422 538.66876 240.97047Q539.65314 241.20485 540.35626 241.7986Q541.2625 242.56422 541.7 243.75172Q542.15314 244.93922 542.15314 246.47047Q542.15314 247.78297 541.84064 248.7986Q541.54376 249.7986 541.0594 250.45485Q540.59064 251.1111 540.02814 251.50172Q539.46564 251.87672 538.65314 252.07985Q537.85626 252.26735 536.825 252.26735L532.6844 252.26735ZM534.2 250.90797L536.65314 250.90797Q537.77814 250.90797 538.41876 250.70485Q539.075 250.4861 539.45 250.1111Q539.9969 249.56422 540.29376 248.65797Q540.59064 247.75172 540.59064 246.45485Q540.59064 244.65797 539.9969 243.68922Q539.41876 242.72047 538.575 242.39235Q537.96564 242.15797 536.60626 242.15797L534.2 242.15797L534.2 250.90797ZM550.1844 249.59547L551.6375 249.76735Q551.29376 251.0486 550.35626 251.75172Q549.4344 252.45485 547.9969 252.45485Q546.16876 252.45485 545.10626 251.32985Q544.04376 250.20485 544.04376 248.18922Q544.04376 246.09547 545.1219 244.93922Q546.2 243.78297 547.91876 243.78297Q549.575 243.78297 550.6219 244.9236Q551.6844 246.0486 551.6844 248.09547Q551.6844 248.22047 551.6844 248.47047L545.4969 248.47047Q545.575 249.84547 546.2625 250.57985Q546.96564 251.2986 547.9969 251.2986Q548.77814 251.2986 549.325 250.89235Q549.8719 250.4861 550.1844 249.59547ZM545.575 247.31422L550.2 247.31422Q550.10626 246.26735 549.66876 245.75172Q548.9969 244.93922 547.9344 244.93922Q546.96564 244.93922 546.29376 245.59547Q545.6375 246.2361 545.575 247.31422ZM556.575 251.00172L556.77814 252.25172Q556.1844 252.37672 555.71564 252.37672Q554.95 252.37672 554.52814 252.14235Q554.10626 251.89235 553.9344 251.50172Q553.7625 251.09547 553.7625 249.82985L553.7625 245.06422L552.73126 245.06422L552.73126 243.97047L553.7625 243.97047L553.7625 241.90797L555.16876 241.06422L555.16876 243.97047L556.575 243.97047L556.575 245.06422L555.16876 245.06422L555.16876 249.90797Q555.16876 250.51735 555.23126 250.68922Q555.3094 250.8611 555.48126 250.97047Q555.65314 251.06422 555.96564 251.06422Q556.2 251.06422 556.575 251.00172ZM562.91876 251.2361Q562.1375 251.90797 561.41876 252.18922Q560.7 252.45485 559.8719 252.45485Q558.4969 252.45485 557.7625 251.78297Q557.02814 251.1111 557.02814 250.07985Q557.02814 249.47047 557.3094 248.97047Q557.59064 248.45485 558.02814 248.15797Q558.48126 247.84547 559.04376 247.68922Q559.46564 247.57985 560.29376 247.4861Q561.9969 247.28297 562.8094 247.00172Q562.8094 246.70485 562.8094 246.62672Q562.8094 245.76735 562.41876 245.4236Q561.8719 244.93922 560.8094 244.93922Q559.825 244.93922 559.34064 245.2986Q558.8719 245.64235 558.65314 246.51735L557.27814 246.32985Q557.46564 245.45485 557.8875 244.90797Q558.325 244.3611 559.1375 244.07985Q559.95 243.78297 561.0125 243.78297Q562.075 243.78297 562.73126 244.03297Q563.40314 244.28297 563.71564 244.65797Q564.02814 245.03297 564.15314 245.6111Q564.23126 245.97047 564.23126 246.90797L564.23126 248.78297Q564.23126 250.75172 564.3094 251.26735Q564.40314 251.78297 564.66876 252.26735L563.2 252.26735Q562.98126 251.82985 562.91876 251.2361ZM562.8094 248.09547Q562.04376 248.40797 560.5125 248.62672Q559.6375 248.75172 559.27814 248.90797Q558.91876 249.06422 558.71564 249.37672Q558.52814 249.6736 558.52814 250.03297Q558.52814 250.59547 558.95 250.97047Q559.3875 251.34547 560.2 251.34547Q561.0125 251.34547 561.6375 251.00172Q562.27814 250.64235 562.575 250.01735Q562.8094 249.5486 562.8094 248.6111L562.8094 248.09547ZM566.5125 242.4236L566.5125 240.81422L567.91876 240.81422L567.91876 242.4236L566.5125 242.4236ZM566.5125 252.26735L566.5125 243.97047L567.91876 243.97047L567.91876 252.26735L566.5125 252.26735ZM570.48126 252.26735L570.48126 240.81422L571.8875 240.81422L571.8875 252.26735L570.48126 252.26735ZM573.95 249.78297L575.34064 249.56422Q575.45 250.40797 575.98126 250.8611Q576.52814 251.2986 577.48126 251.2986Q578.45 251.2986 578.91876 250.90797Q579.3875 250.50172 579.3875 249.97047Q579.3875 249.50172 578.98126 249.22047Q578.6844 249.03297 577.54376 248.75172Q575.9969 248.3611 575.3875 248.07985Q574.79376 247.78297 574.48126 247.28297Q574.1844 246.78297 574.1844 246.1736Q574.1844 245.6111 574.4344 245.14235Q574.6844 244.6736 575.1219 244.3611Q575.45 244.1111 576.0125 243.95485Q576.59064 243.78297 577.23126 243.78297Q578.21564 243.78297 578.95 244.06422Q579.6844 244.34547 580.02814 244.82985Q580.3875 245.2986 580.52814 246.1111L579.15314 246.2986Q579.0594 245.65797 578.60626 245.2986Q578.15314 244.93922 577.34064 244.93922Q576.3719 244.93922 575.95 245.26735Q575.54376 245.57985 575.54376 246.00172Q575.54376 246.28297 575.71564 246.50172Q575.8875 246.72047 576.2469 246.87672Q576.46564 246.95485 577.4969 247.2361Q578.98126 247.62672 579.575 247.89235Q580.16876 248.14235 580.4969 248.62672Q580.84064 249.1111 580.84064 249.82985Q580.84064 250.53297 580.41876 251.15797Q580.0125 251.76735 579.23126 252.1111Q578.46564 252.45485 577.4969 252.45485Q575.8719 252.45485 575.02814 251.78297Q574.1844 251.1111 573.95 249.78297Z" fill-rule="nonzero"/><path fill="#9e9e9e" d="M537.1219 271.23608L538.52814 271.04858Q538.77814 272.2517 539.35626 272.78296Q539.9344 273.29858 540.77814 273.29858Q541.7625 273.29858 542.45 272.61108Q543.1375 271.92358 543.1375 270.90796Q543.1375 269.9392 542.4969 269.3142Q541.8719 268.6892 540.8875 268.6892Q540.4969 268.6892 539.90314 268.84546L540.0594 267.61108Q540.2 267.6267 540.27814 267.6267Q541.1844 267.6267 541.90314 267.15796Q542.6219 266.6892 542.6219 265.70483Q542.6219 264.9392 542.09064 264.4392Q541.575 263.92358 540.7469 263.92358Q539.91876 263.92358 539.3719 264.4392Q538.825 264.95483 538.66876 265.98608L537.2625 265.73608Q537.52814 264.3142 538.4344 263.54858Q539.35626 262.76733 540.71564 262.76733Q541.65314 262.76733 542.4344 263.17358Q543.23126 263.5642 543.6375 264.26733Q544.0594 264.95483 544.0594 265.73608Q544.0594 266.48608 543.65314 267.09546Q543.2625 267.70483 542.48126 268.0642Q543.4969 268.29858 544.0594 269.03296Q544.6219 269.76733 544.6219 270.8767Q544.6219 272.3767 543.52814 273.42358Q542.4344 274.47046 540.7625 274.47046Q539.2625 274.47046 538.2625 273.57983Q537.2625 272.67358 537.1219 271.23608ZM546.21564 264.3142L546.21564 262.95483L553.6219 262.95483L553.6219 264.04858Q552.52814 265.22046 551.45 267.15796Q550.3875 269.07983 549.79376 271.11108Q549.3719 272.54858 549.2625 274.26733L547.8094 274.26733Q547.84064 272.90796 548.34064 271.0017Q548.85626 269.07983 549.79376 267.3142Q550.7469 265.53296 551.825 264.3142L546.21564 264.3142ZM555.90314 274.26733L555.90314 272.65796L557.5125 272.65796L557.5125 274.26733L555.90314 274.26733ZM559.1219 271.26733L560.59064 271.14233Q560.7625 272.22046 561.35626 272.76733Q561.95 273.29858 562.79376 273.29858Q563.8094 273.29858 564.5125 272.53296Q565.21564 271.76733 565.21564 270.5017Q565.21564 269.29858 564.54376 268.61108Q563.8719 267.90796 562.77814 267.90796Q562.09064 267.90796 561.54376 268.22046Q560.9969 268.53296 560.6844 269.01733L559.3719 268.84546L560.48126 262.97046L566.16876 262.97046L566.16876 264.3142L561.60626 264.3142L560.98126 267.39233Q562.0125 266.67358 563.15314 266.67358Q564.65314 266.67358 565.6844 267.72046Q566.71564 268.7517 566.71564 270.3767Q566.71564 271.9392 565.8094 273.0642Q564.7 274.47046 562.79376 274.47046Q561.23126 274.47046 560.2469 273.59546Q559.2625 272.70483 559.1219 271.26733ZM568.3875 265.5642Q568.3875 264.32983 568.9969 263.47046Q569.6219 262.61108 570.79376 262.61108Q571.8719 262.61108 572.575 263.39233Q573.27814 264.15796 573.27814 265.64233Q573.27814 267.09546 572.5594 267.89233Q571.85626 268.67358 570.8094 268.67358Q569.7625 268.67358 569.075 267.90796Q568.3875 267.1267 568.3875 265.5642ZM570.825 263.57983Q570.3094 263.57983 569.95 264.03296Q569.60626 264.48608 569.60626 265.70483Q569.60626 266.79858 569.95 267.2517Q570.3094 267.70483 570.825 267.70483Q571.35626 267.70483 571.7 267.2517Q572.0594 266.79858 572.0594 265.59546Q572.0594 264.48608 571.7 264.03296Q571.35626 263.57983 570.825 263.57983ZM570.84064 274.6892L577.10626 262.61108L578.2469 262.61108L571.9969 274.6892L570.84064 274.6892ZM575.79376 271.57983Q575.79376 270.34546 576.40314 269.48608Q577.02814 268.6267 578.2 268.6267Q579.27814 268.6267 579.98126 269.40796Q580.7 270.17358 580.7 271.65796Q580.7 273.11108 579.98126 273.90796Q579.2625 274.6892 578.21564 274.6892Q577.16876 274.6892 576.48126 273.90796Q575.79376 273.1267 575.79376 271.57983ZM578.2469 269.59546Q577.71564 269.59546 577.35626 270.04858Q577.0125 270.5017 577.0125 271.72046Q577.0125 272.8142 577.35626 273.26733Q577.71564 273.72046 578.23126 273.72046Q578.77814 273.72046 579.1219 273.26733Q579.46564 272.8142 579.46564 271.61108Q579.46564 270.5017 579.10626 270.04858Q578.7625 269.59546 578.2469 269.59546Z" fill-rule="nonzero"/><path stroke="#757575" stroke-width="1.0" stroke-linecap="butt" d="M581.45 257.76733L454.76666 257.76733L430.57034 257.76733" fill-rule="nonzero"/><path fill="#9e9e9e" d="M432.57034 257.76733C432.57034 256.66278 431.67493 255.76735 430.57034 255.76735C429.4658 255.76735 428.57034 256.66278 428.57034 257.76733C428.57034 258.87192 429.4658 259.76733 430.57034 259.76733C431.67493 259.76733 432.57034 258.87192 432.57034 257.76733" fill-rule="nonzero"/><path fill="#f3f3f3" d="M265.98438 37.55L265.98438 23.2375L268.84375 23.2375L272.21875 33.3625Q272.6875 34.784374 272.90625 35.4875Q273.15625 34.70625 273.67188 33.190624L277.09375 23.2375L279.64062 23.2375L279.64062 37.55L277.82812 37.55L277.82812 25.565624L273.65625 37.55L271.95312 37.55L267.8125 25.3625L267.8125 37.55L265.98438 37.55ZM289.92188 34.20625L291.73438 34.440624Q291.3125 36.01875 290.14062 36.909374Q288.98438 37.784374 287.17188 37.784374Q284.90625 37.784374 283.5625 36.39375Q282.23438 34.9875 282.23438 32.45625Q282.23438 29.83125 283.57812 28.39375Q284.92188 26.940624 287.07812 26.940624Q289.15625 26.940624 290.46875 28.3625Q291.79688 29.76875 291.79688 32.346874Q291.79688 32.503124 291.78125 32.815624L284.04688 32.815624Q284.14062 34.51875 285.01562 35.425Q285.89062 36.33125 287.1875 36.33125Q288.15625 36.33125 288.82812 35.83125Q289.51562 35.315624 289.92188 34.20625ZM284.14062 31.3625L289.9375 31.3625Q289.82812 30.065624 289.28125 29.409374Q288.4375 28.39375 287.09375 28.39375Q285.89062 28.39375 285.0625 29.20625Q284.23438 30.003124 284.14062 31.3625ZM300.54688 37.55L300.54688 36.2375Q299.5625 37.784374 297.64062 37.784374Q296.40625 37.784374 295.35938 37.096874Q294.32812 36.409374 293.75 35.190624Q293.1875 33.971874 293.1875 32.378124Q293.1875 30.815624 293.70312 29.55Q294.21875 28.284374 295.25 27.6125Q296.29688 26.940624 297.5625 26.940624Q298.5 26.940624 299.23438 27.346874Q299.96875 27.7375 300.4375 28.3625L300.4375 23.2375L302.17188 23.2375L302.17188 37.55L300.54688 37.55ZM294.98438 32.378124Q294.98438 34.3625 295.82812 35.346874Q296.67188 36.33125 297.8125 36.33125Q298.96875 36.33125 299.76562 35.39375Q300.57812 34.45625 300.57812 32.51875Q300.57812 30.39375 299.75 29.39375Q298.9375 28.39375 297.73438 28.39375Q296.5625 28.39375 295.76562 29.3625Q294.98438 30.315624 294.98438 32.378124ZM304.82812 25.253124L304.82812 23.2375L306.59375 23.2375L306.59375 25.253124L304.82812 25.253124ZM304.82812 37.55L304.82812 27.175L306.59375 27.175L306.59375 37.55L304.82812 37.55ZM315.60938 37.55L315.60938 36.01875Q314.40625 37.784374 312.32812 37.784374Q311.40625 37.784374 310.60938 37.440624Q309.8125 37.08125 309.42188 36.55Q309.04688 36.01875 308.89062 35.2375Q308.78125 34.721874 308.78125 33.596874L308.78125 27.175L310.53125 27.175L310.53125 32.925Q310.53125 34.3 310.64062 34.784374Q310.8125 35.471874 311.34375 35.878124Q311.89062 36.26875 312.67188 36.26875Q313.46875 36.26875 314.15625 35.8625Q314.85938 35.45625 315.14062 34.76875Q315.4375 34.065624 315.4375 32.7375L315.4375 27.175L317.1875 27.175L317.1875 37.55L315.60938 37.55ZM319.8125 37.55L319.8125 27.175L321.39062 27.175L321.39062 28.628124Q321.875 27.878124 322.6875 27.409374Q323.5 26.940624 324.53125 26.940624Q325.6875 26.940624 326.42188 27.425Q327.15625 27.89375 327.46875 28.753124Q328.70312 26.940624 330.67188 26.940624Q332.21875 26.940624 333.04688 27.8Q333.875 28.659374 333.875 30.425L333.875 37.55L332.125 37.55L332.125 31.01875Q332.125 29.95625 331.95312 29.503124Q331.78125 29.034374 331.32812 28.753124Q330.89062 28.471874 330.28125 28.471874Q329.1875 28.471874 328.45312 29.20625Q327.73438 29.925 327.73438 31.51875L327.73438 37.55L325.98438 37.55L325.98438 30.815624Q325.98438 29.64375 325.54688 29.065624Q325.125 28.471874 324.14062 28.471874Q323.40625 28.471874 322.76562 28.8625Q322.14062 29.253124 321.85938 30.003124Q321.57812 30.753124 321.57812 32.175L321.57812 37.55L319.8125 37.55Z" fill-rule="nonzero"/></svg>