<svg version="1.1" viewBox="0.0 0.0 600.0 371.0" fill="none" stroke="none" stroke-linecap="square" stroke-miterlimit="10" width="600" height="371" xmlns:xlink="http://www.w3.org/1999/xlink" xmlns="http://www.w3.org/2000/svg"><path fill="#ffffff" fill-opacity="0.0" d="M0 0L600.0 0L600.0 371.0L0 371.0L0 0Z" fill-rule="nonzero"/><path fill="#f7d750" d="M300.0 54.916668C353.1492 54.916668 402.2611 83.27143 428.83572 129.3C455.4103 175.32857 455.4103 232.0381 428.83572 278.06668L364.41785 240.875C377.70517 217.86072 377.70517 189.50595 364.41785 166.49167C351.13055 143.47739 326.57462 129.3 300.0 129.3Z" fill-rule="nonzero"/><path fill="#8c4595" d="M225.61667 74.84762C248.23206 61.79062 273.886 54.916668 300.0 54.916668L300.0 129.3C286.943 129.3 274.11603 132.73697 262.80832 139.26547Z" fill-rule="nonzero"/><path fill="#78a94e" d="M171.16429 129.3C184.22128 106.68461 203.00128 87.904625 225.61667 74.84762L262.80832 139.26547C251.50064 145.79398 242.11064 155.18398 235.58214 166.49167Z" fill-rule="nonzero"/><path fill="#4571b0" d="M261.49637 347.3809C216.82225 335.41052 180.25664 303.34332 162.55753 260.61386C144.8584 217.88441 148.03928 169.3537 171.16429 129.3L235.58214 166.49167C224.01964 186.51852 222.4292 210.78387 231.27876 232.1486C240.12833 253.51334 258.41113 269.54694 280.74817 275.5321Z" fill-rule="nonzero"/><path fill="#f5ee58" d="M428.83572 278.06668C395.1694 336.37845 326.5347 364.80786 261.49637 347.3809L280.74817 275.5321C313.26733 284.2456 347.5847 270.03088 364.41785 240.875Z" fill-rule="nonzero"/><path fill="#ffffff" d="M371.87677 150.98958L373.47052 150.78645Q373.73615 152.1302 374.3924 152.72395Q375.04865 153.3177 375.98615 153.3177Q377.11115 153.3177 377.87677 152.55208Q378.6424 151.77083 378.6424 150.6302Q378.6424 149.53645 377.92365 148.83333Q377.22052 148.11458 376.12677 148.11458Q375.67365 148.11458 375.00177 148.30208L375.17365 146.91145Q375.3299 146.92708 375.43927 146.92708Q376.43927 146.92708 377.25177 146.39583Q378.06427 145.86458 378.06427 144.77083Q378.06427 143.89583 377.47052 143.33333Q376.87677 142.7552 375.9549 142.7552Q375.03302 142.7552 374.40802 143.33333Q373.79865 143.91145 373.62677 145.08333L372.04865 144.80208Q372.3299 143.20833 373.36115 142.33333Q374.3924 141.45833 375.92365 141.45833Q376.97052 141.45833 377.86115 141.91145Q378.75177 142.36458 379.22052 143.14583Q379.68927 143.92708 379.68927 144.80208Q379.68927 145.64583 379.23615 146.33333Q378.79865 147.0052 377.90802 147.41145Q379.04865 147.67708 379.67365 148.52083Q380.31427 149.34895 380.31427 150.58333Q380.31427 152.27083 379.0799 153.45833Q377.86115 154.6302 375.98615 154.6302Q374.28302 154.6302 373.15802 153.61458Q372.04865 152.59895 371.87677 150.98958ZM381.87677 150.98958L383.47052 150.78645Q383.73615 152.1302 384.3924 152.72395Q385.04865 153.3177 385.98615 153.3177Q387.11115 153.3177 387.87677 152.55208Q388.6424 151.77083 388.6424 150.6302Q388.6424 149.53645 387.92365 148.83333Q387.22052 148.11458 386.12677 148.11458Q385.67365 148.11458 385.00177 148.30208L385.17365 146.91145Q385.3299 146.92708 385.43927 146.92708Q386.43927 146.92708 387.25177 146.39583Q388.06427 145.86458 388.06427 144.77083Q388.06427 143.89583 387.47052 143.33333Q386.87677 142.7552 385.9549 142.7552Q385.03302 142.7552 384.40802 143.33333Q383.79865 143.91145 383.62677 145.08333L382.04865 144.80208Q382.3299 143.20833 383.36115 142.33333Q384.3924 141.45833 385.92365 141.45833Q386.97052 141.45833 387.86115 141.91145Q388.75177 142.36458 389.22052 143.14583Q389.68927 143.92708 389.68927 144.80208Q389.68927 145.64583 389.23615 146.33333Q388.79865 147.0052 387.90802 147.41145Q389.04865 147.67708 389.67365 148.52083Q390.31427 149.34895 390.31427 150.58333Q390.31427 152.27083 389.0799 153.45833Q387.86115 154.6302 385.98615 154.6302Q384.28302 154.6302 383.15802 153.61458Q382.04865 152.59895 381.87677 150.98958ZM392.7674 154.39583L392.7674 152.59895L394.56427 152.59895L394.56427 154.39583L392.7674 154.39583ZM396.87677 150.98958L398.47052 150.78645Q398.73615 152.1302 399.3924 152.72395Q400.04865 153.3177 400.98615 153.3177Q402.11115 153.3177 402.87677 152.55208Q403.6424 151.77083 403.6424 150.6302Q403.6424 149.53645 402.92365 148.83333Q402.22052 148.11458 401.12677 148.11458Q400.67365 148.11458 400.00177 148.30208L400.17365 146.91145Q400.3299 146.92708 400.43927 146.92708Q401.43927 146.92708 402.25177 146.39583Q403.06427 145.86458 403.06427 144.77083Q403.06427 143.89583 402.47052 143.33333Q401.87677 142.7552 400.9549 142.7552Q400.03302 142.7552 399.40802 143.33333Q398.79865 143.91145 398.62677 145.08333L397.04865 144.80208Q397.3299 143.20833 398.36115 142.33333Q399.3924 141.45833 400.92365 141.45833Q401.97052 141.45833 402.86115 141.91145Q403.75177 142.36458 404.22052 143.14583Q404.68927 143.92708 404.68927 144.80208Q404.68927 145.64583 404.23615 146.33333Q403.79865 147.0052 402.90802 147.41145Q404.04865 147.67708 404.67365 148.52083Q405.31427 149.34895 405.31427 150.58333Q405.31427 152.27083 404.0799 153.45833Q402.86115 154.6302 400.98615 154.6302Q399.28302 154.6302 398.15802 153.61458Q397.04865 152.59895 396.87677 150.98958ZM407.17365 144.59895Q407.17365 143.22395 407.86115 142.2552Q408.56427 141.28645 409.87677 141.28645Q411.09552 141.28645 411.8924 142.16145Q412.68927 143.02083 412.68927 144.70833Q412.68927 146.33333 411.87677 147.22395Q411.0799 148.09895 409.8924 148.09895Q408.73615 148.09895 407.9549 147.23958Q407.17365 146.36458 407.17365 144.59895ZM409.92365 142.3802Q409.3299 142.3802 408.93927 142.89583Q408.54865 143.39583 408.54865 144.7552Q408.54865 146.0052 408.93927 146.5052Q409.34552 147.0052 409.92365 147.0052Q410.5174 147.0052 410.90802 146.5052Q411.29865 145.98958 411.29865 144.64583Q411.29865 143.39583 410.90802 142.89583Q410.5174 142.3802 409.92365 142.3802ZM409.93927 154.86458L416.98615 141.28645L418.2674 141.28645L411.23615 154.86458L409.93927 154.86458ZM415.50177 151.36458Q415.50177 149.98958 416.18927 149.02083Q416.8924 148.05208 418.22052 148.05208Q419.43927 148.05208 420.22052 148.92708Q421.0174 149.78645 421.0174 151.47395Q421.0174 153.09895 420.22052 153.98958Q419.42365 154.86458 418.23615 154.86458Q417.06427 154.86458 416.28302 153.98958Q415.50177 153.11458 415.50177 151.36458ZM418.2674 149.14583Q417.67365 149.14583 417.28302 149.66145Q416.8924 150.16145 416.8924 151.53645Q416.8924 152.7552 417.28302 153.27083Q417.67365 153.78645 418.25177 153.78645Q418.86115 153.78645 419.25177 153.27083Q419.6424 152.7552 419.6424 151.41145Q419.6424 150.16145 419.25177 149.66145Q418.86115 149.14583 418.2674 149.14583Z" fill-rule="nonzero"/><path fill="#ffffff" d="M326.2604 311.74957L326.2604 313.2652L317.74478 313.2652Q317.72916 312.68707 317.93228 312.17145Q318.2604 311.29645 318.96353 310.4527Q319.68228 309.60895 321.04166 308.49957Q323.1354 306.78082 323.86978 305.78082Q324.61978 304.7652 324.61978 303.87457Q324.61978 302.92145 323.9479 302.28082Q323.27603 301.6402 322.1979 301.6402Q321.04166 301.6402 320.35416 302.3277Q319.68228 303.0152 319.66666 304.21832L318.04166 304.04645Q318.21353 302.23395 319.29166 301.28082Q320.3854 300.3277 322.22916 300.3277Q324.0729 300.3277 325.15103 301.35895Q326.24478 302.3902 326.24478 303.90582Q326.24478 304.67145 325.91666 305.42145Q325.60416 306.17145 324.86978 306.99957Q324.1354 307.8277 322.43228 309.2652Q321.0104 310.46832 320.60416 310.8902Q320.1979 311.31207 319.9479 311.74957L326.2604 311.74957ZM327.9479 306.90582Q327.9479 304.62457 328.41666 303.23395Q328.8854 301.84332 329.80728 301.09332Q330.74478 300.3277 332.15103 300.3277Q333.18228 300.3277 333.96353 300.74957Q334.74478 301.15582 335.24478 301.9527Q335.7604 302.73395 336.05728 303.87457Q336.35416 304.99957 336.35416 306.90582Q336.35416 309.17145 335.8854 310.5777Q335.41666 311.96832 334.47916 312.73395Q333.55728 313.48395 332.15103 313.48395Q330.27603 313.48395 329.21353 312.15582Q327.9479 310.54645 327.9479 306.90582ZM329.5729 306.90582Q329.5729 310.0777 330.30728 311.1402Q331.05728 312.18707 332.15103 312.18707Q333.22916 312.18707 333.97916 311.1402Q334.72916 310.0777 334.72916 306.90582Q334.72916 303.73395 333.97916 302.68707Q333.22916 301.6402 332.1354 301.6402Q331.04166 301.6402 330.3854 302.56207Q329.5729 303.73395 329.5729 306.90582ZM338.83853 313.2652L338.83853 311.46832L340.6354 311.46832L340.6354 313.2652L338.83853 313.2652ZM345.3854 306.28082Q344.40103 305.92145 343.91666 305.24957Q343.4479 304.5777 343.4479 303.65582Q343.4479 302.24957 344.4479 301.29645Q345.46353 300.3277 347.15103 300.3277Q348.83853 300.3277 349.85416 301.31207Q350.8854 302.28082 350.8854 303.68707Q350.8854 304.59332 350.41666 305.2652Q349.9479 305.92145 348.99478 306.28082Q350.18228 306.67145 350.79166 307.53082Q351.41666 308.3902 351.41666 309.5777Q351.41666 311.23395 350.24478 312.35895Q349.0729 313.48395 347.16666 313.48395Q345.2604 313.48395 344.08853 312.35895Q342.93228 311.21832 342.93228 309.53082Q342.93228 308.28082 343.55728 307.43707Q344.1979 306.5777 345.3854 306.28082ZM345.05728 303.59332Q345.05728 304.5152 345.65103 305.09332Q346.24478 305.67145 347.18228 305.67145Q348.08853 305.67145 348.66666 305.09332Q349.2604 304.5152 349.2604 303.68707Q349.2604 302.81207 348.65103 302.21832Q348.05728 301.62457 347.16666 301.62457Q346.2604 301.62457 345.65103 302.2027Q345.05728 302.78082 345.05728 303.59332ZM344.55728 309.54645Q344.55728 310.21832 344.86978 310.85895Q345.1979 311.48395 345.8229 311.84332Q346.46353 312.18707 347.1979 312.18707Q348.3229 312.18707 349.05728 311.4527Q349.80728 310.71832 349.80728 309.59332Q349.80728 308.4527 349.04166 307.71832Q348.27603 306.96832 347.1354 306.96832Q346.02603 306.96832 345.29166 307.7027Q344.55728 308.43707 344.55728 309.54645ZM353.24478 303.46832Q353.24478 302.09332 353.93228 301.12457Q354.6354 300.15582 355.9479 300.15582Q357.16666 300.15582 357.96353 301.03082Q358.7604 301.8902 358.7604 303.5777Q358.7604 305.2027 357.9479 306.09332Q357.15103 306.96832 355.96353 306.96832Q354.80728 306.96832 354.02603 306.10895Q353.24478 305.23395 353.24478 303.46832ZM355.99478 301.24957Q355.40103 301.24957 355.0104 301.7652Q354.61978 302.2652 354.61978 303.62457Q354.61978 304.87457 355.0104 305.37457Q355.41666 305.87457 355.99478 305.87457Q356.58853 305.87457 356.97916 305.37457Q357.36978 304.85895 357.36978 303.5152Q357.36978 302.2652 356.97916 301.7652Q356.58853 301.24957 355.99478 301.24957ZM356.0104 313.73395L363.05728 300.15582L364.33853 300.15582L357.30728 313.73395L356.0104 313.73395ZM361.5729 310.23395Q361.5729 308.85895 362.2604 307.8902Q362.96353 306.92145 364.29166 306.92145Q365.5104 306.92145 366.29166 307.79645Q367.08853 308.65582 367.08853 310.34332Q367.08853 311.96832 366.29166 312.85895Q365.49478 313.73395 364.30728 313.73395Q363.1354 313.73395 362.35416 312.85895Q361.5729 311.98395 361.5729 310.23395ZM364.33853 308.0152Q363.74478 308.0152 363.35416 308.53082Q362.96353 309.03082 362.96353 310.40582Q362.96353 311.62457 363.35416 312.1402Q363.74478 312.65582 364.3229 312.65582Q364.93228 312.65582 365.3229 312.1402Q365.71353 311.62457 365.71353 310.28082Q365.71353 309.03082 365.3229 308.53082Q364.93228 308.0152 364.33853 308.0152Z" fill-rule="nonzero"/><path fill="#ffffff" d="M180.48064 251.36562L180.48064 252.88124L171.96501 252.88124Q171.94939 252.30312 172.15251 251.78749Q172.48064 250.91249 173.18376 250.06874Q173.90251 249.22499 175.26189 248.11562Q177.35564 246.39687 178.09001 245.39687Q178.84001 244.38124 178.84001 243.49062Q178.84001 242.53749 178.16814 241.89687Q177.49626 241.25624 176.41814 241.25624Q175.26189 241.25624 174.57439 241.94374Q173.90251 242.63124 173.88689 243.83437L172.26189 243.66249Q172.43376 241.84999 173.51189 240.89687Q174.60564 239.94374 176.44939 239.94374Q178.29314 239.94374 179.37126 240.97499Q180.46501 242.00624 180.46501 243.52187Q180.46501 244.28749 180.13689 245.03749Q179.82439 245.78749 179.09001 246.61562Q178.35564 247.44374 176.65251 248.88124Q175.23064 250.08437 174.82439 250.50624Q174.41814 250.92812 174.16814 251.36562L180.48064 251.36562ZM182.40251 249.89687L183.91814 249.75624Q184.12126 250.83437 184.65251 251.31874Q185.19939 251.80312 186.05876 251.80312Q186.79314 251.80312 187.34001 251.47499Q187.88689 251.13124 188.23064 250.58437Q188.59001 250.02187 188.82439 249.06874Q189.05876 248.11562 189.05876 247.13124Q189.05876 247.02187 189.05876 246.81874Q188.57439 247.56874 187.74626 248.03749Q186.93376 248.50624 185.98064 248.50624Q184.38689 248.50624 183.27751 247.34999Q182.16814 246.19374 182.16814 244.28749Q182.16814 242.33437 183.32439 241.14687Q184.48064 239.94374 186.21501 239.94374Q187.48064 239.94374 188.51189 240.63124Q189.55876 241.30312 190.09001 242.55312Q190.63689 243.80312 190.63689 246.17812Q190.63689 248.64687 190.09001 250.11562Q189.55876 251.56874 188.49626 252.33437Q187.44939 253.09999 186.02751 253.09999Q184.51189 253.09999 183.54314 252.27187Q182.59001 251.42812 182.40251 249.89687ZM188.88689 244.20937Q188.88689 242.84999 188.15251 242.05312Q187.43376 241.25624 186.41814 241.25624Q185.35564 241.25624 184.57439 242.11562Q183.79314 242.97499 183.79314 244.34999Q183.79314 245.58437 184.52751 246.34999Q185.27751 247.11562 186.37126 247.11562Q187.46501 247.11562 188.16814 246.34999Q188.88689 245.58437 188.88689 244.20937ZM193.05876 252.88124L193.05876 251.08437L194.85564 251.08437L194.85564 252.88124L193.05876 252.88124ZM205.48064 251.36562L205.48064 252.88124L196.96501 252.88124Q196.94939 252.30312 197.15251 251.78749Q197.48064 250.91249 198.18376 250.06874Q198.90251 249.22499 200.26189 248.11562Q202.35564 246.39687 203.09001 245.39687Q203.84001 244.38124 203.84001 243.49062Q203.84001 242.53749 203.16814 241.89687Q202.49626 241.25624 201.41814 241.25624Q200.26189 241.25624 199.57439 241.94374Q198.90251 242.63124 198.88689 243.83437L197.26189 243.66249Q197.43376 241.84999 198.51189 240.89687Q199.60564 239.94374 201.44939 239.94374Q203.29314 239.94374 204.37126 240.97499Q205.46501 242.00624 205.46501 243.52187Q205.46501 244.28749 205.13689 245.03749Q204.82439 245.78749 204.09001 246.61562Q203.35564 247.44374 201.65251 248.88124Q200.23064 250.08437 199.82439 250.50624Q199.41814 250.92812 199.16814 251.36562L205.48064 251.36562ZM207.46501 243.08437Q207.46501 241.70937 208.15251 240.74062Q208.85564 239.77187 210.16814 239.77187Q211.38689 239.77187 212.18376 240.64687Q212.98064 241.50624 212.98064 243.19374Q212.98064 244.81874 212.16814 245.70937Q211.37126 246.58437 210.18376 246.58437Q209.02751 246.58437 208.24626 245.72499Q207.46501 244.84999 207.46501 243.08437ZM210.21501 240.86562Q209.62126 240.86562 209.23064 241.38124Q208.84001 241.88124 208.84001 243.24062Q208.84001 244.49062 209.23064 244.99062Q209.63689 245.49062 210.21501 245.49062Q210.80876 245.49062 211.19939 244.99062Q211.59001 244.47499 211.59001 243.13124Q211.59001 241.88124 211.19939 241.38124Q210.80876 240.86562 210.21501 240.86562ZM210.23064 253.34999L217.27751 239.77187L218.55876 239.77187L211.52751 253.34999L210.23064 253.34999ZM215.79314 249.84999Q215.79314 248.47499 216.48064 247.50624Q217.18376 246.53749 218.51189 246.53749Q219.73064 246.53749 220.51189 247.41249Q221.30876 248.27187 221.30876 249.95937Q221.30876 251.58437 220.51189 252.47499Q219.71501 253.34999 218.52751 253.34999Q217.35564 253.34999 216.57439 252.47499Q215.79314 251.59999 215.79314 249.84999ZM218.55876 247.63124Q217.96501 247.63124 217.57439 248.14687Q217.18376 248.64687 217.18376 250.02187Q217.18376 251.24062 217.57439 251.75624Q217.96501 252.27187 218.54314 252.27187Q219.15251 252.27187 219.54314 251.75624Q219.93376 251.24062 219.93376 249.89687Q219.93376 248.64687 219.54314 248.14687Q219.15251 247.63124 218.55876 247.63124Z" fill-rule="nonzero"/><path fill="#ffffff" d="M203.79207 124.30351Q202.8077 123.94414 202.32332 123.27226Q201.85457 122.60039 201.85457 121.67851Q201.85457 120.27226 202.85457 119.31914Q203.8702 118.35039 205.5577 118.35039Q207.2452 118.35039 208.26082 119.33476Q209.29207 120.30351 209.29207 121.70976Q209.29207 122.61601 208.82332 123.28789Q208.35457 123.94414 207.40144 124.30351Q208.58894 124.69414 209.19832 125.55351Q209.82332 126.41289 209.82332 127.60039Q209.82332 129.25664 208.65144 130.38164Q207.47957 131.50664 205.57332 131.50664Q203.66707 131.50664 202.4952 130.38164Q201.33894 129.24101 201.33894 127.55351Q201.33894 126.30351 201.96394 125.45976Q202.60457 124.60039 203.79207 124.30351ZM203.46394 121.61601Q203.46394 122.53789 204.0577 123.11601Q204.65144 123.69414 205.58894 123.69414Q206.4952 123.69414 207.07332 123.11601Q207.66707 122.53789 207.66707 121.70976Q207.66707 120.83476 207.0577 120.24101Q206.46394 119.64726 205.57332 119.64726Q204.66707 119.64726 204.0577 120.22539Q203.46394 120.80351 203.46394 121.61601ZM202.96394 127.56914Q202.96394 128.24101 203.27644 128.88164Q203.60457 129.50664 204.22957 129.86601Q204.8702 130.20976 205.60457 130.20976Q206.72957 130.20976 207.46394 129.47539Q208.21394 128.74101 208.21394 127.61601Q208.21394 126.47539 207.44832 125.74101Q206.6827 124.99101 205.54207 124.99101Q204.4327 124.99101 203.69832 125.72539Q202.96394 126.45976 202.96394 127.56914ZM212.2452 131.28789L212.2452 129.49101L214.04207 129.49101L214.04207 131.28789L212.2452 131.28789ZM216.35457 127.88164L217.94832 127.67851Q218.21394 129.02226 218.8702 129.61601Q219.52644 130.20976 220.46394 130.20976Q221.58894 130.20976 222.35457 129.44414Q223.1202 128.66289 223.1202 127.52226Q223.1202 126.42851 222.40144 125.72539Q221.69832 125.00664 220.60457 125.00664Q220.15144 125.00664 219.47957 125.19414L219.65144 123.80351Q219.8077 123.81914 219.91707 123.81914Q220.91707 123.81914 221.72957 123.28789Q222.54207 122.75664 222.54207 121.66289Q222.54207 120.78789 221.94832 120.22539Q221.35457 119.64726 220.4327 119.64726Q219.51082 119.64726 218.88582 120.22539Q218.27644 120.80351 218.10457 121.97539L216.52644 121.69414Q216.8077 120.10039 217.83894 119.22539Q218.8702 118.35039 220.40144 118.35039Q221.44832 118.35039 222.33894 118.80351Q223.22957 119.25664 223.69832 120.03789Q224.16707 120.81914 224.16707 121.69414Q224.16707 122.53789 223.71394 123.22539Q223.27644 123.89726 222.38582 124.30351Q223.52644 124.56914 224.15144 125.41289Q224.79207 126.24101 224.79207 127.47539Q224.79207 129.16289 223.5577 130.35039Q222.33894 131.52226 220.46394 131.52226Q218.76082 131.52226 217.63582 130.50664Q216.52644 129.49101 216.35457 127.88164ZM226.65144 121.49101Q226.65144 120.11601 227.33894 119.14726Q228.04207 118.17851 229.35457 118.17851Q230.57332 118.17851 231.3702 119.05351Q232.16707 119.91289 232.16707 121.60039Q232.16707 123.22539 231.35457 124.11601Q230.5577 124.99101 229.3702 124.99101Q228.21394 124.99101 227.4327 124.13164Q226.65144 123.25664 226.65144 121.49101ZM229.40144 119.27226Q228.8077 119.27226 228.41707 119.78789Q228.02644 120.28789 228.02644 121.64726Q228.02644 122.89726 228.41707 123.39726Q228.82332 123.89726 229.40144 123.89726Q229.9952 123.89726 230.38582 123.39726Q230.77644 122.88164 230.77644 121.53789Q230.77644 120.28789 230.38582 119.78789Q229.9952 119.27226 229.40144 119.27226ZM229.41707 131.75664L236.46394 118.17851L237.7452 118.17851L230.71394 131.75664L229.41707 131.75664ZM234.97957 128.25664Q234.97957 126.88164 235.66707 125.91289Q236.3702 124.94414 237.69832 124.94414Q238.91707 124.94414 239.69832 125.81914Q240.4952 126.67851 240.4952 128.36601Q240.4952 129.99101 239.69832 130.88164Q238.90144 131.75664 237.71394 131.75664Q236.54207 131.75664 235.76082 130.88164Q234.97957 130.00664 234.97957 128.25664ZM237.7452 126.03789Q237.15144 126.03789 236.76082 126.55351Q236.3702 127.05351 236.3702 128.42851Q236.3702 129.64726 236.76082 130.16289Q237.15144 130.67851 237.72957 130.67851Q238.33894 130.67851 238.72957 130.16289Q239.1202 129.64726 239.1202 128.30351Q239.1202 127.05351 238.72957 126.55351Q238.33894 126.03789 237.7452 126.03789Z" fill-rule="nonzero"/><path fill="#ffffff" d="M253.5664 94.51758Q252.58203 94.1582 252.09766 93.48633Q251.6289 92.81445 251.6289 91.89258Q251.6289 90.48633 252.6289 89.5332Q253.64453 88.56445 255.33203 88.56445Q257.01953 88.56445 258.03516 89.54883Q259.0664 90.51758 259.0664 91.92383Q259.0664 92.83008 258.59766 93.50195Q258.1289 94.1582 257.17578 94.51758Q258.36328 94.9082 258.97266 95.76758Q259.59766 96.62695 259.59766 97.81445Q259.59766 99.4707 258.42578 100.5957Q257.2539 101.7207 255.34766 101.7207Q253.4414 101.7207 252.26953 100.5957Q251.11328 99.45508 251.11328 97.76758Q251.11328 96.51758 251.73828 95.67383Q252.3789 94.81445 253.5664 94.51758ZM253.23828 91.83008Q253.23828 92.75195 253.83203 93.33008Q254.42578 93.9082 255.36328 93.9082Q256.26953 93.9082 256.84766 93.33008Q257.4414 92.75195 257.4414 91.92383Q257.4414 91.04883 256.83203 90.45508Q256.23828 89.86133 255.34766 89.86133Q254.4414 89.86133 253.83203 90.43945Q253.23828 91.01758 253.23828 91.83008ZM252.73828 97.7832Q252.73828 98.45508 253.05078 99.0957Q253.3789 99.7207 254.0039 100.08008Q254.64453 100.42383 255.3789 100.42383Q256.5039 100.42383 257.23828 99.68945Q257.98828 98.95508 257.98828 97.83008Q257.98828 96.68945 257.22266 95.95508Q256.45703 95.20508 255.3164 95.20508Q254.20703 95.20508 253.47266 95.93945Q252.73828 96.67383 252.73828 97.7832ZM262.01953 101.50195L262.01953 99.70508L263.8164 99.70508L263.8164 101.50195L262.01953 101.50195ZM266.1289 98.0957L267.72266 97.89258Q267.98828 99.23633 268.64453 99.83008Q269.30078 100.42383 270.23828 100.42383Q271.36328 100.42383 272.1289 99.6582Q272.89453 98.87695 272.89453 97.73633Q272.89453 96.64258 272.17578 95.93945Q271.47266 95.2207 270.3789 95.2207Q269.92578 95.2207 269.2539 95.4082L269.42578 94.01758Q269.58203 94.0332 269.6914 94.0332Q270.6914 94.0332 271.5039 93.50195Q272.3164 92.9707 272.3164 91.87695Q272.3164 91.00195 271.72266 90.43945Q271.1289 89.86133 270.20703 89.86133Q269.28516 89.86133 268.66016 90.43945Q268.05078 91.01758 267.8789 92.18945L266.30078 91.9082Q266.58203 90.31445 267.61328 89.43945Q268.64453 88.56445 270.17578 88.56445Q271.22266 88.56445 272.11328 89.01758Q273.0039 89.4707 273.47266 90.25195Q273.9414 91.0332 273.9414 91.9082Q273.9414 92.75195 273.48828 93.43945Q273.05078 94.11133 272.16016 94.51758Q273.30078 94.7832 273.92578 95.62695Q274.5664 96.45508 274.5664 97.68945Q274.5664 99.37695 273.33203 100.56445Q272.11328 101.73633 270.23828 101.73633Q268.53516 101.73633 267.41016 100.7207Q266.30078 99.70508 266.1289 98.0957ZM276.42578 91.70508Q276.42578 90.33008 277.11328 89.36133Q277.8164 88.39258 279.1289 88.39258Q280.34766 88.39258 281.14453 89.26758Q281.9414 90.12695 281.9414 91.81445Q281.9414 93.43945 281.1289 94.33008Q280.33203 95.20508 279.14453 95.20508Q277.98828 95.20508 277.20703 94.3457Q276.42578 93.4707 276.42578 91.70508ZM279.17578 89.48633Q278.58203 89.48633 278.1914 90.00195Q277.80078 90.50195 277.80078 91.86133Q277.80078 93.11133 278.1914 93.61133Q278.59766 94.11133 279.17578 94.11133Q279.76953 94.11133 280.16016 93.61133Q280.55078 93.0957 280.55078 91.75195Q280.55078 90.50195 280.16016 90.00195Q279.76953 89.48633 279.17578 89.48633ZM279.1914 101.9707L286.23828 88.39258L287.51953 88.39258L280.48828 101.9707L279.1914 101.9707ZM284.7539 98.4707Q284.7539 97.0957 285.4414 96.12695Q286.14453 95.1582 287.47266 95.1582Q288.6914 95.1582 289.47266 96.0332Q290.26953 96.89258 290.26953 98.58008Q290.26953 100.20508 289.47266 101.0957Q288.67578 101.9707 287.48828 101.9707Q286.3164 101.9707 285.53516 101.0957Q284.7539 100.2207 284.7539 98.4707ZM287.51953 96.25195Q286.92578 96.25195 286.53516 96.76758Q286.14453 97.26758 286.14453 98.64258Q286.14453 99.86133 286.53516 100.37695Q286.92578 100.89258 287.5039 100.89258Q288.11328 100.89258 288.5039 100.37695Q288.89453 99.86133 288.89453 98.51758Q288.89453 97.26758 288.5039 96.76758Q288.11328 96.25195 287.51953 96.25195Z" fill-rule="nonzero"/><path stroke="#ffffff" stroke-width="1.0" stroke-linejoin="round" stroke-linecap="round" d="M364.41785 240.875C377.70517 217.86072 377.70517 189.50595 364.41785 166.49167C351.13055 143.47739 326.57462 129.3 300.0 129.3L300.0 54.916668C353.1492 54.916668 402.2611 83.27143 428.83572 129.3C455.4103 175.32857 455.4103 232.0381 428.83572 278.06668" fill-rule="nonzero"/><path stroke="#ffffff" stroke-width="1.0" stroke-linejoin="round" stroke-linecap="round" d="M280.74817 275.5321C313.26733 284.2456 347.5847 270.03088 364.41785 240.875L428.83572 278.06668C395.1694 336.37845 326.5347 364.80786 261.49637 347.3809" fill-rule="nonzero"/><path stroke="#ffffff" stroke-width="1.0" stroke-linejoin="round" stroke-linecap="round" d="M235.58214 166.49167C224.01964 186.51852 222.4292 210.78387 231.27876 232.1486C240.12833 253.51334 258.41113 269.54694 280.74817 275.5321L261.49637 347.3809C216.82225 335.41052 180.25664 303.34332 162.55753 260.61386C144.8584 217.88441 148.03928 169.3537 171.16429 129.3" fill-rule="nonzero"/><path stroke="#ffffff" stroke-width="1.0" stroke-linejoin="round" stroke-linecap="round" d="M262.80832 139.26547C251.50064 145.79398 242.11064 155.18398 235.58214 166.49167L171.16429 129.3C184.22128 106.68461 203.00128 87.904625 225.61667 74.84762" fill-rule="nonzero"/><path stroke="#ffffff" stroke-width="1.0" stroke-linejoin="round" stroke-linecap="round" d="M300.0 129.3C286.943 129.3 274.11603 132.73697 262.80832 139.26547L225.61667 74.84762C248.23206 61.79062 273.886 54.916668 300.0 54.916668" fill-rule="nonzero"/><path fill="#efefef" d="M19.76875 69.916664L19.76875 58.46354L21.33125 58.46354L27.346874 67.447914L27.346874 58.46354L28.8 58.46354L28.8 69.916664L27.2375 69.916664L21.221874 60.916664L21.221874 69.916664L19.76875 69.916664ZM37.01875 68.885414Q36.2375 69.55729 35.51875 69.83854Q34.8 70.104164 33.971874 70.104164Q32.596874 70.104164 31.8625 69.43229Q31.128124 68.760414 31.128124 67.729164Q31.128124 67.11979 31.409374 66.61979Q31.690624 66.104164 32.128124 65.80729Q32.58125 65.49479 33.14375 65.33854Q33.565624 65.229164 34.39375 65.135414Q36.096874 64.93229 36.909374 64.65104Q36.909374 64.354164 36.909374 64.27604Q36.909374 63.416664 36.51875 63.072914Q35.971874 62.58854 34.909374 62.58854Q33.925 62.58854 33.440624 62.947914Q32.971874 63.291664 32.753124 64.166664L31.378124 63.979164Q31.565624 63.104164 31.9875 62.55729Q32.425 62.010414 33.2375 61.729164Q34.05 61.43229 35.1125 61.43229Q36.175 61.43229 36.83125 61.68229Q37.503124 61.93229 37.815624 62.30729Q38.128124 62.68229 38.253124 63.260414Q38.33125 63.61979 38.33125 64.55729L38.33125 66.43229Q38.33125 68.40104 38.409374 68.916664Q38.503124 69.43229 38.76875 69.916664L37.3 69.916664Q37.08125 69.479164 37.01875 68.885414ZM36.909374 65.74479Q36.14375 66.05729 34.6125 66.27604Q33.7375 66.40104 33.378124 66.55729Q33.01875 66.71354 32.815624 67.02604Q32.628124 67.322914 32.628124 67.68229Q32.628124 68.24479 33.05 68.61979Q33.4875 68.99479 34.3 68.99479Q35.1125 68.99479 35.7375 68.65104Q36.378124 68.291664 36.675 67.666664Q36.909374 67.197914 36.909374 66.260414L36.909374 65.74479ZM43.675 68.65104L43.878124 69.90104Q43.284374 70.02604 42.815624 70.02604Q42.05 70.02604 41.628124 69.791664Q41.20625 69.541664 41.034374 69.15104Q40.8625 68.74479 40.8625 67.479164L40.8625 62.71354L39.83125 62.71354L39.83125 61.61979L40.8625 61.61979L40.8625 59.55729L42.26875 58.71354L42.26875 61.61979L43.675 61.61979L43.675 62.71354L42.26875 62.71354L42.26875 67.55729Q42.26875 68.166664 42.33125 68.33854Q42.409374 68.510414 42.58125 68.61979Q42.753124 68.71354 43.065624 68.71354Q43.3 68.71354 43.675 68.65104ZM50.05 69.916664L50.05 68.697914Q49.08125 70.104164 47.409374 70.104164Q46.675 70.104164 46.034374 69.822914Q45.409374 69.541664 45.096874 69.11979Q44.784374 68.68229 44.659374 68.072914Q44.58125 67.65104 44.58125 66.760414L44.58125 61.61979L45.9875 61.61979L45.9875 66.21354Q45.9875 67.322914 46.065624 67.697914Q46.20625 68.260414 46.628124 68.572914Q47.065624 68.885414 47.690624 68.885414Q48.33125 68.885414 48.878124 68.572914Q49.440624 68.24479 49.659374 67.68229Q49.89375 67.11979 49.89375 66.05729L49.89375 61.61979L51.3 61.61979L51.3 69.916664L50.05 69.916664ZM53.596874 69.916664L53.596874 61.61979L54.8625 61.61979L54.8625 62.86979Q55.346874 61.99479 55.753124 61.71354Q56.159374 61.43229 56.659374 61.43229Q57.3625 61.43229 58.096874 61.885414L57.6125 63.18229Q57.096874 62.885414 56.58125 62.885414Q56.128124 62.885414 55.753124 63.166664Q55.39375 63.43229 55.2375 63.93229Q55.003124 64.68229 55.003124 65.572914L55.003124 69.916664L53.596874 69.916664ZM64.01875 68.885414Q63.2375 69.55729 62.51875 69.83854Q61.8 70.104164 60.971874 70.104164Q59.596874 70.104164 58.8625 69.43229Q58.128124 68.760414 58.128124 67.729164Q58.128124 67.11979 58.409374 66.61979Q58.690624 66.104164 59.128124 65.80729Q59.58125 65.49479 60.14375 65.33854Q60.565624 65.229164 61.39375 65.135414Q63.096874 64.93229 63.909374 64.65104Q63.909374 64.354164 63.909374 64.27604Q63.909374 63.416664 63.51875 63.072914Q62.971874 62.58854 61.909374 62.58854Q60.925 62.58854 60.440624 62.947914Q59.971874 63.291664 59.753124 64.166664L58.378124 63.979164Q58.565624 63.104164 58.9875 62.55729Q59.425 62.010414 60.2375 61.729164Q61.05 61.43229 62.1125 61.43229Q63.175 61.43229 63.83125 61.68229Q64.50313 61.93229 64.81563 62.30729Q65.12813 62.68229 65.25313 63.260414Q65.33125 63.61979 65.33125 64.55729L65.33125 66.43229Q65.33125 68.40104 65.40938 68.916664Q65.50313 69.43229 65.76875 69.916664L64.3 69.916664Q64.08125 69.479164 64.01875 68.885414ZM63.909374 65.74479Q63.14375 66.05729 61.6125 66.27604Q60.7375 66.40104 60.378124 66.55729Q60.01875 66.71354 59.815624 67.02604Q59.628124 67.322914 59.628124 67.68229Q59.628124 68.24479 60.05 68.61979Q60.4875 68.99479 61.3 68.99479Q62.1125 68.99479 62.7375 68.65104Q63.378124 68.291664 63.675 67.666664Q63.909374 67.197914 63.909374 66.260414L63.909374 65.74479ZM67.58125 69.916664L67.58125 58.46354L68.9875 58.46354L68.9875 69.916664L67.58125 69.916664Z" fill-rule="nonzero"/><path fill="#9e9e9e" d="M21.378124 85.697914Q20.503124 85.385414 20.08125 84.791664Q19.659374 84.197914 19.659374 83.36979Q19.659374 82.11979 20.55 81.27604Q21.45625 80.416664 22.95625 80.416664Q24.45625 80.416664 25.3625 81.291664Q26.284374 82.15104 26.284374 83.40104Q26.284374 84.197914 25.8625 84.791664Q25.440624 85.385414 24.596874 85.697914Q25.64375 86.041664 26.190624 86.80729Q26.753124 87.572914 26.753124 88.635414Q26.753124 90.104164 25.70625 91.11979Q24.675 92.11979 22.971874 92.11979Q21.284374 92.11979 20.2375 91.11979Q19.20625 90.104164 19.20625 88.604164Q19.20625 87.479164 19.76875 86.729164Q20.33125 85.979164 21.378124 85.697914ZM21.096874 83.322914Q21.096874 84.135414 21.6125 84.65104Q22.14375 85.166664 22.9875 85.166664Q23.8 85.166664 24.315624 84.65104Q24.83125 84.135414 24.83125 83.40104Q24.83125 82.61979 24.3 82.104164Q23.76875 81.572914 22.971874 81.572914Q22.159374 81.572914 21.628124 82.08854Q21.096874 82.604164 21.096874 83.322914ZM20.64375 88.604164Q20.64375 89.21354 20.925 89.77604Q21.221874 90.33854 21.784374 90.65104Q22.346874 90.947914 22.9875 90.947914Q24.003124 90.947914 24.659374 90.30729Q25.315624 89.65104 25.315624 88.65104Q25.315624 87.635414 24.628124 86.979164Q23.95625 86.30729 22.940624 86.30729Q21.95625 86.30729 21.3 86.96354Q20.64375 87.61979 20.64375 88.604164ZM29.003124 91.916664L29.003124 90.30729L30.6125 90.30729L30.6125 91.916664L29.003124 91.916664ZM32.221874 88.885414L33.628124 88.697914Q33.878124 89.90104 34.45625 90.43229Q35.034374 90.947914 35.878124 90.947914Q36.8625 90.947914 37.55 90.260414Q38.2375 89.572914 38.2375 88.55729Q38.2375 87.58854 37.596874 86.96354Q36.971874 86.33854 35.9875 86.33854Q35.596874 86.33854 35.003124 86.49479L35.159374 85.260414Q35.3 85.27604 35.378124 85.27604Q36.284374 85.27604 37.003124 84.80729Q37.721874 84.33854 37.721874 83.354164Q37.721874 82.58854 37.190624 82.08854Q36.675 81.572914 35.846874 81.572914Q35.01875 81.572914 34.471874 82.08854Q33.925 82.604164 33.76875 83.635414L32.3625 83.385414Q32.628124 81.96354 33.534374 81.197914Q34.45625 80.416664 35.815624 80.416664Q36.753124 80.416664 37.534374 80.822914Q38.33125 81.21354 38.7375 81.916664Q39.159374 82.604164 39.159374 83.385414Q39.159374 84.135414 38.753124 84.74479Q38.3625 85.354164 37.58125 85.71354Q38.596874 85.947914 39.159374 86.68229Q39.721874 87.416664 39.721874 88.52604Q39.721874 90.02604 38.628124 91.072914Q37.534374 92.11979 35.8625 92.11979Q34.3625 92.11979 33.3625 91.229164Q32.3625 90.322914 32.221874 88.885414ZM41.4875 83.21354Q41.4875 81.979164 42.096874 81.11979Q42.721874 80.260414 43.89375 80.260414Q44.971874 80.260414 45.675 81.041664Q46.378124 81.80729 46.378124 83.291664Q46.378124 84.74479 45.659374 85.541664Q44.95625 86.322914 43.909374 86.322914Q42.8625 86.322914 42.175 85.55729Q41.4875 84.77604 41.4875 83.21354ZM43.925 81.229164Q43.409374 81.229164 43.05 81.68229Q42.70625 82.135414 42.70625 83.354164Q42.70625 84.447914 43.05 84.90104Q43.409374 85.354164 43.925 85.354164Q44.45625 85.354164 44.8 84.90104Q45.159374 84.447914 45.159374 83.24479Q45.159374 82.135414 44.8 81.68229Q44.45625 81.229164 43.925 81.229164ZM43.940624 92.33854L50.20625 80.260414L51.346874 80.260414L45.096874 92.33854L43.940624 92.33854ZM48.89375 89.229164Q48.89375 87.99479 49.503124 87.135414Q50.128124 86.27604 51.3 86.27604Q52.378124 86.27604 53.08125 87.05729Q53.8 87.822914 53.8 89.30729Q53.8 90.760414 53.08125 91.55729Q52.3625 92.33854 51.315624 92.33854Q50.26875 92.33854 49.58125 91.55729Q48.89375 90.77604 48.89375 89.229164ZM51.346874 87.24479Q50.815624 87.24479 50.45625 87.697914Q50.1125 88.15104 50.1125 89.36979Q50.1125 90.46354 50.45625 90.916664Q50.815624 91.36979 51.33125 91.36979Q51.878124 91.36979 52.221874 90.916664Q52.565624 90.46354 52.565624 89.260414Q52.565624 88.15104 52.20625 87.697914Q51.8625 87.24479 51.346874 87.24479Z" fill-rule="nonzero"/><path stroke="#757575" stroke-width="1.0" stroke-linecap="butt" d="M18.55 75.416664L145.23334 75.416664L263.42154 67.17065" fill-rule="nonzero"/><path fill="#9e9e9e" d="M265.42154 67.17065C265.42154 66.06608 264.5261 65.17065 263.42154 65.17065C262.31696 65.17065 261.42154 66.06608 261.42154 67.17065C261.42154 68.275215 262.31696 69.17065 263.42154 69.17065C264.5261 69.17065 265.42154 68.275215 265.42154 67.17065" fill-rule="nonzero"/><path fill="#efefef" d="M18.51875 110.916664L22.925 99.46354L24.565624 99.46354L29.253124 110.916664L27.51875 110.916664L26.190624 107.447914L21.39375 107.447914L20.14375 110.916664L18.51875 110.916664ZM21.83125 106.21354L25.721874 106.21354L24.51875 103.041664Q23.971874 101.58854 23.70625 100.666664Q23.4875 101.760414 23.096874 102.854164L21.83125 106.21354ZM30.596874 110.916664L30.596874 102.61979L31.8625 102.61979L31.8625 103.86979Q32.346874 102.99479 32.753124 102.71354Q33.159374 102.43229 33.659374 102.43229Q34.3625 102.43229 35.096874 102.885414L34.6125 104.18229Q34.096874 103.885414 33.58125 103.885414Q33.128124 103.885414 32.753124 104.166664Q32.39375 104.43229 32.2375 104.93229Q32.003124 105.68229 32.003124 106.572914L32.003124 110.916664L30.596874 110.916664ZM41.01875 107.86979L42.409374 108.05729Q42.175 109.479164 41.2375 110.291664Q40.315624 111.104164 38.95625 111.104164Q37.253124 111.104164 36.20625 109.99479Q35.175 108.86979 35.175 106.791664Q35.175 105.447914 35.6125 104.447914Q36.065624 103.43229 36.971874 102.93229Q37.89375 102.43229 38.95625 102.43229Q40.315624 102.43229 41.175 103.11979Q42.034374 103.791664 42.26875 105.05729L40.909374 105.260414Q40.70625 104.43229 40.20625 104.010414Q39.721874 103.58854 39.01875 103.58854Q37.95625 103.58854 37.284374 104.354164Q36.628124 105.104164 36.628124 106.760414Q36.628124 108.43229 37.26875 109.197914Q37.909374 109.947914 38.940624 109.947914Q39.76875 109.947914 40.315624 109.447914Q40.878124 108.93229 41.01875 107.86979ZM43.6125 110.916664L43.6125 99.46354L45.01875 99.46354L45.01875 103.572914Q46.003124 102.43229 47.503124 102.43229Q48.425 102.43229 49.096874 102.791664Q49.784374 103.15104 50.065624 103.791664Q50.3625 104.43229 50.3625 105.65104L50.3625 110.916664L48.95625 110.916664L48.95625 105.65104Q48.95625 104.604164 48.503124 104.11979Q48.05 103.635414 47.20625 103.635414Q46.58125 103.635414 46.034374 103.96354Q45.4875 104.291664 45.253124 104.854164Q45.01875 105.40104 45.01875 106.36979L45.01875 110.916664L43.6125 110.916664ZM52.6125 101.072914L52.6125 99.46354L54.01875 99.46354L54.01875 101.072914L52.6125 101.072914ZM52.6125 110.916664L52.6125 102.61979L54.01875 102.61979L54.01875 110.916664L52.6125 110.916664ZM59.675 109.65104L59.878124 110.90104Q59.284374 111.02604 58.815624 111.02604Q58.05 111.02604 57.628124 110.791664Q57.20625 110.541664 57.034374 110.15104Q56.8625 109.74479 56.8625 108.479164L56.8625 103.71354L55.83125 103.71354L55.83125 102.61979L56.8625 102.61979L56.8625 100.55729L58.26875 99.71354L58.26875 102.61979L59.675 102.61979L59.675 103.71354L58.26875 103.71354L58.26875 108.55729Q58.26875 109.166664 58.33125 109.33854Q58.409374 109.510414 58.58125 109.61979Q58.753124 109.71354 59.065624 109.71354Q59.3 109.71354 59.675 109.65104ZM66.28438 108.24479L67.7375 108.416664Q67.39375 109.697914 66.45625 110.40104Q65.53438 111.104164 64.09688 111.104164Q62.26875 111.104164 61.20625 109.979164Q60.14375 108.854164 60.14375 106.83854Q60.14375 104.74479 61.221874 103.58854Q62.3 102.43229 64.01875 102.43229Q65.675 102.43229 66.72188 103.572914Q67.78438 104.697914 67.78438 106.74479Q67.78438 106.86979 67.78438 107.11979L61.596874 107.11979Q61.675 108.49479 62.3625 109.229164Q63.065624 109.947914 64.09688 109.947914Q64.87813 109.947914 65.425 109.541664Q65.97188 109.135414 66.28438 108.24479ZM61.675 105.96354L66.3 105.96354Q66.20625 104.916664 65.76875 104.40104Q65.09688 103.58854 64.03438 103.58854Q63.065624 103.58854 62.39375 104.24479Q61.7375 104.885414 61.675 105.96354ZM75.01875 107.86979L76.40938 108.05729Q76.175 109.479164 75.2375 110.291664Q74.31563 111.104164 72.95625 111.104164Q71.25313 111.104164 70.20625 109.99479Q69.175 108.86979 69.175 106.791664Q69.175 105.447914 69.6125 104.447914Q70.06563 103.43229 70.97188 102.93229Q71.89375 102.43229 72.95625 102.43229Q74.31563 102.43229 75.175 103.11979Q76.03438 103.791664 76.26875 105.05729L74.90938 105.260414Q74.70625 104.43229 74.20625 104.010414Q73.72188 103.58854 73.01875 103.58854Q71.95625 103.58854 71.28438 104.354164Q70.62813 105.104164 70.62813 106.760414Q70.62813 108.43229 71.26875 109.197914Q71.90938 109.947914 72.94063 109.947914Q73.76875 109.947914 74.31563 109.447914Q74.87813 108.93229 75.01875 107.86979ZM80.675 109.65104L80.87813 110.90104Q80.28438 111.02604 79.81563 111.02604Q79.05 111.02604 78.62813 110.791664Q78.20625 110.541664 78.03438 110.15104Q77.8625 109.74479 77.8625 108.479164L77.8625 103.71354L76.83125 103.71354L76.83125 102.61979L77.8625 102.61979L77.8625 100.55729L79.26875 99.71354L79.26875 102.61979L80.675 102.61979L80.675 103.71354L79.26875 103.71354L79.26875 108.55729Q79.26875 109.166664 79.33125 109.33854Q79.40938 109.510414 79.58125 109.61979Q79.75313 109.71354 80.06563 109.71354Q80.3 109.71354 80.675 109.65104ZM87.05 110.916664L87.05 109.697914Q86.08125 111.104164 84.40938 111.104164Q83.675 111.104164 83.03438 110.822914Q82.40938 110.541664 82.09688 110.11979Q81.78438 109.68229 81.65938 109.072914Q81.58125 108.65104 81.58125 107.760414L81.58125 102.61979L82.9875 102.61979L82.9875 107.21354Q82.9875 108.322914 83.06563 108.697914Q83.20625 109.260414 83.62813 109.572914Q84.06563 109.885414 84.69063 109.885414Q85.33125 109.885414 85.87813 109.572914Q86.44063 109.24479 86.65938 108.68229Q86.89375 108.11979 86.89375 107.05729L86.89375 102.61979L88.3 102.61979L88.3 110.916664L87.05 110.916664ZM90.59688 110.916664L90.59688 102.61979L91.8625 102.61979L91.8625 103.86979Q92.34688 102.99479 92.75313 102.71354Q93.15938 102.43229 93.65938 102.43229Q94.3625 102.43229 95.09688 102.885414L94.6125 104.18229Q94.09688 103.885414 93.58125 103.885414Q93.12813 103.885414 92.75313 104.166664Q92.39375 104.43229 92.2375 104.93229Q92.00313 105.68229 92.00313 106.572914L92.00313 110.916664L90.59688 110.916664ZM101.28438 108.24479L102.7375 108.416664Q102.39375 109.697914 101.45625 110.40104Q100.53438 111.104164 99.09688 111.104164Q97.26875 111.104164 96.20625 109.979164Q95.14375 108.854164 95.14375 106.83854Q95.14375 104.74479 96.22188 103.58854Q97.3 102.43229 99.01875 102.43229Q100.675 102.43229 101.72188 103.572914Q102.78438 104.697914 102.78438 106.74479Q102.78438 106.86979 102.78438 107.11979L96.59688 107.11979Q96.675 108.49479 97.3625 109.229164Q98.06563 109.947914 99.09688 109.947914Q99.87813 109.947914 100.425 109.541664Q100.97188 109.135414 101.28438 108.24479ZM96.675 105.96354L101.3 105.96354Q101.20625 104.916664 100.76875 104.40104Q100.09688 103.58854 99.03438 103.58854Q98.06563 103.58854 97.39375 104.24479Q96.7375 104.885414 96.675 105.96354ZM115.15938 109.55729Q114.45625 110.33854 113.62813 110.729164Q112.81563 111.11979 111.8625 111.11979Q110.1125 111.11979 109.08125 109.916664Q108.2375 108.947914 108.2375 107.760414Q108.2375 106.697914 108.925 105.83854Q109.6125 104.979164 110.97188 104.33854Q110.19063 103.447914 109.925 102.90104Q109.675 102.33854 109.675 101.822914Q109.675 100.791664 110.4875 100.02604Q111.3 99.260414 112.51875 99.260414Q113.69063 99.260414 114.44063 99.979164Q115.19063 100.697914 115.19063 101.71354Q115.19063 103.33854 113.01875 104.49479L115.08125 107.11979Q115.425 106.43229 115.62813 105.52604L117.08125 105.83854Q116.70625 107.33854 116.06563 108.30729Q116.8625 109.354164 117.8625 110.05729L116.90938 111.18229Q116.06563 110.635414 115.15938 109.55729ZM112.3 103.58854Q113.20625 103.05729 113.47188 102.65104Q113.75313 102.24479 113.75313 101.74479Q113.75313 101.166664 113.37813 100.791664Q113.00313 100.416664 112.45625 100.416664Q111.87813 100.416664 111.50313 100.791664Q111.12813 101.15104 111.12813 101.68229Q111.12813 101.947914 111.25313 102.24479Q111.39375 102.541664 111.675 102.86979L112.3 103.58854ZM114.26875 108.447914L111.69063 105.260414Q110.55 105.93229 110.14375 106.52604Q109.75313 107.104164 109.75313 107.666664Q109.75313 108.36979 110.3 109.11979Q110.8625 109.86979 111.87813 109.86979Q112.51875 109.86979 113.19063 109.479164Q113.8625 109.072914 114.26875 108.447914Z" fill-rule="nonzero"/><path fill="#9e9e9e" d="M21.378124 126.69792Q20.503124 126.38542 20.08125 125.79167Q19.659374 125.19792 19.659374 124.3698Q19.659374 123.1198 20.55 122.27605Q21.45625 121.41667 22.95625 121.41667Q24.45625 121.41667 25.3625 122.29167Q26.284374 123.15105 26.284374 124.40105Q26.284374 125.19792 25.8625 125.79167Q25.440624 126.38542 24.596874 126.69792Q25.64375 127.04167 26.190624 127.8073Q26.753124 128.57292 26.753124 129.63542Q26.753124 131.10417 25.70625 132.1198Q24.675 133.1198 22.971874 133.1198Q21.284374 133.1198 20.2375 132.1198Q19.20625 131.10417 19.20625 129.60417Q19.20625 128.47917 19.76875 127.72917Q20.33125 126.97917 21.378124 126.69792ZM21.096874 124.32292Q21.096874 125.13542 21.6125 125.65105Q22.14375 126.16667 22.9875 126.16667Q23.8 126.16667 24.315624 125.65105Q24.83125 125.13542 24.83125 124.40105Q24.83125 123.6198 24.3 123.10417Q23.76875 122.57292 22.971874 122.57292Q22.159374 122.57292 21.628124 123.08855Q21.096874 123.60417 21.096874 124.32292ZM20.64375 129.60417Q20.64375 130.21355 20.925 130.77605Q21.221874 131.33855 21.784374 131.65105Q22.346874 131.94792 22.9875 131.94792Q24.003124 131.94792 24.659374 131.3073Q25.315624 130.65105 25.315624 129.65105Q25.315624 128.63542 24.628124 127.97917Q23.95625 127.3073 22.940624 127.3073Q21.95625 127.3073 21.3 127.96355Q20.64375 128.6198 20.64375 129.60417ZM29.003124 132.91667L29.003124 131.3073L30.6125 131.3073L30.6125 132.91667L29.003124 132.91667ZM32.221874 129.88542L33.628124 129.69792Q33.878124 130.90105 34.45625 131.4323Q35.034374 131.94792 35.878124 131.94792Q36.8625 131.94792 37.55 131.26042Q38.2375 130.57292 38.2375 129.5573Q38.2375 128.58855 37.596874 127.96355Q36.971874 127.33855 35.9875 127.33855Q35.596874 127.33855 35.003124 127.4948L35.159374 126.26042Q35.3 126.27605 35.378124 126.27605Q36.284374 126.27605 37.003124 125.8073Q37.721874 125.33855 37.721874 124.35417Q37.721874 123.58855 37.190624 123.08855Q36.675 122.57292 35.846874 122.57292Q35.01875 122.57292 34.471874 123.08855Q33.925 123.60417 33.76875 124.63542L32.3625 124.38542Q32.628124 122.96355 33.534374 122.19792Q34.45625 121.41667 35.815624 121.41667Q36.753124 121.41667 37.534374 121.82292Q38.33125 122.21355 38.7375 122.91667Q39.159374 123.60417 39.159374 124.38542Q39.159374 125.13542 38.753124 125.7448Q38.3625 126.35417 37.58125 126.71355Q38.596874 126.94792 39.159374 127.6823Q39.721874 128.41667 39.721874 129.52605Q39.721874 131.02605 38.628124 132.07292Q37.534374 133.1198 35.8625 133.1198Q34.3625 133.1198 33.3625 132.22917Q32.3625 131.32292 32.221874 129.88542ZM41.4875 124.21355Q41.4875 122.97917 42.096874 122.1198Q42.721874 121.26042 43.89375 121.26042Q44.971874 121.26042 45.675 122.04167Q46.378124 122.8073 46.378124 124.29167Q46.378124 125.7448 45.659374 126.54167Q44.95625 127.32292 43.909374 127.32292Q42.8625 127.32292 42.175 126.5573Q41.4875 125.77605 41.4875 124.21355ZM43.925 122.22917Q43.409374 122.22917 43.05 122.6823Q42.70625 123.13542 42.70625 124.35417Q42.70625 125.44792 43.05 125.90105Q43.409374 126.35417 43.925 126.35417Q44.45625 126.35417 44.8 125.90105Q45.159374 125.44792 45.159374 124.2448Q45.159374 123.13542 44.8 122.6823Q44.45625 122.22917 43.925 122.22917ZM43.940624 133.33855L50.20625 121.26042L51.346874 121.26042L45.096874 133.33855L43.940624 133.33855ZM48.89375 130.22917Q48.89375 128.9948 49.503124 128.13542Q50.128124 127.27605 51.3 127.27605Q52.378124 127.27605 53.08125 128.0573Q53.8 128.82292 53.8 130.3073Q53.8 131.76042 53.08125 132.5573Q52.3625 133.33855 51.315624 133.33855Q50.26875 133.33855 49.58125 132.5573Q48.89375 131.77605 48.89375 130.22917ZM51.346874 128.2448Q50.815624 128.2448 50.45625 128.69792Q50.1125 129.15105 50.1125 130.3698Q50.1125 131.46355 50.45625 131.91667Q50.815624 132.3698 51.33125 132.3698Q51.878124 132.3698 52.221874 131.91667Q52.565624 131.46355 52.565624 130.26042Q52.565624 129.15105 52.20625 128.69792Q51.8625 128.2448 51.346874 128.2448Z" fill-rule="nonzero"/><path stroke="#757575" stroke-width="1.0" stroke-linecap="butt" d="M18.55 116.416664L145.23334 116.416664L200.06578 103.74911" fill-rule="nonzero"/><path fill="#9e9e9e" d="M202.06578 103.74911C202.06578 102.64454 201.17035 101.74911 200.06578 101.74911C198.96121 101.74911 198.06578 102.64454 198.06578 103.74911C198.06578 104.85368 198.96121 105.74911 200.06578 105.74911C201.17035 105.74911 202.06578 104.85368 202.06578 103.74911" fill-rule="nonzero"/><path fill="#efefef" d="M19.7375 252.26735L19.7375 240.81422L22.01875 240.81422L24.7375 248.9236Q25.1125 250.0486 25.284374 250.6111Q25.471874 249.9861 25.89375 248.78297L28.628124 240.81422L30.675 240.81422L30.675 252.26735L29.20625 252.26735L29.20625 242.6736L25.878124 252.26735L24.51875 252.26735L21.20625 242.51735L21.20625 252.26735L19.7375 252.26735ZM32.6125 242.4236L32.6125 240.81422L34.01875 240.81422L34.01875 242.4236L32.6125 242.4236ZM32.6125 252.26735L32.6125 243.97047L34.01875 243.97047L34.01875 252.26735L32.6125 252.26735ZM36.58125 252.26735L36.58125 240.81422L37.9875 240.81422L37.9875 252.26735L36.58125 252.26735ZM40.6125 242.4236L40.6125 240.81422L42.01875 240.81422L42.01875 242.4236L40.6125 242.4236ZM40.6125 252.26735L40.6125 243.97047L42.01875 243.97047L42.01875 252.26735L40.6125 252.26735ZM47.675 251.00172L47.878124 252.25172Q47.284374 252.37672 46.815624 252.37672Q46.05 252.37672 45.628124 252.14235Q45.20625 251.89235 45.034374 251.50172Q44.8625 251.09547 44.8625 249.82985L44.8625 245.06422L43.83125 245.06422L43.83125 243.97047L44.8625 243.97047L44.8625 241.90797L46.26875 241.06422L46.26875 243.97047L47.675 243.97047L47.675 245.06422L46.26875 245.06422L46.26875 249.90797Q46.26875 250.51735 46.33125 250.68922Q46.409374 250.8611 46.58125 250.97047Q46.753124 251.06422 47.065624 251.06422Q47.3 251.06422 47.675 251.00172ZM54.01875 251.2361Q53.2375 251.90797 52.51875 252.18922Q51.8 252.45485 50.971874 252.45485Q49.596874 252.45485 48.8625 251.78297Q48.128124 251.1111 48.128124 250.07985Q48.128124 249.47047 48.409374 248.97047Q48.690624 248.45485 49.128124 248.15797Q49.58125 247.84547 50.14375 247.68922Q50.565624 247.57985 51.39375 247.4861Q53.096874 247.28297 53.909374 247.00172Q53.909374 246.70485 53.909374 246.62672Q53.909374 245.76735 53.51875 245.4236Q52.971874 244.93922 51.909374 244.93922Q50.925 244.93922 50.440624 245.2986Q49.971874 245.64235 49.753124 246.51735L48.378124 246.32985Q48.565624 245.45485 48.9875 244.90797Q49.425 244.3611 50.2375 244.07985Q51.05 243.78297 52.1125 243.78297Q53.175 243.78297 53.83125 244.03297Q54.503124 244.28297 54.815624 244.65797Q55.128124 245.03297 55.253124 245.6111Q55.33125 245.97047 55.33125 246.90797L55.33125 248.78297Q55.33125 250.75172 55.409374 251.26735Q55.503124 251.78297 55.76875 252.26735L54.3 252.26735Q54.08125 251.82985 54.01875 251.2361ZM53.909374 248.09547Q53.14375 248.40797 51.6125 248.62672Q50.7375 248.75172 50.378124 248.90797Q50.01875 249.06422 49.815624 249.37672Q49.628124 249.6736 49.628124 250.03297Q49.628124 250.59547 50.05 250.97047Q50.4875 251.34547 51.3 251.34547Q52.1125 251.34547 52.7375 251.00172Q53.378124 250.64235 53.675 250.01735Q53.909374 249.5486 53.909374 248.6111L53.909374 248.09547ZM57.596874 252.26735L57.596874 243.97047L58.8625 243.97047L58.8625 245.22047Q59.346874 244.34547 59.753124 244.06422Q60.159374 243.78297 60.659374 243.78297Q61.3625 243.78297 62.096874 244.2361L61.6125 245.53297Q61.096874 245.2361 60.58125 245.2361Q60.128124 245.2361 59.753124 245.51735Q59.39375 245.78297 59.2375 246.28297Q59.003124 247.03297 59.003124 247.9236L59.003124 252.26735L57.596874 252.26735ZM62.55 255.47047L62.39375 254.14235Q62.846874 254.26735 63.190624 254.26735Q63.659374 254.26735 63.940624 254.1111Q64.22188 253.95485 64.40938 253.6736Q64.53438 253.47047 64.83125 252.62672Q64.87813 252.51735 64.95625 252.28297L61.815624 243.97047L63.33125 243.97047L65.05 248.76735Q65.39375 249.68922 65.65938 250.68922Q65.89375 249.72047 66.2375 248.7986L68.00313 243.97047L69.40938 243.97047L66.25313 252.40797Q65.75313 253.78297 65.47188 254.2986Q65.09688 254.9861 64.6125 255.31422Q64.12813 255.64235 63.45625 255.64235Q63.05 255.64235 62.55 255.47047Z" fill-rule="nonzero"/><path fill="#9e9e9e" d="M26.6125 272.90796L26.6125 274.26733L19.034374 274.26733Q19.01875 273.7517 19.20625 273.28296Q19.4875 272.51733 20.128124 271.76733Q20.76875 271.01733 21.971874 270.03296Q23.83125 268.5017 24.4875 267.61108Q25.14375 266.70483 25.14375 265.90796Q25.14375 265.07983 24.55 264.5017Q23.95625 263.92358 22.9875 263.92358Q21.971874 263.92358 21.3625 264.53296Q20.753124 265.14233 20.753124 266.22046L19.3 266.07983Q19.45625 264.45483 20.425 263.61108Q21.39375 262.76733 23.01875 262.76733Q24.675 262.76733 25.628124 263.6892Q26.596874 264.59546 26.596874 265.9392Q26.596874 266.6267 26.315624 267.29858Q26.034374 267.95483 25.378124 268.6892Q24.721874 269.42358 23.20625 270.70483Q21.940624 271.76733 21.58125 272.15796Q21.221874 272.53296 20.9875 272.90796L26.6125 272.90796ZM28.425 271.61108L29.784374 271.48608Q29.95625 272.4392 30.440624 272.8767Q30.925 273.29858 31.675 273.29858Q32.33125 273.29858 32.815624 273.0017Q33.3 272.70483 33.6125 272.22046Q33.925 271.72046 34.128124 270.8767Q34.346874 270.03296 34.346874 269.15796Q34.346874 269.0642 34.346874 268.8767Q33.925 269.54858 33.190624 269.97046Q32.45625 270.3767 31.6125 270.3767Q30.190624 270.3767 29.20625 269.34546Q28.221874 268.3142 28.221874 266.6267Q28.221874 264.89233 29.2375 263.82983Q30.26875 262.76733 31.815624 262.76733Q32.940624 262.76733 33.8625 263.3767Q34.784374 263.97046 35.26875 265.07983Q35.753124 266.1892 35.753124 268.29858Q35.753124 270.5017 35.26875 271.79858Q34.8 273.09546 33.846874 273.78296Q32.909374 274.47046 31.64375 274.47046Q30.3 274.47046 29.440624 273.72046Q28.596874 272.97046 28.425 271.61108ZM34.190624 266.5642Q34.190624 265.34546 33.534374 264.64233Q32.89375 263.92358 31.9875 263.92358Q31.05 263.92358 30.346874 264.6892Q29.659374 265.45483 29.659374 266.67358Q29.659374 267.76733 30.315624 268.45483Q30.9875 269.14233 31.95625 269.14233Q32.925 269.14233 33.55 268.45483Q34.190624 267.76733 34.190624 266.5642ZM38.003124 274.26733L38.003124 272.65796L39.6125 272.65796L39.6125 274.26733L38.003124 274.26733ZM48.6125 272.90796L48.6125 274.26733L41.034374 274.26733Q41.01875 273.7517 41.20625 273.28296Q41.4875 272.51733 42.128124 271.76733Q42.76875 271.01733 43.971874 270.03296Q45.83125 268.5017 46.4875 267.61108Q47.14375 266.70483 47.14375 265.90796Q47.14375 265.07983 46.55 264.5017Q45.95625 263.92358 44.9875 263.92358Q43.971874 263.92358 43.3625 264.53296Q42.753124 265.14233 42.753124 266.22046L41.3 266.07983Q41.45625 264.45483 42.425 263.61108Q43.39375 262.76733 45.01875 262.76733Q46.675 262.76733 47.628124 263.6892Q48.596874 264.59546 48.596874 265.9392Q48.596874 266.6267 48.315624 267.29858Q48.034374 267.95483 47.378124 268.6892Q46.721874 269.42358 45.20625 270.70483Q43.940624 271.76733 43.58125 272.15796Q43.221874 272.53296 42.9875 272.90796L48.6125 272.90796ZM50.4875 265.5642Q50.4875 264.32983 51.096874 263.47046Q51.721874 262.61108 52.89375 262.61108Q53.971874 262.61108 54.675 263.39233Q55.378124 264.15796 55.378124 265.64233Q55.378124 267.09546 54.659374 267.89233Q53.95625 268.67358 52.909374 268.67358Q51.8625 268.67358 51.175 267.90796Q50.4875 267.1267 50.4875 265.5642ZM52.925 263.57983Q52.409374 263.57983 52.05 264.03296Q51.70625 264.48608 51.70625 265.70483Q51.70625 266.79858 52.05 267.2517Q52.409374 267.70483 52.925 267.70483Q53.45625 267.70483 53.8 267.2517Q54.159374 266.79858 54.159374 265.59546Q54.159374 264.48608 53.8 264.03296Q53.45625 263.57983 52.925 263.57983ZM52.940624 274.6892L59.20625 262.61108L60.346874 262.61108L54.096874 274.6892L52.940624 274.6892ZM57.89375 271.57983Q57.89375 270.34546 58.503124 269.48608Q59.128124 268.6267 60.3 268.6267Q61.378124 268.6267 62.08125 269.40796Q62.8 270.17358 62.8 271.65796Q62.8 273.11108 62.08125 273.90796Q61.3625 274.6892 60.315624 274.6892Q59.26875 274.6892 58.58125 273.90796Q57.89375 273.1267 57.89375 271.57983ZM60.346874 269.59546Q59.815624 269.59546 59.45625 270.04858Q59.1125 270.5017 59.1125 271.72046Q59.1125 272.8142 59.45625 273.26733Q59.815624 273.72046 60.33125 273.72046Q60.878124 273.72046 61.221874 273.26733Q61.565624 272.8142 61.565624 271.61108Q61.565624 270.5017 61.20625 270.04858Q60.8625 269.59546 60.346874 269.59546Z" fill-rule="nonzero"/><path stroke="#757575" stroke-width="1.0" stroke-linecap="butt" d="M18.55 257.76733L145.23334 257.76733L169.42964 257.76733" fill-rule="nonzero"/><path fill="#9e9e9e" d="M171.42964 257.76733C171.42964 256.66278 170.53421 255.76735 169.42964 255.76735C168.32507 255.76735 167.42964 256.66278 167.42964 257.76733C167.42964 258.87192 168.32507 259.76733 169.42964 259.76733C170.53421 259.76733 171.42964 258.87192 171.42964 257.76733" fill-rule="nonzero"/><path fill="#efefef" d="M481.71564 127.519165L481.71564 116.06604L489.9969 116.06604L489.9969 117.40979L483.23126 117.40979L483.23126 120.925415L489.575 120.925415L489.575 122.269165L483.23126 122.269165L483.23126 126.15979L490.2625 126.15979L490.2625 127.519165L481.71564 127.519165ZM495.575 126.25354L495.77814 127.50354Q495.1844 127.62854 494.71564 127.62854Q493.95 127.62854 493.52814 127.394165Q493.10626 127.144165 492.9344 126.75354Q492.7625 126.34729 492.7625 125.081665L492.7625 120.31604L491.73126 120.31604L491.73126 119.22229L492.7625 119.22229L492.7625 117.15979L494.16876 116.31604L494.16876 119.22229L495.575 119.22229L495.575 120.31604L494.16876 120.31604L494.16876 125.15979Q494.16876 125.769165 494.23126 125.94104Q494.3094 126.112915 494.48126 126.22229Q494.65314 126.31604 494.96564 126.31604Q495.2 126.31604 495.575 126.25354ZM496.5125 127.519165L496.5125 116.06604L497.91876 116.06604L497.91876 120.175415Q498.90314 119.03479 500.40314 119.03479Q501.325 119.03479 501.9969 119.394165Q502.6844 119.75354 502.96564 120.394165Q503.2625 121.03479 503.2625 122.25354L503.2625 127.519165L501.85626 127.519165L501.85626 122.25354Q501.85626 121.206665 501.40314 120.72229Q500.95 120.237915 500.10626 120.237915Q499.48126 120.237915 498.9344 120.56604Q498.3875 120.894165 498.15314 121.456665Q497.91876 122.00354 497.91876 122.97229L497.91876 127.519165L496.5125 127.519165ZM505.5125 127.519165L505.5125 119.22229L506.77814 119.22229L506.77814 120.394165Q507.6844 119.03479 509.41876 119.03479Q510.16876 119.03479 510.79376 119.300415Q511.41876 119.56604 511.73126 120.00354Q512.04376 120.44104 512.16876 121.050415Q512.2469 121.44104 512.2469 122.40979L512.2469 127.519165L510.84064 127.519165L510.84064 122.47229Q510.84064 121.612915 510.66876 121.19104Q510.5125 120.75354 510.09064 120.50354Q509.6844 120.25354 509.1219 120.25354Q508.21564 120.25354 507.5594 120.831665Q506.91876 121.394165 506.91876 122.987915L506.91876 127.519165L505.5125 127.519165ZM514.5125 117.675415L514.5125 116.06604L515.91876 116.06604L515.91876 117.675415L514.5125 117.675415ZM514.5125 127.519165L514.5125 119.22229L515.91876 119.22229L515.91876 127.519165L514.5125 127.519165ZM523.91876 124.47229L525.3094 124.65979Q525.075 126.081665 524.1375 126.894165Q523.21564 127.706665 521.85626 127.706665Q520.15314 127.706665 519.10626 126.59729Q518.075 125.47229 518.075 123.394165Q518.075 122.050415 518.5125 121.050415Q518.96564 120.03479 519.8719 119.53479Q520.79376 119.03479 521.85626 119.03479Q523.21564 119.03479 524.075 119.72229Q524.9344 120.394165 525.16876 121.65979L523.8094 121.862915Q523.60626 121.03479 523.10626 120.612915Q522.6219 120.19104 521.91876 120.19104Q520.85626 120.19104 520.1844 120.956665Q519.52814 121.706665 519.52814 123.362915Q519.52814 125.03479 520.16876 125.800415Q520.8094 126.550415 521.84064 126.550415Q522.66876 126.550415 523.21564 126.050415Q523.77814 125.53479 523.91876 124.47229ZM536.04376 123.019165L536.04376 121.675415L540.90314 121.675415L540.90314 125.925415Q539.77814 126.81604 538.59064 127.269165Q537.40314 127.72229 536.15314 127.72229Q534.46564 127.72229 533.09064 127.00354Q531.71564 126.269165 531.0125 124.90979Q530.3094 123.53479 530.3094 121.84729Q530.3094 120.175415 530.9969 118.72229Q531.7 117.269165 533.0125 116.56604Q534.325 115.862915 536.04376 115.862915Q537.27814 115.862915 538.27814 116.269165Q539.29376 116.675415 539.85626 117.394165Q540.4344 118.112915 540.73126 119.269165L539.35626 119.644165Q539.10626 118.769165 538.71564 118.269165Q538.34064 117.769165 537.6219 117.47229Q536.91876 117.15979 536.04376 117.15979Q535.0125 117.15979 534.2469 117.487915Q533.4969 117.800415 533.02814 118.31604Q532.5594 118.831665 532.3094 119.44104Q531.8719 120.50354 531.8719 121.75354Q531.8719 123.28479 532.3875 124.31604Q532.91876 125.34729 533.91876 125.84729Q534.9344 126.34729 536.075 126.34729Q537.0594 126.34729 537.9969 125.97229Q538.9344 125.581665 539.41876 125.15979L539.41876 123.019165L536.04376 123.019165ZM542.4969 127.519165L542.4969 119.22229L543.7625 119.22229L543.7625 120.47229Q544.2469 119.59729 544.65314 119.31604Q545.0594 119.03479 545.5594 119.03479Q546.2625 119.03479 546.9969 119.487915L546.5125 120.78479Q545.9969 120.487915 545.48126 120.487915Q545.02814 120.487915 544.65314 120.769165Q544.29376 121.03479 544.1375 121.53479Q543.90314 122.28479 543.90314 123.175415L543.90314 127.519165L542.4969 127.519165ZM546.98126 123.362915Q546.98126 121.06604 548.2625 119.956665Q549.34064 119.03479 550.8719 119.03479Q552.59064 119.03479 553.66876 120.15979Q554.7625 121.269165 554.7625 123.25354Q554.7625 124.84729 554.27814 125.769165Q553.79376 126.69104 552.8719 127.206665Q551.96564 127.706665 550.8719 127.706665Q549.1375 127.706665 548.0594 126.59729Q546.98126 125.47229 546.98126 123.362915ZM548.4344 123.362915Q548.4344 124.956665 549.1219 125.75354Q549.825 126.550415 550.8719 126.550415Q551.91876 126.550415 552.60626 125.75354Q553.3094 124.956665 553.3094 123.31604Q553.3094 121.78479 552.60626 120.987915Q551.91876 120.19104 550.8719 120.19104Q549.825 120.19104 549.1219 120.987915Q548.4344 121.769165 548.4344 123.362915ZM561.95 127.519165L561.95 126.300415Q560.98126 127.706665 559.3094 127.706665Q558.575 127.706665 557.9344 127.425415Q557.3094 127.144165 556.9969 126.72229Q556.6844 126.28479 556.5594 125.675415Q556.48126 125.25354 556.48126 124.362915L556.48126 119.22229L557.8875 119.22229L557.8875 123.81604Q557.8875 124.925415 557.96564 125.300415Q558.10626 125.862915 558.52814 126.175415Q558.96564 126.487915 559.59064 126.487915Q560.23126 126.487915 560.77814 126.175415Q561.34064 125.84729 561.5594 125.28479Q561.79376 124.72229 561.79376 123.65979L561.79376 119.22229L563.2 119.22229L563.2 127.519165L561.95 127.519165ZM565.5125 130.70667L565.5125 119.22229L566.79376 119.22229L566.79376 120.300415Q567.2469 119.65979 567.8094 119.34729Q568.3875 119.03479 569.2 119.03479Q570.2625 119.03479 571.075 119.581665Q571.8875 120.12854 572.29376 121.12854Q572.71564 122.112915 572.71564 123.300415Q572.71564 124.581665 572.2469 125.59729Q571.79376 126.612915 570.91876 127.15979Q570.0594 127.706665 569.09064 127.706665Q568.3875 127.706665 567.825 127.40979Q567.27814 127.112915 566.91876 126.65979L566.91876 130.70667L565.5125 130.70667ZM566.77814 123.40979Q566.77814 125.019165 567.41876 125.78479Q568.075 126.550415 568.9969 126.550415Q569.9344 126.550415 570.60626 125.75354Q571.27814 124.956665 571.27814 123.300415Q571.27814 121.706665 570.6219 120.925415Q569.96564 120.12854 569.0594 120.12854Q568.16876 120.12854 567.46564 120.97229Q566.77814 121.81604 566.77814 123.40979ZM573.95 125.03479L575.34064 124.81604Q575.45 125.65979 575.98126 126.112915Q576.52814 126.550415 577.48126 126.550415Q578.45 126.550415 578.91876 126.15979Q579.3875 125.75354 579.3875 125.22229Q579.3875 124.75354 578.98126 124.47229Q578.6844 124.28479 577.54376 124.00354Q575.9969 123.612915 575.3875 123.331665Q574.79376 123.03479 574.48126 122.53479Q574.1844 122.03479 574.1844 121.425415Q574.1844 120.862915 574.4344 120.394165Q574.6844 119.925415 575.1219 119.612915Q575.45 119.362915 576.0125 119.206665Q576.59064 119.03479 577.23126 119.03479Q578.21564 119.03479 578.95 119.31604Q579.6844 119.59729 580.02814 120.081665Q580.3875 120.550415 580.52814 121.362915L579.15314 121.550415Q579.0594 120.90979 578.60626 120.550415Q578.15314 120.19104 577.34064 120.19104Q576.3719 120.19104 575.95 120.519165Q575.54376 120.831665 575.54376 121.25354Q575.54376 121.53479 575.71564 121.75354Q575.8875 121.97229 576.2469 122.12854Q576.46564 122.206665 577.4969 122.487915Q578.98126 122.87854 579.575 123.144165Q580.16876 123.394165 580.4969 123.87854Q580.84064 124.362915 580.84064 125.081665Q580.84064 125.78479 580.41876 126.40979Q580.0125 127.019165 579.23126 127.362915Q578.46564 127.706665 577.4969 127.706665Q575.8719 127.706665 575.02814 127.03479Q574.1844 126.362915 573.95 125.03479Z" fill-rule="nonzero"/><path fill="#9e9e9e" d="M537.1219 146.48792L538.52814 146.30042Q538.77814 147.50354 539.35626 148.03479Q539.9344 148.55042 540.77814 148.55042Q541.7625 148.55042 542.45 147.86292Q543.1375 147.17542 543.1375 146.15979Q543.1375 145.19104 542.4969 144.56604Q541.8719 143.94104 540.8875 143.94104Q540.4969 143.94104 539.90314 144.09729L540.0594 142.86292Q540.2 142.87854 540.27814 142.87854Q541.1844 142.87854 541.90314 142.40979Q542.6219 141.94104 542.6219 140.95667Q542.6219 140.19104 542.09064 139.69104Q541.575 139.17542 540.7469 139.17542Q539.91876 139.17542 539.3719 139.69104Q538.825 140.20667 538.66876 141.23792L537.2625 140.98792Q537.52814 139.56604 538.4344 138.80042Q539.35626 138.01917 540.71564 138.01917Q541.65314 138.01917 542.4344 138.42542Q543.23126 138.81604 543.6375 139.51917Q544.0594 140.20667 544.0594 140.98792Q544.0594 141.73792 543.65314 142.34729Q543.2625 142.95667 542.48126 143.31604Q543.4969 143.55042 544.0594 144.28479Q544.6219 145.01917 544.6219 146.12854Q544.6219 147.62854 543.52814 148.67542Q542.4344 149.72229 540.7625 149.72229Q539.2625 149.72229 538.2625 148.83167Q537.2625 147.92542 537.1219 146.48792ZM546.1219 146.48792L547.52814 146.30042Q547.77814 147.50354 548.35626 148.03479Q548.9344 148.55042 549.77814 148.55042Q550.7625 148.55042 551.45 147.86292Q552.1375 147.17542 552.1375 146.15979Q552.1375 145.19104 551.4969 144.56604Q550.8719 143.94104 549.8875 143.94104Q549.4969 143.94104 548.90314 144.09729L549.0594 142.86292Q549.2 142.87854 549.27814 142.87854Q550.1844 142.87854 550.90314 142.40979Q551.6219 141.94104 551.6219 140.95667Q551.6219 140.19104 551.09064 139.69104Q550.575 139.17542 549.7469 139.17542Q548.91876 139.17542 548.3719 139.69104Q547.825 140.20667 547.66876 141.23792L546.2625 140.98792Q546.52814 139.56604 547.4344 138.80042Q548.35626 138.01917 549.71564 138.01917Q550.65314 138.01917 551.4344 138.42542Q552.23126 138.81604 552.6375 139.51917Q553.0594 140.20667 553.0594 140.98792Q553.0594 141.73792 552.65314 142.34729Q552.2625 142.95667 551.48126 143.31604Q552.4969 143.55042 553.0594 144.28479Q553.6219 145.01917 553.6219 146.12854Q553.6219 147.62854 552.52814 148.67542Q551.4344 149.72229 549.7625 149.72229Q548.2625 149.72229 547.2625 148.83167Q546.2625 147.92542 546.1219 146.48792ZM555.90314 149.51917L555.90314 147.90979L557.5125 147.90979L557.5125 149.51917L555.90314 149.51917ZM559.1219 146.48792L560.52814 146.30042Q560.77814 147.50354 561.35626 148.03479Q561.9344 148.55042 562.77814 148.55042Q563.7625 148.55042 564.45 147.86292Q565.1375 147.17542 565.1375 146.15979Q565.1375 145.19104 564.4969 144.56604Q563.8719 143.94104 562.8875 143.94104Q562.4969 143.94104 561.90314 144.09729L562.0594 142.86292Q562.2 142.87854 562.27814 142.87854Q563.1844 142.87854 563.90314 142.40979Q564.6219 141.94104 564.6219 140.95667Q564.6219 140.19104 564.09064 139.69104Q563.575 139.17542 562.7469 139.17542Q561.91876 139.17542 561.3719 139.69104Q560.825 140.20667 560.66876 141.23792L559.2625 140.98792Q559.52814 139.56604 560.4344 138.80042Q561.35626 138.01917 562.71564 138.01917Q563.65314 138.01917 564.4344 138.42542Q565.23126 138.81604 565.6375 139.51917Q566.0594 140.20667 566.0594 140.98792Q566.0594 141.73792 565.65314 142.34729Q565.2625 142.95667 564.48126 143.31604Q565.4969 143.55042 566.0594 144.28479Q566.6219 145.01917 566.6219 146.12854Q566.6219 147.62854 565.52814 148.67542Q564.4344 149.72229 562.7625 149.72229Q561.2625 149.72229 560.2625 148.83167Q559.2625 147.92542 559.1219 146.48792ZM568.3875 140.81604Q568.3875 139.58167 568.9969 138.72229Q569.6219 137.86292 570.79376 137.86292Q571.8719 137.86292 572.575 138.64417Q573.27814 139.40979 573.27814 140.89417Q573.27814 142.34729 572.5594 143.14417Q571.85626 143.92542 570.8094 143.92542Q569.7625 143.92542 569.075 143.15979Q568.3875 142.37854 568.3875 140.81604ZM570.825 138.83167Q570.3094 138.83167 569.95 139.28479Q569.60626 139.73792 569.60626 140.95667Q569.60626 142.05042 569.95 142.50354Q570.3094 142.95667 570.825 142.95667Q571.35626 142.95667 571.7 142.50354Q572.0594 142.05042 572.0594 140.84729Q572.0594 139.73792 571.7 139.28479Q571.35626 138.83167 570.825 138.83167ZM570.84064 149.94104L577.10626 137.86292L578.2469 137.86292L571.9969 149.94104L570.84064 149.94104ZM575.79376 146.83167Q575.79376 145.59729 576.40314 144.73792Q577.02814 143.87854 578.2 143.87854Q579.27814 143.87854 579.98126 144.65979Q580.7 145.42542 580.7 146.90979Q580.7 148.36292 579.98126 149.15979Q579.2625 149.94104 578.21564 149.94104Q577.16876 149.94104 576.48126 149.15979Q575.79376 148.37854 575.79376 146.83167ZM578.2469 144.84729Q577.71564 144.84729 577.35626 145.30042Q577.0125 145.75354 577.0125 146.97229Q577.0125 148.06604 577.35626 148.51917Q577.71564 148.97229 578.23126 148.97229Q578.77814 148.97229 579.1219 148.51917Q579.46564 148.06604 579.46564 146.86292Q579.46564 145.75354 579.10626 145.30042Q578.7625 144.84729 578.2469 144.84729Z" fill-rule="nonzero"/><path stroke="#757575" stroke-width="1.0" stroke-linecap="butt" d="M581.45 133.01917L454.76666 133.01917L422.39392 133.01917" fill-rule="nonzero"/><path fill="#9e9e9e" d="M424.39392 133.01917C424.39392 131.9146 423.4985 131.01917 422.39392 131.01917C421.28937 131.01917 420.39392 131.9146 420.39392 133.01917C420.39392 134.12373 421.28937 135.01917 422.39392 135.01917C423.4985 135.01917 424.39392 134.12373 424.39392 133.01917" fill-rule="nonzero"/><path fill="#efefef" d="M495.85626 322.4344L497.3719 322.8094Q496.90314 324.6844 495.65314 325.66876Q494.41876 326.65314 492.6375 326.65314Q490.77814 326.65314 489.6219 325.90314Q488.46564 325.1375 487.85626 323.71564Q487.2469 322.27814 487.2469 320.6375Q487.2469 318.84064 487.9344 317.5125Q488.6219 316.1844 489.8719 315.4969Q491.1375 314.79376 492.65314 314.79376Q494.3719 314.79376 495.54376 315.66876Q496.71564 316.54376 497.1844 318.1375L495.6844 318.48126Q495.29376 317.23126 494.52814 316.66876Q493.77814 316.09064 492.6219 316.09064Q491.3094 316.09064 490.41876 316.73126Q489.52814 317.35626 489.16876 318.4344Q488.8094 319.4969 488.8094 320.6219Q488.8094 322.09064 489.23126 323.1844Q489.66876 324.2625 490.5594 324.8094Q491.46564 325.34064 492.5125 325.34064Q493.77814 325.34064 494.65314 324.60626Q495.54376 323.8719 495.85626 322.4344ZM504.95 326.45L504.95 325.23126Q503.98126 326.6375 502.3094 326.6375Q501.575 326.6375 500.9344 326.35626Q500.3094 326.075 499.9969 325.65314Q499.6844 325.21564 499.5594 324.60626Q499.48126 324.1844 499.48126 323.29376L499.48126 318.15314L500.8875 318.15314L500.8875 322.7469Q500.8875 323.85626 500.96564 324.23126Q501.10626 324.79376 501.52814 325.10626Q501.96564 325.41876 502.59064 325.41876Q503.23126 325.41876 503.77814 325.10626Q504.34064 324.77814 504.5594 324.21564Q504.79376 323.65314 504.79376 322.59064L504.79376 318.15314L506.2 318.15314L506.2 326.45L504.95 326.45ZM508.48126 326.45L508.48126 314.9969L509.8875 314.9969L509.8875 326.45L508.48126 326.45ZM515.575 325.1844L515.77814 326.4344Q515.1844 326.5594 514.71564 326.5594Q513.95 326.5594 513.52814 326.325Q513.10626 326.075 512.9344 325.6844Q512.7625 325.27814 512.7625 324.0125L512.7625 319.2469L511.73126 319.2469L511.73126 318.15314L512.7625 318.15314L512.7625 316.09064L514.16876 315.2469L514.16876 318.15314L515.575 318.15314L515.575 319.2469L514.16876 319.2469L514.16876 324.09064Q514.16876 324.7 514.23126 324.8719Q514.3094 325.04376 514.48126 325.15314Q514.65314 325.2469 514.96564 325.2469Q515.2 325.2469 515.575 325.1844ZM521.95 326.45L521.95 325.23126Q520.98126 326.6375 519.3094 326.6375Q518.575 326.6375 517.9344 326.35626Q517.3094 326.075 516.9969 325.65314Q516.6844 325.21564 516.5594 324.60626Q516.48126 324.1844 516.48126 323.29376L516.48126 318.15314L517.8875 318.15314L517.8875 322.7469Q517.8875 323.85626 517.96564 324.23126Q518.10626 324.79376 518.52814 325.10626Q518.96564 325.41876 519.59064 325.41876Q520.23126 325.41876 520.77814 325.10626Q521.34064 324.77814 521.5594 324.21564Q521.79376 323.65314 521.79376 322.59064L521.79376 318.15314L523.2 318.15314L523.2 326.45L521.95 326.45ZM525.4969 326.45L525.4969 318.15314L526.7625 318.15314L526.7625 319.40314Q527.2469 318.52814 527.65314 318.2469Q528.0594 317.96564 528.5594 317.96564Q529.2625 317.96564 529.9969 318.41876L529.5125 319.71564Q528.9969 319.41876 528.48126 319.41876Q528.02814 319.41876 527.65314 319.7Q527.29376 319.96564 527.1375 320.46564Q526.90314 321.21564 526.90314 322.10626L526.90314 326.45L525.4969 326.45ZM535.91876 325.41876Q535.1375 326.09064 534.41876 326.3719Q533.7 326.6375 532.8719 326.6375Q531.4969 326.6375 530.7625 325.96564Q530.02814 325.29376 530.02814 324.2625Q530.02814 323.65314 530.3094 323.15314Q530.59064 322.6375 531.02814 322.34064Q531.48126 322.02814 532.04376 321.8719Q532.46564 321.7625 533.29376 321.66876Q534.9969 321.46564 535.8094 321.1844Q535.8094 320.8875 535.8094 320.8094Q535.8094 319.95 535.41876 319.60626Q534.8719 319.1219 533.8094 319.1219Q532.825 319.1219 532.34064 319.48126Q531.8719 319.825 531.65314 320.7L530.27814 320.5125Q530.46564 319.6375 530.8875 319.09064Q531.325 318.54376 532.1375 318.2625Q532.95 317.96564 534.0125 317.96564Q535.075 317.96564 535.73126 318.21564Q536.40314 318.46564 536.71564 318.84064Q537.02814 319.21564 537.15314 319.79376Q537.23126 320.15314 537.23126 321.09064L537.23126 322.96564Q537.23126 324.9344 537.3094 325.45Q537.40314 325.96564 537.66876 326.45L536.2 326.45Q535.98126 326.0125 535.91876 325.41876ZM535.8094 322.27814Q535.04376 322.59064 533.5125 322.8094Q532.6375 322.9344 532.27814 323.09064Q531.91876 323.2469 531.71564 323.5594Q531.52814 323.85626 531.52814 324.21564Q531.52814 324.77814 531.95 325.15314Q532.3875 325.52814 533.2 325.52814Q534.0125 325.52814 534.6375 325.1844Q535.27814 324.825 535.575 324.2Q535.8094 323.73126 535.8094 322.79376L535.8094 322.27814ZM539.48126 326.45L539.48126 314.9969L540.8875 314.9969L540.8875 326.45L539.48126 326.45ZM546.41876 326.45L550.825 314.9969L552.46564 314.9969L557.15314 326.45L555.41876 326.45L554.09064 322.98126L549.29376 322.98126L548.04376 326.45L546.41876 326.45ZM549.73126 321.7469L553.6219 321.7469L552.41876 318.575Q551.8719 317.1219 551.60626 316.2Q551.3875 317.29376 550.9969 318.3875L549.73126 321.7469ZM563.91876 323.40314L565.3094 323.59064Q565.075 325.0125 564.1375 325.825Q563.21564 326.6375 561.85626 326.6375Q560.15314 326.6375 559.10626 325.52814Q558.075 324.40314 558.075 322.325Q558.075 320.98126 558.5125 319.98126Q558.96564 318.96564 559.8719 318.46564Q560.79376 317.96564 561.85626 317.96564Q563.21564 317.96564 564.075 318.65314Q564.9344 319.325 565.16876 320.59064L563.8094 320.79376Q563.60626 319.96564 563.10626 319.54376Q562.6219 319.1219 561.91876 319.1219Q560.85626 319.1219 560.1844 319.8875Q559.52814 320.6375 559.52814 322.29376Q559.52814 323.96564 560.16876 324.73126Q560.8094 325.48126 561.84064 325.48126Q562.66876 325.48126 563.21564 324.98126Q563.77814 324.46564 563.91876 323.40314ZM569.575 325.1844L569.77814 326.4344Q569.1844 326.5594 568.71564 326.5594Q567.95 326.5594 567.52814 326.325Q567.10626 326.075 566.9344 325.6844Q566.7625 325.27814 566.7625 324.0125L566.7625 319.2469L565.73126 319.2469L565.73126 318.15314L566.7625 318.15314L566.7625 316.09064L568.16876 315.2469L568.16876 318.15314L569.575 318.15314L569.575 319.2469L568.16876 319.2469L568.16876 324.09064Q568.16876 324.7 568.23126 324.8719Q568.3094 325.04376 568.48126 325.15314Q568.65314 325.2469 568.96564 325.2469Q569.2 325.2469 569.575 325.1844ZM569.95 323.96564L571.34064 323.7469Q571.45 324.59064 571.98126 325.04376Q572.52814 325.48126 573.48126 325.48126Q574.45 325.48126 574.91876 325.09064Q575.3875 324.6844 575.3875 324.15314Q575.3875 323.6844 574.98126 323.40314Q574.6844 323.21564 573.54376 322.9344Q571.9969 322.54376 571.3875 322.2625Q570.79376 321.96564 570.48126 321.46564Q570.1844 320.96564 570.1844 320.35626Q570.1844 319.79376 570.4344 319.325Q570.6844 318.85626 571.1219 318.54376Q571.45 318.29376 572.0125 318.1375Q572.59064 317.96564 573.23126 317.96564Q574.21564 317.96564 574.95 318.2469Q575.6844 318.52814 576.02814 319.0125Q576.3875 319.48126 576.52814 320.29376L575.15314 320.48126Q575.0594 319.84064 574.60626 319.48126Q574.15314 319.1219 573.34064 319.1219Q572.3719 319.1219 571.95 319.45Q571.54376 319.7625 571.54376 320.1844Q571.54376 320.46564 571.71564 320.6844Q571.8875 320.90314 572.2469 321.0594Q572.46564 321.1375 573.4969 321.41876Q574.98126 321.8094 575.575 322.075Q576.16876 322.325 576.4969 322.8094Q576.84064 323.29376 576.84064 324.0125Q576.84064 324.71564 576.41876 325.34064Q576.0125 325.95 575.23126 326.29376Q574.46564 326.6375 573.4969 326.6375Q571.8719 326.6375 571.02814 325.96564Q570.1844 325.29376 569.95 323.96564ZM578.90314 326.45L578.90314 324.84064L580.5125 324.84064L580.5125 326.45L578.90314 326.45Z" fill-rule="nonzero"/><path fill="#9e9e9e" d="M544.5125 347.09064L544.5125 348.45L536.9344 348.45Q536.91876 347.9344 537.10626 347.46564Q537.3875 346.7 538.02814 345.95Q538.66876 345.2 539.8719 344.21564Q541.73126 342.6844 542.3875 341.79376Q543.04376 340.8875 543.04376 340.09064Q543.04376 339.2625 542.45 338.6844Q541.85626 338.10626 540.8875 338.10626Q539.8719 338.10626 539.2625 338.71564Q538.65314 339.325 538.65314 340.40314L537.2 340.2625Q537.35626 338.6375 538.325 337.79376Q539.29376 336.95 540.91876 336.95Q542.575 336.95 543.52814 337.8719Q544.4969 338.77814 544.4969 340.1219Q544.4969 340.8094 544.21564 341.48126Q543.9344 342.1375 543.27814 342.8719Q542.6219 343.60626 541.10626 344.8875Q539.84064 345.95 539.48126 346.34064Q539.1219 346.71564 538.8875 347.09064L544.5125 347.09064ZM546.1219 342.79376Q546.1219 340.7625 546.52814 339.52814Q546.95 338.29376 547.77814 337.6219Q548.60626 336.95 549.85626 336.95Q550.77814 336.95 551.46564 337.325Q552.16876 337.6844 552.6219 338.3875Q553.075 339.09064 553.325 340.09064Q553.59064 341.09064 553.59064 342.79376Q553.59064 344.8094 553.16876 346.0594Q552.7625 347.29376 551.9344 347.98126Q551.10626 348.65314 549.85626 348.65314Q548.2 348.65314 547.2469 347.45Q546.1219 346.02814 546.1219 342.79376ZM547.5594 342.79376Q547.5594 345.6219 548.21564 346.5594Q548.8875 347.48126 549.85626 347.48126Q550.825 347.48126 551.48126 346.54376Q552.1375 345.60626 552.1375 342.79376Q552.1375 339.96564 551.48126 339.04376Q550.825 338.10626 549.84064 338.10626Q548.8719 338.10626 548.29376 338.9344Q547.5594 339.98126 547.5594 342.79376ZM555.90314 348.45L555.90314 346.84064L557.5125 346.84064L557.5125 348.45L555.90314 348.45ZM561.27814 342.23126Q560.40314 341.91876 559.98126 341.325Q559.5594 340.73126 559.5594 339.90314Q559.5594 338.65314 560.45 337.8094Q561.35626 336.95 562.85626 336.95Q564.35626 336.95 565.2625 337.825Q566.1844 338.6844 566.1844 339.9344Q566.1844 340.73126 565.7625 341.325Q565.34064 341.91876 564.4969 342.23126Q565.54376 342.575 566.09064 343.34064Q566.65314 344.10626 566.65314 345.16876Q566.65314 346.6375 565.60626 347.65314Q564.575 348.65314 562.8719 348.65314Q561.1844 348.65314 560.1375 347.65314Q559.10626 346.6375 559.10626 345.1375Q559.10626 344.0125 559.66876 343.2625Q560.23126 342.5125 561.27814 342.23126ZM560.9969 339.85626Q560.9969 340.66876 561.5125 341.1844Q562.04376 341.7 562.8875 341.7Q563.7 341.7 564.21564 341.1844Q564.73126 340.66876 564.73126 339.9344Q564.73126 339.15314 564.2 338.6375Q563.66876 338.10626 562.8719 338.10626Q562.0594 338.10626 561.52814 338.6219Q560.9969 339.1375 560.9969 339.85626ZM560.54376 345.1375Q560.54376 345.7469 560.825 346.3094Q561.1219 346.8719 561.6844 347.1844Q562.2469 347.48126 562.8875 347.48126Q563.90314 347.48126 564.5594 346.84064Q565.21564 346.1844 565.21564 345.1844Q565.21564 344.16876 564.52814 343.5125Q563.85626 342.84064 562.84064 342.84064Q561.85626 342.84064 561.2 343.4969Q560.54376 344.15314 560.54376 345.1375ZM568.3875 339.7469Q568.3875 338.5125 568.9969 337.65314Q569.6219 336.79376 570.79376 336.79376Q571.8719 336.79376 572.575 337.575Q573.27814 338.34064 573.27814 339.825Q573.27814 341.27814 572.5594 342.075Q571.85626 342.85626 570.8094 342.85626Q569.7625 342.85626 569.075 342.09064Q568.3875 341.3094 568.3875 339.7469ZM570.825 337.7625Q570.3094 337.7625 569.95 338.21564Q569.60626 338.66876 569.60626 339.8875Q569.60626 340.98126 569.95 341.4344Q570.3094 341.8875 570.825 341.8875Q571.35626 341.8875 571.7 341.4344Q572.0594 340.98126 572.0594 339.77814Q572.0594 338.66876 571.7 338.21564Q571.35626 337.7625 570.825 337.7625ZM570.84064 348.8719L577.10626 336.79376L578.2469 336.79376L571.9969 348.8719L570.84064 348.8719ZM575.79376 345.7625Q575.79376 344.52814 576.40314 343.66876Q577.02814 342.8094 578.2 342.8094Q579.27814 342.8094 579.98126 343.59064Q580.7 344.35626 580.7 345.84064Q580.7 347.29376 579.98126 348.09064Q579.2625 348.8719 578.21564 348.8719Q577.16876 348.8719 576.48126 348.09064Q575.79376 347.3094 575.79376 345.7625ZM578.2469 343.77814Q577.71564 343.77814 577.35626 344.23126Q577.0125 344.6844 577.0125 345.90314Q577.0125 346.9969 577.35626 347.45Q577.71564 347.90314 578.23126 347.90314Q578.77814 347.90314 579.1219 347.45Q579.46564 346.9969 579.46564 345.79376Q579.46564 344.6844 579.10626 344.23126Q578.7625 343.77814 578.2469 343.77814Z" fill-rule="nonzero"/><path stroke="#757575" stroke-width="1.0" stroke-linecap="butt" d="M581.45 331.95L454.76666 331.95L354.084 334.2537" fill-rule="nonzero"/><path fill="#9e9e9e" d="M356.084 334.2537C356.084 333.1491 355.18857 332.2537 354.084 332.2537C352.97943 332.2537 352.084 333.1491 352.084 334.2537C352.084 335.35825 352.97943 336.2537 354.084 336.2537C355.18857 336.2537 356.084 335.35825 356.084 334.2537" fill-rule="nonzero"/><path fill="#f3f3f3" d="M271.26562 32.534374L273.15625 33.003124Q272.5625 35.346874 271.01562 36.58125Q269.46875 37.8 267.21875 37.8Q264.90625 37.8 263.45312 36.8625Q262.01562 35.909374 261.25 34.128124Q260.5 32.33125 260.5 30.284374Q260.5 28.05 261.34375 26.39375Q262.20312 24.721874 263.78125 23.8625Q265.35938 22.9875 267.25 22.9875Q269.40625 22.9875 270.85938 24.08125Q272.32812 25.175 272.90625 27.159374L271.04688 27.596874Q270.54688 26.034374 269.59375 25.33125Q268.65625 24.6125 267.21875 24.6125Q265.5625 24.6125 264.45312 25.409374Q263.34375 26.190624 262.89062 27.534374Q262.45312 28.8625 262.45312 30.26875Q262.45312 32.096874 262.98438 33.471874Q263.51562 34.83125 264.64062 35.503124Q265.76562 36.175 267.0625 36.175Q268.65625 36.175 269.76562 35.253124Q270.875 34.33125 271.26562 32.534374ZM281.59375 36.26875Q280.60938 37.096874 279.70312 37.440624Q278.79688 37.784374 277.76562 37.784374Q276.0625 37.784374 275.14062 36.95625Q274.21875 36.1125 274.21875 34.815624Q274.21875 34.05 274.5625 33.425Q274.92188 32.8 275.48438 32.425Q276.04688 32.034374 276.75 31.83125Q277.26562 31.70625 278.3125 31.565624Q280.4375 31.315624 281.4375 30.971874Q281.45312 30.6125 281.45312 30.503124Q281.45312 29.440624 280.95312 28.9875Q280.28125 28.39375 278.95312 28.39375Q277.70312 28.39375 277.10938 28.83125Q276.53125 29.26875 276.25 30.378124L274.53125 30.14375Q274.76562 29.034374 275.29688 28.3625Q275.82812 27.675 276.84375 27.315624Q277.85938 26.940624 279.20312 26.940624Q280.53125 26.940624 281.35938 27.253124Q282.1875 27.565624 282.57812 28.05Q282.96875 28.51875 283.125 29.2375Q283.21875 29.690624 283.21875 30.8625L283.21875 33.20625Q283.21875 35.659374 283.32812 36.315624Q283.4375 36.95625 283.78125 37.55L281.9375 37.55Q281.67188 37.003124 281.59375 36.26875ZM281.4375 32.346874Q280.48438 32.7375 278.5625 33.003124Q277.48438 33.159374 277.03125 33.3625Q276.59375 33.55 276.34375 33.925Q276.09375 34.3 276.09375 34.76875Q276.09375 35.471874 276.625 35.940624Q277.15625 36.409374 278.1875 36.409374Q279.20312 36.409374 279.98438 35.971874Q280.78125 35.51875 281.15625 34.753124Q281.4375 34.14375 281.4375 32.9875L281.4375 32.346874ZM289.65625 35.971874L289.90625 37.534374Q289.17188 37.690624 288.57812 37.690624Q287.625 37.690624 287.09375 37.39375Q286.57812 37.08125 286.35938 36.596874Q286.14062 36.096874 286.14062 34.51875L286.14062 28.55L284.85938 28.55L284.85938 27.175L286.14062 27.175L286.14062 24.6125L287.89062 23.55L287.89062 27.175L289.65625 27.175L289.65625 28.55L287.89062 28.55L287.89062 34.6125Q287.89062 35.3625 287.98438 35.58125Q288.07812 35.784374 288.28125 35.925Q288.5 36.05 288.89062 36.05Q289.17188 36.05 289.65625 35.971874ZM298.92188 34.20625L300.73438 34.440624Q300.3125 36.01875 299.14062 36.909374Q297.98438 37.784374 296.17188 37.784374Q293.90625 37.784374 292.5625 36.39375Q291.23438 34.9875 291.23438 32.45625Q291.23438 29.83125 292.57812 28.39375Q293.92188 26.940624 296.07812 26.940624Q298.15625 26.940624 299.46875 28.3625Q300.79688 29.76875 300.79688 32.346874Q300.79688 32.503124 300.78125 32.815624L293.04688 32.815624Q293.14062 34.51875 294.01562 35.425Q294.89062 36.33125 296.1875 36.33125Q297.15625 36.33125 297.82812 35.83125Q298.51562 35.315624 298.92188 34.20625ZM293.14062 31.3625L298.9375 31.3625Q298.82812 30.065624 298.28125 29.409374Q297.4375 28.39375 296.09375 28.39375Q294.89062 28.39375 294.0625 29.20625Q293.23438 30.003124 293.14062 31.3625ZM302.5 38.409374L304.20312 38.659374Q304.3125 39.45625 304.79688 39.815624Q305.45312 40.3 306.59375 40.3Q307.8125 40.3 308.46875 39.815624Q309.14062 39.33125 309.375 38.45625Q309.51562 37.909374 309.5 36.190624Q308.34375 37.55 306.625 37.55Q304.48438 37.55 303.3125 36.003124Q302.14062 34.45625 302.14062 32.3Q302.14062 30.815624 302.67188 29.565624Q303.21875 28.315624 304.23438 27.628124Q305.26562 26.940624 306.64062 26.940624Q308.46875 26.940624 309.67188 28.425L309.67188 27.175L311.28125 27.175L311.28125 36.14375Q311.28125 38.565624 310.78125 39.565624Q310.29688 40.58125 309.21875 41.159374Q308.15625 41.753124 306.59375 41.753124Q304.75 41.753124 303.59375 40.925Q302.45312 40.096874 302.5 38.409374ZM303.95312 32.175Q303.95312 34.221874 304.76562 35.159374Q305.57812 36.096874 306.79688 36.096874Q308.0 36.096874 308.8125 35.159374Q309.64062 34.221874 309.64062 32.2375Q309.64062 30.33125 308.79688 29.3625Q307.95312 28.39375 306.76562 28.39375Q305.59375 28.39375 304.76562 29.346874Q303.95312 30.3 303.95312 32.175ZM313.17188 32.3625Q313.17188 29.4875 314.76562 28.096874Q316.10938 26.940624 318.03125 26.940624Q320.17188 26.940624 321.51562 28.346874Q322.875 29.753124 322.875 32.221874Q322.875 34.221874 322.28125 35.378124Q321.6875 36.51875 320.53125 37.159374Q319.39062 37.784374 318.03125 37.784374Q315.84375 37.784374 314.5 36.39375Q313.17188 34.9875 313.17188 32.3625ZM314.96875 32.3625Q314.96875 34.3625 315.82812 35.346874Q316.70312 36.33125 318.03125 36.33125Q319.34375 36.33125 320.20312 35.346874Q321.07812 34.346874 321.07812 32.3Q321.07812 30.378124 320.20312 29.39375Q319.32812 28.39375 318.03125 28.39375Q316.70312 28.39375 315.82812 29.39375Q314.96875 30.378124 314.96875 32.3625ZM324.79688 37.55L324.79688 27.175L326.375 27.175L326.375 28.753124Q326.98438 27.64375 327.5 27.3Q328.01562 26.940624 328.625 26.940624Q329.51562 26.940624 330.4375 27.503124L329.82812 29.14375Q329.1875 28.753124 328.54688 28.753124Q327.96875 28.753124 327.5 29.1125Q327.04688 29.45625 326.84375 30.065624Q326.5625 31.003124 326.5625 32.1125L326.5625 37.55L324.79688 37.55ZM331.73438 41.55L331.54688 39.89375Q332.125 40.05 332.54688 40.05Q333.14062 40.05 333.48438 39.846874Q333.84375 39.659374 334.0625 39.315624Q334.23438 39.05 334.60938 38.003124Q334.65625 37.846874 334.76562 37.565624L330.82812 27.175L332.71875 27.175L334.875 33.190624Q335.29688 34.33125 335.625 35.58125Q335.9375 34.378124 336.34375 33.221874L338.5625 27.175L340.32812 27.175L336.375 37.721874Q335.75 39.440624 335.39062 40.08125Q334.92188 40.95625 334.3125 41.346874Q333.71875 41.753124 332.875 41.753124Q332.35938 41.753124 331.73438 41.55Z" fill-rule="nonzero"/></svg>