<svg version="1.1" viewBox="0.0 0.0 600.0 371.0" fill="none" stroke="none" stroke-linecap="square" stroke-miterlimit="10" width="600" height="371" xmlns:xlink="http://www.w3.org/1999/xlink" xmlns="http://www.w3.org/2000/svg"><path fill="#ffffff" fill-opacity="0.0" d="M0 0L600.0 0L600.0 371.0L0 371.0L0 0Z" fill-rule="nonzero"/><path fill="#304388" d="M300.0 54.916668C316.43622 54.916668 332.75882 57.640427 348.30444 62.977257L312.0761 168.50682C308.1897 167.1726 304.10904 166.49167 300.0 166.49167Z" fill-rule="nonzero"/><path fill="#cf4366" d="M348.30444 62.977257C412.7104 85.087845 453.88184 148.10542 448.25854 215.96838C442.63525 283.83136 391.653 339.21286 324.48618 350.42102L306.12155 240.36775C322.91324 237.56572 335.6588 223.72034 337.06464 206.7546C338.47046 189.78885 328.1776 174.03445 312.0761 168.50682Z" fill-rule="nonzero"/><path fill="#e5a345" d="M151.74144 215.96838C148.3069 174.51965 162.38013 133.52574 190.54881 102.926414C218.71748 72.32707 258.4092 54.916668 300.0 54.916668L300.0 166.49167C289.6023 166.49167 279.67938 170.84427 272.6372 178.49411C265.59503 186.14394 262.07672 196.39241 262.93536 206.7546Z" fill-rule="nonzero"/><path fill="#df8d43" d="M190.54881 304.44025C168.131 280.088 154.4748 248.95502 151.74144 215.96838L262.93536 206.7546C263.6187 215.00125 267.03275 222.7845 272.6372 228.87256Z" fill-rule="nonzero"/><path fill="#d8753e" d="M324.48618 350.42102C274.94083 358.6887 224.56897 341.396 190.54881 304.44025L272.6372 228.87256C281.14224 238.1115 293.7352 242.43466 306.12155 240.36775Z" fill-rule="nonzero"/><path fill="#ffffff" d="M384.75778 218.83792L384.75778 215.7598L379.17966 215.7598L379.17966 214.30667L385.05466 205.9473L386.35153 205.9473L386.35153 214.30667L388.0859 214.30667L388.0859 215.7598L386.35153 215.7598L386.35153 218.83792L384.75778 218.83792ZM384.75778 214.30667L384.75778 208.49417L380.72653 214.30667L384.75778 214.30667ZM398.00778 217.3223L398.00778 218.83792L389.49216 218.83792Q389.47653 218.2598 389.67966 217.74417Q390.00778 216.86917 390.7109 216.02542Q391.42966 215.18167 392.78903 214.0723Q394.88278 212.35355 395.61716 211.35355Q396.36716 210.33792 396.36716 209.4473Q396.36716 208.49417 395.69528 207.85355Q395.0234 207.21292 393.94528 207.21292Q392.78903 207.21292 392.10153 207.90042Q391.42966 208.58792 391.41403 209.79105L389.78903 209.61917Q389.9609 207.80667 391.03903 206.85355Q392.13278 205.90042 393.97653 205.90042Q395.82028 205.90042 396.8984 206.93167Q397.99216 207.96292 397.99216 209.47855Q397.99216 210.24417 397.66403 210.99417Q397.35153 211.74417 396.61716 212.5723Q395.88278 213.40042 394.17966 214.83792Q392.75778 216.04105 392.35153 216.46292Q391.94528 216.8848 391.69528 217.3223L398.00778 217.3223ZM400.5859 218.83792L400.5859 217.04105L402.38278 217.04105L402.38278 218.83792L400.5859 218.83792ZM410.6484 218.83792L409.07028 218.83792L409.07028 208.7598Q408.49216 209.30667 407.57028 209.85355Q406.6484 210.3848 405.8984 210.66605L405.8984 209.1348Q407.22653 208.5098 408.22653 207.61917Q409.22653 206.72855 409.63278 205.90042L410.6484 205.90042L410.6484 218.83792ZM414.99216 209.04105Q414.99216 207.66605 415.67966 206.6973Q416.38278 205.72855 417.69528 205.72855Q418.91403 205.72855 419.7109 206.60355Q420.50778 207.46292 420.50778 209.15042Q420.50778 210.77542 419.69528 211.66605Q418.8984 212.54105 417.7109 212.54105Q416.55466 212.54105 415.7734 211.68167Q414.99216 210.80667 414.99216 209.04105ZM417.74216 206.8223Q417.1484 206.8223 416.75778 207.33792Q416.36716 207.83792 416.36716 209.1973Q416.36716 210.4473 416.75778 210.9473Q417.16403 211.4473 417.74216 211.4473Q418.3359 211.4473 418.72653 210.9473Q419.11716 210.43167 419.11716 209.08792Q419.11716 207.83792 418.72653 207.33792Q418.3359 206.8223 417.74216 206.8223ZM417.75778 219.30667L424.80466 205.72855L426.0859 205.72855L419.05466 219.30667L417.75778 219.30667ZM423.32028 215.80667Q423.32028 214.43167 424.00778 213.46292Q424.7109 212.49417 426.03903 212.49417Q427.25778 212.49417 428.03903 213.36917Q428.8359 214.22855 428.8359 215.91605Q428.8359 217.54105 428.03903 218.43167Q427.24216 219.30667 426.05466 219.30667Q424.88278 219.30667 424.10153 218.43167Q423.32028 217.55667 423.32028 215.80667ZM426.0859 213.58792Q425.49216 213.58792 425.10153 214.10355Q424.7109 214.60355 424.7109 215.97855Q424.7109 217.1973 425.10153 217.71292Q425.49216 218.22855 426.07028 218.22855Q426.67966 218.22855 427.07028 217.71292Q427.4609 217.1973 427.4609 215.85355Q427.4609 214.60355 427.07028 214.10355Q426.67966 213.58792 426.0859 213.58792Z" fill-rule="nonzero"/><path fill="#ffffff" d="M245.93788 312.9075L244.35976 312.9075L244.35976 302.82938Q243.78163 303.37625 242.85976 303.92313Q241.93788 304.45438 241.18788 304.73563L241.18788 303.20438Q242.516 302.57938 243.516 301.68875Q244.516 300.79813 244.92226 299.97L245.93788 299.97L245.93788 312.9075ZM249.98476 309.5325L251.641 309.39188Q251.8285 310.61063 252.50038 311.22Q253.17226 311.82938 254.12538 311.82938Q255.266 311.82938 256.04724 310.97Q256.84412 310.11063 256.84412 308.67313Q256.84412 307.32938 256.0785 306.54813Q255.3285 305.76688 254.09413 305.76688Q253.3285 305.76688 252.7035 306.11063Q252.09413 306.45438 251.75038 307.01688L250.266 306.81375L251.516 300.20438L257.92224 300.20438L257.92224 301.70438L252.78163 301.70438L252.0785 305.17313Q253.25038 304.36063 254.516 304.36063Q256.2035 304.36063 257.35974 305.5325Q258.53162 306.70438 258.53162 308.5325Q258.53162 310.2825 257.50037 311.56375Q256.266 313.12625 254.12538 313.12625Q252.35976 313.12625 251.25038 312.14188Q250.141 311.1575 249.98476 309.5325ZM260.87537 312.9075L260.87537 311.11063L262.67224 311.11063L262.67224 312.9075L260.87537 312.9075ZM267.42224 305.92313Q266.43787 305.56375 265.9535 304.89188Q265.48474 304.22 265.48474 303.29813Q265.48474 301.89188 266.48474 300.93875Q267.50037 299.97 269.18787 299.97Q270.87537 299.97 271.891 300.95438Q272.92224 301.92313 272.92224 303.32938Q272.92224 304.23563 272.4535 304.9075Q271.98474 305.56375 271.03162 305.92313Q272.21912 306.31375 272.8285 307.17313Q273.4535 308.0325 273.4535 309.22Q273.4535 310.87625 272.28162 312.00125Q271.10974 313.12625 269.2035 313.12625Q267.29724 313.12625 266.12537 312.00125Q264.96912 310.86063 264.96912 309.17313Q264.96912 307.92313 265.59412 307.07938Q266.23474 306.22 267.42224 305.92313ZM267.09412 303.23563Q267.09412 304.1575 267.68787 304.73563Q268.28162 305.31375 269.21912 305.31375Q270.12537 305.31375 270.7035 304.73563Q271.29724 304.1575 271.29724 303.32938Q271.29724 302.45438 270.68787 301.86063Q270.09412 301.26688 269.2035 301.26688Q268.29724 301.26688 267.68787 301.845Q267.09412 302.42313 267.09412 303.23563ZM266.59412 309.18875Q266.59412 309.86063 266.90662 310.50125Q267.23474 311.12625 267.85974 311.48563Q268.50037 311.82938 269.23474 311.82938Q270.35974 311.82938 271.09412 311.095Q271.84412 310.36063 271.84412 309.23563Q271.84412 308.095 271.0785 307.36063Q270.31287 306.61063 269.17224 306.61063Q268.06287 306.61063 267.3285 307.345Q266.59412 308.07938 266.59412 309.18875ZM275.28162 303.11063Q275.28162 301.73563 275.96912 300.76688Q276.67224 299.79813 277.98474 299.79813Q279.2035 299.79813 280.00037 300.67313Q280.79724 301.5325 280.79724 303.22Q280.79724 304.845 279.98474 305.73563Q279.18787 306.61063 278.00037 306.61063Q276.84412 306.61063 276.06287 305.75125Q275.28162 304.87625 275.28162 303.11063ZM278.03162 300.89188Q277.43787 300.89188 277.04724 301.4075Q276.65662 301.9075 276.65662 303.26688Q276.65662 304.51688 277.04724 305.01688Q277.4535 305.51688 278.03162 305.51688Q278.62537 305.51688 279.016 305.01688Q279.40662 304.50125 279.40662 303.1575Q279.40662 301.9075 279.016 301.4075Q278.62537 300.89188 278.03162 300.89188ZM278.04724 313.37625L285.09412 299.79813L286.37537 299.79813L279.34412 313.37625L278.04724 313.37625ZM283.60974 309.87625Q283.60974 308.50125 284.29724 307.5325Q285.00037 306.56375 286.3285 306.56375Q287.54724 306.56375 288.3285 307.43875Q289.12537 308.29813 289.12537 309.98563Q289.12537 311.61063 288.3285 312.50125Q287.53162 313.37625 286.34412 313.37625Q285.17224 313.37625 284.391 312.50125Q283.60974 311.62625 283.60974 309.87625ZM286.37537 307.6575Q285.78162 307.6575 285.391 308.17313Q285.00037 308.67313 285.00037 310.04813Q285.00037 311.26688 285.391 311.7825Q285.78162 312.29813 286.35974 312.29813Q286.96912 312.29813 287.35974 311.7825Q287.75037 311.26688 287.75037 309.92313Q287.75037 308.67313 287.35974 308.17313Q286.96912 307.6575 286.37537 307.6575Z" fill-rule="nonzero"/><path fill="#ffffff" d="M188.31499 250.92786L186.73686 250.92786L186.73686 240.84973Q186.15874 241.3966 185.23686 241.94348Q184.31499 242.47473 183.56499 242.75598L183.56499 241.22473Q184.89311 240.59973 185.89311 239.7091Q186.89311 238.81848 187.29936 237.99036L188.31499 237.99036L188.31499 250.92786ZM192.36186 244.56848Q192.36186 242.28723 192.83061 240.8966Q193.29936 239.50598 194.22124 238.75598Q195.15874 237.99036 196.56499 237.99036Q197.59624 237.99036 198.37749 238.41223Q199.15874 238.81848 199.65874 239.61536Q200.17436 240.3966 200.47124 241.53723Q200.76811 242.66223 200.76811 244.56848Q200.76811 246.8341 200.29936 248.24036Q199.83061 249.63098 198.89311 250.3966Q197.97124 251.1466 196.56499 251.1466Q194.68999 251.1466 193.62749 249.81848Q192.36186 248.2091 192.36186 244.56848ZM193.98686 244.56848Q193.98686 247.74036 194.72124 248.80286Q195.47124 249.84973 196.56499 249.84973Q197.64311 249.84973 198.39311 248.80286Q199.14311 247.74036 199.14311 244.56848Q199.14311 241.3966 198.39311 240.34973Q197.64311 239.30286 196.54936 239.30286Q195.45561 239.30286 194.79936 240.22473Q193.98686 241.3966 193.98686 244.56848ZM203.25249 250.92786L203.25249 249.13098L205.04936 249.13098L205.04936 250.92786L203.25249 250.92786ZM207.36186 247.55286L209.01811 247.41223Q209.20561 248.63098 209.87749 249.24036Q210.54936 249.84973 211.50249 249.84973Q212.64311 249.84973 213.42436 248.99036Q214.22124 248.13098 214.22124 246.69348Q214.22124 245.34973 213.45561 244.56848Q212.70561 243.78723 211.47124 243.78723Q210.70561 243.78723 210.08061 244.13098Q209.47124 244.47473 209.12749 245.03723L207.64311 244.8341L208.89311 238.22473L215.29936 238.22473L215.29936 239.72473L210.15874 239.72473L209.45561 243.19348Q210.62749 242.38098 211.89311 242.38098Q213.58061 242.38098 214.73686 243.55286Q215.90874 244.72473 215.90874 246.55286Q215.90874 248.30286 214.87749 249.5841Q213.64311 251.1466 211.50249 251.1466Q209.73686 251.1466 208.62749 250.16223Q207.51811 249.17786 207.36186 247.55286ZM217.65874 241.13098Q217.65874 239.75598 218.34624 238.78723Q219.04936 237.81848 220.36186 237.81848Q221.58061 237.81848 222.37749 238.69348Q223.17436 239.55286 223.17436 241.24036Q223.17436 242.86536 222.36186 243.75598Q221.56499 244.63098 220.37749 244.63098Q219.22124 244.63098 218.43999 243.7716Q217.65874 242.8966 217.65874 241.13098ZM220.40874 238.91223Q219.81499 238.91223 219.42436 239.42786Q219.03374 239.92786 219.03374 241.28723Q219.03374 242.53723 219.42436 243.03723Q219.83061 243.53723 220.40874 243.53723Q221.00249 243.53723 221.39311 243.03723Q221.78374 242.5216 221.78374 241.17786Q221.78374 239.92786 221.39311 239.42786Q221.00249 238.91223 220.40874 238.91223ZM220.42436 251.3966L227.47124 237.81848L228.75249 237.81848L221.72124 251.3966L220.42436 251.3966ZM225.98686 247.8966Q225.98686 246.5216 226.67436 245.55286Q227.37749 244.5841 228.70561 244.5841Q229.92436 244.5841 230.70561 245.4591Q231.50249 246.31848 231.50249 248.00598Q231.50249 249.63098 230.70561 250.5216Q229.90874 251.3966 228.72124 251.3966Q227.54936 251.3966 226.76811 250.5216Q225.98686 249.6466 225.98686 247.8966ZM228.75249 245.67786Q228.15874 245.67786 227.76811 246.19348Q227.37749 246.69348 227.37749 248.06848Q227.37749 249.28723 227.76811 249.80286Q228.15874 250.31848 228.73686 250.31848Q229.34624 250.31848 229.73686 249.80286Q230.12749 249.28723 230.12749 247.94348Q230.12749 246.69348 229.73686 246.19348Q229.34624 245.67786 228.75249 245.67786Z" fill-rule="nonzero"/><path fill="#ffffff" d="M208.79807 139.84221L208.79807 141.35783L200.28244 141.35783Q200.26682 140.77971 200.46994 140.26408Q200.79807 139.38908 201.50119 138.54533Q202.21994 137.70158 203.57932 136.59221Q205.67307 134.87346 206.40744 133.87346Q207.15744 132.85783 207.15744 131.96721Q207.15744 131.01408 206.48557 130.37346Q205.81369 129.73283 204.73557 129.73283Q203.57932 129.73283 202.89182 130.42033Q202.21994 131.10783 202.20432 132.31096L200.57932 132.13908Q200.75119 130.32658 201.82932 129.37346Q202.92307 128.42033 204.76682 128.42033Q206.61057 128.42033 207.68869 129.45158Q208.78244 130.48283 208.78244 131.99846Q208.78244 132.76408 208.45432 133.51408Q208.14182 134.26408 207.40744 135.09221Q206.67307 135.92033 204.96994 137.35783Q203.54807 138.56096 203.14182 138.98283Q202.73557 139.40471 202.48557 139.84221L208.79807 139.84221ZM218.68869 131.62346L217.12619 131.74846Q216.90744 130.82658 216.51682 130.40471Q215.87619 129.71721 214.93869 129.71721Q214.18869 129.71721 213.61057 130.13908Q212.86057 130.68596 212.42307 131.73283Q212.00119 132.77971 211.98557 134.71721Q212.56369 133.84221 213.37619 133.42033Q214.20432 132.99846 215.11057 132.99846Q216.70432 132.99846 217.81369 134.17033Q218.92307 135.32658 218.92307 137.17033Q218.92307 138.38908 218.39182 139.43596Q217.87619 140.46721 216.95432 141.02971Q216.04807 141.57658 214.89182 141.57658Q212.90744 141.57658 211.65744 140.12346Q210.40744 138.67033 210.40744 135.32658Q210.40744 131.59221 211.79807 129.88908Q213.00119 128.42033 215.03244 128.42033Q216.56369 128.42033 217.53244 129.27971Q218.50119 130.12346 218.68869 131.62346ZM212.23557 137.18596Q212.23557 137.99846 212.57932 138.74846Q212.92307 139.49846 213.54807 139.88908Q214.17307 140.27971 214.86057 140.27971Q215.86057 140.27971 216.57932 139.46721Q217.29807 138.65471 217.29807 137.26408Q217.29807 135.93596 216.57932 135.17033Q215.87619 134.38908 214.79807 134.38908Q213.71994 134.38908 212.96994 135.17033Q212.23557 135.93596 212.23557 137.18596ZM221.37619 141.35783L221.37619 139.56096L223.17307 139.56096L223.17307 141.35783L221.37619 141.35783ZM225.48557 137.95158L227.07932 137.74846Q227.34494 139.09221 228.00119 139.68596Q228.65744 140.27971 229.59494 140.27971Q230.71994 140.27971 231.48557 139.51408Q232.25119 138.73283 232.25119 137.59221Q232.25119 136.49846 231.53244 135.79533Q230.82932 135.07658 229.73557 135.07658Q229.28244 135.07658 228.61057 135.26408L228.78244 133.87346Q228.93869 133.88908 229.04807 133.88908Q230.04807 133.88908 230.86057 133.35783Q231.67307 132.82658 231.67307 131.73283Q231.67307 130.85783 231.07932 130.29533Q230.48557 129.71721 229.56369 129.71721Q228.64182 129.71721 228.01682 130.29533Q227.40744 130.87346 227.23557 132.04533L225.65744 131.76408Q225.93869 130.17033 226.96994 129.29533Q228.00119 128.42033 229.53244 128.42033Q230.57932 128.42033 231.46994 128.87346Q232.36057 129.32658 232.82932 130.10783Q233.29807 130.88908 233.29807 131.76408Q233.29807 132.60783 232.84494 133.29533Q232.40744 133.96721 231.51682 134.37346Q232.65744 134.63908 233.28244 135.48283Q233.92307 136.31096 233.92307 137.54533Q233.92307 139.23283 232.68869 140.42033Q231.46994 141.59221 229.59494 141.59221Q227.89182 141.59221 226.76682 140.57658Q225.65744 139.56096 225.48557 137.95158ZM235.78244 131.56096Q235.78244 130.18596 236.46994 129.21721Q237.17307 128.24846 238.48557 128.24846Q239.70432 128.24846 240.50119 129.12346Q241.29807 129.98283 241.29807 131.67033Q241.29807 133.29533 240.48557 134.18596Q239.68869 135.06096 238.50119 135.06096Q237.34494 135.06096 236.56369 134.20158Q235.78244 133.32658 235.78244 131.56096ZM238.53244 129.34221Q237.93869 129.34221 237.54807 129.85783Q237.15744 130.35783 237.15744 131.71721Q237.15744 132.96721 237.54807 133.46721Q237.95432 133.96721 238.53244 133.96721Q239.12619 133.96721 239.51682 133.46721Q239.90744 132.95158 239.90744 131.60783Q239.90744 130.35783 239.51682 129.85783Q239.12619 129.34221 238.53244 129.34221ZM238.54807 141.82658L245.59494 128.24846L246.87619 128.24846L239.84494 141.82658L238.54807 141.82658ZM244.11057 138.32658Q244.11057 136.95158 244.79807 135.98283Q245.50119 135.01408 246.82932 135.01408Q248.04807 135.01408 248.82932 135.88908Q249.62619 136.74846 249.62619 138.43596Q249.62619 140.06096 248.82932 140.95158Q248.03244 141.82658 246.84494 141.82658Q245.67307 141.82658 244.89182 140.95158Q244.11057 140.07658 244.11057 138.32658ZM246.87619 136.10783Q246.28244 136.10783 245.89182 136.62346Q245.50119 137.12346 245.50119 138.49846Q245.50119 139.71721 245.89182 140.23283Q246.28244 140.74846 246.86057 140.74846Q247.46994 140.74846 247.86057 140.23283Q248.25119 139.71721 248.25119 138.37346Q248.25119 137.12346 247.86057 136.62346Q247.46994 136.10783 246.87619 136.10783Z" fill-rule="nonzero"/><path stroke="#ffffff" stroke-width="1.0" stroke-linejoin="round" stroke-linecap="round" d="M312.0761 168.50682C308.1897 167.1726 304.10904 166.49167 300.0 166.49167L300.0 54.916668C316.43622 54.916668 332.75882 57.640427 348.30444 62.977257" fill-rule="nonzero"/><path stroke="#ffffff" stroke-width="1.0" stroke-linejoin="round" stroke-linecap="round" d="M306.12155 240.36775C322.91324 237.56572 335.6588 223.72034 337.06464 206.7546C338.47046 189.78885 328.1776 174.03445 312.0761 168.50682L348.30444 62.977257C412.7104 85.087845 453.88184 148.10542 448.25854 215.96838C442.63525 283.83136 391.653 339.21286 324.48618 350.42102" fill-rule="nonzero"/><path stroke="#ffffff" stroke-width="1.0" stroke-linejoin="round" stroke-linecap="round" d="M272.6372 228.87256C281.14224 238.1115 293.7352 242.43466 306.12155 240.36775L324.48618 350.42102C274.94083 358.6887 224.56897 341.396 190.54881 304.44025" fill-rule="nonzero"/><path stroke="#ffffff" stroke-width="1.0" stroke-linejoin="round" stroke-linecap="round" d="M262.93536 206.7546C263.6187 215.00125 267.03275 222.7845 272.6372 228.87256L190.54881 304.44025C168.131 280.088 154.4748 248.95502 151.74144 215.96838" fill-rule="nonzero"/><path stroke="#ffffff" stroke-width="1.0" stroke-linejoin="round" stroke-linecap="round" d="M300.0 166.49167C289.6023 166.49167 279.67938 170.84427 272.6372 178.49411C265.59503 186.14394 262.07672 196.39241 262.93536 206.7546L151.74144 215.96838C148.3069 174.51965 162.38013 133.52574 190.54881 102.926414C218.71748 72.32707 258.4092 54.916668 300.0 54.916668" fill-rule="nonzero"/><path fill="#efefef" d="M27.3 91.01113L28.815624 91.01113L28.815624 97.62051Q28.815624 99.35488 28.425 100.37051Q28.034374 101.38613 27.01875 102.02676Q26.003124 102.66738 24.346874 102.66738Q22.7375 102.66738 21.70625 102.10488Q20.690624 101.54238 20.253124 100.49551Q19.815624 99.44863 19.815624 97.62051L19.815624 91.01113L21.33125 91.01113L21.33125 97.62051Q21.33125 99.10488 21.596874 99.82363Q21.878124 100.52676 22.55 100.91738Q23.2375 101.29238 24.20625 101.29238Q25.878124 101.29238 26.58125 100.54238Q27.3 99.77676 27.3 97.62051L27.3 91.01113ZM31.596874 102.46426L31.596874 94.16738L32.8625 94.16738L32.8625 95.41738Q33.346874 94.54238 33.753124 94.26113Q34.159374 93.97988 34.659374 93.97988Q35.3625 93.97988 36.096874 94.43301L35.6125 95.72988Q35.096874 95.43301 34.58125 95.43301Q34.128124 95.43301 33.753124 95.71426Q33.39375 95.97988 33.2375 96.47988Q33.003124 97.22988 33.003124 98.12051L33.003124 102.46426L31.596874 102.46426ZM37.909374 102.46426L36.596874 102.46426L36.596874 91.01113L38.003124 91.01113L38.003124 95.08926Q38.89375 93.97988 40.284374 93.97988Q41.05 93.97988 41.721874 94.29238Q42.409374 94.58926 42.846874 95.15176Q43.3 95.71426 43.55 96.51113Q43.8 97.29238 43.8 98.18301Q43.8 100.32363 42.7375 101.49551Q41.690624 102.65176 40.20625 102.65176Q38.7375 102.65176 37.909374 101.41738L37.909374 102.46426ZM37.89375 98.24551Q37.89375 99.74551 38.3 100.40176Q38.95625 101.49551 40.096874 101.49551Q41.01875 101.49551 41.690624 100.69863Q42.3625 99.88613 42.3625 98.30801Q42.3625 96.68301 41.70625 95.91738Q41.065624 95.13613 40.159374 95.13613Q39.2375 95.13613 38.565624 95.93301Q37.89375 96.72988 37.89375 98.24551ZM51.01875 101.43301Q50.2375 102.10488 49.51875 102.38613Q48.8 102.65176 47.971874 102.65176Q46.596874 102.65176 45.8625 101.97988Q45.128124 101.30801 45.128124 100.27676Q45.128124 99.66738 45.409374 99.16738Q45.690624 98.65176 46.128124 98.35488Q46.58125 98.04238 47.14375 97.88613Q47.565624 97.77676 48.39375 97.68301Q50.096874 97.47988 50.909374 97.19863Q50.909374 96.90176 50.909374 96.82363Q50.909374 95.96426 50.51875 95.62051Q49.971874 95.13613 48.909374 95.13613Q47.925 95.13613 47.440624 95.49551Q46.971874 95.83926 46.753124 96.71426L45.378124 96.52676Q45.565624 95.65176 45.9875 95.10488Q46.425 94.55801 47.2375 94.27676Q48.05 93.97988 49.1125 93.97988Q50.175 93.97988 50.83125 94.22988Q51.503124 94.47988 51.815624 94.85488Q52.128124 95.22988 52.253124 95.80801Q52.33125 96.16738 52.33125 97.10488L52.33125 98.97988Q52.33125 100.94863 52.409374 101.46426Q52.503124 101.97988 52.76875 102.46426L51.3 102.46426Q51.08125 102.02676 51.01875 101.43301ZM50.909374 98.29238Q50.14375 98.60488 48.6125 98.82363Q47.7375 98.94863 47.378124 99.10488Q47.01875 99.26113 46.815624 99.57363Q46.628124 99.87051 46.628124 100.22988Q46.628124 100.79238 47.05 101.16738Q47.4875 101.54238 48.3 101.54238Q49.1125 101.54238 49.7375 101.19863Q50.378124 100.83926 50.675 100.21426Q50.909374 99.74551 50.909374 98.80801L50.909374 98.29238ZM54.6125 102.46426L54.6125 94.16738L55.878124 94.16738L55.878124 95.33926Q56.784374 93.97988 58.51875 93.97988Q59.26875 93.97988 59.89375 94.24551Q60.51875 94.51113 60.83125 94.94863Q61.14375 95.38613 61.26875 95.99551Q61.346874 96.38613 61.346874 97.35488L61.346874 102.46426L59.940624 102.46426L59.940624 97.41738Q59.940624 96.55801 59.76875 96.13613Q59.6125 95.69863 59.190624 95.44863Q58.784374 95.19863 58.221874 95.19863Q57.315624 95.19863 56.659374 95.77676Q56.01875 96.33926 56.01875 97.93301L56.01875 102.46426L54.6125 102.46426ZM63.05 99.97988L64.44063 99.76113Q64.55 100.60488 65.08125 101.05801Q65.62813 101.49551 66.58125 101.49551Q67.55 101.49551 68.01875 101.10488Q68.4875 100.69863 68.4875 100.16738Q68.4875 99.69863 68.08125 99.41738Q67.78438 99.22988 66.64375 98.94863Q65.09688 98.55801 64.4875 98.27676Q63.89375 97.97988 63.58125 97.47988Q63.284374 96.97988 63.284374 96.37051Q63.284374 95.80801 63.534374 95.33926Q63.784374 94.87051 64.22188 94.55801Q64.55 94.30801 65.1125 94.15176Q65.69063 93.97988 66.33125 93.97988Q67.31563 93.97988 68.05 94.26113Q68.78438 94.54238 69.12813 95.02676Q69.4875 95.49551 69.62813 96.30801L68.25313 96.49551Q68.15938 95.85488 67.70625 95.49551Q67.25313 95.13613 66.44063 95.13613Q65.47188 95.13613 65.05 95.46426Q64.64375 95.77676 64.64375 96.19863Q64.64375 96.47988 64.81563 96.69863Q64.9875 96.91738 65.34688 97.07363Q65.56563 97.15176 66.59688 97.43301Q68.08125 97.82363 68.675 98.08926Q69.26875 98.33926 69.59688 98.82363Q69.94063 99.30801 69.94063 100.02676Q69.94063 100.72988 69.51875 101.35488Q69.1125 101.96426 68.33125 102.30801Q67.56563 102.65176 66.59688 102.65176Q64.97188 102.65176 64.12813 101.97988Q63.284374 101.30801 63.05 99.97988ZM77.01875 99.41738L78.40938 99.60488Q78.175 101.02676 77.2375 101.83926Q76.31563 102.65176 74.95625 102.65176Q73.25313 102.65176 72.20625 101.54238Q71.175 100.41738 71.175 98.33926Q71.175 96.99551 71.6125 95.99551Q72.06563 94.97988 72.97188 94.47988Q73.89375 93.97988 74.95625 93.97988Q76.31563 93.97988 77.175 94.66738Q78.03438 95.33926 78.26875 96.60488L76.90938 96.80801Q76.70625 95.97988 76.20625 95.55801Q75.72188 95.13613 75.01875 95.13613Q73.95625 95.13613 73.28438 95.90176Q72.62813 96.65176 72.62813 98.30801Q72.62813 99.97988 73.26875 100.74551Q73.90938 101.49551 74.94063 101.49551Q75.76875 101.49551 76.31563 100.99551Q76.87813 100.47988 77.01875 99.41738ZM85.01875 101.43301Q84.2375 102.10488 83.51875 102.38613Q82.8 102.65176 81.97188 102.65176Q80.59688 102.65176 79.8625 101.97988Q79.12813 101.30801 79.12813 100.27676Q79.12813 99.66738 79.40938 99.16738Q79.69063 98.65176 80.12813 98.35488Q80.58125 98.04238 81.14375 97.88613Q81.56563 97.77676 82.39375 97.68301Q84.09688 97.47988 84.90938 97.19863Q84.90938 96.90176 84.90938 96.82363Q84.90938 95.96426 84.51875 95.62051Q83.97188 95.13613 82.90938 95.13613Q81.925 95.13613 81.44063 95.49551Q80.97188 95.83926 80.75313 96.71426L79.37813 96.52676Q79.56563 95.65176 79.9875 95.10488Q80.425 94.55801 81.2375 94.27676Q82.05 93.97988 83.1125 93.97988Q84.175 93.97988 84.83125 94.22988Q85.50313 94.47988 85.81563 94.85488Q86.12813 95.22988 86.25313 95.80801Q86.33125 96.16738 86.33125 97.10488L86.33125 98.97988Q86.33125 100.94863 86.40938 101.46426Q86.50313 101.97988 86.76875 102.46426L85.3 102.46426Q85.08125 102.02676 85.01875 101.43301ZM84.90938 98.29238Q84.14375 98.60488 82.6125 98.82363Q81.7375 98.94863 81.37813 99.10488Q81.01875 99.26113 80.81563 99.57363Q80.62813 99.87051 80.62813 100.22988Q80.62813 100.79238 81.05 101.16738Q81.4875 101.54238 82.3 101.54238Q83.1125 101.54238 83.7375 101.19863Q84.37813 100.83926 84.675 100.21426Q84.90938 99.74551 84.90938 98.80801L84.90938 98.29238ZM88.6125 105.65176L88.6125 94.16738L89.89375 94.16738L89.89375 95.24551Q90.34688 94.60488 90.90938 94.29238Q91.4875 93.97988 92.3 93.97988Q93.3625 93.97988 94.175 94.52676Q94.9875 95.07363 95.39375 96.07363Q95.81563 97.05801 95.81563 98.24551Q95.81563 99.52676 95.34688 100.54238Q94.89375 101.55801 94.01875 102.10488Q93.15938 102.65176 92.19063 102.65176Q91.4875 102.65176 90.925 102.35488Q90.37813 102.05801 90.01875 101.60488L90.01875 105.65176L88.6125 105.65176ZM89.87813 98.35488Q89.87813 99.96426 90.51875 100.72988Q91.175 101.49551 92.09688 101.49551Q93.03438 101.49551 93.70625 100.69863Q94.37813 99.90176 94.37813 98.24551Q94.37813 96.65176 93.72188 95.87051Q93.06563 95.07363 92.15938 95.07363Q91.26875 95.07363 90.56563 95.91738Q89.87813 96.76113 89.87813 98.35488ZM103.28438 99.79238L104.7375 99.96426Q104.39375 101.24551 103.45625 101.94863Q102.53438 102.65176 101.09688 102.65176Q99.26875 102.65176 98.20625 101.52676Q97.14375 100.40176 97.14375 98.38613Q97.14375 96.29238 98.22188 95.13613Q99.3 93.97988 101.01875 93.97988Q102.675 93.97988 103.72188 95.12051Q104.78438 96.24551 104.78438 98.29238Q104.78438 98.41738 104.78438 98.66738L98.59688 98.66738Q98.675 100.04238 99.3625 100.77676Q100.06563 101.49551 101.09688 101.49551Q101.87813 101.49551 102.425 101.08926Q102.97188 100.68301 103.28438 99.79238ZM98.675 97.51113L103.3 97.51113Q103.20625 96.46426 102.76875 95.94863Q102.09688 95.13613 101.03438 95.13613Q100.06563 95.13613 99.39375 95.79238Q98.7375 96.43301 98.675 97.51113Z" fill-rule="nonzero"/><path fill="#9e9e9e" d="M26.6125 123.10488L26.6125 124.46426L19.034374 124.46426Q19.01875 123.94863 19.20625 123.47988Q19.4875 122.71426 20.128124 121.96426Q20.76875 121.21426 21.971874 120.22988Q23.83125 118.69863 24.4875 117.80801Q25.14375 116.90176 25.14375 116.10488Q25.14375 115.27676 24.55 114.69863Q23.95625 114.12051 22.9875 114.12051Q21.971874 114.12051 21.3625 114.72988Q20.753124 115.33926 20.753124 116.41738L19.3 116.27676Q19.45625 114.65176 20.425 113.80801Q21.39375 112.96426 23.01875 112.96426Q24.675 112.96426 25.628124 113.88613Q26.596874 114.79238 26.596874 116.13613Q26.596874 116.82363 26.315624 117.49551Q26.034374 118.15176 25.378124 118.88613Q24.721874 119.62051 23.20625 120.90176Q21.940624 121.96426 21.58125 122.35488Q21.221874 122.72988 20.9875 123.10488L26.6125 123.10488ZM35.51875 115.80801L34.1125 115.91738Q33.925 115.08926 33.58125 114.71426Q33.01875 114.12051 32.175 114.12051Q31.503124 114.12051 31.003124 114.49551Q30.33125 114.97988 29.940624 115.91738Q29.565624 116.83926 29.55 118.55801Q30.065624 117.77676 30.8 117.40176Q31.534374 117.02676 32.33125 117.02676Q33.7375 117.02676 34.721874 118.07363Q35.721874 119.10488 35.721874 120.74551Q35.721874 121.82363 35.253124 122.74551Q34.784374 123.66738 33.971874 124.16738Q33.159374 124.66738 32.128124 124.66738Q30.378124 124.66738 29.26875 123.37051Q28.159374 122.07363 28.159374 119.10488Q28.159374 115.77676 29.378124 114.27676Q30.45625 112.96426 32.26875 112.96426Q33.6125 112.96426 34.471874 113.72988Q35.346874 114.47988 35.51875 115.80801ZM29.76875 120.74551Q29.76875 121.47988 30.08125 122.15176Q30.39375 122.80801 30.940624 123.15176Q31.503124 123.49551 32.1125 123.49551Q33.003124 123.49551 33.64375 122.77676Q34.284374 122.05801 34.284374 120.82363Q34.284374 119.63613 33.64375 118.96426Q33.01875 118.27676 32.05 118.27676Q31.096874 118.27676 30.425 118.96426Q29.76875 119.63613 29.76875 120.74551ZM38.003124 124.46426L38.003124 122.85488L39.6125 122.85488L39.6125 124.46426L38.003124 124.46426ZM41.221874 121.43301L42.628124 121.24551Q42.878124 122.44863 43.45625 122.97988Q44.034374 123.49551 44.878124 123.49551Q45.8625 123.49551 46.55 122.80801Q47.2375 122.12051 47.2375 121.10488Q47.2375 120.13613 46.596874 119.51113Q45.971874 118.88613 44.9875 118.88613Q44.596874 118.88613 44.003124 119.04238L44.159374 117.80801Q44.3 117.82363 44.378124 117.82363Q45.284374 117.82363 46.003124 117.35488Q46.721874 116.88613 46.721874 115.90176Q46.721874 115.13613 46.190624 114.63613Q45.675 114.12051 44.846874 114.12051Q44.01875 114.12051 43.471874 114.63613Q42.925 115.15176 42.76875 116.18301L41.3625 115.93301Q41.628124 114.51113 42.534374 113.74551Q43.45625 112.96426 44.815624 112.96426Q45.753124 112.96426 46.534374 113.37051Q47.33125 113.76113 47.7375 114.46426Q48.159374 115.15176 48.159374 115.93301Q48.159374 116.68301 47.753124 117.29238Q47.3625 117.90176 46.58125 118.26113Q47.596874 118.49551 48.159374 119.22988Q48.721874 119.96426 48.721874 121.07363Q48.721874 122.57363 47.628124 123.62051Q46.534374 124.66738 44.8625 124.66738Q43.3625 124.66738 42.3625 123.77676Q41.3625 122.87051 41.221874 121.43301ZM50.4875 115.76113Q50.4875 114.52676 51.096874 113.66738Q51.721874 112.80801 52.89375 112.80801Q53.971874 112.80801 54.675 113.58926Q55.378124 114.35488 55.378124 115.83926Q55.378124 117.29238 54.659374 118.08926Q53.95625 118.87051 52.909374 118.87051Q51.8625 118.87051 51.175 118.10488Q50.4875 117.32363 50.4875 115.76113ZM52.925 113.77676Q52.409374 113.77676 52.05 114.22988Q51.70625 114.68301 51.70625 115.90176Q51.70625 116.99551 52.05 117.44863Q52.409374 117.90176 52.925 117.90176Q53.45625 117.90176 53.8 117.44863Q54.159374 116.99551 54.159374 115.79238Q54.159374 114.68301 53.8 114.22988Q53.45625 113.77676 52.925 113.77676ZM52.940624 124.88613L59.20625 112.80801L60.346874 112.80801L54.096874 124.88613L52.940624 124.88613ZM57.89375 121.77676Q57.89375 120.54238 58.503124 119.68301Q59.128124 118.82363 60.3 118.82363Q61.378124 118.82363 62.08125 119.60488Q62.8 120.37051 62.8 121.85488Q62.8 123.30801 62.08125 124.10488Q61.3625 124.88613 60.315624 124.88613Q59.26875 124.88613 58.58125 124.10488Q57.89375 123.32363 57.89375 121.77676ZM60.346874 119.79238Q59.815624 119.79238 59.45625 120.24551Q59.1125 120.69863 59.1125 121.91738Q59.1125 123.01113 59.45625 123.46426Q59.815624 123.91738 60.33125 123.91738Q60.878124 123.91738 61.221874 123.46426Q61.565624 123.01113 61.565624 121.80801Q61.565624 120.69863 61.20625 120.24551Q60.8625 119.79238 60.346874 119.79238Z" fill-rule="nonzero"/><path stroke="#757575" stroke-width="1.0" stroke-linecap="butt" d="M18.55 107.96426L145.23334 107.96426L196.02136 107.96426" fill-rule="nonzero"/><path fill="#9e9e9e" d="M198.02136 107.96426C198.02136 106.85969 197.12593 105.96426 196.02136 105.96426C194.9168 105.96426 194.02136 106.85969 194.02136 107.96426C194.02136 109.068825 194.9168 109.96426 196.02136 109.96426C197.12593 109.96426 198.02136 109.068825 198.02136 107.96426" fill-rule="nonzero"/><path fill="#efefef" d="M19.76875 254.95428L19.76875 243.50116L21.33125 243.50116L27.346874 252.48553L27.346874 243.50116L28.8 243.50116L28.8 254.95428L27.2375 254.95428L21.221874 245.95428L21.221874 254.95428L19.76875 254.95428ZM37.01875 253.92303Q36.2375 254.59491 35.51875 254.87616Q34.8 255.14178 33.971874 255.14178Q32.596874 255.14178 31.8625 254.46991Q31.128124 253.79803 31.128124 252.76678Q31.128124 252.15741 31.409374 251.65741Q31.690624 251.14178 32.128124 250.84491Q32.58125 250.53241 33.14375 250.37616Q33.565624 250.26678 34.39375 250.17303Q36.096874 249.96991 36.909374 249.68866Q36.909374 249.39178 36.909374 249.31366Q36.909374 248.45428 36.51875 248.11053Q35.971874 247.62616 34.909374 247.62616Q33.925 247.62616 33.440624 247.98553Q32.971874 248.32928 32.753124 249.20428L31.378124 249.01678Q31.565624 248.14178 31.9875 247.59491Q32.425 247.04803 33.2375 246.76678Q34.05 246.46991 35.1125 246.46991Q36.175 246.46991 36.83125 246.71991Q37.503124 246.96991 37.815624 247.34491Q38.128124 247.71991 38.253124 248.29803Q38.33125 248.65741 38.33125 249.59491L38.33125 251.46991Q38.33125 253.43866 38.409374 253.95428Q38.503124 254.46991 38.76875 254.95428L37.3 254.95428Q37.08125 254.51678 37.01875 253.92303ZM36.909374 250.78241Q36.14375 251.09491 34.6125 251.31366Q33.7375 251.43866 33.378124 251.59491Q33.01875 251.75116 32.815624 252.06366Q32.628124 252.36053 32.628124 252.71991Q32.628124 253.28241 33.05 253.65741Q33.4875 254.03241 34.3 254.03241Q35.1125 254.03241 35.7375 253.68866Q36.378124 253.32928 36.675 252.70428Q36.909374 252.23553 36.909374 251.29803L36.909374 250.78241ZM43.675 253.68866L43.878124 254.93866Q43.284374 255.06366 42.815624 255.06366Q42.05 255.06366 41.628124 254.82928Q41.20625 254.57928 41.034374 254.18866Q40.8625 253.78241 40.8625 252.51678L40.8625 247.75116L39.83125 247.75116L39.83125 246.65741L40.8625 246.65741L40.8625 244.59491L42.26875 243.75116L42.26875 246.65741L43.675 246.65741L43.675 247.75116L42.26875 247.75116L42.26875 252.59491Q42.26875 253.20428 42.33125 253.37616Q42.409374 253.54803 42.58125 253.65741Q42.753124 253.75116 43.065624 253.75116Q43.3 253.75116 43.675 253.68866ZM50.05 254.95428L50.05 253.73553Q49.08125 255.14178 47.409374 255.14178Q46.675 255.14178 46.034374 254.86053Q45.409374 254.57928 45.096874 254.15741Q44.784374 253.71991 44.659374 253.11053Q44.58125 252.68866 44.58125 251.79803L44.58125 246.65741L45.9875 246.65741L45.9875 251.25116Q45.9875 252.36053 46.065624 252.73553Q46.20625 253.29803 46.628124 253.61053Q47.065624 253.92303 47.690624 253.92303Q48.33125 253.92303 48.878124 253.61053Q49.440624 253.28241 49.659374 252.71991Q49.89375 252.15741 49.89375 251.09491L49.89375 246.65741L51.3 246.65741L51.3 254.95428L50.05 254.95428ZM53.596874 254.95428L53.596874 246.65741L54.8625 246.65741L54.8625 247.90741Q55.346874 247.03241 55.753124 246.75116Q56.159374 246.46991 56.659374 246.46991Q57.3625 246.46991 58.096874 246.92303L57.6125 248.21991Q57.096874 247.92303 56.58125 247.92303Q56.128124 247.92303 55.753124 248.20428Q55.39375 248.46991 55.2375 248.96991Q55.003124 249.71991 55.003124 250.61053L55.003124 254.95428L53.596874 254.95428ZM64.28438 252.28241L65.7375 252.45428Q65.39375 253.73553 64.45625 254.43866Q63.534374 255.14178 62.096874 255.14178Q60.26875 255.14178 59.20625 254.01678Q58.14375 252.89178 58.14375 250.87616Q58.14375 248.78241 59.221874 247.62616Q60.3 246.46991 62.01875 246.46991Q63.675 246.46991 64.72188 247.61053Q65.78438 248.73553 65.78438 250.78241Q65.78438 250.90741 65.78438 251.15741L59.596874 251.15741Q59.675 252.53241 60.3625 253.26678Q61.065624 253.98553 62.096874 253.98553Q62.878124 253.98553 63.425 253.57928Q63.971874 253.17303 64.28438 252.28241ZM59.675 250.00116L64.3 250.00116Q64.20625 248.95428 63.76875 248.43866Q63.096874 247.62616 62.034374 247.62616Q61.065624 247.62616 60.39375 248.28241Q59.7375 248.92303 59.675 250.00116ZM67.05 252.46991L68.44063 252.25116Q68.55 253.09491 69.08125 253.54803Q69.62813 253.98553 70.58125 253.98553Q71.55 253.98553 72.01875 253.59491Q72.4875 253.18866 72.4875 252.65741Q72.4875 252.18866 72.08125 251.90741Q71.78438 251.71991 70.64375 251.43866Q69.09688 251.04803 68.4875 250.76678Q67.89375 250.46991 67.58125 249.96991Q67.28438 249.46991 67.28438 248.86053Q67.28438 248.29803 67.53438 247.82928Q67.78438 247.36053 68.22188 247.04803Q68.55 246.79803 69.1125 246.64178Q69.69063 246.46991 70.33125 246.46991Q71.31563 246.46991 72.05 246.75116Q72.78438 247.03241 73.12813 247.51678Q73.4875 247.98553 73.62813 248.79803L72.25313 248.98553Q72.15938 248.34491 71.70625 247.98553Q71.25313 247.62616 70.44063 247.62616Q69.47188 247.62616 69.05 247.95428Q68.64375 248.26678 68.64375 248.68866Q68.64375 248.96991 68.81563 249.18866Q68.9875 249.40741 69.34688 249.56366Q69.56563 249.64178 70.59688 249.92303Q72.08125 250.31366 72.675 250.57928Q73.26875 250.82928 73.59688 251.31366Q73.94063 251.79803 73.94063 252.51678Q73.94063 253.21991 73.51875 253.84491Q73.1125 254.45428 72.33125 254.79803Q71.56563 255.14178 70.59688 255.14178Q68.97188 255.14178 68.12813 254.46991Q67.28438 253.79803 67.05 252.46991ZM81.01875 251.90741L82.40938 252.09491Q82.175 253.51678 81.2375 254.32928Q80.31563 255.14178 78.95625 255.14178Q77.25313 255.14178 76.20625 254.03241Q75.175 252.90741 75.175 250.82928Q75.175 249.48553 75.6125 248.48553Q76.06563 247.46991 76.97188 246.96991Q77.89375 246.46991 78.95625 246.46991Q80.31563 246.46991 81.175 247.15741Q82.03438 247.82928 82.26875 249.09491L80.90938 249.29803Q80.70625 248.46991 80.20625 248.04803Q79.72188 247.62616 79.01875 247.62616Q77.95625 247.62616 77.28438 248.39178Q76.62813 249.14178 76.62813 250.79803Q76.62813 252.46991 77.26875 253.23553Q77.90938 253.98553 78.94063 253.98553Q79.76875 253.98553 80.31563 253.48553Q80.87813 252.96991 81.01875 251.90741ZM89.01875 253.92303Q88.2375 254.59491 87.51875 254.87616Q86.8 255.14178 85.97188 255.14178Q84.59688 255.14178 83.8625 254.46991Q83.12813 253.79803 83.12813 252.76678Q83.12813 252.15741 83.40938 251.65741Q83.69063 251.14178 84.12813 250.84491Q84.58125 250.53241 85.14375 250.37616Q85.56563 250.26678 86.39375 250.17303Q88.09688 249.96991 88.90938 249.68866Q88.90938 249.39178 88.90938 249.31366Q88.90938 248.45428 88.51875 248.11053Q87.97188 247.62616 86.90938 247.62616Q85.925 247.62616 85.44063 247.98553Q84.97188 248.32928 84.75313 249.20428L83.37813 249.01678Q83.56563 248.14178 83.9875 247.59491Q84.425 247.04803 85.2375 246.76678Q86.05 246.46991 87.1125 246.46991Q88.175 246.46991 88.83125 246.71991Q89.50313 246.96991 89.81563 247.34491Q90.12813 247.71991 90.25313 248.29803Q90.33125 248.65741 90.33125 249.59491L90.33125 251.46991Q90.33125 253.43866 90.40938 253.95428Q90.50313 254.46991 90.76875 254.95428L89.3 254.95428Q89.08125 254.51678 89.01875 253.92303ZM88.90938 250.78241Q88.14375 251.09491 86.6125 251.31366Q85.7375 251.43866 85.37813 251.59491Q85.01875 251.75116 84.81563 252.06366Q84.62813 252.36053 84.62813 252.71991Q84.62813 253.28241 85.05 253.65741Q85.4875 254.03241 86.3 254.03241Q87.1125 254.03241 87.7375 253.68866Q88.37813 253.32928 88.675 252.70428Q88.90938 252.23553 88.90938 251.29803L88.90938 250.78241ZM92.6125 258.14178L92.6125 246.65741L93.89375 246.65741L93.89375 247.73553Q94.34688 247.09491 94.90938 246.78241Q95.4875 246.46991 96.3 246.46991Q97.3625 246.46991 98.175 247.01678Q98.9875 247.56366 99.39375 248.56366Q99.81563 249.54803 99.81563 250.73553Q99.81563 252.01678 99.34688 253.03241Q98.89375 254.04803 98.01875 254.59491Q97.15938 255.14178 96.19063 255.14178Q95.4875 255.14178 94.925 254.84491Q94.37813 254.54803 94.01875 254.09491L94.01875 258.14178L92.6125 258.14178ZM93.87813 250.84491Q93.87813 252.45428 94.51875 253.21991Q95.175 253.98553 96.09688 253.98553Q97.03438 253.98553 97.70625 253.18866Q98.37813 252.39178 98.37813 250.73553Q98.37813 249.14178 97.72188 248.36053Q97.06563 247.56366 96.15938 247.56366Q95.26875 247.56366 94.56563 248.40741Q93.87813 249.25116 93.87813 250.84491ZM107.28438 252.28241L108.7375 252.45428Q108.39375 253.73553 107.45625 254.43866Q106.53438 255.14178 105.09688 255.14178Q103.26875 255.14178 102.20625 254.01678Q101.14375 252.89178 101.14375 250.87616Q101.14375 248.78241 102.22188 247.62616Q103.3 246.46991 105.01875 246.46991Q106.675 246.46991 107.72188 247.61053Q108.78438 248.73553 108.78438 250.78241Q108.78438 250.90741 108.78438 251.15741L102.59688 251.15741Q102.675 252.53241 103.3625 253.26678Q104.06563 253.98553 105.09688 253.98553Q105.87813 253.98553 106.425 253.57928Q106.97188 253.17303 107.28438 252.28241ZM102.675 250.00116L107.3 250.00116Q107.20625 248.95428 106.76875 248.43866Q106.09688 247.62616 105.03438 247.62616Q104.06563 247.62616 103.39375 248.28241Q102.7375 248.92303 102.675 250.00116Z" fill-rule="nonzero"/><path fill="#9e9e9e" d="M24.51875 276.95428L23.1125 276.95428L23.1125 267.98553Q22.596874 268.4699 21.76875 268.95428Q20.95625 269.43866 20.3 269.68866L20.3 268.32928Q21.471874 267.76678 22.346874 266.98553Q23.2375 266.18866 23.6125 265.45428L24.51875 265.45428L24.51875 276.95428ZM28.221874 271.29803Q28.221874 269.26678 28.628124 268.0324Q29.05 266.79803 29.878124 266.12616Q30.70625 265.45428 31.95625 265.45428Q32.878124 265.45428 33.565624 265.82928Q34.26875 266.18866 34.721874 266.89178Q35.175 267.5949 35.425 268.5949Q35.690624 269.5949 35.690624 271.29803Q35.690624 273.31366 35.26875 274.56366Q34.8625 275.79803 34.034374 276.48553Q33.20625 277.1574 31.95625 277.1574Q30.3 277.1574 29.346874 275.95428Q28.221874 274.5324 28.221874 271.29803ZM29.659374 271.29803Q29.659374 274.12616 30.315624 275.06366Q30.9875 275.98553 31.95625 275.98553Q32.925 275.98553 33.58125 275.04803Q34.2375 274.11053 34.2375 271.29803Q34.2375 268.4699 33.58125 267.54803Q32.925 266.61053 31.940624 266.61053Q30.971874 266.61053 30.39375 267.43866Q29.659374 268.48553 29.659374 271.29803ZM38.003124 276.95428L38.003124 275.3449L39.6125 275.3449L39.6125 276.95428L38.003124 276.95428ZM41.221874 273.95428L42.690624 273.82928Q42.8625 274.9074 43.45625 275.45428Q44.05 275.98553 44.89375 275.98553Q45.909374 275.98553 46.6125 275.2199Q47.315624 274.45428 47.315624 273.18866Q47.315624 271.98553 46.64375 271.29803Q45.971874 270.5949 44.878124 270.5949Q44.190624 270.5949 43.64375 270.9074Q43.096874 271.2199 42.784374 271.70428L41.471874 271.5324L42.58125 265.6574L48.26875 265.6574L48.26875 267.00116L43.70625 267.00116L43.08125 270.07928Q44.1125 269.36053 45.253124 269.36053Q46.753124 269.36053 47.784374 270.4074Q48.815624 271.43866 48.815624 273.06366Q48.815624 274.62616 47.909374 275.75116Q46.8 277.1574 44.89375 277.1574Q43.33125 277.1574 42.346874 276.2824Q41.3625 275.39178 41.221874 273.95428ZM50.4875 268.25116Q50.4875 267.01678 51.096874 266.1574Q51.721874 265.29803 52.89375 265.29803Q53.971874 265.29803 54.675 266.07928Q55.378124 266.8449 55.378124 268.32928Q55.378124 269.7824 54.659374 270.57928Q53.95625 271.36053 52.909374 271.36053Q51.8625 271.36053 51.175 270.5949Q50.4875 269.81366 50.4875 268.25116ZM52.925 266.26678Q52.409374 266.26678 52.05 266.7199Q51.70625 267.17303 51.70625 268.39178Q51.70625 269.48553 52.05 269.93866Q52.409374 270.39178 52.925 270.39178Q53.45625 270.39178 53.8 269.93866Q54.159374 269.48553 54.159374 268.2824Q54.159374 267.17303 53.8 266.7199Q53.45625 266.26678 52.925 266.26678ZM52.940624 277.37616L59.20625 265.29803L60.346874 265.29803L54.096874 277.37616L52.940624 277.37616ZM57.89375 274.26678Q57.89375 273.0324 58.503124 272.17303Q59.128124 271.31366 60.3 271.31366Q61.378124 271.31366 62.08125 272.0949Q62.8 272.86053 62.8 274.3449Q62.8 275.79803 62.08125 276.5949Q61.3625 277.37616 60.315624 277.37616Q59.26875 277.37616 58.58125 276.5949Q57.89375 275.81366 57.89375 274.26678ZM60.346874 272.2824Q59.815624 272.2824 59.45625 272.73553Q59.1125 273.18866 59.1125 274.4074Q59.1125 275.50116 59.45625 275.95428Q59.815624 276.4074 60.33125 276.4074Q60.878124 276.4074 61.221874 275.95428Q61.565624 275.50116 61.565624 274.29803Q61.565624 273.18866 61.20625 272.73553Q60.8625 272.2824 60.346874 272.2824Z" fill-rule="nonzero"/><path stroke="#757575" stroke-width="1.0" stroke-linecap="butt" d="M18.55 260.45428L145.23334 260.45428L170.57529 260.45428" fill-rule="nonzero"/><path fill="#9e9e9e" d="M172.57529 260.45428C172.57529 259.3497 171.67986 258.45428 170.57529 258.45428C169.47072 258.45428 168.57529 259.3497 168.57529 260.45428C168.57529 261.55884 169.47072 262.45428 170.57529 262.45428C171.67986 262.45428 172.57529 261.55884 172.57529 260.45428" fill-rule="nonzero"/><path fill="#efefef" d="M18.51875 326.45L22.925 314.9969L24.565624 314.9969L29.253124 326.45L27.51875 326.45L26.190624 322.98126L21.39375 322.98126L20.14375 326.45L18.51875 326.45ZM21.83125 321.7469L25.721874 321.7469L24.51875 318.575Q23.971874 317.1219 23.70625 316.2Q23.4875 317.29376 23.096874 318.3875L21.83125 321.7469ZM30.6125 326.45L30.6125 318.15314L31.878124 318.15314L31.878124 319.325Q32.784374 317.96564 34.51875 317.96564Q35.26875 317.96564 35.89375 318.23126Q36.51875 318.4969 36.83125 318.9344Q37.14375 319.3719 37.26875 319.98126Q37.346874 320.3719 37.346874 321.34064L37.346874 326.45L35.940624 326.45L35.940624 321.40314Q35.940624 320.54376 35.76875 320.1219Q35.6125 319.6844 35.190624 319.4344Q34.784374 319.1844 34.221874 319.1844Q33.315624 319.1844 32.659374 319.7625Q32.01875 320.325 32.01875 321.91876L32.01875 326.45L30.6125 326.45ZM39.6125 316.60626L39.6125 314.9969L41.01875 314.9969L41.01875 316.60626L39.6125 316.60626ZM39.6125 326.45L39.6125 318.15314L41.01875 318.15314L41.01875 326.45L39.6125 326.45ZM43.6125 326.45L43.6125 318.15314L44.8625 318.15314L44.8625 319.3094Q45.253124 318.7 45.89375 318.34064Q46.55 317.96564 47.378124 317.96564Q48.3 317.96564 48.89375 318.35626Q49.4875 318.73126 49.721874 319.41876Q50.70625 317.96564 52.284374 317.96564Q53.51875 317.96564 54.175 318.65314Q54.846874 319.325 54.846874 320.7469L54.846874 326.45L53.45625 326.45L53.45625 321.21564Q53.45625 320.3719 53.315624 320.0125Q53.175 319.6375 52.815624 319.41876Q52.45625 319.1844 51.971874 319.1844Q51.096874 319.1844 50.51875 319.7625Q49.940624 320.34064 49.940624 321.6219L49.940624 326.45L48.534374 326.45L48.534374 321.0594Q48.534374 320.1219 48.190624 319.65314Q47.846874 319.1844 47.065624 319.1844Q46.471874 319.1844 45.971874 319.4969Q45.471874 319.8094 45.2375 320.41876Q45.01875 321.0125 45.01875 322.1375L45.01875 326.45L43.6125 326.45ZM62.01875 325.41876Q61.2375 326.09064 60.51875 326.3719Q59.8 326.6375 58.971874 326.6375Q57.596874 326.6375 56.8625 325.96564Q56.128124 325.29376 56.128124 324.2625Q56.128124 323.65314 56.409374 323.15314Q56.690624 322.6375 57.128124 322.34064Q57.58125 322.02814 58.14375 321.8719Q58.565624 321.7625 59.39375 321.66876Q61.096874 321.46564 61.909374 321.1844Q61.909374 320.8875 61.909374 320.8094Q61.909374 319.95 61.51875 319.60626Q60.971874 319.1219 59.909374 319.1219Q58.925 319.1219 58.440624 319.48126Q57.971874 319.825 57.753124 320.7L56.378124 320.5125Q56.565624 319.6375 56.9875 319.09064Q57.425 318.54376 58.2375 318.2625Q59.05 317.96564 60.1125 317.96564Q61.175 317.96564 61.83125 318.21564Q62.503124 318.46564 62.815624 318.84064Q63.128124 319.21564 63.253124 319.79376Q63.33125 320.15314 63.33125 321.09064L63.33125 322.96564Q63.33125 324.9344 63.409374 325.45Q63.503124 325.96564 63.76875 326.45L62.3 326.45Q62.08125 326.0125 62.01875 325.41876ZM61.909374 322.27814Q61.14375 322.59064 59.6125 322.8094Q58.7375 322.9344 58.378124 323.09064Q58.01875 323.2469 57.815624 323.5594Q57.628124 323.85626 57.628124 324.21564Q57.628124 324.77814 58.05 325.15314Q58.4875 325.52814 59.3 325.52814Q60.1125 325.52814 60.7375 325.1844Q61.378124 324.825 61.675 324.2Q61.909374 323.73126 61.909374 322.79376L61.909374 322.27814ZM65.58125 326.45L65.58125 314.9969L66.9875 314.9969L66.9875 326.45L65.58125 326.45ZM69.05 323.96564L70.44063 323.7469Q70.55 324.59064 71.08125 325.04376Q71.62813 325.48126 72.58125 325.48126Q73.55 325.48126 74.01875 325.09064Q74.4875 324.6844 74.4875 324.15314Q74.4875 323.6844 74.08125 323.40314Q73.78438 323.21564 72.64375 322.9344Q71.09688 322.54376 70.4875 322.2625Q69.89375 321.96564 69.58125 321.46564Q69.28438 320.96564 69.28438 320.35626Q69.28438 319.79376 69.53438 319.325Q69.78438 318.85626 70.22188 318.54376Q70.55 318.29376 71.1125 318.1375Q71.69063 317.96564 72.33125 317.96564Q73.31563 317.96564 74.05 318.2469Q74.78438 318.52814 75.12813 319.0125Q75.4875 319.48126 75.62813 320.29376L74.25313 320.48126Q74.15938 319.84064 73.70625 319.48126Q73.25313 319.1219 72.44063 319.1219Q71.47188 319.1219 71.05 319.45Q70.64375 319.7625 70.64375 320.1844Q70.64375 320.46564 70.81563 320.6844Q70.9875 320.90314 71.34688 321.0594Q71.56563 321.1375 72.59688 321.41876Q74.08125 321.8094 74.675 322.075Q75.26875 322.325 75.59688 322.8094Q75.94063 323.29376 75.94063 324.0125Q75.94063 324.71564 75.51875 325.34064Q75.1125 325.95 74.33125 326.29376Q73.56563 326.6375 72.59688 326.6375Q70.97188 326.6375 70.12813 325.96564Q69.28438 325.29376 69.05 323.96564Z" fill-rule="nonzero"/><path fill="#9e9e9e" d="M24.51875 348.45L23.1125 348.45L23.1125 339.48126Q22.596874 339.96564 21.76875 340.45Q20.95625 340.9344 20.3 341.1844L20.3 339.825Q21.471874 339.2625 22.346874 338.48126Q23.2375 337.6844 23.6125 336.95L24.51875 336.95L24.51875 348.45ZM28.221874 345.45L29.690624 345.325Q29.8625 346.40314 30.45625 346.95Q31.05 347.48126 31.89375 347.48126Q32.909374 347.48126 33.6125 346.71564Q34.315624 345.95 34.315624 344.6844Q34.315624 343.48126 33.64375 342.79376Q32.971874 342.09064 31.878124 342.09064Q31.190624 342.09064 30.64375 342.40314Q30.096874 342.71564 29.784374 343.2L28.471874 343.02814L29.58125 337.15314L35.26875 337.15314L35.26875 338.4969L30.70625 338.4969L30.08125 341.575Q31.1125 340.85626 32.253124 340.85626Q33.753124 340.85626 34.784374 341.90314Q35.815624 342.9344 35.815624 344.5594Q35.815624 346.1219 34.909374 347.2469Q33.8 348.65314 31.89375 348.65314Q30.33125 348.65314 29.346874 347.77814Q28.3625 346.8875 28.221874 345.45ZM38.003124 348.45L38.003124 346.84064L39.6125 346.84064L39.6125 348.45L38.003124 348.45ZM43.378124 342.23126Q42.503124 341.91876 42.08125 341.325Q41.659374 340.73126 41.659374 339.90314Q41.659374 338.65314 42.55 337.8094Q43.45625 336.95 44.95625 336.95Q46.45625 336.95 47.3625 337.825Q48.284374 338.6844 48.284374 339.9344Q48.284374 340.73126 47.8625 341.325Q47.440624 341.91876 46.596874 342.23126Q47.64375 342.575 48.190624 343.34064Q48.753124 344.10626 48.753124 345.16876Q48.753124 346.6375 47.70625 347.65314Q46.675 348.65314 44.971874 348.65314Q43.284374 348.65314 42.2375 347.65314Q41.20625 346.6375 41.20625 345.1375Q41.20625 344.0125 41.76875 343.2625Q42.33125 342.5125 43.378124 342.23126ZM43.096874 339.85626Q43.096874 340.66876 43.6125 341.1844Q44.14375 341.7 44.9875 341.7Q45.8 341.7 46.315624 341.1844Q46.83125 340.66876 46.83125 339.9344Q46.83125 339.15314 46.3 338.6375Q45.76875 338.10626 44.971874 338.10626Q44.159374 338.10626 43.628124 338.6219Q43.096874 339.1375 43.096874 339.85626ZM42.64375 345.1375Q42.64375 345.7469 42.925 346.3094Q43.221874 346.8719 43.784374 347.1844Q44.346874 347.48126 44.9875 347.48126Q46.003124 347.48126 46.659374 346.84064Q47.315624 346.1844 47.315624 345.1844Q47.315624 344.16876 46.628124 343.5125Q45.95625 342.84064 44.940624 342.84064Q43.95625 342.84064 43.3 343.4969Q42.64375 344.15314 42.64375 345.1375ZM50.4875 339.7469Q50.4875 338.5125 51.096874 337.65314Q51.721874 336.79376 52.89375 336.79376Q53.971874 336.79376 54.675 337.575Q55.378124 338.34064 55.378124 339.825Q55.378124 341.27814 54.659374 342.075Q53.95625 342.85626 52.909374 342.85626Q51.8625 342.85626 51.175 342.09064Q50.4875 341.3094 50.4875 339.7469ZM52.925 337.7625Q52.409374 337.7625 52.05 338.21564Q51.70625 338.66876 51.70625 339.8875Q51.70625 340.98126 52.05 341.4344Q52.409374 341.8875 52.925 341.8875Q53.45625 341.8875 53.8 341.4344Q54.159374 340.98126 54.159374 339.77814Q54.159374 338.66876 53.8 338.21564Q53.45625 337.7625 52.925 337.7625ZM52.940624 348.8719L59.20625 336.79376L60.346874 336.79376L54.096874 348.8719L52.940624 348.8719ZM57.89375 345.7625Q57.89375 344.52814 58.503124 343.66876Q59.128124 342.8094 60.3 342.8094Q61.378124 342.8094 62.08125 343.59064Q62.8 344.35626 62.8 345.84064Q62.8 347.29376 62.08125 348.09064Q61.3625 348.8719 60.315624 348.8719Q59.26875 348.8719 58.58125 348.09064Q57.89375 347.3094 57.89375 345.7625ZM60.346874 343.77814Q59.815624 343.77814 59.45625 344.23126Q59.1125 344.6844 59.1125 345.90314Q59.1125 346.9969 59.45625 347.45Q59.815624 347.90314 60.33125 347.90314Q60.878124 347.90314 61.221874 347.45Q61.565624 346.9969 61.565624 345.79376Q61.565624 344.6844 61.20625 344.23126Q60.8625 343.77814 60.346874 343.77814Z" fill-rule="nonzero"/><path stroke="#757575" stroke-width="1.0" stroke-linecap="butt" d="M18.55 331.95L145.23334 331.95L254.11076 337.3541" fill-rule="nonzero"/><path fill="#9e9e9e" d="M256.11078 337.3541C256.11078 336.24954 255.21533 335.3541 254.11076 335.3541C253.0062 335.3541 252.11076 336.24954 252.11076 337.3541C252.11076 338.45868 253.0062 339.3541 254.11076 339.3541C255.21533 339.3541 256.11078 338.45868 256.11078 337.3541" fill-rule="nonzero"/><path fill="#efefef" d="M551.6375 69.916664L551.6375 58.46354L553.91876 58.46354L556.6375 66.572914Q557.0125 67.697914 557.1844 68.260414Q557.3719 67.635414 557.79376 66.43229L560.52814 58.46354L562.575 58.46354L562.575 69.916664L561.10626 69.916664L561.10626 60.322914L557.77814 69.916664L556.41876 69.916664L553.10626 60.166664L553.10626 69.916664L551.6375 69.916664ZM569.91876 68.885414Q569.1375 69.55729 568.41876 69.83854Q567.7 70.104164 566.8719 70.104164Q565.4969 70.104164 564.7625 69.43229Q564.02814 68.760414 564.02814 67.729164Q564.02814 67.11979 564.3094 66.61979Q564.59064 66.104164 565.02814 65.80729Q565.48126 65.49479 566.04376 65.33854Q566.46564 65.229164 567.29376 65.135414Q568.9969 64.93229 569.8094 64.65104Q569.8094 64.354164 569.8094 64.27604Q569.8094 63.416664 569.41876 63.072914Q568.8719 62.58854 567.8094 62.58854Q566.825 62.58854 566.34064 62.947914Q565.8719 63.291664 565.65314 64.166664L564.27814 63.979164Q564.46564 63.104164 564.8875 62.55729Q565.325 62.010414 566.1375 61.729164Q566.95 61.43229 568.0125 61.43229Q569.075 61.43229 569.73126 61.68229Q570.40314 61.93229 570.71564 62.30729Q571.02814 62.68229 571.15314 63.260414Q571.23126 63.61979 571.23126 64.55729L571.23126 66.43229Q571.23126 68.40104 571.3094 68.916664Q571.40314 69.43229 571.66876 69.916664L570.2 69.916664Q569.98126 69.479164 569.91876 68.885414ZM569.8094 65.74479Q569.04376 66.05729 567.5125 66.27604Q566.6375 66.40104 566.27814 66.55729Q565.91876 66.71354 565.71564 67.02604Q565.52814 67.322914 565.52814 67.68229Q565.52814 68.24479 565.95 68.61979Q566.3875 68.99479 567.2 68.99479Q568.0125 68.99479 568.6375 68.65104Q569.27814 68.291664 569.575 67.666664Q569.8094 67.197914 569.8094 66.260414L569.8094 65.74479ZM573.5125 73.104164L573.5125 61.61979L574.79376 61.61979L574.79376 62.697914Q575.2469 62.05729 575.8094 61.74479Q576.3875 61.43229 577.2 61.43229Q578.2625 61.43229 579.075 61.979164Q579.8875 62.52604 580.29376 63.52604Q580.71564 64.510414 580.71564 65.697914Q580.71564 66.979164 580.2469 67.99479Q579.79376 69.010414 578.91876 69.55729Q578.0594 70.104164 577.09064 70.104164Q576.3875 70.104164 575.825 69.80729Q575.27814 69.510414 574.91876 69.05729L574.91876 73.104164L573.5125 73.104164ZM574.77814 65.80729Q574.77814 67.416664 575.41876 68.18229Q576.075 68.947914 576.9969 68.947914Q577.9344 68.947914 578.60626 68.15104Q579.27814 67.354164 579.27814 65.697914Q579.27814 64.104164 578.6219 63.322914Q577.96564 62.52604 577.0594 62.52604Q576.16876 62.52604 575.46564 63.36979Q574.77814 64.21354 574.77814 65.80729Z" fill-rule="nonzero"/><path fill="#9e9e9e" d="M546.1219 88.916664L547.59064 88.791664Q547.7625 89.86979 548.35626 90.416664Q548.95 90.947914 549.79376 90.947914Q550.8094 90.947914 551.5125 90.18229Q552.21564 89.416664 552.21564 88.15104Q552.21564 86.947914 551.54376 86.260414Q550.8719 85.55729 549.77814 85.55729Q549.09064 85.55729 548.54376 85.86979Q547.9969 86.18229 547.6844 86.666664L546.3719 86.49479L547.48126 80.61979L553.16876 80.61979L553.16876 81.96354L548.60626 81.96354L547.98126 85.041664Q549.0125 84.322914 550.15314 84.322914Q551.65314 84.322914 552.6844 85.36979Q553.71564 86.40104 553.71564 88.02604Q553.71564 89.58854 552.8094 90.71354Q551.7 92.11979 549.79376 92.11979Q548.23126 92.11979 547.2469 91.24479Q546.2625 90.354164 546.1219 88.916664ZM555.90314 91.916664L555.90314 90.30729L557.5125 90.30729L557.5125 91.916664L555.90314 91.916664ZM559.1219 88.885414L560.52814 88.697914Q560.77814 89.90104 561.35626 90.43229Q561.9344 90.947914 562.77814 90.947914Q563.7625 90.947914 564.45 90.260414Q565.1375 89.572914 565.1375 88.55729Q565.1375 87.58854 564.4969 86.96354Q563.8719 86.33854 562.8875 86.33854Q562.4969 86.33854 561.90314 86.49479L562.0594 85.260414Q562.2 85.27604 562.27814 85.27604Q563.1844 85.27604 563.90314 84.80729Q564.6219 84.33854 564.6219 83.354164Q564.6219 82.58854 564.09064 82.08854Q563.575 81.572914 562.7469 81.572914Q561.91876 81.572914 561.3719 82.08854Q560.825 82.604164 560.66876 83.635414L559.2625 83.385414Q559.52814 81.96354 560.4344 81.197914Q561.35626 80.416664 562.71564 80.416664Q563.65314 80.416664 564.4344 80.822914Q565.23126 81.21354 565.6375 81.916664Q566.0594 82.604164 566.0594 83.385414Q566.0594 84.135414 565.65314 84.74479Q565.2625 85.354164 564.48126 85.71354Q565.4969 85.947914 566.0594 86.68229Q566.6219 87.416664 566.6219 88.52604Q566.6219 90.02604 565.52814 91.072914Q564.4344 92.11979 562.7625 92.11979Q561.2625 92.11979 560.2625 91.229164Q559.2625 90.322914 559.1219 88.885414ZM568.3875 83.21354Q568.3875 81.979164 568.9969 81.11979Q569.6219 80.260414 570.79376 80.260414Q571.8719 80.260414 572.575 81.041664Q573.27814 81.80729 573.27814 83.291664Q573.27814 84.74479 572.5594 85.541664Q571.85626 86.322914 570.8094 86.322914Q569.7625 86.322914 569.075 85.55729Q568.3875 84.77604 568.3875 83.21354ZM570.825 81.229164Q570.3094 81.229164 569.95 81.68229Q569.60626 82.135414 569.60626 83.354164Q569.60626 84.447914 569.95 84.90104Q570.3094 85.354164 570.825 85.354164Q571.35626 85.354164 571.7 84.90104Q572.0594 84.447914 572.0594 83.24479Q572.0594 82.135414 571.7 81.68229Q571.35626 81.229164 570.825 81.229164ZM570.84064 92.33854L577.10626 80.260414L578.2469 80.260414L571.9969 92.33854L570.84064 92.33854ZM575.79376 89.229164Q575.79376 87.99479 576.40314 87.135414Q577.02814 86.27604 578.2 86.27604Q579.27814 86.27604 579.98126 87.05729Q580.7 87.822914 580.7 89.30729Q580.7 90.760414 579.98126 91.55729Q579.2625 92.33854 578.21564 92.33854Q577.16876 92.33854 576.48126 91.55729Q575.79376 90.77604 575.79376 89.229164ZM578.2469 87.24479Q577.71564 87.24479 577.35626 87.697914Q577.0125 88.15104 577.0125 89.36979Q577.0125 90.46354 577.35626 90.916664Q577.71564 91.36979 578.23126 91.36979Q578.77814 91.36979 579.1219 90.916664Q579.46564 90.46354 579.46564 89.260414Q579.46564 88.15104 579.10626 87.697914Q578.7625 87.24479 578.2469 87.24479Z" fill-rule="nonzero"/><path stroke="#757575" stroke-width="1.0" stroke-linecap="butt" d="M581.45 75.416664L454.76666 75.416664L323.26187 64.28253" fill-rule="nonzero"/><path fill="#9e9e9e" d="M325.26187 64.28253C325.26187 63.177963 324.36646 62.282536 323.26187 62.282536C322.15732 62.282536 321.26187 63.177963 321.26187 64.28253C321.26187 65.3871 322.15732 66.28253 323.26187 66.28253C324.36646 66.28253 325.26187 65.3871 325.26187 64.28253" fill-rule="nonzero"/><path fill="#efefef" d="M531.6844 209.85414L531.6844 198.40102L536.0125 198.40102Q537.15314 198.40102 537.7469 198.51039Q538.59064 198.65102 539.15314 199.04164Q539.73126 199.43227 540.075 200.15102Q540.4344 200.85414 540.4344 201.71352Q540.4344 203.16664 539.4969 204.18227Q538.575 205.19789 536.1375 205.19789L533.2 205.19789L533.2 209.85414L531.6844 209.85414ZM533.2 203.83852L536.16876 203.83852Q537.6375 203.83852 538.2469 203.29164Q538.8719 202.74477 538.8719 201.76039Q538.8719 201.04164 538.4969 200.52602Q538.1375 200.01039 537.54376 199.85414Q537.16876 199.74477 536.1375 199.74477L533.2 199.74477L533.2 203.83852ZM548.1844 207.18227L549.6375 207.35414Q549.29376 208.63539 548.35626 209.33852Q547.4344 210.04164 545.9969 210.04164Q544.16876 210.04164 543.10626 208.91664Q542.04376 207.79164 542.04376 205.77602Q542.04376 203.68227 543.1219 202.52602Q544.2 201.36977 545.91876 201.36977Q547.575 201.36977 548.6219 202.51039Q549.6844 203.63539 549.6844 205.68227Q549.6844 205.80727 549.6844 206.05727L543.4969 206.05727Q543.575 207.43227 544.2625 208.16664Q544.96564 208.88539 545.9969 208.88539Q546.77814 208.88539 547.325 208.47914Q547.8719 208.07289 548.1844 207.18227ZM543.575 204.90102L548.2 204.90102Q548.10626 203.85414 547.66876 203.33852Q546.9969 202.52602 545.9344 202.52602Q544.96564 202.52602 544.29376 203.18227Q543.6375 203.82289 543.575 204.90102ZM550.98126 205.69789Q550.98126 203.40102 552.2625 202.29164Q553.34064 201.36977 554.8719 201.36977Q556.59064 201.36977 557.66876 202.49477Q558.7625 203.60414 558.7625 205.58852Q558.7625 207.18227 558.27814 208.10414Q557.79376 209.02602 556.8719 209.54164Q555.96564 210.04164 554.8719 210.04164Q553.1375 210.04164 552.0594 208.93227Q550.98126 207.80727 550.98126 205.69789ZM552.4344 205.69789Q552.4344 207.29164 553.1219 208.08852Q553.825 208.88539 554.8719 208.88539Q555.91876 208.88539 556.60626 208.08852Q557.3094 207.29164 557.3094 205.65102Q557.3094 204.11977 556.60626 203.32289Q555.91876 202.52602 554.8719 202.52602Q553.825 202.52602 553.1219 203.32289Q552.4344 204.10414 552.4344 205.69789ZM560.5125 213.04164L560.5125 201.55727L561.79376 201.55727L561.79376 202.63539Q562.2469 201.99477 562.8094 201.68227Q563.3875 201.36977 564.2 201.36977Q565.2625 201.36977 566.075 201.91664Q566.8875 202.46352 567.29376 203.46352Q567.71564 204.44789 567.71564 205.63539Q567.71564 206.91664 567.2469 207.93227Q566.79376 208.94789 565.91876 209.49477Q565.0594 210.04164 564.09064 210.04164Q563.3875 210.04164 562.825 209.74477Q562.27814 209.44789 561.91876 208.99477L561.91876 213.04164L560.5125 213.04164ZM561.77814 205.74477Q561.77814 207.35414 562.41876 208.11977Q563.075 208.88539 563.9969 208.88539Q564.9344 208.88539 565.60626 208.08852Q566.27814 207.29164 566.27814 205.63539Q566.27814 204.04164 565.6219 203.26039Q564.96564 202.46352 564.0594 202.46352Q563.16876 202.46352 562.46564 203.30727Q561.77814 204.15102 561.77814 205.74477ZM569.48126 209.85414L569.48126 198.40102L570.8875 198.40102L570.8875 209.85414L569.48126 209.85414ZM579.1844 207.18227L580.6375 207.35414Q580.29376 208.63539 579.35626 209.33852Q578.4344 210.04164 576.9969 210.04164Q575.16876 210.04164 574.10626 208.91664Q573.04376 207.79164 573.04376 205.77602Q573.04376 203.68227 574.1219 202.52602Q575.2 201.36977 576.91876 201.36977Q578.575 201.36977 579.6219 202.51039Q580.6844 203.63539 580.6844 205.68227Q580.6844 205.80727 580.6844 206.05727L574.4969 206.05727Q574.575 207.43227 575.2625 208.16664Q575.96564 208.88539 576.9969 208.88539Q577.77814 208.88539 578.325 208.47914Q578.8719 208.07289 579.1844 207.18227ZM574.575 204.90102L579.2 204.90102Q579.10626 203.85414 578.66876 203.33852Q577.9969 202.52602 576.9344 202.52602Q575.96564 202.52602 575.29376 203.18227Q574.6375 203.82289 574.575 204.90102Z" fill-rule="nonzero"/><path fill="#9e9e9e" d="M541.6219 231.85414L541.6219 229.10414L536.65314 229.10414L536.65314 227.82289L541.8875 220.40102L543.02814 220.40102L543.02814 227.82289L544.575 227.82289L544.575 229.10414L543.02814 229.10414L543.02814 231.85414L541.6219 231.85414ZM541.6219 227.82289L541.6219 222.65102L538.04376 227.82289L541.6219 227.82289ZM553.5125 230.49477L553.5125 231.85414L545.9344 231.85414Q545.91876 231.33852 546.10626 230.86977Q546.3875 230.10414 547.02814 229.35414Q547.66876 228.60414 548.8719 227.61977Q550.73126 226.08852 551.3875 225.19789Q552.04376 224.29164 552.04376 223.49477Q552.04376 222.66664 551.45 222.08852Q550.85626 221.51039 549.8875 221.51039Q548.8719 221.51039 548.2625 222.11977Q547.65314 222.72914 547.65314 223.80727L546.2 223.66664Q546.35626 222.04164 547.325 221.19789Q548.29376 220.35414 549.91876 220.35414Q551.575 220.35414 552.52814 221.27602Q553.4969 222.18227 553.4969 223.52602Q553.4969 224.21352 553.21564 224.88539Q552.9344 225.54164 552.27814 226.27602Q551.6219 227.01039 550.10626 228.29164Q548.84064 229.35414 548.48126 229.74477Q548.1219 230.11977 547.8875 230.49477L553.5125 230.49477ZM555.90314 231.85414L555.90314 230.24477L557.5125 230.24477L557.5125 231.85414L555.90314 231.85414ZM564.41876 231.85414L563.0125 231.85414L563.0125 222.88539Q562.4969 223.36977 561.66876 223.85414Q560.85626 224.33852 560.2 224.58852L560.2 223.22914Q561.3719 222.66664 562.2469 221.88539Q563.1375 221.08852 563.5125 220.35414L564.41876 220.35414L564.41876 231.85414ZM568.3875 223.15102Q568.3875 221.91664 568.9969 221.05727Q569.6219 220.19789 570.79376 220.19789Q571.8719 220.19789 572.575 220.97914Q573.27814 221.74477 573.27814 223.22914Q573.27814 224.68227 572.5594 225.47914Q571.85626 226.26039 570.8094 226.26039Q569.7625 226.26039 569.075 225.49477Q568.3875 224.71352 568.3875 223.15102ZM570.825 221.16664Q570.3094 221.16664 569.95 221.61977Q569.60626 222.07289 569.60626 223.29164Q569.60626 224.38539 569.95 224.83852Q570.3094 225.29164 570.825 225.29164Q571.35626 225.29164 571.7 224.83852Q572.0594 224.38539 572.0594 223.18227Q572.0594 222.07289 571.7 221.61977Q571.35626 221.16664 570.825 221.16664ZM570.84064 232.27602L577.10626 220.19789L578.2469 220.19789L571.9969 232.27602L570.84064 232.27602ZM575.79376 229.16664Q575.79376 227.93227 576.40314 227.07289Q577.02814 226.21352 578.2 226.21352Q579.27814 226.21352 579.98126 226.99477Q580.7 227.76039 580.7 229.24477Q580.7 230.69789 579.98126 231.49477Q579.2625 232.27602 578.21564 232.27602Q577.16876 232.27602 576.48126 231.49477Q575.79376 230.71352 575.79376 229.16664ZM578.2469 227.18227Q577.71564 227.18227 577.35626 227.63539Q577.0125 228.08852 577.0125 229.30727Q577.0125 230.40102 577.35626 230.85414Q577.71564 231.30727 578.23126 231.30727Q578.77814 231.30727 579.1219 230.85414Q579.46564 230.40102 579.46564 229.19789Q579.46564 228.08852 579.10626 227.63539Q578.7625 227.18227 578.2469 227.18227Z" fill-rule="nonzero"/><path stroke="#757575" stroke-width="1.0" stroke-linecap="butt" d="M581.45 215.35414L454.76666 215.35414L440.8456 215.35414" fill-rule="nonzero"/><path fill="#9e9e9e" d="M442.8456 215.35414C442.8456 214.24956 441.9502 213.35414 440.8456 213.35414C439.74106 213.35414 438.8456 214.24956 438.8456 215.35414C438.8456 216.45871 439.74106 217.35414 440.8456 217.35414C441.9502 217.35414 442.8456 216.45871 442.8456 215.35414" fill-rule="nonzero"/><path fill="#f3f3f3" d="M265.98438 37.55L265.98438 23.2375L268.84375 23.2375L272.21875 33.3625Q272.6875 34.784374 272.90625 35.4875Q273.15625 34.70625 273.67188 33.190624L277.09375 23.2375L279.64062 23.2375L279.64062 37.55L277.82812 37.55L277.82812 25.565624L273.65625 37.55L271.95312 37.55L267.8125 25.3625L267.8125 37.55L265.98438 37.55ZM289.92188 34.20625L291.73438 34.440624Q291.3125 36.01875 290.14062 36.909374Q288.98438 37.784374 287.17188 37.784374Q284.90625 37.784374 283.5625 36.39375Q282.23438 34.9875 282.23438 32.45625Q282.23438 29.83125 283.57812 28.39375Q284.92188 26.940624 287.07812 26.940624Q289.15625 26.940624 290.46875 28.3625Q291.79688 29.76875 291.79688 32.346874Q291.79688 32.503124 291.78125 32.815624L284.04688 32.815624Q284.14062 34.51875 285.01562 35.425Q285.89062 36.33125 287.1875 36.33125Q288.15625 36.33125 288.82812 35.83125Q289.51562 35.315624 289.92188 34.20625ZM284.14062 31.3625L289.9375 31.3625Q289.82812 30.065624 289.28125 29.409374Q288.4375 28.39375 287.09375 28.39375Q285.89062 28.39375 285.0625 29.20625Q284.23438 30.003124 284.14062 31.3625ZM300.54688 37.55L300.54688 36.2375Q299.5625 37.784374 297.64062 37.784374Q296.40625 37.784374 295.35938 37.096874Q294.32812 36.409374 293.75 35.190624Q293.1875 33.971874 293.1875 32.378124Q293.1875 30.815624 293.70312 29.55Q294.21875 28.284374 295.25 27.6125Q296.29688 26.940624 297.5625 26.940624Q298.5 26.940624 299.23438 27.346874Q299.96875 27.7375 300.4375 28.3625L300.4375 23.2375L302.17188 23.2375L302.17188 37.55L300.54688 37.55ZM294.98438 32.378124Q294.98438 34.3625 295.82812 35.346874Q296.67188 36.33125 297.8125 36.33125Q298.96875 36.33125 299.76562 35.39375Q300.57812 34.45625 300.57812 32.51875Q300.57812 30.39375 299.75 29.39375Q298.9375 28.39375 297.73438 28.39375Q296.5625 28.39375 295.76562 29.3625Q294.98438 30.315624 294.98438 32.378124ZM304.82812 25.253124L304.82812 23.2375L306.59375 23.2375L306.59375 25.253124L304.82812 25.253124ZM304.82812 37.55L304.82812 27.175L306.59375 27.175L306.59375 37.55L304.82812 37.55ZM315.60938 37.55L315.60938 36.01875Q314.40625 37.784374 312.32812 37.784374Q311.40625 37.784374 310.60938 37.440624Q309.8125 37.08125 309.42188 36.55Q309.04688 36.01875 308.89062 35.2375Q308.78125 34.721874 308.78125 33.596874L308.78125 27.175L310.53125 27.175L310.53125 32.925Q310.53125 34.3 310.64062 34.784374Q310.8125 35.471874 311.34375 35.878124Q311.89062 36.26875 312.67188 36.26875Q313.46875 36.26875 314.15625 35.8625Q314.85938 35.45625 315.14062 34.76875Q315.4375 34.065624 315.4375 32.7375L315.4375 27.175L317.1875 27.175L317.1875 37.55L315.60938 37.55ZM319.8125 37.55L319.8125 27.175L321.39062 27.175L321.39062 28.628124Q321.875 27.878124 322.6875 27.409374Q323.5 26.940624 324.53125 26.940624Q325.6875 26.940624 326.42188 27.425Q327.15625 27.89375 327.46875 28.753124Q328.70312 26.940624 330.67188 26.940624Q332.21875 26.940624 333.04688 27.8Q333.875 28.659374 333.875 30.425L333.875 37.55L332.125 37.55L332.125 31.01875Q332.125 29.95625 331.95312 29.503124Q331.78125 29.034374 331.32812 28.753124Q330.89062 28.471874 330.28125 28.471874Q329.1875 28.471874 328.45312 29.20625Q327.73438 29.925 327.73438 31.51875L327.73438 37.55L325.98438 37.55L325.98438 30.815624Q325.98438 29.64375 325.54688 29.065624Q325.125 28.471874 324.14062 28.471874Q323.40625 28.471874 322.76562 28.8625Q322.14062 29.253124 321.85938 30.003124Q321.57812 30.753124 321.57812 32.175L321.57812 37.55L319.8125 37.55Z" fill-rule="nonzero"/></svg>