<svg version="1.1" viewBox="0.0 0.0 600.0 371.0" fill="none" stroke="none" stroke-linecap="square" stroke-miterlimit="10" width="600" height="371" xmlns:xlink="http://www.w3.org/1999/xlink" xmlns="http://www.w3.org/2000/svg"><path fill="#ffffff" fill-opacity="0.0" d="M0 0L600.0 0L600.0 371.0L0 371.0L0 0Z" fill-rule="nonzero"/><path fill="#4285f4" d="M300.0 54.916668C318.38034 54.916668 336.60156 58.3228 353.74072 64.96255L326.87036 134.32294C318.30078 131.00307 309.1902 129.3 300.0 129.3Z" fill-rule="nonzero"/><path fill="#b3ca48" d="M353.74072 64.96255C370.87988 71.602295 386.64023 81.36068 400.22345 93.74344L350.11172 148.7134C343.3201 142.522 335.43994 137.6428 326.87036 134.32294Z" fill-rule="nonzero"/><path fill="#4571b0" d="M400.22345 93.74344C413.8067 106.1262 424.97763 120.91891 433.17047 137.37233L366.58524 170.52783C362.48883 162.30112 356.90335 154.90477 350.11172 148.7134Z" fill-rule="nonzero"/><path fill="#2d4d98" d="M433.17047 137.37233C441.36328 153.82574 446.43613 171.65494 448.13205 189.95688L374.06604 196.8201C373.21808 187.66913 370.68164 178.75453 366.58524 170.52783Z" fill-rule="nonzero"/><path fill="#d8753e" d="M166.82954 137.37233C191.98569 86.851974 243.56297 54.916668 300.0 54.916668L300.0 129.3C271.7815 129.3 245.99284 145.26765 233.41476 170.52783Z" fill-rule="nonzero"/><path fill="#8c4595" d="M156.9124 244.39526C146.76523 208.73166 150.30197 170.56415 166.82954 137.37233L233.41476 170.52783C225.15099 187.12375 223.38261 206.20749 228.4562 224.03929Z" fill-rule="nonzero"/><path fill="#78a94e" d="M448.13205 189.95688C455.22226 266.47244 402.87076 335.79703 327.33582 349.91696C251.80086 364.0369 177.94159 318.30518 156.9124 244.39526L228.4562 224.03929C238.9708 260.99426 275.90042 283.8601 313.6679 276.80014C351.43536 269.74017 377.61115 235.07788 374.06604 196.8201Z" fill-rule="nonzero"/><path fill="#ffffff" d="M387.5657 176.27438L389.22195 176.13376Q389.40945 177.35251 390.08133 177.96188Q390.7532 178.57126 391.70633 178.57126Q392.84695 178.57126 393.6282 177.71188Q394.42508 176.85251 394.42508 175.41501Q394.42508 174.07126 393.65945 173.29001Q392.90945 172.50876 391.67508 172.50876Q390.90945 172.50876 390.28445 172.85251Q389.67508 173.19626 389.33133 173.75876L387.84695 173.55563L389.09695 166.94626L395.5032 166.94626L395.5032 168.44626L390.36258 168.44626L389.65945 171.91501Q390.83133 171.10251 392.09695 171.10251Q393.78445 171.10251 394.9407 172.27438Q396.11258 173.44626 396.11258 175.27438Q396.11258 177.02438 395.08133 178.30563Q393.84695 179.86813 391.70633 179.86813Q389.9407 179.86813 388.83133 178.88376Q387.72195 177.89938 387.5657 176.27438ZM398.45633 179.64938L398.45633 177.85251L400.2532 177.85251L400.2532 179.64938L398.45633 179.64938ZM402.80008 176.66501L404.3157 176.52438Q404.51883 177.60251 405.05008 178.08688Q405.59695 178.57126 406.45633 178.57126Q407.1907 178.57126 407.73758 178.24313Q408.28445 177.89938 408.6282 177.35251Q408.98758 176.79001 409.22195 175.83688Q409.45633 174.88376 409.45633 173.89938Q409.45633 173.79001 409.45633 173.58688Q408.97195 174.33688 408.14383 174.80563Q407.33133 175.27438 406.3782 175.27438Q404.78445 175.27438 403.67508 174.11813Q402.5657 172.96188 402.5657 171.05563Q402.5657 169.10251 403.72195 167.91501Q404.8782 166.71188 406.61258 166.71188Q407.8782 166.71188 408.90945 167.39938Q409.95633 168.07126 410.48758 169.32126Q411.03445 170.57126 411.03445 172.94626Q411.03445 175.41501 410.48758 176.88376Q409.95633 178.33688 408.89383 179.10251Q407.84695 179.86813 406.42508 179.86813Q404.90945 179.86813 403.9407 179.04001Q402.98758 178.19626 402.80008 176.66501ZM409.28445 170.97751Q409.28445 169.61813 408.55008 168.82126Q407.83133 168.02438 406.8157 168.02438Q405.7532 168.02438 404.97195 168.88376Q404.1907 169.74313 404.1907 171.11813Q404.1907 172.35251 404.92508 173.11813Q405.67508 173.88376 406.76883 173.88376Q407.86258 173.88376 408.5657 173.11813Q409.28445 172.35251 409.28445 170.97751ZM412.86258 169.85251Q412.86258 168.47751 413.55008 167.50876Q414.2532 166.54001 415.5657 166.54001Q416.78445 166.54001 417.58133 167.41501Q418.3782 168.27438 418.3782 169.96188Q418.3782 171.58688 417.5657 172.47751Q416.76883 173.35251 415.58133 173.35251Q414.42508 173.35251 413.64383 172.49313Q412.86258 171.61813 412.86258 169.85251ZM415.61258 167.63376Q415.01883 167.63376 414.6282 168.14938Q414.23758 168.64938 414.23758 170.00876Q414.23758 171.25876 414.6282 171.75876Q415.03445 172.25876 415.61258 172.25876Q416.20633 172.25876 416.59695 171.75876Q416.98758 171.24313 416.98758 169.89938Q416.98758 168.64938 416.59695 168.14938Q416.20633 167.63376 415.61258 167.63376ZM415.6282 180.11813L422.67508 166.54001L423.95633 166.54001L416.92508 180.11813L415.6282 180.11813ZM421.1907 176.61813Q421.1907 175.24313 421.8782 174.27438Q422.58133 173.30563 423.90945 173.30563Q425.1282 173.30563 425.90945 174.18063Q426.70633 175.04001 426.70633 176.72751Q426.70633 178.35251 425.90945 179.24313Q425.11258 180.11813 423.92508 180.11813Q422.7532 180.11813 421.97195 179.24313Q421.1907 178.36813 421.1907 176.61813ZM423.95633 174.39938Q423.36258 174.39938 422.97195 174.91501Q422.58133 175.41501 422.58133 176.79001Q422.58133 178.00876 422.97195 178.52438Q423.36258 179.04001 423.9407 179.04001Q424.55008 179.04001 424.9407 178.52438Q425.33133 178.00876 425.33133 176.66501Q425.33133 175.41501 424.9407 174.91501Q424.55008 174.39938 423.95633 174.39938Z" fill-rule="nonzero"/><path fill="#ffffff" d="M300.933 320.49332L300.933 317.4152L295.3549 317.4152L295.3549 315.96207L301.2299 307.6027L302.52676 307.6027L302.52676 315.96207L304.26114 315.96207L304.26114 317.4152L302.52676 317.4152L302.52676 320.49332L300.933 320.49332ZM300.933 315.96207L300.933 310.14957L296.90176 315.96207L300.933 315.96207ZM305.9799 309.2902L305.9799 307.77457L314.308 307.77457L314.308 309.00894Q313.08926 310.32144 311.8705 312.49332Q310.6674 314.64957 310.01114 316.94644Q309.52676 318.57144 309.40176 320.49332L307.77676 320.49332Q307.808 318.9777 308.3705 316.82144Q308.94864 314.6652 310.01114 312.6652Q311.07364 310.6652 312.27676 309.2902L305.9799 309.2902ZM316.76114 320.49332L316.76114 318.69644L318.558 318.69644L318.558 320.49332L316.76114 320.49332ZM326.82364 320.49332L325.2455 320.49332L325.2455 310.4152Q324.6674 310.96207 323.7455 311.50894Q322.82364 312.0402 322.07364 312.32144L322.07364 310.7902Q323.40176 310.1652 324.40176 309.27457Q325.40176 308.38394 325.808 307.55582L326.82364 307.55582L326.82364 320.49332ZM331.1674 310.69644Q331.1674 309.32144 331.8549 308.3527Q332.558 307.38394 333.8705 307.38394Q335.08926 307.38394 335.88614 308.25894Q336.683 309.11832 336.683 310.80582Q336.683 312.43082 335.8705 313.32144Q335.07364 314.19644 333.88614 314.19644Q332.7299 314.19644 331.94864 313.33707Q331.1674 312.46207 331.1674 310.69644ZM333.9174 308.4777Q333.32364 308.4777 332.933 308.99332Q332.5424 309.49332 332.5424 310.8527Q332.5424 312.1027 332.933 312.6027Q333.33926 313.1027 333.9174 313.1027Q334.51114 313.1027 334.90176 312.6027Q335.2924 312.08707 335.2924 310.74332Q335.2924 309.49332 334.90176 308.99332Q334.51114 308.4777 333.9174 308.4777ZM333.933 320.96207L340.9799 307.38394L342.26114 307.38394L335.2299 320.96207L333.933 320.96207ZM339.4955 317.46207Q339.4955 316.08707 340.183 315.11832Q340.88614 314.14957 342.21426 314.14957Q343.433 314.14957 344.21426 315.02457Q345.01114 315.88394 345.01114 317.57144Q345.01114 319.19644 344.21426 320.08707Q343.4174 320.96207 342.2299 320.96207Q341.058 320.96207 340.27676 320.08707Q339.4955 319.21207 339.4955 317.46207ZM342.26114 315.24332Q341.6674 315.24332 341.27676 315.75894Q340.88614 316.25894 340.88614 317.63394Q340.88614 318.8527 341.27676 319.36832Q341.6674 319.88394 342.2455 319.88394Q342.8549 319.88394 343.2455 319.36832Q343.63614 318.8527 343.63614 317.50894Q343.63614 316.25894 343.2455 315.75894Q342.8549 315.24332 342.26114 315.24332Z" fill-rule="nonzero"/><path fill="#ffffff" d="M170.10408 199.88849L168.52596 199.88849L168.52596 189.81036Q167.94783 190.35724 167.02596 190.90411Q166.10408 191.43536 165.35408 191.71661L165.35408 190.18536Q166.6822 189.56036 167.6822 188.66974Q168.6822 187.77911 169.08846 186.95099L170.10408 186.95099L170.10408 199.88849ZM180.10408 199.88849L178.52596 199.88849L178.52596 189.81036Q177.94783 190.35724 177.02596 190.90411Q176.10408 191.43536 175.35408 191.71661L175.35408 190.18536Q176.6822 189.56036 177.6822 188.66974Q178.6822 187.77911 179.08846 186.95099L180.10408 186.95099L180.10408 199.88849ZM185.04158 199.88849L185.04158 198.09161L186.83846 198.09161L186.83846 199.88849L185.04158 199.88849ZM191.58846 192.90411Q190.60408 192.54474 190.1197 191.87286Q189.65096 191.20099 189.65096 190.27911Q189.65096 188.87286 190.65096 187.91974Q191.66658 186.95099 193.35408 186.95099Q195.04158 186.95099 196.0572 187.93536Q197.08846 188.90411 197.08846 190.31036Q197.08846 191.21661 196.6197 191.88849Q196.15096 192.54474 195.19783 192.90411Q196.38533 193.29474 196.9947 194.15411Q197.6197 195.01349 197.6197 196.20099Q197.6197 197.85724 196.44783 198.98224Q195.27596 200.10724 193.3697 200.10724Q191.46346 200.10724 190.29158 198.98224Q189.13533 197.84161 189.13533 196.15411Q189.13533 194.90411 189.76033 194.06036Q190.40096 193.20099 191.58846 192.90411ZM191.26033 190.21661Q191.26033 191.13849 191.85408 191.71661Q192.44783 192.29474 193.38533 192.29474Q194.29158 192.29474 194.8697 191.71661Q195.46346 191.13849 195.46346 190.31036Q195.46346 189.43536 194.85408 188.84161Q194.26033 188.24786 193.3697 188.24786Q192.46346 188.24786 191.85408 188.82599Q191.26033 189.40411 191.26033 190.21661ZM190.76033 196.16974Q190.76033 196.84161 191.07283 197.48224Q191.40096 198.10724 192.02596 198.46661Q192.66658 198.81036 193.40096 198.81036Q194.52596 198.81036 195.26033 198.07599Q196.01033 197.34161 196.01033 196.21661Q196.01033 195.07599 195.2447 194.34161Q194.47908 193.59161 193.33846 193.59161Q192.22908 193.59161 191.4947 194.32599Q190.76033 195.06036 190.76033 196.16974ZM199.44783 190.09161Q199.44783 188.71661 200.13533 187.74786Q200.83846 186.77911 202.15096 186.77911Q203.3697 186.77911 204.16658 187.65411Q204.96346 188.51349 204.96346 190.20099Q204.96346 191.82599 204.15096 192.71661Q203.35408 193.59161 202.16658 193.59161Q201.01033 193.59161 200.22908 192.73224Q199.44783 191.85724 199.44783 190.09161ZM202.19783 187.87286Q201.60408 187.87286 201.21346 188.38849Q200.82283 188.88849 200.82283 190.24786Q200.82283 191.49786 201.21346 191.99786Q201.6197 192.49786 202.19783 192.49786Q202.79158 192.49786 203.1822 191.99786Q203.57283 191.48224 203.57283 190.13849Q203.57283 188.88849 203.1822 188.38849Q202.79158 187.87286 202.19783 187.87286ZM202.21346 200.35724L209.26033 186.77911L210.54158 186.77911L203.51033 200.35724L202.21346 200.35724ZM207.77596 196.85724Q207.77596 195.48224 208.46346 194.51349Q209.16658 193.54474 210.4947 193.54474Q211.71346 193.54474 212.4947 194.41974Q213.29158 195.27911 213.29158 196.96661Q213.29158 198.59161 212.4947 199.48224Q211.69783 200.35724 210.51033 200.35724Q209.33846 200.35724 208.5572 199.48224Q207.77596 198.60724 207.77596 196.85724ZM210.54158 194.63849Q209.94783 194.63849 209.5572 195.15411Q209.16658 195.65411 209.16658 197.02911Q209.16658 198.24786 209.5572 198.76349Q209.94783 199.27911 210.52596 199.27911Q211.13533 199.27911 211.52596 198.76349Q211.91658 198.24786 211.91658 196.90411Q211.91658 195.65411 211.52596 195.15411Q211.13533 194.63849 210.54158 194.63849Z" fill-rule="nonzero"/><path fill="#ffffff" d="M222.46646 115.32036L220.88834 115.32036L220.88834 105.24223Q220.31021 105.78911 219.38834 106.33598Q218.46646 106.86723 217.71646 107.14848L217.71646 105.61723Q219.04459 104.99223 220.04459 104.10161Q221.04459 103.21098 221.45084 102.38286L222.46646 102.38286L222.46646 115.32036ZM226.62271 104.11723L226.62271 102.60161L234.95084 102.60161L234.95084 103.83598Q233.73209 105.14848 232.51334 107.32036Q231.31021 109.47661 230.65396 111.77348Q230.16959 113.39848 230.04459 115.32036L228.41959 115.32036Q228.45084 113.80473 229.01334 111.64848Q229.59146 109.49223 230.65396 107.49223Q231.71646 105.49223 232.91959 104.11723L226.62271 104.11723ZM237.40396 115.32036L237.40396 113.52348L239.20084 113.52348L239.20084 115.32036L237.40396 115.32036ZM249.71646 105.58598L248.15396 105.71098Q247.93521 104.78911 247.54459 104.36723Q246.90396 103.67973 245.96646 103.67973Q245.21646 103.67973 244.63834 104.10161Q243.88834 104.64848 243.45084 105.69536Q243.02896 106.74223 243.01334 108.67973Q243.59146 107.80473 244.40396 107.38286Q245.23209 106.96098 246.13834 106.96098Q247.73209 106.96098 248.84146 108.13286Q249.95084 109.28911 249.95084 111.13286Q249.95084 112.35161 249.41959 113.39848Q248.90396 114.42973 247.98209 114.99223Q247.07584 115.53911 245.91959 115.53911Q243.93521 115.53911 242.68521 114.08598Q241.43521 112.63286 241.43521 109.28911Q241.43521 105.55473 242.82584 103.85161Q244.02896 102.38286 246.06021 102.38286Q247.59146 102.38286 248.56021 103.24223Q249.52896 104.08598 249.71646 105.58598ZM243.26334 111.14848Q243.26334 111.96098 243.60709 112.71098Q243.95084 113.46098 244.57584 113.85161Q245.20084 114.24223 245.88834 114.24223Q246.88834 114.24223 247.60709 113.42973Q248.32584 112.61723 248.32584 111.22661Q248.32584 109.89848 247.60709 109.13286Q246.90396 108.35161 245.82584 108.35161Q244.74771 108.35161 243.99771 109.13286Q243.26334 109.89848 243.26334 111.14848ZM251.81021 105.52348Q251.81021 104.14848 252.49771 103.17973Q253.20084 102.21098 254.51334 102.21098Q255.73209 102.21098 256.52896 103.08598Q257.32584 103.94536 257.32584 105.63286Q257.32584 107.25786 256.51334 108.14848Q255.71646 109.02348 254.52896 109.02348Q253.37271 109.02348 252.59146 108.16411Q251.81021 107.28911 251.81021 105.52348ZM254.56021 103.30473Q253.96646 103.30473 253.57584 103.82036Q253.18521 104.32036 253.18521 105.67973Q253.18521 106.92973 253.57584 107.42973Q253.98209 107.92973 254.56021 107.92973Q255.15396 107.92973 255.54459 107.42973Q255.93521 106.91411 255.93521 105.57036Q255.93521 104.32036 255.54459 103.82036Q255.15396 103.30473 254.56021 103.30473ZM254.57584 115.78911L261.6227 102.21098L262.90396 102.21098L255.87271 115.78911L254.57584 115.78911ZM260.13834 112.28911Q260.13834 110.91411 260.82584 109.94536Q261.52896 108.97661 262.8571 108.97661Q264.07584 108.97661 264.8571 109.85161Q265.65396 110.71098 265.65396 112.39848Q265.65396 114.02348 264.8571 114.91411Q264.0602 115.78911 262.8727 115.78911Q261.70084 115.78911 260.9196 114.91411Q260.13834 114.03911 260.13834 112.28911ZM262.90396 110.07036Q262.3102 110.07036 261.9196 110.58598Q261.52896 111.08598 261.52896 112.46098Q261.52896 113.67973 261.9196 114.19536Q262.3102 114.71098 262.88834 114.71098Q263.4977 114.71098 263.88834 114.19536Q264.27896 113.67973 264.27896 112.33598Q264.27896 111.08598 263.88834 110.58598Q263.4977 110.07036 262.90396 110.07036Z" fill-rule="nonzero"/><path stroke="#ffffff" stroke-width="1.0" stroke-linejoin="round" stroke-linecap="round" d="M326.87036 134.32294C318.30078 131.00307 309.1902 129.3 300.0 129.3L300.0 54.916668C318.38034 54.916668 336.60156 58.3228 353.74072 64.96255" fill-rule="nonzero"/><path stroke="#ffffff" stroke-width="1.0" stroke-linejoin="round" stroke-linecap="round" d="M350.11172 148.7134C343.3201 142.522 335.43994 137.6428 326.87036 134.32294L353.74072 64.96255C370.87988 71.602295 386.64023 81.36068 400.22345 93.74344" fill-rule="nonzero"/><path stroke="#ffffff" stroke-width="1.0" stroke-linejoin="round" stroke-linecap="round" d="M366.58524 170.52783C362.48883 162.30112 356.90335 154.90477 350.11172 148.7134L400.22345 93.74344C413.8067 106.1262 424.97763 120.91891 433.17047 137.37233" fill-rule="nonzero"/><path stroke="#ffffff" stroke-width="1.0" stroke-linejoin="round" stroke-linecap="round" d="M374.06604 196.8201C373.21808 187.66913 370.68164 178.75453 366.58524 170.52783L433.17047 137.37233C441.36328 153.82574 446.43613 171.65494 448.13205 189.95688" fill-rule="nonzero"/><path stroke="#ffffff" stroke-width="1.0" stroke-linejoin="round" stroke-linecap="round" d="M228.4562 224.03929C238.9708 260.99426 275.90042 283.8601 313.6679 276.80014C351.43536 269.74017 377.61115 235.07788 374.06604 196.8201L448.13205 189.95688C455.22226 266.47244 402.87076 335.79703 327.33582 349.91696C251.80086 364.0369 177.94159 318.30518 156.9124 244.39526" fill-rule="nonzero"/><path stroke="#ffffff" stroke-width="1.0" stroke-linejoin="round" stroke-linecap="round" d="M233.41476 170.52783C225.15099 187.12375 223.38261 206.20749 228.4562 224.03929L156.9124 244.39526C146.76523 208.73166 150.30197 170.56415 166.82954 137.37233" fill-rule="nonzero"/><path stroke="#ffffff" stroke-width="1.0" stroke-linejoin="round" stroke-linecap="round" d="M300.0 129.3C271.7815 129.3 245.99284 145.26765 233.41476 170.52783L166.82954 137.37233C191.98569 86.851974 243.56297 54.916668 300.0 54.916668" fill-rule="nonzero"/><path fill="#efefef" d="M18.51875 78.02356L22.925 66.570435L24.565624 66.570435L29.253124 78.02356L27.51875 78.02356L26.190624 74.55481L21.39375 74.55481L20.14375 78.02356L18.51875 78.02356ZM21.83125 73.320435L25.721874 73.320435L24.51875 70.14856Q23.971874 68.695435 23.70625 67.77356Q23.4875 68.86731 23.096874 69.96106L21.83125 73.320435ZM30.596874 78.02356L30.596874 69.726685L31.8625 69.726685L31.8625 70.976685Q32.346874 70.101685 32.753124 69.820435Q33.159374 69.539185 33.659374 69.539185Q34.3625 69.539185 35.096874 69.99231L34.6125 71.289185Q34.096874 70.99231 33.58125 70.99231Q33.128124 70.99231 32.753124 71.27356Q32.39375 71.539185 32.2375 72.039185Q32.003124 72.789185 32.003124 73.67981L32.003124 78.02356L30.596874 78.02356ZM38.675 76.757935L38.878124 78.007935Q38.284374 78.132935 37.815624 78.132935Q37.05 78.132935 36.628124 77.89856Q36.20625 77.64856 36.034374 77.257935Q35.8625 76.851685 35.8625 75.58606L35.8625 70.820435L34.83125 70.820435L34.83125 69.726685L35.8625 69.726685L35.8625 67.664185L37.26875 66.820435L37.26875 69.726685L38.675 69.726685L38.675 70.820435L37.26875 70.820435L37.26875 75.664185Q37.26875 76.27356 37.33125 76.445435Q37.409374 76.61731 37.58125 76.726685Q37.753124 76.820435 38.065624 76.820435Q38.3 76.820435 38.675 76.757935ZM39.05 75.539185L40.440624 75.320435Q40.55 76.164185 41.08125 76.61731Q41.628124 77.05481 42.58125 77.05481Q43.55 77.05481 44.01875 76.664185Q44.4875 76.257935 44.4875 75.726685Q44.4875 75.257935 44.08125 74.976685Q43.784374 74.789185 42.64375 74.507935Q41.096874 74.11731 40.4875 73.83606Q39.89375 73.539185 39.58125 73.039185Q39.284374 72.539185 39.284374 71.92981Q39.284374 71.36731 39.534374 70.89856Q39.784374 70.42981 40.221874 70.11731Q40.55 69.86731 41.1125 69.71106Q41.690624 69.539185 42.33125 69.539185Q43.315624 69.539185 44.05 69.820435Q44.784374 70.101685 45.128124 70.58606Q45.4875 71.05481 45.628124 71.86731L44.253124 72.05481Q44.159374 71.414185 43.70625 71.05481Q43.253124 70.695435 42.440624 70.695435Q41.471874 70.695435 41.05 71.02356Q40.64375 71.33606 40.64375 71.757935Q40.64375 72.039185 40.815624 72.257935Q40.9875 72.476685 41.346874 72.632935Q41.565624 72.71106 42.596874 72.99231Q44.08125 73.382935 44.675 73.64856Q45.26875 73.89856 45.596874 74.382935Q45.940624 74.86731 45.940624 75.58606Q45.940624 76.289185 45.51875 76.914185Q45.1125 77.52356 44.33125 77.86731Q43.565624 78.21106 42.596874 78.21106Q40.971874 78.21106 40.128124 77.539185Q39.284374 76.86731 39.05 75.539185ZM58.159374 76.664185Q57.45625 77.445435 56.628124 77.83606Q55.815624 78.226685 54.8625 78.226685Q53.1125 78.226685 52.08125 77.02356Q51.2375 76.05481 51.2375 74.86731Q51.2375 73.80481 51.925 72.945435Q52.6125 72.08606 53.971874 71.445435Q53.190624 70.55481 52.925 70.007935Q52.675 69.445435 52.675 68.92981Q52.675 67.89856 53.4875 67.132935Q54.3 66.36731 55.51875 66.36731Q56.690624 66.36731 57.440624 67.08606Q58.190624 67.80481 58.190624 68.820435Q58.190624 70.445435 56.01875 71.601685L58.08125 74.226685Q58.425 73.539185 58.628124 72.632935L60.08125 72.945435Q59.70625 74.445435 59.065624 75.414185Q59.8625 76.46106 60.8625 77.164185L59.909374 78.289185Q59.065624 77.74231 58.159374 76.664185ZM55.3 70.695435Q56.20625 70.164185 56.471874 69.757935Q56.753124 69.351685 56.753124 68.851685Q56.753124 68.27356 56.378124 67.89856Q56.003124 67.52356 55.45625 67.52356Q54.878124 67.52356 54.503124 67.89856Q54.128124 68.257935 54.128124 68.789185Q54.128124 69.05481 54.253124 69.351685Q54.39375 69.64856 54.675 69.976685L55.3 70.695435ZM57.26875 75.55481L54.690624 72.36731Q53.55 73.039185 53.14375 73.632935Q52.753124 74.21106 52.753124 74.77356Q52.753124 75.476685 53.3 76.226685Q53.8625 76.976685 54.878124 76.976685Q55.51875 76.976685 56.190624 76.58606Q56.8625 76.17981 57.26875 75.55481ZM65.51875 78.02356L69.925 66.570435L71.56563 66.570435L76.25313 78.02356L74.51875 78.02356L73.19063 74.55481L68.39375 74.55481L67.14375 78.02356L65.51875 78.02356ZM68.83125 73.320435L72.72188 73.320435L71.51875 70.14856Q70.97188 68.695435 70.70625 67.77356Q70.4875 68.86731 70.09688 69.96106L68.83125 73.320435ZM77.6125 78.02356L77.6125 69.726685L78.87813 69.726685L78.87813 70.89856Q79.78438 69.539185 81.51875 69.539185Q82.26875 69.539185 82.89375 69.80481Q83.51875 70.070435 83.83125 70.507935Q84.14375 70.945435 84.26875 71.55481Q84.34688 71.945435 84.34688 72.914185L84.34688 78.02356L82.94063 78.02356L82.94063 72.976685Q82.94063 72.11731 82.76875 71.695435Q82.6125 71.257935 82.19063 71.007935Q81.78438 70.757935 81.22188 70.757935Q80.31563 70.757935 79.65938 71.33606Q79.01875 71.89856 79.01875 73.49231L79.01875 78.02356L77.6125 78.02356ZM89.675 76.757935L89.87813 78.007935Q89.28438 78.132935 88.81563 78.132935Q88.05 78.132935 87.62813 77.89856Q87.20625 77.64856 87.03438 77.257935Q86.8625 76.851685 86.8625 75.58606L86.8625 70.820435L85.83125 70.820435L85.83125 69.726685L86.8625 69.726685L86.8625 67.664185L88.26875 66.820435L88.26875 69.726685L89.675 69.726685L89.675 70.820435L88.26875 70.820435L88.26875 75.664185Q88.26875 76.27356 88.33125 76.445435Q88.40938 76.61731 88.58125 76.726685Q88.75313 76.820435 89.06563 76.820435Q89.3 76.820435 89.675 76.757935ZM90.6125 68.17981L90.6125 66.570435L92.01875 66.570435L92.01875 68.17981L90.6125 68.17981ZM90.6125 78.02356L90.6125 69.726685L92.01875 69.726685L92.01875 78.02356L90.6125 78.02356ZM99.89375 81.21106L99.89375 77.132935Q99.56563 77.601685 98.97188 77.914185Q98.39375 78.21106 97.72188 78.21106Q96.25313 78.21106 95.175 77.039185Q94.1125 75.851685 94.1125 73.789185Q94.1125 72.539185 94.55 71.55481Q94.9875 70.55481 95.8 70.05481Q96.62813 69.539185 97.6125 69.539185Q99.15938 69.539185 100.03438 70.83606L100.03438 69.726685L101.3 69.726685L101.3 81.21106L99.89375 81.21106ZM95.56563 73.851685Q95.56563 75.445435 96.2375 76.257935Q96.90938 77.05481 97.84688 77.05481Q98.7375 77.05481 99.37813 76.289185Q100.03438 75.52356 100.03438 73.976685Q100.03438 72.320435 99.34688 71.49231Q98.675 70.64856 97.75313 70.64856Q96.83125 70.64856 96.19063 71.42981Q95.56563 72.195435 95.56563 73.851685ZM109.05 78.02356L109.05 76.80481Q108.08125 78.21106 106.40938 78.21106Q105.675 78.21106 105.03438 77.92981Q104.40938 77.64856 104.09688 77.226685Q103.78438 76.789185 103.65938 76.17981Q103.58125 75.757935 103.58125 74.86731L103.58125 69.726685L104.9875 69.726685L104.9875 74.320435Q104.9875 75.42981 105.06563 75.80481Q105.20625 76.36731 105.62813 76.67981Q106.06563 76.99231 106.69063 76.99231Q107.33125 76.99231 107.87813 76.67981Q108.44063 76.351685 108.65938 75.789185Q108.89375 75.226685 108.89375 74.164185L108.89375 69.726685L110.3 69.726685L110.3 78.02356L109.05 78.02356ZM112.6125 68.17981L112.6125 66.570435L114.01875 66.570435L114.01875 68.17981L112.6125 68.17981ZM112.6125 78.02356L112.6125 69.726685L114.01875 69.726685L114.01875 78.02356L112.6125 78.02356ZM119.675 76.757935L119.87813 78.007935Q119.28438 78.132935 118.81563 78.132935Q118.05 78.132935 117.62813 77.89856Q117.20625 77.64856 117.03438 77.257935Q116.8625 76.851685 116.8625 75.58606L116.8625 70.820435L115.83125 70.820435L115.83125 69.726685L116.8625 69.726685L116.8625 67.664185L118.26875 66.820435L118.26875 69.726685L119.675 69.726685L119.675 70.820435L118.26875 70.820435L118.26875 75.664185Q118.26875 76.27356 118.33125 76.445435Q118.40938 76.61731 118.58125 76.726685Q118.75313 76.820435 119.06563 76.820435Q119.3 76.820435 119.675 76.757935ZM120.6125 68.17981L120.6125 66.570435L122.01875 66.570435L122.01875 68.17981L120.6125 68.17981ZM120.6125 78.02356L120.6125 69.726685L122.01875 69.726685L122.01875 78.02356L120.6125 78.02356ZM130.28438 75.351685L131.7375 75.52356Q131.39375 76.80481 130.45625 77.507935Q129.53438 78.21106 128.09688 78.21106Q126.26875 78.21106 125.20625 77.08606Q124.14375 75.96106 124.14375 73.945435Q124.14375 71.851685 125.22188 70.695435Q126.3 69.539185 128.01875 69.539185Q129.675 69.539185 130.72188 70.67981Q131.78438 71.80481 131.78438 73.851685Q131.78438 73.976685 131.78438 74.226685L125.59688 74.226685Q125.675 75.601685 126.3625 76.33606Q127.06563 77.05481 128.09688 77.05481Q128.87813 77.05481 129.425 76.64856Q129.97188 76.24231 130.28438 75.351685ZM125.675 73.070435L130.3 73.070435Q130.20625 72.02356 129.76875 71.507935Q129.09688 70.695435 128.03438 70.695435Q127.06563 70.695435 126.39375 71.351685Q125.7375 71.99231 125.675 73.070435ZM133.05 75.539185L134.44063 75.320435Q134.55 76.164185 135.08125 76.61731Q135.62813 77.05481 136.58125 77.05481Q137.55 77.05481 138.01875 76.664185Q138.4875 76.257935 138.4875 75.726685Q138.4875 75.257935 138.08125 74.976685Q137.78438 74.789185 136.64375 74.507935Q135.09688 74.11731 134.4875 73.83606Q133.89375 73.539185 133.58125 73.039185Q133.28438 72.539185 133.28438 71.92981Q133.28438 71.36731 133.53438 70.89856Q133.78438 70.42981 134.22188 70.11731Q134.55 69.86731 135.1125 69.71106Q135.69063 69.539185 136.33125 69.539185Q137.31563 69.539185 138.05 69.820435Q138.78438 70.101685 139.12813 70.58606Q139.4875 71.05481 139.62813 71.86731L138.25313 72.05481Q138.15938 71.414185 137.70625 71.05481Q137.25313 70.695435 136.44063 70.695435Q135.47188 70.695435 135.05 71.02356Q134.64375 71.33606 134.64375 71.757935Q134.64375 72.039185 134.81563 72.257935Q134.9875 72.476685 135.34688 72.632935Q135.56563 72.71106 136.59688 72.99231Q138.08125 73.382935 138.675 73.64856Q139.26875 73.89856 139.59688 74.382935Q139.94063 74.86731 139.94063 75.58606Q139.94063 76.289185 139.51875 76.914185Q139.1125 77.52356 138.33125 77.86731Q137.56563 78.21106 136.59688 78.21106Q134.97188 78.21106 134.12813 77.539185Q133.28438 76.86731 133.05 75.539185Z" fill-rule="nonzero"/><path fill="#9e9e9e" d="M24.51875 100.02356L23.1125 100.02356L23.1125 91.05481Q22.596874 91.539185 21.76875 92.02356Q20.95625 92.507935 20.3 92.757935L20.3 91.39856Q21.471874 90.83606 22.346874 90.05481Q23.2375 89.257935 23.6125 88.52356L24.51875 88.52356L24.51875 100.02356ZM28.315624 90.070435L28.315624 88.71106L35.721874 88.71106L35.721874 89.80481Q34.628124 90.976685 33.55 92.914185Q32.4875 94.83606 31.89375 96.86731Q31.471874 98.30481 31.3625 100.02356L29.909374 100.02356Q29.940624 98.664185 30.440624 96.757935Q30.95625 94.83606 31.89375 93.070435Q32.846874 91.289185 33.925 90.070435L28.315624 90.070435ZM38.003124 100.02356L38.003124 98.414185L39.6125 98.414185L39.6125 100.02356L38.003124 100.02356ZM48.51875 91.36731L47.1125 91.476685Q46.925 90.64856 46.58125 90.27356Q46.01875 89.67981 45.175 89.67981Q44.503124 89.67981 44.003124 90.05481Q43.33125 90.539185 42.940624 91.476685Q42.565624 92.39856 42.55 94.11731Q43.065624 93.33606 43.8 92.96106Q44.534374 92.58606 45.33125 92.58606Q46.7375 92.58606 47.721874 93.632935Q48.721874 94.664185 48.721874 96.30481Q48.721874 97.382935 48.253124 98.30481Q47.784374 99.226685 46.971874 99.726685Q46.159374 100.226685 45.128124 100.226685Q43.378124 100.226685 42.26875 98.92981Q41.159374 97.632935 41.159374 94.664185Q41.159374 91.33606 42.378124 89.83606Q43.45625 88.52356 45.26875 88.52356Q46.6125 88.52356 47.471874 89.289185Q48.346874 90.039185 48.51875 91.36731ZM42.76875 96.30481Q42.76875 97.039185 43.08125 97.71106Q43.39375 98.36731 43.940624 98.71106Q44.503124 99.05481 45.1125 99.05481Q46.003124 99.05481 46.64375 98.33606Q47.284374 97.61731 47.284374 96.382935Q47.284374 95.195435 46.64375 94.52356Q46.01875 93.83606 45.05 93.83606Q44.096874 93.83606 43.425 94.52356Q42.76875 95.195435 42.76875 96.30481ZM50.4875 91.320435Q50.4875 90.08606 51.096874 89.226685Q51.721874 88.36731 52.89375 88.36731Q53.971874 88.36731 54.675 89.14856Q55.378124 89.914185 55.378124 91.39856Q55.378124 92.851685 54.659374 93.64856Q53.95625 94.42981 52.909374 94.42981Q51.8625 94.42981 51.175 93.664185Q50.4875 92.882935 50.4875 91.320435ZM52.925 89.33606Q52.409374 89.33606 52.05 89.789185Q51.70625 90.24231 51.70625 91.46106Q51.70625 92.55481 52.05 93.007935Q52.409374 93.46106 52.925 93.46106Q53.45625 93.46106 53.8 93.007935Q54.159374 92.55481 54.159374 91.351685Q54.159374 90.24231 53.8 89.789185Q53.45625 89.33606 52.925 89.33606ZM52.940624 100.445435L59.20625 88.36731L60.346874 88.36731L54.096874 100.445435L52.940624 100.445435ZM57.89375 97.33606Q57.89375 96.101685 58.503124 95.24231Q59.128124 94.382935 60.3 94.382935Q61.378124 94.382935 62.08125 95.164185Q62.8 95.92981 62.8 97.414185Q62.8 98.86731 62.08125 99.664185Q61.3625 100.445435 60.315624 100.445435Q59.26875 100.445435 58.58125 99.664185Q57.89375 98.882935 57.89375 97.33606ZM60.346874 95.351685Q59.815624 95.351685 59.45625 95.80481Q59.1125 96.257935 59.1125 97.476685Q59.1125 98.570435 59.45625 99.02356Q59.815624 99.476685 60.33125 99.476685Q60.878124 99.476685 61.221874 99.02356Q61.565624 98.570435 61.565624 97.36731Q61.565624 96.257935 61.20625 95.80481Q60.8625 95.351685 60.346874 95.351685Z" fill-rule="nonzero"/><path stroke="#757575" stroke-width="1.0" stroke-linecap="butt" d="M18.55 83.52356L145.23334 83.52356L225.60022 83.52356" fill-rule="nonzero"/><path fill="#9e9e9e" d="M227.60022 83.52356C227.60022 82.41899 226.70479 81.52356 225.60022 81.52356C224.49565 81.52356 223.60022 82.41899 223.60022 83.52356C223.60022 84.628136 224.49565 85.52356 225.60022 85.52356C226.70479 85.52356 227.60022 84.628136 227.60022 83.52356" fill-rule="nonzero"/><path fill="#efefef" d="M19.76875 185.1432L19.76875 173.69008L21.33125 173.69008L27.346874 182.67445L27.346874 173.69008L28.8 173.69008L28.8 185.1432L27.2375 185.1432L21.221874 176.1432L21.221874 185.1432L19.76875 185.1432ZM37.01875 184.11195Q36.2375 184.78383 35.51875 185.06508Q34.8 185.3307 33.971874 185.3307Q32.596874 185.3307 31.8625 184.65883Q31.128124 183.98695 31.128124 182.9557Q31.128124 182.34633 31.409374 181.84633Q31.690624 181.3307 32.128124 181.03383Q32.58125 180.72133 33.14375 180.56508Q33.565624 180.4557 34.39375 180.36195Q36.096874 180.15883 36.909374 179.87758Q36.909374 179.5807 36.909374 179.50258Q36.909374 178.6432 36.51875 178.29945Q35.971874 177.81508 34.909374 177.81508Q33.925 177.81508 33.440624 178.17445Q32.971874 178.5182 32.753124 179.3932L31.378124 179.2057Q31.565624 178.3307 31.9875 177.78383Q32.425 177.23695 33.2375 176.9557Q34.05 176.65883 35.1125 176.65883Q36.175 176.65883 36.83125 176.90883Q37.503124 177.15883 37.815624 177.53383Q38.128124 177.90883 38.253124 178.48695Q38.33125 178.84633 38.33125 179.78383L38.33125 181.65883Q38.33125 183.62758 38.409374 184.1432Q38.503124 184.65883 38.76875 185.1432L37.3 185.1432Q37.08125 184.7057 37.01875 184.11195ZM36.909374 180.97133Q36.14375 181.28383 34.6125 181.50258Q33.7375 181.62758 33.378124 181.78383Q33.01875 181.94008 32.815624 182.25258Q32.628124 182.54945 32.628124 182.90883Q32.628124 183.47133 33.05 183.84633Q33.4875 184.22133 34.3 184.22133Q35.1125 184.22133 35.7375 183.87758Q36.378124 183.5182 36.675 182.8932Q36.909374 182.42445 36.909374 181.48695L36.909374 180.97133ZM43.675 183.87758L43.878124 185.12758Q43.284374 185.25258 42.815624 185.25258Q42.05 185.25258 41.628124 185.0182Q41.20625 184.7682 41.034374 184.37758Q40.8625 183.97133 40.8625 182.7057L40.8625 177.94008L39.83125 177.94008L39.83125 176.84633L40.8625 176.84633L40.8625 174.78383L42.26875 173.94008L42.26875 176.84633L43.675 176.84633L43.675 177.94008L42.26875 177.94008L42.26875 182.78383Q42.26875 183.3932 42.33125 183.56508Q42.409374 183.73695 42.58125 183.84633Q42.753124 183.94008 43.065624 183.94008Q43.3 183.94008 43.675 183.87758ZM50.05 185.1432L50.05 183.92445Q49.08125 185.3307 47.409374 185.3307Q46.675 185.3307 46.034374 185.04945Q45.409374 184.7682 45.096874 184.34633Q44.784374 183.90883 44.659374 183.29945Q44.58125 182.87758 44.58125 181.98695L44.58125 176.84633L45.9875 176.84633L45.9875 181.44008Q45.9875 182.54945 46.065624 182.92445Q46.20625 183.48695 46.628124 183.79945Q47.065624 184.11195 47.690624 184.11195Q48.33125 184.11195 48.878124 183.79945Q49.440624 183.47133 49.659374 182.90883Q49.89375 182.34633 49.89375 181.28383L49.89375 176.84633L51.3 176.84633L51.3 185.1432L50.05 185.1432ZM53.596874 185.1432L53.596874 176.84633L54.8625 176.84633L54.8625 178.09633Q55.346874 177.22133 55.753124 176.94008Q56.159374 176.65883 56.659374 176.65883Q57.3625 176.65883 58.096874 177.11195L57.6125 178.40883Q57.096874 178.11195 56.58125 178.11195Q56.128124 178.11195 55.753124 178.3932Q55.39375 178.65883 55.2375 179.15883Q55.003124 179.90883 55.003124 180.79945L55.003124 185.1432L53.596874 185.1432ZM64.01875 184.11195Q63.2375 184.78383 62.51875 185.06508Q61.8 185.3307 60.971874 185.3307Q59.596874 185.3307 58.8625 184.65883Q58.128124 183.98695 58.128124 182.9557Q58.128124 182.34633 58.409374 181.84633Q58.690624 181.3307 59.128124 181.03383Q59.58125 180.72133 60.14375 180.56508Q60.565624 180.4557 61.39375 180.36195Q63.096874 180.15883 63.909374 179.87758Q63.909374 179.5807 63.909374 179.50258Q63.909374 178.6432 63.51875 178.29945Q62.971874 177.81508 61.909374 177.81508Q60.925 177.81508 60.440624 178.17445Q59.971874 178.5182 59.753124 179.3932L58.378124 179.2057Q58.565624 178.3307 58.9875 177.78383Q59.425 177.23695 60.2375 176.9557Q61.05 176.65883 62.1125 176.65883Q63.175 176.65883 63.83125 176.90883Q64.50313 177.15883 64.81563 177.53383Q65.12813 177.90883 65.25313 178.48695Q65.33125 178.84633 65.33125 179.78383L65.33125 181.65883Q65.33125 183.62758 65.40938 184.1432Q65.50313 184.65883 65.76875 185.1432L64.3 185.1432Q64.08125 184.7057 64.01875 184.11195ZM63.909374 180.97133Q63.14375 181.28383 61.6125 181.50258Q60.7375 181.62758 60.378124 181.78383Q60.01875 181.94008 59.815624 182.25258Q59.628124 182.54945 59.628124 182.90883Q59.628124 183.47133 60.05 183.84633Q60.4875 184.22133 61.3 184.22133Q62.1125 184.22133 62.7375 183.87758Q63.378124 183.5182 63.675 182.8932Q63.909374 182.42445 63.909374 181.48695L63.909374 180.97133ZM67.58125 185.1432L67.58125 173.69008L68.9875 173.69008L68.9875 185.1432L67.58125 185.1432Z" fill-rule="nonzero"/><path fill="#9e9e9e" d="M24.51875 207.1432L23.1125 207.1432L23.1125 198.17445Q22.596874 198.65883 21.76875 199.1432Q20.95625 199.62758 20.3 199.87758L20.3 198.5182Q21.471874 197.9557 22.346874 197.17445Q23.2375 196.37758 23.6125 195.6432L24.51875 195.6432L24.51875 207.1432ZM33.51875 207.1432L32.1125 207.1432L32.1125 198.17445Q31.596874 198.65883 30.76875 199.1432Q29.95625 199.62758 29.3 199.87758L29.3 198.5182Q30.471874 197.9557 31.346874 197.17445Q32.2375 196.37758 32.6125 195.6432L33.51875 195.6432L33.51875 207.1432ZM38.003124 207.1432L38.003124 205.53383L39.6125 205.53383L39.6125 207.1432L38.003124 207.1432ZM43.378124 200.92445Q42.503124 200.61195 42.08125 200.0182Q41.659374 199.42445 41.659374 198.59633Q41.659374 197.34633 42.55 196.50258Q43.45625 195.6432 44.95625 195.6432Q46.45625 195.6432 47.3625 196.5182Q48.284374 197.37758 48.284374 198.62758Q48.284374 199.42445 47.8625 200.0182Q47.440624 200.61195 46.596874 200.92445Q47.64375 201.2682 48.190624 202.03383Q48.753124 202.79945 48.753124 203.86195Q48.753124 205.3307 47.70625 206.34633Q46.675 207.34633 44.971874 207.34633Q43.284374 207.34633 42.2375 206.34633Q41.20625 205.3307 41.20625 203.8307Q41.20625 202.7057 41.76875 201.9557Q42.33125 201.2057 43.378124 200.92445ZM43.096874 198.54945Q43.096874 199.36195 43.6125 199.87758Q44.14375 200.3932 44.9875 200.3932Q45.8 200.3932 46.315624 199.87758Q46.83125 199.36195 46.83125 198.62758Q46.83125 197.84633 46.3 197.3307Q45.76875 196.79945 44.971874 196.79945Q44.159374 196.79945 43.628124 197.31508Q43.096874 197.8307 43.096874 198.54945ZM42.64375 203.8307Q42.64375 204.44008 42.925 205.00258Q43.221874 205.56508 43.784374 205.87758Q44.346874 206.17445 44.9875 206.17445Q46.003124 206.17445 46.659374 205.53383Q47.315624 204.87758 47.315624 203.87758Q47.315624 202.86195 46.628124 202.2057Q45.95625 201.53383 44.940624 201.53383Q43.95625 201.53383 43.3 202.19008Q42.64375 202.84633 42.64375 203.8307ZM50.4875 198.44008Q50.4875 197.2057 51.096874 196.34633Q51.721874 195.48695 52.89375 195.48695Q53.971874 195.48695 54.675 196.2682Q55.378124 197.03383 55.378124 198.5182Q55.378124 199.97133 54.659374 200.7682Q53.95625 201.54945 52.909374 201.54945Q51.8625 201.54945 51.175 200.78383Q50.4875 200.00258 50.4875 198.44008ZM52.925 196.4557Q52.409374 196.4557 52.05 196.90883Q51.70625 197.36195 51.70625 198.5807Q51.70625 199.67445 52.05 200.12758Q52.409374 200.5807 52.925 200.5807Q53.45625 200.5807 53.8 200.12758Q54.159374 199.67445 54.159374 198.47133Q54.159374 197.36195 53.8 196.90883Q53.45625 196.4557 52.925 196.4557ZM52.940624 207.56508L59.20625 195.48695L60.346874 195.48695L54.096874 207.56508L52.940624 207.56508ZM57.89375 204.4557Q57.89375 203.22133 58.503124 202.36195Q59.128124 201.50258 60.3 201.50258Q61.378124 201.50258 62.08125 202.28383Q62.8 203.04945 62.8 204.53383Q62.8 205.98695 62.08125 206.78383Q61.3625 207.56508 60.315624 207.56508Q59.26875 207.56508 58.58125 206.78383Q57.89375 206.00258 57.89375 204.4557ZM60.346874 202.47133Q59.815624 202.47133 59.45625 202.92445Q59.1125 203.37758 59.1125 204.59633Q59.1125 205.69008 59.45625 206.1432Q59.815624 206.59633 60.33125 206.59633Q60.878124 206.59633 61.221874 206.1432Q61.565624 205.69008 61.565624 204.48695Q61.565624 203.37758 61.20625 202.92445Q60.8625 202.47133 60.346874 202.47133Z" fill-rule="nonzero"/><path stroke="#757575" stroke-width="1.0" stroke-linecap="butt" d="M18.55 190.6432L145.23334 190.6432L159.27455 190.6432" fill-rule="nonzero"/><path fill="#9e9e9e" d="M161.27455 190.6432C161.27455 189.53864 160.37912 188.6432 159.27455 188.6432C158.16998 188.6432 157.27455 189.53864 157.27455 190.6432C157.27455 191.74777 158.16998 192.6432 159.27455 192.6432C160.37912 192.6432 161.27455 191.74777 161.27455 190.6432" fill-rule="nonzero"/><path fill="#efefef" d="M509.6375 69.916664L509.6375 58.46354L511.91876 58.46354L514.6375 66.572914Q515.0125 67.697914 515.1844 68.260414Q515.3719 67.635414 515.79376 66.43229L518.52814 58.46354L520.575 58.46354L520.575 69.916664L519.10626 69.916664L519.10626 60.322914L515.77814 69.916664L514.41876 69.916664L511.10626 60.166664L511.10626 69.916664L509.6375 69.916664ZM522.45 73.11979L522.29376 71.791664Q522.7469 71.916664 523.09064 71.916664Q523.5594 71.916664 523.84064 71.760414Q524.1219 71.604164 524.3094 71.322914Q524.4344 71.11979 524.73126 70.27604Q524.77814 70.166664 524.85626 69.93229L521.71564 61.61979L523.23126 61.61979L524.95 66.416664Q525.29376 67.33854 525.5594 68.33854Q525.79376 67.36979 526.1375 66.447914L527.90314 61.61979L529.3094 61.61979L526.15314 70.05729Q525.65314 71.43229 525.3719 71.947914Q524.9969 72.635414 524.5125 72.96354Q524.02814 73.291664 523.35626 73.291664Q522.95 73.291664 522.45 73.11979ZM533.575 68.65104L533.77814 69.90104Q533.1844 70.02604 532.71564 70.02604Q531.95 70.02604 531.52814 69.791664Q531.10626 69.541664 530.9344 69.15104Q530.7625 68.74479 530.7625 67.479164L530.7625 62.71354L529.73126 62.71354L529.73126 61.61979L530.7625 61.61979L530.7625 59.55729L532.16876 58.71354L532.16876 61.61979L533.575 61.61979L533.575 62.71354L532.16876 62.71354L532.16876 67.55729Q532.16876 68.166664 532.23126 68.33854Q532.3094 68.510414 532.48126 68.61979Q532.65314 68.71354 532.96564 68.71354Q533.2 68.71354 533.575 68.65104ZM534.5125 69.916664L534.5125 58.46354L535.91876 58.46354L535.91876 62.572914Q536.90314 61.43229 538.40314 61.43229Q539.325 61.43229 539.9969 61.791664Q540.6844 62.15104 540.96564 62.791664Q541.2625 63.43229 541.2625 64.65104L541.2625 69.916664L539.85626 69.916664L539.85626 64.65104Q539.85626 63.604164 539.40314 63.11979Q538.95 62.635414 538.10626 62.635414Q537.48126 62.635414 536.9344 62.96354Q536.3875 63.291664 536.15314 63.854164Q535.91876 64.40104 535.91876 65.36979L535.91876 69.916664L534.5125 69.916664ZM542.98126 65.760414Q542.98126 63.46354 544.2625 62.354164Q545.34064 61.43229 546.8719 61.43229Q548.59064 61.43229 549.66876 62.55729Q550.7625 63.666664 550.7625 65.65104Q550.7625 67.24479 550.27814 68.166664Q549.79376 69.08854 548.8719 69.604164Q547.96564 70.104164 546.8719 70.104164Q545.1375 70.104164 544.0594 68.99479Q542.98126 67.86979 542.98126 65.760414ZM544.4344 65.760414Q544.4344 67.354164 545.1219 68.15104Q545.825 68.947914 546.8719 68.947914Q547.91876 68.947914 548.60626 68.15104Q549.3094 67.354164 549.3094 65.71354Q549.3094 64.18229 548.60626 63.385414Q547.91876 62.58854 546.8719 62.58854Q545.825 62.58854 545.1219 63.385414Q544.4344 64.166664 544.4344 65.760414ZM552.48126 69.916664L552.48126 58.46354L553.8875 58.46354L553.8875 69.916664L552.48126 69.916664ZM555.98126 65.760414Q555.98126 63.46354 557.2625 62.354164Q558.34064 61.43229 559.8719 61.43229Q561.59064 61.43229 562.66876 62.55729Q563.7625 63.666664 563.7625 65.65104Q563.7625 67.24479 563.27814 68.166664Q562.79376 69.08854 561.8719 69.604164Q560.96564 70.104164 559.8719 70.104164Q558.1375 70.104164 557.0594 68.99479Q555.98126 67.86979 555.98126 65.760414ZM557.4344 65.760414Q557.4344 67.354164 558.1219 68.15104Q558.825 68.947914 559.8719 68.947914Q560.91876 68.947914 561.60626 68.15104Q562.3094 67.354164 562.3094 65.71354Q562.3094 64.18229 561.60626 63.385414Q560.91876 62.58854 559.8719 62.58854Q558.825 62.58854 558.1219 63.385414Q557.4344 64.166664 557.4344 65.760414ZM565.2469 70.604164L566.6219 70.80729Q566.7 71.447914 567.09064 71.729164Q567.6219 72.11979 568.52814 72.11979Q569.4969 72.11979 570.02814 71.729164Q570.5594 71.33854 570.7469 70.635414Q570.85626 70.21354 570.85626 68.822914Q569.9344 69.916664 568.5594 69.916664Q566.84064 69.916664 565.90314 68.68229Q564.96564 67.447914 564.96564 65.71354Q564.96564 64.52604 565.3875 63.52604Q565.825 62.52604 566.6375 61.979164Q567.46564 61.43229 568.5594 61.43229Q570.02814 61.43229 570.98126 62.61979L570.98126 61.61979L572.27814 61.61979L572.27814 68.791664Q572.27814 70.729164 571.8875 71.541664Q571.4969 72.354164 570.6375 72.822914Q569.77814 73.291664 568.52814 73.291664Q567.04376 73.291664 566.1219 72.61979Q565.21564 71.947914 565.2469 70.604164ZM566.41876 65.61979Q566.41876 67.24479 567.0594 67.99479Q567.71564 68.74479 568.6844 68.74479Q569.65314 68.74479 570.3094 68.010414Q570.96564 67.260414 570.96564 65.666664Q570.96564 64.135414 570.29376 63.36979Q569.6219 62.58854 568.66876 62.58854Q567.73126 62.58854 567.075 63.354164Q566.41876 64.11979 566.41876 65.61979ZM574.45 73.11979L574.29376 71.791664Q574.7469 71.916664 575.09064 71.916664Q575.5594 71.916664 575.84064 71.760414Q576.1219 71.604164 576.3094 71.322914Q576.4344 71.11979 576.73126 70.27604Q576.77814 70.166664 576.85626 69.93229L573.71564 61.61979L575.23126 61.61979L576.95 66.416664Q577.29376 67.33854 577.5594 68.33854Q577.79376 67.36979 578.1375 66.447914L579.90314 61.61979L581.3094 61.61979L578.15314 70.05729Q577.65314 71.43229 577.3719 71.947914Q576.9969 72.635414 576.5125 72.96354Q576.02814 73.291664 575.35626 73.291664Q574.95 73.291664 574.45 73.11979Z" fill-rule="nonzero"/><path fill="#9e9e9e" d="M546.1219 88.916664L547.59064 88.791664Q547.7625 89.86979 548.35626 90.416664Q548.95 90.947914 549.79376 90.947914Q550.8094 90.947914 551.5125 90.18229Q552.21564 89.416664 552.21564 88.15104Q552.21564 86.947914 551.54376 86.260414Q550.8719 85.55729 549.77814 85.55729Q549.09064 85.55729 548.54376 85.86979Q547.9969 86.18229 547.6844 86.666664L546.3719 86.49479L547.48126 80.61979L553.16876 80.61979L553.16876 81.96354L548.60626 81.96354L547.98126 85.041664Q549.0125 84.322914 550.15314 84.322914Q551.65314 84.322914 552.6844 85.36979Q553.71564 86.40104 553.71564 88.02604Q553.71564 89.58854 552.8094 90.71354Q551.7 92.11979 549.79376 92.11979Q548.23126 92.11979 547.2469 91.24479Q546.2625 90.354164 546.1219 88.916664ZM555.90314 91.916664L555.90314 90.30729L557.5125 90.30729L557.5125 91.916664L555.90314 91.916664ZM559.325 89.260414L560.6844 89.135414Q560.85626 90.08854 561.34064 90.52604Q561.825 90.947914 562.575 90.947914Q563.23126 90.947914 563.71564 90.65104Q564.2 90.354164 564.5125 89.86979Q564.825 89.36979 565.02814 88.52604Q565.2469 87.68229 565.2469 86.80729Q565.2469 86.71354 565.2469 86.52604Q564.825 87.197914 564.09064 87.61979Q563.35626 88.02604 562.5125 88.02604Q561.09064 88.02604 560.10626 86.99479Q559.1219 85.96354 559.1219 84.27604Q559.1219 82.541664 560.1375 81.479164Q561.16876 80.416664 562.71564 80.416664Q563.84064 80.416664 564.7625 81.02604Q565.6844 81.61979 566.16876 82.729164Q566.65314 83.83854 566.65314 85.947914Q566.65314 88.15104 566.16876 89.447914Q565.7 90.74479 564.7469 91.43229Q563.8094 92.11979 562.54376 92.11979Q561.2 92.11979 560.34064 91.36979Q559.4969 90.61979 559.325 89.260414ZM565.09064 84.21354Q565.09064 82.99479 564.4344 82.291664Q563.79376 81.572914 562.8875 81.572914Q561.95 81.572914 561.2469 82.33854Q560.5594 83.104164 560.5594 84.322914Q560.5594 85.416664 561.21564 86.104164Q561.8875 86.791664 562.85626 86.791664Q563.825 86.791664 564.45 86.104164Q565.09064 85.416664 565.09064 84.21354ZM568.3875 83.21354Q568.3875 81.979164 568.9969 81.11979Q569.6219 80.260414 570.79376 80.260414Q571.8719 80.260414 572.575 81.041664Q573.27814 81.80729 573.27814 83.291664Q573.27814 84.74479 572.5594 85.541664Q571.85626 86.322914 570.8094 86.322914Q569.7625 86.322914 569.075 85.55729Q568.3875 84.77604 568.3875 83.21354ZM570.825 81.229164Q570.3094 81.229164 569.95 81.68229Q569.60626 82.135414 569.60626 83.354164Q569.60626 84.447914 569.95 84.90104Q570.3094 85.354164 570.825 85.354164Q571.35626 85.354164 571.7 84.90104Q572.0594 84.447914 572.0594 83.24479Q572.0594 82.135414 571.7 81.68229Q571.35626 81.229164 570.825 81.229164ZM570.84064 92.33854L577.10626 80.260414L578.2469 80.260414L571.9969 92.33854L570.84064 92.33854ZM575.79376 89.229164Q575.79376 87.99479 576.40314 87.135414Q577.02814 86.27604 578.2 86.27604Q579.27814 86.27604 579.98126 87.05729Q580.7 87.822914 580.7 89.30729Q580.7 90.760414 579.98126 91.55729Q579.2625 92.33854 578.21564 92.33854Q577.16876 92.33854 576.48126 91.55729Q575.79376 90.77604 575.79376 89.229164ZM578.2469 87.24479Q577.71564 87.24479 577.35626 87.697914Q577.0125 88.15104 577.0125 89.36979Q577.0125 90.46354 577.35626 90.916664Q577.71564 91.36979 578.23126 91.36979Q578.77814 91.36979 579.1219 90.916664Q579.46564 90.46354 579.46564 89.260414Q579.46564 88.15104 579.10626 87.697914Q578.7625 87.24479 578.2469 87.24479Z" fill-rule="nonzero"/><path stroke="#757575" stroke-width="1.0" stroke-linecap="butt" d="M581.45 75.416664L454.76666 75.416664L325.96902 64.76138" fill-rule="nonzero"/><path fill="#9e9e9e" d="M327.96902 64.76138C327.96902 63.656815 327.07358 62.761383 325.96902 62.761383C324.86444 62.761383 323.96902 63.656815 323.96902 64.76138C323.96902 65.86595 324.86444 66.76138 325.96902 66.76138C327.07358 66.76138 327.96902 65.86595 327.96902 64.76138" fill-rule="nonzero"/><path fill="#efefef" d="M514.71564 110.916664L514.71564 99.46354L519.79376 99.46354Q521.325 99.46354 522.1219 99.77604Q522.91876 100.072914 523.3875 100.854164Q523.8719 101.635414 523.8719 102.58854Q523.8719 103.80729 523.075 104.65104Q522.29376 105.479164 520.6375 105.697914Q521.2469 105.99479 521.5594 106.27604Q522.21564 106.885414 522.8094 107.791664L524.8094 110.916664L522.90314 110.916664L521.3875 108.52604Q520.71564 107.49479 520.27814 106.947914Q519.85626 106.40104 519.5125 106.18229Q519.1844 105.96354 518.825 105.885414Q518.575 105.822914 517.98126 105.822914L516.23126 105.822914L516.23126 110.916664L514.71564 110.916664ZM516.23126 104.510414L519.48126 104.510414Q520.52814 104.510414 521.10626 104.30729Q521.7 104.08854 521.9969 103.61979Q522.3094 103.135414 522.3094 102.58854Q522.3094 101.77604 521.71564 101.260414Q521.1219 100.729164 519.85626 100.729164L516.23126 100.729164L516.23126 104.510414ZM532.1844 108.24479L533.6375 108.416664Q533.29376 109.697914 532.35626 110.40104Q531.4344 111.104164 529.9969 111.104164Q528.16876 111.104164 527.10626 109.979164Q526.04376 108.854164 526.04376 106.83854Q526.04376 104.74479 527.1219 103.58854Q528.2 102.43229 529.91876 102.43229Q531.575 102.43229 532.6219 103.572914Q533.6844 104.697914 533.6844 106.74479Q533.6844 106.86979 533.6844 107.11979L527.4969 107.11979Q527.575 108.49479 528.2625 109.229164Q528.96564 109.947914 529.9969 109.947914Q530.77814 109.947914 531.325 109.541664Q531.8719 109.135414 532.1844 108.24479ZM527.575 105.96354L532.2 105.96354Q532.10626 104.916664 531.66876 104.40104Q530.9969 103.58854 529.9344 103.58854Q528.96564 103.58854 528.29376 104.24479Q527.6375 104.885414 527.575 105.96354ZM535.48126 110.916664L535.48126 99.46354L536.8875 99.46354L536.8875 110.916664L535.48126 110.916664ZM539.5125 101.072914L539.5125 99.46354L540.91876 99.46354L540.91876 101.072914L539.5125 101.072914ZM539.5125 110.916664L539.5125 102.61979L540.91876 102.61979L540.91876 110.916664L539.5125 110.916664ZM543.2469 111.604164L544.6219 111.80729Q544.7 112.447914 545.09064 112.729164Q545.6219 113.11979 546.52814 113.11979Q547.4969 113.11979 548.02814 112.729164Q548.5594 112.33854 548.7469 111.635414Q548.85626 111.21354 548.85626 109.822914Q547.9344 110.916664 546.5594 110.916664Q544.84064 110.916664 543.90314 109.68229Q542.96564 108.447914 542.96564 106.71354Q542.96564 105.52604 543.3875 104.52604Q543.825 103.52604 544.6375 102.979164Q545.46564 102.43229 546.5594 102.43229Q548.02814 102.43229 548.98126 103.61979L548.98126 102.61979L550.27814 102.61979L550.27814 109.791664Q550.27814 111.729164 549.8875 112.541664Q549.4969 113.354164 548.6375 113.822914Q547.77814 114.291664 546.52814 114.291664Q545.04376 114.291664 544.1219 113.61979Q543.21564 112.947914 543.2469 111.604164ZM544.41876 106.61979Q544.41876 108.24479 545.0594 108.99479Q545.71564 109.74479 546.6844 109.74479Q547.65314 109.74479 548.3094 109.010414Q548.96564 108.260414 548.96564 106.666664Q548.96564 105.135414 548.29376 104.36979Q547.6219 103.58854 546.66876 103.58854Q545.73126 103.58854 545.075 104.354164Q544.41876 105.11979 544.41876 106.61979ZM552.5125 101.072914L552.5125 99.46354L553.91876 99.46354L553.91876 101.072914L552.5125 101.072914ZM552.5125 110.916664L552.5125 102.61979L553.91876 102.61979L553.91876 110.916664L552.5125 110.916664ZM555.98126 106.760414Q555.98126 104.46354 557.2625 103.354164Q558.34064 102.43229 559.8719 102.43229Q561.59064 102.43229 562.66876 103.55729Q563.7625 104.666664 563.7625 106.65104Q563.7625 108.24479 563.27814 109.166664Q562.79376 110.08854 561.8719 110.604164Q560.96564 111.104164 559.8719 111.104164Q558.1375 111.104164 557.0594 109.99479Q555.98126 108.86979 555.98126 106.760414ZM557.4344 106.760414Q557.4344 108.354164 558.1219 109.15104Q558.825 109.947914 559.8719 109.947914Q560.91876 109.947914 561.60626 109.15104Q562.3094 108.354164 562.3094 106.71354Q562.3094 105.18229 561.60626 104.385414Q560.91876 103.58854 559.8719 103.58854Q558.825 103.58854 558.1219 104.385414Q557.4344 105.166664 557.4344 106.760414ZM570.95 110.916664L570.95 109.697914Q569.98126 111.104164 568.3094 111.104164Q567.575 111.104164 566.9344 110.822914Q566.3094 110.541664 565.9969 110.11979Q565.6844 109.68229 565.5594 109.072914Q565.48126 108.65104 565.48126 107.760414L565.48126 102.61979L566.8875 102.61979L566.8875 107.21354Q566.8875 108.322914 566.96564 108.697914Q567.10626 109.260414 567.52814 109.572914Q567.96564 109.885414 568.59064 109.885414Q569.23126 109.885414 569.77814 109.572914Q570.34064 109.24479 570.5594 108.68229Q570.79376 108.11979 570.79376 107.05729L570.79376 102.61979L572.2 102.61979L572.2 110.916664L570.95 110.916664ZM573.95 108.43229L575.34064 108.21354Q575.45 109.05729 575.98126 109.510414Q576.52814 109.947914 577.48126 109.947914Q578.45 109.947914 578.91876 109.55729Q579.3875 109.15104 579.3875 108.61979Q579.3875 108.15104 578.98126 107.86979Q578.6844 107.68229 577.54376 107.40104Q575.9969 107.010414 575.3875 106.729164Q574.79376 106.43229 574.48126 105.93229Q574.1844 105.43229 574.1844 104.822914Q574.1844 104.260414 574.4344 103.791664Q574.6844 103.322914 575.1219 103.010414Q575.45 102.760414 576.0125 102.604164Q576.59064 102.43229 577.23126 102.43229Q578.21564 102.43229 578.95 102.71354Q579.6844 102.99479 580.02814 103.479164Q580.3875 103.947914 580.52814 104.760414L579.15314 104.947914Q579.0594 104.30729 578.60626 103.947914Q578.15314 103.58854 577.34064 103.58854Q576.3719 103.58854 575.95 103.916664Q575.54376 104.229164 575.54376 104.65104Q575.54376 104.93229 575.71564 105.15104Q575.8875 105.36979 576.2469 105.52604Q576.46564 105.604164 577.4969 105.885414Q578.98126 106.27604 579.575 106.541664Q580.16876 106.791664 580.4969 107.27604Q580.84064 107.760414 580.84064 108.479164Q580.84064 109.18229 580.41876 109.80729Q580.0125 110.416664 579.23126 110.760414Q578.46564 111.104164 577.4969 111.104164Q575.8719 111.104164 575.02814 110.43229Q574.1844 109.760414 573.95 108.43229Z" fill-rule="nonzero"/><path fill="#9e9e9e" d="M546.1219 129.91667L547.59064 129.79167Q547.7625 130.8698 548.35626 131.41667Q548.95 131.94792 549.79376 131.94792Q550.8094 131.94792 551.5125 131.1823Q552.21564 130.41667 552.21564 129.15105Q552.21564 127.94792 551.54376 127.26042Q550.8719 126.5573 549.77814 126.5573Q549.09064 126.5573 548.54376 126.8698Q547.9969 127.1823 547.6844 127.66667L546.3719 127.4948L547.48126 121.6198L553.16876 121.6198L553.16876 122.96355L548.60626 122.96355L547.98126 126.04167Q549.0125 125.32292 550.15314 125.32292Q551.65314 125.32292 552.6844 126.3698Q553.71564 127.40105 553.71564 129.02605Q553.71564 130.58855 552.8094 131.71355Q551.7 133.1198 549.79376 133.1198Q548.23126 133.1198 547.2469 132.2448Q546.2625 131.35417 546.1219 129.91667ZM555.90314 132.91667L555.90314 131.3073L557.5125 131.3073L557.5125 132.91667L555.90314 132.91667ZM559.325 130.26042L560.6844 130.13542Q560.85626 131.08855 561.34064 131.52605Q561.825 131.94792 562.575 131.94792Q563.23126 131.94792 563.71564 131.65105Q564.2 131.35417 564.5125 130.8698Q564.825 130.3698 565.02814 129.52605Q565.2469 128.6823 565.2469 127.8073Q565.2469 127.71355 565.2469 127.52605Q564.825 128.19792 564.09064 128.6198Q563.35626 129.02605 562.5125 129.02605Q561.09064 129.02605 560.10626 127.9948Q559.1219 126.96355 559.1219 125.27605Q559.1219 123.54167 560.1375 122.47917Q561.16876 121.41667 562.71564 121.41667Q563.84064 121.41667 564.7625 122.02605Q565.6844 122.6198 566.16876 123.72917Q566.65314 124.83855 566.65314 126.94792Q566.65314 129.15105 566.16876 130.44792Q565.7 131.7448 564.7469 132.4323Q563.8094 133.1198 562.54376 133.1198Q561.2 133.1198 560.34064 132.3698Q559.4969 131.6198 559.325 130.26042ZM565.09064 125.21355Q565.09064 123.9948 564.4344 123.29167Q563.79376 122.57292 562.8875 122.57292Q561.95 122.57292 561.2469 123.33855Q560.5594 124.10417 560.5594 125.32292Q560.5594 126.41667 561.21564 127.10417Q561.8875 127.79167 562.85626 127.79167Q563.825 127.79167 564.45 127.10417Q565.09064 126.41667 565.09064 125.21355ZM568.3875 124.21355Q568.3875 122.97917 568.9969 122.1198Q569.6219 121.26042 570.79376 121.26042Q571.8719 121.26042 572.575 122.04167Q573.27814 122.8073 573.27814 124.29167Q573.27814 125.7448 572.5594 126.54167Q571.85626 127.32292 570.8094 127.32292Q569.7625 127.32292 569.075 126.5573Q568.3875 125.77605 568.3875 124.21355ZM570.825 122.22917Q570.3094 122.22917 569.95 122.6823Q569.60626 123.13542 569.60626 124.35417Q569.60626 125.44792 569.95 125.90105Q570.3094 126.35417 570.825 126.35417Q571.35626 126.35417 571.7 125.90105Q572.0594 125.44792 572.0594 124.2448Q572.0594 123.13542 571.7 122.6823Q571.35626 122.22917 570.825 122.22917ZM570.84064 133.33855L577.10626 121.26042L578.2469 121.26042L571.9969 133.33855L570.84064 133.33855ZM575.79376 130.22917Q575.79376 128.9948 576.40314 128.13542Q577.02814 127.27605 578.2 127.27605Q579.27814 127.27605 579.98126 128.0573Q580.7 128.82292 580.7 130.3073Q580.7 131.76042 579.98126 132.5573Q579.2625 133.33855 578.21564 133.33855Q577.16876 133.33855 576.48126 132.5573Q575.79376 131.77605 575.79376 130.22917ZM578.2469 128.2448Q577.71564 128.2448 577.35626 128.69792Q577.0125 129.15105 577.0125 130.3698Q577.0125 131.46355 577.35626 131.91667Q577.71564 132.3698 578.23126 132.3698Q578.77814 132.3698 579.1219 131.91667Q579.46564 131.46355 579.46564 130.26042Q579.46564 129.15105 579.10626 128.69792Q578.7625 128.2448 578.2469 128.2448Z" fill-rule="nonzero"/><path stroke="#757575" stroke-width="1.0" stroke-linecap="butt" d="M581.45 116.416664L454.76666 116.416664L374.39978 83.52356" fill-rule="nonzero"/><path fill="#9e9e9e" d="M376.39978 83.52356C376.39978 82.41899 375.50436 81.52356 374.39978 81.52356C373.2952 81.52356 372.39978 82.41899 372.39978 83.52356C372.39978 84.628136 373.2952 85.52356 374.39978 85.52356C375.50436 85.52356 376.39978 84.628136 376.39978 83.52356" fill-rule="nonzero"/><path fill="#efefef" d="M531.6375 151.91667L531.6375 140.46355L533.91876 140.46355L536.6375 148.57292Q537.0125 149.69792 537.1844 150.26042Q537.3719 149.63542 537.79376 148.4323L540.52814 140.46355L542.575 140.46355L542.575 151.91667L541.10626 151.91667L541.10626 142.32292L537.77814 151.91667L536.41876 151.91667L533.10626 142.16667L533.10626 151.91667L531.6375 151.91667ZM544.5125 142.07292L544.5125 140.46355L545.91876 140.46355L545.91876 142.07292L544.5125 142.07292ZM544.5125 151.91667L544.5125 143.6198L545.91876 143.6198L545.91876 151.91667L544.5125 151.91667ZM548.48126 151.91667L548.48126 140.46355L549.8875 140.46355L549.8875 151.91667L548.48126 151.91667ZM552.5125 142.07292L552.5125 140.46355L553.91876 140.46355L553.91876 142.07292L552.5125 142.07292ZM552.5125 151.91667L552.5125 143.6198L553.91876 143.6198L553.91876 151.91667L552.5125 151.91667ZM559.575 150.65105L559.77814 151.90105Q559.1844 152.02605 558.71564 152.02605Q557.95 152.02605 557.52814 151.79167Q557.10626 151.54167 556.9344 151.15105Q556.7625 150.7448 556.7625 149.47917L556.7625 144.71355L555.73126 144.71355L555.73126 143.6198L556.7625 143.6198L556.7625 141.5573L558.16876 140.71355L558.16876 143.6198L559.575 143.6198L559.575 144.71355L558.16876 144.71355L558.16876 149.5573Q558.16876 150.16667 558.23126 150.33855Q558.3094 150.51042 558.48126 150.6198Q558.65314 150.71355 558.96564 150.71355Q559.2 150.71355 559.575 150.65105ZM565.91876 150.88542Q565.1375 151.5573 564.41876 151.83855Q563.7 152.10417 562.8719 152.10417Q561.4969 152.10417 560.7625 151.4323Q560.02814 150.76042 560.02814 149.72917Q560.02814 149.1198 560.3094 148.6198Q560.59064 148.10417 561.02814 147.8073Q561.48126 147.4948 562.04376 147.33855Q562.46564 147.22917 563.29376 147.13542Q564.9969 146.9323 565.8094 146.65105Q565.8094 146.35417 565.8094 146.27605Q565.8094 145.41667 565.41876 145.07292Q564.8719 144.58855 563.8094 144.58855Q562.825 144.58855 562.34064 144.94792Q561.8719 145.29167 561.65314 146.16667L560.27814 145.97917Q560.46564 145.10417 560.8875 144.5573Q561.325 144.01042 562.1375 143.72917Q562.95 143.4323 564.0125 143.4323Q565.075 143.4323 565.73126 143.6823Q566.40314 143.9323 566.71564 144.3073Q567.02814 144.6823 567.15314 145.26042Q567.23126 145.6198 567.23126 146.5573L567.23126 148.4323Q567.23126 150.40105 567.3094 150.91667Q567.40314 151.4323 567.66876 151.91667L566.2 151.91667Q565.98126 151.47917 565.91876 150.88542ZM565.8094 147.7448Q565.04376 148.0573 563.5125 148.27605Q562.6375 148.40105 562.27814 148.5573Q561.91876 148.71355 561.71564 149.02605Q561.52814 149.32292 561.52814 149.6823Q561.52814 150.2448 561.95 150.6198Q562.3875 150.9948 563.2 150.9948Q564.0125 150.9948 564.6375 150.65105Q565.27814 150.29167 565.575 149.66667Q565.8094 149.19792 565.8094 148.26042L565.8094 147.7448ZM569.4969 151.91667L569.4969 143.6198L570.7625 143.6198L570.7625 144.8698Q571.2469 143.9948 571.65314 143.71355Q572.0594 143.4323 572.5594 143.4323Q573.2625 143.4323 573.9969 143.88542L573.5125 145.1823Q572.9969 144.88542 572.48126 144.88542Q572.02814 144.88542 571.65314 145.16667Q571.29376 145.4323 571.1375 145.9323Q570.90314 146.6823 570.90314 147.57292L570.90314 151.91667L569.4969 151.91667ZM574.45 155.1198L574.29376 153.79167Q574.7469 153.91667 575.09064 153.91667Q575.5594 153.91667 575.84064 153.76042Q576.1219 153.60417 576.3094 153.32292Q576.4344 153.1198 576.73126 152.27605Q576.77814 152.16667 576.85626 151.9323L573.71564 143.6198L575.23126 143.6198L576.95 148.41667Q577.29376 149.33855 577.5594 150.33855Q577.79376 149.3698 578.1375 148.44792L579.90314 143.6198L581.3094 143.6198L578.15314 152.0573Q577.65314 153.4323 577.3719 153.94792Q576.9969 154.63542 576.5125 154.96355Q576.02814 155.29167 575.35626 155.29167Q574.95 155.29167 574.45 155.1198Z" fill-rule="nonzero"/><path fill="#9e9e9e" d="M546.1219 170.91667L547.59064 170.79167Q547.7625 171.8698 548.35626 172.41667Q548.95 172.94792 549.79376 172.94792Q550.8094 172.94792 551.5125 172.1823Q552.21564 171.41667 552.21564 170.15105Q552.21564 168.94792 551.54376 168.26042Q550.8719 167.5573 549.77814 167.5573Q549.09064 167.5573 548.54376 167.8698Q547.9969 168.1823 547.6844 168.66667L546.3719 168.4948L547.48126 162.6198L553.16876 162.6198L553.16876 163.96355L548.60626 163.96355L547.98126 167.04167Q549.0125 166.32292 550.15314 166.32292Q551.65314 166.32292 552.6844 167.3698Q553.71564 168.40105 553.71564 170.02605Q553.71564 171.58855 552.8094 172.71355Q551.7 174.1198 549.79376 174.1198Q548.23126 174.1198 547.2469 173.2448Q546.2625 172.35417 546.1219 170.91667ZM555.90314 173.91667L555.90314 172.3073L557.5125 172.3073L557.5125 173.91667L555.90314 173.91667ZM559.325 171.26042L560.6844 171.13542Q560.85626 172.08855 561.34064 172.52605Q561.825 172.94792 562.575 172.94792Q563.23126 172.94792 563.71564 172.65105Q564.2 172.35417 564.5125 171.8698Q564.825 171.3698 565.02814 170.52605Q565.2469 169.6823 565.2469 168.8073Q565.2469 168.71355 565.2469 168.52605Q564.825 169.19792 564.09064 169.6198Q563.35626 170.02605 562.5125 170.02605Q561.09064 170.02605 560.10626 168.9948Q559.1219 167.96355 559.1219 166.27605Q559.1219 164.54167 560.1375 163.47917Q561.16876 162.41667 562.71564 162.41667Q563.84064 162.41667 564.7625 163.02605Q565.6844 163.6198 566.16876 164.72917Q566.65314 165.83855 566.65314 167.94792Q566.65314 170.15105 566.16876 171.44792Q565.7 172.7448 564.7469 173.4323Q563.8094 174.1198 562.54376 174.1198Q561.2 174.1198 560.34064 173.3698Q559.4969 172.6198 559.325 171.26042ZM565.09064 166.21355Q565.09064 164.9948 564.4344 164.29167Q563.79376 163.57292 562.8875 163.57292Q561.95 163.57292 561.2469 164.33855Q560.5594 165.10417 560.5594 166.32292Q560.5594 167.41667 561.21564 168.10417Q561.8875 168.79167 562.85626 168.79167Q563.825 168.79167 564.45 168.10417Q565.09064 167.41667 565.09064 166.21355ZM568.3875 165.21355Q568.3875 163.97917 568.9969 163.1198Q569.6219 162.26042 570.79376 162.26042Q571.8719 162.26042 572.575 163.04167Q573.27814 163.8073 573.27814 165.29167Q573.27814 166.7448 572.5594 167.54167Q571.85626 168.32292 570.8094 168.32292Q569.7625 168.32292 569.075 167.5573Q568.3875 166.77605 568.3875 165.21355ZM570.825 163.22917Q570.3094 163.22917 569.95 163.6823Q569.60626 164.13542 569.60626 165.35417Q569.60626 166.44792 569.95 166.90105Q570.3094 167.35417 570.825 167.35417Q571.35626 167.35417 571.7 166.90105Q572.0594 166.44792 572.0594 165.2448Q572.0594 164.13542 571.7 163.6823Q571.35626 163.22917 570.825 163.22917ZM570.84064 174.33855L577.10626 162.26042L578.2469 162.26042L571.9969 174.33855L570.84064 174.33855ZM575.79376 171.22917Q575.79376 169.9948 576.40314 169.13542Q577.02814 168.27605 578.2 168.27605Q579.27814 168.27605 579.98126 169.0573Q580.7 169.82292 580.7 171.3073Q580.7 172.76042 579.98126 173.5573Q579.2625 174.33855 578.21564 174.33855Q577.16876 174.33855 576.48126 173.5573Q575.79376 172.77605 575.79376 171.22917ZM578.2469 169.2448Q577.71564 169.2448 577.35626 169.69792Q577.0125 170.15105 577.0125 171.3698Q577.0125 172.46355 577.35626 172.91667Q577.71564 173.3698 578.23126 173.3698Q578.77814 173.3698 579.1219 172.91667Q579.46564 172.46355 579.46564 171.26042Q579.46564 170.15105 579.10626 169.69792Q578.7625 169.2448 578.2469 169.2448Z" fill-rule="nonzero"/><path stroke="#757575" stroke-width="1.0" stroke-linecap="butt" d="M581.45 157.41667L454.76666 157.41667L412.78244 118.513985" fill-rule="nonzero"/><path fill="#9e9e9e" d="M414.78244 118.513985C414.78244 117.40942 413.88702 116.513985 412.78244 116.513985C411.6779 116.513985 410.78244 117.40942 410.78244 118.513985C410.78244 119.61855 411.6779 120.513985 412.78244 120.513985C413.88702 120.513985 414.78244 119.61855 414.78244 118.513985" fill-rule="nonzero"/><path fill="#efefef" d="M506.6844 192.91667L506.6844 181.46355L510.6375 181.46355Q511.96564 181.46355 512.66876 181.6198Q513.65314 181.85417 514.35626 182.44792Q515.2625 183.21355 515.7 184.40105Q516.15314 185.58855 516.15314 187.1198Q516.15314 188.4323 515.84064 189.44792Q515.54376 190.44792 515.0594 191.10417Q514.59064 191.76042 514.02814 192.15105Q513.46564 192.52605 512.65314 192.72917Q511.85626 192.91667 510.825 192.91667L506.6844 192.91667ZM508.2 191.5573L510.65314 191.5573Q511.77814 191.5573 512.41876 191.35417Q513.075 191.13542 513.45 190.76042Q513.9969 190.21355 514.29376 189.3073Q514.59064 188.40105 514.59064 187.10417Q514.59064 185.3073 513.9969 184.33855Q513.41876 183.3698 512.575 183.04167Q511.96564 182.8073 510.60626 182.8073L508.2 182.8073L508.2 191.5573ZM518.5125 183.07292L518.5125 181.46355L519.91876 181.46355L519.91876 183.07292L518.5125 183.07292ZM518.5125 192.91667L518.5125 184.6198L519.91876 184.6198L519.91876 192.91667L518.5125 192.91667ZM522.5125 196.10417L522.5125 184.6198L523.79376 184.6198L523.79376 185.69792Q524.2469 185.0573 524.8094 184.7448Q525.3875 184.4323 526.2 184.4323Q527.2625 184.4323 528.075 184.97917Q528.8875 185.52605 529.29376 186.52605Q529.71564 187.51042 529.71564 188.69792Q529.71564 189.97917 529.2469 190.9948Q528.79376 192.01042 527.91876 192.5573Q527.0594 193.10417 526.09064 193.10417Q525.3875 193.10417 524.825 192.8073Q524.27814 192.51042 523.91876 192.0573L523.91876 196.10417L522.5125 196.10417ZM523.77814 188.8073Q523.77814 190.41667 524.41876 191.1823Q525.075 191.94792 525.9969 191.94792Q526.9344 191.94792 527.60626 191.15105Q528.27814 190.35417 528.27814 188.69792Q528.27814 187.10417 527.6219 186.32292Q526.96564 185.52605 526.0594 185.52605Q525.16876 185.52605 524.46564 186.3698Q523.77814 187.21355 523.77814 188.8073ZM531.48126 192.91667L531.48126 181.46355L532.8875 181.46355L532.8875 192.91667L531.48126 192.91667ZM534.98126 188.76042Q534.98126 186.46355 536.2625 185.35417Q537.34064 184.4323 538.8719 184.4323Q540.59064 184.4323 541.66876 185.5573Q542.7625 186.66667 542.7625 188.65105Q542.7625 190.2448 542.27814 191.16667Q541.79376 192.08855 540.8719 192.60417Q539.96564 193.10417 538.8719 193.10417Q537.1375 193.10417 536.0594 191.9948Q534.98126 190.8698 534.98126 188.76042ZM536.4344 188.76042Q536.4344 190.35417 537.1219 191.15105Q537.825 191.94792 538.8719 191.94792Q539.91876 191.94792 540.60626 191.15105Q541.3094 190.35417 541.3094 188.71355Q541.3094 187.1823 540.60626 186.38542Q539.91876 185.58855 538.8719 185.58855Q537.825 185.58855 537.1219 186.38542Q536.4344 187.16667 536.4344 188.76042ZM544.5125 192.91667L544.5125 184.6198L545.7625 184.6198L545.7625 185.77605Q546.15314 185.16667 546.79376 184.8073Q547.45 184.4323 548.27814 184.4323Q549.2 184.4323 549.79376 184.82292Q550.3875 185.19792 550.6219 185.88542Q551.60626 184.4323 553.1844 184.4323Q554.41876 184.4323 555.075 185.1198Q555.7469 185.79167 555.7469 187.21355L555.7469 192.91667L554.35626 192.91667L554.35626 187.6823Q554.35626 186.83855 554.21564 186.47917Q554.075 186.10417 553.71564 185.88542Q553.35626 185.65105 552.8719 185.65105Q551.9969 185.65105 551.41876 186.22917Q550.84064 186.8073 550.84064 188.08855L550.84064 192.91667L549.4344 192.91667L549.4344 187.52605Q549.4344 186.58855 549.09064 186.1198Q548.7469 185.65105 547.96564 185.65105Q547.3719 185.65105 546.8719 185.96355Q546.3719 186.27605 546.1375 186.88542Q545.91876 187.47917 545.91876 188.60417L545.91876 192.91667L544.5125 192.91667ZM562.91876 191.88542Q562.1375 192.5573 561.41876 192.83855Q560.7 193.10417 559.8719 193.10417Q558.4969 193.10417 557.7625 192.4323Q557.02814 191.76042 557.02814 190.72917Q557.02814 190.1198 557.3094 189.6198Q557.59064 189.10417 558.02814 188.8073Q558.48126 188.4948 559.04376 188.33855Q559.46564 188.22917 560.29376 188.13542Q561.9969 187.9323 562.8094 187.65105Q562.8094 187.35417 562.8094 187.27605Q562.8094 186.41667 562.41876 186.07292Q561.8719 185.58855 560.8094 185.58855Q559.825 185.58855 559.34064 185.94792Q558.8719 186.29167 558.65314 187.16667L557.27814 186.97917Q557.46564 186.10417 557.8875 185.5573Q558.325 185.01042 559.1375 184.72917Q559.95 184.4323 561.0125 184.4323Q562.075 184.4323 562.73126 184.6823Q563.40314 184.9323 563.71564 185.3073Q564.02814 185.6823 564.15314 186.26042Q564.23126 186.6198 564.23126 187.5573L564.23126 189.4323Q564.23126 191.40105 564.3094 191.91667Q564.40314 192.4323 564.66876 192.91667L563.2 192.91667Q562.98126 192.47917 562.91876 191.88542ZM562.8094 188.7448Q562.04376 189.0573 560.5125 189.27605Q559.6375 189.40105 559.27814 189.5573Q558.91876 189.71355 558.71564 190.02605Q558.52814 190.32292 558.52814 190.6823Q558.52814 191.2448 558.95 191.6198Q559.3875 191.9948 560.2 191.9948Q561.0125 191.9948 561.6375 191.65105Q562.27814 191.29167 562.575 190.66667Q562.8094 190.19792 562.8094 189.26042L562.8094 188.7448ZM569.575 191.65105L569.77814 192.90105Q569.1844 193.02605 568.71564 193.02605Q567.95 193.02605 567.52814 192.79167Q567.10626 192.54167 566.9344 192.15105Q566.7625 191.7448 566.7625 190.47917L566.7625 185.71355L565.73126 185.71355L565.73126 184.6198L566.7625 184.6198L566.7625 182.5573L568.16876 181.71355L568.16876 184.6198L569.575 184.6198L569.575 185.71355L568.16876 185.71355L568.16876 190.5573Q568.16876 191.16667 568.23126 191.33855Q568.3094 191.51042 568.48126 191.6198Q568.65314 191.71355 568.96564 191.71355Q569.2 191.71355 569.575 191.65105ZM570.5125 183.07292L570.5125 181.46355L571.91876 181.46355L571.91876 183.07292L570.5125 183.07292ZM570.5125 192.91667L570.5125 184.6198L571.91876 184.6198L571.91876 192.91667L570.5125 192.91667ZM579.91876 189.8698L581.3094 190.0573Q581.075 191.47917 580.1375 192.29167Q579.21564 193.10417 577.85626 193.10417Q576.15314 193.10417 575.10626 191.9948Q574.075 190.8698 574.075 188.79167Q574.075 187.44792 574.5125 186.44792Q574.96564 185.4323 575.8719 184.9323Q576.79376 184.4323 577.85626 184.4323Q579.21564 184.4323 580.075 185.1198Q580.9344 185.79167 581.16876 187.0573L579.8094 187.26042Q579.60626 186.4323 579.10626 186.01042Q578.6219 185.58855 577.91876 185.58855Q576.85626 185.58855 576.1844 186.35417Q575.52814 187.10417 575.52814 188.76042Q575.52814 190.4323 576.16876 191.19792Q576.8094 191.94792 577.84064 191.94792Q578.66876 191.94792 579.21564 191.44792Q579.77814 190.9323 579.91876 189.8698Z" fill-rule="nonzero"/><path fill="#9e9e9e" d="M546.1219 211.91667L547.59064 211.79167Q547.7625 212.8698 548.35626 213.41667Q548.95 213.94792 549.79376 213.94792Q550.8094 213.94792 551.5125 213.1823Q552.21564 212.41667 552.21564 211.15105Q552.21564 209.94792 551.54376 209.26042Q550.8719 208.5573 549.77814 208.5573Q549.09064 208.5573 548.54376 208.8698Q547.9969 209.1823 547.6844 209.66667L546.3719 209.4948L547.48126 203.6198L553.16876 203.6198L553.16876 204.96355L548.60626 204.96355L547.98126 208.04167Q549.0125 207.32292 550.15314 207.32292Q551.65314 207.32292 552.6844 208.3698Q553.71564 209.40105 553.71564 211.02605Q553.71564 212.58855 552.8094 213.71355Q551.7 215.1198 549.79376 215.1198Q548.23126 215.1198 547.2469 214.2448Q546.2625 213.35417 546.1219 211.91667ZM555.90314 214.91667L555.90314 213.3073L557.5125 213.3073L557.5125 214.91667L555.90314 214.91667ZM559.325 212.26042L560.6844 212.13542Q560.85626 213.08855 561.34064 213.52605Q561.825 213.94792 562.575 213.94792Q563.23126 213.94792 563.71564 213.65105Q564.2 213.35417 564.5125 212.8698Q564.825 212.3698 565.02814 211.52605Q565.2469 210.6823 565.2469 209.8073Q565.2469 209.71355 565.2469 209.52605Q564.825 210.19792 564.09064 210.6198Q563.35626 211.02605 562.5125 211.02605Q561.09064 211.02605 560.10626 209.9948Q559.1219 208.96355 559.1219 207.27605Q559.1219 205.54167 560.1375 204.47917Q561.16876 203.41667 562.71564 203.41667Q563.84064 203.41667 564.7625 204.02605Q565.6844 204.6198 566.16876 205.72917Q566.65314 206.83855 566.65314 208.94792Q566.65314 211.15105 566.16876 212.44792Q565.7 213.7448 564.7469 214.4323Q563.8094 215.1198 562.54376 215.1198Q561.2 215.1198 560.34064 214.3698Q559.4969 213.6198 559.325 212.26042ZM565.09064 207.21355Q565.09064 205.9948 564.4344 205.29167Q563.79376 204.57292 562.8875 204.57292Q561.95 204.57292 561.2469 205.33855Q560.5594 206.10417 560.5594 207.32292Q560.5594 208.41667 561.21564 209.10417Q561.8875 209.79167 562.85626 209.79167Q563.825 209.79167 564.45 209.10417Q565.09064 208.41667 565.09064 207.21355ZM568.3875 206.21355Q568.3875 204.97917 568.9969 204.1198Q569.6219 203.26042 570.79376 203.26042Q571.8719 203.26042 572.575 204.04167Q573.27814 204.8073 573.27814 206.29167Q573.27814 207.7448 572.5594 208.54167Q571.85626 209.32292 570.8094 209.32292Q569.7625 209.32292 569.075 208.5573Q568.3875 207.77605 568.3875 206.21355ZM570.825 204.22917Q570.3094 204.22917 569.95 204.6823Q569.60626 205.13542 569.60626 206.35417Q569.60626 207.44792 569.95 207.90105Q570.3094 208.35417 570.825 208.35417Q571.35626 208.35417 571.7 207.90105Q572.0594 207.44792 572.0594 206.2448Q572.0594 205.13542 571.7 204.6823Q571.35626 204.22917 570.825 204.22917ZM570.84064 215.33855L577.10626 203.26042L578.2469 203.26042L571.9969 215.33855L570.84064 215.33855ZM575.79376 212.22917Q575.79376 210.9948 576.40314 210.13542Q577.02814 209.27605 578.2 209.27605Q579.27814 209.27605 579.98126 210.0573Q580.7 210.82292 580.7 212.3073Q580.7 213.76042 579.98126 214.5573Q579.2625 215.33855 578.21564 215.33855Q577.16876 215.33855 576.48126 214.5573Q575.79376 213.77605 575.79376 212.22917ZM578.2469 210.2448Q577.71564 210.2448 577.35626 210.69792Q577.0125 211.15105 577.0125 212.3698Q577.0125 213.46355 577.35626 213.91667Q577.71564 214.3698 578.23126 214.3698Q578.77814 214.3698 579.1219 213.91667Q579.46564 213.46355 579.46564 212.26042Q579.46564 211.15105 579.10626 210.69792Q578.7625 210.2448 578.2469 210.2448Z" fill-rule="nonzero"/><path stroke="#757575" stroke-width="1.0" stroke-linecap="butt" d="M581.45 198.41667L454.76666 198.41667L435.93323 165.007" fill-rule="nonzero"/><path fill="#9e9e9e" d="M437.93323 165.007C437.93323 163.90244 437.03778 163.007 435.93323 163.007C434.82864 163.007 433.93323 163.90244 433.93323 165.007C433.93323 166.11157 434.82864 167.007 435.93323 167.007C437.03778 167.007 437.93323 166.11157 437.93323 165.007" fill-rule="nonzero"/><path fill="#efefef" d="M481.41876 326.45L485.825 314.9969L487.46564 314.9969L492.15314 326.45L490.41876 326.45L489.09064 322.98126L484.29376 322.98126L483.04376 326.45L481.41876 326.45ZM484.73126 321.7469L488.6219 321.7469L487.41876 318.575Q486.8719 317.1219 486.60626 316.2Q486.3875 317.29376 485.9969 318.3875L484.73126 321.7469ZM493.4969 326.45L493.4969 318.15314L494.7625 318.15314L494.7625 319.40314Q495.2469 318.52814 495.65314 318.2469Q496.0594 317.96564 496.5594 317.96564Q497.2625 317.96564 497.9969 318.41876L497.5125 319.71564Q496.9969 319.41876 496.48126 319.41876Q496.02814 319.41876 495.65314 319.7Q495.29376 319.96564 495.1375 320.46564Q494.90314 321.21564 494.90314 322.10626L494.90314 326.45L493.4969 326.45ZM503.91876 323.40314L505.3094 323.59064Q505.075 325.0125 504.1375 325.825Q503.21564 326.6375 501.85626 326.6375Q500.15314 326.6375 499.10626 325.52814Q498.075 324.40314 498.075 322.325Q498.075 320.98126 498.5125 319.98126Q498.96564 318.96564 499.8719 318.46564Q500.79376 317.96564 501.85626 317.96564Q503.21564 317.96564 504.075 318.65314Q504.9344 319.325 505.16876 320.59064L503.8094 320.79376Q503.60626 319.96564 503.10626 319.54376Q502.6219 319.1219 501.91876 319.1219Q500.85626 319.1219 500.1844 319.8875Q499.52814 320.6375 499.52814 322.29376Q499.52814 323.96564 500.16876 324.73126Q500.8094 325.48126 501.84064 325.48126Q502.66876 325.48126 503.21564 324.98126Q503.77814 324.46564 503.91876 323.40314ZM506.5125 326.45L506.5125 314.9969L507.91876 314.9969L507.91876 319.10626Q508.90314 317.96564 510.40314 317.96564Q511.325 317.96564 511.9969 318.325Q512.6844 318.6844 512.96564 319.325Q513.2625 319.96564 513.2625 321.1844L513.2625 326.45L511.85626 326.45L511.85626 321.1844Q511.85626 320.1375 511.40314 319.65314Q510.95 319.16876 510.10626 319.16876Q509.48126 319.16876 508.9344 319.4969Q508.3875 319.825 508.15314 320.3875Q507.91876 320.9344 507.91876 321.90314L507.91876 326.45L506.5125 326.45ZM515.5125 316.60626L515.5125 314.9969L516.91876 314.9969L516.91876 316.60626L515.5125 316.60626ZM515.5125 326.45L515.5125 318.15314L516.91876 318.15314L516.91876 326.45L515.5125 326.45ZM522.575 325.1844L522.77814 326.4344Q522.1844 326.5594 521.71564 326.5594Q520.95 326.5594 520.52814 326.325Q520.10626 326.075 519.9344 325.6844Q519.7625 325.27814 519.7625 324.0125L519.7625 319.2469L518.73126 319.2469L518.73126 318.15314L519.7625 318.15314L519.7625 316.09064L521.16876 315.2469L521.16876 318.15314L522.575 318.15314L522.575 319.2469L521.16876 319.2469L521.16876 324.09064Q521.16876 324.7 521.23126 324.8719Q521.3094 325.04376 521.48126 325.15314Q521.65314 325.2469 521.96564 325.2469Q522.2 325.2469 522.575 325.1844ZM529.1844 323.77814L530.6375 323.95Q530.29376 325.23126 529.35626 325.9344Q528.4344 326.6375 526.9969 326.6375Q525.16876 326.6375 524.10626 325.5125Q523.04376 324.3875 523.04376 322.3719Q523.04376 320.27814 524.1219 319.1219Q525.2 317.96564 526.91876 317.96564Q528.575 317.96564 529.6219 319.10626Q530.6844 320.23126 530.6844 322.27814Q530.6844 322.40314 530.6844 322.65314L524.4969 322.65314Q524.575 324.02814 525.2625 324.7625Q525.96564 325.48126 526.9969 325.48126Q527.77814 325.48126 528.325 325.075Q528.8719 324.66876 529.1844 323.77814ZM524.575 321.4969L529.2 321.4969Q529.10626 320.45 528.66876 319.9344Q527.9969 319.1219 526.9344 319.1219Q525.96564 319.1219 525.29376 319.77814Q524.6375 320.41876 524.575 321.4969ZM537.91876 323.40314L539.3094 323.59064Q539.075 325.0125 538.1375 325.825Q537.21564 326.6375 535.85626 326.6375Q534.15314 326.6375 533.10626 325.52814Q532.075 324.40314 532.075 322.325Q532.075 320.98126 532.5125 319.98126Q532.96564 318.96564 533.8719 318.46564Q534.79376 317.96564 535.85626 317.96564Q537.21564 317.96564 538.075 318.65314Q538.9344 319.325 539.16876 320.59064L537.8094 320.79376Q537.60626 319.96564 537.10626 319.54376Q536.6219 319.1219 535.91876 319.1219Q534.85626 319.1219 534.1844 319.8875Q533.52814 320.6375 533.52814 322.29376Q533.52814 323.96564 534.16876 324.73126Q534.8094 325.48126 535.84064 325.48126Q536.66876 325.48126 537.21564 324.98126Q537.77814 324.46564 537.91876 323.40314ZM543.575 325.1844L543.77814 326.4344Q543.1844 326.5594 542.71564 326.5594Q541.95 326.5594 541.52814 326.325Q541.10626 326.075 540.9344 325.6844Q540.7625 325.27814 540.7625 324.0125L540.7625 319.2469L539.73126 319.2469L539.73126 318.15314L540.7625 318.15314L540.7625 316.09064L542.16876 315.2469L542.16876 318.15314L543.575 318.15314L543.575 319.2469L542.16876 319.2469L542.16876 324.09064Q542.16876 324.7 542.23126 324.8719Q542.3094 325.04376 542.48126 325.15314Q542.65314 325.2469 542.96564 325.2469Q543.2 325.2469 543.575 325.1844ZM549.95 326.45L549.95 325.23126Q548.98126 326.6375 547.3094 326.6375Q546.575 326.6375 545.9344 326.35626Q545.3094 326.075 544.9969 325.65314Q544.6844 325.21564 544.5594 324.60626Q544.48126 324.1844 544.48126 323.29376L544.48126 318.15314L545.8875 318.15314L545.8875 322.7469Q545.8875 323.85626 545.96564 324.23126Q546.10626 324.79376 546.52814 325.10626Q546.96564 325.41876 547.59064 325.41876Q548.23126 325.41876 548.77814 325.10626Q549.34064 324.77814 549.5594 324.21564Q549.79376 323.65314 549.79376 322.59064L549.79376 318.15314L551.2 318.15314L551.2 326.45L549.95 326.45ZM553.4969 326.45L553.4969 318.15314L554.7625 318.15314L554.7625 319.40314Q555.2469 318.52814 555.65314 318.2469Q556.0594 317.96564 556.5594 317.96564Q557.2625 317.96564 557.9969 318.41876L557.5125 319.71564Q556.9969 319.41876 556.48126 319.41876Q556.02814 319.41876 555.65314 319.7Q555.29376 319.96564 555.1375 320.46564Q554.90314 321.21564 554.90314 322.10626L554.90314 326.45L553.4969 326.45ZM564.1844 323.77814L565.6375 323.95Q565.29376 325.23126 564.35626 325.9344Q563.4344 326.6375 561.9969 326.6375Q560.16876 326.6375 559.10626 325.5125Q558.04376 324.3875 558.04376 322.3719Q558.04376 320.27814 559.1219 319.1219Q560.2 317.96564 561.91876 317.96564Q563.575 317.96564 564.6219 319.10626Q565.6844 320.23126 565.6844 322.27814Q565.6844 322.40314 565.6844 322.65314L559.4969 322.65314Q559.575 324.02814 560.2625 324.7625Q560.96564 325.48126 561.9969 325.48126Q562.77814 325.48126 563.325 325.075Q563.8719 324.66876 564.1844 323.77814ZM559.575 321.4969L564.2 321.4969Q564.10626 320.45 563.66876 319.9344Q562.9969 319.1219 561.9344 319.1219Q560.96564 319.1219 560.29376 319.77814Q559.6375 320.41876 559.575 321.4969ZM578.0594 325.09064Q577.35626 325.8719 576.52814 326.2625Q575.71564 326.65314 574.7625 326.65314Q573.0125 326.65314 571.98126 325.45Q571.1375 324.48126 571.1375 323.29376Q571.1375 322.23126 571.825 321.3719Q572.5125 320.5125 573.8719 319.8719Q573.09064 318.98126 572.825 318.4344Q572.575 317.8719 572.575 317.35626Q572.575 316.325 573.3875 315.5594Q574.2 314.79376 575.41876 314.79376Q576.59064 314.79376 577.34064 315.5125Q578.09064 316.23126 578.09064 317.2469Q578.09064 318.8719 575.91876 320.02814L577.98126 322.65314Q578.325 321.96564 578.52814 321.0594L579.98126 321.3719Q579.60626 322.8719 578.96564 323.84064Q579.7625 324.8875 580.7625 325.59064L579.8094 326.71564Q578.96564 326.16876 578.0594 325.09064ZM575.2 319.1219Q576.10626 318.59064 576.3719 318.1844Q576.65314 317.77814 576.65314 317.27814Q576.65314 316.7 576.27814 316.325Q575.90314 315.95 575.35626 315.95Q574.77814 315.95 574.40314 316.325Q574.02814 316.6844 574.02814 317.21564Q574.02814 317.48126 574.15314 317.77814Q574.29376 318.075 574.575 318.40314L575.2 319.1219ZM577.16876 323.98126L574.59064 320.79376Q573.45 321.46564 573.04376 322.0594Q572.65314 322.6375 572.65314 323.2Q572.65314 323.90314 573.2 324.65314Q573.7625 325.40314 574.77814 325.40314Q575.41876 325.40314 576.09064 325.0125Q576.7625 324.60626 577.16876 323.98126Z" fill-rule="nonzero"/><path fill="#9e9e9e" d="M541.6219 348.45L541.6219 345.7L536.65314 345.7L536.65314 344.41876L541.8875 336.9969L543.02814 336.9969L543.02814 344.41876L544.575 344.41876L544.575 345.7L543.02814 345.7L543.02814 348.45L541.6219 348.45ZM541.6219 344.41876L541.6219 339.2469L538.04376 344.41876L541.6219 344.41876ZM546.21564 338.4969L546.21564 337.1375L553.6219 337.1375L553.6219 338.23126Q552.52814 339.40314 551.45 341.34064Q550.3875 343.2625 549.79376 345.29376Q549.3719 346.73126 549.2625 348.45L547.8094 348.45Q547.84064 347.09064 548.34064 345.1844Q548.85626 343.2625 549.79376 341.4969Q550.7469 339.71564 551.825 338.4969L546.21564 338.4969ZM555.90314 348.45L555.90314 346.84064L557.5125 346.84064L557.5125 348.45L555.90314 348.45ZM564.41876 348.45L563.0125 348.45L563.0125 339.48126Q562.4969 339.96564 561.66876 340.45Q560.85626 340.9344 560.2 341.1844L560.2 339.825Q561.3719 339.2625 562.2469 338.48126Q563.1375 337.6844 563.5125 336.95L564.41876 336.95L564.41876 348.45ZM568.3875 339.7469Q568.3875 338.5125 568.9969 337.65314Q569.6219 336.79376 570.79376 336.79376Q571.8719 336.79376 572.575 337.575Q573.27814 338.34064 573.27814 339.825Q573.27814 341.27814 572.5594 342.075Q571.85626 342.85626 570.8094 342.85626Q569.7625 342.85626 569.075 342.09064Q568.3875 341.3094 568.3875 339.7469ZM570.825 337.7625Q570.3094 337.7625 569.95 338.21564Q569.60626 338.66876 569.60626 339.8875Q569.60626 340.98126 569.95 341.4344Q570.3094 341.8875 570.825 341.8875Q571.35626 341.8875 571.7 341.4344Q572.0594 340.98126 572.0594 339.77814Q572.0594 338.66876 571.7 338.21564Q571.35626 337.7625 570.825 337.7625ZM570.84064 348.8719L577.10626 336.79376L578.2469 336.79376L571.9969 348.8719L570.84064 348.8719ZM575.79376 345.7625Q575.79376 344.52814 576.40314 343.66876Q577.02814 342.8094 578.2 342.8094Q579.27814 342.8094 579.98126 343.59064Q580.7 344.35626 580.7 345.84064Q580.7 347.29376 579.98126 348.09064Q579.2625 348.8719 578.21564 348.8719Q577.16876 348.8719 576.48126 348.09064Q575.79376 347.3094 575.79376 345.7625ZM578.2469 343.77814Q577.71564 343.77814 577.35626 344.23126Q577.0125 344.6844 577.0125 345.90314Q577.0125 346.9969 577.35626 347.45Q577.71564 347.90314 578.23126 347.90314Q578.77814 347.90314 579.1219 347.45Q579.46564 346.9969 579.46564 345.79376Q579.46564 344.6844 579.10626 344.23126Q578.7625 343.77814 578.2469 343.77814Z" fill-rule="nonzero"/><path stroke="#757575" stroke-width="1.0" stroke-linecap="butt" d="M581.45 331.95L454.76666 331.95L325.96902 342.6053" fill-rule="nonzero"/><path fill="#9e9e9e" d="M327.96902 342.6053C327.96902 341.5007 327.07358 340.6053 325.96902 340.6053C324.86444 340.6053 323.96902 341.5007 323.96902 342.6053C323.96902 343.70984 324.86444 344.6053 325.96902 344.6053C327.07358 344.6053 327.96902 343.70984 327.96902 342.6053" fill-rule="nonzero"/><path fill="#f3f3f3" d="M271.26562 32.534374L273.15625 33.003124Q272.5625 35.346874 271.01562 36.58125Q269.46875 37.8 267.21875 37.8Q264.90625 37.8 263.45312 36.8625Q262.01562 35.909374 261.25 34.128124Q260.5 32.33125 260.5 30.284374Q260.5 28.05 261.34375 26.39375Q262.20312 24.721874 263.78125 23.8625Q265.35938 22.9875 267.25 22.9875Q269.40625 22.9875 270.85938 24.08125Q272.32812 25.175 272.90625 27.159374L271.04688 27.596874Q270.54688 26.034374 269.59375 25.33125Q268.65625 24.6125 267.21875 24.6125Q265.5625 24.6125 264.45312 25.409374Q263.34375 26.190624 262.89062 27.534374Q262.45312 28.8625 262.45312 30.26875Q262.45312 32.096874 262.98438 33.471874Q263.51562 34.83125 264.64062 35.503124Q265.76562 36.175 267.0625 36.175Q268.65625 36.175 269.76562 35.253124Q270.875 34.33125 271.26562 32.534374ZM281.59375 36.26875Q280.60938 37.096874 279.70312 37.440624Q278.79688 37.784374 277.76562 37.784374Q276.0625 37.784374 275.14062 36.95625Q274.21875 36.1125 274.21875 34.815624Q274.21875 34.05 274.5625 33.425Q274.92188 32.8 275.48438 32.425Q276.04688 32.034374 276.75 31.83125Q277.26562 31.70625 278.3125 31.565624Q280.4375 31.315624 281.4375 30.971874Q281.45312 30.6125 281.45312 30.503124Q281.45312 29.440624 280.95312 28.9875Q280.28125 28.39375 278.95312 28.39375Q277.70312 28.39375 277.10938 28.83125Q276.53125 29.26875 276.25 30.378124L274.53125 30.14375Q274.76562 29.034374 275.29688 28.3625Q275.82812 27.675 276.84375 27.315624Q277.85938 26.940624 279.20312 26.940624Q280.53125 26.940624 281.35938 27.253124Q282.1875 27.565624 282.57812 28.05Q282.96875 28.51875 283.125 29.2375Q283.21875 29.690624 283.21875 30.8625L283.21875 33.20625Q283.21875 35.659374 283.32812 36.315624Q283.4375 36.95625 283.78125 37.55L281.9375 37.55Q281.67188 37.003124 281.59375 36.26875ZM281.4375 32.346874Q280.48438 32.7375 278.5625 33.003124Q277.48438 33.159374 277.03125 33.3625Q276.59375 33.55 276.34375 33.925Q276.09375 34.3 276.09375 34.76875Q276.09375 35.471874 276.625 35.940624Q277.15625 36.409374 278.1875 36.409374Q279.20312 36.409374 279.98438 35.971874Q280.78125 35.51875 281.15625 34.753124Q281.4375 34.14375 281.4375 32.9875L281.4375 32.346874ZM289.65625 35.971874L289.90625 37.534374Q289.17188 37.690624 288.57812 37.690624Q287.625 37.690624 287.09375 37.39375Q286.57812 37.08125 286.35938 36.596874Q286.14062 36.096874 286.14062 34.51875L286.14062 28.55L284.85938 28.55L284.85938 27.175L286.14062 27.175L286.14062 24.6125L287.89062 23.55L287.89062 27.175L289.65625 27.175L289.65625 28.55L287.89062 28.55L287.89062 34.6125Q287.89062 35.3625 287.98438 35.58125Q288.07812 35.784374 288.28125 35.925Q288.5 36.05 288.89062 36.05Q289.17188 36.05 289.65625 35.971874ZM298.92188 34.20625L300.73438 34.440624Q300.3125 36.01875 299.14062 36.909374Q297.98438 37.784374 296.17188 37.784374Q293.90625 37.784374 292.5625 36.39375Q291.23438 34.9875 291.23438 32.45625Q291.23438 29.83125 292.57812 28.39375Q293.92188 26.940624 296.07812 26.940624Q298.15625 26.940624 299.46875 28.3625Q300.79688 29.76875 300.79688 32.346874Q300.79688 32.503124 300.78125 32.815624L293.04688 32.815624Q293.14062 34.51875 294.01562 35.425Q294.89062 36.33125 296.1875 36.33125Q297.15625 36.33125 297.82812 35.83125Q298.51562 35.315624 298.92188 34.20625ZM293.14062 31.3625L298.9375 31.3625Q298.82812 30.065624 298.28125 29.409374Q297.4375 28.39375 296.09375 28.39375Q294.89062 28.39375 294.0625 29.20625Q293.23438 30.003124 293.14062 31.3625ZM302.5 38.409374L304.20312 38.659374Q304.3125 39.45625 304.79688 39.815624Q305.45312 40.3 306.59375 40.3Q307.8125 40.3 308.46875 39.815624Q309.14062 39.33125 309.375 38.45625Q309.51562 37.909374 309.5 36.190624Q308.34375 37.55 306.625 37.55Q304.48438 37.55 303.3125 36.003124Q302.14062 34.45625 302.14062 32.3Q302.14062 30.815624 302.67188 29.565624Q303.21875 28.315624 304.23438 27.628124Q305.26562 26.940624 306.64062 26.940624Q308.46875 26.940624 309.67188 28.425L309.67188 27.175L311.28125 27.175L311.28125 36.14375Q311.28125 38.565624 310.78125 39.565624Q310.29688 40.58125 309.21875 41.159374Q308.15625 41.753124 306.59375 41.753124Q304.75 41.753124 303.59375 40.925Q302.45312 40.096874 302.5 38.409374ZM303.95312 32.175Q303.95312 34.221874 304.76562 35.159374Q305.57812 36.096874 306.79688 36.096874Q308.0 36.096874 308.8125 35.159374Q309.64062 34.221874 309.64062 32.2375Q309.64062 30.33125 308.79688 29.3625Q307.95312 28.39375 306.76562 28.39375Q305.59375 28.39375 304.76562 29.346874Q303.95312 30.3 303.95312 32.175ZM313.17188 32.3625Q313.17188 29.4875 314.76562 28.096874Q316.10938 26.940624 318.03125 26.940624Q320.17188 26.940624 321.51562 28.346874Q322.875 29.753124 322.875 32.221874Q322.875 34.221874 322.28125 35.378124Q321.6875 36.51875 320.53125 37.159374Q319.39062 37.784374 318.03125 37.784374Q315.84375 37.784374 314.5 36.39375Q313.17188 34.9875 313.17188 32.3625ZM314.96875 32.3625Q314.96875 34.3625 315.82812 35.346874Q316.70312 36.33125 318.03125 36.33125Q319.34375 36.33125 320.20312 35.346874Q321.07812 34.346874 321.07812 32.3Q321.07812 30.378124 320.20312 29.39375Q319.32812 28.39375 318.03125 28.39375Q316.70312 28.39375 315.82812 29.39375Q314.96875 30.378124 314.96875 32.3625ZM324.79688 37.55L324.79688 27.175L326.375 27.175L326.375 28.753124Q326.98438 27.64375 327.5 27.3Q328.01562 26.940624 328.625 26.940624Q329.51562 26.940624 330.4375 27.503124L329.82812 29.14375Q329.1875 28.753124 328.54688 28.753124Q327.96875 28.753124 327.5 29.1125Q327.04688 29.45625 326.84375 30.065624Q326.5625 31.003124 326.5625 32.1125L326.5625 37.55L324.79688 37.55ZM331.73438 41.55L331.54688 39.89375Q332.125 40.05 332.54688 40.05Q333.14062 40.05 333.48438 39.846874Q333.84375 39.659374 334.0625 39.315624Q334.23438 39.05 334.60938 38.003124Q334.65625 37.846874 334.76562 37.565624L330.82812 27.175L332.71875 27.175L334.875 33.190624Q335.29688 34.33125 335.625 35.58125Q335.9375 34.378124 336.34375 33.221874L338.5625 27.175L340.32812 27.175L336.375 37.721874Q335.75 39.440624 335.39062 40.08125Q334.92188 40.95625 334.3125 41.346874Q333.71875 41.753124 332.875 41.753124Q332.35938 41.753124 331.73438 41.55Z" fill-rule="nonzero"/></svg>