<svg version="1.1" viewBox="0.0 0.0 600.0 371.0" fill="none" stroke="none" stroke-linecap="square" stroke-miterlimit="10" width="600" height="371" xmlns:xlink="http://www.w3.org/1999/xlink" xmlns="http://www.w3.org/2000/svg"><path fill="#ffffff" fill-opacity="0.0" d="M0 0L600.0 0L600.0 371.0L0 371.0L0 0Z" fill-rule="nonzero"/><path fill="#304388" d="M300.0 54.916668C353.1492 54.916668 402.2611 83.27143 428.83572 129.3L332.20892 185.0875C325.56528 173.58035 313.2873 166.49167 300.0 166.49167Z" fill-rule="nonzero"/><path fill="#533990" d="M428.83572 129.3C455.4103 175.32857 455.4103 232.0381 428.83572 278.06668L332.20892 222.27916C338.85257 210.77202 338.85257 196.59464 332.20892 185.0875Z" fill-rule="nonzero"/><path fill="#b5428d" d="M428.83572 278.06668C415.77872 300.68207 396.99872 319.46204 374.38333 332.51904L318.59583 235.89226C324.2497 232.628 328.94467 227.93301 332.20892 222.27916Z" fill-rule="nonzero"/><path fill="#e5a345" d="M151.23334 203.68333C151.23334 121.521774 217.83844 54.916668 300.0 54.916668L300.0 166.49167C279.4596 166.49167 262.80832 183.14294 262.80832 203.68333Z" fill-rule="nonzero"/><path fill="#df8d43" d="M171.16429 278.06668C158.10728 255.45128 151.23334 229.79733 151.23334 203.68333L262.80832 203.68333C262.80832 210.21184 264.52682 216.62532 267.79108 222.27916Z" fill-rule="nonzero"/><path fill="#cf4366" d="M374.38333 332.51904C303.22934 373.59982 212.24507 349.22067 171.16429 278.06668L267.79108 222.27916C278.06128 240.06767 300.80734 246.16246 318.59583 235.89226Z" fill-rule="nonzero"/><path fill="#ffffff" d="M333.66504 119.316635L332.0869 119.316635L332.0869 109.23851Q331.5088 109.785385 330.5869 110.33226Q329.66504 110.86351 328.91504 111.14476L328.91504 109.61351Q330.24316 108.98851 331.24316 108.097885Q332.24316 107.20726 332.6494 106.379135L333.66504 106.379135L333.66504 119.316635ZM345.91504 109.58226L344.35254 109.70726Q344.1338 108.785385 343.74316 108.36351Q343.10254 107.67601 342.16504 107.67601Q341.41504 107.67601 340.8369 108.097885Q340.0869 108.64476 339.6494 109.691635Q339.22754 110.73851 339.2119 112.67601Q339.79004 111.80101 340.60254 111.379135Q341.43066 110.95726 342.3369 110.95726Q343.93066 110.95726 345.04004 112.129135Q346.1494 113.285385 346.1494 115.129135Q346.1494 116.347885 345.61816 117.39476Q345.10254 118.42601 344.18066 118.98851Q343.2744 119.535385 342.11816 119.535385Q340.1338 119.535385 338.8838 118.08226Q337.6338 116.629135 337.6338 113.285385Q337.6338 109.55101 339.0244 107.847885Q340.22754 106.379135 342.2588 106.379135Q343.79004 106.379135 344.7588 107.23851Q345.72754 108.08226 345.91504 109.58226ZM339.4619 115.14476Q339.4619 115.95726 339.80566 116.70726Q340.1494 117.45726 340.7744 117.847885Q341.3994 118.23851 342.0869 118.23851Q343.0869 118.23851 343.80566 117.42601Q344.5244 116.61351 344.5244 115.222885Q344.5244 113.89476 343.80566 113.129135Q343.10254 112.347885 342.0244 112.347885Q340.9463 112.347885 340.1963 113.129135Q339.4619 113.89476 339.4619 115.14476ZM348.60254 119.316635L348.60254 117.51976L350.3994 117.51976L350.3994 119.316635L348.60254 119.316635ZM352.8213 108.11351L352.8213 106.597885L361.1494 106.597885L361.1494 107.83226Q359.93066 109.14476 358.7119 111.316635Q357.5088 113.472885 356.85254 115.76976Q356.36816 117.39476 356.24316 119.316635L354.61816 119.316635Q354.6494 117.80101 355.2119 115.64476Q355.79004 113.48851 356.85254 111.48851Q357.91504 109.48851 359.11816 108.11351L352.8213 108.11351ZM363.0088 109.51976Q363.0088 108.14476 363.6963 107.17601Q364.3994 106.20726 365.7119 106.20726Q366.93066 106.20726 367.72754 107.08226Q368.5244 107.941635 368.5244 109.629135Q368.5244 111.254135 367.7119 112.14476Q366.91504 113.01976 365.72754 113.01976Q364.5713 113.01976 363.79004 112.160385Q363.0088 111.285385 363.0088 109.51976ZM365.7588 107.30101Q365.16504 107.30101 364.7744 107.816635Q364.3838 108.316635 364.3838 109.67601Q364.3838 110.92601 364.7744 111.42601Q365.18066 111.92601 365.7588 111.92601Q366.35254 111.92601 366.74316 111.42601Q367.1338 110.910385 367.1338 109.566635Q367.1338 108.316635 366.74316 107.816635Q366.35254 107.30101 365.7588 107.30101ZM365.7744 119.785385L372.8213 106.20726L374.10254 106.20726L367.0713 119.785385L365.7744 119.785385ZM371.3369 116.285385Q371.3369 114.910385 372.0244 113.941635Q372.72754 112.972885 374.05566 112.972885Q375.2744 112.972885 376.05566 113.847885Q376.85254 114.70726 376.85254 116.39476Q376.85254 118.01976 376.05566 118.910385Q375.2588 119.785385 374.0713 119.785385Q372.8994 119.785385 372.11816 118.910385Q371.3369 118.035385 371.3369 116.285385ZM374.10254 114.066635Q373.5088 114.066635 373.11816 114.58226Q372.72754 115.08226 372.72754 116.45726Q372.72754 117.67601 373.11816 118.191635Q373.5088 118.70726 374.0869 118.70726Q374.6963 118.70726 375.0869 118.191635Q375.47754 117.67601 375.47754 116.33226Q375.47754 115.08226 375.0869 114.58226Q374.6963 114.066635 374.10254 114.066635Z" fill-rule="nonzero"/><path fill="#ffffff" d="M387.41278 210.18333L385.83466 210.18333L385.83466 200.10521Q385.25653 200.65208 384.33466 201.19896Q383.41278 201.73021 382.66278 202.01146L382.66278 200.48021Q383.9909 199.85521 384.9909 198.96458Q385.9909 198.07396 386.39716 197.24583L387.41278 197.24583L387.41278 210.18333ZM399.66278 200.44896L398.10028 200.57396Q397.88153 199.65208 397.4909 199.23021Q396.85028 198.54271 395.91278 198.54271Q395.16278 198.54271 394.58466 198.96458Q393.83466 199.51146 393.39716 200.55833Q392.97528 201.60521 392.95966 203.54271Q393.53778 202.66771 394.35028 202.24583Q395.1784 201.82396 396.08466 201.82396Q397.6784 201.82396 398.78778 202.99583Q399.89716 204.15208 399.89716 205.99583Q399.89716 207.21458 399.3659 208.26146Q398.85028 209.29271 397.9284 209.85521Q397.02216 210.40208 395.8659 210.40208Q393.88153 210.40208 392.63153 208.94896Q391.38153 207.49583 391.38153 204.15208Q391.38153 200.41771 392.77216 198.71458Q393.97528 197.24583 396.00653 197.24583Q397.53778 197.24583 398.50653 198.10521Q399.47528 198.94896 399.66278 200.44896ZM393.20966 206.01146Q393.20966 206.82396 393.5534 207.57396Q393.89716 208.32396 394.52216 208.71458Q395.14716 209.10521 395.83466 209.10521Q396.83466 209.10521 397.5534 208.29271Q398.27216 207.48021 398.27216 206.08958Q398.27216 204.76146 397.5534 203.99583Q396.85028 203.21458 395.77216 203.21458Q394.69403 203.21458 393.94403 203.99583Q393.20966 204.76146 393.20966 206.01146ZM402.35028 210.18333L402.35028 208.38646L404.14716 208.38646L404.14716 210.18333L402.35028 210.18333ZM406.56903 198.98021L406.56903 197.46458L414.89716 197.46458L414.89716 198.69896Q413.6784 200.01146 412.45966 202.18333Q411.25653 204.33958 410.60028 206.63646Q410.1159 208.26146 409.9909 210.18333L408.3659 210.18333Q408.39716 208.66771 408.95966 206.51146Q409.53778 204.35521 410.60028 202.35521Q411.66278 200.35521 412.8659 198.98021L406.56903 198.98021ZM416.75653 200.38646Q416.75653 199.01146 417.44403 198.04271Q418.14716 197.07396 419.45966 197.07396Q420.6784 197.07396 421.47528 197.94896Q422.27216 198.80833 422.27216 200.49583Q422.27216 202.12083 421.45966 203.01146Q420.66278 203.88646 419.47528 203.88646Q418.31903 203.88646 417.53778 203.02708Q416.75653 202.15208 416.75653 200.38646ZM419.50653 198.16771Q418.91278 198.16771 418.52216 198.68333Q418.13153 199.18333 418.13153 200.54271Q418.13153 201.79271 418.52216 202.29271Q418.9284 202.79271 419.50653 202.79271Q420.10028 202.79271 420.4909 202.29271Q420.88153 201.77708 420.88153 200.43333Q420.88153 199.18333 420.4909 198.68333Q420.10028 198.16771 419.50653 198.16771ZM419.52216 210.65208L426.56903 197.07396L427.85028 197.07396L420.81903 210.65208L419.52216 210.65208ZM425.08466 207.15208Q425.08466 205.77708 425.77216 204.80833Q426.47528 203.83958 427.8034 203.83958Q429.02216 203.83958 429.8034 204.71458Q430.60028 205.57396 430.60028 207.26146Q430.60028 208.88646 429.8034 209.77708Q429.00653 210.65208 427.81903 210.65208Q426.64716 210.65208 425.8659 209.77708Q425.08466 208.90208 425.08466 207.15208ZM427.85028 204.93333Q427.25653 204.93333 426.8659 205.44896Q426.47528 205.94896 426.47528 207.32396Q426.47528 208.54271 426.8659 209.05833Q427.25653 209.57396 427.83466 209.57396Q428.44403 209.57396 428.83466 209.05833Q429.22528 208.54271 429.22528 207.19896Q429.22528 205.94896 428.83466 205.44896Q428.44403 204.93333 427.85028 204.93333Z" fill-rule="nonzero"/><path fill="#ffffff" d="M357.38586 277.8973Q356.4015 277.53793 355.9171 276.86606Q355.44836 276.19418 355.44836 275.2723Q355.44836 273.86606 356.44836 272.91293Q357.464 271.94418 359.1515 271.94418Q360.839 271.94418 361.8546 272.92856Q362.88586 273.8973 362.88586 275.30356Q362.88586 276.2098 362.4171 276.88168Q361.94836 277.53793 360.99524 277.8973Q362.18274 278.28793 362.7921 279.1473Q363.4171 280.00668 363.4171 281.19418Q363.4171 282.85043 362.24524 283.97543Q361.07336 285.10043 359.1671 285.10043Q357.26086 285.10043 356.089 283.97543Q354.93274 282.8348 354.93274 281.1473Q354.93274 279.8973 355.55774 279.05356Q356.19836 278.19418 357.38586 277.8973ZM357.05774 275.2098Q357.05774 276.13168 357.6515 276.7098Q358.24524 277.28793 359.18274 277.28793Q360.089 277.28793 360.6671 276.7098Q361.26086 276.13168 361.26086 275.30356Q361.26086 274.42856 360.6515 273.8348Q360.05774 273.24106 359.1671 273.24106Q358.26086 273.24106 357.6515 273.81918Q357.05774 274.3973 357.05774 275.2098ZM356.55774 281.16293Q356.55774 281.8348 356.87024 282.47543Q357.19836 283.10043 357.82336 283.4598Q358.464 283.80356 359.19836 283.80356Q360.32336 283.80356 361.05774 283.06918Q361.80774 282.3348 361.80774 281.2098Q361.80774 280.06918 361.0421 279.3348Q360.2765 278.5848 359.13586 278.5848Q358.0265 278.5848 357.2921 279.31918Q356.55774 280.05356 356.55774 281.16293ZM365.839 284.88168L365.839 283.0848L367.63586 283.0848L367.63586 284.88168L365.839 284.88168ZM369.94836 281.47543L371.5421 281.2723Q371.80774 282.61606 372.464 283.2098Q373.12024 283.80356 374.05774 283.80356Q375.18274 283.80356 375.94836 283.03793Q376.714 282.25668 376.714 281.11606Q376.714 280.0223 375.99524 279.31918Q375.2921 278.60043 374.19836 278.60043Q373.74524 278.60043 373.07336 278.78793L373.24524 277.3973Q373.4015 277.41293 373.51086 277.41293Q374.51086 277.41293 375.32336 276.88168Q376.13586 276.35043 376.13586 275.25668Q376.13586 274.38168 375.5421 273.81918Q374.94836 273.24106 374.0265 273.24106Q373.1046 273.24106 372.4796 273.81918Q371.87024 274.3973 371.69836 275.56918L370.12024 275.28793Q370.4015 273.69418 371.43274 272.81918Q372.464 271.94418 373.99524 271.94418Q375.0421 271.94418 375.93274 272.3973Q376.82336 272.85043 377.2921 273.63168Q377.76086 274.41293 377.76086 275.28793Q377.76086 276.13168 377.30774 276.81918Q376.87024 277.49106 375.9796 277.8973Q377.12024 278.16293 377.74524 279.00668Q378.38586 279.8348 378.38586 281.06918Q378.38586 282.75668 377.1515 283.94418Q375.93274 285.11606 374.05774 285.11606Q372.3546 285.11606 371.2296 284.10043Q370.12024 283.0848 369.94836 281.47543ZM380.24524 275.0848Q380.24524 273.7098 380.93274 272.74106Q381.63586 271.7723 382.94836 271.7723Q384.1671 271.7723 384.964 272.6473Q385.76086 273.50668 385.76086 275.19418Q385.76086 276.81918 384.94836 277.7098Q384.1515 278.5848 382.964 278.5848Q381.80774 278.5848 381.0265 277.72543Q380.24524 276.85043 380.24524 275.0848ZM382.99524 272.86606Q382.4015 272.86606 382.01086 273.38168Q381.62024 273.88168 381.62024 275.24106Q381.62024 276.49106 382.01086 276.99106Q382.4171 277.49106 382.99524 277.49106Q383.589 277.49106 383.9796 276.99106Q384.37024 276.47543 384.37024 275.13168Q384.37024 273.88168 383.9796 273.38168Q383.589 272.86606 382.99524 272.86606ZM383.01086 285.35043L390.05774 271.7723L391.339 271.7723L384.30774 285.35043L383.01086 285.35043ZM388.57336 281.85043Q388.57336 280.47543 389.26086 279.50668Q389.964 278.53793 391.2921 278.53793Q392.51086 278.53793 393.2921 279.41293Q394.089 280.2723 394.089 281.9598Q394.089 283.5848 393.2921 284.47543Q392.49524 285.35043 391.30774 285.35043Q390.13586 285.35043 389.3546 284.47543Q388.57336 283.60043 388.57336 281.85043ZM391.339 279.63168Q390.74524 279.63168 390.3546 280.1473Q389.964 280.6473 389.964 282.0223Q389.964 283.24106 390.3546 283.75668Q390.74524 284.2723 391.32336 284.2723Q391.93274 284.2723 392.32336 283.75668Q392.714 283.24106 392.714 281.8973Q392.714 280.6473 392.32336 280.1473Q391.93274 279.63168 391.339 279.63168Z" fill-rule="nonzero"/><path fill="#ffffff" d="M255.0339 315.13788L255.0339 316.6535L246.51828 316.6535Q246.50266 316.07538 246.70578 315.55975Q247.0339 314.68475 247.73703 313.841Q248.45578 312.99725 249.81516 311.88788Q251.9089 310.16913 252.64328 309.16913Q253.39328 308.1535 253.39328 307.26288Q253.39328 306.30975 252.7214 305.66913Q252.04953 305.0285 250.9714 305.0285Q249.81516 305.0285 249.12766 305.716Q248.45578 306.4035 248.44016 307.60663L246.81516 307.43475Q246.98703 305.62225 248.06516 304.66913Q249.1589 303.716 251.00266 303.716Q252.8464 303.716 253.92453 304.74725Q255.01828 305.7785 255.01828 307.29413Q255.01828 308.05975 254.69016 308.80975Q254.37766 309.55975 253.64328 310.38788Q252.9089 311.216 251.20578 312.6535Q249.7839 313.85663 249.37766 314.2785Q248.9714 314.70038 248.7214 315.13788L255.0339 315.13788ZM256.7214 313.2785L258.37766 313.13788Q258.56516 314.35663 259.23703 314.966Q259.9089 315.57538 260.86203 315.57538Q262.00266 315.57538 262.7839 314.716Q263.58078 313.85663 263.58078 312.41913Q263.58078 311.07538 262.81516 310.29413Q262.06516 309.51288 260.83078 309.51288Q260.06516 309.51288 259.44016 309.85663Q258.83078 310.20038 258.48703 310.76288L257.00266 310.55975L258.25266 303.95038L264.6589 303.95038L264.6589 305.45038L259.51828 305.45038L258.81516 308.91913Q259.98703 308.10663 261.25266 308.10663Q262.94016 308.10663 264.0964 309.2785Q265.26828 310.45038 265.26828 312.2785Q265.26828 314.0285 264.23703 315.30975Q263.00266 316.87225 260.86203 316.87225Q259.0964 316.87225 257.98703 315.88788Q256.87766 314.9035 256.7214 313.2785ZM267.61203 316.6535L267.61203 314.85663L269.4089 314.85663L269.4089 316.6535L267.61203 316.6535ZM271.7214 310.29413Q271.7214 308.01288 272.19016 306.62225Q272.6589 305.23163 273.58078 304.48163Q274.51828 303.716 275.92453 303.716Q276.95578 303.716 277.73703 304.13788Q278.51828 304.54413 279.01828 305.341Q279.5339 306.12225 279.83078 307.26288Q280.12766 308.38788 280.12766 310.29413Q280.12766 312.55975 279.6589 313.966Q279.19016 315.35663 278.25266 316.12225Q277.33078 316.87225 275.92453 316.87225Q274.04953 316.87225 272.98703 315.54413Q271.7214 313.93475 271.7214 310.29413ZM273.3464 310.29413Q273.3464 313.466 274.08078 314.5285Q274.83078 315.57538 275.92453 315.57538Q277.00266 315.57538 277.75266 314.5285Q278.50266 313.466 278.50266 310.29413Q278.50266 307.12225 277.75266 306.07538Q277.00266 305.0285 275.9089 305.0285Q274.81516 305.0285 274.1589 305.95038Q273.3464 307.12225 273.3464 310.29413ZM282.01828 306.85663Q282.01828 305.48163 282.70578 304.51288Q283.4089 303.54413 284.7214 303.54413Q285.94016 303.54413 286.73703 304.41913Q287.5339 305.2785 287.5339 306.966Q287.5339 308.591 286.7214 309.48163Q285.92453 310.35663 284.73703 310.35663Q283.58078 310.35663 282.79953 309.49725Q282.01828 308.62225 282.01828 306.85663ZM284.76828 304.63788Q284.17453 304.63788 283.7839 305.1535Q283.39328 305.6535 283.39328 307.01288Q283.39328 308.26288 283.7839 308.76288Q284.19016 309.26288 284.76828 309.26288Q285.36203 309.26288 285.75266 308.76288Q286.14328 308.24725 286.14328 306.9035Q286.14328 305.6535 285.75266 305.1535Q285.36203 304.63788 284.76828 304.63788ZM284.7839 317.12225L291.83078 303.54413L293.11203 303.54413L286.08078 317.12225L284.7839 317.12225ZM290.3464 313.62225Q290.3464 312.24725 291.0339 311.2785Q291.73703 310.30975 293.06516 310.30975Q294.2839 310.30975 295.06516 311.18475Q295.86203 312.04413 295.86203 313.73163Q295.86203 315.35663 295.06516 316.24725Q294.26828 317.12225 293.08078 317.12225Q291.9089 317.12225 291.12766 316.24725Q290.3464 315.37225 290.3464 313.62225ZM293.11203 311.4035Q292.51828 311.4035 292.12766 311.91913Q291.73703 312.41913 291.73703 313.79413Q291.73703 315.01288 292.12766 315.5285Q292.51828 316.04413 293.0964 316.04413Q293.70578 316.04413 294.0964 315.5285Q294.48703 315.01288 294.48703 313.66913Q294.48703 312.41913 294.0964 311.91913Q293.70578 311.4035 293.11203 311.4035Z" fill-rule="nonzero"/><path fill="#ffffff" d="M179.10855 230.95285Q178.12418 230.59348 177.6398 229.9216Q177.17105 229.24973 177.17105 228.32785Q177.17105 226.9216 178.17105 225.96848Q179.18668 224.99973 180.87418 224.99973Q182.56168 224.99973 183.5773 225.9841Q184.60855 226.95285 184.60855 228.3591Q184.60855 229.26535 184.1398 229.93723Q183.67105 230.59348 182.71793 230.95285Q183.90543 231.34348 184.5148 232.20285Q185.1398 233.06223 185.1398 234.24973Q185.1398 235.90598 183.96793 237.03098Q182.79605 238.15598 180.8898 238.15598Q178.98355 238.15598 177.81168 237.03098Q176.65543 235.89035 176.65543 234.20285Q176.65543 232.95285 177.28043 232.1091Q177.92105 231.24973 179.10855 230.95285ZM178.78043 228.26535Q178.78043 229.18723 179.37418 229.76535Q179.96793 230.34348 180.90543 230.34348Q181.81168 230.34348 182.3898 229.76535Q182.98355 229.18723 182.98355 228.3591Q182.98355 227.4841 182.37418 226.89035Q181.78043 226.2966 180.8898 226.2966Q179.98355 226.2966 179.37418 226.87473Q178.78043 227.45285 178.78043 228.26535ZM178.28043 234.21848Q178.28043 234.89035 178.59293 235.53098Q178.92105 236.15598 179.54605 236.51535Q180.18668 236.8591 180.92105 236.8591Q182.04605 236.8591 182.78043 236.12473Q183.53043 235.39035 183.53043 234.26535Q183.53043 233.12473 182.7648 232.39035Q181.99918 231.64035 180.85855 231.64035Q179.74918 231.64035 179.0148 232.37473Q178.28043 233.1091 178.28043 234.21848ZM187.56168 237.93723L187.56168 236.14035L189.35855 236.14035L189.35855 237.93723L187.56168 237.93723ZM191.67105 234.53098L193.2648 234.32785Q193.53043 235.6716 194.18668 236.26535Q194.84293 236.8591 195.78043 236.8591Q196.90543 236.8591 197.67105 236.09348Q198.43668 235.31223 198.43668 234.1716Q198.43668 233.07785 197.71793 232.37473Q197.0148 231.65598 195.92105 231.65598Q195.46793 231.65598 194.79605 231.84348L194.96793 230.45285Q195.12418 230.46848 195.23355 230.46848Q196.23355 230.46848 197.04605 229.93723Q197.85855 229.40598 197.85855 228.31223Q197.85855 227.43723 197.2648 226.87473Q196.67105 226.2966 195.74918 226.2966Q194.8273 226.2966 194.2023 226.87473Q193.59293 227.45285 193.42105 228.62473L191.84293 228.34348Q192.12418 226.74973 193.15543 225.87473Q194.18668 224.99973 195.71793 224.99973Q196.7648 224.99973 197.65543 225.45285Q198.54605 225.90598 199.0148 226.68723Q199.48355 227.46848 199.48355 228.34348Q199.48355 229.18723 199.03043 229.87473Q198.59293 230.5466 197.7023 230.95285Q198.84293 231.21848 199.46793 232.06223Q200.10855 232.89035 200.10855 234.12473Q200.10855 235.81223 198.87418 236.99973Q197.65543 238.1716 195.78043 238.1716Q194.0773 238.1716 192.9523 237.15598Q191.84293 236.14035 191.67105 234.53098ZM201.96793 228.14035Q201.96793 226.76535 202.65543 225.7966Q203.35855 224.82785 204.67105 224.82785Q205.8898 224.82785 206.68668 225.70285Q207.48355 226.56223 207.48355 228.24973Q207.48355 229.87473 206.67105 230.76535Q205.87418 231.64035 204.68668 231.64035Q203.53043 231.64035 202.74918 230.78098Q201.96793 229.90598 201.96793 228.14035ZM204.71793 225.9216Q204.12418 225.9216 203.73355 226.43723Q203.34293 226.93723 203.34293 228.2966Q203.34293 229.5466 203.73355 230.0466Q204.1398 230.5466 204.71793 230.5466Q205.31168 230.5466 205.7023 230.0466Q206.09293 229.53098 206.09293 228.18723Q206.09293 226.93723 205.7023 226.43723Q205.31168 225.9216 204.71793 225.9216ZM204.73355 238.40598L211.78043 224.82785L213.06168 224.82785L206.03043 238.40598L204.73355 238.40598ZM210.29605 234.90598Q210.29605 233.53098 210.98355 232.56223Q211.68668 231.59348 213.0148 231.59348Q214.23355 231.59348 215.0148 232.46848Q215.81168 233.32785 215.81168 235.01535Q215.81168 236.64035 215.0148 237.53098Q214.21793 238.40598 213.03043 238.40598Q211.85855 238.40598 211.0773 237.53098Q210.29605 236.65598 210.29605 234.90598ZM213.06168 232.68723Q212.46793 232.68723 212.0773 233.20285Q211.68668 233.70285 211.68668 235.07785Q211.68668 236.2966 212.0773 236.81223Q212.46793 237.32785 213.04605 237.32785Q213.65543 237.32785 214.04605 236.81223Q214.43668 236.2966 214.43668 234.95285Q214.43668 233.70285 214.04605 233.20285Q213.65543 232.68723 213.06168 232.68723Z" fill-rule="nonzero"/><path fill="#ffffff" d="M211.51295 136.61816L211.51295 138.13379L202.99733 138.13379Q202.9817 137.55566 203.18483 137.04004Q203.51295 136.16504 204.21608 135.32129Q204.93483 134.47754 206.2942 133.36816Q208.38795 131.64941 209.12233 130.64941Q209.87233 129.63379 209.87233 128.74316Q209.87233 127.79004 209.20045 127.149414Q208.52858 126.50879 207.45045 126.50879Q206.2942 126.50879 205.6067 127.19629Q204.93483 127.88379 204.9192 129.08691L203.2942 128.91504Q203.46608 127.10254 204.5442 126.149414Q205.63795 125.19629 207.4817 125.19629Q209.32545 125.19629 210.40358 126.22754Q211.49733 127.25879 211.49733 128.77441Q211.49733 129.54004 211.1692 130.29004Q210.8567 131.04004 210.12233 131.86816Q209.38795 132.69629 207.68483 134.13379Q206.26295 135.33691 205.8567 135.75879Q205.45045 136.18066 205.20045 136.61816L211.51295 136.61816ZM213.20045 134.75879L214.8567 134.61816Q215.0442 135.83691 215.71608 136.44629Q216.38795 137.05566 217.34108 137.05566Q218.4817 137.05566 219.26295 136.19629Q220.05983 135.33691 220.05983 133.89941Q220.05983 132.55566 219.2942 131.77441Q218.5442 130.99316 217.30983 130.99316Q216.5442 130.99316 215.9192 131.33691Q215.30983 131.68066 214.96608 132.24316L213.4817 132.04004L214.7317 125.430664L221.13795 125.430664L221.13795 126.930664L215.99733 126.930664L215.2942 130.39941Q216.46608 129.58691 217.7317 129.58691Q219.4192 129.58691 220.57545 130.75879Q221.74733 131.93066 221.74733 133.75879Q221.74733 135.50879 220.71608 136.79004Q219.4817 138.35254 217.34108 138.35254Q215.57545 138.35254 214.46608 137.36816Q213.3567 136.38379 213.20045 134.75879ZM224.09108 138.13379L224.09108 136.33691L225.88795 136.33691L225.88795 138.13379L224.09108 138.13379ZM228.20045 131.77441Q228.20045 129.49316 228.6692 128.10254Q229.13795 126.711914 230.05983 125.961914Q230.99733 125.19629 232.40358 125.19629Q233.43483 125.19629 234.21608 125.618164Q234.99733 126.024414 235.49733 126.82129Q236.01295 127.60254 236.30983 128.74316Q236.6067 129.86816 236.6067 131.77441Q236.6067 134.04004 236.13795 135.44629Q235.6692 136.83691 234.7317 137.60254Q233.80983 138.35254 232.40358 138.35254Q230.52858 138.35254 229.46608 137.02441Q228.20045 135.41504 228.20045 131.77441ZM229.82545 131.77441Q229.82545 134.94629 230.55983 136.00879Q231.30983 137.05566 232.40358 137.05566Q233.4817 137.05566 234.2317 136.00879Q234.9817 134.94629 234.9817 131.77441Q234.9817 128.60254 234.2317 127.555664Q233.4817 126.50879 232.38795 126.50879Q231.2942 126.50879 230.63795 127.430664Q229.82545 128.60254 229.82545 131.77441ZM238.49733 128.33691Q238.49733 126.961914 239.18483 125.993164Q239.88795 125.024414 241.20045 125.024414Q242.4192 125.024414 243.21608 125.899414Q244.01295 126.75879 244.01295 128.44629Q244.01295 130.07129 243.20045 130.96191Q242.40358 131.83691 241.21608 131.83691Q240.05983 131.83691 239.27858 130.97754Q238.49733 130.10254 238.49733 128.33691ZM241.24733 126.118164Q240.65358 126.118164 240.26295 126.63379Q239.87233 127.13379 239.87233 128.49316Q239.87233 129.74316 240.26295 130.24316Q240.6692 130.74316 241.24733 130.74316Q241.84108 130.74316 242.2317 130.24316Q242.62233 129.72754 242.62233 128.38379Q242.62233 127.13379 242.2317 126.63379Q241.84108 126.118164 241.24733 126.118164ZM241.26295 138.60254L248.30983 125.024414L249.59108 125.024414L242.55983 138.60254L241.26295 138.60254ZM246.82545 135.10254Q246.82545 133.72754 247.51295 132.75879Q248.21608 131.79004 249.5442 131.79004Q250.76295 131.79004 251.5442 132.66504Q252.34108 133.52441 252.34108 135.21191Q252.34108 136.83691 251.5442 137.72754Q250.74733 138.60254 249.55983 138.60254Q248.38795 138.60254 247.6067 137.72754Q246.82545 136.85254 246.82545 135.10254ZM249.59108 132.88379Q248.99733 132.88379 248.6067 133.39941Q248.21608 133.89941 248.21608 135.27441Q248.21608 136.49316 248.6067 137.00879Q248.99733 137.52441 249.57545 137.52441Q250.18483 137.52441 250.57545 137.00879Q250.96608 136.49316 250.96608 135.14941Q250.96608 133.89941 250.57545 133.39941Q250.18483 132.88379 249.59108 132.88379Z" fill-rule="nonzero"/><path stroke="#ffffff" stroke-width="1.0" stroke-linejoin="round" stroke-linecap="round" d="M332.20892 185.0875C325.56528 173.58035 313.2873 166.49167 300.0 166.49167L300.0 54.916668C353.1492 54.916668 402.2611 83.27143 428.83572 129.3" fill-rule="nonzero"/><path stroke="#ffffff" stroke-width="1.0" stroke-linejoin="round" stroke-linecap="round" d="M332.20892 222.27916C338.85257 210.77202 338.85257 196.59464 332.20892 185.0875L428.83572 129.3C455.4103 175.32857 455.4103 232.0381 428.83572 278.06668" fill-rule="nonzero"/><path stroke="#ffffff" stroke-width="1.0" stroke-linejoin="round" stroke-linecap="round" d="M318.59583 235.89226C324.2497 232.628 328.94467 227.93301 332.20892 222.27916L428.83572 278.06668C415.77872 300.68207 396.99872 319.46204 374.38333 332.51904" fill-rule="nonzero"/><path stroke="#ffffff" stroke-width="1.0" stroke-linejoin="round" stroke-linecap="round" d="M267.79108 222.27916C278.06128 240.06767 300.80734 246.16246 318.59583 235.89226L374.38333 332.51904C303.22934 373.59982 212.24507 349.22067 171.16429 278.06668" fill-rule="nonzero"/><path stroke="#ffffff" stroke-width="1.0" stroke-linejoin="round" stroke-linecap="round" d="M262.80832 203.68333C262.80832 210.21184 264.52682 216.62532 267.79108 222.27916L171.16429 278.06668C158.10728 255.45128 151.23334 229.79733 151.23334 203.68333" fill-rule="nonzero"/><path stroke="#ffffff" stroke-width="1.0" stroke-linejoin="round" stroke-linecap="round" d="M300.0 166.49167C279.4596 166.49167 262.80832 183.14294 262.80832 203.68333L151.23334 203.68333C151.23334 121.521774 217.83844 54.916668 300.0 54.916668" fill-rule="nonzero"/><path fill="#efefef" d="M27.3 86.79598L28.815624 86.79598L28.815624 93.40536Q28.815624 95.13973 28.425 96.15536Q28.034374 97.17098 27.01875 97.81161Q26.003124 98.45223 24.346874 98.45223Q22.7375 98.45223 21.70625 97.88973Q20.690624 97.32723 20.253124 96.28036Q19.815624 95.23348 19.815624 93.40536L19.815624 86.79598L21.33125 86.79598L21.33125 93.40536Q21.33125 94.88973 21.596874 95.60848Q21.878124 96.31161 22.55 96.70223Q23.2375 97.07723 24.20625 97.07723Q25.878124 97.07723 26.58125 96.32723Q27.3 95.56161 27.3 93.40536L27.3 86.79598ZM31.596874 98.24911L31.596874 89.95223L32.8625 89.95223L32.8625 91.20223Q33.346874 90.32723 33.753124 90.04598Q34.159374 89.76473 34.659374 89.76473Q35.3625 89.76473 36.096874 90.21786L35.6125 91.51473Q35.096874 91.21786 34.58125 91.21786Q34.128124 91.21786 33.753124 91.49911Q33.39375 91.76473 33.2375 92.26473Q33.003124 93.01473 33.003124 93.90536L33.003124 98.24911L31.596874 98.24911ZM37.909374 98.24911L36.596874 98.24911L36.596874 86.79598L38.003124 86.79598L38.003124 90.87411Q38.89375 89.76473 40.284374 89.76473Q41.05 89.76473 41.721874 90.07723Q42.409374 90.37411 42.846874 90.93661Q43.3 91.49911 43.55 92.29598Q43.8 93.07723 43.8 93.96786Q43.8 96.10848 42.7375 97.28036Q41.690624 98.43661 40.20625 98.43661Q38.7375 98.43661 37.909374 97.20223L37.909374 98.24911ZM37.89375 94.03036Q37.89375 95.53036 38.3 96.18661Q38.95625 97.28036 40.096874 97.28036Q41.01875 97.28036 41.690624 96.48348Q42.3625 95.67098 42.3625 94.09286Q42.3625 92.46786 41.70625 91.70223Q41.065624 90.92098 40.159374 90.92098Q39.2375 90.92098 38.565624 91.71786Q37.89375 92.51473 37.89375 94.03036ZM51.01875 97.21786Q50.2375 97.88973 49.51875 98.17098Q48.8 98.43661 47.971874 98.43661Q46.596874 98.43661 45.8625 97.76473Q45.128124 97.09286 45.128124 96.06161Q45.128124 95.45223 45.409374 94.95223Q45.690624 94.43661 46.128124 94.13973Q46.58125 93.82723 47.14375 93.67098Q47.565624 93.56161 48.39375 93.46786Q50.096874 93.26473 50.909374 92.98348Q50.909374 92.68661 50.909374 92.60848Q50.909374 91.74911 50.51875 91.40536Q49.971874 90.92098 48.909374 90.92098Q47.925 90.92098 47.440624 91.28036Q46.971874 91.62411 46.753124 92.49911L45.378124 92.31161Q45.565624 91.43661 45.9875 90.88973Q46.425 90.34286 47.2375 90.06161Q48.05 89.76473 49.1125 89.76473Q50.175 89.76473 50.83125 90.01473Q51.503124 90.26473 51.815624 90.63973Q52.128124 91.01473 52.253124 91.59286Q52.33125 91.95223 52.33125 92.88973L52.33125 94.76473Q52.33125 96.73348 52.409374 97.24911Q52.503124 97.76473 52.76875 98.24911L51.3 98.24911Q51.08125 97.81161 51.01875 97.21786ZM50.909374 94.07723Q50.14375 94.38973 48.6125 94.60848Q47.7375 94.73348 47.378124 94.88973Q47.01875 95.04598 46.815624 95.35848Q46.628124 95.65536 46.628124 96.01473Q46.628124 96.57723 47.05 96.95223Q47.4875 97.32723 48.3 97.32723Q49.1125 97.32723 49.7375 96.98348Q50.378124 96.62411 50.675 95.99911Q50.909374 95.53036 50.909374 94.59286L50.909374 94.07723ZM54.6125 98.24911L54.6125 89.95223L55.878124 89.95223L55.878124 91.12411Q56.784374 89.76473 58.51875 89.76473Q59.26875 89.76473 59.89375 90.03036Q60.51875 90.29598 60.83125 90.73348Q61.14375 91.17098 61.26875 91.78036Q61.346874 92.17098 61.346874 93.13973L61.346874 98.24911L59.940624 98.24911L59.940624 93.20223Q59.940624 92.34286 59.76875 91.92098Q59.6125 91.48348 59.190624 91.23348Q58.784374 90.98348 58.221874 90.98348Q57.315624 90.98348 56.659374 91.56161Q56.01875 92.12411 56.01875 93.71786L56.01875 98.24911L54.6125 98.24911ZM63.05 95.76473L64.44063 95.54598Q64.55 96.38973 65.08125 96.84286Q65.62813 97.28036 66.58125 97.28036Q67.55 97.28036 68.01875 96.88973Q68.4875 96.48348 68.4875 95.95223Q68.4875 95.48348 68.08125 95.20223Q67.78438 95.01473 66.64375 94.73348Q65.09688 94.34286 64.4875 94.06161Q63.89375 93.76473 63.58125 93.26473Q63.284374 92.76473 63.284374 92.15536Q63.284374 91.59286 63.534374 91.12411Q63.784374 90.65536 64.22188 90.34286Q64.55 90.09286 65.1125 89.93661Q65.69063 89.76473 66.33125 89.76473Q67.31563 89.76473 68.05 90.04598Q68.78438 90.32723 69.12813 90.81161Q69.4875 91.28036 69.62813 92.09286L68.25313 92.28036Q68.15938 91.63973 67.70625 91.28036Q67.25313 90.92098 66.44063 90.92098Q65.47188 90.92098 65.05 91.24911Q64.64375 91.56161 64.64375 91.98348Q64.64375 92.26473 64.81563 92.48348Q64.9875 92.70223 65.34688 92.85848Q65.56563 92.93661 66.59688 93.21786Q68.08125 93.60848 68.675 93.87411Q69.26875 94.12411 69.59688 94.60848Q69.94063 95.09286 69.94063 95.81161Q69.94063 96.51473 69.51875 97.13973Q69.1125 97.74911 68.33125 98.09286Q67.56563 98.43661 66.59688 98.43661Q64.97188 98.43661 64.12813 97.76473Q63.284374 97.09286 63.05 95.76473ZM77.01875 95.20223L78.40938 95.38973Q78.175 96.81161 77.2375 97.62411Q76.31563 98.43661 74.95625 98.43661Q73.25313 98.43661 72.20625 97.32723Q71.175 96.20223 71.175 94.12411Q71.175 92.78036 71.6125 91.78036Q72.06563 90.76473 72.97188 90.26473Q73.89375 89.76473 74.95625 89.76473Q76.31563 89.76473 77.175 90.45223Q78.03438 91.12411 78.26875 92.38973L76.90938 92.59286Q76.70625 91.76473 76.20625 91.34286Q75.72188 90.92098 75.01875 90.92098Q73.95625 90.92098 73.28438 91.68661Q72.62813 92.43661 72.62813 94.09286Q72.62813 95.76473 73.26875 96.53036Q73.90938 97.28036 74.94063 97.28036Q75.76875 97.28036 76.31563 96.78036Q76.87813 96.26473 77.01875 95.20223ZM85.01875 97.21786Q84.2375 97.88973 83.51875 98.17098Q82.8 98.43661 81.97188 98.43661Q80.59688 98.43661 79.8625 97.76473Q79.12813 97.09286 79.12813 96.06161Q79.12813 95.45223 79.40938 94.95223Q79.69063 94.43661 80.12813 94.13973Q80.58125 93.82723 81.14375 93.67098Q81.56563 93.56161 82.39375 93.46786Q84.09688 93.26473 84.90938 92.98348Q84.90938 92.68661 84.90938 92.60848Q84.90938 91.74911 84.51875 91.40536Q83.97188 90.92098 82.90938 90.92098Q81.925 90.92098 81.44063 91.28036Q80.97188 91.62411 80.75313 92.49911L79.37813 92.31161Q79.56563 91.43661 79.9875 90.88973Q80.425 90.34286 81.2375 90.06161Q82.05 89.76473 83.1125 89.76473Q84.175 89.76473 84.83125 90.01473Q85.50313 90.26473 85.81563 90.63973Q86.12813 91.01473 86.25313 91.59286Q86.33125 91.95223 86.33125 92.88973L86.33125 94.76473Q86.33125 96.73348 86.40938 97.24911Q86.50313 97.76473 86.76875 98.24911L85.3 98.24911Q85.08125 97.81161 85.01875 97.21786ZM84.90938 94.07723Q84.14375 94.38973 82.6125 94.60848Q81.7375 94.73348 81.37813 94.88973Q81.01875 95.04598 80.81563 95.35848Q80.62813 95.65536 80.62813 96.01473Q80.62813 96.57723 81.05 96.95223Q81.4875 97.32723 82.3 97.32723Q83.1125 97.32723 83.7375 96.98348Q84.37813 96.62411 84.675 95.99911Q84.90938 95.53036 84.90938 94.59286L84.90938 94.07723ZM88.6125 101.43661L88.6125 89.95223L89.89375 89.95223L89.89375 91.03036Q90.34688 90.38973 90.90938 90.07723Q91.4875 89.76473 92.3 89.76473Q93.3625 89.76473 94.175 90.31161Q94.9875 90.85848 95.39375 91.85848Q95.81563 92.84286 95.81563 94.03036Q95.81563 95.31161 95.34688 96.32723Q94.89375 97.34286 94.01875 97.88973Q93.15938 98.43661 92.19063 98.43661Q91.4875 98.43661 90.925 98.13973Q90.37813 97.84286 90.01875 97.38973L90.01875 101.43661L88.6125 101.43661ZM89.87813 94.13973Q89.87813 95.74911 90.51875 96.51473Q91.175 97.28036 92.09688 97.28036Q93.03438 97.28036 93.70625 96.48348Q94.37813 95.68661 94.37813 94.03036Q94.37813 92.43661 93.72188 91.65536Q93.06563 90.85848 92.15938 90.85848Q91.26875 90.85848 90.56563 91.70223Q89.87813 92.54598 89.87813 94.13973ZM103.28438 95.57723L104.7375 95.74911Q104.39375 97.03036 103.45625 97.73348Q102.53438 98.43661 101.09688 98.43661Q99.26875 98.43661 98.20625 97.31161Q97.14375 96.18661 97.14375 94.17098Q97.14375 92.07723 98.22188 90.92098Q99.3 89.76473 101.01875 89.76473Q102.675 89.76473 103.72188 90.90536Q104.78438 92.03036 104.78438 94.07723Q104.78438 94.20223 104.78438 94.45223L98.59688 94.45223Q98.675 95.82723 99.3625 96.56161Q100.06563 97.28036 101.09688 97.28036Q101.87813 97.28036 102.425 96.87411Q102.97188 96.46786 103.28438 95.57723ZM98.675 93.29598L103.3 93.29598Q103.20625 92.24911 102.76875 91.73348Q102.09688 90.92098 101.03438 90.92098Q100.06563 90.92098 99.39375 91.57723Q98.7375 92.21786 98.675 93.29598Z" fill-rule="nonzero"/><path fill="#9e9e9e" d="M26.6125 118.88973L26.6125 120.24911L19.034374 120.24911Q19.01875 119.73348 19.20625 119.26473Q19.4875 118.49911 20.128124 117.74911Q20.76875 116.99911 21.971874 116.01473Q23.83125 114.48348 24.4875 113.59286Q25.14375 112.68661 25.14375 111.88973Q25.14375 111.06161 24.55 110.48348Q23.95625 109.90536 22.9875 109.90536Q21.971874 109.90536 21.3625 110.51473Q20.753124 111.12411 20.753124 112.20223L19.3 112.06161Q19.45625 110.43661 20.425 109.59286Q21.39375 108.74911 23.01875 108.74911Q24.675 108.74911 25.628124 109.67098Q26.596874 110.57723 26.596874 111.92098Q26.596874 112.60848 26.315624 113.28036Q26.034374 113.93661 25.378124 114.67098Q24.721874 115.40536 23.20625 116.68661Q21.940624 117.74911 21.58125 118.13973Q21.221874 118.51473 20.9875 118.88973L26.6125 118.88973ZM28.221874 117.24911L29.690624 117.12411Q29.8625 118.20223 30.45625 118.74911Q31.05 119.28036 31.89375 119.28036Q32.909374 119.28036 33.6125 118.51473Q34.315624 117.74911 34.315624 116.48348Q34.315624 115.28036 33.64375 114.59286Q32.971874 113.88973 31.878124 113.88973Q31.190624 113.88973 30.64375 114.20223Q30.096874 114.51473 29.784374 114.99911L28.471874 114.82723L29.58125 108.95223L35.26875 108.95223L35.26875 110.29598L30.70625 110.29598L30.08125 113.37411Q31.1125 112.65536 32.253124 112.65536Q33.753124 112.65536 34.784374 113.70223Q35.815624 114.73348 35.815624 116.35848Q35.815624 117.92098 34.909374 119.04598Q33.8 120.45223 31.89375 120.45223Q30.33125 120.45223 29.346874 119.57723Q28.3625 118.68661 28.221874 117.24911ZM38.003124 120.24911L38.003124 118.63973L39.6125 118.63973L39.6125 120.24911L38.003124 120.24911ZM41.221874 114.59286Q41.221874 112.56161 41.628124 111.32723Q42.05 110.09286 42.878124 109.42098Q43.70625 108.74911 44.95625 108.74911Q45.878124 108.74911 46.565624 109.12411Q47.26875 109.48348 47.721874 110.18661Q48.175 110.88973 48.425 111.88973Q48.690624 112.88973 48.690624 114.59286Q48.690624 116.60848 48.26875 117.85848Q47.8625 119.09286 47.034374 119.78036Q46.20625 120.45223 44.95625 120.45223Q43.3 120.45223 42.346874 119.24911Q41.221874 117.82723 41.221874 114.59286ZM42.659374 114.59286Q42.659374 117.42098 43.315624 118.35848Q43.9875 119.28036 44.95625 119.28036Q45.925 119.28036 46.58125 118.34286Q47.2375 117.40536 47.2375 114.59286Q47.2375 111.76473 46.58125 110.84286Q45.925 109.90536 44.940624 109.90536Q43.971874 109.90536 43.39375 110.73348Q42.659374 111.78036 42.659374 114.59286ZM50.4875 111.54598Q50.4875 110.31161 51.096874 109.45223Q51.721874 108.59286 52.89375 108.59286Q53.971874 108.59286 54.675 109.37411Q55.378124 110.13973 55.378124 111.62411Q55.378124 113.07723 54.659374 113.87411Q53.95625 114.65536 52.909374 114.65536Q51.8625 114.65536 51.175 113.88973Q50.4875 113.10848 50.4875 111.54598ZM52.925 109.56161Q52.409374 109.56161 52.05 110.01473Q51.70625 110.46786 51.70625 111.68661Q51.70625 112.78036 52.05 113.23348Q52.409374 113.68661 52.925 113.68661Q53.45625 113.68661 53.8 113.23348Q54.159374 112.78036 54.159374 111.57723Q54.159374 110.46786 53.8 110.01473Q53.45625 109.56161 52.925 109.56161ZM52.940624 120.67098L59.20625 108.59286L60.346874 108.59286L54.096874 120.67098L52.940624 120.67098ZM57.89375 117.56161Q57.89375 116.32723 58.503124 115.46786Q59.128124 114.60848 60.3 114.60848Q61.378124 114.60848 62.08125 115.38973Q62.8 116.15536 62.8 117.63973Q62.8 119.09286 62.08125 119.88973Q61.3625 120.67098 60.315624 120.67098Q59.26875 120.67098 58.58125 119.88973Q57.89375 119.10848 57.89375 117.56161ZM60.346874 115.57723Q59.815624 115.57723 59.45625 116.03036Q59.1125 116.48348 59.1125 117.70223Q59.1125 118.79598 59.45625 119.24911Q59.815624 119.70223 60.33125 119.70223Q60.878124 119.70223 61.221874 119.24911Q61.565624 118.79598 61.565624 117.59286Q61.565624 116.48348 61.20625 116.03036Q60.8625 115.57723 60.346874 115.57723Z" fill-rule="nonzero"/><path stroke="#757575" stroke-width="1.0" stroke-linecap="butt" d="M18.55 103.74911L145.23334 103.74911L200.06578 103.74911" fill-rule="nonzero"/><path fill="#9e9e9e" d="M202.06578 103.74911C202.06578 102.64454 201.17035 101.74911 200.06578 101.74911C198.96121 101.74911 198.06578 102.64454 198.06578 103.74911C198.06578 104.85368 198.96121 105.74911 200.06578 105.74911C201.17035 105.74911 202.06578 104.85368 202.06578 103.74911" fill-rule="nonzero"/><path fill="#efefef" d="M19.76875 234.7618L19.76875 223.30867L21.33125 223.30867L27.346874 232.29305L27.346874 223.30867L28.8 223.30867L28.8 234.7618L27.2375 234.7618L21.221874 225.7618L21.221874 234.7618L19.76875 234.7618ZM37.01875 233.73055Q36.2375 234.40242 35.51875 234.68367Q34.8 234.9493 33.971874 234.9493Q32.596874 234.9493 31.8625 234.27742Q31.128124 233.60555 31.128124 232.5743Q31.128124 231.96492 31.409374 231.46492Q31.690624 230.9493 32.128124 230.65242Q32.58125 230.33992 33.14375 230.18367Q33.565624 230.0743 34.39375 229.98055Q36.096874 229.77742 36.909374 229.49617Q36.909374 229.1993 36.909374 229.12117Q36.909374 228.2618 36.51875 227.91805Q35.971874 227.43367 34.909374 227.43367Q33.925 227.43367 33.440624 227.79305Q32.971874 228.1368 32.753124 229.0118L31.378124 228.8243Q31.565624 227.9493 31.9875 227.40242Q32.425 226.85555 33.2375 226.5743Q34.05 226.27742 35.1125 226.27742Q36.175 226.27742 36.83125 226.52742Q37.503124 226.77742 37.815624 227.15242Q38.128124 227.52742 38.253124 228.10555Q38.33125 228.46492 38.33125 229.40242L38.33125 231.27742Q38.33125 233.24617 38.409374 233.7618Q38.503124 234.27742 38.76875 234.7618L37.3 234.7618Q37.08125 234.3243 37.01875 233.73055ZM36.909374 230.58992Q36.14375 230.90242 34.6125 231.12117Q33.7375 231.24617 33.378124 231.40242Q33.01875 231.55867 32.815624 231.87117Q32.628124 232.16805 32.628124 232.52742Q32.628124 233.08992 33.05 233.46492Q33.4875 233.83992 34.3 233.83992Q35.1125 233.83992 35.7375 233.49617Q36.378124 233.1368 36.675 232.5118Q36.909374 232.04305 36.909374 231.10555L36.909374 230.58992ZM43.675 233.49617L43.878124 234.74617Q43.284374 234.87117 42.815624 234.87117Q42.05 234.87117 41.628124 234.6368Q41.20625 234.3868 41.034374 233.99617Q40.8625 233.58992 40.8625 232.3243L40.8625 227.55867L39.83125 227.55867L39.83125 226.46492L40.8625 226.46492L40.8625 224.40242L42.26875 223.55867L42.26875 226.46492L43.675 226.46492L43.675 227.55867L42.26875 227.55867L42.26875 232.40242Q42.26875 233.0118 42.33125 233.18367Q42.409374 233.35555 42.58125 233.46492Q42.753124 233.55867 43.065624 233.55867Q43.3 233.55867 43.675 233.49617ZM50.05 234.7618L50.05 233.54305Q49.08125 234.9493 47.409374 234.9493Q46.675 234.9493 46.034374 234.66805Q45.409374 234.3868 45.096874 233.96492Q44.784374 233.52742 44.659374 232.91805Q44.58125 232.49617 44.58125 231.60555L44.58125 226.46492L45.9875 226.46492L45.9875 231.05867Q45.9875 232.16805 46.065624 232.54305Q46.20625 233.10555 46.628124 233.41805Q47.065624 233.73055 47.690624 233.73055Q48.33125 233.73055 48.878124 233.41805Q49.440624 233.08992 49.659374 232.52742Q49.89375 231.96492 49.89375 230.90242L49.89375 226.46492L51.3 226.46492L51.3 234.7618L50.05 234.7618ZM53.596874 234.7618L53.596874 226.46492L54.8625 226.46492L54.8625 227.71492Q55.346874 226.83992 55.753124 226.55867Q56.159374 226.27742 56.659374 226.27742Q57.3625 226.27742 58.096874 226.73055L57.6125 228.02742Q57.096874 227.73055 56.58125 227.73055Q56.128124 227.73055 55.753124 228.0118Q55.39375 228.27742 55.2375 228.77742Q55.003124 229.52742 55.003124 230.41805L55.003124 234.7618L53.596874 234.7618ZM64.28438 232.08992L65.7375 232.2618Q65.39375 233.54305 64.45625 234.24617Q63.534374 234.9493 62.096874 234.9493Q60.26875 234.9493 59.20625 233.8243Q58.14375 232.6993 58.14375 230.68367Q58.14375 228.58992 59.221874 227.43367Q60.3 226.27742 62.01875 226.27742Q63.675 226.27742 64.72188 227.41805Q65.78438 228.54305 65.78438 230.58992Q65.78438 230.71492 65.78438 230.96492L59.596874 230.96492Q59.675 232.33992 60.3625 233.0743Q61.065624 233.79305 62.096874 233.79305Q62.878124 233.79305 63.425 233.3868Q63.971874 232.98055 64.28438 232.08992ZM59.675 229.80867L64.3 229.80867Q64.20625 228.7618 63.76875 228.24617Q63.096874 227.43367 62.034374 227.43367Q61.065624 227.43367 60.39375 228.08992Q59.7375 228.73055 59.675 229.80867ZM67.05 232.27742L68.44063 232.05867Q68.55 232.90242 69.08125 233.35555Q69.62813 233.79305 70.58125 233.79305Q71.55 233.79305 72.01875 233.40242Q72.4875 232.99617 72.4875 232.46492Q72.4875 231.99617 72.08125 231.71492Q71.78438 231.52742 70.64375 231.24617Q69.09688 230.85555 68.4875 230.5743Q67.89375 230.27742 67.58125 229.77742Q67.28438 229.27742 67.28438 228.66805Q67.28438 228.10555 67.53438 227.6368Q67.78438 227.16805 68.22188 226.85555Q68.55 226.60555 69.1125 226.4493Q69.69063 226.27742 70.33125 226.27742Q71.31563 226.27742 72.05 226.55867Q72.78438 226.83992 73.12813 227.3243Q73.4875 227.79305 73.62813 228.60555L72.25313 228.79305Q72.15938 228.15242 71.70625 227.79305Q71.25313 227.43367 70.44063 227.43367Q69.47188 227.43367 69.05 227.7618Q68.64375 228.0743 68.64375 228.49617Q68.64375 228.77742 68.81563 228.99617Q68.9875 229.21492 69.34688 229.37117Q69.56563 229.4493 70.59688 229.73055Q72.08125 230.12117 72.675 230.3868Q73.26875 230.6368 73.59688 231.12117Q73.94063 231.60555 73.94063 232.3243Q73.94063 233.02742 73.51875 233.65242Q73.1125 234.2618 72.33125 234.60555Q71.56563 234.9493 70.59688 234.9493Q68.97188 234.9493 68.12813 234.27742Q67.28438 233.60555 67.05 232.27742ZM81.01875 231.71492L82.40938 231.90242Q82.175 233.3243 81.2375 234.1368Q80.31563 234.9493 78.95625 234.9493Q77.25313 234.9493 76.20625 233.83992Q75.175 232.71492 75.175 230.6368Q75.175 229.29305 75.6125 228.29305Q76.06563 227.27742 76.97188 226.77742Q77.89375 226.27742 78.95625 226.27742Q80.31563 226.27742 81.175 226.96492Q82.03438 227.6368 82.26875 228.90242L80.90938 229.10555Q80.70625 228.27742 80.20625 227.85555Q79.72188 227.43367 79.01875 227.43367Q77.95625 227.43367 77.28438 228.1993Q76.62813 228.9493 76.62813 230.60555Q76.62813 232.27742 77.26875 233.04305Q77.90938 233.79305 78.94063 233.79305Q79.76875 233.79305 80.31563 233.29305Q80.87813 232.77742 81.01875 231.71492ZM89.01875 233.73055Q88.2375 234.40242 87.51875 234.68367Q86.8 234.9493 85.97188 234.9493Q84.59688 234.9493 83.8625 234.27742Q83.12813 233.60555 83.12813 232.5743Q83.12813 231.96492 83.40938 231.46492Q83.69063 230.9493 84.12813 230.65242Q84.58125 230.33992 85.14375 230.18367Q85.56563 230.0743 86.39375 229.98055Q88.09688 229.77742 88.90938 229.49617Q88.90938 229.1993 88.90938 229.12117Q88.90938 228.2618 88.51875 227.91805Q87.97188 227.43367 86.90938 227.43367Q85.925 227.43367 85.44063 227.79305Q84.97188 228.1368 84.75313 229.0118L83.37813 228.8243Q83.56563 227.9493 83.9875 227.40242Q84.425 226.85555 85.2375 226.5743Q86.05 226.27742 87.1125 226.27742Q88.175 226.27742 88.83125 226.52742Q89.50313 226.77742 89.81563 227.15242Q90.12813 227.52742 90.25313 228.10555Q90.33125 228.46492 90.33125 229.40242L90.33125 231.27742Q90.33125 233.24617 90.40938 233.7618Q90.50313 234.27742 90.76875 234.7618L89.3 234.7618Q89.08125 234.3243 89.01875 233.73055ZM88.90938 230.58992Q88.14375 230.90242 86.6125 231.12117Q85.7375 231.24617 85.37813 231.40242Q85.01875 231.55867 84.81563 231.87117Q84.62813 232.16805 84.62813 232.52742Q84.62813 233.08992 85.05 233.46492Q85.4875 233.83992 86.3 233.83992Q87.1125 233.83992 87.7375 233.49617Q88.37813 233.1368 88.675 232.5118Q88.90938 232.04305 88.90938 231.10555L88.90938 230.58992ZM92.6125 237.9493L92.6125 226.46492L93.89375 226.46492L93.89375 227.54305Q94.34688 226.90242 94.90938 226.58992Q95.4875 226.27742 96.3 226.27742Q97.3625 226.27742 98.175 226.8243Q98.9875 227.37117 99.39375 228.37117Q99.81563 229.35555 99.81563 230.54305Q99.81563 231.8243 99.34688 232.83992Q98.89375 233.85555 98.01875 234.40242Q97.15938 234.9493 96.19063 234.9493Q95.4875 234.9493 94.925 234.65242Q94.37813 234.35555 94.01875 233.90242L94.01875 237.9493L92.6125 237.9493ZM93.87813 230.65242Q93.87813 232.2618 94.51875 233.02742Q95.175 233.79305 96.09688 233.79305Q97.03438 233.79305 97.70625 232.99617Q98.37813 232.1993 98.37813 230.54305Q98.37813 228.9493 97.72188 228.16805Q97.06563 227.37117 96.15938 227.37117Q95.26875 227.37117 94.56563 228.21492Q93.87813 229.05867 93.87813 230.65242ZM107.28438 232.08992L108.7375 232.2618Q108.39375 233.54305 107.45625 234.24617Q106.53438 234.9493 105.09688 234.9493Q103.26875 234.9493 102.20625 233.8243Q101.14375 232.6993 101.14375 230.68367Q101.14375 228.58992 102.22188 227.43367Q103.3 226.27742 105.01875 226.27742Q106.675 226.27742 107.72188 227.41805Q108.78438 228.54305 108.78438 230.58992Q108.78438 230.71492 108.78438 230.96492L102.59688 230.96492Q102.675 232.33992 103.3625 233.0743Q104.06563 233.79305 105.09688 233.79305Q105.87813 233.79305 106.425 233.3868Q106.97188 232.98055 107.28438 232.08992ZM102.675 229.80867L107.3 229.80867Q107.20625 228.7618 106.76875 228.24617Q106.09688 227.43367 105.03438 227.43367Q104.06563 227.43367 103.39375 228.08992Q102.7375 228.73055 102.675 229.80867Z" fill-rule="nonzero"/><path fill="#9e9e9e" d="M21.378124 250.54306Q20.503124 250.23056 20.08125 249.63681Q19.659374 249.04306 19.659374 248.21494Q19.659374 246.96494 20.55 246.12119Q21.45625 245.26181 22.95625 245.26181Q24.45625 245.26181 25.3625 246.13681Q26.284374 246.99619 26.284374 248.24619Q26.284374 249.04306 25.8625 249.63681Q25.440624 250.23056 24.596874 250.54306Q25.64375 250.88681 26.190624 251.65244Q26.753124 252.41806 26.753124 253.48056Q26.753124 254.94931 25.70625 255.96494Q24.675 256.96494 22.971874 256.96494Q21.284374 256.96494 20.2375 255.96494Q19.20625 254.94931 19.20625 253.44931Q19.20625 252.32431 19.76875 251.57431Q20.33125 250.82431 21.378124 250.54306ZM21.096874 248.16806Q21.096874 248.98056 21.6125 249.49619Q22.14375 250.01181 22.9875 250.01181Q23.8 250.01181 24.315624 249.49619Q24.83125 248.98056 24.83125 248.24619Q24.83125 247.46494 24.3 246.94931Q23.76875 246.41806 22.971874 246.41806Q22.159374 246.41806 21.628124 246.93369Q21.096874 247.44931 21.096874 248.16806ZM20.64375 253.44931Q20.64375 254.05869 20.925 254.62119Q21.221874 255.18369 21.784374 255.49619Q22.346874 255.79306 22.9875 255.79306Q24.003124 255.79306 24.659374 255.15244Q25.315624 254.49619 25.315624 253.49619Q25.315624 252.48056 24.628124 251.82431Q23.95625 251.15244 22.940624 251.15244Q21.95625 251.15244 21.3 251.80869Q20.64375 252.46494 20.64375 253.44931ZM29.003124 256.7618L29.003124 255.15244L30.6125 255.15244L30.6125 256.7618L29.003124 256.7618ZM32.221874 253.73056L33.628124 253.54306Q33.878124 254.74619 34.45625 255.27744Q35.034374 255.79306 35.878124 255.79306Q36.8625 255.79306 37.55 255.10556Q38.2375 254.41806 38.2375 253.40244Q38.2375 252.43369 37.596874 251.80869Q36.971874 251.18369 35.9875 251.18369Q35.596874 251.18369 35.003124 251.33994L35.159374 250.10556Q35.3 250.12119 35.378124 250.12119Q36.284374 250.12119 37.003124 249.65244Q37.721874 249.18369 37.721874 248.19931Q37.721874 247.43369 37.190624 246.93369Q36.675 246.41806 35.846874 246.41806Q35.01875 246.41806 34.471874 246.93369Q33.925 247.44931 33.76875 248.48056L32.3625 248.23056Q32.628124 246.80869 33.534374 246.04306Q34.45625 245.26181 35.815624 245.26181Q36.753124 245.26181 37.534374 245.66806Q38.33125 246.05869 38.7375 246.76181Q39.159374 247.44931 39.159374 248.23056Q39.159374 248.98056 38.753124 249.58994Q38.3625 250.19931 37.58125 250.55869Q38.596874 250.79306 39.159374 251.52744Q39.721874 252.26181 39.721874 253.37119Q39.721874 254.87119 38.628124 255.91806Q37.534374 256.96494 35.8625 256.96494Q34.3625 256.96494 33.3625 256.0743Q32.3625 255.16806 32.221874 253.73056ZM41.4875 248.05869Q41.4875 246.82431 42.096874 245.96494Q42.721874 245.10556 43.89375 245.10556Q44.971874 245.10556 45.675 245.88681Q46.378124 246.65244 46.378124 248.13681Q46.378124 249.58994 45.659374 250.38681Q44.95625 251.16806 43.909374 251.16806Q42.8625 251.16806 42.175 250.40244Q41.4875 249.62119 41.4875 248.05869ZM43.925 246.07431Q43.409374 246.07431 43.05 246.52744Q42.70625 246.98056 42.70625 248.19931Q42.70625 249.29306 43.05 249.74619Q43.409374 250.19931 43.925 250.19931Q44.45625 250.19931 44.8 249.74619Q45.159374 249.29306 45.159374 248.08994Q45.159374 246.98056 44.8 246.52744Q44.45625 246.07431 43.925 246.07431ZM43.940624 257.1837L50.20625 245.10556L51.346874 245.10556L45.096874 257.1837L43.940624 257.1837ZM48.89375 254.07431Q48.89375 252.83994 49.503124 251.98056Q50.128124 251.12119 51.3 251.12119Q52.378124 251.12119 53.08125 251.90244Q53.8 252.66806 53.8 254.15244Q53.8 255.60556 53.08125 256.40244Q52.3625 257.1837 51.315624 257.1837Q50.26875 257.1837 49.58125 256.40244Q48.89375 255.62119 48.89375 254.07431ZM51.346874 252.08994Q50.815624 252.08994 50.45625 252.54306Q50.1125 252.99619 50.1125 254.21494Q50.1125 255.30869 50.45625 255.76181Q50.815624 256.21494 51.33125 256.21494Q51.878124 256.21494 52.221874 255.76181Q52.565624 255.30869 52.565624 254.10556Q52.565624 252.99619 52.20625 252.54306Q51.8625 252.08994 51.346874 252.08994Z" fill-rule="nonzero"/><path stroke="#757575" stroke-width="1.0" stroke-linecap="butt" d="M18.55 240.2618L145.23334 240.2618L163.48732 240.2618" fill-rule="nonzero"/><path fill="#9e9e9e" d="M165.48732 240.2618C165.48732 239.15723 164.59189 238.2618 163.48732 238.2618C162.38274 238.2618 161.48732 239.15723 161.48732 240.2618C161.48732 241.36636 162.38274 242.2618 163.48732 242.2618C164.59189 242.2618 165.48732 241.36636 165.48732 240.2618" fill-rule="nonzero"/><path fill="#efefef" d="M19.784374 326.45L19.784374 314.9969L24.1125 314.9969Q25.253124 314.9969 25.846874 315.10626Q26.690624 315.2469 27.253124 315.6375Q27.83125 316.02814 28.175 316.7469Q28.534374 317.45 28.534374 318.3094Q28.534374 319.7625 27.596874 320.77814Q26.675 321.79376 24.2375 321.79376L21.3 321.79376L21.3 326.45L19.784374 326.45ZM21.3 320.4344L24.26875 320.4344Q25.7375 320.4344 26.346874 319.8875Q26.971874 319.34064 26.971874 318.35626Q26.971874 317.6375 26.596874 317.1219Q26.2375 316.60626 25.64375 316.45Q25.26875 316.34064 24.2375 316.34064L21.3 316.34064L21.3 320.4344ZM36.284374 323.77814L37.7375 323.95Q37.39375 325.23126 36.45625 325.9344Q35.534374 326.6375 34.096874 326.6375Q32.26875 326.6375 31.20625 325.5125Q30.14375 324.3875 30.14375 322.3719Q30.14375 320.27814 31.221874 319.1219Q32.3 317.96564 34.01875 317.96564Q35.675 317.96564 36.721874 319.10626Q37.784374 320.23126 37.784374 322.27814Q37.784374 322.40314 37.784374 322.65314L31.596874 322.65314Q31.675 324.02814 32.3625 324.7625Q33.065624 325.48126 34.096874 325.48126Q34.878124 325.48126 35.425 325.075Q35.971874 324.66876 36.284374 323.77814ZM31.675 321.4969L36.3 321.4969Q36.20625 320.45 35.76875 319.9344Q35.096874 319.1219 34.034374 319.1219Q33.065624 319.1219 32.39375 319.77814Q31.7375 320.41876 31.675 321.4969ZM39.08125 322.29376Q39.08125 319.9969 40.3625 318.8875Q41.440624 317.96564 42.971874 317.96564Q44.690624 317.96564 45.76875 319.09064Q46.8625 320.2 46.8625 322.1844Q46.8625 323.77814 46.378124 324.7Q45.89375 325.6219 44.971874 326.1375Q44.065624 326.6375 42.971874 326.6375Q41.2375 326.6375 40.159374 325.52814Q39.08125 324.40314 39.08125 322.29376ZM40.534374 322.29376Q40.534374 323.8875 41.221874 324.6844Q41.925 325.48126 42.971874 325.48126Q44.01875 325.48126 44.70625 324.6844Q45.409374 323.8875 45.409374 322.2469Q45.409374 320.71564 44.70625 319.91876Q44.01875 319.1219 42.971874 319.1219Q41.925 319.1219 41.221874 319.91876Q40.534374 320.7 40.534374 322.29376ZM48.6125 329.6375L48.6125 318.15314L49.89375 318.15314L49.89375 319.23126Q50.346874 318.59064 50.909374 318.27814Q51.4875 317.96564 52.3 317.96564Q53.3625 317.96564 54.175 318.5125Q54.9875 319.0594 55.39375 320.0594Q55.815624 321.04376 55.815624 322.23126Q55.815624 323.5125 55.346874 324.52814Q54.89375 325.54376 54.01875 326.09064Q53.159374 326.6375 52.190624 326.6375Q51.4875 326.6375 50.925 326.34064Q50.378124 326.04376 50.01875 325.59064L50.01875 329.6375L48.6125 329.6375ZM49.878124 322.34064Q49.878124 323.95 50.51875 324.71564Q51.175 325.48126 52.096874 325.48126Q53.034374 325.48126 53.70625 324.6844Q54.378124 323.8875 54.378124 322.23126Q54.378124 320.6375 53.721874 319.85626Q53.065624 319.0594 52.159374 319.0594Q51.26875 319.0594 50.565624 319.90314Q49.878124 320.7469 49.878124 322.34064ZM57.58125 326.45L57.58125 314.9969L58.9875 314.9969L58.9875 326.45L57.58125 326.45ZM67.28438 323.77814L68.7375 323.95Q68.39375 325.23126 67.45625 325.9344Q66.53438 326.6375 65.09688 326.6375Q63.26875 326.6375 62.20625 325.5125Q61.14375 324.3875 61.14375 322.3719Q61.14375 320.27814 62.221874 319.1219Q63.3 317.96564 65.01875 317.96564Q66.675 317.96564 67.72188 319.10626Q68.78438 320.23126 68.78438 322.27814Q68.78438 322.40314 68.78438 322.65314L62.596874 322.65314Q62.675 324.02814 63.3625 324.7625Q64.06563 325.48126 65.09688 325.48126Q65.87813 325.48126 66.425 325.075Q66.97188 324.66876 67.28438 323.77814ZM62.675 321.4969L67.3 321.4969Q67.20625 320.45 66.76875 319.9344Q66.09688 319.1219 65.03438 319.1219Q64.06563 319.1219 63.39375 319.77814Q62.7375 320.41876 62.675 321.4969Z" fill-rule="nonzero"/><path fill="#9e9e9e" d="M26.6125 347.09064L26.6125 348.45L19.034374 348.45Q19.01875 347.9344 19.20625 347.46564Q19.4875 346.7 20.128124 345.95Q20.76875 345.2 21.971874 344.21564Q23.83125 342.6844 24.4875 341.79376Q25.14375 340.8875 25.14375 340.09064Q25.14375 339.2625 24.55 338.6844Q23.95625 338.10626 22.9875 338.10626Q21.971874 338.10626 21.3625 338.71564Q20.753124 339.325 20.753124 340.40314L19.3 340.2625Q19.45625 338.6375 20.425 337.79376Q21.39375 336.95 23.01875 336.95Q24.675 336.95 25.628124 337.8719Q26.596874 338.77814 26.596874 340.1219Q26.596874 340.8094 26.315624 341.48126Q26.034374 342.1375 25.378124 342.8719Q24.721874 343.60626 23.20625 344.8875Q21.940624 345.95 21.58125 346.34064Q21.221874 346.71564 20.9875 347.09064L26.6125 347.09064ZM28.221874 345.45L29.690624 345.325Q29.8625 346.40314 30.45625 346.95Q31.05 347.48126 31.89375 347.48126Q32.909374 347.48126 33.6125 346.71564Q34.315624 345.95 34.315624 344.6844Q34.315624 343.48126 33.64375 342.79376Q32.971874 342.09064 31.878124 342.09064Q31.190624 342.09064 30.64375 342.40314Q30.096874 342.71564 29.784374 343.2L28.471874 343.02814L29.58125 337.15314L35.26875 337.15314L35.26875 338.4969L30.70625 338.4969L30.08125 341.575Q31.1125 340.85626 32.253124 340.85626Q33.753124 340.85626 34.784374 341.90314Q35.815624 342.9344 35.815624 344.5594Q35.815624 346.1219 34.909374 347.2469Q33.8 348.65314 31.89375 348.65314Q30.33125 348.65314 29.346874 347.77814Q28.3625 346.8875 28.221874 345.45ZM38.003124 348.45L38.003124 346.84064L39.6125 346.84064L39.6125 348.45L38.003124 348.45ZM41.221874 342.79376Q41.221874 340.7625 41.628124 339.52814Q42.05 338.29376 42.878124 337.6219Q43.70625 336.95 44.95625 336.95Q45.878124 336.95 46.565624 337.325Q47.26875 337.6844 47.721874 338.3875Q48.175 339.09064 48.425 340.09064Q48.690624 341.09064 48.690624 342.79376Q48.690624 344.8094 48.26875 346.0594Q47.8625 347.29376 47.034374 347.98126Q46.20625 348.65314 44.95625 348.65314Q43.3 348.65314 42.346874 347.45Q41.221874 346.02814 41.221874 342.79376ZM42.659374 342.79376Q42.659374 345.6219 43.315624 346.5594Q43.9875 347.48126 44.95625 347.48126Q45.925 347.48126 46.58125 346.54376Q47.2375 345.60626 47.2375 342.79376Q47.2375 339.96564 46.58125 339.04376Q45.925 338.10626 44.940624 338.10626Q43.971874 338.10626 43.39375 338.9344Q42.659374 339.98126 42.659374 342.79376ZM50.4875 339.7469Q50.4875 338.5125 51.096874 337.65314Q51.721874 336.79376 52.89375 336.79376Q53.971874 336.79376 54.675 337.575Q55.378124 338.34064 55.378124 339.825Q55.378124 341.27814 54.659374 342.075Q53.95625 342.85626 52.909374 342.85626Q51.8625 342.85626 51.175 342.09064Q50.4875 341.3094 50.4875 339.7469ZM52.925 337.7625Q52.409374 337.7625 52.05 338.21564Q51.70625 338.66876 51.70625 339.8875Q51.70625 340.98126 52.05 341.4344Q52.409374 341.8875 52.925 341.8875Q53.45625 341.8875 53.8 341.4344Q54.159374 340.98126 54.159374 339.77814Q54.159374 338.66876 53.8 338.21564Q53.45625 337.7625 52.925 337.7625ZM52.940624 348.8719L59.20625 336.79376L60.346874 336.79376L54.096874 348.8719L52.940624 348.8719ZM57.89375 345.7625Q57.89375 344.52814 58.503124 343.66876Q59.128124 342.8094 60.3 342.8094Q61.378124 342.8094 62.08125 343.59064Q62.8 344.35626 62.8 345.84064Q62.8 347.29376 62.08125 348.09064Q61.3625 348.8719 60.315624 348.8719Q59.26875 348.8719 58.58125 348.09064Q57.89375 347.3094 57.89375 345.7625ZM60.346874 343.77814Q59.815624 343.77814 59.45625 344.23126Q59.1125 344.6844 59.1125 345.90314Q59.1125 346.9969 59.45625 347.45Q59.815624 347.90314 60.33125 347.90314Q60.878124 347.90314 61.221874 347.45Q61.565624 346.9969 61.565624 345.79376Q61.565624 344.6844 61.20625 344.23126Q60.8625 343.77814 60.346874 343.77814Z" fill-rule="nonzero"/><path stroke="#757575" stroke-width="1.0" stroke-linecap="butt" d="M18.55 331.95L145.23334 331.95L263.42154 340.196" fill-rule="nonzero"/><path fill="#9e9e9e" d="M265.42154 340.196C265.42154 339.09146 264.5261 338.196 263.42154 338.196C262.31696 338.196 261.42154 339.09146 261.42154 340.196C261.42154 341.3006 262.31696 342.196 263.42154 342.196C264.5261 342.196 265.42154 341.3006 265.42154 340.196" fill-rule="nonzero"/><path fill="#efefef" d="M551.6375 75.789406L551.6375 64.33628L553.91876 64.33628L556.6375 72.445656Q557.0125 73.570656 557.1844 74.133156Q557.3719 73.508156 557.79376 72.30503L560.52814 64.33628L562.575 64.33628L562.575 75.789406L561.10626 75.789406L561.10626 66.195656L557.77814 75.789406L556.41876 75.789406L553.10626 66.039406L553.10626 75.789406L551.6375 75.789406ZM569.91876 74.758156Q569.1375 75.43003 568.41876 75.71128Q567.7 75.976906 566.8719 75.976906Q565.4969 75.976906 564.7625 75.30503Q564.02814 74.633156 564.02814 73.601906Q564.02814 72.99253 564.3094 72.49253Q564.59064 71.976906 565.02814 71.68003Q565.48126 71.36753 566.04376 71.21128Q566.46564 71.101906 567.29376 71.008156Q568.9969 70.80503 569.8094 70.52378Q569.8094 70.226906 569.8094 70.14878Q569.8094 69.289406 569.41876 68.945656Q568.8719 68.46128 567.8094 68.46128Q566.825 68.46128 566.34064 68.820656Q565.8719 69.164406 565.65314 70.039406L564.27814 69.851906Q564.46564 68.976906 564.8875 68.43003Q565.325 67.883156 566.1375 67.601906Q566.95 67.30503 568.0125 67.30503Q569.075 67.30503 569.73126 67.55503Q570.40314 67.80503 570.71564 68.18003Q571.02814 68.55503 571.15314 69.133156Q571.23126 69.49253 571.23126 70.43003L571.23126 72.30503Q571.23126 74.27378 571.3094 74.789406Q571.40314 75.30503 571.66876 75.789406L570.2 75.789406Q569.98126 75.351906 569.91876 74.758156ZM569.8094 71.61753Q569.04376 71.93003 567.5125 72.14878Q566.6375 72.27378 566.27814 72.43003Q565.91876 72.58628 565.71564 72.89878Q565.52814 73.195656 565.52814 73.55503Q565.52814 74.11753 565.95 74.49253Q566.3875 74.86753 567.2 74.86753Q568.0125 74.86753 568.6375 74.52378Q569.27814 74.164406 569.575 73.539406Q569.8094 73.070656 569.8094 72.133156L569.8094 71.61753ZM573.5125 78.976906L573.5125 67.49253L574.79376 67.49253L574.79376 68.570656Q575.2469 67.93003 575.8094 67.61753Q576.3875 67.30503 577.2 67.30503Q578.2625 67.30503 579.075 67.851906Q579.8875 68.39878 580.29376 69.39878Q580.71564 70.383156 580.71564 71.570656Q580.71564 72.851906 580.2469 73.86753Q579.79376 74.883156 578.91876 75.43003Q578.0594 75.976906 577.09064 75.976906Q576.3875 75.976906 575.825 75.68003Q575.27814 75.383156 574.91876 74.93003L574.91876 78.976906L573.5125 78.976906ZM574.77814 71.68003Q574.77814 73.289406 575.41876 74.05503Q576.075 74.820656 576.9969 74.820656Q577.9344 74.820656 578.60626 74.02378Q579.27814 73.226906 579.27814 71.570656Q579.27814 69.976906 578.6219 69.195656Q577.96564 68.39878 577.0594 68.39878Q576.16876 68.39878 575.46564 69.24253Q574.77814 70.08628 574.77814 71.68003Z" fill-rule="nonzero"/><path fill="#9e9e9e" d="M542.41876 97.789406L541.0125 97.789406L541.0125 88.820656Q540.4969 89.30503 539.66876 89.789406Q538.85626 90.27378 538.2 90.52378L538.2 89.164406Q539.3719 88.601906 540.2469 87.820656Q541.1375 87.02378 541.5125 86.289406L542.41876 86.289406L542.41876 97.789406ZM553.41876 89.133156L552.0125 89.24253Q551.825 88.414406 551.48126 88.039406Q550.91876 87.445656 550.075 87.445656Q549.40314 87.445656 548.90314 87.820656Q548.23126 88.30503 547.84064 89.24253Q547.46564 90.164406 547.45 91.883156Q547.96564 91.101906 548.7 90.726906Q549.4344 90.351906 550.23126 90.351906Q551.6375 90.351906 552.6219 91.39878Q553.6219 92.43003 553.6219 94.070656Q553.6219 95.14878 553.15314 96.070656Q552.6844 96.99253 551.8719 97.49253Q551.0594 97.99253 550.02814 97.99253Q548.27814 97.99253 547.16876 96.695656Q546.0594 95.39878 546.0594 92.43003Q546.0594 89.101906 547.27814 87.601906Q548.35626 86.289406 550.16876 86.289406Q551.5125 86.289406 552.3719 87.05503Q553.2469 87.80503 553.41876 89.133156ZM547.66876 94.070656Q547.66876 94.80503 547.98126 95.476906Q548.29376 96.133156 548.84064 96.476906Q549.40314 96.820656 550.0125 96.820656Q550.90314 96.820656 551.54376 96.101906Q552.1844 95.383156 552.1844 94.14878Q552.1844 92.96128 551.54376 92.289406Q550.91876 91.601906 549.95 91.601906Q548.9969 91.601906 548.325 92.289406Q547.66876 92.96128 547.66876 94.070656ZM555.90314 97.789406L555.90314 96.18003L557.5125 96.18003L557.5125 97.789406L555.90314 97.789406ZM559.21564 87.83628L559.21564 86.476906L566.6219 86.476906L566.6219 87.570656Q565.52814 88.74253 564.45 90.68003Q563.3875 92.601906 562.79376 94.633156Q562.3719 96.070656 562.2625 97.789406L560.8094 97.789406Q560.84064 96.43003 561.34064 94.52378Q561.85626 92.601906 562.79376 90.83628Q563.7469 89.05503 564.825 87.83628L559.21564 87.83628ZM568.3875 89.08628Q568.3875 87.851906 568.9969 86.99253Q569.6219 86.133156 570.79376 86.133156Q571.8719 86.133156 572.575 86.914406Q573.27814 87.68003 573.27814 89.164406Q573.27814 90.61753 572.5594 91.414406Q571.85626 92.195656 570.8094 92.195656Q569.7625 92.195656 569.075 91.43003Q568.3875 90.64878 568.3875 89.08628ZM570.825 87.101906Q570.3094 87.101906 569.95 87.55503Q569.60626 88.008156 569.60626 89.226906Q569.60626 90.320656 569.95 90.77378Q570.3094 91.226906 570.825 91.226906Q571.35626 91.226906 571.7 90.77378Q572.0594 90.320656 572.0594 89.11753Q572.0594 88.008156 571.7 87.55503Q571.35626 87.101906 570.825 87.101906ZM570.84064 98.21128L577.10626 86.133156L578.2469 86.133156L571.9969 98.21128L570.84064 98.21128ZM575.79376 95.101906Q575.79376 93.86753 576.40314 93.008156Q577.02814 92.14878 578.2 92.14878Q579.27814 92.14878 579.98126 92.93003Q580.7 93.695656 580.7 95.18003Q580.7 96.633156 579.98126 97.43003Q579.2625 98.21128 578.21564 98.21128Q577.16876 98.21128 576.48126 97.43003Q575.79376 96.64878 575.79376 95.101906ZM578.2469 93.11753Q577.71564 93.11753 577.35626 93.570656Q577.0125 94.02378 577.0125 95.24253Q577.0125 96.33628 577.35626 96.789406Q577.71564 97.24253 578.23126 97.24253Q578.77814 97.24253 579.1219 96.789406Q579.46564 96.33628 579.46564 95.133156Q579.46564 94.02378 579.10626 93.570656Q578.7625 93.11753 578.2469 93.11753Z" fill-rule="nonzero"/><path stroke="#757575" stroke-width="1.0" stroke-linecap="butt" d="M581.45 81.289406L454.76666 81.289406L370.66415 81.289406" fill-rule="nonzero"/><path fill="#9e9e9e" d="M372.66415 81.289406C372.66415 80.18484 371.76874 79.289406 370.66415 79.289406C369.5596 79.289406 368.66415 80.18484 368.66415 81.289406C368.66415 82.393974 369.5596 83.289406 370.66415 83.289406C371.76874 83.289406 372.66415 82.393974 372.66415 81.289406" fill-rule="nonzero"/><path fill="#efefef" d="M498.6844 198.18333L498.6844 186.73021L503.0125 186.73021Q504.15314 186.73021 504.7469 186.83958Q505.59064 186.98021 506.15314 187.37083Q506.73126 187.76146 507.075 188.48021Q507.4344 189.18333 507.4344 190.04271Q507.4344 191.49583 506.4969 192.51146Q505.575 193.52708 503.1375 193.52708L500.2 193.52708L500.2 198.18333L498.6844 198.18333ZM500.2 192.16771L503.16876 192.16771Q504.6375 192.16771 505.2469 191.62083Q505.8719 191.07396 505.8719 190.08958Q505.8719 189.37083 505.4969 188.85521Q505.1375 188.33958 504.54376 188.18333Q504.16876 188.07396 503.1375 188.07396L500.2 188.07396L500.2 192.16771ZM515.1844 195.51146L516.6375 195.68333Q516.29376 196.96458 515.35626 197.66771Q514.4344 198.37083 512.9969 198.37083Q511.16876 198.37083 510.10626 197.24583Q509.04376 196.12083 509.04376 194.10521Q509.04376 192.01146 510.1219 190.85521Q511.2 189.69896 512.91876 189.69896Q514.575 189.69896 515.6219 190.83958Q516.6844 191.96458 516.6844 194.01146Q516.6844 194.13646 516.6844 194.38646L510.4969 194.38646Q510.575 195.76146 511.2625 196.49583Q511.96564 197.21458 512.9969 197.21458Q513.77814 197.21458 514.325 196.80833Q514.8719 196.40208 515.1844 195.51146ZM510.575 193.23021L515.2 193.23021Q515.10626 192.18333 514.66876 191.66771Q513.9969 190.85521 512.9344 190.85521Q511.96564 190.85521 511.29376 191.51146Q510.6375 192.15208 510.575 193.23021ZM518.4969 198.18333L518.4969 189.88646L519.7625 189.88646L519.7625 191.13646Q520.2469 190.26146 520.65314 189.98021Q521.0594 189.69896 521.5594 189.69896Q522.2625 189.69896 522.9969 190.15208L522.5125 191.44896Q521.9969 191.15208 521.48126 191.15208Q521.02814 191.15208 520.65314 191.43333Q520.29376 191.69896 520.1375 192.19896Q519.90314 192.94896 519.90314 193.83958L519.90314 198.18333L518.4969 198.18333ZM522.95 195.69896L524.34064 195.48021Q524.45 196.32396 524.98126 196.77708Q525.52814 197.21458 526.48126 197.21458Q527.45 197.21458 527.91876 196.82396Q528.3875 196.41771 528.3875 195.88646Q528.3875 195.41771 527.98126 195.13646Q527.6844 194.94896 526.54376 194.66771Q524.9969 194.27708 524.3875 193.99583Q523.79376 193.69896 523.48126 193.19896Q523.1844 192.69896 523.1844 192.08958Q523.1844 191.52708 523.4344 191.05833Q523.6844 190.58958 524.1219 190.27708Q524.45 190.02708 525.0125 189.87083Q525.59064 189.69896 526.23126 189.69896Q527.21564 189.69896 527.95 189.98021Q528.6844 190.26146 529.02814 190.74583Q529.3875 191.21458 529.52814 192.02708L528.15314 192.21458Q528.0594 191.57396 527.60626 191.21458Q527.15314 190.85521 526.34064 190.85521Q525.3719 190.85521 524.95 191.18333Q524.54376 191.49583 524.54376 191.91771Q524.54376 192.19896 524.71564 192.41771Q524.8875 192.63646 525.2469 192.79271Q525.46564 192.87083 526.4969 193.15208Q527.98126 193.54271 528.575 193.80833Q529.16876 194.05833 529.4969 194.54271Q529.84064 195.02708 529.84064 195.74583Q529.84064 196.44896 529.41876 197.07396Q529.0125 197.68333 528.23126 198.02708Q527.46564 198.37083 526.4969 198.37083Q524.8719 198.37083 524.02814 197.69896Q523.1844 197.02708 522.95 195.69896ZM531.5125 201.37083L531.5125 189.88646L532.79376 189.88646L532.79376 190.96458Q533.2469 190.32396 533.8094 190.01146Q534.3875 189.69896 535.2 189.69896Q536.2625 189.69896 537.075 190.24583Q537.8875 190.79271 538.29376 191.79271Q538.71564 192.77708 538.71564 193.96458Q538.71564 195.24583 538.2469 196.26146Q537.79376 197.27708 536.91876 197.82396Q536.0594 198.37083 535.09064 198.37083Q534.3875 198.37083 533.825 198.07396Q533.27814 197.77708 532.91876 197.32396L532.91876 201.37083L531.5125 201.37083ZM532.77814 194.07396Q532.77814 195.68333 533.41876 196.44896Q534.075 197.21458 534.9969 197.21458Q535.9344 197.21458 536.60626 196.41771Q537.27814 195.62083 537.27814 193.96458Q537.27814 192.37083 536.6219 191.58958Q535.96564 190.79271 535.0594 190.79271Q534.16876 190.79271 533.46564 191.63646Q532.77814 192.48021 532.77814 194.07396ZM546.1844 195.51146L547.6375 195.68333Q547.29376 196.96458 546.35626 197.66771Q545.4344 198.37083 543.9969 198.37083Q542.16876 198.37083 541.10626 197.24583Q540.04376 196.12083 540.04376 194.10521Q540.04376 192.01146 541.1219 190.85521Q542.2 189.69896 543.91876 189.69896Q545.575 189.69896 546.6219 190.83958Q547.6844 191.96458 547.6844 194.01146Q547.6844 194.13646 547.6844 194.38646L541.4969 194.38646Q541.575 195.76146 542.2625 196.49583Q542.96564 197.21458 543.9969 197.21458Q544.77814 197.21458 545.325 196.80833Q545.8719 196.40208 546.1844 195.51146ZM541.575 193.23021L546.2 193.23021Q546.10626 192.18333 545.66876 191.66771Q544.9969 190.85521 543.9344 190.85521Q542.96564 190.85521 542.29376 191.51146Q541.6375 192.15208 541.575 193.23021ZM554.91876 195.13646L556.3094 195.32396Q556.075 196.74583 555.1375 197.55833Q554.21564 198.37083 552.85626 198.37083Q551.15314 198.37083 550.10626 197.26146Q549.075 196.13646 549.075 194.05833Q549.075 192.71458 549.5125 191.71458Q549.96564 190.69896 550.8719 190.19896Q551.79376 189.69896 552.85626 189.69896Q554.21564 189.69896 555.075 190.38646Q555.9344 191.05833 556.16876 192.32396L554.8094 192.52708Q554.60626 191.69896 554.10626 191.27708Q553.6219 190.85521 552.91876 190.85521Q551.85626 190.85521 551.1844 191.62083Q550.52814 192.37083 550.52814 194.02708Q550.52814 195.69896 551.16876 196.46458Q551.8094 197.21458 552.84064 197.21458Q553.66876 197.21458 554.21564 196.71458Q554.77814 196.19896 554.91876 195.13646ZM560.575 196.91771L560.77814 198.16771Q560.1844 198.29271 559.71564 198.29271Q558.95 198.29271 558.52814 198.05833Q558.10626 197.80833 557.9344 197.41771Q557.7625 197.01146 557.7625 195.74583L557.7625 190.98021L556.73126 190.98021L556.73126 189.88646L557.7625 189.88646L557.7625 187.82396L559.16876 186.98021L559.16876 189.88646L560.575 189.88646L560.575 190.98021L559.16876 190.98021L559.16876 195.82396Q559.16876 196.43333 559.23126 196.60521Q559.3094 196.77708 559.48126 196.88646Q559.65314 196.98021 559.96564 196.98021Q560.2 196.98021 560.575 196.91771ZM561.5125 188.33958L561.5125 186.73021L562.91876 186.73021L562.91876 188.33958L561.5125 188.33958ZM561.5125 198.18333L561.5125 189.88646L562.91876 189.88646L562.91876 198.18333L561.5125 198.18333ZM567.8094 198.18333L564.65314 189.88646L566.1375 189.88646L567.91876 194.85521Q568.21564 195.65208 568.45 196.52708Q568.6375 195.87083 568.98126 194.94896L570.825 189.88646L572.2625 189.88646L569.1219 198.18333L567.8094 198.18333ZM579.1844 195.51146L580.6375 195.68333Q580.29376 196.96458 579.35626 197.66771Q578.4344 198.37083 576.9969 198.37083Q575.16876 198.37083 574.10626 197.24583Q573.04376 196.12083 573.04376 194.10521Q573.04376 192.01146 574.1219 190.85521Q575.2 189.69896 576.91876 189.69896Q578.575 189.69896 579.6219 190.83958Q580.6844 191.96458 580.6844 194.01146Q580.6844 194.13646 580.6844 194.38646L574.4969 194.38646Q574.575 195.76146 575.2625 196.49583Q575.96564 197.21458 576.9969 197.21458Q577.77814 197.21458 578.325 196.80833Q578.8719 196.40208 579.1844 195.51146ZM574.575 193.23021L579.2 193.23021Q579.10626 192.18333 578.66876 191.66771Q577.9969 190.85521 576.9344 190.85521Q575.96564 190.85521 575.29376 191.51146Q574.6375 192.15208 574.575 193.23021Z" fill-rule="nonzero"/><path fill="#9e9e9e" d="M542.41876 220.18333L541.0125 220.18333L541.0125 211.21458Q540.4969 211.69896 539.66876 212.18333Q538.85626 212.66771 538.2 212.91771L538.2 211.55833Q539.3719 210.99583 540.2469 210.21458Q541.1375 209.41771 541.5125 208.68333L542.41876 208.68333L542.41876 220.18333ZM553.41876 211.52708L552.0125 211.63646Q551.825 210.80833 551.48126 210.43333Q550.91876 209.83958 550.075 209.83958Q549.40314 209.83958 548.90314 210.21458Q548.23126 210.69896 547.84064 211.63646Q547.46564 212.55833 547.45 214.27708Q547.96564 213.49583 548.7 213.12083Q549.4344 212.74583 550.23126 212.74583Q551.6375 212.74583 552.6219 213.79271Q553.6219 214.82396 553.6219 216.46458Q553.6219 217.54271 553.15314 218.46458Q552.6844 219.38646 551.8719 219.88646Q551.0594 220.38646 550.02814 220.38646Q548.27814 220.38646 547.16876 219.08958Q546.0594 217.79271 546.0594 214.82396Q546.0594 211.49583 547.27814 209.99583Q548.35626 208.68333 550.16876 208.68333Q551.5125 208.68333 552.3719 209.44896Q553.2469 210.19896 553.41876 211.52708ZM547.66876 216.46458Q547.66876 217.19896 547.98126 217.87083Q548.29376 218.52708 548.84064 218.87083Q549.40314 219.21458 550.0125 219.21458Q550.90314 219.21458 551.54376 218.49583Q552.1844 217.77708 552.1844 216.54271Q552.1844 215.35521 551.54376 214.68333Q550.91876 213.99583 549.95 213.99583Q548.9969 213.99583 548.325 214.68333Q547.66876 215.35521 547.66876 216.46458ZM555.90314 220.18333L555.90314 218.57396L557.5125 218.57396L557.5125 220.18333L555.90314 220.18333ZM559.21564 210.23021L559.21564 208.87083L566.6219 208.87083L566.6219 209.96458Q565.52814 211.13646 564.45 213.07396Q563.3875 214.99583 562.79376 217.02708Q562.3719 218.46458 562.2625 220.18333L560.8094 220.18333Q560.84064 218.82396 561.34064 216.91771Q561.85626 214.99583 562.79376 213.23021Q563.7469 211.44896 564.825 210.23021L559.21564 210.23021ZM568.3875 211.48021Q568.3875 210.24583 568.9969 209.38646Q569.6219 208.52708 570.79376 208.52708Q571.8719 208.52708 572.575 209.30833Q573.27814 210.07396 573.27814 211.55833Q573.27814 213.01146 572.5594 213.80833Q571.85626 214.58958 570.8094 214.58958Q569.7625 214.58958 569.075 213.82396Q568.3875 213.04271 568.3875 211.48021ZM570.825 209.49583Q570.3094 209.49583 569.95 209.94896Q569.60626 210.40208 569.60626 211.62083Q569.60626 212.71458 569.95 213.16771Q570.3094 213.62083 570.825 213.62083Q571.35626 213.62083 571.7 213.16771Q572.0594 212.71458 572.0594 211.51146Q572.0594 210.40208 571.7 209.94896Q571.35626 209.49583 570.825 209.49583ZM570.84064 220.60521L577.10626 208.52708L578.2469 208.52708L571.9969 220.60521L570.84064 220.60521ZM575.79376 217.49583Q575.79376 216.26146 576.40314 215.40208Q577.02814 214.54271 578.2 214.54271Q579.27814 214.54271 579.98126 215.32396Q580.7 216.08958 580.7 217.57396Q580.7 219.02708 579.98126 219.82396Q579.2625 220.60521 578.21564 220.60521Q577.16876 220.60521 576.48126 219.82396Q575.79376 219.04271 575.79376 217.49583ZM578.2469 215.51146Q577.71564 215.51146 577.35626 215.96458Q577.0125 216.41771 577.0125 217.63646Q577.0125 218.73021 577.35626 219.18333Q577.71564 219.63646 578.23126 219.63646Q578.77814 219.63646 579.1219 219.18333Q579.46564 218.73021 579.46564 217.52708Q579.46564 216.41771 579.10626 215.96458Q578.7625 215.51146 578.2469 215.51146Z" fill-rule="nonzero"/><path stroke="#757575" stroke-width="1.0" stroke-linecap="butt" d="M581.45 203.68333L454.76666 203.68333L441.32834 203.68333" fill-rule="nonzero"/><path fill="#9e9e9e" d="M443.32834 203.68333C443.32834 202.57877 442.4329 201.68333 441.32834 201.68333C440.22375 201.68333 439.32834 202.57877 439.32834 203.68333C439.32834 204.7879 440.22375 205.68333 441.32834 205.68333C442.4329 205.68333 443.32834 204.7879 443.32834 203.68333" fill-rule="nonzero"/><path fill="#efefef" d="M532.6844 298.11755L532.6844 286.66443L536.6375 286.66443Q537.96564 286.66443 538.66876 286.82068Q539.65314 287.05505 540.35626 287.6488Q541.2625 288.41443 541.7 289.60193Q542.15314 290.78943 542.15314 292.32068Q542.15314 293.63318 541.84064 294.6488Q541.54376 295.6488 541.0594 296.30505Q540.59064 296.9613 540.02814 297.35193Q539.46564 297.72693 538.65314 297.93005Q537.85626 298.11755 536.825 298.11755L532.6844 298.11755ZM534.2 296.75818L536.65314 296.75818Q537.77814 296.75818 538.41876 296.55505Q539.075 296.3363 539.45 295.9613Q539.9969 295.41443 540.29376 294.50818Q540.59064 293.60193 540.59064 292.30505Q540.59064 290.50818 539.9969 289.53943Q539.41876 288.57068 538.575 288.24255Q537.96564 288.00818 536.60626 288.00818L534.2 288.00818L534.2 296.75818ZM550.1844 295.44568L551.6375 295.61755Q551.29376 296.8988 550.35626 297.60193Q549.4344 298.30505 547.9969 298.30505Q546.16876 298.30505 545.10626 297.18005Q544.04376 296.05505 544.04376 294.03943Q544.04376 291.94568 545.1219 290.78943Q546.2 289.63318 547.91876 289.63318Q549.575 289.63318 550.6219 290.7738Q551.6844 291.8988 551.6844 293.94568Q551.6844 294.07068 551.6844 294.32068L545.4969 294.32068Q545.575 295.69568 546.2625 296.43005Q546.96564 297.1488 547.9969 297.1488Q548.77814 297.1488 549.325 296.74255Q549.8719 296.3363 550.1844 295.44568ZM545.575 293.16443L550.2 293.16443Q550.10626 292.11755 549.66876 291.60193Q548.9969 290.78943 547.9344 290.78943Q546.96564 290.78943 546.29376 291.44568Q545.6375 292.0863 545.575 293.16443ZM556.575 296.85193L556.77814 298.10193Q556.1844 298.22693 555.71564 298.22693Q554.95 298.22693 554.52814 297.99255Q554.10626 297.74255 553.9344 297.35193Q553.7625 296.94568 553.7625 295.68005L553.7625 290.91443L552.73126 290.91443L552.73126 289.82068L553.7625 289.82068L553.7625 287.75818L555.16876 286.91443L555.16876 289.82068L556.575 289.82068L556.575 290.91443L555.16876 290.91443L555.16876 295.75818Q555.16876 296.36755 555.23126 296.53943Q555.3094 296.7113 555.48126 296.82068Q555.65314 296.91443 555.96564 296.91443Q556.2 296.91443 556.575 296.85193ZM562.91876 297.0863Q562.1375 297.75818 561.41876 298.03943Q560.7 298.30505 559.8719 298.30505Q558.4969 298.30505 557.7625 297.63318Q557.02814 296.9613 557.02814 295.93005Q557.02814 295.32068 557.3094 294.82068Q557.59064 294.30505 558.02814 294.00818Q558.48126 293.69568 559.04376 293.53943Q559.46564 293.43005 560.29376 293.3363Q561.9969 293.13318 562.8094 292.85193Q562.8094 292.55505 562.8094 292.47693Q562.8094 291.61755 562.41876 291.2738Q561.8719 290.78943 560.8094 290.78943Q559.825 290.78943 559.34064 291.1488Q558.8719 291.49255 558.65314 292.36755L557.27814 292.18005Q557.46564 291.30505 557.8875 290.75818Q558.325 290.2113 559.1375 289.93005Q559.95 289.63318 561.0125 289.63318Q562.075 289.63318 562.73126 289.88318Q563.40314 290.13318 563.71564 290.50818Q564.02814 290.88318 564.15314 291.4613Q564.23126 291.82068 564.23126 292.75818L564.23126 294.63318Q564.23126 296.60193 564.3094 297.11755Q564.40314 297.63318 564.66876 298.11755L563.2 298.11755Q562.98126 297.68005 562.91876 297.0863ZM562.8094 293.94568Q562.04376 294.25818 560.5125 294.47693Q559.6375 294.60193 559.27814 294.75818Q558.91876 294.91443 558.71564 295.22693Q558.52814 295.5238 558.52814 295.88318Q558.52814 296.44568 558.95 296.82068Q559.3875 297.19568 560.2 297.19568Q561.0125 297.19568 561.6375 296.85193Q562.27814 296.49255 562.575 295.86755Q562.8094 295.3988 562.8094 294.4613L562.8094 293.94568ZM566.5125 288.2738L566.5125 286.66443L567.91876 286.66443L567.91876 288.2738L566.5125 288.2738ZM566.5125 298.11755L566.5125 289.82068L567.91876 289.82068L567.91876 298.11755L566.5125 298.11755ZM570.48126 298.11755L570.48126 286.66443L571.8875 286.66443L571.8875 298.11755L570.48126 298.11755ZM573.95 295.63318L575.34064 295.41443Q575.45 296.25818 575.98126 296.7113Q576.52814 297.1488 577.48126 297.1488Q578.45 297.1488 578.91876 296.75818Q579.3875 296.35193 579.3875 295.82068Q579.3875 295.35193 578.98126 295.07068Q578.6844 294.88318 577.54376 294.60193Q575.9969 294.2113 575.3875 293.93005Q574.79376 293.63318 574.48126 293.13318Q574.1844 292.63318 574.1844 292.0238Q574.1844 291.4613 574.4344 290.99255Q574.6844 290.5238 575.1219 290.2113Q575.45 289.9613 576.0125 289.80505Q576.59064 289.63318 577.23126 289.63318Q578.21564 289.63318 578.95 289.91443Q579.6844 290.19568 580.02814 290.68005Q580.3875 291.1488 580.52814 291.9613L579.15314 292.1488Q579.0594 291.50818 578.60626 291.1488Q578.15314 290.78943 577.34064 290.78943Q576.3719 290.78943 575.95 291.11755Q575.54376 291.43005 575.54376 291.85193Q575.54376 292.13318 575.71564 292.35193Q575.8875 292.57068 576.2469 292.72693Q576.46564 292.80505 577.4969 293.0863Q578.98126 293.47693 579.575 293.74255Q580.16876 293.99255 580.4969 294.47693Q580.84064 294.9613 580.84064 295.68005Q580.84064 296.38318 580.41876 297.00818Q580.0125 297.61755 579.23126 297.9613Q578.46564 298.30505 577.4969 298.30505Q575.8719 298.30505 575.02814 297.63318Q574.1844 296.9613 573.95 295.63318Z" fill-rule="nonzero"/><path fill="#9e9e9e" d="M548.27814 313.8988Q547.40314 313.5863 546.98126 312.99255Q546.5594 312.3988 546.5594 311.57068Q546.5594 310.32068 547.45 309.47693Q548.35626 308.61755 549.85626 308.61755Q551.35626 308.61755 552.2625 309.49255Q553.1844 310.35193 553.1844 311.60193Q553.1844 312.3988 552.7625 312.99255Q552.34064 313.5863 551.4969 313.8988Q552.54376 314.24255 553.09064 315.00818Q553.65314 315.7738 553.65314 316.8363Q553.65314 318.30505 552.60626 319.32068Q551.575 320.32068 549.8719 320.32068Q548.1844 320.32068 547.1375 319.32068Q546.10626 318.30505 546.10626 316.80505Q546.10626 315.68005 546.66876 314.93005Q547.23126 314.18005 548.27814 313.8988ZM547.9969 311.5238Q547.9969 312.3363 548.5125 312.85193Q549.04376 313.36755 549.8875 313.36755Q550.7 313.36755 551.21564 312.85193Q551.73126 312.3363 551.73126 311.60193Q551.73126 310.82068 551.2 310.30505Q550.66876 309.7738 549.8719 309.7738Q549.0594 309.7738 548.52814 310.28943Q547.9969 310.80505 547.9969 311.5238ZM547.54376 316.80505Q547.54376 317.41443 547.825 317.97693Q548.1219 318.53943 548.6844 318.85193Q549.2469 319.1488 549.8875 319.1488Q550.90314 319.1488 551.5594 318.50818Q552.21564 317.85193 552.21564 316.85193Q552.21564 315.8363 551.52814 315.18005Q550.85626 314.50818 549.84064 314.50818Q548.85626 314.50818 548.2 315.16443Q547.54376 315.82068 547.54376 316.80505ZM555.90314 320.11755L555.90314 318.50818L557.5125 318.50818L557.5125 320.11755L555.90314 320.11755ZM559.1219 317.0863L560.52814 316.8988Q560.77814 318.10193 561.35626 318.63318Q561.9344 319.1488 562.77814 319.1488Q563.7625 319.1488 564.45 318.4613Q565.1375 317.7738 565.1375 316.75818Q565.1375 315.78943 564.4969 315.16443Q563.8719 314.53943 562.8875 314.53943Q562.4969 314.53943 561.90314 314.69568L562.0594 313.4613Q562.2 313.47693 562.27814 313.47693Q563.1844 313.47693 563.90314 313.00818Q564.6219 312.53943 564.6219 311.55505Q564.6219 310.78943 564.09064 310.28943Q563.575 309.7738 562.7469 309.7738Q561.91876 309.7738 561.3719 310.28943Q560.825 310.80505 560.66876 311.8363L559.2625 311.5863Q559.52814 310.16443 560.4344 309.3988Q561.35626 308.61755 562.71564 308.61755Q563.65314 308.61755 564.4344 309.0238Q565.23126 309.41443 565.6375 310.11755Q566.0594 310.80505 566.0594 311.5863Q566.0594 312.3363 565.65314 312.94568Q565.2625 313.55505 564.48126 313.91443Q565.4969 314.1488 566.0594 314.88318Q566.6219 315.61755 566.6219 316.72693Q566.6219 318.22693 565.52814 319.2738Q564.4344 320.32068 562.7625 320.32068Q561.2625 320.32068 560.2625 319.43005Q559.2625 318.5238 559.1219 317.0863ZM568.3875 311.41443Q568.3875 310.18005 568.9969 309.32068Q569.6219 308.4613 570.79376 308.4613Q571.8719 308.4613 572.575 309.24255Q573.27814 310.00818 573.27814 311.49255Q573.27814 312.94568 572.5594 313.74255Q571.85626 314.5238 570.8094 314.5238Q569.7625 314.5238 569.075 313.75818Q568.3875 312.97693 568.3875 311.41443ZM570.825 309.43005Q570.3094 309.43005 569.95 309.88318Q569.60626 310.3363 569.60626 311.55505Q569.60626 312.6488 569.95 313.10193Q570.3094 313.55505 570.825 313.55505Q571.35626 313.55505 571.7 313.10193Q572.0594 312.6488 572.0594 311.44568Q572.0594 310.3363 571.7 309.88318Q571.35626 309.43005 570.825 309.43005ZM570.84064 320.53943L577.10626 308.4613L578.2469 308.4613L571.9969 320.53943L570.84064 320.53943ZM575.79376 317.43005Q575.79376 316.19568 576.40314 315.3363Q577.02814 314.47693 578.2 314.47693Q579.27814 314.47693 579.98126 315.25818Q580.7 316.0238 580.7 317.50818Q580.7 318.9613 579.98126 319.75818Q579.2625 320.53943 578.21564 320.53943Q577.16876 320.53943 576.48126 319.75818Q575.79376 318.97693 575.79376 317.43005ZM578.2469 315.44568Q577.71564 315.44568 577.35626 315.8988Q577.0125 316.35193 577.0125 317.57068Q577.0125 318.66443 577.35626 319.11755Q577.71564 319.57068 578.23126 319.57068Q578.77814 319.57068 579.1219 319.11755Q579.46564 318.66443 579.46564 317.4613Q579.46564 316.35193 579.10626 315.8988Q578.7625 315.44568 578.2469 315.44568Z" fill-rule="nonzero"/><path stroke="#757575" stroke-width="1.0" stroke-linecap="butt" d="M581.45 303.61755L454.76666 303.61755L399.93423 303.61755" fill-rule="nonzero"/><path fill="#9e9e9e" d="M401.93423 303.61755C401.93423 302.513 401.0388 301.61755 399.93423 301.61755C398.82965 301.61755 397.93423 302.513 397.93423 303.61755C397.93423 304.72214 398.82965 305.61755 399.93423 305.61755C401.0388 305.61755 401.93423 304.72214 401.93423 303.61755" fill-rule="nonzero"/><path fill="#f3f3f3" d="M265.98438 37.55L265.98438 23.2375L268.84375 23.2375L272.21875 33.3625Q272.6875 34.784374 272.90625 35.4875Q273.15625 34.70625 273.67188 33.190624L277.09375 23.2375L279.64062 23.2375L279.64062 37.55L277.82812 37.55L277.82812 25.565624L273.65625 37.55L271.95312 37.55L267.8125 25.3625L267.8125 37.55L265.98438 37.55ZM289.92188 34.20625L291.73438 34.440624Q291.3125 36.01875 290.14062 36.909374Q288.98438 37.784374 287.17188 37.784374Q284.90625 37.784374 283.5625 36.39375Q282.23438 34.9875 282.23438 32.45625Q282.23438 29.83125 283.57812 28.39375Q284.92188 26.940624 287.07812 26.940624Q289.15625 26.940624 290.46875 28.3625Q291.79688 29.76875 291.79688 32.346874Q291.79688 32.503124 291.78125 32.815624L284.04688 32.815624Q284.14062 34.51875 285.01562 35.425Q285.89062 36.33125 287.1875 36.33125Q288.15625 36.33125 288.82812 35.83125Q289.51562 35.315624 289.92188 34.20625ZM284.14062 31.3625L289.9375 31.3625Q289.82812 30.065624 289.28125 29.409374Q288.4375 28.39375 287.09375 28.39375Q285.89062 28.39375 285.0625 29.20625Q284.23438 30.003124 284.14062 31.3625ZM300.54688 37.55L300.54688 36.2375Q299.5625 37.784374 297.64062 37.784374Q296.40625 37.784374 295.35938 37.096874Q294.32812 36.409374 293.75 35.190624Q293.1875 33.971874 293.1875 32.378124Q293.1875 30.815624 293.70312 29.55Q294.21875 28.284374 295.25 27.6125Q296.29688 26.940624 297.5625 26.940624Q298.5 26.940624 299.23438 27.346874Q299.96875 27.7375 300.4375 28.3625L300.4375 23.2375L302.17188 23.2375L302.17188 37.55L300.54688 37.55ZM294.98438 32.378124Q294.98438 34.3625 295.82812 35.346874Q296.67188 36.33125 297.8125 36.33125Q298.96875 36.33125 299.76562 35.39375Q300.57812 34.45625 300.57812 32.51875Q300.57812 30.39375 299.75 29.39375Q298.9375 28.39375 297.73438 28.39375Q296.5625 28.39375 295.76562 29.3625Q294.98438 30.315624 294.98438 32.378124ZM304.82812 25.253124L304.82812 23.2375L306.59375 23.2375L306.59375 25.253124L304.82812 25.253124ZM304.82812 37.55L304.82812 27.175L306.59375 27.175L306.59375 37.55L304.82812 37.55ZM315.60938 37.55L315.60938 36.01875Q314.40625 37.784374 312.32812 37.784374Q311.40625 37.784374 310.60938 37.440624Q309.8125 37.08125 309.42188 36.55Q309.04688 36.01875 308.89062 35.2375Q308.78125 34.721874 308.78125 33.596874L308.78125 27.175L310.53125 27.175L310.53125 32.925Q310.53125 34.3 310.64062 34.784374Q310.8125 35.471874 311.34375 35.878124Q311.89062 36.26875 312.67188 36.26875Q313.46875 36.26875 314.15625 35.8625Q314.85938 35.45625 315.14062 34.76875Q315.4375 34.065624 315.4375 32.7375L315.4375 27.175L317.1875 27.175L317.1875 37.55L315.60938 37.55ZM319.8125 37.55L319.8125 27.175L321.39062 27.175L321.39062 28.628124Q321.875 27.878124 322.6875 27.409374Q323.5 26.940624 324.53125 26.940624Q325.6875 26.940624 326.42188 27.425Q327.15625 27.89375 327.46875 28.753124Q328.70312 26.940624 330.67188 26.940624Q332.21875 26.940624 333.04688 27.8Q333.875 28.659374 333.875 30.425L333.875 37.55L332.125 37.55L332.125 31.01875Q332.125 29.95625 331.95312 29.503124Q331.78125 29.034374 331.32812 28.753124Q330.89062 28.471874 330.28125 28.471874Q329.1875 28.471874 328.45312 29.20625Q327.73438 29.925 327.73438 31.51875L327.73438 37.55L325.98438 37.55L325.98438 30.815624Q325.98438 29.64375 325.54688 29.065624Q325.125 28.471874 324.14062 28.471874Q323.40625 28.471874 322.76562 28.8625Q322.14062 29.253124 321.85938 30.003124Q321.57812 30.753124 321.57812 32.175L321.57812 37.55L319.8125 37.55Z" fill-rule="nonzero"/></svg>