<svg version="1.1" viewBox="0.0 0.0 600.0 371.0" fill="none" stroke="none" stroke-linecap="square" stroke-miterlimit="10" width="600" height="371" xmlns:xlink="http://www.w3.org/1999/xlink" xmlns="http://www.w3.org/2000/svg"><path fill="#ffffff" fill-opacity="0.0" d="M0 0L600.0 0L600.0 371.0L0 371.0L0 0Z" fill-rule="nonzero"/><path fill="#f7d750" d="M300.0 54.916668C364.44962 54.916668 421.5695 96.416664 441.4855 157.7119L370.74277 180.69762C360.78473 150.05 332.22482 129.3 300.0 129.3Z" fill-rule="nonzero"/><path fill="#f5ee58" d="M441.4855 157.7119C461.40155 219.00714 439.5837 286.15555 387.44284 324.0381L343.72144 263.86072C369.79184 244.91945 380.70078 211.34525 370.74277 180.69762Z" fill-rule="nonzero"/><path fill="#b3ca48" d="M387.44284 324.0381C362.02643 342.5042 331.41644 352.45 300.0 352.45L300.0 278.06668C315.70822 278.06668 331.0132 273.09378 343.72144 263.86072Z" fill-rule="nonzero"/><path fill="#d8753e" d="M158.5145 157.7119C178.43053 96.416664 235.55037 54.916668 300.0 54.916668L300.0 129.3C267.77518 129.3 239.21526 150.05 229.25725 180.69762Z" fill-rule="nonzero"/><path fill="#78a94e" d="M212.55714 324.0381C160.4163 286.15555 138.59846 219.00714 158.5145 157.7119L229.25725 180.69762C219.29922 211.34525 230.20815 244.91945 256.27856 263.86072Z" fill-rule="nonzero"/><path fill="#4571b0" d="M300.0 352.45C268.58356 352.45 237.97357 342.5042 212.55714 324.0381L256.27856 263.86072C268.9868 273.09378 284.29178 278.06668 300.0 278.06668Z" fill-rule="nonzero"/><path fill="#ffffff" d="M349.14465 118.401634L349.14465 119.91726L340.62903 119.91726Q340.6134 119.339134 340.81653 118.82351Q341.14465 117.94851 341.84778 117.10476Q342.56653 116.26101 343.9259 115.151634Q346.01965 113.432884 346.75403 112.432884Q347.50403 111.41726 347.50403 110.526634Q347.50403 109.57351 346.83215 108.932884Q346.16028 108.29226 345.08215 108.29226Q343.9259 108.29226 343.2384 108.97976Q342.56653 109.66726 342.5509 110.870384L340.9259 110.69851Q341.09778 108.88601 342.1759 107.932884Q343.26965 106.97976 345.1134 106.97976Q346.95715 106.97976 348.03528 108.01101Q349.12903 109.04226 349.12903 110.557884Q349.12903 111.32351 348.8009 112.07351Q348.4884 112.82351 347.75403 113.651634Q347.01965 114.47976 345.31653 115.91726Q343.89465 117.120384 343.4884 117.54226Q343.08215 117.964134 342.83215 118.401634L349.14465 118.401634ZM350.83215 113.557884Q350.83215 111.276634 351.3009 109.88601Q351.76965 108.495384 352.69153 107.745384Q353.62903 106.97976 355.03528 106.97976Q356.06653 106.97976 356.84778 107.401634Q357.62903 107.807884 358.12903 108.60476Q358.64465 109.38601 358.94153 110.526634Q359.2384 111.651634 359.2384 113.557884Q359.2384 115.82351 358.76965 117.22976Q358.3009 118.620384 357.3634 119.38601Q356.44153 120.13601 355.03528 120.13601Q353.16028 120.13601 352.09778 118.807884Q350.83215 117.19851 350.83215 113.557884ZM352.45715 113.557884Q352.45715 116.72976 353.19153 117.79226Q353.94153 118.839134 355.03528 118.839134Q356.1134 118.839134 356.8634 117.79226Q357.6134 116.72976 357.6134 113.557884Q357.6134 110.38601 356.8634 109.339134Q356.1134 108.29226 355.01965 108.29226Q353.9259 108.29226 353.26965 109.214134Q352.45715 110.38601 352.45715 113.557884ZM361.72278 119.91726L361.72278 118.120384L363.51965 118.120384L363.51965 119.91726L361.72278 119.91726ZM365.83215 113.557884Q365.83215 111.276634 366.3009 109.88601Q366.76965 108.495384 367.69153 107.745384Q368.62903 106.97976 370.03528 106.97976Q371.06653 106.97976 371.84778 107.401634Q372.62903 107.807884 373.12903 108.60476Q373.64465 109.38601 373.94153 110.526634Q374.2384 111.651634 374.2384 113.557884Q374.2384 115.82351 373.76965 117.22976Q373.3009 118.620384 372.3634 119.38601Q371.44153 120.13601 370.03528 120.13601Q368.16028 120.13601 367.09778 118.807884Q365.83215 117.19851 365.83215 113.557884ZM367.45715 113.557884Q367.45715 116.72976 368.19153 117.79226Q368.94153 118.839134 370.03528 118.839134Q371.1134 118.839134 371.8634 117.79226Q372.6134 116.72976 372.6134 113.557884Q372.6134 110.38601 371.8634 109.339134Q371.1134 108.29226 370.01965 108.29226Q368.9259 108.29226 368.26965 109.214134Q367.45715 110.38601 367.45715 113.557884ZM376.12903 110.120384Q376.12903 108.745384 376.81653 107.776634Q377.51965 106.807884 378.83215 106.807884Q380.0509 106.807884 380.84778 107.682884Q381.64465 108.54226 381.64465 110.22976Q381.64465 111.85476 380.83215 112.745384Q380.03528 113.620384 378.84778 113.620384Q377.69153 113.620384 376.91028 112.76101Q376.12903 111.88601 376.12903 110.120384ZM378.87903 107.901634Q378.28528 107.901634 377.89465 108.41726Q377.50403 108.91726 377.50403 110.276634Q377.50403 111.526634 377.89465 112.026634Q378.3009 112.526634 378.87903 112.526634Q379.47278 112.526634 379.8634 112.026634Q380.25403 111.51101 380.25403 110.16726Q380.25403 108.91726 379.8634 108.41726Q379.47278 107.901634 378.87903 107.901634ZM378.89465 120.38601L385.94153 106.807884L387.22278 106.807884L380.19153 120.38601L378.89465 120.38601ZM384.45715 116.88601Q384.45715 115.51101 385.14465 114.54226Q385.84778 113.57351 387.1759 113.57351Q388.39465 113.57351 389.1759 114.44851Q389.97278 115.307884 389.97278 116.995384Q389.97278 118.620384 389.1759 119.51101Q388.37903 120.38601 387.19153 120.38601Q386.01965 120.38601 385.2384 119.51101Q384.45715 118.63601 384.45715 116.88601ZM387.22278 114.66726Q386.62903 114.66726 386.2384 115.182884Q385.84778 115.682884 385.84778 117.057884Q385.84778 118.276634 386.2384 118.79226Q386.62903 119.307884 387.20715 119.307884Q387.81653 119.307884 388.20715 118.79226Q388.59778 118.276634 388.59778 116.932884Q388.59778 115.682884 388.20715 115.182884Q387.81653 114.66726 387.22278 114.66726Z" fill-rule="nonzero"/><path fill="#ffffff" d="M389.67664 243.14629L389.67664 244.66191L381.161 244.66191Q381.1454 244.08379 381.3485 243.56816Q381.67664 242.69316 382.37976 241.84941Q383.0985 241.00566 384.4579 239.89629Q386.55164 238.17754 387.286 237.17754Q388.036 236.16191 388.036 235.27129Q388.036 234.31816 387.36414 233.67754Q386.69226 233.03691 385.61414 233.03691Q384.4579 233.03691 383.7704 233.72441Q383.0985 234.41191 383.0829 235.61504L381.4579 235.44316Q381.62976 233.63066 382.7079 232.67754Q383.80164 231.72441 385.6454 231.72441Q387.48914 231.72441 388.56726 232.75566Q389.661 233.78691 389.661 235.30254Q389.661 236.06816 389.3329 236.81816Q389.0204 237.56816 388.286 238.39629Q387.55164 239.22441 385.8485 240.66191Q384.42664 241.86504 384.0204 242.28691Q383.61414 242.70879 383.36414 243.14629L389.67664 243.14629ZM391.36414 238.30254Q391.36414 236.02129 391.8329 234.63066Q392.30164 233.24004 393.2235 232.49004Q394.161 231.72441 395.56726 231.72441Q396.5985 231.72441 397.37976 232.14629Q398.161 232.55254 398.661 233.34941Q399.17664 234.13066 399.4735 235.27129Q399.7704 236.39629 399.7704 238.30254Q399.7704 240.56816 399.30164 241.97441Q398.8329 243.36504 397.8954 244.13066Q396.9735 244.88066 395.56726 244.88066Q393.69226 244.88066 392.62976 243.55254Q391.36414 241.94316 391.36414 238.30254ZM392.98914 238.30254Q392.98914 241.47441 393.7235 242.53691Q394.4735 243.58379 395.56726 243.58379Q396.6454 243.58379 397.3954 242.53691Q398.1454 241.47441 398.1454 238.30254Q398.1454 235.13066 397.3954 234.08379Q396.6454 233.03691 395.55164 233.03691Q394.4579 233.03691 393.80164 233.95879Q392.98914 235.13066 392.98914 238.30254ZM402.25476 244.66191L402.25476 242.86504L404.05164 242.86504L404.05164 244.66191L402.25476 244.66191ZM406.36414 238.30254Q406.36414 236.02129 406.8329 234.63066Q407.30164 233.24004 408.2235 232.49004Q409.161 231.72441 410.56726 231.72441Q411.5985 231.72441 412.37976 232.14629Q413.161 232.55254 413.661 233.34941Q414.17664 234.13066 414.4735 235.27129Q414.7704 236.39629 414.7704 238.30254Q414.7704 240.56816 414.30164 241.97441Q413.8329 243.36504 412.8954 244.13066Q411.9735 244.88066 410.56726 244.88066Q408.69226 244.88066 407.62976 243.55254Q406.36414 241.94316 406.36414 238.30254ZM407.98914 238.30254Q407.98914 241.47441 408.7235 242.53691Q409.4735 243.58379 410.56726 243.58379Q411.6454 243.58379 412.3954 242.53691Q413.1454 241.47441 413.1454 238.30254Q413.1454 235.13066 412.3954 234.08379Q411.6454 233.03691 410.55164 233.03691Q409.4579 233.03691 408.80164 233.95879Q407.98914 235.13066 407.98914 238.30254ZM416.661 234.86504Q416.661 233.49004 417.3485 232.52129Q418.05164 231.55254 419.36414 231.55254Q420.5829 231.55254 421.37976 232.42754Q422.17664 233.28691 422.17664 234.97441Q422.17664 236.59941 421.36414 237.49004Q420.56726 238.36504 419.37976 238.36504Q418.2235 238.36504 417.44226 237.50566Q416.661 236.63066 416.661 234.86504ZM419.411 232.64629Q418.81726 232.64629 418.42664 233.16191Q418.036 233.66191 418.036 235.02129Q418.036 236.27129 418.42664 236.77129Q418.8329 237.27129 419.411 237.27129Q420.00476 237.27129 420.3954 236.77129Q420.786 236.25566 420.786 234.91191Q420.786 233.66191 420.3954 233.16191Q420.00476 232.64629 419.411 232.64629ZM419.42664 245.13066L426.4735 231.55254L427.75476 231.55254L420.7235 245.13066L419.42664 245.13066ZM424.98914 241.63066Q424.98914 240.25566 425.67664 239.28691Q426.37976 238.31816 427.7079 238.31816Q428.92664 238.31816 429.7079 239.19316Q430.50476 240.05254 430.50476 241.74004Q430.50476 243.36504 429.7079 244.25566Q428.911 245.13066 427.7235 245.13066Q426.55164 245.13066 425.7704 244.25566Q424.98914 243.38066 424.98914 241.63066ZM427.75476 239.41191Q427.161 239.41191 426.7704 239.92754Q426.37976 240.42754 426.37976 241.80254Q426.37976 243.02129 426.7704 243.53691Q427.161 244.05254 427.73914 244.05254Q428.3485 244.05254 428.73914 243.53691Q429.12976 243.02129 429.12976 241.67754Q429.12976 240.42754 428.73914 239.92754Q428.3485 239.41191 427.75476 239.41191Z" fill-rule="nonzero"/><path fill="#ffffff" d="M315.6817 316.29745L314.10358 316.29745L314.10358 306.21933Q313.52545 306.7662 312.60358 307.31308Q311.6817 307.84433 310.9317 308.12558L310.9317 306.59433Q312.25983 305.96933 313.25983 305.0787Q314.25983 304.18808 314.66608 303.35995L315.6817 303.35995L315.6817 316.29745ZM319.72858 309.93808Q319.72858 307.65683 320.19733 306.2662Q320.66608 304.87558 321.58795 304.12558Q322.52545 303.35995 323.9317 303.35995Q324.96295 303.35995 325.7442 303.78183Q326.52545 304.18808 327.02545 304.98495Q327.54108 305.7662 327.83795 306.90683Q328.13483 308.03183 328.13483 309.93808Q328.13483 312.2037 327.66608 313.60995Q327.19733 315.00058 326.25983 315.7662Q325.33795 316.5162 323.9317 316.5162Q322.0567 316.5162 320.9942 315.18808Q319.72858 313.5787 319.72858 309.93808ZM321.35358 309.93808Q321.35358 313.10995 322.08795 314.17245Q322.83795 315.21933 323.9317 315.21933Q325.00983 315.21933 325.75983 314.17245Q326.50983 313.10995 326.50983 309.93808Q326.50983 306.7662 325.75983 305.71933Q325.00983 304.67245 323.91608 304.67245Q322.82233 304.67245 322.16608 305.59433Q321.35358 306.7662 321.35358 309.93808ZM330.6192 316.29745L330.6192 314.50058L332.41608 314.50058L332.41608 316.29745L330.6192 316.29745ZM334.72858 309.93808Q334.72858 307.65683 335.19733 306.2662Q335.66608 304.87558 336.58795 304.12558Q337.52545 303.35995 338.9317 303.35995Q339.96295 303.35995 340.7442 303.78183Q341.52545 304.18808 342.02545 304.98495Q342.54108 305.7662 342.83795 306.90683Q343.13483 308.03183 343.13483 309.93808Q343.13483 312.2037 342.66608 313.60995Q342.19733 315.00058 341.25983 315.7662Q340.33795 316.5162 338.9317 316.5162Q337.0567 316.5162 335.9942 315.18808Q334.72858 313.5787 334.72858 309.93808ZM336.35358 309.93808Q336.35358 313.10995 337.08795 314.17245Q337.83795 315.21933 338.9317 315.21933Q340.00983 315.21933 340.75983 314.17245Q341.50983 313.10995 341.50983 309.93808Q341.50983 306.7662 340.75983 305.71933Q340.00983 304.67245 338.91608 304.67245Q337.82233 304.67245 337.16608 305.59433Q336.35358 306.7662 336.35358 309.93808ZM345.02545 306.50058Q345.02545 305.12558 345.71295 304.15683Q346.41608 303.18808 347.72858 303.18808Q348.94733 303.18808 349.7442 304.06308Q350.54108 304.92245 350.54108 306.60995Q350.54108 308.23495 349.72858 309.12558Q348.9317 310.00058 347.7442 310.00058Q346.58795 310.00058 345.8067 309.1412Q345.02545 308.2662 345.02545 306.50058ZM347.77545 304.28183Q347.1817 304.28183 346.79108 304.79745Q346.40045 305.29745 346.40045 306.65683Q346.40045 307.90683 346.79108 308.40683Q347.19733 308.90683 347.77545 308.90683Q348.3692 308.90683 348.75983 308.40683Q349.15045 307.8912 349.15045 306.54745Q349.15045 305.29745 348.75983 304.79745Q348.3692 304.28183 347.77545 304.28183ZM347.79108 316.7662L354.83795 303.18808L356.1192 303.18808L349.08795 316.7662L347.79108 316.7662ZM353.35358 313.2662Q353.35358 311.8912 354.04108 310.92245Q354.7442 309.9537 356.07233 309.9537Q357.29108 309.9537 358.07233 310.8287Q358.8692 311.68808 358.8692 313.37558Q358.8692 315.00058 358.07233 315.8912Q357.27545 316.7662 356.08795 316.7662Q354.91608 316.7662 354.13483 315.8912Q353.35358 315.0162 353.35358 313.2662ZM356.1192 311.04745Q355.52545 311.04745 355.13483 311.56308Q354.7442 312.06308 354.7442 313.43808Q354.7442 314.65683 355.13483 315.17245Q355.52545 315.68808 356.10358 315.68808Q356.71295 315.68808 357.10358 315.17245Q357.4942 314.65683 357.4942 313.31308Q357.4942 312.06308 357.10358 311.56308Q356.71295 311.04745 356.1192 311.04745Z" fill-rule="nonzero"/><path fill="#ffffff" d="M246.72455 316.29745L245.14642 316.29745L245.14642 306.21933Q244.5683 306.7662 243.64642 307.31308Q242.72455 307.84433 241.97455 308.12558L241.97455 306.59433Q243.30267 305.96933 244.30267 305.0787Q245.30267 304.18808 245.70892 303.35995L246.72455 303.35995L246.72455 316.29745ZM250.77142 309.93808Q250.77142 307.65683 251.24017 306.2662Q251.70892 304.87558 252.6308 304.12558Q253.5683 303.35995 254.97455 303.35995Q256.0058 303.35995 256.78705 303.78183Q257.5683 304.18808 258.0683 304.98495Q258.58392 305.7662 258.8808 306.90683Q259.17767 308.03183 259.17767 309.93808Q259.17767 312.2037 258.70892 313.60995Q258.24017 315.00058 257.30267 315.7662Q256.3808 316.5162 254.97455 316.5162Q253.09955 316.5162 252.03705 315.18808Q250.77142 313.5787 250.77142 309.93808ZM252.39642 309.93808Q252.39642 313.10995 253.1308 314.17245Q253.8808 315.21933 254.97455 315.21933Q256.05267 315.21933 256.80267 314.17245Q257.55267 313.10995 257.55267 309.93808Q257.55267 306.7662 256.80267 305.71933Q256.05267 304.67245 254.95892 304.67245Q253.86517 304.67245 253.20892 305.59433Q252.39642 306.7662 252.39642 309.93808ZM261.66205 316.29745L261.66205 314.50058L263.45892 314.50058L263.45892 316.29745L261.66205 316.29745ZM265.77142 309.93808Q265.77142 307.65683 266.24017 306.2662Q266.70892 304.87558 267.6308 304.12558Q268.5683 303.35995 269.97455 303.35995Q271.0058 303.35995 271.78705 303.78183Q272.5683 304.18808 273.0683 304.98495Q273.58392 305.7662 273.8808 306.90683Q274.17767 308.03183 274.17767 309.93808Q274.17767 312.2037 273.70892 313.60995Q273.24017 315.00058 272.30267 315.7662Q271.3808 316.5162 269.97455 316.5162Q268.09955 316.5162 267.03705 315.18808Q265.77142 313.5787 265.77142 309.93808ZM267.39642 309.93808Q267.39642 313.10995 268.1308 314.17245Q268.8808 315.21933 269.97455 315.21933Q271.05267 315.21933 271.80267 314.17245Q272.55267 313.10995 272.55267 309.93808Q272.55267 306.7662 271.80267 305.71933Q271.05267 304.67245 269.95892 304.67245Q268.86517 304.67245 268.20892 305.59433Q267.39642 306.7662 267.39642 309.93808ZM276.0683 306.50058Q276.0683 305.12558 276.7558 304.15683Q277.45892 303.18808 278.77142 303.18808Q279.99017 303.18808 280.78705 304.06308Q281.58392 304.92245 281.58392 306.60995Q281.58392 308.23495 280.77142 309.12558Q279.97455 310.00058 278.78705 310.00058Q277.6308 310.00058 276.84955 309.1412Q276.0683 308.2662 276.0683 306.50058ZM278.8183 304.28183Q278.22455 304.28183 277.83392 304.79745Q277.4433 305.29745 277.4433 306.65683Q277.4433 307.90683 277.83392 308.40683Q278.24017 308.90683 278.8183 308.90683Q279.41205 308.90683 279.80267 308.40683Q280.1933 307.8912 280.1933 306.54745Q280.1933 305.29745 279.80267 304.79745Q279.41205 304.28183 278.8183 304.28183ZM278.83392 316.7662L285.8808 303.18808L287.16205 303.18808L280.1308 316.7662L278.83392 316.7662ZM284.39642 313.2662Q284.39642 311.8912 285.08392 310.92245Q285.78705 309.9537 287.11517 309.9537Q288.33392 309.9537 289.11517 310.8287Q289.91205 311.68808 289.91205 313.37558Q289.91205 315.00058 289.11517 315.8912Q288.3183 316.7662 287.1308 316.7662Q285.95892 316.7662 285.17767 315.8912Q284.39642 315.0162 284.39642 313.2662ZM287.16205 311.04745Q286.5683 311.04745 286.17767 311.56308Q285.78705 312.06308 285.78705 313.43808Q285.78705 314.65683 286.17767 315.17245Q286.5683 315.68808 287.14642 315.68808Q287.7558 315.68808 288.14642 315.17245Q288.53705 314.65683 288.53705 313.31308Q288.53705 312.06308 288.14642 311.56308Q287.7558 311.04745 287.16205 311.04745Z" fill-rule="nonzero"/><path fill="#ffffff" d="M177.44836 243.14629L177.44836 244.66191L168.93274 244.66191Q168.91711 244.08379 169.12024 243.56816Q169.44836 242.69316 170.15149 241.84941Q170.87024 241.00566 172.22961 239.89629Q174.32336 238.17754 175.05774 237.17754Q175.80774 236.16191 175.80774 235.27129Q175.80774 234.31816 175.13586 233.67754Q174.46399 233.03691 173.38586 233.03691Q172.22961 233.03691 171.54211 233.72441Q170.87024 234.41191 170.85461 235.61504L169.22961 235.44316Q169.40149 233.63066 170.47961 232.67754Q171.57336 231.72441 173.41711 231.72441Q175.26086 231.72441 176.33899 232.75566Q177.43274 233.78691 177.43274 235.30254Q177.43274 236.06816 177.10461 236.81816Q176.79211 237.56816 176.05774 238.39629Q175.32336 239.22441 173.62024 240.66191Q172.19836 241.86504 171.79211 242.28691Q171.38586 242.70879 171.13586 243.14629L177.44836 243.14629ZM179.13586 238.30254Q179.13586 236.02129 179.60461 234.63066Q180.07336 233.24004 180.99524 232.49004Q181.93274 231.72441 183.33899 231.72441Q184.37024 231.72441 185.15149 232.14629Q185.93274 232.55254 186.43274 233.34941Q186.94836 234.13066 187.24524 235.27129Q187.54211 236.39629 187.54211 238.30254Q187.54211 240.56816 187.07336 241.97441Q186.60461 243.36504 185.66711 244.13066Q184.74524 244.88066 183.33899 244.88066Q181.46399 244.88066 180.40149 243.55254Q179.13586 241.94316 179.13586 238.30254ZM180.76086 238.30254Q180.76086 241.47441 181.49524 242.53691Q182.24524 243.58379 183.33899 243.58379Q184.41711 243.58379 185.16711 242.53691Q185.91711 241.47441 185.91711 238.30254Q185.91711 235.13066 185.16711 234.08379Q184.41711 233.03691 183.32336 233.03691Q182.22961 233.03691 181.57336 233.95879Q180.76086 235.13066 180.76086 238.30254ZM190.02649 244.66191L190.02649 242.86504L191.82336 242.86504L191.82336 244.66191L190.02649 244.66191ZM194.13586 238.30254Q194.13586 236.02129 194.60461 234.63066Q195.07336 233.24004 195.99524 232.49004Q196.93274 231.72441 198.33899 231.72441Q199.37024 231.72441 200.15149 232.14629Q200.93274 232.55254 201.43274 233.34941Q201.94836 234.13066 202.24524 235.27129Q202.54211 236.39629 202.54211 238.30254Q202.54211 240.56816 202.07336 241.97441Q201.60461 243.36504 200.66711 244.13066Q199.74524 244.88066 198.33899 244.88066Q196.46399 244.88066 195.40149 243.55254Q194.13586 241.94316 194.13586 238.30254ZM195.76086 238.30254Q195.76086 241.47441 196.49524 242.53691Q197.24524 243.58379 198.33899 243.58379Q199.41711 243.58379 200.16711 242.53691Q200.91711 241.47441 200.91711 238.30254Q200.91711 235.13066 200.16711 234.08379Q199.41711 233.03691 198.32336 233.03691Q197.22961 233.03691 196.57336 233.95879Q195.76086 235.13066 195.76086 238.30254ZM204.43274 234.86504Q204.43274 233.49004 205.12024 232.52129Q205.82336 231.55254 207.13586 231.55254Q208.35461 231.55254 209.15149 232.42754Q209.94836 233.28691 209.94836 234.97441Q209.94836 236.59941 209.13586 237.49004Q208.33899 238.36504 207.15149 238.36504Q205.99524 238.36504 205.21399 237.50566Q204.43274 236.63066 204.43274 234.86504ZM207.18274 232.64629Q206.58899 232.64629 206.19836 233.16191Q205.80774 233.66191 205.80774 235.02129Q205.80774 236.27129 206.19836 236.77129Q206.60461 237.27129 207.18274 237.27129Q207.77649 237.27129 208.16711 236.77129Q208.55774 236.25566 208.55774 234.91191Q208.55774 233.66191 208.16711 233.16191Q207.77649 232.64629 207.18274 232.64629ZM207.19836 245.13066L214.24524 231.55254L215.52649 231.55254L208.49524 245.13066L207.19836 245.13066ZM212.76086 241.63066Q212.76086 240.25566 213.44836 239.28691Q214.15149 238.31816 215.47961 238.31816Q216.69836 238.31816 217.47961 239.19316Q218.27649 240.05254 218.27649 241.74004Q218.27649 243.36504 217.47961 244.25566Q216.68274 245.13066 215.49524 245.13066Q214.32336 245.13066 213.54211 244.25566Q212.76086 243.38066 212.76086 241.63066ZM215.52649 239.41191Q214.93274 239.41191 214.54211 239.92754Q214.15149 240.42754 214.15149 241.80254Q214.15149 243.02129 214.54211 243.53691Q214.93274 244.05254 215.51086 244.05254Q216.12024 244.05254 216.51086 243.53691Q216.90149 243.02129 216.90149 241.67754Q216.90149 240.42754 216.51086 239.92754Q216.12024 239.41191 215.52649 239.41191Z" fill-rule="nonzero"/><path fill="#ffffff" d="M217.98036 118.401634L217.98036 119.91726L209.46474 119.91726Q209.44911 119.339134 209.65224 118.82351Q209.98036 117.94851 210.68349 117.10476Q211.40224 116.26101 212.76161 115.151634Q214.85536 113.432884 215.58974 112.432884Q216.33974 111.41726 216.33974 110.526634Q216.33974 109.57351 215.66786 108.932884Q214.99599 108.29226 213.91786 108.29226Q212.76161 108.29226 212.07411 108.97976Q211.40224 109.66726 211.38661 110.870384L209.76161 110.69851Q209.93349 108.88601 211.01161 107.932884Q212.10536 106.97976 213.94911 106.97976Q215.79286 106.97976 216.87099 108.01101Q217.96474 109.04226 217.96474 110.557884Q217.96474 111.32351 217.63661 112.07351Q217.32411 112.82351 216.58974 113.651634Q215.85536 114.47976 214.15224 115.91726Q212.73036 117.120384 212.32411 117.54226Q211.91786 117.964134 211.66786 118.401634L217.98036 118.401634ZM219.66786 113.557884Q219.66786 111.276634 220.13661 109.88601Q220.60536 108.495384 221.52724 107.745384Q222.46474 106.97976 223.87099 106.97976Q224.90224 106.97976 225.68349 107.401634Q226.46474 107.807884 226.96474 108.60476Q227.48036 109.38601 227.77724 110.526634Q228.07411 111.651634 228.07411 113.557884Q228.07411 115.82351 227.60536 117.22976Q227.13661 118.620384 226.19911 119.38601Q225.27724 120.13601 223.87099 120.13601Q221.99599 120.13601 220.93349 118.807884Q219.66786 117.19851 219.66786 113.557884ZM221.29286 113.557884Q221.29286 116.72976 222.02724 117.79226Q222.77724 118.839134 223.87099 118.839134Q224.94911 118.839134 225.69911 117.79226Q226.44911 116.72976 226.44911 113.557884Q226.44911 110.38601 225.69911 109.339134Q224.94911 108.29226 223.85536 108.29226Q222.76161 108.29226 222.10536 109.214134Q221.29286 110.38601 221.29286 113.557884ZM230.55849 119.91726L230.55849 118.120384L232.35536 118.120384L232.35536 119.91726L230.55849 119.91726ZM234.66786 113.557884Q234.66786 111.276634 235.13661 109.88601Q235.60536 108.495384 236.52724 107.745384Q237.46474 106.97976 238.87099 106.97976Q239.90224 106.97976 240.68349 107.401634Q241.46474 107.807884 241.96474 108.60476Q242.48036 109.38601 242.77724 110.526634Q243.07411 111.651634 243.07411 113.557884Q243.07411 115.82351 242.60536 117.22976Q242.13661 118.620384 241.19911 119.38601Q240.27724 120.13601 238.87099 120.13601Q236.99599 120.13601 235.93349 118.807884Q234.66786 117.19851 234.66786 113.557884ZM236.29286 113.557884Q236.29286 116.72976 237.02724 117.79226Q237.77724 118.839134 238.87099 118.839134Q239.94911 118.839134 240.69911 117.79226Q241.44911 116.72976 241.44911 113.557884Q241.44911 110.38601 240.69911 109.339134Q239.94911 108.29226 238.85536 108.29226Q237.76161 108.29226 237.10536 109.214134Q236.29286 110.38601 236.29286 113.557884ZM244.96474 110.120384Q244.96474 108.745384 245.65224 107.776634Q246.35536 106.807884 247.66786 106.807884Q248.88661 106.807884 249.68349 107.682884Q250.48036 108.54226 250.48036 110.22976Q250.48036 111.85476 249.66786 112.745384Q248.87099 113.620384 247.68349 113.620384Q246.52724 113.620384 245.74599 112.76101Q244.96474 111.88601 244.96474 110.120384ZM247.71474 107.901634Q247.12099 107.901634 246.73036 108.41726Q246.33974 108.91726 246.33974 110.276634Q246.33974 111.526634 246.73036 112.026634Q247.13661 112.526634 247.71474 112.526634Q248.30849 112.526634 248.69911 112.026634Q249.08974 111.51101 249.08974 110.16726Q249.08974 108.91726 248.69911 108.41726Q248.30849 107.901634 247.71474 107.901634ZM247.73036 120.38601L254.77724 106.807884L256.05847 106.807884L249.02724 120.38601L247.73036 120.38601ZM253.29286 116.88601Q253.29286 115.51101 253.98036 114.54226Q254.68349 113.57351 256.0116 113.57351Q257.23035 113.57351 258.0116 114.44851Q258.80847 115.307884 258.80847 116.995384Q258.80847 118.620384 258.0116 119.51101Q257.21472 120.38601 256.02722 120.38601Q254.85536 120.38601 254.07411 119.51101Q253.29286 118.63601 253.29286 116.88601ZM256.05847 114.66726Q255.46474 114.66726 255.07411 115.182884Q254.68349 115.682884 254.68349 117.057884Q254.68349 118.276634 255.07411 118.79226Q255.46474 119.307884 256.04285 119.307884Q256.65222 119.307884 257.04285 118.79226Q257.43347 118.276634 257.43347 116.932884Q257.43347 115.682884 257.04285 115.182884Q256.65222 114.66726 256.05847 114.66726Z" fill-rule="nonzero"/><path stroke="#ffffff" stroke-width="1.0" stroke-linejoin="round" stroke-linecap="round" d="M370.74277 180.69762C360.78473 150.05 332.22482 129.3 300.0 129.3L300.0 54.916668C364.44962 54.916668 421.5695 96.416664 441.4855 157.7119" fill-rule="nonzero"/><path stroke="#ffffff" stroke-width="1.0" stroke-linejoin="round" stroke-linecap="round" d="M343.72144 263.86072C369.79184 244.91945 380.70078 211.34525 370.74277 180.69762L441.4855 157.7119C461.40155 219.00714 439.5837 286.15555 387.44284 324.0381" fill-rule="nonzero"/><path stroke="#ffffff" stroke-width="1.0" stroke-linejoin="round" stroke-linecap="round" d="M300.0 278.06668C315.70822 278.06668 331.0132 273.09378 343.72144 263.86072L387.44284 324.0381C362.02643 342.5042 331.41644 352.45 300.0 352.45" fill-rule="nonzero"/><path stroke="#ffffff" stroke-width="1.0" stroke-linejoin="round" stroke-linecap="round" d="M256.27856 263.86072C268.9868 273.09378 284.29178 278.06668 300.0 278.06668L300.0 352.45C268.58356 352.45 237.97357 342.5042 212.55714 324.0381" fill-rule="nonzero"/><path stroke="#ffffff" stroke-width="1.0" stroke-linejoin="round" stroke-linecap="round" d="M229.25725 180.69762C219.29922 211.34525 230.20815 244.91945 256.27856 263.86072L212.55714 324.0381C160.4163 286.15555 138.59846 219.00714 158.5145 157.7119" fill-rule="nonzero"/><path stroke="#ffffff" stroke-width="1.0" stroke-linejoin="round" stroke-linecap="round" d="M300.0 129.3C267.77518 129.3 239.21526 150.05 229.25725 180.69762L158.5145 157.7119C178.43053 96.416664 235.55037 54.916668 300.0 54.916668" fill-rule="nonzero"/><path fill="#efefef" d="M18.51875 83.84631L22.925 72.39319L24.565624 72.39319L29.253124 83.84631L27.51875 83.84631L26.190624 80.37756L21.39375 80.37756L20.14375 83.84631L18.51875 83.84631ZM21.83125 79.14319L25.721874 79.14319L24.51875 75.97131Q23.971874 74.51819 23.70625 73.59631Q23.4875 74.69006 23.096874 75.78381L21.83125 79.14319ZM30.596874 83.84631L30.596874 75.54944L31.8625 75.54944L31.8625 76.79944Q32.346874 75.92444 32.753124 75.64319Q33.159374 75.36194 33.659374 75.36194Q34.3625 75.36194 35.096874 75.81506L34.6125 77.11194Q34.096874 76.81506 33.58125 76.81506Q33.128124 76.81506 32.753124 77.09631Q32.39375 77.36194 32.2375 77.86194Q32.003124 78.61194 32.003124 79.50256L32.003124 83.84631L30.596874 83.84631ZM38.675 82.58069L38.878124 83.83069Q38.284374 83.95569 37.815624 83.95569Q37.05 83.95569 36.628124 83.72131Q36.20625 83.47131 36.034374 83.08069Q35.8625 82.67444 35.8625 81.40881L35.8625 76.64319L34.83125 76.64319L34.83125 75.54944L35.8625 75.54944L35.8625 73.48694L37.26875 72.64319L37.26875 75.54944L38.675 75.54944L38.675 76.64319L37.26875 76.64319L37.26875 81.48694Q37.26875 82.09631 37.33125 82.26819Q37.409374 82.44006 37.58125 82.54944Q37.753124 82.64319 38.065624 82.64319Q38.3 82.64319 38.675 82.58069ZM39.05 81.36194L40.440624 81.14319Q40.55 81.98694 41.08125 82.44006Q41.628124 82.87756 42.58125 82.87756Q43.55 82.87756 44.01875 82.48694Q44.4875 82.08069 44.4875 81.54944Q44.4875 81.08069 44.08125 80.79944Q43.784374 80.61194 42.64375 80.33069Q41.096874 79.94006 40.4875 79.65881Q39.89375 79.36194 39.58125 78.86194Q39.284374 78.36194 39.284374 77.75256Q39.284374 77.19006 39.534374 76.72131Q39.784374 76.25256 40.221874 75.94006Q40.55 75.69006 41.1125 75.53381Q41.690624 75.36194 42.33125 75.36194Q43.315624 75.36194 44.05 75.64319Q44.784374 75.92444 45.128124 76.40881Q45.4875 76.87756 45.628124 77.69006L44.253124 77.87756Q44.159374 77.23694 43.70625 76.87756Q43.253124 76.51819 42.440624 76.51819Q41.471874 76.51819 41.05 76.84631Q40.64375 77.15881 40.64375 77.58069Q40.64375 77.86194 40.815624 78.08069Q40.9875 78.29944 41.346874 78.45569Q41.565624 78.53381 42.596874 78.81506Q44.08125 79.20569 44.675 79.47131Q45.26875 79.72131 45.596874 80.20569Q45.940624 80.69006 45.940624 81.40881Q45.940624 82.11194 45.51875 82.73694Q45.1125 83.34631 44.33125 83.69006Q43.565624 84.03381 42.596874 84.03381Q40.971874 84.03381 40.128124 83.36194Q39.284374 82.69006 39.05 81.36194ZM58.159374 82.48694Q57.45625 83.26819 56.628124 83.65881Q55.815624 84.04944 54.8625 84.04944Q53.1125 84.04944 52.08125 82.84631Q51.2375 81.87756 51.2375 80.69006Q51.2375 79.62756 51.925 78.76819Q52.6125 77.90881 53.971874 77.26819Q53.190624 76.37756 52.925 75.83069Q52.675 75.26819 52.675 74.75256Q52.675 73.72131 53.4875 72.95569Q54.3 72.19006 55.51875 72.19006Q56.690624 72.19006 57.440624 72.90881Q58.190624 73.62756 58.190624 74.64319Q58.190624 76.26819 56.01875 77.42444L58.08125 80.04944Q58.425 79.36194 58.628124 78.45569L60.08125 78.76819Q59.70625 80.26819 59.065624 81.23694Q59.8625 82.28381 60.8625 82.98694L59.909374 84.11194Q59.065624 83.56506 58.159374 82.48694ZM55.3 76.51819Q56.20625 75.98694 56.471874 75.58069Q56.753124 75.17444 56.753124 74.67444Q56.753124 74.09631 56.378124 73.72131Q56.003124 73.34631 55.45625 73.34631Q54.878124 73.34631 54.503124 73.72131Q54.128124 74.08069 54.128124 74.61194Q54.128124 74.87756 54.253124 75.17444Q54.39375 75.47131 54.675 75.79944L55.3 76.51819ZM57.26875 81.37756L54.690624 78.19006Q53.55 78.86194 53.14375 79.45569Q52.753124 80.03381 52.753124 80.59631Q52.753124 81.29944 53.3 82.04944Q53.8625 82.79944 54.878124 82.79944Q55.51875 82.79944 56.190624 82.40881Q56.8625 82.00256 57.26875 81.37756ZM65.51875 83.84631L69.925 72.39319L71.56563 72.39319L76.25313 83.84631L74.51875 83.84631L73.19063 80.37756L68.39375 80.37756L67.14375 83.84631L65.51875 83.84631ZM68.83125 79.14319L72.72188 79.14319L71.51875 75.97131Q70.97188 74.51819 70.70625 73.59631Q70.4875 74.69006 70.09688 75.78381L68.83125 79.14319ZM77.6125 83.84631L77.6125 75.54944L78.87813 75.54944L78.87813 76.72131Q79.78438 75.36194 81.51875 75.36194Q82.26875 75.36194 82.89375 75.62756Q83.51875 75.89319 83.83125 76.33069Q84.14375 76.76819 84.26875 77.37756Q84.34688 77.76819 84.34688 78.73694L84.34688 83.84631L82.94063 83.84631L82.94063 78.79944Q82.94063 77.94006 82.76875 77.51819Q82.6125 77.08069 82.19063 76.83069Q81.78438 76.58069 81.22188 76.58069Q80.31563 76.58069 79.65938 77.15881Q79.01875 77.72131 79.01875 79.31506L79.01875 83.84631L77.6125 83.84631ZM89.675 82.58069L89.87813 83.83069Q89.28438 83.95569 88.81563 83.95569Q88.05 83.95569 87.62813 83.72131Q87.20625 83.47131 87.03438 83.08069Q86.8625 82.67444 86.8625 81.40881L86.8625 76.64319L85.83125 76.64319L85.83125 75.54944L86.8625 75.54944L86.8625 73.48694L88.26875 72.64319L88.26875 75.54944L89.675 75.54944L89.675 76.64319L88.26875 76.64319L88.26875 81.48694Q88.26875 82.09631 88.33125 82.26819Q88.40938 82.44006 88.58125 82.54944Q88.75313 82.64319 89.06563 82.64319Q89.3 82.64319 89.675 82.58069ZM90.6125 74.00256L90.6125 72.39319L92.01875 72.39319L92.01875 74.00256L90.6125 74.00256ZM90.6125 83.84631L90.6125 75.54944L92.01875 75.54944L92.01875 83.84631L90.6125 83.84631ZM99.89375 87.03381L99.89375 82.95569Q99.56563 83.42444 98.97188 83.73694Q98.39375 84.03381 97.72188 84.03381Q96.25313 84.03381 95.175 82.86194Q94.1125 81.67444 94.1125 79.61194Q94.1125 78.36194 94.55 77.37756Q94.9875 76.37756 95.8 75.87756Q96.62813 75.36194 97.6125 75.36194Q99.15938 75.36194 100.03438 76.65881L100.03438 75.54944L101.3 75.54944L101.3 87.03381L99.89375 87.03381ZM95.56563 79.67444Q95.56563 81.26819 96.2375 82.08069Q96.90938 82.87756 97.84688 82.87756Q98.7375 82.87756 99.37813 82.11194Q100.03438 81.34631 100.03438 79.79944Q100.03438 78.14319 99.34688 77.31506Q98.675 76.47131 97.75313 76.47131Q96.83125 76.47131 96.19063 77.25256Q95.56563 78.01819 95.56563 79.67444ZM109.05 83.84631L109.05 82.62756Q108.08125 84.03381 106.40938 84.03381Q105.675 84.03381 105.03438 83.75256Q104.40938 83.47131 104.09688 83.04944Q103.78438 82.61194 103.65938 82.00256Q103.58125 81.58069 103.58125 80.69006L103.58125 75.54944L104.9875 75.54944L104.9875 80.14319Q104.9875 81.25256 105.06563 81.62756Q105.20625 82.19006 105.62813 82.50256Q106.06563 82.81506 106.69063 82.81506Q107.33125 82.81506 107.87813 82.50256Q108.44063 82.17444 108.65938 81.61194Q108.89375 81.04944 108.89375 79.98694L108.89375 75.54944L110.3 75.54944L110.3 83.84631L109.05 83.84631ZM112.6125 74.00256L112.6125 72.39319L114.01875 72.39319L114.01875 74.00256L112.6125 74.00256ZM112.6125 83.84631L112.6125 75.54944L114.01875 75.54944L114.01875 83.84631L112.6125 83.84631ZM119.675 82.58069L119.87813 83.83069Q119.28438 83.95569 118.81563 83.95569Q118.05 83.95569 117.62813 83.72131Q117.20625 83.47131 117.03438 83.08069Q116.8625 82.67444 116.8625 81.40881L116.8625 76.64319L115.83125 76.64319L115.83125 75.54944L116.8625 75.54944L116.8625 73.48694L118.26875 72.64319L118.26875 75.54944L119.675 75.54944L119.675 76.64319L118.26875 76.64319L118.26875 81.48694Q118.26875 82.09631 118.33125 82.26819Q118.40938 82.44006 118.58125 82.54944Q118.75313 82.64319 119.06563 82.64319Q119.3 82.64319 119.675 82.58069ZM120.6125 74.00256L120.6125 72.39319L122.01875 72.39319L122.01875 74.00256L120.6125 74.00256ZM120.6125 83.84631L120.6125 75.54944L122.01875 75.54944L122.01875 83.84631L120.6125 83.84631ZM130.28438 81.17444L131.7375 81.34631Q131.39375 82.62756 130.45625 83.33069Q129.53438 84.03381 128.09688 84.03381Q126.26875 84.03381 125.20625 82.90881Q124.14375 81.78381 124.14375 79.76819Q124.14375 77.67444 125.22188 76.51819Q126.3 75.36194 128.01875 75.36194Q129.675 75.36194 130.72188 76.50256Q131.78438 77.62756 131.78438 79.67444Q131.78438 79.79944 131.78438 80.04944L125.59688 80.04944Q125.675 81.42444 126.3625 82.15881Q127.06563 82.87756 128.09688 82.87756Q128.87813 82.87756 129.425 82.47131Q129.97188 82.06506 130.28438 81.17444ZM125.675 78.89319L130.3 78.89319Q130.20625 77.84631 129.76875 77.33069Q129.09688 76.51819 128.03438 76.51819Q127.06563 76.51819 126.39375 77.17444Q125.7375 77.81506 125.675 78.89319ZM133.05 81.36194L134.44063 81.14319Q134.55 81.98694 135.08125 82.44006Q135.62813 82.87756 136.58125 82.87756Q137.55 82.87756 138.01875 82.48694Q138.4875 82.08069 138.4875 81.54944Q138.4875 81.08069 138.08125 80.79944Q137.78438 80.61194 136.64375 80.33069Q135.09688 79.94006 134.4875 79.65881Q133.89375 79.36194 133.58125 78.86194Q133.28438 78.36194 133.28438 77.75256Q133.28438 77.19006 133.53438 76.72131Q133.78438 76.25256 134.22188 75.94006Q134.55 75.69006 135.1125 75.53381Q135.69063 75.36194 136.33125 75.36194Q137.31563 75.36194 138.05 75.64319Q138.78438 75.92444 139.12813 76.40881Q139.4875 76.87756 139.62813 77.69006L138.25313 77.87756Q138.15938 77.23694 137.70625 76.87756Q137.25313 76.51819 136.44063 76.51819Q135.47188 76.51819 135.05 76.84631Q134.64375 77.15881 134.64375 77.58069Q134.64375 77.86194 134.81563 78.08069Q134.9875 78.29944 135.34688 78.45569Q135.56563 78.53381 136.59688 78.81506Q138.08125 79.20569 138.675 79.47131Q139.26875 79.72131 139.59688 80.20569Q139.94063 80.69006 139.94063 81.40881Q139.94063 82.11194 139.51875 82.73694Q139.1125 83.34631 138.33125 83.69006Q137.56563 84.03381 136.59688 84.03381Q134.97188 84.03381 134.12813 83.36194Q133.28438 82.69006 133.05 81.36194Z" fill-rule="nonzero"/><path fill="#9e9e9e" d="M26.6125 104.48694L26.6125 105.84631L19.034374 105.84631Q19.01875 105.33069 19.20625 104.86194Q19.4875 104.09631 20.128124 103.34631Q20.76875 102.59631 21.971874 101.61194Q23.83125 100.08069 24.4875 99.19006Q25.14375 98.28381 25.14375 97.48694Q25.14375 96.65881 24.55 96.08069Q23.95625 95.50256 22.9875 95.50256Q21.971874 95.50256 21.3625 96.11194Q20.753124 96.72131 20.753124 97.79944L19.3 97.65881Q19.45625 96.03381 20.425 95.19006Q21.39375 94.34631 23.01875 94.34631Q24.675 94.34631 25.628124 95.26819Q26.596874 96.17444 26.596874 97.51819Q26.596874 98.20569 26.315624 98.87756Q26.034374 99.53381 25.378124 100.26819Q24.721874 101.00256 23.20625 102.28381Q21.940624 103.34631 21.58125 103.73694Q21.221874 104.11194 20.9875 104.48694L26.6125 104.48694ZM28.221874 100.19006Q28.221874 98.15881 28.628124 96.92444Q29.05 95.69006 29.878124 95.01819Q30.70625 94.34631 31.95625 94.34631Q32.878124 94.34631 33.565624 94.72131Q34.26875 95.08069 34.721874 95.78381Q35.175 96.48694 35.425 97.48694Q35.690624 98.48694 35.690624 100.19006Q35.690624 102.20569 35.26875 103.45569Q34.8625 104.69006 34.034374 105.37756Q33.20625 106.04944 31.95625 106.04944Q30.3 106.04944 29.346874 104.84631Q28.221874 103.42444 28.221874 100.19006ZM29.659374 100.19006Q29.659374 103.01819 30.315624 103.95569Q30.9875 104.87756 31.95625 104.87756Q32.925 104.87756 33.58125 103.94006Q34.2375 103.00256 34.2375 100.19006Q34.2375 97.36194 33.58125 96.44006Q32.925 95.50256 31.940624 95.50256Q30.971874 95.50256 30.39375 96.33069Q29.659374 97.37756 29.659374 100.19006ZM38.003124 105.84631L38.003124 104.23694L39.6125 104.23694L39.6125 105.84631L38.003124 105.84631ZM41.221874 100.19006Q41.221874 98.15881 41.628124 96.92444Q42.05 95.69006 42.878124 95.01819Q43.70625 94.34631 44.95625 94.34631Q45.878124 94.34631 46.565624 94.72131Q47.26875 95.08069 47.721874 95.78381Q48.175 96.48694 48.425 97.48694Q48.690624 98.48694 48.690624 100.19006Q48.690624 102.20569 48.26875 103.45569Q47.8625 104.69006 47.034374 105.37756Q46.20625 106.04944 44.95625 106.04944Q43.3 106.04944 42.346874 104.84631Q41.221874 103.42444 41.221874 100.19006ZM42.659374 100.19006Q42.659374 103.01819 43.315624 103.95569Q43.9875 104.87756 44.95625 104.87756Q45.925 104.87756 46.58125 103.94006Q47.2375 103.00256 47.2375 100.19006Q47.2375 97.36194 46.58125 96.44006Q45.925 95.50256 44.940624 95.50256Q43.971874 95.50256 43.39375 96.33069Q42.659374 97.37756 42.659374 100.19006ZM50.4875 97.14319Q50.4875 95.90881 51.096874 95.04944Q51.721874 94.19006 52.89375 94.19006Q53.971874 94.19006 54.675 94.97131Q55.378124 95.73694 55.378124 97.22131Q55.378124 98.67444 54.659374 99.47131Q53.95625 100.25256 52.909374 100.25256Q51.8625 100.25256 51.175 99.48694Q50.4875 98.70569 50.4875 97.14319ZM52.925 95.15881Q52.409374 95.15881 52.05 95.61194Q51.70625 96.06506 51.70625 97.28381Q51.70625 98.37756 52.05 98.83069Q52.409374 99.28381 52.925 99.28381Q53.45625 99.28381 53.8 98.83069Q54.159374 98.37756 54.159374 97.17444Q54.159374 96.06506 53.8 95.61194Q53.45625 95.15881 52.925 95.15881ZM52.940624 106.26819L59.20625 94.19006L60.346874 94.19006L54.096874 106.26819L52.940624 106.26819ZM57.89375 103.15881Q57.89375 101.92444 58.503124 101.06506Q59.128124 100.20569 60.3 100.20569Q61.378124 100.20569 62.08125 100.98694Q62.8 101.75256 62.8 103.23694Q62.8 104.69006 62.08125 105.48694Q61.3625 106.26819 60.315624 106.26819Q59.26875 106.26819 58.58125 105.48694Q57.89375 104.70569 57.89375 103.15881ZM60.346874 101.17444Q59.815624 101.17444 59.45625 101.62756Q59.1125 102.08069 59.1125 103.29944Q59.1125 104.39319 59.45625 104.84631Q59.815624 105.29944 60.33125 105.29944Q60.878124 105.29944 61.221874 104.84631Q61.565624 104.39319 61.565624 103.19006Q61.565624 102.08069 61.20625 101.62756Q60.8625 101.17444 60.346874 101.17444Z" fill-rule="nonzero"/><path stroke="#757575" stroke-width="1.0" stroke-linecap="butt" d="M18.55 89.34631L145.23334 89.34631L216.92929 89.34631" fill-rule="nonzero"/><path fill="#9e9e9e" d="M218.92929 89.34631C218.92929 88.24174 218.03386 87.34631 216.92929 87.34631C215.82472 87.34631 214.92929 88.24174 214.92929 89.34631C214.92929 90.45088 215.82472 91.34631 216.92929 91.34631C218.03386 91.34631 218.92929 90.45088 218.92929 89.34631" fill-rule="nonzero"/><path fill="#efefef" d="M18.51875 241.85619L22.925 230.40306L24.565624 230.40306L29.253124 241.85619L27.51875 241.85619L26.190624 238.38744L21.39375 238.38744L20.14375 241.85619L18.51875 241.85619ZM21.83125 237.15306L25.721874 237.15306L24.51875 233.98119Q23.971874 232.52806 23.70625 231.60619Q23.4875 232.69994 23.096874 233.79369L21.83125 237.15306ZM30.596874 241.85619L30.596874 233.55931L31.8625 233.55931L31.8625 234.80931Q32.346874 233.93431 32.753124 233.65306Q33.159374 233.37181 33.659374 233.37181Q34.3625 233.37181 35.096874 233.82494L34.6125 235.12181Q34.096874 234.82494 33.58125 234.82494Q33.128124 234.82494 32.753124 235.10619Q32.39375 235.37181 32.2375 235.87181Q32.003124 236.62181 32.003124 237.51244L32.003124 241.85619L30.596874 241.85619ZM41.01875 238.80931L42.409374 238.99681Q42.175 240.41869 41.2375 241.23119Q40.315624 242.04369 38.95625 242.04369Q37.253124 242.04369 36.20625 240.93431Q35.175 239.80931 35.175 237.73119Q35.175 236.38744 35.6125 235.38744Q36.065624 234.37181 36.971874 233.87181Q37.89375 233.37181 38.95625 233.37181Q40.315624 233.37181 41.175 234.05931Q42.034374 234.73119 42.26875 235.99681L40.909374 236.19994Q40.70625 235.37181 40.20625 234.94994Q39.721874 234.52806 39.01875 234.52806Q37.95625 234.52806 37.284374 235.29369Q36.628124 236.04369 36.628124 237.69994Q36.628124 239.37181 37.26875 240.13744Q37.909374 240.88744 38.940624 240.88744Q39.76875 240.88744 40.315624 240.38744Q40.878124 239.87181 41.01875 238.80931ZM43.6125 241.85619L43.6125 230.40306L45.01875 230.40306L45.01875 234.51244Q46.003124 233.37181 47.503124 233.37181Q48.425 233.37181 49.096874 233.73119Q49.784374 234.09056 50.065624 234.73119Q50.3625 235.37181 50.3625 236.59056L50.3625 241.85619L48.95625 241.85619L48.95625 236.59056Q48.95625 235.54369 48.503124 235.05931Q48.05 234.57494 47.20625 234.57494Q46.58125 234.57494 46.034374 234.90306Q45.4875 235.23119 45.253124 235.79369Q45.01875 236.34056 45.01875 237.30931L45.01875 241.85619L43.6125 241.85619ZM52.6125 232.01244L52.6125 230.40306L54.01875 230.40306L54.01875 232.01244L52.6125 232.01244ZM52.6125 241.85619L52.6125 233.55931L54.01875 233.55931L54.01875 241.85619L52.6125 241.85619ZM59.675 240.59056L59.878124 241.84056Q59.284374 241.96556 58.815624 241.96556Q58.05 241.96556 57.628124 241.73119Q57.20625 241.48119 57.034374 241.09056Q56.8625 240.68431 56.8625 239.41869L56.8625 234.65306L55.83125 234.65306L55.83125 233.55931L56.8625 233.55931L56.8625 231.49681L58.26875 230.65306L58.26875 233.55931L59.675 233.55931L59.675 234.65306L58.26875 234.65306L58.26875 239.49681Q58.26875 240.10619 58.33125 240.27806Q58.409374 240.44994 58.58125 240.55931Q58.753124 240.65306 59.065624 240.65306Q59.3 240.65306 59.675 240.59056ZM66.28438 239.18431L67.7375 239.35619Q67.39375 240.63744 66.45625 241.34056Q65.53438 242.04369 64.09688 242.04369Q62.26875 242.04369 61.20625 240.91869Q60.14375 239.79369 60.14375 237.77806Q60.14375 235.68431 61.221874 234.52806Q62.3 233.37181 64.01875 233.37181Q65.675 233.37181 66.72188 234.51244Q67.78438 235.63744 67.78438 237.68431Q67.78438 237.80931 67.78438 238.05931L61.596874 238.05931Q61.675 239.43431 62.3625 240.16869Q63.065624 240.88744 64.09688 240.88744Q64.87813 240.88744 65.425 240.48119Q65.97188 240.07494 66.28438 239.18431ZM61.675 236.90306L66.3 236.90306Q66.20625 235.85619 65.76875 235.34056Q65.09688 234.52806 64.03438 234.52806Q63.065624 234.52806 62.39375 235.18431Q61.7375 235.82494 61.675 236.90306ZM75.01875 238.80931L76.40938 238.99681Q76.175 240.41869 75.2375 241.23119Q74.31563 242.04369 72.95625 242.04369Q71.25313 242.04369 70.20625 240.93431Q69.175 239.80931 69.175 237.73119Q69.175 236.38744 69.6125 235.38744Q70.06563 234.37181 70.97188 233.87181Q71.89375 233.37181 72.95625 233.37181Q74.31563 233.37181 75.175 234.05931Q76.03438 234.73119 76.26875 235.99681L74.90938 236.19994Q74.70625 235.37181 74.20625 234.94994Q73.72188 234.52806 73.01875 234.52806Q71.95625 234.52806 71.28438 235.29369Q70.62813 236.04369 70.62813 237.69994Q70.62813 239.37181 71.26875 240.13744Q71.90938 240.88744 72.94063 240.88744Q73.76875 240.88744 74.31563 240.38744Q74.87813 239.87181 75.01875 238.80931ZM80.675 240.59056L80.87813 241.84056Q80.28438 241.96556 79.81563 241.96556Q79.05 241.96556 78.62813 241.73119Q78.20625 241.48119 78.03438 241.09056Q77.8625 240.68431 77.8625 239.41869L77.8625 234.65306L76.83125 234.65306L76.83125 233.55931L77.8625 233.55931L77.8625 231.49681L79.26875 230.65306L79.26875 233.55931L80.675 233.55931L80.675 234.65306L79.26875 234.65306L79.26875 239.49681Q79.26875 240.10619 79.33125 240.27806Q79.40938 240.44994 79.58125 240.55931Q79.75313 240.65306 80.06563 240.65306Q80.3 240.65306 80.675 240.59056ZM87.05 241.85619L87.05 240.63744Q86.08125 242.04369 84.40938 242.04369Q83.675 242.04369 83.03438 241.76244Q82.40938 241.48119 82.09688 241.05931Q81.78438 240.62181 81.65938 240.01244Q81.58125 239.59056 81.58125 238.69994L81.58125 233.55931L82.9875 233.55931L82.9875 238.15306Q82.9875 239.26244 83.06563 239.63744Q83.20625 240.19994 83.62813 240.51244Q84.06563 240.82494 84.69063 240.82494Q85.33125 240.82494 85.87813 240.51244Q86.44063 240.18431 86.65938 239.62181Q86.89375 239.05931 86.89375 237.99681L86.89375 233.55931L88.3 233.55931L88.3 241.85619L87.05 241.85619ZM90.59688 241.85619L90.59688 233.55931L91.8625 233.55931L91.8625 234.80931Q92.34688 233.93431 92.75313 233.65306Q93.15938 233.37181 93.65938 233.37181Q94.3625 233.37181 95.09688 233.82494L94.6125 235.12181Q94.09688 234.82494 93.58125 234.82494Q93.12813 234.82494 92.75313 235.10619Q92.39375 235.37181 92.2375 235.87181Q92.00313 236.62181 92.00313 237.51244L92.00313 241.85619L90.59688 241.85619ZM101.28438 239.18431L102.7375 239.35619Q102.39375 240.63744 101.45625 241.34056Q100.53438 242.04369 99.09688 242.04369Q97.26875 242.04369 96.20625 240.91869Q95.14375 239.79369 95.14375 237.77806Q95.14375 235.68431 96.22188 234.52806Q97.3 233.37181 99.01875 233.37181Q100.675 233.37181 101.72188 234.51244Q102.78438 235.63744 102.78438 237.68431Q102.78438 237.80931 102.78438 238.05931L96.59688 238.05931Q96.675 239.43431 97.3625 240.16869Q98.06563 240.88744 99.09688 240.88744Q99.87813 240.88744 100.425 240.48119Q100.97188 240.07494 101.28438 239.18431ZM96.675 236.90306L101.3 236.90306Q101.20625 235.85619 100.76875 235.34056Q100.09688 234.52806 99.03438 234.52806Q98.06563 234.52806 97.39375 235.18431Q96.7375 235.82494 96.675 236.90306ZM115.15938 240.49681Q114.45625 241.27806 113.62813 241.66869Q112.81563 242.05931 111.8625 242.05931Q110.1125 242.05931 109.08125 240.85619Q108.2375 239.88744 108.2375 238.69994Q108.2375 237.63744 108.925 236.77806Q109.6125 235.91869 110.97188 235.27806Q110.19063 234.38744 109.925 233.84056Q109.675 233.27806 109.675 232.76244Q109.675 231.73119 110.4875 230.96556Q111.3 230.19994 112.51875 230.19994Q113.69063 230.19994 114.44063 230.91869Q115.19063 231.63744 115.19063 232.65306Q115.19063 234.27806 113.01875 235.43431L115.08125 238.05931Q115.425 237.37181 115.62813 236.46556L117.08125 236.77806Q116.70625 238.27806 116.06563 239.24681Q116.8625 240.29369 117.8625 240.99681L116.90938 242.12181Q116.06563 241.57494 115.15938 240.49681ZM112.3 234.52806Q113.20625 233.99681 113.47188 233.59056Q113.75313 233.18431 113.75313 232.68431Q113.75313 232.10619 113.37813 231.73119Q113.00313 231.35619 112.45625 231.35619Q111.87813 231.35619 111.50313 231.73119Q111.12813 232.09056 111.12813 232.62181Q111.12813 232.88744 111.25313 233.18431Q111.39375 233.48119 111.675 233.80931L112.3 234.52806ZM114.26875 239.38744L111.69063 236.19994Q110.55 236.87181 110.14375 237.46556Q109.75313 238.04369 109.75313 238.60619Q109.75313 239.30931 110.3 240.05931Q110.8625 240.80931 111.87813 240.80931Q112.51875 240.80931 113.19063 240.41869Q113.8625 240.01244 114.26875 239.38744Z" fill-rule="nonzero"/><path fill="#9e9e9e" d="M26.6125 262.49683L26.6125 263.8562L19.034374 263.8562Q19.01875 263.34058 19.20625 262.87183Q19.4875 262.1062 20.128124 261.3562Q20.76875 260.6062 21.971874 259.62183Q23.83125 258.09058 24.4875 257.19995Q25.14375 256.2937 25.14375 255.49683Q25.14375 254.6687 24.55 254.09058Q23.95625 253.51245 22.9875 253.51245Q21.971874 253.51245 21.3625 254.12183Q20.753124 254.7312 20.753124 255.80933L19.3 255.6687Q19.45625 254.0437 20.425 253.19995Q21.39375 252.3562 23.01875 252.3562Q24.675 252.3562 25.628124 253.27808Q26.596874 254.18433 26.596874 255.52808Q26.596874 256.21558 26.315624 256.88745Q26.034374 257.5437 25.378124 258.27808Q24.721874 259.01245 23.20625 260.2937Q21.940624 261.3562 21.58125 261.74683Q21.221874 262.12183 20.9875 262.49683L26.6125 262.49683ZM28.221874 258.19995Q28.221874 256.1687 28.628124 254.93433Q29.05 253.69995 29.878124 253.02808Q30.70625 252.3562 31.95625 252.3562Q32.878124 252.3562 33.565624 252.7312Q34.26875 253.09058 34.721874 253.7937Q35.175 254.49683 35.425 255.49683Q35.690624 256.49683 35.690624 258.19995Q35.690624 260.21558 35.26875 261.46558Q34.8625 262.69995 34.034374 263.38745Q33.20625 264.05933 31.95625 264.05933Q30.3 264.05933 29.346874 262.8562Q28.221874 261.43433 28.221874 258.19995ZM29.659374 258.19995Q29.659374 261.02808 30.315624 261.96558Q30.9875 262.88745 31.95625 262.88745Q32.925 262.88745 33.58125 261.94995Q34.2375 261.01245 34.2375 258.19995Q34.2375 255.37183 33.58125 254.44995Q32.925 253.51245 31.940624 253.51245Q30.971874 253.51245 30.39375 254.34058Q29.659374 255.38745 29.659374 258.19995ZM38.003124 263.8562L38.003124 262.24683L39.6125 262.24683L39.6125 263.8562L38.003124 263.8562ZM41.221874 258.19995Q41.221874 256.1687 41.628124 254.93433Q42.05 253.69995 42.878124 253.02808Q43.70625 252.3562 44.95625 252.3562Q45.878124 252.3562 46.565624 252.7312Q47.26875 253.09058 47.721874 253.7937Q48.175 254.49683 48.425 255.49683Q48.690624 256.49683 48.690624 258.19995Q48.690624 260.21558 48.26875 261.46558Q47.8625 262.69995 47.034374 263.38745Q46.20625 264.05933 44.95625 264.05933Q43.3 264.05933 42.346874 262.8562Q41.221874 261.43433 41.221874 258.19995ZM42.659374 258.19995Q42.659374 261.02808 43.315624 261.96558Q43.9875 262.88745 44.95625 262.88745Q45.925 262.88745 46.58125 261.94995Q47.2375 261.01245 47.2375 258.19995Q47.2375 255.37183 46.58125 254.44995Q45.925 253.51245 44.940624 253.51245Q43.971874 253.51245 43.39375 254.34058Q42.659374 255.38745 42.659374 258.19995ZM50.4875 255.15308Q50.4875 253.9187 51.096874 253.05933Q51.721874 252.19995 52.89375 252.19995Q53.971874 252.19995 54.675 252.9812Q55.378124 253.74683 55.378124 255.2312Q55.378124 256.68433 54.659374 257.4812Q53.95625 258.26245 52.909374 258.26245Q51.8625 258.26245 51.175 257.49683Q50.4875 256.71558 50.4875 255.15308ZM52.925 253.1687Q52.409374 253.1687 52.05 253.62183Q51.70625 254.07495 51.70625 255.2937Q51.70625 256.38745 52.05 256.84058Q52.409374 257.2937 52.925 257.2937Q53.45625 257.2937 53.8 256.84058Q54.159374 256.38745 54.159374 255.18433Q54.159374 254.07495 53.8 253.62183Q53.45625 253.1687 52.925 253.1687ZM52.940624 264.27808L59.20625 252.19995L60.346874 252.19995L54.096874 264.27808L52.940624 264.27808ZM57.89375 261.1687Q57.89375 259.93433 58.503124 259.07495Q59.128124 258.21558 60.3 258.21558Q61.378124 258.21558 62.08125 258.99683Q62.8 259.76245 62.8 261.24683Q62.8 262.69995 62.08125 263.49683Q61.3625 264.27808 60.315624 264.27808Q59.26875 264.27808 58.58125 263.49683Q57.89375 262.71558 57.89375 261.1687ZM60.346874 259.18433Q59.815624 259.18433 59.45625 259.63745Q59.1125 260.09058 59.1125 261.30933Q59.1125 262.40308 59.45625 262.8562Q59.815624 263.30933 60.33125 263.30933Q60.878124 263.30933 61.221874 262.8562Q61.565624 262.40308 61.565624 261.19995Q61.565624 260.09058 61.20625 259.63745Q60.8625 259.18433 60.346874 259.18433Z" fill-rule="nonzero"/><path stroke="#757575" stroke-width="1.0" stroke-linecap="butt" d="M18.55 247.35619L145.23334 247.35619L165.58876 247.35619" fill-rule="nonzero"/><path fill="#9e9e9e" d="M167.58876 247.35619C167.58876 246.25162 166.69334 245.35619 165.58876 245.35619C164.48419 245.35619 163.58876 246.25162 163.58876 247.35619C163.58876 248.46075 164.48419 249.35619 165.58876 249.35619C166.69334 249.35619 167.58876 248.46075 167.58876 247.35619" fill-rule="nonzero"/><path fill="#efefef" d="M19.7375 326.45L19.7375 314.9969L22.01875 314.9969L24.7375 323.10626Q25.1125 324.23126 25.284374 324.79376Q25.471874 324.16876 25.89375 322.96564L28.628124 314.9969L30.675 314.9969L30.675 326.45L29.20625 326.45L29.20625 316.85626L25.878124 326.45L24.51875 326.45L21.20625 316.7L21.20625 326.45L19.7375 326.45ZM32.6125 316.60626L32.6125 314.9969L34.01875 314.9969L34.01875 316.60626L32.6125 316.60626ZM32.6125 326.45L32.6125 318.15314L34.01875 318.15314L34.01875 326.45L32.6125 326.45ZM36.58125 326.45L36.58125 314.9969L37.9875 314.9969L37.9875 326.45L36.58125 326.45ZM40.6125 316.60626L40.6125 314.9969L42.01875 314.9969L42.01875 316.60626L40.6125 316.60626ZM40.6125 326.45L40.6125 318.15314L42.01875 318.15314L42.01875 326.45L40.6125 326.45ZM47.675 325.1844L47.878124 326.4344Q47.284374 326.5594 46.815624 326.5594Q46.05 326.5594 45.628124 326.325Q45.20625 326.075 45.034374 325.6844Q44.8625 325.27814 44.8625 324.0125L44.8625 319.2469L43.83125 319.2469L43.83125 318.15314L44.8625 318.15314L44.8625 316.09064L46.26875 315.2469L46.26875 318.15314L47.675 318.15314L47.675 319.2469L46.26875 319.2469L46.26875 324.09064Q46.26875 324.7 46.33125 324.8719Q46.409374 325.04376 46.58125 325.15314Q46.753124 325.2469 47.065624 325.2469Q47.3 325.2469 47.675 325.1844ZM54.01875 325.41876Q53.2375 326.09064 52.51875 326.3719Q51.8 326.6375 50.971874 326.6375Q49.596874 326.6375 48.8625 325.96564Q48.128124 325.29376 48.128124 324.2625Q48.128124 323.65314 48.409374 323.15314Q48.690624 322.6375 49.128124 322.34064Q49.58125 322.02814 50.14375 321.8719Q50.565624 321.7625 51.39375 321.66876Q53.096874 321.46564 53.909374 321.1844Q53.909374 320.8875 53.909374 320.8094Q53.909374 319.95 53.51875 319.60626Q52.971874 319.1219 51.909374 319.1219Q50.925 319.1219 50.440624 319.48126Q49.971874 319.825 49.753124 320.7L48.378124 320.5125Q48.565624 319.6375 48.9875 319.09064Q49.425 318.54376 50.2375 318.2625Q51.05 317.96564 52.1125 317.96564Q53.175 317.96564 53.83125 318.21564Q54.503124 318.46564 54.815624 318.84064Q55.128124 319.21564 55.253124 319.79376Q55.33125 320.15314 55.33125 321.09064L55.33125 322.96564Q55.33125 324.9344 55.409374 325.45Q55.503124 325.96564 55.76875 326.45L54.3 326.45Q54.08125 326.0125 54.01875 325.41876ZM53.909374 322.27814Q53.14375 322.59064 51.6125 322.8094Q50.7375 322.9344 50.378124 323.09064Q50.01875 323.2469 49.815624 323.5594Q49.628124 323.85626 49.628124 324.21564Q49.628124 324.77814 50.05 325.15314Q50.4875 325.52814 51.3 325.52814Q52.1125 325.52814 52.7375 325.1844Q53.378124 324.825 53.675 324.2Q53.909374 323.73126 53.909374 322.79376L53.909374 322.27814ZM57.596874 326.45L57.596874 318.15314L58.8625 318.15314L58.8625 319.40314Q59.346874 318.52814 59.753124 318.2469Q60.159374 317.96564 60.659374 317.96564Q61.3625 317.96564 62.096874 318.41876L61.6125 319.71564Q61.096874 319.41876 60.58125 319.41876Q60.128124 319.41876 59.753124 319.7Q59.39375 319.96564 59.2375 320.46564Q59.003124 321.21564 59.003124 322.10626L59.003124 326.45L57.596874 326.45ZM62.55 329.65314L62.39375 328.325Q62.846874 328.45 63.190624 328.45Q63.659374 328.45 63.940624 328.29376Q64.22188 328.1375 64.40938 327.85626Q64.53438 327.65314 64.83125 326.8094Q64.87813 326.7 64.95625 326.46564L61.815624 318.15314L63.33125 318.15314L65.05 322.95Q65.39375 323.8719 65.65938 324.8719Q65.89375 323.90314 66.2375 322.98126L68.00313 318.15314L69.40938 318.15314L66.25313 326.59064Q65.75313 327.96564 65.47188 328.48126Q65.09688 329.16876 64.6125 329.4969Q64.12813 329.825 63.45625 329.825Q63.05 329.825 62.55 329.65314Z" fill-rule="nonzero"/><path fill="#9e9e9e" d="M24.51875 348.45L23.1125 348.45L23.1125 339.48126Q22.596874 339.96564 21.76875 340.45Q20.95625 340.9344 20.3 341.1844L20.3 339.825Q21.471874 339.2625 22.346874 338.48126Q23.2375 337.6844 23.6125 336.95L24.51875 336.95L24.51875 348.45ZM28.221874 342.79376Q28.221874 340.7625 28.628124 339.52814Q29.05 338.29376 29.878124 337.6219Q30.70625 336.95 31.95625 336.95Q32.878124 336.95 33.565624 337.325Q34.26875 337.6844 34.721874 338.3875Q35.175 339.09064 35.425 340.09064Q35.690624 341.09064 35.690624 342.79376Q35.690624 344.8094 35.26875 346.0594Q34.8625 347.29376 34.034374 347.98126Q33.20625 348.65314 31.95625 348.65314Q30.3 348.65314 29.346874 347.45Q28.221874 346.02814 28.221874 342.79376ZM29.659374 342.79376Q29.659374 345.6219 30.315624 346.5594Q30.9875 347.48126 31.95625 347.48126Q32.925 347.48126 33.58125 346.54376Q34.2375 345.60626 34.2375 342.79376Q34.2375 339.96564 33.58125 339.04376Q32.925 338.10626 31.940624 338.10626Q30.971874 338.10626 30.39375 338.9344Q29.659374 339.98126 29.659374 342.79376ZM38.003124 348.45L38.003124 346.84064L39.6125 346.84064L39.6125 348.45L38.003124 348.45ZM41.221874 342.79376Q41.221874 340.7625 41.628124 339.52814Q42.05 338.29376 42.878124 337.6219Q43.70625 336.95 44.95625 336.95Q45.878124 336.95 46.565624 337.325Q47.26875 337.6844 47.721874 338.3875Q48.175 339.09064 48.425 340.09064Q48.690624 341.09064 48.690624 342.79376Q48.690624 344.8094 48.26875 346.0594Q47.8625 347.29376 47.034374 347.98126Q46.20625 348.65314 44.95625 348.65314Q43.3 348.65314 42.346874 347.45Q41.221874 346.02814 41.221874 342.79376ZM42.659374 342.79376Q42.659374 345.6219 43.315624 346.5594Q43.9875 347.48126 44.95625 347.48126Q45.925 347.48126 46.58125 346.54376Q47.2375 345.60626 47.2375 342.79376Q47.2375 339.96564 46.58125 339.04376Q45.925 338.10626 44.940624 338.10626Q43.971874 338.10626 43.39375 338.9344Q42.659374 339.98126 42.659374 342.79376ZM50.4875 339.7469Q50.4875 338.5125 51.096874 337.65314Q51.721874 336.79376 52.89375 336.79376Q53.971874 336.79376 54.675 337.575Q55.378124 338.34064 55.378124 339.825Q55.378124 341.27814 54.659374 342.075Q53.95625 342.85626 52.909374 342.85626Q51.8625 342.85626 51.175 342.09064Q50.4875 341.3094 50.4875 339.7469ZM52.925 337.7625Q52.409374 337.7625 52.05 338.21564Q51.70625 338.66876 51.70625 339.8875Q51.70625 340.98126 52.05 341.4344Q52.409374 341.8875 52.925 341.8875Q53.45625 341.8875 53.8 341.4344Q54.159374 340.98126 54.159374 339.77814Q54.159374 338.66876 53.8 338.21564Q53.45625 337.7625 52.925 337.7625ZM52.940624 348.8719L59.20625 336.79376L60.346874 336.79376L54.096874 348.8719L52.940624 348.8719ZM57.89375 345.7625Q57.89375 344.52814 58.503124 343.66876Q59.128124 342.8094 60.3 342.8094Q61.378124 342.8094 62.08125 343.59064Q62.8 344.35626 62.8 345.84064Q62.8 347.29376 62.08125 348.09064Q61.3625 348.8719 60.315624 348.8719Q59.26875 348.8719 58.58125 348.09064Q57.89375 347.3094 57.89375 345.7625ZM60.346874 343.77814Q59.815624 343.77814 59.45625 344.23126Q59.1125 344.6844 59.1125 345.90314Q59.1125 346.9969 59.45625 347.45Q59.815624 347.90314 60.33125 347.90314Q60.878124 347.90314 61.221874 347.45Q61.565624 346.9969 61.565624 345.79376Q61.565624 344.6844 61.20625 344.23126Q60.8625 343.77814 60.346874 343.77814Z" fill-rule="nonzero"/><path stroke="#757575" stroke-width="1.0" stroke-linecap="butt" d="M18.55 331.95L145.23334 331.95L256.32715 338.09457" fill-rule="nonzero"/><path fill="#9e9e9e" d="M258.32715 338.09457C258.32715 336.99 257.4317 336.09457 256.32715 336.09457C255.22258 336.09457 254.32715 336.99 254.32715 338.09457C254.32715 339.19913 255.22258 340.09457 256.32715 340.09457C257.4317 340.09457 258.32715 339.19913 258.32715 338.09457" fill-rule="nonzero"/><path fill="#efefef" d="M481.71564 83.84631L481.71564 72.39319L489.9969 72.39319L489.9969 73.73694L483.23126 73.73694L483.23126 77.25256L489.575 77.25256L489.575 78.59631L483.23126 78.59631L483.23126 82.48694L490.2625 82.48694L490.2625 83.84631L481.71564 83.84631ZM495.575 82.58069L495.77814 83.83069Q495.1844 83.95569 494.71564 83.95569Q493.95 83.95569 493.52814 83.72131Q493.10626 83.47131 492.9344 83.08069Q492.7625 82.67444 492.7625 81.40881L492.7625 76.64319L491.73126 76.64319L491.73126 75.54944L492.7625 75.54944L492.7625 73.48694L494.16876 72.64319L494.16876 75.54944L495.575 75.54944L495.575 76.64319L494.16876 76.64319L494.16876 81.48694Q494.16876 82.09631 494.23126 82.26819Q494.3094 82.44006 494.48126 82.54944Q494.65314 82.64319 494.96564 82.64319Q495.2 82.64319 495.575 82.58069ZM496.5125 83.84631L496.5125 72.39319L497.91876 72.39319L497.91876 76.50256Q498.90314 75.36194 500.40314 75.36194Q501.325 75.36194 501.9969 75.72131Q502.6844 76.08069 502.96564 76.72131Q503.2625 77.36194 503.2625 78.58069L503.2625 83.84631L501.85626 83.84631L501.85626 78.58069Q501.85626 77.53381 501.40314 77.04944Q500.95 76.56506 500.10626 76.56506Q499.48126 76.56506 498.9344 76.89319Q498.3875 77.22131 498.15314 77.78381Q497.91876 78.33069 497.91876 79.29944L497.91876 83.84631L496.5125 83.84631ZM505.5125 83.84631L505.5125 75.54944L506.77814 75.54944L506.77814 76.72131Q507.6844 75.36194 509.41876 75.36194Q510.16876 75.36194 510.79376 75.62756Q511.41876 75.89319 511.73126 76.33069Q512.04376 76.76819 512.16876 77.37756Q512.2469 77.76819 512.2469 78.73694L512.2469 83.84631L510.84064 83.84631L510.84064 78.79944Q510.84064 77.94006 510.66876 77.51819Q510.5125 77.08069 510.09064 76.83069Q509.6844 76.58069 509.1219 76.58069Q508.21564 76.58069 507.5594 77.15881Q506.91876 77.72131 506.91876 79.31506L506.91876 83.84631L505.5125 83.84631ZM514.5125 74.00256L514.5125 72.39319L515.91876 72.39319L515.91876 74.00256L514.5125 74.00256ZM514.5125 83.84631L514.5125 75.54944L515.91876 75.54944L515.91876 83.84631L514.5125 83.84631ZM523.91876 80.79944L525.3094 80.98694Q525.075 82.40881 524.1375 83.22131Q523.21564 84.03381 521.85626 84.03381Q520.15314 84.03381 519.10626 82.92444Q518.075 81.79944 518.075 79.72131Q518.075 78.37756 518.5125 77.37756Q518.96564 76.36194 519.8719 75.86194Q520.79376 75.36194 521.85626 75.36194Q523.21564 75.36194 524.075 76.04944Q524.9344 76.72131 525.16876 77.98694L523.8094 78.19006Q523.60626 77.36194 523.10626 76.94006Q522.6219 76.51819 521.91876 76.51819Q520.85626 76.51819 520.1844 77.28381Q519.52814 78.03381 519.52814 79.69006Q519.52814 81.36194 520.16876 82.12756Q520.8094 82.87756 521.84064 82.87756Q522.66876 82.87756 523.21564 82.37756Q523.77814 81.86194 523.91876 80.79944ZM536.04376 79.34631L536.04376 78.00256L540.90314 78.00256L540.90314 82.25256Q539.77814 83.14319 538.59064 83.59631Q537.40314 84.04944 536.15314 84.04944Q534.46564 84.04944 533.09064 83.33069Q531.71564 82.59631 531.0125 81.23694Q530.3094 79.86194 530.3094 78.17444Q530.3094 76.50256 530.9969 75.04944Q531.7 73.59631 533.0125 72.89319Q534.325 72.19006 536.04376 72.19006Q537.27814 72.19006 538.27814 72.59631Q539.29376 73.00256 539.85626 73.72131Q540.4344 74.44006 540.73126 75.59631L539.35626 75.97131Q539.10626 75.09631 538.71564 74.59631Q538.34064 74.09631 537.6219 73.79944Q536.91876 73.48694 536.04376 73.48694Q535.0125 73.48694 534.2469 73.81506Q533.4969 74.12756 533.02814 74.64319Q532.5594 75.15881 532.3094 75.76819Q531.8719 76.83069 531.8719 78.08069Q531.8719 79.61194 532.3875 80.64319Q532.91876 81.67444 533.91876 82.17444Q534.9344 82.67444 536.075 82.67444Q537.0594 82.67444 537.9969 82.29944Q538.9344 81.90881 539.41876 81.48694L539.41876 79.34631L536.04376 79.34631ZM542.4969 83.84631L542.4969 75.54944L543.7625 75.54944L543.7625 76.79944Q544.2469 75.92444 544.65314 75.64319Q545.0594 75.36194 545.5594 75.36194Q546.2625 75.36194 546.9969 75.81506L546.5125 77.11194Q545.9969 76.81506 545.48126 76.81506Q545.02814 76.81506 544.65314 77.09631Q544.29376 77.36194 544.1375 77.86194Q543.90314 78.61194 543.90314 79.50256L543.90314 83.84631L542.4969 83.84631ZM546.98126 79.69006Q546.98126 77.39319 548.2625 76.28381Q549.34064 75.36194 550.8719 75.36194Q552.59064 75.36194 553.66876 76.48694Q554.7625 77.59631 554.7625 79.58069Q554.7625 81.17444 554.27814 82.09631Q553.79376 83.01819 552.8719 83.53381Q551.96564 84.03381 550.8719 84.03381Q549.1375 84.03381 548.0594 82.92444Q546.98126 81.79944 546.98126 79.69006ZM548.4344 79.69006Q548.4344 81.28381 549.1219 82.08069Q549.825 82.87756 550.8719 82.87756Q551.91876 82.87756 552.60626 82.08069Q553.3094 81.28381 553.3094 79.64319Q553.3094 78.11194 552.60626 77.31506Q551.91876 76.51819 550.8719 76.51819Q549.825 76.51819 549.1219 77.31506Q548.4344 78.09631 548.4344 79.69006ZM561.95 83.84631L561.95 82.62756Q560.98126 84.03381 559.3094 84.03381Q558.575 84.03381 557.9344 83.75256Q557.3094 83.47131 556.9969 83.04944Q556.6844 82.61194 556.5594 82.00256Q556.48126 81.58069 556.48126 80.69006L556.48126 75.54944L557.8875 75.54944L557.8875 80.14319Q557.8875 81.25256 557.96564 81.62756Q558.10626 82.19006 558.52814 82.50256Q558.96564 82.81506 559.59064 82.81506Q560.23126 82.81506 560.77814 82.50256Q561.34064 82.17444 561.5594 81.61194Q561.79376 81.04944 561.79376 79.98694L561.79376 75.54944L563.2 75.54944L563.2 83.84631L561.95 83.84631ZM565.5125 87.03381L565.5125 75.54944L566.79376 75.54944L566.79376 76.62756Q567.2469 75.98694 567.8094 75.67444Q568.3875 75.36194 569.2 75.36194Q570.2625 75.36194 571.075 75.90881Q571.8875 76.45569 572.29376 77.45569Q572.71564 78.44006 572.71564 79.62756Q572.71564 80.90881 572.2469 81.92444Q571.79376 82.94006 570.91876 83.48694Q570.0594 84.03381 569.09064 84.03381Q568.3875 84.03381 567.825 83.73694Q567.27814 83.44006 566.91876 82.98694L566.91876 87.03381L565.5125 87.03381ZM566.77814 79.73694Q566.77814 81.34631 567.41876 82.11194Q568.075 82.87756 568.9969 82.87756Q569.9344 82.87756 570.60626 82.08069Q571.27814 81.28381 571.27814 79.62756Q571.27814 78.03381 570.6219 77.25256Q569.96564 76.45569 569.0594 76.45569Q568.16876 76.45569 567.46564 77.29944Q566.77814 78.14319 566.77814 79.73694ZM573.95 81.36194L575.34064 81.14319Q575.45 81.98694 575.98126 82.44006Q576.52814 82.87756 577.48126 82.87756Q578.45 82.87756 578.91876 82.48694Q579.3875 82.08069 579.3875 81.54944Q579.3875 81.08069 578.98126 80.79944Q578.6844 80.61194 577.54376 80.33069Q575.9969 79.94006 575.3875 79.65881Q574.79376 79.36194 574.48126 78.86194Q574.1844 78.36194 574.1844 77.75256Q574.1844 77.19006 574.4344 76.72131Q574.6844 76.25256 575.1219 75.94006Q575.45 75.69006 576.0125 75.53381Q576.59064 75.36194 577.23126 75.36194Q578.21564 75.36194 578.95 75.64319Q579.6844 75.92444 580.02814 76.40881Q580.3875 76.87756 580.52814 77.69006L579.15314 77.87756Q579.0594 77.23694 578.60626 76.87756Q578.15314 76.51819 577.34064 76.51819Q576.3719 76.51819 575.95 76.84631Q575.54376 77.15881 575.54376 77.58069Q575.54376 77.86194 575.71564 78.08069Q575.8875 78.29944 576.2469 78.45569Q576.46564 78.53381 577.4969 78.81506Q578.98126 79.20569 579.575 79.47131Q580.16876 79.72131 580.4969 80.20569Q580.84064 80.69006 580.84064 81.40881Q580.84064 82.11194 580.41876 82.73694Q580.0125 83.34631 579.23126 83.69006Q578.46564 84.03381 577.4969 84.03381Q575.8719 84.03381 575.02814 83.36194Q574.1844 82.69006 573.95 81.36194Z" fill-rule="nonzero"/><path fill="#9e9e9e" d="M544.5125 104.48694L544.5125 105.84631L536.9344 105.84631Q536.91876 105.33069 537.10626 104.86194Q537.3875 104.09631 538.02814 103.34631Q538.66876 102.59631 539.8719 101.61194Q541.73126 100.08069 542.3875 99.19006Q543.04376 98.28381 543.04376 97.48694Q543.04376 96.65881 542.45 96.08069Q541.85626 95.50256 540.8875 95.50256Q539.8719 95.50256 539.2625 96.11194Q538.65314 96.72131 538.65314 97.79944L537.2 97.65881Q537.35626 96.03381 538.325 95.19006Q539.29376 94.34631 540.91876 94.34631Q542.575 94.34631 543.52814 95.26819Q544.4969 96.17444 544.4969 97.51819Q544.4969 98.20569 544.21564 98.87756Q543.9344 99.53381 543.27814 100.26819Q542.6219 101.00256 541.10626 102.28381Q539.84064 103.34631 539.48126 103.73694Q539.1219 104.11194 538.8875 104.48694L544.5125 104.48694ZM546.1219 100.19006Q546.1219 98.15881 546.52814 96.92444Q546.95 95.69006 547.77814 95.01819Q548.60626 94.34631 549.85626 94.34631Q550.77814 94.34631 551.46564 94.72131Q552.16876 95.08069 552.6219 95.78381Q553.075 96.48694 553.325 97.48694Q553.59064 98.48694 553.59064 100.19006Q553.59064 102.20569 553.16876 103.45569Q552.7625 104.69006 551.9344 105.37756Q551.10626 106.04944 549.85626 106.04944Q548.2 106.04944 547.2469 104.84631Q546.1219 103.42444 546.1219 100.19006ZM547.5594 100.19006Q547.5594 103.01819 548.21564 103.95569Q548.8875 104.87756 549.85626 104.87756Q550.825 104.87756 551.48126 103.94006Q552.1375 103.00256 552.1375 100.19006Q552.1375 97.36194 551.48126 96.44006Q550.825 95.50256 549.84064 95.50256Q548.8719 95.50256 548.29376 96.33069Q547.5594 97.37756 547.5594 100.19006ZM555.90314 105.84631L555.90314 104.23694L557.5125 104.23694L557.5125 105.84631L555.90314 105.84631ZM559.1219 100.19006Q559.1219 98.15881 559.52814 96.92444Q559.95 95.69006 560.77814 95.01819Q561.60626 94.34631 562.85626 94.34631Q563.77814 94.34631 564.46564 94.72131Q565.16876 95.08069 565.6219 95.78381Q566.075 96.48694 566.325 97.48694Q566.59064 98.48694 566.59064 100.19006Q566.59064 102.20569 566.16876 103.45569Q565.7625 104.69006 564.9344 105.37756Q564.10626 106.04944 562.85626 106.04944Q561.2 106.04944 560.2469 104.84631Q559.1219 103.42444 559.1219 100.19006ZM560.5594 100.19006Q560.5594 103.01819 561.21564 103.95569Q561.8875 104.87756 562.85626 104.87756Q563.825 104.87756 564.48126 103.94006Q565.1375 103.00256 565.1375 100.19006Q565.1375 97.36194 564.48126 96.44006Q563.825 95.50256 562.84064 95.50256Q561.8719 95.50256 561.29376 96.33069Q560.5594 97.37756 560.5594 100.19006ZM568.3875 97.14319Q568.3875 95.90881 568.9969 95.04944Q569.6219 94.19006 570.79376 94.19006Q571.8719 94.19006 572.575 94.97131Q573.27814 95.73694 573.27814 97.22131Q573.27814 98.67444 572.5594 99.47131Q571.85626 100.25256 570.8094 100.25256Q569.7625 100.25256 569.075 99.48694Q568.3875 98.70569 568.3875 97.14319ZM570.825 95.15881Q570.3094 95.15881 569.95 95.61194Q569.60626 96.06506 569.60626 97.28381Q569.60626 98.37756 569.95 98.83069Q570.3094 99.28381 570.825 99.28381Q571.35626 99.28381 571.7 98.83069Q572.0594 98.37756 572.0594 97.17444Q572.0594 96.06506 571.7 95.61194Q571.35626 95.15881 570.825 95.15881ZM570.84064 106.26819L577.10626 94.19006L578.2469 94.19006L571.9969 106.26819L570.84064 106.26819ZM575.79376 103.15881Q575.79376 101.92444 576.40314 101.06506Q577.02814 100.20569 578.2 100.20569Q579.27814 100.20569 579.98126 100.98694Q580.7 101.75256 580.7 103.23694Q580.7 104.69006 579.98126 105.48694Q579.2625 106.26819 578.21564 106.26819Q577.16876 106.26819 576.48126 105.48694Q575.79376 104.70569 575.79376 103.15881ZM578.2469 101.17444Q577.71564 101.17444 577.35626 101.62756Q577.0125 102.08069 577.0125 103.29944Q577.0125 104.39319 577.35626 104.84631Q577.71564 105.29944 578.23126 105.29944Q578.77814 105.29944 579.1219 104.84631Q579.46564 104.39319 579.46564 103.19006Q579.46564 102.08069 579.10626 101.62756Q578.7625 101.17444 578.2469 101.17444Z" fill-rule="nonzero"/><path stroke="#757575" stroke-width="1.0" stroke-linecap="butt" d="M581.45 89.34631L454.76666 89.34631L383.0707 89.34631" fill-rule="nonzero"/><path fill="#9e9e9e" d="M385.0707 89.34631C385.0707 88.24174 384.1753 87.34631 383.0707 87.34631C381.96613 87.34631 381.0707 88.24174 381.0707 89.34631C381.0707 90.45088 381.96613 91.34631 383.0707 91.34631C384.1753 91.34631 385.0707 90.45088 385.0707 89.34631" fill-rule="nonzero"/><path fill="#efefef" d="M495.85626 237.84056L497.3719 238.21556Q496.90314 240.09056 495.65314 241.07494Q494.41876 242.05931 492.6375 242.05931Q490.77814 242.05931 489.6219 241.30931Q488.46564 240.54369 487.85626 239.12181Q487.2469 237.68431 487.2469 236.04369Q487.2469 234.24681 487.9344 232.91869Q488.6219 231.59056 489.8719 230.90306Q491.1375 230.19994 492.65314 230.19994Q494.3719 230.19994 495.54376 231.07494Q496.71564 231.94994 497.1844 233.54369L495.6844 233.88744Q495.29376 232.63744 494.52814 232.07494Q493.77814 231.49681 492.6219 231.49681Q491.3094 231.49681 490.41876 232.13744Q489.52814 232.76244 489.16876 233.84056Q488.8094 234.90306 488.8094 236.02806Q488.8094 237.49681 489.23126 238.59056Q489.66876 239.66869 490.5594 240.21556Q491.46564 240.74681 492.5125 240.74681Q493.77814 240.74681 494.65314 240.01244Q495.54376 239.27806 495.85626 237.84056ZM504.95 241.85619L504.95 240.63744Q503.98126 242.04369 502.3094 242.04369Q501.575 242.04369 500.9344 241.76244Q500.3094 241.48119 499.9969 241.05931Q499.6844 240.62181 499.5594 240.01244Q499.48126 239.59056 499.48126 238.69994L499.48126 233.55931L500.8875 233.55931L500.8875 238.15306Q500.8875 239.26244 500.96564 239.63744Q501.10626 240.19994 501.52814 240.51244Q501.96564 240.82494 502.59064 240.82494Q503.23126 240.82494 503.77814 240.51244Q504.34064 240.18431 504.5594 239.62181Q504.79376 239.05931 504.79376 237.99681L504.79376 233.55931L506.2 233.55931L506.2 241.85619L504.95 241.85619ZM508.48126 241.85619L508.48126 230.40306L509.8875 230.40306L509.8875 241.85619L508.48126 241.85619ZM515.575 240.59056L515.77814 241.84056Q515.1844 241.96556 514.71564 241.96556Q513.95 241.96556 513.52814 241.73119Q513.10626 241.48119 512.9344 241.09056Q512.7625 240.68431 512.7625 239.41869L512.7625 234.65306L511.73126 234.65306L511.73126 233.55931L512.7625 233.55931L512.7625 231.49681L514.16876 230.65306L514.16876 233.55931L515.575 233.55931L515.575 234.65306L514.16876 234.65306L514.16876 239.49681Q514.16876 240.10619 514.23126 240.27806Q514.3094 240.44994 514.48126 240.55931Q514.65314 240.65306 514.96564 240.65306Q515.2 240.65306 515.575 240.59056ZM521.95 241.85619L521.95 240.63744Q520.98126 242.04369 519.3094 242.04369Q518.575 242.04369 517.9344 241.76244Q517.3094 241.48119 516.9969 241.05931Q516.6844 240.62181 516.5594 240.01244Q516.48126 239.59056 516.48126 238.69994L516.48126 233.55931L517.8875 233.55931L517.8875 238.15306Q517.8875 239.26244 517.96564 239.63744Q518.10626 240.19994 518.52814 240.51244Q518.96564 240.82494 519.59064 240.82494Q520.23126 240.82494 520.77814 240.51244Q521.34064 240.18431 521.5594 239.62181Q521.79376 239.05931 521.79376 237.99681L521.79376 233.55931L523.2 233.55931L523.2 241.85619L521.95 241.85619ZM525.4969 241.85619L525.4969 233.55931L526.7625 233.55931L526.7625 234.80931Q527.2469 233.93431 527.65314 233.65306Q528.0594 233.37181 528.5594 233.37181Q529.2625 233.37181 529.9969 233.82494L529.5125 235.12181Q528.9969 234.82494 528.48126 234.82494Q528.02814 234.82494 527.65314 235.10619Q527.29376 235.37181 527.1375 235.87181Q526.90314 236.62181 526.90314 237.51244L526.90314 241.85619L525.4969 241.85619ZM535.91876 240.82494Q535.1375 241.49681 534.41876 241.77806Q533.7 242.04369 532.8719 242.04369Q531.4969 242.04369 530.7625 241.37181Q530.02814 240.69994 530.02814 239.66869Q530.02814 239.05931 530.3094 238.55931Q530.59064 238.04369 531.02814 237.74681Q531.48126 237.43431 532.04376 237.27806Q532.46564 237.16869 533.29376 237.07494Q534.9969 236.87181 535.8094 236.59056Q535.8094 236.29369 535.8094 236.21556Q535.8094 235.35619 535.41876 235.01244Q534.8719 234.52806 533.8094 234.52806Q532.825 234.52806 532.34064 234.88744Q531.8719 235.23119 531.65314 236.10619L530.27814 235.91869Q530.46564 235.04369 530.8875 234.49681Q531.325 233.94994 532.1375 233.66869Q532.95 233.37181 534.0125 233.37181Q535.075 233.37181 535.73126 233.62181Q536.40314 233.87181 536.71564 234.24681Q537.02814 234.62181 537.15314 235.19994Q537.23126 235.55931 537.23126 236.49681L537.23126 238.37181Q537.23126 240.34056 537.3094 240.85619Q537.40314 241.37181 537.66876 241.85619L536.2 241.85619Q535.98126 241.41869 535.91876 240.82494ZM535.8094 237.68431Q535.04376 237.99681 533.5125 238.21556Q532.6375 238.34056 532.27814 238.49681Q531.91876 238.65306 531.71564 238.96556Q531.52814 239.26244 531.52814 239.62181Q531.52814 240.18431 531.95 240.55931Q532.3875 240.93431 533.2 240.93431Q534.0125 240.93431 534.6375 240.59056Q535.27814 240.23119 535.575 239.60619Q535.8094 239.13744 535.8094 238.19994L535.8094 237.68431ZM539.48126 241.85619L539.48126 230.40306L540.8875 230.40306L540.8875 241.85619L539.48126 241.85619ZM546.41876 241.85619L550.825 230.40306L552.46564 230.40306L557.15314 241.85619L555.41876 241.85619L554.09064 238.38744L549.29376 238.38744L548.04376 241.85619L546.41876 241.85619ZM549.73126 237.15306L553.6219 237.15306L552.41876 233.98119Q551.8719 232.52806 551.60626 231.60619Q551.3875 232.69994 550.9969 233.79369L549.73126 237.15306ZM563.91876 238.80931L565.3094 238.99681Q565.075 240.41869 564.1375 241.23119Q563.21564 242.04369 561.85626 242.04369Q560.15314 242.04369 559.10626 240.93431Q558.075 239.80931 558.075 237.73119Q558.075 236.38744 558.5125 235.38744Q558.96564 234.37181 559.8719 233.87181Q560.79376 233.37181 561.85626 233.37181Q563.21564 233.37181 564.075 234.05931Q564.9344 234.73119 565.16876 235.99681L563.8094 236.19994Q563.60626 235.37181 563.10626 234.94994Q562.6219 234.52806 561.91876 234.52806Q560.85626 234.52806 560.1844 235.29369Q559.52814 236.04369 559.52814 237.69994Q559.52814 239.37181 560.16876 240.13744Q560.8094 240.88744 561.84064 240.88744Q562.66876 240.88744 563.21564 240.38744Q563.77814 239.87181 563.91876 238.80931ZM569.575 240.59056L569.77814 241.84056Q569.1844 241.96556 568.71564 241.96556Q567.95 241.96556 567.52814 241.73119Q567.10626 241.48119 566.9344 241.09056Q566.7625 240.68431 566.7625 239.41869L566.7625 234.65306L565.73126 234.65306L565.73126 233.55931L566.7625 233.55931L566.7625 231.49681L568.16876 230.65306L568.16876 233.55931L569.575 233.55931L569.575 234.65306L568.16876 234.65306L568.16876 239.49681Q568.16876 240.10619 568.23126 240.27806Q568.3094 240.44994 568.48126 240.55931Q568.65314 240.65306 568.96564 240.65306Q569.2 240.65306 569.575 240.59056ZM569.95 239.37181L571.34064 239.15306Q571.45 239.99681 571.98126 240.44994Q572.52814 240.88744 573.48126 240.88744Q574.45 240.88744 574.91876 240.49681Q575.3875 240.09056 575.3875 239.55931Q575.3875 239.09056 574.98126 238.80931Q574.6844 238.62181 573.54376 238.34056Q571.9969 237.94994 571.3875 237.66869Q570.79376 237.37181 570.48126 236.87181Q570.1844 236.37181 570.1844 235.76244Q570.1844 235.19994 570.4344 234.73119Q570.6844 234.26244 571.1219 233.94994Q571.45 233.69994 572.0125 233.54369Q572.59064 233.37181 573.23126 233.37181Q574.21564 233.37181 574.95 233.65306Q575.6844 233.93431 576.02814 234.41869Q576.3875 234.88744 576.52814 235.69994L575.15314 235.88744Q575.0594 235.24681 574.60626 234.88744Q574.15314 234.52806 573.34064 234.52806Q572.3719 234.52806 571.95 234.85619Q571.54376 235.16869 571.54376 235.59056Q571.54376 235.87181 571.71564 236.09056Q571.8875 236.30931 572.2469 236.46556Q572.46564 236.54369 573.4969 236.82494Q574.98126 237.21556 575.575 237.48119Q576.16876 237.73119 576.4969 238.21556Q576.84064 238.69994 576.84064 239.41869Q576.84064 240.12181 576.41876 240.74681Q576.0125 241.35619 575.23126 241.69994Q574.46564 242.04369 573.4969 242.04369Q571.8719 242.04369 571.02814 241.37181Q570.1844 240.69994 569.95 239.37181ZM578.90314 241.85619L578.90314 240.24681L580.5125 240.24681L580.5125 241.85619L578.90314 241.85619Z" fill-rule="nonzero"/><path fill="#9e9e9e" d="M544.5125 262.49683L544.5125 263.8562L536.9344 263.8562Q536.91876 263.34058 537.10626 262.87183Q537.3875 262.1062 538.02814 261.3562Q538.66876 260.6062 539.8719 259.62183Q541.73126 258.09058 542.3875 257.19995Q543.04376 256.2937 543.04376 255.49683Q543.04376 254.6687 542.45 254.09058Q541.85626 253.51245 540.8875 253.51245Q539.8719 253.51245 539.2625 254.12183Q538.65314 254.7312 538.65314 255.80933L537.2 255.6687Q537.35626 254.0437 538.325 253.19995Q539.29376 252.3562 540.91876 252.3562Q542.575 252.3562 543.52814 253.27808Q544.4969 254.18433 544.4969 255.52808Q544.4969 256.21558 544.21564 256.88745Q543.9344 257.5437 543.27814 258.27808Q542.6219 259.01245 541.10626 260.2937Q539.84064 261.3562 539.48126 261.74683Q539.1219 262.12183 538.8875 262.49683L544.5125 262.49683ZM546.1219 258.19995Q546.1219 256.1687 546.52814 254.93433Q546.95 253.69995 547.77814 253.02808Q548.60626 252.3562 549.85626 252.3562Q550.77814 252.3562 551.46564 252.7312Q552.16876 253.09058 552.6219 253.7937Q553.075 254.49683 553.325 255.49683Q553.59064 256.49683 553.59064 258.19995Q553.59064 260.21558 553.16876 261.46558Q552.7625 262.69995 551.9344 263.38745Q551.10626 264.05933 549.85626 264.05933Q548.2 264.05933 547.2469 262.8562Q546.1219 261.43433 546.1219 258.19995ZM547.5594 258.19995Q547.5594 261.02808 548.21564 261.96558Q548.8875 262.88745 549.85626 262.88745Q550.825 262.88745 551.48126 261.94995Q552.1375 261.01245 552.1375 258.19995Q552.1375 255.37183 551.48126 254.44995Q550.825 253.51245 549.84064 253.51245Q548.8719 253.51245 548.29376 254.34058Q547.5594 255.38745 547.5594 258.19995ZM555.90314 263.8562L555.90314 262.24683L557.5125 262.24683L557.5125 263.8562L555.90314 263.8562ZM559.1219 258.19995Q559.1219 256.1687 559.52814 254.93433Q559.95 253.69995 560.77814 253.02808Q561.60626 252.3562 562.85626 252.3562Q563.77814 252.3562 564.46564 252.7312Q565.16876 253.09058 565.6219 253.7937Q566.075 254.49683 566.325 255.49683Q566.59064 256.49683 566.59064 258.19995Q566.59064 260.21558 566.16876 261.46558Q565.7625 262.69995 564.9344 263.38745Q564.10626 264.05933 562.85626 264.05933Q561.2 264.05933 560.2469 262.8562Q559.1219 261.43433 559.1219 258.19995ZM560.5594 258.19995Q560.5594 261.02808 561.21564 261.96558Q561.8875 262.88745 562.85626 262.88745Q563.825 262.88745 564.48126 261.94995Q565.1375 261.01245 565.1375 258.19995Q565.1375 255.37183 564.48126 254.44995Q563.825 253.51245 562.84064 253.51245Q561.8719 253.51245 561.29376 254.34058Q560.5594 255.38745 560.5594 258.19995ZM568.3875 255.15308Q568.3875 253.9187 568.9969 253.05933Q569.6219 252.19995 570.79376 252.19995Q571.8719 252.19995 572.575 252.9812Q573.27814 253.74683 573.27814 255.2312Q573.27814 256.68433 572.5594 257.4812Q571.85626 258.26245 570.8094 258.26245Q569.7625 258.26245 569.075 257.49683Q568.3875 256.71558 568.3875 255.15308ZM570.825 253.1687Q570.3094 253.1687 569.95 253.62183Q569.60626 254.07495 569.60626 255.2937Q569.60626 256.38745 569.95 256.84058Q570.3094 257.2937 570.825 257.2937Q571.35626 257.2937 571.7 256.84058Q572.0594 256.38745 572.0594 255.18433Q572.0594 254.07495 571.7 253.62183Q571.35626 253.1687 570.825 253.1687ZM570.84064 264.27808L577.10626 252.19995L578.2469 252.19995L571.9969 264.27808L570.84064 264.27808ZM575.79376 261.1687Q575.79376 259.93433 576.40314 259.07495Q577.02814 258.21558 578.2 258.21558Q579.27814 258.21558 579.98126 258.99683Q580.7 259.76245 580.7 261.24683Q580.7 262.69995 579.98126 263.49683Q579.2625 264.27808 578.21564 264.27808Q577.16876 264.27808 576.48126 263.49683Q575.79376 262.71558 575.79376 261.1687ZM578.2469 259.18433Q577.71564 259.18433 577.35626 259.63745Q577.0125 260.09058 577.0125 261.30933Q577.0125 262.40308 577.35626 262.8562Q577.71564 263.30933 578.23126 263.30933Q578.77814 263.30933 579.1219 262.8562Q579.46564 262.40308 579.46564 261.19995Q579.46564 260.09058 579.10626 259.63745Q578.7625 259.18433 578.2469 259.18433Z" fill-rule="nonzero"/><path stroke="#757575" stroke-width="1.0" stroke-linecap="butt" d="M581.45 247.35619L454.76666 247.35619L434.41122 247.35619" fill-rule="nonzero"/><path fill="#9e9e9e" d="M436.41122 247.35619C436.41122 246.25162 435.5158 245.35619 434.41122 245.35619C433.30667 245.35619 432.41122 246.25162 432.41122 247.35619C432.41122 248.46075 433.30667 249.35619 434.41122 249.35619C435.5158 249.35619 436.41122 248.46075 436.41122 247.35619" fill-rule="nonzero"/><path fill="#efefef" d="M514.71564 326.45L514.71564 314.9969L519.79376 314.9969Q521.325 314.9969 522.1219 315.3094Q522.91876 315.60626 523.3875 316.3875Q523.8719 317.16876 523.8719 318.1219Q523.8719 319.34064 523.075 320.1844Q522.29376 321.0125 520.6375 321.23126Q521.2469 321.52814 521.5594 321.8094Q522.21564 322.41876 522.8094 323.325L524.8094 326.45L522.90314 326.45L521.3875 324.0594Q520.71564 323.02814 520.27814 322.48126Q519.85626 321.9344 519.5125 321.71564Q519.1844 321.4969 518.825 321.41876Q518.575 321.35626 517.98126 321.35626L516.23126 321.35626L516.23126 326.45L514.71564 326.45ZM516.23126 320.04376L519.48126 320.04376Q520.52814 320.04376 521.10626 319.84064Q521.7 319.6219 521.9969 319.15314Q522.3094 318.66876 522.3094 318.1219Q522.3094 317.3094 521.71564 316.79376Q521.1219 316.2625 519.85626 316.2625L516.23126 316.2625L516.23126 320.04376ZM532.1844 323.77814L533.6375 323.95Q533.29376 325.23126 532.35626 325.9344Q531.4344 326.6375 529.9969 326.6375Q528.16876 326.6375 527.10626 325.5125Q526.04376 324.3875 526.04376 322.3719Q526.04376 320.27814 527.1219 319.1219Q528.2 317.96564 529.91876 317.96564Q531.575 317.96564 532.6219 319.10626Q533.6844 320.23126 533.6844 322.27814Q533.6844 322.40314 533.6844 322.65314L527.4969 322.65314Q527.575 324.02814 528.2625 324.7625Q528.96564 325.48126 529.9969 325.48126Q530.77814 325.48126 531.325 325.075Q531.8719 324.66876 532.1844 323.77814ZM527.575 321.4969L532.2 321.4969Q532.10626 320.45 531.66876 319.9344Q530.9969 319.1219 529.9344 319.1219Q528.96564 319.1219 528.29376 319.77814Q527.6375 320.41876 527.575 321.4969ZM535.48126 326.45L535.48126 314.9969L536.8875 314.9969L536.8875 326.45L535.48126 326.45ZM539.5125 316.60626L539.5125 314.9969L540.91876 314.9969L540.91876 316.60626L539.5125 316.60626ZM539.5125 326.45L539.5125 318.15314L540.91876 318.15314L540.91876 326.45L539.5125 326.45ZM543.2469 327.1375L544.6219 327.34064Q544.7 327.98126 545.09064 328.2625Q545.6219 328.65314 546.52814 328.65314Q547.4969 328.65314 548.02814 328.2625Q548.5594 327.8719 548.7469 327.16876Q548.85626 326.7469 548.85626 325.35626Q547.9344 326.45 546.5594 326.45Q544.84064 326.45 543.90314 325.21564Q542.96564 323.98126 542.96564 322.2469Q542.96564 321.0594 543.3875 320.0594Q543.825 319.0594 544.6375 318.5125Q545.46564 317.96564 546.5594 317.96564Q548.02814 317.96564 548.98126 319.15314L548.98126 318.15314L550.27814 318.15314L550.27814 325.325Q550.27814 327.2625 549.8875 328.075Q549.4969 328.8875 548.6375 329.35626Q547.77814 329.825 546.52814 329.825Q545.04376 329.825 544.1219 329.15314Q543.21564 328.48126 543.2469 327.1375ZM544.41876 322.15314Q544.41876 323.77814 545.0594 324.52814Q545.71564 325.27814 546.6844 325.27814Q547.65314 325.27814 548.3094 324.54376Q548.96564 323.79376 548.96564 322.2Q548.96564 320.66876 548.29376 319.90314Q547.6219 319.1219 546.66876 319.1219Q545.73126 319.1219 545.075 319.8875Q544.41876 320.65314 544.41876 322.15314ZM552.5125 316.60626L552.5125 314.9969L553.91876 314.9969L553.91876 316.60626L552.5125 316.60626ZM552.5125 326.45L552.5125 318.15314L553.91876 318.15314L553.91876 326.45L552.5125 326.45ZM555.98126 322.29376Q555.98126 319.9969 557.2625 318.8875Q558.34064 317.96564 559.8719 317.96564Q561.59064 317.96564 562.66876 319.09064Q563.7625 320.2 563.7625 322.1844Q563.7625 323.77814 563.27814 324.7Q562.79376 325.6219 561.8719 326.1375Q560.96564 326.6375 559.8719 326.6375Q558.1375 326.6375 557.0594 325.52814Q555.98126 324.40314 555.98126 322.29376ZM557.4344 322.29376Q557.4344 323.8875 558.1219 324.6844Q558.825 325.48126 559.8719 325.48126Q560.91876 325.48126 561.60626 324.6844Q562.3094 323.8875 562.3094 322.2469Q562.3094 320.71564 561.60626 319.91876Q560.91876 319.1219 559.8719 319.1219Q558.825 319.1219 558.1219 319.91876Q557.4344 320.7 557.4344 322.29376ZM570.95 326.45L570.95 325.23126Q569.98126 326.6375 568.3094 326.6375Q567.575 326.6375 566.9344 326.35626Q566.3094 326.075 565.9969 325.65314Q565.6844 325.21564 565.5594 324.60626Q565.48126 324.1844 565.48126 323.29376L565.48126 318.15314L566.8875 318.15314L566.8875 322.7469Q566.8875 323.85626 566.96564 324.23126Q567.10626 324.79376 567.52814 325.10626Q567.96564 325.41876 568.59064 325.41876Q569.23126 325.41876 569.77814 325.10626Q570.34064 324.77814 570.5594 324.21564Q570.79376 323.65314 570.79376 322.59064L570.79376 318.15314L572.2 318.15314L572.2 326.45L570.95 326.45ZM573.95 323.96564L575.34064 323.7469Q575.45 324.59064 575.98126 325.04376Q576.52814 325.48126 577.48126 325.48126Q578.45 325.48126 578.91876 325.09064Q579.3875 324.6844 579.3875 324.15314Q579.3875 323.6844 578.98126 323.40314Q578.6844 323.21564 577.54376 322.9344Q575.9969 322.54376 575.3875 322.2625Q574.79376 321.96564 574.48126 321.46564Q574.1844 320.96564 574.1844 320.35626Q574.1844 319.79376 574.4344 319.325Q574.6844 318.85626 575.1219 318.54376Q575.45 318.29376 576.0125 318.1375Q576.59064 317.96564 577.23126 317.96564Q578.21564 317.96564 578.95 318.2469Q579.6844 318.52814 580.02814 319.0125Q580.3875 319.48126 580.52814 320.29376L579.15314 320.48126Q579.0594 319.84064 578.60626 319.48126Q578.15314 319.1219 577.34064 319.1219Q576.3719 319.1219 575.95 319.45Q575.54376 319.7625 575.54376 320.1844Q575.54376 320.46564 575.71564 320.6844Q575.8875 320.90314 576.2469 321.0594Q576.46564 321.1375 577.4969 321.41876Q578.98126 321.8094 579.575 322.075Q580.16876 322.325 580.4969 322.8094Q580.84064 323.29376 580.84064 324.0125Q580.84064 324.71564 580.41876 325.34064Q580.0125 325.95 579.23126 326.29376Q578.46564 326.6375 577.4969 326.6375Q575.8719 326.6375 575.02814 325.96564Q574.1844 325.29376 573.95 323.96564Z" fill-rule="nonzero"/><path fill="#9e9e9e" d="M542.41876 348.45L541.0125 348.45L541.0125 339.48126Q540.4969 339.96564 539.66876 340.45Q538.85626 340.9344 538.2 341.1844L538.2 339.825Q539.3719 339.2625 540.2469 338.48126Q541.1375 337.6844 541.5125 336.95L542.41876 336.95L542.41876 348.45ZM546.1219 342.79376Q546.1219 340.7625 546.52814 339.52814Q546.95 338.29376 547.77814 337.6219Q548.60626 336.95 549.85626 336.95Q550.77814 336.95 551.46564 337.325Q552.16876 337.6844 552.6219 338.3875Q553.075 339.09064 553.325 340.09064Q553.59064 341.09064 553.59064 342.79376Q553.59064 344.8094 553.16876 346.0594Q552.7625 347.29376 551.9344 347.98126Q551.10626 348.65314 549.85626 348.65314Q548.2 348.65314 547.2469 347.45Q546.1219 346.02814 546.1219 342.79376ZM547.5594 342.79376Q547.5594 345.6219 548.21564 346.5594Q548.8875 347.48126 549.85626 347.48126Q550.825 347.48126 551.48126 346.54376Q552.1375 345.60626 552.1375 342.79376Q552.1375 339.96564 551.48126 339.04376Q550.825 338.10626 549.84064 338.10626Q548.8719 338.10626 548.29376 338.9344Q547.5594 339.98126 547.5594 342.79376ZM555.90314 348.45L555.90314 346.84064L557.5125 346.84064L557.5125 348.45L555.90314 348.45ZM559.1219 342.79376Q559.1219 340.7625 559.52814 339.52814Q559.95 338.29376 560.77814 337.6219Q561.60626 336.95 562.85626 336.95Q563.77814 336.95 564.46564 337.325Q565.16876 337.6844 565.6219 338.3875Q566.075 339.09064 566.325 340.09064Q566.59064 341.09064 566.59064 342.79376Q566.59064 344.8094 566.16876 346.0594Q565.7625 347.29376 564.9344 347.98126Q564.10626 348.65314 562.85626 348.65314Q561.2 348.65314 560.2469 347.45Q559.1219 346.02814 559.1219 342.79376ZM560.5594 342.79376Q560.5594 345.6219 561.21564 346.5594Q561.8875 347.48126 562.85626 347.48126Q563.825 347.48126 564.48126 346.54376Q565.1375 345.60626 565.1375 342.79376Q565.1375 339.96564 564.48126 339.04376Q563.825 338.10626 562.84064 338.10626Q561.8719 338.10626 561.29376 338.9344Q560.5594 339.98126 560.5594 342.79376ZM568.3875 339.7469Q568.3875 338.5125 568.9969 337.65314Q569.6219 336.79376 570.79376 336.79376Q571.8719 336.79376 572.575 337.575Q573.27814 338.34064 573.27814 339.825Q573.27814 341.27814 572.5594 342.075Q571.85626 342.85626 570.8094 342.85626Q569.7625 342.85626 569.075 342.09064Q568.3875 341.3094 568.3875 339.7469ZM570.825 337.7625Q570.3094 337.7625 569.95 338.21564Q569.60626 338.66876 569.60626 339.8875Q569.60626 340.98126 569.95 341.4344Q570.3094 341.8875 570.825 341.8875Q571.35626 341.8875 571.7 341.4344Q572.0594 340.98126 572.0594 339.77814Q572.0594 338.66876 571.7 338.21564Q571.35626 337.7625 570.825 337.7625ZM570.84064 348.8719L577.10626 336.79376L578.2469 336.79376L571.9969 348.8719L570.84064 348.8719ZM575.79376 345.7625Q575.79376 344.52814 576.40314 343.66876Q577.02814 342.8094 578.2 342.8094Q579.27814 342.8094 579.98126 343.59064Q580.7 344.35626 580.7 345.84064Q580.7 347.29376 579.98126 348.09064Q579.2625 348.8719 578.21564 348.8719Q577.16876 348.8719 576.48126 348.09064Q575.79376 347.3094 575.79376 345.7625ZM578.2469 343.77814Q577.71564 343.77814 577.35626 344.23126Q577.0125 344.6844 577.0125 345.90314Q577.0125 346.9969 577.35626 347.45Q577.71564 347.90314 578.23126 347.90314Q578.77814 347.90314 579.1219 347.45Q579.46564 346.9969 579.46564 345.79376Q579.46564 344.6844 579.10626 344.23126Q578.7625 343.77814 578.2469 343.77814Z" fill-rule="nonzero"/><path stroke="#757575" stroke-width="1.0" stroke-linecap="butt" d="M581.45 331.95L454.76666 331.95L343.67285 338.09457" fill-rule="nonzero"/><path fill="#9e9e9e" d="M345.67285 338.09457C345.67285 336.99 344.77744 336.09457 343.67285 336.09457C342.5683 336.09457 341.67285 336.99 341.67285 338.09457C341.67285 339.19913 342.5683 340.09457 343.67285 340.09457C344.77744 340.09457 345.67285 339.19913 345.67285 338.09457" fill-rule="nonzero"/><path fill="#f3f3f3" d="M271.26562 32.534374L273.15625 33.003124Q272.5625 35.346874 271.01562 36.58125Q269.46875 37.8 267.21875 37.8Q264.90625 37.8 263.45312 36.8625Q262.01562 35.909374 261.25 34.128124Q260.5 32.33125 260.5 30.284374Q260.5 28.05 261.34375 26.39375Q262.20312 24.721874 263.78125 23.8625Q265.35938 22.9875 267.25 22.9875Q269.40625 22.9875 270.85938 24.08125Q272.32812 25.175 272.90625 27.159374L271.04688 27.596874Q270.54688 26.034374 269.59375 25.33125Q268.65625 24.6125 267.21875 24.6125Q265.5625 24.6125 264.45312 25.409374Q263.34375 26.190624 262.89062 27.534374Q262.45312 28.8625 262.45312 30.26875Q262.45312 32.096874 262.98438 33.471874Q263.51562 34.83125 264.64062 35.503124Q265.76562 36.175 267.0625 36.175Q268.65625 36.175 269.76562 35.253124Q270.875 34.33125 271.26562 32.534374ZM281.59375 36.26875Q280.60938 37.096874 279.70312 37.440624Q278.79688 37.784374 277.76562 37.784374Q276.0625 37.784374 275.14062 36.95625Q274.21875 36.1125 274.21875 34.815624Q274.21875 34.05 274.5625 33.425Q274.92188 32.8 275.48438 32.425Q276.04688 32.034374 276.75 31.83125Q277.26562 31.70625 278.3125 31.565624Q280.4375 31.315624 281.4375 30.971874Q281.45312 30.6125 281.45312 30.503124Q281.45312 29.440624 280.95312 28.9875Q280.28125 28.39375 278.95312 28.39375Q277.70312 28.39375 277.10938 28.83125Q276.53125 29.26875 276.25 30.378124L274.53125 30.14375Q274.76562 29.034374 275.29688 28.3625Q275.82812 27.675 276.84375 27.315624Q277.85938 26.940624 279.20312 26.940624Q280.53125 26.940624 281.35938 27.253124Q282.1875 27.565624 282.57812 28.05Q282.96875 28.51875 283.125 29.2375Q283.21875 29.690624 283.21875 30.8625L283.21875 33.20625Q283.21875 35.659374 283.32812 36.315624Q283.4375 36.95625 283.78125 37.55L281.9375 37.55Q281.67188 37.003124 281.59375 36.26875ZM281.4375 32.346874Q280.48438 32.7375 278.5625 33.003124Q277.48438 33.159374 277.03125 33.3625Q276.59375 33.55 276.34375 33.925Q276.09375 34.3 276.09375 34.76875Q276.09375 35.471874 276.625 35.940624Q277.15625 36.409374 278.1875 36.409374Q279.20312 36.409374 279.98438 35.971874Q280.78125 35.51875 281.15625 34.753124Q281.4375 34.14375 281.4375 32.9875L281.4375 32.346874ZM289.65625 35.971874L289.90625 37.534374Q289.17188 37.690624 288.57812 37.690624Q287.625 37.690624 287.09375 37.39375Q286.57812 37.08125 286.35938 36.596874Q286.14062 36.096874 286.14062 34.51875L286.14062 28.55L284.85938 28.55L284.85938 27.175L286.14062 27.175L286.14062 24.6125L287.89062 23.55L287.89062 27.175L289.65625 27.175L289.65625 28.55L287.89062 28.55L287.89062 34.6125Q287.89062 35.3625 287.98438 35.58125Q288.07812 35.784374 288.28125 35.925Q288.5 36.05 288.89062 36.05Q289.17188 36.05 289.65625 35.971874ZM298.92188 34.20625L300.73438 34.440624Q300.3125 36.01875 299.14062 36.909374Q297.98438 37.784374 296.17188 37.784374Q293.90625 37.784374 292.5625 36.39375Q291.23438 34.9875 291.23438 32.45625Q291.23438 29.83125 292.57812 28.39375Q293.92188 26.940624 296.07812 26.940624Q298.15625 26.940624 299.46875 28.3625Q300.79688 29.76875 300.79688 32.346874Q300.79688 32.503124 300.78125 32.815624L293.04688 32.815624Q293.14062 34.51875 294.01562 35.425Q294.89062 36.33125 296.1875 36.33125Q297.15625 36.33125 297.82812 35.83125Q298.51562 35.315624 298.92188 34.20625ZM293.14062 31.3625L298.9375 31.3625Q298.82812 30.065624 298.28125 29.409374Q297.4375 28.39375 296.09375 28.39375Q294.89062 28.39375 294.0625 29.20625Q293.23438 30.003124 293.14062 31.3625ZM302.5 38.409374L304.20312 38.659374Q304.3125 39.45625 304.79688 39.815624Q305.45312 40.3 306.59375 40.3Q307.8125 40.3 308.46875 39.815624Q309.14062 39.33125 309.375 38.45625Q309.51562 37.909374 309.5 36.190624Q308.34375 37.55 306.625 37.55Q304.48438 37.55 303.3125 36.003124Q302.14062 34.45625 302.14062 32.3Q302.14062 30.815624 302.67188 29.565624Q303.21875 28.315624 304.23438 27.628124Q305.26562 26.940624 306.64062 26.940624Q308.46875 26.940624 309.67188 28.425L309.67188 27.175L311.28125 27.175L311.28125 36.14375Q311.28125 38.565624 310.78125 39.565624Q310.29688 40.58125 309.21875 41.159374Q308.15625 41.753124 306.59375 41.753124Q304.75 41.753124 303.59375 40.925Q302.45312 40.096874 302.5 38.409374ZM303.95312 32.175Q303.95312 34.221874 304.76562 35.159374Q305.57812 36.096874 306.79688 36.096874Q308.0 36.096874 308.8125 35.159374Q309.64062 34.221874 309.64062 32.2375Q309.64062 30.33125 308.79688 29.3625Q307.95312 28.39375 306.76562 28.39375Q305.59375 28.39375 304.76562 29.346874Q303.95312 30.3 303.95312 32.175ZM313.17188 32.3625Q313.17188 29.4875 314.76562 28.096874Q316.10938 26.940624 318.03125 26.940624Q320.17188 26.940624 321.51562 28.346874Q322.875 29.753124 322.875 32.221874Q322.875 34.221874 322.28125 35.378124Q321.6875 36.51875 320.53125 37.159374Q319.39062 37.784374 318.03125 37.784374Q315.84375 37.784374 314.5 36.39375Q313.17188 34.9875 313.17188 32.3625ZM314.96875 32.3625Q314.96875 34.3625 315.82812 35.346874Q316.70312 36.33125 318.03125 36.33125Q319.34375 36.33125 320.20312 35.346874Q321.07812 34.346874 321.07812 32.3Q321.07812 30.378124 320.20312 29.39375Q319.32812 28.39375 318.03125 28.39375Q316.70312 28.39375 315.82812 29.39375Q314.96875 30.378124 314.96875 32.3625ZM324.79688 37.55L324.79688 27.175L326.375 27.175L326.375 28.753124Q326.98438 27.64375 327.5 27.3Q328.01562 26.940624 328.625 26.940624Q329.51562 26.940624 330.4375 27.503124L329.82812 29.14375Q329.1875 28.753124 328.54688 28.753124Q327.96875 28.753124 327.5 29.1125Q327.04688 29.45625 326.84375 30.065624Q326.5625 31.003124 326.5625 32.1125L326.5625 37.55L324.79688 37.55ZM331.73438 41.55L331.54688 39.89375Q332.125 40.05 332.54688 40.05Q333.14062 40.05 333.48438 39.846874Q333.84375 39.659374 334.0625 39.315624Q334.23438 39.05 334.60938 38.003124Q334.65625 37.846874 334.76562 37.565624L330.82812 27.175L332.71875 27.175L334.875 33.190624Q335.29688 34.33125 335.625 35.58125Q335.9375 34.378124 336.34375 33.221874L338.5625 27.175L340.32812 27.175L336.375 37.721874Q335.75 39.440624 335.39062 40.08125Q334.92188 40.95625 334.3125 41.346874Q333.71875 41.753124 332.875 41.753124Q332.35938 41.753124 331.73438 41.55Z" fill-rule="nonzero"/></svg>