<svg version="1.1" viewBox="0.0 0.0 600.0 371.0" fill="none" stroke="none" stroke-linecap="square" stroke-miterlimit="10" width="600" height="371" xmlns:xlink="http://www.w3.org/1999/xlink" xmlns="http://www.w3.org/2000/svg"><path fill="#ffffff" fill-opacity="0.0" d="M0 0L600.0 0L600.0 371.0L0 371.0L0 0Z" fill-rule="nonzero"/><path fill="#533990" d="M300.0 54.916668C364.44962 54.916668 421.5695 96.416664 441.4855 157.7119L335.37137 192.19048C330.39236 176.86667 316.1124 166.49167 300.0 166.49167Z" fill-rule="nonzero"/><path fill="#b5428d" d="M441.4855 157.7119C451.19373 187.59071 451.19373 219.77596 441.4855 249.65475L335.37137 215.1762C337.79843 207.70648 337.79843 199.66017 335.37137 192.19048Z" fill-rule="nonzero"/><path fill="#df8d43" d="M212.55714 83.328575C237.97357 64.86246 268.58356 54.916668 300.0 54.916668L300.0 166.49167C292.1459 166.49167 284.4934 168.97812 278.13928 173.59465Z" fill-rule="nonzero"/><path fill="#d8753e" d="M158.5145 249.65475C138.59846 188.35953 160.4163 121.21111 212.55714 83.328575L278.13928 173.59465C265.10406 183.06528 259.64963 199.85239 264.62863 215.1762Z" fill-rule="nonzero"/><path fill="#cf4366" d="M441.4855 249.65475C421.5695 310.95 364.44962 352.45 300.0 352.45C235.55037 352.45 178.43053 310.95 158.5145 249.65475L264.62863 215.1762C269.60764 230.5 283.8876 240.875 300.0 240.875C316.1124 240.875 330.39236 230.5 335.37137 215.1762Z" fill-rule="nonzero"/><path fill="#ffffff" d="M344.36365 124.982124L344.36365 126.49775L335.84802 126.49775Q335.8324 125.919624 336.03552 125.404Q336.36365 124.529 337.06677 123.68525Q337.78552 122.8415 339.1449 121.732124Q341.23865 120.013374 341.97302 119.013374Q342.72302 117.99775 342.72302 117.107124Q342.72302 116.154 342.05115 115.513374Q341.37927 114.87275 340.30115 114.87275Q339.1449 114.87275 338.4574 115.56025Q337.78552 116.24775 337.7699 117.450874L336.1449 117.279Q336.31677 115.4665 337.3949 114.513374Q338.48865 113.56025 340.3324 113.56025Q342.17615 113.56025 343.25427 114.5915Q344.34802 115.62275 344.34802 117.138374Q344.34802 117.904 344.0199 118.654Q343.7074 119.404 342.97302 120.232124Q342.23865 121.06025 340.53552 122.49775Q339.11365 123.700874 338.7074 124.12275Q338.30115 124.544624 338.05115 124.982124L344.36365 124.982124ZM346.05115 120.138374Q346.05115 117.857124 346.5199 116.4665Q346.98865 115.075874 347.91052 114.325874Q348.84802 113.56025 350.25427 113.56025Q351.28552 113.56025 352.06677 113.982124Q352.84802 114.388374 353.34802 115.18525Q353.86365 115.9665 354.16052 117.107124Q354.4574 118.232124 354.4574 120.138374Q354.4574 122.404 353.98865 123.81025Q353.5199 125.200874 352.5824 125.9665Q351.66052 126.7165 350.25427 126.7165Q348.37927 126.7165 347.31677 125.388374Q346.05115 123.779 346.05115 120.138374ZM347.67615 120.138374Q347.67615 123.31025 348.41052 124.37275Q349.16052 125.419624 350.25427 125.419624Q351.3324 125.419624 352.0824 124.37275Q352.8324 123.31025 352.8324 120.138374Q352.8324 116.9665 352.0824 115.919624Q351.3324 114.87275 350.23865 114.87275Q349.1449 114.87275 348.48865 115.794624Q347.67615 116.9665 347.67615 120.138374ZM356.94177 126.49775L356.94177 124.700874L358.73865 124.700874L358.73865 126.49775L356.94177 126.49775ZM361.05115 120.138374Q361.05115 117.857124 361.5199 116.4665Q361.98865 115.075874 362.91052 114.325874Q363.84802 113.56025 365.25427 113.56025Q366.28552 113.56025 367.06677 113.982124Q367.84802 114.388374 368.34802 115.18525Q368.86365 115.9665 369.16052 117.107124Q369.4574 118.232124 369.4574 120.138374Q369.4574 122.404 368.98865 123.81025Q368.5199 125.200874 367.5824 125.9665Q366.66052 126.7165 365.25427 126.7165Q363.37927 126.7165 362.31677 125.388374Q361.05115 123.779 361.05115 120.138374ZM362.67615 120.138374Q362.67615 123.31025 363.41052 124.37275Q364.16052 125.419624 365.25427 125.419624Q366.3324 125.419624 367.0824 124.37275Q367.8324 123.31025 367.8324 120.138374Q367.8324 116.9665 367.0824 115.919624Q366.3324 114.87275 365.23865 114.87275Q364.1449 114.87275 363.48865 115.794624Q362.67615 116.9665 362.67615 120.138374ZM371.34802 116.700874Q371.34802 115.325874 372.03552 114.357124Q372.73865 113.388374 374.05115 113.388374Q375.2699 113.388374 376.06677 114.263374Q376.86365 115.12275 376.86365 116.81025Q376.86365 118.43525 376.05115 119.325874Q375.25427 120.200874 374.06677 120.200874Q372.91052 120.200874 372.12927 119.3415Q371.34802 118.4665 371.34802 116.700874ZM374.09802 114.482124Q373.50427 114.482124 373.11365 114.99775Q372.72302 115.49775 372.72302 116.857124Q372.72302 118.107124 373.11365 118.607124Q373.5199 119.107124 374.09802 119.107124Q374.69177 119.107124 375.0824 118.607124Q375.47302 118.0915 375.47302 116.74775Q375.47302 115.49775 375.0824 114.99775Q374.69177 114.482124 374.09802 114.482124ZM374.11365 126.9665L381.16052 113.388374L382.44177 113.388374L375.41052 126.9665L374.11365 126.9665ZM379.67615 123.4665Q379.67615 122.0915 380.36365 121.12275Q381.06677 120.154 382.3949 120.154Q383.61365 120.154 384.3949 121.029Q385.19177 121.888374 385.19177 123.575874Q385.19177 125.200874 384.3949 126.0915Q383.59802 126.9665 382.41052 126.9665Q381.23865 126.9665 380.4574 126.0915Q379.67615 125.2165 379.67615 123.4665ZM382.44177 121.24775Q381.84802 121.24775 381.4574 121.763374Q381.06677 122.263374 381.06677 123.638374Q381.06677 124.857124 381.4574 125.37275Q381.84802 125.888374 382.42615 125.888374Q383.03552 125.888374 383.42615 125.37275Q383.81677 124.857124 383.81677 123.513374Q383.81677 122.263374 383.42615 121.763374Q383.03552 121.24775 382.44177 121.24775Z" fill-rule="nonzero"/><path fill="#ffffff" d="M387.41278 210.18333L385.83466 210.18333L385.83466 200.10521Q385.25653 200.65208 384.33466 201.19896Q383.41278 201.73021 382.66278 202.01146L382.66278 200.48021Q383.9909 199.85521 384.9909 198.96458Q385.9909 198.07396 386.39716 197.24583L387.41278 197.24583L387.41278 210.18333ZM391.45966 203.82396Q391.45966 201.54271 391.9284 200.15208Q392.39716 198.76146 393.31903 198.01146Q394.25653 197.24583 395.66278 197.24583Q396.69403 197.24583 397.47528 197.66771Q398.25653 198.07396 398.75653 198.87083Q399.27216 199.65208 399.56903 200.79271Q399.8659 201.91771 399.8659 203.82396Q399.8659 206.08958 399.39716 207.49583Q398.9284 208.88646 397.9909 209.65208Q397.06903 210.40208 395.66278 210.40208Q393.78778 210.40208 392.72528 209.07396Q391.45966 207.46458 391.45966 203.82396ZM393.08466 203.82396Q393.08466 206.99583 393.81903 208.05833Q394.56903 209.10521 395.66278 209.10521Q396.7409 209.10521 397.4909 208.05833Q398.2409 206.99583 398.2409 203.82396Q398.2409 200.65208 397.4909 199.60521Q396.7409 198.55833 395.64716 198.55833Q394.5534 198.55833 393.89716 199.48021Q393.08466 200.65208 393.08466 203.82396ZM402.35028 210.18333L402.35028 208.38646L404.14716 208.38646L404.14716 210.18333L402.35028 210.18333ZM406.45966 203.82396Q406.45966 201.54271 406.9284 200.15208Q407.39716 198.76146 408.31903 198.01146Q409.25653 197.24583 410.66278 197.24583Q411.69403 197.24583 412.47528 197.66771Q413.25653 198.07396 413.75653 198.87083Q414.27216 199.65208 414.56903 200.79271Q414.8659 201.91771 414.8659 203.82396Q414.8659 206.08958 414.39716 207.49583Q413.9284 208.88646 412.9909 209.65208Q412.06903 210.40208 410.66278 210.40208Q408.78778 210.40208 407.72528 209.07396Q406.45966 207.46458 406.45966 203.82396ZM408.08466 203.82396Q408.08466 206.99583 408.81903 208.05833Q409.56903 209.10521 410.66278 209.10521Q411.7409 209.10521 412.4909 208.05833Q413.2409 206.99583 413.2409 203.82396Q413.2409 200.65208 412.4909 199.60521Q411.7409 198.55833 410.64716 198.55833Q409.5534 198.55833 408.89716 199.48021Q408.08466 200.65208 408.08466 203.82396ZM416.75653 200.38646Q416.75653 199.01146 417.44403 198.04271Q418.14716 197.07396 419.45966 197.07396Q420.6784 197.07396 421.47528 197.94896Q422.27216 198.80833 422.27216 200.49583Q422.27216 202.12083 421.45966 203.01146Q420.66278 203.88646 419.47528 203.88646Q418.31903 203.88646 417.53778 203.02708Q416.75653 202.15208 416.75653 200.38646ZM419.50653 198.16771Q418.91278 198.16771 418.52216 198.68333Q418.13153 199.18333 418.13153 200.54271Q418.13153 201.79271 418.52216 202.29271Q418.9284 202.79271 419.50653 202.79271Q420.10028 202.79271 420.4909 202.29271Q420.88153 201.77708 420.88153 200.43333Q420.88153 199.18333 420.4909 198.68333Q420.10028 198.16771 419.50653 198.16771ZM419.52216 210.65208L426.56903 197.07396L427.85028 197.07396L420.81903 210.65208L419.52216 210.65208ZM425.08466 207.15208Q425.08466 205.77708 425.77216 204.80833Q426.47528 203.83958 427.8034 203.83958Q429.02216 203.83958 429.8034 204.71458Q430.60028 205.57396 430.60028 207.26146Q430.60028 208.88646 429.8034 209.77708Q429.00653 210.65208 427.81903 210.65208Q426.64716 210.65208 425.8659 209.77708Q425.08466 208.90208 425.08466 207.15208ZM427.85028 204.93333Q427.25653 204.93333 426.8659 205.44896Q426.47528 205.94896 426.47528 207.32396Q426.47528 208.54271 426.8659 209.05833Q427.25653 209.57396 427.83466 209.57396Q428.44403 209.57396 428.83466 209.05833Q429.22528 208.54271 429.22528 207.19896Q429.22528 205.94896 428.83466 205.44896Q428.44403 204.93333 427.85028 204.93333Z" fill-rule="nonzero"/><path fill="#ffffff" d="M280.3125 327.98923L280.3125 324.9111L274.73438 324.9111L274.73438 323.45798L280.60938 315.0986L281.90625 315.0986L281.90625 323.45798L283.64062 323.45798L283.64062 324.9111L281.90625 324.9111L281.90625 327.98923L280.3125 327.98923ZM280.3125 323.45798L280.3125 317.64548L276.28125 323.45798L280.3125 323.45798ZM285.25 321.62985Q285.25 319.3486 285.71875 317.95798Q286.1875 316.56735 287.10938 315.81735Q288.04688 315.05173 289.45312 315.05173Q290.48438 315.05173 291.26562 315.4736Q292.04688 315.87985 292.54688 316.67673Q293.0625 317.45798 293.35938 318.5986Q293.65625 319.7236 293.65625 321.62985Q293.65625 323.89548 293.1875 325.30173Q292.71875 326.69235 291.78125 327.45798Q290.85938 328.20798 289.45312 328.20798Q287.57812 328.20798 286.51562 326.87985Q285.25 325.27048 285.25 321.62985ZM286.875 321.62985Q286.875 324.80173 287.60938 325.86423Q288.35938 326.9111 289.45312 326.9111Q290.53125 326.9111 291.28125 325.86423Q292.03125 324.80173 292.03125 321.62985Q292.03125 318.45798 291.28125 317.4111Q290.53125 316.36423 289.4375 316.36423Q288.34375 316.36423 287.6875 317.2861Q286.875 318.45798 286.875 321.62985ZM296.14062 327.98923L296.14062 326.19235L297.9375 326.19235L297.9375 327.98923L296.14062 327.98923ZM300.25 321.62985Q300.25 319.3486 300.71875 317.95798Q301.1875 316.56735 302.10938 315.81735Q303.04688 315.05173 304.45312 315.05173Q305.48438 315.05173 306.26562 315.4736Q307.04688 315.87985 307.54688 316.67673Q308.0625 317.45798 308.35938 318.5986Q308.65625 319.7236 308.65625 321.62985Q308.65625 323.89548 308.1875 325.30173Q307.71875 326.69235 306.78125 327.45798Q305.85938 328.20798 304.45312 328.20798Q302.57812 328.20798 301.51562 326.87985Q300.25 325.27048 300.25 321.62985ZM301.875 321.62985Q301.875 324.80173 302.60938 325.86423Q303.35938 326.9111 304.45312 326.9111Q305.53125 326.9111 306.28125 325.86423Q307.03125 324.80173 307.03125 321.62985Q307.03125 318.45798 306.28125 317.4111Q305.53125 316.36423 304.4375 316.36423Q303.34375 316.36423 302.6875 317.2861Q301.875 318.45798 301.875 321.62985ZM310.54688 318.19235Q310.54688 316.81735 311.23438 315.8486Q311.9375 314.87985 313.25 314.87985Q314.46875 314.87985 315.26562 315.75485Q316.0625 316.61423 316.0625 318.30173Q316.0625 319.92673 315.25 320.81735Q314.45312 321.69235 313.26562 321.69235Q312.10938 321.69235 311.32812 320.83298Q310.54688 319.95798 310.54688 318.19235ZM313.29688 315.9736Q312.70312 315.9736 312.3125 316.48923Q311.92188 316.98923 311.92188 318.3486Q311.92188 319.5986 312.3125 320.0986Q312.71875 320.5986 313.29688 320.5986Q313.89062 320.5986 314.28125 320.0986Q314.67188 319.58298 314.67188 318.23923Q314.67188 316.98923 314.28125 316.48923Q313.89062 315.9736 313.29688 315.9736ZM313.3125 328.45798L320.35938 314.87985L321.64062 314.87985L314.60938 328.45798L313.3125 328.45798ZM318.875 324.95798Q318.875 323.58298 319.5625 322.61423Q320.26562 321.64548 321.59375 321.64548Q322.8125 321.64548 323.59375 322.52048Q324.39062 323.37985 324.39062 325.06735Q324.39062 326.69235 323.59375 327.58298Q322.79688 328.45798 321.60938 328.45798Q320.4375 328.45798 319.65625 327.58298Q318.875 326.70798 318.875 324.95798ZM321.64062 322.73923Q321.04688 322.73923 320.65625 323.25485Q320.26562 323.75485 320.26562 325.12985Q320.26562 326.3486 320.65625 326.86423Q321.04688 327.37985 321.625 327.37985Q322.23438 327.37985 322.625 326.86423Q323.01562 326.3486 323.01562 325.00485Q323.01562 323.75485 322.625 323.25485Q322.23438 322.73923 321.64062 322.73923Z" fill-rule="nonzero"/><path fill="#ffffff" d="M186.4911 177.1273L186.4911 178.64293L177.97548 178.64293Q177.95985 178.0648 178.16298 177.54918Q178.4911 176.67418 179.19423 175.83043Q179.91298 174.98668 181.27235 173.8773Q183.3661 172.15855 184.10048 171.15855Q184.85048 170.14293 184.85048 169.2523Q184.85048 168.29918 184.1786 167.65855Q183.50673 167.01793 182.4286 167.01793Q181.27235 167.01793 180.58485 167.70543Q179.91298 168.39293 179.89735 169.59605L178.27235 169.42418Q178.44423 167.61168 179.52235 166.65855Q180.6161 165.70543 182.45985 165.70543Q184.3036 165.70543 185.38173 166.73668Q186.47548 167.76793 186.47548 169.28355Q186.47548 170.04918 186.14735 170.79918Q185.83485 171.54918 185.10048 172.3773Q184.3661 173.20543 182.66298 174.64293Q181.2411 175.84605 180.83485 176.26793Q180.4286 176.6898 180.1786 177.1273L186.4911 177.1273ZM188.1786 172.28355Q188.1786 170.0023 188.64735 168.61168Q189.1161 167.22105 190.03798 166.47105Q190.97548 165.70543 192.38173 165.70543Q193.41298 165.70543 194.19423 166.1273Q194.97548 166.53355 195.47548 167.33043Q195.9911 168.11168 196.28798 169.2523Q196.58485 170.3773 196.58485 172.28355Q196.58485 174.54918 196.1161 175.95543Q195.64735 177.34605 194.70985 178.11168Q193.78798 178.86168 192.38173 178.86168Q190.50673 178.86168 189.44423 177.53355Q188.1786 175.92418 188.1786 172.28355ZM189.8036 172.28355Q189.8036 175.45543 190.53798 176.51793Q191.28798 177.5648 192.38173 177.5648Q193.45985 177.5648 194.20985 176.51793Q194.95985 175.45543 194.95985 172.28355Q194.95985 169.11168 194.20985 168.0648Q193.45985 167.01793 192.3661 167.01793Q191.27235 167.01793 190.6161 167.9398Q189.8036 169.11168 189.8036 172.28355ZM199.06923 178.64293L199.06923 176.84605L200.8661 176.84605L200.8661 178.64293L199.06923 178.64293ZM203.1786 172.28355Q203.1786 170.0023 203.64735 168.61168Q204.1161 167.22105 205.03798 166.47105Q205.97548 165.70543 207.38173 165.70543Q208.41298 165.70543 209.19423 166.1273Q209.97548 166.53355 210.47548 167.33043Q210.9911 168.11168 211.28798 169.2523Q211.58485 170.3773 211.58485 172.28355Q211.58485 174.54918 211.1161 175.95543Q210.64735 177.34605 209.70985 178.11168Q208.78798 178.86168 207.38173 178.86168Q205.50673 178.86168 204.44423 177.53355Q203.1786 175.92418 203.1786 172.28355ZM204.8036 172.28355Q204.8036 175.45543 205.53798 176.51793Q206.28798 177.5648 207.38173 177.5648Q208.45985 177.5648 209.20985 176.51793Q209.95985 175.45543 209.95985 172.28355Q209.95985 169.11168 209.20985 168.0648Q208.45985 167.01793 207.3661 167.01793Q206.27235 167.01793 205.6161 167.9398Q204.8036 169.11168 204.8036 172.28355ZM213.47548 168.84605Q213.47548 167.47105 214.16298 166.5023Q214.8661 165.53355 216.1786 165.53355Q217.39735 165.53355 218.19423 166.40855Q218.9911 167.26793 218.9911 168.95543Q218.9911 170.58043 218.1786 171.47105Q217.38173 172.34605 216.19423 172.34605Q215.03798 172.34605 214.25673 171.48668Q213.47548 170.61168 213.47548 168.84605ZM216.22548 166.6273Q215.63173 166.6273 215.2411 167.14293Q214.85048 167.64293 214.85048 169.0023Q214.85048 170.2523 215.2411 170.7523Q215.64735 171.2523 216.22548 171.2523Q216.81923 171.2523 217.20985 170.7523Q217.60048 170.23668 217.60048 168.89293Q217.60048 167.64293 217.20985 167.14293Q216.81923 166.6273 216.22548 166.6273ZM216.2411 179.11168L223.28798 165.53355L224.56923 165.53355L217.53798 179.11168L216.2411 179.11168ZM221.8036 175.61168Q221.8036 174.23668 222.4911 173.26793Q223.19423 172.29918 224.52235 172.29918Q225.7411 172.29918 226.52235 173.17418Q227.31923 174.03355 227.31923 175.72105Q227.31923 177.34605 226.52235 178.23668Q225.72548 179.11168 224.53798 179.11168Q223.3661 179.11168 222.58485 178.23668Q221.8036 177.36168 221.8036 175.61168ZM224.56923 173.39293Q223.97548 173.39293 223.58485 173.90855Q223.19423 174.40855 223.19423 175.78355Q223.19423 177.0023 223.58485 177.51793Q223.97548 178.03355 224.5536 178.03355Q225.16298 178.03355 225.5536 177.51793Q225.94423 177.0023 225.94423 175.65855Q225.94423 174.40855 225.5536 173.90855Q225.16298 173.39293 224.56923 173.39293Z" fill-rule="nonzero"/><path fill="#ffffff" d="M247.52567 106.534775L245.94754 106.534775L245.94754 96.45665Q245.36942 97.003525 244.44754 97.5504Q243.52567 98.08165 242.77567 98.3629L242.77567 96.83165Q244.10379 96.20665 245.10379 95.316025Q246.10379 94.4254 246.51004 93.597275L247.52567 93.597275L247.52567 106.534775ZM251.57254 100.1754Q251.57254 97.89415 252.04129 96.503525Q252.51004 95.1129 253.43192 94.3629Q254.36942 93.597275 255.77567 93.597275Q256.80692 93.597275 257.58817 94.01915Q258.36942 94.4254 258.86942 95.222275Q259.38504 96.003525 259.68192 97.14415Q259.9788 98.26915 259.9788 100.1754Q259.9788 102.441025 259.51004 103.847275Q259.0413 105.2379 258.1038 106.003525Q257.18192 106.753525 255.77567 106.753525Q253.90067 106.753525 252.83817 105.4254Q251.57254 103.816025 251.57254 100.1754ZM253.19754 100.1754Q253.19754 103.347275 253.93192 104.409775Q254.68192 105.45665 255.77567 105.45665Q256.8538 105.45665 257.6038 104.409775Q258.3538 103.347275 258.3538 100.1754Q258.3538 97.003525 257.6038 95.95665Q256.8538 94.909775 255.76004 94.909775Q254.66629 94.909775 254.01004 95.83165Q253.19754 97.003525 253.19754 100.1754ZM262.46317 106.534775L262.46317 104.7379L264.26004 104.7379L264.26004 106.534775L262.46317 106.534775ZM266.57254 100.1754Q266.57254 97.89415 267.0413 96.503525Q267.51004 95.1129 268.43192 94.3629Q269.36942 93.597275 270.77567 93.597275Q271.80692 93.597275 272.58817 94.01915Q273.36942 94.4254 273.86942 95.222275Q274.38504 96.003525 274.68192 97.14415Q274.9788 98.26915 274.9788 100.1754Q274.9788 102.441025 274.51004 103.847275Q274.0413 105.2379 273.1038 106.003525Q272.18192 106.753525 270.77567 106.753525Q268.90067 106.753525 267.83817 105.4254Q266.57254 103.816025 266.57254 100.1754ZM268.19754 100.1754Q268.19754 103.347275 268.93192 104.409775Q269.68192 105.45665 270.77567 105.45665Q271.8538 105.45665 272.6038 104.409775Q273.3538 103.347275 273.3538 100.1754Q273.3538 97.003525 272.6038 95.95665Q271.8538 94.909775 270.76004 94.909775Q269.6663 94.909775 269.01004 95.83165Q268.19754 97.003525 268.19754 100.1754ZM276.86942 96.7379Q276.86942 95.3629 277.55692 94.39415Q278.26004 93.4254 279.57254 93.4254Q280.7913 93.4254 281.58817 94.3004Q282.38504 95.159775 282.38504 96.847275Q282.38504 98.472275 281.57254 99.3629Q280.77567 100.2379 279.58817 100.2379Q278.43192 100.2379 277.65067 99.378525Q276.86942 98.503525 276.86942 96.7379ZM279.61942 94.51915Q279.02567 94.51915 278.63504 95.034775Q278.24442 95.534775 278.24442 96.89415Q278.24442 98.14415 278.63504 98.64415Q279.0413 99.14415 279.61942 99.14415Q280.21317 99.14415 280.6038 98.64415Q280.99442 98.128525 280.99442 96.784775Q280.99442 95.534775 280.6038 95.034775Q280.21317 94.51915 279.61942 94.51915ZM279.63504 107.003525L286.68192 93.4254L287.96317 93.4254L280.93192 107.003525L279.63504 107.003525ZM285.19754 103.503525Q285.19754 102.128525 285.88504 101.159775Q286.58817 100.191025 287.9163 100.191025Q289.13504 100.191025 289.9163 101.066025Q290.71317 101.9254 290.71317 103.6129Q290.71317 105.2379 289.9163 106.128525Q289.11942 107.003525 287.93192 107.003525Q286.76004 107.003525 285.9788 106.128525Q285.19754 105.253525 285.19754 103.503525ZM287.96317 101.284775Q287.36942 101.284775 286.9788 101.8004Q286.58817 102.3004 286.58817 103.6754Q286.58817 104.89415 286.9788 105.409775Q287.36942 105.9254 287.94754 105.9254Q288.55692 105.9254 288.94754 105.409775Q289.33817 104.89415 289.33817 103.5504Q289.33817 102.3004 288.94754 101.8004Q288.55692 101.284775 287.96317 101.284775Z" fill-rule="nonzero"/><path stroke="#ffffff" stroke-width="1.0" stroke-linejoin="round" stroke-linecap="round" d="M335.37137 192.19048C330.39236 176.86667 316.1124 166.49167 300.0 166.49167L300.0 54.916668C364.44962 54.916668 421.5695 96.416664 441.4855 157.7119" fill-rule="nonzero"/><path stroke="#ffffff" stroke-width="1.0" stroke-linejoin="round" stroke-linecap="round" d="M335.37137 215.1762C337.79843 207.70648 337.79843 199.66017 335.37137 192.19048L441.4855 157.7119C451.19373 187.59071 451.19373 219.77596 441.4855 249.65475" fill-rule="nonzero"/><path stroke="#ffffff" stroke-width="1.0" stroke-linejoin="round" stroke-linecap="round" d="M264.62863 215.1762C269.60764 230.5 283.8876 240.875 300.0 240.875C316.1124 240.875 330.39236 230.5 335.37137 215.1762L441.4855 249.65475C421.5695 310.95 364.44962 352.45 300.0 352.45C235.55037 352.45 178.43053 310.95 158.5145 249.65475" fill-rule="nonzero"/><path stroke="#ffffff" stroke-width="1.0" stroke-linejoin="round" stroke-linecap="round" d="M278.13928 173.59465C265.10406 183.06528 259.64963 199.85239 264.62863 215.1762L158.5145 249.65475C138.59846 188.35953 160.4163 121.21111 212.55714 83.328575" fill-rule="nonzero"/><path stroke="#ffffff" stroke-width="1.0" stroke-linejoin="round" stroke-linecap="round" d="M300.0 166.49167C292.1459 166.49167 284.4934 168.97812 278.13928 173.59465L212.55714 83.328575C237.97357 64.86246 268.58356 54.916668 300.0 54.916668" fill-rule="nonzero"/><path fill="#efefef" d="M19.76875 69.916664L19.76875 58.46354L21.33125 58.46354L27.346874 67.447914L27.346874 58.46354L28.8 58.46354L28.8 69.916664L27.2375 69.916664L21.221874 60.916664L21.221874 69.916664L19.76875 69.916664ZM37.01875 68.885414Q36.2375 69.55729 35.51875 69.83854Q34.8 70.104164 33.971874 70.104164Q32.596874 70.104164 31.8625 69.43229Q31.128124 68.760414 31.128124 67.729164Q31.128124 67.11979 31.409374 66.61979Q31.690624 66.104164 32.128124 65.80729Q32.58125 65.49479 33.14375 65.33854Q33.565624 65.229164 34.39375 65.135414Q36.096874 64.93229 36.909374 64.65104Q36.909374 64.354164 36.909374 64.27604Q36.909374 63.416664 36.51875 63.072914Q35.971874 62.58854 34.909374 62.58854Q33.925 62.58854 33.440624 62.947914Q32.971874 63.291664 32.753124 64.166664L31.378124 63.979164Q31.565624 63.104164 31.9875 62.55729Q32.425 62.010414 33.2375 61.729164Q34.05 61.43229 35.1125 61.43229Q36.175 61.43229 36.83125 61.68229Q37.503124 61.93229 37.815624 62.30729Q38.128124 62.68229 38.253124 63.260414Q38.33125 63.61979 38.33125 64.55729L38.33125 66.43229Q38.33125 68.40104 38.409374 68.916664Q38.503124 69.43229 38.76875 69.916664L37.3 69.916664Q37.08125 69.479164 37.01875 68.885414ZM36.909374 65.74479Q36.14375 66.05729 34.6125 66.27604Q33.7375 66.40104 33.378124 66.55729Q33.01875 66.71354 32.815624 67.02604Q32.628124 67.322914 32.628124 67.68229Q32.628124 68.24479 33.05 68.61979Q33.4875 68.99479 34.3 68.99479Q35.1125 68.99479 35.7375 68.65104Q36.378124 68.291664 36.675 67.666664Q36.909374 67.197914 36.909374 66.260414L36.909374 65.74479ZM43.675 68.65104L43.878124 69.90104Q43.284374 70.02604 42.815624 70.02604Q42.05 70.02604 41.628124 69.791664Q41.20625 69.541664 41.034374 69.15104Q40.8625 68.74479 40.8625 67.479164L40.8625 62.71354L39.83125 62.71354L39.83125 61.61979L40.8625 61.61979L40.8625 59.55729L42.26875 58.71354L42.26875 61.61979L43.675 61.61979L43.675 62.71354L42.26875 62.71354L42.26875 67.55729Q42.26875 68.166664 42.33125 68.33854Q42.409374 68.510414 42.58125 68.61979Q42.753124 68.71354 43.065624 68.71354Q43.3 68.71354 43.675 68.65104ZM50.05 69.916664L50.05 68.697914Q49.08125 70.104164 47.409374 70.104164Q46.675 70.104164 46.034374 69.822914Q45.409374 69.541664 45.096874 69.11979Q44.784374 68.68229 44.659374 68.072914Q44.58125 67.65104 44.58125 66.760414L44.58125 61.61979L45.9875 61.61979L45.9875 66.21354Q45.9875 67.322914 46.065624 67.697914Q46.20625 68.260414 46.628124 68.572914Q47.065624 68.885414 47.690624 68.885414Q48.33125 68.885414 48.878124 68.572914Q49.440624 68.24479 49.659374 67.68229Q49.89375 67.11979 49.89375 66.05729L49.89375 61.61979L51.3 61.61979L51.3 69.916664L50.05 69.916664ZM53.596874 69.916664L53.596874 61.61979L54.8625 61.61979L54.8625 62.86979Q55.346874 61.99479 55.753124 61.71354Q56.159374 61.43229 56.659374 61.43229Q57.3625 61.43229 58.096874 61.885414L57.6125 63.18229Q57.096874 62.885414 56.58125 62.885414Q56.128124 62.885414 55.753124 63.166664Q55.39375 63.43229 55.2375 63.93229Q55.003124 64.68229 55.003124 65.572914L55.003124 69.916664L53.596874 69.916664ZM64.28438 67.24479L65.7375 67.416664Q65.39375 68.697914 64.45625 69.40104Q63.534374 70.104164 62.096874 70.104164Q60.26875 70.104164 59.20625 68.979164Q58.14375 67.854164 58.14375 65.83854Q58.14375 63.74479 59.221874 62.58854Q60.3 61.43229 62.01875 61.43229Q63.675 61.43229 64.72188 62.572914Q65.78438 63.697914 65.78438 65.74479Q65.78438 65.86979 65.78438 66.11979L59.596874 66.11979Q59.675 67.49479 60.3625 68.229164Q61.065624 68.947914 62.096874 68.947914Q62.878124 68.947914 63.425 68.541664Q63.971874 68.135414 64.28438 67.24479ZM59.675 64.96354L64.3 64.96354Q64.20625 63.916664 63.76875 63.40104Q63.096874 62.58854 62.034374 62.58854Q61.065624 62.58854 60.39375 63.24479Q59.7375 63.885414 59.675 64.96354ZM67.05 67.43229L68.44063 67.21354Q68.55 68.05729 69.08125 68.510414Q69.62813 68.947914 70.58125 68.947914Q71.55 68.947914 72.01875 68.55729Q72.4875 68.15104 72.4875 67.61979Q72.4875 67.15104 72.08125 66.86979Q71.78438 66.68229 70.64375 66.40104Q69.09688 66.010414 68.4875 65.729164Q67.89375 65.43229 67.58125 64.93229Q67.28438 64.43229 67.28438 63.822914Q67.28438 63.260414 67.53438 62.791664Q67.78438 62.322914 68.22188 62.010414Q68.55 61.760414 69.1125 61.604164Q69.69063 61.43229 70.33125 61.43229Q71.31563 61.43229 72.05 61.71354Q72.78438 61.99479 73.12813 62.479164Q73.4875 62.947914 73.62813 63.760414L72.25313 63.947914Q72.15938 63.30729 71.70625 62.947914Q71.25313 62.58854 70.44063 62.58854Q69.47188 62.58854 69.05 62.916664Q68.64375 63.229164 68.64375 63.65104Q68.64375 63.93229 68.81563 64.15104Q68.9875 64.36979 69.34688 64.52604Q69.56563 64.604164 70.59688 64.885414Q72.08125 65.27604 72.675 65.541664Q73.26875 65.791664 73.59688 66.27604Q73.94063 66.760414 73.94063 67.479164Q73.94063 68.18229 73.51875 68.80729Q73.1125 69.416664 72.33125 69.760414Q71.56563 70.104164 70.59688 70.104164Q68.97188 70.104164 68.12813 69.43229Q67.28438 68.760414 67.05 67.43229ZM81.01875 66.86979L82.40938 67.05729Q82.175 68.479164 81.2375 69.291664Q80.31563 70.104164 78.95625 70.104164Q77.25313 70.104164 76.20625 68.99479Q75.175 67.86979 75.175 65.791664Q75.175 64.447914 75.6125 63.447914Q76.06563 62.43229 76.97188 61.93229Q77.89375 61.43229 78.95625 61.43229Q80.31563 61.43229 81.175 62.11979Q82.03438 62.791664 82.26875 64.05729L80.90938 64.260414Q80.70625 63.43229 80.20625 63.010414Q79.72188 62.58854 79.01875 62.58854Q77.95625 62.58854 77.28438 63.354164Q76.62813 64.104164 76.62813 65.760414Q76.62813 67.43229 77.26875 68.197914Q77.90938 68.947914 78.94063 68.947914Q79.76875 68.947914 80.31563 68.447914Q80.87813 67.93229 81.01875 66.86979ZM89.01875 68.885414Q88.2375 69.55729 87.51875 69.83854Q86.8 70.104164 85.97188 70.104164Q84.59688 70.104164 83.8625 69.43229Q83.12813 68.760414 83.12813 67.729164Q83.12813 67.11979 83.40938 66.61979Q83.69063 66.104164 84.12813 65.80729Q84.58125 65.49479 85.14375 65.33854Q85.56563 65.229164 86.39375 65.135414Q88.09688 64.93229 88.90938 64.65104Q88.90938 64.354164 88.90938 64.27604Q88.90938 63.416664 88.51875 63.072914Q87.97188 62.58854 86.90938 62.58854Q85.925 62.58854 85.44063 62.947914Q84.97188 63.291664 84.75313 64.166664L83.37813 63.979164Q83.56563 63.104164 83.9875 62.55729Q84.425 62.010414 85.2375 61.729164Q86.05 61.43229 87.1125 61.43229Q88.175 61.43229 88.83125 61.68229Q89.50313 61.93229 89.81563 62.30729Q90.12813 62.68229 90.25313 63.260414Q90.33125 63.61979 90.33125 64.55729L90.33125 66.43229Q90.33125 68.40104 90.40938 68.916664Q90.50313 69.43229 90.76875 69.916664L89.3 69.916664Q89.08125 69.479164 89.01875 68.885414ZM88.90938 65.74479Q88.14375 66.05729 86.6125 66.27604Q85.7375 66.40104 85.37813 66.55729Q85.01875 66.71354 84.81563 67.02604Q84.62813 67.322914 84.62813 67.68229Q84.62813 68.24479 85.05 68.61979Q85.4875 68.99479 86.3 68.99479Q87.1125 68.99479 87.7375 68.65104Q88.37813 68.291664 88.675 67.666664Q88.90938 67.197914 88.90938 66.260414L88.90938 65.74479ZM92.6125 73.104164L92.6125 61.61979L93.89375 61.61979L93.89375 62.697914Q94.34688 62.05729 94.90938 61.74479Q95.4875 61.43229 96.3 61.43229Q97.3625 61.43229 98.175 61.979164Q98.9875 62.52604 99.39375 63.52604Q99.81563 64.510414 99.81563 65.697914Q99.81563 66.979164 99.34688 67.99479Q98.89375 69.010414 98.01875 69.55729Q97.15938 70.104164 96.19063 70.104164Q95.4875 70.104164 94.925 69.80729Q94.37813 69.510414 94.01875 69.05729L94.01875 73.104164L92.6125 73.104164ZM93.87813 65.80729Q93.87813 67.416664 94.51875 68.18229Q95.175 68.947914 96.09688 68.947914Q97.03438 68.947914 97.70625 68.15104Q98.37813 67.354164 98.37813 65.697914Q98.37813 64.104164 97.72188 63.322914Q97.06563 62.52604 96.15938 62.52604Q95.26875 62.52604 94.56563 63.36979Q93.87813 64.21354 93.87813 65.80729ZM107.28438 67.24479L108.7375 67.416664Q108.39375 68.697914 107.45625 69.40104Q106.53438 70.104164 105.09688 70.104164Q103.26875 70.104164 102.20625 68.979164Q101.14375 67.854164 101.14375 65.83854Q101.14375 63.74479 102.22188 62.58854Q103.3 61.43229 105.01875 61.43229Q106.675 61.43229 107.72188 62.572914Q108.78438 63.697914 108.78438 65.74479Q108.78438 65.86979 108.78438 66.11979L102.59688 66.11979Q102.675 67.49479 103.3625 68.229164Q104.06563 68.947914 105.09688 68.947914Q105.87813 68.947914 106.425 68.541664Q106.97188 68.135414 107.28438 67.24479ZM102.675 64.96354L107.3 64.96354Q107.20625 63.916664 106.76875 63.40104Q106.09688 62.58854 105.03438 62.58854Q104.06563 62.58854 103.39375 63.24479Q102.7375 63.885414 102.675 64.96354Z" fill-rule="nonzero"/><path fill="#9e9e9e" d="M24.51875 91.916664L23.1125 91.916664L23.1125 82.947914Q22.596874 83.43229 21.76875 83.916664Q20.95625 84.40104 20.3 84.65104L20.3 83.291664Q21.471874 82.729164 22.346874 81.947914Q23.2375 81.15104 23.6125 80.416664L24.51875 80.416664L24.51875 91.916664ZM28.221874 86.260414Q28.221874 84.229164 28.628124 82.99479Q29.05 81.760414 29.878124 81.08854Q30.70625 80.416664 31.95625 80.416664Q32.878124 80.416664 33.565624 80.791664Q34.26875 81.15104 34.721874 81.854164Q35.175 82.55729 35.425 83.55729Q35.690624 84.55729 35.690624 86.260414Q35.690624 88.27604 35.26875 89.52604Q34.8625 90.760414 34.034374 91.447914Q33.20625 92.11979 31.95625 92.11979Q30.3 92.11979 29.346874 90.916664Q28.221874 89.49479 28.221874 86.260414ZM29.659374 86.260414Q29.659374 89.08854 30.315624 90.02604Q30.9875 90.947914 31.95625 90.947914Q32.925 90.947914 33.58125 90.010414Q34.2375 89.072914 34.2375 86.260414Q34.2375 83.43229 33.58125 82.510414Q32.925 81.572914 31.940624 81.572914Q30.971874 81.572914 30.39375 82.40104Q29.659374 83.447914 29.659374 86.260414ZM38.003124 91.916664L38.003124 90.30729L39.6125 90.30729L39.6125 91.916664L38.003124 91.916664ZM41.221874 86.260414Q41.221874 84.229164 41.628124 82.99479Q42.05 81.760414 42.878124 81.08854Q43.70625 80.416664 44.95625 80.416664Q45.878124 80.416664 46.565624 80.791664Q47.26875 81.15104 47.721874 81.854164Q48.175 82.55729 48.425 83.55729Q48.690624 84.55729 48.690624 86.260414Q48.690624 88.27604 48.26875 89.52604Q47.8625 90.760414 47.034374 91.447914Q46.20625 92.11979 44.95625 92.11979Q43.3 92.11979 42.346874 90.916664Q41.221874 89.49479 41.221874 86.260414ZM42.659374 86.260414Q42.659374 89.08854 43.315624 90.02604Q43.9875 90.947914 44.95625 90.947914Q45.925 90.947914 46.58125 90.010414Q47.2375 89.072914 47.2375 86.260414Q47.2375 83.43229 46.58125 82.510414Q45.925 81.572914 44.940624 81.572914Q43.971874 81.572914 43.39375 82.40104Q42.659374 83.447914 42.659374 86.260414ZM50.4875 83.21354Q50.4875 81.979164 51.096874 81.11979Q51.721874 80.260414 52.89375 80.260414Q53.971874 80.260414 54.675 81.041664Q55.378124 81.80729 55.378124 83.291664Q55.378124 84.74479 54.659374 85.541664Q53.95625 86.322914 52.909374 86.322914Q51.8625 86.322914 51.175 85.55729Q50.4875 84.77604 50.4875 83.21354ZM52.925 81.229164Q52.409374 81.229164 52.05 81.68229Q51.70625 82.135414 51.70625 83.354164Q51.70625 84.447914 52.05 84.90104Q52.409374 85.354164 52.925 85.354164Q53.45625 85.354164 53.8 84.90104Q54.159374 84.447914 54.159374 83.24479Q54.159374 82.135414 53.8 81.68229Q53.45625 81.229164 52.925 81.229164ZM52.940624 92.33854L59.20625 80.260414L60.346874 80.260414L54.096874 92.33854L52.940624 92.33854ZM57.89375 89.229164Q57.89375 87.99479 58.503124 87.135414Q59.128124 86.27604 60.3 86.27604Q61.378124 86.27604 62.08125 87.05729Q62.8 87.822914 62.8 89.30729Q62.8 90.760414 62.08125 91.55729Q61.3625 92.33854 60.315624 92.33854Q59.26875 92.33854 58.58125 91.55729Q57.89375 90.77604 57.89375 89.229164ZM60.346874 87.24479Q59.815624 87.24479 59.45625 87.697914Q59.1125 88.15104 59.1125 89.36979Q59.1125 90.46354 59.45625 90.916664Q59.815624 91.36979 60.33125 91.36979Q60.878124 91.36979 61.221874 90.916664Q61.565624 90.46354 61.565624 89.260414Q61.565624 88.15104 61.20625 87.697914Q60.8625 87.24479 60.346874 87.24479Z" fill-rule="nonzero"/><path stroke="#757575" stroke-width="1.0" stroke-linecap="butt" d="M18.55 75.416664L145.23334 75.416664L256.32715 69.2721" fill-rule="nonzero"/><path fill="#9e9e9e" d="M258.32715 69.2721C258.32715 68.167534 257.4317 67.2721 256.32715 67.2721C255.22258 67.2721 254.32715 68.167534 254.32715 69.2721C254.32715 70.37667 255.22258 71.2721 256.32715 71.2721C257.4317 71.2721 258.32715 70.37667 258.32715 69.2721" fill-rule="nonzero"/><path fill="#efefef" d="M18.51875 154.51048L22.925 143.05736L24.565624 143.05736L29.253124 154.51048L27.51875 154.51048L26.190624 151.04173L21.39375 151.04173L20.14375 154.51048L18.51875 154.51048ZM21.83125 149.80736L25.721874 149.80736L24.51875 146.63548Q23.971874 145.18236 23.70625 144.26048Q23.4875 145.35423 23.096874 146.44798L21.83125 149.80736ZM30.6125 154.51048L30.6125 146.21361L31.878124 146.21361L31.878124 147.38548Q32.784374 146.02611 34.51875 146.02611Q35.26875 146.02611 35.89375 146.29173Q36.51875 146.55736 36.83125 146.99486Q37.14375 147.43236 37.26875 148.04173Q37.346874 148.43236 37.346874 149.40111L37.346874 154.51048L35.940624 154.51048L35.940624 149.46361Q35.940624 148.60423 35.76875 148.18236Q35.6125 147.74486 35.190624 147.49486Q34.784374 147.24486 34.221874 147.24486Q33.315624 147.24486 32.659374 147.82298Q32.01875 148.38548 32.01875 149.97923L32.01875 154.51048L30.6125 154.51048ZM39.6125 144.66673L39.6125 143.05736L41.01875 143.05736L41.01875 144.66673L39.6125 144.66673ZM39.6125 154.51048L39.6125 146.21361L41.01875 146.21361L41.01875 154.51048L39.6125 154.51048ZM43.6125 154.51048L43.6125 146.21361L44.8625 146.21361L44.8625 147.36986Q45.253124 146.76048 45.89375 146.40111Q46.55 146.02611 47.378124 146.02611Q48.3 146.02611 48.89375 146.41673Q49.4875 146.79173 49.721874 147.47923Q50.70625 146.02611 52.284374 146.02611Q53.51875 146.02611 54.175 146.71361Q54.846874 147.38548 54.846874 148.80736L54.846874 154.51048L53.45625 154.51048L53.45625 149.27611Q53.45625 148.43236 53.315624 148.07298Q53.175 147.69798 52.815624 147.47923Q52.45625 147.24486 51.971874 147.24486Q51.096874 147.24486 50.51875 147.82298Q49.940624 148.40111 49.940624 149.68236L49.940624 154.51048L48.534374 154.51048L48.534374 149.11986Q48.534374 148.18236 48.190624 147.71361Q47.846874 147.24486 47.065624 147.24486Q46.471874 147.24486 45.971874 147.55736Q45.471874 147.86986 45.2375 148.47923Q45.01875 149.07298 45.01875 150.19798L45.01875 154.51048L43.6125 154.51048ZM62.01875 153.47923Q61.2375 154.15111 60.51875 154.43236Q59.8 154.69798 58.971874 154.69798Q57.596874 154.69798 56.8625 154.02611Q56.128124 153.35423 56.128124 152.32298Q56.128124 151.71361 56.409374 151.21361Q56.690624 150.69798 57.128124 150.40111Q57.58125 150.08861 58.14375 149.93236Q58.565624 149.82298 59.39375 149.72923Q61.096874 149.52611 61.909374 149.24486Q61.909374 148.94798 61.909374 148.86986Q61.909374 148.01048 61.51875 147.66673Q60.971874 147.18236 59.909374 147.18236Q58.925 147.18236 58.440624 147.54173Q57.971874 147.88548 57.753124 148.76048L56.378124 148.57298Q56.565624 147.69798 56.9875 147.15111Q57.425 146.60423 58.2375 146.32298Q59.05 146.02611 60.1125 146.02611Q61.175 146.02611 61.83125 146.27611Q62.503124 146.52611 62.815624 146.90111Q63.128124 147.27611 63.253124 147.85423Q63.33125 148.21361 63.33125 149.15111L63.33125 151.02611Q63.33125 152.99486 63.409374 153.51048Q63.503124 154.02611 63.76875 154.51048L62.3 154.51048Q62.08125 154.07298 62.01875 153.47923ZM61.909374 150.33861Q61.14375 150.65111 59.6125 150.86986Q58.7375 150.99486 58.378124 151.15111Q58.01875 151.30736 57.815624 151.61986Q57.628124 151.91673 57.628124 152.27611Q57.628124 152.83861 58.05 153.21361Q58.4875 153.58861 59.3 153.58861Q60.1125 153.58861 60.7375 153.24486Q61.378124 152.88548 61.675 152.26048Q61.909374 151.79173 61.909374 150.85423L61.909374 150.33861ZM65.58125 154.51048L65.58125 143.05736L66.9875 143.05736L66.9875 154.51048L65.58125 154.51048ZM69.05 152.02611L70.44063 151.80736Q70.55 152.65111 71.08125 153.10423Q71.62813 153.54173 72.58125 153.54173Q73.55 153.54173 74.01875 153.15111Q74.4875 152.74486 74.4875 152.21361Q74.4875 151.74486 74.08125 151.46361Q73.78438 151.27611 72.64375 150.99486Q71.09688 150.60423 70.4875 150.32298Q69.89375 150.02611 69.58125 149.52611Q69.28438 149.02611 69.28438 148.41673Q69.28438 147.85423 69.53438 147.38548Q69.78438 146.91673 70.22188 146.60423Q70.55 146.35423 71.1125 146.19798Q71.69063 146.02611 72.33125 146.02611Q73.31563 146.02611 74.05 146.30736Q74.78438 146.58861 75.12813 147.07298Q75.4875 147.54173 75.62813 148.35423L74.25313 148.54173Q74.15938 147.90111 73.70625 147.54173Q73.25313 147.18236 72.44063 147.18236Q71.47188 147.18236 71.05 147.51048Q70.64375 147.82298 70.64375 148.24486Q70.64375 148.52611 70.81563 148.74486Q70.9875 148.96361 71.34688 149.11986Q71.56563 149.19798 72.59688 149.47923Q74.08125 149.86986 74.675 150.13548Q75.26875 150.38548 75.59688 150.86986Q75.94063 151.35423 75.94063 152.07298Q75.94063 152.77611 75.51875 153.40111Q75.1125 154.01048 74.33125 154.35423Q73.56563 154.69798 72.59688 154.69798Q70.97188 154.69798 70.12813 154.02611Q69.28438 153.35423 69.05 152.02611Z" fill-rule="nonzero"/><path fill="#9e9e9e" d="M26.6125 175.15111L26.6125 176.51048L19.034374 176.51048Q19.01875 175.99486 19.20625 175.52611Q19.4875 174.76048 20.128124 174.01048Q20.76875 173.26048 21.971874 172.27611Q23.83125 170.74486 24.4875 169.85423Q25.14375 168.94798 25.14375 168.15111Q25.14375 167.32298 24.55 166.74486Q23.95625 166.16673 22.9875 166.16673Q21.971874 166.16673 21.3625 166.77611Q20.753124 167.38548 20.753124 168.46361L19.3 168.32298Q19.45625 166.69798 20.425 165.85423Q21.39375 165.01048 23.01875 165.01048Q24.675 165.01048 25.628124 165.93236Q26.596874 166.83861 26.596874 168.18236Q26.596874 168.86986 26.315624 169.54173Q26.034374 170.19798 25.378124 170.93236Q24.721874 171.66673 23.20625 172.94798Q21.940624 174.01048 21.58125 174.40111Q21.221874 174.77611 20.9875 175.15111L26.6125 175.15111ZM28.221874 170.85423Q28.221874 168.82298 28.628124 167.58861Q29.05 166.35423 29.878124 165.68236Q30.70625 165.01048 31.95625 165.01048Q32.878124 165.01048 33.565624 165.38548Q34.26875 165.74486 34.721874 166.44798Q35.175 167.15111 35.425 168.15111Q35.690624 169.15111 35.690624 170.85423Q35.690624 172.86986 35.26875 174.11986Q34.8625 175.35423 34.034374 176.04173Q33.20625 176.71361 31.95625 176.71361Q30.3 176.71361 29.346874 175.51048Q28.221874 174.08861 28.221874 170.85423ZM29.659374 170.85423Q29.659374 173.68236 30.315624 174.61986Q30.9875 175.54173 31.95625 175.54173Q32.925 175.54173 33.58125 174.60423Q34.2375 173.66673 34.2375 170.85423Q34.2375 168.02611 33.58125 167.10423Q32.925 166.16673 31.940624 166.16673Q30.971874 166.16673 30.39375 166.99486Q29.659374 168.04173 29.659374 170.85423ZM38.003124 176.51048L38.003124 174.90111L39.6125 174.90111L39.6125 176.51048L38.003124 176.51048ZM41.221874 170.85423Q41.221874 168.82298 41.628124 167.58861Q42.05 166.35423 42.878124 165.68236Q43.70625 165.01048 44.95625 165.01048Q45.878124 165.01048 46.565624 165.38548Q47.26875 165.74486 47.721874 166.44798Q48.175 167.15111 48.425 168.15111Q48.690624 169.15111 48.690624 170.85423Q48.690624 172.86986 48.26875 174.11986Q47.8625 175.35423 47.034374 176.04173Q46.20625 176.71361 44.95625 176.71361Q43.3 176.71361 42.346874 175.51048Q41.221874 174.08861 41.221874 170.85423ZM42.659374 170.85423Q42.659374 173.68236 43.315624 174.61986Q43.9875 175.54173 44.95625 175.54173Q45.925 175.54173 46.58125 174.60423Q47.2375 173.66673 47.2375 170.85423Q47.2375 168.02611 46.58125 167.10423Q45.925 166.16673 44.940624 166.16673Q43.971874 166.16673 43.39375 166.99486Q42.659374 168.04173 42.659374 170.85423ZM50.4875 167.80736Q50.4875 166.57298 51.096874 165.71361Q51.721874 164.85423 52.89375 164.85423Q53.971874 164.85423 54.675 165.63548Q55.378124 166.40111 55.378124 167.88548Q55.378124 169.33861 54.659374 170.13548Q53.95625 170.91673 52.909374 170.91673Q51.8625 170.91673 51.175 170.15111Q50.4875 169.36986 50.4875 167.80736ZM52.925 165.82298Q52.409374 165.82298 52.05 166.27611Q51.70625 166.72923 51.70625 167.94798Q51.70625 169.04173 52.05 169.49486Q52.409374 169.94798 52.925 169.94798Q53.45625 169.94798 53.8 169.49486Q54.159374 169.04173 54.159374 167.83861Q54.159374 166.72923 53.8 166.27611Q53.45625 165.82298 52.925 165.82298ZM52.940624 176.93236L59.20625 164.85423L60.346874 164.85423L54.096874 176.93236L52.940624 176.93236ZM57.89375 173.82298Q57.89375 172.58861 58.503124 171.72923Q59.128124 170.86986 60.3 170.86986Q61.378124 170.86986 62.08125 171.65111Q62.8 172.41673 62.8 173.90111Q62.8 175.35423 62.08125 176.15111Q61.3625 176.93236 60.315624 176.93236Q59.26875 176.93236 58.58125 176.15111Q57.89375 175.36986 57.89375 173.82298ZM60.346874 171.83861Q59.815624 171.83861 59.45625 172.29173Q59.1125 172.74486 59.1125 173.96361Q59.1125 175.05736 59.45625 175.51048Q59.815624 175.96361 60.33125 175.96361Q60.878124 175.96361 61.221874 175.51048Q61.565624 175.05736 61.565624 173.85423Q61.565624 172.74486 61.20625 172.29173Q60.8625 171.83861 60.346874 171.83861Z" fill-rule="nonzero"/><path stroke="#757575" stroke-width="1.0" stroke-linecap="butt" d="M18.55 160.01048L145.23334 160.01048L165.58876 160.01048" fill-rule="nonzero"/><path fill="#9e9e9e" d="M167.58876 160.01048C167.58876 158.90591 166.69334 158.01048 165.58876 158.01048C164.48419 158.01048 163.58876 158.90591 163.58876 160.01048C163.58876 161.11505 164.48419 162.01048 165.58876 162.01048C166.69334 162.01048 167.58876 161.11505 167.58876 160.01048" fill-rule="nonzero"/><path fill="#efefef" d="M498.6844 83.84631L498.6844 72.39319L503.0125 72.39319Q504.15314 72.39319 504.7469 72.50256Q505.59064 72.64319 506.15314 73.03381Q506.73126 73.42444 507.075 74.14319Q507.4344 74.84631 507.4344 75.70569Q507.4344 77.15881 506.4969 78.17444Q505.575 79.19006 503.1375 79.19006L500.2 79.19006L500.2 83.84631L498.6844 83.84631ZM500.2 77.83069L503.16876 77.83069Q504.6375 77.83069 505.2469 77.28381Q505.8719 76.73694 505.8719 75.75256Q505.8719 75.03381 505.4969 74.51819Q505.1375 74.00256 504.54376 73.84631Q504.16876 73.73694 503.1375 73.73694L500.2 73.73694L500.2 77.83069ZM515.1844 81.17444L516.6375 81.34631Q516.29376 82.62756 515.35626 83.33069Q514.4344 84.03381 512.9969 84.03381Q511.16876 84.03381 510.10626 82.90881Q509.04376 81.78381 509.04376 79.76819Q509.04376 77.67444 510.1219 76.51819Q511.2 75.36194 512.91876 75.36194Q514.575 75.36194 515.6219 76.50256Q516.6844 77.62756 516.6844 79.67444Q516.6844 79.79944 516.6844 80.04944L510.4969 80.04944Q510.575 81.42444 511.2625 82.15881Q511.96564 82.87756 512.9969 82.87756Q513.77814 82.87756 514.325 82.47131Q514.8719 82.06506 515.1844 81.17444ZM510.575 78.89319L515.2 78.89319Q515.10626 77.84631 514.66876 77.33069Q513.9969 76.51819 512.9344 76.51819Q511.96564 76.51819 511.29376 77.17444Q510.6375 77.81506 510.575 78.89319ZM518.4969 83.84631L518.4969 75.54944L519.7625 75.54944L519.7625 76.79944Q520.2469 75.92444 520.65314 75.64319Q521.0594 75.36194 521.5594 75.36194Q522.2625 75.36194 522.9969 75.81506L522.5125 77.11194Q521.9969 76.81506 521.48126 76.81506Q521.02814 76.81506 520.65314 77.09631Q520.29376 77.36194 520.1375 77.86194Q519.90314 78.61194 519.90314 79.50256L519.90314 83.84631L518.4969 83.84631ZM522.95 81.36194L524.34064 81.14319Q524.45 81.98694 524.98126 82.44006Q525.52814 82.87756 526.48126 82.87756Q527.45 82.87756 527.91876 82.48694Q528.3875 82.08069 528.3875 81.54944Q528.3875 81.08069 527.98126 80.79944Q527.6844 80.61194 526.54376 80.33069Q524.9969 79.94006 524.3875 79.65881Q523.79376 79.36194 523.48126 78.86194Q523.1844 78.36194 523.1844 77.75256Q523.1844 77.19006 523.4344 76.72131Q523.6844 76.25256 524.1219 75.94006Q524.45 75.69006 525.0125 75.53381Q525.59064 75.36194 526.23126 75.36194Q527.21564 75.36194 527.95 75.64319Q528.6844 75.92444 529.02814 76.40881Q529.3875 76.87756 529.52814 77.69006L528.15314 77.87756Q528.0594 77.23694 527.60626 76.87756Q527.15314 76.51819 526.34064 76.51819Q525.3719 76.51819 524.95 76.84631Q524.54376 77.15881 524.54376 77.58069Q524.54376 77.86194 524.71564 78.08069Q524.8875 78.29944 525.2469 78.45569Q525.46564 78.53381 526.4969 78.81506Q527.98126 79.20569 528.575 79.47131Q529.16876 79.72131 529.4969 80.20569Q529.84064 80.69006 529.84064 81.40881Q529.84064 82.11194 529.41876 82.73694Q529.0125 83.34631 528.23126 83.69006Q527.46564 84.03381 526.4969 84.03381Q524.8719 84.03381 524.02814 83.36194Q523.1844 82.69006 522.95 81.36194ZM531.5125 87.03381L531.5125 75.54944L532.79376 75.54944L532.79376 76.62756Q533.2469 75.98694 533.8094 75.67444Q534.3875 75.36194 535.2 75.36194Q536.2625 75.36194 537.075 75.90881Q537.8875 76.45569 538.29376 77.45569Q538.71564 78.44006 538.71564 79.62756Q538.71564 80.90881 538.2469 81.92444Q537.79376 82.94006 536.91876 83.48694Q536.0594 84.03381 535.09064 84.03381Q534.3875 84.03381 533.825 83.73694Q533.27814 83.44006 532.91876 82.98694L532.91876 87.03381L531.5125 87.03381ZM532.77814 79.73694Q532.77814 81.34631 533.41876 82.11194Q534.075 82.87756 534.9969 82.87756Q535.9344 82.87756 536.60626 82.08069Q537.27814 81.28381 537.27814 79.62756Q537.27814 78.03381 536.6219 77.25256Q535.96564 76.45569 535.0594 76.45569Q534.16876 76.45569 533.46564 77.29944Q532.77814 78.14319 532.77814 79.73694ZM546.1844 81.17444L547.6375 81.34631Q547.29376 82.62756 546.35626 83.33069Q545.4344 84.03381 543.9969 84.03381Q542.16876 84.03381 541.10626 82.90881Q540.04376 81.78381 540.04376 79.76819Q540.04376 77.67444 541.1219 76.51819Q542.2 75.36194 543.91876 75.36194Q545.575 75.36194 546.6219 76.50256Q547.6844 77.62756 547.6844 79.67444Q547.6844 79.79944 547.6844 80.04944L541.4969 80.04944Q541.575 81.42444 542.2625 82.15881Q542.96564 82.87756 543.9969 82.87756Q544.77814 82.87756 545.325 82.47131Q545.8719 82.06506 546.1844 81.17444ZM541.575 78.89319L546.2 78.89319Q546.10626 77.84631 545.66876 77.33069Q544.9969 76.51819 543.9344 76.51819Q542.96564 76.51819 542.29376 77.17444Q541.6375 77.81506 541.575 78.89319ZM554.91876 80.79944L556.3094 80.98694Q556.075 82.40881 555.1375 83.22131Q554.21564 84.03381 552.85626 84.03381Q551.15314 84.03381 550.10626 82.92444Q549.075 81.79944 549.075 79.72131Q549.075 78.37756 549.5125 77.37756Q549.96564 76.36194 550.8719 75.86194Q551.79376 75.36194 552.85626 75.36194Q554.21564 75.36194 555.075 76.04944Q555.9344 76.72131 556.16876 77.98694L554.8094 78.19006Q554.60626 77.36194 554.10626 76.94006Q553.6219 76.51819 552.91876 76.51819Q551.85626 76.51819 551.1844 77.28381Q550.52814 78.03381 550.52814 79.69006Q550.52814 81.36194 551.16876 82.12756Q551.8094 82.87756 552.84064 82.87756Q553.66876 82.87756 554.21564 82.37756Q554.77814 81.86194 554.91876 80.79944ZM560.575 82.58069L560.77814 83.83069Q560.1844 83.95569 559.71564 83.95569Q558.95 83.95569 558.52814 83.72131Q558.10626 83.47131 557.9344 83.08069Q557.7625 82.67444 557.7625 81.40881L557.7625 76.64319L556.73126 76.64319L556.73126 75.54944L557.7625 75.54944L557.7625 73.48694L559.16876 72.64319L559.16876 75.54944L560.575 75.54944L560.575 76.64319L559.16876 76.64319L559.16876 81.48694Q559.16876 82.09631 559.23126 82.26819Q559.3094 82.44006 559.48126 82.54944Q559.65314 82.64319 559.96564 82.64319Q560.2 82.64319 560.575 82.58069ZM561.5125 74.00256L561.5125 72.39319L562.91876 72.39319L562.91876 74.00256L561.5125 74.00256ZM561.5125 83.84631L561.5125 75.54944L562.91876 75.54944L562.91876 83.84631L561.5125 83.84631ZM567.8094 83.84631L564.65314 75.54944L566.1375 75.54944L567.91876 80.51819Q568.21564 81.31506 568.45 82.19006Q568.6375 81.53381 568.98126 80.61194L570.825 75.54944L572.2625 75.54944L569.1219 83.84631L567.8094 83.84631ZM579.1844 81.17444L580.6375 81.34631Q580.29376 82.62756 579.35626 83.33069Q578.4344 84.03381 576.9969 84.03381Q575.16876 84.03381 574.10626 82.90881Q573.04376 81.78381 573.04376 79.76819Q573.04376 77.67444 574.1219 76.51819Q575.2 75.36194 576.91876 75.36194Q578.575 75.36194 579.6219 76.50256Q580.6844 77.62756 580.6844 79.67444Q580.6844 79.79944 580.6844 80.04944L574.4969 80.04944Q574.575 81.42444 575.2625 82.15881Q575.96564 82.87756 576.9969 82.87756Q577.77814 82.87756 578.325 82.47131Q578.8719 82.06506 579.1844 81.17444ZM574.575 78.89319L579.2 78.89319Q579.10626 77.84631 578.66876 77.33069Q577.9969 76.51819 576.9344 76.51819Q575.96564 76.51819 575.29376 77.17444Q574.6375 77.81506 574.575 78.89319Z" fill-rule="nonzero"/><path fill="#9e9e9e" d="M544.5125 104.48694L544.5125 105.84631L536.9344 105.84631Q536.91876 105.33069 537.10626 104.86194Q537.3875 104.09631 538.02814 103.34631Q538.66876 102.59631 539.8719 101.61194Q541.73126 100.08069 542.3875 99.19006Q543.04376 98.28381 543.04376 97.48694Q543.04376 96.65881 542.45 96.08069Q541.85626 95.50256 540.8875 95.50256Q539.8719 95.50256 539.2625 96.11194Q538.65314 96.72131 538.65314 97.79944L537.2 97.65881Q537.35626 96.03381 538.325 95.19006Q539.29376 94.34631 540.91876 94.34631Q542.575 94.34631 543.52814 95.26819Q544.4969 96.17444 544.4969 97.51819Q544.4969 98.20569 544.21564 98.87756Q543.9344 99.53381 543.27814 100.26819Q542.6219 101.00256 541.10626 102.28381Q539.84064 103.34631 539.48126 103.73694Q539.1219 104.11194 538.8875 104.48694L544.5125 104.48694ZM546.1219 100.19006Q546.1219 98.15881 546.52814 96.92444Q546.95 95.69006 547.77814 95.01819Q548.60626 94.34631 549.85626 94.34631Q550.77814 94.34631 551.46564 94.72131Q552.16876 95.08069 552.6219 95.78381Q553.075 96.48694 553.325 97.48694Q553.59064 98.48694 553.59064 100.19006Q553.59064 102.20569 553.16876 103.45569Q552.7625 104.69006 551.9344 105.37756Q551.10626 106.04944 549.85626 106.04944Q548.2 106.04944 547.2469 104.84631Q546.1219 103.42444 546.1219 100.19006ZM547.5594 100.19006Q547.5594 103.01819 548.21564 103.95569Q548.8875 104.87756 549.85626 104.87756Q550.825 104.87756 551.48126 103.94006Q552.1375 103.00256 552.1375 100.19006Q552.1375 97.36194 551.48126 96.44006Q550.825 95.50256 549.84064 95.50256Q548.8719 95.50256 548.29376 96.33069Q547.5594 97.37756 547.5594 100.19006ZM555.90314 105.84631L555.90314 104.23694L557.5125 104.23694L557.5125 105.84631L555.90314 105.84631ZM559.1219 100.19006Q559.1219 98.15881 559.52814 96.92444Q559.95 95.69006 560.77814 95.01819Q561.60626 94.34631 562.85626 94.34631Q563.77814 94.34631 564.46564 94.72131Q565.16876 95.08069 565.6219 95.78381Q566.075 96.48694 566.325 97.48694Q566.59064 98.48694 566.59064 100.19006Q566.59064 102.20569 566.16876 103.45569Q565.7625 104.69006 564.9344 105.37756Q564.10626 106.04944 562.85626 106.04944Q561.2 106.04944 560.2469 104.84631Q559.1219 103.42444 559.1219 100.19006ZM560.5594 100.19006Q560.5594 103.01819 561.21564 103.95569Q561.8875 104.87756 562.85626 104.87756Q563.825 104.87756 564.48126 103.94006Q565.1375 103.00256 565.1375 100.19006Q565.1375 97.36194 564.48126 96.44006Q563.825 95.50256 562.84064 95.50256Q561.8719 95.50256 561.29376 96.33069Q560.5594 97.37756 560.5594 100.19006ZM568.3875 97.14319Q568.3875 95.90881 568.9969 95.04944Q569.6219 94.19006 570.79376 94.19006Q571.8719 94.19006 572.575 94.97131Q573.27814 95.73694 573.27814 97.22131Q573.27814 98.67444 572.5594 99.47131Q571.85626 100.25256 570.8094 100.25256Q569.7625 100.25256 569.075 99.48694Q568.3875 98.70569 568.3875 97.14319ZM570.825 95.15881Q570.3094 95.15881 569.95 95.61194Q569.60626 96.06506 569.60626 97.28381Q569.60626 98.37756 569.95 98.83069Q570.3094 99.28381 570.825 99.28381Q571.35626 99.28381 571.7 98.83069Q572.0594 98.37756 572.0594 97.17444Q572.0594 96.06506 571.7 95.61194Q571.35626 95.15881 570.825 95.15881ZM570.84064 106.26819L577.10626 94.19006L578.2469 94.19006L571.9969 106.26819L570.84064 106.26819ZM575.79376 103.15881Q575.79376 101.92444 576.40314 101.06506Q577.02814 100.20569 578.2 100.20569Q579.27814 100.20569 579.98126 100.98694Q580.7 101.75256 580.7 103.23694Q580.7 104.69006 579.98126 105.48694Q579.2625 106.26819 578.21564 106.26819Q577.16876 106.26819 576.48126 105.48694Q575.79376 104.70569 575.79376 103.15881ZM578.2469 101.17444Q577.71564 101.17444 577.35626 101.62756Q577.0125 102.08069 577.0125 103.29944Q577.0125 104.39319 577.35626 104.84631Q577.71564 105.29944 578.23126 105.29944Q578.77814 105.29944 579.1219 104.84631Q579.46564 104.39319 579.46564 103.19006Q579.46564 102.08069 579.10626 101.62756Q578.7625 101.17444 578.2469 101.17444Z" fill-rule="nonzero"/><path stroke="#757575" stroke-width="1.0" stroke-linecap="butt" d="M581.45 89.34631L454.76666 89.34631L383.0707 89.34631" fill-rule="nonzero"/><path fill="#9e9e9e" d="M385.0707 89.34631C385.0707 88.24174 384.1753 87.34631 383.0707 87.34631C381.96613 87.34631 381.0707 88.24174 381.0707 89.34631C381.0707 90.45088 381.96613 91.34631 383.0707 91.34631C384.1753 91.34631 385.0707 90.45088 385.0707 89.34631" fill-rule="nonzero"/><path fill="#efefef" d="M532.6844 198.18333L532.6844 186.73021L536.6375 186.73021Q537.96564 186.73021 538.66876 186.88646Q539.65314 187.12083 540.35626 187.71458Q541.2625 188.48021 541.7 189.66771Q542.15314 190.85521 542.15314 192.38646Q542.15314 193.69896 541.84064 194.71458Q541.54376 195.71458 541.0594 196.37083Q540.59064 197.02708 540.02814 197.41771Q539.46564 197.79271 538.65314 197.99583Q537.85626 198.18333 536.825 198.18333L532.6844 198.18333ZM534.2 196.82396L536.65314 196.82396Q537.77814 196.82396 538.41876 196.62083Q539.075 196.40208 539.45 196.02708Q539.9969 195.48021 540.29376 194.57396Q540.59064 193.66771 540.59064 192.37083Q540.59064 190.57396 539.9969 189.60521Q539.41876 188.63646 538.575 188.30833Q537.96564 188.07396 536.60626 188.07396L534.2 188.07396L534.2 196.82396ZM550.1844 195.51146L551.6375 195.68333Q551.29376 196.96458 550.35626 197.66771Q549.4344 198.37083 547.9969 198.37083Q546.16876 198.37083 545.10626 197.24583Q544.04376 196.12083 544.04376 194.10521Q544.04376 192.01146 545.1219 190.85521Q546.2 189.69896 547.91876 189.69896Q549.575 189.69896 550.6219 190.83958Q551.6844 191.96458 551.6844 194.01146Q551.6844 194.13646 551.6844 194.38646L545.4969 194.38646Q545.575 195.76146 546.2625 196.49583Q546.96564 197.21458 547.9969 197.21458Q548.77814 197.21458 549.325 196.80833Q549.8719 196.40208 550.1844 195.51146ZM545.575 193.23021L550.2 193.23021Q550.10626 192.18333 549.66876 191.66771Q548.9969 190.85521 547.9344 190.85521Q546.96564 190.85521 546.29376 191.51146Q545.6375 192.15208 545.575 193.23021ZM556.575 196.91771L556.77814 198.16771Q556.1844 198.29271 555.71564 198.29271Q554.95 198.29271 554.52814 198.05833Q554.10626 197.80833 553.9344 197.41771Q553.7625 197.01146 553.7625 195.74583L553.7625 190.98021L552.73126 190.98021L552.73126 189.88646L553.7625 189.88646L553.7625 187.82396L555.16876 186.98021L555.16876 189.88646L556.575 189.88646L556.575 190.98021L555.16876 190.98021L555.16876 195.82396Q555.16876 196.43333 555.23126 196.60521Q555.3094 196.77708 555.48126 196.88646Q555.65314 196.98021 555.96564 196.98021Q556.2 196.98021 556.575 196.91771ZM562.91876 197.15208Q562.1375 197.82396 561.41876 198.10521Q560.7 198.37083 559.8719 198.37083Q558.4969 198.37083 557.7625 197.69896Q557.02814 197.02708 557.02814 195.99583Q557.02814 195.38646 557.3094 194.88646Q557.59064 194.37083 558.02814 194.07396Q558.48126 193.76146 559.04376 193.60521Q559.46564 193.49583 560.29376 193.40208Q561.9969 193.19896 562.8094 192.91771Q562.8094 192.62083 562.8094 192.54271Q562.8094 191.68333 562.41876 191.33958Q561.8719 190.85521 560.8094 190.85521Q559.825 190.85521 559.34064 191.21458Q558.8719 191.55833 558.65314 192.43333L557.27814 192.24583Q557.46564 191.37083 557.8875 190.82396Q558.325 190.27708 559.1375 189.99583Q559.95 189.69896 561.0125 189.69896Q562.075 189.69896 562.73126 189.94896Q563.40314 190.19896 563.71564 190.57396Q564.02814 190.94896 564.15314 191.52708Q564.23126 191.88646 564.23126 192.82396L564.23126 194.69896Q564.23126 196.66771 564.3094 197.18333Q564.40314 197.69896 564.66876 198.18333L563.2 198.18333Q562.98126 197.74583 562.91876 197.15208ZM562.8094 194.01146Q562.04376 194.32396 560.5125 194.54271Q559.6375 194.66771 559.27814 194.82396Q558.91876 194.98021 558.71564 195.29271Q558.52814 195.58958 558.52814 195.94896Q558.52814 196.51146 558.95 196.88646Q559.3875 197.26146 560.2 197.26146Q561.0125 197.26146 561.6375 196.91771Q562.27814 196.55833 562.575 195.93333Q562.8094 195.46458 562.8094 194.52708L562.8094 194.01146ZM566.5125 188.33958L566.5125 186.73021L567.91876 186.73021L567.91876 188.33958L566.5125 188.33958ZM566.5125 198.18333L566.5125 189.88646L567.91876 189.88646L567.91876 198.18333L566.5125 198.18333ZM570.48126 198.18333L570.48126 186.73021L571.8875 186.73021L571.8875 198.18333L570.48126 198.18333ZM573.95 195.69896L575.34064 195.48021Q575.45 196.32396 575.98126 196.77708Q576.52814 197.21458 577.48126 197.21458Q578.45 197.21458 578.91876 196.82396Q579.3875 196.41771 579.3875 195.88646Q579.3875 195.41771 578.98126 195.13646Q578.6844 194.94896 577.54376 194.66771Q575.9969 194.27708 575.3875 193.99583Q574.79376 193.69896 574.48126 193.19896Q574.1844 192.69896 574.1844 192.08958Q574.1844 191.52708 574.4344 191.05833Q574.6844 190.58958 575.1219 190.27708Q575.45 190.02708 576.0125 189.87083Q576.59064 189.69896 577.23126 189.69896Q578.21564 189.69896 578.95 189.98021Q579.6844 190.26146 580.02814 190.74583Q580.3875 191.21458 580.52814 192.02708L579.15314 192.21458Q579.0594 191.57396 578.60626 191.21458Q578.15314 190.85521 577.34064 190.85521Q576.3719 190.85521 575.95 191.18333Q575.54376 191.49583 575.54376 191.91771Q575.54376 192.19896 575.71564 192.41771Q575.8875 192.63646 576.2469 192.79271Q576.46564 192.87083 577.4969 193.15208Q578.98126 193.54271 579.575 193.80833Q580.16876 194.05833 580.4969 194.54271Q580.84064 195.02708 580.84064 195.74583Q580.84064 196.44896 580.41876 197.07396Q580.0125 197.68333 579.23126 198.02708Q578.46564 198.37083 577.4969 198.37083Q575.8719 198.37083 575.02814 197.69896Q574.1844 197.02708 573.95 195.69896Z" fill-rule="nonzero"/><path fill="#9e9e9e" d="M542.41876 220.18333L541.0125 220.18333L541.0125 211.21458Q540.4969 211.69896 539.66876 212.18333Q538.85626 212.66771 538.2 212.91771L538.2 211.55833Q539.3719 210.99583 540.2469 210.21458Q541.1375 209.41771 541.5125 208.68333L542.41876 208.68333L542.41876 220.18333ZM546.1219 214.52708Q546.1219 212.49583 546.52814 211.26146Q546.95 210.02708 547.77814 209.35521Q548.60626 208.68333 549.85626 208.68333Q550.77814 208.68333 551.46564 209.05833Q552.16876 209.41771 552.6219 210.12083Q553.075 210.82396 553.325 211.82396Q553.59064 212.82396 553.59064 214.52708Q553.59064 216.54271 553.16876 217.79271Q552.7625 219.02708 551.9344 219.71458Q551.10626 220.38646 549.85626 220.38646Q548.2 220.38646 547.2469 219.18333Q546.1219 217.76146 546.1219 214.52708ZM547.5594 214.52708Q547.5594 217.35521 548.21564 218.29271Q548.8875 219.21458 549.85626 219.21458Q550.825 219.21458 551.48126 218.27708Q552.1375 217.33958 552.1375 214.52708Q552.1375 211.69896 551.48126 210.77708Q550.825 209.83958 549.84064 209.83958Q548.8719 209.83958 548.29376 210.66771Q547.5594 211.71458 547.5594 214.52708ZM555.90314 220.18333L555.90314 218.57396L557.5125 218.57396L557.5125 220.18333L555.90314 220.18333ZM559.1219 214.52708Q559.1219 212.49583 559.52814 211.26146Q559.95 210.02708 560.77814 209.35521Q561.60626 208.68333 562.85626 208.68333Q563.77814 208.68333 564.46564 209.05833Q565.16876 209.41771 565.6219 210.12083Q566.075 210.82396 566.325 211.82396Q566.59064 212.82396 566.59064 214.52708Q566.59064 216.54271 566.16876 217.79271Q565.7625 219.02708 564.9344 219.71458Q564.10626 220.38646 562.85626 220.38646Q561.2 220.38646 560.2469 219.18333Q559.1219 217.76146 559.1219 214.52708ZM560.5594 214.52708Q560.5594 217.35521 561.21564 218.29271Q561.8875 219.21458 562.85626 219.21458Q563.825 219.21458 564.48126 218.27708Q565.1375 217.33958 565.1375 214.52708Q565.1375 211.69896 564.48126 210.77708Q563.825 209.83958 562.84064 209.83958Q561.8719 209.83958 561.29376 210.66771Q560.5594 211.71458 560.5594 214.52708ZM568.3875 211.48021Q568.3875 210.24583 568.9969 209.38646Q569.6219 208.52708 570.79376 208.52708Q571.8719 208.52708 572.575 209.30833Q573.27814 210.07396 573.27814 211.55833Q573.27814 213.01146 572.5594 213.80833Q571.85626 214.58958 570.8094 214.58958Q569.7625 214.58958 569.075 213.82396Q568.3875 213.04271 568.3875 211.48021ZM570.825 209.49583Q570.3094 209.49583 569.95 209.94896Q569.60626 210.40208 569.60626 211.62083Q569.60626 212.71458 569.95 213.16771Q570.3094 213.62083 570.825 213.62083Q571.35626 213.62083 571.7 213.16771Q572.0594 212.71458 572.0594 211.51146Q572.0594 210.40208 571.7 209.94896Q571.35626 209.49583 570.825 209.49583ZM570.84064 220.60521L577.10626 208.52708L578.2469 208.52708L571.9969 220.60521L570.84064 220.60521ZM575.79376 217.49583Q575.79376 216.26146 576.40314 215.40208Q577.02814 214.54271 578.2 214.54271Q579.27814 214.54271 579.98126 215.32396Q580.7 216.08958 580.7 217.57396Q580.7 219.02708 579.98126 219.82396Q579.2625 220.60521 578.21564 220.60521Q577.16876 220.60521 576.48126 219.82396Q575.79376 219.04271 575.79376 217.49583ZM578.2469 215.51146Q577.71564 215.51146 577.35626 215.96458Q577.0125 216.41771 577.0125 217.63646Q577.0125 218.73021 577.35626 219.18333Q577.71564 219.63646 578.23126 219.63646Q578.77814 219.63646 579.1219 219.18333Q579.46564 218.73021 579.46564 217.52708Q579.46564 216.41771 579.10626 215.96458Q578.7625 215.51146 578.2469 215.51146Z" fill-rule="nonzero"/><path stroke="#757575" stroke-width="1.0" stroke-linecap="butt" d="M581.45 203.68333L454.76666 203.68333L441.32834 203.68333" fill-rule="nonzero"/><path fill="#9e9e9e" d="M443.32834 203.68333C443.32834 202.57877 442.4329 201.68333 441.32834 201.68333C440.22375 201.68333 439.32834 202.57877 439.32834 203.68333C439.32834 204.7879 440.22375 205.68333 441.32834 205.68333C442.4329 205.68333 443.32834 204.7879 443.32834 203.68333" fill-rule="nonzero"/><path fill="#efefef" d="M531.6844 326.45L531.6844 314.9969L536.0125 314.9969Q537.15314 314.9969 537.7469 315.10626Q538.59064 315.2469 539.15314 315.6375Q539.73126 316.02814 540.075 316.7469Q540.4344 317.45 540.4344 318.3094Q540.4344 319.7625 539.4969 320.77814Q538.575 321.79376 536.1375 321.79376L533.2 321.79376L533.2 326.45L531.6844 326.45ZM533.2 320.4344L536.16876 320.4344Q537.6375 320.4344 538.2469 319.8875Q538.8719 319.34064 538.8719 318.35626Q538.8719 317.6375 538.4969 317.1219Q538.1375 316.60626 537.54376 316.45Q537.16876 316.34064 536.1375 316.34064L533.2 316.34064L533.2 320.4344ZM548.1844 323.77814L549.6375 323.95Q549.29376 325.23126 548.35626 325.9344Q547.4344 326.6375 545.9969 326.6375Q544.16876 326.6375 543.10626 325.5125Q542.04376 324.3875 542.04376 322.3719Q542.04376 320.27814 543.1219 319.1219Q544.2 317.96564 545.91876 317.96564Q547.575 317.96564 548.6219 319.10626Q549.6844 320.23126 549.6844 322.27814Q549.6844 322.40314 549.6844 322.65314L543.4969 322.65314Q543.575 324.02814 544.2625 324.7625Q544.96564 325.48126 545.9969 325.48126Q546.77814 325.48126 547.325 325.075Q547.8719 324.66876 548.1844 323.77814ZM543.575 321.4969L548.2 321.4969Q548.10626 320.45 547.66876 319.9344Q546.9969 319.1219 545.9344 319.1219Q544.96564 319.1219 544.29376 319.77814Q543.6375 320.41876 543.575 321.4969ZM550.98126 322.29376Q550.98126 319.9969 552.2625 318.8875Q553.34064 317.96564 554.8719 317.96564Q556.59064 317.96564 557.66876 319.09064Q558.7625 320.2 558.7625 322.1844Q558.7625 323.77814 558.27814 324.7Q557.79376 325.6219 556.8719 326.1375Q555.96564 326.6375 554.8719 326.6375Q553.1375 326.6375 552.0594 325.52814Q550.98126 324.40314 550.98126 322.29376ZM552.4344 322.29376Q552.4344 323.8875 553.1219 324.6844Q553.825 325.48126 554.8719 325.48126Q555.91876 325.48126 556.60626 324.6844Q557.3094 323.8875 557.3094 322.2469Q557.3094 320.71564 556.60626 319.91876Q555.91876 319.1219 554.8719 319.1219Q553.825 319.1219 553.1219 319.91876Q552.4344 320.7 552.4344 322.29376ZM560.5125 329.6375L560.5125 318.15314L561.79376 318.15314L561.79376 319.23126Q562.2469 318.59064 562.8094 318.27814Q563.3875 317.96564 564.2 317.96564Q565.2625 317.96564 566.075 318.5125Q566.8875 319.0594 567.29376 320.0594Q567.71564 321.04376 567.71564 322.23126Q567.71564 323.5125 567.2469 324.52814Q566.79376 325.54376 565.91876 326.09064Q565.0594 326.6375 564.09064 326.6375Q563.3875 326.6375 562.825 326.34064Q562.27814 326.04376 561.91876 325.59064L561.91876 329.6375L560.5125 329.6375ZM561.77814 322.34064Q561.77814 323.95 562.41876 324.71564Q563.075 325.48126 563.9969 325.48126Q564.9344 325.48126 565.60626 324.6844Q566.27814 323.8875 566.27814 322.23126Q566.27814 320.6375 565.6219 319.85626Q564.96564 319.0594 564.0594 319.0594Q563.16876 319.0594 562.46564 319.90314Q561.77814 320.7469 561.77814 322.34064ZM569.48126 326.45L569.48126 314.9969L570.8875 314.9969L570.8875 326.45L569.48126 326.45ZM579.1844 323.77814L580.6375 323.95Q580.29376 325.23126 579.35626 325.9344Q578.4344 326.6375 576.9969 326.6375Q575.16876 326.6375 574.10626 325.5125Q573.04376 324.3875 573.04376 322.3719Q573.04376 320.27814 574.1219 319.1219Q575.2 317.96564 576.91876 317.96564Q578.575 317.96564 579.6219 319.10626Q580.6844 320.23126 580.6844 322.27814Q580.6844 322.40314 580.6844 322.65314L574.4969 322.65314Q574.575 324.02814 575.2625 324.7625Q575.96564 325.48126 576.9969 325.48126Q577.77814 325.48126 578.325 325.075Q578.8719 324.66876 579.1844 323.77814ZM574.575 321.4969L579.2 321.4969Q579.10626 320.45 578.66876 319.9344Q577.9969 319.1219 576.9344 319.1219Q575.96564 319.1219 575.29376 319.77814Q574.6375 320.41876 574.575 321.4969Z" fill-rule="nonzero"/><path fill="#9e9e9e" d="M541.6219 348.45L541.6219 345.7L536.65314 345.7L536.65314 344.41876L541.8875 336.9969L543.02814 336.9969L543.02814 344.41876L544.575 344.41876L544.575 345.7L543.02814 345.7L543.02814 348.45L541.6219 348.45ZM541.6219 344.41876L541.6219 339.2469L538.04376 344.41876L541.6219 344.41876ZM546.1219 342.79376Q546.1219 340.7625 546.52814 339.52814Q546.95 338.29376 547.77814 337.6219Q548.60626 336.95 549.85626 336.95Q550.77814 336.95 551.46564 337.325Q552.16876 337.6844 552.6219 338.3875Q553.075 339.09064 553.325 340.09064Q553.59064 341.09064 553.59064 342.79376Q553.59064 344.8094 553.16876 346.0594Q552.7625 347.29376 551.9344 347.98126Q551.10626 348.65314 549.85626 348.65314Q548.2 348.65314 547.2469 347.45Q546.1219 346.02814 546.1219 342.79376ZM547.5594 342.79376Q547.5594 345.6219 548.21564 346.5594Q548.8875 347.48126 549.85626 347.48126Q550.825 347.48126 551.48126 346.54376Q552.1375 345.60626 552.1375 342.79376Q552.1375 339.96564 551.48126 339.04376Q550.825 338.10626 549.84064 338.10626Q548.8719 338.10626 548.29376 338.9344Q547.5594 339.98126 547.5594 342.79376ZM555.90314 348.45L555.90314 346.84064L557.5125 346.84064L557.5125 348.45L555.90314 348.45ZM559.1219 342.79376Q559.1219 340.7625 559.52814 339.52814Q559.95 338.29376 560.77814 337.6219Q561.60626 336.95 562.85626 336.95Q563.77814 336.95 564.46564 337.325Q565.16876 337.6844 565.6219 338.3875Q566.075 339.09064 566.325 340.09064Q566.59064 341.09064 566.59064 342.79376Q566.59064 344.8094 566.16876 346.0594Q565.7625 347.29376 564.9344 347.98126Q564.10626 348.65314 562.85626 348.65314Q561.2 348.65314 560.2469 347.45Q559.1219 346.02814 559.1219 342.79376ZM560.5594 342.79376Q560.5594 345.6219 561.21564 346.5594Q561.8875 347.48126 562.85626 347.48126Q563.825 347.48126 564.48126 346.54376Q565.1375 345.60626 565.1375 342.79376Q565.1375 339.96564 564.48126 339.04376Q563.825 338.10626 562.84064 338.10626Q561.8719 338.10626 561.29376 338.9344Q560.5594 339.98126 560.5594 342.79376ZM568.3875 339.7469Q568.3875 338.5125 568.9969 337.65314Q569.6219 336.79376 570.79376 336.79376Q571.8719 336.79376 572.575 337.575Q573.27814 338.34064 573.27814 339.825Q573.27814 341.27814 572.5594 342.075Q571.85626 342.85626 570.8094 342.85626Q569.7625 342.85626 569.075 342.09064Q568.3875 341.3094 568.3875 339.7469ZM570.825 337.7625Q570.3094 337.7625 569.95 338.21564Q569.60626 338.66876 569.60626 339.8875Q569.60626 340.98126 569.95 341.4344Q570.3094 341.8875 570.825 341.8875Q571.35626 341.8875 571.7 341.4344Q572.0594 340.98126 572.0594 339.77814Q572.0594 338.66876 571.7 338.21564Q571.35626 337.7625 570.825 337.7625ZM570.84064 348.8719L577.10626 336.79376L578.2469 336.79376L571.9969 348.8719L570.84064 348.8719ZM575.79376 345.7625Q575.79376 344.52814 576.40314 343.66876Q577.02814 342.8094 578.2 342.8094Q579.27814 342.8094 579.98126 343.59064Q580.7 344.35626 580.7 345.84064Q580.7 347.29376 579.98126 348.09064Q579.2625 348.8719 578.21564 348.8719Q577.16876 348.8719 576.48126 348.09064Q575.79376 347.3094 575.79376 345.7625ZM578.2469 343.77814Q577.71564 343.77814 577.35626 344.23126Q577.0125 344.6844 577.0125 345.90314Q577.0125 346.9969 577.35626 347.45Q577.71564 347.90314 578.23126 347.90314Q578.77814 347.90314 579.1219 347.45Q579.46564 346.9969 579.46564 345.79376Q579.46564 344.6844 579.10626 344.23126Q578.7625 343.77814 578.2469 343.77814Z" fill-rule="nonzero"/><path stroke="#757575" stroke-width="1.0" stroke-linecap="butt" d="M581.45 331.95L454.76666 331.95L300.0 345.01166" fill-rule="nonzero"/><path fill="#9e9e9e" d="M302.0 345.01166C302.0 343.9071 301.10458 343.01166 300.0 343.01166C298.89542 343.01166 298.0 343.9071 298.0 345.01166C298.0 346.11624 298.89542 347.01166 300.0 347.01166C301.10458 347.01166 302.0 346.11624 302.0 345.01166" fill-rule="nonzero"/><path fill="#f3f3f3" d="M265.98438 37.55L265.98438 23.2375L268.84375 23.2375L272.21875 33.3625Q272.6875 34.784374 272.90625 35.4875Q273.15625 34.70625 273.67188 33.190624L277.09375 23.2375L279.64062 23.2375L279.64062 37.55L277.82812 37.55L277.82812 25.565624L273.65625 37.55L271.95312 37.55L267.8125 25.3625L267.8125 37.55L265.98438 37.55ZM289.92188 34.20625L291.73438 34.440624Q291.3125 36.01875 290.14062 36.909374Q288.98438 37.784374 287.17188 37.784374Q284.90625 37.784374 283.5625 36.39375Q282.23438 34.9875 282.23438 32.45625Q282.23438 29.83125 283.57812 28.39375Q284.92188 26.940624 287.07812 26.940624Q289.15625 26.940624 290.46875 28.3625Q291.79688 29.76875 291.79688 32.346874Q291.79688 32.503124 291.78125 32.815624L284.04688 32.815624Q284.14062 34.51875 285.01562 35.425Q285.89062 36.33125 287.1875 36.33125Q288.15625 36.33125 288.82812 35.83125Q289.51562 35.315624 289.92188 34.20625ZM284.14062 31.3625L289.9375 31.3625Q289.82812 30.065624 289.28125 29.409374Q288.4375 28.39375 287.09375 28.39375Q285.89062 28.39375 285.0625 29.20625Q284.23438 30.003124 284.14062 31.3625ZM300.54688 37.55L300.54688 36.2375Q299.5625 37.784374 297.64062 37.784374Q296.40625 37.784374 295.35938 37.096874Q294.32812 36.409374 293.75 35.190624Q293.1875 33.971874 293.1875 32.378124Q293.1875 30.815624 293.70312 29.55Q294.21875 28.284374 295.25 27.6125Q296.29688 26.940624 297.5625 26.940624Q298.5 26.940624 299.23438 27.346874Q299.96875 27.7375 300.4375 28.3625L300.4375 23.2375L302.17188 23.2375L302.17188 37.55L300.54688 37.55ZM294.98438 32.378124Q294.98438 34.3625 295.82812 35.346874Q296.67188 36.33125 297.8125 36.33125Q298.96875 36.33125 299.76562 35.39375Q300.57812 34.45625 300.57812 32.51875Q300.57812 30.39375 299.75 29.39375Q298.9375 28.39375 297.73438 28.39375Q296.5625 28.39375 295.76562 29.3625Q294.98438 30.315624 294.98438 32.378124ZM304.82812 25.253124L304.82812 23.2375L306.59375 23.2375L306.59375 25.253124L304.82812 25.253124ZM304.82812 37.55L304.82812 27.175L306.59375 27.175L306.59375 37.55L304.82812 37.55ZM315.60938 37.55L315.60938 36.01875Q314.40625 37.784374 312.32812 37.784374Q311.40625 37.784374 310.60938 37.440624Q309.8125 37.08125 309.42188 36.55Q309.04688 36.01875 308.89062 35.2375Q308.78125 34.721874 308.78125 33.596874L308.78125 27.175L310.53125 27.175L310.53125 32.925Q310.53125 34.3 310.64062 34.784374Q310.8125 35.471874 311.34375 35.878124Q311.89062 36.26875 312.67188 36.26875Q313.46875 36.26875 314.15625 35.8625Q314.85938 35.45625 315.14062 34.76875Q315.4375 34.065624 315.4375 32.7375L315.4375 27.175L317.1875 27.175L317.1875 37.55L315.60938 37.55ZM319.8125 37.55L319.8125 27.175L321.39062 27.175L321.39062 28.628124Q321.875 27.878124 322.6875 27.409374Q323.5 26.940624 324.53125 26.940624Q325.6875 26.940624 326.42188 27.425Q327.15625 27.89375 327.46875 28.753124Q328.70312 26.940624 330.67188 26.940624Q332.21875 26.940624 333.04688 27.8Q333.875 28.659374 333.875 30.425L333.875 37.55L332.125 37.55L332.125 31.01875Q332.125 29.95625 331.95312 29.503124Q331.78125 29.034374 331.32812 28.753124Q330.89062 28.471874 330.28125 28.471874Q329.1875 28.471874 328.45312 29.20625Q327.73438 29.925 327.73438 31.51875L327.73438 37.55L325.98438 37.55L325.98438 30.815624Q325.98438 29.64375 325.54688 29.065624Q325.125 28.471874 324.14062 28.471874Q323.40625 28.471874 322.76562 28.8625Q322.14062 29.253124 321.85938 30.003124Q321.57812 30.753124 321.57812 32.175L321.57812 37.55L319.8125 37.55Z" fill-rule="nonzero"/></svg>