<svg version="1.1" viewBox="0.0 0.0 600.0 371.0" fill="none" stroke="none" stroke-linecap="square" stroke-miterlimit="10" width="600" height="371" xmlns:xlink="http://www.w3.org/1999/xlink" xmlns="http://www.w3.org/2000/svg"><path fill="#ffffff" fill-opacity="0.0" d="M0 0L600.0 0L600.0 371.0L0 371.0L0 0Z" fill-rule="nonzero"/><path fill="#304388" d="M300.0 54.916668C302.24164 54.916668 304.483 54.967335 306.72238 55.068626L301.6806 166.52966C301.12076 166.50433 300.56042 166.49167 300.0 166.49167Z" fill-rule="nonzero"/><path fill="#533990" d="M306.72238 55.068626C340.6368 56.6027 373.00644 69.69033 398.45682 92.15854L324.6142 175.80214C318.25162 170.18509 310.1592 166.91318 301.6806 166.52966Z" fill-rule="nonzero"/><path fill="#cf4366" d="M398.45682 92.15854C430.00537 120.01038 448.28162 159.9212 448.75717 202.0022C449.23273 244.0832 431.86313 284.39685 400.95206 312.95456L325.238 231.00114C332.9658 223.86171 337.3082 213.7833 337.1893 203.26305C337.0704 192.7428 332.50134 182.76509 324.6142 175.80214Z" fill-rule="nonzero"/><path fill="#d8753e" d="M400.95206 312.95456C377.70743 334.4295 348.2203 347.93246 316.7759 351.5011L304.19397 240.63777C312.05508 239.74562 319.42685 236.36987 325.238 231.00114Z" fill-rule="nonzero"/><path fill="#e5a345" d="M157.13094 245.15562C144.08655 200.21863 152.9446 151.76303 181.04367 114.347374C209.14275 76.931725 253.20802 54.916668 300.0 54.916668L300.0 166.49167C288.302 166.49167 277.28568 171.99544 270.26093 181.34935C263.23615 190.70326 261.02164 202.81715 264.28275 214.0514Z" fill-rule="nonzero"/><path fill="#df8d43" d="M316.7759 351.5011C244.7605 359.67416 177.33583 314.76007 157.13094 245.15562L264.28275 214.0514C269.33395 231.45251 286.19012 242.68105 304.19397 240.63777Z" fill-rule="nonzero"/><path fill="#ffffff" d="M321.48407 110.55652L319.90594 110.55652L319.90594 100.47839Q319.32782 101.02527 318.40594 101.57214Q317.48407 102.10339 316.73407 102.38464L316.73407 100.85339Q318.0622 100.22839 319.0622 99.33777Q320.0622 98.44714 320.46844 97.61902L321.48407 97.61902L321.48407 110.55652ZM325.53094 104.19714Q325.53094 101.91589 325.9997 100.52527Q326.46844 99.13464 327.39032 98.38464Q328.32782 97.61902 329.73407 97.61902Q330.76532 97.61902 331.54657 98.04089Q332.32782 98.44714 332.82782 99.24402Q333.34344 100.02527 333.64032 101.16589Q333.9372 102.29089 333.9372 104.19714Q333.9372 106.46277 333.46844 107.86902Q332.9997 109.25964 332.0622 110.02527Q331.14032 110.77527 329.73407 110.77527Q327.85907 110.77527 326.79657 109.44714Q325.53094 107.83777 325.53094 104.19714ZM327.15594 104.19714Q327.15594 107.36902 327.89032 108.43152Q328.64032 109.47839 329.73407 109.47839Q330.8122 109.47839 331.5622 108.43152Q332.3122 107.36902 332.3122 104.19714Q332.3122 101.02527 331.5622 99.97839Q330.8122 98.93152 329.71844 98.93152Q328.6247 98.93152 327.96844 99.85339Q327.15594 101.02527 327.15594 104.19714ZM336.42157 110.55652L336.42157 108.75964L338.21844 108.75964L338.21844 110.55652L336.42157 110.55652ZM342.96844 103.57214Q341.98407 103.21277 341.4997 102.54089Q341.03094 101.86902 341.03094 100.94714Q341.03094 99.54089 342.03094 98.58777Q343.04657 97.61902 344.73407 97.61902Q346.42157 97.61902 347.4372 98.60339Q348.46844 99.57214 348.46844 100.97839Q348.46844 101.88464 347.9997 102.55652Q347.53094 103.21277 346.57782 103.57214Q347.76532 103.96277 348.3747 104.82214Q348.9997 105.68152 348.9997 106.86902Q348.9997 108.52527 347.82782 109.65027Q346.65594 110.77527 344.7497 110.77527Q342.84344 110.77527 341.67157 109.65027Q340.51532 108.50964 340.51532 106.82214Q340.51532 105.57214 341.14032 104.72839Q341.78094 103.86902 342.96844 103.57214ZM342.64032 100.88464Q342.64032 101.80652 343.23407 102.38464Q343.82782 102.96277 344.76532 102.96277Q345.67157 102.96277 346.2497 102.38464Q346.84344 101.80652 346.84344 100.97839Q346.84344 100.10339 346.23407 99.50964Q345.64032 98.91589 344.7497 98.91589Q343.84344 98.91589 343.23407 99.49402Q342.64032 100.07214 342.64032 100.88464ZM342.14032 106.83777Q342.14032 107.50964 342.45282 108.15027Q342.78094 108.77527 343.40594 109.13464Q344.04657 109.47839 344.78094 109.47839Q345.90594 109.47839 346.64032 108.74402Q347.39032 108.00964 347.39032 106.88464Q347.39032 105.74402 346.6247 105.00964Q345.85907 104.25964 344.71844 104.25964Q343.60907 104.25964 342.8747 104.99402Q342.14032 105.72839 342.14032 106.83777ZM350.82782 100.75964Q350.82782 99.38464 351.51532 98.41589Q352.21844 97.44714 353.53094 97.44714Q354.7497 97.44714 355.54657 98.32214Q356.34344 99.18152 356.34344 100.86902Q356.34344 102.49402 355.53094 103.38464Q354.73407 104.25964 353.54657 104.25964Q352.39032 104.25964 351.60907 103.40027Q350.82782 102.52527 350.82782 100.75964ZM353.57782 98.54089Q352.98407 98.54089 352.59344 99.05652Q352.20282 99.55652 352.20282 100.91589Q352.20282 102.16589 352.59344 102.66589Q352.9997 103.16589 353.57782 103.16589Q354.17157 103.16589 354.5622 102.66589Q354.95282 102.15027 354.95282 100.80652Q354.95282 99.55652 354.5622 99.05652Q354.17157 98.54089 353.57782 98.54089ZM353.59344 111.02527L360.64032 97.44714L361.92157 97.44714L354.89032 111.02527L353.59344 111.02527ZM359.15594 107.52527Q359.15594 106.15027 359.84344 105.18152Q360.54657 104.21277 361.8747 104.21277Q363.09344 104.21277 363.8747 105.08777Q364.67157 105.94714 364.67157 107.63464Q364.67157 109.25964 363.8747 110.15027Q363.07782 111.02527 361.89032 111.02527Q360.71844 111.02527 359.9372 110.15027Q359.15594 109.27527 359.15594 107.52527ZM361.92157 105.30652Q361.32782 105.30652 360.9372 105.82214Q360.54657 106.32214 360.54657 107.69714Q360.54657 108.91589 360.9372 109.43152Q361.32782 109.94714 361.90594 109.94714Q362.51532 109.94714 362.90594 109.43152Q363.29657 108.91589 363.29657 107.57214Q363.29657 106.32214 362.90594 105.82214Q362.51532 105.30652 361.92157 105.30652Z" fill-rule="nonzero"/><path fill="#ffffff" d="M389.55972 207.46982L389.55972 208.98544L381.0441 208.98544Q381.02847 208.40732 381.2316 207.8917Q381.55972 207.0167 382.26285 206.17294Q382.9816 205.3292 384.34097 204.21982Q386.43472 202.50107 387.1691 201.50107Q387.9191 200.48544 387.9191 199.59482Q387.9191 198.6417 387.24722 198.00107Q386.57535 197.36044 385.49722 197.36044Q384.34097 197.36044 383.65347 198.04794Q382.9816 198.73544 382.96597 199.93857L381.34097 199.7667Q381.51285 197.9542 382.59097 197.00107Q383.68472 196.04794 385.52847 196.04794Q387.37222 196.04794 388.45035 197.0792Q389.5441 198.11044 389.5441 199.62607Q389.5441 200.3917 389.21597 201.1417Q388.90347 201.8917 388.1691 202.71982Q387.43472 203.54794 385.7316 204.98544Q384.30972 206.18857 383.90347 206.61044Q383.49722 207.03232 383.24722 207.46982L389.55972 207.46982ZM399.45035 199.25107L397.88785 199.37607Q397.6691 198.4542 397.27847 198.03232Q396.63785 197.34482 395.70035 197.34482Q394.95035 197.34482 394.37222 197.7667Q393.62222 198.31357 393.18472 199.36044Q392.76285 200.40732 392.74722 202.34482Q393.32535 201.46982 394.13785 201.04794Q394.96597 200.62607 395.87222 200.62607Q397.46597 200.62607 398.57535 201.79794Q399.68472 202.9542 399.68472 204.79794Q399.68472 206.0167 399.15347 207.06357Q398.63785 208.09482 397.71597 208.65732Q396.80972 209.2042 395.65347 209.2042Q393.6691 209.2042 392.4191 207.75107Q391.1691 206.29794 391.1691 202.9542Q391.1691 199.21982 392.55972 197.5167Q393.76285 196.04794 395.7941 196.04794Q397.32535 196.04794 398.2941 196.90732Q399.26285 197.75107 399.45035 199.25107ZM392.99722 204.81357Q392.99722 205.62607 393.34097 206.37607Q393.68472 207.12607 394.30972 207.5167Q394.93472 207.90732 395.62222 207.90732Q396.62222 207.90732 397.34097 207.09482Q398.05972 206.28232 398.05972 204.8917Q398.05972 203.56357 397.34097 202.79794Q396.63785 202.0167 395.55972 202.0167Q394.4816 202.0167 393.7316 202.79794Q392.99722 203.56357 392.99722 204.81357ZM402.13785 208.98544L402.13785 207.18857L403.93472 207.18857L403.93472 208.98544L402.13785 208.98544ZM414.45035 199.25107L412.88785 199.37607Q412.6691 198.4542 412.27847 198.03232Q411.63785 197.34482 410.70035 197.34482Q409.95035 197.34482 409.37222 197.7667Q408.62222 198.31357 408.18472 199.36044Q407.76285 200.40732 407.74722 202.34482Q408.32535 201.46982 409.13785 201.04794Q409.96597 200.62607 410.87222 200.62607Q412.46597 200.62607 413.57535 201.79794Q414.68472 202.9542 414.68472 204.79794Q414.68472 206.0167 414.15347 207.06357Q413.63785 208.09482 412.71597 208.65732Q411.80972 209.2042 410.65347 209.2042Q408.6691 209.2042 407.4191 207.75107Q406.1691 206.29794 406.1691 202.9542Q406.1691 199.21982 407.55972 197.5167Q408.76285 196.04794 410.7941 196.04794Q412.32535 196.04794 413.2941 196.90732Q414.26285 197.75107 414.45035 199.25107ZM407.99722 204.81357Q407.99722 205.62607 408.34097 206.37607Q408.68472 207.12607 409.30972 207.5167Q409.93472 207.90732 410.62222 207.90732Q411.62222 207.90732 412.34097 207.09482Q413.05972 206.28232 413.05972 204.8917Q413.05972 203.56357 412.34097 202.79794Q411.63785 202.0167 410.55972 202.0167Q409.4816 202.0167 408.7316 202.79794Q407.99722 203.56357 407.99722 204.81357ZM416.5441 199.18857Q416.5441 197.81357 417.2316 196.84482Q417.93472 195.87607 419.24722 195.87607Q420.46597 195.87607 421.26285 196.75107Q422.05972 197.61044 422.05972 199.29794Q422.05972 200.92294 421.24722 201.81357Q420.45035 202.68857 419.26285 202.68857Q418.1066 202.68857 417.32535 201.8292Q416.5441 200.9542 416.5441 199.18857ZM419.2941 196.96982Q418.70035 196.96982 418.30972 197.48544Q417.9191 197.98544 417.9191 199.34482Q417.9191 200.59482 418.30972 201.09482Q418.71597 201.59482 419.2941 201.59482Q419.88785 201.59482 420.27847 201.09482Q420.6691 200.5792 420.6691 199.23544Q420.6691 197.98544 420.27847 197.48544Q419.88785 196.96982 419.2941 196.96982ZM419.30972 209.4542L426.3566 195.87607L427.63785 195.87607L420.6066 209.4542L419.30972 209.4542ZM424.87222 205.9542Q424.87222 204.5792 425.55972 203.61044Q426.26285 202.6417 427.59097 202.6417Q428.80972 202.6417 429.59097 203.5167Q430.38785 204.37607 430.38785 206.06357Q430.38785 207.68857 429.59097 208.5792Q428.7941 209.4542 427.6066 209.4542Q426.43472 209.4542 425.65347 208.5792Q424.87222 207.7042 424.87222 205.9542ZM427.63785 203.73544Q427.0441 203.73544 426.65347 204.25107Q426.26285 204.75107 426.26285 206.12607Q426.26285 207.34482 426.65347 207.86044Q427.0441 208.37607 427.62222 208.37607Q428.2316 208.37607 428.62222 207.86044Q429.01285 207.34482 429.01285 206.00107Q429.01285 204.75107 428.62222 204.25107Q428.2316 203.73544 427.63785 203.73544Z" fill-rule="nonzero"/><path fill="#ffffff" d="M325.57257 307.0753L323.99445 307.0753L323.99445 296.99716Q323.41632 297.54404 322.49445 298.0909Q321.57257 298.62216 320.82257 298.9034L320.82257 297.37216Q322.1507 296.74716 323.1507 295.85654Q324.1507 294.9659 324.55695 294.1378L325.57257 294.1378L325.57257 307.0753ZM329.61945 300.7159Q329.61945 298.43466 330.0882 297.04404Q330.55695 295.6534 331.47882 294.9034Q332.41632 294.1378 333.82257 294.1378Q334.85382 294.1378 335.63507 294.55966Q336.41632 294.9659 336.91632 295.7628Q337.43195 296.54404 337.72882 297.68466Q338.0257 298.80966 338.0257 300.7159Q338.0257 302.98154 337.55695 304.3878Q337.0882 305.7784 336.1507 306.54404Q335.22882 307.29404 333.82257 307.29404Q331.94757 307.29404 330.88507 305.9659Q329.61945 304.35654 329.61945 300.7159ZM331.24445 300.7159Q331.24445 303.8878 331.97882 304.9503Q332.72882 305.99716 333.82257 305.99716Q334.9007 305.99716 335.6507 304.9503Q336.4007 303.8878 336.4007 300.7159Q336.4007 297.54404 335.6507 296.49716Q334.9007 295.4503 333.80695 295.4503Q332.7132 295.4503 332.05695 296.37216Q331.24445 297.54404 331.24445 300.7159ZM340.51007 307.0753L340.51007 305.2784L342.30695 305.2784L342.30695 307.0753L340.51007 307.0753ZM350.57257 307.0753L348.99445 307.0753L348.99445 296.99716Q348.41632 297.54404 347.49445 298.0909Q346.57257 298.62216 345.82257 298.9034L345.82257 297.37216Q347.1507 296.74716 348.1507 295.85654Q349.1507 294.9659 349.55695 294.1378L350.57257 294.1378L350.57257 307.0753ZM354.91632 297.2784Q354.91632 295.9034 355.60382 294.93466Q356.30695 293.9659 357.61945 293.9659Q358.8382 293.9659 359.63507 294.8409Q360.43195 295.7003 360.43195 297.3878Q360.43195 299.0128 359.61945 299.9034Q358.82257 300.7784 357.63507 300.7784Q356.47882 300.7784 355.69757 299.91904Q354.91632 299.04404 354.91632 297.2784ZM357.66632 295.05966Q357.07257 295.05966 356.68195 295.5753Q356.29132 296.0753 356.29132 297.43466Q356.29132 298.68466 356.68195 299.18466Q357.0882 299.68466 357.66632 299.68466Q358.26007 299.68466 358.6507 299.18466Q359.04132 298.66904 359.04132 297.3253Q359.04132 296.0753 358.6507 295.5753Q358.26007 295.05966 357.66632 295.05966ZM357.68195 307.54404L364.72882 293.9659L366.01007 293.9659L358.97882 307.54404L357.68195 307.54404ZM363.24445 304.04404Q363.24445 302.66904 363.93195 301.7003Q364.63507 300.73154 365.9632 300.73154Q367.18195 300.73154 367.9632 301.60654Q368.76007 302.4659 368.76007 304.1534Q368.76007 305.7784 367.9632 306.66904Q367.16632 307.54404 365.97882 307.54404Q364.80695 307.54404 364.0257 306.66904Q363.24445 305.79404 363.24445 304.04404ZM366.01007 301.8253Q365.41632 301.8253 365.0257 302.3409Q364.63507 302.8409 364.63507 304.2159Q364.63507 305.43466 365.0257 305.9503Q365.41632 306.4659 365.99445 306.4659Q366.60382 306.4659 366.99445 305.9503Q367.38507 305.43466 367.38507 304.0909Q367.38507 302.8409 366.99445 302.3409Q366.60382 301.8253 366.01007 301.8253Z" fill-rule="nonzero"/><path fill="#ffffff" d="M225.91978 295.20047L225.91978 296.7161L217.40416 296.7161Q217.38853 296.13797 217.59166 295.62234Q217.91978 294.74734 218.62291 293.9036Q219.34166 293.05984 220.70103 291.95047Q222.79478 290.23172 223.52916 289.23172Q224.27916 288.2161 224.27916 287.32547Q224.27916 286.37234 223.60728 285.73172Q222.93541 285.0911 221.85728 285.0911Q220.70103 285.0911 220.01353 285.7786Q219.34166 286.4661 219.32603 287.66922L217.70103 287.49734Q217.87291 285.68484 218.95103 284.73172Q220.04478 283.7786 221.88853 283.7786Q223.73228 283.7786 224.81041 284.80984Q225.90416 285.8411 225.90416 287.35672Q225.90416 288.12234 225.57603 288.87234Q225.26353 289.62234 224.52916 290.45047Q223.79478 291.2786 222.09166 292.7161Q220.66978 293.91922 220.26353 294.3411Q219.85728 294.76297 219.60728 295.20047L225.91978 295.20047ZM235.91978 295.20047L235.91978 296.7161L227.40416 296.7161Q227.38853 296.13797 227.59166 295.62234Q227.91978 294.74734 228.62291 293.9036Q229.34166 293.05984 230.70103 291.95047Q232.79478 290.23172 233.52916 289.23172Q234.27916 288.2161 234.27916 287.32547Q234.27916 286.37234 233.60728 285.73172Q232.93541 285.0911 231.85728 285.0911Q230.70103 285.0911 230.01353 285.7786Q229.34166 286.4661 229.32603 287.66922L227.70103 287.49734Q227.87291 285.68484 228.95103 284.73172Q230.04478 283.7786 231.88853 283.7786Q233.73228 283.7786 234.81041 284.80984Q235.90416 285.8411 235.90416 287.35672Q235.90416 288.12234 235.57603 288.87234Q235.26353 289.62234 234.52916 290.45047Q233.79478 291.2786 232.09166 292.7161Q230.66978 293.91922 230.26353 294.3411Q229.85728 294.76297 229.60728 295.20047L235.91978 295.20047ZM238.49791 296.7161L238.49791 294.91922L240.29478 294.91922L240.29478 296.7161L238.49791 296.7161ZM242.60728 293.30984L244.20103 293.10672Q244.46666 294.45047 245.12291 295.04422Q245.77916 295.63797 246.71666 295.63797Q247.84166 295.63797 248.60728 294.87234Q249.37291 294.0911 249.37291 292.95047Q249.37291 291.85672 248.65416 291.1536Q247.95103 290.43484 246.85728 290.43484Q246.40416 290.43484 245.73228 290.62234L245.90416 289.23172Q246.06041 289.24734 246.16978 289.24734Q247.16978 289.24734 247.98228 288.7161Q248.79478 288.18484 248.79478 287.0911Q248.79478 286.2161 248.20103 285.6536Q247.60728 285.07547 246.68541 285.07547Q245.76353 285.07547 245.13853 285.6536Q244.52916 286.23172 244.35728 287.4036L242.77916 287.12234Q243.06041 285.5286 244.09166 284.6536Q245.12291 283.7786 246.65416 283.7786Q247.70103 283.7786 248.59166 284.23172Q249.48228 284.68484 249.95103 285.4661Q250.41978 286.24734 250.41978 287.12234Q250.41978 287.9661 249.96666 288.6536Q249.52916 289.32547 248.63853 289.73172Q249.77916 289.99734 250.40416 290.8411Q251.04478 291.66922 251.04478 292.9036Q251.04478 294.5911 249.81041 295.7786Q248.59166 296.95047 246.71666 296.95047Q245.01353 296.95047 243.88853 295.93484Q242.77916 294.91922 242.60728 293.30984ZM252.90416 286.91922Q252.90416 285.54422 253.59166 284.57547Q254.29478 283.60672 255.60728 283.60672Q256.82605 283.60672 257.62292 284.48172Q258.4198 285.3411 258.4198 287.0286Q258.4198 288.6536 257.6073 289.54422Q256.81042 290.41922 255.62291 290.41922Q254.46666 290.41922 253.68541 289.55984Q252.90416 288.68484 252.90416 286.91922ZM255.65416 284.70047Q255.06041 284.70047 254.66978 285.2161Q254.27916 285.7161 254.27916 287.07547Q254.27916 288.32547 254.66978 288.82547Q255.07603 289.32547 255.65416 289.32547Q256.24792 289.32547 256.63855 288.82547Q257.02917 288.30984 257.02917 286.9661Q257.02917 285.7161 256.63855 285.2161Q256.24792 284.70047 255.65416 284.70047ZM255.66978 297.18484L262.71667 283.60672L263.99792 283.60672L256.96667 297.18484L255.66978 297.18484ZM261.2323 293.68484Q261.2323 292.30984 261.9198 291.3411Q262.62292 290.37234 263.95105 290.37234Q265.1698 290.37234 265.95105 291.24734Q266.74792 292.10672 266.74792 293.79422Q266.74792 295.41922 265.95105 296.30984Q265.15417 297.18484 263.96667 297.18484Q262.7948 297.18484 262.01355 296.30984Q261.2323 295.43484 261.2323 293.68484ZM263.99792 291.4661Q263.40417 291.4661 263.01355 291.98172Q262.62292 292.48172 262.62292 293.85672Q262.62292 295.07547 263.01355 295.5911Q263.40417 296.10672 263.9823 296.10672Q264.59167 296.10672 264.9823 295.5911Q265.37292 295.07547 265.37292 293.73172Q265.37292 292.48172 264.9823 291.98172Q264.59167 291.4661 263.99792 291.4661Z" fill-rule="nonzero"/><path fill="#ffffff" d="M202.64986 147.90248L202.64986 149.4181L194.13423 149.4181Q194.1186 148.83998 194.32173 148.32436Q194.64986 147.44936 195.35298 146.6056Q196.07173 145.76186 197.4311 144.65248Q199.52486 142.93373 200.25923 141.93373Q201.00923 140.9181 201.00923 140.02748Q201.00923 139.07436 200.33736 138.43373Q199.66548 137.7931 198.58736 137.7931Q197.4311 137.7931 196.7436 138.4806Q196.07173 139.1681 196.0561 140.37123L194.4311 140.19936Q194.60298 138.38686 195.6811 137.43373Q196.77486 136.4806 198.6186 136.4806Q200.46236 136.4806 201.54048 137.51186Q202.63423 138.5431 202.63423 140.05873Q202.63423 140.82436 202.3061 141.57436Q201.9936 142.32436 201.25923 143.15248Q200.52486 143.9806 198.82173 145.4181Q197.39986 146.62123 196.9936 147.0431Q196.58736 147.46498 196.33736 147.90248L202.64986 147.90248ZM204.57173 146.43373L206.08736 146.2931Q206.29048 147.37123 206.82173 147.8556Q207.3686 148.33998 208.22798 148.33998Q208.96236 148.33998 209.50923 148.01186Q210.0561 147.6681 210.39986 147.12123Q210.75923 146.55873 210.9936 145.6056Q211.22798 144.65248 211.22798 143.6681Q211.22798 143.55873 211.22798 143.3556Q210.7436 144.1056 209.91548 144.57436Q209.10298 145.0431 208.14986 145.0431Q206.5561 145.0431 205.44673 143.88686Q204.33736 142.7306 204.33736 140.82436Q204.33736 138.87123 205.4936 137.68373Q206.64986 136.4806 208.38423 136.4806Q209.64986 136.4806 210.6811 137.1681Q211.72798 137.83998 212.25923 139.08998Q212.8061 140.33998 212.8061 142.71498Q212.8061 145.18373 212.25923 146.65248Q211.72798 148.1056 210.66548 148.87123Q209.6186 149.63686 208.19673 149.63686Q206.6811 149.63686 205.71236 148.80873Q204.75923 147.96498 204.57173 146.43373ZM211.0561 140.74623Q211.0561 139.38686 210.32173 138.58998Q209.60298 137.7931 208.58736 137.7931Q207.52486 137.7931 206.7436 138.65248Q205.96236 139.51186 205.96236 140.88686Q205.96236 142.12123 206.69673 142.88686Q207.44673 143.65248 208.54048 143.65248Q209.63423 143.65248 210.33736 142.88686Q211.0561 142.12123 211.0561 140.74623ZM215.22798 149.4181L215.22798 147.62123L217.02486 147.62123L217.02486 149.4181L215.22798 149.4181ZM219.33736 146.0431L220.9936 145.90248Q221.1811 147.12123 221.85298 147.7306Q222.52486 148.33998 223.47798 148.33998Q224.6186 148.33998 225.39986 147.4806Q226.19673 146.62123 226.19673 145.18373Q226.19673 143.83998 225.4311 143.05873Q224.6811 142.27748 223.44673 142.27748Q222.6811 142.27748 222.0561 142.62123Q221.44673 142.96498 221.10298 143.52748L219.6186 143.32436L220.8686 136.71498L227.27486 136.71498L227.27486 138.21498L222.13423 138.21498L221.4311 141.68373Q222.60298 140.87123 223.8686 140.87123Q225.5561 140.87123 226.71236 142.0431Q227.88423 143.21498 227.88423 145.0431Q227.88423 146.7931 226.85298 148.07436Q225.6186 149.63686 223.47798 149.63686Q221.71236 149.63686 220.60298 148.65248Q219.4936 147.6681 219.33736 146.0431ZM229.63423 139.62123Q229.63423 138.24623 230.32173 137.27748Q231.02486 136.30873 232.33736 136.30873Q233.5561 136.30873 234.35298 137.18373Q235.14986 138.0431 235.14986 139.7306Q235.14986 141.3556 234.33736 142.24623Q233.54048 143.12123 232.35298 143.12123Q231.19673 143.12123 230.41548 142.26186Q229.63423 141.38686 229.63423 139.62123ZM232.38423 137.40248Q231.79048 137.40248 231.39986 137.9181Q231.00923 138.4181 231.00923 139.77748Q231.00923 141.02748 231.39986 141.52748Q231.8061 142.02748 232.38423 142.02748Q232.97798 142.02748 233.3686 141.52748Q233.75923 141.01186 233.75923 139.6681Q233.75923 138.4181 233.3686 137.9181Q232.97798 137.40248 232.38423 137.40248ZM232.39986 149.88686L239.44673 136.30873L240.72798 136.30873L233.69673 149.88686L232.39986 149.88686ZM237.96236 146.38686Q237.96236 145.01186 238.64986 144.0431Q239.35298 143.07436 240.6811 143.07436Q241.89986 143.07436 242.6811 143.94936Q243.47798 144.80873 243.47798 146.49623Q243.47798 148.12123 242.6811 149.01186Q241.88423 149.88686 240.69673 149.88686Q239.52486 149.88686 238.7436 149.01186Q237.96236 148.13686 237.96236 146.38686ZM240.72798 144.1681Q240.13423 144.1681 239.7436 144.68373Q239.35298 145.18373 239.35298 146.55873Q239.35298 147.77748 239.7436 148.2931Q240.13423 148.80873 240.71236 148.80873Q241.32173 148.80873 241.71236 148.2931Q242.10298 147.77748 242.10298 146.43373Q242.10298 145.18373 241.71236 144.68373Q241.32173 144.1681 240.72798 144.1681Z" fill-rule="nonzero"/><path stroke="#ffffff" stroke-width="1.0" stroke-linejoin="round" stroke-linecap="round" d="M301.6806 166.52966C301.12076 166.50433 300.56042 166.49167 300.0 166.49167L300.0 54.916668C302.24164 54.916668 304.483 54.967335 306.72238 55.068626" fill-rule="nonzero"/><path stroke="#ffffff" stroke-width="1.0" stroke-linejoin="round" stroke-linecap="round" d="M324.6142 175.80214C318.25162 170.18509 310.1592 166.91318 301.6806 166.52966L306.72238 55.068626C340.6368 56.6027 373.00644 69.69033 398.45682 92.15854" fill-rule="nonzero"/><path stroke="#ffffff" stroke-width="1.0" stroke-linejoin="round" stroke-linecap="round" d="M325.238 231.00114C332.9658 223.86171 337.3082 213.7833 337.1893 203.26305C337.0704 192.7428 332.50134 182.76509 324.6142 175.80214L398.45682 92.15854C430.00537 120.01038 448.28162 159.9212 448.75717 202.0022C449.23273 244.0832 431.86313 284.39685 400.95206 312.95456" fill-rule="nonzero"/><path stroke="#ffffff" stroke-width="1.0" stroke-linejoin="round" stroke-linecap="round" d="M304.19397 240.63777C312.05508 239.74562 319.42685 236.36987 325.238 231.00114L400.95206 312.95456C377.70743 334.4295 348.2203 347.93246 316.7759 351.5011" fill-rule="nonzero"/><path stroke="#ffffff" stroke-width="1.0" stroke-linejoin="round" stroke-linecap="round" d="M264.28275 214.0514C269.33395 231.45251 286.19012 242.68105 304.19397 240.63777L316.7759 351.5011C244.7605 359.67416 177.33583 314.76007 157.13094 245.15562" fill-rule="nonzero"/><path stroke="#ffffff" stroke-width="1.0" stroke-linejoin="round" stroke-linecap="round" d="M300.0 166.49167C288.302 166.49167 277.28568 171.99544 270.26093 181.34935C263.23615 190.70326 261.02164 202.81715 264.28275 214.0514L157.13094 245.15562C144.08655 200.21863 152.9446 151.76303 181.04367 114.347374C209.14275 76.931725 253.20802 54.916668 300.0 54.916668" fill-rule="nonzero"/><path fill="#efefef" d="M27.3 101.861046L28.815624 101.861046L28.815624 108.47042Q28.815624 110.204796 28.425 111.22042Q28.034374 112.236046 27.01875 112.87667Q26.003124 113.517296 24.346874 113.517296Q22.7375 113.517296 21.70625 112.954796Q20.690624 112.392296 20.253124 111.34542Q19.815624 110.298546 19.815624 108.47042L19.815624 101.861046L21.33125 101.861046L21.33125 108.47042Q21.33125 109.954796 21.596874 110.673546Q21.878124 111.37667 22.55 111.767296Q23.2375 112.142296 24.20625 112.142296Q25.878124 112.142296 26.58125 111.392296Q27.3 110.62667 27.3 108.47042L27.3 101.861046ZM31.596874 113.31417L31.596874 105.017296L32.8625 105.017296L32.8625 106.267296Q33.346874 105.392296 33.753124 105.111046Q34.159374 104.829796 34.659374 104.829796Q35.3625 104.829796 36.096874 105.28292L35.6125 106.579796Q35.096874 106.28292 34.58125 106.28292Q34.128124 106.28292 33.753124 106.56417Q33.39375 106.829796 33.2375 107.329796Q33.003124 108.079796 33.003124 108.97042L33.003124 113.31417L31.596874 113.31417ZM37.909374 113.31417L36.596874 113.31417L36.596874 101.861046L38.003124 101.861046L38.003124 105.93917Q38.89375 104.829796 40.284374 104.829796Q41.05 104.829796 41.721874 105.142296Q42.409374 105.43917 42.846874 106.00167Q43.3 106.56417 43.55 107.361046Q43.8 108.142296 43.8 109.03292Q43.8 111.173546 42.7375 112.34542Q41.690624 113.50167 40.20625 113.50167Q38.7375 113.50167 37.909374 112.267296L37.909374 113.31417ZM37.89375 109.09542Q37.89375 110.59542 38.3 111.25167Q38.95625 112.34542 40.096874 112.34542Q41.01875 112.34542 41.690624 111.548546Q42.3625 110.736046 42.3625 109.15792Q42.3625 107.53292 41.70625 106.767296Q41.065624 105.986046 40.159374 105.986046Q39.2375 105.986046 38.565624 106.78292Q37.89375 107.579796 37.89375 109.09542ZM51.01875 112.28292Q50.2375 112.954796 49.51875 113.236046Q48.8 113.50167 47.971874 113.50167Q46.596874 113.50167 45.8625 112.829796Q45.128124 112.15792 45.128124 111.12667Q45.128124 110.517296 45.409374 110.017296Q45.690624 109.50167 46.128124 109.204796Q46.58125 108.892296 47.14375 108.736046Q47.565624 108.62667 48.39375 108.53292Q50.096874 108.329796 50.909374 108.048546Q50.909374 107.75167 50.909374 107.673546Q50.909374 106.81417 50.51875 106.47042Q49.971874 105.986046 48.909374 105.986046Q47.925 105.986046 47.440624 106.34542Q46.971874 106.68917 46.753124 107.56417L45.378124 107.37667Q45.565624 106.50167 45.9875 105.954796Q46.425 105.40792 47.2375 105.12667Q48.05 104.829796 49.1125 104.829796Q50.175 104.829796 50.83125 105.079796Q51.503124 105.329796 51.815624 105.704796Q52.128124 106.079796 52.253124 106.65792Q52.33125 107.017296 52.33125 107.954796L52.33125 109.829796Q52.33125 111.798546 52.409374 112.31417Q52.503124 112.829796 52.76875 113.31417L51.3 113.31417Q51.08125 112.87667 51.01875 112.28292ZM50.909374 109.142296Q50.14375 109.454796 48.6125 109.673546Q47.7375 109.798546 47.378124 109.954796Q47.01875 110.111046 46.815624 110.423546Q46.628124 110.72042 46.628124 111.079796Q46.628124 111.642296 47.05 112.017296Q47.4875 112.392296 48.3 112.392296Q49.1125 112.392296 49.7375 112.048546Q50.378124 111.68917 50.675 111.06417Q50.909374 110.59542 50.909374 109.65792L50.909374 109.142296ZM54.6125 113.31417L54.6125 105.017296L55.878124 105.017296L55.878124 106.18917Q56.784374 104.829796 58.51875 104.829796Q59.26875 104.829796 59.89375 105.09542Q60.51875 105.361046 60.83125 105.798546Q61.14375 106.236046 61.26875 106.84542Q61.346874 107.236046 61.346874 108.204796L61.346874 113.31417L59.940624 113.31417L59.940624 108.267296Q59.940624 107.40792 59.76875 106.986046Q59.6125 106.548546 59.190624 106.298546Q58.784374 106.048546 58.221874 106.048546Q57.315624 106.048546 56.659374 106.62667Q56.01875 107.18917 56.01875 108.78292L56.01875 113.31417L54.6125 113.31417ZM63.05 110.829796L64.44063 110.611046Q64.55 111.454796 65.08125 111.90792Q65.62813 112.34542 66.58125 112.34542Q67.55 112.34542 68.01875 111.954796Q68.4875 111.548546 68.4875 111.017296Q68.4875 110.548546 68.08125 110.267296Q67.78438 110.079796 66.64375 109.798546Q65.09688 109.40792 64.4875 109.12667Q63.89375 108.829796 63.58125 108.329796Q63.284374 107.829796 63.284374 107.22042Q63.284374 106.65792 63.534374 106.18917Q63.784374 105.72042 64.22188 105.40792Q64.55 105.15792 65.1125 105.00167Q65.69063 104.829796 66.33125 104.829796Q67.31563 104.829796 68.05 105.111046Q68.78438 105.392296 69.12813 105.87667Q69.4875 106.34542 69.62813 107.15792L68.25313 107.34542Q68.15938 106.704796 67.70625 106.34542Q67.25313 105.986046 66.44063 105.986046Q65.47188 105.986046 65.05 106.31417Q64.64375 106.62667 64.64375 107.048546Q64.64375 107.329796 64.81563 107.548546Q64.9875 107.767296 65.34688 107.923546Q65.56563 108.00167 66.59688 108.28292Q68.08125 108.673546 68.675 108.93917Q69.26875 109.18917 69.59688 109.673546Q69.94063 110.15792 69.94063 110.87667Q69.94063 111.579796 69.51875 112.204796Q69.1125 112.81417 68.33125 113.15792Q67.56563 113.50167 66.59688 113.50167Q64.97188 113.50167 64.12813 112.829796Q63.284374 112.15792 63.05 110.829796ZM77.01875 110.267296L78.40938 110.454796Q78.175 111.87667 77.2375 112.68917Q76.31563 113.50167 74.95625 113.50167Q73.25313 113.50167 72.20625 112.392296Q71.175 111.267296 71.175 109.18917Q71.175 107.84542 71.6125 106.84542Q72.06563 105.829796 72.97188 105.329796Q73.89375 104.829796 74.95625 104.829796Q76.31563 104.829796 77.175 105.517296Q78.03438 106.18917 78.26875 107.454796L76.90938 107.65792Q76.70625 106.829796 76.20625 106.40792Q75.72188 105.986046 75.01875 105.986046Q73.95625 105.986046 73.28438 106.75167Q72.62813 107.50167 72.62813 109.15792Q72.62813 110.829796 73.26875 111.59542Q73.90938 112.34542 74.94063 112.34542Q75.76875 112.34542 76.31563 111.84542Q76.87813 111.329796 77.01875 110.267296ZM85.01875 112.28292Q84.2375 112.954796 83.51875 113.236046Q82.8 113.50167 81.97188 113.50167Q80.59688 113.50167 79.8625 112.829796Q79.12813 112.15792 79.12813 111.12667Q79.12813 110.517296 79.40938 110.017296Q79.69063 109.50167 80.12813 109.204796Q80.58125 108.892296 81.14375 108.736046Q81.56563 108.62667 82.39375 108.53292Q84.09688 108.329796 84.90938 108.048546Q84.90938 107.75167 84.90938 107.673546Q84.90938 106.81417 84.51875 106.47042Q83.97188 105.986046 82.90938 105.986046Q81.925 105.986046 81.44063 106.34542Q80.97188 106.68917 80.75313 107.56417L79.37813 107.37667Q79.56563 106.50167 79.9875 105.954796Q80.425 105.40792 81.2375 105.12667Q82.05 104.829796 83.1125 104.829796Q84.175 104.829796 84.83125 105.079796Q85.50313 105.329796 85.81563 105.704796Q86.12813 106.079796 86.25313 106.65792Q86.33125 107.017296 86.33125 107.954796L86.33125 109.829796Q86.33125 111.798546 86.40938 112.31417Q86.50313 112.829796 86.76875 113.31417L85.3 113.31417Q85.08125 112.87667 85.01875 112.28292ZM84.90938 109.142296Q84.14375 109.454796 82.6125 109.673546Q81.7375 109.798546 81.37813 109.954796Q81.01875 110.111046 80.81563 110.423546Q80.62813 110.72042 80.62813 111.079796Q80.62813 111.642296 81.05 112.017296Q81.4875 112.392296 82.3 112.392296Q83.1125 112.392296 83.7375 112.048546Q84.37813 111.68917 84.675 111.06417Q84.90938 110.59542 84.90938 109.65792L84.90938 109.142296ZM88.6125 116.50167L88.6125 105.017296L89.89375 105.017296L89.89375 106.09542Q90.34688 105.454796 90.90938 105.142296Q91.4875 104.829796 92.3 104.829796Q93.3625 104.829796 94.175 105.37667Q94.9875 105.923546 95.39375 106.923546Q95.81563 107.90792 95.81563 109.09542Q95.81563 110.37667 95.34688 111.392296Q94.89375 112.40792 94.01875 112.954796Q93.15938 113.50167 92.19063 113.50167Q91.4875 113.50167 90.925 113.204796Q90.37813 112.90792 90.01875 112.454796L90.01875 116.50167L88.6125 116.50167ZM89.87813 109.204796Q89.87813 110.81417 90.51875 111.579796Q91.175 112.34542 92.09688 112.34542Q93.03438 112.34542 93.70625 111.548546Q94.37813 110.75167 94.37813 109.09542Q94.37813 107.50167 93.72188 106.72042Q93.06563 105.923546 92.15938 105.923546Q91.26875 105.923546 90.56563 106.767296Q89.87813 107.611046 89.87813 109.204796ZM103.28438 110.642296L104.7375 110.81417Q104.39375 112.09542 103.45625 112.798546Q102.53438 113.50167 101.09688 113.50167Q99.26875 113.50167 98.20625 112.37667Q97.14375 111.25167 97.14375 109.236046Q97.14375 107.142296 98.22188 105.986046Q99.3 104.829796 101.01875 104.829796Q102.675 104.829796 103.72188 105.97042Q104.78438 107.09542 104.78438 109.142296Q104.78438 109.267296 104.78438 109.517296L98.59688 109.517296Q98.675 110.892296 99.3625 111.62667Q100.06563 112.34542 101.09688 112.34542Q101.87813 112.34542 102.425 111.93917Q102.97188 111.53292 103.28438 110.642296ZM98.675 108.361046L103.3 108.361046Q103.20625 107.31417 102.76875 106.798546Q102.09688 105.986046 101.03438 105.986046Q100.06563 105.986046 99.39375 106.642296Q98.7375 107.28292 98.675 108.361046Z" fill-rule="nonzero"/><path fill="#9e9e9e" d="M26.6125 133.9548L26.6125 135.31418L19.034374 135.31418Q19.01875 134.79855 19.20625 134.3298Q19.4875 133.56418 20.128124 132.81418Q20.76875 132.06418 21.971874 131.0798Q23.83125 129.54855 24.4875 128.65793Q25.14375 127.75168 25.14375 126.9548Q25.14375 126.12668 24.55 125.54855Q23.95625 124.97043 22.9875 124.97043Q21.971874 124.97043 21.3625 125.5798Q20.753124 126.18918 20.753124 127.2673L19.3 127.12668Q19.45625 125.50168 20.425 124.65793Q21.39375 123.81418 23.01875 123.81418Q24.675 123.81418 25.628124 124.73605Q26.596874 125.6423 26.596874 126.98605Q26.596874 127.67355 26.315624 128.34543Q26.034374 129.00168 25.378124 129.73605Q24.721874 130.47043 23.20625 131.75168Q21.940624 132.81418 21.58125 133.2048Q21.221874 133.5798 20.9875 133.9548L26.6125 133.9548ZM28.425 132.65793L29.784374 132.53293Q29.95625 133.48605 30.440624 133.92355Q30.925 134.34543 31.675 134.34543Q32.33125 134.34543 32.815624 134.04855Q33.3 133.75168 33.6125 133.2673Q33.925 132.7673 34.128124 131.92355Q34.346874 131.0798 34.346874 130.2048Q34.346874 130.11105 34.346874 129.92355Q33.925 130.59543 33.190624 131.0173Q32.45625 131.42355 31.6125 131.42355Q30.190624 131.42355 29.20625 130.3923Q28.221874 129.36105 28.221874 127.67355Q28.221874 125.93918 29.2375 124.87668Q30.26875 123.81418 31.815624 123.81418Q32.940624 123.81418 33.8625 124.42355Q34.784374 125.0173 35.26875 126.12668Q35.753124 127.23605 35.753124 129.34543Q35.753124 131.54855 35.26875 132.84543Q34.8 134.1423 33.846874 134.8298Q32.909374 135.5173 31.64375 135.5173Q30.3 135.5173 29.440624 134.7673Q28.596874 134.0173 28.425 132.65793ZM34.190624 127.61105Q34.190624 126.3923 33.534374 125.68918Q32.89375 124.97043 31.9875 124.97043Q31.05 124.97043 30.346874 125.73605Q29.659374 126.50168 29.659374 127.72043Q29.659374 128.81418 30.315624 129.50168Q30.9875 130.18918 31.95625 130.18918Q32.925 130.18918 33.55 129.50168Q34.190624 128.81418 34.190624 127.61105ZM38.003124 135.31418L38.003124 133.7048L39.6125 133.7048L39.6125 135.31418L38.003124 135.31418ZM41.221874 132.31418L42.690624 132.18918Q42.8625 133.2673 43.45625 133.81418Q44.05 134.34543 44.89375 134.34543Q45.909374 134.34543 46.6125 133.5798Q47.315624 132.81418 47.315624 131.54855Q47.315624 130.34543 46.64375 129.65793Q45.971874 128.9548 44.878124 128.9548Q44.190624 128.9548 43.64375 129.2673Q43.096874 129.5798 42.784374 130.06418L41.471874 129.8923L42.58125 124.0173L48.26875 124.0173L48.26875 125.36105L43.70625 125.36105L43.08125 128.43918Q44.1125 127.72043 45.253124 127.72043Q46.753124 127.72043 47.784374 128.7673Q48.815624 129.79855 48.815624 131.42355Q48.815624 132.98605 47.909374 134.11105Q46.8 135.5173 44.89375 135.5173Q43.33125 135.5173 42.346874 134.6423Q41.3625 133.75168 41.221874 132.31418ZM50.4875 126.61105Q50.4875 125.37668 51.096874 124.5173Q51.721874 123.65793 52.89375 123.65793Q53.971874 123.65793 54.675 124.43918Q55.378124 125.2048 55.378124 126.68918Q55.378124 128.1423 54.659374 128.93918Q53.95625 129.72043 52.909374 129.72043Q51.8625 129.72043 51.175 128.9548Q50.4875 128.17355 50.4875 126.61105ZM52.925 124.62668Q52.409374 124.62668 52.05 125.0798Q51.70625 125.53293 51.70625 126.75168Q51.70625 127.84543 52.05 128.29855Q52.409374 128.75168 52.925 128.75168Q53.45625 128.75168 53.8 128.29855Q54.159374 127.84543 54.159374 126.6423Q54.159374 125.53293 53.8 125.0798Q53.45625 124.62668 52.925 124.62668ZM52.940624 135.73605L59.20625 123.65793L60.346874 123.65793L54.096874 135.73605L52.940624 135.73605ZM57.89375 132.62668Q57.89375 131.3923 58.503124 130.53293Q59.128124 129.67355 60.3 129.67355Q61.378124 129.67355 62.08125 130.4548Q62.8 131.22043 62.8 132.7048Q62.8 134.15793 62.08125 134.9548Q61.3625 135.73605 60.315624 135.73605Q59.26875 135.73605 58.58125 134.9548Q57.89375 134.17355 57.89375 132.62668ZM60.346874 130.6423Q59.815624 130.6423 59.45625 131.09543Q59.1125 131.54855 59.1125 132.7673Q59.1125 133.86105 59.45625 134.31418Q59.815624 134.7673 60.33125 134.7673Q60.878124 134.7673 61.221874 134.31418Q61.565624 133.86105 61.565624 132.65793Q61.565624 131.54855 61.20625 131.09543Q60.8625 130.6423 60.346874 130.6423Z" fill-rule="nonzero"/><path stroke="#757575" stroke-width="1.0" stroke-linecap="butt" d="M18.55 118.81417L145.23334 118.81417L186.99149 118.81417" fill-rule="nonzero"/><path fill="#9e9e9e" d="M188.99149 118.81417C188.99149 117.7096 188.09605 116.81417 186.99149 116.81417C185.88692 116.81417 184.99149 117.7096 184.99149 118.81417C184.99149 119.91874 185.88692 120.81417 186.99149 120.81417C188.09605 120.81417 188.99149 119.91874 188.99149 118.81417" fill-rule="nonzero"/><path fill="#efefef" d="M19.76875 315.80435L19.76875 304.35123L21.33125 304.35123L27.346874 313.3356L27.346874 304.35123L28.8 304.35123L28.8 315.80435L27.2375 315.80435L21.221874 306.80435L21.221874 315.80435L19.76875 315.80435ZM37.01875 314.7731Q36.2375 315.44498 35.51875 315.72623Q34.8 315.99185 33.971874 315.99185Q32.596874 315.99185 31.8625 315.31998Q31.128124 314.6481 31.128124 313.61685Q31.128124 313.00748 31.409374 312.50748Q31.690624 311.99185 32.128124 311.69498Q32.58125 311.38248 33.14375 311.22623Q33.565624 311.11685 34.39375 311.0231Q36.096874 310.81998 36.909374 310.53873Q36.909374 310.24185 36.909374 310.16373Q36.909374 309.30435 36.51875 308.9606Q35.971874 308.47623 34.909374 308.47623Q33.925 308.47623 33.440624 308.8356Q32.971874 309.17935 32.753124 310.05435L31.378124 309.86685Q31.565624 308.99185 31.9875 308.44498Q32.425 307.8981 33.2375 307.61685Q34.05 307.31998 35.1125 307.31998Q36.175 307.31998 36.83125 307.56998Q37.503124 307.81998 37.815624 308.19498Q38.128124 308.56998 38.253124 309.1481Q38.33125 309.50748 38.33125 310.44498L38.33125 312.31998Q38.33125 314.28873 38.409374 314.80435Q38.503124 315.31998 38.76875 315.80435L37.3 315.80435Q37.08125 315.36685 37.01875 314.7731ZM36.909374 311.63248Q36.14375 311.94498 34.6125 312.16373Q33.7375 312.28873 33.378124 312.44498Q33.01875 312.60123 32.815624 312.91373Q32.628124 313.2106 32.628124 313.56998Q32.628124 314.13248 33.05 314.50748Q33.4875 314.88248 34.3 314.88248Q35.1125 314.88248 35.7375 314.53873Q36.378124 314.17935 36.675 313.55435Q36.909374 313.0856 36.909374 312.1481L36.909374 311.63248ZM43.675 314.53873L43.878124 315.78873Q43.284374 315.91373 42.815624 315.91373Q42.05 315.91373 41.628124 315.67935Q41.20625 315.42935 41.034374 315.03873Q40.8625 314.63248 40.8625 313.36685L40.8625 308.60123L39.83125 308.60123L39.83125 307.50748L40.8625 307.50748L40.8625 305.44498L42.26875 304.60123L42.26875 307.50748L43.675 307.50748L43.675 308.60123L42.26875 308.60123L42.26875 313.44498Q42.26875 314.05435 42.33125 314.22623Q42.409374 314.3981 42.58125 314.50748Q42.753124 314.60123 43.065624 314.60123Q43.3 314.60123 43.675 314.53873ZM50.05 315.80435L50.05 314.5856Q49.08125 315.99185 47.409374 315.99185Q46.675 315.99185 46.034374 315.7106Q45.409374 315.42935 45.096874 315.00748Q44.784374 314.56998 44.659374 313.9606Q44.58125 313.53873 44.58125 312.6481L44.58125 307.50748L45.9875 307.50748L45.9875 312.10123Q45.9875 313.2106 46.065624 313.5856Q46.20625 314.1481 46.628124 314.4606Q47.065624 314.7731 47.690624 314.7731Q48.33125 314.7731 48.878124 314.4606Q49.440624 314.13248 49.659374 313.56998Q49.89375 313.00748 49.89375 311.94498L49.89375 307.50748L51.3 307.50748L51.3 315.80435L50.05 315.80435ZM53.596874 315.80435L53.596874 307.50748L54.8625 307.50748L54.8625 308.75748Q55.346874 307.88248 55.753124 307.60123Q56.159374 307.31998 56.659374 307.31998Q57.3625 307.31998 58.096874 307.7731L57.6125 309.06998Q57.096874 308.7731 56.58125 308.7731Q56.128124 308.7731 55.753124 309.05435Q55.39375 309.31998 55.2375 309.81998Q55.003124 310.56998 55.003124 311.4606L55.003124 315.80435L53.596874 315.80435ZM64.28438 313.13248L65.7375 313.30435Q65.39375 314.5856 64.45625 315.28873Q63.534374 315.99185 62.096874 315.99185Q60.26875 315.99185 59.20625 314.86685Q58.14375 313.74185 58.14375 311.72623Q58.14375 309.63248 59.221874 308.47623Q60.3 307.31998 62.01875 307.31998Q63.675 307.31998 64.72188 308.4606Q65.78438 309.5856 65.78438 311.63248Q65.78438 311.75748 65.78438 312.00748L59.596874 312.00748Q59.675 313.38248 60.3625 314.11685Q61.065624 314.8356 62.096874 314.8356Q62.878124 314.8356 63.425 314.42935Q63.971874 314.0231 64.28438 313.13248ZM59.675 310.85123L64.3 310.85123Q64.20625 309.80435 63.76875 309.28873Q63.096874 308.47623 62.034374 308.47623Q61.065624 308.47623 60.39375 309.13248Q59.7375 309.7731 59.675 310.85123ZM67.05 313.31998L68.44063 313.10123Q68.55 313.94498 69.08125 314.3981Q69.62813 314.8356 70.58125 314.8356Q71.55 314.8356 72.01875 314.44498Q72.4875 314.03873 72.4875 313.50748Q72.4875 313.03873 72.08125 312.75748Q71.78438 312.56998 70.64375 312.28873Q69.09688 311.8981 68.4875 311.61685Q67.89375 311.31998 67.58125 310.81998Q67.28438 310.31998 67.28438 309.7106Q67.28438 309.1481 67.53438 308.67935Q67.78438 308.2106 68.22188 307.8981Q68.55 307.6481 69.1125 307.49185Q69.69063 307.31998 70.33125 307.31998Q71.31563 307.31998 72.05 307.60123Q72.78438 307.88248 73.12813 308.36685Q73.4875 308.8356 73.62813 309.6481L72.25313 309.8356Q72.15938 309.19498 71.70625 308.8356Q71.25313 308.47623 70.44063 308.47623Q69.47188 308.47623 69.05 308.80435Q68.64375 309.11685 68.64375 309.53873Q68.64375 309.81998 68.81563 310.03873Q68.9875 310.25748 69.34688 310.41373Q69.56563 310.49185 70.59688 310.7731Q72.08125 311.16373 72.675 311.42935Q73.26875 311.67935 73.59688 312.16373Q73.94063 312.6481 73.94063 313.36685Q73.94063 314.06998 73.51875 314.69498Q73.1125 315.30435 72.33125 315.6481Q71.56563 315.99185 70.59688 315.99185Q68.97188 315.99185 68.12813 315.31998Q67.28438 314.6481 67.05 313.31998ZM81.01875 312.75748L82.40938 312.94498Q82.175 314.36685 81.2375 315.17935Q80.31563 315.99185 78.95625 315.99185Q77.25313 315.99185 76.20625 314.88248Q75.175 313.75748 75.175 311.67935Q75.175 310.3356 75.6125 309.3356Q76.06563 308.31998 76.97188 307.81998Q77.89375 307.31998 78.95625 307.31998Q80.31563 307.31998 81.175 308.00748Q82.03438 308.67935 82.26875 309.94498L80.90938 310.1481Q80.70625 309.31998 80.20625 308.8981Q79.72188 308.47623 79.01875 308.47623Q77.95625 308.47623 77.28438 309.24185Q76.62813 309.99185 76.62813 311.6481Q76.62813 313.31998 77.26875 314.0856Q77.90938 314.8356 78.94063 314.8356Q79.76875 314.8356 80.31563 314.3356Q80.87813 313.81998 81.01875 312.75748ZM89.01875 314.7731Q88.2375 315.44498 87.51875 315.72623Q86.8 315.99185 85.97188 315.99185Q84.59688 315.99185 83.8625 315.31998Q83.12813 314.6481 83.12813 313.61685Q83.12813 313.00748 83.40938 312.50748Q83.69063 311.99185 84.12813 311.69498Q84.58125 311.38248 85.14375 311.22623Q85.56563 311.11685 86.39375 311.0231Q88.09688 310.81998 88.90938 310.53873Q88.90938 310.24185 88.90938 310.16373Q88.90938 309.30435 88.51875 308.9606Q87.97188 308.47623 86.90938 308.47623Q85.925 308.47623 85.44063 308.8356Q84.97188 309.17935 84.75313 310.05435L83.37813 309.86685Q83.56563 308.99185 83.9875 308.44498Q84.425 307.8981 85.2375 307.61685Q86.05 307.31998 87.1125 307.31998Q88.175 307.31998 88.83125 307.56998Q89.50313 307.81998 89.81563 308.19498Q90.12813 308.56998 90.25313 309.1481Q90.33125 309.50748 90.33125 310.44498L90.33125 312.31998Q90.33125 314.28873 90.40938 314.80435Q90.50313 315.31998 90.76875 315.80435L89.3 315.80435Q89.08125 315.36685 89.01875 314.7731ZM88.90938 311.63248Q88.14375 311.94498 86.6125 312.16373Q85.7375 312.28873 85.37813 312.44498Q85.01875 312.60123 84.81563 312.91373Q84.62813 313.2106 84.62813 313.56998Q84.62813 314.13248 85.05 314.50748Q85.4875 314.88248 86.3 314.88248Q87.1125 314.88248 87.7375 314.53873Q88.37813 314.17935 88.675 313.55435Q88.90938 313.0856 88.90938 312.1481L88.90938 311.63248ZM92.6125 318.99185L92.6125 307.50748L93.89375 307.50748L93.89375 308.5856Q94.34688 307.94498 94.90938 307.63248Q95.4875 307.31998 96.3 307.31998Q97.3625 307.31998 98.175 307.86685Q98.9875 308.41373 99.39375 309.41373Q99.81563 310.3981 99.81563 311.5856Q99.81563 312.86685 99.34688 313.88248Q98.89375 314.8981 98.01875 315.44498Q97.15938 315.99185 96.19063 315.99185Q95.4875 315.99185 94.925 315.69498Q94.37813 315.3981 94.01875 314.94498L94.01875 318.99185L92.6125 318.99185ZM93.87813 311.69498Q93.87813 313.30435 94.51875 314.06998Q95.175 314.8356 96.09688 314.8356Q97.03438 314.8356 97.70625 314.03873Q98.37813 313.24185 98.37813 311.5856Q98.37813 309.99185 97.72188 309.2106Q97.06563 308.41373 96.15938 308.41373Q95.26875 308.41373 94.56563 309.25748Q93.87813 310.10123 93.87813 311.69498ZM107.28438 313.13248L108.7375 313.30435Q108.39375 314.5856 107.45625 315.28873Q106.53438 315.99185 105.09688 315.99185Q103.26875 315.99185 102.20625 314.86685Q101.14375 313.74185 101.14375 311.72623Q101.14375 309.63248 102.22188 308.47623Q103.3 307.31998 105.01875 307.31998Q106.675 307.31998 107.72188 308.4606Q108.78438 309.5856 108.78438 311.63248Q108.78438 311.75748 108.78438 312.00748L102.59688 312.00748Q102.675 313.38248 103.3625 314.11685Q104.06563 314.8356 105.09688 314.8356Q105.87813 314.8356 106.425 314.42935Q106.97188 314.0231 107.28438 313.13248ZM102.675 310.85123L107.3 310.85123Q107.20625 309.80435 106.76875 309.28873Q106.09688 308.47623 105.03438 308.47623Q104.06563 308.47623 103.39375 309.13248Q102.7375 309.7731 102.675 310.85123Z" fill-rule="nonzero"/><path fill="#9e9e9e" d="M26.6125 336.44498L26.6125 337.80435L19.034374 337.80435Q19.01875 337.28873 19.20625 336.81998Q19.4875 336.05435 20.128124 335.30435Q20.76875 334.55435 21.971874 333.56998Q23.83125 332.03873 24.4875 331.1481Q25.14375 330.24185 25.14375 329.44498Q25.14375 328.61685 24.55 328.03873Q23.95625 327.4606 22.9875 327.4606Q21.971874 327.4606 21.3625 328.06998Q20.753124 328.67935 20.753124 329.75748L19.3 329.61685Q19.45625 327.99185 20.425 327.1481Q21.39375 326.30435 23.01875 326.30435Q24.675 326.30435 25.628124 327.22623Q26.596874 328.13248 26.596874 329.47623Q26.596874 330.16373 26.315624 330.8356Q26.034374 331.49185 25.378124 332.22623Q24.721874 332.9606 23.20625 334.24185Q21.940624 335.30435 21.58125 335.69498Q21.221874 336.06998 20.9875 336.44498L26.6125 336.44498ZM35.6125 336.44498L35.6125 337.80435L28.034374 337.80435Q28.01875 337.28873 28.20625 336.81998Q28.4875 336.05435 29.128124 335.30435Q29.76875 334.55435 30.971874 333.56998Q32.83125 332.03873 33.4875 331.1481Q34.14375 330.24185 34.14375 329.44498Q34.14375 328.61685 33.55 328.03873Q32.95625 327.4606 31.9875 327.4606Q30.971874 327.4606 30.3625 328.06998Q29.753124 328.67935 29.753124 329.75748L28.3 329.61685Q28.45625 327.99185 29.425 327.1481Q30.39375 326.30435 32.01875 326.30435Q33.675 326.30435 34.628124 327.22623Q35.596874 328.13248 35.596874 329.47623Q35.596874 330.16373 35.315624 330.8356Q35.034374 331.49185 34.378124 332.22623Q33.721874 332.9606 32.20625 334.24185Q30.940624 335.30435 30.58125 335.69498Q30.221874 336.06998 29.9875 336.44498L35.6125 336.44498ZM38.003124 337.80435L38.003124 336.19498L39.6125 336.19498L39.6125 337.80435L38.003124 337.80435ZM41.221874 334.7731L42.628124 334.5856Q42.878124 335.78873 43.45625 336.31998Q44.034374 336.8356 44.878124 336.8356Q45.8625 336.8356 46.55 336.1481Q47.2375 335.4606 47.2375 334.44498Q47.2375 333.47623 46.596874 332.85123Q45.971874 332.22623 44.9875 332.22623Q44.596874 332.22623 44.003124 332.38248L44.159374 331.1481Q44.3 331.16373 44.378124 331.16373Q45.284374 331.16373 46.003124 330.69498Q46.721874 330.22623 46.721874 329.24185Q46.721874 328.47623 46.190624 327.97623Q45.675 327.4606 44.846874 327.4606Q44.01875 327.4606 43.471874 327.97623Q42.925 328.49185 42.76875 329.5231L41.3625 329.2731Q41.628124 327.85123 42.534374 327.0856Q43.45625 326.30435 44.815624 326.30435Q45.753124 326.30435 46.534374 326.7106Q47.33125 327.10123 47.7375 327.80435Q48.159374 328.49185 48.159374 329.2731Q48.159374 330.0231 47.753124 330.63248Q47.3625 331.24185 46.58125 331.60123Q47.596874 331.8356 48.159374 332.56998Q48.721874 333.30435 48.721874 334.41373Q48.721874 335.91373 47.628124 336.9606Q46.534374 338.00748 44.8625 338.00748Q43.3625 338.00748 42.3625 337.11685Q41.3625 336.2106 41.221874 334.7731ZM50.4875 329.10123Q50.4875 327.86685 51.096874 327.00748Q51.721874 326.1481 52.89375 326.1481Q53.971874 326.1481 54.675 326.92935Q55.378124 327.69498 55.378124 329.17935Q55.378124 330.63248 54.659374 331.42935Q53.95625 332.2106 52.909374 332.2106Q51.8625 332.2106 51.175 331.44498Q50.4875 330.66373 50.4875 329.10123ZM52.925 327.11685Q52.409374 327.11685 52.05 327.56998Q51.70625 328.0231 51.70625 329.24185Q51.70625 330.3356 52.05 330.78873Q52.409374 331.24185 52.925 331.24185Q53.45625 331.24185 53.8 330.78873Q54.159374 330.3356 54.159374 329.13248Q54.159374 328.0231 53.8 327.56998Q53.45625 327.11685 52.925 327.11685ZM52.940624 338.22623L59.20625 326.1481L60.346874 326.1481L54.096874 338.22623L52.940624 338.22623ZM57.89375 335.11685Q57.89375 333.88248 58.503124 333.0231Q59.128124 332.16373 60.3 332.16373Q61.378124 332.16373 62.08125 332.94498Q62.8 333.7106 62.8 335.19498Q62.8 336.6481 62.08125 337.44498Q61.3625 338.22623 60.315624 338.22623Q59.26875 338.22623 58.58125 337.44498Q57.89375 336.66373 57.89375 335.11685ZM60.346874 333.13248Q59.815624 333.13248 59.45625 333.5856Q59.1125 334.03873 59.1125 335.25748Q59.1125 336.35123 59.45625 336.80435Q59.815624 337.25748 60.33125 337.25748Q60.878124 337.25748 61.221874 336.80435Q61.565624 336.35123 61.565624 335.1481Q61.565624 334.03873 61.20625 333.5856Q60.8625 333.13248 60.346874 333.13248Z" fill-rule="nonzero"/><path stroke="#757575" stroke-width="1.0" stroke-linecap="butt" d="M18.55 321.30435L145.23334 321.30435L221.64825 321.30435" fill-rule="nonzero"/><path fill="#9e9e9e" d="M223.64825 321.30435C223.64825 320.19977 222.75282 319.30435 221.64825 319.30435C220.54369 319.30435 219.64825 320.19977 219.64825 321.30435C219.64825 322.4089 220.54369 323.30435 221.64825 323.30435C222.75282 323.30435 223.64825 322.4089 223.64825 321.30435" fill-rule="nonzero"/><path fill="#efefef" d="M551.6375 69.916664L551.6375 58.46354L553.91876 58.46354L556.6375 66.572914Q557.0125 67.697914 557.1844 68.260414Q557.3719 67.635414 557.79376 66.43229L560.52814 58.46354L562.575 58.46354L562.575 69.916664L561.10626 69.916664L561.10626 60.322914L557.77814 69.916664L556.41876 69.916664L553.10626 60.166664L553.10626 69.916664L551.6375 69.916664ZM569.91876 68.885414Q569.1375 69.55729 568.41876 69.83854Q567.7 70.104164 566.8719 70.104164Q565.4969 70.104164 564.7625 69.43229Q564.02814 68.760414 564.02814 67.729164Q564.02814 67.11979 564.3094 66.61979Q564.59064 66.104164 565.02814 65.80729Q565.48126 65.49479 566.04376 65.33854Q566.46564 65.229164 567.29376 65.135414Q568.9969 64.93229 569.8094 64.65104Q569.8094 64.354164 569.8094 64.27604Q569.8094 63.416664 569.41876 63.072914Q568.8719 62.58854 567.8094 62.58854Q566.825 62.58854 566.34064 62.947914Q565.8719 63.291664 565.65314 64.166664L564.27814 63.979164Q564.46564 63.104164 564.8875 62.55729Q565.325 62.010414 566.1375 61.729164Q566.95 61.43229 568.0125 61.43229Q569.075 61.43229 569.73126 61.68229Q570.40314 61.93229 570.71564 62.30729Q571.02814 62.68229 571.15314 63.260414Q571.23126 63.61979 571.23126 64.55729L571.23126 66.43229Q571.23126 68.40104 571.3094 68.916664Q571.40314 69.43229 571.66876 69.916664L570.2 69.916664Q569.98126 69.479164 569.91876 68.885414ZM569.8094 65.74479Q569.04376 66.05729 567.5125 66.27604Q566.6375 66.40104 566.27814 66.55729Q565.91876 66.71354 565.71564 67.02604Q565.52814 67.322914 565.52814 67.68229Q565.52814 68.24479 565.95 68.61979Q566.3875 68.99479 567.2 68.99479Q568.0125 68.99479 568.6375 68.65104Q569.27814 68.291664 569.575 67.666664Q569.8094 67.197914 569.8094 66.260414L569.8094 65.74479ZM573.5125 73.104164L573.5125 61.61979L574.79376 61.61979L574.79376 62.697914Q575.2469 62.05729 575.8094 61.74479Q576.3875 61.43229 577.2 61.43229Q578.2625 61.43229 579.075 61.979164Q579.8875 62.52604 580.29376 63.52604Q580.71564 64.510414 580.71564 65.697914Q580.71564 66.979164 580.2469 67.99479Q579.79376 69.010414 578.91876 69.55729Q578.0594 70.104164 577.09064 70.104164Q576.3875 70.104164 575.825 69.80729Q575.27814 69.510414 574.91876 69.05729L574.91876 73.104164L573.5125 73.104164ZM574.77814 65.80729Q574.77814 67.416664 575.41876 68.18229Q576.075 68.947914 576.9969 68.947914Q577.9344 68.947914 578.60626 68.15104Q579.27814 67.354164 579.27814 65.697914Q579.27814 64.104164 578.6219 63.322914Q577.96564 62.52604 577.0594 62.52604Q576.16876 62.52604 575.46564 63.36979Q574.77814 64.21354 574.77814 65.80729Z" fill-rule="nonzero"/><path fill="#9e9e9e" d="M546.1219 86.260414Q546.1219 84.229164 546.52814 82.99479Q546.95 81.760414 547.77814 81.08854Q548.60626 80.416664 549.85626 80.416664Q550.77814 80.416664 551.46564 80.791664Q552.16876 81.15104 552.6219 81.854164Q553.075 82.55729 553.325 83.55729Q553.59064 84.55729 553.59064 86.260414Q553.59064 88.27604 553.16876 89.52604Q552.7625 90.760414 551.9344 91.447914Q551.10626 92.11979 549.85626 92.11979Q548.2 92.11979 547.2469 90.916664Q546.1219 89.49479 546.1219 86.260414ZM547.5594 86.260414Q547.5594 89.08854 548.21564 90.02604Q548.8875 90.947914 549.85626 90.947914Q550.825 90.947914 551.48126 90.010414Q552.1375 89.072914 552.1375 86.260414Q552.1375 83.43229 551.48126 82.510414Q550.825 81.572914 549.84064 81.572914Q548.8719 81.572914 548.29376 82.40104Q547.5594 83.447914 547.5594 86.260414ZM555.90314 91.916664L555.90314 90.30729L557.5125 90.30729L557.5125 91.916664L555.90314 91.916664ZM559.21564 81.96354L559.21564 80.604164L566.6219 80.604164L566.6219 81.697914Q565.52814 82.86979 564.45 84.80729Q563.3875 86.729164 562.79376 88.760414Q562.3719 90.197914 562.2625 91.916664L560.8094 91.916664Q560.84064 90.55729 561.34064 88.65104Q561.85626 86.729164 562.79376 84.96354Q563.7469 83.18229 564.825 81.96354L559.21564 81.96354ZM568.3875 83.21354Q568.3875 81.979164 568.9969 81.11979Q569.6219 80.260414 570.79376 80.260414Q571.8719 80.260414 572.575 81.041664Q573.27814 81.80729 573.27814 83.291664Q573.27814 84.74479 572.5594 85.541664Q571.85626 86.322914 570.8094 86.322914Q569.7625 86.322914 569.075 85.55729Q568.3875 84.77604 568.3875 83.21354ZM570.825 81.229164Q570.3094 81.229164 569.95 81.68229Q569.60626 82.135414 569.60626 83.354164Q569.60626 84.447914 569.95 84.90104Q570.3094 85.354164 570.825 85.354164Q571.35626 85.354164 571.7 84.90104Q572.0594 84.447914 572.0594 83.24479Q572.0594 82.135414 571.7 81.68229Q571.35626 81.229164 570.825 81.229164ZM570.84064 92.33854L577.10626 80.260414L578.2469 80.260414L571.9969 92.33854L570.84064 92.33854ZM575.79376 89.229164Q575.79376 87.99479 576.40314 87.135414Q577.02814 86.27604 578.2 86.27604Q579.27814 86.27604 579.98126 87.05729Q580.7 87.822914 580.7 89.30729Q580.7 90.760414 579.98126 91.55729Q579.2625 92.33854 578.21564 92.33854Q577.16876 92.33854 576.48126 91.55729Q575.79376 90.77604 575.79376 89.229164ZM578.2469 87.24479Q577.71564 87.24479 577.35626 87.697914Q577.0125 88.15104 577.0125 89.36979Q577.0125 90.46354 577.35626 90.916664Q577.71564 91.36979 578.23126 91.36979Q578.77814 91.36979 579.1219 90.916664Q579.46564 90.46354 579.46564 89.260414Q579.46564 88.15104 579.10626 87.697914Q578.7625 87.24479 578.2469 87.24479Z" fill-rule="nonzero"/><path stroke="#757575" stroke-width="1.0" stroke-linecap="butt" d="M581.45 75.416664L454.76666 75.416664L303.19394 62.391094" fill-rule="nonzero"/><path fill="#9e9e9e" d="M305.19394 62.391094C305.19394 61.286526 304.29852 60.391094 303.19394 60.391094C302.0894 60.391094 301.19394 61.286526 301.19394 62.391094C301.19394 63.495667 302.0894 64.3911 303.19394 64.3911C304.29852 64.3911 305.19394 63.495667 305.19394 62.391094" fill-rule="nonzero"/><path fill="#efefef" d="M498.6844 110.916664L498.6844 99.46354L503.0125 99.46354Q504.15314 99.46354 504.7469 99.572914Q505.59064 99.71354 506.15314 100.104164Q506.73126 100.49479 507.075 101.21354Q507.4344 101.916664 507.4344 102.77604Q507.4344 104.229164 506.4969 105.24479Q505.575 106.260414 503.1375 106.260414L500.2 106.260414L500.2 110.916664L498.6844 110.916664ZM500.2 104.90104L503.16876 104.90104Q504.6375 104.90104 505.2469 104.354164Q505.8719 103.80729 505.8719 102.822914Q505.8719 102.104164 505.4969 101.58854Q505.1375 101.072914 504.54376 100.916664Q504.16876 100.80729 503.1375 100.80729L500.2 100.80729L500.2 104.90104ZM515.1844 108.24479L516.6375 108.416664Q516.29376 109.697914 515.35626 110.40104Q514.4344 111.104164 512.9969 111.104164Q511.16876 111.104164 510.10626 109.979164Q509.04376 108.854164 509.04376 106.83854Q509.04376 104.74479 510.1219 103.58854Q511.2 102.43229 512.91876 102.43229Q514.575 102.43229 515.6219 103.572914Q516.6844 104.697914 516.6844 106.74479Q516.6844 106.86979 516.6844 107.11979L510.4969 107.11979Q510.575 108.49479 511.2625 109.229164Q511.96564 109.947914 512.9969 109.947914Q513.77814 109.947914 514.325 109.541664Q514.8719 109.135414 515.1844 108.24479ZM510.575 105.96354L515.2 105.96354Q515.10626 104.916664 514.66876 104.40104Q513.9969 103.58854 512.9344 103.58854Q511.96564 103.58854 511.29376 104.24479Q510.6375 104.885414 510.575 105.96354ZM518.4969 110.916664L518.4969 102.61979L519.7625 102.61979L519.7625 103.86979Q520.2469 102.99479 520.65314 102.71354Q521.0594 102.43229 521.5594 102.43229Q522.2625 102.43229 522.9969 102.885414L522.5125 104.18229Q521.9969 103.885414 521.48126 103.885414Q521.02814 103.885414 520.65314 104.166664Q520.29376 104.43229 520.1375 104.93229Q519.90314 105.68229 519.90314 106.572914L519.90314 110.916664L518.4969 110.916664ZM522.95 108.43229L524.34064 108.21354Q524.45 109.05729 524.98126 109.510414Q525.52814 109.947914 526.48126 109.947914Q527.45 109.947914 527.91876 109.55729Q528.3875 109.15104 528.3875 108.61979Q528.3875 108.15104 527.98126 107.86979Q527.6844 107.68229 526.54376 107.40104Q524.9969 107.010414 524.3875 106.729164Q523.79376 106.43229 523.48126 105.93229Q523.1844 105.43229 523.1844 104.822914Q523.1844 104.260414 523.4344 103.791664Q523.6844 103.322914 524.1219 103.010414Q524.45 102.760414 525.0125 102.604164Q525.59064 102.43229 526.23126 102.43229Q527.21564 102.43229 527.95 102.71354Q528.6844 102.99479 529.02814 103.479164Q529.3875 103.947914 529.52814 104.760414L528.15314 104.947914Q528.0594 104.30729 527.60626 103.947914Q527.15314 103.58854 526.34064 103.58854Q525.3719 103.58854 524.95 103.916664Q524.54376 104.229164 524.54376 104.65104Q524.54376 104.93229 524.71564 105.15104Q524.8875 105.36979 525.2469 105.52604Q525.46564 105.604164 526.4969 105.885414Q527.98126 106.27604 528.575 106.541664Q529.16876 106.791664 529.4969 107.27604Q529.84064 107.760414 529.84064 108.479164Q529.84064 109.18229 529.41876 109.80729Q529.0125 110.416664 528.23126 110.760414Q527.46564 111.104164 526.4969 111.104164Q524.8719 111.104164 524.02814 110.43229Q523.1844 109.760414 522.95 108.43229ZM531.5125 114.104164L531.5125 102.61979L532.79376 102.61979L532.79376 103.697914Q533.2469 103.05729 533.8094 102.74479Q534.3875 102.43229 535.2 102.43229Q536.2625 102.43229 537.075 102.979164Q537.8875 103.52604 538.29376 104.52604Q538.71564 105.510414 538.71564 106.697914Q538.71564 107.979164 538.2469 108.99479Q537.79376 110.010414 536.91876 110.55729Q536.0594 111.104164 535.09064 111.104164Q534.3875 111.104164 533.825 110.80729Q533.27814 110.510414 532.91876 110.05729L532.91876 114.104164L531.5125 114.104164ZM532.77814 106.80729Q532.77814 108.416664 533.41876 109.18229Q534.075 109.947914 534.9969 109.947914Q535.9344 109.947914 536.60626 109.15104Q537.27814 108.354164 537.27814 106.697914Q537.27814 105.104164 536.6219 104.322914Q535.96564 103.52604 535.0594 103.52604Q534.16876 103.52604 533.46564 104.36979Q532.77814 105.21354 532.77814 106.80729ZM546.1844 108.24479L547.6375 108.416664Q547.29376 109.697914 546.35626 110.40104Q545.4344 111.104164 543.9969 111.104164Q542.16876 111.104164 541.10626 109.979164Q540.04376 108.854164 540.04376 106.83854Q540.04376 104.74479 541.1219 103.58854Q542.2 102.43229 543.91876 102.43229Q545.575 102.43229 546.6219 103.572914Q547.6844 104.697914 547.6844 106.74479Q547.6844 106.86979 547.6844 107.11979L541.4969 107.11979Q541.575 108.49479 542.2625 109.229164Q542.96564 109.947914 543.9969 109.947914Q544.77814 109.947914 545.325 109.541664Q545.8719 109.135414 546.1844 108.24479ZM541.575 105.96354L546.2 105.96354Q546.10626 104.916664 545.66876 104.40104Q544.9969 103.58854 543.9344 103.58854Q542.96564 103.58854 542.29376 104.24479Q541.6375 104.885414 541.575 105.96354ZM554.91876 107.86979L556.3094 108.05729Q556.075 109.479164 555.1375 110.291664Q554.21564 111.104164 552.85626 111.104164Q551.15314 111.104164 550.10626 109.99479Q549.075 108.86979 549.075 106.791664Q549.075 105.447914 549.5125 104.447914Q549.96564 103.43229 550.8719 102.93229Q551.79376 102.43229 552.85626 102.43229Q554.21564 102.43229 555.075 103.11979Q555.9344 103.791664 556.16876 105.05729L554.8094 105.260414Q554.60626 104.43229 554.10626 104.010414Q553.6219 103.58854 552.91876 103.58854Q551.85626 103.58854 551.1844 104.354164Q550.52814 105.104164 550.52814 106.760414Q550.52814 108.43229 551.16876 109.197914Q551.8094 109.947914 552.84064 109.947914Q553.66876 109.947914 554.21564 109.447914Q554.77814 108.93229 554.91876 107.86979ZM560.575 109.65104L560.77814 110.90104Q560.1844 111.02604 559.71564 111.02604Q558.95 111.02604 558.52814 110.791664Q558.10626 110.541664 557.9344 110.15104Q557.7625 109.74479 557.7625 108.479164L557.7625 103.71354L556.73126 103.71354L556.73126 102.61979L557.7625 102.61979L557.7625 100.55729L559.16876 99.71354L559.16876 102.61979L560.575 102.61979L560.575 103.71354L559.16876 103.71354L559.16876 108.55729Q559.16876 109.166664 559.23126 109.33854Q559.3094 109.510414 559.48126 109.61979Q559.65314 109.71354 559.96564 109.71354Q560.2 109.71354 560.575 109.65104ZM561.5125 101.072914L561.5125 99.46354L562.91876 99.46354L562.91876 101.072914L561.5125 101.072914ZM561.5125 110.916664L561.5125 102.61979L562.91876 102.61979L562.91876 110.916664L561.5125 110.916664ZM567.8094 110.916664L564.65314 102.61979L566.1375 102.61979L567.91876 107.58854Q568.21564 108.385414 568.45 109.260414Q568.6375 108.604164 568.98126 107.68229L570.825 102.61979L572.2625 102.61979L569.1219 110.916664L567.8094 110.916664ZM579.1844 108.24479L580.6375 108.416664Q580.29376 109.697914 579.35626 110.40104Q578.4344 111.104164 576.9969 111.104164Q575.16876 111.104164 574.10626 109.979164Q573.04376 108.854164 573.04376 106.83854Q573.04376 104.74479 574.1219 103.58854Q575.2 102.43229 576.91876 102.43229Q578.575 102.43229 579.6219 103.572914Q580.6844 104.697914 580.6844 106.74479Q580.6844 106.86979 580.6844 107.11979L574.4969 107.11979Q574.575 108.49479 575.2625 109.229164Q575.96564 109.947914 576.9969 109.947914Q577.77814 109.947914 578.325 109.541664Q578.8719 109.135414 579.1844 108.24479ZM574.575 105.96354L579.2 105.96354Q579.10626 104.916664 578.66876 104.40104Q577.9969 103.58854 576.9344 103.58854Q575.96564 103.58854 575.29376 104.24479Q574.6375 104.885414 574.575 105.96354Z" fill-rule="nonzero"/><path fill="#9e9e9e" d="M542.41876 132.91667L541.0125 132.91667L541.0125 123.94792Q540.4969 124.4323 539.66876 124.91667Q538.85626 125.40105 538.2 125.65105L538.2 124.29167Q539.3719 123.72917 540.2469 122.94792Q541.1375 122.15105 541.5125 121.41667L542.41876 121.41667L542.41876 132.91667ZM546.1219 127.26042Q546.1219 125.22917 546.52814 123.9948Q546.95 122.76042 547.77814 122.08855Q548.60626 121.41667 549.85626 121.41667Q550.77814 121.41667 551.46564 121.79167Q552.16876 122.15105 552.6219 122.85417Q553.075 123.5573 553.325 124.5573Q553.59064 125.5573 553.59064 127.26042Q553.59064 129.27605 553.16876 130.52605Q552.7625 131.76042 551.9344 132.44792Q551.10626 133.1198 549.85626 133.1198Q548.2 133.1198 547.2469 131.91667Q546.1219 130.4948 546.1219 127.26042ZM547.5594 127.26042Q547.5594 130.08855 548.21564 131.02605Q548.8875 131.94792 549.85626 131.94792Q550.825 131.94792 551.48126 131.01042Q552.1375 130.07292 552.1375 127.26042Q552.1375 124.4323 551.48126 123.51042Q550.825 122.57292 549.84064 122.57292Q548.8719 122.57292 548.29376 123.40105Q547.5594 124.44792 547.5594 127.26042ZM555.90314 132.91667L555.90314 131.3073L557.5125 131.3073L557.5125 132.91667L555.90314 132.91667ZM561.27814 126.69792Q560.40314 126.38542 559.98126 125.79167Q559.5594 125.19792 559.5594 124.3698Q559.5594 123.1198 560.45 122.27605Q561.35626 121.41667 562.85626 121.41667Q564.35626 121.41667 565.2625 122.29167Q566.1844 123.15105 566.1844 124.40105Q566.1844 125.19792 565.7625 125.79167Q565.34064 126.38542 564.4969 126.69792Q565.54376 127.04167 566.09064 127.8073Q566.65314 128.57292 566.65314 129.63542Q566.65314 131.10417 565.60626 132.1198Q564.575 133.1198 562.8719 133.1198Q561.1844 133.1198 560.1375 132.1198Q559.10626 131.10417 559.10626 129.60417Q559.10626 128.47917 559.66876 127.72917Q560.23126 126.97917 561.27814 126.69792ZM560.9969 124.32292Q560.9969 125.13542 561.5125 125.65105Q562.04376 126.16667 562.8875 126.16667Q563.7 126.16667 564.21564 125.65105Q564.73126 125.13542 564.73126 124.40105Q564.73126 123.6198 564.2 123.10417Q563.66876 122.57292 562.8719 122.57292Q562.0594 122.57292 561.52814 123.08855Q560.9969 123.60417 560.9969 124.32292ZM560.54376 129.60417Q560.54376 130.21355 560.825 130.77605Q561.1219 131.33855 561.6844 131.65105Q562.2469 131.94792 562.8875 131.94792Q563.90314 131.94792 564.5594 131.3073Q565.21564 130.65105 565.21564 129.65105Q565.21564 128.63542 564.52814 127.97917Q563.85626 127.3073 562.84064 127.3073Q561.85626 127.3073 561.2 127.96355Q560.54376 128.6198 560.54376 129.60417ZM568.3875 124.21355Q568.3875 122.97917 568.9969 122.1198Q569.6219 121.26042 570.79376 121.26042Q571.8719 121.26042 572.575 122.04167Q573.27814 122.8073 573.27814 124.29167Q573.27814 125.7448 572.5594 126.54167Q571.85626 127.32292 570.8094 127.32292Q569.7625 127.32292 569.075 126.5573Q568.3875 125.77605 568.3875 124.21355ZM570.825 122.22917Q570.3094 122.22917 569.95 122.6823Q569.60626 123.13542 569.60626 124.35417Q569.60626 125.44792 569.95 125.90105Q570.3094 126.35417 570.825 126.35417Q571.35626 126.35417 571.7 125.90105Q572.0594 125.44792 572.0594 124.2448Q572.0594 123.13542 571.7 122.6823Q571.35626 122.22917 570.825 122.22917ZM570.84064 133.33855L577.10626 121.26042L578.2469 121.26042L571.9969 133.33855L570.84064 133.33855ZM575.79376 130.22917Q575.79376 128.9948 576.40314 128.13542Q577.02814 127.27605 578.2 127.27605Q579.27814 127.27605 579.98126 128.0573Q580.7 128.82292 580.7 130.3073Q580.7 131.76042 579.98126 132.5573Q579.2625 133.33855 578.21564 133.33855Q577.16876 133.33855 576.48126 132.5573Q575.79376 131.77605 575.79376 130.22917ZM578.2469 128.2448Q577.71564 128.2448 577.35626 128.69792Q577.0125 129.15105 577.0125 130.3698Q577.0125 131.46355 577.35626 131.91667Q577.71564 132.3698 578.23126 132.3698Q578.77814 132.3698 579.1219 131.91667Q579.46564 131.46355 579.46564 130.26042Q579.46564 129.15105 579.10626 128.69792Q578.7625 128.2448 578.2469 128.2448Z" fill-rule="nonzero"/><path stroke="#757575" stroke-width="1.0" stroke-linecap="butt" d="M581.45 116.416664L454.76666 116.416664L352.97543 72.65929" fill-rule="nonzero"/><path fill="#9e9e9e" d="M354.97543 72.65929C354.97543 71.55472 354.08 70.65929 352.97543 70.65929C351.87085 70.65929 350.97543 71.55472 350.97543 72.65929C350.97543 73.763855 351.87085 74.65929 352.97543 74.65929C354.08 74.65929 354.97543 73.763855 354.97543 72.65929" fill-rule="nonzero"/><path fill="#efefef" d="M531.6844 196.58626L531.6844 185.13313L536.0125 185.13313Q537.15314 185.13313 537.7469 185.24251Q538.59064 185.38313 539.15314 185.77376Q539.73126 186.16438 540.075 186.88313Q540.4344 187.58626 540.4344 188.44563Q540.4344 189.89876 539.4969 190.91438Q538.575 191.93001 536.1375 191.93001L533.2 191.93001L533.2 196.58626L531.6844 196.58626ZM533.2 190.57063L536.16876 190.57063Q537.6375 190.57063 538.2469 190.02376Q538.8719 189.47688 538.8719 188.49251Q538.8719 187.77376 538.4969 187.25813Q538.1375 186.74251 537.54376 186.58626Q537.16876 186.47688 536.1375 186.47688L533.2 186.47688L533.2 190.57063ZM548.1844 193.91438L549.6375 194.08626Q549.29376 195.36751 548.35626 196.07063Q547.4344 196.77376 545.9969 196.77376Q544.16876 196.77376 543.10626 195.64876Q542.04376 194.52376 542.04376 192.50813Q542.04376 190.41438 543.1219 189.25813Q544.2 188.10188 545.91876 188.10188Q547.575 188.10188 548.6219 189.24251Q549.6844 190.36751 549.6844 192.41438Q549.6844 192.53938 549.6844 192.78938L543.4969 192.78938Q543.575 194.16438 544.2625 194.89876Q544.96564 195.61751 545.9969 195.61751Q546.77814 195.61751 547.325 195.21126Q547.8719 194.80501 548.1844 193.91438ZM543.575 191.63313L548.2 191.63313Q548.10626 190.58626 547.66876 190.07063Q546.9969 189.25813 545.9344 189.25813Q544.96564 189.25813 544.29376 189.91438Q543.6375 190.55501 543.575 191.63313ZM550.98126 192.43001Q550.98126 190.13313 552.2625 189.02376Q553.34064 188.10188 554.8719 188.10188Q556.59064 188.10188 557.66876 189.22688Q558.7625 190.33626 558.7625 192.32063Q558.7625 193.91438 558.27814 194.83626Q557.79376 195.75813 556.8719 196.27376Q555.96564 196.77376 554.8719 196.77376Q553.1375 196.77376 552.0594 195.66438Q550.98126 194.53938 550.98126 192.43001ZM552.4344 192.43001Q552.4344 194.02376 553.1219 194.82063Q553.825 195.61751 554.8719 195.61751Q555.91876 195.61751 556.60626 194.82063Q557.3094 194.02376 557.3094 192.38313Q557.3094 190.85188 556.60626 190.05501Q555.91876 189.25813 554.8719 189.25813Q553.825 189.25813 553.1219 190.05501Q552.4344 190.83626 552.4344 192.43001ZM560.5125 199.77376L560.5125 188.28938L561.79376 188.28938L561.79376 189.36751Q562.2469 188.72688 562.8094 188.41438Q563.3875 188.10188 564.2 188.10188Q565.2625 188.10188 566.075 188.64876Q566.8875 189.19563 567.29376 190.19563Q567.71564 191.18001 567.71564 192.36751Q567.71564 193.64876 567.2469 194.66438Q566.79376 195.68001 565.91876 196.22688Q565.0594 196.77376 564.09064 196.77376Q563.3875 196.77376 562.825 196.47688Q562.27814 196.18001 561.91876 195.72688L561.91876 199.77376L560.5125 199.77376ZM561.77814 192.47688Q561.77814 194.08626 562.41876 194.85188Q563.075 195.61751 563.9969 195.61751Q564.9344 195.61751 565.60626 194.82063Q566.27814 194.02376 566.27814 192.36751Q566.27814 190.77376 565.6219 189.99251Q564.96564 189.19563 564.0594 189.19563Q563.16876 189.19563 562.46564 190.03938Q561.77814 190.88313 561.77814 192.47688ZM569.48126 196.58626L569.48126 185.13313L570.8875 185.13313L570.8875 196.58626L569.48126 196.58626ZM579.1844 193.91438L580.6375 194.08626Q580.29376 195.36751 579.35626 196.07063Q578.4344 196.77376 576.9969 196.77376Q575.16876 196.77376 574.10626 195.64876Q573.04376 194.52376 573.04376 192.50813Q573.04376 190.41438 574.1219 189.25813Q575.2 188.10188 576.91876 188.10188Q578.575 188.10188 579.6219 189.24251Q580.6844 190.36751 580.6844 192.41438Q580.6844 192.53938 580.6844 192.78938L574.4969 192.78938Q574.575 194.16438 575.2625 194.89876Q575.96564 195.61751 576.9969 195.61751Q577.77814 195.61751 578.325 195.21126Q578.8719 194.80501 579.1844 193.91438ZM574.575 191.63313L579.2 191.63313Q579.10626 190.58626 578.66876 190.07063Q577.9969 189.25813 576.9344 189.25813Q575.96564 189.25813 575.29376 189.91438Q574.6375 190.55501 574.575 191.63313Z" fill-rule="nonzero"/><path fill="#9e9e9e" d="M544.5125 217.22688L544.5125 218.58626L536.9344 218.58626Q536.91876 218.07063 537.10626 217.60188Q537.3875 216.83626 538.02814 216.08626Q538.66876 215.33626 539.8719 214.35188Q541.73126 212.82063 542.3875 211.93001Q543.04376 211.02376 543.04376 210.22688Q543.04376 209.39876 542.45 208.82063Q541.85626 208.24251 540.8875 208.24251Q539.8719 208.24251 539.2625 208.85188Q538.65314 209.46126 538.65314 210.53938L537.2 210.39876Q537.35626 208.77376 538.325 207.93001Q539.29376 207.08626 540.91876 207.08626Q542.575 207.08626 543.52814 208.00813Q544.4969 208.91438 544.4969 210.25813Q544.4969 210.94563 544.21564 211.61751Q543.9344 212.27376 543.27814 213.00813Q542.6219 213.74251 541.10626 215.02376Q539.84064 216.08626 539.48126 216.47688Q539.1219 216.85188 538.8875 217.22688L544.5125 217.22688ZM553.41876 209.93001L552.0125 210.03938Q551.825 209.21126 551.48126 208.83626Q550.91876 208.24251 550.075 208.24251Q549.40314 208.24251 548.90314 208.61751Q548.23126 209.10188 547.84064 210.03938Q547.46564 210.96126 547.45 212.68001Q547.96564 211.89876 548.7 211.52376Q549.4344 211.14876 550.23126 211.14876Q551.6375 211.14876 552.6219 212.19563Q553.6219 213.22688 553.6219 214.86751Q553.6219 215.94563 553.15314 216.86751Q552.6844 217.78938 551.8719 218.28938Q551.0594 218.78938 550.02814 218.78938Q548.27814 218.78938 547.16876 217.49251Q546.0594 216.19563 546.0594 213.22688Q546.0594 209.89876 547.27814 208.39876Q548.35626 207.08626 550.16876 207.08626Q551.5125 207.08626 552.3719 207.85188Q553.2469 208.60188 553.41876 209.93001ZM547.66876 214.86751Q547.66876 215.60188 547.98126 216.27376Q548.29376 216.93001 548.84064 217.27376Q549.40314 217.61751 550.0125 217.61751Q550.90314 217.61751 551.54376 216.89876Q552.1844 216.18001 552.1844 214.94563Q552.1844 213.75813 551.54376 213.08626Q550.91876 212.39876 549.95 212.39876Q548.9969 212.39876 548.325 213.08626Q547.66876 213.75813 547.66876 214.86751ZM555.90314 218.58626L555.90314 216.97688L557.5125 216.97688L557.5125 218.58626L555.90314 218.58626ZM566.41876 209.93001L565.0125 210.03938Q564.825 209.21126 564.48126 208.83626Q563.91876 208.24251 563.075 208.24251Q562.40314 208.24251 561.90314 208.61751Q561.23126 209.10188 560.84064 210.03938Q560.46564 210.96126 560.45 212.68001Q560.96564 211.89876 561.7 211.52376Q562.4344 211.14876 563.23126 211.14876Q564.6375 211.14876 565.6219 212.19563Q566.6219 213.22688 566.6219 214.86751Q566.6219 215.94563 566.15314 216.86751Q565.6844 217.78938 564.8719 218.28938Q564.0594 218.78938 563.02814 218.78938Q561.27814 218.78938 560.16876 217.49251Q559.0594 216.19563 559.0594 213.22688Q559.0594 209.89876 560.27814 208.39876Q561.35626 207.08626 563.16876 207.08626Q564.5125 207.08626 565.3719 207.85188Q566.2469 208.60188 566.41876 209.93001ZM560.66876 214.86751Q560.66876 215.60188 560.98126 216.27376Q561.29376 216.93001 561.84064 217.27376Q562.40314 217.61751 563.0125 217.61751Q563.90314 217.61751 564.54376 216.89876Q565.1844 216.18001 565.1844 214.94563Q565.1844 213.75813 564.54376 213.08626Q563.91876 212.39876 562.95 212.39876Q561.9969 212.39876 561.325 213.08626Q560.66876 213.75813 560.66876 214.86751ZM568.3875 209.88313Q568.3875 208.64876 568.9969 207.78938Q569.6219 206.93001 570.79376 206.93001Q571.8719 206.93001 572.575 207.71126Q573.27814 208.47688 573.27814 209.96126Q573.27814 211.41438 572.5594 212.21126Q571.85626 212.99251 570.8094 212.99251Q569.7625 212.99251 569.075 212.22688Q568.3875 211.44563 568.3875 209.88313ZM570.825 207.89876Q570.3094 207.89876 569.95 208.35188Q569.60626 208.80501 569.60626 210.02376Q569.60626 211.11751 569.95 211.57063Q570.3094 212.02376 570.825 212.02376Q571.35626 212.02376 571.7 211.57063Q572.0594 211.11751 572.0594 209.91438Q572.0594 208.80501 571.7 208.35188Q571.35626 207.89876 570.825 207.89876ZM570.84064 219.00813L577.10626 206.93001L578.2469 206.93001L571.9969 219.00813L570.84064 219.00813ZM575.79376 215.89876Q575.79376 214.66438 576.40314 213.80501Q577.02814 212.94563 578.2 212.94563Q579.27814 212.94563 579.98126 213.72688Q580.7 214.49251 580.7 215.97688Q580.7 217.43001 579.98126 218.22688Q579.2625 219.00813 578.21564 219.00813Q577.16876 219.00813 576.48126 218.22688Q575.79376 217.44563 575.79376 215.89876ZM578.2469 213.91438Q577.71564 213.91438 577.35626 214.36751Q577.0125 214.82063 577.0125 216.03938Q577.0125 217.13313 577.35626 217.58626Q577.71564 218.03938 578.23126 218.03938Q578.77814 218.03938 579.1219 217.58626Q579.46564 217.13313 579.46564 215.93001Q579.46564 214.82063 579.10626 214.36751Q578.7625 213.91438 578.2469 213.91438Z" fill-rule="nonzero"/><path stroke="#757575" stroke-width="1.0" stroke-linecap="butt" d="M581.45 202.08626L454.76666 202.08626L441.3193 202.08626" fill-rule="nonzero"/><path fill="#9e9e9e" d="M443.3193 202.08626C443.3193 200.98169 442.4239 200.08626 441.3193 200.08626C440.21475 200.08626 439.3193 200.98169 439.3193 202.08626C439.3193 203.19083 440.21475 204.08626 441.3193 204.08626C442.4239 204.08626 443.3193 203.19083 443.3193 202.08626" fill-rule="nonzero"/><path fill="#efefef" d="M523.41876 326.45L527.825 314.9969L529.46564 314.9969L534.15314 326.45L532.41876 326.45L531.09064 322.98126L526.29376 322.98126L525.04376 326.45L523.41876 326.45ZM526.73126 321.7469L530.6219 321.7469L529.41876 318.575Q528.8719 317.1219 528.60626 316.2Q528.3875 317.29376 527.9969 318.3875L526.73126 321.7469ZM535.5125 326.45L535.5125 318.15314L536.77814 318.15314L536.77814 319.325Q537.6844 317.96564 539.41876 317.96564Q540.16876 317.96564 540.79376 318.23126Q541.41876 318.4969 541.73126 318.9344Q542.04376 319.3719 542.16876 319.98126Q542.2469 320.3719 542.2469 321.34064L542.2469 326.45L540.84064 326.45L540.84064 321.40314Q540.84064 320.54376 540.66876 320.1219Q540.5125 319.6844 540.09064 319.4344Q539.6844 319.1844 539.1219 319.1844Q538.21564 319.1844 537.5594 319.7625Q536.91876 320.325 536.91876 321.91876L536.91876 326.45L535.5125 326.45ZM544.5125 316.60626L544.5125 314.9969L545.91876 314.9969L545.91876 316.60626L544.5125 316.60626ZM544.5125 326.45L544.5125 318.15314L545.91876 318.15314L545.91876 326.45L544.5125 326.45ZM548.5125 326.45L548.5125 318.15314L549.7625 318.15314L549.7625 319.3094Q550.15314 318.7 550.79376 318.34064Q551.45 317.96564 552.27814 317.96564Q553.2 317.96564 553.79376 318.35626Q554.3875 318.73126 554.6219 319.41876Q555.60626 317.96564 557.1844 317.96564Q558.41876 317.96564 559.075 318.65314Q559.7469 319.325 559.7469 320.7469L559.7469 326.45L558.35626 326.45L558.35626 321.21564Q558.35626 320.3719 558.21564 320.0125Q558.075 319.6375 557.71564 319.41876Q557.35626 319.1844 556.8719 319.1844Q555.9969 319.1844 555.41876 319.7625Q554.84064 320.34064 554.84064 321.6219L554.84064 326.45L553.4344 326.45L553.4344 321.0594Q553.4344 320.1219 553.09064 319.65314Q552.7469 319.1844 551.96564 319.1844Q551.3719 319.1844 550.8719 319.4969Q550.3719 319.8094 550.1375 320.41876Q549.91876 321.0125 549.91876 322.1375L549.91876 326.45L548.5125 326.45ZM566.91876 325.41876Q566.1375 326.09064 565.41876 326.3719Q564.7 326.6375 563.8719 326.6375Q562.4969 326.6375 561.7625 325.96564Q561.02814 325.29376 561.02814 324.2625Q561.02814 323.65314 561.3094 323.15314Q561.59064 322.6375 562.02814 322.34064Q562.48126 322.02814 563.04376 321.8719Q563.46564 321.7625 564.29376 321.66876Q565.9969 321.46564 566.8094 321.1844Q566.8094 320.8875 566.8094 320.8094Q566.8094 319.95 566.41876 319.60626Q565.8719 319.1219 564.8094 319.1219Q563.825 319.1219 563.34064 319.48126Q562.8719 319.825 562.65314 320.7L561.27814 320.5125Q561.46564 319.6375 561.8875 319.09064Q562.325 318.54376 563.1375 318.2625Q563.95 317.96564 565.0125 317.96564Q566.075 317.96564 566.73126 318.21564Q567.40314 318.46564 567.71564 318.84064Q568.02814 319.21564 568.15314 319.79376Q568.23126 320.15314 568.23126 321.09064L568.23126 322.96564Q568.23126 324.9344 568.3094 325.45Q568.40314 325.96564 568.66876 326.45L567.2 326.45Q566.98126 326.0125 566.91876 325.41876ZM566.8094 322.27814Q566.04376 322.59064 564.5125 322.8094Q563.6375 322.9344 563.27814 323.09064Q562.91876 323.2469 562.71564 323.5594Q562.52814 323.85626 562.52814 324.21564Q562.52814 324.77814 562.95 325.15314Q563.3875 325.52814 564.2 325.52814Q565.0125 325.52814 565.6375 325.1844Q566.27814 324.825 566.575 324.2Q566.8094 323.73126 566.8094 322.79376L566.8094 322.27814ZM570.48126 326.45L570.48126 314.9969L571.8875 314.9969L571.8875 326.45L570.48126 326.45ZM573.95 323.96564L575.34064 323.7469Q575.45 324.59064 575.98126 325.04376Q576.52814 325.48126 577.48126 325.48126Q578.45 325.48126 578.91876 325.09064Q579.3875 324.6844 579.3875 324.15314Q579.3875 323.6844 578.98126 323.40314Q578.6844 323.21564 577.54376 322.9344Q575.9969 322.54376 575.3875 322.2625Q574.79376 321.96564 574.48126 321.46564Q574.1844 320.96564 574.1844 320.35626Q574.1844 319.79376 574.4344 319.325Q574.6844 318.85626 575.1219 318.54376Q575.45 318.29376 576.0125 318.1375Q576.59064 317.96564 577.23126 317.96564Q578.21564 317.96564 578.95 318.2469Q579.6844 318.52814 580.02814 319.0125Q580.3875 319.48126 580.52814 320.29376L579.15314 320.48126Q579.0594 319.84064 578.60626 319.48126Q578.15314 319.1219 577.34064 319.1219Q576.3719 319.1219 575.95 319.45Q575.54376 319.7625 575.54376 320.1844Q575.54376 320.46564 575.71564 320.6844Q575.8875 320.90314 576.2469 321.0594Q576.46564 321.1375 577.4969 321.41876Q578.98126 321.8094 579.575 322.075Q580.16876 322.325 580.4969 322.8094Q580.84064 323.29376 580.84064 324.0125Q580.84064 324.71564 580.41876 325.34064Q580.0125 325.95 579.23126 326.29376Q578.46564 326.6375 577.4969 326.6375Q575.8719 326.6375 575.02814 325.96564Q574.1844 325.29376 573.95 323.96564Z" fill-rule="nonzero"/><path fill="#9e9e9e" d="M542.41876 348.45L541.0125 348.45L541.0125 339.48126Q540.4969 339.96564 539.66876 340.45Q538.85626 340.9344 538.2 341.1844L538.2 339.825Q539.3719 339.2625 540.2469 338.48126Q541.1375 337.6844 541.5125 336.95L542.41876 336.95L542.41876 348.45ZM546.1219 342.79376Q546.1219 340.7625 546.52814 339.52814Q546.95 338.29376 547.77814 337.6219Q548.60626 336.95 549.85626 336.95Q550.77814 336.95 551.46564 337.325Q552.16876 337.6844 552.6219 338.3875Q553.075 339.09064 553.325 340.09064Q553.59064 341.09064 553.59064 342.79376Q553.59064 344.8094 553.16876 346.0594Q552.7625 347.29376 551.9344 347.98126Q551.10626 348.65314 549.85626 348.65314Q548.2 348.65314 547.2469 347.45Q546.1219 346.02814 546.1219 342.79376ZM547.5594 342.79376Q547.5594 345.6219 548.21564 346.5594Q548.8875 347.48126 549.85626 347.48126Q550.825 347.48126 551.48126 346.54376Q552.1375 345.60626 552.1375 342.79376Q552.1375 339.96564 551.48126 339.04376Q550.825 338.10626 549.84064 338.10626Q548.8719 338.10626 548.29376 338.9344Q547.5594 339.98126 547.5594 342.79376ZM555.90314 348.45L555.90314 346.84064L557.5125 346.84064L557.5125 348.45L555.90314 348.45ZM564.41876 348.45L563.0125 348.45L563.0125 339.48126Q562.4969 339.96564 561.66876 340.45Q560.85626 340.9344 560.2 341.1844L560.2 339.825Q561.3719 339.2625 562.2469 338.48126Q563.1375 337.6844 563.5125 336.95L564.41876 336.95L564.41876 348.45ZM568.3875 339.7469Q568.3875 338.5125 568.9969 337.65314Q569.6219 336.79376 570.79376 336.79376Q571.8719 336.79376 572.575 337.575Q573.27814 338.34064 573.27814 339.825Q573.27814 341.27814 572.5594 342.075Q571.85626 342.85626 570.8094 342.85626Q569.7625 342.85626 569.075 342.09064Q568.3875 341.3094 568.3875 339.7469ZM570.825 337.7625Q570.3094 337.7625 569.95 338.21564Q569.60626 338.66876 569.60626 339.8875Q569.60626 340.98126 569.95 341.4344Q570.3094 341.8875 570.825 341.8875Q571.35626 341.8875 571.7 341.4344Q572.0594 340.98126 572.0594 339.77814Q572.0594 338.66876 571.7 338.21564Q571.35626 337.7625 570.825 337.7625ZM570.84064 348.8719L577.10626 336.79376L578.2469 336.79376L571.9969 348.8719L570.84064 348.8719ZM575.79376 345.7625Q575.79376 344.52814 576.40314 343.66876Q577.02814 342.8094 578.2 342.8094Q579.27814 342.8094 579.98126 343.59064Q580.7 344.35626 580.7 345.84064Q580.7 347.29376 579.98126 348.09064Q579.2625 348.8719 578.21564 348.8719Q577.16876 348.8719 576.48126 348.09064Q575.79376 347.3094 575.79376 345.7625ZM578.2469 343.77814Q577.71564 343.77814 577.35626 344.23126Q577.0125 344.6844 577.0125 345.90314Q577.0125 346.9969 577.35626 347.45Q577.71564 347.90314 578.23126 347.90314Q578.77814 347.90314 579.1219 347.45Q579.46564 346.9969 579.46564 345.79376Q579.46564 344.6844 579.10626 344.23126Q578.7625 343.77814 578.2469 343.77814Z" fill-rule="nonzero"/><path stroke="#757575" stroke-width="1.0" stroke-linecap="butt" d="M581.45 331.95L454.76666 331.95L358.84195 332.17972" fill-rule="nonzero"/><path fill="#9e9e9e" d="M360.84195 332.17972C360.84195 331.07516 359.94653 330.17972 358.84195 330.17972C357.7374 330.17972 356.84195 331.07516 356.84195 332.17972C356.84195 333.2843 357.7374 334.17972 358.84195 334.17972C359.94653 334.17972 360.84195 333.2843 360.84195 332.17972" fill-rule="nonzero"/><path fill="#f3f3f3" d="M265.98438 37.55L265.98438 23.2375L268.84375 23.2375L272.21875 33.3625Q272.6875 34.784374 272.90625 35.4875Q273.15625 34.70625 273.67188 33.190624L277.09375 23.2375L279.64062 23.2375L279.64062 37.55L277.82812 37.55L277.82812 25.565624L273.65625 37.55L271.95312 37.55L267.8125 25.3625L267.8125 37.55L265.98438 37.55ZM289.92188 34.20625L291.73438 34.440624Q291.3125 36.01875 290.14062 36.909374Q288.98438 37.784374 287.17188 37.784374Q284.90625 37.784374 283.5625 36.39375Q282.23438 34.9875 282.23438 32.45625Q282.23438 29.83125 283.57812 28.39375Q284.92188 26.940624 287.07812 26.940624Q289.15625 26.940624 290.46875 28.3625Q291.79688 29.76875 291.79688 32.346874Q291.79688 32.503124 291.78125 32.815624L284.04688 32.815624Q284.14062 34.51875 285.01562 35.425Q285.89062 36.33125 287.1875 36.33125Q288.15625 36.33125 288.82812 35.83125Q289.51562 35.315624 289.92188 34.20625ZM284.14062 31.3625L289.9375 31.3625Q289.82812 30.065624 289.28125 29.409374Q288.4375 28.39375 287.09375 28.39375Q285.89062 28.39375 285.0625 29.20625Q284.23438 30.003124 284.14062 31.3625ZM300.54688 37.55L300.54688 36.2375Q299.5625 37.784374 297.64062 37.784374Q296.40625 37.784374 295.35938 37.096874Q294.32812 36.409374 293.75 35.190624Q293.1875 33.971874 293.1875 32.378124Q293.1875 30.815624 293.70312 29.55Q294.21875 28.284374 295.25 27.6125Q296.29688 26.940624 297.5625 26.940624Q298.5 26.940624 299.23438 27.346874Q299.96875 27.7375 300.4375 28.3625L300.4375 23.2375L302.17188 23.2375L302.17188 37.55L300.54688 37.55ZM294.98438 32.378124Q294.98438 34.3625 295.82812 35.346874Q296.67188 36.33125 297.8125 36.33125Q298.96875 36.33125 299.76562 35.39375Q300.57812 34.45625 300.57812 32.51875Q300.57812 30.39375 299.75 29.39375Q298.9375 28.39375 297.73438 28.39375Q296.5625 28.39375 295.76562 29.3625Q294.98438 30.315624 294.98438 32.378124ZM304.82812 25.253124L304.82812 23.2375L306.59375 23.2375L306.59375 25.253124L304.82812 25.253124ZM304.82812 37.55L304.82812 27.175L306.59375 27.175L306.59375 37.55L304.82812 37.55ZM315.60938 37.55L315.60938 36.01875Q314.40625 37.784374 312.32812 37.784374Q311.40625 37.784374 310.60938 37.440624Q309.8125 37.08125 309.42188 36.55Q309.04688 36.01875 308.89062 35.2375Q308.78125 34.721874 308.78125 33.596874L308.78125 27.175L310.53125 27.175L310.53125 32.925Q310.53125 34.3 310.64062 34.784374Q310.8125 35.471874 311.34375 35.878124Q311.89062 36.26875 312.67188 36.26875Q313.46875 36.26875 314.15625 35.8625Q314.85938 35.45625 315.14062 34.76875Q315.4375 34.065624 315.4375 32.7375L315.4375 27.175L317.1875 27.175L317.1875 37.55L315.60938 37.55ZM319.8125 37.55L319.8125 27.175L321.39062 27.175L321.39062 28.628124Q321.875 27.878124 322.6875 27.409374Q323.5 26.940624 324.53125 26.940624Q325.6875 26.940624 326.42188 27.425Q327.15625 27.89375 327.46875 28.753124Q328.70312 26.940624 330.67188 26.940624Q332.21875 26.940624 333.04688 27.8Q333.875 28.659374 333.875 30.425L333.875 37.55L332.125 37.55L332.125 31.01875Q332.125 29.95625 331.95312 29.503124Q331.78125 29.034374 331.32812 28.753124Q330.89062 28.471874 330.28125 28.471874Q329.1875 28.471874 328.45312 29.20625Q327.73438 29.925 327.73438 31.51875L327.73438 37.55L325.98438 37.55L325.98438 30.815624Q325.98438 29.64375 325.54688 29.065624Q325.125 28.471874 324.14062 28.471874Q323.40625 28.471874 322.76562 28.8625Q322.14062 29.253124 321.85938 30.003124Q321.57812 30.753124 321.57812 32.175L321.57812 37.55L319.8125 37.55Z" fill-rule="nonzero"/></svg>