<svg version="1.1" viewBox="0.0 0.0 600.0 371.0" fill="none" stroke="none" stroke-linecap="square" stroke-miterlimit="10" width="600" height="371" xmlns:xlink="http://www.w3.org/1999/xlink" xmlns="http://www.w3.org/2000/svg"><path fill="#ffffff" fill-opacity="0.0" d="M0 0L600.0 0L600.0 371.0L0 371.0L0 0Z" fill-rule="nonzero"/><path fill="#8c4595" d="M183.68953 110.92883C211.91702 75.53269 254.72664 54.916668 300.0 54.916668L300.0 129.3C277.3633 129.3 255.95851 139.60802 241.84477 157.30608Z" fill-rule="nonzero"/><path fill="#78a94e" d="M154.96323 236.78703C144.88895 192.64877 155.46205 146.32497 183.68953 110.92883L241.84477 157.30608C227.73103 175.00415 222.44447 198.16605 227.48161 220.23518Z" fill-rule="nonzero"/><path fill="#2d4d98" d="M235.45256 337.71747C194.66267 318.0741 165.03749 280.9253 154.96323 236.78703L227.48161 220.23518C232.51875 242.30432 247.33133 260.87872 267.7263 270.7004Z" fill-rule="nonzero"/><path fill="#f7d750" d="M300.0 54.916668C361.1846 54.916668 416.12973 92.37764 438.48297 149.33276C460.8362 206.28789 446.0385 271.12094 401.18704 312.73703C356.33554 354.35312 290.57797 364.26447 235.45256 337.71747L267.7263 270.7004C295.28897 283.9739 328.1678 279.01822 350.5935 258.21017C373.01926 237.40213 380.41812 204.98561 369.2415 176.50806C358.06488 148.03049 330.5923 129.3 300.0 129.3Z" fill-rule="nonzero"/><path fill="#ffffff" d="M384.0276 231.63611L385.68384 231.49548Q385.87134 232.71423 386.5432 233.32361Q387.2151 233.93298 388.1682 233.93298Q389.30884 233.93298 390.0901 233.07361Q390.88696 232.21423 390.88696 230.77673Q390.88696 229.43298 390.12134 228.65173Q389.37134 227.87048 388.13696 227.87048Q387.37134 227.87048 386.74634 228.21423Q386.13696 228.55798 385.7932 229.12048L384.30884 228.91736L385.55884 222.30798L391.9651 222.30798L391.9651 223.80798L386.82446 223.80798L386.12134 227.27673Q387.2932 226.46423 388.55884 226.46423Q390.24634 226.46423 391.4026 227.63611Q392.57446 228.80798 392.57446 230.63611Q392.57446 232.38611 391.5432 233.66736Q390.30884 235.22986 388.1682 235.22986Q386.4026 235.22986 385.2932 234.24548Q384.18384 233.26111 384.0276 231.63611ZM394.13696 223.80798L394.13696 222.29236L402.4651 222.29236L402.4651 223.52673Q401.24634 224.83923 400.0276 227.01111Q398.82446 229.16736 398.1682 231.46423Q397.68384 233.08923 397.55884 235.01111L395.93384 235.01111Q395.9651 233.49548 396.5276 231.33923Q397.1057 229.18298 398.1682 227.18298Q399.2307 225.18298 400.43384 223.80798L394.13696 223.80798ZM404.9182 235.01111L404.9182 233.21423L406.7151 233.21423L406.7151 235.01111L404.9182 235.01111ZM414.9807 235.01111L413.4026 235.01111L413.4026 224.93298Q412.82446 225.47986 411.9026 226.02673Q410.9807 226.55798 410.2307 226.83923L410.2307 225.30798Q411.55884 224.68298 412.55884 223.79236Q413.55884 222.90173 413.9651 222.07361L414.9807 222.07361L414.9807 235.01111ZM419.32446 225.21423Q419.32446 223.83923 420.01196 222.87048Q420.7151 221.90173 422.0276 221.90173Q423.24634 221.90173 424.0432 222.77673Q424.8401 223.63611 424.8401 225.32361Q424.8401 226.94861 424.0276 227.83923Q423.2307 228.71423 422.0432 228.71423Q420.88696 228.71423 420.1057 227.85486Q419.32446 226.97986 419.32446 225.21423ZM422.07446 222.99548Q421.4807 222.99548 421.0901 223.51111Q420.69946 224.01111 420.69946 225.37048Q420.69946 226.62048 421.0901 227.12048Q421.49634 227.62048 422.07446 227.62048Q422.6682 227.62048 423.05884 227.12048Q423.44946 226.60486 423.44946 225.26111Q423.44946 224.01111 423.05884 223.51111Q422.6682 222.99548 422.07446 222.99548ZM422.0901 235.47986L429.13696 221.90173L430.4182 221.90173L423.38696 235.47986L422.0901 235.47986ZM427.6526 231.97986Q427.6526 230.60486 428.3401 229.63611Q429.0432 228.66736 430.37134 228.66736Q431.5901 228.66736 432.37134 229.54236Q433.1682 230.40173 433.1682 232.08923Q433.1682 233.71423 432.37134 234.60486Q431.57446 235.47986 430.38696 235.47986Q429.2151 235.47986 428.43384 234.60486Q427.6526 233.72986 427.6526 231.97986ZM430.4182 229.76111Q429.82446 229.76111 429.43384 230.27673Q429.0432 230.77673 429.0432 232.15173Q429.0432 233.37048 429.43384 233.88611Q429.82446 234.40173 430.4026 234.40173Q431.01196 234.40173 431.4026 233.88611Q431.7932 233.37048 431.7932 232.02673Q431.7932 230.77673 431.4026 230.27673Q431.01196 229.76111 430.4182 229.76111Z" fill-rule="nonzero"/><path fill="#ffffff" d="M193.97028 279.7492L192.39215 279.7492L192.39215 269.67108Q191.81403 270.21796 190.89215 270.76483Q189.97028 271.29608 189.22028 271.57733L189.22028 270.04608Q190.5484 269.42108 191.5484 268.53046Q192.5484 267.63983 192.95465 266.8117L193.97028 266.8117L193.97028 279.7492ZM203.07965 279.7492L203.07965 276.67108L197.50153 276.67108L197.50153 275.21796L203.37653 266.85858L204.6734 266.85858L204.6734 275.21796L206.40778 275.21796L206.40778 276.67108L204.6734 276.67108L204.6734 279.7492L203.07965 279.7492ZM203.07965 275.21796L203.07965 269.40546L199.0484 275.21796L203.07965 275.21796ZM208.90778 279.7492L208.90778 277.95233L210.70465 277.95233L210.70465 279.7492L208.90778 279.7492ZM213.01715 276.34296L214.6109 276.13983Q214.87653 277.48358 215.53278 278.07733Q216.18903 278.67108 217.12653 278.67108Q218.25153 278.67108 219.01715 277.90546Q219.78278 277.1242 219.78278 275.98358Q219.78278 274.88983 219.06403 274.1867Q218.3609 273.46796 217.26715 273.46796Q216.81403 273.46796 216.14215 273.65546L216.31403 272.26483Q216.47028 272.28046 216.57965 272.28046Q217.57965 272.28046 218.39215 271.7492Q219.20465 271.21796 219.20465 270.1242Q219.20465 269.2492 218.6109 268.6867Q218.01715 268.10858 217.09528 268.10858Q216.1734 268.10858 215.5484 268.6867Q214.93903 269.26483 214.76715 270.4367L213.18903 270.15546Q213.47028 268.5617 214.50153 267.6867Q215.53278 266.8117 217.06403 266.8117Q218.1109 266.8117 219.00153 267.26483Q219.89215 267.71796 220.3609 268.4992Q220.82965 269.28046 220.82965 270.15546Q220.82965 270.9992 220.37653 271.6867Q219.93903 272.35858 219.0484 272.76483Q220.18903 273.03046 220.81403 273.8742Q221.45465 274.70233 221.45465 275.9367Q221.45465 277.6242 220.22028 278.8117Q219.00153 279.98358 217.12653 279.98358Q215.4234 279.98358 214.2984 278.96796Q213.18903 277.95233 213.01715 276.34296ZM223.31403 269.95233Q223.31403 268.57733 224.00153 267.60858Q224.70465 266.63983 226.01715 266.63983Q227.2359 266.63983 228.03278 267.51483Q228.82965 268.3742 228.82965 270.0617Q228.82965 271.6867 228.01715 272.57733Q227.22028 273.45233 226.03278 273.45233Q224.87653 273.45233 224.09528 272.59296Q223.31403 271.71796 223.31403 269.95233ZM226.06403 267.73358Q225.47028 267.73358 225.07965 268.2492Q224.68903 268.7492 224.68903 270.10858Q224.68903 271.35858 225.07965 271.85858Q225.4859 272.35858 226.06403 272.35858Q226.65778 272.35858 227.0484 271.85858Q227.43903 271.34296 227.43903 269.9992Q227.43903 268.7492 227.0484 268.2492Q226.65778 267.73358 226.06403 267.73358ZM226.07965 280.21796L233.12653 266.63983L234.40778 266.63983L227.37653 280.21796L226.07965 280.21796ZM231.64215 276.71796Q231.64215 275.34296 232.32965 274.3742Q233.03278 273.40546 234.3609 273.40546Q235.57965 273.40546 236.3609 274.28046Q237.15778 275.13983 237.15778 276.82733Q237.15778 278.45233 236.3609 279.34296Q235.56403 280.21796 234.37653 280.21796Q233.20465 280.21796 232.4234 279.34296Q231.64215 278.46796 231.64215 276.71796ZM234.40778 274.4992Q233.81403 274.4992 233.4234 275.01483Q233.03278 275.51483 233.03278 276.88983Q233.03278 278.10858 233.4234 278.6242Q233.81403 279.13983 234.39215 279.13983Q235.00153 279.13983 235.39215 278.6242Q235.78278 278.10858 235.78278 276.76483Q235.78278 275.51483 235.39215 275.01483Q235.00153 274.4992 234.40778 274.4992Z" fill-rule="nonzero"/><path fill="#ffffff" d="M172.42554 185.35556L170.84741 185.35556L170.84741 175.27744Q170.26929 175.82431 169.34741 176.37119Q168.42554 176.90244 167.67554 177.18369L167.67554 175.65244Q169.00366 175.02744 170.00366 174.13681Q171.00366 173.24619 171.40991 172.41806L172.42554 172.41806L172.42554 185.35556ZM181.53491 185.35556L181.53491 182.27744L175.95679 182.27744L175.95679 180.82431L181.83179 172.46494L183.12866 172.46494L183.12866 180.82431L184.86304 180.82431L184.86304 182.27744L183.12866 182.27744L183.12866 185.35556L181.53491 185.35556ZM181.53491 180.82431L181.53491 175.01181L177.50366 180.82431L181.53491 180.82431ZM187.36304 185.35556L187.36304 183.55869L189.15991 183.55869L189.15991 185.35556L187.36304 185.35556ZM191.47241 181.94931L193.06616 181.74619Q193.33179 183.08994 193.98804 183.68369Q194.64429 184.27744 195.58179 184.27744Q196.70679 184.27744 197.47241 183.51181Q198.23804 182.73056 198.23804 181.58994Q198.23804 180.49619 197.51929 179.79306Q196.81616 179.07431 195.72241 179.07431Q195.26929 179.07431 194.59741 179.26181L194.76929 177.87119Q194.92554 177.88681 195.03491 177.88681Q196.03491 177.88681 196.84741 177.35556Q197.65991 176.82431 197.65991 175.73056Q197.65991 174.85556 197.06616 174.29306Q196.47241 173.71494 195.55054 173.71494Q194.62866 173.71494 194.00366 174.29306Q193.39429 174.87119 193.22241 176.04306L191.64429 175.76181Q191.92554 174.16806 192.95679 173.29306Q193.98804 172.41806 195.51929 172.41806Q196.56616 172.41806 197.45679 172.87119Q198.34741 173.32431 198.81616 174.10556Q199.28491 174.88681 199.28491 175.76181Q199.28491 176.60556 198.83179 177.29306Q198.39429 177.96494 197.50366 178.37119Q198.64429 178.63681 199.26929 179.48056Q199.90991 180.30869 199.90991 181.54306Q199.90991 183.23056 198.67554 184.41806Q197.45679 185.58994 195.58179 185.58994Q193.87866 185.58994 192.75366 184.57431Q191.64429 183.55869 191.47241 181.94931ZM201.76929 175.55869Q201.76929 174.18369 202.45679 173.21494Q203.15991 172.24619 204.47241 172.24619Q205.69116 172.24619 206.48804 173.12119Q207.28491 173.98056 207.28491 175.66806Q207.28491 177.29306 206.47241 178.18369Q205.67554 179.05869 204.48804 179.05869Q203.33179 179.05869 202.55054 178.19931Q201.76929 177.32431 201.76929 175.55869ZM204.51929 173.33994Q203.92554 173.33994 203.53491 173.85556Q203.14429 174.35556 203.14429 175.71494Q203.14429 176.96494 203.53491 177.46494Q203.94116 177.96494 204.51929 177.96494Q205.11304 177.96494 205.50366 177.46494Q205.89429 176.94931 205.89429 175.60556Q205.89429 174.35556 205.50366 173.85556Q205.11304 173.33994 204.51929 173.33994ZM204.53491 185.82431L211.58179 172.24619L212.86304 172.24619L205.83179 185.82431L204.53491 185.82431ZM210.09741 182.32431Q210.09741 180.94931 210.78491 179.98056Q211.48804 179.01181 212.81616 179.01181Q214.03491 179.01181 214.81616 179.88681Q215.61304 180.74619 215.61304 182.43369Q215.61304 184.05869 214.81616 184.94931Q214.01929 185.82431 212.83179 185.82431Q211.65991 185.82431 210.87866 184.94931Q210.09741 184.07431 210.09741 182.32431ZM212.86304 180.10556Q212.26929 180.10556 211.87866 180.62119Q211.48804 181.12119 211.48804 182.49619Q211.48804 183.71494 211.87866 184.23056Q212.26929 184.74619 212.84741 184.74619Q213.45679 184.74619 213.84741 184.23056Q214.23804 183.71494 214.23804 182.37119Q214.23804 181.12119 213.84741 180.62119Q213.45679 180.10556 212.86304 180.10556Z" fill-rule="nonzero"/><path fill="#ffffff" d="M232.79254 109.65773L231.21442 109.65773L231.21442 99.579605Q230.63629 100.12648 229.71442 100.673355Q228.79254 101.204605 228.04254 101.485855L228.04254 99.954605Q229.37067 99.329605 230.37067 98.43898Q231.37067 97.548355 231.77692 96.72023L232.79254 96.72023L232.79254 109.65773ZM241.90192 109.65773L241.90192 106.579605L236.32379 106.579605L236.32379 105.12648L242.19879 96.767105L243.49567 96.767105L243.49567 105.12648L245.23004 105.12648L245.23004 106.579605L243.49567 106.579605L243.49567 109.65773L241.90192 109.65773ZM241.90192 105.12648L241.90192 99.31398L237.87067 105.12648L241.90192 105.12648ZM247.73004 109.65773L247.73004 107.860855L249.52692 107.860855L249.52692 109.65773L247.73004 109.65773ZM251.83942 106.25148L253.43317 106.048355Q253.69879 107.392105 254.35504 107.985855Q255.01129 108.579605 255.94879 108.579605Q257.0738 108.579605 257.83942 107.81398Q258.60504 107.03273 258.60504 105.892105Q258.60504 104.798355 257.8863 104.09523Q257.18317 103.37648 256.08942 103.37648Q255.63629 103.37648 254.96442 103.56398L255.13629 102.173355Q255.29254 102.18898 255.40192 102.18898Q256.40192 102.18898 257.21442 101.65773Q258.02692 101.12648 258.02692 100.03273Q258.02692 99.15773 257.43317 98.59523Q256.83942 98.017105 255.91754 98.017105Q254.99567 98.017105 254.37067 98.59523Q253.76129 99.173355 253.58942 100.34523L252.01129 100.06398Q252.29254 98.47023 253.32379 97.59523Q254.35504 96.72023 255.88629 96.72023Q256.93317 96.72023 257.8238 97.173355Q258.71442 97.62648 259.18317 98.40773Q259.65192 99.18898 259.65192 100.06398Q259.65192 100.90773 259.1988 101.59523Q258.7613 102.267105 257.87067 102.673355Q259.0113 102.93898 259.6363 103.78273Q260.27692 104.610855 260.27692 105.84523Q260.27692 107.53273 259.04254 108.72023Q257.8238 109.892105 255.94879 109.892105Q254.24567 109.892105 253.12067 108.87648Q252.01129 107.860855 251.83942 106.25148ZM262.1363 99.860855Q262.1363 98.485855 262.8238 97.517105Q263.52692 96.548355 264.83942 96.548355Q266.05817 96.548355 266.85504 97.423355Q267.65192 98.28273 267.65192 99.97023Q267.65192 101.59523 266.83942 102.485855Q266.04254 103.360855 264.85504 103.360855Q263.6988 103.360855 262.91754 102.50148Q262.1363 101.62648 262.1363 99.860855ZM264.8863 97.642105Q264.29254 97.642105 263.90192 98.15773Q263.5113 98.65773 263.5113 100.017105Q263.5113 101.267105 263.90192 101.767105Q264.30817 102.267105 264.8863 102.267105Q265.48004 102.267105 265.87067 101.767105Q266.2613 101.25148 266.2613 99.90773Q266.2613 98.65773 265.87067 98.15773Q265.48004 97.642105 264.8863 97.642105ZM264.90192 110.12648L271.9488 96.548355L273.23004 96.548355L266.1988 110.12648L264.90192 110.12648ZM270.46442 106.62648Q270.46442 105.25148 271.15192 104.28273Q271.85504 103.31398 273.18317 103.31398Q274.40192 103.31398 275.18317 104.18898Q275.98004 105.048355 275.98004 106.735855Q275.98004 108.360855 275.18317 109.25148Q274.3863 110.12648 273.1988 110.12648Q272.02692 110.12648 271.24567 109.25148Q270.46442 108.37648 270.46442 106.62648ZM273.23004 104.40773Q272.6363 104.40773 272.24567 104.923355Q271.85504 105.423355 271.85504 106.798355Q271.85504 108.017105 272.24567 108.53273Q272.6363 109.048355 273.21442 109.048355Q273.8238 109.048355 274.21442 108.53273Q274.60504 108.017105 274.60504 106.673355Q274.60504 105.423355 274.21442 104.923355Q273.8238 104.40773 273.23004 104.40773Z" fill-rule="nonzero"/><path stroke="#ffffff" stroke-width="1.0" stroke-linejoin="round" stroke-linecap="round" d="M267.7263 270.7004C295.28897 283.9739 328.1678 279.01822 350.5935 258.21017C373.01926 237.40213 380.41812 204.98561 369.2415 176.50806C358.06488 148.03049 330.5923 129.3 300.0 129.3L300.0 54.916668C361.1846 54.916668 416.12973 92.37764 438.48297 149.33276C460.8362 206.28789 446.0385 271.12094 401.18704 312.73703C356.33554 354.35312 290.57797 364.26447 235.45256 337.71747" fill-rule="nonzero"/><path stroke="#ffffff" stroke-width="1.0" stroke-linejoin="round" stroke-linecap="round" d="M227.48161 220.23518C232.51875 242.30432 247.33133 260.87872 267.7263 270.7004L235.45256 337.71747C194.66267 318.0741 165.03749 280.9253 154.96323 236.78703" fill-rule="nonzero"/><path stroke="#ffffff" stroke-width="1.0" stroke-linejoin="round" stroke-linecap="round" d="M241.84477 157.30608C227.73103 175.00415 222.44447 198.16605 227.48161 220.23518L154.96323 236.78703C144.88895 192.64877 155.46205 146.32497 183.68953 110.92883" fill-rule="nonzero"/><path stroke="#ffffff" stroke-width="1.0" stroke-linejoin="round" stroke-linecap="round" d="M300.0 129.3C277.3633 129.3 255.95851 139.60802 241.84477 157.30608L183.68953 110.92883C211.91702 75.53269 254.72664 54.916668 300.0 54.916668" fill-rule="nonzero"/><path fill="#efefef" d="M19.76875 70.85091L19.76875 59.39778L21.33125 59.39778L27.346874 68.38216L27.346874 59.39778L28.8 59.39778L28.8 70.85091L27.2375 70.85091L21.221874 61.850906L21.221874 70.85091L19.76875 70.85091ZM37.01875 69.81966Q36.2375 70.49153 35.51875 70.77278Q34.8 71.03841 33.971874 71.03841Q32.596874 71.03841 31.8625 70.36653Q31.128124 69.69466 31.128124 68.66341Q31.128124 68.05403 31.409374 67.55403Q31.690624 67.03841 32.128124 66.74153Q32.58125 66.42903 33.14375 66.27278Q33.565624 66.16341 34.39375 66.06966Q36.096874 65.86653 36.909374 65.58528Q36.909374 65.28841 36.909374 65.21028Q36.909374 64.35091 36.51875 64.00716Q35.971874 63.52278 34.909374 63.52278Q33.925 63.52278 33.440624 63.882156Q32.971874 64.22591 32.753124 65.10091L31.378124 64.91341Q31.565624 64.03841 31.9875 63.49153Q32.425 62.944656 33.2375 62.663406Q34.05 62.36653 35.1125 62.36653Q36.175 62.36653 36.83125 62.61653Q37.503124 62.86653 37.815624 63.24153Q38.128124 63.61653 38.253124 64.19466Q38.33125 64.55403 38.33125 65.49153L38.33125 67.36653Q38.33125 69.33528 38.409374 69.85091Q38.503124 70.36653 38.76875 70.85091L37.3 70.85091Q37.08125 70.41341 37.01875 69.81966ZM36.909374 66.67903Q36.14375 66.99153 34.6125 67.21028Q33.7375 67.33528 33.378124 67.49153Q33.01875 67.64778 32.815624 67.96028Q32.628124 68.25716 32.628124 68.61653Q32.628124 69.17903 33.05 69.55403Q33.4875 69.92903 34.3 69.92903Q35.1125 69.92903 35.7375 69.58528Q36.378124 69.22591 36.675 68.60091Q36.909374 68.13216 36.909374 67.19466L36.909374 66.67903ZM43.675 69.58528L43.878124 70.83528Q43.284374 70.96028 42.815624 70.96028Q42.05 70.96028 41.628124 70.72591Q41.20625 70.47591 41.034374 70.08528Q40.8625 69.67903 40.8625 68.41341L40.8625 63.64778L39.83125 63.64778L39.83125 62.55403L40.8625 62.55403L40.8625 60.49153L42.26875 59.64778L42.26875 62.55403L43.675 62.55403L43.675 63.64778L42.26875 63.64778L42.26875 68.49153Q42.26875 69.10091 42.33125 69.27278Q42.409374 69.44466 42.58125 69.55403Q42.753124 69.64778 43.065624 69.64778Q43.3 69.64778 43.675 69.58528ZM50.05 70.85091L50.05 69.63216Q49.08125 71.03841 47.409374 71.03841Q46.675 71.03841 46.034374 70.75716Q45.409374 70.47591 45.096874 70.05403Q44.784374 69.61653 44.659374 69.00716Q44.58125 68.58528 44.58125 67.69466L44.58125 62.55403L45.9875 62.55403L45.9875 67.14778Q45.9875 68.25716 46.065624 68.63216Q46.20625 69.19466 46.628124 69.50716Q47.065624 69.81966 47.690624 69.81966Q48.33125 69.81966 48.878124 69.50716Q49.440624 69.17903 49.659374 68.61653Q49.89375 68.05403 49.89375 66.99153L49.89375 62.55403L51.3 62.55403L51.3 70.85091L50.05 70.85091ZM53.596874 70.85091L53.596874 62.55403L54.8625 62.55403L54.8625 63.80403Q55.346874 62.92903 55.753124 62.64778Q56.159374 62.36653 56.659374 62.36653Q57.3625 62.36653 58.096874 62.819656L57.6125 64.11653Q57.096874 63.819656 56.58125 63.819656Q56.128124 63.819656 55.753124 64.10091Q55.39375 64.36653 55.2375 64.86653Q55.003124 65.61653 55.003124 66.50716L55.003124 70.85091L53.596874 70.85091ZM64.01875 69.81966Q63.2375 70.49153 62.51875 70.77278Q61.8 71.03841 60.971874 71.03841Q59.596874 71.03841 58.8625 70.36653Q58.128124 69.69466 58.128124 68.66341Q58.128124 68.05403 58.409374 67.55403Q58.690624 67.03841 59.128124 66.74153Q59.58125 66.42903 60.14375 66.27278Q60.565624 66.16341 61.39375 66.06966Q63.096874 65.86653 63.909374 65.58528Q63.909374 65.28841 63.909374 65.21028Q63.909374 64.35091 63.51875 64.00716Q62.971874 63.52278 61.909374 63.52278Q60.925 63.52278 60.440624 63.882156Q59.971874 64.22591 59.753124 65.10091L58.378124 64.91341Q58.565624 64.03841 58.9875 63.49153Q59.425 62.944656 60.2375 62.663406Q61.05 62.36653 62.1125 62.36653Q63.175 62.36653 63.83125 62.61653Q64.50313 62.86653 64.81563 63.24153Q65.12813 63.61653 65.25313 64.19466Q65.33125 64.55403 65.33125 65.49153L65.33125 67.36653Q65.33125 69.33528 65.40938 69.85091Q65.50313 70.36653 65.76875 70.85091L64.3 70.85091Q64.08125 70.41341 64.01875 69.81966ZM63.909374 66.67903Q63.14375 66.99153 61.6125 67.21028Q60.7375 67.33528 60.378124 67.49153Q60.01875 67.64778 59.815624 67.96028Q59.628124 68.25716 59.628124 68.61653Q59.628124 69.17903 60.05 69.55403Q60.4875 69.92903 61.3 69.92903Q62.1125 69.92903 62.7375 69.58528Q63.378124 69.22591 63.675 68.60091Q63.909374 68.13216 63.909374 67.19466L63.909374 66.67903ZM67.58125 70.85091L67.58125 59.39778L68.9875 59.39778L68.9875 70.85091L67.58125 70.85091Z" fill-rule="nonzero"/><path fill="#9e9e9e" d="M24.51875 92.85091L23.1125 92.85091L23.1125 83.88216Q22.596874 84.36653 21.76875 84.85091Q20.95625 85.33528 20.3 85.58528L20.3 84.22591Q21.471874 83.66341 22.346874 82.88216Q23.2375 82.08528 23.6125 81.35091L24.51875 81.35091L24.51875 92.85091ZM32.721874 92.85091L32.721874 90.10091L27.753124 90.10091L27.753124 88.81966L32.9875 81.39778L34.128124 81.39778L34.128124 88.81966L35.675 88.81966L35.675 90.10091L34.128124 90.10091L34.128124 92.85091L32.721874 92.85091ZM32.721874 88.81966L32.721874 83.64778L29.14375 88.81966L32.721874 88.81966ZM38.003124 92.85091L38.003124 91.24153L39.6125 91.24153L39.6125 92.85091L38.003124 92.85091ZM41.221874 89.81966L42.628124 89.63216Q42.878124 90.83528 43.45625 91.36653Q44.034374 91.88216 44.878124 91.88216Q45.8625 91.88216 46.55 91.19466Q47.2375 90.50716 47.2375 89.49153Q47.2375 88.52278 46.596874 87.89778Q45.971874 87.27278 44.9875 87.27278Q44.596874 87.27278 44.003124 87.42903L44.159374 86.19466Q44.3 86.21028 44.378124 86.21028Q45.284374 86.21028 46.003124 85.74153Q46.721874 85.27278 46.721874 84.28841Q46.721874 83.52278 46.190624 83.02278Q45.675 82.50716 44.846874 82.50716Q44.01875 82.50716 43.471874 83.02278Q42.925 83.53841 42.76875 84.56966L41.3625 84.31966Q41.628124 82.89778 42.534374 82.13216Q43.45625 81.35091 44.815624 81.35091Q45.753124 81.35091 46.534374 81.75716Q47.33125 82.14778 47.7375 82.85091Q48.159374 83.53841 48.159374 84.31966Q48.159374 85.06966 47.753124 85.67903Q47.3625 86.28841 46.58125 86.64778Q47.596874 86.88216 48.159374 87.61653Q48.721874 88.35091 48.721874 89.46028Q48.721874 90.96028 47.628124 92.00716Q46.534374 93.05403 44.8625 93.05403Q43.3625 93.05403 42.3625 92.16341Q41.3625 91.25716 41.221874 89.81966ZM50.4875 84.14778Q50.4875 82.91341 51.096874 82.05403Q51.721874 81.19466 52.89375 81.19466Q53.971874 81.19466 54.675 81.97591Q55.378124 82.74153 55.378124 84.22591Q55.378124 85.67903 54.659374 86.47591Q53.95625 87.25716 52.909374 87.25716Q51.8625 87.25716 51.175 86.49153Q50.4875 85.71028 50.4875 84.14778ZM52.925 82.16341Q52.409374 82.16341 52.05 82.61653Q51.70625 83.06966 51.70625 84.28841Q51.70625 85.38216 52.05 85.83528Q52.409374 86.28841 52.925 86.28841Q53.45625 86.28841 53.8 85.83528Q54.159374 85.38216 54.159374 84.17903Q54.159374 83.06966 53.8 82.61653Q53.45625 82.16341 52.925 82.16341ZM52.940624 93.27278L59.20625 81.19466L60.346874 81.19466L54.096874 93.27278L52.940624 93.27278ZM57.89375 90.16341Q57.89375 88.92903 58.503124 88.06966Q59.128124 87.21028 60.3 87.21028Q61.378124 87.21028 62.08125 87.99153Q62.8 88.75716 62.8 90.24153Q62.8 91.69466 62.08125 92.49153Q61.3625 93.27278 60.315624 93.27278Q59.26875 93.27278 58.58125 92.49153Q57.89375 91.71028 57.89375 90.16341ZM60.346874 88.17903Q59.815624 88.17903 59.45625 88.63216Q59.1125 89.08528 59.1125 90.30403Q59.1125 91.39778 59.45625 91.85091Q59.815624 92.30403 60.33125 92.30403Q60.878124 92.30403 61.221874 91.85091Q61.565624 91.39778 61.565624 90.19466Q61.565624 89.08528 61.20625 88.63216Q60.8625 88.17903 60.346874 88.17903Z" fill-rule="nonzero"/><path stroke="#757575" stroke-width="1.0" stroke-linecap="butt" d="M18.55 76.35091L145.23334 76.35091L238.67993 76.35091" fill-rule="nonzero"/><path fill="#9e9e9e" d="M240.67993 76.35091C240.67993 75.24634 239.7845 74.35091 238.67993 74.35091C237.57536 74.35091 236.67993 75.24634 236.67993 76.35091C236.67993 77.455475 237.57536 78.35091 238.67993 78.35091C239.7845 78.35091 240.67993 77.455475 240.67993 76.35091" fill-rule="nonzero"/><path fill="#efefef" d="M18.51875 166.73482L22.925 155.2817L24.565624 155.2817L29.253124 166.73482L27.51875 166.73482L26.190624 163.26607L21.39375 163.26607L20.14375 166.73482L18.51875 166.73482ZM21.83125 162.0317L25.721874 162.0317L24.51875 158.85982Q23.971874 157.4067 23.70625 156.48482Q23.4875 157.57857 23.096874 158.67232L21.83125 162.0317ZM30.596874 166.73482L30.596874 158.43794L31.8625 158.43794L31.8625 159.68794Q32.346874 158.81294 32.753124 158.5317Q33.159374 158.25044 33.659374 158.25044Q34.3625 158.25044 35.096874 158.70357L34.6125 160.00044Q34.096874 159.70357 33.58125 159.70357Q33.128124 159.70357 32.753124 159.98482Q32.39375 160.25044 32.2375 160.75044Q32.003124 161.50044 32.003124 162.39107L32.003124 166.73482L30.596874 166.73482ZM41.01875 163.68794L42.409374 163.87544Q42.175 165.29732 41.2375 166.10982Q40.315624 166.92232 38.95625 166.92232Q37.253124 166.92232 36.20625 165.81294Q35.175 164.68794 35.175 162.60982Q35.175 161.26607 35.6125 160.26607Q36.065624 159.25044 36.971874 158.75044Q37.89375 158.25044 38.95625 158.25044Q40.315624 158.25044 41.175 158.93794Q42.034374 159.60982 42.26875 160.87544L40.909374 161.07857Q40.70625 160.25044 40.20625 159.82857Q39.721874 159.4067 39.01875 159.4067Q37.95625 159.4067 37.284374 160.17232Q36.628124 160.92232 36.628124 162.57857Q36.628124 164.25044 37.26875 165.01607Q37.909374 165.76607 38.940624 165.76607Q39.76875 165.76607 40.315624 165.26607Q40.878124 164.75044 41.01875 163.68794ZM43.6125 166.73482L43.6125 155.2817L45.01875 155.2817L45.01875 159.39107Q46.003124 158.25044 47.503124 158.25044Q48.425 158.25044 49.096874 158.60982Q49.784374 158.9692 50.065624 159.60982Q50.3625 160.25044 50.3625 161.4692L50.3625 166.73482L48.95625 166.73482L48.95625 161.4692Q48.95625 160.42232 48.503124 159.93794Q48.05 159.45357 47.20625 159.45357Q46.58125 159.45357 46.034374 159.7817Q45.4875 160.10982 45.253124 160.67232Q45.01875 161.2192 45.01875 162.18794L45.01875 166.73482L43.6125 166.73482ZM52.6125 156.89107L52.6125 155.2817L54.01875 155.2817L54.01875 156.89107L52.6125 156.89107ZM52.6125 166.73482L52.6125 158.43794L54.01875 158.43794L54.01875 166.73482L52.6125 166.73482ZM59.675 165.4692L59.878124 166.7192Q59.284374 166.8442 58.815624 166.8442Q58.05 166.8442 57.628124 166.60982Q57.20625 166.35982 57.034374 165.9692Q56.8625 165.56294 56.8625 164.29732L56.8625 159.5317L55.83125 159.5317L55.83125 158.43794L56.8625 158.43794L56.8625 156.37544L58.26875 155.5317L58.26875 158.43794L59.675 158.43794L59.675 159.5317L58.26875 159.5317L58.26875 164.37544Q58.26875 164.98482 58.33125 165.1567Q58.409374 165.32857 58.58125 165.43794Q58.753124 165.5317 59.065624 165.5317Q59.3 165.5317 59.675 165.4692ZM66.28438 164.06294L67.7375 164.23482Q67.39375 165.51607 66.45625 166.2192Q65.53438 166.92232 64.09688 166.92232Q62.26875 166.92232 61.20625 165.79732Q60.14375 164.67232 60.14375 162.6567Q60.14375 160.56294 61.221874 159.4067Q62.3 158.25044 64.01875 158.25044Q65.675 158.25044 66.72188 159.39107Q67.78438 160.51607 67.78438 162.56294Q67.78438 162.68794 67.78438 162.93794L61.596874 162.93794Q61.675 164.31294 62.3625 165.04732Q63.065624 165.76607 64.09688 165.76607Q64.87813 165.76607 65.425 165.35982Q65.97188 164.95357 66.28438 164.06294ZM61.675 161.7817L66.3 161.7817Q66.20625 160.73482 65.76875 160.2192Q65.09688 159.4067 64.03438 159.4067Q63.065624 159.4067 62.39375 160.06294Q61.7375 160.70357 61.675 161.7817ZM75.01875 163.68794L76.40938 163.87544Q76.175 165.29732 75.2375 166.10982Q74.31563 166.92232 72.95625 166.92232Q71.25313 166.92232 70.20625 165.81294Q69.175 164.68794 69.175 162.60982Q69.175 161.26607 69.6125 160.26607Q70.06563 159.25044 70.97188 158.75044Q71.89375 158.25044 72.95625 158.25044Q74.31563 158.25044 75.175 158.93794Q76.03438 159.60982 76.26875 160.87544L74.90938 161.07857Q74.70625 160.25044 74.20625 159.82857Q73.72188 159.4067 73.01875 159.4067Q71.95625 159.4067 71.28438 160.17232Q70.62813 160.92232 70.62813 162.57857Q70.62813 164.25044 71.26875 165.01607Q71.90938 165.76607 72.94063 165.76607Q73.76875 165.76607 74.31563 165.26607Q74.87813 164.75044 75.01875 163.68794ZM80.675 165.4692L80.87813 166.7192Q80.28438 166.8442 79.81563 166.8442Q79.05 166.8442 78.62813 166.60982Q78.20625 166.35982 78.03438 165.9692Q77.8625 165.56294 77.8625 164.29732L77.8625 159.5317L76.83125 159.5317L76.83125 158.43794L77.8625 158.43794L77.8625 156.37544L79.26875 155.5317L79.26875 158.43794L80.675 158.43794L80.675 159.5317L79.26875 159.5317L79.26875 164.37544Q79.26875 164.98482 79.33125 165.1567Q79.40938 165.32857 79.58125 165.43794Q79.75313 165.5317 80.06563 165.5317Q80.3 165.5317 80.675 165.4692ZM87.05 166.73482L87.05 165.51607Q86.08125 166.92232 84.40938 166.92232Q83.675 166.92232 83.03438 166.64107Q82.40938 166.35982 82.09688 165.93794Q81.78438 165.50044 81.65938 164.89107Q81.58125 164.4692 81.58125 163.57857L81.58125 158.43794L82.9875 158.43794L82.9875 163.0317Q82.9875 164.14107 83.06563 164.51607Q83.20625 165.07857 83.62813 165.39107Q84.06563 165.70357 84.69063 165.70357Q85.33125 165.70357 85.87813 165.39107Q86.44063 165.06294 86.65938 164.50044Q86.89375 163.93794 86.89375 162.87544L86.89375 158.43794L88.3 158.43794L88.3 166.73482L87.05 166.73482ZM90.59688 166.73482L90.59688 158.43794L91.8625 158.43794L91.8625 159.68794Q92.34688 158.81294 92.75313 158.5317Q93.15938 158.25044 93.65938 158.25044Q94.3625 158.25044 95.09688 158.70357L94.6125 160.00044Q94.09688 159.70357 93.58125 159.70357Q93.12813 159.70357 92.75313 159.98482Q92.39375 160.25044 92.2375 160.75044Q92.00313 161.50044 92.00313 162.39107L92.00313 166.73482L90.59688 166.73482ZM101.28438 164.06294L102.7375 164.23482Q102.39375 165.51607 101.45625 166.2192Q100.53438 166.92232 99.09688 166.92232Q97.26875 166.92232 96.20625 165.79732Q95.14375 164.67232 95.14375 162.6567Q95.14375 160.56294 96.22188 159.4067Q97.3 158.25044 99.01875 158.25044Q100.675 158.25044 101.72188 159.39107Q102.78438 160.51607 102.78438 162.56294Q102.78438 162.68794 102.78438 162.93794L96.59688 162.93794Q96.675 164.31294 97.3625 165.04732Q98.06563 165.76607 99.09688 165.76607Q99.87813 165.76607 100.425 165.35982Q100.97188 164.95357 101.28438 164.06294ZM96.675 161.7817L101.3 161.7817Q101.20625 160.73482 100.76875 160.2192Q100.09688 159.4067 99.03438 159.4067Q98.06563 159.4067 97.39375 160.06294Q96.7375 160.70357 96.675 161.7817ZM115.15938 165.37544Q114.45625 166.1567 113.62813 166.54732Q112.81563 166.93794 111.8625 166.93794Q110.1125 166.93794 109.08125 165.73482Q108.2375 164.76607 108.2375 163.57857Q108.2375 162.51607 108.925 161.6567Q109.6125 160.79732 110.97188 160.1567Q110.19063 159.26607 109.925 158.7192Q109.675 158.1567 109.675 157.64107Q109.675 156.60982 110.4875 155.8442Q111.3 155.07857 112.51875 155.07857Q113.69063 155.07857 114.44063 155.79732Q115.19063 156.51607 115.19063 157.5317Q115.19063 159.1567 113.01875 160.31294L115.08125 162.93794Q115.425 162.25044 115.62813 161.3442L117.08125 161.6567Q116.70625 163.1567 116.06563 164.12544Q116.8625 165.17232 117.8625 165.87544L116.90938 167.00044Q116.06563 166.45357 115.15938 165.37544ZM112.3 159.4067Q113.20625 158.87544 113.47188 158.4692Q113.75313 158.06294 113.75313 157.56294Q113.75313 156.98482 113.37813 156.60982Q113.00313 156.23482 112.45625 156.23482Q111.87813 156.23482 111.50313 156.60982Q111.12813 156.9692 111.12813 157.50044Q111.12813 157.76607 111.25313 158.06294Q111.39375 158.35982 111.675 158.68794L112.3 159.4067ZM114.26875 164.26607L111.69063 161.07857Q110.55 161.75044 110.14375 162.3442Q109.75313 162.92232 109.75313 163.48482Q109.75313 164.18794 110.3 164.93794Q110.8625 165.68794 111.87813 165.68794Q112.51875 165.68794 113.19063 165.29732Q113.8625 164.89107 114.26875 164.26607Z" fill-rule="nonzero"/><path fill="#9e9e9e" d="M24.51875 188.73482L23.1125 188.73482L23.1125 179.76607Q22.596874 180.25044 21.76875 180.73482Q20.95625 181.2192 20.3 181.4692L20.3 180.10982Q21.471874 179.54732 22.346874 178.76607Q23.2375 177.9692 23.6125 177.23482L24.51875 177.23482L24.51875 188.73482ZM32.721874 188.73482L32.721874 185.98482L27.753124 185.98482L27.753124 184.70357L32.9875 177.2817L34.128124 177.2817L34.128124 184.70357L35.675 184.70357L35.675 185.98482L34.128124 185.98482L34.128124 188.73482L32.721874 188.73482ZM32.721874 184.70357L32.721874 179.5317L29.14375 184.70357L32.721874 184.70357ZM38.003124 188.73482L38.003124 187.12544L39.6125 187.12544L39.6125 188.73482L38.003124 188.73482ZM41.221874 185.70357L42.628124 185.51607Q42.878124 186.7192 43.45625 187.25044Q44.034374 187.76607 44.878124 187.76607Q45.8625 187.76607 46.55 187.07857Q47.2375 186.39107 47.2375 185.37544Q47.2375 184.4067 46.596874 183.7817Q45.971874 183.1567 44.9875 183.1567Q44.596874 183.1567 44.003124 183.31294L44.159374 182.07857Q44.3 182.0942 44.378124 182.0942Q45.284374 182.0942 46.003124 181.62544Q46.721874 181.1567 46.721874 180.17232Q46.721874 179.4067 46.190624 178.9067Q45.675 178.39107 44.846874 178.39107Q44.01875 178.39107 43.471874 178.9067Q42.925 179.42232 42.76875 180.45357L41.3625 180.20357Q41.628124 178.7817 42.534374 178.01607Q43.45625 177.23482 44.815624 177.23482Q45.753124 177.23482 46.534374 177.64107Q47.33125 178.0317 47.7375 178.73482Q48.159374 179.42232 48.159374 180.20357Q48.159374 180.95357 47.753124 181.56294Q47.3625 182.17232 46.58125 182.5317Q47.596874 182.76607 48.159374 183.50044Q48.721874 184.23482 48.721874 185.3442Q48.721874 186.8442 47.628124 187.89107Q46.534374 188.93794 44.8625 188.93794Q43.3625 188.93794 42.3625 188.04732Q41.3625 187.14107 41.221874 185.70357ZM50.4875 180.0317Q50.4875 178.79732 51.096874 177.93794Q51.721874 177.07857 52.89375 177.07857Q53.971874 177.07857 54.675 177.85982Q55.378124 178.62544 55.378124 180.10982Q55.378124 181.56294 54.659374 182.35982Q53.95625 183.14107 52.909374 183.14107Q51.8625 183.14107 51.175 182.37544Q50.4875 181.5942 50.4875 180.0317ZM52.925 178.04732Q52.409374 178.04732 52.05 178.50044Q51.70625 178.95357 51.70625 180.17232Q51.70625 181.26607 52.05 181.7192Q52.409374 182.17232 52.925 182.17232Q53.45625 182.17232 53.8 181.7192Q54.159374 181.26607 54.159374 180.06294Q54.159374 178.95357 53.8 178.50044Q53.45625 178.04732 52.925 178.04732ZM52.940624 189.1567L59.20625 177.07857L60.346874 177.07857L54.096874 189.1567L52.940624 189.1567ZM57.89375 186.04732Q57.89375 184.81294 58.503124 183.95357Q59.128124 183.0942 60.3 183.0942Q61.378124 183.0942 62.08125 183.87544Q62.8 184.64107 62.8 186.12544Q62.8 187.57857 62.08125 188.37544Q61.3625 189.1567 60.315624 189.1567Q59.26875 189.1567 58.58125 188.37544Q57.89375 187.5942 57.89375 186.04732ZM60.346874 184.06294Q59.815624 184.06294 59.45625 184.51607Q59.1125 184.9692 59.1125 186.18794Q59.1125 187.2817 59.45625 187.73482Q59.815624 188.18794 60.33125 188.18794Q60.878124 188.18794 61.221874 187.73482Q61.565624 187.2817 61.565624 186.07857Q61.565624 184.9692 61.20625 184.51607Q60.8625 184.06294 60.346874 184.06294Z" fill-rule="nonzero"/><path stroke="#757575" stroke-width="1.0" stroke-linecap="butt" d="M18.55 172.23482L145.23334 172.23482L162.21506 172.23482" fill-rule="nonzero"/><path fill="#9e9e9e" d="M164.21506 172.23482C164.21506 171.13025 163.31963 170.23482 162.21506 170.23482C161.11049 170.23482 160.21506 171.13025 160.21506 172.23482C160.21506 173.33939 161.11049 174.23482 162.21506 174.23482C163.31963 174.23482 164.21506 173.33939 164.21506 172.23482" fill-rule="nonzero"/><path fill="#efefef" d="M19.784374 286.3001L19.784374 274.847L23.7375 274.847Q25.065624 274.847 25.76875 275.00323Q26.753124 275.2376 27.45625 275.83136Q28.3625 276.597 28.8 277.7845Q29.253124 278.972 29.253124 280.50323Q29.253124 281.81573 28.940624 282.83136Q28.64375 283.83136 28.159374 284.4876Q27.690624 285.14386 27.128124 285.5345Q26.565624 285.9095 25.753124 286.1126Q24.95625 286.3001 23.925 286.3001L19.784374 286.3001ZM21.3 284.94073L23.753124 284.94073Q24.878124 284.94073 25.51875 284.7376Q26.175 284.51886 26.55 284.14386Q27.096874 283.597 27.39375 282.69073Q27.690624 281.7845 27.690624 280.4876Q27.690624 278.69073 27.096874 277.722Q26.51875 276.75323 25.675 276.4251Q25.065624 276.19073 23.70625 276.19073L21.3 276.19073L21.3 284.94073ZM31.6125 276.45636L31.6125 274.847L33.01875 274.847L33.01875 276.45636L31.6125 276.45636ZM31.6125 286.3001L31.6125 278.00323L33.01875 278.00323L33.01875 286.3001L31.6125 286.3001ZM35.6125 289.4876L35.6125 278.00323L36.89375 278.00323L36.89375 279.08136Q37.346874 278.44073 37.909374 278.12823Q38.4875 277.81573 39.3 277.81573Q40.3625 277.81573 41.175 278.3626Q41.9875 278.9095 42.39375 279.9095Q42.815624 280.89386 42.815624 282.08136Q42.815624 283.3626 42.346874 284.37823Q41.89375 285.39386 41.01875 285.94073Q40.159374 286.4876 39.190624 286.4876Q38.4875 286.4876 37.925 286.19073Q37.378124 285.89386 37.01875 285.44073L37.01875 289.4876L35.6125 289.4876ZM36.878124 282.19073Q36.878124 283.8001 37.51875 284.56573Q38.175 285.33136 39.096874 285.33136Q40.034374 285.33136 40.70625 284.5345Q41.378124 283.7376 41.378124 282.08136Q41.378124 280.4876 40.721874 279.70636Q40.065624 278.9095 39.159374 278.9095Q38.26875 278.9095 37.565624 279.75323Q36.878124 280.597 36.878124 282.19073ZM44.58125 286.3001L44.58125 274.847L45.9875 274.847L45.9875 286.3001L44.58125 286.3001ZM48.08125 282.14386Q48.08125 279.847 49.3625 278.7376Q50.440624 277.81573 51.971874 277.81573Q53.690624 277.81573 54.76875 278.94073Q55.8625 280.0501 55.8625 282.0345Q55.8625 283.62823 55.378124 284.5501Q54.89375 285.472 53.971874 285.9876Q53.065624 286.4876 51.971874 286.4876Q50.2375 286.4876 49.159374 285.37823Q48.08125 284.25323 48.08125 282.14386ZM49.534374 282.14386Q49.534374 283.7376 50.221874 284.5345Q50.925 285.33136 51.971874 285.33136Q53.01875 285.33136 53.70625 284.5345Q54.409374 283.7376 54.409374 282.097Q54.409374 280.56573 53.70625 279.76886Q53.01875 278.972 51.971874 278.972Q50.925 278.972 50.221874 279.76886Q49.534374 280.5501 49.534374 282.14386ZM57.6125 286.3001L57.6125 278.00323L58.8625 278.00323L58.8625 279.1595Q59.253124 278.5501 59.89375 278.19073Q60.55 277.81573 61.378124 277.81573Q62.3 277.81573 62.89375 278.20636Q63.4875 278.58136 63.721874 279.26886Q64.70625 277.81573 66.28438 277.81573Q67.51875 277.81573 68.175 278.50323Q68.84688 279.1751 68.84688 280.597L68.84688 286.3001L67.45625 286.3001L67.45625 281.06573Q67.45625 280.222 67.31563 279.8626Q67.175 279.4876 66.81563 279.26886Q66.45625 279.0345 65.97188 279.0345Q65.09688 279.0345 64.51875 279.6126Q63.940624 280.19073 63.940624 281.472L63.940624 286.3001L62.534374 286.3001L62.534374 280.9095Q62.534374 279.972 62.190624 279.50323Q61.846874 279.0345 61.065624 279.0345Q60.471874 279.0345 59.971874 279.347Q59.471874 279.6595 59.2375 280.26886Q59.01875 280.8626 59.01875 281.9876L59.01875 286.3001L57.6125 286.3001ZM76.01875 285.26886Q75.2375 285.94073 74.51875 286.222Q73.8 286.4876 72.97188 286.4876Q71.59688 286.4876 70.8625 285.81573Q70.12813 285.14386 70.12813 284.1126Q70.12813 283.50323 70.40938 283.00323Q70.69063 282.4876 71.12813 282.19073Q71.58125 281.87823 72.14375 281.722Q72.56563 281.6126 73.39375 281.51886Q75.09688 281.31573 75.90938 281.0345Q75.90938 280.7376 75.90938 280.6595Q75.90938 279.8001 75.51875 279.45636Q74.97188 278.972 73.90938 278.972Q72.925 278.972 72.44063 279.33136Q71.97188 279.6751 71.75313 280.5501L70.37813 280.3626Q70.56563 279.4876 70.9875 278.94073Q71.425 278.39386 72.2375 278.1126Q73.05 277.81573 74.1125 277.81573Q75.175 277.81573 75.83125 278.06573Q76.50313 278.31573 76.81563 278.69073Q77.12813 279.06573 77.25313 279.64386Q77.33125 280.00323 77.33125 280.94073L77.33125 282.81573Q77.33125 284.7845 77.40938 285.3001Q77.50313 285.81573 77.76875 286.3001L76.3 286.3001Q76.08125 285.8626 76.01875 285.26886ZM75.90938 282.12823Q75.14375 282.44073 73.6125 282.6595Q72.7375 282.7845 72.37813 282.94073Q72.01875 283.097 71.81563 283.4095Q71.62813 283.70636 71.62813 284.06573Q71.62813 284.62823 72.05 285.00323Q72.4875 285.37823 73.3 285.37823Q74.1125 285.37823 74.7375 285.0345Q75.37813 284.6751 75.675 284.0501Q75.90938 283.58136 75.90938 282.64386L75.90938 282.12823ZM82.675 285.0345L82.87813 286.2845Q82.28438 286.4095 81.81563 286.4095Q81.05 286.4095 80.62813 286.1751Q80.20625 285.9251 80.03438 285.5345Q79.8625 285.12823 79.8625 283.8626L79.8625 279.097L78.83125 279.097L78.83125 278.00323L79.8625 278.00323L79.8625 275.94073L81.26875 275.097L81.26875 278.00323L82.675 278.00323L82.675 279.097L81.26875 279.097L81.26875 283.94073Q81.26875 284.5501 81.33125 284.722Q81.40938 284.89386 81.58125 285.00323Q81.75313 285.097 82.06563 285.097Q82.3 285.097 82.675 285.0345ZM83.6125 276.45636L83.6125 274.847L85.01875 274.847L85.01875 276.45636L83.6125 276.45636ZM83.6125 286.3001L83.6125 278.00323L85.01875 278.00323L85.01875 286.3001L83.6125 286.3001ZM93.01875 283.25323L94.40938 283.44073Q94.175 284.8626 93.2375 285.6751Q92.31563 286.4876 90.95625 286.4876Q89.25313 286.4876 88.20625 285.37823Q87.175 284.25323 87.175 282.1751Q87.175 280.83136 87.6125 279.83136Q88.06563 278.81573 88.97188 278.31573Q89.89375 277.81573 90.95625 277.81573Q92.31563 277.81573 93.175 278.50323Q94.03438 279.1751 94.26875 280.44073L92.90938 280.64386Q92.70625 279.81573 92.20625 279.39386Q91.72188 278.972 91.01875 278.972Q89.95625 278.972 89.28438 279.7376Q88.62813 280.4876 88.62813 282.14386Q88.62813 283.81573 89.26875 284.58136Q89.90938 285.33136 90.94063 285.33136Q91.76875 285.33136 92.31563 284.83136Q92.87813 284.31573 93.01875 283.25323Z" fill-rule="nonzero"/><path fill="#9e9e9e" d="M24.51875 308.3001L23.1125 308.3001L23.1125 299.33136Q22.596874 299.81573 21.76875 300.3001Q20.95625 300.7845 20.3 301.0345L20.3 299.6751Q21.471874 299.1126 22.346874 298.33136Q23.2375 297.5345 23.6125 296.8001L24.51875 296.8001L24.51875 308.3001ZM32.721874 308.3001L32.721874 305.5501L27.753124 305.5501L27.753124 304.26886L32.9875 296.847L34.128124 296.847L34.128124 304.26886L35.675 304.26886L35.675 305.5501L34.128124 305.5501L34.128124 308.3001L32.721874 308.3001ZM32.721874 304.26886L32.721874 299.097L29.14375 304.26886L32.721874 304.26886ZM38.003124 308.3001L38.003124 306.69073L39.6125 306.69073L39.6125 308.3001L38.003124 308.3001ZM41.221874 305.26886L42.628124 305.08136Q42.878124 306.2845 43.45625 306.81573Q44.034374 307.33136 44.878124 307.33136Q45.8625 307.33136 46.55 306.64386Q47.2375 305.95636 47.2375 304.94073Q47.2375 303.972 46.596874 303.347Q45.971874 302.722 44.9875 302.722Q44.596874 302.722 44.003124 302.87823L44.159374 301.64386Q44.3 301.6595 44.378124 301.6595Q45.284374 301.6595 46.003124 301.19073Q46.721874 300.722 46.721874 299.7376Q46.721874 298.972 46.190624 298.472Q45.675 297.95636 44.846874 297.95636Q44.01875 297.95636 43.471874 298.472Q42.925 298.9876 42.76875 300.01886L41.3625 299.76886Q41.628124 298.347 42.534374 297.58136Q43.45625 296.8001 44.815624 296.8001Q45.753124 296.8001 46.534374 297.20636Q47.33125 297.597 47.7375 298.3001Q48.159374 298.9876 48.159374 299.76886Q48.159374 300.51886 47.753124 301.12823Q47.3625 301.7376 46.58125 302.097Q47.596874 302.33136 48.159374 303.06573Q48.721874 303.8001 48.721874 304.9095Q48.721874 306.4095 47.628124 307.45636Q46.534374 308.50323 44.8625 308.50323Q43.3625 308.50323 42.3625 307.6126Q41.3625 306.70636 41.221874 305.26886ZM50.4875 299.597Q50.4875 298.3626 51.096874 297.50323Q51.721874 296.64386 52.89375 296.64386Q53.971874 296.64386 54.675 297.4251Q55.378124 298.19073 55.378124 299.6751Q55.378124 301.12823 54.659374 301.9251Q53.95625 302.70636 52.909374 302.70636Q51.8625 302.70636 51.175 301.94073Q50.4875 301.1595 50.4875 299.597ZM52.925 297.6126Q52.409374 297.6126 52.05 298.06573Q51.70625 298.51886 51.70625 299.7376Q51.70625 300.83136 52.05 301.2845Q52.409374 301.7376 52.925 301.7376Q53.45625 301.7376 53.8 301.2845Q54.159374 300.83136 54.159374 299.62823Q54.159374 298.51886 53.8 298.06573Q53.45625 297.6126 52.925 297.6126ZM52.940624 308.722L59.20625 296.64386L60.346874 296.64386L54.096874 308.722L52.940624 308.722ZM57.89375 305.6126Q57.89375 304.37823 58.503124 303.51886Q59.128124 302.6595 60.3 302.6595Q61.378124 302.6595 62.08125 303.44073Q62.8 304.20636 62.8 305.69073Q62.8 307.14386 62.08125 307.94073Q61.3625 308.722 60.315624 308.722Q59.26875 308.722 58.58125 307.94073Q57.89375 307.1595 57.89375 305.6126ZM60.346874 303.62823Q59.815624 303.62823 59.45625 304.08136Q59.1125 304.5345 59.1125 305.75323Q59.1125 306.847 59.45625 307.3001Q59.815624 307.75323 60.33125 307.75323Q60.878124 307.75323 61.221874 307.3001Q61.565624 306.847 61.565624 305.64386Q61.565624 304.5345 61.20625 304.08136Q60.8625 303.62823 60.346874 303.62823Z" fill-rule="nonzero"/><path stroke="#757575" stroke-width="1.0" stroke-linecap="butt" d="M18.55 291.8001L145.23334 291.8001L189.50507 291.8001" fill-rule="nonzero"/><path fill="#9e9e9e" d="M191.50507 291.8001C191.50507 290.69553 190.60963 289.8001 189.50507 289.8001C188.4005 289.8001 187.50507 290.69553 187.50507 291.8001C187.50507 292.90466 188.4005 293.8001 189.50507 293.8001C190.60963 293.8001 191.50507 292.90466 191.50507 291.8001" fill-rule="nonzero"/><path fill="#efefef" d="M481.71564 229.63185L481.71564 218.17873L489.9969 218.17873L489.9969 219.52248L483.23126 219.52248L483.23126 223.0381L489.575 223.0381L489.575 224.38185L483.23126 224.38185L483.23126 228.27248L490.2625 228.27248L490.2625 229.63185L481.71564 229.63185ZM495.575 228.36623L495.77814 229.61623Q495.1844 229.74123 494.71564 229.74123Q493.95 229.74123 493.52814 229.50685Q493.10626 229.25685 492.9344 228.86623Q492.7625 228.45998 492.7625 227.19435L492.7625 222.42873L491.73126 222.42873L491.73126 221.33498L492.7625 221.33498L492.7625 219.27248L494.16876 218.42873L494.16876 221.33498L495.575 221.33498L495.575 222.42873L494.16876 222.42873L494.16876 227.27248Q494.16876 227.88185 494.23126 228.05373Q494.3094 228.2256 494.48126 228.33498Q494.65314 228.42873 494.96564 228.42873Q495.2 228.42873 495.575 228.36623ZM496.5125 229.63185L496.5125 218.17873L497.91876 218.17873L497.91876 222.2881Q498.90314 221.14748 500.40314 221.14748Q501.325 221.14748 501.9969 221.50685Q502.6844 221.86623 502.96564 222.50685Q503.2625 223.14748 503.2625 224.36623L503.2625 229.63185L501.85626 229.63185L501.85626 224.36623Q501.85626 223.31935 501.40314 222.83498Q500.95 222.3506 500.10626 222.3506Q499.48126 222.3506 498.9344 222.67873Q498.3875 223.00685 498.15314 223.56935Q497.91876 224.11623 497.91876 225.08498L497.91876 229.63185L496.5125 229.63185ZM505.5125 229.63185L505.5125 221.33498L506.77814 221.33498L506.77814 222.50685Q507.6844 221.14748 509.41876 221.14748Q510.16876 221.14748 510.79376 221.4131Q511.41876 221.67873 511.73126 222.11623Q512.04376 222.55373 512.16876 223.1631Q512.2469 223.55373 512.2469 224.52248L512.2469 229.63185L510.84064 229.63185L510.84064 224.58498Q510.84064 223.7256 510.66876 223.30373Q510.5125 222.86623 510.09064 222.61623Q509.6844 222.36623 509.1219 222.36623Q508.21564 222.36623 507.5594 222.94435Q506.91876 223.50685 506.91876 225.1006L506.91876 229.63185L505.5125 229.63185ZM514.5125 219.7881L514.5125 218.17873L515.91876 218.17873L515.91876 219.7881L514.5125 219.7881ZM514.5125 229.63185L514.5125 221.33498L515.91876 221.33498L515.91876 229.63185L514.5125 229.63185ZM523.91876 226.58498L525.3094 226.77248Q525.075 228.19435 524.1375 229.00685Q523.21564 229.81935 521.85626 229.81935Q520.15314 229.81935 519.10626 228.70998Q518.075 227.58498 518.075 225.50685Q518.075 224.1631 518.5125 223.1631Q518.96564 222.14748 519.8719 221.64748Q520.79376 221.14748 521.85626 221.14748Q523.21564 221.14748 524.075 221.83498Q524.9344 222.50685 525.16876 223.77248L523.8094 223.9756Q523.60626 223.14748 523.10626 222.7256Q522.6219 222.30373 521.91876 222.30373Q520.85626 222.30373 520.1844 223.06935Q519.52814 223.81935 519.52814 225.4756Q519.52814 227.14748 520.16876 227.9131Q520.8094 228.6631 521.84064 228.6631Q522.66876 228.6631 523.21564 228.1631Q523.77814 227.64748 523.91876 226.58498ZM536.04376 225.13185L536.04376 223.7881L540.90314 223.7881L540.90314 228.0381Q539.77814 228.92873 538.59064 229.38185Q537.40314 229.83498 536.15314 229.83498Q534.46564 229.83498 533.09064 229.11623Q531.71564 228.38185 531.0125 227.02248Q530.3094 225.64748 530.3094 223.95998Q530.3094 222.2881 530.9969 220.83498Q531.7 219.38185 533.0125 218.67873Q534.325 217.9756 536.04376 217.9756Q537.27814 217.9756 538.27814 218.38185Q539.29376 218.7881 539.85626 219.50685Q540.4344 220.2256 540.73126 221.38185L539.35626 221.75685Q539.10626 220.88185 538.71564 220.38185Q538.34064 219.88185 537.6219 219.58498Q536.91876 219.27248 536.04376 219.27248Q535.0125 219.27248 534.2469 219.6006Q533.4969 219.9131 533.02814 220.42873Q532.5594 220.94435 532.3094 221.55373Q531.8719 222.61623 531.8719 223.86623Q531.8719 225.39748 532.3875 226.42873Q532.91876 227.45998 533.91876 227.95998Q534.9344 228.45998 536.075 228.45998Q537.0594 228.45998 537.9969 228.08498Q538.9344 227.69435 539.41876 227.27248L539.41876 225.13185L536.04376 225.13185ZM542.4969 229.63185L542.4969 221.33498L543.7625 221.33498L543.7625 222.58498Q544.2469 221.70998 544.65314 221.42873Q545.0594 221.14748 545.5594 221.14748Q546.2625 221.14748 546.9969 221.6006L546.5125 222.89748Q545.9969 222.6006 545.48126 222.6006Q545.02814 222.6006 544.65314 222.88185Q544.29376 223.14748 544.1375 223.64748Q543.90314 224.39748 543.90314 225.2881L543.90314 229.63185L542.4969 229.63185ZM546.98126 225.4756Q546.98126 223.17873 548.2625 222.06935Q549.34064 221.14748 550.8719 221.14748Q552.59064 221.14748 553.66876 222.27248Q554.7625 223.38185 554.7625 225.36623Q554.7625 226.95998 554.27814 227.88185Q553.79376 228.80373 552.8719 229.31935Q551.96564 229.81935 550.8719 229.81935Q549.1375 229.81935 548.0594 228.70998Q546.98126 227.58498 546.98126 225.4756ZM548.4344 225.4756Q548.4344 227.06935 549.1219 227.86623Q549.825 228.6631 550.8719 228.6631Q551.91876 228.6631 552.60626 227.86623Q553.3094 227.06935 553.3094 225.42873Q553.3094 223.89748 552.60626 223.1006Q551.91876 222.30373 550.8719 222.30373Q549.825 222.30373 549.1219 223.1006Q548.4344 223.88185 548.4344 225.4756ZM561.95 229.63185L561.95 228.4131Q560.98126 229.81935 559.3094 229.81935Q558.575 229.81935 557.9344 229.5381Q557.3094 229.25685 556.9969 228.83498Q556.6844 228.39748 556.5594 227.7881Q556.48126 227.36623 556.48126 226.4756L556.48126 221.33498L557.8875 221.33498L557.8875 225.92873Q557.8875 227.0381 557.96564 227.4131Q558.10626 227.9756 558.52814 228.2881Q558.96564 228.6006 559.59064 228.6006Q560.23126 228.6006 560.77814 228.2881Q561.34064 227.95998 561.5594 227.39748Q561.79376 226.83498 561.79376 225.77248L561.79376 221.33498L563.2 221.33498L563.2 229.63185L561.95 229.63185ZM565.5125 232.81935L565.5125 221.33498L566.79376 221.33498L566.79376 222.4131Q567.2469 221.77248 567.8094 221.45998Q568.3875 221.14748 569.2 221.14748Q570.2625 221.14748 571.075 221.69435Q571.8875 222.24123 572.29376 223.24123Q572.71564 224.2256 572.71564 225.4131Q572.71564 226.69435 572.2469 227.70998Q571.79376 228.7256 570.91876 229.27248Q570.0594 229.81935 569.09064 229.81935Q568.3875 229.81935 567.825 229.52248Q567.27814 229.2256 566.91876 228.77248L566.91876 232.81935L565.5125 232.81935ZM566.77814 225.52248Q566.77814 227.13185 567.41876 227.89748Q568.075 228.6631 568.9969 228.6631Q569.9344 228.6631 570.60626 227.86623Q571.27814 227.06935 571.27814 225.4131Q571.27814 223.81935 570.6219 223.0381Q569.96564 222.24123 569.0594 222.24123Q568.16876 222.24123 567.46564 223.08498Q566.77814 223.92873 566.77814 225.52248ZM573.95 227.14748L575.34064 226.92873Q575.45 227.77248 575.98126 228.2256Q576.52814 228.6631 577.48126 228.6631Q578.45 228.6631 578.91876 228.27248Q579.3875 227.86623 579.3875 227.33498Q579.3875 226.86623 578.98126 226.58498Q578.6844 226.39748 577.54376 226.11623Q575.9969 225.7256 575.3875 225.44435Q574.79376 225.14748 574.48126 224.64748Q574.1844 224.14748 574.1844 223.5381Q574.1844 222.9756 574.4344 222.50685Q574.6844 222.0381 575.1219 221.7256Q575.45 221.4756 576.0125 221.31935Q576.59064 221.14748 577.23126 221.14748Q578.21564 221.14748 578.95 221.42873Q579.6844 221.70998 580.02814 222.19435Q580.3875 222.6631 580.52814 223.4756L579.15314 223.6631Q579.0594 223.02248 578.60626 222.6631Q578.15314 222.30373 577.34064 222.30373Q576.3719 222.30373 575.95 222.63185Q575.54376 222.94435 575.54376 223.36623Q575.54376 223.64748 575.71564 223.86623Q575.8875 224.08498 576.2469 224.24123Q576.46564 224.31935 577.4969 224.6006Q578.98126 224.99123 579.575 225.25685Q580.16876 225.50685 580.4969 225.99123Q580.84064 226.4756 580.84064 227.19435Q580.84064 227.89748 580.41876 228.52248Q580.0125 229.13185 579.23126 229.4756Q578.46564 229.81935 577.4969 229.81935Q575.8719 229.81935 575.02814 229.14748Q574.1844 228.4756 573.95 227.14748Z" fill-rule="nonzero"/><path fill="#9e9e9e" d="M537.1219 248.63185L538.59064 248.50685Q538.7625 249.58498 539.35626 250.13185Q539.95 250.6631 540.79376 250.6631Q541.8094 250.6631 542.5125 249.89748Q543.21564 249.13185 543.21564 247.86623Q543.21564 246.6631 542.54376 245.9756Q541.8719 245.27248 540.77814 245.27248Q540.09064 245.27248 539.54376 245.58498Q538.9969 245.89748 538.6844 246.38185L537.3719 246.20998L538.48126 240.33498L544.16876 240.33498L544.16876 241.67873L539.60626 241.67873L538.98126 244.75685Q540.0125 244.0381 541.15314 244.0381Q542.65314 244.0381 543.6844 245.08498Q544.71564 246.11623 544.71564 247.74123Q544.71564 249.30373 543.8094 250.42873Q542.7 251.83498 540.79376 251.83498Q539.23126 251.83498 538.2469 250.95998Q537.2625 250.06935 537.1219 248.63185ZM546.21564 241.67873L546.21564 240.31935L553.6219 240.31935L553.6219 241.4131Q552.52814 242.58498 551.45 244.52248Q550.3875 246.44435 549.79376 248.4756Q549.3719 249.9131 549.2625 251.63185L547.8094 251.63185Q547.84064 250.27248 548.34064 248.36623Q548.85626 246.44435 549.79376 244.67873Q550.7469 242.89748 551.825 241.67873L546.21564 241.67873ZM555.90314 251.63185L555.90314 250.02248L557.5125 250.02248L557.5125 251.63185L555.90314 251.63185ZM564.41876 251.63185L563.0125 251.63185L563.0125 242.6631Q562.4969 243.14748 561.66876 243.63185Q560.85626 244.11623 560.2 244.36623L560.2 243.00685Q561.3719 242.44435 562.2469 241.6631Q563.1375 240.86623 563.5125 240.13185L564.41876 240.13185L564.41876 251.63185ZM568.3875 242.92873Q568.3875 241.69435 568.9969 240.83498Q569.6219 239.9756 570.79376 239.9756Q571.8719 239.9756 572.575 240.75685Q573.27814 241.52248 573.27814 243.00685Q573.27814 244.45998 572.5594 245.25685Q571.85626 246.0381 570.8094 246.0381Q569.7625 246.0381 569.075 245.27248Q568.3875 244.49123 568.3875 242.92873ZM570.825 240.94435Q570.3094 240.94435 569.95 241.39748Q569.60626 241.8506 569.60626 243.06935Q569.60626 244.1631 569.95 244.61623Q570.3094 245.06935 570.825 245.06935Q571.35626 245.06935 571.7 244.61623Q572.0594 244.1631 572.0594 242.95998Q572.0594 241.8506 571.7 241.39748Q571.35626 240.94435 570.825 240.94435ZM570.84064 252.05373L577.10626 239.9756L578.2469 239.9756L571.9969 252.05373L570.84064 252.05373ZM575.79376 248.94435Q575.79376 247.70998 576.40314 246.8506Q577.02814 245.99123 578.2 245.99123Q579.27814 245.99123 579.98126 246.77248Q580.7 247.5381 580.7 249.02248Q580.7 250.4756 579.98126 251.27248Q579.2625 252.05373 578.21564 252.05373Q577.16876 252.05373 576.48126 251.27248Q575.79376 250.49123 575.79376 248.94435ZM578.2469 246.95998Q577.71564 246.95998 577.35626 247.4131Q577.0125 247.86623 577.0125 249.08498Q577.0125 250.17873 577.35626 250.63185Q577.71564 251.08498 578.23126 251.08498Q578.77814 251.08498 579.1219 250.63185Q579.46564 250.17873 579.46564 248.9756Q579.46564 247.86623 579.10626 247.4131Q578.7625 246.95998 578.2469 246.95998Z" fill-rule="nonzero"/><path stroke="#757575" stroke-width="1.0" stroke-linecap="butt" d="M581.45 235.13185L454.76666 235.13185L437.78494 235.13185" fill-rule="nonzero"/><path fill="#9e9e9e" d="M439.78494 235.13185C439.78494 234.02728 438.8895 233.13185 437.78494 233.13185C436.68036 233.13185 435.78494 234.02728 435.78494 235.13185C435.78494 236.23642 436.68036 237.13185 437.78494 237.13185C438.8895 237.13185 439.78494 236.23642 439.78494 235.13185" fill-rule="nonzero"/><path fill="#f3f3f3" d="M271.26562 32.534374L273.15625 33.003124Q272.5625 35.346874 271.01562 36.58125Q269.46875 37.8 267.21875 37.8Q264.90625 37.8 263.45312 36.8625Q262.01562 35.909374 261.25 34.128124Q260.5 32.33125 260.5 30.284374Q260.5 28.05 261.34375 26.39375Q262.20312 24.721874 263.78125 23.8625Q265.35938 22.9875 267.25 22.9875Q269.40625 22.9875 270.85938 24.08125Q272.32812 25.175 272.90625 27.159374L271.04688 27.596874Q270.54688 26.034374 269.59375 25.33125Q268.65625 24.6125 267.21875 24.6125Q265.5625 24.6125 264.45312 25.409374Q263.34375 26.190624 262.89062 27.534374Q262.45312 28.8625 262.45312 30.26875Q262.45312 32.096874 262.98438 33.471874Q263.51562 34.83125 264.64062 35.503124Q265.76562 36.175 267.0625 36.175Q268.65625 36.175 269.76562 35.253124Q270.875 34.33125 271.26562 32.534374ZM281.59375 36.26875Q280.60938 37.096874 279.70312 37.440624Q278.79688 37.784374 277.76562 37.784374Q276.0625 37.784374 275.14062 36.95625Q274.21875 36.1125 274.21875 34.815624Q274.21875 34.05 274.5625 33.425Q274.92188 32.8 275.48438 32.425Q276.04688 32.034374 276.75 31.83125Q277.26562 31.70625 278.3125 31.565624Q280.4375 31.315624 281.4375 30.971874Q281.45312 30.6125 281.45312 30.503124Q281.45312 29.440624 280.95312 28.9875Q280.28125 28.39375 278.95312 28.39375Q277.70312 28.39375 277.10938 28.83125Q276.53125 29.26875 276.25 30.378124L274.53125 30.14375Q274.76562 29.034374 275.29688 28.3625Q275.82812 27.675 276.84375 27.315624Q277.85938 26.940624 279.20312 26.940624Q280.53125 26.940624 281.35938 27.253124Q282.1875 27.565624 282.57812 28.05Q282.96875 28.51875 283.125 29.2375Q283.21875 29.690624 283.21875 30.8625L283.21875 33.20625Q283.21875 35.659374 283.32812 36.315624Q283.4375 36.95625 283.78125 37.55L281.9375 37.55Q281.67188 37.003124 281.59375 36.26875ZM281.4375 32.346874Q280.48438 32.7375 278.5625 33.003124Q277.48438 33.159374 277.03125 33.3625Q276.59375 33.55 276.34375 33.925Q276.09375 34.3 276.09375 34.76875Q276.09375 35.471874 276.625 35.940624Q277.15625 36.409374 278.1875 36.409374Q279.20312 36.409374 279.98438 35.971874Q280.78125 35.51875 281.15625 34.753124Q281.4375 34.14375 281.4375 32.9875L281.4375 32.346874ZM289.65625 35.971874L289.90625 37.534374Q289.17188 37.690624 288.57812 37.690624Q287.625 37.690624 287.09375 37.39375Q286.57812 37.08125 286.35938 36.596874Q286.14062 36.096874 286.14062 34.51875L286.14062 28.55L284.85938 28.55L284.85938 27.175L286.14062 27.175L286.14062 24.6125L287.89062 23.55L287.89062 27.175L289.65625 27.175L289.65625 28.55L287.89062 28.55L287.89062 34.6125Q287.89062 35.3625 287.98438 35.58125Q288.07812 35.784374 288.28125 35.925Q288.5 36.05 288.89062 36.05Q289.17188 36.05 289.65625 35.971874ZM298.92188 34.20625L300.73438 34.440624Q300.3125 36.01875 299.14062 36.909374Q297.98438 37.784374 296.17188 37.784374Q293.90625 37.784374 292.5625 36.39375Q291.23438 34.9875 291.23438 32.45625Q291.23438 29.83125 292.57812 28.39375Q293.92188 26.940624 296.07812 26.940624Q298.15625 26.940624 299.46875 28.3625Q300.79688 29.76875 300.79688 32.346874Q300.79688 32.503124 300.78125 32.815624L293.04688 32.815624Q293.14062 34.51875 294.01562 35.425Q294.89062 36.33125 296.1875 36.33125Q297.15625 36.33125 297.82812 35.83125Q298.51562 35.315624 298.92188 34.20625ZM293.14062 31.3625L298.9375 31.3625Q298.82812 30.065624 298.28125 29.409374Q297.4375 28.39375 296.09375 28.39375Q294.89062 28.39375 294.0625 29.20625Q293.23438 30.003124 293.14062 31.3625ZM302.5 38.409374L304.20312 38.659374Q304.3125 39.45625 304.79688 39.815624Q305.45312 40.3 306.59375 40.3Q307.8125 40.3 308.46875 39.815624Q309.14062 39.33125 309.375 38.45625Q309.51562 37.909374 309.5 36.190624Q308.34375 37.55 306.625 37.55Q304.48438 37.55 303.3125 36.003124Q302.14062 34.45625 302.14062 32.3Q302.14062 30.815624 302.67188 29.565624Q303.21875 28.315624 304.23438 27.628124Q305.26562 26.940624 306.64062 26.940624Q308.46875 26.940624 309.67188 28.425L309.67188 27.175L311.28125 27.175L311.28125 36.14375Q311.28125 38.565624 310.78125 39.565624Q310.29688 40.58125 309.21875 41.159374Q308.15625 41.753124 306.59375 41.753124Q304.75 41.753124 303.59375 40.925Q302.45312 40.096874 302.5 38.409374ZM303.95312 32.175Q303.95312 34.221874 304.76562 35.159374Q305.57812 36.096874 306.79688 36.096874Q308.0 36.096874 308.8125 35.159374Q309.64062 34.221874 309.64062 32.2375Q309.64062 30.33125 308.79688 29.3625Q307.95312 28.39375 306.76562 28.39375Q305.59375 28.39375 304.76562 29.346874Q303.95312 30.3 303.95312 32.175ZM313.17188 32.3625Q313.17188 29.4875 314.76562 28.096874Q316.10938 26.940624 318.03125 26.940624Q320.17188 26.940624 321.51562 28.346874Q322.875 29.753124 322.875 32.221874Q322.875 34.221874 322.28125 35.378124Q321.6875 36.51875 320.53125 37.159374Q319.39062 37.784374 318.03125 37.784374Q315.84375 37.784374 314.5 36.39375Q313.17188 34.9875 313.17188 32.3625ZM314.96875 32.3625Q314.96875 34.3625 315.82812 35.346874Q316.70312 36.33125 318.03125 36.33125Q319.34375 36.33125 320.20312 35.346874Q321.07812 34.346874 321.07812 32.3Q321.07812 30.378124 320.20312 29.39375Q319.32812 28.39375 318.03125 28.39375Q316.70312 28.39375 315.82812 29.39375Q314.96875 30.378124 314.96875 32.3625ZM324.79688 37.55L324.79688 27.175L326.375 27.175L326.375 28.753124Q326.98438 27.64375 327.5 27.3Q328.01562 26.940624 328.625 26.940624Q329.51562 26.940624 330.4375 27.503124L329.82812 29.14375Q329.1875 28.753124 328.54688 28.753124Q327.96875 28.753124 327.5 29.1125Q327.04688 29.45625 326.84375 30.065624Q326.5625 31.003124 326.5625 32.1125L326.5625 37.55L324.79688 37.55ZM331.73438 41.55L331.54688 39.89375Q332.125 40.05 332.54688 40.05Q333.14062 40.05 333.48438 39.846874Q333.84375 39.659374 334.0625 39.315624Q334.23438 39.05 334.60938 38.003124Q334.65625 37.846874 334.76562 37.565624L330.82812 27.175L332.71875 27.175L334.875 33.190624Q335.29688 34.33125 335.625 35.58125Q335.9375 34.378124 336.34375 33.221874L338.5625 27.175L340.32812 27.175L336.375 37.721874Q335.75 39.440624 335.39062 40.08125Q334.92188 40.95625 334.3125 41.346874Q333.71875 41.753124 332.875 41.753124Q332.35938 41.753124 331.73438 41.55Z" fill-rule="nonzero"/></svg>