<svg version="1.1" viewBox="0.0 0.0 600.0 371.0" fill="none" stroke="none" stroke-linecap="square" stroke-miterlimit="10" width="600" height="371" xmlns:xlink="http://www.w3.org/1999/xlink" xmlns="http://www.w3.org/2000/svg"><path fill="#ffffff" fill-opacity="0.0" d="M0 0L600.0 0L600.0 371.0L0 371.0L0 0Z" fill-rule="nonzero"/><path fill="#e5a345" d="M183.68953 110.92883C211.91702 75.53269 254.72664 54.916668 300.0 54.916668L300.0 166.49167C288.68167 166.49167 277.97925 171.64568 270.9224 180.4947Z" fill-rule="nonzero"/><path fill="#d8753e" d="M154.96323 236.78703C144.88895 192.64877 155.46205 146.32497 183.68953 110.92883L270.9224 180.4947C263.8655 189.34375 261.22223 200.9247 263.7408 211.95926Z" fill-rule="nonzero"/><path fill="#cf4366" d="M300.0 54.916668C377.84882 54.916668 442.53305 114.934845 448.35068 192.56598C454.16833 270.1971 399.15182 339.18564 322.17252 350.7884C245.1932 362.39117 172.28621 312.68402 154.96323 236.78703L263.7408 211.95926C268.07156 230.9335 286.2983 243.36029 305.54312 240.4596C324.78796 237.55891 338.54208 220.31178 337.08768 200.90399C335.63327 181.49622 319.46222 166.49167 300.0 166.49167Z" fill-rule="nonzero"/><path fill="#ffffff" d="M354.5442 262.128L354.5442 260.61237L362.8723 260.61237L362.8723 261.84674Q361.65356 263.15924 360.4348 265.33112Q359.2317 267.48737 358.57544 269.78424Q358.09106 271.40924 357.96606 273.33112L356.34106 273.33112Q356.3723 271.8155 356.9348 269.65924Q357.51294 267.503 358.57544 265.503Q359.63794 263.503 360.84106 262.128L354.5442 262.128ZM370.38794 273.33112L368.8098 273.33112L368.8098 263.253Q368.2317 263.79987 367.3098 264.34674Q366.38794 264.878 365.63794 265.15924L365.63794 263.628Q366.96606 263.003 367.96606 262.11237Q368.96606 261.22174 369.3723 260.39362L370.38794 260.39362L370.38794 273.33112ZM375.32544 273.33112L375.32544 271.53424L377.1223 271.53424L377.1223 273.33112L375.32544 273.33112ZM384.4973 273.33112L384.4973 270.253L378.9192 270.253L378.9192 268.79987L384.7942 260.4405L386.09106 260.4405L386.09106 268.79987L387.82544 268.79987L387.82544 270.253L386.09106 270.253L386.09106 273.33112L384.4973 273.33112ZM384.4973 268.79987L384.4973 262.98737L380.46606 268.79987L384.4973 268.79987ZM389.7317 263.53424Q389.7317 262.15924 390.4192 261.1905Q391.1223 260.22174 392.4348 260.22174Q393.65356 260.22174 394.45044 261.09674Q395.2473 261.95612 395.2473 263.64362Q395.2473 265.26862 394.4348 266.15924Q393.63794 267.03424 392.45044 267.03424Q391.2942 267.03424 390.51294 266.17487Q389.7317 265.29987 389.7317 263.53424ZM392.4817 261.3155Q391.88794 261.3155 391.4973 261.83112Q391.1067 262.33112 391.1067 263.6905Q391.1067 264.9405 391.4973 265.4405Q391.90356 265.9405 392.4817 265.9405Q393.07544 265.9405 393.46606 265.4405Q393.8567 264.92487 393.8567 263.58112Q393.8567 262.33112 393.46606 261.83112Q393.07544 261.3155 392.4817 261.3155ZM392.4973 273.79987L399.5442 260.22174L400.82544 260.22174L393.7942 273.79987L392.4973 273.79987ZM398.0598 270.29987Q398.0598 268.92487 398.7473 267.95612Q399.45044 266.98737 400.77856 266.98737Q401.9973 266.98737 402.77856 267.86237Q403.57544 268.72174 403.57544 270.40924Q403.57544 272.03424 402.77856 272.92487Q401.9817 273.79987 400.7942 273.79987Q399.6223 273.79987 398.84106 272.92487Q398.0598 272.04987 398.0598 270.29987ZM400.82544 268.08112Q400.2317 268.08112 399.84106 268.59674Q399.45044 269.09674 399.45044 270.47174Q399.45044 271.6905 399.84106 272.20612Q400.2317 272.72174 400.8098 272.72174Q401.4192 272.72174 401.8098 272.20612Q402.20044 271.6905 402.20044 270.34674Q402.20044 269.09674 401.8098 268.59674Q401.4192 268.08112 400.82544 268.08112Z" fill-rule="nonzero"/><path fill="#ffffff" d="M180.86472 187.28175L179.28659 187.28175L179.28659 177.20363Q178.70847 177.7505 177.78659 178.29738Q176.86472 178.82863 176.11472 179.10988L176.11472 177.57863Q177.44284 176.95363 178.44284 176.063Q179.44284 175.17238 179.84909 174.34425L180.86472 174.34425L180.86472 187.28175ZM189.97409 187.28175L189.97409 184.20363L184.39597 184.20363L184.39597 182.7505L190.27097 174.39113L191.56784 174.39113L191.56784 182.7505L193.30222 182.7505L193.30222 184.20363L191.56784 184.20363L191.56784 187.28175L189.97409 187.28175ZM189.97409 182.7505L189.97409 176.938L185.94284 182.7505L189.97409 182.7505ZM195.80222 187.28175L195.80222 185.48488L197.59909 185.48488L197.59909 187.28175L195.80222 187.28175ZM199.91159 183.8755L201.50534 183.67238Q201.77097 185.01613 202.42722 185.60988Q203.08347 186.20363 204.02097 186.20363Q205.14597 186.20363 205.91159 185.438Q206.67722 184.65675 206.67722 183.51613Q206.67722 182.42238 205.95847 181.71925Q205.25534 181.0005 204.16159 181.0005Q203.70847 181.0005 203.03659 181.188L203.20847 179.79738Q203.36472 179.813 203.47409 179.813Q204.47409 179.813 205.28659 179.28175Q206.09909 178.7505 206.09909 177.65675Q206.09909 176.78175 205.50534 176.21925Q204.91159 175.64113 203.98972 175.64113Q203.06784 175.64113 202.44284 176.21925Q201.83347 176.79738 201.66159 177.96925L200.08347 177.688Q200.36472 176.09425 201.39597 175.21925Q202.42722 174.34425 203.95847 174.34425Q205.00534 174.34425 205.89597 174.79738Q206.78659 175.2505 207.25534 176.03175Q207.72409 176.813 207.72409 177.688Q207.72409 178.53175 207.27097 179.21925Q206.83347 179.89113 205.94284 180.29738Q207.08347 180.563 207.70847 181.40675Q208.34909 182.23488 208.34909 183.46925Q208.34909 185.15675 207.11472 186.34425Q205.89597 187.51613 204.02097 187.51613Q202.31784 187.51613 201.19284 186.5005Q200.08347 185.48488 199.91159 183.8755ZM210.20847 177.48488Q210.20847 176.10988 210.89597 175.14113Q211.59909 174.17238 212.91159 174.17238Q214.13034 174.17238 214.92722 175.04738Q215.72409 175.90675 215.72409 177.59425Q215.72409 179.21925 214.91159 180.10988Q214.11472 180.98488 212.92722 180.98488Q211.77097 180.98488 210.98972 180.1255Q210.20847 179.2505 210.20847 177.48488ZM212.95847 175.26613Q212.36472 175.26613 211.97409 175.78175Q211.58347 176.28175 211.58347 177.64113Q211.58347 178.89113 211.97409 179.39113Q212.38034 179.89113 212.95847 179.89113Q213.55222 179.89113 213.94284 179.39113Q214.33347 178.8755 214.33347 177.53175Q214.33347 176.28175 213.94284 175.78175Q213.55222 175.26613 212.95847 175.26613ZM212.97409 187.7505L220.02097 174.17238L221.30222 174.17238L214.27097 187.7505L212.97409 187.7505ZM218.53659 184.2505Q218.53659 182.8755 219.22409 181.90675Q219.92722 180.938 221.25534 180.938Q222.47409 180.938 223.25534 181.813Q224.05222 182.67238 224.05222 184.35988Q224.05222 185.98488 223.25534 186.8755Q222.45847 187.7505 221.27097 187.7505Q220.09909 187.7505 219.31784 186.8755Q218.53659 186.0005 218.53659 184.2505ZM221.30222 182.03175Q220.70847 182.03175 220.31784 182.54738Q219.92722 183.04738 219.92722 184.42238Q219.92722 185.64113 220.31784 186.15675Q220.70847 186.67238 221.28659 186.67238Q221.89597 186.67238 222.28659 186.15675Q222.67722 185.64113 222.67722 184.29738Q222.67722 183.04738 222.28659 182.54738Q221.89597 182.03175 221.30222 182.03175Z" fill-rule="nonzero"/><path fill="#ffffff" d="M235.12228 114.495476L233.54416 114.495476L233.54416 104.41735Q232.96603 104.964226 232.04416 105.5111Q231.12228 106.04235 230.37228 106.3236L230.37228 104.79235Q231.70041 104.16735 232.70041 103.276726Q233.70041 102.3861 234.10666 101.557976L235.12228 101.557976L235.12228 114.495476ZM244.23166 114.495476L244.23166 111.41735L238.65353 111.41735L238.65353 109.964226L244.52853 101.60485L245.82541 101.60485L245.82541 109.964226L247.55978 109.964226L247.55978 111.41735L245.82541 111.41735L245.82541 114.495476L244.23166 114.495476ZM244.23166 109.964226L244.23166 104.151726L240.20041 109.964226L244.23166 109.964226ZM250.05978 114.495476L250.05978 112.6986L251.85666 112.6986L251.85666 114.495476L250.05978 114.495476ZM254.16916 111.089226L255.76291 110.8861Q256.02853 112.22985 256.68478 112.8236Q257.34103 113.41735 258.27853 113.41735Q259.40353 113.41735 260.16916 112.651726Q260.93478 111.870476 260.93478 110.72985Q260.93478 109.6361 260.21603 108.932976Q259.5129 108.214226 258.41916 108.214226Q257.96603 108.214226 257.29416 108.401726L257.46603 107.0111Q257.62228 107.026726 257.73166 107.026726Q258.73166 107.026726 259.54416 106.495476Q260.35666 105.964226 260.35666 104.870476Q260.35666 103.995476 259.7629 103.432976Q259.16916 102.85485 258.24728 102.85485Q257.3254 102.85485 256.7004 103.432976Q256.09103 104.0111 255.91916 105.182976L254.34103 104.901726Q254.62228 103.307976 255.65353 102.432976Q256.68478 101.557976 258.21603 101.557976Q259.2629 101.557976 260.15353 102.0111Q261.04416 102.464226 261.5129 103.245476Q261.98166 104.026726 261.98166 104.901726Q261.98166 105.745476 261.52853 106.432976Q261.09103 107.10485 260.2004 107.5111Q261.34103 107.776726 261.96603 108.620476Q262.60666 109.4486 262.60666 110.682976Q262.60666 112.370476 261.37228 113.557976Q260.15353 114.72985 258.27853 114.72985Q256.5754 114.72985 255.45041 113.714226Q254.34103 112.6986 254.16916 111.089226ZM264.46603 104.6986Q264.46603 103.3236 265.15353 102.35485Q265.85666 101.3861 267.16916 101.3861Q268.3879 101.3861 269.18478 102.2611Q269.98166 103.120476 269.98166 104.807976Q269.98166 106.432976 269.16916 107.3236Q268.37228 108.1986 267.18478 108.1986Q266.02853 108.1986 265.24728 107.339226Q264.46603 106.464226 264.46603 104.6986ZM267.21603 102.47985Q266.62228 102.47985 266.23166 102.995476Q265.84103 103.495476 265.84103 104.85485Q265.84103 106.10485 266.23166 106.60485Q266.6379 107.10485 267.21603 107.10485Q267.80978 107.10485 268.2004 106.60485Q268.59103 106.089226 268.59103 104.745476Q268.59103 103.495476 268.2004 102.995476Q267.80978 102.47985 267.21603 102.47985ZM267.23166 114.964226L274.27853 101.3861L275.55978 101.3861L268.52853 114.964226L267.23166 114.964226ZM272.79416 111.464226Q272.79416 110.089226 273.48166 109.120476Q274.18478 108.151726 275.5129 108.151726Q276.73166 108.151726 277.5129 109.026726Q278.30978 109.8861 278.30978 111.5736Q278.30978 113.1986 277.5129 114.089226Q276.71603 114.964226 275.52853 114.964226Q274.35666 114.964226 273.5754 114.089226Q272.79416 113.214226 272.79416 111.464226ZM275.55978 109.245476Q274.96603 109.245476 274.5754 109.7611Q274.18478 110.2611 274.18478 111.6361Q274.18478 112.85485 274.5754 113.370476Q274.96603 113.8861 275.54416 113.8861Q276.15353 113.8861 276.54416 113.370476Q276.93478 112.85485 276.93478 111.5111Q276.93478 110.2611 276.54416 109.7611Q276.15353 109.245476 275.55978 109.245476Z" fill-rule="nonzero"/><path stroke="#ffffff" stroke-width="1.0" stroke-linejoin="round" stroke-linecap="round" d="M263.7408 211.95926C268.07156 230.9335 286.2983 243.36029 305.54312 240.4596C324.78796 237.55891 338.54208 220.31178 337.08768 200.90399C335.63327 181.49622 319.46222 166.49167 300.0 166.49167L300.0 54.916668C377.84882 54.916668 442.53305 114.934845 448.35068 192.56598C454.16833 270.1971 399.15182 339.18564 322.17252 350.7884C245.1932 362.39117 172.28621 312.68402 154.96323 236.78703" fill-rule="nonzero"/><path stroke="#ffffff" stroke-width="1.0" stroke-linejoin="round" stroke-linecap="round" d="M270.9224 180.4947C263.8655 189.34375 261.22223 200.9247 263.7408 211.95926L154.96323 236.78703C144.88895 192.64877 155.46205 146.32497 183.68953 110.92883" fill-rule="nonzero"/><path stroke="#ffffff" stroke-width="1.0" stroke-linejoin="round" stroke-linecap="round" d="M300.0 166.49167C288.68167 166.49167 277.97925 171.64568 270.9224 180.4947L183.68953 110.92883C211.91702 75.53269 254.72664 54.916668 300.0 54.916668" fill-rule="nonzero"/><path fill="#efefef" d="M27.3 59.39778L28.815624 59.39778L28.815624 66.00716Q28.815624 67.74153 28.425 68.75716Q28.034374 69.77278 27.01875 70.41341Q26.003124 71.05403 24.346874 71.05403Q22.7375 71.05403 21.70625 70.49153Q20.690624 69.92903 20.253124 68.88216Q19.815624 67.83528 19.815624 66.00716L19.815624 59.39778L21.33125 59.39778L21.33125 66.00716Q21.33125 67.49153 21.596874 68.21028Q21.878124 68.91341 22.55 69.30403Q23.2375 69.67903 24.20625 69.67903Q25.878124 69.67903 26.58125 68.92903Q27.3 68.16341 27.3 66.00716L27.3 59.39778ZM31.596874 70.85091L31.596874 62.55403L32.8625 62.55403L32.8625 63.80403Q33.346874 62.92903 33.753124 62.64778Q34.159374 62.36653 34.659374 62.36653Q35.3625 62.36653 36.096874 62.819656L35.6125 64.11653Q35.096874 63.819656 34.58125 63.819656Q34.128124 63.819656 33.753124 64.10091Q33.39375 64.36653 33.2375 64.86653Q33.003124 65.61653 33.003124 66.50716L33.003124 70.85091L31.596874 70.85091ZM37.909374 70.85091L36.596874 70.85091L36.596874 59.39778L38.003124 59.39778L38.003124 63.475906Q38.89375 62.36653 40.284374 62.36653Q41.05 62.36653 41.721874 62.67903Q42.409374 62.975906 42.846874 63.538406Q43.3 64.10091 43.55 64.89778Q43.8 65.67903 43.8 66.56966Q43.8 68.71028 42.7375 69.88216Q41.690624 71.03841 40.20625 71.03841Q38.7375 71.03841 37.909374 69.80403L37.909374 70.85091ZM37.89375 66.63216Q37.89375 68.13216 38.3 68.78841Q38.95625 69.88216 40.096874 69.88216Q41.01875 69.88216 41.690624 69.08528Q42.3625 68.27278 42.3625 66.69466Q42.3625 65.06966 41.70625 64.30403Q41.065624 63.52278 40.159374 63.52278Q39.2375 63.52278 38.565624 64.31966Q37.89375 65.11653 37.89375 66.63216ZM51.01875 69.81966Q50.2375 70.49153 49.51875 70.77278Q48.8 71.03841 47.971874 71.03841Q46.596874 71.03841 45.8625 70.36653Q45.128124 69.69466 45.128124 68.66341Q45.128124 68.05403 45.409374 67.55403Q45.690624 67.03841 46.128124 66.74153Q46.58125 66.42903 47.14375 66.27278Q47.565624 66.16341 48.39375 66.06966Q50.096874 65.86653 50.909374 65.58528Q50.909374 65.28841 50.909374 65.21028Q50.909374 64.35091 50.51875 64.00716Q49.971874 63.52278 48.909374 63.52278Q47.925 63.52278 47.440624 63.882156Q46.971874 64.22591 46.753124 65.10091L45.378124 64.91341Q45.565624 64.03841 45.9875 63.49153Q46.425 62.944656 47.2375 62.663406Q48.05 62.36653 49.1125 62.36653Q50.175 62.36653 50.83125 62.61653Q51.503124 62.86653 51.815624 63.24153Q52.128124 63.61653 52.253124 64.19466Q52.33125 64.55403 52.33125 65.49153L52.33125 67.36653Q52.33125 69.33528 52.409374 69.85091Q52.503124 70.36653 52.76875 70.85091L51.3 70.85091Q51.08125 70.41341 51.01875 69.81966ZM50.909374 66.67903Q50.14375 66.99153 48.6125 67.21028Q47.7375 67.33528 47.378124 67.49153Q47.01875 67.64778 46.815624 67.96028Q46.628124 68.25716 46.628124 68.61653Q46.628124 69.17903 47.05 69.55403Q47.4875 69.92903 48.3 69.92903Q49.1125 69.92903 49.7375 69.58528Q50.378124 69.22591 50.675 68.60091Q50.909374 68.13216 50.909374 67.19466L50.909374 66.67903ZM54.6125 70.85091L54.6125 62.55403L55.878124 62.55403L55.878124 63.725906Q56.784374 62.36653 58.51875 62.36653Q59.26875 62.36653 59.89375 62.632156Q60.51875 62.89778 60.83125 63.33528Q61.14375 63.77278 61.26875 64.38216Q61.346874 64.77278 61.346874 65.74153L61.346874 70.85091L59.940624 70.85091L59.940624 65.80403Q59.940624 64.94466 59.76875 64.52278Q59.6125 64.08528 59.190624 63.83528Q58.784374 63.58528 58.221874 63.58528Q57.315624 63.58528 56.659374 64.16341Q56.01875 64.72591 56.01875 66.31966L56.01875 70.85091L54.6125 70.85091ZM63.05 68.36653L64.44063 68.14778Q64.55 68.99153 65.08125 69.44466Q65.62813 69.88216 66.58125 69.88216Q67.55 69.88216 68.01875 69.49153Q68.4875 69.08528 68.4875 68.55403Q68.4875 68.08528 68.08125 67.80403Q67.78438 67.61653 66.64375 67.33528Q65.09688 66.94466 64.4875 66.66341Q63.89375 66.36653 63.58125 65.86653Q63.284374 65.36653 63.284374 64.75716Q63.284374 64.19466 63.534374 63.725906Q63.784374 63.257156 64.22188 62.944656Q64.55 62.694656 65.1125 62.538406Q65.69063 62.36653 66.33125 62.36653Q67.31563 62.36653 68.05 62.64778Q68.78438 62.92903 69.12813 63.413406Q69.4875 63.882156 69.62813 64.69466L68.25313 64.88216Q68.15938 64.24153 67.70625 63.882156Q67.25313 63.52278 66.44063 63.52278Q65.47188 63.52278 65.05 63.850906Q64.64375 64.16341 64.64375 64.58528Q64.64375 64.86653 64.81563 65.08528Q64.9875 65.30403 65.34688 65.46028Q65.56563 65.53841 66.59688 65.81966Q68.08125 66.21028 68.675 66.47591Q69.26875 66.72591 69.59688 67.21028Q69.94063 67.69466 69.94063 68.41341Q69.94063 69.11653 69.51875 69.74153Q69.1125 70.35091 68.33125 70.69466Q67.56563 71.03841 66.59688 71.03841Q64.97188 71.03841 64.12813 70.36653Q63.284374 69.69466 63.05 68.36653ZM77.01875 67.80403L78.40938 67.99153Q78.175 69.41341 77.2375 70.22591Q76.31563 71.03841 74.95625 71.03841Q73.25313 71.03841 72.20625 69.92903Q71.175 68.80403 71.175 66.72591Q71.175 65.38216 71.6125 64.38216Q72.06563 63.36653 72.97188 62.86653Q73.89375 62.36653 74.95625 62.36653Q76.31563 62.36653 77.175 63.05403Q78.03438 63.725906 78.26875 64.99153L76.90938 65.19466Q76.70625 64.36653 76.20625 63.944656Q75.72188 63.52278 75.01875 63.52278Q73.95625 63.52278 73.28438 64.28841Q72.62813 65.03841 72.62813 66.69466Q72.62813 68.36653 73.26875 69.13216Q73.90938 69.88216 74.94063 69.88216Q75.76875 69.88216 76.31563 69.38216Q76.87813 68.86653 77.01875 67.80403ZM85.01875 69.81966Q84.2375 70.49153 83.51875 70.77278Q82.8 71.03841 81.97188 71.03841Q80.59688 71.03841 79.8625 70.36653Q79.12813 69.69466 79.12813 68.66341Q79.12813 68.05403 79.40938 67.55403Q79.69063 67.03841 80.12813 66.74153Q80.58125 66.42903 81.14375 66.27278Q81.56563 66.16341 82.39375 66.06966Q84.09688 65.86653 84.90938 65.58528Q84.90938 65.28841 84.90938 65.21028Q84.90938 64.35091 84.51875 64.00716Q83.97188 63.52278 82.90938 63.52278Q81.925 63.52278 81.44063 63.882156Q80.97188 64.22591 80.75313 65.10091L79.37813 64.91341Q79.56563 64.03841 79.9875 63.49153Q80.425 62.944656 81.2375 62.663406Q82.05 62.36653 83.1125 62.36653Q84.175 62.36653 84.83125 62.61653Q85.50313 62.86653 85.81563 63.24153Q86.12813 63.61653 86.25313 64.19466Q86.33125 64.55403 86.33125 65.49153L86.33125 67.36653Q86.33125 69.33528 86.40938 69.85091Q86.50313 70.36653 86.76875 70.85091L85.3 70.85091Q85.08125 70.41341 85.01875 69.81966ZM84.90938 66.67903Q84.14375 66.99153 82.6125 67.21028Q81.7375 67.33528 81.37813 67.49153Q81.01875 67.64778 80.81563 67.96028Q80.62813 68.25716 80.62813 68.61653Q80.62813 69.17903 81.05 69.55403Q81.4875 69.92903 82.3 69.92903Q83.1125 69.92903 83.7375 69.58528Q84.37813 69.22591 84.675 68.60091Q84.90938 68.13216 84.90938 67.19466L84.90938 66.67903ZM88.6125 74.03841L88.6125 62.55403L89.89375 62.55403L89.89375 63.632156Q90.34688 62.99153 90.90938 62.67903Q91.4875 62.36653 92.3 62.36653Q93.3625 62.36653 94.175 62.913406Q94.9875 63.46028 95.39375 64.46028Q95.81563 65.44466 95.81563 66.63216Q95.81563 67.91341 95.34688 68.92903Q94.89375 69.94466 94.01875 70.49153Q93.15938 71.03841 92.19063 71.03841Q91.4875 71.03841 90.925 70.74153Q90.37813 70.44466 90.01875 69.99153L90.01875 74.03841L88.6125 74.03841ZM89.87813 66.74153Q89.87813 68.35091 90.51875 69.11653Q91.175 69.88216 92.09688 69.88216Q93.03438 69.88216 93.70625 69.08528Q94.37813 68.28841 94.37813 66.63216Q94.37813 65.03841 93.72188 64.25716Q93.06563 63.46028 92.15938 63.46028Q91.26875 63.46028 90.56563 64.30403Q89.87813 65.14778 89.87813 66.74153ZM103.28438 68.17903L104.7375 68.35091Q104.39375 69.63216 103.45625 70.33528Q102.53438 71.03841 101.09688 71.03841Q99.26875 71.03841 98.20625 69.91341Q97.14375 68.78841 97.14375 66.77278Q97.14375 64.67903 98.22188 63.52278Q99.3 62.36653 101.01875 62.36653Q102.675 62.36653 103.72188 63.507156Q104.78438 64.63216 104.78438 66.67903Q104.78438 66.80403 104.78438 67.05403L98.59688 67.05403Q98.675 68.42903 99.3625 69.16341Q100.06563 69.88216 101.09688 69.88216Q101.87813 69.88216 102.425 69.47591Q102.97188 69.06966 103.28438 68.17903ZM98.675 65.89778L103.3 65.89778Q103.20625 64.85091 102.76875 64.33528Q102.09688 63.52278 101.03438 63.52278Q100.06563 63.52278 99.39375 64.17903Q98.7375 64.81966 98.675 65.89778Z" fill-rule="nonzero"/><path fill="#9e9e9e" d="M24.51875 92.85091L23.1125 92.85091L23.1125 83.88216Q22.596874 84.36653 21.76875 84.85091Q20.95625 85.33528 20.3 85.58528L20.3 84.22591Q21.471874 83.66341 22.346874 82.88216Q23.2375 82.08528 23.6125 81.35091L24.51875 81.35091L24.51875 92.85091ZM32.721874 92.85091L32.721874 90.10091L27.753124 90.10091L27.753124 88.81966L32.9875 81.39778L34.128124 81.39778L34.128124 88.81966L35.675 88.81966L35.675 90.10091L34.128124 90.10091L34.128124 92.85091L32.721874 92.85091ZM32.721874 88.81966L32.721874 83.64778L29.14375 88.81966L32.721874 88.81966ZM38.003124 92.85091L38.003124 91.24153L39.6125 91.24153L39.6125 92.85091L38.003124 92.85091ZM41.221874 89.81966L42.628124 89.63216Q42.878124 90.83528 43.45625 91.36653Q44.034374 91.88216 44.878124 91.88216Q45.8625 91.88216 46.55 91.19466Q47.2375 90.50716 47.2375 89.49153Q47.2375 88.52278 46.596874 87.89778Q45.971874 87.27278 44.9875 87.27278Q44.596874 87.27278 44.003124 87.42903L44.159374 86.19466Q44.3 86.21028 44.378124 86.21028Q45.284374 86.21028 46.003124 85.74153Q46.721874 85.27278 46.721874 84.28841Q46.721874 83.52278 46.190624 83.02278Q45.675 82.50716 44.846874 82.50716Q44.01875 82.50716 43.471874 83.02278Q42.925 83.53841 42.76875 84.56966L41.3625 84.31966Q41.628124 82.89778 42.534374 82.13216Q43.45625 81.35091 44.815624 81.35091Q45.753124 81.35091 46.534374 81.75716Q47.33125 82.14778 47.7375 82.85091Q48.159374 83.53841 48.159374 84.31966Q48.159374 85.06966 47.753124 85.67903Q47.3625 86.28841 46.58125 86.64778Q47.596874 86.88216 48.159374 87.61653Q48.721874 88.35091 48.721874 89.46028Q48.721874 90.96028 47.628124 92.00716Q46.534374 93.05403 44.8625 93.05403Q43.3625 93.05403 42.3625 92.16341Q41.3625 91.25716 41.221874 89.81966ZM50.4875 84.14778Q50.4875 82.91341 51.096874 82.05403Q51.721874 81.19466 52.89375 81.19466Q53.971874 81.19466 54.675 81.97591Q55.378124 82.74153 55.378124 84.22591Q55.378124 85.67903 54.659374 86.47591Q53.95625 87.25716 52.909374 87.25716Q51.8625 87.25716 51.175 86.49153Q50.4875 85.71028 50.4875 84.14778ZM52.925 82.16341Q52.409374 82.16341 52.05 82.61653Q51.70625 83.06966 51.70625 84.28841Q51.70625 85.38216 52.05 85.83528Q52.409374 86.28841 52.925 86.28841Q53.45625 86.28841 53.8 85.83528Q54.159374 85.38216 54.159374 84.17903Q54.159374 83.06966 53.8 82.61653Q53.45625 82.16341 52.925 82.16341ZM52.940624 93.27278L59.20625 81.19466L60.346874 81.19466L54.096874 93.27278L52.940624 93.27278ZM57.89375 90.16341Q57.89375 88.92903 58.503124 88.06966Q59.128124 87.21028 60.3 87.21028Q61.378124 87.21028 62.08125 87.99153Q62.8 88.75716 62.8 90.24153Q62.8 91.69466 62.08125 92.49153Q61.3625 93.27278 60.315624 93.27278Q59.26875 93.27278 58.58125 92.49153Q57.89375 91.71028 57.89375 90.16341ZM60.346874 88.17903Q59.815624 88.17903 59.45625 88.63216Q59.1125 89.08528 59.1125 90.30403Q59.1125 91.39778 59.45625 91.85091Q59.815624 92.30403 60.33125 92.30403Q60.878124 92.30403 61.221874 91.85091Q61.565624 91.39778 61.565624 90.19466Q61.565624 89.08528 61.20625 88.63216Q60.8625 88.17903 60.346874 88.17903Z" fill-rule="nonzero"/><path stroke="#757575" stroke-width="1.0" stroke-linecap="butt" d="M18.55 76.35091L145.23334 76.35091L238.67993 76.35091" fill-rule="nonzero"/><path fill="#9e9e9e" d="M240.67993 76.35091C240.67993 75.24634 239.7845 74.35091 238.67993 74.35091C237.57536 74.35091 236.67993 75.24634 236.67993 76.35091C236.67993 77.455475 237.57536 78.35091 238.67993 78.35091C239.7845 78.35091 240.67993 77.455475 240.67993 76.35091" fill-rule="nonzero"/><path fill="#efefef" d="M18.51875 166.73482L22.925 155.2817L24.565624 155.2817L29.253124 166.73482L27.51875 166.73482L26.190624 163.26607L21.39375 163.26607L20.14375 166.73482L18.51875 166.73482ZM21.83125 162.0317L25.721874 162.0317L24.51875 158.85982Q23.971874 157.4067 23.70625 156.48482Q23.4875 157.57857 23.096874 158.67232L21.83125 162.0317ZM30.6125 166.73482L30.6125 158.43794L31.878124 158.43794L31.878124 159.60982Q32.784374 158.25044 34.51875 158.25044Q35.26875 158.25044 35.89375 158.51607Q36.51875 158.7817 36.83125 159.2192Q37.14375 159.6567 37.26875 160.26607Q37.346874 160.6567 37.346874 161.62544L37.346874 166.73482L35.940624 166.73482L35.940624 161.68794Q35.940624 160.82857 35.76875 160.4067Q35.6125 159.9692 35.190624 159.7192Q34.784374 159.4692 34.221874 159.4692Q33.315624 159.4692 32.659374 160.04732Q32.01875 160.60982 32.01875 162.20357L32.01875 166.73482L30.6125 166.73482ZM39.6125 156.89107L39.6125 155.2817L41.01875 155.2817L41.01875 156.89107L39.6125 156.89107ZM39.6125 166.73482L39.6125 158.43794L41.01875 158.43794L41.01875 166.73482L39.6125 166.73482ZM43.6125 166.73482L43.6125 158.43794L44.8625 158.43794L44.8625 159.5942Q45.253124 158.98482 45.89375 158.62544Q46.55 158.25044 47.378124 158.25044Q48.3 158.25044 48.89375 158.64107Q49.4875 159.01607 49.721874 159.70357Q50.70625 158.25044 52.284374 158.25044Q53.51875 158.25044 54.175 158.93794Q54.846874 159.60982 54.846874 161.0317L54.846874 166.73482L53.45625 166.73482L53.45625 161.50044Q53.45625 160.6567 53.315624 160.29732Q53.175 159.92232 52.815624 159.70357Q52.45625 159.4692 51.971874 159.4692Q51.096874 159.4692 50.51875 160.04732Q49.940624 160.62544 49.940624 161.9067L49.940624 166.73482L48.534374 166.73482L48.534374 161.3442Q48.534374 160.4067 48.190624 159.93794Q47.846874 159.4692 47.065624 159.4692Q46.471874 159.4692 45.971874 159.7817Q45.471874 160.0942 45.2375 160.70357Q45.01875 161.29732 45.01875 162.42232L45.01875 166.73482L43.6125 166.73482ZM62.01875 165.70357Q61.2375 166.37544 60.51875 166.6567Q59.8 166.92232 58.971874 166.92232Q57.596874 166.92232 56.8625 166.25044Q56.128124 165.57857 56.128124 164.54732Q56.128124 163.93794 56.409374 163.43794Q56.690624 162.92232 57.128124 162.62544Q57.58125 162.31294 58.14375 162.1567Q58.565624 162.04732 59.39375 161.95357Q61.096874 161.75044 61.909374 161.4692Q61.909374 161.17232 61.909374 161.0942Q61.909374 160.23482 61.51875 159.89107Q60.971874 159.4067 59.909374 159.4067Q58.925 159.4067 58.440624 159.76607Q57.971874 160.10982 57.753124 160.98482L56.378124 160.79732Q56.565624 159.92232 56.9875 159.37544Q57.425 158.82857 58.2375 158.54732Q59.05 158.25044 60.1125 158.25044Q61.175 158.25044 61.83125 158.50044Q62.503124 158.75044 62.815624 159.12544Q63.128124 159.50044 63.253124 160.07857Q63.33125 160.43794 63.33125 161.37544L63.33125 163.25044Q63.33125 165.2192 63.409374 165.73482Q63.503124 166.25044 63.76875 166.73482L62.3 166.73482Q62.08125 166.29732 62.01875 165.70357ZM61.909374 162.56294Q61.14375 162.87544 59.6125 163.0942Q58.7375 163.2192 58.378124 163.37544Q58.01875 163.5317 57.815624 163.8442Q57.628124 164.14107 57.628124 164.50044Q57.628124 165.06294 58.05 165.43794Q58.4875 165.81294 59.3 165.81294Q60.1125 165.81294 60.7375 165.4692Q61.378124 165.10982 61.675 164.48482Q61.909374 164.01607 61.909374 163.07857L61.909374 162.56294ZM65.58125 166.73482L65.58125 155.2817L66.9875 155.2817L66.9875 166.73482L65.58125 166.73482ZM69.05 164.25044L70.44063 164.0317Q70.55 164.87544 71.08125 165.32857Q71.62813 165.76607 72.58125 165.76607Q73.55 165.76607 74.01875 165.37544Q74.4875 164.9692 74.4875 164.43794Q74.4875 163.9692 74.08125 163.68794Q73.78438 163.50044 72.64375 163.2192Q71.09688 162.82857 70.4875 162.54732Q69.89375 162.25044 69.58125 161.75044Q69.28438 161.25044 69.28438 160.64107Q69.28438 160.07857 69.53438 159.60982Q69.78438 159.14107 70.22188 158.82857Q70.55 158.57857 71.1125 158.42232Q71.69063 158.25044 72.33125 158.25044Q73.31563 158.25044 74.05 158.5317Q74.78438 158.81294 75.12813 159.29732Q75.4875 159.76607 75.62813 160.57857L74.25313 160.76607Q74.15938 160.12544 73.70625 159.76607Q73.25313 159.4067 72.44063 159.4067Q71.47188 159.4067 71.05 159.73482Q70.64375 160.04732 70.64375 160.4692Q70.64375 160.75044 70.81563 160.9692Q70.9875 161.18794 71.34688 161.3442Q71.56563 161.42232 72.59688 161.70357Q74.08125 162.0942 74.675 162.35982Q75.26875 162.60982 75.59688 163.0942Q75.94063 163.57857 75.94063 164.29732Q75.94063 165.00044 75.51875 165.62544Q75.1125 166.23482 74.33125 166.57857Q73.56563 166.92232 72.59688 166.92232Q70.97188 166.92232 70.12813 166.25044Q69.28438 165.57857 69.05 164.25044Z" fill-rule="nonzero"/><path fill="#9e9e9e" d="M24.51875 188.73482L23.1125 188.73482L23.1125 179.76607Q22.596874 180.25044 21.76875 180.73482Q20.95625 181.2192 20.3 181.4692L20.3 180.10982Q21.471874 179.54732 22.346874 178.76607Q23.2375 177.9692 23.6125 177.23482L24.51875 177.23482L24.51875 188.73482ZM32.721874 188.73482L32.721874 185.98482L27.753124 185.98482L27.753124 184.70357L32.9875 177.2817L34.128124 177.2817L34.128124 184.70357L35.675 184.70357L35.675 185.98482L34.128124 185.98482L34.128124 188.73482L32.721874 188.73482ZM32.721874 184.70357L32.721874 179.5317L29.14375 184.70357L32.721874 184.70357ZM38.003124 188.73482L38.003124 187.12544L39.6125 187.12544L39.6125 188.73482L38.003124 188.73482ZM41.221874 185.70357L42.628124 185.51607Q42.878124 186.7192 43.45625 187.25044Q44.034374 187.76607 44.878124 187.76607Q45.8625 187.76607 46.55 187.07857Q47.2375 186.39107 47.2375 185.37544Q47.2375 184.4067 46.596874 183.7817Q45.971874 183.1567 44.9875 183.1567Q44.596874 183.1567 44.003124 183.31294L44.159374 182.07857Q44.3 182.0942 44.378124 182.0942Q45.284374 182.0942 46.003124 181.62544Q46.721874 181.1567 46.721874 180.17232Q46.721874 179.4067 46.190624 178.9067Q45.675 178.39107 44.846874 178.39107Q44.01875 178.39107 43.471874 178.9067Q42.925 179.42232 42.76875 180.45357L41.3625 180.20357Q41.628124 178.7817 42.534374 178.01607Q43.45625 177.23482 44.815624 177.23482Q45.753124 177.23482 46.534374 177.64107Q47.33125 178.0317 47.7375 178.73482Q48.159374 179.42232 48.159374 180.20357Q48.159374 180.95357 47.753124 181.56294Q47.3625 182.17232 46.58125 182.5317Q47.596874 182.76607 48.159374 183.50044Q48.721874 184.23482 48.721874 185.3442Q48.721874 186.8442 47.628124 187.89107Q46.534374 188.93794 44.8625 188.93794Q43.3625 188.93794 42.3625 188.04732Q41.3625 187.14107 41.221874 185.70357ZM50.4875 180.0317Q50.4875 178.79732 51.096874 177.93794Q51.721874 177.07857 52.89375 177.07857Q53.971874 177.07857 54.675 177.85982Q55.378124 178.62544 55.378124 180.10982Q55.378124 181.56294 54.659374 182.35982Q53.95625 183.14107 52.909374 183.14107Q51.8625 183.14107 51.175 182.37544Q50.4875 181.5942 50.4875 180.0317ZM52.925 178.04732Q52.409374 178.04732 52.05 178.50044Q51.70625 178.95357 51.70625 180.17232Q51.70625 181.26607 52.05 181.7192Q52.409374 182.17232 52.925 182.17232Q53.45625 182.17232 53.8 181.7192Q54.159374 181.26607 54.159374 180.06294Q54.159374 178.95357 53.8 178.50044Q53.45625 178.04732 52.925 178.04732ZM52.940624 189.1567L59.20625 177.07857L60.346874 177.07857L54.096874 189.1567L52.940624 189.1567ZM57.89375 186.04732Q57.89375 184.81294 58.503124 183.95357Q59.128124 183.0942 60.3 183.0942Q61.378124 183.0942 62.08125 183.87544Q62.8 184.64107 62.8 186.12544Q62.8 187.57857 62.08125 188.37544Q61.3625 189.1567 60.315624 189.1567Q59.26875 189.1567 58.58125 188.37544Q57.89375 187.5942 57.89375 186.04732ZM60.346874 184.06294Q59.815624 184.06294 59.45625 184.51607Q59.1125 184.9692 59.1125 186.18794Q59.1125 187.2817 59.45625 187.73482Q59.815624 188.18794 60.33125 188.18794Q60.878124 188.18794 61.221874 187.73482Q61.565624 187.2817 61.565624 186.07857Q61.565624 184.9692 61.20625 184.51607Q60.8625 184.06294 60.346874 184.06294Z" fill-rule="nonzero"/><path stroke="#757575" stroke-width="1.0" stroke-linecap="butt" d="M18.55 172.23482L145.23334 172.23482L162.21506 172.23482" fill-rule="nonzero"/><path fill="#9e9e9e" d="M164.21506 172.23482C164.21506 171.13025 163.31963 170.23482 162.21506 170.23482C161.11049 170.23482 160.21506 171.13025 160.21506 172.23482C160.21506 173.33939 161.11049 174.23482 162.21506 174.23482C163.31963 174.23482 164.21506 173.33939 164.21506 172.23482" fill-rule="nonzero"/><path fill="#efefef" d="M531.6844 286.3001L531.6844 274.847L536.0125 274.847Q537.15314 274.847 537.7469 274.95636Q538.59064 275.097 539.15314 275.4876Q539.73126 275.87823 540.075 276.597Q540.4344 277.3001 540.4344 278.1595Q540.4344 279.6126 539.4969 280.62823Q538.575 281.64386 536.1375 281.64386L533.2 281.64386L533.2 286.3001L531.6844 286.3001ZM533.2 280.2845L536.16876 280.2845Q537.6375 280.2845 538.2469 279.7376Q538.8719 279.19073 538.8719 278.20636Q538.8719 277.4876 538.4969 276.972Q538.1375 276.45636 537.54376 276.3001Q537.16876 276.19073 536.1375 276.19073L533.2 276.19073L533.2 280.2845ZM548.1844 283.62823L549.6375 283.8001Q549.29376 285.08136 548.35626 285.7845Q547.4344 286.4876 545.9969 286.4876Q544.16876 286.4876 543.10626 285.3626Q542.04376 284.2376 542.04376 282.222Q542.04376 280.12823 543.1219 278.972Q544.2 277.81573 545.91876 277.81573Q547.575 277.81573 548.6219 278.95636Q549.6844 280.08136 549.6844 282.12823Q549.6844 282.25323 549.6844 282.50323L543.4969 282.50323Q543.575 283.87823 544.2625 284.6126Q544.96564 285.33136 545.9969 285.33136Q546.77814 285.33136 547.325 284.9251Q547.8719 284.51886 548.1844 283.62823ZM543.575 281.347L548.2 281.347Q548.10626 280.3001 547.66876 279.7845Q546.9969 278.972 545.9344 278.972Q544.96564 278.972 544.29376 279.62823Q543.6375 280.26886 543.575 281.347ZM550.98126 282.14386Q550.98126 279.847 552.2625 278.7376Q553.34064 277.81573 554.8719 277.81573Q556.59064 277.81573 557.66876 278.94073Q558.7625 280.0501 558.7625 282.0345Q558.7625 283.62823 558.27814 284.5501Q557.79376 285.472 556.8719 285.9876Q555.96564 286.4876 554.8719 286.4876Q553.1375 286.4876 552.0594 285.37823Q550.98126 284.25323 550.98126 282.14386ZM552.4344 282.14386Q552.4344 283.7376 553.1219 284.5345Q553.825 285.33136 554.8719 285.33136Q555.91876 285.33136 556.60626 284.5345Q557.3094 283.7376 557.3094 282.097Q557.3094 280.56573 556.60626 279.76886Q555.91876 278.972 554.8719 278.972Q553.825 278.972 553.1219 279.76886Q552.4344 280.5501 552.4344 282.14386ZM560.5125 289.4876L560.5125 278.00323L561.79376 278.00323L561.79376 279.08136Q562.2469 278.44073 562.8094 278.12823Q563.3875 277.81573 564.2 277.81573Q565.2625 277.81573 566.075 278.3626Q566.8875 278.9095 567.29376 279.9095Q567.71564 280.89386 567.71564 282.08136Q567.71564 283.3626 567.2469 284.37823Q566.79376 285.39386 565.91876 285.94073Q565.0594 286.4876 564.09064 286.4876Q563.3875 286.4876 562.825 286.19073Q562.27814 285.89386 561.91876 285.44073L561.91876 289.4876L560.5125 289.4876ZM561.77814 282.19073Q561.77814 283.8001 562.41876 284.56573Q563.075 285.33136 563.9969 285.33136Q564.9344 285.33136 565.60626 284.5345Q566.27814 283.7376 566.27814 282.08136Q566.27814 280.4876 565.6219 279.70636Q564.96564 278.9095 564.0594 278.9095Q563.16876 278.9095 562.46564 279.75323Q561.77814 280.597 561.77814 282.19073ZM569.48126 286.3001L569.48126 274.847L570.8875 274.847L570.8875 286.3001L569.48126 286.3001ZM579.1844 283.62823L580.6375 283.8001Q580.29376 285.08136 579.35626 285.7845Q578.4344 286.4876 576.9969 286.4876Q575.16876 286.4876 574.10626 285.3626Q573.04376 284.2376 573.04376 282.222Q573.04376 280.12823 574.1219 278.972Q575.2 277.81573 576.91876 277.81573Q578.575 277.81573 579.6219 278.95636Q580.6844 280.08136 580.6844 282.12823Q580.6844 282.25323 580.6844 282.50323L574.4969 282.50323Q574.575 283.87823 575.2625 284.6126Q575.96564 285.33136 576.9969 285.33136Q577.77814 285.33136 578.325 284.9251Q578.8719 284.51886 579.1844 283.62823ZM574.575 281.347L579.2 281.347Q579.10626 280.3001 578.66876 279.7845Q577.9969 278.972 576.9344 278.972Q575.96564 278.972 575.29376 279.62823Q574.6375 280.26886 574.575 281.347Z" fill-rule="nonzero"/><path fill="#9e9e9e" d="M537.21564 298.347L537.21564 296.9876L544.6219 296.9876L544.6219 298.08136Q543.52814 299.25323 542.45 301.19073Q541.3875 303.1126 540.79376 305.14386Q540.3719 306.58136 540.2625 308.3001L538.8094 308.3001Q538.84064 306.94073 539.34064 305.0345Q539.85626 303.1126 540.79376 301.347Q541.7469 299.56573 542.825 298.347L537.21564 298.347ZM551.41876 308.3001L550.0125 308.3001L550.0125 299.33136Q549.4969 299.81573 548.66876 300.3001Q547.85626 300.7845 547.2 301.0345L547.2 299.6751Q548.3719 299.1126 549.2469 298.33136Q550.1375 297.5345 550.5125 296.8001L551.41876 296.8001L551.41876 308.3001ZM555.90314 308.3001L555.90314 306.69073L557.5125 306.69073L557.5125 308.3001L555.90314 308.3001ZM563.6219 308.3001L563.6219 305.5501L558.65314 305.5501L558.65314 304.26886L563.8875 296.847L565.02814 296.847L565.02814 304.26886L566.575 304.26886L566.575 305.5501L565.02814 305.5501L565.02814 308.3001L563.6219 308.3001ZM563.6219 304.26886L563.6219 299.097L560.04376 304.26886L563.6219 304.26886ZM568.3875 299.597Q568.3875 298.3626 568.9969 297.50323Q569.6219 296.64386 570.79376 296.64386Q571.8719 296.64386 572.575 297.4251Q573.27814 298.19073 573.27814 299.6751Q573.27814 301.12823 572.5594 301.9251Q571.85626 302.70636 570.8094 302.70636Q569.7625 302.70636 569.075 301.94073Q568.3875 301.1595 568.3875 299.597ZM570.825 297.6126Q570.3094 297.6126 569.95 298.06573Q569.60626 298.51886 569.60626 299.7376Q569.60626 300.83136 569.95 301.2845Q570.3094 301.7376 570.825 301.7376Q571.35626 301.7376 571.7 301.2845Q572.0594 300.83136 572.0594 299.62823Q572.0594 298.51886 571.7 298.06573Q571.35626 297.6126 570.825 297.6126ZM570.84064 308.722L577.10626 296.64386L578.2469 296.64386L571.9969 308.722L570.84064 308.722ZM575.79376 305.6126Q575.79376 304.37823 576.40314 303.51886Q577.02814 302.6595 578.2 302.6595Q579.27814 302.6595 579.98126 303.44073Q580.7 304.20636 580.7 305.69073Q580.7 307.14386 579.98126 307.94073Q579.2625 308.722 578.21564 308.722Q577.16876 308.722 576.48126 307.94073Q575.79376 307.1595 575.79376 305.6126ZM578.2469 303.62823Q577.71564 303.62823 577.35626 304.08136Q577.0125 304.5345 577.0125 305.75323Q577.0125 306.847 577.35626 307.3001Q577.71564 307.75323 578.23126 307.75323Q578.77814 307.75323 579.1219 307.3001Q579.46564 306.847 579.46564 305.64386Q579.46564 304.5345 579.10626 304.08136Q578.7625 303.62823 578.2469 303.62823Z" fill-rule="nonzero"/><path stroke="#757575" stroke-width="1.0" stroke-linecap="butt" d="M581.45 291.8001L454.76666 291.8001L410.49493 291.8001" fill-rule="nonzero"/><path fill="#9e9e9e" d="M412.49493 291.8001C412.49493 290.69553 411.59952 289.8001 410.49493 289.8001C409.39038 289.8001 408.49493 290.69553 408.49493 291.8001C408.49493 292.90466 409.39038 293.8001 410.49493 293.8001C411.59952 293.8001 412.49493 292.90466 412.49493 291.8001" fill-rule="nonzero"/><path fill="#f3f3f3" d="M265.98438 37.55L265.98438 23.2375L268.84375 23.2375L272.21875 33.3625Q272.6875 34.784374 272.90625 35.4875Q273.15625 34.70625 273.67188 33.190624L277.09375 23.2375L279.64062 23.2375L279.64062 37.55L277.82812 37.55L277.82812 25.565624L273.65625 37.55L271.95312 37.55L267.8125 25.3625L267.8125 37.55L265.98438 37.55ZM289.92188 34.20625L291.73438 34.440624Q291.3125 36.01875 290.14062 36.909374Q288.98438 37.784374 287.17188 37.784374Q284.90625 37.784374 283.5625 36.39375Q282.23438 34.9875 282.23438 32.45625Q282.23438 29.83125 283.57812 28.39375Q284.92188 26.940624 287.07812 26.940624Q289.15625 26.940624 290.46875 28.3625Q291.79688 29.76875 291.79688 32.346874Q291.79688 32.503124 291.78125 32.815624L284.04688 32.815624Q284.14062 34.51875 285.01562 35.425Q285.89062 36.33125 287.1875 36.33125Q288.15625 36.33125 288.82812 35.83125Q289.51562 35.315624 289.92188 34.20625ZM284.14062 31.3625L289.9375 31.3625Q289.82812 30.065624 289.28125 29.409374Q288.4375 28.39375 287.09375 28.39375Q285.89062 28.39375 285.0625 29.20625Q284.23438 30.003124 284.14062 31.3625ZM300.54688 37.55L300.54688 36.2375Q299.5625 37.784374 297.64062 37.784374Q296.40625 37.784374 295.35938 37.096874Q294.32812 36.409374 293.75 35.190624Q293.1875 33.971874 293.1875 32.378124Q293.1875 30.815624 293.70312 29.55Q294.21875 28.284374 295.25 27.6125Q296.29688 26.940624 297.5625 26.940624Q298.5 26.940624 299.23438 27.346874Q299.96875 27.7375 300.4375 28.3625L300.4375 23.2375L302.17188 23.2375L302.17188 37.55L300.54688 37.55ZM294.98438 32.378124Q294.98438 34.3625 295.82812 35.346874Q296.67188 36.33125 297.8125 36.33125Q298.96875 36.33125 299.76562 35.39375Q300.57812 34.45625 300.57812 32.51875Q300.57812 30.39375 299.75 29.39375Q298.9375 28.39375 297.73438 28.39375Q296.5625 28.39375 295.76562 29.3625Q294.98438 30.315624 294.98438 32.378124ZM304.82812 25.253124L304.82812 23.2375L306.59375 23.2375L306.59375 25.253124L304.82812 25.253124ZM304.82812 37.55L304.82812 27.175L306.59375 27.175L306.59375 37.55L304.82812 37.55ZM315.60938 37.55L315.60938 36.01875Q314.40625 37.784374 312.32812 37.784374Q311.40625 37.784374 310.60938 37.440624Q309.8125 37.08125 309.42188 36.55Q309.04688 36.01875 308.89062 35.2375Q308.78125 34.721874 308.78125 33.596874L308.78125 27.175L310.53125 27.175L310.53125 32.925Q310.53125 34.3 310.64062 34.784374Q310.8125 35.471874 311.34375 35.878124Q311.89062 36.26875 312.67188 36.26875Q313.46875 36.26875 314.15625 35.8625Q314.85938 35.45625 315.14062 34.76875Q315.4375 34.065624 315.4375 32.7375L315.4375 27.175L317.1875 27.175L317.1875 37.55L315.60938 37.55ZM319.8125 37.55L319.8125 27.175L321.39062 27.175L321.39062 28.628124Q321.875 27.878124 322.6875 27.409374Q323.5 26.940624 324.53125 26.940624Q325.6875 26.940624 326.42188 27.425Q327.15625 27.89375 327.46875 28.753124Q328.70312 26.940624 330.67188 26.940624Q332.21875 26.940624 333.04688 27.8Q333.875 28.659374 333.875 30.425L333.875 37.55L332.125 37.55L332.125 31.01875Q332.125 29.95625 331.95312 29.503124Q331.78125 29.034374 331.32812 28.753124Q330.89062 28.471874 330.28125 28.471874Q329.1875 28.471874 328.45312 29.20625Q327.73438 29.925 327.73438 31.51875L327.73438 37.55L325.98438 37.55L325.98438 30.815624Q325.98438 29.64375 325.54688 29.065624Q325.125 28.471874 324.14062 28.471874Q323.40625 28.471874 322.76562 28.8625Q322.14062 29.253124 321.85938 30.003124Q321.57812 30.753124 321.57812 32.175L321.57812 37.55L319.8125 37.55Z" fill-rule="nonzero"/></svg>