<svg version="1.1" viewBox="0.0 0.0 600.0 371.0" fill="none" stroke="none" stroke-linecap="square" stroke-miterlimit="10" width="600" height="371" xmlns:xlink="http://www.w3.org/1999/xlink" xmlns="http://www.w3.org/2000/svg"><path fill="#ffffff" fill-opacity="0.0" d="M0 0L600.0 0L600.0 371.0L0 371.0L0 0Z" fill-rule="nonzero"/><path fill="#304388" d="M300.0 54.916668C323.47693 54.916668 346.62054 60.47296 367.53867 71.13126L316.88467 170.54532C311.65515 167.88074 305.86923 166.49167 300.0 166.49167Z" fill-rule="nonzero"/><path fill="#533990" d="M367.53867 71.13126C428.82538 102.35841 460.71347 171.529 444.65622 238.41222C428.599 305.29544 368.78372 352.45 300.0 352.45L300.0 240.875C317.19592 240.875 332.14975 229.08636 336.16406 212.36555C340.17838 195.64476 332.20636 178.3521 316.88467 170.54532Z" fill-rule="nonzero"/><path fill="#df8d43" d="M212.55714 324.0381C160.4163 286.15555 138.59846 219.00714 158.5145 157.7119C178.43053 96.416664 235.55037 54.916668 300.0 54.916668L300.0 166.49167C283.8876 166.49167 269.60764 176.86667 264.62863 192.19048C259.64963 207.51428 265.10406 224.30139 278.13928 233.77202Z" fill-rule="nonzero"/><path fill="#d8753e" d="M232.46135 336.2354C225.51736 332.69727 218.86215 328.61896 212.55714 324.0381L278.13928 233.77202C279.71555 234.91724 281.37933 235.93681 283.11533 236.82135Z" fill-rule="nonzero"/><path fill="#cf4366" d="M300.0 352.45C276.52307 352.45 253.37944 346.8937 232.46135 336.2354L283.11533 236.82135C288.34485 239.48593 294.13077 240.875 300.0 240.875Z" fill-rule="nonzero"/><path fill="#ffffff" d="M306.75784 89.02265L306.75784 87.50703L315.08597 87.50703L315.08597 88.7414Q313.86722 90.0539 312.64847 92.22578Q311.44534 94.38203 310.7891 96.6789Q310.30472 98.3039 310.17972 100.22578L308.55472 100.22578Q308.58597 98.71015 309.14847 96.5539Q309.7266 94.39765 310.7891 92.39765Q311.8516 90.39765 313.05472 89.02265L306.75784 89.02265ZM317.5391 100.22578L317.5391 98.4289L319.33597 98.4289L319.33597 100.22578L317.5391 100.22578ZM321.64847 96.85078L323.30472 96.71015Q323.49222 97.9289 324.1641 98.53828Q324.83597 99.14765 325.7891 99.14765Q326.92972 99.14765 327.71097 98.28828Q328.50784 97.4289 328.50784 95.9914Q328.50784 94.64765 327.74222 93.8664Q326.99222 93.08515 325.75784 93.08515Q324.99222 93.08515 324.36722 93.4289Q323.75784 93.77265 323.4141 94.33515L321.92972 94.13203L323.17972 87.52265L329.58597 87.52265L329.58597 89.02265L324.44534 89.02265L323.74222 92.4914Q324.9141 91.6789 326.17972 91.6789Q327.86722 91.6789 329.02347 92.85078Q330.19534 94.02265 330.19534 95.85078Q330.19534 97.60078 329.1641 98.88203Q327.92972 100.44453 325.7891 100.44453Q324.02347 100.44453 322.9141 99.46015Q321.80472 98.47578 321.64847 96.85078ZM331.94534 90.4289Q331.94534 89.0539 332.63284 88.08515Q333.33597 87.1164 334.64847 87.1164Q335.86722 87.1164 336.6641 87.9914Q337.46097 88.85078 337.46097 90.53828Q337.46097 92.16328 336.64847 93.0539Q335.8516 93.9289 334.6641 93.9289Q333.50784 93.9289 332.7266 93.06953Q331.94534 92.19453 331.94534 90.4289ZM334.69534 88.21015Q334.1016 88.21015 333.71097 88.72578Q333.32034 89.22578 333.32034 90.58515Q333.32034 91.83515 333.71097 92.33515Q334.11722 92.83515 334.69534 92.83515Q335.2891 92.83515 335.67972 92.33515Q336.07034 91.81953 336.07034 90.47578Q336.07034 89.22578 335.67972 88.72578Q335.2891 88.21015 334.69534 88.21015ZM334.71097 100.69453L341.75784 87.1164L343.0391 87.1164L336.00784 100.69453L334.71097 100.69453ZM340.27347 97.19453Q340.27347 95.81953 340.96097 94.85078Q341.6641 93.88203 342.99222 93.88203Q344.21097 93.88203 344.99222 94.75703Q345.7891 95.6164 345.7891 97.3039Q345.7891 98.9289 344.99222 99.81953Q344.19534 100.69453 343.00784 100.69453Q341.83597 100.69453 341.05472 99.81953Q340.27347 98.94453 340.27347 97.19453ZM343.0391 94.97578Q342.44534 94.97578 342.05472 95.4914Q341.6641 95.9914 341.6641 97.3664Q341.6641 98.58515 342.05472 99.10078Q342.44534 99.6164 343.02347 99.6164Q343.63284 99.6164 344.02347 99.10078Q344.4141 98.58515 344.4141 97.2414Q344.4141 95.9914 344.02347 95.4914Q343.63284 94.97578 343.0391 94.97578Z" fill-rule="nonzero"/><path fill="#ffffff" d="M380.27005 234.18102L380.27005 231.10289L374.69193 231.10289L374.69193 229.64977L380.56693 221.29039L381.8638 221.29039L381.8638 229.64977L383.59818 229.64977L383.59818 231.10289L381.8638 231.10289L381.8638 234.18102L380.27005 234.18102ZM380.27005 229.64977L380.27005 223.83727L376.2388 229.64977L380.27005 229.64977ZM393.52005 232.66539L393.52005 234.18102L385.00443 234.18102Q384.9888 233.60289 385.19193 233.08727Q385.52005 232.21227 386.22318 231.36852Q386.94193 230.52477 388.3013 229.41539Q390.39505 227.69664 391.12943 226.69664Q391.87943 225.68102 391.87943 224.79039Q391.87943 223.83727 391.20755 223.19664Q390.53568 222.55602 389.45755 222.55602Q388.3013 222.55602 387.6138 223.24352Q386.94193 223.93102 386.9263 225.13414L385.3013 224.96227Q385.47318 223.14977 386.5513 222.19664Q387.64505 221.24352 389.4888 221.24352Q391.33255 221.24352 392.41068 222.27477Q393.50443 223.30602 393.50443 224.82164Q393.50443 225.58727 393.1763 226.33727Q392.8638 227.08727 392.12943 227.91539Q391.39505 228.74352 389.69193 230.18102Q388.27005 231.38414 387.8638 231.80602Q387.45755 232.22789 387.20755 232.66539L393.52005 232.66539ZM396.09818 234.18102L396.09818 232.38414L397.89505 232.38414L397.89505 234.18102L396.09818 234.18102ZM400.20755 230.80602L401.8638 230.66539Q402.0513 231.88414 402.72318 232.49352Q403.39505 233.10289 404.34818 233.10289Q405.4888 233.10289 406.27005 232.24352Q407.06693 231.38414 407.06693 229.94664Q407.06693 228.60289 406.3013 227.82164Q405.5513 227.04039 404.31693 227.04039Q403.5513 227.04039 402.9263 227.38414Q402.31693 227.72789 401.97318 228.29039L400.4888 228.08727L401.7388 221.47789L408.14505 221.47789L408.14505 222.97789L403.00443 222.97789L402.3013 226.44664Q403.47318 225.63414 404.7388 225.63414Q406.4263 225.63414 407.58255 226.80602Q408.75443 227.97789 408.75443 229.80602Q408.75443 231.55602 407.72318 232.83727Q406.4888 234.39977 404.34818 234.39977Q402.58255 234.39977 401.47318 233.41539Q400.3638 232.43102 400.20755 230.80602ZM410.50443 224.38414Q410.50443 223.00914 411.19193 222.04039Q411.89505 221.07164 413.20755 221.07164Q414.4263 221.07164 415.22318 221.94664Q416.02005 222.80602 416.02005 224.49352Q416.02005 226.11852 415.20755 227.00914Q414.41068 227.88414 413.22318 227.88414Q412.06693 227.88414 411.28568 227.02477Q410.50443 226.14977 410.50443 224.38414ZM413.25443 222.16539Q412.66068 222.16539 412.27005 222.68102Q411.87943 223.18102 411.87943 224.54039Q411.87943 225.79039 412.27005 226.29039Q412.6763 226.79039 413.25443 226.79039Q413.84818 226.79039 414.2388 226.29039Q414.62943 225.77477 414.62943 224.43102Q414.62943 223.18102 414.2388 222.68102Q413.84818 222.16539 413.25443 222.16539ZM413.27005 234.64977L420.31693 221.07164L421.59818 221.07164L414.56693 234.64977L413.27005 234.64977ZM418.83255 231.14977Q418.83255 229.77477 419.52005 228.80602Q420.22318 227.83727 421.5513 227.83727Q422.77005 227.83727 423.5513 228.71227Q424.34818 229.57164 424.34818 231.25914Q424.34818 232.88414 423.5513 233.77477Q422.75443 234.64977 421.56693 234.64977Q420.39505 234.64977 419.6138 233.77477Q418.83255 232.89977 418.83255 231.14977ZM421.59818 228.93102Q421.00443 228.93102 420.6138 229.44664Q420.22318 229.94664 420.22318 231.32164Q420.22318 232.54039 420.6138 233.05602Q421.00443 233.57164 421.58255 233.57164Q422.19193 233.57164 422.58255 233.05602Q422.97318 232.54039 422.97318 231.19664Q422.97318 229.94664 422.58255 229.44664Q422.19193 228.93102 421.59818 228.93102Z" fill-rule="nonzero"/><path fill="#ffffff" d="M253.9609 308.93777L253.9609 307.42215L262.28903 307.42215L262.28903 308.65652Q261.07028 309.96902 259.85153 312.1409Q258.6484 314.29715 257.99216 316.59402Q257.50778 318.21902 257.38278 320.1409L255.75778 320.1409Q255.78903 318.62527 256.35153 316.46902Q256.92966 314.31277 257.99216 312.31277Q259.05466 310.31277 260.25778 308.93777L253.9609 308.93777ZM264.74216 320.1409L264.74216 318.34402L266.53903 318.34402L266.53903 320.1409L264.74216 320.1409ZM268.85153 316.7659L270.50778 316.62527Q270.69528 317.84402 271.36716 318.4534Q272.03903 319.06277 272.99216 319.06277Q274.13278 319.06277 274.91403 318.2034Q275.7109 317.34402 275.7109 315.90652Q275.7109 314.56277 274.94528 313.78152Q274.19528 313.00027 272.9609 313.00027Q272.19528 313.00027 271.57028 313.34402Q270.9609 313.68777 270.61716 314.25027L269.13278 314.04715L270.38278 307.43777L276.78903 307.43777L276.78903 308.93777L271.6484 308.93777L270.94528 312.40652Q272.11716 311.59402 273.38278 311.59402Q275.07028 311.59402 276.22653 312.7659Q277.3984 313.93777 277.3984 315.7659Q277.3984 317.5159 276.36716 318.79715Q275.13278 320.35965 272.99216 320.35965Q271.22653 320.35965 270.11716 319.37527Q269.00778 318.3909 268.85153 316.7659ZM279.1484 310.34402Q279.1484 308.96902 279.8359 308.00027Q280.53903 307.03152 281.85153 307.03152Q283.07028 307.03152 283.86716 307.90652Q284.66403 308.7659 284.66403 310.4534Q284.66403 312.0784 283.85153 312.96902Q283.05466 313.84402 281.86716 313.84402Q280.7109 313.84402 279.92966 312.98465Q279.1484 312.10965 279.1484 310.34402ZM281.8984 308.12527Q281.30466 308.12527 280.91403 308.6409Q280.5234 309.1409 280.5234 310.50027Q280.5234 311.75027 280.91403 312.25027Q281.32028 312.75027 281.8984 312.75027Q282.49216 312.75027 282.88278 312.25027Q283.2734 311.73465 283.2734 310.3909Q283.2734 309.1409 282.88278 308.6409Q282.49216 308.12527 281.8984 308.12527ZM281.91403 320.60965L288.9609 307.03152L290.24216 307.03152L283.2109 320.60965L281.91403 320.60965ZM287.47653 317.10965Q287.47653 315.73465 288.16403 314.7659Q288.86716 313.79715 290.19528 313.79715Q291.41403 313.79715 292.19528 314.67215Q292.99216 315.53152 292.99216 317.21902Q292.99216 318.84402 292.19528 319.73465Q291.3984 320.60965 290.2109 320.60965Q289.03903 320.60965 288.25778 319.73465Q287.47653 318.85965 287.47653 317.10965ZM290.24216 314.8909Q289.6484 314.8909 289.25778 315.40652Q288.86716 315.90652 288.86716 317.28152Q288.86716 318.50027 289.25778 319.0159Q289.6484 319.53152 290.22653 319.53152Q290.8359 319.53152 291.22653 319.0159Q291.61716 318.50027 291.61716 317.15652Q291.61716 315.90652 291.22653 315.40652Q290.8359 314.8909 290.24216 314.8909Z" fill-rule="nonzero"/><path fill="#ffffff" d="M183.2411 178.64293L183.2411 175.5648L177.66298 175.5648L177.66298 174.11168L183.53798 165.7523L184.83485 165.7523L184.83485 174.11168L186.56923 174.11168L186.56923 175.5648L184.83485 175.5648L184.83485 178.64293L183.2411 178.64293ZM183.2411 174.11168L183.2411 168.29918L179.20985 174.11168L183.2411 174.11168ZM188.1786 172.28355Q188.1786 170.0023 188.64735 168.61168Q189.1161 167.22105 190.03798 166.47105Q190.97548 165.70543 192.38173 165.70543Q193.41298 165.70543 194.19423 166.1273Q194.97548 166.53355 195.47548 167.33043Q195.9911 168.11168 196.28798 169.2523Q196.58485 170.3773 196.58485 172.28355Q196.58485 174.54918 196.1161 175.95543Q195.64735 177.34605 194.70985 178.11168Q193.78798 178.86168 192.38173 178.86168Q190.50673 178.86168 189.44423 177.53355Q188.1786 175.92418 188.1786 172.28355ZM189.8036 172.28355Q189.8036 175.45543 190.53798 176.51793Q191.28798 177.5648 192.38173 177.5648Q193.45985 177.5648 194.20985 176.51793Q194.95985 175.45543 194.95985 172.28355Q194.95985 169.11168 194.20985 168.0648Q193.45985 167.01793 192.3661 167.01793Q191.27235 167.01793 190.6161 167.9398Q189.8036 169.11168 189.8036 172.28355ZM199.06923 178.64293L199.06923 176.84605L200.8661 176.84605L200.8661 178.64293L199.06923 178.64293ZM203.1786 172.28355Q203.1786 170.0023 203.64735 168.61168Q204.1161 167.22105 205.03798 166.47105Q205.97548 165.70543 207.38173 165.70543Q208.41298 165.70543 209.19423 166.1273Q209.97548 166.53355 210.47548 167.33043Q210.9911 168.11168 211.28798 169.2523Q211.58485 170.3773 211.58485 172.28355Q211.58485 174.54918 211.1161 175.95543Q210.64735 177.34605 209.70985 178.11168Q208.78798 178.86168 207.38173 178.86168Q205.50673 178.86168 204.44423 177.53355Q203.1786 175.92418 203.1786 172.28355ZM204.8036 172.28355Q204.8036 175.45543 205.53798 176.51793Q206.28798 177.5648 207.38173 177.5648Q208.45985 177.5648 209.20985 176.51793Q209.95985 175.45543 209.95985 172.28355Q209.95985 169.11168 209.20985 168.0648Q208.45985 167.01793 207.3661 167.01793Q206.27235 167.01793 205.6161 167.9398Q204.8036 169.11168 204.8036 172.28355ZM213.47548 168.84605Q213.47548 167.47105 214.16298 166.5023Q214.8661 165.53355 216.1786 165.53355Q217.39735 165.53355 218.19423 166.40855Q218.9911 167.26793 218.9911 168.95543Q218.9911 170.58043 218.1786 171.47105Q217.38173 172.34605 216.19423 172.34605Q215.03798 172.34605 214.25673 171.48668Q213.47548 170.61168 213.47548 168.84605ZM216.22548 166.6273Q215.63173 166.6273 215.2411 167.14293Q214.85048 167.64293 214.85048 169.0023Q214.85048 170.2523 215.2411 170.7523Q215.64735 171.2523 216.22548 171.2523Q216.81923 171.2523 217.20985 170.7523Q217.60048 170.23668 217.60048 168.89293Q217.60048 167.64293 217.20985 167.14293Q216.81923 166.6273 216.22548 166.6273ZM216.2411 179.11168L223.28798 165.53355L224.56923 165.53355L217.53798 179.11168L216.2411 179.11168ZM221.8036 175.61168Q221.8036 174.23668 222.4911 173.26793Q223.19423 172.29918 224.52235 172.29918Q225.7411 172.29918 226.52235 173.17418Q227.31923 174.03355 227.31923 175.72105Q227.31923 177.34605 226.52235 178.23668Q225.72548 179.11168 224.53798 179.11168Q223.3661 179.11168 222.58485 178.23668Q221.8036 177.36168 221.8036 175.61168ZM224.56923 173.39293Q223.97548 173.39293 223.58485 173.90855Q223.19423 174.40855 223.19423 175.78355Q223.19423 177.0023 223.58485 177.51793Q223.97548 178.03355 224.5536 178.03355Q225.16298 178.03355 225.5536 177.51793Q225.94423 177.0023 225.94423 175.65855Q225.94423 174.40855 225.5536 173.90855Q225.16298 173.39293 224.56923 173.39293Z" fill-rule="nonzero"/><path stroke="#ffffff" stroke-width="1.0" stroke-linejoin="round" stroke-linecap="round" d="M316.88467 170.54532C311.65515 167.88074 305.86923 166.49167 300.0 166.49167L300.0 54.916668C323.47693 54.916668 346.62054 60.47296 367.53867 71.13126" fill-rule="nonzero"/><path stroke="#ffffff" stroke-width="1.0" stroke-linejoin="round" stroke-linecap="round" d="M300.0 240.875C317.19592 240.875 332.14975 229.08636 336.16406 212.36555C340.17838 195.64476 332.20636 178.3521 316.88467 170.54532L367.53867 71.13126C428.82538 102.35841 460.71347 171.529 444.65622 238.41222C428.599 305.29544 368.78372 352.45 300.0 352.45" fill-rule="nonzero"/><path stroke="#ffffff" stroke-width="1.0" stroke-linejoin="round" stroke-linecap="round" d="M283.11533 236.82135C288.34485 239.48593 294.13077 240.875 300.0 240.875L300.0 352.45C276.52307 352.45 253.37944 346.8937 232.46135 336.2354" fill-rule="nonzero"/><path stroke="#ffffff" stroke-width="1.0" stroke-linejoin="round" stroke-linecap="round" d="M278.13928 233.77202C279.71555 234.91724 281.37933 235.93681 283.11533 236.82135L232.46135 336.2354C225.51736 332.69727 218.86215 328.61896 212.55714 324.0381" fill-rule="nonzero"/><path stroke="#ffffff" stroke-width="1.0" stroke-linejoin="round" stroke-linecap="round" d="M300.0 166.49167C283.8876 166.49167 269.60764 176.86667 264.62863 192.19048C259.64963 207.51428 265.10406 224.30139 278.13928 233.77202L212.55714 324.0381C160.4163 286.15555 138.59846 219.00714 158.5145 157.7119C178.43053 96.416664 235.55037 54.916668 300.0 54.916668" fill-rule="nonzero"/><path fill="#efefef" d="M19.76875 154.51048L19.76875 143.05736L21.33125 143.05736L27.346874 152.04173L27.346874 143.05736L28.8 143.05736L28.8 154.51048L27.2375 154.51048L21.221874 145.51048L21.221874 154.51048L19.76875 154.51048ZM37.01875 153.47923Q36.2375 154.15111 35.51875 154.43236Q34.8 154.69798 33.971874 154.69798Q32.596874 154.69798 31.8625 154.02611Q31.128124 153.35423 31.128124 152.32298Q31.128124 151.71361 31.409374 151.21361Q31.690624 150.69798 32.128124 150.40111Q32.58125 150.08861 33.14375 149.93236Q33.565624 149.82298 34.39375 149.72923Q36.096874 149.52611 36.909374 149.24486Q36.909374 148.94798 36.909374 148.86986Q36.909374 148.01048 36.51875 147.66673Q35.971874 147.18236 34.909374 147.18236Q33.925 147.18236 33.440624 147.54173Q32.971874 147.88548 32.753124 148.76048L31.378124 148.57298Q31.565624 147.69798 31.9875 147.15111Q32.425 146.60423 33.2375 146.32298Q34.05 146.02611 35.1125 146.02611Q36.175 146.02611 36.83125 146.27611Q37.503124 146.52611 37.815624 146.90111Q38.128124 147.27611 38.253124 147.85423Q38.33125 148.21361 38.33125 149.15111L38.33125 151.02611Q38.33125 152.99486 38.409374 153.51048Q38.503124 154.02611 38.76875 154.51048L37.3 154.51048Q37.08125 154.07298 37.01875 153.47923ZM36.909374 150.33861Q36.14375 150.65111 34.6125 150.86986Q33.7375 150.99486 33.378124 151.15111Q33.01875 151.30736 32.815624 151.61986Q32.628124 151.91673 32.628124 152.27611Q32.628124 152.83861 33.05 153.21361Q33.4875 153.58861 34.3 153.58861Q35.1125 153.58861 35.7375 153.24486Q36.378124 152.88548 36.675 152.26048Q36.909374 151.79173 36.909374 150.85423L36.909374 150.33861ZM43.675 153.24486L43.878124 154.49486Q43.284374 154.61986 42.815624 154.61986Q42.05 154.61986 41.628124 154.38548Q41.20625 154.13548 41.034374 153.74486Q40.8625 153.33861 40.8625 152.07298L40.8625 147.30736L39.83125 147.30736L39.83125 146.21361L40.8625 146.21361L40.8625 144.15111L42.26875 143.30736L42.26875 146.21361L43.675 146.21361L43.675 147.30736L42.26875 147.30736L42.26875 152.15111Q42.26875 152.76048 42.33125 152.93236Q42.409374 153.10423 42.58125 153.21361Q42.753124 153.30736 43.065624 153.30736Q43.3 153.30736 43.675 153.24486ZM50.05 154.51048L50.05 153.29173Q49.08125 154.69798 47.409374 154.69798Q46.675 154.69798 46.034374 154.41673Q45.409374 154.13548 45.096874 153.71361Q44.784374 153.27611 44.659374 152.66673Q44.58125 152.24486 44.58125 151.35423L44.58125 146.21361L45.9875 146.21361L45.9875 150.80736Q45.9875 151.91673 46.065624 152.29173Q46.20625 152.85423 46.628124 153.16673Q47.065624 153.47923 47.690624 153.47923Q48.33125 153.47923 48.878124 153.16673Q49.440624 152.83861 49.659374 152.27611Q49.89375 151.71361 49.89375 150.65111L49.89375 146.21361L51.3 146.21361L51.3 154.51048L50.05 154.51048ZM53.596874 154.51048L53.596874 146.21361L54.8625 146.21361L54.8625 147.46361Q55.346874 146.58861 55.753124 146.30736Q56.159374 146.02611 56.659374 146.02611Q57.3625 146.02611 58.096874 146.47923L57.6125 147.77611Q57.096874 147.47923 56.58125 147.47923Q56.128124 147.47923 55.753124 147.76048Q55.39375 148.02611 55.2375 148.52611Q55.003124 149.27611 55.003124 150.16673L55.003124 154.51048L53.596874 154.51048ZM64.28438 151.83861L65.7375 152.01048Q65.39375 153.29173 64.45625 153.99486Q63.534374 154.69798 62.096874 154.69798Q60.26875 154.69798 59.20625 153.57298Q58.14375 152.44798 58.14375 150.43236Q58.14375 148.33861 59.221874 147.18236Q60.3 146.02611 62.01875 146.02611Q63.675 146.02611 64.72188 147.16673Q65.78438 148.29173 65.78438 150.33861Q65.78438 150.46361 65.78438 150.71361L59.596874 150.71361Q59.675 152.08861 60.3625 152.82298Q61.065624 153.54173 62.096874 153.54173Q62.878124 153.54173 63.425 153.13548Q63.971874 152.72923 64.28438 151.83861ZM59.675 149.55736L64.3 149.55736Q64.20625 148.51048 63.76875 147.99486Q63.096874 147.18236 62.034374 147.18236Q61.065624 147.18236 60.39375 147.83861Q59.7375 148.47923 59.675 149.55736ZM67.05 152.02611L68.44063 151.80736Q68.55 152.65111 69.08125 153.10423Q69.62813 153.54173 70.58125 153.54173Q71.55 153.54173 72.01875 153.15111Q72.4875 152.74486 72.4875 152.21361Q72.4875 151.74486 72.08125 151.46361Q71.78438 151.27611 70.64375 150.99486Q69.09688 150.60423 68.4875 150.32298Q67.89375 150.02611 67.58125 149.52611Q67.28438 149.02611 67.28438 148.41673Q67.28438 147.85423 67.53438 147.38548Q67.78438 146.91673 68.22188 146.60423Q68.55 146.35423 69.1125 146.19798Q69.69063 146.02611 70.33125 146.02611Q71.31563 146.02611 72.05 146.30736Q72.78438 146.58861 73.12813 147.07298Q73.4875 147.54173 73.62813 148.35423L72.25313 148.54173Q72.15938 147.90111 71.70625 147.54173Q71.25313 147.18236 70.44063 147.18236Q69.47188 147.18236 69.05 147.51048Q68.64375 147.82298 68.64375 148.24486Q68.64375 148.52611 68.81563 148.74486Q68.9875 148.96361 69.34688 149.11986Q69.56563 149.19798 70.59688 149.47923Q72.08125 149.86986 72.675 150.13548Q73.26875 150.38548 73.59688 150.86986Q73.94063 151.35423 73.94063 152.07298Q73.94063 152.77611 73.51875 153.40111Q73.1125 154.01048 72.33125 154.35423Q71.56563 154.69798 70.59688 154.69798Q68.97188 154.69798 68.12813 154.02611Q67.28438 153.35423 67.05 152.02611ZM81.01875 151.46361L82.40938 151.65111Q82.175 153.07298 81.2375 153.88548Q80.31563 154.69798 78.95625 154.69798Q77.25313 154.69798 76.20625 153.58861Q75.175 152.46361 75.175 150.38548Q75.175 149.04173 75.6125 148.04173Q76.06563 147.02611 76.97188 146.52611Q77.89375 146.02611 78.95625 146.02611Q80.31563 146.02611 81.175 146.71361Q82.03438 147.38548 82.26875 148.65111L80.90938 148.85423Q80.70625 148.02611 80.20625 147.60423Q79.72188 147.18236 79.01875 147.18236Q77.95625 147.18236 77.28438 147.94798Q76.62813 148.69798 76.62813 150.35423Q76.62813 152.02611 77.26875 152.79173Q77.90938 153.54173 78.94063 153.54173Q79.76875 153.54173 80.31563 153.04173Q80.87813 152.52611 81.01875 151.46361ZM89.01875 153.47923Q88.2375 154.15111 87.51875 154.43236Q86.8 154.69798 85.97188 154.69798Q84.59688 154.69798 83.8625 154.02611Q83.12813 153.35423 83.12813 152.32298Q83.12813 151.71361 83.40938 151.21361Q83.69063 150.69798 84.12813 150.40111Q84.58125 150.08861 85.14375 149.93236Q85.56563 149.82298 86.39375 149.72923Q88.09688 149.52611 88.90938 149.24486Q88.90938 148.94798 88.90938 148.86986Q88.90938 148.01048 88.51875 147.66673Q87.97188 147.18236 86.90938 147.18236Q85.925 147.18236 85.44063 147.54173Q84.97188 147.88548 84.75313 148.76048L83.37813 148.57298Q83.56563 147.69798 83.9875 147.15111Q84.425 146.60423 85.2375 146.32298Q86.05 146.02611 87.1125 146.02611Q88.175 146.02611 88.83125 146.27611Q89.50313 146.52611 89.81563 146.90111Q90.12813 147.27611 90.25313 147.85423Q90.33125 148.21361 90.33125 149.15111L90.33125 151.02611Q90.33125 152.99486 90.40938 153.51048Q90.50313 154.02611 90.76875 154.51048L89.3 154.51048Q89.08125 154.07298 89.01875 153.47923ZM88.90938 150.33861Q88.14375 150.65111 86.6125 150.86986Q85.7375 150.99486 85.37813 151.15111Q85.01875 151.30736 84.81563 151.61986Q84.62813 151.91673 84.62813 152.27611Q84.62813 152.83861 85.05 153.21361Q85.4875 153.58861 86.3 153.58861Q87.1125 153.58861 87.7375 153.24486Q88.37813 152.88548 88.675 152.26048Q88.90938 151.79173 88.90938 150.85423L88.90938 150.33861ZM92.6125 157.69798L92.6125 146.21361L93.89375 146.21361L93.89375 147.29173Q94.34688 146.65111 94.90938 146.33861Q95.4875 146.02611 96.3 146.02611Q97.3625 146.02611 98.175 146.57298Q98.9875 147.11986 99.39375 148.11986Q99.81563 149.10423 99.81563 150.29173Q99.81563 151.57298 99.34688 152.58861Q98.89375 153.60423 98.01875 154.15111Q97.15938 154.69798 96.19063 154.69798Q95.4875 154.69798 94.925 154.40111Q94.37813 154.10423 94.01875 153.65111L94.01875 157.69798L92.6125 157.69798ZM93.87813 150.40111Q93.87813 152.01048 94.51875 152.77611Q95.175 153.54173 96.09688 153.54173Q97.03438 153.54173 97.70625 152.74486Q98.37813 151.94798 98.37813 150.29173Q98.37813 148.69798 97.72188 147.91673Q97.06563 147.11986 96.15938 147.11986Q95.26875 147.11986 94.56563 147.96361Q93.87813 148.80736 93.87813 150.40111ZM107.28438 151.83861L108.7375 152.01048Q108.39375 153.29173 107.45625 153.99486Q106.53438 154.69798 105.09688 154.69798Q103.26875 154.69798 102.20625 153.57298Q101.14375 152.44798 101.14375 150.43236Q101.14375 148.33861 102.22188 147.18236Q103.3 146.02611 105.01875 146.02611Q106.675 146.02611 107.72188 147.16673Q108.78438 148.29173 108.78438 150.33861Q108.78438 150.46361 108.78438 150.71361L102.59688 150.71361Q102.675 152.08861 103.3625 152.82298Q104.06563 153.54173 105.09688 153.54173Q105.87813 153.54173 106.425 153.13548Q106.97188 152.72923 107.28438 151.83861ZM102.675 149.55736L107.3 149.55736Q107.20625 148.51048 106.76875 147.99486Q106.09688 147.18236 105.03438 147.18236Q104.06563 147.18236 103.39375 147.83861Q102.7375 148.47923 102.675 149.55736Z" fill-rule="nonzero"/><path fill="#9e9e9e" d="M23.721874 176.51048L23.721874 173.76048L18.753124 173.76048L18.753124 172.47923L23.9875 165.05736L25.128124 165.05736L25.128124 172.47923L26.675 172.47923L26.675 173.76048L25.128124 173.76048L25.128124 176.51048L23.721874 176.51048ZM23.721874 172.47923L23.721874 167.30736L20.14375 172.47923L23.721874 172.47923ZM28.221874 170.85423Q28.221874 168.82298 28.628124 167.58861Q29.05 166.35423 29.878124 165.68236Q30.70625 165.01048 31.95625 165.01048Q32.878124 165.01048 33.565624 165.38548Q34.26875 165.74486 34.721874 166.44798Q35.175 167.15111 35.425 168.15111Q35.690624 169.15111 35.690624 170.85423Q35.690624 172.86986 35.26875 174.11986Q34.8625 175.35423 34.034374 176.04173Q33.20625 176.71361 31.95625 176.71361Q30.3 176.71361 29.346874 175.51048Q28.221874 174.08861 28.221874 170.85423ZM29.659374 170.85423Q29.659374 173.68236 30.315624 174.61986Q30.9875 175.54173 31.95625 175.54173Q32.925 175.54173 33.58125 174.60423Q34.2375 173.66673 34.2375 170.85423Q34.2375 168.02611 33.58125 167.10423Q32.925 166.16673 31.940624 166.16673Q30.971874 166.16673 30.39375 166.99486Q29.659374 168.04173 29.659374 170.85423ZM38.003124 176.51048L38.003124 174.90111L39.6125 174.90111L39.6125 176.51048L38.003124 176.51048ZM41.221874 170.85423Q41.221874 168.82298 41.628124 167.58861Q42.05 166.35423 42.878124 165.68236Q43.70625 165.01048 44.95625 165.01048Q45.878124 165.01048 46.565624 165.38548Q47.26875 165.74486 47.721874 166.44798Q48.175 167.15111 48.425 168.15111Q48.690624 169.15111 48.690624 170.85423Q48.690624 172.86986 48.26875 174.11986Q47.8625 175.35423 47.034374 176.04173Q46.20625 176.71361 44.95625 176.71361Q43.3 176.71361 42.346874 175.51048Q41.221874 174.08861 41.221874 170.85423ZM42.659374 170.85423Q42.659374 173.68236 43.315624 174.61986Q43.9875 175.54173 44.95625 175.54173Q45.925 175.54173 46.58125 174.60423Q47.2375 173.66673 47.2375 170.85423Q47.2375 168.02611 46.58125 167.10423Q45.925 166.16673 44.940624 166.16673Q43.971874 166.16673 43.39375 166.99486Q42.659374 168.04173 42.659374 170.85423ZM50.4875 167.80736Q50.4875 166.57298 51.096874 165.71361Q51.721874 164.85423 52.89375 164.85423Q53.971874 164.85423 54.675 165.63548Q55.378124 166.40111 55.378124 167.88548Q55.378124 169.33861 54.659374 170.13548Q53.95625 170.91673 52.909374 170.91673Q51.8625 170.91673 51.175 170.15111Q50.4875 169.36986 50.4875 167.80736ZM52.925 165.82298Q52.409374 165.82298 52.05 166.27611Q51.70625 166.72923 51.70625 167.94798Q51.70625 169.04173 52.05 169.49486Q52.409374 169.94798 52.925 169.94798Q53.45625 169.94798 53.8 169.49486Q54.159374 169.04173 54.159374 167.83861Q54.159374 166.72923 53.8 166.27611Q53.45625 165.82298 52.925 165.82298ZM52.940624 176.93236L59.20625 164.85423L60.346874 164.85423L54.096874 176.93236L52.940624 176.93236ZM57.89375 173.82298Q57.89375 172.58861 58.503124 171.72923Q59.128124 170.86986 60.3 170.86986Q61.378124 170.86986 62.08125 171.65111Q62.8 172.41673 62.8 173.90111Q62.8 175.35423 62.08125 176.15111Q61.3625 176.93236 60.315624 176.93236Q59.26875 176.93236 58.58125 176.15111Q57.89375 175.36986 57.89375 173.82298ZM60.346874 171.83861Q59.815624 171.83861 59.45625 172.29173Q59.1125 172.74486 59.1125 173.96361Q59.1125 175.05736 59.45625 175.51048Q59.815624 175.96361 60.33125 175.96361Q60.878124 175.96361 61.221874 175.51048Q61.565624 175.05736 61.565624 173.85423Q61.565624 172.74486 61.20625 172.29173Q60.8625 171.83861 60.346874 171.83861Z" fill-rule="nonzero"/><path stroke="#757575" stroke-width="1.0" stroke-linecap="butt" d="M18.55 160.01048L145.23334 160.01048L165.58876 160.01048" fill-rule="nonzero"/><path fill="#9e9e9e" d="M167.58876 160.01048C167.58876 158.90591 166.69334 158.01048 165.58876 158.01048C164.48419 158.01048 163.58876 158.90591 163.58876 160.01048C163.58876 161.11505 164.48419 162.01048 165.58876 162.01048C166.69334 162.01048 167.58876 161.11505 167.58876 160.01048" fill-rule="nonzero"/><path fill="#efefef" d="M18.51875 285.45L22.925 273.9969L24.565624 273.9969L29.253124 285.45L27.51875 285.45L26.190624 281.98126L21.39375 281.98126L20.14375 285.45L18.51875 285.45ZM21.83125 280.7469L25.721874 280.7469L24.51875 277.575Q23.971874 276.1219 23.70625 275.2Q23.4875 276.29376 23.096874 277.3875L21.83125 280.7469ZM30.6125 285.45L30.6125 277.15314L31.878124 277.15314L31.878124 278.325Q32.784374 276.96564 34.51875 276.96564Q35.26875 276.96564 35.89375 277.23126Q36.51875 277.4969 36.83125 277.9344Q37.14375 278.3719 37.26875 278.98126Q37.346874 279.3719 37.346874 280.34064L37.346874 285.45L35.940624 285.45L35.940624 280.40314Q35.940624 279.54376 35.76875 279.1219Q35.6125 278.6844 35.190624 278.4344Q34.784374 278.1844 34.221874 278.1844Q33.315624 278.1844 32.659374 278.7625Q32.01875 279.325 32.01875 280.91876L32.01875 285.45L30.6125 285.45ZM39.6125 275.60626L39.6125 273.9969L41.01875 273.9969L41.01875 275.60626L39.6125 275.60626ZM39.6125 285.45L39.6125 277.15314L41.01875 277.15314L41.01875 285.45L39.6125 285.45ZM43.6125 285.45L43.6125 277.15314L44.8625 277.15314L44.8625 278.3094Q45.253124 277.7 45.89375 277.34064Q46.55 276.96564 47.378124 276.96564Q48.3 276.96564 48.89375 277.35626Q49.4875 277.73126 49.721874 278.41876Q50.70625 276.96564 52.284374 276.96564Q53.51875 276.96564 54.175 277.65314Q54.846874 278.325 54.846874 279.7469L54.846874 285.45L53.45625 285.45L53.45625 280.21564Q53.45625 279.3719 53.315624 279.0125Q53.175 278.6375 52.815624 278.41876Q52.45625 278.1844 51.971874 278.1844Q51.096874 278.1844 50.51875 278.7625Q49.940624 279.34064 49.940624 280.6219L49.940624 285.45L48.534374 285.45L48.534374 280.0594Q48.534374 279.1219 48.190624 278.65314Q47.846874 278.1844 47.065624 278.1844Q46.471874 278.1844 45.971874 278.4969Q45.471874 278.8094 45.2375 279.41876Q45.01875 280.0125 45.01875 281.1375L45.01875 285.45L43.6125 285.45ZM62.01875 284.41876Q61.2375 285.09064 60.51875 285.3719Q59.8 285.6375 58.971874 285.6375Q57.596874 285.6375 56.8625 284.96564Q56.128124 284.29376 56.128124 283.2625Q56.128124 282.65314 56.409374 282.15314Q56.690624 281.6375 57.128124 281.34064Q57.58125 281.02814 58.14375 280.8719Q58.565624 280.7625 59.39375 280.66876Q61.096874 280.46564 61.909374 280.1844Q61.909374 279.8875 61.909374 279.8094Q61.909374 278.95 61.51875 278.60626Q60.971874 278.1219 59.909374 278.1219Q58.925 278.1219 58.440624 278.48126Q57.971874 278.825 57.753124 279.7L56.378124 279.5125Q56.565624 278.6375 56.9875 278.09064Q57.425 277.54376 58.2375 277.2625Q59.05 276.96564 60.1125 276.96564Q61.175 276.96564 61.83125 277.21564Q62.503124 277.46564 62.815624 277.84064Q63.128124 278.21564 63.253124 278.79376Q63.33125 279.15314 63.33125 280.09064L63.33125 281.96564Q63.33125 283.9344 63.409374 284.45Q63.503124 284.96564 63.76875 285.45L62.3 285.45Q62.08125 285.0125 62.01875 284.41876ZM61.909374 281.27814Q61.14375 281.59064 59.6125 281.8094Q58.7375 281.9344 58.378124 282.09064Q58.01875 282.2469 57.815624 282.5594Q57.628124 282.85626 57.628124 283.21564Q57.628124 283.77814 58.05 284.15314Q58.4875 284.52814 59.3 284.52814Q60.1125 284.52814 60.7375 284.1844Q61.378124 283.825 61.675 283.2Q61.909374 282.73126 61.909374 281.79376L61.909374 281.27814ZM65.58125 285.45L65.58125 273.9969L66.9875 273.9969L66.9875 285.45L65.58125 285.45ZM69.05 282.96564L70.44063 282.7469Q70.55 283.59064 71.08125 284.04376Q71.62813 284.48126 72.58125 284.48126Q73.55 284.48126 74.01875 284.09064Q74.4875 283.6844 74.4875 283.15314Q74.4875 282.6844 74.08125 282.40314Q73.78438 282.21564 72.64375 281.9344Q71.09688 281.54376 70.4875 281.2625Q69.89375 280.96564 69.58125 280.46564Q69.28438 279.96564 69.28438 279.35626Q69.28438 278.79376 69.53438 278.325Q69.78438 277.85626 70.22188 277.54376Q70.55 277.29376 71.1125 277.1375Q71.69063 276.96564 72.33125 276.96564Q73.31563 276.96564 74.05 277.2469Q74.78438 277.52814 75.12813 278.0125Q75.4875 278.48126 75.62813 279.29376L74.25313 279.48126Q74.15938 278.84064 73.70625 278.48126Q73.25313 278.1219 72.44063 278.1219Q71.47188 278.1219 71.05 278.45Q70.64375 278.7625 70.64375 279.1844Q70.64375 279.46564 70.81563 279.6844Q70.9875 279.90314 71.34688 280.0594Q71.56563 280.1375 72.59688 280.41876Q74.08125 280.8094 74.675 281.075Q75.26875 281.325 75.59688 281.8094Q75.94063 282.29376 75.94063 283.0125Q75.94063 283.71564 75.51875 284.34064Q75.1125 284.95 74.33125 285.29376Q73.56563 285.6375 72.59688 285.6375Q70.97188 285.6375 70.12813 284.96564Q69.28438 284.29376 69.05 282.96564Z" fill-rule="nonzero"/><path fill="#9e9e9e" d="M26.6125 306.09064L26.6125 307.45L19.034374 307.45Q19.01875 306.9344 19.20625 306.46564Q19.4875 305.7 20.128124 304.95Q20.76875 304.2 21.971874 303.21564Q23.83125 301.6844 24.4875 300.79376Q25.14375 299.8875 25.14375 299.09064Q25.14375 298.2625 24.55 297.6844Q23.95625 297.10626 22.9875 297.10626Q21.971874 297.10626 21.3625 297.71564Q20.753124 298.325 20.753124 299.40314L19.3 299.2625Q19.45625 297.6375 20.425 296.79376Q21.39375 295.95 23.01875 295.95Q24.675 295.95 25.628124 296.8719Q26.596874 297.77814 26.596874 299.1219Q26.596874 299.8094 26.315624 300.48126Q26.034374 301.1375 25.378124 301.8719Q24.721874 302.60626 23.20625 303.8875Q21.940624 304.95 21.58125 305.34064Q21.221874 305.71564 20.9875 306.09064L26.6125 306.09064ZM29.003124 307.45L29.003124 305.84064L30.6125 305.84064L30.6125 307.45L29.003124 307.45ZM32.221874 304.45L33.690624 304.325Q33.8625 305.40314 34.45625 305.95Q35.05 306.48126 35.89375 306.48126Q36.909374 306.48126 37.6125 305.71564Q38.315624 304.95 38.315624 303.6844Q38.315624 302.48126 37.64375 301.79376Q36.971874 301.09064 35.878124 301.09064Q35.190624 301.09064 34.64375 301.40314Q34.096874 301.71564 33.784374 302.2L32.471874 302.02814L33.58125 296.15314L39.26875 296.15314L39.26875 297.4969L34.70625 297.4969L34.08125 300.575Q35.1125 299.85626 36.253124 299.85626Q37.753124 299.85626 38.784374 300.90314Q39.815624 301.9344 39.815624 303.5594Q39.815624 305.1219 38.909374 306.2469Q37.8 307.65314 35.89375 307.65314Q34.33125 307.65314 33.346874 306.77814Q32.3625 305.8875 32.221874 304.45ZM41.4875 298.7469Q41.4875 297.5125 42.096874 296.65314Q42.721874 295.79376 43.89375 295.79376Q44.971874 295.79376 45.675 296.575Q46.378124 297.34064 46.378124 298.825Q46.378124 300.27814 45.659374 301.075Q44.95625 301.85626 43.909374 301.85626Q42.8625 301.85626 42.175 301.09064Q41.4875 300.3094 41.4875 298.7469ZM43.925 296.7625Q43.409374 296.7625 43.05 297.21564Q42.70625 297.66876 42.70625 298.8875Q42.70625 299.98126 43.05 300.4344Q43.409374 300.8875 43.925 300.8875Q44.45625 300.8875 44.8 300.4344Q45.159374 299.98126 45.159374 298.77814Q45.159374 297.66876 44.8 297.21564Q44.45625 296.7625 43.925 296.7625ZM43.940624 307.8719L50.20625 295.79376L51.346874 295.79376L45.096874 307.8719L43.940624 307.8719ZM48.89375 304.7625Q48.89375 303.52814 49.503124 302.66876Q50.128124 301.8094 51.3 301.8094Q52.378124 301.8094 53.08125 302.59064Q53.8 303.35626 53.8 304.84064Q53.8 306.29376 53.08125 307.09064Q52.3625 307.8719 51.315624 307.8719Q50.26875 307.8719 49.58125 307.09064Q48.89375 306.3094 48.89375 304.7625ZM51.346874 302.77814Q50.815624 302.77814 50.45625 303.23126Q50.1125 303.6844 50.1125 304.90314Q50.1125 305.9969 50.45625 306.45Q50.815624 306.90314 51.33125 306.90314Q51.878124 306.90314 52.221874 306.45Q52.565624 305.9969 52.565624 304.79376Q52.565624 303.6844 52.20625 303.23126Q51.8625 302.77814 51.346874 302.77814Z" fill-rule="nonzero"/><path stroke="#757575" stroke-width="1.0" stroke-linecap="butt" d="M18.55 290.95L145.23334 290.95L226.15614 324.18555" fill-rule="nonzero"/><path fill="#9e9e9e" d="M228.15614 324.18555C228.15614 323.08096 227.26071 322.18555 226.15614 322.18555C225.05157 322.18555 224.15614 323.08096 224.15614 324.18555C224.15614 325.29013 225.05157 326.18555 226.15614 326.18555C227.26071 326.18555 228.15614 325.29013 228.15614 324.18555" fill-rule="nonzero"/><path fill="#efefef" d="M19.784374 326.45L19.784374 314.9969L24.1125 314.9969Q25.253124 314.9969 25.846874 315.10626Q26.690624 315.2469 27.253124 315.6375Q27.83125 316.02814 28.175 316.7469Q28.534374 317.45 28.534374 318.3094Q28.534374 319.7625 27.596874 320.77814Q26.675 321.79376 24.2375 321.79376L21.3 321.79376L21.3 326.45L19.784374 326.45ZM21.3 320.4344L24.26875 320.4344Q25.7375 320.4344 26.346874 319.8875Q26.971874 319.34064 26.971874 318.35626Q26.971874 317.6375 26.596874 317.1219Q26.2375 316.60626 25.64375 316.45Q25.26875 316.34064 24.2375 316.34064L21.3 316.34064L21.3 320.4344ZM36.284374 323.77814L37.7375 323.95Q37.39375 325.23126 36.45625 325.9344Q35.534374 326.6375 34.096874 326.6375Q32.26875 326.6375 31.20625 325.5125Q30.14375 324.3875 30.14375 322.3719Q30.14375 320.27814 31.221874 319.1219Q32.3 317.96564 34.01875 317.96564Q35.675 317.96564 36.721874 319.10626Q37.784374 320.23126 37.784374 322.27814Q37.784374 322.40314 37.784374 322.65314L31.596874 322.65314Q31.675 324.02814 32.3625 324.7625Q33.065624 325.48126 34.096874 325.48126Q34.878124 325.48126 35.425 325.075Q35.971874 324.66876 36.284374 323.77814ZM31.675 321.4969L36.3 321.4969Q36.20625 320.45 35.76875 319.9344Q35.096874 319.1219 34.034374 319.1219Q33.065624 319.1219 32.39375 319.77814Q31.7375 320.41876 31.675 321.4969ZM39.08125 322.29376Q39.08125 319.9969 40.3625 318.8875Q41.440624 317.96564 42.971874 317.96564Q44.690624 317.96564 45.76875 319.09064Q46.8625 320.2 46.8625 322.1844Q46.8625 323.77814 46.378124 324.7Q45.89375 325.6219 44.971874 326.1375Q44.065624 326.6375 42.971874 326.6375Q41.2375 326.6375 40.159374 325.52814Q39.08125 324.40314 39.08125 322.29376ZM40.534374 322.29376Q40.534374 323.8875 41.221874 324.6844Q41.925 325.48126 42.971874 325.48126Q44.01875 325.48126 44.70625 324.6844Q45.409374 323.8875 45.409374 322.2469Q45.409374 320.71564 44.70625 319.91876Q44.01875 319.1219 42.971874 319.1219Q41.925 319.1219 41.221874 319.91876Q40.534374 320.7 40.534374 322.29376ZM48.6125 329.6375L48.6125 318.15314L49.89375 318.15314L49.89375 319.23126Q50.346874 318.59064 50.909374 318.27814Q51.4875 317.96564 52.3 317.96564Q53.3625 317.96564 54.175 318.5125Q54.9875 319.0594 55.39375 320.0594Q55.815624 321.04376 55.815624 322.23126Q55.815624 323.5125 55.346874 324.52814Q54.89375 325.54376 54.01875 326.09064Q53.159374 326.6375 52.190624 326.6375Q51.4875 326.6375 50.925 326.34064Q50.378124 326.04376 50.01875 325.59064L50.01875 329.6375L48.6125 329.6375ZM49.878124 322.34064Q49.878124 323.95 50.51875 324.71564Q51.175 325.48126 52.096874 325.48126Q53.034374 325.48126 53.70625 324.6844Q54.378124 323.8875 54.378124 322.23126Q54.378124 320.6375 53.721874 319.85626Q53.065624 319.0594 52.159374 319.0594Q51.26875 319.0594 50.565624 319.90314Q49.878124 320.7469 49.878124 322.34064ZM57.58125 326.45L57.58125 314.9969L58.9875 314.9969L58.9875 326.45L57.58125 326.45ZM67.28438 323.77814L68.7375 323.95Q68.39375 325.23126 67.45625 325.9344Q66.53438 326.6375 65.09688 326.6375Q63.26875 326.6375 62.20625 325.5125Q61.14375 324.3875 61.14375 322.3719Q61.14375 320.27814 62.221874 319.1219Q63.3 317.96564 65.01875 317.96564Q66.675 317.96564 67.72188 319.10626Q68.78438 320.23126 68.78438 322.27814Q68.78438 322.40314 68.78438 322.65314L62.596874 322.65314Q62.675 324.02814 63.3625 324.7625Q64.06563 325.48126 65.09688 325.48126Q65.87813 325.48126 66.425 325.075Q66.97188 324.66876 67.28438 323.77814ZM62.675 321.4969L67.3 321.4969Q67.20625 320.45 66.76875 319.9344Q66.09688 319.1219 65.03438 319.1219Q64.06563 319.1219 63.39375 319.77814Q62.7375 320.41876 62.675 321.4969Z" fill-rule="nonzero"/><path fill="#9e9e9e" d="M19.315624 338.4969L19.315624 337.1375L26.721874 337.1375L26.721874 338.23126Q25.628124 339.40314 24.55 341.34064Q23.4875 343.2625 22.89375 345.29376Q22.471874 346.73126 22.3625 348.45L20.909374 348.45Q20.940624 347.09064 21.440624 345.1844Q21.95625 343.2625 22.89375 341.4969Q23.846874 339.71564 24.925 338.4969L19.315624 338.4969ZM29.003124 348.45L29.003124 346.84064L30.6125 346.84064L30.6125 348.45L29.003124 348.45ZM32.221874 345.45L33.690624 345.325Q33.8625 346.40314 34.45625 346.95Q35.05 347.48126 35.89375 347.48126Q36.909374 347.48126 37.6125 346.71564Q38.315624 345.95 38.315624 344.6844Q38.315624 343.48126 37.64375 342.79376Q36.971874 342.09064 35.878124 342.09064Q35.190624 342.09064 34.64375 342.40314Q34.096874 342.71564 33.784374 343.2L32.471874 343.02814L33.58125 337.15314L39.26875 337.15314L39.26875 338.4969L34.70625 338.4969L34.08125 341.575Q35.1125 340.85626 36.253124 340.85626Q37.753124 340.85626 38.784374 341.90314Q39.815624 342.9344 39.815624 344.5594Q39.815624 346.1219 38.909374 347.2469Q37.8 348.65314 35.89375 348.65314Q34.33125 348.65314 33.346874 347.77814Q32.3625 346.8875 32.221874 345.45ZM41.4875 339.7469Q41.4875 338.5125 42.096874 337.65314Q42.721874 336.79376 43.89375 336.79376Q44.971874 336.79376 45.675 337.575Q46.378124 338.34064 46.378124 339.825Q46.378124 341.27814 45.659374 342.075Q44.95625 342.85626 43.909374 342.85626Q42.8625 342.85626 42.175 342.09064Q41.4875 341.3094 41.4875 339.7469ZM43.925 337.7625Q43.409374 337.7625 43.05 338.21564Q42.70625 338.66876 42.70625 339.8875Q42.70625 340.98126 43.05 341.4344Q43.409374 341.8875 43.925 341.8875Q44.45625 341.8875 44.8 341.4344Q45.159374 340.98126 45.159374 339.77814Q45.159374 338.66876 44.8 338.21564Q44.45625 337.7625 43.925 337.7625ZM43.940624 348.8719L50.20625 336.79376L51.346874 336.79376L45.096874 348.8719L43.940624 348.8719ZM48.89375 345.7625Q48.89375 344.52814 49.503124 343.66876Q50.128124 342.8094 51.3 342.8094Q52.378124 342.8094 53.08125 343.59064Q53.8 344.35626 53.8 345.84064Q53.8 347.29376 53.08125 348.09064Q52.3625 348.8719 51.315624 348.8719Q50.26875 348.8719 49.58125 348.09064Q48.89375 347.3094 48.89375 345.7625ZM51.346874 343.77814Q50.815624 343.77814 50.45625 344.23126Q50.1125 344.6844 50.1125 345.90314Q50.1125 346.9969 50.45625 347.45Q50.815624 347.90314 51.33125 347.90314Q51.878124 347.90314 52.221874 347.45Q52.565624 346.9969 52.565624 345.79376Q52.565624 344.6844 52.20625 344.23126Q51.8625 343.77814 51.346874 343.77814Z" fill-rule="nonzero"/><path stroke="#757575" stroke-width="1.0" stroke-linecap="butt" d="M18.55 331.95L145.23334 331.95L267.00757 341.10675" fill-rule="nonzero"/><path fill="#9e9e9e" d="M269.00757 341.10675C269.00757 340.0022 268.11212 339.10675 267.00757 339.10675C265.90298 339.10675 265.00757 340.0022 265.00757 341.10675C265.00757 342.21133 265.90298 343.10675 267.00757 343.10675C268.11212 343.10675 269.00757 342.21133 269.00757 341.10675" fill-rule="nonzero"/><path fill="#efefef" d="M551.6375 69.916664L551.6375 58.46354L553.91876 58.46354L556.6375 66.572914Q557.0125 67.697914 557.1844 68.260414Q557.3719 67.635414 557.79376 66.43229L560.52814 58.46354L562.575 58.46354L562.575 69.916664L561.10626 69.916664L561.10626 60.322914L557.77814 69.916664L556.41876 69.916664L553.10626 60.166664L553.10626 69.916664L551.6375 69.916664ZM569.91876 68.885414Q569.1375 69.55729 568.41876 69.83854Q567.7 70.104164 566.8719 70.104164Q565.4969 70.104164 564.7625 69.43229Q564.02814 68.760414 564.02814 67.729164Q564.02814 67.11979 564.3094 66.61979Q564.59064 66.104164 565.02814 65.80729Q565.48126 65.49479 566.04376 65.33854Q566.46564 65.229164 567.29376 65.135414Q568.9969 64.93229 569.8094 64.65104Q569.8094 64.354164 569.8094 64.27604Q569.8094 63.416664 569.41876 63.072914Q568.8719 62.58854 567.8094 62.58854Q566.825 62.58854 566.34064 62.947914Q565.8719 63.291664 565.65314 64.166664L564.27814 63.979164Q564.46564 63.104164 564.8875 62.55729Q565.325 62.010414 566.1375 61.729164Q566.95 61.43229 568.0125 61.43229Q569.075 61.43229 569.73126 61.68229Q570.40314 61.93229 570.71564 62.30729Q571.02814 62.68229 571.15314 63.260414Q571.23126 63.61979 571.23126 64.55729L571.23126 66.43229Q571.23126 68.40104 571.3094 68.916664Q571.40314 69.43229 571.66876 69.916664L570.2 69.916664Q569.98126 69.479164 569.91876 68.885414ZM569.8094 65.74479Q569.04376 66.05729 567.5125 66.27604Q566.6375 66.40104 566.27814 66.55729Q565.91876 66.71354 565.71564 67.02604Q565.52814 67.322914 565.52814 67.68229Q565.52814 68.24479 565.95 68.61979Q566.3875 68.99479 567.2 68.99479Q568.0125 68.99479 568.6375 68.65104Q569.27814 68.291664 569.575 67.666664Q569.8094 67.197914 569.8094 66.260414L569.8094 65.74479ZM573.5125 73.104164L573.5125 61.61979L574.79376 61.61979L574.79376 62.697914Q575.2469 62.05729 575.8094 61.74479Q576.3875 61.43229 577.2 61.43229Q578.2625 61.43229 579.075 61.979164Q579.8875 62.52604 580.29376 63.52604Q580.71564 64.510414 580.71564 65.697914Q580.71564 66.979164 580.2469 67.99479Q579.79376 69.010414 578.91876 69.55729Q578.0594 70.104164 577.09064 70.104164Q576.3875 70.104164 575.825 69.80729Q575.27814 69.510414 574.91876 69.05729L574.91876 73.104164L573.5125 73.104164ZM574.77814 65.80729Q574.77814 67.416664 575.41876 68.18229Q576.075 68.947914 576.9969 68.947914Q577.9344 68.947914 578.60626 68.15104Q579.27814 67.354164 579.27814 65.697914Q579.27814 64.104164 578.6219 63.322914Q577.96564 62.52604 577.0594 62.52604Q576.16876 62.52604 575.46564 63.36979Q574.77814 64.21354 574.77814 65.80729Z" fill-rule="nonzero"/><path fill="#9e9e9e" d="M546.21564 81.96354L546.21564 80.604164L553.6219 80.604164L553.6219 81.697914Q552.52814 82.86979 551.45 84.80729Q550.3875 86.729164 549.79376 88.760414Q549.3719 90.197914 549.2625 91.916664L547.8094 91.916664Q547.84064 90.55729 548.34064 88.65104Q548.85626 86.729164 549.79376 84.96354Q550.7469 83.18229 551.825 81.96354L546.21564 81.96354ZM555.90314 91.916664L555.90314 90.30729L557.5125 90.30729L557.5125 91.916664L555.90314 91.916664ZM559.1219 88.916664L560.59064 88.791664Q560.7625 89.86979 561.35626 90.416664Q561.95 90.947914 562.79376 90.947914Q563.8094 90.947914 564.5125 90.18229Q565.21564 89.416664 565.21564 88.15104Q565.21564 86.947914 564.54376 86.260414Q563.8719 85.55729 562.77814 85.55729Q562.09064 85.55729 561.54376 85.86979Q560.9969 86.18229 560.6844 86.666664L559.3719 86.49479L560.48126 80.61979L566.16876 80.61979L566.16876 81.96354L561.60626 81.96354L560.98126 85.041664Q562.0125 84.322914 563.15314 84.322914Q564.65314 84.322914 565.6844 85.36979Q566.71564 86.40104 566.71564 88.02604Q566.71564 89.58854 565.8094 90.71354Q564.7 92.11979 562.79376 92.11979Q561.23126 92.11979 560.2469 91.24479Q559.2625 90.354164 559.1219 88.916664ZM568.3875 83.21354Q568.3875 81.979164 568.9969 81.11979Q569.6219 80.260414 570.79376 80.260414Q571.8719 80.260414 572.575 81.041664Q573.27814 81.80729 573.27814 83.291664Q573.27814 84.74479 572.5594 85.541664Q571.85626 86.322914 570.8094 86.322914Q569.7625 86.322914 569.075 85.55729Q568.3875 84.77604 568.3875 83.21354ZM570.825 81.229164Q570.3094 81.229164 569.95 81.68229Q569.60626 82.135414 569.60626 83.354164Q569.60626 84.447914 569.95 84.90104Q570.3094 85.354164 570.825 85.354164Q571.35626 85.354164 571.7 84.90104Q572.0594 84.447914 572.0594 83.24479Q572.0594 82.135414 571.7 81.68229Q571.35626 81.229164 570.825 81.229164ZM570.84064 92.33854L577.10626 80.260414L578.2469 80.260414L571.9969 92.33854L570.84064 92.33854ZM575.79376 89.229164Q575.79376 87.99479 576.40314 87.135414Q577.02814 86.27604 578.2 86.27604Q579.27814 86.27604 579.98126 87.05729Q580.7 87.822914 580.7 89.30729Q580.7 90.760414 579.98126 91.55729Q579.2625 92.33854 578.21564 92.33854Q577.16876 92.33854 576.48126 91.55729Q575.79376 90.77604 575.79376 89.229164ZM578.2469 87.24479Q577.71564 87.24479 577.35626 87.697914Q577.0125 88.15104 577.0125 89.36979Q577.0125 90.46354 577.35626 90.916664Q577.71564 91.36979 578.23126 91.36979Q578.77814 91.36979 579.1219 90.916664Q579.46564 90.46354 579.46564 89.260414Q579.46564 88.15104 579.10626 87.697914Q578.7625 87.24479 578.2469 87.24479Z" fill-rule="nonzero"/><path stroke="#757575" stroke-width="1.0" stroke-linecap="butt" d="M581.45 75.416664L454.76666 75.416664L332.99243 66.25991" fill-rule="nonzero"/><path fill="#9e9e9e" d="M334.99243 66.25991C334.99243 65.15534 334.09702 64.25991 332.99243 64.25991C331.88788 64.25991 330.99243 65.15534 330.99243 66.25991C330.99243 67.36448 331.88788 68.25991 332.99243 68.25991C334.09702 68.25991 334.99243 67.36448 334.99243 66.25991" fill-rule="nonzero"/><path fill="#efefef" d="M498.6844 231.17578L498.6844 219.72266L503.0125 219.72266Q504.15314 219.72266 504.7469 219.83203Q505.59064 219.97266 506.15314 220.36328Q506.73126 220.7539 507.075 221.47266Q507.4344 222.17578 507.4344 223.03516Q507.4344 224.48828 506.4969 225.5039Q505.575 226.51953 503.1375 226.51953L500.2 226.51953L500.2 231.17578L498.6844 231.17578ZM500.2 225.16016L503.16876 225.16016Q504.6375 225.16016 505.2469 224.61328Q505.8719 224.0664 505.8719 223.08203Q505.8719 222.36328 505.4969 221.84766Q505.1375 221.33203 504.54376 221.17578Q504.16876 221.0664 503.1375 221.0664L500.2 221.0664L500.2 225.16016ZM515.1844 228.5039L516.6375 228.67578Q516.29376 229.95703 515.35626 230.66016Q514.4344 231.36328 512.9969 231.36328Q511.16876 231.36328 510.10626 230.23828Q509.04376 229.11328 509.04376 227.09766Q509.04376 225.0039 510.1219 223.84766Q511.2 222.6914 512.91876 222.6914Q514.575 222.6914 515.6219 223.83203Q516.6844 224.95703 516.6844 227.0039Q516.6844 227.1289 516.6844 227.3789L510.4969 227.3789Q510.575 228.7539 511.2625 229.48828Q511.96564 230.20703 512.9969 230.20703Q513.77814 230.20703 514.325 229.80078Q514.8719 229.39453 515.1844 228.5039ZM510.575 226.22266L515.2 226.22266Q515.10626 225.17578 514.66876 224.66016Q513.9969 223.84766 512.9344 223.84766Q511.96564 223.84766 511.29376 224.5039Q510.6375 225.14453 510.575 226.22266ZM518.4969 231.17578L518.4969 222.8789L519.7625 222.8789L519.7625 224.1289Q520.2469 223.2539 520.65314 222.97266Q521.0594 222.6914 521.5594 222.6914Q522.2625 222.6914 522.9969 223.14453L522.5125 224.4414Q521.9969 224.14453 521.48126 224.14453Q521.02814 224.14453 520.65314 224.42578Q520.29376 224.6914 520.1375 225.1914Q519.90314 225.9414 519.90314 226.83203L519.90314 231.17578L518.4969 231.17578ZM522.95 228.6914L524.34064 228.47266Q524.45 229.3164 524.98126 229.76953Q525.52814 230.20703 526.48126 230.20703Q527.45 230.20703 527.91876 229.8164Q528.3875 229.41016 528.3875 228.8789Q528.3875 228.41016 527.98126 228.1289Q527.6844 227.9414 526.54376 227.66016Q524.9969 227.26953 524.3875 226.98828Q523.79376 226.6914 523.48126 226.1914Q523.1844 225.6914 523.1844 225.08203Q523.1844 224.51953 523.4344 224.05078Q523.6844 223.58203 524.1219 223.26953Q524.45 223.01953 525.0125 222.86328Q525.59064 222.6914 526.23126 222.6914Q527.21564 222.6914 527.95 222.97266Q528.6844 223.2539 529.02814 223.73828Q529.3875 224.20703 529.52814 225.01953L528.15314 225.20703Q528.0594 224.5664 527.60626 224.20703Q527.15314 223.84766 526.34064 223.84766Q525.3719 223.84766 524.95 224.17578Q524.54376 224.48828 524.54376 224.91016Q524.54376 225.1914 524.71564 225.41016Q524.8875 225.6289 525.2469 225.78516Q525.46564 225.86328 526.4969 226.14453Q527.98126 226.53516 528.575 226.80078Q529.16876 227.05078 529.4969 227.53516Q529.84064 228.01953 529.84064 228.73828Q529.84064 229.4414 529.41876 230.0664Q529.0125 230.67578 528.23126 231.01953Q527.46564 231.36328 526.4969 231.36328Q524.8719 231.36328 524.02814 230.6914Q523.1844 230.01953 522.95 228.6914ZM531.5125 234.36328L531.5125 222.8789L532.79376 222.8789L532.79376 223.95703Q533.2469 223.3164 533.8094 223.0039Q534.3875 222.6914 535.2 222.6914Q536.2625 222.6914 537.075 223.23828Q537.8875 223.78516 538.29376 224.78516Q538.71564 225.76953 538.71564 226.95703Q538.71564 228.23828 538.2469 229.2539Q537.79376 230.26953 536.91876 230.8164Q536.0594 231.36328 535.09064 231.36328Q534.3875 231.36328 533.825 231.0664Q533.27814 230.76953 532.91876 230.3164L532.91876 234.36328L531.5125 234.36328ZM532.77814 227.0664Q532.77814 228.67578 533.41876 229.4414Q534.075 230.20703 534.9969 230.20703Q535.9344 230.20703 536.60626 229.41016Q537.27814 228.61328 537.27814 226.95703Q537.27814 225.36328 536.6219 224.58203Q535.96564 223.78516 535.0594 223.78516Q534.16876 223.78516 533.46564 224.6289Q532.77814 225.47266 532.77814 227.0664ZM546.1844 228.5039L547.6375 228.67578Q547.29376 229.95703 546.35626 230.66016Q545.4344 231.36328 543.9969 231.36328Q542.16876 231.36328 541.10626 230.23828Q540.04376 229.11328 540.04376 227.09766Q540.04376 225.0039 541.1219 223.84766Q542.2 222.6914 543.91876 222.6914Q545.575 222.6914 546.6219 223.83203Q547.6844 224.95703 547.6844 227.0039Q547.6844 227.1289 547.6844 227.3789L541.4969 227.3789Q541.575 228.7539 542.2625 229.48828Q542.96564 230.20703 543.9969 230.20703Q544.77814 230.20703 545.325 229.80078Q545.8719 229.39453 546.1844 228.5039ZM541.575 226.22266L546.2 226.22266Q546.10626 225.17578 545.66876 224.66016Q544.9969 223.84766 543.9344 223.84766Q542.96564 223.84766 542.29376 224.5039Q541.6375 225.14453 541.575 226.22266ZM554.91876 228.1289L556.3094 228.3164Q556.075 229.73828 555.1375 230.55078Q554.21564 231.36328 552.85626 231.36328Q551.15314 231.36328 550.10626 230.2539Q549.075 229.1289 549.075 227.05078Q549.075 225.70703 549.5125 224.70703Q549.96564 223.6914 550.8719 223.1914Q551.79376 222.6914 552.85626 222.6914Q554.21564 222.6914 555.075 223.3789Q555.9344 224.05078 556.16876 225.3164L554.8094 225.51953Q554.60626 224.6914 554.10626 224.26953Q553.6219 223.84766 552.91876 223.84766Q551.85626 223.84766 551.1844 224.61328Q550.52814 225.36328 550.52814 227.01953Q550.52814 228.6914 551.16876 229.45703Q551.8094 230.20703 552.84064 230.20703Q553.66876 230.20703 554.21564 229.70703Q554.77814 229.1914 554.91876 228.1289ZM560.575 229.91016L560.77814 231.16016Q560.1844 231.28516 559.71564 231.28516Q558.95 231.28516 558.52814 231.05078Q558.10626 230.80078 557.9344 230.41016Q557.7625 230.0039 557.7625 228.73828L557.7625 223.97266L556.73126 223.97266L556.73126 222.8789L557.7625 222.8789L557.7625 220.8164L559.16876 219.97266L559.16876 222.8789L560.575 222.8789L560.575 223.97266L559.16876 223.97266L559.16876 228.8164Q559.16876 229.42578 559.23126 229.59766Q559.3094 229.76953 559.48126 229.8789Q559.65314 229.97266 559.96564 229.97266Q560.2 229.97266 560.575 229.91016ZM561.5125 221.33203L561.5125 219.72266L562.91876 219.72266L562.91876 221.33203L561.5125 221.33203ZM561.5125 231.17578L561.5125 222.8789L562.91876 222.8789L562.91876 231.17578L561.5125 231.17578ZM567.8094 231.17578L564.65314 222.8789L566.1375 222.8789L567.91876 227.84766Q568.21564 228.64453 568.45 229.51953Q568.6375 228.86328 568.98126 227.9414L570.825 222.8789L572.2625 222.8789L569.1219 231.17578L567.8094 231.17578ZM579.1844 228.5039L580.6375 228.67578Q580.29376 229.95703 579.35626 230.66016Q578.4344 231.36328 576.9969 231.36328Q575.16876 231.36328 574.10626 230.23828Q573.04376 229.11328 573.04376 227.09766Q573.04376 225.0039 574.1219 223.84766Q575.2 222.6914 576.91876 222.6914Q578.575 222.6914 579.6219 223.83203Q580.6844 224.95703 580.6844 227.0039Q580.6844 227.1289 580.6844 227.3789L574.4969 227.3789Q574.575 228.7539 575.2625 229.48828Q575.96564 230.20703 576.9969 230.20703Q577.77814 230.20703 578.325 229.80078Q578.8719 229.39453 579.1844 228.5039ZM574.575 226.22266L579.2 226.22266Q579.10626 225.17578 578.66876 224.66016Q577.9969 223.84766 576.9344 223.84766Q575.96564 223.84766 575.29376 224.5039Q574.6375 225.14453 574.575 226.22266Z" fill-rule="nonzero"/><path fill="#9e9e9e" d="M541.6219 253.17578L541.6219 250.42578L536.65314 250.42578L536.65314 249.14453L541.8875 241.72266L543.02814 241.72266L543.02814 249.14453L544.575 249.14453L544.575 250.42578L543.02814 250.42578L543.02814 253.17578L541.6219 253.17578ZM541.6219 249.14453L541.6219 243.97266L538.04376 249.14453L541.6219 249.14453ZM553.5125 251.8164L553.5125 253.17578L545.9344 253.17578Q545.91876 252.66016 546.10626 252.1914Q546.3875 251.42578 547.02814 250.67578Q547.66876 249.92578 548.8719 248.9414Q550.73126 247.41016 551.3875 246.51953Q552.04376 245.61328 552.04376 244.8164Q552.04376 243.98828 551.45 243.41016Q550.85626 242.83203 549.8875 242.83203Q548.8719 242.83203 548.2625 243.4414Q547.65314 244.05078 547.65314 245.1289L546.2 244.98828Q546.35626 243.36328 547.325 242.51953Q548.29376 241.67578 549.91876 241.67578Q551.575 241.67578 552.52814 242.59766Q553.4969 243.5039 553.4969 244.84766Q553.4969 245.53516 553.21564 246.20703Q552.9344 246.86328 552.27814 247.59766Q551.6219 248.33203 550.10626 249.61328Q548.84064 250.67578 548.48126 251.0664Q548.1219 251.4414 547.8875 251.8164L553.5125 251.8164ZM555.90314 253.17578L555.90314 251.5664L557.5125 251.5664L557.5125 253.17578L555.90314 253.17578ZM559.1219 250.17578L560.59064 250.05078Q560.7625 251.1289 561.35626 251.67578Q561.95 252.20703 562.79376 252.20703Q563.8094 252.20703 564.5125 251.4414Q565.21564 250.67578 565.21564 249.41016Q565.21564 248.20703 564.54376 247.51953Q563.8719 246.8164 562.77814 246.8164Q562.09064 246.8164 561.54376 247.1289Q560.9969 247.4414 560.6844 247.92578L559.3719 247.7539L560.48126 241.8789L566.16876 241.8789L566.16876 243.22266L561.60626 243.22266L560.98126 246.30078Q562.0125 245.58203 563.15314 245.58203Q564.65314 245.58203 565.6844 246.6289Q566.71564 247.66016 566.71564 249.28516Q566.71564 250.84766 565.8094 251.97266Q564.7 253.3789 562.79376 253.3789Q561.23126 253.3789 560.2469 252.5039Q559.2625 251.61328 559.1219 250.17578ZM568.3875 244.47266Q568.3875 243.23828 568.9969 242.3789Q569.6219 241.51953 570.79376 241.51953Q571.8719 241.51953 572.575 242.30078Q573.27814 243.0664 573.27814 244.55078Q573.27814 246.0039 572.5594 246.80078Q571.85626 247.58203 570.8094 247.58203Q569.7625 247.58203 569.075 246.8164Q568.3875 246.03516 568.3875 244.47266ZM570.825 242.48828Q570.3094 242.48828 569.95 242.9414Q569.60626 243.39453 569.60626 244.61328Q569.60626 245.70703 569.95 246.16016Q570.3094 246.61328 570.825 246.61328Q571.35626 246.61328 571.7 246.16016Q572.0594 245.70703 572.0594 244.5039Q572.0594 243.39453 571.7 242.9414Q571.35626 242.48828 570.825 242.48828ZM570.84064 253.59766L577.10626 241.51953L578.2469 241.51953L571.9969 253.59766L570.84064 253.59766ZM575.79376 250.48828Q575.79376 249.2539 576.40314 248.39453Q577.02814 247.53516 578.2 247.53516Q579.27814 247.53516 579.98126 248.3164Q580.7 249.08203 580.7 250.5664Q580.7 252.01953 579.98126 252.8164Q579.2625 253.59766 578.21564 253.59766Q577.16876 253.59766 576.48126 252.8164Q575.79376 252.03516 575.79376 250.48828ZM578.2469 248.5039Q577.71564 248.5039 577.35626 248.95703Q577.0125 249.41016 577.0125 250.6289Q577.0125 251.72266 577.35626 252.17578Q577.71564 252.6289 578.23126 252.6289Q578.77814 252.6289 579.1219 252.17578Q579.46564 251.72266 579.46564 250.51953Q579.46564 249.41016 579.10626 248.95703Q578.7625 248.5039 578.2469 248.5039Z" fill-rule="nonzero"/><path stroke="#757575" stroke-width="1.0" stroke-linecap="butt" d="M581.45 236.67578L454.76666 236.67578L437.42343 236.67578" fill-rule="nonzero"/><path fill="#9e9e9e" d="M439.42343 236.67578C439.42343 235.57121 438.52798 234.67578 437.42343 234.67578C436.31885 234.67578 435.42343 235.57121 435.42343 236.67578C435.42343 237.78035 436.31885 238.67578 437.42343 238.67578C438.52798 238.67578 439.42343 237.78035 439.42343 236.67578" fill-rule="nonzero"/><path fill="#f3f3f3" d="M265.98438 37.55L265.98438 23.2375L268.84375 23.2375L272.21875 33.3625Q272.6875 34.784374 272.90625 35.4875Q273.15625 34.70625 273.67188 33.190624L277.09375 23.2375L279.64062 23.2375L279.64062 37.55L277.82812 37.55L277.82812 25.565624L273.65625 37.55L271.95312 37.55L267.8125 25.3625L267.8125 37.55L265.98438 37.55ZM289.92188 34.20625L291.73438 34.440624Q291.3125 36.01875 290.14062 36.909374Q288.98438 37.784374 287.17188 37.784374Q284.90625 37.784374 283.5625 36.39375Q282.23438 34.9875 282.23438 32.45625Q282.23438 29.83125 283.57812 28.39375Q284.92188 26.940624 287.07812 26.940624Q289.15625 26.940624 290.46875 28.3625Q291.79688 29.76875 291.79688 32.346874Q291.79688 32.503124 291.78125 32.815624L284.04688 32.815624Q284.14062 34.51875 285.01562 35.425Q285.89062 36.33125 287.1875 36.33125Q288.15625 36.33125 288.82812 35.83125Q289.51562 35.315624 289.92188 34.20625ZM284.14062 31.3625L289.9375 31.3625Q289.82812 30.065624 289.28125 29.409374Q288.4375 28.39375 287.09375 28.39375Q285.89062 28.39375 285.0625 29.20625Q284.23438 30.003124 284.14062 31.3625ZM300.54688 37.55L300.54688 36.2375Q299.5625 37.784374 297.64062 37.784374Q296.40625 37.784374 295.35938 37.096874Q294.32812 36.409374 293.75 35.190624Q293.1875 33.971874 293.1875 32.378124Q293.1875 30.815624 293.70312 29.55Q294.21875 28.284374 295.25 27.6125Q296.29688 26.940624 297.5625 26.940624Q298.5 26.940624 299.23438 27.346874Q299.96875 27.7375 300.4375 28.3625L300.4375 23.2375L302.17188 23.2375L302.17188 37.55L300.54688 37.55ZM294.98438 32.378124Q294.98438 34.3625 295.82812 35.346874Q296.67188 36.33125 297.8125 36.33125Q298.96875 36.33125 299.76562 35.39375Q300.57812 34.45625 300.57812 32.51875Q300.57812 30.39375 299.75 29.39375Q298.9375 28.39375 297.73438 28.39375Q296.5625 28.39375 295.76562 29.3625Q294.98438 30.315624 294.98438 32.378124ZM304.82812 25.253124L304.82812 23.2375L306.59375 23.2375L306.59375 25.253124L304.82812 25.253124ZM304.82812 37.55L304.82812 27.175L306.59375 27.175L306.59375 37.55L304.82812 37.55ZM315.60938 37.55L315.60938 36.01875Q314.40625 37.784374 312.32812 37.784374Q311.40625 37.784374 310.60938 37.440624Q309.8125 37.08125 309.42188 36.55Q309.04688 36.01875 308.89062 35.2375Q308.78125 34.721874 308.78125 33.596874L308.78125 27.175L310.53125 27.175L310.53125 32.925Q310.53125 34.3 310.64062 34.784374Q310.8125 35.471874 311.34375 35.878124Q311.89062 36.26875 312.67188 36.26875Q313.46875 36.26875 314.15625 35.8625Q314.85938 35.45625 315.14062 34.76875Q315.4375 34.065624 315.4375 32.7375L315.4375 27.175L317.1875 27.175L317.1875 37.55L315.60938 37.55ZM319.8125 37.55L319.8125 27.175L321.39062 27.175L321.39062 28.628124Q321.875 27.878124 322.6875 27.409374Q323.5 26.940624 324.53125 26.940624Q325.6875 26.940624 326.42188 27.425Q327.15625 27.89375 327.46875 28.753124Q328.70312 26.940624 330.67188 26.940624Q332.21875 26.940624 333.04688 27.8Q333.875 28.659374 333.875 30.425L333.875 37.55L332.125 37.55L332.125 31.01875Q332.125 29.95625 331.95312 29.503124Q331.78125 29.034374 331.32812 28.753124Q330.89062 28.471874 330.28125 28.471874Q329.1875 28.471874 328.45312 29.20625Q327.73438 29.925 327.73438 31.51875L327.73438 37.55L325.98438 37.55L325.98438 30.815624Q325.98438 29.64375 325.54688 29.065624Q325.125 28.471874 324.14062 28.471874Q323.40625 28.471874 322.76562 28.8625Q322.14062 29.253124 321.85938 30.003124Q321.57812 30.753124 321.57812 32.175L321.57812 37.55L319.8125 37.55Z" fill-rule="nonzero"/></svg>