<svg version="1.1" viewBox="0.0 0.0 600.0 371.0" fill="none" stroke="none" stroke-linecap="square" stroke-miterlimit="10" width="600" height="371" xmlns:xlink="http://www.w3.org/1999/xlink" xmlns="http://www.w3.org/2000/svg"><path fill="#ffffff" fill-opacity="0.0" d="M0 0L600.0 0L600.0 371.0L0 371.0L0 0Z" fill-rule="nonzero"/><path fill="#f7d750" d="M300.0 54.916668C369.40762 54.916668 429.59213 102.91222 445.03677 170.57964C460.4814 238.24706 427.08154 307.60263 364.54742 337.71747L332.2737 270.7004C363.54077 255.64299 380.24072 220.9652 372.5184 187.13148C364.79605 153.29778 334.7038 129.3 300.0 129.3Z" fill-rule="nonzero"/><path fill="#78b2c0" d="M183.68953 110.92883C211.91702 75.53269 254.72664 54.916668 300.0 54.916668L300.0 129.3C277.3633 129.3 255.95851 139.60802 241.84477 157.30608Z" fill-rule="nonzero"/><path fill="#f5ee58" d="M364.54742 337.71747C302.01334 367.8323 226.96448 350.70288 183.68953 296.43784C140.4146 242.17278 140.4146 165.1939 183.68953 110.92883L241.84477 157.30608C220.2073 184.43861 220.2073 222.92805 241.84477 250.06058C263.48224 277.1931 301.00668 285.7578 332.2737 270.7004Z" fill-rule="nonzero"/><path fill="#ffffff" d="M389.0901 185.35556L389.0901 182.27744L383.51196 182.27744L383.51196 180.82431L389.38696 172.46494L390.68384 172.46494L390.68384 180.82431L392.4182 180.82431L392.4182 182.27744L390.68384 182.27744L390.68384 185.35556L389.0901 185.35556ZM389.0901 180.82431L389.0901 175.01181L385.05884 180.82431L389.0901 180.82431ZM402.3401 183.83994L402.3401 185.35556L393.82446 185.35556Q393.80884 184.77744 394.01196 184.26181Q394.3401 183.38681 395.0432 182.54306Q395.76196 181.69931 397.12134 180.58994Q399.2151 178.87119 399.94946 177.87119Q400.69946 176.85556 400.69946 175.96494Q400.69946 175.01181 400.0276 174.37119Q399.3557 173.73056 398.2776 173.73056Q397.12134 173.73056 396.43384 174.41806Q395.76196 175.10556 395.74634 176.30869L394.12134 176.13681Q394.2932 174.32431 395.37134 173.37119Q396.4651 172.41806 398.30884 172.41806Q400.1526 172.41806 401.2307 173.44931Q402.32446 174.48056 402.32446 175.99619Q402.32446 176.76181 401.99634 177.51181Q401.68384 178.26181 400.94946 179.08994Q400.2151 179.91806 398.51196 181.35556Q397.0901 182.55869 396.68384 182.98056Q396.2776 183.40244 396.0276 183.83994L402.3401 183.83994ZM404.9182 185.35556L404.9182 183.55869L406.7151 183.55869L406.7151 185.35556L404.9182 185.35556ZM409.26196 182.37119L410.7776 182.23056Q410.9807 183.30869 411.51196 183.79306Q412.05884 184.27744 412.9182 184.27744Q413.6526 184.27744 414.19946 183.94931Q414.74634 183.60556 415.0901 183.05869Q415.44946 182.49619 415.68384 181.54306Q415.9182 180.58994 415.9182 179.60556Q415.9182 179.49619 415.9182 179.29306Q415.43384 180.04306 414.6057 180.51181Q413.7932 180.98056 412.8401 180.98056Q411.24634 180.98056 410.13696 179.82431Q409.0276 178.66806 409.0276 176.76181Q409.0276 174.80869 410.18384 173.62119Q411.3401 172.41806 413.07446 172.41806Q414.3401 172.41806 415.37134 173.10556Q416.4182 173.77744 416.94946 175.02744Q417.49634 176.27744 417.49634 178.65244Q417.49634 181.12119 416.94946 182.58994Q416.4182 184.04306 415.3557 184.80869Q414.30884 185.57431 412.88696 185.57431Q411.37134 185.57431 410.4026 184.74619Q409.44946 183.90244 409.26196 182.37119ZM415.74634 176.68369Q415.74634 175.32431 415.01196 174.52744Q414.2932 173.73056 413.2776 173.73056Q412.2151 173.73056 411.43384 174.58994Q410.6526 175.44931 410.6526 176.82431Q410.6526 178.05869 411.38696 178.82431Q412.13696 179.58994 413.2307 179.58994Q414.32446 179.58994 415.0276 178.82431Q415.74634 178.05869 415.74634 176.68369ZM419.32446 175.55869Q419.32446 174.18369 420.01196 173.21494Q420.7151 172.24619 422.0276 172.24619Q423.24634 172.24619 424.0432 173.12119Q424.8401 173.98056 424.8401 175.66806Q424.8401 177.29306 424.0276 178.18369Q423.2307 179.05869 422.0432 179.05869Q420.88696 179.05869 420.1057 178.19931Q419.32446 177.32431 419.32446 175.55869ZM422.07446 173.33994Q421.4807 173.33994 421.0901 173.85556Q420.69946 174.35556 420.69946 175.71494Q420.69946 176.96494 421.0901 177.46494Q421.49634 177.96494 422.07446 177.96494Q422.6682 177.96494 423.05884 177.46494Q423.44946 176.94931 423.44946 175.60556Q423.44946 174.35556 423.05884 173.85556Q422.6682 173.33994 422.07446 173.33994ZM422.0901 185.82431L429.13696 172.24619L430.4182 172.24619L423.38696 185.82431L422.0901 185.82431ZM427.6526 182.32431Q427.6526 180.94931 428.3401 179.98056Q429.0432 179.01181 430.37134 179.01181Q431.5901 179.01181 432.37134 179.88681Q433.1682 180.74619 433.1682 182.43369Q433.1682 184.05869 432.37134 184.94931Q431.57446 185.82431 430.38696 185.82431Q429.2151 185.82431 428.43384 184.94931Q427.6526 184.07431 427.6526 182.32431ZM430.4182 180.10556Q429.82446 180.10556 429.43384 180.62119Q429.0432 181.12119 429.0432 182.49619Q429.0432 183.71494 429.43384 184.23056Q429.82446 184.74619 430.4026 184.74619Q431.01196 184.74619 431.4026 184.23056Q431.7932 183.71494 431.7932 182.37119Q431.7932 181.12119 431.4026 180.62119Q431.01196 180.10556 430.4182 180.10556Z" fill-rule="nonzero"/><path fill="#ffffff" d="M193.07965 279.7492L193.07965 276.67108L187.50153 276.67108L187.50153 275.21796L193.37653 266.85858L194.6734 266.85858L194.6734 275.21796L196.40778 275.21796L196.40778 276.67108L194.6734 276.67108L194.6734 279.7492L193.07965 279.7492ZM193.07965 275.21796L193.07965 269.40546L189.0484 275.21796L193.07965 275.21796ZM206.32965 278.23358L206.32965 279.7492L197.81403 279.7492Q197.7984 279.17108 198.00153 278.65546Q198.32965 277.78046 199.03278 276.9367Q199.75153 276.09296 201.1109 274.98358Q203.20465 273.26483 203.93903 272.26483Q204.68903 271.2492 204.68903 270.35858Q204.68903 269.40546 204.01715 268.76483Q203.34528 268.1242 202.26715 268.1242Q201.1109 268.1242 200.4234 268.8117Q199.75153 269.4992 199.7359 270.70233L198.1109 270.53046Q198.28278 268.71796 199.3609 267.76483Q200.45465 266.8117 202.2984 266.8117Q204.14215 266.8117 205.22028 267.84296Q206.31403 268.8742 206.31403 270.38983Q206.31403 271.15546 205.9859 271.90546Q205.6734 272.65546 204.93903 273.48358Q204.20465 274.3117 202.50153 275.7492Q201.07965 276.95233 200.6734 277.3742Q200.26715 277.79608 200.01715 278.23358L206.32965 278.23358ZM208.90778 279.7492L208.90778 277.95233L210.70465 277.95233L210.70465 279.7492L208.90778 279.7492ZM213.25153 276.76483L214.76715 276.6242Q214.97028 277.70233 215.50153 278.1867Q216.0484 278.67108 216.90778 278.67108Q217.64215 278.67108 218.18903 278.34296Q218.7359 277.9992 219.07965 277.45233Q219.43903 276.88983 219.6734 275.9367Q219.90778 274.98358 219.90778 273.9992Q219.90778 273.88983 219.90778 273.6867Q219.4234 274.4367 218.59528 274.90546Q217.78278 275.3742 216.82965 275.3742Q215.2359 275.3742 214.12653 274.21796Q213.01715 273.0617 213.01715 271.15546Q213.01715 269.20233 214.1734 268.01483Q215.32965 266.8117 217.06403 266.8117Q218.32965 266.8117 219.3609 267.4992Q220.40778 268.17108 220.93903 269.42108Q221.4859 270.67108 221.4859 273.04608Q221.4859 275.51483 220.93903 276.98358Q220.40778 278.4367 219.34528 279.20233Q218.2984 279.96796 216.87653 279.96796Q215.3609 279.96796 214.39215 279.13983Q213.43903 278.29608 213.25153 276.76483ZM219.7359 271.07733Q219.7359 269.71796 219.00153 268.92108Q218.28278 268.1242 217.26715 268.1242Q216.20465 268.1242 215.4234 268.98358Q214.64215 269.84296 214.64215 271.21796Q214.64215 272.45233 215.37653 273.21796Q216.12653 273.98358 217.22028 273.98358Q218.31403 273.98358 219.01715 273.21796Q219.7359 272.45233 219.7359 271.07733ZM223.31403 269.95233Q223.31403 268.57733 224.00153 267.60858Q224.70465 266.63983 226.01715 266.63983Q227.2359 266.63983 228.03278 267.51483Q228.82965 268.3742 228.82965 270.0617Q228.82965 271.6867 228.01715 272.57733Q227.22028 273.45233 226.03278 273.45233Q224.87653 273.45233 224.09528 272.59296Q223.31403 271.71796 223.31403 269.95233ZM226.06403 267.73358Q225.47028 267.73358 225.07965 268.2492Q224.68903 268.7492 224.68903 270.10858Q224.68903 271.35858 225.07965 271.85858Q225.4859 272.35858 226.06403 272.35858Q226.65778 272.35858 227.0484 271.85858Q227.43903 271.34296 227.43903 269.9992Q227.43903 268.7492 227.0484 268.2492Q226.65778 267.73358 226.06403 267.73358ZM226.07965 280.21796L233.12653 266.63983L234.40778 266.63983L227.37653 280.21796L226.07965 280.21796ZM231.64215 276.71796Q231.64215 275.34296 232.32965 274.3742Q233.03278 273.40546 234.3609 273.40546Q235.57965 273.40546 236.3609 274.28046Q237.15778 275.13983 237.15778 276.82733Q237.15778 278.45233 236.3609 279.34296Q235.56403 280.21796 234.37653 280.21796Q233.20465 280.21796 232.4234 279.34296Q231.64215 278.46796 231.64215 276.71796ZM234.40778 274.4992Q233.81403 274.4992 233.4234 275.01483Q233.03278 275.51483 233.03278 276.88983Q233.03278 278.10858 233.4234 278.6242Q233.81403 279.13983 234.39215 279.13983Q235.00153 279.13983 235.39215 278.6242Q235.78278 278.10858 235.78278 276.76483Q235.78278 275.51483 235.39215 275.01483Q235.00153 274.4992 234.40778 274.4992Z" fill-rule="nonzero"/><path fill="#ffffff" d="M232.79254 109.65773L231.21442 109.65773L231.21442 99.579605Q230.63629 100.12648 229.71442 100.673355Q228.79254 101.204605 228.04254 101.485855L228.04254 99.954605Q229.37067 99.329605 230.37067 98.43898Q231.37067 97.548355 231.77692 96.72023L232.79254 96.72023L232.79254 109.65773ZM241.90192 109.65773L241.90192 106.579605L236.32379 106.579605L236.32379 105.12648L242.19879 96.767105L243.49567 96.767105L243.49567 105.12648L245.23004 105.12648L245.23004 106.579605L243.49567 106.579605L243.49567 109.65773L241.90192 109.65773ZM241.90192 105.12648L241.90192 99.31398L237.87067 105.12648L241.90192 105.12648ZM247.73004 109.65773L247.73004 107.860855L249.52692 107.860855L249.52692 109.65773L247.73004 109.65773ZM251.83942 106.25148L253.43317 106.048355Q253.69879 107.392105 254.35504 107.985855Q255.01129 108.579605 255.94879 108.579605Q257.0738 108.579605 257.83942 107.81398Q258.60504 107.03273 258.60504 105.892105Q258.60504 104.798355 257.8863 104.09523Q257.18317 103.37648 256.08942 103.37648Q255.63629 103.37648 254.96442 103.56398L255.13629 102.173355Q255.29254 102.18898 255.40192 102.18898Q256.40192 102.18898 257.21442 101.65773Q258.02692 101.12648 258.02692 100.03273Q258.02692 99.15773 257.43317 98.59523Q256.83942 98.017105 255.91754 98.017105Q254.99567 98.017105 254.37067 98.59523Q253.76129 99.173355 253.58942 100.34523L252.01129 100.06398Q252.29254 98.47023 253.32379 97.59523Q254.35504 96.72023 255.88629 96.72023Q256.93317 96.72023 257.8238 97.173355Q258.71442 97.62648 259.18317 98.40773Q259.65192 99.18898 259.65192 100.06398Q259.65192 100.90773 259.1988 101.59523Q258.7613 102.267105 257.87067 102.673355Q259.0113 102.93898 259.6363 103.78273Q260.27692 104.610855 260.27692 105.84523Q260.27692 107.53273 259.04254 108.72023Q257.8238 109.892105 255.94879 109.892105Q254.24567 109.892105 253.12067 108.87648Q252.01129 107.860855 251.83942 106.25148ZM262.1363 99.860855Q262.1363 98.485855 262.8238 97.517105Q263.52692 96.548355 264.83942 96.548355Q266.05817 96.548355 266.85504 97.423355Q267.65192 98.28273 267.65192 99.97023Q267.65192 101.59523 266.83942 102.485855Q266.04254 103.360855 264.85504 103.360855Q263.6988 103.360855 262.91754 102.50148Q262.1363 101.62648 262.1363 99.860855ZM264.8863 97.642105Q264.29254 97.642105 263.90192 98.15773Q263.5113 98.65773 263.5113 100.017105Q263.5113 101.267105 263.90192 101.767105Q264.30817 102.267105 264.8863 102.267105Q265.48004 102.267105 265.87067 101.767105Q266.2613 101.25148 266.2613 99.90773Q266.2613 98.65773 265.87067 98.15773Q265.48004 97.642105 264.8863 97.642105ZM264.90192 110.12648L271.9488 96.548355L273.23004 96.548355L266.1988 110.12648L264.90192 110.12648ZM270.46442 106.62648Q270.46442 105.25148 271.15192 104.28273Q271.85504 103.31398 273.18317 103.31398Q274.40192 103.31398 275.18317 104.18898Q275.98004 105.048355 275.98004 106.735855Q275.98004 108.360855 275.18317 109.25148Q274.3863 110.12648 273.1988 110.12648Q272.02692 110.12648 271.24567 109.25148Q270.46442 108.37648 270.46442 106.62648ZM273.23004 104.40773Q272.6363 104.40773 272.24567 104.923355Q271.85504 105.423355 271.85504 106.798355Q271.85504 108.017105 272.24567 108.53273Q272.6363 109.048355 273.21442 109.048355Q273.8238 109.048355 274.21442 108.53273Q274.60504 108.017105 274.60504 106.673355Q274.60504 105.423355 274.21442 104.923355Q273.8238 104.40773 273.23004 104.40773Z" fill-rule="nonzero"/><path stroke="#ffffff" stroke-width="1.0" stroke-linejoin="round" stroke-linecap="round" d="M332.2737 270.7004C363.54077 255.64299 380.24072 220.9652 372.5184 187.13148C364.79605 153.29778 334.7038 129.3 300.0 129.3L300.0 54.916668C369.40762 54.916668 429.59213 102.91222 445.03677 170.57964C460.4814 238.24706 427.08154 307.60263 364.54742 337.71747" fill-rule="nonzero"/><path stroke="#ffffff" stroke-width="1.0" stroke-linejoin="round" stroke-linecap="round" d="M241.84477 157.30608C220.2073 184.43861 220.2073 222.92805 241.84477 250.06058C263.48224 277.1931 301.00668 285.7578 332.2737 270.7004L364.54742 337.71747C302.01334 367.8323 226.96448 350.70288 183.68953 296.43784C140.4146 242.17278 140.4146 165.1939 183.68953 110.92883" fill-rule="nonzero"/><path stroke="#ffffff" stroke-width="1.0" stroke-linejoin="round" stroke-linecap="round" d="M300.0 129.3C277.3633 129.3 255.95851 139.60802 241.84477 157.30608L183.68953 110.92883C211.91702 75.53269 254.72664 54.916668 300.0 54.916668" fill-rule="nonzero"/><path fill="#efefef" d="M19.83125 70.85091L19.83125 59.39778L21.346874 59.39778L21.346874 64.10091L27.3 64.10091L27.3 59.39778L28.815624 59.39778L28.815624 70.85091L27.3 70.85091L27.3 65.44466L21.346874 65.44466L21.346874 70.85091L19.83125 70.85091ZM37.284374 68.17903L38.7375 68.35091Q38.39375 69.63216 37.45625 70.33528Q36.534374 71.03841 35.096874 71.03841Q33.26875 71.03841 32.20625 69.91341Q31.14375 68.78841 31.14375 66.77278Q31.14375 64.67903 32.221874 63.52278Q33.3 62.36653 35.01875 62.36653Q36.675 62.36653 37.721874 63.507156Q38.784374 64.63216 38.784374 66.67903Q38.784374 66.80403 38.784374 67.05403L32.596874 67.05403Q32.675 68.42903 33.3625 69.16341Q34.065624 69.88216 35.096874 69.88216Q35.878124 69.88216 36.425 69.47591Q36.971874 69.06966 37.284374 68.17903ZM32.675 65.89778L37.3 65.89778Q37.20625 64.85091 36.76875 64.33528Q36.096874 63.52278 35.034374 63.52278Q34.065624 63.52278 33.39375 64.17903Q32.7375 64.81966 32.675 65.89778ZM46.01875 69.81966Q45.2375 70.49153 44.51875 70.77278Q43.8 71.03841 42.971874 71.03841Q41.596874 71.03841 40.8625 70.36653Q40.128124 69.69466 40.128124 68.66341Q40.128124 68.05403 40.409374 67.55403Q40.690624 67.03841 41.128124 66.74153Q41.58125 66.42903 42.14375 66.27278Q42.565624 66.16341 43.39375 66.06966Q45.096874 65.86653 45.909374 65.58528Q45.909374 65.28841 45.909374 65.21028Q45.909374 64.35091 45.51875 64.00716Q44.971874 63.52278 43.909374 63.52278Q42.925 63.52278 42.440624 63.882156Q41.971874 64.22591 41.753124 65.10091L40.378124 64.91341Q40.565624 64.03841 40.9875 63.49153Q41.425 62.944656 42.2375 62.663406Q43.05 62.36653 44.1125 62.36653Q45.175 62.36653 45.83125 62.61653Q46.503124 62.86653 46.815624 63.24153Q47.128124 63.61653 47.253124 64.19466Q47.33125 64.55403 47.33125 65.49153L47.33125 67.36653Q47.33125 69.33528 47.409374 69.85091Q47.503124 70.36653 47.76875 70.85091L46.3 70.85091Q46.08125 70.41341 46.01875 69.81966ZM45.909374 66.67903Q45.14375 66.99153 43.6125 67.21028Q42.7375 67.33528 42.378124 67.49153Q42.01875 67.64778 41.815624 67.96028Q41.628124 68.25716 41.628124 68.61653Q41.628124 69.17903 42.05 69.55403Q42.4875 69.92903 43.3 69.92903Q44.1125 69.92903 44.7375 69.58528Q45.378124 69.22591 45.675 68.60091Q45.909374 68.13216 45.909374 67.19466L45.909374 66.67903ZM49.58125 70.85091L49.58125 59.39778L50.9875 59.39778L50.9875 70.85091L49.58125 70.85091ZM56.675 69.58528L56.878124 70.83528Q56.284374 70.96028 55.815624 70.96028Q55.05 70.96028 54.628124 70.72591Q54.20625 70.47591 54.034374 70.08528Q53.8625 69.67903 53.8625 68.41341L53.8625 63.64778L52.83125 63.64778L52.83125 62.55403L53.8625 62.55403L53.8625 60.49153L55.26875 59.64778L55.26875 62.55403L56.675 62.55403L56.675 63.64778L55.26875 63.64778L55.26875 68.49153Q55.26875 69.10091 55.33125 69.27278Q55.409374 69.44466 55.58125 69.55403Q55.753124 69.64778 56.065624 69.64778Q56.3 69.64778 56.675 69.58528ZM57.6125 70.85091L57.6125 59.39778L59.01875 59.39778L59.01875 63.507156Q60.003124 62.36653 61.503124 62.36653Q62.425 62.36653 63.096874 62.725906Q63.784374 63.08528 64.06563 63.725906Q64.3625 64.36653 64.3625 65.58528L64.3625 70.85091L62.95625 70.85091L62.95625 65.58528Q62.95625 64.53841 62.503124 64.05403Q62.05 63.569656 61.20625 63.569656Q60.58125 63.569656 60.034374 63.89778Q59.4875 64.22591 59.253124 64.78841Q59.01875 65.33528 59.01875 66.30403L59.01875 70.85091L57.6125 70.85091ZM72.01875 67.80403L73.40938 67.99153Q73.175 69.41341 72.2375 70.22591Q71.31563 71.03841 69.95625 71.03841Q68.25313 71.03841 67.20625 69.92903Q66.175 68.80403 66.175 66.72591Q66.175 65.38216 66.6125 64.38216Q67.06563 63.36653 67.97188 62.86653Q68.89375 62.36653 69.95625 62.36653Q71.31563 62.36653 72.175 63.05403Q73.03438 63.725906 73.26875 64.99153L71.90938 65.19466Q71.70625 64.36653 71.20625 63.944656Q70.72188 63.52278 70.01875 63.52278Q68.95625 63.52278 68.28438 64.28841Q67.62813 65.03841 67.62813 66.69466Q67.62813 68.36653 68.26875 69.13216Q68.90938 69.88216 69.94063 69.88216Q70.76875 69.88216 71.31563 69.38216Q71.87813 68.86653 72.01875 67.80403ZM80.01875 69.81966Q79.2375 70.49153 78.51875 70.77278Q77.8 71.03841 76.97188 71.03841Q75.59688 71.03841 74.8625 70.36653Q74.12813 69.69466 74.12813 68.66341Q74.12813 68.05403 74.40938 67.55403Q74.69063 67.03841 75.12813 66.74153Q75.58125 66.42903 76.14375 66.27278Q76.56563 66.16341 77.39375 66.06966Q79.09688 65.86653 79.90938 65.58528Q79.90938 65.28841 79.90938 65.21028Q79.90938 64.35091 79.51875 64.00716Q78.97188 63.52278 77.90938 63.52278Q76.925 63.52278 76.44063 63.882156Q75.97188 64.22591 75.75313 65.10091L74.37813 64.91341Q74.56563 64.03841 74.9875 63.49153Q75.425 62.944656 76.2375 62.663406Q77.05 62.36653 78.1125 62.36653Q79.175 62.36653 79.83125 62.61653Q80.50313 62.86653 80.81563 63.24153Q81.12813 63.61653 81.25313 64.19466Q81.33125 64.55403 81.33125 65.49153L81.33125 67.36653Q81.33125 69.33528 81.40938 69.85091Q81.50313 70.36653 81.76875 70.85091L80.3 70.85091Q80.08125 70.41341 80.01875 69.81966ZM79.90938 66.67903Q79.14375 66.99153 77.6125 67.21028Q76.7375 67.33528 76.37813 67.49153Q76.01875 67.64778 75.81563 67.96028Q75.62813 68.25716 75.62813 68.61653Q75.62813 69.17903 76.05 69.55403Q76.4875 69.92903 77.3 69.92903Q78.1125 69.92903 78.7375 69.58528Q79.37813 69.22591 79.675 68.60091Q79.90938 68.13216 79.90938 67.19466L79.90938 66.67903ZM83.59688 70.85091L83.59688 62.55403L84.8625 62.55403L84.8625 63.80403Q85.34688 62.92903 85.75313 62.64778Q86.15938 62.36653 86.65938 62.36653Q87.3625 62.36653 88.09688 62.819656L87.6125 64.11653Q87.09688 63.819656 86.58125 63.819656Q86.12813 63.819656 85.75313 64.10091Q85.39375 64.36653 85.2375 64.86653Q85.00313 65.61653 85.00313 66.50716L85.00313 70.85091L83.59688 70.85091ZM94.28438 68.17903L95.7375 68.35091Q95.39375 69.63216 94.45625 70.33528Q93.53438 71.03841 92.09688 71.03841Q90.26875 71.03841 89.20625 69.91341Q88.14375 68.78841 88.14375 66.77278Q88.14375 64.67903 89.22188 63.52278Q90.3 62.36653 92.01875 62.36653Q93.675 62.36653 94.72188 63.507156Q95.78438 64.63216 95.78438 66.67903Q95.78438 66.80403 95.78438 67.05403L89.59688 67.05403Q89.675 68.42903 90.3625 69.16341Q91.06563 69.88216 92.09688 69.88216Q92.87813 69.88216 93.425 69.47591Q93.97188 69.06966 94.28438 68.17903ZM89.675 65.89778L94.3 65.89778Q94.20625 64.85091 93.76875 64.33528Q93.09688 63.52278 92.03438 63.52278Q91.06563 63.52278 90.39375 64.17903Q89.7375 64.81966 89.675 65.89778Z" fill-rule="nonzero"/><path fill="#9e9e9e" d="M24.51875 92.85091L23.1125 92.85091L23.1125 83.88216Q22.596874 84.36653 21.76875 84.85091Q20.95625 85.33528 20.3 85.58528L20.3 84.22591Q21.471874 83.66341 22.346874 82.88216Q23.2375 82.08528 23.6125 81.35091L24.51875 81.35091L24.51875 92.85091ZM32.721874 92.85091L32.721874 90.10091L27.753124 90.10091L27.753124 88.81966L32.9875 81.39778L34.128124 81.39778L34.128124 88.81966L35.675 88.81966L35.675 90.10091L34.128124 90.10091L34.128124 92.85091L32.721874 92.85091ZM32.721874 88.81966L32.721874 83.64778L29.14375 88.81966L32.721874 88.81966ZM38.003124 92.85091L38.003124 91.24153L39.6125 91.24153L39.6125 92.85091L38.003124 92.85091ZM41.221874 89.81966L42.628124 89.63216Q42.878124 90.83528 43.45625 91.36653Q44.034374 91.88216 44.878124 91.88216Q45.8625 91.88216 46.55 91.19466Q47.2375 90.50716 47.2375 89.49153Q47.2375 88.52278 46.596874 87.89778Q45.971874 87.27278 44.9875 87.27278Q44.596874 87.27278 44.003124 87.42903L44.159374 86.19466Q44.3 86.21028 44.378124 86.21028Q45.284374 86.21028 46.003124 85.74153Q46.721874 85.27278 46.721874 84.28841Q46.721874 83.52278 46.190624 83.02278Q45.675 82.50716 44.846874 82.50716Q44.01875 82.50716 43.471874 83.02278Q42.925 83.53841 42.76875 84.56966L41.3625 84.31966Q41.628124 82.89778 42.534374 82.13216Q43.45625 81.35091 44.815624 81.35091Q45.753124 81.35091 46.534374 81.75716Q47.33125 82.14778 47.7375 82.85091Q48.159374 83.53841 48.159374 84.31966Q48.159374 85.06966 47.753124 85.67903Q47.3625 86.28841 46.58125 86.64778Q47.596874 86.88216 48.159374 87.61653Q48.721874 88.35091 48.721874 89.46028Q48.721874 90.96028 47.628124 92.00716Q46.534374 93.05403 44.8625 93.05403Q43.3625 93.05403 42.3625 92.16341Q41.3625 91.25716 41.221874 89.81966ZM50.4875 84.14778Q50.4875 82.91341 51.096874 82.05403Q51.721874 81.19466 52.89375 81.19466Q53.971874 81.19466 54.675 81.97591Q55.378124 82.74153 55.378124 84.22591Q55.378124 85.67903 54.659374 86.47591Q53.95625 87.25716 52.909374 87.25716Q51.8625 87.25716 51.175 86.49153Q50.4875 85.71028 50.4875 84.14778ZM52.925 82.16341Q52.409374 82.16341 52.05 82.61653Q51.70625 83.06966 51.70625 84.28841Q51.70625 85.38216 52.05 85.83528Q52.409374 86.28841 52.925 86.28841Q53.45625 86.28841 53.8 85.83528Q54.159374 85.38216 54.159374 84.17903Q54.159374 83.06966 53.8 82.61653Q53.45625 82.16341 52.925 82.16341ZM52.940624 93.27278L59.20625 81.19466L60.346874 81.19466L54.096874 93.27278L52.940624 93.27278ZM57.89375 90.16341Q57.89375 88.92903 58.503124 88.06966Q59.128124 87.21028 60.3 87.21028Q61.378124 87.21028 62.08125 87.99153Q62.8 88.75716 62.8 90.24153Q62.8 91.69466 62.08125 92.49153Q61.3625 93.27278 60.315624 93.27278Q59.26875 93.27278 58.58125 92.49153Q57.89375 91.71028 57.89375 90.16341ZM60.346874 88.17903Q59.815624 88.17903 59.45625 88.63216Q59.1125 89.08528 59.1125 90.30403Q59.1125 91.39778 59.45625 91.85091Q59.815624 92.30403 60.33125 92.30403Q60.878124 92.30403 61.221874 91.85091Q61.565624 91.39778 61.565624 90.19466Q61.565624 89.08528 61.20625 88.63216Q60.8625 88.17903 60.346874 88.17903Z" fill-rule="nonzero"/><path stroke="#757575" stroke-width="1.0" stroke-linecap="butt" d="M18.55 76.35091L145.23334 76.35091L238.67993 76.35091" fill-rule="nonzero"/><path fill="#9e9e9e" d="M240.67993 76.35091C240.67993 75.24634 239.7845 74.35091 238.67993 74.35091C237.57536 74.35091 236.67993 75.24634 236.67993 76.35091C236.67993 77.455475 237.57536 78.35091 238.67993 78.35091C239.7845 78.35091 240.67993 77.455475 240.67993 76.35091" fill-rule="nonzero"/><path fill="#efefef" d="M27.95625 282.2845L29.471874 282.6595Q29.003124 284.5345 27.753124 285.51886Q26.51875 286.50323 24.7375 286.50323Q22.878124 286.50323 21.721874 285.75323Q20.565624 284.9876 19.95625 283.56573Q19.346874 282.12823 19.346874 280.4876Q19.346874 278.69073 20.034374 277.3626Q20.721874 276.0345 21.971874 275.347Q23.2375 274.64386 24.753124 274.64386Q26.471874 274.64386 27.64375 275.51886Q28.815624 276.39386 29.284374 277.9876L27.784374 278.33136Q27.39375 277.08136 26.628124 276.51886Q25.878124 275.94073 24.721874 275.94073Q23.409374 275.94073 22.51875 276.58136Q21.628124 277.20636 21.26875 278.2845Q20.909374 279.347 20.909374 280.472Q20.909374 281.94073 21.33125 283.0345Q21.76875 284.1126 22.659374 284.6595Q23.565624 285.19073 24.6125 285.19073Q25.878124 285.19073 26.753124 284.45636Q27.64375 283.722 27.95625 282.2845ZM37.05 286.3001L37.05 285.08136Q36.08125 286.4876 34.409374 286.4876Q33.675 286.4876 33.034374 286.20636Q32.409374 285.9251 32.096874 285.50323Q31.784374 285.06573 31.659374 284.45636Q31.58125 284.0345 31.58125 283.14386L31.58125 278.00323L32.9875 278.00323L32.9875 282.597Q32.9875 283.70636 33.065624 284.08136Q33.20625 284.64386 33.628124 284.95636Q34.065624 285.26886 34.690624 285.26886Q35.33125 285.26886 35.878124 284.95636Q36.440624 284.62823 36.659374 284.06573Q36.89375 283.50323 36.89375 282.44073L36.89375 278.00323L38.3 278.00323L38.3 286.3001L37.05 286.3001ZM40.58125 286.3001L40.58125 274.847L41.9875 274.847L41.9875 286.3001L40.58125 286.3001ZM47.675 285.0345L47.878124 286.2845Q47.284374 286.4095 46.815624 286.4095Q46.05 286.4095 45.628124 286.1751Q45.20625 285.9251 45.034374 285.5345Q44.8625 285.12823 44.8625 283.8626L44.8625 279.097L43.83125 279.097L43.83125 278.00323L44.8625 278.00323L44.8625 275.94073L46.26875 275.097L46.26875 278.00323L47.675 278.00323L47.675 279.097L46.26875 279.097L46.26875 283.94073Q46.26875 284.5501 46.33125 284.722Q46.409374 284.89386 46.58125 285.00323Q46.753124 285.097 47.065624 285.097Q47.3 285.097 47.675 285.0345ZM54.05 286.3001L54.05 285.08136Q53.08125 286.4876 51.409374 286.4876Q50.675 286.4876 50.034374 286.20636Q49.409374 285.9251 49.096874 285.50323Q48.784374 285.06573 48.659374 284.45636Q48.58125 284.0345 48.58125 283.14386L48.58125 278.00323L49.9875 278.00323L49.9875 282.597Q49.9875 283.70636 50.065624 284.08136Q50.20625 284.64386 50.628124 284.95636Q51.065624 285.26886 51.690624 285.26886Q52.33125 285.26886 52.878124 284.95636Q53.440624 284.62823 53.659374 284.06573Q53.89375 283.50323 53.89375 282.44073L53.89375 278.00323L55.3 278.00323L55.3 286.3001L54.05 286.3001ZM57.596874 286.3001L57.596874 278.00323L58.8625 278.00323L58.8625 279.25323Q59.346874 278.37823 59.753124 278.097Q60.159374 277.81573 60.659374 277.81573Q61.3625 277.81573 62.096874 278.26886L61.6125 279.56573Q61.096874 279.26886 60.58125 279.26886Q60.128124 279.26886 59.753124 279.5501Q59.39375 279.81573 59.2375 280.31573Q59.003124 281.06573 59.003124 281.95636L59.003124 286.3001L57.596874 286.3001ZM68.01875 285.26886Q67.2375 285.94073 66.51875 286.222Q65.8 286.4876 64.97188 286.4876Q63.596874 286.4876 62.8625 285.81573Q62.128124 285.14386 62.128124 284.1126Q62.128124 283.50323 62.409374 283.00323Q62.690624 282.4876 63.128124 282.19073Q63.58125 281.87823 64.14375 281.722Q64.56563 281.6126 65.39375 281.51886Q67.09688 281.31573 67.90938 281.0345Q67.90938 280.7376 67.90938 280.6595Q67.90938 279.8001 67.51875 279.45636Q66.97188 278.972 65.90938 278.972Q64.925 278.972 64.44063 279.33136Q63.971874 279.6751 63.753124 280.5501L62.378124 280.3626Q62.565624 279.4876 62.9875 278.94073Q63.425 278.39386 64.2375 278.1126Q65.05 277.81573 66.1125 277.81573Q67.175 277.81573 67.83125 278.06573Q68.50313 278.31573 68.81563 278.69073Q69.12813 279.06573 69.25313 279.64386Q69.33125 280.00323 69.33125 280.94073L69.33125 282.81573Q69.33125 284.7845 69.40938 285.3001Q69.50313 285.81573 69.76875 286.3001L68.3 286.3001Q68.08125 285.8626 68.01875 285.26886ZM67.90938 282.12823Q67.14375 282.44073 65.6125 282.6595Q64.7375 282.7845 64.37813 282.94073Q64.01875 283.097 63.815624 283.4095Q63.628124 283.70636 63.628124 284.06573Q63.628124 284.62823 64.05 285.00323Q64.4875 285.37823 65.3 285.37823Q66.1125 285.37823 66.7375 285.0345Q67.37813 284.6751 67.675 284.0501Q67.90938 283.58136 67.90938 282.64386L67.90938 282.12823ZM71.58125 286.3001L71.58125 274.847L72.9875 274.847L72.9875 286.3001L71.58125 286.3001ZM78.51875 286.3001L82.925 274.847L84.56563 274.847L89.25313 286.3001L87.51875 286.3001L86.19063 282.83136L81.39375 282.83136L80.14375 286.3001L78.51875 286.3001ZM81.83125 281.597L85.72188 281.597L84.51875 278.4251Q83.97188 276.972 83.70625 276.0501Q83.4875 277.14386 83.09688 278.2376L81.83125 281.597ZM96.01875 283.25323L97.40938 283.44073Q97.175 284.8626 96.2375 285.6751Q95.31563 286.4876 93.95625 286.4876Q92.25313 286.4876 91.20625 285.37823Q90.175 284.25323 90.175 282.1751Q90.175 280.83136 90.6125 279.83136Q91.06563 278.81573 91.97188 278.31573Q92.89375 277.81573 93.95625 277.81573Q95.31563 277.81573 96.175 278.50323Q97.03438 279.1751 97.26875 280.44073L95.90938 280.64386Q95.70625 279.81573 95.20625 279.39386Q94.72188 278.972 94.01875 278.972Q92.95625 278.972 92.28438 279.7376Q91.62813 280.4876 91.62813 282.14386Q91.62813 283.81573 92.26875 284.58136Q92.90938 285.33136 93.94063 285.33136Q94.76875 285.33136 95.31563 284.83136Q95.87813 284.31573 96.01875 283.25323ZM101.675 285.0345L101.87813 286.2845Q101.28438 286.4095 100.81563 286.4095Q100.05 286.4095 99.62813 286.1751Q99.20625 285.9251 99.03438 285.5345Q98.8625 285.12823 98.8625 283.8626L98.8625 279.097L97.83125 279.097L97.83125 278.00323L98.8625 278.00323L98.8625 275.94073L100.26875 275.097L100.26875 278.00323L101.675 278.00323L101.675 279.097L100.26875 279.097L100.26875 283.94073Q100.26875 284.5501 100.33125 284.722Q100.40938 284.89386 100.58125 285.00323Q100.75313 285.097 101.06563 285.097Q101.3 285.097 101.675 285.0345ZM102.05 283.81573L103.44063 283.597Q103.55 284.44073 104.08125 284.89386Q104.62813 285.33136 105.58125 285.33136Q106.55 285.33136 107.01875 284.94073Q107.4875 284.5345 107.4875 284.00323Q107.4875 283.5345 107.08125 283.25323Q106.78438 283.06573 105.64375 282.7845Q104.09688 282.39386 103.4875 282.1126Q102.89375 281.81573 102.58125 281.31573Q102.28438 280.81573 102.28438 280.20636Q102.28438 279.64386 102.53438 279.1751Q102.78438 278.70636 103.22188 278.39386Q103.55 278.14386 104.1125 277.9876Q104.69063 277.81573 105.33125 277.81573Q106.31563 277.81573 107.05 278.097Q107.78438 278.37823 108.12813 278.8626Q108.4875 279.33136 108.62813 280.14386L107.25313 280.33136Q107.15938 279.69073 106.70625 279.33136Q106.25313 278.972 105.44063 278.972Q104.47188 278.972 104.05 279.3001Q103.64375 279.6126 103.64375 280.0345Q103.64375 280.31573 103.81563 280.5345Q103.9875 280.75323 104.34688 280.9095Q104.56563 280.9876 105.59688 281.26886Q107.08125 281.6595 107.675 281.9251Q108.26875 282.1751 108.59688 282.6595Q108.94063 283.14386 108.94063 283.8626Q108.94063 284.56573 108.51875 285.19073Q108.1125 285.8001 107.33125 286.14386Q106.56563 286.4876 105.59688 286.4876Q103.97188 286.4876 103.12813 285.81573Q102.28438 285.14386 102.05 283.81573ZM111.00313 286.3001L111.00313 284.69073L112.6125 284.69073L112.6125 286.3001L111.00313 286.3001Z" fill-rule="nonzero"/><path fill="#9e9e9e" d="M23.721874 308.3001L23.721874 305.5501L18.753124 305.5501L18.753124 304.26886L23.9875 296.847L25.128124 296.847L25.128124 304.26886L26.675 304.26886L26.675 305.5501L25.128124 305.5501L25.128124 308.3001L23.721874 308.3001ZM23.721874 304.26886L23.721874 299.097L20.14375 304.26886L23.721874 304.26886ZM35.6125 306.94073L35.6125 308.3001L28.034374 308.3001Q28.01875 307.7845 28.20625 307.31573Q28.4875 306.5501 29.128124 305.8001Q29.76875 305.0501 30.971874 304.06573Q32.83125 302.5345 33.4875 301.64386Q34.14375 300.7376 34.14375 299.94073Q34.14375 299.1126 33.55 298.5345Q32.95625 297.95636 31.9875 297.95636Q30.971874 297.95636 30.3625 298.56573Q29.753124 299.1751 29.753124 300.25323L28.3 300.1126Q28.45625 298.4876 29.425 297.64386Q30.39375 296.8001 32.01875 296.8001Q33.675 296.8001 34.628124 297.722Q35.596874 298.62823 35.596874 299.972Q35.596874 300.6595 35.315624 301.33136Q35.034374 301.9876 34.378124 302.722Q33.721874 303.45636 32.20625 304.7376Q30.940624 305.8001 30.58125 306.19073Q30.221874 306.56573 29.9875 306.94073L35.6125 306.94073ZM38.003124 308.3001L38.003124 306.69073L39.6125 306.69073L39.6125 308.3001L38.003124 308.3001ZM41.425 305.64386L42.784374 305.51886Q42.95625 306.472 43.440624 306.9095Q43.925 307.33136 44.675 307.33136Q45.33125 307.33136 45.815624 307.0345Q46.3 306.7376 46.6125 306.25323Q46.925 305.75323 47.128124 304.9095Q47.346874 304.06573 47.346874 303.19073Q47.346874 303.097 47.346874 302.9095Q46.925 303.58136 46.190624 304.00323Q45.45625 304.4095 44.6125 304.4095Q43.190624 304.4095 42.20625 303.37823Q41.221874 302.347 41.221874 300.6595Q41.221874 298.9251 42.2375 297.8626Q43.26875 296.8001 44.815624 296.8001Q45.940624 296.8001 46.8625 297.4095Q47.784374 298.00323 48.26875 299.1126Q48.753124 300.222 48.753124 302.33136Q48.753124 304.5345 48.26875 305.83136Q47.8 307.12823 46.846874 307.81573Q45.909374 308.50323 44.64375 308.50323Q43.3 308.50323 42.440624 307.75323Q41.596874 307.00323 41.425 305.64386ZM47.190624 300.597Q47.190624 299.37823 46.534374 298.6751Q45.89375 297.95636 44.9875 297.95636Q44.05 297.95636 43.346874 298.722Q42.659374 299.4876 42.659374 300.70636Q42.659374 301.8001 43.315624 302.4876Q43.9875 303.1751 44.95625 303.1751Q45.925 303.1751 46.55 302.4876Q47.190624 301.8001 47.190624 300.597ZM50.4875 299.597Q50.4875 298.3626 51.096874 297.50323Q51.721874 296.64386 52.89375 296.64386Q53.971874 296.64386 54.675 297.4251Q55.378124 298.19073 55.378124 299.6751Q55.378124 301.12823 54.659374 301.9251Q53.95625 302.70636 52.909374 302.70636Q51.8625 302.70636 51.175 301.94073Q50.4875 301.1595 50.4875 299.597ZM52.925 297.6126Q52.409374 297.6126 52.05 298.06573Q51.70625 298.51886 51.70625 299.7376Q51.70625 300.83136 52.05 301.2845Q52.409374 301.7376 52.925 301.7376Q53.45625 301.7376 53.8 301.2845Q54.159374 300.83136 54.159374 299.62823Q54.159374 298.51886 53.8 298.06573Q53.45625 297.6126 52.925 297.6126ZM52.940624 308.722L59.20625 296.64386L60.346874 296.64386L54.096874 308.722L52.940624 308.722ZM57.89375 305.6126Q57.89375 304.37823 58.503124 303.51886Q59.128124 302.6595 60.3 302.6595Q61.378124 302.6595 62.08125 303.44073Q62.8 304.20636 62.8 305.69073Q62.8 307.14386 62.08125 307.94073Q61.3625 308.722 60.315624 308.722Q59.26875 308.722 58.58125 307.94073Q57.89375 307.1595 57.89375 305.6126ZM60.346874 303.62823Q59.815624 303.62823 59.45625 304.08136Q59.1125 304.5345 59.1125 305.75323Q59.1125 306.847 59.45625 307.3001Q59.815624 307.75323 60.33125 307.75323Q60.878124 307.75323 61.221874 307.3001Q61.565624 306.847 61.565624 305.64386Q61.565624 304.5345 61.20625 304.08136Q60.8625 303.62823 60.346874 303.62823Z" fill-rule="nonzero"/><path stroke="#757575" stroke-width="1.0" stroke-linecap="butt" d="M18.55 291.8001L145.23334 291.8001L189.50507 291.8001" fill-rule="nonzero"/><path fill="#9e9e9e" d="M191.50507 291.8001C191.50507 290.69553 190.60963 289.8001 189.50507 289.8001C188.4005 289.8001 187.50507 290.69553 187.50507 291.8001C187.50507 292.90466 188.4005 293.8001 189.50507 293.8001C190.60963 293.8001 191.50507 292.90466 191.50507 291.8001" fill-rule="nonzero"/><path fill="#efefef" d="M481.71564 166.73482L481.71564 155.2817L489.9969 155.2817L489.9969 156.62544L483.23126 156.62544L483.23126 160.14107L489.575 160.14107L489.575 161.48482L483.23126 161.48482L483.23126 165.37544L490.2625 165.37544L490.2625 166.73482L481.71564 166.73482ZM495.575 165.4692L495.77814 166.7192Q495.1844 166.8442 494.71564 166.8442Q493.95 166.8442 493.52814 166.60982Q493.10626 166.35982 492.9344 165.9692Q492.7625 165.56294 492.7625 164.29732L492.7625 159.5317L491.73126 159.5317L491.73126 158.43794L492.7625 158.43794L492.7625 156.37544L494.16876 155.5317L494.16876 158.43794L495.575 158.43794L495.575 159.5317L494.16876 159.5317L494.16876 164.37544Q494.16876 164.98482 494.23126 165.1567Q494.3094 165.32857 494.48126 165.43794Q494.65314 165.5317 494.96564 165.5317Q495.2 165.5317 495.575 165.4692ZM496.5125 166.73482L496.5125 155.2817L497.91876 155.2817L497.91876 159.39107Q498.90314 158.25044 500.40314 158.25044Q501.325 158.25044 501.9969 158.60982Q502.6844 158.9692 502.96564 159.60982Q503.2625 160.25044 503.2625 161.4692L503.2625 166.73482L501.85626 166.73482L501.85626 161.4692Q501.85626 160.42232 501.40314 159.93794Q500.95 159.45357 500.10626 159.45357Q499.48126 159.45357 498.9344 159.7817Q498.3875 160.10982 498.15314 160.67232Q497.91876 161.2192 497.91876 162.18794L497.91876 166.73482L496.5125 166.73482ZM505.5125 166.73482L505.5125 158.43794L506.77814 158.43794L506.77814 159.60982Q507.6844 158.25044 509.41876 158.25044Q510.16876 158.25044 510.79376 158.51607Q511.41876 158.7817 511.73126 159.2192Q512.04376 159.6567 512.16876 160.26607Q512.2469 160.6567 512.2469 161.62544L512.2469 166.73482L510.84064 166.73482L510.84064 161.68794Q510.84064 160.82857 510.66876 160.4067Q510.5125 159.9692 510.09064 159.7192Q509.6844 159.4692 509.1219 159.4692Q508.21564 159.4692 507.5594 160.04732Q506.91876 160.60982 506.91876 162.20357L506.91876 166.73482L505.5125 166.73482ZM514.5125 156.89107L514.5125 155.2817L515.91876 155.2817L515.91876 156.89107L514.5125 156.89107ZM514.5125 166.73482L514.5125 158.43794L515.91876 158.43794L515.91876 166.73482L514.5125 166.73482ZM523.91876 163.68794L525.3094 163.87544Q525.075 165.29732 524.1375 166.10982Q523.21564 166.92232 521.85626 166.92232Q520.15314 166.92232 519.10626 165.81294Q518.075 164.68794 518.075 162.60982Q518.075 161.26607 518.5125 160.26607Q518.96564 159.25044 519.8719 158.75044Q520.79376 158.25044 521.85626 158.25044Q523.21564 158.25044 524.075 158.93794Q524.9344 159.60982 525.16876 160.87544L523.8094 161.07857Q523.60626 160.25044 523.10626 159.82857Q522.6219 159.4067 521.91876 159.4067Q520.85626 159.4067 520.1844 160.17232Q519.52814 160.92232 519.52814 162.57857Q519.52814 164.25044 520.16876 165.01607Q520.8094 165.76607 521.84064 165.76607Q522.66876 165.76607 523.21564 165.26607Q523.77814 164.75044 523.91876 163.68794ZM536.04376 162.23482L536.04376 160.89107L540.90314 160.89107L540.90314 165.14107Q539.77814 166.0317 538.59064 166.48482Q537.40314 166.93794 536.15314 166.93794Q534.46564 166.93794 533.09064 166.2192Q531.71564 165.48482 531.0125 164.12544Q530.3094 162.75044 530.3094 161.06294Q530.3094 159.39107 530.9969 157.93794Q531.7 156.48482 533.0125 155.7817Q534.325 155.07857 536.04376 155.07857Q537.27814 155.07857 538.27814 155.48482Q539.29376 155.89107 539.85626 156.60982Q540.4344 157.32857 540.73126 158.48482L539.35626 158.85982Q539.10626 157.98482 538.71564 157.48482Q538.34064 156.98482 537.6219 156.68794Q536.91876 156.37544 536.04376 156.37544Q535.0125 156.37544 534.2469 156.70357Q533.4969 157.01607 533.02814 157.5317Q532.5594 158.04732 532.3094 158.6567Q531.8719 159.7192 531.8719 160.9692Q531.8719 162.50044 532.3875 163.5317Q532.91876 164.56294 533.91876 165.06294Q534.9344 165.56294 536.075 165.56294Q537.0594 165.56294 537.9969 165.18794Q538.9344 164.79732 539.41876 164.37544L539.41876 162.23482L536.04376 162.23482ZM542.4969 166.73482L542.4969 158.43794L543.7625 158.43794L543.7625 159.68794Q544.2469 158.81294 544.65314 158.5317Q545.0594 158.25044 545.5594 158.25044Q546.2625 158.25044 546.9969 158.70357L546.5125 160.00044Q545.9969 159.70357 545.48126 159.70357Q545.02814 159.70357 544.65314 159.98482Q544.29376 160.25044 544.1375 160.75044Q543.90314 161.50044 543.90314 162.39107L543.90314 166.73482L542.4969 166.73482ZM546.98126 162.57857Q546.98126 160.2817 548.2625 159.17232Q549.34064 158.25044 550.8719 158.25044Q552.59064 158.25044 553.66876 159.37544Q554.7625 160.48482 554.7625 162.4692Q554.7625 164.06294 554.27814 164.98482Q553.79376 165.9067 552.8719 166.42232Q551.96564 166.92232 550.8719 166.92232Q549.1375 166.92232 548.0594 165.81294Q546.98126 164.68794 546.98126 162.57857ZM548.4344 162.57857Q548.4344 164.17232 549.1219 164.9692Q549.825 165.76607 550.8719 165.76607Q551.91876 165.76607 552.60626 164.9692Q553.3094 164.17232 553.3094 162.5317Q553.3094 161.00044 552.60626 160.20357Q551.91876 159.4067 550.8719 159.4067Q549.825 159.4067 549.1219 160.20357Q548.4344 160.98482 548.4344 162.57857ZM561.95 166.73482L561.95 165.51607Q560.98126 166.92232 559.3094 166.92232Q558.575 166.92232 557.9344 166.64107Q557.3094 166.35982 556.9969 165.93794Q556.6844 165.50044 556.5594 164.89107Q556.48126 164.4692 556.48126 163.57857L556.48126 158.43794L557.8875 158.43794L557.8875 163.0317Q557.8875 164.14107 557.96564 164.51607Q558.10626 165.07857 558.52814 165.39107Q558.96564 165.70357 559.59064 165.70357Q560.23126 165.70357 560.77814 165.39107Q561.34064 165.06294 561.5594 164.50044Q561.79376 163.93794 561.79376 162.87544L561.79376 158.43794L563.2 158.43794L563.2 166.73482L561.95 166.73482ZM565.5125 169.92232L565.5125 158.43794L566.79376 158.43794L566.79376 159.51607Q567.2469 158.87544 567.8094 158.56294Q568.3875 158.25044 569.2 158.25044Q570.2625 158.25044 571.075 158.79732Q571.8875 159.3442 572.29376 160.3442Q572.71564 161.32857 572.71564 162.51607Q572.71564 163.79732 572.2469 164.81294Q571.79376 165.82857 570.91876 166.37544Q570.0594 166.92232 569.09064 166.92232Q568.3875 166.92232 567.825 166.62544Q567.27814 166.32857 566.91876 165.87544L566.91876 169.92232L565.5125 169.92232ZM566.77814 162.62544Q566.77814 164.23482 567.41876 165.00044Q568.075 165.76607 568.9969 165.76607Q569.9344 165.76607 570.60626 164.9692Q571.27814 164.17232 571.27814 162.51607Q571.27814 160.92232 570.6219 160.14107Q569.96564 159.3442 569.0594 159.3442Q568.16876 159.3442 567.46564 160.18794Q566.77814 161.0317 566.77814 162.62544ZM573.95 164.25044L575.34064 164.0317Q575.45 164.87544 575.98126 165.32857Q576.52814 165.76607 577.48126 165.76607Q578.45 165.76607 578.91876 165.37544Q579.3875 164.9692 579.3875 164.43794Q579.3875 163.9692 578.98126 163.68794Q578.6844 163.50044 577.54376 163.2192Q575.9969 162.82857 575.3875 162.54732Q574.79376 162.25044 574.48126 161.75044Q574.1844 161.25044 574.1844 160.64107Q574.1844 160.07857 574.4344 159.60982Q574.6844 159.14107 575.1219 158.82857Q575.45 158.57857 576.0125 158.42232Q576.59064 158.25044 577.23126 158.25044Q578.21564 158.25044 578.95 158.5317Q579.6844 158.81294 580.02814 159.29732Q580.3875 159.76607 580.52814 160.57857L579.15314 160.76607Q579.0594 160.12544 578.60626 159.76607Q578.15314 159.4067 577.34064 159.4067Q576.3719 159.4067 575.95 159.73482Q575.54376 160.04732 575.54376 160.4692Q575.54376 160.75044 575.71564 160.9692Q575.8875 161.18794 576.2469 161.3442Q576.46564 161.42232 577.4969 161.70357Q578.98126 162.0942 579.575 162.35982Q580.16876 162.60982 580.4969 163.0942Q580.84064 163.57857 580.84064 164.29732Q580.84064 165.00044 580.41876 165.62544Q580.0125 166.23482 579.23126 166.57857Q578.46564 166.92232 577.4969 166.92232Q575.8719 166.92232 575.02814 166.25044Q574.1844 165.57857 573.95 164.25044Z" fill-rule="nonzero"/><path fill="#9e9e9e" d="M541.6219 188.73482L541.6219 185.98482L536.65314 185.98482L536.65314 184.70357L541.8875 177.2817L543.02814 177.2817L543.02814 184.70357L544.575 184.70357L544.575 185.98482L543.02814 185.98482L543.02814 188.73482L541.6219 188.73482ZM541.6219 184.70357L541.6219 179.5317L538.04376 184.70357L541.6219 184.70357ZM553.5125 187.37544L553.5125 188.73482L545.9344 188.73482Q545.91876 188.2192 546.10626 187.75044Q546.3875 186.98482 547.02814 186.23482Q547.66876 185.48482 548.8719 184.50044Q550.73126 182.9692 551.3875 182.07857Q552.04376 181.17232 552.04376 180.37544Q552.04376 179.54732 551.45 178.9692Q550.85626 178.39107 549.8875 178.39107Q548.8719 178.39107 548.2625 179.00044Q547.65314 179.60982 547.65314 180.68794L546.2 180.54732Q546.35626 178.92232 547.325 178.07857Q548.29376 177.23482 549.91876 177.23482Q551.575 177.23482 552.52814 178.1567Q553.4969 179.06294 553.4969 180.4067Q553.4969 181.0942 553.21564 181.76607Q552.9344 182.42232 552.27814 183.1567Q551.6219 183.89107 550.10626 185.17232Q548.84064 186.23482 548.48126 186.62544Q548.1219 187.00044 547.8875 187.37544L553.5125 187.37544ZM555.90314 188.73482L555.90314 187.12544L557.5125 187.12544L557.5125 188.73482L555.90314 188.73482ZM559.325 186.07857L560.6844 185.95357Q560.85626 186.9067 561.34064 187.3442Q561.825 187.76607 562.575 187.76607Q563.23126 187.76607 563.71564 187.4692Q564.2 187.17232 564.5125 186.68794Q564.825 186.18794 565.02814 185.3442Q565.2469 184.50044 565.2469 183.62544Q565.2469 183.5317 565.2469 183.3442Q564.825 184.01607 564.09064 184.43794Q563.35626 184.8442 562.5125 184.8442Q561.09064 184.8442 560.10626 183.81294Q559.1219 182.7817 559.1219 181.0942Q559.1219 179.35982 560.1375 178.29732Q561.16876 177.23482 562.71564 177.23482Q563.84064 177.23482 564.7625 177.8442Q565.6844 178.43794 566.16876 179.54732Q566.65314 180.6567 566.65314 182.76607Q566.65314 184.9692 566.16876 186.26607Q565.7 187.56294 564.7469 188.25044Q563.8094 188.93794 562.54376 188.93794Q561.2 188.93794 560.34064 188.18794Q559.4969 187.43794 559.325 186.07857ZM565.09064 181.0317Q565.09064 179.81294 564.4344 179.10982Q563.79376 178.39107 562.8875 178.39107Q561.95 178.39107 561.2469 179.1567Q560.5594 179.92232 560.5594 181.14107Q560.5594 182.23482 561.21564 182.92232Q561.8875 183.60982 562.85626 183.60982Q563.825 183.60982 564.45 182.92232Q565.09064 182.23482 565.09064 181.0317ZM568.3875 180.0317Q568.3875 178.79732 568.9969 177.93794Q569.6219 177.07857 570.79376 177.07857Q571.8719 177.07857 572.575 177.85982Q573.27814 178.62544 573.27814 180.10982Q573.27814 181.56294 572.5594 182.35982Q571.85626 183.14107 570.8094 183.14107Q569.7625 183.14107 569.075 182.37544Q568.3875 181.5942 568.3875 180.0317ZM570.825 178.04732Q570.3094 178.04732 569.95 178.50044Q569.60626 178.95357 569.60626 180.17232Q569.60626 181.26607 569.95 181.7192Q570.3094 182.17232 570.825 182.17232Q571.35626 182.17232 571.7 181.7192Q572.0594 181.26607 572.0594 180.06294Q572.0594 178.95357 571.7 178.50044Q571.35626 178.04732 570.825 178.04732ZM570.84064 189.1567L577.10626 177.07857L578.2469 177.07857L571.9969 189.1567L570.84064 189.1567ZM575.79376 186.04732Q575.79376 184.81294 576.40314 183.95357Q577.02814 183.0942 578.2 183.0942Q579.27814 183.0942 579.98126 183.87544Q580.7 184.64107 580.7 186.12544Q580.7 187.57857 579.98126 188.37544Q579.2625 189.1567 578.21564 189.1567Q577.16876 189.1567 576.48126 188.37544Q575.79376 187.5942 575.79376 186.04732ZM578.2469 184.06294Q577.71564 184.06294 577.35626 184.51607Q577.0125 184.9692 577.0125 186.18794Q577.0125 187.2817 577.35626 187.73482Q577.71564 188.18794 578.23126 188.18794Q578.77814 188.18794 579.1219 187.73482Q579.46564 187.2817 579.46564 186.07857Q579.46564 184.9692 579.10626 184.51607Q578.7625 184.06294 578.2469 184.06294Z" fill-rule="nonzero"/><path stroke="#757575" stroke-width="1.0" stroke-linecap="butt" d="M581.45 172.23482L454.76666 172.23482L437.78494 172.23482" fill-rule="nonzero"/><path fill="#9e9e9e" d="M439.78494 172.23482C439.78494 171.13025 438.8895 170.23482 437.78494 170.23482C436.68036 170.23482 435.78494 171.13025 435.78494 172.23482C435.78494 173.33939 436.68036 174.23482 437.78494 174.23482C438.8895 174.23482 439.78494 173.33939 439.78494 172.23482" fill-rule="nonzero"/><path fill="#f3f3f3" d="M271.26562 32.534374L273.15625 33.003124Q272.5625 35.346874 271.01562 36.58125Q269.46875 37.8 267.21875 37.8Q264.90625 37.8 263.45312 36.8625Q262.01562 35.909374 261.25 34.128124Q260.5 32.33125 260.5 30.284374Q260.5 28.05 261.34375 26.39375Q262.20312 24.721874 263.78125 23.8625Q265.35938 22.9875 267.25 22.9875Q269.40625 22.9875 270.85938 24.08125Q272.32812 25.175 272.90625 27.159374L271.04688 27.596874Q270.54688 26.034374 269.59375 25.33125Q268.65625 24.6125 267.21875 24.6125Q265.5625 24.6125 264.45312 25.409374Q263.34375 26.190624 262.89062 27.534374Q262.45312 28.8625 262.45312 30.26875Q262.45312 32.096874 262.98438 33.471874Q263.51562 34.83125 264.64062 35.503124Q265.76562 36.175 267.0625 36.175Q268.65625 36.175 269.76562 35.253124Q270.875 34.33125 271.26562 32.534374ZM281.59375 36.26875Q280.60938 37.096874 279.70312 37.440624Q278.79688 37.784374 277.76562 37.784374Q276.0625 37.784374 275.14062 36.95625Q274.21875 36.1125 274.21875 34.815624Q274.21875 34.05 274.5625 33.425Q274.92188 32.8 275.48438 32.425Q276.04688 32.034374 276.75 31.83125Q277.26562 31.70625 278.3125 31.565624Q280.4375 31.315624 281.4375 30.971874Q281.45312 30.6125 281.45312 30.503124Q281.45312 29.440624 280.95312 28.9875Q280.28125 28.39375 278.95312 28.39375Q277.70312 28.39375 277.10938 28.83125Q276.53125 29.26875 276.25 30.378124L274.53125 30.14375Q274.76562 29.034374 275.29688 28.3625Q275.82812 27.675 276.84375 27.315624Q277.85938 26.940624 279.20312 26.940624Q280.53125 26.940624 281.35938 27.253124Q282.1875 27.565624 282.57812 28.05Q282.96875 28.51875 283.125 29.2375Q283.21875 29.690624 283.21875 30.8625L283.21875 33.20625Q283.21875 35.659374 283.32812 36.315624Q283.4375 36.95625 283.78125 37.55L281.9375 37.55Q281.67188 37.003124 281.59375 36.26875ZM281.4375 32.346874Q280.48438 32.7375 278.5625 33.003124Q277.48438 33.159374 277.03125 33.3625Q276.59375 33.55 276.34375 33.925Q276.09375 34.3 276.09375 34.76875Q276.09375 35.471874 276.625 35.940624Q277.15625 36.409374 278.1875 36.409374Q279.20312 36.409374 279.98438 35.971874Q280.78125 35.51875 281.15625 34.753124Q281.4375 34.14375 281.4375 32.9875L281.4375 32.346874ZM289.65625 35.971874L289.90625 37.534374Q289.17188 37.690624 288.57812 37.690624Q287.625 37.690624 287.09375 37.39375Q286.57812 37.08125 286.35938 36.596874Q286.14062 36.096874 286.14062 34.51875L286.14062 28.55L284.85938 28.55L284.85938 27.175L286.14062 27.175L286.14062 24.6125L287.89062 23.55L287.89062 27.175L289.65625 27.175L289.65625 28.55L287.89062 28.55L287.89062 34.6125Q287.89062 35.3625 287.98438 35.58125Q288.07812 35.784374 288.28125 35.925Q288.5 36.05 288.89062 36.05Q289.17188 36.05 289.65625 35.971874ZM298.92188 34.20625L300.73438 34.440624Q300.3125 36.01875 299.14062 36.909374Q297.98438 37.784374 296.17188 37.784374Q293.90625 37.784374 292.5625 36.39375Q291.23438 34.9875 291.23438 32.45625Q291.23438 29.83125 292.57812 28.39375Q293.92188 26.940624 296.07812 26.940624Q298.15625 26.940624 299.46875 28.3625Q300.79688 29.76875 300.79688 32.346874Q300.79688 32.503124 300.78125 32.815624L293.04688 32.815624Q293.14062 34.51875 294.01562 35.425Q294.89062 36.33125 296.1875 36.33125Q297.15625 36.33125 297.82812 35.83125Q298.51562 35.315624 298.92188 34.20625ZM293.14062 31.3625L298.9375 31.3625Q298.82812 30.065624 298.28125 29.409374Q297.4375 28.39375 296.09375 28.39375Q294.89062 28.39375 294.0625 29.20625Q293.23438 30.003124 293.14062 31.3625ZM302.5 38.409374L304.20312 38.659374Q304.3125 39.45625 304.79688 39.815624Q305.45312 40.3 306.59375 40.3Q307.8125 40.3 308.46875 39.815624Q309.14062 39.33125 309.375 38.45625Q309.51562 37.909374 309.5 36.190624Q308.34375 37.55 306.625 37.55Q304.48438 37.55 303.3125 36.003124Q302.14062 34.45625 302.14062 32.3Q302.14062 30.815624 302.67188 29.565624Q303.21875 28.315624 304.23438 27.628124Q305.26562 26.940624 306.64062 26.940624Q308.46875 26.940624 309.67188 28.425L309.67188 27.175L311.28125 27.175L311.28125 36.14375Q311.28125 38.565624 310.78125 39.565624Q310.29688 40.58125 309.21875 41.159374Q308.15625 41.753124 306.59375 41.753124Q304.75 41.753124 303.59375 40.925Q302.45312 40.096874 302.5 38.409374ZM303.95312 32.175Q303.95312 34.221874 304.76562 35.159374Q305.57812 36.096874 306.79688 36.096874Q308.0 36.096874 308.8125 35.159374Q309.64062 34.221874 309.64062 32.2375Q309.64062 30.33125 308.79688 29.3625Q307.95312 28.39375 306.76562 28.39375Q305.59375 28.39375 304.76562 29.346874Q303.95312 30.3 303.95312 32.175ZM313.17188 32.3625Q313.17188 29.4875 314.76562 28.096874Q316.10938 26.940624 318.03125 26.940624Q320.17188 26.940624 321.51562 28.346874Q322.875 29.753124 322.875 32.221874Q322.875 34.221874 322.28125 35.378124Q321.6875 36.51875 320.53125 37.159374Q319.39062 37.784374 318.03125 37.784374Q315.84375 37.784374 314.5 36.39375Q313.17188 34.9875 313.17188 32.3625ZM314.96875 32.3625Q314.96875 34.3625 315.82812 35.346874Q316.70312 36.33125 318.03125 36.33125Q319.34375 36.33125 320.20312 35.346874Q321.07812 34.346874 321.07812 32.3Q321.07812 30.378124 320.20312 29.39375Q319.32812 28.39375 318.03125 28.39375Q316.70312 28.39375 315.82812 29.39375Q314.96875 30.378124 314.96875 32.3625ZM324.79688 37.55L324.79688 27.175L326.375 27.175L326.375 28.753124Q326.98438 27.64375 327.5 27.3Q328.01562 26.940624 328.625 26.940624Q329.51562 26.940624 330.4375 27.503124L329.82812 29.14375Q329.1875 28.753124 328.54688 28.753124Q327.96875 28.753124 327.5 29.1125Q327.04688 29.45625 326.84375 30.065624Q326.5625 31.003124 326.5625 32.1125L326.5625 37.55L324.79688 37.55ZM331.73438 41.55L331.54688 39.89375Q332.125 40.05 332.54688 40.05Q333.14062 40.05 333.48438 39.846874Q333.84375 39.659374 334.0625 39.315624Q334.23438 39.05 334.60938 38.003124Q334.65625 37.846874 334.76562 37.565624L330.82812 27.175L332.71875 27.175L334.875 33.190624Q335.29688 34.33125 335.625 35.58125Q335.9375 34.378124 336.34375 33.221874L338.5625 27.175L340.32812 27.175L336.375 37.721874Q335.75 39.440624 335.39062 40.08125Q334.92188 40.95625 334.3125 41.346874Q333.71875 41.753124 332.875 41.753124Q332.35938 41.753124 331.73438 41.55Z" fill-rule="nonzero"/></svg>