<svg version="1.1" viewBox="0.0 0.0 600.0 371.0" fill="none" stroke="none" stroke-linecap="square" stroke-miterlimit="10" width="600" height="371" xmlns:xlink="http://www.w3.org/1999/xlink" xmlns="http://www.w3.org/2000/svg"><path fill="#ffffff" fill-opacity="0.0" d="M0 0L600.0 0L600.0 371.0L0 371.0L0 0Z" fill-rule="nonzero"/><path fill="#f7d750" d="M300.0 54.916668C373.3508 54.916668 435.75467 108.38104 447.00607 180.86377C458.25748 253.3465 414.99808 323.21286 345.099 345.44934L322.5495 274.56635C357.49902 263.4481 379.12875 228.51491 373.50305 192.27354C367.87735 156.03218 336.67538 129.3 300.0 129.3Z" fill-rule="nonzero"/><path fill="#2d4d98" d="M281.71832 56.044243C287.78326 55.29324 293.88873 54.916668 300.0 54.916668L300.0 129.3C296.94437 129.3 293.89163 129.48828 290.85916 129.86378Z" fill-rule="nonzero"/><path fill="#4571b0" d="M272.66418 57.449703C275.66708 56.888363 278.68655 56.419655 281.71832 56.044243L290.85916 129.86378C289.3433 130.0515 287.83356 130.28584 286.3321 130.56651Z" fill-rule="nonzero"/><path fill="#b3ca48" d="M214.04651 82.26044C231.56691 69.85801 251.5638 61.39405 272.66418 57.449703L286.3321 130.56651C275.7819 132.5387 265.78345 136.77068 257.02325 142.9719Z" fill-rule="nonzero"/><path fill="#f5ee58" d="M345.099 345.44934C275.19995 367.68582 199.52481 335.65527 166.82954 269.99435C134.13428 204.3334 154.17781 124.64061 214.04651 82.26044L257.02325 142.9719C227.08891 164.16197 217.06714 204.00836 233.41476 236.83884C249.7624 269.6693 287.59998 285.68457 322.5495 274.56635Z" fill-rule="nonzero"/><path fill="#ffffff" d="M390.56708 193.06866L390.56708 189.99054L384.98895 189.99054L384.98895 188.53741L390.86395 180.17804L392.16083 180.17804L392.16083 188.53741L393.8952 188.53741L393.8952 189.99054L392.16083 189.99054L392.16083 193.06866L390.56708 193.06866ZM390.56708 188.53741L390.56708 182.72491L386.53583 188.53741L390.56708 188.53741ZM395.50458 189.69366L397.16083 189.55304Q397.34833 190.77179 398.0202 191.38116Q398.69208 191.99054 399.6452 191.99054Q400.78583 191.99054 401.56708 191.13116Q402.36395 190.27179 402.36395 188.83429Q402.36395 187.49054 401.59833 186.70929Q400.84833 185.92804 399.61395 185.92804Q398.84833 185.92804 398.22333 186.27179Q397.61395 186.61554 397.2702 187.17804L395.78583 186.97491L397.03583 180.36554L403.44208 180.36554L403.44208 181.86554L398.30145 181.86554L397.59833 185.33429Q398.7702 184.52179 400.03583 184.52179Q401.72333 184.52179 402.87958 185.69366Q404.05145 186.86554 404.05145 188.69366Q404.05145 190.44366 403.0202 191.72491Q401.78583 193.28741 399.6452 193.28741Q397.87958 193.28741 396.7702 192.30304Q395.66083 191.31866 395.50458 189.69366ZM406.3952 193.06866L406.3952 191.27179L408.19208 191.27179L408.19208 193.06866L406.3952 193.06866ZM416.4577 193.06866L414.87958 193.06866L414.87958 182.99054Q414.30145 183.53741 413.37958 184.08429Q412.4577 184.61554 411.7077 184.89679L411.7077 183.36554Q413.03583 182.74054 414.03583 181.84991Q415.03583 180.95929 415.44208 180.13116L416.4577 180.13116L416.4577 193.06866ZM420.80145 183.27179Q420.80145 181.89679 421.48895 180.92804Q422.19208 179.95929 423.50458 179.95929Q424.72333 179.95929 425.5202 180.83429Q426.31708 181.69366 426.31708 183.38116Q426.31708 185.00616 425.50458 185.89679Q424.7077 186.77179 423.5202 186.77179Q422.36395 186.77179 421.5827 185.91241Q420.80145 185.03741 420.80145 183.27179ZM423.55145 181.05304Q422.9577 181.05304 422.56708 181.56866Q422.17645 182.06866 422.17645 183.42804Q422.17645 184.67804 422.56708 185.17804Q422.97333 185.67804 423.55145 185.67804Q424.1452 185.67804 424.53583 185.17804Q424.92645 184.66241 424.92645 183.31866Q424.92645 182.06866 424.53583 181.56866Q424.1452 181.05304 423.55145 181.05304ZM423.56708 193.53741L430.61395 179.95929L431.8952 179.95929L424.86395 193.53741L423.56708 193.53741ZM429.12958 190.03741Q429.12958 188.66241 429.81708 187.69366Q430.5202 186.72491 431.84833 186.72491Q433.06708 186.72491 433.84833 187.59991Q434.6452 188.45929 434.6452 190.14679Q434.6452 191.77179 433.84833 192.66241Q433.05145 193.53741 431.86395 193.53741Q430.69208 193.53741 429.91083 192.66241Q429.12958 191.78741 429.12958 190.03741ZM431.8952 187.81866Q431.30145 187.81866 430.91083 188.33429Q430.5202 188.83429 430.5202 190.20929Q430.5202 191.42804 430.91083 191.94366Q431.30145 192.45929 431.87958 192.45929Q432.48895 192.45929 432.87958 191.94366Q433.2702 191.42804 433.2702 190.08429Q433.2702 188.83429 432.87958 188.33429Q432.48895 187.81866 431.8952 187.81866Z" fill-rule="nonzero"/><path fill="#ffffff" d="M180.43466 259.9166L180.43466 256.83847L174.85654 256.83847L174.85654 255.38535L180.73154 247.02597L182.02841 247.02597L182.02841 255.38535L183.76279 255.38535L183.76279 256.83847L182.02841 256.83847L182.02841 259.9166L180.43466 259.9166ZM180.43466 255.38535L180.43466 249.57285L176.40341 255.38535L180.43466 255.38535ZM185.37216 256.5416L187.02841 256.40097Q187.21591 257.61972 187.88779 258.2291Q188.55966 258.83847 189.51279 258.83847Q190.65341 258.83847 191.43466 257.9791Q192.23154 257.11972 192.23154 255.68222Q192.23154 254.33847 191.46591 253.55722Q190.71591 252.77597 189.48154 252.77597Q188.71591 252.77597 188.09091 253.11972Q187.48154 253.46347 187.13779 254.02597L185.65341 253.82285L186.90341 247.21347L193.30966 247.21347L193.30966 248.71347L188.16904 248.71347L187.46591 252.18222Q188.63779 251.36972 189.90341 251.36972Q191.59091 251.36972 192.74716 252.5416Q193.91904 253.71347 193.91904 255.5416Q193.91904 257.2916 192.88779 258.57285Q191.65341 260.13535 189.51279 260.13535Q187.74716 260.13535 186.63779 259.15097Q185.52841 258.1666 185.37216 256.5416ZM196.26279 259.9166L196.26279 258.11972L198.05966 258.11972L198.05966 259.9166L196.26279 259.9166ZM206.32529 259.9166L204.74716 259.9166L204.74716 249.83847Q204.16904 250.38535 203.24716 250.93222Q202.32529 251.46347 201.57529 251.74472L201.57529 250.21347Q202.90341 249.58847 203.90341 248.69785Q204.90341 247.80722 205.30966 246.9791L206.32529 246.9791L206.32529 259.9166ZM210.66904 250.11972Q210.66904 248.74472 211.35654 247.77597Q212.05966 246.80722 213.37216 246.80722Q214.59091 246.80722 215.38779 247.68222Q216.18466 248.5416 216.18466 250.2291Q216.18466 251.8541 215.37216 252.74472Q214.57529 253.61972 213.38779 253.61972Q212.23154 253.61972 211.45029 252.76035Q210.66904 251.88535 210.66904 250.11972ZM213.41904 247.90097Q212.82529 247.90097 212.43466 248.4166Q212.04404 248.9166 212.04404 250.27597Q212.04404 251.52597 212.43466 252.02597Q212.84091 252.52597 213.41904 252.52597Q214.01279 252.52597 214.40341 252.02597Q214.79404 251.51035 214.79404 250.1666Q214.79404 248.9166 214.40341 248.4166Q214.01279 247.90097 213.41904 247.90097ZM213.43466 260.38535L220.48154 246.80722L221.76279 246.80722L214.73154 260.38535L213.43466 260.38535ZM218.99716 256.88535Q218.99716 255.51035 219.68466 254.5416Q220.38779 253.57285 221.71591 253.57285Q222.93466 253.57285 223.71591 254.44785Q224.51279 255.30722 224.51279 256.99472Q224.51279 258.61972 223.71591 259.51035Q222.91904 260.38535 221.73154 260.38535Q220.55966 260.38535 219.77841 259.51035Q218.99716 258.63535 218.99716 256.88535ZM221.76279 254.6666Q221.16904 254.6666 220.77841 255.18222Q220.38779 255.68222 220.38779 257.05722Q220.38779 258.27597 220.77841 258.7916Q221.16904 259.30722 221.74716 259.30722Q222.35654 259.30722 222.74716 258.7916Q223.13779 258.27597 223.13779 256.93222Q223.13779 255.68222 222.74716 255.18222Q222.35654 254.6666 221.76279 254.6666Z" fill-rule="nonzero"/><path fill="#ffffff" d="M244.96277 97.69893L243.40027 97.82393Q243.18152 96.902054 242.7909 96.48018Q242.15027 95.79268 241.21277 95.79268Q240.46277 95.79268 239.88464 96.214554Q239.13464 96.76143 238.69714 97.808304Q238.27527 98.85518 238.25964 100.79268Q238.83777 99.91768 239.65027 99.495804Q240.4784 99.07393 241.38464 99.07393Q242.9784 99.07393 244.08777 100.245804Q245.19714 101.402054 245.19714 103.245804Q245.19714 104.464554 244.6659 105.51143Q244.15027 106.54268 243.2284 107.10518Q242.32214 107.652054 241.1659 107.652054Q239.18152 107.652054 237.93152 106.19893Q236.68152 104.745804 236.68152 101.402054Q236.68152 97.66768 238.07214 95.964554Q239.27527 94.495804 241.30652 94.495804Q242.83777 94.495804 243.80652 95.35518Q244.77527 96.19893 244.96277 97.69893ZM238.50964 103.26143Q238.50964 104.07393 238.8534 104.82393Q239.19714 105.57393 239.82214 105.964554Q240.44714 106.35518 241.13464 106.35518Q242.13464 106.35518 242.8534 105.54268Q243.57214 104.73018 243.57214 103.339554Q243.57214 102.01143 242.8534 101.245804Q242.15027 100.464554 241.07214 100.464554Q239.99402 100.464554 239.24402 101.245804Q238.50964 102.01143 238.50964 103.26143ZM247.65027 107.433304L247.65027 105.63643L249.44714 105.63643L249.44714 107.433304L247.65027 107.433304ZM251.99402 104.44893L253.50964 104.308304Q253.71277 105.38643 254.24402 105.870804Q254.7909 106.35518 255.65027 106.35518Q256.38464 106.35518 256.93152 106.027054Q257.4784 105.683304 257.82214 105.13643Q258.18152 104.57393 258.4159 103.620804Q258.65027 102.66768 258.65027 101.683304Q258.65027 101.57393 258.65027 101.370804Q258.1659 102.120804 257.33777 102.589554Q256.52527 103.058304 255.57214 103.058304Q253.9784 103.058304 252.86902 101.902054Q251.75964 100.745804 251.75964 98.839554Q251.75964 96.88643 252.9159 95.69893Q254.07214 94.495804 255.80652 94.495804Q257.07214 94.495804 258.1034 95.183304Q259.15027 95.85518 259.68152 97.10518Q260.2284 98.35518 260.2284 100.73018Q260.2284 103.19893 259.68152 104.66768Q259.15027 106.120804 258.08777 106.88643Q257.0409 107.652054 255.61902 107.652054Q254.1034 107.652054 253.13464 106.82393Q252.18152 105.98018 251.99402 104.44893ZM258.4784 98.76143Q258.4784 97.402054 257.74402 96.60518Q257.02527 95.808304 256.00964 95.808304Q254.94714 95.808304 254.1659 96.66768Q253.38464 97.527054 253.38464 98.902054Q253.38464 100.13643 254.11902 100.902054Q254.86902 101.66768 255.96277 101.66768Q257.05652 101.66768 257.75964 100.902054Q258.4784 100.13643 258.4784 98.76143ZM262.05652 97.63643Q262.05652 96.26143 262.74402 95.29268Q263.44714 94.32393 264.75964 94.32393Q265.9784 94.32393 266.77527 95.19893Q267.57214 96.058304 267.57214 97.745804Q267.57214 99.370804 266.75964 100.26143Q265.96277 101.13643 264.77527 101.13643Q263.61902 101.13643 262.83777 100.277054Q262.05652 99.402054 262.05652 97.63643ZM264.80652 95.41768Q264.21277 95.41768 263.82214 95.933304Q263.43152 96.433304 263.43152 97.79268Q263.43152 99.04268 263.82214 99.54268Q264.2284 100.04268 264.80652 100.04268Q265.40027 100.04268 265.7909 99.54268Q266.18152 99.027054 266.18152 97.683304Q266.18152 96.433304 265.7909 95.933304Q265.40027 95.41768 264.80652 95.41768ZM264.82214 107.902054L271.86902 94.32393L273.15027 94.32393L266.11902 107.902054L264.82214 107.902054ZM270.38464 104.402054Q270.38464 103.027054 271.07214 102.058304Q271.77527 101.089554 273.1034 101.089554Q274.32214 101.089554 275.1034 101.964554Q275.90027 102.82393 275.90027 104.51143Q275.90027 106.13643 275.1034 107.027054Q274.30652 107.902054 273.11902 107.902054Q271.94714 107.902054 271.1659 107.027054Q270.38464 106.152054 270.38464 104.402054ZM273.15027 102.183304Q272.55652 102.183304 272.1659 102.69893Q271.77527 103.19893 271.77527 104.57393Q271.77527 105.79268 272.1659 106.308304Q272.55652 106.82393 273.13464 106.82393Q273.74402 106.82393 274.13464 106.308304Q274.52527 105.79268 274.52527 104.44893Q274.52527 103.19893 274.13464 102.69893Q273.74402 102.183304 273.15027 102.183304Z" fill-rule="nonzero"/><path stroke="#ffffff" stroke-width="1.0" stroke-linejoin="round" stroke-linecap="round" d="M322.5495 274.56635C357.49902 263.4481 379.12875 228.51491 373.50305 192.27354C367.87735 156.03218 336.67538 129.3 300.0 129.3L300.0 54.916668C373.3508 54.916668 435.75467 108.38104 447.00607 180.86377C458.25748 253.3465 414.99808 323.21286 345.099 345.44934" fill-rule="nonzero"/><path stroke="#ffffff" stroke-width="1.0" stroke-linejoin="round" stroke-linecap="round" d="M257.02325 142.9719C227.08891 164.16197 217.06714 204.00836 233.41476 236.83884C249.7624 269.6693 287.59998 285.68457 322.5495 274.56635L345.099 345.44934C275.19995 367.68582 199.52481 335.65527 166.82954 269.99435C134.13428 204.3334 154.17781 124.64061 214.04651 82.26044" fill-rule="nonzero"/><path stroke="#ffffff" stroke-width="1.0" stroke-linejoin="round" stroke-linecap="round" d="M286.3321 130.56651C275.7819 132.5387 265.78345 136.77068 257.02325 142.9719L214.04651 82.26044C231.56691 69.85801 251.5638 61.39405 272.66418 57.449703" fill-rule="nonzero"/><path stroke="#ffffff" stroke-width="1.0" stroke-linejoin="round" stroke-linecap="round" d="M290.85916 129.86378C289.3433 130.0515 287.83356 130.28584 286.3321 130.56651L272.66418 57.449703C275.66708 56.888363 278.68655 56.419655 281.71832 56.044243" fill-rule="nonzero"/><path stroke="#ffffff" stroke-width="1.0" stroke-linejoin="round" stroke-linecap="round" d="M300.0 129.3C296.94437 129.3 293.89163 129.48828 290.85916 129.86378L281.71832 56.044243C287.78326 55.29324 293.88873 54.916668 300.0 54.916668" fill-rule="nonzero"/><path fill="#efefef" d="M19.784374 69.916664L19.784374 58.46354L23.7375 58.46354Q25.065624 58.46354 25.76875 58.61979Q26.753124 58.854164 27.45625 59.447914Q28.3625 60.21354 28.8 61.40104Q29.253124 62.58854 29.253124 64.11979Q29.253124 65.43229 28.940624 66.447914Q28.64375 67.447914 28.159374 68.104164Q27.690624 68.760414 27.128124 69.15104Q26.565624 69.52604 25.753124 69.729164Q24.95625 69.916664 23.925 69.916664L19.784374 69.916664ZM21.3 68.55729L23.753124 68.55729Q24.878124 68.55729 25.51875 68.354164Q26.175 68.135414 26.55 67.760414Q27.096874 67.21354 27.39375 66.30729Q27.690624 65.40104 27.690624 64.104164Q27.690624 62.30729 27.096874 61.33854Q26.51875 60.36979 25.675 60.041664Q25.065624 59.80729 23.70625 59.80729L21.3 59.80729L21.3 68.55729ZM31.6125 60.072914L31.6125 58.46354L33.01875 58.46354L33.01875 60.072914L31.6125 60.072914ZM31.6125 69.916664L31.6125 61.61979L33.01875 61.61979L33.01875 69.916664L31.6125 69.916664ZM35.6125 73.104164L35.6125 61.61979L36.89375 61.61979L36.89375 62.697914Q37.346874 62.05729 37.909374 61.74479Q38.4875 61.43229 39.3 61.43229Q40.3625 61.43229 41.175 61.979164Q41.9875 62.52604 42.39375 63.52604Q42.815624 64.510414 42.815624 65.697914Q42.815624 66.979164 42.346874 67.99479Q41.89375 69.010414 41.01875 69.55729Q40.159374 70.104164 39.190624 70.104164Q38.4875 70.104164 37.925 69.80729Q37.378124 69.510414 37.01875 69.05729L37.01875 73.104164L35.6125 73.104164ZM36.878124 65.80729Q36.878124 67.416664 37.51875 68.18229Q38.175 68.947914 39.096874 68.947914Q40.034374 68.947914 40.70625 68.15104Q41.378124 67.354164 41.378124 65.697914Q41.378124 64.104164 40.721874 63.322914Q40.065624 62.52604 39.159374 62.52604Q38.26875 62.52604 37.565624 63.36979Q36.878124 64.21354 36.878124 65.80729ZM44.58125 69.916664L44.58125 58.46354L45.9875 58.46354L45.9875 69.916664L44.58125 69.916664ZM48.08125 65.760414Q48.08125 63.46354 49.3625 62.354164Q50.440624 61.43229 51.971874 61.43229Q53.690624 61.43229 54.76875 62.55729Q55.8625 63.666664 55.8625 65.65104Q55.8625 67.24479 55.378124 68.166664Q54.89375 69.08854 53.971874 69.604164Q53.065624 70.104164 51.971874 70.104164Q50.2375 70.104164 49.159374 68.99479Q48.08125 67.86979 48.08125 65.760414ZM49.534374 65.760414Q49.534374 67.354164 50.221874 68.15104Q50.925 68.947914 51.971874 68.947914Q53.01875 68.947914 53.70625 68.15104Q54.409374 67.354164 54.409374 65.71354Q54.409374 64.18229 53.70625 63.385414Q53.01875 62.58854 51.971874 62.58854Q50.925 62.58854 50.221874 63.385414Q49.534374 64.166664 49.534374 65.760414ZM57.6125 69.916664L57.6125 61.61979L58.8625 61.61979L58.8625 62.77604Q59.253124 62.166664 59.89375 61.80729Q60.55 61.43229 61.378124 61.43229Q62.3 61.43229 62.89375 61.822914Q63.4875 62.197914 63.721874 62.885414Q64.70625 61.43229 66.28438 61.43229Q67.51875 61.43229 68.175 62.11979Q68.84688 62.791664 68.84688 64.21354L68.84688 69.916664L67.45625 69.916664L67.45625 64.68229Q67.45625 63.83854 67.31563 63.479164Q67.175 63.104164 66.81563 62.885414Q66.45625 62.65104 65.97188 62.65104Q65.09688 62.65104 64.51875 63.229164Q63.940624 63.80729 63.940624 65.08854L63.940624 69.916664L62.534374 69.916664L62.534374 64.52604Q62.534374 63.58854 62.190624 63.11979Q61.846874 62.65104 61.065624 62.65104Q60.471874 62.65104 59.971874 62.96354Q59.471874 63.27604 59.2375 63.885414Q59.01875 64.479164 59.01875 65.604164L59.01875 69.916664L57.6125 69.916664ZM76.01875 68.885414Q75.2375 69.55729 74.51875 69.83854Q73.8 70.104164 72.97188 70.104164Q71.59688 70.104164 70.8625 69.43229Q70.12813 68.760414 70.12813 67.729164Q70.12813 67.11979 70.40938 66.61979Q70.69063 66.104164 71.12813 65.80729Q71.58125 65.49479 72.14375 65.33854Q72.56563 65.229164 73.39375 65.135414Q75.09688 64.93229 75.90938 64.65104Q75.90938 64.354164 75.90938 64.27604Q75.90938 63.416664 75.51875 63.072914Q74.97188 62.58854 73.90938 62.58854Q72.925 62.58854 72.44063 62.947914Q71.97188 63.291664 71.75313 64.166664L70.37813 63.979164Q70.56563 63.104164 70.9875 62.55729Q71.425 62.010414 72.2375 61.729164Q73.05 61.43229 74.1125 61.43229Q75.175 61.43229 75.83125 61.68229Q76.50313 61.93229 76.81563 62.30729Q77.12813 62.68229 77.25313 63.260414Q77.33125 63.61979 77.33125 64.55729L77.33125 66.43229Q77.33125 68.40104 77.40938 68.916664Q77.50313 69.43229 77.76875 69.916664L76.3 69.916664Q76.08125 69.479164 76.01875 68.885414ZM75.90938 65.74479Q75.14375 66.05729 73.6125 66.27604Q72.7375 66.40104 72.37813 66.55729Q72.01875 66.71354 71.81563 67.02604Q71.62813 67.322914 71.62813 67.68229Q71.62813 68.24479 72.05 68.61979Q72.4875 68.99479 73.3 68.99479Q74.1125 68.99479 74.7375 68.65104Q75.37813 68.291664 75.675 67.666664Q75.90938 67.197914 75.90938 66.260414L75.90938 65.74479ZM82.675 68.65104L82.87813 69.90104Q82.28438 70.02604 81.81563 70.02604Q81.05 70.02604 80.62813 69.791664Q80.20625 69.541664 80.03438 69.15104Q79.8625 68.74479 79.8625 67.479164L79.8625 62.71354L78.83125 62.71354L78.83125 61.61979L79.8625 61.61979L79.8625 59.55729L81.26875 58.71354L81.26875 61.61979L82.675 61.61979L82.675 62.71354L81.26875 62.71354L81.26875 67.55729Q81.26875 68.166664 81.33125 68.33854Q81.40938 68.510414 81.58125 68.61979Q81.75313 68.71354 82.06563 68.71354Q82.3 68.71354 82.675 68.65104ZM83.6125 60.072914L83.6125 58.46354L85.01875 58.46354L85.01875 60.072914L83.6125 60.072914ZM83.6125 69.916664L83.6125 61.61979L85.01875 61.61979L85.01875 69.916664L83.6125 69.916664ZM93.01875 66.86979L94.40938 67.05729Q94.175 68.479164 93.2375 69.291664Q92.31563 70.104164 90.95625 70.104164Q89.25313 70.104164 88.20625 68.99479Q87.175 67.86979 87.175 65.791664Q87.175 64.447914 87.6125 63.447914Q88.06563 62.43229 88.97188 61.93229Q89.89375 61.43229 90.95625 61.43229Q92.31563 61.43229 93.175 62.11979Q94.03438 62.791664 94.26875 64.05729L92.90938 64.260414Q92.70625 63.43229 92.20625 63.010414Q91.72188 62.58854 91.01875 62.58854Q89.95625 62.58854 89.28438 63.354164Q88.62813 64.104164 88.62813 65.760414Q88.62813 67.43229 89.26875 68.197914Q89.90938 68.947914 90.94063 68.947914Q91.76875 68.947914 92.31563 68.447914Q92.87813 67.93229 93.01875 66.86979Z" fill-rule="nonzero"/><path fill="#9e9e9e" d="M26.6125 90.55729L26.6125 91.916664L19.034374 91.916664Q19.01875 91.40104 19.20625 90.93229Q19.4875 90.166664 20.128124 89.416664Q20.76875 88.666664 21.971874 87.68229Q23.83125 86.15104 24.4875 85.260414Q25.14375 84.354164 25.14375 83.55729Q25.14375 82.729164 24.55 82.15104Q23.95625 81.572914 22.9875 81.572914Q21.971874 81.572914 21.3625 82.18229Q20.753124 82.791664 20.753124 83.86979L19.3 83.729164Q19.45625 82.104164 20.425 81.260414Q21.39375 80.416664 23.01875 80.416664Q24.675 80.416664 25.628124 81.33854Q26.596874 82.24479 26.596874 83.58854Q26.596874 84.27604 26.315624 84.947914Q26.034374 85.604164 25.378124 86.33854Q24.721874 87.072914 23.20625 88.354164Q21.940624 89.416664 21.58125 89.80729Q21.221874 90.18229 20.9875 90.55729L26.6125 90.55729ZM29.003124 91.916664L29.003124 90.30729L30.6125 90.30729L30.6125 91.916664L29.003124 91.916664ZM32.221874 86.260414Q32.221874 84.229164 32.628124 82.99479Q33.05 81.760414 33.878124 81.08854Q34.70625 80.416664 35.95625 80.416664Q36.878124 80.416664 37.565624 80.791664Q38.26875 81.15104 38.721874 81.854164Q39.175 82.55729 39.425 83.55729Q39.690624 84.55729 39.690624 86.260414Q39.690624 88.27604 39.26875 89.52604Q38.8625 90.760414 38.034374 91.447914Q37.20625 92.11979 35.95625 92.11979Q34.3 92.11979 33.346874 90.916664Q32.221874 89.49479 32.221874 86.260414ZM33.659374 86.260414Q33.659374 89.08854 34.315624 90.02604Q34.9875 90.947914 35.95625 90.947914Q36.925 90.947914 37.58125 90.010414Q38.2375 89.072914 38.2375 86.260414Q38.2375 83.43229 37.58125 82.510414Q36.925 81.572914 35.940624 81.572914Q34.971874 81.572914 34.39375 82.40104Q33.659374 83.447914 33.659374 86.260414ZM41.4875 83.21354Q41.4875 81.979164 42.096874 81.11979Q42.721874 80.260414 43.89375 80.260414Q44.971874 80.260414 45.675 81.041664Q46.378124 81.80729 46.378124 83.291664Q46.378124 84.74479 45.659374 85.541664Q44.95625 86.322914 43.909374 86.322914Q42.8625 86.322914 42.175 85.55729Q41.4875 84.77604 41.4875 83.21354ZM43.925 81.229164Q43.409374 81.229164 43.05 81.68229Q42.70625 82.135414 42.70625 83.354164Q42.70625 84.447914 43.05 84.90104Q43.409374 85.354164 43.925 85.354164Q44.45625 85.354164 44.8 84.90104Q45.159374 84.447914 45.159374 83.24479Q45.159374 82.135414 44.8 81.68229Q44.45625 81.229164 43.925 81.229164ZM43.940624 92.33854L50.20625 80.260414L51.346874 80.260414L45.096874 92.33854L43.940624 92.33854ZM48.89375 89.229164Q48.89375 87.99479 49.503124 87.135414Q50.128124 86.27604 51.3 86.27604Q52.378124 86.27604 53.08125 87.05729Q53.8 87.822914 53.8 89.30729Q53.8 90.760414 53.08125 91.55729Q52.3625 92.33854 51.315624 92.33854Q50.26875 92.33854 49.58125 91.55729Q48.89375 90.77604 48.89375 89.229164ZM51.346874 87.24479Q50.815624 87.24479 50.45625 87.697914Q50.1125 88.15104 50.1125 89.36979Q50.1125 90.46354 50.45625 90.916664Q50.815624 91.36979 51.33125 91.36979Q51.878124 91.36979 52.221874 90.916664Q52.565624 90.46354 52.565624 89.260414Q52.565624 88.15104 52.20625 87.697914Q51.8625 87.24479 51.346874 87.24479Z" fill-rule="nonzero"/><path stroke="#757575" stroke-width="1.0" stroke-linecap="butt" d="M18.55 75.416664L145.23334 75.416664L291.2997 62.623055" fill-rule="nonzero"/><path fill="#9e9e9e" d="M293.2997 62.623055C293.2997 61.518482 292.40427 60.623055 291.2997 60.623055C290.19513 60.623055 289.2997 61.518482 289.2997 62.623055C289.2997 63.727623 290.19513 64.623055 291.2997 64.623055C292.40427 64.623055 293.2997 63.727623 293.2997 62.623055" fill-rule="nonzero"/><path fill="#efefef" d="M19.815624 110.916664L19.815624 99.46354L24.89375 99.46354Q26.425 99.46354 27.221874 99.77604Q28.01875 100.072914 28.4875 100.854164Q28.971874 101.635414 28.971874 102.58854Q28.971874 103.80729 28.175 104.65104Q27.39375 105.479164 25.7375 105.697914Q26.346874 105.99479 26.659374 106.27604Q27.315624 106.885414 27.909374 107.791664L29.909374 110.916664L28.003124 110.916664L26.4875 108.52604Q25.815624 107.49479 25.378124 106.947914Q24.95625 106.40104 24.6125 106.18229Q24.284374 105.96354 23.925 105.885414Q23.675 105.822914 23.08125 105.822914L21.33125 105.822914L21.33125 110.916664L19.815624 110.916664ZM21.33125 104.510414L24.58125 104.510414Q25.628124 104.510414 26.20625 104.30729Q26.8 104.08854 27.096874 103.61979Q27.409374 103.135414 27.409374 102.58854Q27.409374 101.77604 26.815624 101.260414Q26.221874 100.729164 24.95625 100.729164L21.33125 100.729164L21.33125 104.510414ZM37.284374 108.24479L38.7375 108.416664Q38.39375 109.697914 37.45625 110.40104Q36.534374 111.104164 35.096874 111.104164Q33.26875 111.104164 32.20625 109.979164Q31.14375 108.854164 31.14375 106.83854Q31.14375 104.74479 32.221874 103.58854Q33.3 102.43229 35.01875 102.43229Q36.675 102.43229 37.721874 103.572914Q38.784374 104.697914 38.784374 106.74479Q38.784374 106.86979 38.784374 107.11979L32.596874 107.11979Q32.675 108.49479 33.3625 109.229164Q34.065624 109.947914 35.096874 109.947914Q35.878124 109.947914 36.425 109.541664Q36.971874 109.135414 37.284374 108.24479ZM32.675 105.96354L37.3 105.96354Q37.20625 104.916664 36.76875 104.40104Q36.096874 103.58854 35.034374 103.58854Q34.065624 103.58854 33.39375 104.24479Q32.7375 104.885414 32.675 105.96354ZM40.58125 110.916664L40.58125 99.46354L41.9875 99.46354L41.9875 110.916664L40.58125 110.916664ZM44.6125 101.072914L44.6125 99.46354L46.01875 99.46354L46.01875 101.072914L44.6125 101.072914ZM44.6125 110.916664L44.6125 102.61979L46.01875 102.61979L46.01875 110.916664L44.6125 110.916664ZM48.346874 111.604164L49.721874 111.80729Q49.8 112.447914 50.190624 112.729164Q50.721874 113.11979 51.628124 113.11979Q52.596874 113.11979 53.128124 112.729164Q53.659374 112.33854 53.846874 111.635414Q53.95625 111.21354 53.95625 109.822914Q53.034374 110.916664 51.659374 110.916664Q49.940624 110.916664 49.003124 109.68229Q48.065624 108.447914 48.065624 106.71354Q48.065624 105.52604 48.4875 104.52604Q48.925 103.52604 49.7375 102.979164Q50.565624 102.43229 51.659374 102.43229Q53.128124 102.43229 54.08125 103.61979L54.08125 102.61979L55.378124 102.61979L55.378124 109.791664Q55.378124 111.729164 54.9875 112.541664Q54.596874 113.354164 53.7375 113.822914Q52.878124 114.291664 51.628124 114.291664Q50.14375 114.291664 49.221874 113.61979Q48.315624 112.947914 48.346874 111.604164ZM49.51875 106.61979Q49.51875 108.24479 50.159374 108.99479Q50.815624 109.74479 51.784374 109.74479Q52.753124 109.74479 53.409374 109.010414Q54.065624 108.260414 54.065624 106.666664Q54.065624 105.135414 53.39375 104.36979Q52.721874 103.58854 51.76875 103.58854Q50.83125 103.58854 50.175 104.354164Q49.51875 105.11979 49.51875 106.61979ZM57.6125 101.072914L57.6125 99.46354L59.01875 99.46354L59.01875 101.072914L57.6125 101.072914ZM57.6125 110.916664L57.6125 102.61979L59.01875 102.61979L59.01875 110.916664L57.6125 110.916664ZM61.08125 106.760414Q61.08125 104.46354 62.3625 103.354164Q63.440624 102.43229 64.97188 102.43229Q66.69063 102.43229 67.76875 103.55729Q68.8625 104.666664 68.8625 106.65104Q68.8625 108.24479 68.37813 109.166664Q67.89375 110.08854 66.97188 110.604164Q66.06563 111.104164 64.97188 111.104164Q63.2375 111.104164 62.159374 109.99479Q61.08125 108.86979 61.08125 106.760414ZM62.534374 106.760414Q62.534374 108.354164 63.221874 109.15104Q63.925 109.947914 64.97188 109.947914Q66.01875 109.947914 66.70625 109.15104Q67.40938 108.354164 67.40938 106.71354Q67.40938 105.18229 66.70625 104.385414Q66.01875 103.58854 64.97188 103.58854Q63.925 103.58854 63.221874 104.385414Q62.534374 105.166664 62.534374 106.760414ZM76.05 110.916664L76.05 109.697914Q75.08125 111.104164 73.40938 111.104164Q72.675 111.104164 72.03438 110.822914Q71.40938 110.541664 71.09688 110.11979Q70.78438 109.68229 70.65938 109.072914Q70.58125 108.65104 70.58125 107.760414L70.58125 102.61979L71.9875 102.61979L71.9875 107.21354Q71.9875 108.322914 72.06563 108.697914Q72.20625 109.260414 72.62813 109.572914Q73.06563 109.885414 73.69063 109.885414Q74.33125 109.885414 74.87813 109.572914Q75.44063 109.24479 75.65938 108.68229Q75.89375 108.11979 75.89375 107.05729L75.89375 102.61979L77.3 102.61979L77.3 110.916664L76.05 110.916664ZM79.05 108.43229L80.44063 108.21354Q80.55 109.05729 81.08125 109.510414Q81.62813 109.947914 82.58125 109.947914Q83.55 109.947914 84.01875 109.55729Q84.4875 109.15104 84.4875 108.61979Q84.4875 108.15104 84.08125 107.86979Q83.78438 107.68229 82.64375 107.40104Q81.09688 107.010414 80.4875 106.729164Q79.89375 106.43229 79.58125 105.93229Q79.28438 105.43229 79.28438 104.822914Q79.28438 104.260414 79.53438 103.791664Q79.78438 103.322914 80.22188 103.010414Q80.55 102.760414 81.1125 102.604164Q81.69063 102.43229 82.33125 102.43229Q83.31563 102.43229 84.05 102.71354Q84.78438 102.99479 85.12813 103.479164Q85.4875 103.947914 85.62813 104.760414L84.25313 104.947914Q84.15938 104.30729 83.70625 103.947914Q83.25313 103.58854 82.44063 103.58854Q81.47188 103.58854 81.05 103.916664Q80.64375 104.229164 80.64375 104.65104Q80.64375 104.93229 80.81563 105.15104Q80.9875 105.36979 81.34688 105.52604Q81.56563 105.604164 82.59688 105.885414Q84.08125 106.27604 84.675 106.541664Q85.26875 106.791664 85.59688 107.27604Q85.94063 107.760414 85.94063 108.479164Q85.94063 109.18229 85.51875 109.80729Q85.1125 110.416664 84.33125 110.760414Q83.56563 111.104164 82.59688 111.104164Q80.97188 111.104164 80.12813 110.43229Q79.28438 109.760414 79.05 108.43229Z" fill-rule="nonzero"/><path fill="#9e9e9e" d="M26.51875 124.26042L25.1125 124.3698Q24.925 123.54167 24.58125 123.16667Q24.01875 122.57292 23.175 122.57292Q22.503124 122.57292 22.003124 122.94792Q21.33125 123.4323 20.940624 124.3698Q20.565624 125.29167 20.55 127.01042Q21.065624 126.22917 21.8 125.85417Q22.534374 125.47917 23.33125 125.47917Q24.7375 125.47917 25.721874 126.52605Q26.721874 127.5573 26.721874 129.19792Q26.721874 130.27605 26.253124 131.19792Q25.784374 132.1198 24.971874 132.6198Q24.159374 133.1198 23.128124 133.1198Q21.378124 133.1198 20.26875 131.82292Q19.159374 130.52605 19.159374 127.5573Q19.159374 124.22917 20.378124 122.72917Q21.45625 121.41667 23.26875 121.41667Q24.6125 121.41667 25.471874 122.1823Q26.346874 122.9323 26.51875 124.26042ZM20.76875 129.19792Q20.76875 129.9323 21.08125 130.60417Q21.39375 131.26042 21.940624 131.60417Q22.503124 131.94792 23.1125 131.94792Q24.003124 131.94792 24.64375 131.22917Q25.284374 130.51042 25.284374 129.27605Q25.284374 128.08855 24.64375 127.41667Q24.01875 126.72917 23.05 126.72917Q22.096874 126.72917 21.425 127.41667Q20.76875 128.08855 20.76875 129.19792ZM29.003124 132.91667L29.003124 131.3073L30.6125 131.3073L30.6125 132.91667L29.003124 132.91667ZM32.425 130.26042L33.784374 130.13542Q33.95625 131.08855 34.440624 131.52605Q34.925 131.94792 35.675 131.94792Q36.33125 131.94792 36.815624 131.65105Q37.3 131.35417 37.6125 130.8698Q37.925 130.3698 38.128124 129.52605Q38.346874 128.6823 38.346874 127.8073Q38.346874 127.71355 38.346874 127.52605Q37.925 128.19792 37.190624 128.6198Q36.45625 129.02605 35.6125 129.02605Q34.190624 129.02605 33.20625 127.9948Q32.221874 126.96355 32.221874 125.27605Q32.221874 123.54167 33.2375 122.47917Q34.26875 121.41667 35.815624 121.41667Q36.940624 121.41667 37.8625 122.02605Q38.784374 122.6198 39.26875 123.72917Q39.753124 124.83855 39.753124 126.94792Q39.753124 129.15105 39.26875 130.44792Q38.8 131.7448 37.846874 132.4323Q36.909374 133.1198 35.64375 133.1198Q34.3 133.1198 33.440624 132.3698Q32.596874 131.6198 32.425 130.26042ZM38.190624 125.21355Q38.190624 123.9948 37.534374 123.29167Q36.89375 122.57292 35.9875 122.57292Q35.05 122.57292 34.346874 123.33855Q33.659374 124.10417 33.659374 125.32292Q33.659374 126.41667 34.315624 127.10417Q34.9875 127.79167 35.95625 127.79167Q36.925 127.79167 37.55 127.10417Q38.190624 126.41667 38.190624 125.21355ZM41.4875 124.21355Q41.4875 122.97917 42.096874 122.1198Q42.721874 121.26042 43.89375 121.26042Q44.971874 121.26042 45.675 122.04167Q46.378124 122.8073 46.378124 124.29167Q46.378124 125.7448 45.659374 126.54167Q44.95625 127.32292 43.909374 127.32292Q42.8625 127.32292 42.175 126.5573Q41.4875 125.77605 41.4875 124.21355ZM43.925 122.22917Q43.409374 122.22917 43.05 122.6823Q42.70625 123.13542 42.70625 124.35417Q42.70625 125.44792 43.05 125.90105Q43.409374 126.35417 43.925 126.35417Q44.45625 126.35417 44.8 125.90105Q45.159374 125.44792 45.159374 124.2448Q45.159374 123.13542 44.8 122.6823Q44.45625 122.22917 43.925 122.22917ZM43.940624 133.33855L50.20625 121.26042L51.346874 121.26042L45.096874 133.33855L43.940624 133.33855ZM48.89375 130.22917Q48.89375 128.9948 49.503124 128.13542Q50.128124 127.27605 51.3 127.27605Q52.378124 127.27605 53.08125 128.0573Q53.8 128.82292 53.8 130.3073Q53.8 131.76042 53.08125 132.5573Q52.3625 133.33855 51.315624 133.33855Q50.26875 133.33855 49.58125 132.5573Q48.89375 131.77605 48.89375 130.22917ZM51.346874 128.2448Q50.815624 128.2448 50.45625 128.69792Q50.1125 129.15105 50.1125 130.3698Q50.1125 131.46355 50.45625 131.91667Q50.815624 132.3698 51.33125 132.3698Q51.878124 132.3698 52.221874 131.91667Q52.565624 131.46355 52.565624 130.26042Q52.565624 129.15105 52.20625 128.69792Q51.8625 128.2448 51.346874 128.2448Z" fill-rule="nonzero"/><path stroke="#757575" stroke-width="1.0" stroke-linecap="butt" d="M18.55 116.416664L145.23334 116.416664L244.91222 73.533295" fill-rule="nonzero"/><path fill="#9e9e9e" d="M246.91222 73.533295C246.91222 72.42872 246.01678 71.533295 244.91222 71.533295C243.80765 71.533295 242.91222 72.42872 242.91222 73.533295C242.91222 74.63786 243.80765 75.533295 244.91222 75.533295C246.01678 75.533295 246.91222 74.63786 246.91222 73.533295" fill-rule="nonzero"/><path fill="#efefef" d="M27.95625 257.16318L29.471874 257.53818Q29.003124 259.41318 27.753124 260.39755Q26.51875 261.38193 24.7375 261.38193Q22.878124 261.38193 21.721874 260.63193Q20.565624 259.8663 19.95625 258.44443Q19.346874 257.00693 19.346874 255.3663Q19.346874 253.56943 20.034374 252.2413Q20.721874 250.91318 21.971874 250.22568Q23.2375 249.52255 24.753124 249.52255Q26.471874 249.52255 27.64375 250.39755Q28.815624 251.27255 29.284374 252.8663L27.784374 253.21005Q27.39375 251.96005 26.628124 251.39755Q25.878124 250.81943 24.721874 250.81943Q23.409374 250.81943 22.51875 251.46005Q21.628124 252.08505 21.26875 253.16318Q20.909374 254.22568 20.909374 255.35068Q20.909374 256.81943 21.33125 257.91318Q21.76875 258.9913 22.659374 259.53818Q23.565624 260.06943 24.6125 260.06943Q25.878124 260.06943 26.753124 259.33505Q27.64375 258.60068 27.95625 257.16318ZM37.05 261.1788L37.05 259.96005Q36.08125 261.3663 34.409374 261.3663Q33.675 261.3663 33.034374 261.08505Q32.409374 260.8038 32.096874 260.38193Q31.784374 259.94443 31.659374 259.33505Q31.58125 258.91318 31.58125 258.02255L31.58125 252.88193L32.9875 252.88193L32.9875 257.47568Q32.9875 258.58505 33.065624 258.96005Q33.20625 259.52255 33.628124 259.83505Q34.065624 260.14755 34.690624 260.14755Q35.33125 260.14755 35.878124 259.83505Q36.440624 259.50693 36.659374 258.94443Q36.89375 258.38193 36.89375 257.31943L36.89375 252.88193L38.3 252.88193L38.3 261.1788L37.05 261.1788ZM40.58125 261.1788L40.58125 249.72568L41.9875 249.72568L41.9875 261.1788L40.58125 261.1788ZM47.675 259.91318L47.878124 261.16318Q47.284374 261.28818 46.815624 261.28818Q46.05 261.28818 45.628124 261.0538Q45.20625 260.8038 45.034374 260.41318Q44.8625 260.00693 44.8625 258.7413L44.8625 253.97568L43.83125 253.97568L43.83125 252.88193L44.8625 252.88193L44.8625 250.81943L46.26875 249.97568L46.26875 252.88193L47.675 252.88193L47.675 253.97568L46.26875 253.97568L46.26875 258.81943Q46.26875 259.4288 46.33125 259.60068Q46.409374 259.77255 46.58125 259.88193Q46.753124 259.97568 47.065624 259.97568Q47.3 259.97568 47.675 259.91318ZM54.05 261.1788L54.05 259.96005Q53.08125 261.3663 51.409374 261.3663Q50.675 261.3663 50.034374 261.08505Q49.409374 260.8038 49.096874 260.38193Q48.784374 259.94443 48.659374 259.33505Q48.58125 258.91318 48.58125 258.02255L48.58125 252.88193L49.9875 252.88193L49.9875 257.47568Q49.9875 258.58505 50.065624 258.96005Q50.20625 259.52255 50.628124 259.83505Q51.065624 260.14755 51.690624 260.14755Q52.33125 260.14755 52.878124 259.83505Q53.440624 259.50693 53.659374 258.94443Q53.89375 258.38193 53.89375 257.31943L53.89375 252.88193L55.3 252.88193L55.3 261.1788L54.05 261.1788ZM57.596874 261.1788L57.596874 252.88193L58.8625 252.88193L58.8625 254.13193Q59.346874 253.25693 59.753124 252.97568Q60.159374 252.69443 60.659374 252.69443Q61.3625 252.69443 62.096874 253.14755L61.6125 254.44443Q61.096874 254.14755 60.58125 254.14755Q60.128124 254.14755 59.753124 254.4288Q59.39375 254.69443 59.2375 255.19443Q59.003124 255.94443 59.003124 256.83505L59.003124 261.1788L57.596874 261.1788ZM68.01875 260.14755Q67.2375 260.81943 66.51875 261.10068Q65.8 261.3663 64.97188 261.3663Q63.596874 261.3663 62.8625 260.69443Q62.128124 260.02255 62.128124 258.9913Q62.128124 258.38193 62.409374 257.88193Q62.690624 257.3663 63.128124 257.06943Q63.58125 256.75693 64.14375 256.60068Q64.56563 256.4913 65.39375 256.39755Q67.09688 256.19443 67.90938 255.91318Q67.90938 255.6163 67.90938 255.53818Q67.90938 254.6788 67.51875 254.33505Q66.97188 253.85068 65.90938 253.85068Q64.925 253.85068 64.44063 254.21005Q63.971874 254.5538 63.753124 255.4288L62.378124 255.2413Q62.565624 254.3663 62.9875 253.81943Q63.425 253.27255 64.2375 252.9913Q65.05 252.69443 66.1125 252.69443Q67.175 252.69443 67.83125 252.94443Q68.50313 253.19443 68.81563 253.56943Q69.12813 253.94443 69.25313 254.52255Q69.33125 254.88193 69.33125 255.81943L69.33125 257.69443Q69.33125 259.66318 69.40938 260.1788Q69.50313 260.69443 69.76875 261.1788L68.3 261.1788Q68.08125 260.7413 68.01875 260.14755ZM67.90938 257.00693Q67.14375 257.31943 65.6125 257.53818Q64.7375 257.66318 64.37813 257.81943Q64.01875 257.97568 63.815624 258.28818Q63.628124 258.58505 63.628124 258.94443Q63.628124 259.50693 64.05 259.88193Q64.4875 260.25693 65.3 260.25693Q66.1125 260.25693 66.7375 259.91318Q67.37813 259.5538 67.675 258.9288Q67.90938 258.46005 67.90938 257.52255L67.90938 257.00693ZM71.58125 261.1788L71.58125 249.72568L72.9875 249.72568L72.9875 261.1788L71.58125 261.1788ZM78.51875 261.1788L82.925 249.72568L84.56563 249.72568L89.25313 261.1788L87.51875 261.1788L86.19063 257.71005L81.39375 257.71005L80.14375 261.1788L78.51875 261.1788ZM81.83125 256.47568L85.72188 256.47568L84.51875 253.3038Q83.97188 251.85068 83.70625 250.9288Q83.4875 252.02255 83.09688 253.1163L81.83125 256.47568ZM96.01875 258.13193L97.40938 258.31943Q97.175 259.7413 96.2375 260.5538Q95.31563 261.3663 93.95625 261.3663Q92.25313 261.3663 91.20625 260.25693Q90.175 259.13193 90.175 257.0538Q90.175 255.71005 90.6125 254.71005Q91.06563 253.69443 91.97188 253.19443Q92.89375 252.69443 93.95625 252.69443Q95.31563 252.69443 96.175 253.38193Q97.03438 254.0538 97.26875 255.31943L95.90938 255.52255Q95.70625 254.69443 95.20625 254.27255Q94.72188 253.85068 94.01875 253.85068Q92.95625 253.85068 92.28438 254.6163Q91.62813 255.3663 91.62813 257.02255Q91.62813 258.69443 92.26875 259.46005Q92.90938 260.21005 93.94063 260.21005Q94.76875 260.21005 95.31563 259.71005Q95.87813 259.19443 96.01875 258.13193ZM101.675 259.91318L101.87813 261.16318Q101.28438 261.28818 100.81563 261.28818Q100.05 261.28818 99.62813 261.0538Q99.20625 260.8038 99.03438 260.41318Q98.8625 260.00693 98.8625 258.7413L98.8625 253.97568L97.83125 253.97568L97.83125 252.88193L98.8625 252.88193L98.8625 250.81943L100.26875 249.97568L100.26875 252.88193L101.675 252.88193L101.675 253.97568L100.26875 253.97568L100.26875 258.81943Q100.26875 259.4288 100.33125 259.60068Q100.40938 259.77255 100.58125 259.88193Q100.75313 259.97568 101.06563 259.97568Q101.3 259.97568 101.675 259.91318ZM102.05 258.69443L103.44063 258.47568Q103.55 259.31943 104.08125 259.77255Q104.62813 260.21005 105.58125 260.21005Q106.55 260.21005 107.01875 259.81943Q107.4875 259.41318 107.4875 258.88193Q107.4875 258.41318 107.08125 258.13193Q106.78438 257.94443 105.64375 257.66318Q104.09688 257.27255 103.4875 256.9913Q102.89375 256.69443 102.58125 256.19443Q102.28438 255.69443 102.28438 255.08505Q102.28438 254.52255 102.53438 254.0538Q102.78438 253.58505 103.22188 253.27255Q103.55 253.02255 104.1125 252.8663Q104.69063 252.69443 105.33125 252.69443Q106.31563 252.69443 107.05 252.97568Q107.78438 253.25693 108.12813 253.7413Q108.4875 254.21005 108.62813 255.02255L107.25313 255.21005Q107.15938 254.56943 106.70625 254.21005Q106.25313 253.85068 105.44063 253.85068Q104.47188 253.85068 104.05 254.1788Q103.64375 254.4913 103.64375 254.91318Q103.64375 255.19443 103.81563 255.41318Q103.9875 255.63193 104.34688 255.78818Q104.56563 255.8663 105.59688 256.14755Q107.08125 256.53818 107.675 256.8038Q108.26875 257.0538 108.59688 257.53818Q108.94063 258.02255 108.94063 258.7413Q108.94063 259.44443 108.51875 260.06943Q108.1125 260.6788 107.33125 261.02255Q106.56563 261.3663 105.59688 261.3663Q103.97188 261.3663 103.12813 260.69443Q102.28438 260.02255 102.05 258.69443ZM111.00313 261.1788L111.00313 259.56943L112.6125 259.56943L112.6125 261.1788L111.00313 261.1788Z" fill-rule="nonzero"/><path fill="#9e9e9e" d="M23.721874 283.1788L23.721874 280.4288L18.753124 280.4288L18.753124 279.14755L23.9875 271.72568L25.128124 271.72568L25.128124 279.14755L26.675 279.14755L26.675 280.4288L25.128124 280.4288L25.128124 283.1788L23.721874 283.1788ZM23.721874 279.14755L23.721874 273.97568L20.14375 279.14755L23.721874 279.14755ZM28.221874 280.1788L29.690624 280.0538Q29.8625 281.13193 30.45625 281.6788Q31.05 282.21005 31.89375 282.21005Q32.909374 282.21005 33.6125 281.44443Q34.315624 280.6788 34.315624 279.41318Q34.315624 278.21005 33.64375 277.52255Q32.971874 276.81943 31.878124 276.81943Q31.190624 276.81943 30.64375 277.13193Q30.096874 277.44443 29.784374 277.9288L28.471874 277.75693L29.58125 271.88193L35.26875 271.88193L35.26875 273.22568L30.70625 273.22568L30.08125 276.3038Q31.1125 275.58505 32.253124 275.58505Q33.753124 275.58505 34.784374 276.63193Q35.815624 277.66318 35.815624 279.28818Q35.815624 280.85068 34.909374 281.97568Q33.8 283.38193 31.89375 283.38193Q30.33125 283.38193 29.346874 282.50693Q28.3625 281.6163 28.221874 280.1788ZM38.003124 283.1788L38.003124 281.56943L39.6125 281.56943L39.6125 283.1788L38.003124 283.1788ZM46.51875 283.1788L45.1125 283.1788L45.1125 274.21005Q44.596874 274.69443 43.76875 275.1788Q42.95625 275.66318 42.3 275.91318L42.3 274.5538Q43.471874 273.9913 44.346874 273.21005Q45.2375 272.41318 45.6125 271.6788L46.51875 271.6788L46.51875 283.1788ZM50.4875 274.47568Q50.4875 273.2413 51.096874 272.38193Q51.721874 271.52255 52.89375 271.52255Q53.971874 271.52255 54.675 272.3038Q55.378124 273.06943 55.378124 274.5538Q55.378124 276.00693 54.659374 276.8038Q53.95625 277.58505 52.909374 277.58505Q51.8625 277.58505 51.175 276.81943Q50.4875 276.03818 50.4875 274.47568ZM52.925 272.4913Q52.409374 272.4913 52.05 272.94443Q51.70625 273.39755 51.70625 274.6163Q51.70625 275.71005 52.05 276.16318Q52.409374 276.6163 52.925 276.6163Q53.45625 276.6163 53.8 276.16318Q54.159374 275.71005 54.159374 274.50693Q54.159374 273.39755 53.8 272.94443Q53.45625 272.4913 52.925 272.4913ZM52.940624 283.60068L59.20625 271.52255L60.346874 271.52255L54.096874 283.60068L52.940624 283.60068ZM57.89375 280.4913Q57.89375 279.25693 58.503124 278.39755Q59.128124 277.53818 60.3 277.53818Q61.378124 277.53818 62.08125 278.31943Q62.8 279.08505 62.8 280.56943Q62.8 282.02255 62.08125 282.81943Q61.3625 283.60068 60.315624 283.60068Q59.26875 283.60068 58.58125 282.81943Q57.89375 282.03818 57.89375 280.4913ZM60.346874 278.50693Q59.815624 278.50693 59.45625 278.96005Q59.1125 279.41318 59.1125 280.63193Q59.1125 281.72568 59.45625 282.1788Q59.815624 282.63193 60.33125 282.63193Q60.878124 282.63193 61.221874 282.1788Q61.565624 281.72568 61.565624 280.52255Q61.565624 279.41318 61.20625 278.96005Q60.8625 278.50693 60.346874 278.50693Z" fill-rule="nonzero"/><path stroke="#757575" stroke-width="1.0" stroke-linecap="butt" d="M18.55 266.6788L145.23334 266.6788L173.48807 266.6788" fill-rule="nonzero"/><path fill="#9e9e9e" d="M175.48807 266.6788C175.48807 265.57422 174.59264 264.6788 173.48807 264.6788C172.3835 264.6788 171.48807 265.57422 171.48807 266.6788C171.48807 267.78336 172.3835 268.6788 173.48807 268.6788C174.59264 268.6788 175.48807 267.78336 175.48807 266.6788" fill-rule="nonzero"/><path fill="#efefef" d="M481.71564 176.50475L481.71564 165.05162L489.9969 165.05162L489.9969 166.39537L483.23126 166.39537L483.23126 169.911L489.575 169.911L489.575 171.25475L483.23126 171.25475L483.23126 175.14537L490.2625 175.14537L490.2625 176.50475L481.71564 176.50475ZM495.575 175.23912L495.77814 176.48912Q495.1844 176.61412 494.71564 176.61412Q493.95 176.61412 493.52814 176.37975Q493.10626 176.12975 492.9344 175.73912Q492.7625 175.33287 492.7625 174.06725L492.7625 169.30162L491.73126 169.30162L491.73126 168.20787L492.7625 168.20787L492.7625 166.14537L494.16876 165.30162L494.16876 168.20787L495.575 168.20787L495.575 169.30162L494.16876 169.30162L494.16876 174.14537Q494.16876 174.75475 494.23126 174.92662Q494.3094 175.0985 494.48126 175.20787Q494.65314 175.30162 494.96564 175.30162Q495.2 175.30162 495.575 175.23912ZM496.5125 176.50475L496.5125 165.05162L497.91876 165.05162L497.91876 169.161Q498.90314 168.02037 500.40314 168.02037Q501.325 168.02037 501.9969 168.37975Q502.6844 168.73912 502.96564 169.37975Q503.2625 170.02037 503.2625 171.23912L503.2625 176.50475L501.85626 176.50475L501.85626 171.23912Q501.85626 170.19225 501.40314 169.70787Q500.95 169.2235 500.10626 169.2235Q499.48126 169.2235 498.9344 169.55162Q498.3875 169.87975 498.15314 170.44225Q497.91876 170.98912 497.91876 171.95787L497.91876 176.50475L496.5125 176.50475ZM505.5125 176.50475L505.5125 168.20787L506.77814 168.20787L506.77814 169.37975Q507.6844 168.02037 509.41876 168.02037Q510.16876 168.02037 510.79376 168.286Q511.41876 168.55162 511.73126 168.98912Q512.04376 169.42662 512.16876 170.036Q512.2469 170.42662 512.2469 171.39537L512.2469 176.50475L510.84064 176.50475L510.84064 171.45787Q510.84064 170.5985 510.66876 170.17662Q510.5125 169.73912 510.09064 169.48912Q509.6844 169.23912 509.1219 169.23912Q508.21564 169.23912 507.5594 169.81725Q506.91876 170.37975 506.91876 171.9735L506.91876 176.50475L505.5125 176.50475ZM514.5125 166.661L514.5125 165.05162L515.91876 165.05162L515.91876 166.661L514.5125 166.661ZM514.5125 176.50475L514.5125 168.20787L515.91876 168.20787L515.91876 176.50475L514.5125 176.50475ZM523.91876 173.45787L525.3094 173.64537Q525.075 175.06725 524.1375 175.87975Q523.21564 176.69225 521.85626 176.69225Q520.15314 176.69225 519.10626 175.58287Q518.075 174.45787 518.075 172.37975Q518.075 171.036 518.5125 170.036Q518.96564 169.02037 519.8719 168.52037Q520.79376 168.02037 521.85626 168.02037Q523.21564 168.02037 524.075 168.70787Q524.9344 169.37975 525.16876 170.64537L523.8094 170.8485Q523.60626 170.02037 523.10626 169.5985Q522.6219 169.17662 521.91876 169.17662Q520.85626 169.17662 520.1844 169.94225Q519.52814 170.69225 519.52814 172.3485Q519.52814 174.02037 520.16876 174.786Q520.8094 175.536 521.84064 175.536Q522.66876 175.536 523.21564 175.036Q523.77814 174.52037 523.91876 173.45787ZM536.04376 172.00475L536.04376 170.661L540.90314 170.661L540.90314 174.911Q539.77814 175.80162 538.59064 176.25475Q537.40314 176.70787 536.15314 176.70787Q534.46564 176.70787 533.09064 175.98912Q531.71564 175.25475 531.0125 173.89537Q530.3094 172.52037 530.3094 170.83287Q530.3094 169.161 530.9969 167.70787Q531.7 166.25475 533.0125 165.55162Q534.325 164.8485 536.04376 164.8485Q537.27814 164.8485 538.27814 165.25475Q539.29376 165.661 539.85626 166.37975Q540.4344 167.0985 540.73126 168.25475L539.35626 168.62975Q539.10626 167.75475 538.71564 167.25475Q538.34064 166.75475 537.6219 166.45787Q536.91876 166.14537 536.04376 166.14537Q535.0125 166.14537 534.2469 166.4735Q533.4969 166.786 533.02814 167.30162Q532.5594 167.81725 532.3094 168.42662Q531.8719 169.48912 531.8719 170.73912Q531.8719 172.27037 532.3875 173.30162Q532.91876 174.33287 533.91876 174.83287Q534.9344 175.33287 536.075 175.33287Q537.0594 175.33287 537.9969 174.95787Q538.9344 174.56725 539.41876 174.14537L539.41876 172.00475L536.04376 172.00475ZM542.4969 176.50475L542.4969 168.20787L543.7625 168.20787L543.7625 169.45787Q544.2469 168.58287 544.65314 168.30162Q545.0594 168.02037 545.5594 168.02037Q546.2625 168.02037 546.9969 168.4735L546.5125 169.77037Q545.9969 169.4735 545.48126 169.4735Q545.02814 169.4735 544.65314 169.75475Q544.29376 170.02037 544.1375 170.52037Q543.90314 171.27037 543.90314 172.161L543.90314 176.50475L542.4969 176.50475ZM546.98126 172.3485Q546.98126 170.05162 548.2625 168.94225Q549.34064 168.02037 550.8719 168.02037Q552.59064 168.02037 553.66876 169.14537Q554.7625 170.25475 554.7625 172.23912Q554.7625 173.83287 554.27814 174.75475Q553.79376 175.67662 552.8719 176.19225Q551.96564 176.69225 550.8719 176.69225Q549.1375 176.69225 548.0594 175.58287Q546.98126 174.45787 546.98126 172.3485ZM548.4344 172.3485Q548.4344 173.94225 549.1219 174.73912Q549.825 175.536 550.8719 175.536Q551.91876 175.536 552.60626 174.73912Q553.3094 173.94225 553.3094 172.30162Q553.3094 170.77037 552.60626 169.9735Q551.91876 169.17662 550.8719 169.17662Q549.825 169.17662 549.1219 169.9735Q548.4344 170.75475 548.4344 172.3485ZM561.95 176.50475L561.95 175.286Q560.98126 176.69225 559.3094 176.69225Q558.575 176.69225 557.9344 176.411Q557.3094 176.12975 556.9969 175.70787Q556.6844 175.27037 556.5594 174.661Q556.48126 174.23912 556.48126 173.3485L556.48126 168.20787L557.8875 168.20787L557.8875 172.80162Q557.8875 173.911 557.96564 174.286Q558.10626 174.8485 558.52814 175.161Q558.96564 175.4735 559.59064 175.4735Q560.23126 175.4735 560.77814 175.161Q561.34064 174.83287 561.5594 174.27037Q561.79376 173.70787 561.79376 172.64537L561.79376 168.20787L563.2 168.20787L563.2 176.50475L561.95 176.50475ZM565.5125 179.69225L565.5125 168.20787L566.79376 168.20787L566.79376 169.286Q567.2469 168.64537 567.8094 168.33287Q568.3875 168.02037 569.2 168.02037Q570.2625 168.02037 571.075 168.56725Q571.8875 169.11412 572.29376 170.11412Q572.71564 171.0985 572.71564 172.286Q572.71564 173.56725 572.2469 174.58287Q571.79376 175.5985 570.91876 176.14537Q570.0594 176.69225 569.09064 176.69225Q568.3875 176.69225 567.825 176.39537Q567.27814 176.0985 566.91876 175.64537L566.91876 179.69225L565.5125 179.69225ZM566.77814 172.39537Q566.77814 174.00475 567.41876 174.77037Q568.075 175.536 568.9969 175.536Q569.9344 175.536 570.60626 174.73912Q571.27814 173.94225 571.27814 172.286Q571.27814 170.69225 570.6219 169.911Q569.96564 169.11412 569.0594 169.11412Q568.16876 169.11412 567.46564 169.95787Q566.77814 170.80162 566.77814 172.39537ZM573.95 174.02037L575.34064 173.80162Q575.45 174.64537 575.98126 175.0985Q576.52814 175.536 577.48126 175.536Q578.45 175.536 578.91876 175.14537Q579.3875 174.73912 579.3875 174.20787Q579.3875 173.73912 578.98126 173.45787Q578.6844 173.27037 577.54376 172.98912Q575.9969 172.5985 575.3875 172.31725Q574.79376 172.02037 574.48126 171.52037Q574.1844 171.02037 574.1844 170.411Q574.1844 169.8485 574.4344 169.37975Q574.6844 168.911 575.1219 168.5985Q575.45 168.3485 576.0125 168.19225Q576.59064 168.02037 577.23126 168.02037Q578.21564 168.02037 578.95 168.30162Q579.6844 168.58287 580.02814 169.06725Q580.3875 169.536 580.52814 170.3485L579.15314 170.536Q579.0594 169.89537 578.60626 169.536Q578.15314 169.17662 577.34064 169.17662Q576.3719 169.17662 575.95 169.50475Q575.54376 169.81725 575.54376 170.23912Q575.54376 170.52037 575.71564 170.73912Q575.8875 170.95787 576.2469 171.11412Q576.46564 171.19225 577.4969 171.4735Q578.98126 171.86412 579.575 172.12975Q580.16876 172.37975 580.4969 172.86412Q580.84064 173.3485 580.84064 174.06725Q580.84064 174.77037 580.41876 175.39537Q580.0125 176.00475 579.23126 176.3485Q578.46564 176.69225 577.4969 176.69225Q575.8719 176.69225 575.02814 176.02037Q574.1844 175.3485 573.95 174.02037Z" fill-rule="nonzero"/><path fill="#9e9e9e" d="M541.6219 198.50475L541.6219 195.75475L536.65314 195.75475L536.65314 194.4735L541.8875 187.05162L543.02814 187.05162L543.02814 194.4735L544.575 194.4735L544.575 195.75475L543.02814 195.75475L543.02814 198.50475L541.6219 198.50475ZM541.6219 194.4735L541.6219 189.30162L538.04376 194.4735L541.6219 194.4735ZM546.1219 195.50475L547.59064 195.37975Q547.7625 196.45787 548.35626 197.00475Q548.95 197.536 549.79376 197.536Q550.8094 197.536 551.5125 196.77037Q552.21564 196.00475 552.21564 194.73912Q552.21564 193.536 551.54376 192.8485Q550.8719 192.14537 549.77814 192.14537Q549.09064 192.14537 548.54376 192.45787Q547.9969 192.77037 547.6844 193.25475L546.3719 193.08287L547.48126 187.20787L553.16876 187.20787L553.16876 188.55162L548.60626 188.55162L547.98126 191.62975Q549.0125 190.911 550.15314 190.911Q551.65314 190.911 552.6844 191.95787Q553.71564 192.98912 553.71564 194.61412Q553.71564 196.17662 552.8094 197.30162Q551.7 198.70787 549.79376 198.70787Q548.23126 198.70787 547.2469 197.83287Q546.2625 196.94225 546.1219 195.50475ZM555.90314 198.50475L555.90314 196.89537L557.5125 196.89537L557.5125 198.50475L555.90314 198.50475ZM564.41876 198.50475L563.0125 198.50475L563.0125 189.536Q562.4969 190.02037 561.66876 190.50475Q560.85626 190.98912 560.2 191.23912L560.2 189.87975Q561.3719 189.31725 562.2469 188.536Q563.1375 187.73912 563.5125 187.00475L564.41876 187.00475L564.41876 198.50475ZM568.3875 189.80162Q568.3875 188.56725 568.9969 187.70787Q569.6219 186.8485 570.79376 186.8485Q571.8719 186.8485 572.575 187.62975Q573.27814 188.39537 573.27814 189.87975Q573.27814 191.33287 572.5594 192.12975Q571.85626 192.911 570.8094 192.911Q569.7625 192.911 569.075 192.14537Q568.3875 191.36412 568.3875 189.80162ZM570.825 187.81725Q570.3094 187.81725 569.95 188.27037Q569.60626 188.7235 569.60626 189.94225Q569.60626 191.036 569.95 191.48912Q570.3094 191.94225 570.825 191.94225Q571.35626 191.94225 571.7 191.48912Q572.0594 191.036 572.0594 189.83287Q572.0594 188.7235 571.7 188.27037Q571.35626 187.81725 570.825 187.81725ZM570.84064 198.92662L577.10626 186.8485L578.2469 186.8485L571.9969 198.92662L570.84064 198.92662ZM575.79376 195.81725Q575.79376 194.58287 576.40314 193.7235Q577.02814 192.86412 578.2 192.86412Q579.27814 192.86412 579.98126 193.64537Q580.7 194.411 580.7 195.89537Q580.7 197.3485 579.98126 198.14537Q579.2625 198.92662 578.21564 198.92662Q577.16876 198.92662 576.48126 198.14537Q575.79376 197.36412 575.79376 195.81725ZM578.2469 193.83287Q577.71564 193.83287 577.35626 194.286Q577.0125 194.73912 577.0125 195.95787Q577.0125 197.05162 577.35626 197.50475Q577.71564 197.95787 578.23126 197.95787Q578.77814 197.95787 579.1219 197.50475Q579.46564 197.05162 579.46564 195.8485Q579.46564 194.73912 579.10626 194.286Q578.7625 193.83287 578.2469 193.83287Z" fill-rule="nonzero"/><path stroke="#757575" stroke-width="1.0" stroke-linecap="butt" d="M581.45 182.00475L454.76666 182.00475L439.6558 182.00475" fill-rule="nonzero"/><path fill="#9e9e9e" d="M441.6558 182.00475C441.6558 180.90018 440.76035 180.00475 439.6558 180.00475C438.5512 180.00475 437.6558 180.90018 437.6558 182.00475C437.6558 183.10931 438.5512 184.00475 439.6558 184.00475C440.76035 184.00475 441.6558 183.10931 441.6558 182.00475" fill-rule="nonzero"/><path fill="#f3f3f3" d="M271.26562 32.534374L273.15625 33.003124Q272.5625 35.346874 271.01562 36.58125Q269.46875 37.8 267.21875 37.8Q264.90625 37.8 263.45312 36.8625Q262.01562 35.909374 261.25 34.128124Q260.5 32.33125 260.5 30.284374Q260.5 28.05 261.34375 26.39375Q262.20312 24.721874 263.78125 23.8625Q265.35938 22.9875 267.25 22.9875Q269.40625 22.9875 270.85938 24.08125Q272.32812 25.175 272.90625 27.159374L271.04688 27.596874Q270.54688 26.034374 269.59375 25.33125Q268.65625 24.6125 267.21875 24.6125Q265.5625 24.6125 264.45312 25.409374Q263.34375 26.190624 262.89062 27.534374Q262.45312 28.8625 262.45312 30.26875Q262.45312 32.096874 262.98438 33.471874Q263.51562 34.83125 264.64062 35.503124Q265.76562 36.175 267.0625 36.175Q268.65625 36.175 269.76562 35.253124Q270.875 34.33125 271.26562 32.534374ZM281.59375 36.26875Q280.60938 37.096874 279.70312 37.440624Q278.79688 37.784374 277.76562 37.784374Q276.0625 37.784374 275.14062 36.95625Q274.21875 36.1125 274.21875 34.815624Q274.21875 34.05 274.5625 33.425Q274.92188 32.8 275.48438 32.425Q276.04688 32.034374 276.75 31.83125Q277.26562 31.70625 278.3125 31.565624Q280.4375 31.315624 281.4375 30.971874Q281.45312 30.6125 281.45312 30.503124Q281.45312 29.440624 280.95312 28.9875Q280.28125 28.39375 278.95312 28.39375Q277.70312 28.39375 277.10938 28.83125Q276.53125 29.26875 276.25 30.378124L274.53125 30.14375Q274.76562 29.034374 275.29688 28.3625Q275.82812 27.675 276.84375 27.315624Q277.85938 26.940624 279.20312 26.940624Q280.53125 26.940624 281.35938 27.253124Q282.1875 27.565624 282.57812 28.05Q282.96875 28.51875 283.125 29.2375Q283.21875 29.690624 283.21875 30.8625L283.21875 33.20625Q283.21875 35.659374 283.32812 36.315624Q283.4375 36.95625 283.78125 37.55L281.9375 37.55Q281.67188 37.003124 281.59375 36.26875ZM281.4375 32.346874Q280.48438 32.7375 278.5625 33.003124Q277.48438 33.159374 277.03125 33.3625Q276.59375 33.55 276.34375 33.925Q276.09375 34.3 276.09375 34.76875Q276.09375 35.471874 276.625 35.940624Q277.15625 36.409374 278.1875 36.409374Q279.20312 36.409374 279.98438 35.971874Q280.78125 35.51875 281.15625 34.753124Q281.4375 34.14375 281.4375 32.9875L281.4375 32.346874ZM289.65625 35.971874L289.90625 37.534374Q289.17188 37.690624 288.57812 37.690624Q287.625 37.690624 287.09375 37.39375Q286.57812 37.08125 286.35938 36.596874Q286.14062 36.096874 286.14062 34.51875L286.14062 28.55L284.85938 28.55L284.85938 27.175L286.14062 27.175L286.14062 24.6125L287.89062 23.55L287.89062 27.175L289.65625 27.175L289.65625 28.55L287.89062 28.55L287.89062 34.6125Q287.89062 35.3625 287.98438 35.58125Q288.07812 35.784374 288.28125 35.925Q288.5 36.05 288.89062 36.05Q289.17188 36.05 289.65625 35.971874ZM298.92188 34.20625L300.73438 34.440624Q300.3125 36.01875 299.14062 36.909374Q297.98438 37.784374 296.17188 37.784374Q293.90625 37.784374 292.5625 36.39375Q291.23438 34.9875 291.23438 32.45625Q291.23438 29.83125 292.57812 28.39375Q293.92188 26.940624 296.07812 26.940624Q298.15625 26.940624 299.46875 28.3625Q300.79688 29.76875 300.79688 32.346874Q300.79688 32.503124 300.78125 32.815624L293.04688 32.815624Q293.14062 34.51875 294.01562 35.425Q294.89062 36.33125 296.1875 36.33125Q297.15625 36.33125 297.82812 35.83125Q298.51562 35.315624 298.92188 34.20625ZM293.14062 31.3625L298.9375 31.3625Q298.82812 30.065624 298.28125 29.409374Q297.4375 28.39375 296.09375 28.39375Q294.89062 28.39375 294.0625 29.20625Q293.23438 30.003124 293.14062 31.3625ZM302.5 38.409374L304.20312 38.659374Q304.3125 39.45625 304.79688 39.815624Q305.45312 40.3 306.59375 40.3Q307.8125 40.3 308.46875 39.815624Q309.14062 39.33125 309.375 38.45625Q309.51562 37.909374 309.5 36.190624Q308.34375 37.55 306.625 37.55Q304.48438 37.55 303.3125 36.003124Q302.14062 34.45625 302.14062 32.3Q302.14062 30.815624 302.67188 29.565624Q303.21875 28.315624 304.23438 27.628124Q305.26562 26.940624 306.64062 26.940624Q308.46875 26.940624 309.67188 28.425L309.67188 27.175L311.28125 27.175L311.28125 36.14375Q311.28125 38.565624 310.78125 39.565624Q310.29688 40.58125 309.21875 41.159374Q308.15625 41.753124 306.59375 41.753124Q304.75 41.753124 303.59375 40.925Q302.45312 40.096874 302.5 38.409374ZM303.95312 32.175Q303.95312 34.221874 304.76562 35.159374Q305.57812 36.096874 306.79688 36.096874Q308.0 36.096874 308.8125 35.159374Q309.64062 34.221874 309.64062 32.2375Q309.64062 30.33125 308.79688 29.3625Q307.95312 28.39375 306.76562 28.39375Q305.59375 28.39375 304.76562 29.346874Q303.95312 30.3 303.95312 32.175ZM313.17188 32.3625Q313.17188 29.4875 314.76562 28.096874Q316.10938 26.940624 318.03125 26.940624Q320.17188 26.940624 321.51562 28.346874Q322.875 29.753124 322.875 32.221874Q322.875 34.221874 322.28125 35.378124Q321.6875 36.51875 320.53125 37.159374Q319.39062 37.784374 318.03125 37.784374Q315.84375 37.784374 314.5 36.39375Q313.17188 34.9875 313.17188 32.3625ZM314.96875 32.3625Q314.96875 34.3625 315.82812 35.346874Q316.70312 36.33125 318.03125 36.33125Q319.34375 36.33125 320.20312 35.346874Q321.07812 34.346874 321.07812 32.3Q321.07812 30.378124 320.20312 29.39375Q319.32812 28.39375 318.03125 28.39375Q316.70312 28.39375 315.82812 29.39375Q314.96875 30.378124 314.96875 32.3625ZM324.79688 37.55L324.79688 27.175L326.375 27.175L326.375 28.753124Q326.98438 27.64375 327.5 27.3Q328.01562 26.940624 328.625 26.940624Q329.51562 26.940624 330.4375 27.503124L329.82812 29.14375Q329.1875 28.753124 328.54688 28.753124Q327.96875 28.753124 327.5 29.1125Q327.04688 29.45625 326.84375 30.065624Q326.5625 31.003124 326.5625 32.1125L326.5625 37.55L324.79688 37.55ZM331.73438 41.55L331.54688 39.89375Q332.125 40.05 332.54688 40.05Q333.14062 40.05 333.48438 39.846874Q333.84375 39.659374 334.0625 39.315624Q334.23438 39.05 334.60938 38.003124Q334.65625 37.846874 334.76562 37.565624L330.82812 27.175L332.71875 27.175L334.875 33.190624Q335.29688 34.33125 335.625 35.58125Q335.9375 34.378124 336.34375 33.221874L338.5625 27.175L340.32812 27.175L336.375 37.721874Q335.75 39.440624 335.39062 40.08125Q334.92188 40.95625 334.3125 41.346874Q333.71875 41.753124 332.875 41.753124Q332.35938 41.753124 331.73438 41.55Z" fill-rule="nonzero"/></svg>