<svg version="1.1" viewBox="0.0 0.0 600.0 371.0" fill="none" stroke="none" stroke-linecap="square" stroke-miterlimit="10" width="600" height="371" xmlns:xlink="http://www.w3.org/1999/xlink" xmlns="http://www.w3.org/2000/svg"><path fill="#ffffff" fill-opacity="0.0" d="M0 0L600.0 0L600.0 371.0L0 371.0L0 0Z" fill-rule="nonzero"/><path fill="#304388" d="M300.0 54.916668C304.26883 54.916668 308.53568 55.100407 312.7887 55.467377L303.19717 166.62935C302.1339 166.5376 301.0672 166.49167 300.0 166.49167Z" fill-rule="nonzero"/><path fill="#313d89" d="M312.7887 55.467377C317.04172 55.834343 321.27698 56.3842 325.4827 57.11542L306.37067 167.04135C305.31924 166.85855 304.26044 166.72108 303.19717 166.62935Z" fill-rule="nonzero"/><path fill="#b5428d" d="M325.4827 57.11542C333.89807 58.57854 342.17178 60.763706 350.21216 63.646694L312.55304 168.67418C310.54294 167.95343 308.47452 167.40714 306.37067 167.04135Z" fill-rule="nonzero"/><path fill="#f7d750" d="M287.2113 55.467377C291.46432 55.100407 295.73117 54.916668 300.0 54.916668L300.0 166.49167C298.9328 166.49167 297.8661 166.5376 296.80283 166.62935Z" fill-rule="nonzero"/><path fill="#e5a345" d="M215.69366 81.11105C236.91153 66.51721 261.55438 57.68116 287.2113 55.467377L296.80283 166.62935C290.3886 167.18279 284.22787 169.3918 278.92343 173.04027Z" fill-rule="nonzero"/><path fill="#df8d43" d="M151.5432 213.28004C148.16376 161.00165 172.5304 110.79915 215.69366 81.11105L278.92343 173.04027C268.1326 180.46228 262.04092 193.01291 262.8858 206.0825Z" fill-rule="nonzero"/><path fill="#d8753e" d="M163.49414 262.82446C156.69022 247.12006 152.64725 230.35934 151.5432 213.28004L262.8858 206.0825C263.1618 210.35234 264.17255 214.54251 265.87354 218.46861Z" fill-rule="nonzero"/><path fill="#d0473d" d="M169.08351 274.3402C167.05603 270.5836 165.19118 266.74146 163.49414 262.82446L265.87354 218.46861C266.2978 219.44786 266.764 220.4084 267.27087 221.34755Z" fill-rule="nonzero"/><path fill="#cf4366" d="M350.21216 63.646694C412.66147 86.038795 452.73645 147.07574 448.45682 213.28004C444.17715 279.48434 396.5773 334.8537 331.7648 349.01923C266.95227 363.18472 200.59294 332.7224 169.08351 274.3402L267.27087 221.34755C275.14822 235.9431 291.73807 243.55869 307.9412 240.0173C324.14432 236.47592 336.04428 222.63359 337.1142 206.0825C338.1841 189.53143 328.16537 174.2722 312.55304 168.67418Z" fill-rule="nonzero"/><path fill="#ffffff" d="M360.37363 266.57584L358.81113 266.70084Q358.59238 265.77896 358.20175 265.3571Q357.56113 264.6696 356.62363 264.6696Q355.87363 264.6696 355.2955 265.09146Q354.5455 265.63834 354.108 266.6852Q353.68613 267.7321 353.6705 269.6696Q354.24863 268.7946 355.06113 268.3727Q355.88925 267.95084 356.7955 267.95084Q358.38925 267.95084 359.49863 269.1227Q360.608 270.27896 360.608 272.1227Q360.608 273.34146 360.07675 274.38834Q359.56113 275.4196 358.63925 275.9821Q357.733 276.52896 356.57675 276.52896Q354.59238 276.52896 353.34238 275.07584Q352.09238 273.6227 352.09238 270.27896Q352.09238 266.5446 353.483 264.84146Q354.68613 263.3727 356.71738 263.3727Q358.24863 263.3727 359.21738 264.2321Q360.18613 265.07584 360.37363 266.57584ZM353.9205 272.13834Q353.9205 272.95084 354.26425 273.70084Q354.608 274.45084 355.233 274.84146Q355.858 275.2321 356.5455 275.2321Q357.5455 275.2321 358.26425 274.4196Q358.983 273.6071 358.983 272.21646Q358.983 270.88834 358.26425 270.1227Q357.56113 269.34146 356.483 269.34146Q355.40488 269.34146 354.65488 270.1227Q353.9205 270.88834 353.9205 272.13834ZM368.12363 276.3102L366.5455 276.3102L366.5455 266.2321Q365.96738 266.77896 365.0455 267.32584Q364.12363 267.8571 363.37363 268.13834L363.37363 266.6071Q364.70175 265.9821 365.70175 265.09146Q366.70175 264.20084 367.108 263.3727L368.12363 263.3727L368.12363 276.3102ZM373.06113 276.3102L373.06113 274.51334L374.858 274.51334L374.858 276.3102L373.06113 276.3102ZM385.37363 266.57584L383.81113 266.70084Q383.59238 265.77896 383.20175 265.3571Q382.56113 264.6696 381.62363 264.6696Q380.87363 264.6696 380.2955 265.09146Q379.5455 265.63834 379.108 266.6852Q378.68613 267.7321 378.6705 269.6696Q379.24863 268.7946 380.06113 268.3727Q380.88925 267.95084 381.7955 267.95084Q383.38925 267.95084 384.49863 269.1227Q385.608 270.27896 385.608 272.1227Q385.608 273.34146 385.07675 274.38834Q384.56113 275.4196 383.63925 275.9821Q382.733 276.52896 381.57675 276.52896Q379.59238 276.52896 378.34238 275.07584Q377.09238 273.6227 377.09238 270.27896Q377.09238 266.5446 378.483 264.84146Q379.68613 263.3727 381.71738 263.3727Q383.24863 263.3727 384.21738 264.2321Q385.18613 265.07584 385.37363 266.57584ZM378.9205 272.13834Q378.9205 272.95084 379.26425 273.70084Q379.608 274.45084 380.233 274.84146Q380.858 275.2321 381.5455 275.2321Q382.5455 275.2321 383.26425 274.4196Q383.983 273.6071 383.983 272.21646Q383.983 270.88834 383.26425 270.1227Q382.56113 269.34146 381.483 269.34146Q380.40488 269.34146 379.65488 270.1227Q378.9205 270.88834 378.9205 272.13834ZM387.46738 266.51334Q387.46738 265.13834 388.15488 264.1696Q388.858 263.20084 390.1705 263.20084Q391.38925 263.20084 392.18613 264.07584Q392.983 264.9352 392.983 266.6227Q392.983 268.2477 392.1705 269.13834Q391.37363 270.01334 390.18613 270.01334Q389.02988 270.01334 388.24863 269.15396Q387.46738 268.27896 387.46738 266.51334ZM390.21738 264.2946Q389.62363 264.2946 389.233 264.8102Q388.84238 265.3102 388.84238 266.6696Q388.84238 267.9196 389.233 268.4196Q389.63925 268.9196 390.21738 268.9196Q390.81113 268.9196 391.20175 268.4196Q391.59238 267.90396 391.59238 266.5602Q391.59238 265.3102 391.20175 264.8102Q390.81113 264.2946 390.21738 264.2946ZM390.233 276.77896L397.27988 263.20084L398.56113 263.20084L391.52988 276.77896L390.233 276.77896ZM395.7955 273.27896Q395.7955 271.90396 396.483 270.9352Q397.18613 269.96646 398.51425 269.96646Q399.733 269.96646 400.51425 270.84146Q401.31113 271.70084 401.31113 273.38834Q401.31113 275.01334 400.51425 275.90396Q399.71738 276.77896 398.52988 276.77896Q397.358 276.77896 396.57675 275.90396Q395.7955 275.02896 395.7955 273.27896ZM398.56113 271.0602Q397.96738 271.0602 397.57675 271.57584Q397.18613 272.07584 397.18613 273.45084Q397.18613 274.6696 397.57675 275.1852Q397.96738 275.70084 398.5455 275.70084Q399.15488 275.70084 399.5455 275.1852Q399.93613 274.6696 399.93613 273.32584Q399.93613 272.07584 399.5455 271.57584Q399.15488 271.0602 398.56113 271.0602Z" fill-rule="nonzero"/><path fill="#ffffff" d="M175.72595 232.0213L177.3822 231.88068Q177.5697 233.09943 178.24158 233.7088Q178.91345 234.31818 179.86658 234.31818Q181.0072 234.31818 181.78845 233.4588Q182.58533 232.59943 182.58533 231.16193Q182.58533 229.81818 181.8197 229.03693Q181.0697 228.25568 179.83533 228.25568Q179.0697 228.25568 178.4447 228.59943Q177.83533 228.94318 177.49158 229.50568L176.0072 229.30255L177.2572 222.69318L183.66345 222.69318L183.66345 224.19318L178.52283 224.19318L177.8197 227.66193Q178.99158 226.84943 180.2572 226.84943Q181.9447 226.84943 183.10095 228.0213Q184.27283 229.19318 184.27283 231.0213Q184.27283 232.7713 183.24158 234.05255Q182.0072 235.61505 179.86658 235.61505Q178.10095 235.61505 176.99158 234.63068Q175.8822 233.6463 175.72595 232.0213ZM186.61658 235.3963L186.61658 233.59943L188.41345 233.59943L188.41345 235.3963L186.61658 235.3963ZM190.72595 232.0213L192.3822 231.88068Q192.5697 233.09943 193.24158 233.7088Q193.91345 234.31818 194.86658 234.31818Q196.0072 234.31818 196.78845 233.4588Q197.58533 232.59943 197.58533 231.16193Q197.58533 229.81818 196.8197 229.03693Q196.0697 228.25568 194.83533 228.25568Q194.0697 228.25568 193.4447 228.59943Q192.83533 228.94318 192.49158 229.50568L191.0072 229.30255L192.2572 222.69318L198.66345 222.69318L198.66345 224.19318L193.52283 224.19318L192.8197 227.66193Q193.99158 226.84943 195.2572 226.84943Q196.9447 226.84943 198.10095 228.0213Q199.27283 229.19318 199.27283 231.0213Q199.27283 232.7713 198.24158 234.05255Q197.0072 235.61505 194.86658 235.61505Q193.10095 235.61505 191.99158 234.63068Q190.8822 233.6463 190.72595 232.0213ZM201.02283 225.59943Q201.02283 224.22443 201.71033 223.25568Q202.41345 222.28693 203.72595 222.28693Q204.9447 222.28693 205.74158 223.16193Q206.53845 224.0213 206.53845 225.7088Q206.53845 227.3338 205.72595 228.22443Q204.92908 229.09943 203.74158 229.09943Q202.58533 229.09943 201.80408 228.24005Q201.02283 227.36505 201.02283 225.59943ZM203.77283 223.38068Q203.17908 223.38068 202.78845 223.8963Q202.39783 224.3963 202.39783 225.75568Q202.39783 227.00568 202.78845 227.50568Q203.1947 228.00568 203.77283 228.00568Q204.36658 228.00568 204.7572 227.50568Q205.14783 226.99005 205.14783 225.6463Q205.14783 224.3963 204.7572 223.8963Q204.36658 223.38068 203.77283 223.38068ZM203.78845 235.86505L210.83533 222.28693L212.11658 222.28693L205.08533 235.86505L203.78845 235.86505ZM209.35095 232.36505Q209.35095 230.99005 210.03845 230.0213Q210.74158 229.05255 212.0697 229.05255Q213.28845 229.05255 214.0697 229.92755Q214.86658 230.78693 214.86658 232.47443Q214.86658 234.09943 214.0697 234.99005Q213.27283 235.86505 212.08533 235.86505Q210.91345 235.86505 210.1322 234.99005Q209.35095 234.11505 209.35095 232.36505ZM212.11658 230.1463Q211.52283 230.1463 211.1322 230.66193Q210.74158 231.16193 210.74158 232.53693Q210.74158 233.75568 211.1322 234.2713Q211.52283 234.78693 212.10095 234.78693Q212.71033 234.78693 213.10095 234.2713Q213.49158 233.75568 213.49158 232.41193Q213.49158 231.16193 213.10095 230.66193Q212.71033 230.1463 212.11658 230.1463Z" fill-rule="nonzero"/><path fill="#ffffff" d="M190.09666 165.96326L188.51854 165.96326L188.51854 155.88513Q187.94041 156.432 187.01854 156.97888Q186.09666 157.51013 185.34666 157.79138L185.34666 156.26013Q186.67479 155.63513 187.67479 154.7445Q188.67479 153.85388 189.08104 153.02576L190.09666 153.02576L190.09666 165.96326ZM202.34666 156.22888L200.78416 156.35388Q200.56541 155.432 200.17479 155.01013Q199.53416 154.32263 198.59666 154.32263Q197.84666 154.32263 197.26854 154.7445Q196.51854 155.29138 196.08104 156.33826Q195.65916 157.38513 195.64354 159.32263Q196.22166 158.44763 197.03416 158.02576Q197.86229 157.60388 198.76854 157.60388Q200.36229 157.60388 201.47166 158.77576Q202.58104 159.932 202.58104 161.77576Q202.58104 162.9945 202.04979 164.04138Q201.53416 165.07263 200.61229 165.63513Q199.70604 166.182 198.54979 166.182Q196.56541 166.182 195.31541 164.72888Q194.06541 163.27576 194.06541 159.932Q194.06541 156.19763 195.45604 154.4945Q196.65916 153.02576 198.69041 153.02576Q200.22166 153.02576 201.19041 153.88513Q202.15916 154.72888 202.34666 156.22888ZM195.89354 161.79138Q195.89354 162.60388 196.23729 163.35388Q196.58104 164.10388 197.20604 164.4945Q197.83104 164.88513 198.51854 164.88513Q199.51854 164.88513 200.23729 164.07263Q200.95604 163.26013 200.95604 161.8695Q200.95604 160.54138 200.23729 159.77576Q199.53416 158.9945 198.45604 158.9945Q197.37791 158.9945 196.62791 159.77576Q195.89354 160.54138 195.89354 161.79138ZM205.03416 165.96326L205.03416 164.16638L206.83104 164.16638L206.83104 165.96326L205.03416 165.96326ZM214.20604 165.96326L214.20604 162.88513L208.62791 162.88513L208.62791 161.432L214.50291 153.07263L215.79979 153.07263L215.79979 161.432L217.53416 161.432L217.53416 162.88513L215.79979 162.88513L215.79979 165.96326L214.20604 165.96326ZM214.20604 161.432L214.20604 155.6195L210.17479 161.432L214.20604 161.432ZM219.44041 156.16638Q219.44041 154.79138 220.12791 153.82263Q220.83104 152.85388 222.14354 152.85388Q223.36229 152.85388 224.15916 153.72888Q224.95604 154.58826 224.95604 156.27576Q224.95604 157.90076 224.14354 158.79138Q223.34666 159.66638 222.15916 159.66638Q221.00291 159.66638 220.22166 158.807Q219.44041 157.932 219.44041 156.16638ZM222.19041 153.94763Q221.59666 153.94763 221.20604 154.46326Q220.81541 154.96326 220.81541 156.32263Q220.81541 157.57263 221.20604 158.07263Q221.61229 158.57263 222.19041 158.57263Q222.78416 158.57263 223.17479 158.07263Q223.56541 157.557 223.56541 156.21326Q223.56541 154.96326 223.17479 154.46326Q222.78416 153.94763 222.19041 153.94763ZM222.20604 166.432L229.25291 152.85388L230.53416 152.85388L223.50291 166.432L222.20604 166.432ZM227.76854 162.932Q227.76854 161.557 228.45604 160.58826Q229.15916 159.6195 230.48729 159.6195Q231.70604 159.6195 232.48729 160.4945Q233.28416 161.35388 233.28416 163.04138Q233.28416 164.66638 232.48729 165.557Q231.69041 166.432 230.50291 166.432Q229.33104 166.432 228.54979 165.557Q227.76854 164.682 227.76854 162.932ZM230.53416 160.71326Q229.94041 160.71326 229.54979 161.22888Q229.15916 161.72888 229.15916 163.10388Q229.15916 164.32263 229.54979 164.83826Q229.94041 165.35388 230.51854 165.35388Q231.12791 165.35388 231.51854 164.83826Q231.90916 164.32263 231.90916 162.97888Q231.90916 161.72888 231.51854 161.22888Q231.12791 160.71326 230.53416 160.71326Z" fill-rule="nonzero"/><path fill="#ffffff" d="M245.26703 98.83705Q244.28265 98.47768 243.79828 97.8058Q243.32953 97.13393 243.32953 96.21205Q243.32953 94.8058 244.32953 93.85268Q245.34515 92.88393 247.03265 92.88393Q248.72015 92.88393 249.73578 93.8683Q250.76703 94.83705 250.76703 96.2433Q250.76703 97.14955 250.29828 97.82143Q249.82953 98.47768 248.8764 98.83705Q250.0639 99.22768 250.67328 100.08705Q251.29828 100.94643 251.29828 102.13393Q251.29828 103.79018 250.1264 104.91518Q248.95453 106.04018 247.04828 106.04018Q245.14203 106.04018 243.97015 104.91518Q242.8139 103.77455 242.8139 102.08705Q242.8139 100.83705 243.4389 99.9933Q244.07953 99.13393 245.26703 98.83705ZM244.9389 96.14955Q244.9389 97.07143 245.53265 97.64955Q246.1264 98.22768 247.0639 98.22768Q247.97015 98.22768 248.54828 97.64955Q249.14203 97.07143 249.14203 96.2433Q249.14203 95.3683 248.53265 94.77455Q247.9389 94.1808 247.04828 94.1808Q246.14203 94.1808 245.53265 94.75893Q244.9389 95.33705 244.9389 96.14955ZM244.4389 102.10268Q244.4389 102.77455 244.7514 103.41518Q245.07953 104.04018 245.70453 104.39955Q246.34515 104.7433 247.07953 104.7433Q248.20453 104.7433 248.9389 104.00893Q249.6889 103.27455 249.6889 102.14955Q249.6889 101.00893 248.92328 100.27455Q248.15765 99.52455 247.01703 99.52455Q245.90765 99.52455 245.17328 100.25893Q244.4389 100.9933 244.4389 102.10268ZM253.72015 105.82143L253.72015 104.02455L255.51703 104.02455L255.51703 105.82143L253.72015 105.82143ZM266.14203 104.3058L266.14203 105.82143L257.6264 105.82143Q257.61078 105.2433 257.8139 104.72768Q258.14203 103.85268 258.84515 103.00893Q259.5639 102.16518 260.92328 101.0558Q263.01703 99.33705 263.7514 98.33705Q264.5014 97.32143 264.5014 96.4308Q264.5014 95.47768 263.82953 94.83705Q263.15765 94.19643 262.07953 94.19643Q260.92328 94.19643 260.23578 94.88393Q259.5639 95.57143 259.54828 96.77455L257.92328 96.60268Q258.09515 94.79018 259.17328 93.83705Q260.26703 92.88393 262.11078 92.88393Q263.95453 92.88393 265.03265 93.91518Q266.1264 94.94643 266.1264 96.46205Q266.1264 97.22768 265.79828 97.97768Q265.48578 98.72768 264.7514 99.5558Q264.01703 100.38393 262.3139 101.82143Q260.89203 103.02455 260.48578 103.44643Q260.07953 103.8683 259.82953 104.3058L266.14203 104.3058ZM268.1264 96.02455Q268.1264 94.64955 268.8139 93.6808Q269.51703 92.71205 270.82953 92.71205Q272.04828 92.71205 272.84515 93.58705Q273.64203 94.44643 273.64203 96.13393Q273.64203 97.75893 272.82953 98.64955Q272.03265 99.52455 270.84515 99.52455Q269.6889 99.52455 268.90765 98.66518Q268.1264 97.79018 268.1264 96.02455ZM270.8764 93.8058Q270.28265 93.8058 269.89203 94.32143Q269.5014 94.82143 269.5014 96.1808Q269.5014 97.4308 269.89203 97.9308Q270.29828 98.4308 270.8764 98.4308Q271.47015 98.4308 271.86078 97.9308Q272.2514 97.41518 272.2514 96.07143Q272.2514 94.82143 271.86078 94.32143Q271.47015 93.8058 270.8764 93.8058ZM270.89203 106.29018L277.9389 92.71205L279.22015 92.71205L272.1889 106.29018L270.89203 106.29018ZM276.45453 102.79018Q276.45453 101.41518 277.14203 100.44643Q277.84515 99.47768 279.17328 99.47768Q280.39203 99.47768 281.17328 100.35268Q281.97015 101.21205 281.97015 102.89955Q281.97015 104.52455 281.17328 105.41518Q280.3764 106.29018 279.1889 106.29018Q278.01703 106.29018 277.23578 105.41518Q276.45453 104.54018 276.45453 102.79018ZM279.22015 100.57143Q278.6264 100.57143 278.23578 101.08705Q277.84515 101.58705 277.84515 102.96205Q277.84515 104.1808 278.23578 104.69643Q278.6264 105.21205 279.20453 105.21205Q279.8139 105.21205 280.20453 104.69643Q280.59515 104.1808 280.59515 102.83705Q280.59515 101.58705 280.20453 101.08705Q279.8139 100.57143 279.22015 100.57143Z" fill-rule="nonzero"/><path stroke="#ffffff" stroke-width="1.0" stroke-linejoin="round" stroke-linecap="round" d="M303.19717 166.62935C302.1339 166.5376 301.0672 166.49167 300.0 166.49167L300.0 54.916668C304.26883 54.916668 308.53568 55.100407 312.7887 55.467377" fill-rule="nonzero"/><path stroke="#ffffff" stroke-width="1.0" stroke-linejoin="round" stroke-linecap="round" d="M306.37067 167.04135C305.31924 166.85855 304.26044 166.72108 303.19717 166.62935L312.7887 55.467377C317.04172 55.834343 321.27698 56.3842 325.4827 57.11542" fill-rule="nonzero"/><path stroke="#ffffff" stroke-width="1.0" stroke-linejoin="round" stroke-linecap="round" d="M312.55304 168.67418C310.54294 167.95343 308.47452 167.40714 306.37067 167.04135L325.4827 57.11542C333.89807 58.57854 342.17178 60.763706 350.21216 63.646694" fill-rule="nonzero"/><path stroke="#ffffff" stroke-width="1.0" stroke-linejoin="round" stroke-linecap="round" d="M267.27087 221.34755C275.14822 235.9431 291.73807 243.55869 307.9412 240.0173C324.14432 236.47592 336.04428 222.63359 337.1142 206.0825C338.1841 189.53143 328.16537 174.2722 312.55304 168.67418L350.21216 63.646694C412.66147 86.038795 452.73645 147.07574 448.45682 213.28004C444.17715 279.48434 396.5773 334.8537 331.7648 349.01923C266.95227 363.18472 200.59294 332.7224 169.08351 274.3402" fill-rule="nonzero"/><path stroke="#ffffff" stroke-width="1.0" stroke-linejoin="round" stroke-linecap="round" d="M265.87354 218.46861C266.2978 219.44786 266.764 220.4084 267.27087 221.34755L169.08351 274.3402C167.05603 270.5836 165.19118 266.74146 163.49414 262.82446" fill-rule="nonzero"/><path stroke="#ffffff" stroke-width="1.0" stroke-linejoin="round" stroke-linecap="round" d="M262.8858 206.0825C263.1618 210.35234 264.17255 214.54251 265.87354 218.46861L163.49414 262.82446C156.69022 247.12006 152.64725 230.35934 151.5432 213.28004" fill-rule="nonzero"/><path stroke="#ffffff" stroke-width="1.0" stroke-linejoin="round" stroke-linecap="round" d="M278.92343 173.04027C268.1326 180.46228 262.04092 193.01291 262.8858 206.0825L151.5432 213.28004C148.16376 161.00165 172.5304 110.79915 215.69366 81.11105" fill-rule="nonzero"/><path stroke="#ffffff" stroke-width="1.0" stroke-linejoin="round" stroke-linecap="round" d="M296.80283 166.62935C290.3886 167.18279 284.22787 169.3918 278.92343 173.04027L215.69366 81.11105C236.91153 66.51721 261.55438 57.68116 287.2113 55.467377" fill-rule="nonzero"/><path stroke="#ffffff" stroke-width="1.0" stroke-linejoin="round" stroke-linecap="round" d="M300.0 166.49167C298.9328 166.49167 297.8661 166.5376 296.80283 166.62935L287.2113 55.467377C291.46432 55.100407 295.73117 54.916668 300.0 54.916668" fill-rule="nonzero"/><path fill="#efefef" d="M19.784374 69.916664L19.784374 58.46354L24.1125 58.46354Q25.253124 58.46354 25.846874 58.572914Q26.690624 58.71354 27.253124 59.104164Q27.83125 59.49479 28.175 60.21354Q28.534374 60.916664 28.534374 61.77604Q28.534374 63.229164 27.596874 64.24479Q26.675 65.260414 24.2375 65.260414L21.3 65.260414L21.3 69.916664L19.784374 69.916664ZM21.3 63.90104L24.26875 63.90104Q25.7375 63.90104 26.346874 63.354164Q26.971874 62.80729 26.971874 61.822914Q26.971874 61.104164 26.596874 60.58854Q26.2375 60.072914 25.64375 59.916664Q25.26875 59.80729 24.2375 59.80729L21.3 59.80729L21.3 63.90104ZM36.01875 68.885414Q35.2375 69.55729 34.51875 69.83854Q33.8 70.104164 32.971874 70.104164Q31.596874 70.104164 30.8625 69.43229Q30.128124 68.760414 30.128124 67.729164Q30.128124 67.11979 30.409374 66.61979Q30.690624 66.104164 31.128124 65.80729Q31.58125 65.49479 32.14375 65.33854Q32.565624 65.229164 33.39375 65.135414Q35.096874 64.93229 35.909374 64.65104Q35.909374 64.354164 35.909374 64.27604Q35.909374 63.416664 35.51875 63.072914Q34.971874 62.58854 33.909374 62.58854Q32.925 62.58854 32.440624 62.947914Q31.971874 63.291664 31.753124 64.166664L30.378124 63.979164Q30.565624 63.104164 30.9875 62.55729Q31.425 62.010414 32.2375 61.729164Q33.05 61.43229 34.1125 61.43229Q35.175 61.43229 35.83125 61.68229Q36.503124 61.93229 36.815624 62.30729Q37.128124 62.68229 37.253124 63.260414Q37.33125 63.61979 37.33125 64.55729L37.33125 66.43229Q37.33125 68.40104 37.409374 68.916664Q37.503124 69.43229 37.76875 69.916664L36.3 69.916664Q36.08125 69.479164 36.01875 68.885414ZM35.909374 65.74479Q35.14375 66.05729 33.6125 66.27604Q32.7375 66.40104 32.378124 66.55729Q32.01875 66.71354 31.815624 67.02604Q31.628124 67.322914 31.628124 67.68229Q31.628124 68.24479 32.05 68.61979Q32.4875 68.99479 33.3 68.99479Q34.1125 68.99479 34.7375 68.65104Q35.378124 68.291664 35.675 67.666664Q35.909374 67.197914 35.909374 66.260414L35.909374 65.74479ZM39.346874 70.604164L40.721874 70.80729Q40.8 71.447914 41.190624 71.729164Q41.721874 72.11979 42.628124 72.11979Q43.596874 72.11979 44.128124 71.729164Q44.659374 71.33854 44.846874 70.635414Q44.95625 70.21354 44.95625 68.822914Q44.034374 69.916664 42.659374 69.916664Q40.940624 69.916664 40.003124 68.68229Q39.065624 67.447914 39.065624 65.71354Q39.065624 64.52604 39.4875 63.52604Q39.925 62.52604 40.7375 61.979164Q41.565624 61.43229 42.659374 61.43229Q44.128124 61.43229 45.08125 62.61979L45.08125 61.61979L46.378124 61.61979L46.378124 68.791664Q46.378124 70.729164 45.9875 71.541664Q45.596874 72.354164 44.7375 72.822914Q43.878124 73.291664 42.628124 73.291664Q41.14375 73.291664 40.221874 72.61979Q39.315624 71.947914 39.346874 70.604164ZM40.51875 65.61979Q40.51875 67.24479 41.159374 67.99479Q41.815624 68.74479 42.784374 68.74479Q43.753124 68.74479 44.409374 68.010414Q45.065624 67.260414 45.065624 65.666664Q45.065624 64.135414 44.39375 63.36979Q43.721874 62.58854 42.76875 62.58854Q41.83125 62.58854 41.175 63.354164Q40.51875 64.11979 40.51875 65.61979ZM54.284374 67.24479L55.7375 67.416664Q55.39375 68.697914 54.45625 69.40104Q53.534374 70.104164 52.096874 70.104164Q50.26875 70.104164 49.20625 68.979164Q48.14375 67.854164 48.14375 65.83854Q48.14375 63.74479 49.221874 62.58854Q50.3 61.43229 52.01875 61.43229Q53.675 61.43229 54.721874 62.572914Q55.784374 63.697914 55.784374 65.74479Q55.784374 65.86979 55.784374 66.11979L49.596874 66.11979Q49.675 67.49479 50.3625 68.229164Q51.065624 68.947914 52.096874 68.947914Q52.878124 68.947914 53.425 68.541664Q53.971874 68.135414 54.284374 67.24479ZM49.675 64.96354L54.3 64.96354Q54.20625 63.916664 53.76875 63.40104Q53.096874 62.58854 52.034374 62.58854Q51.065624 62.58854 50.39375 63.24479Q49.7375 63.885414 49.675 64.96354Z" fill-rule="nonzero"/><path fill="#9e9e9e" d="M24.51875 91.916664L23.1125 91.916664L23.1125 82.947914Q22.596874 83.43229 21.76875 83.916664Q20.95625 84.40104 20.3 84.65104L20.3 83.291664Q21.471874 82.729164 22.346874 81.947914Q23.2375 81.15104 23.6125 80.416664L24.51875 80.416664L24.51875 91.916664ZM29.003124 91.916664L29.003124 90.30729L30.6125 90.30729L30.6125 91.916664L29.003124 91.916664ZM36.721874 91.916664L36.721874 89.166664L31.753124 89.166664L31.753124 87.885414L36.9875 80.46354L38.128124 80.46354L38.128124 87.885414L39.675 87.885414L39.675 89.166664L38.128124 89.166664L38.128124 91.916664L36.721874 91.916664ZM36.721874 87.885414L36.721874 82.71354L33.14375 87.885414L36.721874 87.885414ZM41.4875 83.21354Q41.4875 81.979164 42.096874 81.11979Q42.721874 80.260414 43.89375 80.260414Q44.971874 80.260414 45.675 81.041664Q46.378124 81.80729 46.378124 83.291664Q46.378124 84.74479 45.659374 85.541664Q44.95625 86.322914 43.909374 86.322914Q42.8625 86.322914 42.175 85.55729Q41.4875 84.77604 41.4875 83.21354ZM43.925 81.229164Q43.409374 81.229164 43.05 81.68229Q42.70625 82.135414 42.70625 83.354164Q42.70625 84.447914 43.05 84.90104Q43.409374 85.354164 43.925 85.354164Q44.45625 85.354164 44.8 84.90104Q45.159374 84.447914 45.159374 83.24479Q45.159374 82.135414 44.8 81.68229Q44.45625 81.229164 43.925 81.229164ZM43.940624 92.33854L50.20625 80.260414L51.346874 80.260414L45.096874 92.33854L43.940624 92.33854ZM48.89375 89.229164Q48.89375 87.99479 49.503124 87.135414Q50.128124 86.27604 51.3 86.27604Q52.378124 86.27604 53.08125 87.05729Q53.8 87.822914 53.8 89.30729Q53.8 90.760414 53.08125 91.55729Q52.3625 92.33854 51.315624 92.33854Q50.26875 92.33854 49.58125 91.55729Q48.89375 90.77604 48.89375 89.229164ZM51.346874 87.24479Q50.815624 87.24479 50.45625 87.697914Q50.1125 88.15104 50.1125 89.36979Q50.1125 90.46354 50.45625 90.916664Q50.815624 91.36979 51.33125 91.36979Q51.878124 91.36979 52.221874 90.916664Q52.565624 90.46354 52.565624 89.260414Q52.565624 88.15104 52.20625 87.697914Q51.8625 87.24479 51.346874 87.24479Z" fill-rule="nonzero"/><path stroke="#757575" stroke-width="1.0" stroke-linecap="butt" d="M18.55 75.416664L145.23334 75.416664L293.91974 62.485855" fill-rule="nonzero"/><path fill="#9e9e9e" d="M295.91974 62.485855C295.91974 61.381283 295.02432 60.485855 293.91974 60.485855C292.81516 60.485855 291.91974 61.381283 291.91974 62.485855C291.91974 63.590424 292.81516 64.485855 293.91974 64.485855C295.02432 64.485855 295.91974 63.590424 295.91974 62.485855" fill-rule="nonzero"/><path fill="#efefef" d="M27.3 99.46354L28.815624 99.46354L28.815624 106.072914Q28.815624 107.80729 28.425 108.822914Q28.034374 109.83854 27.01875 110.479164Q26.003124 111.11979 24.346874 111.11979Q22.7375 111.11979 21.70625 110.55729Q20.690624 109.99479 20.253124 108.947914Q19.815624 107.90104 19.815624 106.072914L19.815624 99.46354L21.33125 99.46354L21.33125 106.072914Q21.33125 107.55729 21.596874 108.27604Q21.878124 108.979164 22.55 109.36979Q23.2375 109.74479 24.20625 109.74479Q25.878124 109.74479 26.58125 108.99479Q27.3 108.229164 27.3 106.072914L27.3 99.46354ZM31.596874 110.916664L31.596874 102.61979L32.8625 102.61979L32.8625 103.86979Q33.346874 102.99479 33.753124 102.71354Q34.159374 102.43229 34.659374 102.43229Q35.3625 102.43229 36.096874 102.885414L35.6125 104.18229Q35.096874 103.885414 34.58125 103.885414Q34.128124 103.885414 33.753124 104.166664Q33.39375 104.43229 33.2375 104.93229Q33.003124 105.68229 33.003124 106.572914L33.003124 110.916664L31.596874 110.916664ZM37.909374 110.916664L36.596874 110.916664L36.596874 99.46354L38.003124 99.46354L38.003124 103.541664Q38.89375 102.43229 40.284374 102.43229Q41.05 102.43229 41.721874 102.74479Q42.409374 103.041664 42.846874 103.604164Q43.3 104.166664 43.55 104.96354Q43.8 105.74479 43.8 106.635414Q43.8 108.77604 42.7375 109.947914Q41.690624 111.104164 40.20625 111.104164Q38.7375 111.104164 37.909374 109.86979L37.909374 110.916664ZM37.89375 106.697914Q37.89375 108.197914 38.3 108.854164Q38.95625 109.947914 40.096874 109.947914Q41.01875 109.947914 41.690624 109.15104Q42.3625 108.33854 42.3625 106.760414Q42.3625 105.135414 41.70625 104.36979Q41.065624 103.58854 40.159374 103.58854Q39.2375 103.58854 38.565624 104.385414Q37.89375 105.18229 37.89375 106.697914ZM51.01875 109.885414Q50.2375 110.55729 49.51875 110.83854Q48.8 111.104164 47.971874 111.104164Q46.596874 111.104164 45.8625 110.43229Q45.128124 109.760414 45.128124 108.729164Q45.128124 108.11979 45.409374 107.61979Q45.690624 107.104164 46.128124 106.80729Q46.58125 106.49479 47.14375 106.33854Q47.565624 106.229164 48.39375 106.135414Q50.096874 105.93229 50.909374 105.65104Q50.909374 105.354164 50.909374 105.27604Q50.909374 104.416664 50.51875 104.072914Q49.971874 103.58854 48.909374 103.58854Q47.925 103.58854 47.440624 103.947914Q46.971874 104.291664 46.753124 105.166664L45.378124 104.979164Q45.565624 104.104164 45.9875 103.55729Q46.425 103.010414 47.2375 102.729164Q48.05 102.43229 49.1125 102.43229Q50.175 102.43229 50.83125 102.68229Q51.503124 102.93229 51.815624 103.30729Q52.128124 103.68229 52.253124 104.260414Q52.33125 104.61979 52.33125 105.55729L52.33125 107.43229Q52.33125 109.40104 52.409374 109.916664Q52.503124 110.43229 52.76875 110.916664L51.3 110.916664Q51.08125 110.479164 51.01875 109.885414ZM50.909374 106.74479Q50.14375 107.05729 48.6125 107.27604Q47.7375 107.40104 47.378124 107.55729Q47.01875 107.71354 46.815624 108.02604Q46.628124 108.322914 46.628124 108.68229Q46.628124 109.24479 47.05 109.61979Q47.4875 109.99479 48.3 109.99479Q49.1125 109.99479 49.7375 109.65104Q50.378124 109.291664 50.675 108.666664Q50.909374 108.197914 50.909374 107.260414L50.909374 106.74479ZM54.6125 110.916664L54.6125 102.61979L55.878124 102.61979L55.878124 103.791664Q56.784374 102.43229 58.51875 102.43229Q59.26875 102.43229 59.89375 102.697914Q60.51875 102.96354 60.83125 103.40104Q61.14375 103.83854 61.26875 104.447914Q61.346874 104.83854 61.346874 105.80729L61.346874 110.916664L59.940624 110.916664L59.940624 105.86979Q59.940624 105.010414 59.76875 104.58854Q59.6125 104.15104 59.190624 103.90104Q58.784374 103.65104 58.221874 103.65104Q57.315624 103.65104 56.659374 104.229164Q56.01875 104.791664 56.01875 106.385414L56.01875 110.916664L54.6125 110.916664ZM63.05 108.43229L64.44063 108.21354Q64.55 109.05729 65.08125 109.510414Q65.62813 109.947914 66.58125 109.947914Q67.55 109.947914 68.01875 109.55729Q68.4875 109.15104 68.4875 108.61979Q68.4875 108.15104 68.08125 107.86979Q67.78438 107.68229 66.64375 107.40104Q65.09688 107.010414 64.4875 106.729164Q63.89375 106.43229 63.58125 105.93229Q63.284374 105.43229 63.284374 104.822914Q63.284374 104.260414 63.534374 103.791664Q63.784374 103.322914 64.22188 103.010414Q64.55 102.760414 65.1125 102.604164Q65.69063 102.43229 66.33125 102.43229Q67.31563 102.43229 68.05 102.71354Q68.78438 102.99479 69.12813 103.479164Q69.4875 103.947914 69.62813 104.760414L68.25313 104.947914Q68.15938 104.30729 67.70625 103.947914Q67.25313 103.58854 66.44063 103.58854Q65.47188 103.58854 65.05 103.916664Q64.64375 104.229164 64.64375 104.65104Q64.64375 104.93229 64.81563 105.15104Q64.9875 105.36979 65.34688 105.52604Q65.56563 105.604164 66.59688 105.885414Q68.08125 106.27604 68.675 106.541664Q69.26875 106.791664 69.59688 107.27604Q69.94063 107.760414 69.94063 108.479164Q69.94063 109.18229 69.51875 109.80729Q69.1125 110.416664 68.33125 110.760414Q67.56563 111.104164 66.59688 111.104164Q64.97188 111.104164 64.12813 110.43229Q63.284374 109.760414 63.05 108.43229ZM77.01875 107.86979L78.40938 108.05729Q78.175 109.479164 77.2375 110.291664Q76.31563 111.104164 74.95625 111.104164Q73.25313 111.104164 72.20625 109.99479Q71.175 108.86979 71.175 106.791664Q71.175 105.447914 71.6125 104.447914Q72.06563 103.43229 72.97188 102.93229Q73.89375 102.43229 74.95625 102.43229Q76.31563 102.43229 77.175 103.11979Q78.03438 103.791664 78.26875 105.05729L76.90938 105.260414Q76.70625 104.43229 76.20625 104.010414Q75.72188 103.58854 75.01875 103.58854Q73.95625 103.58854 73.28438 104.354164Q72.62813 105.104164 72.62813 106.760414Q72.62813 108.43229 73.26875 109.197914Q73.90938 109.947914 74.94063 109.947914Q75.76875 109.947914 76.31563 109.447914Q76.87813 108.93229 77.01875 107.86979ZM85.01875 109.885414Q84.2375 110.55729 83.51875 110.83854Q82.8 111.104164 81.97188 111.104164Q80.59688 111.104164 79.8625 110.43229Q79.12813 109.760414 79.12813 108.729164Q79.12813 108.11979 79.40938 107.61979Q79.69063 107.104164 80.12813 106.80729Q80.58125 106.49479 81.14375 106.33854Q81.56563 106.229164 82.39375 106.135414Q84.09688 105.93229 84.90938 105.65104Q84.90938 105.354164 84.90938 105.27604Q84.90938 104.416664 84.51875 104.072914Q83.97188 103.58854 82.90938 103.58854Q81.925 103.58854 81.44063 103.947914Q80.97188 104.291664 80.75313 105.166664L79.37813 104.979164Q79.56563 104.104164 79.9875 103.55729Q80.425 103.010414 81.2375 102.729164Q82.05 102.43229 83.1125 102.43229Q84.175 102.43229 84.83125 102.68229Q85.50313 102.93229 85.81563 103.30729Q86.12813 103.68229 86.25313 104.260414Q86.33125 104.61979 86.33125 105.55729L86.33125 107.43229Q86.33125 109.40104 86.40938 109.916664Q86.50313 110.43229 86.76875 110.916664L85.3 110.916664Q85.08125 110.479164 85.01875 109.885414ZM84.90938 106.74479Q84.14375 107.05729 82.6125 107.27604Q81.7375 107.40104 81.37813 107.55729Q81.01875 107.71354 80.81563 108.02604Q80.62813 108.322914 80.62813 108.68229Q80.62813 109.24479 81.05 109.61979Q81.4875 109.99479 82.3 109.99479Q83.1125 109.99479 83.7375 109.65104Q84.37813 109.291664 84.675 108.666664Q84.90938 108.197914 84.90938 107.260414L84.90938 106.74479ZM88.6125 114.104164L88.6125 102.61979L89.89375 102.61979L89.89375 103.697914Q90.34688 103.05729 90.90938 102.74479Q91.4875 102.43229 92.3 102.43229Q93.3625 102.43229 94.175 102.979164Q94.9875 103.52604 95.39375 104.52604Q95.81563 105.510414 95.81563 106.697914Q95.81563 107.979164 95.34688 108.99479Q94.89375 110.010414 94.01875 110.55729Q93.15938 111.104164 92.19063 111.104164Q91.4875 111.104164 90.925 110.80729Q90.37813 110.510414 90.01875 110.05729L90.01875 114.104164L88.6125 114.104164ZM89.87813 106.80729Q89.87813 108.416664 90.51875 109.18229Q91.175 109.947914 92.09688 109.947914Q93.03438 109.947914 93.70625 109.15104Q94.37813 108.354164 94.37813 106.697914Q94.37813 105.104164 93.72188 104.322914Q93.06563 103.52604 92.15938 103.52604Q91.26875 103.52604 90.56563 104.36979Q89.87813 105.21354 89.87813 106.80729ZM103.28438 108.24479L104.7375 108.416664Q104.39375 109.697914 103.45625 110.40104Q102.53438 111.104164 101.09688 111.104164Q99.26875 111.104164 98.20625 109.979164Q97.14375 108.854164 97.14375 106.83854Q97.14375 104.74479 98.22188 103.58854Q99.3 102.43229 101.01875 102.43229Q102.675 102.43229 103.72188 103.572914Q104.78438 104.697914 104.78438 106.74479Q104.78438 106.86979 104.78438 107.11979L98.59688 107.11979Q98.675 108.49479 99.3625 109.229164Q100.06563 109.947914 101.09688 109.947914Q101.87813 109.947914 102.425 109.541664Q102.97188 109.135414 103.28438 108.24479ZM98.675 105.96354L103.3 105.96354Q103.20625 104.916664 102.76875 104.40104Q102.09688 103.58854 101.03438 103.58854Q100.06563 103.58854 99.39375 104.24479Q98.7375 104.885414 98.675 105.96354Z" fill-rule="nonzero"/><path fill="#9e9e9e" d="M21.378124 126.69792Q20.503124 126.38542 20.08125 125.79167Q19.659374 125.19792 19.659374 124.3698Q19.659374 123.1198 20.55 122.27605Q21.45625 121.41667 22.95625 121.41667Q24.45625 121.41667 25.3625 122.29167Q26.284374 123.15105 26.284374 124.40105Q26.284374 125.19792 25.8625 125.79167Q25.440624 126.38542 24.596874 126.69792Q25.64375 127.04167 26.190624 127.8073Q26.753124 128.57292 26.753124 129.63542Q26.753124 131.10417 25.70625 132.1198Q24.675 133.1198 22.971874 133.1198Q21.284374 133.1198 20.2375 132.1198Q19.20625 131.10417 19.20625 129.60417Q19.20625 128.47917 19.76875 127.72917Q20.33125 126.97917 21.378124 126.69792ZM21.096874 124.32292Q21.096874 125.13542 21.6125 125.65105Q22.14375 126.16667 22.9875 126.16667Q23.8 126.16667 24.315624 125.65105Q24.83125 125.13542 24.83125 124.40105Q24.83125 123.6198 24.3 123.10417Q23.76875 122.57292 22.971874 122.57292Q22.159374 122.57292 21.628124 123.08855Q21.096874 123.60417 21.096874 124.32292ZM20.64375 129.60417Q20.64375 130.21355 20.925 130.77605Q21.221874 131.33855 21.784374 131.65105Q22.346874 131.94792 22.9875 131.94792Q24.003124 131.94792 24.659374 131.3073Q25.315624 130.65105 25.315624 129.65105Q25.315624 128.63542 24.628124 127.97917Q23.95625 127.3073 22.940624 127.3073Q21.95625 127.3073 21.3 127.96355Q20.64375 128.6198 20.64375 129.60417ZM29.003124 132.91667L29.003124 131.3073L30.6125 131.3073L30.6125 132.91667L29.003124 132.91667ZM39.6125 131.5573L39.6125 132.91667L32.034374 132.91667Q32.01875 132.40105 32.20625 131.9323Q32.4875 131.16667 33.128124 130.41667Q33.76875 129.66667 34.971874 128.6823Q36.83125 127.15105 37.4875 126.26042Q38.14375 125.35417 38.14375 124.5573Q38.14375 123.72917 37.55 123.15105Q36.95625 122.57292 35.9875 122.57292Q34.971874 122.57292 34.3625 123.1823Q33.753124 123.79167 33.753124 124.8698L32.3 124.72917Q32.45625 123.10417 33.425 122.26042Q34.39375 121.41667 36.01875 121.41667Q37.675 121.41667 38.628124 122.33855Q39.596874 123.2448 39.596874 124.58855Q39.596874 125.27605 39.315624 125.94792Q39.034374 126.60417 38.378124 127.33855Q37.721874 128.07292 36.20625 129.35417Q34.940624 130.41667 34.58125 130.8073Q34.221874 131.1823 33.9875 131.5573L39.6125 131.5573ZM41.4875 124.21355Q41.4875 122.97917 42.096874 122.1198Q42.721874 121.26042 43.89375 121.26042Q44.971874 121.26042 45.675 122.04167Q46.378124 122.8073 46.378124 124.29167Q46.378124 125.7448 45.659374 126.54167Q44.95625 127.32292 43.909374 127.32292Q42.8625 127.32292 42.175 126.5573Q41.4875 125.77605 41.4875 124.21355ZM43.925 122.22917Q43.409374 122.22917 43.05 122.6823Q42.70625 123.13542 42.70625 124.35417Q42.70625 125.44792 43.05 125.90105Q43.409374 126.35417 43.925 126.35417Q44.45625 126.35417 44.8 125.90105Q45.159374 125.44792 45.159374 124.2448Q45.159374 123.13542 44.8 122.6823Q44.45625 122.22917 43.925 122.22917ZM43.940624 133.33855L50.20625 121.26042L51.346874 121.26042L45.096874 133.33855L43.940624 133.33855ZM48.89375 130.22917Q48.89375 128.9948 49.503124 128.13542Q50.128124 127.27605 51.3 127.27605Q52.378124 127.27605 53.08125 128.0573Q53.8 128.82292 53.8 130.3073Q53.8 131.76042 53.08125 132.5573Q52.3625 133.33855 51.315624 133.33855Q50.26875 133.33855 49.58125 132.5573Q48.89375 131.77605 48.89375 130.22917ZM51.346874 128.2448Q50.815624 128.2448 50.45625 128.69792Q50.1125 129.15105 50.1125 130.3698Q50.1125 131.46355 50.45625 131.91667Q50.815624 132.3698 51.33125 132.3698Q51.878124 132.3698 52.221874 131.91667Q52.565624 131.46355 52.565624 130.26042Q52.565624 129.15105 52.20625 128.69792Q51.8625 128.2448 51.346874 128.2448Z" fill-rule="nonzero"/><path stroke="#757575" stroke-width="1.0" stroke-linecap="butt" d="M18.55 116.416664L145.23334 116.416664L252.29845 70.64853" fill-rule="nonzero"/><path fill="#9e9e9e" d="M254.29845 70.64853C254.29845 69.54395 253.40302 68.64853 252.29845 68.64853C251.19388 68.64853 250.29845 69.54395 250.29845 70.64853C250.29845 71.7531 251.19388 72.64853 252.29845 72.64853C253.40302 72.64853 254.29845 71.7531 254.29845 70.64853" fill-rule="nonzero"/><path fill="#efefef" d="M19.76875 151.91667L19.76875 140.46355L21.33125 140.46355L27.346874 149.44792L27.346874 140.46355L28.8 140.46355L28.8 151.91667L27.2375 151.91667L21.221874 142.91667L21.221874 151.91667L19.76875 151.91667ZM37.01875 150.88542Q36.2375 151.5573 35.51875 151.83855Q34.8 152.10417 33.971874 152.10417Q32.596874 152.10417 31.8625 151.4323Q31.128124 150.76042 31.128124 149.72917Q31.128124 149.1198 31.409374 148.6198Q31.690624 148.10417 32.128124 147.8073Q32.58125 147.4948 33.14375 147.33855Q33.565624 147.22917 34.39375 147.13542Q36.096874 146.9323 36.909374 146.65105Q36.909374 146.35417 36.909374 146.27605Q36.909374 145.41667 36.51875 145.07292Q35.971874 144.58855 34.909374 144.58855Q33.925 144.58855 33.440624 144.94792Q32.971874 145.29167 32.753124 146.16667L31.378124 145.97917Q31.565624 145.10417 31.9875 144.5573Q32.425 144.01042 33.2375 143.72917Q34.05 143.4323 35.1125 143.4323Q36.175 143.4323 36.83125 143.6823Q37.503124 143.9323 37.815624 144.3073Q38.128124 144.6823 38.253124 145.26042Q38.33125 145.6198 38.33125 146.5573L38.33125 148.4323Q38.33125 150.40105 38.409374 150.91667Q38.503124 151.4323 38.76875 151.91667L37.3 151.91667Q37.08125 151.47917 37.01875 150.88542ZM36.909374 147.7448Q36.14375 148.0573 34.6125 148.27605Q33.7375 148.40105 33.378124 148.5573Q33.01875 148.71355 32.815624 149.02605Q32.628124 149.32292 32.628124 149.6823Q32.628124 150.2448 33.05 150.6198Q33.4875 150.9948 34.3 150.9948Q35.1125 150.9948 35.7375 150.65105Q36.378124 150.29167 36.675 149.66667Q36.909374 149.19792 36.909374 148.26042L36.909374 147.7448ZM43.675 150.65105L43.878124 151.90105Q43.284374 152.02605 42.815624 152.02605Q42.05 152.02605 41.628124 151.79167Q41.20625 151.54167 41.034374 151.15105Q40.8625 150.7448 40.8625 149.47917L40.8625 144.71355L39.83125 144.71355L39.83125 143.6198L40.8625 143.6198L40.8625 141.5573L42.26875 140.71355L42.26875 143.6198L43.675 143.6198L43.675 144.71355L42.26875 144.71355L42.26875 149.5573Q42.26875 150.16667 42.33125 150.33855Q42.409374 150.51042 42.58125 150.6198Q42.753124 150.71355 43.065624 150.71355Q43.3 150.71355 43.675 150.65105ZM50.05 151.91667L50.05 150.69792Q49.08125 152.10417 47.409374 152.10417Q46.675 152.10417 46.034374 151.82292Q45.409374 151.54167 45.096874 151.1198Q44.784374 150.6823 44.659374 150.07292Q44.58125 149.65105 44.58125 148.76042L44.58125 143.6198L45.9875 143.6198L45.9875 148.21355Q45.9875 149.32292 46.065624 149.69792Q46.20625 150.26042 46.628124 150.57292Q47.065624 150.88542 47.690624 150.88542Q48.33125 150.88542 48.878124 150.57292Q49.440624 150.2448 49.659374 149.6823Q49.89375 149.1198 49.89375 148.0573L49.89375 143.6198L51.3 143.6198L51.3 151.91667L50.05 151.91667ZM53.596874 151.91667L53.596874 143.6198L54.8625 143.6198L54.8625 144.8698Q55.346874 143.9948 55.753124 143.71355Q56.159374 143.4323 56.659374 143.4323Q57.3625 143.4323 58.096874 143.88542L57.6125 145.1823Q57.096874 144.88542 56.58125 144.88542Q56.128124 144.88542 55.753124 145.16667Q55.39375 145.4323 55.2375 145.9323Q55.003124 146.6823 55.003124 147.57292L55.003124 151.91667L53.596874 151.91667ZM64.28438 149.2448L65.7375 149.41667Q65.39375 150.69792 64.45625 151.40105Q63.534374 152.10417 62.096874 152.10417Q60.26875 152.10417 59.20625 150.97917Q58.14375 149.85417 58.14375 147.83855Q58.14375 145.7448 59.221874 144.58855Q60.3 143.4323 62.01875 143.4323Q63.675 143.4323 64.72188 144.57292Q65.78438 145.69792 65.78438 147.7448Q65.78438 147.8698 65.78438 148.1198L59.596874 148.1198Q59.675 149.4948 60.3625 150.22917Q61.065624 150.94792 62.096874 150.94792Q62.878124 150.94792 63.425 150.54167Q63.971874 150.13542 64.28438 149.2448ZM59.675 146.96355L64.3 146.96355Q64.20625 145.91667 63.76875 145.40105Q63.096874 144.58855 62.034374 144.58855Q61.065624 144.58855 60.39375 145.2448Q59.7375 145.88542 59.675 146.96355ZM67.05 149.4323L68.44063 149.21355Q68.55 150.0573 69.08125 150.51042Q69.62813 150.94792 70.58125 150.94792Q71.55 150.94792 72.01875 150.5573Q72.4875 150.15105 72.4875 149.6198Q72.4875 149.15105 72.08125 148.8698Q71.78438 148.6823 70.64375 148.40105Q69.09688 148.01042 68.4875 147.72917Q67.89375 147.4323 67.58125 146.9323Q67.28438 146.4323 67.28438 145.82292Q67.28438 145.26042 67.53438 144.79167Q67.78438 144.32292 68.22188 144.01042Q68.55 143.76042 69.1125 143.60417Q69.69063 143.4323 70.33125 143.4323Q71.31563 143.4323 72.05 143.71355Q72.78438 143.9948 73.12813 144.47917Q73.4875 144.94792 73.62813 145.76042L72.25313 145.94792Q72.15938 145.3073 71.70625 144.94792Q71.25313 144.58855 70.44063 144.58855Q69.47188 144.58855 69.05 144.91667Q68.64375 145.22917 68.64375 145.65105Q68.64375 145.9323 68.81563 146.15105Q68.9875 146.3698 69.34688 146.52605Q69.56563 146.60417 70.59688 146.88542Q72.08125 147.27605 72.675 147.54167Q73.26875 147.79167 73.59688 148.27605Q73.94063 148.76042 73.94063 149.47917Q73.94063 150.1823 73.51875 150.8073Q73.1125 151.41667 72.33125 151.76042Q71.56563 152.10417 70.59688 152.10417Q68.97188 152.10417 68.12813 151.4323Q67.28438 150.76042 67.05 149.4323ZM81.01875 148.8698L82.40938 149.0573Q82.175 150.47917 81.2375 151.29167Q80.31563 152.10417 78.95625 152.10417Q77.25313 152.10417 76.20625 150.9948Q75.175 149.8698 75.175 147.79167Q75.175 146.44792 75.6125 145.44792Q76.06563 144.4323 76.97188 143.9323Q77.89375 143.4323 78.95625 143.4323Q80.31563 143.4323 81.175 144.1198Q82.03438 144.79167 82.26875 146.0573L80.90938 146.26042Q80.70625 145.4323 80.20625 145.01042Q79.72188 144.58855 79.01875 144.58855Q77.95625 144.58855 77.28438 145.35417Q76.62813 146.10417 76.62813 147.76042Q76.62813 149.4323 77.26875 150.19792Q77.90938 150.94792 78.94063 150.94792Q79.76875 150.94792 80.31563 150.44792Q80.87813 149.9323 81.01875 148.8698ZM89.01875 150.88542Q88.2375 151.5573 87.51875 151.83855Q86.8 152.10417 85.97188 152.10417Q84.59688 152.10417 83.8625 151.4323Q83.12813 150.76042 83.12813 149.72917Q83.12813 149.1198 83.40938 148.6198Q83.69063 148.10417 84.12813 147.8073Q84.58125 147.4948 85.14375 147.33855Q85.56563 147.22917 86.39375 147.13542Q88.09688 146.9323 88.90938 146.65105Q88.90938 146.35417 88.90938 146.27605Q88.90938 145.41667 88.51875 145.07292Q87.97188 144.58855 86.90938 144.58855Q85.925 144.58855 85.44063 144.94792Q84.97188 145.29167 84.75313 146.16667L83.37813 145.97917Q83.56563 145.10417 83.9875 144.5573Q84.425 144.01042 85.2375 143.72917Q86.05 143.4323 87.1125 143.4323Q88.175 143.4323 88.83125 143.6823Q89.50313 143.9323 89.81563 144.3073Q90.12813 144.6823 90.25313 145.26042Q90.33125 145.6198 90.33125 146.5573L90.33125 148.4323Q90.33125 150.40105 90.40938 150.91667Q90.50313 151.4323 90.76875 151.91667L89.3 151.91667Q89.08125 151.47917 89.01875 150.88542ZM88.90938 147.7448Q88.14375 148.0573 86.6125 148.27605Q85.7375 148.40105 85.37813 148.5573Q85.01875 148.71355 84.81563 149.02605Q84.62813 149.32292 84.62813 149.6823Q84.62813 150.2448 85.05 150.6198Q85.4875 150.9948 86.3 150.9948Q87.1125 150.9948 87.7375 150.65105Q88.37813 150.29167 88.675 149.66667Q88.90938 149.19792 88.90938 148.26042L88.90938 147.7448ZM92.6125 155.10417L92.6125 143.6198L93.89375 143.6198L93.89375 144.69792Q94.34688 144.0573 94.90938 143.7448Q95.4875 143.4323 96.3 143.4323Q97.3625 143.4323 98.175 143.97917Q98.9875 144.52605 99.39375 145.52605Q99.81563 146.51042 99.81563 147.69792Q99.81563 148.97917 99.34688 149.9948Q98.89375 151.01042 98.01875 151.5573Q97.15938 152.10417 96.19063 152.10417Q95.4875 152.10417 94.925 151.8073Q94.37813 151.51042 94.01875 151.0573L94.01875 155.10417L92.6125 155.10417ZM93.87813 147.8073Q93.87813 149.41667 94.51875 150.1823Q95.175 150.94792 96.09688 150.94792Q97.03438 150.94792 97.70625 150.15105Q98.37813 149.35417 98.37813 147.69792Q98.37813 146.10417 97.72188 145.32292Q97.06563 144.52605 96.15938 144.52605Q95.26875 144.52605 94.56563 145.3698Q93.87813 146.21355 93.87813 147.8073ZM107.28438 149.2448L108.7375 149.41667Q108.39375 150.69792 107.45625 151.40105Q106.53438 152.10417 105.09688 152.10417Q103.26875 152.10417 102.20625 150.97917Q101.14375 149.85417 101.14375 147.83855Q101.14375 145.7448 102.22188 144.58855Q103.3 143.4323 105.01875 143.4323Q106.675 143.4323 107.72188 144.57292Q108.78438 145.69792 108.78438 147.7448Q108.78438 147.8698 108.78438 148.1198L102.59688 148.1198Q102.675 149.4948 103.3625 150.22917Q104.06563 150.94792 105.09688 150.94792Q105.87813 150.94792 106.425 150.54167Q106.97188 150.13542 107.28438 149.2448ZM102.675 146.96355L107.3 146.96355Q107.20625 145.91667 106.76875 145.40105Q106.09688 144.58855 105.03438 144.58855Q104.06563 144.58855 103.39375 145.2448Q102.7375 145.88542 102.675 146.96355Z" fill-rule="nonzero"/><path fill="#9e9e9e" d="M24.51875 173.91667L23.1125 173.91667L23.1125 164.94792Q22.596874 165.4323 21.76875 165.91667Q20.95625 166.40105 20.3 166.65105L20.3 165.29167Q21.471874 164.72917 22.346874 163.94792Q23.2375 163.15105 23.6125 162.41667L24.51875 162.41667L24.51875 173.91667ZM35.51875 165.26042L34.1125 165.3698Q33.925 164.54167 33.58125 164.16667Q33.01875 163.57292 32.175 163.57292Q31.503124 163.57292 31.003124 163.94792Q30.33125 164.4323 29.940624 165.3698Q29.565624 166.29167 29.55 168.01042Q30.065624 167.22917 30.8 166.85417Q31.534374 166.47917 32.33125 166.47917Q33.7375 166.47917 34.721874 167.52605Q35.721874 168.5573 35.721874 170.19792Q35.721874 171.27605 35.253124 172.19792Q34.784374 173.1198 33.971874 173.6198Q33.159374 174.1198 32.128124 174.1198Q30.378124 174.1198 29.26875 172.82292Q28.159374 171.52605 28.159374 168.5573Q28.159374 165.22917 29.378124 163.72917Q30.45625 162.41667 32.26875 162.41667Q33.6125 162.41667 34.471874 163.1823Q35.346874 163.9323 35.51875 165.26042ZM29.76875 170.19792Q29.76875 170.9323 30.08125 171.60417Q30.39375 172.26042 30.940624 172.60417Q31.503124 172.94792 32.1125 172.94792Q33.003124 172.94792 33.64375 172.22917Q34.284374 171.51042 34.284374 170.27605Q34.284374 169.08855 33.64375 168.41667Q33.01875 167.72917 32.05 167.72917Q31.096874 167.72917 30.425 168.41667Q29.76875 169.08855 29.76875 170.19792ZM38.003124 173.91667L38.003124 172.3073L39.6125 172.3073L39.6125 173.91667L38.003124 173.91667ZM45.721874 173.91667L45.721874 171.16667L40.753124 171.16667L40.753124 169.88542L45.9875 162.46355L47.128124 162.46355L47.128124 169.88542L48.675 169.88542L48.675 171.16667L47.128124 171.16667L47.128124 173.91667L45.721874 173.91667ZM45.721874 169.88542L45.721874 164.71355L42.14375 169.88542L45.721874 169.88542ZM50.4875 165.21355Q50.4875 163.97917 51.096874 163.1198Q51.721874 162.26042 52.89375 162.26042Q53.971874 162.26042 54.675 163.04167Q55.378124 163.8073 55.378124 165.29167Q55.378124 166.7448 54.659374 167.54167Q53.95625 168.32292 52.909374 168.32292Q51.8625 168.32292 51.175 167.5573Q50.4875 166.77605 50.4875 165.21355ZM52.925 163.22917Q52.409374 163.22917 52.05 163.6823Q51.70625 164.13542 51.70625 165.35417Q51.70625 166.44792 52.05 166.90105Q52.409374 167.35417 52.925 167.35417Q53.45625 167.35417 53.8 166.90105Q54.159374 166.44792 54.159374 165.2448Q54.159374 164.13542 53.8 163.6823Q53.45625 163.22917 52.925 163.22917ZM52.940624 174.33855L59.20625 162.26042L60.346874 162.26042L54.096874 174.33855L52.940624 174.33855ZM57.89375 171.22917Q57.89375 169.9948 58.503124 169.13542Q59.128124 168.27605 60.3 168.27605Q61.378124 168.27605 62.08125 169.0573Q62.8 169.82292 62.8 171.3073Q62.8 172.76042 62.08125 173.5573Q61.3625 174.33855 60.315624 174.33855Q59.26875 174.33855 58.58125 173.5573Q57.89375 172.77605 57.89375 171.22917ZM60.346874 169.2448Q59.815624 169.2448 59.45625 169.69792Q59.1125 170.15105 59.1125 171.3698Q59.1125 172.46355 59.45625 172.91667Q59.815624 173.3698 60.33125 173.3698Q60.878124 173.3698 61.221874 172.91667Q61.565624 172.46355 61.565624 171.26042Q61.565624 170.15105 61.20625 169.69792Q60.8625 169.2448 60.346874 169.2448Z" fill-rule="nonzero"/><path stroke="#757575" stroke-width="1.0" stroke-linecap="butt" d="M18.55 157.41667L145.23334 157.41667L172.85667 141.97214" fill-rule="nonzero"/><path fill="#9e9e9e" d="M174.85667 141.97214C174.85667 140.86757 173.96124 139.97214 172.85667 139.97214C171.7521 139.97214 170.85667 140.86757 170.85667 141.97214C170.85667 143.0767 171.7521 143.97214 172.85667 143.97214C173.96124 143.97214 174.85667 143.0767 174.85667 141.97214" fill-rule="nonzero"/><path fill="#efefef" d="M18.51875 225.10907L22.925 213.65594L24.565624 213.65594L29.253124 225.10907L27.51875 225.10907L26.190624 221.64032L21.39375 221.64032L20.14375 225.10907L18.51875 225.10907ZM21.83125 220.40594L25.721874 220.40594L24.51875 217.23407Q23.971874 215.78094 23.70625 214.85907Q23.4875 215.95282 23.096874 217.04657L21.83125 220.40594ZM30.6125 225.10907L30.6125 216.8122L31.878124 216.8122L31.878124 217.98407Q32.784374 216.6247 34.51875 216.6247Q35.26875 216.6247 35.89375 216.89032Q36.51875 217.15594 36.83125 217.59344Q37.14375 218.03094 37.26875 218.64032Q37.346874 219.03094 37.346874 219.9997L37.346874 225.10907L35.940624 225.10907L35.940624 220.0622Q35.940624 219.20282 35.76875 218.78094Q35.6125 218.34344 35.190624 218.09344Q34.784374 217.84344 34.221874 217.84344Q33.315624 217.84344 32.659374 218.42157Q32.01875 218.98407 32.01875 220.57782L32.01875 225.10907L30.6125 225.10907ZM39.6125 215.26532L39.6125 213.65594L41.01875 213.65594L41.01875 215.26532L39.6125 215.26532ZM39.6125 225.10907L39.6125 216.8122L41.01875 216.8122L41.01875 225.10907L39.6125 225.10907ZM43.6125 225.10907L43.6125 216.8122L44.8625 216.8122L44.8625 217.96844Q45.253124 217.35907 45.89375 216.9997Q46.55 216.6247 47.378124 216.6247Q48.3 216.6247 48.89375 217.01532Q49.4875 217.39032 49.721874 218.07782Q50.70625 216.6247 52.284374 216.6247Q53.51875 216.6247 54.175 217.3122Q54.846874 217.98407 54.846874 219.40594L54.846874 225.10907L53.45625 225.10907L53.45625 219.8747Q53.45625 219.03094 53.315624 218.67157Q53.175 218.29657 52.815624 218.07782Q52.45625 217.84344 51.971874 217.84344Q51.096874 217.84344 50.51875 218.42157Q49.940624 218.9997 49.940624 220.28094L49.940624 225.10907L48.534374 225.10907L48.534374 219.71844Q48.534374 218.78094 48.190624 218.3122Q47.846874 217.84344 47.065624 217.84344Q46.471874 217.84344 45.971874 218.15594Q45.471874 218.46844 45.2375 219.07782Q45.01875 219.67157 45.01875 220.79657L45.01875 225.10907L43.6125 225.10907ZM62.01875 224.07782Q61.2375 224.7497 60.51875 225.03094Q59.8 225.29657 58.971874 225.29657Q57.596874 225.29657 56.8625 224.6247Q56.128124 223.95282 56.128124 222.92157Q56.128124 222.3122 56.409374 221.8122Q56.690624 221.29657 57.128124 220.9997Q57.58125 220.6872 58.14375 220.53094Q58.565624 220.42157 59.39375 220.32782Q61.096874 220.1247 61.909374 219.84344Q61.909374 219.54657 61.909374 219.46844Q61.909374 218.60907 61.51875 218.26532Q60.971874 217.78094 59.909374 217.78094Q58.925 217.78094 58.440624 218.14032Q57.971874 218.48407 57.753124 219.35907L56.378124 219.17157Q56.565624 218.29657 56.9875 217.7497Q57.425 217.20282 58.2375 216.92157Q59.05 216.6247 60.1125 216.6247Q61.175 216.6247 61.83125 216.8747Q62.503124 217.1247 62.815624 217.4997Q63.128124 217.8747 63.253124 218.45282Q63.33125 218.8122 63.33125 219.7497L63.33125 221.6247Q63.33125 223.59344 63.409374 224.10907Q63.503124 224.6247 63.76875 225.10907L62.3 225.10907Q62.08125 224.67157 62.01875 224.07782ZM61.909374 220.9372Q61.14375 221.2497 59.6125 221.46844Q58.7375 221.59344 58.378124 221.7497Q58.01875 221.90594 57.815624 222.21844Q57.628124 222.51532 57.628124 222.8747Q57.628124 223.4372 58.05 223.8122Q58.4875 224.1872 59.3 224.1872Q60.1125 224.1872 60.7375 223.84344Q61.378124 223.48407 61.675 222.85907Q61.909374 222.39032 61.909374 221.45282L61.909374 220.9372ZM65.58125 225.10907L65.58125 213.65594L66.9875 213.65594L66.9875 225.10907L65.58125 225.10907ZM69.05 222.6247L70.44063 222.40594Q70.55 223.2497 71.08125 223.70282Q71.62813 224.14032 72.58125 224.14032Q73.55 224.14032 74.01875 223.7497Q74.4875 223.34344 74.4875 222.8122Q74.4875 222.34344 74.08125 222.0622Q73.78438 221.8747 72.64375 221.59344Q71.09688 221.20282 70.4875 220.92157Q69.89375 220.6247 69.58125 220.1247Q69.28438 219.6247 69.28438 219.01532Q69.28438 218.45282 69.53438 217.98407Q69.78438 217.51532 70.22188 217.20282Q70.55 216.95282 71.1125 216.79657Q71.69063 216.6247 72.33125 216.6247Q73.31563 216.6247 74.05 216.90594Q74.78438 217.1872 75.12813 217.67157Q75.4875 218.14032 75.62813 218.95282L74.25313 219.14032Q74.15938 218.4997 73.70625 218.14032Q73.25313 217.78094 72.44063 217.78094Q71.47188 217.78094 71.05 218.10907Q70.64375 218.42157 70.64375 218.84344Q70.64375 219.1247 70.81563 219.34344Q70.9875 219.5622 71.34688 219.71844Q71.56563 219.79657 72.59688 220.07782Q74.08125 220.46844 74.675 220.73407Q75.26875 220.98407 75.59688 221.46844Q75.94063 221.95282 75.94063 222.67157Q75.94063 223.3747 75.51875 223.9997Q75.1125 224.60907 74.33125 224.95282Q73.56563 225.29657 72.59688 225.29657Q70.97188 225.29657 70.12813 224.6247Q69.28438 223.95282 69.05 222.6247Z" fill-rule="nonzero"/><path fill="#9e9e9e" d="M19.221874 244.10907L20.690624 243.98407Q20.8625 245.0622 21.45625 245.60907Q22.05 246.14032 22.89375 246.14032Q23.909374 246.14032 24.6125 245.3747Q25.315624 244.60907 25.315624 243.34344Q25.315624 242.14032 24.64375 241.45282Q23.971874 240.7497 22.878124 240.7497Q22.190624 240.7497 21.64375 241.0622Q21.096874 241.3747 20.784374 241.85907L19.471874 241.6872L20.58125 235.8122L26.26875 235.8122L26.26875 237.15594L21.70625 237.15594L21.08125 240.23407Q22.1125 239.51532 23.253124 239.51532Q24.753124 239.51532 25.784374 240.5622Q26.815624 241.59344 26.815624 243.21844Q26.815624 244.78094 25.909374 245.90594Q24.8 247.3122 22.89375 247.3122Q21.33125 247.3122 20.346874 246.4372Q19.3625 245.54657 19.221874 244.10907ZM29.003124 247.10907L29.003124 245.4997L30.6125 245.4997L30.6125 247.10907L29.003124 247.10907ZM32.221874 244.10907L33.690624 243.98407Q33.8625 245.0622 34.45625 245.60907Q35.05 246.14032 35.89375 246.14032Q36.909374 246.14032 37.6125 245.3747Q38.315624 244.60907 38.315624 243.34344Q38.315624 242.14032 37.64375 241.45282Q36.971874 240.7497 35.878124 240.7497Q35.190624 240.7497 34.64375 241.0622Q34.096874 241.3747 33.784374 241.85907L32.471874 241.6872L33.58125 235.8122L39.26875 235.8122L39.26875 237.15594L34.70625 237.15594L34.08125 240.23407Q35.1125 239.51532 36.253124 239.51532Q37.753124 239.51532 38.784374 240.5622Q39.815624 241.59344 39.815624 243.21844Q39.815624 244.78094 38.909374 245.90594Q37.8 247.3122 35.89375 247.3122Q34.33125 247.3122 33.346874 246.4372Q32.3625 245.54657 32.221874 244.10907ZM41.4875 238.40594Q41.4875 237.17157 42.096874 236.3122Q42.721874 235.45282 43.89375 235.45282Q44.971874 235.45282 45.675 236.23407Q46.378124 236.9997 46.378124 238.48407Q46.378124 239.9372 45.659374 240.73407Q44.95625 241.51532 43.909374 241.51532Q42.8625 241.51532 42.175 240.7497Q41.4875 239.96844 41.4875 238.40594ZM43.925 236.42157Q43.409374 236.42157 43.05 236.8747Q42.70625 237.32782 42.70625 238.54657Q42.70625 239.64032 43.05 240.09344Q43.409374 240.54657 43.925 240.54657Q44.45625 240.54657 44.8 240.09344Q45.159374 239.64032 45.159374 238.4372Q45.159374 237.32782 44.8 236.8747Q44.45625 236.42157 43.925 236.42157ZM43.940624 247.53094L50.20625 235.45282L51.346874 235.45282L45.096874 247.53094L43.940624 247.53094ZM48.89375 244.42157Q48.89375 243.1872 49.503124 242.32782Q50.128124 241.46844 51.3 241.46844Q52.378124 241.46844 53.08125 242.2497Q53.8 243.01532 53.8 244.4997Q53.8 245.95282 53.08125 246.7497Q52.3625 247.53094 51.315624 247.53094Q50.26875 247.53094 49.58125 246.7497Q48.89375 245.96844 48.89375 244.42157ZM51.346874 242.4372Q50.815624 242.4372 50.45625 242.89032Q50.1125 243.34344 50.1125 244.5622Q50.1125 245.65594 50.45625 246.10907Q50.815624 246.5622 51.33125 246.5622Q51.878124 246.5622 52.221874 246.10907Q52.565624 245.65594 52.565624 244.45282Q52.565624 243.34344 52.20625 242.89032Q51.8625 242.4372 51.346874 242.4372Z" fill-rule="nonzero"/><path stroke="#757575" stroke-width="1.0" stroke-linecap="butt" d="M18.55 230.60907L145.23334 230.60907L162.61215 236.82361" fill-rule="nonzero"/><path fill="#9e9e9e" d="M164.61215 236.82361C164.61215 235.71904 163.71672 234.82361 162.61215 234.82361C161.50758 234.82361 160.61215 235.71904 160.61215 236.82361C160.61215 237.92818 161.50758 238.82361 162.61215 238.82361C163.71672 238.82361 164.61215 237.92818 164.61215 236.82361" fill-rule="nonzero"/><path fill="#efefef" d="M19.784374 266.10907L19.784374 254.65594L24.1125 254.65594Q25.253124 254.65594 25.846874 254.76532Q26.690624 254.90594 27.253124 255.29657Q27.83125 255.6872 28.175 256.40594Q28.534374 257.10907 28.534374 257.96844Q28.534374 259.42157 27.596874 260.4372Q26.675 261.45282 24.2375 261.45282L21.3 261.45282L21.3 266.10907L19.784374 266.10907ZM21.3 260.09344L24.26875 260.09344Q25.7375 260.09344 26.346874 259.54657Q26.971874 258.9997 26.971874 258.01532Q26.971874 257.29657 26.596874 256.78094Q26.2375 256.26532 25.64375 256.10907Q25.26875 255.9997 24.2375 255.9997L21.3 255.9997L21.3 260.09344ZM30.58125 266.10907L30.58125 254.65594L31.9875 254.65594L31.9875 266.10907L30.58125 266.10907ZM40.01875 265.07782Q39.2375 265.7497 38.51875 266.03094Q37.8 266.29657 36.971874 266.29657Q35.596874 266.29657 34.8625 265.6247Q34.128124 264.95282 34.128124 263.92157Q34.128124 263.3122 34.409374 262.8122Q34.690624 262.29657 35.128124 261.9997Q35.58125 261.6872 36.14375 261.53094Q36.565624 261.42157 37.39375 261.32782Q39.096874 261.1247 39.909374 260.84344Q39.909374 260.54657 39.909374 260.46844Q39.909374 259.60907 39.51875 259.26532Q38.971874 258.78094 37.909374 258.78094Q36.925 258.78094 36.440624 259.14032Q35.971874 259.48407 35.753124 260.35907L34.378124 260.17157Q34.565624 259.29657 34.9875 258.7497Q35.425 258.20282 36.2375 257.92157Q37.05 257.6247 38.1125 257.6247Q39.175 257.6247 39.83125 257.8747Q40.503124 258.1247 40.815624 258.4997Q41.128124 258.8747 41.253124 259.45282Q41.33125 259.8122 41.33125 260.7497L41.33125 262.6247Q41.33125 264.59344 41.409374 265.10907Q41.503124 265.6247 41.76875 266.10907L40.3 266.10907Q40.08125 265.67157 40.01875 265.07782ZM39.909374 261.9372Q39.14375 262.2497 37.6125 262.46844Q36.7375 262.59344 36.378124 262.7497Q36.01875 262.90594 35.815624 263.21844Q35.628124 263.51532 35.628124 263.8747Q35.628124 264.4372 36.05 264.8122Q36.4875 265.1872 37.3 265.1872Q38.1125 265.1872 38.7375 264.84344Q39.378124 264.48407 39.675 263.85907Q39.909374 263.39032 39.909374 262.45282L39.909374 261.9372ZM43.6125 266.10907L43.6125 257.8122L44.878124 257.8122L44.878124 258.98407Q45.784374 257.6247 47.51875 257.6247Q48.26875 257.6247 48.89375 257.89032Q49.51875 258.15594 49.83125 258.59344Q50.14375 259.03094 50.26875 259.64032Q50.346874 260.03094 50.346874 260.9997L50.346874 266.10907L48.940624 266.10907L48.940624 261.0622Q48.940624 260.20282 48.76875 259.78094Q48.6125 259.34344 48.190624 259.09344Q47.784374 258.84344 47.221874 258.84344Q46.315624 258.84344 45.659374 259.42157Q45.01875 259.98407 45.01875 261.57782L45.01875 266.10907L43.6125 266.10907ZM55.675 264.84344L55.878124 266.09344Q55.284374 266.21844 54.815624 266.21844Q54.05 266.21844 53.628124 265.98407Q53.20625 265.73407 53.034374 265.34344Q52.8625 264.9372 52.8625 263.67157L52.8625 258.90594L51.83125 258.90594L51.83125 257.8122L52.8625 257.8122L52.8625 255.7497L54.26875 254.90594L54.26875 257.8122L55.675 257.8122L55.675 258.90594L54.26875 258.90594L54.26875 263.7497Q54.26875 264.35907 54.33125 264.53094Q54.409374 264.70282 54.58125 264.8122Q54.753124 264.90594 55.065624 264.90594Q55.3 264.90594 55.675 264.84344ZM56.05 263.6247L57.440624 263.40594Q57.55 264.2497 58.08125 264.70282Q58.628124 265.14032 59.58125 265.14032Q60.55 265.14032 61.01875 264.7497Q61.4875 264.34344 61.4875 263.8122Q61.4875 263.34344 61.08125 263.0622Q60.784374 262.8747 59.64375 262.59344Q58.096874 262.20282 57.4875 261.92157Q56.89375 261.6247 56.58125 261.1247Q56.284374 260.6247 56.284374 260.01532Q56.284374 259.45282 56.534374 258.98407Q56.784374 258.51532 57.221874 258.20282Q57.55 257.95282 58.1125 257.79657Q58.690624 257.6247 59.33125 257.6247Q60.315624 257.6247 61.05 257.90594Q61.784374 258.1872 62.128124 258.67157Q62.4875 259.14032 62.628124 259.95282L61.253124 260.14032Q61.159374 259.4997 60.70625 259.14032Q60.253124 258.78094 59.440624 258.78094Q58.471874 258.78094 58.05 259.10907Q57.64375 259.42157 57.64375 259.84344Q57.64375 260.1247 57.815624 260.34344Q57.9875 260.5622 58.346874 260.71844Q58.565624 260.79657 59.596874 261.07782Q61.08125 261.46844 61.675 261.73407Q62.26875 261.98407 62.596874 262.46844Q62.940624 262.95282 62.940624 263.67157Q62.940624 264.3747 62.51875 264.9997Q62.1125 265.60907 61.33125 265.95282Q60.565624 266.29657 59.596874 266.29657Q57.971874 266.29657 57.128124 265.6247Q56.284374 264.95282 56.05 263.6247Z" fill-rule="nonzero"/><path fill="#9e9e9e" d="M24.51875 288.10907L23.1125 288.10907L23.1125 279.14032Q22.596874 279.6247 21.76875 280.10907Q20.95625 280.59344 20.3 280.84344L20.3 279.48407Q21.471874 278.92157 22.346874 278.14032Q23.2375 277.34344 23.6125 276.60907L24.51875 276.60907L24.51875 288.10907ZM29.003124 288.10907L29.003124 286.4997L30.6125 286.4997L30.6125 288.10907L29.003124 288.10907ZM36.721874 288.10907L36.721874 285.35907L31.753124 285.35907L31.753124 284.07782L36.9875 276.65594L38.128124 276.65594L38.128124 284.07782L39.675 284.07782L39.675 285.35907L38.128124 285.35907L38.128124 288.10907L36.721874 288.10907ZM36.721874 284.07782L36.721874 278.90594L33.14375 284.07782L36.721874 284.07782ZM41.4875 279.40594Q41.4875 278.17157 42.096874 277.3122Q42.721874 276.45282 43.89375 276.45282Q44.971874 276.45282 45.675 277.23407Q46.378124 277.9997 46.378124 279.48407Q46.378124 280.9372 45.659374 281.73407Q44.95625 282.51532 43.909374 282.51532Q42.8625 282.51532 42.175 281.7497Q41.4875 280.96844 41.4875 279.40594ZM43.925 277.42157Q43.409374 277.42157 43.05 277.8747Q42.70625 278.32782 42.70625 279.54657Q42.70625 280.64032 43.05 281.09344Q43.409374 281.54657 43.925 281.54657Q44.45625 281.54657 44.8 281.09344Q45.159374 280.64032 45.159374 279.4372Q45.159374 278.32782 44.8 277.8747Q44.45625 277.42157 43.925 277.42157ZM43.940624 288.53094L50.20625 276.45282L51.346874 276.45282L45.096874 288.53094L43.940624 288.53094ZM48.89375 285.42157Q48.89375 284.1872 49.503124 283.32782Q50.128124 282.46844 51.3 282.46844Q52.378124 282.46844 53.08125 283.2497Q53.8 284.01532 53.8 285.4997Q53.8 286.95282 53.08125 287.7497Q52.3625 288.53094 51.315624 288.53094Q50.26875 288.53094 49.58125 287.7497Q48.89375 286.96844 48.89375 285.42157ZM51.346874 283.4372Q50.815624 283.4372 50.45625 283.89032Q50.1125 284.34344 50.1125 285.5622Q50.1125 286.65594 50.45625 287.10907Q50.815624 287.5622 51.33125 287.5622Q51.878124 287.5622 52.221874 287.10907Q52.565624 286.65594 52.565624 285.45282Q52.565624 284.34344 52.20625 283.89032Q51.8625 283.4372 51.346874 283.4372Z" fill-rule="nonzero"/><path stroke="#757575" stroke-width="1.0" stroke-linecap="butt" d="M18.55 271.60907L145.23334 271.60907L172.85667 265.39453" fill-rule="nonzero"/><path fill="#9e9e9e" d="M174.85667 265.39453C174.85667 264.28995 173.96124 263.39453 172.85667 263.39453C171.7521 263.39453 170.85667 264.28995 170.85667 265.39453C170.85667 266.49908 171.7521 267.39453 172.85667 267.39453C173.96124 267.39453 174.85667 266.49908 174.85667 265.39453" fill-rule="nonzero"/><path fill="#efefef" d="M532.6844 69.916664L532.6844 58.46354L536.6375 58.46354Q537.96564 58.46354 538.66876 58.61979Q539.65314 58.854164 540.35626 59.447914Q541.2625 60.21354 541.7 61.40104Q542.15314 62.58854 542.15314 64.11979Q542.15314 65.43229 541.84064 66.447914Q541.54376 67.447914 541.0594 68.104164Q540.59064 68.760414 540.02814 69.15104Q539.46564 69.52604 538.65314 69.729164Q537.85626 69.916664 536.825 69.916664L532.6844 69.916664ZM534.2 68.55729L536.65314 68.55729Q537.77814 68.55729 538.41876 68.354164Q539.075 68.135414 539.45 67.760414Q539.9969 67.21354 540.29376 66.30729Q540.59064 65.40104 540.59064 64.104164Q540.59064 62.30729 539.9969 61.33854Q539.41876 60.36979 538.575 60.041664Q537.96564 59.80729 536.60626 59.80729L534.2 59.80729L534.2 68.55729ZM550.1844 67.24479L551.6375 67.416664Q551.29376 68.697914 550.35626 69.40104Q549.4344 70.104164 547.9969 70.104164Q546.16876 70.104164 545.10626 68.979164Q544.04376 67.854164 544.04376 65.83854Q544.04376 63.74479 545.1219 62.58854Q546.2 61.43229 547.91876 61.43229Q549.575 61.43229 550.6219 62.572914Q551.6844 63.697914 551.6844 65.74479Q551.6844 65.86979 551.6844 66.11979L545.4969 66.11979Q545.575 67.49479 546.2625 68.229164Q546.96564 68.947914 547.9969 68.947914Q548.77814 68.947914 549.325 68.541664Q549.8719 68.135414 550.1844 67.24479ZM545.575 64.96354L550.2 64.96354Q550.10626 63.916664 549.66876 63.40104Q548.9969 62.58854 547.9344 62.58854Q546.96564 62.58854 546.29376 63.24479Q545.6375 63.885414 545.575 64.96354ZM556.575 68.65104L556.77814 69.90104Q556.1844 70.02604 555.71564 70.02604Q554.95 70.02604 554.52814 69.791664Q554.10626 69.541664 553.9344 69.15104Q553.7625 68.74479 553.7625 67.479164L553.7625 62.71354L552.73126 62.71354L552.73126 61.61979L553.7625 61.61979L553.7625 59.55729L555.16876 58.71354L555.16876 61.61979L556.575 61.61979L556.575 62.71354L555.16876 62.71354L555.16876 67.55729Q555.16876 68.166664 555.23126 68.33854Q555.3094 68.510414 555.48126 68.61979Q555.65314 68.71354 555.96564 68.71354Q556.2 68.71354 556.575 68.65104ZM562.91876 68.885414Q562.1375 69.55729 561.41876 69.83854Q560.7 70.104164 559.8719 70.104164Q558.4969 70.104164 557.7625 69.43229Q557.02814 68.760414 557.02814 67.729164Q557.02814 67.11979 557.3094 66.61979Q557.59064 66.104164 558.02814 65.80729Q558.48126 65.49479 559.04376 65.33854Q559.46564 65.229164 560.29376 65.135414Q561.9969 64.93229 562.8094 64.65104Q562.8094 64.354164 562.8094 64.27604Q562.8094 63.416664 562.41876 63.072914Q561.8719 62.58854 560.8094 62.58854Q559.825 62.58854 559.34064 62.947914Q558.8719 63.291664 558.65314 64.166664L557.27814 63.979164Q557.46564 63.104164 557.8875 62.55729Q558.325 62.010414 559.1375 61.729164Q559.95 61.43229 561.0125 61.43229Q562.075 61.43229 562.73126 61.68229Q563.40314 61.93229 563.71564 62.30729Q564.02814 62.68229 564.15314 63.260414Q564.23126 63.61979 564.23126 64.55729L564.23126 66.43229Q564.23126 68.40104 564.3094 68.916664Q564.40314 69.43229 564.66876 69.916664L563.2 69.916664Q562.98126 69.479164 562.91876 68.885414ZM562.8094 65.74479Q562.04376 66.05729 560.5125 66.27604Q559.6375 66.40104 559.27814 66.55729Q558.91876 66.71354 558.71564 67.02604Q558.52814 67.322914 558.52814 67.68229Q558.52814 68.24479 558.95 68.61979Q559.3875 68.99479 560.2 68.99479Q561.0125 68.99479 561.6375 68.65104Q562.27814 68.291664 562.575 67.666664Q562.8094 67.197914 562.8094 66.260414L562.8094 65.74479ZM566.5125 60.072914L566.5125 58.46354L567.91876 58.46354L567.91876 60.072914L566.5125 60.072914ZM566.5125 69.916664L566.5125 61.61979L567.91876 61.61979L567.91876 69.916664L566.5125 69.916664ZM570.48126 69.916664L570.48126 58.46354L571.8875 58.46354L571.8875 69.916664L570.48126 69.916664ZM573.95 67.43229L575.34064 67.21354Q575.45 68.05729 575.98126 68.510414Q576.52814 68.947914 577.48126 68.947914Q578.45 68.947914 578.91876 68.55729Q579.3875 68.15104 579.3875 67.61979Q579.3875 67.15104 578.98126 66.86979Q578.6844 66.68229 577.54376 66.40104Q575.9969 66.010414 575.3875 65.729164Q574.79376 65.43229 574.48126 64.93229Q574.1844 64.43229 574.1844 63.822914Q574.1844 63.260414 574.4344 62.791664Q574.6844 62.322914 575.1219 62.010414Q575.45 61.760414 576.0125 61.604164Q576.59064 61.43229 577.23126 61.43229Q578.21564 61.43229 578.95 61.71354Q579.6844 61.99479 580.02814 62.479164Q580.3875 62.947914 580.52814 63.760414L579.15314 63.947914Q579.0594 63.30729 578.60626 62.947914Q578.15314 62.58854 577.34064 62.58854Q576.3719 62.58854 575.95 62.916664Q575.54376 63.229164 575.54376 63.65104Q575.54376 63.93229 575.71564 64.15104Q575.8875 64.36979 576.2469 64.52604Q576.46564 64.604164 577.4969 64.885414Q578.98126 65.27604 579.575 65.541664Q580.16876 65.791664 580.4969 66.27604Q580.84064 66.760414 580.84064 67.479164Q580.84064 68.18229 580.41876 68.80729Q580.0125 69.416664 579.23126 69.760414Q578.46564 70.104164 577.4969 70.104164Q575.8719 70.104164 575.02814 69.43229Q574.1844 68.760414 573.95 67.43229Z" fill-rule="nonzero"/><path fill="#9e9e9e" d="M553.5125 90.55729L553.5125 91.916664L545.9344 91.916664Q545.91876 91.40104 546.10626 90.93229Q546.3875 90.166664 547.02814 89.416664Q547.66876 88.666664 548.8719 87.68229Q550.73126 86.15104 551.3875 85.260414Q552.04376 84.354164 552.04376 83.55729Q552.04376 82.729164 551.45 82.15104Q550.85626 81.572914 549.8875 81.572914Q548.8719 81.572914 548.2625 82.18229Q547.65314 82.791664 547.65314 83.86979L546.2 83.729164Q546.35626 82.104164 547.325 81.260414Q548.29376 80.416664 549.91876 80.416664Q551.575 80.416664 552.52814 81.33854Q553.4969 82.24479 553.4969 83.58854Q553.4969 84.27604 553.21564 84.947914Q552.9344 85.604164 552.27814 86.33854Q551.6219 87.072914 550.10626 88.354164Q548.84064 89.416664 548.48126 89.80729Q548.1219 90.18229 547.8875 90.55729L553.5125 90.55729ZM555.90314 91.916664L555.90314 90.30729L557.5125 90.30729L557.5125 91.916664L555.90314 91.916664ZM559.21564 81.96354L559.21564 80.604164L566.6219 80.604164L566.6219 81.697914Q565.52814 82.86979 564.45 84.80729Q563.3875 86.729164 562.79376 88.760414Q562.3719 90.197914 562.2625 91.916664L560.8094 91.916664Q560.84064 90.55729 561.34064 88.65104Q561.85626 86.729164 562.79376 84.96354Q563.7469 83.18229 564.825 81.96354L559.21564 81.96354ZM568.3875 83.21354Q568.3875 81.979164 568.9969 81.11979Q569.6219 80.260414 570.79376 80.260414Q571.8719 80.260414 572.575 81.041664Q573.27814 81.80729 573.27814 83.291664Q573.27814 84.74479 572.5594 85.541664Q571.85626 86.322914 570.8094 86.322914Q569.7625 86.322914 569.075 85.55729Q568.3875 84.77604 568.3875 83.21354ZM570.825 81.229164Q570.3094 81.229164 569.95 81.68229Q569.60626 82.135414 569.60626 83.354164Q569.60626 84.447914 569.95 84.90104Q570.3094 85.354164 570.825 85.354164Q571.35626 85.354164 571.7 84.90104Q572.0594 84.447914 572.0594 83.24479Q572.0594 82.135414 571.7 81.68229Q571.35626 81.229164 570.825 81.229164ZM570.84064 92.33854L577.10626 80.260414L578.2469 80.260414L571.9969 92.33854L570.84064 92.33854ZM575.79376 89.229164Q575.79376 87.99479 576.40314 87.135414Q577.02814 86.27604 578.2 86.27604Q579.27814 86.27604 579.98126 87.05729Q580.7 87.822914 580.7 89.30729Q580.7 90.760414 579.98126 91.55729Q579.2625 92.33854 578.21564 92.33854Q577.16876 92.33854 576.48126 91.55729Q575.79376 90.77604 575.79376 89.229164ZM578.2469 87.24479Q577.71564 87.24479 577.35626 87.697914Q577.0125 88.15104 577.0125 89.36979Q577.0125 90.46354 577.35626 90.916664Q577.71564 91.36979 578.23126 91.36979Q578.77814 91.36979 579.1219 90.916664Q579.46564 90.46354 579.46564 89.260414Q579.46564 88.15104 579.10626 87.697914Q578.7625 87.24479 578.2469 87.24479Z" fill-rule="nonzero"/><path stroke="#757575" stroke-width="1.0" stroke-linecap="butt" d="M581.45 75.416664L454.76666 75.416664L336.08865 67.040344" fill-rule="nonzero"/><path fill="#9e9e9e" d="M338.08865 67.040344C338.08865 65.935776 337.19324 65.040344 336.08865 65.040344C334.9841 65.040344 334.08865 65.935776 334.08865 67.040344C334.08865 68.14491 334.9841 69.040344 336.08865 69.040344C337.19324 69.040344 338.08865 68.14491 338.08865 67.040344" fill-rule="nonzero"/><path fill="#efefef" d="M531.6844 290.31512L531.6844 278.862L536.0125 278.862Q537.15314 278.862 537.7469 278.97137Q538.59064 279.112 539.15314 279.50262Q539.73126 279.89325 540.075 280.612Q540.4344 281.31512 540.4344 282.1745Q540.4344 283.62762 539.4969 284.64325Q538.575 285.65887 536.1375 285.65887L533.2 285.65887L533.2 290.31512L531.6844 290.31512ZM533.2 284.2995L536.16876 284.2995Q537.6375 284.2995 538.2469 283.75262Q538.8719 283.20575 538.8719 282.22137Q538.8719 281.50262 538.4969 280.987Q538.1375 280.47137 537.54376 280.31512Q537.16876 280.20575 536.1375 280.20575L533.2 280.20575L533.2 284.2995ZM548.1844 287.64325L549.6375 287.81512Q549.29376 289.09637 548.35626 289.7995Q547.4344 290.50262 545.9969 290.50262Q544.16876 290.50262 543.10626 289.37762Q542.04376 288.25262 542.04376 286.237Q542.04376 284.14325 543.1219 282.987Q544.2 281.83075 545.91876 281.83075Q547.575 281.83075 548.6219 282.97137Q549.6844 284.09637 549.6844 286.14325Q549.6844 286.26825 549.6844 286.51825L543.4969 286.51825Q543.575 287.89325 544.2625 288.62762Q544.96564 289.34637 545.9969 289.34637Q546.77814 289.34637 547.325 288.94012Q547.8719 288.53387 548.1844 287.64325ZM543.575 285.362L548.2 285.362Q548.10626 284.31512 547.66876 283.7995Q546.9969 282.987 545.9344 282.987Q544.96564 282.987 544.29376 283.64325Q543.6375 284.28387 543.575 285.362ZM550.98126 286.15887Q550.98126 283.862 552.2625 282.75262Q553.34064 281.83075 554.8719 281.83075Q556.59064 281.83075 557.66876 282.95575Q558.7625 284.06512 558.7625 286.0495Q558.7625 287.64325 558.27814 288.56512Q557.79376 289.487 556.8719 290.00262Q555.96564 290.50262 554.8719 290.50262Q553.1375 290.50262 552.0594 289.39325Q550.98126 288.26825 550.98126 286.15887ZM552.4344 286.15887Q552.4344 287.75262 553.1219 288.5495Q553.825 289.34637 554.8719 289.34637Q555.91876 289.34637 556.60626 288.5495Q557.3094 287.75262 557.3094 286.112Q557.3094 284.58075 556.60626 283.78387Q555.91876 282.987 554.8719 282.987Q553.825 282.987 553.1219 283.78387Q552.4344 284.56512 552.4344 286.15887ZM560.5125 293.50262L560.5125 282.01825L561.79376 282.01825L561.79376 283.09637Q562.2469 282.45575 562.8094 282.14325Q563.3875 281.83075 564.2 281.83075Q565.2625 281.83075 566.075 282.37762Q566.8875 282.9245 567.29376 283.9245Q567.71564 284.90887 567.71564 286.09637Q567.71564 287.37762 567.2469 288.39325Q566.79376 289.40887 565.91876 289.95575Q565.0594 290.50262 564.09064 290.50262Q563.3875 290.50262 562.825 290.20575Q562.27814 289.90887 561.91876 289.45575L561.91876 293.50262L560.5125 293.50262ZM561.77814 286.20575Q561.77814 287.81512 562.41876 288.58075Q563.075 289.34637 563.9969 289.34637Q564.9344 289.34637 565.60626 288.5495Q566.27814 287.75262 566.27814 286.09637Q566.27814 284.50262 565.6219 283.72137Q564.96564 282.9245 564.0594 282.9245Q563.16876 282.9245 562.46564 283.76825Q561.77814 284.612 561.77814 286.20575ZM569.48126 290.31512L569.48126 278.862L570.8875 278.862L570.8875 290.31512L569.48126 290.31512ZM579.1844 287.64325L580.6375 287.81512Q580.29376 289.09637 579.35626 289.7995Q578.4344 290.50262 576.9969 290.50262Q575.16876 290.50262 574.10626 289.37762Q573.04376 288.25262 573.04376 286.237Q573.04376 284.14325 574.1219 282.987Q575.2 281.83075 576.91876 281.83075Q578.575 281.83075 579.6219 282.97137Q580.6844 284.09637 580.6844 286.14325Q580.6844 286.26825 580.6844 286.51825L574.4969 286.51825Q574.575 287.89325 575.2625 288.62762Q575.96564 289.34637 576.9969 289.34637Q577.77814 289.34637 578.325 288.94012Q578.8719 288.53387 579.1844 287.64325ZM574.575 285.362L579.2 285.362Q579.10626 284.31512 578.66876 283.7995Q577.9969 282.987 576.9344 282.987Q575.96564 282.987 575.29376 283.64325Q574.6375 284.28387 574.575 285.362Z" fill-rule="nonzero"/><path fill="#9e9e9e" d="M544.41876 303.65887L543.0125 303.76825Q542.825 302.94012 542.48126 302.56512Q541.91876 301.97137 541.075 301.97137Q540.40314 301.97137 539.90314 302.34637Q539.23126 302.83075 538.84064 303.76825Q538.46564 304.69012 538.45 306.40887Q538.96564 305.62762 539.7 305.25262Q540.4344 304.87762 541.23126 304.87762Q542.6375 304.87762 543.6219 305.9245Q544.6219 306.95575 544.6219 308.59637Q544.6219 309.6745 544.15314 310.59637Q543.6844 311.51825 542.8719 312.01825Q542.0594 312.51825 541.02814 312.51825Q539.27814 312.51825 538.16876 311.22137Q537.0594 309.9245 537.0594 306.95575Q537.0594 303.62762 538.27814 302.12762Q539.35626 300.81512 541.16876 300.81512Q542.5125 300.81512 543.3719 301.58075Q544.2469 302.33075 544.41876 303.65887ZM538.66876 308.59637Q538.66876 309.33075 538.98126 310.00262Q539.29376 310.65887 539.84064 311.00262Q540.40314 311.34637 541.0125 311.34637Q541.90314 311.34637 542.54376 310.62762Q543.1844 309.90887 543.1844 308.6745Q543.1844 307.487 542.54376 306.81512Q541.91876 306.12762 540.95 306.12762Q539.9969 306.12762 539.325 306.81512Q538.66876 307.487 538.66876 308.59637ZM551.41876 312.31512L550.0125 312.31512L550.0125 303.34637Q549.4969 303.83075 548.66876 304.31512Q547.85626 304.7995 547.2 305.0495L547.2 303.69012Q548.3719 303.12762 549.2469 302.34637Q550.1375 301.5495 550.5125 300.81512L551.41876 300.81512L551.41876 312.31512ZM555.90314 312.31512L555.90314 310.70575L557.5125 310.70575L557.5125 312.31512L555.90314 312.31512ZM566.41876 303.65887L565.0125 303.76825Q564.825 302.94012 564.48126 302.56512Q563.91876 301.97137 563.075 301.97137Q562.40314 301.97137 561.90314 302.34637Q561.23126 302.83075 560.84064 303.76825Q560.46564 304.69012 560.45 306.40887Q560.96564 305.62762 561.7 305.25262Q562.4344 304.87762 563.23126 304.87762Q564.6375 304.87762 565.6219 305.9245Q566.6219 306.95575 566.6219 308.59637Q566.6219 309.6745 566.15314 310.59637Q565.6844 311.51825 564.8719 312.01825Q564.0594 312.51825 563.02814 312.51825Q561.27814 312.51825 560.16876 311.22137Q559.0594 309.9245 559.0594 306.95575Q559.0594 303.62762 560.27814 302.12762Q561.35626 300.81512 563.16876 300.81512Q564.5125 300.81512 565.3719 301.58075Q566.2469 302.33075 566.41876 303.65887ZM560.66876 308.59637Q560.66876 309.33075 560.98126 310.00262Q561.29376 310.65887 561.84064 311.00262Q562.40314 311.34637 563.0125 311.34637Q563.90314 311.34637 564.54376 310.62762Q565.1844 309.90887 565.1844 308.6745Q565.1844 307.487 564.54376 306.81512Q563.91876 306.12762 562.95 306.12762Q561.9969 306.12762 561.325 306.81512Q560.66876 307.487 560.66876 308.59637ZM568.3875 303.612Q568.3875 302.37762 568.9969 301.51825Q569.6219 300.65887 570.79376 300.65887Q571.8719 300.65887 572.575 301.44012Q573.27814 302.20575 573.27814 303.69012Q573.27814 305.14325 572.5594 305.94012Q571.85626 306.72137 570.8094 306.72137Q569.7625 306.72137 569.075 305.95575Q568.3875 305.1745 568.3875 303.612ZM570.825 301.62762Q570.3094 301.62762 569.95 302.08075Q569.60626 302.53387 569.60626 303.75262Q569.60626 304.84637 569.95 305.2995Q570.3094 305.75262 570.825 305.75262Q571.35626 305.75262 571.7 305.2995Q572.0594 304.84637 572.0594 303.64325Q572.0594 302.53387 571.7 302.08075Q571.35626 301.62762 570.825 301.62762ZM570.84064 312.737L577.10626 300.65887L578.2469 300.65887L571.9969 312.737L570.84064 312.737ZM575.79376 309.62762Q575.79376 308.39325 576.40314 307.53387Q577.02814 306.6745 578.2 306.6745Q579.27814 306.6745 579.98126 307.45575Q580.7 308.22137 580.7 309.70575Q580.7 311.15887 579.98126 311.95575Q579.2625 312.737 578.21564 312.737Q577.16876 312.737 576.48126 311.95575Q575.79376 311.1745 575.79376 309.62762ZM578.2469 307.64325Q577.71564 307.64325 577.35626 308.09637Q577.0125 308.5495 577.0125 309.76825Q577.0125 310.862 577.35626 311.31512Q577.71564 311.76825 578.23126 311.76825Q578.77814 311.76825 579.1219 311.31512Q579.46564 310.862 579.46564 309.65887Q579.46564 308.5495 579.10626 308.09637Q578.7625 307.64325 578.2469 307.64325Z" fill-rule="nonzero"/><path stroke="#757575" stroke-width="1.0" stroke-linecap="butt" d="M581.45 295.81512L454.76666 295.81512L407.1701 295.81512" fill-rule="nonzero"/><path fill="#9e9e9e" d="M409.1701 295.81512C409.1701 294.71057 408.27466 293.81512 407.1701 293.81512C406.06552 293.81512 405.1701 294.71057 405.1701 295.81512C405.1701 296.9197 406.06552 297.81512 407.1701 297.81512C408.27466 297.81512 409.1701 296.9197 409.1701 295.81512" fill-rule="nonzero"/><path fill="#f3f3f3" d="M265.98438 37.55L265.98438 23.2375L268.84375 23.2375L272.21875 33.3625Q272.6875 34.784374 272.90625 35.4875Q273.15625 34.70625 273.67188 33.190624L277.09375 23.2375L279.64062 23.2375L279.64062 37.55L277.82812 37.55L277.82812 25.565624L273.65625 37.55L271.95312 37.55L267.8125 25.3625L267.8125 37.55L265.98438 37.55ZM289.92188 34.20625L291.73438 34.440624Q291.3125 36.01875 290.14062 36.909374Q288.98438 37.784374 287.17188 37.784374Q284.90625 37.784374 283.5625 36.39375Q282.23438 34.9875 282.23438 32.45625Q282.23438 29.83125 283.57812 28.39375Q284.92188 26.940624 287.07812 26.940624Q289.15625 26.940624 290.46875 28.3625Q291.79688 29.76875 291.79688 32.346874Q291.79688 32.503124 291.78125 32.815624L284.04688 32.815624Q284.14062 34.51875 285.01562 35.425Q285.89062 36.33125 287.1875 36.33125Q288.15625 36.33125 288.82812 35.83125Q289.51562 35.315624 289.92188 34.20625ZM284.14062 31.3625L289.9375 31.3625Q289.82812 30.065624 289.28125 29.409374Q288.4375 28.39375 287.09375 28.39375Q285.89062 28.39375 285.0625 29.20625Q284.23438 30.003124 284.14062 31.3625ZM300.54688 37.55L300.54688 36.2375Q299.5625 37.784374 297.64062 37.784374Q296.40625 37.784374 295.35938 37.096874Q294.32812 36.409374 293.75 35.190624Q293.1875 33.971874 293.1875 32.378124Q293.1875 30.815624 293.70312 29.55Q294.21875 28.284374 295.25 27.6125Q296.29688 26.940624 297.5625 26.940624Q298.5 26.940624 299.23438 27.346874Q299.96875 27.7375 300.4375 28.3625L300.4375 23.2375L302.17188 23.2375L302.17188 37.55L300.54688 37.55ZM294.98438 32.378124Q294.98438 34.3625 295.82812 35.346874Q296.67188 36.33125 297.8125 36.33125Q298.96875 36.33125 299.76562 35.39375Q300.57812 34.45625 300.57812 32.51875Q300.57812 30.39375 299.75 29.39375Q298.9375 28.39375 297.73438 28.39375Q296.5625 28.39375 295.76562 29.3625Q294.98438 30.315624 294.98438 32.378124ZM304.82812 25.253124L304.82812 23.2375L306.59375 23.2375L306.59375 25.253124L304.82812 25.253124ZM304.82812 37.55L304.82812 27.175L306.59375 27.175L306.59375 37.55L304.82812 37.55ZM315.60938 37.55L315.60938 36.01875Q314.40625 37.784374 312.32812 37.784374Q311.40625 37.784374 310.60938 37.440624Q309.8125 37.08125 309.42188 36.55Q309.04688 36.01875 308.89062 35.2375Q308.78125 34.721874 308.78125 33.596874L308.78125 27.175L310.53125 27.175L310.53125 32.925Q310.53125 34.3 310.64062 34.784374Q310.8125 35.471874 311.34375 35.878124Q311.89062 36.26875 312.67188 36.26875Q313.46875 36.26875 314.15625 35.8625Q314.85938 35.45625 315.14062 34.76875Q315.4375 34.065624 315.4375 32.7375L315.4375 27.175L317.1875 27.175L317.1875 37.55L315.60938 37.55ZM319.8125 37.55L319.8125 27.175L321.39062 27.175L321.39062 28.628124Q321.875 27.878124 322.6875 27.409374Q323.5 26.940624 324.53125 26.940624Q325.6875 26.940624 326.42188 27.425Q327.15625 27.89375 327.46875 28.753124Q328.70312 26.940624 330.67188 26.940624Q332.21875 26.940624 333.04688 27.8Q333.875 28.659374 333.875 30.425L333.875 37.55L332.125 37.55L332.125 31.01875Q332.125 29.95625 331.95312 29.503124Q331.78125 29.034374 331.32812 28.753124Q330.89062 28.471874 330.28125 28.471874Q329.1875 28.471874 328.45312 29.20625Q327.73438 29.925 327.73438 31.51875L327.73438 37.55L325.98438 37.55L325.98438 30.815624Q325.98438 29.64375 325.54688 29.065624Q325.125 28.471874 324.14062 28.471874Q323.40625 28.471874 322.76562 28.8625Q322.14062 29.253124 321.85938 30.003124Q321.57812 30.753124 321.57812 32.175L321.57812 37.55L319.8125 37.55Z" fill-rule="nonzero"/></svg>