<svg version="1.1" viewBox="0.0 0.0 600.0 371.0" fill="none" stroke="none" stroke-linecap="square" stroke-miterlimit="10" width="600" height="371" xmlns:xlink="http://www.w3.org/1999/xlink" xmlns="http://www.w3.org/2000/svg"><path fill="#ffffff" fill-opacity="0.0" d="M0 0L600.0 0L600.0 371.0L0 371.0L0 0Z" fill-rule="nonzero"/><path fill="#f7d750" d="M300.0 54.916668C345.27335 54.916668 388.08298 75.53269 416.31046 110.92883C444.53793 146.32497 455.11105 192.64877 445.03677 236.78703L372.5184 220.23518C377.5555 198.16605 372.26898 175.00415 358.15524 157.30608C344.0415 139.60802 322.6367 129.3 300.0 129.3Z" fill-rule="nonzero"/><path fill="#e5a345" d="M183.68953 110.92883C211.91702 75.53269 254.72664 54.916668 300.0 54.916668L300.0 129.3C277.3633 129.3 255.95851 139.60802 241.84477 157.30608Z" fill-rule="nonzero"/><path fill="#78a94e" d="M154.96323 236.78703C144.88895 192.64877 155.46205 146.32497 183.68953 110.92883L241.84477 157.30608C227.73103 175.00415 222.44447 198.16605 227.48161 220.23518Z" fill-rule="nonzero"/><path fill="#4571b0" d="M235.45256 337.71747C194.66267 318.0741 165.03749 280.9253 154.96323 236.78703L227.48161 220.23518C232.51875 242.30432 247.33133 260.87872 267.7263 270.7004Z" fill-rule="nonzero"/><path fill="#f5ee58" d="M445.03677 236.78703C434.9625 280.9253 405.33734 318.0741 364.54742 337.71747C323.75754 357.36084 276.24246 357.36084 235.45256 337.71747L267.7263 270.7004C288.12122 280.5221 311.87878 280.5221 332.2737 270.7004C352.66867 260.87872 367.48126 242.30432 372.5184 220.23518Z" fill-rule="nonzero"/><path fill="#ffffff" d="M370.79535 139.10184L370.79535 140.61746L362.27972 140.61746Q362.2641 140.03934 362.46722 139.52371Q362.79535 138.64871 363.49847 137.80496Q364.21722 136.96121 365.5766 135.85184Q367.67035 134.13309 368.40472 133.13309Q369.15472 132.11746 369.15472 131.22684Q369.15472 130.27371 368.48285 129.63309Q367.81097 128.99246 366.73285 128.99246Q365.5766 128.99246 364.8891 129.67996Q364.21722 130.36746 364.2016 131.57059L362.5766 131.39871Q362.74847 129.58621 363.8266 128.63309Q364.92035 127.67996 366.7641 127.67996Q368.60785 127.67996 369.68597 128.71121Q370.77972 129.74246 370.77972 131.25809Q370.77972 132.02371 370.4516 132.77371Q370.1391 133.52371 369.40472 134.35184Q368.67035 135.17996 366.96722 136.61746Q365.54535 137.82059 365.1391 138.24246Q364.73285 138.66434 364.48285 139.10184L370.79535 139.10184ZM374.92035 133.63309Q373.93597 133.27371 373.4516 132.60184Q372.98285 131.92996 372.98285 131.00809Q372.98285 129.60184 373.98285 128.64871Q374.99847 127.67996 376.68597 127.67996Q378.37347 127.67996 379.3891 128.66434Q380.42035 129.63309 380.42035 131.03934Q380.42035 131.94559 379.9516 132.61746Q379.48285 133.27371 378.52972 133.63309Q379.71722 134.02371 380.3266 134.88309Q380.9516 135.74246 380.9516 136.92996Q380.9516 138.58621 379.77972 139.71121Q378.60785 140.83621 376.7016 140.83621Q374.79535 140.83621 373.62347 139.71121Q372.46722 138.57059 372.46722 136.88309Q372.46722 135.63309 373.09222 134.78934Q373.73285 133.92996 374.92035 133.63309ZM374.59222 130.94559Q374.59222 131.86746 375.18597 132.44559Q375.77972 133.02371 376.71722 133.02371Q377.62347 133.02371 378.2016 132.44559Q378.79535 131.86746 378.79535 131.03934Q378.79535 130.16434 378.18597 129.57059Q377.59222 128.97684 376.7016 128.97684Q375.79535 128.97684 375.18597 129.55496Q374.59222 130.13309 374.59222 130.94559ZM374.09222 136.89871Q374.09222 137.57059 374.40472 138.21121Q374.73285 138.83621 375.35785 139.19559Q375.99847 139.53934 376.73285 139.53934Q377.85785 139.53934 378.59222 138.80496Q379.34222 138.07059 379.34222 136.94559Q379.34222 135.80496 378.5766 135.07059Q377.81097 134.32059 376.67035 134.32059Q375.56097 134.32059 374.8266 135.05496Q374.09222 135.78934 374.09222 136.89871ZM383.37347 140.61746L383.37347 138.82059L385.17035 138.82059L385.17035 140.61746L383.37347 140.61746ZM395.68597 130.88309L394.12347 131.00809Q393.90472 130.08621 393.5141 129.66434Q392.87347 128.97684 391.93597 128.97684Q391.18597 128.97684 390.60785 129.39871Q389.85785 129.94559 389.42035 130.99246Q388.99847 132.03934 388.98285 133.97684Q389.56097 133.10184 390.37347 132.67996Q391.2016 132.25809 392.10785 132.25809Q393.7016 132.25809 394.81097 133.42996Q395.92035 134.58621 395.92035 136.42996Q395.92035 137.64871 395.3891 138.69559Q394.87347 139.72684 393.9516 140.28934Q393.04535 140.83621 391.8891 140.83621Q389.90472 140.83621 388.65472 139.38309Q387.40472 137.92996 387.40472 134.58621Q387.40472 130.85184 388.79535 129.14871Q389.99847 127.67996 392.02972 127.67996Q393.56097 127.67996 394.52972 128.53934Q395.49847 129.38309 395.68597 130.88309ZM389.23285 136.44559Q389.23285 137.25809 389.5766 138.00809Q389.92035 138.75809 390.54535 139.14871Q391.17035 139.53934 391.85785 139.53934Q392.85785 139.53934 393.5766 138.72684Q394.29535 137.91434 394.29535 136.52371Q394.29535 135.19559 393.5766 134.42996Q392.87347 133.64871 391.79535 133.64871Q390.71722 133.64871 389.96722 134.42996Q389.23285 135.19559 389.23285 136.44559ZM397.77972 130.82059Q397.77972 129.44559 398.46722 128.47684Q399.17035 127.50809 400.48285 127.50809Q401.7016 127.50809 402.49847 128.38309Q403.29535 129.24246 403.29535 130.92996Q403.29535 132.55496 402.48285 133.44559Q401.68597 134.32059 400.49847 134.32059Q399.34222 134.32059 398.56097 133.46121Q397.77972 132.58621 397.77972 130.82059ZM400.52972 128.60184Q399.93597 128.60184 399.54535 129.11746Q399.15472 129.61746 399.15472 130.97684Q399.15472 132.22684 399.54535 132.72684Q399.9516 133.22684 400.52972 133.22684Q401.12347 133.22684 401.5141 132.72684Q401.90472 132.21121 401.90472 130.86746Q401.90472 129.61746 401.5141 129.11746Q401.12347 128.60184 400.52972 128.60184ZM400.54535 141.08621L407.59222 127.50809L408.87347 127.50809L401.84222 141.08621L400.54535 141.08621ZM406.10785 137.58621Q406.10785 136.21121 406.79535 135.24246Q407.49847 134.27371 408.8266 134.27371Q410.04535 134.27371 410.8266 135.14871Q411.62347 136.00809 411.62347 137.69559Q411.62347 139.32059 410.8266 140.21121Q410.02972 141.08621 408.84222 141.08621Q407.67035 141.08621 406.8891 140.21121Q406.10785 139.33621 406.10785 137.58621ZM408.87347 135.36746Q408.27972 135.36746 407.8891 135.88309Q407.49847 136.38309 407.49847 137.75809Q407.49847 138.97684 407.8891 139.49246Q408.27972 140.00809 408.85785 140.00809Q409.46722 140.00809 409.85785 139.49246Q410.24847 138.97684 410.24847 137.63309Q410.24847 136.38309 409.85785 135.88309Q409.46722 135.36746 408.87347 135.36746Z" fill-rule="nonzero"/><path fill="#ffffff" d="M331.97308 309.1933L331.97308 310.70892L323.45746 310.70892Q323.44183 310.1308 323.64496 309.61517Q323.97308 308.74017 324.6762 307.89642Q325.39496 307.05267 326.75433 305.9433Q328.84808 304.22455 329.58246 303.22455Q330.33246 302.20892 330.33246 301.3183Q330.33246 300.36517 329.66058 299.72455Q328.9887 299.08392 327.91058 299.08392Q326.75433 299.08392 326.06683 299.77142Q325.39496 300.45892 325.37933 301.66205L323.75433 301.49017Q323.9262 299.67767 325.00433 298.72455Q326.09808 297.77142 327.94183 297.77142Q329.78558 297.77142 330.8637 298.80267Q331.95746 299.83392 331.95746 301.34955Q331.95746 302.11517 331.62933 302.86517Q331.31683 303.61517 330.58246 304.4433Q329.84808 305.27142 328.14496 306.70892Q326.72308 307.91205 326.31683 308.33392Q325.91058 308.7558 325.66058 309.1933L331.97308 309.1933ZM336.09808 303.72455Q335.1137 303.36517 334.62933 302.6933Q334.16058 302.02142 334.16058 301.09955Q334.16058 299.6933 335.16058 298.74017Q336.1762 297.77142 337.8637 297.77142Q339.5512 297.77142 340.56683 298.7558Q341.59808 299.72455 341.59808 301.1308Q341.59808 302.03705 341.12933 302.70892Q340.66058 303.36517 339.70746 303.72455Q340.89496 304.11517 341.50433 304.97455Q342.12933 305.83392 342.12933 307.02142Q342.12933 308.67767 340.95746 309.80267Q339.78558 310.92767 337.87933 310.92767Q335.97308 310.92767 334.8012 309.80267Q333.64496 308.66205 333.64496 306.97455Q333.64496 305.72455 334.26996 304.8808Q334.91058 304.02142 336.09808 303.72455ZM335.76996 301.03705Q335.76996 301.95892 336.3637 302.53705Q336.95746 303.11517 337.89496 303.11517Q338.8012 303.11517 339.37933 302.53705Q339.97308 301.95892 339.97308 301.1308Q339.97308 300.2558 339.3637 299.66205Q338.76996 299.0683 337.87933 299.0683Q336.97308 299.0683 336.3637 299.64642Q335.76996 300.22455 335.76996 301.03705ZM335.26996 306.99017Q335.26996 307.66205 335.58246 308.30267Q335.91058 308.92767 336.53558 309.28705Q337.1762 309.6308 337.91058 309.6308Q339.03558 309.6308 339.76996 308.89642Q340.51996 308.16205 340.51996 307.03705Q340.51996 305.89642 339.75433 305.16205Q338.9887 304.41205 337.84808 304.41205Q336.7387 304.41205 336.00433 305.14642Q335.26996 305.8808 335.26996 306.99017ZM344.5512 310.70892L344.5512 308.91205L346.34808 308.91205L346.34808 310.70892L344.5512 310.70892ZM356.8637 300.97455L355.3012 301.09955Q355.08246 300.17767 354.69183 299.7558Q354.0512 299.0683 353.1137 299.0683Q352.3637 299.0683 351.78558 299.49017Q351.03558 300.03705 350.59808 301.08392Q350.1762 302.1308 350.16058 304.0683Q350.7387 303.1933 351.5512 302.77142Q352.37933 302.34955 353.28558 302.34955Q354.87933 302.34955 355.9887 303.52142Q357.09808 304.67767 357.09808 306.52142Q357.09808 307.74017 356.56683 308.78705Q356.0512 309.8183 355.12933 310.3808Q354.22308 310.92767 353.06683 310.92767Q351.08246 310.92767 349.83246 309.47455Q348.58246 308.02142 348.58246 304.67767Q348.58246 300.9433 349.97308 299.24017Q351.1762 297.77142 353.20746 297.77142Q354.7387 297.77142 355.70746 298.6308Q356.6762 299.47455 356.8637 300.97455ZM350.41058 306.53705Q350.41058 307.34955 350.75433 308.09955Q351.09808 308.84955 351.72308 309.24017Q352.34808 309.6308 353.03558 309.6308Q354.03558 309.6308 354.75433 308.8183Q355.47308 308.0058 355.47308 306.61517Q355.47308 305.28705 354.75433 304.52142Q354.0512 303.74017 352.97308 303.74017Q351.89496 303.74017 351.14496 304.52142Q350.41058 305.28705 350.41058 306.53705ZM358.95746 300.91205Q358.95746 299.53705 359.64496 298.5683Q360.34808 297.59955 361.66058 297.59955Q362.87933 297.59955 363.6762 298.47455Q364.47308 299.33392 364.47308 301.02142Q364.47308 302.64642 363.66058 303.53705Q362.8637 304.41205 361.6762 304.41205Q360.51996 304.41205 359.7387 303.55267Q358.95746 302.67767 358.95746 300.91205ZM361.70746 298.6933Q361.1137 298.6933 360.72308 299.20892Q360.33246 299.70892 360.33246 301.0683Q360.33246 302.3183 360.72308 302.8183Q361.12933 303.3183 361.70746 303.3183Q362.3012 303.3183 362.69183 302.8183Q363.08246 302.30267 363.08246 300.95892Q363.08246 299.70892 362.69183 299.20892Q362.3012 298.6933 361.70746 298.6933ZM361.72308 311.17767L368.76996 297.59955L370.0512 297.59955L363.01996 311.17767L361.72308 311.17767ZM367.28558 307.67767Q367.28558 306.30267 367.97308 305.33392Q368.6762 304.36517 370.00433 304.36517Q371.22308 304.36517 372.00433 305.24017Q372.8012 306.09955 372.8012 307.78705Q372.8012 309.41205 372.00433 310.30267Q371.20746 311.17767 370.01996 311.17767Q368.84808 311.17767 368.06683 310.30267Q367.28558 309.42767 367.28558 307.67767ZM370.0512 305.45892Q369.45746 305.45892 369.06683 305.97455Q368.6762 306.47455 368.6762 307.84955Q368.6762 309.0683 369.06683 309.58392Q369.45746 310.09955 370.03558 310.09955Q370.64496 310.09955 371.03558 309.58392Q371.4262 309.0683 371.4262 307.72455Q371.4262 306.47455 371.03558 305.97455Q370.64496 305.45892 370.0512 305.45892Z" fill-rule="nonzero"/><path fill="#ffffff" d="M193.97028 279.7492L192.39215 279.7492L192.39215 269.67108Q191.81403 270.21796 190.89215 270.76483Q189.97028 271.29608 189.22028 271.57733L189.22028 270.04608Q190.5484 269.42108 191.5484 268.53046Q192.5484 267.63983 192.95465 266.8117L193.97028 266.8117L193.97028 279.7492ZM203.07965 279.7492L203.07965 276.67108L197.50153 276.67108L197.50153 275.21796L203.37653 266.85858L204.6734 266.85858L204.6734 275.21796L206.40778 275.21796L206.40778 276.67108L204.6734 276.67108L204.6734 279.7492L203.07965 279.7492ZM203.07965 275.21796L203.07965 269.40546L199.0484 275.21796L203.07965 275.21796ZM208.90778 279.7492L208.90778 277.95233L210.70465 277.95233L210.70465 279.7492L208.90778 279.7492ZM213.01715 276.34296L214.6109 276.13983Q214.87653 277.48358 215.53278 278.07733Q216.18903 278.67108 217.12653 278.67108Q218.25153 278.67108 219.01715 277.90546Q219.78278 277.1242 219.78278 275.98358Q219.78278 274.88983 219.06403 274.1867Q218.3609 273.46796 217.26715 273.46796Q216.81403 273.46796 216.14215 273.65546L216.31403 272.26483Q216.47028 272.28046 216.57965 272.28046Q217.57965 272.28046 218.39215 271.7492Q219.20465 271.21796 219.20465 270.1242Q219.20465 269.2492 218.6109 268.6867Q218.01715 268.10858 217.09528 268.10858Q216.1734 268.10858 215.5484 268.6867Q214.93903 269.26483 214.76715 270.4367L213.18903 270.15546Q213.47028 268.5617 214.50153 267.6867Q215.53278 266.8117 217.06403 266.8117Q218.1109 266.8117 219.00153 267.26483Q219.89215 267.71796 220.3609 268.4992Q220.82965 269.28046 220.82965 270.15546Q220.82965 270.9992 220.37653 271.6867Q219.93903 272.35858 219.0484 272.76483Q220.18903 273.03046 220.81403 273.8742Q221.45465 274.70233 221.45465 275.9367Q221.45465 277.6242 220.22028 278.8117Q219.00153 279.98358 217.12653 279.98358Q215.4234 279.98358 214.2984 278.96796Q213.18903 277.95233 213.01715 276.34296ZM223.31403 269.95233Q223.31403 268.57733 224.00153 267.60858Q224.70465 266.63983 226.01715 266.63983Q227.2359 266.63983 228.03278 267.51483Q228.82965 268.3742 228.82965 270.0617Q228.82965 271.6867 228.01715 272.57733Q227.22028 273.45233 226.03278 273.45233Q224.87653 273.45233 224.09528 272.59296Q223.31403 271.71796 223.31403 269.95233ZM226.06403 267.73358Q225.47028 267.73358 225.07965 268.2492Q224.68903 268.7492 224.68903 270.10858Q224.68903 271.35858 225.07965 271.85858Q225.4859 272.35858 226.06403 272.35858Q226.65778 272.35858 227.0484 271.85858Q227.43903 271.34296 227.43903 269.9992Q227.43903 268.7492 227.0484 268.2492Q226.65778 267.73358 226.06403 267.73358ZM226.07965 280.21796L233.12653 266.63983L234.40778 266.63983L227.37653 280.21796L226.07965 280.21796ZM231.64215 276.71796Q231.64215 275.34296 232.32965 274.3742Q233.03278 273.40546 234.3609 273.40546Q235.57965 273.40546 236.3609 274.28046Q237.15778 275.13983 237.15778 276.82733Q237.15778 278.45233 236.3609 279.34296Q235.56403 280.21796 234.37653 280.21796Q233.20465 280.21796 232.4234 279.34296Q231.64215 278.46796 231.64215 276.71796ZM234.40778 274.4992Q233.81403 274.4992 233.4234 275.01483Q233.03278 275.51483 233.03278 276.88983Q233.03278 278.10858 233.4234 278.6242Q233.81403 279.13983 234.39215 279.13983Q235.00153 279.13983 235.39215 278.6242Q235.78278 278.10858 235.78278 276.76483Q235.78278 275.51483 235.39215 275.01483Q235.00153 274.4992 234.40778 274.4992Z" fill-rule="nonzero"/><path fill="#ffffff" d="M172.42554 185.35556L170.84741 185.35556L170.84741 175.27744Q170.26929 175.82431 169.34741 176.37119Q168.42554 176.90244 167.67554 177.18369L167.67554 175.65244Q169.00366 175.02744 170.00366 174.13681Q171.00366 173.24619 171.40991 172.41806L172.42554 172.41806L172.42554 185.35556ZM181.53491 185.35556L181.53491 182.27744L175.95679 182.27744L175.95679 180.82431L181.83179 172.46494L183.12866 172.46494L183.12866 180.82431L184.86304 180.82431L184.86304 182.27744L183.12866 182.27744L183.12866 185.35556L181.53491 185.35556ZM181.53491 180.82431L181.53491 175.01181L177.50366 180.82431L181.53491 180.82431ZM187.36304 185.35556L187.36304 183.55869L189.15991 183.55869L189.15991 185.35556L187.36304 185.35556ZM191.47241 181.94931L193.06616 181.74619Q193.33179 183.08994 193.98804 183.68369Q194.64429 184.27744 195.58179 184.27744Q196.70679 184.27744 197.47241 183.51181Q198.23804 182.73056 198.23804 181.58994Q198.23804 180.49619 197.51929 179.79306Q196.81616 179.07431 195.72241 179.07431Q195.26929 179.07431 194.59741 179.26181L194.76929 177.87119Q194.92554 177.88681 195.03491 177.88681Q196.03491 177.88681 196.84741 177.35556Q197.65991 176.82431 197.65991 175.73056Q197.65991 174.85556 197.06616 174.29306Q196.47241 173.71494 195.55054 173.71494Q194.62866 173.71494 194.00366 174.29306Q193.39429 174.87119 193.22241 176.04306L191.64429 175.76181Q191.92554 174.16806 192.95679 173.29306Q193.98804 172.41806 195.51929 172.41806Q196.56616 172.41806 197.45679 172.87119Q198.34741 173.32431 198.81616 174.10556Q199.28491 174.88681 199.28491 175.76181Q199.28491 176.60556 198.83179 177.29306Q198.39429 177.96494 197.50366 178.37119Q198.64429 178.63681 199.26929 179.48056Q199.90991 180.30869 199.90991 181.54306Q199.90991 183.23056 198.67554 184.41806Q197.45679 185.58994 195.58179 185.58994Q193.87866 185.58994 192.75366 184.57431Q191.64429 183.55869 191.47241 181.94931ZM201.76929 175.55869Q201.76929 174.18369 202.45679 173.21494Q203.15991 172.24619 204.47241 172.24619Q205.69116 172.24619 206.48804 173.12119Q207.28491 173.98056 207.28491 175.66806Q207.28491 177.29306 206.47241 178.18369Q205.67554 179.05869 204.48804 179.05869Q203.33179 179.05869 202.55054 178.19931Q201.76929 177.32431 201.76929 175.55869ZM204.51929 173.33994Q203.92554 173.33994 203.53491 173.85556Q203.14429 174.35556 203.14429 175.71494Q203.14429 176.96494 203.53491 177.46494Q203.94116 177.96494 204.51929 177.96494Q205.11304 177.96494 205.50366 177.46494Q205.89429 176.94931 205.89429 175.60556Q205.89429 174.35556 205.50366 173.85556Q205.11304 173.33994 204.51929 173.33994ZM204.53491 185.82431L211.58179 172.24619L212.86304 172.24619L205.83179 185.82431L204.53491 185.82431ZM210.09741 182.32431Q210.09741 180.94931 210.78491 179.98056Q211.48804 179.01181 212.81616 179.01181Q214.03491 179.01181 214.81616 179.88681Q215.61304 180.74619 215.61304 182.43369Q215.61304 184.05869 214.81616 184.94931Q214.01929 185.82431 212.83179 185.82431Q211.65991 185.82431 210.87866 184.94931Q210.09741 184.07431 210.09741 182.32431ZM212.86304 180.10556Q212.26929 180.10556 211.87866 180.62119Q211.48804 181.12119 211.48804 182.49619Q211.48804 183.71494 211.87866 184.23056Q212.26929 184.74619 212.84741 184.74619Q213.45679 184.74619 213.84741 184.23056Q214.23804 183.71494 214.23804 182.37119Q214.23804 181.12119 213.84741 180.62119Q213.45679 180.10556 212.86304 180.10556Z" fill-rule="nonzero"/><path fill="#ffffff" d="M232.79254 109.65773L231.21442 109.65773L231.21442 99.579605Q230.63629 100.12648 229.71442 100.673355Q228.79254 101.204605 228.04254 101.485855L228.04254 99.954605Q229.37067 99.329605 230.37067 98.43898Q231.37067 97.548355 231.77692 96.72023L232.79254 96.72023L232.79254 109.65773ZM241.90192 109.65773L241.90192 106.579605L236.32379 106.579605L236.32379 105.12648L242.19879 96.767105L243.49567 96.767105L243.49567 105.12648L245.23004 105.12648L245.23004 106.579605L243.49567 106.579605L243.49567 109.65773L241.90192 109.65773ZM241.90192 105.12648L241.90192 99.31398L237.87067 105.12648L241.90192 105.12648ZM247.73004 109.65773L247.73004 107.860855L249.52692 107.860855L249.52692 109.65773L247.73004 109.65773ZM251.83942 106.25148L253.43317 106.048355Q253.69879 107.392105 254.35504 107.985855Q255.01129 108.579605 255.94879 108.579605Q257.0738 108.579605 257.83942 107.81398Q258.60504 107.03273 258.60504 105.892105Q258.60504 104.798355 257.8863 104.09523Q257.18317 103.37648 256.08942 103.37648Q255.63629 103.37648 254.96442 103.56398L255.13629 102.173355Q255.29254 102.18898 255.40192 102.18898Q256.40192 102.18898 257.21442 101.65773Q258.02692 101.12648 258.02692 100.03273Q258.02692 99.15773 257.43317 98.59523Q256.83942 98.017105 255.91754 98.017105Q254.99567 98.017105 254.37067 98.59523Q253.76129 99.173355 253.58942 100.34523L252.01129 100.06398Q252.29254 98.47023 253.32379 97.59523Q254.35504 96.72023 255.88629 96.72023Q256.93317 96.72023 257.8238 97.173355Q258.71442 97.62648 259.18317 98.40773Q259.65192 99.18898 259.65192 100.06398Q259.65192 100.90773 259.1988 101.59523Q258.7613 102.267105 257.87067 102.673355Q259.0113 102.93898 259.6363 103.78273Q260.27692 104.610855 260.27692 105.84523Q260.27692 107.53273 259.04254 108.72023Q257.8238 109.892105 255.94879 109.892105Q254.24567 109.892105 253.12067 108.87648Q252.01129 107.860855 251.83942 106.25148ZM262.1363 99.860855Q262.1363 98.485855 262.8238 97.517105Q263.52692 96.548355 264.83942 96.548355Q266.05817 96.548355 266.85504 97.423355Q267.65192 98.28273 267.65192 99.97023Q267.65192 101.59523 266.83942 102.485855Q266.04254 103.360855 264.85504 103.360855Q263.6988 103.360855 262.91754 102.50148Q262.1363 101.62648 262.1363 99.860855ZM264.8863 97.642105Q264.29254 97.642105 263.90192 98.15773Q263.5113 98.65773 263.5113 100.017105Q263.5113 101.267105 263.90192 101.767105Q264.30817 102.267105 264.8863 102.267105Q265.48004 102.267105 265.87067 101.767105Q266.2613 101.25148 266.2613 99.90773Q266.2613 98.65773 265.87067 98.15773Q265.48004 97.642105 264.8863 97.642105ZM264.90192 110.12648L271.9488 96.548355L273.23004 96.548355L266.1988 110.12648L264.90192 110.12648ZM270.46442 106.62648Q270.46442 105.25148 271.15192 104.28273Q271.85504 103.31398 273.18317 103.31398Q274.40192 103.31398 275.18317 104.18898Q275.98004 105.048355 275.98004 106.735855Q275.98004 108.360855 275.18317 109.25148Q274.3863 110.12648 273.1988 110.12648Q272.02692 110.12648 271.24567 109.25148Q270.46442 108.37648 270.46442 106.62648ZM273.23004 104.40773Q272.6363 104.40773 272.24567 104.923355Q271.85504 105.423355 271.85504 106.798355Q271.85504 108.017105 272.24567 108.53273Q272.6363 109.048355 273.21442 109.048355Q273.8238 109.048355 274.21442 108.53273Q274.60504 108.017105 274.60504 106.673355Q274.60504 105.423355 274.21442 104.923355Q273.8238 104.40773 273.23004 104.40773Z" fill-rule="nonzero"/><path stroke="#ffffff" stroke-width="1.0" stroke-linejoin="round" stroke-linecap="round" d="M372.5184 220.23518C377.5555 198.16605 372.26898 175.00415 358.15524 157.30608C344.0415 139.60802 322.6367 129.3 300.0 129.3L300.0 54.916668C345.27335 54.916668 388.08298 75.53269 416.31046 110.92883C444.53793 146.32497 455.11105 192.64877 445.03677 236.78703" fill-rule="nonzero"/><path stroke="#ffffff" stroke-width="1.0" stroke-linejoin="round" stroke-linecap="round" d="M267.7263 270.7004C288.12122 280.5221 311.87878 280.5221 332.2737 270.7004C352.66867 260.87872 367.48126 242.30432 372.5184 220.23518L445.03677 236.78703C434.9625 280.9253 405.33734 318.0741 364.54742 337.71747C323.75754 357.36084 276.24246 357.36084 235.45256 337.71747" fill-rule="nonzero"/><path stroke="#ffffff" stroke-width="1.0" stroke-linejoin="round" stroke-linecap="round" d="M227.48161 220.23518C232.51875 242.30432 247.33133 260.87872 267.7263 270.7004L235.45256 337.71747C194.66267 318.0741 165.03749 280.9253 154.96323 236.78703" fill-rule="nonzero"/><path stroke="#ffffff" stroke-width="1.0" stroke-linejoin="round" stroke-linecap="round" d="M241.84477 157.30608C227.73103 175.00415 222.44447 198.16605 227.48161 220.23518L154.96323 236.78703C144.88895 192.64877 155.46205 146.32497 183.68953 110.92883" fill-rule="nonzero"/><path stroke="#ffffff" stroke-width="1.0" stroke-linejoin="round" stroke-linecap="round" d="M300.0 129.3C277.3633 129.3 255.95851 139.60802 241.84477 157.30608L183.68953 110.92883C211.91702 75.53269 254.72664 54.916668 300.0 54.916668" fill-rule="nonzero"/><path fill="#efefef" d="M22.70625 70.85091L22.70625 60.74153L18.925 60.74153L18.925 59.39778L28.003124 59.39778L28.003124 60.74153L24.221874 60.74153L24.221874 70.85091L22.70625 70.85091ZM35.284374 68.17903L36.7375 68.35091Q36.39375 69.63216 35.45625 70.33528Q34.534374 71.03841 33.096874 71.03841Q31.26875 71.03841 30.20625 69.91341Q29.14375 68.78841 29.14375 66.77278Q29.14375 64.67903 30.221874 63.52278Q31.3 62.36653 33.01875 62.36653Q34.675 62.36653 35.721874 63.507156Q36.784374 64.63216 36.784374 66.67903Q36.784374 66.80403 36.784374 67.05403L30.596874 67.05403Q30.675 68.42903 31.3625 69.16341Q32.065624 69.88216 33.096874 69.88216Q33.878124 69.88216 34.425 69.47591Q34.971874 69.06966 35.284374 68.17903ZM30.675 65.89778L35.3 65.89778Q35.20625 64.85091 34.76875 64.33528Q34.096874 63.52278 33.034374 63.52278Q32.065624 63.52278 31.39375 64.17903Q30.7375 64.81966 30.675 65.89778ZM37.675 70.85091L40.70625 66.53841L37.89375 62.55403L39.659374 62.55403L40.925 64.49153Q41.284374 65.05403 41.503124 65.42903Q41.846874 64.91341 42.14375 64.50716L43.534374 62.55403L45.221874 62.55403L42.346874 66.46028L45.440624 70.85091L43.70625 70.85091L42.003124 68.27278L41.55 67.56966L39.378124 70.85091L37.675 70.85091ZM49.675 69.58528L49.878124 70.83528Q49.284374 70.96028 48.815624 70.96028Q48.05 70.96028 47.628124 70.72591Q47.20625 70.47591 47.034374 70.08528Q46.8625 69.67903 46.8625 68.41341L46.8625 63.64778L45.83125 63.64778L45.83125 62.55403L46.8625 62.55403L46.8625 60.49153L48.26875 59.64778L48.26875 62.55403L49.675 62.55403L49.675 63.64778L48.26875 63.64778L48.26875 68.49153Q48.26875 69.10091 48.33125 69.27278Q48.409374 69.44466 48.58125 69.55403Q48.753124 69.64778 49.065624 69.64778Q49.3 69.64778 49.675 69.58528Z" fill-rule="nonzero"/><path fill="#9e9e9e" d="M24.51875 92.85091L23.1125 92.85091L23.1125 83.88216Q22.596874 84.36653 21.76875 84.85091Q20.95625 85.33528 20.3 85.58528L20.3 84.22591Q21.471874 83.66341 22.346874 82.88216Q23.2375 82.08528 23.6125 81.35091L24.51875 81.35091L24.51875 92.85091ZM32.721874 92.85091L32.721874 90.10091L27.753124 90.10091L27.753124 88.81966L32.9875 81.39778L34.128124 81.39778L34.128124 88.81966L35.675 88.81966L35.675 90.10091L34.128124 90.10091L34.128124 92.85091L32.721874 92.85091ZM32.721874 88.81966L32.721874 83.64778L29.14375 88.81966L32.721874 88.81966ZM38.003124 92.85091L38.003124 91.24153L39.6125 91.24153L39.6125 92.85091L38.003124 92.85091ZM41.221874 89.81966L42.628124 89.63216Q42.878124 90.83528 43.45625 91.36653Q44.034374 91.88216 44.878124 91.88216Q45.8625 91.88216 46.55 91.19466Q47.2375 90.50716 47.2375 89.49153Q47.2375 88.52278 46.596874 87.89778Q45.971874 87.27278 44.9875 87.27278Q44.596874 87.27278 44.003124 87.42903L44.159374 86.19466Q44.3 86.21028 44.378124 86.21028Q45.284374 86.21028 46.003124 85.74153Q46.721874 85.27278 46.721874 84.28841Q46.721874 83.52278 46.190624 83.02278Q45.675 82.50716 44.846874 82.50716Q44.01875 82.50716 43.471874 83.02278Q42.925 83.53841 42.76875 84.56966L41.3625 84.31966Q41.628124 82.89778 42.534374 82.13216Q43.45625 81.35091 44.815624 81.35091Q45.753124 81.35091 46.534374 81.75716Q47.33125 82.14778 47.7375 82.85091Q48.159374 83.53841 48.159374 84.31966Q48.159374 85.06966 47.753124 85.67903Q47.3625 86.28841 46.58125 86.64778Q47.596874 86.88216 48.159374 87.61653Q48.721874 88.35091 48.721874 89.46028Q48.721874 90.96028 47.628124 92.00716Q46.534374 93.05403 44.8625 93.05403Q43.3625 93.05403 42.3625 92.16341Q41.3625 91.25716 41.221874 89.81966ZM50.4875 84.14778Q50.4875 82.91341 51.096874 82.05403Q51.721874 81.19466 52.89375 81.19466Q53.971874 81.19466 54.675 81.97591Q55.378124 82.74153 55.378124 84.22591Q55.378124 85.67903 54.659374 86.47591Q53.95625 87.25716 52.909374 87.25716Q51.8625 87.25716 51.175 86.49153Q50.4875 85.71028 50.4875 84.14778ZM52.925 82.16341Q52.409374 82.16341 52.05 82.61653Q51.70625 83.06966 51.70625 84.28841Q51.70625 85.38216 52.05 85.83528Q52.409374 86.28841 52.925 86.28841Q53.45625 86.28841 53.8 85.83528Q54.159374 85.38216 54.159374 84.17903Q54.159374 83.06966 53.8 82.61653Q53.45625 82.16341 52.925 82.16341ZM52.940624 93.27278L59.20625 81.19466L60.346874 81.19466L54.096874 93.27278L52.940624 93.27278ZM57.89375 90.16341Q57.89375 88.92903 58.503124 88.06966Q59.128124 87.21028 60.3 87.21028Q61.378124 87.21028 62.08125 87.99153Q62.8 88.75716 62.8 90.24153Q62.8 91.69466 62.08125 92.49153Q61.3625 93.27278 60.315624 93.27278Q59.26875 93.27278 58.58125 92.49153Q57.89375 91.71028 57.89375 90.16341ZM60.346874 88.17903Q59.815624 88.17903 59.45625 88.63216Q59.1125 89.08528 59.1125 90.30403Q59.1125 91.39778 59.45625 91.85091Q59.815624 92.30403 60.33125 92.30403Q60.878124 92.30403 61.221874 91.85091Q61.565624 91.39778 61.565624 90.19466Q61.565624 89.08528 61.20625 88.63216Q60.8625 88.17903 60.346874 88.17903Z" fill-rule="nonzero"/><path stroke="#757575" stroke-width="1.0" stroke-linecap="butt" d="M18.55 76.35091L145.23334 76.35091L238.67993 76.35091" fill-rule="nonzero"/><path fill="#9e9e9e" d="M240.67993 76.35091C240.67993 75.24634 239.7845 74.35091 238.67993 74.35091C237.57536 74.35091 236.67993 75.24634 236.67993 76.35091C236.67993 77.455475 237.57536 78.35091 238.67993 78.35091C239.7845 78.35091 240.67993 77.455475 240.67993 76.35091" fill-rule="nonzero"/><path fill="#efefef" d="M18.51875 166.73482L22.925 155.2817L24.565624 155.2817L29.253124 166.73482L27.51875 166.73482L26.190624 163.26607L21.39375 163.26607L20.14375 166.73482L18.51875 166.73482ZM21.83125 162.0317L25.721874 162.0317L24.51875 158.85982Q23.971874 157.4067 23.70625 156.48482Q23.4875 157.57857 23.096874 158.67232L21.83125 162.0317ZM30.596874 166.73482L30.596874 158.43794L31.8625 158.43794L31.8625 159.68794Q32.346874 158.81294 32.753124 158.5317Q33.159374 158.25044 33.659374 158.25044Q34.3625 158.25044 35.096874 158.70357L34.6125 160.00044Q34.096874 159.70357 33.58125 159.70357Q33.128124 159.70357 32.753124 159.98482Q32.39375 160.25044 32.2375 160.75044Q32.003124 161.50044 32.003124 162.39107L32.003124 166.73482L30.596874 166.73482ZM41.01875 163.68794L42.409374 163.87544Q42.175 165.29732 41.2375 166.10982Q40.315624 166.92232 38.95625 166.92232Q37.253124 166.92232 36.20625 165.81294Q35.175 164.68794 35.175 162.60982Q35.175 161.26607 35.6125 160.26607Q36.065624 159.25044 36.971874 158.75044Q37.89375 158.25044 38.95625 158.25044Q40.315624 158.25044 41.175 158.93794Q42.034374 159.60982 42.26875 160.87544L40.909374 161.07857Q40.70625 160.25044 40.20625 159.82857Q39.721874 159.4067 39.01875 159.4067Q37.95625 159.4067 37.284374 160.17232Q36.628124 160.92232 36.628124 162.57857Q36.628124 164.25044 37.26875 165.01607Q37.909374 165.76607 38.940624 165.76607Q39.76875 165.76607 40.315624 165.26607Q40.878124 164.75044 41.01875 163.68794ZM43.6125 166.73482L43.6125 155.2817L45.01875 155.2817L45.01875 159.39107Q46.003124 158.25044 47.503124 158.25044Q48.425 158.25044 49.096874 158.60982Q49.784374 158.9692 50.065624 159.60982Q50.3625 160.25044 50.3625 161.4692L50.3625 166.73482L48.95625 166.73482L48.95625 161.4692Q48.95625 160.42232 48.503124 159.93794Q48.05 159.45357 47.20625 159.45357Q46.58125 159.45357 46.034374 159.7817Q45.4875 160.10982 45.253124 160.67232Q45.01875 161.2192 45.01875 162.18794L45.01875 166.73482L43.6125 166.73482ZM52.6125 156.89107L52.6125 155.2817L54.01875 155.2817L54.01875 156.89107L52.6125 156.89107ZM52.6125 166.73482L52.6125 158.43794L54.01875 158.43794L54.01875 166.73482L52.6125 166.73482ZM59.675 165.4692L59.878124 166.7192Q59.284374 166.8442 58.815624 166.8442Q58.05 166.8442 57.628124 166.60982Q57.20625 166.35982 57.034374 165.9692Q56.8625 165.56294 56.8625 164.29732L56.8625 159.5317L55.83125 159.5317L55.83125 158.43794L56.8625 158.43794L56.8625 156.37544L58.26875 155.5317L58.26875 158.43794L59.675 158.43794L59.675 159.5317L58.26875 159.5317L58.26875 164.37544Q58.26875 164.98482 58.33125 165.1567Q58.409374 165.32857 58.58125 165.43794Q58.753124 165.5317 59.065624 165.5317Q59.3 165.5317 59.675 165.4692ZM66.28438 164.06294L67.7375 164.23482Q67.39375 165.51607 66.45625 166.2192Q65.53438 166.92232 64.09688 166.92232Q62.26875 166.92232 61.20625 165.79732Q60.14375 164.67232 60.14375 162.6567Q60.14375 160.56294 61.221874 159.4067Q62.3 158.25044 64.01875 158.25044Q65.675 158.25044 66.72188 159.39107Q67.78438 160.51607 67.78438 162.56294Q67.78438 162.68794 67.78438 162.93794L61.596874 162.93794Q61.675 164.31294 62.3625 165.04732Q63.065624 165.76607 64.09688 165.76607Q64.87813 165.76607 65.425 165.35982Q65.97188 164.95357 66.28438 164.06294ZM61.675 161.7817L66.3 161.7817Q66.20625 160.73482 65.76875 160.2192Q65.09688 159.4067 64.03438 159.4067Q63.065624 159.4067 62.39375 160.06294Q61.7375 160.70357 61.675 161.7817ZM75.01875 163.68794L76.40938 163.87544Q76.175 165.29732 75.2375 166.10982Q74.31563 166.92232 72.95625 166.92232Q71.25313 166.92232 70.20625 165.81294Q69.175 164.68794 69.175 162.60982Q69.175 161.26607 69.6125 160.26607Q70.06563 159.25044 70.97188 158.75044Q71.89375 158.25044 72.95625 158.25044Q74.31563 158.25044 75.175 158.93794Q76.03438 159.60982 76.26875 160.87544L74.90938 161.07857Q74.70625 160.25044 74.20625 159.82857Q73.72188 159.4067 73.01875 159.4067Q71.95625 159.4067 71.28438 160.17232Q70.62813 160.92232 70.62813 162.57857Q70.62813 164.25044 71.26875 165.01607Q71.90938 165.76607 72.94063 165.76607Q73.76875 165.76607 74.31563 165.26607Q74.87813 164.75044 75.01875 163.68794ZM80.675 165.4692L80.87813 166.7192Q80.28438 166.8442 79.81563 166.8442Q79.05 166.8442 78.62813 166.60982Q78.20625 166.35982 78.03438 165.9692Q77.8625 165.56294 77.8625 164.29732L77.8625 159.5317L76.83125 159.5317L76.83125 158.43794L77.8625 158.43794L77.8625 156.37544L79.26875 155.5317L79.26875 158.43794L80.675 158.43794L80.675 159.5317L79.26875 159.5317L79.26875 164.37544Q79.26875 164.98482 79.33125 165.1567Q79.40938 165.32857 79.58125 165.43794Q79.75313 165.5317 80.06563 165.5317Q80.3 165.5317 80.675 165.4692ZM87.05 166.73482L87.05 165.51607Q86.08125 166.92232 84.40938 166.92232Q83.675 166.92232 83.03438 166.64107Q82.40938 166.35982 82.09688 165.93794Q81.78438 165.50044 81.65938 164.89107Q81.58125 164.4692 81.58125 163.57857L81.58125 158.43794L82.9875 158.43794L82.9875 163.0317Q82.9875 164.14107 83.06563 164.51607Q83.20625 165.07857 83.62813 165.39107Q84.06563 165.70357 84.69063 165.70357Q85.33125 165.70357 85.87813 165.39107Q86.44063 165.06294 86.65938 164.50044Q86.89375 163.93794 86.89375 162.87544L86.89375 158.43794L88.3 158.43794L88.3 166.73482L87.05 166.73482ZM90.59688 166.73482L90.59688 158.43794L91.8625 158.43794L91.8625 159.68794Q92.34688 158.81294 92.75313 158.5317Q93.15938 158.25044 93.65938 158.25044Q94.3625 158.25044 95.09688 158.70357L94.6125 160.00044Q94.09688 159.70357 93.58125 159.70357Q93.12813 159.70357 92.75313 159.98482Q92.39375 160.25044 92.2375 160.75044Q92.00313 161.50044 92.00313 162.39107L92.00313 166.73482L90.59688 166.73482ZM101.28438 164.06294L102.7375 164.23482Q102.39375 165.51607 101.45625 166.2192Q100.53438 166.92232 99.09688 166.92232Q97.26875 166.92232 96.20625 165.79732Q95.14375 164.67232 95.14375 162.6567Q95.14375 160.56294 96.22188 159.4067Q97.3 158.25044 99.01875 158.25044Q100.675 158.25044 101.72188 159.39107Q102.78438 160.51607 102.78438 162.56294Q102.78438 162.68794 102.78438 162.93794L96.59688 162.93794Q96.675 164.31294 97.3625 165.04732Q98.06563 165.76607 99.09688 165.76607Q99.87813 165.76607 100.425 165.35982Q100.97188 164.95357 101.28438 164.06294ZM96.675 161.7817L101.3 161.7817Q101.20625 160.73482 100.76875 160.2192Q100.09688 159.4067 99.03438 159.4067Q98.06563 159.4067 97.39375 160.06294Q96.7375 160.70357 96.675 161.7817ZM115.15938 165.37544Q114.45625 166.1567 113.62813 166.54732Q112.81563 166.93794 111.8625 166.93794Q110.1125 166.93794 109.08125 165.73482Q108.2375 164.76607 108.2375 163.57857Q108.2375 162.51607 108.925 161.6567Q109.6125 160.79732 110.97188 160.1567Q110.19063 159.26607 109.925 158.7192Q109.675 158.1567 109.675 157.64107Q109.675 156.60982 110.4875 155.8442Q111.3 155.07857 112.51875 155.07857Q113.69063 155.07857 114.44063 155.79732Q115.19063 156.51607 115.19063 157.5317Q115.19063 159.1567 113.01875 160.31294L115.08125 162.93794Q115.425 162.25044 115.62813 161.3442L117.08125 161.6567Q116.70625 163.1567 116.06563 164.12544Q116.8625 165.17232 117.8625 165.87544L116.90938 167.00044Q116.06563 166.45357 115.15938 165.37544ZM112.3 159.4067Q113.20625 158.87544 113.47188 158.4692Q113.75313 158.06294 113.75313 157.56294Q113.75313 156.98482 113.37813 156.60982Q113.00313 156.23482 112.45625 156.23482Q111.87813 156.23482 111.50313 156.60982Q111.12813 156.9692 111.12813 157.50044Q111.12813 157.76607 111.25313 158.06294Q111.39375 158.35982 111.675 158.68794L112.3 159.4067ZM114.26875 164.26607L111.69063 161.07857Q110.55 161.75044 110.14375 162.3442Q109.75313 162.92232 109.75313 163.48482Q109.75313 164.18794 110.3 164.93794Q110.8625 165.68794 111.87813 165.68794Q112.51875 165.68794 113.19063 165.29732Q113.8625 164.89107 114.26875 164.26607Z" fill-rule="nonzero"/><path fill="#9e9e9e" d="M24.51875 188.73482L23.1125 188.73482L23.1125 179.76607Q22.596874 180.25044 21.76875 180.73482Q20.95625 181.2192 20.3 181.4692L20.3 180.10982Q21.471874 179.54732 22.346874 178.76607Q23.2375 177.9692 23.6125 177.23482L24.51875 177.23482L24.51875 188.73482ZM32.721874 188.73482L32.721874 185.98482L27.753124 185.98482L27.753124 184.70357L32.9875 177.2817L34.128124 177.2817L34.128124 184.70357L35.675 184.70357L35.675 185.98482L34.128124 185.98482L34.128124 188.73482L32.721874 188.73482ZM32.721874 184.70357L32.721874 179.5317L29.14375 184.70357L32.721874 184.70357ZM38.003124 188.73482L38.003124 187.12544L39.6125 187.12544L39.6125 188.73482L38.003124 188.73482ZM41.221874 185.70357L42.628124 185.51607Q42.878124 186.7192 43.45625 187.25044Q44.034374 187.76607 44.878124 187.76607Q45.8625 187.76607 46.55 187.07857Q47.2375 186.39107 47.2375 185.37544Q47.2375 184.4067 46.596874 183.7817Q45.971874 183.1567 44.9875 183.1567Q44.596874 183.1567 44.003124 183.31294L44.159374 182.07857Q44.3 182.0942 44.378124 182.0942Q45.284374 182.0942 46.003124 181.62544Q46.721874 181.1567 46.721874 180.17232Q46.721874 179.4067 46.190624 178.9067Q45.675 178.39107 44.846874 178.39107Q44.01875 178.39107 43.471874 178.9067Q42.925 179.42232 42.76875 180.45357L41.3625 180.20357Q41.628124 178.7817 42.534374 178.01607Q43.45625 177.23482 44.815624 177.23482Q45.753124 177.23482 46.534374 177.64107Q47.33125 178.0317 47.7375 178.73482Q48.159374 179.42232 48.159374 180.20357Q48.159374 180.95357 47.753124 181.56294Q47.3625 182.17232 46.58125 182.5317Q47.596874 182.76607 48.159374 183.50044Q48.721874 184.23482 48.721874 185.3442Q48.721874 186.8442 47.628124 187.89107Q46.534374 188.93794 44.8625 188.93794Q43.3625 188.93794 42.3625 188.04732Q41.3625 187.14107 41.221874 185.70357ZM50.4875 180.0317Q50.4875 178.79732 51.096874 177.93794Q51.721874 177.07857 52.89375 177.07857Q53.971874 177.07857 54.675 177.85982Q55.378124 178.62544 55.378124 180.10982Q55.378124 181.56294 54.659374 182.35982Q53.95625 183.14107 52.909374 183.14107Q51.8625 183.14107 51.175 182.37544Q50.4875 181.5942 50.4875 180.0317ZM52.925 178.04732Q52.409374 178.04732 52.05 178.50044Q51.70625 178.95357 51.70625 180.17232Q51.70625 181.26607 52.05 181.7192Q52.409374 182.17232 52.925 182.17232Q53.45625 182.17232 53.8 181.7192Q54.159374 181.26607 54.159374 180.06294Q54.159374 178.95357 53.8 178.50044Q53.45625 178.04732 52.925 178.04732ZM52.940624 189.1567L59.20625 177.07857L60.346874 177.07857L54.096874 189.1567L52.940624 189.1567ZM57.89375 186.04732Q57.89375 184.81294 58.503124 183.95357Q59.128124 183.0942 60.3 183.0942Q61.378124 183.0942 62.08125 183.87544Q62.8 184.64107 62.8 186.12544Q62.8 187.57857 62.08125 188.37544Q61.3625 189.1567 60.315624 189.1567Q59.26875 189.1567 58.58125 188.37544Q57.89375 187.5942 57.89375 186.04732ZM60.346874 184.06294Q59.815624 184.06294 59.45625 184.51607Q59.1125 184.9692 59.1125 186.18794Q59.1125 187.2817 59.45625 187.73482Q59.815624 188.18794 60.33125 188.18794Q60.878124 188.18794 61.221874 187.73482Q61.565624 187.2817 61.565624 186.07857Q61.565624 184.9692 61.20625 184.51607Q60.8625 184.06294 60.346874 184.06294Z" fill-rule="nonzero"/><path stroke="#757575" stroke-width="1.0" stroke-linecap="butt" d="M18.55 172.23482L145.23334 172.23482L162.21506 172.23482" fill-rule="nonzero"/><path fill="#9e9e9e" d="M164.21506 172.23482C164.21506 171.13025 163.31963 170.23482 162.21506 170.23482C161.11049 170.23482 160.21506 171.13025 160.21506 172.23482C160.21506 173.33939 161.11049 174.23482 162.21506 174.23482C163.31963 174.23482 164.21506 173.33939 164.21506 172.23482" fill-rule="nonzero"/><path fill="#efefef" d="M19.7375 286.3001L19.7375 274.847L22.01875 274.847L24.7375 282.95636Q25.1125 284.08136 25.284374 284.64386Q25.471874 284.01886 25.89375 282.81573L28.628124 274.847L30.675 274.847L30.675 286.3001L29.20625 286.3001L29.20625 276.70636L25.878124 286.3001L24.51875 286.3001L21.20625 276.5501L21.20625 286.3001L19.7375 286.3001ZM32.6125 276.45636L32.6125 274.847L34.01875 274.847L34.01875 276.45636L32.6125 276.45636ZM32.6125 286.3001L32.6125 278.00323L34.01875 278.00323L34.01875 286.3001L32.6125 286.3001ZM36.58125 286.3001L36.58125 274.847L37.9875 274.847L37.9875 286.3001L36.58125 286.3001ZM40.6125 276.45636L40.6125 274.847L42.01875 274.847L42.01875 276.45636L40.6125 276.45636ZM40.6125 286.3001L40.6125 278.00323L42.01875 278.00323L42.01875 286.3001L40.6125 286.3001ZM47.675 285.0345L47.878124 286.2845Q47.284374 286.4095 46.815624 286.4095Q46.05 286.4095 45.628124 286.1751Q45.20625 285.9251 45.034374 285.5345Q44.8625 285.12823 44.8625 283.8626L44.8625 279.097L43.83125 279.097L43.83125 278.00323L44.8625 278.00323L44.8625 275.94073L46.26875 275.097L46.26875 278.00323L47.675 278.00323L47.675 279.097L46.26875 279.097L46.26875 283.94073Q46.26875 284.5501 46.33125 284.722Q46.409374 284.89386 46.58125 285.00323Q46.753124 285.097 47.065624 285.097Q47.3 285.097 47.675 285.0345ZM54.01875 285.26886Q53.2375 285.94073 52.51875 286.222Q51.8 286.4876 50.971874 286.4876Q49.596874 286.4876 48.8625 285.81573Q48.128124 285.14386 48.128124 284.1126Q48.128124 283.50323 48.409374 283.00323Q48.690624 282.4876 49.128124 282.19073Q49.58125 281.87823 50.14375 281.722Q50.565624 281.6126 51.39375 281.51886Q53.096874 281.31573 53.909374 281.0345Q53.909374 280.7376 53.909374 280.6595Q53.909374 279.8001 53.51875 279.45636Q52.971874 278.972 51.909374 278.972Q50.925 278.972 50.440624 279.33136Q49.971874 279.6751 49.753124 280.5501L48.378124 280.3626Q48.565624 279.4876 48.9875 278.94073Q49.425 278.39386 50.2375 278.1126Q51.05 277.81573 52.1125 277.81573Q53.175 277.81573 53.83125 278.06573Q54.503124 278.31573 54.815624 278.69073Q55.128124 279.06573 55.253124 279.64386Q55.33125 280.00323 55.33125 280.94073L55.33125 282.81573Q55.33125 284.7845 55.409374 285.3001Q55.503124 285.81573 55.76875 286.3001L54.3 286.3001Q54.08125 285.8626 54.01875 285.26886ZM53.909374 282.12823Q53.14375 282.44073 51.6125 282.6595Q50.7375 282.7845 50.378124 282.94073Q50.01875 283.097 49.815624 283.4095Q49.628124 283.70636 49.628124 284.06573Q49.628124 284.62823 50.05 285.00323Q50.4875 285.37823 51.3 285.37823Q52.1125 285.37823 52.7375 285.0345Q53.378124 284.6751 53.675 284.0501Q53.909374 283.58136 53.909374 282.64386L53.909374 282.12823ZM57.596874 286.3001L57.596874 278.00323L58.8625 278.00323L58.8625 279.25323Q59.346874 278.37823 59.753124 278.097Q60.159374 277.81573 60.659374 277.81573Q61.3625 277.81573 62.096874 278.26886L61.6125 279.56573Q61.096874 279.26886 60.58125 279.26886Q60.128124 279.26886 59.753124 279.5501Q59.39375 279.81573 59.2375 280.31573Q59.003124 281.06573 59.003124 281.95636L59.003124 286.3001L57.596874 286.3001ZM62.55 289.50323L62.39375 288.1751Q62.846874 288.3001 63.190624 288.3001Q63.659374 288.3001 63.940624 288.14386Q64.22188 287.9876 64.40938 287.70636Q64.53438 287.50323 64.83125 286.6595Q64.87813 286.5501 64.95625 286.31573L61.815624 278.00323L63.33125 278.00323L65.05 282.8001Q65.39375 283.722 65.65938 284.722Q65.89375 283.75323 66.2375 282.83136L68.00313 278.00323L69.40938 278.00323L66.25313 286.44073Q65.75313 287.81573 65.47188 288.33136Q65.09688 289.01886 64.6125 289.347Q64.12813 289.6751 63.45625 289.6751Q63.05 289.6751 62.55 289.50323Z" fill-rule="nonzero"/><path fill="#9e9e9e" d="M24.51875 308.3001L23.1125 308.3001L23.1125 299.33136Q22.596874 299.81573 21.76875 300.3001Q20.95625 300.7845 20.3 301.0345L20.3 299.6751Q21.471874 299.1126 22.346874 298.33136Q23.2375 297.5345 23.6125 296.8001L24.51875 296.8001L24.51875 308.3001ZM32.721874 308.3001L32.721874 305.5501L27.753124 305.5501L27.753124 304.26886L32.9875 296.847L34.128124 296.847L34.128124 304.26886L35.675 304.26886L35.675 305.5501L34.128124 305.5501L34.128124 308.3001L32.721874 308.3001ZM32.721874 304.26886L32.721874 299.097L29.14375 304.26886L32.721874 304.26886ZM38.003124 308.3001L38.003124 306.69073L39.6125 306.69073L39.6125 308.3001L38.003124 308.3001ZM41.221874 305.26886L42.628124 305.08136Q42.878124 306.2845 43.45625 306.81573Q44.034374 307.33136 44.878124 307.33136Q45.8625 307.33136 46.55 306.64386Q47.2375 305.95636 47.2375 304.94073Q47.2375 303.972 46.596874 303.347Q45.971874 302.722 44.9875 302.722Q44.596874 302.722 44.003124 302.87823L44.159374 301.64386Q44.3 301.6595 44.378124 301.6595Q45.284374 301.6595 46.003124 301.19073Q46.721874 300.722 46.721874 299.7376Q46.721874 298.972 46.190624 298.472Q45.675 297.95636 44.846874 297.95636Q44.01875 297.95636 43.471874 298.472Q42.925 298.9876 42.76875 300.01886L41.3625 299.76886Q41.628124 298.347 42.534374 297.58136Q43.45625 296.8001 44.815624 296.8001Q45.753124 296.8001 46.534374 297.20636Q47.33125 297.597 47.7375 298.3001Q48.159374 298.9876 48.159374 299.76886Q48.159374 300.51886 47.753124 301.12823Q47.3625 301.7376 46.58125 302.097Q47.596874 302.33136 48.159374 303.06573Q48.721874 303.8001 48.721874 304.9095Q48.721874 306.4095 47.628124 307.45636Q46.534374 308.50323 44.8625 308.50323Q43.3625 308.50323 42.3625 307.6126Q41.3625 306.70636 41.221874 305.26886ZM50.4875 299.597Q50.4875 298.3626 51.096874 297.50323Q51.721874 296.64386 52.89375 296.64386Q53.971874 296.64386 54.675 297.4251Q55.378124 298.19073 55.378124 299.6751Q55.378124 301.12823 54.659374 301.9251Q53.95625 302.70636 52.909374 302.70636Q51.8625 302.70636 51.175 301.94073Q50.4875 301.1595 50.4875 299.597ZM52.925 297.6126Q52.409374 297.6126 52.05 298.06573Q51.70625 298.51886 51.70625 299.7376Q51.70625 300.83136 52.05 301.2845Q52.409374 301.7376 52.925 301.7376Q53.45625 301.7376 53.8 301.2845Q54.159374 300.83136 54.159374 299.62823Q54.159374 298.51886 53.8 298.06573Q53.45625 297.6126 52.925 297.6126ZM52.940624 308.722L59.20625 296.64386L60.346874 296.64386L54.096874 308.722L52.940624 308.722ZM57.89375 305.6126Q57.89375 304.37823 58.503124 303.51886Q59.128124 302.6595 60.3 302.6595Q61.378124 302.6595 62.08125 303.44073Q62.8 304.20636 62.8 305.69073Q62.8 307.14386 62.08125 307.94073Q61.3625 308.722 60.315624 308.722Q59.26875 308.722 58.58125 307.94073Q57.89375 307.1595 57.89375 305.6126ZM60.346874 303.62823Q59.815624 303.62823 59.45625 304.08136Q59.1125 304.5345 59.1125 305.75323Q59.1125 306.847 59.45625 307.3001Q59.815624 307.75323 60.33125 307.75323Q60.878124 307.75323 61.221874 307.3001Q61.565624 306.847 61.565624 305.64386Q61.565624 304.5345 61.20625 304.08136Q60.8625 303.62823 60.346874 303.62823Z" fill-rule="nonzero"/><path stroke="#757575" stroke-width="1.0" stroke-linecap="butt" d="M18.55 291.8001L145.23334 291.8001L189.50507 291.8001" fill-rule="nonzero"/><path fill="#9e9e9e" d="M191.50507 291.8001C191.50507 290.69553 190.60963 289.8001 189.50507 289.8001C188.4005 289.8001 187.50507 290.69553 187.50507 291.8001C187.50507 292.90466 188.4005 293.8001 189.50507 293.8001C190.60963 293.8001 191.50507 292.90466 191.50507 291.8001" fill-rule="nonzero"/><path fill="#efefef" d="M481.71564 110.06656L481.71564 98.613434L489.9969 98.613434L489.9969 99.957184L483.23126 99.957184L483.23126 103.47281L489.575 103.47281L489.575 104.81656L483.23126 104.81656L483.23126 108.707184L490.2625 108.707184L490.2625 110.06656L481.71564 110.06656ZM495.575 108.800934L495.77814 110.050934Q495.1844 110.175934 494.71564 110.175934Q493.95 110.175934 493.52814 109.94156Q493.10626 109.69156 492.9344 109.300934Q492.7625 108.894684 492.7625 107.62906L492.7625 102.863434L491.73126 102.863434L491.73126 101.769684L492.7625 101.769684L492.7625 99.707184L494.16876 98.863434L494.16876 101.769684L495.575 101.769684L495.575 102.863434L494.16876 102.863434L494.16876 107.707184Q494.16876 108.31656 494.23126 108.488434Q494.3094 108.66031 494.48126 108.769684Q494.65314 108.863434 494.96564 108.863434Q495.2 108.863434 495.575 108.800934ZM496.5125 110.06656L496.5125 98.613434L497.91876 98.613434L497.91876 102.72281Q498.90314 101.582184 500.40314 101.582184Q501.325 101.582184 501.9969 101.94156Q502.6844 102.300934 502.96564 102.94156Q503.2625 103.582184 503.2625 104.800934L503.2625 110.06656L501.85626 110.06656L501.85626 104.800934Q501.85626 103.75406 501.40314 103.269684Q500.95 102.78531 500.10626 102.78531Q499.48126 102.78531 498.9344 103.113434Q498.3875 103.44156 498.15314 104.00406Q497.91876 104.550934 497.91876 105.519684L497.91876 110.06656L496.5125 110.06656ZM505.5125 110.06656L505.5125 101.769684L506.77814 101.769684L506.77814 102.94156Q507.6844 101.582184 509.41876 101.582184Q510.16876 101.582184 510.79376 101.84781Q511.41876 102.113434 511.73126 102.550934Q512.04376 102.988434 512.16876 103.59781Q512.2469 103.988434 512.2469 104.957184L512.2469 110.06656L510.84064 110.06656L510.84064 105.019684Q510.84064 104.16031 510.66876 103.738434Q510.5125 103.300934 510.09064 103.050934Q509.6844 102.800934 509.1219 102.800934Q508.21564 102.800934 507.5594 103.37906Q506.91876 103.94156 506.91876 105.53531L506.91876 110.06656L505.5125 110.06656ZM514.5125 100.22281L514.5125 98.613434L515.91876 98.613434L515.91876 100.22281L514.5125 100.22281ZM514.5125 110.06656L514.5125 101.769684L515.91876 101.769684L515.91876 110.06656L514.5125 110.06656ZM523.91876 107.019684L525.3094 107.207184Q525.075 108.62906 524.1375 109.44156Q523.21564 110.25406 521.85626 110.25406Q520.15314 110.25406 519.10626 109.144684Q518.075 108.019684 518.075 105.94156Q518.075 104.59781 518.5125 103.59781Q518.96564 102.582184 519.8719 102.082184Q520.79376 101.582184 521.85626 101.582184Q523.21564 101.582184 524.075 102.269684Q524.9344 102.94156 525.16876 104.207184L523.8094 104.41031Q523.60626 103.582184 523.10626 103.16031Q522.6219 102.738434 521.91876 102.738434Q520.85626 102.738434 520.1844 103.50406Q519.52814 104.25406 519.52814 105.91031Q519.52814 107.582184 520.16876 108.34781Q520.8094 109.09781 521.84064 109.09781Q522.66876 109.09781 523.21564 108.59781Q523.77814 108.082184 523.91876 107.019684ZM536.04376 105.56656L536.04376 104.22281L540.90314 104.22281L540.90314 108.47281Q539.77814 109.363434 538.59064 109.81656Q537.40314 110.269684 536.15314 110.269684Q534.46564 110.269684 533.09064 109.550934Q531.71564 108.81656 531.0125 107.457184Q530.3094 106.082184 530.3094 104.394684Q530.3094 102.72281 530.9969 101.269684Q531.7 99.81656 533.0125 99.113434Q534.325 98.41031 536.04376 98.41031Q537.27814 98.41031 538.27814 98.81656Q539.29376 99.22281 539.85626 99.94156Q540.4344 100.66031 540.73126 101.81656L539.35626 102.19156Q539.10626 101.31656 538.71564 100.81656Q538.34064 100.31656 537.6219 100.019684Q536.91876 99.707184 536.04376 99.707184Q535.0125 99.707184 534.2469 100.03531Q533.4969 100.34781 533.02814 100.863434Q532.5594 101.37906 532.3094 101.988434Q531.8719 103.050934 531.8719 104.300934Q531.8719 105.832184 532.3875 106.863434Q532.91876 107.894684 533.91876 108.394684Q534.9344 108.894684 536.075 108.894684Q537.0594 108.894684 537.9969 108.519684Q538.9344 108.12906 539.41876 107.707184L539.41876 105.56656L536.04376 105.56656ZM542.4969 110.06656L542.4969 101.769684L543.7625 101.769684L543.7625 103.019684Q544.2469 102.144684 544.65314 101.863434Q545.0594 101.582184 545.5594 101.582184Q546.2625 101.582184 546.9969 102.03531L546.5125 103.332184Q545.9969 103.03531 545.48126 103.03531Q545.02814 103.03531 544.65314 103.31656Q544.29376 103.582184 544.1375 104.082184Q543.90314 104.832184 543.90314 105.72281L543.90314 110.06656L542.4969 110.06656ZM546.98126 105.91031Q546.98126 103.613434 548.2625 102.50406Q549.34064 101.582184 550.8719 101.582184Q552.59064 101.582184 553.66876 102.707184Q554.7625 103.81656 554.7625 105.800934Q554.7625 107.394684 554.27814 108.31656Q553.79376 109.238434 552.8719 109.75406Q551.96564 110.25406 550.8719 110.25406Q549.1375 110.25406 548.0594 109.144684Q546.98126 108.019684 546.98126 105.91031ZM548.4344 105.91031Q548.4344 107.50406 549.1219 108.300934Q549.825 109.09781 550.8719 109.09781Q551.91876 109.09781 552.60626 108.300934Q553.3094 107.50406 553.3094 105.863434Q553.3094 104.332184 552.60626 103.53531Q551.91876 102.738434 550.8719 102.738434Q549.825 102.738434 549.1219 103.53531Q548.4344 104.31656 548.4344 105.91031ZM561.95 110.06656L561.95 108.84781Q560.98126 110.25406 559.3094 110.25406Q558.575 110.25406 557.9344 109.97281Q557.3094 109.69156 556.9969 109.269684Q556.6844 108.832184 556.5594 108.22281Q556.48126 107.800934 556.48126 106.91031L556.48126 101.769684L557.8875 101.769684L557.8875 106.363434Q557.8875 107.47281 557.96564 107.84781Q558.10626 108.41031 558.52814 108.72281Q558.96564 109.03531 559.59064 109.03531Q560.23126 109.03531 560.77814 108.72281Q561.34064 108.394684 561.5594 107.832184Q561.79376 107.269684 561.79376 106.207184L561.79376 101.769684L563.2 101.769684L563.2 110.06656L561.95 110.06656ZM565.5125 113.25406L565.5125 101.769684L566.79376 101.769684L566.79376 102.84781Q567.2469 102.207184 567.8094 101.894684Q568.3875 101.582184 569.2 101.582184Q570.2625 101.582184 571.075 102.12906Q571.8875 102.675934 572.29376 103.675934Q572.71564 104.66031 572.71564 105.84781Q572.71564 107.12906 572.2469 108.144684Q571.79376 109.16031 570.91876 109.707184Q570.0594 110.25406 569.09064 110.25406Q568.3875 110.25406 567.825 109.957184Q567.27814 109.66031 566.91876 109.207184L566.91876 113.25406L565.5125 113.25406ZM566.77814 105.957184Q566.77814 107.56656 567.41876 108.332184Q568.075 109.09781 568.9969 109.09781Q569.9344 109.09781 570.60626 108.300934Q571.27814 107.50406 571.27814 105.84781Q571.27814 104.25406 570.6219 103.47281Q569.96564 102.675934 569.0594 102.675934Q568.16876 102.675934 567.46564 103.519684Q566.77814 104.363434 566.77814 105.957184ZM573.95 107.582184L575.34064 107.363434Q575.45 108.207184 575.98126 108.66031Q576.52814 109.09781 577.48126 109.09781Q578.45 109.09781 578.91876 108.707184Q579.3875 108.300934 579.3875 107.769684Q579.3875 107.300934 578.98126 107.019684Q578.6844 106.832184 577.54376 106.550934Q575.9969 106.16031 575.3875 105.87906Q574.79376 105.582184 574.48126 105.082184Q574.1844 104.582184 574.1844 103.97281Q574.1844 103.41031 574.4344 102.94156Q574.6844 102.47281 575.1219 102.16031Q575.45 101.91031 576.0125 101.75406Q576.59064 101.582184 577.23126 101.582184Q578.21564 101.582184 578.95 101.863434Q579.6844 102.144684 580.02814 102.62906Q580.3875 103.09781 580.52814 103.91031L579.15314 104.09781Q579.0594 103.457184 578.60626 103.09781Q578.15314 102.738434 577.34064 102.738434Q576.3719 102.738434 575.95 103.06656Q575.54376 103.37906 575.54376 103.800934Q575.54376 104.082184 575.71564 104.300934Q575.8875 104.519684 576.2469 104.675934Q576.46564 104.75406 577.4969 105.03531Q578.98126 105.425934 579.575 105.69156Q580.16876 105.94156 580.4969 106.425934Q580.84064 106.91031 580.84064 107.62906Q580.84064 108.332184 580.41876 108.957184Q580.0125 109.56656 579.23126 109.91031Q578.46564 110.25406 577.4969 110.25406Q575.8719 110.25406 575.02814 109.582184Q574.1844 108.91031 573.95 107.582184Z" fill-rule="nonzero"/><path fill="#9e9e9e" d="M544.5125 130.70718L544.5125 132.06656L536.9344 132.06656Q536.91876 131.55093 537.10626 131.08218Q537.3875 130.31656 538.02814 129.56656Q538.66876 128.81656 539.8719 127.832184Q541.73126 126.300934 542.3875 125.41031Q543.04376 124.50406 543.04376 123.707184Q543.04376 122.87906 542.45 122.300934Q541.85626 121.72281 540.8875 121.72281Q539.8719 121.72281 539.2625 122.332184Q538.65314 122.94156 538.65314 124.019684L537.2 123.87906Q537.35626 122.25406 538.325 121.41031Q539.29376 120.56656 540.91876 120.56656Q542.575 120.56656 543.52814 121.488434Q544.4969 122.394684 544.4969 123.738434Q544.4969 124.425934 544.21564 125.09781Q543.9344 125.75406 543.27814 126.488434Q542.6219 127.22281 541.10626 128.50406Q539.84064 129.56656 539.48126 129.95718Q539.1219 130.33218 538.8875 130.70718L544.5125 130.70718ZM548.27814 125.84781Q547.40314 125.53531 546.98126 124.94156Q546.5594 124.34781 546.5594 123.519684Q546.5594 122.269684 547.45 121.425934Q548.35626 120.56656 549.85626 120.56656Q551.35626 120.56656 552.2625 121.44156Q553.1844 122.300934 553.1844 123.550934Q553.1844 124.34781 552.7625 124.94156Q552.34064 125.53531 551.4969 125.84781Q552.54376 126.19156 553.09064 126.957184Q553.65314 127.72281 553.65314 128.78531Q553.65314 130.25406 552.60626 131.26968Q551.575 132.26968 549.8719 132.26968Q548.1844 132.26968 547.1375 131.26968Q546.10626 130.25406 546.10626 128.75406Q546.10626 127.62906 546.66876 126.87906Q547.23126 126.12906 548.27814 125.84781ZM547.9969 123.47281Q547.9969 124.28531 548.5125 124.800934Q549.04376 125.31656 549.8875 125.31656Q550.7 125.31656 551.21564 124.800934Q551.73126 124.28531 551.73126 123.550934Q551.73126 122.769684 551.2 122.25406Q550.66876 121.72281 549.8719 121.72281Q549.0594 121.72281 548.52814 122.238434Q547.9969 122.75406 547.9969 123.47281ZM547.54376 128.75406Q547.54376 129.36343 547.825 129.92593Q548.1219 130.48843 548.6844 130.80093Q549.2469 131.09781 549.8875 131.09781Q550.90314 131.09781 551.5594 130.45718Q552.21564 129.80093 552.21564 128.80093Q552.21564 127.78531 551.52814 127.12906Q550.85626 126.457184 549.84064 126.457184Q548.85626 126.457184 548.2 127.113434Q547.54376 127.769684 547.54376 128.75406ZM555.90314 132.06656L555.90314 130.45718L557.5125 130.45718L557.5125 132.06656L555.90314 132.06656ZM566.41876 123.41031L565.0125 123.519684Q564.825 122.69156 564.48126 122.31656Q563.91876 121.72281 563.075 121.72281Q562.40314 121.72281 561.90314 122.09781Q561.23126 122.582184 560.84064 123.519684Q560.46564 124.44156 560.45 126.16031Q560.96564 125.37906 561.7 125.00406Q562.4344 124.62906 563.23126 124.62906Q564.6375 124.62906 565.6219 125.675934Q566.6219 126.707184 566.6219 128.34781Q566.6219 129.42593 566.15314 130.34781Q565.6844 131.26968 564.8719 131.76968Q564.0594 132.26968 563.02814 132.26968Q561.27814 132.26968 560.16876 130.97281Q559.0594 129.67593 559.0594 126.707184Q559.0594 123.37906 560.27814 121.87906Q561.35626 120.56656 563.16876 120.56656Q564.5125 120.56656 565.3719 121.332184Q566.2469 122.082184 566.41876 123.41031ZM560.66876 128.34781Q560.66876 129.08218 560.98126 129.75406Q561.29376 130.41031 561.84064 130.75406Q562.40314 131.09781 563.0125 131.09781Q563.90314 131.09781 564.54376 130.37906Q565.1844 129.66031 565.1844 128.42593Q565.1844 127.238434 564.54376 126.56656Q563.91876 125.87906 562.95 125.87906Q561.9969 125.87906 561.325 126.56656Q560.66876 127.238434 560.66876 128.34781ZM568.3875 123.363434Q568.3875 122.12906 568.9969 121.269684Q569.6219 120.41031 570.79376 120.41031Q571.8719 120.41031 572.575 121.19156Q573.27814 121.957184 573.27814 123.44156Q573.27814 124.894684 572.5594 125.69156Q571.85626 126.47281 570.8094 126.47281Q569.7625 126.47281 569.075 125.707184Q568.3875 124.925934 568.3875 123.363434ZM570.825 121.37906Q570.3094 121.37906 569.95 121.832184Q569.60626 122.28531 569.60626 123.50406Q569.60626 124.59781 569.95 125.050934Q570.3094 125.50406 570.825 125.50406Q571.35626 125.50406 571.7 125.050934Q572.0594 124.59781 572.0594 123.394684Q572.0594 122.28531 571.7 121.832184Q571.35626 121.37906 570.825 121.37906ZM570.84064 132.48843L577.10626 120.41031L578.2469 120.41031L571.9969 132.48843L570.84064 132.48843ZM575.79376 129.37906Q575.79376 128.14468 576.40314 127.28531Q577.02814 126.425934 578.2 126.425934Q579.27814 126.425934 579.98126 127.207184Q580.7 127.97281 580.7 129.45718Q580.7 130.91031 579.98126 131.70718Q579.2625 132.48843 578.21564 132.48843Q577.16876 132.48843 576.48126 131.70718Q575.79376 130.92593 575.79376 129.37906ZM578.2469 127.394684Q577.71564 127.394684 577.35626 127.84781Q577.0125 128.30093 577.0125 129.51968Q577.0125 130.61343 577.35626 131.06656Q577.71564 131.51968 578.23126 131.51968Q578.77814 131.51968 579.1219 131.06656Q579.46564 130.61343 579.46564 129.41031Q579.46564 128.30093 579.10626 127.84781Q578.7625 127.394684 578.2469 127.394684Z" fill-rule="nonzero"/><path stroke="#757575" stroke-width="1.0" stroke-linecap="butt" d="M581.45 115.56656L454.76666 115.56656L410.49493 115.56656" fill-rule="nonzero"/><path fill="#9e9e9e" d="M412.49493 115.56656C412.49493 114.46199 411.59952 113.56656 410.49493 113.56656C409.39038 113.56656 408.49493 114.46199 408.49493 115.56656C408.49493 116.67113 409.39038 117.56656 410.49493 117.56656C411.59952 117.56656 412.49493 116.67113 412.49493 115.56656" fill-rule="nonzero"/><path fill="#efefef" d="M495.85626 321.50012L497.3719 321.87512Q496.90314 323.75012 495.65314 324.7345Q494.41876 325.71887 492.6375 325.71887Q490.77814 325.71887 489.6219 324.96887Q488.46564 324.20325 487.85626 322.78137Q487.2469 321.34387 487.2469 319.70325Q487.2469 317.90637 487.9344 316.57825Q488.6219 315.25012 489.8719 314.56262Q491.1375 313.8595 492.65314 313.8595Q494.3719 313.8595 495.54376 314.7345Q496.71564 315.6095 497.1844 317.20325L495.6844 317.547Q495.29376 316.297 494.52814 315.7345Q493.77814 315.15637 492.6219 315.15637Q491.3094 315.15637 490.41876 315.797Q489.52814 316.422 489.16876 317.50012Q488.8094 318.56262 488.8094 319.68762Q488.8094 321.15637 489.23126 322.25012Q489.66876 323.32825 490.5594 323.87512Q491.46564 324.40637 492.5125 324.40637Q493.77814 324.40637 494.65314 323.672Q495.54376 322.93762 495.85626 321.50012ZM504.95 325.51575L504.95 324.297Q503.98126 325.70325 502.3094 325.70325Q501.575 325.70325 500.9344 325.422Q500.3094 325.14075 499.9969 324.71887Q499.6844 324.28137 499.5594 323.672Q499.48126 323.25012 499.48126 322.3595L499.48126 317.21887L500.8875 317.21887L500.8875 321.81262Q500.8875 322.922 500.96564 323.297Q501.10626 323.8595 501.52814 324.172Q501.96564 324.4845 502.59064 324.4845Q503.23126 324.4845 503.77814 324.172Q504.34064 323.84387 504.5594 323.28137Q504.79376 322.71887 504.79376 321.65637L504.79376 317.21887L506.2 317.21887L506.2 325.51575L504.95 325.51575ZM508.48126 325.51575L508.48126 314.06262L509.8875 314.06262L509.8875 325.51575L508.48126 325.51575ZM515.575 324.25012L515.77814 325.50012Q515.1844 325.62512 514.71564 325.62512Q513.95 325.62512 513.52814 325.39075Q513.10626 325.14075 512.9344 324.75012Q512.7625 324.34387 512.7625 323.07825L512.7625 318.31262L511.73126 318.31262L511.73126 317.21887L512.7625 317.21887L512.7625 315.15637L514.16876 314.31262L514.16876 317.21887L515.575 317.21887L515.575 318.31262L514.16876 318.31262L514.16876 323.15637Q514.16876 323.76575 514.23126 323.93762Q514.3094 324.1095 514.48126 324.21887Q514.65314 324.31262 514.96564 324.31262Q515.2 324.31262 515.575 324.25012ZM521.95 325.51575L521.95 324.297Q520.98126 325.70325 519.3094 325.70325Q518.575 325.70325 517.9344 325.422Q517.3094 325.14075 516.9969 324.71887Q516.6844 324.28137 516.5594 323.672Q516.48126 323.25012 516.48126 322.3595L516.48126 317.21887L517.8875 317.21887L517.8875 321.81262Q517.8875 322.922 517.96564 323.297Q518.10626 323.8595 518.52814 324.172Q518.96564 324.4845 519.59064 324.4845Q520.23126 324.4845 520.77814 324.172Q521.34064 323.84387 521.5594 323.28137Q521.79376 322.71887 521.79376 321.65637L521.79376 317.21887L523.2 317.21887L523.2 325.51575L521.95 325.51575ZM525.4969 325.51575L525.4969 317.21887L526.7625 317.21887L526.7625 318.46887Q527.2469 317.59387 527.65314 317.31262Q528.0594 317.03137 528.5594 317.03137Q529.2625 317.03137 529.9969 317.4845L529.5125 318.78137Q528.9969 318.4845 528.48126 318.4845Q528.02814 318.4845 527.65314 318.76575Q527.29376 319.03137 527.1375 319.53137Q526.90314 320.28137 526.90314 321.172L526.90314 325.51575L525.4969 325.51575ZM535.91876 324.4845Q535.1375 325.15637 534.41876 325.43762Q533.7 325.70325 532.8719 325.70325Q531.4969 325.70325 530.7625 325.03137Q530.02814 324.3595 530.02814 323.32825Q530.02814 322.71887 530.3094 322.21887Q530.59064 321.70325 531.02814 321.40637Q531.48126 321.09387 532.04376 320.93762Q532.46564 320.82825 533.29376 320.7345Q534.9969 320.53137 535.8094 320.25012Q535.8094 319.95325 535.8094 319.87512Q535.8094 319.01575 535.41876 318.672Q534.8719 318.18762 533.8094 318.18762Q532.825 318.18762 532.34064 318.547Q531.8719 318.89075 531.65314 319.76575L530.27814 319.57825Q530.46564 318.70325 530.8875 318.15637Q531.325 317.6095 532.1375 317.32825Q532.95 317.03137 534.0125 317.03137Q535.075 317.03137 535.73126 317.28137Q536.40314 317.53137 536.71564 317.90637Q537.02814 318.28137 537.15314 318.8595Q537.23126 319.21887 537.23126 320.15637L537.23126 322.03137Q537.23126 324.00012 537.3094 324.51575Q537.40314 325.03137 537.66876 325.51575L536.2 325.51575Q535.98126 325.07825 535.91876 324.4845ZM535.8094 321.34387Q535.04376 321.65637 533.5125 321.87512Q532.6375 322.00012 532.27814 322.15637Q531.91876 322.31262 531.71564 322.62512Q531.52814 322.922 531.52814 323.28137Q531.52814 323.84387 531.95 324.21887Q532.3875 324.59387 533.2 324.59387Q534.0125 324.59387 534.6375 324.25012Q535.27814 323.89075 535.575 323.26575Q535.8094 322.797 535.8094 321.8595L535.8094 321.34387ZM539.48126 325.51575L539.48126 314.06262L540.8875 314.06262L540.8875 325.51575L539.48126 325.51575ZM546.41876 325.51575L550.825 314.06262L552.46564 314.06262L557.15314 325.51575L555.41876 325.51575L554.09064 322.047L549.29376 322.047L548.04376 325.51575L546.41876 325.51575ZM549.73126 320.81262L553.6219 320.81262L552.41876 317.64075Q551.8719 316.18762 551.60626 315.26575Q551.3875 316.3595 550.9969 317.45325L549.73126 320.81262ZM563.91876 322.46887L565.3094 322.65637Q565.075 324.07825 564.1375 324.89075Q563.21564 325.70325 561.85626 325.70325Q560.15314 325.70325 559.10626 324.59387Q558.075 323.46887 558.075 321.39075Q558.075 320.047 558.5125 319.047Q558.96564 318.03137 559.8719 317.53137Q560.79376 317.03137 561.85626 317.03137Q563.21564 317.03137 564.075 317.71887Q564.9344 318.39075 565.16876 319.65637L563.8094 319.8595Q563.60626 319.03137 563.10626 318.6095Q562.6219 318.18762 561.91876 318.18762Q560.85626 318.18762 560.1844 318.95325Q559.52814 319.70325 559.52814 321.3595Q559.52814 323.03137 560.16876 323.797Q560.8094 324.547 561.84064 324.547Q562.66876 324.547 563.21564 324.047Q563.77814 323.53137 563.91876 322.46887ZM569.575 324.25012L569.77814 325.50012Q569.1844 325.62512 568.71564 325.62512Q567.95 325.62512 567.52814 325.39075Q567.10626 325.14075 566.9344 324.75012Q566.7625 324.34387 566.7625 323.07825L566.7625 318.31262L565.73126 318.31262L565.73126 317.21887L566.7625 317.21887L566.7625 315.15637L568.16876 314.31262L568.16876 317.21887L569.575 317.21887L569.575 318.31262L568.16876 318.31262L568.16876 323.15637Q568.16876 323.76575 568.23126 323.93762Q568.3094 324.1095 568.48126 324.21887Q568.65314 324.31262 568.96564 324.31262Q569.2 324.31262 569.575 324.25012ZM569.95 323.03137L571.34064 322.81262Q571.45 323.65637 571.98126 324.1095Q572.52814 324.547 573.48126 324.547Q574.45 324.547 574.91876 324.15637Q575.3875 323.75012 575.3875 323.21887Q575.3875 322.75012 574.98126 322.46887Q574.6844 322.28137 573.54376 322.00012Q571.9969 321.6095 571.3875 321.32825Q570.79376 321.03137 570.48126 320.53137Q570.1844 320.03137 570.1844 319.422Q570.1844 318.8595 570.4344 318.39075Q570.6844 317.922 571.1219 317.6095Q571.45 317.3595 572.0125 317.20325Q572.59064 317.03137 573.23126 317.03137Q574.21564 317.03137 574.95 317.31262Q575.6844 317.59387 576.02814 318.07825Q576.3875 318.547 576.52814 319.3595L575.15314 319.547Q575.0594 318.90637 574.60626 318.547Q574.15314 318.18762 573.34064 318.18762Q572.3719 318.18762 571.95 318.51575Q571.54376 318.82825 571.54376 319.25012Q571.54376 319.53137 571.71564 319.75012Q571.8875 319.96887 572.2469 320.12512Q572.46564 320.20325 573.4969 320.4845Q574.98126 320.87512 575.575 321.14075Q576.16876 321.39075 576.4969 321.87512Q576.84064 322.3595 576.84064 323.07825Q576.84064 323.78137 576.41876 324.40637Q576.0125 325.01575 575.23126 325.3595Q574.46564 325.70325 573.4969 325.70325Q571.8719 325.70325 571.02814 325.03137Q570.1844 324.3595 569.95 323.03137ZM578.90314 325.51575L578.90314 323.90637L580.5125 323.90637L580.5125 325.51575L578.90314 325.51575Z" fill-rule="nonzero"/><path fill="#9e9e9e" d="M544.5125 346.15637L544.5125 347.51575L536.9344 347.51575Q536.91876 347.00012 537.10626 346.53137Q537.3875 345.76575 538.02814 345.01575Q538.66876 344.26575 539.8719 343.28137Q541.73126 341.75012 542.3875 340.8595Q543.04376 339.95325 543.04376 339.15637Q543.04376 338.32825 542.45 337.75012Q541.85626 337.172 540.8875 337.172Q539.8719 337.172 539.2625 337.78137Q538.65314 338.39075 538.65314 339.46887L537.2 339.32825Q537.35626 337.70325 538.325 336.8595Q539.29376 336.01575 540.91876 336.01575Q542.575 336.01575 543.52814 336.93762Q544.4969 337.84387 544.4969 339.18762Q544.4969 339.87512 544.21564 340.547Q543.9344 341.20325 543.27814 341.93762Q542.6219 342.672 541.10626 343.95325Q539.84064 345.01575 539.48126 345.40637Q539.1219 345.78137 538.8875 346.15637L544.5125 346.15637ZM548.27814 341.297Q547.40314 340.9845 546.98126 340.39075Q546.5594 339.797 546.5594 338.96887Q546.5594 337.71887 547.45 336.87512Q548.35626 336.01575 549.85626 336.01575Q551.35626 336.01575 552.2625 336.89075Q553.1844 337.75012 553.1844 339.00012Q553.1844 339.797 552.7625 340.39075Q552.34064 340.9845 551.4969 341.297Q552.54376 341.64075 553.09064 342.40637Q553.65314 343.172 553.65314 344.2345Q553.65314 345.70325 552.60626 346.71887Q551.575 347.71887 549.8719 347.71887Q548.1844 347.71887 547.1375 346.71887Q546.10626 345.70325 546.10626 344.20325Q546.10626 343.07825 546.66876 342.32825Q547.23126 341.57825 548.27814 341.297ZM547.9969 338.922Q547.9969 339.7345 548.5125 340.25012Q549.04376 340.76575 549.8875 340.76575Q550.7 340.76575 551.21564 340.25012Q551.73126 339.7345 551.73126 339.00012Q551.73126 338.21887 551.2 337.70325Q550.66876 337.172 549.8719 337.172Q549.0594 337.172 548.52814 337.68762Q547.9969 338.20325 547.9969 338.922ZM547.54376 344.20325Q547.54376 344.81262 547.825 345.37512Q548.1219 345.93762 548.6844 346.25012Q549.2469 346.547 549.8875 346.547Q550.90314 346.547 551.5594 345.90637Q552.21564 345.25012 552.21564 344.25012Q552.21564 343.2345 551.52814 342.57825Q550.85626 341.90637 549.84064 341.90637Q548.85626 341.90637 548.2 342.56262Q547.54376 343.21887 547.54376 344.20325ZM555.90314 347.51575L555.90314 345.90637L557.5125 345.90637L557.5125 347.51575L555.90314 347.51575ZM566.41876 338.8595L565.0125 338.96887Q564.825 338.14075 564.48126 337.76575Q563.91876 337.172 563.075 337.172Q562.40314 337.172 561.90314 337.547Q561.23126 338.03137 560.84064 338.96887Q560.46564 339.89075 560.45 341.6095Q560.96564 340.82825 561.7 340.45325Q562.4344 340.07825 563.23126 340.07825Q564.6375 340.07825 565.6219 341.12512Q566.6219 342.15637 566.6219 343.797Q566.6219 344.87512 566.15314 345.797Q565.6844 346.71887 564.8719 347.21887Q564.0594 347.71887 563.02814 347.71887Q561.27814 347.71887 560.16876 346.422Q559.0594 345.12512 559.0594 342.15637Q559.0594 338.82825 560.27814 337.32825Q561.35626 336.01575 563.16876 336.01575Q564.5125 336.01575 565.3719 336.78137Q566.2469 337.53137 566.41876 338.8595ZM560.66876 343.797Q560.66876 344.53137 560.98126 345.20325Q561.29376 345.8595 561.84064 346.20325Q562.40314 346.547 563.0125 346.547Q563.90314 346.547 564.54376 345.82825Q565.1844 345.1095 565.1844 343.87512Q565.1844 342.68762 564.54376 342.01575Q563.91876 341.32825 562.95 341.32825Q561.9969 341.32825 561.325 342.01575Q560.66876 342.68762 560.66876 343.797ZM568.3875 338.81262Q568.3875 337.57825 568.9969 336.71887Q569.6219 335.8595 570.79376 335.8595Q571.8719 335.8595 572.575 336.64075Q573.27814 337.40637 573.27814 338.89075Q573.27814 340.34387 572.5594 341.14075Q571.85626 341.922 570.8094 341.922Q569.7625 341.922 569.075 341.15637Q568.3875 340.37512 568.3875 338.81262ZM570.825 336.82825Q570.3094 336.82825 569.95 337.28137Q569.60626 337.7345 569.60626 338.95325Q569.60626 340.047 569.95 340.50012Q570.3094 340.95325 570.825 340.95325Q571.35626 340.95325 571.7 340.50012Q572.0594 340.047 572.0594 338.84387Q572.0594 337.7345 571.7 337.28137Q571.35626 336.82825 570.825 336.82825ZM570.84064 347.93762L577.10626 335.8595L578.2469 335.8595L571.9969 347.93762L570.84064 347.93762ZM575.79376 344.82825Q575.79376 343.59387 576.40314 342.7345Q577.02814 341.87512 578.2 341.87512Q579.27814 341.87512 579.98126 342.65637Q580.7 343.422 580.7 344.90637Q580.7 346.3595 579.98126 347.15637Q579.2625 347.93762 578.21564 347.93762Q577.16876 347.93762 576.48126 347.15637Q575.79376 346.37512 575.79376 344.82825ZM578.2469 342.84387Q577.71564 342.84387 577.35626 343.297Q577.0125 343.75012 577.0125 344.96887Q577.0125 346.06262 577.35626 346.51575Q577.71564 346.96887 578.23126 346.96887Q578.77814 346.96887 579.1219 346.51575Q579.46564 346.06262 579.46564 344.8595Q579.46564 343.75012 579.10626 343.297Q578.7625 342.84387 578.2469 342.84387Z" fill-rule="nonzero"/><path stroke="#757575" stroke-width="1.0" stroke-linecap="butt" d="M581.45 331.01575L454.76666 331.01575L361.32007 331.01575" fill-rule="nonzero"/><path fill="#9e9e9e" d="M363.32007 331.01575C363.32007 329.9112 362.42462 329.01575 361.32007 329.01575C360.21548 329.01575 359.32007 329.9112 359.32007 331.01575C359.32007 332.12033 360.21548 333.01575 361.32007 333.01575C362.42462 333.01575 363.32007 332.12033 363.32007 331.01575" fill-rule="nonzero"/><path fill="#f3f3f3" d="M271.26562 32.534374L273.15625 33.003124Q272.5625 35.346874 271.01562 36.58125Q269.46875 37.8 267.21875 37.8Q264.90625 37.8 263.45312 36.8625Q262.01562 35.909374 261.25 34.128124Q260.5 32.33125 260.5 30.284374Q260.5 28.05 261.34375 26.39375Q262.20312 24.721874 263.78125 23.8625Q265.35938 22.9875 267.25 22.9875Q269.40625 22.9875 270.85938 24.08125Q272.32812 25.175 272.90625 27.159374L271.04688 27.596874Q270.54688 26.034374 269.59375 25.33125Q268.65625 24.6125 267.21875 24.6125Q265.5625 24.6125 264.45312 25.409374Q263.34375 26.190624 262.89062 27.534374Q262.45312 28.8625 262.45312 30.26875Q262.45312 32.096874 262.98438 33.471874Q263.51562 34.83125 264.64062 35.503124Q265.76562 36.175 267.0625 36.175Q268.65625 36.175 269.76562 35.253124Q270.875 34.33125 271.26562 32.534374ZM281.59375 36.26875Q280.60938 37.096874 279.70312 37.440624Q278.79688 37.784374 277.76562 37.784374Q276.0625 37.784374 275.14062 36.95625Q274.21875 36.1125 274.21875 34.815624Q274.21875 34.05 274.5625 33.425Q274.92188 32.8 275.48438 32.425Q276.04688 32.034374 276.75 31.83125Q277.26562 31.70625 278.3125 31.565624Q280.4375 31.315624 281.4375 30.971874Q281.45312 30.6125 281.45312 30.503124Q281.45312 29.440624 280.95312 28.9875Q280.28125 28.39375 278.95312 28.39375Q277.70312 28.39375 277.10938 28.83125Q276.53125 29.26875 276.25 30.378124L274.53125 30.14375Q274.76562 29.034374 275.29688 28.3625Q275.82812 27.675 276.84375 27.315624Q277.85938 26.940624 279.20312 26.940624Q280.53125 26.940624 281.35938 27.253124Q282.1875 27.565624 282.57812 28.05Q282.96875 28.51875 283.125 29.2375Q283.21875 29.690624 283.21875 30.8625L283.21875 33.20625Q283.21875 35.659374 283.32812 36.315624Q283.4375 36.95625 283.78125 37.55L281.9375 37.55Q281.67188 37.003124 281.59375 36.26875ZM281.4375 32.346874Q280.48438 32.7375 278.5625 33.003124Q277.48438 33.159374 277.03125 33.3625Q276.59375 33.55 276.34375 33.925Q276.09375 34.3 276.09375 34.76875Q276.09375 35.471874 276.625 35.940624Q277.15625 36.409374 278.1875 36.409374Q279.20312 36.409374 279.98438 35.971874Q280.78125 35.51875 281.15625 34.753124Q281.4375 34.14375 281.4375 32.9875L281.4375 32.346874ZM289.65625 35.971874L289.90625 37.534374Q289.17188 37.690624 288.57812 37.690624Q287.625 37.690624 287.09375 37.39375Q286.57812 37.08125 286.35938 36.596874Q286.14062 36.096874 286.14062 34.51875L286.14062 28.55L284.85938 28.55L284.85938 27.175L286.14062 27.175L286.14062 24.6125L287.89062 23.55L287.89062 27.175L289.65625 27.175L289.65625 28.55L287.89062 28.55L287.89062 34.6125Q287.89062 35.3625 287.98438 35.58125Q288.07812 35.784374 288.28125 35.925Q288.5 36.05 288.89062 36.05Q289.17188 36.05 289.65625 35.971874ZM298.92188 34.20625L300.73438 34.440624Q300.3125 36.01875 299.14062 36.909374Q297.98438 37.784374 296.17188 37.784374Q293.90625 37.784374 292.5625 36.39375Q291.23438 34.9875 291.23438 32.45625Q291.23438 29.83125 292.57812 28.39375Q293.92188 26.940624 296.07812 26.940624Q298.15625 26.940624 299.46875 28.3625Q300.79688 29.76875 300.79688 32.346874Q300.79688 32.503124 300.78125 32.815624L293.04688 32.815624Q293.14062 34.51875 294.01562 35.425Q294.89062 36.33125 296.1875 36.33125Q297.15625 36.33125 297.82812 35.83125Q298.51562 35.315624 298.92188 34.20625ZM293.14062 31.3625L298.9375 31.3625Q298.82812 30.065624 298.28125 29.409374Q297.4375 28.39375 296.09375 28.39375Q294.89062 28.39375 294.0625 29.20625Q293.23438 30.003124 293.14062 31.3625ZM302.5 38.409374L304.20312 38.659374Q304.3125 39.45625 304.79688 39.815624Q305.45312 40.3 306.59375 40.3Q307.8125 40.3 308.46875 39.815624Q309.14062 39.33125 309.375 38.45625Q309.51562 37.909374 309.5 36.190624Q308.34375 37.55 306.625 37.55Q304.48438 37.55 303.3125 36.003124Q302.14062 34.45625 302.14062 32.3Q302.14062 30.815624 302.67188 29.565624Q303.21875 28.315624 304.23438 27.628124Q305.26562 26.940624 306.64062 26.940624Q308.46875 26.940624 309.67188 28.425L309.67188 27.175L311.28125 27.175L311.28125 36.14375Q311.28125 38.565624 310.78125 39.565624Q310.29688 40.58125 309.21875 41.159374Q308.15625 41.753124 306.59375 41.753124Q304.75 41.753124 303.59375 40.925Q302.45312 40.096874 302.5 38.409374ZM303.95312 32.175Q303.95312 34.221874 304.76562 35.159374Q305.57812 36.096874 306.79688 36.096874Q308.0 36.096874 308.8125 35.159374Q309.64062 34.221874 309.64062 32.2375Q309.64062 30.33125 308.79688 29.3625Q307.95312 28.39375 306.76562 28.39375Q305.59375 28.39375 304.76562 29.346874Q303.95312 30.3 303.95312 32.175ZM313.17188 32.3625Q313.17188 29.4875 314.76562 28.096874Q316.10938 26.940624 318.03125 26.940624Q320.17188 26.940624 321.51562 28.346874Q322.875 29.753124 322.875 32.221874Q322.875 34.221874 322.28125 35.378124Q321.6875 36.51875 320.53125 37.159374Q319.39062 37.784374 318.03125 37.784374Q315.84375 37.784374 314.5 36.39375Q313.17188 34.9875 313.17188 32.3625ZM314.96875 32.3625Q314.96875 34.3625 315.82812 35.346874Q316.70312 36.33125 318.03125 36.33125Q319.34375 36.33125 320.20312 35.346874Q321.07812 34.346874 321.07812 32.3Q321.07812 30.378124 320.20312 29.39375Q319.32812 28.39375 318.03125 28.39375Q316.70312 28.39375 315.82812 29.39375Q314.96875 30.378124 314.96875 32.3625ZM324.79688 37.55L324.79688 27.175L326.375 27.175L326.375 28.753124Q326.98438 27.64375 327.5 27.3Q328.01562 26.940624 328.625 26.940624Q329.51562 26.940624 330.4375 27.503124L329.82812 29.14375Q329.1875 28.753124 328.54688 28.753124Q327.96875 28.753124 327.5 29.1125Q327.04688 29.45625 326.84375 30.065624Q326.5625 31.003124 326.5625 32.1125L326.5625 37.55L324.79688 37.55ZM331.73438 41.55L331.54688 39.89375Q332.125 40.05 332.54688 40.05Q333.14062 40.05 333.48438 39.846874Q333.84375 39.659374 334.0625 39.315624Q334.23438 39.05 334.60938 38.003124Q334.65625 37.846874 334.76562 37.565624L330.82812 27.175L332.71875 27.175L334.875 33.190624Q335.29688 34.33125 335.625 35.58125Q335.9375 34.378124 336.34375 33.221874L338.5625 27.175L340.32812 27.175L336.375 37.721874Q335.75 39.440624 335.39062 40.08125Q334.92188 40.95625 334.3125 41.346874Q333.71875 41.753124 332.875 41.753124Q332.35938 41.753124 331.73438 41.55Z" fill-rule="nonzero"/></svg>