<svg version="1.1" viewBox="0.0 0.0 600.0 371.0" fill="none" stroke="none" stroke-linecap="square" stroke-miterlimit="10" width="600" height="371" xmlns:xlink="http://www.w3.org/1999/xlink" xmlns="http://www.w3.org/2000/svg"><path fill="#ffffff" fill-opacity="0.0" d="M0 0L600.0 0L600.0 371.0L0 371.0L0 0Z" fill-rule="nonzero"/><path fill="#313d89" d="M300.0 54.916668C382.16156 54.916668 448.76666 121.521774 448.76666 203.68333L337.19168 203.68333C337.19168 183.14294 320.5404 166.49167 300.0 166.49167Z" fill-rule="nonzero"/><path fill="#f7d750" d="M151.23334 203.68333C151.23334 121.521774 217.83844 54.916668 300.0 54.916668L300.0 166.49167C279.4596 166.49167 262.80832 183.14294 262.80832 203.68333Z" fill-rule="nonzero"/><path fill="#cf4366" d="M448.76666 203.68333C448.76666 285.8449 382.16156 352.45 300.0 352.45C217.83844 352.45 151.23334 285.8449 151.23334 203.68333L262.80832 203.68333C262.80832 224.22372 279.4596 240.875 300.0 240.875C320.5404 240.875 337.19168 224.22372 337.19168 203.68333Z" fill-rule="nonzero"/><path fill="#ffffff" d="M355.61206 136.61816L355.61206 138.13379L347.09644 138.13379Q347.0808 137.55566 347.28394 137.04004Q347.61206 136.16504 348.3152 135.32129Q349.03394 134.47754 350.3933 133.36816Q352.48706 131.64941 353.22144 130.64941Q353.97144 129.63379 353.97144 128.74316Q353.97144 127.79004 353.29956 127.149414Q352.6277 126.50879 351.54956 126.50879Q350.3933 126.50879 349.7058 127.19629Q349.03394 127.88379 349.0183 129.08691L347.3933 128.91504Q347.5652 127.10254 348.6433 126.149414Q349.73706 125.19629 351.5808 125.19629Q353.42456 125.19629 354.5027 126.22754Q355.59644 127.25879 355.59644 128.77441Q355.59644 129.54004 355.2683 130.29004Q354.9558 131.04004 354.22144 131.86816Q353.48706 132.69629 351.78394 134.13379Q350.36206 135.33691 349.9558 135.75879Q349.54956 136.18066 349.29956 136.61816L355.61206 136.61816ZM357.29956 134.75879L358.9558 134.61816Q359.1433 135.83691 359.8152 136.44629Q360.48706 137.05566 361.4402 137.05566Q362.5808 137.05566 363.36206 136.19629Q364.15894 135.33691 364.15894 133.89941Q364.15894 132.55566 363.3933 131.77441Q362.6433 130.99316 361.40894 130.99316Q360.6433 130.99316 360.0183 131.33691Q359.40894 131.68066 359.0652 132.24316L357.5808 132.04004L358.8308 125.430664L365.23706 125.430664L365.23706 126.930664L360.09644 126.930664L359.3933 130.39941Q360.5652 129.58691 361.8308 129.58691Q363.5183 129.58691 364.67456 130.75879Q365.84644 131.93066 365.84644 133.75879Q365.84644 135.50879 364.8152 136.79004Q363.5808 138.35254 361.4402 138.35254Q359.67456 138.35254 358.5652 137.36816Q357.4558 136.38379 357.29956 134.75879ZM368.1902 138.13379L368.1902 136.33691L369.98706 136.33691L369.98706 138.13379L368.1902 138.13379ZM372.29956 131.77441Q372.29956 129.49316 372.7683 128.10254Q373.23706 126.711914 374.15894 125.961914Q375.09644 125.19629 376.5027 125.19629Q377.53394 125.19629 378.3152 125.618164Q379.09644 126.024414 379.59644 126.82129Q380.11206 127.60254 380.40894 128.74316Q380.7058 129.86816 380.7058 131.77441Q380.7058 134.04004 380.23706 135.44629Q379.7683 136.83691 378.8308 137.60254Q377.90894 138.35254 376.5027 138.35254Q374.6277 138.35254 373.5652 137.02441Q372.29956 135.41504 372.29956 131.77441ZM373.92456 131.77441Q373.92456 134.94629 374.65894 136.00879Q375.40894 137.05566 376.5027 137.05566Q377.5808 137.05566 378.3308 136.00879Q379.0808 134.94629 379.0808 131.77441Q379.0808 128.60254 378.3308 127.555664Q377.5808 126.50879 376.48706 126.50879Q375.3933 126.50879 374.73706 127.430664Q373.92456 128.60254 373.92456 131.77441ZM382.59644 128.33691Q382.59644 126.961914 383.28394 125.993164Q383.98706 125.024414 385.29956 125.024414Q386.5183 125.024414 387.3152 125.899414Q388.11206 126.75879 388.11206 128.44629Q388.11206 130.07129 387.29956 130.96191Q386.5027 131.83691 385.3152 131.83691Q384.15894 131.83691 383.3777 130.97754Q382.59644 130.10254 382.59644 128.33691ZM385.34644 126.118164Q384.7527 126.118164 384.36206 126.63379Q383.97144 127.13379 383.97144 128.49316Q383.97144 129.74316 384.36206 130.24316Q384.7683 130.74316 385.34644 130.74316Q385.9402 130.74316 386.3308 130.24316Q386.72144 129.72754 386.72144 128.38379Q386.72144 127.13379 386.3308 126.63379Q385.9402 126.118164 385.34644 126.118164ZM385.36206 138.60254L392.40894 125.024414L393.6902 125.024414L386.65894 138.60254L385.36206 138.60254ZM390.92456 135.10254Q390.92456 133.72754 391.61206 132.75879Q392.3152 131.79004 393.6433 131.79004Q394.86206 131.79004 395.6433 132.66504Q396.4402 133.52441 396.4402 135.21191Q396.4402 136.83691 395.6433 137.72754Q394.84644 138.60254 393.65894 138.60254Q392.48706 138.60254 391.7058 137.72754Q390.92456 136.85254 390.92456 135.10254ZM393.6902 132.88379Q393.09644 132.88379 392.7058 133.39941Q392.3152 133.89941 392.3152 135.27441Q392.3152 136.49316 392.7058 137.00879Q393.09644 137.52441 393.67456 137.52441Q394.28394 137.52441 394.67456 137.00879Q395.0652 136.49316 395.0652 135.14941Q395.0652 133.89941 394.67456 133.39941Q394.28394 132.88379 393.6902 132.88379Z" fill-rule="nonzero"/><path fill="#ffffff" d="M275.25 324.61423L276.90625 324.4736Q277.09375 325.69235 277.76562 326.30173Q278.4375 326.9111 279.39062 326.9111Q280.53125 326.9111 281.3125 326.05173Q282.10938 325.19235 282.10938 323.75485Q282.10938 322.4111 281.34375 321.62985Q280.59375 320.8486 279.35938 320.8486Q278.59375 320.8486 277.96875 321.19235Q277.35938 321.5361 277.01562 322.0986L275.53125 321.89548L276.78125 315.2861L283.1875 315.2861L283.1875 316.7861L278.04688 316.7861L277.34375 320.25485Q278.51562 319.44235 279.78125 319.44235Q281.46875 319.44235 282.625 320.61423Q283.79688 321.7861 283.79688 323.61423Q283.79688 325.36423 282.76562 326.64548Q281.53125 328.20798 279.39062 328.20798Q277.625 328.20798 276.51562 327.2236Q275.40625 326.23923 275.25 324.61423ZM285.25 321.62985Q285.25 319.3486 285.71875 317.95798Q286.1875 316.56735 287.10938 315.81735Q288.04688 315.05173 289.45312 315.05173Q290.48438 315.05173 291.26562 315.4736Q292.04688 315.87985 292.54688 316.67673Q293.0625 317.45798 293.35938 318.5986Q293.65625 319.7236 293.65625 321.62985Q293.65625 323.89548 293.1875 325.30173Q292.71875 326.69235 291.78125 327.45798Q290.85938 328.20798 289.45312 328.20798Q287.57812 328.20798 286.51562 326.87985Q285.25 325.27048 285.25 321.62985ZM286.875 321.62985Q286.875 324.80173 287.60938 325.86423Q288.35938 326.9111 289.45312 326.9111Q290.53125 326.9111 291.28125 325.86423Q292.03125 324.80173 292.03125 321.62985Q292.03125 318.45798 291.28125 317.4111Q290.53125 316.36423 289.4375 316.36423Q288.34375 316.36423 287.6875 317.2861Q286.875 318.45798 286.875 321.62985ZM296.14062 327.98923L296.14062 326.19235L297.9375 326.19235L297.9375 327.98923L296.14062 327.98923ZM300.25 321.62985Q300.25 319.3486 300.71875 317.95798Q301.1875 316.56735 302.10938 315.81735Q303.04688 315.05173 304.45312 315.05173Q305.48438 315.05173 306.26562 315.4736Q307.04688 315.87985 307.54688 316.67673Q308.0625 317.45798 308.35938 318.5986Q308.65625 319.7236 308.65625 321.62985Q308.65625 323.89548 308.1875 325.30173Q307.71875 326.69235 306.78125 327.45798Q305.85938 328.20798 304.45312 328.20798Q302.57812 328.20798 301.51562 326.87985Q300.25 325.27048 300.25 321.62985ZM301.875 321.62985Q301.875 324.80173 302.60938 325.86423Q303.35938 326.9111 304.45312 326.9111Q305.53125 326.9111 306.28125 325.86423Q307.03125 324.80173 307.03125 321.62985Q307.03125 318.45798 306.28125 317.4111Q305.53125 316.36423 304.4375 316.36423Q303.34375 316.36423 302.6875 317.2861Q301.875 318.45798 301.875 321.62985ZM310.54688 318.19235Q310.54688 316.81735 311.23438 315.8486Q311.9375 314.87985 313.25 314.87985Q314.46875 314.87985 315.26562 315.75485Q316.0625 316.61423 316.0625 318.30173Q316.0625 319.92673 315.25 320.81735Q314.45312 321.69235 313.26562 321.69235Q312.10938 321.69235 311.32812 320.83298Q310.54688 319.95798 310.54688 318.19235ZM313.29688 315.9736Q312.70312 315.9736 312.3125 316.48923Q311.92188 316.98923 311.92188 318.3486Q311.92188 319.5986 312.3125 320.0986Q312.71875 320.5986 313.29688 320.5986Q313.89062 320.5986 314.28125 320.0986Q314.67188 319.58298 314.67188 318.23923Q314.67188 316.98923 314.28125 316.48923Q313.89062 315.9736 313.29688 315.9736ZM313.3125 328.45798L320.35938 314.87985L321.64062 314.87985L314.60938 328.45798L313.3125 328.45798ZM318.875 324.95798Q318.875 323.58298 319.5625 322.61423Q320.26562 321.64548 321.59375 321.64548Q322.8125 321.64548 323.59375 322.52048Q324.39062 323.37985 324.39062 325.06735Q324.39062 326.69235 323.59375 327.58298Q322.79688 328.45798 321.60938 328.45798Q320.4375 328.45798 319.65625 327.58298Q318.875 326.70798 318.875 324.95798ZM321.64062 322.73923Q321.04688 322.73923 320.65625 323.25485Q320.26562 323.75485 320.26562 325.12985Q320.26562 326.3486 320.65625 326.86423Q321.04688 327.37985 321.625 327.37985Q322.23438 327.37985 322.625 326.86423Q323.01562 326.3486 323.01562 325.00485Q323.01562 323.75485 322.625 323.25485Q322.23438 322.73923 321.64062 322.73923Z" fill-rule="nonzero"/><path fill="#ffffff" d="M211.51295 136.61816L211.51295 138.13379L202.99733 138.13379Q202.9817 137.55566 203.18483 137.04004Q203.51295 136.16504 204.21608 135.32129Q204.93483 134.47754 206.2942 133.36816Q208.38795 131.64941 209.12233 130.64941Q209.87233 129.63379 209.87233 128.74316Q209.87233 127.79004 209.20045 127.149414Q208.52858 126.50879 207.45045 126.50879Q206.2942 126.50879 205.6067 127.19629Q204.93483 127.88379 204.9192 129.08691L203.2942 128.91504Q203.46608 127.10254 204.5442 126.149414Q205.63795 125.19629 207.4817 125.19629Q209.32545 125.19629 210.40358 126.22754Q211.49733 127.25879 211.49733 128.77441Q211.49733 129.54004 211.1692 130.29004Q210.8567 131.04004 210.12233 131.86816Q209.38795 132.69629 207.68483 134.13379Q206.26295 135.33691 205.8567 135.75879Q205.45045 136.18066 205.20045 136.61816L211.51295 136.61816ZM213.20045 134.75879L214.8567 134.61816Q215.0442 135.83691 215.71608 136.44629Q216.38795 137.05566 217.34108 137.05566Q218.4817 137.05566 219.26295 136.19629Q220.05983 135.33691 220.05983 133.89941Q220.05983 132.55566 219.2942 131.77441Q218.5442 130.99316 217.30983 130.99316Q216.5442 130.99316 215.9192 131.33691Q215.30983 131.68066 214.96608 132.24316L213.4817 132.04004L214.7317 125.430664L221.13795 125.430664L221.13795 126.930664L215.99733 126.930664L215.2942 130.39941Q216.46608 129.58691 217.7317 129.58691Q219.4192 129.58691 220.57545 130.75879Q221.74733 131.93066 221.74733 133.75879Q221.74733 135.50879 220.71608 136.79004Q219.4817 138.35254 217.34108 138.35254Q215.57545 138.35254 214.46608 137.36816Q213.3567 136.38379 213.20045 134.75879ZM224.09108 138.13379L224.09108 136.33691L225.88795 136.33691L225.88795 138.13379L224.09108 138.13379ZM228.20045 131.77441Q228.20045 129.49316 228.6692 128.10254Q229.13795 126.711914 230.05983 125.961914Q230.99733 125.19629 232.40358 125.19629Q233.43483 125.19629 234.21608 125.618164Q234.99733 126.024414 235.49733 126.82129Q236.01295 127.60254 236.30983 128.74316Q236.6067 129.86816 236.6067 131.77441Q236.6067 134.04004 236.13795 135.44629Q235.6692 136.83691 234.7317 137.60254Q233.80983 138.35254 232.40358 138.35254Q230.52858 138.35254 229.46608 137.02441Q228.20045 135.41504 228.20045 131.77441ZM229.82545 131.77441Q229.82545 134.94629 230.55983 136.00879Q231.30983 137.05566 232.40358 137.05566Q233.4817 137.05566 234.2317 136.00879Q234.9817 134.94629 234.9817 131.77441Q234.9817 128.60254 234.2317 127.555664Q233.4817 126.50879 232.38795 126.50879Q231.2942 126.50879 230.63795 127.430664Q229.82545 128.60254 229.82545 131.77441ZM238.49733 128.33691Q238.49733 126.961914 239.18483 125.993164Q239.88795 125.024414 241.20045 125.024414Q242.4192 125.024414 243.21608 125.899414Q244.01295 126.75879 244.01295 128.44629Q244.01295 130.07129 243.20045 130.96191Q242.40358 131.83691 241.21608 131.83691Q240.05983 131.83691 239.27858 130.97754Q238.49733 130.10254 238.49733 128.33691ZM241.24733 126.118164Q240.65358 126.118164 240.26295 126.63379Q239.87233 127.13379 239.87233 128.49316Q239.87233 129.74316 240.26295 130.24316Q240.6692 130.74316 241.24733 130.74316Q241.84108 130.74316 242.2317 130.24316Q242.62233 129.72754 242.62233 128.38379Q242.62233 127.13379 242.2317 126.63379Q241.84108 126.118164 241.24733 126.118164ZM241.26295 138.60254L248.30983 125.024414L249.59108 125.024414L242.55983 138.60254L241.26295 138.60254ZM246.82545 135.10254Q246.82545 133.72754 247.51295 132.75879Q248.21608 131.79004 249.5442 131.79004Q250.76295 131.79004 251.5442 132.66504Q252.34108 133.52441 252.34108 135.21191Q252.34108 136.83691 251.5442 137.72754Q250.74733 138.60254 249.55983 138.60254Q248.38795 138.60254 247.6067 137.72754Q246.82545 136.85254 246.82545 135.10254ZM249.59108 132.88379Q248.99733 132.88379 248.6067 133.39941Q248.21608 133.89941 248.21608 135.27441Q248.21608 136.49316 248.6067 137.00879Q248.99733 137.52441 249.57545 137.52441Q250.18483 137.52441 250.57545 137.00879Q250.96608 136.49316 250.96608 135.14941Q250.96608 133.89941 250.57545 133.39941Q250.18483 132.88379 249.59108 132.88379Z" fill-rule="nonzero"/><path stroke="#ffffff" stroke-width="1.0" stroke-linejoin="round" stroke-linecap="round" d="M337.19168 203.68333C337.19168 183.14294 320.5404 166.49167 300.0 166.49167L300.0 54.916668C382.16156 54.916668 448.76666 121.521774 448.76666 203.68333" fill-rule="nonzero"/><path stroke="#ffffff" stroke-width="1.0" stroke-linejoin="round" stroke-linecap="round" d="M262.80832 203.68333C262.80832 224.22372 279.4596 240.875 300.0 240.875C320.5404 240.875 337.19168 224.22372 337.19168 203.68333L448.76666 203.68333C448.76666 285.8449 382.16156 352.45 300.0 352.45C217.83844 352.45 151.23334 285.8449 151.23334 203.68333" fill-rule="nonzero"/><path stroke="#ffffff" stroke-width="1.0" stroke-linejoin="round" stroke-linecap="round" d="M300.0 166.49167C279.4596 166.49167 262.80832 183.14294 262.80832 203.68333L151.23334 203.68333C151.23334 121.521774 217.83844 54.916668 300.0 54.916668" fill-rule="nonzero"/><path fill="#efefef" d="M19.784374 98.24911L19.784374 86.79598L24.1125 86.79598Q25.253124 86.79598 25.846874 86.90536Q26.690624 87.04598 27.253124 87.43661Q27.83125 87.82723 28.175 88.54598Q28.534374 89.24911 28.534374 90.10848Q28.534374 91.56161 27.596874 92.57723Q26.675 93.59286 24.2375 93.59286L21.3 93.59286L21.3 98.24911L19.784374 98.24911ZM21.3 92.23348L24.26875 92.23348Q25.7375 92.23348 26.346874 91.68661Q26.971874 91.13973 26.971874 90.15536Q26.971874 89.43661 26.596874 88.92098Q26.2375 88.40536 25.64375 88.24911Q25.26875 88.13973 24.2375 88.13973L21.3 88.13973L21.3 92.23348ZM36.01875 97.21786Q35.2375 97.88973 34.51875 98.17098Q33.8 98.43661 32.971874 98.43661Q31.596874 98.43661 30.8625 97.76473Q30.128124 97.09286 30.128124 96.06161Q30.128124 95.45223 30.409374 94.95223Q30.690624 94.43661 31.128124 94.13973Q31.58125 93.82723 32.14375 93.67098Q32.565624 93.56161 33.39375 93.46786Q35.096874 93.26473 35.909374 92.98348Q35.909374 92.68661 35.909374 92.60848Q35.909374 91.74911 35.51875 91.40536Q34.971874 90.92098 33.909374 90.92098Q32.925 90.92098 32.440624 91.28036Q31.971874 91.62411 31.753124 92.49911L30.378124 92.31161Q30.565624 91.43661 30.9875 90.88973Q31.425 90.34286 32.2375 90.06161Q33.05 89.76473 34.1125 89.76473Q35.175 89.76473 35.83125 90.01473Q36.503124 90.26473 36.815624 90.63973Q37.128124 91.01473 37.253124 91.59286Q37.33125 91.95223 37.33125 92.88973L37.33125 94.76473Q37.33125 96.73348 37.409374 97.24911Q37.503124 97.76473 37.76875 98.24911L36.3 98.24911Q36.08125 97.81161 36.01875 97.21786ZM35.909374 94.07723Q35.14375 94.38973 33.6125 94.60848Q32.7375 94.73348 32.378124 94.88973Q32.01875 95.04598 31.815624 95.35848Q31.628124 95.65536 31.628124 96.01473Q31.628124 96.57723 32.05 96.95223Q32.4875 97.32723 33.3 97.32723Q34.1125 97.32723 34.7375 96.98348Q35.378124 96.62411 35.675 95.99911Q35.909374 95.53036 35.909374 94.59286L35.909374 94.07723ZM39.346874 98.93661L40.721874 99.13973Q40.8 99.78036 41.190624 100.06161Q41.721874 100.45223 42.628124 100.45223Q43.596874 100.45223 44.128124 100.06161Q44.659374 99.67098 44.846874 98.96786Q44.95625 98.54598 44.95625 97.15536Q44.034374 98.24911 42.659374 98.24911Q40.940624 98.24911 40.003124 97.01473Q39.065624 95.78036 39.065624 94.04598Q39.065624 92.85848 39.4875 91.85848Q39.925 90.85848 40.7375 90.31161Q41.565624 89.76473 42.659374 89.76473Q44.128124 89.76473 45.08125 90.95223L45.08125 89.95223L46.378124 89.95223L46.378124 97.12411Q46.378124 99.06161 45.9875 99.87411Q45.596874 100.68661 44.7375 101.15536Q43.878124 101.62411 42.628124 101.62411Q41.14375 101.62411 40.221874 100.95223Q39.315624 100.28036 39.346874 98.93661ZM40.51875 93.95223Q40.51875 95.57723 41.159374 96.32723Q41.815624 97.07723 42.784374 97.07723Q43.753124 97.07723 44.409374 96.34286Q45.065624 95.59286 45.065624 93.99911Q45.065624 92.46786 44.39375 91.70223Q43.721874 90.92098 42.76875 90.92098Q41.83125 90.92098 41.175 91.68661Q40.51875 92.45223 40.51875 93.95223ZM54.284374 95.57723L55.7375 95.74911Q55.39375 97.03036 54.45625 97.73348Q53.534374 98.43661 52.096874 98.43661Q50.26875 98.43661 49.20625 97.31161Q48.14375 96.18661 48.14375 94.17098Q48.14375 92.07723 49.221874 90.92098Q50.3 89.76473 52.01875 89.76473Q53.675 89.76473 54.721874 90.90536Q55.784374 92.03036 55.784374 94.07723Q55.784374 94.20223 55.784374 94.45223L49.596874 94.45223Q49.675 95.82723 50.3625 96.56161Q51.065624 97.28036 52.096874 97.28036Q52.878124 97.28036 53.425 96.87411Q53.971874 96.46786 54.284374 95.57723ZM49.675 93.29598L54.3 93.29598Q54.20625 92.24911 53.76875 91.73348Q53.096874 90.92098 52.034374 90.92098Q51.065624 90.92098 50.39375 91.57723Q49.7375 92.21786 49.675 93.29598Z" fill-rule="nonzero"/><path fill="#9e9e9e" d="M26.6125 118.88973L26.6125 120.24911L19.034374 120.24911Q19.01875 119.73348 19.20625 119.26473Q19.4875 118.49911 20.128124 117.74911Q20.76875 116.99911 21.971874 116.01473Q23.83125 114.48348 24.4875 113.59286Q25.14375 112.68661 25.14375 111.88973Q25.14375 111.06161 24.55 110.48348Q23.95625 109.90536 22.9875 109.90536Q21.971874 109.90536 21.3625 110.51473Q20.753124 111.12411 20.753124 112.20223L19.3 112.06161Q19.45625 110.43661 20.425 109.59286Q21.39375 108.74911 23.01875 108.74911Q24.675 108.74911 25.628124 109.67098Q26.596874 110.57723 26.596874 111.92098Q26.596874 112.60848 26.315624 113.28036Q26.034374 113.93661 25.378124 114.67098Q24.721874 115.40536 23.20625 116.68661Q21.940624 117.74911 21.58125 118.13973Q21.221874 118.51473 20.9875 118.88973L26.6125 118.88973ZM28.221874 117.24911L29.690624 117.12411Q29.8625 118.20223 30.45625 118.74911Q31.05 119.28036 31.89375 119.28036Q32.909374 119.28036 33.6125 118.51473Q34.315624 117.74911 34.315624 116.48348Q34.315624 115.28036 33.64375 114.59286Q32.971874 113.88973 31.878124 113.88973Q31.190624 113.88973 30.64375 114.20223Q30.096874 114.51473 29.784374 114.99911L28.471874 114.82723L29.58125 108.95223L35.26875 108.95223L35.26875 110.29598L30.70625 110.29598L30.08125 113.37411Q31.1125 112.65536 32.253124 112.65536Q33.753124 112.65536 34.784374 113.70223Q35.815624 114.73348 35.815624 116.35848Q35.815624 117.92098 34.909374 119.04598Q33.8 120.45223 31.89375 120.45223Q30.33125 120.45223 29.346874 119.57723Q28.3625 118.68661 28.221874 117.24911ZM38.003124 120.24911L38.003124 118.63973L39.6125 118.63973L39.6125 120.24911L38.003124 120.24911ZM41.221874 114.59286Q41.221874 112.56161 41.628124 111.32723Q42.05 110.09286 42.878124 109.42098Q43.70625 108.74911 44.95625 108.74911Q45.878124 108.74911 46.565624 109.12411Q47.26875 109.48348 47.721874 110.18661Q48.175 110.88973 48.425 111.88973Q48.690624 112.88973 48.690624 114.59286Q48.690624 116.60848 48.26875 117.85848Q47.8625 119.09286 47.034374 119.78036Q46.20625 120.45223 44.95625 120.45223Q43.3 120.45223 42.346874 119.24911Q41.221874 117.82723 41.221874 114.59286ZM42.659374 114.59286Q42.659374 117.42098 43.315624 118.35848Q43.9875 119.28036 44.95625 119.28036Q45.925 119.28036 46.58125 118.34286Q47.2375 117.40536 47.2375 114.59286Q47.2375 111.76473 46.58125 110.84286Q45.925 109.90536 44.940624 109.90536Q43.971874 109.90536 43.39375 110.73348Q42.659374 111.78036 42.659374 114.59286ZM50.4875 111.54598Q50.4875 110.31161 51.096874 109.45223Q51.721874 108.59286 52.89375 108.59286Q53.971874 108.59286 54.675 109.37411Q55.378124 110.13973 55.378124 111.62411Q55.378124 113.07723 54.659374 113.87411Q53.95625 114.65536 52.909374 114.65536Q51.8625 114.65536 51.175 113.88973Q50.4875 113.10848 50.4875 111.54598ZM52.925 109.56161Q52.409374 109.56161 52.05 110.01473Q51.70625 110.46786 51.70625 111.68661Q51.70625 112.78036 52.05 113.23348Q52.409374 113.68661 52.925 113.68661Q53.45625 113.68661 53.8 113.23348Q54.159374 112.78036 54.159374 111.57723Q54.159374 110.46786 53.8 110.01473Q53.45625 109.56161 52.925 109.56161ZM52.940624 120.67098L59.20625 108.59286L60.346874 108.59286L54.096874 120.67098L52.940624 120.67098ZM57.89375 117.56161Q57.89375 116.32723 58.503124 115.46786Q59.128124 114.60848 60.3 114.60848Q61.378124 114.60848 62.08125 115.38973Q62.8 116.15536 62.8 117.63973Q62.8 119.09286 62.08125 119.88973Q61.3625 120.67098 60.315624 120.67098Q59.26875 120.67098 58.58125 119.88973Q57.89375 119.10848 57.89375 117.56161ZM60.346874 115.57723Q59.815624 115.57723 59.45625 116.03036Q59.1125 116.48348 59.1125 117.70223Q59.1125 118.79598 59.45625 119.24911Q59.815624 119.70223 60.33125 119.70223Q60.878124 119.70223 61.221874 119.24911Q61.565624 118.79598 61.565624 117.59286Q61.565624 116.48348 61.20625 116.03036Q60.8625 115.57723 60.346874 115.57723Z" fill-rule="nonzero"/><path stroke="#757575" stroke-width="1.0" stroke-linecap="butt" d="M18.55 103.74911L145.23334 103.74911L200.06578 103.74911" fill-rule="nonzero"/><path fill="#9e9e9e" d="M202.06578 103.74911C202.06578 102.64454 201.17035 101.74911 200.06578 101.74911C198.96121 101.74911 198.06578 102.64454 198.06578 103.74911C198.06578 104.85368 198.96121 105.74911 200.06578 105.74911C201.17035 105.74911 202.06578 104.85368 202.06578 103.74911" fill-rule="nonzero"/><path fill="#efefef" d="M490.23126 92.67098Q490.23126 89.81161 491.7625 88.20223Q493.29376 86.59286 495.71564 86.59286Q497.29376 86.59286 498.5594 87.35848Q499.84064 88.10848 500.5125 89.46786Q501.1844 90.81161 501.1844 92.53036Q501.1844 94.28036 500.48126 95.65536Q499.77814 97.03036 498.48126 97.74911Q497.2 98.45223 495.7 98.45223Q494.09064 98.45223 492.8094 97.67098Q491.54376 96.87411 490.8875 95.53036Q490.23126 94.17098 490.23126 92.67098ZM491.79376 92.68661Q491.79376 94.76473 492.90314 95.95223Q494.0125 97.13973 495.7 97.13973Q497.40314 97.13973 498.5125 95.93661Q499.6219 94.73348 499.6219 92.53036Q499.6219 91.12411 499.1375 90.09286Q498.66876 89.04598 497.7625 88.46786Q496.85626 87.88973 495.71564 87.88973Q494.10626 87.88973 492.95 88.99911Q491.79376 90.10848 491.79376 92.68661ZM502.4969 98.24911L502.4969 89.95223L503.7625 89.95223L503.7625 91.20223Q504.2469 90.32723 504.65314 90.04598Q505.0594 89.76473 505.5594 89.76473Q506.2625 89.76473 506.9969 90.21786L506.5125 91.51473Q505.9969 91.21786 505.48126 91.21786Q505.02814 91.21786 504.65314 91.49911Q504.29376 91.76473 504.1375 92.26473Q503.90314 93.01473 503.90314 93.90536L503.90314 98.24911L502.4969 98.24911ZM510.575 96.98348L510.77814 98.23348Q510.1844 98.35848 509.71564 98.35848Q508.95 98.35848 508.52814 98.12411Q508.10626 97.87411 507.9344 97.48348Q507.7625 97.07723 507.7625 95.81161L507.7625 91.04598L506.73126 91.04598L506.73126 89.95223L507.7625 89.95223L507.7625 87.88973L509.16876 87.04598L509.16876 89.95223L510.575 89.95223L510.575 91.04598L509.16876 91.04598L509.16876 95.88973Q509.16876 96.49911 509.23126 96.67098Q509.3094 96.84286 509.48126 96.95223Q509.65314 97.04598 509.96564 97.04598Q510.2 97.04598 510.575 96.98348ZM511.5125 98.24911L511.5125 86.79598L512.91876 86.79598L512.91876 90.90536Q513.90314 89.76473 515.40314 89.76473Q516.325 89.76473 516.9969 90.12411Q517.6844 90.48348 517.96564 91.12411Q518.2625 91.76473 518.2625 92.98348L518.2625 98.24911L516.85626 98.24911L516.85626 92.98348Q516.85626 91.93661 516.40314 91.45223Q515.95 90.96786 515.10626 90.96786Q514.48126 90.96786 513.9344 91.29598Q513.3875 91.62411 513.15314 92.18661Q512.91876 92.73348 512.91876 93.70223L512.91876 98.24911L511.5125 98.24911ZM519.98126 94.09286Q519.98126 91.79598 521.2625 90.68661Q522.34064 89.76473 523.8719 89.76473Q525.59064 89.76473 526.66876 90.88973Q527.7625 91.99911 527.7625 93.98348Q527.7625 95.57723 527.27814 96.49911Q526.79376 97.42098 525.8719 97.93661Q524.96564 98.43661 523.8719 98.43661Q522.1375 98.43661 521.0594 97.32723Q519.98126 96.20223 519.98126 94.09286ZM521.4344 94.09286Q521.4344 95.68661 522.1219 96.48348Q522.825 97.28036 523.8719 97.28036Q524.91876 97.28036 525.60626 96.48348Q526.3094 95.68661 526.3094 94.04598Q526.3094 92.51473 525.60626 91.71786Q524.91876 90.92098 523.8719 90.92098Q522.825 90.92098 522.1219 91.71786Q521.4344 92.49911 521.4344 94.09286ZM529.2469 98.93661L530.6219 99.13973Q530.7 99.78036 531.09064 100.06161Q531.6219 100.45223 532.52814 100.45223Q533.4969 100.45223 534.02814 100.06161Q534.5594 99.67098 534.7469 98.96786Q534.85626 98.54598 534.85626 97.15536Q533.9344 98.24911 532.5594 98.24911Q530.84064 98.24911 529.90314 97.01473Q528.96564 95.78036 528.96564 94.04598Q528.96564 92.85848 529.3875 91.85848Q529.825 90.85848 530.6375 90.31161Q531.46564 89.76473 532.5594 89.76473Q534.02814 89.76473 534.98126 90.95223L534.98126 89.95223L536.27814 89.95223L536.27814 97.12411Q536.27814 99.06161 535.8875 99.87411Q535.4969 100.68661 534.6375 101.15536Q533.77814 101.62411 532.52814 101.62411Q531.04376 101.62411 530.1219 100.95223Q529.21564 100.28036 529.2469 98.93661ZM530.41876 93.95223Q530.41876 95.57723 531.0594 96.32723Q531.71564 97.07723 532.6844 97.07723Q533.65314 97.07723 534.3094 96.34286Q534.96564 95.59286 534.96564 93.99911Q534.96564 92.46786 534.29376 91.70223Q533.6219 90.92098 532.66876 90.92098Q531.73126 90.92098 531.075 91.68661Q530.41876 92.45223 530.41876 93.95223ZM538.4969 98.24911L538.4969 89.95223L539.7625 89.95223L539.7625 91.20223Q540.2469 90.32723 540.65314 90.04598Q541.0594 89.76473 541.5594 89.76473Q542.2625 89.76473 542.9969 90.21786L542.5125 91.51473Q541.9969 91.21786 541.48126 91.21786Q541.02814 91.21786 540.65314 91.49911Q540.29376 91.76473 540.1375 92.26473Q539.90314 93.01473 539.90314 93.90536L539.90314 98.24911L538.4969 98.24911ZM548.91876 97.21786Q548.1375 97.88973 547.41876 98.17098Q546.7 98.43661 545.8719 98.43661Q544.4969 98.43661 543.7625 97.76473Q543.02814 97.09286 543.02814 96.06161Q543.02814 95.45223 543.3094 94.95223Q543.59064 94.43661 544.02814 94.13973Q544.48126 93.82723 545.04376 93.67098Q545.46564 93.56161 546.29376 93.46786Q547.9969 93.26473 548.8094 92.98348Q548.8094 92.68661 548.8094 92.60848Q548.8094 91.74911 548.41876 91.40536Q547.8719 90.92098 546.8094 90.92098Q545.825 90.92098 545.34064 91.28036Q544.8719 91.62411 544.65314 92.49911L543.27814 92.31161Q543.46564 91.43661 543.8875 90.88973Q544.325 90.34286 545.1375 90.06161Q545.95 89.76473 547.0125 89.76473Q548.075 89.76473 548.73126 90.01473Q549.40314 90.26473 549.71564 90.63973Q550.02814 91.01473 550.15314 91.59286Q550.23126 91.95223 550.23126 92.88973L550.23126 94.76473Q550.23126 96.73348 550.3094 97.24911Q550.40314 97.76473 550.66876 98.24911L549.2 98.24911Q548.98126 97.81161 548.91876 97.21786ZM548.8094 94.07723Q548.04376 94.38973 546.5125 94.60848Q545.6375 94.73348 545.27814 94.88973Q544.91876 95.04598 544.71564 95.35848Q544.52814 95.65536 544.52814 96.01473Q544.52814 96.57723 544.95 96.95223Q545.3875 97.32723 546.2 97.32723Q547.0125 97.32723 547.6375 96.98348Q548.27814 96.62411 548.575 95.99911Q548.8094 95.53036 548.8094 94.59286L548.8094 94.07723ZM552.5125 101.43661L552.5125 89.95223L553.79376 89.95223L553.79376 91.03036Q554.2469 90.38973 554.8094 90.07723Q555.3875 89.76473 556.2 89.76473Q557.2625 89.76473 558.075 90.31161Q558.8875 90.85848 559.29376 91.85848Q559.71564 92.84286 559.71564 94.03036Q559.71564 95.31161 559.2469 96.32723Q558.79376 97.34286 557.91876 97.88973Q557.0594 98.43661 556.09064 98.43661Q555.3875 98.43661 554.825 98.13973Q554.27814 97.84286 553.91876 97.38973L553.91876 101.43661L552.5125 101.43661ZM553.77814 94.13973Q553.77814 95.74911 554.41876 96.51473Q555.075 97.28036 555.9969 97.28036Q556.9344 97.28036 557.60626 96.48348Q558.27814 95.68661 558.27814 94.03036Q558.27814 92.43661 557.6219 91.65536Q556.96564 90.85848 556.0594 90.85848Q555.16876 90.85848 554.46564 91.70223Q553.77814 92.54598 553.77814 94.13973ZM561.5125 98.24911L561.5125 86.79598L562.91876 86.79598L562.91876 90.90536Q563.90314 89.76473 565.40314 89.76473Q566.325 89.76473 566.9969 90.12411Q567.6844 90.48348 567.96564 91.12411Q568.2625 91.76473 568.2625 92.98348L568.2625 98.24911L566.85626 98.24911L566.85626 92.98348Q566.85626 91.93661 566.40314 91.45223Q565.95 90.96786 565.10626 90.96786Q564.48126 90.96786 563.9344 91.29598Q563.3875 91.62411 563.15314 92.18661Q562.91876 92.73348 562.91876 93.70223L562.91876 98.24911L561.5125 98.24911ZM570.5125 88.40536L570.5125 86.79598L571.91876 86.79598L571.91876 88.40536L570.5125 88.40536ZM570.5125 98.24911L570.5125 89.95223L571.91876 89.95223L571.91876 98.24911L570.5125 98.24911ZM579.91876 95.20223L581.3094 95.38973Q581.075 96.81161 580.1375 97.62411Q579.21564 98.43661 577.85626 98.43661Q576.15314 98.43661 575.10626 97.32723Q574.075 96.20223 574.075 94.12411Q574.075 92.78036 574.5125 91.78036Q574.96564 90.76473 575.8719 90.26473Q576.79376 89.76473 577.85626 89.76473Q579.21564 89.76473 580.075 90.45223Q580.9344 91.12411 581.16876 92.38973L579.8094 92.59286Q579.60626 91.76473 579.10626 91.34286Q578.6219 90.92098 577.91876 90.92098Q576.85626 90.92098 576.1844 91.68661Q575.52814 92.43661 575.52814 94.09286Q575.52814 95.76473 576.16876 96.53036Q576.8094 97.28036 577.84064 97.28036Q578.66876 97.28036 579.21564 96.78036Q579.77814 96.26473 579.91876 95.20223Z" fill-rule="nonzero"/><path fill="#9e9e9e" d="M544.5125 118.88973L544.5125 120.24911L536.9344 120.24911Q536.91876 119.73348 537.10626 119.26473Q537.3875 118.49911 538.02814 117.74911Q538.66876 116.99911 539.8719 116.01473Q541.73126 114.48348 542.3875 113.59286Q543.04376 112.68661 543.04376 111.88973Q543.04376 111.06161 542.45 110.48348Q541.85626 109.90536 540.8875 109.90536Q539.8719 109.90536 539.2625 110.51473Q538.65314 111.12411 538.65314 112.20223L537.2 112.06161Q537.35626 110.43661 538.325 109.59286Q539.29376 108.74911 540.91876 108.74911Q542.575 108.74911 543.52814 109.67098Q544.4969 110.57723 544.4969 111.92098Q544.4969 112.60848 544.21564 113.28036Q543.9344 113.93661 543.27814 114.67098Q542.6219 115.40536 541.10626 116.68661Q539.84064 117.74911 539.48126 118.13973Q539.1219 118.51473 538.8875 118.88973L544.5125 118.88973ZM546.1219 117.24911L547.59064 117.12411Q547.7625 118.20223 548.35626 118.74911Q548.95 119.28036 549.79376 119.28036Q550.8094 119.28036 551.5125 118.51473Q552.21564 117.74911 552.21564 116.48348Q552.21564 115.28036 551.54376 114.59286Q550.8719 113.88973 549.77814 113.88973Q549.09064 113.88973 548.54376 114.20223Q547.9969 114.51473 547.6844 114.99911L546.3719 114.82723L547.48126 108.95223L553.16876 108.95223L553.16876 110.29598L548.60626 110.29598L547.98126 113.37411Q549.0125 112.65536 550.15314 112.65536Q551.65314 112.65536 552.6844 113.70223Q553.71564 114.73348 553.71564 116.35848Q553.71564 117.92098 552.8094 119.04598Q551.7 120.45223 549.79376 120.45223Q548.23126 120.45223 547.2469 119.57723Q546.2625 118.68661 546.1219 117.24911ZM555.90314 120.24911L555.90314 118.63973L557.5125 118.63973L557.5125 120.24911L555.90314 120.24911ZM559.1219 114.59286Q559.1219 112.56161 559.52814 111.32723Q559.95 110.09286 560.77814 109.42098Q561.60626 108.74911 562.85626 108.74911Q563.77814 108.74911 564.46564 109.12411Q565.16876 109.48348 565.6219 110.18661Q566.075 110.88973 566.325 111.88973Q566.59064 112.88973 566.59064 114.59286Q566.59064 116.60848 566.16876 117.85848Q565.7625 119.09286 564.9344 119.78036Q564.10626 120.45223 562.85626 120.45223Q561.2 120.45223 560.2469 119.24911Q559.1219 117.82723 559.1219 114.59286ZM560.5594 114.59286Q560.5594 117.42098 561.21564 118.35848Q561.8875 119.28036 562.85626 119.28036Q563.825 119.28036 564.48126 118.34286Q565.1375 117.40536 565.1375 114.59286Q565.1375 111.76473 564.48126 110.84286Q563.825 109.90536 562.84064 109.90536Q561.8719 109.90536 561.29376 110.73348Q560.5594 111.78036 560.5594 114.59286ZM568.3875 111.54598Q568.3875 110.31161 568.9969 109.45223Q569.6219 108.59286 570.79376 108.59286Q571.8719 108.59286 572.575 109.37411Q573.27814 110.13973 573.27814 111.62411Q573.27814 113.07723 572.5594 113.87411Q571.85626 114.65536 570.8094 114.65536Q569.7625 114.65536 569.075 113.88973Q568.3875 113.10848 568.3875 111.54598ZM570.825 109.56161Q570.3094 109.56161 569.95 110.01473Q569.60626 110.46786 569.60626 111.68661Q569.60626 112.78036 569.95 113.23348Q570.3094 113.68661 570.825 113.68661Q571.35626 113.68661 571.7 113.23348Q572.0594 112.78036 572.0594 111.57723Q572.0594 110.46786 571.7 110.01473Q571.35626 109.56161 570.825 109.56161ZM570.84064 120.67098L577.10626 108.59286L578.2469 108.59286L571.9969 120.67098L570.84064 120.67098ZM575.79376 117.56161Q575.79376 116.32723 576.40314 115.46786Q577.02814 114.60848 578.2 114.60848Q579.27814 114.60848 579.98126 115.38973Q580.7 116.15536 580.7 117.63973Q580.7 119.09286 579.98126 119.88973Q579.2625 120.67098 578.21564 120.67098Q577.16876 120.67098 576.48126 119.88973Q575.79376 119.10848 575.79376 117.56161ZM578.2469 115.57723Q577.71564 115.57723 577.35626 116.03036Q577.0125 116.48348 577.0125 117.70223Q577.0125 118.79598 577.35626 119.24911Q577.71564 119.70223 578.23126 119.70223Q578.77814 119.70223 579.1219 119.24911Q579.46564 118.79598 579.46564 117.59286Q579.46564 116.48348 579.10626 116.03036Q578.7625 115.57723 578.2469 115.57723Z" fill-rule="nonzero"/><path stroke="#757575" stroke-width="1.0" stroke-linecap="butt" d="M581.45 103.74911L454.76666 103.74911L399.93423 103.74911" fill-rule="nonzero"/><path fill="#9e9e9e" d="M401.93423 103.74911C401.93423 102.64454 401.0388 101.74911 399.93423 101.74911C398.82965 101.74911 397.93423 102.64454 397.93423 103.74911C397.93423 104.85368 398.82965 105.74911 399.93423 105.74911C401.0388 105.74911 401.93423 104.85368 401.93423 103.74911" fill-rule="nonzero"/><path fill="#efefef" d="M531.6844 326.45L531.6844 314.9969L536.0125 314.9969Q537.15314 314.9969 537.7469 315.10626Q538.59064 315.2469 539.15314 315.6375Q539.73126 316.02814 540.075 316.7469Q540.4344 317.45 540.4344 318.3094Q540.4344 319.7625 539.4969 320.77814Q538.575 321.79376 536.1375 321.79376L533.2 321.79376L533.2 326.45L531.6844 326.45ZM533.2 320.4344L536.16876 320.4344Q537.6375 320.4344 538.2469 319.8875Q538.8719 319.34064 538.8719 318.35626Q538.8719 317.6375 538.4969 317.1219Q538.1375 316.60626 537.54376 316.45Q537.16876 316.34064 536.1375 316.34064L533.2 316.34064L533.2 320.4344ZM548.1844 323.77814L549.6375 323.95Q549.29376 325.23126 548.35626 325.9344Q547.4344 326.6375 545.9969 326.6375Q544.16876 326.6375 543.10626 325.5125Q542.04376 324.3875 542.04376 322.3719Q542.04376 320.27814 543.1219 319.1219Q544.2 317.96564 545.91876 317.96564Q547.575 317.96564 548.6219 319.10626Q549.6844 320.23126 549.6844 322.27814Q549.6844 322.40314 549.6844 322.65314L543.4969 322.65314Q543.575 324.02814 544.2625 324.7625Q544.96564 325.48126 545.9969 325.48126Q546.77814 325.48126 547.325 325.075Q547.8719 324.66876 548.1844 323.77814ZM543.575 321.4969L548.2 321.4969Q548.10626 320.45 547.66876 319.9344Q546.9969 319.1219 545.9344 319.1219Q544.96564 319.1219 544.29376 319.77814Q543.6375 320.41876 543.575 321.4969ZM550.98126 322.29376Q550.98126 319.9969 552.2625 318.8875Q553.34064 317.96564 554.8719 317.96564Q556.59064 317.96564 557.66876 319.09064Q558.7625 320.2 558.7625 322.1844Q558.7625 323.77814 558.27814 324.7Q557.79376 325.6219 556.8719 326.1375Q555.96564 326.6375 554.8719 326.6375Q553.1375 326.6375 552.0594 325.52814Q550.98126 324.40314 550.98126 322.29376ZM552.4344 322.29376Q552.4344 323.8875 553.1219 324.6844Q553.825 325.48126 554.8719 325.48126Q555.91876 325.48126 556.60626 324.6844Q557.3094 323.8875 557.3094 322.2469Q557.3094 320.71564 556.60626 319.91876Q555.91876 319.1219 554.8719 319.1219Q553.825 319.1219 553.1219 319.91876Q552.4344 320.7 552.4344 322.29376ZM560.5125 329.6375L560.5125 318.15314L561.79376 318.15314L561.79376 319.23126Q562.2469 318.59064 562.8094 318.27814Q563.3875 317.96564 564.2 317.96564Q565.2625 317.96564 566.075 318.5125Q566.8875 319.0594 567.29376 320.0594Q567.71564 321.04376 567.71564 322.23126Q567.71564 323.5125 567.2469 324.52814Q566.79376 325.54376 565.91876 326.09064Q565.0594 326.6375 564.09064 326.6375Q563.3875 326.6375 562.825 326.34064Q562.27814 326.04376 561.91876 325.59064L561.91876 329.6375L560.5125 329.6375ZM561.77814 322.34064Q561.77814 323.95 562.41876 324.71564Q563.075 325.48126 563.9969 325.48126Q564.9344 325.48126 565.60626 324.6844Q566.27814 323.8875 566.27814 322.23126Q566.27814 320.6375 565.6219 319.85626Q564.96564 319.0594 564.0594 319.0594Q563.16876 319.0594 562.46564 319.90314Q561.77814 320.7469 561.77814 322.34064ZM569.48126 326.45L569.48126 314.9969L570.8875 314.9969L570.8875 326.45L569.48126 326.45ZM579.1844 323.77814L580.6375 323.95Q580.29376 325.23126 579.35626 325.9344Q578.4344 326.6375 576.9969 326.6375Q575.16876 326.6375 574.10626 325.5125Q573.04376 324.3875 573.04376 322.3719Q573.04376 320.27814 574.1219 319.1219Q575.2 317.96564 576.91876 317.96564Q578.575 317.96564 579.6219 319.10626Q580.6844 320.23126 580.6844 322.27814Q580.6844 322.40314 580.6844 322.65314L574.4969 322.65314Q574.575 324.02814 575.2625 324.7625Q575.96564 325.48126 576.9969 325.48126Q577.77814 325.48126 578.325 325.075Q578.8719 324.66876 579.1844 323.77814ZM574.575 321.4969L579.2 321.4969Q579.10626 320.45 578.66876 319.9344Q577.9969 319.1219 576.9344 319.1219Q575.96564 319.1219 575.29376 319.77814Q574.6375 320.41876 574.575 321.4969Z" fill-rule="nonzero"/><path fill="#9e9e9e" d="M537.1219 345.45L538.59064 345.325Q538.7625 346.40314 539.35626 346.95Q539.95 347.48126 540.79376 347.48126Q541.8094 347.48126 542.5125 346.71564Q543.21564 345.95 543.21564 344.6844Q543.21564 343.48126 542.54376 342.79376Q541.8719 342.09064 540.77814 342.09064Q540.09064 342.09064 539.54376 342.40314Q538.9969 342.71564 538.6844 343.2L537.3719 343.02814L538.48126 337.15314L544.16876 337.15314L544.16876 338.4969L539.60626 338.4969L538.98126 341.575Q540.0125 340.85626 541.15314 340.85626Q542.65314 340.85626 543.6844 341.90314Q544.71564 342.9344 544.71564 344.5594Q544.71564 346.1219 543.8094 347.2469Q542.7 348.65314 540.79376 348.65314Q539.23126 348.65314 538.2469 347.77814Q537.2625 346.8875 537.1219 345.45ZM546.1219 342.79376Q546.1219 340.7625 546.52814 339.52814Q546.95 338.29376 547.77814 337.6219Q548.60626 336.95 549.85626 336.95Q550.77814 336.95 551.46564 337.325Q552.16876 337.6844 552.6219 338.3875Q553.075 339.09064 553.325 340.09064Q553.59064 341.09064 553.59064 342.79376Q553.59064 344.8094 553.16876 346.0594Q552.7625 347.29376 551.9344 347.98126Q551.10626 348.65314 549.85626 348.65314Q548.2 348.65314 547.2469 347.45Q546.1219 346.02814 546.1219 342.79376ZM547.5594 342.79376Q547.5594 345.6219 548.21564 346.5594Q548.8875 347.48126 549.85626 347.48126Q550.825 347.48126 551.48126 346.54376Q552.1375 345.60626 552.1375 342.79376Q552.1375 339.96564 551.48126 339.04376Q550.825 338.10626 549.84064 338.10626Q548.8719 338.10626 548.29376 338.9344Q547.5594 339.98126 547.5594 342.79376ZM555.90314 348.45L555.90314 346.84064L557.5125 346.84064L557.5125 348.45L555.90314 348.45ZM559.1219 342.79376Q559.1219 340.7625 559.52814 339.52814Q559.95 338.29376 560.77814 337.6219Q561.60626 336.95 562.85626 336.95Q563.77814 336.95 564.46564 337.325Q565.16876 337.6844 565.6219 338.3875Q566.075 339.09064 566.325 340.09064Q566.59064 341.09064 566.59064 342.79376Q566.59064 344.8094 566.16876 346.0594Q565.7625 347.29376 564.9344 347.98126Q564.10626 348.65314 562.85626 348.65314Q561.2 348.65314 560.2469 347.45Q559.1219 346.02814 559.1219 342.79376ZM560.5594 342.79376Q560.5594 345.6219 561.21564 346.5594Q561.8875 347.48126 562.85626 347.48126Q563.825 347.48126 564.48126 346.54376Q565.1375 345.60626 565.1375 342.79376Q565.1375 339.96564 564.48126 339.04376Q563.825 338.10626 562.84064 338.10626Q561.8719 338.10626 561.29376 338.9344Q560.5594 339.98126 560.5594 342.79376ZM568.3875 339.7469Q568.3875 338.5125 568.9969 337.65314Q569.6219 336.79376 570.79376 336.79376Q571.8719 336.79376 572.575 337.575Q573.27814 338.34064 573.27814 339.825Q573.27814 341.27814 572.5594 342.075Q571.85626 342.85626 570.8094 342.85626Q569.7625 342.85626 569.075 342.09064Q568.3875 341.3094 568.3875 339.7469ZM570.825 337.7625Q570.3094 337.7625 569.95 338.21564Q569.60626 338.66876 569.60626 339.8875Q569.60626 340.98126 569.95 341.4344Q570.3094 341.8875 570.825 341.8875Q571.35626 341.8875 571.7 341.4344Q572.0594 340.98126 572.0594 339.77814Q572.0594 338.66876 571.7 338.21564Q571.35626 337.7625 570.825 337.7625ZM570.84064 348.8719L577.10626 336.79376L578.2469 336.79376L571.9969 348.8719L570.84064 348.8719ZM575.79376 345.7625Q575.79376 344.52814 576.40314 343.66876Q577.02814 342.8094 578.2 342.8094Q579.27814 342.8094 579.98126 343.59064Q580.7 344.35626 580.7 345.84064Q580.7 347.29376 579.98126 348.09064Q579.2625 348.8719 578.21564 348.8719Q577.16876 348.8719 576.48126 348.09064Q575.79376 347.3094 575.79376 345.7625ZM578.2469 343.77814Q577.71564 343.77814 577.35626 344.23126Q577.0125 344.6844 577.0125 345.90314Q577.0125 346.9969 577.35626 347.45Q577.71564 347.90314 578.23126 347.90314Q578.77814 347.90314 579.1219 347.45Q579.46564 346.9969 579.46564 345.79376Q579.46564 344.6844 579.10626 344.23126Q578.7625 343.77814 578.2469 343.77814Z" fill-rule="nonzero"/><path stroke="#757575" stroke-width="1.0" stroke-linecap="butt" d="M581.45 331.95L454.76666 331.95L300.0 345.01166" fill-rule="nonzero"/><path fill="#9e9e9e" d="M302.0 345.01166C302.0 343.9071 301.10458 343.01166 300.0 343.01166C298.89542 343.01166 298.0 343.9071 298.0 345.01166C298.0 346.11624 298.89542 347.01166 300.0 347.01166C301.10458 347.01166 302.0 346.11624 302.0 345.01166" fill-rule="nonzero"/><path fill="#f3f3f3" d="M265.98438 37.55L265.98438 23.2375L268.84375 23.2375L272.21875 33.3625Q272.6875 34.784374 272.90625 35.4875Q273.15625 34.70625 273.67188 33.190624L277.09375 23.2375L279.64062 23.2375L279.64062 37.55L277.82812 37.55L277.82812 25.565624L273.65625 37.55L271.95312 37.55L267.8125 25.3625L267.8125 37.55L265.98438 37.55ZM289.92188 34.20625L291.73438 34.440624Q291.3125 36.01875 290.14062 36.909374Q288.98438 37.784374 287.17188 37.784374Q284.90625 37.784374 283.5625 36.39375Q282.23438 34.9875 282.23438 32.45625Q282.23438 29.83125 283.57812 28.39375Q284.92188 26.940624 287.07812 26.940624Q289.15625 26.940624 290.46875 28.3625Q291.79688 29.76875 291.79688 32.346874Q291.79688 32.503124 291.78125 32.815624L284.04688 32.815624Q284.14062 34.51875 285.01562 35.425Q285.89062 36.33125 287.1875 36.33125Q288.15625 36.33125 288.82812 35.83125Q289.51562 35.315624 289.92188 34.20625ZM284.14062 31.3625L289.9375 31.3625Q289.82812 30.065624 289.28125 29.409374Q288.4375 28.39375 287.09375 28.39375Q285.89062 28.39375 285.0625 29.20625Q284.23438 30.003124 284.14062 31.3625ZM300.54688 37.55L300.54688 36.2375Q299.5625 37.784374 297.64062 37.784374Q296.40625 37.784374 295.35938 37.096874Q294.32812 36.409374 293.75 35.190624Q293.1875 33.971874 293.1875 32.378124Q293.1875 30.815624 293.70312 29.55Q294.21875 28.284374 295.25 27.6125Q296.29688 26.940624 297.5625 26.940624Q298.5 26.940624 299.23438 27.346874Q299.96875 27.7375 300.4375 28.3625L300.4375 23.2375L302.17188 23.2375L302.17188 37.55L300.54688 37.55ZM294.98438 32.378124Q294.98438 34.3625 295.82812 35.346874Q296.67188 36.33125 297.8125 36.33125Q298.96875 36.33125 299.76562 35.39375Q300.57812 34.45625 300.57812 32.51875Q300.57812 30.39375 299.75 29.39375Q298.9375 28.39375 297.73438 28.39375Q296.5625 28.39375 295.76562 29.3625Q294.98438 30.315624 294.98438 32.378124ZM304.82812 25.253124L304.82812 23.2375L306.59375 23.2375L306.59375 25.253124L304.82812 25.253124ZM304.82812 37.55L304.82812 27.175L306.59375 27.175L306.59375 37.55L304.82812 37.55ZM315.60938 37.55L315.60938 36.01875Q314.40625 37.784374 312.32812 37.784374Q311.40625 37.784374 310.60938 37.440624Q309.8125 37.08125 309.42188 36.55Q309.04688 36.01875 308.89062 35.2375Q308.78125 34.721874 308.78125 33.596874L308.78125 27.175L310.53125 27.175L310.53125 32.925Q310.53125 34.3 310.64062 34.784374Q310.8125 35.471874 311.34375 35.878124Q311.89062 36.26875 312.67188 36.26875Q313.46875 36.26875 314.15625 35.8625Q314.85938 35.45625 315.14062 34.76875Q315.4375 34.065624 315.4375 32.7375L315.4375 27.175L317.1875 27.175L317.1875 37.55L315.60938 37.55ZM319.8125 37.55L319.8125 27.175L321.39062 27.175L321.39062 28.628124Q321.875 27.878124 322.6875 27.409374Q323.5 26.940624 324.53125 26.940624Q325.6875 26.940624 326.42188 27.425Q327.15625 27.89375 327.46875 28.753124Q328.70312 26.940624 330.67188 26.940624Q332.21875 26.940624 333.04688 27.8Q333.875 28.659374 333.875 30.425L333.875 37.55L332.125 37.55L332.125 31.01875Q332.125 29.95625 331.95312 29.503124Q331.78125 29.034374 331.32812 28.753124Q330.89062 28.471874 330.28125 28.471874Q329.1875 28.471874 328.45312 29.20625Q327.73438 29.925 327.73438 31.51875L327.73438 37.55L325.98438 37.55L325.98438 30.815624Q325.98438 29.64375 325.54688 29.065624Q325.125 28.471874 324.14062 28.471874Q323.40625 28.471874 322.76562 28.8625Q322.14062 29.253124 321.85938 30.003124Q321.57812 30.753124 321.57812 32.175L321.57812 37.55L319.8125 37.55Z" fill-rule="nonzero"/></svg>