<svg version="1.1" viewBox="0.0 0.0 600.0 371.0" fill="none" stroke="none" stroke-linecap="square" stroke-miterlimit="10" width="600" height="371" xmlns:xlink="http://www.w3.org/1999/xlink" xmlns="http://www.w3.org/2000/svg"><path fill="#ffffff" fill-opacity="0.0" d="M0 0L600.0 0L600.0 371.0L0 371.0L0 0Z" fill-rule="nonzero"/><path fill="#f7d750" d="M300.0 54.916668C382.16156 54.916668 448.76666 121.521774 448.76666 203.68333L374.38333 203.68333C374.38333 162.60255 341.08078 129.3 300.0 129.3Z" fill-rule="nonzero"/><path fill="#78a94e" d="M448.76666 203.68333C448.76666 243.1387 433.09308 280.9781 405.1939 308.87726L352.59695 256.2803C366.54654 242.33072 374.38333 223.41103 374.38333 203.68333Z" fill-rule="nonzero"/><path fill="#d8753e" d="M194.80608 98.48942C222.70525 70.590256 260.54462 54.916668 300.0 54.916668L300.0 129.3C280.2723 129.3 261.35263 137.1368 247.40305 151.08638Z" fill-rule="nonzero"/><path fill="#d0473d" d="M151.23334 203.68333C151.23334 164.22797 166.90692 126.38857 194.80608 98.48942L247.40305 151.08638C233.45346 165.03595 225.61667 183.95564 225.61667 203.68333Z" fill-rule="nonzero"/><path fill="#8c4595" d="M405.1939 308.87726C362.64694 351.42422 298.65976 364.15207 243.06946 341.12582C187.47917 318.09955 151.23334 263.85382 151.23334 203.68333L225.61667 203.68333C225.61667 233.76859 243.73958 260.89145 271.53473 272.40457C299.32986 283.9177 331.3235 277.55377 352.59695 256.2803Z" fill-rule="nonzero"/><path fill="#ffffff" d="M362.45795 129.77226L362.45795 131.28789L353.94232 131.28789Q353.9267 130.70976 354.12982 130.19414Q354.45795 129.31914 355.16107 128.47539Q355.87982 127.63164 357.2392 126.52226Q359.33295 124.80351 360.06732 123.80351Q360.81732 122.78789 360.81732 121.89726Q360.81732 120.94414 360.14545 120.30351Q359.47357 119.66289 358.39545 119.66289Q357.2392 119.66289 356.5517 120.35039Q355.87982 121.03789 355.8642 122.24101L354.2392 122.06914Q354.41107 120.25664 355.4892 119.30351Q356.58295 118.35039 358.4267 118.35039Q360.27045 118.35039 361.34857 119.38164Q362.44232 120.41289 362.44232 121.92851Q362.44232 122.69414 362.1142 123.44414Q361.8017 124.19414 361.06732 125.02226Q360.33295 125.85039 358.62982 127.28789Q357.20795 128.49101 356.8017 128.91289Q356.39545 129.33476 356.14545 129.77226L362.45795 129.77226ZM364.14545 127.91289L365.8017 127.77226Q365.9892 128.99101 366.66107 129.60039Q367.33295 130.20976 368.28607 130.20976Q369.4267 130.20976 370.20795 129.35039Q371.00482 128.49101 371.00482 127.05351Q371.00482 125.70976 370.2392 124.92851Q369.4892 124.14726 368.25482 124.14726Q367.4892 124.14726 366.8642 124.49101Q366.25482 124.83476 365.91107 125.39726L364.4267 125.19414L365.6767 118.58476L372.08295 118.58476L372.08295 120.08476L366.94232 120.08476L366.2392 123.55351Q367.41107 122.74101 368.6767 122.74101Q370.3642 122.74101 371.52045 123.91289Q372.69232 125.08476 372.69232 126.91289Q372.69232 128.66289 371.66107 129.94414Q370.4267 131.50664 368.28607 131.50664Q366.52045 131.50664 365.41107 130.52226Q364.3017 129.53789 364.14545 127.91289ZM375.03607 131.28789L375.03607 129.49101L376.83295 129.49101L376.83295 131.28789L375.03607 131.28789ZM379.14545 124.92851Q379.14545 122.64726 379.6142 121.25664Q380.08295 119.86601 381.00482 119.11601Q381.94232 118.35039 383.34857 118.35039Q384.37982 118.35039 385.16107 118.77226Q385.94232 119.17851 386.44232 119.97539Q386.95795 120.75664 387.25482 121.89726Q387.5517 123.02226 387.5517 124.92851Q387.5517 127.19414 387.08295 128.60039Q386.6142 129.99101 385.6767 130.75664Q384.75482 131.50664 383.34857 131.50664Q381.47357 131.50664 380.41107 130.17851Q379.14545 128.56914 379.14545 124.92851ZM380.77045 124.92851Q380.77045 128.10039 381.50482 129.16289Q382.25482 130.20976 383.34857 130.20976Q384.4267 130.20976 385.1767 129.16289Q385.9267 128.10039 385.9267 124.92851Q385.9267 121.75664 385.1767 120.70976Q384.4267 119.66289 383.33295 119.66289Q382.2392 119.66289 381.58295 120.58476Q380.77045 121.75664 380.77045 124.92851ZM389.44232 121.49101Q389.44232 120.11601 390.12982 119.14726Q390.83295 118.17851 392.14545 118.17851Q393.3642 118.17851 394.16107 119.05351Q394.95795 119.91289 394.95795 121.60039Q394.95795 123.22539 394.14545 124.11601Q393.34857 124.99101 392.16107 124.99101Q391.00482 124.99101 390.22357 124.13164Q389.44232 123.25664 389.44232 121.49101ZM392.19232 119.27226Q391.59857 119.27226 391.20795 119.78789Q390.81732 120.28789 390.81732 121.64726Q390.81732 122.89726 391.20795 123.39726Q391.6142 123.89726 392.19232 123.89726Q392.78607 123.89726 393.1767 123.39726Q393.56732 122.88164 393.56732 121.53789Q393.56732 120.28789 393.1767 119.78789Q392.78607 119.27226 392.19232 119.27226ZM392.20795 131.75664L399.25482 118.17851L400.53607 118.17851L393.50482 131.75664L392.20795 131.75664ZM397.77045 128.25664Q397.77045 126.88164 398.45795 125.91289Q399.16107 124.94414 400.4892 124.94414Q401.70795 124.94414 402.4892 125.81914Q403.28607 126.67851 403.28607 128.36601Q403.28607 129.99101 402.4892 130.88164Q401.69232 131.75664 400.50482 131.75664Q399.33295 131.75664 398.5517 130.88164Q397.77045 130.00664 397.77045 128.25664ZM400.53607 126.03789Q399.94232 126.03789 399.5517 126.55351Q399.16107 127.05351 399.16107 128.42851Q399.16107 129.64726 399.5517 130.16289Q399.94232 130.67851 400.52045 130.67851Q401.12982 130.67851 401.52045 130.16289Q401.91107 129.64726 401.91107 128.30351Q401.91107 127.05351 401.52045 126.55351Q401.12982 126.03789 400.53607 126.03789Z" fill-rule="nonzero"/><path fill="#ffffff" d="M384.28497 252.88124L382.70685 252.88124L382.70685 242.80312Q382.12872 243.34999 381.20685 243.89687Q380.28497 244.42812 379.53497 244.70937L379.53497 243.17812Q380.8631 242.55312 381.8631 241.66249Q382.8631 240.77187 383.26935 239.94374L384.28497 239.94374L384.28497 252.88124ZM396.64435 251.36562L396.64435 252.88124L388.12872 252.88124Q388.1131 252.30312 388.31622 251.78749Q388.64435 250.91249 389.34747 250.06874Q390.06622 249.22499 391.4256 248.11562Q393.51935 246.39687 394.25372 245.39687Q395.00372 244.38124 395.00372 243.49062Q395.00372 242.53749 394.33185 241.89687Q393.65997 241.25624 392.58185 241.25624Q391.4256 241.25624 390.7381 241.94374Q390.06622 242.63124 390.0506 243.83437L388.4256 243.66249Q388.59747 241.84999 389.6756 240.89687Q390.76935 239.94374 392.6131 239.94374Q394.45685 239.94374 395.53497 240.97499Q396.62872 242.00624 396.62872 243.52187Q396.62872 244.28749 396.3006 245.03749Q395.9881 245.78749 395.25372 246.61562Q394.51935 247.44374 392.81622 248.88124Q391.39435 250.08437 390.9881 250.50624Q390.58185 250.92812 390.33185 251.36562L396.64435 251.36562ZM399.22247 252.88124L399.22247 251.08437L401.01935 251.08437L401.01935 252.88124L399.22247 252.88124ZM403.33185 249.50624L404.9881 249.36562Q405.1756 250.58437 405.84747 251.19374Q406.51935 251.80312 407.47247 251.80312Q408.6131 251.80312 409.39435 250.94374Q410.19122 250.08437 410.19122 248.64687Q410.19122 247.30312 409.4256 246.52187Q408.6756 245.74062 407.44122 245.74062Q406.6756 245.74062 406.0506 246.08437Q405.44122 246.42812 405.09747 246.99062L403.6131 246.78749L404.8631 240.17812L411.26935 240.17812L411.26935 241.67812L406.12872 241.67812L405.4256 245.14687Q406.59747 244.33437 407.8631 244.33437Q409.5506 244.33437 410.70685 245.50624Q411.87872 246.67812 411.87872 248.50624Q411.87872 250.25624 410.84747 251.53749Q409.6131 253.09999 407.47247 253.09999Q405.70685 253.09999 404.59747 252.11562Q403.4881 251.13124 403.33185 249.50624ZM413.62872 243.08437Q413.62872 241.70937 414.31622 240.74062Q415.01935 239.77187 416.33185 239.77187Q417.5506 239.77187 418.34747 240.64687Q419.14435 241.50624 419.14435 243.19374Q419.14435 244.81874 418.33185 245.70937Q417.53497 246.58437 416.34747 246.58437Q415.19122 246.58437 414.40997 245.72499Q413.62872 244.84999 413.62872 243.08437ZM416.37872 240.86562Q415.78497 240.86562 415.39435 241.38124Q415.00372 241.88124 415.00372 243.24062Q415.00372 244.49062 415.39435 244.99062Q415.8006 245.49062 416.37872 245.49062Q416.97247 245.49062 417.3631 244.99062Q417.75372 244.47499 417.75372 243.13124Q417.75372 241.88124 417.3631 241.38124Q416.97247 240.86562 416.37872 240.86562ZM416.39435 253.34999L423.44122 239.77187L424.72247 239.77187L417.69122 253.34999L416.39435 253.34999ZM421.95685 249.84999Q421.95685 248.47499 422.64435 247.50624Q423.34747 246.53749 424.6756 246.53749Q425.89435 246.53749 426.6756 247.41249Q427.47247 248.27187 427.47247 249.95937Q427.47247 251.58437 426.6756 252.47499Q425.87872 253.34999 424.69122 253.34999Q423.51935 253.34999 422.7381 252.47499Q421.95685 251.59999 421.95685 249.84999ZM424.72247 247.63124Q424.12872 247.63124 423.7381 248.14687Q423.34747 248.64687 423.34747 250.02187Q423.34747 251.24062 423.7381 251.75624Q424.12872 252.27187 424.70685 252.27187Q425.31622 252.27187 425.70685 251.75624Q426.09747 251.24062 426.09747 249.89687Q426.09747 248.64687 425.70685 248.14687Q425.31622 247.63124 424.72247 247.63124Z" fill-rule="nonzero"/><path fill="#ffffff" d="M232.5521 309.85895L234.14584 309.65582Q234.41147 310.99957 235.06772 311.59332Q235.72397 312.18707 236.66147 312.18707Q237.78647 312.18707 238.5521 311.42145Q239.31772 310.6402 239.31772 309.49957Q239.31772 308.40582 238.59897 307.7027Q237.89584 306.98395 236.8021 306.98395Q236.34897 306.98395 235.6771 307.17145L235.84897 305.78082Q236.00522 305.79645 236.1146 305.79645Q237.1146 305.79645 237.9271 305.2652Q238.7396 304.73395 238.7396 303.6402Q238.7396 302.7652 238.14584 302.2027Q237.5521 301.62457 236.63022 301.62457Q235.70834 301.62457 235.08334 302.2027Q234.47397 302.78082 234.3021 303.9527L232.72397 303.67145Q233.00522 302.0777 234.03647 301.2027Q235.06772 300.3277 236.59897 300.3277Q237.64584 300.3277 238.53647 300.78082Q239.4271 301.23395 239.89584 302.0152Q240.3646 302.79645 240.3646 303.67145Q240.3646 304.5152 239.91147 305.2027Q239.47397 305.87457 238.58334 306.28082Q239.72397 306.54645 240.34897 307.3902Q240.9896 308.21832 240.9896 309.4527Q240.9896 311.1402 239.75522 312.3277Q238.53647 313.49957 236.66147 313.49957Q234.95834 313.49957 233.83334 312.48395Q232.72397 311.46832 232.5521 309.85895ZM242.66147 302.06207L242.66147 300.54645L250.9896 300.54645L250.9896 301.78082Q249.77084 303.09332 248.5521 305.2652Q247.34897 307.42145 246.69272 309.71832Q246.20834 311.34332 246.08334 313.2652L244.45834 313.2652Q244.4896 311.74957 245.0521 309.59332Q245.63022 307.43707 246.69272 305.43707Q247.75522 303.43707 248.95834 302.06207L242.66147 302.06207ZM253.44272 313.2652L253.44272 311.46832L255.2396 311.46832L255.2396 313.2652L253.44272 313.2652ZM257.5521 309.8902L259.20834 309.74957Q259.39584 310.96832 260.06772 311.5777Q260.7396 312.18707 261.69272 312.18707Q262.83334 312.18707 263.6146 311.3277Q264.41147 310.46832 264.41147 309.03082Q264.41147 307.68707 263.64584 306.90582Q262.89584 306.12457 261.66147 306.12457Q260.89584 306.12457 260.27084 306.46832Q259.66147 306.81207 259.31772 307.37457L257.83334 307.17145L259.08334 300.56207L265.4896 300.56207L265.4896 302.06207L260.34897 302.06207L259.64584 305.53082Q260.81772 304.71832 262.08334 304.71832Q263.77084 304.71832 264.9271 305.8902Q266.09897 307.06207 266.09897 308.8902Q266.09897 310.6402 265.06772 311.92145Q263.83334 313.48395 261.69272 313.48395Q259.9271 313.48395 258.81772 312.49957Q257.70834 311.5152 257.5521 309.8902ZM267.84897 303.46832Q267.84897 302.09332 268.53647 301.12457Q269.2396 300.15582 270.5521 300.15582Q271.77084 300.15582 272.56772 301.03082Q273.3646 301.8902 273.3646 303.5777Q273.3646 305.2027 272.5521 306.09332Q271.75522 306.96832 270.56772 306.96832Q269.41147 306.96832 268.63022 306.10895Q267.84897 305.23395 267.84897 303.46832ZM270.59897 301.24957Q270.00522 301.24957 269.6146 301.7652Q269.22397 302.2652 269.22397 303.62457Q269.22397 304.87457 269.6146 305.37457Q270.02084 305.87457 270.59897 305.87457Q271.19272 305.87457 271.58334 305.37457Q271.97397 304.85895 271.97397 303.5152Q271.97397 302.2652 271.58334 301.7652Q271.19272 301.24957 270.59897 301.24957ZM270.6146 313.73395L277.66147 300.15582L278.94272 300.15582L271.91147 313.73395L270.6146 313.73395ZM276.1771 310.23395Q276.1771 308.85895 276.8646 307.8902Q277.56772 306.92145 278.89584 306.92145Q280.1146 306.92145 280.89584 307.79645Q281.69272 308.65582 281.69272 310.34332Q281.69272 311.96832 280.89584 312.85895Q280.09897 313.73395 278.91147 313.73395Q277.7396 313.73395 276.95834 312.85895Q276.1771 311.98395 276.1771 310.23395ZM278.94272 308.0152Q278.34897 308.0152 277.95834 308.53082Q277.56772 309.03082 277.56772 310.40582Q277.56772 311.62457 277.95834 312.1402Q278.34897 312.65582 278.9271 312.65582Q279.53647 312.65582 279.9271 312.1402Q280.31772 311.62457 280.31772 310.28082Q280.31772 309.03082 279.9271 308.53082Q279.53647 308.0152 278.94272 308.0152Z" fill-rule="nonzero"/><path fill="#ffffff" d="M178.12126 167.48543L176.54314 167.48543L176.54314 157.4073Q175.96501 157.95418 175.04314 158.50105Q174.12126 159.0323 173.37126 159.31355L173.37126 157.7823Q174.69939 157.1573 175.69939 156.26668Q176.69939 155.37605 177.10564 154.54793L178.12126 154.54793L178.12126 167.48543ZM190.48064 165.9698L190.48064 167.48543L181.96501 167.48543Q181.94939 166.9073 182.15251 166.39168Q182.48064 165.51668 183.18376 164.67293Q183.90251 163.82918 185.26189 162.7198Q187.35564 161.00105 188.09001 160.00105Q188.84001 158.98543 188.84001 158.0948Q188.84001 157.14168 188.16814 156.50105Q187.49626 155.86043 186.41814 155.86043Q185.26189 155.86043 184.57439 156.54793Q183.90251 157.23543 183.88689 158.43855L182.26189 158.26668Q182.43376 156.45418 183.51189 155.50105Q184.60564 154.54793 186.44939 154.54793Q188.29314 154.54793 189.37126 155.57918Q190.46501 156.61043 190.46501 158.12605Q190.46501 158.89168 190.13689 159.64168Q189.82439 160.39168 189.09001 161.2198Q188.35564 162.04793 186.65251 163.48543Q185.23064 164.68855 184.82439 165.11043Q184.41814 165.5323 184.16814 165.9698L190.48064 165.9698ZM193.05876 167.48543L193.05876 165.68855L194.85564 165.68855L194.85564 167.48543L193.05876 167.48543ZM197.16814 164.11043L198.82439 163.9698Q199.01189 165.18855 199.68376 165.79793Q200.35564 166.4073 201.30876 166.4073Q202.44939 166.4073 203.23064 165.54793Q204.02751 164.68855 204.02751 163.25105Q204.02751 161.9073 203.26189 161.12605Q202.51189 160.3448 201.27751 160.3448Q200.51189 160.3448 199.88689 160.68855Q199.27751 161.0323 198.93376 161.5948L197.44939 161.39168L198.69939 154.7823L205.10564 154.7823L205.10564 156.2823L199.96501 156.2823L199.26189 159.75105Q200.43376 158.93855 201.69939 158.93855Q203.38689 158.93855 204.54314 160.11043Q205.71501 161.2823 205.71501 163.11043Q205.71501 164.86043 204.68376 166.14168Q203.44939 167.70418 201.30876 167.70418Q199.54314 167.70418 198.43376 166.7198Q197.32439 165.73543 197.16814 164.11043ZM207.46501 157.68855Q207.46501 156.31355 208.15251 155.3448Q208.85564 154.37605 210.16814 154.37605Q211.38689 154.37605 212.18376 155.25105Q212.98064 156.11043 212.98064 157.79793Q212.98064 159.42293 212.16814 160.31355Q211.37126 161.18855 210.18376 161.18855Q209.02751 161.18855 208.24626 160.32918Q207.46501 159.45418 207.46501 157.68855ZM210.21501 155.4698Q209.62126 155.4698 209.23064 155.98543Q208.84001 156.48543 208.84001 157.8448Q208.84001 159.0948 209.23064 159.5948Q209.63689 160.0948 210.21501 160.0948Q210.80876 160.0948 211.19939 159.5948Q211.59001 159.07918 211.59001 157.73543Q211.59001 156.48543 211.19939 155.98543Q210.80876 155.4698 210.21501 155.4698ZM210.23064 167.95418L217.27751 154.37605L218.55876 154.37605L211.52751 167.95418L210.23064 167.95418ZM215.79314 164.45418Q215.79314 163.07918 216.48064 162.11043Q217.18376 161.14168 218.51189 161.14168Q219.73064 161.14168 220.51189 162.01668Q221.30876 162.87605 221.30876 164.56355Q221.30876 166.18855 220.51189 167.07918Q219.71501 167.95418 218.52751 167.95418Q217.35564 167.95418 216.57439 167.07918Q215.79314 166.20418 215.79314 164.45418ZM218.55876 162.23543Q217.96501 162.23543 217.57439 162.75105Q217.18376 163.25105 217.18376 164.62605Q217.18376 165.8448 217.57439 166.36043Q217.96501 166.87605 218.54314 166.87605Q219.15251 166.87605 219.54314 166.36043Q219.93376 165.8448 219.93376 164.50105Q219.93376 163.25105 219.54314 162.75105Q219.15251 162.23543 218.55876 162.23543Z" fill-rule="nonzero"/><path fill="#ffffff" d="M238.50522 107.10147L236.9271 107.10147L236.9271 97.023346Q236.34897 97.57022 235.4271 98.117096Q234.50522 98.648346 233.75522 98.929596L233.75522 97.398346Q235.08334 96.773346 236.08334 95.88272Q237.08334 94.992096 237.4896 94.16397L238.50522 94.16397L238.50522 107.10147ZM250.8646 105.585846L250.8646 107.10147L242.34897 107.10147Q242.33334 106.523346 242.53647 106.00772Q242.8646 105.13272 243.56772 104.28897Q244.28647 103.44522 245.64584 102.335846Q247.7396 100.617096 248.47397 99.617096Q249.22397 98.60147 249.22397 97.710846Q249.22397 96.75772 248.5521 96.117096Q247.88022 95.47647 246.8021 95.47647Q245.64584 95.47647 244.95834 96.16397Q244.28647 96.85147 244.27084 98.054596L242.64584 97.88272Q242.81772 96.07022 243.89584 95.117096Q244.9896 94.16397 246.83334 94.16397Q248.6771 94.16397 249.75522 95.19522Q250.84897 96.22647 250.84897 97.742096Q250.84897 98.50772 250.52084 99.25772Q250.20834 100.00772 249.47397 100.835846Q248.7396 101.66397 247.03647 103.10147Q245.6146 104.304596 245.20834 104.72647Q244.8021 105.148346 244.5521 105.585846L250.8646 105.585846ZM253.44272 107.10147L253.44272 105.304596L255.2396 105.304596L255.2396 107.10147L253.44272 107.10147ZM257.5521 103.72647L259.20834 103.585846Q259.39584 104.804596 260.06772 105.41397Q260.7396 106.023346 261.69272 106.023346Q262.83334 106.023346 263.6146 105.16397Q264.41147 104.304596 264.41147 102.867096Q264.41147 101.523346 263.64584 100.742096Q262.89584 99.960846 261.66147 99.960846Q260.89584 99.960846 260.27084 100.304596Q259.66147 100.648346 259.31772 101.210846L257.83334 101.00772L259.08334 94.398346L265.4896 94.398346L265.4896 95.898346L260.34897 95.898346L259.64584 99.367096Q260.81772 98.554596 262.08334 98.554596Q263.77084 98.554596 264.9271 99.72647Q266.09897 100.898346 266.09897 102.72647Q266.09897 104.47647 265.06772 105.75772Q263.83334 107.32022 261.69272 107.32022Q259.9271 107.32022 258.81772 106.335846Q257.70834 105.35147 257.5521 103.72647ZM267.84897 97.304596Q267.84897 95.929596 268.53647 94.960846Q269.2396 93.992096 270.5521 93.992096Q271.77084 93.992096 272.56772 94.867096Q273.3646 95.72647 273.3646 97.41397Q273.3646 99.03897 272.5521 99.929596Q271.75522 100.804596 270.56772 100.804596Q269.41147 100.804596 268.63022 99.94522Q267.84897 99.07022 267.84897 97.304596ZM270.59897 95.085846Q270.00522 95.085846 269.6146 95.60147Q269.22397 96.10147 269.22397 97.460846Q269.22397 98.710846 269.6146 99.210846Q270.02084 99.710846 270.59897 99.710846Q271.19272 99.710846 271.58334 99.210846Q271.97397 98.69522 271.97397 97.35147Q271.97397 96.10147 271.58334 95.60147Q271.19272 95.085846 270.59897 95.085846ZM270.6146 107.57022L277.66147 93.992096L278.94272 93.992096L271.91147 107.57022L270.6146 107.57022ZM276.1771 104.07022Q276.1771 102.69522 276.8646 101.72647Q277.56772 100.75772 278.89584 100.75772Q280.1146 100.75772 280.89584 101.63272Q281.69272 102.492096 281.69272 104.179596Q281.69272 105.804596 280.89584 106.69522Q280.09897 107.57022 278.91147 107.57022Q277.7396 107.57022 276.95834 106.69522Q276.1771 105.82022 276.1771 104.07022ZM278.94272 101.85147Q278.34897 101.85147 277.95834 102.367096Q277.56772 102.867096 277.56772 104.242096Q277.56772 105.460846 277.95834 105.97647Q278.34897 106.492096 278.9271 106.492096Q279.53647 106.492096 279.9271 105.97647Q280.31772 105.460846 280.31772 104.117096Q280.31772 102.867096 279.9271 102.367096Q279.53647 101.85147 278.94272 101.85147Z" fill-rule="nonzero"/><path stroke="#ffffff" stroke-width="1.0" stroke-linejoin="round" stroke-linecap="round" d="M374.38333 203.68333C374.38333 162.60255 341.08078 129.3 300.0 129.3L300.0 54.916668C382.16156 54.916668 448.76666 121.521774 448.76666 203.68333" fill-rule="nonzero"/><path stroke="#ffffff" stroke-width="1.0" stroke-linejoin="round" stroke-linecap="round" d="M352.59695 256.2803C366.54654 242.33072 374.38333 223.41103 374.38333 203.68333L448.76666 203.68333C448.76666 243.1387 433.09308 280.9781 405.1939 308.87726" fill-rule="nonzero"/><path stroke="#ffffff" stroke-width="1.0" stroke-linejoin="round" stroke-linecap="round" d="M225.61667 203.68333C225.61667 233.76859 243.73958 260.89145 271.53473 272.40457C299.32986 283.9177 331.3235 277.55377 352.59695 256.2803L405.1939 308.87726C362.64694 351.42422 298.65976 364.15207 243.06946 341.12582C187.47917 318.09955 151.23334 263.85382 151.23334 203.68333" fill-rule="nonzero"/><path stroke="#ffffff" stroke-width="1.0" stroke-linejoin="round" stroke-linecap="round" d="M247.40305 151.08638C233.45346 165.03595 225.61667 183.95564 225.61667 203.68333L151.23334 203.68333C151.23334 164.22797 166.90692 126.38857 194.80608 98.48942" fill-rule="nonzero"/><path stroke="#ffffff" stroke-width="1.0" stroke-linejoin="round" stroke-linecap="round" d="M300.0 129.3C280.2723 129.3 261.35263 137.1368 247.40305 151.08638L194.80608 98.48942C222.70525 70.590256 260.54462 54.916668 300.0 54.916668" fill-rule="nonzero"/><path fill="#efefef" d="M18.51875 69.916664L22.925 58.46354L24.565624 58.46354L29.253124 69.916664L27.51875 69.916664L26.190624 66.447914L21.39375 66.447914L20.14375 69.916664L18.51875 69.916664ZM21.83125 65.21354L25.721874 65.21354L24.51875 62.041664Q23.971874 60.58854 23.70625 59.666664Q23.4875 60.760414 23.096874 61.854164L21.83125 65.21354ZM30.596874 69.916664L30.596874 61.61979L31.8625 61.61979L31.8625 62.86979Q32.346874 61.99479 32.753124 61.71354Q33.159374 61.43229 33.659374 61.43229Q34.3625 61.43229 35.096874 61.885414L34.6125 63.18229Q34.096874 62.885414 33.58125 62.885414Q33.128124 62.885414 32.753124 63.166664Q32.39375 63.43229 32.2375 63.93229Q32.003124 64.68229 32.003124 65.572914L32.003124 69.916664L30.596874 69.916664ZM38.675 68.65104L38.878124 69.90104Q38.284374 70.02604 37.815624 70.02604Q37.05 70.02604 36.628124 69.791664Q36.20625 69.541664 36.034374 69.15104Q35.8625 68.74479 35.8625 67.479164L35.8625 62.71354L34.83125 62.71354L34.83125 61.61979L35.8625 61.61979L35.8625 59.55729L37.26875 58.71354L37.26875 61.61979L38.675 61.61979L38.675 62.71354L37.26875 62.71354L37.26875 67.55729Q37.26875 68.166664 37.33125 68.33854Q37.409374 68.510414 37.58125 68.61979Q37.753124 68.71354 38.065624 68.71354Q38.3 68.71354 38.675 68.65104ZM39.05 67.43229L40.440624 67.21354Q40.55 68.05729 41.08125 68.510414Q41.628124 68.947914 42.58125 68.947914Q43.55 68.947914 44.01875 68.55729Q44.4875 68.15104 44.4875 67.61979Q44.4875 67.15104 44.08125 66.86979Q43.784374 66.68229 42.64375 66.40104Q41.096874 66.010414 40.4875 65.729164Q39.89375 65.43229 39.58125 64.93229Q39.284374 64.43229 39.284374 63.822914Q39.284374 63.260414 39.534374 62.791664Q39.784374 62.322914 40.221874 62.010414Q40.55 61.760414 41.1125 61.604164Q41.690624 61.43229 42.33125 61.43229Q43.315624 61.43229 44.05 61.71354Q44.784374 61.99479 45.128124 62.479164Q45.4875 62.947914 45.628124 63.760414L44.253124 63.947914Q44.159374 63.30729 43.70625 62.947914Q43.253124 62.58854 42.440624 62.58854Q41.471874 62.58854 41.05 62.916664Q40.64375 63.229164 40.64375 63.65104Q40.64375 63.93229 40.815624 64.15104Q40.9875 64.36979 41.346874 64.52604Q41.565624 64.604164 42.596874 64.885414Q44.08125 65.27604 44.675 65.541664Q45.26875 65.791664 45.596874 66.27604Q45.940624 66.760414 45.940624 67.479164Q45.940624 68.18229 45.51875 68.80729Q45.1125 69.416664 44.33125 69.760414Q43.565624 70.104164 42.596874 70.104164Q40.971874 70.104164 40.128124 69.43229Q39.284374 68.760414 39.05 67.43229ZM58.159374 68.55729Q57.45625 69.33854 56.628124 69.729164Q55.815624 70.11979 54.8625 70.11979Q53.1125 70.11979 52.08125 68.916664Q51.2375 67.947914 51.2375 66.760414Q51.2375 65.697914 51.925 64.83854Q52.6125 63.979164 53.971874 63.33854Q53.190624 62.447914 52.925 61.90104Q52.675 61.33854 52.675 60.822914Q52.675 59.791664 53.4875 59.02604Q54.3 58.260414 55.51875 58.260414Q56.690624 58.260414 57.440624 58.979164Q58.190624 59.697914 58.190624 60.71354Q58.190624 62.33854 56.01875 63.49479L58.08125 66.11979Q58.425 65.43229 58.628124 64.52604L60.08125 64.83854Q59.70625 66.33854 59.065624 67.30729Q59.8625 68.354164 60.8625 69.05729L59.909374 70.18229Q59.065624 69.635414 58.159374 68.55729ZM55.3 62.58854Q56.20625 62.05729 56.471874 61.65104Q56.753124 61.24479 56.753124 60.74479Q56.753124 60.166664 56.378124 59.791664Q56.003124 59.416664 55.45625 59.416664Q54.878124 59.416664 54.503124 59.791664Q54.128124 60.15104 54.128124 60.68229Q54.128124 60.947914 54.253124 61.24479Q54.39375 61.541664 54.675 61.86979L55.3 62.58854ZM57.26875 67.447914L54.690624 64.260414Q53.55 64.93229 53.14375 65.52604Q52.753124 66.104164 52.753124 66.666664Q52.753124 67.36979 53.3 68.11979Q53.8625 68.86979 54.878124 68.86979Q55.51875 68.86979 56.190624 68.479164Q56.8625 68.072914 57.26875 67.447914ZM65.51875 69.916664L69.925 58.46354L71.56563 58.46354L76.25313 69.916664L74.51875 69.916664L73.19063 66.447914L68.39375 66.447914L67.14375 69.916664L65.51875 69.916664ZM68.83125 65.21354L72.72188 65.21354L71.51875 62.041664Q70.97188 60.58854 70.70625 59.666664Q70.4875 60.760414 70.09688 61.854164L68.83125 65.21354ZM77.6125 69.916664L77.6125 61.61979L78.87813 61.61979L78.87813 62.791664Q79.78438 61.43229 81.51875 61.43229Q82.26875 61.43229 82.89375 61.697914Q83.51875 61.96354 83.83125 62.40104Q84.14375 62.83854 84.26875 63.447914Q84.34688 63.83854 84.34688 64.80729L84.34688 69.916664L82.94063 69.916664L82.94063 64.86979Q82.94063 64.010414 82.76875 63.58854Q82.6125 63.15104 82.19063 62.90104Q81.78438 62.65104 81.22188 62.65104Q80.31563 62.65104 79.65938 63.229164Q79.01875 63.791664 79.01875 65.385414L79.01875 69.916664L77.6125 69.916664ZM89.675 68.65104L89.87813 69.90104Q89.28438 70.02604 88.81563 70.02604Q88.05 70.02604 87.62813 69.791664Q87.20625 69.541664 87.03438 69.15104Q86.8625 68.74479 86.8625 67.479164L86.8625 62.71354L85.83125 62.71354L85.83125 61.61979L86.8625 61.61979L86.8625 59.55729L88.26875 58.71354L88.26875 61.61979L89.675 61.61979L89.675 62.71354L88.26875 62.71354L88.26875 67.55729Q88.26875 68.166664 88.33125 68.33854Q88.40938 68.510414 88.58125 68.61979Q88.75313 68.71354 89.06563 68.71354Q89.3 68.71354 89.675 68.65104ZM90.6125 60.072914L90.6125 58.46354L92.01875 58.46354L92.01875 60.072914L90.6125 60.072914ZM90.6125 69.916664L90.6125 61.61979L92.01875 61.61979L92.01875 69.916664L90.6125 69.916664ZM99.89375 73.104164L99.89375 69.02604Q99.56563 69.49479 98.97188 69.80729Q98.39375 70.104164 97.72188 70.104164Q96.25313 70.104164 95.175 68.93229Q94.1125 67.74479 94.1125 65.68229Q94.1125 64.43229 94.55 63.447914Q94.9875 62.447914 95.8 61.947914Q96.62813 61.43229 97.6125 61.43229Q99.15938 61.43229 100.03438 62.729164L100.03438 61.61979L101.3 61.61979L101.3 73.104164L99.89375 73.104164ZM95.56563 65.74479Q95.56563 67.33854 96.2375 68.15104Q96.90938 68.947914 97.84688 68.947914Q98.7375 68.947914 99.37813 68.18229Q100.03438 67.416664 100.03438 65.86979Q100.03438 64.21354 99.34688 63.385414Q98.675 62.541664 97.75313 62.541664Q96.83125 62.541664 96.19063 63.322914Q95.56563 64.08854 95.56563 65.74479ZM109.05 69.916664L109.05 68.697914Q108.08125 70.104164 106.40938 70.104164Q105.675 70.104164 105.03438 69.822914Q104.40938 69.541664 104.09688 69.11979Q103.78438 68.68229 103.65938 68.072914Q103.58125 67.65104 103.58125 66.760414L103.58125 61.61979L104.9875 61.61979L104.9875 66.21354Q104.9875 67.322914 105.06563 67.697914Q105.20625 68.260414 105.62813 68.572914Q106.06563 68.885414 106.69063 68.885414Q107.33125 68.885414 107.87813 68.572914Q108.44063 68.24479 108.65938 67.68229Q108.89375 67.11979 108.89375 66.05729L108.89375 61.61979L110.3 61.61979L110.3 69.916664L109.05 69.916664ZM112.6125 60.072914L112.6125 58.46354L114.01875 58.46354L114.01875 60.072914L112.6125 60.072914ZM112.6125 69.916664L112.6125 61.61979L114.01875 61.61979L114.01875 69.916664L112.6125 69.916664ZM119.675 68.65104L119.87813 69.90104Q119.28438 70.02604 118.81563 70.02604Q118.05 70.02604 117.62813 69.791664Q117.20625 69.541664 117.03438 69.15104Q116.8625 68.74479 116.8625 67.479164L116.8625 62.71354L115.83125 62.71354L115.83125 61.61979L116.8625 61.61979L116.8625 59.55729L118.26875 58.71354L118.26875 61.61979L119.675 61.61979L119.675 62.71354L118.26875 62.71354L118.26875 67.55729Q118.26875 68.166664 118.33125 68.33854Q118.40938 68.510414 118.58125 68.61979Q118.75313 68.71354 119.06563 68.71354Q119.3 68.71354 119.675 68.65104ZM120.6125 60.072914L120.6125 58.46354L122.01875 58.46354L122.01875 60.072914L120.6125 60.072914ZM120.6125 69.916664L120.6125 61.61979L122.01875 61.61979L122.01875 69.916664L120.6125 69.916664ZM130.28438 67.24479L131.7375 67.416664Q131.39375 68.697914 130.45625 69.40104Q129.53438 70.104164 128.09688 70.104164Q126.26875 70.104164 125.20625 68.979164Q124.14375 67.854164 124.14375 65.83854Q124.14375 63.74479 125.22188 62.58854Q126.3 61.43229 128.01875 61.43229Q129.675 61.43229 130.72188 62.572914Q131.78438 63.697914 131.78438 65.74479Q131.78438 65.86979 131.78438 66.11979L125.59688 66.11979Q125.675 67.49479 126.3625 68.229164Q127.06563 68.947914 128.09688 68.947914Q128.87813 68.947914 129.425 68.541664Q129.97188 68.135414 130.28438 67.24479ZM125.675 64.96354L130.3 64.96354Q130.20625 63.916664 129.76875 63.40104Q129.09688 62.58854 128.03438 62.58854Q127.06563 62.58854 126.39375 63.24479Q125.7375 63.885414 125.675 64.96354ZM133.05 67.43229L134.44063 67.21354Q134.55 68.05729 135.08125 68.510414Q135.62813 68.947914 136.58125 68.947914Q137.55 68.947914 138.01875 68.55729Q138.4875 68.15104 138.4875 67.61979Q138.4875 67.15104 138.08125 66.86979Q137.78438 66.68229 136.64375 66.40104Q135.09688 66.010414 134.4875 65.729164Q133.89375 65.43229 133.58125 64.93229Q133.28438 64.43229 133.28438 63.822914Q133.28438 63.260414 133.53438 62.791664Q133.78438 62.322914 134.22188 62.010414Q134.55 61.760414 135.1125 61.604164Q135.69063 61.43229 136.33125 61.43229Q137.31563 61.43229 138.05 61.71354Q138.78438 61.99479 139.12813 62.479164Q139.4875 62.947914 139.62813 63.760414L138.25313 63.947914Q138.15938 63.30729 137.70625 62.947914Q137.25313 62.58854 136.44063 62.58854Q135.47188 62.58854 135.05 62.916664Q134.64375 63.229164 134.64375 63.65104Q134.64375 63.93229 134.81563 64.15104Q134.9875 64.36979 135.34688 64.52604Q135.56563 64.604164 136.59688 64.885414Q138.08125 65.27604 138.675 65.541664Q139.26875 65.791664 139.59688 66.27604Q139.94063 66.760414 139.94063 67.479164Q139.94063 68.18229 139.51875 68.80729Q139.1125 69.416664 138.33125 69.760414Q137.56563 70.104164 136.59688 70.104164Q134.97188 70.104164 134.12813 69.43229Q133.28438 68.760414 133.05 67.43229Z" fill-rule="nonzero"/><path fill="#9e9e9e" d="M24.51875 91.916664L23.1125 91.916664L23.1125 82.947914Q22.596874 83.43229 21.76875 83.916664Q20.95625 84.40104 20.3 84.65104L20.3 83.291664Q21.471874 82.729164 22.346874 81.947914Q23.2375 81.15104 23.6125 80.416664L24.51875 80.416664L24.51875 91.916664ZM35.6125 90.55729L35.6125 91.916664L28.034374 91.916664Q28.01875 91.40104 28.20625 90.93229Q28.4875 90.166664 29.128124 89.416664Q29.76875 88.666664 30.971874 87.68229Q32.83125 86.15104 33.4875 85.260414Q34.14375 84.354164 34.14375 83.55729Q34.14375 82.729164 33.55 82.15104Q32.95625 81.572914 31.9875 81.572914Q30.971874 81.572914 30.3625 82.18229Q29.753124 82.791664 29.753124 83.86979L28.3 83.729164Q28.45625 82.104164 29.425 81.260414Q30.39375 80.416664 32.01875 80.416664Q33.675 80.416664 34.628124 81.33854Q35.596874 82.24479 35.596874 83.58854Q35.596874 84.27604 35.315624 84.947914Q35.034374 85.604164 34.378124 86.33854Q33.721874 87.072914 32.20625 88.354164Q30.940624 89.416664 30.58125 89.80729Q30.221874 90.18229 29.9875 90.55729L35.6125 90.55729ZM38.003124 91.916664L38.003124 90.30729L39.6125 90.30729L39.6125 91.916664L38.003124 91.916664ZM41.221874 88.916664L42.690624 88.791664Q42.8625 89.86979 43.45625 90.416664Q44.05 90.947914 44.89375 90.947914Q45.909374 90.947914 46.6125 90.18229Q47.315624 89.416664 47.315624 88.15104Q47.315624 86.947914 46.64375 86.260414Q45.971874 85.55729 44.878124 85.55729Q44.190624 85.55729 43.64375 85.86979Q43.096874 86.18229 42.784374 86.666664L41.471874 86.49479L42.58125 80.61979L48.26875 80.61979L48.26875 81.96354L43.70625 81.96354L43.08125 85.041664Q44.1125 84.322914 45.253124 84.322914Q46.753124 84.322914 47.784374 85.36979Q48.815624 86.40104 48.815624 88.02604Q48.815624 89.58854 47.909374 90.71354Q46.8 92.11979 44.89375 92.11979Q43.33125 92.11979 42.346874 91.24479Q41.3625 90.354164 41.221874 88.916664ZM50.4875 83.21354Q50.4875 81.979164 51.096874 81.11979Q51.721874 80.260414 52.89375 80.260414Q53.971874 80.260414 54.675 81.041664Q55.378124 81.80729 55.378124 83.291664Q55.378124 84.74479 54.659374 85.541664Q53.95625 86.322914 52.909374 86.322914Q51.8625 86.322914 51.175 85.55729Q50.4875 84.77604 50.4875 83.21354ZM52.925 81.229164Q52.409374 81.229164 52.05 81.68229Q51.70625 82.135414 51.70625 83.354164Q51.70625 84.447914 52.05 84.90104Q52.409374 85.354164 52.925 85.354164Q53.45625 85.354164 53.8 84.90104Q54.159374 84.447914 54.159374 83.24479Q54.159374 82.135414 53.8 81.68229Q53.45625 81.229164 52.925 81.229164ZM52.940624 92.33854L59.20625 80.260414L60.346874 80.260414L54.096874 92.33854L52.940624 92.33854ZM57.89375 89.229164Q57.89375 87.99479 58.503124 87.135414Q59.128124 86.27604 60.3 86.27604Q61.378124 86.27604 62.08125 87.05729Q62.8 87.822914 62.8 89.30729Q62.8 90.760414 62.08125 91.55729Q61.3625 92.33854 60.315624 92.33854Q59.26875 92.33854 58.58125 91.55729Q57.89375 90.77604 57.89375 89.229164ZM60.346874 87.24479Q59.815624 87.24479 59.45625 87.697914Q59.1125 88.15104 59.1125 89.36979Q59.1125 90.46354 59.45625 90.916664Q59.815624 91.36979 60.33125 91.36979Q60.878124 91.36979 61.221874 90.916664Q61.565624 90.46354 61.565624 89.260414Q61.565624 88.15104 61.20625 87.697914Q60.8625 87.24479 60.346874 87.24479Z" fill-rule="nonzero"/><path stroke="#757575" stroke-width="1.0" stroke-linecap="butt" d="M18.55 75.416664L145.23334 75.416664L245.91599 73.112976" fill-rule="nonzero"/><path fill="#9e9e9e" d="M247.91599 73.112976C247.91599 72.00841 247.02055 71.112976 245.91599 71.112976C244.81142 71.112976 243.91599 72.00841 243.91599 73.112976C243.91599 74.217545 244.81142 75.112976 245.91599 75.112976C247.02055 75.112976 247.91599 74.217545 247.91599 73.112976" fill-rule="nonzero"/><path fill="#efefef" d="M19.76875 144.09932L19.76875 132.6462L21.33125 132.6462L27.346874 141.63057L27.346874 132.6462L28.8 132.6462L28.8 144.09932L27.2375 144.09932L21.221874 135.09932L21.221874 144.09932L19.76875 144.09932ZM37.01875 143.06807Q36.2375 143.73994 35.51875 144.0212Q34.8 144.28682 33.971874 144.28682Q32.596874 144.28682 31.8625 143.61494Q31.128124 142.94307 31.128124 141.91182Q31.128124 141.30244 31.409374 140.80244Q31.690624 140.28682 32.128124 139.98994Q32.58125 139.67744 33.14375 139.5212Q33.565624 139.41182 34.39375 139.31807Q36.096874 139.11494 36.909374 138.8337Q36.909374 138.53682 36.909374 138.4587Q36.909374 137.59932 36.51875 137.25557Q35.971874 136.7712 34.909374 136.7712Q33.925 136.7712 33.440624 137.13057Q32.971874 137.47432 32.753124 138.34932L31.378124 138.16182Q31.565624 137.28682 31.9875 136.73994Q32.425 136.19307 33.2375 135.91182Q34.05 135.61494 35.1125 135.61494Q36.175 135.61494 36.83125 135.86494Q37.503124 136.11494 37.815624 136.48994Q38.128124 136.86494 38.253124 137.44307Q38.33125 137.80244 38.33125 138.73994L38.33125 140.61494Q38.33125 142.5837 38.409374 143.09932Q38.503124 143.61494 38.76875 144.09932L37.3 144.09932Q37.08125 143.66182 37.01875 143.06807ZM36.909374 139.92744Q36.14375 140.23994 34.6125 140.4587Q33.7375 140.5837 33.378124 140.73994Q33.01875 140.8962 32.815624 141.2087Q32.628124 141.50557 32.628124 141.86494Q32.628124 142.42744 33.05 142.80244Q33.4875 143.17744 34.3 143.17744Q35.1125 143.17744 35.7375 142.8337Q36.378124 142.47432 36.675 141.84932Q36.909374 141.38057 36.909374 140.44307L36.909374 139.92744ZM42.909374 144.09932L39.753124 135.80244L41.2375 135.80244L43.01875 140.7712Q43.315624 141.56807 43.55 142.44307Q43.7375 141.78682 44.08125 140.86494L45.925 135.80244L47.3625 135.80244L44.221874 144.09932L42.909374 144.09932ZM54.01875 143.06807Q53.2375 143.73994 52.51875 144.0212Q51.8 144.28682 50.971874 144.28682Q49.596874 144.28682 48.8625 143.61494Q48.128124 142.94307 48.128124 141.91182Q48.128124 141.30244 48.409374 140.80244Q48.690624 140.28682 49.128124 139.98994Q49.58125 139.67744 50.14375 139.5212Q50.565624 139.41182 51.39375 139.31807Q53.096874 139.11494 53.909374 138.8337Q53.909374 138.53682 53.909374 138.4587Q53.909374 137.59932 53.51875 137.25557Q52.971874 136.7712 51.909374 136.7712Q50.925 136.7712 50.440624 137.13057Q49.971874 137.47432 49.753124 138.34932L48.378124 138.16182Q48.565624 137.28682 48.9875 136.73994Q49.425 136.19307 50.2375 135.91182Q51.05 135.61494 52.1125 135.61494Q53.175 135.61494 53.83125 135.86494Q54.503124 136.11494 54.815624 136.48994Q55.128124 136.86494 55.253124 137.44307Q55.33125 137.80244 55.33125 138.73994L55.33125 140.61494Q55.33125 142.5837 55.409374 143.09932Q55.503124 143.61494 55.76875 144.09932L54.3 144.09932Q54.08125 143.66182 54.01875 143.06807ZM53.909374 139.92744Q53.14375 140.23994 51.6125 140.4587Q50.7375 140.5837 50.378124 140.73994Q50.01875 140.8962 49.815624 141.2087Q49.628124 141.50557 49.628124 141.86494Q49.628124 142.42744 50.05 142.80244Q50.4875 143.17744 51.3 143.17744Q52.1125 143.17744 52.7375 142.8337Q53.378124 142.47432 53.675 141.84932Q53.909374 141.38057 53.909374 140.44307L53.909374 139.92744ZM57.58125 144.09932L57.58125 132.6462L58.9875 132.6462L58.9875 144.09932L57.58125 144.09932ZM65.26875 140.41182L66.70625 140.28682Q66.8 141.1462 67.175 141.7087Q67.55 142.25557 68.33125 142.59932Q69.1125 142.92744 70.08125 142.92744Q70.95625 142.92744 71.6125 142.67744Q72.28438 142.41182 72.59688 141.97432Q72.925 141.5212 72.925 140.98994Q72.925 140.44307 72.6125 140.05244Q72.3 139.6462 71.58125 139.36494Q71.12813 139.19307 69.55 138.81807Q67.97188 138.42744 67.33125 138.09932Q66.51875 137.66182 66.1125 137.03682Q65.70625 136.3962 65.70625 135.59932Q65.70625 134.73994 66.19063 133.98994Q66.69063 133.22432 67.62813 132.8337Q68.58125 132.44307 69.7375 132.44307Q71.01875 132.44307 71.9875 132.86494Q72.95625 133.2712 73.47188 134.06807Q74.00313 134.86494 74.05 135.86494L72.59688 135.97432Q72.47188 134.8962 71.8 134.34932Q71.12813 133.78682 69.8 133.78682Q68.425 133.78682 67.8 134.28682Q67.175 134.78682 67.175 135.50557Q67.175 136.11494 67.6125 136.5212Q68.05 136.91182 69.89375 137.3337Q71.75313 137.75557 72.44063 138.06807Q73.44063 138.5212 73.90938 139.23994Q74.39375 139.94307 74.39375 140.86494Q74.39375 141.7712 73.8625 142.5837Q73.34688 143.3962 72.3625 143.84932Q71.37813 144.30244 70.15938 144.30244Q68.59688 144.30244 67.55 143.84932Q66.50313 143.38057 65.89375 142.47432Q65.3 141.56807 65.26875 140.41182ZM79.675 142.8337L79.87813 144.0837Q79.28438 144.2087 78.81563 144.2087Q78.05 144.2087 77.62813 143.97432Q77.20625 143.72432 77.03438 143.3337Q76.8625 142.92744 76.8625 141.66182L76.8625 136.8962L75.83125 136.8962L75.83125 135.80244L76.8625 135.80244L76.8625 133.73994L78.26875 132.8962L78.26875 135.80244L79.675 135.80244L79.675 136.8962L78.26875 136.8962L78.26875 141.73994Q78.26875 142.34932 78.33125 142.5212Q78.40938 142.69307 78.58125 142.80244Q78.75313 142.8962 79.06563 142.8962Q79.3 142.8962 79.675 142.8337ZM80.59688 144.09932L80.59688 135.80244L81.8625 135.80244L81.8625 137.05244Q82.34688 136.17744 82.75313 135.8962Q83.15938 135.61494 83.65938 135.61494Q84.3625 135.61494 85.09688 136.06807L84.6125 137.36494Q84.09688 137.06807 83.58125 137.06807Q83.12813 137.06807 82.75313 137.34932Q82.39375 137.61494 82.2375 138.11494Q82.00313 138.86494 82.00313 139.75557L82.00313 144.09932L80.59688 144.09932ZM91.05 144.09932L91.05 142.88057Q90.08125 144.28682 88.40938 144.28682Q87.675 144.28682 87.03438 144.00557Q86.40938 143.72432 86.09688 143.30244Q85.78438 142.86494 85.65938 142.25557Q85.58125 141.8337 85.58125 140.94307L85.58125 135.80244L86.9875 135.80244L86.9875 140.3962Q86.9875 141.50557 87.06563 141.88057Q87.20625 142.44307 87.62813 142.75557Q88.06563 143.06807 88.69063 143.06807Q89.33125 143.06807 89.87813 142.75557Q90.44063 142.42744 90.65938 141.86494Q90.89375 141.30244 90.89375 140.23994L90.89375 135.80244L92.3 135.80244L92.3 144.09932L91.05 144.09932ZM100.01875 141.05244L101.40938 141.23994Q101.175 142.66182 100.2375 143.47432Q99.31563 144.28682 97.95625 144.28682Q96.25313 144.28682 95.20625 143.17744Q94.175 142.05244 94.175 139.97432Q94.175 138.63057 94.6125 137.63057Q95.06563 136.61494 95.97188 136.11494Q96.89375 135.61494 97.95625 135.61494Q99.31563 135.61494 100.175 136.30244Q101.03438 136.97432 101.26875 138.23994L99.90938 138.44307Q99.70625 137.61494 99.20625 137.19307Q98.72188 136.7712 98.01875 136.7712Q96.95625 136.7712 96.28438 137.53682Q95.62813 138.28682 95.62813 139.94307Q95.62813 141.61494 96.26875 142.38057Q96.90938 143.13057 97.94063 143.13057Q98.76875 143.13057 99.31563 142.63057Q99.87813 142.11494 100.01875 141.05244ZM105.675 142.8337L105.87813 144.0837Q105.28438 144.2087 104.81563 144.2087Q104.05 144.2087 103.62813 143.97432Q103.20625 143.72432 103.03438 143.3337Q102.8625 142.92744 102.8625 141.66182L102.8625 136.8962L101.83125 136.8962L101.83125 135.80244L102.8625 135.80244L102.8625 133.73994L104.26875 132.8962L104.26875 135.80244L105.675 135.80244L105.675 136.8962L104.26875 136.8962L104.26875 141.73994Q104.26875 142.34932 104.33125 142.5212Q104.40938 142.69307 104.58125 142.80244Q104.75313 142.8962 105.06563 142.8962Q105.3 142.8962 105.675 142.8337ZM112.05 144.09932L112.05 142.88057Q111.08125 144.28682 109.40938 144.28682Q108.675 144.28682 108.03438 144.00557Q107.40938 143.72432 107.09688 143.30244Q106.78438 142.86494 106.65938 142.25557Q106.58125 141.8337 106.58125 140.94307L106.58125 135.80244L107.9875 135.80244L107.9875 140.3962Q107.9875 141.50557 108.06563 141.88057Q108.20625 142.44307 108.62813 142.75557Q109.06563 143.06807 109.69063 143.06807Q110.33125 143.06807 110.87813 142.75557Q111.44063 142.42744 111.65938 141.86494Q111.89375 141.30244 111.89375 140.23994L111.89375 135.80244L113.3 135.80244L113.3 144.09932L112.05 144.09932ZM115.59688 144.09932L115.59688 135.80244L116.8625 135.80244L116.8625 137.05244Q117.34688 136.17744 117.75313 135.8962Q118.15938 135.61494 118.65938 135.61494Q119.3625 135.61494 120.09688 136.06807L119.6125 137.36494Q119.09688 137.06807 118.58125 137.06807Q118.12813 137.06807 117.75313 137.34932Q117.39375 137.61494 117.2375 138.11494Q117.00313 138.86494 117.00313 139.75557L117.00313 144.09932L115.59688 144.09932ZM126.28438 141.42744L127.7375 141.59932Q127.39375 142.88057 126.45625 143.5837Q125.53438 144.28682 124.09688 144.28682Q122.26875 144.28682 121.20625 143.16182Q120.14375 142.03682 120.14375 140.0212Q120.14375 137.92744 121.22188 136.7712Q122.3 135.61494 124.01875 135.61494Q125.675 135.61494 126.72188 136.75557Q127.78438 137.88057 127.78438 139.92744Q127.78438 140.05244 127.78438 140.30244L121.59688 140.30244Q121.675 141.67744 122.3625 142.41182Q123.06563 143.13057 124.09688 143.13057Q124.87813 143.13057 125.425 142.72432Q125.97188 142.31807 126.28438 141.42744ZM121.675 139.1462L126.3 139.1462Q126.20625 138.09932 125.76875 137.5837Q125.09688 136.7712 124.03438 136.7712Q123.06563 136.7712 122.39375 137.42744Q121.7375 138.06807 121.675 139.1462ZM129.05 141.61494L130.44063 141.3962Q130.55 142.23994 131.08125 142.69307Q131.62813 143.13057 132.58125 143.13057Q133.55 143.13057 134.01875 142.73994Q134.4875 142.3337 134.4875 141.80244Q134.4875 141.3337 134.08125 141.05244Q133.78438 140.86494 132.64375 140.5837Q131.09688 140.19307 130.4875 139.91182Q129.89375 139.61494 129.58125 139.11494Q129.28438 138.61494 129.28438 138.00557Q129.28438 137.44307 129.53438 136.97432Q129.78438 136.50557 130.22188 136.19307Q130.55 135.94307 131.1125 135.78682Q131.69063 135.61494 132.33125 135.61494Q133.31563 135.61494 134.05 135.8962Q134.78438 136.17744 135.12813 136.66182Q135.4875 137.13057 135.62813 137.94307L134.25313 138.13057Q134.15938 137.48994 133.70625 137.13057Q133.25313 136.7712 132.44063 136.7712Q131.47188 136.7712 131.05 137.09932Q130.64375 137.41182 130.64375 137.8337Q130.64375 138.11494 130.81563 138.3337Q130.9875 138.55244 131.34688 138.7087Q131.56563 138.78682 132.59688 139.06807Q134.08125 139.4587 134.675 139.72432Q135.26875 139.97432 135.59688 140.4587Q135.94063 140.94307 135.94063 141.66182Q135.94063 142.36494 135.51875 142.98994Q135.1125 143.59932 134.33125 143.94307Q133.56563 144.28682 132.59688 144.28682Q130.97188 144.28682 130.12813 143.61494Q129.28438 142.94307 129.05 141.61494Z" fill-rule="nonzero"/><path fill="#9e9e9e" d="M24.51875 166.09932L23.1125 166.09932L23.1125 157.13057Q22.596874 157.61494 21.76875 158.09932Q20.95625 158.5837 20.3 158.8337L20.3 157.47432Q21.471874 156.91182 22.346874 156.13057Q23.2375 155.3337 23.6125 154.59932L24.51875 154.59932L24.51875 166.09932ZM35.6125 164.73994L35.6125 166.09932L28.034374 166.09932Q28.01875 165.5837 28.20625 165.11494Q28.4875 164.34932 29.128124 163.59932Q29.76875 162.84932 30.971874 161.86494Q32.83125 160.3337 33.4875 159.44307Q34.14375 158.53682 34.14375 157.73994Q34.14375 156.91182 33.55 156.3337Q32.95625 155.75557 31.9875 155.75557Q30.971874 155.75557 30.3625 156.36494Q29.753124 156.97432 29.753124 158.05244L28.3 157.91182Q28.45625 156.28682 29.425 155.44307Q30.39375 154.59932 32.01875 154.59932Q33.675 154.59932 34.628124 155.5212Q35.596874 156.42744 35.596874 157.7712Q35.596874 158.4587 35.315624 159.13057Q35.034374 159.78682 34.378124 160.5212Q33.721874 161.25557 32.20625 162.53682Q30.940624 163.59932 30.58125 163.98994Q30.221874 164.36494 29.9875 164.73994L35.6125 164.73994ZM38.003124 166.09932L38.003124 164.48994L39.6125 164.48994L39.6125 166.09932L38.003124 166.09932ZM41.221874 163.09932L42.690624 162.97432Q42.8625 164.05244 43.45625 164.59932Q44.05 165.13057 44.89375 165.13057Q45.909374 165.13057 46.6125 164.36494Q47.315624 163.59932 47.315624 162.3337Q47.315624 161.13057 46.64375 160.44307Q45.971874 159.73994 44.878124 159.73994Q44.190624 159.73994 43.64375 160.05244Q43.096874 160.36494 42.784374 160.84932L41.471874 160.67744L42.58125 154.80244L48.26875 154.80244L48.26875 156.1462L43.70625 156.1462L43.08125 159.22432Q44.1125 158.50557 45.253124 158.50557Q46.753124 158.50557 47.784374 159.55244Q48.815624 160.5837 48.815624 162.2087Q48.815624 163.7712 47.909374 164.8962Q46.8 166.30244 44.89375 166.30244Q43.33125 166.30244 42.346874 165.42744Q41.3625 164.53682 41.221874 163.09932ZM50.4875 157.3962Q50.4875 156.16182 51.096874 155.30244Q51.721874 154.44307 52.89375 154.44307Q53.971874 154.44307 54.675 155.22432Q55.378124 155.98994 55.378124 157.47432Q55.378124 158.92744 54.659374 159.72432Q53.95625 160.50557 52.909374 160.50557Q51.8625 160.50557 51.175 159.73994Q50.4875 158.9587 50.4875 157.3962ZM52.925 155.41182Q52.409374 155.41182 52.05 155.86494Q51.70625 156.31807 51.70625 157.53682Q51.70625 158.63057 52.05 159.0837Q52.409374 159.53682 52.925 159.53682Q53.45625 159.53682 53.8 159.0837Q54.159374 158.63057 54.159374 157.42744Q54.159374 156.31807 53.8 155.86494Q53.45625 155.41182 52.925 155.41182ZM52.940624 166.5212L59.20625 154.44307L60.346874 154.44307L54.096874 166.5212L52.940624 166.5212ZM57.89375 163.41182Q57.89375 162.17744 58.503124 161.31807Q59.128124 160.4587 60.3 160.4587Q61.378124 160.4587 62.08125 161.23994Q62.8 162.00557 62.8 163.48994Q62.8 164.94307 62.08125 165.73994Q61.3625 166.5212 60.315624 166.5212Q59.26875 166.5212 58.58125 165.73994Q57.89375 164.9587 57.89375 163.41182ZM60.346874 161.42744Q59.815624 161.42744 59.45625 161.88057Q59.1125 162.3337 59.1125 163.55244Q59.1125 164.6462 59.45625 165.09932Q59.815624 165.55244 60.33125 165.55244Q60.878124 165.55244 61.221874 165.09932Q61.565624 164.6462 61.565624 163.44307Q61.565624 162.3337 61.20625 161.88057Q60.8625 161.42744 60.346874 161.42744Z" fill-rule="nonzero"/><path stroke="#757575" stroke-width="1.0" stroke-linecap="butt" d="M18.55 149.59932L145.23334 149.59932L169.42964 149.59932" fill-rule="nonzero"/><path fill="#9e9e9e" d="M171.42964 149.59932C171.42964 148.49475 170.53421 147.59932 169.42964 147.59932C168.32507 147.59932 167.42964 148.49475 167.42964 149.59932C167.42964 150.70389 168.32507 151.59932 169.42964 151.59932C170.53421 151.59932 171.42964 150.70389 171.42964 149.59932" fill-rule="nonzero"/><path fill="#efefef" d="M19.76875 326.45L19.76875 314.9969L21.33125 314.9969L27.346874 323.98126L27.346874 314.9969L28.8 314.9969L28.8 326.45L27.2375 326.45L21.221874 317.45L21.221874 326.45L19.76875 326.45ZM37.01875 325.41876Q36.2375 326.09064 35.51875 326.3719Q34.8 326.6375 33.971874 326.6375Q32.596874 326.6375 31.8625 325.96564Q31.128124 325.29376 31.128124 324.2625Q31.128124 323.65314 31.409374 323.15314Q31.690624 322.6375 32.128124 322.34064Q32.58125 322.02814 33.14375 321.8719Q33.565624 321.7625 34.39375 321.66876Q36.096874 321.46564 36.909374 321.1844Q36.909374 320.8875 36.909374 320.8094Q36.909374 319.95 36.51875 319.60626Q35.971874 319.1219 34.909374 319.1219Q33.925 319.1219 33.440624 319.48126Q32.971874 319.825 32.753124 320.7L31.378124 320.5125Q31.565624 319.6375 31.9875 319.09064Q32.425 318.54376 33.2375 318.2625Q34.05 317.96564 35.1125 317.96564Q36.175 317.96564 36.83125 318.21564Q37.503124 318.46564 37.815624 318.84064Q38.128124 319.21564 38.253124 319.79376Q38.33125 320.15314 38.33125 321.09064L38.33125 322.96564Q38.33125 324.9344 38.409374 325.45Q38.503124 325.96564 38.76875 326.45L37.3 326.45Q37.08125 326.0125 37.01875 325.41876ZM36.909374 322.27814Q36.14375 322.59064 34.6125 322.8094Q33.7375 322.9344 33.378124 323.09064Q33.01875 323.2469 32.815624 323.5594Q32.628124 323.85626 32.628124 324.21564Q32.628124 324.77814 33.05 325.15314Q33.4875 325.52814 34.3 325.52814Q35.1125 325.52814 35.7375 325.1844Q36.378124 324.825 36.675 324.2Q36.909374 323.73126 36.909374 322.79376L36.909374 322.27814ZM43.675 325.1844L43.878124 326.4344Q43.284374 326.5594 42.815624 326.5594Q42.05 326.5594 41.628124 326.325Q41.20625 326.075 41.034374 325.6844Q40.8625 325.27814 40.8625 324.0125L40.8625 319.2469L39.83125 319.2469L39.83125 318.15314L40.8625 318.15314L40.8625 316.09064L42.26875 315.2469L42.26875 318.15314L43.675 318.15314L43.675 319.2469L42.26875 319.2469L42.26875 324.09064Q42.26875 324.7 42.33125 324.8719Q42.409374 325.04376 42.58125 325.15314Q42.753124 325.2469 43.065624 325.2469Q43.3 325.2469 43.675 325.1844ZM50.05 326.45L50.05 325.23126Q49.08125 326.6375 47.409374 326.6375Q46.675 326.6375 46.034374 326.35626Q45.409374 326.075 45.096874 325.65314Q44.784374 325.21564 44.659374 324.60626Q44.58125 324.1844 44.58125 323.29376L44.58125 318.15314L45.9875 318.15314L45.9875 322.7469Q45.9875 323.85626 46.065624 324.23126Q46.20625 324.79376 46.628124 325.10626Q47.065624 325.41876 47.690624 325.41876Q48.33125 325.41876 48.878124 325.10626Q49.440624 324.77814 49.659374 324.21564Q49.89375 323.65314 49.89375 322.59064L49.89375 318.15314L51.3 318.15314L51.3 326.45L50.05 326.45ZM53.596874 326.45L53.596874 318.15314L54.8625 318.15314L54.8625 319.40314Q55.346874 318.52814 55.753124 318.2469Q56.159374 317.96564 56.659374 317.96564Q57.3625 317.96564 58.096874 318.41876L57.6125 319.71564Q57.096874 319.41876 56.58125 319.41876Q56.128124 319.41876 55.753124 319.7Q55.39375 319.96564 55.2375 320.46564Q55.003124 321.21564 55.003124 322.10626L55.003124 326.45L53.596874 326.45ZM64.01875 325.41876Q63.2375 326.09064 62.51875 326.3719Q61.8 326.6375 60.971874 326.6375Q59.596874 326.6375 58.8625 325.96564Q58.128124 325.29376 58.128124 324.2625Q58.128124 323.65314 58.409374 323.15314Q58.690624 322.6375 59.128124 322.34064Q59.58125 322.02814 60.14375 321.8719Q60.565624 321.7625 61.39375 321.66876Q63.096874 321.46564 63.909374 321.1844Q63.909374 320.8875 63.909374 320.8094Q63.909374 319.95 63.51875 319.60626Q62.971874 319.1219 61.909374 319.1219Q60.925 319.1219 60.440624 319.48126Q59.971874 319.825 59.753124 320.7L58.378124 320.5125Q58.565624 319.6375 58.9875 319.09064Q59.425 318.54376 60.2375 318.2625Q61.05 317.96564 62.1125 317.96564Q63.175 317.96564 63.83125 318.21564Q64.50313 318.46564 64.81563 318.84064Q65.12813 319.21564 65.25313 319.79376Q65.33125 320.15314 65.33125 321.09064L65.33125 322.96564Q65.33125 324.9344 65.40938 325.45Q65.50313 325.96564 65.76875 326.45L64.3 326.45Q64.08125 326.0125 64.01875 325.41876ZM63.909374 322.27814Q63.14375 322.59064 61.6125 322.8094Q60.7375 322.9344 60.378124 323.09064Q60.01875 323.2469 59.815624 323.5594Q59.628124 323.85626 59.628124 324.21564Q59.628124 324.77814 60.05 325.15314Q60.4875 325.52814 61.3 325.52814Q62.1125 325.52814 62.7375 325.1844Q63.378124 324.825 63.675 324.2Q63.909374 323.73126 63.909374 322.79376L63.909374 322.27814ZM67.58125 326.45L67.58125 314.9969L68.9875 314.9969L68.9875 326.45L67.58125 326.45Z" fill-rule="nonzero"/><path fill="#9e9e9e" d="M19.221874 345.41876L20.628124 345.23126Q20.878124 346.4344 21.45625 346.96564Q22.034374 347.48126 22.878124 347.48126Q23.8625 347.48126 24.55 346.79376Q25.2375 346.10626 25.2375 345.09064Q25.2375 344.1219 24.596874 343.4969Q23.971874 342.8719 22.9875 342.8719Q22.596874 342.8719 22.003124 343.02814L22.159374 341.79376Q22.3 341.8094 22.378124 341.8094Q23.284374 341.8094 24.003124 341.34064Q24.721874 340.8719 24.721874 339.8875Q24.721874 339.1219 24.190624 338.6219Q23.675 338.10626 22.846874 338.10626Q22.01875 338.10626 21.471874 338.6219Q20.925 339.1375 20.76875 340.16876L19.3625 339.91876Q19.628124 338.4969 20.534374 337.73126Q21.45625 336.95 22.815624 336.95Q23.753124 336.95 24.534374 337.35626Q25.33125 337.7469 25.7375 338.45Q26.159374 339.1375 26.159374 339.91876Q26.159374 340.66876 25.753124 341.27814Q25.3625 341.8875 24.58125 342.2469Q25.596874 342.48126 26.159374 343.21564Q26.721874 343.95 26.721874 345.0594Q26.721874 346.5594 25.628124 347.60626Q24.534374 348.65314 22.8625 348.65314Q21.3625 348.65314 20.3625 347.7625Q19.3625 346.85626 19.221874 345.41876ZM28.315624 338.4969L28.315624 337.1375L35.721874 337.1375L35.721874 338.23126Q34.628124 339.40314 33.55 341.34064Q32.4875 343.2625 31.89375 345.29376Q31.471874 346.73126 31.3625 348.45L29.909374 348.45Q29.940624 347.09064 30.440624 345.1844Q30.95625 343.2625 31.89375 341.4969Q32.846874 339.71564 33.925 338.4969L28.315624 338.4969ZM38.003124 348.45L38.003124 346.84064L39.6125 346.84064L39.6125 348.45L38.003124 348.45ZM41.221874 345.45L42.690624 345.325Q42.8625 346.40314 43.45625 346.95Q44.05 347.48126 44.89375 347.48126Q45.909374 347.48126 46.6125 346.71564Q47.315624 345.95 47.315624 344.6844Q47.315624 343.48126 46.64375 342.79376Q45.971874 342.09064 44.878124 342.09064Q44.190624 342.09064 43.64375 342.40314Q43.096874 342.71564 42.784374 343.2L41.471874 343.02814L42.58125 337.15314L48.26875 337.15314L48.26875 338.4969L43.70625 338.4969L43.08125 341.575Q44.1125 340.85626 45.253124 340.85626Q46.753124 340.85626 47.784374 341.90314Q48.815624 342.9344 48.815624 344.5594Q48.815624 346.1219 47.909374 347.2469Q46.8 348.65314 44.89375 348.65314Q43.33125 348.65314 42.346874 347.77814Q41.3625 346.8875 41.221874 345.45ZM50.4875 339.7469Q50.4875 338.5125 51.096874 337.65314Q51.721874 336.79376 52.89375 336.79376Q53.971874 336.79376 54.675 337.575Q55.378124 338.34064 55.378124 339.825Q55.378124 341.27814 54.659374 342.075Q53.95625 342.85626 52.909374 342.85626Q51.8625 342.85626 51.175 342.09064Q50.4875 341.3094 50.4875 339.7469ZM52.925 337.7625Q52.409374 337.7625 52.05 338.21564Q51.70625 338.66876 51.70625 339.8875Q51.70625 340.98126 52.05 341.4344Q52.409374 341.8875 52.925 341.8875Q53.45625 341.8875 53.8 341.4344Q54.159374 340.98126 54.159374 339.77814Q54.159374 338.66876 53.8 338.21564Q53.45625 337.7625 52.925 337.7625ZM52.940624 348.8719L59.20625 336.79376L60.346874 336.79376L54.096874 348.8719L52.940624 348.8719ZM57.89375 345.7625Q57.89375 344.52814 58.503124 343.66876Q59.128124 342.8094 60.3 342.8094Q61.378124 342.8094 62.08125 343.59064Q62.8 344.35626 62.8 345.84064Q62.8 347.29376 62.08125 348.09064Q61.3625 348.8719 60.315624 348.8719Q59.26875 348.8719 58.58125 348.09064Q57.89375 347.3094 57.89375 345.7625ZM60.346874 343.77814Q59.815624 343.77814 59.45625 344.23126Q59.1125 344.6844 59.1125 345.90314Q59.1125 346.9969 59.45625 347.45Q59.815624 347.90314 60.33125 347.90314Q60.878124 347.90314 61.221874 347.45Q61.565624 346.9969 61.565624 345.79376Q61.565624 344.6844 61.20625 344.23126Q60.8625 343.77814 60.346874 343.77814Z" fill-rule="nonzero"/><path stroke="#757575" stroke-width="1.0" stroke-linecap="butt" d="M18.55 331.95L145.23334 331.95L245.91599 334.2537" fill-rule="nonzero"/><path fill="#9e9e9e" d="M247.91599 334.2537C247.91599 333.1491 247.02055 332.2537 245.91599 332.2537C244.81142 332.2537 243.91599 333.1491 243.91599 334.2537C243.91599 335.35825 244.81142 336.2537 245.91599 336.2537C247.02055 336.2537 247.91599 335.35825 247.91599 334.2537" fill-rule="nonzero"/><path fill="#efefef" d="M481.71564 98.24911L481.71564 86.79598L489.9969 86.79598L489.9969 88.13973L483.23126 88.13973L483.23126 91.65536L489.575 91.65536L489.575 92.99911L483.23126 92.99911L483.23126 96.88973L490.2625 96.88973L490.2625 98.24911L481.71564 98.24911ZM495.575 96.98348L495.77814 98.23348Q495.1844 98.35848 494.71564 98.35848Q493.95 98.35848 493.52814 98.12411Q493.10626 97.87411 492.9344 97.48348Q492.7625 97.07723 492.7625 95.81161L492.7625 91.04598L491.73126 91.04598L491.73126 89.95223L492.7625 89.95223L492.7625 87.88973L494.16876 87.04598L494.16876 89.95223L495.575 89.95223L495.575 91.04598L494.16876 91.04598L494.16876 95.88973Q494.16876 96.49911 494.23126 96.67098Q494.3094 96.84286 494.48126 96.95223Q494.65314 97.04598 494.96564 97.04598Q495.2 97.04598 495.575 96.98348ZM496.5125 98.24911L496.5125 86.79598L497.91876 86.79598L497.91876 90.90536Q498.90314 89.76473 500.40314 89.76473Q501.325 89.76473 501.9969 90.12411Q502.6844 90.48348 502.96564 91.12411Q503.2625 91.76473 503.2625 92.98348L503.2625 98.24911L501.85626 98.24911L501.85626 92.98348Q501.85626 91.93661 501.40314 91.45223Q500.95 90.96786 500.10626 90.96786Q499.48126 90.96786 498.9344 91.29598Q498.3875 91.62411 498.15314 92.18661Q497.91876 92.73348 497.91876 93.70223L497.91876 98.24911L496.5125 98.24911ZM505.5125 98.24911L505.5125 89.95223L506.77814 89.95223L506.77814 91.12411Q507.6844 89.76473 509.41876 89.76473Q510.16876 89.76473 510.79376 90.03036Q511.41876 90.29598 511.73126 90.73348Q512.04376 91.17098 512.16876 91.78036Q512.2469 92.17098 512.2469 93.13973L512.2469 98.24911L510.84064 98.24911L510.84064 93.20223Q510.84064 92.34286 510.66876 91.92098Q510.5125 91.48348 510.09064 91.23348Q509.6844 90.98348 509.1219 90.98348Q508.21564 90.98348 507.5594 91.56161Q506.91876 92.12411 506.91876 93.71786L506.91876 98.24911L505.5125 98.24911ZM514.5125 88.40536L514.5125 86.79598L515.91876 86.79598L515.91876 88.40536L514.5125 88.40536ZM514.5125 98.24911L514.5125 89.95223L515.91876 89.95223L515.91876 98.24911L514.5125 98.24911ZM523.91876 95.20223L525.3094 95.38973Q525.075 96.81161 524.1375 97.62411Q523.21564 98.43661 521.85626 98.43661Q520.15314 98.43661 519.10626 97.32723Q518.075 96.20223 518.075 94.12411Q518.075 92.78036 518.5125 91.78036Q518.96564 90.76473 519.8719 90.26473Q520.79376 89.76473 521.85626 89.76473Q523.21564 89.76473 524.075 90.45223Q524.9344 91.12411 525.16876 92.38973L523.8094 92.59286Q523.60626 91.76473 523.10626 91.34286Q522.6219 90.92098 521.91876 90.92098Q520.85626 90.92098 520.1844 91.68661Q519.52814 92.43661 519.52814 94.09286Q519.52814 95.76473 520.16876 96.53036Q520.8094 97.28036 521.84064 97.28036Q522.66876 97.28036 523.21564 96.78036Q523.77814 96.26473 523.91876 95.20223ZM536.04376 93.74911L536.04376 92.40536L540.90314 92.40536L540.90314 96.65536Q539.77814 97.54598 538.59064 97.99911Q537.40314 98.45223 536.15314 98.45223Q534.46564 98.45223 533.09064 97.73348Q531.71564 96.99911 531.0125 95.63973Q530.3094 94.26473 530.3094 92.57723Q530.3094 90.90536 530.9969 89.45223Q531.7 87.99911 533.0125 87.29598Q534.325 86.59286 536.04376 86.59286Q537.27814 86.59286 538.27814 86.99911Q539.29376 87.40536 539.85626 88.12411Q540.4344 88.84286 540.73126 89.99911L539.35626 90.37411Q539.10626 89.49911 538.71564 88.99911Q538.34064 88.49911 537.6219 88.20223Q536.91876 87.88973 536.04376 87.88973Q535.0125 87.88973 534.2469 88.21786Q533.4969 88.53036 533.02814 89.04598Q532.5594 89.56161 532.3094 90.17098Q531.8719 91.23348 531.8719 92.48348Q531.8719 94.01473 532.3875 95.04598Q532.91876 96.07723 533.91876 96.57723Q534.9344 97.07723 536.075 97.07723Q537.0594 97.07723 537.9969 96.70223Q538.9344 96.31161 539.41876 95.88973L539.41876 93.74911L536.04376 93.74911ZM542.4969 98.24911L542.4969 89.95223L543.7625 89.95223L543.7625 91.20223Q544.2469 90.32723 544.65314 90.04598Q545.0594 89.76473 545.5594 89.76473Q546.2625 89.76473 546.9969 90.21786L546.5125 91.51473Q545.9969 91.21786 545.48126 91.21786Q545.02814 91.21786 544.65314 91.49911Q544.29376 91.76473 544.1375 92.26473Q543.90314 93.01473 543.90314 93.90536L543.90314 98.24911L542.4969 98.24911ZM546.98126 94.09286Q546.98126 91.79598 548.2625 90.68661Q549.34064 89.76473 550.8719 89.76473Q552.59064 89.76473 553.66876 90.88973Q554.7625 91.99911 554.7625 93.98348Q554.7625 95.57723 554.27814 96.49911Q553.79376 97.42098 552.8719 97.93661Q551.96564 98.43661 550.8719 98.43661Q549.1375 98.43661 548.0594 97.32723Q546.98126 96.20223 546.98126 94.09286ZM548.4344 94.09286Q548.4344 95.68661 549.1219 96.48348Q549.825 97.28036 550.8719 97.28036Q551.91876 97.28036 552.60626 96.48348Q553.3094 95.68661 553.3094 94.04598Q553.3094 92.51473 552.60626 91.71786Q551.91876 90.92098 550.8719 90.92098Q549.825 90.92098 549.1219 91.71786Q548.4344 92.49911 548.4344 94.09286ZM561.95 98.24911L561.95 97.03036Q560.98126 98.43661 559.3094 98.43661Q558.575 98.43661 557.9344 98.15536Q557.3094 97.87411 556.9969 97.45223Q556.6844 97.01473 556.5594 96.40536Q556.48126 95.98348 556.48126 95.09286L556.48126 89.95223L557.8875 89.95223L557.8875 94.54598Q557.8875 95.65536 557.96564 96.03036Q558.10626 96.59286 558.52814 96.90536Q558.96564 97.21786 559.59064 97.21786Q560.23126 97.21786 560.77814 96.90536Q561.34064 96.57723 561.5594 96.01473Q561.79376 95.45223 561.79376 94.38973L561.79376 89.95223L563.2 89.95223L563.2 98.24911L561.95 98.24911ZM565.5125 101.43661L565.5125 89.95223L566.79376 89.95223L566.79376 91.03036Q567.2469 90.38973 567.8094 90.07723Q568.3875 89.76473 569.2 89.76473Q570.2625 89.76473 571.075 90.31161Q571.8875 90.85848 572.29376 91.85848Q572.71564 92.84286 572.71564 94.03036Q572.71564 95.31161 572.2469 96.32723Q571.79376 97.34286 570.91876 97.88973Q570.0594 98.43661 569.09064 98.43661Q568.3875 98.43661 567.825 98.13973Q567.27814 97.84286 566.91876 97.38973L566.91876 101.43661L565.5125 101.43661ZM566.77814 94.13973Q566.77814 95.74911 567.41876 96.51473Q568.075 97.28036 568.9969 97.28036Q569.9344 97.28036 570.60626 96.48348Q571.27814 95.68661 571.27814 94.03036Q571.27814 92.43661 570.6219 91.65536Q569.96564 90.85848 569.0594 90.85848Q568.16876 90.85848 567.46564 91.70223Q566.77814 92.54598 566.77814 94.13973ZM573.95 95.76473L575.34064 95.54598Q575.45 96.38973 575.98126 96.84286Q576.52814 97.28036 577.48126 97.28036Q578.45 97.28036 578.91876 96.88973Q579.3875 96.48348 579.3875 95.95223Q579.3875 95.48348 578.98126 95.20223Q578.6844 95.01473 577.54376 94.73348Q575.9969 94.34286 575.3875 94.06161Q574.79376 93.76473 574.48126 93.26473Q574.1844 92.76473 574.1844 92.15536Q574.1844 91.59286 574.4344 91.12411Q574.6844 90.65536 575.1219 90.34286Q575.45 90.09286 576.0125 89.93661Q576.59064 89.76473 577.23126 89.76473Q578.21564 89.76473 578.95 90.04598Q579.6844 90.32723 580.02814 90.81161Q580.3875 91.28036 580.52814 92.09286L579.15314 92.28036Q579.0594 91.63973 578.60626 91.28036Q578.15314 90.92098 577.34064 90.92098Q576.3719 90.92098 575.95 91.24911Q575.54376 91.56161 575.54376 91.98348Q575.54376 92.26473 575.71564 92.48348Q575.8875 92.70223 576.2469 92.85848Q576.46564 92.93661 577.4969 93.21786Q578.98126 93.60848 579.575 93.87411Q580.16876 94.12411 580.4969 94.60848Q580.84064 95.09286 580.84064 95.81161Q580.84064 96.51473 580.41876 97.13973Q580.0125 97.74911 579.23126 98.09286Q578.46564 98.43661 577.4969 98.43661Q575.8719 98.43661 575.02814 97.76473Q574.1844 97.09286 573.95 95.76473Z" fill-rule="nonzero"/><path fill="#9e9e9e" d="M544.5125 118.88973L544.5125 120.24911L536.9344 120.24911Q536.91876 119.73348 537.10626 119.26473Q537.3875 118.49911 538.02814 117.74911Q538.66876 116.99911 539.8719 116.01473Q541.73126 114.48348 542.3875 113.59286Q543.04376 112.68661 543.04376 111.88973Q543.04376 111.06161 542.45 110.48348Q541.85626 109.90536 540.8875 109.90536Q539.8719 109.90536 539.2625 110.51473Q538.65314 111.12411 538.65314 112.20223L537.2 112.06161Q537.35626 110.43661 538.325 109.59286Q539.29376 108.74911 540.91876 108.74911Q542.575 108.74911 543.52814 109.67098Q544.4969 110.57723 544.4969 111.92098Q544.4969 112.60848 544.21564 113.28036Q543.9344 113.93661 543.27814 114.67098Q542.6219 115.40536 541.10626 116.68661Q539.84064 117.74911 539.48126 118.13973Q539.1219 118.51473 538.8875 118.88973L544.5125 118.88973ZM546.1219 117.24911L547.59064 117.12411Q547.7625 118.20223 548.35626 118.74911Q548.95 119.28036 549.79376 119.28036Q550.8094 119.28036 551.5125 118.51473Q552.21564 117.74911 552.21564 116.48348Q552.21564 115.28036 551.54376 114.59286Q550.8719 113.88973 549.77814 113.88973Q549.09064 113.88973 548.54376 114.20223Q547.9969 114.51473 547.6844 114.99911L546.3719 114.82723L547.48126 108.95223L553.16876 108.95223L553.16876 110.29598L548.60626 110.29598L547.98126 113.37411Q549.0125 112.65536 550.15314 112.65536Q551.65314 112.65536 552.6844 113.70223Q553.71564 114.73348 553.71564 116.35848Q553.71564 117.92098 552.8094 119.04598Q551.7 120.45223 549.79376 120.45223Q548.23126 120.45223 547.2469 119.57723Q546.2625 118.68661 546.1219 117.24911ZM555.90314 120.24911L555.90314 118.63973L557.5125 118.63973L557.5125 120.24911L555.90314 120.24911ZM559.1219 114.59286Q559.1219 112.56161 559.52814 111.32723Q559.95 110.09286 560.77814 109.42098Q561.60626 108.74911 562.85626 108.74911Q563.77814 108.74911 564.46564 109.12411Q565.16876 109.48348 565.6219 110.18661Q566.075 110.88973 566.325 111.88973Q566.59064 112.88973 566.59064 114.59286Q566.59064 116.60848 566.16876 117.85848Q565.7625 119.09286 564.9344 119.78036Q564.10626 120.45223 562.85626 120.45223Q561.2 120.45223 560.2469 119.24911Q559.1219 117.82723 559.1219 114.59286ZM560.5594 114.59286Q560.5594 117.42098 561.21564 118.35848Q561.8875 119.28036 562.85626 119.28036Q563.825 119.28036 564.48126 118.34286Q565.1375 117.40536 565.1375 114.59286Q565.1375 111.76473 564.48126 110.84286Q563.825 109.90536 562.84064 109.90536Q561.8719 109.90536 561.29376 110.73348Q560.5594 111.78036 560.5594 114.59286ZM568.3875 111.54598Q568.3875 110.31161 568.9969 109.45223Q569.6219 108.59286 570.79376 108.59286Q571.8719 108.59286 572.575 109.37411Q573.27814 110.13973 573.27814 111.62411Q573.27814 113.07723 572.5594 113.87411Q571.85626 114.65536 570.8094 114.65536Q569.7625 114.65536 569.075 113.88973Q568.3875 113.10848 568.3875 111.54598ZM570.825 109.56161Q570.3094 109.56161 569.95 110.01473Q569.60626 110.46786 569.60626 111.68661Q569.60626 112.78036 569.95 113.23348Q570.3094 113.68661 570.825 113.68661Q571.35626 113.68661 571.7 113.23348Q572.0594 112.78036 572.0594 111.57723Q572.0594 110.46786 571.7 110.01473Q571.35626 109.56161 570.825 109.56161ZM570.84064 120.67098L577.10626 108.59286L578.2469 108.59286L571.9969 120.67098L570.84064 120.67098ZM575.79376 117.56161Q575.79376 116.32723 576.40314 115.46786Q577.02814 114.60848 578.2 114.60848Q579.27814 114.60848 579.98126 115.38973Q580.7 116.15536 580.7 117.63973Q580.7 119.09286 579.98126 119.88973Q579.2625 120.67098 578.21564 120.67098Q577.16876 120.67098 576.48126 119.88973Q575.79376 119.10848 575.79376 117.56161ZM578.2469 115.57723Q577.71564 115.57723 577.35626 116.03036Q577.0125 116.48348 577.0125 117.70223Q577.0125 118.79598 577.35626 119.24911Q577.71564 119.70223 578.23126 119.70223Q578.77814 119.70223 579.1219 119.24911Q579.46564 118.79598 579.46564 117.59286Q579.46564 116.48348 579.10626 116.03036Q578.7625 115.57723 578.2469 115.57723Z" fill-rule="nonzero"/><path stroke="#757575" stroke-width="1.0" stroke-linecap="butt" d="M581.45 103.74911L454.76666 103.74911L399.93423 103.74911" fill-rule="nonzero"/><path fill="#9e9e9e" d="M401.93423 103.74911C401.93423 102.64454 401.0388 101.74911 399.93423 101.74911C398.82965 101.74911 397.93423 102.64454 397.93423 103.74911C397.93423 104.85368 398.82965 105.74911 399.93423 105.74911C401.0388 105.74911 401.93423 104.85368 401.93423 103.74911" fill-rule="nonzero"/><path fill="#efefef" d="M481.41876 252.26735L485.825 240.81422L487.46564 240.81422L492.15314 252.26735L490.41876 252.26735L489.09064 248.7986L484.29376 248.7986L483.04376 252.26735L481.41876 252.26735ZM484.73126 247.56422L488.6219 247.56422L487.41876 244.39235Q486.8719 242.93922 486.60626 242.01735Q486.3875 243.1111 485.9969 244.20485L484.73126 247.56422ZM493.4969 252.26735L493.4969 243.97047L494.7625 243.97047L494.7625 245.22047Q495.2469 244.34547 495.65314 244.06422Q496.0594 243.78297 496.5594 243.78297Q497.2625 243.78297 497.9969 244.2361L497.5125 245.53297Q496.9969 245.2361 496.48126 245.2361Q496.02814 245.2361 495.65314 245.51735Q495.29376 245.78297 495.1375 246.28297Q494.90314 247.03297 494.90314 247.9236L494.90314 252.26735L493.4969 252.26735ZM503.91876 249.22047L505.3094 249.40797Q505.075 250.82985 504.1375 251.64235Q503.21564 252.45485 501.85626 252.45485Q500.15314 252.45485 499.10626 251.34547Q498.075 250.22047 498.075 248.14235Q498.075 246.7986 498.5125 245.7986Q498.96564 244.78297 499.8719 244.28297Q500.79376 243.78297 501.85626 243.78297Q503.21564 243.78297 504.075 244.47047Q504.9344 245.14235 505.16876 246.40797L503.8094 246.6111Q503.60626 245.78297 503.10626 245.3611Q502.6219 244.93922 501.91876 244.93922Q500.85626 244.93922 500.1844 245.70485Q499.52814 246.45485 499.52814 248.1111Q499.52814 249.78297 500.16876 250.5486Q500.8094 251.2986 501.84064 251.2986Q502.66876 251.2986 503.21564 250.7986Q503.77814 250.28297 503.91876 249.22047ZM506.5125 252.26735L506.5125 240.81422L507.91876 240.81422L507.91876 244.9236Q508.90314 243.78297 510.40314 243.78297Q511.325 243.78297 511.9969 244.14235Q512.6844 244.50172 512.96564 245.14235Q513.2625 245.78297 513.2625 247.00172L513.2625 252.26735L511.85626 252.26735L511.85626 247.00172Q511.85626 245.95485 511.40314 245.47047Q510.95 244.9861 510.10626 244.9861Q509.48126 244.9861 508.9344 245.31422Q508.3875 245.64235 508.15314 246.20485Q507.91876 246.75172 507.91876 247.72047L507.91876 252.26735L506.5125 252.26735ZM515.5125 242.4236L515.5125 240.81422L516.91876 240.81422L516.91876 242.4236L515.5125 242.4236ZM515.5125 252.26735L515.5125 243.97047L516.91876 243.97047L516.91876 252.26735L515.5125 252.26735ZM522.575 251.00172L522.77814 252.25172Q522.1844 252.37672 521.71564 252.37672Q520.95 252.37672 520.52814 252.14235Q520.10626 251.89235 519.9344 251.50172Q519.7625 251.09547 519.7625 249.82985L519.7625 245.06422L518.73126 245.06422L518.73126 243.97047L519.7625 243.97047L519.7625 241.90797L521.16876 241.06422L521.16876 243.97047L522.575 243.97047L522.575 245.06422L521.16876 245.06422L521.16876 249.90797Q521.16876 250.51735 521.23126 250.68922Q521.3094 250.8611 521.48126 250.97047Q521.65314 251.06422 521.96564 251.06422Q522.2 251.06422 522.575 251.00172ZM529.1844 249.59547L530.6375 249.76735Q530.29376 251.0486 529.35626 251.75172Q528.4344 252.45485 526.9969 252.45485Q525.16876 252.45485 524.10626 251.32985Q523.04376 250.20485 523.04376 248.18922Q523.04376 246.09547 524.1219 244.93922Q525.2 243.78297 526.91876 243.78297Q528.575 243.78297 529.6219 244.9236Q530.6844 246.0486 530.6844 248.09547Q530.6844 248.22047 530.6844 248.47047L524.4969 248.47047Q524.575 249.84547 525.2625 250.57985Q525.96564 251.2986 526.9969 251.2986Q527.77814 251.2986 528.325 250.89235Q528.8719 250.4861 529.1844 249.59547ZM524.575 247.31422L529.2 247.31422Q529.10626 246.26735 528.66876 245.75172Q527.9969 244.93922 526.9344 244.93922Q525.96564 244.93922 525.29376 245.59547Q524.6375 246.2361 524.575 247.31422ZM537.91876 249.22047L539.3094 249.40797Q539.075 250.82985 538.1375 251.64235Q537.21564 252.45485 535.85626 252.45485Q534.15314 252.45485 533.10626 251.34547Q532.075 250.22047 532.075 248.14235Q532.075 246.7986 532.5125 245.7986Q532.96564 244.78297 533.8719 244.28297Q534.79376 243.78297 535.85626 243.78297Q537.21564 243.78297 538.075 244.47047Q538.9344 245.14235 539.16876 246.40797L537.8094 246.6111Q537.60626 245.78297 537.10626 245.3611Q536.6219 244.93922 535.91876 244.93922Q534.85626 244.93922 534.1844 245.70485Q533.52814 246.45485 533.52814 248.1111Q533.52814 249.78297 534.16876 250.5486Q534.8094 251.2986 535.84064 251.2986Q536.66876 251.2986 537.21564 250.7986Q537.77814 250.28297 537.91876 249.22047ZM543.575 251.00172L543.77814 252.25172Q543.1844 252.37672 542.71564 252.37672Q541.95 252.37672 541.52814 252.14235Q541.10626 251.89235 540.9344 251.50172Q540.7625 251.09547 540.7625 249.82985L540.7625 245.06422L539.73126 245.06422L539.73126 243.97047L540.7625 243.97047L540.7625 241.90797L542.16876 241.06422L542.16876 243.97047L543.575 243.97047L543.575 245.06422L542.16876 245.06422L542.16876 249.90797Q542.16876 250.51735 542.23126 250.68922Q542.3094 250.8611 542.48126 250.97047Q542.65314 251.06422 542.96564 251.06422Q543.2 251.06422 543.575 251.00172ZM549.95 252.26735L549.95 251.0486Q548.98126 252.45485 547.3094 252.45485Q546.575 252.45485 545.9344 252.1736Q545.3094 251.89235 544.9969 251.47047Q544.6844 251.03297 544.5594 250.4236Q544.48126 250.00172 544.48126 249.1111L544.48126 243.97047L545.8875 243.97047L545.8875 248.56422Q545.8875 249.6736 545.96564 250.0486Q546.10626 250.6111 546.52814 250.9236Q546.96564 251.2361 547.59064 251.2361Q548.23126 251.2361 548.77814 250.9236Q549.34064 250.59547 549.5594 250.03297Q549.79376 249.47047 549.79376 248.40797L549.79376 243.97047L551.2 243.97047L551.2 252.26735L549.95 252.26735ZM553.4969 252.26735L553.4969 243.97047L554.7625 243.97047L554.7625 245.22047Q555.2469 244.34547 555.65314 244.06422Q556.0594 243.78297 556.5594 243.78297Q557.2625 243.78297 557.9969 244.2361L557.5125 245.53297Q556.9969 245.2361 556.48126 245.2361Q556.02814 245.2361 555.65314 245.51735Q555.29376 245.78297 555.1375 246.28297Q554.90314 247.03297 554.90314 247.9236L554.90314 252.26735L553.4969 252.26735ZM564.1844 249.59547L565.6375 249.76735Q565.29376 251.0486 564.35626 251.75172Q563.4344 252.45485 561.9969 252.45485Q560.16876 252.45485 559.10626 251.32985Q558.04376 250.20485 558.04376 248.18922Q558.04376 246.09547 559.1219 244.93922Q560.2 243.78297 561.91876 243.78297Q563.575 243.78297 564.6219 244.9236Q565.6844 246.0486 565.6844 248.09547Q565.6844 248.22047 565.6844 248.47047L559.4969 248.47047Q559.575 249.84547 560.2625 250.57985Q560.96564 251.2986 561.9969 251.2986Q562.77814 251.2986 563.325 250.89235Q563.8719 250.4861 564.1844 249.59547ZM559.575 247.31422L564.2 247.31422Q564.10626 246.26735 563.66876 245.75172Q562.9969 244.93922 561.9344 244.93922Q560.96564 244.93922 560.29376 245.59547Q559.6375 246.2361 559.575 247.31422ZM578.0594 250.90797Q577.35626 251.68922 576.52814 252.07985Q575.71564 252.47047 574.7625 252.47047Q573.0125 252.47047 571.98126 251.26735Q571.1375 250.2986 571.1375 249.1111Q571.1375 248.0486 571.825 247.18922Q572.5125 246.32985 573.8719 245.68922Q573.09064 244.7986 572.825 244.25172Q572.575 243.68922 572.575 243.1736Q572.575 242.14235 573.3875 241.37672Q574.2 240.6111 575.41876 240.6111Q576.59064 240.6111 577.34064 241.32985Q578.09064 242.0486 578.09064 243.06422Q578.09064 244.68922 575.91876 245.84547L577.98126 248.47047Q578.325 247.78297 578.52814 246.87672L579.98126 247.18922Q579.60626 248.68922 578.96564 249.65797Q579.7625 250.70485 580.7625 251.40797L579.8094 252.53297Q578.96564 251.9861 578.0594 250.90797ZM575.2 244.93922Q576.10626 244.40797 576.3719 244.00172Q576.65314 243.59547 576.65314 243.09547Q576.65314 242.51735 576.27814 242.14235Q575.90314 241.76735 575.35626 241.76735Q574.77814 241.76735 574.40314 242.14235Q574.02814 242.50172 574.02814 243.03297Q574.02814 243.2986 574.15314 243.59547Q574.29376 243.89235 574.575 244.22047L575.2 244.93922ZM577.16876 249.7986L574.59064 246.6111Q573.45 247.28297 573.04376 247.87672Q572.65314 248.45485 572.65314 249.01735Q572.65314 249.72047 573.2 250.47047Q573.7625 251.22047 574.77814 251.22047Q575.41876 251.22047 576.09064 250.82985Q576.7625 250.4236 577.16876 249.7986Z" fill-rule="nonzero"/><path fill="#9e9e9e" d="M542.41876 274.26733L541.0125 274.26733L541.0125 265.29858Q540.4969 265.78296 539.66876 266.26733Q538.85626 266.7517 538.2 267.0017L538.2 265.64233Q539.3719 265.07983 540.2469 264.29858Q541.1375 263.5017 541.5125 262.76733L542.41876 262.76733L542.41876 274.26733ZM553.5125 272.90796L553.5125 274.26733L545.9344 274.26733Q545.91876 273.7517 546.10626 273.28296Q546.3875 272.51733 547.02814 271.76733Q547.66876 271.01733 548.8719 270.03296Q550.73126 268.5017 551.3875 267.61108Q552.04376 266.70483 552.04376 265.90796Q552.04376 265.07983 551.45 264.5017Q550.85626 263.92358 549.8875 263.92358Q548.8719 263.92358 548.2625 264.53296Q547.65314 265.14233 547.65314 266.22046L546.2 266.07983Q546.35626 264.45483 547.325 263.61108Q548.29376 262.76733 549.91876 262.76733Q551.575 262.76733 552.52814 263.6892Q553.4969 264.59546 553.4969 265.9392Q553.4969 266.6267 553.21564 267.29858Q552.9344 267.95483 552.27814 268.6892Q551.6219 269.42358 550.10626 270.70483Q548.84064 271.76733 548.48126 272.15796Q548.1219 272.53296 547.8875 272.90796L553.5125 272.90796ZM555.90314 274.26733L555.90314 272.65796L557.5125 272.65796L557.5125 274.26733L555.90314 274.26733ZM559.1219 271.26733L560.59064 271.14233Q560.7625 272.22046 561.35626 272.76733Q561.95 273.29858 562.79376 273.29858Q563.8094 273.29858 564.5125 272.53296Q565.21564 271.76733 565.21564 270.5017Q565.21564 269.29858 564.54376 268.61108Q563.8719 267.90796 562.77814 267.90796Q562.09064 267.90796 561.54376 268.22046Q560.9969 268.53296 560.6844 269.01733L559.3719 268.84546L560.48126 262.97046L566.16876 262.97046L566.16876 264.3142L561.60626 264.3142L560.98126 267.39233Q562.0125 266.67358 563.15314 266.67358Q564.65314 266.67358 565.6844 267.72046Q566.71564 268.7517 566.71564 270.3767Q566.71564 271.9392 565.8094 273.0642Q564.7 274.47046 562.79376 274.47046Q561.23126 274.47046 560.2469 273.59546Q559.2625 272.70483 559.1219 271.26733ZM568.3875 265.5642Q568.3875 264.32983 568.9969 263.47046Q569.6219 262.61108 570.79376 262.61108Q571.8719 262.61108 572.575 263.39233Q573.27814 264.15796 573.27814 265.64233Q573.27814 267.09546 572.5594 267.89233Q571.85626 268.67358 570.8094 268.67358Q569.7625 268.67358 569.075 267.90796Q568.3875 267.1267 568.3875 265.5642ZM570.825 263.57983Q570.3094 263.57983 569.95 264.03296Q569.60626 264.48608 569.60626 265.70483Q569.60626 266.79858 569.95 267.2517Q570.3094 267.70483 570.825 267.70483Q571.35626 267.70483 571.7 267.2517Q572.0594 266.79858 572.0594 265.59546Q572.0594 264.48608 571.7 264.03296Q571.35626 263.57983 570.825 263.57983ZM570.84064 274.6892L577.10626 262.61108L578.2469 262.61108L571.9969 274.6892L570.84064 274.6892ZM575.79376 271.57983Q575.79376 270.34546 576.40314 269.48608Q577.02814 268.6267 578.2 268.6267Q579.27814 268.6267 579.98126 269.40796Q580.7 270.17358 580.7 271.65796Q580.7 273.11108 579.98126 273.90796Q579.2625 274.6892 578.21564 274.6892Q577.16876 274.6892 576.48126 273.90796Q575.79376 273.1267 575.79376 271.57983ZM578.2469 269.59546Q577.71564 269.59546 577.35626 270.04858Q577.0125 270.5017 577.0125 271.72046Q577.0125 272.8142 577.35626 273.26733Q577.71564 273.72046 578.23126 273.72046Q578.77814 273.72046 579.1219 273.26733Q579.46564 272.8142 579.46564 271.61108Q579.46564 270.5017 579.10626 270.04858Q578.7625 269.59546 578.2469 269.59546Z" fill-rule="nonzero"/><path stroke="#757575" stroke-width="1.0" stroke-linecap="butt" d="M581.45 257.76733L454.76666 257.76733L430.57034 257.76733" fill-rule="nonzero"/><path fill="#9e9e9e" d="M432.57034 257.76733C432.57034 256.66278 431.67493 255.76735 430.57034 255.76735C429.4658 255.76735 428.57034 256.66278 428.57034 257.76733C428.57034 258.87192 429.4658 259.76733 430.57034 259.76733C431.67493 259.76733 432.57034 258.87192 432.57034 257.76733" fill-rule="nonzero"/><path fill="#f3f3f3" d="M271.26562 32.534374L273.15625 33.003124Q272.5625 35.346874 271.01562 36.58125Q269.46875 37.8 267.21875 37.8Q264.90625 37.8 263.45312 36.8625Q262.01562 35.909374 261.25 34.128124Q260.5 32.33125 260.5 30.284374Q260.5 28.05 261.34375 26.39375Q262.20312 24.721874 263.78125 23.8625Q265.35938 22.9875 267.25 22.9875Q269.40625 22.9875 270.85938 24.08125Q272.32812 25.175 272.90625 27.159374L271.04688 27.596874Q270.54688 26.034374 269.59375 25.33125Q268.65625 24.6125 267.21875 24.6125Q265.5625 24.6125 264.45312 25.409374Q263.34375 26.190624 262.89062 27.534374Q262.45312 28.8625 262.45312 30.26875Q262.45312 32.096874 262.98438 33.471874Q263.51562 34.83125 264.64062 35.503124Q265.76562 36.175 267.0625 36.175Q268.65625 36.175 269.76562 35.253124Q270.875 34.33125 271.26562 32.534374ZM281.59375 36.26875Q280.60938 37.096874 279.70312 37.440624Q278.79688 37.784374 277.76562 37.784374Q276.0625 37.784374 275.14062 36.95625Q274.21875 36.1125 274.21875 34.815624Q274.21875 34.05 274.5625 33.425Q274.92188 32.8 275.48438 32.425Q276.04688 32.034374 276.75 31.83125Q277.26562 31.70625 278.3125 31.565624Q280.4375 31.315624 281.4375 30.971874Q281.45312 30.6125 281.45312 30.503124Q281.45312 29.440624 280.95312 28.9875Q280.28125 28.39375 278.95312 28.39375Q277.70312 28.39375 277.10938 28.83125Q276.53125 29.26875 276.25 30.378124L274.53125 30.14375Q274.76562 29.034374 275.29688 28.3625Q275.82812 27.675 276.84375 27.315624Q277.85938 26.940624 279.20312 26.940624Q280.53125 26.940624 281.35938 27.253124Q282.1875 27.565624 282.57812 28.05Q282.96875 28.51875 283.125 29.2375Q283.21875 29.690624 283.21875 30.8625L283.21875 33.20625Q283.21875 35.659374 283.32812 36.315624Q283.4375 36.95625 283.78125 37.55L281.9375 37.55Q281.67188 37.003124 281.59375 36.26875ZM281.4375 32.346874Q280.48438 32.7375 278.5625 33.003124Q277.48438 33.159374 277.03125 33.3625Q276.59375 33.55 276.34375 33.925Q276.09375 34.3 276.09375 34.76875Q276.09375 35.471874 276.625 35.940624Q277.15625 36.409374 278.1875 36.409374Q279.20312 36.409374 279.98438 35.971874Q280.78125 35.51875 281.15625 34.753124Q281.4375 34.14375 281.4375 32.9875L281.4375 32.346874ZM289.65625 35.971874L289.90625 37.534374Q289.17188 37.690624 288.57812 37.690624Q287.625 37.690624 287.09375 37.39375Q286.57812 37.08125 286.35938 36.596874Q286.14062 36.096874 286.14062 34.51875L286.14062 28.55L284.85938 28.55L284.85938 27.175L286.14062 27.175L286.14062 24.6125L287.89062 23.55L287.89062 27.175L289.65625 27.175L289.65625 28.55L287.89062 28.55L287.89062 34.6125Q287.89062 35.3625 287.98438 35.58125Q288.07812 35.784374 288.28125 35.925Q288.5 36.05 288.89062 36.05Q289.17188 36.05 289.65625 35.971874ZM298.92188 34.20625L300.73438 34.440624Q300.3125 36.01875 299.14062 36.909374Q297.98438 37.784374 296.17188 37.784374Q293.90625 37.784374 292.5625 36.39375Q291.23438 34.9875 291.23438 32.45625Q291.23438 29.83125 292.57812 28.39375Q293.92188 26.940624 296.07812 26.940624Q298.15625 26.940624 299.46875 28.3625Q300.79688 29.76875 300.79688 32.346874Q300.79688 32.503124 300.78125 32.815624L293.04688 32.815624Q293.14062 34.51875 294.01562 35.425Q294.89062 36.33125 296.1875 36.33125Q297.15625 36.33125 297.82812 35.83125Q298.51562 35.315624 298.92188 34.20625ZM293.14062 31.3625L298.9375 31.3625Q298.82812 30.065624 298.28125 29.409374Q297.4375 28.39375 296.09375 28.39375Q294.89062 28.39375 294.0625 29.20625Q293.23438 30.003124 293.14062 31.3625ZM302.5 38.409374L304.20312 38.659374Q304.3125 39.45625 304.79688 39.815624Q305.45312 40.3 306.59375 40.3Q307.8125 40.3 308.46875 39.815624Q309.14062 39.33125 309.375 38.45625Q309.51562 37.909374 309.5 36.190624Q308.34375 37.55 306.625 37.55Q304.48438 37.55 303.3125 36.003124Q302.14062 34.45625 302.14062 32.3Q302.14062 30.815624 302.67188 29.565624Q303.21875 28.315624 304.23438 27.628124Q305.26562 26.940624 306.64062 26.940624Q308.46875 26.940624 309.67188 28.425L309.67188 27.175L311.28125 27.175L311.28125 36.14375Q311.28125 38.565624 310.78125 39.565624Q310.29688 40.58125 309.21875 41.159374Q308.15625 41.753124 306.59375 41.753124Q304.75 41.753124 303.59375 40.925Q302.45312 40.096874 302.5 38.409374ZM303.95312 32.175Q303.95312 34.221874 304.76562 35.159374Q305.57812 36.096874 306.79688 36.096874Q308.0 36.096874 308.8125 35.159374Q309.64062 34.221874 309.64062 32.2375Q309.64062 30.33125 308.79688 29.3625Q307.95312 28.39375 306.76562 28.39375Q305.59375 28.39375 304.76562 29.346874Q303.95312 30.3 303.95312 32.175ZM313.17188 32.3625Q313.17188 29.4875 314.76562 28.096874Q316.10938 26.940624 318.03125 26.940624Q320.17188 26.940624 321.51562 28.346874Q322.875 29.753124 322.875 32.221874Q322.875 34.221874 322.28125 35.378124Q321.6875 36.51875 320.53125 37.159374Q319.39062 37.784374 318.03125 37.784374Q315.84375 37.784374 314.5 36.39375Q313.17188 34.9875 313.17188 32.3625ZM314.96875 32.3625Q314.96875 34.3625 315.82812 35.346874Q316.70312 36.33125 318.03125 36.33125Q319.34375 36.33125 320.20312 35.346874Q321.07812 34.346874 321.07812 32.3Q321.07812 30.378124 320.20312 29.39375Q319.32812 28.39375 318.03125 28.39375Q316.70312 28.39375 315.82812 29.39375Q314.96875 30.378124 314.96875 32.3625ZM324.79688 37.55L324.79688 27.175L326.375 27.175L326.375 28.753124Q326.98438 27.64375 327.5 27.3Q328.01562 26.940624 328.625 26.940624Q329.51562 26.940624 330.4375 27.503124L329.82812 29.14375Q329.1875 28.753124 328.54688 28.753124Q327.96875 28.753124 327.5 29.1125Q327.04688 29.45625 326.84375 30.065624Q326.5625 31.003124 326.5625 32.1125L326.5625 37.55L324.79688 37.55ZM331.73438 41.55L331.54688 39.89375Q332.125 40.05 332.54688 40.05Q333.14062 40.05 333.48438 39.846874Q333.84375 39.659374 334.0625 39.315624Q334.23438 39.05 334.60938 38.003124Q334.65625 37.846874 334.76562 37.565624L330.82812 27.175L332.71875 27.175L334.875 33.190624Q335.29688 34.33125 335.625 35.58125Q335.9375 34.378124 336.34375 33.221874L338.5625 27.175L340.32812 27.175L336.375 37.721874Q335.75 39.440624 335.39062 40.08125Q334.92188 40.95625 334.3125 41.346874Q333.71875 41.753124 332.875 41.753124Q332.35938 41.753124 331.73438 41.55Z" fill-rule="nonzero"/></svg>