<svg version="1.1" viewBox="0.0 0.0 600.0 371.0" fill="none" stroke="none" stroke-linecap="square" stroke-miterlimit="10" width="600" height="371" xmlns:xlink="http://www.w3.org/1999/xlink" xmlns="http://www.w3.org/2000/svg"><path fill="#ffffff" fill-opacity="0.0" d="M0 0L600.0 0L600.0 371.0L0 371.0L0 0Z" fill-rule="nonzero"/><path fill="#533990" d="M300.0 54.916668C339.45538 54.916668 377.29477 70.590256 405.1939 98.48942L326.2985 177.38486C319.3237 170.41006 309.86383 166.49167 300.0 166.49167Z" fill-rule="nonzero"/><path fill="#b5428d" d="M405.1939 98.48942C433.09308 126.38857 448.76666 164.22797 448.76666 203.68333L337.19168 203.68333C337.19168 193.81949 333.2733 184.35965 326.2985 177.38486Z" fill-rule="nonzero"/><path fill="#cf4366" d="M448.76666 203.68333C448.76666 285.8449 382.16156 352.45 300.0 352.45L300.0 240.875C320.5404 240.875 337.19168 224.22372 337.19168 203.68333Z" fill-rule="nonzero"/><path fill="#e5a345" d="M194.80608 98.48942C222.70525 70.590256 260.54462 54.916668 300.0 54.916668L300.0 166.49167C290.13617 166.49167 280.6763 170.41006 273.7015 177.38486Z" fill-rule="nonzero"/><path fill="#df8d43" d="M300.0 352.45C239.8295 352.45 185.58377 316.20416 162.55753 260.61386C139.53127 205.02357 152.25911 141.03638 194.80608 98.48942L273.7015 177.38486C263.0648 188.02159 259.8828 204.0184 265.63937 217.91597C271.39594 231.81354 284.95737 240.875 300.0 240.875Z" fill-rule="nonzero"/><path fill="#ffffff" d="M322.26086 111.06117L320.68274 111.06117L320.68274 100.98305Q320.1046 101.52992 319.18274 102.0768Q318.26086 102.60805 317.51086 102.8893L317.51086 101.35805Q318.839 100.73305 319.839 99.84242Q320.839 98.9518 321.24524 98.12367L322.26086 98.12367L322.26086 111.06117ZM334.62024 109.54555L334.62024 111.06117L326.1046 111.06117Q326.089 110.48305 326.2921 109.96742Q326.62024 109.09242 327.32336 108.24867Q328.0421 107.40492 329.4015 106.29555Q331.49524 104.5768 332.2296 103.5768Q332.9796 102.56117 332.9796 101.67055Q332.9796 100.71742 332.30774 100.0768Q331.63586 99.43617 330.55774 99.43617Q329.4015 99.43617 328.714 100.12367Q328.0421 100.81117 328.0265 102.0143L326.4015 101.84242Q326.57336 100.02992 327.6515 99.0768Q328.74524 98.12367 330.589 98.12367Q332.43274 98.12367 333.51086 99.15492Q334.6046 100.18617 334.6046 101.7018Q334.6046 102.46742 334.2765 103.21742Q333.964 103.96742 333.2296 104.79555Q332.49524 105.62367 330.7921 107.06117Q329.37024 108.2643 328.964 108.68617Q328.55774 109.10805 328.30774 109.54555L334.62024 109.54555ZM337.19836 111.06117L337.19836 109.2643L338.99524 109.2643L338.99524 111.06117L337.19836 111.06117ZM341.30774 107.68617L342.964 107.54555Q343.1515 108.7643 343.82336 109.37367Q344.49524 109.98305 345.44836 109.98305Q346.589 109.98305 347.37024 109.12367Q348.1671 108.2643 348.1671 106.8268Q348.1671 105.48305 347.4015 104.7018Q346.6515 103.92055 345.4171 103.92055Q344.6515 103.92055 344.0265 104.2643Q343.4171 104.60805 343.07336 105.17055L341.589 104.96742L342.839 98.35805L349.24524 98.35805L349.24524 99.85805L344.1046 99.85805L343.4015 103.3268Q344.57336 102.5143 345.839 102.5143Q347.5265 102.5143 348.68274 103.68617Q349.8546 104.85805 349.8546 106.68617Q349.8546 108.43617 348.82336 109.71742Q347.589 111.27992 345.44836 111.27992Q343.68274 111.27992 342.57336 110.29555Q341.464 109.31117 341.30774 107.68617ZM351.6046 101.2643Q351.6046 99.8893 352.2921 98.92055Q352.99524 97.9518 354.30774 97.9518Q355.5265 97.9518 356.32336 98.8268Q357.12024 99.68617 357.12024 101.37367Q357.12024 102.99867 356.30774 103.8893Q355.51086 104.7643 354.32336 104.7643Q353.1671 104.7643 352.38586 103.90492Q351.6046 103.02992 351.6046 101.2643ZM354.3546 99.04555Q353.76086 99.04555 353.37024 99.56117Q352.9796 100.06117 352.9796 101.42055Q352.9796 102.67055 353.37024 103.17055Q353.7765 103.67055 354.3546 103.67055Q354.94836 103.67055 355.339 103.17055Q355.7296 102.65492 355.7296 101.31117Q355.7296 100.06117 355.339 99.56117Q354.94836 99.04555 354.3546 99.04555ZM354.37024 111.52992L361.4171 97.9518L362.69836 97.9518L355.6671 111.52992L354.37024 111.52992ZM359.93274 108.02992Q359.93274 106.65492 360.62024 105.68617Q361.32336 104.71742 362.6515 104.71742Q363.87024 104.71742 364.6515 105.59242Q365.44836 106.4518 365.44836 108.1393Q365.44836 109.7643 364.6515 110.65492Q363.8546 111.52992 362.6671 111.52992Q361.49524 111.52992 360.714 110.65492Q359.93274 109.77992 359.93274 108.02992ZM362.69836 105.81117Q362.1046 105.81117 361.714 106.3268Q361.32336 106.8268 361.32336 108.2018Q361.32336 109.42055 361.714 109.93617Q362.1046 110.4518 362.68274 110.4518Q363.2921 110.4518 363.68274 109.93617Q364.07336 109.42055 364.07336 108.0768Q364.07336 106.8268 363.68274 106.3268Q363.2921 105.81117 362.69836 105.81117Z" fill-rule="nonzero"/><path fill="#ffffff" d="M375.0114 171.32668L373.4333 171.32668L373.4333 161.24855Q372.85516 161.79543 371.9333 162.3423Q371.0114 162.87355 370.2614 163.1548L370.2614 161.62355Q371.58954 160.99855 372.58954 160.10793Q373.58954 159.2173 373.9958 158.38918L375.0114 158.38918L375.0114 171.32668ZM387.3708 169.81105L387.3708 171.32668L378.85516 171.32668Q378.83954 170.74855 379.04266 170.23293Q379.3708 169.35793 380.0739 168.51418Q380.79266 167.67043 382.15204 166.56105Q384.2458 164.8423 384.98016 163.8423Q385.73016 162.82668 385.73016 161.93605Q385.73016 160.98293 385.0583 160.3423Q384.3864 159.70168 383.3083 159.70168Q382.15204 159.70168 381.46454 160.38918Q380.79266 161.07668 380.77704 162.2798L379.15204 162.10793Q379.3239 160.29543 380.40204 159.3423Q381.4958 158.38918 383.33954 158.38918Q385.1833 158.38918 386.2614 159.42043Q387.35516 160.45168 387.35516 161.9673Q387.35516 162.73293 387.02704 163.48293Q386.71454 164.23293 385.98016 165.06105Q385.2458 165.88918 383.54266 167.32668Q382.1208 168.5298 381.71454 168.95168Q381.3083 169.37355 381.0583 169.81105L387.3708 169.81105ZM389.9489 171.32668L389.9489 169.5298L391.7458 169.5298L391.7458 171.32668L389.9489 171.32668ZM394.0583 167.95168L395.71454 167.81105Q395.90204 169.0298 396.5739 169.63918Q397.2458 170.24855 398.1989 170.24855Q399.33954 170.24855 400.1208 169.38918Q400.91766 168.5298 400.91766 167.0923Q400.91766 165.74855 400.15204 164.9673Q399.40204 164.18605 398.16766 164.18605Q397.40204 164.18605 396.77704 164.5298Q396.16766 164.87355 395.8239 165.43605L394.33954 165.23293L395.58954 158.62355L401.9958 158.62355L401.9958 160.12355L396.85516 160.12355L396.15204 163.5923Q397.3239 162.7798 398.58954 162.7798Q400.27704 162.7798 401.4333 163.95168Q402.60516 165.12355 402.60516 166.95168Q402.60516 168.70168 401.5739 169.98293Q400.33954 171.54543 398.1989 171.54543Q396.4333 171.54543 395.3239 170.56105Q394.21454 169.57668 394.0583 167.95168ZM404.35516 161.5298Q404.35516 160.1548 405.04266 159.18605Q405.7458 158.2173 407.0583 158.2173Q408.27704 158.2173 409.0739 159.0923Q409.8708 159.95168 409.8708 161.63918Q409.8708 163.26418 409.0583 164.1548Q408.2614 165.0298 407.0739 165.0298Q405.91766 165.0298 405.1364 164.17043Q404.35516 163.29543 404.35516 161.5298ZM407.10516 159.31105Q406.5114 159.31105 406.1208 159.82668Q405.73016 160.32668 405.73016 161.68605Q405.73016 162.93605 406.1208 163.43605Q406.52704 163.93605 407.10516 163.93605Q407.6989 163.93605 408.08954 163.43605Q408.48016 162.92043 408.48016 161.57668Q408.48016 160.32668 408.08954 159.82668Q407.6989 159.31105 407.10516 159.31105ZM407.1208 171.79543L414.16766 158.2173L415.4489 158.2173L408.41766 171.79543L407.1208 171.79543ZM412.6833 168.29543Q412.6833 166.92043 413.3708 165.95168Q414.0739 164.98293 415.40204 164.98293Q416.6208 164.98293 417.40204 165.85793Q418.1989 166.7173 418.1989 168.4048Q418.1989 170.0298 417.40204 170.92043Q416.60516 171.79543 415.41766 171.79543Q414.2458 171.79543 413.46454 170.92043Q412.6833 170.04543 412.6833 168.29543ZM415.4489 166.07668Q414.85516 166.07668 414.46454 166.5923Q414.0739 167.0923 414.0739 168.4673Q414.0739 169.68605 414.46454 170.20168Q414.85516 170.7173 415.4333 170.7173Q416.04266 170.7173 416.4333 170.20168Q416.8239 169.68605 416.8239 168.3423Q416.8239 167.0923 416.4333 166.5923Q416.04266 166.07668 415.4489 166.07668Z" fill-rule="nonzero"/><path fill="#ffffff" d="M355.61206 280.71725L355.61206 282.23288L347.09644 282.23288Q347.0808 281.65475 347.28394 281.13913Q347.61206 280.26413 348.3152 279.42038Q349.03394 278.57663 350.3933 277.46725Q352.48706 275.7485 353.22144 274.7485Q353.97144 273.73288 353.97144 272.84225Q353.97144 271.88913 353.29956 271.2485Q352.6277 270.60788 351.54956 270.60788Q350.3933 270.60788 349.7058 271.29538Q349.03394 271.98288 349.0183 273.186L347.3933 273.01413Q347.5652 271.20163 348.6433 270.2485Q349.73706 269.29538 351.5808 269.29538Q353.42456 269.29538 354.5027 270.32663Q355.59644 271.35788 355.59644 272.8735Q355.59644 273.63913 355.2683 274.38913Q354.9558 275.13913 354.22144 275.96725Q353.48706 276.79538 351.78394 278.23288Q350.36206 279.436 349.9558 279.85788Q349.54956 280.27975 349.29956 280.71725L355.61206 280.71725ZM357.29956 278.85788L358.9558 278.71725Q359.1433 279.936 359.8152 280.54538Q360.48706 281.15475 361.4402 281.15475Q362.5808 281.15475 363.36206 280.29538Q364.15894 279.436 364.15894 277.9985Q364.15894 276.65475 363.3933 275.8735Q362.6433 275.09225 361.40894 275.09225Q360.6433 275.09225 360.0183 275.436Q359.40894 275.77975 359.0652 276.34225L357.5808 276.13913L358.8308 269.52975L365.23706 269.52975L365.23706 271.02975L360.09644 271.02975L359.3933 274.4985Q360.5652 273.686 361.8308 273.686Q363.5183 273.686 364.67456 274.85788Q365.84644 276.02975 365.84644 277.85788Q365.84644 279.60788 364.8152 280.88913Q363.5808 282.45163 361.4402 282.45163Q359.67456 282.45163 358.5652 281.46725Q357.4558 280.48288 357.29956 278.85788ZM368.1902 282.23288L368.1902 280.436L369.98706 280.436L369.98706 282.23288L368.1902 282.23288ZM372.29956 275.8735Q372.29956 273.59225 372.7683 272.20163Q373.23706 270.811 374.15894 270.061Q375.09644 269.29538 376.5027 269.29538Q377.53394 269.29538 378.3152 269.71725Q379.09644 270.1235 379.59644 270.92038Q380.11206 271.70163 380.40894 272.84225Q380.7058 273.96725 380.7058 275.8735Q380.7058 278.13913 380.23706 279.54538Q379.7683 280.936 378.8308 281.70163Q377.90894 282.45163 376.5027 282.45163Q374.6277 282.45163 373.5652 281.1235Q372.29956 279.51413 372.29956 275.8735ZM373.92456 275.8735Q373.92456 279.04538 374.65894 280.10788Q375.40894 281.15475 376.5027 281.15475Q377.5808 281.15475 378.3308 280.10788Q379.0808 279.04538 379.0808 275.8735Q379.0808 272.70163 378.3308 271.65475Q377.5808 270.60788 376.48706 270.60788Q375.3933 270.60788 374.73706 271.52975Q373.92456 272.70163 373.92456 275.8735ZM382.59644 272.436Q382.59644 271.061 383.28394 270.09225Q383.98706 269.1235 385.29956 269.1235Q386.5183 269.1235 387.3152 269.9985Q388.11206 270.85788 388.11206 272.54538Q388.11206 274.17038 387.29956 275.061Q386.5027 275.936 385.3152 275.936Q384.15894 275.936 383.3777 275.07663Q382.59644 274.20163 382.59644 272.436ZM385.34644 270.21725Q384.7527 270.21725 384.36206 270.73288Q383.97144 271.23288 383.97144 272.59225Q383.97144 273.84225 384.36206 274.34225Q384.7683 274.84225 385.34644 274.84225Q385.9402 274.84225 386.3308 274.34225Q386.72144 273.82663 386.72144 272.48288Q386.72144 271.23288 386.3308 270.73288Q385.9402 270.21725 385.34644 270.21725ZM385.36206 282.70163L392.40894 269.1235L393.6902 269.1235L386.65894 282.70163L385.36206 282.70163ZM390.92456 279.20163Q390.92456 277.82663 391.61206 276.85788Q392.3152 275.88913 393.6433 275.88913Q394.86206 275.88913 395.6433 276.76413Q396.4402 277.6235 396.4402 279.311Q396.4402 280.936 395.6433 281.82663Q394.84644 282.70163 393.65894 282.70163Q392.48706 282.70163 391.7058 281.82663Q390.92456 280.95163 390.92456 279.20163ZM393.6902 276.98288Q393.09644 276.98288 392.7058 277.4985Q392.3152 277.9985 392.3152 279.3735Q392.3152 280.59225 392.7058 281.10788Q393.09644 281.6235 393.67456 281.6235Q394.28394 281.6235 394.67456 281.10788Q395.0652 280.59225 395.0652 279.2485Q395.0652 277.9985 394.67456 277.4985Q394.28394 276.98288 393.6902 276.98288Z" fill-rule="nonzero"/><path fill="#ffffff" d="M181.44171 245.63374L183.03546 245.43062Q183.30109 246.77437 183.95734 247.36812Q184.61359 247.96187 185.55109 247.96187Q186.67609 247.96187 187.44171 247.19624Q188.20734 246.415 188.20734 245.27437Q188.20734 244.18062 187.48859 243.4775Q186.78546 242.75874 185.69171 242.75874Q185.23859 242.75874 184.56671 242.94624L184.73859 241.55562Q184.89484 241.57124 185.00421 241.57124Q186.00421 241.57124 186.81671 241.04Q187.62921 240.50874 187.62921 239.415Q187.62921 238.54 187.03546 237.9775Q186.44171 237.39937 185.51984 237.39937Q184.59796 237.39937 183.97296 237.9775Q183.36359 238.55562 183.19171 239.7275L181.61359 239.44624Q181.89484 237.8525 182.92609 236.9775Q183.95734 236.1025 185.48859 236.1025Q186.53546 236.1025 187.42609 236.55562Q188.31671 237.00874 188.78546 237.79Q189.25421 238.57124 189.25421 239.44624Q189.25421 240.29 188.80109 240.9775Q188.36359 241.64937 187.47296 242.05562Q188.61359 242.32124 189.23859 243.165Q189.87921 243.99312 189.87921 245.2275Q189.87921 246.915 188.64484 248.1025Q187.42609 249.27437 185.55109 249.27437Q183.84796 249.27437 182.72296 248.25874Q181.61359 247.24312 181.44171 245.63374ZM191.55109 237.83687L191.55109 236.32124L199.87921 236.32124L199.87921 237.55562Q198.66046 238.86812 197.44171 241.04Q196.23859 243.19624 195.58234 245.49312Q195.09796 247.11812 194.97296 249.04L193.34796 249.04Q193.37921 247.52437 193.94171 245.36812Q194.51984 243.21187 195.58234 241.21187Q196.64484 239.21187 197.84796 237.83687L191.55109 237.83687ZM202.33234 249.04L202.33234 247.24312L204.12921 247.24312L204.12921 249.04L202.33234 249.04ZM206.44171 245.665L208.09796 245.52437Q208.28546 246.74312 208.95734 247.3525Q209.62921 247.96187 210.58234 247.96187Q211.72296 247.96187 212.50421 247.1025Q213.30109 246.24312 213.30109 244.80562Q213.30109 243.46187 212.53546 242.68062Q211.78546 241.89937 210.55109 241.89937Q209.78546 241.89937 209.16046 242.24312Q208.55109 242.58687 208.20734 243.14937L206.72296 242.94624L207.97296 236.33687L214.37921 236.33687L214.37921 237.83687L209.23859 237.83687L208.53546 241.30562Q209.70734 240.49312 210.97296 240.49312Q212.66046 240.49312 213.81671 241.665Q214.98859 242.83687 214.98859 244.665Q214.98859 246.415 213.95734 247.69624Q212.72296 249.25874 210.58234 249.25874Q208.81671 249.25874 207.70734 248.27437Q206.59796 247.29 206.44171 245.665ZM216.73859 239.24312Q216.73859 237.86812 217.42609 236.89937Q218.12921 235.93062 219.44171 235.93062Q220.66046 235.93062 221.45734 236.80562Q222.25421 237.665 222.25421 239.3525Q222.25421 240.9775 221.44171 241.86812Q220.64484 242.74312 219.45734 242.74312Q218.30109 242.74312 217.51984 241.88374Q216.73859 241.00874 216.73859 239.24312ZM219.48859 237.02437Q218.89484 237.02437 218.50421 237.54Q218.11359 238.04 218.11359 239.39937Q218.11359 240.64937 218.50421 241.14937Q218.91046 241.64937 219.48859 241.64937Q220.08234 241.64937 220.47296 241.14937Q220.86359 240.63374 220.86359 239.29Q220.86359 238.04 220.47296 237.54Q220.08234 237.02437 219.48859 237.02437ZM219.50421 249.50874L226.55109 235.93062L227.83234 235.93062L220.80109 249.50874L219.50421 249.50874ZM225.06671 246.00874Q225.06671 244.63374 225.75421 243.665Q226.45734 242.69624 227.78546 242.69624Q229.00421 242.69624 229.78546 243.57124Q230.58234 244.43062 230.58234 246.11812Q230.58234 247.74312 229.78546 248.63374Q228.98859 249.50874 227.80109 249.50874Q226.62921 249.50874 225.84796 248.63374Q225.06671 247.75874 225.06671 246.00874ZM227.83234 243.79Q227.23859 243.79 226.84796 244.30562Q226.45734 244.80562 226.45734 246.18062Q226.45734 247.39937 226.84796 247.915Q227.23859 248.43062 227.81671 248.43062Q228.42609 248.43062 228.81671 247.915Q229.20734 247.39937 229.20734 246.05562Q229.20734 244.80562 228.81671 244.30562Q228.42609 243.79 227.83234 243.79Z" fill-rule="nonzero"/><path fill="#ffffff" d="M240.14539 111.06117L238.56726 111.06117L238.56726 100.98305Q237.98914 101.52992 237.06726 102.0768Q236.14539 102.60805 235.39539 102.8893L235.39539 101.35805Q236.72351 100.73305 237.72351 99.84242Q238.72351 98.9518 239.12976 98.12367L240.14539 98.12367L240.14539 111.06117ZM252.50476 109.54555L252.50476 111.06117L243.98914 111.06117Q243.97351 110.48305 244.17664 109.96742Q244.50476 109.09242 245.20789 108.24867Q245.92664 107.40492 247.28601 106.29555Q249.37976 104.5768 250.11414 103.5768Q250.86414 102.56117 250.86414 101.67055Q250.86414 100.71742 250.19226 100.0768Q249.52039 99.43617 248.44226 99.43617Q247.28601 99.43617 246.59851 100.12367Q245.92664 100.81117 245.91101 102.0143L244.28601 101.84242Q244.45789 100.02992 245.53601 99.0768Q246.62976 98.12367 248.47351 98.12367Q250.31726 98.12367 251.39539 99.15492Q252.48914 100.18617 252.48914 101.7018Q252.48914 102.46742 252.16101 103.21742Q251.84851 103.96742 251.11414 104.79555Q250.37976 105.62367 248.67664 107.06117Q247.25476 108.2643 246.84851 108.68617Q246.44226 109.10805 246.19226 109.54555L252.50476 109.54555ZM255.08289 111.06117L255.08289 109.2643L256.87976 109.2643L256.87976 111.06117L255.08289 111.06117ZM259.19226 107.68617L260.8485 107.54555Q261.036 108.7643 261.7079 109.37367Q262.37976 109.98305 263.3329 109.98305Q264.4735 109.98305 265.25476 109.12367Q266.05164 108.2643 266.05164 106.8268Q266.05164 105.48305 265.286 104.7018Q264.536 103.92055 263.30164 103.92055Q262.536 103.92055 261.911 104.2643Q261.30164 104.60805 260.9579 105.17055L259.4735 104.96742L260.7235 98.35805L267.12976 98.35805L267.12976 99.85805L261.98914 99.85805L261.286 103.3268Q262.4579 102.5143 263.7235 102.5143Q265.411 102.5143 266.56726 103.68617Q267.73914 104.85805 267.73914 106.68617Q267.73914 108.43617 266.7079 109.71742Q265.4735 111.27992 263.3329 111.27992Q261.56726 111.27992 260.4579 110.29555Q259.3485 109.31117 259.19226 107.68617ZM269.48914 101.2643Q269.48914 99.8893 270.17664 98.92055Q270.87976 97.9518 272.19226 97.9518Q273.411 97.9518 274.2079 98.8268Q275.00476 99.68617 275.00476 101.37367Q275.00476 102.99867 274.19226 103.8893Q273.3954 104.7643 272.2079 104.7643Q271.05164 104.7643 270.2704 103.90492Q269.48914 103.02992 269.48914 101.2643ZM272.23914 99.04555Q271.6454 99.04555 271.25476 99.56117Q270.86414 100.06117 270.86414 101.42055Q270.86414 102.67055 271.25476 103.17055Q271.661 103.67055 272.23914 103.67055Q272.8329 103.67055 273.2235 103.17055Q273.61414 102.65492 273.61414 101.31117Q273.61414 100.06117 273.2235 99.56117Q272.8329 99.04555 272.23914 99.04555ZM272.25476 111.52992L279.30164 97.9518L280.5829 97.9518L273.55164 111.52992L272.25476 111.52992ZM277.81726 108.02992Q277.81726 106.65492 278.50476 105.68617Q279.2079 104.71742 280.536 104.71742Q281.75476 104.71742 282.536 105.59242Q283.3329 106.4518 283.3329 108.1393Q283.3329 109.7643 282.536 110.65492Q281.73914 111.52992 280.55164 111.52992Q279.37976 111.52992 278.5985 110.65492Q277.81726 109.77992 277.81726 108.02992ZM280.5829 105.81117Q279.98914 105.81117 279.5985 106.3268Q279.2079 106.8268 279.2079 108.2018Q279.2079 109.42055 279.5985 109.93617Q279.98914 110.4518 280.56726 110.4518Q281.17664 110.4518 281.56726 109.93617Q281.9579 109.42055 281.9579 108.0768Q281.9579 106.8268 281.56726 106.3268Q281.17664 105.81117 280.5829 105.81117Z" fill-rule="nonzero"/><path stroke="#ffffff" stroke-width="1.0" stroke-linejoin="round" stroke-linecap="round" d="M326.2985 177.38486C319.3237 170.41006 309.86383 166.49167 300.0 166.49167L300.0 54.916668C339.45538 54.916668 377.29477 70.590256 405.1939 98.48942" fill-rule="nonzero"/><path stroke="#ffffff" stroke-width="1.0" stroke-linejoin="round" stroke-linecap="round" d="M337.19168 203.68333C337.19168 193.81949 333.2733 184.35965 326.2985 177.38486L405.1939 98.48942C433.09308 126.38857 448.76666 164.22797 448.76666 203.68333" fill-rule="nonzero"/><path stroke="#ffffff" stroke-width="1.0" stroke-linejoin="round" stroke-linecap="round" d="M300.0 240.875C320.5404 240.875 337.19168 224.22372 337.19168 203.68333L448.76666 203.68333C448.76666 285.8449 382.16156 352.45 300.0 352.45" fill-rule="nonzero"/><path stroke="#ffffff" stroke-width="1.0" stroke-linejoin="round" stroke-linecap="round" d="M273.7015 177.38486C263.0648 188.02159 259.8828 204.0184 265.63937 217.91597C271.39594 231.81354 284.95737 240.875 300.0 240.875L300.0 352.45C239.8295 352.45 185.58377 316.20416 162.55753 260.61386C139.53127 205.02357 152.25911 141.03638 194.80608 98.48942" fill-rule="nonzero"/><path stroke="#ffffff" stroke-width="1.0" stroke-linejoin="round" stroke-linecap="round" d="M300.0 166.49167C290.13617 166.49167 280.6763 170.41006 273.7015 177.38486L194.80608 98.48942C222.70525 70.590256 260.54462 54.916668 300.0 54.916668" fill-rule="nonzero"/><path fill="#efefef" d="M27.3 58.46354L28.815624 58.46354L28.815624 65.072914Q28.815624 66.80729 28.425 67.822914Q28.034374 68.83854 27.01875 69.479164Q26.003124 70.11979 24.346874 70.11979Q22.7375 70.11979 21.70625 69.55729Q20.690624 68.99479 20.253124 67.947914Q19.815624 66.90104 19.815624 65.072914L19.815624 58.46354L21.33125 58.46354L21.33125 65.072914Q21.33125 66.55729 21.596874 67.27604Q21.878124 67.979164 22.55 68.36979Q23.2375 68.74479 24.20625 68.74479Q25.878124 68.74479 26.58125 67.99479Q27.3 67.229164 27.3 65.072914L27.3 58.46354ZM31.596874 69.916664L31.596874 61.61979L32.8625 61.61979L32.8625 62.86979Q33.346874 61.99479 33.753124 61.71354Q34.159374 61.43229 34.659374 61.43229Q35.3625 61.43229 36.096874 61.885414L35.6125 63.18229Q35.096874 62.885414 34.58125 62.885414Q34.128124 62.885414 33.753124 63.166664Q33.39375 63.43229 33.2375 63.93229Q33.003124 64.68229 33.003124 65.572914L33.003124 69.916664L31.596874 69.916664ZM37.909374 69.916664L36.596874 69.916664L36.596874 58.46354L38.003124 58.46354L38.003124 62.541664Q38.89375 61.43229 40.284374 61.43229Q41.05 61.43229 41.721874 61.74479Q42.409374 62.041664 42.846874 62.604164Q43.3 63.166664 43.55 63.96354Q43.8 64.74479 43.8 65.635414Q43.8 67.77604 42.7375 68.947914Q41.690624 70.104164 40.20625 70.104164Q38.7375 70.104164 37.909374 68.86979L37.909374 69.916664ZM37.89375 65.697914Q37.89375 67.197914 38.3 67.854164Q38.95625 68.947914 40.096874 68.947914Q41.01875 68.947914 41.690624 68.15104Q42.3625 67.33854 42.3625 65.760414Q42.3625 64.135414 41.70625 63.36979Q41.065624 62.58854 40.159374 62.58854Q39.2375 62.58854 38.565624 63.385414Q37.89375 64.18229 37.89375 65.697914ZM51.01875 68.885414Q50.2375 69.55729 49.51875 69.83854Q48.8 70.104164 47.971874 70.104164Q46.596874 70.104164 45.8625 69.43229Q45.128124 68.760414 45.128124 67.729164Q45.128124 67.11979 45.409374 66.61979Q45.690624 66.104164 46.128124 65.80729Q46.58125 65.49479 47.14375 65.33854Q47.565624 65.229164 48.39375 65.135414Q50.096874 64.93229 50.909374 64.65104Q50.909374 64.354164 50.909374 64.27604Q50.909374 63.416664 50.51875 63.072914Q49.971874 62.58854 48.909374 62.58854Q47.925 62.58854 47.440624 62.947914Q46.971874 63.291664 46.753124 64.166664L45.378124 63.979164Q45.565624 63.104164 45.9875 62.55729Q46.425 62.010414 47.2375 61.729164Q48.05 61.43229 49.1125 61.43229Q50.175 61.43229 50.83125 61.68229Q51.503124 61.93229 51.815624 62.30729Q52.128124 62.68229 52.253124 63.260414Q52.33125 63.61979 52.33125 64.55729L52.33125 66.43229Q52.33125 68.40104 52.409374 68.916664Q52.503124 69.43229 52.76875 69.916664L51.3 69.916664Q51.08125 69.479164 51.01875 68.885414ZM50.909374 65.74479Q50.14375 66.05729 48.6125 66.27604Q47.7375 66.40104 47.378124 66.55729Q47.01875 66.71354 46.815624 67.02604Q46.628124 67.322914 46.628124 67.68229Q46.628124 68.24479 47.05 68.61979Q47.4875 68.99479 48.3 68.99479Q49.1125 68.99479 49.7375 68.65104Q50.378124 68.291664 50.675 67.666664Q50.909374 67.197914 50.909374 66.260414L50.909374 65.74479ZM54.6125 69.916664L54.6125 61.61979L55.878124 61.61979L55.878124 62.791664Q56.784374 61.43229 58.51875 61.43229Q59.26875 61.43229 59.89375 61.697914Q60.51875 61.96354 60.83125 62.40104Q61.14375 62.83854 61.26875 63.447914Q61.346874 63.83854 61.346874 64.80729L61.346874 69.916664L59.940624 69.916664L59.940624 64.86979Q59.940624 64.010414 59.76875 63.58854Q59.6125 63.15104 59.190624 62.90104Q58.784374 62.65104 58.221874 62.65104Q57.315624 62.65104 56.659374 63.229164Q56.01875 63.791664 56.01875 65.385414L56.01875 69.916664L54.6125 69.916664ZM63.05 67.43229L64.44063 67.21354Q64.55 68.05729 65.08125 68.510414Q65.62813 68.947914 66.58125 68.947914Q67.55 68.947914 68.01875 68.55729Q68.4875 68.15104 68.4875 67.61979Q68.4875 67.15104 68.08125 66.86979Q67.78438 66.68229 66.64375 66.40104Q65.09688 66.010414 64.4875 65.729164Q63.89375 65.43229 63.58125 64.93229Q63.284374 64.43229 63.284374 63.822914Q63.284374 63.260414 63.534374 62.791664Q63.784374 62.322914 64.22188 62.010414Q64.55 61.760414 65.1125 61.604164Q65.69063 61.43229 66.33125 61.43229Q67.31563 61.43229 68.05 61.71354Q68.78438 61.99479 69.12813 62.479164Q69.4875 62.947914 69.62813 63.760414L68.25313 63.947914Q68.15938 63.30729 67.70625 62.947914Q67.25313 62.58854 66.44063 62.58854Q65.47188 62.58854 65.05 62.916664Q64.64375 63.229164 64.64375 63.65104Q64.64375 63.93229 64.81563 64.15104Q64.9875 64.36979 65.34688 64.52604Q65.56563 64.604164 66.59688 64.885414Q68.08125 65.27604 68.675 65.541664Q69.26875 65.791664 69.59688 66.27604Q69.94063 66.760414 69.94063 67.479164Q69.94063 68.18229 69.51875 68.80729Q69.1125 69.416664 68.33125 69.760414Q67.56563 70.104164 66.59688 70.104164Q64.97188 70.104164 64.12813 69.43229Q63.284374 68.760414 63.05 67.43229ZM77.01875 66.86979L78.40938 67.05729Q78.175 68.479164 77.2375 69.291664Q76.31563 70.104164 74.95625 70.104164Q73.25313 70.104164 72.20625 68.99479Q71.175 67.86979 71.175 65.791664Q71.175 64.447914 71.6125 63.447914Q72.06563 62.43229 72.97188 61.93229Q73.89375 61.43229 74.95625 61.43229Q76.31563 61.43229 77.175 62.11979Q78.03438 62.791664 78.26875 64.05729L76.90938 64.260414Q76.70625 63.43229 76.20625 63.010414Q75.72188 62.58854 75.01875 62.58854Q73.95625 62.58854 73.28438 63.354164Q72.62813 64.104164 72.62813 65.760414Q72.62813 67.43229 73.26875 68.197914Q73.90938 68.947914 74.94063 68.947914Q75.76875 68.947914 76.31563 68.447914Q76.87813 67.93229 77.01875 66.86979ZM85.01875 68.885414Q84.2375 69.55729 83.51875 69.83854Q82.8 70.104164 81.97188 70.104164Q80.59688 70.104164 79.8625 69.43229Q79.12813 68.760414 79.12813 67.729164Q79.12813 67.11979 79.40938 66.61979Q79.69063 66.104164 80.12813 65.80729Q80.58125 65.49479 81.14375 65.33854Q81.56563 65.229164 82.39375 65.135414Q84.09688 64.93229 84.90938 64.65104Q84.90938 64.354164 84.90938 64.27604Q84.90938 63.416664 84.51875 63.072914Q83.97188 62.58854 82.90938 62.58854Q81.925 62.58854 81.44063 62.947914Q80.97188 63.291664 80.75313 64.166664L79.37813 63.979164Q79.56563 63.104164 79.9875 62.55729Q80.425 62.010414 81.2375 61.729164Q82.05 61.43229 83.1125 61.43229Q84.175 61.43229 84.83125 61.68229Q85.50313 61.93229 85.81563 62.30729Q86.12813 62.68229 86.25313 63.260414Q86.33125 63.61979 86.33125 64.55729L86.33125 66.43229Q86.33125 68.40104 86.40938 68.916664Q86.50313 69.43229 86.76875 69.916664L85.3 69.916664Q85.08125 69.479164 85.01875 68.885414ZM84.90938 65.74479Q84.14375 66.05729 82.6125 66.27604Q81.7375 66.40104 81.37813 66.55729Q81.01875 66.71354 80.81563 67.02604Q80.62813 67.322914 80.62813 67.68229Q80.62813 68.24479 81.05 68.61979Q81.4875 68.99479 82.3 68.99479Q83.1125 68.99479 83.7375 68.65104Q84.37813 68.291664 84.675 67.666664Q84.90938 67.197914 84.90938 66.260414L84.90938 65.74479ZM88.6125 73.104164L88.6125 61.61979L89.89375 61.61979L89.89375 62.697914Q90.34688 62.05729 90.90938 61.74479Q91.4875 61.43229 92.3 61.43229Q93.3625 61.43229 94.175 61.979164Q94.9875 62.52604 95.39375 63.52604Q95.81563 64.510414 95.81563 65.697914Q95.81563 66.979164 95.34688 67.99479Q94.89375 69.010414 94.01875 69.55729Q93.15938 70.104164 92.19063 70.104164Q91.4875 70.104164 90.925 69.80729Q90.37813 69.510414 90.01875 69.05729L90.01875 73.104164L88.6125 73.104164ZM89.87813 65.80729Q89.87813 67.416664 90.51875 68.18229Q91.175 68.947914 92.09688 68.947914Q93.03438 68.947914 93.70625 68.15104Q94.37813 67.354164 94.37813 65.697914Q94.37813 64.104164 93.72188 63.322914Q93.06563 62.52604 92.15938 62.52604Q91.26875 62.52604 90.56563 63.36979Q89.87813 64.21354 89.87813 65.80729ZM103.28438 67.24479L104.7375 67.416664Q104.39375 68.697914 103.45625 69.40104Q102.53438 70.104164 101.09688 70.104164Q99.26875 70.104164 98.20625 68.979164Q97.14375 67.854164 97.14375 65.83854Q97.14375 63.74479 98.22188 62.58854Q99.3 61.43229 101.01875 61.43229Q102.675 61.43229 103.72188 62.572914Q104.78438 63.697914 104.78438 65.74479Q104.78438 65.86979 104.78438 66.11979L98.59688 66.11979Q98.675 67.49479 99.3625 68.229164Q100.06563 68.947914 101.09688 68.947914Q101.87813 68.947914 102.425 68.541664Q102.97188 68.135414 103.28438 67.24479ZM98.675 64.96354L103.3 64.96354Q103.20625 63.916664 102.76875 63.40104Q102.09688 62.58854 101.03438 62.58854Q100.06563 62.58854 99.39375 63.24479Q98.7375 63.885414 98.675 64.96354Z" fill-rule="nonzero"/><path fill="#9e9e9e" d="M24.51875 91.916664L23.1125 91.916664L23.1125 82.947914Q22.596874 83.43229 21.76875 83.916664Q20.95625 84.40104 20.3 84.65104L20.3 83.291664Q21.471874 82.729164 22.346874 81.947914Q23.2375 81.15104 23.6125 80.416664L24.51875 80.416664L24.51875 91.916664ZM35.6125 90.55729L35.6125 91.916664L28.034374 91.916664Q28.01875 91.40104 28.20625 90.93229Q28.4875 90.166664 29.128124 89.416664Q29.76875 88.666664 30.971874 87.68229Q32.83125 86.15104 33.4875 85.260414Q34.14375 84.354164 34.14375 83.55729Q34.14375 82.729164 33.55 82.15104Q32.95625 81.572914 31.9875 81.572914Q30.971874 81.572914 30.3625 82.18229Q29.753124 82.791664 29.753124 83.86979L28.3 83.729164Q28.45625 82.104164 29.425 81.260414Q30.39375 80.416664 32.01875 80.416664Q33.675 80.416664 34.628124 81.33854Q35.596874 82.24479 35.596874 83.58854Q35.596874 84.27604 35.315624 84.947914Q35.034374 85.604164 34.378124 86.33854Q33.721874 87.072914 32.20625 88.354164Q30.940624 89.416664 30.58125 89.80729Q30.221874 90.18229 29.9875 90.55729L35.6125 90.55729ZM38.003124 91.916664L38.003124 90.30729L39.6125 90.30729L39.6125 91.916664L38.003124 91.916664ZM41.221874 88.916664L42.690624 88.791664Q42.8625 89.86979 43.45625 90.416664Q44.05 90.947914 44.89375 90.947914Q45.909374 90.947914 46.6125 90.18229Q47.315624 89.416664 47.315624 88.15104Q47.315624 86.947914 46.64375 86.260414Q45.971874 85.55729 44.878124 85.55729Q44.190624 85.55729 43.64375 85.86979Q43.096874 86.18229 42.784374 86.666664L41.471874 86.49479L42.58125 80.61979L48.26875 80.61979L48.26875 81.96354L43.70625 81.96354L43.08125 85.041664Q44.1125 84.322914 45.253124 84.322914Q46.753124 84.322914 47.784374 85.36979Q48.815624 86.40104 48.815624 88.02604Q48.815624 89.58854 47.909374 90.71354Q46.8 92.11979 44.89375 92.11979Q43.33125 92.11979 42.346874 91.24479Q41.3625 90.354164 41.221874 88.916664ZM50.4875 83.21354Q50.4875 81.979164 51.096874 81.11979Q51.721874 80.260414 52.89375 80.260414Q53.971874 80.260414 54.675 81.041664Q55.378124 81.80729 55.378124 83.291664Q55.378124 84.74479 54.659374 85.541664Q53.95625 86.322914 52.909374 86.322914Q51.8625 86.322914 51.175 85.55729Q50.4875 84.77604 50.4875 83.21354ZM52.925 81.229164Q52.409374 81.229164 52.05 81.68229Q51.70625 82.135414 51.70625 83.354164Q51.70625 84.447914 52.05 84.90104Q52.409374 85.354164 52.925 85.354164Q53.45625 85.354164 53.8 84.90104Q54.159374 84.447914 54.159374 83.24479Q54.159374 82.135414 53.8 81.68229Q53.45625 81.229164 52.925 81.229164ZM52.940624 92.33854L59.20625 80.260414L60.346874 80.260414L54.096874 92.33854L52.940624 92.33854ZM57.89375 89.229164Q57.89375 87.99479 58.503124 87.135414Q59.128124 86.27604 60.3 86.27604Q61.378124 86.27604 62.08125 87.05729Q62.8 87.822914 62.8 89.30729Q62.8 90.760414 62.08125 91.55729Q61.3625 92.33854 60.315624 92.33854Q59.26875 92.33854 58.58125 91.55729Q57.89375 90.77604 57.89375 89.229164ZM60.346874 87.24479Q59.815624 87.24479 59.45625 87.697914Q59.1125 88.15104 59.1125 89.36979Q59.1125 90.46354 59.45625 90.916664Q59.815624 91.36979 60.33125 91.36979Q60.878124 91.36979 61.221874 90.916664Q61.565624 90.46354 61.565624 89.260414Q61.565624 88.15104 61.20625 87.697914Q60.8625 87.24479 60.346874 87.24479Z" fill-rule="nonzero"/><path stroke="#757575" stroke-width="1.0" stroke-linecap="butt" d="M18.55 75.416664L145.23334 75.416664L245.91599 73.112976" fill-rule="nonzero"/><path fill="#9e9e9e" d="M247.91599 73.112976C247.91599 72.00841 247.02055 71.112976 245.91599 71.112976C244.81142 71.112976 243.91599 72.00841 243.91599 73.112976C243.91599 74.217545 244.81142 75.112976 245.91599 75.112976C247.02055 75.112976 247.91599 74.217545 247.91599 73.112976" fill-rule="nonzero"/><path fill="#efefef" d="M19.76875 252.26735L19.76875 240.81422L21.33125 240.81422L27.346874 249.7986L27.346874 240.81422L28.8 240.81422L28.8 252.26735L27.2375 252.26735L21.221874 243.26735L21.221874 252.26735L19.76875 252.26735ZM37.01875 251.2361Q36.2375 251.90797 35.51875 252.18922Q34.8 252.45485 33.971874 252.45485Q32.596874 252.45485 31.8625 251.78297Q31.128124 251.1111 31.128124 250.07985Q31.128124 249.47047 31.409374 248.97047Q31.690624 248.45485 32.128124 248.15797Q32.58125 247.84547 33.14375 247.68922Q33.565624 247.57985 34.39375 247.4861Q36.096874 247.28297 36.909374 247.00172Q36.909374 246.70485 36.909374 246.62672Q36.909374 245.76735 36.51875 245.4236Q35.971874 244.93922 34.909374 244.93922Q33.925 244.93922 33.440624 245.2986Q32.971874 245.64235 32.753124 246.51735L31.378124 246.32985Q31.565624 245.45485 31.9875 244.90797Q32.425 244.3611 33.2375 244.07985Q34.05 243.78297 35.1125 243.78297Q36.175 243.78297 36.83125 244.03297Q37.503124 244.28297 37.815624 244.65797Q38.128124 245.03297 38.253124 245.6111Q38.33125 245.97047 38.33125 246.90797L38.33125 248.78297Q38.33125 250.75172 38.409374 251.26735Q38.503124 251.78297 38.76875 252.26735L37.3 252.26735Q37.08125 251.82985 37.01875 251.2361ZM36.909374 248.09547Q36.14375 248.40797 34.6125 248.62672Q33.7375 248.75172 33.378124 248.90797Q33.01875 249.06422 32.815624 249.37672Q32.628124 249.6736 32.628124 250.03297Q32.628124 250.59547 33.05 250.97047Q33.4875 251.34547 34.3 251.34547Q35.1125 251.34547 35.7375 251.00172Q36.378124 250.64235 36.675 250.01735Q36.909374 249.5486 36.909374 248.6111L36.909374 248.09547ZM43.675 251.00172L43.878124 252.25172Q43.284374 252.37672 42.815624 252.37672Q42.05 252.37672 41.628124 252.14235Q41.20625 251.89235 41.034374 251.50172Q40.8625 251.09547 40.8625 249.82985L40.8625 245.06422L39.83125 245.06422L39.83125 243.97047L40.8625 243.97047L40.8625 241.90797L42.26875 241.06422L42.26875 243.97047L43.675 243.97047L43.675 245.06422L42.26875 245.06422L42.26875 249.90797Q42.26875 250.51735 42.33125 250.68922Q42.409374 250.8611 42.58125 250.97047Q42.753124 251.06422 43.065624 251.06422Q43.3 251.06422 43.675 251.00172ZM50.05 252.26735L50.05 251.0486Q49.08125 252.45485 47.409374 252.45485Q46.675 252.45485 46.034374 252.1736Q45.409374 251.89235 45.096874 251.47047Q44.784374 251.03297 44.659374 250.4236Q44.58125 250.00172 44.58125 249.1111L44.58125 243.97047L45.9875 243.97047L45.9875 248.56422Q45.9875 249.6736 46.065624 250.0486Q46.20625 250.6111 46.628124 250.9236Q47.065624 251.2361 47.690624 251.2361Q48.33125 251.2361 48.878124 250.9236Q49.440624 250.59547 49.659374 250.03297Q49.89375 249.47047 49.89375 248.40797L49.89375 243.97047L51.3 243.97047L51.3 252.26735L50.05 252.26735ZM53.596874 252.26735L53.596874 243.97047L54.8625 243.97047L54.8625 245.22047Q55.346874 244.34547 55.753124 244.06422Q56.159374 243.78297 56.659374 243.78297Q57.3625 243.78297 58.096874 244.2361L57.6125 245.53297Q57.096874 245.2361 56.58125 245.2361Q56.128124 245.2361 55.753124 245.51735Q55.39375 245.78297 55.2375 246.28297Q55.003124 247.03297 55.003124 247.9236L55.003124 252.26735L53.596874 252.26735ZM64.28438 249.59547L65.7375 249.76735Q65.39375 251.0486 64.45625 251.75172Q63.534374 252.45485 62.096874 252.45485Q60.26875 252.45485 59.20625 251.32985Q58.14375 250.20485 58.14375 248.18922Q58.14375 246.09547 59.221874 244.93922Q60.3 243.78297 62.01875 243.78297Q63.675 243.78297 64.72188 244.9236Q65.78438 246.0486 65.78438 248.09547Q65.78438 248.22047 65.78438 248.47047L59.596874 248.47047Q59.675 249.84547 60.3625 250.57985Q61.065624 251.2986 62.096874 251.2986Q62.878124 251.2986 63.425 250.89235Q63.971874 250.4861 64.28438 249.59547ZM59.675 247.31422L64.3 247.31422Q64.20625 246.26735 63.76875 245.75172Q63.096874 244.93922 62.034374 244.93922Q61.065624 244.93922 60.39375 245.59547Q59.7375 246.2361 59.675 247.31422ZM67.05 249.78297L68.44063 249.56422Q68.55 250.40797 69.08125 250.8611Q69.62813 251.2986 70.58125 251.2986Q71.55 251.2986 72.01875 250.90797Q72.4875 250.50172 72.4875 249.97047Q72.4875 249.50172 72.08125 249.22047Q71.78438 249.03297 70.64375 248.75172Q69.09688 248.3611 68.4875 248.07985Q67.89375 247.78297 67.58125 247.28297Q67.28438 246.78297 67.28438 246.1736Q67.28438 245.6111 67.53438 245.14235Q67.78438 244.6736 68.22188 244.3611Q68.55 244.1111 69.1125 243.95485Q69.69063 243.78297 70.33125 243.78297Q71.31563 243.78297 72.05 244.06422Q72.78438 244.34547 73.12813 244.82985Q73.4875 245.2986 73.62813 246.1111L72.25313 246.2986Q72.15938 245.65797 71.70625 245.2986Q71.25313 244.93922 70.44063 244.93922Q69.47188 244.93922 69.05 245.26735Q68.64375 245.57985 68.64375 246.00172Q68.64375 246.28297 68.81563 246.50172Q68.9875 246.72047 69.34688 246.87672Q69.56563 246.95485 70.59688 247.2361Q72.08125 247.62672 72.675 247.89235Q73.26875 248.14235 73.59688 248.62672Q73.94063 249.1111 73.94063 249.82985Q73.94063 250.53297 73.51875 251.15797Q73.1125 251.76735 72.33125 252.1111Q71.56563 252.45485 70.59688 252.45485Q68.97188 252.45485 68.12813 251.78297Q67.28438 251.1111 67.05 249.78297ZM81.01875 249.22047L82.40938 249.40797Q82.175 250.82985 81.2375 251.64235Q80.31563 252.45485 78.95625 252.45485Q77.25313 252.45485 76.20625 251.34547Q75.175 250.22047 75.175 248.14235Q75.175 246.7986 75.6125 245.7986Q76.06563 244.78297 76.97188 244.28297Q77.89375 243.78297 78.95625 243.78297Q80.31563 243.78297 81.175 244.47047Q82.03438 245.14235 82.26875 246.40797L80.90938 246.6111Q80.70625 245.78297 80.20625 245.3611Q79.72188 244.93922 79.01875 244.93922Q77.95625 244.93922 77.28438 245.70485Q76.62813 246.45485 76.62813 248.1111Q76.62813 249.78297 77.26875 250.5486Q77.90938 251.2986 78.94063 251.2986Q79.76875 251.2986 80.31563 250.7986Q80.87813 250.28297 81.01875 249.22047ZM89.01875 251.2361Q88.2375 251.90797 87.51875 252.18922Q86.8 252.45485 85.97188 252.45485Q84.59688 252.45485 83.8625 251.78297Q83.12813 251.1111 83.12813 250.07985Q83.12813 249.47047 83.40938 248.97047Q83.69063 248.45485 84.12813 248.15797Q84.58125 247.84547 85.14375 247.68922Q85.56563 247.57985 86.39375 247.4861Q88.09688 247.28297 88.90938 247.00172Q88.90938 246.70485 88.90938 246.62672Q88.90938 245.76735 88.51875 245.4236Q87.97188 244.93922 86.90938 244.93922Q85.925 244.93922 85.44063 245.2986Q84.97188 245.64235 84.75313 246.51735L83.37813 246.32985Q83.56563 245.45485 83.9875 244.90797Q84.425 244.3611 85.2375 244.07985Q86.05 243.78297 87.1125 243.78297Q88.175 243.78297 88.83125 244.03297Q89.50313 244.28297 89.81563 244.65797Q90.12813 245.03297 90.25313 245.6111Q90.33125 245.97047 90.33125 246.90797L90.33125 248.78297Q90.33125 250.75172 90.40938 251.26735Q90.50313 251.78297 90.76875 252.26735L89.3 252.26735Q89.08125 251.82985 89.01875 251.2361ZM88.90938 248.09547Q88.14375 248.40797 86.6125 248.62672Q85.7375 248.75172 85.37813 248.90797Q85.01875 249.06422 84.81563 249.37672Q84.62813 249.6736 84.62813 250.03297Q84.62813 250.59547 85.05 250.97047Q85.4875 251.34547 86.3 251.34547Q87.1125 251.34547 87.7375 251.00172Q88.37813 250.64235 88.675 250.01735Q88.90938 249.5486 88.90938 248.6111L88.90938 248.09547ZM92.6125 255.45485L92.6125 243.97047L93.89375 243.97047L93.89375 245.0486Q94.34688 244.40797 94.90938 244.09547Q95.4875 243.78297 96.3 243.78297Q97.3625 243.78297 98.175 244.32985Q98.9875 244.87672 99.39375 245.87672Q99.81563 246.8611 99.81563 248.0486Q99.81563 249.32985 99.34688 250.34547Q98.89375 251.3611 98.01875 251.90797Q97.15938 252.45485 96.19063 252.45485Q95.4875 252.45485 94.925 252.15797Q94.37813 251.8611 94.01875 251.40797L94.01875 255.45485L92.6125 255.45485ZM93.87813 248.15797Q93.87813 249.76735 94.51875 250.53297Q95.175 251.2986 96.09688 251.2986Q97.03438 251.2986 97.70625 250.50172Q98.37813 249.70485 98.37813 248.0486Q98.37813 246.45485 97.72188 245.6736Q97.06563 244.87672 96.15938 244.87672Q95.26875 244.87672 94.56563 245.72047Q93.87813 246.56422 93.87813 248.15797ZM107.28438 249.59547L108.7375 249.76735Q108.39375 251.0486 107.45625 251.75172Q106.53438 252.45485 105.09688 252.45485Q103.26875 252.45485 102.20625 251.32985Q101.14375 250.20485 101.14375 248.18922Q101.14375 246.09547 102.22188 244.93922Q103.3 243.78297 105.01875 243.78297Q106.675 243.78297 107.72188 244.9236Q108.78438 246.0486 108.78438 248.09547Q108.78438 248.22047 108.78438 248.47047L102.59688 248.47047Q102.675 249.84547 103.3625 250.57985Q104.06563 251.2986 105.09688 251.2986Q105.87813 251.2986 106.425 250.89235Q106.97188 250.4861 107.28438 249.59547ZM102.675 247.31422L107.3 247.31422Q107.20625 246.26735 106.76875 245.75172Q106.09688 244.93922 105.03438 244.93922Q104.06563 244.93922 103.39375 245.59547Q102.7375 246.2361 102.675 247.31422Z" fill-rule="nonzero"/><path fill="#9e9e9e" d="M19.221874 271.23608L20.628124 271.04858Q20.878124 272.2517 21.45625 272.78296Q22.034374 273.29858 22.878124 273.29858Q23.8625 273.29858 24.55 272.61108Q25.2375 271.92358 25.2375 270.90796Q25.2375 269.9392 24.596874 269.3142Q23.971874 268.6892 22.9875 268.6892Q22.596874 268.6892 22.003124 268.84546L22.159374 267.61108Q22.3 267.6267 22.378124 267.6267Q23.284374 267.6267 24.003124 267.15796Q24.721874 266.6892 24.721874 265.70483Q24.721874 264.9392 24.190624 264.4392Q23.675 263.92358 22.846874 263.92358Q22.01875 263.92358 21.471874 264.4392Q20.925 264.95483 20.76875 265.98608L19.3625 265.73608Q19.628124 264.3142 20.534374 263.54858Q21.45625 262.76733 22.815624 262.76733Q23.753124 262.76733 24.534374 263.17358Q25.33125 263.5642 25.7375 264.26733Q26.159374 264.95483 26.159374 265.73608Q26.159374 266.48608 25.753124 267.09546Q25.3625 267.70483 24.58125 268.0642Q25.596874 268.29858 26.159374 269.03296Q26.721874 269.76733 26.721874 270.8767Q26.721874 272.3767 25.628124 273.42358Q24.534374 274.47046 22.8625 274.47046Q21.3625 274.47046 20.3625 273.57983Q19.3625 272.67358 19.221874 271.23608ZM28.315624 264.3142L28.315624 262.95483L35.721874 262.95483L35.721874 264.04858Q34.628124 265.22046 33.55 267.15796Q32.4875 269.07983 31.89375 271.11108Q31.471874 272.54858 31.3625 274.26733L29.909374 274.26733Q29.940624 272.90796 30.440624 271.0017Q30.95625 269.07983 31.89375 267.3142Q32.846874 265.53296 33.925 264.3142L28.315624 264.3142ZM38.003124 274.26733L38.003124 272.65796L39.6125 272.65796L39.6125 274.26733L38.003124 274.26733ZM41.221874 271.26733L42.690624 271.14233Q42.8625 272.22046 43.45625 272.76733Q44.05 273.29858 44.89375 273.29858Q45.909374 273.29858 46.6125 272.53296Q47.315624 271.76733 47.315624 270.5017Q47.315624 269.29858 46.64375 268.61108Q45.971874 267.90796 44.878124 267.90796Q44.190624 267.90796 43.64375 268.22046Q43.096874 268.53296 42.784374 269.01733L41.471874 268.84546L42.58125 262.97046L48.26875 262.97046L48.26875 264.3142L43.70625 264.3142L43.08125 267.39233Q44.1125 266.67358 45.253124 266.67358Q46.753124 266.67358 47.784374 267.72046Q48.815624 268.7517 48.815624 270.3767Q48.815624 271.9392 47.909374 273.0642Q46.8 274.47046 44.89375 274.47046Q43.33125 274.47046 42.346874 273.59546Q41.3625 272.70483 41.221874 271.26733ZM50.4875 265.5642Q50.4875 264.32983 51.096874 263.47046Q51.721874 262.61108 52.89375 262.61108Q53.971874 262.61108 54.675 263.39233Q55.378124 264.15796 55.378124 265.64233Q55.378124 267.09546 54.659374 267.89233Q53.95625 268.67358 52.909374 268.67358Q51.8625 268.67358 51.175 267.90796Q50.4875 267.1267 50.4875 265.5642ZM52.925 263.57983Q52.409374 263.57983 52.05 264.03296Q51.70625 264.48608 51.70625 265.70483Q51.70625 266.79858 52.05 267.2517Q52.409374 267.70483 52.925 267.70483Q53.45625 267.70483 53.8 267.2517Q54.159374 266.79858 54.159374 265.59546Q54.159374 264.48608 53.8 264.03296Q53.45625 263.57983 52.925 263.57983ZM52.940624 274.6892L59.20625 262.61108L60.346874 262.61108L54.096874 274.6892L52.940624 274.6892ZM57.89375 271.57983Q57.89375 270.34546 58.503124 269.48608Q59.128124 268.6267 60.3 268.6267Q61.378124 268.6267 62.08125 269.40796Q62.8 270.17358 62.8 271.65796Q62.8 273.11108 62.08125 273.90796Q61.3625 274.6892 60.315624 274.6892Q59.26875 274.6892 58.58125 273.90796Q57.89375 273.1267 57.89375 271.57983ZM60.346874 269.59546Q59.815624 269.59546 59.45625 270.04858Q59.1125 270.5017 59.1125 271.72046Q59.1125 272.8142 59.45625 273.26733Q59.815624 273.72046 60.33125 273.72046Q60.878124 273.72046 61.221874 273.26733Q61.565624 272.8142 61.565624 271.61108Q61.565624 270.5017 61.20625 270.04858Q60.8625 269.59546 60.346874 269.59546Z" fill-rule="nonzero"/><path stroke="#757575" stroke-width="1.0" stroke-linecap="butt" d="M18.55 257.76733L145.23334 257.76733L169.42964 257.76733" fill-rule="nonzero"/><path fill="#9e9e9e" d="M171.42964 257.76733C171.42964 256.66278 170.53421 255.76735 169.42964 255.76735C168.32507 255.76735 167.42964 256.66278 167.42964 257.76733C167.42964 258.87192 168.32507 259.76733 169.42964 259.76733C170.53421 259.76733 171.42964 258.87192 171.42964 257.76733" fill-rule="nonzero"/><path fill="#efefef" d="M498.6844 69.916664L498.6844 58.46354L503.0125 58.46354Q504.15314 58.46354 504.7469 58.572914Q505.59064 58.71354 506.15314 59.104164Q506.73126 59.49479 507.075 60.21354Q507.4344 60.916664 507.4344 61.77604Q507.4344 63.229164 506.4969 64.24479Q505.575 65.260414 503.1375 65.260414L500.2 65.260414L500.2 69.916664L498.6844 69.916664ZM500.2 63.90104L503.16876 63.90104Q504.6375 63.90104 505.2469 63.354164Q505.8719 62.80729 505.8719 61.822914Q505.8719 61.104164 505.4969 60.58854Q505.1375 60.072914 504.54376 59.916664Q504.16876 59.80729 503.1375 59.80729L500.2 59.80729L500.2 63.90104ZM515.1844 67.24479L516.6375 67.416664Q516.29376 68.697914 515.35626 69.40104Q514.4344 70.104164 512.9969 70.104164Q511.16876 70.104164 510.10626 68.979164Q509.04376 67.854164 509.04376 65.83854Q509.04376 63.74479 510.1219 62.58854Q511.2 61.43229 512.91876 61.43229Q514.575 61.43229 515.6219 62.572914Q516.6844 63.697914 516.6844 65.74479Q516.6844 65.86979 516.6844 66.11979L510.4969 66.11979Q510.575 67.49479 511.2625 68.229164Q511.96564 68.947914 512.9969 68.947914Q513.77814 68.947914 514.325 68.541664Q514.8719 68.135414 515.1844 67.24479ZM510.575 64.96354L515.2 64.96354Q515.10626 63.916664 514.66876 63.40104Q513.9969 62.58854 512.9344 62.58854Q511.96564 62.58854 511.29376 63.24479Q510.6375 63.885414 510.575 64.96354ZM518.4969 69.916664L518.4969 61.61979L519.7625 61.61979L519.7625 62.86979Q520.2469 61.99479 520.65314 61.71354Q521.0594 61.43229 521.5594 61.43229Q522.2625 61.43229 522.9969 61.885414L522.5125 63.18229Q521.9969 62.885414 521.48126 62.885414Q521.02814 62.885414 520.65314 63.166664Q520.29376 63.43229 520.1375 63.93229Q519.90314 64.68229 519.90314 65.572914L519.90314 69.916664L518.4969 69.916664ZM522.95 67.43229L524.34064 67.21354Q524.45 68.05729 524.98126 68.510414Q525.52814 68.947914 526.48126 68.947914Q527.45 68.947914 527.91876 68.55729Q528.3875 68.15104 528.3875 67.61979Q528.3875 67.15104 527.98126 66.86979Q527.6844 66.68229 526.54376 66.40104Q524.9969 66.010414 524.3875 65.729164Q523.79376 65.43229 523.48126 64.93229Q523.1844 64.43229 523.1844 63.822914Q523.1844 63.260414 523.4344 62.791664Q523.6844 62.322914 524.1219 62.010414Q524.45 61.760414 525.0125 61.604164Q525.59064 61.43229 526.23126 61.43229Q527.21564 61.43229 527.95 61.71354Q528.6844 61.99479 529.02814 62.479164Q529.3875 62.947914 529.52814 63.760414L528.15314 63.947914Q528.0594 63.30729 527.60626 62.947914Q527.15314 62.58854 526.34064 62.58854Q525.3719 62.58854 524.95 62.916664Q524.54376 63.229164 524.54376 63.65104Q524.54376 63.93229 524.71564 64.15104Q524.8875 64.36979 525.2469 64.52604Q525.46564 64.604164 526.4969 64.885414Q527.98126 65.27604 528.575 65.541664Q529.16876 65.791664 529.4969 66.27604Q529.84064 66.760414 529.84064 67.479164Q529.84064 68.18229 529.41876 68.80729Q529.0125 69.416664 528.23126 69.760414Q527.46564 70.104164 526.4969 70.104164Q524.8719 70.104164 524.02814 69.43229Q523.1844 68.760414 522.95 67.43229ZM531.5125 73.104164L531.5125 61.61979L532.79376 61.61979L532.79376 62.697914Q533.2469 62.05729 533.8094 61.74479Q534.3875 61.43229 535.2 61.43229Q536.2625 61.43229 537.075 61.979164Q537.8875 62.52604 538.29376 63.52604Q538.71564 64.510414 538.71564 65.697914Q538.71564 66.979164 538.2469 67.99479Q537.79376 69.010414 536.91876 69.55729Q536.0594 70.104164 535.09064 70.104164Q534.3875 70.104164 533.825 69.80729Q533.27814 69.510414 532.91876 69.05729L532.91876 73.104164L531.5125 73.104164ZM532.77814 65.80729Q532.77814 67.416664 533.41876 68.18229Q534.075 68.947914 534.9969 68.947914Q535.9344 68.947914 536.60626 68.15104Q537.27814 67.354164 537.27814 65.697914Q537.27814 64.104164 536.6219 63.322914Q535.96564 62.52604 535.0594 62.52604Q534.16876 62.52604 533.46564 63.36979Q532.77814 64.21354 532.77814 65.80729ZM546.1844 67.24479L547.6375 67.416664Q547.29376 68.697914 546.35626 69.40104Q545.4344 70.104164 543.9969 70.104164Q542.16876 70.104164 541.10626 68.979164Q540.04376 67.854164 540.04376 65.83854Q540.04376 63.74479 541.1219 62.58854Q542.2 61.43229 543.91876 61.43229Q545.575 61.43229 546.6219 62.572914Q547.6844 63.697914 547.6844 65.74479Q547.6844 65.86979 547.6844 66.11979L541.4969 66.11979Q541.575 67.49479 542.2625 68.229164Q542.96564 68.947914 543.9969 68.947914Q544.77814 68.947914 545.325 68.541664Q545.8719 68.135414 546.1844 67.24479ZM541.575 64.96354L546.2 64.96354Q546.10626 63.916664 545.66876 63.40104Q544.9969 62.58854 543.9344 62.58854Q542.96564 62.58854 542.29376 63.24479Q541.6375 63.885414 541.575 64.96354ZM554.91876 66.86979L556.3094 67.05729Q556.075 68.479164 555.1375 69.291664Q554.21564 70.104164 552.85626 70.104164Q551.15314 70.104164 550.10626 68.99479Q549.075 67.86979 549.075 65.791664Q549.075 64.447914 549.5125 63.447914Q549.96564 62.43229 550.8719 61.93229Q551.79376 61.43229 552.85626 61.43229Q554.21564 61.43229 555.075 62.11979Q555.9344 62.791664 556.16876 64.05729L554.8094 64.260414Q554.60626 63.43229 554.10626 63.010414Q553.6219 62.58854 552.91876 62.58854Q551.85626 62.58854 551.1844 63.354164Q550.52814 64.104164 550.52814 65.760414Q550.52814 67.43229 551.16876 68.197914Q551.8094 68.947914 552.84064 68.947914Q553.66876 68.947914 554.21564 68.447914Q554.77814 67.93229 554.91876 66.86979ZM560.575 68.65104L560.77814 69.90104Q560.1844 70.02604 559.71564 70.02604Q558.95 70.02604 558.52814 69.791664Q558.10626 69.541664 557.9344 69.15104Q557.7625 68.74479 557.7625 67.479164L557.7625 62.71354L556.73126 62.71354L556.73126 61.61979L557.7625 61.61979L557.7625 59.55729L559.16876 58.71354L559.16876 61.61979L560.575 61.61979L560.575 62.71354L559.16876 62.71354L559.16876 67.55729Q559.16876 68.166664 559.23126 68.33854Q559.3094 68.510414 559.48126 68.61979Q559.65314 68.71354 559.96564 68.71354Q560.2 68.71354 560.575 68.65104ZM561.5125 60.072914L561.5125 58.46354L562.91876 58.46354L562.91876 60.072914L561.5125 60.072914ZM561.5125 69.916664L561.5125 61.61979L562.91876 61.61979L562.91876 69.916664L561.5125 69.916664ZM567.8094 69.916664L564.65314 61.61979L566.1375 61.61979L567.91876 66.58854Q568.21564 67.385414 568.45 68.260414Q568.6375 67.604164 568.98126 66.68229L570.825 61.61979L572.2625 61.61979L569.1219 69.916664L567.8094 69.916664ZM579.1844 67.24479L580.6375 67.416664Q580.29376 68.697914 579.35626 69.40104Q578.4344 70.104164 576.9969 70.104164Q575.16876 70.104164 574.10626 68.979164Q573.04376 67.854164 573.04376 65.83854Q573.04376 63.74479 574.1219 62.58854Q575.2 61.43229 576.91876 61.43229Q578.575 61.43229 579.6219 62.572914Q580.6844 63.697914 580.6844 65.74479Q580.6844 65.86979 580.6844 66.11979L574.4969 66.11979Q574.575 67.49479 575.2625 68.229164Q575.96564 68.947914 576.9969 68.947914Q577.77814 68.947914 578.325 68.541664Q578.8719 68.135414 579.1844 67.24479ZM574.575 64.96354L579.2 64.96354Q579.10626 63.916664 578.66876 63.40104Q577.9969 62.58854 576.9344 62.58854Q575.96564 62.58854 575.29376 63.24479Q574.6375 63.885414 574.575 64.96354Z" fill-rule="nonzero"/><path fill="#9e9e9e" d="M542.41876 91.916664L541.0125 91.916664L541.0125 82.947914Q540.4969 83.43229 539.66876 83.916664Q538.85626 84.40104 538.2 84.65104L538.2 83.291664Q539.3719 82.729164 540.2469 81.947914Q541.1375 81.15104 541.5125 80.416664L542.41876 80.416664L542.41876 91.916664ZM553.5125 90.55729L553.5125 91.916664L545.9344 91.916664Q545.91876 91.40104 546.10626 90.93229Q546.3875 90.166664 547.02814 89.416664Q547.66876 88.666664 548.8719 87.68229Q550.73126 86.15104 551.3875 85.260414Q552.04376 84.354164 552.04376 83.55729Q552.04376 82.729164 551.45 82.15104Q550.85626 81.572914 549.8875 81.572914Q548.8719 81.572914 548.2625 82.18229Q547.65314 82.791664 547.65314 83.86979L546.2 83.729164Q546.35626 82.104164 547.325 81.260414Q548.29376 80.416664 549.91876 80.416664Q551.575 80.416664 552.52814 81.33854Q553.4969 82.24479 553.4969 83.58854Q553.4969 84.27604 553.21564 84.947914Q552.9344 85.604164 552.27814 86.33854Q551.6219 87.072914 550.10626 88.354164Q548.84064 89.416664 548.48126 89.80729Q548.1219 90.18229 547.8875 90.55729L553.5125 90.55729ZM555.90314 91.916664L555.90314 90.30729L557.5125 90.30729L557.5125 91.916664L555.90314 91.916664ZM559.1219 88.916664L560.59064 88.791664Q560.7625 89.86979 561.35626 90.416664Q561.95 90.947914 562.79376 90.947914Q563.8094 90.947914 564.5125 90.18229Q565.21564 89.416664 565.21564 88.15104Q565.21564 86.947914 564.54376 86.260414Q563.8719 85.55729 562.77814 85.55729Q562.09064 85.55729 561.54376 85.86979Q560.9969 86.18229 560.6844 86.666664L559.3719 86.49479L560.48126 80.61979L566.16876 80.61979L566.16876 81.96354L561.60626 81.96354L560.98126 85.041664Q562.0125 84.322914 563.15314 84.322914Q564.65314 84.322914 565.6844 85.36979Q566.71564 86.40104 566.71564 88.02604Q566.71564 89.58854 565.8094 90.71354Q564.7 92.11979 562.79376 92.11979Q561.23126 92.11979 560.2469 91.24479Q559.2625 90.354164 559.1219 88.916664ZM568.3875 83.21354Q568.3875 81.979164 568.9969 81.11979Q569.6219 80.260414 570.79376 80.260414Q571.8719 80.260414 572.575 81.041664Q573.27814 81.80729 573.27814 83.291664Q573.27814 84.74479 572.5594 85.541664Q571.85626 86.322914 570.8094 86.322914Q569.7625 86.322914 569.075 85.55729Q568.3875 84.77604 568.3875 83.21354ZM570.825 81.229164Q570.3094 81.229164 569.95 81.68229Q569.60626 82.135414 569.60626 83.354164Q569.60626 84.447914 569.95 84.90104Q570.3094 85.354164 570.825 85.354164Q571.35626 85.354164 571.7 84.90104Q572.0594 84.447914 572.0594 83.24479Q572.0594 82.135414 571.7 81.68229Q571.35626 81.229164 570.825 81.229164ZM570.84064 92.33854L577.10626 80.260414L578.2469 80.260414L571.9969 92.33854L570.84064 92.33854ZM575.79376 89.229164Q575.79376 87.99479 576.40314 87.135414Q577.02814 86.27604 578.2 86.27604Q579.27814 86.27604 579.98126 87.05729Q580.7 87.822914 580.7 89.30729Q580.7 90.760414 579.98126 91.55729Q579.2625 92.33854 578.21564 92.33854Q577.16876 92.33854 576.48126 91.55729Q575.79376 90.77604 575.79376 89.229164ZM578.2469 87.24479Q577.71564 87.24479 577.35626 87.697914Q577.0125 88.15104 577.0125 89.36979Q577.0125 90.46354 577.35626 90.916664Q577.71564 91.36979 578.23126 91.36979Q578.77814 91.36979 579.1219 90.916664Q579.46564 90.46354 579.46564 89.260414Q579.46564 88.15104 579.10626 87.697914Q578.7625 87.24479 578.2469 87.24479Z" fill-rule="nonzero"/><path stroke="#757575" stroke-width="1.0" stroke-linecap="butt" d="M581.45 75.416664L454.76666 75.416664L354.084 73.112976" fill-rule="nonzero"/><path fill="#9e9e9e" d="M356.084 73.112976C356.084 72.00841 355.18857 71.112976 354.084 71.112976C352.97943 71.112976 352.084 72.00841 352.084 73.112976C352.084 74.217545 352.97943 75.112976 354.084 75.112976C355.18857 75.112976 356.084 74.217545 356.084 73.112976" fill-rule="nonzero"/><path fill="#efefef" d="M532.6844 144.09932L532.6844 132.6462L536.6375 132.6462Q537.96564 132.6462 538.66876 132.80244Q539.65314 133.03682 540.35626 133.63057Q541.2625 134.3962 541.7 135.5837Q542.15314 136.7712 542.15314 138.30244Q542.15314 139.61494 541.84064 140.63057Q541.54376 141.63057 541.0594 142.28682Q540.59064 142.94307 540.02814 143.3337Q539.46564 143.7087 538.65314 143.91182Q537.85626 144.09932 536.825 144.09932L532.6844 144.09932ZM534.2 142.73994L536.65314 142.73994Q537.77814 142.73994 538.41876 142.53682Q539.075 142.31807 539.45 141.94307Q539.9969 141.3962 540.29376 140.48994Q540.59064 139.5837 540.59064 138.28682Q540.59064 136.48994 539.9969 135.5212Q539.41876 134.55244 538.575 134.22432Q537.96564 133.98994 536.60626 133.98994L534.2 133.98994L534.2 142.73994ZM550.1844 141.42744L551.6375 141.59932Q551.29376 142.88057 550.35626 143.5837Q549.4344 144.28682 547.9969 144.28682Q546.16876 144.28682 545.10626 143.16182Q544.04376 142.03682 544.04376 140.0212Q544.04376 137.92744 545.1219 136.7712Q546.2 135.61494 547.91876 135.61494Q549.575 135.61494 550.6219 136.75557Q551.6844 137.88057 551.6844 139.92744Q551.6844 140.05244 551.6844 140.30244L545.4969 140.30244Q545.575 141.67744 546.2625 142.41182Q546.96564 143.13057 547.9969 143.13057Q548.77814 143.13057 549.325 142.72432Q549.8719 142.31807 550.1844 141.42744ZM545.575 139.1462L550.2 139.1462Q550.10626 138.09932 549.66876 137.5837Q548.9969 136.7712 547.9344 136.7712Q546.96564 136.7712 546.29376 137.42744Q545.6375 138.06807 545.575 139.1462ZM556.575 142.8337L556.77814 144.0837Q556.1844 144.2087 555.71564 144.2087Q554.95 144.2087 554.52814 143.97432Q554.10626 143.72432 553.9344 143.3337Q553.7625 142.92744 553.7625 141.66182L553.7625 136.8962L552.73126 136.8962L552.73126 135.80244L553.7625 135.80244L553.7625 133.73994L555.16876 132.8962L555.16876 135.80244L556.575 135.80244L556.575 136.8962L555.16876 136.8962L555.16876 141.73994Q555.16876 142.34932 555.23126 142.5212Q555.3094 142.69307 555.48126 142.80244Q555.65314 142.8962 555.96564 142.8962Q556.2 142.8962 556.575 142.8337ZM562.91876 143.06807Q562.1375 143.73994 561.41876 144.0212Q560.7 144.28682 559.8719 144.28682Q558.4969 144.28682 557.7625 143.61494Q557.02814 142.94307 557.02814 141.91182Q557.02814 141.30244 557.3094 140.80244Q557.59064 140.28682 558.02814 139.98994Q558.48126 139.67744 559.04376 139.5212Q559.46564 139.41182 560.29376 139.31807Q561.9969 139.11494 562.8094 138.8337Q562.8094 138.53682 562.8094 138.4587Q562.8094 137.59932 562.41876 137.25557Q561.8719 136.7712 560.8094 136.7712Q559.825 136.7712 559.34064 137.13057Q558.8719 137.47432 558.65314 138.34932L557.27814 138.16182Q557.46564 137.28682 557.8875 136.73994Q558.325 136.19307 559.1375 135.91182Q559.95 135.61494 561.0125 135.61494Q562.075 135.61494 562.73126 135.86494Q563.40314 136.11494 563.71564 136.48994Q564.02814 136.86494 564.15314 137.44307Q564.23126 137.80244 564.23126 138.73994L564.23126 140.61494Q564.23126 142.5837 564.3094 143.09932Q564.40314 143.61494 564.66876 144.09932L563.2 144.09932Q562.98126 143.66182 562.91876 143.06807ZM562.8094 139.92744Q562.04376 140.23994 560.5125 140.4587Q559.6375 140.5837 559.27814 140.73994Q558.91876 140.8962 558.71564 141.2087Q558.52814 141.50557 558.52814 141.86494Q558.52814 142.42744 558.95 142.80244Q559.3875 143.17744 560.2 143.17744Q561.0125 143.17744 561.6375 142.8337Q562.27814 142.47432 562.575 141.84932Q562.8094 141.38057 562.8094 140.44307L562.8094 139.92744ZM566.5125 134.25557L566.5125 132.6462L567.91876 132.6462L567.91876 134.25557L566.5125 134.25557ZM566.5125 144.09932L566.5125 135.80244L567.91876 135.80244L567.91876 144.09932L566.5125 144.09932ZM570.48126 144.09932L570.48126 132.6462L571.8875 132.6462L571.8875 144.09932L570.48126 144.09932ZM573.95 141.61494L575.34064 141.3962Q575.45 142.23994 575.98126 142.69307Q576.52814 143.13057 577.48126 143.13057Q578.45 143.13057 578.91876 142.73994Q579.3875 142.3337 579.3875 141.80244Q579.3875 141.3337 578.98126 141.05244Q578.6844 140.86494 577.54376 140.5837Q575.9969 140.19307 575.3875 139.91182Q574.79376 139.61494 574.48126 139.11494Q574.1844 138.61494 574.1844 138.00557Q574.1844 137.44307 574.4344 136.97432Q574.6844 136.50557 575.1219 136.19307Q575.45 135.94307 576.0125 135.78682Q576.59064 135.61494 577.23126 135.61494Q578.21564 135.61494 578.95 135.8962Q579.6844 136.17744 580.02814 136.66182Q580.3875 137.13057 580.52814 137.94307L579.15314 138.13057Q579.0594 137.48994 578.60626 137.13057Q578.15314 136.7712 577.34064 136.7712Q576.3719 136.7712 575.95 137.09932Q575.54376 137.41182 575.54376 137.8337Q575.54376 138.11494 575.71564 138.3337Q575.8875 138.55244 576.2469 138.7087Q576.46564 138.78682 577.4969 139.06807Q578.98126 139.4587 579.575 139.72432Q580.16876 139.97432 580.4969 140.4587Q580.84064 140.94307 580.84064 141.66182Q580.84064 142.36494 580.41876 142.98994Q580.0125 143.59932 579.23126 143.94307Q578.46564 144.28682 577.4969 144.28682Q575.8719 144.28682 575.02814 143.61494Q574.1844 142.94307 573.95 141.61494Z" fill-rule="nonzero"/><path fill="#9e9e9e" d="M542.41876 166.09932L541.0125 166.09932L541.0125 157.13057Q540.4969 157.61494 539.66876 158.09932Q538.85626 158.5837 538.2 158.8337L538.2 157.47432Q539.3719 156.91182 540.2469 156.13057Q541.1375 155.3337 541.5125 154.59932L542.41876 154.59932L542.41876 166.09932ZM553.5125 164.73994L553.5125 166.09932L545.9344 166.09932Q545.91876 165.5837 546.10626 165.11494Q546.3875 164.34932 547.02814 163.59932Q547.66876 162.84932 548.8719 161.86494Q550.73126 160.3337 551.3875 159.44307Q552.04376 158.53682 552.04376 157.73994Q552.04376 156.91182 551.45 156.3337Q550.85626 155.75557 549.8875 155.75557Q548.8719 155.75557 548.2625 156.36494Q547.65314 156.97432 547.65314 158.05244L546.2 157.91182Q546.35626 156.28682 547.325 155.44307Q548.29376 154.59932 549.91876 154.59932Q551.575 154.59932 552.52814 155.5212Q553.4969 156.42744 553.4969 157.7712Q553.4969 158.4587 553.21564 159.13057Q552.9344 159.78682 552.27814 160.5212Q551.6219 161.25557 550.10626 162.53682Q548.84064 163.59932 548.48126 163.98994Q548.1219 164.36494 547.8875 164.73994L553.5125 164.73994ZM555.90314 166.09932L555.90314 164.48994L557.5125 164.48994L557.5125 166.09932L555.90314 166.09932ZM559.1219 163.09932L560.59064 162.97432Q560.7625 164.05244 561.35626 164.59932Q561.95 165.13057 562.79376 165.13057Q563.8094 165.13057 564.5125 164.36494Q565.21564 163.59932 565.21564 162.3337Q565.21564 161.13057 564.54376 160.44307Q563.8719 159.73994 562.77814 159.73994Q562.09064 159.73994 561.54376 160.05244Q560.9969 160.36494 560.6844 160.84932L559.3719 160.67744L560.48126 154.80244L566.16876 154.80244L566.16876 156.1462L561.60626 156.1462L560.98126 159.22432Q562.0125 158.50557 563.15314 158.50557Q564.65314 158.50557 565.6844 159.55244Q566.71564 160.5837 566.71564 162.2087Q566.71564 163.7712 565.8094 164.8962Q564.7 166.30244 562.79376 166.30244Q561.23126 166.30244 560.2469 165.42744Q559.2625 164.53682 559.1219 163.09932ZM568.3875 157.3962Q568.3875 156.16182 568.9969 155.30244Q569.6219 154.44307 570.79376 154.44307Q571.8719 154.44307 572.575 155.22432Q573.27814 155.98994 573.27814 157.47432Q573.27814 158.92744 572.5594 159.72432Q571.85626 160.50557 570.8094 160.50557Q569.7625 160.50557 569.075 159.73994Q568.3875 158.9587 568.3875 157.3962ZM570.825 155.41182Q570.3094 155.41182 569.95 155.86494Q569.60626 156.31807 569.60626 157.53682Q569.60626 158.63057 569.95 159.0837Q570.3094 159.53682 570.825 159.53682Q571.35626 159.53682 571.7 159.0837Q572.0594 158.63057 572.0594 157.42744Q572.0594 156.31807 571.7 155.86494Q571.35626 155.41182 570.825 155.41182ZM570.84064 166.5212L577.10626 154.44307L578.2469 154.44307L571.9969 166.5212L570.84064 166.5212ZM575.79376 163.41182Q575.79376 162.17744 576.40314 161.31807Q577.02814 160.4587 578.2 160.4587Q579.27814 160.4587 579.98126 161.23994Q580.7 162.00557 580.7 163.48994Q580.7 164.94307 579.98126 165.73994Q579.2625 166.5212 578.21564 166.5212Q577.16876 166.5212 576.48126 165.73994Q575.79376 164.9587 575.79376 163.41182ZM578.2469 161.42744Q577.71564 161.42744 577.35626 161.88057Q577.0125 162.3337 577.0125 163.55244Q577.0125 164.6462 577.35626 165.09932Q577.71564 165.55244 578.23126 165.55244Q578.77814 165.55244 579.1219 165.09932Q579.46564 164.6462 579.46564 163.44307Q579.46564 162.3337 579.10626 161.88057Q578.7625 161.42744 578.2469 161.42744Z" fill-rule="nonzero"/><path stroke="#757575" stroke-width="1.0" stroke-linecap="butt" d="M581.45 149.59932L454.76666 149.59932L430.57034 149.59932" fill-rule="nonzero"/><path fill="#9e9e9e" d="M432.57034 149.59932C432.57034 148.49475 431.67493 147.59932 430.57034 147.59932C429.4658 147.59932 428.57034 148.49475 428.57034 149.59932C428.57034 150.70389 429.4658 151.59932 430.57034 151.59932C431.67493 151.59932 432.57034 150.70389 432.57034 149.59932" fill-rule="nonzero"/><path fill="#efefef" d="M531.6844 298.11755L531.6844 286.66443L536.0125 286.66443Q537.15314 286.66443 537.7469 286.7738Q538.59064 286.91443 539.15314 287.30505Q539.73126 287.69568 540.075 288.41443Q540.4344 289.11755 540.4344 289.97693Q540.4344 291.43005 539.4969 292.44568Q538.575 293.4613 536.1375 293.4613L533.2 293.4613L533.2 298.11755L531.6844 298.11755ZM533.2 292.10193L536.16876 292.10193Q537.6375 292.10193 538.2469 291.55505Q538.8719 291.00818 538.8719 290.0238Q538.8719 289.30505 538.4969 288.78943Q538.1375 288.2738 537.54376 288.11755Q537.16876 288.00818 536.1375 288.00818L533.2 288.00818L533.2 292.10193ZM548.1844 295.44568L549.6375 295.61755Q549.29376 296.8988 548.35626 297.60193Q547.4344 298.30505 545.9969 298.30505Q544.16876 298.30505 543.10626 297.18005Q542.04376 296.05505 542.04376 294.03943Q542.04376 291.94568 543.1219 290.78943Q544.2 289.63318 545.91876 289.63318Q547.575 289.63318 548.6219 290.7738Q549.6844 291.8988 549.6844 293.94568Q549.6844 294.07068 549.6844 294.32068L543.4969 294.32068Q543.575 295.69568 544.2625 296.43005Q544.96564 297.1488 545.9969 297.1488Q546.77814 297.1488 547.325 296.74255Q547.8719 296.3363 548.1844 295.44568ZM543.575 293.16443L548.2 293.16443Q548.10626 292.11755 547.66876 291.60193Q546.9969 290.78943 545.9344 290.78943Q544.96564 290.78943 544.29376 291.44568Q543.6375 292.0863 543.575 293.16443ZM550.98126 293.9613Q550.98126 291.66443 552.2625 290.55505Q553.34064 289.63318 554.8719 289.63318Q556.59064 289.63318 557.66876 290.75818Q558.7625 291.86755 558.7625 293.85193Q558.7625 295.44568 558.27814 296.36755Q557.79376 297.28943 556.8719 297.80505Q555.96564 298.30505 554.8719 298.30505Q553.1375 298.30505 552.0594 297.19568Q550.98126 296.07068 550.98126 293.9613ZM552.4344 293.9613Q552.4344 295.55505 553.1219 296.35193Q553.825 297.1488 554.8719 297.1488Q555.91876 297.1488 556.60626 296.35193Q557.3094 295.55505 557.3094 293.91443Q557.3094 292.38318 556.60626 291.5863Q555.91876 290.78943 554.8719 290.78943Q553.825 290.78943 553.1219 291.5863Q552.4344 292.36755 552.4344 293.9613ZM560.5125 301.30505L560.5125 289.82068L561.79376 289.82068L561.79376 290.8988Q562.2469 290.25818 562.8094 289.94568Q563.3875 289.63318 564.2 289.63318Q565.2625 289.63318 566.075 290.18005Q566.8875 290.72693 567.29376 291.72693Q567.71564 292.7113 567.71564 293.8988Q567.71564 295.18005 567.2469 296.19568Q566.79376 297.2113 565.91876 297.75818Q565.0594 298.30505 564.09064 298.30505Q563.3875 298.30505 562.825 298.00818Q562.27814 297.7113 561.91876 297.25818L561.91876 301.30505L560.5125 301.30505ZM561.77814 294.00818Q561.77814 295.61755 562.41876 296.38318Q563.075 297.1488 563.9969 297.1488Q564.9344 297.1488 565.60626 296.35193Q566.27814 295.55505 566.27814 293.8988Q566.27814 292.30505 565.6219 291.5238Q564.96564 290.72693 564.0594 290.72693Q563.16876 290.72693 562.46564 291.57068Q561.77814 292.41443 561.77814 294.00818ZM569.48126 298.11755L569.48126 286.66443L570.8875 286.66443L570.8875 298.11755L569.48126 298.11755ZM579.1844 295.44568L580.6375 295.61755Q580.29376 296.8988 579.35626 297.60193Q578.4344 298.30505 576.9969 298.30505Q575.16876 298.30505 574.10626 297.18005Q573.04376 296.05505 573.04376 294.03943Q573.04376 291.94568 574.1219 290.78943Q575.2 289.63318 576.91876 289.63318Q578.575 289.63318 579.6219 290.7738Q580.6844 291.8988 580.6844 293.94568Q580.6844 294.07068 580.6844 294.32068L574.4969 294.32068Q574.575 295.69568 575.2625 296.43005Q575.96564 297.1488 576.9969 297.1488Q577.77814 297.1488 578.325 296.74255Q578.8719 296.3363 579.1844 295.44568ZM574.575 293.16443L579.2 293.16443Q579.10626 292.11755 578.66876 291.60193Q577.9969 290.78943 576.9344 290.78943Q575.96564 290.78943 575.29376 291.44568Q574.6375 292.0863 574.575 293.16443Z" fill-rule="nonzero"/><path fill="#9e9e9e" d="M544.5125 318.75818L544.5125 320.11755L536.9344 320.11755Q536.91876 319.60193 537.10626 319.13318Q537.3875 318.36755 538.02814 317.61755Q538.66876 316.86755 539.8719 315.88318Q541.73126 314.35193 542.3875 313.4613Q543.04376 312.55505 543.04376 311.75818Q543.04376 310.93005 542.45 310.35193Q541.85626 309.7738 540.8875 309.7738Q539.8719 309.7738 539.2625 310.38318Q538.65314 310.99255 538.65314 312.07068L537.2 311.93005Q537.35626 310.30505 538.325 309.4613Q539.29376 308.61755 540.91876 308.61755Q542.575 308.61755 543.52814 309.53943Q544.4969 310.44568 544.4969 311.78943Q544.4969 312.47693 544.21564 313.1488Q543.9344 313.80505 543.27814 314.53943Q542.6219 315.2738 541.10626 316.55505Q539.84064 317.61755 539.48126 318.00818Q539.1219 318.38318 538.8875 318.75818L544.5125 318.75818ZM546.1219 317.11755L547.59064 316.99255Q547.7625 318.07068 548.35626 318.61755Q548.95 319.1488 549.79376 319.1488Q550.8094 319.1488 551.5125 318.38318Q552.21564 317.61755 552.21564 316.35193Q552.21564 315.1488 551.54376 314.4613Q550.8719 313.75818 549.77814 313.75818Q549.09064 313.75818 548.54376 314.07068Q547.9969 314.38318 547.6844 314.86755L546.3719 314.69568L547.48126 308.82068L553.16876 308.82068L553.16876 310.16443L548.60626 310.16443L547.98126 313.24255Q549.0125 312.5238 550.15314 312.5238Q551.65314 312.5238 552.6844 313.57068Q553.71564 314.60193 553.71564 316.22693Q553.71564 317.78943 552.8094 318.91443Q551.7 320.32068 549.79376 320.32068Q548.23126 320.32068 547.2469 319.44568Q546.2625 318.55505 546.1219 317.11755ZM555.90314 320.11755L555.90314 318.50818L557.5125 318.50818L557.5125 320.11755L555.90314 320.11755ZM559.1219 314.4613Q559.1219 312.43005 559.52814 311.19568Q559.95 309.9613 560.77814 309.28943Q561.60626 308.61755 562.85626 308.61755Q563.77814 308.61755 564.46564 308.99255Q565.16876 309.35193 565.6219 310.05505Q566.075 310.75818 566.325 311.75818Q566.59064 312.75818 566.59064 314.4613Q566.59064 316.47693 566.16876 317.72693Q565.7625 318.9613 564.9344 319.6488Q564.10626 320.32068 562.85626 320.32068Q561.2 320.32068 560.2469 319.11755Q559.1219 317.69568 559.1219 314.4613ZM560.5594 314.4613Q560.5594 317.28943 561.21564 318.22693Q561.8875 319.1488 562.85626 319.1488Q563.825 319.1488 564.48126 318.2113Q565.1375 317.2738 565.1375 314.4613Q565.1375 311.63318 564.48126 310.7113Q563.825 309.7738 562.84064 309.7738Q561.8719 309.7738 561.29376 310.60193Q560.5594 311.6488 560.5594 314.4613ZM568.3875 311.41443Q568.3875 310.18005 568.9969 309.32068Q569.6219 308.4613 570.79376 308.4613Q571.8719 308.4613 572.575 309.24255Q573.27814 310.00818 573.27814 311.49255Q573.27814 312.94568 572.5594 313.74255Q571.85626 314.5238 570.8094 314.5238Q569.7625 314.5238 569.075 313.75818Q568.3875 312.97693 568.3875 311.41443ZM570.825 309.43005Q570.3094 309.43005 569.95 309.88318Q569.60626 310.3363 569.60626 311.55505Q569.60626 312.6488 569.95 313.10193Q570.3094 313.55505 570.825 313.55505Q571.35626 313.55505 571.7 313.10193Q572.0594 312.6488 572.0594 311.44568Q572.0594 310.3363 571.7 309.88318Q571.35626 309.43005 570.825 309.43005ZM570.84064 320.53943L577.10626 308.4613L578.2469 308.4613L571.9969 320.53943L570.84064 320.53943ZM575.79376 317.43005Q575.79376 316.19568 576.40314 315.3363Q577.02814 314.47693 578.2 314.47693Q579.27814 314.47693 579.98126 315.25818Q580.7 316.0238 580.7 317.50818Q580.7 318.9613 579.98126 319.75818Q579.2625 320.53943 578.21564 320.53943Q577.16876 320.53943 576.48126 319.75818Q575.79376 318.97693 575.79376 317.43005ZM578.2469 315.44568Q577.71564 315.44568 577.35626 315.8988Q577.0125 316.35193 577.0125 317.57068Q577.0125 318.66443 577.35626 319.11755Q577.71564 319.57068 578.23126 319.57068Q578.77814 319.57068 579.1219 319.11755Q579.46564 318.66443 579.46564 317.4613Q579.46564 316.35193 579.10626 315.8988Q578.7625 315.44568 578.2469 315.44568Z" fill-rule="nonzero"/><path stroke="#757575" stroke-width="1.0" stroke-linecap="butt" d="M581.45 303.61755L454.76666 303.61755L399.93423 303.61755" fill-rule="nonzero"/><path fill="#9e9e9e" d="M401.93423 303.61755C401.93423 302.513 401.0388 301.61755 399.93423 301.61755C398.82965 301.61755 397.93423 302.513 397.93423 303.61755C397.93423 304.72214 398.82965 305.61755 399.93423 305.61755C401.0388 305.61755 401.93423 304.72214 401.93423 303.61755" fill-rule="nonzero"/><path fill="#f3f3f3" d="M265.98438 37.55L265.98438 23.2375L268.84375 23.2375L272.21875 33.3625Q272.6875 34.784374 272.90625 35.4875Q273.15625 34.70625 273.67188 33.190624L277.09375 23.2375L279.64062 23.2375L279.64062 37.55L277.82812 37.55L277.82812 25.565624L273.65625 37.55L271.95312 37.55L267.8125 25.3625L267.8125 37.55L265.98438 37.55ZM289.92188 34.20625L291.73438 34.440624Q291.3125 36.01875 290.14062 36.909374Q288.98438 37.784374 287.17188 37.784374Q284.90625 37.784374 283.5625 36.39375Q282.23438 34.9875 282.23438 32.45625Q282.23438 29.83125 283.57812 28.39375Q284.92188 26.940624 287.07812 26.940624Q289.15625 26.940624 290.46875 28.3625Q291.79688 29.76875 291.79688 32.346874Q291.79688 32.503124 291.78125 32.815624L284.04688 32.815624Q284.14062 34.51875 285.01562 35.425Q285.89062 36.33125 287.1875 36.33125Q288.15625 36.33125 288.82812 35.83125Q289.51562 35.315624 289.92188 34.20625ZM284.14062 31.3625L289.9375 31.3625Q289.82812 30.065624 289.28125 29.409374Q288.4375 28.39375 287.09375 28.39375Q285.89062 28.39375 285.0625 29.20625Q284.23438 30.003124 284.14062 31.3625ZM300.54688 37.55L300.54688 36.2375Q299.5625 37.784374 297.64062 37.784374Q296.40625 37.784374 295.35938 37.096874Q294.32812 36.409374 293.75 35.190624Q293.1875 33.971874 293.1875 32.378124Q293.1875 30.815624 293.70312 29.55Q294.21875 28.284374 295.25 27.6125Q296.29688 26.940624 297.5625 26.940624Q298.5 26.940624 299.23438 27.346874Q299.96875 27.7375 300.4375 28.3625L300.4375 23.2375L302.17188 23.2375L302.17188 37.55L300.54688 37.55ZM294.98438 32.378124Q294.98438 34.3625 295.82812 35.346874Q296.67188 36.33125 297.8125 36.33125Q298.96875 36.33125 299.76562 35.39375Q300.57812 34.45625 300.57812 32.51875Q300.57812 30.39375 299.75 29.39375Q298.9375 28.39375 297.73438 28.39375Q296.5625 28.39375 295.76562 29.3625Q294.98438 30.315624 294.98438 32.378124ZM304.82812 25.253124L304.82812 23.2375L306.59375 23.2375L306.59375 25.253124L304.82812 25.253124ZM304.82812 37.55L304.82812 27.175L306.59375 27.175L306.59375 37.55L304.82812 37.55ZM315.60938 37.55L315.60938 36.01875Q314.40625 37.784374 312.32812 37.784374Q311.40625 37.784374 310.60938 37.440624Q309.8125 37.08125 309.42188 36.55Q309.04688 36.01875 308.89062 35.2375Q308.78125 34.721874 308.78125 33.596874L308.78125 27.175L310.53125 27.175L310.53125 32.925Q310.53125 34.3 310.64062 34.784374Q310.8125 35.471874 311.34375 35.878124Q311.89062 36.26875 312.67188 36.26875Q313.46875 36.26875 314.15625 35.8625Q314.85938 35.45625 315.14062 34.76875Q315.4375 34.065624 315.4375 32.7375L315.4375 27.175L317.1875 27.175L317.1875 37.55L315.60938 37.55ZM319.8125 37.55L319.8125 27.175L321.39062 27.175L321.39062 28.628124Q321.875 27.878124 322.6875 27.409374Q323.5 26.940624 324.53125 26.940624Q325.6875 26.940624 326.42188 27.425Q327.15625 27.89375 327.46875 28.753124Q328.70312 26.940624 330.67188 26.940624Q332.21875 26.940624 333.04688 27.8Q333.875 28.659374 333.875 30.425L333.875 37.55L332.125 37.55L332.125 31.01875Q332.125 29.95625 331.95312 29.503124Q331.78125 29.034374 331.32812 28.753124Q330.89062 28.471874 330.28125 28.471874Q329.1875 28.471874 328.45312 29.20625Q327.73438 29.925 327.73438 31.51875L327.73438 37.55L325.98438 37.55L325.98438 30.815624Q325.98438 29.64375 325.54688 29.065624Q325.125 28.471874 324.14062 28.471874Q323.40625 28.471874 322.76562 28.8625Q322.14062 29.253124 321.85938 30.003124Q321.57812 30.753124 321.57812 32.175L321.57812 37.55L319.8125 37.55Z" fill-rule="nonzero"/></svg>