<svg version="1.1" viewBox="0.0 0.0 600.0 371.0" fill="none" stroke="none" stroke-linecap="square" stroke-miterlimit="10" width="600" height="371" xmlns:xlink="http://www.w3.org/1999/xlink" xmlns="http://www.w3.org/2000/svg"><path fill="#ffffff" fill-opacity="0.0" d="M0 0L600.0 0L600.0 371.0L0 371.0L0 0Z" fill-rule="nonzero"/><path fill="#78a94e" d="M300.0 54.916668C353.1492 54.916668 402.2611 83.27143 428.83572 129.3C455.4103 175.32857 455.4103 232.0381 428.83572 278.06668L364.41785 240.875C377.70517 217.86072 377.70517 189.50595 364.41785 166.49167C351.13055 143.47739 326.57462 129.3 300.0 129.3Z" fill-rule="nonzero"/><path fill="#d0473d" d="M171.16429 278.06668C144.58968 232.0381 144.58968 175.32857 171.16429 129.3C197.73889 83.27143 246.85078 54.916668 300.0 54.916668L300.0 129.3C273.42538 129.3 248.86945 143.47739 235.58214 166.49167C222.29485 189.50595 222.29485 217.86072 235.58214 240.875Z" fill-rule="nonzero"/><path fill="#8c4595" d="M428.83572 278.06668C402.2611 324.09525 353.1492 352.45 300.0 352.45C246.85078 352.45 197.73889 324.09525 171.16429 278.06668L235.58214 240.875C248.86945 263.88928 273.42538 278.06668 300.0 278.06668C326.57462 278.06668 351.13055 263.88928 364.41785 240.875Z" fill-rule="nonzero"/><path fill="#ffffff" d="M371.87677 150.98958L373.47052 150.78645Q373.73615 152.1302 374.3924 152.72395Q375.04865 153.3177 375.98615 153.3177Q377.11115 153.3177 377.87677 152.55208Q378.6424 151.77083 378.6424 150.6302Q378.6424 149.53645 377.92365 148.83333Q377.22052 148.11458 376.12677 148.11458Q375.67365 148.11458 375.00177 148.30208L375.17365 146.91145Q375.3299 146.92708 375.43927 146.92708Q376.43927 146.92708 377.25177 146.39583Q378.06427 145.86458 378.06427 144.77083Q378.06427 143.89583 377.47052 143.33333Q376.87677 142.7552 375.9549 142.7552Q375.03302 142.7552 374.40802 143.33333Q373.79865 143.91145 373.62677 145.08333L372.04865 144.80208Q372.3299 143.20833 373.36115 142.33333Q374.3924 141.45833 375.92365 141.45833Q376.97052 141.45833 377.86115 141.91145Q378.75177 142.36458 379.22052 143.14583Q379.68927 143.92708 379.68927 144.80208Q379.68927 145.64583 379.23615 146.33333Q378.79865 147.0052 377.90802 147.41145Q379.04865 147.67708 379.67365 148.52083Q380.31427 149.34895 380.31427 150.58333Q380.31427 152.27083 379.0799 153.45833Q377.86115 154.6302 375.98615 154.6302Q374.28302 154.6302 373.15802 153.61458Q372.04865 152.59895 371.87677 150.98958ZM381.87677 150.98958L383.47052 150.78645Q383.73615 152.1302 384.3924 152.72395Q385.04865 153.3177 385.98615 153.3177Q387.11115 153.3177 387.87677 152.55208Q388.6424 151.77083 388.6424 150.6302Q388.6424 149.53645 387.92365 148.83333Q387.22052 148.11458 386.12677 148.11458Q385.67365 148.11458 385.00177 148.30208L385.17365 146.91145Q385.3299 146.92708 385.43927 146.92708Q386.43927 146.92708 387.25177 146.39583Q388.06427 145.86458 388.06427 144.77083Q388.06427 143.89583 387.47052 143.33333Q386.87677 142.7552 385.9549 142.7552Q385.03302 142.7552 384.40802 143.33333Q383.79865 143.91145 383.62677 145.08333L382.04865 144.80208Q382.3299 143.20833 383.36115 142.33333Q384.3924 141.45833 385.92365 141.45833Q386.97052 141.45833 387.86115 141.91145Q388.75177 142.36458 389.22052 143.14583Q389.68927 143.92708 389.68927 144.80208Q389.68927 145.64583 389.23615 146.33333Q388.79865 147.0052 387.90802 147.41145Q389.04865 147.67708 389.67365 148.52083Q390.31427 149.34895 390.31427 150.58333Q390.31427 152.27083 389.0799 153.45833Q387.86115 154.6302 385.98615 154.6302Q384.28302 154.6302 383.15802 153.61458Q382.04865 152.59895 381.87677 150.98958ZM392.7674 154.39583L392.7674 152.59895L394.56427 152.59895L394.56427 154.39583L392.7674 154.39583ZM396.87677 150.98958L398.47052 150.78645Q398.73615 152.1302 399.3924 152.72395Q400.04865 153.3177 400.98615 153.3177Q402.11115 153.3177 402.87677 152.55208Q403.6424 151.77083 403.6424 150.6302Q403.6424 149.53645 402.92365 148.83333Q402.22052 148.11458 401.12677 148.11458Q400.67365 148.11458 400.00177 148.30208L400.17365 146.91145Q400.3299 146.92708 400.43927 146.92708Q401.43927 146.92708 402.25177 146.39583Q403.06427 145.86458 403.06427 144.77083Q403.06427 143.89583 402.47052 143.33333Q401.87677 142.7552 400.9549 142.7552Q400.03302 142.7552 399.40802 143.33333Q398.79865 143.91145 398.62677 145.08333L397.04865 144.80208Q397.3299 143.20833 398.36115 142.33333Q399.3924 141.45833 400.92365 141.45833Q401.97052 141.45833 402.86115 141.91145Q403.75177 142.36458 404.22052 143.14583Q404.68927 143.92708 404.68927 144.80208Q404.68927 145.64583 404.23615 146.33333Q403.79865 147.0052 402.90802 147.41145Q404.04865 147.67708 404.67365 148.52083Q405.31427 149.34895 405.31427 150.58333Q405.31427 152.27083 404.0799 153.45833Q402.86115 154.6302 400.98615 154.6302Q399.28302 154.6302 398.15802 153.61458Q397.04865 152.59895 396.87677 150.98958ZM407.17365 144.59895Q407.17365 143.22395 407.86115 142.2552Q408.56427 141.28645 409.87677 141.28645Q411.09552 141.28645 411.8924 142.16145Q412.68927 143.02083 412.68927 144.70833Q412.68927 146.33333 411.87677 147.22395Q411.0799 148.09895 409.8924 148.09895Q408.73615 148.09895 407.9549 147.23958Q407.17365 146.36458 407.17365 144.59895ZM409.92365 142.3802Q409.3299 142.3802 408.93927 142.89583Q408.54865 143.39583 408.54865 144.7552Q408.54865 146.0052 408.93927 146.5052Q409.34552 147.0052 409.92365 147.0052Q410.5174 147.0052 410.90802 146.5052Q411.29865 145.98958 411.29865 144.64583Q411.29865 143.39583 410.90802 142.89583Q410.5174 142.3802 409.92365 142.3802ZM409.93927 154.86458L416.98615 141.28645L418.2674 141.28645L411.23615 154.86458L409.93927 154.86458ZM415.50177 151.36458Q415.50177 149.98958 416.18927 149.02083Q416.8924 148.05208 418.22052 148.05208Q419.43927 148.05208 420.22052 148.92708Q421.0174 149.78645 421.0174 151.47395Q421.0174 153.09895 420.22052 153.98958Q419.42365 154.86458 418.23615 154.86458Q417.06427 154.86458 416.28302 153.98958Q415.50177 153.11458 415.50177 151.36458ZM418.2674 149.14583Q417.67365 149.14583 417.28302 149.66145Q416.8924 150.16145 416.8924 151.53645Q416.8924 152.7552 417.28302 153.27083Q417.67365 153.78645 418.25177 153.78645Q418.86115 153.78645 419.25177 153.27083Q419.6424 152.7552 419.6424 151.41145Q419.6424 150.16145 419.25177 149.66145Q418.86115 149.14583 418.2674 149.14583Z" fill-rule="nonzero"/><path fill="#ffffff" d="M275.25 324.58298L276.84375 324.37985Q277.10938 325.7236 277.76562 326.31735Q278.42188 326.9111 279.35938 326.9111Q280.48438 326.9111 281.25 326.14548Q282.01562 325.36423 282.01562 324.2236Q282.01562 323.12985 281.29688 322.42673Q280.59375 321.70798 279.5 321.70798Q279.04688 321.70798 278.375 321.89548L278.54688 320.50485Q278.70312 320.52048 278.8125 320.52048Q279.8125 320.52048 280.625 319.98923Q281.4375 319.45798 281.4375 318.36423Q281.4375 317.48923 280.84375 316.92673Q280.25 316.3486 279.32812 316.3486Q278.40625 316.3486 277.78125 316.92673Q277.17188 317.50485 277.0 318.67673L275.42188 318.39548Q275.70312 316.80173 276.73438 315.92673Q277.76562 315.05173 279.29688 315.05173Q280.34375 315.05173 281.23438 315.50485Q282.125 315.95798 282.59375 316.73923Q283.0625 317.52048 283.0625 318.39548Q283.0625 319.23923 282.60938 319.92673Q282.17188 320.5986 281.28125 321.00485Q282.42188 321.27048 283.04688 322.11423Q283.6875 322.94235 283.6875 324.17673Q283.6875 325.86423 282.45312 327.05173Q281.23438 328.2236 279.35938 328.2236Q277.65625 328.2236 276.53125 327.20798Q275.42188 326.19235 275.25 324.58298ZM285.25 324.58298L286.84375 324.37985Q287.10938 325.7236 287.76562 326.31735Q288.42188 326.9111 289.35938 326.9111Q290.48438 326.9111 291.25 326.14548Q292.01562 325.36423 292.01562 324.2236Q292.01562 323.12985 291.29688 322.42673Q290.59375 321.70798 289.5 321.70798Q289.04688 321.70798 288.375 321.89548L288.54688 320.50485Q288.70312 320.52048 288.8125 320.52048Q289.8125 320.52048 290.625 319.98923Q291.4375 319.45798 291.4375 318.36423Q291.4375 317.48923 290.84375 316.92673Q290.25 316.3486 289.32812 316.3486Q288.40625 316.3486 287.78125 316.92673Q287.17188 317.50485 287.0 318.67673L285.42188 318.39548Q285.70312 316.80173 286.73438 315.92673Q287.76562 315.05173 289.29688 315.05173Q290.34375 315.05173 291.23438 315.50485Q292.125 315.95798 292.59375 316.73923Q293.0625 317.52048 293.0625 318.39548Q293.0625 319.23923 292.60938 319.92673Q292.17188 320.5986 291.28125 321.00485Q292.42188 321.27048 293.04688 322.11423Q293.6875 322.94235 293.6875 324.17673Q293.6875 325.86423 292.45312 327.05173Q291.23438 328.2236 289.35938 328.2236Q287.65625 328.2236 286.53125 327.20798Q285.42188 326.19235 285.25 324.58298ZM296.14062 327.98923L296.14062 326.19235L297.9375 326.19235L297.9375 327.98923L296.14062 327.98923ZM300.25 324.58298L301.84375 324.37985Q302.10938 325.7236 302.76562 326.31735Q303.42188 326.9111 304.35938 326.9111Q305.48438 326.9111 306.25 326.14548Q307.01562 325.36423 307.01562 324.2236Q307.01562 323.12985 306.29688 322.42673Q305.59375 321.70798 304.5 321.70798Q304.04688 321.70798 303.375 321.89548L303.54688 320.50485Q303.70312 320.52048 303.8125 320.52048Q304.8125 320.52048 305.625 319.98923Q306.4375 319.45798 306.4375 318.36423Q306.4375 317.48923 305.84375 316.92673Q305.25 316.3486 304.32812 316.3486Q303.40625 316.3486 302.78125 316.92673Q302.17188 317.50485 302.0 318.67673L300.42188 318.39548Q300.70312 316.80173 301.73438 315.92673Q302.76562 315.05173 304.29688 315.05173Q305.34375 315.05173 306.23438 315.50485Q307.125 315.95798 307.59375 316.73923Q308.0625 317.52048 308.0625 318.39548Q308.0625 319.23923 307.60938 319.92673Q307.17188 320.5986 306.28125 321.00485Q307.42188 321.27048 308.04688 322.11423Q308.6875 322.94235 308.6875 324.17673Q308.6875 325.86423 307.45312 327.05173Q306.23438 328.2236 304.35938 328.2236Q302.65625 328.2236 301.53125 327.20798Q300.42188 326.19235 300.25 324.58298ZM310.54688 318.19235Q310.54688 316.81735 311.23438 315.8486Q311.9375 314.87985 313.25 314.87985Q314.46875 314.87985 315.26562 315.75485Q316.0625 316.61423 316.0625 318.30173Q316.0625 319.92673 315.25 320.81735Q314.45312 321.69235 313.26562 321.69235Q312.10938 321.69235 311.32812 320.83298Q310.54688 319.95798 310.54688 318.19235ZM313.29688 315.9736Q312.70312 315.9736 312.3125 316.48923Q311.92188 316.98923 311.92188 318.3486Q311.92188 319.5986 312.3125 320.0986Q312.71875 320.5986 313.29688 320.5986Q313.89062 320.5986 314.28125 320.0986Q314.67188 319.58298 314.67188 318.23923Q314.67188 316.98923 314.28125 316.48923Q313.89062 315.9736 313.29688 315.9736ZM313.3125 328.45798L320.35938 314.87985L321.64062 314.87985L314.60938 328.45798L313.3125 328.45798ZM318.875 324.95798Q318.875 323.58298 319.5625 322.61423Q320.26562 321.64548 321.59375 321.64548Q322.8125 321.64548 323.59375 322.52048Q324.39062 323.37985 324.39062 325.06735Q324.39062 326.69235 323.59375 327.58298Q322.79688 328.45798 321.60938 328.45798Q320.4375 328.45798 319.65625 327.58298Q318.875 326.70798 318.875 324.95798ZM321.64062 322.73923Q321.04688 322.73923 320.65625 323.25485Q320.26562 323.75485 320.26562 325.12985Q320.26562 326.3486 320.65625 326.86423Q321.04688 327.37985 321.625 327.37985Q322.23438 327.37985 322.625 326.86423Q323.01562 326.3486 323.01562 325.00485Q323.01562 323.75485 322.625 323.25485Q322.23438 322.73923 321.64062 322.73923Z" fill-rule="nonzero"/><path fill="#ffffff" d="M178.62321 150.98958L180.21696 150.78645Q180.48259 152.1302 181.13884 152.72395Q181.79509 153.3177 182.73259 153.3177Q183.85759 153.3177 184.62321 152.55208Q185.38884 151.77083 185.38884 150.6302Q185.38884 149.53645 184.67009 148.83333Q183.96696 148.11458 182.87321 148.11458Q182.42009 148.11458 181.74821 148.30208L181.92009 146.91145Q182.07634 146.92708 182.18571 146.92708Q183.18571 146.92708 183.99821 146.39583Q184.81071 145.86458 184.81071 144.77083Q184.81071 143.89583 184.21696 143.33333Q183.62321 142.7552 182.70134 142.7552Q181.77946 142.7552 181.15446 143.33333Q180.54509 143.91145 180.37321 145.08333L178.79509 144.80208Q179.07634 143.20833 180.10759 142.33333Q181.13884 141.45833 182.67009 141.45833Q183.71696 141.45833 184.60759 141.91145Q185.49821 142.36458 185.96696 143.14583Q186.43571 143.92708 186.43571 144.80208Q186.43571 145.64583 185.98259 146.33333Q185.54509 147.0052 184.65446 147.41145Q185.79509 147.67708 186.42009 148.52083Q187.06071 149.34895 187.06071 150.58333Q187.06071 152.27083 185.82634 153.45833Q184.60759 154.6302 182.73259 154.6302Q181.02946 154.6302 179.90446 153.61458Q178.79509 152.59895 178.62321 150.98958ZM188.62321 150.98958L190.21696 150.78645Q190.48259 152.1302 191.13884 152.72395Q191.79509 153.3177 192.73259 153.3177Q193.85759 153.3177 194.62321 152.55208Q195.38884 151.77083 195.38884 150.6302Q195.38884 149.53645 194.67009 148.83333Q193.96696 148.11458 192.87321 148.11458Q192.42009 148.11458 191.74821 148.30208L191.92009 146.91145Q192.07634 146.92708 192.18571 146.92708Q193.18571 146.92708 193.99821 146.39583Q194.81071 145.86458 194.81071 144.77083Q194.81071 143.89583 194.21696 143.33333Q193.62321 142.7552 192.70134 142.7552Q191.77946 142.7552 191.15446 143.33333Q190.54509 143.91145 190.37321 145.08333L188.79509 144.80208Q189.07634 143.20833 190.10759 142.33333Q191.13884 141.45833 192.67009 141.45833Q193.71696 141.45833 194.60759 141.91145Q195.49821 142.36458 195.96696 143.14583Q196.43571 143.92708 196.43571 144.80208Q196.43571 145.64583 195.98259 146.33333Q195.54509 147.0052 194.65446 147.41145Q195.79509 147.67708 196.42009 148.52083Q197.06071 149.34895 197.06071 150.58333Q197.06071 152.27083 195.82634 153.45833Q194.60759 154.6302 192.73259 154.6302Q191.02946 154.6302 189.90446 153.61458Q188.79509 152.59895 188.62321 150.98958ZM199.51384 154.39583L199.51384 152.59895L201.31071 152.59895L201.31071 154.39583L199.51384 154.39583ZM203.62321 150.98958L205.21696 150.78645Q205.48259 152.1302 206.13884 152.72395Q206.79509 153.3177 207.73259 153.3177Q208.85759 153.3177 209.62321 152.55208Q210.38884 151.77083 210.38884 150.6302Q210.38884 149.53645 209.67009 148.83333Q208.96696 148.11458 207.87321 148.11458Q207.42009 148.11458 206.74821 148.30208L206.92009 146.91145Q207.07634 146.92708 207.18571 146.92708Q208.18571 146.92708 208.99821 146.39583Q209.81071 145.86458 209.81071 144.77083Q209.81071 143.89583 209.21696 143.33333Q208.62321 142.7552 207.70134 142.7552Q206.77946 142.7552 206.15446 143.33333Q205.54509 143.91145 205.37321 145.08333L203.79509 144.80208Q204.07634 143.20833 205.10759 142.33333Q206.13884 141.45833 207.67009 141.45833Q208.71696 141.45833 209.60759 141.91145Q210.49821 142.36458 210.96696 143.14583Q211.43571 143.92708 211.43571 144.80208Q211.43571 145.64583 210.98259 146.33333Q210.54509 147.0052 209.65446 147.41145Q210.79509 147.67708 211.42009 148.52083Q212.06071 149.34895 212.06071 150.58333Q212.06071 152.27083 210.82634 153.45833Q209.60759 154.6302 207.73259 154.6302Q206.02946 154.6302 204.90446 153.61458Q203.79509 152.59895 203.62321 150.98958ZM213.92009 144.59895Q213.92009 143.22395 214.60759 142.2552Q215.31071 141.28645 216.62321 141.28645Q217.84196 141.28645 218.63884 142.16145Q219.43571 143.02083 219.43571 144.70833Q219.43571 146.33333 218.62321 147.22395Q217.82634 148.09895 216.63884 148.09895Q215.48259 148.09895 214.70134 147.23958Q213.92009 146.36458 213.92009 144.59895ZM216.67009 142.3802Q216.07634 142.3802 215.68571 142.89583Q215.29509 143.39583 215.29509 144.7552Q215.29509 146.0052 215.68571 146.5052Q216.09196 147.0052 216.67009 147.0052Q217.26384 147.0052 217.65446 146.5052Q218.04509 145.98958 218.04509 144.64583Q218.04509 143.39583 217.65446 142.89583Q217.26384 142.3802 216.67009 142.3802ZM216.68571 154.86458L223.73259 141.28645L225.01384 141.28645L217.98259 154.86458L216.68571 154.86458ZM222.24821 151.36458Q222.24821 149.98958 222.93571 149.02083Q223.63884 148.05208 224.96696 148.05208Q226.18571 148.05208 226.96696 148.92708Q227.76384 149.78645 227.76384 151.47395Q227.76384 153.09895 226.96696 153.98958Q226.17009 154.86458 224.98259 154.86458Q223.81071 154.86458 223.02946 153.98958Q222.24821 153.11458 222.24821 151.36458ZM225.01384 149.14583Q224.42009 149.14583 224.02946 149.66145Q223.63884 150.16145 223.63884 151.53645Q223.63884 152.7552 224.02946 153.27083Q224.42009 153.78645 224.99821 153.78645Q225.60759 153.78645 225.99821 153.27083Q226.38884 152.7552 226.38884 151.41145Q226.38884 150.16145 225.99821 149.66145Q225.60759 149.14583 225.01384 149.14583Z" fill-rule="nonzero"/><path stroke="#ffffff" stroke-width="1.0" stroke-linejoin="round" stroke-linecap="round" d="M364.41785 240.875C377.70517 217.86072 377.70517 189.50595 364.41785 166.49167C351.13055 143.47739 326.57462 129.3 300.0 129.3L300.0 54.916668C353.1492 54.916668 402.2611 83.27143 428.83572 129.3C455.4103 175.32857 455.4103 232.0381 428.83572 278.06668" fill-rule="nonzero"/><path stroke="#ffffff" stroke-width="1.0" stroke-linejoin="round" stroke-linecap="round" d="M235.58214 240.875C248.86945 263.88928 273.42538 278.06668 300.0 278.06668C326.57462 278.06668 351.13055 263.88928 364.41785 240.875L428.83572 278.06668C402.2611 324.09525 353.1492 352.45 300.0 352.45C246.85078 352.45 197.73889 324.09525 171.16429 278.06668" fill-rule="nonzero"/><path stroke="#ffffff" stroke-width="1.0" stroke-linejoin="round" stroke-linecap="round" d="M300.0 129.3C273.42538 129.3 248.86945 143.47739 235.58214 166.49167C222.29485 189.50595 222.29485 217.86072 235.58214 240.875L171.16429 278.06668C144.58968 232.0381 144.58968 175.32857 171.16429 129.3C197.73889 83.27143 246.85078 54.916668 300.0 54.916668" fill-rule="nonzero"/><path fill="#efefef" d="M19.76875 127.519165L19.76875 116.06604L21.33125 116.06604L27.346874 125.050415L27.346874 116.06604L28.8 116.06604L28.8 127.519165L27.2375 127.519165L21.221874 118.519165L21.221874 127.519165L19.76875 127.519165ZM37.01875 126.487915Q36.2375 127.15979 35.51875 127.44104Q34.8 127.706665 33.971874 127.706665Q32.596874 127.706665 31.8625 127.03479Q31.128124 126.362915 31.128124 125.331665Q31.128124 124.72229 31.409374 124.22229Q31.690624 123.706665 32.128124 123.40979Q32.58125 123.09729 33.14375 122.94104Q33.565624 122.831665 34.39375 122.737915Q36.096874 122.53479 36.909374 122.25354Q36.909374 121.956665 36.909374 121.87854Q36.909374 121.019165 36.51875 120.675415Q35.971874 120.19104 34.909374 120.19104Q33.925 120.19104 33.440624 120.550415Q32.971874 120.894165 32.753124 121.769165L31.378124 121.581665Q31.565624 120.706665 31.9875 120.15979Q32.425 119.612915 33.2375 119.331665Q34.05 119.03479 35.1125 119.03479Q36.175 119.03479 36.83125 119.28479Q37.503124 119.53479 37.815624 119.90979Q38.128124 120.28479 38.253124 120.862915Q38.33125 121.22229 38.33125 122.15979L38.33125 124.03479Q38.33125 126.00354 38.409374 126.519165Q38.503124 127.03479 38.76875 127.519165L37.3 127.519165Q37.08125 127.081665 37.01875 126.487915ZM36.909374 123.34729Q36.14375 123.65979 34.6125 123.87854Q33.7375 124.00354 33.378124 124.15979Q33.01875 124.31604 32.815624 124.62854Q32.628124 124.925415 32.628124 125.28479Q32.628124 125.84729 33.05 126.22229Q33.4875 126.59729 34.3 126.59729Q35.1125 126.59729 35.7375 126.25354Q36.378124 125.894165 36.675 125.269165Q36.909374 124.800415 36.909374 123.862915L36.909374 123.34729ZM42.909374 127.519165L39.753124 119.22229L41.2375 119.22229L43.01875 124.19104Q43.315624 124.987915 43.55 125.862915Q43.7375 125.206665 44.08125 124.28479L45.925 119.22229L47.3625 119.22229L44.221874 127.519165L42.909374 127.519165ZM54.01875 126.487915Q53.2375 127.15979 52.51875 127.44104Q51.8 127.706665 50.971874 127.706665Q49.596874 127.706665 48.8625 127.03479Q48.128124 126.362915 48.128124 125.331665Q48.128124 124.72229 48.409374 124.22229Q48.690624 123.706665 49.128124 123.40979Q49.58125 123.09729 50.14375 122.94104Q50.565624 122.831665 51.39375 122.737915Q53.096874 122.53479 53.909374 122.25354Q53.909374 121.956665 53.909374 121.87854Q53.909374 121.019165 53.51875 120.675415Q52.971874 120.19104 51.909374 120.19104Q50.925 120.19104 50.440624 120.550415Q49.971874 120.894165 49.753124 121.769165L48.378124 121.581665Q48.565624 120.706665 48.9875 120.15979Q49.425 119.612915 50.2375 119.331665Q51.05 119.03479 52.1125 119.03479Q53.175 119.03479 53.83125 119.28479Q54.503124 119.53479 54.815624 119.90979Q55.128124 120.28479 55.253124 120.862915Q55.33125 121.22229 55.33125 122.15979L55.33125 124.03479Q55.33125 126.00354 55.409374 126.519165Q55.503124 127.03479 55.76875 127.519165L54.3 127.519165Q54.08125 127.081665 54.01875 126.487915ZM53.909374 123.34729Q53.14375 123.65979 51.6125 123.87854Q50.7375 124.00354 50.378124 124.15979Q50.01875 124.31604 49.815624 124.62854Q49.628124 124.925415 49.628124 125.28479Q49.628124 125.84729 50.05 126.22229Q50.4875 126.59729 51.3 126.59729Q52.1125 126.59729 52.7375 126.25354Q53.378124 125.894165 53.675 125.269165Q53.909374 124.800415 53.909374 123.862915L53.909374 123.34729ZM57.58125 127.519165L57.58125 116.06604L58.9875 116.06604L58.9875 127.519165L57.58125 127.519165ZM65.26875 123.831665L66.70625 123.706665Q66.8 124.56604 67.175 125.12854Q67.55 125.675415 68.33125 126.019165Q69.1125 126.34729 70.08125 126.34729Q70.95625 126.34729 71.6125 126.09729Q72.28438 125.831665 72.59688 125.394165Q72.925 124.94104 72.925 124.40979Q72.925 123.862915 72.6125 123.47229Q72.3 123.06604 71.58125 122.78479Q71.12813 122.612915 69.55 122.237915Q67.97188 121.84729 67.33125 121.519165Q66.51875 121.081665 66.1125 120.456665Q65.70625 119.81604 65.70625 119.019165Q65.70625 118.15979 66.19063 117.40979Q66.69063 116.644165 67.62813 116.25354Q68.58125 115.862915 69.7375 115.862915Q71.01875 115.862915 71.9875 116.28479Q72.95625 116.69104 73.47188 117.487915Q74.00313 118.28479 74.05 119.28479L72.59688 119.394165Q72.47188 118.31604 71.8 117.769165Q71.12813 117.206665 69.8 117.206665Q68.425 117.206665 67.8 117.706665Q67.175 118.206665 67.175 118.925415Q67.175 119.53479 67.6125 119.94104Q68.05 120.331665 69.89375 120.75354Q71.75313 121.175415 72.44063 121.487915Q73.44063 121.94104 73.90938 122.65979Q74.39375 123.362915 74.39375 124.28479Q74.39375 125.19104 73.8625 126.00354Q73.34688 126.81604 72.3625 127.269165Q71.37813 127.72229 70.15938 127.72229Q68.59688 127.72229 67.55 127.269165Q66.50313 126.800415 65.89375 125.894165Q65.3 124.987915 65.26875 123.831665ZM79.675 126.25354L79.87813 127.50354Q79.28438 127.62854 78.81563 127.62854Q78.05 127.62854 77.62813 127.394165Q77.20625 127.144165 77.03438 126.75354Q76.8625 126.34729 76.8625 125.081665L76.8625 120.31604L75.83125 120.31604L75.83125 119.22229L76.8625 119.22229L76.8625 117.15979L78.26875 116.31604L78.26875 119.22229L79.675 119.22229L79.675 120.31604L78.26875 120.31604L78.26875 125.15979Q78.26875 125.769165 78.33125 125.94104Q78.40938 126.112915 78.58125 126.22229Q78.75313 126.31604 79.06563 126.31604Q79.3 126.31604 79.675 126.25354ZM80.59688 127.519165L80.59688 119.22229L81.8625 119.22229L81.8625 120.47229Q82.34688 119.59729 82.75313 119.31604Q83.15938 119.03479 83.65938 119.03479Q84.3625 119.03479 85.09688 119.487915L84.6125 120.78479Q84.09688 120.487915 83.58125 120.487915Q83.12813 120.487915 82.75313 120.769165Q82.39375 121.03479 82.2375 121.53479Q82.00313 122.28479 82.00313 123.175415L82.00313 127.519165L80.59688 127.519165ZM91.05 127.519165L91.05 126.300415Q90.08125 127.706665 88.40938 127.706665Q87.675 127.706665 87.03438 127.425415Q86.40938 127.144165 86.09688 126.72229Q85.78438 126.28479 85.65938 125.675415Q85.58125 125.25354 85.58125 124.362915L85.58125 119.22229L86.9875 119.22229L86.9875 123.81604Q86.9875 124.925415 87.06563 125.300415Q87.20625 125.862915 87.62813 126.175415Q88.06563 126.487915 88.69063 126.487915Q89.33125 126.487915 89.87813 126.175415Q90.44063 125.84729 90.65938 125.28479Q90.89375 124.72229 90.89375 123.65979L90.89375 119.22229L92.3 119.22229L92.3 127.519165L91.05 127.519165ZM100.01875 124.47229L101.40938 124.65979Q101.175 126.081665 100.2375 126.894165Q99.31563 127.706665 97.95625 127.706665Q96.25313 127.706665 95.20625 126.59729Q94.175 125.47229 94.175 123.394165Q94.175 122.050415 94.6125 121.050415Q95.06563 120.03479 95.97188 119.53479Q96.89375 119.03479 97.95625 119.03479Q99.31563 119.03479 100.175 119.72229Q101.03438 120.394165 101.26875 121.65979L99.90938 121.862915Q99.70625 121.03479 99.20625 120.612915Q98.72188 120.19104 98.01875 120.19104Q96.95625 120.19104 96.28438 120.956665Q95.62813 121.706665 95.62813 123.362915Q95.62813 125.03479 96.26875 125.800415Q96.90938 126.550415 97.94063 126.550415Q98.76875 126.550415 99.31563 126.050415Q99.87813 125.53479 100.01875 124.47229ZM105.675 126.25354L105.87813 127.50354Q105.28438 127.62854 104.81563 127.62854Q104.05 127.62854 103.62813 127.394165Q103.20625 127.144165 103.03438 126.75354Q102.8625 126.34729 102.8625 125.081665L102.8625 120.31604L101.83125 120.31604L101.83125 119.22229L102.8625 119.22229L102.8625 117.15979L104.26875 116.31604L104.26875 119.22229L105.675 119.22229L105.675 120.31604L104.26875 120.31604L104.26875 125.15979Q104.26875 125.769165 104.33125 125.94104Q104.40938 126.112915 104.58125 126.22229Q104.75313 126.31604 105.06563 126.31604Q105.3 126.31604 105.675 126.25354ZM112.05 127.519165L112.05 126.300415Q111.08125 127.706665 109.40938 127.706665Q108.675 127.706665 108.03438 127.425415Q107.40938 127.144165 107.09688 126.72229Q106.78438 126.28479 106.65938 125.675415Q106.58125 125.25354 106.58125 124.362915L106.58125 119.22229L107.9875 119.22229L107.9875 123.81604Q107.9875 124.925415 108.06563 125.300415Q108.20625 125.862915 108.62813 126.175415Q109.06563 126.487915 109.69063 126.487915Q110.33125 126.487915 110.87813 126.175415Q111.44063 125.84729 111.65938 125.28479Q111.89375 124.72229 111.89375 123.65979L111.89375 119.22229L113.3 119.22229L113.3 127.519165L112.05 127.519165ZM115.59688 127.519165L115.59688 119.22229L116.8625 119.22229L116.8625 120.47229Q117.34688 119.59729 117.75313 119.31604Q118.15938 119.03479 118.65938 119.03479Q119.3625 119.03479 120.09688 119.487915L119.6125 120.78479Q119.09688 120.487915 118.58125 120.487915Q118.12813 120.487915 117.75313 120.769165Q117.39375 121.03479 117.2375 121.53479Q117.00313 122.28479 117.00313 123.175415L117.00313 127.519165L115.59688 127.519165ZM126.28438 124.84729L127.7375 125.019165Q127.39375 126.300415 126.45625 127.00354Q125.53438 127.706665 124.09688 127.706665Q122.26875 127.706665 121.20625 126.581665Q120.14375 125.456665 120.14375 123.44104Q120.14375 121.34729 121.22188 120.19104Q122.3 119.03479 124.01875 119.03479Q125.675 119.03479 126.72188 120.175415Q127.78438 121.300415 127.78438 123.34729Q127.78438 123.47229 127.78438 123.72229L121.59688 123.72229Q121.675 125.09729 122.3625 125.831665Q123.06563 126.550415 124.09688 126.550415Q124.87813 126.550415 125.425 126.144165Q125.97188 125.737915 126.28438 124.84729ZM121.675 122.56604L126.3 122.56604Q126.20625 121.519165 125.76875 121.00354Q125.09688 120.19104 124.03438 120.19104Q123.06563 120.19104 122.39375 120.84729Q121.7375 121.487915 121.675 122.56604ZM129.05 125.03479L130.44063 124.81604Q130.55 125.65979 131.08125 126.112915Q131.62813 126.550415 132.58125 126.550415Q133.55 126.550415 134.01875 126.15979Q134.4875 125.75354 134.4875 125.22229Q134.4875 124.75354 134.08125 124.47229Q133.78438 124.28479 132.64375 124.00354Q131.09688 123.612915 130.4875 123.331665Q129.89375 123.03479 129.58125 122.53479Q129.28438 122.03479 129.28438 121.425415Q129.28438 120.862915 129.53438 120.394165Q129.78438 119.925415 130.22188 119.612915Q130.55 119.362915 131.1125 119.206665Q131.69063 119.03479 132.33125 119.03479Q133.31563 119.03479 134.05 119.31604Q134.78438 119.59729 135.12813 120.081665Q135.4875 120.550415 135.62813 121.362915L134.25313 121.550415Q134.15938 120.90979 133.70625 120.550415Q133.25313 120.19104 132.44063 120.19104Q131.47188 120.19104 131.05 120.519165Q130.64375 120.831665 130.64375 121.25354Q130.64375 121.53479 130.81563 121.75354Q130.9875 121.97229 131.34688 122.12854Q131.56563 122.206665 132.59688 122.487915Q134.08125 122.87854 134.675 123.144165Q135.26875 123.394165 135.59688 123.87854Q135.94063 124.362915 135.94063 125.081665Q135.94063 125.78479 135.51875 126.40979Q135.1125 127.019165 134.33125 127.362915Q133.56563 127.706665 132.59688 127.706665Q130.97188 127.706665 130.12813 127.03479Q129.28438 126.362915 129.05 125.03479Z" fill-rule="nonzero"/><path fill="#9e9e9e" d="M19.221874 146.48792L20.628124 146.30042Q20.878124 147.50354 21.45625 148.03479Q22.034374 148.55042 22.878124 148.55042Q23.8625 148.55042 24.55 147.86292Q25.2375 147.17542 25.2375 146.15979Q25.2375 145.19104 24.596874 144.56604Q23.971874 143.94104 22.9875 143.94104Q22.596874 143.94104 22.003124 144.09729L22.159374 142.86292Q22.3 142.87854 22.378124 142.87854Q23.284374 142.87854 24.003124 142.40979Q24.721874 141.94104 24.721874 140.95667Q24.721874 140.19104 24.190624 139.69104Q23.675 139.17542 22.846874 139.17542Q22.01875 139.17542 21.471874 139.69104Q20.925 140.20667 20.76875 141.23792L19.3625 140.98792Q19.628124 139.56604 20.534374 138.80042Q21.45625 138.01917 22.815624 138.01917Q23.753124 138.01917 24.534374 138.42542Q25.33125 138.81604 25.7375 139.51917Q26.159374 140.20667 26.159374 140.98792Q26.159374 141.73792 25.753124 142.34729Q25.3625 142.95667 24.58125 143.31604Q25.596874 143.55042 26.159374 144.28479Q26.721874 145.01917 26.721874 146.12854Q26.721874 147.62854 25.628124 148.67542Q24.534374 149.72229 22.8625 149.72229Q21.3625 149.72229 20.3625 148.83167Q19.3625 147.92542 19.221874 146.48792ZM28.221874 146.48792L29.628124 146.30042Q29.878124 147.50354 30.45625 148.03479Q31.034374 148.55042 31.878124 148.55042Q32.8625 148.55042 33.55 147.86292Q34.2375 147.17542 34.2375 146.15979Q34.2375 145.19104 33.596874 144.56604Q32.971874 143.94104 31.9875 143.94104Q31.596874 143.94104 31.003124 144.09729L31.159374 142.86292Q31.3 142.87854 31.378124 142.87854Q32.284374 142.87854 33.003124 142.40979Q33.721874 141.94104 33.721874 140.95667Q33.721874 140.19104 33.190624 139.69104Q32.675 139.17542 31.846874 139.17542Q31.01875 139.17542 30.471874 139.69104Q29.925 140.20667 29.76875 141.23792L28.3625 140.98792Q28.628124 139.56604 29.534374 138.80042Q30.45625 138.01917 31.815624 138.01917Q32.753124 138.01917 33.534374 138.42542Q34.33125 138.81604 34.7375 139.51917Q35.159374 140.20667 35.159374 140.98792Q35.159374 141.73792 34.753124 142.34729Q34.3625 142.95667 33.58125 143.31604Q34.596874 143.55042 35.159374 144.28479Q35.721874 145.01917 35.721874 146.12854Q35.721874 147.62854 34.628124 148.67542Q33.534374 149.72229 31.8625 149.72229Q30.3625 149.72229 29.3625 148.83167Q28.3625 147.92542 28.221874 146.48792ZM38.003124 149.51917L38.003124 147.90979L39.6125 147.90979L39.6125 149.51917L38.003124 149.51917ZM41.221874 146.48792L42.628124 146.30042Q42.878124 147.50354 43.45625 148.03479Q44.034374 148.55042 44.878124 148.55042Q45.8625 148.55042 46.55 147.86292Q47.2375 147.17542 47.2375 146.15979Q47.2375 145.19104 46.596874 144.56604Q45.971874 143.94104 44.9875 143.94104Q44.596874 143.94104 44.003124 144.09729L44.159374 142.86292Q44.3 142.87854 44.378124 142.87854Q45.284374 142.87854 46.003124 142.40979Q46.721874 141.94104 46.721874 140.95667Q46.721874 140.19104 46.190624 139.69104Q45.675 139.17542 44.846874 139.17542Q44.01875 139.17542 43.471874 139.69104Q42.925 140.20667 42.76875 141.23792L41.3625 140.98792Q41.628124 139.56604 42.534374 138.80042Q43.45625 138.01917 44.815624 138.01917Q45.753124 138.01917 46.534374 138.42542Q47.33125 138.81604 47.7375 139.51917Q48.159374 140.20667 48.159374 140.98792Q48.159374 141.73792 47.753124 142.34729Q47.3625 142.95667 46.58125 143.31604Q47.596874 143.55042 48.159374 144.28479Q48.721874 145.01917 48.721874 146.12854Q48.721874 147.62854 47.628124 148.67542Q46.534374 149.72229 44.8625 149.72229Q43.3625 149.72229 42.3625 148.83167Q41.3625 147.92542 41.221874 146.48792ZM50.4875 140.81604Q50.4875 139.58167 51.096874 138.72229Q51.721874 137.86292 52.89375 137.86292Q53.971874 137.86292 54.675 138.64417Q55.378124 139.40979 55.378124 140.89417Q55.378124 142.34729 54.659374 143.14417Q53.95625 143.92542 52.909374 143.92542Q51.8625 143.92542 51.175 143.15979Q50.4875 142.37854 50.4875 140.81604ZM52.925 138.83167Q52.409374 138.83167 52.05 139.28479Q51.70625 139.73792 51.70625 140.95667Q51.70625 142.05042 52.05 142.50354Q52.409374 142.95667 52.925 142.95667Q53.45625 142.95667 53.8 142.50354Q54.159374 142.05042 54.159374 140.84729Q54.159374 139.73792 53.8 139.28479Q53.45625 138.83167 52.925 138.83167ZM52.940624 149.94104L59.20625 137.86292L60.346874 137.86292L54.096874 149.94104L52.940624 149.94104ZM57.89375 146.83167Q57.89375 145.59729 58.503124 144.73792Q59.128124 143.87854 60.3 143.87854Q61.378124 143.87854 62.08125 144.65979Q62.8 145.42542 62.8 146.90979Q62.8 148.36292 62.08125 149.15979Q61.3625 149.94104 60.315624 149.94104Q59.26875 149.94104 58.58125 149.15979Q57.89375 148.37854 57.89375 146.83167ZM60.346874 144.84729Q59.815624 144.84729 59.45625 145.30042Q59.1125 145.75354 59.1125 146.97229Q59.1125 148.06604 59.45625 148.51917Q59.815624 148.97229 60.33125 148.97229Q60.878124 148.97229 61.221874 148.51917Q61.565624 148.06604 61.565624 146.86292Q61.565624 145.75354 61.20625 145.30042Q60.8625 144.84729 60.346874 144.84729Z" fill-rule="nonzero"/><path stroke="#757575" stroke-width="1.0" stroke-linecap="butt" d="M18.55 133.01917L145.23334 133.01917L177.60608 133.01917" fill-rule="nonzero"/><path fill="#9e9e9e" d="M179.60608 133.01917C179.60608 131.9146 178.71065 131.01917 177.60608 131.01917C176.50151 131.01917 175.60608 131.9146 175.60608 133.01917C175.60608 134.12373 176.50151 135.01917 177.60608 135.01917C178.71065 135.01917 179.60608 134.12373 179.60608 133.01917" fill-rule="nonzero"/><path fill="#efefef" d="M481.41876 127.519165L485.825 116.06604L487.46564 116.06604L492.15314 127.519165L490.41876 127.519165L489.09064 124.050415L484.29376 124.050415L483.04376 127.519165L481.41876 127.519165ZM484.73126 122.81604L488.6219 122.81604L487.41876 119.644165Q486.8719 118.19104 486.60626 117.269165Q486.3875 118.362915 485.9969 119.456665L484.73126 122.81604ZM493.4969 127.519165L493.4969 119.22229L494.7625 119.22229L494.7625 120.47229Q495.2469 119.59729 495.65314 119.31604Q496.0594 119.03479 496.5594 119.03479Q497.2625 119.03479 497.9969 119.487915L497.5125 120.78479Q496.9969 120.487915 496.48126 120.487915Q496.02814 120.487915 495.65314 120.769165Q495.29376 121.03479 495.1375 121.53479Q494.90314 122.28479 494.90314 123.175415L494.90314 127.519165L493.4969 127.519165ZM503.91876 124.47229L505.3094 124.65979Q505.075 126.081665 504.1375 126.894165Q503.21564 127.706665 501.85626 127.706665Q500.15314 127.706665 499.10626 126.59729Q498.075 125.47229 498.075 123.394165Q498.075 122.050415 498.5125 121.050415Q498.96564 120.03479 499.8719 119.53479Q500.79376 119.03479 501.85626 119.03479Q503.21564 119.03479 504.075 119.72229Q504.9344 120.394165 505.16876 121.65979L503.8094 121.862915Q503.60626 121.03479 503.10626 120.612915Q502.6219 120.19104 501.91876 120.19104Q500.85626 120.19104 500.1844 120.956665Q499.52814 121.706665 499.52814 123.362915Q499.52814 125.03479 500.16876 125.800415Q500.8094 126.550415 501.84064 126.550415Q502.66876 126.550415 503.21564 126.050415Q503.77814 125.53479 503.91876 124.47229ZM506.5125 127.519165L506.5125 116.06604L507.91876 116.06604L507.91876 120.175415Q508.90314 119.03479 510.40314 119.03479Q511.325 119.03479 511.9969 119.394165Q512.6844 119.75354 512.96564 120.394165Q513.2625 121.03479 513.2625 122.25354L513.2625 127.519165L511.85626 127.519165L511.85626 122.25354Q511.85626 121.206665 511.40314 120.72229Q510.95 120.237915 510.10626 120.237915Q509.48126 120.237915 508.9344 120.56604Q508.3875 120.894165 508.15314 121.456665Q507.91876 122.00354 507.91876 122.97229L507.91876 127.519165L506.5125 127.519165ZM515.5125 117.675415L515.5125 116.06604L516.91876 116.06604L516.91876 117.675415L515.5125 117.675415ZM515.5125 127.519165L515.5125 119.22229L516.91876 119.22229L516.91876 127.519165L515.5125 127.519165ZM522.575 126.25354L522.77814 127.50354Q522.1844 127.62854 521.71564 127.62854Q520.95 127.62854 520.52814 127.394165Q520.10626 127.144165 519.9344 126.75354Q519.7625 126.34729 519.7625 125.081665L519.7625 120.31604L518.73126 120.31604L518.73126 119.22229L519.7625 119.22229L519.7625 117.15979L521.16876 116.31604L521.16876 119.22229L522.575 119.22229L522.575 120.31604L521.16876 120.31604L521.16876 125.15979Q521.16876 125.769165 521.23126 125.94104Q521.3094 126.112915 521.48126 126.22229Q521.65314 126.31604 521.96564 126.31604Q522.2 126.31604 522.575 126.25354ZM529.1844 124.84729L530.6375 125.019165Q530.29376 126.300415 529.35626 127.00354Q528.4344 127.706665 526.9969 127.706665Q525.16876 127.706665 524.10626 126.581665Q523.04376 125.456665 523.04376 123.44104Q523.04376 121.34729 524.1219 120.19104Q525.2 119.03479 526.91876 119.03479Q528.575 119.03479 529.6219 120.175415Q530.6844 121.300415 530.6844 123.34729Q530.6844 123.47229 530.6844 123.72229L524.4969 123.72229Q524.575 125.09729 525.2625 125.831665Q525.96564 126.550415 526.9969 126.550415Q527.77814 126.550415 528.325 126.144165Q528.8719 125.737915 529.1844 124.84729ZM524.575 122.56604L529.2 122.56604Q529.10626 121.519165 528.66876 121.00354Q527.9969 120.19104 526.9344 120.19104Q525.96564 120.19104 525.29376 120.84729Q524.6375 121.487915 524.575 122.56604ZM537.91876 124.47229L539.3094 124.65979Q539.075 126.081665 538.1375 126.894165Q537.21564 127.706665 535.85626 127.706665Q534.15314 127.706665 533.10626 126.59729Q532.075 125.47229 532.075 123.394165Q532.075 122.050415 532.5125 121.050415Q532.96564 120.03479 533.8719 119.53479Q534.79376 119.03479 535.85626 119.03479Q537.21564 119.03479 538.075 119.72229Q538.9344 120.394165 539.16876 121.65979L537.8094 121.862915Q537.60626 121.03479 537.10626 120.612915Q536.6219 120.19104 535.91876 120.19104Q534.85626 120.19104 534.1844 120.956665Q533.52814 121.706665 533.52814 123.362915Q533.52814 125.03479 534.16876 125.800415Q534.8094 126.550415 535.84064 126.550415Q536.66876 126.550415 537.21564 126.050415Q537.77814 125.53479 537.91876 124.47229ZM543.575 126.25354L543.77814 127.50354Q543.1844 127.62854 542.71564 127.62854Q541.95 127.62854 541.52814 127.394165Q541.10626 127.144165 540.9344 126.75354Q540.7625 126.34729 540.7625 125.081665L540.7625 120.31604L539.73126 120.31604L539.73126 119.22229L540.7625 119.22229L540.7625 117.15979L542.16876 116.31604L542.16876 119.22229L543.575 119.22229L543.575 120.31604L542.16876 120.31604L542.16876 125.15979Q542.16876 125.769165 542.23126 125.94104Q542.3094 126.112915 542.48126 126.22229Q542.65314 126.31604 542.96564 126.31604Q543.2 126.31604 543.575 126.25354ZM549.95 127.519165L549.95 126.300415Q548.98126 127.706665 547.3094 127.706665Q546.575 127.706665 545.9344 127.425415Q545.3094 127.144165 544.9969 126.72229Q544.6844 126.28479 544.5594 125.675415Q544.48126 125.25354 544.48126 124.362915L544.48126 119.22229L545.8875 119.22229L545.8875 123.81604Q545.8875 124.925415 545.96564 125.300415Q546.10626 125.862915 546.52814 126.175415Q546.96564 126.487915 547.59064 126.487915Q548.23126 126.487915 548.77814 126.175415Q549.34064 125.84729 549.5594 125.28479Q549.79376 124.72229 549.79376 123.65979L549.79376 119.22229L551.2 119.22229L551.2 127.519165L549.95 127.519165ZM553.4969 127.519165L553.4969 119.22229L554.7625 119.22229L554.7625 120.47229Q555.2469 119.59729 555.65314 119.31604Q556.0594 119.03479 556.5594 119.03479Q557.2625 119.03479 557.9969 119.487915L557.5125 120.78479Q556.9969 120.487915 556.48126 120.487915Q556.02814 120.487915 555.65314 120.769165Q555.29376 121.03479 555.1375 121.53479Q554.90314 122.28479 554.90314 123.175415L554.90314 127.519165L553.4969 127.519165ZM564.1844 124.84729L565.6375 125.019165Q565.29376 126.300415 564.35626 127.00354Q563.4344 127.706665 561.9969 127.706665Q560.16876 127.706665 559.10626 126.581665Q558.04376 125.456665 558.04376 123.44104Q558.04376 121.34729 559.1219 120.19104Q560.2 119.03479 561.91876 119.03479Q563.575 119.03479 564.6219 120.175415Q565.6844 121.300415 565.6844 123.34729Q565.6844 123.47229 565.6844 123.72229L559.4969 123.72229Q559.575 125.09729 560.2625 125.831665Q560.96564 126.550415 561.9969 126.550415Q562.77814 126.550415 563.325 126.144165Q563.8719 125.737915 564.1844 124.84729ZM559.575 122.56604L564.2 122.56604Q564.10626 121.519165 563.66876 121.00354Q562.9969 120.19104 561.9344 120.19104Q560.96564 120.19104 560.29376 120.84729Q559.6375 121.487915 559.575 122.56604ZM578.0594 126.15979Q577.35626 126.94104 576.52814 127.331665Q575.71564 127.72229 574.7625 127.72229Q573.0125 127.72229 571.98126 126.519165Q571.1375 125.550415 571.1375 124.362915Q571.1375 123.300415 571.825 122.44104Q572.5125 121.581665 573.8719 120.94104Q573.09064 120.050415 572.825 119.50354Q572.575 118.94104 572.575 118.425415Q572.575 117.394165 573.3875 116.62854Q574.2 115.862915 575.41876 115.862915Q576.59064 115.862915 577.34064 116.581665Q578.09064 117.300415 578.09064 118.31604Q578.09064 119.94104 575.91876 121.09729L577.98126 123.72229Q578.325 123.03479 578.52814 122.12854L579.98126 122.44104Q579.60626 123.94104 578.96564 124.90979Q579.7625 125.956665 580.7625 126.65979L579.8094 127.78479Q578.96564 127.237915 578.0594 126.15979ZM575.2 120.19104Q576.10626 119.65979 576.3719 119.25354Q576.65314 118.84729 576.65314 118.34729Q576.65314 117.769165 576.27814 117.394165Q575.90314 117.019165 575.35626 117.019165Q574.77814 117.019165 574.40314 117.394165Q574.02814 117.75354 574.02814 118.28479Q574.02814 118.550415 574.15314 118.84729Q574.29376 119.144165 574.575 119.47229L575.2 120.19104ZM577.16876 125.050415L574.59064 121.862915Q573.45 122.53479 573.04376 123.12854Q572.65314 123.706665 572.65314 124.269165Q572.65314 124.97229 573.2 125.72229Q573.7625 126.47229 574.77814 126.47229Q575.41876 126.47229 576.09064 126.081665Q576.7625 125.675415 577.16876 125.050415Z" fill-rule="nonzero"/><path fill="#9e9e9e" d="M537.1219 146.48792L538.52814 146.30042Q538.77814 147.50354 539.35626 148.03479Q539.9344 148.55042 540.77814 148.55042Q541.7625 148.55042 542.45 147.86292Q543.1375 147.17542 543.1375 146.15979Q543.1375 145.19104 542.4969 144.56604Q541.8719 143.94104 540.8875 143.94104Q540.4969 143.94104 539.90314 144.09729L540.0594 142.86292Q540.2 142.87854 540.27814 142.87854Q541.1844 142.87854 541.90314 142.40979Q542.6219 141.94104 542.6219 140.95667Q542.6219 140.19104 542.09064 139.69104Q541.575 139.17542 540.7469 139.17542Q539.91876 139.17542 539.3719 139.69104Q538.825 140.20667 538.66876 141.23792L537.2625 140.98792Q537.52814 139.56604 538.4344 138.80042Q539.35626 138.01917 540.71564 138.01917Q541.65314 138.01917 542.4344 138.42542Q543.23126 138.81604 543.6375 139.51917Q544.0594 140.20667 544.0594 140.98792Q544.0594 141.73792 543.65314 142.34729Q543.2625 142.95667 542.48126 143.31604Q543.4969 143.55042 544.0594 144.28479Q544.6219 145.01917 544.6219 146.12854Q544.6219 147.62854 543.52814 148.67542Q542.4344 149.72229 540.7625 149.72229Q539.2625 149.72229 538.2625 148.83167Q537.2625 147.92542 537.1219 146.48792ZM546.1219 146.48792L547.52814 146.30042Q547.77814 147.50354 548.35626 148.03479Q548.9344 148.55042 549.77814 148.55042Q550.7625 148.55042 551.45 147.86292Q552.1375 147.17542 552.1375 146.15979Q552.1375 145.19104 551.4969 144.56604Q550.8719 143.94104 549.8875 143.94104Q549.4969 143.94104 548.90314 144.09729L549.0594 142.86292Q549.2 142.87854 549.27814 142.87854Q550.1844 142.87854 550.90314 142.40979Q551.6219 141.94104 551.6219 140.95667Q551.6219 140.19104 551.09064 139.69104Q550.575 139.17542 549.7469 139.17542Q548.91876 139.17542 548.3719 139.69104Q547.825 140.20667 547.66876 141.23792L546.2625 140.98792Q546.52814 139.56604 547.4344 138.80042Q548.35626 138.01917 549.71564 138.01917Q550.65314 138.01917 551.4344 138.42542Q552.23126 138.81604 552.6375 139.51917Q553.0594 140.20667 553.0594 140.98792Q553.0594 141.73792 552.65314 142.34729Q552.2625 142.95667 551.48126 143.31604Q552.4969 143.55042 553.0594 144.28479Q553.6219 145.01917 553.6219 146.12854Q553.6219 147.62854 552.52814 148.67542Q551.4344 149.72229 549.7625 149.72229Q548.2625 149.72229 547.2625 148.83167Q546.2625 147.92542 546.1219 146.48792ZM555.90314 149.51917L555.90314 147.90979L557.5125 147.90979L557.5125 149.51917L555.90314 149.51917ZM559.1219 146.48792L560.52814 146.30042Q560.77814 147.50354 561.35626 148.03479Q561.9344 148.55042 562.77814 148.55042Q563.7625 148.55042 564.45 147.86292Q565.1375 147.17542 565.1375 146.15979Q565.1375 145.19104 564.4969 144.56604Q563.8719 143.94104 562.8875 143.94104Q562.4969 143.94104 561.90314 144.09729L562.0594 142.86292Q562.2 142.87854 562.27814 142.87854Q563.1844 142.87854 563.90314 142.40979Q564.6219 141.94104 564.6219 140.95667Q564.6219 140.19104 564.09064 139.69104Q563.575 139.17542 562.7469 139.17542Q561.91876 139.17542 561.3719 139.69104Q560.825 140.20667 560.66876 141.23792L559.2625 140.98792Q559.52814 139.56604 560.4344 138.80042Q561.35626 138.01917 562.71564 138.01917Q563.65314 138.01917 564.4344 138.42542Q565.23126 138.81604 565.6375 139.51917Q566.0594 140.20667 566.0594 140.98792Q566.0594 141.73792 565.65314 142.34729Q565.2625 142.95667 564.48126 143.31604Q565.4969 143.55042 566.0594 144.28479Q566.6219 145.01917 566.6219 146.12854Q566.6219 147.62854 565.52814 148.67542Q564.4344 149.72229 562.7625 149.72229Q561.2625 149.72229 560.2625 148.83167Q559.2625 147.92542 559.1219 146.48792ZM568.3875 140.81604Q568.3875 139.58167 568.9969 138.72229Q569.6219 137.86292 570.79376 137.86292Q571.8719 137.86292 572.575 138.64417Q573.27814 139.40979 573.27814 140.89417Q573.27814 142.34729 572.5594 143.14417Q571.85626 143.92542 570.8094 143.92542Q569.7625 143.92542 569.075 143.15979Q568.3875 142.37854 568.3875 140.81604ZM570.825 138.83167Q570.3094 138.83167 569.95 139.28479Q569.60626 139.73792 569.60626 140.95667Q569.60626 142.05042 569.95 142.50354Q570.3094 142.95667 570.825 142.95667Q571.35626 142.95667 571.7 142.50354Q572.0594 142.05042 572.0594 140.84729Q572.0594 139.73792 571.7 139.28479Q571.35626 138.83167 570.825 138.83167ZM570.84064 149.94104L577.10626 137.86292L578.2469 137.86292L571.9969 149.94104L570.84064 149.94104ZM575.79376 146.83167Q575.79376 145.59729 576.40314 144.73792Q577.02814 143.87854 578.2 143.87854Q579.27814 143.87854 579.98126 144.65979Q580.7 145.42542 580.7 146.90979Q580.7 148.36292 579.98126 149.15979Q579.2625 149.94104 578.21564 149.94104Q577.16876 149.94104 576.48126 149.15979Q575.79376 148.37854 575.79376 146.83167ZM578.2469 144.84729Q577.71564 144.84729 577.35626 145.30042Q577.0125 145.75354 577.0125 146.97229Q577.0125 148.06604 577.35626 148.51917Q577.71564 148.97229 578.23126 148.97229Q578.77814 148.97229 579.1219 148.51917Q579.46564 148.06604 579.46564 146.86292Q579.46564 145.75354 579.10626 145.30042Q578.7625 144.84729 578.2469 144.84729Z" fill-rule="nonzero"/><path stroke="#757575" stroke-width="1.0" stroke-linecap="butt" d="M581.45 133.01917L454.76666 133.01917L422.39392 133.01917" fill-rule="nonzero"/><path fill="#9e9e9e" d="M424.39392 133.01917C424.39392 131.9146 423.4985 131.01917 422.39392 131.01917C421.28937 131.01917 420.39392 131.9146 420.39392 133.01917C420.39392 134.12373 421.28937 135.01917 422.39392 135.01917C423.4985 135.01917 424.39392 134.12373 424.39392 133.01917" fill-rule="nonzero"/><path fill="#efefef" d="M530.66876 326.45L530.66876 314.9969L532.23126 314.9969L538.2469 323.98126L538.2469 314.9969L539.7 314.9969L539.7 326.45L538.1375 326.45L532.1219 317.45L532.1219 326.45L530.66876 326.45ZM547.91876 325.41876Q547.1375 326.09064 546.41876 326.3719Q545.7 326.6375 544.8719 326.6375Q543.4969 326.6375 542.7625 325.96564Q542.02814 325.29376 542.02814 324.2625Q542.02814 323.65314 542.3094 323.15314Q542.59064 322.6375 543.02814 322.34064Q543.48126 322.02814 544.04376 321.8719Q544.46564 321.7625 545.29376 321.66876Q546.9969 321.46564 547.8094 321.1844Q547.8094 320.8875 547.8094 320.8094Q547.8094 319.95 547.41876 319.60626Q546.8719 319.1219 545.8094 319.1219Q544.825 319.1219 544.34064 319.48126Q543.8719 319.825 543.65314 320.7L542.27814 320.5125Q542.46564 319.6375 542.8875 319.09064Q543.325 318.54376 544.1375 318.2625Q544.95 317.96564 546.0125 317.96564Q547.075 317.96564 547.73126 318.21564Q548.40314 318.46564 548.71564 318.84064Q549.02814 319.21564 549.15314 319.79376Q549.23126 320.15314 549.23126 321.09064L549.23126 322.96564Q549.23126 324.9344 549.3094 325.45Q549.40314 325.96564 549.66876 326.45L548.2 326.45Q547.98126 326.0125 547.91876 325.41876ZM547.8094 322.27814Q547.04376 322.59064 545.5125 322.8094Q544.6375 322.9344 544.27814 323.09064Q543.91876 323.2469 543.71564 323.5594Q543.52814 323.85626 543.52814 324.21564Q543.52814 324.77814 543.95 325.15314Q544.3875 325.52814 545.2 325.52814Q546.0125 325.52814 546.6375 325.1844Q547.27814 324.825 547.575 324.2Q547.8094 323.73126 547.8094 322.79376L547.8094 322.27814ZM554.575 325.1844L554.77814 326.4344Q554.1844 326.5594 553.71564 326.5594Q552.95 326.5594 552.52814 326.325Q552.10626 326.075 551.9344 325.6844Q551.7625 325.27814 551.7625 324.0125L551.7625 319.2469L550.73126 319.2469L550.73126 318.15314L551.7625 318.15314L551.7625 316.09064L553.16876 315.2469L553.16876 318.15314L554.575 318.15314L554.575 319.2469L553.16876 319.2469L553.16876 324.09064Q553.16876 324.7 553.23126 324.8719Q553.3094 325.04376 553.48126 325.15314Q553.65314 325.2469 553.96564 325.2469Q554.2 325.2469 554.575 325.1844ZM560.95 326.45L560.95 325.23126Q559.98126 326.6375 558.3094 326.6375Q557.575 326.6375 556.9344 326.35626Q556.3094 326.075 555.9969 325.65314Q555.6844 325.21564 555.5594 324.60626Q555.48126 324.1844 555.48126 323.29376L555.48126 318.15314L556.8875 318.15314L556.8875 322.7469Q556.8875 323.85626 556.96564 324.23126Q557.10626 324.79376 557.52814 325.10626Q557.96564 325.41876 558.59064 325.41876Q559.23126 325.41876 559.77814 325.10626Q560.34064 324.77814 560.5594 324.21564Q560.79376 323.65314 560.79376 322.59064L560.79376 318.15314L562.2 318.15314L562.2 326.45L560.95 326.45ZM564.4969 326.45L564.4969 318.15314L565.7625 318.15314L565.7625 319.40314Q566.2469 318.52814 566.65314 318.2469Q567.0594 317.96564 567.5594 317.96564Q568.2625 317.96564 568.9969 318.41876L568.5125 319.71564Q567.9969 319.41876 567.48126 319.41876Q567.02814 319.41876 566.65314 319.7Q566.29376 319.96564 566.1375 320.46564Q565.90314 321.21564 565.90314 322.10626L565.90314 326.45L564.4969 326.45ZM574.91876 325.41876Q574.1375 326.09064 573.41876 326.3719Q572.7 326.6375 571.8719 326.6375Q570.4969 326.6375 569.7625 325.96564Q569.02814 325.29376 569.02814 324.2625Q569.02814 323.65314 569.3094 323.15314Q569.59064 322.6375 570.02814 322.34064Q570.48126 322.02814 571.04376 321.8719Q571.46564 321.7625 572.29376 321.66876Q573.9969 321.46564 574.8094 321.1844Q574.8094 320.8875 574.8094 320.8094Q574.8094 319.95 574.41876 319.60626Q573.8719 319.1219 572.8094 319.1219Q571.825 319.1219 571.34064 319.48126Q570.8719 319.825 570.65314 320.7L569.27814 320.5125Q569.46564 319.6375 569.8875 319.09064Q570.325 318.54376 571.1375 318.2625Q571.95 317.96564 573.0125 317.96564Q574.075 317.96564 574.73126 318.21564Q575.40314 318.46564 575.71564 318.84064Q576.02814 319.21564 576.15314 319.79376Q576.23126 320.15314 576.23126 321.09064L576.23126 322.96564Q576.23126 324.9344 576.3094 325.45Q576.40314 325.96564 576.66876 326.45L575.2 326.45Q574.98126 326.0125 574.91876 325.41876ZM574.8094 322.27814Q574.04376 322.59064 572.5125 322.8094Q571.6375 322.9344 571.27814 323.09064Q570.91876 323.2469 570.71564 323.5594Q570.52814 323.85626 570.52814 324.21564Q570.52814 324.77814 570.95 325.15314Q571.3875 325.52814 572.2 325.52814Q573.0125 325.52814 573.6375 325.1844Q574.27814 324.825 574.575 324.2Q574.8094 323.73126 574.8094 322.79376L574.8094 322.27814ZM578.48126 326.45L578.48126 314.9969L579.8875 314.9969L579.8875 326.45L578.48126 326.45Z" fill-rule="nonzero"/><path fill="#9e9e9e" d="M537.1219 345.41876L538.52814 345.23126Q538.77814 346.4344 539.35626 346.96564Q539.9344 347.48126 540.77814 347.48126Q541.7625 347.48126 542.45 346.79376Q543.1375 346.10626 543.1375 345.09064Q543.1375 344.1219 542.4969 343.4969Q541.8719 342.8719 540.8875 342.8719Q540.4969 342.8719 539.90314 343.02814L540.0594 341.79376Q540.2 341.8094 540.27814 341.8094Q541.1844 341.8094 541.90314 341.34064Q542.6219 340.8719 542.6219 339.8875Q542.6219 339.1219 542.09064 338.6219Q541.575 338.10626 540.7469 338.10626Q539.91876 338.10626 539.3719 338.6219Q538.825 339.1375 538.66876 340.16876L537.2625 339.91876Q537.52814 338.4969 538.4344 337.73126Q539.35626 336.95 540.71564 336.95Q541.65314 336.95 542.4344 337.35626Q543.23126 337.7469 543.6375 338.45Q544.0594 339.1375 544.0594 339.91876Q544.0594 340.66876 543.65314 341.27814Q543.2625 341.8875 542.48126 342.2469Q543.4969 342.48126 544.0594 343.21564Q544.6219 343.95 544.6219 345.0594Q544.6219 346.5594 543.52814 347.60626Q542.4344 348.65314 540.7625 348.65314Q539.2625 348.65314 538.2625 347.7625Q537.2625 346.85626 537.1219 345.41876ZM546.1219 345.41876L547.52814 345.23126Q547.77814 346.4344 548.35626 346.96564Q548.9344 347.48126 549.77814 347.48126Q550.7625 347.48126 551.45 346.79376Q552.1375 346.10626 552.1375 345.09064Q552.1375 344.1219 551.4969 343.4969Q550.8719 342.8719 549.8875 342.8719Q549.4969 342.8719 548.90314 343.02814L549.0594 341.79376Q549.2 341.8094 549.27814 341.8094Q550.1844 341.8094 550.90314 341.34064Q551.6219 340.8719 551.6219 339.8875Q551.6219 339.1219 551.09064 338.6219Q550.575 338.10626 549.7469 338.10626Q548.91876 338.10626 548.3719 338.6219Q547.825 339.1375 547.66876 340.16876L546.2625 339.91876Q546.52814 338.4969 547.4344 337.73126Q548.35626 336.95 549.71564 336.95Q550.65314 336.95 551.4344 337.35626Q552.23126 337.7469 552.6375 338.45Q553.0594 339.1375 553.0594 339.91876Q553.0594 340.66876 552.65314 341.27814Q552.2625 341.8875 551.48126 342.2469Q552.4969 342.48126 553.0594 343.21564Q553.6219 343.95 553.6219 345.0594Q553.6219 346.5594 552.52814 347.60626Q551.4344 348.65314 549.7625 348.65314Q548.2625 348.65314 547.2625 347.7625Q546.2625 346.85626 546.1219 345.41876ZM555.90314 348.45L555.90314 346.84064L557.5125 346.84064L557.5125 348.45L555.90314 348.45ZM559.1219 345.41876L560.52814 345.23126Q560.77814 346.4344 561.35626 346.96564Q561.9344 347.48126 562.77814 347.48126Q563.7625 347.48126 564.45 346.79376Q565.1375 346.10626 565.1375 345.09064Q565.1375 344.1219 564.4969 343.4969Q563.8719 342.8719 562.8875 342.8719Q562.4969 342.8719 561.90314 343.02814L562.0594 341.79376Q562.2 341.8094 562.27814 341.8094Q563.1844 341.8094 563.90314 341.34064Q564.6219 340.8719 564.6219 339.8875Q564.6219 339.1219 564.09064 338.6219Q563.575 338.10626 562.7469 338.10626Q561.91876 338.10626 561.3719 338.6219Q560.825 339.1375 560.66876 340.16876L559.2625 339.91876Q559.52814 338.4969 560.4344 337.73126Q561.35626 336.95 562.71564 336.95Q563.65314 336.95 564.4344 337.35626Q565.23126 337.7469 565.6375 338.45Q566.0594 339.1375 566.0594 339.91876Q566.0594 340.66876 565.65314 341.27814Q565.2625 341.8875 564.48126 342.2469Q565.4969 342.48126 566.0594 343.21564Q566.6219 343.95 566.6219 345.0594Q566.6219 346.5594 565.52814 347.60626Q564.4344 348.65314 562.7625 348.65314Q561.2625 348.65314 560.2625 347.7625Q559.2625 346.85626 559.1219 345.41876ZM568.3875 339.7469Q568.3875 338.5125 568.9969 337.65314Q569.6219 336.79376 570.79376 336.79376Q571.8719 336.79376 572.575 337.575Q573.27814 338.34064 573.27814 339.825Q573.27814 341.27814 572.5594 342.075Q571.85626 342.85626 570.8094 342.85626Q569.7625 342.85626 569.075 342.09064Q568.3875 341.3094 568.3875 339.7469ZM570.825 337.7625Q570.3094 337.7625 569.95 338.21564Q569.60626 338.66876 569.60626 339.8875Q569.60626 340.98126 569.95 341.4344Q570.3094 341.8875 570.825 341.8875Q571.35626 341.8875 571.7 341.4344Q572.0594 340.98126 572.0594 339.77814Q572.0594 338.66876 571.7 338.21564Q571.35626 337.7625 570.825 337.7625ZM570.84064 348.8719L577.10626 336.79376L578.2469 336.79376L571.9969 348.8719L570.84064 348.8719ZM575.79376 345.7625Q575.79376 344.52814 576.40314 343.66876Q577.02814 342.8094 578.2 342.8094Q579.27814 342.8094 579.98126 343.59064Q580.7 344.35626 580.7 345.84064Q580.7 347.29376 579.98126 348.09064Q579.2625 348.8719 578.21564 348.8719Q577.16876 348.8719 576.48126 348.09064Q575.79376 347.3094 575.79376 345.7625ZM578.2469 343.77814Q577.71564 343.77814 577.35626 344.23126Q577.0125 344.6844 577.0125 345.90314Q577.0125 346.9969 577.35626 347.45Q577.71564 347.90314 578.23126 347.90314Q578.77814 347.90314 579.1219 347.45Q579.46564 346.9969 579.46564 345.79376Q579.46564 344.6844 579.10626 344.23126Q578.7625 343.77814 578.2469 343.77814Z" fill-rule="nonzero"/><path stroke="#757575" stroke-width="1.0" stroke-linecap="butt" d="M581.45 331.95L454.76666 331.95L300.0 345.01166" fill-rule="nonzero"/><path fill="#9e9e9e" d="M302.0 345.01166C302.0 343.9071 301.10458 343.01166 300.0 343.01166C298.89542 343.01166 298.0 343.9071 298.0 345.01166C298.0 346.11624 298.89542 347.01166 300.0 347.01166C301.10458 347.01166 302.0 346.11624 302.0 345.01166" fill-rule="nonzero"/><path fill="#f3f3f3" d="M271.26562 32.534374L273.15625 33.003124Q272.5625 35.346874 271.01562 36.58125Q269.46875 37.8 267.21875 37.8Q264.90625 37.8 263.45312 36.8625Q262.01562 35.909374 261.25 34.128124Q260.5 32.33125 260.5 30.284374Q260.5 28.05 261.34375 26.39375Q262.20312 24.721874 263.78125 23.8625Q265.35938 22.9875 267.25 22.9875Q269.40625 22.9875 270.85938 24.08125Q272.32812 25.175 272.90625 27.159374L271.04688 27.596874Q270.54688 26.034374 269.59375 25.33125Q268.65625 24.6125 267.21875 24.6125Q265.5625 24.6125 264.45312 25.409374Q263.34375 26.190624 262.89062 27.534374Q262.45312 28.8625 262.45312 30.26875Q262.45312 32.096874 262.98438 33.471874Q263.51562 34.83125 264.64062 35.503124Q265.76562 36.175 267.0625 36.175Q268.65625 36.175 269.76562 35.253124Q270.875 34.33125 271.26562 32.534374ZM281.59375 36.26875Q280.60938 37.096874 279.70312 37.440624Q278.79688 37.784374 277.76562 37.784374Q276.0625 37.784374 275.14062 36.95625Q274.21875 36.1125 274.21875 34.815624Q274.21875 34.05 274.5625 33.425Q274.92188 32.8 275.48438 32.425Q276.04688 32.034374 276.75 31.83125Q277.26562 31.70625 278.3125 31.565624Q280.4375 31.315624 281.4375 30.971874Q281.45312 30.6125 281.45312 30.503124Q281.45312 29.440624 280.95312 28.9875Q280.28125 28.39375 278.95312 28.39375Q277.70312 28.39375 277.10938 28.83125Q276.53125 29.26875 276.25 30.378124L274.53125 30.14375Q274.76562 29.034374 275.29688 28.3625Q275.82812 27.675 276.84375 27.315624Q277.85938 26.940624 279.20312 26.940624Q280.53125 26.940624 281.35938 27.253124Q282.1875 27.565624 282.57812 28.05Q282.96875 28.51875 283.125 29.2375Q283.21875 29.690624 283.21875 30.8625L283.21875 33.20625Q283.21875 35.659374 283.32812 36.315624Q283.4375 36.95625 283.78125 37.55L281.9375 37.55Q281.67188 37.003124 281.59375 36.26875ZM281.4375 32.346874Q280.48438 32.7375 278.5625 33.003124Q277.48438 33.159374 277.03125 33.3625Q276.59375 33.55 276.34375 33.925Q276.09375 34.3 276.09375 34.76875Q276.09375 35.471874 276.625 35.940624Q277.15625 36.409374 278.1875 36.409374Q279.20312 36.409374 279.98438 35.971874Q280.78125 35.51875 281.15625 34.753124Q281.4375 34.14375 281.4375 32.9875L281.4375 32.346874ZM289.65625 35.971874L289.90625 37.534374Q289.17188 37.690624 288.57812 37.690624Q287.625 37.690624 287.09375 37.39375Q286.57812 37.08125 286.35938 36.596874Q286.14062 36.096874 286.14062 34.51875L286.14062 28.55L284.85938 28.55L284.85938 27.175L286.14062 27.175L286.14062 24.6125L287.89062 23.55L287.89062 27.175L289.65625 27.175L289.65625 28.55L287.89062 28.55L287.89062 34.6125Q287.89062 35.3625 287.98438 35.58125Q288.07812 35.784374 288.28125 35.925Q288.5 36.05 288.89062 36.05Q289.17188 36.05 289.65625 35.971874ZM298.92188 34.20625L300.73438 34.440624Q300.3125 36.01875 299.14062 36.909374Q297.98438 37.784374 296.17188 37.784374Q293.90625 37.784374 292.5625 36.39375Q291.23438 34.9875 291.23438 32.45625Q291.23438 29.83125 292.57812 28.39375Q293.92188 26.940624 296.07812 26.940624Q298.15625 26.940624 299.46875 28.3625Q300.79688 29.76875 300.79688 32.346874Q300.79688 32.503124 300.78125 32.815624L293.04688 32.815624Q293.14062 34.51875 294.01562 35.425Q294.89062 36.33125 296.1875 36.33125Q297.15625 36.33125 297.82812 35.83125Q298.51562 35.315624 298.92188 34.20625ZM293.14062 31.3625L298.9375 31.3625Q298.82812 30.065624 298.28125 29.409374Q297.4375 28.39375 296.09375 28.39375Q294.89062 28.39375 294.0625 29.20625Q293.23438 30.003124 293.14062 31.3625ZM302.5 38.409374L304.20312 38.659374Q304.3125 39.45625 304.79688 39.815624Q305.45312 40.3 306.59375 40.3Q307.8125 40.3 308.46875 39.815624Q309.14062 39.33125 309.375 38.45625Q309.51562 37.909374 309.5 36.190624Q308.34375 37.55 306.625 37.55Q304.48438 37.55 303.3125 36.003124Q302.14062 34.45625 302.14062 32.3Q302.14062 30.815624 302.67188 29.565624Q303.21875 28.315624 304.23438 27.628124Q305.26562 26.940624 306.64062 26.940624Q308.46875 26.940624 309.67188 28.425L309.67188 27.175L311.28125 27.175L311.28125 36.14375Q311.28125 38.565624 310.78125 39.565624Q310.29688 40.58125 309.21875 41.159374Q308.15625 41.753124 306.59375 41.753124Q304.75 41.753124 303.59375 40.925Q302.45312 40.096874 302.5 38.409374ZM303.95312 32.175Q303.95312 34.221874 304.76562 35.159374Q305.57812 36.096874 306.79688 36.096874Q308.0 36.096874 308.8125 35.159374Q309.64062 34.221874 309.64062 32.2375Q309.64062 30.33125 308.79688 29.3625Q307.95312 28.39375 306.76562 28.39375Q305.59375 28.39375 304.76562 29.346874Q303.95312 30.3 303.95312 32.175ZM313.17188 32.3625Q313.17188 29.4875 314.76562 28.096874Q316.10938 26.940624 318.03125 26.940624Q320.17188 26.940624 321.51562 28.346874Q322.875 29.753124 322.875 32.221874Q322.875 34.221874 322.28125 35.378124Q321.6875 36.51875 320.53125 37.159374Q319.39062 37.784374 318.03125 37.784374Q315.84375 37.784374 314.5 36.39375Q313.17188 34.9875 313.17188 32.3625ZM314.96875 32.3625Q314.96875 34.3625 315.82812 35.346874Q316.70312 36.33125 318.03125 36.33125Q319.34375 36.33125 320.20312 35.346874Q321.07812 34.346874 321.07812 32.3Q321.07812 30.378124 320.20312 29.39375Q319.32812 28.39375 318.03125 28.39375Q316.70312 28.39375 315.82812 29.39375Q314.96875 30.378124 314.96875 32.3625ZM324.79688 37.55L324.79688 27.175L326.375 27.175L326.375 28.753124Q326.98438 27.64375 327.5 27.3Q328.01562 26.940624 328.625 26.940624Q329.51562 26.940624 330.4375 27.503124L329.82812 29.14375Q329.1875 28.753124 328.54688 28.753124Q327.96875 28.753124 327.5 29.1125Q327.04688 29.45625 326.84375 30.065624Q326.5625 31.003124 326.5625 32.1125L326.5625 37.55L324.79688 37.55ZM331.73438 41.55L331.54688 39.89375Q332.125 40.05 332.54688 40.05Q333.14062 40.05 333.48438 39.846874Q333.84375 39.659374 334.0625 39.315624Q334.23438 39.05 334.60938 38.003124Q334.65625 37.846874 334.76562 37.565624L330.82812 27.175L332.71875 27.175L334.875 33.190624Q335.29688 34.33125 335.625 35.58125Q335.9375 34.378124 336.34375 33.221874L338.5625 27.175L340.32812 27.175L336.375 37.721874Q335.75 39.440624 335.39062 40.08125Q334.92188 40.95625 334.3125 41.346874Q333.71875 41.753124 332.875 41.753124Q332.35938 41.753124 331.73438 41.55Z" fill-rule="nonzero"/></svg>