<svg version="1.1" viewBox="0.0 0.0 600.0 371.0" fill="none" stroke="none" stroke-linecap="square" stroke-miterlimit="10" width="600" height="371" xmlns:xlink="http://www.w3.org/1999/xlink" xmlns="http://www.w3.org/2000/svg"><path fill="#ffffff" fill-opacity="0.0" d="M0 0L600.0 0L600.0 371.0L0 371.0L0 0Z" fill-rule="nonzero"/><path fill="#304388" d="M300.0 54.916668C382.16156 54.916668 448.76666 121.521774 448.76666 203.68333C448.76666 285.8449 382.16156 352.45 300.0 352.45L300.0 240.875C320.5404 240.875 337.19168 224.22372 337.19168 203.68333C337.19168 183.14294 320.5404 166.49167 300.0 166.49167Z" fill-rule="nonzero"/><path fill="#f7d750" d="M300.0 352.45C217.83844 352.45 151.23334 285.8449 151.23334 203.68333C151.23334 121.521774 217.83844 54.916668 300.0 54.916668L300.0 166.49167C279.4596 166.49167 262.80832 183.14294 262.80832 203.68333C262.80832 224.22372 279.4596 240.875 300.0 240.875Z" fill-rule="nonzero"/><path fill="#ffffff" d="M381.45966 206.80833L383.1159 206.66771Q383.3034 207.88646 383.97528 208.49583Q384.64716 209.10521 385.60028 209.10521Q386.7409 209.10521 387.52216 208.24583Q388.31903 207.38646 388.31903 205.94896Q388.31903 204.60521 387.5534 203.82396Q386.8034 203.04271 385.56903 203.04271Q384.8034 203.04271 384.1784 203.38646Q383.56903 203.73021 383.22528 204.29271L381.7409 204.08958L382.9909 197.48021L389.39716 197.48021L389.39716 198.98021L384.25653 198.98021L383.5534 202.44896Q384.72528 201.63646 385.9909 201.63646Q387.6784 201.63646 388.83466 202.80833Q390.00653 203.98021 390.00653 205.80833Q390.00653 207.55833 388.97528 208.83958Q387.7409 210.40208 385.60028 210.40208Q383.83466 210.40208 382.72528 209.41771Q381.6159 208.43333 381.45966 206.80833ZM391.45966 203.82396Q391.45966 201.54271 391.9284 200.15208Q392.39716 198.76146 393.31903 198.01146Q394.25653 197.24583 395.66278 197.24583Q396.69403 197.24583 397.47528 197.66771Q398.25653 198.07396 398.75653 198.87083Q399.27216 199.65208 399.56903 200.79271Q399.8659 201.91771 399.8659 203.82396Q399.8659 206.08958 399.39716 207.49583Q398.9284 208.88646 397.9909 209.65208Q397.06903 210.40208 395.66278 210.40208Q393.78778 210.40208 392.72528 209.07396Q391.45966 207.46458 391.45966 203.82396ZM393.08466 203.82396Q393.08466 206.99583 393.81903 208.05833Q394.56903 209.10521 395.66278 209.10521Q396.7409 209.10521 397.4909 208.05833Q398.2409 206.99583 398.2409 203.82396Q398.2409 200.65208 397.4909 199.60521Q396.7409 198.55833 395.64716 198.55833Q394.5534 198.55833 393.89716 199.48021Q393.08466 200.65208 393.08466 203.82396ZM402.35028 210.18333L402.35028 208.38646L404.14716 208.38646L404.14716 210.18333L402.35028 210.18333ZM406.45966 203.82396Q406.45966 201.54271 406.9284 200.15208Q407.39716 198.76146 408.31903 198.01146Q409.25653 197.24583 410.66278 197.24583Q411.69403 197.24583 412.47528 197.66771Q413.25653 198.07396 413.75653 198.87083Q414.27216 199.65208 414.56903 200.79271Q414.8659 201.91771 414.8659 203.82396Q414.8659 206.08958 414.39716 207.49583Q413.9284 208.88646 412.9909 209.65208Q412.06903 210.40208 410.66278 210.40208Q408.78778 210.40208 407.72528 209.07396Q406.45966 207.46458 406.45966 203.82396ZM408.08466 203.82396Q408.08466 206.99583 408.81903 208.05833Q409.56903 209.10521 410.66278 209.10521Q411.7409 209.10521 412.4909 208.05833Q413.2409 206.99583 413.2409 203.82396Q413.2409 200.65208 412.4909 199.60521Q411.7409 198.55833 410.64716 198.55833Q409.5534 198.55833 408.89716 199.48021Q408.08466 200.65208 408.08466 203.82396ZM416.75653 200.38646Q416.75653 199.01146 417.44403 198.04271Q418.14716 197.07396 419.45966 197.07396Q420.6784 197.07396 421.47528 197.94896Q422.27216 198.80833 422.27216 200.49583Q422.27216 202.12083 421.45966 203.01146Q420.66278 203.88646 419.47528 203.88646Q418.31903 203.88646 417.53778 203.02708Q416.75653 202.15208 416.75653 200.38646ZM419.50653 198.16771Q418.91278 198.16771 418.52216 198.68333Q418.13153 199.18333 418.13153 200.54271Q418.13153 201.79271 418.52216 202.29271Q418.9284 202.79271 419.50653 202.79271Q420.10028 202.79271 420.4909 202.29271Q420.88153 201.77708 420.88153 200.43333Q420.88153 199.18333 420.4909 198.68333Q420.10028 198.16771 419.50653 198.16771ZM419.52216 210.65208L426.56903 197.07396L427.85028 197.07396L420.81903 210.65208L419.52216 210.65208ZM425.08466 207.15208Q425.08466 205.77708 425.77216 204.80833Q426.47528 203.83958 427.8034 203.83958Q429.02216 203.83958 429.8034 204.71458Q430.60028 205.57396 430.60028 207.26146Q430.60028 208.88646 429.8034 209.77708Q429.00653 210.65208 427.81903 210.65208Q426.64716 210.65208 425.8659 209.77708Q425.08466 208.90208 425.08466 207.15208ZM427.85028 204.93333Q427.25653 204.93333 426.8659 205.44896Q426.47528 205.94896 426.47528 207.32396Q426.47528 208.54271 426.8659 209.05833Q427.25653 209.57396 427.83466 209.57396Q428.44403 209.57396 428.83466 209.05833Q429.22528 208.54271 429.22528 207.19896Q429.22528 205.94896 428.83466 205.44896Q428.44403 204.93333 427.85028 204.93333Z" fill-rule="nonzero"/><path fill="#ffffff" d="M169.04036 206.80833L170.69661 206.66771Q170.88411 207.88646 171.55598 208.49583Q172.22786 209.10521 173.18098 209.10521Q174.32161 209.10521 175.10286 208.24583Q175.89973 207.38646 175.89973 205.94896Q175.89973 204.60521 175.13411 203.82396Q174.38411 203.04271 173.14973 203.04271Q172.38411 203.04271 171.75911 203.38646Q171.14973 203.73021 170.80598 204.29271L169.32161 204.08958L170.57161 197.48021L176.97786 197.48021L176.97786 198.98021L171.83723 198.98021L171.13411 202.44896Q172.30598 201.63646 173.57161 201.63646Q175.25911 201.63646 176.41536 202.80833Q177.58723 203.98021 177.58723 205.80833Q177.58723 207.55833 176.55598 208.83958Q175.32161 210.40208 173.18098 210.40208Q171.41536 210.40208 170.30598 209.41771Q169.19661 208.43333 169.04036 206.80833ZM179.04036 203.82396Q179.04036 201.54271 179.50911 200.15208Q179.97786 198.76146 180.89973 198.01146Q181.83723 197.24583 183.24348 197.24583Q184.27473 197.24583 185.05598 197.66771Q185.83723 198.07396 186.33723 198.87083Q186.85286 199.65208 187.14973 200.79271Q187.44661 201.91771 187.44661 203.82396Q187.44661 206.08958 186.97786 207.49583Q186.50911 208.88646 185.57161 209.65208Q184.64973 210.40208 183.24348 210.40208Q181.36848 210.40208 180.30598 209.07396Q179.04036 207.46458 179.04036 203.82396ZM180.66536 203.82396Q180.66536 206.99583 181.39973 208.05833Q182.14973 209.10521 183.24348 209.10521Q184.32161 209.10521 185.07161 208.05833Q185.82161 206.99583 185.82161 203.82396Q185.82161 200.65208 185.07161 199.60521Q184.32161 198.55833 183.22786 198.55833Q182.13411 198.55833 181.47786 199.48021Q180.66536 200.65208 180.66536 203.82396ZM189.93098 210.18333L189.93098 208.38646L191.72786 208.38646L191.72786 210.18333L189.93098 210.18333ZM194.04036 203.82396Q194.04036 201.54271 194.50911 200.15208Q194.97786 198.76146 195.89973 198.01146Q196.83723 197.24583 198.24348 197.24583Q199.27473 197.24583 200.05598 197.66771Q200.83723 198.07396 201.33723 198.87083Q201.85286 199.65208 202.14973 200.79271Q202.44661 201.91771 202.44661 203.82396Q202.44661 206.08958 201.97786 207.49583Q201.50911 208.88646 200.57161 209.65208Q199.64973 210.40208 198.24348 210.40208Q196.36848 210.40208 195.30598 209.07396Q194.04036 207.46458 194.04036 203.82396ZM195.66536 203.82396Q195.66536 206.99583 196.39973 208.05833Q197.14973 209.10521 198.24348 209.10521Q199.32161 209.10521 200.07161 208.05833Q200.82161 206.99583 200.82161 203.82396Q200.82161 200.65208 200.07161 199.60521Q199.32161 198.55833 198.22786 198.55833Q197.13411 198.55833 196.47786 199.48021Q195.66536 200.65208 195.66536 203.82396ZM204.33723 200.38646Q204.33723 199.01146 205.02473 198.04271Q205.72786 197.07396 207.04036 197.07396Q208.25911 197.07396 209.05598 197.94896Q209.85286 198.80833 209.85286 200.49583Q209.85286 202.12083 209.04036 203.01146Q208.24348 203.88646 207.05598 203.88646Q205.89973 203.88646 205.11848 203.02708Q204.33723 202.15208 204.33723 200.38646ZM207.08723 198.16771Q206.49348 198.16771 206.10286 198.68333Q205.71223 199.18333 205.71223 200.54271Q205.71223 201.79271 206.10286 202.29271Q206.50911 202.79271 207.08723 202.79271Q207.68098 202.79271 208.07161 202.29271Q208.46223 201.77708 208.46223 200.43333Q208.46223 199.18333 208.07161 198.68333Q207.68098 198.16771 207.08723 198.16771ZM207.10286 210.65208L214.14973 197.07396L215.43098 197.07396L208.39973 210.65208L207.10286 210.65208ZM212.66536 207.15208Q212.66536 205.77708 213.35286 204.80833Q214.05598 203.83958 215.38411 203.83958Q216.60286 203.83958 217.38411 204.71458Q218.18098 205.57396 218.18098 207.26146Q218.18098 208.88646 217.38411 209.77708Q216.58723 210.65208 215.39973 210.65208Q214.22786 210.65208 213.44661 209.77708Q212.66536 208.90208 212.66536 207.15208ZM215.43098 204.93333Q214.83723 204.93333 214.44661 205.44896Q214.05598 205.94896 214.05598 207.32396Q214.05598 208.54271 214.44661 209.05833Q214.83723 209.57396 215.41536 209.57396Q216.02473 209.57396 216.41536 209.05833Q216.80598 208.54271 216.80598 207.19896Q216.80598 205.94896 216.41536 205.44896Q216.02473 204.93333 215.43098 204.93333Z" fill-rule="nonzero"/><path stroke="#ffffff" stroke-width="1.0" stroke-linejoin="round" stroke-linecap="round" d="M300.0 240.875C320.5404 240.875 337.19168 224.22372 337.19168 203.68333C337.19168 183.14294 320.5404 166.49167 300.0 166.49167L300.0 54.916668C382.16156 54.916668 448.76666 121.521774 448.76666 203.68333C448.76666 285.8449 382.16156 352.45 300.0 352.45" fill-rule="nonzero"/><path stroke="#ffffff" stroke-width="1.0" stroke-linejoin="round" stroke-linecap="round" d="M300.0 166.49167C279.4596 166.49167 262.80832 183.14294 262.80832 203.68333C262.80832 224.22372 279.4596 240.875 300.0 240.875L300.0 352.45C217.83844 352.45 151.23334 285.8449 151.23334 203.68333C151.23334 121.521774 217.83844 54.916668 300.0 54.916668" fill-rule="nonzero"/><path fill="#efefef" d="M19.784374 198.18333L19.784374 186.73021L24.1125 186.73021Q25.253124 186.73021 25.846874 186.83958Q26.690624 186.98021 27.253124 187.37083Q27.83125 187.76146 28.175 188.48021Q28.534374 189.18333 28.534374 190.04271Q28.534374 191.49583 27.596874 192.51146Q26.675 193.52708 24.2375 193.52708L21.3 193.52708L21.3 198.18333L19.784374 198.18333ZM21.3 192.16771L24.26875 192.16771Q25.7375 192.16771 26.346874 191.62083Q26.971874 191.07396 26.971874 190.08958Q26.971874 189.37083 26.596874 188.85521Q26.2375 188.33958 25.64375 188.18333Q25.26875 188.07396 24.2375 188.07396L21.3 188.07396L21.3 192.16771ZM36.01875 197.15208Q35.2375 197.82396 34.51875 198.10521Q33.8 198.37083 32.971874 198.37083Q31.596874 198.37083 30.8625 197.69896Q30.128124 197.02708 30.128124 195.99583Q30.128124 195.38646 30.409374 194.88646Q30.690624 194.37083 31.128124 194.07396Q31.58125 193.76146 32.14375 193.60521Q32.565624 193.49583 33.39375 193.40208Q35.096874 193.19896 35.909374 192.91771Q35.909374 192.62083 35.909374 192.54271Q35.909374 191.68333 35.51875 191.33958Q34.971874 190.85521 33.909374 190.85521Q32.925 190.85521 32.440624 191.21458Q31.971874 191.55833 31.753124 192.43333L30.378124 192.24583Q30.565624 191.37083 30.9875 190.82396Q31.425 190.27708 32.2375 189.99583Q33.05 189.69896 34.1125 189.69896Q35.175 189.69896 35.83125 189.94896Q36.503124 190.19896 36.815624 190.57396Q37.128124 190.94896 37.253124 191.52708Q37.33125 191.88646 37.33125 192.82396L37.33125 194.69896Q37.33125 196.66771 37.409374 197.18333Q37.503124 197.69896 37.76875 198.18333L36.3 198.18333Q36.08125 197.74583 36.01875 197.15208ZM35.909374 194.01146Q35.14375 194.32396 33.6125 194.54271Q32.7375 194.66771 32.378124 194.82396Q32.01875 194.98021 31.815624 195.29271Q31.628124 195.58958 31.628124 195.94896Q31.628124 196.51146 32.05 196.88646Q32.4875 197.26146 33.3 197.26146Q34.1125 197.26146 34.7375 196.91771Q35.378124 196.55833 35.675 195.93333Q35.909374 195.46458 35.909374 194.52708L35.909374 194.01146ZM39.346874 198.87083L40.721874 199.07396Q40.8 199.71458 41.190624 199.99583Q41.721874 200.38646 42.628124 200.38646Q43.596874 200.38646 44.128124 199.99583Q44.659374 199.60521 44.846874 198.90208Q44.95625 198.48021 44.95625 197.08958Q44.034374 198.18333 42.659374 198.18333Q40.940624 198.18333 40.003124 196.94896Q39.065624 195.71458 39.065624 193.98021Q39.065624 192.79271 39.4875 191.79271Q39.925 190.79271 40.7375 190.24583Q41.565624 189.69896 42.659374 189.69896Q44.128124 189.69896 45.08125 190.88646L45.08125 189.88646L46.378124 189.88646L46.378124 197.05833Q46.378124 198.99583 45.9875 199.80833Q45.596874 200.62083 44.7375 201.08958Q43.878124 201.55833 42.628124 201.55833Q41.14375 201.55833 40.221874 200.88646Q39.315624 200.21458 39.346874 198.87083ZM40.51875 193.88646Q40.51875 195.51146 41.159374 196.26146Q41.815624 197.01146 42.784374 197.01146Q43.753124 197.01146 44.409374 196.27708Q45.065624 195.52708 45.065624 193.93333Q45.065624 192.40208 44.39375 191.63646Q43.721874 190.85521 42.76875 190.85521Q41.83125 190.85521 41.175 191.62083Q40.51875 192.38646 40.51875 193.88646ZM54.284374 195.51146L55.7375 195.68333Q55.39375 196.96458 54.45625 197.66771Q53.534374 198.37083 52.096874 198.37083Q50.26875 198.37083 49.20625 197.24583Q48.14375 196.12083 48.14375 194.10521Q48.14375 192.01146 49.221874 190.85521Q50.3 189.69896 52.01875 189.69896Q53.675 189.69896 54.721874 190.83958Q55.784374 191.96458 55.784374 194.01146Q55.784374 194.13646 55.784374 194.38646L49.596874 194.38646Q49.675 195.76146 50.3625 196.49583Q51.065624 197.21458 52.096874 197.21458Q52.878124 197.21458 53.425 196.80833Q53.971874 196.40208 54.284374 195.51146ZM49.675 193.23021L54.3 193.23021Q54.20625 192.18333 53.76875 191.66771Q53.096874 190.85521 52.034374 190.85521Q51.065624 190.85521 50.39375 191.51146Q49.7375 192.15208 49.675 193.23021Z" fill-rule="nonzero"/><path fill="#9e9e9e" d="M19.221874 217.18333L20.690624 217.05833Q20.8625 218.13646 21.45625 218.68333Q22.05 219.21458 22.89375 219.21458Q23.909374 219.21458 24.6125 218.44896Q25.315624 217.68333 25.315624 216.41771Q25.315624 215.21458 24.64375 214.52708Q23.971874 213.82396 22.878124 213.82396Q22.190624 213.82396 21.64375 214.13646Q21.096874 214.44896 20.784374 214.93333L19.471874 214.76146L20.58125 208.88646L26.26875 208.88646L26.26875 210.23021L21.70625 210.23021L21.08125 213.30833Q22.1125 212.58958 23.253124 212.58958Q24.753124 212.58958 25.784374 213.63646Q26.815624 214.66771 26.815624 216.29271Q26.815624 217.85521 25.909374 218.98021Q24.8 220.38646 22.89375 220.38646Q21.33125 220.38646 20.346874 219.51146Q19.3625 218.62083 19.221874 217.18333ZM28.221874 214.52708Q28.221874 212.49583 28.628124 211.26146Q29.05 210.02708 29.878124 209.35521Q30.70625 208.68333 31.95625 208.68333Q32.878124 208.68333 33.565624 209.05833Q34.26875 209.41771 34.721874 210.12083Q35.175 210.82396 35.425 211.82396Q35.690624 212.82396 35.690624 214.52708Q35.690624 216.54271 35.26875 217.79271Q34.8625 219.02708 34.034374 219.71458Q33.20625 220.38646 31.95625 220.38646Q30.3 220.38646 29.346874 219.18333Q28.221874 217.76146 28.221874 214.52708ZM29.659374 214.52708Q29.659374 217.35521 30.315624 218.29271Q30.9875 219.21458 31.95625 219.21458Q32.925 219.21458 33.58125 218.27708Q34.2375 217.33958 34.2375 214.52708Q34.2375 211.69896 33.58125 210.77708Q32.925 209.83958 31.940624 209.83958Q30.971874 209.83958 30.39375 210.66771Q29.659374 211.71458 29.659374 214.52708ZM38.003124 220.18333L38.003124 218.57396L39.6125 218.57396L39.6125 220.18333L38.003124 220.18333ZM41.221874 214.52708Q41.221874 212.49583 41.628124 211.26146Q42.05 210.02708 42.878124 209.35521Q43.70625 208.68333 44.95625 208.68333Q45.878124 208.68333 46.565624 209.05833Q47.26875 209.41771 47.721874 210.12083Q48.175 210.82396 48.425 211.82396Q48.690624 212.82396 48.690624 214.52708Q48.690624 216.54271 48.26875 217.79271Q47.8625 219.02708 47.034374 219.71458Q46.20625 220.38646 44.95625 220.38646Q43.3 220.38646 42.346874 219.18333Q41.221874 217.76146 41.221874 214.52708ZM42.659374 214.52708Q42.659374 217.35521 43.315624 218.29271Q43.9875 219.21458 44.95625 219.21458Q45.925 219.21458 46.58125 218.27708Q47.2375 217.33958 47.2375 214.52708Q47.2375 211.69896 46.58125 210.77708Q45.925 209.83958 44.940624 209.83958Q43.971874 209.83958 43.39375 210.66771Q42.659374 211.71458 42.659374 214.52708ZM50.4875 211.48021Q50.4875 210.24583 51.096874 209.38646Q51.721874 208.52708 52.89375 208.52708Q53.971874 208.52708 54.675 209.30833Q55.378124 210.07396 55.378124 211.55833Q55.378124 213.01146 54.659374 213.80833Q53.95625 214.58958 52.909374 214.58958Q51.8625 214.58958 51.175 213.82396Q50.4875 213.04271 50.4875 211.48021ZM52.925 209.49583Q52.409374 209.49583 52.05 209.94896Q51.70625 210.40208 51.70625 211.62083Q51.70625 212.71458 52.05 213.16771Q52.409374 213.62083 52.925 213.62083Q53.45625 213.62083 53.8 213.16771Q54.159374 212.71458 54.159374 211.51146Q54.159374 210.40208 53.8 209.94896Q53.45625 209.49583 52.925 209.49583ZM52.940624 220.60521L59.20625 208.52708L60.346874 208.52708L54.096874 220.60521L52.940624 220.60521ZM57.89375 217.49583Q57.89375 216.26146 58.503124 215.40208Q59.128124 214.54271 60.3 214.54271Q61.378124 214.54271 62.08125 215.32396Q62.8 216.08958 62.8 217.57396Q62.8 219.02708 62.08125 219.82396Q61.3625 220.60521 60.315624 220.60521Q59.26875 220.60521 58.58125 219.82396Q57.89375 219.04271 57.89375 217.49583ZM60.346874 215.51146Q59.815624 215.51146 59.45625 215.96458Q59.1125 216.41771 59.1125 217.63646Q59.1125 218.73021 59.45625 219.18333Q59.815624 219.63646 60.33125 219.63646Q60.878124 219.63646 61.221874 219.18333Q61.565624 218.73021 61.565624 217.52708Q61.565624 216.41771 61.20625 215.96458Q60.8625 215.51146 60.346874 215.51146Z" fill-rule="nonzero"/><path stroke="#757575" stroke-width="1.0" stroke-linecap="butt" d="M18.55 203.68333L145.23334 203.68333L158.67166 203.68333" fill-rule="nonzero"/><path fill="#9e9e9e" d="M160.67166 203.68333C160.67166 202.57877 159.77623 201.68333 158.67166 201.68333C157.5671 201.68333 156.67166 202.57877 156.67166 203.68333C156.67166 204.7879 157.5671 205.68333 158.67166 205.68333C159.77623 205.68333 160.67166 204.7879 160.67166 203.68333" fill-rule="nonzero"/><path fill="#efefef" d="M551.6375 198.18333L551.6375 186.73021L553.91876 186.73021L556.6375 194.83958Q557.0125 195.96458 557.1844 196.52708Q557.3719 195.90208 557.79376 194.69896L560.52814 186.73021L562.575 186.73021L562.575 198.18333L561.10626 198.18333L561.10626 188.58958L557.77814 198.18333L556.41876 198.18333L553.10626 188.43333L553.10626 198.18333L551.6375 198.18333ZM569.91876 197.15208Q569.1375 197.82396 568.41876 198.10521Q567.7 198.37083 566.8719 198.37083Q565.4969 198.37083 564.7625 197.69896Q564.02814 197.02708 564.02814 195.99583Q564.02814 195.38646 564.3094 194.88646Q564.59064 194.37083 565.02814 194.07396Q565.48126 193.76146 566.04376 193.60521Q566.46564 193.49583 567.29376 193.40208Q568.9969 193.19896 569.8094 192.91771Q569.8094 192.62083 569.8094 192.54271Q569.8094 191.68333 569.41876 191.33958Q568.8719 190.85521 567.8094 190.85521Q566.825 190.85521 566.34064 191.21458Q565.8719 191.55833 565.65314 192.43333L564.27814 192.24583Q564.46564 191.37083 564.8875 190.82396Q565.325 190.27708 566.1375 189.99583Q566.95 189.69896 568.0125 189.69896Q569.075 189.69896 569.73126 189.94896Q570.40314 190.19896 570.71564 190.57396Q571.02814 190.94896 571.15314 191.52708Q571.23126 191.88646 571.23126 192.82396L571.23126 194.69896Q571.23126 196.66771 571.3094 197.18333Q571.40314 197.69896 571.66876 198.18333L570.2 198.18333Q569.98126 197.74583 569.91876 197.15208ZM569.8094 194.01146Q569.04376 194.32396 567.5125 194.54271Q566.6375 194.66771 566.27814 194.82396Q565.91876 194.98021 565.71564 195.29271Q565.52814 195.58958 565.52814 195.94896Q565.52814 196.51146 565.95 196.88646Q566.3875 197.26146 567.2 197.26146Q568.0125 197.26146 568.6375 196.91771Q569.27814 196.55833 569.575 195.93333Q569.8094 195.46458 569.8094 194.52708L569.8094 194.01146ZM573.5125 201.37083L573.5125 189.88646L574.79376 189.88646L574.79376 190.96458Q575.2469 190.32396 575.8094 190.01146Q576.3875 189.69896 577.2 189.69896Q578.2625 189.69896 579.075 190.24583Q579.8875 190.79271 580.29376 191.79271Q580.71564 192.77708 580.71564 193.96458Q580.71564 195.24583 580.2469 196.26146Q579.79376 197.27708 578.91876 197.82396Q578.0594 198.37083 577.09064 198.37083Q576.3875 198.37083 575.825 198.07396Q575.27814 197.77708 574.91876 197.32396L574.91876 201.37083L573.5125 201.37083ZM574.77814 194.07396Q574.77814 195.68333 575.41876 196.44896Q576.075 197.21458 576.9969 197.21458Q577.9344 197.21458 578.60626 196.41771Q579.27814 195.62083 579.27814 193.96458Q579.27814 192.37083 578.6219 191.58958Q577.96564 190.79271 577.0594 190.79271Q576.16876 190.79271 575.46564 191.63646Q574.77814 192.48021 574.77814 194.07396Z" fill-rule="nonzero"/><path fill="#9e9e9e" d="M537.1219 217.18333L538.59064 217.05833Q538.7625 218.13646 539.35626 218.68333Q539.95 219.21458 540.79376 219.21458Q541.8094 219.21458 542.5125 218.44896Q543.21564 217.68333 543.21564 216.41771Q543.21564 215.21458 542.54376 214.52708Q541.8719 213.82396 540.77814 213.82396Q540.09064 213.82396 539.54376 214.13646Q538.9969 214.44896 538.6844 214.93333L537.3719 214.76146L538.48126 208.88646L544.16876 208.88646L544.16876 210.23021L539.60626 210.23021L538.98126 213.30833Q540.0125 212.58958 541.15314 212.58958Q542.65314 212.58958 543.6844 213.63646Q544.71564 214.66771 544.71564 216.29271Q544.71564 217.85521 543.8094 218.98021Q542.7 220.38646 540.79376 220.38646Q539.23126 220.38646 538.2469 219.51146Q537.2625 218.62083 537.1219 217.18333ZM546.1219 214.52708Q546.1219 212.49583 546.52814 211.26146Q546.95 210.02708 547.77814 209.35521Q548.60626 208.68333 549.85626 208.68333Q550.77814 208.68333 551.46564 209.05833Q552.16876 209.41771 552.6219 210.12083Q553.075 210.82396 553.325 211.82396Q553.59064 212.82396 553.59064 214.52708Q553.59064 216.54271 553.16876 217.79271Q552.7625 219.02708 551.9344 219.71458Q551.10626 220.38646 549.85626 220.38646Q548.2 220.38646 547.2469 219.18333Q546.1219 217.76146 546.1219 214.52708ZM547.5594 214.52708Q547.5594 217.35521 548.21564 218.29271Q548.8875 219.21458 549.85626 219.21458Q550.825 219.21458 551.48126 218.27708Q552.1375 217.33958 552.1375 214.52708Q552.1375 211.69896 551.48126 210.77708Q550.825 209.83958 549.84064 209.83958Q548.8719 209.83958 548.29376 210.66771Q547.5594 211.71458 547.5594 214.52708ZM555.90314 220.18333L555.90314 218.57396L557.5125 218.57396L557.5125 220.18333L555.90314 220.18333ZM559.1219 214.52708Q559.1219 212.49583 559.52814 211.26146Q559.95 210.02708 560.77814 209.35521Q561.60626 208.68333 562.85626 208.68333Q563.77814 208.68333 564.46564 209.05833Q565.16876 209.41771 565.6219 210.12083Q566.075 210.82396 566.325 211.82396Q566.59064 212.82396 566.59064 214.52708Q566.59064 216.54271 566.16876 217.79271Q565.7625 219.02708 564.9344 219.71458Q564.10626 220.38646 562.85626 220.38646Q561.2 220.38646 560.2469 219.18333Q559.1219 217.76146 559.1219 214.52708ZM560.5594 214.52708Q560.5594 217.35521 561.21564 218.29271Q561.8875 219.21458 562.85626 219.21458Q563.825 219.21458 564.48126 218.27708Q565.1375 217.33958 565.1375 214.52708Q565.1375 211.69896 564.48126 210.77708Q563.825 209.83958 562.84064 209.83958Q561.8719 209.83958 561.29376 210.66771Q560.5594 211.71458 560.5594 214.52708ZM568.3875 211.48021Q568.3875 210.24583 568.9969 209.38646Q569.6219 208.52708 570.79376 208.52708Q571.8719 208.52708 572.575 209.30833Q573.27814 210.07396 573.27814 211.55833Q573.27814 213.01146 572.5594 213.80833Q571.85626 214.58958 570.8094 214.58958Q569.7625 214.58958 569.075 213.82396Q568.3875 213.04271 568.3875 211.48021ZM570.825 209.49583Q570.3094 209.49583 569.95 209.94896Q569.60626 210.40208 569.60626 211.62083Q569.60626 212.71458 569.95 213.16771Q570.3094 213.62083 570.825 213.62083Q571.35626 213.62083 571.7 213.16771Q572.0594 212.71458 572.0594 211.51146Q572.0594 210.40208 571.7 209.94896Q571.35626 209.49583 570.825 209.49583ZM570.84064 220.60521L577.10626 208.52708L578.2469 208.52708L571.9969 220.60521L570.84064 220.60521ZM575.79376 217.49583Q575.79376 216.26146 576.40314 215.40208Q577.02814 214.54271 578.2 214.54271Q579.27814 214.54271 579.98126 215.32396Q580.7 216.08958 580.7 217.57396Q580.7 219.02708 579.98126 219.82396Q579.2625 220.60521 578.21564 220.60521Q577.16876 220.60521 576.48126 219.82396Q575.79376 219.04271 575.79376 217.49583ZM578.2469 215.51146Q577.71564 215.51146 577.35626 215.96458Q577.0125 216.41771 577.0125 217.63646Q577.0125 218.73021 577.35626 219.18333Q577.71564 219.63646 578.23126 219.63646Q578.77814 219.63646 579.1219 219.18333Q579.46564 218.73021 579.46564 217.52708Q579.46564 216.41771 579.10626 215.96458Q578.7625 215.51146 578.2469 215.51146Z" fill-rule="nonzero"/><path stroke="#757575" stroke-width="1.0" stroke-linecap="butt" d="M581.45 203.68333L454.76666 203.68333L441.32834 203.68333" fill-rule="nonzero"/><path fill="#9e9e9e" d="M443.32834 203.68333C443.32834 202.57877 442.4329 201.68333 441.32834 201.68333C440.22375 201.68333 439.32834 202.57877 439.32834 203.68333C439.32834 204.7879 440.22375 205.68333 441.32834 205.68333C442.4329 205.68333 443.32834 204.7879 443.32834 203.68333" fill-rule="nonzero"/><path fill="#f3f3f3" d="M265.98438 37.55L265.98438 23.2375L268.84375 23.2375L272.21875 33.3625Q272.6875 34.784374 272.90625 35.4875Q273.15625 34.70625 273.67188 33.190624L277.09375 23.2375L279.64062 23.2375L279.64062 37.55L277.82812 37.55L277.82812 25.565624L273.65625 37.55L271.95312 37.55L267.8125 25.3625L267.8125 37.55L265.98438 37.55ZM289.92188 34.20625L291.73438 34.440624Q291.3125 36.01875 290.14062 36.909374Q288.98438 37.784374 287.17188 37.784374Q284.90625 37.784374 283.5625 36.39375Q282.23438 34.9875 282.23438 32.45625Q282.23438 29.83125 283.57812 28.39375Q284.92188 26.940624 287.07812 26.940624Q289.15625 26.940624 290.46875 28.3625Q291.79688 29.76875 291.79688 32.346874Q291.79688 32.503124 291.78125 32.815624L284.04688 32.815624Q284.14062 34.51875 285.01562 35.425Q285.89062 36.33125 287.1875 36.33125Q288.15625 36.33125 288.82812 35.83125Q289.51562 35.315624 289.92188 34.20625ZM284.14062 31.3625L289.9375 31.3625Q289.82812 30.065624 289.28125 29.409374Q288.4375 28.39375 287.09375 28.39375Q285.89062 28.39375 285.0625 29.20625Q284.23438 30.003124 284.14062 31.3625ZM300.54688 37.55L300.54688 36.2375Q299.5625 37.784374 297.64062 37.784374Q296.40625 37.784374 295.35938 37.096874Q294.32812 36.409374 293.75 35.190624Q293.1875 33.971874 293.1875 32.378124Q293.1875 30.815624 293.70312 29.55Q294.21875 28.284374 295.25 27.6125Q296.29688 26.940624 297.5625 26.940624Q298.5 26.940624 299.23438 27.346874Q299.96875 27.7375 300.4375 28.3625L300.4375 23.2375L302.17188 23.2375L302.17188 37.55L300.54688 37.55ZM294.98438 32.378124Q294.98438 34.3625 295.82812 35.346874Q296.67188 36.33125 297.8125 36.33125Q298.96875 36.33125 299.76562 35.39375Q300.57812 34.45625 300.57812 32.51875Q300.57812 30.39375 299.75 29.39375Q298.9375 28.39375 297.73438 28.39375Q296.5625 28.39375 295.76562 29.3625Q294.98438 30.315624 294.98438 32.378124ZM304.82812 25.253124L304.82812 23.2375L306.59375 23.2375L306.59375 25.253124L304.82812 25.253124ZM304.82812 37.55L304.82812 27.175L306.59375 27.175L306.59375 37.55L304.82812 37.55ZM315.60938 37.55L315.60938 36.01875Q314.40625 37.784374 312.32812 37.784374Q311.40625 37.784374 310.60938 37.440624Q309.8125 37.08125 309.42188 36.55Q309.04688 36.01875 308.89062 35.2375Q308.78125 34.721874 308.78125 33.596874L308.78125 27.175L310.53125 27.175L310.53125 32.925Q310.53125 34.3 310.64062 34.784374Q310.8125 35.471874 311.34375 35.878124Q311.89062 36.26875 312.67188 36.26875Q313.46875 36.26875 314.15625 35.8625Q314.85938 35.45625 315.14062 34.76875Q315.4375 34.065624 315.4375 32.7375L315.4375 27.175L317.1875 27.175L317.1875 37.55L315.60938 37.55ZM319.8125 37.55L319.8125 27.175L321.39062 27.175L321.39062 28.628124Q321.875 27.878124 322.6875 27.409374Q323.5 26.940624 324.53125 26.940624Q325.6875 26.940624 326.42188 27.425Q327.15625 27.89375 327.46875 28.753124Q328.70312 26.940624 330.67188 26.940624Q332.21875 26.940624 333.04688 27.8Q333.875 28.659374 333.875 30.425L333.875 37.55L332.125 37.55L332.125 31.01875Q332.125 29.95625 331.95312 29.503124Q331.78125 29.034374 331.32812 28.753124Q330.89062 28.471874 330.28125 28.471874Q329.1875 28.471874 328.45312 29.20625Q327.73438 29.925 327.73438 31.51875L327.73438 37.55L325.98438 37.55L325.98438 30.815624Q325.98438 29.64375 325.54688 29.065624Q325.125 28.471874 324.14062 28.471874Q323.40625 28.471874 322.76562 28.8625Q322.14062 29.253124 321.85938 30.003124Q321.57812 30.753124 321.57812 32.175L321.57812 37.55L319.8125 37.55Z" fill-rule="nonzero"/></svg>