<svg version="1.1" viewBox="0.0 0.0 600.0 371.0" fill="none" stroke="none" stroke-linecap="square" stroke-miterlimit="10" width="600" height="371" xmlns:xlink="http://www.w3.org/1999/xlink" xmlns="http://www.w3.org/2000/svg"><path fill="#ffffff" fill-opacity="0.0" d="M0 0L600.0 0L600.0 371.0L0 371.0L0 0Z" fill-rule="nonzero"/><path fill="#78a94e" d="M300.0 54.916668C382.16156 54.916668 448.76666 121.521774 448.76666 203.68333L374.38333 203.68333C374.38333 162.60255 341.08078 129.3 300.0 129.3Z" fill-rule="nonzero"/><path fill="#d8753e" d="M151.23334 203.68333C151.23334 121.521774 217.83844 54.916668 300.0 54.916668L300.0 129.3C258.91922 129.3 225.61667 162.60255 225.61667 203.68333Z" fill-rule="nonzero"/><path fill="#8c4595" d="M448.76666 203.68333C448.76666 285.8449 382.16156 352.45 300.0 352.45C217.83844 352.45 151.23334 285.8449 151.23334 203.68333L225.61667 203.68333C225.61667 244.76411 258.91922 278.06668 300.0 278.06668C341.08078 278.06668 374.38333 244.76411 374.38333 203.68333Z" fill-rule="nonzero"/><path fill="#ffffff" d="M362.45795 129.77226L362.45795 131.28789L353.94232 131.28789Q353.9267 130.70976 354.12982 130.19414Q354.45795 129.31914 355.16107 128.47539Q355.87982 127.63164 357.2392 126.52226Q359.33295 124.80351 360.06732 123.80351Q360.81732 122.78789 360.81732 121.89726Q360.81732 120.94414 360.14545 120.30351Q359.47357 119.66289 358.39545 119.66289Q357.2392 119.66289 356.5517 120.35039Q355.87982 121.03789 355.8642 122.24101L354.2392 122.06914Q354.41107 120.25664 355.4892 119.30351Q356.58295 118.35039 358.4267 118.35039Q360.27045 118.35039 361.34857 119.38164Q362.44232 120.41289 362.44232 121.92851Q362.44232 122.69414 362.1142 123.44414Q361.8017 124.19414 361.06732 125.02226Q360.33295 125.85039 358.62982 127.28789Q357.20795 128.49101 356.8017 128.91289Q356.39545 129.33476 356.14545 129.77226L362.45795 129.77226ZM364.14545 127.91289L365.8017 127.77226Q365.9892 128.99101 366.66107 129.60039Q367.33295 130.20976 368.28607 130.20976Q369.4267 130.20976 370.20795 129.35039Q371.00482 128.49101 371.00482 127.05351Q371.00482 125.70976 370.2392 124.92851Q369.4892 124.14726 368.25482 124.14726Q367.4892 124.14726 366.8642 124.49101Q366.25482 124.83476 365.91107 125.39726L364.4267 125.19414L365.6767 118.58476L372.08295 118.58476L372.08295 120.08476L366.94232 120.08476L366.2392 123.55351Q367.41107 122.74101 368.6767 122.74101Q370.3642 122.74101 371.52045 123.91289Q372.69232 125.08476 372.69232 126.91289Q372.69232 128.66289 371.66107 129.94414Q370.4267 131.50664 368.28607 131.50664Q366.52045 131.50664 365.41107 130.52226Q364.3017 129.53789 364.14545 127.91289ZM375.03607 131.28789L375.03607 129.49101L376.83295 129.49101L376.83295 131.28789L375.03607 131.28789ZM379.14545 124.92851Q379.14545 122.64726 379.6142 121.25664Q380.08295 119.86601 381.00482 119.11601Q381.94232 118.35039 383.34857 118.35039Q384.37982 118.35039 385.16107 118.77226Q385.94232 119.17851 386.44232 119.97539Q386.95795 120.75664 387.25482 121.89726Q387.5517 123.02226 387.5517 124.92851Q387.5517 127.19414 387.08295 128.60039Q386.6142 129.99101 385.6767 130.75664Q384.75482 131.50664 383.34857 131.50664Q381.47357 131.50664 380.41107 130.17851Q379.14545 128.56914 379.14545 124.92851ZM380.77045 124.92851Q380.77045 128.10039 381.50482 129.16289Q382.25482 130.20976 383.34857 130.20976Q384.4267 130.20976 385.1767 129.16289Q385.9267 128.10039 385.9267 124.92851Q385.9267 121.75664 385.1767 120.70976Q384.4267 119.66289 383.33295 119.66289Q382.2392 119.66289 381.58295 120.58476Q380.77045 121.75664 380.77045 124.92851ZM389.44232 121.49101Q389.44232 120.11601 390.12982 119.14726Q390.83295 118.17851 392.14545 118.17851Q393.3642 118.17851 394.16107 119.05351Q394.95795 119.91289 394.95795 121.60039Q394.95795 123.22539 394.14545 124.11601Q393.34857 124.99101 392.16107 124.99101Q391.00482 124.99101 390.22357 124.13164Q389.44232 123.25664 389.44232 121.49101ZM392.19232 119.27226Q391.59857 119.27226 391.20795 119.78789Q390.81732 120.28789 390.81732 121.64726Q390.81732 122.89726 391.20795 123.39726Q391.6142 123.89726 392.19232 123.89726Q392.78607 123.89726 393.1767 123.39726Q393.56732 122.88164 393.56732 121.53789Q393.56732 120.28789 393.1767 119.78789Q392.78607 119.27226 392.19232 119.27226ZM392.20795 131.75664L399.25482 118.17851L400.53607 118.17851L393.50482 131.75664L392.20795 131.75664ZM397.77045 128.25664Q397.77045 126.88164 398.45795 125.91289Q399.16107 124.94414 400.4892 124.94414Q401.70795 124.94414 402.4892 125.81914Q403.28607 126.67851 403.28607 128.36601Q403.28607 129.99101 402.4892 130.88164Q401.69232 131.75664 400.50482 131.75664Q399.33295 131.75664 398.5517 130.88164Q397.77045 130.00664 397.77045 128.25664ZM400.53607 126.03789Q399.94232 126.03789 399.5517 126.55351Q399.16107 127.05351 399.16107 128.42851Q399.16107 129.64726 399.5517 130.16289Q399.94232 130.67851 400.52045 130.67851Q401.12982 130.67851 401.52045 130.16289Q401.91107 129.64726 401.91107 128.30351Q401.91107 127.05351 401.52045 126.55351Q401.12982 126.03789 400.53607 126.03789Z" fill-rule="nonzero"/><path fill="#ffffff" d="M275.25 324.61423L276.90625 324.4736Q277.09375 325.69235 277.76562 326.30173Q278.4375 326.9111 279.39062 326.9111Q280.53125 326.9111 281.3125 326.05173Q282.10938 325.19235 282.10938 323.75485Q282.10938 322.4111 281.34375 321.62985Q280.59375 320.8486 279.35938 320.8486Q278.59375 320.8486 277.96875 321.19235Q277.35938 321.5361 277.01562 322.0986L275.53125 321.89548L276.78125 315.2861L283.1875 315.2861L283.1875 316.7861L278.04688 316.7861L277.34375 320.25485Q278.51562 319.44235 279.78125 319.44235Q281.46875 319.44235 282.625 320.61423Q283.79688 321.7861 283.79688 323.61423Q283.79688 325.36423 282.76562 326.64548Q281.53125 328.20798 279.39062 328.20798Q277.625 328.20798 276.51562 327.2236Q275.40625 326.23923 275.25 324.61423ZM285.25 321.62985Q285.25 319.3486 285.71875 317.95798Q286.1875 316.56735 287.10938 315.81735Q288.04688 315.05173 289.45312 315.05173Q290.48438 315.05173 291.26562 315.4736Q292.04688 315.87985 292.54688 316.67673Q293.0625 317.45798 293.35938 318.5986Q293.65625 319.7236 293.65625 321.62985Q293.65625 323.89548 293.1875 325.30173Q292.71875 326.69235 291.78125 327.45798Q290.85938 328.20798 289.45312 328.20798Q287.57812 328.20798 286.51562 326.87985Q285.25 325.27048 285.25 321.62985ZM286.875 321.62985Q286.875 324.80173 287.60938 325.86423Q288.35938 326.9111 289.45312 326.9111Q290.53125 326.9111 291.28125 325.86423Q292.03125 324.80173 292.03125 321.62985Q292.03125 318.45798 291.28125 317.4111Q290.53125 316.36423 289.4375 316.36423Q288.34375 316.36423 287.6875 317.2861Q286.875 318.45798 286.875 321.62985ZM296.14062 327.98923L296.14062 326.19235L297.9375 326.19235L297.9375 327.98923L296.14062 327.98923ZM300.25 321.62985Q300.25 319.3486 300.71875 317.95798Q301.1875 316.56735 302.10938 315.81735Q303.04688 315.05173 304.45312 315.05173Q305.48438 315.05173 306.26562 315.4736Q307.04688 315.87985 307.54688 316.67673Q308.0625 317.45798 308.35938 318.5986Q308.65625 319.7236 308.65625 321.62985Q308.65625 323.89548 308.1875 325.30173Q307.71875 326.69235 306.78125 327.45798Q305.85938 328.20798 304.45312 328.20798Q302.57812 328.20798 301.51562 326.87985Q300.25 325.27048 300.25 321.62985ZM301.875 321.62985Q301.875 324.80173 302.60938 325.86423Q303.35938 326.9111 304.45312 326.9111Q305.53125 326.9111 306.28125 325.86423Q307.03125 324.80173 307.03125 321.62985Q307.03125 318.45798 306.28125 317.4111Q305.53125 316.36423 304.4375 316.36423Q303.34375 316.36423 302.6875 317.2861Q301.875 318.45798 301.875 321.62985ZM310.54688 318.19235Q310.54688 316.81735 311.23438 315.8486Q311.9375 314.87985 313.25 314.87985Q314.46875 314.87985 315.26562 315.75485Q316.0625 316.61423 316.0625 318.30173Q316.0625 319.92673 315.25 320.81735Q314.45312 321.69235 313.26562 321.69235Q312.10938 321.69235 311.32812 320.83298Q310.54688 319.95798 310.54688 318.19235ZM313.29688 315.9736Q312.70312 315.9736 312.3125 316.48923Q311.92188 316.98923 311.92188 318.3486Q311.92188 319.5986 312.3125 320.0986Q312.71875 320.5986 313.29688 320.5986Q313.89062 320.5986 314.28125 320.0986Q314.67188 319.58298 314.67188 318.23923Q314.67188 316.98923 314.28125 316.48923Q313.89062 315.9736 313.29688 315.9736ZM313.3125 328.45798L320.35938 314.87985L321.64062 314.87985L314.60938 328.45798L313.3125 328.45798ZM318.875 324.95798Q318.875 323.58298 319.5625 322.61423Q320.26562 321.64548 321.59375 321.64548Q322.8125 321.64548 323.59375 322.52048Q324.39062 323.37985 324.39062 325.06735Q324.39062 326.69235 323.59375 327.58298Q322.79688 328.45798 321.60938 328.45798Q320.4375 328.45798 319.65625 327.58298Q318.875 326.70798 318.875 324.95798ZM321.64062 322.73923Q321.04688 322.73923 320.65625 323.25485Q320.26562 323.75485 320.26562 325.12985Q320.26562 326.3486 320.65625 326.86423Q321.04688 327.37985 321.625 327.37985Q322.23438 327.37985 322.625 326.86423Q323.01562 326.3486 323.01562 325.00485Q323.01562 323.75485 322.625 323.25485Q322.23438 322.73923 321.64062 322.73923Z" fill-rule="nonzero"/><path fill="#ffffff" d="M204.66707 129.77226L204.66707 131.28789L196.15144 131.28789Q196.13582 130.70976 196.33894 130.19414Q196.66707 129.31914 197.3702 128.47539Q198.08894 127.63164 199.44832 126.52226Q201.54207 124.80351 202.27644 123.80351Q203.02644 122.78789 203.02644 121.89726Q203.02644 120.94414 202.35457 120.30351Q201.6827 119.66289 200.60457 119.66289Q199.44832 119.66289 198.76082 120.35039Q198.08894 121.03789 198.07332 122.24101L196.44832 122.06914Q196.6202 120.25664 197.69832 119.30351Q198.79207 118.35039 200.63582 118.35039Q202.47957 118.35039 203.5577 119.38164Q204.65144 120.41289 204.65144 121.92851Q204.65144 122.69414 204.32332 123.44414Q204.01082 124.19414 203.27644 125.02226Q202.54207 125.85039 200.83894 127.28789Q199.41707 128.49101 199.01082 128.91289Q198.60457 129.33476 198.35457 129.77226L204.66707 129.77226ZM206.35457 127.91289L208.01082 127.77226Q208.19832 128.99101 208.8702 129.60039Q209.54207 130.20976 210.4952 130.20976Q211.63582 130.20976 212.41707 129.35039Q213.21394 128.49101 213.21394 127.05351Q213.21394 125.70976 212.44832 124.92851Q211.69832 124.14726 210.46394 124.14726Q209.69832 124.14726 209.07332 124.49101Q208.46394 124.83476 208.1202 125.39726L206.63582 125.19414L207.88582 118.58476L214.29207 118.58476L214.29207 120.08476L209.15144 120.08476L208.44832 123.55351Q209.6202 122.74101 210.88582 122.74101Q212.57332 122.74101 213.72957 123.91289Q214.90144 125.08476 214.90144 126.91289Q214.90144 128.66289 213.8702 129.94414Q212.63582 131.50664 210.4952 131.50664Q208.72957 131.50664 207.6202 130.52226Q206.51082 129.53789 206.35457 127.91289ZM217.2452 131.28789L217.2452 129.49101L219.04207 129.49101L219.04207 131.28789L217.2452 131.28789ZM221.35457 124.92851Q221.35457 122.64726 221.82332 121.25664Q222.29207 119.86601 223.21394 119.11601Q224.15144 118.35039 225.5577 118.35039Q226.58894 118.35039 227.3702 118.77226Q228.15144 119.17851 228.65144 119.97539Q229.16707 120.75664 229.46394 121.89726Q229.76082 123.02226 229.76082 124.92851Q229.76082 127.19414 229.29207 128.60039Q228.82332 129.99101 227.88582 130.75664Q226.96394 131.50664 225.5577 131.50664Q223.6827 131.50664 222.6202 130.17851Q221.35457 128.56914 221.35457 124.92851ZM222.97957 124.92851Q222.97957 128.10039 223.71394 129.16289Q224.46394 130.20976 225.5577 130.20976Q226.63582 130.20976 227.38582 129.16289Q228.13582 128.10039 228.13582 124.92851Q228.13582 121.75664 227.38582 120.70976Q226.63582 119.66289 225.54207 119.66289Q224.44832 119.66289 223.79207 120.58476Q222.97957 121.75664 222.97957 124.92851ZM231.65144 121.49101Q231.65144 120.11601 232.33894 119.14726Q233.04207 118.17851 234.35457 118.17851Q235.57332 118.17851 236.3702 119.05351Q237.16707 119.91289 237.16707 121.60039Q237.16707 123.22539 236.35457 124.11601Q235.5577 124.99101 234.3702 124.99101Q233.21394 124.99101 232.4327 124.13164Q231.65144 123.25664 231.65144 121.49101ZM234.40144 119.27226Q233.8077 119.27226 233.41707 119.78789Q233.02644 120.28789 233.02644 121.64726Q233.02644 122.89726 233.41707 123.39726Q233.82332 123.89726 234.40144 123.89726Q234.9952 123.89726 235.38582 123.39726Q235.77644 122.88164 235.77644 121.53789Q235.77644 120.28789 235.38582 119.78789Q234.9952 119.27226 234.40144 119.27226ZM234.41707 131.75664L241.46394 118.17851L242.7452 118.17851L235.71394 131.75664L234.41707 131.75664ZM239.97957 128.25664Q239.97957 126.88164 240.66707 125.91289Q241.3702 124.94414 242.69832 124.94414Q243.91707 124.94414 244.69832 125.81914Q245.4952 126.67851 245.4952 128.36601Q245.4952 129.99101 244.69832 130.88164Q243.90144 131.75664 242.71394 131.75664Q241.54207 131.75664 240.76082 130.88164Q239.97957 130.00664 239.97957 128.25664ZM242.7452 126.03789Q242.15144 126.03789 241.76082 126.55351Q241.3702 127.05351 241.3702 128.42851Q241.3702 129.64726 241.76082 130.16289Q242.15144 130.67851 242.72957 130.67851Q243.33894 130.67851 243.72957 130.16289Q244.1202 129.64726 244.1202 128.30351Q244.1202 127.05351 243.72957 126.55351Q243.33894 126.03789 242.7452 126.03789Z" fill-rule="nonzero"/><path stroke="#ffffff" stroke-width="1.0" stroke-linejoin="round" stroke-linecap="round" d="M374.38333 203.68333C374.38333 162.60255 341.08078 129.3 300.0 129.3L300.0 54.916668C382.16156 54.916668 448.76666 121.521774 448.76666 203.68333" fill-rule="nonzero"/><path stroke="#ffffff" stroke-width="1.0" stroke-linejoin="round" stroke-linecap="round" d="M225.61667 203.68333C225.61667 244.76411 258.91922 278.06668 300.0 278.06668C341.08078 278.06668 374.38333 244.76411 374.38333 203.68333L448.76666 203.68333C448.76666 285.8449 382.16156 352.45 300.0 352.45C217.83844 352.45 151.23334 285.8449 151.23334 203.68333" fill-rule="nonzero"/><path stroke="#ffffff" stroke-width="1.0" stroke-linejoin="round" stroke-linecap="round" d="M300.0 129.3C258.91922 129.3 225.61667 162.60255 225.61667 203.68333L151.23334 203.68333C151.23334 121.521774 217.83844 54.916668 300.0 54.916668" fill-rule="nonzero"/><path fill="#efefef" d="M18.51875 98.24911L22.925 86.79598L24.565624 86.79598L29.253124 98.24911L27.51875 98.24911L26.190624 94.78036L21.39375 94.78036L20.14375 98.24911L18.51875 98.24911ZM21.83125 93.54598L25.721874 93.54598L24.51875 90.37411Q23.971874 88.92098 23.70625 87.99911Q23.4875 89.09286 23.096874 90.18661L21.83125 93.54598ZM30.596874 98.24911L30.596874 89.95223L31.8625 89.95223L31.8625 91.20223Q32.346874 90.32723 32.753124 90.04598Q33.159374 89.76473 33.659374 89.76473Q34.3625 89.76473 35.096874 90.21786L34.6125 91.51473Q34.096874 91.21786 33.58125 91.21786Q33.128124 91.21786 32.753124 91.49911Q32.39375 91.76473 32.2375 92.26473Q32.003124 93.01473 32.003124 93.90536L32.003124 98.24911L30.596874 98.24911ZM38.675 96.98348L38.878124 98.23348Q38.284374 98.35848 37.815624 98.35848Q37.05 98.35848 36.628124 98.12411Q36.20625 97.87411 36.034374 97.48348Q35.8625 97.07723 35.8625 95.81161L35.8625 91.04598L34.83125 91.04598L34.83125 89.95223L35.8625 89.95223L35.8625 87.88973L37.26875 87.04598L37.26875 89.95223L38.675 89.95223L38.675 91.04598L37.26875 91.04598L37.26875 95.88973Q37.26875 96.49911 37.33125 96.67098Q37.409374 96.84286 37.58125 96.95223Q37.753124 97.04598 38.065624 97.04598Q38.3 97.04598 38.675 96.98348ZM39.05 95.76473L40.440624 95.54598Q40.55 96.38973 41.08125 96.84286Q41.628124 97.28036 42.58125 97.28036Q43.55 97.28036 44.01875 96.88973Q44.4875 96.48348 44.4875 95.95223Q44.4875 95.48348 44.08125 95.20223Q43.784374 95.01473 42.64375 94.73348Q41.096874 94.34286 40.4875 94.06161Q39.89375 93.76473 39.58125 93.26473Q39.284374 92.76473 39.284374 92.15536Q39.284374 91.59286 39.534374 91.12411Q39.784374 90.65536 40.221874 90.34286Q40.55 90.09286 41.1125 89.93661Q41.690624 89.76473 42.33125 89.76473Q43.315624 89.76473 44.05 90.04598Q44.784374 90.32723 45.128124 90.81161Q45.4875 91.28036 45.628124 92.09286L44.253124 92.28036Q44.159374 91.63973 43.70625 91.28036Q43.253124 90.92098 42.440624 90.92098Q41.471874 90.92098 41.05 91.24911Q40.64375 91.56161 40.64375 91.98348Q40.64375 92.26473 40.815624 92.48348Q40.9875 92.70223 41.346874 92.85848Q41.565624 92.93661 42.596874 93.21786Q44.08125 93.60848 44.675 93.87411Q45.26875 94.12411 45.596874 94.60848Q45.940624 95.09286 45.940624 95.81161Q45.940624 96.51473 45.51875 97.13973Q45.1125 97.74911 44.33125 98.09286Q43.565624 98.43661 42.596874 98.43661Q40.971874 98.43661 40.128124 97.76473Q39.284374 97.09286 39.05 95.76473ZM58.159374 96.88973Q57.45625 97.67098 56.628124 98.06161Q55.815624 98.45223 54.8625 98.45223Q53.1125 98.45223 52.08125 97.24911Q51.2375 96.28036 51.2375 95.09286Q51.2375 94.03036 51.925 93.17098Q52.6125 92.31161 53.971874 91.67098Q53.190624 90.78036 52.925 90.23348Q52.675 89.67098 52.675 89.15536Q52.675 88.12411 53.4875 87.35848Q54.3 86.59286 55.51875 86.59286Q56.690624 86.59286 57.440624 87.31161Q58.190624 88.03036 58.190624 89.04598Q58.190624 90.67098 56.01875 91.82723L58.08125 94.45223Q58.425 93.76473 58.628124 92.85848L60.08125 93.17098Q59.70625 94.67098 59.065624 95.63973Q59.8625 96.68661 60.8625 97.38973L59.909374 98.51473Q59.065624 97.96786 58.159374 96.88973ZM55.3 90.92098Q56.20625 90.38973 56.471874 89.98348Q56.753124 89.57723 56.753124 89.07723Q56.753124 88.49911 56.378124 88.12411Q56.003124 87.74911 55.45625 87.74911Q54.878124 87.74911 54.503124 88.12411Q54.128124 88.48348 54.128124 89.01473Q54.128124 89.28036 54.253124 89.57723Q54.39375 89.87411 54.675 90.20223L55.3 90.92098ZM57.26875 95.78036L54.690624 92.59286Q53.55 93.26473 53.14375 93.85848Q52.753124 94.43661 52.753124 94.99911Q52.753124 95.70223 53.3 96.45223Q53.8625 97.20223 54.878124 97.20223Q55.51875 97.20223 56.190624 96.81161Q56.8625 96.40536 57.26875 95.78036ZM65.51875 98.24911L69.925 86.79598L71.56563 86.79598L76.25313 98.24911L74.51875 98.24911L73.19063 94.78036L68.39375 94.78036L67.14375 98.24911L65.51875 98.24911ZM68.83125 93.54598L72.72188 93.54598L71.51875 90.37411Q70.97188 88.92098 70.70625 87.99911Q70.4875 89.09286 70.09688 90.18661L68.83125 93.54598ZM77.6125 98.24911L77.6125 89.95223L78.87813 89.95223L78.87813 91.12411Q79.78438 89.76473 81.51875 89.76473Q82.26875 89.76473 82.89375 90.03036Q83.51875 90.29598 83.83125 90.73348Q84.14375 91.17098 84.26875 91.78036Q84.34688 92.17098 84.34688 93.13973L84.34688 98.24911L82.94063 98.24911L82.94063 93.20223Q82.94063 92.34286 82.76875 91.92098Q82.6125 91.48348 82.19063 91.23348Q81.78438 90.98348 81.22188 90.98348Q80.31563 90.98348 79.65938 91.56161Q79.01875 92.12411 79.01875 93.71786L79.01875 98.24911L77.6125 98.24911ZM89.675 96.98348L89.87813 98.23348Q89.28438 98.35848 88.81563 98.35848Q88.05 98.35848 87.62813 98.12411Q87.20625 97.87411 87.03438 97.48348Q86.8625 97.07723 86.8625 95.81161L86.8625 91.04598L85.83125 91.04598L85.83125 89.95223L86.8625 89.95223L86.8625 87.88973L88.26875 87.04598L88.26875 89.95223L89.675 89.95223L89.675 91.04598L88.26875 91.04598L88.26875 95.88973Q88.26875 96.49911 88.33125 96.67098Q88.40938 96.84286 88.58125 96.95223Q88.75313 97.04598 89.06563 97.04598Q89.3 97.04598 89.675 96.98348ZM90.6125 88.40536L90.6125 86.79598L92.01875 86.79598L92.01875 88.40536L90.6125 88.40536ZM90.6125 98.24911L90.6125 89.95223L92.01875 89.95223L92.01875 98.24911L90.6125 98.24911ZM99.89375 101.43661L99.89375 97.35848Q99.56563 97.82723 98.97188 98.13973Q98.39375 98.43661 97.72188 98.43661Q96.25313 98.43661 95.175 97.26473Q94.1125 96.07723 94.1125 94.01473Q94.1125 92.76473 94.55 91.78036Q94.9875 90.78036 95.8 90.28036Q96.62813 89.76473 97.6125 89.76473Q99.15938 89.76473 100.03438 91.06161L100.03438 89.95223L101.3 89.95223L101.3 101.43661L99.89375 101.43661ZM95.56563 94.07723Q95.56563 95.67098 96.2375 96.48348Q96.90938 97.28036 97.84688 97.28036Q98.7375 97.28036 99.37813 96.51473Q100.03438 95.74911 100.03438 94.20223Q100.03438 92.54598 99.34688 91.71786Q98.675 90.87411 97.75313 90.87411Q96.83125 90.87411 96.19063 91.65536Q95.56563 92.42098 95.56563 94.07723ZM109.05 98.24911L109.05 97.03036Q108.08125 98.43661 106.40938 98.43661Q105.675 98.43661 105.03438 98.15536Q104.40938 97.87411 104.09688 97.45223Q103.78438 97.01473 103.65938 96.40536Q103.58125 95.98348 103.58125 95.09286L103.58125 89.95223L104.9875 89.95223L104.9875 94.54598Q104.9875 95.65536 105.06563 96.03036Q105.20625 96.59286 105.62813 96.90536Q106.06563 97.21786 106.69063 97.21786Q107.33125 97.21786 107.87813 96.90536Q108.44063 96.57723 108.65938 96.01473Q108.89375 95.45223 108.89375 94.38973L108.89375 89.95223L110.3 89.95223L110.3 98.24911L109.05 98.24911ZM112.6125 88.40536L112.6125 86.79598L114.01875 86.79598L114.01875 88.40536L112.6125 88.40536ZM112.6125 98.24911L112.6125 89.95223L114.01875 89.95223L114.01875 98.24911L112.6125 98.24911ZM119.675 96.98348L119.87813 98.23348Q119.28438 98.35848 118.81563 98.35848Q118.05 98.35848 117.62813 98.12411Q117.20625 97.87411 117.03438 97.48348Q116.8625 97.07723 116.8625 95.81161L116.8625 91.04598L115.83125 91.04598L115.83125 89.95223L116.8625 89.95223L116.8625 87.88973L118.26875 87.04598L118.26875 89.95223L119.675 89.95223L119.675 91.04598L118.26875 91.04598L118.26875 95.88973Q118.26875 96.49911 118.33125 96.67098Q118.40938 96.84286 118.58125 96.95223Q118.75313 97.04598 119.06563 97.04598Q119.3 97.04598 119.675 96.98348ZM120.6125 88.40536L120.6125 86.79598L122.01875 86.79598L122.01875 88.40536L120.6125 88.40536ZM120.6125 98.24911L120.6125 89.95223L122.01875 89.95223L122.01875 98.24911L120.6125 98.24911ZM130.28438 95.57723L131.7375 95.74911Q131.39375 97.03036 130.45625 97.73348Q129.53438 98.43661 128.09688 98.43661Q126.26875 98.43661 125.20625 97.31161Q124.14375 96.18661 124.14375 94.17098Q124.14375 92.07723 125.22188 90.92098Q126.3 89.76473 128.01875 89.76473Q129.675 89.76473 130.72188 90.90536Q131.78438 92.03036 131.78438 94.07723Q131.78438 94.20223 131.78438 94.45223L125.59688 94.45223Q125.675 95.82723 126.3625 96.56161Q127.06563 97.28036 128.09688 97.28036Q128.87813 97.28036 129.425 96.87411Q129.97188 96.46786 130.28438 95.57723ZM125.675 93.29598L130.3 93.29598Q130.20625 92.24911 129.76875 91.73348Q129.09688 90.92098 128.03438 90.92098Q127.06563 90.92098 126.39375 91.57723Q125.7375 92.21786 125.675 93.29598ZM133.05 95.76473L134.44063 95.54598Q134.55 96.38973 135.08125 96.84286Q135.62813 97.28036 136.58125 97.28036Q137.55 97.28036 138.01875 96.88973Q138.4875 96.48348 138.4875 95.95223Q138.4875 95.48348 138.08125 95.20223Q137.78438 95.01473 136.64375 94.73348Q135.09688 94.34286 134.4875 94.06161Q133.89375 93.76473 133.58125 93.26473Q133.28438 92.76473 133.28438 92.15536Q133.28438 91.59286 133.53438 91.12411Q133.78438 90.65536 134.22188 90.34286Q134.55 90.09286 135.1125 89.93661Q135.69063 89.76473 136.33125 89.76473Q137.31563 89.76473 138.05 90.04598Q138.78438 90.32723 139.12813 90.81161Q139.4875 91.28036 139.62813 92.09286L138.25313 92.28036Q138.15938 91.63973 137.70625 91.28036Q137.25313 90.92098 136.44063 90.92098Q135.47188 90.92098 135.05 91.24911Q134.64375 91.56161 134.64375 91.98348Q134.64375 92.26473 134.81563 92.48348Q134.9875 92.70223 135.34688 92.85848Q135.56563 92.93661 136.59688 93.21786Q138.08125 93.60848 138.675 93.87411Q139.26875 94.12411 139.59688 94.60848Q139.94063 95.09286 139.94063 95.81161Q139.94063 96.51473 139.51875 97.13973Q139.1125 97.74911 138.33125 98.09286Q137.56563 98.43661 136.59688 98.43661Q134.97188 98.43661 134.12813 97.76473Q133.28438 97.09286 133.05 95.76473Z" fill-rule="nonzero"/><path fill="#9e9e9e" d="M26.6125 118.88973L26.6125 120.24911L19.034374 120.24911Q19.01875 119.73348 19.20625 119.26473Q19.4875 118.49911 20.128124 117.74911Q20.76875 116.99911 21.971874 116.01473Q23.83125 114.48348 24.4875 113.59286Q25.14375 112.68661 25.14375 111.88973Q25.14375 111.06161 24.55 110.48348Q23.95625 109.90536 22.9875 109.90536Q21.971874 109.90536 21.3625 110.51473Q20.753124 111.12411 20.753124 112.20223L19.3 112.06161Q19.45625 110.43661 20.425 109.59286Q21.39375 108.74911 23.01875 108.74911Q24.675 108.74911 25.628124 109.67098Q26.596874 110.57723 26.596874 111.92098Q26.596874 112.60848 26.315624 113.28036Q26.034374 113.93661 25.378124 114.67098Q24.721874 115.40536 23.20625 116.68661Q21.940624 117.74911 21.58125 118.13973Q21.221874 118.51473 20.9875 118.88973L26.6125 118.88973ZM28.221874 117.24911L29.690624 117.12411Q29.8625 118.20223 30.45625 118.74911Q31.05 119.28036 31.89375 119.28036Q32.909374 119.28036 33.6125 118.51473Q34.315624 117.74911 34.315624 116.48348Q34.315624 115.28036 33.64375 114.59286Q32.971874 113.88973 31.878124 113.88973Q31.190624 113.88973 30.64375 114.20223Q30.096874 114.51473 29.784374 114.99911L28.471874 114.82723L29.58125 108.95223L35.26875 108.95223L35.26875 110.29598L30.70625 110.29598L30.08125 113.37411Q31.1125 112.65536 32.253124 112.65536Q33.753124 112.65536 34.784374 113.70223Q35.815624 114.73348 35.815624 116.35848Q35.815624 117.92098 34.909374 119.04598Q33.8 120.45223 31.89375 120.45223Q30.33125 120.45223 29.346874 119.57723Q28.3625 118.68661 28.221874 117.24911ZM38.003124 120.24911L38.003124 118.63973L39.6125 118.63973L39.6125 120.24911L38.003124 120.24911ZM41.221874 114.59286Q41.221874 112.56161 41.628124 111.32723Q42.05 110.09286 42.878124 109.42098Q43.70625 108.74911 44.95625 108.74911Q45.878124 108.74911 46.565624 109.12411Q47.26875 109.48348 47.721874 110.18661Q48.175 110.88973 48.425 111.88973Q48.690624 112.88973 48.690624 114.59286Q48.690624 116.60848 48.26875 117.85848Q47.8625 119.09286 47.034374 119.78036Q46.20625 120.45223 44.95625 120.45223Q43.3 120.45223 42.346874 119.24911Q41.221874 117.82723 41.221874 114.59286ZM42.659374 114.59286Q42.659374 117.42098 43.315624 118.35848Q43.9875 119.28036 44.95625 119.28036Q45.925 119.28036 46.58125 118.34286Q47.2375 117.40536 47.2375 114.59286Q47.2375 111.76473 46.58125 110.84286Q45.925 109.90536 44.940624 109.90536Q43.971874 109.90536 43.39375 110.73348Q42.659374 111.78036 42.659374 114.59286ZM50.4875 111.54598Q50.4875 110.31161 51.096874 109.45223Q51.721874 108.59286 52.89375 108.59286Q53.971874 108.59286 54.675 109.37411Q55.378124 110.13973 55.378124 111.62411Q55.378124 113.07723 54.659374 113.87411Q53.95625 114.65536 52.909374 114.65536Q51.8625 114.65536 51.175 113.88973Q50.4875 113.10848 50.4875 111.54598ZM52.925 109.56161Q52.409374 109.56161 52.05 110.01473Q51.70625 110.46786 51.70625 111.68661Q51.70625 112.78036 52.05 113.23348Q52.409374 113.68661 52.925 113.68661Q53.45625 113.68661 53.8 113.23348Q54.159374 112.78036 54.159374 111.57723Q54.159374 110.46786 53.8 110.01473Q53.45625 109.56161 52.925 109.56161ZM52.940624 120.67098L59.20625 108.59286L60.346874 108.59286L54.096874 120.67098L52.940624 120.67098ZM57.89375 117.56161Q57.89375 116.32723 58.503124 115.46786Q59.128124 114.60848 60.3 114.60848Q61.378124 114.60848 62.08125 115.38973Q62.8 116.15536 62.8 117.63973Q62.8 119.09286 62.08125 119.88973Q61.3625 120.67098 60.315624 120.67098Q59.26875 120.67098 58.58125 119.88973Q57.89375 119.10848 57.89375 117.56161ZM60.346874 115.57723Q59.815624 115.57723 59.45625 116.03036Q59.1125 116.48348 59.1125 117.70223Q59.1125 118.79598 59.45625 119.24911Q59.815624 119.70223 60.33125 119.70223Q60.878124 119.70223 61.221874 119.24911Q61.565624 118.79598 61.565624 117.59286Q61.565624 116.48348 61.20625 116.03036Q60.8625 115.57723 60.346874 115.57723Z" fill-rule="nonzero"/><path stroke="#757575" stroke-width="1.0" stroke-linecap="butt" d="M18.55 103.74911L145.23334 103.74911L200.06578 103.74911" fill-rule="nonzero"/><path fill="#9e9e9e" d="M202.06578 103.74911C202.06578 102.64454 201.17035 101.74911 200.06578 101.74911C198.96121 101.74911 198.06578 102.64454 198.06578 103.74911C198.06578 104.85368 198.96121 105.74911 200.06578 105.74911C201.17035 105.74911 202.06578 104.85368 202.06578 103.74911" fill-rule="nonzero"/><path fill="#efefef" d="M481.41876 98.24911L485.825 86.79598L487.46564 86.79598L492.15314 98.24911L490.41876 98.24911L489.09064 94.78036L484.29376 94.78036L483.04376 98.24911L481.41876 98.24911ZM484.73126 93.54598L488.6219 93.54598L487.41876 90.37411Q486.8719 88.92098 486.60626 87.99911Q486.3875 89.09286 485.9969 90.18661L484.73126 93.54598ZM493.4969 98.24911L493.4969 89.95223L494.7625 89.95223L494.7625 91.20223Q495.2469 90.32723 495.65314 90.04598Q496.0594 89.76473 496.5594 89.76473Q497.2625 89.76473 497.9969 90.21786L497.5125 91.51473Q496.9969 91.21786 496.48126 91.21786Q496.02814 91.21786 495.65314 91.49911Q495.29376 91.76473 495.1375 92.26473Q494.90314 93.01473 494.90314 93.90536L494.90314 98.24911L493.4969 98.24911ZM503.91876 95.20223L505.3094 95.38973Q505.075 96.81161 504.1375 97.62411Q503.21564 98.43661 501.85626 98.43661Q500.15314 98.43661 499.10626 97.32723Q498.075 96.20223 498.075 94.12411Q498.075 92.78036 498.5125 91.78036Q498.96564 90.76473 499.8719 90.26473Q500.79376 89.76473 501.85626 89.76473Q503.21564 89.76473 504.075 90.45223Q504.9344 91.12411 505.16876 92.38973L503.8094 92.59286Q503.60626 91.76473 503.10626 91.34286Q502.6219 90.92098 501.91876 90.92098Q500.85626 90.92098 500.1844 91.68661Q499.52814 92.43661 499.52814 94.09286Q499.52814 95.76473 500.16876 96.53036Q500.8094 97.28036 501.84064 97.28036Q502.66876 97.28036 503.21564 96.78036Q503.77814 96.26473 503.91876 95.20223ZM506.5125 98.24911L506.5125 86.79598L507.91876 86.79598L507.91876 90.90536Q508.90314 89.76473 510.40314 89.76473Q511.325 89.76473 511.9969 90.12411Q512.6844 90.48348 512.96564 91.12411Q513.2625 91.76473 513.2625 92.98348L513.2625 98.24911L511.85626 98.24911L511.85626 92.98348Q511.85626 91.93661 511.40314 91.45223Q510.95 90.96786 510.10626 90.96786Q509.48126 90.96786 508.9344 91.29598Q508.3875 91.62411 508.15314 92.18661Q507.91876 92.73348 507.91876 93.70223L507.91876 98.24911L506.5125 98.24911ZM515.5125 88.40536L515.5125 86.79598L516.91876 86.79598L516.91876 88.40536L515.5125 88.40536ZM515.5125 98.24911L515.5125 89.95223L516.91876 89.95223L516.91876 98.24911L515.5125 98.24911ZM522.575 96.98348L522.77814 98.23348Q522.1844 98.35848 521.71564 98.35848Q520.95 98.35848 520.52814 98.12411Q520.10626 97.87411 519.9344 97.48348Q519.7625 97.07723 519.7625 95.81161L519.7625 91.04598L518.73126 91.04598L518.73126 89.95223L519.7625 89.95223L519.7625 87.88973L521.16876 87.04598L521.16876 89.95223L522.575 89.95223L522.575 91.04598L521.16876 91.04598L521.16876 95.88973Q521.16876 96.49911 521.23126 96.67098Q521.3094 96.84286 521.48126 96.95223Q521.65314 97.04598 521.96564 97.04598Q522.2 97.04598 522.575 96.98348ZM529.1844 95.57723L530.6375 95.74911Q530.29376 97.03036 529.35626 97.73348Q528.4344 98.43661 526.9969 98.43661Q525.16876 98.43661 524.10626 97.31161Q523.04376 96.18661 523.04376 94.17098Q523.04376 92.07723 524.1219 90.92098Q525.2 89.76473 526.91876 89.76473Q528.575 89.76473 529.6219 90.90536Q530.6844 92.03036 530.6844 94.07723Q530.6844 94.20223 530.6844 94.45223L524.4969 94.45223Q524.575 95.82723 525.2625 96.56161Q525.96564 97.28036 526.9969 97.28036Q527.77814 97.28036 528.325 96.87411Q528.8719 96.46786 529.1844 95.57723ZM524.575 93.29598L529.2 93.29598Q529.10626 92.24911 528.66876 91.73348Q527.9969 90.92098 526.9344 90.92098Q525.96564 90.92098 525.29376 91.57723Q524.6375 92.21786 524.575 93.29598ZM537.91876 95.20223L539.3094 95.38973Q539.075 96.81161 538.1375 97.62411Q537.21564 98.43661 535.85626 98.43661Q534.15314 98.43661 533.10626 97.32723Q532.075 96.20223 532.075 94.12411Q532.075 92.78036 532.5125 91.78036Q532.96564 90.76473 533.8719 90.26473Q534.79376 89.76473 535.85626 89.76473Q537.21564 89.76473 538.075 90.45223Q538.9344 91.12411 539.16876 92.38973L537.8094 92.59286Q537.60626 91.76473 537.10626 91.34286Q536.6219 90.92098 535.91876 90.92098Q534.85626 90.92098 534.1844 91.68661Q533.52814 92.43661 533.52814 94.09286Q533.52814 95.76473 534.16876 96.53036Q534.8094 97.28036 535.84064 97.28036Q536.66876 97.28036 537.21564 96.78036Q537.77814 96.26473 537.91876 95.20223ZM543.575 96.98348L543.77814 98.23348Q543.1844 98.35848 542.71564 98.35848Q541.95 98.35848 541.52814 98.12411Q541.10626 97.87411 540.9344 97.48348Q540.7625 97.07723 540.7625 95.81161L540.7625 91.04598L539.73126 91.04598L539.73126 89.95223L540.7625 89.95223L540.7625 87.88973L542.16876 87.04598L542.16876 89.95223L543.575 89.95223L543.575 91.04598L542.16876 91.04598L542.16876 95.88973Q542.16876 96.49911 542.23126 96.67098Q542.3094 96.84286 542.48126 96.95223Q542.65314 97.04598 542.96564 97.04598Q543.2 97.04598 543.575 96.98348ZM549.95 98.24911L549.95 97.03036Q548.98126 98.43661 547.3094 98.43661Q546.575 98.43661 545.9344 98.15536Q545.3094 97.87411 544.9969 97.45223Q544.6844 97.01473 544.5594 96.40536Q544.48126 95.98348 544.48126 95.09286L544.48126 89.95223L545.8875 89.95223L545.8875 94.54598Q545.8875 95.65536 545.96564 96.03036Q546.10626 96.59286 546.52814 96.90536Q546.96564 97.21786 547.59064 97.21786Q548.23126 97.21786 548.77814 96.90536Q549.34064 96.57723 549.5594 96.01473Q549.79376 95.45223 549.79376 94.38973L549.79376 89.95223L551.2 89.95223L551.2 98.24911L549.95 98.24911ZM553.4969 98.24911L553.4969 89.95223L554.7625 89.95223L554.7625 91.20223Q555.2469 90.32723 555.65314 90.04598Q556.0594 89.76473 556.5594 89.76473Q557.2625 89.76473 557.9969 90.21786L557.5125 91.51473Q556.9969 91.21786 556.48126 91.21786Q556.02814 91.21786 555.65314 91.49911Q555.29376 91.76473 555.1375 92.26473Q554.90314 93.01473 554.90314 93.90536L554.90314 98.24911L553.4969 98.24911ZM564.1844 95.57723L565.6375 95.74911Q565.29376 97.03036 564.35626 97.73348Q563.4344 98.43661 561.9969 98.43661Q560.16876 98.43661 559.10626 97.31161Q558.04376 96.18661 558.04376 94.17098Q558.04376 92.07723 559.1219 90.92098Q560.2 89.76473 561.91876 89.76473Q563.575 89.76473 564.6219 90.90536Q565.6844 92.03036 565.6844 94.07723Q565.6844 94.20223 565.6844 94.45223L559.4969 94.45223Q559.575 95.82723 560.2625 96.56161Q560.96564 97.28036 561.9969 97.28036Q562.77814 97.28036 563.325 96.87411Q563.8719 96.46786 564.1844 95.57723ZM559.575 93.29598L564.2 93.29598Q564.10626 92.24911 563.66876 91.73348Q562.9969 90.92098 561.9344 90.92098Q560.96564 90.92098 560.29376 91.57723Q559.6375 92.21786 559.575 93.29598ZM578.0594 96.88973Q577.35626 97.67098 576.52814 98.06161Q575.71564 98.45223 574.7625 98.45223Q573.0125 98.45223 571.98126 97.24911Q571.1375 96.28036 571.1375 95.09286Q571.1375 94.03036 571.825 93.17098Q572.5125 92.31161 573.8719 91.67098Q573.09064 90.78036 572.825 90.23348Q572.575 89.67098 572.575 89.15536Q572.575 88.12411 573.3875 87.35848Q574.2 86.59286 575.41876 86.59286Q576.59064 86.59286 577.34064 87.31161Q578.09064 88.03036 578.09064 89.04598Q578.09064 90.67098 575.91876 91.82723L577.98126 94.45223Q578.325 93.76473 578.52814 92.85848L579.98126 93.17098Q579.60626 94.67098 578.96564 95.63973Q579.7625 96.68661 580.7625 97.38973L579.8094 98.51473Q578.96564 97.96786 578.0594 96.88973ZM575.2 90.92098Q576.10626 90.38973 576.3719 89.98348Q576.65314 89.57723 576.65314 89.07723Q576.65314 88.49911 576.27814 88.12411Q575.90314 87.74911 575.35626 87.74911Q574.77814 87.74911 574.40314 88.12411Q574.02814 88.48348 574.02814 89.01473Q574.02814 89.28036 574.15314 89.57723Q574.29376 89.87411 574.575 90.20223L575.2 90.92098ZM577.16876 95.78036L574.59064 92.59286Q573.45 93.26473 573.04376 93.85848Q572.65314 94.43661 572.65314 94.99911Q572.65314 95.70223 573.2 96.45223Q573.7625 97.20223 574.77814 97.20223Q575.41876 97.20223 576.09064 96.81161Q576.7625 96.40536 577.16876 95.78036Z" fill-rule="nonzero"/><path fill="#9e9e9e" d="M544.5125 118.88973L544.5125 120.24911L536.9344 120.24911Q536.91876 119.73348 537.10626 119.26473Q537.3875 118.49911 538.02814 117.74911Q538.66876 116.99911 539.8719 116.01473Q541.73126 114.48348 542.3875 113.59286Q543.04376 112.68661 543.04376 111.88973Q543.04376 111.06161 542.45 110.48348Q541.85626 109.90536 540.8875 109.90536Q539.8719 109.90536 539.2625 110.51473Q538.65314 111.12411 538.65314 112.20223L537.2 112.06161Q537.35626 110.43661 538.325 109.59286Q539.29376 108.74911 540.91876 108.74911Q542.575 108.74911 543.52814 109.67098Q544.4969 110.57723 544.4969 111.92098Q544.4969 112.60848 544.21564 113.28036Q543.9344 113.93661 543.27814 114.67098Q542.6219 115.40536 541.10626 116.68661Q539.84064 117.74911 539.48126 118.13973Q539.1219 118.51473 538.8875 118.88973L544.5125 118.88973ZM546.1219 117.24911L547.59064 117.12411Q547.7625 118.20223 548.35626 118.74911Q548.95 119.28036 549.79376 119.28036Q550.8094 119.28036 551.5125 118.51473Q552.21564 117.74911 552.21564 116.48348Q552.21564 115.28036 551.54376 114.59286Q550.8719 113.88973 549.77814 113.88973Q549.09064 113.88973 548.54376 114.20223Q547.9969 114.51473 547.6844 114.99911L546.3719 114.82723L547.48126 108.95223L553.16876 108.95223L553.16876 110.29598L548.60626 110.29598L547.98126 113.37411Q549.0125 112.65536 550.15314 112.65536Q551.65314 112.65536 552.6844 113.70223Q553.71564 114.73348 553.71564 116.35848Q553.71564 117.92098 552.8094 119.04598Q551.7 120.45223 549.79376 120.45223Q548.23126 120.45223 547.2469 119.57723Q546.2625 118.68661 546.1219 117.24911ZM555.90314 120.24911L555.90314 118.63973L557.5125 118.63973L557.5125 120.24911L555.90314 120.24911ZM559.1219 114.59286Q559.1219 112.56161 559.52814 111.32723Q559.95 110.09286 560.77814 109.42098Q561.60626 108.74911 562.85626 108.74911Q563.77814 108.74911 564.46564 109.12411Q565.16876 109.48348 565.6219 110.18661Q566.075 110.88973 566.325 111.88973Q566.59064 112.88973 566.59064 114.59286Q566.59064 116.60848 566.16876 117.85848Q565.7625 119.09286 564.9344 119.78036Q564.10626 120.45223 562.85626 120.45223Q561.2 120.45223 560.2469 119.24911Q559.1219 117.82723 559.1219 114.59286ZM560.5594 114.59286Q560.5594 117.42098 561.21564 118.35848Q561.8875 119.28036 562.85626 119.28036Q563.825 119.28036 564.48126 118.34286Q565.1375 117.40536 565.1375 114.59286Q565.1375 111.76473 564.48126 110.84286Q563.825 109.90536 562.84064 109.90536Q561.8719 109.90536 561.29376 110.73348Q560.5594 111.78036 560.5594 114.59286ZM568.3875 111.54598Q568.3875 110.31161 568.9969 109.45223Q569.6219 108.59286 570.79376 108.59286Q571.8719 108.59286 572.575 109.37411Q573.27814 110.13973 573.27814 111.62411Q573.27814 113.07723 572.5594 113.87411Q571.85626 114.65536 570.8094 114.65536Q569.7625 114.65536 569.075 113.88973Q568.3875 113.10848 568.3875 111.54598ZM570.825 109.56161Q570.3094 109.56161 569.95 110.01473Q569.60626 110.46786 569.60626 111.68661Q569.60626 112.78036 569.95 113.23348Q570.3094 113.68661 570.825 113.68661Q571.35626 113.68661 571.7 113.23348Q572.0594 112.78036 572.0594 111.57723Q572.0594 110.46786 571.7 110.01473Q571.35626 109.56161 570.825 109.56161ZM570.84064 120.67098L577.10626 108.59286L578.2469 108.59286L571.9969 120.67098L570.84064 120.67098ZM575.79376 117.56161Q575.79376 116.32723 576.40314 115.46786Q577.02814 114.60848 578.2 114.60848Q579.27814 114.60848 579.98126 115.38973Q580.7 116.15536 580.7 117.63973Q580.7 119.09286 579.98126 119.88973Q579.2625 120.67098 578.21564 120.67098Q577.16876 120.67098 576.48126 119.88973Q575.79376 119.10848 575.79376 117.56161ZM578.2469 115.57723Q577.71564 115.57723 577.35626 116.03036Q577.0125 116.48348 577.0125 117.70223Q577.0125 118.79598 577.35626 119.24911Q577.71564 119.70223 578.23126 119.70223Q578.77814 119.70223 579.1219 119.24911Q579.46564 118.79598 579.46564 117.59286Q579.46564 116.48348 579.10626 116.03036Q578.7625 115.57723 578.2469 115.57723Z" fill-rule="nonzero"/><path stroke="#757575" stroke-width="1.0" stroke-linecap="butt" d="M581.45 103.74911L454.76666 103.74911L399.93423 103.74911" fill-rule="nonzero"/><path fill="#9e9e9e" d="M401.93423 103.74911C401.93423 102.64454 401.0388 101.74911 399.93423 101.74911C398.82965 101.74911 397.93423 102.64454 397.93423 103.74911C397.93423 104.85368 398.82965 105.74911 399.93423 105.74911C401.0388 105.74911 401.93423 104.85368 401.93423 103.74911" fill-rule="nonzero"/><path fill="#efefef" d="M530.66876 326.45L530.66876 314.9969L532.23126 314.9969L538.2469 323.98126L538.2469 314.9969L539.7 314.9969L539.7 326.45L538.1375 326.45L532.1219 317.45L532.1219 326.45L530.66876 326.45ZM547.91876 325.41876Q547.1375 326.09064 546.41876 326.3719Q545.7 326.6375 544.8719 326.6375Q543.4969 326.6375 542.7625 325.96564Q542.02814 325.29376 542.02814 324.2625Q542.02814 323.65314 542.3094 323.15314Q542.59064 322.6375 543.02814 322.34064Q543.48126 322.02814 544.04376 321.8719Q544.46564 321.7625 545.29376 321.66876Q546.9969 321.46564 547.8094 321.1844Q547.8094 320.8875 547.8094 320.8094Q547.8094 319.95 547.41876 319.60626Q546.8719 319.1219 545.8094 319.1219Q544.825 319.1219 544.34064 319.48126Q543.8719 319.825 543.65314 320.7L542.27814 320.5125Q542.46564 319.6375 542.8875 319.09064Q543.325 318.54376 544.1375 318.2625Q544.95 317.96564 546.0125 317.96564Q547.075 317.96564 547.73126 318.21564Q548.40314 318.46564 548.71564 318.84064Q549.02814 319.21564 549.15314 319.79376Q549.23126 320.15314 549.23126 321.09064L549.23126 322.96564Q549.23126 324.9344 549.3094 325.45Q549.40314 325.96564 549.66876 326.45L548.2 326.45Q547.98126 326.0125 547.91876 325.41876ZM547.8094 322.27814Q547.04376 322.59064 545.5125 322.8094Q544.6375 322.9344 544.27814 323.09064Q543.91876 323.2469 543.71564 323.5594Q543.52814 323.85626 543.52814 324.21564Q543.52814 324.77814 543.95 325.15314Q544.3875 325.52814 545.2 325.52814Q546.0125 325.52814 546.6375 325.1844Q547.27814 324.825 547.575 324.2Q547.8094 323.73126 547.8094 322.79376L547.8094 322.27814ZM554.575 325.1844L554.77814 326.4344Q554.1844 326.5594 553.71564 326.5594Q552.95 326.5594 552.52814 326.325Q552.10626 326.075 551.9344 325.6844Q551.7625 325.27814 551.7625 324.0125L551.7625 319.2469L550.73126 319.2469L550.73126 318.15314L551.7625 318.15314L551.7625 316.09064L553.16876 315.2469L553.16876 318.15314L554.575 318.15314L554.575 319.2469L553.16876 319.2469L553.16876 324.09064Q553.16876 324.7 553.23126 324.8719Q553.3094 325.04376 553.48126 325.15314Q553.65314 325.2469 553.96564 325.2469Q554.2 325.2469 554.575 325.1844ZM560.95 326.45L560.95 325.23126Q559.98126 326.6375 558.3094 326.6375Q557.575 326.6375 556.9344 326.35626Q556.3094 326.075 555.9969 325.65314Q555.6844 325.21564 555.5594 324.60626Q555.48126 324.1844 555.48126 323.29376L555.48126 318.15314L556.8875 318.15314L556.8875 322.7469Q556.8875 323.85626 556.96564 324.23126Q557.10626 324.79376 557.52814 325.10626Q557.96564 325.41876 558.59064 325.41876Q559.23126 325.41876 559.77814 325.10626Q560.34064 324.77814 560.5594 324.21564Q560.79376 323.65314 560.79376 322.59064L560.79376 318.15314L562.2 318.15314L562.2 326.45L560.95 326.45ZM564.4969 326.45L564.4969 318.15314L565.7625 318.15314L565.7625 319.40314Q566.2469 318.52814 566.65314 318.2469Q567.0594 317.96564 567.5594 317.96564Q568.2625 317.96564 568.9969 318.41876L568.5125 319.71564Q567.9969 319.41876 567.48126 319.41876Q567.02814 319.41876 566.65314 319.7Q566.29376 319.96564 566.1375 320.46564Q565.90314 321.21564 565.90314 322.10626L565.90314 326.45L564.4969 326.45ZM574.91876 325.41876Q574.1375 326.09064 573.41876 326.3719Q572.7 326.6375 571.8719 326.6375Q570.4969 326.6375 569.7625 325.96564Q569.02814 325.29376 569.02814 324.2625Q569.02814 323.65314 569.3094 323.15314Q569.59064 322.6375 570.02814 322.34064Q570.48126 322.02814 571.04376 321.8719Q571.46564 321.7625 572.29376 321.66876Q573.9969 321.46564 574.8094 321.1844Q574.8094 320.8875 574.8094 320.8094Q574.8094 319.95 574.41876 319.60626Q573.8719 319.1219 572.8094 319.1219Q571.825 319.1219 571.34064 319.48126Q570.8719 319.825 570.65314 320.7L569.27814 320.5125Q569.46564 319.6375 569.8875 319.09064Q570.325 318.54376 571.1375 318.2625Q571.95 317.96564 573.0125 317.96564Q574.075 317.96564 574.73126 318.21564Q575.40314 318.46564 575.71564 318.84064Q576.02814 319.21564 576.15314 319.79376Q576.23126 320.15314 576.23126 321.09064L576.23126 322.96564Q576.23126 324.9344 576.3094 325.45Q576.40314 325.96564 576.66876 326.45L575.2 326.45Q574.98126 326.0125 574.91876 325.41876ZM574.8094 322.27814Q574.04376 322.59064 572.5125 322.8094Q571.6375 322.9344 571.27814 323.09064Q570.91876 323.2469 570.71564 323.5594Q570.52814 323.85626 570.52814 324.21564Q570.52814 324.77814 570.95 325.15314Q571.3875 325.52814 572.2 325.52814Q573.0125 325.52814 573.6375 325.1844Q574.27814 324.825 574.575 324.2Q574.8094 323.73126 574.8094 322.79376L574.8094 322.27814ZM578.48126 326.45L578.48126 314.9969L579.8875 314.9969L579.8875 326.45L578.48126 326.45Z" fill-rule="nonzero"/><path fill="#9e9e9e" d="M537.1219 345.45L538.59064 345.325Q538.7625 346.40314 539.35626 346.95Q539.95 347.48126 540.79376 347.48126Q541.8094 347.48126 542.5125 346.71564Q543.21564 345.95 543.21564 344.6844Q543.21564 343.48126 542.54376 342.79376Q541.8719 342.09064 540.77814 342.09064Q540.09064 342.09064 539.54376 342.40314Q538.9969 342.71564 538.6844 343.2L537.3719 343.02814L538.48126 337.15314L544.16876 337.15314L544.16876 338.4969L539.60626 338.4969L538.98126 341.575Q540.0125 340.85626 541.15314 340.85626Q542.65314 340.85626 543.6844 341.90314Q544.71564 342.9344 544.71564 344.5594Q544.71564 346.1219 543.8094 347.2469Q542.7 348.65314 540.79376 348.65314Q539.23126 348.65314 538.2469 347.77814Q537.2625 346.8875 537.1219 345.45ZM546.1219 342.79376Q546.1219 340.7625 546.52814 339.52814Q546.95 338.29376 547.77814 337.6219Q548.60626 336.95 549.85626 336.95Q550.77814 336.95 551.46564 337.325Q552.16876 337.6844 552.6219 338.3875Q553.075 339.09064 553.325 340.09064Q553.59064 341.09064 553.59064 342.79376Q553.59064 344.8094 553.16876 346.0594Q552.7625 347.29376 551.9344 347.98126Q551.10626 348.65314 549.85626 348.65314Q548.2 348.65314 547.2469 347.45Q546.1219 346.02814 546.1219 342.79376ZM547.5594 342.79376Q547.5594 345.6219 548.21564 346.5594Q548.8875 347.48126 549.85626 347.48126Q550.825 347.48126 551.48126 346.54376Q552.1375 345.60626 552.1375 342.79376Q552.1375 339.96564 551.48126 339.04376Q550.825 338.10626 549.84064 338.10626Q548.8719 338.10626 548.29376 338.9344Q547.5594 339.98126 547.5594 342.79376ZM555.90314 348.45L555.90314 346.84064L557.5125 346.84064L557.5125 348.45L555.90314 348.45ZM559.1219 342.79376Q559.1219 340.7625 559.52814 339.52814Q559.95 338.29376 560.77814 337.6219Q561.60626 336.95 562.85626 336.95Q563.77814 336.95 564.46564 337.325Q565.16876 337.6844 565.6219 338.3875Q566.075 339.09064 566.325 340.09064Q566.59064 341.09064 566.59064 342.79376Q566.59064 344.8094 566.16876 346.0594Q565.7625 347.29376 564.9344 347.98126Q564.10626 348.65314 562.85626 348.65314Q561.2 348.65314 560.2469 347.45Q559.1219 346.02814 559.1219 342.79376ZM560.5594 342.79376Q560.5594 345.6219 561.21564 346.5594Q561.8875 347.48126 562.85626 347.48126Q563.825 347.48126 564.48126 346.54376Q565.1375 345.60626 565.1375 342.79376Q565.1375 339.96564 564.48126 339.04376Q563.825 338.10626 562.84064 338.10626Q561.8719 338.10626 561.29376 338.9344Q560.5594 339.98126 560.5594 342.79376ZM568.3875 339.7469Q568.3875 338.5125 568.9969 337.65314Q569.6219 336.79376 570.79376 336.79376Q571.8719 336.79376 572.575 337.575Q573.27814 338.34064 573.27814 339.825Q573.27814 341.27814 572.5594 342.075Q571.85626 342.85626 570.8094 342.85626Q569.7625 342.85626 569.075 342.09064Q568.3875 341.3094 568.3875 339.7469ZM570.825 337.7625Q570.3094 337.7625 569.95 338.21564Q569.60626 338.66876 569.60626 339.8875Q569.60626 340.98126 569.95 341.4344Q570.3094 341.8875 570.825 341.8875Q571.35626 341.8875 571.7 341.4344Q572.0594 340.98126 572.0594 339.77814Q572.0594 338.66876 571.7 338.21564Q571.35626 337.7625 570.825 337.7625ZM570.84064 348.8719L577.10626 336.79376L578.2469 336.79376L571.9969 348.8719L570.84064 348.8719ZM575.79376 345.7625Q575.79376 344.52814 576.40314 343.66876Q577.02814 342.8094 578.2 342.8094Q579.27814 342.8094 579.98126 343.59064Q580.7 344.35626 580.7 345.84064Q580.7 347.29376 579.98126 348.09064Q579.2625 348.8719 578.21564 348.8719Q577.16876 348.8719 576.48126 348.09064Q575.79376 347.3094 575.79376 345.7625ZM578.2469 343.77814Q577.71564 343.77814 577.35626 344.23126Q577.0125 344.6844 577.0125 345.90314Q577.0125 346.9969 577.35626 347.45Q577.71564 347.90314 578.23126 347.90314Q578.77814 347.90314 579.1219 347.45Q579.46564 346.9969 579.46564 345.79376Q579.46564 344.6844 579.10626 344.23126Q578.7625 343.77814 578.2469 343.77814Z" fill-rule="nonzero"/><path stroke="#757575" stroke-width="1.0" stroke-linecap="butt" d="M581.45 331.95L454.76666 331.95L300.0 345.01166" fill-rule="nonzero"/><path fill="#9e9e9e" d="M302.0 345.01166C302.0 343.9071 301.10458 343.01166 300.0 343.01166C298.89542 343.01166 298.0 343.9071 298.0 345.01166C298.0 346.11624 298.89542 347.01166 300.0 347.01166C301.10458 347.01166 302.0 346.11624 302.0 345.01166" fill-rule="nonzero"/><path fill="#f3f3f3" d="M271.26562 32.534374L273.15625 33.003124Q272.5625 35.346874 271.01562 36.58125Q269.46875 37.8 267.21875 37.8Q264.90625 37.8 263.45312 36.8625Q262.01562 35.909374 261.25 34.128124Q260.5 32.33125 260.5 30.284374Q260.5 28.05 261.34375 26.39375Q262.20312 24.721874 263.78125 23.8625Q265.35938 22.9875 267.25 22.9875Q269.40625 22.9875 270.85938 24.08125Q272.32812 25.175 272.90625 27.159374L271.04688 27.596874Q270.54688 26.034374 269.59375 25.33125Q268.65625 24.6125 267.21875 24.6125Q265.5625 24.6125 264.45312 25.409374Q263.34375 26.190624 262.89062 27.534374Q262.45312 28.8625 262.45312 30.26875Q262.45312 32.096874 262.98438 33.471874Q263.51562 34.83125 264.64062 35.503124Q265.76562 36.175 267.0625 36.175Q268.65625 36.175 269.76562 35.253124Q270.875 34.33125 271.26562 32.534374ZM281.59375 36.26875Q280.60938 37.096874 279.70312 37.440624Q278.79688 37.784374 277.76562 37.784374Q276.0625 37.784374 275.14062 36.95625Q274.21875 36.1125 274.21875 34.815624Q274.21875 34.05 274.5625 33.425Q274.92188 32.8 275.48438 32.425Q276.04688 32.034374 276.75 31.83125Q277.26562 31.70625 278.3125 31.565624Q280.4375 31.315624 281.4375 30.971874Q281.45312 30.6125 281.45312 30.503124Q281.45312 29.440624 280.95312 28.9875Q280.28125 28.39375 278.95312 28.39375Q277.70312 28.39375 277.10938 28.83125Q276.53125 29.26875 276.25 30.378124L274.53125 30.14375Q274.76562 29.034374 275.29688 28.3625Q275.82812 27.675 276.84375 27.315624Q277.85938 26.940624 279.20312 26.940624Q280.53125 26.940624 281.35938 27.253124Q282.1875 27.565624 282.57812 28.05Q282.96875 28.51875 283.125 29.2375Q283.21875 29.690624 283.21875 30.8625L283.21875 33.20625Q283.21875 35.659374 283.32812 36.315624Q283.4375 36.95625 283.78125 37.55L281.9375 37.55Q281.67188 37.003124 281.59375 36.26875ZM281.4375 32.346874Q280.48438 32.7375 278.5625 33.003124Q277.48438 33.159374 277.03125 33.3625Q276.59375 33.55 276.34375 33.925Q276.09375 34.3 276.09375 34.76875Q276.09375 35.471874 276.625 35.940624Q277.15625 36.409374 278.1875 36.409374Q279.20312 36.409374 279.98438 35.971874Q280.78125 35.51875 281.15625 34.753124Q281.4375 34.14375 281.4375 32.9875L281.4375 32.346874ZM289.65625 35.971874L289.90625 37.534374Q289.17188 37.690624 288.57812 37.690624Q287.625 37.690624 287.09375 37.39375Q286.57812 37.08125 286.35938 36.596874Q286.14062 36.096874 286.14062 34.51875L286.14062 28.55L284.85938 28.55L284.85938 27.175L286.14062 27.175L286.14062 24.6125L287.89062 23.55L287.89062 27.175L289.65625 27.175L289.65625 28.55L287.89062 28.55L287.89062 34.6125Q287.89062 35.3625 287.98438 35.58125Q288.07812 35.784374 288.28125 35.925Q288.5 36.05 288.89062 36.05Q289.17188 36.05 289.65625 35.971874ZM298.92188 34.20625L300.73438 34.440624Q300.3125 36.01875 299.14062 36.909374Q297.98438 37.784374 296.17188 37.784374Q293.90625 37.784374 292.5625 36.39375Q291.23438 34.9875 291.23438 32.45625Q291.23438 29.83125 292.57812 28.39375Q293.92188 26.940624 296.07812 26.940624Q298.15625 26.940624 299.46875 28.3625Q300.79688 29.76875 300.79688 32.346874Q300.79688 32.503124 300.78125 32.815624L293.04688 32.815624Q293.14062 34.51875 294.01562 35.425Q294.89062 36.33125 296.1875 36.33125Q297.15625 36.33125 297.82812 35.83125Q298.51562 35.315624 298.92188 34.20625ZM293.14062 31.3625L298.9375 31.3625Q298.82812 30.065624 298.28125 29.409374Q297.4375 28.39375 296.09375 28.39375Q294.89062 28.39375 294.0625 29.20625Q293.23438 30.003124 293.14062 31.3625ZM302.5 38.409374L304.20312 38.659374Q304.3125 39.45625 304.79688 39.815624Q305.45312 40.3 306.59375 40.3Q307.8125 40.3 308.46875 39.815624Q309.14062 39.33125 309.375 38.45625Q309.51562 37.909374 309.5 36.190624Q308.34375 37.55 306.625 37.55Q304.48438 37.55 303.3125 36.003124Q302.14062 34.45625 302.14062 32.3Q302.14062 30.815624 302.67188 29.565624Q303.21875 28.315624 304.23438 27.628124Q305.26562 26.940624 306.64062 26.940624Q308.46875 26.940624 309.67188 28.425L309.67188 27.175L311.28125 27.175L311.28125 36.14375Q311.28125 38.565624 310.78125 39.565624Q310.29688 40.58125 309.21875 41.159374Q308.15625 41.753124 306.59375 41.753124Q304.75 41.753124 303.59375 40.925Q302.45312 40.096874 302.5 38.409374ZM303.95312 32.175Q303.95312 34.221874 304.76562 35.159374Q305.57812 36.096874 306.79688 36.096874Q308.0 36.096874 308.8125 35.159374Q309.64062 34.221874 309.64062 32.2375Q309.64062 30.33125 308.79688 29.3625Q307.95312 28.39375 306.76562 28.39375Q305.59375 28.39375 304.76562 29.346874Q303.95312 30.3 303.95312 32.175ZM313.17188 32.3625Q313.17188 29.4875 314.76562 28.096874Q316.10938 26.940624 318.03125 26.940624Q320.17188 26.940624 321.51562 28.346874Q322.875 29.753124 322.875 32.221874Q322.875 34.221874 322.28125 35.378124Q321.6875 36.51875 320.53125 37.159374Q319.39062 37.784374 318.03125 37.784374Q315.84375 37.784374 314.5 36.39375Q313.17188 34.9875 313.17188 32.3625ZM314.96875 32.3625Q314.96875 34.3625 315.82812 35.346874Q316.70312 36.33125 318.03125 36.33125Q319.34375 36.33125 320.20312 35.346874Q321.07812 34.346874 321.07812 32.3Q321.07812 30.378124 320.20312 29.39375Q319.32812 28.39375 318.03125 28.39375Q316.70312 28.39375 315.82812 29.39375Q314.96875 30.378124 314.96875 32.3625ZM324.79688 37.55L324.79688 27.175L326.375 27.175L326.375 28.753124Q326.98438 27.64375 327.5 27.3Q328.01562 26.940624 328.625 26.940624Q329.51562 26.940624 330.4375 27.503124L329.82812 29.14375Q329.1875 28.753124 328.54688 28.753124Q327.96875 28.753124 327.5 29.1125Q327.04688 29.45625 326.84375 30.065624Q326.5625 31.003124 326.5625 32.1125L326.5625 37.55L324.79688 37.55ZM331.73438 41.55L331.54688 39.89375Q332.125 40.05 332.54688 40.05Q333.14062 40.05 333.48438 39.846874Q333.84375 39.659374 334.0625 39.315624Q334.23438 39.05 334.60938 38.003124Q334.65625 37.846874 334.76562 37.565624L330.82812 27.175L332.71875 27.175L334.875 33.190624Q335.29688 34.33125 335.625 35.58125Q335.9375 34.378124 336.34375 33.221874L338.5625 27.175L340.32812 27.175L336.375 37.721874Q335.75 39.440624 335.39062 40.08125Q334.92188 40.95625 334.3125 41.346874Q333.71875 41.753124 332.875 41.753124Q332.35938 41.753124 331.73438 41.55Z" fill-rule="nonzero"/></svg>