<svg version="1.1" viewBox="0.0 0.0 600.0 371.0" fill="none" stroke="none" stroke-linecap="square" stroke-miterlimit="10" width="600" height="371" xmlns:xlink="http://www.w3.org/1999/xlink" xmlns="http://www.w3.org/2000/svg"><path fill="#ffffff" fill-opacity="0.0" d="M0 0L600.0 0L600.0 371.0L0 371.0L0 0Z" fill-rule="nonzero"/><path fill="#304388" d="M300.0 54.916668C382.16156 54.916668 448.76666 121.521774 448.76666 203.68333C448.76666 285.8449 382.16156 352.45 300.0 352.45L300.0 240.875C320.5404 240.875 337.19168 224.22372 337.19168 203.68333C337.19168 183.14294 320.5404 166.49167 300.0 166.49167Z" fill-rule="nonzero"/><path fill="#e5a345" d="M151.23334 203.68333C151.23334 121.521774 217.83844 54.916668 300.0 54.916668L300.0 166.49167C279.4596 166.49167 262.80832 183.14294 262.80832 203.68333Z" fill-rule="nonzero"/><path fill="#df8d43" d="M300.0 352.45C217.83844 352.45 151.23334 285.8449 151.23334 203.68333L262.80832 203.68333C262.80832 224.22372 279.4596 240.875 300.0 240.875Z" fill-rule="nonzero"/><path fill="#ffffff" d="M381.45966 206.80833L383.1159 206.66771Q383.3034 207.88646 383.97528 208.49583Q384.64716 209.10521 385.60028 209.10521Q386.7409 209.10521 387.52216 208.24583Q388.31903 207.38646 388.31903 205.94896Q388.31903 204.60521 387.5534 203.82396Q386.8034 203.04271 385.56903 203.04271Q384.8034 203.04271 384.1784 203.38646Q383.56903 203.73021 383.22528 204.29271L381.7409 204.08958L382.9909 197.48021L389.39716 197.48021L389.39716 198.98021L384.25653 198.98021L383.5534 202.44896Q384.72528 201.63646 385.9909 201.63646Q387.6784 201.63646 388.83466 202.80833Q390.00653 203.98021 390.00653 205.80833Q390.00653 207.55833 388.97528 208.83958Q387.7409 210.40208 385.60028 210.40208Q383.83466 210.40208 382.72528 209.41771Q381.6159 208.43333 381.45966 206.80833ZM391.45966 203.82396Q391.45966 201.54271 391.9284 200.15208Q392.39716 198.76146 393.31903 198.01146Q394.25653 197.24583 395.66278 197.24583Q396.69403 197.24583 397.47528 197.66771Q398.25653 198.07396 398.75653 198.87083Q399.27216 199.65208 399.56903 200.79271Q399.8659 201.91771 399.8659 203.82396Q399.8659 206.08958 399.39716 207.49583Q398.9284 208.88646 397.9909 209.65208Q397.06903 210.40208 395.66278 210.40208Q393.78778 210.40208 392.72528 209.07396Q391.45966 207.46458 391.45966 203.82396ZM393.08466 203.82396Q393.08466 206.99583 393.81903 208.05833Q394.56903 209.10521 395.66278 209.10521Q396.7409 209.10521 397.4909 208.05833Q398.2409 206.99583 398.2409 203.82396Q398.2409 200.65208 397.4909 199.60521Q396.7409 198.55833 395.64716 198.55833Q394.5534 198.55833 393.89716 199.48021Q393.08466 200.65208 393.08466 203.82396ZM402.35028 210.18333L402.35028 208.38646L404.14716 208.38646L404.14716 210.18333L402.35028 210.18333ZM406.45966 203.82396Q406.45966 201.54271 406.9284 200.15208Q407.39716 198.76146 408.31903 198.01146Q409.25653 197.24583 410.66278 197.24583Q411.69403 197.24583 412.47528 197.66771Q413.25653 198.07396 413.75653 198.87083Q414.27216 199.65208 414.56903 200.79271Q414.8659 201.91771 414.8659 203.82396Q414.8659 206.08958 414.39716 207.49583Q413.9284 208.88646 412.9909 209.65208Q412.06903 210.40208 410.66278 210.40208Q408.78778 210.40208 407.72528 209.07396Q406.45966 207.46458 406.45966 203.82396ZM408.08466 203.82396Q408.08466 206.99583 408.81903 208.05833Q409.56903 209.10521 410.66278 209.10521Q411.7409 209.10521 412.4909 208.05833Q413.2409 206.99583 413.2409 203.82396Q413.2409 200.65208 412.4909 199.60521Q411.7409 198.55833 410.64716 198.55833Q409.5534 198.55833 408.89716 199.48021Q408.08466 200.65208 408.08466 203.82396ZM416.75653 200.38646Q416.75653 199.01146 417.44403 198.04271Q418.14716 197.07396 419.45966 197.07396Q420.6784 197.07396 421.47528 197.94896Q422.27216 198.80833 422.27216 200.49583Q422.27216 202.12083 421.45966 203.01146Q420.66278 203.88646 419.47528 203.88646Q418.31903 203.88646 417.53778 203.02708Q416.75653 202.15208 416.75653 200.38646ZM419.50653 198.16771Q418.91278 198.16771 418.52216 198.68333Q418.13153 199.18333 418.13153 200.54271Q418.13153 201.79271 418.52216 202.29271Q418.9284 202.79271 419.50653 202.79271Q420.10028 202.79271 420.4909 202.29271Q420.88153 201.77708 420.88153 200.43333Q420.88153 199.18333 420.4909 198.68333Q420.10028 198.16771 419.50653 198.16771ZM419.52216 210.65208L426.56903 197.07396L427.85028 197.07396L420.81903 210.65208L419.52216 210.65208ZM425.08466 207.15208Q425.08466 205.77708 425.77216 204.80833Q426.47528 203.83958 427.8034 203.83958Q429.02216 203.83958 429.8034 204.71458Q430.60028 205.57396 430.60028 207.26146Q430.60028 208.88646 429.8034 209.77708Q429.00653 210.65208 427.81903 210.65208Q426.64716 210.65208 425.8659 209.77708Q425.08466 208.90208 425.08466 207.15208ZM427.85028 204.93333Q427.25653 204.93333 426.8659 205.44896Q426.47528 205.94896 426.47528 207.32396Q426.47528 208.54271 426.8659 209.05833Q427.25653 209.57396 427.83466 209.57396Q428.44403 209.57396 428.83466 209.05833Q429.22528 208.54271 429.22528 207.19896Q429.22528 205.94896 428.83466 205.44896Q428.44403 204.93333 427.85028 204.93333Z" fill-rule="nonzero"/><path fill="#ffffff" d="M211.51295 280.71725L211.51295 282.23288L202.99733 282.23288Q202.9817 281.65475 203.18483 281.13913Q203.51295 280.26413 204.21608 279.42038Q204.93483 278.57663 206.2942 277.46725Q208.38795 275.7485 209.12233 274.7485Q209.87233 273.73288 209.87233 272.84225Q209.87233 271.88913 209.20045 271.2485Q208.52858 270.60788 207.45045 270.60788Q206.2942 270.60788 205.6067 271.29538Q204.93483 271.98288 204.9192 273.186L203.2942 273.01413Q203.46608 271.20163 204.5442 270.2485Q205.63795 269.29538 207.4817 269.29538Q209.32545 269.29538 210.40358 270.32663Q211.49733 271.35788 211.49733 272.8735Q211.49733 273.63913 211.1692 274.38913Q210.8567 275.13913 210.12233 275.96725Q209.38795 276.79538 207.68483 278.23288Q206.26295 279.436 205.8567 279.85788Q205.45045 280.27975 205.20045 280.71725L211.51295 280.71725ZM213.20045 278.85788L214.8567 278.71725Q215.0442 279.936 215.71608 280.54538Q216.38795 281.15475 217.34108 281.15475Q218.4817 281.15475 219.26295 280.29538Q220.05983 279.436 220.05983 277.9985Q220.05983 276.65475 219.2942 275.8735Q218.5442 275.09225 217.30983 275.09225Q216.5442 275.09225 215.9192 275.436Q215.30983 275.77975 214.96608 276.34225L213.4817 276.13913L214.7317 269.52975L221.13795 269.52975L221.13795 271.02975L215.99733 271.02975L215.2942 274.4985Q216.46608 273.686 217.7317 273.686Q219.4192 273.686 220.57545 274.85788Q221.74733 276.02975 221.74733 277.85788Q221.74733 279.60788 220.71608 280.88913Q219.4817 282.45163 217.34108 282.45163Q215.57545 282.45163 214.46608 281.46725Q213.3567 280.48288 213.20045 278.85788ZM224.09108 282.23288L224.09108 280.436L225.88795 280.436L225.88795 282.23288L224.09108 282.23288ZM228.20045 275.8735Q228.20045 273.59225 228.6692 272.20163Q229.13795 270.811 230.05983 270.061Q230.99733 269.29538 232.40358 269.29538Q233.43483 269.29538 234.21608 269.71725Q234.99733 270.1235 235.49733 270.92038Q236.01295 271.70163 236.30983 272.84225Q236.6067 273.96725 236.6067 275.8735Q236.6067 278.13913 236.13795 279.54538Q235.6692 280.936 234.7317 281.70163Q233.80983 282.45163 232.40358 282.45163Q230.52858 282.45163 229.46608 281.1235Q228.20045 279.51413 228.20045 275.8735ZM229.82545 275.8735Q229.82545 279.04538 230.55983 280.10788Q231.30983 281.15475 232.40358 281.15475Q233.4817 281.15475 234.2317 280.10788Q234.9817 279.04538 234.9817 275.8735Q234.9817 272.70163 234.2317 271.65475Q233.4817 270.60788 232.38795 270.60788Q231.2942 270.60788 230.63795 271.52975Q229.82545 272.70163 229.82545 275.8735ZM238.49733 272.436Q238.49733 271.061 239.18483 270.09225Q239.88795 269.1235 241.20045 269.1235Q242.4192 269.1235 243.21608 269.9985Q244.01295 270.85788 244.01295 272.54538Q244.01295 274.17038 243.20045 275.061Q242.40358 275.936 241.21608 275.936Q240.05983 275.936 239.27858 275.07663Q238.49733 274.20163 238.49733 272.436ZM241.24733 270.21725Q240.65358 270.21725 240.26295 270.73288Q239.87233 271.23288 239.87233 272.59225Q239.87233 273.84225 240.26295 274.34225Q240.6692 274.84225 241.24733 274.84225Q241.84108 274.84225 242.2317 274.34225Q242.62233 273.82663 242.62233 272.48288Q242.62233 271.23288 242.2317 270.73288Q241.84108 270.21725 241.24733 270.21725ZM241.26295 282.70163L248.30983 269.1235L249.59108 269.1235L242.55983 282.70163L241.26295 282.70163ZM246.82545 279.20163Q246.82545 277.82663 247.51295 276.85788Q248.21608 275.88913 249.5442 275.88913Q250.76295 275.88913 251.5442 276.76413Q252.34108 277.6235 252.34108 279.311Q252.34108 280.936 251.5442 281.82663Q250.74733 282.70163 249.55983 282.70163Q248.38795 282.70163 247.6067 281.82663Q246.82545 280.95163 246.82545 279.20163ZM249.59108 276.98288Q248.99733 276.98288 248.6067 277.4985Q248.21608 277.9985 248.21608 279.3735Q248.21608 280.59225 248.6067 281.10788Q248.99733 281.6235 249.57545 281.6235Q250.18483 281.6235 250.57545 281.10788Q250.96608 280.59225 250.96608 279.2485Q250.96608 277.9985 250.57545 277.4985Q250.18483 276.98288 249.59108 276.98288Z" fill-rule="nonzero"/><path fill="#ffffff" d="M211.51295 136.61816L211.51295 138.13379L202.99733 138.13379Q202.9817 137.55566 203.18483 137.04004Q203.51295 136.16504 204.21608 135.32129Q204.93483 134.47754 206.2942 133.36816Q208.38795 131.64941 209.12233 130.64941Q209.87233 129.63379 209.87233 128.74316Q209.87233 127.79004 209.20045 127.149414Q208.52858 126.50879 207.45045 126.50879Q206.2942 126.50879 205.6067 127.19629Q204.93483 127.88379 204.9192 129.08691L203.2942 128.91504Q203.46608 127.10254 204.5442 126.149414Q205.63795 125.19629 207.4817 125.19629Q209.32545 125.19629 210.40358 126.22754Q211.49733 127.25879 211.49733 128.77441Q211.49733 129.54004 211.1692 130.29004Q210.8567 131.04004 210.12233 131.86816Q209.38795 132.69629 207.68483 134.13379Q206.26295 135.33691 205.8567 135.75879Q205.45045 136.18066 205.20045 136.61816L211.51295 136.61816ZM213.20045 134.75879L214.8567 134.61816Q215.0442 135.83691 215.71608 136.44629Q216.38795 137.05566 217.34108 137.05566Q218.4817 137.05566 219.26295 136.19629Q220.05983 135.33691 220.05983 133.89941Q220.05983 132.55566 219.2942 131.77441Q218.5442 130.99316 217.30983 130.99316Q216.5442 130.99316 215.9192 131.33691Q215.30983 131.68066 214.96608 132.24316L213.4817 132.04004L214.7317 125.430664L221.13795 125.430664L221.13795 126.930664L215.99733 126.930664L215.2942 130.39941Q216.46608 129.58691 217.7317 129.58691Q219.4192 129.58691 220.57545 130.75879Q221.74733 131.93066 221.74733 133.75879Q221.74733 135.50879 220.71608 136.79004Q219.4817 138.35254 217.34108 138.35254Q215.57545 138.35254 214.46608 137.36816Q213.3567 136.38379 213.20045 134.75879ZM224.09108 138.13379L224.09108 136.33691L225.88795 136.33691L225.88795 138.13379L224.09108 138.13379ZM228.20045 131.77441Q228.20045 129.49316 228.6692 128.10254Q229.13795 126.711914 230.05983 125.961914Q230.99733 125.19629 232.40358 125.19629Q233.43483 125.19629 234.21608 125.618164Q234.99733 126.024414 235.49733 126.82129Q236.01295 127.60254 236.30983 128.74316Q236.6067 129.86816 236.6067 131.77441Q236.6067 134.04004 236.13795 135.44629Q235.6692 136.83691 234.7317 137.60254Q233.80983 138.35254 232.40358 138.35254Q230.52858 138.35254 229.46608 137.02441Q228.20045 135.41504 228.20045 131.77441ZM229.82545 131.77441Q229.82545 134.94629 230.55983 136.00879Q231.30983 137.05566 232.40358 137.05566Q233.4817 137.05566 234.2317 136.00879Q234.9817 134.94629 234.9817 131.77441Q234.9817 128.60254 234.2317 127.555664Q233.4817 126.50879 232.38795 126.50879Q231.2942 126.50879 230.63795 127.430664Q229.82545 128.60254 229.82545 131.77441ZM238.49733 128.33691Q238.49733 126.961914 239.18483 125.993164Q239.88795 125.024414 241.20045 125.024414Q242.4192 125.024414 243.21608 125.899414Q244.01295 126.75879 244.01295 128.44629Q244.01295 130.07129 243.20045 130.96191Q242.40358 131.83691 241.21608 131.83691Q240.05983 131.83691 239.27858 130.97754Q238.49733 130.10254 238.49733 128.33691ZM241.24733 126.118164Q240.65358 126.118164 240.26295 126.63379Q239.87233 127.13379 239.87233 128.49316Q239.87233 129.74316 240.26295 130.24316Q240.6692 130.74316 241.24733 130.74316Q241.84108 130.74316 242.2317 130.24316Q242.62233 129.72754 242.62233 128.38379Q242.62233 127.13379 242.2317 126.63379Q241.84108 126.118164 241.24733 126.118164ZM241.26295 138.60254L248.30983 125.024414L249.59108 125.024414L242.55983 138.60254L241.26295 138.60254ZM246.82545 135.10254Q246.82545 133.72754 247.51295 132.75879Q248.21608 131.79004 249.5442 131.79004Q250.76295 131.79004 251.5442 132.66504Q252.34108 133.52441 252.34108 135.21191Q252.34108 136.83691 251.5442 137.72754Q250.74733 138.60254 249.55983 138.60254Q248.38795 138.60254 247.6067 137.72754Q246.82545 136.85254 246.82545 135.10254ZM249.59108 132.88379Q248.99733 132.88379 248.6067 133.39941Q248.21608 133.89941 248.21608 135.27441Q248.21608 136.49316 248.6067 137.00879Q248.99733 137.52441 249.57545 137.52441Q250.18483 137.52441 250.57545 137.00879Q250.96608 136.49316 250.96608 135.14941Q250.96608 133.89941 250.57545 133.39941Q250.18483 132.88379 249.59108 132.88379Z" fill-rule="nonzero"/><path stroke="#ffffff" stroke-width="1.0" stroke-linejoin="round" stroke-linecap="round" d="M300.0 240.875C320.5404 240.875 337.19168 224.22372 337.19168 203.68333C337.19168 183.14294 320.5404 166.49167 300.0 166.49167L300.0 54.916668C382.16156 54.916668 448.76666 121.521774 448.76666 203.68333C448.76666 285.8449 382.16156 352.45 300.0 352.45" fill-rule="nonzero"/><path stroke="#ffffff" stroke-width="1.0" stroke-linejoin="round" stroke-linecap="round" d="M262.80832 203.68333C262.80832 224.22372 279.4596 240.875 300.0 240.875L300.0 352.45C217.83844 352.45 151.23334 285.8449 151.23334 203.68333" fill-rule="nonzero"/><path stroke="#ffffff" stroke-width="1.0" stroke-linejoin="round" stroke-linecap="round" d="M300.0 166.49167C279.4596 166.49167 262.80832 183.14294 262.80832 203.68333L151.23334 203.68333C151.23334 121.521774 217.83844 54.916668 300.0 54.916668" fill-rule="nonzero"/><path fill="#efefef" d="M27.3 86.79598L28.815624 86.79598L28.815624 93.40536Q28.815624 95.13973 28.425 96.15536Q28.034374 97.17098 27.01875 97.81161Q26.003124 98.45223 24.346874 98.45223Q22.7375 98.45223 21.70625 97.88973Q20.690624 97.32723 20.253124 96.28036Q19.815624 95.23348 19.815624 93.40536L19.815624 86.79598L21.33125 86.79598L21.33125 93.40536Q21.33125 94.88973 21.596874 95.60848Q21.878124 96.31161 22.55 96.70223Q23.2375 97.07723 24.20625 97.07723Q25.878124 97.07723 26.58125 96.32723Q27.3 95.56161 27.3 93.40536L27.3 86.79598ZM31.596874 98.24911L31.596874 89.95223L32.8625 89.95223L32.8625 91.20223Q33.346874 90.32723 33.753124 90.04598Q34.159374 89.76473 34.659374 89.76473Q35.3625 89.76473 36.096874 90.21786L35.6125 91.51473Q35.096874 91.21786 34.58125 91.21786Q34.128124 91.21786 33.753124 91.49911Q33.39375 91.76473 33.2375 92.26473Q33.003124 93.01473 33.003124 93.90536L33.003124 98.24911L31.596874 98.24911ZM37.909374 98.24911L36.596874 98.24911L36.596874 86.79598L38.003124 86.79598L38.003124 90.87411Q38.89375 89.76473 40.284374 89.76473Q41.05 89.76473 41.721874 90.07723Q42.409374 90.37411 42.846874 90.93661Q43.3 91.49911 43.55 92.29598Q43.8 93.07723 43.8 93.96786Q43.8 96.10848 42.7375 97.28036Q41.690624 98.43661 40.20625 98.43661Q38.7375 98.43661 37.909374 97.20223L37.909374 98.24911ZM37.89375 94.03036Q37.89375 95.53036 38.3 96.18661Q38.95625 97.28036 40.096874 97.28036Q41.01875 97.28036 41.690624 96.48348Q42.3625 95.67098 42.3625 94.09286Q42.3625 92.46786 41.70625 91.70223Q41.065624 90.92098 40.159374 90.92098Q39.2375 90.92098 38.565624 91.71786Q37.89375 92.51473 37.89375 94.03036ZM51.01875 97.21786Q50.2375 97.88973 49.51875 98.17098Q48.8 98.43661 47.971874 98.43661Q46.596874 98.43661 45.8625 97.76473Q45.128124 97.09286 45.128124 96.06161Q45.128124 95.45223 45.409374 94.95223Q45.690624 94.43661 46.128124 94.13973Q46.58125 93.82723 47.14375 93.67098Q47.565624 93.56161 48.39375 93.46786Q50.096874 93.26473 50.909374 92.98348Q50.909374 92.68661 50.909374 92.60848Q50.909374 91.74911 50.51875 91.40536Q49.971874 90.92098 48.909374 90.92098Q47.925 90.92098 47.440624 91.28036Q46.971874 91.62411 46.753124 92.49911L45.378124 92.31161Q45.565624 91.43661 45.9875 90.88973Q46.425 90.34286 47.2375 90.06161Q48.05 89.76473 49.1125 89.76473Q50.175 89.76473 50.83125 90.01473Q51.503124 90.26473 51.815624 90.63973Q52.128124 91.01473 52.253124 91.59286Q52.33125 91.95223 52.33125 92.88973L52.33125 94.76473Q52.33125 96.73348 52.409374 97.24911Q52.503124 97.76473 52.76875 98.24911L51.3 98.24911Q51.08125 97.81161 51.01875 97.21786ZM50.909374 94.07723Q50.14375 94.38973 48.6125 94.60848Q47.7375 94.73348 47.378124 94.88973Q47.01875 95.04598 46.815624 95.35848Q46.628124 95.65536 46.628124 96.01473Q46.628124 96.57723 47.05 96.95223Q47.4875 97.32723 48.3 97.32723Q49.1125 97.32723 49.7375 96.98348Q50.378124 96.62411 50.675 95.99911Q50.909374 95.53036 50.909374 94.59286L50.909374 94.07723ZM54.6125 98.24911L54.6125 89.95223L55.878124 89.95223L55.878124 91.12411Q56.784374 89.76473 58.51875 89.76473Q59.26875 89.76473 59.89375 90.03036Q60.51875 90.29598 60.83125 90.73348Q61.14375 91.17098 61.26875 91.78036Q61.346874 92.17098 61.346874 93.13973L61.346874 98.24911L59.940624 98.24911L59.940624 93.20223Q59.940624 92.34286 59.76875 91.92098Q59.6125 91.48348 59.190624 91.23348Q58.784374 90.98348 58.221874 90.98348Q57.315624 90.98348 56.659374 91.56161Q56.01875 92.12411 56.01875 93.71786L56.01875 98.24911L54.6125 98.24911ZM63.05 95.76473L64.44063 95.54598Q64.55 96.38973 65.08125 96.84286Q65.62813 97.28036 66.58125 97.28036Q67.55 97.28036 68.01875 96.88973Q68.4875 96.48348 68.4875 95.95223Q68.4875 95.48348 68.08125 95.20223Q67.78438 95.01473 66.64375 94.73348Q65.09688 94.34286 64.4875 94.06161Q63.89375 93.76473 63.58125 93.26473Q63.284374 92.76473 63.284374 92.15536Q63.284374 91.59286 63.534374 91.12411Q63.784374 90.65536 64.22188 90.34286Q64.55 90.09286 65.1125 89.93661Q65.69063 89.76473 66.33125 89.76473Q67.31563 89.76473 68.05 90.04598Q68.78438 90.32723 69.12813 90.81161Q69.4875 91.28036 69.62813 92.09286L68.25313 92.28036Q68.15938 91.63973 67.70625 91.28036Q67.25313 90.92098 66.44063 90.92098Q65.47188 90.92098 65.05 91.24911Q64.64375 91.56161 64.64375 91.98348Q64.64375 92.26473 64.81563 92.48348Q64.9875 92.70223 65.34688 92.85848Q65.56563 92.93661 66.59688 93.21786Q68.08125 93.60848 68.675 93.87411Q69.26875 94.12411 69.59688 94.60848Q69.94063 95.09286 69.94063 95.81161Q69.94063 96.51473 69.51875 97.13973Q69.1125 97.74911 68.33125 98.09286Q67.56563 98.43661 66.59688 98.43661Q64.97188 98.43661 64.12813 97.76473Q63.284374 97.09286 63.05 95.76473ZM77.01875 95.20223L78.40938 95.38973Q78.175 96.81161 77.2375 97.62411Q76.31563 98.43661 74.95625 98.43661Q73.25313 98.43661 72.20625 97.32723Q71.175 96.20223 71.175 94.12411Q71.175 92.78036 71.6125 91.78036Q72.06563 90.76473 72.97188 90.26473Q73.89375 89.76473 74.95625 89.76473Q76.31563 89.76473 77.175 90.45223Q78.03438 91.12411 78.26875 92.38973L76.90938 92.59286Q76.70625 91.76473 76.20625 91.34286Q75.72188 90.92098 75.01875 90.92098Q73.95625 90.92098 73.28438 91.68661Q72.62813 92.43661 72.62813 94.09286Q72.62813 95.76473 73.26875 96.53036Q73.90938 97.28036 74.94063 97.28036Q75.76875 97.28036 76.31563 96.78036Q76.87813 96.26473 77.01875 95.20223ZM85.01875 97.21786Q84.2375 97.88973 83.51875 98.17098Q82.8 98.43661 81.97188 98.43661Q80.59688 98.43661 79.8625 97.76473Q79.12813 97.09286 79.12813 96.06161Q79.12813 95.45223 79.40938 94.95223Q79.69063 94.43661 80.12813 94.13973Q80.58125 93.82723 81.14375 93.67098Q81.56563 93.56161 82.39375 93.46786Q84.09688 93.26473 84.90938 92.98348Q84.90938 92.68661 84.90938 92.60848Q84.90938 91.74911 84.51875 91.40536Q83.97188 90.92098 82.90938 90.92098Q81.925 90.92098 81.44063 91.28036Q80.97188 91.62411 80.75313 92.49911L79.37813 92.31161Q79.56563 91.43661 79.9875 90.88973Q80.425 90.34286 81.2375 90.06161Q82.05 89.76473 83.1125 89.76473Q84.175 89.76473 84.83125 90.01473Q85.50313 90.26473 85.81563 90.63973Q86.12813 91.01473 86.25313 91.59286Q86.33125 91.95223 86.33125 92.88973L86.33125 94.76473Q86.33125 96.73348 86.40938 97.24911Q86.50313 97.76473 86.76875 98.24911L85.3 98.24911Q85.08125 97.81161 85.01875 97.21786ZM84.90938 94.07723Q84.14375 94.38973 82.6125 94.60848Q81.7375 94.73348 81.37813 94.88973Q81.01875 95.04598 80.81563 95.35848Q80.62813 95.65536 80.62813 96.01473Q80.62813 96.57723 81.05 96.95223Q81.4875 97.32723 82.3 97.32723Q83.1125 97.32723 83.7375 96.98348Q84.37813 96.62411 84.675 95.99911Q84.90938 95.53036 84.90938 94.59286L84.90938 94.07723ZM88.6125 101.43661L88.6125 89.95223L89.89375 89.95223L89.89375 91.03036Q90.34688 90.38973 90.90938 90.07723Q91.4875 89.76473 92.3 89.76473Q93.3625 89.76473 94.175 90.31161Q94.9875 90.85848 95.39375 91.85848Q95.81563 92.84286 95.81563 94.03036Q95.81563 95.31161 95.34688 96.32723Q94.89375 97.34286 94.01875 97.88973Q93.15938 98.43661 92.19063 98.43661Q91.4875 98.43661 90.925 98.13973Q90.37813 97.84286 90.01875 97.38973L90.01875 101.43661L88.6125 101.43661ZM89.87813 94.13973Q89.87813 95.74911 90.51875 96.51473Q91.175 97.28036 92.09688 97.28036Q93.03438 97.28036 93.70625 96.48348Q94.37813 95.68661 94.37813 94.03036Q94.37813 92.43661 93.72188 91.65536Q93.06563 90.85848 92.15938 90.85848Q91.26875 90.85848 90.56563 91.70223Q89.87813 92.54598 89.87813 94.13973ZM103.28438 95.57723L104.7375 95.74911Q104.39375 97.03036 103.45625 97.73348Q102.53438 98.43661 101.09688 98.43661Q99.26875 98.43661 98.20625 97.31161Q97.14375 96.18661 97.14375 94.17098Q97.14375 92.07723 98.22188 90.92098Q99.3 89.76473 101.01875 89.76473Q102.675 89.76473 103.72188 90.90536Q104.78438 92.03036 104.78438 94.07723Q104.78438 94.20223 104.78438 94.45223L98.59688 94.45223Q98.675 95.82723 99.3625 96.56161Q100.06563 97.28036 101.09688 97.28036Q101.87813 97.28036 102.425 96.87411Q102.97188 96.46786 103.28438 95.57723ZM98.675 93.29598L103.3 93.29598Q103.20625 92.24911 102.76875 91.73348Q102.09688 90.92098 101.03438 90.92098Q100.06563 90.92098 99.39375 91.57723Q98.7375 92.21786 98.675 93.29598Z" fill-rule="nonzero"/><path fill="#9e9e9e" d="M26.6125 118.88973L26.6125 120.24911L19.034374 120.24911Q19.01875 119.73348 19.20625 119.26473Q19.4875 118.49911 20.128124 117.74911Q20.76875 116.99911 21.971874 116.01473Q23.83125 114.48348 24.4875 113.59286Q25.14375 112.68661 25.14375 111.88973Q25.14375 111.06161 24.55 110.48348Q23.95625 109.90536 22.9875 109.90536Q21.971874 109.90536 21.3625 110.51473Q20.753124 111.12411 20.753124 112.20223L19.3 112.06161Q19.45625 110.43661 20.425 109.59286Q21.39375 108.74911 23.01875 108.74911Q24.675 108.74911 25.628124 109.67098Q26.596874 110.57723 26.596874 111.92098Q26.596874 112.60848 26.315624 113.28036Q26.034374 113.93661 25.378124 114.67098Q24.721874 115.40536 23.20625 116.68661Q21.940624 117.74911 21.58125 118.13973Q21.221874 118.51473 20.9875 118.88973L26.6125 118.88973ZM28.221874 117.24911L29.690624 117.12411Q29.8625 118.20223 30.45625 118.74911Q31.05 119.28036 31.89375 119.28036Q32.909374 119.28036 33.6125 118.51473Q34.315624 117.74911 34.315624 116.48348Q34.315624 115.28036 33.64375 114.59286Q32.971874 113.88973 31.878124 113.88973Q31.190624 113.88973 30.64375 114.20223Q30.096874 114.51473 29.784374 114.99911L28.471874 114.82723L29.58125 108.95223L35.26875 108.95223L35.26875 110.29598L30.70625 110.29598L30.08125 113.37411Q31.1125 112.65536 32.253124 112.65536Q33.753124 112.65536 34.784374 113.70223Q35.815624 114.73348 35.815624 116.35848Q35.815624 117.92098 34.909374 119.04598Q33.8 120.45223 31.89375 120.45223Q30.33125 120.45223 29.346874 119.57723Q28.3625 118.68661 28.221874 117.24911ZM38.003124 120.24911L38.003124 118.63973L39.6125 118.63973L39.6125 120.24911L38.003124 120.24911ZM41.221874 114.59286Q41.221874 112.56161 41.628124 111.32723Q42.05 110.09286 42.878124 109.42098Q43.70625 108.74911 44.95625 108.74911Q45.878124 108.74911 46.565624 109.12411Q47.26875 109.48348 47.721874 110.18661Q48.175 110.88973 48.425 111.88973Q48.690624 112.88973 48.690624 114.59286Q48.690624 116.60848 48.26875 117.85848Q47.8625 119.09286 47.034374 119.78036Q46.20625 120.45223 44.95625 120.45223Q43.3 120.45223 42.346874 119.24911Q41.221874 117.82723 41.221874 114.59286ZM42.659374 114.59286Q42.659374 117.42098 43.315624 118.35848Q43.9875 119.28036 44.95625 119.28036Q45.925 119.28036 46.58125 118.34286Q47.2375 117.40536 47.2375 114.59286Q47.2375 111.76473 46.58125 110.84286Q45.925 109.90536 44.940624 109.90536Q43.971874 109.90536 43.39375 110.73348Q42.659374 111.78036 42.659374 114.59286ZM50.4875 111.54598Q50.4875 110.31161 51.096874 109.45223Q51.721874 108.59286 52.89375 108.59286Q53.971874 108.59286 54.675 109.37411Q55.378124 110.13973 55.378124 111.62411Q55.378124 113.07723 54.659374 113.87411Q53.95625 114.65536 52.909374 114.65536Q51.8625 114.65536 51.175 113.88973Q50.4875 113.10848 50.4875 111.54598ZM52.925 109.56161Q52.409374 109.56161 52.05 110.01473Q51.70625 110.46786 51.70625 111.68661Q51.70625 112.78036 52.05 113.23348Q52.409374 113.68661 52.925 113.68661Q53.45625 113.68661 53.8 113.23348Q54.159374 112.78036 54.159374 111.57723Q54.159374 110.46786 53.8 110.01473Q53.45625 109.56161 52.925 109.56161ZM52.940624 120.67098L59.20625 108.59286L60.346874 108.59286L54.096874 120.67098L52.940624 120.67098ZM57.89375 117.56161Q57.89375 116.32723 58.503124 115.46786Q59.128124 114.60848 60.3 114.60848Q61.378124 114.60848 62.08125 115.38973Q62.8 116.15536 62.8 117.63973Q62.8 119.09286 62.08125 119.88973Q61.3625 120.67098 60.315624 120.67098Q59.26875 120.67098 58.58125 119.88973Q57.89375 119.10848 57.89375 117.56161ZM60.346874 115.57723Q59.815624 115.57723 59.45625 116.03036Q59.1125 116.48348 59.1125 117.70223Q59.1125 118.79598 59.45625 119.24911Q59.815624 119.70223 60.33125 119.70223Q60.878124 119.70223 61.221874 119.24911Q61.565624 118.79598 61.565624 117.59286Q61.565624 116.48348 61.20625 116.03036Q60.8625 115.57723 60.346874 115.57723Z" fill-rule="nonzero"/><path stroke="#757575" stroke-width="1.0" stroke-linecap="butt" d="M18.55 103.74911L145.23334 103.74911L200.06578 103.74911" fill-rule="nonzero"/><path fill="#9e9e9e" d="M202.06578 103.74911C202.06578 102.64454 201.17035 101.74911 200.06578 101.74911C198.96121 101.74911 198.06578 102.64454 198.06578 103.74911C198.06578 104.85368 198.96121 105.74911 200.06578 105.74911C201.17035 105.74911 202.06578 104.85368 202.06578 103.74911" fill-rule="nonzero"/><path fill="#efefef" d="M19.76875 298.11755L19.76875 286.66443L21.33125 286.66443L27.346874 295.6488L27.346874 286.66443L28.8 286.66443L28.8 298.11755L27.2375 298.11755L21.221874 289.11755L21.221874 298.11755L19.76875 298.11755ZM37.01875 297.0863Q36.2375 297.75818 35.51875 298.03943Q34.8 298.30505 33.971874 298.30505Q32.596874 298.30505 31.8625 297.63318Q31.128124 296.9613 31.128124 295.93005Q31.128124 295.32068 31.409374 294.82068Q31.690624 294.30505 32.128124 294.00818Q32.58125 293.69568 33.14375 293.53943Q33.565624 293.43005 34.39375 293.3363Q36.096874 293.13318 36.909374 292.85193Q36.909374 292.55505 36.909374 292.47693Q36.909374 291.61755 36.51875 291.2738Q35.971874 290.78943 34.909374 290.78943Q33.925 290.78943 33.440624 291.1488Q32.971874 291.49255 32.753124 292.36755L31.378124 292.18005Q31.565624 291.30505 31.9875 290.75818Q32.425 290.2113 33.2375 289.93005Q34.05 289.63318 35.1125 289.63318Q36.175 289.63318 36.83125 289.88318Q37.503124 290.13318 37.815624 290.50818Q38.128124 290.88318 38.253124 291.4613Q38.33125 291.82068 38.33125 292.75818L38.33125 294.63318Q38.33125 296.60193 38.409374 297.11755Q38.503124 297.63318 38.76875 298.11755L37.3 298.11755Q37.08125 297.68005 37.01875 297.0863ZM36.909374 293.94568Q36.14375 294.25818 34.6125 294.47693Q33.7375 294.60193 33.378124 294.75818Q33.01875 294.91443 32.815624 295.22693Q32.628124 295.5238 32.628124 295.88318Q32.628124 296.44568 33.05 296.82068Q33.4875 297.19568 34.3 297.19568Q35.1125 297.19568 35.7375 296.85193Q36.378124 296.49255 36.675 295.86755Q36.909374 295.3988 36.909374 294.4613L36.909374 293.94568ZM43.675 296.85193L43.878124 298.10193Q43.284374 298.22693 42.815624 298.22693Q42.05 298.22693 41.628124 297.99255Q41.20625 297.74255 41.034374 297.35193Q40.8625 296.94568 40.8625 295.68005L40.8625 290.91443L39.83125 290.91443L39.83125 289.82068L40.8625 289.82068L40.8625 287.75818L42.26875 286.91443L42.26875 289.82068L43.675 289.82068L43.675 290.91443L42.26875 290.91443L42.26875 295.75818Q42.26875 296.36755 42.33125 296.53943Q42.409374 296.7113 42.58125 296.82068Q42.753124 296.91443 43.065624 296.91443Q43.3 296.91443 43.675 296.85193ZM50.05 298.11755L50.05 296.8988Q49.08125 298.30505 47.409374 298.30505Q46.675 298.30505 46.034374 298.0238Q45.409374 297.74255 45.096874 297.32068Q44.784374 296.88318 44.659374 296.2738Q44.58125 295.85193 44.58125 294.9613L44.58125 289.82068L45.9875 289.82068L45.9875 294.41443Q45.9875 295.5238 46.065624 295.8988Q46.20625 296.4613 46.628124 296.7738Q47.065624 297.0863 47.690624 297.0863Q48.33125 297.0863 48.878124 296.7738Q49.440624 296.44568 49.659374 295.88318Q49.89375 295.32068 49.89375 294.25818L49.89375 289.82068L51.3 289.82068L51.3 298.11755L50.05 298.11755ZM53.596874 298.11755L53.596874 289.82068L54.8625 289.82068L54.8625 291.07068Q55.346874 290.19568 55.753124 289.91443Q56.159374 289.63318 56.659374 289.63318Q57.3625 289.63318 58.096874 290.0863L57.6125 291.38318Q57.096874 291.0863 56.58125 291.0863Q56.128124 291.0863 55.753124 291.36755Q55.39375 291.63318 55.2375 292.13318Q55.003124 292.88318 55.003124 293.7738L55.003124 298.11755L53.596874 298.11755ZM64.28438 295.44568L65.7375 295.61755Q65.39375 296.8988 64.45625 297.60193Q63.534374 298.30505 62.096874 298.30505Q60.26875 298.30505 59.20625 297.18005Q58.14375 296.05505 58.14375 294.03943Q58.14375 291.94568 59.221874 290.78943Q60.3 289.63318 62.01875 289.63318Q63.675 289.63318 64.72188 290.7738Q65.78438 291.8988 65.78438 293.94568Q65.78438 294.07068 65.78438 294.32068L59.596874 294.32068Q59.675 295.69568 60.3625 296.43005Q61.065624 297.1488 62.096874 297.1488Q62.878124 297.1488 63.425 296.74255Q63.971874 296.3363 64.28438 295.44568ZM59.675 293.16443L64.3 293.16443Q64.20625 292.11755 63.76875 291.60193Q63.096874 290.78943 62.034374 290.78943Q61.065624 290.78943 60.39375 291.44568Q59.7375 292.0863 59.675 293.16443ZM67.05 295.63318L68.44063 295.41443Q68.55 296.25818 69.08125 296.7113Q69.62813 297.1488 70.58125 297.1488Q71.55 297.1488 72.01875 296.75818Q72.4875 296.35193 72.4875 295.82068Q72.4875 295.35193 72.08125 295.07068Q71.78438 294.88318 70.64375 294.60193Q69.09688 294.2113 68.4875 293.93005Q67.89375 293.63318 67.58125 293.13318Q67.28438 292.63318 67.28438 292.0238Q67.28438 291.4613 67.53438 290.99255Q67.78438 290.5238 68.22188 290.2113Q68.55 289.9613 69.1125 289.80505Q69.69063 289.63318 70.33125 289.63318Q71.31563 289.63318 72.05 289.91443Q72.78438 290.19568 73.12813 290.68005Q73.4875 291.1488 73.62813 291.9613L72.25313 292.1488Q72.15938 291.50818 71.70625 291.1488Q71.25313 290.78943 70.44063 290.78943Q69.47188 290.78943 69.05 291.11755Q68.64375 291.43005 68.64375 291.85193Q68.64375 292.13318 68.81563 292.35193Q68.9875 292.57068 69.34688 292.72693Q69.56563 292.80505 70.59688 293.0863Q72.08125 293.47693 72.675 293.74255Q73.26875 293.99255 73.59688 294.47693Q73.94063 294.9613 73.94063 295.68005Q73.94063 296.38318 73.51875 297.00818Q73.1125 297.61755 72.33125 297.9613Q71.56563 298.30505 70.59688 298.30505Q68.97188 298.30505 68.12813 297.63318Q67.28438 296.9613 67.05 295.63318ZM81.01875 295.07068L82.40938 295.25818Q82.175 296.68005 81.2375 297.49255Q80.31563 298.30505 78.95625 298.30505Q77.25313 298.30505 76.20625 297.19568Q75.175 296.07068 75.175 293.99255Q75.175 292.6488 75.6125 291.6488Q76.06563 290.63318 76.97188 290.13318Q77.89375 289.63318 78.95625 289.63318Q80.31563 289.63318 81.175 290.32068Q82.03438 290.99255 82.26875 292.25818L80.90938 292.4613Q80.70625 291.63318 80.20625 291.2113Q79.72188 290.78943 79.01875 290.78943Q77.95625 290.78943 77.28438 291.55505Q76.62813 292.30505 76.62813 293.9613Q76.62813 295.63318 77.26875 296.3988Q77.90938 297.1488 78.94063 297.1488Q79.76875 297.1488 80.31563 296.6488Q80.87813 296.13318 81.01875 295.07068ZM89.01875 297.0863Q88.2375 297.75818 87.51875 298.03943Q86.8 298.30505 85.97188 298.30505Q84.59688 298.30505 83.8625 297.63318Q83.12813 296.9613 83.12813 295.93005Q83.12813 295.32068 83.40938 294.82068Q83.69063 294.30505 84.12813 294.00818Q84.58125 293.69568 85.14375 293.53943Q85.56563 293.43005 86.39375 293.3363Q88.09688 293.13318 88.90938 292.85193Q88.90938 292.55505 88.90938 292.47693Q88.90938 291.61755 88.51875 291.2738Q87.97188 290.78943 86.90938 290.78943Q85.925 290.78943 85.44063 291.1488Q84.97188 291.49255 84.75313 292.36755L83.37813 292.18005Q83.56563 291.30505 83.9875 290.75818Q84.425 290.2113 85.2375 289.93005Q86.05 289.63318 87.1125 289.63318Q88.175 289.63318 88.83125 289.88318Q89.50313 290.13318 89.81563 290.50818Q90.12813 290.88318 90.25313 291.4613Q90.33125 291.82068 90.33125 292.75818L90.33125 294.63318Q90.33125 296.60193 90.40938 297.11755Q90.50313 297.63318 90.76875 298.11755L89.3 298.11755Q89.08125 297.68005 89.01875 297.0863ZM88.90938 293.94568Q88.14375 294.25818 86.6125 294.47693Q85.7375 294.60193 85.37813 294.75818Q85.01875 294.91443 84.81563 295.22693Q84.62813 295.5238 84.62813 295.88318Q84.62813 296.44568 85.05 296.82068Q85.4875 297.19568 86.3 297.19568Q87.1125 297.19568 87.7375 296.85193Q88.37813 296.49255 88.675 295.86755Q88.90938 295.3988 88.90938 294.4613L88.90938 293.94568ZM92.6125 301.30505L92.6125 289.82068L93.89375 289.82068L93.89375 290.8988Q94.34688 290.25818 94.90938 289.94568Q95.4875 289.63318 96.3 289.63318Q97.3625 289.63318 98.175 290.18005Q98.9875 290.72693 99.39375 291.72693Q99.81563 292.7113 99.81563 293.8988Q99.81563 295.18005 99.34688 296.19568Q98.89375 297.2113 98.01875 297.75818Q97.15938 298.30505 96.19063 298.30505Q95.4875 298.30505 94.925 298.00818Q94.37813 297.7113 94.01875 297.25818L94.01875 301.30505L92.6125 301.30505ZM93.87813 294.00818Q93.87813 295.61755 94.51875 296.38318Q95.175 297.1488 96.09688 297.1488Q97.03438 297.1488 97.70625 296.35193Q98.37813 295.55505 98.37813 293.8988Q98.37813 292.30505 97.72188 291.5238Q97.06563 290.72693 96.15938 290.72693Q95.26875 290.72693 94.56563 291.57068Q93.87813 292.41443 93.87813 294.00818ZM107.28438 295.44568L108.7375 295.61755Q108.39375 296.8988 107.45625 297.60193Q106.53438 298.30505 105.09688 298.30505Q103.26875 298.30505 102.20625 297.18005Q101.14375 296.05505 101.14375 294.03943Q101.14375 291.94568 102.22188 290.78943Q103.3 289.63318 105.01875 289.63318Q106.675 289.63318 107.72188 290.7738Q108.78438 291.8988 108.78438 293.94568Q108.78438 294.07068 108.78438 294.32068L102.59688 294.32068Q102.675 295.69568 103.3625 296.43005Q104.06563 297.1488 105.09688 297.1488Q105.87813 297.1488 106.425 296.74255Q106.97188 296.3363 107.28438 295.44568ZM102.675 293.16443L107.3 293.16443Q107.20625 292.11755 106.76875 291.60193Q106.09688 290.78943 105.03438 290.78943Q104.06563 290.78943 103.39375 291.44568Q102.7375 292.0863 102.675 293.16443Z" fill-rule="nonzero"/><path fill="#9e9e9e" d="M26.6125 318.75818L26.6125 320.11755L19.034374 320.11755Q19.01875 319.60193 19.20625 319.13318Q19.4875 318.36755 20.128124 317.61755Q20.76875 316.86755 21.971874 315.88318Q23.83125 314.35193 24.4875 313.4613Q25.14375 312.55505 25.14375 311.75818Q25.14375 310.93005 24.55 310.35193Q23.95625 309.7738 22.9875 309.7738Q21.971874 309.7738 21.3625 310.38318Q20.753124 310.99255 20.753124 312.07068L19.3 311.93005Q19.45625 310.30505 20.425 309.4613Q21.39375 308.61755 23.01875 308.61755Q24.675 308.61755 25.628124 309.53943Q26.596874 310.44568 26.596874 311.78943Q26.596874 312.47693 26.315624 313.1488Q26.034374 313.80505 25.378124 314.53943Q24.721874 315.2738 23.20625 316.55505Q21.940624 317.61755 21.58125 318.00818Q21.221874 318.38318 20.9875 318.75818L26.6125 318.75818ZM28.221874 317.11755L29.690624 316.99255Q29.8625 318.07068 30.45625 318.61755Q31.05 319.1488 31.89375 319.1488Q32.909374 319.1488 33.6125 318.38318Q34.315624 317.61755 34.315624 316.35193Q34.315624 315.1488 33.64375 314.4613Q32.971874 313.75818 31.878124 313.75818Q31.190624 313.75818 30.64375 314.07068Q30.096874 314.38318 29.784374 314.86755L28.471874 314.69568L29.58125 308.82068L35.26875 308.82068L35.26875 310.16443L30.70625 310.16443L30.08125 313.24255Q31.1125 312.5238 32.253124 312.5238Q33.753124 312.5238 34.784374 313.57068Q35.815624 314.60193 35.815624 316.22693Q35.815624 317.78943 34.909374 318.91443Q33.8 320.32068 31.89375 320.32068Q30.33125 320.32068 29.346874 319.44568Q28.3625 318.55505 28.221874 317.11755ZM38.003124 320.11755L38.003124 318.50818L39.6125 318.50818L39.6125 320.11755L38.003124 320.11755ZM41.221874 314.4613Q41.221874 312.43005 41.628124 311.19568Q42.05 309.9613 42.878124 309.28943Q43.70625 308.61755 44.95625 308.61755Q45.878124 308.61755 46.565624 308.99255Q47.26875 309.35193 47.721874 310.05505Q48.175 310.75818 48.425 311.75818Q48.690624 312.75818 48.690624 314.4613Q48.690624 316.47693 48.26875 317.72693Q47.8625 318.9613 47.034374 319.6488Q46.20625 320.32068 44.95625 320.32068Q43.3 320.32068 42.346874 319.11755Q41.221874 317.69568 41.221874 314.4613ZM42.659374 314.4613Q42.659374 317.28943 43.315624 318.22693Q43.9875 319.1488 44.95625 319.1488Q45.925 319.1488 46.58125 318.2113Q47.2375 317.2738 47.2375 314.4613Q47.2375 311.63318 46.58125 310.7113Q45.925 309.7738 44.940624 309.7738Q43.971874 309.7738 43.39375 310.60193Q42.659374 311.6488 42.659374 314.4613ZM50.4875 311.41443Q50.4875 310.18005 51.096874 309.32068Q51.721874 308.4613 52.89375 308.4613Q53.971874 308.4613 54.675 309.24255Q55.378124 310.00818 55.378124 311.49255Q55.378124 312.94568 54.659374 313.74255Q53.95625 314.5238 52.909374 314.5238Q51.8625 314.5238 51.175 313.75818Q50.4875 312.97693 50.4875 311.41443ZM52.925 309.43005Q52.409374 309.43005 52.05 309.88318Q51.70625 310.3363 51.70625 311.55505Q51.70625 312.6488 52.05 313.10193Q52.409374 313.55505 52.925 313.55505Q53.45625 313.55505 53.8 313.10193Q54.159374 312.6488 54.159374 311.44568Q54.159374 310.3363 53.8 309.88318Q53.45625 309.43005 52.925 309.43005ZM52.940624 320.53943L59.20625 308.4613L60.346874 308.4613L54.096874 320.53943L52.940624 320.53943ZM57.89375 317.43005Q57.89375 316.19568 58.503124 315.3363Q59.128124 314.47693 60.3 314.47693Q61.378124 314.47693 62.08125 315.25818Q62.8 316.0238 62.8 317.50818Q62.8 318.9613 62.08125 319.75818Q61.3625 320.53943 60.315624 320.53943Q59.26875 320.53943 58.58125 319.75818Q57.89375 318.97693 57.89375 317.43005ZM60.346874 315.44568Q59.815624 315.44568 59.45625 315.8988Q59.1125 316.35193 59.1125 317.57068Q59.1125 318.66443 59.45625 319.11755Q59.815624 319.57068 60.33125 319.57068Q60.878124 319.57068 61.221874 319.11755Q61.565624 318.66443 61.565624 317.4613Q61.565624 316.35193 61.20625 315.8988Q60.8625 315.44568 60.346874 315.44568Z" fill-rule="nonzero"/><path stroke="#757575" stroke-width="1.0" stroke-linecap="butt" d="M18.55 303.61755L145.23334 303.61755L200.06578 303.61755" fill-rule="nonzero"/><path fill="#9e9e9e" d="M202.06578 303.61755C202.06578 302.513 201.17035 301.61755 200.06578 301.61755C198.96121 301.61755 198.06578 302.513 198.06578 303.61755C198.06578 304.72214 198.96121 305.61755 200.06578 305.61755C201.17035 305.61755 202.06578 304.72214 202.06578 303.61755" fill-rule="nonzero"/><path fill="#efefef" d="M551.6375 198.18333L551.6375 186.73021L553.91876 186.73021L556.6375 194.83958Q557.0125 195.96458 557.1844 196.52708Q557.3719 195.90208 557.79376 194.69896L560.52814 186.73021L562.575 186.73021L562.575 198.18333L561.10626 198.18333L561.10626 188.58958L557.77814 198.18333L556.41876 198.18333L553.10626 188.43333L553.10626 198.18333L551.6375 198.18333ZM569.91876 197.15208Q569.1375 197.82396 568.41876 198.10521Q567.7 198.37083 566.8719 198.37083Q565.4969 198.37083 564.7625 197.69896Q564.02814 197.02708 564.02814 195.99583Q564.02814 195.38646 564.3094 194.88646Q564.59064 194.37083 565.02814 194.07396Q565.48126 193.76146 566.04376 193.60521Q566.46564 193.49583 567.29376 193.40208Q568.9969 193.19896 569.8094 192.91771Q569.8094 192.62083 569.8094 192.54271Q569.8094 191.68333 569.41876 191.33958Q568.8719 190.85521 567.8094 190.85521Q566.825 190.85521 566.34064 191.21458Q565.8719 191.55833 565.65314 192.43333L564.27814 192.24583Q564.46564 191.37083 564.8875 190.82396Q565.325 190.27708 566.1375 189.99583Q566.95 189.69896 568.0125 189.69896Q569.075 189.69896 569.73126 189.94896Q570.40314 190.19896 570.71564 190.57396Q571.02814 190.94896 571.15314 191.52708Q571.23126 191.88646 571.23126 192.82396L571.23126 194.69896Q571.23126 196.66771 571.3094 197.18333Q571.40314 197.69896 571.66876 198.18333L570.2 198.18333Q569.98126 197.74583 569.91876 197.15208ZM569.8094 194.01146Q569.04376 194.32396 567.5125 194.54271Q566.6375 194.66771 566.27814 194.82396Q565.91876 194.98021 565.71564 195.29271Q565.52814 195.58958 565.52814 195.94896Q565.52814 196.51146 565.95 196.88646Q566.3875 197.26146 567.2 197.26146Q568.0125 197.26146 568.6375 196.91771Q569.27814 196.55833 569.575 195.93333Q569.8094 195.46458 569.8094 194.52708L569.8094 194.01146ZM573.5125 201.37083L573.5125 189.88646L574.79376 189.88646L574.79376 190.96458Q575.2469 190.32396 575.8094 190.01146Q576.3875 189.69896 577.2 189.69896Q578.2625 189.69896 579.075 190.24583Q579.8875 190.79271 580.29376 191.79271Q580.71564 192.77708 580.71564 193.96458Q580.71564 195.24583 580.2469 196.26146Q579.79376 197.27708 578.91876 197.82396Q578.0594 198.37083 577.09064 198.37083Q576.3875 198.37083 575.825 198.07396Q575.27814 197.77708 574.91876 197.32396L574.91876 201.37083L573.5125 201.37083ZM574.77814 194.07396Q574.77814 195.68333 575.41876 196.44896Q576.075 197.21458 576.9969 197.21458Q577.9344 197.21458 578.60626 196.41771Q579.27814 195.62083 579.27814 193.96458Q579.27814 192.37083 578.6219 191.58958Q577.96564 190.79271 577.0594 190.79271Q576.16876 190.79271 575.46564 191.63646Q574.77814 192.48021 574.77814 194.07396Z" fill-rule="nonzero"/><path fill="#9e9e9e" d="M537.1219 217.18333L538.59064 217.05833Q538.7625 218.13646 539.35626 218.68333Q539.95 219.21458 540.79376 219.21458Q541.8094 219.21458 542.5125 218.44896Q543.21564 217.68333 543.21564 216.41771Q543.21564 215.21458 542.54376 214.52708Q541.8719 213.82396 540.77814 213.82396Q540.09064 213.82396 539.54376 214.13646Q538.9969 214.44896 538.6844 214.93333L537.3719 214.76146L538.48126 208.88646L544.16876 208.88646L544.16876 210.23021L539.60626 210.23021L538.98126 213.30833Q540.0125 212.58958 541.15314 212.58958Q542.65314 212.58958 543.6844 213.63646Q544.71564 214.66771 544.71564 216.29271Q544.71564 217.85521 543.8094 218.98021Q542.7 220.38646 540.79376 220.38646Q539.23126 220.38646 538.2469 219.51146Q537.2625 218.62083 537.1219 217.18333ZM546.1219 214.52708Q546.1219 212.49583 546.52814 211.26146Q546.95 210.02708 547.77814 209.35521Q548.60626 208.68333 549.85626 208.68333Q550.77814 208.68333 551.46564 209.05833Q552.16876 209.41771 552.6219 210.12083Q553.075 210.82396 553.325 211.82396Q553.59064 212.82396 553.59064 214.52708Q553.59064 216.54271 553.16876 217.79271Q552.7625 219.02708 551.9344 219.71458Q551.10626 220.38646 549.85626 220.38646Q548.2 220.38646 547.2469 219.18333Q546.1219 217.76146 546.1219 214.52708ZM547.5594 214.52708Q547.5594 217.35521 548.21564 218.29271Q548.8875 219.21458 549.85626 219.21458Q550.825 219.21458 551.48126 218.27708Q552.1375 217.33958 552.1375 214.52708Q552.1375 211.69896 551.48126 210.77708Q550.825 209.83958 549.84064 209.83958Q548.8719 209.83958 548.29376 210.66771Q547.5594 211.71458 547.5594 214.52708ZM555.90314 220.18333L555.90314 218.57396L557.5125 218.57396L557.5125 220.18333L555.90314 220.18333ZM559.1219 214.52708Q559.1219 212.49583 559.52814 211.26146Q559.95 210.02708 560.77814 209.35521Q561.60626 208.68333 562.85626 208.68333Q563.77814 208.68333 564.46564 209.05833Q565.16876 209.41771 565.6219 210.12083Q566.075 210.82396 566.325 211.82396Q566.59064 212.82396 566.59064 214.52708Q566.59064 216.54271 566.16876 217.79271Q565.7625 219.02708 564.9344 219.71458Q564.10626 220.38646 562.85626 220.38646Q561.2 220.38646 560.2469 219.18333Q559.1219 217.76146 559.1219 214.52708ZM560.5594 214.52708Q560.5594 217.35521 561.21564 218.29271Q561.8875 219.21458 562.85626 219.21458Q563.825 219.21458 564.48126 218.27708Q565.1375 217.33958 565.1375 214.52708Q565.1375 211.69896 564.48126 210.77708Q563.825 209.83958 562.84064 209.83958Q561.8719 209.83958 561.29376 210.66771Q560.5594 211.71458 560.5594 214.52708ZM568.3875 211.48021Q568.3875 210.24583 568.9969 209.38646Q569.6219 208.52708 570.79376 208.52708Q571.8719 208.52708 572.575 209.30833Q573.27814 210.07396 573.27814 211.55833Q573.27814 213.01146 572.5594 213.80833Q571.85626 214.58958 570.8094 214.58958Q569.7625 214.58958 569.075 213.82396Q568.3875 213.04271 568.3875 211.48021ZM570.825 209.49583Q570.3094 209.49583 569.95 209.94896Q569.60626 210.40208 569.60626 211.62083Q569.60626 212.71458 569.95 213.16771Q570.3094 213.62083 570.825 213.62083Q571.35626 213.62083 571.7 213.16771Q572.0594 212.71458 572.0594 211.51146Q572.0594 210.40208 571.7 209.94896Q571.35626 209.49583 570.825 209.49583ZM570.84064 220.60521L577.10626 208.52708L578.2469 208.52708L571.9969 220.60521L570.84064 220.60521ZM575.79376 217.49583Q575.79376 216.26146 576.40314 215.40208Q577.02814 214.54271 578.2 214.54271Q579.27814 214.54271 579.98126 215.32396Q580.7 216.08958 580.7 217.57396Q580.7 219.02708 579.98126 219.82396Q579.2625 220.60521 578.21564 220.60521Q577.16876 220.60521 576.48126 219.82396Q575.79376 219.04271 575.79376 217.49583ZM578.2469 215.51146Q577.71564 215.51146 577.35626 215.96458Q577.0125 216.41771 577.0125 217.63646Q577.0125 218.73021 577.35626 219.18333Q577.71564 219.63646 578.23126 219.63646Q578.77814 219.63646 579.1219 219.18333Q579.46564 218.73021 579.46564 217.52708Q579.46564 216.41771 579.10626 215.96458Q578.7625 215.51146 578.2469 215.51146Z" fill-rule="nonzero"/><path stroke="#757575" stroke-width="1.0" stroke-linecap="butt" d="M581.45 203.68333L454.76666 203.68333L441.32834 203.68333" fill-rule="nonzero"/><path fill="#9e9e9e" d="M443.32834 203.68333C443.32834 202.57877 442.4329 201.68333 441.32834 201.68333C440.22375 201.68333 439.32834 202.57877 439.32834 203.68333C439.32834 204.7879 440.22375 205.68333 441.32834 205.68333C442.4329 205.68333 443.32834 204.7879 443.32834 203.68333" fill-rule="nonzero"/><path fill="#f3f3f3" d="M265.98438 37.55L265.98438 23.2375L268.84375 23.2375L272.21875 33.3625Q272.6875 34.784374 272.90625 35.4875Q273.15625 34.70625 273.67188 33.190624L277.09375 23.2375L279.64062 23.2375L279.64062 37.55L277.82812 37.55L277.82812 25.565624L273.65625 37.55L271.95312 37.55L267.8125 25.3625L267.8125 37.55L265.98438 37.55ZM289.92188 34.20625L291.73438 34.440624Q291.3125 36.01875 290.14062 36.909374Q288.98438 37.784374 287.17188 37.784374Q284.90625 37.784374 283.5625 36.39375Q282.23438 34.9875 282.23438 32.45625Q282.23438 29.83125 283.57812 28.39375Q284.92188 26.940624 287.07812 26.940624Q289.15625 26.940624 290.46875 28.3625Q291.79688 29.76875 291.79688 32.346874Q291.79688 32.503124 291.78125 32.815624L284.04688 32.815624Q284.14062 34.51875 285.01562 35.425Q285.89062 36.33125 287.1875 36.33125Q288.15625 36.33125 288.82812 35.83125Q289.51562 35.315624 289.92188 34.20625ZM284.14062 31.3625L289.9375 31.3625Q289.82812 30.065624 289.28125 29.409374Q288.4375 28.39375 287.09375 28.39375Q285.89062 28.39375 285.0625 29.20625Q284.23438 30.003124 284.14062 31.3625ZM300.54688 37.55L300.54688 36.2375Q299.5625 37.784374 297.64062 37.784374Q296.40625 37.784374 295.35938 37.096874Q294.32812 36.409374 293.75 35.190624Q293.1875 33.971874 293.1875 32.378124Q293.1875 30.815624 293.70312 29.55Q294.21875 28.284374 295.25 27.6125Q296.29688 26.940624 297.5625 26.940624Q298.5 26.940624 299.23438 27.346874Q299.96875 27.7375 300.4375 28.3625L300.4375 23.2375L302.17188 23.2375L302.17188 37.55L300.54688 37.55ZM294.98438 32.378124Q294.98438 34.3625 295.82812 35.346874Q296.67188 36.33125 297.8125 36.33125Q298.96875 36.33125 299.76562 35.39375Q300.57812 34.45625 300.57812 32.51875Q300.57812 30.39375 299.75 29.39375Q298.9375 28.39375 297.73438 28.39375Q296.5625 28.39375 295.76562 29.3625Q294.98438 30.315624 294.98438 32.378124ZM304.82812 25.253124L304.82812 23.2375L306.59375 23.2375L306.59375 25.253124L304.82812 25.253124ZM304.82812 37.55L304.82812 27.175L306.59375 27.175L306.59375 37.55L304.82812 37.55ZM315.60938 37.55L315.60938 36.01875Q314.40625 37.784374 312.32812 37.784374Q311.40625 37.784374 310.60938 37.440624Q309.8125 37.08125 309.42188 36.55Q309.04688 36.01875 308.89062 35.2375Q308.78125 34.721874 308.78125 33.596874L308.78125 27.175L310.53125 27.175L310.53125 32.925Q310.53125 34.3 310.64062 34.784374Q310.8125 35.471874 311.34375 35.878124Q311.89062 36.26875 312.67188 36.26875Q313.46875 36.26875 314.15625 35.8625Q314.85938 35.45625 315.14062 34.76875Q315.4375 34.065624 315.4375 32.7375L315.4375 27.175L317.1875 27.175L317.1875 37.55L315.60938 37.55ZM319.8125 37.55L319.8125 27.175L321.39062 27.175L321.39062 28.628124Q321.875 27.878124 322.6875 27.409374Q323.5 26.940624 324.53125 26.940624Q325.6875 26.940624 326.42188 27.425Q327.15625 27.89375 327.46875 28.753124Q328.70312 26.940624 330.67188 26.940624Q332.21875 26.940624 333.04688 27.8Q333.875 28.659374 333.875 30.425L333.875 37.55L332.125 37.55L332.125 31.01875Q332.125 29.95625 331.95312 29.503124Q331.78125 29.034374 331.32812 28.753124Q330.89062 28.471874 330.28125 28.471874Q329.1875 28.471874 328.45312 29.20625Q327.73438 29.925 327.73438 31.51875L327.73438 37.55L325.98438 37.55L325.98438 30.815624Q325.98438 29.64375 325.54688 29.065624Q325.125 28.471874 324.14062 28.471874Q323.40625 28.471874 322.76562 28.8625Q322.14062 29.253124 321.85938 30.003124Q321.57812 30.753124 321.57812 32.175L321.57812 37.55L319.8125 37.55Z" fill-rule="nonzero"/></svg>