<svg version="1.1" viewBox="0.0 0.0 600.0 371.0" fill="none" stroke="none" stroke-linecap="square" stroke-miterlimit="10" width="600" height="371" xmlns:xlink="http://www.w3.org/1999/xlink" xmlns="http://www.w3.org/2000/svg"><path fill="#ffffff" fill-opacity="0.0" d="M0 0L600.0 0L600.0 371.0L0 371.0L0 0Z" fill-rule="nonzero"/><path fill="#304388" d="M300.0 54.916668C317.35385 54.916668 334.5739 57.953026 350.8812 63.888393L312.7203 168.7346C308.64346 167.25076 304.33847 166.49167 300.0 166.49167Z" fill-rule="nonzero"/><path fill="#e5a345" d="M204.37463 89.72146C231.16737 67.23968 265.02457 54.916668 300.0 54.916668L300.0 166.49167C291.25613 166.49167 282.79184 169.57242 276.09366 175.19287Z" fill-rule="nonzero"/><path fill="#df8d43" d="M171.16429 129.3C179.84122 114.27111 191.0808 100.876305 204.37463 89.72146L276.09366 175.19287C272.7702 177.98158 269.9603 181.33028 267.79108 185.0875Z" fill-rule="nonzero"/><path fill="#cf4366" d="M350.8812 63.888393C409.65076 85.27877 448.76666 141.14206 448.76666 203.68333C448.76666 266.2246 409.65076 322.0879 350.8812 343.47827C292.11163 364.86865 226.23888 347.21808 186.03812 299.30872C145.83737 251.3993 139.89366 183.46233 171.16429 129.3L267.79108 185.0875C259.97342 198.62808 261.45935 215.61234 271.50952 227.58968C281.55972 239.56702 298.0279 243.97966 312.7203 238.63206C327.4127 233.28447 337.19168 219.31865 337.19168 203.68333C337.19168 188.04802 327.4127 174.0822 312.7203 168.7346Z" fill-rule="nonzero"/><path fill="#ffffff" d="M312.36746 300.65912L312.36746 299.1435L320.6956 299.1435L320.6956 300.37787Q319.47684 301.69037 318.2581 303.86224Q317.05496 306.0185 316.3987 308.31537Q315.91434 309.94037 315.78934 311.86224L314.16434 311.86224Q314.1956 310.34662 314.7581 308.19037Q315.3362 306.03412 316.3987 304.03412Q317.4612 302.03412 318.66434 300.65912L312.36746 300.65912ZM322.36746 300.65912L322.36746 299.1435L330.6956 299.1435L330.6956 300.37787Q329.47684 301.69037 328.2581 303.86224Q327.05496 306.0185 326.3987 308.31537Q325.91434 309.94037 325.78934 311.86224L324.16434 311.86224Q324.1956 310.34662 324.7581 308.19037Q325.3362 306.03412 326.3987 304.03412Q327.4612 302.03412 328.66434 300.65912L322.36746 300.65912ZM333.1487 311.86224L333.1487 310.06537L334.9456 310.06537L334.9456 311.86224L333.1487 311.86224ZM339.6956 304.87787Q338.7112 304.5185 338.22684 303.84662Q337.7581 303.17474 337.7581 302.25287Q337.7581 300.84662 338.7581 299.8935Q339.7737 298.92474 341.4612 298.92474Q343.1487 298.92474 344.16434 299.90912Q345.1956 300.87787 345.1956 302.28412Q345.1956 303.19037 344.72684 303.86224Q344.2581 304.5185 343.30496 304.87787Q344.49246 305.2685 345.10184 306.12787Q345.72684 306.98724 345.72684 308.17474Q345.72684 309.831 344.55496 310.956Q343.3831 312.081 341.47684 312.081Q339.5706 312.081 338.3987 310.956Q337.24246 309.81537 337.24246 308.12787Q337.24246 306.87787 337.86746 306.03412Q338.5081 305.17474 339.6956 304.87787ZM339.36746 302.19037Q339.36746 303.11224 339.9612 303.69037Q340.55496 304.2685 341.49246 304.2685Q342.3987 304.2685 342.97684 303.69037Q343.5706 303.11224 343.5706 302.28412Q343.5706 301.40912 342.9612 300.81537Q342.36746 300.22162 341.47684 300.22162Q340.5706 300.22162 339.9612 300.79974Q339.36746 301.37787 339.36746 302.19037ZM338.86746 308.1435Q338.86746 308.81537 339.17996 309.456Q339.5081 310.081 340.1331 310.44037Q340.7737 310.78412 341.5081 310.78412Q342.6331 310.78412 343.36746 310.04974Q344.11746 309.31537 344.11746 308.19037Q344.11746 307.04974 343.35184 306.31537Q342.5862 305.56537 341.4456 305.56537Q340.3362 305.56537 339.60184 306.29974Q338.86746 307.03412 338.86746 308.1435ZM347.55496 302.06537Q347.55496 300.69037 348.24246 299.72162Q348.9456 298.75287 350.2581 298.75287Q351.47684 298.75287 352.2737 299.62787Q353.0706 300.48724 353.0706 302.17474Q353.0706 303.79974 352.2581 304.69037Q351.4612 305.56537 350.2737 305.56537Q349.11746 305.56537 348.3362 304.706Q347.55496 303.831 347.55496 302.06537ZM350.30496 299.84662Q349.7112 299.84662 349.3206 300.36224Q348.92996 300.86224 348.92996 302.22162Q348.92996 303.47162 349.3206 303.97162Q349.72684 304.47162 350.30496 304.47162Q350.8987 304.47162 351.28934 303.97162Q351.67996 303.456 351.67996 302.11224Q351.67996 300.86224 351.28934 300.36224Q350.8987 299.84662 350.30496 299.84662ZM350.3206 312.331L357.36746 298.75287L358.6487 298.75287L351.61746 312.331L350.3206 312.331ZM355.8831 308.831Q355.8831 307.456 356.5706 306.48724Q357.2737 305.5185 358.60184 305.5185Q359.8206 305.5185 360.60184 306.3935Q361.3987 307.25287 361.3987 308.94037Q361.3987 310.56537 360.60184 311.456Q359.80496 312.331 358.61746 312.331Q357.4456 312.331 356.66434 311.456Q355.8831 310.581 355.8831 308.831ZM358.6487 306.61224Q358.05496 306.61224 357.66434 307.12787Q357.2737 307.62787 357.2737 309.00287Q357.2737 310.22162 357.66434 310.73724Q358.05496 311.25287 358.6331 311.25287Q359.24246 311.25287 359.6331 310.73724Q360.0237 310.22162 360.0237 308.87787Q360.0237 307.62787 359.6331 307.12787Q359.24246 306.61224 358.6487 306.61224Z" fill-rule="nonzero"/><path fill="#ffffff" d="M244.19502 108.504425L242.6169 108.504425L242.6169 98.4263Q242.03877 98.973175 241.1169 99.52005Q240.19502 100.0513 239.44502 100.33255L239.44502 98.8013Q240.77315 98.1763 241.77315 97.285675Q242.77315 96.39505 243.1794 95.566925L244.19502 95.566925L244.19502 108.504425ZM254.19502 108.504425L252.6169 108.504425L252.6169 98.4263Q252.03877 98.973175 251.1169 99.52005Q250.19502 100.0513 249.44502 100.33255L249.44502 98.8013Q250.77315 98.1763 251.77315 97.285675Q252.77315 96.39505 253.1794 95.566925L254.19502 95.566925L254.19502 108.504425ZM259.1325 108.504425L259.1325 106.70755L260.92938 106.70755L260.92938 108.504425L259.1325 108.504425ZM269.195 108.504425L267.61688 108.504425L267.61688 98.4263Q267.03876 98.973175 266.11688 99.52005Q265.195 100.0513 264.445 100.33255L264.445 98.8013Q265.77313 98.1763 266.77313 97.285675Q267.77313 96.39505 268.17938 95.566925L269.195 95.566925L269.195 108.504425ZM273.53876 98.70755Q273.53876 97.33255 274.22626 96.3638Q274.92938 95.39505 276.24188 95.39505Q277.46063 95.39505 278.2575 96.27005Q279.05438 97.129425 279.05438 98.816925Q279.05438 100.441925 278.24188 101.33255Q277.445 102.20755 276.2575 102.20755Q275.10126 102.20755 274.32 101.348175Q273.53876 100.473175 273.53876 98.70755ZM276.28876 96.4888Q275.695 96.4888 275.30438 97.004425Q274.91376 97.504425 274.91376 98.8638Q274.91376 100.1138 275.30438 100.6138Q275.71063 101.1138 276.28876 101.1138Q276.8825 101.1138 277.27313 100.6138Q277.66376 100.098175 277.66376 98.754425Q277.66376 97.504425 277.27313 97.004425Q276.8825 96.4888 276.28876 96.4888ZM276.30438 108.973175L283.35126 95.39505L284.6325 95.39505L277.60126 108.973175L276.30438 108.973175ZM281.86688 105.473175Q281.86688 104.098175 282.55438 103.129425Q283.2575 102.160675 284.58563 102.160675Q285.80438 102.160675 286.58563 103.035675Q287.3825 103.89505 287.3825 105.58255Q287.3825 107.20755 286.58563 108.098175Q285.78876 108.973175 284.60126 108.973175Q283.42938 108.973175 282.64813 108.098175Q281.86688 107.223175 281.86688 105.473175ZM284.6325 103.254425Q284.03876 103.254425 283.64813 103.77005Q283.2575 104.27005 283.2575 105.64505Q283.2575 106.8638 283.64813 107.379425Q284.03876 107.89505 284.61688 107.89505Q285.22626 107.89505 285.61688 107.379425Q286.0075 106.8638 286.0075 105.52005Q286.0075 104.27005 285.61688 103.77005Q285.22626 103.254425 284.6325 103.254425Z" fill-rule="nonzero"/><path stroke="#ffffff" stroke-width="1.0" stroke-linejoin="round" stroke-linecap="round" d="M312.7203 168.7346C308.64346 167.25076 304.33847 166.49167 300.0 166.49167L300.0 54.916668C317.35385 54.916668 334.5739 57.953026 350.8812 63.888393" fill-rule="nonzero"/><path stroke="#ffffff" stroke-width="1.0" stroke-linejoin="round" stroke-linecap="round" d="M267.79108 185.0875C259.97342 198.62808 261.45935 215.61234 271.50952 227.58968C281.55972 239.56702 298.0279 243.97966 312.7203 238.63206C327.4127 233.28447 337.19168 219.31865 337.19168 203.68333C337.19168 188.04802 327.4127 174.0822 312.7203 168.7346L350.8812 63.888393C409.65076 85.27877 448.76666 141.14206 448.76666 203.68333C448.76666 266.2246 409.65076 322.0879 350.8812 343.47827C292.11163 364.86865 226.23888 347.21808 186.03812 299.30872C145.83737 251.3993 139.89366 183.46233 171.16429 129.3" fill-rule="nonzero"/><path stroke="#ffffff" stroke-width="1.0" stroke-linejoin="round" stroke-linecap="round" d="M276.09366 175.19287C272.7702 177.98158 269.9603 181.33028 267.79108 185.0875L171.16429 129.3C179.84122 114.27111 191.0808 100.876305 204.37463 89.72146" fill-rule="nonzero"/><path stroke="#ffffff" stroke-width="1.0" stroke-linejoin="round" stroke-linecap="round" d="M300.0 166.49167C291.25613 166.49167 282.79184 169.57242 276.09366 175.19287L204.37463 89.72146C231.16737 67.23968 265.02457 54.916668 300.0 54.916668" fill-rule="nonzero"/><path fill="#efefef" d="M27.3 58.46354L28.815624 58.46354L28.815624 65.072914Q28.815624 66.80729 28.425 67.822914Q28.034374 68.83854 27.01875 69.479164Q26.003124 70.11979 24.346874 70.11979Q22.7375 70.11979 21.70625 69.55729Q20.690624 68.99479 20.253124 67.947914Q19.815624 66.90104 19.815624 65.072914L19.815624 58.46354L21.33125 58.46354L21.33125 65.072914Q21.33125 66.55729 21.596874 67.27604Q21.878124 67.979164 22.55 68.36979Q23.2375 68.74479 24.20625 68.74479Q25.878124 68.74479 26.58125 67.99479Q27.3 67.229164 27.3 65.072914L27.3 58.46354ZM31.596874 69.916664L31.596874 61.61979L32.8625 61.61979L32.8625 62.86979Q33.346874 61.99479 33.753124 61.71354Q34.159374 61.43229 34.659374 61.43229Q35.3625 61.43229 36.096874 61.885414L35.6125 63.18229Q35.096874 62.885414 34.58125 62.885414Q34.128124 62.885414 33.753124 63.166664Q33.39375 63.43229 33.2375 63.93229Q33.003124 64.68229 33.003124 65.572914L33.003124 69.916664L31.596874 69.916664ZM37.909374 69.916664L36.596874 69.916664L36.596874 58.46354L38.003124 58.46354L38.003124 62.541664Q38.89375 61.43229 40.284374 61.43229Q41.05 61.43229 41.721874 61.74479Q42.409374 62.041664 42.846874 62.604164Q43.3 63.166664 43.55 63.96354Q43.8 64.74479 43.8 65.635414Q43.8 67.77604 42.7375 68.947914Q41.690624 70.104164 40.20625 70.104164Q38.7375 70.104164 37.909374 68.86979L37.909374 69.916664ZM37.89375 65.697914Q37.89375 67.197914 38.3 67.854164Q38.95625 68.947914 40.096874 68.947914Q41.01875 68.947914 41.690624 68.15104Q42.3625 67.33854 42.3625 65.760414Q42.3625 64.135414 41.70625 63.36979Q41.065624 62.58854 40.159374 62.58854Q39.2375 62.58854 38.565624 63.385414Q37.89375 64.18229 37.89375 65.697914ZM51.01875 68.885414Q50.2375 69.55729 49.51875 69.83854Q48.8 70.104164 47.971874 70.104164Q46.596874 70.104164 45.8625 69.43229Q45.128124 68.760414 45.128124 67.729164Q45.128124 67.11979 45.409374 66.61979Q45.690624 66.104164 46.128124 65.80729Q46.58125 65.49479 47.14375 65.33854Q47.565624 65.229164 48.39375 65.135414Q50.096874 64.93229 50.909374 64.65104Q50.909374 64.354164 50.909374 64.27604Q50.909374 63.416664 50.51875 63.072914Q49.971874 62.58854 48.909374 62.58854Q47.925 62.58854 47.440624 62.947914Q46.971874 63.291664 46.753124 64.166664L45.378124 63.979164Q45.565624 63.104164 45.9875 62.55729Q46.425 62.010414 47.2375 61.729164Q48.05 61.43229 49.1125 61.43229Q50.175 61.43229 50.83125 61.68229Q51.503124 61.93229 51.815624 62.30729Q52.128124 62.68229 52.253124 63.260414Q52.33125 63.61979 52.33125 64.55729L52.33125 66.43229Q52.33125 68.40104 52.409374 68.916664Q52.503124 69.43229 52.76875 69.916664L51.3 69.916664Q51.08125 69.479164 51.01875 68.885414ZM50.909374 65.74479Q50.14375 66.05729 48.6125 66.27604Q47.7375 66.40104 47.378124 66.55729Q47.01875 66.71354 46.815624 67.02604Q46.628124 67.322914 46.628124 67.68229Q46.628124 68.24479 47.05 68.61979Q47.4875 68.99479 48.3 68.99479Q49.1125 68.99479 49.7375 68.65104Q50.378124 68.291664 50.675 67.666664Q50.909374 67.197914 50.909374 66.260414L50.909374 65.74479ZM54.6125 69.916664L54.6125 61.61979L55.878124 61.61979L55.878124 62.791664Q56.784374 61.43229 58.51875 61.43229Q59.26875 61.43229 59.89375 61.697914Q60.51875 61.96354 60.83125 62.40104Q61.14375 62.83854 61.26875 63.447914Q61.346874 63.83854 61.346874 64.80729L61.346874 69.916664L59.940624 69.916664L59.940624 64.86979Q59.940624 64.010414 59.76875 63.58854Q59.6125 63.15104 59.190624 62.90104Q58.784374 62.65104 58.221874 62.65104Q57.315624 62.65104 56.659374 63.229164Q56.01875 63.791664 56.01875 65.385414L56.01875 69.916664L54.6125 69.916664ZM63.05 67.43229L64.44063 67.21354Q64.55 68.05729 65.08125 68.510414Q65.62813 68.947914 66.58125 68.947914Q67.55 68.947914 68.01875 68.55729Q68.4875 68.15104 68.4875 67.61979Q68.4875 67.15104 68.08125 66.86979Q67.78438 66.68229 66.64375 66.40104Q65.09688 66.010414 64.4875 65.729164Q63.89375 65.43229 63.58125 64.93229Q63.284374 64.43229 63.284374 63.822914Q63.284374 63.260414 63.534374 62.791664Q63.784374 62.322914 64.22188 62.010414Q64.55 61.760414 65.1125 61.604164Q65.69063 61.43229 66.33125 61.43229Q67.31563 61.43229 68.05 61.71354Q68.78438 61.99479 69.12813 62.479164Q69.4875 62.947914 69.62813 63.760414L68.25313 63.947914Q68.15938 63.30729 67.70625 62.947914Q67.25313 62.58854 66.44063 62.58854Q65.47188 62.58854 65.05 62.916664Q64.64375 63.229164 64.64375 63.65104Q64.64375 63.93229 64.81563 64.15104Q64.9875 64.36979 65.34688 64.52604Q65.56563 64.604164 66.59688 64.885414Q68.08125 65.27604 68.675 65.541664Q69.26875 65.791664 69.59688 66.27604Q69.94063 66.760414 69.94063 67.479164Q69.94063 68.18229 69.51875 68.80729Q69.1125 69.416664 68.33125 69.760414Q67.56563 70.104164 66.59688 70.104164Q64.97188 70.104164 64.12813 69.43229Q63.284374 68.760414 63.05 67.43229ZM77.01875 66.86979L78.40938 67.05729Q78.175 68.479164 77.2375 69.291664Q76.31563 70.104164 74.95625 70.104164Q73.25313 70.104164 72.20625 68.99479Q71.175 67.86979 71.175 65.791664Q71.175 64.447914 71.6125 63.447914Q72.06563 62.43229 72.97188 61.93229Q73.89375 61.43229 74.95625 61.43229Q76.31563 61.43229 77.175 62.11979Q78.03438 62.791664 78.26875 64.05729L76.90938 64.260414Q76.70625 63.43229 76.20625 63.010414Q75.72188 62.58854 75.01875 62.58854Q73.95625 62.58854 73.28438 63.354164Q72.62813 64.104164 72.62813 65.760414Q72.62813 67.43229 73.26875 68.197914Q73.90938 68.947914 74.94063 68.947914Q75.76875 68.947914 76.31563 68.447914Q76.87813 67.93229 77.01875 66.86979ZM85.01875 68.885414Q84.2375 69.55729 83.51875 69.83854Q82.8 70.104164 81.97188 70.104164Q80.59688 70.104164 79.8625 69.43229Q79.12813 68.760414 79.12813 67.729164Q79.12813 67.11979 79.40938 66.61979Q79.69063 66.104164 80.12813 65.80729Q80.58125 65.49479 81.14375 65.33854Q81.56563 65.229164 82.39375 65.135414Q84.09688 64.93229 84.90938 64.65104Q84.90938 64.354164 84.90938 64.27604Q84.90938 63.416664 84.51875 63.072914Q83.97188 62.58854 82.90938 62.58854Q81.925 62.58854 81.44063 62.947914Q80.97188 63.291664 80.75313 64.166664L79.37813 63.979164Q79.56563 63.104164 79.9875 62.55729Q80.425 62.010414 81.2375 61.729164Q82.05 61.43229 83.1125 61.43229Q84.175 61.43229 84.83125 61.68229Q85.50313 61.93229 85.81563 62.30729Q86.12813 62.68229 86.25313 63.260414Q86.33125 63.61979 86.33125 64.55729L86.33125 66.43229Q86.33125 68.40104 86.40938 68.916664Q86.50313 69.43229 86.76875 69.916664L85.3 69.916664Q85.08125 69.479164 85.01875 68.885414ZM84.90938 65.74479Q84.14375 66.05729 82.6125 66.27604Q81.7375 66.40104 81.37813 66.55729Q81.01875 66.71354 80.81563 67.02604Q80.62813 67.322914 80.62813 67.68229Q80.62813 68.24479 81.05 68.61979Q81.4875 68.99479 82.3 68.99479Q83.1125 68.99479 83.7375 68.65104Q84.37813 68.291664 84.675 67.666664Q84.90938 67.197914 84.90938 66.260414L84.90938 65.74479ZM88.6125 73.104164L88.6125 61.61979L89.89375 61.61979L89.89375 62.697914Q90.34688 62.05729 90.90938 61.74479Q91.4875 61.43229 92.3 61.43229Q93.3625 61.43229 94.175 61.979164Q94.9875 62.52604 95.39375 63.52604Q95.81563 64.510414 95.81563 65.697914Q95.81563 66.979164 95.34688 67.99479Q94.89375 69.010414 94.01875 69.55729Q93.15938 70.104164 92.19063 70.104164Q91.4875 70.104164 90.925 69.80729Q90.37813 69.510414 90.01875 69.05729L90.01875 73.104164L88.6125 73.104164ZM89.87813 65.80729Q89.87813 67.416664 90.51875 68.18229Q91.175 68.947914 92.09688 68.947914Q93.03438 68.947914 93.70625 68.15104Q94.37813 67.354164 94.37813 65.697914Q94.37813 64.104164 93.72188 63.322914Q93.06563 62.52604 92.15938 62.52604Q91.26875 62.52604 90.56563 63.36979Q89.87813 64.21354 89.87813 65.80729ZM103.28438 67.24479L104.7375 67.416664Q104.39375 68.697914 103.45625 69.40104Q102.53438 70.104164 101.09688 70.104164Q99.26875 70.104164 98.20625 68.979164Q97.14375 67.854164 97.14375 65.83854Q97.14375 63.74479 98.22188 62.58854Q99.3 61.43229 101.01875 61.43229Q102.675 61.43229 103.72188 62.572914Q104.78438 63.697914 104.78438 65.74479Q104.78438 65.86979 104.78438 66.11979L98.59688 66.11979Q98.675 67.49479 99.3625 68.229164Q100.06563 68.947914 101.09688 68.947914Q101.87813 68.947914 102.425 68.541664Q102.97188 68.135414 103.28438 67.24479ZM98.675 64.96354L103.3 64.96354Q103.20625 63.916664 102.76875 63.40104Q102.09688 62.58854 101.03438 62.58854Q100.06563 62.58854 99.39375 63.24479Q98.7375 63.885414 98.675 64.96354Z" fill-rule="nonzero"/><path fill="#9e9e9e" d="M24.51875 91.916664L23.1125 91.916664L23.1125 82.947914Q22.596874 83.43229 21.76875 83.916664Q20.95625 84.40104 20.3 84.65104L20.3 83.291664Q21.471874 82.729164 22.346874 81.947914Q23.2375 81.15104 23.6125 80.416664L24.51875 80.416664L24.51875 91.916664ZM33.51875 91.916664L32.1125 91.916664L32.1125 82.947914Q31.596874 83.43229 30.76875 83.916664Q29.95625 84.40104 29.3 84.65104L29.3 83.291664Q30.471874 82.729164 31.346874 81.947914Q32.2375 81.15104 32.6125 80.416664L33.51875 80.416664L33.51875 91.916664ZM38.003124 91.916664L38.003124 90.30729L39.6125 90.30729L39.6125 91.916664L38.003124 91.916664ZM46.51875 91.916664L45.1125 91.916664L45.1125 82.947914Q44.596874 83.43229 43.76875 83.916664Q42.95625 84.40104 42.3 84.65104L42.3 83.291664Q43.471874 82.729164 44.346874 81.947914Q45.2375 81.15104 45.6125 80.416664L46.51875 80.416664L46.51875 91.916664ZM50.4875 83.21354Q50.4875 81.979164 51.096874 81.11979Q51.721874 80.260414 52.89375 80.260414Q53.971874 80.260414 54.675 81.041664Q55.378124 81.80729 55.378124 83.291664Q55.378124 84.74479 54.659374 85.541664Q53.95625 86.322914 52.909374 86.322914Q51.8625 86.322914 51.175 85.55729Q50.4875 84.77604 50.4875 83.21354ZM52.925 81.229164Q52.409374 81.229164 52.05 81.68229Q51.70625 82.135414 51.70625 83.354164Q51.70625 84.447914 52.05 84.90104Q52.409374 85.354164 52.925 85.354164Q53.45625 85.354164 53.8 84.90104Q54.159374 84.447914 54.159374 83.24479Q54.159374 82.135414 53.8 81.68229Q53.45625 81.229164 52.925 81.229164ZM52.940624 92.33854L59.20625 80.260414L60.346874 80.260414L54.096874 92.33854L52.940624 92.33854ZM57.89375 89.229164Q57.89375 87.99479 58.503124 87.135414Q59.128124 86.27604 60.3 86.27604Q61.378124 86.27604 62.08125 87.05729Q62.8 87.822914 62.8 89.30729Q62.8 90.760414 62.08125 91.55729Q61.3625 92.33854 60.315624 92.33854Q59.26875 92.33854 58.58125 91.55729Q57.89375 90.77604 57.89375 89.229164ZM60.346874 87.24479Q59.815624 87.24479 59.45625 87.697914Q59.1125 88.15104 59.1125 89.36979Q59.1125 90.46354 59.45625 90.916664Q59.815624 91.36979 60.33125 91.36979Q60.878124 91.36979 61.221874 90.916664Q61.565624 90.46354 61.565624 89.260414Q61.565624 88.15104 61.20625 87.697914Q60.8625 87.24479 60.346874 87.24479Z" fill-rule="nonzero"/><path stroke="#757575" stroke-width="1.0" stroke-linecap="butt" d="M18.55 75.416664L145.23334 75.416664L251.66286 70.87814" fill-rule="nonzero"/><path fill="#9e9e9e" d="M253.66286 70.87814C253.66286 69.773575 252.76743 68.87814 251.66286 68.87814C250.55829 68.87814 249.66286 69.773575 249.66286 70.87814C249.66286 71.98271 250.55829 72.87814 251.66286 72.87814C252.76743 72.87814 253.66286 71.98271 253.66286 70.87814" fill-rule="nonzero"/><path fill="#efefef" d="M19.76875 110.916664L19.76875 99.46354L21.33125 99.46354L27.346874 108.447914L27.346874 99.46354L28.8 99.46354L28.8 110.916664L27.2375 110.916664L21.221874 101.916664L21.221874 110.916664L19.76875 110.916664ZM37.01875 109.885414Q36.2375 110.55729 35.51875 110.83854Q34.8 111.104164 33.971874 111.104164Q32.596874 111.104164 31.8625 110.43229Q31.128124 109.760414 31.128124 108.729164Q31.128124 108.11979 31.409374 107.61979Q31.690624 107.104164 32.128124 106.80729Q32.58125 106.49479 33.14375 106.33854Q33.565624 106.229164 34.39375 106.135414Q36.096874 105.93229 36.909374 105.65104Q36.909374 105.354164 36.909374 105.27604Q36.909374 104.416664 36.51875 104.072914Q35.971874 103.58854 34.909374 103.58854Q33.925 103.58854 33.440624 103.947914Q32.971874 104.291664 32.753124 105.166664L31.378124 104.979164Q31.565624 104.104164 31.9875 103.55729Q32.425 103.010414 33.2375 102.729164Q34.05 102.43229 35.1125 102.43229Q36.175 102.43229 36.83125 102.68229Q37.503124 102.93229 37.815624 103.30729Q38.128124 103.68229 38.253124 104.260414Q38.33125 104.61979 38.33125 105.55729L38.33125 107.43229Q38.33125 109.40104 38.409374 109.916664Q38.503124 110.43229 38.76875 110.916664L37.3 110.916664Q37.08125 110.479164 37.01875 109.885414ZM36.909374 106.74479Q36.14375 107.05729 34.6125 107.27604Q33.7375 107.40104 33.378124 107.55729Q33.01875 107.71354 32.815624 108.02604Q32.628124 108.322914 32.628124 108.68229Q32.628124 109.24479 33.05 109.61979Q33.4875 109.99479 34.3 109.99479Q35.1125 109.99479 35.7375 109.65104Q36.378124 109.291664 36.675 108.666664Q36.909374 108.197914 36.909374 107.260414L36.909374 106.74479ZM43.675 109.65104L43.878124 110.90104Q43.284374 111.02604 42.815624 111.02604Q42.05 111.02604 41.628124 110.791664Q41.20625 110.541664 41.034374 110.15104Q40.8625 109.74479 40.8625 108.479164L40.8625 103.71354L39.83125 103.71354L39.83125 102.61979L40.8625 102.61979L40.8625 100.55729L42.26875 99.71354L42.26875 102.61979L43.675 102.61979L43.675 103.71354L42.26875 103.71354L42.26875 108.55729Q42.26875 109.166664 42.33125 109.33854Q42.409374 109.510414 42.58125 109.61979Q42.753124 109.71354 43.065624 109.71354Q43.3 109.71354 43.675 109.65104ZM50.05 110.916664L50.05 109.697914Q49.08125 111.104164 47.409374 111.104164Q46.675 111.104164 46.034374 110.822914Q45.409374 110.541664 45.096874 110.11979Q44.784374 109.68229 44.659374 109.072914Q44.58125 108.65104 44.58125 107.760414L44.58125 102.61979L45.9875 102.61979L45.9875 107.21354Q45.9875 108.322914 46.065624 108.697914Q46.20625 109.260414 46.628124 109.572914Q47.065624 109.885414 47.690624 109.885414Q48.33125 109.885414 48.878124 109.572914Q49.440624 109.24479 49.659374 108.68229Q49.89375 108.11979 49.89375 107.05729L49.89375 102.61979L51.3 102.61979L51.3 110.916664L50.05 110.916664ZM53.596874 110.916664L53.596874 102.61979L54.8625 102.61979L54.8625 103.86979Q55.346874 102.99479 55.753124 102.71354Q56.159374 102.43229 56.659374 102.43229Q57.3625 102.43229 58.096874 102.885414L57.6125 104.18229Q57.096874 103.885414 56.58125 103.885414Q56.128124 103.885414 55.753124 104.166664Q55.39375 104.43229 55.2375 104.93229Q55.003124 105.68229 55.003124 106.572914L55.003124 110.916664L53.596874 110.916664ZM64.28438 108.24479L65.7375 108.416664Q65.39375 109.697914 64.45625 110.40104Q63.534374 111.104164 62.096874 111.104164Q60.26875 111.104164 59.20625 109.979164Q58.14375 108.854164 58.14375 106.83854Q58.14375 104.74479 59.221874 103.58854Q60.3 102.43229 62.01875 102.43229Q63.675 102.43229 64.72188 103.572914Q65.78438 104.697914 65.78438 106.74479Q65.78438 106.86979 65.78438 107.11979L59.596874 107.11979Q59.675 108.49479 60.3625 109.229164Q61.065624 109.947914 62.096874 109.947914Q62.878124 109.947914 63.425 109.541664Q63.971874 109.135414 64.28438 108.24479ZM59.675 105.96354L64.3 105.96354Q64.20625 104.916664 63.76875 104.40104Q63.096874 103.58854 62.034374 103.58854Q61.065624 103.58854 60.39375 104.24479Q59.7375 104.885414 59.675 105.96354ZM67.05 108.43229L68.44063 108.21354Q68.55 109.05729 69.08125 109.510414Q69.62813 109.947914 70.58125 109.947914Q71.55 109.947914 72.01875 109.55729Q72.4875 109.15104 72.4875 108.61979Q72.4875 108.15104 72.08125 107.86979Q71.78438 107.68229 70.64375 107.40104Q69.09688 107.010414 68.4875 106.729164Q67.89375 106.43229 67.58125 105.93229Q67.28438 105.43229 67.28438 104.822914Q67.28438 104.260414 67.53438 103.791664Q67.78438 103.322914 68.22188 103.010414Q68.55 102.760414 69.1125 102.604164Q69.69063 102.43229 70.33125 102.43229Q71.31563 102.43229 72.05 102.71354Q72.78438 102.99479 73.12813 103.479164Q73.4875 103.947914 73.62813 104.760414L72.25313 104.947914Q72.15938 104.30729 71.70625 103.947914Q71.25313 103.58854 70.44063 103.58854Q69.47188 103.58854 69.05 103.916664Q68.64375 104.229164 68.64375 104.65104Q68.64375 104.93229 68.81563 105.15104Q68.9875 105.36979 69.34688 105.52604Q69.56563 105.604164 70.59688 105.885414Q72.08125 106.27604 72.675 106.541664Q73.26875 106.791664 73.59688 107.27604Q73.94063 107.760414 73.94063 108.479164Q73.94063 109.18229 73.51875 109.80729Q73.1125 110.416664 72.33125 110.760414Q71.56563 111.104164 70.59688 111.104164Q68.97188 111.104164 68.12813 110.43229Q67.28438 109.760414 67.05 108.43229ZM81.01875 107.86979L82.40938 108.05729Q82.175 109.479164 81.2375 110.291664Q80.31563 111.104164 78.95625 111.104164Q77.25313 111.104164 76.20625 109.99479Q75.175 108.86979 75.175 106.791664Q75.175 105.447914 75.6125 104.447914Q76.06563 103.43229 76.97188 102.93229Q77.89375 102.43229 78.95625 102.43229Q80.31563 102.43229 81.175 103.11979Q82.03438 103.791664 82.26875 105.05729L80.90938 105.260414Q80.70625 104.43229 80.20625 104.010414Q79.72188 103.58854 79.01875 103.58854Q77.95625 103.58854 77.28438 104.354164Q76.62813 105.104164 76.62813 106.760414Q76.62813 108.43229 77.26875 109.197914Q77.90938 109.947914 78.94063 109.947914Q79.76875 109.947914 80.31563 109.447914Q80.87813 108.93229 81.01875 107.86979ZM89.01875 109.885414Q88.2375 110.55729 87.51875 110.83854Q86.8 111.104164 85.97188 111.104164Q84.59688 111.104164 83.8625 110.43229Q83.12813 109.760414 83.12813 108.729164Q83.12813 108.11979 83.40938 107.61979Q83.69063 107.104164 84.12813 106.80729Q84.58125 106.49479 85.14375 106.33854Q85.56563 106.229164 86.39375 106.135414Q88.09688 105.93229 88.90938 105.65104Q88.90938 105.354164 88.90938 105.27604Q88.90938 104.416664 88.51875 104.072914Q87.97188 103.58854 86.90938 103.58854Q85.925 103.58854 85.44063 103.947914Q84.97188 104.291664 84.75313 105.166664L83.37813 104.979164Q83.56563 104.104164 83.9875 103.55729Q84.425 103.010414 85.2375 102.729164Q86.05 102.43229 87.1125 102.43229Q88.175 102.43229 88.83125 102.68229Q89.50313 102.93229 89.81563 103.30729Q90.12813 103.68229 90.25313 104.260414Q90.33125 104.61979 90.33125 105.55729L90.33125 107.43229Q90.33125 109.40104 90.40938 109.916664Q90.50313 110.43229 90.76875 110.916664L89.3 110.916664Q89.08125 110.479164 89.01875 109.885414ZM88.90938 106.74479Q88.14375 107.05729 86.6125 107.27604Q85.7375 107.40104 85.37813 107.55729Q85.01875 107.71354 84.81563 108.02604Q84.62813 108.322914 84.62813 108.68229Q84.62813 109.24479 85.05 109.61979Q85.4875 109.99479 86.3 109.99479Q87.1125 109.99479 87.7375 109.65104Q88.37813 109.291664 88.675 108.666664Q88.90938 108.197914 88.90938 107.260414L88.90938 106.74479ZM92.6125 114.104164L92.6125 102.61979L93.89375 102.61979L93.89375 103.697914Q94.34688 103.05729 94.90938 102.74479Q95.4875 102.43229 96.3 102.43229Q97.3625 102.43229 98.175 102.979164Q98.9875 103.52604 99.39375 104.52604Q99.81563 105.510414 99.81563 106.697914Q99.81563 107.979164 99.34688 108.99479Q98.89375 110.010414 98.01875 110.55729Q97.15938 111.104164 96.19063 111.104164Q95.4875 111.104164 94.925 110.80729Q94.37813 110.510414 94.01875 110.05729L94.01875 114.104164L92.6125 114.104164ZM93.87813 106.80729Q93.87813 108.416664 94.51875 109.18229Q95.175 109.947914 96.09688 109.947914Q97.03438 109.947914 97.70625 109.15104Q98.37813 108.354164 98.37813 106.697914Q98.37813 105.104164 97.72188 104.322914Q97.06563 103.52604 96.15938 103.52604Q95.26875 103.52604 94.56563 104.36979Q93.87813 105.21354 93.87813 106.80729ZM107.28438 108.24479L108.7375 108.416664Q108.39375 109.697914 107.45625 110.40104Q106.53438 111.104164 105.09688 111.104164Q103.26875 111.104164 102.20625 109.979164Q101.14375 108.854164 101.14375 106.83854Q101.14375 104.74479 102.22188 103.58854Q103.3 102.43229 105.01875 102.43229Q106.675 102.43229 107.72188 103.572914Q108.78438 104.697914 108.78438 106.74479Q108.78438 106.86979 108.78438 107.11979L102.59688 107.11979Q102.675 108.49479 103.3625 109.229164Q104.06563 109.947914 105.09688 109.947914Q105.87813 109.947914 106.425 109.541664Q106.97188 109.135414 107.28438 108.24479ZM102.675 105.96354L107.3 105.96354Q107.20625 104.916664 106.76875 104.40104Q106.09688 103.58854 105.03438 103.58854Q104.06563 103.58854 103.39375 104.24479Q102.7375 104.885414 102.675 105.96354Z" fill-rule="nonzero"/><path fill="#9e9e9e" d="M19.221874 129.91667L20.690624 129.79167Q20.8625 130.8698 21.45625 131.41667Q22.05 131.94792 22.89375 131.94792Q23.909374 131.94792 24.6125 131.1823Q25.315624 130.41667 25.315624 129.15105Q25.315624 127.94792 24.64375 127.26042Q23.971874 126.5573 22.878124 126.5573Q22.190624 126.5573 21.64375 126.8698Q21.096874 127.1823 20.784374 127.66667L19.471874 127.4948L20.58125 121.6198L26.26875 121.6198L26.26875 122.96355L21.70625 122.96355L21.08125 126.04167Q22.1125 125.32292 23.253124 125.32292Q24.753124 125.32292 25.784374 126.3698Q26.815624 127.40105 26.815624 129.02605Q26.815624 130.58855 25.909374 131.71355Q24.8 133.1198 22.89375 133.1198Q21.33125 133.1198 20.346874 132.2448Q19.3625 131.35417 19.221874 129.91667ZM29.003124 132.91667L29.003124 131.3073L30.6125 131.3073L30.6125 132.91667L29.003124 132.91667ZM39.51875 124.26042L38.1125 124.3698Q37.925 123.54167 37.58125 123.16667Q37.01875 122.57292 36.175 122.57292Q35.503124 122.57292 35.003124 122.94792Q34.33125 123.4323 33.940624 124.3698Q33.565624 125.29167 33.55 127.01042Q34.065624 126.22917 34.8 125.85417Q35.534374 125.47917 36.33125 125.47917Q37.7375 125.47917 38.721874 126.52605Q39.721874 127.5573 39.721874 129.19792Q39.721874 130.27605 39.253124 131.19792Q38.784374 132.1198 37.971874 132.6198Q37.159374 133.1198 36.128124 133.1198Q34.378124 133.1198 33.26875 131.82292Q32.159374 130.52605 32.159374 127.5573Q32.159374 124.22917 33.378124 122.72917Q34.45625 121.41667 36.26875 121.41667Q37.6125 121.41667 38.471874 122.1823Q39.346874 122.9323 39.51875 124.26042ZM33.76875 129.19792Q33.76875 129.9323 34.08125 130.60417Q34.39375 131.26042 34.940624 131.60417Q35.503124 131.94792 36.1125 131.94792Q37.003124 131.94792 37.64375 131.22917Q38.284374 130.51042 38.284374 129.27605Q38.284374 128.08855 37.64375 127.41667Q37.01875 126.72917 36.05 126.72917Q35.096874 126.72917 34.425 127.41667Q33.76875 128.08855 33.76875 129.19792ZM41.4875 124.21355Q41.4875 122.97917 42.096874 122.1198Q42.721874 121.26042 43.89375 121.26042Q44.971874 121.26042 45.675 122.04167Q46.378124 122.8073 46.378124 124.29167Q46.378124 125.7448 45.659374 126.54167Q44.95625 127.32292 43.909374 127.32292Q42.8625 127.32292 42.175 126.5573Q41.4875 125.77605 41.4875 124.21355ZM43.925 122.22917Q43.409374 122.22917 43.05 122.6823Q42.70625 123.13542 42.70625 124.35417Q42.70625 125.44792 43.05 125.90105Q43.409374 126.35417 43.925 126.35417Q44.45625 126.35417 44.8 125.90105Q45.159374 125.44792 45.159374 124.2448Q45.159374 123.13542 44.8 122.6823Q44.45625 122.22917 43.925 122.22917ZM43.940624 133.33855L50.20625 121.26042L51.346874 121.26042L45.096874 133.33855L43.940624 133.33855ZM48.89375 130.22917Q48.89375 128.9948 49.503124 128.13542Q50.128124 127.27605 51.3 127.27605Q52.378124 127.27605 53.08125 128.0573Q53.8 128.82292 53.8 130.3073Q53.8 131.76042 53.08125 132.5573Q52.3625 133.33855 51.315624 133.33855Q50.26875 133.33855 49.58125 132.5573Q48.89375 131.77605 48.89375 130.22917ZM51.346874 128.2448Q50.815624 128.2448 50.45625 128.69792Q50.1125 129.15105 50.1125 130.3698Q50.1125 131.46355 50.45625 131.91667Q50.815624 132.3698 51.33125 132.3698Q51.878124 132.3698 52.221874 131.91667Q52.565624 131.46355 52.565624 130.26042Q52.565624 129.15105 52.20625 128.69792Q51.8625 128.2448 51.346874 128.2448Z" fill-rule="nonzero"/><path stroke="#757575" stroke-width="1.0" stroke-linecap="butt" d="M18.55 116.416664L145.23334 116.416664L191.73622 112.83923" fill-rule="nonzero"/><path fill="#9e9e9e" d="M193.73622 112.83923C193.73622 111.734665 192.84079 110.83923 191.73622 110.83923C190.63165 110.83923 189.73622 111.734665 189.73622 112.83923C189.73622 113.9438 190.63165 114.83923 191.73622 114.83923C192.84079 114.83923 193.73622 113.9438 193.73622 112.83923" fill-rule="nonzero"/><path fill="#efefef" d="M551.6375 69.916664L551.6375 58.46354L553.91876 58.46354L556.6375 66.572914Q557.0125 67.697914 557.1844 68.260414Q557.3719 67.635414 557.79376 66.43229L560.52814 58.46354L562.575 58.46354L562.575 69.916664L561.10626 69.916664L561.10626 60.322914L557.77814 69.916664L556.41876 69.916664L553.10626 60.166664L553.10626 69.916664L551.6375 69.916664ZM569.91876 68.885414Q569.1375 69.55729 568.41876 69.83854Q567.7 70.104164 566.8719 70.104164Q565.4969 70.104164 564.7625 69.43229Q564.02814 68.760414 564.02814 67.729164Q564.02814 67.11979 564.3094 66.61979Q564.59064 66.104164 565.02814 65.80729Q565.48126 65.49479 566.04376 65.33854Q566.46564 65.229164 567.29376 65.135414Q568.9969 64.93229 569.8094 64.65104Q569.8094 64.354164 569.8094 64.27604Q569.8094 63.416664 569.41876 63.072914Q568.8719 62.58854 567.8094 62.58854Q566.825 62.58854 566.34064 62.947914Q565.8719 63.291664 565.65314 64.166664L564.27814 63.979164Q564.46564 63.104164 564.8875 62.55729Q565.325 62.010414 566.1375 61.729164Q566.95 61.43229 568.0125 61.43229Q569.075 61.43229 569.73126 61.68229Q570.40314 61.93229 570.71564 62.30729Q571.02814 62.68229 571.15314 63.260414Q571.23126 63.61979 571.23126 64.55729L571.23126 66.43229Q571.23126 68.40104 571.3094 68.916664Q571.40314 69.43229 571.66876 69.916664L570.2 69.916664Q569.98126 69.479164 569.91876 68.885414ZM569.8094 65.74479Q569.04376 66.05729 567.5125 66.27604Q566.6375 66.40104 566.27814 66.55729Q565.91876 66.71354 565.71564 67.02604Q565.52814 67.322914 565.52814 67.68229Q565.52814 68.24479 565.95 68.61979Q566.3875 68.99479 567.2 68.99479Q568.0125 68.99479 568.6375 68.65104Q569.27814 68.291664 569.575 67.666664Q569.8094 67.197914 569.8094 66.260414L569.8094 65.74479ZM573.5125 73.104164L573.5125 61.61979L574.79376 61.61979L574.79376 62.697914Q575.2469 62.05729 575.8094 61.74479Q576.3875 61.43229 577.2 61.43229Q578.2625 61.43229 579.075 61.979164Q579.8875 62.52604 580.29376 63.52604Q580.71564 64.510414 580.71564 65.697914Q580.71564 66.979164 580.2469 67.99479Q579.79376 69.010414 578.91876 69.55729Q578.0594 70.104164 577.09064 70.104164Q576.3875 70.104164 575.825 69.80729Q575.27814 69.510414 574.91876 69.05729L574.91876 73.104164L573.5125 73.104164ZM574.77814 65.80729Q574.77814 67.416664 575.41876 68.18229Q576.075 68.947914 576.9969 68.947914Q577.9344 68.947914 578.60626 68.15104Q579.27814 67.354164 579.27814 65.697914Q579.27814 64.104164 578.6219 63.322914Q577.96564 62.52604 577.0594 62.52604Q576.16876 62.52604 575.46564 63.36979Q574.77814 64.21354 574.77814 65.80729Z" fill-rule="nonzero"/><path fill="#9e9e9e" d="M546.1219 88.916664L547.59064 88.791664Q547.7625 89.86979 548.35626 90.416664Q548.95 90.947914 549.79376 90.947914Q550.8094 90.947914 551.5125 90.18229Q552.21564 89.416664 552.21564 88.15104Q552.21564 86.947914 551.54376 86.260414Q550.8719 85.55729 549.77814 85.55729Q549.09064 85.55729 548.54376 85.86979Q547.9969 86.18229 547.6844 86.666664L546.3719 86.49479L547.48126 80.61979L553.16876 80.61979L553.16876 81.96354L548.60626 81.96354L547.98126 85.041664Q549.0125 84.322914 550.15314 84.322914Q551.65314 84.322914 552.6844 85.36979Q553.71564 86.40104 553.71564 88.02604Q553.71564 89.58854 552.8094 90.71354Q551.7 92.11979 549.79376 92.11979Q548.23126 92.11979 547.2469 91.24479Q546.2625 90.354164 546.1219 88.916664ZM555.90314 91.916664L555.90314 90.30729L557.5125 90.30729L557.5125 91.916664L555.90314 91.916664ZM566.41876 83.260414L565.0125 83.36979Q564.825 82.541664 564.48126 82.166664Q563.91876 81.572914 563.075 81.572914Q562.40314 81.572914 561.90314 81.947914Q561.23126 82.43229 560.84064 83.36979Q560.46564 84.291664 560.45 86.010414Q560.96564 85.229164 561.7 84.854164Q562.4344 84.479164 563.23126 84.479164Q564.6375 84.479164 565.6219 85.52604Q566.6219 86.55729 566.6219 88.197914Q566.6219 89.27604 566.15314 90.197914Q565.6844 91.11979 564.8719 91.61979Q564.0594 92.11979 563.02814 92.11979Q561.27814 92.11979 560.16876 90.822914Q559.0594 89.52604 559.0594 86.55729Q559.0594 83.229164 560.27814 81.729164Q561.35626 80.416664 563.16876 80.416664Q564.5125 80.416664 565.3719 81.18229Q566.2469 81.93229 566.41876 83.260414ZM560.66876 88.197914Q560.66876 88.93229 560.98126 89.604164Q561.29376 90.260414 561.84064 90.604164Q562.40314 90.947914 563.0125 90.947914Q563.90314 90.947914 564.54376 90.229164Q565.1844 89.510414 565.1844 88.27604Q565.1844 87.08854 564.54376 86.416664Q563.91876 85.729164 562.95 85.729164Q561.9969 85.729164 561.325 86.416664Q560.66876 87.08854 560.66876 88.197914ZM568.3875 83.21354Q568.3875 81.979164 568.9969 81.11979Q569.6219 80.260414 570.79376 80.260414Q571.8719 80.260414 572.575 81.041664Q573.27814 81.80729 573.27814 83.291664Q573.27814 84.74479 572.5594 85.541664Q571.85626 86.322914 570.8094 86.322914Q569.7625 86.322914 569.075 85.55729Q568.3875 84.77604 568.3875 83.21354ZM570.825 81.229164Q570.3094 81.229164 569.95 81.68229Q569.60626 82.135414 569.60626 83.354164Q569.60626 84.447914 569.95 84.90104Q570.3094 85.354164 570.825 85.354164Q571.35626 85.354164 571.7 84.90104Q572.0594 84.447914 572.0594 83.24479Q572.0594 82.135414 571.7 81.68229Q571.35626 81.229164 570.825 81.229164ZM570.84064 92.33854L577.10626 80.260414L578.2469 80.260414L571.9969 92.33854L570.84064 92.33854ZM575.79376 89.229164Q575.79376 87.99479 576.40314 87.135414Q577.02814 86.27604 578.2 86.27604Q579.27814 86.27604 579.98126 87.05729Q580.7 87.822914 580.7 89.30729Q580.7 90.760414 579.98126 91.55729Q579.2625 92.33854 578.21564 92.33854Q577.16876 92.33854 576.48126 91.55729Q575.79376 90.77604 575.79376 89.229164ZM578.2469 87.24479Q577.71564 87.24479 577.35626 87.697914Q577.0125 88.15104 577.0125 89.36979Q577.0125 90.46354 577.35626 90.916664Q577.71564 91.36979 578.23126 91.36979Q578.77814 91.36979 579.1219 90.916664Q579.46564 90.46354 579.46564 89.260414Q579.46564 88.15104 579.10626 87.697914Q578.7625 87.24479 578.2469 87.24479Z" fill-rule="nonzero"/><path stroke="#757575" stroke-width="1.0" stroke-linecap="butt" d="M581.45 75.416664L454.76666 75.416664L324.5414 64.5021" fill-rule="nonzero"/><path fill="#9e9e9e" d="M326.5414 64.5021C326.5414 63.397526 325.64597 62.502094 324.5414 62.502094C323.43683 62.502094 322.5414 63.397526 322.5414 64.5021C322.5414 65.60667 323.43683 66.5021 324.5414 66.5021C325.64597 66.5021 326.5414 65.60667 326.5414 64.5021" fill-rule="nonzero"/><path fill="#efefef" d="M531.6844 326.45L531.6844 314.9969L536.0125 314.9969Q537.15314 314.9969 537.7469 315.10626Q538.59064 315.2469 539.15314 315.6375Q539.73126 316.02814 540.075 316.7469Q540.4344 317.45 540.4344 318.3094Q540.4344 319.7625 539.4969 320.77814Q538.575 321.79376 536.1375 321.79376L533.2 321.79376L533.2 326.45L531.6844 326.45ZM533.2 320.4344L536.16876 320.4344Q537.6375 320.4344 538.2469 319.8875Q538.8719 319.34064 538.8719 318.35626Q538.8719 317.6375 538.4969 317.1219Q538.1375 316.60626 537.54376 316.45Q537.16876 316.34064 536.1375 316.34064L533.2 316.34064L533.2 320.4344ZM548.1844 323.77814L549.6375 323.95Q549.29376 325.23126 548.35626 325.9344Q547.4344 326.6375 545.9969 326.6375Q544.16876 326.6375 543.10626 325.5125Q542.04376 324.3875 542.04376 322.3719Q542.04376 320.27814 543.1219 319.1219Q544.2 317.96564 545.91876 317.96564Q547.575 317.96564 548.6219 319.10626Q549.6844 320.23126 549.6844 322.27814Q549.6844 322.40314 549.6844 322.65314L543.4969 322.65314Q543.575 324.02814 544.2625 324.7625Q544.96564 325.48126 545.9969 325.48126Q546.77814 325.48126 547.325 325.075Q547.8719 324.66876 548.1844 323.77814ZM543.575 321.4969L548.2 321.4969Q548.10626 320.45 547.66876 319.9344Q546.9969 319.1219 545.9344 319.1219Q544.96564 319.1219 544.29376 319.77814Q543.6375 320.41876 543.575 321.4969ZM550.98126 322.29376Q550.98126 319.9969 552.2625 318.8875Q553.34064 317.96564 554.8719 317.96564Q556.59064 317.96564 557.66876 319.09064Q558.7625 320.2 558.7625 322.1844Q558.7625 323.77814 558.27814 324.7Q557.79376 325.6219 556.8719 326.1375Q555.96564 326.6375 554.8719 326.6375Q553.1375 326.6375 552.0594 325.52814Q550.98126 324.40314 550.98126 322.29376ZM552.4344 322.29376Q552.4344 323.8875 553.1219 324.6844Q553.825 325.48126 554.8719 325.48126Q555.91876 325.48126 556.60626 324.6844Q557.3094 323.8875 557.3094 322.2469Q557.3094 320.71564 556.60626 319.91876Q555.91876 319.1219 554.8719 319.1219Q553.825 319.1219 553.1219 319.91876Q552.4344 320.7 552.4344 322.29376ZM560.5125 329.6375L560.5125 318.15314L561.79376 318.15314L561.79376 319.23126Q562.2469 318.59064 562.8094 318.27814Q563.3875 317.96564 564.2 317.96564Q565.2625 317.96564 566.075 318.5125Q566.8875 319.0594 567.29376 320.0594Q567.71564 321.04376 567.71564 322.23126Q567.71564 323.5125 567.2469 324.52814Q566.79376 325.54376 565.91876 326.09064Q565.0594 326.6375 564.09064 326.6375Q563.3875 326.6375 562.825 326.34064Q562.27814 326.04376 561.91876 325.59064L561.91876 329.6375L560.5125 329.6375ZM561.77814 322.34064Q561.77814 323.95 562.41876 324.71564Q563.075 325.48126 563.9969 325.48126Q564.9344 325.48126 565.60626 324.6844Q566.27814 323.8875 566.27814 322.23126Q566.27814 320.6375 565.6219 319.85626Q564.96564 319.0594 564.0594 319.0594Q563.16876 319.0594 562.46564 319.90314Q561.77814 320.7469 561.77814 322.34064ZM569.48126 326.45L569.48126 314.9969L570.8875 314.9969L570.8875 326.45L569.48126 326.45ZM579.1844 323.77814L580.6375 323.95Q580.29376 325.23126 579.35626 325.9344Q578.4344 326.6375 576.9969 326.6375Q575.16876 326.6375 574.10626 325.5125Q573.04376 324.3875 573.04376 322.3719Q573.04376 320.27814 574.1219 319.1219Q575.2 317.96564 576.91876 317.96564Q578.575 317.96564 579.6219 319.10626Q580.6844 320.23126 580.6844 322.27814Q580.6844 322.40314 580.6844 322.65314L574.4969 322.65314Q574.575 324.02814 575.2625 324.7625Q575.96564 325.48126 576.9969 325.48126Q577.77814 325.48126 578.325 325.075Q578.8719 324.66876 579.1844 323.77814ZM574.575 321.4969L579.2 321.4969Q579.10626 320.45 578.66876 319.9344Q577.9969 319.1219 576.9344 319.1219Q575.96564 319.1219 575.29376 319.77814Q574.6375 320.41876 574.575 321.4969Z" fill-rule="nonzero"/><path fill="#9e9e9e" d="M537.21564 338.4969L537.21564 337.1375L544.6219 337.1375L544.6219 338.23126Q543.52814 339.40314 542.45 341.34064Q541.3875 343.2625 540.79376 345.29376Q540.3719 346.73126 540.2625 348.45L538.8094 348.45Q538.84064 347.09064 539.34064 345.1844Q539.85626 343.2625 540.79376 341.4969Q541.7469 339.71564 542.825 338.4969L537.21564 338.4969ZM546.21564 338.4969L546.21564 337.1375L553.6219 337.1375L553.6219 338.23126Q552.52814 339.40314 551.45 341.34064Q550.3875 343.2625 549.79376 345.29376Q549.3719 346.73126 549.2625 348.45L547.8094 348.45Q547.84064 347.09064 548.34064 345.1844Q548.85626 343.2625 549.79376 341.4969Q550.7469 339.71564 551.825 338.4969L546.21564 338.4969ZM555.90314 348.45L555.90314 346.84064L557.5125 346.84064L557.5125 348.45L555.90314 348.45ZM561.27814 342.23126Q560.40314 341.91876 559.98126 341.325Q559.5594 340.73126 559.5594 339.90314Q559.5594 338.65314 560.45 337.8094Q561.35626 336.95 562.85626 336.95Q564.35626 336.95 565.2625 337.825Q566.1844 338.6844 566.1844 339.9344Q566.1844 340.73126 565.7625 341.325Q565.34064 341.91876 564.4969 342.23126Q565.54376 342.575 566.09064 343.34064Q566.65314 344.10626 566.65314 345.16876Q566.65314 346.6375 565.60626 347.65314Q564.575 348.65314 562.8719 348.65314Q561.1844 348.65314 560.1375 347.65314Q559.10626 346.6375 559.10626 345.1375Q559.10626 344.0125 559.66876 343.2625Q560.23126 342.5125 561.27814 342.23126ZM560.9969 339.85626Q560.9969 340.66876 561.5125 341.1844Q562.04376 341.7 562.8875 341.7Q563.7 341.7 564.21564 341.1844Q564.73126 340.66876 564.73126 339.9344Q564.73126 339.15314 564.2 338.6375Q563.66876 338.10626 562.8719 338.10626Q562.0594 338.10626 561.52814 338.6219Q560.9969 339.1375 560.9969 339.85626ZM560.54376 345.1375Q560.54376 345.7469 560.825 346.3094Q561.1219 346.8719 561.6844 347.1844Q562.2469 347.48126 562.8875 347.48126Q563.90314 347.48126 564.5594 346.84064Q565.21564 346.1844 565.21564 345.1844Q565.21564 344.16876 564.52814 343.5125Q563.85626 342.84064 562.84064 342.84064Q561.85626 342.84064 561.2 343.4969Q560.54376 344.15314 560.54376 345.1375ZM568.3875 339.7469Q568.3875 338.5125 568.9969 337.65314Q569.6219 336.79376 570.79376 336.79376Q571.8719 336.79376 572.575 337.575Q573.27814 338.34064 573.27814 339.825Q573.27814 341.27814 572.5594 342.075Q571.85626 342.85626 570.8094 342.85626Q569.7625 342.85626 569.075 342.09064Q568.3875 341.3094 568.3875 339.7469ZM570.825 337.7625Q570.3094 337.7625 569.95 338.21564Q569.60626 338.66876 569.60626 339.8875Q569.60626 340.98126 569.95 341.4344Q570.3094 341.8875 570.825 341.8875Q571.35626 341.8875 571.7 341.4344Q572.0594 340.98126 572.0594 339.77814Q572.0594 338.66876 571.7 338.21564Q571.35626 337.7625 570.825 337.7625ZM570.84064 348.8719L577.10626 336.79376L578.2469 336.79376L571.9969 348.8719L570.84064 348.8719ZM575.79376 345.7625Q575.79376 344.52814 576.40314 343.66876Q577.02814 342.8094 578.2 342.8094Q579.27814 342.8094 579.98126 343.59064Q580.7 344.35626 580.7 345.84064Q580.7 347.29376 579.98126 348.09064Q579.2625 348.8719 578.21564 348.8719Q577.16876 348.8719 576.48126 348.09064Q575.79376 347.3094 575.79376 345.7625ZM578.2469 343.77814Q577.71564 343.77814 577.35626 344.23126Q577.0125 344.6844 577.0125 345.90314Q577.0125 346.9969 577.35626 347.45Q577.71564 347.90314 578.23126 347.90314Q578.77814 347.90314 579.1219 347.45Q579.46564 346.9969 579.46564 345.79376Q579.46564 344.6844 579.10626 344.23126Q578.7625 343.77814 578.2469 343.77814Z" fill-rule="nonzero"/><path stroke="#757575" stroke-width="1.0" stroke-linecap="butt" d="M581.45 331.95L454.76666 331.95L348.33713 336.48853" fill-rule="nonzero"/><path fill="#9e9e9e" d="M350.33713 336.48853C350.33713 335.38394 349.4417 334.48853 348.33713 334.48853C347.23257 334.48853 346.33713 335.38394 346.33713 336.48853C346.33713 337.5931 347.23257 338.48853 348.33713 338.48853C349.4417 338.48853 350.33713 337.5931 350.33713 336.48853" fill-rule="nonzero"/><path fill="#f3f3f3" d="M265.98438 37.55L265.98438 23.2375L268.84375 23.2375L272.21875 33.3625Q272.6875 34.784374 272.90625 35.4875Q273.15625 34.70625 273.67188 33.190624L277.09375 23.2375L279.64062 23.2375L279.64062 37.55L277.82812 37.55L277.82812 25.565624L273.65625 37.55L271.95312 37.55L267.8125 25.3625L267.8125 37.55L265.98438 37.55ZM289.92188 34.20625L291.73438 34.440624Q291.3125 36.01875 290.14062 36.909374Q288.98438 37.784374 287.17188 37.784374Q284.90625 37.784374 283.5625 36.39375Q282.23438 34.9875 282.23438 32.45625Q282.23438 29.83125 283.57812 28.39375Q284.92188 26.940624 287.07812 26.940624Q289.15625 26.940624 290.46875 28.3625Q291.79688 29.76875 291.79688 32.346874Q291.79688 32.503124 291.78125 32.815624L284.04688 32.815624Q284.14062 34.51875 285.01562 35.425Q285.89062 36.33125 287.1875 36.33125Q288.15625 36.33125 288.82812 35.83125Q289.51562 35.315624 289.92188 34.20625ZM284.14062 31.3625L289.9375 31.3625Q289.82812 30.065624 289.28125 29.409374Q288.4375 28.39375 287.09375 28.39375Q285.89062 28.39375 285.0625 29.20625Q284.23438 30.003124 284.14062 31.3625ZM300.54688 37.55L300.54688 36.2375Q299.5625 37.784374 297.64062 37.784374Q296.40625 37.784374 295.35938 37.096874Q294.32812 36.409374 293.75 35.190624Q293.1875 33.971874 293.1875 32.378124Q293.1875 30.815624 293.70312 29.55Q294.21875 28.284374 295.25 27.6125Q296.29688 26.940624 297.5625 26.940624Q298.5 26.940624 299.23438 27.346874Q299.96875 27.7375 300.4375 28.3625L300.4375 23.2375L302.17188 23.2375L302.17188 37.55L300.54688 37.55ZM294.98438 32.378124Q294.98438 34.3625 295.82812 35.346874Q296.67188 36.33125 297.8125 36.33125Q298.96875 36.33125 299.76562 35.39375Q300.57812 34.45625 300.57812 32.51875Q300.57812 30.39375 299.75 29.39375Q298.9375 28.39375 297.73438 28.39375Q296.5625 28.39375 295.76562 29.3625Q294.98438 30.315624 294.98438 32.378124ZM304.82812 25.253124L304.82812 23.2375L306.59375 23.2375L306.59375 25.253124L304.82812 25.253124ZM304.82812 37.55L304.82812 27.175L306.59375 27.175L306.59375 37.55L304.82812 37.55ZM315.60938 37.55L315.60938 36.01875Q314.40625 37.784374 312.32812 37.784374Q311.40625 37.784374 310.60938 37.440624Q309.8125 37.08125 309.42188 36.55Q309.04688 36.01875 308.89062 35.2375Q308.78125 34.721874 308.78125 33.596874L308.78125 27.175L310.53125 27.175L310.53125 32.925Q310.53125 34.3 310.64062 34.784374Q310.8125 35.471874 311.34375 35.878124Q311.89062 36.26875 312.67188 36.26875Q313.46875 36.26875 314.15625 35.8625Q314.85938 35.45625 315.14062 34.76875Q315.4375 34.065624 315.4375 32.7375L315.4375 27.175L317.1875 27.175L317.1875 37.55L315.60938 37.55ZM319.8125 37.55L319.8125 27.175L321.39062 27.175L321.39062 28.628124Q321.875 27.878124 322.6875 27.409374Q323.5 26.940624 324.53125 26.940624Q325.6875 26.940624 326.42188 27.425Q327.15625 27.89375 327.46875 28.753124Q328.70312 26.940624 330.67188 26.940624Q332.21875 26.940624 333.04688 27.8Q333.875 28.659374 333.875 30.425L333.875 37.55L332.125 37.55L332.125 31.01875Q332.125 29.95625 331.95312 29.503124Q331.78125 29.034374 331.32812 28.753124Q330.89062 28.471874 330.28125 28.471874Q329.1875 28.471874 328.45312 29.20625Q327.73438 29.925 327.73438 31.51875L327.73438 37.55L325.98438 37.55L325.98438 30.815624Q325.98438 29.64375 325.54688 29.065624Q325.125 28.471874 324.14062 28.471874Q323.40625 28.471874 322.76562 28.8625Q322.14062 29.253124 321.85938 30.003124Q321.57812 30.753124 321.57812 32.175L321.57812 37.55L319.8125 37.55Z" fill-rule="nonzero"/></svg>