<svg version="1.1" viewBox="0.0 0.0 600.0 371.0" fill="none" stroke="none" stroke-linecap="square" stroke-miterlimit="10" width="600" height="371" xmlns:xlink="http://www.w3.org/1999/xlink" xmlns="http://www.w3.org/2000/svg"><path fill="#ffffff" fill-opacity="0.0" d="M0 0L600.0 0L600.0 371.0L0 371.0L0 0Z" fill-rule="nonzero"/><path fill="#f7d750" d="M300.0 54.916668C378.22128 54.916668 443.08185 115.49221 448.41986 193.53114C453.75787 271.57007 397.7498 340.41324 320.25705 351.0644L310.12854 277.37387C348.87488 272.04828 376.87894 237.6267 374.20993 198.60724C371.54092 159.58777 339.11063 129.3 300.0 129.3Z" fill-rule="nonzero"/><path fill="#e5a345" d="M259.86322 60.43334C272.92798 56.772766 286.4321 54.916668 300.0 54.916668L300.0 129.3C293.21606 129.3 286.464 130.22804 279.9316 132.05833Z" fill-rule="nonzero"/><path fill="#d8753e" d="M222.70323 76.5742C234.2959 69.52455 246.79848 64.09391 259.86322 60.43334L279.9316 132.05833C273.39923 133.88863 267.14795 136.60394 261.35162 140.12877Z" fill-rule="nonzero"/><path fill="#8c4595" d="M151.58014 213.83553C147.78746 158.38847 175.21748 105.45093 222.70323 76.5742L261.35162 140.12877C237.60875 154.56712 223.89372 181.0359 225.79007 208.75943Z" fill-rule="nonzero"/><path fill="#78a94e" d="M240.7312 340.1338C189.75569 317.992 155.37282 269.2826 151.58014 213.83553L225.79007 208.75943C227.68642 236.48296 244.87785 260.83768 270.3656 271.90857Z" fill-rule="nonzero"/><path fill="#f5ee58" d="M320.25705 351.0644C293.24765 354.77673 265.73746 350.99554 240.7312 340.1338L270.3656 271.90857C282.8687 277.33945 296.6238 279.23004 310.12854 277.37387Z" fill-rule="nonzero"/><path fill="#ffffff" d="M391.62738 202.56918L391.62738 199.49106L386.04926 199.49106L386.04926 198.03793L391.92426 189.67856L393.22113 189.67856L393.22113 198.03793L394.9555 198.03793L394.9555 199.49106L393.22113 199.49106L393.22113 202.56918L391.62738 202.56918ZM391.62738 198.03793L391.62738 192.22543L387.59613 198.03793L391.62738 198.03793ZM396.67426 191.36606L396.67426 189.85043L405.00238 189.85043L405.00238 191.08481Q403.78363 192.39731 402.56488 194.56918Q401.36176 196.72543 400.7055 199.02231Q400.22113 200.64731 400.09613 202.56918L398.47113 202.56918Q398.50238 201.05356 399.06488 198.89731Q399.643 196.74106 400.7055 194.74106Q401.768 192.74106 402.97113 191.36606L396.67426 191.36606ZM407.4555 202.56918L407.4555 200.77231L409.25238 200.77231L409.25238 202.56918L407.4555 202.56918ZM414.00238 195.58481Q413.018 195.22543 412.53363 194.55356Q412.06488 193.88168 412.06488 192.95981Q412.06488 191.55356 413.06488 190.60043Q414.0805 189.63168 415.768 189.63168Q417.4555 189.63168 418.47113 190.61606Q419.50238 191.58481 419.50238 192.99106Q419.50238 193.89731 419.03363 194.56918Q418.56488 195.22543 417.61176 195.58481Q418.79926 195.97543 419.40863 196.83481Q420.03363 197.69418 420.03363 198.88168Q420.03363 200.53793 418.86176 201.66293Q417.68988 202.78793 415.78363 202.78793Q413.87738 202.78793 412.7055 201.66293Q411.54926 200.52231 411.54926 198.83481Q411.54926 197.58481 412.17426 196.74106Q412.81488 195.88168 414.00238 195.58481ZM413.67426 192.89731Q413.67426 193.81918 414.268 194.39731Q414.86176 194.97543 415.79926 194.97543Q416.7055 194.97543 417.28363 194.39731Q417.87738 193.81918 417.87738 192.99106Q417.87738 192.11606 417.268 191.52231Q416.67426 190.92856 415.78363 190.92856Q414.87738 190.92856 414.268 191.50668Q413.67426 192.08481 413.67426 192.89731ZM413.17426 198.85043Q413.17426 199.52231 413.48676 200.16293Q413.81488 200.78793 414.43988 201.14731Q415.0805 201.49106 415.81488 201.49106Q416.93988 201.49106 417.67426 200.75668Q418.42426 200.02231 418.42426 198.89731Q418.42426 197.75668 417.65863 197.02231Q416.893 196.27231 415.75238 196.27231Q414.643 196.27231 413.90863 197.00668Q413.17426 197.74106 413.17426 198.85043ZM421.86176 192.77231Q421.86176 191.39731 422.54926 190.42856Q423.25238 189.45981 424.56488 189.45981Q425.78363 189.45981 426.5805 190.33481Q427.37738 191.19418 427.37738 192.88168Q427.37738 194.50668 426.56488 195.39731Q425.768 196.27231 424.5805 196.27231Q423.42426 196.27231 422.643 195.41293Q421.86176 194.53793 421.86176 192.77231ZM424.61176 190.55356Q424.018 190.55356 423.62738 191.06918Q423.23676 191.56918 423.23676 192.92856Q423.23676 194.17856 423.62738 194.67856Q424.03363 195.17856 424.61176 195.17856Q425.2055 195.17856 425.59613 194.67856Q425.98676 194.16293 425.98676 192.81918Q425.98676 191.56918 425.59613 191.06918Q425.2055 190.55356 424.61176 190.55356ZM424.62738 203.03793L431.67426 189.45981L432.9555 189.45981L425.92426 203.03793L424.62738 203.03793ZM430.18988 199.53793Q430.18988 198.16293 430.87738 197.19418Q431.5805 196.22543 432.90863 196.22543Q434.12738 196.22543 434.90863 197.10043Q435.7055 197.95981 435.7055 199.64731Q435.7055 201.27231 434.90863 202.16293Q434.11176 203.03793 432.92426 203.03793Q431.75238 203.03793 430.97113 202.16293Q430.18988 201.28793 430.18988 199.53793ZM432.9555 197.31918Q432.36176 197.31918 431.97113 197.83481Q431.5805 198.33481 431.5805 199.70981Q431.5805 200.92856 431.97113 201.44418Q432.36176 201.95981 432.93988 201.95981Q433.54926 201.95981 433.93988 201.44418Q434.3305 200.92856 434.3305 199.58481Q434.3305 198.33481 433.93988 197.83481Q433.54926 197.31918 432.9555 197.31918Z" fill-rule="nonzero"/><path fill="#ffffff" d="M266.97168 317.54013Q265.9873 317.18076 265.50293 316.50888Q265.03418 315.837 265.03418 314.91513Q265.03418 313.50888 266.03418 312.55576Q267.0498 311.587 268.7373 311.587Q270.4248 311.587 271.44043 312.57138Q272.47168 313.54013 272.47168 314.94638Q272.47168 315.85263 272.00293 316.5245Q271.53418 317.18076 270.58105 317.54013Q271.76855 317.93076 272.37793 318.79013Q273.00293 319.6495 273.00293 320.837Q273.00293 322.49326 271.83105 323.61826Q270.65918 324.74326 268.75293 324.74326Q266.84668 324.74326 265.6748 323.61826Q264.51855 322.47763 264.51855 320.79013Q264.51855 319.54013 265.14355 318.69638Q265.78418 317.837 266.97168 317.54013ZM266.64355 314.85263Q266.64355 315.7745 267.2373 316.35263Q267.83105 316.93076 268.76855 316.93076Q269.6748 316.93076 270.25293 316.35263Q270.84668 315.7745 270.84668 314.94638Q270.84668 314.07138 270.2373 313.47763Q269.64355 312.88388 268.75293 312.88388Q267.84668 312.88388 267.2373 313.462Q266.64355 314.04013 266.64355 314.85263ZM266.14355 320.80576Q266.14355 321.47763 266.45605 322.11826Q266.78418 322.74326 267.40918 323.10263Q268.0498 323.44638 268.78418 323.44638Q269.90918 323.44638 270.64355 322.712Q271.39355 321.97763 271.39355 320.85263Q271.39355 319.712 270.62793 318.97763Q269.8623 318.22763 268.72168 318.22763Q267.6123 318.22763 266.87793 318.962Q266.14355 319.69638 266.14355 320.80576ZM275.4248 324.5245L275.4248 322.72763L277.22168 322.72763L277.22168 324.5245L275.4248 324.5245ZM279.64355 313.32138L279.64355 311.80576L287.97168 311.80576L287.97168 313.04013Q286.75293 314.35263 285.53418 316.5245Q284.33105 318.68076 283.6748 320.97763Q283.19043 322.60263 283.06543 324.5245L281.44043 324.5245Q281.47168 323.00888 282.03418 320.85263Q282.6123 318.69638 283.6748 316.69638Q284.7373 314.69638 285.94043 313.32138L279.64355 313.32138ZM289.83105 314.72763Q289.83105 313.35263 290.51855 312.38388Q291.22168 311.41513 292.53418 311.41513Q293.75293 311.41513 294.5498 312.29013Q295.34668 313.1495 295.34668 314.837Q295.34668 316.462 294.53418 317.35263Q293.7373 318.22763 292.5498 318.22763Q291.39355 318.22763 290.6123 317.36826Q289.83105 316.49326 289.83105 314.72763ZM292.58105 312.50888Q291.9873 312.50888 291.59668 313.0245Q291.20605 313.5245 291.20605 314.88388Q291.20605 316.13388 291.59668 316.63388Q292.00293 317.13388 292.58105 317.13388Q293.1748 317.13388 293.56543 316.63388Q293.95605 316.11826 293.95605 314.7745Q293.95605 313.5245 293.56543 313.0245Q293.1748 312.50888 292.58105 312.50888ZM292.59668 324.99326L299.64355 311.41513L300.9248 311.41513L293.89355 324.99326L292.59668 324.99326ZM298.15918 321.49326Q298.15918 320.11826 298.84668 319.1495Q299.5498 318.18076 300.87793 318.18076Q302.09668 318.18076 302.87793 319.05576Q303.6748 319.91513 303.6748 321.60263Q303.6748 323.22763 302.87793 324.11826Q302.08105 324.99326 300.89355 324.99326Q299.72168 324.99326 298.94043 324.11826Q298.15918 323.24326 298.15918 321.49326ZM300.9248 319.2745Q300.33105 319.2745 299.94043 319.79013Q299.5498 320.29013 299.5498 321.66513Q299.5498 322.88388 299.94043 323.3995Q300.33105 323.91513 300.90918 323.91513Q301.51855 323.91513 301.90918 323.3995Q302.2998 322.88388 302.2998 321.54013Q302.2998 320.29013 301.90918 319.79013Q301.51855 319.2745 300.9248 319.2745Z" fill-rule="nonzero"/><path fill="#ffffff" d="M190.04971 274.52643L188.47159 274.52643L188.47159 264.4483Q187.89346 264.99518 186.97159 265.54205Q186.04971 266.0733 185.29971 266.35455L185.29971 264.8233Q186.62784 264.1983 187.62784 263.30768Q188.62784 262.41705 189.03409 261.58893L190.04971 261.58893L190.04971 274.52643ZM194.20596 263.3233L194.20596 261.80768L202.53409 261.80768L202.53409 263.04205Q201.31534 264.35455 200.09659 266.52643Q198.89346 268.68268 198.23721 270.97955Q197.75284 272.60455 197.62784 274.52643L196.00284 274.52643Q196.03409 273.0108 196.59659 270.85455Q197.17471 268.6983 198.23721 266.6983Q199.29971 264.6983 200.50284 263.3233L194.20596 263.3233ZM204.98721 274.52643L204.98721 272.72955L206.78409 272.72955L206.78409 274.52643L204.98721 274.52643ZM214.15909 274.52643L214.15909 271.4483L208.58096 271.4483L208.58096 269.99518L214.45596 261.6358L215.75284 261.6358L215.75284 269.99518L217.48721 269.99518L217.48721 271.4483L215.75284 271.4483L215.75284 274.52643L214.15909 274.52643ZM214.15909 269.99518L214.15909 264.18268L210.12784 269.99518L214.15909 269.99518ZM219.39346 264.72955Q219.39346 263.35455 220.08096 262.3858Q220.78409 261.41705 222.09659 261.41705Q223.31534 261.41705 224.11221 262.29205Q224.90909 263.15143 224.90909 264.83893Q224.90909 266.46393 224.09659 267.35455Q223.29971 268.22955 222.11221 268.22955Q220.95596 268.22955 220.17471 267.37018Q219.39346 266.49518 219.39346 264.72955ZM222.14346 262.5108Q221.54971 262.5108 221.15909 263.02643Q220.76846 263.52643 220.76846 264.8858Q220.76846 266.1358 221.15909 266.6358Q221.56534 267.1358 222.14346 267.1358Q222.73721 267.1358 223.12784 266.6358Q223.51846 266.12018 223.51846 264.77643Q223.51846 263.52643 223.12784 263.02643Q222.73721 262.5108 222.14346 262.5108ZM222.15909 274.99518L229.20596 261.41705L230.48721 261.41705L223.45596 274.99518L222.15909 274.99518ZM227.72159 271.49518Q227.72159 270.12018 228.40909 269.15143Q229.11221 268.18268 230.44034 268.18268Q231.65909 268.18268 232.44034 269.05768Q233.23721 269.91705 233.23721 271.60455Q233.23721 273.22955 232.44034 274.12018Q231.64346 274.99518 230.45596 274.99518Q229.28409 274.99518 228.50284 274.12018Q227.72159 273.24518 227.72159 271.49518ZM230.48721 269.27643Q229.89346 269.27643 229.50284 269.79205Q229.11221 270.29205 229.11221 271.66705Q229.11221 272.8858 229.50284 273.40143Q229.89346 273.91705 230.47159 273.91705Q231.08096 273.91705 231.47159 273.40143Q231.86221 272.8858 231.86221 271.54205Q231.86221 270.29205 231.47159 269.79205Q231.08096 269.27643 230.48721 269.27643Z" fill-rule="nonzero"/><path fill="#ffffff" d="M182.13733 158.85158L180.5592 158.85158L180.5592 148.77345Q179.98108 149.32033 179.0592 149.8672Q178.13733 150.39845 177.38733 150.6797L177.38733 149.14845Q178.71545 148.52345 179.71545 147.63283Q180.71545 146.7422 181.1217 145.91408L182.13733 145.91408L182.13733 158.85158ZM186.29358 147.64845L186.29358 146.13283L194.6217 146.13283L194.6217 147.3672Q193.40295 148.6797 192.1842 150.85158Q190.98108 153.00783 190.32483 155.3047Q189.84045 156.9297 189.71545 158.85158L188.09045 158.85158Q188.1217 157.33595 188.6842 155.1797Q189.26233 153.02345 190.32483 151.02345Q191.38733 149.02345 192.59045 147.64845L186.29358 147.64845ZM197.07483 158.85158L197.07483 157.0547L198.8717 157.0547L198.8717 158.85158L197.07483 158.85158ZM206.2467 158.85158L206.2467 155.77345L200.66858 155.77345L200.66858 154.32033L206.54358 145.96095L207.84045 145.96095L207.84045 154.32033L209.57483 154.32033L209.57483 155.77345L207.84045 155.77345L207.84045 158.85158L206.2467 158.85158ZM206.2467 154.32033L206.2467 148.50783L202.21545 154.32033L206.2467 154.32033ZM211.48108 149.0547Q211.48108 147.6797 212.16858 146.71095Q212.8717 145.7422 214.1842 145.7422Q215.40295 145.7422 216.19983 146.6172Q216.9967 147.47658 216.9967 149.16408Q216.9967 150.78908 216.1842 151.6797Q215.38733 152.5547 214.19983 152.5547Q213.04358 152.5547 212.26233 151.69533Q211.48108 150.82033 211.48108 149.0547ZM214.23108 146.83595Q213.63733 146.83595 213.2467 147.35158Q212.85608 147.85158 212.85608 149.21095Q212.85608 150.46095 213.2467 150.96095Q213.65295 151.46095 214.23108 151.46095Q214.82483 151.46095 215.21545 150.96095Q215.60608 150.44533 215.60608 149.10158Q215.60608 147.85158 215.21545 147.35158Q214.82483 146.83595 214.23108 146.83595ZM214.2467 159.32033L221.29358 145.7422L222.57483 145.7422L215.54358 159.32033L214.2467 159.32033ZM219.8092 155.82033Q219.8092 154.44533 220.4967 153.47658Q221.19983 152.50783 222.52795 152.50783Q223.7467 152.50783 224.52795 153.38283Q225.32483 154.2422 225.32483 155.9297Q225.32483 157.5547 224.52795 158.44533Q223.73108 159.32033 222.54358 159.32033Q221.3717 159.32033 220.59045 158.44533Q219.8092 157.57033 219.8092 155.82033ZM222.57483 153.60158Q221.98108 153.60158 221.59045 154.1172Q221.19983 154.6172 221.19983 155.9922Q221.19983 157.21095 221.59045 157.72658Q221.98108 158.2422 222.5592 158.2422Q223.16858 158.2422 223.5592 157.72658Q223.94983 157.21095 223.94983 155.8672Q223.94983 154.6172 223.5592 154.1172Q223.16858 153.60158 222.57483 153.60158Z" fill-rule="nonzero"/><path stroke="#ffffff" stroke-width="1.0" stroke-linejoin="round" stroke-linecap="round" d="M310.12854 277.37387C348.87488 272.04828 376.87894 237.6267 374.20993 198.60724C371.54092 159.58777 339.11063 129.3 300.0 129.3L300.0 54.916668C378.22128 54.916668 443.08185 115.49221 448.41986 193.53114C453.75787 271.57007 397.7498 340.41324 320.25705 351.0644" fill-rule="nonzero"/><path stroke="#ffffff" stroke-width="1.0" stroke-linejoin="round" stroke-linecap="round" d="M270.3656 271.90857C282.8687 277.33945 296.6238 279.23004 310.12854 277.37387L320.25705 351.0644C293.24765 354.77673 265.73746 350.99554 240.7312 340.1338" fill-rule="nonzero"/><path stroke="#ffffff" stroke-width="1.0" stroke-linejoin="round" stroke-linecap="round" d="M225.79007 208.75943C227.68642 236.48296 244.87785 260.83768 270.3656 271.90857L240.7312 340.1338C189.75569 317.992 155.37282 269.2826 151.58014 213.83553" fill-rule="nonzero"/><path stroke="#ffffff" stroke-width="1.0" stroke-linejoin="round" stroke-linecap="round" d="M261.35162 140.12877C237.60875 154.56712 223.89372 181.0359 225.79007 208.75943L151.58014 213.83553C147.78746 158.38847 175.21748 105.45093 222.70323 76.5742" fill-rule="nonzero"/><path stroke="#ffffff" stroke-width="1.0" stroke-linejoin="round" stroke-linecap="round" d="M279.9316 132.05833C273.39923 133.88863 267.14795 136.60394 261.35162 140.12877L222.70323 76.5742C234.2959 69.52455 246.79848 64.09391 259.86322 60.43334" fill-rule="nonzero"/><path stroke="#ffffff" stroke-width="1.0" stroke-linejoin="round" stroke-linecap="round" d="M300.0 129.3C293.21606 129.3 286.464 130.22804 279.9316 132.05833L259.86322 60.43334C272.92798 56.772766 286.4321 54.916668 300.0 54.916668" fill-rule="nonzero"/><path fill="#efefef" d="M22.70625 69.916664L22.70625 59.80729L18.925 59.80729L18.925 58.46354L28.003124 58.46354L28.003124 59.80729L24.221874 59.80729L24.221874 69.916664L22.70625 69.916664ZM35.284374 67.24479L36.7375 67.416664Q36.39375 68.697914 35.45625 69.40104Q34.534374 70.104164 33.096874 70.104164Q31.26875 70.104164 30.20625 68.979164Q29.14375 67.854164 29.14375 65.83854Q29.14375 63.74479 30.221874 62.58854Q31.3 61.43229 33.01875 61.43229Q34.675 61.43229 35.721874 62.572914Q36.784374 63.697914 36.784374 65.74479Q36.784374 65.86979 36.784374 66.11979L30.596874 66.11979Q30.675 67.49479 31.3625 68.229164Q32.065624 68.947914 33.096874 68.947914Q33.878124 68.947914 34.425 68.541664Q34.971874 68.135414 35.284374 67.24479ZM30.675 64.96354L35.3 64.96354Q35.20625 63.916664 34.76875 63.40104Q34.096874 62.58854 33.034374 62.58854Q32.065624 62.58854 31.39375 63.24479Q30.7375 63.885414 30.675 64.96354ZM37.675 69.916664L40.70625 65.604164L37.89375 61.61979L39.659374 61.61979L40.925 63.55729Q41.284374 64.11979 41.503124 64.49479Q41.846874 63.979164 42.14375 63.572914L43.534374 61.61979L45.221874 61.61979L42.346874 65.52604L45.440624 69.916664L43.70625 69.916664L42.003124 67.33854L41.55 66.635414L39.378124 69.916664L37.675 69.916664ZM49.675 68.65104L49.878124 69.90104Q49.284374 70.02604 48.815624 70.02604Q48.05 70.02604 47.628124 69.791664Q47.20625 69.541664 47.034374 69.15104Q46.8625 68.74479 46.8625 67.479164L46.8625 62.71354L45.83125 62.71354L45.83125 61.61979L46.8625 61.61979L46.8625 59.55729L48.26875 58.71354L48.26875 61.61979L49.675 61.61979L49.675 62.71354L48.26875 62.71354L48.26875 67.55729Q48.26875 68.166664 48.33125 68.33854Q48.409374 68.510414 48.58125 68.61979Q48.753124 68.71354 49.065624 68.71354Q49.3 68.71354 49.675 68.65104Z" fill-rule="nonzero"/><path fill="#9e9e9e" d="M23.721874 91.916664L23.721874 89.166664L18.753124 89.166664L18.753124 87.885414L23.9875 80.46354L25.128124 80.46354L25.128124 87.885414L26.675 87.885414L26.675 89.166664L25.128124 89.166664L25.128124 91.916664L23.721874 91.916664ZM23.721874 87.885414L23.721874 82.71354L20.14375 87.885414L23.721874 87.885414ZM29.003124 91.916664L29.003124 90.30729L30.6125 90.30729L30.6125 91.916664L29.003124 91.916664ZM32.221874 88.885414L33.628124 88.697914Q33.878124 89.90104 34.45625 90.43229Q35.034374 90.947914 35.878124 90.947914Q36.8625 90.947914 37.55 90.260414Q38.2375 89.572914 38.2375 88.55729Q38.2375 87.58854 37.596874 86.96354Q36.971874 86.33854 35.9875 86.33854Q35.596874 86.33854 35.003124 86.49479L35.159374 85.260414Q35.3 85.27604 35.378124 85.27604Q36.284374 85.27604 37.003124 84.80729Q37.721874 84.33854 37.721874 83.354164Q37.721874 82.58854 37.190624 82.08854Q36.675 81.572914 35.846874 81.572914Q35.01875 81.572914 34.471874 82.08854Q33.925 82.604164 33.76875 83.635414L32.3625 83.385414Q32.628124 81.96354 33.534374 81.197914Q34.45625 80.416664 35.815624 80.416664Q36.753124 80.416664 37.534374 80.822914Q38.33125 81.21354 38.7375 81.916664Q39.159374 82.604164 39.159374 83.385414Q39.159374 84.135414 38.753124 84.74479Q38.3625 85.354164 37.58125 85.71354Q38.596874 85.947914 39.159374 86.68229Q39.721874 87.416664 39.721874 88.52604Q39.721874 90.02604 38.628124 91.072914Q37.534374 92.11979 35.8625 92.11979Q34.3625 92.11979 33.3625 91.229164Q32.3625 90.322914 32.221874 88.885414ZM41.4875 83.21354Q41.4875 81.979164 42.096874 81.11979Q42.721874 80.260414 43.89375 80.260414Q44.971874 80.260414 45.675 81.041664Q46.378124 81.80729 46.378124 83.291664Q46.378124 84.74479 45.659374 85.541664Q44.95625 86.322914 43.909374 86.322914Q42.8625 86.322914 42.175 85.55729Q41.4875 84.77604 41.4875 83.21354ZM43.925 81.229164Q43.409374 81.229164 43.05 81.68229Q42.70625 82.135414 42.70625 83.354164Q42.70625 84.447914 43.05 84.90104Q43.409374 85.354164 43.925 85.354164Q44.45625 85.354164 44.8 84.90104Q45.159374 84.447914 45.159374 83.24479Q45.159374 82.135414 44.8 81.68229Q44.45625 81.229164 43.925 81.229164ZM43.940624 92.33854L50.20625 80.260414L51.346874 80.260414L45.096874 92.33854L43.940624 92.33854ZM48.89375 89.229164Q48.89375 87.99479 49.503124 87.135414Q50.128124 86.27604 51.3 86.27604Q52.378124 86.27604 53.08125 87.05729Q53.8 87.822914 53.8 89.30729Q53.8 90.760414 53.08125 91.55729Q52.3625 92.33854 51.315624 92.33854Q50.26875 92.33854 49.58125 91.55729Q48.89375 90.77604 48.89375 89.229164ZM51.346874 87.24479Q50.815624 87.24479 50.45625 87.697914Q50.1125 88.15104 50.1125 89.36979Q50.1125 90.46354 50.45625 90.916664Q50.815624 91.36979 51.33125 91.36979Q51.878124 91.36979 52.221874 90.916664Q52.565624 90.46354 52.565624 89.260414Q52.565624 88.15104 52.20625 87.697914Q51.8625 87.24479 51.346874 87.24479Z" fill-rule="nonzero"/><path stroke="#757575" stroke-width="1.0" stroke-linecap="butt" d="M18.55 75.416664L145.23334 75.416664L280.7558 63.67134" fill-rule="nonzero"/><path fill="#9e9e9e" d="M282.7558 63.67134C282.7558 62.56677 281.86035 61.67134 280.7558 61.67134C279.6512 61.67134 278.7558 62.56677 278.7558 63.67134C278.7558 64.77591 279.6512 65.67134 280.7558 65.67134C281.86035 65.67134 282.7558 64.77591 282.7558 63.67134" fill-rule="nonzero"/><path fill="#efefef" d="M18.51875 110.916664L22.925 99.46354L24.565624 99.46354L29.253124 110.916664L27.51875 110.916664L26.190624 107.447914L21.39375 107.447914L20.14375 110.916664L18.51875 110.916664ZM21.83125 106.21354L25.721874 106.21354L24.51875 103.041664Q23.971874 101.58854 23.70625 100.666664Q23.4875 101.760414 23.096874 102.854164L21.83125 106.21354ZM30.596874 110.916664L30.596874 102.61979L31.8625 102.61979L31.8625 103.86979Q32.346874 102.99479 32.753124 102.71354Q33.159374 102.43229 33.659374 102.43229Q34.3625 102.43229 35.096874 102.885414L34.6125 104.18229Q34.096874 103.885414 33.58125 103.885414Q33.128124 103.885414 32.753124 104.166664Q32.39375 104.43229 32.2375 104.93229Q32.003124 105.68229 32.003124 106.572914L32.003124 110.916664L30.596874 110.916664ZM38.675 109.65104L38.878124 110.90104Q38.284374 111.02604 37.815624 111.02604Q37.05 111.02604 36.628124 110.791664Q36.20625 110.541664 36.034374 110.15104Q35.8625 109.74479 35.8625 108.479164L35.8625 103.71354L34.83125 103.71354L34.83125 102.61979L35.8625 102.61979L35.8625 100.55729L37.26875 99.71354L37.26875 102.61979L38.675 102.61979L38.675 103.71354L37.26875 103.71354L37.26875 108.55729Q37.26875 109.166664 37.33125 109.33854Q37.409374 109.510414 37.58125 109.61979Q37.753124 109.71354 38.065624 109.71354Q38.3 109.71354 38.675 109.65104ZM39.05 108.43229L40.440624 108.21354Q40.55 109.05729 41.08125 109.510414Q41.628124 109.947914 42.58125 109.947914Q43.55 109.947914 44.01875 109.55729Q44.4875 109.15104 44.4875 108.61979Q44.4875 108.15104 44.08125 107.86979Q43.784374 107.68229 42.64375 107.40104Q41.096874 107.010414 40.4875 106.729164Q39.89375 106.43229 39.58125 105.93229Q39.284374 105.43229 39.284374 104.822914Q39.284374 104.260414 39.534374 103.791664Q39.784374 103.322914 40.221874 103.010414Q40.55 102.760414 41.1125 102.604164Q41.690624 102.43229 42.33125 102.43229Q43.315624 102.43229 44.05 102.71354Q44.784374 102.99479 45.128124 103.479164Q45.4875 103.947914 45.628124 104.760414L44.253124 104.947914Q44.159374 104.30729 43.70625 103.947914Q43.253124 103.58854 42.440624 103.58854Q41.471874 103.58854 41.05 103.916664Q40.64375 104.229164 40.64375 104.65104Q40.64375 104.93229 40.815624 105.15104Q40.9875 105.36979 41.346874 105.52604Q41.565624 105.604164 42.596874 105.885414Q44.08125 106.27604 44.675 106.541664Q45.26875 106.791664 45.596874 107.27604Q45.940624 107.760414 45.940624 108.479164Q45.940624 109.18229 45.51875 109.80729Q45.1125 110.416664 44.33125 110.760414Q43.565624 111.104164 42.596874 111.104164Q40.971874 111.104164 40.128124 110.43229Q39.284374 109.760414 39.05 108.43229ZM58.159374 109.55729Q57.45625 110.33854 56.628124 110.729164Q55.815624 111.11979 54.8625 111.11979Q53.1125 111.11979 52.08125 109.916664Q51.2375 108.947914 51.2375 107.760414Q51.2375 106.697914 51.925 105.83854Q52.6125 104.979164 53.971874 104.33854Q53.190624 103.447914 52.925 102.90104Q52.675 102.33854 52.675 101.822914Q52.675 100.791664 53.4875 100.02604Q54.3 99.260414 55.51875 99.260414Q56.690624 99.260414 57.440624 99.979164Q58.190624 100.697914 58.190624 101.71354Q58.190624 103.33854 56.01875 104.49479L58.08125 107.11979Q58.425 106.43229 58.628124 105.52604L60.08125 105.83854Q59.70625 107.33854 59.065624 108.30729Q59.8625 109.354164 60.8625 110.05729L59.909374 111.18229Q59.065624 110.635414 58.159374 109.55729ZM55.3 103.58854Q56.20625 103.05729 56.471874 102.65104Q56.753124 102.24479 56.753124 101.74479Q56.753124 101.166664 56.378124 100.791664Q56.003124 100.416664 55.45625 100.416664Q54.878124 100.416664 54.503124 100.791664Q54.128124 101.15104 54.128124 101.68229Q54.128124 101.947914 54.253124 102.24479Q54.39375 102.541664 54.675 102.86979L55.3 103.58854ZM57.26875 108.447914L54.690624 105.260414Q53.55 105.93229 53.14375 106.52604Q52.753124 107.104164 52.753124 107.666664Q52.753124 108.36979 53.3 109.11979Q53.8625 109.86979 54.878124 109.86979Q55.51875 109.86979 56.190624 109.479164Q56.8625 109.072914 57.26875 108.447914ZM65.51875 110.916664L69.925 99.46354L71.56563 99.46354L76.25313 110.916664L74.51875 110.916664L73.19063 107.447914L68.39375 107.447914L67.14375 110.916664L65.51875 110.916664ZM68.83125 106.21354L72.72188 106.21354L71.51875 103.041664Q70.97188 101.58854 70.70625 100.666664Q70.4875 101.760414 70.09688 102.854164L68.83125 106.21354ZM77.6125 110.916664L77.6125 102.61979L78.87813 102.61979L78.87813 103.791664Q79.78438 102.43229 81.51875 102.43229Q82.26875 102.43229 82.89375 102.697914Q83.51875 102.96354 83.83125 103.40104Q84.14375 103.83854 84.26875 104.447914Q84.34688 104.83854 84.34688 105.80729L84.34688 110.916664L82.94063 110.916664L82.94063 105.86979Q82.94063 105.010414 82.76875 104.58854Q82.6125 104.15104 82.19063 103.90104Q81.78438 103.65104 81.22188 103.65104Q80.31563 103.65104 79.65938 104.229164Q79.01875 104.791664 79.01875 106.385414L79.01875 110.916664L77.6125 110.916664ZM89.675 109.65104L89.87813 110.90104Q89.28438 111.02604 88.81563 111.02604Q88.05 111.02604 87.62813 110.791664Q87.20625 110.541664 87.03438 110.15104Q86.8625 109.74479 86.8625 108.479164L86.8625 103.71354L85.83125 103.71354L85.83125 102.61979L86.8625 102.61979L86.8625 100.55729L88.26875 99.71354L88.26875 102.61979L89.675 102.61979L89.675 103.71354L88.26875 103.71354L88.26875 108.55729Q88.26875 109.166664 88.33125 109.33854Q88.40938 109.510414 88.58125 109.61979Q88.75313 109.71354 89.06563 109.71354Q89.3 109.71354 89.675 109.65104ZM90.6125 101.072914L90.6125 99.46354L92.01875 99.46354L92.01875 101.072914L90.6125 101.072914ZM90.6125 110.916664L90.6125 102.61979L92.01875 102.61979L92.01875 110.916664L90.6125 110.916664ZM99.89375 114.104164L99.89375 110.02604Q99.56563 110.49479 98.97188 110.80729Q98.39375 111.104164 97.72188 111.104164Q96.25313 111.104164 95.175 109.93229Q94.1125 108.74479 94.1125 106.68229Q94.1125 105.43229 94.55 104.447914Q94.9875 103.447914 95.8 102.947914Q96.62813 102.43229 97.6125 102.43229Q99.15938 102.43229 100.03438 103.729164L100.03438 102.61979L101.3 102.61979L101.3 114.104164L99.89375 114.104164ZM95.56563 106.74479Q95.56563 108.33854 96.2375 109.15104Q96.90938 109.947914 97.84688 109.947914Q98.7375 109.947914 99.37813 109.18229Q100.03438 108.416664 100.03438 106.86979Q100.03438 105.21354 99.34688 104.385414Q98.675 103.541664 97.75313 103.541664Q96.83125 103.541664 96.19063 104.322914Q95.56563 105.08854 95.56563 106.74479ZM109.05 110.916664L109.05 109.697914Q108.08125 111.104164 106.40938 111.104164Q105.675 111.104164 105.03438 110.822914Q104.40938 110.541664 104.09688 110.11979Q103.78438 109.68229 103.65938 109.072914Q103.58125 108.65104 103.58125 107.760414L103.58125 102.61979L104.9875 102.61979L104.9875 107.21354Q104.9875 108.322914 105.06563 108.697914Q105.20625 109.260414 105.62813 109.572914Q106.06563 109.885414 106.69063 109.885414Q107.33125 109.885414 107.87813 109.572914Q108.44063 109.24479 108.65938 108.68229Q108.89375 108.11979 108.89375 107.05729L108.89375 102.61979L110.3 102.61979L110.3 110.916664L109.05 110.916664ZM112.6125 101.072914L112.6125 99.46354L114.01875 99.46354L114.01875 101.072914L112.6125 101.072914ZM112.6125 110.916664L112.6125 102.61979L114.01875 102.61979L114.01875 110.916664L112.6125 110.916664ZM119.675 109.65104L119.87813 110.90104Q119.28438 111.02604 118.81563 111.02604Q118.05 111.02604 117.62813 110.791664Q117.20625 110.541664 117.03438 110.15104Q116.8625 109.74479 116.8625 108.479164L116.8625 103.71354L115.83125 103.71354L115.83125 102.61979L116.8625 102.61979L116.8625 100.55729L118.26875 99.71354L118.26875 102.61979L119.675 102.61979L119.675 103.71354L118.26875 103.71354L118.26875 108.55729Q118.26875 109.166664 118.33125 109.33854Q118.40938 109.510414 118.58125 109.61979Q118.75313 109.71354 119.06563 109.71354Q119.3 109.71354 119.675 109.65104ZM120.6125 101.072914L120.6125 99.46354L122.01875 99.46354L122.01875 101.072914L120.6125 101.072914ZM120.6125 110.916664L120.6125 102.61979L122.01875 102.61979L122.01875 110.916664L120.6125 110.916664ZM130.28438 108.24479L131.7375 108.416664Q131.39375 109.697914 130.45625 110.40104Q129.53438 111.104164 128.09688 111.104164Q126.26875 111.104164 125.20625 109.979164Q124.14375 108.854164 124.14375 106.83854Q124.14375 104.74479 125.22188 103.58854Q126.3 102.43229 128.01875 102.43229Q129.675 102.43229 130.72188 103.572914Q131.78438 104.697914 131.78438 106.74479Q131.78438 106.86979 131.78438 107.11979L125.59688 107.11979Q125.675 108.49479 126.3625 109.229164Q127.06563 109.947914 128.09688 109.947914Q128.87813 109.947914 129.425 109.541664Q129.97188 109.135414 130.28438 108.24479ZM125.675 105.96354L130.3 105.96354Q130.20625 104.916664 129.76875 104.40104Q129.09688 103.58854 128.03438 103.58854Q127.06563 103.58854 126.39375 104.24479Q125.7375 104.885414 125.675 105.96354ZM133.05 108.43229L134.44063 108.21354Q134.55 109.05729 135.08125 109.510414Q135.62813 109.947914 136.58125 109.947914Q137.55 109.947914 138.01875 109.55729Q138.4875 109.15104 138.4875 108.61979Q138.4875 108.15104 138.08125 107.86979Q137.78438 107.68229 136.64375 107.40104Q135.09688 107.010414 134.4875 106.729164Q133.89375 106.43229 133.58125 105.93229Q133.28438 105.43229 133.28438 104.822914Q133.28438 104.260414 133.53438 103.791664Q133.78438 103.322914 134.22188 103.010414Q134.55 102.760414 135.1125 102.604164Q135.69063 102.43229 136.33125 102.43229Q137.31563 102.43229 138.05 102.71354Q138.78438 102.99479 139.12813 103.479164Q139.4875 103.947914 139.62813 104.760414L138.25313 104.947914Q138.15938 104.30729 137.70625 103.947914Q137.25313 103.58854 136.44063 103.58854Q135.47188 103.58854 135.05 103.916664Q134.64375 104.229164 134.64375 104.65104Q134.64375 104.93229 134.81563 105.15104Q134.9875 105.36979 135.34688 105.52604Q135.56563 105.604164 136.59688 105.885414Q138.08125 106.27604 138.675 106.541664Q139.26875 106.791664 139.59688 107.27604Q139.94063 107.760414 139.94063 108.479164Q139.94063 109.18229 139.51875 109.80729Q139.1125 110.416664 138.33125 110.760414Q137.56563 111.104164 136.59688 111.104164Q134.97188 111.104164 134.12813 110.43229Q133.28438 109.760414 133.05 108.43229Z" fill-rule="nonzero"/><path fill="#9e9e9e" d="M23.721874 132.91667L23.721874 130.16667L18.753124 130.16667L18.753124 128.88542L23.9875 121.46355L25.128124 121.46355L25.128124 128.88542L26.675 128.88542L26.675 130.16667L25.128124 130.16667L25.128124 132.91667L23.721874 132.91667ZM23.721874 128.88542L23.721874 123.71355L20.14375 128.88542L23.721874 128.88542ZM29.003124 132.91667L29.003124 131.3073L30.6125 131.3073L30.6125 132.91667L29.003124 132.91667ZM32.221874 129.88542L33.628124 129.69792Q33.878124 130.90105 34.45625 131.4323Q35.034374 131.94792 35.878124 131.94792Q36.8625 131.94792 37.55 131.26042Q38.2375 130.57292 38.2375 129.5573Q38.2375 128.58855 37.596874 127.96355Q36.971874 127.33855 35.9875 127.33855Q35.596874 127.33855 35.003124 127.4948L35.159374 126.26042Q35.3 126.27605 35.378124 126.27605Q36.284374 126.27605 37.003124 125.8073Q37.721874 125.33855 37.721874 124.35417Q37.721874 123.58855 37.190624 123.08855Q36.675 122.57292 35.846874 122.57292Q35.01875 122.57292 34.471874 123.08855Q33.925 123.60417 33.76875 124.63542L32.3625 124.38542Q32.628124 122.96355 33.534374 122.19792Q34.45625 121.41667 35.815624 121.41667Q36.753124 121.41667 37.534374 121.82292Q38.33125 122.21355 38.7375 122.91667Q39.159374 123.60417 39.159374 124.38542Q39.159374 125.13542 38.753124 125.7448Q38.3625 126.35417 37.58125 126.71355Q38.596874 126.94792 39.159374 127.6823Q39.721874 128.41667 39.721874 129.52605Q39.721874 131.02605 38.628124 132.07292Q37.534374 133.1198 35.8625 133.1198Q34.3625 133.1198 33.3625 132.22917Q32.3625 131.32292 32.221874 129.88542ZM41.4875 124.21355Q41.4875 122.97917 42.096874 122.1198Q42.721874 121.26042 43.89375 121.26042Q44.971874 121.26042 45.675 122.04167Q46.378124 122.8073 46.378124 124.29167Q46.378124 125.7448 45.659374 126.54167Q44.95625 127.32292 43.909374 127.32292Q42.8625 127.32292 42.175 126.5573Q41.4875 125.77605 41.4875 124.21355ZM43.925 122.22917Q43.409374 122.22917 43.05 122.6823Q42.70625 123.13542 42.70625 124.35417Q42.70625 125.44792 43.05 125.90105Q43.409374 126.35417 43.925 126.35417Q44.45625 126.35417 44.8 125.90105Q45.159374 125.44792 45.159374 124.2448Q45.159374 123.13542 44.8 122.6823Q44.45625 122.22917 43.925 122.22917ZM43.940624 133.33855L50.20625 121.26042L51.346874 121.26042L45.096874 133.33855L43.940624 133.33855ZM48.89375 130.22917Q48.89375 128.9948 49.503124 128.13542Q50.128124 127.27605 51.3 127.27605Q52.378124 127.27605 53.08125 128.0573Q53.8 128.82292 53.8 130.3073Q53.8 131.76042 53.08125 132.5573Q52.3625 133.33855 51.315624 133.33855Q50.26875 133.33855 49.58125 132.5573Q48.89375 131.77605 48.89375 130.22917ZM51.346874 128.2448Q50.815624 128.2448 50.45625 128.69792Q50.1125 129.15105 50.1125 130.3698Q50.1125 131.46355 50.45625 131.91667Q50.815624 132.3698 51.33125 132.3698Q51.878124 132.3698 52.221874 131.91667Q52.565624 131.46355 52.565624 130.26042Q52.565624 129.15105 52.20625 128.69792Q51.8625 128.2448 51.346874 128.2448Z" fill-rule="nonzero"/><path stroke="#757575" stroke-width="1.0" stroke-linecap="butt" d="M18.55 116.416664L145.23334 116.416664L243.69464 74.05539" fill-rule="nonzero"/><path fill="#9e9e9e" d="M245.69464 74.05539C245.69464 72.95082 244.79921 72.05539 243.69464 72.05539C242.59007 72.05539 241.69464 72.95082 241.69464 74.05539C241.69464 75.15996 242.59007 76.05539 243.69464 76.05539C244.79921 76.05539 245.69464 75.15996 245.69464 74.05539" fill-rule="nonzero"/><path fill="#efefef" d="M19.76875 151.91667L19.76875 140.46355L21.33125 140.46355L27.346874 149.44792L27.346874 140.46355L28.8 140.46355L28.8 151.91667L27.2375 151.91667L21.221874 142.91667L21.221874 151.91667L19.76875 151.91667ZM37.01875 150.88542Q36.2375 151.5573 35.51875 151.83855Q34.8 152.10417 33.971874 152.10417Q32.596874 152.10417 31.8625 151.4323Q31.128124 150.76042 31.128124 149.72917Q31.128124 149.1198 31.409374 148.6198Q31.690624 148.10417 32.128124 147.8073Q32.58125 147.4948 33.14375 147.33855Q33.565624 147.22917 34.39375 147.13542Q36.096874 146.9323 36.909374 146.65105Q36.909374 146.35417 36.909374 146.27605Q36.909374 145.41667 36.51875 145.07292Q35.971874 144.58855 34.909374 144.58855Q33.925 144.58855 33.440624 144.94792Q32.971874 145.29167 32.753124 146.16667L31.378124 145.97917Q31.565624 145.10417 31.9875 144.5573Q32.425 144.01042 33.2375 143.72917Q34.05 143.4323 35.1125 143.4323Q36.175 143.4323 36.83125 143.6823Q37.503124 143.9323 37.815624 144.3073Q38.128124 144.6823 38.253124 145.26042Q38.33125 145.6198 38.33125 146.5573L38.33125 148.4323Q38.33125 150.40105 38.409374 150.91667Q38.503124 151.4323 38.76875 151.91667L37.3 151.91667Q37.08125 151.47917 37.01875 150.88542ZM36.909374 147.7448Q36.14375 148.0573 34.6125 148.27605Q33.7375 148.40105 33.378124 148.5573Q33.01875 148.71355 32.815624 149.02605Q32.628124 149.32292 32.628124 149.6823Q32.628124 150.2448 33.05 150.6198Q33.4875 150.9948 34.3 150.9948Q35.1125 150.9948 35.7375 150.65105Q36.378124 150.29167 36.675 149.66667Q36.909374 149.19792 36.909374 148.26042L36.909374 147.7448ZM43.675 150.65105L43.878124 151.90105Q43.284374 152.02605 42.815624 152.02605Q42.05 152.02605 41.628124 151.79167Q41.20625 151.54167 41.034374 151.15105Q40.8625 150.7448 40.8625 149.47917L40.8625 144.71355L39.83125 144.71355L39.83125 143.6198L40.8625 143.6198L40.8625 141.5573L42.26875 140.71355L42.26875 143.6198L43.675 143.6198L43.675 144.71355L42.26875 144.71355L42.26875 149.5573Q42.26875 150.16667 42.33125 150.33855Q42.409374 150.51042 42.58125 150.6198Q42.753124 150.71355 43.065624 150.71355Q43.3 150.71355 43.675 150.65105ZM50.05 151.91667L50.05 150.69792Q49.08125 152.10417 47.409374 152.10417Q46.675 152.10417 46.034374 151.82292Q45.409374 151.54167 45.096874 151.1198Q44.784374 150.6823 44.659374 150.07292Q44.58125 149.65105 44.58125 148.76042L44.58125 143.6198L45.9875 143.6198L45.9875 148.21355Q45.9875 149.32292 46.065624 149.69792Q46.20625 150.26042 46.628124 150.57292Q47.065624 150.88542 47.690624 150.88542Q48.33125 150.88542 48.878124 150.57292Q49.440624 150.2448 49.659374 149.6823Q49.89375 149.1198 49.89375 148.0573L49.89375 143.6198L51.3 143.6198L51.3 151.91667L50.05 151.91667ZM53.596874 151.91667L53.596874 143.6198L54.8625 143.6198L54.8625 144.8698Q55.346874 143.9948 55.753124 143.71355Q56.159374 143.4323 56.659374 143.4323Q57.3625 143.4323 58.096874 143.88542L57.6125 145.1823Q57.096874 144.88542 56.58125 144.88542Q56.128124 144.88542 55.753124 145.16667Q55.39375 145.4323 55.2375 145.9323Q55.003124 146.6823 55.003124 147.57292L55.003124 151.91667L53.596874 151.91667ZM64.01875 150.88542Q63.2375 151.5573 62.51875 151.83855Q61.8 152.10417 60.971874 152.10417Q59.596874 152.10417 58.8625 151.4323Q58.128124 150.76042 58.128124 149.72917Q58.128124 149.1198 58.409374 148.6198Q58.690624 148.10417 59.128124 147.8073Q59.58125 147.4948 60.14375 147.33855Q60.565624 147.22917 61.39375 147.13542Q63.096874 146.9323 63.909374 146.65105Q63.909374 146.35417 63.909374 146.27605Q63.909374 145.41667 63.51875 145.07292Q62.971874 144.58855 61.909374 144.58855Q60.925 144.58855 60.440624 144.94792Q59.971874 145.29167 59.753124 146.16667L58.378124 145.97917Q58.565624 145.10417 58.9875 144.5573Q59.425 144.01042 60.2375 143.72917Q61.05 143.4323 62.1125 143.4323Q63.175 143.4323 63.83125 143.6823Q64.50313 143.9323 64.81563 144.3073Q65.12813 144.6823 65.25313 145.26042Q65.33125 145.6198 65.33125 146.5573L65.33125 148.4323Q65.33125 150.40105 65.40938 150.91667Q65.50313 151.4323 65.76875 151.91667L64.3 151.91667Q64.08125 151.47917 64.01875 150.88542ZM63.909374 147.7448Q63.14375 148.0573 61.6125 148.27605Q60.7375 148.40105 60.378124 148.5573Q60.01875 148.71355 59.815624 149.02605Q59.628124 149.32292 59.628124 149.6823Q59.628124 150.2448 60.05 150.6198Q60.4875 150.9948 61.3 150.9948Q62.1125 150.9948 62.7375 150.65105Q63.378124 150.29167 63.675 149.66667Q63.909374 149.19792 63.909374 148.26042L63.909374 147.7448ZM67.58125 151.91667L67.58125 140.46355L68.9875 140.46355L68.9875 151.91667L67.58125 151.91667Z" fill-rule="nonzero"/><path fill="#9e9e9e" d="M24.51875 173.91667L23.1125 173.91667L23.1125 164.94792Q22.596874 165.4323 21.76875 165.91667Q20.95625 166.40105 20.3 166.65105L20.3 165.29167Q21.471874 164.72917 22.346874 163.94792Q23.2375 163.15105 23.6125 162.41667L24.51875 162.41667L24.51875 173.91667ZM28.315624 163.96355L28.315624 162.60417L35.721874 162.60417L35.721874 163.69792Q34.628124 164.8698 33.55 166.8073Q32.4875 168.72917 31.89375 170.76042Q31.471874 172.19792 31.3625 173.91667L29.909374 173.91667Q29.940624 172.5573 30.440624 170.65105Q30.95625 168.72917 31.89375 166.96355Q32.846874 165.1823 33.925 163.96355L28.315624 163.96355ZM38.003124 173.91667L38.003124 172.3073L39.6125 172.3073L39.6125 173.91667L38.003124 173.91667ZM45.721874 173.91667L45.721874 171.16667L40.753124 171.16667L40.753124 169.88542L45.9875 162.46355L47.128124 162.46355L47.128124 169.88542L48.675 169.88542L48.675 171.16667L47.128124 171.16667L47.128124 173.91667L45.721874 173.91667ZM45.721874 169.88542L45.721874 164.71355L42.14375 169.88542L45.721874 169.88542ZM50.4875 165.21355Q50.4875 163.97917 51.096874 163.1198Q51.721874 162.26042 52.89375 162.26042Q53.971874 162.26042 54.675 163.04167Q55.378124 163.8073 55.378124 165.29167Q55.378124 166.7448 54.659374 167.54167Q53.95625 168.32292 52.909374 168.32292Q51.8625 168.32292 51.175 167.5573Q50.4875 166.77605 50.4875 165.21355ZM52.925 163.22917Q52.409374 163.22917 52.05 163.6823Q51.70625 164.13542 51.70625 165.35417Q51.70625 166.44792 52.05 166.90105Q52.409374 167.35417 52.925 167.35417Q53.45625 167.35417 53.8 166.90105Q54.159374 166.44792 54.159374 165.2448Q54.159374 164.13542 53.8 163.6823Q53.45625 163.22917 52.925 163.22917ZM52.940624 174.33855L59.20625 162.26042L60.346874 162.26042L54.096874 174.33855L52.940624 174.33855ZM57.89375 171.22917Q57.89375 169.9948 58.503124 169.13542Q59.128124 168.27605 60.3 168.27605Q61.378124 168.27605 62.08125 169.0573Q62.8 169.82292 62.8 171.3073Q62.8 172.76042 62.08125 173.5573Q61.3625 174.33855 60.315624 174.33855Q59.26875 174.33855 58.58125 173.5573Q57.89375 172.77605 57.89375 171.22917ZM60.346874 169.2448Q59.815624 169.2448 59.45625 169.69792Q59.1125 170.15105 59.1125 171.3698Q59.1125 172.46355 59.45625 172.91667Q59.815624 173.3698 60.33125 173.3698Q60.878124 173.3698 61.221874 172.91667Q61.565624 172.46355 61.565624 171.26042Q61.565624 170.15105 61.20625 169.69792Q60.8625 169.2448 60.346874 169.2448Z" fill-rule="nonzero"/><path stroke="#757575" stroke-width="1.0" stroke-linecap="butt" d="M18.55 157.41667L145.23334 157.41667L174.51666 138.6631" fill-rule="nonzero"/><path fill="#9e9e9e" d="M176.51666 138.6631C176.51666 137.55853 175.62123 136.6631 174.51666 136.6631C173.4121 136.6631 172.51666 137.55853 172.51666 138.6631C172.51666 139.76768 173.4121 140.6631 174.51666 140.6631C175.62123 140.6631 176.51666 139.76768 176.51666 138.6631" fill-rule="nonzero"/><path fill="#efefef" d="M18.51875 279.6846L22.925 268.23148L24.565624 268.23148L29.253124 279.6846L27.51875 279.6846L26.190624 276.21585L21.39375 276.21585L20.14375 279.6846L18.51875 279.6846ZM21.83125 274.98148L25.721874 274.98148L24.51875 271.8096Q23.971874 270.35648 23.70625 269.4346Q23.4875 270.52835 23.096874 271.6221L21.83125 274.98148ZM30.596874 279.6846L30.596874 271.38773L31.8625 271.38773L31.8625 272.63773Q32.346874 271.76273 32.753124 271.48148Q33.159374 271.20023 33.659374 271.20023Q34.3625 271.20023 35.096874 271.65335L34.6125 272.95023Q34.096874 272.65335 33.58125 272.65335Q33.128124 272.65335 32.753124 272.9346Q32.39375 273.20023 32.2375 273.70023Q32.003124 274.45023 32.003124 275.34085L32.003124 279.6846L30.596874 279.6846ZM41.01875 276.63773L42.409374 276.82523Q42.175 278.2471 41.2375 279.0596Q40.315624 279.8721 38.95625 279.8721Q37.253124 279.8721 36.20625 278.76273Q35.175 277.63773 35.175 275.5596Q35.175 274.21585 35.6125 273.21585Q36.065624 272.20023 36.971874 271.70023Q37.89375 271.20023 38.95625 271.20023Q40.315624 271.20023 41.175 271.88773Q42.034374 272.5596 42.26875 273.82523L40.909374 274.02835Q40.70625 273.20023 40.20625 272.77835Q39.721874 272.35648 39.01875 272.35648Q37.95625 272.35648 37.284374 273.1221Q36.628124 273.8721 36.628124 275.52835Q36.628124 277.20023 37.26875 277.96585Q37.909374 278.71585 38.940624 278.71585Q39.76875 278.71585 40.315624 278.21585Q40.878124 277.70023 41.01875 276.63773ZM43.6125 279.6846L43.6125 268.23148L45.01875 268.23148L45.01875 272.34085Q46.003124 271.20023 47.503124 271.20023Q48.425 271.20023 49.096874 271.5596Q49.784374 271.91898 50.065624 272.5596Q50.3625 273.20023 50.3625 274.41898L50.3625 279.6846L48.95625 279.6846L48.95625 274.41898Q48.95625 273.3721 48.503124 272.88773Q48.05 272.40335 47.20625 272.40335Q46.58125 272.40335 46.034374 272.73148Q45.4875 273.0596 45.253124 273.6221Q45.01875 274.16898 45.01875 275.13773L45.01875 279.6846L43.6125 279.6846ZM52.6125 269.84085L52.6125 268.23148L54.01875 268.23148L54.01875 269.84085L52.6125 269.84085ZM52.6125 279.6846L52.6125 271.38773L54.01875 271.38773L54.01875 279.6846L52.6125 279.6846ZM59.675 278.41898L59.878124 279.66898Q59.284374 279.79398 58.815624 279.79398Q58.05 279.79398 57.628124 279.5596Q57.20625 279.3096 57.034374 278.91898Q56.8625 278.51273 56.8625 277.2471L56.8625 272.48148L55.83125 272.48148L55.83125 271.38773L56.8625 271.38773L56.8625 269.32523L58.26875 268.48148L58.26875 271.38773L59.675 271.38773L59.675 272.48148L58.26875 272.48148L58.26875 277.32523Q58.26875 277.9346 58.33125 278.10648Q58.409374 278.27835 58.58125 278.38773Q58.753124 278.48148 59.065624 278.48148Q59.3 278.48148 59.675 278.41898ZM66.28438 277.01273L67.7375 277.1846Q67.39375 278.46585 66.45625 279.16898Q65.53438 279.8721 64.09688 279.8721Q62.26875 279.8721 61.20625 278.7471Q60.14375 277.6221 60.14375 275.60648Q60.14375 273.51273 61.221874 272.35648Q62.3 271.20023 64.01875 271.20023Q65.675 271.20023 66.72188 272.34085Q67.78438 273.46585 67.78438 275.51273Q67.78438 275.63773 67.78438 275.88773L61.596874 275.88773Q61.675 277.26273 62.3625 277.9971Q63.065624 278.71585 64.09688 278.71585Q64.87813 278.71585 65.425 278.3096Q65.97188 277.90335 66.28438 277.01273ZM61.675 274.73148L66.3 274.73148Q66.20625 273.6846 65.76875 273.16898Q65.09688 272.35648 64.03438 272.35648Q63.065624 272.35648 62.39375 273.01273Q61.7375 273.65335 61.675 274.73148ZM75.01875 276.63773L76.40938 276.82523Q76.175 278.2471 75.2375 279.0596Q74.31563 279.8721 72.95625 279.8721Q71.25313 279.8721 70.20625 278.76273Q69.175 277.63773 69.175 275.5596Q69.175 274.21585 69.6125 273.21585Q70.06563 272.20023 70.97188 271.70023Q71.89375 271.20023 72.95625 271.20023Q74.31563 271.20023 75.175 271.88773Q76.03438 272.5596 76.26875 273.82523L74.90938 274.02835Q74.70625 273.20023 74.20625 272.77835Q73.72188 272.35648 73.01875 272.35648Q71.95625 272.35648 71.28438 273.1221Q70.62813 273.8721 70.62813 275.52835Q70.62813 277.20023 71.26875 277.96585Q71.90938 278.71585 72.94063 278.71585Q73.76875 278.71585 74.31563 278.21585Q74.87813 277.70023 75.01875 276.63773ZM80.675 278.41898L80.87813 279.66898Q80.28438 279.79398 79.81563 279.79398Q79.05 279.79398 78.62813 279.5596Q78.20625 279.3096 78.03438 278.91898Q77.8625 278.51273 77.8625 277.2471L77.8625 272.48148L76.83125 272.48148L76.83125 271.38773L77.8625 271.38773L77.8625 269.32523L79.26875 268.48148L79.26875 271.38773L80.675 271.38773L80.675 272.48148L79.26875 272.48148L79.26875 277.32523Q79.26875 277.9346 79.33125 278.10648Q79.40938 278.27835 79.58125 278.38773Q79.75313 278.48148 80.06563 278.48148Q80.3 278.48148 80.675 278.41898ZM87.05 279.6846L87.05 278.46585Q86.08125 279.8721 84.40938 279.8721Q83.675 279.8721 83.03438 279.59085Q82.40938 279.3096 82.09688 278.88773Q81.78438 278.45023 81.65938 277.84085Q81.58125 277.41898 81.58125 276.52835L81.58125 271.38773L82.9875 271.38773L82.9875 275.98148Q82.9875 277.09085 83.06563 277.46585Q83.20625 278.02835 83.62813 278.34085Q84.06563 278.65335 84.69063 278.65335Q85.33125 278.65335 85.87813 278.34085Q86.44063 278.01273 86.65938 277.45023Q86.89375 276.88773 86.89375 275.82523L86.89375 271.38773L88.3 271.38773L88.3 279.6846L87.05 279.6846ZM90.59688 279.6846L90.59688 271.38773L91.8625 271.38773L91.8625 272.63773Q92.34688 271.76273 92.75313 271.48148Q93.15938 271.20023 93.65938 271.20023Q94.3625 271.20023 95.09688 271.65335L94.6125 272.95023Q94.09688 272.65335 93.58125 272.65335Q93.12813 272.65335 92.75313 272.9346Q92.39375 273.20023 92.2375 273.70023Q92.00313 274.45023 92.00313 275.34085L92.00313 279.6846L90.59688 279.6846ZM101.28438 277.01273L102.7375 277.1846Q102.39375 278.46585 101.45625 279.16898Q100.53438 279.8721 99.09688 279.8721Q97.26875 279.8721 96.20625 278.7471Q95.14375 277.6221 95.14375 275.60648Q95.14375 273.51273 96.22188 272.35648Q97.3 271.20023 99.01875 271.20023Q100.675 271.20023 101.72188 272.34085Q102.78438 273.46585 102.78438 275.51273Q102.78438 275.63773 102.78438 275.88773L96.59688 275.88773Q96.675 277.26273 97.3625 277.9971Q98.06563 278.71585 99.09688 278.71585Q99.87813 278.71585 100.425 278.3096Q100.97188 277.90335 101.28438 277.01273ZM96.675 274.73148L101.3 274.73148Q101.20625 273.6846 100.76875 273.16898Q100.09688 272.35648 99.03438 272.35648Q98.06563 272.35648 97.39375 273.01273Q96.7375 273.65335 96.675 274.73148ZM115.15938 278.32523Q114.45625 279.10648 113.62813 279.4971Q112.81563 279.88773 111.8625 279.88773Q110.1125 279.88773 109.08125 278.6846Q108.2375 277.71585 108.2375 276.52835Q108.2375 275.46585 108.925 274.60648Q109.6125 273.7471 110.97188 273.10648Q110.19063 272.21585 109.925 271.66898Q109.675 271.10648 109.675 270.59085Q109.675 269.5596 110.4875 268.79398Q111.3 268.02835 112.51875 268.02835Q113.69063 268.02835 114.44063 268.7471Q115.19063 269.46585 115.19063 270.48148Q115.19063 272.10648 113.01875 273.26273L115.08125 275.88773Q115.425 275.20023 115.62813 274.29398L117.08125 274.60648Q116.70625 276.10648 116.06563 277.07523Q116.8625 278.1221 117.8625 278.82523L116.90938 279.95023Q116.06563 279.40335 115.15938 278.32523ZM112.3 272.35648Q113.20625 271.82523 113.47188 271.41898Q113.75313 271.01273 113.75313 270.51273Q113.75313 269.9346 113.37813 269.5596Q113.00313 269.1846 112.45625 269.1846Q111.87813 269.1846 111.50313 269.5596Q111.12813 269.91898 111.12813 270.45023Q111.12813 270.71585 111.25313 271.01273Q111.39375 271.3096 111.675 271.63773L112.3 272.35648ZM114.26875 277.21585L111.69063 274.02835Q110.55 274.70023 110.14375 275.29398Q109.75313 275.8721 109.75313 276.4346Q109.75313 277.13773 110.3 277.88773Q110.8625 278.63773 111.87813 278.63773Q112.51875 278.63773 113.19063 278.2471Q113.8625 277.84085 114.26875 277.21585Z" fill-rule="nonzero"/><path fill="#9e9e9e" d="M24.51875 301.6846L23.1125 301.6846L23.1125 292.71585Q22.596874 293.20023 21.76875 293.6846Q20.95625 294.16898 20.3 294.41898L20.3 293.0596Q21.471874 292.4971 22.346874 291.71585Q23.2375 290.91898 23.6125 290.1846L24.51875 290.1846L24.51875 301.6846ZM28.315624 291.73148L28.315624 290.3721L35.721874 290.3721L35.721874 291.46585Q34.628124 292.63773 33.55 294.57523Q32.4875 296.4971 31.89375 298.52835Q31.471874 299.96585 31.3625 301.6846L29.909374 301.6846Q29.940624 300.32523 30.440624 298.41898Q30.95625 296.4971 31.89375 294.73148Q32.846874 292.95023 33.925 291.73148L28.315624 291.73148ZM38.003124 301.6846L38.003124 300.07523L39.6125 300.07523L39.6125 301.6846L38.003124 301.6846ZM45.721874 301.6846L45.721874 298.9346L40.753124 298.9346L40.753124 297.65335L45.9875 290.23148L47.128124 290.23148L47.128124 297.65335L48.675 297.65335L48.675 298.9346L47.128124 298.9346L47.128124 301.6846L45.721874 301.6846ZM45.721874 297.65335L45.721874 292.48148L42.14375 297.65335L45.721874 297.65335ZM50.4875 292.98148Q50.4875 291.7471 51.096874 290.88773Q51.721874 290.02835 52.89375 290.02835Q53.971874 290.02835 54.675 290.8096Q55.378124 291.57523 55.378124 293.0596Q55.378124 294.51273 54.659374 295.3096Q53.95625 296.09085 52.909374 296.09085Q51.8625 296.09085 51.175 295.32523Q50.4875 294.54398 50.4875 292.98148ZM52.925 290.9971Q52.409374 290.9971 52.05 291.45023Q51.70625 291.90335 51.70625 293.1221Q51.70625 294.21585 52.05 294.66898Q52.409374 295.1221 52.925 295.1221Q53.45625 295.1221 53.8 294.66898Q54.159374 294.21585 54.159374 293.01273Q54.159374 291.90335 53.8 291.45023Q53.45625 290.9971 52.925 290.9971ZM52.940624 302.10648L59.20625 290.02835L60.346874 290.02835L54.096874 302.10648L52.940624 302.10648ZM57.89375 298.9971Q57.89375 297.76273 58.503124 296.90335Q59.128124 296.04398 60.3 296.04398Q61.378124 296.04398 62.08125 296.82523Q62.8 297.59085 62.8 299.07523Q62.8 300.52835 62.08125 301.32523Q61.3625 302.10648 60.315624 302.10648Q59.26875 302.10648 58.58125 301.32523Q57.89375 300.54398 57.89375 298.9971ZM60.346874 297.01273Q59.815624 297.01273 59.45625 297.46585Q59.1125 297.91898 59.1125 299.13773Q59.1125 300.23148 59.45625 300.6846Q59.815624 301.13773 60.33125 301.13773Q60.878124 301.13773 61.221874 300.6846Q61.565624 300.23148 61.565624 299.02835Q61.565624 297.91898 61.20625 297.46585Q60.8625 297.01273 60.346874 297.01273Z" fill-rule="nonzero"/><path stroke="#757575" stroke-width="1.0" stroke-linecap="butt" d="M18.55 285.1846L145.23334 285.1846L184.539 285.1846" fill-rule="nonzero"/><path fill="#9e9e9e" d="M186.539 285.1846C186.539 284.08005 185.64357 283.1846 184.539 283.1846C183.43443 283.1846 182.539 284.08005 182.539 285.1846C182.539 286.28918 183.43443 287.1846 184.539 287.1846C185.64357 287.1846 186.539 286.28918 186.539 285.1846" fill-rule="nonzero"/><path fill="#efefef" d="M27.95625 322.4344L29.471874 322.8094Q29.003124 324.6844 27.753124 325.66876Q26.51875 326.65314 24.7375 326.65314Q22.878124 326.65314 21.721874 325.90314Q20.565624 325.1375 19.95625 323.71564Q19.346874 322.27814 19.346874 320.6375Q19.346874 318.84064 20.034374 317.5125Q20.721874 316.1844 21.971874 315.4969Q23.2375 314.79376 24.753124 314.79376Q26.471874 314.79376 27.64375 315.66876Q28.815624 316.54376 29.284374 318.1375L27.784374 318.48126Q27.39375 317.23126 26.628124 316.66876Q25.878124 316.09064 24.721874 316.09064Q23.409374 316.09064 22.51875 316.73126Q21.628124 317.35626 21.26875 318.4344Q20.909374 319.4969 20.909374 320.6219Q20.909374 322.09064 21.33125 323.1844Q21.76875 324.2625 22.659374 324.8094Q23.565624 325.34064 24.6125 325.34064Q25.878124 325.34064 26.753124 324.60626Q27.64375 323.8719 27.95625 322.4344ZM37.05 326.45L37.05 325.23126Q36.08125 326.6375 34.409374 326.6375Q33.675 326.6375 33.034374 326.35626Q32.409374 326.075 32.096874 325.65314Q31.784374 325.21564 31.659374 324.60626Q31.58125 324.1844 31.58125 323.29376L31.58125 318.15314L32.9875 318.15314L32.9875 322.7469Q32.9875 323.85626 33.065624 324.23126Q33.20625 324.79376 33.628124 325.10626Q34.065624 325.41876 34.690624 325.41876Q35.33125 325.41876 35.878124 325.10626Q36.440624 324.77814 36.659374 324.21564Q36.89375 323.65314 36.89375 322.59064L36.89375 318.15314L38.3 318.15314L38.3 326.45L37.05 326.45ZM40.58125 326.45L40.58125 314.9969L41.9875 314.9969L41.9875 326.45L40.58125 326.45ZM47.675 325.1844L47.878124 326.4344Q47.284374 326.5594 46.815624 326.5594Q46.05 326.5594 45.628124 326.325Q45.20625 326.075 45.034374 325.6844Q44.8625 325.27814 44.8625 324.0125L44.8625 319.2469L43.83125 319.2469L43.83125 318.15314L44.8625 318.15314L44.8625 316.09064L46.26875 315.2469L46.26875 318.15314L47.675 318.15314L47.675 319.2469L46.26875 319.2469L46.26875 324.09064Q46.26875 324.7 46.33125 324.8719Q46.409374 325.04376 46.58125 325.15314Q46.753124 325.2469 47.065624 325.2469Q47.3 325.2469 47.675 325.1844ZM54.05 326.45L54.05 325.23126Q53.08125 326.6375 51.409374 326.6375Q50.675 326.6375 50.034374 326.35626Q49.409374 326.075 49.096874 325.65314Q48.784374 325.21564 48.659374 324.60626Q48.58125 324.1844 48.58125 323.29376L48.58125 318.15314L49.9875 318.15314L49.9875 322.7469Q49.9875 323.85626 50.065624 324.23126Q50.20625 324.79376 50.628124 325.10626Q51.065624 325.41876 51.690624 325.41876Q52.33125 325.41876 52.878124 325.10626Q53.440624 324.77814 53.659374 324.21564Q53.89375 323.65314 53.89375 322.59064L53.89375 318.15314L55.3 318.15314L55.3 326.45L54.05 326.45ZM57.596874 326.45L57.596874 318.15314L58.8625 318.15314L58.8625 319.40314Q59.346874 318.52814 59.753124 318.2469Q60.159374 317.96564 60.659374 317.96564Q61.3625 317.96564 62.096874 318.41876L61.6125 319.71564Q61.096874 319.41876 60.58125 319.41876Q60.128124 319.41876 59.753124 319.7Q59.39375 319.96564 59.2375 320.46564Q59.003124 321.21564 59.003124 322.10626L59.003124 326.45L57.596874 326.45ZM68.01875 325.41876Q67.2375 326.09064 66.51875 326.3719Q65.8 326.6375 64.97188 326.6375Q63.596874 326.6375 62.8625 325.96564Q62.128124 325.29376 62.128124 324.2625Q62.128124 323.65314 62.409374 323.15314Q62.690624 322.6375 63.128124 322.34064Q63.58125 322.02814 64.14375 321.8719Q64.56563 321.7625 65.39375 321.66876Q67.09688 321.46564 67.90938 321.1844Q67.90938 320.8875 67.90938 320.8094Q67.90938 319.95 67.51875 319.60626Q66.97188 319.1219 65.90938 319.1219Q64.925 319.1219 64.44063 319.48126Q63.971874 319.825 63.753124 320.7L62.378124 320.5125Q62.565624 319.6375 62.9875 319.09064Q63.425 318.54376 64.2375 318.2625Q65.05 317.96564 66.1125 317.96564Q67.175 317.96564 67.83125 318.21564Q68.50313 318.46564 68.81563 318.84064Q69.12813 319.21564 69.25313 319.79376Q69.33125 320.15314 69.33125 321.09064L69.33125 322.96564Q69.33125 324.9344 69.40938 325.45Q69.50313 325.96564 69.76875 326.45L68.3 326.45Q68.08125 326.0125 68.01875 325.41876ZM67.90938 322.27814Q67.14375 322.59064 65.6125 322.8094Q64.7375 322.9344 64.37813 323.09064Q64.01875 323.2469 63.815624 323.5594Q63.628124 323.85626 63.628124 324.21564Q63.628124 324.77814 64.05 325.15314Q64.4875 325.52814 65.3 325.52814Q66.1125 325.52814 66.7375 325.1844Q67.37813 324.825 67.675 324.2Q67.90938 323.73126 67.90938 322.79376L67.90938 322.27814ZM71.58125 326.45L71.58125 314.9969L72.9875 314.9969L72.9875 326.45L71.58125 326.45ZM78.51875 326.45L82.925 314.9969L84.56563 314.9969L89.25313 326.45L87.51875 326.45L86.19063 322.98126L81.39375 322.98126L80.14375 326.45L78.51875 326.45ZM81.83125 321.7469L85.72188 321.7469L84.51875 318.575Q83.97188 317.1219 83.70625 316.2Q83.4875 317.29376 83.09688 318.3875L81.83125 321.7469ZM96.01875 323.40314L97.40938 323.59064Q97.175 325.0125 96.2375 325.825Q95.31563 326.6375 93.95625 326.6375Q92.25313 326.6375 91.20625 325.52814Q90.175 324.40314 90.175 322.325Q90.175 320.98126 90.6125 319.98126Q91.06563 318.96564 91.97188 318.46564Q92.89375 317.96564 93.95625 317.96564Q95.31563 317.96564 96.175 318.65314Q97.03438 319.325 97.26875 320.59064L95.90938 320.79376Q95.70625 319.96564 95.20625 319.54376Q94.72188 319.1219 94.01875 319.1219Q92.95625 319.1219 92.28438 319.8875Q91.62813 320.6375 91.62813 322.29376Q91.62813 323.96564 92.26875 324.73126Q92.90938 325.48126 93.94063 325.48126Q94.76875 325.48126 95.31563 324.98126Q95.87813 324.46564 96.01875 323.40314ZM101.675 325.1844L101.87813 326.4344Q101.28438 326.5594 100.81563 326.5594Q100.05 326.5594 99.62813 326.325Q99.20625 326.075 99.03438 325.6844Q98.8625 325.27814 98.8625 324.0125L98.8625 319.2469L97.83125 319.2469L97.83125 318.15314L98.8625 318.15314L98.8625 316.09064L100.26875 315.2469L100.26875 318.15314L101.675 318.15314L101.675 319.2469L100.26875 319.2469L100.26875 324.09064Q100.26875 324.7 100.33125 324.8719Q100.40938 325.04376 100.58125 325.15314Q100.75313 325.2469 101.06563 325.2469Q101.3 325.2469 101.675 325.1844ZM102.05 323.96564L103.44063 323.7469Q103.55 324.59064 104.08125 325.04376Q104.62813 325.48126 105.58125 325.48126Q106.55 325.48126 107.01875 325.09064Q107.4875 324.6844 107.4875 324.15314Q107.4875 323.6844 107.08125 323.40314Q106.78438 323.21564 105.64375 322.9344Q104.09688 322.54376 103.4875 322.2625Q102.89375 321.96564 102.58125 321.46564Q102.28438 320.96564 102.28438 320.35626Q102.28438 319.79376 102.53438 319.325Q102.78438 318.85626 103.22188 318.54376Q103.55 318.29376 104.1125 318.1375Q104.69063 317.96564 105.33125 317.96564Q106.31563 317.96564 107.05 318.2469Q107.78438 318.52814 108.12813 319.0125Q108.4875 319.48126 108.62813 320.29376L107.25313 320.48126Q107.15938 319.84064 106.70625 319.48126Q106.25313 319.1219 105.44063 319.1219Q104.47188 319.1219 104.05 319.45Q103.64375 319.7625 103.64375 320.1844Q103.64375 320.46564 103.81563 320.6844Q103.9875 320.90314 104.34688 321.0594Q104.56563 321.1375 105.59688 321.41876Q107.08125 321.8094 107.675 322.075Q108.26875 322.325 108.59688 322.8094Q108.94063 323.29376 108.94063 324.0125Q108.94063 324.71564 108.51875 325.34064Q108.1125 325.95 107.33125 326.29376Q106.56563 326.6375 105.59688 326.6375Q103.97188 326.6375 103.12813 325.96564Q102.28438 325.29376 102.05 323.96564ZM111.00313 326.45L111.00313 324.84064L112.6125 324.84064L112.6125 326.45L111.00313 326.45Z" fill-rule="nonzero"/><path fill="#9e9e9e" d="M21.378124 342.23126Q20.503124 341.91876 20.08125 341.325Q19.659374 340.73126 19.659374 339.90314Q19.659374 338.65314 20.55 337.8094Q21.45625 336.95 22.95625 336.95Q24.45625 336.95 25.3625 337.825Q26.284374 338.6844 26.284374 339.9344Q26.284374 340.73126 25.8625 341.325Q25.440624 341.91876 24.596874 342.23126Q25.64375 342.575 26.190624 343.34064Q26.753124 344.10626 26.753124 345.16876Q26.753124 346.6375 25.70625 347.65314Q24.675 348.65314 22.971874 348.65314Q21.284374 348.65314 20.2375 347.65314Q19.20625 346.6375 19.20625 345.1375Q19.20625 344.0125 19.76875 343.2625Q20.33125 342.5125 21.378124 342.23126ZM21.096874 339.85626Q21.096874 340.66876 21.6125 341.1844Q22.14375 341.7 22.9875 341.7Q23.8 341.7 24.315624 341.1844Q24.83125 340.66876 24.83125 339.9344Q24.83125 339.15314 24.3 338.6375Q23.76875 338.10626 22.971874 338.10626Q22.159374 338.10626 21.628124 338.6219Q21.096874 339.1375 21.096874 339.85626ZM20.64375 345.1375Q20.64375 345.7469 20.925 346.3094Q21.221874 346.8719 21.784374 347.1844Q22.346874 347.48126 22.9875 347.48126Q24.003124 347.48126 24.659374 346.84064Q25.315624 346.1844 25.315624 345.1844Q25.315624 344.16876 24.628124 343.5125Q23.95625 342.84064 22.940624 342.84064Q21.95625 342.84064 21.3 343.4969Q20.64375 344.15314 20.64375 345.1375ZM29.003124 348.45L29.003124 346.84064L30.6125 346.84064L30.6125 348.45L29.003124 348.45ZM32.315624 338.4969L32.315624 337.1375L39.721874 337.1375L39.721874 338.23126Q38.628124 339.40314 37.55 341.34064Q36.4875 343.2625 35.89375 345.29376Q35.471874 346.73126 35.3625 348.45L33.909374 348.45Q33.940624 347.09064 34.440624 345.1844Q34.95625 343.2625 35.89375 341.4969Q36.846874 339.71564 37.925 338.4969L32.315624 338.4969ZM41.4875 339.7469Q41.4875 338.5125 42.096874 337.65314Q42.721874 336.79376 43.89375 336.79376Q44.971874 336.79376 45.675 337.575Q46.378124 338.34064 46.378124 339.825Q46.378124 341.27814 45.659374 342.075Q44.95625 342.85626 43.909374 342.85626Q42.8625 342.85626 42.175 342.09064Q41.4875 341.3094 41.4875 339.7469ZM43.925 337.7625Q43.409374 337.7625 43.05 338.21564Q42.70625 338.66876 42.70625 339.8875Q42.70625 340.98126 43.05 341.4344Q43.409374 341.8875 43.925 341.8875Q44.45625 341.8875 44.8 341.4344Q45.159374 340.98126 45.159374 339.77814Q45.159374 338.66876 44.8 338.21564Q44.45625 337.7625 43.925 337.7625ZM43.940624 348.8719L50.20625 336.79376L51.346874 336.79376L45.096874 348.8719L43.940624 348.8719ZM48.89375 345.7625Q48.89375 344.52814 49.503124 343.66876Q50.128124 342.8094 51.3 342.8094Q52.378124 342.8094 53.08125 343.59064Q53.8 344.35626 53.8 345.84064Q53.8 347.29376 53.08125 348.09064Q52.3625 348.8719 51.315624 348.8719Q50.26875 348.8719 49.58125 348.09064Q48.89375 347.3094 48.89375 345.7625ZM51.346874 343.77814Q50.815624 343.77814 50.45625 344.23126Q50.1125 344.6844 50.1125 345.90314Q50.1125 346.9969 50.45625 347.45Q50.815624 347.90314 51.33125 347.90314Q51.878124 347.90314 52.221874 347.45Q52.565624 346.9969 52.565624 345.79376Q52.565624 344.6844 52.20625 344.23126Q51.8625 343.77814 51.346874 343.77814Z" fill-rule="nonzero"/><path stroke="#757575" stroke-width="1.0" stroke-linecap="butt" d="M18.55 331.95L145.23334 331.95L280.7558 343.6953" fill-rule="nonzero"/><path fill="#9e9e9e" d="M282.7558 343.6953C282.7558 342.59076 281.86035 341.6953 280.7558 341.6953C279.6512 341.6953 278.7558 342.59076 278.7558 343.6953C278.7558 344.7999 279.6512 345.6953 280.7558 345.6953C281.86035 345.6953 282.7558 344.7999 282.7558 343.6953" fill-rule="nonzero"/><path fill="#efefef" d="M481.71564 188.53874L481.71564 177.08562L489.9969 177.08562L489.9969 178.42937L483.23126 178.42937L483.23126 181.94499L489.575 181.94499L489.575 183.28874L483.23126 183.28874L483.23126 187.17937L490.2625 187.17937L490.2625 188.53874L481.71564 188.53874ZM495.575 187.27312L495.77814 188.52312Q495.1844 188.64812 494.71564 188.64812Q493.95 188.64812 493.52814 188.41374Q493.10626 188.16374 492.9344 187.77312Q492.7625 187.36687 492.7625 186.10124L492.7625 181.33562L491.73126 181.33562L491.73126 180.24187L492.7625 180.24187L492.7625 178.17937L494.16876 177.33562L494.16876 180.24187L495.575 180.24187L495.575 181.33562L494.16876 181.33562L494.16876 186.17937Q494.16876 186.78874 494.23126 186.96062Q494.3094 187.13249 494.48126 187.24187Q494.65314 187.33562 494.96564 187.33562Q495.2 187.33562 495.575 187.27312ZM496.5125 188.53874L496.5125 177.08562L497.91876 177.08562L497.91876 181.19499Q498.90314 180.05437 500.40314 180.05437Q501.325 180.05437 501.9969 180.41374Q502.6844 180.77312 502.96564 181.41374Q503.2625 182.05437 503.2625 183.27312L503.2625 188.53874L501.85626 188.53874L501.85626 183.27312Q501.85626 182.22624 501.40314 181.74187Q500.95 181.25749 500.10626 181.25749Q499.48126 181.25749 498.9344 181.58562Q498.3875 181.91374 498.15314 182.47624Q497.91876 183.02312 497.91876 183.99187L497.91876 188.53874L496.5125 188.53874ZM505.5125 188.53874L505.5125 180.24187L506.77814 180.24187L506.77814 181.41374Q507.6844 180.05437 509.41876 180.05437Q510.16876 180.05437 510.79376 180.31999Q511.41876 180.58562 511.73126 181.02312Q512.04376 181.46062 512.16876 182.06999Q512.2469 182.46062 512.2469 183.42937L512.2469 188.53874L510.84064 188.53874L510.84064 183.49187Q510.84064 182.63249 510.66876 182.21062Q510.5125 181.77312 510.09064 181.52312Q509.6844 181.27312 509.1219 181.27312Q508.21564 181.27312 507.5594 181.85124Q506.91876 182.41374 506.91876 184.00749L506.91876 188.53874L505.5125 188.53874ZM514.5125 178.69499L514.5125 177.08562L515.91876 177.08562L515.91876 178.69499L514.5125 178.69499ZM514.5125 188.53874L514.5125 180.24187L515.91876 180.24187L515.91876 188.53874L514.5125 188.53874ZM523.91876 185.49187L525.3094 185.67937Q525.075 187.10124 524.1375 187.91374Q523.21564 188.72624 521.85626 188.72624Q520.15314 188.72624 519.10626 187.61687Q518.075 186.49187 518.075 184.41374Q518.075 183.06999 518.5125 182.06999Q518.96564 181.05437 519.8719 180.55437Q520.79376 180.05437 521.85626 180.05437Q523.21564 180.05437 524.075 180.74187Q524.9344 181.41374 525.16876 182.67937L523.8094 182.88249Q523.60626 182.05437 523.10626 181.63249Q522.6219 181.21062 521.91876 181.21062Q520.85626 181.21062 520.1844 181.97624Q519.52814 182.72624 519.52814 184.38249Q519.52814 186.05437 520.16876 186.81999Q520.8094 187.56999 521.84064 187.56999Q522.66876 187.56999 523.21564 187.06999Q523.77814 186.55437 523.91876 185.49187ZM536.04376 184.03874L536.04376 182.69499L540.90314 182.69499L540.90314 186.94499Q539.77814 187.83562 538.59064 188.28874Q537.40314 188.74187 536.15314 188.74187Q534.46564 188.74187 533.09064 188.02312Q531.71564 187.28874 531.0125 185.92937Q530.3094 184.55437 530.3094 182.86687Q530.3094 181.19499 530.9969 179.74187Q531.7 178.28874 533.0125 177.58562Q534.325 176.88249 536.04376 176.88249Q537.27814 176.88249 538.27814 177.28874Q539.29376 177.69499 539.85626 178.41374Q540.4344 179.13249 540.73126 180.28874L539.35626 180.66374Q539.10626 179.78874 538.71564 179.28874Q538.34064 178.78874 537.6219 178.49187Q536.91876 178.17937 536.04376 178.17937Q535.0125 178.17937 534.2469 178.50749Q533.4969 178.81999 533.02814 179.33562Q532.5594 179.85124 532.3094 180.46062Q531.8719 181.52312 531.8719 182.77312Q531.8719 184.30437 532.3875 185.33562Q532.91876 186.36687 533.91876 186.86687Q534.9344 187.36687 536.075 187.36687Q537.0594 187.36687 537.9969 186.99187Q538.9344 186.60124 539.41876 186.17937L539.41876 184.03874L536.04376 184.03874ZM542.4969 188.53874L542.4969 180.24187L543.7625 180.24187L543.7625 181.49187Q544.2469 180.61687 544.65314 180.33562Q545.0594 180.05437 545.5594 180.05437Q546.2625 180.05437 546.9969 180.50749L546.5125 181.80437Q545.9969 181.50749 545.48126 181.50749Q545.02814 181.50749 544.65314 181.78874Q544.29376 182.05437 544.1375 182.55437Q543.90314 183.30437 543.90314 184.19499L543.90314 188.53874L542.4969 188.53874ZM546.98126 184.38249Q546.98126 182.08562 548.2625 180.97624Q549.34064 180.05437 550.8719 180.05437Q552.59064 180.05437 553.66876 181.17937Q554.7625 182.28874 554.7625 184.27312Q554.7625 185.86687 554.27814 186.78874Q553.79376 187.71062 552.8719 188.22624Q551.96564 188.72624 550.8719 188.72624Q549.1375 188.72624 548.0594 187.61687Q546.98126 186.49187 546.98126 184.38249ZM548.4344 184.38249Q548.4344 185.97624 549.1219 186.77312Q549.825 187.56999 550.8719 187.56999Q551.91876 187.56999 552.60626 186.77312Q553.3094 185.97624 553.3094 184.33562Q553.3094 182.80437 552.60626 182.00749Q551.91876 181.21062 550.8719 181.21062Q549.825 181.21062 549.1219 182.00749Q548.4344 182.78874 548.4344 184.38249ZM561.95 188.53874L561.95 187.31999Q560.98126 188.72624 559.3094 188.72624Q558.575 188.72624 557.9344 188.44499Q557.3094 188.16374 556.9969 187.74187Q556.6844 187.30437 556.5594 186.69499Q556.48126 186.27312 556.48126 185.38249L556.48126 180.24187L557.8875 180.24187L557.8875 184.83562Q557.8875 185.94499 557.96564 186.31999Q558.10626 186.88249 558.52814 187.19499Q558.96564 187.50749 559.59064 187.50749Q560.23126 187.50749 560.77814 187.19499Q561.34064 186.86687 561.5594 186.30437Q561.79376 185.74187 561.79376 184.67937L561.79376 180.24187L563.2 180.24187L563.2 188.53874L561.95 188.53874ZM565.5125 191.72624L565.5125 180.24187L566.79376 180.24187L566.79376 181.31999Q567.2469 180.67937 567.8094 180.36687Q568.3875 180.05437 569.2 180.05437Q570.2625 180.05437 571.075 180.60124Q571.8875 181.14812 572.29376 182.14812Q572.71564 183.13249 572.71564 184.31999Q572.71564 185.60124 572.2469 186.61687Q571.79376 187.63249 570.91876 188.17937Q570.0594 188.72624 569.09064 188.72624Q568.3875 188.72624 567.825 188.42937Q567.27814 188.13249 566.91876 187.67937L566.91876 191.72624L565.5125 191.72624ZM566.77814 184.42937Q566.77814 186.03874 567.41876 186.80437Q568.075 187.56999 568.9969 187.56999Q569.9344 187.56999 570.60626 186.77312Q571.27814 185.97624 571.27814 184.31999Q571.27814 182.72624 570.6219 181.94499Q569.96564 181.14812 569.0594 181.14812Q568.16876 181.14812 567.46564 181.99187Q566.77814 182.83562 566.77814 184.42937ZM573.95 186.05437L575.34064 185.83562Q575.45 186.67937 575.98126 187.13249Q576.52814 187.56999 577.48126 187.56999Q578.45 187.56999 578.91876 187.17937Q579.3875 186.77312 579.3875 186.24187Q579.3875 185.77312 578.98126 185.49187Q578.6844 185.30437 577.54376 185.02312Q575.9969 184.63249 575.3875 184.35124Q574.79376 184.05437 574.48126 183.55437Q574.1844 183.05437 574.1844 182.44499Q574.1844 181.88249 574.4344 181.41374Q574.6844 180.94499 575.1219 180.63249Q575.45 180.38249 576.0125 180.22624Q576.59064 180.05437 577.23126 180.05437Q578.21564 180.05437 578.95 180.33562Q579.6844 180.61687 580.02814 181.10124Q580.3875 181.56999 580.52814 182.38249L579.15314 182.56999Q579.0594 181.92937 578.60626 181.56999Q578.15314 181.21062 577.34064 181.21062Q576.3719 181.21062 575.95 181.53874Q575.54376 181.85124 575.54376 182.27312Q575.54376 182.55437 575.71564 182.77312Q575.8875 182.99187 576.2469 183.14812Q576.46564 183.22624 577.4969 183.50749Q578.98126 183.89812 579.575 184.16374Q580.16876 184.41374 580.4969 184.89812Q580.84064 185.38249 580.84064 186.10124Q580.84064 186.80437 580.41876 187.42937Q580.0125 188.03874 579.23126 188.38249Q578.46564 188.72624 577.4969 188.72624Q575.8719 188.72624 575.02814 188.05437Q574.1844 187.38249 573.95 186.05437Z" fill-rule="nonzero"/><path fill="#9e9e9e" d="M541.6219 210.53874L541.6219 207.78874L536.65314 207.78874L536.65314 206.50749L541.8875 199.08562L543.02814 199.08562L543.02814 206.50749L544.575 206.50749L544.575 207.78874L543.02814 207.78874L543.02814 210.53874L541.6219 210.53874ZM541.6219 206.50749L541.6219 201.33562L538.04376 206.50749L541.6219 206.50749ZM546.21564 200.58562L546.21564 199.22624L553.6219 199.22624L553.6219 200.31999Q552.52814 201.49187 551.45 203.42937Q550.3875 205.35124 549.79376 207.38249Q549.3719 208.81999 549.2625 210.53874L547.8094 210.53874Q547.84064 209.17937 548.34064 207.27312Q548.85626 205.35124 549.79376 203.58562Q550.7469 201.80437 551.825 200.58562L546.21564 200.58562ZM555.90314 210.53874L555.90314 208.92937L557.5125 208.92937L557.5125 210.53874L555.90314 210.53874ZM561.27814 204.31999Q560.40314 204.00749 559.98126 203.41374Q559.5594 202.81999 559.5594 201.99187Q559.5594 200.74187 560.45 199.89812Q561.35626 199.03874 562.85626 199.03874Q564.35626 199.03874 565.2625 199.91374Q566.1844 200.77312 566.1844 202.02312Q566.1844 202.81999 565.7625 203.41374Q565.34064 204.00749 564.4969 204.31999Q565.54376 204.66374 566.09064 205.42937Q566.65314 206.19499 566.65314 207.25749Q566.65314 208.72624 565.60626 209.74187Q564.575 210.74187 562.8719 210.74187Q561.1844 210.74187 560.1375 209.74187Q559.10626 208.72624 559.10626 207.22624Q559.10626 206.10124 559.66876 205.35124Q560.23126 204.60124 561.27814 204.31999ZM560.9969 201.94499Q560.9969 202.75749 561.5125 203.27312Q562.04376 203.78874 562.8875 203.78874Q563.7 203.78874 564.21564 203.27312Q564.73126 202.75749 564.73126 202.02312Q564.73126 201.24187 564.2 200.72624Q563.66876 200.19499 562.8719 200.19499Q562.0594 200.19499 561.52814 200.71062Q560.9969 201.22624 560.9969 201.94499ZM560.54376 207.22624Q560.54376 207.83562 560.825 208.39812Q561.1219 208.96062 561.6844 209.27312Q562.2469 209.56999 562.8875 209.56999Q563.90314 209.56999 564.5594 208.92937Q565.21564 208.27312 565.21564 207.27312Q565.21564 206.25749 564.52814 205.60124Q563.85626 204.92937 562.84064 204.92937Q561.85626 204.92937 561.2 205.58562Q560.54376 206.24187 560.54376 207.22624ZM568.3875 201.83562Q568.3875 200.60124 568.9969 199.74187Q569.6219 198.88249 570.79376 198.88249Q571.8719 198.88249 572.575 199.66374Q573.27814 200.42937 573.27814 201.91374Q573.27814 203.36687 572.5594 204.16374Q571.85626 204.94499 570.8094 204.94499Q569.7625 204.94499 569.075 204.17937Q568.3875 203.39812 568.3875 201.83562ZM570.825 199.85124Q570.3094 199.85124 569.95 200.30437Q569.60626 200.75749 569.60626 201.97624Q569.60626 203.06999 569.95 203.52312Q570.3094 203.97624 570.825 203.97624Q571.35626 203.97624 571.7 203.52312Q572.0594 203.06999 572.0594 201.86687Q572.0594 200.75749 571.7 200.30437Q571.35626 199.85124 570.825 199.85124ZM570.84064 210.96062L577.10626 198.88249L578.2469 198.88249L571.9969 210.96062L570.84064 210.96062ZM575.79376 207.85124Q575.79376 206.61687 576.40314 205.75749Q577.02814 204.89812 578.2 204.89812Q579.27814 204.89812 579.98126 205.67937Q580.7 206.44499 580.7 207.92937Q580.7 209.38249 579.98126 210.17937Q579.2625 210.96062 578.21564 210.96062Q577.16876 210.96062 576.48126 210.17937Q575.79376 209.39812 575.79376 207.85124ZM578.2469 205.86687Q577.71564 205.86687 577.35626 206.31999Q577.0125 206.77312 577.0125 207.99187Q577.0125 209.08562 577.35626 209.53874Q577.71564 209.99187 578.23126 209.99187Q578.77814 209.99187 579.1219 209.53874Q579.46564 209.08562 579.46564 207.88249Q579.46564 206.77312 579.10626 206.31999Q578.7625 205.86687 578.2469 205.86687Z" fill-rule="nonzero"/><path stroke="#757575" stroke-width="1.0" stroke-linecap="butt" d="M581.45 194.03874L454.76666 194.03874L440.99887 194.03874" fill-rule="nonzero"/><path fill="#9e9e9e" d="M442.99887 194.03874C442.99887 192.93417 442.10342 192.03874 440.99887 192.03874C439.8943 192.03874 438.99887 192.93417 438.99887 194.03874C438.99887 195.14331 439.8943 196.03874 440.99887 196.03874C442.10342 196.03874 442.99887 195.14331 442.99887 194.03874" fill-rule="nonzero"/><path fill="#f3f3f3" d="M271.26562 32.534374L273.15625 33.003124Q272.5625 35.346874 271.01562 36.58125Q269.46875 37.8 267.21875 37.8Q264.90625 37.8 263.45312 36.8625Q262.01562 35.909374 261.25 34.128124Q260.5 32.33125 260.5 30.284374Q260.5 28.05 261.34375 26.39375Q262.20312 24.721874 263.78125 23.8625Q265.35938 22.9875 267.25 22.9875Q269.40625 22.9875 270.85938 24.08125Q272.32812 25.175 272.90625 27.159374L271.04688 27.596874Q270.54688 26.034374 269.59375 25.33125Q268.65625 24.6125 267.21875 24.6125Q265.5625 24.6125 264.45312 25.409374Q263.34375 26.190624 262.89062 27.534374Q262.45312 28.8625 262.45312 30.26875Q262.45312 32.096874 262.98438 33.471874Q263.51562 34.83125 264.64062 35.503124Q265.76562 36.175 267.0625 36.175Q268.65625 36.175 269.76562 35.253124Q270.875 34.33125 271.26562 32.534374ZM281.59375 36.26875Q280.60938 37.096874 279.70312 37.440624Q278.79688 37.784374 277.76562 37.784374Q276.0625 37.784374 275.14062 36.95625Q274.21875 36.1125 274.21875 34.815624Q274.21875 34.05 274.5625 33.425Q274.92188 32.8 275.48438 32.425Q276.04688 32.034374 276.75 31.83125Q277.26562 31.70625 278.3125 31.565624Q280.4375 31.315624 281.4375 30.971874Q281.45312 30.6125 281.45312 30.503124Q281.45312 29.440624 280.95312 28.9875Q280.28125 28.39375 278.95312 28.39375Q277.70312 28.39375 277.10938 28.83125Q276.53125 29.26875 276.25 30.378124L274.53125 30.14375Q274.76562 29.034374 275.29688 28.3625Q275.82812 27.675 276.84375 27.315624Q277.85938 26.940624 279.20312 26.940624Q280.53125 26.940624 281.35938 27.253124Q282.1875 27.565624 282.57812 28.05Q282.96875 28.51875 283.125 29.2375Q283.21875 29.690624 283.21875 30.8625L283.21875 33.20625Q283.21875 35.659374 283.32812 36.315624Q283.4375 36.95625 283.78125 37.55L281.9375 37.55Q281.67188 37.003124 281.59375 36.26875ZM281.4375 32.346874Q280.48438 32.7375 278.5625 33.003124Q277.48438 33.159374 277.03125 33.3625Q276.59375 33.55 276.34375 33.925Q276.09375 34.3 276.09375 34.76875Q276.09375 35.471874 276.625 35.940624Q277.15625 36.409374 278.1875 36.409374Q279.20312 36.409374 279.98438 35.971874Q280.78125 35.51875 281.15625 34.753124Q281.4375 34.14375 281.4375 32.9875L281.4375 32.346874ZM289.65625 35.971874L289.90625 37.534374Q289.17188 37.690624 288.57812 37.690624Q287.625 37.690624 287.09375 37.39375Q286.57812 37.08125 286.35938 36.596874Q286.14062 36.096874 286.14062 34.51875L286.14062 28.55L284.85938 28.55L284.85938 27.175L286.14062 27.175L286.14062 24.6125L287.89062 23.55L287.89062 27.175L289.65625 27.175L289.65625 28.55L287.89062 28.55L287.89062 34.6125Q287.89062 35.3625 287.98438 35.58125Q288.07812 35.784374 288.28125 35.925Q288.5 36.05 288.89062 36.05Q289.17188 36.05 289.65625 35.971874ZM298.92188 34.20625L300.73438 34.440624Q300.3125 36.01875 299.14062 36.909374Q297.98438 37.784374 296.17188 37.784374Q293.90625 37.784374 292.5625 36.39375Q291.23438 34.9875 291.23438 32.45625Q291.23438 29.83125 292.57812 28.39375Q293.92188 26.940624 296.07812 26.940624Q298.15625 26.940624 299.46875 28.3625Q300.79688 29.76875 300.79688 32.346874Q300.79688 32.503124 300.78125 32.815624L293.04688 32.815624Q293.14062 34.51875 294.01562 35.425Q294.89062 36.33125 296.1875 36.33125Q297.15625 36.33125 297.82812 35.83125Q298.51562 35.315624 298.92188 34.20625ZM293.14062 31.3625L298.9375 31.3625Q298.82812 30.065624 298.28125 29.409374Q297.4375 28.39375 296.09375 28.39375Q294.89062 28.39375 294.0625 29.20625Q293.23438 30.003124 293.14062 31.3625ZM302.5 38.409374L304.20312 38.659374Q304.3125 39.45625 304.79688 39.815624Q305.45312 40.3 306.59375 40.3Q307.8125 40.3 308.46875 39.815624Q309.14062 39.33125 309.375 38.45625Q309.51562 37.909374 309.5 36.190624Q308.34375 37.55 306.625 37.55Q304.48438 37.55 303.3125 36.003124Q302.14062 34.45625 302.14062 32.3Q302.14062 30.815624 302.67188 29.565624Q303.21875 28.315624 304.23438 27.628124Q305.26562 26.940624 306.64062 26.940624Q308.46875 26.940624 309.67188 28.425L309.67188 27.175L311.28125 27.175L311.28125 36.14375Q311.28125 38.565624 310.78125 39.565624Q310.29688 40.58125 309.21875 41.159374Q308.15625 41.753124 306.59375 41.753124Q304.75 41.753124 303.59375 40.925Q302.45312 40.096874 302.5 38.409374ZM303.95312 32.175Q303.95312 34.221874 304.76562 35.159374Q305.57812 36.096874 306.79688 36.096874Q308.0 36.096874 308.8125 35.159374Q309.64062 34.221874 309.64062 32.2375Q309.64062 30.33125 308.79688 29.3625Q307.95312 28.39375 306.76562 28.39375Q305.59375 28.39375 304.76562 29.346874Q303.95312 30.3 303.95312 32.175ZM313.17188 32.3625Q313.17188 29.4875 314.76562 28.096874Q316.10938 26.940624 318.03125 26.940624Q320.17188 26.940624 321.51562 28.346874Q322.875 29.753124 322.875 32.221874Q322.875 34.221874 322.28125 35.378124Q321.6875 36.51875 320.53125 37.159374Q319.39062 37.784374 318.03125 37.784374Q315.84375 37.784374 314.5 36.39375Q313.17188 34.9875 313.17188 32.3625ZM314.96875 32.3625Q314.96875 34.3625 315.82812 35.346874Q316.70312 36.33125 318.03125 36.33125Q319.34375 36.33125 320.20312 35.346874Q321.07812 34.346874 321.07812 32.3Q321.07812 30.378124 320.20312 29.39375Q319.32812 28.39375 318.03125 28.39375Q316.70312 28.39375 315.82812 29.39375Q314.96875 30.378124 314.96875 32.3625ZM324.79688 37.55L324.79688 27.175L326.375 27.175L326.375 28.753124Q326.98438 27.64375 327.5 27.3Q328.01562 26.940624 328.625 26.940624Q329.51562 26.940624 330.4375 27.503124L329.82812 29.14375Q329.1875 28.753124 328.54688 28.753124Q327.96875 28.753124 327.5 29.1125Q327.04688 29.45625 326.84375 30.065624Q326.5625 31.003124 326.5625 32.1125L326.5625 37.55L324.79688 37.55ZM331.73438 41.55L331.54688 39.89375Q332.125 40.05 332.54688 40.05Q333.14062 40.05 333.48438 39.846874Q333.84375 39.659374 334.0625 39.315624Q334.23438 39.05 334.60938 38.003124Q334.65625 37.846874 334.76562 37.565624L330.82812 27.175L332.71875 27.175L334.875 33.190624Q335.29688 34.33125 335.625 35.58125Q335.9375 34.378124 336.34375 33.221874L338.5625 27.175L340.32812 27.175L336.375 37.721874Q335.75 39.440624 335.39062 40.08125Q334.92188 40.95625 334.3125 41.346874Q333.71875 41.753124 332.875 41.753124Q332.35938 41.753124 331.73438 41.55Z" fill-rule="nonzero"/></svg>