<svg version="1.1" viewBox="0.0 0.0 600.0 371.0" fill="none" stroke="none" stroke-linecap="square" stroke-miterlimit="10" width="600" height="371" xmlns:xlink="http://www.w3.org/1999/xlink" xmlns="http://www.w3.org/2000/svg"><path fill="#ffffff" fill-opacity="0.0" d="M0 0L600.0 0L600.0 371.0L0 371.0L0 0Z" fill-rule="nonzero"/><path fill="#f7d750" d="M249.1188 63.888393C265.4261 57.953026 282.64615 54.916668 300.0 54.916668L300.0 166.49167C295.66153 166.49167 291.35654 167.25076 287.2797 168.7346Z" fill-rule="nonzero"/><path fill="#e5a345" d="M153.49344 177.85027C162.7227 125.508514 199.17488 82.0665 249.1188 63.888393L287.2797 168.7346C274.79373 173.27913 265.68066 184.13963 263.37335 197.22507Z" fill-rule="nonzero"/><path fill="#df8d43" d="M204.37463 317.6452C163.65997 283.48157 144.26418 230.19203 153.49344 177.85027L263.37335 197.22507C261.06604 210.3105 265.91498 223.63289 276.09366 232.1738Z" fill-rule="nonzero"/><path fill="#cf4366" d="M300.0 54.916668C365.72787 54.916668 423.66595 98.04996 442.5169 161.01657C461.36786 223.98318 436.66345 291.858 381.74863 327.97607C326.83377 364.09412 254.7251 359.8943 204.37463 317.6452L276.09366 232.1738C288.68127 242.73607 306.70844 243.78603 320.43716 234.75652C334.16586 225.727 340.34198 208.7583 335.6292 193.01665C330.91647 177.275 316.43198 166.49167 300.0 166.49167Z" fill-rule="nonzero"/><path fill="#ffffff" d="M379.12015 235.2689L377.55765 235.3939Q377.3389 234.47203 376.94827 234.05016Q376.30765 233.36266 375.37015 233.36266Q374.62015 233.36266 374.04202 233.78453Q373.29202 234.3314 372.85452 235.37828Q372.43265 236.42516 372.41702 238.36266Q372.99515 237.48766 373.80765 237.06578Q374.63577 236.6439 375.54202 236.6439Q377.13577 236.6439 378.24515 237.81578Q379.35452 238.97203 379.35452 240.81578Q379.35452 242.03453 378.82327 243.0814Q378.30765 244.11266 377.38577 244.67516Q376.47952 245.22203 375.32327 245.22203Q373.3389 245.22203 372.0889 243.7689Q370.8389 242.31578 370.8389 238.97203Q370.8389 235.23766 372.22952 233.53453Q373.43265 232.06578 375.4639 232.06578Q376.99515 232.06578 377.9639 232.92516Q378.93265 233.7689 379.12015 235.2689ZM372.66702 240.8314Q372.66702 241.6439 373.01077 242.3939Q373.35452 243.1439 373.97952 243.53453Q374.60452 243.92516 375.29202 243.92516Q376.29202 243.92516 377.01077 243.11266Q377.72952 242.30016 377.72952 240.90953Q377.72952 239.5814 377.01077 238.81578Q376.30765 238.03453 375.22952 238.03453Q374.1514 238.03453 373.4014 238.81578Q372.66702 239.5814 372.66702 240.8314ZM386.87015 245.00328L385.29202 245.00328L385.29202 234.92516Q384.7139 235.47203 383.79202 236.0189Q382.87015 236.55016 382.12015 236.8314L382.12015 235.30016Q383.44827 234.67516 384.44827 233.78453Q385.44827 232.8939 385.85452 232.06578L386.87015 232.06578L386.87015 245.00328ZM391.80765 245.00328L391.80765 243.2064L393.60452 243.2064L393.60452 245.00328L391.80765 245.00328ZM401.87015 245.00328L400.29202 245.00328L400.29202 234.92516Q399.7139 235.47203 398.79202 236.0189Q397.87015 236.55016 397.12015 236.8314L397.12015 235.30016Q398.44827 234.67516 399.44827 233.78453Q400.44827 232.8939 400.85452 232.06578L401.87015 232.06578L401.87015 245.00328ZM406.2139 235.2064Q406.2139 233.8314 406.9014 232.86266Q407.60452 231.8939 408.91702 231.8939Q410.13577 231.8939 410.93265 232.7689Q411.72952 233.62828 411.72952 235.31578Q411.72952 236.94078 410.91702 237.8314Q410.12015 238.7064 408.93265 238.7064Q407.7764 238.7064 406.99515 237.84703Q406.2139 236.97203 406.2139 235.2064ZM408.9639 232.98766Q408.37015 232.98766 407.97952 233.50328Q407.5889 234.00328 407.5889 235.36266Q407.5889 236.61266 407.97952 237.11266Q408.38577 237.61266 408.9639 237.61266Q409.55765 237.61266 409.94827 237.11266Q410.3389 236.59703 410.3389 235.25328Q410.3389 234.00328 409.94827 233.50328Q409.55765 232.98766 408.9639 232.98766ZM408.97952 245.47203L416.0264 231.8939L417.30765 231.8939L410.2764 245.47203L408.97952 245.47203ZM414.54202 241.97203Q414.54202 240.59703 415.22952 239.62828Q415.93265 238.65953 417.26077 238.65953Q418.47952 238.65953 419.26077 239.53453Q420.05765 240.3939 420.05765 242.0814Q420.05765 243.7064 419.26077 244.59703Q418.4639 245.47203 417.2764 245.47203Q416.10452 245.47203 415.32327 244.59703Q414.54202 243.72203 414.54202 241.97203ZM417.30765 239.75328Q416.7139 239.75328 416.32327 240.2689Q415.93265 240.7689 415.93265 242.1439Q415.93265 243.36266 416.32327 243.87828Q416.7139 244.3939 417.29202 244.3939Q417.9014 244.3939 418.29202 243.87828Q418.68265 243.36266 418.68265 242.0189Q418.68265 240.7689 418.29202 240.2689Q417.9014 239.75328 417.30765 239.75328Z" fill-rule="nonzero"/><path fill="#ffffff" d="M185.53609 245.00328L183.95796 245.00328L183.95796 234.92516Q183.37984 235.47203 182.45796 236.0189Q181.53609 236.55016 180.78609 236.8314L180.78609 235.30016Q182.11421 234.67516 183.11421 233.78453Q184.11421 232.8939 184.52046 232.06578L185.53609 232.06578L185.53609 245.00328ZM197.78609 235.2689L196.22359 235.3939Q196.00484 234.47203 195.61421 234.05016Q194.97359 233.36266 194.03609 233.36266Q193.28609 233.36266 192.70796 233.78453Q191.95796 234.3314 191.52046 235.37828Q191.09859 236.42516 191.08296 238.36266Q191.66109 237.48766 192.47359 237.06578Q193.30171 236.6439 194.20796 236.6439Q195.80171 236.6439 196.91109 237.81578Q198.02046 238.97203 198.02046 240.81578Q198.02046 242.03453 197.48921 243.0814Q196.97359 244.11266 196.05171 244.67516Q195.14546 245.22203 193.98921 245.22203Q192.00484 245.22203 190.75484 243.7689Q189.50484 242.31578 189.50484 238.97203Q189.50484 235.23766 190.89546 233.53453Q192.09859 232.06578 194.12984 232.06578Q195.66109 232.06578 196.62984 232.92516Q197.59859 233.7689 197.78609 235.2689ZM191.33296 240.8314Q191.33296 241.6439 191.67671 242.3939Q192.02046 243.1439 192.64546 243.53453Q193.27046 243.92516 193.95796 243.92516Q194.95796 243.92516 195.67671 243.11266Q196.39546 242.30016 196.39546 240.90953Q196.39546 239.5814 195.67671 238.81578Q194.97359 238.03453 193.89546 238.03453Q192.81734 238.03453 192.06734 238.81578Q191.33296 239.5814 191.33296 240.8314ZM200.47359 245.00328L200.47359 243.2064L202.27046 243.2064L202.27046 245.00328L200.47359 245.00328ZM204.69234 233.80016L204.69234 232.28453L213.02046 232.28453L213.02046 233.5189Q211.80171 234.8314 210.58296 237.00328Q209.37984 239.15953 208.72359 241.4564Q208.23921 243.0814 208.11421 245.00328L206.48921 245.00328Q206.52046 243.48766 207.08296 241.3314Q207.66109 239.17516 208.72359 237.17516Q209.78609 235.17516 210.98921 233.80016L204.69234 233.80016ZM214.87984 235.2064Q214.87984 233.8314 215.56734 232.86266Q216.27046 231.8939 217.58296 231.8939Q218.80171 231.8939 219.59859 232.7689Q220.39546 233.62828 220.39546 235.31578Q220.39546 236.94078 219.58296 237.8314Q218.78609 238.7064 217.59859 238.7064Q216.44234 238.7064 215.66109 237.84703Q214.87984 236.97203 214.87984 235.2064ZM217.62984 232.98766Q217.03609 232.98766 216.64546 233.50328Q216.25484 234.00328 216.25484 235.36266Q216.25484 236.61266 216.64546 237.11266Q217.05171 237.61266 217.62984 237.61266Q218.22359 237.61266 218.61421 237.11266Q219.00484 236.59703 219.00484 235.25328Q219.00484 234.00328 218.61421 233.50328Q218.22359 232.98766 217.62984 232.98766ZM217.64546 245.47203L224.69234 231.8939L225.97359 231.8939L218.94234 245.47203L217.64546 245.47203ZM223.20796 241.97203Q223.20796 240.59703 223.89546 239.62828Q224.59859 238.65953 225.92671 238.65953Q227.14546 238.65953 227.92671 239.53453Q228.72359 240.3939 228.72359 242.0814Q228.72359 243.7064 227.92671 244.59703Q227.12984 245.47203 225.94234 245.47203Q224.77046 245.47203 223.98921 244.59703Q223.20796 243.72203 223.20796 241.97203ZM225.97359 239.75328Q225.37984 239.75328 224.98921 240.2689Q224.59859 240.7689 224.59859 242.1439Q224.59859 243.36266 224.98921 243.87828Q225.37984 244.3939 225.95796 244.3939Q226.56734 244.3939 226.95796 243.87828Q227.34859 243.36266 227.34859 242.0189Q227.34859 240.7689 226.95796 240.2689Q226.56734 239.75328 225.97359 239.75328Z" fill-rule="nonzero"/><path fill="#ffffff" d="M203.54012 145.01633L201.96199 145.01633L201.96199 134.9382Q201.38387 135.48508 200.46199 136.03195Q199.54012 136.5632 198.79012 136.84445L198.79012 135.3132Q200.11824 134.6882 201.11824 133.79758Q202.11824 132.90695 202.52449 132.07883L203.54012 132.07883L203.54012 145.01633ZM215.79012 135.28195L214.22762 135.40695Q214.00887 134.48508 213.61824 134.0632Q212.97762 133.3757 212.04012 133.3757Q211.29012 133.3757 210.71199 133.79758Q209.96199 134.34445 209.52449 135.39133Q209.10262 136.4382 209.08699 138.3757Q209.66512 137.5007 210.47762 137.07883Q211.30574 136.65695 212.21199 136.65695Q213.80574 136.65695 214.91512 137.82883Q216.02449 138.98508 216.02449 140.82883Q216.02449 142.04758 215.49324 143.09445Q214.97762 144.1257 214.05574 144.6882Q213.14949 145.23508 211.99324 145.23508Q210.00887 145.23508 208.75887 143.78195Q207.50887 142.32883 207.50887 138.98508Q207.50887 135.2507 208.89949 133.54758Q210.10262 132.07883 212.13387 132.07883Q213.66512 132.07883 214.63387 132.9382Q215.60262 133.78195 215.79012 135.28195ZM209.33699 140.84445Q209.33699 141.65695 209.68074 142.40695Q210.02449 143.15695 210.64949 143.54758Q211.27449 143.9382 211.96199 143.9382Q212.96199 143.9382 213.68074 143.1257Q214.39949 142.3132 214.39949 140.92258Q214.39949 139.59445 213.68074 138.82883Q212.97762 138.04758 211.89949 138.04758Q210.82137 138.04758 210.07137 138.82883Q209.33699 139.59445 209.33699 140.84445ZM218.47762 145.01633L218.47762 143.21945L220.27449 143.21945L220.27449 145.01633L218.47762 145.01633ZM222.69637 133.8132L222.69637 132.29758L231.02449 132.29758L231.02449 133.53195Q229.80574 134.84445 228.58699 137.01633Q227.38387 139.17258 226.72762 141.46945Q226.24324 143.09445 226.11824 145.01633L224.49324 145.01633Q224.52449 143.5007 225.08699 141.34445Q225.66512 139.1882 226.72762 137.1882Q227.79012 135.1882 228.99324 133.8132L222.69637 133.8132ZM232.88387 135.21945Q232.88387 133.84445 233.57137 132.8757Q234.27449 131.90695 235.58699 131.90695Q236.80574 131.90695 237.60262 132.78195Q238.39949 133.64133 238.39949 135.32883Q238.39949 136.95383 237.58699 137.84445Q236.79012 138.71945 235.60262 138.71945Q234.44637 138.71945 233.66512 137.86008Q232.88387 136.98508 232.88387 135.21945ZM235.63387 133.0007Q235.04012 133.0007 234.64949 133.51633Q234.25887 134.01633 234.25887 135.3757Q234.25887 136.6257 234.64949 137.1257Q235.05574 137.6257 235.63387 137.6257Q236.22762 137.6257 236.61824 137.1257Q237.00887 136.61008 237.00887 135.26633Q237.00887 134.01633 236.61824 133.51633Q236.22762 133.0007 235.63387 133.0007ZM235.64949 145.48508L242.69637 131.90695L243.97762 131.90695L236.94637 145.48508L235.64949 145.48508ZM241.21199 141.98508Q241.21199 140.61008 241.89949 139.64133Q242.60262 138.67258 243.93074 138.67258Q245.14949 138.67258 245.93074 139.54758Q246.72762 140.40695 246.72762 142.09445Q246.72762 143.71945 245.93074 144.61008Q245.13387 145.48508 243.94637 145.48508Q242.77449 145.48508 241.99324 144.61008Q241.21199 143.73508 241.21199 141.98508ZM243.97762 139.76633Q243.38387 139.76633 242.99324 140.28195Q242.60262 140.78195 242.60262 142.15695Q242.60262 143.3757 242.99324 143.89133Q243.38387 144.40695 243.96199 144.40695Q244.57137 144.40695 244.96199 143.89133Q245.35262 143.3757 245.35262 142.03195Q245.35262 140.78195 244.96199 140.28195Q244.57137 139.76633 243.97762 139.76633Z" fill-rule="nonzero"/><path stroke="#ffffff" stroke-width="1.0" stroke-linejoin="round" stroke-linecap="round" d="M276.09366 232.1738C288.68127 242.73607 306.70844 243.78603 320.43716 234.75652C334.16586 225.727 340.34198 208.7583 335.6292 193.01665C330.91647 177.275 316.43198 166.49167 300.0 166.49167L300.0 54.916668C365.72787 54.916668 423.66595 98.04996 442.5169 161.01657C461.36786 223.98318 436.66345 291.858 381.74863 327.97607C326.83377 364.09412 254.7251 359.8943 204.37463 317.6452" fill-rule="nonzero"/><path stroke="#ffffff" stroke-width="1.0" stroke-linejoin="round" stroke-linecap="round" d="M263.37335 197.22507C261.06604 210.3105 265.91498 223.63289 276.09366 232.1738L204.37463 317.6452C163.65997 283.48157 144.26418 230.19203 153.49344 177.85027" fill-rule="nonzero"/><path stroke="#ffffff" stroke-width="1.0" stroke-linejoin="round" stroke-linecap="round" d="M287.2797 168.7346C274.79373 173.27913 265.68066 184.13963 263.37335 197.22507L153.49344 177.85027C162.7227 125.508514 199.17488 82.0665 249.1188 63.888393" fill-rule="nonzero"/><path stroke="#ffffff" stroke-width="1.0" stroke-linejoin="round" stroke-linecap="round" d="M300.0 166.49167C295.66153 166.49167 291.35654 167.25076 287.2797 168.7346L249.1188 63.888393C265.4261 57.953026 282.64615 54.916668 300.0 54.916668" fill-rule="nonzero"/><path fill="#efefef" d="M19.784374 69.916664L19.784374 58.46354L24.1125 58.46354Q25.253124 58.46354 25.846874 58.572914Q26.690624 58.71354 27.253124 59.104164Q27.83125 59.49479 28.175 60.21354Q28.534374 60.916664 28.534374 61.77604Q28.534374 63.229164 27.596874 64.24479Q26.675 65.260414 24.2375 65.260414L21.3 65.260414L21.3 69.916664L19.784374 69.916664ZM21.3 63.90104L24.26875 63.90104Q25.7375 63.90104 26.346874 63.354164Q26.971874 62.80729 26.971874 61.822914Q26.971874 61.104164 26.596874 60.58854Q26.2375 60.072914 25.64375 59.916664Q25.26875 59.80729 24.2375 59.80729L21.3 59.80729L21.3 63.90104ZM36.01875 68.885414Q35.2375 69.55729 34.51875 69.83854Q33.8 70.104164 32.971874 70.104164Q31.596874 70.104164 30.8625 69.43229Q30.128124 68.760414 30.128124 67.729164Q30.128124 67.11979 30.409374 66.61979Q30.690624 66.104164 31.128124 65.80729Q31.58125 65.49479 32.14375 65.33854Q32.565624 65.229164 33.39375 65.135414Q35.096874 64.93229 35.909374 64.65104Q35.909374 64.354164 35.909374 64.27604Q35.909374 63.416664 35.51875 63.072914Q34.971874 62.58854 33.909374 62.58854Q32.925 62.58854 32.440624 62.947914Q31.971874 63.291664 31.753124 64.166664L30.378124 63.979164Q30.565624 63.104164 30.9875 62.55729Q31.425 62.010414 32.2375 61.729164Q33.05 61.43229 34.1125 61.43229Q35.175 61.43229 35.83125 61.68229Q36.503124 61.93229 36.815624 62.30729Q37.128124 62.68229 37.253124 63.260414Q37.33125 63.61979 37.33125 64.55729L37.33125 66.43229Q37.33125 68.40104 37.409374 68.916664Q37.503124 69.43229 37.76875 69.916664L36.3 69.916664Q36.08125 69.479164 36.01875 68.885414ZM35.909374 65.74479Q35.14375 66.05729 33.6125 66.27604Q32.7375 66.40104 32.378124 66.55729Q32.01875 66.71354 31.815624 67.02604Q31.628124 67.322914 31.628124 67.68229Q31.628124 68.24479 32.05 68.61979Q32.4875 68.99479 33.3 68.99479Q34.1125 68.99479 34.7375 68.65104Q35.378124 68.291664 35.675 67.666664Q35.909374 67.197914 35.909374 66.260414L35.909374 65.74479ZM39.346874 70.604164L40.721874 70.80729Q40.8 71.447914 41.190624 71.729164Q41.721874 72.11979 42.628124 72.11979Q43.596874 72.11979 44.128124 71.729164Q44.659374 71.33854 44.846874 70.635414Q44.95625 70.21354 44.95625 68.822914Q44.034374 69.916664 42.659374 69.916664Q40.940624 69.916664 40.003124 68.68229Q39.065624 67.447914 39.065624 65.71354Q39.065624 64.52604 39.4875 63.52604Q39.925 62.52604 40.7375 61.979164Q41.565624 61.43229 42.659374 61.43229Q44.128124 61.43229 45.08125 62.61979L45.08125 61.61979L46.378124 61.61979L46.378124 68.791664Q46.378124 70.729164 45.9875 71.541664Q45.596874 72.354164 44.7375 72.822914Q43.878124 73.291664 42.628124 73.291664Q41.14375 73.291664 40.221874 72.61979Q39.315624 71.947914 39.346874 70.604164ZM40.51875 65.61979Q40.51875 67.24479 41.159374 67.99479Q41.815624 68.74479 42.784374 68.74479Q43.753124 68.74479 44.409374 68.010414Q45.065624 67.260414 45.065624 65.666664Q45.065624 64.135414 44.39375 63.36979Q43.721874 62.58854 42.76875 62.58854Q41.83125 62.58854 41.175 63.354164Q40.51875 64.11979 40.51875 65.61979ZM54.284374 67.24479L55.7375 67.416664Q55.39375 68.697914 54.45625 69.40104Q53.534374 70.104164 52.096874 70.104164Q50.26875 70.104164 49.20625 68.979164Q48.14375 67.854164 48.14375 65.83854Q48.14375 63.74479 49.221874 62.58854Q50.3 61.43229 52.01875 61.43229Q53.675 61.43229 54.721874 62.572914Q55.784374 63.697914 55.784374 65.74479Q55.784374 65.86979 55.784374 66.11979L49.596874 66.11979Q49.675 67.49479 50.3625 68.229164Q51.065624 68.947914 52.096874 68.947914Q52.878124 68.947914 53.425 68.541664Q53.971874 68.135414 54.284374 67.24479ZM49.675 64.96354L54.3 64.96354Q54.20625 63.916664 53.76875 63.40104Q53.096874 62.58854 52.034374 62.58854Q51.065624 62.58854 50.39375 63.24479Q49.7375 63.885414 49.675 64.96354Z" fill-rule="nonzero"/><path fill="#9e9e9e" d="M19.221874 88.916664L20.690624 88.791664Q20.8625 89.86979 21.45625 90.416664Q22.05 90.947914 22.89375 90.947914Q23.909374 90.947914 24.6125 90.18229Q25.315624 89.416664 25.315624 88.15104Q25.315624 86.947914 24.64375 86.260414Q23.971874 85.55729 22.878124 85.55729Q22.190624 85.55729 21.64375 85.86979Q21.096874 86.18229 20.784374 86.666664L19.471874 86.49479L20.58125 80.61979L26.26875 80.61979L26.26875 81.96354L21.70625 81.96354L21.08125 85.041664Q22.1125 84.322914 23.253124 84.322914Q24.753124 84.322914 25.784374 85.36979Q26.815624 86.40104 26.815624 88.02604Q26.815624 89.58854 25.909374 90.71354Q24.8 92.11979 22.89375 92.11979Q21.33125 92.11979 20.346874 91.24479Q19.3625 90.354164 19.221874 88.916664ZM29.003124 91.916664L29.003124 90.30729L30.6125 90.30729L30.6125 91.916664L29.003124 91.916664ZM39.51875 83.260414L38.1125 83.36979Q37.925 82.541664 37.58125 82.166664Q37.01875 81.572914 36.175 81.572914Q35.503124 81.572914 35.003124 81.947914Q34.33125 82.43229 33.940624 83.36979Q33.565624 84.291664 33.55 86.010414Q34.065624 85.229164 34.8 84.854164Q35.534374 84.479164 36.33125 84.479164Q37.7375 84.479164 38.721874 85.52604Q39.721874 86.55729 39.721874 88.197914Q39.721874 89.27604 39.253124 90.197914Q38.784374 91.11979 37.971874 91.61979Q37.159374 92.11979 36.128124 92.11979Q34.378124 92.11979 33.26875 90.822914Q32.159374 89.52604 32.159374 86.55729Q32.159374 83.229164 33.378124 81.729164Q34.45625 80.416664 36.26875 80.416664Q37.6125 80.416664 38.471874 81.18229Q39.346874 81.93229 39.51875 83.260414ZM33.76875 88.197914Q33.76875 88.93229 34.08125 89.604164Q34.39375 90.260414 34.940624 90.604164Q35.503124 90.947914 36.1125 90.947914Q37.003124 90.947914 37.64375 90.229164Q38.284374 89.510414 38.284374 88.27604Q38.284374 87.08854 37.64375 86.416664Q37.01875 85.729164 36.05 85.729164Q35.096874 85.729164 34.425 86.416664Q33.76875 87.08854 33.76875 88.197914ZM41.4875 83.21354Q41.4875 81.979164 42.096874 81.11979Q42.721874 80.260414 43.89375 80.260414Q44.971874 80.260414 45.675 81.041664Q46.378124 81.80729 46.378124 83.291664Q46.378124 84.74479 45.659374 85.541664Q44.95625 86.322914 43.909374 86.322914Q42.8625 86.322914 42.175 85.55729Q41.4875 84.77604 41.4875 83.21354ZM43.925 81.229164Q43.409374 81.229164 43.05 81.68229Q42.70625 82.135414 42.70625 83.354164Q42.70625 84.447914 43.05 84.90104Q43.409374 85.354164 43.925 85.354164Q44.45625 85.354164 44.8 84.90104Q45.159374 84.447914 45.159374 83.24479Q45.159374 82.135414 44.8 81.68229Q44.45625 81.229164 43.925 81.229164ZM43.940624 92.33854L50.20625 80.260414L51.346874 80.260414L45.096874 92.33854L43.940624 92.33854ZM48.89375 89.229164Q48.89375 87.99479 49.503124 87.135414Q50.128124 86.27604 51.3 86.27604Q52.378124 86.27604 53.08125 87.05729Q53.8 87.822914 53.8 89.30729Q53.8 90.760414 53.08125 91.55729Q52.3625 92.33854 51.315624 92.33854Q50.26875 92.33854 49.58125 91.55729Q48.89375 90.77604 48.89375 89.229164ZM51.346874 87.24479Q50.815624 87.24479 50.45625 87.697914Q50.1125 88.15104 50.1125 89.36979Q50.1125 90.46354 50.45625 90.916664Q50.815624 91.36979 51.33125 91.36979Q51.878124 91.36979 52.221874 90.916664Q52.565624 90.46354 52.565624 89.260414Q52.565624 88.15104 52.20625 87.697914Q51.8625 87.24479 51.346874 87.24479Z" fill-rule="nonzero"/><path stroke="#757575" stroke-width="1.0" stroke-linecap="butt" d="M18.55 75.416664L145.23334 75.416664L275.4586 64.5021" fill-rule="nonzero"/><path fill="#9e9e9e" d="M277.4586 64.5021C277.4586 63.397526 276.56317 62.502094 275.4586 62.502094C274.35403 62.502094 273.4586 63.397526 273.4586 64.5021C273.4586 65.60667 274.35403 66.5021 275.4586 66.5021C276.56317 66.5021 277.4586 65.60667 277.4586 64.5021" fill-rule="nonzero"/><path fill="#efefef" d="M27.3 99.46354L28.815624 99.46354L28.815624 106.072914Q28.815624 107.80729 28.425 108.822914Q28.034374 109.83854 27.01875 110.479164Q26.003124 111.11979 24.346874 111.11979Q22.7375 111.11979 21.70625 110.55729Q20.690624 109.99479 20.253124 108.947914Q19.815624 107.90104 19.815624 106.072914L19.815624 99.46354L21.33125 99.46354L21.33125 106.072914Q21.33125 107.55729 21.596874 108.27604Q21.878124 108.979164 22.55 109.36979Q23.2375 109.74479 24.20625 109.74479Q25.878124 109.74479 26.58125 108.99479Q27.3 108.229164 27.3 106.072914L27.3 99.46354ZM31.596874 110.916664L31.596874 102.61979L32.8625 102.61979L32.8625 103.86979Q33.346874 102.99479 33.753124 102.71354Q34.159374 102.43229 34.659374 102.43229Q35.3625 102.43229 36.096874 102.885414L35.6125 104.18229Q35.096874 103.885414 34.58125 103.885414Q34.128124 103.885414 33.753124 104.166664Q33.39375 104.43229 33.2375 104.93229Q33.003124 105.68229 33.003124 106.572914L33.003124 110.916664L31.596874 110.916664ZM37.909374 110.916664L36.596874 110.916664L36.596874 99.46354L38.003124 99.46354L38.003124 103.541664Q38.89375 102.43229 40.284374 102.43229Q41.05 102.43229 41.721874 102.74479Q42.409374 103.041664 42.846874 103.604164Q43.3 104.166664 43.55 104.96354Q43.8 105.74479 43.8 106.635414Q43.8 108.77604 42.7375 109.947914Q41.690624 111.104164 40.20625 111.104164Q38.7375 111.104164 37.909374 109.86979L37.909374 110.916664ZM37.89375 106.697914Q37.89375 108.197914 38.3 108.854164Q38.95625 109.947914 40.096874 109.947914Q41.01875 109.947914 41.690624 109.15104Q42.3625 108.33854 42.3625 106.760414Q42.3625 105.135414 41.70625 104.36979Q41.065624 103.58854 40.159374 103.58854Q39.2375 103.58854 38.565624 104.385414Q37.89375 105.18229 37.89375 106.697914ZM51.01875 109.885414Q50.2375 110.55729 49.51875 110.83854Q48.8 111.104164 47.971874 111.104164Q46.596874 111.104164 45.8625 110.43229Q45.128124 109.760414 45.128124 108.729164Q45.128124 108.11979 45.409374 107.61979Q45.690624 107.104164 46.128124 106.80729Q46.58125 106.49479 47.14375 106.33854Q47.565624 106.229164 48.39375 106.135414Q50.096874 105.93229 50.909374 105.65104Q50.909374 105.354164 50.909374 105.27604Q50.909374 104.416664 50.51875 104.072914Q49.971874 103.58854 48.909374 103.58854Q47.925 103.58854 47.440624 103.947914Q46.971874 104.291664 46.753124 105.166664L45.378124 104.979164Q45.565624 104.104164 45.9875 103.55729Q46.425 103.010414 47.2375 102.729164Q48.05 102.43229 49.1125 102.43229Q50.175 102.43229 50.83125 102.68229Q51.503124 102.93229 51.815624 103.30729Q52.128124 103.68229 52.253124 104.260414Q52.33125 104.61979 52.33125 105.55729L52.33125 107.43229Q52.33125 109.40104 52.409374 109.916664Q52.503124 110.43229 52.76875 110.916664L51.3 110.916664Q51.08125 110.479164 51.01875 109.885414ZM50.909374 106.74479Q50.14375 107.05729 48.6125 107.27604Q47.7375 107.40104 47.378124 107.55729Q47.01875 107.71354 46.815624 108.02604Q46.628124 108.322914 46.628124 108.68229Q46.628124 109.24479 47.05 109.61979Q47.4875 109.99479 48.3 109.99479Q49.1125 109.99479 49.7375 109.65104Q50.378124 109.291664 50.675 108.666664Q50.909374 108.197914 50.909374 107.260414L50.909374 106.74479ZM54.6125 110.916664L54.6125 102.61979L55.878124 102.61979L55.878124 103.791664Q56.784374 102.43229 58.51875 102.43229Q59.26875 102.43229 59.89375 102.697914Q60.51875 102.96354 60.83125 103.40104Q61.14375 103.83854 61.26875 104.447914Q61.346874 104.83854 61.346874 105.80729L61.346874 110.916664L59.940624 110.916664L59.940624 105.86979Q59.940624 105.010414 59.76875 104.58854Q59.6125 104.15104 59.190624 103.90104Q58.784374 103.65104 58.221874 103.65104Q57.315624 103.65104 56.659374 104.229164Q56.01875 104.791664 56.01875 106.385414L56.01875 110.916664L54.6125 110.916664ZM63.05 108.43229L64.44063 108.21354Q64.55 109.05729 65.08125 109.510414Q65.62813 109.947914 66.58125 109.947914Q67.55 109.947914 68.01875 109.55729Q68.4875 109.15104 68.4875 108.61979Q68.4875 108.15104 68.08125 107.86979Q67.78438 107.68229 66.64375 107.40104Q65.09688 107.010414 64.4875 106.729164Q63.89375 106.43229 63.58125 105.93229Q63.284374 105.43229 63.284374 104.822914Q63.284374 104.260414 63.534374 103.791664Q63.784374 103.322914 64.22188 103.010414Q64.55 102.760414 65.1125 102.604164Q65.69063 102.43229 66.33125 102.43229Q67.31563 102.43229 68.05 102.71354Q68.78438 102.99479 69.12813 103.479164Q69.4875 103.947914 69.62813 104.760414L68.25313 104.947914Q68.15938 104.30729 67.70625 103.947914Q67.25313 103.58854 66.44063 103.58854Q65.47188 103.58854 65.05 103.916664Q64.64375 104.229164 64.64375 104.65104Q64.64375 104.93229 64.81563 105.15104Q64.9875 105.36979 65.34688 105.52604Q65.56563 105.604164 66.59688 105.885414Q68.08125 106.27604 68.675 106.541664Q69.26875 106.791664 69.59688 107.27604Q69.94063 107.760414 69.94063 108.479164Q69.94063 109.18229 69.51875 109.80729Q69.1125 110.416664 68.33125 110.760414Q67.56563 111.104164 66.59688 111.104164Q64.97188 111.104164 64.12813 110.43229Q63.284374 109.760414 63.05 108.43229ZM77.01875 107.86979L78.40938 108.05729Q78.175 109.479164 77.2375 110.291664Q76.31563 111.104164 74.95625 111.104164Q73.25313 111.104164 72.20625 109.99479Q71.175 108.86979 71.175 106.791664Q71.175 105.447914 71.6125 104.447914Q72.06563 103.43229 72.97188 102.93229Q73.89375 102.43229 74.95625 102.43229Q76.31563 102.43229 77.175 103.11979Q78.03438 103.791664 78.26875 105.05729L76.90938 105.260414Q76.70625 104.43229 76.20625 104.010414Q75.72188 103.58854 75.01875 103.58854Q73.95625 103.58854 73.28438 104.354164Q72.62813 105.104164 72.62813 106.760414Q72.62813 108.43229 73.26875 109.197914Q73.90938 109.947914 74.94063 109.947914Q75.76875 109.947914 76.31563 109.447914Q76.87813 108.93229 77.01875 107.86979ZM85.01875 109.885414Q84.2375 110.55729 83.51875 110.83854Q82.8 111.104164 81.97188 111.104164Q80.59688 111.104164 79.8625 110.43229Q79.12813 109.760414 79.12813 108.729164Q79.12813 108.11979 79.40938 107.61979Q79.69063 107.104164 80.12813 106.80729Q80.58125 106.49479 81.14375 106.33854Q81.56563 106.229164 82.39375 106.135414Q84.09688 105.93229 84.90938 105.65104Q84.90938 105.354164 84.90938 105.27604Q84.90938 104.416664 84.51875 104.072914Q83.97188 103.58854 82.90938 103.58854Q81.925 103.58854 81.44063 103.947914Q80.97188 104.291664 80.75313 105.166664L79.37813 104.979164Q79.56563 104.104164 79.9875 103.55729Q80.425 103.010414 81.2375 102.729164Q82.05 102.43229 83.1125 102.43229Q84.175 102.43229 84.83125 102.68229Q85.50313 102.93229 85.81563 103.30729Q86.12813 103.68229 86.25313 104.260414Q86.33125 104.61979 86.33125 105.55729L86.33125 107.43229Q86.33125 109.40104 86.40938 109.916664Q86.50313 110.43229 86.76875 110.916664L85.3 110.916664Q85.08125 110.479164 85.01875 109.885414ZM84.90938 106.74479Q84.14375 107.05729 82.6125 107.27604Q81.7375 107.40104 81.37813 107.55729Q81.01875 107.71354 80.81563 108.02604Q80.62813 108.322914 80.62813 108.68229Q80.62813 109.24479 81.05 109.61979Q81.4875 109.99479 82.3 109.99479Q83.1125 109.99479 83.7375 109.65104Q84.37813 109.291664 84.675 108.666664Q84.90938 108.197914 84.90938 107.260414L84.90938 106.74479ZM88.6125 114.104164L88.6125 102.61979L89.89375 102.61979L89.89375 103.697914Q90.34688 103.05729 90.90938 102.74479Q91.4875 102.43229 92.3 102.43229Q93.3625 102.43229 94.175 102.979164Q94.9875 103.52604 95.39375 104.52604Q95.81563 105.510414 95.81563 106.697914Q95.81563 107.979164 95.34688 108.99479Q94.89375 110.010414 94.01875 110.55729Q93.15938 111.104164 92.19063 111.104164Q91.4875 111.104164 90.925 110.80729Q90.37813 110.510414 90.01875 110.05729L90.01875 114.104164L88.6125 114.104164ZM89.87813 106.80729Q89.87813 108.416664 90.51875 109.18229Q91.175 109.947914 92.09688 109.947914Q93.03438 109.947914 93.70625 109.15104Q94.37813 108.354164 94.37813 106.697914Q94.37813 105.104164 93.72188 104.322914Q93.06563 103.52604 92.15938 103.52604Q91.26875 103.52604 90.56563 104.36979Q89.87813 105.21354 89.87813 106.80729ZM103.28438 108.24479L104.7375 108.416664Q104.39375 109.697914 103.45625 110.40104Q102.53438 111.104164 101.09688 111.104164Q99.26875 111.104164 98.20625 109.979164Q97.14375 108.854164 97.14375 106.83854Q97.14375 104.74479 98.22188 103.58854Q99.3 102.43229 101.01875 102.43229Q102.675 102.43229 103.72188 103.572914Q104.78438 104.697914 104.78438 106.74479Q104.78438 106.86979 104.78438 107.11979L98.59688 107.11979Q98.675 108.49479 99.3625 109.229164Q100.06563 109.947914 101.09688 109.947914Q101.87813 109.947914 102.425 109.541664Q102.97188 109.135414 103.28438 108.24479ZM98.675 105.96354L103.3 105.96354Q103.20625 104.916664 102.76875 104.40104Q102.09688 103.58854 101.03438 103.58854Q100.06563 103.58854 99.39375 104.24479Q98.7375 104.885414 98.675 105.96354Z" fill-rule="nonzero"/><path fill="#9e9e9e" d="M24.51875 132.91667L23.1125 132.91667L23.1125 123.94792Q22.596874 124.4323 21.76875 124.91667Q20.95625 125.40105 20.3 125.65105L20.3 124.29167Q21.471874 123.72917 22.346874 122.94792Q23.2375 122.15105 23.6125 121.41667L24.51875 121.41667L24.51875 132.91667ZM35.51875 124.26042L34.1125 124.3698Q33.925 123.54167 33.58125 123.16667Q33.01875 122.57292 32.175 122.57292Q31.503124 122.57292 31.003124 122.94792Q30.33125 123.4323 29.940624 124.3698Q29.565624 125.29167 29.55 127.01042Q30.065624 126.22917 30.8 125.85417Q31.534374 125.47917 32.33125 125.47917Q33.7375 125.47917 34.721874 126.52605Q35.721874 127.5573 35.721874 129.19792Q35.721874 130.27605 35.253124 131.19792Q34.784374 132.1198 33.971874 132.6198Q33.159374 133.1198 32.128124 133.1198Q30.378124 133.1198 29.26875 131.82292Q28.159374 130.52605 28.159374 127.5573Q28.159374 124.22917 29.378124 122.72917Q30.45625 121.41667 32.26875 121.41667Q33.6125 121.41667 34.471874 122.1823Q35.346874 122.9323 35.51875 124.26042ZM29.76875 129.19792Q29.76875 129.9323 30.08125 130.60417Q30.39375 131.26042 30.940624 131.60417Q31.503124 131.94792 32.1125 131.94792Q33.003124 131.94792 33.64375 131.22917Q34.284374 130.51042 34.284374 129.27605Q34.284374 128.08855 33.64375 127.41667Q33.01875 126.72917 32.05 126.72917Q31.096874 126.72917 30.425 127.41667Q29.76875 128.08855 29.76875 129.19792ZM38.003124 132.91667L38.003124 131.3073L39.6125 131.3073L39.6125 132.91667L38.003124 132.91667ZM41.315624 122.96355L41.315624 121.60417L48.721874 121.60417L48.721874 122.69792Q47.628124 123.8698 46.55 125.8073Q45.4875 127.72917 44.89375 129.76042Q44.471874 131.19792 44.3625 132.91667L42.909374 132.91667Q42.940624 131.5573 43.440624 129.65105Q43.95625 127.72917 44.89375 125.96355Q45.846874 124.1823 46.925 122.96355L41.315624 122.96355ZM50.4875 124.21355Q50.4875 122.97917 51.096874 122.1198Q51.721874 121.26042 52.89375 121.26042Q53.971874 121.26042 54.675 122.04167Q55.378124 122.8073 55.378124 124.29167Q55.378124 125.7448 54.659374 126.54167Q53.95625 127.32292 52.909374 127.32292Q51.8625 127.32292 51.175 126.5573Q50.4875 125.77605 50.4875 124.21355ZM52.925 122.22917Q52.409374 122.22917 52.05 122.6823Q51.70625 123.13542 51.70625 124.35417Q51.70625 125.44792 52.05 125.90105Q52.409374 126.35417 52.925 126.35417Q53.45625 126.35417 53.8 125.90105Q54.159374 125.44792 54.159374 124.2448Q54.159374 123.13542 53.8 122.6823Q53.45625 122.22917 52.925 122.22917ZM52.940624 133.33855L59.20625 121.26042L60.346874 121.26042L54.096874 133.33855L52.940624 133.33855ZM57.89375 130.22917Q57.89375 128.9948 58.503124 128.13542Q59.128124 127.27605 60.3 127.27605Q61.378124 127.27605 62.08125 128.0573Q62.8 128.82292 62.8 130.3073Q62.8 131.76042 62.08125 132.5573Q61.3625 133.33855 60.315624 133.33855Q59.26875 133.33855 58.58125 132.5573Q57.89375 131.77605 57.89375 130.22917ZM60.346874 128.2448Q59.815624 128.2448 59.45625 128.69792Q59.1125 129.15105 59.1125 130.3698Q59.1125 131.46355 59.45625 131.91667Q59.815624 132.3698 60.33125 132.3698Q60.878124 132.3698 61.221874 131.91667Q61.565624 131.46355 61.565624 130.26042Q61.565624 129.15105 61.20625 128.69792Q60.8625 128.2448 60.346874 128.2448Z" fill-rule="nonzero"/><path stroke="#757575" stroke-width="1.0" stroke-linecap="butt" d="M18.55 116.416664L145.23334 116.416664L191.73622 112.83923" fill-rule="nonzero"/><path fill="#9e9e9e" d="M193.73622 112.83923C193.73622 111.734665 192.84079 110.83923 191.73622 110.83923C190.63165 110.83923 189.73622 111.734665 189.73622 112.83923C189.73622 113.9438 190.63165 114.83923 191.73622 114.83923C192.84079 114.83923 193.73622 113.9438 193.73622 112.83923" fill-rule="nonzero"/><path fill="#efefef" d="M19.76875 246.52048L19.76875 235.06735L21.33125 235.06735L27.346874 244.05173L27.346874 235.06735L28.8 235.06735L28.8 246.52048L27.2375 246.52048L21.221874 237.52048L21.221874 246.52048L19.76875 246.52048ZM37.01875 245.48923Q36.2375 246.1611 35.51875 246.44235Q34.8 246.70798 33.971874 246.70798Q32.596874 246.70798 31.8625 246.0361Q31.128124 245.36423 31.128124 244.33298Q31.128124 243.7236 31.409374 243.2236Q31.690624 242.70798 32.128124 242.4111Q32.58125 242.0986 33.14375 241.94235Q33.565624 241.83298 34.39375 241.73923Q36.096874 241.5361 36.909374 241.25485Q36.909374 240.95798 36.909374 240.87985Q36.909374 240.02048 36.51875 239.67673Q35.971874 239.19235 34.909374 239.19235Q33.925 239.19235 33.440624 239.55173Q32.971874 239.89548 32.753124 240.77048L31.378124 240.58298Q31.565624 239.70798 31.9875 239.1611Q32.425 238.61423 33.2375 238.33298Q34.05 238.0361 35.1125 238.0361Q36.175 238.0361 36.83125 238.2861Q37.503124 238.5361 37.815624 238.9111Q38.128124 239.2861 38.253124 239.86423Q38.33125 240.2236 38.33125 241.1611L38.33125 243.0361Q38.33125 245.00485 38.409374 245.52048Q38.503124 246.0361 38.76875 246.52048L37.3 246.52048Q37.08125 246.08298 37.01875 245.48923ZM36.909374 242.3486Q36.14375 242.6611 34.6125 242.87985Q33.7375 243.00485 33.378124 243.1611Q33.01875 243.31735 32.815624 243.62985Q32.628124 243.92673 32.628124 244.2861Q32.628124 244.8486 33.05 245.2236Q33.4875 245.5986 34.3 245.5986Q35.1125 245.5986 35.7375 245.25485Q36.378124 244.89548 36.675 244.27048Q36.909374 243.80173 36.909374 242.86423L36.909374 242.3486ZM43.675 245.25485L43.878124 246.50485Q43.284374 246.62985 42.815624 246.62985Q42.05 246.62985 41.628124 246.39548Q41.20625 246.14548 41.034374 245.75485Q40.8625 245.3486 40.8625 244.08298L40.8625 239.31735L39.83125 239.31735L39.83125 238.2236L40.8625 238.2236L40.8625 236.1611L42.26875 235.31735L42.26875 238.2236L43.675 238.2236L43.675 239.31735L42.26875 239.31735L42.26875 244.1611Q42.26875 244.77048 42.33125 244.94235Q42.409374 245.11423 42.58125 245.2236Q42.753124 245.31735 43.065624 245.31735Q43.3 245.31735 43.675 245.25485ZM50.05 246.52048L50.05 245.30173Q49.08125 246.70798 47.409374 246.70798Q46.675 246.70798 46.034374 246.42673Q45.409374 246.14548 45.096874 245.7236Q44.784374 245.2861 44.659374 244.67673Q44.58125 244.25485 44.58125 243.36423L44.58125 238.2236L45.9875 238.2236L45.9875 242.81735Q45.9875 243.92673 46.065624 244.30173Q46.20625 244.86423 46.628124 245.17673Q47.065624 245.48923 47.690624 245.48923Q48.33125 245.48923 48.878124 245.17673Q49.440624 244.8486 49.659374 244.2861Q49.89375 243.7236 49.89375 242.6611L49.89375 238.2236L51.3 238.2236L51.3 246.52048L50.05 246.52048ZM53.596874 246.52048L53.596874 238.2236L54.8625 238.2236L54.8625 239.4736Q55.346874 238.5986 55.753124 238.31735Q56.159374 238.0361 56.659374 238.0361Q57.3625 238.0361 58.096874 238.48923L57.6125 239.7861Q57.096874 239.48923 56.58125 239.48923Q56.128124 239.48923 55.753124 239.77048Q55.39375 240.0361 55.2375 240.5361Q55.003124 241.2861 55.003124 242.17673L55.003124 246.52048L53.596874 246.52048ZM64.28438 243.8486L65.7375 244.02048Q65.39375 245.30173 64.45625 246.00485Q63.534374 246.70798 62.096874 246.70798Q60.26875 246.70798 59.20625 245.58298Q58.14375 244.45798 58.14375 242.44235Q58.14375 240.3486 59.221874 239.19235Q60.3 238.0361 62.01875 238.0361Q63.675 238.0361 64.72188 239.17673Q65.78438 240.30173 65.78438 242.3486Q65.78438 242.4736 65.78438 242.7236L59.596874 242.7236Q59.675 244.0986 60.3625 244.83298Q61.065624 245.55173 62.096874 245.55173Q62.878124 245.55173 63.425 245.14548Q63.971874 244.73923 64.28438 243.8486ZM59.675 241.56735L64.3 241.56735Q64.20625 240.52048 63.76875 240.00485Q63.096874 239.19235 62.034374 239.19235Q61.065624 239.19235 60.39375 239.8486Q59.7375 240.48923 59.675 241.56735ZM67.05 244.0361L68.44063 243.81735Q68.55 244.6611 69.08125 245.11423Q69.62813 245.55173 70.58125 245.55173Q71.55 245.55173 72.01875 245.1611Q72.4875 244.75485 72.4875 244.2236Q72.4875 243.75485 72.08125 243.4736Q71.78438 243.2861 70.64375 243.00485Q69.09688 242.61423 68.4875 242.33298Q67.89375 242.0361 67.58125 241.5361Q67.28438 241.0361 67.28438 240.42673Q67.28438 239.86423 67.53438 239.39548Q67.78438 238.92673 68.22188 238.61423Q68.55 238.36423 69.1125 238.20798Q69.69063 238.0361 70.33125 238.0361Q71.31563 238.0361 72.05 238.31735Q72.78438 238.5986 73.12813 239.08298Q73.4875 239.55173 73.62813 240.36423L72.25313 240.55173Q72.15938 239.9111 71.70625 239.55173Q71.25313 239.19235 70.44063 239.19235Q69.47188 239.19235 69.05 239.52048Q68.64375 239.83298 68.64375 240.25485Q68.64375 240.5361 68.81563 240.75485Q68.9875 240.9736 69.34688 241.12985Q69.56563 241.20798 70.59688 241.48923Q72.08125 241.87985 72.675 242.14548Q73.26875 242.39548 73.59688 242.87985Q73.94063 243.36423 73.94063 244.08298Q73.94063 244.7861 73.51875 245.4111Q73.1125 246.02048 72.33125 246.36423Q71.56563 246.70798 70.59688 246.70798Q68.97188 246.70798 68.12813 246.0361Q67.28438 245.36423 67.05 244.0361ZM81.01875 243.4736L82.40938 243.6611Q82.175 245.08298 81.2375 245.89548Q80.31563 246.70798 78.95625 246.70798Q77.25313 246.70798 76.20625 245.5986Q75.175 244.4736 75.175 242.39548Q75.175 241.05173 75.6125 240.05173Q76.06563 239.0361 76.97188 238.5361Q77.89375 238.0361 78.95625 238.0361Q80.31563 238.0361 81.175 238.7236Q82.03438 239.39548 82.26875 240.6611L80.90938 240.86423Q80.70625 240.0361 80.20625 239.61423Q79.72188 239.19235 79.01875 239.19235Q77.95625 239.19235 77.28438 239.95798Q76.62813 240.70798 76.62813 242.36423Q76.62813 244.0361 77.26875 244.80173Q77.90938 245.55173 78.94063 245.55173Q79.76875 245.55173 80.31563 245.05173Q80.87813 244.5361 81.01875 243.4736ZM89.01875 245.48923Q88.2375 246.1611 87.51875 246.44235Q86.8 246.70798 85.97188 246.70798Q84.59688 246.70798 83.8625 246.0361Q83.12813 245.36423 83.12813 244.33298Q83.12813 243.7236 83.40938 243.2236Q83.69063 242.70798 84.12813 242.4111Q84.58125 242.0986 85.14375 241.94235Q85.56563 241.83298 86.39375 241.73923Q88.09688 241.5361 88.90938 241.25485Q88.90938 240.95798 88.90938 240.87985Q88.90938 240.02048 88.51875 239.67673Q87.97188 239.19235 86.90938 239.19235Q85.925 239.19235 85.44063 239.55173Q84.97188 239.89548 84.75313 240.77048L83.37813 240.58298Q83.56563 239.70798 83.9875 239.1611Q84.425 238.61423 85.2375 238.33298Q86.05 238.0361 87.1125 238.0361Q88.175 238.0361 88.83125 238.2861Q89.50313 238.5361 89.81563 238.9111Q90.12813 239.2861 90.25313 239.86423Q90.33125 240.2236 90.33125 241.1611L90.33125 243.0361Q90.33125 245.00485 90.40938 245.52048Q90.50313 246.0361 90.76875 246.52048L89.3 246.52048Q89.08125 246.08298 89.01875 245.48923ZM88.90938 242.3486Q88.14375 242.6611 86.6125 242.87985Q85.7375 243.00485 85.37813 243.1611Q85.01875 243.31735 84.81563 243.62985Q84.62813 243.92673 84.62813 244.2861Q84.62813 244.8486 85.05 245.2236Q85.4875 245.5986 86.3 245.5986Q87.1125 245.5986 87.7375 245.25485Q88.37813 244.89548 88.675 244.27048Q88.90938 243.80173 88.90938 242.86423L88.90938 242.3486ZM92.6125 249.70798L92.6125 238.2236L93.89375 238.2236L93.89375 239.30173Q94.34688 238.6611 94.90938 238.3486Q95.4875 238.0361 96.3 238.0361Q97.3625 238.0361 98.175 238.58298Q98.9875 239.12985 99.39375 240.12985Q99.81563 241.11423 99.81563 242.30173Q99.81563 243.58298 99.34688 244.5986Q98.89375 245.61423 98.01875 246.1611Q97.15938 246.70798 96.19063 246.70798Q95.4875 246.70798 94.925 246.4111Q94.37813 246.11423 94.01875 245.6611L94.01875 249.70798L92.6125 249.70798ZM93.87813 242.4111Q93.87813 244.02048 94.51875 244.7861Q95.175 245.55173 96.09688 245.55173Q97.03438 245.55173 97.70625 244.75485Q98.37813 243.95798 98.37813 242.30173Q98.37813 240.70798 97.72188 239.92673Q97.06563 239.12985 96.15938 239.12985Q95.26875 239.12985 94.56563 239.9736Q93.87813 240.81735 93.87813 242.4111ZM107.28438 243.8486L108.7375 244.02048Q108.39375 245.30173 107.45625 246.00485Q106.53438 246.70798 105.09688 246.70798Q103.26875 246.70798 102.20625 245.58298Q101.14375 244.45798 101.14375 242.44235Q101.14375 240.3486 102.22188 239.19235Q103.3 238.0361 105.01875 238.0361Q106.675 238.0361 107.72188 239.17673Q108.78438 240.30173 108.78438 242.3486Q108.78438 242.4736 108.78438 242.7236L102.59688 242.7236Q102.675 244.0986 103.3625 244.83298Q104.06563 245.55173 105.09688 245.55173Q105.87813 245.55173 106.425 245.14548Q106.97188 244.73923 107.28438 243.8486ZM102.675 241.56735L107.3 241.56735Q107.20625 240.52048 106.76875 240.00485Q106.09688 239.19235 105.03438 239.19235Q104.06563 239.19235 103.39375 239.8486Q102.7375 240.48923 102.675 241.56735Z" fill-rule="nonzero"/><path fill="#9e9e9e" d="M24.51875 268.52048L23.1125 268.52048L23.1125 259.55173Q22.596874 260.0361 21.76875 260.52048Q20.95625 261.00485 20.3 261.25485L20.3 259.89548Q21.471874 259.33298 22.346874 258.55173Q23.2375 257.75485 23.6125 257.02048L24.51875 257.02048L24.51875 268.52048ZM35.51875 259.86423L34.1125 259.9736Q33.925 259.14548 33.58125 258.77048Q33.01875 258.17673 32.175 258.17673Q31.503124 258.17673 31.003124 258.55173Q30.33125 259.0361 29.940624 259.9736Q29.565624 260.89548 29.55 262.61423Q30.065624 261.83298 30.8 261.45798Q31.534374 261.08298 32.33125 261.08298Q33.7375 261.08298 34.721874 262.12985Q35.721874 263.1611 35.721874 264.80173Q35.721874 265.87985 35.253124 266.80173Q34.784374 267.7236 33.971874 268.2236Q33.159374 268.7236 32.128124 268.7236Q30.378124 268.7236 29.26875 267.42673Q28.159374 266.12985 28.159374 263.1611Q28.159374 259.83298 29.378124 258.33298Q30.45625 257.02048 32.26875 257.02048Q33.6125 257.02048 34.471874 257.7861Q35.346874 258.5361 35.51875 259.86423ZM29.76875 264.80173Q29.76875 265.5361 30.08125 266.20798Q30.39375 266.86423 30.940624 267.20798Q31.503124 267.55173 32.1125 267.55173Q33.003124 267.55173 33.64375 266.83298Q34.284374 266.11423 34.284374 264.87985Q34.284374 263.69235 33.64375 263.02048Q33.01875 262.33298 32.05 262.33298Q31.096874 262.33298 30.425 263.02048Q29.76875 263.69235 29.76875 264.80173ZM38.003124 268.52048L38.003124 266.9111L39.6125 266.9111L39.6125 268.52048L38.003124 268.52048ZM41.315624 258.56735L41.315624 257.20798L48.721874 257.20798L48.721874 258.30173Q47.628124 259.4736 46.55 261.4111Q45.4875 263.33298 44.89375 265.36423Q44.471874 266.80173 44.3625 268.52048L42.909374 268.52048Q42.940624 267.1611 43.440624 265.25485Q43.95625 263.33298 44.89375 261.56735Q45.846874 259.7861 46.925 258.56735L41.315624 258.56735ZM50.4875 259.81735Q50.4875 258.58298 51.096874 257.7236Q51.721874 256.86423 52.89375 256.86423Q53.971874 256.86423 54.675 257.64548Q55.378124 258.4111 55.378124 259.89548Q55.378124 261.3486 54.659374 262.14548Q53.95625 262.92673 52.909374 262.92673Q51.8625 262.92673 51.175 262.1611Q50.4875 261.37985 50.4875 259.81735ZM52.925 257.83298Q52.409374 257.83298 52.05 258.2861Q51.70625 258.73923 51.70625 259.95798Q51.70625 261.05173 52.05 261.50485Q52.409374 261.95798 52.925 261.95798Q53.45625 261.95798 53.8 261.50485Q54.159374 261.05173 54.159374 259.8486Q54.159374 258.73923 53.8 258.2861Q53.45625 257.83298 52.925 257.83298ZM52.940624 268.94235L59.20625 256.86423L60.346874 256.86423L54.096874 268.94235L52.940624 268.94235ZM57.89375 265.83298Q57.89375 264.5986 58.503124 263.73923Q59.128124 262.87985 60.3 262.87985Q61.378124 262.87985 62.08125 263.6611Q62.8 264.42673 62.8 265.9111Q62.8 267.36423 62.08125 268.1611Q61.3625 268.94235 60.315624 268.94235Q59.26875 268.94235 58.58125 268.1611Q57.89375 267.37985 57.89375 265.83298ZM60.346874 263.8486Q59.815624 263.8486 59.45625 264.30173Q59.1125 264.75485 59.1125 265.9736Q59.1125 267.06735 59.45625 267.52048Q59.815624 267.9736 60.33125 267.9736Q60.878124 267.9736 61.221874 267.52048Q61.565624 267.06735 61.565624 265.86423Q61.565624 264.75485 61.20625 264.30173Q60.8625 263.8486 60.346874 263.8486Z" fill-rule="nonzero"/><path stroke="#757575" stroke-width="1.0" stroke-linecap="butt" d="M18.55 252.02048L145.23334 252.02048L167.19481 252.02048" fill-rule="nonzero"/><path fill="#9e9e9e" d="M169.19481 252.02048C169.19481 250.9159 168.29938 250.02048 167.19481 250.02048C166.09024 250.02048 165.19481 250.9159 165.19481 252.02048C165.19481 253.12505 166.09024 254.02048 167.19481 254.02048C168.29938 254.02048 169.19481 253.12505 169.19481 252.02048" fill-rule="nonzero"/><path fill="#efefef" d="M531.6844 246.52048L531.6844 235.06735L536.0125 235.06735Q537.15314 235.06735 537.7469 235.17673Q538.59064 235.31735 539.15314 235.70798Q539.73126 236.0986 540.075 236.81735Q540.4344 237.52048 540.4344 238.37985Q540.4344 239.83298 539.4969 240.8486Q538.575 241.86423 536.1375 241.86423L533.2 241.86423L533.2 246.52048L531.6844 246.52048ZM533.2 240.50485L536.16876 240.50485Q537.6375 240.50485 538.2469 239.95798Q538.8719 239.4111 538.8719 238.42673Q538.8719 237.70798 538.4969 237.19235Q538.1375 236.67673 537.54376 236.52048Q537.16876 236.4111 536.1375 236.4111L533.2 236.4111L533.2 240.50485ZM548.1844 243.8486L549.6375 244.02048Q549.29376 245.30173 548.35626 246.00485Q547.4344 246.70798 545.9969 246.70798Q544.16876 246.70798 543.10626 245.58298Q542.04376 244.45798 542.04376 242.44235Q542.04376 240.3486 543.1219 239.19235Q544.2 238.0361 545.91876 238.0361Q547.575 238.0361 548.6219 239.17673Q549.6844 240.30173 549.6844 242.3486Q549.6844 242.4736 549.6844 242.7236L543.4969 242.7236Q543.575 244.0986 544.2625 244.83298Q544.96564 245.55173 545.9969 245.55173Q546.77814 245.55173 547.325 245.14548Q547.8719 244.73923 548.1844 243.8486ZM543.575 241.56735L548.2 241.56735Q548.10626 240.52048 547.66876 240.00485Q546.9969 239.19235 545.9344 239.19235Q544.96564 239.19235 544.29376 239.8486Q543.6375 240.48923 543.575 241.56735ZM550.98126 242.36423Q550.98126 240.06735 552.2625 238.95798Q553.34064 238.0361 554.8719 238.0361Q556.59064 238.0361 557.66876 239.1611Q558.7625 240.27048 558.7625 242.25485Q558.7625 243.8486 558.27814 244.77048Q557.79376 245.69235 556.8719 246.20798Q555.96564 246.70798 554.8719 246.70798Q553.1375 246.70798 552.0594 245.5986Q550.98126 244.4736 550.98126 242.36423ZM552.4344 242.36423Q552.4344 243.95798 553.1219 244.75485Q553.825 245.55173 554.8719 245.55173Q555.91876 245.55173 556.60626 244.75485Q557.3094 243.95798 557.3094 242.31735Q557.3094 240.7861 556.60626 239.98923Q555.91876 239.19235 554.8719 239.19235Q553.825 239.19235 553.1219 239.98923Q552.4344 240.77048 552.4344 242.36423ZM560.5125 249.70798L560.5125 238.2236L561.79376 238.2236L561.79376 239.30173Q562.2469 238.6611 562.8094 238.3486Q563.3875 238.0361 564.2 238.0361Q565.2625 238.0361 566.075 238.58298Q566.8875 239.12985 567.29376 240.12985Q567.71564 241.11423 567.71564 242.30173Q567.71564 243.58298 567.2469 244.5986Q566.79376 245.61423 565.91876 246.1611Q565.0594 246.70798 564.09064 246.70798Q563.3875 246.70798 562.825 246.4111Q562.27814 246.11423 561.91876 245.6611L561.91876 249.70798L560.5125 249.70798ZM561.77814 242.4111Q561.77814 244.02048 562.41876 244.7861Q563.075 245.55173 563.9969 245.55173Q564.9344 245.55173 565.60626 244.75485Q566.27814 243.95798 566.27814 242.30173Q566.27814 240.70798 565.6219 239.92673Q564.96564 239.12985 564.0594 239.12985Q563.16876 239.12985 562.46564 239.9736Q561.77814 240.81735 561.77814 242.4111ZM569.48126 246.52048L569.48126 235.06735L570.8875 235.06735L570.8875 246.52048L569.48126 246.52048ZM579.1844 243.8486L580.6375 244.02048Q580.29376 245.30173 579.35626 246.00485Q578.4344 246.70798 576.9969 246.70798Q575.16876 246.70798 574.10626 245.58298Q573.04376 244.45798 573.04376 242.44235Q573.04376 240.3486 574.1219 239.19235Q575.2 238.0361 576.91876 238.0361Q578.575 238.0361 579.6219 239.17673Q580.6844 240.30173 580.6844 242.3486Q580.6844 242.4736 580.6844 242.7236L574.4969 242.7236Q574.575 244.0986 575.2625 244.83298Q575.96564 245.55173 576.9969 245.55173Q577.77814 245.55173 578.325 245.14548Q578.8719 244.73923 579.1844 243.8486ZM574.575 241.56735L579.2 241.56735Q579.10626 240.52048 578.66876 240.00485Q577.9969 239.19235 576.9344 239.19235Q575.96564 239.19235 575.29376 239.8486Q574.6375 240.48923 574.575 241.56735Z" fill-rule="nonzero"/><path fill="#9e9e9e" d="M544.41876 259.86423L543.0125 259.9736Q542.825 259.14548 542.48126 258.77048Q541.91876 258.17673 541.075 258.17673Q540.40314 258.17673 539.90314 258.55173Q539.23126 259.0361 538.84064 259.9736Q538.46564 260.89548 538.45 262.61423Q538.96564 261.83298 539.7 261.45798Q540.4344 261.08298 541.23126 261.08298Q542.6375 261.08298 543.6219 262.12985Q544.6219 263.1611 544.6219 264.80173Q544.6219 265.87985 544.15314 266.80173Q543.6844 267.7236 542.8719 268.2236Q542.0594 268.7236 541.02814 268.7236Q539.27814 268.7236 538.16876 267.42673Q537.0594 266.12985 537.0594 263.1611Q537.0594 259.83298 538.27814 258.33298Q539.35626 257.02048 541.16876 257.02048Q542.5125 257.02048 543.3719 257.7861Q544.2469 258.5361 544.41876 259.86423ZM538.66876 264.80173Q538.66876 265.5361 538.98126 266.20798Q539.29376 266.86423 539.84064 267.20798Q540.40314 267.55173 541.0125 267.55173Q541.90314 267.55173 542.54376 266.83298Q543.1844 266.11423 543.1844 264.87985Q543.1844 263.69235 542.54376 263.02048Q541.91876 262.33298 540.95 262.33298Q539.9969 262.33298 539.325 263.02048Q538.66876 263.69235 538.66876 264.80173ZM551.41876 268.52048L550.0125 268.52048L550.0125 259.55173Q549.4969 260.0361 548.66876 260.52048Q547.85626 261.00485 547.2 261.25485L547.2 259.89548Q548.3719 259.33298 549.2469 258.55173Q550.1375 257.75485 550.5125 257.02048L551.41876 257.02048L551.41876 268.52048ZM555.90314 268.52048L555.90314 266.9111L557.5125 266.9111L557.5125 268.52048L555.90314 268.52048ZM564.41876 268.52048L563.0125 268.52048L563.0125 259.55173Q562.4969 260.0361 561.66876 260.52048Q560.85626 261.00485 560.2 261.25485L560.2 259.89548Q561.3719 259.33298 562.2469 258.55173Q563.1375 257.75485 563.5125 257.02048L564.41876 257.02048L564.41876 268.52048ZM568.3875 259.81735Q568.3875 258.58298 568.9969 257.7236Q569.6219 256.86423 570.79376 256.86423Q571.8719 256.86423 572.575 257.64548Q573.27814 258.4111 573.27814 259.89548Q573.27814 261.3486 572.5594 262.14548Q571.85626 262.92673 570.8094 262.92673Q569.7625 262.92673 569.075 262.1611Q568.3875 261.37985 568.3875 259.81735ZM570.825 257.83298Q570.3094 257.83298 569.95 258.2861Q569.60626 258.73923 569.60626 259.95798Q569.60626 261.05173 569.95 261.50485Q570.3094 261.95798 570.825 261.95798Q571.35626 261.95798 571.7 261.50485Q572.0594 261.05173 572.0594 259.8486Q572.0594 258.73923 571.7 258.2861Q571.35626 257.83298 570.825 257.83298ZM570.84064 268.94235L577.10626 256.86423L578.2469 256.86423L571.9969 268.94235L570.84064 268.94235ZM575.79376 265.83298Q575.79376 264.5986 576.40314 263.73923Q577.02814 262.87985 578.2 262.87985Q579.27814 262.87985 579.98126 263.6611Q580.7 264.42673 580.7 265.9111Q580.7 267.36423 579.98126 268.1611Q579.2625 268.94235 578.21564 268.94235Q577.16876 268.94235 576.48126 268.1611Q575.79376 267.37985 575.79376 265.83298ZM578.2469 263.8486Q577.71564 263.8486 577.35626 264.30173Q577.0125 264.75485 577.0125 265.9736Q577.0125 267.06735 577.35626 267.52048Q577.71564 267.9736 578.23126 267.9736Q578.77814 267.9736 579.1219 267.52048Q579.46564 267.06735 579.46564 265.86423Q579.46564 264.75485 579.10626 264.30173Q578.7625 263.8486 578.2469 263.8486Z" fill-rule="nonzero"/><path stroke="#757575" stroke-width="1.0" stroke-linecap="butt" d="M581.45 252.02048L454.76666 252.02048L432.8052 252.02048" fill-rule="nonzero"/><path fill="#9e9e9e" d="M434.8052 252.02048C434.8052 250.9159 433.90976 250.02048 432.8052 250.02048C431.70062 250.02048 430.8052 250.9159 430.8052 252.02048C430.8052 253.12505 431.70062 254.02048 432.8052 254.02048C433.90976 254.02048 434.8052 253.12505 434.8052 252.02048" fill-rule="nonzero"/><path fill="#f3f3f3" d="M265.98438 37.55L265.98438 23.2375L268.84375 23.2375L272.21875 33.3625Q272.6875 34.784374 272.90625 35.4875Q273.15625 34.70625 273.67188 33.190624L277.09375 23.2375L279.64062 23.2375L279.64062 37.55L277.82812 37.55L277.82812 25.565624L273.65625 37.55L271.95312 37.55L267.8125 25.3625L267.8125 37.55L265.98438 37.55ZM289.92188 34.20625L291.73438 34.440624Q291.3125 36.01875 290.14062 36.909374Q288.98438 37.784374 287.17188 37.784374Q284.90625 37.784374 283.5625 36.39375Q282.23438 34.9875 282.23438 32.45625Q282.23438 29.83125 283.57812 28.39375Q284.92188 26.940624 287.07812 26.940624Q289.15625 26.940624 290.46875 28.3625Q291.79688 29.76875 291.79688 32.346874Q291.79688 32.503124 291.78125 32.815624L284.04688 32.815624Q284.14062 34.51875 285.01562 35.425Q285.89062 36.33125 287.1875 36.33125Q288.15625 36.33125 288.82812 35.83125Q289.51562 35.315624 289.92188 34.20625ZM284.14062 31.3625L289.9375 31.3625Q289.82812 30.065624 289.28125 29.409374Q288.4375 28.39375 287.09375 28.39375Q285.89062 28.39375 285.0625 29.20625Q284.23438 30.003124 284.14062 31.3625ZM300.54688 37.55L300.54688 36.2375Q299.5625 37.784374 297.64062 37.784374Q296.40625 37.784374 295.35938 37.096874Q294.32812 36.409374 293.75 35.190624Q293.1875 33.971874 293.1875 32.378124Q293.1875 30.815624 293.70312 29.55Q294.21875 28.284374 295.25 27.6125Q296.29688 26.940624 297.5625 26.940624Q298.5 26.940624 299.23438 27.346874Q299.96875 27.7375 300.4375 28.3625L300.4375 23.2375L302.17188 23.2375L302.17188 37.55L300.54688 37.55ZM294.98438 32.378124Q294.98438 34.3625 295.82812 35.346874Q296.67188 36.33125 297.8125 36.33125Q298.96875 36.33125 299.76562 35.39375Q300.57812 34.45625 300.57812 32.51875Q300.57812 30.39375 299.75 29.39375Q298.9375 28.39375 297.73438 28.39375Q296.5625 28.39375 295.76562 29.3625Q294.98438 30.315624 294.98438 32.378124ZM304.82812 25.253124L304.82812 23.2375L306.59375 23.2375L306.59375 25.253124L304.82812 25.253124ZM304.82812 37.55L304.82812 27.175L306.59375 27.175L306.59375 37.55L304.82812 37.55ZM315.60938 37.55L315.60938 36.01875Q314.40625 37.784374 312.32812 37.784374Q311.40625 37.784374 310.60938 37.440624Q309.8125 37.08125 309.42188 36.55Q309.04688 36.01875 308.89062 35.2375Q308.78125 34.721874 308.78125 33.596874L308.78125 27.175L310.53125 27.175L310.53125 32.925Q310.53125 34.3 310.64062 34.784374Q310.8125 35.471874 311.34375 35.878124Q311.89062 36.26875 312.67188 36.26875Q313.46875 36.26875 314.15625 35.8625Q314.85938 35.45625 315.14062 34.76875Q315.4375 34.065624 315.4375 32.7375L315.4375 27.175L317.1875 27.175L317.1875 37.55L315.60938 37.55ZM319.8125 37.55L319.8125 27.175L321.39062 27.175L321.39062 28.628124Q321.875 27.878124 322.6875 27.409374Q323.5 26.940624 324.53125 26.940624Q325.6875 26.940624 326.42188 27.425Q327.15625 27.89375 327.46875 28.753124Q328.70312 26.940624 330.67188 26.940624Q332.21875 26.940624 333.04688 27.8Q333.875 28.659374 333.875 30.425L333.875 37.55L332.125 37.55L332.125 31.01875Q332.125 29.95625 331.95312 29.503124Q331.78125 29.034374 331.32812 28.753124Q330.89062 28.471874 330.28125 28.471874Q329.1875 28.471874 328.45312 29.20625Q327.73438 29.925 327.73438 31.51875L327.73438 37.55L325.98438 37.55L325.98438 30.815624Q325.98438 29.64375 325.54688 29.065624Q325.125 28.471874 324.14062 28.471874Q323.40625 28.471874 322.76562 28.8625Q322.14062 29.253124 321.85938 30.003124Q321.57812 30.753124 321.57812 32.175L321.57812 37.55L319.8125 37.55Z" fill-rule="nonzero"/></svg>