<svg version="1.1" viewBox="0.0 0.0 600.0 371.0" fill="none" stroke="none" stroke-linecap="square" stroke-miterlimit="10" width="600" height="371" xmlns:xlink="http://www.w3.org/1999/xlink" xmlns="http://www.w3.org/2000/svg"><path fill="#ffffff" fill-opacity="0.0" d="M0 0L600.0 0L600.0 371.0L0 371.0L0 0Z" fill-rule="nonzero"/><path fill="#cf4366" d="M300.0 54.916668C382.16156 54.916668 448.76666 121.521774 448.76666 203.68333L337.19168 203.68333C337.19168 183.14294 320.5404 166.49167 300.0 166.49167Z" fill-rule="nonzero"/><path fill="#d8753e" d="M448.76666 203.68333C448.76666 285.8449 382.16156 352.45 300.0 352.45L300.0 240.875C320.5404 240.875 337.19168 224.22372 337.19168 203.68333Z" fill-rule="nonzero"/><path fill="#e5a345" d="M151.23334 203.68333C151.23334 121.521774 217.83844 54.916668 300.0 54.916668L300.0 166.49167C279.4596 166.49167 262.80832 183.14294 262.80832 203.68333Z" fill-rule="nonzero"/><path fill="#df8d43" d="M300.0 352.45C217.83844 352.45 151.23334 285.8449 151.23334 203.68333L262.80832 203.68333C262.80832 224.22372 279.4596 240.875 300.0 240.875Z" fill-rule="nonzero"/><path fill="#ffffff" d="M355.61206 136.61816L355.61206 138.13379L347.09644 138.13379Q347.0808 137.55566 347.28394 137.04004Q347.61206 136.16504 348.3152 135.32129Q349.03394 134.47754 350.3933 133.36816Q352.48706 131.64941 353.22144 130.64941Q353.97144 129.63379 353.97144 128.74316Q353.97144 127.79004 353.29956 127.149414Q352.6277 126.50879 351.54956 126.50879Q350.3933 126.50879 349.7058 127.19629Q349.03394 127.88379 349.0183 129.08691L347.3933 128.91504Q347.5652 127.10254 348.6433 126.149414Q349.73706 125.19629 351.5808 125.19629Q353.42456 125.19629 354.5027 126.22754Q355.59644 127.25879 355.59644 128.77441Q355.59644 129.54004 355.2683 130.29004Q354.9558 131.04004 354.22144 131.86816Q353.48706 132.69629 351.78394 134.13379Q350.36206 135.33691 349.9558 135.75879Q349.54956 136.18066 349.29956 136.61816L355.61206 136.61816ZM357.29956 134.75879L358.9558 134.61816Q359.1433 135.83691 359.8152 136.44629Q360.48706 137.05566 361.4402 137.05566Q362.5808 137.05566 363.36206 136.19629Q364.15894 135.33691 364.15894 133.89941Q364.15894 132.55566 363.3933 131.77441Q362.6433 130.99316 361.40894 130.99316Q360.6433 130.99316 360.0183 131.33691Q359.40894 131.68066 359.0652 132.24316L357.5808 132.04004L358.8308 125.430664L365.23706 125.430664L365.23706 126.930664L360.09644 126.930664L359.3933 130.39941Q360.5652 129.58691 361.8308 129.58691Q363.5183 129.58691 364.67456 130.75879Q365.84644 131.93066 365.84644 133.75879Q365.84644 135.50879 364.8152 136.79004Q363.5808 138.35254 361.4402 138.35254Q359.67456 138.35254 358.5652 137.36816Q357.4558 136.38379 357.29956 134.75879ZM368.1902 138.13379L368.1902 136.33691L369.98706 136.33691L369.98706 138.13379L368.1902 138.13379ZM372.29956 131.77441Q372.29956 129.49316 372.7683 128.10254Q373.23706 126.711914 374.15894 125.961914Q375.09644 125.19629 376.5027 125.19629Q377.53394 125.19629 378.3152 125.618164Q379.09644 126.024414 379.59644 126.82129Q380.11206 127.60254 380.40894 128.74316Q380.7058 129.86816 380.7058 131.77441Q380.7058 134.04004 380.23706 135.44629Q379.7683 136.83691 378.8308 137.60254Q377.90894 138.35254 376.5027 138.35254Q374.6277 138.35254 373.5652 137.02441Q372.29956 135.41504 372.29956 131.77441ZM373.92456 131.77441Q373.92456 134.94629 374.65894 136.00879Q375.40894 137.05566 376.5027 137.05566Q377.5808 137.05566 378.3308 136.00879Q379.0808 134.94629 379.0808 131.77441Q379.0808 128.60254 378.3308 127.555664Q377.5808 126.50879 376.48706 126.50879Q375.3933 126.50879 374.73706 127.430664Q373.92456 128.60254 373.92456 131.77441ZM382.59644 128.33691Q382.59644 126.961914 383.28394 125.993164Q383.98706 125.024414 385.29956 125.024414Q386.5183 125.024414 387.3152 125.899414Q388.11206 126.75879 388.11206 128.44629Q388.11206 130.07129 387.29956 130.96191Q386.5027 131.83691 385.3152 131.83691Q384.15894 131.83691 383.3777 130.97754Q382.59644 130.10254 382.59644 128.33691ZM385.34644 126.118164Q384.7527 126.118164 384.36206 126.63379Q383.97144 127.13379 383.97144 128.49316Q383.97144 129.74316 384.36206 130.24316Q384.7683 130.74316 385.34644 130.74316Q385.9402 130.74316 386.3308 130.24316Q386.72144 129.72754 386.72144 128.38379Q386.72144 127.13379 386.3308 126.63379Q385.9402 126.118164 385.34644 126.118164ZM385.36206 138.60254L392.40894 125.024414L393.6902 125.024414L386.65894 138.60254L385.36206 138.60254ZM390.92456 135.10254Q390.92456 133.72754 391.61206 132.75879Q392.3152 131.79004 393.6433 131.79004Q394.86206 131.79004 395.6433 132.66504Q396.4402 133.52441 396.4402 135.21191Q396.4402 136.83691 395.6433 137.72754Q394.84644 138.60254 393.65894 138.60254Q392.48706 138.60254 391.7058 137.72754Q390.92456 136.85254 390.92456 135.10254ZM393.6902 132.88379Q393.09644 132.88379 392.7058 133.39941Q392.3152 133.89941 392.3152 135.27441Q392.3152 136.49316 392.7058 137.00879Q393.09644 137.52441 393.67456 137.52441Q394.28394 137.52441 394.67456 137.00879Q395.0652 136.49316 395.0652 135.14941Q395.0652 133.89941 394.67456 133.39941Q394.28394 132.88379 393.6902 132.88379Z" fill-rule="nonzero"/><path fill="#ffffff" d="M355.61206 280.71725L355.61206 282.23288L347.09644 282.23288Q347.0808 281.65475 347.28394 281.13913Q347.61206 280.26413 348.3152 279.42038Q349.03394 278.57663 350.3933 277.46725Q352.48706 275.7485 353.22144 274.7485Q353.97144 273.73288 353.97144 272.84225Q353.97144 271.88913 353.29956 271.2485Q352.6277 270.60788 351.54956 270.60788Q350.3933 270.60788 349.7058 271.29538Q349.03394 271.98288 349.0183 273.186L347.3933 273.01413Q347.5652 271.20163 348.6433 270.2485Q349.73706 269.29538 351.5808 269.29538Q353.42456 269.29538 354.5027 270.32663Q355.59644 271.35788 355.59644 272.8735Q355.59644 273.63913 355.2683 274.38913Q354.9558 275.13913 354.22144 275.96725Q353.48706 276.79538 351.78394 278.23288Q350.36206 279.436 349.9558 279.85788Q349.54956 280.27975 349.29956 280.71725L355.61206 280.71725ZM357.29956 278.85788L358.9558 278.71725Q359.1433 279.936 359.8152 280.54538Q360.48706 281.15475 361.4402 281.15475Q362.5808 281.15475 363.36206 280.29538Q364.15894 279.436 364.15894 277.9985Q364.15894 276.65475 363.3933 275.8735Q362.6433 275.09225 361.40894 275.09225Q360.6433 275.09225 360.0183 275.436Q359.40894 275.77975 359.0652 276.34225L357.5808 276.13913L358.8308 269.52975L365.23706 269.52975L365.23706 271.02975L360.09644 271.02975L359.3933 274.4985Q360.5652 273.686 361.8308 273.686Q363.5183 273.686 364.67456 274.85788Q365.84644 276.02975 365.84644 277.85788Q365.84644 279.60788 364.8152 280.88913Q363.5808 282.45163 361.4402 282.45163Q359.67456 282.45163 358.5652 281.46725Q357.4558 280.48288 357.29956 278.85788ZM368.1902 282.23288L368.1902 280.436L369.98706 280.436L369.98706 282.23288L368.1902 282.23288ZM372.29956 275.8735Q372.29956 273.59225 372.7683 272.20163Q373.23706 270.811 374.15894 270.061Q375.09644 269.29538 376.5027 269.29538Q377.53394 269.29538 378.3152 269.71725Q379.09644 270.1235 379.59644 270.92038Q380.11206 271.70163 380.40894 272.84225Q380.7058 273.96725 380.7058 275.8735Q380.7058 278.13913 380.23706 279.54538Q379.7683 280.936 378.8308 281.70163Q377.90894 282.45163 376.5027 282.45163Q374.6277 282.45163 373.5652 281.1235Q372.29956 279.51413 372.29956 275.8735ZM373.92456 275.8735Q373.92456 279.04538 374.65894 280.10788Q375.40894 281.15475 376.5027 281.15475Q377.5808 281.15475 378.3308 280.10788Q379.0808 279.04538 379.0808 275.8735Q379.0808 272.70163 378.3308 271.65475Q377.5808 270.60788 376.48706 270.60788Q375.3933 270.60788 374.73706 271.52975Q373.92456 272.70163 373.92456 275.8735ZM382.59644 272.436Q382.59644 271.061 383.28394 270.09225Q383.98706 269.1235 385.29956 269.1235Q386.5183 269.1235 387.3152 269.9985Q388.11206 270.85788 388.11206 272.54538Q388.11206 274.17038 387.29956 275.061Q386.5027 275.936 385.3152 275.936Q384.15894 275.936 383.3777 275.07663Q382.59644 274.20163 382.59644 272.436ZM385.34644 270.21725Q384.7527 270.21725 384.36206 270.73288Q383.97144 271.23288 383.97144 272.59225Q383.97144 273.84225 384.36206 274.34225Q384.7683 274.84225 385.34644 274.84225Q385.9402 274.84225 386.3308 274.34225Q386.72144 273.82663 386.72144 272.48288Q386.72144 271.23288 386.3308 270.73288Q385.9402 270.21725 385.34644 270.21725ZM385.36206 282.70163L392.40894 269.1235L393.6902 269.1235L386.65894 282.70163L385.36206 282.70163ZM390.92456 279.20163Q390.92456 277.82663 391.61206 276.85788Q392.3152 275.88913 393.6433 275.88913Q394.86206 275.88913 395.6433 276.76413Q396.4402 277.6235 396.4402 279.311Q396.4402 280.936 395.6433 281.82663Q394.84644 282.70163 393.65894 282.70163Q392.48706 282.70163 391.7058 281.82663Q390.92456 280.95163 390.92456 279.20163ZM393.6902 276.98288Q393.09644 276.98288 392.7058 277.4985Q392.3152 277.9985 392.3152 279.3735Q392.3152 280.59225 392.7058 281.10788Q393.09644 281.6235 393.67456 281.6235Q394.28394 281.6235 394.67456 281.10788Q395.0652 280.59225 395.0652 279.2485Q395.0652 277.9985 394.67456 277.4985Q394.28394 276.98288 393.6902 276.98288Z" fill-rule="nonzero"/><path fill="#ffffff" d="M211.51295 280.71725L211.51295 282.23288L202.99733 282.23288Q202.9817 281.65475 203.18483 281.13913Q203.51295 280.26413 204.21608 279.42038Q204.93483 278.57663 206.2942 277.46725Q208.38795 275.7485 209.12233 274.7485Q209.87233 273.73288 209.87233 272.84225Q209.87233 271.88913 209.20045 271.2485Q208.52858 270.60788 207.45045 270.60788Q206.2942 270.60788 205.6067 271.29538Q204.93483 271.98288 204.9192 273.186L203.2942 273.01413Q203.46608 271.20163 204.5442 270.2485Q205.63795 269.29538 207.4817 269.29538Q209.32545 269.29538 210.40358 270.32663Q211.49733 271.35788 211.49733 272.8735Q211.49733 273.63913 211.1692 274.38913Q210.8567 275.13913 210.12233 275.96725Q209.38795 276.79538 207.68483 278.23288Q206.26295 279.436 205.8567 279.85788Q205.45045 280.27975 205.20045 280.71725L211.51295 280.71725ZM213.20045 278.85788L214.8567 278.71725Q215.0442 279.936 215.71608 280.54538Q216.38795 281.15475 217.34108 281.15475Q218.4817 281.15475 219.26295 280.29538Q220.05983 279.436 220.05983 277.9985Q220.05983 276.65475 219.2942 275.8735Q218.5442 275.09225 217.30983 275.09225Q216.5442 275.09225 215.9192 275.436Q215.30983 275.77975 214.96608 276.34225L213.4817 276.13913L214.7317 269.52975L221.13795 269.52975L221.13795 271.02975L215.99733 271.02975L215.2942 274.4985Q216.46608 273.686 217.7317 273.686Q219.4192 273.686 220.57545 274.85788Q221.74733 276.02975 221.74733 277.85788Q221.74733 279.60788 220.71608 280.88913Q219.4817 282.45163 217.34108 282.45163Q215.57545 282.45163 214.46608 281.46725Q213.3567 280.48288 213.20045 278.85788ZM224.09108 282.23288L224.09108 280.436L225.88795 280.436L225.88795 282.23288L224.09108 282.23288ZM228.20045 275.8735Q228.20045 273.59225 228.6692 272.20163Q229.13795 270.811 230.05983 270.061Q230.99733 269.29538 232.40358 269.29538Q233.43483 269.29538 234.21608 269.71725Q234.99733 270.1235 235.49733 270.92038Q236.01295 271.70163 236.30983 272.84225Q236.6067 273.96725 236.6067 275.8735Q236.6067 278.13913 236.13795 279.54538Q235.6692 280.936 234.7317 281.70163Q233.80983 282.45163 232.40358 282.45163Q230.52858 282.45163 229.46608 281.1235Q228.20045 279.51413 228.20045 275.8735ZM229.82545 275.8735Q229.82545 279.04538 230.55983 280.10788Q231.30983 281.15475 232.40358 281.15475Q233.4817 281.15475 234.2317 280.10788Q234.9817 279.04538 234.9817 275.8735Q234.9817 272.70163 234.2317 271.65475Q233.4817 270.60788 232.38795 270.60788Q231.2942 270.60788 230.63795 271.52975Q229.82545 272.70163 229.82545 275.8735ZM238.49733 272.436Q238.49733 271.061 239.18483 270.09225Q239.88795 269.1235 241.20045 269.1235Q242.4192 269.1235 243.21608 269.9985Q244.01295 270.85788 244.01295 272.54538Q244.01295 274.17038 243.20045 275.061Q242.40358 275.936 241.21608 275.936Q240.05983 275.936 239.27858 275.07663Q238.49733 274.20163 238.49733 272.436ZM241.24733 270.21725Q240.65358 270.21725 240.26295 270.73288Q239.87233 271.23288 239.87233 272.59225Q239.87233 273.84225 240.26295 274.34225Q240.6692 274.84225 241.24733 274.84225Q241.84108 274.84225 242.2317 274.34225Q242.62233 273.82663 242.62233 272.48288Q242.62233 271.23288 242.2317 270.73288Q241.84108 270.21725 241.24733 270.21725ZM241.26295 282.70163L248.30983 269.1235L249.59108 269.1235L242.55983 282.70163L241.26295 282.70163ZM246.82545 279.20163Q246.82545 277.82663 247.51295 276.85788Q248.21608 275.88913 249.5442 275.88913Q250.76295 275.88913 251.5442 276.76413Q252.34108 277.6235 252.34108 279.311Q252.34108 280.936 251.5442 281.82663Q250.74733 282.70163 249.55983 282.70163Q248.38795 282.70163 247.6067 281.82663Q246.82545 280.95163 246.82545 279.20163ZM249.59108 276.98288Q248.99733 276.98288 248.6067 277.4985Q248.21608 277.9985 248.21608 279.3735Q248.21608 280.59225 248.6067 281.10788Q248.99733 281.6235 249.57545 281.6235Q250.18483 281.6235 250.57545 281.10788Q250.96608 280.59225 250.96608 279.2485Q250.96608 277.9985 250.57545 277.4985Q250.18483 276.98288 249.59108 276.98288Z" fill-rule="nonzero"/><path fill="#ffffff" d="M211.51295 136.61816L211.51295 138.13379L202.99733 138.13379Q202.9817 137.55566 203.18483 137.04004Q203.51295 136.16504 204.21608 135.32129Q204.93483 134.47754 206.2942 133.36816Q208.38795 131.64941 209.12233 130.64941Q209.87233 129.63379 209.87233 128.74316Q209.87233 127.79004 209.20045 127.149414Q208.52858 126.50879 207.45045 126.50879Q206.2942 126.50879 205.6067 127.19629Q204.93483 127.88379 204.9192 129.08691L203.2942 128.91504Q203.46608 127.10254 204.5442 126.149414Q205.63795 125.19629 207.4817 125.19629Q209.32545 125.19629 210.40358 126.22754Q211.49733 127.25879 211.49733 128.77441Q211.49733 129.54004 211.1692 130.29004Q210.8567 131.04004 210.12233 131.86816Q209.38795 132.69629 207.68483 134.13379Q206.26295 135.33691 205.8567 135.75879Q205.45045 136.18066 205.20045 136.61816L211.51295 136.61816ZM213.20045 134.75879L214.8567 134.61816Q215.0442 135.83691 215.71608 136.44629Q216.38795 137.05566 217.34108 137.05566Q218.4817 137.05566 219.26295 136.19629Q220.05983 135.33691 220.05983 133.89941Q220.05983 132.55566 219.2942 131.77441Q218.5442 130.99316 217.30983 130.99316Q216.5442 130.99316 215.9192 131.33691Q215.30983 131.68066 214.96608 132.24316L213.4817 132.04004L214.7317 125.430664L221.13795 125.430664L221.13795 126.930664L215.99733 126.930664L215.2942 130.39941Q216.46608 129.58691 217.7317 129.58691Q219.4192 129.58691 220.57545 130.75879Q221.74733 131.93066 221.74733 133.75879Q221.74733 135.50879 220.71608 136.79004Q219.4817 138.35254 217.34108 138.35254Q215.57545 138.35254 214.46608 137.36816Q213.3567 136.38379 213.20045 134.75879ZM224.09108 138.13379L224.09108 136.33691L225.88795 136.33691L225.88795 138.13379L224.09108 138.13379ZM228.20045 131.77441Q228.20045 129.49316 228.6692 128.10254Q229.13795 126.711914 230.05983 125.961914Q230.99733 125.19629 232.40358 125.19629Q233.43483 125.19629 234.21608 125.618164Q234.99733 126.024414 235.49733 126.82129Q236.01295 127.60254 236.30983 128.74316Q236.6067 129.86816 236.6067 131.77441Q236.6067 134.04004 236.13795 135.44629Q235.6692 136.83691 234.7317 137.60254Q233.80983 138.35254 232.40358 138.35254Q230.52858 138.35254 229.46608 137.02441Q228.20045 135.41504 228.20045 131.77441ZM229.82545 131.77441Q229.82545 134.94629 230.55983 136.00879Q231.30983 137.05566 232.40358 137.05566Q233.4817 137.05566 234.2317 136.00879Q234.9817 134.94629 234.9817 131.77441Q234.9817 128.60254 234.2317 127.555664Q233.4817 126.50879 232.38795 126.50879Q231.2942 126.50879 230.63795 127.430664Q229.82545 128.60254 229.82545 131.77441ZM238.49733 128.33691Q238.49733 126.961914 239.18483 125.993164Q239.88795 125.024414 241.20045 125.024414Q242.4192 125.024414 243.21608 125.899414Q244.01295 126.75879 244.01295 128.44629Q244.01295 130.07129 243.20045 130.96191Q242.40358 131.83691 241.21608 131.83691Q240.05983 131.83691 239.27858 130.97754Q238.49733 130.10254 238.49733 128.33691ZM241.24733 126.118164Q240.65358 126.118164 240.26295 126.63379Q239.87233 127.13379 239.87233 128.49316Q239.87233 129.74316 240.26295 130.24316Q240.6692 130.74316 241.24733 130.74316Q241.84108 130.74316 242.2317 130.24316Q242.62233 129.72754 242.62233 128.38379Q242.62233 127.13379 242.2317 126.63379Q241.84108 126.118164 241.24733 126.118164ZM241.26295 138.60254L248.30983 125.024414L249.59108 125.024414L242.55983 138.60254L241.26295 138.60254ZM246.82545 135.10254Q246.82545 133.72754 247.51295 132.75879Q248.21608 131.79004 249.5442 131.79004Q250.76295 131.79004 251.5442 132.66504Q252.34108 133.52441 252.34108 135.21191Q252.34108 136.83691 251.5442 137.72754Q250.74733 138.60254 249.55983 138.60254Q248.38795 138.60254 247.6067 137.72754Q246.82545 136.85254 246.82545 135.10254ZM249.59108 132.88379Q248.99733 132.88379 248.6067 133.39941Q248.21608 133.89941 248.21608 135.27441Q248.21608 136.49316 248.6067 137.00879Q248.99733 137.52441 249.57545 137.52441Q250.18483 137.52441 250.57545 137.00879Q250.96608 136.49316 250.96608 135.14941Q250.96608 133.89941 250.57545 133.39941Q250.18483 132.88379 249.59108 132.88379Z" fill-rule="nonzero"/><path stroke="#ffffff" stroke-width="1.0" stroke-linejoin="round" stroke-linecap="round" d="M337.19168 203.68333C337.19168 183.14294 320.5404 166.49167 300.0 166.49167L300.0 54.916668C382.16156 54.916668 448.76666 121.521774 448.76666 203.68333" fill-rule="nonzero"/><path stroke="#ffffff" stroke-width="1.0" stroke-linejoin="round" stroke-linecap="round" d="M300.0 240.875C320.5404 240.875 337.19168 224.22372 337.19168 203.68333L448.76666 203.68333C448.76666 285.8449 382.16156 352.45 300.0 352.45" fill-rule="nonzero"/><path stroke="#ffffff" stroke-width="1.0" stroke-linejoin="round" stroke-linecap="round" d="M262.80832 203.68333C262.80832 224.22372 279.4596 240.875 300.0 240.875L300.0 352.45C217.83844 352.45 151.23334 285.8449 151.23334 203.68333" fill-rule="nonzero"/><path stroke="#ffffff" stroke-width="1.0" stroke-linejoin="round" stroke-linecap="round" d="M300.0 166.49167C279.4596 166.49167 262.80832 183.14294 262.80832 203.68333L151.23334 203.68333C151.23334 121.521774 217.83844 54.916668 300.0 54.916668" fill-rule="nonzero"/><path fill="#efefef" d="M27.3 86.79598L28.815624 86.79598L28.815624 93.40536Q28.815624 95.13973 28.425 96.15536Q28.034374 97.17098 27.01875 97.81161Q26.003124 98.45223 24.346874 98.45223Q22.7375 98.45223 21.70625 97.88973Q20.690624 97.32723 20.253124 96.28036Q19.815624 95.23348 19.815624 93.40536L19.815624 86.79598L21.33125 86.79598L21.33125 93.40536Q21.33125 94.88973 21.596874 95.60848Q21.878124 96.31161 22.55 96.70223Q23.2375 97.07723 24.20625 97.07723Q25.878124 97.07723 26.58125 96.32723Q27.3 95.56161 27.3 93.40536L27.3 86.79598ZM31.596874 98.24911L31.596874 89.95223L32.8625 89.95223L32.8625 91.20223Q33.346874 90.32723 33.753124 90.04598Q34.159374 89.76473 34.659374 89.76473Q35.3625 89.76473 36.096874 90.21786L35.6125 91.51473Q35.096874 91.21786 34.58125 91.21786Q34.128124 91.21786 33.753124 91.49911Q33.39375 91.76473 33.2375 92.26473Q33.003124 93.01473 33.003124 93.90536L33.003124 98.24911L31.596874 98.24911ZM37.909374 98.24911L36.596874 98.24911L36.596874 86.79598L38.003124 86.79598L38.003124 90.87411Q38.89375 89.76473 40.284374 89.76473Q41.05 89.76473 41.721874 90.07723Q42.409374 90.37411 42.846874 90.93661Q43.3 91.49911 43.55 92.29598Q43.8 93.07723 43.8 93.96786Q43.8 96.10848 42.7375 97.28036Q41.690624 98.43661 40.20625 98.43661Q38.7375 98.43661 37.909374 97.20223L37.909374 98.24911ZM37.89375 94.03036Q37.89375 95.53036 38.3 96.18661Q38.95625 97.28036 40.096874 97.28036Q41.01875 97.28036 41.690624 96.48348Q42.3625 95.67098 42.3625 94.09286Q42.3625 92.46786 41.70625 91.70223Q41.065624 90.92098 40.159374 90.92098Q39.2375 90.92098 38.565624 91.71786Q37.89375 92.51473 37.89375 94.03036ZM51.01875 97.21786Q50.2375 97.88973 49.51875 98.17098Q48.8 98.43661 47.971874 98.43661Q46.596874 98.43661 45.8625 97.76473Q45.128124 97.09286 45.128124 96.06161Q45.128124 95.45223 45.409374 94.95223Q45.690624 94.43661 46.128124 94.13973Q46.58125 93.82723 47.14375 93.67098Q47.565624 93.56161 48.39375 93.46786Q50.096874 93.26473 50.909374 92.98348Q50.909374 92.68661 50.909374 92.60848Q50.909374 91.74911 50.51875 91.40536Q49.971874 90.92098 48.909374 90.92098Q47.925 90.92098 47.440624 91.28036Q46.971874 91.62411 46.753124 92.49911L45.378124 92.31161Q45.565624 91.43661 45.9875 90.88973Q46.425 90.34286 47.2375 90.06161Q48.05 89.76473 49.1125 89.76473Q50.175 89.76473 50.83125 90.01473Q51.503124 90.26473 51.815624 90.63973Q52.128124 91.01473 52.253124 91.59286Q52.33125 91.95223 52.33125 92.88973L52.33125 94.76473Q52.33125 96.73348 52.409374 97.24911Q52.503124 97.76473 52.76875 98.24911L51.3 98.24911Q51.08125 97.81161 51.01875 97.21786ZM50.909374 94.07723Q50.14375 94.38973 48.6125 94.60848Q47.7375 94.73348 47.378124 94.88973Q47.01875 95.04598 46.815624 95.35848Q46.628124 95.65536 46.628124 96.01473Q46.628124 96.57723 47.05 96.95223Q47.4875 97.32723 48.3 97.32723Q49.1125 97.32723 49.7375 96.98348Q50.378124 96.62411 50.675 95.99911Q50.909374 95.53036 50.909374 94.59286L50.909374 94.07723ZM54.6125 98.24911L54.6125 89.95223L55.878124 89.95223L55.878124 91.12411Q56.784374 89.76473 58.51875 89.76473Q59.26875 89.76473 59.89375 90.03036Q60.51875 90.29598 60.83125 90.73348Q61.14375 91.17098 61.26875 91.78036Q61.346874 92.17098 61.346874 93.13973L61.346874 98.24911L59.940624 98.24911L59.940624 93.20223Q59.940624 92.34286 59.76875 91.92098Q59.6125 91.48348 59.190624 91.23348Q58.784374 90.98348 58.221874 90.98348Q57.315624 90.98348 56.659374 91.56161Q56.01875 92.12411 56.01875 93.71786L56.01875 98.24911L54.6125 98.24911ZM63.05 95.76473L64.44063 95.54598Q64.55 96.38973 65.08125 96.84286Q65.62813 97.28036 66.58125 97.28036Q67.55 97.28036 68.01875 96.88973Q68.4875 96.48348 68.4875 95.95223Q68.4875 95.48348 68.08125 95.20223Q67.78438 95.01473 66.64375 94.73348Q65.09688 94.34286 64.4875 94.06161Q63.89375 93.76473 63.58125 93.26473Q63.284374 92.76473 63.284374 92.15536Q63.284374 91.59286 63.534374 91.12411Q63.784374 90.65536 64.22188 90.34286Q64.55 90.09286 65.1125 89.93661Q65.69063 89.76473 66.33125 89.76473Q67.31563 89.76473 68.05 90.04598Q68.78438 90.32723 69.12813 90.81161Q69.4875 91.28036 69.62813 92.09286L68.25313 92.28036Q68.15938 91.63973 67.70625 91.28036Q67.25313 90.92098 66.44063 90.92098Q65.47188 90.92098 65.05 91.24911Q64.64375 91.56161 64.64375 91.98348Q64.64375 92.26473 64.81563 92.48348Q64.9875 92.70223 65.34688 92.85848Q65.56563 92.93661 66.59688 93.21786Q68.08125 93.60848 68.675 93.87411Q69.26875 94.12411 69.59688 94.60848Q69.94063 95.09286 69.94063 95.81161Q69.94063 96.51473 69.51875 97.13973Q69.1125 97.74911 68.33125 98.09286Q67.56563 98.43661 66.59688 98.43661Q64.97188 98.43661 64.12813 97.76473Q63.284374 97.09286 63.05 95.76473ZM77.01875 95.20223L78.40938 95.38973Q78.175 96.81161 77.2375 97.62411Q76.31563 98.43661 74.95625 98.43661Q73.25313 98.43661 72.20625 97.32723Q71.175 96.20223 71.175 94.12411Q71.175 92.78036 71.6125 91.78036Q72.06563 90.76473 72.97188 90.26473Q73.89375 89.76473 74.95625 89.76473Q76.31563 89.76473 77.175 90.45223Q78.03438 91.12411 78.26875 92.38973L76.90938 92.59286Q76.70625 91.76473 76.20625 91.34286Q75.72188 90.92098 75.01875 90.92098Q73.95625 90.92098 73.28438 91.68661Q72.62813 92.43661 72.62813 94.09286Q72.62813 95.76473 73.26875 96.53036Q73.90938 97.28036 74.94063 97.28036Q75.76875 97.28036 76.31563 96.78036Q76.87813 96.26473 77.01875 95.20223ZM85.01875 97.21786Q84.2375 97.88973 83.51875 98.17098Q82.8 98.43661 81.97188 98.43661Q80.59688 98.43661 79.8625 97.76473Q79.12813 97.09286 79.12813 96.06161Q79.12813 95.45223 79.40938 94.95223Q79.69063 94.43661 80.12813 94.13973Q80.58125 93.82723 81.14375 93.67098Q81.56563 93.56161 82.39375 93.46786Q84.09688 93.26473 84.90938 92.98348Q84.90938 92.68661 84.90938 92.60848Q84.90938 91.74911 84.51875 91.40536Q83.97188 90.92098 82.90938 90.92098Q81.925 90.92098 81.44063 91.28036Q80.97188 91.62411 80.75313 92.49911L79.37813 92.31161Q79.56563 91.43661 79.9875 90.88973Q80.425 90.34286 81.2375 90.06161Q82.05 89.76473 83.1125 89.76473Q84.175 89.76473 84.83125 90.01473Q85.50313 90.26473 85.81563 90.63973Q86.12813 91.01473 86.25313 91.59286Q86.33125 91.95223 86.33125 92.88973L86.33125 94.76473Q86.33125 96.73348 86.40938 97.24911Q86.50313 97.76473 86.76875 98.24911L85.3 98.24911Q85.08125 97.81161 85.01875 97.21786ZM84.90938 94.07723Q84.14375 94.38973 82.6125 94.60848Q81.7375 94.73348 81.37813 94.88973Q81.01875 95.04598 80.81563 95.35848Q80.62813 95.65536 80.62813 96.01473Q80.62813 96.57723 81.05 96.95223Q81.4875 97.32723 82.3 97.32723Q83.1125 97.32723 83.7375 96.98348Q84.37813 96.62411 84.675 95.99911Q84.90938 95.53036 84.90938 94.59286L84.90938 94.07723ZM88.6125 101.43661L88.6125 89.95223L89.89375 89.95223L89.89375 91.03036Q90.34688 90.38973 90.90938 90.07723Q91.4875 89.76473 92.3 89.76473Q93.3625 89.76473 94.175 90.31161Q94.9875 90.85848 95.39375 91.85848Q95.81563 92.84286 95.81563 94.03036Q95.81563 95.31161 95.34688 96.32723Q94.89375 97.34286 94.01875 97.88973Q93.15938 98.43661 92.19063 98.43661Q91.4875 98.43661 90.925 98.13973Q90.37813 97.84286 90.01875 97.38973L90.01875 101.43661L88.6125 101.43661ZM89.87813 94.13973Q89.87813 95.74911 90.51875 96.51473Q91.175 97.28036 92.09688 97.28036Q93.03438 97.28036 93.70625 96.48348Q94.37813 95.68661 94.37813 94.03036Q94.37813 92.43661 93.72188 91.65536Q93.06563 90.85848 92.15938 90.85848Q91.26875 90.85848 90.56563 91.70223Q89.87813 92.54598 89.87813 94.13973ZM103.28438 95.57723L104.7375 95.74911Q104.39375 97.03036 103.45625 97.73348Q102.53438 98.43661 101.09688 98.43661Q99.26875 98.43661 98.20625 97.31161Q97.14375 96.18661 97.14375 94.17098Q97.14375 92.07723 98.22188 90.92098Q99.3 89.76473 101.01875 89.76473Q102.675 89.76473 103.72188 90.90536Q104.78438 92.03036 104.78438 94.07723Q104.78438 94.20223 104.78438 94.45223L98.59688 94.45223Q98.675 95.82723 99.3625 96.56161Q100.06563 97.28036 101.09688 97.28036Q101.87813 97.28036 102.425 96.87411Q102.97188 96.46786 103.28438 95.57723ZM98.675 93.29598L103.3 93.29598Q103.20625 92.24911 102.76875 91.73348Q102.09688 90.92098 101.03438 90.92098Q100.06563 90.92098 99.39375 91.57723Q98.7375 92.21786 98.675 93.29598Z" fill-rule="nonzero"/><path fill="#9e9e9e" d="M26.6125 118.88973L26.6125 120.24911L19.034374 120.24911Q19.01875 119.73348 19.20625 119.26473Q19.4875 118.49911 20.128124 117.74911Q20.76875 116.99911 21.971874 116.01473Q23.83125 114.48348 24.4875 113.59286Q25.14375 112.68661 25.14375 111.88973Q25.14375 111.06161 24.55 110.48348Q23.95625 109.90536 22.9875 109.90536Q21.971874 109.90536 21.3625 110.51473Q20.753124 111.12411 20.753124 112.20223L19.3 112.06161Q19.45625 110.43661 20.425 109.59286Q21.39375 108.74911 23.01875 108.74911Q24.675 108.74911 25.628124 109.67098Q26.596874 110.57723 26.596874 111.92098Q26.596874 112.60848 26.315624 113.28036Q26.034374 113.93661 25.378124 114.67098Q24.721874 115.40536 23.20625 116.68661Q21.940624 117.74911 21.58125 118.13973Q21.221874 118.51473 20.9875 118.88973L26.6125 118.88973ZM28.221874 117.24911L29.690624 117.12411Q29.8625 118.20223 30.45625 118.74911Q31.05 119.28036 31.89375 119.28036Q32.909374 119.28036 33.6125 118.51473Q34.315624 117.74911 34.315624 116.48348Q34.315624 115.28036 33.64375 114.59286Q32.971874 113.88973 31.878124 113.88973Q31.190624 113.88973 30.64375 114.20223Q30.096874 114.51473 29.784374 114.99911L28.471874 114.82723L29.58125 108.95223L35.26875 108.95223L35.26875 110.29598L30.70625 110.29598L30.08125 113.37411Q31.1125 112.65536 32.253124 112.65536Q33.753124 112.65536 34.784374 113.70223Q35.815624 114.73348 35.815624 116.35848Q35.815624 117.92098 34.909374 119.04598Q33.8 120.45223 31.89375 120.45223Q30.33125 120.45223 29.346874 119.57723Q28.3625 118.68661 28.221874 117.24911ZM38.003124 120.24911L38.003124 118.63973L39.6125 118.63973L39.6125 120.24911L38.003124 120.24911ZM41.221874 114.59286Q41.221874 112.56161 41.628124 111.32723Q42.05 110.09286 42.878124 109.42098Q43.70625 108.74911 44.95625 108.74911Q45.878124 108.74911 46.565624 109.12411Q47.26875 109.48348 47.721874 110.18661Q48.175 110.88973 48.425 111.88973Q48.690624 112.88973 48.690624 114.59286Q48.690624 116.60848 48.26875 117.85848Q47.8625 119.09286 47.034374 119.78036Q46.20625 120.45223 44.95625 120.45223Q43.3 120.45223 42.346874 119.24911Q41.221874 117.82723 41.221874 114.59286ZM42.659374 114.59286Q42.659374 117.42098 43.315624 118.35848Q43.9875 119.28036 44.95625 119.28036Q45.925 119.28036 46.58125 118.34286Q47.2375 117.40536 47.2375 114.59286Q47.2375 111.76473 46.58125 110.84286Q45.925 109.90536 44.940624 109.90536Q43.971874 109.90536 43.39375 110.73348Q42.659374 111.78036 42.659374 114.59286ZM50.4875 111.54598Q50.4875 110.31161 51.096874 109.45223Q51.721874 108.59286 52.89375 108.59286Q53.971874 108.59286 54.675 109.37411Q55.378124 110.13973 55.378124 111.62411Q55.378124 113.07723 54.659374 113.87411Q53.95625 114.65536 52.909374 114.65536Q51.8625 114.65536 51.175 113.88973Q50.4875 113.10848 50.4875 111.54598ZM52.925 109.56161Q52.409374 109.56161 52.05 110.01473Q51.70625 110.46786 51.70625 111.68661Q51.70625 112.78036 52.05 113.23348Q52.409374 113.68661 52.925 113.68661Q53.45625 113.68661 53.8 113.23348Q54.159374 112.78036 54.159374 111.57723Q54.159374 110.46786 53.8 110.01473Q53.45625 109.56161 52.925 109.56161ZM52.940624 120.67098L59.20625 108.59286L60.346874 108.59286L54.096874 120.67098L52.940624 120.67098ZM57.89375 117.56161Q57.89375 116.32723 58.503124 115.46786Q59.128124 114.60848 60.3 114.60848Q61.378124 114.60848 62.08125 115.38973Q62.8 116.15536 62.8 117.63973Q62.8 119.09286 62.08125 119.88973Q61.3625 120.67098 60.315624 120.67098Q59.26875 120.67098 58.58125 119.88973Q57.89375 119.10848 57.89375 117.56161ZM60.346874 115.57723Q59.815624 115.57723 59.45625 116.03036Q59.1125 116.48348 59.1125 117.70223Q59.1125 118.79598 59.45625 119.24911Q59.815624 119.70223 60.33125 119.70223Q60.878124 119.70223 61.221874 119.24911Q61.565624 118.79598 61.565624 117.59286Q61.565624 116.48348 61.20625 116.03036Q60.8625 115.57723 60.346874 115.57723Z" fill-rule="nonzero"/><path stroke="#757575" stroke-width="1.0" stroke-linecap="butt" d="M18.55 103.74911L145.23334 103.74911L200.06578 103.74911" fill-rule="nonzero"/><path fill="#9e9e9e" d="M202.06578 103.74911C202.06578 102.64454 201.17035 101.74911 200.06578 101.74911C198.96121 101.74911 198.06578 102.64454 198.06578 103.74911C198.06578 104.85368 198.96121 105.74911 200.06578 105.74911C201.17035 105.74911 202.06578 104.85368 202.06578 103.74911" fill-rule="nonzero"/><path fill="#efefef" d="M19.76875 298.11755L19.76875 286.66443L21.33125 286.66443L27.346874 295.6488L27.346874 286.66443L28.8 286.66443L28.8 298.11755L27.2375 298.11755L21.221874 289.11755L21.221874 298.11755L19.76875 298.11755ZM37.01875 297.0863Q36.2375 297.75818 35.51875 298.03943Q34.8 298.30505 33.971874 298.30505Q32.596874 298.30505 31.8625 297.63318Q31.128124 296.9613 31.128124 295.93005Q31.128124 295.32068 31.409374 294.82068Q31.690624 294.30505 32.128124 294.00818Q32.58125 293.69568 33.14375 293.53943Q33.565624 293.43005 34.39375 293.3363Q36.096874 293.13318 36.909374 292.85193Q36.909374 292.55505 36.909374 292.47693Q36.909374 291.61755 36.51875 291.2738Q35.971874 290.78943 34.909374 290.78943Q33.925 290.78943 33.440624 291.1488Q32.971874 291.49255 32.753124 292.36755L31.378124 292.18005Q31.565624 291.30505 31.9875 290.75818Q32.425 290.2113 33.2375 289.93005Q34.05 289.63318 35.1125 289.63318Q36.175 289.63318 36.83125 289.88318Q37.503124 290.13318 37.815624 290.50818Q38.128124 290.88318 38.253124 291.4613Q38.33125 291.82068 38.33125 292.75818L38.33125 294.63318Q38.33125 296.60193 38.409374 297.11755Q38.503124 297.63318 38.76875 298.11755L37.3 298.11755Q37.08125 297.68005 37.01875 297.0863ZM36.909374 293.94568Q36.14375 294.25818 34.6125 294.47693Q33.7375 294.60193 33.378124 294.75818Q33.01875 294.91443 32.815624 295.22693Q32.628124 295.5238 32.628124 295.88318Q32.628124 296.44568 33.05 296.82068Q33.4875 297.19568 34.3 297.19568Q35.1125 297.19568 35.7375 296.85193Q36.378124 296.49255 36.675 295.86755Q36.909374 295.3988 36.909374 294.4613L36.909374 293.94568ZM43.675 296.85193L43.878124 298.10193Q43.284374 298.22693 42.815624 298.22693Q42.05 298.22693 41.628124 297.99255Q41.20625 297.74255 41.034374 297.35193Q40.8625 296.94568 40.8625 295.68005L40.8625 290.91443L39.83125 290.91443L39.83125 289.82068L40.8625 289.82068L40.8625 287.75818L42.26875 286.91443L42.26875 289.82068L43.675 289.82068L43.675 290.91443L42.26875 290.91443L42.26875 295.75818Q42.26875 296.36755 42.33125 296.53943Q42.409374 296.7113 42.58125 296.82068Q42.753124 296.91443 43.065624 296.91443Q43.3 296.91443 43.675 296.85193ZM50.05 298.11755L50.05 296.8988Q49.08125 298.30505 47.409374 298.30505Q46.675 298.30505 46.034374 298.0238Q45.409374 297.74255 45.096874 297.32068Q44.784374 296.88318 44.659374 296.2738Q44.58125 295.85193 44.58125 294.9613L44.58125 289.82068L45.9875 289.82068L45.9875 294.41443Q45.9875 295.5238 46.065624 295.8988Q46.20625 296.4613 46.628124 296.7738Q47.065624 297.0863 47.690624 297.0863Q48.33125 297.0863 48.878124 296.7738Q49.440624 296.44568 49.659374 295.88318Q49.89375 295.32068 49.89375 294.25818L49.89375 289.82068L51.3 289.82068L51.3 298.11755L50.05 298.11755ZM53.596874 298.11755L53.596874 289.82068L54.8625 289.82068L54.8625 291.07068Q55.346874 290.19568 55.753124 289.91443Q56.159374 289.63318 56.659374 289.63318Q57.3625 289.63318 58.096874 290.0863L57.6125 291.38318Q57.096874 291.0863 56.58125 291.0863Q56.128124 291.0863 55.753124 291.36755Q55.39375 291.63318 55.2375 292.13318Q55.003124 292.88318 55.003124 293.7738L55.003124 298.11755L53.596874 298.11755ZM64.28438 295.44568L65.7375 295.61755Q65.39375 296.8988 64.45625 297.60193Q63.534374 298.30505 62.096874 298.30505Q60.26875 298.30505 59.20625 297.18005Q58.14375 296.05505 58.14375 294.03943Q58.14375 291.94568 59.221874 290.78943Q60.3 289.63318 62.01875 289.63318Q63.675 289.63318 64.72188 290.7738Q65.78438 291.8988 65.78438 293.94568Q65.78438 294.07068 65.78438 294.32068L59.596874 294.32068Q59.675 295.69568 60.3625 296.43005Q61.065624 297.1488 62.096874 297.1488Q62.878124 297.1488 63.425 296.74255Q63.971874 296.3363 64.28438 295.44568ZM59.675 293.16443L64.3 293.16443Q64.20625 292.11755 63.76875 291.60193Q63.096874 290.78943 62.034374 290.78943Q61.065624 290.78943 60.39375 291.44568Q59.7375 292.0863 59.675 293.16443ZM67.05 295.63318L68.44063 295.41443Q68.55 296.25818 69.08125 296.7113Q69.62813 297.1488 70.58125 297.1488Q71.55 297.1488 72.01875 296.75818Q72.4875 296.35193 72.4875 295.82068Q72.4875 295.35193 72.08125 295.07068Q71.78438 294.88318 70.64375 294.60193Q69.09688 294.2113 68.4875 293.93005Q67.89375 293.63318 67.58125 293.13318Q67.28438 292.63318 67.28438 292.0238Q67.28438 291.4613 67.53438 290.99255Q67.78438 290.5238 68.22188 290.2113Q68.55 289.9613 69.1125 289.80505Q69.69063 289.63318 70.33125 289.63318Q71.31563 289.63318 72.05 289.91443Q72.78438 290.19568 73.12813 290.68005Q73.4875 291.1488 73.62813 291.9613L72.25313 292.1488Q72.15938 291.50818 71.70625 291.1488Q71.25313 290.78943 70.44063 290.78943Q69.47188 290.78943 69.05 291.11755Q68.64375 291.43005 68.64375 291.85193Q68.64375 292.13318 68.81563 292.35193Q68.9875 292.57068 69.34688 292.72693Q69.56563 292.80505 70.59688 293.0863Q72.08125 293.47693 72.675 293.74255Q73.26875 293.99255 73.59688 294.47693Q73.94063 294.9613 73.94063 295.68005Q73.94063 296.38318 73.51875 297.00818Q73.1125 297.61755 72.33125 297.9613Q71.56563 298.30505 70.59688 298.30505Q68.97188 298.30505 68.12813 297.63318Q67.28438 296.9613 67.05 295.63318ZM81.01875 295.07068L82.40938 295.25818Q82.175 296.68005 81.2375 297.49255Q80.31563 298.30505 78.95625 298.30505Q77.25313 298.30505 76.20625 297.19568Q75.175 296.07068 75.175 293.99255Q75.175 292.6488 75.6125 291.6488Q76.06563 290.63318 76.97188 290.13318Q77.89375 289.63318 78.95625 289.63318Q80.31563 289.63318 81.175 290.32068Q82.03438 290.99255 82.26875 292.25818L80.90938 292.4613Q80.70625 291.63318 80.20625 291.2113Q79.72188 290.78943 79.01875 290.78943Q77.95625 290.78943 77.28438 291.55505Q76.62813 292.30505 76.62813 293.9613Q76.62813 295.63318 77.26875 296.3988Q77.90938 297.1488 78.94063 297.1488Q79.76875 297.1488 80.31563 296.6488Q80.87813 296.13318 81.01875 295.07068ZM89.01875 297.0863Q88.2375 297.75818 87.51875 298.03943Q86.8 298.30505 85.97188 298.30505Q84.59688 298.30505 83.8625 297.63318Q83.12813 296.9613 83.12813 295.93005Q83.12813 295.32068 83.40938 294.82068Q83.69063 294.30505 84.12813 294.00818Q84.58125 293.69568 85.14375 293.53943Q85.56563 293.43005 86.39375 293.3363Q88.09688 293.13318 88.90938 292.85193Q88.90938 292.55505 88.90938 292.47693Q88.90938 291.61755 88.51875 291.2738Q87.97188 290.78943 86.90938 290.78943Q85.925 290.78943 85.44063 291.1488Q84.97188 291.49255 84.75313 292.36755L83.37813 292.18005Q83.56563 291.30505 83.9875 290.75818Q84.425 290.2113 85.2375 289.93005Q86.05 289.63318 87.1125 289.63318Q88.175 289.63318 88.83125 289.88318Q89.50313 290.13318 89.81563 290.50818Q90.12813 290.88318 90.25313 291.4613Q90.33125 291.82068 90.33125 292.75818L90.33125 294.63318Q90.33125 296.60193 90.40938 297.11755Q90.50313 297.63318 90.76875 298.11755L89.3 298.11755Q89.08125 297.68005 89.01875 297.0863ZM88.90938 293.94568Q88.14375 294.25818 86.6125 294.47693Q85.7375 294.60193 85.37813 294.75818Q85.01875 294.91443 84.81563 295.22693Q84.62813 295.5238 84.62813 295.88318Q84.62813 296.44568 85.05 296.82068Q85.4875 297.19568 86.3 297.19568Q87.1125 297.19568 87.7375 296.85193Q88.37813 296.49255 88.675 295.86755Q88.90938 295.3988 88.90938 294.4613L88.90938 293.94568ZM92.6125 301.30505L92.6125 289.82068L93.89375 289.82068L93.89375 290.8988Q94.34688 290.25818 94.90938 289.94568Q95.4875 289.63318 96.3 289.63318Q97.3625 289.63318 98.175 290.18005Q98.9875 290.72693 99.39375 291.72693Q99.81563 292.7113 99.81563 293.8988Q99.81563 295.18005 99.34688 296.19568Q98.89375 297.2113 98.01875 297.75818Q97.15938 298.30505 96.19063 298.30505Q95.4875 298.30505 94.925 298.00818Q94.37813 297.7113 94.01875 297.25818L94.01875 301.30505L92.6125 301.30505ZM93.87813 294.00818Q93.87813 295.61755 94.51875 296.38318Q95.175 297.1488 96.09688 297.1488Q97.03438 297.1488 97.70625 296.35193Q98.37813 295.55505 98.37813 293.8988Q98.37813 292.30505 97.72188 291.5238Q97.06563 290.72693 96.15938 290.72693Q95.26875 290.72693 94.56563 291.57068Q93.87813 292.41443 93.87813 294.00818ZM107.28438 295.44568L108.7375 295.61755Q108.39375 296.8988 107.45625 297.60193Q106.53438 298.30505 105.09688 298.30505Q103.26875 298.30505 102.20625 297.18005Q101.14375 296.05505 101.14375 294.03943Q101.14375 291.94568 102.22188 290.78943Q103.3 289.63318 105.01875 289.63318Q106.675 289.63318 107.72188 290.7738Q108.78438 291.8988 108.78438 293.94568Q108.78438 294.07068 108.78438 294.32068L102.59688 294.32068Q102.675 295.69568 103.3625 296.43005Q104.06563 297.1488 105.09688 297.1488Q105.87813 297.1488 106.425 296.74255Q106.97188 296.3363 107.28438 295.44568ZM102.675 293.16443L107.3 293.16443Q107.20625 292.11755 106.76875 291.60193Q106.09688 290.78943 105.03438 290.78943Q104.06563 290.78943 103.39375 291.44568Q102.7375 292.0863 102.675 293.16443Z" fill-rule="nonzero"/><path fill="#9e9e9e" d="M26.6125 318.75818L26.6125 320.11755L19.034374 320.11755Q19.01875 319.60193 19.20625 319.13318Q19.4875 318.36755 20.128124 317.61755Q20.76875 316.86755 21.971874 315.88318Q23.83125 314.35193 24.4875 313.4613Q25.14375 312.55505 25.14375 311.75818Q25.14375 310.93005 24.55 310.35193Q23.95625 309.7738 22.9875 309.7738Q21.971874 309.7738 21.3625 310.38318Q20.753124 310.99255 20.753124 312.07068L19.3 311.93005Q19.45625 310.30505 20.425 309.4613Q21.39375 308.61755 23.01875 308.61755Q24.675 308.61755 25.628124 309.53943Q26.596874 310.44568 26.596874 311.78943Q26.596874 312.47693 26.315624 313.1488Q26.034374 313.80505 25.378124 314.53943Q24.721874 315.2738 23.20625 316.55505Q21.940624 317.61755 21.58125 318.00818Q21.221874 318.38318 20.9875 318.75818L26.6125 318.75818ZM28.221874 317.11755L29.690624 316.99255Q29.8625 318.07068 30.45625 318.61755Q31.05 319.1488 31.89375 319.1488Q32.909374 319.1488 33.6125 318.38318Q34.315624 317.61755 34.315624 316.35193Q34.315624 315.1488 33.64375 314.4613Q32.971874 313.75818 31.878124 313.75818Q31.190624 313.75818 30.64375 314.07068Q30.096874 314.38318 29.784374 314.86755L28.471874 314.69568L29.58125 308.82068L35.26875 308.82068L35.26875 310.16443L30.70625 310.16443L30.08125 313.24255Q31.1125 312.5238 32.253124 312.5238Q33.753124 312.5238 34.784374 313.57068Q35.815624 314.60193 35.815624 316.22693Q35.815624 317.78943 34.909374 318.91443Q33.8 320.32068 31.89375 320.32068Q30.33125 320.32068 29.346874 319.44568Q28.3625 318.55505 28.221874 317.11755ZM38.003124 320.11755L38.003124 318.50818L39.6125 318.50818L39.6125 320.11755L38.003124 320.11755ZM41.221874 314.4613Q41.221874 312.43005 41.628124 311.19568Q42.05 309.9613 42.878124 309.28943Q43.70625 308.61755 44.95625 308.61755Q45.878124 308.61755 46.565624 308.99255Q47.26875 309.35193 47.721874 310.05505Q48.175 310.75818 48.425 311.75818Q48.690624 312.75818 48.690624 314.4613Q48.690624 316.47693 48.26875 317.72693Q47.8625 318.9613 47.034374 319.6488Q46.20625 320.32068 44.95625 320.32068Q43.3 320.32068 42.346874 319.11755Q41.221874 317.69568 41.221874 314.4613ZM42.659374 314.4613Q42.659374 317.28943 43.315624 318.22693Q43.9875 319.1488 44.95625 319.1488Q45.925 319.1488 46.58125 318.2113Q47.2375 317.2738 47.2375 314.4613Q47.2375 311.63318 46.58125 310.7113Q45.925 309.7738 44.940624 309.7738Q43.971874 309.7738 43.39375 310.60193Q42.659374 311.6488 42.659374 314.4613ZM50.4875 311.41443Q50.4875 310.18005 51.096874 309.32068Q51.721874 308.4613 52.89375 308.4613Q53.971874 308.4613 54.675 309.24255Q55.378124 310.00818 55.378124 311.49255Q55.378124 312.94568 54.659374 313.74255Q53.95625 314.5238 52.909374 314.5238Q51.8625 314.5238 51.175 313.75818Q50.4875 312.97693 50.4875 311.41443ZM52.925 309.43005Q52.409374 309.43005 52.05 309.88318Q51.70625 310.3363 51.70625 311.55505Q51.70625 312.6488 52.05 313.10193Q52.409374 313.55505 52.925 313.55505Q53.45625 313.55505 53.8 313.10193Q54.159374 312.6488 54.159374 311.44568Q54.159374 310.3363 53.8 309.88318Q53.45625 309.43005 52.925 309.43005ZM52.940624 320.53943L59.20625 308.4613L60.346874 308.4613L54.096874 320.53943L52.940624 320.53943ZM57.89375 317.43005Q57.89375 316.19568 58.503124 315.3363Q59.128124 314.47693 60.3 314.47693Q61.378124 314.47693 62.08125 315.25818Q62.8 316.0238 62.8 317.50818Q62.8 318.9613 62.08125 319.75818Q61.3625 320.53943 60.315624 320.53943Q59.26875 320.53943 58.58125 319.75818Q57.89375 318.97693 57.89375 317.43005ZM60.346874 315.44568Q59.815624 315.44568 59.45625 315.8988Q59.1125 316.35193 59.1125 317.57068Q59.1125 318.66443 59.45625 319.11755Q59.815624 319.57068 60.33125 319.57068Q60.878124 319.57068 61.221874 319.11755Q61.565624 318.66443 61.565624 317.4613Q61.565624 316.35193 61.20625 315.8988Q60.8625 315.44568 60.346874 315.44568Z" fill-rule="nonzero"/><path stroke="#757575" stroke-width="1.0" stroke-linecap="butt" d="M18.55 303.61755L145.23334 303.61755L200.06578 303.61755" fill-rule="nonzero"/><path fill="#9e9e9e" d="M202.06578 303.61755C202.06578 302.513 201.17035 301.61755 200.06578 301.61755C198.96121 301.61755 198.06578 302.513 198.06578 303.61755C198.06578 304.72214 198.96121 305.61755 200.06578 305.61755C201.17035 305.61755 202.06578 304.72214 202.06578 303.61755" fill-rule="nonzero"/><path fill="#efefef" d="M531.6844 98.24911L531.6844 86.79598L536.0125 86.79598Q537.15314 86.79598 537.7469 86.90536Q538.59064 87.04598 539.15314 87.43661Q539.73126 87.82723 540.075 88.54598Q540.4344 89.24911 540.4344 90.10848Q540.4344 91.56161 539.4969 92.57723Q538.575 93.59286 536.1375 93.59286L533.2 93.59286L533.2 98.24911L531.6844 98.24911ZM533.2 92.23348L536.16876 92.23348Q537.6375 92.23348 538.2469 91.68661Q538.8719 91.13973 538.8719 90.15536Q538.8719 89.43661 538.4969 88.92098Q538.1375 88.40536 537.54376 88.24911Q537.16876 88.13973 536.1375 88.13973L533.2 88.13973L533.2 92.23348ZM548.1844 95.57723L549.6375 95.74911Q549.29376 97.03036 548.35626 97.73348Q547.4344 98.43661 545.9969 98.43661Q544.16876 98.43661 543.10626 97.31161Q542.04376 96.18661 542.04376 94.17098Q542.04376 92.07723 543.1219 90.92098Q544.2 89.76473 545.91876 89.76473Q547.575 89.76473 548.6219 90.90536Q549.6844 92.03036 549.6844 94.07723Q549.6844 94.20223 549.6844 94.45223L543.4969 94.45223Q543.575 95.82723 544.2625 96.56161Q544.96564 97.28036 545.9969 97.28036Q546.77814 97.28036 547.325 96.87411Q547.8719 96.46786 548.1844 95.57723ZM543.575 93.29598L548.2 93.29598Q548.10626 92.24911 547.66876 91.73348Q546.9969 90.92098 545.9344 90.92098Q544.96564 90.92098 544.29376 91.57723Q543.6375 92.21786 543.575 93.29598ZM550.98126 94.09286Q550.98126 91.79598 552.2625 90.68661Q553.34064 89.76473 554.8719 89.76473Q556.59064 89.76473 557.66876 90.88973Q558.7625 91.99911 558.7625 93.98348Q558.7625 95.57723 558.27814 96.49911Q557.79376 97.42098 556.8719 97.93661Q555.96564 98.43661 554.8719 98.43661Q553.1375 98.43661 552.0594 97.32723Q550.98126 96.20223 550.98126 94.09286ZM552.4344 94.09286Q552.4344 95.68661 553.1219 96.48348Q553.825 97.28036 554.8719 97.28036Q555.91876 97.28036 556.60626 96.48348Q557.3094 95.68661 557.3094 94.04598Q557.3094 92.51473 556.60626 91.71786Q555.91876 90.92098 554.8719 90.92098Q553.825 90.92098 553.1219 91.71786Q552.4344 92.49911 552.4344 94.09286ZM560.5125 101.43661L560.5125 89.95223L561.79376 89.95223L561.79376 91.03036Q562.2469 90.38973 562.8094 90.07723Q563.3875 89.76473 564.2 89.76473Q565.2625 89.76473 566.075 90.31161Q566.8875 90.85848 567.29376 91.85848Q567.71564 92.84286 567.71564 94.03036Q567.71564 95.31161 567.2469 96.32723Q566.79376 97.34286 565.91876 97.88973Q565.0594 98.43661 564.09064 98.43661Q563.3875 98.43661 562.825 98.13973Q562.27814 97.84286 561.91876 97.38973L561.91876 101.43661L560.5125 101.43661ZM561.77814 94.13973Q561.77814 95.74911 562.41876 96.51473Q563.075 97.28036 563.9969 97.28036Q564.9344 97.28036 565.60626 96.48348Q566.27814 95.68661 566.27814 94.03036Q566.27814 92.43661 565.6219 91.65536Q564.96564 90.85848 564.0594 90.85848Q563.16876 90.85848 562.46564 91.70223Q561.77814 92.54598 561.77814 94.13973ZM569.48126 98.24911L569.48126 86.79598L570.8875 86.79598L570.8875 98.24911L569.48126 98.24911ZM579.1844 95.57723L580.6375 95.74911Q580.29376 97.03036 579.35626 97.73348Q578.4344 98.43661 576.9969 98.43661Q575.16876 98.43661 574.10626 97.31161Q573.04376 96.18661 573.04376 94.17098Q573.04376 92.07723 574.1219 90.92098Q575.2 89.76473 576.91876 89.76473Q578.575 89.76473 579.6219 90.90536Q580.6844 92.03036 580.6844 94.07723Q580.6844 94.20223 580.6844 94.45223L574.4969 94.45223Q574.575 95.82723 575.2625 96.56161Q575.96564 97.28036 576.9969 97.28036Q577.77814 97.28036 578.325 96.87411Q578.8719 96.46786 579.1844 95.57723ZM574.575 93.29598L579.2 93.29598Q579.10626 92.24911 578.66876 91.73348Q577.9969 90.92098 576.9344 90.92098Q575.96564 90.92098 575.29376 91.57723Q574.6375 92.21786 574.575 93.29598Z" fill-rule="nonzero"/><path fill="#9e9e9e" d="M544.5125 118.88973L544.5125 120.24911L536.9344 120.24911Q536.91876 119.73348 537.10626 119.26473Q537.3875 118.49911 538.02814 117.74911Q538.66876 116.99911 539.8719 116.01473Q541.73126 114.48348 542.3875 113.59286Q543.04376 112.68661 543.04376 111.88973Q543.04376 111.06161 542.45 110.48348Q541.85626 109.90536 540.8875 109.90536Q539.8719 109.90536 539.2625 110.51473Q538.65314 111.12411 538.65314 112.20223L537.2 112.06161Q537.35626 110.43661 538.325 109.59286Q539.29376 108.74911 540.91876 108.74911Q542.575 108.74911 543.52814 109.67098Q544.4969 110.57723 544.4969 111.92098Q544.4969 112.60848 544.21564 113.28036Q543.9344 113.93661 543.27814 114.67098Q542.6219 115.40536 541.10626 116.68661Q539.84064 117.74911 539.48126 118.13973Q539.1219 118.51473 538.8875 118.88973L544.5125 118.88973ZM546.1219 117.24911L547.59064 117.12411Q547.7625 118.20223 548.35626 118.74911Q548.95 119.28036 549.79376 119.28036Q550.8094 119.28036 551.5125 118.51473Q552.21564 117.74911 552.21564 116.48348Q552.21564 115.28036 551.54376 114.59286Q550.8719 113.88973 549.77814 113.88973Q549.09064 113.88973 548.54376 114.20223Q547.9969 114.51473 547.6844 114.99911L546.3719 114.82723L547.48126 108.95223L553.16876 108.95223L553.16876 110.29598L548.60626 110.29598L547.98126 113.37411Q549.0125 112.65536 550.15314 112.65536Q551.65314 112.65536 552.6844 113.70223Q553.71564 114.73348 553.71564 116.35848Q553.71564 117.92098 552.8094 119.04598Q551.7 120.45223 549.79376 120.45223Q548.23126 120.45223 547.2469 119.57723Q546.2625 118.68661 546.1219 117.24911ZM555.90314 120.24911L555.90314 118.63973L557.5125 118.63973L557.5125 120.24911L555.90314 120.24911ZM559.1219 114.59286Q559.1219 112.56161 559.52814 111.32723Q559.95 110.09286 560.77814 109.42098Q561.60626 108.74911 562.85626 108.74911Q563.77814 108.74911 564.46564 109.12411Q565.16876 109.48348 565.6219 110.18661Q566.075 110.88973 566.325 111.88973Q566.59064 112.88973 566.59064 114.59286Q566.59064 116.60848 566.16876 117.85848Q565.7625 119.09286 564.9344 119.78036Q564.10626 120.45223 562.85626 120.45223Q561.2 120.45223 560.2469 119.24911Q559.1219 117.82723 559.1219 114.59286ZM560.5594 114.59286Q560.5594 117.42098 561.21564 118.35848Q561.8875 119.28036 562.85626 119.28036Q563.825 119.28036 564.48126 118.34286Q565.1375 117.40536 565.1375 114.59286Q565.1375 111.76473 564.48126 110.84286Q563.825 109.90536 562.84064 109.90536Q561.8719 109.90536 561.29376 110.73348Q560.5594 111.78036 560.5594 114.59286ZM568.3875 111.54598Q568.3875 110.31161 568.9969 109.45223Q569.6219 108.59286 570.79376 108.59286Q571.8719 108.59286 572.575 109.37411Q573.27814 110.13973 573.27814 111.62411Q573.27814 113.07723 572.5594 113.87411Q571.85626 114.65536 570.8094 114.65536Q569.7625 114.65536 569.075 113.88973Q568.3875 113.10848 568.3875 111.54598ZM570.825 109.56161Q570.3094 109.56161 569.95 110.01473Q569.60626 110.46786 569.60626 111.68661Q569.60626 112.78036 569.95 113.23348Q570.3094 113.68661 570.825 113.68661Q571.35626 113.68661 571.7 113.23348Q572.0594 112.78036 572.0594 111.57723Q572.0594 110.46786 571.7 110.01473Q571.35626 109.56161 570.825 109.56161ZM570.84064 120.67098L577.10626 108.59286L578.2469 108.59286L571.9969 120.67098L570.84064 120.67098ZM575.79376 117.56161Q575.79376 116.32723 576.40314 115.46786Q577.02814 114.60848 578.2 114.60848Q579.27814 114.60848 579.98126 115.38973Q580.7 116.15536 580.7 117.63973Q580.7 119.09286 579.98126 119.88973Q579.2625 120.67098 578.21564 120.67098Q577.16876 120.67098 576.48126 119.88973Q575.79376 119.10848 575.79376 117.56161ZM578.2469 115.57723Q577.71564 115.57723 577.35626 116.03036Q577.0125 116.48348 577.0125 117.70223Q577.0125 118.79598 577.35626 119.24911Q577.71564 119.70223 578.23126 119.70223Q578.77814 119.70223 579.1219 119.24911Q579.46564 118.79598 579.46564 117.59286Q579.46564 116.48348 579.10626 116.03036Q578.7625 115.57723 578.2469 115.57723Z" fill-rule="nonzero"/><path stroke="#757575" stroke-width="1.0" stroke-linecap="butt" d="M581.45 103.74911L454.76666 103.74911L399.93423 103.74911" fill-rule="nonzero"/><path fill="#9e9e9e" d="M401.93423 103.74911C401.93423 102.64454 401.0388 101.74911 399.93423 101.74911C398.82965 101.74911 397.93423 102.64454 397.93423 103.74911C397.93423 104.85368 398.82965 105.74911 399.93423 105.74911C401.0388 105.74911 401.93423 104.85368 401.93423 103.74911" fill-rule="nonzero"/><path fill="#efefef" d="M523.41876 298.11755L527.825 286.66443L529.46564 286.66443L534.15314 298.11755L532.41876 298.11755L531.09064 294.6488L526.29376 294.6488L525.04376 298.11755L523.41876 298.11755ZM526.73126 293.41443L530.6219 293.41443L529.41876 290.24255Q528.8719 288.78943 528.60626 287.86755Q528.3875 288.9613 527.9969 290.05505L526.73126 293.41443ZM535.5125 298.11755L535.5125 289.82068L536.77814 289.82068L536.77814 290.99255Q537.6844 289.63318 539.41876 289.63318Q540.16876 289.63318 540.79376 289.8988Q541.41876 290.16443 541.73126 290.60193Q542.04376 291.03943 542.16876 291.6488Q542.2469 292.03943 542.2469 293.00818L542.2469 298.11755L540.84064 298.11755L540.84064 293.07068Q540.84064 292.2113 540.66876 291.78943Q540.5125 291.35193 540.09064 291.10193Q539.6844 290.85193 539.1219 290.85193Q538.21564 290.85193 537.5594 291.43005Q536.91876 291.99255 536.91876 293.5863L536.91876 298.11755L535.5125 298.11755ZM544.5125 288.2738L544.5125 286.66443L545.91876 286.66443L545.91876 288.2738L544.5125 288.2738ZM544.5125 298.11755L544.5125 289.82068L545.91876 289.82068L545.91876 298.11755L544.5125 298.11755ZM548.5125 298.11755L548.5125 289.82068L549.7625 289.82068L549.7625 290.97693Q550.15314 290.36755 550.79376 290.00818Q551.45 289.63318 552.27814 289.63318Q553.2 289.63318 553.79376 290.0238Q554.3875 290.3988 554.6219 291.0863Q555.60626 289.63318 557.1844 289.63318Q558.41876 289.63318 559.075 290.32068Q559.7469 290.99255 559.7469 292.41443L559.7469 298.11755L558.35626 298.11755L558.35626 292.88318Q558.35626 292.03943 558.21564 291.68005Q558.075 291.30505 557.71564 291.0863Q557.35626 290.85193 556.8719 290.85193Q555.9969 290.85193 555.41876 291.43005Q554.84064 292.00818 554.84064 293.28943L554.84064 298.11755L553.4344 298.11755L553.4344 292.72693Q553.4344 291.78943 553.09064 291.32068Q552.7469 290.85193 551.96564 290.85193Q551.3719 290.85193 550.8719 291.16443Q550.3719 291.47693 550.1375 292.0863Q549.91876 292.68005 549.91876 293.80505L549.91876 298.11755L548.5125 298.11755ZM566.91876 297.0863Q566.1375 297.75818 565.41876 298.03943Q564.7 298.30505 563.8719 298.30505Q562.4969 298.30505 561.7625 297.63318Q561.02814 296.9613 561.02814 295.93005Q561.02814 295.32068 561.3094 294.82068Q561.59064 294.30505 562.02814 294.00818Q562.48126 293.69568 563.04376 293.53943Q563.46564 293.43005 564.29376 293.3363Q565.9969 293.13318 566.8094 292.85193Q566.8094 292.55505 566.8094 292.47693Q566.8094 291.61755 566.41876 291.2738Q565.8719 290.78943 564.8094 290.78943Q563.825 290.78943 563.34064 291.1488Q562.8719 291.49255 562.65314 292.36755L561.27814 292.18005Q561.46564 291.30505 561.8875 290.75818Q562.325 290.2113 563.1375 289.93005Q563.95 289.63318 565.0125 289.63318Q566.075 289.63318 566.73126 289.88318Q567.40314 290.13318 567.71564 290.50818Q568.02814 290.88318 568.15314 291.4613Q568.23126 291.82068 568.23126 292.75818L568.23126 294.63318Q568.23126 296.60193 568.3094 297.11755Q568.40314 297.63318 568.66876 298.11755L567.2 298.11755Q566.98126 297.68005 566.91876 297.0863ZM566.8094 293.94568Q566.04376 294.25818 564.5125 294.47693Q563.6375 294.60193 563.27814 294.75818Q562.91876 294.91443 562.71564 295.22693Q562.52814 295.5238 562.52814 295.88318Q562.52814 296.44568 562.95 296.82068Q563.3875 297.19568 564.2 297.19568Q565.0125 297.19568 565.6375 296.85193Q566.27814 296.49255 566.575 295.86755Q566.8094 295.3988 566.8094 294.4613L566.8094 293.94568ZM570.48126 298.11755L570.48126 286.66443L571.8875 286.66443L571.8875 298.11755L570.48126 298.11755ZM573.95 295.63318L575.34064 295.41443Q575.45 296.25818 575.98126 296.7113Q576.52814 297.1488 577.48126 297.1488Q578.45 297.1488 578.91876 296.75818Q579.3875 296.35193 579.3875 295.82068Q579.3875 295.35193 578.98126 295.07068Q578.6844 294.88318 577.54376 294.60193Q575.9969 294.2113 575.3875 293.93005Q574.79376 293.63318 574.48126 293.13318Q574.1844 292.63318 574.1844 292.0238Q574.1844 291.4613 574.4344 290.99255Q574.6844 290.5238 575.1219 290.2113Q575.45 289.9613 576.0125 289.80505Q576.59064 289.63318 577.23126 289.63318Q578.21564 289.63318 578.95 289.91443Q579.6844 290.19568 580.02814 290.68005Q580.3875 291.1488 580.52814 291.9613L579.15314 292.1488Q579.0594 291.50818 578.60626 291.1488Q578.15314 290.78943 577.34064 290.78943Q576.3719 290.78943 575.95 291.11755Q575.54376 291.43005 575.54376 291.85193Q575.54376 292.13318 575.71564 292.35193Q575.8875 292.57068 576.2469 292.72693Q576.46564 292.80505 577.4969 293.0863Q578.98126 293.47693 579.575 293.74255Q580.16876 293.99255 580.4969 294.47693Q580.84064 294.9613 580.84064 295.68005Q580.84064 296.38318 580.41876 297.00818Q580.0125 297.61755 579.23126 297.9613Q578.46564 298.30505 577.4969 298.30505Q575.8719 298.30505 575.02814 297.63318Q574.1844 296.9613 573.95 295.63318Z" fill-rule="nonzero"/><path fill="#9e9e9e" d="M544.5125 318.75818L544.5125 320.11755L536.9344 320.11755Q536.91876 319.60193 537.10626 319.13318Q537.3875 318.36755 538.02814 317.61755Q538.66876 316.86755 539.8719 315.88318Q541.73126 314.35193 542.3875 313.4613Q543.04376 312.55505 543.04376 311.75818Q543.04376 310.93005 542.45 310.35193Q541.85626 309.7738 540.8875 309.7738Q539.8719 309.7738 539.2625 310.38318Q538.65314 310.99255 538.65314 312.07068L537.2 311.93005Q537.35626 310.30505 538.325 309.4613Q539.29376 308.61755 540.91876 308.61755Q542.575 308.61755 543.52814 309.53943Q544.4969 310.44568 544.4969 311.78943Q544.4969 312.47693 544.21564 313.1488Q543.9344 313.80505 543.27814 314.53943Q542.6219 315.2738 541.10626 316.55505Q539.84064 317.61755 539.48126 318.00818Q539.1219 318.38318 538.8875 318.75818L544.5125 318.75818ZM546.1219 317.11755L547.59064 316.99255Q547.7625 318.07068 548.35626 318.61755Q548.95 319.1488 549.79376 319.1488Q550.8094 319.1488 551.5125 318.38318Q552.21564 317.61755 552.21564 316.35193Q552.21564 315.1488 551.54376 314.4613Q550.8719 313.75818 549.77814 313.75818Q549.09064 313.75818 548.54376 314.07068Q547.9969 314.38318 547.6844 314.86755L546.3719 314.69568L547.48126 308.82068L553.16876 308.82068L553.16876 310.16443L548.60626 310.16443L547.98126 313.24255Q549.0125 312.5238 550.15314 312.5238Q551.65314 312.5238 552.6844 313.57068Q553.71564 314.60193 553.71564 316.22693Q553.71564 317.78943 552.8094 318.91443Q551.7 320.32068 549.79376 320.32068Q548.23126 320.32068 547.2469 319.44568Q546.2625 318.55505 546.1219 317.11755ZM555.90314 320.11755L555.90314 318.50818L557.5125 318.50818L557.5125 320.11755L555.90314 320.11755ZM559.1219 314.4613Q559.1219 312.43005 559.52814 311.19568Q559.95 309.9613 560.77814 309.28943Q561.60626 308.61755 562.85626 308.61755Q563.77814 308.61755 564.46564 308.99255Q565.16876 309.35193 565.6219 310.05505Q566.075 310.75818 566.325 311.75818Q566.59064 312.75818 566.59064 314.4613Q566.59064 316.47693 566.16876 317.72693Q565.7625 318.9613 564.9344 319.6488Q564.10626 320.32068 562.85626 320.32068Q561.2 320.32068 560.2469 319.11755Q559.1219 317.69568 559.1219 314.4613ZM560.5594 314.4613Q560.5594 317.28943 561.21564 318.22693Q561.8875 319.1488 562.85626 319.1488Q563.825 319.1488 564.48126 318.2113Q565.1375 317.2738 565.1375 314.4613Q565.1375 311.63318 564.48126 310.7113Q563.825 309.7738 562.84064 309.7738Q561.8719 309.7738 561.29376 310.60193Q560.5594 311.6488 560.5594 314.4613ZM568.3875 311.41443Q568.3875 310.18005 568.9969 309.32068Q569.6219 308.4613 570.79376 308.4613Q571.8719 308.4613 572.575 309.24255Q573.27814 310.00818 573.27814 311.49255Q573.27814 312.94568 572.5594 313.74255Q571.85626 314.5238 570.8094 314.5238Q569.7625 314.5238 569.075 313.75818Q568.3875 312.97693 568.3875 311.41443ZM570.825 309.43005Q570.3094 309.43005 569.95 309.88318Q569.60626 310.3363 569.60626 311.55505Q569.60626 312.6488 569.95 313.10193Q570.3094 313.55505 570.825 313.55505Q571.35626 313.55505 571.7 313.10193Q572.0594 312.6488 572.0594 311.44568Q572.0594 310.3363 571.7 309.88318Q571.35626 309.43005 570.825 309.43005ZM570.84064 320.53943L577.10626 308.4613L578.2469 308.4613L571.9969 320.53943L570.84064 320.53943ZM575.79376 317.43005Q575.79376 316.19568 576.40314 315.3363Q577.02814 314.47693 578.2 314.47693Q579.27814 314.47693 579.98126 315.25818Q580.7 316.0238 580.7 317.50818Q580.7 318.9613 579.98126 319.75818Q579.2625 320.53943 578.21564 320.53943Q577.16876 320.53943 576.48126 319.75818Q575.79376 318.97693 575.79376 317.43005ZM578.2469 315.44568Q577.71564 315.44568 577.35626 315.8988Q577.0125 316.35193 577.0125 317.57068Q577.0125 318.66443 577.35626 319.11755Q577.71564 319.57068 578.23126 319.57068Q578.77814 319.57068 579.1219 319.11755Q579.46564 318.66443 579.46564 317.4613Q579.46564 316.35193 579.10626 315.8988Q578.7625 315.44568 578.2469 315.44568Z" fill-rule="nonzero"/><path stroke="#757575" stroke-width="1.0" stroke-linecap="butt" d="M581.45 303.61755L454.76666 303.61755L399.93423 303.61755" fill-rule="nonzero"/><path fill="#9e9e9e" d="M401.93423 303.61755C401.93423 302.513 401.0388 301.61755 399.93423 301.61755C398.82965 301.61755 397.93423 302.513 397.93423 303.61755C397.93423 304.72214 398.82965 305.61755 399.93423 305.61755C401.0388 305.61755 401.93423 304.72214 401.93423 303.61755" fill-rule="nonzero"/><path fill="#f3f3f3" d="M265.98438 37.55L265.98438 23.2375L268.84375 23.2375L272.21875 33.3625Q272.6875 34.784374 272.90625 35.4875Q273.15625 34.70625 273.67188 33.190624L277.09375 23.2375L279.64062 23.2375L279.64062 37.55L277.82812 37.55L277.82812 25.565624L273.65625 37.55L271.95312 37.55L267.8125 25.3625L267.8125 37.55L265.98438 37.55ZM289.92188 34.20625L291.73438 34.440624Q291.3125 36.01875 290.14062 36.909374Q288.98438 37.784374 287.17188 37.784374Q284.90625 37.784374 283.5625 36.39375Q282.23438 34.9875 282.23438 32.45625Q282.23438 29.83125 283.57812 28.39375Q284.92188 26.940624 287.07812 26.940624Q289.15625 26.940624 290.46875 28.3625Q291.79688 29.76875 291.79688 32.346874Q291.79688 32.503124 291.78125 32.815624L284.04688 32.815624Q284.14062 34.51875 285.01562 35.425Q285.89062 36.33125 287.1875 36.33125Q288.15625 36.33125 288.82812 35.83125Q289.51562 35.315624 289.92188 34.20625ZM284.14062 31.3625L289.9375 31.3625Q289.82812 30.065624 289.28125 29.409374Q288.4375 28.39375 287.09375 28.39375Q285.89062 28.39375 285.0625 29.20625Q284.23438 30.003124 284.14062 31.3625ZM300.54688 37.55L300.54688 36.2375Q299.5625 37.784374 297.64062 37.784374Q296.40625 37.784374 295.35938 37.096874Q294.32812 36.409374 293.75 35.190624Q293.1875 33.971874 293.1875 32.378124Q293.1875 30.815624 293.70312 29.55Q294.21875 28.284374 295.25 27.6125Q296.29688 26.940624 297.5625 26.940624Q298.5 26.940624 299.23438 27.346874Q299.96875 27.7375 300.4375 28.3625L300.4375 23.2375L302.17188 23.2375L302.17188 37.55L300.54688 37.55ZM294.98438 32.378124Q294.98438 34.3625 295.82812 35.346874Q296.67188 36.33125 297.8125 36.33125Q298.96875 36.33125 299.76562 35.39375Q300.57812 34.45625 300.57812 32.51875Q300.57812 30.39375 299.75 29.39375Q298.9375 28.39375 297.73438 28.39375Q296.5625 28.39375 295.76562 29.3625Q294.98438 30.315624 294.98438 32.378124ZM304.82812 25.253124L304.82812 23.2375L306.59375 23.2375L306.59375 25.253124L304.82812 25.253124ZM304.82812 37.55L304.82812 27.175L306.59375 27.175L306.59375 37.55L304.82812 37.55ZM315.60938 37.55L315.60938 36.01875Q314.40625 37.784374 312.32812 37.784374Q311.40625 37.784374 310.60938 37.440624Q309.8125 37.08125 309.42188 36.55Q309.04688 36.01875 308.89062 35.2375Q308.78125 34.721874 308.78125 33.596874L308.78125 27.175L310.53125 27.175L310.53125 32.925Q310.53125 34.3 310.64062 34.784374Q310.8125 35.471874 311.34375 35.878124Q311.89062 36.26875 312.67188 36.26875Q313.46875 36.26875 314.15625 35.8625Q314.85938 35.45625 315.14062 34.76875Q315.4375 34.065624 315.4375 32.7375L315.4375 27.175L317.1875 27.175L317.1875 37.55L315.60938 37.55ZM319.8125 37.55L319.8125 27.175L321.39062 27.175L321.39062 28.628124Q321.875 27.878124 322.6875 27.409374Q323.5 26.940624 324.53125 26.940624Q325.6875 26.940624 326.42188 27.425Q327.15625 27.89375 327.46875 28.753124Q328.70312 26.940624 330.67188 26.940624Q332.21875 26.940624 333.04688 27.8Q333.875 28.659374 333.875 30.425L333.875 37.55L332.125 37.55L332.125 31.01875Q332.125 29.95625 331.95312 29.503124Q331.78125 29.034374 331.32812 28.753124Q330.89062 28.471874 330.28125 28.471874Q329.1875 28.471874 328.45312 29.20625Q327.73438 29.925 327.73438 31.51875L327.73438 37.55L325.98438 37.55L325.98438 30.815624Q325.98438 29.64375 325.54688 29.065624Q325.125 28.471874 324.14062 28.471874Q323.40625 28.471874 322.76562 28.8625Q322.14062 29.253124 321.85938 30.003124Q321.57812 30.753124 321.57812 32.175L321.57812 37.55L319.8125 37.55Z" fill-rule="nonzero"/></svg>