<svg version="1.1" viewBox="0.0 0.0 600.0 371.0" fill="none" stroke="none" stroke-linecap="square" stroke-miterlimit="10" width="600" height="371" xmlns:xlink="http://www.w3.org/1999/xlink" xmlns="http://www.w3.org/2000/svg"><path fill="#ffffff" fill-opacity="0.0" d="M0 0L600.0 0L600.0 371.0L0 371.0L0 0Z" fill-rule="nonzero"/><path fill="#f7d750" d="M300.0 54.916668C353.1492 54.916668 402.2611 83.27143 428.83572 129.3C455.4103 175.32857 455.4103 232.0381 428.83572 278.06668L364.41785 240.875C377.70517 217.86072 377.70517 189.50595 364.41785 166.49167C351.13055 143.47739 326.57462 129.3 300.0 129.3Z" fill-rule="nonzero"/><path fill="#78a94e" d="M428.83572 278.06668C402.2611 324.09525 353.1492 352.45 300.0 352.45L300.0 278.06668C326.57462 278.06668 351.13055 263.88928 364.41785 240.875Z" fill-rule="nonzero"/><path fill="#d8753e" d="M171.16429 278.06668C144.58968 232.0381 144.58968 175.32857 171.16429 129.3C197.73889 83.27143 246.85078 54.916668 300.0 54.916668L300.0 129.3C273.42538 129.3 248.86945 143.47739 235.58214 166.49167C222.29485 189.50595 222.29485 217.86072 235.58214 240.875Z" fill-rule="nonzero"/><path fill="#8c4595" d="M300.0 352.45C246.85078 352.45 197.73889 324.09525 171.16429 278.06668L235.58214 240.875C248.86945 263.88928 273.42538 278.06668 300.0 278.06668Z" fill-rule="nonzero"/><path fill="#ffffff" d="M371.87677 150.98958L373.47052 150.78645Q373.73615 152.1302 374.3924 152.72395Q375.04865 153.3177 375.98615 153.3177Q377.11115 153.3177 377.87677 152.55208Q378.6424 151.77083 378.6424 150.6302Q378.6424 149.53645 377.92365 148.83333Q377.22052 148.11458 376.12677 148.11458Q375.67365 148.11458 375.00177 148.30208L375.17365 146.91145Q375.3299 146.92708 375.43927 146.92708Q376.43927 146.92708 377.25177 146.39583Q378.06427 145.86458 378.06427 144.77083Q378.06427 143.89583 377.47052 143.33333Q376.87677 142.7552 375.9549 142.7552Q375.03302 142.7552 374.40802 143.33333Q373.79865 143.91145 373.62677 145.08333L372.04865 144.80208Q372.3299 143.20833 373.36115 142.33333Q374.3924 141.45833 375.92365 141.45833Q376.97052 141.45833 377.86115 141.91145Q378.75177 142.36458 379.22052 143.14583Q379.68927 143.92708 379.68927 144.80208Q379.68927 145.64583 379.23615 146.33333Q378.79865 147.0052 377.90802 147.41145Q379.04865 147.67708 379.67365 148.52083Q380.31427 149.34895 380.31427 150.58333Q380.31427 152.27083 379.0799 153.45833Q377.86115 154.6302 375.98615 154.6302Q374.28302 154.6302 373.15802 153.61458Q372.04865 152.59895 371.87677 150.98958ZM381.87677 150.98958L383.47052 150.78645Q383.73615 152.1302 384.3924 152.72395Q385.04865 153.3177 385.98615 153.3177Q387.11115 153.3177 387.87677 152.55208Q388.6424 151.77083 388.6424 150.6302Q388.6424 149.53645 387.92365 148.83333Q387.22052 148.11458 386.12677 148.11458Q385.67365 148.11458 385.00177 148.30208L385.17365 146.91145Q385.3299 146.92708 385.43927 146.92708Q386.43927 146.92708 387.25177 146.39583Q388.06427 145.86458 388.06427 144.77083Q388.06427 143.89583 387.47052 143.33333Q386.87677 142.7552 385.9549 142.7552Q385.03302 142.7552 384.40802 143.33333Q383.79865 143.91145 383.62677 145.08333L382.04865 144.80208Q382.3299 143.20833 383.36115 142.33333Q384.3924 141.45833 385.92365 141.45833Q386.97052 141.45833 387.86115 141.91145Q388.75177 142.36458 389.22052 143.14583Q389.68927 143.92708 389.68927 144.80208Q389.68927 145.64583 389.23615 146.33333Q388.79865 147.0052 387.90802 147.41145Q389.04865 147.67708 389.67365 148.52083Q390.31427 149.34895 390.31427 150.58333Q390.31427 152.27083 389.0799 153.45833Q387.86115 154.6302 385.98615 154.6302Q384.28302 154.6302 383.15802 153.61458Q382.04865 152.59895 381.87677 150.98958ZM392.7674 154.39583L392.7674 152.59895L394.56427 152.59895L394.56427 154.39583L392.7674 154.39583ZM396.87677 150.98958L398.47052 150.78645Q398.73615 152.1302 399.3924 152.72395Q400.04865 153.3177 400.98615 153.3177Q402.11115 153.3177 402.87677 152.55208Q403.6424 151.77083 403.6424 150.6302Q403.6424 149.53645 402.92365 148.83333Q402.22052 148.11458 401.12677 148.11458Q400.67365 148.11458 400.00177 148.30208L400.17365 146.91145Q400.3299 146.92708 400.43927 146.92708Q401.43927 146.92708 402.25177 146.39583Q403.06427 145.86458 403.06427 144.77083Q403.06427 143.89583 402.47052 143.33333Q401.87677 142.7552 400.9549 142.7552Q400.03302 142.7552 399.40802 143.33333Q398.79865 143.91145 398.62677 145.08333L397.04865 144.80208Q397.3299 143.20833 398.36115 142.33333Q399.3924 141.45833 400.92365 141.45833Q401.97052 141.45833 402.86115 141.91145Q403.75177 142.36458 404.22052 143.14583Q404.68927 143.92708 404.68927 144.80208Q404.68927 145.64583 404.23615 146.33333Q403.79865 147.0052 402.90802 147.41145Q404.04865 147.67708 404.67365 148.52083Q405.31427 149.34895 405.31427 150.58333Q405.31427 152.27083 404.0799 153.45833Q402.86115 154.6302 400.98615 154.6302Q399.28302 154.6302 398.15802 153.61458Q397.04865 152.59895 396.87677 150.98958ZM407.17365 144.59895Q407.17365 143.22395 407.86115 142.2552Q408.56427 141.28645 409.87677 141.28645Q411.09552 141.28645 411.8924 142.16145Q412.68927 143.02083 412.68927 144.70833Q412.68927 146.33333 411.87677 147.22395Q411.0799 148.09895 409.8924 148.09895Q408.73615 148.09895 407.9549 147.23958Q407.17365 146.36458 407.17365 144.59895ZM409.92365 142.3802Q409.3299 142.3802 408.93927 142.89583Q408.54865 143.39583 408.54865 144.7552Q408.54865 146.0052 408.93927 146.5052Q409.34552 147.0052 409.92365 147.0052Q410.5174 147.0052 410.90802 146.5052Q411.29865 145.98958 411.29865 144.64583Q411.29865 143.39583 410.90802 142.89583Q410.5174 142.3802 409.92365 142.3802ZM409.93927 154.86458L416.98615 141.28645L418.2674 141.28645L411.23615 154.86458L409.93927 154.86458ZM415.50177 151.36458Q415.50177 149.98958 416.18927 149.02083Q416.8924 148.05208 418.22052 148.05208Q419.43927 148.05208 420.22052 148.92708Q421.0174 149.78645 421.0174 151.47395Q421.0174 153.09895 420.22052 153.98958Q419.42365 154.86458 418.23615 154.86458Q417.06427 154.86458 416.28302 153.98958Q415.50177 153.11458 415.50177 151.36458ZM418.2674 149.14583Q417.67365 149.14583 417.28302 149.66145Q416.8924 150.16145 416.8924 151.53645Q416.8924 152.7552 417.28302 153.27083Q417.67365 153.78645 418.25177 153.78645Q418.86115 153.78645 419.25177 153.27083Q419.6424 152.7552 419.6424 151.41145Q419.6424 150.16145 419.25177 149.66145Q418.86115 149.14583 418.2674 149.14583Z" fill-rule="nonzero"/><path fill="#ffffff" d="M336.99063 306.81012L335.4125 306.81012L335.4125 296.732Q334.83438 297.27887 333.9125 297.82574Q332.99063 298.357 332.24063 298.63824L332.24063 297.107Q333.56876 296.482 334.56876 295.59137Q335.56876 294.70074 335.975 293.87262L336.99063 293.87262L336.99063 306.81012ZM349.24063 297.07574L347.67813 297.20074Q347.45938 296.27887 347.06876 295.857Q346.42813 295.1695 345.49063 295.1695Q344.74063 295.1695 344.1625 295.59137Q343.4125 296.13824 342.975 297.18512Q342.55313 298.232 342.5375 300.1695Q343.11563 299.2945 343.92813 298.87262Q344.75626 298.45074 345.6625 298.45074Q347.25626 298.45074 348.36563 299.62262Q349.475 300.77887 349.475 302.62262Q349.475 303.84137 348.94376 304.88824Q348.42813 305.9195 347.50626 306.482Q346.6 307.02887 345.44376 307.02887Q343.45938 307.02887 342.20938 305.57574Q340.95938 304.12262 340.95938 300.77887Q340.95938 297.0445 342.35 295.34137Q343.55313 293.87262 345.58438 293.87262Q347.11563 293.87262 348.08438 294.732Q349.05313 295.57574 349.24063 297.07574ZM342.7875 302.63824Q342.7875 303.45074 343.13126 304.20074Q343.475 304.95074 344.1 305.34137Q344.725 305.732 345.4125 305.732Q346.4125 305.732 347.13126 304.9195Q347.85 304.107 347.85 302.71637Q347.85 301.38824 347.13126 300.62262Q346.42813 299.84137 345.35 299.84137Q344.27188 299.84137 343.52188 300.62262Q342.7875 301.38824 342.7875 302.63824ZM351.92813 306.81012L351.92813 305.01324L353.725 305.01324L353.725 306.81012L351.92813 306.81012ZM356.14688 295.607L356.14688 294.09137L364.475 294.09137L364.475 295.32574Q363.25626 296.63824 362.0375 298.81012Q360.83438 300.96637 360.17813 303.26324Q359.69376 304.88824 359.56876 306.81012L357.94376 306.81012Q357.975 305.2945 358.5375 303.13824Q359.11563 300.982 360.17813 298.982Q361.24063 296.982 362.44376 295.607L356.14688 295.607ZM366.33438 297.01324Q366.33438 295.63824 367.02188 294.6695Q367.725 293.70074 369.0375 293.70074Q370.25626 293.70074 371.05313 294.57574Q371.85 295.43512 371.85 297.12262Q371.85 298.74762 371.0375 299.63824Q370.24063 300.51324 369.05313 300.51324Q367.89688 300.51324 367.11563 299.65387Q366.33438 298.77887 366.33438 297.01324ZM369.08438 294.7945Q368.49063 294.7945 368.1 295.31012Q367.70938 295.81012 367.70938 297.1695Q367.70938 298.4195 368.1 298.9195Q368.50626 299.4195 369.08438 299.4195Q369.67813 299.4195 370.06876 298.9195Q370.45938 298.40387 370.45938 297.06012Q370.45938 295.81012 370.06876 295.31012Q369.67813 294.7945 369.08438 294.7945ZM369.1 307.27887L376.14688 293.70074L377.42813 293.70074L370.39688 307.27887L369.1 307.27887ZM374.6625 303.77887Q374.6625 302.40387 375.35 301.43512Q376.05313 300.46637 377.38126 300.46637Q378.6 300.46637 379.38126 301.34137Q380.17813 302.20074 380.17813 303.88824Q380.17813 305.51324 379.38126 306.40387Q378.58438 307.27887 377.39688 307.27887Q376.225 307.27887 375.44376 306.40387Q374.6625 305.52887 374.6625 303.77887ZM377.42813 301.56012Q376.83438 301.56012 376.44376 302.07574Q376.05313 302.57574 376.05313 303.95074Q376.05313 305.1695 376.44376 305.68512Q376.83438 306.20074 377.4125 306.20074Q378.02188 306.20074 378.4125 305.68512Q378.80313 305.1695 378.80313 303.82574Q378.80313 302.57574 378.4125 302.07574Q378.02188 301.56012 377.42813 301.56012Z" fill-rule="nonzero"/><path fill="#ffffff" d="M225.41562 306.81012L223.8375 306.81012L223.8375 296.732Q223.25937 297.27887 222.3375 297.82574Q221.41562 298.357 220.66562 298.63824L220.66562 297.107Q221.99374 296.482 222.99374 295.59137Q223.99374 294.70074 224.4 293.87262L225.41562 293.87262L225.41562 306.81012ZM237.66562 297.07574L236.10312 297.20074Q235.88437 296.27887 235.49374 295.857Q234.85312 295.1695 233.91562 295.1695Q233.16562 295.1695 232.5875 295.59137Q231.8375 296.13824 231.4 297.18512Q230.97812 298.232 230.9625 300.1695Q231.54062 299.2945 232.35312 298.87262Q233.18124 298.45074 234.0875 298.45074Q235.68124 298.45074 236.79062 299.62262Q237.9 300.77887 237.9 302.62262Q237.9 303.84137 237.36874 304.88824Q236.85312 305.9195 235.93124 306.482Q235.025 307.02887 233.86874 307.02887Q231.88437 307.02887 230.63437 305.57574Q229.38437 304.12262 229.38437 300.77887Q229.38437 297.0445 230.775 295.34137Q231.97812 293.87262 234.00937 293.87262Q235.54062 293.87262 236.50937 294.732Q237.47812 295.57574 237.66562 297.07574ZM231.2125 302.63824Q231.2125 303.45074 231.55624 304.20074Q231.9 304.95074 232.525 305.34137Q233.15 305.732 233.8375 305.732Q234.8375 305.732 235.55624 304.9195Q236.275 304.107 236.275 302.71637Q236.275 301.38824 235.55624 300.62262Q234.85312 299.84137 233.775 299.84137Q232.69687 299.84137 231.94687 300.62262Q231.2125 301.38824 231.2125 302.63824ZM240.35312 306.81012L240.35312 305.01324L242.15 305.01324L242.15 306.81012L240.35312 306.81012ZM244.57187 295.607L244.57187 294.09137L252.9 294.09137L252.9 295.32574Q251.68124 296.63824 250.4625 298.81012Q249.25937 300.96637 248.60312 303.26324Q248.11874 304.88824 247.99374 306.81012L246.36874 306.81012Q246.4 305.2945 246.9625 303.13824Q247.54062 300.982 248.60312 298.982Q249.66562 296.982 250.86874 295.607L244.57187 295.607ZM254.75937 297.01324Q254.75937 295.63824 255.44687 294.6695Q256.15 293.70074 257.4625 293.70074Q258.68124 293.70074 259.47812 294.57574Q260.275 295.43512 260.275 297.12262Q260.275 298.74762 259.4625 299.63824Q258.66562 300.51324 257.47812 300.51324Q256.32187 300.51324 255.54062 299.65387Q254.75937 298.77887 254.75937 297.01324ZM257.50937 294.7945Q256.91562 294.7945 256.525 295.31012Q256.13437 295.81012 256.13437 297.1695Q256.13437 298.4195 256.525 298.9195Q256.93124 299.4195 257.50937 299.4195Q258.10312 299.4195 258.49374 298.9195Q258.88437 298.40387 258.88437 297.06012Q258.88437 295.81012 258.49374 295.31012Q258.10312 294.7945 257.50937 294.7945ZM257.525 307.27887L264.57187 293.70074L265.85312 293.70074L258.82187 307.27887L257.525 307.27887ZM263.0875 303.77887Q263.0875 302.40387 263.775 301.43512Q264.47812 300.46637 265.80624 300.46637Q267.025 300.46637 267.80624 301.34137Q268.60312 302.20074 268.60312 303.88824Q268.60312 305.51324 267.80624 306.40387Q267.00937 307.27887 265.82187 307.27887Q264.65 307.27887 263.86874 306.40387Q263.0875 305.52887 263.0875 303.77887ZM265.85312 301.56012Q265.25937 301.56012 264.86874 302.07574Q264.47812 302.57574 264.47812 303.95074Q264.47812 305.1695 264.86874 305.68512Q265.25937 306.20074 265.8375 306.20074Q266.44687 306.20074 266.8375 305.68512Q267.22812 305.1695 267.22812 303.82574Q267.22812 302.57574 266.8375 302.07574Q266.44687 301.56012 265.85312 301.56012Z" fill-rule="nonzero"/><path fill="#ffffff" d="M178.62321 150.98958L180.21696 150.78645Q180.48259 152.1302 181.13884 152.72395Q181.79509 153.3177 182.73259 153.3177Q183.85759 153.3177 184.62321 152.55208Q185.38884 151.77083 185.38884 150.6302Q185.38884 149.53645 184.67009 148.83333Q183.96696 148.11458 182.87321 148.11458Q182.42009 148.11458 181.74821 148.30208L181.92009 146.91145Q182.07634 146.92708 182.18571 146.92708Q183.18571 146.92708 183.99821 146.39583Q184.81071 145.86458 184.81071 144.77083Q184.81071 143.89583 184.21696 143.33333Q183.62321 142.7552 182.70134 142.7552Q181.77946 142.7552 181.15446 143.33333Q180.54509 143.91145 180.37321 145.08333L178.79509 144.80208Q179.07634 143.20833 180.10759 142.33333Q181.13884 141.45833 182.67009 141.45833Q183.71696 141.45833 184.60759 141.91145Q185.49821 142.36458 185.96696 143.14583Q186.43571 143.92708 186.43571 144.80208Q186.43571 145.64583 185.98259 146.33333Q185.54509 147.0052 184.65446 147.41145Q185.79509 147.67708 186.42009 148.52083Q187.06071 149.34895 187.06071 150.58333Q187.06071 152.27083 185.82634 153.45833Q184.60759 154.6302 182.73259 154.6302Q181.02946 154.6302 179.90446 153.61458Q178.79509 152.59895 178.62321 150.98958ZM188.62321 150.98958L190.21696 150.78645Q190.48259 152.1302 191.13884 152.72395Q191.79509 153.3177 192.73259 153.3177Q193.85759 153.3177 194.62321 152.55208Q195.38884 151.77083 195.38884 150.6302Q195.38884 149.53645 194.67009 148.83333Q193.96696 148.11458 192.87321 148.11458Q192.42009 148.11458 191.74821 148.30208L191.92009 146.91145Q192.07634 146.92708 192.18571 146.92708Q193.18571 146.92708 193.99821 146.39583Q194.81071 145.86458 194.81071 144.77083Q194.81071 143.89583 194.21696 143.33333Q193.62321 142.7552 192.70134 142.7552Q191.77946 142.7552 191.15446 143.33333Q190.54509 143.91145 190.37321 145.08333L188.79509 144.80208Q189.07634 143.20833 190.10759 142.33333Q191.13884 141.45833 192.67009 141.45833Q193.71696 141.45833 194.60759 141.91145Q195.49821 142.36458 195.96696 143.14583Q196.43571 143.92708 196.43571 144.80208Q196.43571 145.64583 195.98259 146.33333Q195.54509 147.0052 194.65446 147.41145Q195.79509 147.67708 196.42009 148.52083Q197.06071 149.34895 197.06071 150.58333Q197.06071 152.27083 195.82634 153.45833Q194.60759 154.6302 192.73259 154.6302Q191.02946 154.6302 189.90446 153.61458Q188.79509 152.59895 188.62321 150.98958ZM199.51384 154.39583L199.51384 152.59895L201.31071 152.59895L201.31071 154.39583L199.51384 154.39583ZM203.62321 150.98958L205.21696 150.78645Q205.48259 152.1302 206.13884 152.72395Q206.79509 153.3177 207.73259 153.3177Q208.85759 153.3177 209.62321 152.55208Q210.38884 151.77083 210.38884 150.6302Q210.38884 149.53645 209.67009 148.83333Q208.96696 148.11458 207.87321 148.11458Q207.42009 148.11458 206.74821 148.30208L206.92009 146.91145Q207.07634 146.92708 207.18571 146.92708Q208.18571 146.92708 208.99821 146.39583Q209.81071 145.86458 209.81071 144.77083Q209.81071 143.89583 209.21696 143.33333Q208.62321 142.7552 207.70134 142.7552Q206.77946 142.7552 206.15446 143.33333Q205.54509 143.91145 205.37321 145.08333L203.79509 144.80208Q204.07634 143.20833 205.10759 142.33333Q206.13884 141.45833 207.67009 141.45833Q208.71696 141.45833 209.60759 141.91145Q210.49821 142.36458 210.96696 143.14583Q211.43571 143.92708 211.43571 144.80208Q211.43571 145.64583 210.98259 146.33333Q210.54509 147.0052 209.65446 147.41145Q210.79509 147.67708 211.42009 148.52083Q212.06071 149.34895 212.06071 150.58333Q212.06071 152.27083 210.82634 153.45833Q209.60759 154.6302 207.73259 154.6302Q206.02946 154.6302 204.90446 153.61458Q203.79509 152.59895 203.62321 150.98958ZM213.92009 144.59895Q213.92009 143.22395 214.60759 142.2552Q215.31071 141.28645 216.62321 141.28645Q217.84196 141.28645 218.63884 142.16145Q219.43571 143.02083 219.43571 144.70833Q219.43571 146.33333 218.62321 147.22395Q217.82634 148.09895 216.63884 148.09895Q215.48259 148.09895 214.70134 147.23958Q213.92009 146.36458 213.92009 144.59895ZM216.67009 142.3802Q216.07634 142.3802 215.68571 142.89583Q215.29509 143.39583 215.29509 144.7552Q215.29509 146.0052 215.68571 146.5052Q216.09196 147.0052 216.67009 147.0052Q217.26384 147.0052 217.65446 146.5052Q218.04509 145.98958 218.04509 144.64583Q218.04509 143.39583 217.65446 142.89583Q217.26384 142.3802 216.67009 142.3802ZM216.68571 154.86458L223.73259 141.28645L225.01384 141.28645L217.98259 154.86458L216.68571 154.86458ZM222.24821 151.36458Q222.24821 149.98958 222.93571 149.02083Q223.63884 148.05208 224.96696 148.05208Q226.18571 148.05208 226.96696 148.92708Q227.76384 149.78645 227.76384 151.47395Q227.76384 153.09895 226.96696 153.98958Q226.17009 154.86458 224.98259 154.86458Q223.81071 154.86458 223.02946 153.98958Q222.24821 153.11458 222.24821 151.36458ZM225.01384 149.14583Q224.42009 149.14583 224.02946 149.66145Q223.63884 150.16145 223.63884 151.53645Q223.63884 152.7552 224.02946 153.27083Q224.42009 153.78645 224.99821 153.78645Q225.60759 153.78645 225.99821 153.27083Q226.38884 152.7552 226.38884 151.41145Q226.38884 150.16145 225.99821 149.66145Q225.60759 149.14583 225.01384 149.14583Z" fill-rule="nonzero"/><path stroke="#ffffff" stroke-width="1.0" stroke-linejoin="round" stroke-linecap="round" d="M364.41785 240.875C377.70517 217.86072 377.70517 189.50595 364.41785 166.49167C351.13055 143.47739 326.57462 129.3 300.0 129.3L300.0 54.916668C353.1492 54.916668 402.2611 83.27143 428.83572 129.3C455.4103 175.32857 455.4103 232.0381 428.83572 278.06668" fill-rule="nonzero"/><path stroke="#ffffff" stroke-width="1.0" stroke-linejoin="round" stroke-linecap="round" d="M300.0 278.06668C326.57462 278.06668 351.13055 263.88928 364.41785 240.875L428.83572 278.06668C402.2611 324.09525 353.1492 352.45 300.0 352.45" fill-rule="nonzero"/><path stroke="#ffffff" stroke-width="1.0" stroke-linejoin="round" stroke-linecap="round" d="M235.58214 240.875C248.86945 263.88928 273.42538 278.06668 300.0 278.06668L300.0 352.45C246.85078 352.45 197.73889 324.09525 171.16429 278.06668" fill-rule="nonzero"/><path stroke="#ffffff" stroke-width="1.0" stroke-linejoin="round" stroke-linecap="round" d="M300.0 129.3C273.42538 129.3 248.86945 143.47739 235.58214 166.49167C222.29485 189.50595 222.29485 217.86072 235.58214 240.875L171.16429 278.06668C144.58968 232.0381 144.58968 175.32857 171.16429 129.3C197.73889 83.27143 246.85078 54.916668 300.0 54.916668" fill-rule="nonzero"/><path fill="#efefef" d="M18.51875 127.519165L22.925 116.06604L24.565624 116.06604L29.253124 127.519165L27.51875 127.519165L26.190624 124.050415L21.39375 124.050415L20.14375 127.519165L18.51875 127.519165ZM21.83125 122.81604L25.721874 122.81604L24.51875 119.644165Q23.971874 118.19104 23.70625 117.269165Q23.4875 118.362915 23.096874 119.456665L21.83125 122.81604ZM30.596874 127.519165L30.596874 119.22229L31.8625 119.22229L31.8625 120.47229Q32.346874 119.59729 32.753124 119.31604Q33.159374 119.03479 33.659374 119.03479Q34.3625 119.03479 35.096874 119.487915L34.6125 120.78479Q34.096874 120.487915 33.58125 120.487915Q33.128124 120.487915 32.753124 120.769165Q32.39375 121.03479 32.2375 121.53479Q32.003124 122.28479 32.003124 123.175415L32.003124 127.519165L30.596874 127.519165ZM38.675 126.25354L38.878124 127.50354Q38.284374 127.62854 37.815624 127.62854Q37.05 127.62854 36.628124 127.394165Q36.20625 127.144165 36.034374 126.75354Q35.8625 126.34729 35.8625 125.081665L35.8625 120.31604L34.83125 120.31604L34.83125 119.22229L35.8625 119.22229L35.8625 117.15979L37.26875 116.31604L37.26875 119.22229L38.675 119.22229L38.675 120.31604L37.26875 120.31604L37.26875 125.15979Q37.26875 125.769165 37.33125 125.94104Q37.409374 126.112915 37.58125 126.22229Q37.753124 126.31604 38.065624 126.31604Q38.3 126.31604 38.675 126.25354ZM39.05 125.03479L40.440624 124.81604Q40.55 125.65979 41.08125 126.112915Q41.628124 126.550415 42.58125 126.550415Q43.55 126.550415 44.01875 126.15979Q44.4875 125.75354 44.4875 125.22229Q44.4875 124.75354 44.08125 124.47229Q43.784374 124.28479 42.64375 124.00354Q41.096874 123.612915 40.4875 123.331665Q39.89375 123.03479 39.58125 122.53479Q39.284374 122.03479 39.284374 121.425415Q39.284374 120.862915 39.534374 120.394165Q39.784374 119.925415 40.221874 119.612915Q40.55 119.362915 41.1125 119.206665Q41.690624 119.03479 42.33125 119.03479Q43.315624 119.03479 44.05 119.31604Q44.784374 119.59729 45.128124 120.081665Q45.4875 120.550415 45.628124 121.362915L44.253124 121.550415Q44.159374 120.90979 43.70625 120.550415Q43.253124 120.19104 42.440624 120.19104Q41.471874 120.19104 41.05 120.519165Q40.64375 120.831665 40.64375 121.25354Q40.64375 121.53479 40.815624 121.75354Q40.9875 121.97229 41.346874 122.12854Q41.565624 122.206665 42.596874 122.487915Q44.08125 122.87854 44.675 123.144165Q45.26875 123.394165 45.596874 123.87854Q45.940624 124.362915 45.940624 125.081665Q45.940624 125.78479 45.51875 126.40979Q45.1125 127.019165 44.33125 127.362915Q43.565624 127.706665 42.596874 127.706665Q40.971874 127.706665 40.128124 127.03479Q39.284374 126.362915 39.05 125.03479ZM58.159374 126.15979Q57.45625 126.94104 56.628124 127.331665Q55.815624 127.72229 54.8625 127.72229Q53.1125 127.72229 52.08125 126.519165Q51.2375 125.550415 51.2375 124.362915Q51.2375 123.300415 51.925 122.44104Q52.6125 121.581665 53.971874 120.94104Q53.190624 120.050415 52.925 119.50354Q52.675 118.94104 52.675 118.425415Q52.675 117.394165 53.4875 116.62854Q54.3 115.862915 55.51875 115.862915Q56.690624 115.862915 57.440624 116.581665Q58.190624 117.300415 58.190624 118.31604Q58.190624 119.94104 56.01875 121.09729L58.08125 123.72229Q58.425 123.03479 58.628124 122.12854L60.08125 122.44104Q59.70625 123.94104 59.065624 124.90979Q59.8625 125.956665 60.8625 126.65979L59.909374 127.78479Q59.065624 127.237915 58.159374 126.15979ZM55.3 120.19104Q56.20625 119.65979 56.471874 119.25354Q56.753124 118.84729 56.753124 118.34729Q56.753124 117.769165 56.378124 117.394165Q56.003124 117.019165 55.45625 117.019165Q54.878124 117.019165 54.503124 117.394165Q54.128124 117.75354 54.128124 118.28479Q54.128124 118.550415 54.253124 118.84729Q54.39375 119.144165 54.675 119.47229L55.3 120.19104ZM57.26875 125.050415L54.690624 121.862915Q53.55 122.53479 53.14375 123.12854Q52.753124 123.706665 52.753124 124.269165Q52.753124 124.97229 53.3 125.72229Q53.8625 126.47229 54.878124 126.47229Q55.51875 126.47229 56.190624 126.081665Q56.8625 125.675415 57.26875 125.050415ZM65.51875 127.519165L69.925 116.06604L71.56563 116.06604L76.25313 127.519165L74.51875 127.519165L73.19063 124.050415L68.39375 124.050415L67.14375 127.519165L65.51875 127.519165ZM68.83125 122.81604L72.72188 122.81604L71.51875 119.644165Q70.97188 118.19104 70.70625 117.269165Q70.4875 118.362915 70.09688 119.456665L68.83125 122.81604ZM77.6125 127.519165L77.6125 119.22229L78.87813 119.22229L78.87813 120.394165Q79.78438 119.03479 81.51875 119.03479Q82.26875 119.03479 82.89375 119.300415Q83.51875 119.56604 83.83125 120.00354Q84.14375 120.44104 84.26875 121.050415Q84.34688 121.44104 84.34688 122.40979L84.34688 127.519165L82.94063 127.519165L82.94063 122.47229Q82.94063 121.612915 82.76875 121.19104Q82.6125 120.75354 82.19063 120.50354Q81.78438 120.25354 81.22188 120.25354Q80.31563 120.25354 79.65938 120.831665Q79.01875 121.394165 79.01875 122.987915L79.01875 127.519165L77.6125 127.519165ZM89.675 126.25354L89.87813 127.50354Q89.28438 127.62854 88.81563 127.62854Q88.05 127.62854 87.62813 127.394165Q87.20625 127.144165 87.03438 126.75354Q86.8625 126.34729 86.8625 125.081665L86.8625 120.31604L85.83125 120.31604L85.83125 119.22229L86.8625 119.22229L86.8625 117.15979L88.26875 116.31604L88.26875 119.22229L89.675 119.22229L89.675 120.31604L88.26875 120.31604L88.26875 125.15979Q88.26875 125.769165 88.33125 125.94104Q88.40938 126.112915 88.58125 126.22229Q88.75313 126.31604 89.06563 126.31604Q89.3 126.31604 89.675 126.25354ZM90.6125 117.675415L90.6125 116.06604L92.01875 116.06604L92.01875 117.675415L90.6125 117.675415ZM90.6125 127.519165L90.6125 119.22229L92.01875 119.22229L92.01875 127.519165L90.6125 127.519165ZM99.89375 130.70667L99.89375 126.62854Q99.56563 127.09729 98.97188 127.40979Q98.39375 127.706665 97.72188 127.706665Q96.25313 127.706665 95.175 126.53479Q94.1125 125.34729 94.1125 123.28479Q94.1125 122.03479 94.55 121.050415Q94.9875 120.050415 95.8 119.550415Q96.62813 119.03479 97.6125 119.03479Q99.15938 119.03479 100.03438 120.331665L100.03438 119.22229L101.3 119.22229L101.3 130.70667L99.89375 130.70667ZM95.56563 123.34729Q95.56563 124.94104 96.2375 125.75354Q96.90938 126.550415 97.84688 126.550415Q98.7375 126.550415 99.37813 125.78479Q100.03438 125.019165 100.03438 123.47229Q100.03438 121.81604 99.34688 120.987915Q98.675 120.144165 97.75313 120.144165Q96.83125 120.144165 96.19063 120.925415Q95.56563 121.69104 95.56563 123.34729ZM109.05 127.519165L109.05 126.300415Q108.08125 127.706665 106.40938 127.706665Q105.675 127.706665 105.03438 127.425415Q104.40938 127.144165 104.09688 126.72229Q103.78438 126.28479 103.65938 125.675415Q103.58125 125.25354 103.58125 124.362915L103.58125 119.22229L104.9875 119.22229L104.9875 123.81604Q104.9875 124.925415 105.06563 125.300415Q105.20625 125.862915 105.62813 126.175415Q106.06563 126.487915 106.69063 126.487915Q107.33125 126.487915 107.87813 126.175415Q108.44063 125.84729 108.65938 125.28479Q108.89375 124.72229 108.89375 123.65979L108.89375 119.22229L110.3 119.22229L110.3 127.519165L109.05 127.519165ZM112.6125 117.675415L112.6125 116.06604L114.01875 116.06604L114.01875 117.675415L112.6125 117.675415ZM112.6125 127.519165L112.6125 119.22229L114.01875 119.22229L114.01875 127.519165L112.6125 127.519165ZM119.675 126.25354L119.87813 127.50354Q119.28438 127.62854 118.81563 127.62854Q118.05 127.62854 117.62813 127.394165Q117.20625 127.144165 117.03438 126.75354Q116.8625 126.34729 116.8625 125.081665L116.8625 120.31604L115.83125 120.31604L115.83125 119.22229L116.8625 119.22229L116.8625 117.15979L118.26875 116.31604L118.26875 119.22229L119.675 119.22229L119.675 120.31604L118.26875 120.31604L118.26875 125.15979Q118.26875 125.769165 118.33125 125.94104Q118.40938 126.112915 118.58125 126.22229Q118.75313 126.31604 119.06563 126.31604Q119.3 126.31604 119.675 126.25354ZM120.6125 117.675415L120.6125 116.06604L122.01875 116.06604L122.01875 117.675415L120.6125 117.675415ZM120.6125 127.519165L120.6125 119.22229L122.01875 119.22229L122.01875 127.519165L120.6125 127.519165ZM130.28438 124.84729L131.7375 125.019165Q131.39375 126.300415 130.45625 127.00354Q129.53438 127.706665 128.09688 127.706665Q126.26875 127.706665 125.20625 126.581665Q124.14375 125.456665 124.14375 123.44104Q124.14375 121.34729 125.22188 120.19104Q126.3 119.03479 128.01875 119.03479Q129.675 119.03479 130.72188 120.175415Q131.78438 121.300415 131.78438 123.34729Q131.78438 123.47229 131.78438 123.72229L125.59688 123.72229Q125.675 125.09729 126.3625 125.831665Q127.06563 126.550415 128.09688 126.550415Q128.87813 126.550415 129.425 126.144165Q129.97188 125.737915 130.28438 124.84729ZM125.675 122.56604L130.3 122.56604Q130.20625 121.519165 129.76875 121.00354Q129.09688 120.19104 128.03438 120.19104Q127.06563 120.19104 126.39375 120.84729Q125.7375 121.487915 125.675 122.56604ZM133.05 125.03479L134.44063 124.81604Q134.55 125.65979 135.08125 126.112915Q135.62813 126.550415 136.58125 126.550415Q137.55 126.550415 138.01875 126.15979Q138.4875 125.75354 138.4875 125.22229Q138.4875 124.75354 138.08125 124.47229Q137.78438 124.28479 136.64375 124.00354Q135.09688 123.612915 134.4875 123.331665Q133.89375 123.03479 133.58125 122.53479Q133.28438 122.03479 133.28438 121.425415Q133.28438 120.862915 133.53438 120.394165Q133.78438 119.925415 134.22188 119.612915Q134.55 119.362915 135.1125 119.206665Q135.69063 119.03479 136.33125 119.03479Q137.31563 119.03479 138.05 119.31604Q138.78438 119.59729 139.12813 120.081665Q139.4875 120.550415 139.62813 121.362915L138.25313 121.550415Q138.15938 120.90979 137.70625 120.550415Q137.25313 120.19104 136.44063 120.19104Q135.47188 120.19104 135.05 120.519165Q134.64375 120.831665 134.64375 121.25354Q134.64375 121.53479 134.81563 121.75354Q134.9875 121.97229 135.34688 122.12854Q135.56563 122.206665 136.59688 122.487915Q138.08125 122.87854 138.675 123.144165Q139.26875 123.394165 139.59688 123.87854Q139.94063 124.362915 139.94063 125.081665Q139.94063 125.78479 139.51875 126.40979Q139.1125 127.019165 138.33125 127.362915Q137.56563 127.706665 136.59688 127.706665Q134.97188 127.706665 134.12813 127.03479Q133.28438 126.362915 133.05 125.03479Z" fill-rule="nonzero"/><path fill="#9e9e9e" d="M19.221874 146.48792L20.628124 146.30042Q20.878124 147.50354 21.45625 148.03479Q22.034374 148.55042 22.878124 148.55042Q23.8625 148.55042 24.55 147.86292Q25.2375 147.17542 25.2375 146.15979Q25.2375 145.19104 24.596874 144.56604Q23.971874 143.94104 22.9875 143.94104Q22.596874 143.94104 22.003124 144.09729L22.159374 142.86292Q22.3 142.87854 22.378124 142.87854Q23.284374 142.87854 24.003124 142.40979Q24.721874 141.94104 24.721874 140.95667Q24.721874 140.19104 24.190624 139.69104Q23.675 139.17542 22.846874 139.17542Q22.01875 139.17542 21.471874 139.69104Q20.925 140.20667 20.76875 141.23792L19.3625 140.98792Q19.628124 139.56604 20.534374 138.80042Q21.45625 138.01917 22.815624 138.01917Q23.753124 138.01917 24.534374 138.42542Q25.33125 138.81604 25.7375 139.51917Q26.159374 140.20667 26.159374 140.98792Q26.159374 141.73792 25.753124 142.34729Q25.3625 142.95667 24.58125 143.31604Q25.596874 143.55042 26.159374 144.28479Q26.721874 145.01917 26.721874 146.12854Q26.721874 147.62854 25.628124 148.67542Q24.534374 149.72229 22.8625 149.72229Q21.3625 149.72229 20.3625 148.83167Q19.3625 147.92542 19.221874 146.48792ZM28.221874 146.48792L29.628124 146.30042Q29.878124 147.50354 30.45625 148.03479Q31.034374 148.55042 31.878124 148.55042Q32.8625 148.55042 33.55 147.86292Q34.2375 147.17542 34.2375 146.15979Q34.2375 145.19104 33.596874 144.56604Q32.971874 143.94104 31.9875 143.94104Q31.596874 143.94104 31.003124 144.09729L31.159374 142.86292Q31.3 142.87854 31.378124 142.87854Q32.284374 142.87854 33.003124 142.40979Q33.721874 141.94104 33.721874 140.95667Q33.721874 140.19104 33.190624 139.69104Q32.675 139.17542 31.846874 139.17542Q31.01875 139.17542 30.471874 139.69104Q29.925 140.20667 29.76875 141.23792L28.3625 140.98792Q28.628124 139.56604 29.534374 138.80042Q30.45625 138.01917 31.815624 138.01917Q32.753124 138.01917 33.534374 138.42542Q34.33125 138.81604 34.7375 139.51917Q35.159374 140.20667 35.159374 140.98792Q35.159374 141.73792 34.753124 142.34729Q34.3625 142.95667 33.58125 143.31604Q34.596874 143.55042 35.159374 144.28479Q35.721874 145.01917 35.721874 146.12854Q35.721874 147.62854 34.628124 148.67542Q33.534374 149.72229 31.8625 149.72229Q30.3625 149.72229 29.3625 148.83167Q28.3625 147.92542 28.221874 146.48792ZM38.003124 149.51917L38.003124 147.90979L39.6125 147.90979L39.6125 149.51917L38.003124 149.51917ZM41.221874 146.48792L42.628124 146.30042Q42.878124 147.50354 43.45625 148.03479Q44.034374 148.55042 44.878124 148.55042Q45.8625 148.55042 46.55 147.86292Q47.2375 147.17542 47.2375 146.15979Q47.2375 145.19104 46.596874 144.56604Q45.971874 143.94104 44.9875 143.94104Q44.596874 143.94104 44.003124 144.09729L44.159374 142.86292Q44.3 142.87854 44.378124 142.87854Q45.284374 142.87854 46.003124 142.40979Q46.721874 141.94104 46.721874 140.95667Q46.721874 140.19104 46.190624 139.69104Q45.675 139.17542 44.846874 139.17542Q44.01875 139.17542 43.471874 139.69104Q42.925 140.20667 42.76875 141.23792L41.3625 140.98792Q41.628124 139.56604 42.534374 138.80042Q43.45625 138.01917 44.815624 138.01917Q45.753124 138.01917 46.534374 138.42542Q47.33125 138.81604 47.7375 139.51917Q48.159374 140.20667 48.159374 140.98792Q48.159374 141.73792 47.753124 142.34729Q47.3625 142.95667 46.58125 143.31604Q47.596874 143.55042 48.159374 144.28479Q48.721874 145.01917 48.721874 146.12854Q48.721874 147.62854 47.628124 148.67542Q46.534374 149.72229 44.8625 149.72229Q43.3625 149.72229 42.3625 148.83167Q41.3625 147.92542 41.221874 146.48792ZM50.4875 140.81604Q50.4875 139.58167 51.096874 138.72229Q51.721874 137.86292 52.89375 137.86292Q53.971874 137.86292 54.675 138.64417Q55.378124 139.40979 55.378124 140.89417Q55.378124 142.34729 54.659374 143.14417Q53.95625 143.92542 52.909374 143.92542Q51.8625 143.92542 51.175 143.15979Q50.4875 142.37854 50.4875 140.81604ZM52.925 138.83167Q52.409374 138.83167 52.05 139.28479Q51.70625 139.73792 51.70625 140.95667Q51.70625 142.05042 52.05 142.50354Q52.409374 142.95667 52.925 142.95667Q53.45625 142.95667 53.8 142.50354Q54.159374 142.05042 54.159374 140.84729Q54.159374 139.73792 53.8 139.28479Q53.45625 138.83167 52.925 138.83167ZM52.940624 149.94104L59.20625 137.86292L60.346874 137.86292L54.096874 149.94104L52.940624 149.94104ZM57.89375 146.83167Q57.89375 145.59729 58.503124 144.73792Q59.128124 143.87854 60.3 143.87854Q61.378124 143.87854 62.08125 144.65979Q62.8 145.42542 62.8 146.90979Q62.8 148.36292 62.08125 149.15979Q61.3625 149.94104 60.315624 149.94104Q59.26875 149.94104 58.58125 149.15979Q57.89375 148.37854 57.89375 146.83167ZM60.346874 144.84729Q59.815624 144.84729 59.45625 145.30042Q59.1125 145.75354 59.1125 146.97229Q59.1125 148.06604 59.45625 148.51917Q59.815624 148.97229 60.33125 148.97229Q60.878124 148.97229 61.221874 148.51917Q61.565624 148.06604 61.565624 146.86292Q61.565624 145.75354 61.20625 145.30042Q60.8625 144.84729 60.346874 144.84729Z" fill-rule="nonzero"/><path stroke="#757575" stroke-width="1.0" stroke-linecap="butt" d="M18.55 133.01917L145.23334 133.01917L177.60608 133.01917" fill-rule="nonzero"/><path fill="#9e9e9e" d="M179.60608 133.01917C179.60608 131.9146 178.71065 131.01917 177.60608 131.01917C176.50151 131.01917 175.60608 131.9146 175.60608 133.01917C175.60608 134.12373 176.50151 135.01917 177.60608 135.01917C178.71065 135.01917 179.60608 134.12373 179.60608 133.01917" fill-rule="nonzero"/><path fill="#efefef" d="M19.76875 320.57727L19.76875 309.12415L21.33125 309.12415L27.346874 318.10852L27.346874 309.12415L28.8 309.12415L28.8 320.57727L27.2375 320.57727L21.221874 311.57727L21.221874 320.57727L19.76875 320.57727ZM37.01875 319.54602Q36.2375 320.2179 35.51875 320.49915Q34.8 320.76477 33.971874 320.76477Q32.596874 320.76477 31.8625 320.0929Q31.128124 319.42102 31.128124 318.38977Q31.128124 317.7804 31.409374 317.2804Q31.690624 316.76477 32.128124 316.4679Q32.58125 316.1554 33.14375 315.99915Q33.565624 315.88977 34.39375 315.79602Q36.096874 315.5929 36.909374 315.31165Q36.909374 315.01477 36.909374 314.93665Q36.909374 314.07727 36.51875 313.73352Q35.971874 313.24915 34.909374 313.24915Q33.925 313.24915 33.440624 313.60852Q32.971874 313.95227 32.753124 314.82727L31.378124 314.63977Q31.565624 313.76477 31.9875 313.2179Q32.425 312.67102 33.2375 312.38977Q34.05 312.0929 35.1125 312.0929Q36.175 312.0929 36.83125 312.3429Q37.503124 312.5929 37.815624 312.9679Q38.128124 313.3429 38.253124 313.92102Q38.33125 314.2804 38.33125 315.2179L38.33125 317.0929Q38.33125 319.06165 38.409374 319.57727Q38.503124 320.0929 38.76875 320.57727L37.3 320.57727Q37.08125 320.13977 37.01875 319.54602ZM36.909374 316.4054Q36.14375 316.7179 34.6125 316.93665Q33.7375 317.06165 33.378124 317.2179Q33.01875 317.37415 32.815624 317.68665Q32.628124 317.98352 32.628124 318.3429Q32.628124 318.9054 33.05 319.2804Q33.4875 319.6554 34.3 319.6554Q35.1125 319.6554 35.7375 319.31165Q36.378124 318.95227 36.675 318.32727Q36.909374 317.85852 36.909374 316.92102L36.909374 316.4054ZM43.675 319.31165L43.878124 320.56165Q43.284374 320.68665 42.815624 320.68665Q42.05 320.68665 41.628124 320.45227Q41.20625 320.20227 41.034374 319.81165Q40.8625 319.4054 40.8625 318.13977L40.8625 313.37415L39.83125 313.37415L39.83125 312.2804L40.8625 312.2804L40.8625 310.2179L42.26875 309.37415L42.26875 312.2804L43.675 312.2804L43.675 313.37415L42.26875 313.37415L42.26875 318.2179Q42.26875 318.82727 42.33125 318.99915Q42.409374 319.17102 42.58125 319.2804Q42.753124 319.37415 43.065624 319.37415Q43.3 319.37415 43.675 319.31165ZM50.05 320.57727L50.05 319.35852Q49.08125 320.76477 47.409374 320.76477Q46.675 320.76477 46.034374 320.48352Q45.409374 320.20227 45.096874 319.7804Q44.784374 319.3429 44.659374 318.73352Q44.58125 318.31165 44.58125 317.42102L44.58125 312.2804L45.9875 312.2804L45.9875 316.87415Q45.9875 317.98352 46.065624 318.35852Q46.20625 318.92102 46.628124 319.23352Q47.065624 319.54602 47.690624 319.54602Q48.33125 319.54602 48.878124 319.23352Q49.440624 318.9054 49.659374 318.3429Q49.89375 317.7804 49.89375 316.7179L49.89375 312.2804L51.3 312.2804L51.3 320.57727L50.05 320.57727ZM53.596874 320.57727L53.596874 312.2804L54.8625 312.2804L54.8625 313.5304Q55.346874 312.6554 55.753124 312.37415Q56.159374 312.0929 56.659374 312.0929Q57.3625 312.0929 58.096874 312.54602L57.6125 313.8429Q57.096874 313.54602 56.58125 313.54602Q56.128124 313.54602 55.753124 313.82727Q55.39375 314.0929 55.2375 314.5929Q55.003124 315.3429 55.003124 316.23352L55.003124 320.57727L53.596874 320.57727ZM64.01875 319.54602Q63.2375 320.2179 62.51875 320.49915Q61.8 320.76477 60.971874 320.76477Q59.596874 320.76477 58.8625 320.0929Q58.128124 319.42102 58.128124 318.38977Q58.128124 317.7804 58.409374 317.2804Q58.690624 316.76477 59.128124 316.4679Q59.58125 316.1554 60.14375 315.99915Q60.565624 315.88977 61.39375 315.79602Q63.096874 315.5929 63.909374 315.31165Q63.909374 315.01477 63.909374 314.93665Q63.909374 314.07727 63.51875 313.73352Q62.971874 313.24915 61.909374 313.24915Q60.925 313.24915 60.440624 313.60852Q59.971874 313.95227 59.753124 314.82727L58.378124 314.63977Q58.565624 313.76477 58.9875 313.2179Q59.425 312.67102 60.2375 312.38977Q61.05 312.0929 62.1125 312.0929Q63.175 312.0929 63.83125 312.3429Q64.50313 312.5929 64.81563 312.9679Q65.12813 313.3429 65.25313 313.92102Q65.33125 314.2804 65.33125 315.2179L65.33125 317.0929Q65.33125 319.06165 65.40938 319.57727Q65.50313 320.0929 65.76875 320.57727L64.3 320.57727Q64.08125 320.13977 64.01875 319.54602ZM63.909374 316.4054Q63.14375 316.7179 61.6125 316.93665Q60.7375 317.06165 60.378124 317.2179Q60.01875 317.37415 59.815624 317.68665Q59.628124 317.98352 59.628124 318.3429Q59.628124 318.9054 60.05 319.2804Q60.4875 319.6554 61.3 319.6554Q62.1125 319.6554 62.7375 319.31165Q63.378124 318.95227 63.675 318.32727Q63.909374 317.85852 63.909374 316.92102L63.909374 316.4054ZM67.58125 320.57727L67.58125 309.12415L68.9875 309.12415L68.9875 320.57727L67.58125 320.57727Z" fill-rule="nonzero"/><path fill="#9e9e9e" d="M24.51875 342.57727L23.1125 342.57727L23.1125 333.60852Q22.596874 334.0929 21.76875 334.57727Q20.95625 335.06165 20.3 335.31165L20.3 333.95227Q21.471874 333.38977 22.346874 332.60852Q23.2375 331.81165 23.6125 331.07727L24.51875 331.07727L24.51875 342.57727ZM35.51875 333.92102L34.1125 334.0304Q33.925 333.20227 33.58125 332.82727Q33.01875 332.23352 32.175 332.23352Q31.503124 332.23352 31.003124 332.60852Q30.33125 333.0929 29.940624 334.0304Q29.565624 334.95227 29.55 336.67102Q30.065624 335.88977 30.8 335.51477Q31.534374 335.13977 32.33125 335.13977Q33.7375 335.13977 34.721874 336.18665Q35.721874 337.2179 35.721874 338.85852Q35.721874 339.93665 35.253124 340.85852Q34.784374 341.7804 33.971874 342.2804Q33.159374 342.7804 32.128124 342.7804Q30.378124 342.7804 29.26875 341.48352Q28.159374 340.18665 28.159374 337.2179Q28.159374 333.88977 29.378124 332.38977Q30.45625 331.07727 32.26875 331.07727Q33.6125 331.07727 34.471874 331.8429Q35.346874 332.5929 35.51875 333.92102ZM29.76875 338.85852Q29.76875 339.5929 30.08125 340.26477Q30.39375 340.92102 30.940624 341.26477Q31.503124 341.60852 32.1125 341.60852Q33.003124 341.60852 33.64375 340.88977Q34.284374 340.17102 34.284374 338.93665Q34.284374 337.74915 33.64375 337.07727Q33.01875 336.38977 32.05 336.38977Q31.096874 336.38977 30.425 337.07727Q29.76875 337.74915 29.76875 338.85852ZM38.003124 342.57727L38.003124 340.9679L39.6125 340.9679L39.6125 342.57727L38.003124 342.57727ZM41.315624 332.62415L41.315624 331.26477L48.721874 331.26477L48.721874 332.35852Q47.628124 333.5304 46.55 335.4679Q45.4875 337.38977 44.89375 339.42102Q44.471874 340.85852 44.3625 342.57727L42.909374 342.57727Q42.940624 341.2179 43.440624 339.31165Q43.95625 337.38977 44.89375 335.62415Q45.846874 333.8429 46.925 332.62415L41.315624 332.62415ZM50.4875 333.87415Q50.4875 332.63977 51.096874 331.7804Q51.721874 330.92102 52.89375 330.92102Q53.971874 330.92102 54.675 331.70227Q55.378124 332.4679 55.378124 333.95227Q55.378124 335.4054 54.659374 336.20227Q53.95625 336.98352 52.909374 336.98352Q51.8625 336.98352 51.175 336.2179Q50.4875 335.43665 50.4875 333.87415ZM52.925 331.88977Q52.409374 331.88977 52.05 332.3429Q51.70625 332.79602 51.70625 334.01477Q51.70625 335.10852 52.05 335.56165Q52.409374 336.01477 52.925 336.01477Q53.45625 336.01477 53.8 335.56165Q54.159374 335.10852 54.159374 333.9054Q54.159374 332.79602 53.8 332.3429Q53.45625 331.88977 52.925 331.88977ZM52.940624 342.99915L59.20625 330.92102L60.346874 330.92102L54.096874 342.99915L52.940624 342.99915ZM57.89375 339.88977Q57.89375 338.6554 58.503124 337.79602Q59.128124 336.93665 60.3 336.93665Q61.378124 336.93665 62.08125 337.7179Q62.8 338.48352 62.8 339.9679Q62.8 341.42102 62.08125 342.2179Q61.3625 342.99915 60.315624 342.99915Q59.26875 342.99915 58.58125 342.2179Q57.89375 341.43665 57.89375 339.88977ZM60.346874 337.9054Q59.815624 337.9054 59.45625 338.35852Q59.1125 338.81165 59.1125 340.0304Q59.1125 341.12415 59.45625 341.57727Q59.815624 342.0304 60.33125 342.0304Q60.878124 342.0304 61.221874 341.57727Q61.565624 341.12415 61.565624 339.92102Q61.565624 338.81165 61.20625 338.35852Q60.8625 337.9054 60.346874 337.9054Z" fill-rule="nonzero"/><path stroke="#757575" stroke-width="1.0" stroke-linecap="butt" d="M18.55 326.07727L145.23334 326.07727L229.33583 326.07727" fill-rule="nonzero"/><path fill="#9e9e9e" d="M231.33583 326.07727C231.33583 324.9727 230.4404 324.07727 229.33583 324.07727C228.23126 324.07727 227.33583 324.9727 227.33583 326.07727C227.33583 327.18182 228.23126 328.07727 229.33583 328.07727C230.4404 328.07727 231.33583 327.18182 231.33583 326.07727" fill-rule="nonzero"/><path fill="#efefef" d="M481.71564 127.519165L481.71564 116.06604L489.9969 116.06604L489.9969 117.40979L483.23126 117.40979L483.23126 120.925415L489.575 120.925415L489.575 122.269165L483.23126 122.269165L483.23126 126.15979L490.2625 126.15979L490.2625 127.519165L481.71564 127.519165ZM495.575 126.25354L495.77814 127.50354Q495.1844 127.62854 494.71564 127.62854Q493.95 127.62854 493.52814 127.394165Q493.10626 127.144165 492.9344 126.75354Q492.7625 126.34729 492.7625 125.081665L492.7625 120.31604L491.73126 120.31604L491.73126 119.22229L492.7625 119.22229L492.7625 117.15979L494.16876 116.31604L494.16876 119.22229L495.575 119.22229L495.575 120.31604L494.16876 120.31604L494.16876 125.15979Q494.16876 125.769165 494.23126 125.94104Q494.3094 126.112915 494.48126 126.22229Q494.65314 126.31604 494.96564 126.31604Q495.2 126.31604 495.575 126.25354ZM496.5125 127.519165L496.5125 116.06604L497.91876 116.06604L497.91876 120.175415Q498.90314 119.03479 500.40314 119.03479Q501.325 119.03479 501.9969 119.394165Q502.6844 119.75354 502.96564 120.394165Q503.2625 121.03479 503.2625 122.25354L503.2625 127.519165L501.85626 127.519165L501.85626 122.25354Q501.85626 121.206665 501.40314 120.72229Q500.95 120.237915 500.10626 120.237915Q499.48126 120.237915 498.9344 120.56604Q498.3875 120.894165 498.15314 121.456665Q497.91876 122.00354 497.91876 122.97229L497.91876 127.519165L496.5125 127.519165ZM505.5125 127.519165L505.5125 119.22229L506.77814 119.22229L506.77814 120.394165Q507.6844 119.03479 509.41876 119.03479Q510.16876 119.03479 510.79376 119.300415Q511.41876 119.56604 511.73126 120.00354Q512.04376 120.44104 512.16876 121.050415Q512.2469 121.44104 512.2469 122.40979L512.2469 127.519165L510.84064 127.519165L510.84064 122.47229Q510.84064 121.612915 510.66876 121.19104Q510.5125 120.75354 510.09064 120.50354Q509.6844 120.25354 509.1219 120.25354Q508.21564 120.25354 507.5594 120.831665Q506.91876 121.394165 506.91876 122.987915L506.91876 127.519165L505.5125 127.519165ZM514.5125 117.675415L514.5125 116.06604L515.91876 116.06604L515.91876 117.675415L514.5125 117.675415ZM514.5125 127.519165L514.5125 119.22229L515.91876 119.22229L515.91876 127.519165L514.5125 127.519165ZM523.91876 124.47229L525.3094 124.65979Q525.075 126.081665 524.1375 126.894165Q523.21564 127.706665 521.85626 127.706665Q520.15314 127.706665 519.10626 126.59729Q518.075 125.47229 518.075 123.394165Q518.075 122.050415 518.5125 121.050415Q518.96564 120.03479 519.8719 119.53479Q520.79376 119.03479 521.85626 119.03479Q523.21564 119.03479 524.075 119.72229Q524.9344 120.394165 525.16876 121.65979L523.8094 121.862915Q523.60626 121.03479 523.10626 120.612915Q522.6219 120.19104 521.91876 120.19104Q520.85626 120.19104 520.1844 120.956665Q519.52814 121.706665 519.52814 123.362915Q519.52814 125.03479 520.16876 125.800415Q520.8094 126.550415 521.84064 126.550415Q522.66876 126.550415 523.21564 126.050415Q523.77814 125.53479 523.91876 124.47229ZM536.04376 123.019165L536.04376 121.675415L540.90314 121.675415L540.90314 125.925415Q539.77814 126.81604 538.59064 127.269165Q537.40314 127.72229 536.15314 127.72229Q534.46564 127.72229 533.09064 127.00354Q531.71564 126.269165 531.0125 124.90979Q530.3094 123.53479 530.3094 121.84729Q530.3094 120.175415 530.9969 118.72229Q531.7 117.269165 533.0125 116.56604Q534.325 115.862915 536.04376 115.862915Q537.27814 115.862915 538.27814 116.269165Q539.29376 116.675415 539.85626 117.394165Q540.4344 118.112915 540.73126 119.269165L539.35626 119.644165Q539.10626 118.769165 538.71564 118.269165Q538.34064 117.769165 537.6219 117.47229Q536.91876 117.15979 536.04376 117.15979Q535.0125 117.15979 534.2469 117.487915Q533.4969 117.800415 533.02814 118.31604Q532.5594 118.831665 532.3094 119.44104Q531.8719 120.50354 531.8719 121.75354Q531.8719 123.28479 532.3875 124.31604Q532.91876 125.34729 533.91876 125.84729Q534.9344 126.34729 536.075 126.34729Q537.0594 126.34729 537.9969 125.97229Q538.9344 125.581665 539.41876 125.15979L539.41876 123.019165L536.04376 123.019165ZM542.4969 127.519165L542.4969 119.22229L543.7625 119.22229L543.7625 120.47229Q544.2469 119.59729 544.65314 119.31604Q545.0594 119.03479 545.5594 119.03479Q546.2625 119.03479 546.9969 119.487915L546.5125 120.78479Q545.9969 120.487915 545.48126 120.487915Q545.02814 120.487915 544.65314 120.769165Q544.29376 121.03479 544.1375 121.53479Q543.90314 122.28479 543.90314 123.175415L543.90314 127.519165L542.4969 127.519165ZM546.98126 123.362915Q546.98126 121.06604 548.2625 119.956665Q549.34064 119.03479 550.8719 119.03479Q552.59064 119.03479 553.66876 120.15979Q554.7625 121.269165 554.7625 123.25354Q554.7625 124.84729 554.27814 125.769165Q553.79376 126.69104 552.8719 127.206665Q551.96564 127.706665 550.8719 127.706665Q549.1375 127.706665 548.0594 126.59729Q546.98126 125.47229 546.98126 123.362915ZM548.4344 123.362915Q548.4344 124.956665 549.1219 125.75354Q549.825 126.550415 550.8719 126.550415Q551.91876 126.550415 552.60626 125.75354Q553.3094 124.956665 553.3094 123.31604Q553.3094 121.78479 552.60626 120.987915Q551.91876 120.19104 550.8719 120.19104Q549.825 120.19104 549.1219 120.987915Q548.4344 121.769165 548.4344 123.362915ZM561.95 127.519165L561.95 126.300415Q560.98126 127.706665 559.3094 127.706665Q558.575 127.706665 557.9344 127.425415Q557.3094 127.144165 556.9969 126.72229Q556.6844 126.28479 556.5594 125.675415Q556.48126 125.25354 556.48126 124.362915L556.48126 119.22229L557.8875 119.22229L557.8875 123.81604Q557.8875 124.925415 557.96564 125.300415Q558.10626 125.862915 558.52814 126.175415Q558.96564 126.487915 559.59064 126.487915Q560.23126 126.487915 560.77814 126.175415Q561.34064 125.84729 561.5594 125.28479Q561.79376 124.72229 561.79376 123.65979L561.79376 119.22229L563.2 119.22229L563.2 127.519165L561.95 127.519165ZM565.5125 130.70667L565.5125 119.22229L566.79376 119.22229L566.79376 120.300415Q567.2469 119.65979 567.8094 119.34729Q568.3875 119.03479 569.2 119.03479Q570.2625 119.03479 571.075 119.581665Q571.8875 120.12854 572.29376 121.12854Q572.71564 122.112915 572.71564 123.300415Q572.71564 124.581665 572.2469 125.59729Q571.79376 126.612915 570.91876 127.15979Q570.0594 127.706665 569.09064 127.706665Q568.3875 127.706665 567.825 127.40979Q567.27814 127.112915 566.91876 126.65979L566.91876 130.70667L565.5125 130.70667ZM566.77814 123.40979Q566.77814 125.019165 567.41876 125.78479Q568.075 126.550415 568.9969 126.550415Q569.9344 126.550415 570.60626 125.75354Q571.27814 124.956665 571.27814 123.300415Q571.27814 121.706665 570.6219 120.925415Q569.96564 120.12854 569.0594 120.12854Q568.16876 120.12854 567.46564 120.97229Q566.77814 121.81604 566.77814 123.40979ZM573.95 125.03479L575.34064 124.81604Q575.45 125.65979 575.98126 126.112915Q576.52814 126.550415 577.48126 126.550415Q578.45 126.550415 578.91876 126.15979Q579.3875 125.75354 579.3875 125.22229Q579.3875 124.75354 578.98126 124.47229Q578.6844 124.28479 577.54376 124.00354Q575.9969 123.612915 575.3875 123.331665Q574.79376 123.03479 574.48126 122.53479Q574.1844 122.03479 574.1844 121.425415Q574.1844 120.862915 574.4344 120.394165Q574.6844 119.925415 575.1219 119.612915Q575.45 119.362915 576.0125 119.206665Q576.59064 119.03479 577.23126 119.03479Q578.21564 119.03479 578.95 119.31604Q579.6844 119.59729 580.02814 120.081665Q580.3875 120.550415 580.52814 121.362915L579.15314 121.550415Q579.0594 120.90979 578.60626 120.550415Q578.15314 120.19104 577.34064 120.19104Q576.3719 120.19104 575.95 120.519165Q575.54376 120.831665 575.54376 121.25354Q575.54376 121.53479 575.71564 121.75354Q575.8875 121.97229 576.2469 122.12854Q576.46564 122.206665 577.4969 122.487915Q578.98126 122.87854 579.575 123.144165Q580.16876 123.394165 580.4969 123.87854Q580.84064 124.362915 580.84064 125.081665Q580.84064 125.78479 580.41876 126.40979Q580.0125 127.019165 579.23126 127.362915Q578.46564 127.706665 577.4969 127.706665Q575.8719 127.706665 575.02814 127.03479Q574.1844 126.362915 573.95 125.03479Z" fill-rule="nonzero"/><path fill="#9e9e9e" d="M537.1219 146.48792L538.52814 146.30042Q538.77814 147.50354 539.35626 148.03479Q539.9344 148.55042 540.77814 148.55042Q541.7625 148.55042 542.45 147.86292Q543.1375 147.17542 543.1375 146.15979Q543.1375 145.19104 542.4969 144.56604Q541.8719 143.94104 540.8875 143.94104Q540.4969 143.94104 539.90314 144.09729L540.0594 142.86292Q540.2 142.87854 540.27814 142.87854Q541.1844 142.87854 541.90314 142.40979Q542.6219 141.94104 542.6219 140.95667Q542.6219 140.19104 542.09064 139.69104Q541.575 139.17542 540.7469 139.17542Q539.91876 139.17542 539.3719 139.69104Q538.825 140.20667 538.66876 141.23792L537.2625 140.98792Q537.52814 139.56604 538.4344 138.80042Q539.35626 138.01917 540.71564 138.01917Q541.65314 138.01917 542.4344 138.42542Q543.23126 138.81604 543.6375 139.51917Q544.0594 140.20667 544.0594 140.98792Q544.0594 141.73792 543.65314 142.34729Q543.2625 142.95667 542.48126 143.31604Q543.4969 143.55042 544.0594 144.28479Q544.6219 145.01917 544.6219 146.12854Q544.6219 147.62854 543.52814 148.67542Q542.4344 149.72229 540.7625 149.72229Q539.2625 149.72229 538.2625 148.83167Q537.2625 147.92542 537.1219 146.48792ZM546.1219 146.48792L547.52814 146.30042Q547.77814 147.50354 548.35626 148.03479Q548.9344 148.55042 549.77814 148.55042Q550.7625 148.55042 551.45 147.86292Q552.1375 147.17542 552.1375 146.15979Q552.1375 145.19104 551.4969 144.56604Q550.8719 143.94104 549.8875 143.94104Q549.4969 143.94104 548.90314 144.09729L549.0594 142.86292Q549.2 142.87854 549.27814 142.87854Q550.1844 142.87854 550.90314 142.40979Q551.6219 141.94104 551.6219 140.95667Q551.6219 140.19104 551.09064 139.69104Q550.575 139.17542 549.7469 139.17542Q548.91876 139.17542 548.3719 139.69104Q547.825 140.20667 547.66876 141.23792L546.2625 140.98792Q546.52814 139.56604 547.4344 138.80042Q548.35626 138.01917 549.71564 138.01917Q550.65314 138.01917 551.4344 138.42542Q552.23126 138.81604 552.6375 139.51917Q553.0594 140.20667 553.0594 140.98792Q553.0594 141.73792 552.65314 142.34729Q552.2625 142.95667 551.48126 143.31604Q552.4969 143.55042 553.0594 144.28479Q553.6219 145.01917 553.6219 146.12854Q553.6219 147.62854 552.52814 148.67542Q551.4344 149.72229 549.7625 149.72229Q548.2625 149.72229 547.2625 148.83167Q546.2625 147.92542 546.1219 146.48792ZM555.90314 149.51917L555.90314 147.90979L557.5125 147.90979L557.5125 149.51917L555.90314 149.51917ZM559.1219 146.48792L560.52814 146.30042Q560.77814 147.50354 561.35626 148.03479Q561.9344 148.55042 562.77814 148.55042Q563.7625 148.55042 564.45 147.86292Q565.1375 147.17542 565.1375 146.15979Q565.1375 145.19104 564.4969 144.56604Q563.8719 143.94104 562.8875 143.94104Q562.4969 143.94104 561.90314 144.09729L562.0594 142.86292Q562.2 142.87854 562.27814 142.87854Q563.1844 142.87854 563.90314 142.40979Q564.6219 141.94104 564.6219 140.95667Q564.6219 140.19104 564.09064 139.69104Q563.575 139.17542 562.7469 139.17542Q561.91876 139.17542 561.3719 139.69104Q560.825 140.20667 560.66876 141.23792L559.2625 140.98792Q559.52814 139.56604 560.4344 138.80042Q561.35626 138.01917 562.71564 138.01917Q563.65314 138.01917 564.4344 138.42542Q565.23126 138.81604 565.6375 139.51917Q566.0594 140.20667 566.0594 140.98792Q566.0594 141.73792 565.65314 142.34729Q565.2625 142.95667 564.48126 143.31604Q565.4969 143.55042 566.0594 144.28479Q566.6219 145.01917 566.6219 146.12854Q566.6219 147.62854 565.52814 148.67542Q564.4344 149.72229 562.7625 149.72229Q561.2625 149.72229 560.2625 148.83167Q559.2625 147.92542 559.1219 146.48792ZM568.3875 140.81604Q568.3875 139.58167 568.9969 138.72229Q569.6219 137.86292 570.79376 137.86292Q571.8719 137.86292 572.575 138.64417Q573.27814 139.40979 573.27814 140.89417Q573.27814 142.34729 572.5594 143.14417Q571.85626 143.92542 570.8094 143.92542Q569.7625 143.92542 569.075 143.15979Q568.3875 142.37854 568.3875 140.81604ZM570.825 138.83167Q570.3094 138.83167 569.95 139.28479Q569.60626 139.73792 569.60626 140.95667Q569.60626 142.05042 569.95 142.50354Q570.3094 142.95667 570.825 142.95667Q571.35626 142.95667 571.7 142.50354Q572.0594 142.05042 572.0594 140.84729Q572.0594 139.73792 571.7 139.28479Q571.35626 138.83167 570.825 138.83167ZM570.84064 149.94104L577.10626 137.86292L578.2469 137.86292L571.9969 149.94104L570.84064 149.94104ZM575.79376 146.83167Q575.79376 145.59729 576.40314 144.73792Q577.02814 143.87854 578.2 143.87854Q579.27814 143.87854 579.98126 144.65979Q580.7 145.42542 580.7 146.90979Q580.7 148.36292 579.98126 149.15979Q579.2625 149.94104 578.21564 149.94104Q577.16876 149.94104 576.48126 149.15979Q575.79376 148.37854 575.79376 146.83167ZM578.2469 144.84729Q577.71564 144.84729 577.35626 145.30042Q577.0125 145.75354 577.0125 146.97229Q577.0125 148.06604 577.35626 148.51917Q577.71564 148.97229 578.23126 148.97229Q578.77814 148.97229 579.1219 148.51917Q579.46564 148.06604 579.46564 146.86292Q579.46564 145.75354 579.10626 145.30042Q578.7625 144.84729 578.2469 144.84729Z" fill-rule="nonzero"/><path stroke="#757575" stroke-width="1.0" stroke-linecap="butt" d="M581.45 133.01917L454.76666 133.01917L422.39392 133.01917" fill-rule="nonzero"/><path fill="#9e9e9e" d="M424.39392 133.01917C424.39392 131.9146 423.4985 131.01917 422.39392 131.01917C421.28937 131.01917 420.39392 131.9146 420.39392 133.01917C420.39392 134.12373 421.28937 135.01917 422.39392 135.01917C423.4985 135.01917 424.39392 134.12373 424.39392 133.01917" fill-rule="nonzero"/><path fill="#efefef" d="M481.41876 320.57727L485.825 309.12415L487.46564 309.12415L492.15314 320.57727L490.41876 320.57727L489.09064 317.10852L484.29376 317.10852L483.04376 320.57727L481.41876 320.57727ZM484.73126 315.87415L488.6219 315.87415L487.41876 312.70227Q486.8719 311.24915 486.60626 310.32727Q486.3875 311.42102 485.9969 312.51477L484.73126 315.87415ZM493.4969 320.57727L493.4969 312.2804L494.7625 312.2804L494.7625 313.5304Q495.2469 312.6554 495.65314 312.37415Q496.0594 312.0929 496.5594 312.0929Q497.2625 312.0929 497.9969 312.54602L497.5125 313.8429Q496.9969 313.54602 496.48126 313.54602Q496.02814 313.54602 495.65314 313.82727Q495.29376 314.0929 495.1375 314.5929Q494.90314 315.3429 494.90314 316.23352L494.90314 320.57727L493.4969 320.57727ZM503.91876 317.5304L505.3094 317.7179Q505.075 319.13977 504.1375 319.95227Q503.21564 320.76477 501.85626 320.76477Q500.15314 320.76477 499.10626 319.6554Q498.075 318.5304 498.075 316.45227Q498.075 315.10852 498.5125 314.10852Q498.96564 313.0929 499.8719 312.5929Q500.79376 312.0929 501.85626 312.0929Q503.21564 312.0929 504.075 312.7804Q504.9344 313.45227 505.16876 314.7179L503.8094 314.92102Q503.60626 314.0929 503.10626 313.67102Q502.6219 313.24915 501.91876 313.24915Q500.85626 313.24915 500.1844 314.01477Q499.52814 314.76477 499.52814 316.42102Q499.52814 318.0929 500.16876 318.85852Q500.8094 319.60852 501.84064 319.60852Q502.66876 319.60852 503.21564 319.10852Q503.77814 318.5929 503.91876 317.5304ZM506.5125 320.57727L506.5125 309.12415L507.91876 309.12415L507.91876 313.23352Q508.90314 312.0929 510.40314 312.0929Q511.325 312.0929 511.9969 312.45227Q512.6844 312.81165 512.96564 313.45227Q513.2625 314.0929 513.2625 315.31165L513.2625 320.57727L511.85626 320.57727L511.85626 315.31165Q511.85626 314.26477 511.40314 313.7804Q510.95 313.29602 510.10626 313.29602Q509.48126 313.29602 508.9344 313.62415Q508.3875 313.95227 508.15314 314.51477Q507.91876 315.06165 507.91876 316.0304L507.91876 320.57727L506.5125 320.57727ZM515.5125 310.73352L515.5125 309.12415L516.91876 309.12415L516.91876 310.73352L515.5125 310.73352ZM515.5125 320.57727L515.5125 312.2804L516.91876 312.2804L516.91876 320.57727L515.5125 320.57727ZM522.575 319.31165L522.77814 320.56165Q522.1844 320.68665 521.71564 320.68665Q520.95 320.68665 520.52814 320.45227Q520.10626 320.20227 519.9344 319.81165Q519.7625 319.4054 519.7625 318.13977L519.7625 313.37415L518.73126 313.37415L518.73126 312.2804L519.7625 312.2804L519.7625 310.2179L521.16876 309.37415L521.16876 312.2804L522.575 312.2804L522.575 313.37415L521.16876 313.37415L521.16876 318.2179Q521.16876 318.82727 521.23126 318.99915Q521.3094 319.17102 521.48126 319.2804Q521.65314 319.37415 521.96564 319.37415Q522.2 319.37415 522.575 319.31165ZM529.1844 317.9054L530.6375 318.07727Q530.29376 319.35852 529.35626 320.06165Q528.4344 320.76477 526.9969 320.76477Q525.16876 320.76477 524.10626 319.63977Q523.04376 318.51477 523.04376 316.49915Q523.04376 314.4054 524.1219 313.24915Q525.2 312.0929 526.91876 312.0929Q528.575 312.0929 529.6219 313.23352Q530.6844 314.35852 530.6844 316.4054Q530.6844 316.5304 530.6844 316.7804L524.4969 316.7804Q524.575 318.1554 525.2625 318.88977Q525.96564 319.60852 526.9969 319.60852Q527.77814 319.60852 528.325 319.20227Q528.8719 318.79602 529.1844 317.9054ZM524.575 315.62415L529.2 315.62415Q529.10626 314.57727 528.66876 314.06165Q527.9969 313.24915 526.9344 313.24915Q525.96564 313.24915 525.29376 313.9054Q524.6375 314.54602 524.575 315.62415ZM537.91876 317.5304L539.3094 317.7179Q539.075 319.13977 538.1375 319.95227Q537.21564 320.76477 535.85626 320.76477Q534.15314 320.76477 533.10626 319.6554Q532.075 318.5304 532.075 316.45227Q532.075 315.10852 532.5125 314.10852Q532.96564 313.0929 533.8719 312.5929Q534.79376 312.0929 535.85626 312.0929Q537.21564 312.0929 538.075 312.7804Q538.9344 313.45227 539.16876 314.7179L537.8094 314.92102Q537.60626 314.0929 537.10626 313.67102Q536.6219 313.24915 535.91876 313.24915Q534.85626 313.24915 534.1844 314.01477Q533.52814 314.76477 533.52814 316.42102Q533.52814 318.0929 534.16876 318.85852Q534.8094 319.60852 535.84064 319.60852Q536.66876 319.60852 537.21564 319.10852Q537.77814 318.5929 537.91876 317.5304ZM543.575 319.31165L543.77814 320.56165Q543.1844 320.68665 542.71564 320.68665Q541.95 320.68665 541.52814 320.45227Q541.10626 320.20227 540.9344 319.81165Q540.7625 319.4054 540.7625 318.13977L540.7625 313.37415L539.73126 313.37415L539.73126 312.2804L540.7625 312.2804L540.7625 310.2179L542.16876 309.37415L542.16876 312.2804L543.575 312.2804L543.575 313.37415L542.16876 313.37415L542.16876 318.2179Q542.16876 318.82727 542.23126 318.99915Q542.3094 319.17102 542.48126 319.2804Q542.65314 319.37415 542.96564 319.37415Q543.2 319.37415 543.575 319.31165ZM549.95 320.57727L549.95 319.35852Q548.98126 320.76477 547.3094 320.76477Q546.575 320.76477 545.9344 320.48352Q545.3094 320.20227 544.9969 319.7804Q544.6844 319.3429 544.5594 318.73352Q544.48126 318.31165 544.48126 317.42102L544.48126 312.2804L545.8875 312.2804L545.8875 316.87415Q545.8875 317.98352 545.96564 318.35852Q546.10626 318.92102 546.52814 319.23352Q546.96564 319.54602 547.59064 319.54602Q548.23126 319.54602 548.77814 319.23352Q549.34064 318.9054 549.5594 318.3429Q549.79376 317.7804 549.79376 316.7179L549.79376 312.2804L551.2 312.2804L551.2 320.57727L549.95 320.57727ZM553.4969 320.57727L553.4969 312.2804L554.7625 312.2804L554.7625 313.5304Q555.2469 312.6554 555.65314 312.37415Q556.0594 312.0929 556.5594 312.0929Q557.2625 312.0929 557.9969 312.54602L557.5125 313.8429Q556.9969 313.54602 556.48126 313.54602Q556.02814 313.54602 555.65314 313.82727Q555.29376 314.0929 555.1375 314.5929Q554.90314 315.3429 554.90314 316.23352L554.90314 320.57727L553.4969 320.57727ZM564.1844 317.9054L565.6375 318.07727Q565.29376 319.35852 564.35626 320.06165Q563.4344 320.76477 561.9969 320.76477Q560.16876 320.76477 559.10626 319.63977Q558.04376 318.51477 558.04376 316.49915Q558.04376 314.4054 559.1219 313.24915Q560.2 312.0929 561.91876 312.0929Q563.575 312.0929 564.6219 313.23352Q565.6844 314.35852 565.6844 316.4054Q565.6844 316.5304 565.6844 316.7804L559.4969 316.7804Q559.575 318.1554 560.2625 318.88977Q560.96564 319.60852 561.9969 319.60852Q562.77814 319.60852 563.325 319.20227Q563.8719 318.79602 564.1844 317.9054ZM559.575 315.62415L564.2 315.62415Q564.10626 314.57727 563.66876 314.06165Q562.9969 313.24915 561.9344 313.24915Q560.96564 313.24915 560.29376 313.9054Q559.6375 314.54602 559.575 315.62415ZM578.0594 319.2179Q577.35626 319.99915 576.52814 320.38977Q575.71564 320.7804 574.7625 320.7804Q573.0125 320.7804 571.98126 319.57727Q571.1375 318.60852 571.1375 317.42102Q571.1375 316.35852 571.825 315.49915Q572.5125 314.63977 573.8719 313.99915Q573.09064 313.10852 572.825 312.56165Q572.575 311.99915 572.575 311.48352Q572.575 310.45227 573.3875 309.68665Q574.2 308.92102 575.41876 308.92102Q576.59064 308.92102 577.34064 309.63977Q578.09064 310.35852 578.09064 311.37415Q578.09064 312.99915 575.91876 314.1554L577.98126 316.7804Q578.325 316.0929 578.52814 315.18665L579.98126 315.49915Q579.60626 316.99915 578.96564 317.9679Q579.7625 319.01477 580.7625 319.7179L579.8094 320.8429Q578.96564 320.29602 578.0594 319.2179ZM575.2 313.24915Q576.10626 312.7179 576.3719 312.31165Q576.65314 311.9054 576.65314 311.4054Q576.65314 310.82727 576.27814 310.45227Q575.90314 310.07727 575.35626 310.07727Q574.77814 310.07727 574.40314 310.45227Q574.02814 310.81165 574.02814 311.3429Q574.02814 311.60852 574.15314 311.9054Q574.29376 312.20227 574.575 312.5304L575.2 313.24915ZM577.16876 318.10852L574.59064 314.92102Q573.45 315.5929 573.04376 316.18665Q572.65314 316.76477 572.65314 317.32727Q572.65314 318.0304 573.2 318.7804Q573.7625 319.5304 574.77814 319.5304Q575.41876 319.5304 576.09064 319.13977Q576.7625 318.73352 577.16876 318.10852Z" fill-rule="nonzero"/><path fill="#9e9e9e" d="M542.41876 342.57727L541.0125 342.57727L541.0125 333.60852Q540.4969 334.0929 539.66876 334.57727Q538.85626 335.06165 538.2 335.31165L538.2 333.95227Q539.3719 333.38977 540.2469 332.60852Q541.1375 331.81165 541.5125 331.07727L542.41876 331.07727L542.41876 342.57727ZM553.41876 333.92102L552.0125 334.0304Q551.825 333.20227 551.48126 332.82727Q550.91876 332.23352 550.075 332.23352Q549.40314 332.23352 548.90314 332.60852Q548.23126 333.0929 547.84064 334.0304Q547.46564 334.95227 547.45 336.67102Q547.96564 335.88977 548.7 335.51477Q549.4344 335.13977 550.23126 335.13977Q551.6375 335.13977 552.6219 336.18665Q553.6219 337.2179 553.6219 338.85852Q553.6219 339.93665 553.15314 340.85852Q552.6844 341.7804 551.8719 342.2804Q551.0594 342.7804 550.02814 342.7804Q548.27814 342.7804 547.16876 341.48352Q546.0594 340.18665 546.0594 337.2179Q546.0594 333.88977 547.27814 332.38977Q548.35626 331.07727 550.16876 331.07727Q551.5125 331.07727 552.3719 331.8429Q553.2469 332.5929 553.41876 333.92102ZM547.66876 338.85852Q547.66876 339.5929 547.98126 340.26477Q548.29376 340.92102 548.84064 341.26477Q549.40314 341.60852 550.0125 341.60852Q550.90314 341.60852 551.54376 340.88977Q552.1844 340.17102 552.1844 338.93665Q552.1844 337.74915 551.54376 337.07727Q550.91876 336.38977 549.95 336.38977Q548.9969 336.38977 548.325 337.07727Q547.66876 337.74915 547.66876 338.85852ZM555.90314 342.57727L555.90314 340.9679L557.5125 340.9679L557.5125 342.57727L555.90314 342.57727ZM559.21564 332.62415L559.21564 331.26477L566.6219 331.26477L566.6219 332.35852Q565.52814 333.5304 564.45 335.4679Q563.3875 337.38977 562.79376 339.42102Q562.3719 340.85852 562.2625 342.57727L560.8094 342.57727Q560.84064 341.2179 561.34064 339.31165Q561.85626 337.38977 562.79376 335.62415Q563.7469 333.8429 564.825 332.62415L559.21564 332.62415ZM568.3875 333.87415Q568.3875 332.63977 568.9969 331.7804Q569.6219 330.92102 570.79376 330.92102Q571.8719 330.92102 572.575 331.70227Q573.27814 332.4679 573.27814 333.95227Q573.27814 335.4054 572.5594 336.20227Q571.85626 336.98352 570.8094 336.98352Q569.7625 336.98352 569.075 336.2179Q568.3875 335.43665 568.3875 333.87415ZM570.825 331.88977Q570.3094 331.88977 569.95 332.3429Q569.60626 332.79602 569.60626 334.01477Q569.60626 335.10852 569.95 335.56165Q570.3094 336.01477 570.825 336.01477Q571.35626 336.01477 571.7 335.56165Q572.0594 335.10852 572.0594 333.9054Q572.0594 332.79602 571.7 332.3429Q571.35626 331.88977 570.825 331.88977ZM570.84064 342.99915L577.10626 330.92102L578.2469 330.92102L571.9969 342.99915L570.84064 342.99915ZM575.79376 339.88977Q575.79376 338.6554 576.40314 337.79602Q577.02814 336.93665 578.2 336.93665Q579.27814 336.93665 579.98126 337.7179Q580.7 338.48352 580.7 339.9679Q580.7 341.42102 579.98126 342.2179Q579.2625 342.99915 578.21564 342.99915Q577.16876 342.99915 576.48126 342.2179Q575.79376 341.43665 575.79376 339.88977ZM578.2469 337.9054Q577.71564 337.9054 577.35626 338.35852Q577.0125 338.81165 577.0125 340.0304Q577.0125 341.12415 577.35626 341.57727Q577.71564 342.0304 578.23126 342.0304Q578.77814 342.0304 579.1219 341.57727Q579.46564 341.12415 579.46564 339.92102Q579.46564 338.81165 579.10626 338.35852Q578.7625 337.9054 578.2469 337.9054Z" fill-rule="nonzero"/><path stroke="#757575" stroke-width="1.0" stroke-linecap="butt" d="M581.45 326.07727L454.76666 326.07727L370.66415 326.07727" fill-rule="nonzero"/><path fill="#9e9e9e" d="M372.66415 326.07727C372.66415 324.9727 371.76874 324.07727 370.66415 324.07727C369.5596 324.07727 368.66415 324.9727 368.66415 326.07727C368.66415 327.18182 369.5596 328.07727 370.66415 328.07727C371.76874 328.07727 372.66415 327.18182 372.66415 326.07727" fill-rule="nonzero"/><path fill="#f3f3f3" d="M271.26562 32.534374L273.15625 33.003124Q272.5625 35.346874 271.01562 36.58125Q269.46875 37.8 267.21875 37.8Q264.90625 37.8 263.45312 36.8625Q262.01562 35.909374 261.25 34.128124Q260.5 32.33125 260.5 30.284374Q260.5 28.05 261.34375 26.39375Q262.20312 24.721874 263.78125 23.8625Q265.35938 22.9875 267.25 22.9875Q269.40625 22.9875 270.85938 24.08125Q272.32812 25.175 272.90625 27.159374L271.04688 27.596874Q270.54688 26.034374 269.59375 25.33125Q268.65625 24.6125 267.21875 24.6125Q265.5625 24.6125 264.45312 25.409374Q263.34375 26.190624 262.89062 27.534374Q262.45312 28.8625 262.45312 30.26875Q262.45312 32.096874 262.98438 33.471874Q263.51562 34.83125 264.64062 35.503124Q265.76562 36.175 267.0625 36.175Q268.65625 36.175 269.76562 35.253124Q270.875 34.33125 271.26562 32.534374ZM281.59375 36.26875Q280.60938 37.096874 279.70312 37.440624Q278.79688 37.784374 277.76562 37.784374Q276.0625 37.784374 275.14062 36.95625Q274.21875 36.1125 274.21875 34.815624Q274.21875 34.05 274.5625 33.425Q274.92188 32.8 275.48438 32.425Q276.04688 32.034374 276.75 31.83125Q277.26562 31.70625 278.3125 31.565624Q280.4375 31.315624 281.4375 30.971874Q281.45312 30.6125 281.45312 30.503124Q281.45312 29.440624 280.95312 28.9875Q280.28125 28.39375 278.95312 28.39375Q277.70312 28.39375 277.10938 28.83125Q276.53125 29.26875 276.25 30.378124L274.53125 30.14375Q274.76562 29.034374 275.29688 28.3625Q275.82812 27.675 276.84375 27.315624Q277.85938 26.940624 279.20312 26.940624Q280.53125 26.940624 281.35938 27.253124Q282.1875 27.565624 282.57812 28.05Q282.96875 28.51875 283.125 29.2375Q283.21875 29.690624 283.21875 30.8625L283.21875 33.20625Q283.21875 35.659374 283.32812 36.315624Q283.4375 36.95625 283.78125 37.55L281.9375 37.55Q281.67188 37.003124 281.59375 36.26875ZM281.4375 32.346874Q280.48438 32.7375 278.5625 33.003124Q277.48438 33.159374 277.03125 33.3625Q276.59375 33.55 276.34375 33.925Q276.09375 34.3 276.09375 34.76875Q276.09375 35.471874 276.625 35.940624Q277.15625 36.409374 278.1875 36.409374Q279.20312 36.409374 279.98438 35.971874Q280.78125 35.51875 281.15625 34.753124Q281.4375 34.14375 281.4375 32.9875L281.4375 32.346874ZM289.65625 35.971874L289.90625 37.534374Q289.17188 37.690624 288.57812 37.690624Q287.625 37.690624 287.09375 37.39375Q286.57812 37.08125 286.35938 36.596874Q286.14062 36.096874 286.14062 34.51875L286.14062 28.55L284.85938 28.55L284.85938 27.175L286.14062 27.175L286.14062 24.6125L287.89062 23.55L287.89062 27.175L289.65625 27.175L289.65625 28.55L287.89062 28.55L287.89062 34.6125Q287.89062 35.3625 287.98438 35.58125Q288.07812 35.784374 288.28125 35.925Q288.5 36.05 288.89062 36.05Q289.17188 36.05 289.65625 35.971874ZM298.92188 34.20625L300.73438 34.440624Q300.3125 36.01875 299.14062 36.909374Q297.98438 37.784374 296.17188 37.784374Q293.90625 37.784374 292.5625 36.39375Q291.23438 34.9875 291.23438 32.45625Q291.23438 29.83125 292.57812 28.39375Q293.92188 26.940624 296.07812 26.940624Q298.15625 26.940624 299.46875 28.3625Q300.79688 29.76875 300.79688 32.346874Q300.79688 32.503124 300.78125 32.815624L293.04688 32.815624Q293.14062 34.51875 294.01562 35.425Q294.89062 36.33125 296.1875 36.33125Q297.15625 36.33125 297.82812 35.83125Q298.51562 35.315624 298.92188 34.20625ZM293.14062 31.3625L298.9375 31.3625Q298.82812 30.065624 298.28125 29.409374Q297.4375 28.39375 296.09375 28.39375Q294.89062 28.39375 294.0625 29.20625Q293.23438 30.003124 293.14062 31.3625ZM302.5 38.409374L304.20312 38.659374Q304.3125 39.45625 304.79688 39.815624Q305.45312 40.3 306.59375 40.3Q307.8125 40.3 308.46875 39.815624Q309.14062 39.33125 309.375 38.45625Q309.51562 37.909374 309.5 36.190624Q308.34375 37.55 306.625 37.55Q304.48438 37.55 303.3125 36.003124Q302.14062 34.45625 302.14062 32.3Q302.14062 30.815624 302.67188 29.565624Q303.21875 28.315624 304.23438 27.628124Q305.26562 26.940624 306.64062 26.940624Q308.46875 26.940624 309.67188 28.425L309.67188 27.175L311.28125 27.175L311.28125 36.14375Q311.28125 38.565624 310.78125 39.565624Q310.29688 40.58125 309.21875 41.159374Q308.15625 41.753124 306.59375 41.753124Q304.75 41.753124 303.59375 40.925Q302.45312 40.096874 302.5 38.409374ZM303.95312 32.175Q303.95312 34.221874 304.76562 35.159374Q305.57812 36.096874 306.79688 36.096874Q308.0 36.096874 308.8125 35.159374Q309.64062 34.221874 309.64062 32.2375Q309.64062 30.33125 308.79688 29.3625Q307.95312 28.39375 306.76562 28.39375Q305.59375 28.39375 304.76562 29.346874Q303.95312 30.3 303.95312 32.175ZM313.17188 32.3625Q313.17188 29.4875 314.76562 28.096874Q316.10938 26.940624 318.03125 26.940624Q320.17188 26.940624 321.51562 28.346874Q322.875 29.753124 322.875 32.221874Q322.875 34.221874 322.28125 35.378124Q321.6875 36.51875 320.53125 37.159374Q319.39062 37.784374 318.03125 37.784374Q315.84375 37.784374 314.5 36.39375Q313.17188 34.9875 313.17188 32.3625ZM314.96875 32.3625Q314.96875 34.3625 315.82812 35.346874Q316.70312 36.33125 318.03125 36.33125Q319.34375 36.33125 320.20312 35.346874Q321.07812 34.346874 321.07812 32.3Q321.07812 30.378124 320.20312 29.39375Q319.32812 28.39375 318.03125 28.39375Q316.70312 28.39375 315.82812 29.39375Q314.96875 30.378124 314.96875 32.3625ZM324.79688 37.55L324.79688 27.175L326.375 27.175L326.375 28.753124Q326.98438 27.64375 327.5 27.3Q328.01562 26.940624 328.625 26.940624Q329.51562 26.940624 330.4375 27.503124L329.82812 29.14375Q329.1875 28.753124 328.54688 28.753124Q327.96875 28.753124 327.5 29.1125Q327.04688 29.45625 326.84375 30.065624Q326.5625 31.003124 326.5625 32.1125L326.5625 37.55L324.79688 37.55ZM331.73438 41.55L331.54688 39.89375Q332.125 40.05 332.54688 40.05Q333.14062 40.05 333.48438 39.846874Q333.84375 39.659374 334.0625 39.315624Q334.23438 39.05 334.60938 38.003124Q334.65625 37.846874 334.76562 37.565624L330.82812 27.175L332.71875 27.175L334.875 33.190624Q335.29688 34.33125 335.625 35.58125Q335.9375 34.378124 336.34375 33.221874L338.5625 27.175L340.32812 27.175L336.375 37.721874Q335.75 39.440624 335.39062 40.08125Q334.92188 40.95625 334.3125 41.346874Q333.71875 41.753124 332.875 41.753124Q332.35938 41.753124 331.73438 41.55Z" fill-rule="nonzero"/></svg>