<svg version="1.1" viewBox="0.0 0.0 600.0 371.0" fill="none" stroke="none" stroke-linecap="square" stroke-miterlimit="10" width="600" height="371" xmlns:xlink="http://www.w3.org/1999/xlink" xmlns="http://www.w3.org/2000/svg"><path fill="#ffffff" fill-opacity="0.0" d="M0 0L600.0 0L600.0 371.0L0 371.0L0 0Z" fill-rule="nonzero"/><path fill="#f7d750" d="M300.0 54.916668C358.24243 54.916668 411.12814 88.904236 435.3229 141.88342L367.66147 172.78339C355.56406 146.29378 329.12122 129.3 300.0 129.3Z" fill-rule="nonzero"/><path fill="#e5a345" d="M278.8283 56.430897C285.84048 55.4227 292.9157 54.916668 300.0 54.916668L300.0 129.3C296.45786 129.3 292.92023 129.55301 289.41415 130.05711Z" fill-rule="nonzero"/><path fill="#8c4595" d="M258.0876 60.94276C264.88492 58.946888 271.81613 57.439095 278.8283 56.430897L289.41415 130.05711C285.90805 130.56122 282.44244 131.31511 279.0438 132.31305Z" fill-rule="nonzero"/><path fill="#78a94e" d="M202.57855 91.25299C218.69524 77.2878 237.62599 66.95083 258.0876 60.94276L279.0438 132.31305C268.813 135.31708 259.34763 140.48557 251.28928 147.46815Z" fill-rule="nonzero"/><path fill="#2d4d98" d="M152.74756 224.85504C145.54256 174.74312 164.31703 124.40678 202.57855 91.25299L251.28928 147.46815C232.15852 164.04506 222.77127 189.21323 226.37378 214.26918Z" fill-rule="nonzero"/><path fill="#4571b0" d="M238.20009 339.00626C192.14793 317.97495 159.95258 274.96695 152.74756 224.85504L226.37378 214.26918C229.97629 239.32515 246.07397 260.82913 269.10004 271.3448Z" fill-rule="nonzero"/><path fill="#b3ca48" d="M278.8283 350.93576C264.78604 348.9168 251.10474 344.8996 238.20009 339.00626L269.10004 271.3448C275.55237 274.29147 282.393 276.30008 289.41415 277.30954Z" fill-rule="nonzero"/><path fill="#f5ee58" d="M435.3229 141.88342C457.92822 191.38214 451.70425 249.27347 419.09384 292.83588C386.48343 336.3983 332.6906 358.68 278.8283 350.93576L289.41415 277.30954C316.3453 281.18167 343.24173 270.0408 359.54694 248.2596C375.85214 226.4784 378.9641 197.53273 367.66147 172.78339Z" fill-rule="nonzero"/><path fill="#ffffff" d="M341.52512 116.32047L339.947 116.32047L339.947 106.24235Q339.36887 106.78922 338.447 107.3361Q337.52512 107.86735 336.77512 108.1486L336.77512 106.61735Q338.10324 105.99235 339.10324 105.10172Q340.10324 104.2111 340.5095 103.38297L341.52512 103.38297L341.52512 116.32047ZM348.0095 109.3361Q347.02512 108.97672 346.54074 108.30485Q346.072 107.63297 346.072 106.7111Q346.072 105.30485 347.072 104.35172Q348.08762 103.38297 349.77512 103.38297Q351.46262 103.38297 352.47824 104.36735Q353.5095 105.3361 353.5095 106.74235Q353.5095 107.6486 353.04074 108.32047Q352.572 108.97672 351.61887 109.3361Q352.80637 109.72672 353.41574 110.5861Q354.04074 111.44547 354.04074 112.63297Q354.04074 114.28922 352.86887 115.41422Q351.697 116.53922 349.79074 116.53922Q347.8845 116.53922 346.71262 115.41422Q345.55637 114.2736 345.55637 112.5861Q345.55637 111.3361 346.18137 110.49235Q346.822 109.63297 348.0095 109.3361ZM347.68137 106.6486Q347.68137 107.57047 348.27512 108.1486Q348.86887 108.72672 349.80637 108.72672Q350.71262 108.72672 351.29074 108.1486Q351.8845 107.57047 351.8845 106.74235Q351.8845 105.86735 351.27512 105.2736Q350.68137 104.67985 349.79074 104.67985Q348.8845 104.67985 348.27512 105.25797Q347.68137 105.8361 347.68137 106.6486ZM347.18137 112.60172Q347.18137 113.2736 347.49387 113.91422Q347.822 114.53922 348.447 114.8986Q349.08762 115.24235 349.822 115.24235Q350.947 115.24235 351.68137 114.50797Q352.43137 113.7736 352.43137 112.6486Q352.43137 111.50797 351.66574 110.7736Q350.90012 110.0236 349.7595 110.0236Q348.65012 110.0236 347.91574 110.75797Q347.18137 111.49235 347.18137 112.60172ZM356.46262 116.32047L356.46262 114.5236L358.2595 114.5236L358.2595 116.32047L356.46262 116.32047ZM368.8845 114.80485L368.8845 116.32047L360.36887 116.32047Q360.35324 115.74235 360.55637 115.22672Q360.8845 114.35172 361.58762 113.50797Q362.30637 112.66422 363.66574 111.55485Q365.7595 109.8361 366.49387 108.8361Q367.24387 107.82047 367.24387 106.92985Q367.24387 105.97672 366.572 105.3361Q365.90012 104.69547 364.822 104.69547Q363.66574 104.69547 362.97824 105.38297Q362.30637 106.07047 362.29074 107.2736L360.66574 107.10172Q360.83762 105.28922 361.91574 104.3361Q363.0095 103.38297 364.85324 103.38297Q366.697 103.38297 367.77512 104.41422Q368.86887 105.44547 368.86887 106.9611Q368.86887 107.72672 368.54074 108.47672Q368.22824 109.22672 367.49387 110.05485Q366.7595 110.88297 365.05637 112.32047Q363.6345 113.5236 363.22824 113.94547Q362.822 114.36735 362.572 114.80485L368.8845 114.80485ZM370.86887 106.5236Q370.86887 105.1486 371.55637 104.17985Q372.2595 103.2111 373.572 103.2111Q374.79074 103.2111 375.58762 104.0861Q376.3845 104.94547 376.3845 106.63297Q376.3845 108.25797 375.572 109.1486Q374.77512 110.0236 373.58762 110.0236Q372.43137 110.0236 371.65012 109.16422Q370.86887 108.28922 370.86887 106.5236ZM373.61887 104.30485Q373.02512 104.30485 372.6345 104.82047Q372.24387 105.32047 372.24387 106.67985Q372.24387 107.92985 372.6345 108.42985Q373.04074 108.92985 373.61887 108.92985Q374.21262 108.92985 374.60324 108.42985Q374.99387 107.91422 374.99387 106.57047Q374.99387 105.32047 374.60324 104.82047Q374.21262 104.30485 373.61887 104.30485ZM373.6345 116.78922L380.68137 103.2111L381.96262 103.2111L374.93137 116.78922L373.6345 116.78922ZM379.197 113.28922Q379.197 111.91422 379.8845 110.94547Q380.58762 109.97672 381.91574 109.97672Q383.1345 109.97672 383.91574 110.85172Q384.71262 111.7111 384.71262 113.3986Q384.71262 115.0236 383.91574 115.91422Q383.11887 116.78922 381.93137 116.78922Q380.7595 116.78922 379.97824 115.91422Q379.197 115.03922 379.197 113.28922ZM381.96262 111.07047Q381.36887 111.07047 380.97824 111.5861Q380.58762 112.0861 380.58762 113.4611Q380.58762 114.67985 380.97824 115.19547Q381.36887 115.7111 381.947 115.7111Q382.55637 115.7111 382.947 115.19547Q383.33762 114.67985 383.33762 113.3361Q383.33762 112.0861 382.947 111.5861Q382.55637 111.07047 381.96262 111.07047Z" fill-rule="nonzero"/><path fill="#ffffff" d="M364.5704 273.64148L366.16415 273.43835Q366.42978 274.7821 367.08603 275.37585Q367.74228 275.9696 368.67978 275.9696Q369.80478 275.9696 370.5704 275.20398Q371.33603 274.42273 371.33603 273.2821Q371.33603 272.18835 370.61728 271.48523Q369.91415 270.76648 368.8204 270.76648Q368.36728 270.76648 367.6954 270.95398L367.86728 269.56335Q368.02353 269.57898 368.1329 269.57898Q369.1329 269.57898 369.9454 269.04773Q370.7579 268.51648 370.7579 267.42273Q370.7579 266.54773 370.16415 265.98523Q369.5704 265.4071 368.64853 265.4071Q367.72665 265.4071 367.10165 265.98523Q366.49228 266.56335 366.3204 267.73523L364.74228 267.45398Q365.02353 265.86023 366.05478 264.98523Q367.08603 264.11023 368.61728 264.11023Q369.66415 264.11023 370.55478 264.56335Q371.4454 265.01648 371.91415 265.79773Q372.3829 266.57898 372.3829 267.45398Q372.3829 268.29773 371.92978 268.98523Q371.49228 269.6571 370.60165 270.06335Q371.74228 270.32898 372.36728 271.17273Q373.0079 272.00085 373.0079 273.23523Q373.0079 274.92273 371.77353 276.11023Q370.55478 277.2821 368.67978 277.2821Q366.97665 277.2821 365.85165 276.26648Q364.74228 275.25085 364.5704 273.64148ZM379.6329 277.04773L379.6329 273.9696L374.05478 273.9696L374.05478 272.51648L379.92978 264.1571L381.22665 264.1571L381.22665 272.51648L382.96103 272.51648L382.96103 273.9696L381.22665 273.9696L381.22665 277.04773L379.6329 277.04773ZM379.6329 272.51648L379.6329 266.70398L375.60165 272.51648L379.6329 272.51648ZM385.46103 277.04773L385.46103 275.25085L387.2579 275.25085L387.2579 277.04773L385.46103 277.04773ZM395.52353 277.04773L393.9454 277.04773L393.9454 266.9696Q393.36728 267.51648 392.4454 268.06335Q391.52353 268.5946 390.77353 268.87585L390.77353 267.3446Q392.10165 266.7196 393.10165 265.82898Q394.10165 264.93835 394.5079 264.11023L395.52353 264.11023L395.52353 277.04773ZM399.86728 267.25085Q399.86728 265.87585 400.55478 264.9071Q401.2579 263.93835 402.5704 263.93835Q403.78915 263.93835 404.58603 264.81335Q405.3829 265.67273 405.3829 267.36023Q405.3829 268.98523 404.5704 269.87585Q403.77353 270.75085 402.58603 270.75085Q401.42978 270.75085 400.64853 269.89148Q399.86728 269.01648 399.86728 267.25085ZM402.61728 265.0321Q402.02353 265.0321 401.6329 265.54773Q401.24228 266.04773 401.24228 267.4071Q401.24228 268.6571 401.6329 269.1571Q402.03915 269.6571 402.61728 269.6571Q403.21103 269.6571 403.60165 269.1571Q403.99228 268.64148 403.99228 267.29773Q403.99228 266.04773 403.60165 265.54773Q403.21103 265.0321 402.61728 265.0321ZM402.6329 277.51648L409.67978 263.93835L410.96103 263.93835L403.92978 277.51648L402.6329 277.51648ZM408.1954 274.01648Q408.1954 272.64148 408.8829 271.67273Q409.58603 270.70398 410.91415 270.70398Q412.1329 270.70398 412.91415 271.57898Q413.71103 272.43835 413.71103 274.12585Q413.71103 275.75085 412.91415 276.64148Q412.11728 277.51648 410.92978 277.51648Q409.7579 277.51648 408.97665 276.64148Q408.1954 275.76648 408.1954 274.01648ZM410.96103 271.79773Q410.36728 271.79773 409.97665 272.31335Q409.58603 272.81335 409.58603 274.18835Q409.58603 275.4071 409.97665 275.92273Q410.36728 276.43835 410.9454 276.43835Q411.55478 276.43835 411.9454 275.92273Q412.33603 275.4071 412.33603 274.06335Q412.33603 272.81335 411.9454 272.31335Q411.55478 271.79773 410.96103 271.79773Z" fill-rule="nonzero"/><path fill="#ffffff" d="M191.88274 277.04773L190.30461 277.04773L190.30461 266.9696Q189.72649 267.51648 188.80461 268.06335Q187.88274 268.5946 187.13274 268.87585L187.13274 267.3446Q188.46086 266.7196 189.46086 265.82898Q190.46086 264.93835 190.86711 264.11023L191.88274 264.11023L191.88274 277.04773ZM195.92961 273.67273L197.58586 273.5321Q197.77336 274.75085 198.44524 275.36023Q199.11711 275.9696 200.07024 275.9696Q201.21086 275.9696 201.99211 275.11023Q202.78899 274.25085 202.78899 272.81335Q202.78899 271.4696 202.02336 270.68835Q201.27336 269.9071 200.03899 269.9071Q199.27336 269.9071 198.64836 270.25085Q198.03899 270.5946 197.69524 271.1571L196.21086 270.95398L197.46086 264.3446L203.86711 264.3446L203.86711 265.8446L198.72649 265.8446L198.02336 269.31335Q199.19524 268.50085 200.46086 268.50085Q202.14836 268.50085 203.30461 269.67273Q204.47649 270.8446 204.47649 272.67273Q204.47649 274.42273 203.44524 275.70398Q202.21086 277.26648 200.07024 277.26648Q198.30461 277.26648 197.19524 276.2821Q196.08586 275.29773 195.92961 273.67273ZM206.82024 277.04773L206.82024 275.25085L208.61711 275.25085L208.61711 277.04773L206.82024 277.04773ZM211.16399 274.06335L212.67961 273.92273Q212.88274 275.00085 213.41399 275.48523Q213.96086 275.9696 214.82024 275.9696Q215.55461 275.9696 216.10149 275.64148Q216.64836 275.29773 216.99211 274.75085Q217.35149 274.18835 217.58586 273.23523Q217.82024 272.2821 217.82024 271.29773Q217.82024 271.18835 217.82024 270.98523Q217.33586 271.73523 216.50774 272.20398Q215.69524 272.67273 214.74211 272.67273Q213.14836 272.67273 212.03899 271.51648Q210.92961 270.36023 210.92961 268.45398Q210.92961 266.50085 212.08586 265.31335Q213.24211 264.11023 214.97649 264.11023Q216.24211 264.11023 217.27336 264.79773Q218.32024 265.4696 218.85149 266.7196Q219.39836 267.9696 219.39836 270.3446Q219.39836 272.81335 218.85149 274.2821Q218.32024 275.73523 217.25774 276.50085Q216.21086 277.26648 214.78899 277.26648Q213.27336 277.26648 212.30461 276.43835Q211.35149 275.5946 211.16399 274.06335ZM217.64836 268.37585Q217.64836 267.01648 216.91399 266.2196Q216.19524 265.42273 215.17961 265.42273Q214.11711 265.42273 213.33586 266.2821Q212.55461 267.14148 212.55461 268.51648Q212.55461 269.75085 213.28899 270.51648Q214.03899 271.2821 215.13274 271.2821Q216.22649 271.2821 216.92961 270.51648Q217.64836 269.75085 217.64836 268.37585ZM221.22649 267.25085Q221.22649 265.87585 221.91399 264.9071Q222.61711 263.93835 223.92961 263.93835Q225.14836 263.93835 225.94524 264.81335Q226.74211 265.67273 226.74211 267.36023Q226.74211 268.98523 225.92961 269.87585Q225.13274 270.75085 223.94524 270.75085Q222.78899 270.75085 222.00774 269.89148Q221.22649 269.01648 221.22649 267.25085ZM223.97649 265.0321Q223.38274 265.0321 222.99211 265.54773Q222.60149 266.04773 222.60149 267.4071Q222.60149 268.6571 222.99211 269.1571Q223.39836 269.6571 223.97649 269.6571Q224.57024 269.6571 224.96086 269.1571Q225.35149 268.64148 225.35149 267.29773Q225.35149 266.04773 224.96086 265.54773Q224.57024 265.0321 223.97649 265.0321ZM223.99211 277.51648L231.03899 263.93835L232.32024 263.93835L225.28899 277.51648L223.99211 277.51648ZM229.55461 274.01648Q229.55461 272.64148 230.24211 271.67273Q230.94524 270.70398 232.27336 270.70398Q233.49211 270.70398 234.27336 271.57898Q235.07024 272.43835 235.07024 274.12585Q235.07024 275.75085 234.27336 276.64148Q233.47649 277.51648 232.28899 277.51648Q231.11711 277.51648 230.33586 276.64148Q229.55461 275.76648 229.55461 274.01648ZM232.32024 271.79773Q231.72649 271.79773 231.33586 272.31335Q230.94524 272.81335 230.94524 274.18835Q230.94524 275.4071 231.33586 275.92273Q231.72649 276.43835 232.30461 276.43835Q232.91399 276.43835 233.30461 275.92273Q233.69524 275.4071 233.69524 274.06335Q233.69524 272.81335 233.30461 272.31335Q232.91399 271.79773 232.32024 271.79773Z" fill-rule="nonzero"/><path fill="#ffffff" d="M176.66296 171.19186L175.08484 171.19186L175.08484 161.11374Q174.50671 161.66061 173.58484 162.20749Q172.66296 162.73874 171.91296 163.01999L171.91296 161.48874Q173.24109 160.86374 174.24109 159.97311Q175.24109 159.08249 175.64734 158.25436L176.66296 158.25436L176.66296 171.19186ZM180.70984 167.81686L182.36609 167.67624Q182.55359 168.89499 183.22546 169.50436Q183.89734 170.11374 184.85046 170.11374Q185.99109 170.11374 186.77234 169.25436Q187.56921 168.39499 187.56921 166.95749Q187.56921 165.61374 186.80359 164.83249Q186.05359 164.05124 184.81921 164.05124Q184.05359 164.05124 183.42859 164.39499Q182.81921 164.73874 182.47546 165.30124L180.99109 165.09811L182.24109 158.48874L188.64734 158.48874L188.64734 159.98874L183.50671 159.98874L182.80359 163.45749Q183.97546 162.64499 185.24109 162.64499Q186.92859 162.64499 188.08484 163.81686Q189.25671 164.98874 189.25671 166.81686Q189.25671 168.56686 188.22546 169.84811Q186.99109 171.41061 184.85046 171.41061Q183.08484 171.41061 181.97546 170.42624Q180.86609 169.44186 180.70984 167.81686ZM191.60046 171.19186L191.60046 169.39499L193.39734 169.39499L193.39734 171.19186L191.60046 171.19186ZM195.94421 168.20749L197.45984 168.06686Q197.66296 169.14499 198.19421 169.62936Q198.74109 170.11374 199.60046 170.11374Q200.33484 170.11374 200.88171 169.78561Q201.42859 169.44186 201.77234 168.89499Q202.13171 168.33249 202.36609 167.37936Q202.60046 166.42624 202.60046 165.44186Q202.60046 165.33249 202.60046 165.12936Q202.11609 165.87936 201.28796 166.34811Q200.47546 166.81686 199.52234 166.81686Q197.92859 166.81686 196.81921 165.66061Q195.70984 164.50436 195.70984 162.59811Q195.70984 160.64499 196.86609 159.45749Q198.02234 158.25436 199.75671 158.25436Q201.02234 158.25436 202.05359 158.94186Q203.10046 159.61374 203.63171 160.86374Q204.17859 162.11374 204.17859 164.48874Q204.17859 166.95749 203.63171 168.42624Q203.10046 169.87936 202.03796 170.64499Q200.99109 171.41061 199.56921 171.41061Q198.05359 171.41061 197.08484 170.58249Q196.13171 169.73874 195.94421 168.20749ZM202.42859 162.51999Q202.42859 161.16061 201.69421 160.36374Q200.97546 159.56686 199.95984 159.56686Q198.89734 159.56686 198.11609 160.42624Q197.33484 161.28561 197.33484 162.66061Q197.33484 163.89499 198.06921 164.66061Q198.81921 165.42624 199.91296 165.42624Q201.00671 165.42624 201.70984 164.66061Q202.42859 163.89499 202.42859 162.51999ZM206.00671 161.39499Q206.00671 160.01999 206.69421 159.05124Q207.39734 158.08249 208.70984 158.08249Q209.92859 158.08249 210.72546 158.95749Q211.52234 159.81686 211.52234 161.50436Q211.52234 163.12936 210.70984 164.01999Q209.91296 164.89499 208.72546 164.89499Q207.56921 164.89499 206.78796 164.03561Q206.00671 163.16061 206.00671 161.39499ZM208.75671 159.17624Q208.16296 159.17624 207.77234 159.69186Q207.38171 160.19186 207.38171 161.55124Q207.38171 162.80124 207.77234 163.30124Q208.17859 163.80124 208.75671 163.80124Q209.35046 163.80124 209.74109 163.30124Q210.13171 162.78561 210.13171 161.44186Q210.13171 160.19186 209.74109 159.69186Q209.35046 159.17624 208.75671 159.17624ZM208.77234 171.66061L215.81921 158.08249L217.10046 158.08249L210.06921 171.66061L208.77234 171.66061ZM214.33484 168.16061Q214.33484 166.78561 215.02234 165.81686Q215.72546 164.84811 217.05359 164.84811Q218.27234 164.84811 219.05359 165.72311Q219.85046 166.58249 219.85046 168.26999Q219.85046 169.89499 219.05359 170.78561Q218.25671 171.66061 217.06921 171.66061Q215.89734 171.66061 215.11609 170.78561Q214.33484 169.91061 214.33484 168.16061ZM217.10046 165.94186Q216.50671 165.94186 216.11609 166.45749Q215.72546 166.95749 215.72546 168.33249Q215.72546 169.55124 216.11609 170.06686Q216.50671 170.58249 217.08484 170.58249Q217.69421 170.58249 218.08484 170.06686Q218.47546 169.55124 218.47546 168.20749Q218.47546 166.95749 218.08484 166.45749Q217.69421 165.94186 217.10046 165.94186Z" fill-rule="nonzero"/><path fill="#ffffff" d="M234.98093 102.52193L233.41843 102.64693Q233.19968 101.72505 232.80905 101.30318Q232.16843 100.61568 231.23093 100.61568Q230.48093 100.61568 229.9028 101.03755Q229.1528 101.58443 228.7153 102.6313Q228.29343 103.67818 228.2778 105.61568Q228.85593 104.74068 229.66843 104.3188Q230.49655 103.89693 231.4028 103.89693Q232.99655 103.89693 234.10593 105.0688Q235.2153 106.22505 235.2153 108.0688Q235.2153 109.28755 234.68405 110.33443Q234.16843 111.36568 233.24655 111.92818Q232.3403 112.47505 231.18405 112.47505Q229.19968 112.47505 227.94968 111.02193Q226.69968 109.5688 226.69968 106.22505Q226.69968 102.49068 228.0903 100.78755Q229.29343 99.3188 231.32468 99.3188Q232.85593 99.3188 233.82468 100.17818Q234.79343 101.02193 234.98093 102.52193ZM228.5278 108.08443Q228.5278 108.89693 228.87155 109.64693Q229.2153 110.39693 229.8403 110.78755Q230.4653 111.17818 231.1528 111.17818Q232.1528 111.17818 232.87155 110.36568Q233.5903 109.55318 233.5903 108.16255Q233.5903 106.83443 232.87155 106.0688Q232.16843 105.28755 231.0903 105.28755Q230.01218 105.28755 229.26218 106.0688Q228.5278 106.83443 228.5278 108.08443ZM237.66843 112.2563L237.66843 110.45943L239.4653 110.45943L239.4653 112.2563L237.66843 112.2563ZM244.2153 105.27193Q243.23093 104.91255 242.74655 104.24068Q242.2778 103.5688 242.2778 102.64693Q242.2778 101.24068 243.2778 100.28755Q244.29343 99.3188 245.98093 99.3188Q247.66843 99.3188 248.68405 100.30318Q249.7153 101.27193 249.7153 102.67818Q249.7153 103.58443 249.24655 104.2563Q248.7778 104.91255 247.82468 105.27193Q249.01218 105.66255 249.62155 106.52193Q250.24655 107.3813 250.24655 108.5688Q250.24655 110.22505 249.07468 111.35005Q247.9028 112.47505 245.99655 112.47505Q244.0903 112.47505 242.91843 111.35005Q241.76218 110.20943 241.76218 108.52193Q241.76218 107.27193 242.38718 106.42818Q243.0278 105.5688 244.2153 105.27193ZM243.88718 102.58443Q243.88718 103.5063 244.48093 104.08443Q245.07468 104.66255 246.01218 104.66255Q246.91843 104.66255 247.49655 104.08443Q248.0903 103.5063 248.0903 102.67818Q248.0903 101.80318 247.48093 101.20943Q246.88718 100.61568 245.99655 100.61568Q245.0903 100.61568 244.48093 101.1938Q243.88718 101.77193 243.88718 102.58443ZM243.38718 108.53755Q243.38718 109.20943 243.69968 109.85005Q244.0278 110.47505 244.6528 110.83443Q245.29343 111.17818 246.0278 111.17818Q247.1528 111.17818 247.88718 110.4438Q248.63718 109.70943 248.63718 108.58443Q248.63718 107.4438 247.87155 106.70943Q247.10593 105.95943 245.9653 105.95943Q244.85593 105.95943 244.12155 106.6938Q243.38718 107.42818 243.38718 108.53755ZM252.07468 102.45943Q252.07468 101.08443 252.76218 100.11568Q253.4653 99.14693 254.7778 99.14693Q255.99655 99.14693 256.79343 100.02193Q257.5903 100.8813 257.5903 102.5688Q257.5903 104.1938 256.7778 105.08443Q255.98093 105.95943 254.79343 105.95943Q253.63718 105.95943 252.85593 105.10005Q252.07468 104.22505 252.07468 102.45943ZM254.82468 100.24068Q254.23093 100.24068 253.8403 100.7563Q253.44968 101.2563 253.44968 102.61568Q253.44968 103.86568 253.8403 104.36568Q254.24655 104.86568 254.82468 104.86568Q255.41843 104.86568 255.80905 104.36568Q256.19968 103.85005 256.19968 102.5063Q256.19968 101.2563 255.80905 100.7563Q255.41843 100.24068 254.82468 100.24068ZM254.8403 112.72505L261.88718 99.14693L263.16843 99.14693L256.13718 112.72505L254.8403 112.72505ZM260.4028 109.22505Q260.4028 107.85005 261.0903 106.8813Q261.79343 105.91255 263.12155 105.91255Q264.3403 105.91255 265.12155 106.78755Q265.91843 107.64693 265.91843 109.33443Q265.91843 110.95943 265.12155 111.85005Q264.32468 112.72505 263.13718 112.72505Q261.9653 112.72505 261.18405 111.85005Q260.4028 110.97505 260.4028 109.22505ZM263.16843 107.0063Q262.57468 107.0063 262.18405 107.52193Q261.79343 108.02193 261.79343 109.39693Q261.79343 110.61568 262.18405 111.1313Q262.57468 111.64693 263.1528 111.64693Q263.76218 111.64693 264.1528 111.1313Q264.54343 110.61568 264.54343 109.27193Q264.54343 108.02193 264.1528 107.52193Q263.76218 107.0063 263.16843 107.0063Z" fill-rule="nonzero"/><path stroke="#ffffff" stroke-width="1.0" stroke-linejoin="round" stroke-linecap="round" d="M367.66147 172.78339C355.56406 146.29378 329.12122 129.3 300.0 129.3L300.0 54.916668C358.24243 54.916668 411.12814 88.904236 435.3229 141.88342" fill-rule="nonzero"/><path stroke="#ffffff" stroke-width="1.0" stroke-linejoin="round" stroke-linecap="round" d="M289.41415 277.30954C316.3453 281.18167 343.24173 270.0408 359.54694 248.2596C375.85214 226.4784 378.9641 197.53273 367.66147 172.78339L435.3229 141.88342C457.92822 191.38214 451.70425 249.27347 419.09384 292.83588C386.48343 336.3983 332.6906 358.68 278.8283 350.93576" fill-rule="nonzero"/><path stroke="#ffffff" stroke-width="1.0" stroke-linejoin="round" stroke-linecap="round" d="M269.10004 271.3448C275.55237 274.29147 282.393 276.30008 289.41415 277.30954L278.8283 350.93576C264.78604 348.9168 251.10474 344.8996 238.20009 339.00626" fill-rule="nonzero"/><path stroke="#ffffff" stroke-width="1.0" stroke-linejoin="round" stroke-linecap="round" d="M226.37378 214.26918C229.97629 239.32515 246.07397 260.82913 269.10004 271.3448L238.20009 339.00626C192.14793 317.97495 159.95258 274.96695 152.74756 224.85504" fill-rule="nonzero"/><path stroke="#ffffff" stroke-width="1.0" stroke-linejoin="round" stroke-linecap="round" d="M251.28928 147.46815C232.15852 164.04506 222.77127 189.21323 226.37378 214.26918L152.74756 224.85504C145.54256 174.74312 164.31703 124.40678 202.57855 91.25299" fill-rule="nonzero"/><path stroke="#ffffff" stroke-width="1.0" stroke-linejoin="round" stroke-linecap="round" d="M279.0438 132.31305C268.813 135.31708 259.34763 140.48557 251.28928 147.46815L202.57855 91.25299C218.69524 77.2878 237.62599 66.95083 258.0876 60.94276" fill-rule="nonzero"/><path stroke="#ffffff" stroke-width="1.0" stroke-linejoin="round" stroke-linecap="round" d="M289.41415 130.05711C285.90805 130.56122 282.44244 131.31511 279.0438 132.31305L258.0876 60.94276C264.88492 58.946888 271.81613 57.439095 278.8283 56.430897" fill-rule="nonzero"/><path stroke="#ffffff" stroke-width="1.0" stroke-linejoin="round" stroke-linecap="round" d="M300.0 129.3C296.45786 129.3 292.92023 129.55301 289.41415 130.05711L278.8283 56.430897C285.84048 55.4227 292.9157 54.916668 300.0 54.916668" fill-rule="nonzero"/><path fill="#efefef" d="M22.70625 69.916664L22.70625 59.80729L18.925 59.80729L18.925 58.46354L28.003124 58.46354L28.003124 59.80729L24.221874 59.80729L24.221874 69.916664L22.70625 69.916664ZM35.284374 67.24479L36.7375 67.416664Q36.39375 68.697914 35.45625 69.40104Q34.534374 70.104164 33.096874 70.104164Q31.26875 70.104164 30.20625 68.979164Q29.14375 67.854164 29.14375 65.83854Q29.14375 63.74479 30.221874 62.58854Q31.3 61.43229 33.01875 61.43229Q34.675 61.43229 35.721874 62.572914Q36.784374 63.697914 36.784374 65.74479Q36.784374 65.86979 36.784374 66.11979L30.596874 66.11979Q30.675 67.49479 31.3625 68.229164Q32.065624 68.947914 33.096874 68.947914Q33.878124 68.947914 34.425 68.541664Q34.971874 68.135414 35.284374 67.24479ZM30.675 64.96354L35.3 64.96354Q35.20625 63.916664 34.76875 63.40104Q34.096874 62.58854 33.034374 62.58854Q32.065624 62.58854 31.39375 63.24479Q30.7375 63.885414 30.675 64.96354ZM37.675 69.916664L40.70625 65.604164L37.89375 61.61979L39.659374 61.61979L40.925 63.55729Q41.284374 64.11979 41.503124 64.49479Q41.846874 63.979164 42.14375 63.572914L43.534374 61.61979L45.221874 61.61979L42.346874 65.52604L45.440624 69.916664L43.70625 69.916664L42.003124 67.33854L41.55 66.635414L39.378124 69.916664L37.675 69.916664ZM49.675 68.65104L49.878124 69.90104Q49.284374 70.02604 48.815624 70.02604Q48.05 70.02604 47.628124 69.791664Q47.20625 69.541664 47.034374 69.15104Q46.8625 68.74479 46.8625 67.479164L46.8625 62.71354L45.83125 62.71354L45.83125 61.61979L46.8625 61.61979L46.8625 59.55729L48.26875 58.71354L48.26875 61.61979L49.675 61.61979L49.675 62.71354L48.26875 62.71354L48.26875 67.55729Q48.26875 68.166664 48.33125 68.33854Q48.409374 68.510414 48.58125 68.61979Q48.753124 68.71354 49.065624 68.71354Q49.3 68.71354 49.675 68.65104Z" fill-rule="nonzero"/><path fill="#9e9e9e" d="M26.6125 90.55729L26.6125 91.916664L19.034374 91.916664Q19.01875 91.40104 19.20625 90.93229Q19.4875 90.166664 20.128124 89.416664Q20.76875 88.666664 21.971874 87.68229Q23.83125 86.15104 24.4875 85.260414Q25.14375 84.354164 25.14375 83.55729Q25.14375 82.729164 24.55 82.15104Q23.95625 81.572914 22.9875 81.572914Q21.971874 81.572914 21.3625 82.18229Q20.753124 82.791664 20.753124 83.86979L19.3 83.729164Q19.45625 82.104164 20.425 81.260414Q21.39375 80.416664 23.01875 80.416664Q24.675 80.416664 25.628124 81.33854Q26.596874 82.24479 26.596874 83.58854Q26.596874 84.27604 26.315624 84.947914Q26.034374 85.604164 25.378124 86.33854Q24.721874 87.072914 23.20625 88.354164Q21.940624 89.416664 21.58125 89.80729Q21.221874 90.18229 20.9875 90.55729L26.6125 90.55729ZM29.003124 91.916664L29.003124 90.30729L30.6125 90.30729L30.6125 91.916664L29.003124 91.916664ZM32.221874 88.885414L33.628124 88.697914Q33.878124 89.90104 34.45625 90.43229Q35.034374 90.947914 35.878124 90.947914Q36.8625 90.947914 37.55 90.260414Q38.2375 89.572914 38.2375 88.55729Q38.2375 87.58854 37.596874 86.96354Q36.971874 86.33854 35.9875 86.33854Q35.596874 86.33854 35.003124 86.49479L35.159374 85.260414Q35.3 85.27604 35.378124 85.27604Q36.284374 85.27604 37.003124 84.80729Q37.721874 84.33854 37.721874 83.354164Q37.721874 82.58854 37.190624 82.08854Q36.675 81.572914 35.846874 81.572914Q35.01875 81.572914 34.471874 82.08854Q33.925 82.604164 33.76875 83.635414L32.3625 83.385414Q32.628124 81.96354 33.534374 81.197914Q34.45625 80.416664 35.815624 80.416664Q36.753124 80.416664 37.534374 80.822914Q38.33125 81.21354 38.7375 81.916664Q39.159374 82.604164 39.159374 83.385414Q39.159374 84.135414 38.753124 84.74479Q38.3625 85.354164 37.58125 85.71354Q38.596874 85.947914 39.159374 86.68229Q39.721874 87.416664 39.721874 88.52604Q39.721874 90.02604 38.628124 91.072914Q37.534374 92.11979 35.8625 92.11979Q34.3625 92.11979 33.3625 91.229164Q32.3625 90.322914 32.221874 88.885414ZM41.4875 83.21354Q41.4875 81.979164 42.096874 81.11979Q42.721874 80.260414 43.89375 80.260414Q44.971874 80.260414 45.675 81.041664Q46.378124 81.80729 46.378124 83.291664Q46.378124 84.74479 45.659374 85.541664Q44.95625 86.322914 43.909374 86.322914Q42.8625 86.322914 42.175 85.55729Q41.4875 84.77604 41.4875 83.21354ZM43.925 81.229164Q43.409374 81.229164 43.05 81.68229Q42.70625 82.135414 42.70625 83.354164Q42.70625 84.447914 43.05 84.90104Q43.409374 85.354164 43.925 85.354164Q44.45625 85.354164 44.8 84.90104Q45.159374 84.447914 45.159374 83.24479Q45.159374 82.135414 44.8 81.68229Q44.45625 81.229164 43.925 81.229164ZM43.940624 92.33854L50.20625 80.260414L51.346874 80.260414L45.096874 92.33854L43.940624 92.33854ZM48.89375 89.229164Q48.89375 87.99479 49.503124 87.135414Q50.128124 86.27604 51.3 86.27604Q52.378124 86.27604 53.08125 87.05729Q53.8 87.822914 53.8 89.30729Q53.8 90.760414 53.08125 91.55729Q52.3625 92.33854 51.315624 92.33854Q50.26875 92.33854 49.58125 91.55729Q48.89375 90.77604 48.89375 89.229164ZM51.346874 87.24479Q50.815624 87.24479 50.45625 87.697914Q50.1125 88.15104 50.1125 89.36979Q50.1125 90.46354 50.45625 90.916664Q50.815624 91.36979 51.33125 91.36979Q51.878124 91.36979 52.221874 90.916664Q52.565624 90.46354 52.565624 89.260414Q52.565624 88.15104 52.20625 87.697914Q51.8625 87.24479 51.346874 87.24479Z" fill-rule="nonzero"/><path stroke="#757575" stroke-width="1.0" stroke-linecap="butt" d="M18.55 75.416664L145.23334 75.416664L289.91776 62.715088" fill-rule="nonzero"/><path fill="#9e9e9e" d="M291.91776 62.715088C291.91776 61.61052 291.0223 60.715088 289.91776 60.715088C288.81317 60.715088 287.91776 61.61052 287.91776 62.715088C287.91776 63.819656 288.81317 64.71509 289.91776 64.71509C291.0223 64.71509 291.91776 63.819656 291.91776 62.715088" fill-rule="nonzero"/><path fill="#efefef" d="M18.51875 110.916664L22.925 99.46354L24.565624 99.46354L29.253124 110.916664L27.51875 110.916664L26.190624 107.447914L21.39375 107.447914L20.14375 110.916664L18.51875 110.916664ZM21.83125 106.21354L25.721874 106.21354L24.51875 103.041664Q23.971874 101.58854 23.70625 100.666664Q23.4875 101.760414 23.096874 102.854164L21.83125 106.21354ZM30.596874 110.916664L30.596874 102.61979L31.8625 102.61979L31.8625 103.86979Q32.346874 102.99479 32.753124 102.71354Q33.159374 102.43229 33.659374 102.43229Q34.3625 102.43229 35.096874 102.885414L34.6125 104.18229Q34.096874 103.885414 33.58125 103.885414Q33.128124 103.885414 32.753124 104.166664Q32.39375 104.43229 32.2375 104.93229Q32.003124 105.68229 32.003124 106.572914L32.003124 110.916664L30.596874 110.916664ZM41.01875 107.86979L42.409374 108.05729Q42.175 109.479164 41.2375 110.291664Q40.315624 111.104164 38.95625 111.104164Q37.253124 111.104164 36.20625 109.99479Q35.175 108.86979 35.175 106.791664Q35.175 105.447914 35.6125 104.447914Q36.065624 103.43229 36.971874 102.93229Q37.89375 102.43229 38.95625 102.43229Q40.315624 102.43229 41.175 103.11979Q42.034374 103.791664 42.26875 105.05729L40.909374 105.260414Q40.70625 104.43229 40.20625 104.010414Q39.721874 103.58854 39.01875 103.58854Q37.95625 103.58854 37.284374 104.354164Q36.628124 105.104164 36.628124 106.760414Q36.628124 108.43229 37.26875 109.197914Q37.909374 109.947914 38.940624 109.947914Q39.76875 109.947914 40.315624 109.447914Q40.878124 108.93229 41.01875 107.86979ZM43.6125 110.916664L43.6125 99.46354L45.01875 99.46354L45.01875 103.572914Q46.003124 102.43229 47.503124 102.43229Q48.425 102.43229 49.096874 102.791664Q49.784374 103.15104 50.065624 103.791664Q50.3625 104.43229 50.3625 105.65104L50.3625 110.916664L48.95625 110.916664L48.95625 105.65104Q48.95625 104.604164 48.503124 104.11979Q48.05 103.635414 47.20625 103.635414Q46.58125 103.635414 46.034374 103.96354Q45.4875 104.291664 45.253124 104.854164Q45.01875 105.40104 45.01875 106.36979L45.01875 110.916664L43.6125 110.916664ZM52.6125 101.072914L52.6125 99.46354L54.01875 99.46354L54.01875 101.072914L52.6125 101.072914ZM52.6125 110.916664L52.6125 102.61979L54.01875 102.61979L54.01875 110.916664L52.6125 110.916664ZM59.675 109.65104L59.878124 110.90104Q59.284374 111.02604 58.815624 111.02604Q58.05 111.02604 57.628124 110.791664Q57.20625 110.541664 57.034374 110.15104Q56.8625 109.74479 56.8625 108.479164L56.8625 103.71354L55.83125 103.71354L55.83125 102.61979L56.8625 102.61979L56.8625 100.55729L58.26875 99.71354L58.26875 102.61979L59.675 102.61979L59.675 103.71354L58.26875 103.71354L58.26875 108.55729Q58.26875 109.166664 58.33125 109.33854Q58.409374 109.510414 58.58125 109.61979Q58.753124 109.71354 59.065624 109.71354Q59.3 109.71354 59.675 109.65104ZM66.28438 108.24479L67.7375 108.416664Q67.39375 109.697914 66.45625 110.40104Q65.53438 111.104164 64.09688 111.104164Q62.26875 111.104164 61.20625 109.979164Q60.14375 108.854164 60.14375 106.83854Q60.14375 104.74479 61.221874 103.58854Q62.3 102.43229 64.01875 102.43229Q65.675 102.43229 66.72188 103.572914Q67.78438 104.697914 67.78438 106.74479Q67.78438 106.86979 67.78438 107.11979L61.596874 107.11979Q61.675 108.49479 62.3625 109.229164Q63.065624 109.947914 64.09688 109.947914Q64.87813 109.947914 65.425 109.541664Q65.97188 109.135414 66.28438 108.24479ZM61.675 105.96354L66.3 105.96354Q66.20625 104.916664 65.76875 104.40104Q65.09688 103.58854 64.03438 103.58854Q63.065624 103.58854 62.39375 104.24479Q61.7375 104.885414 61.675 105.96354ZM75.01875 107.86979L76.40938 108.05729Q76.175 109.479164 75.2375 110.291664Q74.31563 111.104164 72.95625 111.104164Q71.25313 111.104164 70.20625 109.99479Q69.175 108.86979 69.175 106.791664Q69.175 105.447914 69.6125 104.447914Q70.06563 103.43229 70.97188 102.93229Q71.89375 102.43229 72.95625 102.43229Q74.31563 102.43229 75.175 103.11979Q76.03438 103.791664 76.26875 105.05729L74.90938 105.260414Q74.70625 104.43229 74.20625 104.010414Q73.72188 103.58854 73.01875 103.58854Q71.95625 103.58854 71.28438 104.354164Q70.62813 105.104164 70.62813 106.760414Q70.62813 108.43229 71.26875 109.197914Q71.90938 109.947914 72.94063 109.947914Q73.76875 109.947914 74.31563 109.447914Q74.87813 108.93229 75.01875 107.86979ZM80.675 109.65104L80.87813 110.90104Q80.28438 111.02604 79.81563 111.02604Q79.05 111.02604 78.62813 110.791664Q78.20625 110.541664 78.03438 110.15104Q77.8625 109.74479 77.8625 108.479164L77.8625 103.71354L76.83125 103.71354L76.83125 102.61979L77.8625 102.61979L77.8625 100.55729L79.26875 99.71354L79.26875 102.61979L80.675 102.61979L80.675 103.71354L79.26875 103.71354L79.26875 108.55729Q79.26875 109.166664 79.33125 109.33854Q79.40938 109.510414 79.58125 109.61979Q79.75313 109.71354 80.06563 109.71354Q80.3 109.71354 80.675 109.65104ZM87.05 110.916664L87.05 109.697914Q86.08125 111.104164 84.40938 111.104164Q83.675 111.104164 83.03438 110.822914Q82.40938 110.541664 82.09688 110.11979Q81.78438 109.68229 81.65938 109.072914Q81.58125 108.65104 81.58125 107.760414L81.58125 102.61979L82.9875 102.61979L82.9875 107.21354Q82.9875 108.322914 83.06563 108.697914Q83.20625 109.260414 83.62813 109.572914Q84.06563 109.885414 84.69063 109.885414Q85.33125 109.885414 85.87813 109.572914Q86.44063 109.24479 86.65938 108.68229Q86.89375 108.11979 86.89375 107.05729L86.89375 102.61979L88.3 102.61979L88.3 110.916664L87.05 110.916664ZM90.59688 110.916664L90.59688 102.61979L91.8625 102.61979L91.8625 103.86979Q92.34688 102.99479 92.75313 102.71354Q93.15938 102.43229 93.65938 102.43229Q94.3625 102.43229 95.09688 102.885414L94.6125 104.18229Q94.09688 103.885414 93.58125 103.885414Q93.12813 103.885414 92.75313 104.166664Q92.39375 104.43229 92.2375 104.93229Q92.00313 105.68229 92.00313 106.572914L92.00313 110.916664L90.59688 110.916664ZM101.28438 108.24479L102.7375 108.416664Q102.39375 109.697914 101.45625 110.40104Q100.53438 111.104164 99.09688 111.104164Q97.26875 111.104164 96.20625 109.979164Q95.14375 108.854164 95.14375 106.83854Q95.14375 104.74479 96.22188 103.58854Q97.3 102.43229 99.01875 102.43229Q100.675 102.43229 101.72188 103.572914Q102.78438 104.697914 102.78438 106.74479Q102.78438 106.86979 102.78438 107.11979L96.59688 107.11979Q96.675 108.49479 97.3625 109.229164Q98.06563 109.947914 99.09688 109.947914Q99.87813 109.947914 100.425 109.541664Q100.97188 109.135414 101.28438 108.24479ZM96.675 105.96354L101.3 105.96354Q101.20625 104.916664 100.76875 104.40104Q100.09688 103.58854 99.03438 103.58854Q98.06563 103.58854 97.39375 104.24479Q96.7375 104.885414 96.675 105.96354ZM115.15938 109.55729Q114.45625 110.33854 113.62813 110.729164Q112.81563 111.11979 111.8625 111.11979Q110.1125 111.11979 109.08125 109.916664Q108.2375 108.947914 108.2375 107.760414Q108.2375 106.697914 108.925 105.83854Q109.6125 104.979164 110.97188 104.33854Q110.19063 103.447914 109.925 102.90104Q109.675 102.33854 109.675 101.822914Q109.675 100.791664 110.4875 100.02604Q111.3 99.260414 112.51875 99.260414Q113.69063 99.260414 114.44063 99.979164Q115.19063 100.697914 115.19063 101.71354Q115.19063 103.33854 113.01875 104.49479L115.08125 107.11979Q115.425 106.43229 115.62813 105.52604L117.08125 105.83854Q116.70625 107.33854 116.06563 108.30729Q116.8625 109.354164 117.8625 110.05729L116.90938 111.18229Q116.06563 110.635414 115.15938 109.55729ZM112.3 103.58854Q113.20625 103.05729 113.47188 102.65104Q113.75313 102.24479 113.75313 101.74479Q113.75313 101.166664 113.37813 100.791664Q113.00313 100.416664 112.45625 100.416664Q111.87813 100.416664 111.50313 100.791664Q111.12813 101.15104 111.12813 101.68229Q111.12813 101.947914 111.25313 102.24479Q111.39375 102.541664 111.675 102.86979L112.3 103.58854ZM114.26875 108.447914L111.69063 105.260414Q110.55 105.93229 110.14375 106.52604Q109.75313 107.104164 109.75313 107.666664Q109.75313 108.36979 110.3 109.11979Q110.8625 109.86979 111.87813 109.86979Q112.51875 109.86979 113.19063 109.479164Q113.8625 109.072914 114.26875 108.447914Z" fill-rule="nonzero"/><path fill="#9e9e9e" d="M26.51875 124.26042L25.1125 124.3698Q24.925 123.54167 24.58125 123.16667Q24.01875 122.57292 23.175 122.57292Q22.503124 122.57292 22.003124 122.94792Q21.33125 123.4323 20.940624 124.3698Q20.565624 125.29167 20.55 127.01042Q21.065624 126.22917 21.8 125.85417Q22.534374 125.47917 23.33125 125.47917Q24.7375 125.47917 25.721874 126.52605Q26.721874 127.5573 26.721874 129.19792Q26.721874 130.27605 26.253124 131.19792Q25.784374 132.1198 24.971874 132.6198Q24.159374 133.1198 23.128124 133.1198Q21.378124 133.1198 20.26875 131.82292Q19.159374 130.52605 19.159374 127.5573Q19.159374 124.22917 20.378124 122.72917Q21.45625 121.41667 23.26875 121.41667Q24.6125 121.41667 25.471874 122.1823Q26.346874 122.9323 26.51875 124.26042ZM20.76875 129.19792Q20.76875 129.9323 21.08125 130.60417Q21.39375 131.26042 21.940624 131.60417Q22.503124 131.94792 23.1125 131.94792Q24.003124 131.94792 24.64375 131.22917Q25.284374 130.51042 25.284374 129.27605Q25.284374 128.08855 24.64375 127.41667Q24.01875 126.72917 23.05 126.72917Q22.096874 126.72917 21.425 127.41667Q20.76875 128.08855 20.76875 129.19792ZM29.003124 132.91667L29.003124 131.3073L30.6125 131.3073L30.6125 132.91667L29.003124 132.91667ZM34.378124 126.69792Q33.503124 126.38542 33.08125 125.79167Q32.659374 125.19792 32.659374 124.3698Q32.659374 123.1198 33.55 122.27605Q34.45625 121.41667 35.95625 121.41667Q37.45625 121.41667 38.3625 122.29167Q39.284374 123.15105 39.284374 124.40105Q39.284374 125.19792 38.8625 125.79167Q38.440624 126.38542 37.596874 126.69792Q38.64375 127.04167 39.190624 127.8073Q39.753124 128.57292 39.753124 129.63542Q39.753124 131.10417 38.70625 132.1198Q37.675 133.1198 35.971874 133.1198Q34.284374 133.1198 33.2375 132.1198Q32.20625 131.10417 32.20625 129.60417Q32.20625 128.47917 32.76875 127.72917Q33.33125 126.97917 34.378124 126.69792ZM34.096874 124.32292Q34.096874 125.13542 34.6125 125.65105Q35.14375 126.16667 35.9875 126.16667Q36.8 126.16667 37.315624 125.65105Q37.83125 125.13542 37.83125 124.40105Q37.83125 123.6198 37.3 123.10417Q36.76875 122.57292 35.971874 122.57292Q35.159374 122.57292 34.628124 123.08855Q34.096874 123.60417 34.096874 124.32292ZM33.64375 129.60417Q33.64375 130.21355 33.925 130.77605Q34.221874 131.33855 34.784374 131.65105Q35.346874 131.94792 35.9875 131.94792Q37.003124 131.94792 37.659374 131.3073Q38.315624 130.65105 38.315624 129.65105Q38.315624 128.63542 37.628124 127.97917Q36.95625 127.3073 35.940624 127.3073Q34.95625 127.3073 34.3 127.96355Q33.64375 128.6198 33.64375 129.60417ZM41.4875 124.21355Q41.4875 122.97917 42.096874 122.1198Q42.721874 121.26042 43.89375 121.26042Q44.971874 121.26042 45.675 122.04167Q46.378124 122.8073 46.378124 124.29167Q46.378124 125.7448 45.659374 126.54167Q44.95625 127.32292 43.909374 127.32292Q42.8625 127.32292 42.175 126.5573Q41.4875 125.77605 41.4875 124.21355ZM43.925 122.22917Q43.409374 122.22917 43.05 122.6823Q42.70625 123.13542 42.70625 124.35417Q42.70625 125.44792 43.05 125.90105Q43.409374 126.35417 43.925 126.35417Q44.45625 126.35417 44.8 125.90105Q45.159374 125.44792 45.159374 124.2448Q45.159374 123.13542 44.8 122.6823Q44.45625 122.22917 43.925 122.22917ZM43.940624 133.33855L50.20625 121.26042L51.346874 121.26042L45.096874 133.33855L43.940624 133.33855ZM48.89375 130.22917Q48.89375 128.9948 49.503124 128.13542Q50.128124 127.27605 51.3 127.27605Q52.378124 127.27605 53.08125 128.0573Q53.8 128.82292 53.8 130.3073Q53.8 131.76042 53.08125 132.5573Q52.3625 133.33855 51.315624 133.33855Q50.26875 133.33855 49.58125 132.5573Q48.89375 131.77605 48.89375 130.22917ZM51.346874 128.2448Q50.815624 128.2448 50.45625 128.69792Q50.1125 129.15105 50.1125 130.3698Q50.1125 131.46355 50.45625 131.91667Q50.815624 132.3698 51.33125 132.3698Q51.878124 132.3698 52.221874 131.91667Q52.565624 131.46355 52.565624 130.26042Q52.565624 129.15105 52.20625 128.69792Q51.8625 128.2448 51.346874 128.2448Z" fill-rule="nonzero"/><path stroke="#757575" stroke-width="1.0" stroke-linecap="butt" d="M18.55 116.416664L145.23334 116.416664L232.26854 79.642426" fill-rule="nonzero"/><path fill="#9e9e9e" d="M234.26854 79.642426C234.26854 78.53786 233.37311 77.642426 232.26854 77.642426C231.16397 77.642426 230.26854 78.53786 230.26854 79.642426C230.26854 80.746994 231.16397 81.642426 232.26854 81.642426C233.37311 81.642426 234.26854 80.746994 234.26854 79.642426" fill-rule="nonzero"/><path fill="#efefef" d="M19.784374 151.91667L19.784374 140.46355L23.7375 140.46355Q25.065624 140.46355 25.76875 140.6198Q26.753124 140.85417 27.45625 141.44792Q28.3625 142.21355 28.8 143.40105Q29.253124 144.58855 29.253124 146.1198Q29.253124 147.4323 28.940624 148.44792Q28.64375 149.44792 28.159374 150.10417Q27.690624 150.76042 27.128124 151.15105Q26.565624 151.52605 25.753124 151.72917Q24.95625 151.91667 23.925 151.91667L19.784374 151.91667ZM21.3 150.5573L23.753124 150.5573Q24.878124 150.5573 25.51875 150.35417Q26.175 150.13542 26.55 149.76042Q27.096874 149.21355 27.39375 148.3073Q27.690624 147.40105 27.690624 146.10417Q27.690624 144.3073 27.096874 143.33855Q26.51875 142.3698 25.675 142.04167Q25.065624 141.8073 23.70625 141.8073L21.3 141.8073L21.3 150.5573ZM31.6125 142.07292L31.6125 140.46355L33.01875 140.46355L33.01875 142.07292L31.6125 142.07292ZM31.6125 151.91667L31.6125 143.6198L33.01875 143.6198L33.01875 151.91667L31.6125 151.91667ZM35.6125 155.10417L35.6125 143.6198L36.89375 143.6198L36.89375 144.69792Q37.346874 144.0573 37.909374 143.7448Q38.4875 143.4323 39.3 143.4323Q40.3625 143.4323 41.175 143.97917Q41.9875 144.52605 42.39375 145.52605Q42.815624 146.51042 42.815624 147.69792Q42.815624 148.97917 42.346874 149.9948Q41.89375 151.01042 41.01875 151.5573Q40.159374 152.10417 39.190624 152.10417Q38.4875 152.10417 37.925 151.8073Q37.378124 151.51042 37.01875 151.0573L37.01875 155.10417L35.6125 155.10417ZM36.878124 147.8073Q36.878124 149.41667 37.51875 150.1823Q38.175 150.94792 39.096874 150.94792Q40.034374 150.94792 40.70625 150.15105Q41.378124 149.35417 41.378124 147.69792Q41.378124 146.10417 40.721874 145.32292Q40.065624 144.52605 39.159374 144.52605Q38.26875 144.52605 37.565624 145.3698Q36.878124 146.21355 36.878124 147.8073ZM44.58125 151.91667L44.58125 140.46355L45.9875 140.46355L45.9875 151.91667L44.58125 151.91667ZM48.08125 147.76042Q48.08125 145.46355 49.3625 144.35417Q50.440624 143.4323 51.971874 143.4323Q53.690624 143.4323 54.76875 144.5573Q55.8625 145.66667 55.8625 147.65105Q55.8625 149.2448 55.378124 150.16667Q54.89375 151.08855 53.971874 151.60417Q53.065624 152.10417 51.971874 152.10417Q50.2375 152.10417 49.159374 150.9948Q48.08125 149.8698 48.08125 147.76042ZM49.534374 147.76042Q49.534374 149.35417 50.221874 150.15105Q50.925 150.94792 51.971874 150.94792Q53.01875 150.94792 53.70625 150.15105Q54.409374 149.35417 54.409374 147.71355Q54.409374 146.1823 53.70625 145.38542Q53.01875 144.58855 51.971874 144.58855Q50.925 144.58855 50.221874 145.38542Q49.534374 146.16667 49.534374 147.76042ZM57.6125 151.91667L57.6125 143.6198L58.8625 143.6198L58.8625 144.77605Q59.253124 144.16667 59.89375 143.8073Q60.55 143.4323 61.378124 143.4323Q62.3 143.4323 62.89375 143.82292Q63.4875 144.19792 63.721874 144.88542Q64.70625 143.4323 66.28438 143.4323Q67.51875 143.4323 68.175 144.1198Q68.84688 144.79167 68.84688 146.21355L68.84688 151.91667L67.45625 151.91667L67.45625 146.6823Q67.45625 145.83855 67.31563 145.47917Q67.175 145.10417 66.81563 144.88542Q66.45625 144.65105 65.97188 144.65105Q65.09688 144.65105 64.51875 145.22917Q63.940624 145.8073 63.940624 147.08855L63.940624 151.91667L62.534374 151.91667L62.534374 146.52605Q62.534374 145.58855 62.190624 145.1198Q61.846874 144.65105 61.065624 144.65105Q60.471874 144.65105 59.971874 144.96355Q59.471874 145.27605 59.2375 145.88542Q59.01875 146.47917 59.01875 147.60417L59.01875 151.91667L57.6125 151.91667ZM76.01875 150.88542Q75.2375 151.5573 74.51875 151.83855Q73.8 152.10417 72.97188 152.10417Q71.59688 152.10417 70.8625 151.4323Q70.12813 150.76042 70.12813 149.72917Q70.12813 149.1198 70.40938 148.6198Q70.69063 148.10417 71.12813 147.8073Q71.58125 147.4948 72.14375 147.33855Q72.56563 147.22917 73.39375 147.13542Q75.09688 146.9323 75.90938 146.65105Q75.90938 146.35417 75.90938 146.27605Q75.90938 145.41667 75.51875 145.07292Q74.97188 144.58855 73.90938 144.58855Q72.925 144.58855 72.44063 144.94792Q71.97188 145.29167 71.75313 146.16667L70.37813 145.97917Q70.56563 145.10417 70.9875 144.5573Q71.425 144.01042 72.2375 143.72917Q73.05 143.4323 74.1125 143.4323Q75.175 143.4323 75.83125 143.6823Q76.50313 143.9323 76.81563 144.3073Q77.12813 144.6823 77.25313 145.26042Q77.33125 145.6198 77.33125 146.5573L77.33125 148.4323Q77.33125 150.40105 77.40938 150.91667Q77.50313 151.4323 77.76875 151.91667L76.3 151.91667Q76.08125 151.47917 76.01875 150.88542ZM75.90938 147.7448Q75.14375 148.0573 73.6125 148.27605Q72.7375 148.40105 72.37813 148.5573Q72.01875 148.71355 71.81563 149.02605Q71.62813 149.32292 71.62813 149.6823Q71.62813 150.2448 72.05 150.6198Q72.4875 150.9948 73.3 150.9948Q74.1125 150.9948 74.7375 150.65105Q75.37813 150.29167 75.675 149.66667Q75.90938 149.19792 75.90938 148.26042L75.90938 147.7448ZM82.675 150.65105L82.87813 151.90105Q82.28438 152.02605 81.81563 152.02605Q81.05 152.02605 80.62813 151.79167Q80.20625 151.54167 80.03438 151.15105Q79.8625 150.7448 79.8625 149.47917L79.8625 144.71355L78.83125 144.71355L78.83125 143.6198L79.8625 143.6198L79.8625 141.5573L81.26875 140.71355L81.26875 143.6198L82.675 143.6198L82.675 144.71355L81.26875 144.71355L81.26875 149.5573Q81.26875 150.16667 81.33125 150.33855Q81.40938 150.51042 81.58125 150.6198Q81.75313 150.71355 82.06563 150.71355Q82.3 150.71355 82.675 150.65105ZM83.6125 142.07292L83.6125 140.46355L85.01875 140.46355L85.01875 142.07292L83.6125 142.07292ZM83.6125 151.91667L83.6125 143.6198L85.01875 143.6198L85.01875 151.91667L83.6125 151.91667ZM93.01875 148.8698L94.40938 149.0573Q94.175 150.47917 93.2375 151.29167Q92.31563 152.10417 90.95625 152.10417Q89.25313 152.10417 88.20625 150.9948Q87.175 149.8698 87.175 147.79167Q87.175 146.44792 87.6125 145.44792Q88.06563 144.4323 88.97188 143.9323Q89.89375 143.4323 90.95625 143.4323Q92.31563 143.4323 93.175 144.1198Q94.03438 144.79167 94.26875 146.0573L92.90938 146.26042Q92.70625 145.4323 92.20625 145.01042Q91.72188 144.58855 91.01875 144.58855Q89.95625 144.58855 89.28438 145.35417Q88.62813 146.10417 88.62813 147.76042Q88.62813 149.4323 89.26875 150.19792Q89.90938 150.94792 90.94063 150.94792Q91.76875 150.94792 92.31563 150.44792Q92.87813 149.9323 93.01875 148.8698Z" fill-rule="nonzero"/><path fill="#9e9e9e" d="M24.51875 173.91667L23.1125 173.91667L23.1125 164.94792Q22.596874 165.4323 21.76875 165.91667Q20.95625 166.40105 20.3 166.65105L20.3 165.29167Q21.471874 164.72917 22.346874 163.94792Q23.2375 163.15105 23.6125 162.41667L24.51875 162.41667L24.51875 173.91667ZM28.221874 170.91667L29.690624 170.79167Q29.8625 171.8698 30.45625 172.41667Q31.05 172.94792 31.89375 172.94792Q32.909374 172.94792 33.6125 172.1823Q34.315624 171.41667 34.315624 170.15105Q34.315624 168.94792 33.64375 168.26042Q32.971874 167.5573 31.878124 167.5573Q31.190624 167.5573 30.64375 167.8698Q30.096874 168.1823 29.784374 168.66667L28.471874 168.4948L29.58125 162.6198L35.26875 162.6198L35.26875 163.96355L30.70625 163.96355L30.08125 167.04167Q31.1125 166.32292 32.253124 166.32292Q33.753124 166.32292 34.784374 167.3698Q35.815624 168.40105 35.815624 170.02605Q35.815624 171.58855 34.909374 172.71355Q33.8 174.1198 31.89375 174.1198Q30.33125 174.1198 29.346874 173.2448Q28.3625 172.35417 28.221874 170.91667ZM38.003124 173.91667L38.003124 172.3073L39.6125 172.3073L39.6125 173.91667L38.003124 173.91667ZM41.425 171.26042L42.784374 171.13542Q42.95625 172.08855 43.440624 172.52605Q43.925 172.94792 44.675 172.94792Q45.33125 172.94792 45.815624 172.65105Q46.3 172.35417 46.6125 171.8698Q46.925 171.3698 47.128124 170.52605Q47.346874 169.6823 47.346874 168.8073Q47.346874 168.71355 47.346874 168.52605Q46.925 169.19792 46.190624 169.6198Q45.45625 170.02605 44.6125 170.02605Q43.190624 170.02605 42.20625 168.9948Q41.221874 167.96355 41.221874 166.27605Q41.221874 164.54167 42.2375 163.47917Q43.26875 162.41667 44.815624 162.41667Q45.940624 162.41667 46.8625 163.02605Q47.784374 163.6198 48.26875 164.72917Q48.753124 165.83855 48.753124 167.94792Q48.753124 170.15105 48.26875 171.44792Q47.8 172.7448 46.846874 173.4323Q45.909374 174.1198 44.64375 174.1198Q43.3 174.1198 42.440624 173.3698Q41.596874 172.6198 41.425 171.26042ZM47.190624 166.21355Q47.190624 164.9948 46.534374 164.29167Q45.89375 163.57292 44.9875 163.57292Q44.05 163.57292 43.346874 164.33855Q42.659374 165.10417 42.659374 166.32292Q42.659374 167.41667 43.315624 168.10417Q43.9875 168.79167 44.95625 168.79167Q45.925 168.79167 46.55 168.10417Q47.190624 167.41667 47.190624 166.21355ZM50.4875 165.21355Q50.4875 163.97917 51.096874 163.1198Q51.721874 162.26042 52.89375 162.26042Q53.971874 162.26042 54.675 163.04167Q55.378124 163.8073 55.378124 165.29167Q55.378124 166.7448 54.659374 167.54167Q53.95625 168.32292 52.909374 168.32292Q51.8625 168.32292 51.175 167.5573Q50.4875 166.77605 50.4875 165.21355ZM52.925 163.22917Q52.409374 163.22917 52.05 163.6823Q51.70625 164.13542 51.70625 165.35417Q51.70625 166.44792 52.05 166.90105Q52.409374 167.35417 52.925 167.35417Q53.45625 167.35417 53.8 166.90105Q54.159374 166.44792 54.159374 165.2448Q54.159374 164.13542 53.8 163.6823Q53.45625 163.22917 52.925 163.22917ZM52.940624 174.33855L59.20625 162.26042L60.346874 162.26042L54.096874 174.33855L52.940624 174.33855ZM57.89375 171.22917Q57.89375 169.9948 58.503124 169.13542Q59.128124 168.27605 60.3 168.27605Q61.378124 168.27605 62.08125 169.0573Q62.8 169.82292 62.8 171.3073Q62.8 172.76042 62.08125 173.5573Q61.3625 174.33855 60.315624 174.33855Q59.26875 174.33855 58.58125 173.5573Q57.89375 172.77605 57.89375 171.22917ZM60.346874 169.2448Q59.815624 169.2448 59.45625 169.69792Q59.1125 170.15105 59.1125 171.3698Q59.1125 172.46355 59.45625 172.91667Q59.815624 173.3698 60.33125 173.3698Q60.878124 173.3698 61.221874 172.91667Q61.565624 172.46355 61.565624 171.26042Q61.565624 170.15105 61.20625 169.69792Q60.8625 169.2448 60.346874 169.2448Z" fill-rule="nonzero"/><path stroke="#757575" stroke-width="1.0" stroke-linecap="butt" d="M18.55 157.41667L145.23334 157.41667L167.58246 154.29414" fill-rule="nonzero"/><path fill="#9e9e9e" d="M169.58246 154.29414C169.58246 153.18958 168.68703 152.29414 167.58246 152.29414C166.47789 152.29414 165.58246 153.18958 165.58246 154.29414C165.58246 155.39871 166.47789 156.29414 167.58246 156.29414C168.68703 156.29414 169.58246 155.39871 169.58246 154.29414" fill-rule="nonzero"/><path fill="#efefef" d="M19.7375 282.87823L19.7375 271.4251L22.01875 271.4251L24.7375 279.5345Q25.1125 280.6595 25.284374 281.222Q25.471874 280.597 25.89375 279.39386L28.628124 271.4251L30.675 271.4251L30.675 282.87823L29.20625 282.87823L29.20625 273.2845L25.878124 282.87823L24.51875 282.87823L21.20625 273.12823L21.20625 282.87823L19.7375 282.87823ZM32.6125 273.0345L32.6125 271.4251L34.01875 271.4251L34.01875 273.0345L32.6125 273.0345ZM32.6125 282.87823L32.6125 274.58136L34.01875 274.58136L34.01875 282.87823L32.6125 282.87823ZM36.58125 282.87823L36.58125 271.4251L37.9875 271.4251L37.9875 282.87823L36.58125 282.87823ZM40.6125 273.0345L40.6125 271.4251L42.01875 271.4251L42.01875 273.0345L40.6125 273.0345ZM40.6125 282.87823L40.6125 274.58136L42.01875 274.58136L42.01875 282.87823L40.6125 282.87823ZM47.675 281.6126L47.878124 282.8626Q47.284374 282.9876 46.815624 282.9876Q46.05 282.9876 45.628124 282.75323Q45.20625 282.50323 45.034374 282.1126Q44.8625 281.70636 44.8625 280.44073L44.8625 275.6751L43.83125 275.6751L43.83125 274.58136L44.8625 274.58136L44.8625 272.51886L46.26875 271.6751L46.26875 274.58136L47.675 274.58136L47.675 275.6751L46.26875 275.6751L46.26875 280.51886Q46.26875 281.12823 46.33125 281.3001Q46.409374 281.472 46.58125 281.58136Q46.753124 281.6751 47.065624 281.6751Q47.3 281.6751 47.675 281.6126ZM54.01875 281.847Q53.2375 282.51886 52.51875 282.8001Q51.8 283.06573 50.971874 283.06573Q49.596874 283.06573 48.8625 282.39386Q48.128124 281.722 48.128124 280.69073Q48.128124 280.08136 48.409374 279.58136Q48.690624 279.06573 49.128124 278.76886Q49.58125 278.45636 50.14375 278.3001Q50.565624 278.19073 51.39375 278.097Q53.096874 277.89386 53.909374 277.6126Q53.909374 277.31573 53.909374 277.2376Q53.909374 276.37823 53.51875 276.0345Q52.971874 275.5501 51.909374 275.5501Q50.925 275.5501 50.440624 275.9095Q49.971874 276.25323 49.753124 277.12823L48.378124 276.94073Q48.565624 276.06573 48.9875 275.51886Q49.425 274.972 50.2375 274.69073Q51.05 274.39386 52.1125 274.39386Q53.175 274.39386 53.83125 274.64386Q54.503124 274.89386 54.815624 275.26886Q55.128124 275.64386 55.253124 276.222Q55.33125 276.58136 55.33125 277.51886L55.33125 279.39386Q55.33125 281.3626 55.409374 281.87823Q55.503124 282.39386 55.76875 282.87823L54.3 282.87823Q54.08125 282.44073 54.01875 281.847ZM53.909374 278.70636Q53.14375 279.01886 51.6125 279.2376Q50.7375 279.3626 50.378124 279.51886Q50.01875 279.6751 49.815624 279.9876Q49.628124 280.2845 49.628124 280.64386Q49.628124 281.20636 50.05 281.58136Q50.4875 281.95636 51.3 281.95636Q52.1125 281.95636 52.7375 281.6126Q53.378124 281.25323 53.675 280.62823Q53.909374 280.1595 53.909374 279.222L53.909374 278.70636ZM57.596874 282.87823L57.596874 274.58136L58.8625 274.58136L58.8625 275.83136Q59.346874 274.95636 59.753124 274.6751Q60.159374 274.39386 60.659374 274.39386Q61.3625 274.39386 62.096874 274.847L61.6125 276.14386Q61.096874 275.847 60.58125 275.847Q60.128124 275.847 59.753124 276.12823Q59.39375 276.39386 59.2375 276.89386Q59.003124 277.64386 59.003124 278.5345L59.003124 282.87823L57.596874 282.87823ZM62.55 286.08136L62.39375 284.75323Q62.846874 284.87823 63.190624 284.87823Q63.659374 284.87823 63.940624 284.722Q64.22188 284.56573 64.40938 284.2845Q64.53438 284.08136 64.83125 283.2376Q64.87813 283.12823 64.95625 282.89386L61.815624 274.58136L63.33125 274.58136L65.05 279.37823Q65.39375 280.3001 65.65938 281.3001Q65.89375 280.33136 66.2375 279.4095L68.00313 274.58136L69.40938 274.58136L66.25313 283.01886Q65.75313 284.39386 65.47188 284.9095Q65.09688 285.597 64.6125 285.9251Q64.12813 286.25323 63.45625 286.25323Q63.05 286.25323 62.55 286.08136Z" fill-rule="nonzero"/><path fill="#9e9e9e" d="M24.51875 304.87823L23.1125 304.87823L23.1125 295.9095Q22.596874 296.39386 21.76875 296.87823Q20.95625 297.3626 20.3 297.6126L20.3 296.25323Q21.471874 295.69073 22.346874 294.9095Q23.2375 294.1126 23.6125 293.37823L24.51875 293.37823L24.51875 304.87823ZM28.221874 301.87823L29.690624 301.75323Q29.8625 302.83136 30.45625 303.37823Q31.05 303.9095 31.89375 303.9095Q32.909374 303.9095 33.6125 303.14386Q34.315624 302.37823 34.315624 301.1126Q34.315624 299.9095 33.64375 299.222Q32.971874 298.51886 31.878124 298.51886Q31.190624 298.51886 30.64375 298.83136Q30.096874 299.14386 29.784374 299.62823L28.471874 299.45636L29.58125 293.58136L35.26875 293.58136L35.26875 294.9251L30.70625 294.9251L30.08125 298.00323Q31.1125 297.2845 32.253124 297.2845Q33.753124 297.2845 34.784374 298.33136Q35.815624 299.3626 35.815624 300.9876Q35.815624 302.5501 34.909374 303.6751Q33.8 305.08136 31.89375 305.08136Q30.33125 305.08136 29.346874 304.20636Q28.3625 303.31573 28.221874 301.87823ZM38.003124 304.87823L38.003124 303.26886L39.6125 303.26886L39.6125 304.87823L38.003124 304.87823ZM41.425 302.222L42.784374 302.097Q42.95625 303.0501 43.440624 303.4876Q43.925 303.9095 44.675 303.9095Q45.33125 303.9095 45.815624 303.6126Q46.3 303.31573 46.6125 302.83136Q46.925 302.33136 47.128124 301.4876Q47.346874 300.64386 47.346874 299.76886Q47.346874 299.6751 47.346874 299.4876Q46.925 300.1595 46.190624 300.58136Q45.45625 300.9876 44.6125 300.9876Q43.190624 300.9876 42.20625 299.95636Q41.221874 298.9251 41.221874 297.2376Q41.221874 295.50323 42.2375 294.44073Q43.26875 293.37823 44.815624 293.37823Q45.940624 293.37823 46.8625 293.9876Q47.784374 294.58136 48.26875 295.69073Q48.753124 296.8001 48.753124 298.9095Q48.753124 301.1126 48.26875 302.4095Q47.8 303.70636 46.846874 304.39386Q45.909374 305.08136 44.64375 305.08136Q43.3 305.08136 42.440624 304.33136Q41.596874 303.58136 41.425 302.222ZM47.190624 297.1751Q47.190624 295.95636 46.534374 295.25323Q45.89375 294.5345 44.9875 294.5345Q44.05 294.5345 43.346874 295.3001Q42.659374 296.06573 42.659374 297.2845Q42.659374 298.37823 43.315624 299.06573Q43.9875 299.75323 44.95625 299.75323Q45.925 299.75323 46.55 299.06573Q47.190624 298.37823 47.190624 297.1751ZM50.4875 296.1751Q50.4875 294.94073 51.096874 294.08136Q51.721874 293.222 52.89375 293.222Q53.971874 293.222 54.675 294.00323Q55.378124 294.76886 55.378124 296.25323Q55.378124 297.70636 54.659374 298.50323Q53.95625 299.2845 52.909374 299.2845Q51.8625 299.2845 51.175 298.51886Q50.4875 297.7376 50.4875 296.1751ZM52.925 294.19073Q52.409374 294.19073 52.05 294.64386Q51.70625 295.097 51.70625 296.31573Q51.70625 297.4095 52.05 297.8626Q52.409374 298.31573 52.925 298.31573Q53.45625 298.31573 53.8 297.8626Q54.159374 297.4095 54.159374 296.20636Q54.159374 295.097 53.8 294.64386Q53.45625 294.19073 52.925 294.19073ZM52.940624 305.3001L59.20625 293.222L60.346874 293.222L54.096874 305.3001L52.940624 305.3001ZM57.89375 302.19073Q57.89375 300.95636 58.503124 300.097Q59.128124 299.2376 60.3 299.2376Q61.378124 299.2376 62.08125 300.01886Q62.8 300.7845 62.8 302.26886Q62.8 303.722 62.08125 304.51886Q61.3625 305.3001 60.315624 305.3001Q59.26875 305.3001 58.58125 304.51886Q57.89375 303.7376 57.89375 302.19073ZM60.346874 300.20636Q59.815624 300.20636 59.45625 300.6595Q59.1125 301.1126 59.1125 302.33136Q59.1125 303.4251 59.45625 303.87823Q59.815624 304.33136 60.33125 304.33136Q60.878124 304.33136 61.221874 303.87823Q61.565624 303.4251 61.565624 302.222Q61.565624 301.1126 61.20625 300.6595Q60.8625 300.20636 60.346874 300.20636Z" fill-rule="nonzero"/><path stroke="#757575" stroke-width="1.0" stroke-linecap="butt" d="M18.55 288.37823L145.23334 288.37823L186.86084 288.37823" fill-rule="nonzero"/><path fill="#9e9e9e" d="M188.86084 288.37823C188.86084 287.27368 187.96541 286.37823 186.86084 286.37823C185.75627 286.37823 184.86084 287.27368 184.86084 288.37823C184.86084 289.48282 185.75627 290.37823 186.86084 290.37823C187.96541 290.37823 188.86084 289.48282 188.86084 288.37823" fill-rule="nonzero"/><path fill="#efefef" d="M19.815624 326.45L19.815624 314.9969L24.89375 314.9969Q26.425 314.9969 27.221874 315.3094Q28.01875 315.60626 28.4875 316.3875Q28.971874 317.16876 28.971874 318.1219Q28.971874 319.34064 28.175 320.1844Q27.39375 321.0125 25.7375 321.23126Q26.346874 321.52814 26.659374 321.8094Q27.315624 322.41876 27.909374 323.325L29.909374 326.45L28.003124 326.45L26.4875 324.0594Q25.815624 323.02814 25.378124 322.48126Q24.95625 321.9344 24.6125 321.71564Q24.284374 321.4969 23.925 321.41876Q23.675 321.35626 23.08125 321.35626L21.33125 321.35626L21.33125 326.45L19.815624 326.45ZM21.33125 320.04376L24.58125 320.04376Q25.628124 320.04376 26.20625 319.84064Q26.8 319.6219 27.096874 319.15314Q27.409374 318.66876 27.409374 318.1219Q27.409374 317.3094 26.815624 316.79376Q26.221874 316.2625 24.95625 316.2625L21.33125 316.2625L21.33125 320.04376ZM37.284374 323.77814L38.7375 323.95Q38.39375 325.23126 37.45625 325.9344Q36.534374 326.6375 35.096874 326.6375Q33.26875 326.6375 32.20625 325.5125Q31.14375 324.3875 31.14375 322.3719Q31.14375 320.27814 32.221874 319.1219Q33.3 317.96564 35.01875 317.96564Q36.675 317.96564 37.721874 319.10626Q38.784374 320.23126 38.784374 322.27814Q38.784374 322.40314 38.784374 322.65314L32.596874 322.65314Q32.675 324.02814 33.3625 324.7625Q34.065624 325.48126 35.096874 325.48126Q35.878124 325.48126 36.425 325.075Q36.971874 324.66876 37.284374 323.77814ZM32.675 321.4969L37.3 321.4969Q37.20625 320.45 36.76875 319.9344Q36.096874 319.1219 35.034374 319.1219Q34.065624 319.1219 33.39375 319.77814Q32.7375 320.41876 32.675 321.4969ZM40.58125 326.45L40.58125 314.9969L41.9875 314.9969L41.9875 326.45L40.58125 326.45ZM44.6125 316.60626L44.6125 314.9969L46.01875 314.9969L46.01875 316.60626L44.6125 316.60626ZM44.6125 326.45L44.6125 318.15314L46.01875 318.15314L46.01875 326.45L44.6125 326.45ZM48.346874 327.1375L49.721874 327.34064Q49.8 327.98126 50.190624 328.2625Q50.721874 328.65314 51.628124 328.65314Q52.596874 328.65314 53.128124 328.2625Q53.659374 327.8719 53.846874 327.16876Q53.95625 326.7469 53.95625 325.35626Q53.034374 326.45 51.659374 326.45Q49.940624 326.45 49.003124 325.21564Q48.065624 323.98126 48.065624 322.2469Q48.065624 321.0594 48.4875 320.0594Q48.925 319.0594 49.7375 318.5125Q50.565624 317.96564 51.659374 317.96564Q53.128124 317.96564 54.08125 319.15314L54.08125 318.15314L55.378124 318.15314L55.378124 325.325Q55.378124 327.2625 54.9875 328.075Q54.596874 328.8875 53.7375 329.35626Q52.878124 329.825 51.628124 329.825Q50.14375 329.825 49.221874 329.15314Q48.315624 328.48126 48.346874 327.1375ZM49.51875 322.15314Q49.51875 323.77814 50.159374 324.52814Q50.815624 325.27814 51.784374 325.27814Q52.753124 325.27814 53.409374 324.54376Q54.065624 323.79376 54.065624 322.2Q54.065624 320.66876 53.39375 319.90314Q52.721874 319.1219 51.76875 319.1219Q50.83125 319.1219 50.175 319.8875Q49.51875 320.65314 49.51875 322.15314ZM57.6125 316.60626L57.6125 314.9969L59.01875 314.9969L59.01875 316.60626L57.6125 316.60626ZM57.6125 326.45L57.6125 318.15314L59.01875 318.15314L59.01875 326.45L57.6125 326.45ZM61.08125 322.29376Q61.08125 319.9969 62.3625 318.8875Q63.440624 317.96564 64.97188 317.96564Q66.69063 317.96564 67.76875 319.09064Q68.8625 320.2 68.8625 322.1844Q68.8625 323.77814 68.37813 324.7Q67.89375 325.6219 66.97188 326.1375Q66.06563 326.6375 64.97188 326.6375Q63.2375 326.6375 62.159374 325.52814Q61.08125 324.40314 61.08125 322.29376ZM62.534374 322.29376Q62.534374 323.8875 63.221874 324.6844Q63.925 325.48126 64.97188 325.48126Q66.01875 325.48126 66.70625 324.6844Q67.40938 323.8875 67.40938 322.2469Q67.40938 320.71564 66.70625 319.91876Q66.01875 319.1219 64.97188 319.1219Q63.925 319.1219 63.221874 319.91876Q62.534374 320.7 62.534374 322.29376ZM76.05 326.45L76.05 325.23126Q75.08125 326.6375 73.40938 326.6375Q72.675 326.6375 72.03438 326.35626Q71.40938 326.075 71.09688 325.65314Q70.78438 325.21564 70.65938 324.60626Q70.58125 324.1844 70.58125 323.29376L70.58125 318.15314L71.9875 318.15314L71.9875 322.7469Q71.9875 323.85626 72.06563 324.23126Q72.20625 324.79376 72.62813 325.10626Q73.06563 325.41876 73.69063 325.41876Q74.33125 325.41876 74.87813 325.10626Q75.44063 324.77814 75.65938 324.21564Q75.89375 323.65314 75.89375 322.59064L75.89375 318.15314L77.3 318.15314L77.3 326.45L76.05 326.45ZM79.05 323.96564L80.44063 323.7469Q80.55 324.59064 81.08125 325.04376Q81.62813 325.48126 82.58125 325.48126Q83.55 325.48126 84.01875 325.09064Q84.4875 324.6844 84.4875 324.15314Q84.4875 323.6844 84.08125 323.40314Q83.78438 323.21564 82.64375 322.9344Q81.09688 322.54376 80.4875 322.2625Q79.89375 321.96564 79.58125 321.46564Q79.28438 320.96564 79.28438 320.35626Q79.28438 319.79376 79.53438 319.325Q79.78438 318.85626 80.22188 318.54376Q80.55 318.29376 81.1125 318.1375Q81.69063 317.96564 82.33125 317.96564Q83.31563 317.96564 84.05 318.2469Q84.78438 318.52814 85.12813 319.0125Q85.4875 319.48126 85.62813 320.29376L84.25313 320.48126Q84.15938 319.84064 83.70625 319.48126Q83.25313 319.1219 82.44063 319.1219Q81.47188 319.1219 81.05 319.45Q80.64375 319.7625 80.64375 320.1844Q80.64375 320.46564 80.81563 320.6844Q80.9875 320.90314 81.34688 321.0594Q81.56563 321.1375 82.59688 321.41876Q84.08125 321.8094 84.675 322.075Q85.26875 322.325 85.59688 322.8094Q85.94063 323.29376 85.94063 324.0125Q85.94063 324.71564 85.51875 325.34064Q85.1125 325.95 84.33125 326.29376Q83.56563 326.6375 82.59688 326.6375Q80.97188 326.6375 80.12813 325.96564Q79.28438 325.29376 79.05 323.96564Z" fill-rule="nonzero"/><path fill="#9e9e9e" d="M23.721874 348.45L23.721874 345.7L18.753124 345.7L18.753124 344.41876L23.9875 336.9969L25.128124 336.9969L25.128124 344.41876L26.675 344.41876L26.675 345.7L25.128124 345.7L25.128124 348.45L23.721874 348.45ZM23.721874 344.41876L23.721874 339.2469L20.14375 344.41876L23.721874 344.41876ZM29.003124 348.45L29.003124 346.84064L30.6125 346.84064L30.6125 348.45L29.003124 348.45ZM32.221874 345.45L33.690624 345.325Q33.8625 346.40314 34.45625 346.95Q35.05 347.48126 35.89375 347.48126Q36.909374 347.48126 37.6125 346.71564Q38.315624 345.95 38.315624 344.6844Q38.315624 343.48126 37.64375 342.79376Q36.971874 342.09064 35.878124 342.09064Q35.190624 342.09064 34.64375 342.40314Q34.096874 342.71564 33.784374 343.2L32.471874 343.02814L33.58125 337.15314L39.26875 337.15314L39.26875 338.4969L34.70625 338.4969L34.08125 341.575Q35.1125 340.85626 36.253124 340.85626Q37.753124 340.85626 38.784374 341.90314Q39.815624 342.9344 39.815624 344.5594Q39.815624 346.1219 38.909374 347.2469Q37.8 348.65314 35.89375 348.65314Q34.33125 348.65314 33.346874 347.77814Q32.3625 346.8875 32.221874 345.45ZM41.4875 339.7469Q41.4875 338.5125 42.096874 337.65314Q42.721874 336.79376 43.89375 336.79376Q44.971874 336.79376 45.675 337.575Q46.378124 338.34064 46.378124 339.825Q46.378124 341.27814 45.659374 342.075Q44.95625 342.85626 43.909374 342.85626Q42.8625 342.85626 42.175 342.09064Q41.4875 341.3094 41.4875 339.7469ZM43.925 337.7625Q43.409374 337.7625 43.05 338.21564Q42.70625 338.66876 42.70625 339.8875Q42.70625 340.98126 43.05 341.4344Q43.409374 341.8875 43.925 341.8875Q44.45625 341.8875 44.8 341.4344Q45.159374 340.98126 45.159374 339.77814Q45.159374 338.66876 44.8 338.21564Q44.45625 337.7625 43.925 337.7625ZM43.940624 348.8719L50.20625 336.79376L51.346874 336.79376L45.096874 348.8719L43.940624 348.8719ZM48.89375 345.7625Q48.89375 344.52814 49.503124 343.66876Q50.128124 342.8094 51.3 342.8094Q52.378124 342.8094 53.08125 343.59064Q53.8 344.35626 53.8 345.84064Q53.8 347.29376 53.08125 348.09064Q52.3625 348.8719 51.315624 348.8719Q50.26875 348.8719 49.58125 348.09064Q48.89375 347.3094 48.89375 345.7625ZM51.346874 343.77814Q50.815624 343.77814 50.45625 344.23126Q50.1125 344.6844 50.1125 345.90314Q50.1125 346.9969 50.45625 347.45Q50.815624 347.90314 51.33125 347.90314Q51.878124 347.90314 52.221874 347.45Q52.565624 346.9969 52.565624 345.79376Q52.565624 344.6844 52.20625 344.23126Q51.8625 343.77814 51.346874 343.77814Z" fill-rule="nonzero"/><path stroke="#757575" stroke-width="1.0" stroke-linecap="butt" d="M18.55 331.95L145.23334 331.95L260.1832 339.28687" fill-rule="nonzero"/><path fill="#9e9e9e" d="M262.1832 339.28687C262.1832 338.1823 261.28778 337.28687 260.1832 337.28687C259.07864 337.28687 258.1832 338.1823 258.1832 339.28687C258.1832 340.39145 259.07864 341.28687 260.1832 341.28687C261.28778 341.28687 262.1832 340.39145 262.1832 339.28687" fill-rule="nonzero"/><path fill="#efefef" d="M481.71564 79.290375L481.71564 67.83725L489.9969 67.83725L489.9969 69.181L483.23126 69.181L483.23126 72.696625L489.575 72.696625L489.575 74.040375L483.23126 74.040375L483.23126 77.931L490.2625 77.931L490.2625 79.290375L481.71564 79.290375ZM495.575 78.02475L495.77814 79.27475Q495.1844 79.39975 494.71564 79.39975Q493.95 79.39975 493.52814 79.165375Q493.10626 78.915375 492.9344 78.52475Q492.7625 78.1185 492.7625 76.852875L492.7625 72.08725L491.73126 72.08725L491.73126 70.9935L492.7625 70.9935L492.7625 68.931L494.16876 68.08725L494.16876 70.9935L495.575 70.9935L495.575 72.08725L494.16876 72.08725L494.16876 76.931Q494.16876 77.540375 494.23126 77.71225Q494.3094 77.884125 494.48126 77.9935Q494.65314 78.08725 494.96564 78.08725Q495.2 78.08725 495.575 78.02475ZM496.5125 79.290375L496.5125 67.83725L497.91876 67.83725L497.91876 71.946625Q498.90314 70.806 500.40314 70.806Q501.325 70.806 501.9969 71.165375Q502.6844 71.52475 502.96564 72.165375Q503.2625 72.806 503.2625 74.02475L503.2625 79.290375L501.85626 79.290375L501.85626 74.02475Q501.85626 72.977875 501.40314 72.4935Q500.95 72.009125 500.10626 72.009125Q499.48126 72.009125 498.9344 72.33725Q498.3875 72.665375 498.15314 73.227875Q497.91876 73.77475 497.91876 74.7435L497.91876 79.290375L496.5125 79.290375ZM505.5125 79.290375L505.5125 70.9935L506.77814 70.9935L506.77814 72.165375Q507.6844 70.806 509.41876 70.806Q510.16876 70.806 510.79376 71.071625Q511.41876 71.33725 511.73126 71.77475Q512.04376 72.21225 512.16876 72.821625Q512.2469 73.21225 512.2469 74.181L512.2469 79.290375L510.84064 79.290375L510.84064 74.2435Q510.84064 73.384125 510.66876 72.96225Q510.5125 72.52475 510.09064 72.27475Q509.6844 72.02475 509.1219 72.02475Q508.21564 72.02475 507.5594 72.602875Q506.91876 73.165375 506.91876 74.759125L506.91876 79.290375L505.5125 79.290375ZM514.5125 69.446625L514.5125 67.83725L515.91876 67.83725L515.91876 69.446625L514.5125 69.446625ZM514.5125 79.290375L514.5125 70.9935L515.91876 70.9935L515.91876 79.290375L514.5125 79.290375ZM523.91876 76.2435L525.3094 76.431Q525.075 77.852875 524.1375 78.665375Q523.21564 79.477875 521.85626 79.477875Q520.15314 79.477875 519.10626 78.3685Q518.075 77.2435 518.075 75.165375Q518.075 73.821625 518.5125 72.821625Q518.96564 71.806 519.8719 71.306Q520.79376 70.806 521.85626 70.806Q523.21564 70.806 524.075 71.4935Q524.9344 72.165375 525.16876 73.431L523.8094 73.634125Q523.60626 72.806 523.10626 72.384125Q522.6219 71.96225 521.91876 71.96225Q520.85626 71.96225 520.1844 72.727875Q519.52814 73.477875 519.52814 75.134125Q519.52814 76.806 520.16876 77.571625Q520.8094 78.321625 521.84064 78.321625Q522.66876 78.321625 523.21564 77.821625Q523.77814 77.306 523.91876 76.2435ZM536.04376 74.790375L536.04376 73.446625L540.90314 73.446625L540.90314 77.696625Q539.77814 78.58725 538.59064 79.040375Q537.40314 79.4935 536.15314 79.4935Q534.46564 79.4935 533.09064 78.77475Q531.71564 78.040375 531.0125 76.681Q530.3094 75.306 530.3094 73.6185Q530.3094 71.946625 530.9969 70.4935Q531.7 69.040375 533.0125 68.33725Q534.325 67.634125 536.04376 67.634125Q537.27814 67.634125 538.27814 68.040375Q539.29376 68.446625 539.85626 69.165375Q540.4344 69.884125 540.73126 71.040375L539.35626 71.415375Q539.10626 70.540375 538.71564 70.040375Q538.34064 69.540375 537.6219 69.2435Q536.91876 68.931 536.04376 68.931Q535.0125 68.931 534.2469 69.259125Q533.4969 69.571625 533.02814 70.08725Q532.5594 70.602875 532.3094 71.21225Q531.8719 72.27475 531.8719 73.52475Q531.8719 75.056 532.3875 76.08725Q532.91876 77.1185 533.91876 77.6185Q534.9344 78.1185 536.075 78.1185Q537.0594 78.1185 537.9969 77.7435Q538.9344 77.352875 539.41876 76.931L539.41876 74.790375L536.04376 74.790375ZM542.4969 79.290375L542.4969 70.9935L543.7625 70.9935L543.7625 72.2435Q544.2469 71.3685 544.65314 71.08725Q545.0594 70.806 545.5594 70.806Q546.2625 70.806 546.9969 71.259125L546.5125 72.556Q545.9969 72.259125 545.48126 72.259125Q545.02814 72.259125 544.65314 72.540375Q544.29376 72.806 544.1375 73.306Q543.90314 74.056 543.90314 74.946625L543.90314 79.290375L542.4969 79.290375ZM546.98126 75.134125Q546.98126 72.83725 548.2625 71.727875Q549.34064 70.806 550.8719 70.806Q552.59064 70.806 553.66876 71.931Q554.7625 73.040375 554.7625 75.02475Q554.7625 76.6185 554.27814 77.540375Q553.79376 78.46225 552.8719 78.977875Q551.96564 79.477875 550.8719 79.477875Q549.1375 79.477875 548.0594 78.3685Q546.98126 77.2435 546.98126 75.134125ZM548.4344 75.134125Q548.4344 76.727875 549.1219 77.52475Q549.825 78.321625 550.8719 78.321625Q551.91876 78.321625 552.60626 77.52475Q553.3094 76.727875 553.3094 75.08725Q553.3094 73.556 552.60626 72.759125Q551.91876 71.96225 550.8719 71.96225Q549.825 71.96225 549.1219 72.759125Q548.4344 73.540375 548.4344 75.134125ZM561.95 79.290375L561.95 78.071625Q560.98126 79.477875 559.3094 79.477875Q558.575 79.477875 557.9344 79.196625Q557.3094 78.915375 556.9969 78.4935Q556.6844 78.056 556.5594 77.446625Q556.48126 77.02475 556.48126 76.134125L556.48126 70.9935L557.8875 70.9935L557.8875 75.58725Q557.8875 76.696625 557.96564 77.071625Q558.10626 77.634125 558.52814 77.946625Q558.96564 78.259125 559.59064 78.259125Q560.23126 78.259125 560.77814 77.946625Q561.34064 77.6185 561.5594 77.056Q561.79376 76.4935 561.79376 75.431L561.79376 70.9935L563.2 70.9935L563.2 79.290375L561.95 79.290375ZM565.5125 82.477875L565.5125 70.9935L566.79376 70.9935L566.79376 72.071625Q567.2469 71.431 567.8094 71.1185Q568.3875 70.806 569.2 70.806Q570.2625 70.806 571.075 71.352875Q571.8875 71.89975 572.29376 72.89975Q572.71564 73.884125 572.71564 75.071625Q572.71564 76.352875 572.2469 77.3685Q571.79376 78.384125 570.91876 78.931Q570.0594 79.477875 569.09064 79.477875Q568.3875 79.477875 567.825 79.181Q567.27814 78.884125 566.91876 78.431L566.91876 82.477875L565.5125 82.477875ZM566.77814 75.181Q566.77814 76.790375 567.41876 77.556Q568.075 78.321625 568.9969 78.321625Q569.9344 78.321625 570.60626 77.52475Q571.27814 76.727875 571.27814 75.071625Q571.27814 73.477875 570.6219 72.696625Q569.96564 71.89975 569.0594 71.89975Q568.16876 71.89975 567.46564 72.7435Q566.77814 73.58725 566.77814 75.181ZM573.95 76.806L575.34064 76.58725Q575.45 77.431 575.98126 77.884125Q576.52814 78.321625 577.48126 78.321625Q578.45 78.321625 578.91876 77.931Q579.3875 77.52475 579.3875 76.9935Q579.3875 76.52475 578.98126 76.2435Q578.6844 76.056 577.54376 75.77475Q575.9969 75.384125 575.3875 75.102875Q574.79376 74.806 574.48126 74.306Q574.1844 73.806 574.1844 73.196625Q574.1844 72.634125 574.4344 72.165375Q574.6844 71.696625 575.1219 71.384125Q575.45 71.134125 576.0125 70.977875Q576.59064 70.806 577.23126 70.806Q578.21564 70.806 578.95 71.08725Q579.6844 71.3685 580.02814 71.852875Q580.3875 72.321625 580.52814 73.134125L579.15314 73.321625Q579.0594 72.681 578.60626 72.321625Q578.15314 71.96225 577.34064 71.96225Q576.3719 71.96225 575.95 72.290375Q575.54376 72.602875 575.54376 73.02475Q575.54376 73.306 575.71564 73.52475Q575.8875 73.7435 576.2469 73.89975Q576.46564 73.977875 577.4969 74.259125Q578.98126 74.64975 579.575 74.915375Q580.16876 75.165375 580.4969 75.64975Q580.84064 76.134125 580.84064 76.852875Q580.84064 77.556 580.41876 78.181Q580.0125 78.790375 579.23126 79.134125Q578.46564 79.477875 577.4969 79.477875Q575.8719 79.477875 575.02814 78.806Q574.1844 78.134125 573.95 76.806Z" fill-rule="nonzero"/><path fill="#9e9e9e" d="M542.41876 101.290375L541.0125 101.290375L541.0125 92.321625Q540.4969 92.806 539.66876 93.290375Q538.85626 93.77475 538.2 94.02475L538.2 92.665375Q539.3719 92.102875 540.2469 91.321625Q541.1375 90.52475 541.5125 89.790375L542.41876 89.790375L542.41876 101.290375ZM548.27814 95.071625Q547.40314 94.759125 546.98126 94.165375Q546.5594 93.571625 546.5594 92.7435Q546.5594 91.4935 547.45 90.64975Q548.35626 89.790375 549.85626 89.790375Q551.35626 89.790375 552.2625 90.665375Q553.1844 91.52475 553.1844 92.77475Q553.1844 93.571625 552.7625 94.165375Q552.34064 94.759125 551.4969 95.071625Q552.54376 95.415375 553.09064 96.181Q553.65314 96.946625 553.65314 98.009125Q553.65314 99.477875 552.60626 100.4935Q551.575 101.4935 549.8719 101.4935Q548.1844 101.4935 547.1375 100.4935Q546.10626 99.477875 546.10626 97.977875Q546.10626 96.852875 546.66876 96.102875Q547.23126 95.352875 548.27814 95.071625ZM547.9969 92.696625Q547.9969 93.509125 548.5125 94.02475Q549.04376 94.540375 549.8875 94.540375Q550.7 94.540375 551.21564 94.02475Q551.73126 93.509125 551.73126 92.77475Q551.73126 91.9935 551.2 91.477875Q550.66876 90.946625 549.8719 90.946625Q549.0594 90.946625 548.52814 91.46225Q547.9969 91.977875 547.9969 92.696625ZM547.54376 97.977875Q547.54376 98.58725 547.825 99.14975Q548.1219 99.71225 548.6844 100.02475Q549.2469 100.321625 549.8875 100.321625Q550.90314 100.321625 551.5594 99.681Q552.21564 99.02475 552.21564 98.02475Q552.21564 97.009125 551.52814 96.352875Q550.85626 95.681 549.84064 95.681Q548.85626 95.681 548.2 96.33725Q547.54376 96.9935 547.54376 97.977875ZM555.90314 101.290375L555.90314 99.681L557.5125 99.681L557.5125 101.290375L555.90314 101.290375ZM566.5125 99.931L566.5125 101.290375L558.9344 101.290375Q558.91876 100.77475 559.10626 100.306Q559.3875 99.540375 560.02814 98.790375Q560.66876 98.040375 561.8719 97.056Q563.73126 95.52475 564.3875 94.634125Q565.04376 93.727875 565.04376 92.931Q565.04376 92.102875 564.45 91.52475Q563.85626 90.946625 562.8875 90.946625Q561.8719 90.946625 561.2625 91.556Q560.65314 92.165375 560.65314 93.2435L559.2 93.102875Q559.35626 91.477875 560.325 90.634125Q561.29376 89.790375 562.91876 89.790375Q564.575 89.790375 565.52814 90.71225Q566.4969 91.6185 566.4969 92.96225Q566.4969 93.64975 566.21564 94.321625Q565.9344 94.977875 565.27814 95.71225Q564.6219 96.446625 563.10626 97.727875Q561.84064 98.790375 561.48126 99.181Q561.1219 99.556 560.8875 99.931L566.5125 99.931ZM568.3875 92.58725Q568.3875 91.352875 568.9969 90.4935Q569.6219 89.634125 570.79376 89.634125Q571.8719 89.634125 572.575 90.415375Q573.27814 91.181 573.27814 92.665375Q573.27814 94.1185 572.5594 94.915375Q571.85626 95.696625 570.8094 95.696625Q569.7625 95.696625 569.075 94.931Q568.3875 94.14975 568.3875 92.58725ZM570.825 90.602875Q570.3094 90.602875 569.95 91.056Q569.60626 91.509125 569.60626 92.727875Q569.60626 93.821625 569.95 94.27475Q570.3094 94.727875 570.825 94.727875Q571.35626 94.727875 571.7 94.27475Q572.0594 93.821625 572.0594 92.6185Q572.0594 91.509125 571.7 91.056Q571.35626 90.602875 570.825 90.602875ZM570.84064 101.71225L577.10626 89.634125L578.2469 89.634125L571.9969 101.71225L570.84064 101.71225ZM575.79376 98.602875Q575.79376 97.3685 576.40314 96.509125Q577.02814 95.64975 578.2 95.64975Q579.27814 95.64975 579.98126 96.431Q580.7 97.196625 580.7 98.681Q580.7 100.134125 579.98126 100.931Q579.2625 101.71225 578.21564 101.71225Q577.16876 101.71225 576.48126 100.931Q575.79376 100.14975 575.79376 98.602875ZM578.2469 96.6185Q577.71564 96.6185 577.35626 97.071625Q577.0125 97.52475 577.0125 98.7435Q577.0125 99.83725 577.35626 100.290375Q577.71564 100.7435 578.23126 100.7435Q578.77814 100.7435 579.1219 100.290375Q579.46564 99.83725 579.46564 98.634125Q579.46564 97.52475 579.10626 97.071625Q578.7625 96.6185 578.2469 96.6185Z" fill-rule="nonzero"/><path stroke="#757575" stroke-width="1.0" stroke-linecap="butt" d="M581.45 84.790375L454.76666 84.790375L376.40787 84.790375" fill-rule="nonzero"/><path fill="#9e9e9e" d="M378.40787 84.790375C378.40787 83.68581 377.51242 82.790375 376.40787 82.790375C375.30328 82.790375 374.40787 83.68581 374.40787 84.790375C374.40787 85.89494 375.30328 86.790375 376.40787 86.790375C377.51242 86.790375 378.40787 85.89494 378.40787 84.790375" fill-rule="nonzero"/><path fill="#efefef" d="M495.85626 278.8626L497.3719 279.2376Q496.90314 281.1126 495.65314 282.097Q494.41876 283.08136 492.6375 283.08136Q490.77814 283.08136 489.6219 282.33136Q488.46564 281.56573 487.85626 280.14386Q487.2469 278.70636 487.2469 277.06573Q487.2469 275.26886 487.9344 273.94073Q488.6219 272.6126 489.8719 271.9251Q491.1375 271.222 492.65314 271.222Q494.3719 271.222 495.54376 272.097Q496.71564 272.972 497.1844 274.56573L495.6844 274.9095Q495.29376 273.6595 494.52814 273.097Q493.77814 272.51886 492.6219 272.51886Q491.3094 272.51886 490.41876 273.1595Q489.52814 273.7845 489.16876 274.8626Q488.8094 275.9251 488.8094 277.0501Q488.8094 278.51886 489.23126 279.6126Q489.66876 280.69073 490.5594 281.2376Q491.46564 281.76886 492.5125 281.76886Q493.77814 281.76886 494.65314 281.0345Q495.54376 280.3001 495.85626 278.8626ZM504.95 282.87823L504.95 281.6595Q503.98126 283.06573 502.3094 283.06573Q501.575 283.06573 500.9344 282.7845Q500.3094 282.50323 499.9969 282.08136Q499.6844 281.64386 499.5594 281.0345Q499.48126 280.6126 499.48126 279.722L499.48126 274.58136L500.8875 274.58136L500.8875 279.1751Q500.8875 280.2845 500.96564 280.6595Q501.10626 281.222 501.52814 281.5345Q501.96564 281.847 502.59064 281.847Q503.23126 281.847 503.77814 281.5345Q504.34064 281.20636 504.5594 280.64386Q504.79376 280.08136 504.79376 279.01886L504.79376 274.58136L506.2 274.58136L506.2 282.87823L504.95 282.87823ZM508.48126 282.87823L508.48126 271.4251L509.8875 271.4251L509.8875 282.87823L508.48126 282.87823ZM515.575 281.6126L515.77814 282.8626Q515.1844 282.9876 514.71564 282.9876Q513.95 282.9876 513.52814 282.75323Q513.10626 282.50323 512.9344 282.1126Q512.7625 281.70636 512.7625 280.44073L512.7625 275.6751L511.73126 275.6751L511.73126 274.58136L512.7625 274.58136L512.7625 272.51886L514.16876 271.6751L514.16876 274.58136L515.575 274.58136L515.575 275.6751L514.16876 275.6751L514.16876 280.51886Q514.16876 281.12823 514.23126 281.3001Q514.3094 281.472 514.48126 281.58136Q514.65314 281.6751 514.96564 281.6751Q515.2 281.6751 515.575 281.6126ZM521.95 282.87823L521.95 281.6595Q520.98126 283.06573 519.3094 283.06573Q518.575 283.06573 517.9344 282.7845Q517.3094 282.50323 516.9969 282.08136Q516.6844 281.64386 516.5594 281.0345Q516.48126 280.6126 516.48126 279.722L516.48126 274.58136L517.8875 274.58136L517.8875 279.1751Q517.8875 280.2845 517.96564 280.6595Q518.10626 281.222 518.52814 281.5345Q518.96564 281.847 519.59064 281.847Q520.23126 281.847 520.77814 281.5345Q521.34064 281.20636 521.5594 280.64386Q521.79376 280.08136 521.79376 279.01886L521.79376 274.58136L523.2 274.58136L523.2 282.87823L521.95 282.87823ZM525.4969 282.87823L525.4969 274.58136L526.7625 274.58136L526.7625 275.83136Q527.2469 274.95636 527.65314 274.6751Q528.0594 274.39386 528.5594 274.39386Q529.2625 274.39386 529.9969 274.847L529.5125 276.14386Q528.9969 275.847 528.48126 275.847Q528.02814 275.847 527.65314 276.12823Q527.29376 276.39386 527.1375 276.89386Q526.90314 277.64386 526.90314 278.5345L526.90314 282.87823L525.4969 282.87823ZM535.91876 281.847Q535.1375 282.51886 534.41876 282.8001Q533.7 283.06573 532.8719 283.06573Q531.4969 283.06573 530.7625 282.39386Q530.02814 281.722 530.02814 280.69073Q530.02814 280.08136 530.3094 279.58136Q530.59064 279.06573 531.02814 278.76886Q531.48126 278.45636 532.04376 278.3001Q532.46564 278.19073 533.29376 278.097Q534.9969 277.89386 535.8094 277.6126Q535.8094 277.31573 535.8094 277.2376Q535.8094 276.37823 535.41876 276.0345Q534.8719 275.5501 533.8094 275.5501Q532.825 275.5501 532.34064 275.9095Q531.8719 276.25323 531.65314 277.12823L530.27814 276.94073Q530.46564 276.06573 530.8875 275.51886Q531.325 274.972 532.1375 274.69073Q532.95 274.39386 534.0125 274.39386Q535.075 274.39386 535.73126 274.64386Q536.40314 274.89386 536.71564 275.26886Q537.02814 275.64386 537.15314 276.222Q537.23126 276.58136 537.23126 277.51886L537.23126 279.39386Q537.23126 281.3626 537.3094 281.87823Q537.40314 282.39386 537.66876 282.87823L536.2 282.87823Q535.98126 282.44073 535.91876 281.847ZM535.8094 278.70636Q535.04376 279.01886 533.5125 279.2376Q532.6375 279.3626 532.27814 279.51886Q531.91876 279.6751 531.71564 279.9876Q531.52814 280.2845 531.52814 280.64386Q531.52814 281.20636 531.95 281.58136Q532.3875 281.95636 533.2 281.95636Q534.0125 281.95636 534.6375 281.6126Q535.27814 281.25323 535.575 280.62823Q535.8094 280.1595 535.8094 279.222L535.8094 278.70636ZM539.48126 282.87823L539.48126 271.4251L540.8875 271.4251L540.8875 282.87823L539.48126 282.87823ZM546.41876 282.87823L550.825 271.4251L552.46564 271.4251L557.15314 282.87823L555.41876 282.87823L554.09064 279.4095L549.29376 279.4095L548.04376 282.87823L546.41876 282.87823ZM549.73126 278.1751L553.6219 278.1751L552.41876 275.00323Q551.8719 273.5501 551.60626 272.62823Q551.3875 273.722 550.9969 274.81573L549.73126 278.1751ZM563.91876 279.83136L565.3094 280.01886Q565.075 281.44073 564.1375 282.25323Q563.21564 283.06573 561.85626 283.06573Q560.15314 283.06573 559.10626 281.95636Q558.075 280.83136 558.075 278.75323Q558.075 277.4095 558.5125 276.4095Q558.96564 275.39386 559.8719 274.89386Q560.79376 274.39386 561.85626 274.39386Q563.21564 274.39386 564.075 275.08136Q564.9344 275.75323 565.16876 277.01886L563.8094 277.222Q563.60626 276.39386 563.10626 275.972Q562.6219 275.5501 561.91876 275.5501Q560.85626 275.5501 560.1844 276.31573Q559.52814 277.06573 559.52814 278.722Q559.52814 280.39386 560.16876 281.1595Q560.8094 281.9095 561.84064 281.9095Q562.66876 281.9095 563.21564 281.4095Q563.77814 280.89386 563.91876 279.83136ZM569.575 281.6126L569.77814 282.8626Q569.1844 282.9876 568.71564 282.9876Q567.95 282.9876 567.52814 282.75323Q567.10626 282.50323 566.9344 282.1126Q566.7625 281.70636 566.7625 280.44073L566.7625 275.6751L565.73126 275.6751L565.73126 274.58136L566.7625 274.58136L566.7625 272.51886L568.16876 271.6751L568.16876 274.58136L569.575 274.58136L569.575 275.6751L568.16876 275.6751L568.16876 280.51886Q568.16876 281.12823 568.23126 281.3001Q568.3094 281.472 568.48126 281.58136Q568.65314 281.6751 568.96564 281.6751Q569.2 281.6751 569.575 281.6126ZM569.95 280.39386L571.34064 280.1751Q571.45 281.01886 571.98126 281.472Q572.52814 281.9095 573.48126 281.9095Q574.45 281.9095 574.91876 281.51886Q575.3875 281.1126 575.3875 280.58136Q575.3875 280.1126 574.98126 279.83136Q574.6844 279.64386 573.54376 279.3626Q571.9969 278.972 571.3875 278.69073Q570.79376 278.39386 570.48126 277.89386Q570.1844 277.39386 570.1844 276.7845Q570.1844 276.222 570.4344 275.75323Q570.6844 275.2845 571.1219 274.972Q571.45 274.722 572.0125 274.56573Q572.59064 274.39386 573.23126 274.39386Q574.21564 274.39386 574.95 274.6751Q575.6844 274.95636 576.02814 275.44073Q576.3875 275.9095 576.52814 276.722L575.15314 276.9095Q575.0594 276.26886 574.60626 275.9095Q574.15314 275.5501 573.34064 275.5501Q572.3719 275.5501 571.95 275.87823Q571.54376 276.19073 571.54376 276.6126Q571.54376 276.89386 571.71564 277.1126Q571.8875 277.33136 572.2469 277.4876Q572.46564 277.56573 573.4969 277.847Q574.98126 278.2376 575.575 278.50323Q576.16876 278.75323 576.4969 279.2376Q576.84064 279.722 576.84064 280.44073Q576.84064 281.14386 576.41876 281.76886Q576.0125 282.37823 575.23126 282.722Q574.46564 283.06573 573.4969 283.06573Q571.8719 283.06573 571.02814 282.39386Q570.1844 281.722 569.95 280.39386ZM578.90314 282.87823L578.90314 281.26886L580.5125 281.26886L580.5125 282.87823L578.90314 282.87823Z" fill-rule="nonzero"/><path fill="#9e9e9e" d="M537.1219 301.847L538.52814 301.6595Q538.77814 302.8626 539.35626 303.39386Q539.9344 303.9095 540.77814 303.9095Q541.7625 303.9095 542.45 303.222Q543.1375 302.5345 543.1375 301.51886Q543.1375 300.5501 542.4969 299.9251Q541.8719 299.3001 540.8875 299.3001Q540.4969 299.3001 539.90314 299.45636L540.0594 298.222Q540.2 298.2376 540.27814 298.2376Q541.1844 298.2376 541.90314 297.76886Q542.6219 297.3001 542.6219 296.31573Q542.6219 295.5501 542.09064 295.0501Q541.575 294.5345 540.7469 294.5345Q539.91876 294.5345 539.3719 295.0501Q538.825 295.56573 538.66876 296.597L537.2625 296.347Q537.52814 294.9251 538.4344 294.1595Q539.35626 293.37823 540.71564 293.37823Q541.65314 293.37823 542.4344 293.7845Q543.23126 294.1751 543.6375 294.87823Q544.0594 295.56573 544.0594 296.347Q544.0594 297.097 543.65314 297.70636Q543.2625 298.31573 542.48126 298.6751Q543.4969 298.9095 544.0594 299.64386Q544.6219 300.37823 544.6219 301.4876Q544.6219 302.9876 543.52814 304.0345Q542.4344 305.08136 540.7625 305.08136Q539.2625 305.08136 538.2625 304.19073Q537.2625 303.2845 537.1219 301.847ZM550.6219 304.87823L550.6219 302.12823L545.65314 302.12823L545.65314 300.847L550.8875 293.4251L552.02814 293.4251L552.02814 300.847L553.575 300.847L553.575 302.12823L552.02814 302.12823L552.02814 304.87823L550.6219 304.87823ZM550.6219 300.847L550.6219 295.6751L547.04376 300.847L550.6219 300.847ZM555.90314 304.87823L555.90314 303.26886L557.5125 303.26886L557.5125 304.87823L555.90314 304.87823ZM564.41876 304.87823L563.0125 304.87823L563.0125 295.9095Q562.4969 296.39386 561.66876 296.87823Q560.85626 297.3626 560.2 297.6126L560.2 296.25323Q561.3719 295.69073 562.2469 294.9095Q563.1375 294.1126 563.5125 293.37823L564.41876 293.37823L564.41876 304.87823ZM568.3875 296.1751Q568.3875 294.94073 568.9969 294.08136Q569.6219 293.222 570.79376 293.222Q571.8719 293.222 572.575 294.00323Q573.27814 294.76886 573.27814 296.25323Q573.27814 297.70636 572.5594 298.50323Q571.85626 299.2845 570.8094 299.2845Q569.7625 299.2845 569.075 298.51886Q568.3875 297.7376 568.3875 296.1751ZM570.825 294.19073Q570.3094 294.19073 569.95 294.64386Q569.60626 295.097 569.60626 296.31573Q569.60626 297.4095 569.95 297.8626Q570.3094 298.31573 570.825 298.31573Q571.35626 298.31573 571.7 297.8626Q572.0594 297.4095 572.0594 296.20636Q572.0594 295.097 571.7 294.64386Q571.35626 294.19073 570.825 294.19073ZM570.84064 305.3001L577.10626 293.222L578.2469 293.222L571.9969 305.3001L570.84064 305.3001ZM575.79376 302.19073Q575.79376 300.95636 576.40314 300.097Q577.02814 299.2376 578.2 299.2376Q579.27814 299.2376 579.98126 300.01886Q580.7 300.7845 580.7 302.26886Q580.7 303.722 579.98126 304.51886Q579.2625 305.3001 578.21564 305.3001Q577.16876 305.3001 576.48126 304.51886Q575.79376 303.7376 575.79376 302.19073ZM578.2469 300.20636Q577.71564 300.20636 577.35626 300.6595Q577.0125 301.1126 577.0125 302.33136Q577.0125 303.4251 577.35626 303.87823Q577.71564 304.33136 578.23126 304.33136Q578.77814 304.33136 579.1219 303.87823Q579.46564 303.4251 579.46564 302.222Q579.46564 301.1126 579.10626 300.6595Q578.7625 300.20636 578.2469 300.20636Z" fill-rule="nonzero"/><path stroke="#757575" stroke-width="1.0" stroke-linecap="butt" d="M581.45 288.37823L454.76666 288.37823L413.13916 288.37823" fill-rule="nonzero"/><path fill="#9e9e9e" d="M415.13916 288.37823C415.13916 287.27368 414.24374 286.37823 413.13916 286.37823C412.03458 286.37823 411.13916 287.27368 411.13916 288.37823C411.13916 289.48282 412.03458 290.37823 413.13916 290.37823C414.24374 290.37823 415.13916 289.48282 415.13916 288.37823" fill-rule="nonzero"/><path fill="#f3f3f3" d="M271.26562 32.534374L273.15625 33.003124Q272.5625 35.346874 271.01562 36.58125Q269.46875 37.8 267.21875 37.8Q264.90625 37.8 263.45312 36.8625Q262.01562 35.909374 261.25 34.128124Q260.5 32.33125 260.5 30.284374Q260.5 28.05 261.34375 26.39375Q262.20312 24.721874 263.78125 23.8625Q265.35938 22.9875 267.25 22.9875Q269.40625 22.9875 270.85938 24.08125Q272.32812 25.175 272.90625 27.159374L271.04688 27.596874Q270.54688 26.034374 269.59375 25.33125Q268.65625 24.6125 267.21875 24.6125Q265.5625 24.6125 264.45312 25.409374Q263.34375 26.190624 262.89062 27.534374Q262.45312 28.8625 262.45312 30.26875Q262.45312 32.096874 262.98438 33.471874Q263.51562 34.83125 264.64062 35.503124Q265.76562 36.175 267.0625 36.175Q268.65625 36.175 269.76562 35.253124Q270.875 34.33125 271.26562 32.534374ZM281.59375 36.26875Q280.60938 37.096874 279.70312 37.440624Q278.79688 37.784374 277.76562 37.784374Q276.0625 37.784374 275.14062 36.95625Q274.21875 36.1125 274.21875 34.815624Q274.21875 34.05 274.5625 33.425Q274.92188 32.8 275.48438 32.425Q276.04688 32.034374 276.75 31.83125Q277.26562 31.70625 278.3125 31.565624Q280.4375 31.315624 281.4375 30.971874Q281.45312 30.6125 281.45312 30.503124Q281.45312 29.440624 280.95312 28.9875Q280.28125 28.39375 278.95312 28.39375Q277.70312 28.39375 277.10938 28.83125Q276.53125 29.26875 276.25 30.378124L274.53125 30.14375Q274.76562 29.034374 275.29688 28.3625Q275.82812 27.675 276.84375 27.315624Q277.85938 26.940624 279.20312 26.940624Q280.53125 26.940624 281.35938 27.253124Q282.1875 27.565624 282.57812 28.05Q282.96875 28.51875 283.125 29.2375Q283.21875 29.690624 283.21875 30.8625L283.21875 33.20625Q283.21875 35.659374 283.32812 36.315624Q283.4375 36.95625 283.78125 37.55L281.9375 37.55Q281.67188 37.003124 281.59375 36.26875ZM281.4375 32.346874Q280.48438 32.7375 278.5625 33.003124Q277.48438 33.159374 277.03125 33.3625Q276.59375 33.55 276.34375 33.925Q276.09375 34.3 276.09375 34.76875Q276.09375 35.471874 276.625 35.940624Q277.15625 36.409374 278.1875 36.409374Q279.20312 36.409374 279.98438 35.971874Q280.78125 35.51875 281.15625 34.753124Q281.4375 34.14375 281.4375 32.9875L281.4375 32.346874ZM289.65625 35.971874L289.90625 37.534374Q289.17188 37.690624 288.57812 37.690624Q287.625 37.690624 287.09375 37.39375Q286.57812 37.08125 286.35938 36.596874Q286.14062 36.096874 286.14062 34.51875L286.14062 28.55L284.85938 28.55L284.85938 27.175L286.14062 27.175L286.14062 24.6125L287.89062 23.55L287.89062 27.175L289.65625 27.175L289.65625 28.55L287.89062 28.55L287.89062 34.6125Q287.89062 35.3625 287.98438 35.58125Q288.07812 35.784374 288.28125 35.925Q288.5 36.05 288.89062 36.05Q289.17188 36.05 289.65625 35.971874ZM298.92188 34.20625L300.73438 34.440624Q300.3125 36.01875 299.14062 36.909374Q297.98438 37.784374 296.17188 37.784374Q293.90625 37.784374 292.5625 36.39375Q291.23438 34.9875 291.23438 32.45625Q291.23438 29.83125 292.57812 28.39375Q293.92188 26.940624 296.07812 26.940624Q298.15625 26.940624 299.46875 28.3625Q300.79688 29.76875 300.79688 32.346874Q300.79688 32.503124 300.78125 32.815624L293.04688 32.815624Q293.14062 34.51875 294.01562 35.425Q294.89062 36.33125 296.1875 36.33125Q297.15625 36.33125 297.82812 35.83125Q298.51562 35.315624 298.92188 34.20625ZM293.14062 31.3625L298.9375 31.3625Q298.82812 30.065624 298.28125 29.409374Q297.4375 28.39375 296.09375 28.39375Q294.89062 28.39375 294.0625 29.20625Q293.23438 30.003124 293.14062 31.3625ZM302.5 38.409374L304.20312 38.659374Q304.3125 39.45625 304.79688 39.815624Q305.45312 40.3 306.59375 40.3Q307.8125 40.3 308.46875 39.815624Q309.14062 39.33125 309.375 38.45625Q309.51562 37.909374 309.5 36.190624Q308.34375 37.55 306.625 37.55Q304.48438 37.55 303.3125 36.003124Q302.14062 34.45625 302.14062 32.3Q302.14062 30.815624 302.67188 29.565624Q303.21875 28.315624 304.23438 27.628124Q305.26562 26.940624 306.64062 26.940624Q308.46875 26.940624 309.67188 28.425L309.67188 27.175L311.28125 27.175L311.28125 36.14375Q311.28125 38.565624 310.78125 39.565624Q310.29688 40.58125 309.21875 41.159374Q308.15625 41.753124 306.59375 41.753124Q304.75 41.753124 303.59375 40.925Q302.45312 40.096874 302.5 38.409374ZM303.95312 32.175Q303.95312 34.221874 304.76562 35.159374Q305.57812 36.096874 306.79688 36.096874Q308.0 36.096874 308.8125 35.159374Q309.64062 34.221874 309.64062 32.2375Q309.64062 30.33125 308.79688 29.3625Q307.95312 28.39375 306.76562 28.39375Q305.59375 28.39375 304.76562 29.346874Q303.95312 30.3 303.95312 32.175ZM313.17188 32.3625Q313.17188 29.4875 314.76562 28.096874Q316.10938 26.940624 318.03125 26.940624Q320.17188 26.940624 321.51562 28.346874Q322.875 29.753124 322.875 32.221874Q322.875 34.221874 322.28125 35.378124Q321.6875 36.51875 320.53125 37.159374Q319.39062 37.784374 318.03125 37.784374Q315.84375 37.784374 314.5 36.39375Q313.17188 34.9875 313.17188 32.3625ZM314.96875 32.3625Q314.96875 34.3625 315.82812 35.346874Q316.70312 36.33125 318.03125 36.33125Q319.34375 36.33125 320.20312 35.346874Q321.07812 34.346874 321.07812 32.3Q321.07812 30.378124 320.20312 29.39375Q319.32812 28.39375 318.03125 28.39375Q316.70312 28.39375 315.82812 29.39375Q314.96875 30.378124 314.96875 32.3625ZM324.79688 37.55L324.79688 27.175L326.375 27.175L326.375 28.753124Q326.98438 27.64375 327.5 27.3Q328.01562 26.940624 328.625 26.940624Q329.51562 26.940624 330.4375 27.503124L329.82812 29.14375Q329.1875 28.753124 328.54688 28.753124Q327.96875 28.753124 327.5 29.1125Q327.04688 29.45625 326.84375 30.065624Q326.5625 31.003124 326.5625 32.1125L326.5625 37.55L324.79688 37.55ZM331.73438 41.55L331.54688 39.89375Q332.125 40.05 332.54688 40.05Q333.14062 40.05 333.48438 39.846874Q333.84375 39.659374 334.0625 39.315624Q334.23438 39.05 334.60938 38.003124Q334.65625 37.846874 334.76562 37.565624L330.82812 27.175L332.71875 27.175L334.875 33.190624Q335.29688 34.33125 335.625 35.58125Q335.9375 34.378124 336.34375 33.221874L338.5625 27.175L340.32812 27.175L336.375 37.721874Q335.75 39.440624 335.39062 40.08125Q334.92188 40.95625 334.3125 41.346874Q333.71875 41.753124 332.875 41.753124Q332.35938 41.753124 331.73438 41.55Z" fill-rule="nonzero"/></svg>