<svg version="1.1" viewBox="0.0 0.0 600.0 371.0" fill="none" stroke="none" stroke-linecap="square" stroke-miterlimit="10" width="600" height="371" xmlns:xlink="http://www.w3.org/1999/xlink" xmlns="http://www.w3.org/2000/svg"><path fill="#ffffff" fill-opacity="0.0" d="M0 0L600.0 0L600.0 371.0L0 371.0L0 0Z" fill-rule="nonzero"/><path fill="#e5a345" d="M162.55753 260.61386C143.54372 214.71048 148.70126 162.34497 176.30504 121.033005C203.90881 79.72103 250.31451 54.916668 300.0 54.916668L300.0 166.49167C287.57864 166.49167 275.9772 172.69276 269.07626 183.02075C262.17532 193.34874 260.88593 206.44012 265.63937 217.91597Z" fill-rule="nonzero"/><path fill="#d8753e" d="M270.97705 349.5915C222.24628 339.89835 181.57133 306.51727 162.55753 260.61386L265.63937 217.91597C270.39282 229.39182 280.56155 237.73709 292.74426 240.16037Z" fill-rule="nonzero"/><path fill="#cf4366" d="M300.0 54.916668C356.64346 54.916668 408.372 87.08355 433.42477 137.88551C458.47754 188.68748 452.50687 249.30847 418.02454 294.24673C383.54218 339.185 326.53214 360.6421 270.97705 349.5915L292.74426 240.16037C306.63303 242.92302 320.88556 237.55875 329.50613 226.32419C338.1267 215.08961 339.6194 199.93437 333.3562 187.23389C327.09302 174.53339 314.16086 166.49167 300.0 166.49167Z" fill-rule="nonzero"/><path fill="#ffffff" d="M379.31128 217.05748L380.96753 216.91685Q381.15503 218.1356 381.8269 218.74498Q382.49878 219.35435 383.4519 219.35435Q384.59253 219.35435 385.37378 218.49498Q386.17065 217.6356 386.17065 216.1981Q386.17065 214.85435 385.40503 214.0731Q384.65503 213.29185 383.42065 213.29185Q382.65503 213.29185 382.03003 213.6356Q381.42065 213.97935 381.0769 214.54185L379.59253 214.33873L380.84253 207.72935L387.24878 207.72935L387.24878 209.22935L382.10815 209.22935L381.40503 212.6981Q382.5769 211.8856 383.84253 211.8856Q385.53003 211.8856 386.68628 213.05748Q387.85815 214.22935 387.85815 216.05748Q387.85815 217.80748 386.8269 219.08873Q385.59253 220.65123 383.4519 220.65123Q381.68628 220.65123 380.5769 219.66685Q379.46753 218.68248 379.31128 217.05748ZM389.31128 217.02623L390.90503 216.8231Q391.17065 218.16685 391.8269 218.7606Q392.48315 219.35435 393.42065 219.35435Q394.54565 219.35435 395.31128 218.58873Q396.0769 217.80748 396.0769 216.66685Q396.0769 215.5731 395.35815 214.86998Q394.65503 214.15123 393.56128 214.15123Q393.10815 214.15123 392.43628 214.33873L392.60815 212.9481Q392.7644 212.96373 392.87378 212.96373Q393.87378 212.96373 394.68628 212.43248Q395.49878 211.90123 395.49878 210.80748Q395.49878 209.93248 394.90503 209.36998Q394.31128 208.79185 393.3894 208.79185Q392.46753 208.79185 391.84253 209.36998Q391.23315 209.9481 391.06128 211.11998L389.48315 210.83873Q389.7644 209.24498 390.79565 208.36998Q391.8269 207.49498 393.35815 207.49498Q394.40503 207.49498 395.29565 207.9481Q396.18628 208.40123 396.65503 209.18248Q397.12378 209.96373 397.12378 210.83873Q397.12378 211.68248 396.67065 212.36998Q396.23315 213.04185 395.34253 213.4481Q396.48315 213.71373 397.10815 214.55748Q397.74878 215.3856 397.74878 216.61998Q397.74878 218.30748 396.5144 219.49498Q395.29565 220.66685 393.42065 220.66685Q391.71753 220.66685 390.59253 219.65123Q389.48315 218.6356 389.31128 217.02623ZM400.2019 220.43248L400.2019 218.6356L401.99878 218.6356L401.99878 220.43248L400.2019 220.43248ZM410.2644 220.43248L408.68628 220.43248L408.68628 210.35435Q408.10815 210.90123 407.18628 211.4481Q406.2644 211.97935 405.5144 212.2606L405.5144 210.72935Q406.84253 210.10435 407.84253 209.21373Q408.84253 208.3231 409.24878 207.49498L410.2644 207.49498L410.2644 220.43248ZM414.60815 210.6356Q414.60815 209.2606 415.29565 208.29185Q415.99878 207.3231 417.31128 207.3231Q418.53003 207.3231 419.3269 208.1981Q420.12378 209.05748 420.12378 210.74498Q420.12378 212.36998 419.31128 213.2606Q418.5144 214.1356 417.3269 214.1356Q416.17065 214.1356 415.3894 213.27623Q414.60815 212.40123 414.60815 210.6356ZM417.35815 208.41685Q416.7644 208.41685 416.37378 208.93248Q415.98315 209.43248 415.98315 210.79185Q415.98315 212.04185 416.37378 212.54185Q416.78003 213.04185 417.35815 213.04185Q417.9519 213.04185 418.34253 212.54185Q418.73315 212.02623 418.73315 210.68248Q418.73315 209.43248 418.34253 208.93248Q417.9519 208.41685 417.35815 208.41685ZM417.37378 220.90123L424.42065 207.3231L425.7019 207.3231L418.67065 220.90123L417.37378 220.90123ZM422.93628 217.40123Q422.93628 216.02623 423.62378 215.05748Q424.3269 214.08873 425.65503 214.08873Q426.87378 214.08873 427.65503 214.96373Q428.4519 215.8231 428.4519 217.5106Q428.4519 219.1356 427.65503 220.02623Q426.85815 220.90123 425.67065 220.90123Q424.49878 220.90123 423.71753 220.02623Q422.93628 219.15123 422.93628 217.40123ZM425.7019 215.18248Q425.10815 215.18248 424.71753 215.6981Q424.3269 216.1981 424.3269 217.5731Q424.3269 218.79185 424.71753 219.30748Q425.10815 219.8231 425.68628 219.8231Q426.29565 219.8231 426.68628 219.30748Q427.0769 218.79185 427.0769 217.4481Q427.0769 216.1981 426.68628 215.6981Q426.29565 215.18248 425.7019 215.18248Z" fill-rule="nonzero"/><path fill="#ffffff" d="M216.00911 289.62247L214.43098 289.62247L214.43098 279.54434Q213.85286 280.09122 212.93098 280.6381Q212.00911 281.16934 211.25911 281.4506L211.25911 279.91934Q212.58723 279.29434 213.58723 278.40372Q214.58723 277.5131 214.99348 276.68497L216.00911 276.68497L216.00911 289.62247ZM220.05598 286.24747L221.71223 286.10684Q221.89973 287.3256 222.57161 287.93497Q223.24348 288.54434 224.19661 288.54434Q225.33723 288.54434 226.11848 287.68497Q226.91536 286.8256 226.91536 285.3881Q226.91536 284.04434 226.14973 283.2631Q225.39973 282.48184 224.16536 282.48184Q223.39973 282.48184 222.77473 282.8256Q222.16536 283.16934 221.82161 283.73184L220.33723 283.52872L221.58723 276.91934L227.99348 276.91934L227.99348 278.41934L222.85286 278.41934L222.14973 281.8881Q223.32161 281.0756 224.58723 281.0756Q226.27473 281.0756 227.43098 282.24747Q228.60286 283.41934 228.60286 285.24747Q228.60286 286.99747 227.57161 288.27872Q226.33723 289.84122 224.19661 289.84122Q222.43098 289.84122 221.32161 288.85684Q220.21223 287.87247 220.05598 286.24747ZM230.94661 289.62247L230.94661 287.8256L232.74348 287.8256L232.74348 289.62247L230.94661 289.62247ZM243.25911 279.8881L241.69661 280.0131Q241.47786 279.09122 241.08723 278.66934Q240.44661 277.98184 239.50911 277.98184Q238.75911 277.98184 238.18098 278.40372Q237.43098 278.9506 236.99348 279.99747Q236.57161 281.04434 236.55598 282.98184Q237.13411 282.10684 237.94661 281.68497Q238.77473 281.2631 239.68098 281.2631Q241.27473 281.2631 242.38411 282.43497Q243.49348 283.59122 243.49348 285.43497Q243.49348 286.65372 242.96223 287.7006Q242.44661 288.73184 241.52473 289.29434Q240.61848 289.84122 239.46223 289.84122Q237.47786 289.84122 236.22786 288.3881Q234.97786 286.93497 234.97786 283.59122Q234.97786 279.85684 236.36848 278.15372Q237.57161 276.68497 239.60286 276.68497Q241.13411 276.68497 242.10286 277.54434Q243.07161 278.3881 243.25911 279.8881ZM236.80598 285.4506Q236.80598 286.2631 237.14973 287.0131Q237.49348 287.7631 238.11848 288.15372Q238.74348 288.54434 239.43098 288.54434Q240.43098 288.54434 241.14973 287.73184Q241.86848 286.91934 241.86848 285.52872Q241.86848 284.2006 241.14973 283.43497Q240.44661 282.65372 239.36848 282.65372Q238.29036 282.65372 237.54036 283.43497Q236.80598 284.2006 236.80598 285.4506ZM245.35286 279.8256Q245.35286 278.4506 246.04036 277.48184Q246.74348 276.5131 248.05598 276.5131Q249.27473 276.5131 250.07161 277.3881Q250.86848 278.24747 250.86848 279.93497Q250.86848 281.55997 250.05598 282.4506Q249.25911 283.3256 248.07161 283.3256Q246.91536 283.3256 246.13411 282.46622Q245.35286 281.59122 245.35286 279.8256ZM248.10286 277.60684Q247.50911 277.60684 247.11848 278.12247Q246.72786 278.62247 246.72786 279.98184Q246.72786 281.23184 247.11848 281.73184Q247.52473 282.23184 248.10286 282.23184Q248.69661 282.23184 249.08723 281.73184Q249.47786 281.21622 249.47786 279.87247Q249.47786 278.62247 249.08723 278.12247Q248.69661 277.60684 248.10286 277.60684ZM248.11848 290.09122L255.16536 276.5131L256.4466 276.5131L249.41536 290.09122L248.11848 290.09122ZM253.68098 286.59122Q253.68098 285.21622 254.36848 284.24747Q255.07161 283.27872 256.39972 283.27872Q257.61847 283.27872 258.39972 284.15372Q259.1966 285.0131 259.1966 286.7006Q259.1966 288.3256 258.39972 289.21622Q257.60284 290.09122 256.41534 290.09122Q255.24348 290.09122 254.46223 289.21622Q253.68098 288.34122 253.68098 286.59122ZM256.4466 284.37247Q255.85286 284.37247 255.46223 284.8881Q255.07161 285.3881 255.07161 286.7631Q255.07161 287.98184 255.46223 288.49747Q255.85286 289.0131 256.43097 289.0131Q257.04034 289.0131 257.43097 288.49747Q257.8216 287.98184 257.8216 286.6381Q257.8216 285.3881 257.43097 284.8881Q257.04034 284.37247 256.4466 284.37247Z" fill-rule="nonzero"/><path fill="#ffffff" d="M191.19656 150.61436L192.79031 150.41124Q193.05594 151.75499 193.71219 152.34874Q194.36844 152.94249 195.30594 152.94249Q196.43094 152.94249 197.19656 152.17686Q197.96219 151.39561 197.96219 150.25499Q197.96219 149.16124 197.24344 148.45811Q196.54031 147.73936 195.44656 147.73936Q194.99344 147.73936 194.32156 147.92686L194.49344 146.53624Q194.64969 146.55186 194.75906 146.55186Q195.75906 146.55186 196.57156 146.02061Q197.38406 145.48936 197.38406 144.39561Q197.38406 143.52061 196.79031 142.95811Q196.19656 142.37999 195.27469 142.37999Q194.35281 142.37999 193.72781 142.95811Q193.11844 143.53624 192.94656 144.70811L191.36844 144.42686Q191.64969 142.83311 192.68094 141.95811Q193.71219 141.08311 195.24344 141.08311Q196.29031 141.08311 197.18094 141.53624Q198.07156 141.98936 198.54031 142.77061Q199.00906 143.55186 199.00906 144.42686Q199.00906 145.27061 198.55594 145.95811Q198.11844 146.62999 197.22781 147.03624Q198.36844 147.30186 198.99344 148.14561Q199.63406 148.97374 199.63406 150.20811Q199.63406 151.89561 198.39969 153.08311Q197.18094 154.25499 195.30594 154.25499Q193.60281 154.25499 192.47781 153.23936Q191.36844 152.22374 191.19656 150.61436ZM207.14969 154.02061L205.57156 154.02061L205.57156 143.94249Q204.99344 144.48936 204.07156 145.03624Q203.14969 145.56749 202.39969 145.84874L202.39969 144.31749Q203.72781 143.69249 204.72781 142.80186Q205.72781 141.91124 206.13406 141.08311L207.14969 141.08311L207.14969 154.02061ZM212.08719 154.02061L212.08719 152.22374L213.88406 152.22374L213.88406 154.02061L212.08719 154.02061ZM216.19656 150.61436L217.79031 150.41124Q218.05594 151.75499 218.71219 152.34874Q219.36844 152.94249 220.30594 152.94249Q221.43094 152.94249 222.19656 152.17686Q222.96219 151.39561 222.96219 150.25499Q222.96219 149.16124 222.24344 148.45811Q221.54031 147.73936 220.44656 147.73936Q219.99344 147.73936 219.32156 147.92686L219.49344 146.53624Q219.64969 146.55186 219.75906 146.55186Q220.75906 146.55186 221.57156 146.02061Q222.38406 145.48936 222.38406 144.39561Q222.38406 143.52061 221.79031 142.95811Q221.19656 142.37999 220.27469 142.37999Q219.35281 142.37999 218.72781 142.95811Q218.11844 143.53624 217.94656 144.70811L216.36844 144.42686Q216.64969 142.83311 217.68094 141.95811Q218.71219 141.08311 220.24344 141.08311Q221.29031 141.08311 222.18094 141.53624Q223.07156 141.98936 223.54031 142.77061Q224.00906 143.55186 224.00906 144.42686Q224.00906 145.27061 223.55594 145.95811Q223.11844 146.62999 222.22781 147.03624Q223.36844 147.30186 223.99344 148.14561Q224.63406 148.97374 224.63406 150.20811Q224.63406 151.89561 223.39969 153.08311Q222.18094 154.25499 220.30594 154.25499Q218.60281 154.25499 217.47781 153.23936Q216.36844 152.22374 216.19656 150.61436ZM226.49344 144.22374Q226.49344 142.84874 227.18094 141.87999Q227.88406 140.91124 229.19656 140.91124Q230.41531 140.91124 231.21219 141.78624Q232.00906 142.64561 232.00906 144.33311Q232.00906 145.95811 231.19656 146.84874Q230.39969 147.72374 229.21219 147.72374Q228.05594 147.72374 227.27469 146.86436Q226.49344 145.98936 226.49344 144.22374ZM229.24344 142.00499Q228.64969 142.00499 228.25906 142.52061Q227.86844 143.02061 227.86844 144.37999Q227.86844 145.62999 228.25906 146.12999Q228.66531 146.62999 229.24344 146.62999Q229.83719 146.62999 230.22781 146.12999Q230.61844 145.61436 230.61844 144.27061Q230.61844 143.02061 230.22781 142.52061Q229.83719 142.00499 229.24344 142.00499ZM229.25906 154.48936L236.30594 140.91124L237.58719 140.91124L230.55594 154.48936L229.25906 154.48936ZM234.82156 150.98936Q234.82156 149.61436 235.50906 148.64561Q236.21219 147.67686 237.54031 147.67686Q238.75906 147.67686 239.54031 148.55186Q240.33719 149.41124 240.33719 151.09874Q240.33719 152.72374 239.54031 153.61436Q238.74344 154.48936 237.55594 154.48936Q236.38406 154.48936 235.60281 153.61436Q234.82156 152.73936 234.82156 150.98936ZM237.58719 148.77061Q236.99344 148.77061 236.60281 149.28624Q236.21219 149.78624 236.21219 151.16124Q236.21219 152.37999 236.60281 152.89561Q236.99344 153.41124 237.57156 153.41124Q238.18094 153.41124 238.57156 152.89561Q238.96219 152.37999 238.96219 151.03624Q238.96219 149.78624 238.57156 149.28624Q238.18094 148.77061 237.58719 148.77061Z" fill-rule="nonzero"/><path stroke="#ffffff" stroke-width="1.0" stroke-linejoin="round" stroke-linecap="round" d="M292.74426 240.16037C306.63303 242.92302 320.88556 237.55875 329.50613 226.32419C338.1267 215.08961 339.6194 199.93437 333.3562 187.23389C327.09302 174.53339 314.16086 166.49167 300.0 166.49167L300.0 54.916668C356.64346 54.916668 408.372 87.08355 433.42477 137.88551C458.47754 188.68748 452.50687 249.30847 418.02454 294.24673C383.54218 339.185 326.53214 360.6421 270.97705 349.5915" fill-rule="nonzero"/><path stroke="#ffffff" stroke-width="1.0" stroke-linejoin="round" stroke-linecap="round" d="M265.63937 217.91597C270.39282 229.39182 280.56155 237.73709 292.74426 240.16037L270.97705 349.5915C222.24628 339.89835 181.57133 306.51727 162.55753 260.61386" fill-rule="nonzero"/><path stroke="#ffffff" stroke-width="1.0" stroke-linejoin="round" stroke-linecap="round" d="M300.0 166.49167C287.57864 166.49167 275.9772 172.69276 269.07626 183.02075C262.17532 193.34874 260.88593 206.44012 265.63937 217.91597L162.55753 260.61386C143.54372 214.71048 148.70126 162.34497 176.30504 121.033005C203.90881 79.72103 250.31451 54.916668 300.0 54.916668" fill-rule="nonzero"/><path fill="#efefef" d="M27.3 108.212395L28.815624 108.212395L28.815624 114.82177Q28.815624 116.556145 28.425 117.57177Q28.034374 118.587395 27.01875 119.22802Q26.003124 119.868645 24.346874 119.868645Q22.7375 119.868645 21.70625 119.306145Q20.690624 118.743645 20.253124 117.69677Q19.815624 116.649895 19.815624 114.82177L19.815624 108.212395L21.33125 108.212395L21.33125 114.82177Q21.33125 116.306145 21.596874 117.024895Q21.878124 117.72802 22.55 118.118645Q23.2375 118.493645 24.20625 118.493645Q25.878124 118.493645 26.58125 117.743645Q27.3 116.97802 27.3 114.82177L27.3 108.212395ZM31.596874 119.66552L31.596874 111.368645L32.8625 111.368645L32.8625 112.618645Q33.346874 111.743645 33.753124 111.462395Q34.159374 111.181145 34.659374 111.181145Q35.3625 111.181145 36.096874 111.63427L35.6125 112.931145Q35.096874 112.63427 34.58125 112.63427Q34.128124 112.63427 33.753124 112.91552Q33.39375 113.181145 33.2375 113.681145Q33.003124 114.431145 33.003124 115.32177L33.003124 119.66552L31.596874 119.66552ZM37.909374 119.66552L36.596874 119.66552L36.596874 108.212395L38.003124 108.212395L38.003124 112.29052Q38.89375 111.181145 40.284374 111.181145Q41.05 111.181145 41.721874 111.493645Q42.409374 111.79052 42.846874 112.35302Q43.3 112.91552 43.55 113.712395Q43.8 114.493645 43.8 115.38427Q43.8 117.524895 42.7375 118.69677Q41.690624 119.85302 40.20625 119.85302Q38.7375 119.85302 37.909374 118.618645L37.909374 119.66552ZM37.89375 115.44677Q37.89375 116.94677 38.3 117.60302Q38.95625 118.69677 40.096874 118.69677Q41.01875 118.69677 41.690624 117.899895Q42.3625 117.087395 42.3625 115.50927Q42.3625 113.88427 41.70625 113.118645Q41.065624 112.337395 40.159374 112.337395Q39.2375 112.337395 38.565624 113.13427Q37.89375 113.931145 37.89375 115.44677ZM51.01875 118.63427Q50.2375 119.306145 49.51875 119.587395Q48.8 119.85302 47.971874 119.85302Q46.596874 119.85302 45.8625 119.181145Q45.128124 118.50927 45.128124 117.47802Q45.128124 116.868645 45.409374 116.368645Q45.690624 115.85302 46.128124 115.556145Q46.58125 115.243645 47.14375 115.087395Q47.565624 114.97802 48.39375 114.88427Q50.096874 114.681145 50.909374 114.399895Q50.909374 114.10302 50.909374 114.024895Q50.909374 113.16552 50.51875 112.82177Q49.971874 112.337395 48.909374 112.337395Q47.925 112.337395 47.440624 112.69677Q46.971874 113.04052 46.753124 113.91552L45.378124 113.72802Q45.565624 112.85302 45.9875 112.306145Q46.425 111.75927 47.2375 111.47802Q48.05 111.181145 49.1125 111.181145Q50.175 111.181145 50.83125 111.431145Q51.503124 111.681145 51.815624 112.056145Q52.128124 112.431145 52.253124 113.00927Q52.33125 113.368645 52.33125 114.306145L52.33125 116.181145Q52.33125 118.149895 52.409374 118.66552Q52.503124 119.181145 52.76875 119.66552L51.3 119.66552Q51.08125 119.22802 51.01875 118.63427ZM50.909374 115.493645Q50.14375 115.806145 48.6125 116.024895Q47.7375 116.149895 47.378124 116.306145Q47.01875 116.462395 46.815624 116.774895Q46.628124 117.07177 46.628124 117.431145Q46.628124 117.993645 47.05 118.368645Q47.4875 118.743645 48.3 118.743645Q49.1125 118.743645 49.7375 118.399895Q50.378124 118.04052 50.675 117.41552Q50.909374 116.94677 50.909374 116.00927L50.909374 115.493645ZM54.6125 119.66552L54.6125 111.368645L55.878124 111.368645L55.878124 112.54052Q56.784374 111.181145 58.51875 111.181145Q59.26875 111.181145 59.89375 111.44677Q60.51875 111.712395 60.83125 112.149895Q61.14375 112.587395 61.26875 113.19677Q61.346874 113.587395 61.346874 114.556145L61.346874 119.66552L59.940624 119.66552L59.940624 114.618645Q59.940624 113.75927 59.76875 113.337395Q59.6125 112.899895 59.190624 112.649895Q58.784374 112.399895 58.221874 112.399895Q57.315624 112.399895 56.659374 112.97802Q56.01875 113.54052 56.01875 115.13427L56.01875 119.66552L54.6125 119.66552ZM63.05 117.181145L64.44063 116.962395Q64.55 117.806145 65.08125 118.25927Q65.62813 118.69677 66.58125 118.69677Q67.55 118.69677 68.01875 118.306145Q68.4875 117.899895 68.4875 117.368645Q68.4875 116.899895 68.08125 116.618645Q67.78438 116.431145 66.64375 116.149895Q65.09688 115.75927 64.4875 115.47802Q63.89375 115.181145 63.58125 114.681145Q63.284374 114.181145 63.284374 113.57177Q63.284374 113.00927 63.534374 112.54052Q63.784374 112.07177 64.22188 111.75927Q64.55 111.50927 65.1125 111.35302Q65.69063 111.181145 66.33125 111.181145Q67.31563 111.181145 68.05 111.462395Q68.78438 111.743645 69.12813 112.22802Q69.4875 112.69677 69.62813 113.50927L68.25313 113.69677Q68.15938 113.056145 67.70625 112.69677Q67.25313 112.337395 66.44063 112.337395Q65.47188 112.337395 65.05 112.66552Q64.64375 112.97802 64.64375 113.399895Q64.64375 113.681145 64.81563 113.899895Q64.9875 114.118645 65.34688 114.274895Q65.56563 114.35302 66.59688 114.63427Q68.08125 115.024895 68.675 115.29052Q69.26875 115.54052 69.59688 116.024895Q69.94063 116.50927 69.94063 117.22802Q69.94063 117.931145 69.51875 118.556145Q69.1125 119.16552 68.33125 119.50927Q67.56563 119.85302 66.59688 119.85302Q64.97188 119.85302 64.12813 119.181145Q63.284374 118.50927 63.05 117.181145ZM77.01875 116.618645L78.40938 116.806145Q78.175 118.22802 77.2375 119.04052Q76.31563 119.85302 74.95625 119.85302Q73.25313 119.85302 72.20625 118.743645Q71.175 117.618645 71.175 115.54052Q71.175 114.19677 71.6125 113.19677Q72.06563 112.181145 72.97188 111.681145Q73.89375 111.181145 74.95625 111.181145Q76.31563 111.181145 77.175 111.868645Q78.03438 112.54052 78.26875 113.806145L76.90938 114.00927Q76.70625 113.181145 76.20625 112.75927Q75.72188 112.337395 75.01875 112.337395Q73.95625 112.337395 73.28438 113.10302Q72.62813 113.85302 72.62813 115.50927Q72.62813 117.181145 73.26875 117.94677Q73.90938 118.69677 74.94063 118.69677Q75.76875 118.69677 76.31563 118.19677Q76.87813 117.681145 77.01875 116.618645ZM85.01875 118.63427Q84.2375 119.306145 83.51875 119.587395Q82.8 119.85302 81.97188 119.85302Q80.59688 119.85302 79.8625 119.181145Q79.12813 118.50927 79.12813 117.47802Q79.12813 116.868645 79.40938 116.368645Q79.69063 115.85302 80.12813 115.556145Q80.58125 115.243645 81.14375 115.087395Q81.56563 114.97802 82.39375 114.88427Q84.09688 114.681145 84.90938 114.399895Q84.90938 114.10302 84.90938 114.024895Q84.90938 113.16552 84.51875 112.82177Q83.97188 112.337395 82.90938 112.337395Q81.925 112.337395 81.44063 112.69677Q80.97188 113.04052 80.75313 113.91552L79.37813 113.72802Q79.56563 112.85302 79.9875 112.306145Q80.425 111.75927 81.2375 111.47802Q82.05 111.181145 83.1125 111.181145Q84.175 111.181145 84.83125 111.431145Q85.50313 111.681145 85.81563 112.056145Q86.12813 112.431145 86.25313 113.00927Q86.33125 113.368645 86.33125 114.306145L86.33125 116.181145Q86.33125 118.149895 86.40938 118.66552Q86.50313 119.181145 86.76875 119.66552L85.3 119.66552Q85.08125 119.22802 85.01875 118.63427ZM84.90938 115.493645Q84.14375 115.806145 82.6125 116.024895Q81.7375 116.149895 81.37813 116.306145Q81.01875 116.462395 80.81563 116.774895Q80.62813 117.07177 80.62813 117.431145Q80.62813 117.993645 81.05 118.368645Q81.4875 118.743645 82.3 118.743645Q83.1125 118.743645 83.7375 118.399895Q84.37813 118.04052 84.675 117.41552Q84.90938 116.94677 84.90938 116.00927L84.90938 115.493645ZM88.6125 122.85302L88.6125 111.368645L89.89375 111.368645L89.89375 112.44677Q90.34688 111.806145 90.90938 111.493645Q91.4875 111.181145 92.3 111.181145Q93.3625 111.181145 94.175 111.72802Q94.9875 112.274895 95.39375 113.274895Q95.81563 114.25927 95.81563 115.44677Q95.81563 116.72802 95.34688 117.743645Q94.89375 118.75927 94.01875 119.306145Q93.15938 119.85302 92.19063 119.85302Q91.4875 119.85302 90.925 119.556145Q90.37813 119.25927 90.01875 118.806145L90.01875 122.85302L88.6125 122.85302ZM89.87813 115.556145Q89.87813 117.16552 90.51875 117.931145Q91.175 118.69677 92.09688 118.69677Q93.03438 118.69677 93.70625 117.899895Q94.37813 117.10302 94.37813 115.44677Q94.37813 113.85302 93.72188 113.07177Q93.06563 112.274895 92.15938 112.274895Q91.26875 112.274895 90.56563 113.118645Q89.87813 113.962395 89.87813 115.556145ZM103.28438 116.993645L104.7375 117.16552Q104.39375 118.44677 103.45625 119.149895Q102.53438 119.85302 101.09688 119.85302Q99.26875 119.85302 98.20625 118.72802Q97.14375 117.60302 97.14375 115.587395Q97.14375 113.493645 98.22188 112.337395Q99.3 111.181145 101.01875 111.181145Q102.675 111.181145 103.72188 112.32177Q104.78438 113.44677 104.78438 115.493645Q104.78438 115.618645 104.78438 115.868645L98.59688 115.868645Q98.675 117.243645 99.3625 117.97802Q100.06563 118.69677 101.09688 118.69677Q101.87813 118.69677 102.425 118.29052Q102.97188 117.88427 103.28438 116.993645ZM98.675 114.712395L103.3 114.712395Q103.20625 113.66552 102.76875 113.149895Q102.09688 112.337395 101.03438 112.337395Q100.06563 112.337395 99.39375 112.993645Q98.7375 113.63427 98.675 114.712395Z" fill-rule="nonzero"/><path fill="#9e9e9e" d="M19.221874 138.63426L20.628124 138.44676Q20.878124 139.64989 21.45625 140.18114Q22.034374 140.69676 22.878124 140.69676Q23.8625 140.69676 24.55 140.00926Q25.2375 139.32176 25.2375 138.30614Q25.2375 137.33739 24.596874 136.71239Q23.971874 136.08739 22.9875 136.08739Q22.596874 136.08739 22.003124 136.24364L22.159374 135.00926Q22.3 135.02489 22.378124 135.02489Q23.284374 135.02489 24.003124 134.55614Q24.721874 134.08739 24.721874 133.10301Q24.721874 132.33739 24.190624 131.83739Q23.675 131.32176 22.846874 131.32176Q22.01875 131.32176 21.471874 131.83739Q20.925 132.35301 20.76875 133.38426L19.3625 133.13426Q19.628124 131.71239 20.534374 130.94676Q21.45625 130.16551 22.815624 130.16551Q23.753124 130.16551 24.534374 130.57176Q25.33125 130.96239 25.7375 131.66551Q26.159374 132.35301 26.159374 133.13426Q26.159374 133.88426 25.753124 134.49364Q25.3625 135.10301 24.58125 135.46239Q25.596874 135.69676 26.159374 136.43114Q26.721874 137.16551 26.721874 138.27489Q26.721874 139.77489 25.628124 140.82176Q24.534374 141.86864 22.8625 141.86864Q21.3625 141.86864 20.3625 140.97801Q19.3625 140.07176 19.221874 138.63426ZM33.51875 141.66551L32.1125 141.66551L32.1125 132.69676Q31.596874 133.18114 30.76875 133.66551Q29.95625 134.14989 29.3 134.39989L29.3 133.04051Q30.471874 132.47801 31.346874 131.69676Q32.2375 130.89989 32.6125 130.16551L33.51875 130.16551L33.51875 141.66551ZM38.003124 141.66551L38.003124 140.05614L39.6125 140.05614L39.6125 141.66551L38.003124 141.66551ZM41.221874 138.63426L42.628124 138.44676Q42.878124 139.64989 43.45625 140.18114Q44.034374 140.69676 44.878124 140.69676Q45.8625 140.69676 46.55 140.00926Q47.2375 139.32176 47.2375 138.30614Q47.2375 137.33739 46.596874 136.71239Q45.971874 136.08739 44.9875 136.08739Q44.596874 136.08739 44.003124 136.24364L44.159374 135.00926Q44.3 135.02489 44.378124 135.02489Q45.284374 135.02489 46.003124 134.55614Q46.721874 134.08739 46.721874 133.10301Q46.721874 132.33739 46.190624 131.83739Q45.675 131.32176 44.846874 131.32176Q44.01875 131.32176 43.471874 131.83739Q42.925 132.35301 42.76875 133.38426L41.3625 133.13426Q41.628124 131.71239 42.534374 130.94676Q43.45625 130.16551 44.815624 130.16551Q45.753124 130.16551 46.534374 130.57176Q47.33125 130.96239 47.7375 131.66551Q48.159374 132.35301 48.159374 133.13426Q48.159374 133.88426 47.753124 134.49364Q47.3625 135.10301 46.58125 135.46239Q47.596874 135.69676 48.159374 136.43114Q48.721874 137.16551 48.721874 138.27489Q48.721874 139.77489 47.628124 140.82176Q46.534374 141.86864 44.8625 141.86864Q43.3625 141.86864 42.3625 140.97801Q41.3625 140.07176 41.221874 138.63426ZM50.4875 132.96239Q50.4875 131.72801 51.096874 130.86864Q51.721874 130.00926 52.89375 130.00926Q53.971874 130.00926 54.675 130.79051Q55.378124 131.55614 55.378124 133.04051Q55.378124 134.49364 54.659374 135.29051Q53.95625 136.07176 52.909374 136.07176Q51.8625 136.07176 51.175 135.30614Q50.4875 134.52489 50.4875 132.96239ZM52.925 130.97801Q52.409374 130.97801 52.05 131.43114Q51.70625 131.88426 51.70625 133.10301Q51.70625 134.19676 52.05 134.64989Q52.409374 135.10301 52.925 135.10301Q53.45625 135.10301 53.8 134.64989Q54.159374 134.19676 54.159374 132.99364Q54.159374 131.88426 53.8 131.43114Q53.45625 130.97801 52.925 130.97801ZM52.940624 142.08739L59.20625 130.00926L60.346874 130.00926L54.096874 142.08739L52.940624 142.08739ZM57.89375 138.97801Q57.89375 137.74364 58.503124 136.88426Q59.128124 136.02489 60.3 136.02489Q61.378124 136.02489 62.08125 136.80614Q62.8 137.57176 62.8 139.05614Q62.8 140.50926 62.08125 141.30614Q61.3625 142.08739 60.315624 142.08739Q59.26875 142.08739 58.58125 141.30614Q57.89375 140.52489 57.89375 138.97801ZM60.346874 136.99364Q59.815624 136.99364 59.45625 137.44676Q59.1125 137.89989 59.1125 139.11864Q59.1125 140.21239 59.45625 140.66551Q59.815624 141.11864 60.33125 141.11864Q60.878124 141.11864 61.221874 140.66551Q61.565624 140.21239 61.565624 139.00926Q61.565624 137.89989 61.20625 137.44676Q60.8625 136.99364 60.346874 136.99364Z" fill-rule="nonzero"/><path stroke="#757575" stroke-width="1.0" stroke-linecap="butt" d="M18.55 125.16552L145.23334 125.16552L182.48979 125.16552" fill-rule="nonzero"/><path fill="#9e9e9e" d="M184.48979 125.16552C184.48979 124.06095 183.59436 123.16552 182.48979 123.16552C181.38522 123.16552 180.48979 124.06095 180.48979 125.16552C180.48979 126.27009 181.38522 127.16552 182.48979 127.16552C183.59436 127.16552 184.48979 126.27009 184.48979 125.16552" fill-rule="nonzero"/><path fill="#efefef" d="M18.51875 307.4316L22.925 295.9785L24.565624 295.9785L29.253124 307.4316L27.51875 307.4316L26.190624 303.96286L21.39375 303.96286L20.14375 307.4316L18.51875 307.4316ZM21.83125 302.7285L25.721874 302.7285L24.51875 299.5566Q23.971874 298.1035 23.70625 297.1816Q23.4875 298.27536 23.096874 299.3691L21.83125 302.7285ZM30.6125 307.4316L30.6125 299.13474L31.878124 299.13474L31.878124 300.3066Q32.784374 298.94724 34.51875 298.94724Q35.26875 298.94724 35.89375 299.21286Q36.51875 299.4785 36.83125 299.916Q37.14375 300.3535 37.26875 300.96286Q37.346874 301.3535 37.346874 302.32224L37.346874 307.4316L35.940624 307.4316L35.940624 302.38474Q35.940624 301.52536 35.76875 301.1035Q35.6125 300.666 35.190624 300.416Q34.784374 300.166 34.221874 300.166Q33.315624 300.166 32.659374 300.7441Q32.01875 301.3066 32.01875 302.90036L32.01875 307.4316L30.6125 307.4316ZM39.6125 297.58786L39.6125 295.9785L41.01875 295.9785L41.01875 297.58786L39.6125 297.58786ZM39.6125 307.4316L39.6125 299.13474L41.01875 299.13474L41.01875 307.4316L39.6125 307.4316ZM43.6125 307.4316L43.6125 299.13474L44.8625 299.13474L44.8625 300.291Q45.253124 299.6816 45.89375 299.32224Q46.55 298.94724 47.378124 298.94724Q48.3 298.94724 48.89375 299.33786Q49.4875 299.71286 49.721874 300.40036Q50.70625 298.94724 52.284374 298.94724Q53.51875 298.94724 54.175 299.63474Q54.846874 300.3066 54.846874 301.7285L54.846874 307.4316L53.45625 307.4316L53.45625 302.19724Q53.45625 301.3535 53.315624 300.9941Q53.175 300.6191 52.815624 300.40036Q52.45625 300.166 51.971874 300.166Q51.096874 300.166 50.51875 300.7441Q49.940624 301.32224 49.940624 302.6035L49.940624 307.4316L48.534374 307.4316L48.534374 302.041Q48.534374 301.1035 48.190624 300.63474Q47.846874 300.166 47.065624 300.166Q46.471874 300.166 45.971874 300.4785Q45.471874 300.791 45.2375 301.40036Q45.01875 301.9941 45.01875 303.1191L45.01875 307.4316L43.6125 307.4316ZM62.01875 306.40036Q61.2375 307.07224 60.51875 307.3535Q59.8 307.6191 58.971874 307.6191Q57.596874 307.6191 56.8625 306.94724Q56.128124 306.27536 56.128124 305.2441Q56.128124 304.63474 56.409374 304.13474Q56.690624 303.6191 57.128124 303.32224Q57.58125 303.00974 58.14375 302.8535Q58.565624 302.7441 59.39375 302.65036Q61.096874 302.44724 61.909374 302.166Q61.909374 301.8691 61.909374 301.791Q61.909374 300.9316 61.51875 300.58786Q60.971874 300.1035 59.909374 300.1035Q58.925 300.1035 58.440624 300.46286Q57.971874 300.8066 57.753124 301.6816L56.378124 301.4941Q56.565624 300.6191 56.9875 300.07224Q57.425 299.52536 58.2375 299.2441Q59.05 298.94724 60.1125 298.94724Q61.175 298.94724 61.83125 299.19724Q62.503124 299.44724 62.815624 299.82224Q63.128124 300.19724 63.253124 300.77536Q63.33125 301.13474 63.33125 302.07224L63.33125 303.94724Q63.33125 305.916 63.409374 306.4316Q63.503124 306.94724 63.76875 307.4316L62.3 307.4316Q62.08125 306.9941 62.01875 306.40036ZM61.909374 303.25974Q61.14375 303.57224 59.6125 303.791Q58.7375 303.916 58.378124 304.07224Q58.01875 304.2285 57.815624 304.541Q57.628124 304.83786 57.628124 305.19724Q57.628124 305.75974 58.05 306.13474Q58.4875 306.50974 59.3 306.50974Q60.1125 306.50974 60.7375 306.166Q61.378124 305.8066 61.675 305.1816Q61.909374 304.71286 61.909374 303.77536L61.909374 303.25974ZM65.58125 307.4316L65.58125 295.9785L66.9875 295.9785L66.9875 307.4316L65.58125 307.4316ZM69.05 304.94724L70.44063 304.7285Q70.55 305.57224 71.08125 306.02536Q71.62813 306.46286 72.58125 306.46286Q73.55 306.46286 74.01875 306.07224Q74.4875 305.666 74.4875 305.13474Q74.4875 304.666 74.08125 304.38474Q73.78438 304.19724 72.64375 303.916Q71.09688 303.52536 70.4875 303.2441Q69.89375 302.94724 69.58125 302.44724Q69.28438 301.94724 69.28438 301.33786Q69.28438 300.77536 69.53438 300.3066Q69.78438 299.83786 70.22188 299.52536Q70.55 299.27536 71.1125 299.1191Q71.69063 298.94724 72.33125 298.94724Q73.31563 298.94724 74.05 299.2285Q74.78438 299.50974 75.12813 299.9941Q75.4875 300.46286 75.62813 301.27536L74.25313 301.46286Q74.15938 300.82224 73.70625 300.46286Q73.25313 300.1035 72.44063 300.1035Q71.47188 300.1035 71.05 300.4316Q70.64375 300.7441 70.64375 301.166Q70.64375 301.44724 70.81563 301.666Q70.9875 301.88474 71.34688 302.041Q71.56563 302.1191 72.59688 302.40036Q74.08125 302.791 74.675 303.0566Q75.26875 303.3066 75.59688 303.791Q75.94063 304.27536 75.94063 304.9941Q75.94063 305.69724 75.51875 306.32224Q75.1125 306.9316 74.33125 307.27536Q73.56563 307.6191 72.59688 307.6191Q70.97188 307.6191 70.12813 306.94724Q69.28438 306.27536 69.05 304.94724Z" fill-rule="nonzero"/><path fill="#9e9e9e" d="M24.51875 329.4316L23.1125 329.4316L23.1125 320.46286Q22.596874 320.94724 21.76875 321.4316Q20.95625 321.916 20.3 322.166L20.3 320.8066Q21.471874 320.2441 22.346874 319.46286Q23.2375 318.666 23.6125 317.9316L24.51875 317.9316L24.51875 329.4316ZM28.221874 326.4316L29.690624 326.3066Q29.8625 327.38474 30.45625 327.9316Q31.05 328.46286 31.89375 328.46286Q32.909374 328.46286 33.6125 327.69724Q34.315624 326.9316 34.315624 325.666Q34.315624 324.46286 33.64375 323.77536Q32.971874 323.07224 31.878124 323.07224Q31.190624 323.07224 30.64375 323.38474Q30.096874 323.69724 29.784374 324.1816L28.471874 324.00974L29.58125 318.13474L35.26875 318.13474L35.26875 319.4785L30.70625 319.4785L30.08125 322.5566Q31.1125 321.83786 32.253124 321.83786Q33.753124 321.83786 34.784374 322.88474Q35.815624 323.916 35.815624 325.541Q35.815624 327.1035 34.909374 328.2285Q33.8 329.63474 31.89375 329.63474Q30.33125 329.63474 29.346874 328.75974Q28.3625 327.8691 28.221874 326.4316ZM38.003124 329.4316L38.003124 327.82224L39.6125 327.82224L39.6125 329.4316L38.003124 329.4316ZM48.51875 320.77536L47.1125 320.88474Q46.925 320.0566 46.58125 319.6816Q46.01875 319.08786 45.175 319.08786Q44.503124 319.08786 44.003124 319.46286Q43.33125 319.94724 42.940624 320.88474Q42.565624 321.8066 42.55 323.52536Q43.065624 322.7441 43.8 322.3691Q44.534374 321.9941 45.33125 321.9941Q46.7375 321.9941 47.721874 323.041Q48.721874 324.07224 48.721874 325.71286Q48.721874 326.791 48.253124 327.71286Q47.784374 328.63474 46.971874 329.13474Q46.159374 329.63474 45.128124 329.63474Q43.378124 329.63474 42.26875 328.33786Q41.159374 327.041 41.159374 324.07224Q41.159374 320.7441 42.378124 319.2441Q43.45625 317.9316 45.26875 317.9316Q46.6125 317.9316 47.471874 318.69724Q48.346874 319.44724 48.51875 320.77536ZM42.76875 325.71286Q42.76875 326.44724 43.08125 327.1191Q43.39375 327.77536 43.940624 328.1191Q44.503124 328.46286 45.1125 328.46286Q46.003124 328.46286 46.64375 327.7441Q47.284374 327.02536 47.284374 325.791Q47.284374 324.6035 46.64375 323.9316Q46.01875 323.2441 45.05 323.2441Q44.096874 323.2441 43.425 323.9316Q42.76875 324.6035 42.76875 325.71286ZM50.4875 320.7285Q50.4875 319.4941 51.096874 318.63474Q51.721874 317.77536 52.89375 317.77536Q53.971874 317.77536 54.675 318.5566Q55.378124 319.32224 55.378124 320.8066Q55.378124 322.25974 54.659374 323.0566Q53.95625 323.83786 52.909374 323.83786Q51.8625 323.83786 51.175 323.07224Q50.4875 322.291 50.4875 320.7285ZM52.925 318.7441Q52.409374 318.7441 52.05 319.19724Q51.70625 319.65036 51.70625 320.8691Q51.70625 321.96286 52.05 322.416Q52.409374 322.8691 52.925 322.8691Q53.45625 322.8691 53.8 322.416Q54.159374 321.96286 54.159374 320.75974Q54.159374 319.65036 53.8 319.19724Q53.45625 318.7441 52.925 318.7441ZM52.940624 329.8535L59.20625 317.77536L60.346874 317.77536L54.096874 329.8535L52.940624 329.8535ZM57.89375 326.7441Q57.89375 325.50974 58.503124 324.65036Q59.128124 323.791 60.3 323.791Q61.378124 323.791 62.08125 324.57224Q62.8 325.33786 62.8 326.82224Q62.8 328.27536 62.08125 329.07224Q61.3625 329.8535 60.315624 329.8535Q59.26875 329.8535 58.58125 329.07224Q57.89375 328.291 57.89375 326.7441ZM60.346874 324.75974Q59.815624 324.75974 59.45625 325.21286Q59.1125 325.666 59.1125 326.88474Q59.1125 327.9785 59.45625 328.4316Q59.815624 328.88474 60.33125 328.88474Q60.878124 328.88474 61.221874 328.4316Q61.565624 327.9785 61.565624 326.77536Q61.565624 325.666 61.20625 325.21286Q60.8625 324.75974 60.346874 324.75974Z" fill-rule="nonzero"/><path stroke="#757575" stroke-width="1.0" stroke-linecap="butt" d="M18.55 312.9316L145.23334 312.9316L210.34225 312.9316" fill-rule="nonzero"/><path fill="#9e9e9e" d="M212.34225 312.9316C212.34225 311.82706 211.44682 310.9316 210.34225 310.9316C209.23769 310.9316 208.34225 311.82706 208.34225 312.9316C208.34225 314.0362 209.23769 314.9316 210.34225 314.9316C211.44682 314.9316 212.34225 314.0362 212.34225 312.9316" fill-rule="nonzero"/><path fill="#efefef" d="M531.6844 212.03593L531.6844 200.58281L536.0125 200.58281Q537.15314 200.58281 537.7469 200.69218Q538.59064 200.83281 539.15314 201.22343Q539.73126 201.61406 540.075 202.33281Q540.4344 203.03593 540.4344 203.89531Q540.4344 205.34843 539.4969 206.36406Q538.575 207.37968 536.1375 207.37968L533.2 207.37968L533.2 212.03593L531.6844 212.03593ZM533.2 206.02031L536.16876 206.02031Q537.6375 206.02031 538.2469 205.47343Q538.8719 204.92656 538.8719 203.94218Q538.8719 203.22343 538.4969 202.70781Q538.1375 202.19218 537.54376 202.03593Q537.16876 201.92656 536.1375 201.92656L533.2 201.92656L533.2 206.02031ZM548.1844 209.36406L549.6375 209.53593Q549.29376 210.81718 548.35626 211.52031Q547.4344 212.22343 545.9969 212.22343Q544.16876 212.22343 543.10626 211.09843Q542.04376 209.97343 542.04376 207.95781Q542.04376 205.86406 543.1219 204.70781Q544.2 203.55156 545.91876 203.55156Q547.575 203.55156 548.6219 204.69218Q549.6844 205.81718 549.6844 207.86406Q549.6844 207.98906 549.6844 208.23906L543.4969 208.23906Q543.575 209.61406 544.2625 210.34843Q544.96564 211.06718 545.9969 211.06718Q546.77814 211.06718 547.325 210.66093Q547.8719 210.25468 548.1844 209.36406ZM543.575 207.08281L548.2 207.08281Q548.10626 206.03593 547.66876 205.52031Q546.9969 204.70781 545.9344 204.70781Q544.96564 204.70781 544.29376 205.36406Q543.6375 206.00468 543.575 207.08281ZM550.98126 207.87968Q550.98126 205.58281 552.2625 204.47343Q553.34064 203.55156 554.8719 203.55156Q556.59064 203.55156 557.66876 204.67656Q558.7625 205.78593 558.7625 207.77031Q558.7625 209.36406 558.27814 210.28593Q557.79376 211.20781 556.8719 211.72343Q555.96564 212.22343 554.8719 212.22343Q553.1375 212.22343 552.0594 211.11406Q550.98126 209.98906 550.98126 207.87968ZM552.4344 207.87968Q552.4344 209.47343 553.1219 210.27031Q553.825 211.06718 554.8719 211.06718Q555.91876 211.06718 556.60626 210.27031Q557.3094 209.47343 557.3094 207.83281Q557.3094 206.30156 556.60626 205.50468Q555.91876 204.70781 554.8719 204.70781Q553.825 204.70781 553.1219 205.50468Q552.4344 206.28593 552.4344 207.87968ZM560.5125 215.22343L560.5125 203.73906L561.79376 203.73906L561.79376 204.81718Q562.2469 204.17656 562.8094 203.86406Q563.3875 203.55156 564.2 203.55156Q565.2625 203.55156 566.075 204.09843Q566.8875 204.64531 567.29376 205.64531Q567.71564 206.62968 567.71564 207.81718Q567.71564 209.09843 567.2469 210.11406Q566.79376 211.12968 565.91876 211.67656Q565.0594 212.22343 564.09064 212.22343Q563.3875 212.22343 562.825 211.92656Q562.27814 211.62968 561.91876 211.17656L561.91876 215.22343L560.5125 215.22343ZM561.77814 207.92656Q561.77814 209.53593 562.41876 210.30156Q563.075 211.06718 563.9969 211.06718Q564.9344 211.06718 565.60626 210.27031Q566.27814 209.47343 566.27814 207.81718Q566.27814 206.22343 565.6219 205.44218Q564.96564 204.64531 564.0594 204.64531Q563.16876 204.64531 562.46564 205.48906Q561.77814 206.33281 561.77814 207.92656ZM569.48126 212.03593L569.48126 200.58281L570.8875 200.58281L570.8875 212.03593L569.48126 212.03593ZM579.1844 209.36406L580.6375 209.53593Q580.29376 210.81718 579.35626 211.52031Q578.4344 212.22343 576.9969 212.22343Q575.16876 212.22343 574.10626 211.09843Q573.04376 209.97343 573.04376 207.95781Q573.04376 205.86406 574.1219 204.70781Q575.2 203.55156 576.91876 203.55156Q578.575 203.55156 579.6219 204.69218Q580.6844 205.81718 580.6844 207.86406Q580.6844 207.98906 580.6844 208.23906L574.4969 208.23906Q574.575 209.61406 575.2625 210.34843Q575.96564 211.06718 576.9969 211.06718Q577.77814 211.06718 578.325 210.66093Q578.8719 210.25468 579.1844 209.36406ZM574.575 207.08281L579.2 207.08281Q579.10626 206.03593 578.66876 205.52031Q577.9969 204.70781 576.9344 204.70781Q575.96564 204.70781 575.29376 205.36406Q574.6375 206.00468 574.575 207.08281Z" fill-rule="nonzero"/><path fill="#9e9e9e" d="M537.1219 231.03593L538.59064 230.91093Q538.7625 231.98906 539.35626 232.53593Q539.95 233.06718 540.79376 233.06718Q541.8094 233.06718 542.5125 232.30156Q543.21564 231.53593 543.21564 230.27031Q543.21564 229.06718 542.54376 228.37968Q541.8719 227.67656 540.77814 227.67656Q540.09064 227.67656 539.54376 227.98906Q538.9969 228.30156 538.6844 228.78593L537.3719 228.61406L538.48126 222.73906L544.16876 222.73906L544.16876 224.08281L539.60626 224.08281L538.98126 227.16093Q540.0125 226.44218 541.15314 226.44218Q542.65314 226.44218 543.6844 227.48906Q544.71564 228.52031 544.71564 230.14531Q544.71564 231.70781 543.8094 232.83281Q542.7 234.23906 540.79376 234.23906Q539.23126 234.23906 538.2469 233.36406Q537.2625 232.47343 537.1219 231.03593ZM546.1219 231.00468L547.52814 230.81718Q547.77814 232.02031 548.35626 232.55156Q548.9344 233.06718 549.77814 233.06718Q550.7625 233.06718 551.45 232.37968Q552.1375 231.69218 552.1375 230.67656Q552.1375 229.70781 551.4969 229.08281Q550.8719 228.45781 549.8875 228.45781Q549.4969 228.45781 548.90314 228.61406L549.0594 227.37968Q549.2 227.39531 549.27814 227.39531Q550.1844 227.39531 550.90314 226.92656Q551.6219 226.45781 551.6219 225.47343Q551.6219 224.70781 551.09064 224.20781Q550.575 223.69218 549.7469 223.69218Q548.91876 223.69218 548.3719 224.20781Q547.825 224.72343 547.66876 225.75468L546.2625 225.50468Q546.52814 224.08281 547.4344 223.31718Q548.35626 222.53593 549.71564 222.53593Q550.65314 222.53593 551.4344 222.94218Q552.23126 223.33281 552.6375 224.03593Q553.0594 224.72343 553.0594 225.50468Q553.0594 226.25468 552.65314 226.86406Q552.2625 227.47343 551.48126 227.83281Q552.4969 228.06718 553.0594 228.80156Q553.6219 229.53593 553.6219 230.64531Q553.6219 232.14531 552.52814 233.19218Q551.4344 234.23906 549.7625 234.23906Q548.2625 234.23906 547.2625 233.34843Q546.2625 232.44218 546.1219 231.00468ZM555.90314 234.03593L555.90314 232.42656L557.5125 232.42656L557.5125 234.03593L555.90314 234.03593ZM564.41876 234.03593L563.0125 234.03593L563.0125 225.06718Q562.4969 225.55156 561.66876 226.03593Q560.85626 226.52031 560.2 226.77031L560.2 225.41093Q561.3719 224.84843 562.2469 224.06718Q563.1375 223.27031 563.5125 222.53593L564.41876 222.53593L564.41876 234.03593ZM568.3875 225.33281Q568.3875 224.09843 568.9969 223.23906Q569.6219 222.37968 570.79376 222.37968Q571.8719 222.37968 572.575 223.16093Q573.27814 223.92656 573.27814 225.41093Q573.27814 226.86406 572.5594 227.66093Q571.85626 228.44218 570.8094 228.44218Q569.7625 228.44218 569.075 227.67656Q568.3875 226.89531 568.3875 225.33281ZM570.825 223.34843Q570.3094 223.34843 569.95 223.80156Q569.60626 224.25468 569.60626 225.47343Q569.60626 226.56718 569.95 227.02031Q570.3094 227.47343 570.825 227.47343Q571.35626 227.47343 571.7 227.02031Q572.0594 226.56718 572.0594 225.36406Q572.0594 224.25468 571.7 223.80156Q571.35626 223.34843 570.825 223.34843ZM570.84064 234.45781L577.10626 222.37968L578.2469 222.37968L571.9969 234.45781L570.84064 234.45781ZM575.79376 231.34843Q575.79376 230.11406 576.40314 229.25468Q577.02814 228.39531 578.2 228.39531Q579.27814 228.39531 579.98126 229.17656Q580.7 229.94218 580.7 231.42656Q580.7 232.87968 579.98126 233.67656Q579.2625 234.45781 578.21564 234.45781Q577.16876 234.45781 576.48126 233.67656Q575.79376 232.89531 575.79376 231.34843ZM578.2469 229.36406Q577.71564 229.36406 577.35626 229.81718Q577.0125 230.27031 577.0125 231.48906Q577.0125 232.58281 577.35626 233.03593Q577.71564 233.48906 578.23126 233.48906Q578.77814 233.48906 579.1219 233.03593Q579.46564 232.58281 579.46564 231.37968Q579.46564 230.27031 579.10626 229.81718Q578.7625 229.36406 578.2469 229.36406Z" fill-rule="nonzero"/><path stroke="#757575" stroke-width="1.0" stroke-linecap="butt" d="M581.45 217.53593L454.76666 217.53593L440.6478 217.53593" fill-rule="nonzero"/><path fill="#9e9e9e" d="M442.6478 217.53593C442.6478 216.43137 441.75238 215.53593 440.6478 215.53593C439.54324 215.53593 438.6478 216.43137 438.6478 217.53593C438.6478 218.6405 439.54324 219.53593 440.6478 219.53593C441.75238 219.53593 442.6478 218.6405 442.6478 217.53593" fill-rule="nonzero"/><path fill="#f3f3f3" d="M265.98438 37.55L265.98438 23.2375L268.84375 23.2375L272.21875 33.3625Q272.6875 34.784374 272.90625 35.4875Q273.15625 34.70625 273.67188 33.190624L277.09375 23.2375L279.64062 23.2375L279.64062 37.55L277.82812 37.55L277.82812 25.565624L273.65625 37.55L271.95312 37.55L267.8125 25.3625L267.8125 37.55L265.98438 37.55ZM289.92188 34.20625L291.73438 34.440624Q291.3125 36.01875 290.14062 36.909374Q288.98438 37.784374 287.17188 37.784374Q284.90625 37.784374 283.5625 36.39375Q282.23438 34.9875 282.23438 32.45625Q282.23438 29.83125 283.57812 28.39375Q284.92188 26.940624 287.07812 26.940624Q289.15625 26.940624 290.46875 28.3625Q291.79688 29.76875 291.79688 32.346874Q291.79688 32.503124 291.78125 32.815624L284.04688 32.815624Q284.14062 34.51875 285.01562 35.425Q285.89062 36.33125 287.1875 36.33125Q288.15625 36.33125 288.82812 35.83125Q289.51562 35.315624 289.92188 34.20625ZM284.14062 31.3625L289.9375 31.3625Q289.82812 30.065624 289.28125 29.409374Q288.4375 28.39375 287.09375 28.39375Q285.89062 28.39375 285.0625 29.20625Q284.23438 30.003124 284.14062 31.3625ZM300.54688 37.55L300.54688 36.2375Q299.5625 37.784374 297.64062 37.784374Q296.40625 37.784374 295.35938 37.096874Q294.32812 36.409374 293.75 35.190624Q293.1875 33.971874 293.1875 32.378124Q293.1875 30.815624 293.70312 29.55Q294.21875 28.284374 295.25 27.6125Q296.29688 26.940624 297.5625 26.940624Q298.5 26.940624 299.23438 27.346874Q299.96875 27.7375 300.4375 28.3625L300.4375 23.2375L302.17188 23.2375L302.17188 37.55L300.54688 37.55ZM294.98438 32.378124Q294.98438 34.3625 295.82812 35.346874Q296.67188 36.33125 297.8125 36.33125Q298.96875 36.33125 299.76562 35.39375Q300.57812 34.45625 300.57812 32.51875Q300.57812 30.39375 299.75 29.39375Q298.9375 28.39375 297.73438 28.39375Q296.5625 28.39375 295.76562 29.3625Q294.98438 30.315624 294.98438 32.378124ZM304.82812 25.253124L304.82812 23.2375L306.59375 23.2375L306.59375 25.253124L304.82812 25.253124ZM304.82812 37.55L304.82812 27.175L306.59375 27.175L306.59375 37.55L304.82812 37.55ZM315.60938 37.55L315.60938 36.01875Q314.40625 37.784374 312.32812 37.784374Q311.40625 37.784374 310.60938 37.440624Q309.8125 37.08125 309.42188 36.55Q309.04688 36.01875 308.89062 35.2375Q308.78125 34.721874 308.78125 33.596874L308.78125 27.175L310.53125 27.175L310.53125 32.925Q310.53125 34.3 310.64062 34.784374Q310.8125 35.471874 311.34375 35.878124Q311.89062 36.26875 312.67188 36.26875Q313.46875 36.26875 314.15625 35.8625Q314.85938 35.45625 315.14062 34.76875Q315.4375 34.065624 315.4375 32.7375L315.4375 27.175L317.1875 27.175L317.1875 37.55L315.60938 37.55ZM319.8125 37.55L319.8125 27.175L321.39062 27.175L321.39062 28.628124Q321.875 27.878124 322.6875 27.409374Q323.5 26.940624 324.53125 26.940624Q325.6875 26.940624 326.42188 27.425Q327.15625 27.89375 327.46875 28.753124Q328.70312 26.940624 330.67188 26.940624Q332.21875 26.940624 333.04688 27.8Q333.875 28.659374 333.875 30.425L333.875 37.55L332.125 37.55L332.125 31.01875Q332.125 29.95625 331.95312 29.503124Q331.78125 29.034374 331.32812 28.753124Q330.89062 28.471874 330.28125 28.471874Q329.1875 28.471874 328.45312 29.20625Q327.73438 29.925 327.73438 31.51875L327.73438 37.55L325.98438 37.55L325.98438 30.815624Q325.98438 29.64375 325.54688 29.065624Q325.125 28.471874 324.14062 28.471874Q323.40625 28.471874 322.76562 28.8625Q322.14062 29.253124 321.85938 30.003124Q321.57812 30.753124 321.57812 32.175L321.57812 37.55L319.8125 37.55Z" fill-rule="nonzero"/></svg>