<svg version="1.1" viewBox="0.0 0.0 600.0 371.0" fill="none" stroke="none" stroke-linecap="square" stroke-miterlimit="10" width="600" height="371" xmlns:xlink="http://www.w3.org/1999/xlink" xmlns="http://www.w3.org/2000/svg"><path fill="#ffffff" fill-opacity="0.0" d="M0 0L600.0 0L600.0 371.0L0 371.0L0 0Z" fill-rule="nonzero"/><path fill="#304388" d="M300.0 54.916668C309.7446 54.916668 319.4656 55.874104 329.02295 57.775177L307.25574 167.2063C304.8664 166.73102 302.43616 166.49167 300.0 166.49167Z" fill-rule="nonzero"/><path fill="#313d89" d="M329.02295 57.775177C357.88086 63.51537 384.38852 77.68402 405.1939 98.48942L326.2985 177.38486C321.09714 172.1835 314.4702 168.64134 307.25574 167.2063Z" fill-rule="nonzero"/><path fill="#533990" d="M405.1939 98.48942C433.09308 126.38857 448.76666 164.22797 448.76666 203.68333L337.19168 203.68333C337.19168 193.81949 333.2733 184.35965 326.2985 177.38486Z" fill-rule="nonzero"/><path fill="#cf4366" d="M448.76666 203.68333C448.76666 263.85382 412.52084 318.09955 356.93054 341.12582L314.23264 238.04396C328.13022 232.28738 337.19168 218.72595 337.19168 203.68333Z" fill-rule="nonzero"/><path fill="#f7d750" d="M154.09184 232.70627C145.40208 189.01991 156.74452 143.73837 185.00182 109.30676C213.25911 74.87515 255.45776 54.916668 300.0 54.916668L300.0 166.49167C288.86444 166.49167 278.3148 171.4813 271.25046 180.08919C264.18613 188.6971 261.35052 200.01747 263.52295 210.93907Z" fill-rule="nonzero"/><path fill="#e5a345" d="M243.06946 341.12582C197.16606 322.112 163.785 281.43707 154.09184 232.70627L263.52295 210.93907C265.94626 223.12177 274.2915 233.2905 285.76736 238.04396Z" fill-rule="nonzero"/><path fill="#df8d43" d="M356.93054 341.12582C320.47852 356.22473 279.52148 356.22473 243.06946 341.12582L285.76736 238.04396C294.88037 241.81868 305.11963 241.81868 314.23264 238.04396Z" fill-rule="nonzero"/><path fill="#ffffff" d="M331.61255 111.5449L333.12817 111.404274Q333.3313 112.4824 333.86255 112.966774Q334.40942 113.45115 335.2688 113.45115Q336.00317 113.45115 336.55005 113.123024Q337.09692 112.779274 337.44067 112.2324Q337.80005 111.6699 338.03442 110.716774Q338.2688 109.76365 338.2688 108.779274Q338.2688 108.6699 338.2688 108.466774Q337.78442 109.216774 336.9563 109.685524Q336.1438 110.154274 335.19067 110.154274Q333.59692 110.154274 332.48755 108.998024Q331.37817 107.841774 331.37817 105.935524Q331.37817 103.9824 332.53442 102.7949Q333.69067 101.591774 335.42505 101.591774Q336.69067 101.591774 337.72192 102.279274Q338.7688 102.95115 339.30005 104.20115Q339.84692 105.45115 339.84692 107.82615Q339.84692 110.2949 339.30005 111.76365Q338.7688 113.216774 337.7063 113.9824Q336.65942 114.748024 335.23755 114.748024Q333.72192 114.748024 332.75317 113.9199Q331.80005 113.07615 331.61255 111.5449ZM338.09692 105.8574Q338.09692 104.498024 337.36255 103.70115Q336.6438 102.904274 335.62817 102.904274Q334.56567 102.904274 333.78442 103.76365Q333.00317 104.623024 333.00317 105.998024Q333.00317 107.2324 333.73755 107.998024Q334.48755 108.76365 335.5813 108.76365Q336.67505 108.76365 337.37817 107.998024Q338.09692 107.2324 338.09692 105.8574ZM342.2688 114.529274L342.2688 112.7324L344.06567 112.7324L344.06567 114.529274L342.2688 114.529274ZM351.44067 114.529274L351.44067 111.45115L345.86255 111.45115L345.86255 109.998024L351.73755 101.63865L353.03442 101.63865L353.03442 109.998024L354.7688 109.998024L354.7688 111.45115L353.03442 111.45115L353.03442 114.529274L351.44067 114.529274ZM351.44067 109.998024L351.44067 104.185524L347.40942 109.998024L351.44067 109.998024ZM356.67505 104.7324Q356.67505 103.3574 357.36255 102.38865Q358.06567 101.4199 359.37817 101.4199Q360.59692 101.4199 361.3938 102.2949Q362.19067 103.154274 362.19067 104.841774Q362.19067 106.466774 361.37817 107.3574Q360.5813 108.2324 359.3938 108.2324Q358.23755 108.2324 357.4563 107.373024Q356.67505 106.498024 356.67505 104.7324ZM359.42505 102.51365Q358.8313 102.51365 358.44067 103.029274Q358.05005 103.529274 358.05005 104.88865Q358.05005 106.13865 358.44067 106.63865Q358.84692 107.13865 359.42505 107.13865Q360.0188 107.13865 360.40942 106.63865Q360.80005 106.123024 360.80005 104.779274Q360.80005 103.529274 360.40942 103.029274Q360.0188 102.51365 359.42505 102.51365ZM359.44067 114.998024L366.48755 101.4199L367.7688 101.4199L360.73755 114.998024L359.44067 114.998024ZM365.00317 111.498024Q365.00317 110.123024 365.69067 109.154274Q366.3938 108.185524 367.72192 108.185524Q368.94067 108.185524 369.72192 109.060524Q370.5188 109.9199 370.5188 111.6074Q370.5188 113.2324 369.72192 114.123024Q368.92505 114.998024 367.73755 114.998024Q366.56567 114.998024 365.78442 114.123024Q365.00317 113.248024 365.00317 111.498024ZM367.7688 109.279274Q367.17505 109.279274 366.78442 109.7949Q366.3938 110.2949 366.3938 111.6699Q366.3938 112.88865 366.78442 113.404274Q367.17505 113.9199 367.75317 113.9199Q368.36255 113.9199 368.75317 113.404274Q369.1438 112.88865 369.1438 111.5449Q369.1438 110.2949 368.75317 109.7949Q368.36255 109.279274 367.7688 109.279274Z" fill-rule="nonzero"/><path fill="#ffffff" d="M375.0114 171.32668L373.4333 171.32668L373.4333 161.24855Q372.85516 161.79543 371.9333 162.3423Q371.0114 162.87355 370.2614 163.1548L370.2614 161.62355Q371.58954 160.99855 372.58954 160.10793Q373.58954 159.2173 373.9958 158.38918L375.0114 158.38918L375.0114 171.32668ZM387.3708 169.81105L387.3708 171.32668L378.85516 171.32668Q378.83954 170.74855 379.04266 170.23293Q379.3708 169.35793 380.0739 168.51418Q380.79266 167.67043 382.15204 166.56105Q384.2458 164.8423 384.98016 163.8423Q385.73016 162.82668 385.73016 161.93605Q385.73016 160.98293 385.0583 160.3423Q384.3864 159.70168 383.3083 159.70168Q382.15204 159.70168 381.46454 160.38918Q380.79266 161.07668 380.77704 162.2798L379.15204 162.10793Q379.3239 160.29543 380.40204 159.3423Q381.4958 158.38918 383.33954 158.38918Q385.1833 158.38918 386.2614 159.42043Q387.35516 160.45168 387.35516 161.9673Q387.35516 162.73293 387.02704 163.48293Q386.71454 164.23293 385.98016 165.06105Q385.2458 165.88918 383.54266 167.32668Q382.1208 168.5298 381.71454 168.95168Q381.3083 169.37355 381.0583 169.81105L387.3708 169.81105ZM389.9489 171.32668L389.9489 169.5298L391.7458 169.5298L391.7458 171.32668L389.9489 171.32668ZM394.0583 167.95168L395.71454 167.81105Q395.90204 169.0298 396.5739 169.63918Q397.2458 170.24855 398.1989 170.24855Q399.33954 170.24855 400.1208 169.38918Q400.91766 168.5298 400.91766 167.0923Q400.91766 165.74855 400.15204 164.9673Q399.40204 164.18605 398.16766 164.18605Q397.40204 164.18605 396.77704 164.5298Q396.16766 164.87355 395.8239 165.43605L394.33954 165.23293L395.58954 158.62355L401.9958 158.62355L401.9958 160.12355L396.85516 160.12355L396.15204 163.5923Q397.3239 162.7798 398.58954 162.7798Q400.27704 162.7798 401.4333 163.95168Q402.60516 165.12355 402.60516 166.95168Q402.60516 168.70168 401.5739 169.98293Q400.33954 171.54543 398.1989 171.54543Q396.4333 171.54543 395.3239 170.56105Q394.21454 169.57668 394.0583 167.95168ZM404.35516 161.5298Q404.35516 160.1548 405.04266 159.18605Q405.7458 158.2173 407.0583 158.2173Q408.27704 158.2173 409.0739 159.0923Q409.8708 159.95168 409.8708 161.63918Q409.8708 163.26418 409.0583 164.1548Q408.2614 165.0298 407.0739 165.0298Q405.91766 165.0298 405.1364 164.17043Q404.35516 163.29543 404.35516 161.5298ZM407.10516 159.31105Q406.5114 159.31105 406.1208 159.82668Q405.73016 160.32668 405.73016 161.68605Q405.73016 162.93605 406.1208 163.43605Q406.52704 163.93605 407.10516 163.93605Q407.6989 163.93605 408.08954 163.43605Q408.48016 162.92043 408.48016 161.57668Q408.48016 160.32668 408.08954 159.82668Q407.6989 159.31105 407.10516 159.31105ZM407.1208 171.79543L414.16766 158.2173L415.4489 158.2173L408.41766 171.79543L407.1208 171.79543ZM412.6833 168.29543Q412.6833 166.92043 413.3708 165.95168Q414.0739 164.98293 415.40204 164.98293Q416.6208 164.98293 417.40204 165.85793Q418.1989 166.7173 418.1989 168.4048Q418.1989 170.0298 417.40204 170.92043Q416.60516 171.79543 415.41766 171.79543Q414.2458 171.79543 413.46454 170.92043Q412.6833 170.04543 412.6833 168.29543ZM415.4489 166.07668Q414.85516 166.07668 414.46454 166.5923Q414.0739 167.0923 414.0739 168.4673Q414.0739 169.68605 414.46454 170.20168Q414.85516 170.7173 415.4333 170.7173Q416.04266 170.7173 416.4333 170.20168Q416.8239 169.68605 416.8239 168.3423Q416.8239 167.0923 416.4333 166.5923Q416.04266 166.07668 415.4489 166.07668Z" fill-rule="nonzero"/><path fill="#ffffff" d="M365.25656 266.34604L363.67844 266.34604L363.67844 256.2679Q363.1003 256.8148 362.17844 257.36166Q361.25656 257.8929 360.50656 258.17416L360.50656 256.6429Q361.8347 256.0179 362.8347 255.12729Q363.8347 254.23666 364.24094 253.40854L365.25656 253.40854L365.25656 266.34604ZM371.74094 259.36166Q370.75656 259.0023 370.2722 258.3304Q369.80344 257.65854 369.80344 256.73666Q369.80344 255.33041 370.80344 254.37729Q371.81906 253.40854 373.50656 253.40854Q375.19406 253.40854 376.2097 254.39291Q377.24094 255.36166 377.24094 256.7679Q377.24094 257.67416 376.7722 258.34604Q376.30344 259.0023 375.3503 259.36166Q376.5378 259.7523 377.1472 260.61166Q377.7722 261.47104 377.7722 262.65854Q377.7722 264.3148 376.6003 265.4398Q375.42844 266.5648 373.5222 266.5648Q371.61594 266.5648 370.44406 265.4398Q369.2878 264.29916 369.2878 262.61166Q369.2878 261.36166 369.9128 260.5179Q370.55344 259.65854 371.74094 259.36166ZM371.4128 256.67416Q371.4128 257.59604 372.00656 258.17416Q372.6003 258.7523 373.5378 258.7523Q374.44406 258.7523 375.0222 258.17416Q375.61594 257.59604 375.61594 256.7679Q375.61594 255.89291 375.00656 255.29916Q374.4128 254.70541 373.5222 254.70541Q372.61594 254.70541 372.00656 255.28354Q371.4128 255.86166 371.4128 256.67416ZM370.9128 262.6273Q370.9128 263.29916 371.2253 263.9398Q371.55344 264.5648 372.17844 264.92416Q372.81906 265.2679 373.55344 265.2679Q374.67844 265.2679 375.4128 264.53354Q376.1628 263.79916 376.1628 262.67416Q376.1628 261.53354 375.3972 260.79916Q374.63156 260.04916 373.49094 260.04916Q372.38156 260.04916 371.6472 260.78354Q370.9128 261.5179 370.9128 262.6273ZM380.19406 266.34604L380.19406 264.54916L381.99094 264.54916L381.99094 266.34604L380.19406 266.34604ZM386.74094 259.36166Q385.75656 259.0023 385.2722 258.3304Q384.80344 257.65854 384.80344 256.73666Q384.80344 255.33041 385.80344 254.37729Q386.81906 253.40854 388.50656 253.40854Q390.19406 253.40854 391.2097 254.39291Q392.24094 255.36166 392.24094 256.7679Q392.24094 257.67416 391.7722 258.34604Q391.30344 259.0023 390.3503 259.36166Q391.5378 259.7523 392.1472 260.61166Q392.7722 261.47104 392.7722 262.65854Q392.7722 264.3148 391.6003 265.4398Q390.42844 266.5648 388.5222 266.5648Q386.61594 266.5648 385.44406 265.4398Q384.2878 264.29916 384.2878 262.61166Q384.2878 261.36166 384.9128 260.5179Q385.55344 259.65854 386.74094 259.36166ZM386.4128 256.67416Q386.4128 257.59604 387.00656 258.17416Q387.6003 258.7523 388.5378 258.7523Q389.44406 258.7523 390.0222 258.17416Q390.61594 257.59604 390.61594 256.7679Q390.61594 255.89291 390.00656 255.29916Q389.4128 254.70541 388.5222 254.70541Q387.61594 254.70541 387.00656 255.28354Q386.4128 255.86166 386.4128 256.67416ZM385.9128 262.6273Q385.9128 263.29916 386.2253 263.9398Q386.55344 264.5648 387.17844 264.92416Q387.81906 265.2679 388.55344 265.2679Q389.67844 265.2679 390.4128 264.53354Q391.1628 263.79916 391.1628 262.67416Q391.1628 261.53354 390.3972 260.79916Q389.63156 260.04916 388.49094 260.04916Q387.38156 260.04916 386.6472 260.78354Q385.9128 261.5179 385.9128 262.6273ZM394.6003 256.54916Q394.6003 255.17416 395.2878 254.20541Q395.99094 253.23666 397.30344 253.23666Q398.5222 253.23666 399.31906 254.11166Q400.11594 254.97104 400.11594 256.65854Q400.11594 258.28354 399.30344 259.17416Q398.50656 260.04916 397.31906 260.04916Q396.1628 260.04916 395.38156 259.1898Q394.6003 258.3148 394.6003 256.54916ZM397.3503 254.33041Q396.75656 254.33041 396.36594 254.84604Q395.9753 255.34604 395.9753 256.7054Q395.9753 257.9554 396.36594 258.4554Q396.7722 258.9554 397.3503 258.9554Q397.94406 258.9554 398.3347 258.4554Q398.7253 257.9398 398.7253 256.59604Q398.7253 255.34604 398.3347 254.84604Q397.94406 254.33041 397.3503 254.33041ZM397.36594 266.8148L404.4128 253.23666L405.69406 253.23666L398.6628 266.8148L397.36594 266.8148ZM402.92844 263.3148Q402.92844 261.9398 403.61594 260.97104Q404.31906 260.0023 405.6472 260.0023Q406.86594 260.0023 407.6472 260.8773Q408.44406 261.73666 408.44406 263.42416Q408.44406 265.04916 407.6472 265.9398Q406.8503 266.8148 405.6628 266.8148Q404.49094 266.8148 403.7097 265.9398Q402.92844 265.0648 402.92844 263.3148ZM405.69406 261.09604Q405.1003 261.09604 404.7097 261.61166Q404.31906 262.11166 404.31906 263.48666Q404.31906 264.7054 404.7097 265.22104Q405.1003 265.73666 405.67844 265.73666Q406.2878 265.73666 406.67844 265.22104Q407.06906 264.7054 407.06906 263.36166Q407.06906 262.11166 406.67844 261.61166Q406.2878 261.09604 405.69406 261.09604Z" fill-rule="nonzero"/><path fill="#ffffff" d="M281.20312 327.98923L279.625 327.98923L279.625 317.9111Q279.04688 318.45798 278.125 319.00485Q277.20312 319.5361 276.45312 319.81735L276.45312 318.2861Q277.78125 317.6611 278.78125 316.77048Q279.78125 315.87985 280.1875 315.05173L281.20312 315.05173L281.20312 327.98923ZM293.5625 326.4736L293.5625 327.98923L285.04688 327.98923Q285.03125 327.4111 285.23438 326.89548Q285.5625 326.02048 286.26562 325.17673Q286.98438 324.33298 288.34375 323.2236Q290.4375 321.50485 291.17188 320.50485Q291.92188 319.48923 291.92188 318.5986Q291.92188 317.64548 291.25 317.00485Q290.57812 316.36423 289.5 316.36423Q288.34375 316.36423 287.65625 317.05173Q286.98438 317.73923 286.96875 318.94235L285.34375 318.77048Q285.51562 316.95798 286.59375 316.00485Q287.6875 315.05173 289.53125 315.05173Q291.375 315.05173 292.45312 316.08298Q293.54688 317.11423 293.54688 318.62985Q293.54688 319.39548 293.21875 320.14548Q292.90625 320.89548 292.17188 321.7236Q291.4375 322.55173 289.73438 323.98923Q288.3125 325.19235 287.90625 325.61423Q287.5 326.0361 287.25 326.4736L293.5625 326.4736ZM296.14062 327.98923L296.14062 326.19235L297.9375 326.19235L297.9375 327.98923L296.14062 327.98923ZM300.25 324.61423L301.90625 324.4736Q302.09375 325.69235 302.76562 326.30173Q303.4375 326.9111 304.39062 326.9111Q305.53125 326.9111 306.3125 326.05173Q307.10938 325.19235 307.10938 323.75485Q307.10938 322.4111 306.34375 321.62985Q305.59375 320.8486 304.35938 320.8486Q303.59375 320.8486 302.96875 321.19235Q302.35938 321.5361 302.01562 322.0986L300.53125 321.89548L301.78125 315.2861L308.1875 315.2861L308.1875 316.7861L303.04688 316.7861L302.34375 320.25485Q303.51562 319.44235 304.78125 319.44235Q306.46875 319.44235 307.625 320.61423Q308.79688 321.7861 308.79688 323.61423Q308.79688 325.36423 307.76562 326.64548Q306.53125 328.20798 304.39062 328.20798Q302.625 328.20798 301.51562 327.2236Q300.40625 326.23923 300.25 324.61423ZM310.54688 318.19235Q310.54688 316.81735 311.23438 315.8486Q311.9375 314.87985 313.25 314.87985Q314.46875 314.87985 315.26562 315.75485Q316.0625 316.61423 316.0625 318.30173Q316.0625 319.92673 315.25 320.81735Q314.45312 321.69235 313.26562 321.69235Q312.10938 321.69235 311.32812 320.83298Q310.54688 319.95798 310.54688 318.19235ZM313.29688 315.9736Q312.70312 315.9736 312.3125 316.48923Q311.92188 316.98923 311.92188 318.3486Q311.92188 319.5986 312.3125 320.0986Q312.71875 320.5986 313.29688 320.5986Q313.89062 320.5986 314.28125 320.0986Q314.67188 319.58298 314.67188 318.23923Q314.67188 316.98923 314.28125 316.48923Q313.89062 315.9736 313.29688 315.9736ZM313.3125 328.45798L320.35938 314.87985L321.64062 314.87985L314.60938 328.45798L313.3125 328.45798ZM318.875 324.95798Q318.875 323.58298 319.5625 322.61423Q320.26562 321.64548 321.59375 321.64548Q322.8125 321.64548 323.59375 322.52048Q324.39062 323.37985 324.39062 325.06735Q324.39062 326.69235 323.59375 327.58298Q322.79688 328.45798 321.60938 328.45798Q320.4375 328.45798 319.65625 327.58298Q318.875 326.70798 318.875 324.95798ZM321.64062 322.73923Q321.04688 322.73923 320.65625 323.25485Q320.26562 323.75485 320.26562 325.12985Q320.26562 326.3486 320.65625 326.86423Q321.04688 327.37985 321.625 327.37985Q322.23438 327.37985 322.625 326.86423Q323.01562 326.3486 323.01562 325.00485Q323.01562 323.75485 322.625 323.25485Q322.23438 322.73923 321.64062 322.73923Z" fill-rule="nonzero"/><path fill="#ffffff" d="M202.86986 274.4698L201.29173 274.4698L201.29173 264.39166Q200.71361 264.93854 199.79173 265.4854Q198.86986 266.01666 198.11986 266.2979L198.11986 264.76666Q199.44798 264.14166 200.44798 263.25104Q201.44798 262.3604 201.85423 261.5323L202.86986 261.5323L202.86986 274.4698ZM206.91673 271.0948L208.57298 270.95416Q208.76048 272.1729 209.43236 272.7823Q210.10423 273.39166 211.05736 273.39166Q212.19798 273.39166 212.97923 272.5323Q213.77611 271.6729 213.77611 270.2354Q213.77611 268.89166 213.01048 268.1104Q212.26048 267.32916 211.02611 267.32916Q210.26048 267.32916 209.63548 267.6729Q209.02611 268.01666 208.68236 268.57916L207.19798 268.37604L208.44798 261.76666L214.85423 261.76666L214.85423 263.26666L209.71361 263.26666L209.01048 266.7354Q210.18236 265.9229 211.44798 265.9229Q213.13548 265.9229 214.29173 267.0948Q215.46361 268.26666 215.46361 270.0948Q215.46361 271.8448 214.43236 273.12604Q213.19798 274.68854 211.05736 274.68854Q209.29173 274.68854 208.18236 273.70416Q207.07298 272.7198 206.91673 271.0948ZM217.80736 274.4698L217.80736 272.6729L219.60423 272.6729L219.60423 274.4698L217.80736 274.4698ZM230.11986 264.7354L228.55736 264.8604Q228.33861 263.93854 227.94798 263.51666Q227.30736 262.82916 226.36986 262.82916Q225.61986 262.82916 225.04173 263.25104Q224.29173 263.7979 223.85423 264.8448Q223.43236 265.89166 223.41673 267.82916Q223.99486 266.95416 224.80736 266.5323Q225.63548 266.1104 226.54173 266.1104Q228.13548 266.1104 229.24486 267.2823Q230.35423 268.43854 230.35423 270.2823Q230.35423 271.50104 229.82298 272.5479Q229.30736 273.57916 228.38548 274.14166Q227.47923 274.68854 226.32298 274.68854Q224.33861 274.68854 223.08861 273.2354Q221.83861 271.7823 221.83861 268.43854Q221.83861 264.70416 223.22923 263.00104Q224.43236 261.5323 226.46361 261.5323Q227.99486 261.5323 228.96361 262.39166Q229.93236 263.2354 230.11986 264.7354ZM223.66673 270.2979Q223.66673 271.1104 224.01048 271.8604Q224.35423 272.6104 224.97923 273.00104Q225.60423 273.39166 226.29173 273.39166Q227.29173 273.39166 228.01048 272.57916Q228.72923 271.76666 228.72923 270.37604Q228.72923 269.0479 228.01048 268.2823Q227.30736 267.50104 226.22923 267.50104Q225.15111 267.50104 224.40111 268.2823Q223.66673 269.0479 223.66673 270.2979ZM232.21361 264.6729Q232.21361 263.2979 232.90111 262.32916Q233.60423 261.3604 234.91673 261.3604Q236.13548 261.3604 236.93236 262.2354Q237.72923 263.0948 237.72923 264.7823Q237.72923 266.4073 236.91673 267.2979Q236.11986 268.1729 234.93236 268.1729Q233.77611 268.1729 232.99486 267.31354Q232.21361 266.43854 232.21361 264.6729ZM234.96361 262.45416Q234.36986 262.45416 233.97923 262.9698Q233.58861 263.4698 233.58861 264.82916Q233.58861 266.07916 233.97923 266.57916Q234.38548 267.07916 234.96361 267.07916Q235.55736 267.07916 235.94798 266.57916Q236.33861 266.06354 236.33861 264.7198Q236.33861 263.4698 235.94798 262.9698Q235.55736 262.45416 234.96361 262.45416ZM234.97923 274.93854L242.02611 261.3604L243.30736 261.3604L236.27611 274.93854L234.97923 274.93854ZM240.54173 271.43854Q240.54173 270.06354 241.22923 269.0948Q241.93236 268.12604 243.26048 268.12604Q244.47923 268.12604 245.26048 269.00104Q246.05736 269.8604 246.05736 271.5479Q246.05736 273.1729 245.26048 274.06354Q244.46361 274.93854 243.27611 274.93854Q242.10423 274.93854 241.32298 274.06354Q240.54173 273.18854 240.54173 271.43854ZM243.30736 269.2198Q242.71361 269.2198 242.32298 269.7354Q241.93236 270.2354 241.93236 271.6104Q241.93236 272.82916 242.32298 273.3448Q242.71361 273.8604 243.29173 273.8604Q243.90111 273.8604 244.29173 273.3448Q244.68236 272.82916 244.68236 271.4854Q244.68236 270.2354 244.29173 269.7354Q243.90111 269.2198 243.30736 269.2198Z" fill-rule="nonzero"/><path fill="#ffffff" d="M205.22923 144.38126L205.22923 145.89688L196.71361 145.89688Q196.69798 145.31876 196.90111 144.80313Q197.22923 143.92813 197.93236 143.08438Q198.65111 142.24063 200.01048 141.13126Q202.10423 139.4125 202.83861 138.4125Q203.58861 137.39688 203.58861 136.50626Q203.58861 135.55313 202.91673 134.9125Q202.24486 134.27188 201.16673 134.27188Q200.01048 134.27188 199.32298 134.95938Q198.65111 135.64688 198.63548 136.85L197.01048 136.67813Q197.18236 134.86563 198.26048 133.9125Q199.35423 132.95938 201.19798 132.95938Q203.04173 132.95938 204.11986 133.99063Q205.21361 135.02188 205.21361 136.5375Q205.21361 137.30313 204.88548 138.05313Q204.57298 138.80313 203.83861 139.63126Q203.10423 140.45938 201.40111 141.89688Q199.97923 143.1 199.57298 143.52188Q199.16673 143.94376 198.91673 144.38126L205.22923 144.38126ZM209.35423 138.9125Q208.36986 138.55313 207.88548 137.88126Q207.41673 137.20938 207.41673 136.2875Q207.41673 134.88126 208.41673 133.92813Q209.43236 132.95938 211.11986 132.95938Q212.80736 132.95938 213.82298 133.94376Q214.85423 134.9125 214.85423 136.31876Q214.85423 137.225 214.38548 137.89688Q213.91673 138.55313 212.96361 138.9125Q214.15111 139.30313 214.76048 140.1625Q215.38548 141.02188 215.38548 142.20938Q215.38548 143.86563 214.21361 144.99063Q213.04173 146.11563 211.13548 146.11563Q209.22923 146.11563 208.05736 144.99063Q206.90111 143.85 206.90111 142.1625Q206.90111 140.9125 207.52611 140.06876Q208.16673 139.20938 209.35423 138.9125ZM209.02611 136.225Q209.02611 137.14688 209.61986 137.725Q210.21361 138.30313 211.15111 138.30313Q212.05736 138.30313 212.63548 137.725Q213.22923 137.14688 213.22923 136.31876Q213.22923 135.44376 212.61986 134.85Q212.02611 134.25626 211.13548 134.25626Q210.22923 134.25626 209.61986 134.83438Q209.02611 135.4125 209.02611 136.225ZM208.52611 142.17813Q208.52611 142.85 208.83861 143.49063Q209.16673 144.11563 209.79173 144.475Q210.43236 144.81876 211.16673 144.81876Q212.29173 144.81876 213.02611 144.08438Q213.77611 143.35 213.77611 142.225Q213.77611 141.08438 213.01048 140.35Q212.24486 139.6 211.10423 139.6Q209.99486 139.6 209.26048 140.33438Q208.52611 141.06876 208.52611 142.17813ZM217.80736 145.89688L217.80736 144.1L219.60423 144.1L219.60423 145.89688L217.80736 145.89688ZM227.86986 145.89688L226.29173 145.89688L226.29173 135.81876Q225.71361 136.36563 224.79173 136.9125Q223.86986 137.44376 223.11986 137.725L223.11986 136.19376Q224.44798 135.56876 225.44798 134.67813Q226.44798 133.7875 226.85423 132.95938L227.86986 132.95938L227.86986 145.89688ZM232.21361 136.1Q232.21361 134.725 232.90111 133.75626Q233.60423 132.7875 234.91673 132.7875Q236.13548 132.7875 236.93236 133.6625Q237.72923 134.52188 237.72923 136.20938Q237.72923 137.83438 236.91673 138.725Q236.11986 139.6 234.93236 139.6Q233.77611 139.6 232.99486 138.74063Q232.21361 137.86563 232.21361 136.1ZM234.96361 133.88126Q234.36986 133.88126 233.97923 134.39688Q233.58861 134.89688 233.58861 136.25626Q233.58861 137.50626 233.97923 138.00626Q234.38548 138.50626 234.96361 138.50626Q235.55736 138.50626 235.94798 138.00626Q236.33861 137.49063 236.33861 136.14688Q236.33861 134.89688 235.94798 134.39688Q235.55736 133.88126 234.96361 133.88126ZM234.97923 146.36563L242.02611 132.7875L243.30736 132.7875L236.27611 146.36563L234.97923 146.36563ZM240.54173 142.86563Q240.54173 141.49063 241.22923 140.52188Q241.93236 139.55313 243.26048 139.55313Q244.47923 139.55313 245.26048 140.42813Q246.05736 141.2875 246.05736 142.975Q246.05736 144.6 245.26048 145.49063Q244.46361 146.36563 243.27611 146.36563Q242.10423 146.36563 241.32298 145.49063Q240.54173 144.61563 240.54173 142.86563ZM243.30736 140.64688Q242.71361 140.64688 242.32298 141.1625Q241.93236 141.6625 241.93236 143.0375Q241.93236 144.25626 242.32298 144.77188Q242.71361 145.2875 243.29173 145.2875Q243.90111 145.2875 244.29173 144.77188Q244.68236 144.25626 244.68236 142.9125Q244.68236 141.6625 244.29173 141.1625Q243.90111 140.64688 243.30736 140.64688Z" fill-rule="nonzero"/><path stroke="#ffffff" stroke-width="1.0" stroke-linejoin="round" stroke-linecap="round" d="M307.25574 167.2063C304.8664 166.73102 302.43616 166.49167 300.0 166.49167L300.0 54.916668C309.7446 54.916668 319.4656 55.874104 329.02295 57.775177" fill-rule="nonzero"/><path stroke="#ffffff" stroke-width="1.0" stroke-linejoin="round" stroke-linecap="round" d="M326.2985 177.38486C321.09714 172.1835 314.4702 168.64134 307.25574 167.2063L329.02295 57.775177C357.88086 63.51537 384.38852 77.68402 405.1939 98.48942" fill-rule="nonzero"/><path stroke="#ffffff" stroke-width="1.0" stroke-linejoin="round" stroke-linecap="round" d="M337.19168 203.68333C337.19168 193.81949 333.2733 184.35965 326.2985 177.38486L405.1939 98.48942C433.09308 126.38857 448.76666 164.22797 448.76666 203.68333" fill-rule="nonzero"/><path stroke="#ffffff" stroke-width="1.0" stroke-linejoin="round" stroke-linecap="round" d="M314.23264 238.04396C328.13022 232.28738 337.19168 218.72595 337.19168 203.68333L448.76666 203.68333C448.76666 263.85382 412.52084 318.09955 356.93054 341.12582" fill-rule="nonzero"/><path stroke="#ffffff" stroke-width="1.0" stroke-linejoin="round" stroke-linecap="round" d="M285.76736 238.04396C294.88037 241.81868 305.11963 241.81868 314.23264 238.04396L356.93054 341.12582C320.47852 356.22473 279.52148 356.22473 243.06946 341.12582" fill-rule="nonzero"/><path stroke="#ffffff" stroke-width="1.0" stroke-linejoin="round" stroke-linecap="round" d="M263.52295 210.93907C265.94626 223.12177 274.2915 233.2905 285.76736 238.04396L243.06946 341.12582C197.16606 322.112 163.785 281.43707 154.09184 232.70627" fill-rule="nonzero"/><path stroke="#ffffff" stroke-width="1.0" stroke-linejoin="round" stroke-linecap="round" d="M300.0 166.49167C288.86444 166.49167 278.3148 171.4813 271.25046 180.08919C264.18613 188.6971 261.35052 200.01747 263.52295 210.93907L154.09184 232.70627C145.40208 189.01991 156.74452 143.73837 185.00182 109.30676C213.25911 74.87515 255.45776 54.916668 300.0 54.916668" fill-rule="nonzero"/><path fill="#efefef" d="M19.784374 108.52559L19.784374 97.072464L24.1125 97.072464Q25.253124 97.072464 25.846874 97.18184Q26.690624 97.322464 27.253124 97.71309Q27.83125 98.103714 28.175 98.822464Q28.534374 99.52559 28.534374 100.384964Q28.534374 101.83809 27.596874 102.853714Q26.675 103.86934 24.2375 103.86934L21.3 103.86934L21.3 108.52559L19.784374 108.52559ZM21.3 102.509964L24.26875 102.509964Q25.7375 102.509964 26.346874 101.96309Q26.971874 101.416214 26.971874 100.43184Q26.971874 99.71309 26.596874 99.197464Q26.2375 98.68184 25.64375 98.52559Q25.26875 98.416214 24.2375 98.416214L21.3 98.416214L21.3 102.509964ZM36.01875 107.49434Q35.2375 108.166214 34.51875 108.447464Q33.8 108.71309 32.971874 108.71309Q31.596874 108.71309 30.8625 108.041214Q30.128124 107.36934 30.128124 106.33809Q30.128124 105.728714 30.409374 105.228714Q30.690624 104.71309 31.128124 104.416214Q31.58125 104.103714 32.14375 103.947464Q32.565624 103.83809 33.39375 103.74434Q35.096874 103.541214 35.909374 103.259964Q35.909374 102.96309 35.909374 102.884964Q35.909374 102.02559 35.51875 101.68184Q34.971874 101.197464 33.909374 101.197464Q32.925 101.197464 32.440624 101.55684Q31.971874 101.90059 31.753124 102.77559L30.378124 102.58809Q30.565624 101.71309 30.9875 101.166214Q31.425 100.61934 32.2375 100.33809Q33.05 100.041214 34.1125 100.041214Q35.175 100.041214 35.83125 100.291214Q36.503124 100.541214 36.815624 100.916214Q37.128124 101.291214 37.253124 101.86934Q37.33125 102.228714 37.33125 103.166214L37.33125 105.041214Q37.33125 107.009964 37.409374 107.52559Q37.503124 108.041214 37.76875 108.52559L36.3 108.52559Q36.08125 108.08809 36.01875 107.49434ZM35.909374 104.353714Q35.14375 104.666214 33.6125 104.884964Q32.7375 105.009964 32.378124 105.166214Q32.01875 105.322464 31.815624 105.634964Q31.628124 105.93184 31.628124 106.291214Q31.628124 106.853714 32.05 107.228714Q32.4875 107.603714 33.3 107.603714Q34.1125 107.603714 34.7375 107.259964Q35.378124 106.90059 35.675 106.27559Q35.909374 105.80684 35.909374 104.86934L35.909374 104.353714ZM39.346874 109.21309L40.721874 109.416214Q40.8 110.05684 41.190624 110.33809Q41.721874 110.728714 42.628124 110.728714Q43.596874 110.728714 44.128124 110.33809Q44.659374 109.947464 44.846874 109.24434Q44.95625 108.822464 44.95625 107.43184Q44.034374 108.52559 42.659374 108.52559Q40.940624 108.52559 40.003124 107.291214Q39.065624 106.05684 39.065624 104.322464Q39.065624 103.134964 39.4875 102.134964Q39.925 101.134964 40.7375 100.58809Q41.565624 100.041214 42.659374 100.041214Q44.128124 100.041214 45.08125 101.228714L45.08125 100.228714L46.378124 100.228714L46.378124 107.40059Q46.378124 109.33809 45.9875 110.15059Q45.596874 110.96309 44.7375 111.43184Q43.878124 111.90059 42.628124 111.90059Q41.14375 111.90059 40.221874 111.228714Q39.315624 110.55684 39.346874 109.21309ZM40.51875 104.228714Q40.51875 105.853714 41.159374 106.603714Q41.815624 107.353714 42.784374 107.353714Q43.753124 107.353714 44.409374 106.61934Q45.065624 105.86934 45.065624 104.27559Q45.065624 102.74434 44.39375 101.978714Q43.721874 101.197464 42.76875 101.197464Q41.83125 101.197464 41.175 101.96309Q40.51875 102.728714 40.51875 104.228714ZM54.284374 105.853714L55.7375 106.02559Q55.39375 107.30684 54.45625 108.009964Q53.534374 108.71309 52.096874 108.71309Q50.26875 108.71309 49.20625 107.58809Q48.14375 106.46309 48.14375 104.447464Q48.14375 102.353714 49.221874 101.197464Q50.3 100.041214 52.01875 100.041214Q53.675 100.041214 54.721874 101.18184Q55.784374 102.30684 55.784374 104.353714Q55.784374 104.478714 55.784374 104.728714L49.596874 104.728714Q49.675 106.103714 50.3625 106.83809Q51.065624 107.55684 52.096874 107.55684Q52.878124 107.55684 53.425 107.15059Q53.971874 106.74434 54.284374 105.853714ZM49.675 103.572464L54.3 103.572464Q54.20625 102.52559 53.76875 102.009964Q53.096874 101.197464 52.034374 101.197464Q51.065624 101.197464 50.39375 101.853714Q49.7375 102.49434 49.675 103.572464Z" fill-rule="nonzero"/><path fill="#9e9e9e" d="M26.6125 129.16621L26.6125 130.52559L19.034374 130.52559Q19.01875 130.00996 19.20625 129.54121Q19.4875 128.77559 20.128124 128.02559Q20.76875 127.27559 21.971874 126.291214Q23.83125 124.759964 24.4875 123.86934Q25.14375 122.96309 25.14375 122.166214Q25.14375 121.33809 24.55 120.759964Q23.95625 120.18184 22.9875 120.18184Q21.971874 120.18184 21.3625 120.791214Q20.753124 121.40059 20.753124 122.478714L19.3 122.33809Q19.45625 120.71309 20.425 119.86934Q21.39375 119.02559 23.01875 119.02559Q24.675 119.02559 25.628124 119.947464Q26.596874 120.853714 26.596874 122.197464Q26.596874 122.884964 26.315624 123.55684Q26.034374 124.21309 25.378124 124.947464Q24.721874 125.68184 23.20625 126.96309Q21.940624 128.02559 21.58125 128.41621Q21.221874 128.79121 20.9875 129.16621L26.6125 129.16621ZM30.378124 124.30684Q29.503124 123.99434 29.08125 123.40059Q28.659374 122.80684 28.659374 121.978714Q28.659374 120.728714 29.55 119.884964Q30.45625 119.02559 31.95625 119.02559Q33.45625 119.02559 34.3625 119.90059Q35.284374 120.759964 35.284374 122.009964Q35.284374 122.80684 34.8625 123.40059Q34.440624 123.99434 33.596874 124.30684Q34.64375 124.65059 35.190624 125.416214Q35.753124 126.18184 35.753124 127.24434Q35.753124 128.71309 34.70625 129.72871Q33.675 130.72871 31.971874 130.72871Q30.284374 130.72871 29.2375 129.72871Q28.20625 128.71309 28.20625 127.21309Q28.20625 126.08809 28.76875 125.33809Q29.33125 124.58809 30.378124 124.30684ZM30.096874 121.93184Q30.096874 122.74434 30.6125 123.259964Q31.14375 123.77559 31.9875 123.77559Q32.8 123.77559 33.315624 123.259964Q33.83125 122.74434 33.83125 122.009964Q33.83125 121.228714 33.3 120.71309Q32.76875 120.18184 31.971874 120.18184Q31.159374 120.18184 30.628124 120.697464Q30.096874 121.21309 30.096874 121.93184ZM29.64375 127.21309Q29.64375 127.822464 29.925 128.38496Q30.221874 128.94746 30.784374 129.25996Q31.346874 129.55684 31.9875 129.55684Q33.003124 129.55684 33.659374 128.91621Q34.315624 128.25996 34.315624 127.259964Q34.315624 126.24434 33.628124 125.58809Q32.95625 124.916214 31.940624 124.916214Q30.95625 124.916214 30.3 125.572464Q29.64375 126.228714 29.64375 127.21309ZM38.003124 130.52559L38.003124 128.91621L39.6125 128.91621L39.6125 130.52559L38.003124 130.52559ZM46.51875 130.52559L45.1125 130.52559L45.1125 121.55684Q44.596874 122.041214 43.76875 122.52559Q42.95625 123.009964 42.3 123.259964L42.3 121.90059Q43.471874 121.33809 44.346874 120.55684Q45.2375 119.759964 45.6125 119.02559L46.51875 119.02559L46.51875 130.52559ZM50.4875 121.822464Q50.4875 120.58809 51.096874 119.728714Q51.721874 118.86934 52.89375 118.86934Q53.971874 118.86934 54.675 119.65059Q55.378124 120.416214 55.378124 121.90059Q55.378124 123.353714 54.659374 124.15059Q53.95625 124.93184 52.909374 124.93184Q51.8625 124.93184 51.175 124.166214Q50.4875 123.384964 50.4875 121.822464ZM52.925 119.83809Q52.409374 119.83809 52.05 120.291214Q51.70625 120.74434 51.70625 121.96309Q51.70625 123.05684 52.05 123.509964Q52.409374 123.96309 52.925 123.96309Q53.45625 123.96309 53.8 123.509964Q54.159374 123.05684 54.159374 121.853714Q54.159374 120.74434 53.8 120.291214Q53.45625 119.83809 52.925 119.83809ZM52.940624 130.94746L59.20625 118.86934L60.346874 118.86934L54.096874 130.94746L52.940624 130.94746ZM57.89375 127.83809Q57.89375 126.603714 58.503124 125.74434Q59.128124 124.884964 60.3 124.884964Q61.378124 124.884964 62.08125 125.666214Q62.8 126.43184 62.8 127.916214Q62.8 129.36934 62.08125 130.16621Q61.3625 130.94746 60.315624 130.94746Q59.26875 130.94746 58.58125 130.16621Q57.89375 129.38496 57.89375 127.83809ZM60.346874 125.853714Q59.815624 125.853714 59.45625 126.30684Q59.1125 126.759964 59.1125 127.978714Q59.1125 129.07246 59.45625 129.52559Q59.815624 129.97871 60.33125 129.97871Q60.878124 129.97871 61.221874 129.52559Q61.565624 129.07246 61.565624 127.86934Q61.565624 126.759964 61.20625 126.30684Q60.8625 125.853714 60.346874 125.853714Z" fill-rule="nonzero"/><path stroke="#757575" stroke-width="1.0" stroke-linecap="butt" d="M18.55 114.02559L145.23334 114.02559L190.75172 114.02559" fill-rule="nonzero"/><path fill="#9e9e9e" d="M192.75172 114.02559C192.75172 112.92102 191.8563 112.02559 190.75172 112.02559C189.64716 112.02559 188.75172 112.92102 188.75172 114.02559C188.75172 115.13016 189.64716 116.02559 190.75172 116.02559C191.8563 116.02559 192.75172 115.13016 192.75172 114.02559" fill-rule="nonzero"/><path fill="#efefef" d="M27.3 276.38794L28.815624 276.38794L28.815624 282.9973Q28.815624 284.7317 28.425 285.7473Q28.034374 286.76294 27.01875 287.40356Q26.003124 288.0442 24.346874 288.0442Q22.7375 288.0442 21.70625 287.4817Q20.690624 286.9192 20.253124 285.8723Q19.815624 284.82544 19.815624 282.9973L19.815624 276.38794L21.33125 276.38794L21.33125 282.9973Q21.33125 284.4817 21.596874 285.20044Q21.878124 285.90356 22.55 286.2942Q23.2375 286.6692 24.20625 286.6692Q25.878124 286.6692 26.58125 285.9192Q27.3 285.15356 27.3 282.9973L27.3 276.38794ZM31.596874 287.84106L31.596874 279.5442L32.8625 279.5442L32.8625 280.7942Q33.346874 279.9192 33.753124 279.63794Q34.159374 279.3567 34.659374 279.3567Q35.3625 279.3567 36.096874 279.8098L35.6125 281.1067Q35.096874 280.8098 34.58125 280.8098Q34.128124 280.8098 33.753124 281.09106Q33.39375 281.3567 33.2375 281.8567Q33.003124 282.6067 33.003124 283.4973L33.003124 287.84106L31.596874 287.84106ZM37.909374 287.84106L36.596874 287.84106L36.596874 276.38794L38.003124 276.38794L38.003124 280.46606Q38.89375 279.3567 40.284374 279.3567Q41.05 279.3567 41.721874 279.6692Q42.409374 279.96606 42.846874 280.52856Q43.3 281.09106 43.55 281.88794Q43.8 282.6692 43.8 283.5598Q43.8 285.70044 42.7375 286.8723Q41.690624 288.02856 40.20625 288.02856Q38.7375 288.02856 37.909374 286.7942L37.909374 287.84106ZM37.89375 283.6223Q37.89375 285.1223 38.3 285.77856Q38.95625 286.8723 40.096874 286.8723Q41.01875 286.8723 41.690624 286.07544Q42.3625 285.26294 42.3625 283.6848Q42.3625 282.0598 41.70625 281.2942Q41.065624 280.51294 40.159374 280.51294Q39.2375 280.51294 38.565624 281.3098Q37.89375 282.1067 37.89375 283.6223ZM51.01875 286.8098Q50.2375 287.4817 49.51875 287.76294Q48.8 288.02856 47.971874 288.02856Q46.596874 288.02856 45.8625 287.3567Q45.128124 286.6848 45.128124 285.65356Q45.128124 285.0442 45.409374 284.5442Q45.690624 284.02856 46.128124 283.7317Q46.58125 283.4192 47.14375 283.26294Q47.565624 283.15356 48.39375 283.0598Q50.096874 282.8567 50.909374 282.57544Q50.909374 282.27856 50.909374 282.20044Q50.909374 281.34106 50.51875 280.9973Q49.971874 280.51294 48.909374 280.51294Q47.925 280.51294 47.440624 280.8723Q46.971874 281.21606 46.753124 282.09106L45.378124 281.90356Q45.565624 281.02856 45.9875 280.4817Q46.425 279.9348 47.2375 279.65356Q48.05 279.3567 49.1125 279.3567Q50.175 279.3567 50.83125 279.6067Q51.503124 279.8567 51.815624 280.2317Q52.128124 280.6067 52.253124 281.1848Q52.33125 281.5442 52.33125 282.4817L52.33125 284.3567Q52.33125 286.32544 52.409374 286.84106Q52.503124 287.3567 52.76875 287.84106L51.3 287.84106Q51.08125 287.40356 51.01875 286.8098ZM50.909374 283.6692Q50.14375 283.9817 48.6125 284.20044Q47.7375 284.32544 47.378124 284.4817Q47.01875 284.63794 46.815624 284.95044Q46.628124 285.2473 46.628124 285.6067Q46.628124 286.1692 47.05 286.5442Q47.4875 286.9192 48.3 286.9192Q49.1125 286.9192 49.7375 286.57544Q50.378124 286.21606 50.675 285.59106Q50.909374 285.1223 50.909374 284.1848L50.909374 283.6692ZM54.6125 287.84106L54.6125 279.5442L55.878124 279.5442L55.878124 280.71606Q56.784374 279.3567 58.51875 279.3567Q59.26875 279.3567 59.89375 279.6223Q60.51875 279.88794 60.83125 280.32544Q61.14375 280.76294 61.26875 281.3723Q61.346874 281.76294 61.346874 282.7317L61.346874 287.84106L59.940624 287.84106L59.940624 282.7942Q59.940624 281.9348 59.76875 281.51294Q59.6125 281.07544 59.190624 280.82544Q58.784374 280.57544 58.221874 280.57544Q57.315624 280.57544 56.659374 281.15356Q56.01875 281.71606 56.01875 283.3098L56.01875 287.84106L54.6125 287.84106ZM63.05 285.3567L64.44063 285.13794Q64.55 285.9817 65.08125 286.4348Q65.62813 286.8723 66.58125 286.8723Q67.55 286.8723 68.01875 286.4817Q68.4875 286.07544 68.4875 285.5442Q68.4875 285.07544 68.08125 284.7942Q67.78438 284.6067 66.64375 284.32544Q65.09688 283.9348 64.4875 283.65356Q63.89375 283.3567 63.58125 282.8567Q63.284374 282.3567 63.284374 281.7473Q63.284374 281.1848 63.534374 280.71606Q63.784374 280.2473 64.22188 279.9348Q64.55 279.6848 65.1125 279.52856Q65.69063 279.3567 66.33125 279.3567Q67.31563 279.3567 68.05 279.63794Q68.78438 279.9192 69.12813 280.40356Q69.4875 280.8723 69.62813 281.6848L68.25313 281.8723Q68.15938 281.2317 67.70625 280.8723Q67.25313 280.51294 66.44063 280.51294Q65.47188 280.51294 65.05 280.84106Q64.64375 281.15356 64.64375 281.57544Q64.64375 281.8567 64.81563 282.07544Q64.9875 282.2942 65.34688 282.45044Q65.56563 282.52856 66.59688 282.8098Q68.08125 283.20044 68.675 283.46606Q69.26875 283.71606 69.59688 284.20044Q69.94063 284.6848 69.94063 285.40356Q69.94063 286.1067 69.51875 286.7317Q69.1125 287.34106 68.33125 287.6848Q67.56563 288.02856 66.59688 288.02856Q64.97188 288.02856 64.12813 287.3567Q63.284374 286.6848 63.05 285.3567ZM77.01875 284.7942L78.40938 284.9817Q78.175 286.40356 77.2375 287.21606Q76.31563 288.02856 74.95625 288.02856Q73.25313 288.02856 72.20625 286.9192Q71.175 285.7942 71.175 283.71606Q71.175 282.3723 71.6125 281.3723Q72.06563 280.3567 72.97188 279.8567Q73.89375 279.3567 74.95625 279.3567Q76.31563 279.3567 77.175 280.0442Q78.03438 280.71606 78.26875 281.9817L76.90938 282.1848Q76.70625 281.3567 76.20625 280.9348Q75.72188 280.51294 75.01875 280.51294Q73.95625 280.51294 73.28438 281.27856Q72.62813 282.02856 72.62813 283.6848Q72.62813 285.3567 73.26875 286.1223Q73.90938 286.8723 74.94063 286.8723Q75.76875 286.8723 76.31563 286.3723Q76.87813 285.8567 77.01875 284.7942ZM85.01875 286.8098Q84.2375 287.4817 83.51875 287.76294Q82.8 288.02856 81.97188 288.02856Q80.59688 288.02856 79.8625 287.3567Q79.12813 286.6848 79.12813 285.65356Q79.12813 285.0442 79.40938 284.5442Q79.69063 284.02856 80.12813 283.7317Q80.58125 283.4192 81.14375 283.26294Q81.56563 283.15356 82.39375 283.0598Q84.09688 282.8567 84.90938 282.57544Q84.90938 282.27856 84.90938 282.20044Q84.90938 281.34106 84.51875 280.9973Q83.97188 280.51294 82.90938 280.51294Q81.925 280.51294 81.44063 280.8723Q80.97188 281.21606 80.75313 282.09106L79.37813 281.90356Q79.56563 281.02856 79.9875 280.4817Q80.425 279.9348 81.2375 279.65356Q82.05 279.3567 83.1125 279.3567Q84.175 279.3567 84.83125 279.6067Q85.50313 279.8567 85.81563 280.2317Q86.12813 280.6067 86.25313 281.1848Q86.33125 281.5442 86.33125 282.4817L86.33125 284.3567Q86.33125 286.32544 86.40938 286.84106Q86.50313 287.3567 86.76875 287.84106L85.3 287.84106Q85.08125 287.40356 85.01875 286.8098ZM84.90938 283.6692Q84.14375 283.9817 82.6125 284.20044Q81.7375 284.32544 81.37813 284.4817Q81.01875 284.63794 80.81563 284.95044Q80.62813 285.2473 80.62813 285.6067Q80.62813 286.1692 81.05 286.5442Q81.4875 286.9192 82.3 286.9192Q83.1125 286.9192 83.7375 286.57544Q84.37813 286.21606 84.675 285.59106Q84.90938 285.1223 84.90938 284.1848L84.90938 283.6692ZM88.6125 291.02856L88.6125 279.5442L89.89375 279.5442L89.89375 280.6223Q90.34688 279.9817 90.90938 279.6692Q91.4875 279.3567 92.3 279.3567Q93.3625 279.3567 94.175 279.90356Q94.9875 280.45044 95.39375 281.45044Q95.81563 282.4348 95.81563 283.6223Q95.81563 284.90356 95.34688 285.9192Q94.89375 286.9348 94.01875 287.4817Q93.15938 288.02856 92.19063 288.02856Q91.4875 288.02856 90.925 287.7317Q90.37813 287.4348 90.01875 286.9817L90.01875 291.02856L88.6125 291.02856ZM89.87813 283.7317Q89.87813 285.34106 90.51875 286.1067Q91.175 286.8723 92.09688 286.8723Q93.03438 286.8723 93.70625 286.07544Q94.37813 285.27856 94.37813 283.6223Q94.37813 282.02856 93.72188 281.2473Q93.06563 280.45044 92.15938 280.45044Q91.26875 280.45044 90.56563 281.2942Q89.87813 282.13794 89.87813 283.7317ZM103.28438 285.1692L104.7375 285.34106Q104.39375 286.6223 103.45625 287.32544Q102.53438 288.02856 101.09688 288.02856Q99.26875 288.02856 98.20625 286.90356Q97.14375 285.77856 97.14375 283.76294Q97.14375 281.6692 98.22188 280.51294Q99.3 279.3567 101.01875 279.3567Q102.675 279.3567 103.72188 280.4973Q104.78438 281.6223 104.78438 283.6692Q104.78438 283.7942 104.78438 284.0442L98.59688 284.0442Q98.675 285.4192 99.3625 286.15356Q100.06563 286.8723 101.09688 286.8723Q101.87813 286.8723 102.425 286.46606Q102.97188 286.0598 103.28438 285.1692ZM98.675 282.88794L103.3 282.88794Q103.20625 281.84106 102.76875 281.32544Q102.09688 280.51294 101.03438 280.51294Q100.06563 280.51294 99.39375 281.1692Q98.7375 281.8098 98.675 282.88794Z" fill-rule="nonzero"/><path fill="#9e9e9e" d="M24.51875 309.84106L23.1125 309.84106L23.1125 300.8723Q22.596874 301.3567 21.76875 301.84106Q20.95625 302.32544 20.3 302.57544L20.3 301.21606Q21.471874 300.65356 22.346874 299.8723Q23.2375 299.07544 23.6125 298.34106L24.51875 298.34106L24.51875 309.84106ZM28.221874 306.84106L29.690624 306.71606Q29.8625 307.7942 30.45625 308.34106Q31.05 308.8723 31.89375 308.8723Q32.909374 308.8723 33.6125 308.1067Q34.315624 307.34106 34.315624 306.07544Q34.315624 304.8723 33.64375 304.1848Q32.971874 303.4817 31.878124 303.4817Q31.190624 303.4817 30.64375 303.7942Q30.096874 304.1067 29.784374 304.59106L28.471874 304.4192L29.58125 298.5442L35.26875 298.5442L35.26875 299.88794L30.70625 299.88794L30.08125 302.96606Q31.1125 302.2473 32.253124 302.2473Q33.753124 302.2473 34.784374 303.2942Q35.815624 304.32544 35.815624 305.95044Q35.815624 307.51294 34.909374 308.63794Q33.8 310.0442 31.89375 310.0442Q30.33125 310.0442 29.346874 309.1692Q28.3625 308.27856 28.221874 306.84106ZM38.003124 309.84106L38.003124 308.2317L39.6125 308.2317L39.6125 309.84106L38.003124 309.84106ZM48.51875 301.1848L47.1125 301.2942Q46.925 300.46606 46.58125 300.09106Q46.01875 299.4973 45.175 299.4973Q44.503124 299.4973 44.003124 299.8723Q43.33125 300.3567 42.940624 301.2942Q42.565624 302.21606 42.55 303.9348Q43.065624 303.15356 43.8 302.77856Q44.534374 302.40356 45.33125 302.40356Q46.7375 302.40356 47.721874 303.45044Q48.721874 304.4817 48.721874 306.1223Q48.721874 307.20044 48.253124 308.1223Q47.784374 309.0442 46.971874 309.5442Q46.159374 310.0442 45.128124 310.0442Q43.378124 310.0442 42.26875 308.7473Q41.159374 307.45044 41.159374 304.4817Q41.159374 301.15356 42.378124 299.65356Q43.45625 298.34106 45.26875 298.34106Q46.6125 298.34106 47.471874 299.1067Q48.346874 299.8567 48.51875 301.1848ZM42.76875 306.1223Q42.76875 306.8567 43.08125 307.52856Q43.39375 308.1848 43.940624 308.52856Q44.503124 308.8723 45.1125 308.8723Q46.003124 308.8723 46.64375 308.15356Q47.284374 307.4348 47.284374 306.20044Q47.284374 305.01294 46.64375 304.34106Q46.01875 303.65356 45.05 303.65356Q44.096874 303.65356 43.425 304.34106Q42.76875 305.01294 42.76875 306.1223ZM50.4875 301.13794Q50.4875 299.90356 51.096874 299.0442Q51.721874 298.1848 52.89375 298.1848Q53.971874 298.1848 54.675 298.96606Q55.378124 299.7317 55.378124 301.21606Q55.378124 302.6692 54.659374 303.46606Q53.95625 304.2473 52.909374 304.2473Q51.8625 304.2473 51.175 303.4817Q50.4875 302.70044 50.4875 301.13794ZM52.925 299.15356Q52.409374 299.15356 52.05 299.6067Q51.70625 300.0598 51.70625 301.27856Q51.70625 302.3723 52.05 302.82544Q52.409374 303.27856 52.925 303.27856Q53.45625 303.27856 53.8 302.82544Q54.159374 302.3723 54.159374 301.1692Q54.159374 300.0598 53.8 299.6067Q53.45625 299.15356 52.925 299.15356ZM52.940624 310.26294L59.20625 298.1848L60.346874 298.1848L54.096874 310.26294L52.940624 310.26294ZM57.89375 307.15356Q57.89375 305.9192 58.503124 305.0598Q59.128124 304.20044 60.3 304.20044Q61.378124 304.20044 62.08125 304.9817Q62.8 305.7473 62.8 307.2317Q62.8 308.6848 62.08125 309.4817Q61.3625 310.26294 60.315624 310.26294Q59.26875 310.26294 58.58125 309.4817Q57.89375 308.70044 57.89375 307.15356ZM60.346874 305.1692Q59.815624 305.1692 59.45625 305.6223Q59.1125 306.07544 59.1125 307.2942Q59.1125 308.38794 59.45625 308.84106Q59.815624 309.2942 60.33125 309.2942Q60.878124 309.2942 61.221874 308.84106Q61.565624 308.38794 61.565624 307.1848Q61.565624 306.07544 61.20625 305.6223Q60.8625 305.1692 60.346874 305.1692Z" fill-rule="nonzero"/><path stroke="#757575" stroke-width="1.0" stroke-linecap="butt" d="M18.55 293.34106L145.23334 293.34106L190.75172 293.34106" fill-rule="nonzero"/><path fill="#9e9e9e" d="M192.75172 293.34106C192.75172 292.2365 191.8563 291.34106 190.75172 291.34106C189.64716 291.34106 188.75172 292.2365 188.75172 293.34106C188.75172 294.44565 189.64716 295.34106 190.75172 295.34106C191.8563 295.34106 192.75172 294.44565 192.75172 293.34106" fill-rule="nonzero"/><path fill="#efefef" d="M551.6375 69.916664L551.6375 58.46354L553.91876 58.46354L556.6375 66.572914Q557.0125 67.697914 557.1844 68.260414Q557.3719 67.635414 557.79376 66.43229L560.52814 58.46354L562.575 58.46354L562.575 69.916664L561.10626 69.916664L561.10626 60.322914L557.77814 69.916664L556.41876 69.916664L553.10626 60.166664L553.10626 69.916664L551.6375 69.916664ZM569.91876 68.885414Q569.1375 69.55729 568.41876 69.83854Q567.7 70.104164 566.8719 70.104164Q565.4969 70.104164 564.7625 69.43229Q564.02814 68.760414 564.02814 67.729164Q564.02814 67.11979 564.3094 66.61979Q564.59064 66.104164 565.02814 65.80729Q565.48126 65.49479 566.04376 65.33854Q566.46564 65.229164 567.29376 65.135414Q568.9969 64.93229 569.8094 64.65104Q569.8094 64.354164 569.8094 64.27604Q569.8094 63.416664 569.41876 63.072914Q568.8719 62.58854 567.8094 62.58854Q566.825 62.58854 566.34064 62.947914Q565.8719 63.291664 565.65314 64.166664L564.27814 63.979164Q564.46564 63.104164 564.8875 62.55729Q565.325 62.010414 566.1375 61.729164Q566.95 61.43229 568.0125 61.43229Q569.075 61.43229 569.73126 61.68229Q570.40314 61.93229 570.71564 62.30729Q571.02814 62.68229 571.15314 63.260414Q571.23126 63.61979 571.23126 64.55729L571.23126 66.43229Q571.23126 68.40104 571.3094 68.916664Q571.40314 69.43229 571.66876 69.916664L570.2 69.916664Q569.98126 69.479164 569.91876 68.885414ZM569.8094 65.74479Q569.04376 66.05729 567.5125 66.27604Q566.6375 66.40104 566.27814 66.55729Q565.91876 66.71354 565.71564 67.02604Q565.52814 67.322914 565.52814 67.68229Q565.52814 68.24479 565.95 68.61979Q566.3875 68.99479 567.2 68.99479Q568.0125 68.99479 568.6375 68.65104Q569.27814 68.291664 569.575 67.666664Q569.8094 67.197914 569.8094 66.260414L569.8094 65.74479ZM573.5125 73.104164L573.5125 61.61979L574.79376 61.61979L574.79376 62.697914Q575.2469 62.05729 575.8094 61.74479Q576.3875 61.43229 577.2 61.43229Q578.2625 61.43229 579.075 61.979164Q579.8875 62.52604 580.29376 63.52604Q580.71564 64.510414 580.71564 65.697914Q580.71564 66.979164 580.2469 67.99479Q579.79376 69.010414 578.91876 69.55729Q578.0594 70.104164 577.09064 70.104164Q576.3875 70.104164 575.825 69.80729Q575.27814 69.510414 574.91876 69.05729L574.91876 73.104164L573.5125 73.104164ZM574.77814 65.80729Q574.77814 67.416664 575.41876 68.18229Q576.075 68.947914 576.9969 68.947914Q577.9344 68.947914 578.60626 68.15104Q579.27814 67.354164 579.27814 65.697914Q579.27814 64.104164 578.6219 63.322914Q577.96564 62.52604 577.0594 62.52604Q576.16876 62.52604 575.46564 63.36979Q574.77814 64.21354 574.77814 65.80729Z" fill-rule="nonzero"/><path fill="#9e9e9e" d="M546.1219 88.885414L547.52814 88.697914Q547.77814 89.90104 548.35626 90.43229Q548.9344 90.947914 549.77814 90.947914Q550.7625 90.947914 551.45 90.260414Q552.1375 89.572914 552.1375 88.55729Q552.1375 87.58854 551.4969 86.96354Q550.8719 86.33854 549.8875 86.33854Q549.4969 86.33854 548.90314 86.49479L549.0594 85.260414Q549.2 85.27604 549.27814 85.27604Q550.1844 85.27604 550.90314 84.80729Q551.6219 84.33854 551.6219 83.354164Q551.6219 82.58854 551.09064 82.08854Q550.575 81.572914 549.7469 81.572914Q548.91876 81.572914 548.3719 82.08854Q547.825 82.604164 547.66876 83.635414L546.2625 83.385414Q546.52814 81.96354 547.4344 81.197914Q548.35626 80.416664 549.71564 80.416664Q550.65314 80.416664 551.4344 80.822914Q552.23126 81.21354 552.6375 81.916664Q553.0594 82.604164 553.0594 83.385414Q553.0594 84.135414 552.65314 84.74479Q552.2625 85.354164 551.48126 85.71354Q552.4969 85.947914 553.0594 86.68229Q553.6219 87.416664 553.6219 88.52604Q553.6219 90.02604 552.52814 91.072914Q551.4344 92.11979 549.7625 92.11979Q548.2625 92.11979 547.2625 91.229164Q546.2625 90.322914 546.1219 88.885414ZM555.90314 91.916664L555.90314 90.30729L557.5125 90.30729L557.5125 91.916664L555.90314 91.916664ZM564.41876 91.916664L563.0125 91.916664L563.0125 82.947914Q562.4969 83.43229 561.66876 83.916664Q560.85626 84.40104 560.2 84.65104L560.2 83.291664Q561.3719 82.729164 562.2469 81.947914Q563.1375 81.15104 563.5125 80.416664L564.41876 80.416664L564.41876 91.916664ZM568.3875 83.21354Q568.3875 81.979164 568.9969 81.11979Q569.6219 80.260414 570.79376 80.260414Q571.8719 80.260414 572.575 81.041664Q573.27814 81.80729 573.27814 83.291664Q573.27814 84.74479 572.5594 85.541664Q571.85626 86.322914 570.8094 86.322914Q569.7625 86.322914 569.075 85.55729Q568.3875 84.77604 568.3875 83.21354ZM570.825 81.229164Q570.3094 81.229164 569.95 81.68229Q569.60626 82.135414 569.60626 83.354164Q569.60626 84.447914 569.95 84.90104Q570.3094 85.354164 570.825 85.354164Q571.35626 85.354164 571.7 84.90104Q572.0594 84.447914 572.0594 83.24479Q572.0594 82.135414 571.7 81.68229Q571.35626 81.229164 570.825 81.229164ZM570.84064 92.33854L577.10626 80.260414L578.2469 80.260414L571.9969 92.33854L570.84064 92.33854ZM575.79376 89.229164Q575.79376 87.99479 576.40314 87.135414Q577.02814 86.27604 578.2 86.27604Q579.27814 86.27604 579.98126 87.05729Q580.7 87.822914 580.7 89.30729Q580.7 90.760414 579.98126 91.55729Q579.2625 92.33854 578.21564 92.33854Q577.16876 92.33854 576.48126 91.55729Q575.79376 90.77604 575.79376 89.229164ZM578.2469 87.24479Q577.71564 87.24479 577.35626 87.697914Q577.0125 88.15104 577.0125 89.36979Q577.0125 90.46354 577.35626 90.916664Q577.71564 91.36979 578.23126 91.36979Q578.77814 91.36979 579.1219 90.916664Q579.46564 90.46354 579.46564 89.260414Q579.46564 88.15104 579.10626 87.697914Q578.7625 87.24479 578.2469 87.24479Z" fill-rule="nonzero"/><path stroke="#757575" stroke-width="1.0" stroke-linecap="butt" d="M581.45 75.416664L454.76666 75.416664L313.8526 63.035534" fill-rule="nonzero"/><path fill="#9e9e9e" d="M315.8526 63.035534C315.8526 61.930965 314.95718 61.035534 313.8526 61.035534C312.74802 61.035534 311.8526 61.930965 311.8526 63.035534C311.8526 64.14011 312.74802 65.03554 313.8526 65.03554C314.95718 65.03554 315.8526 64.14011 315.8526 63.035534" fill-rule="nonzero"/><path fill="#efefef" d="M490.23126 105.33854Q490.23126 102.479164 491.7625 100.86979Q493.29376 99.260414 495.71564 99.260414Q497.29376 99.260414 498.5594 100.02604Q499.84064 100.77604 500.5125 102.135414Q501.1844 103.479164 501.1844 105.197914Q501.1844 106.947914 500.48126 108.322914Q499.77814 109.697914 498.48126 110.416664Q497.2 111.11979 495.7 111.11979Q494.09064 111.11979 492.8094 110.33854Q491.54376 109.541664 490.8875 108.197914Q490.23126 106.83854 490.23126 105.33854ZM491.79376 105.354164Q491.79376 107.43229 492.90314 108.61979Q494.0125 109.80729 495.7 109.80729Q497.40314 109.80729 498.5125 108.604164Q499.6219 107.40104 499.6219 105.197914Q499.6219 103.791664 499.1375 102.760414Q498.66876 101.71354 497.7625 101.135414Q496.85626 100.55729 495.71564 100.55729Q494.10626 100.55729 492.95 101.666664Q491.79376 102.77604 491.79376 105.354164ZM502.4969 110.916664L502.4969 102.61979L503.7625 102.61979L503.7625 103.86979Q504.2469 102.99479 504.65314 102.71354Q505.0594 102.43229 505.5594 102.43229Q506.2625 102.43229 506.9969 102.885414L506.5125 104.18229Q505.9969 103.885414 505.48126 103.885414Q505.02814 103.885414 504.65314 104.166664Q504.29376 104.43229 504.1375 104.93229Q503.90314 105.68229 503.90314 106.572914L503.90314 110.916664L502.4969 110.916664ZM510.575 109.65104L510.77814 110.90104Q510.1844 111.02604 509.71564 111.02604Q508.95 111.02604 508.52814 110.791664Q508.10626 110.541664 507.9344 110.15104Q507.7625 109.74479 507.7625 108.479164L507.7625 103.71354L506.73126 103.71354L506.73126 102.61979L507.7625 102.61979L507.7625 100.55729L509.16876 99.71354L509.16876 102.61979L510.575 102.61979L510.575 103.71354L509.16876 103.71354L509.16876 108.55729Q509.16876 109.166664 509.23126 109.33854Q509.3094 109.510414 509.48126 109.61979Q509.65314 109.71354 509.96564 109.71354Q510.2 109.71354 510.575 109.65104ZM511.5125 110.916664L511.5125 99.46354L512.91876 99.46354L512.91876 103.572914Q513.90314 102.43229 515.40314 102.43229Q516.325 102.43229 516.9969 102.791664Q517.6844 103.15104 517.96564 103.791664Q518.2625 104.43229 518.2625 105.65104L518.2625 110.916664L516.85626 110.916664L516.85626 105.65104Q516.85626 104.604164 516.40314 104.11979Q515.95 103.635414 515.10626 103.635414Q514.48126 103.635414 513.9344 103.96354Q513.3875 104.291664 513.15314 104.854164Q512.91876 105.40104 512.91876 106.36979L512.91876 110.916664L511.5125 110.916664ZM519.98126 106.760414Q519.98126 104.46354 521.2625 103.354164Q522.34064 102.43229 523.8719 102.43229Q525.59064 102.43229 526.66876 103.55729Q527.7625 104.666664 527.7625 106.65104Q527.7625 108.24479 527.27814 109.166664Q526.79376 110.08854 525.8719 110.604164Q524.96564 111.104164 523.8719 111.104164Q522.1375 111.104164 521.0594 109.99479Q519.98126 108.86979 519.98126 106.760414ZM521.4344 106.760414Q521.4344 108.354164 522.1219 109.15104Q522.825 109.947914 523.8719 109.947914Q524.91876 109.947914 525.60626 109.15104Q526.3094 108.354164 526.3094 106.71354Q526.3094 105.18229 525.60626 104.385414Q524.91876 103.58854 523.8719 103.58854Q522.825 103.58854 522.1219 104.385414Q521.4344 105.166664 521.4344 106.760414ZM529.2469 111.604164L530.6219 111.80729Q530.7 112.447914 531.09064 112.729164Q531.6219 113.11979 532.52814 113.11979Q533.4969 113.11979 534.02814 112.729164Q534.5594 112.33854 534.7469 111.635414Q534.85626 111.21354 534.85626 109.822914Q533.9344 110.916664 532.5594 110.916664Q530.84064 110.916664 529.90314 109.68229Q528.96564 108.447914 528.96564 106.71354Q528.96564 105.52604 529.3875 104.52604Q529.825 103.52604 530.6375 102.979164Q531.46564 102.43229 532.5594 102.43229Q534.02814 102.43229 534.98126 103.61979L534.98126 102.61979L536.27814 102.61979L536.27814 109.791664Q536.27814 111.729164 535.8875 112.541664Q535.4969 113.354164 534.6375 113.822914Q533.77814 114.291664 532.52814 114.291664Q531.04376 114.291664 530.1219 113.61979Q529.21564 112.947914 529.2469 111.604164ZM530.41876 106.61979Q530.41876 108.24479 531.0594 108.99479Q531.71564 109.74479 532.6844 109.74479Q533.65314 109.74479 534.3094 109.010414Q534.96564 108.260414 534.96564 106.666664Q534.96564 105.135414 534.29376 104.36979Q533.6219 103.58854 532.66876 103.58854Q531.73126 103.58854 531.075 104.354164Q530.41876 105.11979 530.41876 106.61979ZM538.4969 110.916664L538.4969 102.61979L539.7625 102.61979L539.7625 103.86979Q540.2469 102.99479 540.65314 102.71354Q541.0594 102.43229 541.5594 102.43229Q542.2625 102.43229 542.9969 102.885414L542.5125 104.18229Q541.9969 103.885414 541.48126 103.885414Q541.02814 103.885414 540.65314 104.166664Q540.29376 104.43229 540.1375 104.93229Q539.90314 105.68229 539.90314 106.572914L539.90314 110.916664L538.4969 110.916664ZM548.91876 109.885414Q548.1375 110.55729 547.41876 110.83854Q546.7 111.104164 545.8719 111.104164Q544.4969 111.104164 543.7625 110.43229Q543.02814 109.760414 543.02814 108.729164Q543.02814 108.11979 543.3094 107.61979Q543.59064 107.104164 544.02814 106.80729Q544.48126 106.49479 545.04376 106.33854Q545.46564 106.229164 546.29376 106.135414Q547.9969 105.93229 548.8094 105.65104Q548.8094 105.354164 548.8094 105.27604Q548.8094 104.416664 548.41876 104.072914Q547.8719 103.58854 546.8094 103.58854Q545.825 103.58854 545.34064 103.947914Q544.8719 104.291664 544.65314 105.166664L543.27814 104.979164Q543.46564 104.104164 543.8875 103.55729Q544.325 103.010414 545.1375 102.729164Q545.95 102.43229 547.0125 102.43229Q548.075 102.43229 548.73126 102.68229Q549.40314 102.93229 549.71564 103.30729Q550.02814 103.68229 550.15314 104.260414Q550.23126 104.61979 550.23126 105.55729L550.23126 107.43229Q550.23126 109.40104 550.3094 109.916664Q550.40314 110.43229 550.66876 110.916664L549.2 110.916664Q548.98126 110.479164 548.91876 109.885414ZM548.8094 106.74479Q548.04376 107.05729 546.5125 107.27604Q545.6375 107.40104 545.27814 107.55729Q544.91876 107.71354 544.71564 108.02604Q544.52814 108.322914 544.52814 108.68229Q544.52814 109.24479 544.95 109.61979Q545.3875 109.99479 546.2 109.99479Q547.0125 109.99479 547.6375 109.65104Q548.27814 109.291664 548.575 108.666664Q548.8094 108.197914 548.8094 107.260414L548.8094 106.74479ZM552.5125 114.104164L552.5125 102.61979L553.79376 102.61979L553.79376 103.697914Q554.2469 103.05729 554.8094 102.74479Q555.3875 102.43229 556.2 102.43229Q557.2625 102.43229 558.075 102.979164Q558.8875 103.52604 559.29376 104.52604Q559.71564 105.510414 559.71564 106.697914Q559.71564 107.979164 559.2469 108.99479Q558.79376 110.010414 557.91876 110.55729Q557.0594 111.104164 556.09064 111.104164Q555.3875 111.104164 554.825 110.80729Q554.27814 110.510414 553.91876 110.05729L553.91876 114.104164L552.5125 114.104164ZM553.77814 106.80729Q553.77814 108.416664 554.41876 109.18229Q555.075 109.947914 555.9969 109.947914Q556.9344 109.947914 557.60626 109.15104Q558.27814 108.354164 558.27814 106.697914Q558.27814 105.104164 557.6219 104.322914Q556.96564 103.52604 556.0594 103.52604Q555.16876 103.52604 554.46564 104.36979Q553.77814 105.21354 553.77814 106.80729ZM561.5125 110.916664L561.5125 99.46354L562.91876 99.46354L562.91876 103.572914Q563.90314 102.43229 565.40314 102.43229Q566.325 102.43229 566.9969 102.791664Q567.6844 103.15104 567.96564 103.791664Q568.2625 104.43229 568.2625 105.65104L568.2625 110.916664L566.85626 110.916664L566.85626 105.65104Q566.85626 104.604164 566.40314 104.11979Q565.95 103.635414 565.10626 103.635414Q564.48126 103.635414 563.9344 103.96354Q563.3875 104.291664 563.15314 104.854164Q562.91876 105.40104 562.91876 106.36979L562.91876 110.916664L561.5125 110.916664ZM570.5125 101.072914L570.5125 99.46354L571.91876 99.46354L571.91876 101.072914L570.5125 101.072914ZM570.5125 110.916664L570.5125 102.61979L571.91876 102.61979L571.91876 110.916664L570.5125 110.916664ZM579.91876 107.86979L581.3094 108.05729Q581.075 109.479164 580.1375 110.291664Q579.21564 111.104164 577.85626 111.104164Q576.15314 111.104164 575.10626 109.99479Q574.075 108.86979 574.075 106.791664Q574.075 105.447914 574.5125 104.447914Q574.96564 103.43229 575.8719 102.93229Q576.79376 102.43229 577.85626 102.43229Q579.21564 102.43229 580.075 103.11979Q580.9344 103.791664 581.16876 105.05729L579.8094 105.260414Q579.60626 104.43229 579.10626 104.010414Q578.6219 103.58854 577.91876 103.58854Q576.85626 103.58854 576.1844 104.354164Q575.52814 105.104164 575.52814 106.760414Q575.52814 108.43229 576.16876 109.197914Q576.8094 109.947914 577.84064 109.947914Q578.66876 109.947914 579.21564 109.447914Q579.77814 108.93229 579.91876 107.86979Z" fill-rule="nonzero"/><path fill="#9e9e9e" d="M546.325 130.26042L547.6844 130.13542Q547.85626 131.08855 548.34064 131.52605Q548.825 131.94792 549.575 131.94792Q550.23126 131.94792 550.71564 131.65105Q551.2 131.35417 551.5125 130.8698Q551.825 130.3698 552.02814 129.52605Q552.2469 128.6823 552.2469 127.8073Q552.2469 127.71355 552.2469 127.52605Q551.825 128.19792 551.09064 128.6198Q550.35626 129.02605 549.5125 129.02605Q548.09064 129.02605 547.10626 127.9948Q546.1219 126.96355 546.1219 125.27605Q546.1219 123.54167 547.1375 122.47917Q548.16876 121.41667 549.71564 121.41667Q550.84064 121.41667 551.7625 122.02605Q552.6844 122.6198 553.16876 123.72917Q553.65314 124.83855 553.65314 126.94792Q553.65314 129.15105 553.16876 130.44792Q552.7 131.7448 551.7469 132.4323Q550.8094 133.1198 549.54376 133.1198Q548.2 133.1198 547.34064 132.3698Q546.4969 131.6198 546.325 130.26042ZM552.09064 125.21355Q552.09064 123.9948 551.4344 123.29167Q550.79376 122.57292 549.8875 122.57292Q548.95 122.57292 548.2469 123.33855Q547.5594 124.10417 547.5594 125.32292Q547.5594 126.41667 548.21564 127.10417Q548.8875 127.79167 549.85626 127.79167Q550.825 127.79167 551.45 127.10417Q552.09064 126.41667 552.09064 125.21355ZM555.90314 132.91667L555.90314 131.3073L557.5125 131.3073L557.5125 132.91667L555.90314 132.91667ZM563.6219 132.91667L563.6219 130.16667L558.65314 130.16667L558.65314 128.88542L563.8875 121.46355L565.02814 121.46355L565.02814 128.88542L566.575 128.88542L566.575 130.16667L565.02814 130.16667L565.02814 132.91667L563.6219 132.91667ZM563.6219 128.88542L563.6219 123.71355L560.04376 128.88542L563.6219 128.88542ZM568.3875 124.21355Q568.3875 122.97917 568.9969 122.1198Q569.6219 121.26042 570.79376 121.26042Q571.8719 121.26042 572.575 122.04167Q573.27814 122.8073 573.27814 124.29167Q573.27814 125.7448 572.5594 126.54167Q571.85626 127.32292 570.8094 127.32292Q569.7625 127.32292 569.075 126.5573Q568.3875 125.77605 568.3875 124.21355ZM570.825 122.22917Q570.3094 122.22917 569.95 122.6823Q569.60626 123.13542 569.60626 124.35417Q569.60626 125.44792 569.95 125.90105Q570.3094 126.35417 570.825 126.35417Q571.35626 126.35417 571.7 125.90105Q572.0594 125.44792 572.0594 124.2448Q572.0594 123.13542 571.7 122.6823Q571.35626 122.22917 570.825 122.22917ZM570.84064 133.33855L577.10626 121.26042L578.2469 121.26042L571.9969 133.33855L570.84064 133.33855ZM575.79376 130.22917Q575.79376 128.9948 576.40314 128.13542Q577.02814 127.27605 578.2 127.27605Q579.27814 127.27605 579.98126 128.0573Q580.7 128.82292 580.7 130.3073Q580.7 131.76042 579.98126 132.5573Q579.2625 133.33855 578.21564 133.33855Q577.16876 133.33855 576.48126 132.5573Q575.79376 131.77605 575.79376 130.22917ZM578.2469 128.2448Q577.71564 128.2448 577.35626 128.69792Q577.0125 129.15105 577.0125 130.3698Q577.0125 131.46355 577.35626 131.91667Q577.71564 132.3698 578.23126 132.3698Q578.77814 132.3698 579.1219 131.91667Q579.46564 131.46355 579.46564 130.26042Q579.46564 129.15105 579.10626 128.69792Q578.7625 128.2448 578.2469 128.2448Z" fill-rule="nonzero"/><path stroke="#757575" stroke-width="1.0" stroke-linecap="butt" d="M581.45 116.416664L454.76666 116.416664L366.6217 79.04287" fill-rule="nonzero"/><path fill="#9e9e9e" d="M368.6217 79.04287C368.6217 77.9383 367.7263 77.04287 366.6217 77.04287C365.51715 77.04287 364.6217 77.9383 364.6217 79.04287C364.6217 80.14744 365.51715 81.04287 366.6217 81.04287C367.7263 81.04287 368.6217 80.14744 368.6217 79.04287" fill-rule="nonzero"/><path fill="#efefef" d="M498.6844 151.91667L498.6844 140.46355L503.0125 140.46355Q504.15314 140.46355 504.7469 140.57292Q505.59064 140.71355 506.15314 141.10417Q506.73126 141.4948 507.075 142.21355Q507.4344 142.91667 507.4344 143.77605Q507.4344 145.22917 506.4969 146.2448Q505.575 147.26042 503.1375 147.26042L500.2 147.26042L500.2 151.91667L498.6844 151.91667ZM500.2 145.90105L503.16876 145.90105Q504.6375 145.90105 505.2469 145.35417Q505.8719 144.8073 505.8719 143.82292Q505.8719 143.10417 505.4969 142.58855Q505.1375 142.07292 504.54376 141.91667Q504.16876 141.8073 503.1375 141.8073L500.2 141.8073L500.2 145.90105ZM515.1844 149.2448L516.6375 149.41667Q516.29376 150.69792 515.35626 151.40105Q514.4344 152.10417 512.9969 152.10417Q511.16876 152.10417 510.10626 150.97917Q509.04376 149.85417 509.04376 147.83855Q509.04376 145.7448 510.1219 144.58855Q511.2 143.4323 512.91876 143.4323Q514.575 143.4323 515.6219 144.57292Q516.6844 145.69792 516.6844 147.7448Q516.6844 147.8698 516.6844 148.1198L510.4969 148.1198Q510.575 149.4948 511.2625 150.22917Q511.96564 150.94792 512.9969 150.94792Q513.77814 150.94792 514.325 150.54167Q514.8719 150.13542 515.1844 149.2448ZM510.575 146.96355L515.2 146.96355Q515.10626 145.91667 514.66876 145.40105Q513.9969 144.58855 512.9344 144.58855Q511.96564 144.58855 511.29376 145.2448Q510.6375 145.88542 510.575 146.96355ZM518.4969 151.91667L518.4969 143.6198L519.7625 143.6198L519.7625 144.8698Q520.2469 143.9948 520.65314 143.71355Q521.0594 143.4323 521.5594 143.4323Q522.2625 143.4323 522.9969 143.88542L522.5125 145.1823Q521.9969 144.88542 521.48126 144.88542Q521.02814 144.88542 520.65314 145.16667Q520.29376 145.4323 520.1375 145.9323Q519.90314 146.6823 519.90314 147.57292L519.90314 151.91667L518.4969 151.91667ZM522.95 149.4323L524.34064 149.21355Q524.45 150.0573 524.98126 150.51042Q525.52814 150.94792 526.48126 150.94792Q527.45 150.94792 527.91876 150.5573Q528.3875 150.15105 528.3875 149.6198Q528.3875 149.15105 527.98126 148.8698Q527.6844 148.6823 526.54376 148.40105Q524.9969 148.01042 524.3875 147.72917Q523.79376 147.4323 523.48126 146.9323Q523.1844 146.4323 523.1844 145.82292Q523.1844 145.26042 523.4344 144.79167Q523.6844 144.32292 524.1219 144.01042Q524.45 143.76042 525.0125 143.60417Q525.59064 143.4323 526.23126 143.4323Q527.21564 143.4323 527.95 143.71355Q528.6844 143.9948 529.02814 144.47917Q529.3875 144.94792 529.52814 145.76042L528.15314 145.94792Q528.0594 145.3073 527.60626 144.94792Q527.15314 144.58855 526.34064 144.58855Q525.3719 144.58855 524.95 144.91667Q524.54376 145.22917 524.54376 145.65105Q524.54376 145.9323 524.71564 146.15105Q524.8875 146.3698 525.2469 146.52605Q525.46564 146.60417 526.4969 146.88542Q527.98126 147.27605 528.575 147.54167Q529.16876 147.79167 529.4969 148.27605Q529.84064 148.76042 529.84064 149.47917Q529.84064 150.1823 529.41876 150.8073Q529.0125 151.41667 528.23126 151.76042Q527.46564 152.10417 526.4969 152.10417Q524.8719 152.10417 524.02814 151.4323Q523.1844 150.76042 522.95 149.4323ZM531.5125 155.10417L531.5125 143.6198L532.79376 143.6198L532.79376 144.69792Q533.2469 144.0573 533.8094 143.7448Q534.3875 143.4323 535.2 143.4323Q536.2625 143.4323 537.075 143.97917Q537.8875 144.52605 538.29376 145.52605Q538.71564 146.51042 538.71564 147.69792Q538.71564 148.97917 538.2469 149.9948Q537.79376 151.01042 536.91876 151.5573Q536.0594 152.10417 535.09064 152.10417Q534.3875 152.10417 533.825 151.8073Q533.27814 151.51042 532.91876 151.0573L532.91876 155.10417L531.5125 155.10417ZM532.77814 147.8073Q532.77814 149.41667 533.41876 150.1823Q534.075 150.94792 534.9969 150.94792Q535.9344 150.94792 536.60626 150.15105Q537.27814 149.35417 537.27814 147.69792Q537.27814 146.10417 536.6219 145.32292Q535.96564 144.52605 535.0594 144.52605Q534.16876 144.52605 533.46564 145.3698Q532.77814 146.21355 532.77814 147.8073ZM546.1844 149.2448L547.6375 149.41667Q547.29376 150.69792 546.35626 151.40105Q545.4344 152.10417 543.9969 152.10417Q542.16876 152.10417 541.10626 150.97917Q540.04376 149.85417 540.04376 147.83855Q540.04376 145.7448 541.1219 144.58855Q542.2 143.4323 543.91876 143.4323Q545.575 143.4323 546.6219 144.57292Q547.6844 145.69792 547.6844 147.7448Q547.6844 147.8698 547.6844 148.1198L541.4969 148.1198Q541.575 149.4948 542.2625 150.22917Q542.96564 150.94792 543.9969 150.94792Q544.77814 150.94792 545.325 150.54167Q545.8719 150.13542 546.1844 149.2448ZM541.575 146.96355L546.2 146.96355Q546.10626 145.91667 545.66876 145.40105Q544.9969 144.58855 543.9344 144.58855Q542.96564 144.58855 542.29376 145.2448Q541.6375 145.88542 541.575 146.96355ZM554.91876 148.8698L556.3094 149.0573Q556.075 150.47917 555.1375 151.29167Q554.21564 152.10417 552.85626 152.10417Q551.15314 152.10417 550.10626 150.9948Q549.075 149.8698 549.075 147.79167Q549.075 146.44792 549.5125 145.44792Q549.96564 144.4323 550.8719 143.9323Q551.79376 143.4323 552.85626 143.4323Q554.21564 143.4323 555.075 144.1198Q555.9344 144.79167 556.16876 146.0573L554.8094 146.26042Q554.60626 145.4323 554.10626 145.01042Q553.6219 144.58855 552.91876 144.58855Q551.85626 144.58855 551.1844 145.35417Q550.52814 146.10417 550.52814 147.76042Q550.52814 149.4323 551.16876 150.19792Q551.8094 150.94792 552.84064 150.94792Q553.66876 150.94792 554.21564 150.44792Q554.77814 149.9323 554.91876 148.8698ZM560.575 150.65105L560.77814 151.90105Q560.1844 152.02605 559.71564 152.02605Q558.95 152.02605 558.52814 151.79167Q558.10626 151.54167 557.9344 151.15105Q557.7625 150.7448 557.7625 149.47917L557.7625 144.71355L556.73126 144.71355L556.73126 143.6198L557.7625 143.6198L557.7625 141.5573L559.16876 140.71355L559.16876 143.6198L560.575 143.6198L560.575 144.71355L559.16876 144.71355L559.16876 149.5573Q559.16876 150.16667 559.23126 150.33855Q559.3094 150.51042 559.48126 150.6198Q559.65314 150.71355 559.96564 150.71355Q560.2 150.71355 560.575 150.65105ZM561.5125 142.07292L561.5125 140.46355L562.91876 140.46355L562.91876 142.07292L561.5125 142.07292ZM561.5125 151.91667L561.5125 143.6198L562.91876 143.6198L562.91876 151.91667L561.5125 151.91667ZM567.8094 151.91667L564.65314 143.6198L566.1375 143.6198L567.91876 148.58855Q568.21564 149.38542 568.45 150.26042Q568.6375 149.60417 568.98126 148.6823L570.825 143.6198L572.2625 143.6198L569.1219 151.91667L567.8094 151.91667ZM579.1844 149.2448L580.6375 149.41667Q580.29376 150.69792 579.35626 151.40105Q578.4344 152.10417 576.9969 152.10417Q575.16876 152.10417 574.10626 150.97917Q573.04376 149.85417 573.04376 147.83855Q573.04376 145.7448 574.1219 144.58855Q575.2 143.4323 576.91876 143.4323Q578.575 143.4323 579.6219 144.57292Q580.6844 145.69792 580.6844 147.7448Q580.6844 147.8698 580.6844 148.1198L574.4969 148.1198Q574.575 149.4948 575.2625 150.22917Q575.96564 150.94792 576.9969 150.94792Q577.77814 150.94792 578.325 150.54167Q578.8719 150.13542 579.1844 149.2448ZM574.575 146.96355L579.2 146.96355Q579.10626 145.91667 578.66876 145.40105Q577.9969 144.58855 576.9344 144.58855Q575.96564 144.58855 575.29376 145.2448Q574.6375 145.88542 574.575 146.96355Z" fill-rule="nonzero"/><path fill="#9e9e9e" d="M542.41876 173.91667L541.0125 173.91667L541.0125 164.94792Q540.4969 165.4323 539.66876 165.91667Q538.85626 166.40105 538.2 166.65105L538.2 165.29167Q539.3719 164.72917 540.2469 163.94792Q541.1375 163.15105 541.5125 162.41667L542.41876 162.41667L542.41876 173.91667ZM553.5125 172.5573L553.5125 173.91667L545.9344 173.91667Q545.91876 173.40105 546.10626 172.9323Q546.3875 172.16667 547.02814 171.41667Q547.66876 170.66667 548.8719 169.6823Q550.73126 168.15105 551.3875 167.26042Q552.04376 166.35417 552.04376 165.5573Q552.04376 164.72917 551.45 164.15105Q550.85626 163.57292 549.8875 163.57292Q548.8719 163.57292 548.2625 164.1823Q547.65314 164.79167 547.65314 165.8698L546.2 165.72917Q546.35626 164.10417 547.325 163.26042Q548.29376 162.41667 549.91876 162.41667Q551.575 162.41667 552.52814 163.33855Q553.4969 164.2448 553.4969 165.58855Q553.4969 166.27605 553.21564 166.94792Q552.9344 167.60417 552.27814 168.33855Q551.6219 169.07292 550.10626 170.35417Q548.84064 171.41667 548.48126 171.8073Q548.1219 172.1823 547.8875 172.5573L553.5125 172.5573ZM555.90314 173.91667L555.90314 172.3073L557.5125 172.3073L557.5125 173.91667L555.90314 173.91667ZM559.1219 170.91667L560.59064 170.79167Q560.7625 171.8698 561.35626 172.41667Q561.95 172.94792 562.79376 172.94792Q563.8094 172.94792 564.5125 172.1823Q565.21564 171.41667 565.21564 170.15105Q565.21564 168.94792 564.54376 168.26042Q563.8719 167.5573 562.77814 167.5573Q562.09064 167.5573 561.54376 167.8698Q560.9969 168.1823 560.6844 168.66667L559.3719 168.4948L560.48126 162.6198L566.16876 162.6198L566.16876 163.96355L561.60626 163.96355L560.98126 167.04167Q562.0125 166.32292 563.15314 166.32292Q564.65314 166.32292 565.6844 167.3698Q566.71564 168.40105 566.71564 170.02605Q566.71564 171.58855 565.8094 172.71355Q564.7 174.1198 562.79376 174.1198Q561.23126 174.1198 560.2469 173.2448Q559.2625 172.35417 559.1219 170.91667ZM568.3875 165.21355Q568.3875 163.97917 568.9969 163.1198Q569.6219 162.26042 570.79376 162.26042Q571.8719 162.26042 572.575 163.04167Q573.27814 163.8073 573.27814 165.29167Q573.27814 166.7448 572.5594 167.54167Q571.85626 168.32292 570.8094 168.32292Q569.7625 168.32292 569.075 167.5573Q568.3875 166.77605 568.3875 165.21355ZM570.825 163.22917Q570.3094 163.22917 569.95 163.6823Q569.60626 164.13542 569.60626 165.35417Q569.60626 166.44792 569.95 166.90105Q570.3094 167.35417 570.825 167.35417Q571.35626 167.35417 571.7 166.90105Q572.0594 166.44792 572.0594 165.2448Q572.0594 164.13542 571.7 163.6823Q571.35626 163.22917 570.825 163.22917ZM570.84064 174.33855L577.10626 162.26042L578.2469 162.26042L571.9969 174.33855L570.84064 174.33855ZM575.79376 171.22917Q575.79376 169.9948 576.40314 169.13542Q577.02814 168.27605 578.2 168.27605Q579.27814 168.27605 579.98126 169.0573Q580.7 169.82292 580.7 171.3073Q580.7 172.76042 579.98126 173.5573Q579.2625 174.33855 578.21564 174.33855Q577.16876 174.33855 576.48126 173.5573Q575.79376 172.77605 575.79376 171.22917ZM578.2469 169.2448Q577.71564 169.2448 577.35626 169.69792Q577.0125 170.15105 577.0125 171.3698Q577.0125 172.46355 577.35626 172.91667Q577.71564 173.3698 578.23126 173.3698Q578.77814 173.3698 579.1219 172.91667Q579.46564 172.46355 579.46564 171.26042Q579.46564 170.15105 579.10626 169.69792Q578.7625 169.2448 578.2469 169.2448Z" fill-rule="nonzero"/><path stroke="#757575" stroke-width="1.0" stroke-linecap="butt" d="M581.45 157.41667L454.76666 157.41667L430.57034 149.59932" fill-rule="nonzero"/><path fill="#9e9e9e" d="M432.57034 149.59932C432.57034 148.49475 431.67493 147.59932 430.57034 147.59932C429.4658 147.59932 428.57034 148.49475 428.57034 149.59932C428.57034 150.70389 429.4658 151.59932 430.57034 151.59932C431.67493 151.59932 432.57034 150.70389 432.57034 149.59932" fill-rule="nonzero"/><path fill="#efefef" d="M531.6844 276.70114L531.6844 265.24802L536.0125 265.24802Q537.15314 265.24802 537.7469 265.3574Q538.59064 265.49802 539.15314 265.88864Q539.73126 266.27927 540.075 266.99802Q540.4344 267.70114 540.4344 268.56052Q540.4344 270.01364 539.4969 271.02927Q538.575 272.0449 536.1375 272.0449L533.2 272.0449L533.2 276.70114L531.6844 276.70114ZM533.2 270.68552L536.16876 270.68552Q537.6375 270.68552 538.2469 270.13864Q538.8719 269.59177 538.8719 268.6074Q538.8719 267.88864 538.4969 267.37302Q538.1375 266.8574 537.54376 266.70114Q537.16876 266.59177 536.1375 266.59177L533.2 266.59177L533.2 270.68552ZM548.1844 274.02927L549.6375 274.20114Q549.29376 275.4824 548.35626 276.18552Q547.4344 276.88864 545.9969 276.88864Q544.16876 276.88864 543.10626 275.76364Q542.04376 274.63864 542.04376 272.62302Q542.04376 270.52927 543.1219 269.37302Q544.2 268.21677 545.91876 268.21677Q547.575 268.21677 548.6219 269.3574Q549.6844 270.4824 549.6844 272.52927Q549.6844 272.65427 549.6844 272.90427L543.4969 272.90427Q543.575 274.27927 544.2625 275.01364Q544.96564 275.7324 545.9969 275.7324Q546.77814 275.7324 547.325 275.32614Q547.8719 274.9199 548.1844 274.02927ZM543.575 271.74802L548.2 271.74802Q548.10626 270.70114 547.66876 270.18552Q546.9969 269.37302 545.9344 269.37302Q544.96564 269.37302 544.29376 270.02927Q543.6375 270.6699 543.575 271.74802ZM550.98126 272.5449Q550.98126 270.24802 552.2625 269.13864Q553.34064 268.21677 554.8719 268.21677Q556.59064 268.21677 557.66876 269.34177Q558.7625 270.45114 558.7625 272.43552Q558.7625 274.02927 558.27814 274.95114Q557.79376 275.87302 556.8719 276.38864Q555.96564 276.88864 554.8719 276.88864Q553.1375 276.88864 552.0594 275.77927Q550.98126 274.65427 550.98126 272.5449ZM552.4344 272.5449Q552.4344 274.13864 553.1219 274.93552Q553.825 275.7324 554.8719 275.7324Q555.91876 275.7324 556.60626 274.93552Q557.3094 274.13864 557.3094 272.49802Q557.3094 270.96677 556.60626 270.1699Q555.91876 269.37302 554.8719 269.37302Q553.825 269.37302 553.1219 270.1699Q552.4344 270.95114 552.4344 272.5449ZM560.5125 279.88864L560.5125 268.40427L561.79376 268.40427L561.79376 269.4824Q562.2469 268.84177 562.8094 268.52927Q563.3875 268.21677 564.2 268.21677Q565.2625 268.21677 566.075 268.76364Q566.8875 269.31052 567.29376 270.31052Q567.71564 271.2949 567.71564 272.4824Q567.71564 273.76364 567.2469 274.77927Q566.79376 275.7949 565.91876 276.34177Q565.0594 276.88864 564.09064 276.88864Q563.3875 276.88864 562.825 276.59177Q562.27814 276.2949 561.91876 275.84177L561.91876 279.88864L560.5125 279.88864ZM561.77814 272.59177Q561.77814 274.20114 562.41876 274.96677Q563.075 275.7324 563.9969 275.7324Q564.9344 275.7324 565.60626 274.93552Q566.27814 274.13864 566.27814 272.4824Q566.27814 270.88864 565.6219 270.1074Q564.96564 269.31052 564.0594 269.31052Q563.16876 269.31052 562.46564 270.15427Q561.77814 270.99802 561.77814 272.59177ZM569.48126 276.70114L569.48126 265.24802L570.8875 265.24802L570.8875 276.70114L569.48126 276.70114ZM579.1844 274.02927L580.6375 274.20114Q580.29376 275.4824 579.35626 276.18552Q578.4344 276.88864 576.9969 276.88864Q575.16876 276.88864 574.10626 275.76364Q573.04376 274.63864 573.04376 272.62302Q573.04376 270.52927 574.1219 269.37302Q575.2 268.21677 576.91876 268.21677Q578.575 268.21677 579.6219 269.3574Q580.6844 270.4824 580.6844 272.52927Q580.6844 272.65427 580.6844 272.90427L574.4969 272.90427Q574.575 274.27927 575.2625 275.01364Q575.96564 275.7324 576.9969 275.7324Q577.77814 275.7324 578.325 275.32614Q578.8719 274.9199 579.1844 274.02927ZM574.575 271.74802L579.2 271.74802Q579.10626 270.70114 578.66876 270.18552Q577.9969 269.37302 576.9344 269.37302Q575.96564 269.37302 575.29376 270.02927Q574.6375 270.6699 574.575 271.74802Z" fill-rule="nonzero"/><path fill="#9e9e9e" d="M542.41876 298.70114L541.0125 298.70114L541.0125 289.7324Q540.4969 290.21677 539.66876 290.70114Q538.85626 291.18552 538.2 291.43552L538.2 290.07614Q539.3719 289.51364 540.2469 288.7324Q541.1375 287.93552 541.5125 287.20114L542.41876 287.20114L542.41876 298.70114ZM548.27814 292.4824Q547.40314 292.1699 546.98126 291.57614Q546.5594 290.9824 546.5594 290.15427Q546.5594 288.90427 547.45 288.06052Q548.35626 287.20114 549.85626 287.20114Q551.35626 287.20114 552.2625 288.07614Q553.1844 288.93552 553.1844 290.18552Q553.1844 290.9824 552.7625 291.57614Q552.34064 292.1699 551.4969 292.4824Q552.54376 292.82614 553.09064 293.59177Q553.65314 294.3574 553.65314 295.4199Q553.65314 296.88864 552.60626 297.90427Q551.575 298.90427 549.8719 298.90427Q548.1844 298.90427 547.1375 297.90427Q546.10626 296.88864 546.10626 295.38864Q546.10626 294.26364 546.66876 293.51364Q547.23126 292.76364 548.27814 292.4824ZM547.9969 290.1074Q547.9969 290.9199 548.5125 291.43552Q549.04376 291.95114 549.8875 291.95114Q550.7 291.95114 551.21564 291.43552Q551.73126 290.9199 551.73126 290.18552Q551.73126 289.40427 551.2 288.88864Q550.66876 288.3574 549.8719 288.3574Q549.0594 288.3574 548.52814 288.87302Q547.9969 289.38864 547.9969 290.1074ZM547.54376 295.38864Q547.54376 295.99802 547.825 296.56052Q548.1219 297.12302 548.6844 297.43552Q549.2469 297.7324 549.8875 297.7324Q550.90314 297.7324 551.5594 297.09177Q552.21564 296.43552 552.21564 295.43552Q552.21564 294.4199 551.52814 293.76364Q550.85626 293.09177 549.84064 293.09177Q548.85626 293.09177 548.2 293.74802Q547.54376 294.40427 547.54376 295.38864ZM555.90314 298.70114L555.90314 297.09177L557.5125 297.09177L557.5125 298.70114L555.90314 298.70114ZM561.27814 292.4824Q560.40314 292.1699 559.98126 291.57614Q559.5594 290.9824 559.5594 290.15427Q559.5594 288.90427 560.45 288.06052Q561.35626 287.20114 562.85626 287.20114Q564.35626 287.20114 565.2625 288.07614Q566.1844 288.93552 566.1844 290.18552Q566.1844 290.9824 565.7625 291.57614Q565.34064 292.1699 564.4969 292.4824Q565.54376 292.82614 566.09064 293.59177Q566.65314 294.3574 566.65314 295.4199Q566.65314 296.88864 565.60626 297.90427Q564.575 298.90427 562.8719 298.90427Q561.1844 298.90427 560.1375 297.90427Q559.10626 296.88864 559.10626 295.38864Q559.10626 294.26364 559.66876 293.51364Q560.23126 292.76364 561.27814 292.4824ZM560.9969 290.1074Q560.9969 290.9199 561.5125 291.43552Q562.04376 291.95114 562.8875 291.95114Q563.7 291.95114 564.21564 291.43552Q564.73126 290.9199 564.73126 290.18552Q564.73126 289.40427 564.2 288.88864Q563.66876 288.3574 562.8719 288.3574Q562.0594 288.3574 561.52814 288.87302Q560.9969 289.38864 560.9969 290.1074ZM560.54376 295.38864Q560.54376 295.99802 560.825 296.56052Q561.1219 297.12302 561.6844 297.43552Q562.2469 297.7324 562.8875 297.7324Q563.90314 297.7324 564.5594 297.09177Q565.21564 296.43552 565.21564 295.43552Q565.21564 294.4199 564.52814 293.76364Q563.85626 293.09177 562.84064 293.09177Q561.85626 293.09177 561.2 293.74802Q560.54376 294.40427 560.54376 295.38864ZM568.3875 289.99802Q568.3875 288.76364 568.9969 287.90427Q569.6219 287.0449 570.79376 287.0449Q571.8719 287.0449 572.575 287.82614Q573.27814 288.59177 573.27814 290.07614Q573.27814 291.52927 572.5594 292.32614Q571.85626 293.1074 570.8094 293.1074Q569.7625 293.1074 569.075 292.34177Q568.3875 291.56052 568.3875 289.99802ZM570.825 288.01364Q570.3094 288.01364 569.95 288.46677Q569.60626 288.9199 569.60626 290.13864Q569.60626 291.2324 569.95 291.68552Q570.3094 292.13864 570.825 292.13864Q571.35626 292.13864 571.7 291.68552Q572.0594 291.2324 572.0594 290.02927Q572.0594 288.9199 571.7 288.46677Q571.35626 288.01364 570.825 288.01364ZM570.84064 299.12302L577.10626 287.0449L578.2469 287.0449L571.9969 299.12302L570.84064 299.12302ZM575.79376 296.01364Q575.79376 294.77927 576.40314 293.9199Q577.02814 293.06052 578.2 293.06052Q579.27814 293.06052 579.98126 293.84177Q580.7 294.6074 580.7 296.09177Q580.7 297.5449 579.98126 298.34177Q579.2625 299.12302 578.21564 299.12302Q577.16876 299.12302 576.48126 298.34177Q575.79376 297.56052 575.79376 296.01364ZM578.2469 294.02927Q577.71564 294.02927 577.35626 294.4824Q577.0125 294.93552 577.0125 296.15427Q577.0125 297.24802 577.35626 297.70114Q577.71564 298.15427 578.23126 298.15427Q578.77814 298.15427 579.1219 297.70114Q579.46564 297.24802 579.46564 296.0449Q579.46564 294.93552 579.10626 294.4824Q578.7625 294.02927 578.2469 294.02927Z" fill-rule="nonzero"/><path stroke="#757575" stroke-width="1.0" stroke-linecap="butt" d="M581.45 282.20114L454.76666 282.20114L417.51022 282.20114" fill-rule="nonzero"/><path fill="#9e9e9e" d="M419.51022 282.20114C419.51022 281.0966 418.61478 280.20114 417.51022 280.20114C416.40564 280.20114 415.51022 281.0966 415.51022 282.20114C415.51022 283.30573 416.40564 284.20114 417.51022 284.20114C418.61478 284.20114 419.51022 283.30573 419.51022 282.20114" fill-rule="nonzero"/><path fill="#efefef" d="M491.66876 326.45L491.66876 314.9969L493.23126 314.9969L499.2469 323.98126L499.2469 314.9969L500.7 314.9969L500.7 326.45L499.1375 326.45L493.1219 317.45L493.1219 326.45L491.66876 326.45ZM508.91876 325.41876Q508.1375 326.09064 507.41876 326.3719Q506.7 326.6375 505.8719 326.6375Q504.4969 326.6375 503.7625 325.96564Q503.02814 325.29376 503.02814 324.2625Q503.02814 323.65314 503.3094 323.15314Q503.59064 322.6375 504.02814 322.34064Q504.48126 322.02814 505.04376 321.8719Q505.46564 321.7625 506.29376 321.66876Q507.9969 321.46564 508.8094 321.1844Q508.8094 320.8875 508.8094 320.8094Q508.8094 319.95 508.41876 319.60626Q507.8719 319.1219 506.8094 319.1219Q505.825 319.1219 505.34064 319.48126Q504.8719 319.825 504.65314 320.7L503.27814 320.5125Q503.46564 319.6375 503.8875 319.09064Q504.325 318.54376 505.1375 318.2625Q505.95 317.96564 507.0125 317.96564Q508.075 317.96564 508.73126 318.21564Q509.40314 318.46564 509.71564 318.84064Q510.02814 319.21564 510.15314 319.79376Q510.23126 320.15314 510.23126 321.09064L510.23126 322.96564Q510.23126 324.9344 510.3094 325.45Q510.40314 325.96564 510.66876 326.45L509.2 326.45Q508.98126 326.0125 508.91876 325.41876ZM508.8094 322.27814Q508.04376 322.59064 506.5125 322.8094Q505.6375 322.9344 505.27814 323.09064Q504.91876 323.2469 504.71564 323.5594Q504.52814 323.85626 504.52814 324.21564Q504.52814 324.77814 504.95 325.15314Q505.3875 325.52814 506.2 325.52814Q507.0125 325.52814 507.6375 325.1844Q508.27814 324.825 508.575 324.2Q508.8094 323.73126 508.8094 322.79376L508.8094 322.27814ZM515.575 325.1844L515.77814 326.4344Q515.1844 326.5594 514.71564 326.5594Q513.95 326.5594 513.52814 326.325Q513.10626 326.075 512.9344 325.6844Q512.7625 325.27814 512.7625 324.0125L512.7625 319.2469L511.73126 319.2469L511.73126 318.15314L512.7625 318.15314L512.7625 316.09064L514.16876 315.2469L514.16876 318.15314L515.575 318.15314L515.575 319.2469L514.16876 319.2469L514.16876 324.09064Q514.16876 324.7 514.23126 324.8719Q514.3094 325.04376 514.48126 325.15314Q514.65314 325.2469 514.96564 325.2469Q515.2 325.2469 515.575 325.1844ZM521.95 326.45L521.95 325.23126Q520.98126 326.6375 519.3094 326.6375Q518.575 326.6375 517.9344 326.35626Q517.3094 326.075 516.9969 325.65314Q516.6844 325.21564 516.5594 324.60626Q516.48126 324.1844 516.48126 323.29376L516.48126 318.15314L517.8875 318.15314L517.8875 322.7469Q517.8875 323.85626 517.96564 324.23126Q518.10626 324.79376 518.52814 325.10626Q518.96564 325.41876 519.59064 325.41876Q520.23126 325.41876 520.77814 325.10626Q521.34064 324.77814 521.5594 324.21564Q521.79376 323.65314 521.79376 322.59064L521.79376 318.15314L523.2 318.15314L523.2 326.45L521.95 326.45ZM525.4969 326.45L525.4969 318.15314L526.7625 318.15314L526.7625 319.40314Q527.2469 318.52814 527.65314 318.2469Q528.0594 317.96564 528.5594 317.96564Q529.2625 317.96564 529.9969 318.41876L529.5125 319.71564Q528.9969 319.41876 528.48126 319.41876Q528.02814 319.41876 527.65314 319.7Q527.29376 319.96564 527.1375 320.46564Q526.90314 321.21564 526.90314 322.10626L526.90314 326.45L525.4969 326.45ZM536.1844 323.77814L537.6375 323.95Q537.29376 325.23126 536.35626 325.9344Q535.4344 326.6375 533.9969 326.6375Q532.16876 326.6375 531.10626 325.5125Q530.04376 324.3875 530.04376 322.3719Q530.04376 320.27814 531.1219 319.1219Q532.2 317.96564 533.91876 317.96564Q535.575 317.96564 536.6219 319.10626Q537.6844 320.23126 537.6844 322.27814Q537.6844 322.40314 537.6844 322.65314L531.4969 322.65314Q531.575 324.02814 532.2625 324.7625Q532.96564 325.48126 533.9969 325.48126Q534.77814 325.48126 535.325 325.075Q535.8719 324.66876 536.1844 323.77814ZM531.575 321.4969L536.2 321.4969Q536.10626 320.45 535.66876 319.9344Q534.9969 319.1219 533.9344 319.1219Q532.96564 319.1219 532.29376 319.77814Q531.6375 320.41876 531.575 321.4969ZM538.95 323.96564L540.34064 323.7469Q540.45 324.59064 540.98126 325.04376Q541.52814 325.48126 542.48126 325.48126Q543.45 325.48126 543.91876 325.09064Q544.3875 324.6844 544.3875 324.15314Q544.3875 323.6844 543.98126 323.40314Q543.6844 323.21564 542.54376 322.9344Q540.9969 322.54376 540.3875 322.2625Q539.79376 321.96564 539.48126 321.46564Q539.1844 320.96564 539.1844 320.35626Q539.1844 319.79376 539.4344 319.325Q539.6844 318.85626 540.1219 318.54376Q540.45 318.29376 541.0125 318.1375Q541.59064 317.96564 542.23126 317.96564Q543.21564 317.96564 543.95 318.2469Q544.6844 318.52814 545.02814 319.0125Q545.3875 319.48126 545.52814 320.29376L544.15314 320.48126Q544.0594 319.84064 543.60626 319.48126Q543.15314 319.1219 542.34064 319.1219Q541.3719 319.1219 540.95 319.45Q540.54376 319.7625 540.54376 320.1844Q540.54376 320.46564 540.71564 320.6844Q540.8875 320.90314 541.2469 321.0594Q541.46564 321.1375 542.4969 321.41876Q543.98126 321.8094 544.575 322.075Q545.16876 322.325 545.4969 322.8094Q545.84064 323.29376 545.84064 324.0125Q545.84064 324.71564 545.41876 325.34064Q545.0125 325.95 544.23126 326.29376Q543.46564 326.6375 542.4969 326.6375Q540.8719 326.6375 540.02814 325.96564Q539.1844 325.29376 538.95 323.96564ZM552.91876 323.40314L554.3094 323.59064Q554.075 325.0125 553.1375 325.825Q552.21564 326.6375 550.85626 326.6375Q549.15314 326.6375 548.10626 325.52814Q547.075 324.40314 547.075 322.325Q547.075 320.98126 547.5125 319.98126Q547.96564 318.96564 548.8719 318.46564Q549.79376 317.96564 550.85626 317.96564Q552.21564 317.96564 553.075 318.65314Q553.9344 319.325 554.16876 320.59064L552.8094 320.79376Q552.60626 319.96564 552.10626 319.54376Q551.6219 319.1219 550.91876 319.1219Q549.85626 319.1219 549.1844 319.8875Q548.52814 320.6375 548.52814 322.29376Q548.52814 323.96564 549.16876 324.73126Q549.8094 325.48126 550.84064 325.48126Q551.66876 325.48126 552.21564 324.98126Q552.77814 324.46564 552.91876 323.40314ZM560.91876 325.41876Q560.1375 326.09064 559.41876 326.3719Q558.7 326.6375 557.8719 326.6375Q556.4969 326.6375 555.7625 325.96564Q555.02814 325.29376 555.02814 324.2625Q555.02814 323.65314 555.3094 323.15314Q555.59064 322.6375 556.02814 322.34064Q556.48126 322.02814 557.04376 321.8719Q557.46564 321.7625 558.29376 321.66876Q559.9969 321.46564 560.8094 321.1844Q560.8094 320.8875 560.8094 320.8094Q560.8094 319.95 560.41876 319.60626Q559.8719 319.1219 558.8094 319.1219Q557.825 319.1219 557.34064 319.48126Q556.8719 319.825 556.65314 320.7L555.27814 320.5125Q555.46564 319.6375 555.8875 319.09064Q556.325 318.54376 557.1375 318.2625Q557.95 317.96564 559.0125 317.96564Q560.075 317.96564 560.73126 318.21564Q561.40314 318.46564 561.71564 318.84064Q562.02814 319.21564 562.15314 319.79376Q562.23126 320.15314 562.23126 321.09064L562.23126 322.96564Q562.23126 324.9344 562.3094 325.45Q562.40314 325.96564 562.66876 326.45L561.2 326.45Q560.98126 326.0125 560.91876 325.41876ZM560.8094 322.27814Q560.04376 322.59064 558.5125 322.8094Q557.6375 322.9344 557.27814 323.09064Q556.91876 323.2469 556.71564 323.5594Q556.52814 323.85626 556.52814 324.21564Q556.52814 324.77814 556.95 325.15314Q557.3875 325.52814 558.2 325.52814Q559.0125 325.52814 559.6375 325.1844Q560.27814 324.825 560.575 324.2Q560.8094 323.73126 560.8094 322.79376L560.8094 322.27814ZM564.5125 329.6375L564.5125 318.15314L565.79376 318.15314L565.79376 319.23126Q566.2469 318.59064 566.8094 318.27814Q567.3875 317.96564 568.2 317.96564Q569.2625 317.96564 570.075 318.5125Q570.8875 319.0594 571.29376 320.0594Q571.71564 321.04376 571.71564 322.23126Q571.71564 323.5125 571.2469 324.52814Q570.79376 325.54376 569.91876 326.09064Q569.0594 326.6375 568.09064 326.6375Q567.3875 326.6375 566.825 326.34064Q566.27814 326.04376 565.91876 325.59064L565.91876 329.6375L564.5125 329.6375ZM565.77814 322.34064Q565.77814 323.95 566.41876 324.71564Q567.075 325.48126 567.9969 325.48126Q568.9344 325.48126 569.60626 324.6844Q570.27814 323.8875 570.27814 322.23126Q570.27814 320.6375 569.6219 319.85626Q568.96564 319.0594 568.0594 319.0594Q567.16876 319.0594 566.46564 319.90314Q565.77814 320.7469 565.77814 322.34064ZM579.1844 323.77814L580.6375 323.95Q580.29376 325.23126 579.35626 325.9344Q578.4344 326.6375 576.9969 326.6375Q575.16876 326.6375 574.10626 325.5125Q573.04376 324.3875 573.04376 322.3719Q573.04376 320.27814 574.1219 319.1219Q575.2 317.96564 576.91876 317.96564Q578.575 317.96564 579.6219 319.10626Q580.6844 320.23126 580.6844 322.27814Q580.6844 322.40314 580.6844 322.65314L574.4969 322.65314Q574.575 324.02814 575.2625 324.7625Q575.96564 325.48126 576.9969 325.48126Q577.77814 325.48126 578.325 325.075Q578.8719 324.66876 579.1844 323.77814ZM574.575 321.4969L579.2 321.4969Q579.10626 320.45 578.66876 319.9344Q577.9969 319.1219 576.9344 319.1219Q575.96564 319.1219 575.29376 319.77814Q574.6375 320.41876 574.575 321.4969Z" fill-rule="nonzero"/><path fill="#9e9e9e" d="M542.41876 348.45L541.0125 348.45L541.0125 339.48126Q540.4969 339.96564 539.66876 340.45Q538.85626 340.9344 538.2 341.1844L538.2 339.825Q539.3719 339.2625 540.2469 338.48126Q541.1375 337.6844 541.5125 336.95L542.41876 336.95L542.41876 348.45ZM553.5125 347.09064L553.5125 348.45L545.9344 348.45Q545.91876 347.9344 546.10626 347.46564Q546.3875 346.7 547.02814 345.95Q547.66876 345.2 548.8719 344.21564Q550.73126 342.6844 551.3875 341.79376Q552.04376 340.8875 552.04376 340.09064Q552.04376 339.2625 551.45 338.6844Q550.85626 338.10626 549.8875 338.10626Q548.8719 338.10626 548.2625 338.71564Q547.65314 339.325 547.65314 340.40314L546.2 340.2625Q546.35626 338.6375 547.325 337.79376Q548.29376 336.95 549.91876 336.95Q551.575 336.95 552.52814 337.8719Q553.4969 338.77814 553.4969 340.1219Q553.4969 340.8094 553.21564 341.48126Q552.9344 342.1375 552.27814 342.8719Q551.6219 343.60626 550.10626 344.8875Q548.84064 345.95 548.48126 346.34064Q548.1219 346.71564 547.8875 347.09064L553.5125 347.09064ZM555.90314 348.45L555.90314 346.84064L557.5125 346.84064L557.5125 348.45L555.90314 348.45ZM559.1219 345.45L560.59064 345.325Q560.7625 346.40314 561.35626 346.95Q561.95 347.48126 562.79376 347.48126Q563.8094 347.48126 564.5125 346.71564Q565.21564 345.95 565.21564 344.6844Q565.21564 343.48126 564.54376 342.79376Q563.8719 342.09064 562.77814 342.09064Q562.09064 342.09064 561.54376 342.40314Q560.9969 342.71564 560.6844 343.2L559.3719 343.02814L560.48126 337.15314L566.16876 337.15314L566.16876 338.4969L561.60626 338.4969L560.98126 341.575Q562.0125 340.85626 563.15314 340.85626Q564.65314 340.85626 565.6844 341.90314Q566.71564 342.9344 566.71564 344.5594Q566.71564 346.1219 565.8094 347.2469Q564.7 348.65314 562.79376 348.65314Q561.23126 348.65314 560.2469 347.77814Q559.2625 346.8875 559.1219 345.45ZM568.3875 339.7469Q568.3875 338.5125 568.9969 337.65314Q569.6219 336.79376 570.79376 336.79376Q571.8719 336.79376 572.575 337.575Q573.27814 338.34064 573.27814 339.825Q573.27814 341.27814 572.5594 342.075Q571.85626 342.85626 570.8094 342.85626Q569.7625 342.85626 569.075 342.09064Q568.3875 341.3094 568.3875 339.7469ZM570.825 337.7625Q570.3094 337.7625 569.95 338.21564Q569.60626 338.66876 569.60626 339.8875Q569.60626 340.98126 569.95 341.4344Q570.3094 341.8875 570.825 341.8875Q571.35626 341.8875 571.7 341.4344Q572.0594 340.98126 572.0594 339.77814Q572.0594 338.66876 571.7 338.21564Q571.35626 337.7625 570.825 337.7625ZM570.84064 348.8719L577.10626 336.79376L578.2469 336.79376L571.9969 348.8719L570.84064 348.8719ZM575.79376 345.7625Q575.79376 344.52814 576.40314 343.66876Q577.02814 342.8094 578.2 342.8094Q579.27814 342.8094 579.98126 343.59064Q580.7 344.35626 580.7 345.84064Q580.7 347.29376 579.98126 348.09064Q579.2625 348.8719 578.21564 348.8719Q577.16876 348.8719 576.48126 348.09064Q575.79376 347.3094 575.79376 345.7625ZM578.2469 343.77814Q577.71564 343.77814 577.35626 344.23126Q577.0125 344.6844 577.0125 345.90314Q577.0125 346.9969 577.35626 347.45Q577.71564 347.90314 578.23126 347.90314Q578.77814 347.90314 579.1219 347.45Q579.46564 346.9969 579.46564 345.79376Q579.46564 344.6844 579.10626 344.23126Q578.7625 343.77814 578.2469 343.77814Z" fill-rule="nonzero"/><path stroke="#757575" stroke-width="1.0" stroke-linecap="butt" d="M581.45 331.95L454.76666 331.95L300.0 345.01166" fill-rule="nonzero"/><path fill="#9e9e9e" d="M302.0 345.01166C302.0 343.9071 301.10458 343.01166 300.0 343.01166C298.89542 343.01166 298.0 343.9071 298.0 345.01166C298.0 346.11624 298.89542 347.01166 300.0 347.01166C301.10458 347.01166 302.0 346.11624 302.0 345.01166" fill-rule="nonzero"/><path fill="#f3f3f3" d="M265.98438 37.55L265.98438 23.2375L268.84375 23.2375L272.21875 33.3625Q272.6875 34.784374 272.90625 35.4875Q273.15625 34.70625 273.67188 33.190624L277.09375 23.2375L279.64062 23.2375L279.64062 37.55L277.82812 37.55L277.82812 25.565624L273.65625 37.55L271.95312 37.55L267.8125 25.3625L267.8125 37.55L265.98438 37.55ZM289.92188 34.20625L291.73438 34.440624Q291.3125 36.01875 290.14062 36.909374Q288.98438 37.784374 287.17188 37.784374Q284.90625 37.784374 283.5625 36.39375Q282.23438 34.9875 282.23438 32.45625Q282.23438 29.83125 283.57812 28.39375Q284.92188 26.940624 287.07812 26.940624Q289.15625 26.940624 290.46875 28.3625Q291.79688 29.76875 291.79688 32.346874Q291.79688 32.503124 291.78125 32.815624L284.04688 32.815624Q284.14062 34.51875 285.01562 35.425Q285.89062 36.33125 287.1875 36.33125Q288.15625 36.33125 288.82812 35.83125Q289.51562 35.315624 289.92188 34.20625ZM284.14062 31.3625L289.9375 31.3625Q289.82812 30.065624 289.28125 29.409374Q288.4375 28.39375 287.09375 28.39375Q285.89062 28.39375 285.0625 29.20625Q284.23438 30.003124 284.14062 31.3625ZM300.54688 37.55L300.54688 36.2375Q299.5625 37.784374 297.64062 37.784374Q296.40625 37.784374 295.35938 37.096874Q294.32812 36.409374 293.75 35.190624Q293.1875 33.971874 293.1875 32.378124Q293.1875 30.815624 293.70312 29.55Q294.21875 28.284374 295.25 27.6125Q296.29688 26.940624 297.5625 26.940624Q298.5 26.940624 299.23438 27.346874Q299.96875 27.7375 300.4375 28.3625L300.4375 23.2375L302.17188 23.2375L302.17188 37.55L300.54688 37.55ZM294.98438 32.378124Q294.98438 34.3625 295.82812 35.346874Q296.67188 36.33125 297.8125 36.33125Q298.96875 36.33125 299.76562 35.39375Q300.57812 34.45625 300.57812 32.51875Q300.57812 30.39375 299.75 29.39375Q298.9375 28.39375 297.73438 28.39375Q296.5625 28.39375 295.76562 29.3625Q294.98438 30.315624 294.98438 32.378124ZM304.82812 25.253124L304.82812 23.2375L306.59375 23.2375L306.59375 25.253124L304.82812 25.253124ZM304.82812 37.55L304.82812 27.175L306.59375 27.175L306.59375 37.55L304.82812 37.55ZM315.60938 37.55L315.60938 36.01875Q314.40625 37.784374 312.32812 37.784374Q311.40625 37.784374 310.60938 37.440624Q309.8125 37.08125 309.42188 36.55Q309.04688 36.01875 308.89062 35.2375Q308.78125 34.721874 308.78125 33.596874L308.78125 27.175L310.53125 27.175L310.53125 32.925Q310.53125 34.3 310.64062 34.784374Q310.8125 35.471874 311.34375 35.878124Q311.89062 36.26875 312.67188 36.26875Q313.46875 36.26875 314.15625 35.8625Q314.85938 35.45625 315.14062 34.76875Q315.4375 34.065624 315.4375 32.7375L315.4375 27.175L317.1875 27.175L317.1875 37.55L315.60938 37.55ZM319.8125 37.55L319.8125 27.175L321.39062 27.175L321.39062 28.628124Q321.875 27.878124 322.6875 27.409374Q323.5 26.940624 324.53125 26.940624Q325.6875 26.940624 326.42188 27.425Q327.15625 27.89375 327.46875 28.753124Q328.70312 26.940624 330.67188 26.940624Q332.21875 26.940624 333.04688 27.8Q333.875 28.659374 333.875 30.425L333.875 37.55L332.125 37.55L332.125 31.01875Q332.125 29.95625 331.95312 29.503124Q331.78125 29.034374 331.32812 28.753124Q330.89062 28.471874 330.28125 28.471874Q329.1875 28.471874 328.45312 29.20625Q327.73438 29.925 327.73438 31.51875L327.73438 37.55L325.98438 37.55L325.98438 30.815624Q325.98438 29.64375 325.54688 29.065624Q325.125 28.471874 324.14062 28.471874Q323.40625 28.471874 322.76562 28.8625Q322.14062 29.253124 321.85938 30.003124Q321.57812 30.753124 321.57812 32.175L321.57812 37.55L319.8125 37.55Z" fill-rule="nonzero"/></svg>