<svg version="1.1" viewBox="0.0 0.0 600.0 371.0" fill="none" stroke="none" stroke-linecap="square" stroke-miterlimit="10" width="600" height="371" xmlns:xlink="http://www.w3.org/1999/xlink" xmlns="http://www.w3.org/2000/svg"><path fill="#ffffff" fill-opacity="0.0" d="M0 0L600.0 0L600.0 371.0L0 371.0L0 0Z" fill-rule="nonzero"/><path fill="#4285f4" d="M300.0 54.916668C339.45538 54.916668 377.29477 70.590256 405.1939 98.48942L352.59695 151.08638C338.64737 137.1368 319.7277 129.3 300.0 129.3Z" fill-rule="nonzero"/><path fill="#f5ee58" d="M405.1939 98.48942C433.09308 126.38857 448.76666 164.22797 448.76666 203.68333L374.38333 203.68333C374.38333 183.95564 366.54654 165.03595 352.59695 151.08638Z" fill-rule="nonzero"/><path fill="#78a94e" d="M448.76666 203.68333C448.76666 243.1387 433.09308 280.9781 405.1939 308.87726L352.59695 256.2803C366.54654 242.33072 374.38333 223.41103 374.38333 203.68333Z" fill-rule="nonzero"/><path fill="#d8753e" d="M405.1939 308.87726C357.58255 356.48862 283.92844 366.18536 225.61667 332.51904C167.30489 298.85272 138.87547 230.21802 156.30243 165.17969C173.7294 100.14135 232.66736 54.916668 300.0 54.916668L300.0 129.3C266.33368 129.3 236.8647 151.91234 228.15121 184.4315C219.43773 216.95068 233.65245 251.26804 262.80832 268.1012C291.96423 284.93436 328.7913 280.08597 352.59695 256.2803Z" fill-rule="nonzero"/><path fill="#ffffff" d="M323.90103 107.10147L322.3229 107.10147L322.3229 97.023346Q321.74478 97.57022 320.8229 98.117096Q319.90103 98.648346 319.15103 98.929596L319.15103 97.398346Q320.47916 96.773346 321.47916 95.88272Q322.47916 94.992096 322.8854 94.16397L323.90103 94.16397L323.90103 107.10147ZM336.2604 105.585846L336.2604 107.10147L327.74478 107.10147Q327.72916 106.523346 327.93228 106.00772Q328.2604 105.13272 328.96353 104.28897Q329.68228 103.44522 331.04166 102.335846Q333.1354 100.617096 333.86978 99.617096Q334.61978 98.60147 334.61978 97.710846Q334.61978 96.75772 333.9479 96.117096Q333.27603 95.47647 332.1979 95.47647Q331.04166 95.47647 330.35416 96.16397Q329.68228 96.85147 329.66666 98.054596L328.04166 97.88272Q328.21353 96.07022 329.29166 95.117096Q330.3854 94.16397 332.22916 94.16397Q334.0729 94.16397 335.15103 95.19522Q336.24478 96.22647 336.24478 97.742096Q336.24478 98.50772 335.91666 99.25772Q335.60416 100.00772 334.86978 100.835846Q334.1354 101.66397 332.43228 103.10147Q331.0104 104.304596 330.60416 104.72647Q330.1979 105.148346 329.9479 105.585846L336.2604 105.585846ZM338.83853 107.10147L338.83853 105.304596L340.6354 105.304596L340.6354 107.10147L338.83853 107.10147ZM342.9479 103.72647L344.60416 103.585846Q344.79166 104.804596 345.46353 105.41397Q346.1354 106.023346 347.08853 106.023346Q348.22916 106.023346 349.0104 105.16397Q349.80728 104.304596 349.80728 102.867096Q349.80728 101.523346 349.04166 100.742096Q348.29166 99.960846 347.05728 99.960846Q346.29166 99.960846 345.66666 100.304596Q345.05728 100.648346 344.71353 101.210846L343.22916 101.00772L344.47916 94.398346L350.8854 94.398346L350.8854 95.898346L345.74478 95.898346L345.04166 99.367096Q346.21353 98.554596 347.47916 98.554596Q349.16666 98.554596 350.3229 99.72647Q351.49478 100.898346 351.49478 102.72647Q351.49478 104.47647 350.46353 105.75772Q349.22916 107.32022 347.08853 107.32022Q345.3229 107.32022 344.21353 106.335846Q343.10416 105.35147 342.9479 103.72647ZM353.24478 97.304596Q353.24478 95.929596 353.93228 94.960846Q354.6354 93.992096 355.9479 93.992096Q357.16666 93.992096 357.96353 94.867096Q358.7604 95.72647 358.7604 97.41397Q358.7604 99.03897 357.9479 99.929596Q357.15103 100.804596 355.96353 100.804596Q354.80728 100.804596 354.02603 99.94522Q353.24478 99.07022 353.24478 97.304596ZM355.99478 95.085846Q355.40103 95.085846 355.0104 95.60147Q354.61978 96.10147 354.61978 97.460846Q354.61978 98.710846 355.0104 99.210846Q355.41666 99.710846 355.99478 99.710846Q356.58853 99.710846 356.97916 99.210846Q357.36978 98.69522 357.36978 97.35147Q357.36978 96.10147 356.97916 95.60147Q356.58853 95.085846 355.99478 95.085846ZM356.0104 107.57022L363.05728 93.992096L364.33853 93.992096L357.30728 107.57022L356.0104 107.57022ZM361.5729 104.07022Q361.5729 102.69522 362.2604 101.72647Q362.96353 100.75772 364.29166 100.75772Q365.5104 100.75772 366.29166 101.63272Q367.08853 102.492096 367.08853 104.179596Q367.08853 105.804596 366.29166 106.69522Q365.49478 107.57022 364.30728 107.57022Q363.1354 107.57022 362.35416 106.69522Q361.5729 105.82022 361.5729 104.07022ZM364.33853 101.85147Q363.74478 101.85147 363.35416 102.367096Q362.96353 102.867096 362.96353 104.242096Q362.96353 105.460846 363.35416 105.97647Q363.74478 106.492096 364.3229 106.492096Q364.93228 106.492096 365.3229 105.97647Q365.71353 105.460846 365.71353 104.117096Q365.71353 102.867096 365.3229 102.367096Q364.93228 101.85147 364.33853 101.85147Z" fill-rule="nonzero"/><path fill="#ffffff" d="M384.28497 167.48543L382.70685 167.48543L382.70685 157.4073Q382.12872 157.95418 381.20685 158.50105Q380.28497 159.0323 379.53497 159.31355L379.53497 157.7823Q380.8631 157.1573 381.8631 156.26668Q382.8631 155.37605 383.26935 154.54793L384.28497 154.54793L384.28497 167.48543ZM396.64435 165.9698L396.64435 167.48543L388.12872 167.48543Q388.1131 166.9073 388.31622 166.39168Q388.64435 165.51668 389.34747 164.67293Q390.06622 163.82918 391.4256 162.7198Q393.51935 161.00105 394.25372 160.00105Q395.00372 158.98543 395.00372 158.0948Q395.00372 157.14168 394.33185 156.50105Q393.65997 155.86043 392.58185 155.86043Q391.4256 155.86043 390.7381 156.54793Q390.06622 157.23543 390.0506 158.43855L388.4256 158.26668Q388.59747 156.45418 389.6756 155.50105Q390.76935 154.54793 392.6131 154.54793Q394.45685 154.54793 395.53497 155.57918Q396.62872 156.61043 396.62872 158.12605Q396.62872 158.89168 396.3006 159.64168Q395.9881 160.39168 395.25372 161.2198Q394.51935 162.04793 392.81622 163.48543Q391.39435 164.68855 390.9881 165.11043Q390.58185 165.5323 390.33185 165.9698L396.64435 165.9698ZM399.22247 167.48543L399.22247 165.68855L401.01935 165.68855L401.01935 167.48543L399.22247 167.48543ZM403.33185 164.11043L404.9881 163.9698Q405.1756 165.18855 405.84747 165.79793Q406.51935 166.4073 407.47247 166.4073Q408.6131 166.4073 409.39435 165.54793Q410.19122 164.68855 410.19122 163.25105Q410.19122 161.9073 409.4256 161.12605Q408.6756 160.3448 407.44122 160.3448Q406.6756 160.3448 406.0506 160.68855Q405.44122 161.0323 405.09747 161.5948L403.6131 161.39168L404.8631 154.7823L411.26935 154.7823L411.26935 156.2823L406.12872 156.2823L405.4256 159.75105Q406.59747 158.93855 407.8631 158.93855Q409.5506 158.93855 410.70685 160.11043Q411.87872 161.2823 411.87872 163.11043Q411.87872 164.86043 410.84747 166.14168Q409.6131 167.70418 407.47247 167.70418Q405.70685 167.70418 404.59747 166.7198Q403.4881 165.73543 403.33185 164.11043ZM413.62872 157.68855Q413.62872 156.31355 414.31622 155.3448Q415.01935 154.37605 416.33185 154.37605Q417.5506 154.37605 418.34747 155.25105Q419.14435 156.11043 419.14435 157.79793Q419.14435 159.42293 418.33185 160.31355Q417.53497 161.18855 416.34747 161.18855Q415.19122 161.18855 414.40997 160.32918Q413.62872 159.45418 413.62872 157.68855ZM416.37872 155.4698Q415.78497 155.4698 415.39435 155.98543Q415.00372 156.48543 415.00372 157.8448Q415.00372 159.0948 415.39435 159.5948Q415.8006 160.0948 416.37872 160.0948Q416.97247 160.0948 417.3631 159.5948Q417.75372 159.07918 417.75372 157.73543Q417.75372 156.48543 417.3631 155.98543Q416.97247 155.4698 416.37872 155.4698ZM416.39435 167.95418L423.44122 154.37605L424.72247 154.37605L417.69122 167.95418L416.39435 167.95418ZM421.95685 164.45418Q421.95685 163.07918 422.64435 162.11043Q423.34747 161.14168 424.6756 161.14168Q425.89435 161.14168 426.6756 162.01668Q427.47247 162.87605 427.47247 164.56355Q427.47247 166.18855 426.6756 167.07918Q425.87872 167.95418 424.69122 167.95418Q423.51935 167.95418 422.7381 167.07918Q421.95685 166.20418 421.95685 164.45418ZM424.72247 162.23543Q424.12872 162.23543 423.7381 162.75105Q423.34747 163.25105 423.34747 164.62605Q423.34747 165.8448 423.7381 166.36043Q424.12872 166.87605 424.70685 166.87605Q425.31622 166.87605 425.70685 166.36043Q426.09747 165.8448 426.09747 164.50105Q426.09747 163.25105 425.70685 162.75105Q425.31622 162.23543 424.72247 162.23543Z" fill-rule="nonzero"/><path fill="#ffffff" d="M384.28497 252.88124L382.70685 252.88124L382.70685 242.80312Q382.12872 243.34999 381.20685 243.89687Q380.28497 244.42812 379.53497 244.70937L379.53497 243.17812Q380.8631 242.55312 381.8631 241.66249Q382.8631 240.77187 383.26935 239.94374L384.28497 239.94374L384.28497 252.88124ZM396.64435 251.36562L396.64435 252.88124L388.12872 252.88124Q388.1131 252.30312 388.31622 251.78749Q388.64435 250.91249 389.34747 250.06874Q390.06622 249.22499 391.4256 248.11562Q393.51935 246.39687 394.25372 245.39687Q395.00372 244.38124 395.00372 243.49062Q395.00372 242.53749 394.33185 241.89687Q393.65997 241.25624 392.58185 241.25624Q391.4256 241.25624 390.7381 241.94374Q390.06622 242.63124 390.0506 243.83437L388.4256 243.66249Q388.59747 241.84999 389.6756 240.89687Q390.76935 239.94374 392.6131 239.94374Q394.45685 239.94374 395.53497 240.97499Q396.62872 242.00624 396.62872 243.52187Q396.62872 244.28749 396.3006 245.03749Q395.9881 245.78749 395.25372 246.61562Q394.51935 247.44374 392.81622 248.88124Q391.39435 250.08437 390.9881 250.50624Q390.58185 250.92812 390.33185 251.36562L396.64435 251.36562ZM399.22247 252.88124L399.22247 251.08437L401.01935 251.08437L401.01935 252.88124L399.22247 252.88124ZM403.33185 249.50624L404.9881 249.36562Q405.1756 250.58437 405.84747 251.19374Q406.51935 251.80312 407.47247 251.80312Q408.6131 251.80312 409.39435 250.94374Q410.19122 250.08437 410.19122 248.64687Q410.19122 247.30312 409.4256 246.52187Q408.6756 245.74062 407.44122 245.74062Q406.6756 245.74062 406.0506 246.08437Q405.44122 246.42812 405.09747 246.99062L403.6131 246.78749L404.8631 240.17812L411.26935 240.17812L411.26935 241.67812L406.12872 241.67812L405.4256 245.14687Q406.59747 244.33437 407.8631 244.33437Q409.5506 244.33437 410.70685 245.50624Q411.87872 246.67812 411.87872 248.50624Q411.87872 250.25624 410.84747 251.53749Q409.6131 253.09999 407.47247 253.09999Q405.70685 253.09999 404.59747 252.11562Q403.4881 251.13124 403.33185 249.50624ZM413.62872 243.08437Q413.62872 241.70937 414.31622 240.74062Q415.01935 239.77187 416.33185 239.77187Q417.5506 239.77187 418.34747 240.64687Q419.14435 241.50624 419.14435 243.19374Q419.14435 244.81874 418.33185 245.70937Q417.53497 246.58437 416.34747 246.58437Q415.19122 246.58437 414.40997 245.72499Q413.62872 244.84999 413.62872 243.08437ZM416.37872 240.86562Q415.78497 240.86562 415.39435 241.38124Q415.00372 241.88124 415.00372 243.24062Q415.00372 244.49062 415.39435 244.99062Q415.8006 245.49062 416.37872 245.49062Q416.97247 245.49062 417.3631 244.99062Q417.75372 244.47499 417.75372 243.13124Q417.75372 241.88124 417.3631 241.38124Q416.97247 240.86562 416.37872 240.86562ZM416.39435 253.34999L423.44122 239.77187L424.72247 239.77187L417.69122 253.34999L416.39435 253.34999ZM421.95685 249.84999Q421.95685 248.47499 422.64435 247.50624Q423.34747 246.53749 424.6756 246.53749Q425.89435 246.53749 426.6756 247.41249Q427.47247 248.27187 427.47247 249.95937Q427.47247 251.58437 426.6756 252.47499Q425.87872 253.34999 424.69122 253.34999Q423.51935 253.34999 422.7381 252.47499Q421.95685 251.59999 421.95685 249.84999ZM424.72247 247.63124Q424.12872 247.63124 423.7381 248.14687Q423.34747 248.64687 423.34747 250.02187Q423.34747 251.24062 423.7381 251.75624Q424.12872 252.27187 424.70685 252.27187Q425.31622 252.27187 425.70685 251.75624Q426.09747 251.24062 426.09747 249.89687Q426.09747 248.64687 425.70685 248.14687Q425.31622 247.63124 424.72247 247.63124Z" fill-rule="nonzero"/><path fill="#ffffff" d="M180.37126 243.14687L178.80876 243.27187Q178.59001 242.34999 178.19939 241.92812Q177.55876 241.24062 176.62126 241.24062Q175.87126 241.24062 175.29314 241.66249Q174.54314 242.20937 174.10564 243.25624Q173.68376 244.30312 173.66814 246.24062Q174.24626 245.36562 175.05876 244.94374Q175.88689 244.52187 176.79314 244.52187Q178.38689 244.52187 179.49626 245.69374Q180.60564 246.84999 180.60564 248.69374Q180.60564 249.91249 180.07439 250.95937Q179.55876 251.99062 178.63689 252.55312Q177.73064 253.09999 176.57439 253.09999Q174.59001 253.09999 173.34001 251.64687Q172.09001 250.19374 172.09001 246.84999Q172.09001 243.11562 173.48064 241.41249Q174.68376 239.94374 176.71501 239.94374Q178.24626 239.94374 179.21501 240.80312Q180.18376 241.64687 180.37126 243.14687ZM173.91814 248.70937Q173.91814 249.52187 174.26189 250.27187Q174.60564 251.02187 175.23064 251.41249Q175.85564 251.80312 176.54314 251.80312Q177.54314 251.80312 178.26189 250.99062Q178.98064 250.17812 178.98064 248.78749Q178.98064 247.45937 178.26189 246.69374Q177.55876 245.91249 176.48064 245.91249Q175.40251 245.91249 174.65251 246.69374Q173.91814 247.45937 173.91814 248.70937ZM190.48064 251.36562L190.48064 252.88124L181.96501 252.88124Q181.94939 252.30312 182.15251 251.78749Q182.48064 250.91249 183.18376 250.06874Q183.90251 249.22499 185.26189 248.11562Q187.35564 246.39687 188.09001 245.39687Q188.84001 244.38124 188.84001 243.49062Q188.84001 242.53749 188.16814 241.89687Q187.49626 241.25624 186.41814 241.25624Q185.26189 241.25624 184.57439 241.94374Q183.90251 242.63124 183.88689 243.83437L182.26189 243.66249Q182.43376 241.84999 183.51189 240.89687Q184.60564 239.94374 186.44939 239.94374Q188.29314 239.94374 189.37126 240.97499Q190.46501 242.00624 190.46501 243.52187Q190.46501 244.28749 190.13689 245.03749Q189.82439 245.78749 189.09001 246.61562Q188.35564 247.44374 186.65251 248.88124Q185.23064 250.08437 184.82439 250.50624Q184.41814 250.92812 184.16814 251.36562L190.48064 251.36562ZM193.05876 252.88124L193.05876 251.08437L194.85564 251.08437L194.85564 252.88124L193.05876 252.88124ZM197.16814 249.50624L198.82439 249.36562Q199.01189 250.58437 199.68376 251.19374Q200.35564 251.80312 201.30876 251.80312Q202.44939 251.80312 203.23064 250.94374Q204.02751 250.08437 204.02751 248.64687Q204.02751 247.30312 203.26189 246.52187Q202.51189 245.74062 201.27751 245.74062Q200.51189 245.74062 199.88689 246.08437Q199.27751 246.42812 198.93376 246.99062L197.44939 246.78749L198.69939 240.17812L205.10564 240.17812L205.10564 241.67812L199.96501 241.67812L199.26189 245.14687Q200.43376 244.33437 201.69939 244.33437Q203.38689 244.33437 204.54314 245.50624Q205.71501 246.67812 205.71501 248.50624Q205.71501 250.25624 204.68376 251.53749Q203.44939 253.09999 201.30876 253.09999Q199.54314 253.09999 198.43376 252.11562Q197.32439 251.13124 197.16814 249.50624ZM207.46501 243.08437Q207.46501 241.70937 208.15251 240.74062Q208.85564 239.77187 210.16814 239.77187Q211.38689 239.77187 212.18376 240.64687Q212.98064 241.50624 212.98064 243.19374Q212.98064 244.81874 212.16814 245.70937Q211.37126 246.58437 210.18376 246.58437Q209.02751 246.58437 208.24626 245.72499Q207.46501 244.84999 207.46501 243.08437ZM210.21501 240.86562Q209.62126 240.86562 209.23064 241.38124Q208.84001 241.88124 208.84001 243.24062Q208.84001 244.49062 209.23064 244.99062Q209.63689 245.49062 210.21501 245.49062Q210.80876 245.49062 211.19939 244.99062Q211.59001 244.47499 211.59001 243.13124Q211.59001 241.88124 211.19939 241.38124Q210.80876 240.86562 210.21501 240.86562ZM210.23064 253.34999L217.27751 239.77187L218.55876 239.77187L211.52751 253.34999L210.23064 253.34999ZM215.79314 249.84999Q215.79314 248.47499 216.48064 247.50624Q217.18376 246.53749 218.51189 246.53749Q219.73064 246.53749 220.51189 247.41249Q221.30876 248.27187 221.30876 249.95937Q221.30876 251.58437 220.51189 252.47499Q219.71501 253.34999 218.52751 253.34999Q217.35564 253.34999 216.57439 252.47499Q215.79314 251.59999 215.79314 249.84999ZM218.55876 247.63124Q217.96501 247.63124 217.57439 248.14687Q217.18376 248.64687 217.18376 250.02187Q217.18376 251.24062 217.57439 251.75624Q217.96501 252.27187 218.54314 252.27187Q219.15251 252.27187 219.54314 251.75624Q219.93376 251.24062 219.93376 249.89687Q219.93376 248.64687 219.54314 248.14687Q219.15251 247.63124 218.55876 247.63124Z" fill-rule="nonzero"/><path stroke="#ffffff" stroke-width="1.0" stroke-linejoin="round" stroke-linecap="round" d="M352.59695 151.08638C338.64737 137.1368 319.7277 129.3 300.0 129.3L300.0 54.916668C339.45538 54.916668 377.29477 70.590256 405.1939 98.48942" fill-rule="nonzero"/><path stroke="#ffffff" stroke-width="1.0" stroke-linejoin="round" stroke-linecap="round" d="M374.38333 203.68333C374.38333 183.95564 366.54654 165.03595 352.59695 151.08638L405.1939 98.48942C433.09308 126.38857 448.76666 164.22797 448.76666 203.68333" fill-rule="nonzero"/><path stroke="#ffffff" stroke-width="1.0" stroke-linejoin="round" stroke-linecap="round" d="M352.59695 256.2803C366.54654 242.33072 374.38333 223.41103 374.38333 203.68333L448.76666 203.68333C448.76666 243.1387 433.09308 280.9781 405.1939 308.87726" fill-rule="nonzero"/><path stroke="#ffffff" stroke-width="1.0" stroke-linejoin="round" stroke-linecap="round" d="M300.0 129.3C266.33368 129.3 236.8647 151.91234 228.15121 184.4315C219.43773 216.95068 233.65245 251.26804 262.80832 268.1012C291.96423 284.93436 328.7913 280.08597 352.59695 256.2803L405.1939 308.87726C357.58255 356.48862 283.92844 366.18536 225.61667 332.51904C167.30489 298.85272 138.87547 230.21802 156.30243 165.17969C173.7294 100.14135 232.66736 54.916668 300.0 54.916668" fill-rule="nonzero"/><path fill="#efefef" d="M18.51875 252.26735L22.925 240.81422L24.565624 240.81422L29.253124 252.26735L27.51875 252.26735L26.190624 248.7986L21.39375 248.7986L20.14375 252.26735L18.51875 252.26735ZM21.83125 247.56422L25.721874 247.56422L24.51875 244.39235Q23.971874 242.93922 23.70625 242.01735Q23.4875 243.1111 23.096874 244.20485L21.83125 247.56422ZM30.596874 252.26735L30.596874 243.97047L31.8625 243.97047L31.8625 245.22047Q32.346874 244.34547 32.753124 244.06422Q33.159374 243.78297 33.659374 243.78297Q34.3625 243.78297 35.096874 244.2361L34.6125 245.53297Q34.096874 245.2361 33.58125 245.2361Q33.128124 245.2361 32.753124 245.51735Q32.39375 245.78297 32.2375 246.28297Q32.003124 247.03297 32.003124 247.9236L32.003124 252.26735L30.596874 252.26735ZM38.675 251.00172L38.878124 252.25172Q38.284374 252.37672 37.815624 252.37672Q37.05 252.37672 36.628124 252.14235Q36.20625 251.89235 36.034374 251.50172Q35.8625 251.09547 35.8625 249.82985L35.8625 245.06422L34.83125 245.06422L34.83125 243.97047L35.8625 243.97047L35.8625 241.90797L37.26875 241.06422L37.26875 243.97047L38.675 243.97047L38.675 245.06422L37.26875 245.06422L37.26875 249.90797Q37.26875 250.51735 37.33125 250.68922Q37.409374 250.8611 37.58125 250.97047Q37.753124 251.06422 38.065624 251.06422Q38.3 251.06422 38.675 251.00172ZM39.05 249.78297L40.440624 249.56422Q40.55 250.40797 41.08125 250.8611Q41.628124 251.2986 42.58125 251.2986Q43.55 251.2986 44.01875 250.90797Q44.4875 250.50172 44.4875 249.97047Q44.4875 249.50172 44.08125 249.22047Q43.784374 249.03297 42.64375 248.75172Q41.096874 248.3611 40.4875 248.07985Q39.89375 247.78297 39.58125 247.28297Q39.284374 246.78297 39.284374 246.1736Q39.284374 245.6111 39.534374 245.14235Q39.784374 244.6736 40.221874 244.3611Q40.55 244.1111 41.1125 243.95485Q41.690624 243.78297 42.33125 243.78297Q43.315624 243.78297 44.05 244.06422Q44.784374 244.34547 45.128124 244.82985Q45.4875 245.2986 45.628124 246.1111L44.253124 246.2986Q44.159374 245.65797 43.70625 245.2986Q43.253124 244.93922 42.440624 244.93922Q41.471874 244.93922 41.05 245.26735Q40.64375 245.57985 40.64375 246.00172Q40.64375 246.28297 40.815624 246.50172Q40.9875 246.72047 41.346874 246.87672Q41.565624 246.95485 42.596874 247.2361Q44.08125 247.62672 44.675 247.89235Q45.26875 248.14235 45.596874 248.62672Q45.940624 249.1111 45.940624 249.82985Q45.940624 250.53297 45.51875 251.15797Q45.1125 251.76735 44.33125 252.1111Q43.565624 252.45485 42.596874 252.45485Q40.971874 252.45485 40.128124 251.78297Q39.284374 251.1111 39.05 249.78297ZM58.159374 250.90797Q57.45625 251.68922 56.628124 252.07985Q55.815624 252.47047 54.8625 252.47047Q53.1125 252.47047 52.08125 251.26735Q51.2375 250.2986 51.2375 249.1111Q51.2375 248.0486 51.925 247.18922Q52.6125 246.32985 53.971874 245.68922Q53.190624 244.7986 52.925 244.25172Q52.675 243.68922 52.675 243.1736Q52.675 242.14235 53.4875 241.37672Q54.3 240.6111 55.51875 240.6111Q56.690624 240.6111 57.440624 241.32985Q58.190624 242.0486 58.190624 243.06422Q58.190624 244.68922 56.01875 245.84547L58.08125 248.47047Q58.425 247.78297 58.628124 246.87672L60.08125 247.18922Q59.70625 248.68922 59.065624 249.65797Q59.8625 250.70485 60.8625 251.40797L59.909374 252.53297Q59.065624 251.9861 58.159374 250.90797ZM55.3 244.93922Q56.20625 244.40797 56.471874 244.00172Q56.753124 243.59547 56.753124 243.09547Q56.753124 242.51735 56.378124 242.14235Q56.003124 241.76735 55.45625 241.76735Q54.878124 241.76735 54.503124 242.14235Q54.128124 242.50172 54.128124 243.03297Q54.128124 243.2986 54.253124 243.59547Q54.39375 243.89235 54.675 244.22047L55.3 244.93922ZM57.26875 249.7986L54.690624 246.6111Q53.55 247.28297 53.14375 247.87672Q52.753124 248.45485 52.753124 249.01735Q52.753124 249.72047 53.3 250.47047Q53.8625 251.22047 54.878124 251.22047Q55.51875 251.22047 56.190624 250.82985Q56.8625 250.4236 57.26875 249.7986ZM65.51875 252.26735L69.925 240.81422L71.56563 240.81422L76.25313 252.26735L74.51875 252.26735L73.19063 248.7986L68.39375 248.7986L67.14375 252.26735L65.51875 252.26735ZM68.83125 247.56422L72.72188 247.56422L71.51875 244.39235Q70.97188 242.93922 70.70625 242.01735Q70.4875 243.1111 70.09688 244.20485L68.83125 247.56422ZM77.6125 252.26735L77.6125 243.97047L78.87813 243.97047L78.87813 245.14235Q79.78438 243.78297 81.51875 243.78297Q82.26875 243.78297 82.89375 244.0486Q83.51875 244.31422 83.83125 244.75172Q84.14375 245.18922 84.26875 245.7986Q84.34688 246.18922 84.34688 247.15797L84.34688 252.26735L82.94063 252.26735L82.94063 247.22047Q82.94063 246.3611 82.76875 245.93922Q82.6125 245.50172 82.19063 245.25172Q81.78438 245.00172 81.22188 245.00172Q80.31563 245.00172 79.65938 245.57985Q79.01875 246.14235 79.01875 247.7361L79.01875 252.26735L77.6125 252.26735ZM89.675 251.00172L89.87813 252.25172Q89.28438 252.37672 88.81563 252.37672Q88.05 252.37672 87.62813 252.14235Q87.20625 251.89235 87.03438 251.50172Q86.8625 251.09547 86.8625 249.82985L86.8625 245.06422L85.83125 245.06422L85.83125 243.97047L86.8625 243.97047L86.8625 241.90797L88.26875 241.06422L88.26875 243.97047L89.675 243.97047L89.675 245.06422L88.26875 245.06422L88.26875 249.90797Q88.26875 250.51735 88.33125 250.68922Q88.40938 250.8611 88.58125 250.97047Q88.75313 251.06422 89.06563 251.06422Q89.3 251.06422 89.675 251.00172ZM90.6125 242.4236L90.6125 240.81422L92.01875 240.81422L92.01875 242.4236L90.6125 242.4236ZM90.6125 252.26735L90.6125 243.97047L92.01875 243.97047L92.01875 252.26735L90.6125 252.26735ZM99.89375 255.45485L99.89375 251.37672Q99.56563 251.84547 98.97188 252.15797Q98.39375 252.45485 97.72188 252.45485Q96.25313 252.45485 95.175 251.28297Q94.1125 250.09547 94.1125 248.03297Q94.1125 246.78297 94.55 245.7986Q94.9875 244.7986 95.8 244.2986Q96.62813 243.78297 97.6125 243.78297Q99.15938 243.78297 100.03438 245.07985L100.03438 243.97047L101.3 243.97047L101.3 255.45485L99.89375 255.45485ZM95.56563 248.09547Q95.56563 249.68922 96.2375 250.50172Q96.90938 251.2986 97.84688 251.2986Q98.7375 251.2986 99.37813 250.53297Q100.03438 249.76735 100.03438 248.22047Q100.03438 246.56422 99.34688 245.7361Q98.675 244.89235 97.75313 244.89235Q96.83125 244.89235 96.19063 245.6736Q95.56563 246.43922 95.56563 248.09547ZM109.05 252.26735L109.05 251.0486Q108.08125 252.45485 106.40938 252.45485Q105.675 252.45485 105.03438 252.1736Q104.40938 251.89235 104.09688 251.47047Q103.78438 251.03297 103.65938 250.4236Q103.58125 250.00172 103.58125 249.1111L103.58125 243.97047L104.9875 243.97047L104.9875 248.56422Q104.9875 249.6736 105.06563 250.0486Q105.20625 250.6111 105.62813 250.9236Q106.06563 251.2361 106.69063 251.2361Q107.33125 251.2361 107.87813 250.9236Q108.44063 250.59547 108.65938 250.03297Q108.89375 249.47047 108.89375 248.40797L108.89375 243.97047L110.3 243.97047L110.3 252.26735L109.05 252.26735ZM112.6125 242.4236L112.6125 240.81422L114.01875 240.81422L114.01875 242.4236L112.6125 242.4236ZM112.6125 252.26735L112.6125 243.97047L114.01875 243.97047L114.01875 252.26735L112.6125 252.26735ZM119.675 251.00172L119.87813 252.25172Q119.28438 252.37672 118.81563 252.37672Q118.05 252.37672 117.62813 252.14235Q117.20625 251.89235 117.03438 251.50172Q116.8625 251.09547 116.8625 249.82985L116.8625 245.06422L115.83125 245.06422L115.83125 243.97047L116.8625 243.97047L116.8625 241.90797L118.26875 241.06422L118.26875 243.97047L119.675 243.97047L119.675 245.06422L118.26875 245.06422L118.26875 249.90797Q118.26875 250.51735 118.33125 250.68922Q118.40938 250.8611 118.58125 250.97047Q118.75313 251.06422 119.06563 251.06422Q119.3 251.06422 119.675 251.00172ZM120.6125 242.4236L120.6125 240.81422L122.01875 240.81422L122.01875 242.4236L120.6125 242.4236ZM120.6125 252.26735L120.6125 243.97047L122.01875 243.97047L122.01875 252.26735L120.6125 252.26735ZM130.28438 249.59547L131.7375 249.76735Q131.39375 251.0486 130.45625 251.75172Q129.53438 252.45485 128.09688 252.45485Q126.26875 252.45485 125.20625 251.32985Q124.14375 250.20485 124.14375 248.18922Q124.14375 246.09547 125.22188 244.93922Q126.3 243.78297 128.01875 243.78297Q129.675 243.78297 130.72188 244.9236Q131.78438 246.0486 131.78438 248.09547Q131.78438 248.22047 131.78438 248.47047L125.59688 248.47047Q125.675 249.84547 126.3625 250.57985Q127.06563 251.2986 128.09688 251.2986Q128.87813 251.2986 129.425 250.89235Q129.97188 250.4861 130.28438 249.59547ZM125.675 247.31422L130.3 247.31422Q130.20625 246.26735 129.76875 245.75172Q129.09688 244.93922 128.03438 244.93922Q127.06563 244.93922 126.39375 245.59547Q125.7375 246.2361 125.675 247.31422ZM133.05 249.78297L134.44063 249.56422Q134.55 250.40797 135.08125 250.8611Q135.62813 251.2986 136.58125 251.2986Q137.55 251.2986 138.01875 250.90797Q138.4875 250.50172 138.4875 249.97047Q138.4875 249.50172 138.08125 249.22047Q137.78438 249.03297 136.64375 248.75172Q135.09688 248.3611 134.4875 248.07985Q133.89375 247.78297 133.58125 247.28297Q133.28438 246.78297 133.28438 246.1736Q133.28438 245.6111 133.53438 245.14235Q133.78438 244.6736 134.22188 244.3611Q134.55 244.1111 135.1125 243.95485Q135.69063 243.78297 136.33125 243.78297Q137.31563 243.78297 138.05 244.06422Q138.78438 244.34547 139.12813 244.82985Q139.4875 245.2986 139.62813 246.1111L138.25313 246.2986Q138.15938 245.65797 137.70625 245.2986Q137.25313 244.93922 136.44063 244.93922Q135.47188 244.93922 135.05 245.26735Q134.64375 245.57985 134.64375 246.00172Q134.64375 246.28297 134.81563 246.50172Q134.9875 246.72047 135.34688 246.87672Q135.56563 246.95485 136.59688 247.2361Q138.08125 247.62672 138.675 247.89235Q139.26875 248.14235 139.59688 248.62672Q139.94063 249.1111 139.94063 249.82985Q139.94063 250.53297 139.51875 251.15797Q139.1125 251.76735 138.33125 252.1111Q137.56563 252.45485 136.59688 252.45485Q134.97188 252.45485 134.12813 251.78297Q133.28438 251.1111 133.05 249.78297Z" fill-rule="nonzero"/><path fill="#9e9e9e" d="M26.51875 265.61108L25.1125 265.72046Q24.925 264.89233 24.58125 264.51733Q24.01875 263.92358 23.175 263.92358Q22.503124 263.92358 22.003124 264.29858Q21.33125 264.78296 20.940624 265.72046Q20.565624 266.64233 20.55 268.36108Q21.065624 267.57983 21.8 267.20483Q22.534374 266.82983 23.33125 266.82983Q24.7375 266.82983 25.721874 267.8767Q26.721874 268.90796 26.721874 270.54858Q26.721874 271.6267 26.253124 272.54858Q25.784374 273.47046 24.971874 273.97046Q24.159374 274.47046 23.128124 274.47046Q21.378124 274.47046 20.26875 273.17358Q19.159374 271.8767 19.159374 268.90796Q19.159374 265.57983 20.378124 264.07983Q21.45625 262.76733 23.26875 262.76733Q24.6125 262.76733 25.471874 263.53296Q26.346874 264.28296 26.51875 265.61108ZM20.76875 270.54858Q20.76875 271.28296 21.08125 271.95483Q21.39375 272.61108 21.940624 272.95483Q22.503124 273.29858 23.1125 273.29858Q24.003124 273.29858 24.64375 272.57983Q25.284374 271.86108 25.284374 270.6267Q25.284374 269.4392 24.64375 268.76733Q24.01875 268.07983 23.05 268.07983Q22.096874 268.07983 21.425 268.76733Q20.76875 269.4392 20.76875 270.54858ZM35.6125 272.90796L35.6125 274.26733L28.034374 274.26733Q28.01875 273.7517 28.20625 273.28296Q28.4875 272.51733 29.128124 271.76733Q29.76875 271.01733 30.971874 270.03296Q32.83125 268.5017 33.4875 267.61108Q34.14375 266.70483 34.14375 265.90796Q34.14375 265.07983 33.55 264.5017Q32.95625 263.92358 31.9875 263.92358Q30.971874 263.92358 30.3625 264.53296Q29.753124 265.14233 29.753124 266.22046L28.3 266.07983Q28.45625 264.45483 29.425 263.61108Q30.39375 262.76733 32.01875 262.76733Q33.675 262.76733 34.628124 263.6892Q35.596874 264.59546 35.596874 265.9392Q35.596874 266.6267 35.315624 267.29858Q35.034374 267.95483 34.378124 268.6892Q33.721874 269.42358 32.20625 270.70483Q30.940624 271.76733 30.58125 272.15796Q30.221874 272.53296 29.9875 272.90796L35.6125 272.90796ZM38.003124 274.26733L38.003124 272.65796L39.6125 272.65796L39.6125 274.26733L38.003124 274.26733ZM41.221874 271.26733L42.690624 271.14233Q42.8625 272.22046 43.45625 272.76733Q44.05 273.29858 44.89375 273.29858Q45.909374 273.29858 46.6125 272.53296Q47.315624 271.76733 47.315624 270.5017Q47.315624 269.29858 46.64375 268.61108Q45.971874 267.90796 44.878124 267.90796Q44.190624 267.90796 43.64375 268.22046Q43.096874 268.53296 42.784374 269.01733L41.471874 268.84546L42.58125 262.97046L48.26875 262.97046L48.26875 264.3142L43.70625 264.3142L43.08125 267.39233Q44.1125 266.67358 45.253124 266.67358Q46.753124 266.67358 47.784374 267.72046Q48.815624 268.7517 48.815624 270.3767Q48.815624 271.9392 47.909374 273.0642Q46.8 274.47046 44.89375 274.47046Q43.33125 274.47046 42.346874 273.59546Q41.3625 272.70483 41.221874 271.26733ZM50.4875 265.5642Q50.4875 264.32983 51.096874 263.47046Q51.721874 262.61108 52.89375 262.61108Q53.971874 262.61108 54.675 263.39233Q55.378124 264.15796 55.378124 265.64233Q55.378124 267.09546 54.659374 267.89233Q53.95625 268.67358 52.909374 268.67358Q51.8625 268.67358 51.175 267.90796Q50.4875 267.1267 50.4875 265.5642ZM52.925 263.57983Q52.409374 263.57983 52.05 264.03296Q51.70625 264.48608 51.70625 265.70483Q51.70625 266.79858 52.05 267.2517Q52.409374 267.70483 52.925 267.70483Q53.45625 267.70483 53.8 267.2517Q54.159374 266.79858 54.159374 265.59546Q54.159374 264.48608 53.8 264.03296Q53.45625 263.57983 52.925 263.57983ZM52.940624 274.6892L59.20625 262.61108L60.346874 262.61108L54.096874 274.6892L52.940624 274.6892ZM57.89375 271.57983Q57.89375 270.34546 58.503124 269.48608Q59.128124 268.6267 60.3 268.6267Q61.378124 268.6267 62.08125 269.40796Q62.8 270.17358 62.8 271.65796Q62.8 273.11108 62.08125 273.90796Q61.3625 274.6892 60.315624 274.6892Q59.26875 274.6892 58.58125 273.90796Q57.89375 273.1267 57.89375 271.57983ZM60.346874 269.59546Q59.815624 269.59546 59.45625 270.04858Q59.1125 270.5017 59.1125 271.72046Q59.1125 272.8142 59.45625 273.26733Q59.815624 273.72046 60.33125 273.72046Q60.878124 273.72046 61.221874 273.26733Q61.565624 272.8142 61.565624 271.61108Q61.565624 270.5017 61.20625 270.04858Q60.8625 269.59546 60.346874 269.59546Z" fill-rule="nonzero"/><path stroke="#757575" stroke-width="1.0" stroke-linecap="butt" d="M18.55 257.76733L145.23334 257.76733L169.42964 257.76733" fill-rule="nonzero"/><path fill="#9e9e9e" d="M171.42964 257.76733C171.42964 256.66278 170.53421 255.76735 169.42964 255.76735C168.32507 255.76735 167.42964 256.66278 167.42964 257.76733C167.42964 258.87192 168.32507 259.76733 169.42964 259.76733C170.53421 259.76733 171.42964 258.87192 171.42964 257.76733" fill-rule="nonzero"/><path fill="#efefef" d="M509.6375 69.916664L509.6375 58.46354L511.91876 58.46354L514.6375 66.572914Q515.0125 67.697914 515.1844 68.260414Q515.3719 67.635414 515.79376 66.43229L518.52814 58.46354L520.575 58.46354L520.575 69.916664L519.10626 69.916664L519.10626 60.322914L515.77814 69.916664L514.41876 69.916664L511.10626 60.166664L511.10626 69.916664L509.6375 69.916664ZM522.45 73.11979L522.29376 71.791664Q522.7469 71.916664 523.09064 71.916664Q523.5594 71.916664 523.84064 71.760414Q524.1219 71.604164 524.3094 71.322914Q524.4344 71.11979 524.73126 70.27604Q524.77814 70.166664 524.85626 69.93229L521.71564 61.61979L523.23126 61.61979L524.95 66.416664Q525.29376 67.33854 525.5594 68.33854Q525.79376 67.36979 526.1375 66.447914L527.90314 61.61979L529.3094 61.61979L526.15314 70.05729Q525.65314 71.43229 525.3719 71.947914Q524.9969 72.635414 524.5125 72.96354Q524.02814 73.291664 523.35626 73.291664Q522.95 73.291664 522.45 73.11979ZM533.575 68.65104L533.77814 69.90104Q533.1844 70.02604 532.71564 70.02604Q531.95 70.02604 531.52814 69.791664Q531.10626 69.541664 530.9344 69.15104Q530.7625 68.74479 530.7625 67.479164L530.7625 62.71354L529.73126 62.71354L529.73126 61.61979L530.7625 61.61979L530.7625 59.55729L532.16876 58.71354L532.16876 61.61979L533.575 61.61979L533.575 62.71354L532.16876 62.71354L532.16876 67.55729Q532.16876 68.166664 532.23126 68.33854Q532.3094 68.510414 532.48126 68.61979Q532.65314 68.71354 532.96564 68.71354Q533.2 68.71354 533.575 68.65104ZM534.5125 69.916664L534.5125 58.46354L535.91876 58.46354L535.91876 62.572914Q536.90314 61.43229 538.40314 61.43229Q539.325 61.43229 539.9969 61.791664Q540.6844 62.15104 540.96564 62.791664Q541.2625 63.43229 541.2625 64.65104L541.2625 69.916664L539.85626 69.916664L539.85626 64.65104Q539.85626 63.604164 539.40314 63.11979Q538.95 62.635414 538.10626 62.635414Q537.48126 62.635414 536.9344 62.96354Q536.3875 63.291664 536.15314 63.854164Q535.91876 64.40104 535.91876 65.36979L535.91876 69.916664L534.5125 69.916664ZM542.98126 65.760414Q542.98126 63.46354 544.2625 62.354164Q545.34064 61.43229 546.8719 61.43229Q548.59064 61.43229 549.66876 62.55729Q550.7625 63.666664 550.7625 65.65104Q550.7625 67.24479 550.27814 68.166664Q549.79376 69.08854 548.8719 69.604164Q547.96564 70.104164 546.8719 70.104164Q545.1375 70.104164 544.0594 68.99479Q542.98126 67.86979 542.98126 65.760414ZM544.4344 65.760414Q544.4344 67.354164 545.1219 68.15104Q545.825 68.947914 546.8719 68.947914Q547.91876 68.947914 548.60626 68.15104Q549.3094 67.354164 549.3094 65.71354Q549.3094 64.18229 548.60626 63.385414Q547.91876 62.58854 546.8719 62.58854Q545.825 62.58854 545.1219 63.385414Q544.4344 64.166664 544.4344 65.760414ZM552.48126 69.916664L552.48126 58.46354L553.8875 58.46354L553.8875 69.916664L552.48126 69.916664ZM555.98126 65.760414Q555.98126 63.46354 557.2625 62.354164Q558.34064 61.43229 559.8719 61.43229Q561.59064 61.43229 562.66876 62.55729Q563.7625 63.666664 563.7625 65.65104Q563.7625 67.24479 563.27814 68.166664Q562.79376 69.08854 561.8719 69.604164Q560.96564 70.104164 559.8719 70.104164Q558.1375 70.104164 557.0594 68.99479Q555.98126 67.86979 555.98126 65.760414ZM557.4344 65.760414Q557.4344 67.354164 558.1219 68.15104Q558.825 68.947914 559.8719 68.947914Q560.91876 68.947914 561.60626 68.15104Q562.3094 67.354164 562.3094 65.71354Q562.3094 64.18229 561.60626 63.385414Q560.91876 62.58854 559.8719 62.58854Q558.825 62.58854 558.1219 63.385414Q557.4344 64.166664 557.4344 65.760414ZM565.2469 70.604164L566.6219 70.80729Q566.7 71.447914 567.09064 71.729164Q567.6219 72.11979 568.52814 72.11979Q569.4969 72.11979 570.02814 71.729164Q570.5594 71.33854 570.7469 70.635414Q570.85626 70.21354 570.85626 68.822914Q569.9344 69.916664 568.5594 69.916664Q566.84064 69.916664 565.90314 68.68229Q564.96564 67.447914 564.96564 65.71354Q564.96564 64.52604 565.3875 63.52604Q565.825 62.52604 566.6375 61.979164Q567.46564 61.43229 568.5594 61.43229Q570.02814 61.43229 570.98126 62.61979L570.98126 61.61979L572.27814 61.61979L572.27814 68.791664Q572.27814 70.729164 571.8875 71.541664Q571.4969 72.354164 570.6375 72.822914Q569.77814 73.291664 568.52814 73.291664Q567.04376 73.291664 566.1219 72.61979Q565.21564 71.947914 565.2469 70.604164ZM566.41876 65.61979Q566.41876 67.24479 567.0594 67.99479Q567.71564 68.74479 568.6844 68.74479Q569.65314 68.74479 570.3094 68.010414Q570.96564 67.260414 570.96564 65.666664Q570.96564 64.135414 570.29376 63.36979Q569.6219 62.58854 568.66876 62.58854Q567.73126 62.58854 567.075 63.354164Q566.41876 64.11979 566.41876 65.61979ZM574.45 73.11979L574.29376 71.791664Q574.7469 71.916664 575.09064 71.916664Q575.5594 71.916664 575.84064 71.760414Q576.1219 71.604164 576.3094 71.322914Q576.4344 71.11979 576.73126 70.27604Q576.77814 70.166664 576.85626 69.93229L573.71564 61.61979L575.23126 61.61979L576.95 66.416664Q577.29376 67.33854 577.5594 68.33854Q577.79376 67.36979 578.1375 66.447914L579.90314 61.61979L581.3094 61.61979L578.15314 70.05729Q577.65314 71.43229 577.3719 71.947914Q576.9969 72.635414 576.5125 72.96354Q576.02814 73.291664 575.35626 73.291664Q574.95 73.291664 574.45 73.11979Z" fill-rule="nonzero"/><path fill="#9e9e9e" d="M542.41876 91.916664L541.0125 91.916664L541.0125 82.947914Q540.4969 83.43229 539.66876 83.916664Q538.85626 84.40104 538.2 84.65104L538.2 83.291664Q539.3719 82.729164 540.2469 81.947914Q541.1375 81.15104 541.5125 80.416664L542.41876 80.416664L542.41876 91.916664ZM553.5125 90.55729L553.5125 91.916664L545.9344 91.916664Q545.91876 91.40104 546.10626 90.93229Q546.3875 90.166664 547.02814 89.416664Q547.66876 88.666664 548.8719 87.68229Q550.73126 86.15104 551.3875 85.260414Q552.04376 84.354164 552.04376 83.55729Q552.04376 82.729164 551.45 82.15104Q550.85626 81.572914 549.8875 81.572914Q548.8719 81.572914 548.2625 82.18229Q547.65314 82.791664 547.65314 83.86979L546.2 83.729164Q546.35626 82.104164 547.325 81.260414Q548.29376 80.416664 549.91876 80.416664Q551.575 80.416664 552.52814 81.33854Q553.4969 82.24479 553.4969 83.58854Q553.4969 84.27604 553.21564 84.947914Q552.9344 85.604164 552.27814 86.33854Q551.6219 87.072914 550.10626 88.354164Q548.84064 89.416664 548.48126 89.80729Q548.1219 90.18229 547.8875 90.55729L553.5125 90.55729ZM555.90314 91.916664L555.90314 90.30729L557.5125 90.30729L557.5125 91.916664L555.90314 91.916664ZM559.1219 88.916664L560.59064 88.791664Q560.7625 89.86979 561.35626 90.416664Q561.95 90.947914 562.79376 90.947914Q563.8094 90.947914 564.5125 90.18229Q565.21564 89.416664 565.21564 88.15104Q565.21564 86.947914 564.54376 86.260414Q563.8719 85.55729 562.77814 85.55729Q562.09064 85.55729 561.54376 85.86979Q560.9969 86.18229 560.6844 86.666664L559.3719 86.49479L560.48126 80.61979L566.16876 80.61979L566.16876 81.96354L561.60626 81.96354L560.98126 85.041664Q562.0125 84.322914 563.15314 84.322914Q564.65314 84.322914 565.6844 85.36979Q566.71564 86.40104 566.71564 88.02604Q566.71564 89.58854 565.8094 90.71354Q564.7 92.11979 562.79376 92.11979Q561.23126 92.11979 560.2469 91.24479Q559.2625 90.354164 559.1219 88.916664ZM568.3875 83.21354Q568.3875 81.979164 568.9969 81.11979Q569.6219 80.260414 570.79376 80.260414Q571.8719 80.260414 572.575 81.041664Q573.27814 81.80729 573.27814 83.291664Q573.27814 84.74479 572.5594 85.541664Q571.85626 86.322914 570.8094 86.322914Q569.7625 86.322914 569.075 85.55729Q568.3875 84.77604 568.3875 83.21354ZM570.825 81.229164Q570.3094 81.229164 569.95 81.68229Q569.60626 82.135414 569.60626 83.354164Q569.60626 84.447914 569.95 84.90104Q570.3094 85.354164 570.825 85.354164Q571.35626 85.354164 571.7 84.90104Q572.0594 84.447914 572.0594 83.24479Q572.0594 82.135414 571.7 81.68229Q571.35626 81.229164 570.825 81.229164ZM570.84064 92.33854L577.10626 80.260414L578.2469 80.260414L571.9969 92.33854L570.84064 92.33854ZM575.79376 89.229164Q575.79376 87.99479 576.40314 87.135414Q577.02814 86.27604 578.2 86.27604Q579.27814 86.27604 579.98126 87.05729Q580.7 87.822914 580.7 89.30729Q580.7 90.760414 579.98126 91.55729Q579.2625 92.33854 578.21564 92.33854Q577.16876 92.33854 576.48126 91.55729Q575.79376 90.77604 575.79376 89.229164ZM578.2469 87.24479Q577.71564 87.24479 577.35626 87.697914Q577.0125 88.15104 577.0125 89.36979Q577.0125 90.46354 577.35626 90.916664Q577.71564 91.36979 578.23126 91.36979Q578.77814 91.36979 579.1219 90.916664Q579.46564 90.46354 579.46564 89.260414Q579.46564 88.15104 579.10626 87.697914Q578.7625 87.24479 578.2469 87.24479Z" fill-rule="nonzero"/><path stroke="#757575" stroke-width="1.0" stroke-linecap="butt" d="M581.45 75.416664L454.76666 75.416664L354.084 73.112976" fill-rule="nonzero"/><path fill="#9e9e9e" d="M356.084 73.112976C356.084 72.00841 355.18857 71.112976 354.084 71.112976C352.97943 71.112976 352.084 72.00841 352.084 73.112976C352.084 74.217545 352.97943 75.112976 354.084 75.112976C355.18857 75.112976 356.084 74.217545 356.084 73.112976" fill-rule="nonzero"/><path fill="#efefef" d="M495.85626 140.0837L497.3719 140.4587Q496.90314 142.3337 495.65314 143.31807Q494.41876 144.30244 492.6375 144.30244Q490.77814 144.30244 489.6219 143.55244Q488.46564 142.78682 487.85626 141.36494Q487.2469 139.92744 487.2469 138.28682Q487.2469 136.48994 487.9344 135.16182Q488.6219 133.8337 489.8719 133.1462Q491.1375 132.44307 492.65314 132.44307Q494.3719 132.44307 495.54376 133.31807Q496.71564 134.19307 497.1844 135.78682L495.6844 136.13057Q495.29376 134.88057 494.52814 134.31807Q493.77814 133.73994 492.6219 133.73994Q491.3094 133.73994 490.41876 134.38057Q489.52814 135.00557 489.16876 136.0837Q488.8094 137.1462 488.8094 138.2712Q488.8094 139.73994 489.23126 140.8337Q489.66876 141.91182 490.5594 142.4587Q491.46564 142.98994 492.5125 142.98994Q493.77814 142.98994 494.65314 142.25557Q495.54376 141.5212 495.85626 140.0837ZM504.95 144.09932L504.95 142.88057Q503.98126 144.28682 502.3094 144.28682Q501.575 144.28682 500.9344 144.00557Q500.3094 143.72432 499.9969 143.30244Q499.6844 142.86494 499.5594 142.25557Q499.48126 141.8337 499.48126 140.94307L499.48126 135.80244L500.8875 135.80244L500.8875 140.3962Q500.8875 141.50557 500.96564 141.88057Q501.10626 142.44307 501.52814 142.75557Q501.96564 143.06807 502.59064 143.06807Q503.23126 143.06807 503.77814 142.75557Q504.34064 142.42744 504.5594 141.86494Q504.79376 141.30244 504.79376 140.23994L504.79376 135.80244L506.2 135.80244L506.2 144.09932L504.95 144.09932ZM508.48126 144.09932L508.48126 132.6462L509.8875 132.6462L509.8875 144.09932L508.48126 144.09932ZM515.575 142.8337L515.77814 144.0837Q515.1844 144.2087 514.71564 144.2087Q513.95 144.2087 513.52814 143.97432Q513.10626 143.72432 512.9344 143.3337Q512.7625 142.92744 512.7625 141.66182L512.7625 136.8962L511.73126 136.8962L511.73126 135.80244L512.7625 135.80244L512.7625 133.73994L514.16876 132.8962L514.16876 135.80244L515.575 135.80244L515.575 136.8962L514.16876 136.8962L514.16876 141.73994Q514.16876 142.34932 514.23126 142.5212Q514.3094 142.69307 514.48126 142.80244Q514.65314 142.8962 514.96564 142.8962Q515.2 142.8962 515.575 142.8337ZM521.95 144.09932L521.95 142.88057Q520.98126 144.28682 519.3094 144.28682Q518.575 144.28682 517.9344 144.00557Q517.3094 143.72432 516.9969 143.30244Q516.6844 142.86494 516.5594 142.25557Q516.48126 141.8337 516.48126 140.94307L516.48126 135.80244L517.8875 135.80244L517.8875 140.3962Q517.8875 141.50557 517.96564 141.88057Q518.10626 142.44307 518.52814 142.75557Q518.96564 143.06807 519.59064 143.06807Q520.23126 143.06807 520.77814 142.75557Q521.34064 142.42744 521.5594 141.86494Q521.79376 141.30244 521.79376 140.23994L521.79376 135.80244L523.2 135.80244L523.2 144.09932L521.95 144.09932ZM525.4969 144.09932L525.4969 135.80244L526.7625 135.80244L526.7625 137.05244Q527.2469 136.17744 527.65314 135.8962Q528.0594 135.61494 528.5594 135.61494Q529.2625 135.61494 529.9969 136.06807L529.5125 137.36494Q528.9969 137.06807 528.48126 137.06807Q528.02814 137.06807 527.65314 137.34932Q527.29376 137.61494 527.1375 138.11494Q526.90314 138.86494 526.90314 139.75557L526.90314 144.09932L525.4969 144.09932ZM535.91876 143.06807Q535.1375 143.73994 534.41876 144.0212Q533.7 144.28682 532.8719 144.28682Q531.4969 144.28682 530.7625 143.61494Q530.02814 142.94307 530.02814 141.91182Q530.02814 141.30244 530.3094 140.80244Q530.59064 140.28682 531.02814 139.98994Q531.48126 139.67744 532.04376 139.5212Q532.46564 139.41182 533.29376 139.31807Q534.9969 139.11494 535.8094 138.8337Q535.8094 138.53682 535.8094 138.4587Q535.8094 137.59932 535.41876 137.25557Q534.8719 136.7712 533.8094 136.7712Q532.825 136.7712 532.34064 137.13057Q531.8719 137.47432 531.65314 138.34932L530.27814 138.16182Q530.46564 137.28682 530.8875 136.73994Q531.325 136.19307 532.1375 135.91182Q532.95 135.61494 534.0125 135.61494Q535.075 135.61494 535.73126 135.86494Q536.40314 136.11494 536.71564 136.48994Q537.02814 136.86494 537.15314 137.44307Q537.23126 137.80244 537.23126 138.73994L537.23126 140.61494Q537.23126 142.5837 537.3094 143.09932Q537.40314 143.61494 537.66876 144.09932L536.2 144.09932Q535.98126 143.66182 535.91876 143.06807ZM535.8094 139.92744Q535.04376 140.23994 533.5125 140.4587Q532.6375 140.5837 532.27814 140.73994Q531.91876 140.8962 531.71564 141.2087Q531.52814 141.50557 531.52814 141.86494Q531.52814 142.42744 531.95 142.80244Q532.3875 143.17744 533.2 143.17744Q534.0125 143.17744 534.6375 142.8337Q535.27814 142.47432 535.575 141.84932Q535.8094 141.38057 535.8094 140.44307L535.8094 139.92744ZM539.48126 144.09932L539.48126 132.6462L540.8875 132.6462L540.8875 144.09932L539.48126 144.09932ZM546.41876 144.09932L550.825 132.6462L552.46564 132.6462L557.15314 144.09932L555.41876 144.09932L554.09064 140.63057L549.29376 140.63057L548.04376 144.09932L546.41876 144.09932ZM549.73126 139.3962L553.6219 139.3962L552.41876 136.22432Q551.8719 134.7712 551.60626 133.84932Q551.3875 134.94307 550.9969 136.03682L549.73126 139.3962ZM563.91876 141.05244L565.3094 141.23994Q565.075 142.66182 564.1375 143.47432Q563.21564 144.28682 561.85626 144.28682Q560.15314 144.28682 559.10626 143.17744Q558.075 142.05244 558.075 139.97432Q558.075 138.63057 558.5125 137.63057Q558.96564 136.61494 559.8719 136.11494Q560.79376 135.61494 561.85626 135.61494Q563.21564 135.61494 564.075 136.30244Q564.9344 136.97432 565.16876 138.23994L563.8094 138.44307Q563.60626 137.61494 563.10626 137.19307Q562.6219 136.7712 561.91876 136.7712Q560.85626 136.7712 560.1844 137.53682Q559.52814 138.28682 559.52814 139.94307Q559.52814 141.61494 560.16876 142.38057Q560.8094 143.13057 561.84064 143.13057Q562.66876 143.13057 563.21564 142.63057Q563.77814 142.11494 563.91876 141.05244ZM569.575 142.8337L569.77814 144.0837Q569.1844 144.2087 568.71564 144.2087Q567.95 144.2087 567.52814 143.97432Q567.10626 143.72432 566.9344 143.3337Q566.7625 142.92744 566.7625 141.66182L566.7625 136.8962L565.73126 136.8962L565.73126 135.80244L566.7625 135.80244L566.7625 133.73994L568.16876 132.8962L568.16876 135.80244L569.575 135.80244L569.575 136.8962L568.16876 136.8962L568.16876 141.73994Q568.16876 142.34932 568.23126 142.5212Q568.3094 142.69307 568.48126 142.80244Q568.65314 142.8962 568.96564 142.8962Q569.2 142.8962 569.575 142.8337ZM569.95 141.61494L571.34064 141.3962Q571.45 142.23994 571.98126 142.69307Q572.52814 143.13057 573.48126 143.13057Q574.45 143.13057 574.91876 142.73994Q575.3875 142.3337 575.3875 141.80244Q575.3875 141.3337 574.98126 141.05244Q574.6844 140.86494 573.54376 140.5837Q571.9969 140.19307 571.3875 139.91182Q570.79376 139.61494 570.48126 139.11494Q570.1844 138.61494 570.1844 138.00557Q570.1844 137.44307 570.4344 136.97432Q570.6844 136.50557 571.1219 136.19307Q571.45 135.94307 572.0125 135.78682Q572.59064 135.61494 573.23126 135.61494Q574.21564 135.61494 574.95 135.8962Q575.6844 136.17744 576.02814 136.66182Q576.3875 137.13057 576.52814 137.94307L575.15314 138.13057Q575.0594 137.48994 574.60626 137.13057Q574.15314 136.7712 573.34064 136.7712Q572.3719 136.7712 571.95 137.09932Q571.54376 137.41182 571.54376 137.8337Q571.54376 138.11494 571.71564 138.3337Q571.8875 138.55244 572.2469 138.7087Q572.46564 138.78682 573.4969 139.06807Q574.98126 139.4587 575.575 139.72432Q576.16876 139.97432 576.4969 140.4587Q576.84064 140.94307 576.84064 141.66182Q576.84064 142.36494 576.41876 142.98994Q576.0125 143.59932 575.23126 143.94307Q574.46564 144.28682 573.4969 144.28682Q571.8719 144.28682 571.02814 143.61494Q570.1844 142.94307 569.95 141.61494ZM578.90314 144.09932L578.90314 142.48994L580.5125 142.48994L580.5125 144.09932L578.90314 144.09932Z" fill-rule="nonzero"/><path fill="#9e9e9e" d="M542.41876 166.09932L541.0125 166.09932L541.0125 157.13057Q540.4969 157.61494 539.66876 158.09932Q538.85626 158.5837 538.2 158.8337L538.2 157.47432Q539.3719 156.91182 540.2469 156.13057Q541.1375 155.3337 541.5125 154.59932L542.41876 154.59932L542.41876 166.09932ZM553.5125 164.73994L553.5125 166.09932L545.9344 166.09932Q545.91876 165.5837 546.10626 165.11494Q546.3875 164.34932 547.02814 163.59932Q547.66876 162.84932 548.8719 161.86494Q550.73126 160.3337 551.3875 159.44307Q552.04376 158.53682 552.04376 157.73994Q552.04376 156.91182 551.45 156.3337Q550.85626 155.75557 549.8875 155.75557Q548.8719 155.75557 548.2625 156.36494Q547.65314 156.97432 547.65314 158.05244L546.2 157.91182Q546.35626 156.28682 547.325 155.44307Q548.29376 154.59932 549.91876 154.59932Q551.575 154.59932 552.52814 155.5212Q553.4969 156.42744 553.4969 157.7712Q553.4969 158.4587 553.21564 159.13057Q552.9344 159.78682 552.27814 160.5212Q551.6219 161.25557 550.10626 162.53682Q548.84064 163.59932 548.48126 163.98994Q548.1219 164.36494 547.8875 164.73994L553.5125 164.73994ZM555.90314 166.09932L555.90314 164.48994L557.5125 164.48994L557.5125 166.09932L555.90314 166.09932ZM559.1219 163.09932L560.59064 162.97432Q560.7625 164.05244 561.35626 164.59932Q561.95 165.13057 562.79376 165.13057Q563.8094 165.13057 564.5125 164.36494Q565.21564 163.59932 565.21564 162.3337Q565.21564 161.13057 564.54376 160.44307Q563.8719 159.73994 562.77814 159.73994Q562.09064 159.73994 561.54376 160.05244Q560.9969 160.36494 560.6844 160.84932L559.3719 160.67744L560.48126 154.80244L566.16876 154.80244L566.16876 156.1462L561.60626 156.1462L560.98126 159.22432Q562.0125 158.50557 563.15314 158.50557Q564.65314 158.50557 565.6844 159.55244Q566.71564 160.5837 566.71564 162.2087Q566.71564 163.7712 565.8094 164.8962Q564.7 166.30244 562.79376 166.30244Q561.23126 166.30244 560.2469 165.42744Q559.2625 164.53682 559.1219 163.09932ZM568.3875 157.3962Q568.3875 156.16182 568.9969 155.30244Q569.6219 154.44307 570.79376 154.44307Q571.8719 154.44307 572.575 155.22432Q573.27814 155.98994 573.27814 157.47432Q573.27814 158.92744 572.5594 159.72432Q571.85626 160.50557 570.8094 160.50557Q569.7625 160.50557 569.075 159.73994Q568.3875 158.9587 568.3875 157.3962ZM570.825 155.41182Q570.3094 155.41182 569.95 155.86494Q569.60626 156.31807 569.60626 157.53682Q569.60626 158.63057 569.95 159.0837Q570.3094 159.53682 570.825 159.53682Q571.35626 159.53682 571.7 159.0837Q572.0594 158.63057 572.0594 157.42744Q572.0594 156.31807 571.7 155.86494Q571.35626 155.41182 570.825 155.41182ZM570.84064 166.5212L577.10626 154.44307L578.2469 154.44307L571.9969 166.5212L570.84064 166.5212ZM575.79376 163.41182Q575.79376 162.17744 576.40314 161.31807Q577.02814 160.4587 578.2 160.4587Q579.27814 160.4587 579.98126 161.23994Q580.7 162.00557 580.7 163.48994Q580.7 164.94307 579.98126 165.73994Q579.2625 166.5212 578.21564 166.5212Q577.16876 166.5212 576.48126 165.73994Q575.79376 164.9587 575.79376 163.41182ZM578.2469 161.42744Q577.71564 161.42744 577.35626 161.88057Q577.0125 162.3337 577.0125 163.55244Q577.0125 164.6462 577.35626 165.09932Q577.71564 165.55244 578.23126 165.55244Q578.77814 165.55244 579.1219 165.09932Q579.46564 164.6462 579.46564 163.44307Q579.46564 162.3337 579.10626 161.88057Q578.7625 161.42744 578.2469 161.42744Z" fill-rule="nonzero"/><path stroke="#757575" stroke-width="1.0" stroke-linecap="butt" d="M581.45 149.59932L454.76666 149.59932L430.57034 149.59932" fill-rule="nonzero"/><path fill="#9e9e9e" d="M432.57034 149.59932C432.57034 148.49475 431.67493 147.59932 430.57034 147.59932C429.4658 147.59932 428.57034 148.49475 428.57034 149.59932C428.57034 150.70389 429.4658 151.59932 430.57034 151.59932C431.67493 151.59932 432.57034 150.70389 432.57034 149.59932" fill-rule="nonzero"/><path fill="#efefef" d="M481.41876 252.26735L485.825 240.81422L487.46564 240.81422L492.15314 252.26735L490.41876 252.26735L489.09064 248.7986L484.29376 248.7986L483.04376 252.26735L481.41876 252.26735ZM484.73126 247.56422L488.6219 247.56422L487.41876 244.39235Q486.8719 242.93922 486.60626 242.01735Q486.3875 243.1111 485.9969 244.20485L484.73126 247.56422ZM493.4969 252.26735L493.4969 243.97047L494.7625 243.97047L494.7625 245.22047Q495.2469 244.34547 495.65314 244.06422Q496.0594 243.78297 496.5594 243.78297Q497.2625 243.78297 497.9969 244.2361L497.5125 245.53297Q496.9969 245.2361 496.48126 245.2361Q496.02814 245.2361 495.65314 245.51735Q495.29376 245.78297 495.1375 246.28297Q494.90314 247.03297 494.90314 247.9236L494.90314 252.26735L493.4969 252.26735ZM503.91876 249.22047L505.3094 249.40797Q505.075 250.82985 504.1375 251.64235Q503.21564 252.45485 501.85626 252.45485Q500.15314 252.45485 499.10626 251.34547Q498.075 250.22047 498.075 248.14235Q498.075 246.7986 498.5125 245.7986Q498.96564 244.78297 499.8719 244.28297Q500.79376 243.78297 501.85626 243.78297Q503.21564 243.78297 504.075 244.47047Q504.9344 245.14235 505.16876 246.40797L503.8094 246.6111Q503.60626 245.78297 503.10626 245.3611Q502.6219 244.93922 501.91876 244.93922Q500.85626 244.93922 500.1844 245.70485Q499.52814 246.45485 499.52814 248.1111Q499.52814 249.78297 500.16876 250.5486Q500.8094 251.2986 501.84064 251.2986Q502.66876 251.2986 503.21564 250.7986Q503.77814 250.28297 503.91876 249.22047ZM506.5125 252.26735L506.5125 240.81422L507.91876 240.81422L507.91876 244.9236Q508.90314 243.78297 510.40314 243.78297Q511.325 243.78297 511.9969 244.14235Q512.6844 244.50172 512.96564 245.14235Q513.2625 245.78297 513.2625 247.00172L513.2625 252.26735L511.85626 252.26735L511.85626 247.00172Q511.85626 245.95485 511.40314 245.47047Q510.95 244.9861 510.10626 244.9861Q509.48126 244.9861 508.9344 245.31422Q508.3875 245.64235 508.15314 246.20485Q507.91876 246.75172 507.91876 247.72047L507.91876 252.26735L506.5125 252.26735ZM515.5125 242.4236L515.5125 240.81422L516.91876 240.81422L516.91876 242.4236L515.5125 242.4236ZM515.5125 252.26735L515.5125 243.97047L516.91876 243.97047L516.91876 252.26735L515.5125 252.26735ZM522.575 251.00172L522.77814 252.25172Q522.1844 252.37672 521.71564 252.37672Q520.95 252.37672 520.52814 252.14235Q520.10626 251.89235 519.9344 251.50172Q519.7625 251.09547 519.7625 249.82985L519.7625 245.06422L518.73126 245.06422L518.73126 243.97047L519.7625 243.97047L519.7625 241.90797L521.16876 241.06422L521.16876 243.97047L522.575 243.97047L522.575 245.06422L521.16876 245.06422L521.16876 249.90797Q521.16876 250.51735 521.23126 250.68922Q521.3094 250.8611 521.48126 250.97047Q521.65314 251.06422 521.96564 251.06422Q522.2 251.06422 522.575 251.00172ZM529.1844 249.59547L530.6375 249.76735Q530.29376 251.0486 529.35626 251.75172Q528.4344 252.45485 526.9969 252.45485Q525.16876 252.45485 524.10626 251.32985Q523.04376 250.20485 523.04376 248.18922Q523.04376 246.09547 524.1219 244.93922Q525.2 243.78297 526.91876 243.78297Q528.575 243.78297 529.6219 244.9236Q530.6844 246.0486 530.6844 248.09547Q530.6844 248.22047 530.6844 248.47047L524.4969 248.47047Q524.575 249.84547 525.2625 250.57985Q525.96564 251.2986 526.9969 251.2986Q527.77814 251.2986 528.325 250.89235Q528.8719 250.4861 529.1844 249.59547ZM524.575 247.31422L529.2 247.31422Q529.10626 246.26735 528.66876 245.75172Q527.9969 244.93922 526.9344 244.93922Q525.96564 244.93922 525.29376 245.59547Q524.6375 246.2361 524.575 247.31422ZM537.91876 249.22047L539.3094 249.40797Q539.075 250.82985 538.1375 251.64235Q537.21564 252.45485 535.85626 252.45485Q534.15314 252.45485 533.10626 251.34547Q532.075 250.22047 532.075 248.14235Q532.075 246.7986 532.5125 245.7986Q532.96564 244.78297 533.8719 244.28297Q534.79376 243.78297 535.85626 243.78297Q537.21564 243.78297 538.075 244.47047Q538.9344 245.14235 539.16876 246.40797L537.8094 246.6111Q537.60626 245.78297 537.10626 245.3611Q536.6219 244.93922 535.91876 244.93922Q534.85626 244.93922 534.1844 245.70485Q533.52814 246.45485 533.52814 248.1111Q533.52814 249.78297 534.16876 250.5486Q534.8094 251.2986 535.84064 251.2986Q536.66876 251.2986 537.21564 250.7986Q537.77814 250.28297 537.91876 249.22047ZM543.575 251.00172L543.77814 252.25172Q543.1844 252.37672 542.71564 252.37672Q541.95 252.37672 541.52814 252.14235Q541.10626 251.89235 540.9344 251.50172Q540.7625 251.09547 540.7625 249.82985L540.7625 245.06422L539.73126 245.06422L539.73126 243.97047L540.7625 243.97047L540.7625 241.90797L542.16876 241.06422L542.16876 243.97047L543.575 243.97047L543.575 245.06422L542.16876 245.06422L542.16876 249.90797Q542.16876 250.51735 542.23126 250.68922Q542.3094 250.8611 542.48126 250.97047Q542.65314 251.06422 542.96564 251.06422Q543.2 251.06422 543.575 251.00172ZM549.95 252.26735L549.95 251.0486Q548.98126 252.45485 547.3094 252.45485Q546.575 252.45485 545.9344 252.1736Q545.3094 251.89235 544.9969 251.47047Q544.6844 251.03297 544.5594 250.4236Q544.48126 250.00172 544.48126 249.1111L544.48126 243.97047L545.8875 243.97047L545.8875 248.56422Q545.8875 249.6736 545.96564 250.0486Q546.10626 250.6111 546.52814 250.9236Q546.96564 251.2361 547.59064 251.2361Q548.23126 251.2361 548.77814 250.9236Q549.34064 250.59547 549.5594 250.03297Q549.79376 249.47047 549.79376 248.40797L549.79376 243.97047L551.2 243.97047L551.2 252.26735L549.95 252.26735ZM553.4969 252.26735L553.4969 243.97047L554.7625 243.97047L554.7625 245.22047Q555.2469 244.34547 555.65314 244.06422Q556.0594 243.78297 556.5594 243.78297Q557.2625 243.78297 557.9969 244.2361L557.5125 245.53297Q556.9969 245.2361 556.48126 245.2361Q556.02814 245.2361 555.65314 245.51735Q555.29376 245.78297 555.1375 246.28297Q554.90314 247.03297 554.90314 247.9236L554.90314 252.26735L553.4969 252.26735ZM564.1844 249.59547L565.6375 249.76735Q565.29376 251.0486 564.35626 251.75172Q563.4344 252.45485 561.9969 252.45485Q560.16876 252.45485 559.10626 251.32985Q558.04376 250.20485 558.04376 248.18922Q558.04376 246.09547 559.1219 244.93922Q560.2 243.78297 561.91876 243.78297Q563.575 243.78297 564.6219 244.9236Q565.6844 246.0486 565.6844 248.09547Q565.6844 248.22047 565.6844 248.47047L559.4969 248.47047Q559.575 249.84547 560.2625 250.57985Q560.96564 251.2986 561.9969 251.2986Q562.77814 251.2986 563.325 250.89235Q563.8719 250.4861 564.1844 249.59547ZM559.575 247.31422L564.2 247.31422Q564.10626 246.26735 563.66876 245.75172Q562.9969 244.93922 561.9344 244.93922Q560.96564 244.93922 560.29376 245.59547Q559.6375 246.2361 559.575 247.31422ZM578.0594 250.90797Q577.35626 251.68922 576.52814 252.07985Q575.71564 252.47047 574.7625 252.47047Q573.0125 252.47047 571.98126 251.26735Q571.1375 250.2986 571.1375 249.1111Q571.1375 248.0486 571.825 247.18922Q572.5125 246.32985 573.8719 245.68922Q573.09064 244.7986 572.825 244.25172Q572.575 243.68922 572.575 243.1736Q572.575 242.14235 573.3875 241.37672Q574.2 240.6111 575.41876 240.6111Q576.59064 240.6111 577.34064 241.32985Q578.09064 242.0486 578.09064 243.06422Q578.09064 244.68922 575.91876 245.84547L577.98126 248.47047Q578.325 247.78297 578.52814 246.87672L579.98126 247.18922Q579.60626 248.68922 578.96564 249.65797Q579.7625 250.70485 580.7625 251.40797L579.8094 252.53297Q578.96564 251.9861 578.0594 250.90797ZM575.2 244.93922Q576.10626 244.40797 576.3719 244.00172Q576.65314 243.59547 576.65314 243.09547Q576.65314 242.51735 576.27814 242.14235Q575.90314 241.76735 575.35626 241.76735Q574.77814 241.76735 574.40314 242.14235Q574.02814 242.50172 574.02814 243.03297Q574.02814 243.2986 574.15314 243.59547Q574.29376 243.89235 574.575 244.22047L575.2 244.93922ZM577.16876 249.7986L574.59064 246.6111Q573.45 247.28297 573.04376 247.87672Q572.65314 248.45485 572.65314 249.01735Q572.65314 249.72047 573.2 250.47047Q573.7625 251.22047 574.77814 251.22047Q575.41876 251.22047 576.09064 250.82985Q576.7625 250.4236 577.16876 249.7986Z" fill-rule="nonzero"/><path fill="#9e9e9e" d="M542.41876 274.26733L541.0125 274.26733L541.0125 265.29858Q540.4969 265.78296 539.66876 266.26733Q538.85626 266.7517 538.2 267.0017L538.2 265.64233Q539.3719 265.07983 540.2469 264.29858Q541.1375 263.5017 541.5125 262.76733L542.41876 262.76733L542.41876 274.26733ZM553.5125 272.90796L553.5125 274.26733L545.9344 274.26733Q545.91876 273.7517 546.10626 273.28296Q546.3875 272.51733 547.02814 271.76733Q547.66876 271.01733 548.8719 270.03296Q550.73126 268.5017 551.3875 267.61108Q552.04376 266.70483 552.04376 265.90796Q552.04376 265.07983 551.45 264.5017Q550.85626 263.92358 549.8875 263.92358Q548.8719 263.92358 548.2625 264.53296Q547.65314 265.14233 547.65314 266.22046L546.2 266.07983Q546.35626 264.45483 547.325 263.61108Q548.29376 262.76733 549.91876 262.76733Q551.575 262.76733 552.52814 263.6892Q553.4969 264.59546 553.4969 265.9392Q553.4969 266.6267 553.21564 267.29858Q552.9344 267.95483 552.27814 268.6892Q551.6219 269.42358 550.10626 270.70483Q548.84064 271.76733 548.48126 272.15796Q548.1219 272.53296 547.8875 272.90796L553.5125 272.90796ZM555.90314 274.26733L555.90314 272.65796L557.5125 272.65796L557.5125 274.26733L555.90314 274.26733ZM559.1219 271.26733L560.59064 271.14233Q560.7625 272.22046 561.35626 272.76733Q561.95 273.29858 562.79376 273.29858Q563.8094 273.29858 564.5125 272.53296Q565.21564 271.76733 565.21564 270.5017Q565.21564 269.29858 564.54376 268.61108Q563.8719 267.90796 562.77814 267.90796Q562.09064 267.90796 561.54376 268.22046Q560.9969 268.53296 560.6844 269.01733L559.3719 268.84546L560.48126 262.97046L566.16876 262.97046L566.16876 264.3142L561.60626 264.3142L560.98126 267.39233Q562.0125 266.67358 563.15314 266.67358Q564.65314 266.67358 565.6844 267.72046Q566.71564 268.7517 566.71564 270.3767Q566.71564 271.9392 565.8094 273.0642Q564.7 274.47046 562.79376 274.47046Q561.23126 274.47046 560.2469 273.59546Q559.2625 272.70483 559.1219 271.26733ZM568.3875 265.5642Q568.3875 264.32983 568.9969 263.47046Q569.6219 262.61108 570.79376 262.61108Q571.8719 262.61108 572.575 263.39233Q573.27814 264.15796 573.27814 265.64233Q573.27814 267.09546 572.5594 267.89233Q571.85626 268.67358 570.8094 268.67358Q569.7625 268.67358 569.075 267.90796Q568.3875 267.1267 568.3875 265.5642ZM570.825 263.57983Q570.3094 263.57983 569.95 264.03296Q569.60626 264.48608 569.60626 265.70483Q569.60626 266.79858 569.95 267.2517Q570.3094 267.70483 570.825 267.70483Q571.35626 267.70483 571.7 267.2517Q572.0594 266.79858 572.0594 265.59546Q572.0594 264.48608 571.7 264.03296Q571.35626 263.57983 570.825 263.57983ZM570.84064 274.6892L577.10626 262.61108L578.2469 262.61108L571.9969 274.6892L570.84064 274.6892ZM575.79376 271.57983Q575.79376 270.34546 576.40314 269.48608Q577.02814 268.6267 578.2 268.6267Q579.27814 268.6267 579.98126 269.40796Q580.7 270.17358 580.7 271.65796Q580.7 273.11108 579.98126 273.90796Q579.2625 274.6892 578.21564 274.6892Q577.16876 274.6892 576.48126 273.90796Q575.79376 273.1267 575.79376 271.57983ZM578.2469 269.59546Q577.71564 269.59546 577.35626 270.04858Q577.0125 270.5017 577.0125 271.72046Q577.0125 272.8142 577.35626 273.26733Q577.71564 273.72046 578.23126 273.72046Q578.77814 273.72046 579.1219 273.26733Q579.46564 272.8142 579.46564 271.61108Q579.46564 270.5017 579.10626 270.04858Q578.7625 269.59546 578.2469 269.59546Z" fill-rule="nonzero"/><path stroke="#757575" stroke-width="1.0" stroke-linecap="butt" d="M581.45 257.76733L454.76666 257.76733L430.57034 257.76733" fill-rule="nonzero"/><path fill="#9e9e9e" d="M432.57034 257.76733C432.57034 256.66278 431.67493 255.76735 430.57034 255.76735C429.4658 255.76735 428.57034 256.66278 428.57034 257.76733C428.57034 258.87192 429.4658 259.76733 430.57034 259.76733C431.67493 259.76733 432.57034 258.87192 432.57034 257.76733" fill-rule="nonzero"/><path fill="#f3f3f3" d="M271.26562 32.534374L273.15625 33.003124Q272.5625 35.346874 271.01562 36.58125Q269.46875 37.8 267.21875 37.8Q264.90625 37.8 263.45312 36.8625Q262.01562 35.909374 261.25 34.128124Q260.5 32.33125 260.5 30.284374Q260.5 28.05 261.34375 26.39375Q262.20312 24.721874 263.78125 23.8625Q265.35938 22.9875 267.25 22.9875Q269.40625 22.9875 270.85938 24.08125Q272.32812 25.175 272.90625 27.159374L271.04688 27.596874Q270.54688 26.034374 269.59375 25.33125Q268.65625 24.6125 267.21875 24.6125Q265.5625 24.6125 264.45312 25.409374Q263.34375 26.190624 262.89062 27.534374Q262.45312 28.8625 262.45312 30.26875Q262.45312 32.096874 262.98438 33.471874Q263.51562 34.83125 264.64062 35.503124Q265.76562 36.175 267.0625 36.175Q268.65625 36.175 269.76562 35.253124Q270.875 34.33125 271.26562 32.534374ZM281.59375 36.26875Q280.60938 37.096874 279.70312 37.440624Q278.79688 37.784374 277.76562 37.784374Q276.0625 37.784374 275.14062 36.95625Q274.21875 36.1125 274.21875 34.815624Q274.21875 34.05 274.5625 33.425Q274.92188 32.8 275.48438 32.425Q276.04688 32.034374 276.75 31.83125Q277.26562 31.70625 278.3125 31.565624Q280.4375 31.315624 281.4375 30.971874Q281.45312 30.6125 281.45312 30.503124Q281.45312 29.440624 280.95312 28.9875Q280.28125 28.39375 278.95312 28.39375Q277.70312 28.39375 277.10938 28.83125Q276.53125 29.26875 276.25 30.378124L274.53125 30.14375Q274.76562 29.034374 275.29688 28.3625Q275.82812 27.675 276.84375 27.315624Q277.85938 26.940624 279.20312 26.940624Q280.53125 26.940624 281.35938 27.253124Q282.1875 27.565624 282.57812 28.05Q282.96875 28.51875 283.125 29.2375Q283.21875 29.690624 283.21875 30.8625L283.21875 33.20625Q283.21875 35.659374 283.32812 36.315624Q283.4375 36.95625 283.78125 37.55L281.9375 37.55Q281.67188 37.003124 281.59375 36.26875ZM281.4375 32.346874Q280.48438 32.7375 278.5625 33.003124Q277.48438 33.159374 277.03125 33.3625Q276.59375 33.55 276.34375 33.925Q276.09375 34.3 276.09375 34.76875Q276.09375 35.471874 276.625 35.940624Q277.15625 36.409374 278.1875 36.409374Q279.20312 36.409374 279.98438 35.971874Q280.78125 35.51875 281.15625 34.753124Q281.4375 34.14375 281.4375 32.9875L281.4375 32.346874ZM289.65625 35.971874L289.90625 37.534374Q289.17188 37.690624 288.57812 37.690624Q287.625 37.690624 287.09375 37.39375Q286.57812 37.08125 286.35938 36.596874Q286.14062 36.096874 286.14062 34.51875L286.14062 28.55L284.85938 28.55L284.85938 27.175L286.14062 27.175L286.14062 24.6125L287.89062 23.55L287.89062 27.175L289.65625 27.175L289.65625 28.55L287.89062 28.55L287.89062 34.6125Q287.89062 35.3625 287.98438 35.58125Q288.07812 35.784374 288.28125 35.925Q288.5 36.05 288.89062 36.05Q289.17188 36.05 289.65625 35.971874ZM298.92188 34.20625L300.73438 34.440624Q300.3125 36.01875 299.14062 36.909374Q297.98438 37.784374 296.17188 37.784374Q293.90625 37.784374 292.5625 36.39375Q291.23438 34.9875 291.23438 32.45625Q291.23438 29.83125 292.57812 28.39375Q293.92188 26.940624 296.07812 26.940624Q298.15625 26.940624 299.46875 28.3625Q300.79688 29.76875 300.79688 32.346874Q300.79688 32.503124 300.78125 32.815624L293.04688 32.815624Q293.14062 34.51875 294.01562 35.425Q294.89062 36.33125 296.1875 36.33125Q297.15625 36.33125 297.82812 35.83125Q298.51562 35.315624 298.92188 34.20625ZM293.14062 31.3625L298.9375 31.3625Q298.82812 30.065624 298.28125 29.409374Q297.4375 28.39375 296.09375 28.39375Q294.89062 28.39375 294.0625 29.20625Q293.23438 30.003124 293.14062 31.3625ZM302.5 38.409374L304.20312 38.659374Q304.3125 39.45625 304.79688 39.815624Q305.45312 40.3 306.59375 40.3Q307.8125 40.3 308.46875 39.815624Q309.14062 39.33125 309.375 38.45625Q309.51562 37.909374 309.5 36.190624Q308.34375 37.55 306.625 37.55Q304.48438 37.55 303.3125 36.003124Q302.14062 34.45625 302.14062 32.3Q302.14062 30.815624 302.67188 29.565624Q303.21875 28.315624 304.23438 27.628124Q305.26562 26.940624 306.64062 26.940624Q308.46875 26.940624 309.67188 28.425L309.67188 27.175L311.28125 27.175L311.28125 36.14375Q311.28125 38.565624 310.78125 39.565624Q310.29688 40.58125 309.21875 41.159374Q308.15625 41.753124 306.59375 41.753124Q304.75 41.753124 303.59375 40.925Q302.45312 40.096874 302.5 38.409374ZM303.95312 32.175Q303.95312 34.221874 304.76562 35.159374Q305.57812 36.096874 306.79688 36.096874Q308.0 36.096874 308.8125 35.159374Q309.64062 34.221874 309.64062 32.2375Q309.64062 30.33125 308.79688 29.3625Q307.95312 28.39375 306.76562 28.39375Q305.59375 28.39375 304.76562 29.346874Q303.95312 30.3 303.95312 32.175ZM313.17188 32.3625Q313.17188 29.4875 314.76562 28.096874Q316.10938 26.940624 318.03125 26.940624Q320.17188 26.940624 321.51562 28.346874Q322.875 29.753124 322.875 32.221874Q322.875 34.221874 322.28125 35.378124Q321.6875 36.51875 320.53125 37.159374Q319.39062 37.784374 318.03125 37.784374Q315.84375 37.784374 314.5 36.39375Q313.17188 34.9875 313.17188 32.3625ZM314.96875 32.3625Q314.96875 34.3625 315.82812 35.346874Q316.70312 36.33125 318.03125 36.33125Q319.34375 36.33125 320.20312 35.346874Q321.07812 34.346874 321.07812 32.3Q321.07812 30.378124 320.20312 29.39375Q319.32812 28.39375 318.03125 28.39375Q316.70312 28.39375 315.82812 29.39375Q314.96875 30.378124 314.96875 32.3625ZM324.79688 37.55L324.79688 27.175L326.375 27.175L326.375 28.753124Q326.98438 27.64375 327.5 27.3Q328.01562 26.940624 328.625 26.940624Q329.51562 26.940624 330.4375 27.503124L329.82812 29.14375Q329.1875 28.753124 328.54688 28.753124Q327.96875 28.753124 327.5 29.1125Q327.04688 29.45625 326.84375 30.065624Q326.5625 31.003124 326.5625 32.1125L326.5625 37.55L324.79688 37.55ZM331.73438 41.55L331.54688 39.89375Q332.125 40.05 332.54688 40.05Q333.14062 40.05 333.48438 39.846874Q333.84375 39.659374 334.0625 39.315624Q334.23438 39.05 334.60938 38.003124Q334.65625 37.846874 334.76562 37.565624L330.82812 27.175L332.71875 27.175L334.875 33.190624Q335.29688 34.33125 335.625 35.58125Q335.9375 34.378124 336.34375 33.221874L338.5625 27.175L340.32812 27.175L336.375 37.721874Q335.75 39.440624 335.39062 40.08125Q334.92188 40.95625 334.3125 41.346874Q333.71875 41.753124 332.875 41.753124Q332.35938 41.753124 331.73438 41.55Z" fill-rule="nonzero"/></svg>