<svg version="1.1" viewBox="0.0 0.0 600.0 371.0" fill="none" stroke="none" stroke-linecap="square" stroke-miterlimit="10" width="600" height="371" xmlns:xlink="http://www.w3.org/1999/xlink" xmlns="http://www.w3.org/2000/svg"><path fill="#ffffff" fill-opacity="0.0" d="M0 0L600.0 0L600.0 371.0L0 371.0L0 0Z" fill-rule="nonzero"/><path fill="#313d89" d="M300.0 54.916668C345.27335 54.916668 388.08298 75.53269 416.31046 110.92883L329.0776 180.4947C322.02075 171.64568 311.31833 166.49167 300.0 166.49167Z" fill-rule="nonzero"/><path fill="#cf4366" d="M183.68953 110.92883C211.91702 75.53269 254.72664 54.916668 300.0 54.916668L300.0 166.49167C288.68167 166.49167 277.97925 171.64568 270.9224 180.4947Z" fill-rule="nonzero"/><path fill="#b5428d" d="M416.31046 110.92883C464.84842 171.79349 458.25424 259.78638 401.18704 312.73703C344.1198 365.68765 255.88019 365.68765 198.81297 312.73703C141.74574 259.78638 135.1516 171.79349 183.68953 110.92883L270.9224 180.4947C258.7879 195.71088 260.43643 217.70909 274.70325 230.94675C288.97006 244.18442 311.02994 244.18442 325.29675 230.94675C339.56357 217.70909 341.2121 195.71088 329.0776 180.4947Z" fill-rule="nonzero"/><path fill="#ffffff" d="M327.28397 114.495476L325.70584 114.495476L325.70584 104.41735Q325.12772 104.964226 324.20584 105.5111Q323.28397 106.04235 322.53397 106.3236L322.53397 104.79235Q323.8621 104.16735 324.8621 103.276726Q325.8621 102.3861 326.26834 101.557976L327.28397 101.557976L327.28397 114.495476ZM336.39334 114.495476L336.39334 111.41735L330.81522 111.41735L330.81522 109.964226L336.69022 101.60485L337.9871 101.60485L337.9871 109.964226L339.72147 109.964226L339.72147 111.41735L337.9871 111.41735L337.9871 114.495476L336.39334 114.495476ZM336.39334 109.964226L336.39334 104.151726L332.3621 109.964226L336.39334 109.964226ZM342.22147 114.495476L342.22147 112.6986L344.01834 112.6986L344.01834 114.495476L342.22147 114.495476ZM346.33084 111.089226L347.9246 110.8861Q348.19022 112.22985 348.84647 112.8236Q349.50272 113.41735 350.44022 113.41735Q351.56522 113.41735 352.33084 112.651726Q353.09647 111.870476 353.09647 110.72985Q353.09647 109.6361 352.37772 108.932976Q351.6746 108.214226 350.58084 108.214226Q350.12772 108.214226 349.45584 108.401726L349.62772 107.0111Q349.78397 107.026726 349.89334 107.026726Q350.89334 107.026726 351.70584 106.495476Q352.51834 105.964226 352.51834 104.870476Q352.51834 103.995476 351.9246 103.432976Q351.33084 102.85485 350.40897 102.85485Q349.4871 102.85485 348.8621 103.432976Q348.25272 104.0111 348.08084 105.182976L346.50272 104.901726Q346.78397 103.307976 347.81522 102.432976Q348.84647 101.557976 350.37772 101.557976Q351.4246 101.557976 352.31522 102.0111Q353.20584 102.464226 353.6746 103.245476Q354.14334 104.026726 354.14334 104.901726Q354.14334 105.745476 353.69022 106.432976Q353.25272 107.10485 352.3621 107.5111Q353.50272 107.776726 354.12772 108.620476Q354.76834 109.4486 354.76834 110.682976Q354.76834 112.370476 353.53397 113.557976Q352.31522 114.72985 350.44022 114.72985Q348.7371 114.72985 347.6121 113.714226Q346.50272 112.6986 346.33084 111.089226ZM356.62772 104.6986Q356.62772 103.3236 357.31522 102.35485Q358.01834 101.3861 359.33084 101.3861Q360.5496 101.3861 361.34647 102.2611Q362.14334 103.120476 362.14334 104.807976Q362.14334 106.432976 361.33084 107.3236Q360.53397 108.1986 359.34647 108.1986Q358.19022 108.1986 357.40897 107.339226Q356.62772 106.464226 356.62772 104.6986ZM359.37772 102.47985Q358.78397 102.47985 358.39334 102.995476Q358.00272 103.495476 358.00272 104.85485Q358.00272 106.10485 358.39334 106.60485Q358.7996 107.10485 359.37772 107.10485Q359.97147 107.10485 360.3621 106.60485Q360.75272 106.089226 360.75272 104.745476Q360.75272 103.495476 360.3621 102.995476Q359.97147 102.47985 359.37772 102.47985ZM359.39334 114.964226L366.44022 101.3861L367.72147 101.3861L360.69022 114.964226L359.39334 114.964226ZM364.95584 111.464226Q364.95584 110.089226 365.64334 109.120476Q366.34647 108.151726 367.6746 108.151726Q368.89334 108.151726 369.6746 109.026726Q370.47147 109.8861 370.47147 111.5736Q370.47147 113.1986 369.6746 114.089226Q368.87772 114.964226 367.69022 114.964226Q366.51834 114.964226 365.7371 114.089226Q364.95584 113.214226 364.95584 111.464226ZM367.72147 109.245476Q367.12772 109.245476 366.7371 109.7611Q366.34647 110.2611 366.34647 111.6361Q366.34647 112.85485 366.7371 113.370476Q367.12772 113.8861 367.70584 113.8861Q368.31522 113.8861 368.70584 113.370476Q369.09647 112.85485 369.09647 111.5111Q369.09647 110.2611 368.70584 109.7611Q368.31522 109.245476 367.72147 109.245476Z" fill-rule="nonzero"/><path fill="#ffffff" d="M275.35938 316.7861L275.35938 315.27048L283.6875 315.27048L283.6875 316.50485Q282.46875 317.81735 281.25 319.98923Q280.04688 322.14548 279.39062 324.44235Q278.90625 326.06735 278.78125 327.98923L277.15625 327.98923Q277.1875 326.4736 277.75 324.31735Q278.32812 322.1611 279.39062 320.1611Q280.45312 318.1611 281.65625 316.7861L275.35938 316.7861ZM291.20312 327.98923L289.625 327.98923L289.625 317.9111Q289.04688 318.45798 288.125 319.00485Q287.20312 319.5361 286.45312 319.81735L286.45312 318.2861Q287.78125 317.6611 288.78125 316.77048Q289.78125 315.87985 290.1875 315.05173L291.20312 315.05173L291.20312 327.98923ZM296.14062 327.98923L296.14062 326.19235L297.9375 326.19235L297.9375 327.98923L296.14062 327.98923ZM305.3125 327.98923L305.3125 324.9111L299.73438 324.9111L299.73438 323.45798L305.60938 315.0986L306.90625 315.0986L306.90625 323.45798L308.64062 323.45798L308.64062 324.9111L306.90625 324.9111L306.90625 327.98923L305.3125 327.98923ZM305.3125 323.45798L305.3125 317.64548L301.28125 323.45798L305.3125 323.45798ZM310.54688 318.19235Q310.54688 316.81735 311.23438 315.8486Q311.9375 314.87985 313.25 314.87985Q314.46875 314.87985 315.26562 315.75485Q316.0625 316.61423 316.0625 318.30173Q316.0625 319.92673 315.25 320.81735Q314.45312 321.69235 313.26562 321.69235Q312.10938 321.69235 311.32812 320.83298Q310.54688 319.95798 310.54688 318.19235ZM313.29688 315.9736Q312.70312 315.9736 312.3125 316.48923Q311.92188 316.98923 311.92188 318.3486Q311.92188 319.5986 312.3125 320.0986Q312.71875 320.5986 313.29688 320.5986Q313.89062 320.5986 314.28125 320.0986Q314.67188 319.58298 314.67188 318.23923Q314.67188 316.98923 314.28125 316.48923Q313.89062 315.9736 313.29688 315.9736ZM313.3125 328.45798L320.35938 314.87985L321.64062 314.87985L314.60938 328.45798L313.3125 328.45798ZM318.875 324.95798Q318.875 323.58298 319.5625 322.61423Q320.26562 321.64548 321.59375 321.64548Q322.8125 321.64548 323.59375 322.52048Q324.39062 323.37985 324.39062 325.06735Q324.39062 326.69235 323.59375 327.58298Q322.79688 328.45798 321.60938 328.45798Q320.4375 328.45798 319.65625 327.58298Q318.875 326.70798 318.875 324.95798ZM321.64062 322.73923Q321.04688 322.73923 320.65625 323.25485Q320.26562 323.75485 320.26562 325.12985Q320.26562 326.3486 320.65625 326.86423Q321.04688 327.37985 321.625 327.37985Q322.23438 327.37985 322.625 326.86423Q323.01562 326.3486 323.01562 325.00485Q323.01562 323.75485 322.625 323.25485Q322.23438 322.73923 321.64062 322.73923Z" fill-rule="nonzero"/><path fill="#ffffff" d="M235.12228 114.495476L233.54416 114.495476L233.54416 104.41735Q232.96603 104.964226 232.04416 105.5111Q231.12228 106.04235 230.37228 106.3236L230.37228 104.79235Q231.70041 104.16735 232.70041 103.276726Q233.70041 102.3861 234.10666 101.557976L235.12228 101.557976L235.12228 114.495476ZM244.23166 114.495476L244.23166 111.41735L238.65353 111.41735L238.65353 109.964226L244.52853 101.60485L245.82541 101.60485L245.82541 109.964226L247.55978 109.964226L247.55978 111.41735L245.82541 111.41735L245.82541 114.495476L244.23166 114.495476ZM244.23166 109.964226L244.23166 104.151726L240.20041 109.964226L244.23166 109.964226ZM250.05978 114.495476L250.05978 112.6986L251.85666 112.6986L251.85666 114.495476L250.05978 114.495476ZM254.16916 111.089226L255.76291 110.8861Q256.02853 112.22985 256.68478 112.8236Q257.34103 113.41735 258.27853 113.41735Q259.40353 113.41735 260.16916 112.651726Q260.93478 111.870476 260.93478 110.72985Q260.93478 109.6361 260.21603 108.932976Q259.5129 108.214226 258.41916 108.214226Q257.96603 108.214226 257.29416 108.401726L257.46603 107.0111Q257.62228 107.026726 257.73166 107.026726Q258.73166 107.026726 259.54416 106.495476Q260.35666 105.964226 260.35666 104.870476Q260.35666 103.995476 259.7629 103.432976Q259.16916 102.85485 258.24728 102.85485Q257.3254 102.85485 256.7004 103.432976Q256.09103 104.0111 255.91916 105.182976L254.34103 104.901726Q254.62228 103.307976 255.65353 102.432976Q256.68478 101.557976 258.21603 101.557976Q259.2629 101.557976 260.15353 102.0111Q261.04416 102.464226 261.5129 103.245476Q261.98166 104.026726 261.98166 104.901726Q261.98166 105.745476 261.52853 106.432976Q261.09103 107.10485 260.2004 107.5111Q261.34103 107.776726 261.96603 108.620476Q262.60666 109.4486 262.60666 110.682976Q262.60666 112.370476 261.37228 113.557976Q260.15353 114.72985 258.27853 114.72985Q256.5754 114.72985 255.45041 113.714226Q254.34103 112.6986 254.16916 111.089226ZM264.46603 104.6986Q264.46603 103.3236 265.15353 102.35485Q265.85666 101.3861 267.16916 101.3861Q268.3879 101.3861 269.18478 102.2611Q269.98166 103.120476 269.98166 104.807976Q269.98166 106.432976 269.16916 107.3236Q268.37228 108.1986 267.18478 108.1986Q266.02853 108.1986 265.24728 107.339226Q264.46603 106.464226 264.46603 104.6986ZM267.21603 102.47985Q266.62228 102.47985 266.23166 102.995476Q265.84103 103.495476 265.84103 104.85485Q265.84103 106.10485 266.23166 106.60485Q266.6379 107.10485 267.21603 107.10485Q267.80978 107.10485 268.2004 106.60485Q268.59103 106.089226 268.59103 104.745476Q268.59103 103.495476 268.2004 102.995476Q267.80978 102.47985 267.21603 102.47985ZM267.23166 114.964226L274.27853 101.3861L275.55978 101.3861L268.52853 114.964226L267.23166 114.964226ZM272.79416 111.464226Q272.79416 110.089226 273.48166 109.120476Q274.18478 108.151726 275.5129 108.151726Q276.73166 108.151726 277.5129 109.026726Q278.30978 109.8861 278.30978 111.5736Q278.30978 113.1986 277.5129 114.089226Q276.71603 114.964226 275.52853 114.964226Q274.35666 114.964226 273.5754 114.089226Q272.79416 113.214226 272.79416 111.464226ZM275.55978 109.245476Q274.96603 109.245476 274.5754 109.7611Q274.18478 110.2611 274.18478 111.6361Q274.18478 112.85485 274.5754 113.370476Q274.96603 113.8861 275.54416 113.8861Q276.15353 113.8861 276.54416 113.370476Q276.93478 112.85485 276.93478 111.5111Q276.93478 110.2611 276.54416 109.7611Q276.15353 109.245476 275.55978 109.245476Z" fill-rule="nonzero"/><path stroke="#ffffff" stroke-width="1.0" stroke-linejoin="round" stroke-linecap="round" d="M329.0776 180.4947C322.02075 171.64568 311.31833 166.49167 300.0 166.49167L300.0 54.916668C345.27335 54.916668 388.08298 75.53269 416.31046 110.92883" fill-rule="nonzero"/><path stroke="#ffffff" stroke-width="1.0" stroke-linejoin="round" stroke-linecap="round" d="M270.9224 180.4947C258.7879 195.71088 260.43643 217.70909 274.70325 230.94675C288.97006 244.18442 311.02994 244.18442 325.29675 230.94675C339.56357 217.70909 341.2121 195.71088 329.0776 180.4947L416.31046 110.92883C464.84842 171.79349 458.25424 259.78638 401.18704 312.73703C344.1198 365.68765 255.88019 365.68765 198.81297 312.73703C141.74574 259.78638 135.1516 171.79349 183.68953 110.92883" fill-rule="nonzero"/><path stroke="#ffffff" stroke-width="1.0" stroke-linejoin="round" stroke-linecap="round" d="M300.0 166.49167C288.68167 166.49167 277.97925 171.64568 270.9224 180.4947L183.68953 110.92883C211.91702 75.53269 254.72664 54.916668 300.0 54.916668" fill-rule="nonzero"/><path fill="#efefef" d="M19.784374 70.85091L19.784374 59.39778L24.1125 59.39778Q25.253124 59.39778 25.846874 59.507156Q26.690624 59.64778 27.253124 60.038406Q27.83125 60.42903 28.175 61.14778Q28.534374 61.850906 28.534374 62.71028Q28.534374 64.16341 27.596874 65.17903Q26.675 66.19466 24.2375 66.19466L21.3 66.19466L21.3 70.85091L19.784374 70.85091ZM21.3 64.83528L24.26875 64.83528Q25.7375 64.83528 26.346874 64.28841Q26.971874 63.74153 26.971874 62.757156Q26.971874 62.038406 26.596874 61.52278Q26.2375 61.007156 25.64375 60.850906Q25.26875 60.74153 24.2375 60.74153L21.3 60.74153L21.3 64.83528ZM36.284374 68.17903L37.7375 68.35091Q37.39375 69.63216 36.45625 70.33528Q35.534374 71.03841 34.096874 71.03841Q32.26875 71.03841 31.20625 69.91341Q30.14375 68.78841 30.14375 66.77278Q30.14375 64.67903 31.221874 63.52278Q32.3 62.36653 34.01875 62.36653Q35.675 62.36653 36.721874 63.507156Q37.784374 64.63216 37.784374 66.67903Q37.784374 66.80403 37.784374 67.05403L31.596874 67.05403Q31.675 68.42903 32.3625 69.16341Q33.065624 69.88216 34.096874 69.88216Q34.878124 69.88216 35.425 69.47591Q35.971874 69.06966 36.284374 68.17903ZM31.675 65.89778L36.3 65.89778Q36.20625 64.85091 35.76875 64.33528Q35.096874 63.52278 34.034374 63.52278Q33.065624 63.52278 32.39375 64.17903Q31.7375 64.81966 31.675 65.89778ZM39.08125 66.69466Q39.08125 64.39778 40.3625 63.288406Q41.440624 62.36653 42.971874 62.36653Q44.690624 62.36653 45.76875 63.49153Q46.8625 64.60091 46.8625 66.58528Q46.8625 68.17903 46.378124 69.10091Q45.89375 70.02278 44.971874 70.53841Q44.065624 71.03841 42.971874 71.03841Q41.2375 71.03841 40.159374 69.92903Q39.08125 68.80403 39.08125 66.69466ZM40.534374 66.69466Q40.534374 68.28841 41.221874 69.08528Q41.925 69.88216 42.971874 69.88216Q44.01875 69.88216 44.70625 69.08528Q45.409374 68.28841 45.409374 66.64778Q45.409374 65.11653 44.70625 64.31966Q44.01875 63.52278 42.971874 63.52278Q41.925 63.52278 41.221874 64.31966Q40.534374 65.10091 40.534374 66.69466ZM48.6125 74.03841L48.6125 62.55403L49.89375 62.55403L49.89375 63.632156Q50.346874 62.99153 50.909374 62.67903Q51.4875 62.36653 52.3 62.36653Q53.3625 62.36653 54.175 62.913406Q54.9875 63.46028 55.39375 64.46028Q55.815624 65.44466 55.815624 66.63216Q55.815624 67.91341 55.346874 68.92903Q54.89375 69.94466 54.01875 70.49153Q53.159374 71.03841 52.190624 71.03841Q51.4875 71.03841 50.925 70.74153Q50.378124 70.44466 50.01875 69.99153L50.01875 74.03841L48.6125 74.03841ZM49.878124 66.74153Q49.878124 68.35091 50.51875 69.11653Q51.175 69.88216 52.096874 69.88216Q53.034374 69.88216 53.70625 69.08528Q54.378124 68.28841 54.378124 66.63216Q54.378124 65.03841 53.721874 64.25716Q53.065624 63.46028 52.159374 63.46028Q51.26875 63.46028 50.565624 64.30403Q49.878124 65.14778 49.878124 66.74153ZM57.58125 70.85091L57.58125 59.39778L58.9875 59.39778L58.9875 70.85091L57.58125 70.85091ZM67.28438 68.17903L68.7375 68.35091Q68.39375 69.63216 67.45625 70.33528Q66.53438 71.03841 65.09688 71.03841Q63.26875 71.03841 62.20625 69.91341Q61.14375 68.78841 61.14375 66.77278Q61.14375 64.67903 62.221874 63.52278Q63.3 62.36653 65.01875 62.36653Q66.675 62.36653 67.72188 63.507156Q68.78438 64.63216 68.78438 66.67903Q68.78438 66.80403 68.78438 67.05403L62.596874 67.05403Q62.675 68.42903 63.3625 69.16341Q64.06563 69.88216 65.09688 69.88216Q65.87813 69.88216 66.425 69.47591Q66.97188 69.06966 67.28438 68.17903ZM62.675 65.89778L67.3 65.89778Q67.20625 64.85091 66.76875 64.33528Q66.09688 63.52278 65.03438 63.52278Q64.06563 63.52278 63.39375 64.17903Q62.7375 64.81966 62.675 65.89778Z" fill-rule="nonzero"/><path fill="#9e9e9e" d="M24.51875 92.85091L23.1125 92.85091L23.1125 83.88216Q22.596874 84.36653 21.76875 84.85091Q20.95625 85.33528 20.3 85.58528L20.3 84.22591Q21.471874 83.66341 22.346874 82.88216Q23.2375 82.08528 23.6125 81.35091L24.51875 81.35091L24.51875 92.85091ZM32.721874 92.85091L32.721874 90.10091L27.753124 90.10091L27.753124 88.81966L32.9875 81.39778L34.128124 81.39778L34.128124 88.81966L35.675 88.81966L35.675 90.10091L34.128124 90.10091L34.128124 92.85091L32.721874 92.85091ZM32.721874 88.81966L32.721874 83.64778L29.14375 88.81966L32.721874 88.81966ZM38.003124 92.85091L38.003124 91.24153L39.6125 91.24153L39.6125 92.85091L38.003124 92.85091ZM41.221874 89.81966L42.628124 89.63216Q42.878124 90.83528 43.45625 91.36653Q44.034374 91.88216 44.878124 91.88216Q45.8625 91.88216 46.55 91.19466Q47.2375 90.50716 47.2375 89.49153Q47.2375 88.52278 46.596874 87.89778Q45.971874 87.27278 44.9875 87.27278Q44.596874 87.27278 44.003124 87.42903L44.159374 86.19466Q44.3 86.21028 44.378124 86.21028Q45.284374 86.21028 46.003124 85.74153Q46.721874 85.27278 46.721874 84.28841Q46.721874 83.52278 46.190624 83.02278Q45.675 82.50716 44.846874 82.50716Q44.01875 82.50716 43.471874 83.02278Q42.925 83.53841 42.76875 84.56966L41.3625 84.31966Q41.628124 82.89778 42.534374 82.13216Q43.45625 81.35091 44.815624 81.35091Q45.753124 81.35091 46.534374 81.75716Q47.33125 82.14778 47.7375 82.85091Q48.159374 83.53841 48.159374 84.31966Q48.159374 85.06966 47.753124 85.67903Q47.3625 86.28841 46.58125 86.64778Q47.596874 86.88216 48.159374 87.61653Q48.721874 88.35091 48.721874 89.46028Q48.721874 90.96028 47.628124 92.00716Q46.534374 93.05403 44.8625 93.05403Q43.3625 93.05403 42.3625 92.16341Q41.3625 91.25716 41.221874 89.81966ZM50.4875 84.14778Q50.4875 82.91341 51.096874 82.05403Q51.721874 81.19466 52.89375 81.19466Q53.971874 81.19466 54.675 81.97591Q55.378124 82.74153 55.378124 84.22591Q55.378124 85.67903 54.659374 86.47591Q53.95625 87.25716 52.909374 87.25716Q51.8625 87.25716 51.175 86.49153Q50.4875 85.71028 50.4875 84.14778ZM52.925 82.16341Q52.409374 82.16341 52.05 82.61653Q51.70625 83.06966 51.70625 84.28841Q51.70625 85.38216 52.05 85.83528Q52.409374 86.28841 52.925 86.28841Q53.45625 86.28841 53.8 85.83528Q54.159374 85.38216 54.159374 84.17903Q54.159374 83.06966 53.8 82.61653Q53.45625 82.16341 52.925 82.16341ZM52.940624 93.27278L59.20625 81.19466L60.346874 81.19466L54.096874 93.27278L52.940624 93.27278ZM57.89375 90.16341Q57.89375 88.92903 58.503124 88.06966Q59.128124 87.21028 60.3 87.21028Q61.378124 87.21028 62.08125 87.99153Q62.8 88.75716 62.8 90.24153Q62.8 91.69466 62.08125 92.49153Q61.3625 93.27278 60.315624 93.27278Q59.26875 93.27278 58.58125 92.49153Q57.89375 91.71028 57.89375 90.16341ZM60.346874 88.17903Q59.815624 88.17903 59.45625 88.63216Q59.1125 89.08528 59.1125 90.30403Q59.1125 91.39778 59.45625 91.85091Q59.815624 92.30403 60.33125 92.30403Q60.878124 92.30403 61.221874 91.85091Q61.565624 91.39778 61.565624 90.19466Q61.565624 89.08528 61.20625 88.63216Q60.8625 88.17903 60.346874 88.17903Z" fill-rule="nonzero"/><path stroke="#757575" stroke-width="1.0" stroke-linecap="butt" d="M18.55 76.35091L145.23334 76.35091L238.67993 76.35091" fill-rule="nonzero"/><path fill="#9e9e9e" d="M240.67993 76.35091C240.67993 75.24634 239.7845 74.35091 238.67993 74.35091C237.57536 74.35091 236.67993 75.24634 236.67993 76.35091C236.67993 77.455475 237.57536 78.35091 238.67993 78.35091C239.7845 78.35091 240.67993 77.455475 240.67993 76.35091" fill-rule="nonzero"/><path fill="#efefef" d="M490.23126 65.27278Q490.23126 62.413406 491.7625 60.80403Q493.29376 59.194656 495.71564 59.194656Q497.29376 59.194656 498.5594 59.96028Q499.84064 60.71028 500.5125 62.069656Q501.1844 63.413406 501.1844 65.13216Q501.1844 66.88216 500.48126 68.25716Q499.77814 69.63216 498.48126 70.35091Q497.2 71.05403 495.7 71.05403Q494.09064 71.05403 492.8094 70.27278Q491.54376 69.47591 490.8875 68.13216Q490.23126 66.77278 490.23126 65.27278ZM491.79376 65.28841Q491.79376 67.36653 492.90314 68.55403Q494.0125 69.74153 495.7 69.74153Q497.40314 69.74153 498.5125 68.53841Q499.6219 67.33528 499.6219 65.13216Q499.6219 63.725906 499.1375 62.694656Q498.66876 61.64778 497.7625 61.069656Q496.85626 60.49153 495.71564 60.49153Q494.10626 60.49153 492.95 61.600906Q491.79376 62.71028 491.79376 65.28841ZM502.4969 70.85091L502.4969 62.55403L503.7625 62.55403L503.7625 63.80403Q504.2469 62.92903 504.65314 62.64778Q505.0594 62.36653 505.5594 62.36653Q506.2625 62.36653 506.9969 62.819656L506.5125 64.11653Q505.9969 63.819656 505.48126 63.819656Q505.02814 63.819656 504.65314 64.10091Q504.29376 64.36653 504.1375 64.86653Q503.90314 65.61653 503.90314 66.50716L503.90314 70.85091L502.4969 70.85091ZM510.575 69.58528L510.77814 70.83528Q510.1844 70.96028 509.71564 70.96028Q508.95 70.96028 508.52814 70.72591Q508.10626 70.47591 507.9344 70.08528Q507.7625 69.67903 507.7625 68.41341L507.7625 63.64778L506.73126 63.64778L506.73126 62.55403L507.7625 62.55403L507.7625 60.49153L509.16876 59.64778L509.16876 62.55403L510.575 62.55403L510.575 63.64778L509.16876 63.64778L509.16876 68.49153Q509.16876 69.10091 509.23126 69.27278Q509.3094 69.44466 509.48126 69.55403Q509.65314 69.64778 509.96564 69.64778Q510.2 69.64778 510.575 69.58528ZM511.5125 70.85091L511.5125 59.39778L512.91876 59.39778L512.91876 63.507156Q513.90314 62.36653 515.40314 62.36653Q516.325 62.36653 516.9969 62.725906Q517.6844 63.08528 517.96564 63.725906Q518.2625 64.36653 518.2625 65.58528L518.2625 70.85091L516.85626 70.85091L516.85626 65.58528Q516.85626 64.53841 516.40314 64.05403Q515.95 63.569656 515.10626 63.569656Q514.48126 63.569656 513.9344 63.89778Q513.3875 64.22591 513.15314 64.78841Q512.91876 65.33528 512.91876 66.30403L512.91876 70.85091L511.5125 70.85091ZM519.98126 66.69466Q519.98126 64.39778 521.2625 63.288406Q522.34064 62.36653 523.8719 62.36653Q525.59064 62.36653 526.66876 63.49153Q527.7625 64.60091 527.7625 66.58528Q527.7625 68.17903 527.27814 69.10091Q526.79376 70.02278 525.8719 70.53841Q524.96564 71.03841 523.8719 71.03841Q522.1375 71.03841 521.0594 69.92903Q519.98126 68.80403 519.98126 66.69466ZM521.4344 66.69466Q521.4344 68.28841 522.1219 69.08528Q522.825 69.88216 523.8719 69.88216Q524.91876 69.88216 525.60626 69.08528Q526.3094 68.28841 526.3094 66.64778Q526.3094 65.11653 525.60626 64.31966Q524.91876 63.52278 523.8719 63.52278Q522.825 63.52278 522.1219 64.31966Q521.4344 65.10091 521.4344 66.69466ZM529.2469 71.53841L530.6219 71.74153Q530.7 72.38216 531.09064 72.66341Q531.6219 73.05403 532.52814 73.05403Q533.4969 73.05403 534.02814 72.66341Q534.5594 72.27278 534.7469 71.56966Q534.85626 71.14778 534.85626 69.75716Q533.9344 70.85091 532.5594 70.85091Q530.84064 70.85091 529.90314 69.61653Q528.96564 68.38216 528.96564 66.64778Q528.96564 65.46028 529.3875 64.46028Q529.825 63.46028 530.6375 62.913406Q531.46564 62.36653 532.5594 62.36653Q534.02814 62.36653 534.98126 63.55403L534.98126 62.55403L536.27814 62.55403L536.27814 69.72591Q536.27814 71.66341 535.8875 72.47591Q535.4969 73.28841 534.6375 73.75716Q533.77814 74.22591 532.52814 74.22591Q531.04376 74.22591 530.1219 73.55403Q529.21564 72.88216 529.2469 71.53841ZM530.41876 66.55403Q530.41876 68.17903 531.0594 68.92903Q531.71564 69.67903 532.6844 69.67903Q533.65314 69.67903 534.3094 68.94466Q534.96564 68.19466 534.96564 66.60091Q534.96564 65.06966 534.29376 64.30403Q533.6219 63.52278 532.66876 63.52278Q531.73126 63.52278 531.075 64.28841Q530.41876 65.05403 530.41876 66.55403ZM538.4969 70.85091L538.4969 62.55403L539.7625 62.55403L539.7625 63.80403Q540.2469 62.92903 540.65314 62.64778Q541.0594 62.36653 541.5594 62.36653Q542.2625 62.36653 542.9969 62.819656L542.5125 64.11653Q541.9969 63.819656 541.48126 63.819656Q541.02814 63.819656 540.65314 64.10091Q540.29376 64.36653 540.1375 64.86653Q539.90314 65.61653 539.90314 66.50716L539.90314 70.85091L538.4969 70.85091ZM548.91876 69.81966Q548.1375 70.49153 547.41876 70.77278Q546.7 71.03841 545.8719 71.03841Q544.4969 71.03841 543.7625 70.36653Q543.02814 69.69466 543.02814 68.66341Q543.02814 68.05403 543.3094 67.55403Q543.59064 67.03841 544.02814 66.74153Q544.48126 66.42903 545.04376 66.27278Q545.46564 66.16341 546.29376 66.06966Q547.9969 65.86653 548.8094 65.58528Q548.8094 65.28841 548.8094 65.21028Q548.8094 64.35091 548.41876 64.00716Q547.8719 63.52278 546.8094 63.52278Q545.825 63.52278 545.34064 63.882156Q544.8719 64.22591 544.65314 65.10091L543.27814 64.91341Q543.46564 64.03841 543.8875 63.49153Q544.325 62.944656 545.1375 62.663406Q545.95 62.36653 547.0125 62.36653Q548.075 62.36653 548.73126 62.61653Q549.40314 62.86653 549.71564 63.24153Q550.02814 63.61653 550.15314 64.19466Q550.23126 64.55403 550.23126 65.49153L550.23126 67.36653Q550.23126 69.33528 550.3094 69.85091Q550.40314 70.36653 550.66876 70.85091L549.2 70.85091Q548.98126 70.41341 548.91876 69.81966ZM548.8094 66.67903Q548.04376 66.99153 546.5125 67.21028Q545.6375 67.33528 545.27814 67.49153Q544.91876 67.64778 544.71564 67.96028Q544.52814 68.25716 544.52814 68.61653Q544.52814 69.17903 544.95 69.55403Q545.3875 69.92903 546.2 69.92903Q547.0125 69.92903 547.6375 69.58528Q548.27814 69.22591 548.575 68.60091Q548.8094 68.13216 548.8094 67.19466L548.8094 66.67903ZM552.5125 74.03841L552.5125 62.55403L553.79376 62.55403L553.79376 63.632156Q554.2469 62.99153 554.8094 62.67903Q555.3875 62.36653 556.2 62.36653Q557.2625 62.36653 558.075 62.913406Q558.8875 63.46028 559.29376 64.46028Q559.71564 65.44466 559.71564 66.63216Q559.71564 67.91341 559.2469 68.92903Q558.79376 69.94466 557.91876 70.49153Q557.0594 71.03841 556.09064 71.03841Q555.3875 71.03841 554.825 70.74153Q554.27814 70.44466 553.91876 69.99153L553.91876 74.03841L552.5125 74.03841ZM553.77814 66.74153Q553.77814 68.35091 554.41876 69.11653Q555.075 69.88216 555.9969 69.88216Q556.9344 69.88216 557.60626 69.08528Q558.27814 68.28841 558.27814 66.63216Q558.27814 65.03841 557.6219 64.25716Q556.96564 63.46028 556.0594 63.46028Q555.16876 63.46028 554.46564 64.30403Q553.77814 65.14778 553.77814 66.74153ZM561.5125 70.85091L561.5125 59.39778L562.91876 59.39778L562.91876 63.507156Q563.90314 62.36653 565.40314 62.36653Q566.325 62.36653 566.9969 62.725906Q567.6844 63.08528 567.96564 63.725906Q568.2625 64.36653 568.2625 65.58528L568.2625 70.85091L566.85626 70.85091L566.85626 65.58528Q566.85626 64.53841 566.40314 64.05403Q565.95 63.569656 565.10626 63.569656Q564.48126 63.569656 563.9344 63.89778Q563.3875 64.22591 563.15314 64.78841Q562.91876 65.33528 562.91876 66.30403L562.91876 70.85091L561.5125 70.85091ZM570.5125 61.007156L570.5125 59.39778L571.91876 59.39778L571.91876 61.007156L570.5125 61.007156ZM570.5125 70.85091L570.5125 62.55403L571.91876 62.55403L571.91876 70.85091L570.5125 70.85091ZM579.91876 67.80403L581.3094 67.99153Q581.075 69.41341 580.1375 70.22591Q579.21564 71.03841 577.85626 71.03841Q576.15314 71.03841 575.10626 69.92903Q574.075 68.80403 574.075 66.72591Q574.075 65.38216 574.5125 64.38216Q574.96564 63.36653 575.8719 62.86653Q576.79376 62.36653 577.85626 62.36653Q579.21564 62.36653 580.075 63.05403Q580.9344 63.725906 581.16876 64.99153L579.8094 65.19466Q579.60626 64.36653 579.10626 63.944656Q578.6219 63.52278 577.91876 63.52278Q576.85626 63.52278 576.1844 64.28841Q575.52814 65.03841 575.52814 66.69466Q575.52814 68.36653 576.16876 69.13216Q576.8094 69.88216 577.84064 69.88216Q578.66876 69.88216 579.21564 69.38216Q579.77814 68.86653 579.91876 67.80403Z" fill-rule="nonzero"/><path fill="#9e9e9e" d="M542.41876 92.85091L541.0125 92.85091L541.0125 83.88216Q540.4969 84.36653 539.66876 84.85091Q538.85626 85.33528 538.2 85.58528L538.2 84.22591Q539.3719 83.66341 540.2469 82.88216Q541.1375 82.08528 541.5125 81.35091L542.41876 81.35091L542.41876 92.85091ZM550.6219 92.85091L550.6219 90.10091L545.65314 90.10091L545.65314 88.81966L550.8875 81.39778L552.02814 81.39778L552.02814 88.81966L553.575 88.81966L553.575 90.10091L552.02814 90.10091L552.02814 92.85091L550.6219 92.85091ZM550.6219 88.81966L550.6219 83.64778L547.04376 88.81966L550.6219 88.81966ZM555.90314 92.85091L555.90314 91.24153L557.5125 91.24153L557.5125 92.85091L555.90314 92.85091ZM559.1219 89.81966L560.52814 89.63216Q560.77814 90.83528 561.35626 91.36653Q561.9344 91.88216 562.77814 91.88216Q563.7625 91.88216 564.45 91.19466Q565.1375 90.50716 565.1375 89.49153Q565.1375 88.52278 564.4969 87.89778Q563.8719 87.27278 562.8875 87.27278Q562.4969 87.27278 561.90314 87.42903L562.0594 86.19466Q562.2 86.21028 562.27814 86.21028Q563.1844 86.21028 563.90314 85.74153Q564.6219 85.27278 564.6219 84.28841Q564.6219 83.52278 564.09064 83.02278Q563.575 82.50716 562.7469 82.50716Q561.91876 82.50716 561.3719 83.02278Q560.825 83.53841 560.66876 84.56966L559.2625 84.31966Q559.52814 82.89778 560.4344 82.13216Q561.35626 81.35091 562.71564 81.35091Q563.65314 81.35091 564.4344 81.75716Q565.23126 82.14778 565.6375 82.85091Q566.0594 83.53841 566.0594 84.31966Q566.0594 85.06966 565.65314 85.67903Q565.2625 86.28841 564.48126 86.64778Q565.4969 86.88216 566.0594 87.61653Q566.6219 88.35091 566.6219 89.46028Q566.6219 90.96028 565.52814 92.00716Q564.4344 93.05403 562.7625 93.05403Q561.2625 93.05403 560.2625 92.16341Q559.2625 91.25716 559.1219 89.81966ZM568.3875 84.14778Q568.3875 82.91341 568.9969 82.05403Q569.6219 81.19466 570.79376 81.19466Q571.8719 81.19466 572.575 81.97591Q573.27814 82.74153 573.27814 84.22591Q573.27814 85.67903 572.5594 86.47591Q571.85626 87.25716 570.8094 87.25716Q569.7625 87.25716 569.075 86.49153Q568.3875 85.71028 568.3875 84.14778ZM570.825 82.16341Q570.3094 82.16341 569.95 82.61653Q569.60626 83.06966 569.60626 84.28841Q569.60626 85.38216 569.95 85.83528Q570.3094 86.28841 570.825 86.28841Q571.35626 86.28841 571.7 85.83528Q572.0594 85.38216 572.0594 84.17903Q572.0594 83.06966 571.7 82.61653Q571.35626 82.16341 570.825 82.16341ZM570.84064 93.27278L577.10626 81.19466L578.2469 81.19466L571.9969 93.27278L570.84064 93.27278ZM575.79376 90.16341Q575.79376 88.92903 576.40314 88.06966Q577.02814 87.21028 578.2 87.21028Q579.27814 87.21028 579.98126 87.99153Q580.7 88.75716 580.7 90.24153Q580.7 91.69466 579.98126 92.49153Q579.2625 93.27278 578.21564 93.27278Q577.16876 93.27278 576.48126 92.49153Q575.79376 91.71028 575.79376 90.16341ZM578.2469 88.17903Q577.71564 88.17903 577.35626 88.63216Q577.0125 89.08528 577.0125 90.30403Q577.0125 91.39778 577.35626 91.85091Q577.71564 92.30403 578.23126 92.30403Q578.77814 92.30403 579.1219 91.85091Q579.46564 91.39778 579.46564 90.19466Q579.46564 89.08528 579.10626 88.63216Q578.7625 88.17903 578.2469 88.17903Z" fill-rule="nonzero"/><path stroke="#757575" stroke-width="1.0" stroke-linecap="butt" d="M581.45 76.35091L454.76666 76.35091L361.32007 76.35091" fill-rule="nonzero"/><path fill="#9e9e9e" d="M363.32007 76.35091C363.32007 75.24634 362.42462 74.35091 361.32007 74.35091C360.21548 74.35091 359.32007 75.24634 359.32007 76.35091C359.32007 77.455475 360.21548 78.35091 361.32007 78.35091C362.42462 78.35091 363.32007 77.455475 363.32007 76.35091" fill-rule="nonzero"/><path fill="#efefef" d="M532.6844 326.45L532.6844 314.9969L536.6375 314.9969Q537.96564 314.9969 538.66876 315.15314Q539.65314 315.3875 540.35626 315.98126Q541.2625 316.7469 541.7 317.9344Q542.15314 319.1219 542.15314 320.65314Q542.15314 321.96564 541.84064 322.98126Q541.54376 323.98126 541.0594 324.6375Q540.59064 325.29376 540.02814 325.6844Q539.46564 326.0594 538.65314 326.2625Q537.85626 326.45 536.825 326.45L532.6844 326.45ZM534.2 325.09064L536.65314 325.09064Q537.77814 325.09064 538.41876 324.8875Q539.075 324.66876 539.45 324.29376Q539.9969 323.7469 540.29376 322.84064Q540.59064 321.9344 540.59064 320.6375Q540.59064 318.84064 539.9969 317.8719Q539.41876 316.90314 538.575 316.575Q537.96564 316.34064 536.60626 316.34064L534.2 316.34064L534.2 325.09064ZM550.1844 323.77814L551.6375 323.95Q551.29376 325.23126 550.35626 325.9344Q549.4344 326.6375 547.9969 326.6375Q546.16876 326.6375 545.10626 325.5125Q544.04376 324.3875 544.04376 322.3719Q544.04376 320.27814 545.1219 319.1219Q546.2 317.96564 547.91876 317.96564Q549.575 317.96564 550.6219 319.10626Q551.6844 320.23126 551.6844 322.27814Q551.6844 322.40314 551.6844 322.65314L545.4969 322.65314Q545.575 324.02814 546.2625 324.7625Q546.96564 325.48126 547.9969 325.48126Q548.77814 325.48126 549.325 325.075Q549.8719 324.66876 550.1844 323.77814ZM545.575 321.4969L550.2 321.4969Q550.10626 320.45 549.66876 319.9344Q548.9969 319.1219 547.9344 319.1219Q546.96564 319.1219 546.29376 319.77814Q545.6375 320.41876 545.575 321.4969ZM556.575 325.1844L556.77814 326.4344Q556.1844 326.5594 555.71564 326.5594Q554.95 326.5594 554.52814 326.325Q554.10626 326.075 553.9344 325.6844Q553.7625 325.27814 553.7625 324.0125L553.7625 319.2469L552.73126 319.2469L552.73126 318.15314L553.7625 318.15314L553.7625 316.09064L555.16876 315.2469L555.16876 318.15314L556.575 318.15314L556.575 319.2469L555.16876 319.2469L555.16876 324.09064Q555.16876 324.7 555.23126 324.8719Q555.3094 325.04376 555.48126 325.15314Q555.65314 325.2469 555.96564 325.2469Q556.2 325.2469 556.575 325.1844ZM562.91876 325.41876Q562.1375 326.09064 561.41876 326.3719Q560.7 326.6375 559.8719 326.6375Q558.4969 326.6375 557.7625 325.96564Q557.02814 325.29376 557.02814 324.2625Q557.02814 323.65314 557.3094 323.15314Q557.59064 322.6375 558.02814 322.34064Q558.48126 322.02814 559.04376 321.8719Q559.46564 321.7625 560.29376 321.66876Q561.9969 321.46564 562.8094 321.1844Q562.8094 320.8875 562.8094 320.8094Q562.8094 319.95 562.41876 319.60626Q561.8719 319.1219 560.8094 319.1219Q559.825 319.1219 559.34064 319.48126Q558.8719 319.825 558.65314 320.7L557.27814 320.5125Q557.46564 319.6375 557.8875 319.09064Q558.325 318.54376 559.1375 318.2625Q559.95 317.96564 561.0125 317.96564Q562.075 317.96564 562.73126 318.21564Q563.40314 318.46564 563.71564 318.84064Q564.02814 319.21564 564.15314 319.79376Q564.23126 320.15314 564.23126 321.09064L564.23126 322.96564Q564.23126 324.9344 564.3094 325.45Q564.40314 325.96564 564.66876 326.45L563.2 326.45Q562.98126 326.0125 562.91876 325.41876ZM562.8094 322.27814Q562.04376 322.59064 560.5125 322.8094Q559.6375 322.9344 559.27814 323.09064Q558.91876 323.2469 558.71564 323.5594Q558.52814 323.85626 558.52814 324.21564Q558.52814 324.77814 558.95 325.15314Q559.3875 325.52814 560.2 325.52814Q561.0125 325.52814 561.6375 325.1844Q562.27814 324.825 562.575 324.2Q562.8094 323.73126 562.8094 322.79376L562.8094 322.27814ZM566.5125 316.60626L566.5125 314.9969L567.91876 314.9969L567.91876 316.60626L566.5125 316.60626ZM566.5125 326.45L566.5125 318.15314L567.91876 318.15314L567.91876 326.45L566.5125 326.45ZM570.48126 326.45L570.48126 314.9969L571.8875 314.9969L571.8875 326.45L570.48126 326.45ZM573.95 323.96564L575.34064 323.7469Q575.45 324.59064 575.98126 325.04376Q576.52814 325.48126 577.48126 325.48126Q578.45 325.48126 578.91876 325.09064Q579.3875 324.6844 579.3875 324.15314Q579.3875 323.6844 578.98126 323.40314Q578.6844 323.21564 577.54376 322.9344Q575.9969 322.54376 575.3875 322.2625Q574.79376 321.96564 574.48126 321.46564Q574.1844 320.96564 574.1844 320.35626Q574.1844 319.79376 574.4344 319.325Q574.6844 318.85626 575.1219 318.54376Q575.45 318.29376 576.0125 318.1375Q576.59064 317.96564 577.23126 317.96564Q578.21564 317.96564 578.95 318.2469Q579.6844 318.52814 580.02814 319.0125Q580.3875 319.48126 580.52814 320.29376L579.15314 320.48126Q579.0594 319.84064 578.60626 319.48126Q578.15314 319.1219 577.34064 319.1219Q576.3719 319.1219 575.95 319.45Q575.54376 319.7625 575.54376 320.1844Q575.54376 320.46564 575.71564 320.6844Q575.8875 320.90314 576.2469 321.0594Q576.46564 321.1375 577.4969 321.41876Q578.98126 321.8094 579.575 322.075Q580.16876 322.325 580.4969 322.8094Q580.84064 323.29376 580.84064 324.0125Q580.84064 324.71564 580.41876 325.34064Q580.0125 325.95 579.23126 326.29376Q578.46564 326.6375 577.4969 326.6375Q575.8719 326.6375 575.02814 325.96564Q574.1844 325.29376 573.95 323.96564Z" fill-rule="nonzero"/><path fill="#9e9e9e" d="M537.21564 338.4969L537.21564 337.1375L544.6219 337.1375L544.6219 338.23126Q543.52814 339.40314 542.45 341.34064Q541.3875 343.2625 540.79376 345.29376Q540.3719 346.73126 540.2625 348.45L538.8094 348.45Q538.84064 347.09064 539.34064 345.1844Q539.85626 343.2625 540.79376 341.4969Q541.7469 339.71564 542.825 338.4969L537.21564 338.4969ZM551.41876 348.45L550.0125 348.45L550.0125 339.48126Q549.4969 339.96564 548.66876 340.45Q547.85626 340.9344 547.2 341.1844L547.2 339.825Q548.3719 339.2625 549.2469 338.48126Q550.1375 337.6844 550.5125 336.95L551.41876 336.95L551.41876 348.45ZM555.90314 348.45L555.90314 346.84064L557.5125 346.84064L557.5125 348.45L555.90314 348.45ZM563.6219 348.45L563.6219 345.7L558.65314 345.7L558.65314 344.41876L563.8875 336.9969L565.02814 336.9969L565.02814 344.41876L566.575 344.41876L566.575 345.7L565.02814 345.7L565.02814 348.45L563.6219 348.45ZM563.6219 344.41876L563.6219 339.2469L560.04376 344.41876L563.6219 344.41876ZM568.3875 339.7469Q568.3875 338.5125 568.9969 337.65314Q569.6219 336.79376 570.79376 336.79376Q571.8719 336.79376 572.575 337.575Q573.27814 338.34064 573.27814 339.825Q573.27814 341.27814 572.5594 342.075Q571.85626 342.85626 570.8094 342.85626Q569.7625 342.85626 569.075 342.09064Q568.3875 341.3094 568.3875 339.7469ZM570.825 337.7625Q570.3094 337.7625 569.95 338.21564Q569.60626 338.66876 569.60626 339.8875Q569.60626 340.98126 569.95 341.4344Q570.3094 341.8875 570.825 341.8875Q571.35626 341.8875 571.7 341.4344Q572.0594 340.98126 572.0594 339.77814Q572.0594 338.66876 571.7 338.21564Q571.35626 337.7625 570.825 337.7625ZM570.84064 348.8719L577.10626 336.79376L578.2469 336.79376L571.9969 348.8719L570.84064 348.8719ZM575.79376 345.7625Q575.79376 344.52814 576.40314 343.66876Q577.02814 342.8094 578.2 342.8094Q579.27814 342.8094 579.98126 343.59064Q580.7 344.35626 580.7 345.84064Q580.7 347.29376 579.98126 348.09064Q579.2625 348.8719 578.21564 348.8719Q577.16876 348.8719 576.48126 348.09064Q575.79376 347.3094 575.79376 345.7625ZM578.2469 343.77814Q577.71564 343.77814 577.35626 344.23126Q577.0125 344.6844 577.0125 345.90314Q577.0125 346.9969 577.35626 347.45Q577.71564 347.90314 578.23126 347.90314Q578.77814 347.90314 579.1219 347.45Q579.46564 346.9969 579.46564 345.79376Q579.46564 344.6844 579.10626 344.23126Q578.7625 343.77814 578.2469 343.77814Z" fill-rule="nonzero"/><path stroke="#757575" stroke-width="1.0" stroke-linecap="butt" d="M581.45 331.95L454.76666 331.95L300.0 345.01166" fill-rule="nonzero"/><path fill="#9e9e9e" d="M302.0 345.01166C302.0 343.9071 301.10458 343.01166 300.0 343.01166C298.89542 343.01166 298.0 343.9071 298.0 345.01166C298.0 346.11624 298.89542 347.01166 300.0 347.01166C301.10458 347.01166 302.0 346.11624 302.0 345.01166" fill-rule="nonzero"/><path fill="#f3f3f3" d="M265.98438 37.55L265.98438 23.2375L268.84375 23.2375L272.21875 33.3625Q272.6875 34.784374 272.90625 35.4875Q273.15625 34.70625 273.67188 33.190624L277.09375 23.2375L279.64062 23.2375L279.64062 37.55L277.82812 37.55L277.82812 25.565624L273.65625 37.55L271.95312 37.55L267.8125 25.3625L267.8125 37.55L265.98438 37.55ZM289.92188 34.20625L291.73438 34.440624Q291.3125 36.01875 290.14062 36.909374Q288.98438 37.784374 287.17188 37.784374Q284.90625 37.784374 283.5625 36.39375Q282.23438 34.9875 282.23438 32.45625Q282.23438 29.83125 283.57812 28.39375Q284.92188 26.940624 287.07812 26.940624Q289.15625 26.940624 290.46875 28.3625Q291.79688 29.76875 291.79688 32.346874Q291.79688 32.503124 291.78125 32.815624L284.04688 32.815624Q284.14062 34.51875 285.01562 35.425Q285.89062 36.33125 287.1875 36.33125Q288.15625 36.33125 288.82812 35.83125Q289.51562 35.315624 289.92188 34.20625ZM284.14062 31.3625L289.9375 31.3625Q289.82812 30.065624 289.28125 29.409374Q288.4375 28.39375 287.09375 28.39375Q285.89062 28.39375 285.0625 29.20625Q284.23438 30.003124 284.14062 31.3625ZM300.54688 37.55L300.54688 36.2375Q299.5625 37.784374 297.64062 37.784374Q296.40625 37.784374 295.35938 37.096874Q294.32812 36.409374 293.75 35.190624Q293.1875 33.971874 293.1875 32.378124Q293.1875 30.815624 293.70312 29.55Q294.21875 28.284374 295.25 27.6125Q296.29688 26.940624 297.5625 26.940624Q298.5 26.940624 299.23438 27.346874Q299.96875 27.7375 300.4375 28.3625L300.4375 23.2375L302.17188 23.2375L302.17188 37.55L300.54688 37.55ZM294.98438 32.378124Q294.98438 34.3625 295.82812 35.346874Q296.67188 36.33125 297.8125 36.33125Q298.96875 36.33125 299.76562 35.39375Q300.57812 34.45625 300.57812 32.51875Q300.57812 30.39375 299.75 29.39375Q298.9375 28.39375 297.73438 28.39375Q296.5625 28.39375 295.76562 29.3625Q294.98438 30.315624 294.98438 32.378124ZM304.82812 25.253124L304.82812 23.2375L306.59375 23.2375L306.59375 25.253124L304.82812 25.253124ZM304.82812 37.55L304.82812 27.175L306.59375 27.175L306.59375 37.55L304.82812 37.55ZM315.60938 37.55L315.60938 36.01875Q314.40625 37.784374 312.32812 37.784374Q311.40625 37.784374 310.60938 37.440624Q309.8125 37.08125 309.42188 36.55Q309.04688 36.01875 308.89062 35.2375Q308.78125 34.721874 308.78125 33.596874L308.78125 27.175L310.53125 27.175L310.53125 32.925Q310.53125 34.3 310.64062 34.784374Q310.8125 35.471874 311.34375 35.878124Q311.89062 36.26875 312.67188 36.26875Q313.46875 36.26875 314.15625 35.8625Q314.85938 35.45625 315.14062 34.76875Q315.4375 34.065624 315.4375 32.7375L315.4375 27.175L317.1875 27.175L317.1875 37.55L315.60938 37.55ZM319.8125 37.55L319.8125 27.175L321.39062 27.175L321.39062 28.628124Q321.875 27.878124 322.6875 27.409374Q323.5 26.940624 324.53125 26.940624Q325.6875 26.940624 326.42188 27.425Q327.15625 27.89375 327.46875 28.753124Q328.70312 26.940624 330.67188 26.940624Q332.21875 26.940624 333.04688 27.8Q333.875 28.659374 333.875 30.425L333.875 37.55L332.125 37.55L332.125 31.01875Q332.125 29.95625 331.95312 29.503124Q331.78125 29.034374 331.32812 28.753124Q330.89062 28.471874 330.28125 28.471874Q329.1875 28.471874 328.45312 29.20625Q327.73438 29.925 327.73438 31.51875L327.73438 37.55L325.98438 37.55L325.98438 30.815624Q325.98438 29.64375 325.54688 29.065624Q325.125 28.471874 324.14062 28.471874Q323.40625 28.471874 322.76562 28.8625Q322.14062 29.253124 321.85938 30.003124Q321.57812 30.753124 321.57812 32.175L321.57812 37.55L319.8125 37.55Z" fill-rule="nonzero"/></svg>