<svg version="1.1" viewBox="0.0 0.0 600.0 371.0" fill="none" stroke="none" stroke-linecap="square" stroke-miterlimit="10" width="600" height="371" xmlns:xlink="http://www.w3.org/1999/xlink" xmlns="http://www.w3.org/2000/svg"><path fill="#ffffff" fill-opacity="0.0" d="M0 0L600.0 0L600.0 371.0L0 371.0L0 0Z" fill-rule="nonzero"/><path fill="#f7d750" d="M300.0 54.916668C372.19553 54.916668 433.96994 106.751564 446.50656 177.85027L373.2533 190.7668C366.985 155.21745 336.09775 129.3 300.0 129.3Z" fill-rule="nonzero"/><path fill="#4571b0" d="M446.50656 177.85027C459.04318 248.94897 418.72278 318.78595 350.8812 343.47827L325.4406 273.5808C359.3614 261.23465 379.5216 226.31616 373.2533 190.7668Z" fill-rule="nonzero"/><path fill="#d0473d" d="M204.37463 89.72146C231.16737 67.23968 265.02457 54.916668 300.0 54.916668L300.0 129.3C282.51227 129.3 265.58368 135.4615 252.18732 146.7024Z" fill-rule="nonzero"/><path fill="#8c4595" d="M153.49344 177.85027C159.56685 143.40619 177.5819 112.20323 204.37463 89.72146L252.18732 146.7024C238.79094 157.94328 229.78343 173.54477 226.74672 190.7668Z" fill-rule="nonzero"/><path fill="#78a94e" d="M171.16429 278.06668C153.67657 247.77705 147.42001 212.29436 153.49344 177.85027L226.74672 190.7668C223.71 207.98885 226.83829 225.7302 235.58214 240.875Z" fill-rule="nonzero"/><path fill="#2d4d98" d="M350.8812 343.47827C283.0396 368.1706 207.26204 340.5898 171.16429 278.06668L235.58214 240.875C253.63103 272.13657 291.5198 285.92697 325.4406 273.5808Z" fill-rule="nonzero"/><path fill="#ffffff" d="M355.28152 123.1963L355.28152 124.71192L346.7659 124.71192Q346.75027 124.1338 346.9534 123.61817Q347.28152 122.74317 347.98465 121.89942Q348.7034 121.05567 350.06277 119.9463Q352.15652 118.22755 352.8909 117.22755Q353.6409 116.21192 353.6409 115.3213Q353.6409 114.36817 352.96902 113.72755Q352.29715 113.08692 351.21902 113.08692Q350.06277 113.08692 349.37527 113.77442Q348.7034 114.46192 348.68777 115.66505L347.06277 115.49317Q347.23465 113.68067 348.31277 112.72755Q349.40652 111.77442 351.25027 111.77442Q353.09402 111.77442 354.17215 112.80567Q355.2659 113.83692 355.2659 115.35255Q355.2659 116.11817 354.93777 116.86817Q354.62527 117.61817 353.8909 118.4463Q353.15652 119.27442 351.4534 120.71192Q350.03152 121.91505 349.62527 122.33692Q349.21902 122.7588 348.96902 123.1963L355.28152 123.1963ZM365.28152 123.1963L365.28152 124.71192L356.7659 124.71192Q356.75027 124.1338 356.9534 123.61817Q357.28152 122.74317 357.98465 121.89942Q358.7034 121.05567 360.06277 119.9463Q362.15652 118.22755 362.8909 117.22755Q363.6409 116.21192 363.6409 115.3213Q363.6409 114.36817 362.96902 113.72755Q362.29715 113.08692 361.21902 113.08692Q360.06277 113.08692 359.37527 113.77442Q358.7034 114.46192 358.68777 115.66505L357.06277 115.49317Q357.23465 113.68067 358.31277 112.72755Q359.40652 111.77442 361.25027 111.77442Q363.09402 111.77442 364.17215 112.80567Q365.2659 113.83692 365.2659 115.35255Q365.2659 116.11817 364.93777 116.86817Q364.62527 117.61817 363.8909 118.4463Q363.15652 119.27442 361.4534 120.71192Q360.03152 121.91505 359.62527 122.33692Q359.21902 122.7588 358.96902 123.1963L365.28152 123.1963ZM367.85965 124.71192L367.85965 122.91505L369.65652 122.91505L369.65652 124.71192L367.85965 124.71192ZM380.28152 123.1963L380.28152 124.71192L371.7659 124.71192Q371.75027 124.1338 371.9534 123.61817Q372.28152 122.74317 372.98465 121.89942Q373.7034 121.05567 375.06277 119.9463Q377.15652 118.22755 377.8909 117.22755Q378.6409 116.21192 378.6409 115.3213Q378.6409 114.36817 377.96902 113.72755Q377.29715 113.08692 376.21902 113.08692Q375.06277 113.08692 374.37527 113.77442Q373.7034 114.46192 373.68777 115.66505L372.06277 115.49317Q372.23465 113.68067 373.31277 112.72755Q374.40652 111.77442 376.25027 111.77442Q378.09402 111.77442 379.17215 112.80567Q380.2659 113.83692 380.2659 115.35255Q380.2659 116.11817 379.93777 116.86817Q379.62527 117.61817 378.8909 118.4463Q378.15652 119.27442 376.4534 120.71192Q375.03152 121.91505 374.62527 122.33692Q374.21902 122.7588 373.96902 123.1963L380.28152 123.1963ZM382.2659 114.91505Q382.2659 113.54005 382.9534 112.5713Q383.65652 111.60255 384.96902 111.60255Q386.18777 111.60255 386.98465 112.47755Q387.78152 113.33692 387.78152 115.02442Q387.78152 116.64942 386.96902 117.54005Q386.17215 118.41505 384.98465 118.41505Q383.8284 118.41505 383.04715 117.55567Q382.2659 116.68067 382.2659 114.91505ZM385.0159 112.6963Q384.42215 112.6963 384.03152 113.21192Q383.6409 113.71192 383.6409 115.0713Q383.6409 116.3213 384.03152 116.8213Q384.43777 117.3213 385.0159 117.3213Q385.60965 117.3213 386.00027 116.8213Q386.3909 116.30567 386.3909 114.96192Q386.3909 113.71192 386.00027 113.21192Q385.60965 112.6963 385.0159 112.6963ZM385.03152 125.18067L392.0784 111.60255L393.35965 111.60255L386.3284 125.18067L385.03152 125.18067ZM390.59402 121.68067Q390.59402 120.30567 391.28152 119.33692Q391.98465 118.36817 393.31277 118.36817Q394.53152 118.36817 395.31277 119.24317Q396.10965 120.10255 396.10965 121.79005Q396.10965 123.41505 395.31277 124.30567Q394.5159 125.18067 393.3284 125.18067Q392.15652 125.18067 391.37527 124.30567Q390.59402 123.43067 390.59402 121.68067ZM393.35965 119.46192Q392.7659 119.46192 392.37527 119.97755Q391.98465 120.47755 391.98465 121.85255Q391.98465 123.0713 392.37527 123.58692Q392.7659 124.10255 393.34402 124.10255Q393.9534 124.10255 394.34402 123.58692Q394.73465 123.0713 394.73465 121.72755Q394.73465 120.47755 394.34402 119.97755Q393.9534 119.46192 393.35965 119.46192Z" fill-rule="nonzero"/><path fill="#ffffff" d="M380.18927 264.4552L380.18927 265.97083L371.67365 265.97083Q371.65802 265.3927 371.86115 264.87708Q372.18927 264.00208 372.8924 263.15833Q373.61115 262.31458 374.97052 261.2052Q377.06427 259.48645 377.79865 258.48645Q378.54865 257.47083 378.54865 256.5802Q378.54865 255.62708 377.87677 254.98645Q377.2049 254.34583 376.12677 254.34583Q374.97052 254.34583 374.28302 255.03333Q373.61115 255.72083 373.59552 256.92395L371.97052 256.75208Q372.1424 254.93958 373.22052 253.98645Q374.31427 253.03333 376.15802 253.03333Q378.00177 253.03333 379.0799 254.06458Q380.17365 255.09583 380.17365 256.61145Q380.17365 257.37708 379.84552 258.12708Q379.53302 258.87708 378.79865 259.7052Q378.06427 260.53333 376.36115 261.97083Q374.93927 263.17395 374.53302 263.59583Q374.12677 264.0177 373.87677 264.4552L380.18927 264.4552ZM390.18927 264.4552L390.18927 265.97083L381.67365 265.97083Q381.65802 265.3927 381.86115 264.87708Q382.18927 264.00208 382.8924 263.15833Q383.61115 262.31458 384.97052 261.2052Q387.06427 259.48645 387.79865 258.48645Q388.54865 257.47083 388.54865 256.5802Q388.54865 255.62708 387.87677 254.98645Q387.2049 254.34583 386.12677 254.34583Q384.97052 254.34583 384.28302 255.03333Q383.61115 255.72083 383.59552 256.92395L381.97052 256.75208Q382.1424 254.93958 383.22052 253.98645Q384.31427 253.03333 386.15802 253.03333Q388.00177 253.03333 389.0799 254.06458Q390.17365 255.09583 390.17365 256.61145Q390.17365 257.37708 389.84552 258.12708Q389.53302 258.87708 388.79865 259.7052Q388.06427 260.53333 386.36115 261.97083Q384.93927 263.17395 384.53302 263.59583Q384.12677 264.0177 383.87677 264.4552L390.18927 264.4552ZM392.7674 265.97083L392.7674 264.17395L394.56427 264.17395L394.56427 265.97083L392.7674 265.97083ZM405.18927 264.4552L405.18927 265.97083L396.67365 265.97083Q396.65802 265.3927 396.86115 264.87708Q397.18927 264.00208 397.8924 263.15833Q398.61115 262.31458 399.97052 261.2052Q402.06427 259.48645 402.79865 258.48645Q403.54865 257.47083 403.54865 256.5802Q403.54865 255.62708 402.87677 254.98645Q402.2049 254.34583 401.12677 254.34583Q399.97052 254.34583 399.28302 255.03333Q398.61115 255.72083 398.59552 256.92395L396.97052 256.75208Q397.1424 254.93958 398.22052 253.98645Q399.31427 253.03333 401.15802 253.03333Q403.00177 253.03333 404.0799 254.06458Q405.17365 255.09583 405.17365 256.61145Q405.17365 257.37708 404.84552 258.12708Q404.53302 258.87708 403.79865 259.7052Q403.06427 260.53333 401.36115 261.97083Q399.93927 263.17395 399.53302 263.59583Q399.12677 264.0177 398.87677 264.4552L405.18927 264.4552ZM407.17365 256.17395Q407.17365 254.79895 407.86115 253.8302Q408.56427 252.86145 409.87677 252.86145Q411.09552 252.86145 411.8924 253.73645Q412.68927 254.59583 412.68927 256.28333Q412.68927 257.90833 411.87677 258.79895Q411.0799 259.67395 409.8924 259.67395Q408.73615 259.67395 407.9549 258.81458Q407.17365 257.93958 407.17365 256.17395ZM409.92365 253.9552Q409.3299 253.9552 408.93927 254.47083Q408.54865 254.97083 408.54865 256.3302Q408.54865 257.5802 408.93927 258.0802Q409.34552 258.5802 409.92365 258.5802Q410.5174 258.5802 410.90802 258.0802Q411.29865 257.56458 411.29865 256.22083Q411.29865 254.97083 410.90802 254.47083Q410.5174 253.9552 409.92365 253.9552ZM409.93927 266.43958L416.98615 252.86145L418.2674 252.86145L411.23615 266.43958L409.93927 266.43958ZM415.50177 262.93958Q415.50177 261.56458 416.18927 260.59583Q416.8924 259.62708 418.22052 259.62708Q419.43927 259.62708 420.22052 260.50208Q421.0174 261.36145 421.0174 263.04895Q421.0174 264.67395 420.22052 265.56458Q419.42365 266.43958 418.23615 266.43958Q417.06427 266.43958 416.28302 265.56458Q415.50177 264.68958 415.50177 262.93958ZM418.2674 260.72083Q417.67365 260.72083 417.28302 261.23645Q416.8924 261.73645 416.8924 263.11145Q416.8924 264.3302 417.28302 264.84583Q417.67365 265.36145 418.25177 265.36145Q418.86115 265.36145 419.25177 264.84583Q419.6424 264.3302 419.6424 262.98645Q419.6424 261.73645 419.25177 261.23645Q418.86115 260.72083 418.2674 260.72083Z" fill-rule="nonzero"/><path fill="#ffffff" d="M245.4016 313.51392L245.4016 315.02954L236.88597 315.02954Q236.87035 314.45142 237.07347 313.9358Q237.4016 313.0608 238.10472 312.21704Q238.82347 311.3733 240.18285 310.26392Q242.2766 308.54517 243.01097 307.54517Q243.76097 306.52954 243.76097 305.63892Q243.76097 304.6858 243.0891 304.04517Q242.41722 303.40454 241.3391 303.40454Q240.18285 303.40454 239.49535 304.09204Q238.82347 304.77954 238.80785 305.98267L237.18285 305.8108Q237.35472 303.9983 238.43285 303.04517Q239.5266 302.09204 241.37035 302.09204Q243.2141 302.09204 244.29222 303.1233Q245.38597 304.15454 245.38597 305.67017Q245.38597 306.4358 245.05785 307.1858Q244.74535 307.9358 244.01097 308.76392Q243.2766 309.59204 241.57347 311.02954Q240.1516 312.23267 239.74535 312.65454Q239.3391 313.07642 239.0891 313.51392L245.4016 313.51392ZM255.4016 313.51392L255.4016 315.02954L246.88597 315.02954Q246.87035 314.45142 247.07347 313.9358Q247.4016 313.0608 248.10472 312.21704Q248.82347 311.3733 250.18285 310.26392Q252.2766 308.54517 253.01097 307.54517Q253.76097 306.52954 253.76097 305.63892Q253.76097 304.6858 253.0891 304.04517Q252.41722 303.40454 251.3391 303.40454Q250.18285 303.40454 249.49535 304.09204Q248.82347 304.77954 248.80785 305.98267L247.18285 305.8108Q247.35472 303.9983 248.43285 303.04517Q249.5266 302.09204 251.37035 302.09204Q253.2141 302.09204 254.29222 303.1233Q255.38597 304.15454 255.38597 305.67017Q255.38597 306.4358 255.05785 307.1858Q254.74535 307.9358 254.01097 308.76392Q253.2766 309.59204 251.57347 311.02954Q250.1516 312.23267 249.74535 312.65454Q249.3391 313.07642 249.0891 313.51392L255.4016 313.51392ZM257.97974 315.02954L257.97974 313.23267L259.7766 313.23267L259.7766 315.02954L257.97974 315.02954ZM270.4016 313.51392L270.4016 315.02954L261.886 315.02954Q261.87036 314.45142 262.0735 313.9358Q262.4016 313.0608 263.10474 312.21704Q263.8235 311.3733 265.18286 310.26392Q267.2766 308.54517 268.011 307.54517Q268.761 306.52954 268.761 305.63892Q268.761 304.6858 268.0891 304.04517Q267.41724 303.40454 266.3391 303.40454Q265.18286 303.40454 264.49536 304.09204Q263.8235 304.77954 263.80786 305.98267L262.18286 305.8108Q262.35474 303.9983 263.43286 303.04517Q264.5266 302.09204 266.37036 302.09204Q268.2141 302.09204 269.29224 303.1233Q270.386 304.15454 270.386 305.67017Q270.386 306.4358 270.05786 307.1858Q269.74536 307.9358 269.011 308.76392Q268.2766 309.59204 266.5735 311.02954Q265.1516 312.23267 264.74536 312.65454Q264.3391 313.07642 264.0891 313.51392L270.4016 313.51392ZM272.386 305.23267Q272.386 303.85767 273.0735 302.88892Q273.7766 301.92017 275.0891 301.92017Q276.30786 301.92017 277.10474 302.79517Q277.9016 303.65454 277.9016 305.34204Q277.9016 306.96704 277.0891 307.85767Q276.29224 308.73267 275.10474 308.73267Q273.9485 308.73267 273.16724 307.8733Q272.386 306.9983 272.386 305.23267ZM275.136 303.01392Q274.54224 303.01392 274.1516 303.52954Q273.761 304.02954 273.761 305.38892Q273.761 306.63892 274.1516 307.13892Q274.55786 307.63892 275.136 307.63892Q275.72974 307.63892 276.12036 307.13892Q276.511 306.6233 276.511 305.27954Q276.511 304.02954 276.12036 303.52954Q275.72974 303.01392 275.136 303.01392ZM275.1516 315.4983L282.1985 301.92017L283.47974 301.92017L276.4485 315.4983L275.1516 315.4983ZM280.7141 311.9983Q280.7141 310.6233 281.4016 309.65454Q282.10474 308.6858 283.43286 308.6858Q284.6516 308.6858 285.43286 309.5608Q286.22974 310.42017 286.22974 312.10767Q286.22974 313.73267 285.43286 314.6233Q284.636 315.4983 283.4485 315.4983Q282.2766 315.4983 281.49536 314.6233Q280.7141 313.7483 280.7141 311.9983ZM283.47974 309.77954Q282.886 309.77954 282.49536 310.29517Q282.10474 310.79517 282.10474 312.17017Q282.10474 313.38892 282.49536 313.90454Q282.886 314.42017 283.4641 314.42017Q284.0735 314.42017 284.4641 313.90454Q284.85474 313.38892 284.85474 312.04517Q284.85474 310.79517 284.4641 310.29517Q284.0735 309.77954 283.47974 309.77954Z" fill-rule="nonzero"/><path fill="#ffffff" d="M171.3232 229.55814L169.74507 229.55814L169.74507 219.48001Q169.16695 220.02689 168.24507 220.57376Q167.3232 221.10501 166.5732 221.38626L166.5732 219.85501Q167.90132 219.23001 168.90132 218.33939Q169.90132 217.44876 170.30757 216.62064L171.3232 216.62064L171.3232 229.55814ZM181.3232 229.55814L179.74507 229.55814L179.74507 219.48001Q179.16695 220.02689 178.24507 220.57376Q177.3232 221.10501 176.5732 221.38626L176.5732 219.85501Q177.90132 219.23001 178.90132 218.33939Q179.90132 217.44876 180.30757 216.62064L181.3232 216.62064L181.3232 229.55814ZM186.2607 229.55814L186.2607 227.76126L188.05757 227.76126L188.05757 229.55814L186.2607 229.55814ZM196.3232 229.55814L194.74507 229.55814L194.74507 219.48001Q194.16695 220.02689 193.24507 220.57376Q192.3232 221.10501 191.5732 221.38626L191.5732 219.85501Q192.90132 219.23001 193.90132 218.33939Q194.90132 217.44876 195.30757 216.62064L196.3232 216.62064L196.3232 229.55814ZM200.66695 219.76126Q200.66695 218.38626 201.35445 217.41751Q202.05757 216.44876 203.37007 216.44876Q204.58882 216.44876 205.3857 217.32376Q206.18257 218.18314 206.18257 219.87064Q206.18257 221.49564 205.37007 222.38626Q204.5732 223.26126 203.3857 223.26126Q202.22945 223.26126 201.4482 222.40189Q200.66695 221.52689 200.66695 219.76126ZM203.41695 217.54251Q202.8232 217.54251 202.43257 218.05814Q202.04195 218.55814 202.04195 219.91751Q202.04195 221.16751 202.43257 221.66751Q202.83882 222.16751 203.41695 222.16751Q204.0107 222.16751 204.40132 221.66751Q204.79195 221.15189 204.79195 219.80814Q204.79195 218.55814 204.40132 218.05814Q204.0107 217.54251 203.41695 217.54251ZM203.43257 230.02689L210.47945 216.44876L211.7607 216.44876L204.72945 230.02689L203.43257 230.02689ZM208.99507 226.52689Q208.99507 225.15189 209.68257 224.18314Q210.3857 223.21439 211.71382 223.21439Q212.93257 223.21439 213.71382 224.08939Q214.5107 224.94876 214.5107 226.63626Q214.5107 228.26126 213.71382 229.15189Q212.91695 230.02689 211.72945 230.02689Q210.55757 230.02689 209.77632 229.15189Q208.99507 228.27689 208.99507 226.52689ZM211.7607 224.30814Q211.16695 224.30814 210.77632 224.82376Q210.3857 225.32376 210.3857 226.69876Q210.3857 227.91751 210.77632 228.43314Q211.16695 228.94876 211.74507 228.94876Q212.35445 228.94876 212.74507 228.43314Q213.1357 227.91751 213.1357 226.57376Q213.1357 225.32376 212.74507 224.82376Q212.35445 224.30814 211.7607 224.30814Z" fill-rule="nonzero"/><path fill="#ffffff" d="M184.57634 154.39583L182.99821 154.39583L182.99821 144.3177Q182.42009 144.86458 181.49821 145.41145Q180.57634 145.9427 179.82634 146.22395L179.82634 144.6927Q181.15446 144.0677 182.15446 143.17708Q183.15446 142.28645 183.56071 141.45833L184.57634 141.45833L184.57634 154.39583ZM194.57634 154.39583L192.99821 154.39583L192.99821 144.3177Q192.42009 144.86458 191.49821 145.41145Q190.57634 145.9427 189.82634 146.22395L189.82634 144.6927Q191.15446 144.0677 192.15446 143.17708Q193.15446 142.28645 193.56071 141.45833L194.57634 141.45833L194.57634 154.39583ZM199.51384 154.39583L199.51384 152.59895L201.31071 152.59895L201.31071 154.39583L199.51384 154.39583ZM209.57634 154.39583L207.99821 154.39583L207.99821 144.3177Q207.42009 144.86458 206.49821 145.41145Q205.57634 145.9427 204.82634 146.22395L204.82634 144.6927Q206.15446 144.0677 207.15446 143.17708Q208.15446 142.28645 208.56071 141.45833L209.57634 141.45833L209.57634 154.39583ZM213.92009 144.59895Q213.92009 143.22395 214.60759 142.2552Q215.31071 141.28645 216.62321 141.28645Q217.84196 141.28645 218.63884 142.16145Q219.43571 143.02083 219.43571 144.70833Q219.43571 146.33333 218.62321 147.22395Q217.82634 148.09895 216.63884 148.09895Q215.48259 148.09895 214.70134 147.23958Q213.92009 146.36458 213.92009 144.59895ZM216.67009 142.3802Q216.07634 142.3802 215.68571 142.89583Q215.29509 143.39583 215.29509 144.7552Q215.29509 146.0052 215.68571 146.5052Q216.09196 147.0052 216.67009 147.0052Q217.26384 147.0052 217.65446 146.5052Q218.04509 145.98958 218.04509 144.64583Q218.04509 143.39583 217.65446 142.89583Q217.26384 142.3802 216.67009 142.3802ZM216.68571 154.86458L223.73259 141.28645L225.01384 141.28645L217.98259 154.86458L216.68571 154.86458ZM222.24821 151.36458Q222.24821 149.98958 222.93571 149.02083Q223.63884 148.05208 224.96696 148.05208Q226.18571 148.05208 226.96696 148.92708Q227.76384 149.78645 227.76384 151.47395Q227.76384 153.09895 226.96696 153.98958Q226.17009 154.86458 224.98259 154.86458Q223.81071 154.86458 223.02946 153.98958Q222.24821 153.11458 222.24821 151.36458ZM225.01384 149.14583Q224.42009 149.14583 224.02946 149.66145Q223.63884 150.16145 223.63884 151.53645Q223.63884 152.7552 224.02946 153.27083Q224.42009 153.78645 224.99821 153.78645Q225.60759 153.78645 225.99821 153.27083Q226.38884 152.7552 226.38884 151.41145Q226.38884 150.16145 225.99821 149.66145Q225.60759 149.14583 225.01384 149.14583Z" fill-rule="nonzero"/><path fill="#ffffff" d="M243.04222 105.33713L241.4641 105.33713L241.4641 95.259Q240.88597 95.80588 239.9641 96.35275Q239.04222 96.884 238.29222 97.16525L238.29222 95.634Q239.62035 95.009 240.62035 94.11838Q241.62035 93.22775 242.0266 92.39963L243.04222 92.39963L243.04222 105.33713ZM253.04222 105.33713L251.4641 105.33713L251.4641 95.259Q250.88597 95.80588 249.9641 96.35275Q249.04222 96.884 248.29222 97.16525L248.29222 95.634Q249.62035 95.009 250.62035 94.11838Q251.62035 93.22775 252.0266 92.39963L253.04222 92.39963L253.04222 105.33713ZM257.97974 105.33713L257.97974 103.54025L259.7766 103.54025L259.7766 105.33713L257.97974 105.33713ZM268.04224 105.33713L266.4641 105.33713L266.4641 95.259Q265.886 95.80588 264.9641 96.35275Q264.04224 96.884 263.29224 97.16525L263.29224 95.634Q264.62036 95.009 265.62036 94.11838Q266.62036 93.22775 267.0266 92.39963L268.04224 92.39963L268.04224 105.33713ZM272.386 95.54025Q272.386 94.16525 273.0735 93.1965Q273.7766 92.22775 275.0891 92.22775Q276.30786 92.22775 277.10474 93.10275Q277.9016 93.96213 277.9016 95.64963Q277.9016 97.27463 277.0891 98.16525Q276.29224 99.04025 275.10474 99.04025Q273.9485 99.04025 273.16724 98.18088Q272.386 97.30588 272.386 95.54025ZM275.136 93.3215Q274.54224 93.3215 274.1516 93.83713Q273.761 94.33713 273.761 95.6965Q273.761 96.9465 274.1516 97.4465Q274.55786 97.9465 275.136 97.9465Q275.72974 97.9465 276.12036 97.4465Q276.511 96.93088 276.511 95.58713Q276.511 94.33713 276.12036 93.83713Q275.72974 93.3215 275.136 93.3215ZM275.1516 105.80588L282.1985 92.22775L283.47974 92.22775L276.4485 105.80588L275.1516 105.80588ZM280.7141 102.30588Q280.7141 100.93088 281.4016 99.96213Q282.10474 98.99338 283.43286 98.99338Q284.6516 98.99338 285.43286 99.86838Q286.22974 100.72775 286.22974 102.41525Q286.22974 104.04025 285.43286 104.93088Q284.636 105.80588 283.4485 105.80588Q282.2766 105.80588 281.49536 104.93088Q280.7141 104.05588 280.7141 102.30588ZM283.47974 100.08713Q282.886 100.08713 282.49536 100.60275Q282.10474 101.10275 282.10474 102.47775Q282.10474 103.6965 282.49536 104.21213Q282.886 104.72775 283.4641 104.72775Q284.0735 104.72775 284.4641 104.21213Q284.85474 103.6965 284.85474 102.35275Q284.85474 101.10275 284.4641 100.60275Q284.0735 100.08713 283.47974 100.08713Z" fill-rule="nonzero"/><path stroke="#ffffff" stroke-width="1.0" stroke-linejoin="round" stroke-linecap="round" d="M373.2533 190.7668C366.985 155.21745 336.09775 129.3 300.0 129.3L300.0 54.916668C372.19553 54.916668 433.96994 106.751564 446.50656 177.85027" fill-rule="nonzero"/><path stroke="#ffffff" stroke-width="1.0" stroke-linejoin="round" stroke-linecap="round" d="M325.4406 273.5808C359.3614 261.23465 379.5216 226.31616 373.2533 190.7668L446.50656 177.85027C459.04318 248.94897 418.72278 318.78595 350.8812 343.47827" fill-rule="nonzero"/><path stroke="#ffffff" stroke-width="1.0" stroke-linejoin="round" stroke-linecap="round" d="M235.58214 240.875C253.63103 272.13657 291.5198 285.92697 325.4406 273.5808L350.8812 343.47827C283.0396 368.1706 207.26204 340.5898 171.16429 278.06668" fill-rule="nonzero"/><path stroke="#ffffff" stroke-width="1.0" stroke-linejoin="round" stroke-linecap="round" d="M226.74672 190.7668C223.71 207.98885 226.83829 225.7302 235.58214 240.875L171.16429 278.06668C153.67657 247.77705 147.42001 212.29436 153.49344 177.85027" fill-rule="nonzero"/><path stroke="#ffffff" stroke-width="1.0" stroke-linejoin="round" stroke-linecap="round" d="M252.18732 146.7024C238.79094 157.94328 229.78343 173.54477 226.74672 190.7668L153.49344 177.85027C159.56685 143.40619 177.5819 112.20323 204.37463 89.72146" fill-rule="nonzero"/><path stroke="#ffffff" stroke-width="1.0" stroke-linejoin="round" stroke-linecap="round" d="M300.0 129.3C282.51227 129.3 265.58368 135.4615 252.18732 146.7024L204.37463 89.72146C231.16737 67.23968 265.02457 54.916668 300.0 54.916668" fill-rule="nonzero"/><path fill="#efefef" d="M19.76875 69.916664L19.76875 58.46354L21.33125 58.46354L27.346874 67.447914L27.346874 58.46354L28.8 58.46354L28.8 69.916664L27.2375 69.916664L21.221874 60.916664L21.221874 69.916664L19.76875 69.916664ZM37.01875 68.885414Q36.2375 69.55729 35.51875 69.83854Q34.8 70.104164 33.971874 70.104164Q32.596874 70.104164 31.8625 69.43229Q31.128124 68.760414 31.128124 67.729164Q31.128124 67.11979 31.409374 66.61979Q31.690624 66.104164 32.128124 65.80729Q32.58125 65.49479 33.14375 65.33854Q33.565624 65.229164 34.39375 65.135414Q36.096874 64.93229 36.909374 64.65104Q36.909374 64.354164 36.909374 64.27604Q36.909374 63.416664 36.51875 63.072914Q35.971874 62.58854 34.909374 62.58854Q33.925 62.58854 33.440624 62.947914Q32.971874 63.291664 32.753124 64.166664L31.378124 63.979164Q31.565624 63.104164 31.9875 62.55729Q32.425 62.010414 33.2375 61.729164Q34.05 61.43229 35.1125 61.43229Q36.175 61.43229 36.83125 61.68229Q37.503124 61.93229 37.815624 62.30729Q38.128124 62.68229 38.253124 63.260414Q38.33125 63.61979 38.33125 64.55729L38.33125 66.43229Q38.33125 68.40104 38.409374 68.916664Q38.503124 69.43229 38.76875 69.916664L37.3 69.916664Q37.08125 69.479164 37.01875 68.885414ZM36.909374 65.74479Q36.14375 66.05729 34.6125 66.27604Q33.7375 66.40104 33.378124 66.55729Q33.01875 66.71354 32.815624 67.02604Q32.628124 67.322914 32.628124 67.68229Q32.628124 68.24479 33.05 68.61979Q33.4875 68.99479 34.3 68.99479Q35.1125 68.99479 35.7375 68.65104Q36.378124 68.291664 36.675 67.666664Q36.909374 67.197914 36.909374 66.260414L36.909374 65.74479ZM42.909374 69.916664L39.753124 61.61979L41.2375 61.61979L43.01875 66.58854Q43.315624 67.385414 43.55 68.260414Q43.7375 67.604164 44.08125 66.68229L45.925 61.61979L47.3625 61.61979L44.221874 69.916664L42.909374 69.916664ZM54.01875 68.885414Q53.2375 69.55729 52.51875 69.83854Q51.8 70.104164 50.971874 70.104164Q49.596874 70.104164 48.8625 69.43229Q48.128124 68.760414 48.128124 67.729164Q48.128124 67.11979 48.409374 66.61979Q48.690624 66.104164 49.128124 65.80729Q49.58125 65.49479 50.14375 65.33854Q50.565624 65.229164 51.39375 65.135414Q53.096874 64.93229 53.909374 64.65104Q53.909374 64.354164 53.909374 64.27604Q53.909374 63.416664 53.51875 63.072914Q52.971874 62.58854 51.909374 62.58854Q50.925 62.58854 50.440624 62.947914Q49.971874 63.291664 49.753124 64.166664L48.378124 63.979164Q48.565624 63.104164 48.9875 62.55729Q49.425 62.010414 50.2375 61.729164Q51.05 61.43229 52.1125 61.43229Q53.175 61.43229 53.83125 61.68229Q54.503124 61.93229 54.815624 62.30729Q55.128124 62.68229 55.253124 63.260414Q55.33125 63.61979 55.33125 64.55729L55.33125 66.43229Q55.33125 68.40104 55.409374 68.916664Q55.503124 69.43229 55.76875 69.916664L54.3 69.916664Q54.08125 69.479164 54.01875 68.885414ZM53.909374 65.74479Q53.14375 66.05729 51.6125 66.27604Q50.7375 66.40104 50.378124 66.55729Q50.01875 66.71354 49.815624 67.02604Q49.628124 67.322914 49.628124 67.68229Q49.628124 68.24479 50.05 68.61979Q50.4875 68.99479 51.3 68.99479Q52.1125 68.99479 52.7375 68.65104Q53.378124 68.291664 53.675 67.666664Q53.909374 67.197914 53.909374 66.260414L53.909374 65.74479ZM57.58125 69.916664L57.58125 58.46354L58.9875 58.46354L58.9875 69.916664L57.58125 69.916664ZM65.26875 66.229164L66.70625 66.104164Q66.8 66.96354 67.175 67.52604Q67.55 68.072914 68.33125 68.416664Q69.1125 68.74479 70.08125 68.74479Q70.95625 68.74479 71.6125 68.49479Q72.28438 68.229164 72.59688 67.791664Q72.925 67.33854 72.925 66.80729Q72.925 66.260414 72.6125 65.86979Q72.3 65.46354 71.58125 65.18229Q71.12813 65.010414 69.55 64.635414Q67.97188 64.24479 67.33125 63.916664Q66.51875 63.479164 66.1125 62.854164Q65.70625 62.21354 65.70625 61.416664Q65.70625 60.55729 66.19063 59.80729Q66.69063 59.041664 67.62813 58.65104Q68.58125 58.260414 69.7375 58.260414Q71.01875 58.260414 71.9875 58.68229Q72.95625 59.08854 73.47188 59.885414Q74.00313 60.68229 74.05 61.68229L72.59688 61.791664Q72.47188 60.71354 71.8 60.166664Q71.12813 59.604164 69.8 59.604164Q68.425 59.604164 67.8 60.104164Q67.175 60.604164 67.175 61.322914Q67.175 61.93229 67.6125 62.33854Q68.05 62.729164 69.89375 63.15104Q71.75313 63.572914 72.44063 63.885414Q73.44063 64.33854 73.90938 65.05729Q74.39375 65.760414 74.39375 66.68229Q74.39375 67.58854 73.8625 68.40104Q73.34688 69.21354 72.3625 69.666664Q71.37813 70.11979 70.15938 70.11979Q68.59688 70.11979 67.55 69.666664Q66.50313 69.197914 65.89375 68.291664Q65.3 67.385414 65.26875 66.229164ZM79.675 68.65104L79.87813 69.90104Q79.28438 70.02604 78.81563 70.02604Q78.05 70.02604 77.62813 69.791664Q77.20625 69.541664 77.03438 69.15104Q76.8625 68.74479 76.8625 67.479164L76.8625 62.71354L75.83125 62.71354L75.83125 61.61979L76.8625 61.61979L76.8625 59.55729L78.26875 58.71354L78.26875 61.61979L79.675 61.61979L79.675 62.71354L78.26875 62.71354L78.26875 67.55729Q78.26875 68.166664 78.33125 68.33854Q78.40938 68.510414 78.58125 68.61979Q78.75313 68.71354 79.06563 68.71354Q79.3 68.71354 79.675 68.65104ZM80.59688 69.916664L80.59688 61.61979L81.8625 61.61979L81.8625 62.86979Q82.34688 61.99479 82.75313 61.71354Q83.15938 61.43229 83.65938 61.43229Q84.3625 61.43229 85.09688 61.885414L84.6125 63.18229Q84.09688 62.885414 83.58125 62.885414Q83.12813 62.885414 82.75313 63.166664Q82.39375 63.43229 82.2375 63.93229Q82.00313 64.68229 82.00313 65.572914L82.00313 69.916664L80.59688 69.916664ZM91.05 69.916664L91.05 68.697914Q90.08125 70.104164 88.40938 70.104164Q87.675 70.104164 87.03438 69.822914Q86.40938 69.541664 86.09688 69.11979Q85.78438 68.68229 85.65938 68.072914Q85.58125 67.65104 85.58125 66.760414L85.58125 61.61979L86.9875 61.61979L86.9875 66.21354Q86.9875 67.322914 87.06563 67.697914Q87.20625 68.260414 87.62813 68.572914Q88.06563 68.885414 88.69063 68.885414Q89.33125 68.885414 89.87813 68.572914Q90.44063 68.24479 90.65938 67.68229Q90.89375 67.11979 90.89375 66.05729L90.89375 61.61979L92.3 61.61979L92.3 69.916664L91.05 69.916664ZM100.01875 66.86979L101.40938 67.05729Q101.175 68.479164 100.2375 69.291664Q99.31563 70.104164 97.95625 70.104164Q96.25313 70.104164 95.20625 68.99479Q94.175 67.86979 94.175 65.791664Q94.175 64.447914 94.6125 63.447914Q95.06563 62.43229 95.97188 61.93229Q96.89375 61.43229 97.95625 61.43229Q99.31563 61.43229 100.175 62.11979Q101.03438 62.791664 101.26875 64.05729L99.90938 64.260414Q99.70625 63.43229 99.20625 63.010414Q98.72188 62.58854 98.01875 62.58854Q96.95625 62.58854 96.28438 63.354164Q95.62813 64.104164 95.62813 65.760414Q95.62813 67.43229 96.26875 68.197914Q96.90938 68.947914 97.94063 68.947914Q98.76875 68.947914 99.31563 68.447914Q99.87813 67.93229 100.01875 66.86979ZM105.675 68.65104L105.87813 69.90104Q105.28438 70.02604 104.81563 70.02604Q104.05 70.02604 103.62813 69.791664Q103.20625 69.541664 103.03438 69.15104Q102.8625 68.74479 102.8625 67.479164L102.8625 62.71354L101.83125 62.71354L101.83125 61.61979L102.8625 61.61979L102.8625 59.55729L104.26875 58.71354L104.26875 61.61979L105.675 61.61979L105.675 62.71354L104.26875 62.71354L104.26875 67.55729Q104.26875 68.166664 104.33125 68.33854Q104.40938 68.510414 104.58125 68.61979Q104.75313 68.71354 105.06563 68.71354Q105.3 68.71354 105.675 68.65104ZM112.05 69.916664L112.05 68.697914Q111.08125 70.104164 109.40938 70.104164Q108.675 70.104164 108.03438 69.822914Q107.40938 69.541664 107.09688 69.11979Q106.78438 68.68229 106.65938 68.072914Q106.58125 67.65104 106.58125 66.760414L106.58125 61.61979L107.9875 61.61979L107.9875 66.21354Q107.9875 67.322914 108.06563 67.697914Q108.20625 68.260414 108.62813 68.572914Q109.06563 68.885414 109.69063 68.885414Q110.33125 68.885414 110.87813 68.572914Q111.44063 68.24479 111.65938 67.68229Q111.89375 67.11979 111.89375 66.05729L111.89375 61.61979L113.3 61.61979L113.3 69.916664L112.05 69.916664ZM115.59688 69.916664L115.59688 61.61979L116.8625 61.61979L116.8625 62.86979Q117.34688 61.99479 117.75313 61.71354Q118.15938 61.43229 118.65938 61.43229Q119.3625 61.43229 120.09688 61.885414L119.6125 63.18229Q119.09688 62.885414 118.58125 62.885414Q118.12813 62.885414 117.75313 63.166664Q117.39375 63.43229 117.2375 63.93229Q117.00313 64.68229 117.00313 65.572914L117.00313 69.916664L115.59688 69.916664ZM126.28438 67.24479L127.7375 67.416664Q127.39375 68.697914 126.45625 69.40104Q125.53438 70.104164 124.09688 70.104164Q122.26875 70.104164 121.20625 68.979164Q120.14375 67.854164 120.14375 65.83854Q120.14375 63.74479 121.22188 62.58854Q122.3 61.43229 124.01875 61.43229Q125.675 61.43229 126.72188 62.572914Q127.78438 63.697914 127.78438 65.74479Q127.78438 65.86979 127.78438 66.11979L121.59688 66.11979Q121.675 67.49479 122.3625 68.229164Q123.06563 68.947914 124.09688 68.947914Q124.87813 68.947914 125.425 68.541664Q125.97188 68.135414 126.28438 67.24479ZM121.675 64.96354L126.3 64.96354Q126.20625 63.916664 125.76875 63.40104Q125.09688 62.58854 124.03438 62.58854Q123.06563 62.58854 122.39375 63.24479Q121.7375 63.885414 121.675 64.96354ZM129.05 67.43229L130.44063 67.21354Q130.55 68.05729 131.08125 68.510414Q131.62813 68.947914 132.58125 68.947914Q133.55 68.947914 134.01875 68.55729Q134.4875 68.15104 134.4875 67.61979Q134.4875 67.15104 134.08125 66.86979Q133.78438 66.68229 132.64375 66.40104Q131.09688 66.010414 130.4875 65.729164Q129.89375 65.43229 129.58125 64.93229Q129.28438 64.43229 129.28438 63.822914Q129.28438 63.260414 129.53438 62.791664Q129.78438 62.322914 130.22188 62.010414Q130.55 61.760414 131.1125 61.604164Q131.69063 61.43229 132.33125 61.43229Q133.31563 61.43229 134.05 61.71354Q134.78438 61.99479 135.12813 62.479164Q135.4875 62.947914 135.62813 63.760414L134.25313 63.947914Q134.15938 63.30729 133.70625 62.947914Q133.25313 62.58854 132.44063 62.58854Q131.47188 62.58854 131.05 62.916664Q130.64375 63.229164 130.64375 63.65104Q130.64375 63.93229 130.81563 64.15104Q130.9875 64.36979 131.34688 64.52604Q131.56563 64.604164 132.59688 64.885414Q134.08125 65.27604 134.675 65.541664Q135.26875 65.791664 135.59688 66.27604Q135.94063 66.760414 135.94063 67.479164Q135.94063 68.18229 135.51875 68.80729Q135.1125 69.416664 134.33125 69.760414Q133.56563 70.104164 132.59688 70.104164Q130.97188 70.104164 130.12813 69.43229Q129.28438 68.760414 129.05 67.43229Z" fill-rule="nonzero"/><path fill="#9e9e9e" d="M24.51875 91.916664L23.1125 91.916664L23.1125 82.947914Q22.596874 83.43229 21.76875 83.916664Q20.95625 84.40104 20.3 84.65104L20.3 83.291664Q21.471874 82.729164 22.346874 81.947914Q23.2375 81.15104 23.6125 80.416664L24.51875 80.416664L24.51875 91.916664ZM33.51875 91.916664L32.1125 91.916664L32.1125 82.947914Q31.596874 83.43229 30.76875 83.916664Q29.95625 84.40104 29.3 84.65104L29.3 83.291664Q30.471874 82.729164 31.346874 81.947914Q32.2375 81.15104 32.6125 80.416664L33.51875 80.416664L33.51875 91.916664ZM38.003124 91.916664L38.003124 90.30729L39.6125 90.30729L39.6125 91.916664L38.003124 91.916664ZM46.51875 91.916664L45.1125 91.916664L45.1125 82.947914Q44.596874 83.43229 43.76875 83.916664Q42.95625 84.40104 42.3 84.65104L42.3 83.291664Q43.471874 82.729164 44.346874 81.947914Q45.2375 81.15104 45.6125 80.416664L46.51875 80.416664L46.51875 91.916664ZM50.4875 83.21354Q50.4875 81.979164 51.096874 81.11979Q51.721874 80.260414 52.89375 80.260414Q53.971874 80.260414 54.675 81.041664Q55.378124 81.80729 55.378124 83.291664Q55.378124 84.74479 54.659374 85.541664Q53.95625 86.322914 52.909374 86.322914Q51.8625 86.322914 51.175 85.55729Q50.4875 84.77604 50.4875 83.21354ZM52.925 81.229164Q52.409374 81.229164 52.05 81.68229Q51.70625 82.135414 51.70625 83.354164Q51.70625 84.447914 52.05 84.90104Q52.409374 85.354164 52.925 85.354164Q53.45625 85.354164 53.8 84.90104Q54.159374 84.447914 54.159374 83.24479Q54.159374 82.135414 53.8 81.68229Q53.45625 81.229164 52.925 81.229164ZM52.940624 92.33854L59.20625 80.260414L60.346874 80.260414L54.096874 92.33854L52.940624 92.33854ZM57.89375 89.229164Q57.89375 87.99479 58.503124 87.135414Q59.128124 86.27604 60.3 86.27604Q61.378124 86.27604 62.08125 87.05729Q62.8 87.822914 62.8 89.30729Q62.8 90.760414 62.08125 91.55729Q61.3625 92.33854 60.315624 92.33854Q59.26875 92.33854 58.58125 91.55729Q57.89375 90.77604 57.89375 89.229164ZM60.346874 87.24479Q59.815624 87.24479 59.45625 87.697914Q59.1125 88.15104 59.1125 89.36979Q59.1125 90.46354 59.45625 90.916664Q59.815624 91.36979 60.33125 91.36979Q60.878124 91.36979 61.221874 90.916664Q61.565624 90.46354 61.565624 89.260414Q61.565624 88.15104 61.20625 87.697914Q60.8625 87.24479 60.346874 87.24479Z" fill-rule="nonzero"/><path stroke="#757575" stroke-width="1.0" stroke-linecap="butt" d="M18.55 75.416664L145.23334 75.416664L251.66286 70.87814" fill-rule="nonzero"/><path fill="#9e9e9e" d="M253.66286 70.87814C253.66286 69.773575 252.76743 68.87814 251.66286 68.87814C250.55829 68.87814 249.66286 69.773575 249.66286 70.87814C249.66286 71.98271 250.55829 72.87814 251.66286 72.87814C252.76743 72.87814 253.66286 71.98271 253.66286 70.87814" fill-rule="nonzero"/><path fill="#efefef" d="M19.76875 127.519165L19.76875 116.06604L21.33125 116.06604L27.346874 125.050415L27.346874 116.06604L28.8 116.06604L28.8 127.519165L27.2375 127.519165L21.221874 118.519165L21.221874 127.519165L19.76875 127.519165ZM37.01875 126.487915Q36.2375 127.15979 35.51875 127.44104Q34.8 127.706665 33.971874 127.706665Q32.596874 127.706665 31.8625 127.03479Q31.128124 126.362915 31.128124 125.331665Q31.128124 124.72229 31.409374 124.22229Q31.690624 123.706665 32.128124 123.40979Q32.58125 123.09729 33.14375 122.94104Q33.565624 122.831665 34.39375 122.737915Q36.096874 122.53479 36.909374 122.25354Q36.909374 121.956665 36.909374 121.87854Q36.909374 121.019165 36.51875 120.675415Q35.971874 120.19104 34.909374 120.19104Q33.925 120.19104 33.440624 120.550415Q32.971874 120.894165 32.753124 121.769165L31.378124 121.581665Q31.565624 120.706665 31.9875 120.15979Q32.425 119.612915 33.2375 119.331665Q34.05 119.03479 35.1125 119.03479Q36.175 119.03479 36.83125 119.28479Q37.503124 119.53479 37.815624 119.90979Q38.128124 120.28479 38.253124 120.862915Q38.33125 121.22229 38.33125 122.15979L38.33125 124.03479Q38.33125 126.00354 38.409374 126.519165Q38.503124 127.03479 38.76875 127.519165L37.3 127.519165Q37.08125 127.081665 37.01875 126.487915ZM36.909374 123.34729Q36.14375 123.65979 34.6125 123.87854Q33.7375 124.00354 33.378124 124.15979Q33.01875 124.31604 32.815624 124.62854Q32.628124 124.925415 32.628124 125.28479Q32.628124 125.84729 33.05 126.22229Q33.4875 126.59729 34.3 126.59729Q35.1125 126.59729 35.7375 126.25354Q36.378124 125.894165 36.675 125.269165Q36.909374 124.800415 36.909374 123.862915L36.909374 123.34729ZM43.675 126.25354L43.878124 127.50354Q43.284374 127.62854 42.815624 127.62854Q42.05 127.62854 41.628124 127.394165Q41.20625 127.144165 41.034374 126.75354Q40.8625 126.34729 40.8625 125.081665L40.8625 120.31604L39.83125 120.31604L39.83125 119.22229L40.8625 119.22229L40.8625 117.15979L42.26875 116.31604L42.26875 119.22229L43.675 119.22229L43.675 120.31604L42.26875 120.31604L42.26875 125.15979Q42.26875 125.769165 42.33125 125.94104Q42.409374 126.112915 42.58125 126.22229Q42.753124 126.31604 43.065624 126.31604Q43.3 126.31604 43.675 126.25354ZM50.05 127.519165L50.05 126.300415Q49.08125 127.706665 47.409374 127.706665Q46.675 127.706665 46.034374 127.425415Q45.409374 127.144165 45.096874 126.72229Q44.784374 126.28479 44.659374 125.675415Q44.58125 125.25354 44.58125 124.362915L44.58125 119.22229L45.9875 119.22229L45.9875 123.81604Q45.9875 124.925415 46.065624 125.300415Q46.20625 125.862915 46.628124 126.175415Q47.065624 126.487915 47.690624 126.487915Q48.33125 126.487915 48.878124 126.175415Q49.440624 125.84729 49.659374 125.28479Q49.89375 124.72229 49.89375 123.65979L49.89375 119.22229L51.3 119.22229L51.3 127.519165L50.05 127.519165ZM53.596874 127.519165L53.596874 119.22229L54.8625 119.22229L54.8625 120.47229Q55.346874 119.59729 55.753124 119.31604Q56.159374 119.03479 56.659374 119.03479Q57.3625 119.03479 58.096874 119.487915L57.6125 120.78479Q57.096874 120.487915 56.58125 120.487915Q56.128124 120.487915 55.753124 120.769165Q55.39375 121.03479 55.2375 121.53479Q55.003124 122.28479 55.003124 123.175415L55.003124 127.519165L53.596874 127.519165ZM64.01875 126.487915Q63.2375 127.15979 62.51875 127.44104Q61.8 127.706665 60.971874 127.706665Q59.596874 127.706665 58.8625 127.03479Q58.128124 126.362915 58.128124 125.331665Q58.128124 124.72229 58.409374 124.22229Q58.690624 123.706665 59.128124 123.40979Q59.58125 123.09729 60.14375 122.94104Q60.565624 122.831665 61.39375 122.737915Q63.096874 122.53479 63.909374 122.25354Q63.909374 121.956665 63.909374 121.87854Q63.909374 121.019165 63.51875 120.675415Q62.971874 120.19104 61.909374 120.19104Q60.925 120.19104 60.440624 120.550415Q59.971874 120.894165 59.753124 121.769165L58.378124 121.581665Q58.565624 120.706665 58.9875 120.15979Q59.425 119.612915 60.2375 119.331665Q61.05 119.03479 62.1125 119.03479Q63.175 119.03479 63.83125 119.28479Q64.50313 119.53479 64.81563 119.90979Q65.12813 120.28479 65.25313 120.862915Q65.33125 121.22229 65.33125 122.15979L65.33125 124.03479Q65.33125 126.00354 65.40938 126.519165Q65.50313 127.03479 65.76875 127.519165L64.3 127.519165Q64.08125 127.081665 64.01875 126.487915ZM63.909374 123.34729Q63.14375 123.65979 61.6125 123.87854Q60.7375 124.00354 60.378124 124.15979Q60.01875 124.31604 59.815624 124.62854Q59.628124 124.925415 59.628124 125.28479Q59.628124 125.84729 60.05 126.22229Q60.4875 126.59729 61.3 126.59729Q62.1125 126.59729 62.7375 126.25354Q63.378124 125.894165 63.675 125.269165Q63.909374 124.800415 63.909374 123.862915L63.909374 123.34729ZM67.58125 127.519165L67.58125 116.06604L68.9875 116.06604L68.9875 127.519165L67.58125 127.519165Z" fill-rule="nonzero"/><path fill="#9e9e9e" d="M24.51875 149.51917L23.1125 149.51917L23.1125 140.55042Q22.596874 141.03479 21.76875 141.51917Q20.95625 142.00354 20.3 142.25354L20.3 140.89417Q21.471874 140.33167 22.346874 139.55042Q23.2375 138.75354 23.6125 138.01917L24.51875 138.01917L24.51875 149.51917ZM33.51875 149.51917L32.1125 149.51917L32.1125 140.55042Q31.596874 141.03479 30.76875 141.51917Q29.95625 142.00354 29.3 142.25354L29.3 140.89417Q30.471874 140.33167 31.346874 139.55042Q32.2375 138.75354 32.6125 138.01917L33.51875 138.01917L33.51875 149.51917ZM38.003124 149.51917L38.003124 147.90979L39.6125 147.90979L39.6125 149.51917L38.003124 149.51917ZM46.51875 149.51917L45.1125 149.51917L45.1125 140.55042Q44.596874 141.03479 43.76875 141.51917Q42.95625 142.00354 42.3 142.25354L42.3 140.89417Q43.471874 140.33167 44.346874 139.55042Q45.2375 138.75354 45.6125 138.01917L46.51875 138.01917L46.51875 149.51917ZM50.4875 140.81604Q50.4875 139.58167 51.096874 138.72229Q51.721874 137.86292 52.89375 137.86292Q53.971874 137.86292 54.675 138.64417Q55.378124 139.40979 55.378124 140.89417Q55.378124 142.34729 54.659374 143.14417Q53.95625 143.92542 52.909374 143.92542Q51.8625 143.92542 51.175 143.15979Q50.4875 142.37854 50.4875 140.81604ZM52.925 138.83167Q52.409374 138.83167 52.05 139.28479Q51.70625 139.73792 51.70625 140.95667Q51.70625 142.05042 52.05 142.50354Q52.409374 142.95667 52.925 142.95667Q53.45625 142.95667 53.8 142.50354Q54.159374 142.05042 54.159374 140.84729Q54.159374 139.73792 53.8 139.28479Q53.45625 138.83167 52.925 138.83167ZM52.940624 149.94104L59.20625 137.86292L60.346874 137.86292L54.096874 149.94104L52.940624 149.94104ZM57.89375 146.83167Q57.89375 145.59729 58.503124 144.73792Q59.128124 143.87854 60.3 143.87854Q61.378124 143.87854 62.08125 144.65979Q62.8 145.42542 62.8 146.90979Q62.8 148.36292 62.08125 149.15979Q61.3625 149.94104 60.315624 149.94104Q59.26875 149.94104 58.58125 149.15979Q57.89375 148.37854 57.89375 146.83167ZM60.346874 144.84729Q59.815624 144.84729 59.45625 145.30042Q59.1125 145.75354 59.1125 146.97229Q59.1125 148.06604 59.45625 148.51917Q59.815624 148.97229 60.33125 148.97229Q60.878124 148.97229 61.221874 148.51917Q61.565624 148.06604 61.565624 146.86292Q61.565624 145.75354 61.20625 145.30042Q60.8625 144.84729 60.346874 144.84729Z" fill-rule="nonzero"/><path stroke="#757575" stroke-width="1.0" stroke-linecap="butt" d="M18.55 133.01917L145.23334 133.01917L177.60608 133.01917" fill-rule="nonzero"/><path fill="#9e9e9e" d="M179.60608 133.01917C179.60608 131.9146 178.71065 131.01917 177.60608 131.01917C176.50151 131.01917 175.60608 131.9146 175.60608 133.01917C175.60608 134.12373 176.50151 135.01917 177.60608 135.01917C178.71065 135.01917 179.60608 134.12373 179.60608 133.01917" fill-rule="nonzero"/><path fill="#efefef" d="M18.51875 222.72475L22.925 211.27162L24.565624 211.27162L29.253124 222.72475L27.51875 222.72475L26.190624 219.256L21.39375 219.256L20.14375 222.72475L18.51875 222.72475ZM21.83125 218.02162L25.721874 218.02162L24.51875 214.84975Q23.971874 213.39662 23.70625 212.47475Q23.4875 213.5685 23.096874 214.66225L21.83125 218.02162ZM30.596874 222.72475L30.596874 214.42787L31.8625 214.42787L31.8625 215.67787Q32.346874 214.80287 32.753124 214.52162Q33.159374 214.24037 33.659374 214.24037Q34.3625 214.24037 35.096874 214.6935L34.6125 215.99037Q34.096874 215.6935 33.58125 215.6935Q33.128124 215.6935 32.753124 215.97475Q32.39375 216.24037 32.2375 216.74037Q32.003124 217.49037 32.003124 218.381L32.003124 222.72475L30.596874 222.72475ZM41.01875 219.67787L42.409374 219.86537Q42.175 221.28725 41.2375 222.09975Q40.315624 222.91225 38.95625 222.91225Q37.253124 222.91225 36.20625 221.80287Q35.175 220.67787 35.175 218.59975Q35.175 217.256 35.6125 216.256Q36.065624 215.24037 36.971874 214.74037Q37.89375 214.24037 38.95625 214.24037Q40.315624 214.24037 41.175 214.92787Q42.034374 215.59975 42.26875 216.86537L40.909374 217.0685Q40.70625 216.24037 40.20625 215.8185Q39.721874 215.39662 39.01875 215.39662Q37.95625 215.39662 37.284374 216.16225Q36.628124 216.91225 36.628124 218.5685Q36.628124 220.24037 37.26875 221.006Q37.909374 221.756 38.940624 221.756Q39.76875 221.756 40.315624 221.256Q40.878124 220.74037 41.01875 219.67787ZM43.6125 222.72475L43.6125 211.27162L45.01875 211.27162L45.01875 215.381Q46.003124 214.24037 47.503124 214.24037Q48.425 214.24037 49.096874 214.59975Q49.784374 214.95912 50.065624 215.59975Q50.3625 216.24037 50.3625 217.45912L50.3625 222.72475L48.95625 222.72475L48.95625 217.45912Q48.95625 216.41225 48.503124 215.92787Q48.05 215.4435 47.20625 215.4435Q46.58125 215.4435 46.034374 215.77162Q45.4875 216.09975 45.253124 216.66225Q45.01875 217.20912 45.01875 218.17787L45.01875 222.72475L43.6125 222.72475ZM52.6125 212.881L52.6125 211.27162L54.01875 211.27162L54.01875 212.881L52.6125 212.881ZM52.6125 222.72475L52.6125 214.42787L54.01875 214.42787L54.01875 222.72475L52.6125 222.72475ZM59.675 221.45912L59.878124 222.70912Q59.284374 222.83412 58.815624 222.83412Q58.05 222.83412 57.628124 222.59975Q57.20625 222.34975 57.034374 221.95912Q56.8625 221.55287 56.8625 220.28725L56.8625 215.52162L55.83125 215.52162L55.83125 214.42787L56.8625 214.42787L56.8625 212.36537L58.26875 211.52162L58.26875 214.42787L59.675 214.42787L59.675 215.52162L58.26875 215.52162L58.26875 220.36537Q58.26875 220.97475 58.33125 221.14662Q58.409374 221.3185 58.58125 221.42787Q58.753124 221.52162 59.065624 221.52162Q59.3 221.52162 59.675 221.45912ZM66.28438 220.05287L67.7375 220.22475Q67.39375 221.506 66.45625 222.20912Q65.53438 222.91225 64.09688 222.91225Q62.26875 222.91225 61.20625 221.78725Q60.14375 220.66225 60.14375 218.64662Q60.14375 216.55287 61.221874 215.39662Q62.3 214.24037 64.01875 214.24037Q65.675 214.24037 66.72188 215.381Q67.78438 216.506 67.78438 218.55287Q67.78438 218.67787 67.78438 218.92787L61.596874 218.92787Q61.675 220.30287 62.3625 221.03725Q63.065624 221.756 64.09688 221.756Q64.87813 221.756 65.425 221.34975Q65.97188 220.9435 66.28438 220.05287ZM61.675 217.77162L66.3 217.77162Q66.20625 216.72475 65.76875 216.20912Q65.09688 215.39662 64.03438 215.39662Q63.065624 215.39662 62.39375 216.05287Q61.7375 216.6935 61.675 217.77162ZM75.01875 219.67787L76.40938 219.86537Q76.175 221.28725 75.2375 222.09975Q74.31563 222.91225 72.95625 222.91225Q71.25313 222.91225 70.20625 221.80287Q69.175 220.67787 69.175 218.59975Q69.175 217.256 69.6125 216.256Q70.06563 215.24037 70.97188 214.74037Q71.89375 214.24037 72.95625 214.24037Q74.31563 214.24037 75.175 214.92787Q76.03438 215.59975 76.26875 216.86537L74.90938 217.0685Q74.70625 216.24037 74.20625 215.8185Q73.72188 215.39662 73.01875 215.39662Q71.95625 215.39662 71.28438 216.16225Q70.62813 216.91225 70.62813 218.5685Q70.62813 220.24037 71.26875 221.006Q71.90938 221.756 72.94063 221.756Q73.76875 221.756 74.31563 221.256Q74.87813 220.74037 75.01875 219.67787ZM80.675 221.45912L80.87813 222.70912Q80.28438 222.83412 79.81563 222.83412Q79.05 222.83412 78.62813 222.59975Q78.20625 222.34975 78.03438 221.95912Q77.8625 221.55287 77.8625 220.28725L77.8625 215.52162L76.83125 215.52162L76.83125 214.42787L77.8625 214.42787L77.8625 212.36537L79.26875 211.52162L79.26875 214.42787L80.675 214.42787L80.675 215.52162L79.26875 215.52162L79.26875 220.36537Q79.26875 220.97475 79.33125 221.14662Q79.40938 221.3185 79.58125 221.42787Q79.75313 221.52162 80.06563 221.52162Q80.3 221.52162 80.675 221.45912ZM87.05 222.72475L87.05 221.506Q86.08125 222.91225 84.40938 222.91225Q83.675 222.91225 83.03438 222.631Q82.40938 222.34975 82.09688 221.92787Q81.78438 221.49037 81.65938 220.881Q81.58125 220.45912 81.58125 219.5685L81.58125 214.42787L82.9875 214.42787L82.9875 219.02162Q82.9875 220.131 83.06563 220.506Q83.20625 221.0685 83.62813 221.381Q84.06563 221.6935 84.69063 221.6935Q85.33125 221.6935 85.87813 221.381Q86.44063 221.05287 86.65938 220.49037Q86.89375 219.92787 86.89375 218.86537L86.89375 214.42787L88.3 214.42787L88.3 222.72475L87.05 222.72475ZM90.59688 222.72475L90.59688 214.42787L91.8625 214.42787L91.8625 215.67787Q92.34688 214.80287 92.75313 214.52162Q93.15938 214.24037 93.65938 214.24037Q94.3625 214.24037 95.09688 214.6935L94.6125 215.99037Q94.09688 215.6935 93.58125 215.6935Q93.12813 215.6935 92.75313 215.97475Q92.39375 216.24037 92.2375 216.74037Q92.00313 217.49037 92.00313 218.381L92.00313 222.72475L90.59688 222.72475ZM101.28438 220.05287L102.7375 220.22475Q102.39375 221.506 101.45625 222.20912Q100.53438 222.91225 99.09688 222.91225Q97.26875 222.91225 96.20625 221.78725Q95.14375 220.66225 95.14375 218.64662Q95.14375 216.55287 96.22188 215.39662Q97.3 214.24037 99.01875 214.24037Q100.675 214.24037 101.72188 215.381Q102.78438 216.506 102.78438 218.55287Q102.78438 218.67787 102.78438 218.92787L96.59688 218.92787Q96.675 220.30287 97.3625 221.03725Q98.06563 221.756 99.09688 221.756Q99.87813 221.756 100.425 221.34975Q100.97188 220.9435 101.28438 220.05287ZM96.675 217.77162L101.3 217.77162Q101.20625 216.72475 100.76875 216.20912Q100.09688 215.39662 99.03438 215.39662Q98.06563 215.39662 97.39375 216.05287Q96.7375 216.6935 96.675 217.77162ZM115.15938 221.36537Q114.45625 222.14662 113.62813 222.53725Q112.81563 222.92787 111.8625 222.92787Q110.1125 222.92787 109.08125 221.72475Q108.2375 220.756 108.2375 219.5685Q108.2375 218.506 108.925 217.64662Q109.6125 216.78725 110.97188 216.14662Q110.19063 215.256 109.925 214.70912Q109.675 214.14662 109.675 213.631Q109.675 212.59975 110.4875 211.83412Q111.3 211.0685 112.51875 211.0685Q113.69063 211.0685 114.44063 211.78725Q115.19063 212.506 115.19063 213.52162Q115.19063 215.14662 113.01875 216.30287L115.08125 218.92787Q115.425 218.24037 115.62813 217.33412L117.08125 217.64662Q116.70625 219.14662 116.06563 220.11537Q116.8625 221.16225 117.8625 221.86537L116.90938 222.99037Q116.06563 222.4435 115.15938 221.36537ZM112.3 215.39662Q113.20625 214.86537 113.47188 214.45912Q113.75313 214.05287 113.75313 213.55287Q113.75313 212.97475 113.37813 212.59975Q113.00313 212.22475 112.45625 212.22475Q111.87813 212.22475 111.50313 212.59975Q111.12813 212.95912 111.12813 213.49037Q111.12813 213.756 111.25313 214.05287Q111.39375 214.34975 111.675 214.67787L112.3 215.39662ZM114.26875 220.256L111.69063 217.0685Q110.55 217.74037 110.14375 218.33412Q109.75313 218.91225 109.75313 219.47475Q109.75313 220.17787 110.3 220.92787Q110.8625 221.67787 111.87813 221.67787Q112.51875 221.67787 113.19063 221.28725Q113.8625 220.881 114.26875 220.256Z" fill-rule="nonzero"/><path fill="#9e9e9e" d="M24.51875 244.72475L23.1125 244.72475L23.1125 235.756Q22.596874 236.24037 21.76875 236.72475Q20.95625 237.20912 20.3 237.45912L20.3 236.09975Q21.471874 235.53725 22.346874 234.756Q23.2375 233.95912 23.6125 233.22475L24.51875 233.22475L24.51875 244.72475ZM33.51875 244.72475L32.1125 244.72475L32.1125 235.756Q31.596874 236.24037 30.76875 236.72475Q29.95625 237.20912 29.3 237.45912L29.3 236.09975Q30.471874 235.53725 31.346874 234.756Q32.2375 233.95912 32.6125 233.22475L33.51875 233.22475L33.51875 244.72475ZM38.003124 244.72475L38.003124 243.11537L39.6125 243.11537L39.6125 244.72475L38.003124 244.72475ZM46.51875 244.72475L45.1125 244.72475L45.1125 235.756Q44.596874 236.24037 43.76875 236.72475Q42.95625 237.20912 42.3 237.45912L42.3 236.09975Q43.471874 235.53725 44.346874 234.756Q45.2375 233.95912 45.6125 233.22475L46.51875 233.22475L46.51875 244.72475ZM50.4875 236.02162Q50.4875 234.78725 51.096874 233.92787Q51.721874 233.0685 52.89375 233.0685Q53.971874 233.0685 54.675 233.84975Q55.378124 234.61537 55.378124 236.09975Q55.378124 237.55287 54.659374 238.34975Q53.95625 239.131 52.909374 239.131Q51.8625 239.131 51.175 238.36537Q50.4875 237.58412 50.4875 236.02162ZM52.925 234.03725Q52.409374 234.03725 52.05 234.49037Q51.70625 234.9435 51.70625 236.16225Q51.70625 237.256 52.05 237.70912Q52.409374 238.16225 52.925 238.16225Q53.45625 238.16225 53.8 237.70912Q54.159374 237.256 54.159374 236.05287Q54.159374 234.9435 53.8 234.49037Q53.45625 234.03725 52.925 234.03725ZM52.940624 245.14662L59.20625 233.0685L60.346874 233.0685L54.096874 245.14662L52.940624 245.14662ZM57.89375 242.03725Q57.89375 240.80287 58.503124 239.9435Q59.128124 239.08412 60.3 239.08412Q61.378124 239.08412 62.08125 239.86537Q62.8 240.631 62.8 242.11537Q62.8 243.5685 62.08125 244.36537Q61.3625 245.14662 60.315624 245.14662Q59.26875 245.14662 58.58125 244.36537Q57.89375 243.58412 57.89375 242.03725ZM60.346874 240.05287Q59.815624 240.05287 59.45625 240.506Q59.1125 240.95912 59.1125 242.17787Q59.1125 243.27162 59.45625 243.72475Q59.815624 244.17787 60.33125 244.17787Q60.878124 244.17787 61.221874 243.72475Q61.565624 243.27162 61.565624 242.0685Q61.565624 240.95912 61.20625 240.506Q60.8625 240.05287 60.346874 240.05287Z" fill-rule="nonzero"/><path stroke="#757575" stroke-width="1.0" stroke-linecap="butt" d="M18.55 228.22475L145.23334 228.22475L160.81876 228.22475" fill-rule="nonzero"/><path fill="#9e9e9e" d="M162.81876 228.22475C162.81876 227.12018 161.92332 226.22475 160.81876 226.22475C159.71419 226.22475 158.81876 227.12018 158.81876 228.22475C158.81876 229.32932 159.71419 230.22475 160.81876 230.22475C161.92332 230.22475 162.81876 229.32932 162.81876 228.22475" fill-rule="nonzero"/><path fill="#efefef" d="M19.784374 326.45L19.784374 314.9969L23.7375 314.9969Q25.065624 314.9969 25.76875 315.15314Q26.753124 315.3875 27.45625 315.98126Q28.3625 316.7469 28.8 317.9344Q29.253124 319.1219 29.253124 320.65314Q29.253124 321.96564 28.940624 322.98126Q28.64375 323.98126 28.159374 324.6375Q27.690624 325.29376 27.128124 325.6844Q26.565624 326.0594 25.753124 326.2625Q24.95625 326.45 23.925 326.45L19.784374 326.45ZM21.3 325.09064L23.753124 325.09064Q24.878124 325.09064 25.51875 324.8875Q26.175 324.66876 26.55 324.29376Q27.096874 323.7469 27.39375 322.84064Q27.690624 321.9344 27.690624 320.6375Q27.690624 318.84064 27.096874 317.8719Q26.51875 316.90314 25.675 316.575Q25.065624 316.34064 23.70625 316.34064L21.3 316.34064L21.3 325.09064ZM31.6125 316.60626L31.6125 314.9969L33.01875 314.9969L33.01875 316.60626L31.6125 316.60626ZM31.6125 326.45L31.6125 318.15314L33.01875 318.15314L33.01875 326.45L31.6125 326.45ZM35.6125 329.6375L35.6125 318.15314L36.89375 318.15314L36.89375 319.23126Q37.346874 318.59064 37.909374 318.27814Q38.4875 317.96564 39.3 317.96564Q40.3625 317.96564 41.175 318.5125Q41.9875 319.0594 42.39375 320.0594Q42.815624 321.04376 42.815624 322.23126Q42.815624 323.5125 42.346874 324.52814Q41.89375 325.54376 41.01875 326.09064Q40.159374 326.6375 39.190624 326.6375Q38.4875 326.6375 37.925 326.34064Q37.378124 326.04376 37.01875 325.59064L37.01875 329.6375L35.6125 329.6375ZM36.878124 322.34064Q36.878124 323.95 37.51875 324.71564Q38.175 325.48126 39.096874 325.48126Q40.034374 325.48126 40.70625 324.6844Q41.378124 323.8875 41.378124 322.23126Q41.378124 320.6375 40.721874 319.85626Q40.065624 319.0594 39.159374 319.0594Q38.26875 319.0594 37.565624 319.90314Q36.878124 320.7469 36.878124 322.34064ZM44.58125 326.45L44.58125 314.9969L45.9875 314.9969L45.9875 326.45L44.58125 326.45ZM48.08125 322.29376Q48.08125 319.9969 49.3625 318.8875Q50.440624 317.96564 51.971874 317.96564Q53.690624 317.96564 54.76875 319.09064Q55.8625 320.2 55.8625 322.1844Q55.8625 323.77814 55.378124 324.7Q54.89375 325.6219 53.971874 326.1375Q53.065624 326.6375 51.971874 326.6375Q50.2375 326.6375 49.159374 325.52814Q48.08125 324.40314 48.08125 322.29376ZM49.534374 322.29376Q49.534374 323.8875 50.221874 324.6844Q50.925 325.48126 51.971874 325.48126Q53.01875 325.48126 53.70625 324.6844Q54.409374 323.8875 54.409374 322.2469Q54.409374 320.71564 53.70625 319.91876Q53.01875 319.1219 51.971874 319.1219Q50.925 319.1219 50.221874 319.91876Q49.534374 320.7 49.534374 322.29376ZM57.6125 326.45L57.6125 318.15314L58.8625 318.15314L58.8625 319.3094Q59.253124 318.7 59.89375 318.34064Q60.55 317.96564 61.378124 317.96564Q62.3 317.96564 62.89375 318.35626Q63.4875 318.73126 63.721874 319.41876Q64.70625 317.96564 66.28438 317.96564Q67.51875 317.96564 68.175 318.65314Q68.84688 319.325 68.84688 320.7469L68.84688 326.45L67.45625 326.45L67.45625 321.21564Q67.45625 320.3719 67.31563 320.0125Q67.175 319.6375 66.81563 319.41876Q66.45625 319.1844 65.97188 319.1844Q65.09688 319.1844 64.51875 319.7625Q63.940624 320.34064 63.940624 321.6219L63.940624 326.45L62.534374 326.45L62.534374 321.0594Q62.534374 320.1219 62.190624 319.65314Q61.846874 319.1844 61.065624 319.1844Q60.471874 319.1844 59.971874 319.4969Q59.471874 319.8094 59.2375 320.41876Q59.01875 321.0125 59.01875 322.1375L59.01875 326.45L57.6125 326.45ZM76.01875 325.41876Q75.2375 326.09064 74.51875 326.3719Q73.8 326.6375 72.97188 326.6375Q71.59688 326.6375 70.8625 325.96564Q70.12813 325.29376 70.12813 324.2625Q70.12813 323.65314 70.40938 323.15314Q70.69063 322.6375 71.12813 322.34064Q71.58125 322.02814 72.14375 321.8719Q72.56563 321.7625 73.39375 321.66876Q75.09688 321.46564 75.90938 321.1844Q75.90938 320.8875 75.90938 320.8094Q75.90938 319.95 75.51875 319.60626Q74.97188 319.1219 73.90938 319.1219Q72.925 319.1219 72.44063 319.48126Q71.97188 319.825 71.75313 320.7L70.37813 320.5125Q70.56563 319.6375 70.9875 319.09064Q71.425 318.54376 72.2375 318.2625Q73.05 317.96564 74.1125 317.96564Q75.175 317.96564 75.83125 318.21564Q76.50313 318.46564 76.81563 318.84064Q77.12813 319.21564 77.25313 319.79376Q77.33125 320.15314 77.33125 321.09064L77.33125 322.96564Q77.33125 324.9344 77.40938 325.45Q77.50313 325.96564 77.76875 326.45L76.3 326.45Q76.08125 326.0125 76.01875 325.41876ZM75.90938 322.27814Q75.14375 322.59064 73.6125 322.8094Q72.7375 322.9344 72.37813 323.09064Q72.01875 323.2469 71.81563 323.5594Q71.62813 323.85626 71.62813 324.21564Q71.62813 324.77814 72.05 325.15314Q72.4875 325.52814 73.3 325.52814Q74.1125 325.52814 74.7375 325.1844Q75.37813 324.825 75.675 324.2Q75.90938 323.73126 75.90938 322.79376L75.90938 322.27814ZM82.675 325.1844L82.87813 326.4344Q82.28438 326.5594 81.81563 326.5594Q81.05 326.5594 80.62813 326.325Q80.20625 326.075 80.03438 325.6844Q79.8625 325.27814 79.8625 324.0125L79.8625 319.2469L78.83125 319.2469L78.83125 318.15314L79.8625 318.15314L79.8625 316.09064L81.26875 315.2469L81.26875 318.15314L82.675 318.15314L82.675 319.2469L81.26875 319.2469L81.26875 324.09064Q81.26875 324.7 81.33125 324.8719Q81.40938 325.04376 81.58125 325.15314Q81.75313 325.2469 82.06563 325.2469Q82.3 325.2469 82.675 325.1844ZM83.6125 316.60626L83.6125 314.9969L85.01875 314.9969L85.01875 316.60626L83.6125 316.60626ZM83.6125 326.45L83.6125 318.15314L85.01875 318.15314L85.01875 326.45L83.6125 326.45ZM93.01875 323.40314L94.40938 323.59064Q94.175 325.0125 93.2375 325.825Q92.31563 326.6375 90.95625 326.6375Q89.25313 326.6375 88.20625 325.52814Q87.175 324.40314 87.175 322.325Q87.175 320.98126 87.6125 319.98126Q88.06563 318.96564 88.97188 318.46564Q89.89375 317.96564 90.95625 317.96564Q92.31563 317.96564 93.175 318.65314Q94.03438 319.325 94.26875 320.59064L92.90938 320.79376Q92.70625 319.96564 92.20625 319.54376Q91.72188 319.1219 91.01875 319.1219Q89.95625 319.1219 89.28438 319.8875Q88.62813 320.6375 88.62813 322.29376Q88.62813 323.96564 89.26875 324.73126Q89.90938 325.48126 90.94063 325.48126Q91.76875 325.48126 92.31563 324.98126Q92.87813 324.46564 93.01875 323.40314Z" fill-rule="nonzero"/><path fill="#9e9e9e" d="M26.6125 347.09064L26.6125 348.45L19.034374 348.45Q19.01875 347.9344 19.20625 347.46564Q19.4875 346.7 20.128124 345.95Q20.76875 345.2 21.971874 344.21564Q23.83125 342.6844 24.4875 341.79376Q25.14375 340.8875 25.14375 340.09064Q25.14375 339.2625 24.55 338.6844Q23.95625 338.10626 22.9875 338.10626Q21.971874 338.10626 21.3625 338.71564Q20.753124 339.325 20.753124 340.40314L19.3 340.2625Q19.45625 338.6375 20.425 337.79376Q21.39375 336.95 23.01875 336.95Q24.675 336.95 25.628124 337.8719Q26.596874 338.77814 26.596874 340.1219Q26.596874 340.8094 26.315624 341.48126Q26.034374 342.1375 25.378124 342.8719Q24.721874 343.60626 23.20625 344.8875Q21.940624 345.95 21.58125 346.34064Q21.221874 346.71564 20.9875 347.09064L26.6125 347.09064ZM35.6125 347.09064L35.6125 348.45L28.034374 348.45Q28.01875 347.9344 28.20625 347.46564Q28.4875 346.7 29.128124 345.95Q29.76875 345.2 30.971874 344.21564Q32.83125 342.6844 33.4875 341.79376Q34.14375 340.8875 34.14375 340.09064Q34.14375 339.2625 33.55 338.6844Q32.95625 338.10626 31.9875 338.10626Q30.971874 338.10626 30.3625 338.71564Q29.753124 339.325 29.753124 340.40314L28.3 340.2625Q28.45625 338.6375 29.425 337.79376Q30.39375 336.95 32.01875 336.95Q33.675 336.95 34.628124 337.8719Q35.596874 338.77814 35.596874 340.1219Q35.596874 340.8094 35.315624 341.48126Q35.034374 342.1375 34.378124 342.8719Q33.721874 343.60626 32.20625 344.8875Q30.940624 345.95 30.58125 346.34064Q30.221874 346.71564 29.9875 347.09064L35.6125 347.09064ZM38.003124 348.45L38.003124 346.84064L39.6125 346.84064L39.6125 348.45L38.003124 348.45ZM48.6125 347.09064L48.6125 348.45L41.034374 348.45Q41.01875 347.9344 41.20625 347.46564Q41.4875 346.7 42.128124 345.95Q42.76875 345.2 43.971874 344.21564Q45.83125 342.6844 46.4875 341.79376Q47.14375 340.8875 47.14375 340.09064Q47.14375 339.2625 46.55 338.6844Q45.95625 338.10626 44.9875 338.10626Q43.971874 338.10626 43.3625 338.71564Q42.753124 339.325 42.753124 340.40314L41.3 340.2625Q41.45625 338.6375 42.425 337.79376Q43.39375 336.95 45.01875 336.95Q46.675 336.95 47.628124 337.8719Q48.596874 338.77814 48.596874 340.1219Q48.596874 340.8094 48.315624 341.48126Q48.034374 342.1375 47.378124 342.8719Q46.721874 343.60626 45.20625 344.8875Q43.940624 345.95 43.58125 346.34064Q43.221874 346.71564 42.9875 347.09064L48.6125 347.09064ZM50.4875 339.7469Q50.4875 338.5125 51.096874 337.65314Q51.721874 336.79376 52.89375 336.79376Q53.971874 336.79376 54.675 337.575Q55.378124 338.34064 55.378124 339.825Q55.378124 341.27814 54.659374 342.075Q53.95625 342.85626 52.909374 342.85626Q51.8625 342.85626 51.175 342.09064Q50.4875 341.3094 50.4875 339.7469ZM52.925 337.7625Q52.409374 337.7625 52.05 338.21564Q51.70625 338.66876 51.70625 339.8875Q51.70625 340.98126 52.05 341.4344Q52.409374 341.8875 52.925 341.8875Q53.45625 341.8875 53.8 341.4344Q54.159374 340.98126 54.159374 339.77814Q54.159374 338.66876 53.8 338.21564Q53.45625 337.7625 52.925 337.7625ZM52.940624 348.8719L59.20625 336.79376L60.346874 336.79376L54.096874 348.8719L52.940624 348.8719ZM57.89375 345.7625Q57.89375 344.52814 58.503124 343.66876Q59.128124 342.8094 60.3 342.8094Q61.378124 342.8094 62.08125 343.59064Q62.8 344.35626 62.8 345.84064Q62.8 347.29376 62.08125 348.09064Q61.3625 348.8719 60.315624 348.8719Q59.26875 348.8719 58.58125 348.09064Q57.89375 347.3094 57.89375 345.7625ZM60.346874 343.77814Q59.815624 343.77814 59.45625 344.23126Q59.1125 344.6844 59.1125 345.90314Q59.1125 346.9969 59.45625 347.45Q59.815624 347.90314 60.33125 347.90314Q60.878124 347.90314 61.221874 347.45Q61.565624 346.9969 61.565624 345.79376Q61.565624 344.6844 61.20625 344.23126Q60.8625 343.77814 60.346874 343.77814Z" fill-rule="nonzero"/><path stroke="#757575" stroke-width="1.0" stroke-linecap="butt" d="M18.55 331.95L145.23334 331.95L251.66286 336.48853" fill-rule="nonzero"/><path fill="#9e9e9e" d="M253.66286 336.48853C253.66286 335.38394 252.76743 334.48853 251.66286 334.48853C250.55829 334.48853 249.66286 335.38394 249.66286 336.48853C249.66286 337.5931 250.55829 338.48853 251.66286 338.48853C252.76743 338.48853 253.66286 337.5931 253.66286 336.48853" fill-rule="nonzero"/><path fill="#efefef" d="M481.71564 89.91955L481.71564 78.46642L489.9969 78.46642L489.9969 79.81017L483.23126 79.81017L483.23126 83.3258L489.575 83.3258L489.575 84.66955L483.23126 84.66955L483.23126 88.56017L490.2625 88.56017L490.2625 89.91955L481.71564 89.91955ZM495.575 88.65392L495.77814 89.90392Q495.1844 90.02892 494.71564 90.02892Q493.95 90.02892 493.52814 89.79455Q493.10626 89.54455 492.9344 89.15392Q492.7625 88.74767 492.7625 87.48205L492.7625 82.71642L491.73126 82.71642L491.73126 81.62267L492.7625 81.62267L492.7625 79.56017L494.16876 78.71642L494.16876 81.62267L495.575 81.62267L495.575 82.71642L494.16876 82.71642L494.16876 87.56017Q494.16876 88.16955 494.23126 88.34142Q494.3094 88.5133 494.48126 88.62267Q494.65314 88.71642 494.96564 88.71642Q495.2 88.71642 495.575 88.65392ZM496.5125 89.91955L496.5125 78.46642L497.91876 78.46642L497.91876 82.5758Q498.90314 81.43517 500.40314 81.43517Q501.325 81.43517 501.9969 81.79455Q502.6844 82.15392 502.96564 82.79455Q503.2625 83.43517 503.2625 84.65392L503.2625 89.91955L501.85626 89.91955L501.85626 84.65392Q501.85626 83.60705 501.40314 83.12267Q500.95 82.6383 500.10626 82.6383Q499.48126 82.6383 498.9344 82.96642Q498.3875 83.29455 498.15314 83.85705Q497.91876 84.40392 497.91876 85.37267L497.91876 89.91955L496.5125 89.91955ZM505.5125 89.91955L505.5125 81.62267L506.77814 81.62267L506.77814 82.79455Q507.6844 81.43517 509.41876 81.43517Q510.16876 81.43517 510.79376 81.7008Q511.41876 81.96642 511.73126 82.40392Q512.04376 82.84142 512.16876 83.4508Q512.2469 83.84142 512.2469 84.81017L512.2469 89.91955L510.84064 89.91955L510.84064 84.87267Q510.84064 84.0133 510.66876 83.59142Q510.5125 83.15392 510.09064 82.90392Q509.6844 82.65392 509.1219 82.65392Q508.21564 82.65392 507.5594 83.23205Q506.91876 83.79455 506.91876 85.3883L506.91876 89.91955L505.5125 89.91955ZM514.5125 80.0758L514.5125 78.46642L515.91876 78.46642L515.91876 80.0758L514.5125 80.0758ZM514.5125 89.91955L514.5125 81.62267L515.91876 81.62267L515.91876 89.91955L514.5125 89.91955ZM523.91876 86.87267L525.3094 87.06017Q525.075 88.48205 524.1375 89.29455Q523.21564 90.10705 521.85626 90.10705Q520.15314 90.10705 519.10626 88.99767Q518.075 87.87267 518.075 85.79455Q518.075 84.4508 518.5125 83.4508Q518.96564 82.43517 519.8719 81.93517Q520.79376 81.43517 521.85626 81.43517Q523.21564 81.43517 524.075 82.12267Q524.9344 82.79455 525.16876 84.06017L523.8094 84.2633Q523.60626 83.43517 523.10626 83.0133Q522.6219 82.59142 521.91876 82.59142Q520.85626 82.59142 520.1844 83.35705Q519.52814 84.10705 519.52814 85.7633Q519.52814 87.43517 520.16876 88.2008Q520.8094 88.9508 521.84064 88.9508Q522.66876 88.9508 523.21564 88.4508Q523.77814 87.93517 523.91876 86.87267ZM536.04376 85.41955L536.04376 84.0758L540.90314 84.0758L540.90314 88.3258Q539.77814 89.21642 538.59064 89.66955Q537.40314 90.12267 536.15314 90.12267Q534.46564 90.12267 533.09064 89.40392Q531.71564 88.66955 531.0125 87.31017Q530.3094 85.93517 530.3094 84.24767Q530.3094 82.5758 530.9969 81.12267Q531.7 79.66955 533.0125 78.96642Q534.325 78.2633 536.04376 78.2633Q537.27814 78.2633 538.27814 78.66955Q539.29376 79.0758 539.85626 79.79455Q540.4344 80.5133 540.73126 81.66955L539.35626 82.04455Q539.10626 81.16955 538.71564 80.66955Q538.34064 80.16955 537.6219 79.87267Q536.91876 79.56017 536.04376 79.56017Q535.0125 79.56017 534.2469 79.8883Q533.4969 80.2008 533.02814 80.71642Q532.5594 81.23205 532.3094 81.84142Q531.8719 82.90392 531.8719 84.15392Q531.8719 85.68517 532.3875 86.71642Q532.91876 87.74767 533.91876 88.24767Q534.9344 88.74767 536.075 88.74767Q537.0594 88.74767 537.9969 88.37267Q538.9344 87.98205 539.41876 87.56017L539.41876 85.41955L536.04376 85.41955ZM542.4969 89.91955L542.4969 81.62267L543.7625 81.62267L543.7625 82.87267Q544.2469 81.99767 544.65314 81.71642Q545.0594 81.43517 545.5594 81.43517Q546.2625 81.43517 546.9969 81.8883L546.5125 83.18517Q545.9969 82.8883 545.48126 82.8883Q545.02814 82.8883 544.65314 83.16955Q544.29376 83.43517 544.1375 83.93517Q543.90314 84.68517 543.90314 85.5758L543.90314 89.91955L542.4969 89.91955ZM546.98126 85.7633Q546.98126 83.46642 548.2625 82.35705Q549.34064 81.43517 550.8719 81.43517Q552.59064 81.43517 553.66876 82.56017Q554.7625 83.66955 554.7625 85.65392Q554.7625 87.24767 554.27814 88.16955Q553.79376 89.09142 552.8719 89.60705Q551.96564 90.10705 550.8719 90.10705Q549.1375 90.10705 548.0594 88.99767Q546.98126 87.87267 546.98126 85.7633ZM548.4344 85.7633Q548.4344 87.35705 549.1219 88.15392Q549.825 88.9508 550.8719 88.9508Q551.91876 88.9508 552.60626 88.15392Q553.3094 87.35705 553.3094 85.71642Q553.3094 84.18517 552.60626 83.3883Q551.91876 82.59142 550.8719 82.59142Q549.825 82.59142 549.1219 83.3883Q548.4344 84.16955 548.4344 85.7633ZM561.95 89.91955L561.95 88.7008Q560.98126 90.10705 559.3094 90.10705Q558.575 90.10705 557.9344 89.8258Q557.3094 89.54455 556.9969 89.12267Q556.6844 88.68517 556.5594 88.0758Q556.48126 87.65392 556.48126 86.7633L556.48126 81.62267L557.8875 81.62267L557.8875 86.21642Q557.8875 87.3258 557.96564 87.7008Q558.10626 88.2633 558.52814 88.5758Q558.96564 88.8883 559.59064 88.8883Q560.23126 88.8883 560.77814 88.5758Q561.34064 88.24767 561.5594 87.68517Q561.79376 87.12267 561.79376 86.06017L561.79376 81.62267L563.2 81.62267L563.2 89.91955L561.95 89.91955ZM565.5125 93.10705L565.5125 81.62267L566.79376 81.62267L566.79376 82.7008Q567.2469 82.06017 567.8094 81.74767Q568.3875 81.43517 569.2 81.43517Q570.2625 81.43517 571.075 81.98205Q571.8875 82.52892 572.29376 83.52892Q572.71564 84.5133 572.71564 85.7008Q572.71564 86.98205 572.2469 87.99767Q571.79376 89.0133 570.91876 89.56017Q570.0594 90.10705 569.09064 90.10705Q568.3875 90.10705 567.825 89.81017Q567.27814 89.5133 566.91876 89.06017L566.91876 93.10705L565.5125 93.10705ZM566.77814 85.81017Q566.77814 87.41955 567.41876 88.18517Q568.075 88.9508 568.9969 88.9508Q569.9344 88.9508 570.60626 88.15392Q571.27814 87.35705 571.27814 85.7008Q571.27814 84.10705 570.6219 83.3258Q569.96564 82.52892 569.0594 82.52892Q568.16876 82.52892 567.46564 83.37267Q566.77814 84.21642 566.77814 85.81017ZM573.95 87.43517L575.34064 87.21642Q575.45 88.06017 575.98126 88.5133Q576.52814 88.9508 577.48126 88.9508Q578.45 88.9508 578.91876 88.56017Q579.3875 88.15392 579.3875 87.62267Q579.3875 87.15392 578.98126 86.87267Q578.6844 86.68517 577.54376 86.40392Q575.9969 86.0133 575.3875 85.73205Q574.79376 85.43517 574.48126 84.93517Q574.1844 84.43517 574.1844 83.8258Q574.1844 83.2633 574.4344 82.79455Q574.6844 82.3258 575.1219 82.0133Q575.45 81.7633 576.0125 81.60705Q576.59064 81.43517 577.23126 81.43517Q578.21564 81.43517 578.95 81.71642Q579.6844 81.99767 580.02814 82.48205Q580.3875 82.9508 580.52814 83.7633L579.15314 83.9508Q579.0594 83.31017 578.60626 82.9508Q578.15314 82.59142 577.34064 82.59142Q576.3719 82.59142 575.95 82.91955Q575.54376 83.23205 575.54376 83.65392Q575.54376 83.93517 575.71564 84.15392Q575.8875 84.37267 576.2469 84.52892Q576.46564 84.60705 577.4969 84.8883Q578.98126 85.27892 579.575 85.54455Q580.16876 85.79455 580.4969 86.27892Q580.84064 86.7633 580.84064 87.48205Q580.84064 88.18517 580.41876 88.81017Q580.0125 89.41955 579.23126 89.7633Q578.46564 90.10705 577.4969 90.10705Q575.8719 90.10705 575.02814 89.43517Q574.1844 88.7633 573.95 87.43517Z" fill-rule="nonzero"/><path fill="#9e9e9e" d="M544.5125 110.56017L544.5125 111.91955L536.9344 111.91955Q536.91876 111.40392 537.10626 110.93517Q537.3875 110.16955 538.02814 109.41955Q538.66876 108.66955 539.8719 107.68517Q541.73126 106.15392 542.3875 105.2633Q543.04376 104.35705 543.04376 103.56017Q543.04376 102.73205 542.45 102.15392Q541.85626 101.5758 540.8875 101.5758Q539.8719 101.5758 539.2625 102.18517Q538.65314 102.79455 538.65314 103.87267L537.2 103.73205Q537.35626 102.10705 538.325 101.2633Q539.29376 100.41955 540.91876 100.41955Q542.575 100.41955 543.52814 101.34142Q544.4969 102.24767 544.4969 103.59142Q544.4969 104.27892 544.21564 104.9508Q543.9344 105.60705 543.27814 106.34142Q542.6219 107.0758 541.10626 108.35705Q539.84064 109.41955 539.48126 109.81017Q539.1219 110.18517 538.8875 110.56017L544.5125 110.56017ZM553.5125 110.56017L553.5125 111.91955L545.9344 111.91955Q545.91876 111.40392 546.10626 110.93517Q546.3875 110.16955 547.02814 109.41955Q547.66876 108.66955 548.8719 107.68517Q550.73126 106.15392 551.3875 105.2633Q552.04376 104.35705 552.04376 103.56017Q552.04376 102.73205 551.45 102.15392Q550.85626 101.5758 549.8875 101.5758Q548.8719 101.5758 548.2625 102.18517Q547.65314 102.79455 547.65314 103.87267L546.2 103.73205Q546.35626 102.10705 547.325 101.2633Q548.29376 100.41955 549.91876 100.41955Q551.575 100.41955 552.52814 101.34142Q553.4969 102.24767 553.4969 103.59142Q553.4969 104.27892 553.21564 104.9508Q552.9344 105.60705 552.27814 106.34142Q551.6219 107.0758 550.10626 108.35705Q548.84064 109.41955 548.48126 109.81017Q548.1219 110.18517 547.8875 110.56017L553.5125 110.56017ZM555.90314 111.91955L555.90314 110.31017L557.5125 110.31017L557.5125 111.91955L555.90314 111.91955ZM566.5125 110.56017L566.5125 111.91955L558.9344 111.91955Q558.91876 111.40392 559.10626 110.93517Q559.3875 110.16955 560.02814 109.41955Q560.66876 108.66955 561.8719 107.68517Q563.73126 106.15392 564.3875 105.2633Q565.04376 104.35705 565.04376 103.56017Q565.04376 102.73205 564.45 102.15392Q563.85626 101.5758 562.8875 101.5758Q561.8719 101.5758 561.2625 102.18517Q560.65314 102.79455 560.65314 103.87267L559.2 103.73205Q559.35626 102.10705 560.325 101.2633Q561.29376 100.41955 562.91876 100.41955Q564.575 100.41955 565.52814 101.34142Q566.4969 102.24767 566.4969 103.59142Q566.4969 104.27892 566.21564 104.9508Q565.9344 105.60705 565.27814 106.34142Q564.6219 107.0758 563.10626 108.35705Q561.84064 109.41955 561.48126 109.81017Q561.1219 110.18517 560.8875 110.56017L566.5125 110.56017ZM568.3875 103.21642Q568.3875 101.98205 568.9969 101.12267Q569.6219 100.2633 570.79376 100.2633Q571.8719 100.2633 572.575 101.04455Q573.27814 101.81017 573.27814 103.29455Q573.27814 104.74767 572.5594 105.54455Q571.85626 106.3258 570.8094 106.3258Q569.7625 106.3258 569.075 105.56017Q568.3875 104.77892 568.3875 103.21642ZM570.825 101.23205Q570.3094 101.23205 569.95 101.68517Q569.60626 102.1383 569.60626 103.35705Q569.60626 104.4508 569.95 104.90392Q570.3094 105.35705 570.825 105.35705Q571.35626 105.35705 571.7 104.90392Q572.0594 104.4508 572.0594 103.24767Q572.0594 102.1383 571.7 101.68517Q571.35626 101.23205 570.825 101.23205ZM570.84064 112.34142L577.10626 100.2633L578.2469 100.2633L571.9969 112.34142L570.84064 112.34142ZM575.79376 109.23205Q575.79376 107.99767 576.40314 107.1383Q577.02814 106.27892 578.2 106.27892Q579.27814 106.27892 579.98126 107.06017Q580.7 107.8258 580.7 109.31017Q580.7 110.7633 579.98126 111.56017Q579.2625 112.34142 578.21564 112.34142Q577.16876 112.34142 576.48126 111.56017Q575.79376 110.77892 575.79376 109.23205ZM578.2469 107.24767Q577.71564 107.24767 577.35626 107.7008Q577.0125 108.15392 577.0125 109.37267Q577.0125 110.46642 577.35626 110.91955Q577.71564 111.37267 578.23126 111.37267Q578.77814 111.37267 579.1219 110.91955Q579.46564 110.46642 579.46564 109.2633Q579.46564 108.15392 579.10626 107.7008Q578.7625 107.24767 578.2469 107.24767Z" fill-rule="nonzero"/><path stroke="#757575" stroke-width="1.0" stroke-linecap="butt" d="M581.45 95.41955L454.76666 95.41955L390.84412 95.41955" fill-rule="nonzero"/><path fill="#9e9e9e" d="M392.84412 95.41955C392.84412 94.31498 391.94867 93.41955 390.84412 93.41955C389.73953 93.41955 388.84412 94.31498 388.84412 95.41955C388.84412 96.52412 389.73953 97.41955 390.84412 97.41955C391.94867 97.41955 392.84412 96.52412 392.84412 95.41955" fill-rule="nonzero"/><path fill="#efefef" d="M531.6375 268.8475L531.6375 257.39438L533.91876 257.39438L536.6375 265.50375Q537.0125 266.62875 537.1844 267.19125Q537.3719 266.56625 537.79376 265.36313L540.52814 257.39438L542.575 257.39438L542.575 268.8475L541.10626 268.8475L541.10626 259.25375L537.77814 268.8475L536.41876 268.8475L533.10626 259.0975L533.10626 268.8475L531.6375 268.8475ZM544.5125 259.00375L544.5125 257.39438L545.91876 257.39438L545.91876 259.00375L544.5125 259.00375ZM544.5125 268.8475L544.5125 260.55063L545.91876 260.55063L545.91876 268.8475L544.5125 268.8475ZM548.48126 268.8475L548.48126 257.39438L549.8875 257.39438L549.8875 268.8475L548.48126 268.8475ZM552.5125 259.00375L552.5125 257.39438L553.91876 257.39438L553.91876 259.00375L552.5125 259.00375ZM552.5125 268.8475L552.5125 260.55063L553.91876 260.55063L553.91876 268.8475L552.5125 268.8475ZM559.575 267.58188L559.77814 268.83188Q559.1844 268.95688 558.71564 268.95688Q557.95 268.95688 557.52814 268.7225Q557.10626 268.4725 556.9344 268.08188Q556.7625 267.67563 556.7625 266.41L556.7625 261.64438L555.73126 261.64438L555.73126 260.55063L556.7625 260.55063L556.7625 258.48813L558.16876 257.64438L558.16876 260.55063L559.575 260.55063L559.575 261.64438L558.16876 261.64438L558.16876 266.48813Q558.16876 267.0975 558.23126 267.26938Q558.3094 267.44125 558.48126 267.55063Q558.65314 267.64438 558.96564 267.64438Q559.2 267.64438 559.575 267.58188ZM565.91876 267.81625Q565.1375 268.48813 564.41876 268.76938Q563.7 269.035 562.8719 269.035Q561.4969 269.035 560.7625 268.36313Q560.02814 267.69125 560.02814 266.66Q560.02814 266.05063 560.3094 265.55063Q560.59064 265.035 561.02814 264.73813Q561.48126 264.42563 562.04376 264.26938Q562.46564 264.16 563.29376 264.06625Q564.9969 263.86313 565.8094 263.58188Q565.8094 263.285 565.8094 263.20688Q565.8094 262.3475 565.41876 262.00375Q564.8719 261.51938 563.8094 261.51938Q562.825 261.51938 562.34064 261.87875Q561.8719 262.2225 561.65314 263.0975L560.27814 262.91Q560.46564 262.035 560.8875 261.48813Q561.325 260.94125 562.1375 260.66Q562.95 260.36313 564.0125 260.36313Q565.075 260.36313 565.73126 260.61313Q566.40314 260.86313 566.71564 261.23813Q567.02814 261.61313 567.15314 262.19125Q567.23126 262.55063 567.23126 263.48813L567.23126 265.36313Q567.23126 267.33188 567.3094 267.8475Q567.40314 268.36313 567.66876 268.8475L566.2 268.8475Q565.98126 268.41 565.91876 267.81625ZM565.8094 264.67563Q565.04376 264.98813 563.5125 265.20688Q562.6375 265.33188 562.27814 265.48813Q561.91876 265.64438 561.71564 265.95688Q561.52814 266.25375 561.52814 266.61313Q561.52814 267.17563 561.95 267.55063Q562.3875 267.92563 563.2 267.92563Q564.0125 267.92563 564.6375 267.58188Q565.27814 267.2225 565.575 266.5975Q565.8094 266.12875 565.8094 265.19125L565.8094 264.67563ZM569.4969 268.8475L569.4969 260.55063L570.7625 260.55063L570.7625 261.80063Q571.2469 260.92563 571.65314 260.64438Q572.0594 260.36313 572.5594 260.36313Q573.2625 260.36313 573.9969 260.81625L573.5125 262.11313Q572.9969 261.81625 572.48126 261.81625Q572.02814 261.81625 571.65314 262.0975Q571.29376 262.36313 571.1375 262.86313Q570.90314 263.61313 570.90314 264.50375L570.90314 268.8475L569.4969 268.8475ZM574.45 272.05063L574.29376 270.7225Q574.7469 270.8475 575.09064 270.8475Q575.5594 270.8475 575.84064 270.69125Q576.1219 270.535 576.3094 270.25375Q576.4344 270.05063 576.73126 269.20688Q576.77814 269.0975 576.85626 268.86313L573.71564 260.55063L575.23126 260.55063L576.95 265.3475Q577.29376 266.26938 577.5594 267.26938Q577.79376 266.30063 578.1375 265.37875L579.90314 260.55063L581.3094 260.55063L578.15314 268.98813Q577.65314 270.36313 577.3719 270.87875Q576.9969 271.56625 576.5125 271.89438Q576.02814 272.2225 575.35626 272.2225Q574.95 272.2225 574.45 272.05063Z" fill-rule="nonzero"/><path fill="#9e9e9e" d="M544.5125 289.48813L544.5125 290.8475L536.9344 290.8475Q536.91876 290.33188 537.10626 289.86313Q537.3875 289.0975 538.02814 288.3475Q538.66876 287.5975 539.8719 286.61313Q541.73126 285.08188 542.3875 284.19125Q543.04376 283.285 543.04376 282.48813Q543.04376 281.66 542.45 281.08188Q541.85626 280.50375 540.8875 280.50375Q539.8719 280.50375 539.2625 281.11313Q538.65314 281.7225 538.65314 282.80063L537.2 282.66Q537.35626 281.035 538.325 280.19125Q539.29376 279.3475 540.91876 279.3475Q542.575 279.3475 543.52814 280.26938Q544.4969 281.17563 544.4969 282.51938Q544.4969 283.20688 544.21564 283.87875Q543.9344 284.535 543.27814 285.26938Q542.6219 286.00375 541.10626 287.285Q539.84064 288.3475 539.48126 288.73813Q539.1219 289.11313 538.8875 289.48813L544.5125 289.48813ZM553.5125 289.48813L553.5125 290.8475L545.9344 290.8475Q545.91876 290.33188 546.10626 289.86313Q546.3875 289.0975 547.02814 288.3475Q547.66876 287.5975 548.8719 286.61313Q550.73126 285.08188 551.3875 284.19125Q552.04376 283.285 552.04376 282.48813Q552.04376 281.66 551.45 281.08188Q550.85626 280.50375 549.8875 280.50375Q548.8719 280.50375 548.2625 281.11313Q547.65314 281.7225 547.65314 282.80063L546.2 282.66Q546.35626 281.035 547.325 280.19125Q548.29376 279.3475 549.91876 279.3475Q551.575 279.3475 552.52814 280.26938Q553.4969 281.17563 553.4969 282.51938Q553.4969 283.20688 553.21564 283.87875Q552.9344 284.535 552.27814 285.26938Q551.6219 286.00375 550.10626 287.285Q548.84064 288.3475 548.48126 288.73813Q548.1219 289.11313 547.8875 289.48813L553.5125 289.48813ZM555.90314 290.8475L555.90314 289.23813L557.5125 289.23813L557.5125 290.8475L555.90314 290.8475ZM566.5125 289.48813L566.5125 290.8475L558.9344 290.8475Q558.91876 290.33188 559.10626 289.86313Q559.3875 289.0975 560.02814 288.3475Q560.66876 287.5975 561.8719 286.61313Q563.73126 285.08188 564.3875 284.19125Q565.04376 283.285 565.04376 282.48813Q565.04376 281.66 564.45 281.08188Q563.85626 280.50375 562.8875 280.50375Q561.8719 280.50375 561.2625 281.11313Q560.65314 281.7225 560.65314 282.80063L559.2 282.66Q559.35626 281.035 560.325 280.19125Q561.29376 279.3475 562.91876 279.3475Q564.575 279.3475 565.52814 280.26938Q566.4969 281.17563 566.4969 282.51938Q566.4969 283.20688 566.21564 283.87875Q565.9344 284.535 565.27814 285.26938Q564.6219 286.00375 563.10626 287.285Q561.84064 288.3475 561.48126 288.73813Q561.1219 289.11313 560.8875 289.48813L566.5125 289.48813ZM568.3875 282.14438Q568.3875 280.91 568.9969 280.05063Q569.6219 279.19125 570.79376 279.19125Q571.8719 279.19125 572.575 279.9725Q573.27814 280.73813 573.27814 282.2225Q573.27814 283.67563 572.5594 284.4725Q571.85626 285.25375 570.8094 285.25375Q569.7625 285.25375 569.075 284.48813Q568.3875 283.70688 568.3875 282.14438ZM570.825 280.16Q570.3094 280.16 569.95 280.61313Q569.60626 281.06625 569.60626 282.285Q569.60626 283.37875 569.95 283.83188Q570.3094 284.285 570.825 284.285Q571.35626 284.285 571.7 283.83188Q572.0594 283.37875 572.0594 282.17563Q572.0594 281.06625 571.7 280.61313Q571.35626 280.16 570.825 280.16ZM570.84064 291.26938L577.10626 279.19125L578.2469 279.19125L571.9969 291.26938L570.84064 291.26938ZM575.79376 288.16Q575.79376 286.92563 576.40314 286.06625Q577.02814 285.20688 578.2 285.20688Q579.27814 285.20688 579.98126 285.98813Q580.7 286.75375 580.7 288.23813Q580.7 289.69125 579.98126 290.48813Q579.2625 291.26938 578.21564 291.26938Q577.16876 291.26938 576.48126 290.48813Q575.79376 289.70688 575.79376 288.16ZM578.2469 286.17563Q577.71564 286.17563 577.35626 286.62875Q577.0125 287.08188 577.0125 288.30063Q577.0125 289.39438 577.35626 289.8475Q577.71564 290.30063 578.23126 290.30063Q578.77814 290.30063 579.1219 289.8475Q579.46564 289.39438 579.46564 288.19125Q579.46564 287.08188 579.10626 286.62875Q578.7625 286.17563 578.2469 286.17563Z" fill-rule="nonzero"/><path stroke="#757575" stroke-width="1.0" stroke-linecap="butt" d="M581.45 274.3475L454.76666 274.3475L422.39392 274.3475" fill-rule="nonzero"/><path fill="#9e9e9e" d="M424.39392 274.3475C424.39392 273.24292 423.4985 272.3475 422.39392 272.3475C421.28937 272.3475 420.39392 273.24292 420.39392 274.3475C420.39392 275.45206 421.28937 276.3475 422.39392 276.3475C423.4985 276.3475 424.39392 275.45206 424.39392 274.3475" fill-rule="nonzero"/><path fill="#f3f3f3" d="M271.26562 32.534374L273.15625 33.003124Q272.5625 35.346874 271.01562 36.58125Q269.46875 37.8 267.21875 37.8Q264.90625 37.8 263.45312 36.8625Q262.01562 35.909374 261.25 34.128124Q260.5 32.33125 260.5 30.284374Q260.5 28.05 261.34375 26.39375Q262.20312 24.721874 263.78125 23.8625Q265.35938 22.9875 267.25 22.9875Q269.40625 22.9875 270.85938 24.08125Q272.32812 25.175 272.90625 27.159374L271.04688 27.596874Q270.54688 26.034374 269.59375 25.33125Q268.65625 24.6125 267.21875 24.6125Q265.5625 24.6125 264.45312 25.409374Q263.34375 26.190624 262.89062 27.534374Q262.45312 28.8625 262.45312 30.26875Q262.45312 32.096874 262.98438 33.471874Q263.51562 34.83125 264.64062 35.503124Q265.76562 36.175 267.0625 36.175Q268.65625 36.175 269.76562 35.253124Q270.875 34.33125 271.26562 32.534374ZM281.59375 36.26875Q280.60938 37.096874 279.70312 37.440624Q278.79688 37.784374 277.76562 37.784374Q276.0625 37.784374 275.14062 36.95625Q274.21875 36.1125 274.21875 34.815624Q274.21875 34.05 274.5625 33.425Q274.92188 32.8 275.48438 32.425Q276.04688 32.034374 276.75 31.83125Q277.26562 31.70625 278.3125 31.565624Q280.4375 31.315624 281.4375 30.971874Q281.45312 30.6125 281.45312 30.503124Q281.45312 29.440624 280.95312 28.9875Q280.28125 28.39375 278.95312 28.39375Q277.70312 28.39375 277.10938 28.83125Q276.53125 29.26875 276.25 30.378124L274.53125 30.14375Q274.76562 29.034374 275.29688 28.3625Q275.82812 27.675 276.84375 27.315624Q277.85938 26.940624 279.20312 26.940624Q280.53125 26.940624 281.35938 27.253124Q282.1875 27.565624 282.57812 28.05Q282.96875 28.51875 283.125 29.2375Q283.21875 29.690624 283.21875 30.8625L283.21875 33.20625Q283.21875 35.659374 283.32812 36.315624Q283.4375 36.95625 283.78125 37.55L281.9375 37.55Q281.67188 37.003124 281.59375 36.26875ZM281.4375 32.346874Q280.48438 32.7375 278.5625 33.003124Q277.48438 33.159374 277.03125 33.3625Q276.59375 33.55 276.34375 33.925Q276.09375 34.3 276.09375 34.76875Q276.09375 35.471874 276.625 35.940624Q277.15625 36.409374 278.1875 36.409374Q279.20312 36.409374 279.98438 35.971874Q280.78125 35.51875 281.15625 34.753124Q281.4375 34.14375 281.4375 32.9875L281.4375 32.346874ZM289.65625 35.971874L289.90625 37.534374Q289.17188 37.690624 288.57812 37.690624Q287.625 37.690624 287.09375 37.39375Q286.57812 37.08125 286.35938 36.596874Q286.14062 36.096874 286.14062 34.51875L286.14062 28.55L284.85938 28.55L284.85938 27.175L286.14062 27.175L286.14062 24.6125L287.89062 23.55L287.89062 27.175L289.65625 27.175L289.65625 28.55L287.89062 28.55L287.89062 34.6125Q287.89062 35.3625 287.98438 35.58125Q288.07812 35.784374 288.28125 35.925Q288.5 36.05 288.89062 36.05Q289.17188 36.05 289.65625 35.971874ZM298.92188 34.20625L300.73438 34.440624Q300.3125 36.01875 299.14062 36.909374Q297.98438 37.784374 296.17188 37.784374Q293.90625 37.784374 292.5625 36.39375Q291.23438 34.9875 291.23438 32.45625Q291.23438 29.83125 292.57812 28.39375Q293.92188 26.940624 296.07812 26.940624Q298.15625 26.940624 299.46875 28.3625Q300.79688 29.76875 300.79688 32.346874Q300.79688 32.503124 300.78125 32.815624L293.04688 32.815624Q293.14062 34.51875 294.01562 35.425Q294.89062 36.33125 296.1875 36.33125Q297.15625 36.33125 297.82812 35.83125Q298.51562 35.315624 298.92188 34.20625ZM293.14062 31.3625L298.9375 31.3625Q298.82812 30.065624 298.28125 29.409374Q297.4375 28.39375 296.09375 28.39375Q294.89062 28.39375 294.0625 29.20625Q293.23438 30.003124 293.14062 31.3625ZM302.5 38.409374L304.20312 38.659374Q304.3125 39.45625 304.79688 39.815624Q305.45312 40.3 306.59375 40.3Q307.8125 40.3 308.46875 39.815624Q309.14062 39.33125 309.375 38.45625Q309.51562 37.909374 309.5 36.190624Q308.34375 37.55 306.625 37.55Q304.48438 37.55 303.3125 36.003124Q302.14062 34.45625 302.14062 32.3Q302.14062 30.815624 302.67188 29.565624Q303.21875 28.315624 304.23438 27.628124Q305.26562 26.940624 306.64062 26.940624Q308.46875 26.940624 309.67188 28.425L309.67188 27.175L311.28125 27.175L311.28125 36.14375Q311.28125 38.565624 310.78125 39.565624Q310.29688 40.58125 309.21875 41.159374Q308.15625 41.753124 306.59375 41.753124Q304.75 41.753124 303.59375 40.925Q302.45312 40.096874 302.5 38.409374ZM303.95312 32.175Q303.95312 34.221874 304.76562 35.159374Q305.57812 36.096874 306.79688 36.096874Q308.0 36.096874 308.8125 35.159374Q309.64062 34.221874 309.64062 32.2375Q309.64062 30.33125 308.79688 29.3625Q307.95312 28.39375 306.76562 28.39375Q305.59375 28.39375 304.76562 29.346874Q303.95312 30.3 303.95312 32.175ZM313.17188 32.3625Q313.17188 29.4875 314.76562 28.096874Q316.10938 26.940624 318.03125 26.940624Q320.17188 26.940624 321.51562 28.346874Q322.875 29.753124 322.875 32.221874Q322.875 34.221874 322.28125 35.378124Q321.6875 36.51875 320.53125 37.159374Q319.39062 37.784374 318.03125 37.784374Q315.84375 37.784374 314.5 36.39375Q313.17188 34.9875 313.17188 32.3625ZM314.96875 32.3625Q314.96875 34.3625 315.82812 35.346874Q316.70312 36.33125 318.03125 36.33125Q319.34375 36.33125 320.20312 35.346874Q321.07812 34.346874 321.07812 32.3Q321.07812 30.378124 320.20312 29.39375Q319.32812 28.39375 318.03125 28.39375Q316.70312 28.39375 315.82812 29.39375Q314.96875 30.378124 314.96875 32.3625ZM324.79688 37.55L324.79688 27.175L326.375 27.175L326.375 28.753124Q326.98438 27.64375 327.5 27.3Q328.01562 26.940624 328.625 26.940624Q329.51562 26.940624 330.4375 27.503124L329.82812 29.14375Q329.1875 28.753124 328.54688 28.753124Q327.96875 28.753124 327.5 29.1125Q327.04688 29.45625 326.84375 30.065624Q326.5625 31.003124 326.5625 32.1125L326.5625 37.55L324.79688 37.55ZM331.73438 41.55L331.54688 39.89375Q332.125 40.05 332.54688 40.05Q333.14062 40.05 333.48438 39.846874Q333.84375 39.659374 334.0625 39.315624Q334.23438 39.05 334.60938 38.003124Q334.65625 37.846874 334.76562 37.565624L330.82812 27.175L332.71875 27.175L334.875 33.190624Q335.29688 34.33125 335.625 35.58125Q335.9375 34.378124 336.34375 33.221874L338.5625 27.175L340.32812 27.175L336.375 37.721874Q335.75 39.440624 335.39062 40.08125Q334.92188 40.95625 334.3125 41.346874Q333.71875 41.753124 332.875 41.753124Q332.35938 41.753124 331.73438 41.55Z" fill-rule="nonzero"/></svg>