<svg version="1.1" viewBox="0.0 0.0 600.0 371.0" fill="none" stroke="none" stroke-linecap="square" stroke-miterlimit="10" width="600" height="371" xmlns:xlink="http://www.w3.org/1999/xlink" xmlns="http://www.w3.org/2000/svg"><path fill="#ffffff" fill-opacity="0.0" d="M0 0L600.0 0L600.0 371.0L0 371.0L0 0Z" fill-rule="nonzero"/><path fill="#304388" d="M300.0 54.916668C345.27335 54.916668 388.08298 75.53269 416.31046 110.92883L329.0776 180.4947C322.02075 171.64568 311.31833 166.49167 300.0 166.49167Z" fill-rule="nonzero"/><path fill="#cf4366" d="M416.31046 110.92883C444.53793 146.32497 455.11105 192.64877 445.03677 236.78703C434.9625 280.9253 405.33734 318.0741 364.54742 337.71747L316.13687 237.19186C326.33432 232.28102 333.74063 222.99382 336.2592 211.95926C338.77777 200.9247 336.1345 189.34375 329.0776 180.4947Z" fill-rule="nonzero"/><path fill="#e5a345" d="M183.68953 110.92883C211.91702 75.53269 254.72664 54.916668 300.0 54.916668L300.0 166.49167C288.68167 166.49167 277.97925 171.64568 270.9224 180.4947Z" fill-rule="nonzero"/><path fill="#df8d43" d="M154.96323 236.78703C144.88895 192.64877 155.46205 146.32497 183.68953 110.92883L270.9224 180.4947C263.8655 189.34375 261.22223 200.9247 263.7408 211.95926Z" fill-rule="nonzero"/><path fill="#d8753e" d="M364.54742 337.71747C323.75754 357.36084 276.24246 357.36084 235.45256 337.71747C194.66267 318.0741 165.03749 280.9253 154.96323 236.78703L263.7408 211.95926C266.25937 222.99382 273.66568 232.28102 283.86313 237.19186C294.0606 242.1027 305.9394 242.1027 316.13687 237.19186Z" fill-rule="nonzero"/><path fill="#ffffff" d="M327.28397 114.495476L325.70584 114.495476L325.70584 104.41735Q325.12772 104.964226 324.20584 105.5111Q323.28397 106.04235 322.53397 106.3236L322.53397 104.79235Q323.8621 104.16735 324.8621 103.276726Q325.8621 102.3861 326.26834 101.557976L327.28397 101.557976L327.28397 114.495476ZM336.39334 114.495476L336.39334 111.41735L330.81522 111.41735L330.81522 109.964226L336.69022 101.60485L337.9871 101.60485L337.9871 109.964226L339.72147 109.964226L339.72147 111.41735L337.9871 111.41735L337.9871 114.495476L336.39334 114.495476ZM336.39334 109.964226L336.39334 104.151726L332.3621 109.964226L336.39334 109.964226ZM342.22147 114.495476L342.22147 112.6986L344.01834 112.6986L344.01834 114.495476L342.22147 114.495476ZM346.33084 111.089226L347.9246 110.8861Q348.19022 112.22985 348.84647 112.8236Q349.50272 113.41735 350.44022 113.41735Q351.56522 113.41735 352.33084 112.651726Q353.09647 111.870476 353.09647 110.72985Q353.09647 109.6361 352.37772 108.932976Q351.6746 108.214226 350.58084 108.214226Q350.12772 108.214226 349.45584 108.401726L349.62772 107.0111Q349.78397 107.026726 349.89334 107.026726Q350.89334 107.026726 351.70584 106.495476Q352.51834 105.964226 352.51834 104.870476Q352.51834 103.995476 351.9246 103.432976Q351.33084 102.85485 350.40897 102.85485Q349.4871 102.85485 348.8621 103.432976Q348.25272 104.0111 348.08084 105.182976L346.50272 104.901726Q346.78397 103.307976 347.81522 102.432976Q348.84647 101.557976 350.37772 101.557976Q351.4246 101.557976 352.31522 102.0111Q353.20584 102.464226 353.6746 103.245476Q354.14334 104.026726 354.14334 104.901726Q354.14334 105.745476 353.69022 106.432976Q353.25272 107.10485 352.3621 107.5111Q353.50272 107.776726 354.12772 108.620476Q354.76834 109.4486 354.76834 110.682976Q354.76834 112.370476 353.53397 113.557976Q352.31522 114.72985 350.44022 114.72985Q348.7371 114.72985 347.6121 113.714226Q346.50272 112.6986 346.33084 111.089226ZM356.62772 104.6986Q356.62772 103.3236 357.31522 102.35485Q358.01834 101.3861 359.33084 101.3861Q360.5496 101.3861 361.34647 102.2611Q362.14334 103.120476 362.14334 104.807976Q362.14334 106.432976 361.33084 107.3236Q360.53397 108.1986 359.34647 108.1986Q358.19022 108.1986 357.40897 107.339226Q356.62772 106.464226 356.62772 104.6986ZM359.37772 102.47985Q358.78397 102.47985 358.39334 102.995476Q358.00272 103.495476 358.00272 104.85485Q358.00272 106.10485 358.39334 106.60485Q358.7996 107.10485 359.37772 107.10485Q359.97147 107.10485 360.3621 106.60485Q360.75272 106.089226 360.75272 104.745476Q360.75272 103.495476 360.3621 102.995476Q359.97147 102.47985 359.37772 102.47985ZM359.39334 114.964226L366.44022 101.3861L367.72147 101.3861L360.69022 114.964226L359.39334 114.964226ZM364.95584 111.464226Q364.95584 110.089226 365.64334 109.120476Q366.34647 108.151726 367.6746 108.151726Q368.89334 108.151726 369.6746 109.026726Q370.47147 109.8861 370.47147 111.5736Q370.47147 113.1986 369.6746 114.089226Q368.87772 114.964226 367.69022 114.964226Q366.51834 114.964226 365.7371 114.089226Q364.95584 113.214226 364.95584 111.464226ZM367.72147 109.245476Q367.12772 109.245476 366.7371 109.7611Q366.34647 110.2611 366.34647 111.6361Q366.34647 112.85485 366.7371 113.370476Q367.12772 113.8861 367.70584 113.8861Q368.31522 113.8861 368.70584 113.370476Q369.09647 112.85485 369.09647 111.5111Q369.09647 110.2611 368.70584 109.7611Q368.31522 109.245476 367.72147 109.245476Z" fill-rule="nonzero"/><path fill="#ffffff" d="M383.9009 231.56929L383.9009 233.08492L375.38528 233.08492Q375.36966 232.50679 375.57278 231.99117Q375.9009 231.11617 376.60403 230.27242Q377.32278 229.42867 378.68216 228.31929Q380.7759 226.60054 381.51028 225.60054Q382.26028 224.58492 382.26028 223.69429Q382.26028 222.74117 381.5884 222.10054Q380.91653 221.45992 379.8384 221.45992Q378.68216 221.45992 377.99466 222.14742Q377.32278 222.83492 377.30716 224.03804L375.68216 223.86617Q375.85403 222.05367 376.93216 221.10054Q378.0259 220.14742 379.86966 220.14742Q381.7134 220.14742 382.79153 221.17867Q383.88528 222.20992 383.88528 223.72554Q383.88528 224.49117 383.55716 225.24117Q383.24466 225.99117 382.51028 226.81929Q381.7759 227.64742 380.07278 229.08492Q378.6509 230.28804 378.24466 230.70992Q377.8384 231.13179 377.5884 231.56929L383.9009 231.56929ZM388.0259 226.10054Q387.04153 225.74117 386.55716 225.06929Q386.0884 224.39742 386.0884 223.47554Q386.0884 222.06929 387.0884 221.11617Q388.10403 220.14742 389.79153 220.14742Q391.47903 220.14742 392.49466 221.13179Q393.5259 222.10054 393.5259 223.50679Q393.5259 224.41304 393.05716 225.08492Q392.5884 225.74117 391.63528 226.10054Q392.82278 226.49117 393.43216 227.35054Q394.05716 228.20992 394.05716 229.39742Q394.05716 231.05367 392.88528 232.17867Q391.7134 233.30367 389.80716 233.30367Q387.9009 233.30367 386.72903 232.17867Q385.57278 231.03804 385.57278 229.35054Q385.57278 228.10054 386.19778 227.25679Q386.8384 226.39742 388.0259 226.10054ZM387.69778 223.41304Q387.69778 224.33492 388.29153 224.91304Q388.88528 225.49117 389.82278 225.49117Q390.72903 225.49117 391.30716 224.91304Q391.9009 224.33492 391.9009 223.50679Q391.9009 222.63179 391.29153 222.03804Q390.69778 221.44429 389.80716 221.44429Q388.9009 221.44429 388.29153 222.02242Q387.69778 222.60054 387.69778 223.41304ZM387.19778 229.36617Q387.19778 230.03804 387.51028 230.67867Q387.8384 231.30367 388.4634 231.66304Q389.10403 232.00679 389.8384 232.00679Q390.9634 232.00679 391.69778 231.27242Q392.44778 230.53804 392.44778 229.41304Q392.44778 228.27242 391.68216 227.53804Q390.91653 226.78804 389.7759 226.78804Q388.66653 226.78804 387.93216 227.52242Q387.19778 228.25679 387.19778 229.36617ZM396.47903 233.08492L396.47903 231.28804L398.2759 231.28804L398.2759 233.08492L396.47903 233.08492ZM408.79153 223.35054L407.22903 223.47554Q407.01028 222.55367 406.61966 222.13179Q405.97903 221.44429 405.04153 221.44429Q404.29153 221.44429 403.7134 221.86617Q402.9634 222.41304 402.5259 223.45992Q402.10403 224.50679 402.0884 226.44429Q402.66653 225.56929 403.47903 225.14742Q404.30716 224.72554 405.2134 224.72554Q406.80716 224.72554 407.91653 225.89742Q409.0259 227.05367 409.0259 228.89742Q409.0259 230.11617 408.49466 231.16304Q407.97903 232.19429 407.05716 232.75679Q406.1509 233.30367 404.99466 233.30367Q403.01028 233.30367 401.76028 231.85054Q400.51028 230.39742 400.51028 227.05367Q400.51028 223.31929 401.9009 221.61617Q403.10403 220.14742 405.13528 220.14742Q406.66653 220.14742 407.63528 221.00679Q408.60403 221.85054 408.79153 223.35054ZM402.3384 228.91304Q402.3384 229.72554 402.68216 230.47554Q403.0259 231.22554 403.6509 231.61617Q404.2759 232.00679 404.9634 232.00679Q405.9634 232.00679 406.68216 231.19429Q407.4009 230.38179 407.4009 228.99117Q407.4009 227.66304 406.68216 226.89742Q405.97903 226.11617 404.9009 226.11617Q403.82278 226.11617 403.07278 226.89742Q402.3384 227.66304 402.3384 228.91304ZM410.88528 223.28804Q410.88528 221.91304 411.57278 220.94429Q412.2759 219.97554 413.5884 219.97554Q414.80716 219.97554 415.60403 220.85054Q416.4009 221.70992 416.4009 223.39742Q416.4009 225.02242 415.5884 225.91304Q414.79153 226.78804 413.60403 226.78804Q412.44778 226.78804 411.66653 225.92867Q410.88528 225.05367 410.88528 223.28804ZM413.63528 221.06929Q413.04153 221.06929 412.6509 221.58492Q412.26028 222.08492 412.26028 223.44429Q412.26028 224.69429 412.6509 225.19429Q413.05716 225.69429 413.63528 225.69429Q414.22903 225.69429 414.61966 225.19429Q415.01028 224.67867 415.01028 223.33492Q415.01028 222.08492 414.61966 221.58492Q414.22903 221.06929 413.63528 221.06929ZM413.6509 233.55367L420.69778 219.97554L421.97903 219.97554L414.94778 233.55367L413.6509 233.55367ZM419.2134 230.05367Q419.2134 228.67867 419.9009 227.70992Q420.60403 226.74117 421.93216 226.74117Q423.1509 226.74117 423.93216 227.61617Q424.72903 228.47554 424.72903 230.16304Q424.72903 231.78804 423.93216 232.67867Q423.13528 233.55367 421.94778 233.55367Q420.7759 233.55367 419.99466 232.67867Q419.2134 231.80367 419.2134 230.05367ZM421.97903 227.83492Q421.38528 227.83492 420.99466 228.35054Q420.60403 228.85054 420.60403 230.22554Q420.60403 231.44429 420.99466 231.95992Q421.38528 232.47554 421.9634 232.47554Q422.57278 232.47554 422.9634 231.95992Q423.35403 231.44429 423.35403 230.10054Q423.35403 228.85054 422.9634 228.35054Q422.57278 227.83492 421.97903 227.83492Z" fill-rule="nonzero"/><path fill="#ffffff" d="M237.48166 304.35556L237.48166 305.8712L228.96603 305.8712Q228.95041 305.29306 229.15353 304.77744Q229.48166 303.90244 230.18478 303.0587Q230.90353 302.21494 232.26291 301.10556Q234.35666 299.3868 235.09103 298.3868Q235.84103 297.3712 235.84103 296.48056Q235.84103 295.52744 235.16916 294.8868Q234.49728 294.2462 233.41916 294.2462Q232.26291 294.2462 231.57541 294.9337Q230.90353 295.6212 230.88791 296.8243L229.26291 296.65244Q229.43478 294.83994 230.51291 293.8868Q231.60666 292.9337 233.45041 292.9337Q235.29416 292.9337 236.37228 293.96494Q237.46603 294.9962 237.46603 296.5118Q237.46603 297.27744 237.13791 298.02744Q236.82541 298.77744 236.09103 299.60556Q235.35666 300.4337 233.65353 301.8712Q232.23166 303.0743 231.82541 303.4962Q231.41916 303.91806 231.16916 304.35556L237.48166 304.35556ZM241.60666 298.8868Q240.62228 298.52744 240.13791 297.85556Q239.66916 297.1837 239.66916 296.2618Q239.66916 294.85556 240.66916 293.90244Q241.68478 292.9337 243.37228 292.9337Q245.05978 292.9337 246.07541 293.91806Q247.10666 294.8868 247.10666 296.29306Q247.10666 297.1993 246.63791 297.8712Q246.16916 298.52744 245.21603 298.8868Q246.40353 299.27744 247.01291 300.1368Q247.63791 300.9962 247.63791 302.1837Q247.63791 303.83994 246.46603 304.96494Q245.29416 306.08994 243.38791 306.08994Q241.48166 306.08994 240.30978 304.96494Q239.15353 303.8243 239.15353 302.1368Q239.15353 300.8868 239.77853 300.04306Q240.41916 299.1837 241.60666 298.8868ZM241.27853 296.1993Q241.27853 297.1212 241.87228 297.6993Q242.46603 298.27744 243.40353 298.27744Q244.30978 298.27744 244.88791 297.6993Q245.48166 297.1212 245.48166 296.29306Q245.48166 295.41806 244.87228 294.8243Q244.27853 294.23056 243.38791 294.23056Q242.48166 294.23056 241.87228 294.8087Q241.27853 295.3868 241.27853 296.1993ZM240.77853 302.15244Q240.77853 302.8243 241.09103 303.46494Q241.41916 304.08994 242.04416 304.4493Q242.68478 304.79306 243.41916 304.79306Q244.54416 304.79306 245.27853 304.0587Q246.02853 303.3243 246.02853 302.1993Q246.02853 301.0587 245.26291 300.3243Q244.49728 299.5743 243.35666 299.5743Q242.24728 299.5743 241.51291 300.3087Q240.77853 301.04306 240.77853 302.15244ZM250.05978 305.8712L250.05978 304.0743L251.85666 304.0743L251.85666 305.8712L250.05978 305.8712ZM262.37228 296.1368L260.80978 296.2618Q260.59103 295.33994 260.2004 294.91806Q259.55978 294.23056 258.62228 294.23056Q257.87228 294.23056 257.29416 294.65244Q256.54416 295.1993 256.10666 296.2462Q255.68478 297.29306 255.66916 299.23056Q256.24728 298.35556 257.05978 297.9337Q257.8879 297.5118 258.79416 297.5118Q260.3879 297.5118 261.49728 298.6837Q262.60666 299.83994 262.60666 301.6837Q262.60666 302.90244 262.0754 303.9493Q261.55978 304.98056 260.6379 305.54306Q259.73166 306.08994 258.5754 306.08994Q256.59103 306.08994 255.34103 304.6368Q254.09103 303.1837 254.09103 299.83994Q254.09103 296.10556 255.48166 294.40244Q256.68478 292.9337 258.71603 292.9337Q260.24728 292.9337 261.21603 293.79306Q262.18478 294.6368 262.37228 296.1368ZM255.91916 301.6993Q255.91916 302.5118 256.2629 303.2618Q256.60666 304.0118 257.23166 304.40244Q257.85666 304.79306 258.54416 304.79306Q259.54416 304.79306 260.2629 303.98056Q260.98166 303.16806 260.98166 301.77744Q260.98166 300.4493 260.2629 299.6837Q259.55978 298.90244 258.48166 298.90244Q257.40353 298.90244 256.65353 299.6837Q255.91916 300.4493 255.91916 301.6993ZM264.46603 296.0743Q264.46603 294.6993 265.15353 293.73056Q265.85666 292.7618 267.16916 292.7618Q268.3879 292.7618 269.18478 293.6368Q269.98166 294.4962 269.98166 296.1837Q269.98166 297.8087 269.16916 298.6993Q268.37228 299.5743 267.18478 299.5743Q266.02853 299.5743 265.24728 298.71494Q264.46603 297.83994 264.46603 296.0743ZM267.21603 293.85556Q266.62228 293.85556 266.23166 294.3712Q265.84103 294.8712 265.84103 296.23056Q265.84103 297.48056 266.23166 297.98056Q266.6379 298.48056 267.21603 298.48056Q267.80978 298.48056 268.2004 297.98056Q268.59103 297.46494 268.59103 296.1212Q268.59103 294.8712 268.2004 294.3712Q267.80978 293.85556 267.21603 293.85556ZM267.23166 306.33994L274.27853 292.7618L275.55978 292.7618L268.52853 306.33994L267.23166 306.33994ZM272.79416 302.83994Q272.79416 301.46494 273.48166 300.4962Q274.18478 299.52744 275.5129 299.52744Q276.73166 299.52744 277.5129 300.40244Q278.30978 301.2618 278.30978 302.9493Q278.30978 304.5743 277.5129 305.46494Q276.71603 306.33994 275.52853 306.33994Q274.35666 306.33994 273.5754 305.46494Q272.79416 304.58994 272.79416 302.83994ZM275.55978 300.6212Q274.96603 300.6212 274.5754 301.1368Q274.18478 301.6368 274.18478 303.0118Q274.18478 304.23056 274.5754 304.7462Q274.96603 305.2618 275.54416 305.2618Q276.15353 305.2618 276.54416 304.7462Q276.93478 304.23056 276.93478 302.8868Q276.93478 301.6368 276.54416 301.1368Q276.15353 300.6212 275.55978 300.6212Z" fill-rule="nonzero"/><path fill="#ffffff" d="M180.86472 187.28175L179.28659 187.28175L179.28659 177.20363Q178.70847 177.7505 177.78659 178.29738Q176.86472 178.82863 176.11472 179.10988L176.11472 177.57863Q177.44284 176.95363 178.44284 176.063Q179.44284 175.17238 179.84909 174.34425L180.86472 174.34425L180.86472 187.28175ZM189.97409 187.28175L189.97409 184.20363L184.39597 184.20363L184.39597 182.7505L190.27097 174.39113L191.56784 174.39113L191.56784 182.7505L193.30222 182.7505L193.30222 184.20363L191.56784 184.20363L191.56784 187.28175L189.97409 187.28175ZM189.97409 182.7505L189.97409 176.938L185.94284 182.7505L189.97409 182.7505ZM195.80222 187.28175L195.80222 185.48488L197.59909 185.48488L197.59909 187.28175L195.80222 187.28175ZM199.91159 183.8755L201.50534 183.67238Q201.77097 185.01613 202.42722 185.60988Q203.08347 186.20363 204.02097 186.20363Q205.14597 186.20363 205.91159 185.438Q206.67722 184.65675 206.67722 183.51613Q206.67722 182.42238 205.95847 181.71925Q205.25534 181.0005 204.16159 181.0005Q203.70847 181.0005 203.03659 181.188L203.20847 179.79738Q203.36472 179.813 203.47409 179.813Q204.47409 179.813 205.28659 179.28175Q206.09909 178.7505 206.09909 177.65675Q206.09909 176.78175 205.50534 176.21925Q204.91159 175.64113 203.98972 175.64113Q203.06784 175.64113 202.44284 176.21925Q201.83347 176.79738 201.66159 177.96925L200.08347 177.688Q200.36472 176.09425 201.39597 175.21925Q202.42722 174.34425 203.95847 174.34425Q205.00534 174.34425 205.89597 174.79738Q206.78659 175.2505 207.25534 176.03175Q207.72409 176.813 207.72409 177.688Q207.72409 178.53175 207.27097 179.21925Q206.83347 179.89113 205.94284 180.29738Q207.08347 180.563 207.70847 181.40675Q208.34909 182.23488 208.34909 183.46925Q208.34909 185.15675 207.11472 186.34425Q205.89597 187.51613 204.02097 187.51613Q202.31784 187.51613 201.19284 186.5005Q200.08347 185.48488 199.91159 183.8755ZM210.20847 177.48488Q210.20847 176.10988 210.89597 175.14113Q211.59909 174.17238 212.91159 174.17238Q214.13034 174.17238 214.92722 175.04738Q215.72409 175.90675 215.72409 177.59425Q215.72409 179.21925 214.91159 180.10988Q214.11472 180.98488 212.92722 180.98488Q211.77097 180.98488 210.98972 180.1255Q210.20847 179.2505 210.20847 177.48488ZM212.95847 175.26613Q212.36472 175.26613 211.97409 175.78175Q211.58347 176.28175 211.58347 177.64113Q211.58347 178.89113 211.97409 179.39113Q212.38034 179.89113 212.95847 179.89113Q213.55222 179.89113 213.94284 179.39113Q214.33347 178.8755 214.33347 177.53175Q214.33347 176.28175 213.94284 175.78175Q213.55222 175.26613 212.95847 175.26613ZM212.97409 187.7505L220.02097 174.17238L221.30222 174.17238L214.27097 187.7505L212.97409 187.7505ZM218.53659 184.2505Q218.53659 182.8755 219.22409 181.90675Q219.92722 180.938 221.25534 180.938Q222.47409 180.938 223.25534 181.813Q224.05222 182.67238 224.05222 184.35988Q224.05222 185.98488 223.25534 186.8755Q222.45847 187.7505 221.27097 187.7505Q220.09909 187.7505 219.31784 186.8755Q218.53659 186.0005 218.53659 184.2505ZM221.30222 182.03175Q220.70847 182.03175 220.31784 182.54738Q219.92722 183.04738 219.92722 184.42238Q219.92722 185.64113 220.31784 186.15675Q220.70847 186.67238 221.28659 186.67238Q221.89597 186.67238 222.28659 186.15675Q222.67722 185.64113 222.67722 184.29738Q222.67722 183.04738 222.28659 182.54738Q221.89597 182.03175 221.30222 182.03175Z" fill-rule="nonzero"/><path fill="#ffffff" d="M235.12228 114.495476L233.54416 114.495476L233.54416 104.41735Q232.96603 104.964226 232.04416 105.5111Q231.12228 106.04235 230.37228 106.3236L230.37228 104.79235Q231.70041 104.16735 232.70041 103.276726Q233.70041 102.3861 234.10666 101.557976L235.12228 101.557976L235.12228 114.495476ZM244.23166 114.495476L244.23166 111.41735L238.65353 111.41735L238.65353 109.964226L244.52853 101.60485L245.82541 101.60485L245.82541 109.964226L247.55978 109.964226L247.55978 111.41735L245.82541 111.41735L245.82541 114.495476L244.23166 114.495476ZM244.23166 109.964226L244.23166 104.151726L240.20041 109.964226L244.23166 109.964226ZM250.05978 114.495476L250.05978 112.6986L251.85666 112.6986L251.85666 114.495476L250.05978 114.495476ZM254.16916 111.089226L255.76291 110.8861Q256.02853 112.22985 256.68478 112.8236Q257.34103 113.41735 258.27853 113.41735Q259.40353 113.41735 260.16916 112.651726Q260.93478 111.870476 260.93478 110.72985Q260.93478 109.6361 260.21603 108.932976Q259.5129 108.214226 258.41916 108.214226Q257.96603 108.214226 257.29416 108.401726L257.46603 107.0111Q257.62228 107.026726 257.73166 107.026726Q258.73166 107.026726 259.54416 106.495476Q260.35666 105.964226 260.35666 104.870476Q260.35666 103.995476 259.7629 103.432976Q259.16916 102.85485 258.24728 102.85485Q257.3254 102.85485 256.7004 103.432976Q256.09103 104.0111 255.91916 105.182976L254.34103 104.901726Q254.62228 103.307976 255.65353 102.432976Q256.68478 101.557976 258.21603 101.557976Q259.2629 101.557976 260.15353 102.0111Q261.04416 102.464226 261.5129 103.245476Q261.98166 104.026726 261.98166 104.901726Q261.98166 105.745476 261.52853 106.432976Q261.09103 107.10485 260.2004 107.5111Q261.34103 107.776726 261.96603 108.620476Q262.60666 109.4486 262.60666 110.682976Q262.60666 112.370476 261.37228 113.557976Q260.15353 114.72985 258.27853 114.72985Q256.5754 114.72985 255.45041 113.714226Q254.34103 112.6986 254.16916 111.089226ZM264.46603 104.6986Q264.46603 103.3236 265.15353 102.35485Q265.85666 101.3861 267.16916 101.3861Q268.3879 101.3861 269.18478 102.2611Q269.98166 103.120476 269.98166 104.807976Q269.98166 106.432976 269.16916 107.3236Q268.37228 108.1986 267.18478 108.1986Q266.02853 108.1986 265.24728 107.339226Q264.46603 106.464226 264.46603 104.6986ZM267.21603 102.47985Q266.62228 102.47985 266.23166 102.995476Q265.84103 103.495476 265.84103 104.85485Q265.84103 106.10485 266.23166 106.60485Q266.6379 107.10485 267.21603 107.10485Q267.80978 107.10485 268.2004 106.60485Q268.59103 106.089226 268.59103 104.745476Q268.59103 103.495476 268.2004 102.995476Q267.80978 102.47985 267.21603 102.47985ZM267.23166 114.964226L274.27853 101.3861L275.55978 101.3861L268.52853 114.964226L267.23166 114.964226ZM272.79416 111.464226Q272.79416 110.089226 273.48166 109.120476Q274.18478 108.151726 275.5129 108.151726Q276.73166 108.151726 277.5129 109.026726Q278.30978 109.8861 278.30978 111.5736Q278.30978 113.1986 277.5129 114.089226Q276.71603 114.964226 275.52853 114.964226Q274.35666 114.964226 273.5754 114.089226Q272.79416 113.214226 272.79416 111.464226ZM275.55978 109.245476Q274.96603 109.245476 274.5754 109.7611Q274.18478 110.2611 274.18478 111.6361Q274.18478 112.85485 274.5754 113.370476Q274.96603 113.8861 275.54416 113.8861Q276.15353 113.8861 276.54416 113.370476Q276.93478 112.85485 276.93478 111.5111Q276.93478 110.2611 276.54416 109.7611Q276.15353 109.245476 275.55978 109.245476Z" fill-rule="nonzero"/><path stroke="#ffffff" stroke-width="1.0" stroke-linejoin="round" stroke-linecap="round" d="M329.0776 180.4947C322.02075 171.64568 311.31833 166.49167 300.0 166.49167L300.0 54.916668C345.27335 54.916668 388.08298 75.53269 416.31046 110.92883" fill-rule="nonzero"/><path stroke="#ffffff" stroke-width="1.0" stroke-linejoin="round" stroke-linecap="round" d="M316.13687 237.19186C326.33432 232.28102 333.74063 222.99382 336.2592 211.95926C338.77777 200.9247 336.1345 189.34375 329.0776 180.4947L416.31046 110.92883C444.53793 146.32497 455.11105 192.64877 445.03677 236.78703C434.9625 280.9253 405.33734 318.0741 364.54742 337.71747" fill-rule="nonzero"/><path stroke="#ffffff" stroke-width="1.0" stroke-linejoin="round" stroke-linecap="round" d="M263.7408 211.95926C266.25937 222.99382 273.66568 232.28102 283.86313 237.19186C294.0606 242.1027 305.9394 242.1027 316.13687 237.19186L364.54742 337.71747C323.75754 357.36084 276.24246 357.36084 235.45256 337.71747C194.66267 318.0741 165.03749 280.9253 154.96323 236.78703" fill-rule="nonzero"/><path stroke="#ffffff" stroke-width="1.0" stroke-linejoin="round" stroke-linecap="round" d="M270.9224 180.4947C263.8655 189.34375 261.22223 200.9247 263.7408 211.95926L154.96323 236.78703C144.88895 192.64877 155.46205 146.32497 183.68953 110.92883" fill-rule="nonzero"/><path stroke="#ffffff" stroke-width="1.0" stroke-linejoin="round" stroke-linecap="round" d="M300.0 166.49167C288.68167 166.49167 277.97925 171.64568 270.9224 180.4947L183.68953 110.92883C211.91702 75.53269 254.72664 54.916668 300.0 54.916668" fill-rule="nonzero"/><path fill="#efefef" d="M27.3 59.39778L28.815624 59.39778L28.815624 66.00716Q28.815624 67.74153 28.425 68.75716Q28.034374 69.77278 27.01875 70.41341Q26.003124 71.05403 24.346874 71.05403Q22.7375 71.05403 21.70625 70.49153Q20.690624 69.92903 20.253124 68.88216Q19.815624 67.83528 19.815624 66.00716L19.815624 59.39778L21.33125 59.39778L21.33125 66.00716Q21.33125 67.49153 21.596874 68.21028Q21.878124 68.91341 22.55 69.30403Q23.2375 69.67903 24.20625 69.67903Q25.878124 69.67903 26.58125 68.92903Q27.3 68.16341 27.3 66.00716L27.3 59.39778ZM31.596874 70.85091L31.596874 62.55403L32.8625 62.55403L32.8625 63.80403Q33.346874 62.92903 33.753124 62.64778Q34.159374 62.36653 34.659374 62.36653Q35.3625 62.36653 36.096874 62.819656L35.6125 64.11653Q35.096874 63.819656 34.58125 63.819656Q34.128124 63.819656 33.753124 64.10091Q33.39375 64.36653 33.2375 64.86653Q33.003124 65.61653 33.003124 66.50716L33.003124 70.85091L31.596874 70.85091ZM37.909374 70.85091L36.596874 70.85091L36.596874 59.39778L38.003124 59.39778L38.003124 63.475906Q38.89375 62.36653 40.284374 62.36653Q41.05 62.36653 41.721874 62.67903Q42.409374 62.975906 42.846874 63.538406Q43.3 64.10091 43.55 64.89778Q43.8 65.67903 43.8 66.56966Q43.8 68.71028 42.7375 69.88216Q41.690624 71.03841 40.20625 71.03841Q38.7375 71.03841 37.909374 69.80403L37.909374 70.85091ZM37.89375 66.63216Q37.89375 68.13216 38.3 68.78841Q38.95625 69.88216 40.096874 69.88216Q41.01875 69.88216 41.690624 69.08528Q42.3625 68.27278 42.3625 66.69466Q42.3625 65.06966 41.70625 64.30403Q41.065624 63.52278 40.159374 63.52278Q39.2375 63.52278 38.565624 64.31966Q37.89375 65.11653 37.89375 66.63216ZM51.01875 69.81966Q50.2375 70.49153 49.51875 70.77278Q48.8 71.03841 47.971874 71.03841Q46.596874 71.03841 45.8625 70.36653Q45.128124 69.69466 45.128124 68.66341Q45.128124 68.05403 45.409374 67.55403Q45.690624 67.03841 46.128124 66.74153Q46.58125 66.42903 47.14375 66.27278Q47.565624 66.16341 48.39375 66.06966Q50.096874 65.86653 50.909374 65.58528Q50.909374 65.28841 50.909374 65.21028Q50.909374 64.35091 50.51875 64.00716Q49.971874 63.52278 48.909374 63.52278Q47.925 63.52278 47.440624 63.882156Q46.971874 64.22591 46.753124 65.10091L45.378124 64.91341Q45.565624 64.03841 45.9875 63.49153Q46.425 62.944656 47.2375 62.663406Q48.05 62.36653 49.1125 62.36653Q50.175 62.36653 50.83125 62.61653Q51.503124 62.86653 51.815624 63.24153Q52.128124 63.61653 52.253124 64.19466Q52.33125 64.55403 52.33125 65.49153L52.33125 67.36653Q52.33125 69.33528 52.409374 69.85091Q52.503124 70.36653 52.76875 70.85091L51.3 70.85091Q51.08125 70.41341 51.01875 69.81966ZM50.909374 66.67903Q50.14375 66.99153 48.6125 67.21028Q47.7375 67.33528 47.378124 67.49153Q47.01875 67.64778 46.815624 67.96028Q46.628124 68.25716 46.628124 68.61653Q46.628124 69.17903 47.05 69.55403Q47.4875 69.92903 48.3 69.92903Q49.1125 69.92903 49.7375 69.58528Q50.378124 69.22591 50.675 68.60091Q50.909374 68.13216 50.909374 67.19466L50.909374 66.67903ZM54.6125 70.85091L54.6125 62.55403L55.878124 62.55403L55.878124 63.725906Q56.784374 62.36653 58.51875 62.36653Q59.26875 62.36653 59.89375 62.632156Q60.51875 62.89778 60.83125 63.33528Q61.14375 63.77278 61.26875 64.38216Q61.346874 64.77278 61.346874 65.74153L61.346874 70.85091L59.940624 70.85091L59.940624 65.80403Q59.940624 64.94466 59.76875 64.52278Q59.6125 64.08528 59.190624 63.83528Q58.784374 63.58528 58.221874 63.58528Q57.315624 63.58528 56.659374 64.16341Q56.01875 64.72591 56.01875 66.31966L56.01875 70.85091L54.6125 70.85091ZM63.05 68.36653L64.44063 68.14778Q64.55 68.99153 65.08125 69.44466Q65.62813 69.88216 66.58125 69.88216Q67.55 69.88216 68.01875 69.49153Q68.4875 69.08528 68.4875 68.55403Q68.4875 68.08528 68.08125 67.80403Q67.78438 67.61653 66.64375 67.33528Q65.09688 66.94466 64.4875 66.66341Q63.89375 66.36653 63.58125 65.86653Q63.284374 65.36653 63.284374 64.75716Q63.284374 64.19466 63.534374 63.725906Q63.784374 63.257156 64.22188 62.944656Q64.55 62.694656 65.1125 62.538406Q65.69063 62.36653 66.33125 62.36653Q67.31563 62.36653 68.05 62.64778Q68.78438 62.92903 69.12813 63.413406Q69.4875 63.882156 69.62813 64.69466L68.25313 64.88216Q68.15938 64.24153 67.70625 63.882156Q67.25313 63.52278 66.44063 63.52278Q65.47188 63.52278 65.05 63.850906Q64.64375 64.16341 64.64375 64.58528Q64.64375 64.86653 64.81563 65.08528Q64.9875 65.30403 65.34688 65.46028Q65.56563 65.53841 66.59688 65.81966Q68.08125 66.21028 68.675 66.47591Q69.26875 66.72591 69.59688 67.21028Q69.94063 67.69466 69.94063 68.41341Q69.94063 69.11653 69.51875 69.74153Q69.1125 70.35091 68.33125 70.69466Q67.56563 71.03841 66.59688 71.03841Q64.97188 71.03841 64.12813 70.36653Q63.284374 69.69466 63.05 68.36653ZM77.01875 67.80403L78.40938 67.99153Q78.175 69.41341 77.2375 70.22591Q76.31563 71.03841 74.95625 71.03841Q73.25313 71.03841 72.20625 69.92903Q71.175 68.80403 71.175 66.72591Q71.175 65.38216 71.6125 64.38216Q72.06563 63.36653 72.97188 62.86653Q73.89375 62.36653 74.95625 62.36653Q76.31563 62.36653 77.175 63.05403Q78.03438 63.725906 78.26875 64.99153L76.90938 65.19466Q76.70625 64.36653 76.20625 63.944656Q75.72188 63.52278 75.01875 63.52278Q73.95625 63.52278 73.28438 64.28841Q72.62813 65.03841 72.62813 66.69466Q72.62813 68.36653 73.26875 69.13216Q73.90938 69.88216 74.94063 69.88216Q75.76875 69.88216 76.31563 69.38216Q76.87813 68.86653 77.01875 67.80403ZM85.01875 69.81966Q84.2375 70.49153 83.51875 70.77278Q82.8 71.03841 81.97188 71.03841Q80.59688 71.03841 79.8625 70.36653Q79.12813 69.69466 79.12813 68.66341Q79.12813 68.05403 79.40938 67.55403Q79.69063 67.03841 80.12813 66.74153Q80.58125 66.42903 81.14375 66.27278Q81.56563 66.16341 82.39375 66.06966Q84.09688 65.86653 84.90938 65.58528Q84.90938 65.28841 84.90938 65.21028Q84.90938 64.35091 84.51875 64.00716Q83.97188 63.52278 82.90938 63.52278Q81.925 63.52278 81.44063 63.882156Q80.97188 64.22591 80.75313 65.10091L79.37813 64.91341Q79.56563 64.03841 79.9875 63.49153Q80.425 62.944656 81.2375 62.663406Q82.05 62.36653 83.1125 62.36653Q84.175 62.36653 84.83125 62.61653Q85.50313 62.86653 85.81563 63.24153Q86.12813 63.61653 86.25313 64.19466Q86.33125 64.55403 86.33125 65.49153L86.33125 67.36653Q86.33125 69.33528 86.40938 69.85091Q86.50313 70.36653 86.76875 70.85091L85.3 70.85091Q85.08125 70.41341 85.01875 69.81966ZM84.90938 66.67903Q84.14375 66.99153 82.6125 67.21028Q81.7375 67.33528 81.37813 67.49153Q81.01875 67.64778 80.81563 67.96028Q80.62813 68.25716 80.62813 68.61653Q80.62813 69.17903 81.05 69.55403Q81.4875 69.92903 82.3 69.92903Q83.1125 69.92903 83.7375 69.58528Q84.37813 69.22591 84.675 68.60091Q84.90938 68.13216 84.90938 67.19466L84.90938 66.67903ZM88.6125 74.03841L88.6125 62.55403L89.89375 62.55403L89.89375 63.632156Q90.34688 62.99153 90.90938 62.67903Q91.4875 62.36653 92.3 62.36653Q93.3625 62.36653 94.175 62.913406Q94.9875 63.46028 95.39375 64.46028Q95.81563 65.44466 95.81563 66.63216Q95.81563 67.91341 95.34688 68.92903Q94.89375 69.94466 94.01875 70.49153Q93.15938 71.03841 92.19063 71.03841Q91.4875 71.03841 90.925 70.74153Q90.37813 70.44466 90.01875 69.99153L90.01875 74.03841L88.6125 74.03841ZM89.87813 66.74153Q89.87813 68.35091 90.51875 69.11653Q91.175 69.88216 92.09688 69.88216Q93.03438 69.88216 93.70625 69.08528Q94.37813 68.28841 94.37813 66.63216Q94.37813 65.03841 93.72188 64.25716Q93.06563 63.46028 92.15938 63.46028Q91.26875 63.46028 90.56563 64.30403Q89.87813 65.14778 89.87813 66.74153ZM103.28438 68.17903L104.7375 68.35091Q104.39375 69.63216 103.45625 70.33528Q102.53438 71.03841 101.09688 71.03841Q99.26875 71.03841 98.20625 69.91341Q97.14375 68.78841 97.14375 66.77278Q97.14375 64.67903 98.22188 63.52278Q99.3 62.36653 101.01875 62.36653Q102.675 62.36653 103.72188 63.507156Q104.78438 64.63216 104.78438 66.67903Q104.78438 66.80403 104.78438 67.05403L98.59688 67.05403Q98.675 68.42903 99.3625 69.16341Q100.06563 69.88216 101.09688 69.88216Q101.87813 69.88216 102.425 69.47591Q102.97188 69.06966 103.28438 68.17903ZM98.675 65.89778L103.3 65.89778Q103.20625 64.85091 102.76875 64.33528Q102.09688 63.52278 101.03438 63.52278Q100.06563 63.52278 99.39375 64.17903Q98.7375 64.81966 98.675 65.89778Z" fill-rule="nonzero"/><path fill="#9e9e9e" d="M24.51875 92.85091L23.1125 92.85091L23.1125 83.88216Q22.596874 84.36653 21.76875 84.85091Q20.95625 85.33528 20.3 85.58528L20.3 84.22591Q21.471874 83.66341 22.346874 82.88216Q23.2375 82.08528 23.6125 81.35091L24.51875 81.35091L24.51875 92.85091ZM32.721874 92.85091L32.721874 90.10091L27.753124 90.10091L27.753124 88.81966L32.9875 81.39778L34.128124 81.39778L34.128124 88.81966L35.675 88.81966L35.675 90.10091L34.128124 90.10091L34.128124 92.85091L32.721874 92.85091ZM32.721874 88.81966L32.721874 83.64778L29.14375 88.81966L32.721874 88.81966ZM38.003124 92.85091L38.003124 91.24153L39.6125 91.24153L39.6125 92.85091L38.003124 92.85091ZM41.221874 89.81966L42.628124 89.63216Q42.878124 90.83528 43.45625 91.36653Q44.034374 91.88216 44.878124 91.88216Q45.8625 91.88216 46.55 91.19466Q47.2375 90.50716 47.2375 89.49153Q47.2375 88.52278 46.596874 87.89778Q45.971874 87.27278 44.9875 87.27278Q44.596874 87.27278 44.003124 87.42903L44.159374 86.19466Q44.3 86.21028 44.378124 86.21028Q45.284374 86.21028 46.003124 85.74153Q46.721874 85.27278 46.721874 84.28841Q46.721874 83.52278 46.190624 83.02278Q45.675 82.50716 44.846874 82.50716Q44.01875 82.50716 43.471874 83.02278Q42.925 83.53841 42.76875 84.56966L41.3625 84.31966Q41.628124 82.89778 42.534374 82.13216Q43.45625 81.35091 44.815624 81.35091Q45.753124 81.35091 46.534374 81.75716Q47.33125 82.14778 47.7375 82.85091Q48.159374 83.53841 48.159374 84.31966Q48.159374 85.06966 47.753124 85.67903Q47.3625 86.28841 46.58125 86.64778Q47.596874 86.88216 48.159374 87.61653Q48.721874 88.35091 48.721874 89.46028Q48.721874 90.96028 47.628124 92.00716Q46.534374 93.05403 44.8625 93.05403Q43.3625 93.05403 42.3625 92.16341Q41.3625 91.25716 41.221874 89.81966ZM50.4875 84.14778Q50.4875 82.91341 51.096874 82.05403Q51.721874 81.19466 52.89375 81.19466Q53.971874 81.19466 54.675 81.97591Q55.378124 82.74153 55.378124 84.22591Q55.378124 85.67903 54.659374 86.47591Q53.95625 87.25716 52.909374 87.25716Q51.8625 87.25716 51.175 86.49153Q50.4875 85.71028 50.4875 84.14778ZM52.925 82.16341Q52.409374 82.16341 52.05 82.61653Q51.70625 83.06966 51.70625 84.28841Q51.70625 85.38216 52.05 85.83528Q52.409374 86.28841 52.925 86.28841Q53.45625 86.28841 53.8 85.83528Q54.159374 85.38216 54.159374 84.17903Q54.159374 83.06966 53.8 82.61653Q53.45625 82.16341 52.925 82.16341ZM52.940624 93.27278L59.20625 81.19466L60.346874 81.19466L54.096874 93.27278L52.940624 93.27278ZM57.89375 90.16341Q57.89375 88.92903 58.503124 88.06966Q59.128124 87.21028 60.3 87.21028Q61.378124 87.21028 62.08125 87.99153Q62.8 88.75716 62.8 90.24153Q62.8 91.69466 62.08125 92.49153Q61.3625 93.27278 60.315624 93.27278Q59.26875 93.27278 58.58125 92.49153Q57.89375 91.71028 57.89375 90.16341ZM60.346874 88.17903Q59.815624 88.17903 59.45625 88.63216Q59.1125 89.08528 59.1125 90.30403Q59.1125 91.39778 59.45625 91.85091Q59.815624 92.30403 60.33125 92.30403Q60.878124 92.30403 61.221874 91.85091Q61.565624 91.39778 61.565624 90.19466Q61.565624 89.08528 61.20625 88.63216Q60.8625 88.17903 60.346874 88.17903Z" fill-rule="nonzero"/><path stroke="#757575" stroke-width="1.0" stroke-linecap="butt" d="M18.55 76.35091L145.23334 76.35091L238.67993 76.35091" fill-rule="nonzero"/><path fill="#9e9e9e" d="M240.67993 76.35091C240.67993 75.24634 239.7845 74.35091 238.67993 74.35091C237.57536 74.35091 236.67993 75.24634 236.67993 76.35091C236.67993 77.455475 237.57536 78.35091 238.67993 78.35091C239.7845 78.35091 240.67993 77.455475 240.67993 76.35091" fill-rule="nonzero"/><path fill="#efefef" d="M19.76875 166.73482L19.76875 155.2817L21.33125 155.2817L27.346874 164.26607L27.346874 155.2817L28.8 155.2817L28.8 166.73482L27.2375 166.73482L21.221874 157.73482L21.221874 166.73482L19.76875 166.73482ZM37.01875 165.70357Q36.2375 166.37544 35.51875 166.6567Q34.8 166.92232 33.971874 166.92232Q32.596874 166.92232 31.8625 166.25044Q31.128124 165.57857 31.128124 164.54732Q31.128124 163.93794 31.409374 163.43794Q31.690624 162.92232 32.128124 162.62544Q32.58125 162.31294 33.14375 162.1567Q33.565624 162.04732 34.39375 161.95357Q36.096874 161.75044 36.909374 161.4692Q36.909374 161.17232 36.909374 161.0942Q36.909374 160.23482 36.51875 159.89107Q35.971874 159.4067 34.909374 159.4067Q33.925 159.4067 33.440624 159.76607Q32.971874 160.10982 32.753124 160.98482L31.378124 160.79732Q31.565624 159.92232 31.9875 159.37544Q32.425 158.82857 33.2375 158.54732Q34.05 158.25044 35.1125 158.25044Q36.175 158.25044 36.83125 158.50044Q37.503124 158.75044 37.815624 159.12544Q38.128124 159.50044 38.253124 160.07857Q38.33125 160.43794 38.33125 161.37544L38.33125 163.25044Q38.33125 165.2192 38.409374 165.73482Q38.503124 166.25044 38.76875 166.73482L37.3 166.73482Q37.08125 166.29732 37.01875 165.70357ZM36.909374 162.56294Q36.14375 162.87544 34.6125 163.0942Q33.7375 163.2192 33.378124 163.37544Q33.01875 163.5317 32.815624 163.8442Q32.628124 164.14107 32.628124 164.50044Q32.628124 165.06294 33.05 165.43794Q33.4875 165.81294 34.3 165.81294Q35.1125 165.81294 35.7375 165.4692Q36.378124 165.10982 36.675 164.48482Q36.909374 164.01607 36.909374 163.07857L36.909374 162.56294ZM43.675 165.4692L43.878124 166.7192Q43.284374 166.8442 42.815624 166.8442Q42.05 166.8442 41.628124 166.60982Q41.20625 166.35982 41.034374 165.9692Q40.8625 165.56294 40.8625 164.29732L40.8625 159.5317L39.83125 159.5317L39.83125 158.43794L40.8625 158.43794L40.8625 156.37544L42.26875 155.5317L42.26875 158.43794L43.675 158.43794L43.675 159.5317L42.26875 159.5317L42.26875 164.37544Q42.26875 164.98482 42.33125 165.1567Q42.409374 165.32857 42.58125 165.43794Q42.753124 165.5317 43.065624 165.5317Q43.3 165.5317 43.675 165.4692ZM50.05 166.73482L50.05 165.51607Q49.08125 166.92232 47.409374 166.92232Q46.675 166.92232 46.034374 166.64107Q45.409374 166.35982 45.096874 165.93794Q44.784374 165.50044 44.659374 164.89107Q44.58125 164.4692 44.58125 163.57857L44.58125 158.43794L45.9875 158.43794L45.9875 163.0317Q45.9875 164.14107 46.065624 164.51607Q46.20625 165.07857 46.628124 165.39107Q47.065624 165.70357 47.690624 165.70357Q48.33125 165.70357 48.878124 165.39107Q49.440624 165.06294 49.659374 164.50044Q49.89375 163.93794 49.89375 162.87544L49.89375 158.43794L51.3 158.43794L51.3 166.73482L50.05 166.73482ZM53.596874 166.73482L53.596874 158.43794L54.8625 158.43794L54.8625 159.68794Q55.346874 158.81294 55.753124 158.5317Q56.159374 158.25044 56.659374 158.25044Q57.3625 158.25044 58.096874 158.70357L57.6125 160.00044Q57.096874 159.70357 56.58125 159.70357Q56.128124 159.70357 55.753124 159.98482Q55.39375 160.25044 55.2375 160.75044Q55.003124 161.50044 55.003124 162.39107L55.003124 166.73482L53.596874 166.73482ZM64.28438 164.06294L65.7375 164.23482Q65.39375 165.51607 64.45625 166.2192Q63.534374 166.92232 62.096874 166.92232Q60.26875 166.92232 59.20625 165.79732Q58.14375 164.67232 58.14375 162.6567Q58.14375 160.56294 59.221874 159.4067Q60.3 158.25044 62.01875 158.25044Q63.675 158.25044 64.72188 159.39107Q65.78438 160.51607 65.78438 162.56294Q65.78438 162.68794 65.78438 162.93794L59.596874 162.93794Q59.675 164.31294 60.3625 165.04732Q61.065624 165.76607 62.096874 165.76607Q62.878124 165.76607 63.425 165.35982Q63.971874 164.95357 64.28438 164.06294ZM59.675 161.7817L64.3 161.7817Q64.20625 160.73482 63.76875 160.2192Q63.096874 159.4067 62.034374 159.4067Q61.065624 159.4067 60.39375 160.06294Q59.7375 160.70357 59.675 161.7817ZM67.05 164.25044L68.44063 164.0317Q68.55 164.87544 69.08125 165.32857Q69.62813 165.76607 70.58125 165.76607Q71.55 165.76607 72.01875 165.37544Q72.4875 164.9692 72.4875 164.43794Q72.4875 163.9692 72.08125 163.68794Q71.78438 163.50044 70.64375 163.2192Q69.09688 162.82857 68.4875 162.54732Q67.89375 162.25044 67.58125 161.75044Q67.28438 161.25044 67.28438 160.64107Q67.28438 160.07857 67.53438 159.60982Q67.78438 159.14107 68.22188 158.82857Q68.55 158.57857 69.1125 158.42232Q69.69063 158.25044 70.33125 158.25044Q71.31563 158.25044 72.05 158.5317Q72.78438 158.81294 73.12813 159.29732Q73.4875 159.76607 73.62813 160.57857L72.25313 160.76607Q72.15938 160.12544 71.70625 159.76607Q71.25313 159.4067 70.44063 159.4067Q69.47188 159.4067 69.05 159.73482Q68.64375 160.04732 68.64375 160.4692Q68.64375 160.75044 68.81563 160.9692Q68.9875 161.18794 69.34688 161.3442Q69.56563 161.42232 70.59688 161.70357Q72.08125 162.0942 72.675 162.35982Q73.26875 162.60982 73.59688 163.0942Q73.94063 163.57857 73.94063 164.29732Q73.94063 165.00044 73.51875 165.62544Q73.1125 166.23482 72.33125 166.57857Q71.56563 166.92232 70.59688 166.92232Q68.97188 166.92232 68.12813 166.25044Q67.28438 165.57857 67.05 164.25044ZM81.01875 163.68794L82.40938 163.87544Q82.175 165.29732 81.2375 166.10982Q80.31563 166.92232 78.95625 166.92232Q77.25313 166.92232 76.20625 165.81294Q75.175 164.68794 75.175 162.60982Q75.175 161.26607 75.6125 160.26607Q76.06563 159.25044 76.97188 158.75044Q77.89375 158.25044 78.95625 158.25044Q80.31563 158.25044 81.175 158.93794Q82.03438 159.60982 82.26875 160.87544L80.90938 161.07857Q80.70625 160.25044 80.20625 159.82857Q79.72188 159.4067 79.01875 159.4067Q77.95625 159.4067 77.28438 160.17232Q76.62813 160.92232 76.62813 162.57857Q76.62813 164.25044 77.26875 165.01607Q77.90938 165.76607 78.94063 165.76607Q79.76875 165.76607 80.31563 165.26607Q80.87813 164.75044 81.01875 163.68794ZM89.01875 165.70357Q88.2375 166.37544 87.51875 166.6567Q86.8 166.92232 85.97188 166.92232Q84.59688 166.92232 83.8625 166.25044Q83.12813 165.57857 83.12813 164.54732Q83.12813 163.93794 83.40938 163.43794Q83.69063 162.92232 84.12813 162.62544Q84.58125 162.31294 85.14375 162.1567Q85.56563 162.04732 86.39375 161.95357Q88.09688 161.75044 88.90938 161.4692Q88.90938 161.17232 88.90938 161.0942Q88.90938 160.23482 88.51875 159.89107Q87.97188 159.4067 86.90938 159.4067Q85.925 159.4067 85.44063 159.76607Q84.97188 160.10982 84.75313 160.98482L83.37813 160.79732Q83.56563 159.92232 83.9875 159.37544Q84.425 158.82857 85.2375 158.54732Q86.05 158.25044 87.1125 158.25044Q88.175 158.25044 88.83125 158.50044Q89.50313 158.75044 89.81563 159.12544Q90.12813 159.50044 90.25313 160.07857Q90.33125 160.43794 90.33125 161.37544L90.33125 163.25044Q90.33125 165.2192 90.40938 165.73482Q90.50313 166.25044 90.76875 166.73482L89.3 166.73482Q89.08125 166.29732 89.01875 165.70357ZM88.90938 162.56294Q88.14375 162.87544 86.6125 163.0942Q85.7375 163.2192 85.37813 163.37544Q85.01875 163.5317 84.81563 163.8442Q84.62813 164.14107 84.62813 164.50044Q84.62813 165.06294 85.05 165.43794Q85.4875 165.81294 86.3 165.81294Q87.1125 165.81294 87.7375 165.4692Q88.37813 165.10982 88.675 164.48482Q88.90938 164.01607 88.90938 163.07857L88.90938 162.56294ZM92.6125 169.92232L92.6125 158.43794L93.89375 158.43794L93.89375 159.51607Q94.34688 158.87544 94.90938 158.56294Q95.4875 158.25044 96.3 158.25044Q97.3625 158.25044 98.175 158.79732Q98.9875 159.3442 99.39375 160.3442Q99.81563 161.32857 99.81563 162.51607Q99.81563 163.79732 99.34688 164.81294Q98.89375 165.82857 98.01875 166.37544Q97.15938 166.92232 96.19063 166.92232Q95.4875 166.92232 94.925 166.62544Q94.37813 166.32857 94.01875 165.87544L94.01875 169.92232L92.6125 169.92232ZM93.87813 162.62544Q93.87813 164.23482 94.51875 165.00044Q95.175 165.76607 96.09688 165.76607Q97.03438 165.76607 97.70625 164.9692Q98.37813 164.17232 98.37813 162.51607Q98.37813 160.92232 97.72188 160.14107Q97.06563 159.3442 96.15938 159.3442Q95.26875 159.3442 94.56563 160.18794Q93.87813 161.0317 93.87813 162.62544ZM107.28438 164.06294L108.7375 164.23482Q108.39375 165.51607 107.45625 166.2192Q106.53438 166.92232 105.09688 166.92232Q103.26875 166.92232 102.20625 165.79732Q101.14375 164.67232 101.14375 162.6567Q101.14375 160.56294 102.22188 159.4067Q103.3 158.25044 105.01875 158.25044Q106.675 158.25044 107.72188 159.39107Q108.78438 160.51607 108.78438 162.56294Q108.78438 162.68794 108.78438 162.93794L102.59688 162.93794Q102.675 164.31294 103.3625 165.04732Q104.06563 165.76607 105.09688 165.76607Q105.87813 165.76607 106.425 165.35982Q106.97188 164.95357 107.28438 164.06294ZM102.675 161.7817L107.3 161.7817Q107.20625 160.73482 106.76875 160.2192Q106.09688 159.4067 105.03438 159.4067Q104.06563 159.4067 103.39375 160.06294Q102.7375 160.70357 102.675 161.7817Z" fill-rule="nonzero"/><path fill="#9e9e9e" d="M24.51875 188.73482L23.1125 188.73482L23.1125 179.76607Q22.596874 180.25044 21.76875 180.73482Q20.95625 181.2192 20.3 181.4692L20.3 180.10982Q21.471874 179.54732 22.346874 178.76607Q23.2375 177.9692 23.6125 177.23482L24.51875 177.23482L24.51875 188.73482ZM32.721874 188.73482L32.721874 185.98482L27.753124 185.98482L27.753124 184.70357L32.9875 177.2817L34.128124 177.2817L34.128124 184.70357L35.675 184.70357L35.675 185.98482L34.128124 185.98482L34.128124 188.73482L32.721874 188.73482ZM32.721874 184.70357L32.721874 179.5317L29.14375 184.70357L32.721874 184.70357ZM38.003124 188.73482L38.003124 187.12544L39.6125 187.12544L39.6125 188.73482L38.003124 188.73482ZM41.221874 185.70357L42.628124 185.51607Q42.878124 186.7192 43.45625 187.25044Q44.034374 187.76607 44.878124 187.76607Q45.8625 187.76607 46.55 187.07857Q47.2375 186.39107 47.2375 185.37544Q47.2375 184.4067 46.596874 183.7817Q45.971874 183.1567 44.9875 183.1567Q44.596874 183.1567 44.003124 183.31294L44.159374 182.07857Q44.3 182.0942 44.378124 182.0942Q45.284374 182.0942 46.003124 181.62544Q46.721874 181.1567 46.721874 180.17232Q46.721874 179.4067 46.190624 178.9067Q45.675 178.39107 44.846874 178.39107Q44.01875 178.39107 43.471874 178.9067Q42.925 179.42232 42.76875 180.45357L41.3625 180.20357Q41.628124 178.7817 42.534374 178.01607Q43.45625 177.23482 44.815624 177.23482Q45.753124 177.23482 46.534374 177.64107Q47.33125 178.0317 47.7375 178.73482Q48.159374 179.42232 48.159374 180.20357Q48.159374 180.95357 47.753124 181.56294Q47.3625 182.17232 46.58125 182.5317Q47.596874 182.76607 48.159374 183.50044Q48.721874 184.23482 48.721874 185.3442Q48.721874 186.8442 47.628124 187.89107Q46.534374 188.93794 44.8625 188.93794Q43.3625 188.93794 42.3625 188.04732Q41.3625 187.14107 41.221874 185.70357ZM50.4875 180.0317Q50.4875 178.79732 51.096874 177.93794Q51.721874 177.07857 52.89375 177.07857Q53.971874 177.07857 54.675 177.85982Q55.378124 178.62544 55.378124 180.10982Q55.378124 181.56294 54.659374 182.35982Q53.95625 183.14107 52.909374 183.14107Q51.8625 183.14107 51.175 182.37544Q50.4875 181.5942 50.4875 180.0317ZM52.925 178.04732Q52.409374 178.04732 52.05 178.50044Q51.70625 178.95357 51.70625 180.17232Q51.70625 181.26607 52.05 181.7192Q52.409374 182.17232 52.925 182.17232Q53.45625 182.17232 53.8 181.7192Q54.159374 181.26607 54.159374 180.06294Q54.159374 178.95357 53.8 178.50044Q53.45625 178.04732 52.925 178.04732ZM52.940624 189.1567L59.20625 177.07857L60.346874 177.07857L54.096874 189.1567L52.940624 189.1567ZM57.89375 186.04732Q57.89375 184.81294 58.503124 183.95357Q59.128124 183.0942 60.3 183.0942Q61.378124 183.0942 62.08125 183.87544Q62.8 184.64107 62.8 186.12544Q62.8 187.57857 62.08125 188.37544Q61.3625 189.1567 60.315624 189.1567Q59.26875 189.1567 58.58125 188.37544Q57.89375 187.5942 57.89375 186.04732ZM60.346874 184.06294Q59.815624 184.06294 59.45625 184.51607Q59.1125 184.9692 59.1125 186.18794Q59.1125 187.2817 59.45625 187.73482Q59.815624 188.18794 60.33125 188.18794Q60.878124 188.18794 61.221874 187.73482Q61.565624 187.2817 61.565624 186.07857Q61.565624 184.9692 61.20625 184.51607Q60.8625 184.06294 60.346874 184.06294Z" fill-rule="nonzero"/><path stroke="#757575" stroke-width="1.0" stroke-linecap="butt" d="M18.55 172.23482L145.23334 172.23482L162.21506 172.23482" fill-rule="nonzero"/><path fill="#9e9e9e" d="M164.21506 172.23482C164.21506 171.13025 163.31963 170.23482 162.21506 170.23482C161.11049 170.23482 160.21506 171.13025 160.21506 172.23482C160.21506 173.33939 161.11049 174.23482 162.21506 174.23482C163.31963 174.23482 164.21506 173.33939 164.21506 172.23482" fill-rule="nonzero"/><path fill="#efefef" d="M18.51875 325.51575L22.925 314.06262L24.565624 314.06262L29.253124 325.51575L27.51875 325.51575L26.190624 322.047L21.39375 322.047L20.14375 325.51575L18.51875 325.51575ZM21.83125 320.81262L25.721874 320.81262L24.51875 317.64075Q23.971874 316.18762 23.70625 315.26575Q23.4875 316.3595 23.096874 317.45325L21.83125 320.81262ZM30.6125 325.51575L30.6125 317.21887L31.878124 317.21887L31.878124 318.39075Q32.784374 317.03137 34.51875 317.03137Q35.26875 317.03137 35.89375 317.297Q36.51875 317.56262 36.83125 318.00012Q37.14375 318.43762 37.26875 319.047Q37.346874 319.43762 37.346874 320.40637L37.346874 325.51575L35.940624 325.51575L35.940624 320.46887Q35.940624 319.6095 35.76875 319.18762Q35.6125 318.75012 35.190624 318.50012Q34.784374 318.25012 34.221874 318.25012Q33.315624 318.25012 32.659374 318.82825Q32.01875 319.39075 32.01875 320.9845L32.01875 325.51575L30.6125 325.51575ZM39.6125 315.672L39.6125 314.06262L41.01875 314.06262L41.01875 315.672L39.6125 315.672ZM39.6125 325.51575L39.6125 317.21887L41.01875 317.21887L41.01875 325.51575L39.6125 325.51575ZM43.6125 325.51575L43.6125 317.21887L44.8625 317.21887L44.8625 318.37512Q45.253124 317.76575 45.89375 317.40637Q46.55 317.03137 47.378124 317.03137Q48.3 317.03137 48.89375 317.422Q49.4875 317.797 49.721874 318.4845Q50.70625 317.03137 52.284374 317.03137Q53.51875 317.03137 54.175 317.71887Q54.846874 318.39075 54.846874 319.81262L54.846874 325.51575L53.45625 325.51575L53.45625 320.28137Q53.45625 319.43762 53.315624 319.07825Q53.175 318.70325 52.815624 318.4845Q52.45625 318.25012 51.971874 318.25012Q51.096874 318.25012 50.51875 318.82825Q49.940624 319.40637 49.940624 320.68762L49.940624 325.51575L48.534374 325.51575L48.534374 320.12512Q48.534374 319.18762 48.190624 318.71887Q47.846874 318.25012 47.065624 318.25012Q46.471874 318.25012 45.971874 318.56262Q45.471874 318.87512 45.2375 319.4845Q45.01875 320.07825 45.01875 321.20325L45.01875 325.51575L43.6125 325.51575ZM62.01875 324.4845Q61.2375 325.15637 60.51875 325.43762Q59.8 325.70325 58.971874 325.70325Q57.596874 325.70325 56.8625 325.03137Q56.128124 324.3595 56.128124 323.32825Q56.128124 322.71887 56.409374 322.21887Q56.690624 321.70325 57.128124 321.40637Q57.58125 321.09387 58.14375 320.93762Q58.565624 320.82825 59.39375 320.7345Q61.096874 320.53137 61.909374 320.25012Q61.909374 319.95325 61.909374 319.87512Q61.909374 319.01575 61.51875 318.672Q60.971874 318.18762 59.909374 318.18762Q58.925 318.18762 58.440624 318.547Q57.971874 318.89075 57.753124 319.76575L56.378124 319.57825Q56.565624 318.70325 56.9875 318.15637Q57.425 317.6095 58.2375 317.32825Q59.05 317.03137 60.1125 317.03137Q61.175 317.03137 61.83125 317.28137Q62.503124 317.53137 62.815624 317.90637Q63.128124 318.28137 63.253124 318.8595Q63.33125 319.21887 63.33125 320.15637L63.33125 322.03137Q63.33125 324.00012 63.409374 324.51575Q63.503124 325.03137 63.76875 325.51575L62.3 325.51575Q62.08125 325.07825 62.01875 324.4845ZM61.909374 321.34387Q61.14375 321.65637 59.6125 321.87512Q58.7375 322.00012 58.378124 322.15637Q58.01875 322.31262 57.815624 322.62512Q57.628124 322.922 57.628124 323.28137Q57.628124 323.84387 58.05 324.21887Q58.4875 324.59387 59.3 324.59387Q60.1125 324.59387 60.7375 324.25012Q61.378124 323.89075 61.675 323.26575Q61.909374 322.797 61.909374 321.8595L61.909374 321.34387ZM65.58125 325.51575L65.58125 314.06262L66.9875 314.06262L66.9875 325.51575L65.58125 325.51575ZM69.05 323.03137L70.44063 322.81262Q70.55 323.65637 71.08125 324.1095Q71.62813 324.547 72.58125 324.547Q73.55 324.547 74.01875 324.15637Q74.4875 323.75012 74.4875 323.21887Q74.4875 322.75012 74.08125 322.46887Q73.78438 322.28137 72.64375 322.00012Q71.09688 321.6095 70.4875 321.32825Q69.89375 321.03137 69.58125 320.53137Q69.28438 320.03137 69.28438 319.422Q69.28438 318.8595 69.53438 318.39075Q69.78438 317.922 70.22188 317.6095Q70.55 317.3595 71.1125 317.20325Q71.69063 317.03137 72.33125 317.03137Q73.31563 317.03137 74.05 317.31262Q74.78438 317.59387 75.12813 318.07825Q75.4875 318.547 75.62813 319.3595L74.25313 319.547Q74.15938 318.90637 73.70625 318.547Q73.25313 318.18762 72.44063 318.18762Q71.47188 318.18762 71.05 318.51575Q70.64375 318.82825 70.64375 319.25012Q70.64375 319.53137 70.81563 319.75012Q70.9875 319.96887 71.34688 320.12512Q71.56563 320.20325 72.59688 320.4845Q74.08125 320.87512 74.675 321.14075Q75.26875 321.39075 75.59688 321.87512Q75.94063 322.3595 75.94063 323.07825Q75.94063 323.78137 75.51875 324.40637Q75.1125 325.01575 74.33125 325.3595Q73.56563 325.70325 72.59688 325.70325Q70.97188 325.70325 70.12813 325.03137Q69.28438 324.3595 69.05 323.03137Z" fill-rule="nonzero"/><path fill="#9e9e9e" d="M26.6125 346.15637L26.6125 347.51575L19.034374 347.51575Q19.01875 347.00012 19.20625 346.53137Q19.4875 345.76575 20.128124 345.01575Q20.76875 344.26575 21.971874 343.28137Q23.83125 341.75012 24.4875 340.8595Q25.14375 339.95325 25.14375 339.15637Q25.14375 338.32825 24.55 337.75012Q23.95625 337.172 22.9875 337.172Q21.971874 337.172 21.3625 337.78137Q20.753124 338.39075 20.753124 339.46887L19.3 339.32825Q19.45625 337.70325 20.425 336.8595Q21.39375 336.01575 23.01875 336.01575Q24.675 336.01575 25.628124 336.93762Q26.596874 337.84387 26.596874 339.18762Q26.596874 339.87512 26.315624 340.547Q26.034374 341.20325 25.378124 341.93762Q24.721874 342.672 23.20625 343.95325Q21.940624 345.01575 21.58125 345.40637Q21.221874 345.78137 20.9875 346.15637L26.6125 346.15637ZM30.378124 341.297Q29.503124 340.9845 29.08125 340.39075Q28.659374 339.797 28.659374 338.96887Q28.659374 337.71887 29.55 336.87512Q30.45625 336.01575 31.95625 336.01575Q33.45625 336.01575 34.3625 336.89075Q35.284374 337.75012 35.284374 339.00012Q35.284374 339.797 34.8625 340.39075Q34.440624 340.9845 33.596874 341.297Q34.64375 341.64075 35.190624 342.40637Q35.753124 343.172 35.753124 344.2345Q35.753124 345.70325 34.70625 346.71887Q33.675 347.71887 31.971874 347.71887Q30.284374 347.71887 29.2375 346.71887Q28.20625 345.70325 28.20625 344.20325Q28.20625 343.07825 28.76875 342.32825Q29.33125 341.57825 30.378124 341.297ZM30.096874 338.922Q30.096874 339.7345 30.6125 340.25012Q31.14375 340.76575 31.9875 340.76575Q32.8 340.76575 33.315624 340.25012Q33.83125 339.7345 33.83125 339.00012Q33.83125 338.21887 33.3 337.70325Q32.76875 337.172 31.971874 337.172Q31.159374 337.172 30.628124 337.68762Q30.096874 338.20325 30.096874 338.922ZM29.64375 344.20325Q29.64375 344.81262 29.925 345.37512Q30.221874 345.93762 30.784374 346.25012Q31.346874 346.547 31.9875 346.547Q33.003124 346.547 33.659374 345.90637Q34.315624 345.25012 34.315624 344.25012Q34.315624 343.2345 33.628124 342.57825Q32.95625 341.90637 31.940624 341.90637Q30.95625 341.90637 30.3 342.56262Q29.64375 343.21887 29.64375 344.20325ZM38.003124 347.51575L38.003124 345.90637L39.6125 345.90637L39.6125 347.51575L38.003124 347.51575ZM48.51875 338.8595L47.1125 338.96887Q46.925 338.14075 46.58125 337.76575Q46.01875 337.172 45.175 337.172Q44.503124 337.172 44.003124 337.547Q43.33125 338.03137 42.940624 338.96887Q42.565624 339.89075 42.55 341.6095Q43.065624 340.82825 43.8 340.45325Q44.534374 340.07825 45.33125 340.07825Q46.7375 340.07825 47.721874 341.12512Q48.721874 342.15637 48.721874 343.797Q48.721874 344.87512 48.253124 345.797Q47.784374 346.71887 46.971874 347.21887Q46.159374 347.71887 45.128124 347.71887Q43.378124 347.71887 42.26875 346.422Q41.159374 345.12512 41.159374 342.15637Q41.159374 338.82825 42.378124 337.32825Q43.45625 336.01575 45.26875 336.01575Q46.6125 336.01575 47.471874 336.78137Q48.346874 337.53137 48.51875 338.8595ZM42.76875 343.797Q42.76875 344.53137 43.08125 345.20325Q43.39375 345.8595 43.940624 346.20325Q44.503124 346.547 45.1125 346.547Q46.003124 346.547 46.64375 345.82825Q47.284374 345.1095 47.284374 343.87512Q47.284374 342.68762 46.64375 342.01575Q46.01875 341.32825 45.05 341.32825Q44.096874 341.32825 43.425 342.01575Q42.76875 342.68762 42.76875 343.797ZM50.4875 338.81262Q50.4875 337.57825 51.096874 336.71887Q51.721874 335.8595 52.89375 335.8595Q53.971874 335.8595 54.675 336.64075Q55.378124 337.40637 55.378124 338.89075Q55.378124 340.34387 54.659374 341.14075Q53.95625 341.922 52.909374 341.922Q51.8625 341.922 51.175 341.15637Q50.4875 340.37512 50.4875 338.81262ZM52.925 336.82825Q52.409374 336.82825 52.05 337.28137Q51.70625 337.7345 51.70625 338.95325Q51.70625 340.047 52.05 340.50012Q52.409374 340.95325 52.925 340.95325Q53.45625 340.95325 53.8 340.50012Q54.159374 340.047 54.159374 338.84387Q54.159374 337.7345 53.8 337.28137Q53.45625 336.82825 52.925 336.82825ZM52.940624 347.93762L59.20625 335.8595L60.346874 335.8595L54.096874 347.93762L52.940624 347.93762ZM57.89375 344.82825Q57.89375 343.59387 58.503124 342.7345Q59.128124 341.87512 60.3 341.87512Q61.378124 341.87512 62.08125 342.65637Q62.8 343.422 62.8 344.90637Q62.8 346.3595 62.08125 347.15637Q61.3625 347.93762 60.315624 347.93762Q59.26875 347.93762 58.58125 347.15637Q57.89375 346.37512 57.89375 344.82825ZM60.346874 342.84387Q59.815624 342.84387 59.45625 343.297Q59.1125 343.75012 59.1125 344.96887Q59.1125 346.06262 59.45625 346.51575Q59.815624 346.96887 60.33125 346.96887Q60.878124 346.96887 61.221874 346.51575Q61.565624 346.06262 61.565624 344.8595Q61.565624 343.75012 61.20625 343.297Q60.8625 342.84387 60.346874 342.84387Z" fill-rule="nonzero"/><path stroke="#757575" stroke-width="1.0" stroke-linecap="butt" d="M18.55 331.01575L145.23334 331.01575L238.67993 331.01575" fill-rule="nonzero"/><path fill="#9e9e9e" d="M240.67993 331.01575C240.67993 329.9112 239.7845 329.01575 238.67993 329.01575C237.57536 329.01575 236.67993 329.9112 236.67993 331.01575C236.67993 332.12033 237.57536 333.01575 238.67993 333.01575C239.7845 333.01575 240.67993 332.12033 240.67993 331.01575" fill-rule="nonzero"/><path fill="#efefef" d="M551.6375 70.85091L551.6375 59.39778L553.91876 59.39778L556.6375 67.50716Q557.0125 68.63216 557.1844 69.19466Q557.3719 68.56966 557.79376 67.36653L560.52814 59.39778L562.575 59.39778L562.575 70.85091L561.10626 70.85091L561.10626 61.257156L557.77814 70.85091L556.41876 70.85091L553.10626 61.100906L553.10626 70.85091L551.6375 70.85091ZM569.91876 69.81966Q569.1375 70.49153 568.41876 70.77278Q567.7 71.03841 566.8719 71.03841Q565.4969 71.03841 564.7625 70.36653Q564.02814 69.69466 564.02814 68.66341Q564.02814 68.05403 564.3094 67.55403Q564.59064 67.03841 565.02814 66.74153Q565.48126 66.42903 566.04376 66.27278Q566.46564 66.16341 567.29376 66.06966Q568.9969 65.86653 569.8094 65.58528Q569.8094 65.28841 569.8094 65.21028Q569.8094 64.35091 569.41876 64.00716Q568.8719 63.52278 567.8094 63.52278Q566.825 63.52278 566.34064 63.882156Q565.8719 64.22591 565.65314 65.10091L564.27814 64.91341Q564.46564 64.03841 564.8875 63.49153Q565.325 62.944656 566.1375 62.663406Q566.95 62.36653 568.0125 62.36653Q569.075 62.36653 569.73126 62.61653Q570.40314 62.86653 570.71564 63.24153Q571.02814 63.61653 571.15314 64.19466Q571.23126 64.55403 571.23126 65.49153L571.23126 67.36653Q571.23126 69.33528 571.3094 69.85091Q571.40314 70.36653 571.66876 70.85091L570.2 70.85091Q569.98126 70.41341 569.91876 69.81966ZM569.8094 66.67903Q569.04376 66.99153 567.5125 67.21028Q566.6375 67.33528 566.27814 67.49153Q565.91876 67.64778 565.71564 67.96028Q565.52814 68.25716 565.52814 68.61653Q565.52814 69.17903 565.95 69.55403Q566.3875 69.92903 567.2 69.92903Q568.0125 69.92903 568.6375 69.58528Q569.27814 69.22591 569.575 68.60091Q569.8094 68.13216 569.8094 67.19466L569.8094 66.67903ZM573.5125 74.03841L573.5125 62.55403L574.79376 62.55403L574.79376 63.632156Q575.2469 62.99153 575.8094 62.67903Q576.3875 62.36653 577.2 62.36653Q578.2625 62.36653 579.075 62.913406Q579.8875 63.46028 580.29376 64.46028Q580.71564 65.44466 580.71564 66.63216Q580.71564 67.91341 580.2469 68.92903Q579.79376 69.94466 578.91876 70.49153Q578.0594 71.03841 577.09064 71.03841Q576.3875 71.03841 575.825 70.74153Q575.27814 70.44466 574.91876 69.99153L574.91876 74.03841L573.5125 74.03841ZM574.77814 66.74153Q574.77814 68.35091 575.41876 69.11653Q576.075 69.88216 576.9969 69.88216Q577.9344 69.88216 578.60626 69.08528Q579.27814 68.28841 579.27814 66.63216Q579.27814 65.03841 578.6219 64.25716Q577.96564 63.46028 577.0594 63.46028Q576.16876 63.46028 575.46564 64.30403Q574.77814 65.14778 574.77814 66.74153Z" fill-rule="nonzero"/><path fill="#9e9e9e" d="M542.41876 92.85091L541.0125 92.85091L541.0125 83.88216Q540.4969 84.36653 539.66876 84.85091Q538.85626 85.33528 538.2 85.58528L538.2 84.22591Q539.3719 83.66341 540.2469 82.88216Q541.1375 82.08528 541.5125 81.35091L542.41876 81.35091L542.41876 92.85091ZM550.6219 92.85091L550.6219 90.10091L545.65314 90.10091L545.65314 88.81966L550.8875 81.39778L552.02814 81.39778L552.02814 88.81966L553.575 88.81966L553.575 90.10091L552.02814 90.10091L552.02814 92.85091L550.6219 92.85091ZM550.6219 88.81966L550.6219 83.64778L547.04376 88.81966L550.6219 88.81966ZM555.90314 92.85091L555.90314 91.24153L557.5125 91.24153L557.5125 92.85091L555.90314 92.85091ZM559.1219 89.81966L560.52814 89.63216Q560.77814 90.83528 561.35626 91.36653Q561.9344 91.88216 562.77814 91.88216Q563.7625 91.88216 564.45 91.19466Q565.1375 90.50716 565.1375 89.49153Q565.1375 88.52278 564.4969 87.89778Q563.8719 87.27278 562.8875 87.27278Q562.4969 87.27278 561.90314 87.42903L562.0594 86.19466Q562.2 86.21028 562.27814 86.21028Q563.1844 86.21028 563.90314 85.74153Q564.6219 85.27278 564.6219 84.28841Q564.6219 83.52278 564.09064 83.02278Q563.575 82.50716 562.7469 82.50716Q561.91876 82.50716 561.3719 83.02278Q560.825 83.53841 560.66876 84.56966L559.2625 84.31966Q559.52814 82.89778 560.4344 82.13216Q561.35626 81.35091 562.71564 81.35091Q563.65314 81.35091 564.4344 81.75716Q565.23126 82.14778 565.6375 82.85091Q566.0594 83.53841 566.0594 84.31966Q566.0594 85.06966 565.65314 85.67903Q565.2625 86.28841 564.48126 86.64778Q565.4969 86.88216 566.0594 87.61653Q566.6219 88.35091 566.6219 89.46028Q566.6219 90.96028 565.52814 92.00716Q564.4344 93.05403 562.7625 93.05403Q561.2625 93.05403 560.2625 92.16341Q559.2625 91.25716 559.1219 89.81966ZM568.3875 84.14778Q568.3875 82.91341 568.9969 82.05403Q569.6219 81.19466 570.79376 81.19466Q571.8719 81.19466 572.575 81.97591Q573.27814 82.74153 573.27814 84.22591Q573.27814 85.67903 572.5594 86.47591Q571.85626 87.25716 570.8094 87.25716Q569.7625 87.25716 569.075 86.49153Q568.3875 85.71028 568.3875 84.14778ZM570.825 82.16341Q570.3094 82.16341 569.95 82.61653Q569.60626 83.06966 569.60626 84.28841Q569.60626 85.38216 569.95 85.83528Q570.3094 86.28841 570.825 86.28841Q571.35626 86.28841 571.7 85.83528Q572.0594 85.38216 572.0594 84.17903Q572.0594 83.06966 571.7 82.61653Q571.35626 82.16341 570.825 82.16341ZM570.84064 93.27278L577.10626 81.19466L578.2469 81.19466L571.9969 93.27278L570.84064 93.27278ZM575.79376 90.16341Q575.79376 88.92903 576.40314 88.06966Q577.02814 87.21028 578.2 87.21028Q579.27814 87.21028 579.98126 87.99153Q580.7 88.75716 580.7 90.24153Q580.7 91.69466 579.98126 92.49153Q579.2625 93.27278 578.21564 93.27278Q577.16876 93.27278 576.48126 92.49153Q575.79376 91.71028 575.79376 90.16341ZM578.2469 88.17903Q577.71564 88.17903 577.35626 88.63216Q577.0125 89.08528 577.0125 90.30403Q577.0125 91.39778 577.35626 91.85091Q577.71564 92.30403 578.23126 92.30403Q578.77814 92.30403 579.1219 91.85091Q579.46564 91.39778 579.46564 90.19466Q579.46564 89.08528 579.10626 88.63216Q578.7625 88.17903 578.2469 88.17903Z" fill-rule="nonzero"/><path stroke="#757575" stroke-width="1.0" stroke-linecap="butt" d="M581.45 76.35091L454.76666 76.35091L361.32007 76.35091" fill-rule="nonzero"/><path fill="#9e9e9e" d="M363.32007 76.35091C363.32007 75.24634 362.42462 74.35091 361.32007 74.35091C360.21548 74.35091 359.32007 75.24634 359.32007 76.35091C359.32007 77.455475 360.21548 78.35091 361.32007 78.35091C362.42462 78.35091 363.32007 77.455475 363.32007 76.35091" fill-rule="nonzero"/><path fill="#efefef" d="M531.6844 229.63185L531.6844 218.17873L536.0125 218.17873Q537.15314 218.17873 537.7469 218.2881Q538.59064 218.42873 539.15314 218.81935Q539.73126 219.20998 540.075 219.92873Q540.4344 220.63185 540.4344 221.49123Q540.4344 222.94435 539.4969 223.95998Q538.575 224.9756 536.1375 224.9756L533.2 224.9756L533.2 229.63185L531.6844 229.63185ZM533.2 223.61623L536.16876 223.61623Q537.6375 223.61623 538.2469 223.06935Q538.8719 222.52248 538.8719 221.5381Q538.8719 220.81935 538.4969 220.30373Q538.1375 219.7881 537.54376 219.63185Q537.16876 219.52248 536.1375 219.52248L533.2 219.52248L533.2 223.61623ZM548.1844 226.95998L549.6375 227.13185Q549.29376 228.4131 548.35626 229.11623Q547.4344 229.81935 545.9969 229.81935Q544.16876 229.81935 543.10626 228.69435Q542.04376 227.56935 542.04376 225.55373Q542.04376 223.45998 543.1219 222.30373Q544.2 221.14748 545.91876 221.14748Q547.575 221.14748 548.6219 222.2881Q549.6844 223.4131 549.6844 225.45998Q549.6844 225.58498 549.6844 225.83498L543.4969 225.83498Q543.575 227.20998 544.2625 227.94435Q544.96564 228.6631 545.9969 228.6631Q546.77814 228.6631 547.325 228.25685Q547.8719 227.8506 548.1844 226.95998ZM543.575 224.67873L548.2 224.67873Q548.10626 223.63185 547.66876 223.11623Q546.9969 222.30373 545.9344 222.30373Q544.96564 222.30373 544.29376 222.95998Q543.6375 223.6006 543.575 224.67873ZM550.98126 225.4756Q550.98126 223.17873 552.2625 222.06935Q553.34064 221.14748 554.8719 221.14748Q556.59064 221.14748 557.66876 222.27248Q558.7625 223.38185 558.7625 225.36623Q558.7625 226.95998 558.27814 227.88185Q557.79376 228.80373 556.8719 229.31935Q555.96564 229.81935 554.8719 229.81935Q553.1375 229.81935 552.0594 228.70998Q550.98126 227.58498 550.98126 225.4756ZM552.4344 225.4756Q552.4344 227.06935 553.1219 227.86623Q553.825 228.6631 554.8719 228.6631Q555.91876 228.6631 556.60626 227.86623Q557.3094 227.06935 557.3094 225.42873Q557.3094 223.89748 556.60626 223.1006Q555.91876 222.30373 554.8719 222.30373Q553.825 222.30373 553.1219 223.1006Q552.4344 223.88185 552.4344 225.4756ZM560.5125 232.81935L560.5125 221.33498L561.79376 221.33498L561.79376 222.4131Q562.2469 221.77248 562.8094 221.45998Q563.3875 221.14748 564.2 221.14748Q565.2625 221.14748 566.075 221.69435Q566.8875 222.24123 567.29376 223.24123Q567.71564 224.2256 567.71564 225.4131Q567.71564 226.69435 567.2469 227.70998Q566.79376 228.7256 565.91876 229.27248Q565.0594 229.81935 564.09064 229.81935Q563.3875 229.81935 562.825 229.52248Q562.27814 229.2256 561.91876 228.77248L561.91876 232.81935L560.5125 232.81935ZM561.77814 225.52248Q561.77814 227.13185 562.41876 227.89748Q563.075 228.6631 563.9969 228.6631Q564.9344 228.6631 565.60626 227.86623Q566.27814 227.06935 566.27814 225.4131Q566.27814 223.81935 565.6219 223.0381Q564.96564 222.24123 564.0594 222.24123Q563.16876 222.24123 562.46564 223.08498Q561.77814 223.92873 561.77814 225.52248ZM569.48126 229.63185L569.48126 218.17873L570.8875 218.17873L570.8875 229.63185L569.48126 229.63185ZM579.1844 226.95998L580.6375 227.13185Q580.29376 228.4131 579.35626 229.11623Q578.4344 229.81935 576.9969 229.81935Q575.16876 229.81935 574.10626 228.69435Q573.04376 227.56935 573.04376 225.55373Q573.04376 223.45998 574.1219 222.30373Q575.2 221.14748 576.91876 221.14748Q578.575 221.14748 579.6219 222.2881Q580.6844 223.4131 580.6844 225.45998Q580.6844 225.58498 580.6844 225.83498L574.4969 225.83498Q574.575 227.20998 575.2625 227.94435Q575.96564 228.6631 576.9969 228.6631Q577.77814 228.6631 578.325 228.25685Q578.8719 227.8506 579.1844 226.95998ZM574.575 224.67873L579.2 224.67873Q579.10626 223.63185 578.66876 223.11623Q577.9969 222.30373 576.9344 222.30373Q575.96564 222.30373 575.29376 222.95998Q574.6375 223.6006 574.575 224.67873Z" fill-rule="nonzero"/><path fill="#9e9e9e" d="M544.5125 250.27248L544.5125 251.63185L536.9344 251.63185Q536.91876 251.11623 537.10626 250.64748Q537.3875 249.88185 538.02814 249.13185Q538.66876 248.38185 539.8719 247.39748Q541.73126 245.86623 542.3875 244.9756Q543.04376 244.06935 543.04376 243.27248Q543.04376 242.44435 542.45 241.86623Q541.85626 241.2881 540.8875 241.2881Q539.8719 241.2881 539.2625 241.89748Q538.65314 242.50685 538.65314 243.58498L537.2 243.44435Q537.35626 241.81935 538.325 240.9756Q539.29376 240.13185 540.91876 240.13185Q542.575 240.13185 543.52814 241.05373Q544.4969 241.95998 544.4969 243.30373Q544.4969 243.99123 544.21564 244.6631Q543.9344 245.31935 543.27814 246.05373Q542.6219 246.7881 541.10626 248.06935Q539.84064 249.13185 539.48126 249.52248Q539.1219 249.89748 538.8875 250.27248L544.5125 250.27248ZM548.27814 245.4131Q547.40314 245.1006 546.98126 244.50685Q546.5594 243.9131 546.5594 243.08498Q546.5594 241.83498 547.45 240.99123Q548.35626 240.13185 549.85626 240.13185Q551.35626 240.13185 552.2625 241.00685Q553.1844 241.86623 553.1844 243.11623Q553.1844 243.9131 552.7625 244.50685Q552.34064 245.1006 551.4969 245.4131Q552.54376 245.75685 553.09064 246.52248Q553.65314 247.2881 553.65314 248.3506Q553.65314 249.81935 552.60626 250.83498Q551.575 251.83498 549.8719 251.83498Q548.1844 251.83498 547.1375 250.83498Q546.10626 249.81935 546.10626 248.31935Q546.10626 247.19435 546.66876 246.44435Q547.23126 245.69435 548.27814 245.4131ZM547.9969 243.0381Q547.9969 243.8506 548.5125 244.36623Q549.04376 244.88185 549.8875 244.88185Q550.7 244.88185 551.21564 244.36623Q551.73126 243.8506 551.73126 243.11623Q551.73126 242.33498 551.2 241.81935Q550.66876 241.2881 549.8719 241.2881Q549.0594 241.2881 548.52814 241.80373Q547.9969 242.31935 547.9969 243.0381ZM547.54376 248.31935Q547.54376 248.92873 547.825 249.49123Q548.1219 250.05373 548.6844 250.36623Q549.2469 250.6631 549.8875 250.6631Q550.90314 250.6631 551.5594 250.02248Q552.21564 249.36623 552.21564 248.36623Q552.21564 247.3506 551.52814 246.69435Q550.85626 246.02248 549.84064 246.02248Q548.85626 246.02248 548.2 246.67873Q547.54376 247.33498 547.54376 248.31935ZM555.90314 251.63185L555.90314 250.02248L557.5125 250.02248L557.5125 251.63185L555.90314 251.63185ZM566.41876 242.9756L565.0125 243.08498Q564.825 242.25685 564.48126 241.88185Q563.91876 241.2881 563.075 241.2881Q562.40314 241.2881 561.90314 241.6631Q561.23126 242.14748 560.84064 243.08498Q560.46564 244.00685 560.45 245.7256Q560.96564 244.94435 561.7 244.56935Q562.4344 244.19435 563.23126 244.19435Q564.6375 244.19435 565.6219 245.24123Q566.6219 246.27248 566.6219 247.9131Q566.6219 248.99123 566.15314 249.9131Q565.6844 250.83498 564.8719 251.33498Q564.0594 251.83498 563.02814 251.83498Q561.27814 251.83498 560.16876 250.5381Q559.0594 249.24123 559.0594 246.27248Q559.0594 242.94435 560.27814 241.44435Q561.35626 240.13185 563.16876 240.13185Q564.5125 240.13185 565.3719 240.89748Q566.2469 241.64748 566.41876 242.9756ZM560.66876 247.9131Q560.66876 248.64748 560.98126 249.31935Q561.29376 249.9756 561.84064 250.31935Q562.40314 250.6631 563.0125 250.6631Q563.90314 250.6631 564.54376 249.94435Q565.1844 249.2256 565.1844 247.99123Q565.1844 246.80373 564.54376 246.13185Q563.91876 245.44435 562.95 245.44435Q561.9969 245.44435 561.325 246.13185Q560.66876 246.80373 560.66876 247.9131ZM568.3875 242.92873Q568.3875 241.69435 568.9969 240.83498Q569.6219 239.9756 570.79376 239.9756Q571.8719 239.9756 572.575 240.75685Q573.27814 241.52248 573.27814 243.00685Q573.27814 244.45998 572.5594 245.25685Q571.85626 246.0381 570.8094 246.0381Q569.7625 246.0381 569.075 245.27248Q568.3875 244.49123 568.3875 242.92873ZM570.825 240.94435Q570.3094 240.94435 569.95 241.39748Q569.60626 241.8506 569.60626 243.06935Q569.60626 244.1631 569.95 244.61623Q570.3094 245.06935 570.825 245.06935Q571.35626 245.06935 571.7 244.61623Q572.0594 244.1631 572.0594 242.95998Q572.0594 241.8506 571.7 241.39748Q571.35626 240.94435 570.825 240.94435ZM570.84064 252.05373L577.10626 239.9756L578.2469 239.9756L571.9969 252.05373L570.84064 252.05373ZM575.79376 248.94435Q575.79376 247.70998 576.40314 246.8506Q577.02814 245.99123 578.2 245.99123Q579.27814 245.99123 579.98126 246.77248Q580.7 247.5381 580.7 249.02248Q580.7 250.4756 579.98126 251.27248Q579.2625 252.05373 578.21564 252.05373Q577.16876 252.05373 576.48126 251.27248Q575.79376 250.49123 575.79376 248.94435ZM578.2469 246.95998Q577.71564 246.95998 577.35626 247.4131Q577.0125 247.86623 577.0125 249.08498Q577.0125 250.17873 577.35626 250.63185Q577.71564 251.08498 578.23126 251.08498Q578.77814 251.08498 579.1219 250.63185Q579.46564 250.17873 579.46564 248.9756Q579.46564 247.86623 579.10626 247.4131Q578.7625 246.95998 578.2469 246.95998Z" fill-rule="nonzero"/><path stroke="#757575" stroke-width="1.0" stroke-linecap="butt" d="M581.45 235.13185L454.76666 235.13185L437.78494 235.13185" fill-rule="nonzero"/><path fill="#9e9e9e" d="M439.78494 235.13185C439.78494 234.02728 438.8895 233.13185 437.78494 233.13185C436.68036 233.13185 435.78494 234.02728 435.78494 235.13185C435.78494 236.23642 436.68036 237.13185 437.78494 237.13185C438.8895 237.13185 439.78494 236.23642 439.78494 235.13185" fill-rule="nonzero"/><path fill="#f3f3f3" d="M265.98438 37.55L265.98438 23.2375L268.84375 23.2375L272.21875 33.3625Q272.6875 34.784374 272.90625 35.4875Q273.15625 34.70625 273.67188 33.190624L277.09375 23.2375L279.64062 23.2375L279.64062 37.55L277.82812 37.55L277.82812 25.565624L273.65625 37.55L271.95312 37.55L267.8125 25.3625L267.8125 37.55L265.98438 37.55ZM289.92188 34.20625L291.73438 34.440624Q291.3125 36.01875 290.14062 36.909374Q288.98438 37.784374 287.17188 37.784374Q284.90625 37.784374 283.5625 36.39375Q282.23438 34.9875 282.23438 32.45625Q282.23438 29.83125 283.57812 28.39375Q284.92188 26.940624 287.07812 26.940624Q289.15625 26.940624 290.46875 28.3625Q291.79688 29.76875 291.79688 32.346874Q291.79688 32.503124 291.78125 32.815624L284.04688 32.815624Q284.14062 34.51875 285.01562 35.425Q285.89062 36.33125 287.1875 36.33125Q288.15625 36.33125 288.82812 35.83125Q289.51562 35.315624 289.92188 34.20625ZM284.14062 31.3625L289.9375 31.3625Q289.82812 30.065624 289.28125 29.409374Q288.4375 28.39375 287.09375 28.39375Q285.89062 28.39375 285.0625 29.20625Q284.23438 30.003124 284.14062 31.3625ZM300.54688 37.55L300.54688 36.2375Q299.5625 37.784374 297.64062 37.784374Q296.40625 37.784374 295.35938 37.096874Q294.32812 36.409374 293.75 35.190624Q293.1875 33.971874 293.1875 32.378124Q293.1875 30.815624 293.70312 29.55Q294.21875 28.284374 295.25 27.6125Q296.29688 26.940624 297.5625 26.940624Q298.5 26.940624 299.23438 27.346874Q299.96875 27.7375 300.4375 28.3625L300.4375 23.2375L302.17188 23.2375L302.17188 37.55L300.54688 37.55ZM294.98438 32.378124Q294.98438 34.3625 295.82812 35.346874Q296.67188 36.33125 297.8125 36.33125Q298.96875 36.33125 299.76562 35.39375Q300.57812 34.45625 300.57812 32.51875Q300.57812 30.39375 299.75 29.39375Q298.9375 28.39375 297.73438 28.39375Q296.5625 28.39375 295.76562 29.3625Q294.98438 30.315624 294.98438 32.378124ZM304.82812 25.253124L304.82812 23.2375L306.59375 23.2375L306.59375 25.253124L304.82812 25.253124ZM304.82812 37.55L304.82812 27.175L306.59375 27.175L306.59375 37.55L304.82812 37.55ZM315.60938 37.55L315.60938 36.01875Q314.40625 37.784374 312.32812 37.784374Q311.40625 37.784374 310.60938 37.440624Q309.8125 37.08125 309.42188 36.55Q309.04688 36.01875 308.89062 35.2375Q308.78125 34.721874 308.78125 33.596874L308.78125 27.175L310.53125 27.175L310.53125 32.925Q310.53125 34.3 310.64062 34.784374Q310.8125 35.471874 311.34375 35.878124Q311.89062 36.26875 312.67188 36.26875Q313.46875 36.26875 314.15625 35.8625Q314.85938 35.45625 315.14062 34.76875Q315.4375 34.065624 315.4375 32.7375L315.4375 27.175L317.1875 27.175L317.1875 37.55L315.60938 37.55ZM319.8125 37.55L319.8125 27.175L321.39062 27.175L321.39062 28.628124Q321.875 27.878124 322.6875 27.409374Q323.5 26.940624 324.53125 26.940624Q325.6875 26.940624 326.42188 27.425Q327.15625 27.89375 327.46875 28.753124Q328.70312 26.940624 330.67188 26.940624Q332.21875 26.940624 333.04688 27.8Q333.875 28.659374 333.875 30.425L333.875 37.55L332.125 37.55L332.125 31.01875Q332.125 29.95625 331.95312 29.503124Q331.78125 29.034374 331.32812 28.753124Q330.89062 28.471874 330.28125 28.471874Q329.1875 28.471874 328.45312 29.20625Q327.73438 29.925 327.73438 31.51875L327.73438 37.55L325.98438 37.55L325.98438 30.815624Q325.98438 29.64375 325.54688 29.065624Q325.125 28.471874 324.14062 28.471874Q323.40625 28.471874 322.76562 28.8625Q322.14062 29.253124 321.85938 30.003124Q321.57812 30.753124 321.57812 32.175L321.57812 37.55L319.8125 37.55Z" fill-rule="nonzero"/></svg>