<svg version="1.1" viewBox="0.0 0.0 600.0 371.0" fill="none" stroke="none" stroke-linecap="square" stroke-miterlimit="10" width="600" height="371" xmlns:xlink="http://www.w3.org/1999/xlink" xmlns="http://www.w3.org/2000/svg"><path fill="#ffffff" fill-opacity="0.0" d="M0 0L600.0 0L600.0 371.0L0 371.0L0 0Z" fill-rule="nonzero"/><path fill="#4571b0" d="M300.0 54.916668C345.27335 54.916668 388.08298 75.53269 416.31046 110.92883L358.15524 157.30608C344.0415 139.60802 322.6367 129.3 300.0 129.3Z" fill-rule="nonzero"/><path fill="#78a94e" d="M416.31046 110.92883C444.53793 146.32497 455.11105 192.64877 445.03677 236.78703C434.9625 280.9253 405.33734 318.0741 364.54742 337.71747L332.2737 270.7004C352.66867 260.87872 367.48126 242.30432 372.5184 220.23518C377.5555 198.16605 372.26898 175.00415 358.15524 157.30608Z" fill-rule="nonzero"/><path fill="#d0473d" d="M154.96323 236.78703C144.88895 192.64877 155.46205 146.32497 183.68953 110.92883C211.91702 75.53269 254.72664 54.916668 300.0 54.916668L300.0 129.3C277.3633 129.3 255.95851 139.60802 241.84477 157.30608C227.73103 175.00415 222.44447 198.16605 227.48161 220.23518Z" fill-rule="nonzero"/><path fill="#8c4595" d="M364.54742 337.71747C323.75754 357.36084 276.24246 357.36084 235.45256 337.71747C194.66267 318.0741 165.03749 280.9253 154.96323 236.78703L227.48161 220.23518C232.51875 242.30432 247.33133 260.87872 267.7263 270.7004C288.12122 280.5221 311.87878 280.5221 332.2737 270.7004Z" fill-rule="nonzero"/><path fill="#ffffff" d="M329.6137 109.65773L328.03558 109.65773L328.03558 99.579605Q327.45746 100.12648 326.53558 100.673355Q325.6137 101.204605 324.8637 101.485855L324.8637 99.954605Q326.19183 99.329605 327.19183 98.43898Q328.19183 97.548355 328.59808 96.72023L329.6137 96.72023L329.6137 109.65773ZM338.72308 109.65773L338.72308 106.579605L333.14496 106.579605L333.14496 105.12648L339.01996 96.767105L340.31683 96.767105L340.31683 105.12648L342.0512 105.12648L342.0512 106.579605L340.31683 106.579605L340.31683 109.65773L338.72308 109.65773ZM338.72308 105.12648L338.72308 99.31398L334.69183 105.12648L338.72308 105.12648ZM344.5512 109.65773L344.5512 107.860855L346.34808 107.860855L346.34808 109.65773L344.5512 109.65773ZM348.66058 106.25148L350.25433 106.048355Q350.51996 107.392105 351.1762 107.985855Q351.83246 108.579605 352.76996 108.579605Q353.89496 108.579605 354.66058 107.81398Q355.4262 107.03273 355.4262 105.892105Q355.4262 104.798355 354.70746 104.09523Q354.00433 103.37648 352.91058 103.37648Q352.45746 103.37648 351.78558 103.56398L351.95746 102.173355Q352.1137 102.18898 352.22308 102.18898Q353.22308 102.18898 354.03558 101.65773Q354.84808 101.12648 354.84808 100.03273Q354.84808 99.15773 354.25433 98.59523Q353.66058 98.017105 352.7387 98.017105Q351.81683 98.017105 351.19183 98.59523Q350.58246 99.173355 350.41058 100.34523L348.83246 100.06398Q349.1137 98.47023 350.14496 97.59523Q351.1762 96.72023 352.70746 96.72023Q353.75433 96.72023 354.64496 97.173355Q355.53558 97.62648 356.00433 98.40773Q356.47308 99.18898 356.47308 100.06398Q356.47308 100.90773 356.01996 101.59523Q355.58246 102.267105 354.69183 102.673355Q355.83246 102.93898 356.45746 103.78273Q357.09808 104.610855 357.09808 105.84523Q357.09808 107.53273 355.8637 108.72023Q354.64496 109.892105 352.76996 109.892105Q351.06683 109.892105 349.94183 108.87648Q348.83246 107.860855 348.66058 106.25148ZM358.95746 99.860855Q358.95746 98.485855 359.64496 97.517105Q360.34808 96.548355 361.66058 96.548355Q362.87933 96.548355 363.6762 97.423355Q364.47308 98.28273 364.47308 99.97023Q364.47308 101.59523 363.66058 102.485855Q362.8637 103.360855 361.6762 103.360855Q360.51996 103.360855 359.7387 102.50148Q358.95746 101.62648 358.95746 99.860855ZM361.70746 97.642105Q361.1137 97.642105 360.72308 98.15773Q360.33246 98.65773 360.33246 100.017105Q360.33246 101.267105 360.72308 101.767105Q361.12933 102.267105 361.70746 102.267105Q362.3012 102.267105 362.69183 101.767105Q363.08246 101.25148 363.08246 99.90773Q363.08246 98.65773 362.69183 98.15773Q362.3012 97.642105 361.70746 97.642105ZM361.72308 110.12648L368.76996 96.548355L370.0512 96.548355L363.01996 110.12648L361.72308 110.12648ZM367.28558 106.62648Q367.28558 105.25148 367.97308 104.28273Q368.6762 103.31398 370.00433 103.31398Q371.22308 103.31398 372.00433 104.18898Q372.8012 105.048355 372.8012 106.735855Q372.8012 108.360855 372.00433 109.25148Q371.20746 110.12648 370.01996 110.12648Q368.84808 110.12648 368.06683 109.25148Q367.28558 108.37648 367.28558 106.62648ZM370.0512 104.40773Q369.45746 104.40773 369.06683 104.923355Q368.6762 105.423355 368.6762 106.798355Q368.6762 108.017105 369.06683 108.53273Q369.45746 109.048355 370.03558 109.048355Q370.64496 109.048355 371.03558 108.53273Q371.4262 108.017105 371.4262 106.673355Q371.4262 105.423355 371.03558 104.923355Q370.64496 104.40773 370.0512 104.40773Z" fill-rule="nonzero"/><path fill="#ffffff" d="M392.3401 233.49548L392.3401 235.01111L383.82446 235.01111Q383.80884 234.43298 384.01196 233.91736Q384.3401 233.04236 385.0432 232.19861Q385.76196 231.35486 387.12134 230.24548Q389.2151 228.52673 389.94946 227.52673Q390.69946 226.51111 390.69946 225.62048Q390.69946 224.66736 390.0276 224.02673Q389.3557 223.38611 388.2776 223.38611Q387.12134 223.38611 386.43384 224.07361Q385.76196 224.76111 385.74634 225.96423L384.12134 225.79236Q384.2932 223.97986 385.37134 223.02673Q386.4651 222.07361 388.30884 222.07361Q390.1526 222.07361 391.2307 223.10486Q392.32446 224.13611 392.32446 225.65173Q392.32446 226.41736 391.99634 227.16736Q391.68384 227.91736 390.94946 228.74548Q390.2151 229.57361 388.51196 231.01111Q387.0901 232.21423 386.68384 232.63611Q386.2776 233.05798 386.0276 233.49548L392.3401 233.49548ZM396.4651 228.02673Q395.4807 227.66736 394.99634 226.99548Q394.5276 226.32361 394.5276 225.40173Q394.5276 223.99548 395.5276 223.04236Q396.5432 222.07361 398.2307 222.07361Q399.9182 222.07361 400.93384 223.05798Q401.9651 224.02673 401.9651 225.43298Q401.9651 226.33923 401.49634 227.01111Q401.0276 227.66736 400.07446 228.02673Q401.26196 228.41736 401.87134 229.27673Q402.49634 230.13611 402.49634 231.32361Q402.49634 232.97986 401.32446 234.10486Q400.1526 235.22986 398.24634 235.22986Q396.3401 235.22986 395.1682 234.10486Q394.01196 232.96423 394.01196 231.27673Q394.01196 230.02673 394.63696 229.18298Q395.2776 228.32361 396.4651 228.02673ZM396.13696 225.33923Q396.13696 226.26111 396.7307 226.83923Q397.32446 227.41736 398.26196 227.41736Q399.1682 227.41736 399.74634 226.83923Q400.3401 226.26111 400.3401 225.43298Q400.3401 224.55798 399.7307 223.96423Q399.13696 223.37048 398.24634 223.37048Q397.3401 223.37048 396.7307 223.94861Q396.13696 224.52673 396.13696 225.33923ZM395.63696 231.29236Q395.63696 231.96423 395.94946 232.60486Q396.2776 233.22986 396.9026 233.58923Q397.5432 233.93298 398.2776 233.93298Q399.4026 233.93298 400.13696 233.19861Q400.88696 232.46423 400.88696 231.33923Q400.88696 230.19861 400.12134 229.46423Q399.3557 228.71423 398.2151 228.71423Q397.1057 228.71423 396.37134 229.44861Q395.63696 230.18298 395.63696 231.29236ZM404.9182 235.01111L404.9182 233.21423L406.7151 233.21423L406.7151 235.01111L404.9182 235.01111ZM417.2307 225.27673L415.6682 225.40173Q415.44946 224.47986 415.05884 224.05798Q414.4182 223.37048 413.4807 223.37048Q412.7307 223.37048 412.1526 223.79236Q411.4026 224.33923 410.9651 225.38611Q410.5432 226.43298 410.5276 228.37048Q411.1057 227.49548 411.9182 227.07361Q412.74634 226.65173 413.6526 226.65173Q415.24634 226.65173 416.3557 227.82361Q417.4651 228.97986 417.4651 230.82361Q417.4651 232.04236 416.93384 233.08923Q416.4182 234.12048 415.49634 234.68298Q414.5901 235.22986 413.43384 235.22986Q411.44946 235.22986 410.19946 233.77673Q408.94946 232.32361 408.94946 228.97986Q408.94946 225.24548 410.3401 223.54236Q411.5432 222.07361 413.57446 222.07361Q415.1057 222.07361 416.07446 222.93298Q417.0432 223.77673 417.2307 225.27673ZM410.7776 230.83923Q410.7776 231.65173 411.12134 232.40173Q411.4651 233.15173 412.0901 233.54236Q412.7151 233.93298 413.4026 233.93298Q414.4026 233.93298 415.12134 233.12048Q415.8401 232.30798 415.8401 230.91736Q415.8401 229.58923 415.12134 228.82361Q414.4182 228.04236 413.3401 228.04236Q412.26196 228.04236 411.51196 228.82361Q410.7776 229.58923 410.7776 230.83923ZM419.32446 225.21423Q419.32446 223.83923 420.01196 222.87048Q420.7151 221.90173 422.0276 221.90173Q423.24634 221.90173 424.0432 222.77673Q424.8401 223.63611 424.8401 225.32361Q424.8401 226.94861 424.0276 227.83923Q423.2307 228.71423 422.0432 228.71423Q420.88696 228.71423 420.1057 227.85486Q419.32446 226.97986 419.32446 225.21423ZM422.07446 222.99548Q421.4807 222.99548 421.0901 223.51111Q420.69946 224.01111 420.69946 225.37048Q420.69946 226.62048 421.0901 227.12048Q421.49634 227.62048 422.07446 227.62048Q422.6682 227.62048 423.05884 227.12048Q423.44946 226.60486 423.44946 225.26111Q423.44946 224.01111 423.05884 223.51111Q422.6682 222.99548 422.07446 222.99548ZM422.0901 235.47986L429.13696 221.90173L430.4182 221.90173L423.38696 235.47986L422.0901 235.47986ZM427.6526 231.97986Q427.6526 230.60486 428.3401 229.63611Q429.0432 228.66736 430.37134 228.66736Q431.5901 228.66736 432.37134 229.54236Q433.1682 230.40173 433.1682 232.08923Q433.1682 233.71423 432.37134 234.60486Q431.57446 235.47986 430.38696 235.47986Q429.2151 235.47986 428.43384 234.60486Q427.6526 233.72986 427.6526 231.97986ZM430.4182 229.76111Q429.82446 229.76111 429.43384 230.27673Q429.0432 230.77673 429.0432 232.15173Q429.0432 233.37048 429.43384 233.88611Q429.82446 234.40173 430.4026 234.40173Q431.01196 234.40173 431.4026 233.88611Q431.7932 233.37048 431.7932 232.02673Q431.7932 230.77673 431.4026 230.27673Q431.01196 229.76111 430.4182 229.76111Z" fill-rule="nonzero"/><path fill="#ffffff" d="M235.15192 309.1933L235.15192 310.70892L226.63629 310.70892Q226.62067 310.1308 226.82379 309.61517Q227.15192 308.74017 227.85504 307.89642Q228.57379 307.05267 229.93317 305.9433Q232.02692 304.22455 232.76129 303.22455Q233.51129 302.20892 233.51129 301.3183Q233.51129 300.36517 232.83942 299.72455Q232.16754 299.08392 231.08942 299.08392Q229.93317 299.08392 229.24567 299.77142Q228.57379 300.45892 228.55817 301.66205L226.93317 301.49017Q227.10504 299.67767 228.18317 298.72455Q229.27692 297.77142 231.12067 297.77142Q232.96442 297.77142 234.04254 298.80267Q235.13629 299.83392 235.13629 301.34955Q235.13629 302.11517 234.80817 302.86517Q234.49567 303.61517 233.76129 304.4433Q233.02692 305.27142 231.32379 306.70892Q229.90192 307.91205 229.49567 308.33392Q229.08942 308.7558 228.83942 309.1933L235.15192 309.1933ZM239.27692 303.72455Q238.29254 303.36517 237.80817 302.6933Q237.33942 302.02142 237.33942 301.09955Q237.33942 299.6933 238.33942 298.74017Q239.35504 297.77142 241.04254 297.77142Q242.73004 297.77142 243.74567 298.7558Q244.77692 299.72455 244.77692 301.1308Q244.77692 302.03705 244.30817 302.70892Q243.83942 303.36517 242.88629 303.72455Q244.07379 304.11517 244.68317 304.97455Q245.30817 305.83392 245.30817 307.02142Q245.30817 308.67767 244.13629 309.80267Q242.96442 310.92767 241.05817 310.92767Q239.15192 310.92767 237.98004 309.80267Q236.82379 308.66205 236.82379 306.97455Q236.82379 305.72455 237.44879 304.8808Q238.08942 304.02142 239.27692 303.72455ZM238.94879 301.03705Q238.94879 301.95892 239.54254 302.53705Q240.13629 303.11517 241.07379 303.11517Q241.98004 303.11517 242.55817 302.53705Q243.15192 301.95892 243.15192 301.1308Q243.15192 300.2558 242.54254 299.66205Q241.94879 299.0683 241.05817 299.0683Q240.15192 299.0683 239.54254 299.64642Q238.94879 300.22455 238.94879 301.03705ZM238.44879 306.99017Q238.44879 307.66205 238.76129 308.30267Q239.08942 308.92767 239.71442 309.28705Q240.35504 309.6308 241.08942 309.6308Q242.21442 309.6308 242.94879 308.89642Q243.69879 308.16205 243.69879 307.03705Q243.69879 305.89642 242.93317 305.16205Q242.16754 304.41205 241.02692 304.41205Q239.91754 304.41205 239.18317 305.14642Q238.44879 305.8808 238.44879 306.99017ZM247.73004 310.70892L247.73004 308.91205L249.52692 308.91205L249.52692 310.70892L247.73004 310.70892ZM260.04254 300.97455L258.48004 301.09955Q258.2613 300.17767 257.87067 299.7558Q257.23004 299.0683 256.29254 299.0683Q255.54254 299.0683 254.96442 299.49017Q254.21442 300.03705 253.77692 301.08392Q253.35504 302.1308 253.33942 304.0683Q253.91754 303.1933 254.73004 302.77142Q255.55817 302.34955 256.46442 302.34955Q258.05817 302.34955 259.16754 303.52142Q260.27692 304.67767 260.27692 306.52142Q260.27692 307.74017 259.74567 308.78705Q259.23004 309.8183 258.30817 310.3808Q257.40192 310.92767 256.24567 310.92767Q254.26129 310.92767 253.01129 309.47455Q251.76129 308.02142 251.76129 304.67767Q251.76129 300.9433 253.15192 299.24017Q254.35504 297.77142 256.3863 297.77142Q257.91754 297.77142 258.8863 298.6308Q259.85504 299.47455 260.04254 300.97455ZM253.58942 306.53705Q253.58942 307.34955 253.93317 308.09955Q254.27692 308.84955 254.90192 309.24017Q255.52692 309.6308 256.21442 309.6308Q257.21442 309.6308 257.93317 308.8183Q258.65192 308.0058 258.65192 306.61517Q258.65192 305.28705 257.93317 304.52142Q257.23004 303.74017 256.15192 303.74017Q255.07379 303.74017 254.32379 304.52142Q253.58942 305.28705 253.58942 306.53705ZM262.1363 300.91205Q262.1363 299.53705 262.8238 298.5683Q263.52692 297.59955 264.83942 297.59955Q266.05817 297.59955 266.85504 298.47455Q267.65192 299.33392 267.65192 301.02142Q267.65192 302.64642 266.83942 303.53705Q266.04254 304.41205 264.85504 304.41205Q263.6988 304.41205 262.91754 303.55267Q262.1363 302.67767 262.1363 300.91205ZM264.8863 298.6933Q264.29254 298.6933 263.90192 299.20892Q263.5113 299.70892 263.5113 301.0683Q263.5113 302.3183 263.90192 302.8183Q264.30817 303.3183 264.8863 303.3183Q265.48004 303.3183 265.87067 302.8183Q266.2613 302.30267 266.2613 300.95892Q266.2613 299.70892 265.87067 299.20892Q265.48004 298.6933 264.8863 298.6933ZM264.90192 311.17767L271.9488 297.59955L273.23004 297.59955L266.1988 311.17767L264.90192 311.17767ZM270.46442 307.67767Q270.46442 306.30267 271.15192 305.33392Q271.85504 304.36517 273.18317 304.36517Q274.40192 304.36517 275.18317 305.24017Q275.98004 306.09955 275.98004 307.78705Q275.98004 309.41205 275.18317 310.30267Q274.3863 311.17767 273.1988 311.17767Q272.02692 311.17767 271.24567 310.30267Q270.46442 309.42767 270.46442 307.67767ZM273.23004 305.45892Q272.6363 305.45892 272.24567 305.97455Q271.85504 306.47455 271.85504 307.84955Q271.85504 309.0683 272.24567 309.58392Q272.6363 310.09955 273.21442 310.09955Q273.8238 310.09955 274.21442 309.58392Q274.60504 309.0683 274.60504 307.72455Q274.60504 306.47455 274.21442 305.97455Q273.8238 305.45892 273.23004 305.45892Z" fill-rule="nonzero"/><path fill="#ffffff" d="M196.32965 139.10184L196.32965 140.61746L187.81403 140.61746Q187.7984 140.03934 188.00153 139.52371Q188.32965 138.64871 189.03278 137.80496Q189.75153 136.96121 191.1109 135.85184Q193.20465 134.13309 193.93903 133.13309Q194.68903 132.11746 194.68903 131.22684Q194.68903 130.27371 194.01715 129.63309Q193.34528 128.99246 192.26715 128.99246Q191.1109 128.99246 190.4234 129.67996Q189.75153 130.36746 189.7359 131.57059L188.1109 131.39871Q188.28278 129.58621 189.3609 128.63309Q190.45465 127.67996 192.2984 127.67996Q194.14215 127.67996 195.22028 128.71121Q196.31403 129.74246 196.31403 131.25809Q196.31403 132.02371 195.9859 132.77371Q195.6734 133.52371 194.93903 134.35184Q194.20465 135.17996 192.50153 136.61746Q191.07965 137.82059 190.6734 138.24246Q190.26715 138.66434 190.01715 139.10184L196.32965 139.10184ZM200.45465 133.63309Q199.47028 133.27371 198.9859 132.60184Q198.51715 131.92996 198.51715 131.00809Q198.51715 129.60184 199.51715 128.64871Q200.53278 127.67996 202.22028 127.67996Q203.90778 127.67996 204.9234 128.66434Q205.95465 129.63309 205.95465 131.03934Q205.95465 131.94559 205.4859 132.61746Q205.01715 133.27371 204.06403 133.63309Q205.25153 134.02371 205.8609 134.88309Q206.4859 135.74246 206.4859 136.92996Q206.4859 138.58621 205.31403 139.71121Q204.14215 140.83621 202.2359 140.83621Q200.32965 140.83621 199.15778 139.71121Q198.00153 138.57059 198.00153 136.88309Q198.00153 135.63309 198.62653 134.78934Q199.26715 133.92996 200.45465 133.63309ZM200.12653 130.94559Q200.12653 131.86746 200.72028 132.44559Q201.31403 133.02371 202.25153 133.02371Q203.15778 133.02371 203.7359 132.44559Q204.32965 131.86746 204.32965 131.03934Q204.32965 130.16434 203.72028 129.57059Q203.12653 128.97684 202.2359 128.97684Q201.32965 128.97684 200.72028 129.55496Q200.12653 130.13309 200.12653 130.94559ZM199.62653 136.89871Q199.62653 137.57059 199.93903 138.21121Q200.26715 138.83621 200.89215 139.19559Q201.53278 139.53934 202.26715 139.53934Q203.39215 139.53934 204.12653 138.80496Q204.87653 138.07059 204.87653 136.94559Q204.87653 135.80496 204.1109 135.07059Q203.34528 134.32059 202.20465 134.32059Q201.09528 134.32059 200.3609 135.05496Q199.62653 135.78934 199.62653 136.89871ZM208.90778 140.61746L208.90778 138.82059L210.70465 138.82059L210.70465 140.61746L208.90778 140.61746ZM221.22028 130.88309L219.65778 131.00809Q219.43903 130.08621 219.0484 129.66434Q218.40778 128.97684 217.47028 128.97684Q216.72028 128.97684 216.14215 129.39871Q215.39215 129.94559 214.95465 130.99246Q214.53278 132.03934 214.51715 133.97684Q215.09528 133.10184 215.90778 132.67996Q216.7359 132.25809 217.64215 132.25809Q219.2359 132.25809 220.34528 133.42996Q221.45465 134.58621 221.45465 136.42996Q221.45465 137.64871 220.9234 138.69559Q220.40778 139.72684 219.4859 140.28934Q218.57965 140.83621 217.4234 140.83621Q215.43903 140.83621 214.18903 139.38309Q212.93903 137.92996 212.93903 134.58621Q212.93903 130.85184 214.32965 129.14871Q215.53278 127.67996 217.56403 127.67996Q219.09528 127.67996 220.06403 128.53934Q221.03278 129.38309 221.22028 130.88309ZM214.76715 136.44559Q214.76715 137.25809 215.1109 138.00809Q215.45465 138.75809 216.07965 139.14871Q216.70465 139.53934 217.39215 139.53934Q218.39215 139.53934 219.1109 138.72684Q219.82965 137.91434 219.82965 136.52371Q219.82965 135.19559 219.1109 134.42996Q218.40778 133.64871 217.32965 133.64871Q216.25153 133.64871 215.50153 134.42996Q214.76715 135.19559 214.76715 136.44559ZM223.31403 130.82059Q223.31403 129.44559 224.00153 128.47684Q224.70465 127.50809 226.01715 127.50809Q227.2359 127.50809 228.03278 128.38309Q228.82965 129.24246 228.82965 130.92996Q228.82965 132.55496 228.01715 133.44559Q227.22028 134.32059 226.03278 134.32059Q224.87653 134.32059 224.09528 133.46121Q223.31403 132.58621 223.31403 130.82059ZM226.06403 128.60184Q225.47028 128.60184 225.07965 129.11746Q224.68903 129.61746 224.68903 130.97684Q224.68903 132.22684 225.07965 132.72684Q225.4859 133.22684 226.06403 133.22684Q226.65778 133.22684 227.0484 132.72684Q227.43903 132.21121 227.43903 130.86746Q227.43903 129.61746 227.0484 129.11746Q226.65778 128.60184 226.06403 128.60184ZM226.07965 141.08621L233.12653 127.50809L234.40778 127.50809L227.37653 141.08621L226.07965 141.08621ZM231.64215 137.58621Q231.64215 136.21121 232.32965 135.24246Q233.03278 134.27371 234.3609 134.27371Q235.57965 134.27371 236.3609 135.14871Q237.15778 136.00809 237.15778 137.69559Q237.15778 139.32059 236.3609 140.21121Q235.56403 141.08621 234.37653 141.08621Q233.20465 141.08621 232.4234 140.21121Q231.64215 139.33621 231.64215 137.58621ZM234.40778 135.36746Q233.81403 135.36746 233.4234 135.88309Q233.03278 136.38309 233.03278 137.75809Q233.03278 138.97684 233.4234 139.49246Q233.81403 140.00809 234.39215 140.00809Q235.00153 140.00809 235.39215 139.49246Q235.78278 138.97684 235.78278 137.63309Q235.78278 136.38309 235.39215 135.88309Q235.00153 135.36746 234.40778 135.36746Z" fill-rule="nonzero"/><path stroke="#ffffff" stroke-width="1.0" stroke-linejoin="round" stroke-linecap="round" d="M358.15524 157.30608C344.0415 139.60802 322.6367 129.3 300.0 129.3L300.0 54.916668C345.27335 54.916668 388.08298 75.53269 416.31046 110.92883" fill-rule="nonzero"/><path stroke="#ffffff" stroke-width="1.0" stroke-linejoin="round" stroke-linecap="round" d="M332.2737 270.7004C352.66867 260.87872 367.48126 242.30432 372.5184 220.23518C377.5555 198.16605 372.26898 175.00415 358.15524 157.30608L416.31046 110.92883C444.53793 146.32497 455.11105 192.64877 445.03677 236.78703C434.9625 280.9253 405.33734 318.0741 364.54742 337.71747" fill-rule="nonzero"/><path stroke="#ffffff" stroke-width="1.0" stroke-linejoin="round" stroke-linecap="round" d="M227.48161 220.23518C232.51875 242.30432 247.33133 260.87872 267.7263 270.7004C288.12122 280.5221 311.87878 280.5221 332.2737 270.7004L364.54742 337.71747C323.75754 357.36084 276.24246 357.36084 235.45256 337.71747C194.66267 318.0741 165.03749 280.9253 154.96323 236.78703" fill-rule="nonzero"/><path stroke="#ffffff" stroke-width="1.0" stroke-linejoin="round" stroke-linecap="round" d="M300.0 129.3C277.3633 129.3 255.95851 139.60802 241.84477 157.30608C227.73103 175.00415 222.44447 198.16605 227.48161 220.23518L154.96323 236.78703C144.88895 192.64877 155.46205 146.32497 183.68953 110.92883C211.91702 75.53269 254.72664 54.916668 300.0 54.916668" fill-rule="nonzero"/><path fill="#efefef" d="M19.76875 110.06656L19.76875 98.613434L21.33125 98.613434L27.346874 107.59781L27.346874 98.613434L28.8 98.613434L28.8 110.06656L27.2375 110.06656L21.221874 101.06656L21.221874 110.06656L19.76875 110.06656ZM37.01875 109.03531Q36.2375 109.707184 35.51875 109.988434Q34.8 110.25406 33.971874 110.25406Q32.596874 110.25406 31.8625 109.582184Q31.128124 108.91031 31.128124 107.87906Q31.128124 107.269684 31.409374 106.769684Q31.690624 106.25406 32.128124 105.957184Q32.58125 105.644684 33.14375 105.488434Q33.565624 105.37906 34.39375 105.28531Q36.096874 105.082184 36.909374 104.800934Q36.909374 104.50406 36.909374 104.425934Q36.909374 103.56656 36.51875 103.22281Q35.971874 102.738434 34.909374 102.738434Q33.925 102.738434 33.440624 103.09781Q32.971874 103.44156 32.753124 104.31656L31.378124 104.12906Q31.565624 103.25406 31.9875 102.707184Q32.425 102.16031 33.2375 101.87906Q34.05 101.582184 35.1125 101.582184Q36.175 101.582184 36.83125 101.832184Q37.503124 102.082184 37.815624 102.457184Q38.128124 102.832184 38.253124 103.41031Q38.33125 103.769684 38.33125 104.707184L38.33125 106.582184Q38.33125 108.550934 38.409374 109.06656Q38.503124 109.582184 38.76875 110.06656L37.3 110.06656Q37.08125 109.62906 37.01875 109.03531ZM36.909374 105.894684Q36.14375 106.207184 34.6125 106.425934Q33.7375 106.550934 33.378124 106.707184Q33.01875 106.863434 32.815624 107.175934Q32.628124 107.47281 32.628124 107.832184Q32.628124 108.394684 33.05 108.769684Q33.4875 109.144684 34.3 109.144684Q35.1125 109.144684 35.7375 108.800934Q36.378124 108.44156 36.675 107.81656Q36.909374 107.34781 36.909374 106.41031L36.909374 105.894684ZM42.909374 110.06656L39.753124 101.769684L41.2375 101.769684L43.01875 106.738434Q43.315624 107.53531 43.55 108.41031Q43.7375 107.75406 44.08125 106.832184L45.925 101.769684L47.3625 101.769684L44.221874 110.06656L42.909374 110.06656ZM54.01875 109.03531Q53.2375 109.707184 52.51875 109.988434Q51.8 110.25406 50.971874 110.25406Q49.596874 110.25406 48.8625 109.582184Q48.128124 108.91031 48.128124 107.87906Q48.128124 107.269684 48.409374 106.769684Q48.690624 106.25406 49.128124 105.957184Q49.58125 105.644684 50.14375 105.488434Q50.565624 105.37906 51.39375 105.28531Q53.096874 105.082184 53.909374 104.800934Q53.909374 104.50406 53.909374 104.425934Q53.909374 103.56656 53.51875 103.22281Q52.971874 102.738434 51.909374 102.738434Q50.925 102.738434 50.440624 103.09781Q49.971874 103.44156 49.753124 104.31656L48.378124 104.12906Q48.565624 103.25406 48.9875 102.707184Q49.425 102.16031 50.2375 101.87906Q51.05 101.582184 52.1125 101.582184Q53.175 101.582184 53.83125 101.832184Q54.503124 102.082184 54.815624 102.457184Q55.128124 102.832184 55.253124 103.41031Q55.33125 103.769684 55.33125 104.707184L55.33125 106.582184Q55.33125 108.550934 55.409374 109.06656Q55.503124 109.582184 55.76875 110.06656L54.3 110.06656Q54.08125 109.62906 54.01875 109.03531ZM53.909374 105.894684Q53.14375 106.207184 51.6125 106.425934Q50.7375 106.550934 50.378124 106.707184Q50.01875 106.863434 49.815624 107.175934Q49.628124 107.47281 49.628124 107.832184Q49.628124 108.394684 50.05 108.769684Q50.4875 109.144684 51.3 109.144684Q52.1125 109.144684 52.7375 108.800934Q53.378124 108.44156 53.675 107.81656Q53.909374 107.34781 53.909374 106.41031L53.909374 105.894684ZM57.58125 110.06656L57.58125 98.613434L58.9875 98.613434L58.9875 110.06656L57.58125 110.06656ZM65.26875 106.37906L66.70625 106.25406Q66.8 107.113434 67.175 107.675934Q67.55 108.22281 68.33125 108.56656Q69.1125 108.894684 70.08125 108.894684Q70.95625 108.894684 71.6125 108.644684Q72.28438 108.37906 72.59688 107.94156Q72.925 107.488434 72.925 106.957184Q72.925 106.41031 72.6125 106.019684Q72.3 105.613434 71.58125 105.332184Q71.12813 105.16031 69.55 104.78531Q67.97188 104.394684 67.33125 104.06656Q66.51875 103.62906 66.1125 103.00406Q65.70625 102.363434 65.70625 101.56656Q65.70625 100.707184 66.19063 99.957184Q66.69063 99.19156 67.62813 98.800934Q68.58125 98.41031 69.7375 98.41031Q71.01875 98.41031 71.9875 98.832184Q72.95625 99.238434 73.47188 100.03531Q74.00313 100.832184 74.05 101.832184L72.59688 101.94156Q72.47188 100.863434 71.8 100.31656Q71.12813 99.75406 69.8 99.75406Q68.425 99.75406 67.8 100.25406Q67.175 100.75406 67.175 101.47281Q67.175 102.082184 67.6125 102.488434Q68.05 102.87906 69.89375 103.300934Q71.75313 103.72281 72.44063 104.03531Q73.44063 104.488434 73.90938 105.207184Q74.39375 105.91031 74.39375 106.832184Q74.39375 107.738434 73.8625 108.550934Q73.34688 109.363434 72.3625 109.81656Q71.37813 110.269684 70.15938 110.269684Q68.59688 110.269684 67.55 109.81656Q66.50313 109.34781 65.89375 108.44156Q65.3 107.53531 65.26875 106.37906ZM79.675 108.800934L79.87813 110.050934Q79.28438 110.175934 78.81563 110.175934Q78.05 110.175934 77.62813 109.94156Q77.20625 109.69156 77.03438 109.300934Q76.8625 108.894684 76.8625 107.62906L76.8625 102.863434L75.83125 102.863434L75.83125 101.769684L76.8625 101.769684L76.8625 99.707184L78.26875 98.863434L78.26875 101.769684L79.675 101.769684L79.675 102.863434L78.26875 102.863434L78.26875 107.707184Q78.26875 108.31656 78.33125 108.488434Q78.40938 108.66031 78.58125 108.769684Q78.75313 108.863434 79.06563 108.863434Q79.3 108.863434 79.675 108.800934ZM80.59688 110.06656L80.59688 101.769684L81.8625 101.769684L81.8625 103.019684Q82.34688 102.144684 82.75313 101.863434Q83.15938 101.582184 83.65938 101.582184Q84.3625 101.582184 85.09688 102.03531L84.6125 103.332184Q84.09688 103.03531 83.58125 103.03531Q83.12813 103.03531 82.75313 103.31656Q82.39375 103.582184 82.2375 104.082184Q82.00313 104.832184 82.00313 105.72281L82.00313 110.06656L80.59688 110.06656ZM91.05 110.06656L91.05 108.84781Q90.08125 110.25406 88.40938 110.25406Q87.675 110.25406 87.03438 109.97281Q86.40938 109.69156 86.09688 109.269684Q85.78438 108.832184 85.65938 108.22281Q85.58125 107.800934 85.58125 106.91031L85.58125 101.769684L86.9875 101.769684L86.9875 106.363434Q86.9875 107.47281 87.06563 107.84781Q87.20625 108.41031 87.62813 108.72281Q88.06563 109.03531 88.69063 109.03531Q89.33125 109.03531 89.87813 108.72281Q90.44063 108.394684 90.65938 107.832184Q90.89375 107.269684 90.89375 106.207184L90.89375 101.769684L92.3 101.769684L92.3 110.06656L91.05 110.06656ZM100.01875 107.019684L101.40938 107.207184Q101.175 108.62906 100.2375 109.44156Q99.31563 110.25406 97.95625 110.25406Q96.25313 110.25406 95.20625 109.144684Q94.175 108.019684 94.175 105.94156Q94.175 104.59781 94.6125 103.59781Q95.06563 102.582184 95.97188 102.082184Q96.89375 101.582184 97.95625 101.582184Q99.31563 101.582184 100.175 102.269684Q101.03438 102.94156 101.26875 104.207184L99.90938 104.41031Q99.70625 103.582184 99.20625 103.16031Q98.72188 102.738434 98.01875 102.738434Q96.95625 102.738434 96.28438 103.50406Q95.62813 104.25406 95.62813 105.91031Q95.62813 107.582184 96.26875 108.34781Q96.90938 109.09781 97.94063 109.09781Q98.76875 109.09781 99.31563 108.59781Q99.87813 108.082184 100.01875 107.019684ZM105.675 108.800934L105.87813 110.050934Q105.28438 110.175934 104.81563 110.175934Q104.05 110.175934 103.62813 109.94156Q103.20625 109.69156 103.03438 109.300934Q102.8625 108.894684 102.8625 107.62906L102.8625 102.863434L101.83125 102.863434L101.83125 101.769684L102.8625 101.769684L102.8625 99.707184L104.26875 98.863434L104.26875 101.769684L105.675 101.769684L105.675 102.863434L104.26875 102.863434L104.26875 107.707184Q104.26875 108.31656 104.33125 108.488434Q104.40938 108.66031 104.58125 108.769684Q104.75313 108.863434 105.06563 108.863434Q105.3 108.863434 105.675 108.800934ZM112.05 110.06656L112.05 108.84781Q111.08125 110.25406 109.40938 110.25406Q108.675 110.25406 108.03438 109.97281Q107.40938 109.69156 107.09688 109.269684Q106.78438 108.832184 106.65938 108.22281Q106.58125 107.800934 106.58125 106.91031L106.58125 101.769684L107.9875 101.769684L107.9875 106.363434Q107.9875 107.47281 108.06563 107.84781Q108.20625 108.41031 108.62813 108.72281Q109.06563 109.03531 109.69063 109.03531Q110.33125 109.03531 110.87813 108.72281Q111.44063 108.394684 111.65938 107.832184Q111.89375 107.269684 111.89375 106.207184L111.89375 101.769684L113.3 101.769684L113.3 110.06656L112.05 110.06656ZM115.59688 110.06656L115.59688 101.769684L116.8625 101.769684L116.8625 103.019684Q117.34688 102.144684 117.75313 101.863434Q118.15938 101.582184 118.65938 101.582184Q119.3625 101.582184 120.09688 102.03531L119.6125 103.332184Q119.09688 103.03531 118.58125 103.03531Q118.12813 103.03531 117.75313 103.31656Q117.39375 103.582184 117.2375 104.082184Q117.00313 104.832184 117.00313 105.72281L117.00313 110.06656L115.59688 110.06656ZM126.28438 107.394684L127.7375 107.56656Q127.39375 108.84781 126.45625 109.550934Q125.53438 110.25406 124.09688 110.25406Q122.26875 110.25406 121.20625 109.12906Q120.14375 108.00406 120.14375 105.988434Q120.14375 103.894684 121.22188 102.738434Q122.3 101.582184 124.01875 101.582184Q125.675 101.582184 126.72188 102.72281Q127.78438 103.84781 127.78438 105.894684Q127.78438 106.019684 127.78438 106.269684L121.59688 106.269684Q121.675 107.644684 122.3625 108.37906Q123.06563 109.09781 124.09688 109.09781Q124.87813 109.09781 125.425 108.69156Q125.97188 108.28531 126.28438 107.394684ZM121.675 105.113434L126.3 105.113434Q126.20625 104.06656 125.76875 103.550934Q125.09688 102.738434 124.03438 102.738434Q123.06563 102.738434 122.39375 103.394684Q121.7375 104.03531 121.675 105.113434ZM129.05 107.582184L130.44063 107.363434Q130.55 108.207184 131.08125 108.66031Q131.62813 109.09781 132.58125 109.09781Q133.55 109.09781 134.01875 108.707184Q134.4875 108.300934 134.4875 107.769684Q134.4875 107.300934 134.08125 107.019684Q133.78438 106.832184 132.64375 106.550934Q131.09688 106.16031 130.4875 105.87906Q129.89375 105.582184 129.58125 105.082184Q129.28438 104.582184 129.28438 103.97281Q129.28438 103.41031 129.53438 102.94156Q129.78438 102.47281 130.22188 102.16031Q130.55 101.91031 131.1125 101.75406Q131.69063 101.582184 132.33125 101.582184Q133.31563 101.582184 134.05 101.863434Q134.78438 102.144684 135.12813 102.62906Q135.4875 103.09781 135.62813 103.91031L134.25313 104.09781Q134.15938 103.457184 133.70625 103.09781Q133.25313 102.738434 132.44063 102.738434Q131.47188 102.738434 131.05 103.06656Q130.64375 103.37906 130.64375 103.800934Q130.64375 104.082184 130.81563 104.300934Q130.9875 104.519684 131.34688 104.675934Q131.56563 104.75406 132.59688 105.03531Q134.08125 105.425934 134.675 105.69156Q135.26875 105.94156 135.59688 106.425934Q135.94063 106.91031 135.94063 107.62906Q135.94063 108.332184 135.51875 108.957184Q135.1125 109.56656 134.33125 109.91031Q133.56563 110.25406 132.59688 110.25406Q130.97188 110.25406 130.12813 109.582184Q129.28438 108.91031 129.05 107.582184Z" fill-rule="nonzero"/><path fill="#9e9e9e" d="M26.6125 130.70718L26.6125 132.06656L19.034374 132.06656Q19.01875 131.55093 19.20625 131.08218Q19.4875 130.31656 20.128124 129.56656Q20.76875 128.81656 21.971874 127.832184Q23.83125 126.300934 24.4875 125.41031Q25.14375 124.50406 25.14375 123.707184Q25.14375 122.87906 24.55 122.300934Q23.95625 121.72281 22.9875 121.72281Q21.971874 121.72281 21.3625 122.332184Q20.753124 122.94156 20.753124 124.019684L19.3 123.87906Q19.45625 122.25406 20.425 121.41031Q21.39375 120.56656 23.01875 120.56656Q24.675 120.56656 25.628124 121.488434Q26.596874 122.394684 26.596874 123.738434Q26.596874 124.425934 26.315624 125.09781Q26.034374 125.75406 25.378124 126.488434Q24.721874 127.22281 23.20625 128.50406Q21.940624 129.56656 21.58125 129.95718Q21.221874 130.33218 20.9875 130.70718L26.6125 130.70718ZM30.378124 125.84781Q29.503124 125.53531 29.08125 124.94156Q28.659374 124.34781 28.659374 123.519684Q28.659374 122.269684 29.55 121.425934Q30.45625 120.56656 31.95625 120.56656Q33.45625 120.56656 34.3625 121.44156Q35.284374 122.300934 35.284374 123.550934Q35.284374 124.34781 34.8625 124.94156Q34.440624 125.53531 33.596874 125.84781Q34.64375 126.19156 35.190624 126.957184Q35.753124 127.72281 35.753124 128.78531Q35.753124 130.25406 34.70625 131.26968Q33.675 132.26968 31.971874 132.26968Q30.284374 132.26968 29.2375 131.26968Q28.20625 130.25406 28.20625 128.75406Q28.20625 127.62906 28.76875 126.87906Q29.33125 126.12906 30.378124 125.84781ZM30.096874 123.47281Q30.096874 124.28531 30.6125 124.800934Q31.14375 125.31656 31.9875 125.31656Q32.8 125.31656 33.315624 124.800934Q33.83125 124.28531 33.83125 123.550934Q33.83125 122.769684 33.3 122.25406Q32.76875 121.72281 31.971874 121.72281Q31.159374 121.72281 30.628124 122.238434Q30.096874 122.75406 30.096874 123.47281ZM29.64375 128.75406Q29.64375 129.36343 29.925 129.92593Q30.221874 130.48843 30.784374 130.80093Q31.346874 131.09781 31.9875 131.09781Q33.003124 131.09781 33.659374 130.45718Q34.315624 129.80093 34.315624 128.80093Q34.315624 127.78531 33.628124 127.12906Q32.95625 126.457184 31.940624 126.457184Q30.95625 126.457184 30.3 127.113434Q29.64375 127.769684 29.64375 128.75406ZM38.003124 132.06656L38.003124 130.45718L39.6125 130.45718L39.6125 132.06656L38.003124 132.06656ZM48.51875 123.41031L47.1125 123.519684Q46.925 122.69156 46.58125 122.31656Q46.01875 121.72281 45.175 121.72281Q44.503124 121.72281 44.003124 122.09781Q43.33125 122.582184 42.940624 123.519684Q42.565624 124.44156 42.55 126.16031Q43.065624 125.37906 43.8 125.00406Q44.534374 124.62906 45.33125 124.62906Q46.7375 124.62906 47.721874 125.675934Q48.721874 126.707184 48.721874 128.34781Q48.721874 129.42593 48.253124 130.34781Q47.784374 131.26968 46.971874 131.76968Q46.159374 132.26968 45.128124 132.26968Q43.378124 132.26968 42.26875 130.97281Q41.159374 129.67593 41.159374 126.707184Q41.159374 123.37906 42.378124 121.87906Q43.45625 120.56656 45.26875 120.56656Q46.6125 120.56656 47.471874 121.332184Q48.346874 122.082184 48.51875 123.41031ZM42.76875 128.34781Q42.76875 129.08218 43.08125 129.75406Q43.39375 130.41031 43.940624 130.75406Q44.503124 131.09781 45.1125 131.09781Q46.003124 131.09781 46.64375 130.37906Q47.284374 129.66031 47.284374 128.42593Q47.284374 127.238434 46.64375 126.56656Q46.01875 125.87906 45.05 125.87906Q44.096874 125.87906 43.425 126.56656Q42.76875 127.238434 42.76875 128.34781ZM50.4875 123.363434Q50.4875 122.12906 51.096874 121.269684Q51.721874 120.41031 52.89375 120.41031Q53.971874 120.41031 54.675 121.19156Q55.378124 121.957184 55.378124 123.44156Q55.378124 124.894684 54.659374 125.69156Q53.95625 126.47281 52.909374 126.47281Q51.8625 126.47281 51.175 125.707184Q50.4875 124.925934 50.4875 123.363434ZM52.925 121.37906Q52.409374 121.37906 52.05 121.832184Q51.70625 122.28531 51.70625 123.50406Q51.70625 124.59781 52.05 125.050934Q52.409374 125.50406 52.925 125.50406Q53.45625 125.50406 53.8 125.050934Q54.159374 124.59781 54.159374 123.394684Q54.159374 122.28531 53.8 121.832184Q53.45625 121.37906 52.925 121.37906ZM52.940624 132.48843L59.20625 120.41031L60.346874 120.41031L54.096874 132.48843L52.940624 132.48843ZM57.89375 129.37906Q57.89375 128.14468 58.503124 127.28531Q59.128124 126.425934 60.3 126.425934Q61.378124 126.425934 62.08125 127.207184Q62.8 127.97281 62.8 129.45718Q62.8 130.91031 62.08125 131.70718Q61.3625 132.48843 60.315624 132.48843Q59.26875 132.48843 58.58125 131.70718Q57.89375 130.92593 57.89375 129.37906ZM60.346874 127.394684Q59.815624 127.394684 59.45625 127.84781Q59.1125 128.30093 59.1125 129.51968Q59.1125 130.61343 59.45625 131.06656Q59.815624 131.51968 60.33125 131.51968Q60.878124 131.51968 61.221874 131.06656Q61.565624 130.61343 61.565624 129.41031Q61.565624 128.30093 61.20625 127.84781Q60.8625 127.394684 60.346874 127.394684Z" fill-rule="nonzero"/><path stroke="#757575" stroke-width="1.0" stroke-linecap="butt" d="M18.55 115.56656L145.23334 115.56656L189.50507 115.56656" fill-rule="nonzero"/><path fill="#9e9e9e" d="M191.50507 115.56656C191.50507 114.46199 190.60963 113.56656 189.50507 113.56656C188.4005 113.56656 187.50507 114.46199 187.50507 115.56656C187.50507 116.67113 188.4005 117.56656 189.50507 117.56656C190.60963 117.56656 191.50507 116.67113 191.50507 115.56656" fill-rule="nonzero"/><path fill="#efefef" d="M19.76875 325.51575L19.76875 314.06262L21.33125 314.06262L27.346874 323.047L27.346874 314.06262L28.8 314.06262L28.8 325.51575L27.2375 325.51575L21.221874 316.51575L21.221874 325.51575L19.76875 325.51575ZM37.01875 324.4845Q36.2375 325.15637 35.51875 325.43762Q34.8 325.70325 33.971874 325.70325Q32.596874 325.70325 31.8625 325.03137Q31.128124 324.3595 31.128124 323.32825Q31.128124 322.71887 31.409374 322.21887Q31.690624 321.70325 32.128124 321.40637Q32.58125 321.09387 33.14375 320.93762Q33.565624 320.82825 34.39375 320.7345Q36.096874 320.53137 36.909374 320.25012Q36.909374 319.95325 36.909374 319.87512Q36.909374 319.01575 36.51875 318.672Q35.971874 318.18762 34.909374 318.18762Q33.925 318.18762 33.440624 318.547Q32.971874 318.89075 32.753124 319.76575L31.378124 319.57825Q31.565624 318.70325 31.9875 318.15637Q32.425 317.6095 33.2375 317.32825Q34.05 317.03137 35.1125 317.03137Q36.175 317.03137 36.83125 317.28137Q37.503124 317.53137 37.815624 317.90637Q38.128124 318.28137 38.253124 318.8595Q38.33125 319.21887 38.33125 320.15637L38.33125 322.03137Q38.33125 324.00012 38.409374 324.51575Q38.503124 325.03137 38.76875 325.51575L37.3 325.51575Q37.08125 325.07825 37.01875 324.4845ZM36.909374 321.34387Q36.14375 321.65637 34.6125 321.87512Q33.7375 322.00012 33.378124 322.15637Q33.01875 322.31262 32.815624 322.62512Q32.628124 322.922 32.628124 323.28137Q32.628124 323.84387 33.05 324.21887Q33.4875 324.59387 34.3 324.59387Q35.1125 324.59387 35.7375 324.25012Q36.378124 323.89075 36.675 323.26575Q36.909374 322.797 36.909374 321.8595L36.909374 321.34387ZM43.675 324.25012L43.878124 325.50012Q43.284374 325.62512 42.815624 325.62512Q42.05 325.62512 41.628124 325.39075Q41.20625 325.14075 41.034374 324.75012Q40.8625 324.34387 40.8625 323.07825L40.8625 318.31262L39.83125 318.31262L39.83125 317.21887L40.8625 317.21887L40.8625 315.15637L42.26875 314.31262L42.26875 317.21887L43.675 317.21887L43.675 318.31262L42.26875 318.31262L42.26875 323.15637Q42.26875 323.76575 42.33125 323.93762Q42.409374 324.1095 42.58125 324.21887Q42.753124 324.31262 43.065624 324.31262Q43.3 324.31262 43.675 324.25012ZM50.05 325.51575L50.05 324.297Q49.08125 325.70325 47.409374 325.70325Q46.675 325.70325 46.034374 325.422Q45.409374 325.14075 45.096874 324.71887Q44.784374 324.28137 44.659374 323.672Q44.58125 323.25012 44.58125 322.3595L44.58125 317.21887L45.9875 317.21887L45.9875 321.81262Q45.9875 322.922 46.065624 323.297Q46.20625 323.8595 46.628124 324.172Q47.065624 324.4845 47.690624 324.4845Q48.33125 324.4845 48.878124 324.172Q49.440624 323.84387 49.659374 323.28137Q49.89375 322.71887 49.89375 321.65637L49.89375 317.21887L51.3 317.21887L51.3 325.51575L50.05 325.51575ZM53.596874 325.51575L53.596874 317.21887L54.8625 317.21887L54.8625 318.46887Q55.346874 317.59387 55.753124 317.31262Q56.159374 317.03137 56.659374 317.03137Q57.3625 317.03137 58.096874 317.4845L57.6125 318.78137Q57.096874 318.4845 56.58125 318.4845Q56.128124 318.4845 55.753124 318.76575Q55.39375 319.03137 55.2375 319.53137Q55.003124 320.28137 55.003124 321.172L55.003124 325.51575L53.596874 325.51575ZM64.01875 324.4845Q63.2375 325.15637 62.51875 325.43762Q61.8 325.70325 60.971874 325.70325Q59.596874 325.70325 58.8625 325.03137Q58.128124 324.3595 58.128124 323.32825Q58.128124 322.71887 58.409374 322.21887Q58.690624 321.70325 59.128124 321.40637Q59.58125 321.09387 60.14375 320.93762Q60.565624 320.82825 61.39375 320.7345Q63.096874 320.53137 63.909374 320.25012Q63.909374 319.95325 63.909374 319.87512Q63.909374 319.01575 63.51875 318.672Q62.971874 318.18762 61.909374 318.18762Q60.925 318.18762 60.440624 318.547Q59.971874 318.89075 59.753124 319.76575L58.378124 319.57825Q58.565624 318.70325 58.9875 318.15637Q59.425 317.6095 60.2375 317.32825Q61.05 317.03137 62.1125 317.03137Q63.175 317.03137 63.83125 317.28137Q64.50313 317.53137 64.81563 317.90637Q65.12813 318.28137 65.25313 318.8595Q65.33125 319.21887 65.33125 320.15637L65.33125 322.03137Q65.33125 324.00012 65.40938 324.51575Q65.50313 325.03137 65.76875 325.51575L64.3 325.51575Q64.08125 325.07825 64.01875 324.4845ZM63.909374 321.34387Q63.14375 321.65637 61.6125 321.87512Q60.7375 322.00012 60.378124 322.15637Q60.01875 322.31262 59.815624 322.62512Q59.628124 322.922 59.628124 323.28137Q59.628124 323.84387 60.05 324.21887Q60.4875 324.59387 61.3 324.59387Q62.1125 324.59387 62.7375 324.25012Q63.378124 323.89075 63.675 323.26575Q63.909374 322.797 63.909374 321.8595L63.909374 321.34387ZM67.58125 325.51575L67.58125 314.06262L68.9875 314.06262L68.9875 325.51575L67.58125 325.51575Z" fill-rule="nonzero"/><path fill="#9e9e9e" d="M26.6125 346.15637L26.6125 347.51575L19.034374 347.51575Q19.01875 347.00012 19.20625 346.53137Q19.4875 345.76575 20.128124 345.01575Q20.76875 344.26575 21.971874 343.28137Q23.83125 341.75012 24.4875 340.8595Q25.14375 339.95325 25.14375 339.15637Q25.14375 338.32825 24.55 337.75012Q23.95625 337.172 22.9875 337.172Q21.971874 337.172 21.3625 337.78137Q20.753124 338.39075 20.753124 339.46887L19.3 339.32825Q19.45625 337.70325 20.425 336.8595Q21.39375 336.01575 23.01875 336.01575Q24.675 336.01575 25.628124 336.93762Q26.596874 337.84387 26.596874 339.18762Q26.596874 339.87512 26.315624 340.547Q26.034374 341.20325 25.378124 341.93762Q24.721874 342.672 23.20625 343.95325Q21.940624 345.01575 21.58125 345.40637Q21.221874 345.78137 20.9875 346.15637L26.6125 346.15637ZM30.378124 341.297Q29.503124 340.9845 29.08125 340.39075Q28.659374 339.797 28.659374 338.96887Q28.659374 337.71887 29.55 336.87512Q30.45625 336.01575 31.95625 336.01575Q33.45625 336.01575 34.3625 336.89075Q35.284374 337.75012 35.284374 339.00012Q35.284374 339.797 34.8625 340.39075Q34.440624 340.9845 33.596874 341.297Q34.64375 341.64075 35.190624 342.40637Q35.753124 343.172 35.753124 344.2345Q35.753124 345.70325 34.70625 346.71887Q33.675 347.71887 31.971874 347.71887Q30.284374 347.71887 29.2375 346.71887Q28.20625 345.70325 28.20625 344.20325Q28.20625 343.07825 28.76875 342.32825Q29.33125 341.57825 30.378124 341.297ZM30.096874 338.922Q30.096874 339.7345 30.6125 340.25012Q31.14375 340.76575 31.9875 340.76575Q32.8 340.76575 33.315624 340.25012Q33.83125 339.7345 33.83125 339.00012Q33.83125 338.21887 33.3 337.70325Q32.76875 337.172 31.971874 337.172Q31.159374 337.172 30.628124 337.68762Q30.096874 338.20325 30.096874 338.922ZM29.64375 344.20325Q29.64375 344.81262 29.925 345.37512Q30.221874 345.93762 30.784374 346.25012Q31.346874 346.547 31.9875 346.547Q33.003124 346.547 33.659374 345.90637Q34.315624 345.25012 34.315624 344.25012Q34.315624 343.2345 33.628124 342.57825Q32.95625 341.90637 31.940624 341.90637Q30.95625 341.90637 30.3 342.56262Q29.64375 343.21887 29.64375 344.20325ZM38.003124 347.51575L38.003124 345.90637L39.6125 345.90637L39.6125 347.51575L38.003124 347.51575ZM48.51875 338.8595L47.1125 338.96887Q46.925 338.14075 46.58125 337.76575Q46.01875 337.172 45.175 337.172Q44.503124 337.172 44.003124 337.547Q43.33125 338.03137 42.940624 338.96887Q42.565624 339.89075 42.55 341.6095Q43.065624 340.82825 43.8 340.45325Q44.534374 340.07825 45.33125 340.07825Q46.7375 340.07825 47.721874 341.12512Q48.721874 342.15637 48.721874 343.797Q48.721874 344.87512 48.253124 345.797Q47.784374 346.71887 46.971874 347.21887Q46.159374 347.71887 45.128124 347.71887Q43.378124 347.71887 42.26875 346.422Q41.159374 345.12512 41.159374 342.15637Q41.159374 338.82825 42.378124 337.32825Q43.45625 336.01575 45.26875 336.01575Q46.6125 336.01575 47.471874 336.78137Q48.346874 337.53137 48.51875 338.8595ZM42.76875 343.797Q42.76875 344.53137 43.08125 345.20325Q43.39375 345.8595 43.940624 346.20325Q44.503124 346.547 45.1125 346.547Q46.003124 346.547 46.64375 345.82825Q47.284374 345.1095 47.284374 343.87512Q47.284374 342.68762 46.64375 342.01575Q46.01875 341.32825 45.05 341.32825Q44.096874 341.32825 43.425 342.01575Q42.76875 342.68762 42.76875 343.797ZM50.4875 338.81262Q50.4875 337.57825 51.096874 336.71887Q51.721874 335.8595 52.89375 335.8595Q53.971874 335.8595 54.675 336.64075Q55.378124 337.40637 55.378124 338.89075Q55.378124 340.34387 54.659374 341.14075Q53.95625 341.922 52.909374 341.922Q51.8625 341.922 51.175 341.15637Q50.4875 340.37512 50.4875 338.81262ZM52.925 336.82825Q52.409374 336.82825 52.05 337.28137Q51.70625 337.7345 51.70625 338.95325Q51.70625 340.047 52.05 340.50012Q52.409374 340.95325 52.925 340.95325Q53.45625 340.95325 53.8 340.50012Q54.159374 340.047 54.159374 338.84387Q54.159374 337.7345 53.8 337.28137Q53.45625 336.82825 52.925 336.82825ZM52.940624 347.93762L59.20625 335.8595L60.346874 335.8595L54.096874 347.93762L52.940624 347.93762ZM57.89375 344.82825Q57.89375 343.59387 58.503124 342.7345Q59.128124 341.87512 60.3 341.87512Q61.378124 341.87512 62.08125 342.65637Q62.8 343.422 62.8 344.90637Q62.8 346.3595 62.08125 347.15637Q61.3625 347.93762 60.315624 347.93762Q59.26875 347.93762 58.58125 347.15637Q57.89375 346.37512 57.89375 344.82825ZM60.346874 342.84387Q59.815624 342.84387 59.45625 343.297Q59.1125 343.75012 59.1125 344.96887Q59.1125 346.06262 59.45625 346.51575Q59.815624 346.96887 60.33125 346.96887Q60.878124 346.96887 61.221874 346.51575Q61.565624 346.06262 61.565624 344.8595Q61.565624 343.75012 61.20625 343.297Q60.8625 342.84387 60.346874 342.84387Z" fill-rule="nonzero"/><path stroke="#757575" stroke-width="1.0" stroke-linecap="butt" d="M18.55 331.01575L145.23334 331.01575L238.67993 331.01575" fill-rule="nonzero"/><path fill="#9e9e9e" d="M240.67993 331.01575C240.67993 329.9112 239.7845 329.01575 238.67993 329.01575C237.57536 329.01575 236.67993 329.9112 236.67993 331.01575C236.67993 332.12033 237.57536 333.01575 238.67993 333.01575C239.7845 333.01575 240.67993 332.12033 240.67993 331.01575" fill-rule="nonzero"/><path fill="#efefef" d="M531.6375 70.85091L531.6375 59.39778L533.91876 59.39778L536.6375 67.50716Q537.0125 68.63216 537.1844 69.19466Q537.3719 68.56966 537.79376 67.36653L540.52814 59.39778L542.575 59.39778L542.575 70.85091L541.10626 70.85091L541.10626 61.257156L537.77814 70.85091L536.41876 70.85091L533.10626 61.100906L533.10626 70.85091L531.6375 70.85091ZM544.5125 61.007156L544.5125 59.39778L545.91876 59.39778L545.91876 61.007156L544.5125 61.007156ZM544.5125 70.85091L544.5125 62.55403L545.91876 62.55403L545.91876 70.85091L544.5125 70.85091ZM548.48126 70.85091L548.48126 59.39778L549.8875 59.39778L549.8875 70.85091L548.48126 70.85091ZM552.5125 61.007156L552.5125 59.39778L553.91876 59.39778L553.91876 61.007156L552.5125 61.007156ZM552.5125 70.85091L552.5125 62.55403L553.91876 62.55403L553.91876 70.85091L552.5125 70.85091ZM559.575 69.58528L559.77814 70.83528Q559.1844 70.96028 558.71564 70.96028Q557.95 70.96028 557.52814 70.72591Q557.10626 70.47591 556.9344 70.08528Q556.7625 69.67903 556.7625 68.41341L556.7625 63.64778L555.73126 63.64778L555.73126 62.55403L556.7625 62.55403L556.7625 60.49153L558.16876 59.64778L558.16876 62.55403L559.575 62.55403L559.575 63.64778L558.16876 63.64778L558.16876 68.49153Q558.16876 69.10091 558.23126 69.27278Q558.3094 69.44466 558.48126 69.55403Q558.65314 69.64778 558.96564 69.64778Q559.2 69.64778 559.575 69.58528ZM565.91876 69.81966Q565.1375 70.49153 564.41876 70.77278Q563.7 71.03841 562.8719 71.03841Q561.4969 71.03841 560.7625 70.36653Q560.02814 69.69466 560.02814 68.66341Q560.02814 68.05403 560.3094 67.55403Q560.59064 67.03841 561.02814 66.74153Q561.48126 66.42903 562.04376 66.27278Q562.46564 66.16341 563.29376 66.06966Q564.9969 65.86653 565.8094 65.58528Q565.8094 65.28841 565.8094 65.21028Q565.8094 64.35091 565.41876 64.00716Q564.8719 63.52278 563.8094 63.52278Q562.825 63.52278 562.34064 63.882156Q561.8719 64.22591 561.65314 65.10091L560.27814 64.91341Q560.46564 64.03841 560.8875 63.49153Q561.325 62.944656 562.1375 62.663406Q562.95 62.36653 564.0125 62.36653Q565.075 62.36653 565.73126 62.61653Q566.40314 62.86653 566.71564 63.24153Q567.02814 63.61653 567.15314 64.19466Q567.23126 64.55403 567.23126 65.49153L567.23126 67.36653Q567.23126 69.33528 567.3094 69.85091Q567.40314 70.36653 567.66876 70.85091L566.2 70.85091Q565.98126 70.41341 565.91876 69.81966ZM565.8094 66.67903Q565.04376 66.99153 563.5125 67.21028Q562.6375 67.33528 562.27814 67.49153Q561.91876 67.64778 561.71564 67.96028Q561.52814 68.25716 561.52814 68.61653Q561.52814 69.17903 561.95 69.55403Q562.3875 69.92903 563.2 69.92903Q564.0125 69.92903 564.6375 69.58528Q565.27814 69.22591 565.575 68.60091Q565.8094 68.13216 565.8094 67.19466L565.8094 66.67903ZM569.4969 70.85091L569.4969 62.55403L570.7625 62.55403L570.7625 63.80403Q571.2469 62.92903 571.65314 62.64778Q572.0594 62.36653 572.5594 62.36653Q573.2625 62.36653 573.9969 62.819656L573.5125 64.11653Q572.9969 63.819656 572.48126 63.819656Q572.02814 63.819656 571.65314 64.10091Q571.29376 64.36653 571.1375 64.86653Q570.90314 65.61653 570.90314 66.50716L570.90314 70.85091L569.4969 70.85091ZM574.45 74.05403L574.29376 72.72591Q574.7469 72.85091 575.09064 72.85091Q575.5594 72.85091 575.84064 72.69466Q576.1219 72.53841 576.3094 72.25716Q576.4344 72.05403 576.73126 71.21028Q576.77814 71.10091 576.85626 70.86653L573.71564 62.55403L575.23126 62.55403L576.95 67.35091Q577.29376 68.27278 577.5594 69.27278Q577.79376 68.30403 578.1375 67.38216L579.90314 62.55403L581.3094 62.55403L578.15314 70.99153Q577.65314 72.36653 577.3719 72.88216Q576.9969 73.56966 576.5125 73.89778Q576.02814 74.22591 575.35626 74.22591Q574.95 74.22591 574.45 74.05403Z" fill-rule="nonzero"/><path fill="#9e9e9e" d="M542.41876 92.85091L541.0125 92.85091L541.0125 83.88216Q540.4969 84.36653 539.66876 84.85091Q538.85626 85.33528 538.2 85.58528L538.2 84.22591Q539.3719 83.66341 540.2469 82.88216Q541.1375 82.08528 541.5125 81.35091L542.41876 81.35091L542.41876 92.85091ZM550.6219 92.85091L550.6219 90.10091L545.65314 90.10091L545.65314 88.81966L550.8875 81.39778L552.02814 81.39778L552.02814 88.81966L553.575 88.81966L553.575 90.10091L552.02814 90.10091L552.02814 92.85091L550.6219 92.85091ZM550.6219 88.81966L550.6219 83.64778L547.04376 88.81966L550.6219 88.81966ZM555.90314 92.85091L555.90314 91.24153L557.5125 91.24153L557.5125 92.85091L555.90314 92.85091ZM559.1219 89.81966L560.52814 89.63216Q560.77814 90.83528 561.35626 91.36653Q561.9344 91.88216 562.77814 91.88216Q563.7625 91.88216 564.45 91.19466Q565.1375 90.50716 565.1375 89.49153Q565.1375 88.52278 564.4969 87.89778Q563.8719 87.27278 562.8875 87.27278Q562.4969 87.27278 561.90314 87.42903L562.0594 86.19466Q562.2 86.21028 562.27814 86.21028Q563.1844 86.21028 563.90314 85.74153Q564.6219 85.27278 564.6219 84.28841Q564.6219 83.52278 564.09064 83.02278Q563.575 82.50716 562.7469 82.50716Q561.91876 82.50716 561.3719 83.02278Q560.825 83.53841 560.66876 84.56966L559.2625 84.31966Q559.52814 82.89778 560.4344 82.13216Q561.35626 81.35091 562.71564 81.35091Q563.65314 81.35091 564.4344 81.75716Q565.23126 82.14778 565.6375 82.85091Q566.0594 83.53841 566.0594 84.31966Q566.0594 85.06966 565.65314 85.67903Q565.2625 86.28841 564.48126 86.64778Q565.4969 86.88216 566.0594 87.61653Q566.6219 88.35091 566.6219 89.46028Q566.6219 90.96028 565.52814 92.00716Q564.4344 93.05403 562.7625 93.05403Q561.2625 93.05403 560.2625 92.16341Q559.2625 91.25716 559.1219 89.81966ZM568.3875 84.14778Q568.3875 82.91341 568.9969 82.05403Q569.6219 81.19466 570.79376 81.19466Q571.8719 81.19466 572.575 81.97591Q573.27814 82.74153 573.27814 84.22591Q573.27814 85.67903 572.5594 86.47591Q571.85626 87.25716 570.8094 87.25716Q569.7625 87.25716 569.075 86.49153Q568.3875 85.71028 568.3875 84.14778ZM570.825 82.16341Q570.3094 82.16341 569.95 82.61653Q569.60626 83.06966 569.60626 84.28841Q569.60626 85.38216 569.95 85.83528Q570.3094 86.28841 570.825 86.28841Q571.35626 86.28841 571.7 85.83528Q572.0594 85.38216 572.0594 84.17903Q572.0594 83.06966 571.7 82.61653Q571.35626 82.16341 570.825 82.16341ZM570.84064 93.27278L577.10626 81.19466L578.2469 81.19466L571.9969 93.27278L570.84064 93.27278ZM575.79376 90.16341Q575.79376 88.92903 576.40314 88.06966Q577.02814 87.21028 578.2 87.21028Q579.27814 87.21028 579.98126 87.99153Q580.7 88.75716 580.7 90.24153Q580.7 91.69466 579.98126 92.49153Q579.2625 93.27278 578.21564 93.27278Q577.16876 93.27278 576.48126 92.49153Q575.79376 91.71028 575.79376 90.16341ZM578.2469 88.17903Q577.71564 88.17903 577.35626 88.63216Q577.0125 89.08528 577.0125 90.30403Q577.0125 91.39778 577.35626 91.85091Q577.71564 92.30403 578.23126 92.30403Q578.77814 92.30403 579.1219 91.85091Q579.46564 91.39778 579.46564 90.19466Q579.46564 89.08528 579.10626 88.63216Q578.7625 88.17903 578.2469 88.17903Z" fill-rule="nonzero"/><path stroke="#757575" stroke-width="1.0" stroke-linecap="butt" d="M581.45 76.35091L454.76666 76.35091L361.32007 76.35091" fill-rule="nonzero"/><path fill="#9e9e9e" d="M363.32007 76.35091C363.32007 75.24634 362.42462 74.35091 361.32007 74.35091C360.21548 74.35091 359.32007 75.24634 359.32007 76.35091C359.32007 77.455475 360.21548 78.35091 361.32007 78.35091C362.42462 78.35091 363.32007 77.455475 363.32007 76.35091" fill-rule="nonzero"/><path fill="#efefef" d="M481.41876 229.63185L485.825 218.17873L487.46564 218.17873L492.15314 229.63185L490.41876 229.63185L489.09064 226.1631L484.29376 226.1631L483.04376 229.63185L481.41876 229.63185ZM484.73126 224.92873L488.6219 224.92873L487.41876 221.75685Q486.8719 220.30373 486.60626 219.38185Q486.3875 220.4756 485.9969 221.56935L484.73126 224.92873ZM493.4969 229.63185L493.4969 221.33498L494.7625 221.33498L494.7625 222.58498Q495.2469 221.70998 495.65314 221.42873Q496.0594 221.14748 496.5594 221.14748Q497.2625 221.14748 497.9969 221.6006L497.5125 222.89748Q496.9969 222.6006 496.48126 222.6006Q496.02814 222.6006 495.65314 222.88185Q495.29376 223.14748 495.1375 223.64748Q494.90314 224.39748 494.90314 225.2881L494.90314 229.63185L493.4969 229.63185ZM503.91876 226.58498L505.3094 226.77248Q505.075 228.19435 504.1375 229.00685Q503.21564 229.81935 501.85626 229.81935Q500.15314 229.81935 499.10626 228.70998Q498.075 227.58498 498.075 225.50685Q498.075 224.1631 498.5125 223.1631Q498.96564 222.14748 499.8719 221.64748Q500.79376 221.14748 501.85626 221.14748Q503.21564 221.14748 504.075 221.83498Q504.9344 222.50685 505.16876 223.77248L503.8094 223.9756Q503.60626 223.14748 503.10626 222.7256Q502.6219 222.30373 501.91876 222.30373Q500.85626 222.30373 500.1844 223.06935Q499.52814 223.81935 499.52814 225.4756Q499.52814 227.14748 500.16876 227.9131Q500.8094 228.6631 501.84064 228.6631Q502.66876 228.6631 503.21564 228.1631Q503.77814 227.64748 503.91876 226.58498ZM506.5125 229.63185L506.5125 218.17873L507.91876 218.17873L507.91876 222.2881Q508.90314 221.14748 510.40314 221.14748Q511.325 221.14748 511.9969 221.50685Q512.6844 221.86623 512.96564 222.50685Q513.2625 223.14748 513.2625 224.36623L513.2625 229.63185L511.85626 229.63185L511.85626 224.36623Q511.85626 223.31935 511.40314 222.83498Q510.95 222.3506 510.10626 222.3506Q509.48126 222.3506 508.9344 222.67873Q508.3875 223.00685 508.15314 223.56935Q507.91876 224.11623 507.91876 225.08498L507.91876 229.63185L506.5125 229.63185ZM515.5125 219.7881L515.5125 218.17873L516.91876 218.17873L516.91876 219.7881L515.5125 219.7881ZM515.5125 229.63185L515.5125 221.33498L516.91876 221.33498L516.91876 229.63185L515.5125 229.63185ZM522.575 228.36623L522.77814 229.61623Q522.1844 229.74123 521.71564 229.74123Q520.95 229.74123 520.52814 229.50685Q520.10626 229.25685 519.9344 228.86623Q519.7625 228.45998 519.7625 227.19435L519.7625 222.42873L518.73126 222.42873L518.73126 221.33498L519.7625 221.33498L519.7625 219.27248L521.16876 218.42873L521.16876 221.33498L522.575 221.33498L522.575 222.42873L521.16876 222.42873L521.16876 227.27248Q521.16876 227.88185 521.23126 228.05373Q521.3094 228.2256 521.48126 228.33498Q521.65314 228.42873 521.96564 228.42873Q522.2 228.42873 522.575 228.36623ZM529.1844 226.95998L530.6375 227.13185Q530.29376 228.4131 529.35626 229.11623Q528.4344 229.81935 526.9969 229.81935Q525.16876 229.81935 524.10626 228.69435Q523.04376 227.56935 523.04376 225.55373Q523.04376 223.45998 524.1219 222.30373Q525.2 221.14748 526.91876 221.14748Q528.575 221.14748 529.6219 222.2881Q530.6844 223.4131 530.6844 225.45998Q530.6844 225.58498 530.6844 225.83498L524.4969 225.83498Q524.575 227.20998 525.2625 227.94435Q525.96564 228.6631 526.9969 228.6631Q527.77814 228.6631 528.325 228.25685Q528.8719 227.8506 529.1844 226.95998ZM524.575 224.67873L529.2 224.67873Q529.10626 223.63185 528.66876 223.11623Q527.9969 222.30373 526.9344 222.30373Q525.96564 222.30373 525.29376 222.95998Q524.6375 223.6006 524.575 224.67873ZM537.91876 226.58498L539.3094 226.77248Q539.075 228.19435 538.1375 229.00685Q537.21564 229.81935 535.85626 229.81935Q534.15314 229.81935 533.10626 228.70998Q532.075 227.58498 532.075 225.50685Q532.075 224.1631 532.5125 223.1631Q532.96564 222.14748 533.8719 221.64748Q534.79376 221.14748 535.85626 221.14748Q537.21564 221.14748 538.075 221.83498Q538.9344 222.50685 539.16876 223.77248L537.8094 223.9756Q537.60626 223.14748 537.10626 222.7256Q536.6219 222.30373 535.91876 222.30373Q534.85626 222.30373 534.1844 223.06935Q533.52814 223.81935 533.52814 225.4756Q533.52814 227.14748 534.16876 227.9131Q534.8094 228.6631 535.84064 228.6631Q536.66876 228.6631 537.21564 228.1631Q537.77814 227.64748 537.91876 226.58498ZM543.575 228.36623L543.77814 229.61623Q543.1844 229.74123 542.71564 229.74123Q541.95 229.74123 541.52814 229.50685Q541.10626 229.25685 540.9344 228.86623Q540.7625 228.45998 540.7625 227.19435L540.7625 222.42873L539.73126 222.42873L539.73126 221.33498L540.7625 221.33498L540.7625 219.27248L542.16876 218.42873L542.16876 221.33498L543.575 221.33498L543.575 222.42873L542.16876 222.42873L542.16876 227.27248Q542.16876 227.88185 542.23126 228.05373Q542.3094 228.2256 542.48126 228.33498Q542.65314 228.42873 542.96564 228.42873Q543.2 228.42873 543.575 228.36623ZM549.95 229.63185L549.95 228.4131Q548.98126 229.81935 547.3094 229.81935Q546.575 229.81935 545.9344 229.5381Q545.3094 229.25685 544.9969 228.83498Q544.6844 228.39748 544.5594 227.7881Q544.48126 227.36623 544.48126 226.4756L544.48126 221.33498L545.8875 221.33498L545.8875 225.92873Q545.8875 227.0381 545.96564 227.4131Q546.10626 227.9756 546.52814 228.2881Q546.96564 228.6006 547.59064 228.6006Q548.23126 228.6006 548.77814 228.2881Q549.34064 227.95998 549.5594 227.39748Q549.79376 226.83498 549.79376 225.77248L549.79376 221.33498L551.2 221.33498L551.2 229.63185L549.95 229.63185ZM553.4969 229.63185L553.4969 221.33498L554.7625 221.33498L554.7625 222.58498Q555.2469 221.70998 555.65314 221.42873Q556.0594 221.14748 556.5594 221.14748Q557.2625 221.14748 557.9969 221.6006L557.5125 222.89748Q556.9969 222.6006 556.48126 222.6006Q556.02814 222.6006 555.65314 222.88185Q555.29376 223.14748 555.1375 223.64748Q554.90314 224.39748 554.90314 225.2881L554.90314 229.63185L553.4969 229.63185ZM564.1844 226.95998L565.6375 227.13185Q565.29376 228.4131 564.35626 229.11623Q563.4344 229.81935 561.9969 229.81935Q560.16876 229.81935 559.10626 228.69435Q558.04376 227.56935 558.04376 225.55373Q558.04376 223.45998 559.1219 222.30373Q560.2 221.14748 561.91876 221.14748Q563.575 221.14748 564.6219 222.2881Q565.6844 223.4131 565.6844 225.45998Q565.6844 225.58498 565.6844 225.83498L559.4969 225.83498Q559.575 227.20998 560.2625 227.94435Q560.96564 228.6631 561.9969 228.6631Q562.77814 228.6631 563.325 228.25685Q563.8719 227.8506 564.1844 226.95998ZM559.575 224.67873L564.2 224.67873Q564.10626 223.63185 563.66876 223.11623Q562.9969 222.30373 561.9344 222.30373Q560.96564 222.30373 560.29376 222.95998Q559.6375 223.6006 559.575 224.67873ZM578.0594 228.27248Q577.35626 229.05373 576.52814 229.44435Q575.71564 229.83498 574.7625 229.83498Q573.0125 229.83498 571.98126 228.63185Q571.1375 227.6631 571.1375 226.4756Q571.1375 225.4131 571.825 224.55373Q572.5125 223.69435 573.8719 223.05373Q573.09064 222.1631 572.825 221.61623Q572.575 221.05373 572.575 220.5381Q572.575 219.50685 573.3875 218.74123Q574.2 217.9756 575.41876 217.9756Q576.59064 217.9756 577.34064 218.69435Q578.09064 219.4131 578.09064 220.42873Q578.09064 222.05373 575.91876 223.20998L577.98126 225.83498Q578.325 225.14748 578.52814 224.24123L579.98126 224.55373Q579.60626 226.05373 578.96564 227.02248Q579.7625 228.06935 580.7625 228.77248L579.8094 229.89748Q578.96564 229.3506 578.0594 228.27248ZM575.2 222.30373Q576.10626 221.77248 576.3719 221.36623Q576.65314 220.95998 576.65314 220.45998Q576.65314 219.88185 576.27814 219.50685Q575.90314 219.13185 575.35626 219.13185Q574.77814 219.13185 574.40314 219.50685Q574.02814 219.86623 574.02814 220.39748Q574.02814 220.6631 574.15314 220.95998Q574.29376 221.25685 574.575 221.58498L575.2 222.30373ZM577.16876 227.1631L574.59064 223.9756Q573.45 224.64748 573.04376 225.24123Q572.65314 225.81935 572.65314 226.38185Q572.65314 227.08498 573.2 227.83498Q573.7625 228.58498 574.77814 228.58498Q575.41876 228.58498 576.09064 228.19435Q576.7625 227.7881 577.16876 227.1631Z" fill-rule="nonzero"/><path fill="#9e9e9e" d="M544.5125 250.27248L544.5125 251.63185L536.9344 251.63185Q536.91876 251.11623 537.10626 250.64748Q537.3875 249.88185 538.02814 249.13185Q538.66876 248.38185 539.8719 247.39748Q541.73126 245.86623 542.3875 244.9756Q543.04376 244.06935 543.04376 243.27248Q543.04376 242.44435 542.45 241.86623Q541.85626 241.2881 540.8875 241.2881Q539.8719 241.2881 539.2625 241.89748Q538.65314 242.50685 538.65314 243.58498L537.2 243.44435Q537.35626 241.81935 538.325 240.9756Q539.29376 240.13185 540.91876 240.13185Q542.575 240.13185 543.52814 241.05373Q544.4969 241.95998 544.4969 243.30373Q544.4969 243.99123 544.21564 244.6631Q543.9344 245.31935 543.27814 246.05373Q542.6219 246.7881 541.10626 248.06935Q539.84064 249.13185 539.48126 249.52248Q539.1219 249.89748 538.8875 250.27248L544.5125 250.27248ZM548.27814 245.4131Q547.40314 245.1006 546.98126 244.50685Q546.5594 243.9131 546.5594 243.08498Q546.5594 241.83498 547.45 240.99123Q548.35626 240.13185 549.85626 240.13185Q551.35626 240.13185 552.2625 241.00685Q553.1844 241.86623 553.1844 243.11623Q553.1844 243.9131 552.7625 244.50685Q552.34064 245.1006 551.4969 245.4131Q552.54376 245.75685 553.09064 246.52248Q553.65314 247.2881 553.65314 248.3506Q553.65314 249.81935 552.60626 250.83498Q551.575 251.83498 549.8719 251.83498Q548.1844 251.83498 547.1375 250.83498Q546.10626 249.81935 546.10626 248.31935Q546.10626 247.19435 546.66876 246.44435Q547.23126 245.69435 548.27814 245.4131ZM547.9969 243.0381Q547.9969 243.8506 548.5125 244.36623Q549.04376 244.88185 549.8875 244.88185Q550.7 244.88185 551.21564 244.36623Q551.73126 243.8506 551.73126 243.11623Q551.73126 242.33498 551.2 241.81935Q550.66876 241.2881 549.8719 241.2881Q549.0594 241.2881 548.52814 241.80373Q547.9969 242.31935 547.9969 243.0381ZM547.54376 248.31935Q547.54376 248.92873 547.825 249.49123Q548.1219 250.05373 548.6844 250.36623Q549.2469 250.6631 549.8875 250.6631Q550.90314 250.6631 551.5594 250.02248Q552.21564 249.36623 552.21564 248.36623Q552.21564 247.3506 551.52814 246.69435Q550.85626 246.02248 549.84064 246.02248Q548.85626 246.02248 548.2 246.67873Q547.54376 247.33498 547.54376 248.31935ZM555.90314 251.63185L555.90314 250.02248L557.5125 250.02248L557.5125 251.63185L555.90314 251.63185ZM566.41876 242.9756L565.0125 243.08498Q564.825 242.25685 564.48126 241.88185Q563.91876 241.2881 563.075 241.2881Q562.40314 241.2881 561.90314 241.6631Q561.23126 242.14748 560.84064 243.08498Q560.46564 244.00685 560.45 245.7256Q560.96564 244.94435 561.7 244.56935Q562.4344 244.19435 563.23126 244.19435Q564.6375 244.19435 565.6219 245.24123Q566.6219 246.27248 566.6219 247.9131Q566.6219 248.99123 566.15314 249.9131Q565.6844 250.83498 564.8719 251.33498Q564.0594 251.83498 563.02814 251.83498Q561.27814 251.83498 560.16876 250.5381Q559.0594 249.24123 559.0594 246.27248Q559.0594 242.94435 560.27814 241.44435Q561.35626 240.13185 563.16876 240.13185Q564.5125 240.13185 565.3719 240.89748Q566.2469 241.64748 566.41876 242.9756ZM560.66876 247.9131Q560.66876 248.64748 560.98126 249.31935Q561.29376 249.9756 561.84064 250.31935Q562.40314 250.6631 563.0125 250.6631Q563.90314 250.6631 564.54376 249.94435Q565.1844 249.2256 565.1844 247.99123Q565.1844 246.80373 564.54376 246.13185Q563.91876 245.44435 562.95 245.44435Q561.9969 245.44435 561.325 246.13185Q560.66876 246.80373 560.66876 247.9131ZM568.3875 242.92873Q568.3875 241.69435 568.9969 240.83498Q569.6219 239.9756 570.79376 239.9756Q571.8719 239.9756 572.575 240.75685Q573.27814 241.52248 573.27814 243.00685Q573.27814 244.45998 572.5594 245.25685Q571.85626 246.0381 570.8094 246.0381Q569.7625 246.0381 569.075 245.27248Q568.3875 244.49123 568.3875 242.92873ZM570.825 240.94435Q570.3094 240.94435 569.95 241.39748Q569.60626 241.8506 569.60626 243.06935Q569.60626 244.1631 569.95 244.61623Q570.3094 245.06935 570.825 245.06935Q571.35626 245.06935 571.7 244.61623Q572.0594 244.1631 572.0594 242.95998Q572.0594 241.8506 571.7 241.39748Q571.35626 240.94435 570.825 240.94435ZM570.84064 252.05373L577.10626 239.9756L578.2469 239.9756L571.9969 252.05373L570.84064 252.05373ZM575.79376 248.94435Q575.79376 247.70998 576.40314 246.8506Q577.02814 245.99123 578.2 245.99123Q579.27814 245.99123 579.98126 246.77248Q580.7 247.5381 580.7 249.02248Q580.7 250.4756 579.98126 251.27248Q579.2625 252.05373 578.21564 252.05373Q577.16876 252.05373 576.48126 251.27248Q575.79376 250.49123 575.79376 248.94435ZM578.2469 246.95998Q577.71564 246.95998 577.35626 247.4131Q577.0125 247.86623 577.0125 249.08498Q577.0125 250.17873 577.35626 250.63185Q577.71564 251.08498 578.23126 251.08498Q578.77814 251.08498 579.1219 250.63185Q579.46564 250.17873 579.46564 248.9756Q579.46564 247.86623 579.10626 247.4131Q578.7625 246.95998 578.2469 246.95998Z" fill-rule="nonzero"/><path stroke="#757575" stroke-width="1.0" stroke-linecap="butt" d="M581.45 235.13185L454.76666 235.13185L437.78494 235.13185" fill-rule="nonzero"/><path fill="#9e9e9e" d="M439.78494 235.13185C439.78494 234.02728 438.8895 233.13185 437.78494 233.13185C436.68036 233.13185 435.78494 234.02728 435.78494 235.13185C435.78494 236.23642 436.68036 237.13185 437.78494 237.13185C438.8895 237.13185 439.78494 236.23642 439.78494 235.13185" fill-rule="nonzero"/><path fill="#f3f3f3" d="M271.26562 32.534374L273.15625 33.003124Q272.5625 35.346874 271.01562 36.58125Q269.46875 37.8 267.21875 37.8Q264.90625 37.8 263.45312 36.8625Q262.01562 35.909374 261.25 34.128124Q260.5 32.33125 260.5 30.284374Q260.5 28.05 261.34375 26.39375Q262.20312 24.721874 263.78125 23.8625Q265.35938 22.9875 267.25 22.9875Q269.40625 22.9875 270.85938 24.08125Q272.32812 25.175 272.90625 27.159374L271.04688 27.596874Q270.54688 26.034374 269.59375 25.33125Q268.65625 24.6125 267.21875 24.6125Q265.5625 24.6125 264.45312 25.409374Q263.34375 26.190624 262.89062 27.534374Q262.45312 28.8625 262.45312 30.26875Q262.45312 32.096874 262.98438 33.471874Q263.51562 34.83125 264.64062 35.503124Q265.76562 36.175 267.0625 36.175Q268.65625 36.175 269.76562 35.253124Q270.875 34.33125 271.26562 32.534374ZM281.59375 36.26875Q280.60938 37.096874 279.70312 37.440624Q278.79688 37.784374 277.76562 37.784374Q276.0625 37.784374 275.14062 36.95625Q274.21875 36.1125 274.21875 34.815624Q274.21875 34.05 274.5625 33.425Q274.92188 32.8 275.48438 32.425Q276.04688 32.034374 276.75 31.83125Q277.26562 31.70625 278.3125 31.565624Q280.4375 31.315624 281.4375 30.971874Q281.45312 30.6125 281.45312 30.503124Q281.45312 29.440624 280.95312 28.9875Q280.28125 28.39375 278.95312 28.39375Q277.70312 28.39375 277.10938 28.83125Q276.53125 29.26875 276.25 30.378124L274.53125 30.14375Q274.76562 29.034374 275.29688 28.3625Q275.82812 27.675 276.84375 27.315624Q277.85938 26.940624 279.20312 26.940624Q280.53125 26.940624 281.35938 27.253124Q282.1875 27.565624 282.57812 28.05Q282.96875 28.51875 283.125 29.2375Q283.21875 29.690624 283.21875 30.8625L283.21875 33.20625Q283.21875 35.659374 283.32812 36.315624Q283.4375 36.95625 283.78125 37.55L281.9375 37.55Q281.67188 37.003124 281.59375 36.26875ZM281.4375 32.346874Q280.48438 32.7375 278.5625 33.003124Q277.48438 33.159374 277.03125 33.3625Q276.59375 33.55 276.34375 33.925Q276.09375 34.3 276.09375 34.76875Q276.09375 35.471874 276.625 35.940624Q277.15625 36.409374 278.1875 36.409374Q279.20312 36.409374 279.98438 35.971874Q280.78125 35.51875 281.15625 34.753124Q281.4375 34.14375 281.4375 32.9875L281.4375 32.346874ZM289.65625 35.971874L289.90625 37.534374Q289.17188 37.690624 288.57812 37.690624Q287.625 37.690624 287.09375 37.39375Q286.57812 37.08125 286.35938 36.596874Q286.14062 36.096874 286.14062 34.51875L286.14062 28.55L284.85938 28.55L284.85938 27.175L286.14062 27.175L286.14062 24.6125L287.89062 23.55L287.89062 27.175L289.65625 27.175L289.65625 28.55L287.89062 28.55L287.89062 34.6125Q287.89062 35.3625 287.98438 35.58125Q288.07812 35.784374 288.28125 35.925Q288.5 36.05 288.89062 36.05Q289.17188 36.05 289.65625 35.971874ZM298.92188 34.20625L300.73438 34.440624Q300.3125 36.01875 299.14062 36.909374Q297.98438 37.784374 296.17188 37.784374Q293.90625 37.784374 292.5625 36.39375Q291.23438 34.9875 291.23438 32.45625Q291.23438 29.83125 292.57812 28.39375Q293.92188 26.940624 296.07812 26.940624Q298.15625 26.940624 299.46875 28.3625Q300.79688 29.76875 300.79688 32.346874Q300.79688 32.503124 300.78125 32.815624L293.04688 32.815624Q293.14062 34.51875 294.01562 35.425Q294.89062 36.33125 296.1875 36.33125Q297.15625 36.33125 297.82812 35.83125Q298.51562 35.315624 298.92188 34.20625ZM293.14062 31.3625L298.9375 31.3625Q298.82812 30.065624 298.28125 29.409374Q297.4375 28.39375 296.09375 28.39375Q294.89062 28.39375 294.0625 29.20625Q293.23438 30.003124 293.14062 31.3625ZM302.5 38.409374L304.20312 38.659374Q304.3125 39.45625 304.79688 39.815624Q305.45312 40.3 306.59375 40.3Q307.8125 40.3 308.46875 39.815624Q309.14062 39.33125 309.375 38.45625Q309.51562 37.909374 309.5 36.190624Q308.34375 37.55 306.625 37.55Q304.48438 37.55 303.3125 36.003124Q302.14062 34.45625 302.14062 32.3Q302.14062 30.815624 302.67188 29.565624Q303.21875 28.315624 304.23438 27.628124Q305.26562 26.940624 306.64062 26.940624Q308.46875 26.940624 309.67188 28.425L309.67188 27.175L311.28125 27.175L311.28125 36.14375Q311.28125 38.565624 310.78125 39.565624Q310.29688 40.58125 309.21875 41.159374Q308.15625 41.753124 306.59375 41.753124Q304.75 41.753124 303.59375 40.925Q302.45312 40.096874 302.5 38.409374ZM303.95312 32.175Q303.95312 34.221874 304.76562 35.159374Q305.57812 36.096874 306.79688 36.096874Q308.0 36.096874 308.8125 35.159374Q309.64062 34.221874 309.64062 32.2375Q309.64062 30.33125 308.79688 29.3625Q307.95312 28.39375 306.76562 28.39375Q305.59375 28.39375 304.76562 29.346874Q303.95312 30.3 303.95312 32.175ZM313.17188 32.3625Q313.17188 29.4875 314.76562 28.096874Q316.10938 26.940624 318.03125 26.940624Q320.17188 26.940624 321.51562 28.346874Q322.875 29.753124 322.875 32.221874Q322.875 34.221874 322.28125 35.378124Q321.6875 36.51875 320.53125 37.159374Q319.39062 37.784374 318.03125 37.784374Q315.84375 37.784374 314.5 36.39375Q313.17188 34.9875 313.17188 32.3625ZM314.96875 32.3625Q314.96875 34.3625 315.82812 35.346874Q316.70312 36.33125 318.03125 36.33125Q319.34375 36.33125 320.20312 35.346874Q321.07812 34.346874 321.07812 32.3Q321.07812 30.378124 320.20312 29.39375Q319.32812 28.39375 318.03125 28.39375Q316.70312 28.39375 315.82812 29.39375Q314.96875 30.378124 314.96875 32.3625ZM324.79688 37.55L324.79688 27.175L326.375 27.175L326.375 28.753124Q326.98438 27.64375 327.5 27.3Q328.01562 26.940624 328.625 26.940624Q329.51562 26.940624 330.4375 27.503124L329.82812 29.14375Q329.1875 28.753124 328.54688 28.753124Q327.96875 28.753124 327.5 29.1125Q327.04688 29.45625 326.84375 30.065624Q326.5625 31.003124 326.5625 32.1125L326.5625 37.55L324.79688 37.55ZM331.73438 41.55L331.54688 39.89375Q332.125 40.05 332.54688 40.05Q333.14062 40.05 333.48438 39.846874Q333.84375 39.659374 334.0625 39.315624Q334.23438 39.05 334.60938 38.003124Q334.65625 37.846874 334.76562 37.565624L330.82812 27.175L332.71875 27.175L334.875 33.190624Q335.29688 34.33125 335.625 35.58125Q335.9375 34.378124 336.34375 33.221874L338.5625 27.175L340.32812 27.175L336.375 37.721874Q335.75 39.440624 335.39062 40.08125Q334.92188 40.95625 334.3125 41.346874Q333.71875 41.753124 332.875 41.753124Q332.35938 41.753124 331.73438 41.55Z" fill-rule="nonzero"/></svg>