<svg version="1.1" viewBox="0.0 0.0 600.0 371.0" fill="none" stroke="none" stroke-linecap="square" stroke-miterlimit="10" width="600" height="371" xmlns:xlink="http://www.w3.org/1999/xlink" xmlns="http://www.w3.org/2000/svg"><path fill="#ffffff" fill-opacity="0.0" d="M0 0L600.0 0L600.0 371.0L0 371.0L0 0Z" fill-rule="nonzero"/><path fill="#2d4d98" d="M300.0 54.916668C339.45538 54.916668 377.29477 70.590256 405.1939 98.48942L352.59695 151.08638C338.64737 137.1368 319.7277 129.3 300.0 129.3Z" fill-rule="nonzero"/><path fill="#78a94e" d="M405.1939 98.48942C463.29092 156.58641 463.29092 250.78026 405.1939 308.87726L352.59695 256.2803C381.64545 227.2318 381.64545 180.13487 352.59695 151.08638Z" fill-rule="nonzero"/><path fill="#d0473d" d="M151.23334 203.68333C151.23334 121.521774 217.83844 54.916668 300.0 54.916668L300.0 129.3C258.91922 129.3 225.61667 162.60255 225.61667 203.68333Z" fill-rule="nonzero"/><path fill="#8c4595" d="M405.1939 308.87726C362.64694 351.42422 298.65976 364.15207 243.06946 341.12582C187.47917 318.09955 151.23334 263.85382 151.23334 203.68333L225.61667 203.68333C225.61667 233.76859 243.73958 260.89145 271.53473 272.40457C299.32986 283.9177 331.3235 277.55377 352.59695 256.2803Z" fill-rule="nonzero"/><path fill="#ffffff" d="M323.90103 107.10147L322.3229 107.10147L322.3229 97.023346Q321.74478 97.57022 320.8229 98.117096Q319.90103 98.648346 319.15103 98.929596L319.15103 97.398346Q320.47916 96.773346 321.47916 95.88272Q322.47916 94.992096 322.8854 94.16397L323.90103 94.16397L323.90103 107.10147ZM336.2604 105.585846L336.2604 107.10147L327.74478 107.10147Q327.72916 106.523346 327.93228 106.00772Q328.2604 105.13272 328.96353 104.28897Q329.68228 103.44522 331.04166 102.335846Q333.1354 100.617096 333.86978 99.617096Q334.61978 98.60147 334.61978 97.710846Q334.61978 96.75772 333.9479 96.117096Q333.27603 95.47647 332.1979 95.47647Q331.04166 95.47647 330.35416 96.16397Q329.68228 96.85147 329.66666 98.054596L328.04166 97.88272Q328.21353 96.07022 329.29166 95.117096Q330.3854 94.16397 332.22916 94.16397Q334.0729 94.16397 335.15103 95.19522Q336.24478 96.22647 336.24478 97.742096Q336.24478 98.50772 335.91666 99.25772Q335.60416 100.00772 334.86978 100.835846Q334.1354 101.66397 332.43228 103.10147Q331.0104 104.304596 330.60416 104.72647Q330.1979 105.148346 329.9479 105.585846L336.2604 105.585846ZM338.83853 107.10147L338.83853 105.304596L340.6354 105.304596L340.6354 107.10147L338.83853 107.10147ZM342.9479 103.72647L344.60416 103.585846Q344.79166 104.804596 345.46353 105.41397Q346.1354 106.023346 347.08853 106.023346Q348.22916 106.023346 349.0104 105.16397Q349.80728 104.304596 349.80728 102.867096Q349.80728 101.523346 349.04166 100.742096Q348.29166 99.960846 347.05728 99.960846Q346.29166 99.960846 345.66666 100.304596Q345.05728 100.648346 344.71353 101.210846L343.22916 101.00772L344.47916 94.398346L350.8854 94.398346L350.8854 95.898346L345.74478 95.898346L345.04166 99.367096Q346.21353 98.554596 347.47916 98.554596Q349.16666 98.554596 350.3229 99.72647Q351.49478 100.898346 351.49478 102.72647Q351.49478 104.47647 350.46353 105.75772Q349.22916 107.32022 347.08853 107.32022Q345.3229 107.32022 344.21353 106.335846Q343.10416 105.35147 342.9479 103.72647ZM353.24478 97.304596Q353.24478 95.929596 353.93228 94.960846Q354.6354 93.992096 355.9479 93.992096Q357.16666 93.992096 357.96353 94.867096Q358.7604 95.72647 358.7604 97.41397Q358.7604 99.03897 357.9479 99.929596Q357.15103 100.804596 355.96353 100.804596Q354.80728 100.804596 354.02603 99.94522Q353.24478 99.07022 353.24478 97.304596ZM355.99478 95.085846Q355.40103 95.085846 355.0104 95.60147Q354.61978 96.10147 354.61978 97.460846Q354.61978 98.710846 355.0104 99.210846Q355.41666 99.710846 355.99478 99.710846Q356.58853 99.710846 356.97916 99.210846Q357.36978 98.69522 357.36978 97.35147Q357.36978 96.10147 356.97916 95.60147Q356.58853 95.085846 355.99478 95.085846ZM356.0104 107.57022L363.05728 93.992096L364.33853 93.992096L357.30728 107.57022L356.0104 107.57022ZM361.5729 104.07022Q361.5729 102.69522 362.2604 101.72647Q362.96353 100.75772 364.29166 100.75772Q365.5104 100.75772 366.29166 101.63272Q367.08853 102.492096 367.08853 104.179596Q367.08853 105.804596 366.29166 106.69522Q365.49478 107.57022 364.30728 107.57022Q363.1354 107.57022 362.35416 106.69522Q361.5729 105.82022 361.5729 104.07022ZM364.33853 101.85147Q363.74478 101.85147 363.35416 102.367096Q362.96353 102.867096 362.96353 104.242096Q362.96353 105.460846 363.35416 105.97647Q363.74478 106.492096 364.3229 106.492096Q364.93228 106.492096 365.3229 105.97647Q365.71353 105.460846 365.71353 104.117096Q365.71353 102.867096 365.3229 102.367096Q364.93228 101.85147 364.33853 101.85147Z" fill-rule="nonzero"/><path fill="#ffffff" d="M395.1375 208.66771L395.1375 210.18333L386.6219 210.18333Q386.60626 209.60521 386.8094 209.08958Q387.1375 208.21458 387.84064 207.37083Q388.5594 206.52708 389.91876 205.41771Q392.0125 203.69896 392.7469 202.69896Q393.4969 201.68333 393.4969 200.79271Q393.4969 199.83958 392.825 199.19896Q392.15314 198.55833 391.075 198.55833Q389.91876 198.55833 389.23126 199.24583Q388.5594 199.93333 388.54376 201.13646L386.91876 200.96458Q387.09064 199.15208 388.16876 198.19896Q389.2625 197.24583 391.10626 197.24583Q392.95 197.24583 394.02814 198.27708Q395.1219 199.30833 395.1219 200.82396Q395.1219 201.58958 394.79376 202.33958Q394.48126 203.08958 393.7469 203.91771Q393.0125 204.74583 391.3094 206.18333Q389.8875 207.38646 389.48126 207.80833Q389.075 208.23021 388.825 208.66771L395.1375 208.66771ZM396.825 206.80833L398.48126 206.66771Q398.66876 207.88646 399.34064 208.49583Q400.0125 209.10521 400.96564 209.10521Q402.10626 209.10521 402.8875 208.24583Q403.6844 207.38646 403.6844 205.94896Q403.6844 204.60521 402.91876 203.82396Q402.16876 203.04271 400.9344 203.04271Q400.16876 203.04271 399.54376 203.38646Q398.9344 203.73021 398.59064 204.29271L397.10626 204.08958L398.35626 197.48021L404.7625 197.48021L404.7625 198.98021L399.6219 198.98021L398.91876 202.44896Q400.09064 201.63646 401.35626 201.63646Q403.04376 201.63646 404.2 202.80833Q405.3719 203.98021 405.3719 205.80833Q405.3719 207.55833 404.34064 208.83958Q403.10626 210.40208 400.96564 210.40208Q399.2 210.40208 398.09064 209.41771Q396.98126 208.43333 396.825 206.80833ZM407.71564 210.18333L407.71564 208.38646L409.5125 208.38646L409.5125 210.18333L407.71564 210.18333ZM411.825 203.82396Q411.825 201.54271 412.29376 200.15208Q412.7625 198.76146 413.6844 198.01146Q414.6219 197.24583 416.02814 197.24583Q417.0594 197.24583 417.84064 197.66771Q418.6219 198.07396 419.1219 198.87083Q419.6375 199.65208 419.9344 200.79271Q420.23126 201.91771 420.23126 203.82396Q420.23126 206.08958 419.7625 207.49583Q419.29376 208.88646 418.35626 209.65208Q417.4344 210.40208 416.02814 210.40208Q414.15314 210.40208 413.09064 209.07396Q411.825 207.46458 411.825 203.82396ZM413.45 203.82396Q413.45 206.99583 414.1844 208.05833Q414.9344 209.10521 416.02814 209.10521Q417.10626 209.10521 417.85626 208.05833Q418.60626 206.99583 418.60626 203.82396Q418.60626 200.65208 417.85626 199.60521Q417.10626 198.55833 416.0125 198.55833Q414.91876 198.55833 414.2625 199.48021Q413.45 200.65208 413.45 203.82396ZM422.1219 200.38646Q422.1219 199.01146 422.8094 198.04271Q423.5125 197.07396 424.825 197.07396Q426.04376 197.07396 426.84064 197.94896Q427.6375 198.80833 427.6375 200.49583Q427.6375 202.12083 426.825 203.01146Q426.02814 203.88646 424.84064 203.88646Q423.6844 203.88646 422.90314 203.02708Q422.1219 202.15208 422.1219 200.38646ZM424.8719 198.16771Q424.27814 198.16771 423.8875 198.68333Q423.4969 199.18333 423.4969 200.54271Q423.4969 201.79271 423.8875 202.29271Q424.29376 202.79271 424.8719 202.79271Q425.46564 202.79271 425.85626 202.29271Q426.2469 201.77708 426.2469 200.43333Q426.2469 199.18333 425.85626 198.68333Q425.46564 198.16771 424.8719 198.16771ZM424.8875 210.65208L431.9344 197.07396L433.21564 197.07396L426.1844 210.65208L424.8875 210.65208ZM430.45 207.15208Q430.45 205.77708 431.1375 204.80833Q431.84064 203.83958 433.16876 203.83958Q434.3875 203.83958 435.16876 204.71458Q435.96564 205.57396 435.96564 207.26146Q435.96564 208.88646 435.16876 209.77708Q434.3719 210.65208 433.1844 210.65208Q432.0125 210.65208 431.23126 209.77708Q430.45 208.90208 430.45 207.15208ZM433.21564 204.93333Q432.6219 204.93333 432.23126 205.44896Q431.84064 205.94896 431.84064 207.32396Q431.84064 208.54271 432.23126 209.05833Q432.6219 209.57396 433.2 209.57396Q433.8094 209.57396 434.2 209.05833Q434.59064 208.54271 434.59064 207.19896Q434.59064 205.94896 434.2 205.44896Q433.8094 204.93333 433.21564 204.93333Z" fill-rule="nonzero"/><path fill="#ffffff" d="M232.5521 309.85895L234.14584 309.65582Q234.41147 310.99957 235.06772 311.59332Q235.72397 312.18707 236.66147 312.18707Q237.78647 312.18707 238.5521 311.42145Q239.31772 310.6402 239.31772 309.49957Q239.31772 308.40582 238.59897 307.7027Q237.89584 306.98395 236.8021 306.98395Q236.34897 306.98395 235.6771 307.17145L235.84897 305.78082Q236.00522 305.79645 236.1146 305.79645Q237.1146 305.79645 237.9271 305.2652Q238.7396 304.73395 238.7396 303.6402Q238.7396 302.7652 238.14584 302.2027Q237.5521 301.62457 236.63022 301.62457Q235.70834 301.62457 235.08334 302.2027Q234.47397 302.78082 234.3021 303.9527L232.72397 303.67145Q233.00522 302.0777 234.03647 301.2027Q235.06772 300.3277 236.59897 300.3277Q237.64584 300.3277 238.53647 300.78082Q239.4271 301.23395 239.89584 302.0152Q240.3646 302.79645 240.3646 303.67145Q240.3646 304.5152 239.91147 305.2027Q239.47397 305.87457 238.58334 306.28082Q239.72397 306.54645 240.34897 307.3902Q240.9896 308.21832 240.9896 309.4527Q240.9896 311.1402 239.75522 312.3277Q238.53647 313.49957 236.66147 313.49957Q234.95834 313.49957 233.83334 312.48395Q232.72397 311.46832 232.5521 309.85895ZM242.66147 302.06207L242.66147 300.54645L250.9896 300.54645L250.9896 301.78082Q249.77084 303.09332 248.5521 305.2652Q247.34897 307.42145 246.69272 309.71832Q246.20834 311.34332 246.08334 313.2652L244.45834 313.2652Q244.4896 311.74957 245.0521 309.59332Q245.63022 307.43707 246.69272 305.43707Q247.75522 303.43707 248.95834 302.06207L242.66147 302.06207ZM253.44272 313.2652L253.44272 311.46832L255.2396 311.46832L255.2396 313.2652L253.44272 313.2652ZM257.5521 309.8902L259.20834 309.74957Q259.39584 310.96832 260.06772 311.5777Q260.7396 312.18707 261.69272 312.18707Q262.83334 312.18707 263.6146 311.3277Q264.41147 310.46832 264.41147 309.03082Q264.41147 307.68707 263.64584 306.90582Q262.89584 306.12457 261.66147 306.12457Q260.89584 306.12457 260.27084 306.46832Q259.66147 306.81207 259.31772 307.37457L257.83334 307.17145L259.08334 300.56207L265.4896 300.56207L265.4896 302.06207L260.34897 302.06207L259.64584 305.53082Q260.81772 304.71832 262.08334 304.71832Q263.77084 304.71832 264.9271 305.8902Q266.09897 307.06207 266.09897 308.8902Q266.09897 310.6402 265.06772 311.92145Q263.83334 313.48395 261.69272 313.48395Q259.9271 313.48395 258.81772 312.49957Q257.70834 311.5152 257.5521 309.8902ZM267.84897 303.46832Q267.84897 302.09332 268.53647 301.12457Q269.2396 300.15582 270.5521 300.15582Q271.77084 300.15582 272.56772 301.03082Q273.3646 301.8902 273.3646 303.5777Q273.3646 305.2027 272.5521 306.09332Q271.75522 306.96832 270.56772 306.96832Q269.41147 306.96832 268.63022 306.10895Q267.84897 305.23395 267.84897 303.46832ZM270.59897 301.24957Q270.00522 301.24957 269.6146 301.7652Q269.22397 302.2652 269.22397 303.62457Q269.22397 304.87457 269.6146 305.37457Q270.02084 305.87457 270.59897 305.87457Q271.19272 305.87457 271.58334 305.37457Q271.97397 304.85895 271.97397 303.5152Q271.97397 302.2652 271.58334 301.7652Q271.19272 301.24957 270.59897 301.24957ZM270.6146 313.73395L277.66147 300.15582L278.94272 300.15582L271.91147 313.73395L270.6146 313.73395ZM276.1771 310.23395Q276.1771 308.85895 276.8646 307.8902Q277.56772 306.92145 278.89584 306.92145Q280.1146 306.92145 280.89584 307.79645Q281.69272 308.65582 281.69272 310.34332Q281.69272 311.96832 280.89584 312.85895Q280.09897 313.73395 278.91147 313.73395Q277.7396 313.73395 276.95834 312.85895Q276.1771 311.98395 276.1771 310.23395ZM278.94272 308.0152Q278.34897 308.0152 277.95834 308.53082Q277.56772 309.03082 277.56772 310.40582Q277.56772 311.62457 277.95834 312.1402Q278.34897 312.65582 278.9271 312.65582Q279.53647 312.65582 279.9271 312.1402Q280.31772 311.62457 280.31772 310.28082Q280.31772 309.03082 279.9271 308.53082Q279.53647 308.0152 278.94272 308.0152Z" fill-rule="nonzero"/><path fill="#ffffff" d="M204.66707 129.77226L204.66707 131.28789L196.15144 131.28789Q196.13582 130.70976 196.33894 130.19414Q196.66707 129.31914 197.3702 128.47539Q198.08894 127.63164 199.44832 126.52226Q201.54207 124.80351 202.27644 123.80351Q203.02644 122.78789 203.02644 121.89726Q203.02644 120.94414 202.35457 120.30351Q201.6827 119.66289 200.60457 119.66289Q199.44832 119.66289 198.76082 120.35039Q198.08894 121.03789 198.07332 122.24101L196.44832 122.06914Q196.6202 120.25664 197.69832 119.30351Q198.79207 118.35039 200.63582 118.35039Q202.47957 118.35039 203.5577 119.38164Q204.65144 120.41289 204.65144 121.92851Q204.65144 122.69414 204.32332 123.44414Q204.01082 124.19414 203.27644 125.02226Q202.54207 125.85039 200.83894 127.28789Q199.41707 128.49101 199.01082 128.91289Q198.60457 129.33476 198.35457 129.77226L204.66707 129.77226ZM206.35457 127.91289L208.01082 127.77226Q208.19832 128.99101 208.8702 129.60039Q209.54207 130.20976 210.4952 130.20976Q211.63582 130.20976 212.41707 129.35039Q213.21394 128.49101 213.21394 127.05351Q213.21394 125.70976 212.44832 124.92851Q211.69832 124.14726 210.46394 124.14726Q209.69832 124.14726 209.07332 124.49101Q208.46394 124.83476 208.1202 125.39726L206.63582 125.19414L207.88582 118.58476L214.29207 118.58476L214.29207 120.08476L209.15144 120.08476L208.44832 123.55351Q209.6202 122.74101 210.88582 122.74101Q212.57332 122.74101 213.72957 123.91289Q214.90144 125.08476 214.90144 126.91289Q214.90144 128.66289 213.8702 129.94414Q212.63582 131.50664 210.4952 131.50664Q208.72957 131.50664 207.6202 130.52226Q206.51082 129.53789 206.35457 127.91289ZM217.2452 131.28789L217.2452 129.49101L219.04207 129.49101L219.04207 131.28789L217.2452 131.28789ZM221.35457 124.92851Q221.35457 122.64726 221.82332 121.25664Q222.29207 119.86601 223.21394 119.11601Q224.15144 118.35039 225.5577 118.35039Q226.58894 118.35039 227.3702 118.77226Q228.15144 119.17851 228.65144 119.97539Q229.16707 120.75664 229.46394 121.89726Q229.76082 123.02226 229.76082 124.92851Q229.76082 127.19414 229.29207 128.60039Q228.82332 129.99101 227.88582 130.75664Q226.96394 131.50664 225.5577 131.50664Q223.6827 131.50664 222.6202 130.17851Q221.35457 128.56914 221.35457 124.92851ZM222.97957 124.92851Q222.97957 128.10039 223.71394 129.16289Q224.46394 130.20976 225.5577 130.20976Q226.63582 130.20976 227.38582 129.16289Q228.13582 128.10039 228.13582 124.92851Q228.13582 121.75664 227.38582 120.70976Q226.63582 119.66289 225.54207 119.66289Q224.44832 119.66289 223.79207 120.58476Q222.97957 121.75664 222.97957 124.92851ZM231.65144 121.49101Q231.65144 120.11601 232.33894 119.14726Q233.04207 118.17851 234.35457 118.17851Q235.57332 118.17851 236.3702 119.05351Q237.16707 119.91289 237.16707 121.60039Q237.16707 123.22539 236.35457 124.11601Q235.5577 124.99101 234.3702 124.99101Q233.21394 124.99101 232.4327 124.13164Q231.65144 123.25664 231.65144 121.49101ZM234.40144 119.27226Q233.8077 119.27226 233.41707 119.78789Q233.02644 120.28789 233.02644 121.64726Q233.02644 122.89726 233.41707 123.39726Q233.82332 123.89726 234.40144 123.89726Q234.9952 123.89726 235.38582 123.39726Q235.77644 122.88164 235.77644 121.53789Q235.77644 120.28789 235.38582 119.78789Q234.9952 119.27226 234.40144 119.27226ZM234.41707 131.75664L241.46394 118.17851L242.7452 118.17851L235.71394 131.75664L234.41707 131.75664ZM239.97957 128.25664Q239.97957 126.88164 240.66707 125.91289Q241.3702 124.94414 242.69832 124.94414Q243.91707 124.94414 244.69832 125.81914Q245.4952 126.67851 245.4952 128.36601Q245.4952 129.99101 244.69832 130.88164Q243.90144 131.75664 242.71394 131.75664Q241.54207 131.75664 240.76082 130.88164Q239.97957 130.00664 239.97957 128.25664ZM242.7452 126.03789Q242.15144 126.03789 241.76082 126.55351Q241.3702 127.05351 241.3702 128.42851Q241.3702 129.64726 241.76082 130.16289Q242.15144 130.67851 242.72957 130.67851Q243.33894 130.67851 243.72957 130.16289Q244.1202 129.64726 244.1202 128.30351Q244.1202 127.05351 243.72957 126.55351Q243.33894 126.03789 242.7452 126.03789Z" fill-rule="nonzero"/><path stroke="#ffffff" stroke-width="1.0" stroke-linejoin="round" stroke-linecap="round" d="M352.59695 151.08638C338.64737 137.1368 319.7277 129.3 300.0 129.3L300.0 54.916668C339.45538 54.916668 377.29477 70.590256 405.1939 98.48942" fill-rule="nonzero"/><path stroke="#ffffff" stroke-width="1.0" stroke-linejoin="round" stroke-linecap="round" d="M352.59695 256.2803C381.64545 227.2318 381.64545 180.13487 352.59695 151.08638L405.1939 98.48942C463.29092 156.58641 463.29092 250.78026 405.1939 308.87726" fill-rule="nonzero"/><path stroke="#ffffff" stroke-width="1.0" stroke-linejoin="round" stroke-linecap="round" d="M225.61667 203.68333C225.61667 233.76859 243.73958 260.89145 271.53473 272.40457C299.32986 283.9177 331.3235 277.55377 352.59695 256.2803L405.1939 308.87726C362.64694 351.42422 298.65976 364.15207 243.06946 341.12582C187.47917 318.09955 151.23334 263.85382 151.23334 203.68333" fill-rule="nonzero"/><path stroke="#ffffff" stroke-width="1.0" stroke-linejoin="round" stroke-linecap="round" d="M300.0 129.3C258.91922 129.3 225.61667 162.60255 225.61667 203.68333L151.23334 203.68333C151.23334 121.521774 217.83844 54.916668 300.0 54.916668" fill-rule="nonzero"/><path fill="#efefef" d="M19.76875 98.24911L19.76875 86.79598L21.33125 86.79598L27.346874 95.78036L27.346874 86.79598L28.8 86.79598L28.8 98.24911L27.2375 98.24911L21.221874 89.24911L21.221874 98.24911L19.76875 98.24911ZM37.01875 97.21786Q36.2375 97.88973 35.51875 98.17098Q34.8 98.43661 33.971874 98.43661Q32.596874 98.43661 31.8625 97.76473Q31.128124 97.09286 31.128124 96.06161Q31.128124 95.45223 31.409374 94.95223Q31.690624 94.43661 32.128124 94.13973Q32.58125 93.82723 33.14375 93.67098Q33.565624 93.56161 34.39375 93.46786Q36.096874 93.26473 36.909374 92.98348Q36.909374 92.68661 36.909374 92.60848Q36.909374 91.74911 36.51875 91.40536Q35.971874 90.92098 34.909374 90.92098Q33.925 90.92098 33.440624 91.28036Q32.971874 91.62411 32.753124 92.49911L31.378124 92.31161Q31.565624 91.43661 31.9875 90.88973Q32.425 90.34286 33.2375 90.06161Q34.05 89.76473 35.1125 89.76473Q36.175 89.76473 36.83125 90.01473Q37.503124 90.26473 37.815624 90.63973Q38.128124 91.01473 38.253124 91.59286Q38.33125 91.95223 38.33125 92.88973L38.33125 94.76473Q38.33125 96.73348 38.409374 97.24911Q38.503124 97.76473 38.76875 98.24911L37.3 98.24911Q37.08125 97.81161 37.01875 97.21786ZM36.909374 94.07723Q36.14375 94.38973 34.6125 94.60848Q33.7375 94.73348 33.378124 94.88973Q33.01875 95.04598 32.815624 95.35848Q32.628124 95.65536 32.628124 96.01473Q32.628124 96.57723 33.05 96.95223Q33.4875 97.32723 34.3 97.32723Q35.1125 97.32723 35.7375 96.98348Q36.378124 96.62411 36.675 95.99911Q36.909374 95.53036 36.909374 94.59286L36.909374 94.07723ZM42.909374 98.24911L39.753124 89.95223L41.2375 89.95223L43.01875 94.92098Q43.315624 95.71786 43.55 96.59286Q43.7375 95.93661 44.08125 95.01473L45.925 89.95223L47.3625 89.95223L44.221874 98.24911L42.909374 98.24911ZM54.01875 97.21786Q53.2375 97.88973 52.51875 98.17098Q51.8 98.43661 50.971874 98.43661Q49.596874 98.43661 48.8625 97.76473Q48.128124 97.09286 48.128124 96.06161Q48.128124 95.45223 48.409374 94.95223Q48.690624 94.43661 49.128124 94.13973Q49.58125 93.82723 50.14375 93.67098Q50.565624 93.56161 51.39375 93.46786Q53.096874 93.26473 53.909374 92.98348Q53.909374 92.68661 53.909374 92.60848Q53.909374 91.74911 53.51875 91.40536Q52.971874 90.92098 51.909374 90.92098Q50.925 90.92098 50.440624 91.28036Q49.971874 91.62411 49.753124 92.49911L48.378124 92.31161Q48.565624 91.43661 48.9875 90.88973Q49.425 90.34286 50.2375 90.06161Q51.05 89.76473 52.1125 89.76473Q53.175 89.76473 53.83125 90.01473Q54.503124 90.26473 54.815624 90.63973Q55.128124 91.01473 55.253124 91.59286Q55.33125 91.95223 55.33125 92.88973L55.33125 94.76473Q55.33125 96.73348 55.409374 97.24911Q55.503124 97.76473 55.76875 98.24911L54.3 98.24911Q54.08125 97.81161 54.01875 97.21786ZM53.909374 94.07723Q53.14375 94.38973 51.6125 94.60848Q50.7375 94.73348 50.378124 94.88973Q50.01875 95.04598 49.815624 95.35848Q49.628124 95.65536 49.628124 96.01473Q49.628124 96.57723 50.05 96.95223Q50.4875 97.32723 51.3 97.32723Q52.1125 97.32723 52.7375 96.98348Q53.378124 96.62411 53.675 95.99911Q53.909374 95.53036 53.909374 94.59286L53.909374 94.07723ZM57.58125 98.24911L57.58125 86.79598L58.9875 86.79598L58.9875 98.24911L57.58125 98.24911ZM65.26875 94.56161L66.70625 94.43661Q66.8 95.29598 67.175 95.85848Q67.55 96.40536 68.33125 96.74911Q69.1125 97.07723 70.08125 97.07723Q70.95625 97.07723 71.6125 96.82723Q72.28438 96.56161 72.59688 96.12411Q72.925 95.67098 72.925 95.13973Q72.925 94.59286 72.6125 94.20223Q72.3 93.79598 71.58125 93.51473Q71.12813 93.34286 69.55 92.96786Q67.97188 92.57723 67.33125 92.24911Q66.51875 91.81161 66.1125 91.18661Q65.70625 90.54598 65.70625 89.74911Q65.70625 88.88973 66.19063 88.13973Q66.69063 87.37411 67.62813 86.98348Q68.58125 86.59286 69.7375 86.59286Q71.01875 86.59286 71.9875 87.01473Q72.95625 87.42098 73.47188 88.21786Q74.00313 89.01473 74.05 90.01473L72.59688 90.12411Q72.47188 89.04598 71.8 88.49911Q71.12813 87.93661 69.8 87.93661Q68.425 87.93661 67.8 88.43661Q67.175 88.93661 67.175 89.65536Q67.175 90.26473 67.6125 90.67098Q68.05 91.06161 69.89375 91.48348Q71.75313 91.90536 72.44063 92.21786Q73.44063 92.67098 73.90938 93.38973Q74.39375 94.09286 74.39375 95.01473Q74.39375 95.92098 73.8625 96.73348Q73.34688 97.54598 72.3625 97.99911Q71.37813 98.45223 70.15938 98.45223Q68.59688 98.45223 67.55 97.99911Q66.50313 97.53036 65.89375 96.62411Q65.3 95.71786 65.26875 94.56161ZM79.675 96.98348L79.87813 98.23348Q79.28438 98.35848 78.81563 98.35848Q78.05 98.35848 77.62813 98.12411Q77.20625 97.87411 77.03438 97.48348Q76.8625 97.07723 76.8625 95.81161L76.8625 91.04598L75.83125 91.04598L75.83125 89.95223L76.8625 89.95223L76.8625 87.88973L78.26875 87.04598L78.26875 89.95223L79.675 89.95223L79.675 91.04598L78.26875 91.04598L78.26875 95.88973Q78.26875 96.49911 78.33125 96.67098Q78.40938 96.84286 78.58125 96.95223Q78.75313 97.04598 79.06563 97.04598Q79.3 97.04598 79.675 96.98348ZM80.59688 98.24911L80.59688 89.95223L81.8625 89.95223L81.8625 91.20223Q82.34688 90.32723 82.75313 90.04598Q83.15938 89.76473 83.65938 89.76473Q84.3625 89.76473 85.09688 90.21786L84.6125 91.51473Q84.09688 91.21786 83.58125 91.21786Q83.12813 91.21786 82.75313 91.49911Q82.39375 91.76473 82.2375 92.26473Q82.00313 93.01473 82.00313 93.90536L82.00313 98.24911L80.59688 98.24911ZM91.05 98.24911L91.05 97.03036Q90.08125 98.43661 88.40938 98.43661Q87.675 98.43661 87.03438 98.15536Q86.40938 97.87411 86.09688 97.45223Q85.78438 97.01473 85.65938 96.40536Q85.58125 95.98348 85.58125 95.09286L85.58125 89.95223L86.9875 89.95223L86.9875 94.54598Q86.9875 95.65536 87.06563 96.03036Q87.20625 96.59286 87.62813 96.90536Q88.06563 97.21786 88.69063 97.21786Q89.33125 97.21786 89.87813 96.90536Q90.44063 96.57723 90.65938 96.01473Q90.89375 95.45223 90.89375 94.38973L90.89375 89.95223L92.3 89.95223L92.3 98.24911L91.05 98.24911ZM100.01875 95.20223L101.40938 95.38973Q101.175 96.81161 100.2375 97.62411Q99.31563 98.43661 97.95625 98.43661Q96.25313 98.43661 95.20625 97.32723Q94.175 96.20223 94.175 94.12411Q94.175 92.78036 94.6125 91.78036Q95.06563 90.76473 95.97188 90.26473Q96.89375 89.76473 97.95625 89.76473Q99.31563 89.76473 100.175 90.45223Q101.03438 91.12411 101.26875 92.38973L99.90938 92.59286Q99.70625 91.76473 99.20625 91.34286Q98.72188 90.92098 98.01875 90.92098Q96.95625 90.92098 96.28438 91.68661Q95.62813 92.43661 95.62813 94.09286Q95.62813 95.76473 96.26875 96.53036Q96.90938 97.28036 97.94063 97.28036Q98.76875 97.28036 99.31563 96.78036Q99.87813 96.26473 100.01875 95.20223ZM105.675 96.98348L105.87813 98.23348Q105.28438 98.35848 104.81563 98.35848Q104.05 98.35848 103.62813 98.12411Q103.20625 97.87411 103.03438 97.48348Q102.8625 97.07723 102.8625 95.81161L102.8625 91.04598L101.83125 91.04598L101.83125 89.95223L102.8625 89.95223L102.8625 87.88973L104.26875 87.04598L104.26875 89.95223L105.675 89.95223L105.675 91.04598L104.26875 91.04598L104.26875 95.88973Q104.26875 96.49911 104.33125 96.67098Q104.40938 96.84286 104.58125 96.95223Q104.75313 97.04598 105.06563 97.04598Q105.3 97.04598 105.675 96.98348ZM112.05 98.24911L112.05 97.03036Q111.08125 98.43661 109.40938 98.43661Q108.675 98.43661 108.03438 98.15536Q107.40938 97.87411 107.09688 97.45223Q106.78438 97.01473 106.65938 96.40536Q106.58125 95.98348 106.58125 95.09286L106.58125 89.95223L107.9875 89.95223L107.9875 94.54598Q107.9875 95.65536 108.06563 96.03036Q108.20625 96.59286 108.62813 96.90536Q109.06563 97.21786 109.69063 97.21786Q110.33125 97.21786 110.87813 96.90536Q111.44063 96.57723 111.65938 96.01473Q111.89375 95.45223 111.89375 94.38973L111.89375 89.95223L113.3 89.95223L113.3 98.24911L112.05 98.24911ZM115.59688 98.24911L115.59688 89.95223L116.8625 89.95223L116.8625 91.20223Q117.34688 90.32723 117.75313 90.04598Q118.15938 89.76473 118.65938 89.76473Q119.3625 89.76473 120.09688 90.21786L119.6125 91.51473Q119.09688 91.21786 118.58125 91.21786Q118.12813 91.21786 117.75313 91.49911Q117.39375 91.76473 117.2375 92.26473Q117.00313 93.01473 117.00313 93.90536L117.00313 98.24911L115.59688 98.24911ZM126.28438 95.57723L127.7375 95.74911Q127.39375 97.03036 126.45625 97.73348Q125.53438 98.43661 124.09688 98.43661Q122.26875 98.43661 121.20625 97.31161Q120.14375 96.18661 120.14375 94.17098Q120.14375 92.07723 121.22188 90.92098Q122.3 89.76473 124.01875 89.76473Q125.675 89.76473 126.72188 90.90536Q127.78438 92.03036 127.78438 94.07723Q127.78438 94.20223 127.78438 94.45223L121.59688 94.45223Q121.675 95.82723 122.3625 96.56161Q123.06563 97.28036 124.09688 97.28036Q124.87813 97.28036 125.425 96.87411Q125.97188 96.46786 126.28438 95.57723ZM121.675 93.29598L126.3 93.29598Q126.20625 92.24911 125.76875 91.73348Q125.09688 90.92098 124.03438 90.92098Q123.06563 90.92098 122.39375 91.57723Q121.7375 92.21786 121.675 93.29598ZM129.05 95.76473L130.44063 95.54598Q130.55 96.38973 131.08125 96.84286Q131.62813 97.28036 132.58125 97.28036Q133.55 97.28036 134.01875 96.88973Q134.4875 96.48348 134.4875 95.95223Q134.4875 95.48348 134.08125 95.20223Q133.78438 95.01473 132.64375 94.73348Q131.09688 94.34286 130.4875 94.06161Q129.89375 93.76473 129.58125 93.26473Q129.28438 92.76473 129.28438 92.15536Q129.28438 91.59286 129.53438 91.12411Q129.78438 90.65536 130.22188 90.34286Q130.55 90.09286 131.1125 89.93661Q131.69063 89.76473 132.33125 89.76473Q133.31563 89.76473 134.05 90.04598Q134.78438 90.32723 135.12813 90.81161Q135.4875 91.28036 135.62813 92.09286L134.25313 92.28036Q134.15938 91.63973 133.70625 91.28036Q133.25313 90.92098 132.44063 90.92098Q131.47188 90.92098 131.05 91.24911Q130.64375 91.56161 130.64375 91.98348Q130.64375 92.26473 130.81563 92.48348Q130.9875 92.70223 131.34688 92.85848Q131.56563 92.93661 132.59688 93.21786Q134.08125 93.60848 134.675 93.87411Q135.26875 94.12411 135.59688 94.60848Q135.94063 95.09286 135.94063 95.81161Q135.94063 96.51473 135.51875 97.13973Q135.1125 97.74911 134.33125 98.09286Q133.56563 98.43661 132.59688 98.43661Q130.97188 98.43661 130.12813 97.76473Q129.28438 97.09286 129.05 95.76473Z" fill-rule="nonzero"/><path fill="#9e9e9e" d="M26.6125 118.88973L26.6125 120.24911L19.034374 120.24911Q19.01875 119.73348 19.20625 119.26473Q19.4875 118.49911 20.128124 117.74911Q20.76875 116.99911 21.971874 116.01473Q23.83125 114.48348 24.4875 113.59286Q25.14375 112.68661 25.14375 111.88973Q25.14375 111.06161 24.55 110.48348Q23.95625 109.90536 22.9875 109.90536Q21.971874 109.90536 21.3625 110.51473Q20.753124 111.12411 20.753124 112.20223L19.3 112.06161Q19.45625 110.43661 20.425 109.59286Q21.39375 108.74911 23.01875 108.74911Q24.675 108.74911 25.628124 109.67098Q26.596874 110.57723 26.596874 111.92098Q26.596874 112.60848 26.315624 113.28036Q26.034374 113.93661 25.378124 114.67098Q24.721874 115.40536 23.20625 116.68661Q21.940624 117.74911 21.58125 118.13973Q21.221874 118.51473 20.9875 118.88973L26.6125 118.88973ZM28.221874 117.24911L29.690624 117.12411Q29.8625 118.20223 30.45625 118.74911Q31.05 119.28036 31.89375 119.28036Q32.909374 119.28036 33.6125 118.51473Q34.315624 117.74911 34.315624 116.48348Q34.315624 115.28036 33.64375 114.59286Q32.971874 113.88973 31.878124 113.88973Q31.190624 113.88973 30.64375 114.20223Q30.096874 114.51473 29.784374 114.99911L28.471874 114.82723L29.58125 108.95223L35.26875 108.95223L35.26875 110.29598L30.70625 110.29598L30.08125 113.37411Q31.1125 112.65536 32.253124 112.65536Q33.753124 112.65536 34.784374 113.70223Q35.815624 114.73348 35.815624 116.35848Q35.815624 117.92098 34.909374 119.04598Q33.8 120.45223 31.89375 120.45223Q30.33125 120.45223 29.346874 119.57723Q28.3625 118.68661 28.221874 117.24911ZM38.003124 120.24911L38.003124 118.63973L39.6125 118.63973L39.6125 120.24911L38.003124 120.24911ZM41.221874 114.59286Q41.221874 112.56161 41.628124 111.32723Q42.05 110.09286 42.878124 109.42098Q43.70625 108.74911 44.95625 108.74911Q45.878124 108.74911 46.565624 109.12411Q47.26875 109.48348 47.721874 110.18661Q48.175 110.88973 48.425 111.88973Q48.690624 112.88973 48.690624 114.59286Q48.690624 116.60848 48.26875 117.85848Q47.8625 119.09286 47.034374 119.78036Q46.20625 120.45223 44.95625 120.45223Q43.3 120.45223 42.346874 119.24911Q41.221874 117.82723 41.221874 114.59286ZM42.659374 114.59286Q42.659374 117.42098 43.315624 118.35848Q43.9875 119.28036 44.95625 119.28036Q45.925 119.28036 46.58125 118.34286Q47.2375 117.40536 47.2375 114.59286Q47.2375 111.76473 46.58125 110.84286Q45.925 109.90536 44.940624 109.90536Q43.971874 109.90536 43.39375 110.73348Q42.659374 111.78036 42.659374 114.59286ZM50.4875 111.54598Q50.4875 110.31161 51.096874 109.45223Q51.721874 108.59286 52.89375 108.59286Q53.971874 108.59286 54.675 109.37411Q55.378124 110.13973 55.378124 111.62411Q55.378124 113.07723 54.659374 113.87411Q53.95625 114.65536 52.909374 114.65536Q51.8625 114.65536 51.175 113.88973Q50.4875 113.10848 50.4875 111.54598ZM52.925 109.56161Q52.409374 109.56161 52.05 110.01473Q51.70625 110.46786 51.70625 111.68661Q51.70625 112.78036 52.05 113.23348Q52.409374 113.68661 52.925 113.68661Q53.45625 113.68661 53.8 113.23348Q54.159374 112.78036 54.159374 111.57723Q54.159374 110.46786 53.8 110.01473Q53.45625 109.56161 52.925 109.56161ZM52.940624 120.67098L59.20625 108.59286L60.346874 108.59286L54.096874 120.67098L52.940624 120.67098ZM57.89375 117.56161Q57.89375 116.32723 58.503124 115.46786Q59.128124 114.60848 60.3 114.60848Q61.378124 114.60848 62.08125 115.38973Q62.8 116.15536 62.8 117.63973Q62.8 119.09286 62.08125 119.88973Q61.3625 120.67098 60.315624 120.67098Q59.26875 120.67098 58.58125 119.88973Q57.89375 119.10848 57.89375 117.56161ZM60.346874 115.57723Q59.815624 115.57723 59.45625 116.03036Q59.1125 116.48348 59.1125 117.70223Q59.1125 118.79598 59.45625 119.24911Q59.815624 119.70223 60.33125 119.70223Q60.878124 119.70223 61.221874 119.24911Q61.565624 118.79598 61.565624 117.59286Q61.565624 116.48348 61.20625 116.03036Q60.8625 115.57723 60.346874 115.57723Z" fill-rule="nonzero"/><path stroke="#757575" stroke-width="1.0" stroke-linecap="butt" d="M18.55 103.74911L145.23334 103.74911L200.06578 103.74911" fill-rule="nonzero"/><path fill="#9e9e9e" d="M202.06578 103.74911C202.06578 102.64454 201.17035 101.74911 200.06578 101.74911C198.96121 101.74911 198.06578 102.64454 198.06578 103.74911C198.06578 104.85368 198.96121 105.74911 200.06578 105.74911C201.17035 105.74911 202.06578 104.85368 202.06578 103.74911" fill-rule="nonzero"/><path fill="#efefef" d="M19.76875 326.45L19.76875 314.9969L21.33125 314.9969L27.346874 323.98126L27.346874 314.9969L28.8 314.9969L28.8 326.45L27.2375 326.45L21.221874 317.45L21.221874 326.45L19.76875 326.45ZM37.01875 325.41876Q36.2375 326.09064 35.51875 326.3719Q34.8 326.6375 33.971874 326.6375Q32.596874 326.6375 31.8625 325.96564Q31.128124 325.29376 31.128124 324.2625Q31.128124 323.65314 31.409374 323.15314Q31.690624 322.6375 32.128124 322.34064Q32.58125 322.02814 33.14375 321.8719Q33.565624 321.7625 34.39375 321.66876Q36.096874 321.46564 36.909374 321.1844Q36.909374 320.8875 36.909374 320.8094Q36.909374 319.95 36.51875 319.60626Q35.971874 319.1219 34.909374 319.1219Q33.925 319.1219 33.440624 319.48126Q32.971874 319.825 32.753124 320.7L31.378124 320.5125Q31.565624 319.6375 31.9875 319.09064Q32.425 318.54376 33.2375 318.2625Q34.05 317.96564 35.1125 317.96564Q36.175 317.96564 36.83125 318.21564Q37.503124 318.46564 37.815624 318.84064Q38.128124 319.21564 38.253124 319.79376Q38.33125 320.15314 38.33125 321.09064L38.33125 322.96564Q38.33125 324.9344 38.409374 325.45Q38.503124 325.96564 38.76875 326.45L37.3 326.45Q37.08125 326.0125 37.01875 325.41876ZM36.909374 322.27814Q36.14375 322.59064 34.6125 322.8094Q33.7375 322.9344 33.378124 323.09064Q33.01875 323.2469 32.815624 323.5594Q32.628124 323.85626 32.628124 324.21564Q32.628124 324.77814 33.05 325.15314Q33.4875 325.52814 34.3 325.52814Q35.1125 325.52814 35.7375 325.1844Q36.378124 324.825 36.675 324.2Q36.909374 323.73126 36.909374 322.79376L36.909374 322.27814ZM43.675 325.1844L43.878124 326.4344Q43.284374 326.5594 42.815624 326.5594Q42.05 326.5594 41.628124 326.325Q41.20625 326.075 41.034374 325.6844Q40.8625 325.27814 40.8625 324.0125L40.8625 319.2469L39.83125 319.2469L39.83125 318.15314L40.8625 318.15314L40.8625 316.09064L42.26875 315.2469L42.26875 318.15314L43.675 318.15314L43.675 319.2469L42.26875 319.2469L42.26875 324.09064Q42.26875 324.7 42.33125 324.8719Q42.409374 325.04376 42.58125 325.15314Q42.753124 325.2469 43.065624 325.2469Q43.3 325.2469 43.675 325.1844ZM50.05 326.45L50.05 325.23126Q49.08125 326.6375 47.409374 326.6375Q46.675 326.6375 46.034374 326.35626Q45.409374 326.075 45.096874 325.65314Q44.784374 325.21564 44.659374 324.60626Q44.58125 324.1844 44.58125 323.29376L44.58125 318.15314L45.9875 318.15314L45.9875 322.7469Q45.9875 323.85626 46.065624 324.23126Q46.20625 324.79376 46.628124 325.10626Q47.065624 325.41876 47.690624 325.41876Q48.33125 325.41876 48.878124 325.10626Q49.440624 324.77814 49.659374 324.21564Q49.89375 323.65314 49.89375 322.59064L49.89375 318.15314L51.3 318.15314L51.3 326.45L50.05 326.45ZM53.596874 326.45L53.596874 318.15314L54.8625 318.15314L54.8625 319.40314Q55.346874 318.52814 55.753124 318.2469Q56.159374 317.96564 56.659374 317.96564Q57.3625 317.96564 58.096874 318.41876L57.6125 319.71564Q57.096874 319.41876 56.58125 319.41876Q56.128124 319.41876 55.753124 319.7Q55.39375 319.96564 55.2375 320.46564Q55.003124 321.21564 55.003124 322.10626L55.003124 326.45L53.596874 326.45ZM64.01875 325.41876Q63.2375 326.09064 62.51875 326.3719Q61.8 326.6375 60.971874 326.6375Q59.596874 326.6375 58.8625 325.96564Q58.128124 325.29376 58.128124 324.2625Q58.128124 323.65314 58.409374 323.15314Q58.690624 322.6375 59.128124 322.34064Q59.58125 322.02814 60.14375 321.8719Q60.565624 321.7625 61.39375 321.66876Q63.096874 321.46564 63.909374 321.1844Q63.909374 320.8875 63.909374 320.8094Q63.909374 319.95 63.51875 319.60626Q62.971874 319.1219 61.909374 319.1219Q60.925 319.1219 60.440624 319.48126Q59.971874 319.825 59.753124 320.7L58.378124 320.5125Q58.565624 319.6375 58.9875 319.09064Q59.425 318.54376 60.2375 318.2625Q61.05 317.96564 62.1125 317.96564Q63.175 317.96564 63.83125 318.21564Q64.50313 318.46564 64.81563 318.84064Q65.12813 319.21564 65.25313 319.79376Q65.33125 320.15314 65.33125 321.09064L65.33125 322.96564Q65.33125 324.9344 65.40938 325.45Q65.50313 325.96564 65.76875 326.45L64.3 326.45Q64.08125 326.0125 64.01875 325.41876ZM63.909374 322.27814Q63.14375 322.59064 61.6125 322.8094Q60.7375 322.9344 60.378124 323.09064Q60.01875 323.2469 59.815624 323.5594Q59.628124 323.85626 59.628124 324.21564Q59.628124 324.77814 60.05 325.15314Q60.4875 325.52814 61.3 325.52814Q62.1125 325.52814 62.7375 325.1844Q63.378124 324.825 63.675 324.2Q63.909374 323.73126 63.909374 322.79376L63.909374 322.27814ZM67.58125 326.45L67.58125 314.9969L68.9875 314.9969L68.9875 326.45L67.58125 326.45Z" fill-rule="nonzero"/><path fill="#9e9e9e" d="M19.221874 345.41876L20.628124 345.23126Q20.878124 346.4344 21.45625 346.96564Q22.034374 347.48126 22.878124 347.48126Q23.8625 347.48126 24.55 346.79376Q25.2375 346.10626 25.2375 345.09064Q25.2375 344.1219 24.596874 343.4969Q23.971874 342.8719 22.9875 342.8719Q22.596874 342.8719 22.003124 343.02814L22.159374 341.79376Q22.3 341.8094 22.378124 341.8094Q23.284374 341.8094 24.003124 341.34064Q24.721874 340.8719 24.721874 339.8875Q24.721874 339.1219 24.190624 338.6219Q23.675 338.10626 22.846874 338.10626Q22.01875 338.10626 21.471874 338.6219Q20.925 339.1375 20.76875 340.16876L19.3625 339.91876Q19.628124 338.4969 20.534374 337.73126Q21.45625 336.95 22.815624 336.95Q23.753124 336.95 24.534374 337.35626Q25.33125 337.7469 25.7375 338.45Q26.159374 339.1375 26.159374 339.91876Q26.159374 340.66876 25.753124 341.27814Q25.3625 341.8875 24.58125 342.2469Q25.596874 342.48126 26.159374 343.21564Q26.721874 343.95 26.721874 345.0594Q26.721874 346.5594 25.628124 347.60626Q24.534374 348.65314 22.8625 348.65314Q21.3625 348.65314 20.3625 347.7625Q19.3625 346.85626 19.221874 345.41876ZM28.315624 338.4969L28.315624 337.1375L35.721874 337.1375L35.721874 338.23126Q34.628124 339.40314 33.55 341.34064Q32.4875 343.2625 31.89375 345.29376Q31.471874 346.73126 31.3625 348.45L29.909374 348.45Q29.940624 347.09064 30.440624 345.1844Q30.95625 343.2625 31.89375 341.4969Q32.846874 339.71564 33.925 338.4969L28.315624 338.4969ZM38.003124 348.45L38.003124 346.84064L39.6125 346.84064L39.6125 348.45L38.003124 348.45ZM41.221874 345.45L42.690624 345.325Q42.8625 346.40314 43.45625 346.95Q44.05 347.48126 44.89375 347.48126Q45.909374 347.48126 46.6125 346.71564Q47.315624 345.95 47.315624 344.6844Q47.315624 343.48126 46.64375 342.79376Q45.971874 342.09064 44.878124 342.09064Q44.190624 342.09064 43.64375 342.40314Q43.096874 342.71564 42.784374 343.2L41.471874 343.02814L42.58125 337.15314L48.26875 337.15314L48.26875 338.4969L43.70625 338.4969L43.08125 341.575Q44.1125 340.85626 45.253124 340.85626Q46.753124 340.85626 47.784374 341.90314Q48.815624 342.9344 48.815624 344.5594Q48.815624 346.1219 47.909374 347.2469Q46.8 348.65314 44.89375 348.65314Q43.33125 348.65314 42.346874 347.77814Q41.3625 346.8875 41.221874 345.45ZM50.4875 339.7469Q50.4875 338.5125 51.096874 337.65314Q51.721874 336.79376 52.89375 336.79376Q53.971874 336.79376 54.675 337.575Q55.378124 338.34064 55.378124 339.825Q55.378124 341.27814 54.659374 342.075Q53.95625 342.85626 52.909374 342.85626Q51.8625 342.85626 51.175 342.09064Q50.4875 341.3094 50.4875 339.7469ZM52.925 337.7625Q52.409374 337.7625 52.05 338.21564Q51.70625 338.66876 51.70625 339.8875Q51.70625 340.98126 52.05 341.4344Q52.409374 341.8875 52.925 341.8875Q53.45625 341.8875 53.8 341.4344Q54.159374 340.98126 54.159374 339.77814Q54.159374 338.66876 53.8 338.21564Q53.45625 337.7625 52.925 337.7625ZM52.940624 348.8719L59.20625 336.79376L60.346874 336.79376L54.096874 348.8719L52.940624 348.8719ZM57.89375 345.7625Q57.89375 344.52814 58.503124 343.66876Q59.128124 342.8094 60.3 342.8094Q61.378124 342.8094 62.08125 343.59064Q62.8 344.35626 62.8 345.84064Q62.8 347.29376 62.08125 348.09064Q61.3625 348.8719 60.315624 348.8719Q59.26875 348.8719 58.58125 348.09064Q57.89375 347.3094 57.89375 345.7625ZM60.346874 343.77814Q59.815624 343.77814 59.45625 344.23126Q59.1125 344.6844 59.1125 345.90314Q59.1125 346.9969 59.45625 347.45Q59.815624 347.90314 60.33125 347.90314Q60.878124 347.90314 61.221874 347.45Q61.565624 346.9969 61.565624 345.79376Q61.565624 344.6844 61.20625 344.23126Q60.8625 343.77814 60.346874 343.77814Z" fill-rule="nonzero"/><path stroke="#757575" stroke-width="1.0" stroke-linecap="butt" d="M18.55 331.95L145.23334 331.95L245.91599 334.2537" fill-rule="nonzero"/><path fill="#9e9e9e" d="M247.91599 334.2537C247.91599 333.1491 247.02055 332.2537 245.91599 332.2537C244.81142 332.2537 243.91599 333.1491 243.91599 334.2537C243.91599 335.35825 244.81142 336.2537 245.91599 336.2537C247.02055 336.2537 247.91599 335.35825 247.91599 334.2537" fill-rule="nonzero"/><path fill="#efefef" d="M506.6844 69.916664L506.6844 58.46354L510.6375 58.46354Q511.96564 58.46354 512.66876 58.61979Q513.65314 58.854164 514.35626 59.447914Q515.2625 60.21354 515.7 61.40104Q516.15314 62.58854 516.15314 64.11979Q516.15314 65.43229 515.84064 66.447914Q515.54376 67.447914 515.0594 68.104164Q514.59064 68.760414 514.02814 69.15104Q513.46564 69.52604 512.65314 69.729164Q511.85626 69.916664 510.825 69.916664L506.6844 69.916664ZM508.2 68.55729L510.65314 68.55729Q511.77814 68.55729 512.41876 68.354164Q513.075 68.135414 513.45 67.760414Q513.9969 67.21354 514.29376 66.30729Q514.59064 65.40104 514.59064 64.104164Q514.59064 62.30729 513.9969 61.33854Q513.41876 60.36979 512.575 60.041664Q511.96564 59.80729 510.60626 59.80729L508.2 59.80729L508.2 68.55729ZM518.5125 60.072914L518.5125 58.46354L519.91876 58.46354L519.91876 60.072914L518.5125 60.072914ZM518.5125 69.916664L518.5125 61.61979L519.91876 61.61979L519.91876 69.916664L518.5125 69.916664ZM522.5125 73.104164L522.5125 61.61979L523.79376 61.61979L523.79376 62.697914Q524.2469 62.05729 524.8094 61.74479Q525.3875 61.43229 526.2 61.43229Q527.2625 61.43229 528.075 61.979164Q528.8875 62.52604 529.29376 63.52604Q529.71564 64.510414 529.71564 65.697914Q529.71564 66.979164 529.2469 67.99479Q528.79376 69.010414 527.91876 69.55729Q527.0594 70.104164 526.09064 70.104164Q525.3875 70.104164 524.825 69.80729Q524.27814 69.510414 523.91876 69.05729L523.91876 73.104164L522.5125 73.104164ZM523.77814 65.80729Q523.77814 67.416664 524.41876 68.18229Q525.075 68.947914 525.9969 68.947914Q526.9344 68.947914 527.60626 68.15104Q528.27814 67.354164 528.27814 65.697914Q528.27814 64.104164 527.6219 63.322914Q526.96564 62.52604 526.0594 62.52604Q525.16876 62.52604 524.46564 63.36979Q523.77814 64.21354 523.77814 65.80729ZM531.48126 69.916664L531.48126 58.46354L532.8875 58.46354L532.8875 69.916664L531.48126 69.916664ZM534.98126 65.760414Q534.98126 63.46354 536.2625 62.354164Q537.34064 61.43229 538.8719 61.43229Q540.59064 61.43229 541.66876 62.55729Q542.7625 63.666664 542.7625 65.65104Q542.7625 67.24479 542.27814 68.166664Q541.79376 69.08854 540.8719 69.604164Q539.96564 70.104164 538.8719 70.104164Q537.1375 70.104164 536.0594 68.99479Q534.98126 67.86979 534.98126 65.760414ZM536.4344 65.760414Q536.4344 67.354164 537.1219 68.15104Q537.825 68.947914 538.8719 68.947914Q539.91876 68.947914 540.60626 68.15104Q541.3094 67.354164 541.3094 65.71354Q541.3094 64.18229 540.60626 63.385414Q539.91876 62.58854 538.8719 62.58854Q537.825 62.58854 537.1219 63.385414Q536.4344 64.166664 536.4344 65.760414ZM544.5125 69.916664L544.5125 61.61979L545.7625 61.61979L545.7625 62.77604Q546.15314 62.166664 546.79376 61.80729Q547.45 61.43229 548.27814 61.43229Q549.2 61.43229 549.79376 61.822914Q550.3875 62.197914 550.6219 62.885414Q551.60626 61.43229 553.1844 61.43229Q554.41876 61.43229 555.075 62.11979Q555.7469 62.791664 555.7469 64.21354L555.7469 69.916664L554.35626 69.916664L554.35626 64.68229Q554.35626 63.83854 554.21564 63.479164Q554.075 63.104164 553.71564 62.885414Q553.35626 62.65104 552.8719 62.65104Q551.9969 62.65104 551.41876 63.229164Q550.84064 63.80729 550.84064 65.08854L550.84064 69.916664L549.4344 69.916664L549.4344 64.52604Q549.4344 63.58854 549.09064 63.11979Q548.7469 62.65104 547.96564 62.65104Q547.3719 62.65104 546.8719 62.96354Q546.3719 63.27604 546.1375 63.885414Q545.91876 64.479164 545.91876 65.604164L545.91876 69.916664L544.5125 69.916664ZM562.91876 68.885414Q562.1375 69.55729 561.41876 69.83854Q560.7 70.104164 559.8719 70.104164Q558.4969 70.104164 557.7625 69.43229Q557.02814 68.760414 557.02814 67.729164Q557.02814 67.11979 557.3094 66.61979Q557.59064 66.104164 558.02814 65.80729Q558.48126 65.49479 559.04376 65.33854Q559.46564 65.229164 560.29376 65.135414Q561.9969 64.93229 562.8094 64.65104Q562.8094 64.354164 562.8094 64.27604Q562.8094 63.416664 562.41876 63.072914Q561.8719 62.58854 560.8094 62.58854Q559.825 62.58854 559.34064 62.947914Q558.8719 63.291664 558.65314 64.166664L557.27814 63.979164Q557.46564 63.104164 557.8875 62.55729Q558.325 62.010414 559.1375 61.729164Q559.95 61.43229 561.0125 61.43229Q562.075 61.43229 562.73126 61.68229Q563.40314 61.93229 563.71564 62.30729Q564.02814 62.68229 564.15314 63.260414Q564.23126 63.61979 564.23126 64.55729L564.23126 66.43229Q564.23126 68.40104 564.3094 68.916664Q564.40314 69.43229 564.66876 69.916664L563.2 69.916664Q562.98126 69.479164 562.91876 68.885414ZM562.8094 65.74479Q562.04376 66.05729 560.5125 66.27604Q559.6375 66.40104 559.27814 66.55729Q558.91876 66.71354 558.71564 67.02604Q558.52814 67.322914 558.52814 67.68229Q558.52814 68.24479 558.95 68.61979Q559.3875 68.99479 560.2 68.99479Q561.0125 68.99479 561.6375 68.65104Q562.27814 68.291664 562.575 67.666664Q562.8094 67.197914 562.8094 66.260414L562.8094 65.74479ZM569.575 68.65104L569.77814 69.90104Q569.1844 70.02604 568.71564 70.02604Q567.95 70.02604 567.52814 69.791664Q567.10626 69.541664 566.9344 69.15104Q566.7625 68.74479 566.7625 67.479164L566.7625 62.71354L565.73126 62.71354L565.73126 61.61979L566.7625 61.61979L566.7625 59.55729L568.16876 58.71354L568.16876 61.61979L569.575 61.61979L569.575 62.71354L568.16876 62.71354L568.16876 67.55729Q568.16876 68.166664 568.23126 68.33854Q568.3094 68.510414 568.48126 68.61979Q568.65314 68.71354 568.96564 68.71354Q569.2 68.71354 569.575 68.65104ZM570.5125 60.072914L570.5125 58.46354L571.91876 58.46354L571.91876 60.072914L570.5125 60.072914ZM570.5125 69.916664L570.5125 61.61979L571.91876 61.61979L571.91876 69.916664L570.5125 69.916664ZM579.91876 66.86979L581.3094 67.05729Q581.075 68.479164 580.1375 69.291664Q579.21564 70.104164 577.85626 70.104164Q576.15314 70.104164 575.10626 68.99479Q574.075 67.86979 574.075 65.791664Q574.075 64.447914 574.5125 63.447914Q574.96564 62.43229 575.8719 61.93229Q576.79376 61.43229 577.85626 61.43229Q579.21564 61.43229 580.075 62.11979Q580.9344 62.791664 581.16876 64.05729L579.8094 64.260414Q579.60626 63.43229 579.10626 63.010414Q578.6219 62.58854 577.91876 62.58854Q576.85626 62.58854 576.1844 63.354164Q575.52814 64.104164 575.52814 65.760414Q575.52814 67.43229 576.16876 68.197914Q576.8094 68.947914 577.84064 68.947914Q578.66876 68.947914 579.21564 68.447914Q579.77814 67.93229 579.91876 66.86979Z" fill-rule="nonzero"/><path fill="#9e9e9e" d="M542.41876 91.916664L541.0125 91.916664L541.0125 82.947914Q540.4969 83.43229 539.66876 83.916664Q538.85626 84.40104 538.2 84.65104L538.2 83.291664Q539.3719 82.729164 540.2469 81.947914Q541.1375 81.15104 541.5125 80.416664L542.41876 80.416664L542.41876 91.916664ZM553.5125 90.55729L553.5125 91.916664L545.9344 91.916664Q545.91876 91.40104 546.10626 90.93229Q546.3875 90.166664 547.02814 89.416664Q547.66876 88.666664 548.8719 87.68229Q550.73126 86.15104 551.3875 85.260414Q552.04376 84.354164 552.04376 83.55729Q552.04376 82.729164 551.45 82.15104Q550.85626 81.572914 549.8875 81.572914Q548.8719 81.572914 548.2625 82.18229Q547.65314 82.791664 547.65314 83.86979L546.2 83.729164Q546.35626 82.104164 547.325 81.260414Q548.29376 80.416664 549.91876 80.416664Q551.575 80.416664 552.52814 81.33854Q553.4969 82.24479 553.4969 83.58854Q553.4969 84.27604 553.21564 84.947914Q552.9344 85.604164 552.27814 86.33854Q551.6219 87.072914 550.10626 88.354164Q548.84064 89.416664 548.48126 89.80729Q548.1219 90.18229 547.8875 90.55729L553.5125 90.55729ZM555.90314 91.916664L555.90314 90.30729L557.5125 90.30729L557.5125 91.916664L555.90314 91.916664ZM559.1219 88.916664L560.59064 88.791664Q560.7625 89.86979 561.35626 90.416664Q561.95 90.947914 562.79376 90.947914Q563.8094 90.947914 564.5125 90.18229Q565.21564 89.416664 565.21564 88.15104Q565.21564 86.947914 564.54376 86.260414Q563.8719 85.55729 562.77814 85.55729Q562.09064 85.55729 561.54376 85.86979Q560.9969 86.18229 560.6844 86.666664L559.3719 86.49479L560.48126 80.61979L566.16876 80.61979L566.16876 81.96354L561.60626 81.96354L560.98126 85.041664Q562.0125 84.322914 563.15314 84.322914Q564.65314 84.322914 565.6844 85.36979Q566.71564 86.40104 566.71564 88.02604Q566.71564 89.58854 565.8094 90.71354Q564.7 92.11979 562.79376 92.11979Q561.23126 92.11979 560.2469 91.24479Q559.2625 90.354164 559.1219 88.916664ZM568.3875 83.21354Q568.3875 81.979164 568.9969 81.11979Q569.6219 80.260414 570.79376 80.260414Q571.8719 80.260414 572.575 81.041664Q573.27814 81.80729 573.27814 83.291664Q573.27814 84.74479 572.5594 85.541664Q571.85626 86.322914 570.8094 86.322914Q569.7625 86.322914 569.075 85.55729Q568.3875 84.77604 568.3875 83.21354ZM570.825 81.229164Q570.3094 81.229164 569.95 81.68229Q569.60626 82.135414 569.60626 83.354164Q569.60626 84.447914 569.95 84.90104Q570.3094 85.354164 570.825 85.354164Q571.35626 85.354164 571.7 84.90104Q572.0594 84.447914 572.0594 83.24479Q572.0594 82.135414 571.7 81.68229Q571.35626 81.229164 570.825 81.229164ZM570.84064 92.33854L577.10626 80.260414L578.2469 80.260414L571.9969 92.33854L570.84064 92.33854ZM575.79376 89.229164Q575.79376 87.99479 576.40314 87.135414Q577.02814 86.27604 578.2 86.27604Q579.27814 86.27604 579.98126 87.05729Q580.7 87.822914 580.7 89.30729Q580.7 90.760414 579.98126 91.55729Q579.2625 92.33854 578.21564 92.33854Q577.16876 92.33854 576.48126 91.55729Q575.79376 90.77604 575.79376 89.229164ZM578.2469 87.24479Q577.71564 87.24479 577.35626 87.697914Q577.0125 88.15104 577.0125 89.36979Q577.0125 90.46354 577.35626 90.916664Q577.71564 91.36979 578.23126 91.36979Q578.77814 91.36979 579.1219 90.916664Q579.46564 90.46354 579.46564 89.260414Q579.46564 88.15104 579.10626 87.697914Q578.7625 87.24479 578.2469 87.24479Z" fill-rule="nonzero"/><path stroke="#757575" stroke-width="1.0" stroke-linecap="butt" d="M581.45 75.416664L454.76666 75.416664L354.084 73.112976" fill-rule="nonzero"/><path fill="#9e9e9e" d="M356.084 73.112976C356.084 72.00841 355.18857 71.112976 354.084 71.112976C352.97943 71.112976 352.084 72.00841 352.084 73.112976C352.084 74.217545 352.97943 75.112976 354.084 75.112976C355.18857 75.112976 356.084 74.217545 356.084 73.112976" fill-rule="nonzero"/><path fill="#efefef" d="M481.41876 198.18333L485.825 186.73021L487.46564 186.73021L492.15314 198.18333L490.41876 198.18333L489.09064 194.71458L484.29376 194.71458L483.04376 198.18333L481.41876 198.18333ZM484.73126 193.48021L488.6219 193.48021L487.41876 190.30833Q486.8719 188.85521 486.60626 187.93333Q486.3875 189.02708 485.9969 190.12083L484.73126 193.48021ZM493.4969 198.18333L493.4969 189.88646L494.7625 189.88646L494.7625 191.13646Q495.2469 190.26146 495.65314 189.98021Q496.0594 189.69896 496.5594 189.69896Q497.2625 189.69896 497.9969 190.15208L497.5125 191.44896Q496.9969 191.15208 496.48126 191.15208Q496.02814 191.15208 495.65314 191.43333Q495.29376 191.69896 495.1375 192.19896Q494.90314 192.94896 494.90314 193.83958L494.90314 198.18333L493.4969 198.18333ZM503.91876 195.13646L505.3094 195.32396Q505.075 196.74583 504.1375 197.55833Q503.21564 198.37083 501.85626 198.37083Q500.15314 198.37083 499.10626 197.26146Q498.075 196.13646 498.075 194.05833Q498.075 192.71458 498.5125 191.71458Q498.96564 190.69896 499.8719 190.19896Q500.79376 189.69896 501.85626 189.69896Q503.21564 189.69896 504.075 190.38646Q504.9344 191.05833 505.16876 192.32396L503.8094 192.52708Q503.60626 191.69896 503.10626 191.27708Q502.6219 190.85521 501.91876 190.85521Q500.85626 190.85521 500.1844 191.62083Q499.52814 192.37083 499.52814 194.02708Q499.52814 195.69896 500.16876 196.46458Q500.8094 197.21458 501.84064 197.21458Q502.66876 197.21458 503.21564 196.71458Q503.77814 196.19896 503.91876 195.13646ZM506.5125 198.18333L506.5125 186.73021L507.91876 186.73021L507.91876 190.83958Q508.90314 189.69896 510.40314 189.69896Q511.325 189.69896 511.9969 190.05833Q512.6844 190.41771 512.96564 191.05833Q513.2625 191.69896 513.2625 192.91771L513.2625 198.18333L511.85626 198.18333L511.85626 192.91771Q511.85626 191.87083 511.40314 191.38646Q510.95 190.90208 510.10626 190.90208Q509.48126 190.90208 508.9344 191.23021Q508.3875 191.55833 508.15314 192.12083Q507.91876 192.66771 507.91876 193.63646L507.91876 198.18333L506.5125 198.18333ZM515.5125 188.33958L515.5125 186.73021L516.91876 186.73021L516.91876 188.33958L515.5125 188.33958ZM515.5125 198.18333L515.5125 189.88646L516.91876 189.88646L516.91876 198.18333L515.5125 198.18333ZM522.575 196.91771L522.77814 198.16771Q522.1844 198.29271 521.71564 198.29271Q520.95 198.29271 520.52814 198.05833Q520.10626 197.80833 519.9344 197.41771Q519.7625 197.01146 519.7625 195.74583L519.7625 190.98021L518.73126 190.98021L518.73126 189.88646L519.7625 189.88646L519.7625 187.82396L521.16876 186.98021L521.16876 189.88646L522.575 189.88646L522.575 190.98021L521.16876 190.98021L521.16876 195.82396Q521.16876 196.43333 521.23126 196.60521Q521.3094 196.77708 521.48126 196.88646Q521.65314 196.98021 521.96564 196.98021Q522.2 196.98021 522.575 196.91771ZM529.1844 195.51146L530.6375 195.68333Q530.29376 196.96458 529.35626 197.66771Q528.4344 198.37083 526.9969 198.37083Q525.16876 198.37083 524.10626 197.24583Q523.04376 196.12083 523.04376 194.10521Q523.04376 192.01146 524.1219 190.85521Q525.2 189.69896 526.91876 189.69896Q528.575 189.69896 529.6219 190.83958Q530.6844 191.96458 530.6844 194.01146Q530.6844 194.13646 530.6844 194.38646L524.4969 194.38646Q524.575 195.76146 525.2625 196.49583Q525.96564 197.21458 526.9969 197.21458Q527.77814 197.21458 528.325 196.80833Q528.8719 196.40208 529.1844 195.51146ZM524.575 193.23021L529.2 193.23021Q529.10626 192.18333 528.66876 191.66771Q527.9969 190.85521 526.9344 190.85521Q525.96564 190.85521 525.29376 191.51146Q524.6375 192.15208 524.575 193.23021ZM537.91876 195.13646L539.3094 195.32396Q539.075 196.74583 538.1375 197.55833Q537.21564 198.37083 535.85626 198.37083Q534.15314 198.37083 533.10626 197.26146Q532.075 196.13646 532.075 194.05833Q532.075 192.71458 532.5125 191.71458Q532.96564 190.69896 533.8719 190.19896Q534.79376 189.69896 535.85626 189.69896Q537.21564 189.69896 538.075 190.38646Q538.9344 191.05833 539.16876 192.32396L537.8094 192.52708Q537.60626 191.69896 537.10626 191.27708Q536.6219 190.85521 535.91876 190.85521Q534.85626 190.85521 534.1844 191.62083Q533.52814 192.37083 533.52814 194.02708Q533.52814 195.69896 534.16876 196.46458Q534.8094 197.21458 535.84064 197.21458Q536.66876 197.21458 537.21564 196.71458Q537.77814 196.19896 537.91876 195.13646ZM543.575 196.91771L543.77814 198.16771Q543.1844 198.29271 542.71564 198.29271Q541.95 198.29271 541.52814 198.05833Q541.10626 197.80833 540.9344 197.41771Q540.7625 197.01146 540.7625 195.74583L540.7625 190.98021L539.73126 190.98021L539.73126 189.88646L540.7625 189.88646L540.7625 187.82396L542.16876 186.98021L542.16876 189.88646L543.575 189.88646L543.575 190.98021L542.16876 190.98021L542.16876 195.82396Q542.16876 196.43333 542.23126 196.60521Q542.3094 196.77708 542.48126 196.88646Q542.65314 196.98021 542.96564 196.98021Q543.2 196.98021 543.575 196.91771ZM549.95 198.18333L549.95 196.96458Q548.98126 198.37083 547.3094 198.37083Q546.575 198.37083 545.9344 198.08958Q545.3094 197.80833 544.9969 197.38646Q544.6844 196.94896 544.5594 196.33958Q544.48126 195.91771 544.48126 195.02708L544.48126 189.88646L545.8875 189.88646L545.8875 194.48021Q545.8875 195.58958 545.96564 195.96458Q546.10626 196.52708 546.52814 196.83958Q546.96564 197.15208 547.59064 197.15208Q548.23126 197.15208 548.77814 196.83958Q549.34064 196.51146 549.5594 195.94896Q549.79376 195.38646 549.79376 194.32396L549.79376 189.88646L551.2 189.88646L551.2 198.18333L549.95 198.18333ZM553.4969 198.18333L553.4969 189.88646L554.7625 189.88646L554.7625 191.13646Q555.2469 190.26146 555.65314 189.98021Q556.0594 189.69896 556.5594 189.69896Q557.2625 189.69896 557.9969 190.15208L557.5125 191.44896Q556.9969 191.15208 556.48126 191.15208Q556.02814 191.15208 555.65314 191.43333Q555.29376 191.69896 555.1375 192.19896Q554.90314 192.94896 554.90314 193.83958L554.90314 198.18333L553.4969 198.18333ZM564.1844 195.51146L565.6375 195.68333Q565.29376 196.96458 564.35626 197.66771Q563.4344 198.37083 561.9969 198.37083Q560.16876 198.37083 559.10626 197.24583Q558.04376 196.12083 558.04376 194.10521Q558.04376 192.01146 559.1219 190.85521Q560.2 189.69896 561.91876 189.69896Q563.575 189.69896 564.6219 190.83958Q565.6844 191.96458 565.6844 194.01146Q565.6844 194.13646 565.6844 194.38646L559.4969 194.38646Q559.575 195.76146 560.2625 196.49583Q560.96564 197.21458 561.9969 197.21458Q562.77814 197.21458 563.325 196.80833Q563.8719 196.40208 564.1844 195.51146ZM559.575 193.23021L564.2 193.23021Q564.10626 192.18333 563.66876 191.66771Q562.9969 190.85521 561.9344 190.85521Q560.96564 190.85521 560.29376 191.51146Q559.6375 192.15208 559.575 193.23021ZM578.0594 196.82396Q577.35626 197.60521 576.52814 197.99583Q575.71564 198.38646 574.7625 198.38646Q573.0125 198.38646 571.98126 197.18333Q571.1375 196.21458 571.1375 195.02708Q571.1375 193.96458 571.825 193.10521Q572.5125 192.24583 573.8719 191.60521Q573.09064 190.71458 572.825 190.16771Q572.575 189.60521 572.575 189.08958Q572.575 188.05833 573.3875 187.29271Q574.2 186.52708 575.41876 186.52708Q576.59064 186.52708 577.34064 187.24583Q578.09064 187.96458 578.09064 188.98021Q578.09064 190.60521 575.91876 191.76146L577.98126 194.38646Q578.325 193.69896 578.52814 192.79271L579.98126 193.10521Q579.60626 194.60521 578.96564 195.57396Q579.7625 196.62083 580.7625 197.32396L579.8094 198.44896Q578.96564 197.90208 578.0594 196.82396ZM575.2 190.85521Q576.10626 190.32396 576.3719 189.91771Q576.65314 189.51146 576.65314 189.01146Q576.65314 188.43333 576.27814 188.05833Q575.90314 187.68333 575.35626 187.68333Q574.77814 187.68333 574.40314 188.05833Q574.02814 188.41771 574.02814 188.94896Q574.02814 189.21458 574.15314 189.51146Q574.29376 189.80833 574.575 190.13646L575.2 190.85521ZM577.16876 195.71458L574.59064 192.52708Q573.45 193.19896 573.04376 193.79271Q572.65314 194.37083 572.65314 194.93333Q572.65314 195.63646 573.2 196.38646Q573.7625 197.13646 574.77814 197.13646Q575.41876 197.13646 576.09064 196.74583Q576.7625 196.33958 577.16876 195.71458Z" fill-rule="nonzero"/><path fill="#9e9e9e" d="M544.5125 218.82396L544.5125 220.18333L536.9344 220.18333Q536.91876 219.66771 537.10626 219.19896Q537.3875 218.43333 538.02814 217.68333Q538.66876 216.93333 539.8719 215.94896Q541.73126 214.41771 542.3875 213.52708Q543.04376 212.62083 543.04376 211.82396Q543.04376 210.99583 542.45 210.41771Q541.85626 209.83958 540.8875 209.83958Q539.8719 209.83958 539.2625 210.44896Q538.65314 211.05833 538.65314 212.13646L537.2 211.99583Q537.35626 210.37083 538.325 209.52708Q539.29376 208.68333 540.91876 208.68333Q542.575 208.68333 543.52814 209.60521Q544.4969 210.51146 544.4969 211.85521Q544.4969 212.54271 544.21564 213.21458Q543.9344 213.87083 543.27814 214.60521Q542.6219 215.33958 541.10626 216.62083Q539.84064 217.68333 539.48126 218.07396Q539.1219 218.44896 538.8875 218.82396L544.5125 218.82396ZM546.1219 217.18333L547.59064 217.05833Q547.7625 218.13646 548.35626 218.68333Q548.95 219.21458 549.79376 219.21458Q550.8094 219.21458 551.5125 218.44896Q552.21564 217.68333 552.21564 216.41771Q552.21564 215.21458 551.54376 214.52708Q550.8719 213.82396 549.77814 213.82396Q549.09064 213.82396 548.54376 214.13646Q547.9969 214.44896 547.6844 214.93333L546.3719 214.76146L547.48126 208.88646L553.16876 208.88646L553.16876 210.23021L548.60626 210.23021L547.98126 213.30833Q549.0125 212.58958 550.15314 212.58958Q551.65314 212.58958 552.6844 213.63646Q553.71564 214.66771 553.71564 216.29271Q553.71564 217.85521 552.8094 218.98021Q551.7 220.38646 549.79376 220.38646Q548.23126 220.38646 547.2469 219.51146Q546.2625 218.62083 546.1219 217.18333ZM555.90314 220.18333L555.90314 218.57396L557.5125 218.57396L557.5125 220.18333L555.90314 220.18333ZM559.1219 214.52708Q559.1219 212.49583 559.52814 211.26146Q559.95 210.02708 560.77814 209.35521Q561.60626 208.68333 562.85626 208.68333Q563.77814 208.68333 564.46564 209.05833Q565.16876 209.41771 565.6219 210.12083Q566.075 210.82396 566.325 211.82396Q566.59064 212.82396 566.59064 214.52708Q566.59064 216.54271 566.16876 217.79271Q565.7625 219.02708 564.9344 219.71458Q564.10626 220.38646 562.85626 220.38646Q561.2 220.38646 560.2469 219.18333Q559.1219 217.76146 559.1219 214.52708ZM560.5594 214.52708Q560.5594 217.35521 561.21564 218.29271Q561.8875 219.21458 562.85626 219.21458Q563.825 219.21458 564.48126 218.27708Q565.1375 217.33958 565.1375 214.52708Q565.1375 211.69896 564.48126 210.77708Q563.825 209.83958 562.84064 209.83958Q561.8719 209.83958 561.29376 210.66771Q560.5594 211.71458 560.5594 214.52708ZM568.3875 211.48021Q568.3875 210.24583 568.9969 209.38646Q569.6219 208.52708 570.79376 208.52708Q571.8719 208.52708 572.575 209.30833Q573.27814 210.07396 573.27814 211.55833Q573.27814 213.01146 572.5594 213.80833Q571.85626 214.58958 570.8094 214.58958Q569.7625 214.58958 569.075 213.82396Q568.3875 213.04271 568.3875 211.48021ZM570.825 209.49583Q570.3094 209.49583 569.95 209.94896Q569.60626 210.40208 569.60626 211.62083Q569.60626 212.71458 569.95 213.16771Q570.3094 213.62083 570.825 213.62083Q571.35626 213.62083 571.7 213.16771Q572.0594 212.71458 572.0594 211.51146Q572.0594 210.40208 571.7 209.94896Q571.35626 209.49583 570.825 209.49583ZM570.84064 220.60521L577.10626 208.52708L578.2469 208.52708L571.9969 220.60521L570.84064 220.60521ZM575.79376 217.49583Q575.79376 216.26146 576.40314 215.40208Q577.02814 214.54271 578.2 214.54271Q579.27814 214.54271 579.98126 215.32396Q580.7 216.08958 580.7 217.57396Q580.7 219.02708 579.98126 219.82396Q579.2625 220.60521 578.21564 220.60521Q577.16876 220.60521 576.48126 219.82396Q575.79376 219.04271 575.79376 217.49583ZM578.2469 215.51146Q577.71564 215.51146 577.35626 215.96458Q577.0125 216.41771 577.0125 217.63646Q577.0125 218.73021 577.35626 219.18333Q577.71564 219.63646 578.23126 219.63646Q578.77814 219.63646 579.1219 219.18333Q579.46564 218.73021 579.46564 217.52708Q579.46564 216.41771 579.10626 215.96458Q578.7625 215.51146 578.2469 215.51146Z" fill-rule="nonzero"/><path stroke="#757575" stroke-width="1.0" stroke-linecap="butt" d="M581.45 203.68333L454.76666 203.68333L441.32834 203.68333" fill-rule="nonzero"/><path fill="#9e9e9e" d="M443.32834 203.68333C443.32834 202.57877 442.4329 201.68333 441.32834 201.68333C440.22375 201.68333 439.32834 202.57877 439.32834 203.68333C439.32834 204.7879 440.22375 205.68333 441.32834 205.68333C442.4329 205.68333 443.32834 204.7879 443.32834 203.68333" fill-rule="nonzero"/><path fill="#f3f3f3" d="M271.26562 32.534374L273.15625 33.003124Q272.5625 35.346874 271.01562 36.58125Q269.46875 37.8 267.21875 37.8Q264.90625 37.8 263.45312 36.8625Q262.01562 35.909374 261.25 34.128124Q260.5 32.33125 260.5 30.284374Q260.5 28.05 261.34375 26.39375Q262.20312 24.721874 263.78125 23.8625Q265.35938 22.9875 267.25 22.9875Q269.40625 22.9875 270.85938 24.08125Q272.32812 25.175 272.90625 27.159374L271.04688 27.596874Q270.54688 26.034374 269.59375 25.33125Q268.65625 24.6125 267.21875 24.6125Q265.5625 24.6125 264.45312 25.409374Q263.34375 26.190624 262.89062 27.534374Q262.45312 28.8625 262.45312 30.26875Q262.45312 32.096874 262.98438 33.471874Q263.51562 34.83125 264.64062 35.503124Q265.76562 36.175 267.0625 36.175Q268.65625 36.175 269.76562 35.253124Q270.875 34.33125 271.26562 32.534374ZM281.59375 36.26875Q280.60938 37.096874 279.70312 37.440624Q278.79688 37.784374 277.76562 37.784374Q276.0625 37.784374 275.14062 36.95625Q274.21875 36.1125 274.21875 34.815624Q274.21875 34.05 274.5625 33.425Q274.92188 32.8 275.48438 32.425Q276.04688 32.034374 276.75 31.83125Q277.26562 31.70625 278.3125 31.565624Q280.4375 31.315624 281.4375 30.971874Q281.45312 30.6125 281.45312 30.503124Q281.45312 29.440624 280.95312 28.9875Q280.28125 28.39375 278.95312 28.39375Q277.70312 28.39375 277.10938 28.83125Q276.53125 29.26875 276.25 30.378124L274.53125 30.14375Q274.76562 29.034374 275.29688 28.3625Q275.82812 27.675 276.84375 27.315624Q277.85938 26.940624 279.20312 26.940624Q280.53125 26.940624 281.35938 27.253124Q282.1875 27.565624 282.57812 28.05Q282.96875 28.51875 283.125 29.2375Q283.21875 29.690624 283.21875 30.8625L283.21875 33.20625Q283.21875 35.659374 283.32812 36.315624Q283.4375 36.95625 283.78125 37.55L281.9375 37.55Q281.67188 37.003124 281.59375 36.26875ZM281.4375 32.346874Q280.48438 32.7375 278.5625 33.003124Q277.48438 33.159374 277.03125 33.3625Q276.59375 33.55 276.34375 33.925Q276.09375 34.3 276.09375 34.76875Q276.09375 35.471874 276.625 35.940624Q277.15625 36.409374 278.1875 36.409374Q279.20312 36.409374 279.98438 35.971874Q280.78125 35.51875 281.15625 34.753124Q281.4375 34.14375 281.4375 32.9875L281.4375 32.346874ZM289.65625 35.971874L289.90625 37.534374Q289.17188 37.690624 288.57812 37.690624Q287.625 37.690624 287.09375 37.39375Q286.57812 37.08125 286.35938 36.596874Q286.14062 36.096874 286.14062 34.51875L286.14062 28.55L284.85938 28.55L284.85938 27.175L286.14062 27.175L286.14062 24.6125L287.89062 23.55L287.89062 27.175L289.65625 27.175L289.65625 28.55L287.89062 28.55L287.89062 34.6125Q287.89062 35.3625 287.98438 35.58125Q288.07812 35.784374 288.28125 35.925Q288.5 36.05 288.89062 36.05Q289.17188 36.05 289.65625 35.971874ZM298.92188 34.20625L300.73438 34.440624Q300.3125 36.01875 299.14062 36.909374Q297.98438 37.784374 296.17188 37.784374Q293.90625 37.784374 292.5625 36.39375Q291.23438 34.9875 291.23438 32.45625Q291.23438 29.83125 292.57812 28.39375Q293.92188 26.940624 296.07812 26.940624Q298.15625 26.940624 299.46875 28.3625Q300.79688 29.76875 300.79688 32.346874Q300.79688 32.503124 300.78125 32.815624L293.04688 32.815624Q293.14062 34.51875 294.01562 35.425Q294.89062 36.33125 296.1875 36.33125Q297.15625 36.33125 297.82812 35.83125Q298.51562 35.315624 298.92188 34.20625ZM293.14062 31.3625L298.9375 31.3625Q298.82812 30.065624 298.28125 29.409374Q297.4375 28.39375 296.09375 28.39375Q294.89062 28.39375 294.0625 29.20625Q293.23438 30.003124 293.14062 31.3625ZM302.5 38.409374L304.20312 38.659374Q304.3125 39.45625 304.79688 39.815624Q305.45312 40.3 306.59375 40.3Q307.8125 40.3 308.46875 39.815624Q309.14062 39.33125 309.375 38.45625Q309.51562 37.909374 309.5 36.190624Q308.34375 37.55 306.625 37.55Q304.48438 37.55 303.3125 36.003124Q302.14062 34.45625 302.14062 32.3Q302.14062 30.815624 302.67188 29.565624Q303.21875 28.315624 304.23438 27.628124Q305.26562 26.940624 306.64062 26.940624Q308.46875 26.940624 309.67188 28.425L309.67188 27.175L311.28125 27.175L311.28125 36.14375Q311.28125 38.565624 310.78125 39.565624Q310.29688 40.58125 309.21875 41.159374Q308.15625 41.753124 306.59375 41.753124Q304.75 41.753124 303.59375 40.925Q302.45312 40.096874 302.5 38.409374ZM303.95312 32.175Q303.95312 34.221874 304.76562 35.159374Q305.57812 36.096874 306.79688 36.096874Q308.0 36.096874 308.8125 35.159374Q309.64062 34.221874 309.64062 32.2375Q309.64062 30.33125 308.79688 29.3625Q307.95312 28.39375 306.76562 28.39375Q305.59375 28.39375 304.76562 29.346874Q303.95312 30.3 303.95312 32.175ZM313.17188 32.3625Q313.17188 29.4875 314.76562 28.096874Q316.10938 26.940624 318.03125 26.940624Q320.17188 26.940624 321.51562 28.346874Q322.875 29.753124 322.875 32.221874Q322.875 34.221874 322.28125 35.378124Q321.6875 36.51875 320.53125 37.159374Q319.39062 37.784374 318.03125 37.784374Q315.84375 37.784374 314.5 36.39375Q313.17188 34.9875 313.17188 32.3625ZM314.96875 32.3625Q314.96875 34.3625 315.82812 35.346874Q316.70312 36.33125 318.03125 36.33125Q319.34375 36.33125 320.20312 35.346874Q321.07812 34.346874 321.07812 32.3Q321.07812 30.378124 320.20312 29.39375Q319.32812 28.39375 318.03125 28.39375Q316.70312 28.39375 315.82812 29.39375Q314.96875 30.378124 314.96875 32.3625ZM324.79688 37.55L324.79688 27.175L326.375 27.175L326.375 28.753124Q326.98438 27.64375 327.5 27.3Q328.01562 26.940624 328.625 26.940624Q329.51562 26.940624 330.4375 27.503124L329.82812 29.14375Q329.1875 28.753124 328.54688 28.753124Q327.96875 28.753124 327.5 29.1125Q327.04688 29.45625 326.84375 30.065624Q326.5625 31.003124 326.5625 32.1125L326.5625 37.55L324.79688 37.55ZM331.73438 41.55L331.54688 39.89375Q332.125 40.05 332.54688 40.05Q333.14062 40.05 333.48438 39.846874Q333.84375 39.659374 334.0625 39.315624Q334.23438 39.05 334.60938 38.003124Q334.65625 37.846874 334.76562 37.565624L330.82812 27.175L332.71875 27.175L334.875 33.190624Q335.29688 34.33125 335.625 35.58125Q335.9375 34.378124 336.34375 33.221874L338.5625 27.175L340.32812 27.175L336.375 37.721874Q335.75 39.440624 335.39062 40.08125Q334.92188 40.95625 334.3125 41.346874Q333.71875 41.753124 332.875 41.753124Q332.35938 41.753124 331.73438 41.55Z" fill-rule="nonzero"/></svg>