<svg version="1.1" viewBox="0.0 0.0 600.0 371.0" fill="none" stroke="none" stroke-linecap="square" stroke-miterlimit="10" width="600" height="371" xmlns:xlink="http://www.w3.org/1999/xlink" xmlns="http://www.w3.org/2000/svg"><path fill="#ffffff" fill-opacity="0.0" d="M0 0L600.0 0L600.0 371.0L0 371.0L0 0Z" fill-rule="nonzero"/><path fill="#304388" d="M300.0 54.916668C364.44962 54.916668 421.5695 96.416664 441.4855 157.7119L335.37137 192.19048C330.39236 176.86667 316.1124 166.49167 300.0 166.49167Z" fill-rule="nonzero"/><path fill="#e5a345" d="M212.55714 324.0381C160.4163 286.15555 138.59846 219.00714 158.5145 157.7119C178.43053 96.416664 235.55037 54.916668 300.0 54.916668L300.0 166.49167C283.8876 166.49167 269.60764 176.86667 264.62863 192.19048C259.64963 207.51428 265.10406 224.30139 278.13928 233.77202Z" fill-rule="nonzero"/><path fill="#df8d43" d="M441.4855 157.7119C461.40155 219.00714 439.5837 286.15555 387.44284 324.0381C335.302 361.92062 264.698 361.92062 212.55714 324.0381L278.13928 233.77202C291.1745 243.24266 308.8255 243.24266 321.86072 233.77202C334.89594 224.30139 340.35037 207.51428 335.37137 192.19048Z" fill-rule="nonzero"/><path fill="#ffffff" d="M344.36365 124.982124L344.36365 126.49775L335.84802 126.49775Q335.8324 125.919624 336.03552 125.404Q336.36365 124.529 337.06677 123.68525Q337.78552 122.8415 339.1449 121.732124Q341.23865 120.013374 341.97302 119.013374Q342.72302 117.99775 342.72302 117.107124Q342.72302 116.154 342.05115 115.513374Q341.37927 114.87275 340.30115 114.87275Q339.1449 114.87275 338.4574 115.56025Q337.78552 116.24775 337.7699 117.450874L336.1449 117.279Q336.31677 115.4665 337.3949 114.513374Q338.48865 113.56025 340.3324 113.56025Q342.17615 113.56025 343.25427 114.5915Q344.34802 115.62275 344.34802 117.138374Q344.34802 117.904 344.0199 118.654Q343.7074 119.404 342.97302 120.232124Q342.23865 121.06025 340.53552 122.49775Q339.11365 123.700874 338.7074 124.12275Q338.30115 124.544624 338.05115 124.982124L344.36365 124.982124ZM346.05115 120.138374Q346.05115 117.857124 346.5199 116.4665Q346.98865 115.075874 347.91052 114.325874Q348.84802 113.56025 350.25427 113.56025Q351.28552 113.56025 352.06677 113.982124Q352.84802 114.388374 353.34802 115.18525Q353.86365 115.9665 354.16052 117.107124Q354.4574 118.232124 354.4574 120.138374Q354.4574 122.404 353.98865 123.81025Q353.5199 125.200874 352.5824 125.9665Q351.66052 126.7165 350.25427 126.7165Q348.37927 126.7165 347.31677 125.388374Q346.05115 123.779 346.05115 120.138374ZM347.67615 120.138374Q347.67615 123.31025 348.41052 124.37275Q349.16052 125.419624 350.25427 125.419624Q351.3324 125.419624 352.0824 124.37275Q352.8324 123.31025 352.8324 120.138374Q352.8324 116.9665 352.0824 115.919624Q351.3324 114.87275 350.23865 114.87275Q349.1449 114.87275 348.48865 115.794624Q347.67615 116.9665 347.67615 120.138374ZM356.94177 126.49775L356.94177 124.700874L358.73865 124.700874L358.73865 126.49775L356.94177 126.49775ZM361.05115 120.138374Q361.05115 117.857124 361.5199 116.4665Q361.98865 115.075874 362.91052 114.325874Q363.84802 113.56025 365.25427 113.56025Q366.28552 113.56025 367.06677 113.982124Q367.84802 114.388374 368.34802 115.18525Q368.86365 115.9665 369.16052 117.107124Q369.4574 118.232124 369.4574 120.138374Q369.4574 122.404 368.98865 123.81025Q368.5199 125.200874 367.5824 125.9665Q366.66052 126.7165 365.25427 126.7165Q363.37927 126.7165 362.31677 125.388374Q361.05115 123.779 361.05115 120.138374ZM362.67615 120.138374Q362.67615 123.31025 363.41052 124.37275Q364.16052 125.419624 365.25427 125.419624Q366.3324 125.419624 367.0824 124.37275Q367.8324 123.31025 367.8324 120.138374Q367.8324 116.9665 367.0824 115.919624Q366.3324 114.87275 365.23865 114.87275Q364.1449 114.87275 363.48865 115.794624Q362.67615 116.9665 362.67615 120.138374ZM371.34802 116.700874Q371.34802 115.325874 372.03552 114.357124Q372.73865 113.388374 374.05115 113.388374Q375.2699 113.388374 376.06677 114.263374Q376.86365 115.12275 376.86365 116.81025Q376.86365 118.43525 376.05115 119.325874Q375.25427 120.200874 374.06677 120.200874Q372.91052 120.200874 372.12927 119.3415Q371.34802 118.4665 371.34802 116.700874ZM374.09802 114.482124Q373.50427 114.482124 373.11365 114.99775Q372.72302 115.49775 372.72302 116.857124Q372.72302 118.107124 373.11365 118.607124Q373.5199 119.107124 374.09802 119.107124Q374.69177 119.107124 375.0824 118.607124Q375.47302 118.0915 375.47302 116.74775Q375.47302 115.49775 375.0824 114.99775Q374.69177 114.482124 374.09802 114.482124ZM374.11365 126.9665L381.16052 113.388374L382.44177 113.388374L375.41052 126.9665L374.11365 126.9665ZM379.67615 123.4665Q379.67615 122.0915 380.36365 121.12275Q381.06677 120.154 382.3949 120.154Q383.61365 120.154 384.3949 121.029Q385.19177 121.888374 385.19177 123.575874Q385.19177 125.200874 384.3949 126.0915Q383.59802 126.9665 382.41052 126.9665Q381.23865 126.9665 380.4574 126.0915Q379.67615 125.2165 379.67615 123.4665ZM382.44177 121.24775Q381.84802 121.24775 381.4574 121.763374Q381.06677 122.263374 381.06677 123.638374Q381.06677 124.857124 381.4574 125.37275Q381.84802 125.888374 382.42615 125.888374Q383.03552 125.888374 383.42615 125.37275Q383.81677 124.857124 383.81677 123.513374Q383.81677 122.263374 383.42615 121.763374Q383.03552 121.24775 382.44177 121.24775Z" fill-rule="nonzero"/><path fill="#ffffff" d="M341.11365 293.86893L341.11365 290.7908L335.53552 290.7908L335.53552 289.33768L341.41052 280.9783L342.7074 280.9783L342.7074 289.33768L344.44177 289.33768L344.44177 290.7908L342.7074 290.7908L342.7074 293.86893L341.11365 293.86893ZM341.11365 289.33768L341.11365 283.52518L337.0824 289.33768L341.11365 289.33768ZM346.05115 287.50955Q346.05115 285.2283 346.5199 283.83768Q346.98865 282.44705 347.91052 281.69705Q348.84802 280.93143 350.25427 280.93143Q351.28552 280.93143 352.06677 281.3533Q352.84802 281.75955 353.34802 282.55643Q353.86365 283.33768 354.16052 284.4783Q354.4574 285.6033 354.4574 287.50955Q354.4574 289.77518 353.98865 291.18143Q353.5199 292.57205 352.5824 293.33768Q351.66052 294.08768 350.25427 294.08768Q348.37927 294.08768 347.31677 292.75955Q346.05115 291.15018 346.05115 287.50955ZM347.67615 287.50955Q347.67615 290.68143 348.41052 291.74393Q349.16052 292.7908 350.25427 292.7908Q351.3324 292.7908 352.0824 291.74393Q352.8324 290.68143 352.8324 287.50955Q352.8324 284.33768 352.0824 283.2908Q351.3324 282.24393 350.23865 282.24393Q349.1449 282.24393 348.48865 283.1658Q347.67615 284.33768 347.67615 287.50955ZM356.94177 293.86893L356.94177 292.07205L358.73865 292.07205L358.73865 293.86893L356.94177 293.86893ZM361.05115 287.50955Q361.05115 285.2283 361.5199 283.83768Q361.98865 282.44705 362.91052 281.69705Q363.84802 280.93143 365.25427 280.93143Q366.28552 280.93143 367.06677 281.3533Q367.84802 281.75955 368.34802 282.55643Q368.86365 283.33768 369.16052 284.4783Q369.4574 285.6033 369.4574 287.50955Q369.4574 289.77518 368.98865 291.18143Q368.5199 292.57205 367.5824 293.33768Q366.66052 294.08768 365.25427 294.08768Q363.37927 294.08768 362.31677 292.75955Q361.05115 291.15018 361.05115 287.50955ZM362.67615 287.50955Q362.67615 290.68143 363.41052 291.74393Q364.16052 292.7908 365.25427 292.7908Q366.3324 292.7908 367.0824 291.74393Q367.8324 290.68143 367.8324 287.50955Q367.8324 284.33768 367.0824 283.2908Q366.3324 282.24393 365.23865 282.24393Q364.1449 282.24393 363.48865 283.1658Q362.67615 284.33768 362.67615 287.50955ZM371.34802 284.07205Q371.34802 282.69705 372.03552 281.7283Q372.73865 280.75955 374.05115 280.75955Q375.2699 280.75955 376.06677 281.63455Q376.86365 282.49393 376.86365 284.18143Q376.86365 285.80643 376.05115 286.69705Q375.25427 287.57205 374.06677 287.57205Q372.91052 287.57205 372.12927 286.71268Q371.34802 285.83768 371.34802 284.07205ZM374.09802 281.8533Q373.50427 281.8533 373.11365 282.36893Q372.72302 282.86893 372.72302 284.2283Q372.72302 285.4783 373.11365 285.9783Q373.5199 286.4783 374.09802 286.4783Q374.69177 286.4783 375.0824 285.9783Q375.47302 285.46268 375.47302 284.11893Q375.47302 282.86893 375.0824 282.36893Q374.69177 281.8533 374.09802 281.8533ZM374.11365 294.33768L381.16052 280.75955L382.44177 280.75955L375.41052 294.33768L374.11365 294.33768ZM379.67615 290.83768Q379.67615 289.46268 380.36365 288.49393Q381.06677 287.52518 382.3949 287.52518Q383.61365 287.52518 384.3949 288.40018Q385.19177 289.25955 385.19177 290.94705Q385.19177 292.57205 384.3949 293.46268Q383.59802 294.33768 382.41052 294.33768Q381.23865 294.33768 380.4574 293.46268Q379.67615 292.58768 379.67615 290.83768ZM382.44177 288.61893Q381.84802 288.61893 381.4574 289.13455Q381.06677 289.63455 381.06677 291.00955Q381.06677 292.2283 381.4574 292.74393Q381.84802 293.25955 382.42615 293.25955Q383.03552 293.25955 383.42615 292.74393Q383.81677 292.2283 383.81677 290.88455Q383.81677 289.63455 383.42615 289.13455Q383.03552 288.61893 382.44177 288.61893Z" fill-rule="nonzero"/><path fill="#ffffff" d="M183.2411 178.64293L183.2411 175.5648L177.66298 175.5648L177.66298 174.11168L183.53798 165.7523L184.83485 165.7523L184.83485 174.11168L186.56923 174.11168L186.56923 175.5648L184.83485 175.5648L184.83485 178.64293L183.2411 178.64293ZM183.2411 174.11168L183.2411 168.29918L179.20985 174.11168L183.2411 174.11168ZM188.1786 172.28355Q188.1786 170.0023 188.64735 168.61168Q189.1161 167.22105 190.03798 166.47105Q190.97548 165.70543 192.38173 165.70543Q193.41298 165.70543 194.19423 166.1273Q194.97548 166.53355 195.47548 167.33043Q195.9911 168.11168 196.28798 169.2523Q196.58485 170.3773 196.58485 172.28355Q196.58485 174.54918 196.1161 175.95543Q195.64735 177.34605 194.70985 178.11168Q193.78798 178.86168 192.38173 178.86168Q190.50673 178.86168 189.44423 177.53355Q188.1786 175.92418 188.1786 172.28355ZM189.8036 172.28355Q189.8036 175.45543 190.53798 176.51793Q191.28798 177.5648 192.38173 177.5648Q193.45985 177.5648 194.20985 176.51793Q194.95985 175.45543 194.95985 172.28355Q194.95985 169.11168 194.20985 168.0648Q193.45985 167.01793 192.3661 167.01793Q191.27235 167.01793 190.6161 167.9398Q189.8036 169.11168 189.8036 172.28355ZM199.06923 178.64293L199.06923 176.84605L200.8661 176.84605L200.8661 178.64293L199.06923 178.64293ZM203.1786 172.28355Q203.1786 170.0023 203.64735 168.61168Q204.1161 167.22105 205.03798 166.47105Q205.97548 165.70543 207.38173 165.70543Q208.41298 165.70543 209.19423 166.1273Q209.97548 166.53355 210.47548 167.33043Q210.9911 168.11168 211.28798 169.2523Q211.58485 170.3773 211.58485 172.28355Q211.58485 174.54918 211.1161 175.95543Q210.64735 177.34605 209.70985 178.11168Q208.78798 178.86168 207.38173 178.86168Q205.50673 178.86168 204.44423 177.53355Q203.1786 175.92418 203.1786 172.28355ZM204.8036 172.28355Q204.8036 175.45543 205.53798 176.51793Q206.28798 177.5648 207.38173 177.5648Q208.45985 177.5648 209.20985 176.51793Q209.95985 175.45543 209.95985 172.28355Q209.95985 169.11168 209.20985 168.0648Q208.45985 167.01793 207.3661 167.01793Q206.27235 167.01793 205.6161 167.9398Q204.8036 169.11168 204.8036 172.28355ZM213.47548 168.84605Q213.47548 167.47105 214.16298 166.5023Q214.8661 165.53355 216.1786 165.53355Q217.39735 165.53355 218.19423 166.40855Q218.9911 167.26793 218.9911 168.95543Q218.9911 170.58043 218.1786 171.47105Q217.38173 172.34605 216.19423 172.34605Q215.03798 172.34605 214.25673 171.48668Q213.47548 170.61168 213.47548 168.84605ZM216.22548 166.6273Q215.63173 166.6273 215.2411 167.14293Q214.85048 167.64293 214.85048 169.0023Q214.85048 170.2523 215.2411 170.7523Q215.64735 171.2523 216.22548 171.2523Q216.81923 171.2523 217.20985 170.7523Q217.60048 170.23668 217.60048 168.89293Q217.60048 167.64293 217.20985 167.14293Q216.81923 166.6273 216.22548 166.6273ZM216.2411 179.11168L223.28798 165.53355L224.56923 165.53355L217.53798 179.11168L216.2411 179.11168ZM221.8036 175.61168Q221.8036 174.23668 222.4911 173.26793Q223.19423 172.29918 224.52235 172.29918Q225.7411 172.29918 226.52235 173.17418Q227.31923 174.03355 227.31923 175.72105Q227.31923 177.34605 226.52235 178.23668Q225.72548 179.11168 224.53798 179.11168Q223.3661 179.11168 222.58485 178.23668Q221.8036 177.36168 221.8036 175.61168ZM224.56923 173.39293Q223.97548 173.39293 223.58485 173.90855Q223.19423 174.40855 223.19423 175.78355Q223.19423 177.0023 223.58485 177.51793Q223.97548 178.03355 224.5536 178.03355Q225.16298 178.03355 225.5536 177.51793Q225.94423 177.0023 225.94423 175.65855Q225.94423 174.40855 225.5536 173.90855Q225.16298 173.39293 224.56923 173.39293Z" fill-rule="nonzero"/><path stroke="#ffffff" stroke-width="1.0" stroke-linejoin="round" stroke-linecap="round" d="M335.37137 192.19048C330.39236 176.86667 316.1124 166.49167 300.0 166.49167L300.0 54.916668C364.44962 54.916668 421.5695 96.416664 441.4855 157.7119" fill-rule="nonzero"/><path stroke="#ffffff" stroke-width="1.0" stroke-linejoin="round" stroke-linecap="round" d="M278.13928 233.77202C291.1745 243.24266 308.8255 243.24266 321.86072 233.77202C334.89594 224.30139 340.35037 207.51428 335.37137 192.19048L441.4855 157.7119C461.40155 219.00714 439.5837 286.15555 387.44284 324.0381C335.302 361.92062 264.698 361.92062 212.55714 324.0381" fill-rule="nonzero"/><path stroke="#ffffff" stroke-width="1.0" stroke-linejoin="round" stroke-linecap="round" d="M300.0 166.49167C283.8876 166.49167 269.60764 176.86667 264.62863 192.19048C259.64963 207.51428 265.10406 224.30139 278.13928 233.77202L212.55714 324.0381C160.4163 286.15555 138.59846 219.00714 158.5145 157.7119C178.43053 96.416664 235.55037 54.916668 300.0 54.916668" fill-rule="nonzero"/><path fill="#efefef" d="M27.3 143.05736L28.815624 143.05736L28.815624 149.66673Q28.815624 151.40111 28.425 152.41673Q28.034374 153.43236 27.01875 154.07298Q26.003124 154.71361 24.346874 154.71361Q22.7375 154.71361 21.70625 154.15111Q20.690624 153.58861 20.253124 152.54173Q19.815624 151.49486 19.815624 149.66673L19.815624 143.05736L21.33125 143.05736L21.33125 149.66673Q21.33125 151.15111 21.596874 151.86986Q21.878124 152.57298 22.55 152.96361Q23.2375 153.33861 24.20625 153.33861Q25.878124 153.33861 26.58125 152.58861Q27.3 151.82298 27.3 149.66673L27.3 143.05736ZM31.596874 154.51048L31.596874 146.21361L32.8625 146.21361L32.8625 147.46361Q33.346874 146.58861 33.753124 146.30736Q34.159374 146.02611 34.659374 146.02611Q35.3625 146.02611 36.096874 146.47923L35.6125 147.77611Q35.096874 147.47923 34.58125 147.47923Q34.128124 147.47923 33.753124 147.76048Q33.39375 148.02611 33.2375 148.52611Q33.003124 149.27611 33.003124 150.16673L33.003124 154.51048L31.596874 154.51048ZM37.909374 154.51048L36.596874 154.51048L36.596874 143.05736L38.003124 143.05736L38.003124 147.13548Q38.89375 146.02611 40.284374 146.02611Q41.05 146.02611 41.721874 146.33861Q42.409374 146.63548 42.846874 147.19798Q43.3 147.76048 43.55 148.55736Q43.8 149.33861 43.8 150.22923Q43.8 152.36986 42.7375 153.54173Q41.690624 154.69798 40.20625 154.69798Q38.7375 154.69798 37.909374 153.46361L37.909374 154.51048ZM37.89375 150.29173Q37.89375 151.79173 38.3 152.44798Q38.95625 153.54173 40.096874 153.54173Q41.01875 153.54173 41.690624 152.74486Q42.3625 151.93236 42.3625 150.35423Q42.3625 148.72923 41.70625 147.96361Q41.065624 147.18236 40.159374 147.18236Q39.2375 147.18236 38.565624 147.97923Q37.89375 148.77611 37.89375 150.29173ZM51.01875 153.47923Q50.2375 154.15111 49.51875 154.43236Q48.8 154.69798 47.971874 154.69798Q46.596874 154.69798 45.8625 154.02611Q45.128124 153.35423 45.128124 152.32298Q45.128124 151.71361 45.409374 151.21361Q45.690624 150.69798 46.128124 150.40111Q46.58125 150.08861 47.14375 149.93236Q47.565624 149.82298 48.39375 149.72923Q50.096874 149.52611 50.909374 149.24486Q50.909374 148.94798 50.909374 148.86986Q50.909374 148.01048 50.51875 147.66673Q49.971874 147.18236 48.909374 147.18236Q47.925 147.18236 47.440624 147.54173Q46.971874 147.88548 46.753124 148.76048L45.378124 148.57298Q45.565624 147.69798 45.9875 147.15111Q46.425 146.60423 47.2375 146.32298Q48.05 146.02611 49.1125 146.02611Q50.175 146.02611 50.83125 146.27611Q51.503124 146.52611 51.815624 146.90111Q52.128124 147.27611 52.253124 147.85423Q52.33125 148.21361 52.33125 149.15111L52.33125 151.02611Q52.33125 152.99486 52.409374 153.51048Q52.503124 154.02611 52.76875 154.51048L51.3 154.51048Q51.08125 154.07298 51.01875 153.47923ZM50.909374 150.33861Q50.14375 150.65111 48.6125 150.86986Q47.7375 150.99486 47.378124 151.15111Q47.01875 151.30736 46.815624 151.61986Q46.628124 151.91673 46.628124 152.27611Q46.628124 152.83861 47.05 153.21361Q47.4875 153.58861 48.3 153.58861Q49.1125 153.58861 49.7375 153.24486Q50.378124 152.88548 50.675 152.26048Q50.909374 151.79173 50.909374 150.85423L50.909374 150.33861ZM54.6125 154.51048L54.6125 146.21361L55.878124 146.21361L55.878124 147.38548Q56.784374 146.02611 58.51875 146.02611Q59.26875 146.02611 59.89375 146.29173Q60.51875 146.55736 60.83125 146.99486Q61.14375 147.43236 61.26875 148.04173Q61.346874 148.43236 61.346874 149.40111L61.346874 154.51048L59.940624 154.51048L59.940624 149.46361Q59.940624 148.60423 59.76875 148.18236Q59.6125 147.74486 59.190624 147.49486Q58.784374 147.24486 58.221874 147.24486Q57.315624 147.24486 56.659374 147.82298Q56.01875 148.38548 56.01875 149.97923L56.01875 154.51048L54.6125 154.51048ZM63.05 152.02611L64.44063 151.80736Q64.55 152.65111 65.08125 153.10423Q65.62813 153.54173 66.58125 153.54173Q67.55 153.54173 68.01875 153.15111Q68.4875 152.74486 68.4875 152.21361Q68.4875 151.74486 68.08125 151.46361Q67.78438 151.27611 66.64375 150.99486Q65.09688 150.60423 64.4875 150.32298Q63.89375 150.02611 63.58125 149.52611Q63.284374 149.02611 63.284374 148.41673Q63.284374 147.85423 63.534374 147.38548Q63.784374 146.91673 64.22188 146.60423Q64.55 146.35423 65.1125 146.19798Q65.69063 146.02611 66.33125 146.02611Q67.31563 146.02611 68.05 146.30736Q68.78438 146.58861 69.12813 147.07298Q69.4875 147.54173 69.62813 148.35423L68.25313 148.54173Q68.15938 147.90111 67.70625 147.54173Q67.25313 147.18236 66.44063 147.18236Q65.47188 147.18236 65.05 147.51048Q64.64375 147.82298 64.64375 148.24486Q64.64375 148.52611 64.81563 148.74486Q64.9875 148.96361 65.34688 149.11986Q65.56563 149.19798 66.59688 149.47923Q68.08125 149.86986 68.675 150.13548Q69.26875 150.38548 69.59688 150.86986Q69.94063 151.35423 69.94063 152.07298Q69.94063 152.77611 69.51875 153.40111Q69.1125 154.01048 68.33125 154.35423Q67.56563 154.69798 66.59688 154.69798Q64.97188 154.69798 64.12813 154.02611Q63.284374 153.35423 63.05 152.02611ZM77.01875 151.46361L78.40938 151.65111Q78.175 153.07298 77.2375 153.88548Q76.31563 154.69798 74.95625 154.69798Q73.25313 154.69798 72.20625 153.58861Q71.175 152.46361 71.175 150.38548Q71.175 149.04173 71.6125 148.04173Q72.06563 147.02611 72.97188 146.52611Q73.89375 146.02611 74.95625 146.02611Q76.31563 146.02611 77.175 146.71361Q78.03438 147.38548 78.26875 148.65111L76.90938 148.85423Q76.70625 148.02611 76.20625 147.60423Q75.72188 147.18236 75.01875 147.18236Q73.95625 147.18236 73.28438 147.94798Q72.62813 148.69798 72.62813 150.35423Q72.62813 152.02611 73.26875 152.79173Q73.90938 153.54173 74.94063 153.54173Q75.76875 153.54173 76.31563 153.04173Q76.87813 152.52611 77.01875 151.46361ZM85.01875 153.47923Q84.2375 154.15111 83.51875 154.43236Q82.8 154.69798 81.97188 154.69798Q80.59688 154.69798 79.8625 154.02611Q79.12813 153.35423 79.12813 152.32298Q79.12813 151.71361 79.40938 151.21361Q79.69063 150.69798 80.12813 150.40111Q80.58125 150.08861 81.14375 149.93236Q81.56563 149.82298 82.39375 149.72923Q84.09688 149.52611 84.90938 149.24486Q84.90938 148.94798 84.90938 148.86986Q84.90938 148.01048 84.51875 147.66673Q83.97188 147.18236 82.90938 147.18236Q81.925 147.18236 81.44063 147.54173Q80.97188 147.88548 80.75313 148.76048L79.37813 148.57298Q79.56563 147.69798 79.9875 147.15111Q80.425 146.60423 81.2375 146.32298Q82.05 146.02611 83.1125 146.02611Q84.175 146.02611 84.83125 146.27611Q85.50313 146.52611 85.81563 146.90111Q86.12813 147.27611 86.25313 147.85423Q86.33125 148.21361 86.33125 149.15111L86.33125 151.02611Q86.33125 152.99486 86.40938 153.51048Q86.50313 154.02611 86.76875 154.51048L85.3 154.51048Q85.08125 154.07298 85.01875 153.47923ZM84.90938 150.33861Q84.14375 150.65111 82.6125 150.86986Q81.7375 150.99486 81.37813 151.15111Q81.01875 151.30736 80.81563 151.61986Q80.62813 151.91673 80.62813 152.27611Q80.62813 152.83861 81.05 153.21361Q81.4875 153.58861 82.3 153.58861Q83.1125 153.58861 83.7375 153.24486Q84.37813 152.88548 84.675 152.26048Q84.90938 151.79173 84.90938 150.85423L84.90938 150.33861ZM88.6125 157.69798L88.6125 146.21361L89.89375 146.21361L89.89375 147.29173Q90.34688 146.65111 90.90938 146.33861Q91.4875 146.02611 92.3 146.02611Q93.3625 146.02611 94.175 146.57298Q94.9875 147.11986 95.39375 148.11986Q95.81563 149.10423 95.81563 150.29173Q95.81563 151.57298 95.34688 152.58861Q94.89375 153.60423 94.01875 154.15111Q93.15938 154.69798 92.19063 154.69798Q91.4875 154.69798 90.925 154.40111Q90.37813 154.10423 90.01875 153.65111L90.01875 157.69798L88.6125 157.69798ZM89.87813 150.40111Q89.87813 152.01048 90.51875 152.77611Q91.175 153.54173 92.09688 153.54173Q93.03438 153.54173 93.70625 152.74486Q94.37813 151.94798 94.37813 150.29173Q94.37813 148.69798 93.72188 147.91673Q93.06563 147.11986 92.15938 147.11986Q91.26875 147.11986 90.56563 147.96361Q89.87813 148.80736 89.87813 150.40111ZM103.28438 151.83861L104.7375 152.01048Q104.39375 153.29173 103.45625 153.99486Q102.53438 154.69798 101.09688 154.69798Q99.26875 154.69798 98.20625 153.57298Q97.14375 152.44798 97.14375 150.43236Q97.14375 148.33861 98.22188 147.18236Q99.3 146.02611 101.01875 146.02611Q102.675 146.02611 103.72188 147.16673Q104.78438 148.29173 104.78438 150.33861Q104.78438 150.46361 104.78438 150.71361L98.59688 150.71361Q98.675 152.08861 99.3625 152.82298Q100.06563 153.54173 101.09688 153.54173Q101.87813 153.54173 102.425 153.13548Q102.97188 152.72923 103.28438 151.83861ZM98.675 149.55736L103.3 149.55736Q103.20625 148.51048 102.76875 147.99486Q102.09688 147.18236 101.03438 147.18236Q100.06563 147.18236 99.39375 147.83861Q98.7375 148.47923 98.675 149.55736Z" fill-rule="nonzero"/><path fill="#9e9e9e" d="M23.721874 176.51048L23.721874 173.76048L18.753124 173.76048L18.753124 172.47923L23.9875 165.05736L25.128124 165.05736L25.128124 172.47923L26.675 172.47923L26.675 173.76048L25.128124 173.76048L25.128124 176.51048L23.721874 176.51048ZM23.721874 172.47923L23.721874 167.30736L20.14375 172.47923L23.721874 172.47923ZM28.221874 170.85423Q28.221874 168.82298 28.628124 167.58861Q29.05 166.35423 29.878124 165.68236Q30.70625 165.01048 31.95625 165.01048Q32.878124 165.01048 33.565624 165.38548Q34.26875 165.74486 34.721874 166.44798Q35.175 167.15111 35.425 168.15111Q35.690624 169.15111 35.690624 170.85423Q35.690624 172.86986 35.26875 174.11986Q34.8625 175.35423 34.034374 176.04173Q33.20625 176.71361 31.95625 176.71361Q30.3 176.71361 29.346874 175.51048Q28.221874 174.08861 28.221874 170.85423ZM29.659374 170.85423Q29.659374 173.68236 30.315624 174.61986Q30.9875 175.54173 31.95625 175.54173Q32.925 175.54173 33.58125 174.60423Q34.2375 173.66673 34.2375 170.85423Q34.2375 168.02611 33.58125 167.10423Q32.925 166.16673 31.940624 166.16673Q30.971874 166.16673 30.39375 166.99486Q29.659374 168.04173 29.659374 170.85423ZM38.003124 176.51048L38.003124 174.90111L39.6125 174.90111L39.6125 176.51048L38.003124 176.51048ZM41.221874 170.85423Q41.221874 168.82298 41.628124 167.58861Q42.05 166.35423 42.878124 165.68236Q43.70625 165.01048 44.95625 165.01048Q45.878124 165.01048 46.565624 165.38548Q47.26875 165.74486 47.721874 166.44798Q48.175 167.15111 48.425 168.15111Q48.690624 169.15111 48.690624 170.85423Q48.690624 172.86986 48.26875 174.11986Q47.8625 175.35423 47.034374 176.04173Q46.20625 176.71361 44.95625 176.71361Q43.3 176.71361 42.346874 175.51048Q41.221874 174.08861 41.221874 170.85423ZM42.659374 170.85423Q42.659374 173.68236 43.315624 174.61986Q43.9875 175.54173 44.95625 175.54173Q45.925 175.54173 46.58125 174.60423Q47.2375 173.66673 47.2375 170.85423Q47.2375 168.02611 46.58125 167.10423Q45.925 166.16673 44.940624 166.16673Q43.971874 166.16673 43.39375 166.99486Q42.659374 168.04173 42.659374 170.85423ZM50.4875 167.80736Q50.4875 166.57298 51.096874 165.71361Q51.721874 164.85423 52.89375 164.85423Q53.971874 164.85423 54.675 165.63548Q55.378124 166.40111 55.378124 167.88548Q55.378124 169.33861 54.659374 170.13548Q53.95625 170.91673 52.909374 170.91673Q51.8625 170.91673 51.175 170.15111Q50.4875 169.36986 50.4875 167.80736ZM52.925 165.82298Q52.409374 165.82298 52.05 166.27611Q51.70625 166.72923 51.70625 167.94798Q51.70625 169.04173 52.05 169.49486Q52.409374 169.94798 52.925 169.94798Q53.45625 169.94798 53.8 169.49486Q54.159374 169.04173 54.159374 167.83861Q54.159374 166.72923 53.8 166.27611Q53.45625 165.82298 52.925 165.82298ZM52.940624 176.93236L59.20625 164.85423L60.346874 164.85423L54.096874 176.93236L52.940624 176.93236ZM57.89375 173.82298Q57.89375 172.58861 58.503124 171.72923Q59.128124 170.86986 60.3 170.86986Q61.378124 170.86986 62.08125 171.65111Q62.8 172.41673 62.8 173.90111Q62.8 175.35423 62.08125 176.15111Q61.3625 176.93236 60.315624 176.93236Q59.26875 176.93236 58.58125 176.15111Q57.89375 175.36986 57.89375 173.82298ZM60.346874 171.83861Q59.815624 171.83861 59.45625 172.29173Q59.1125 172.74486 59.1125 173.96361Q59.1125 175.05736 59.45625 175.51048Q59.815624 175.96361 60.33125 175.96361Q60.878124 175.96361 61.221874 175.51048Q61.565624 175.05736 61.565624 173.85423Q61.565624 172.74486 61.20625 172.29173Q60.8625 171.83861 60.346874 171.83861Z" fill-rule="nonzero"/><path stroke="#757575" stroke-width="1.0" stroke-linecap="butt" d="M18.55 160.01048L145.23334 160.01048L165.58876 160.01048" fill-rule="nonzero"/><path fill="#9e9e9e" d="M167.58876 160.01048C167.58876 158.90591 166.69334 158.01048 165.58876 158.01048C164.48419 158.01048 163.58876 158.90591 163.58876 160.01048C163.58876 161.11505 164.48419 162.01048 165.58876 162.01048C166.69334 162.01048 167.58876 161.11505 167.58876 160.01048" fill-rule="nonzero"/><path fill="#efefef" d="M551.6375 83.84631L551.6375 72.39319L553.91876 72.39319L556.6375 80.50256Q557.0125 81.62756 557.1844 82.19006Q557.3719 81.56506 557.79376 80.36194L560.52814 72.39319L562.575 72.39319L562.575 83.84631L561.10626 83.84631L561.10626 74.25256L557.77814 83.84631L556.41876 83.84631L553.10626 74.09631L553.10626 83.84631L551.6375 83.84631ZM569.91876 82.81506Q569.1375 83.48694 568.41876 83.76819Q567.7 84.03381 566.8719 84.03381Q565.4969 84.03381 564.7625 83.36194Q564.02814 82.69006 564.02814 81.65881Q564.02814 81.04944 564.3094 80.54944Q564.59064 80.03381 565.02814 79.73694Q565.48126 79.42444 566.04376 79.26819Q566.46564 79.15881 567.29376 79.06506Q568.9969 78.86194 569.8094 78.58069Q569.8094 78.28381 569.8094 78.20569Q569.8094 77.34631 569.41876 77.00256Q568.8719 76.51819 567.8094 76.51819Q566.825 76.51819 566.34064 76.87756Q565.8719 77.22131 565.65314 78.09631L564.27814 77.90881Q564.46564 77.03381 564.8875 76.48694Q565.325 75.94006 566.1375 75.65881Q566.95 75.36194 568.0125 75.36194Q569.075 75.36194 569.73126 75.61194Q570.40314 75.86194 570.71564 76.23694Q571.02814 76.61194 571.15314 77.19006Q571.23126 77.54944 571.23126 78.48694L571.23126 80.36194Q571.23126 82.33069 571.3094 82.84631Q571.40314 83.36194 571.66876 83.84631L570.2 83.84631Q569.98126 83.40881 569.91876 82.81506ZM569.8094 79.67444Q569.04376 79.98694 567.5125 80.20569Q566.6375 80.33069 566.27814 80.48694Q565.91876 80.64319 565.71564 80.95569Q565.52814 81.25256 565.52814 81.61194Q565.52814 82.17444 565.95 82.54944Q566.3875 82.92444 567.2 82.92444Q568.0125 82.92444 568.6375 82.58069Q569.27814 82.22131 569.575 81.59631Q569.8094 81.12756 569.8094 80.19006L569.8094 79.67444ZM573.5125 87.03381L573.5125 75.54944L574.79376 75.54944L574.79376 76.62756Q575.2469 75.98694 575.8094 75.67444Q576.3875 75.36194 577.2 75.36194Q578.2625 75.36194 579.075 75.90881Q579.8875 76.45569 580.29376 77.45569Q580.71564 78.44006 580.71564 79.62756Q580.71564 80.90881 580.2469 81.92444Q579.79376 82.94006 578.91876 83.48694Q578.0594 84.03381 577.09064 84.03381Q576.3875 84.03381 575.825 83.73694Q575.27814 83.44006 574.91876 82.98694L574.91876 87.03381L573.5125 87.03381ZM574.77814 79.73694Q574.77814 81.34631 575.41876 82.11194Q576.075 82.87756 576.9969 82.87756Q577.9344 82.87756 578.60626 82.08069Q579.27814 81.28381 579.27814 79.62756Q579.27814 78.03381 578.6219 77.25256Q577.96564 76.45569 577.0594 76.45569Q576.16876 76.45569 575.46564 77.29944Q574.77814 78.14319 574.77814 79.73694Z" fill-rule="nonzero"/><path fill="#9e9e9e" d="M544.5125 104.48694L544.5125 105.84631L536.9344 105.84631Q536.91876 105.33069 537.10626 104.86194Q537.3875 104.09631 538.02814 103.34631Q538.66876 102.59631 539.8719 101.61194Q541.73126 100.08069 542.3875 99.19006Q543.04376 98.28381 543.04376 97.48694Q543.04376 96.65881 542.45 96.08069Q541.85626 95.50256 540.8875 95.50256Q539.8719 95.50256 539.2625 96.11194Q538.65314 96.72131 538.65314 97.79944L537.2 97.65881Q537.35626 96.03381 538.325 95.19006Q539.29376 94.34631 540.91876 94.34631Q542.575 94.34631 543.52814 95.26819Q544.4969 96.17444 544.4969 97.51819Q544.4969 98.20569 544.21564 98.87756Q543.9344 99.53381 543.27814 100.26819Q542.6219 101.00256 541.10626 102.28381Q539.84064 103.34631 539.48126 103.73694Q539.1219 104.11194 538.8875 104.48694L544.5125 104.48694ZM546.1219 100.19006Q546.1219 98.15881 546.52814 96.92444Q546.95 95.69006 547.77814 95.01819Q548.60626 94.34631 549.85626 94.34631Q550.77814 94.34631 551.46564 94.72131Q552.16876 95.08069 552.6219 95.78381Q553.075 96.48694 553.325 97.48694Q553.59064 98.48694 553.59064 100.19006Q553.59064 102.20569 553.16876 103.45569Q552.7625 104.69006 551.9344 105.37756Q551.10626 106.04944 549.85626 106.04944Q548.2 106.04944 547.2469 104.84631Q546.1219 103.42444 546.1219 100.19006ZM547.5594 100.19006Q547.5594 103.01819 548.21564 103.95569Q548.8875 104.87756 549.85626 104.87756Q550.825 104.87756 551.48126 103.94006Q552.1375 103.00256 552.1375 100.19006Q552.1375 97.36194 551.48126 96.44006Q550.825 95.50256 549.84064 95.50256Q548.8719 95.50256 548.29376 96.33069Q547.5594 97.37756 547.5594 100.19006ZM555.90314 105.84631L555.90314 104.23694L557.5125 104.23694L557.5125 105.84631L555.90314 105.84631ZM559.1219 100.19006Q559.1219 98.15881 559.52814 96.92444Q559.95 95.69006 560.77814 95.01819Q561.60626 94.34631 562.85626 94.34631Q563.77814 94.34631 564.46564 94.72131Q565.16876 95.08069 565.6219 95.78381Q566.075 96.48694 566.325 97.48694Q566.59064 98.48694 566.59064 100.19006Q566.59064 102.20569 566.16876 103.45569Q565.7625 104.69006 564.9344 105.37756Q564.10626 106.04944 562.85626 106.04944Q561.2 106.04944 560.2469 104.84631Q559.1219 103.42444 559.1219 100.19006ZM560.5594 100.19006Q560.5594 103.01819 561.21564 103.95569Q561.8875 104.87756 562.85626 104.87756Q563.825 104.87756 564.48126 103.94006Q565.1375 103.00256 565.1375 100.19006Q565.1375 97.36194 564.48126 96.44006Q563.825 95.50256 562.84064 95.50256Q561.8719 95.50256 561.29376 96.33069Q560.5594 97.37756 560.5594 100.19006ZM568.3875 97.14319Q568.3875 95.90881 568.9969 95.04944Q569.6219 94.19006 570.79376 94.19006Q571.8719 94.19006 572.575 94.97131Q573.27814 95.73694 573.27814 97.22131Q573.27814 98.67444 572.5594 99.47131Q571.85626 100.25256 570.8094 100.25256Q569.7625 100.25256 569.075 99.48694Q568.3875 98.70569 568.3875 97.14319ZM570.825 95.15881Q570.3094 95.15881 569.95 95.61194Q569.60626 96.06506 569.60626 97.28381Q569.60626 98.37756 569.95 98.83069Q570.3094 99.28381 570.825 99.28381Q571.35626 99.28381 571.7 98.83069Q572.0594 98.37756 572.0594 97.17444Q572.0594 96.06506 571.7 95.61194Q571.35626 95.15881 570.825 95.15881ZM570.84064 106.26819L577.10626 94.19006L578.2469 94.19006L571.9969 106.26819L570.84064 106.26819ZM575.79376 103.15881Q575.79376 101.92444 576.40314 101.06506Q577.02814 100.20569 578.2 100.20569Q579.27814 100.20569 579.98126 100.98694Q580.7 101.75256 580.7 103.23694Q580.7 104.69006 579.98126 105.48694Q579.2625 106.26819 578.21564 106.26819Q577.16876 106.26819 576.48126 105.48694Q575.79376 104.70569 575.79376 103.15881ZM578.2469 101.17444Q577.71564 101.17444 577.35626 101.62756Q577.0125 102.08069 577.0125 103.29944Q577.0125 104.39319 577.35626 104.84631Q577.71564 105.29944 578.23126 105.29944Q578.77814 105.29944 579.1219 104.84631Q579.46564 104.39319 579.46564 103.19006Q579.46564 102.08069 579.10626 101.62756Q578.7625 101.17444 578.2469 101.17444Z" fill-rule="nonzero"/><path stroke="#757575" stroke-width="1.0" stroke-linecap="butt" d="M581.45 89.34631L454.76666 89.34631L383.0707 89.34631" fill-rule="nonzero"/><path fill="#9e9e9e" d="M385.0707 89.34631C385.0707 88.24174 384.1753 87.34631 383.0707 87.34631C381.96613 87.34631 381.0707 88.24174 381.0707 89.34631C381.0707 90.45088 381.96613 91.34631 383.0707 91.34631C384.1753 91.34631 385.0707 90.45088 385.0707 89.34631" fill-rule="nonzero"/><path fill="#efefef" d="M491.66876 312.52036L491.66876 301.06723L493.23126 301.06723L499.2469 310.0516L499.2469 301.06723L500.7 301.06723L500.7 312.52036L499.1375 312.52036L493.1219 303.52036L493.1219 312.52036L491.66876 312.52036ZM508.91876 311.4891Q508.1375 312.16098 507.41876 312.44223Q506.7 312.70786 505.8719 312.70786Q504.4969 312.70786 503.7625 312.03598Q503.02814 311.3641 503.02814 310.33286Q503.02814 309.72348 503.3094 309.22348Q503.59064 308.70786 504.02814 308.41098Q504.48126 308.09848 505.04376 307.94223Q505.46564 307.83286 506.29376 307.7391Q507.9969 307.53598 508.8094 307.25473Q508.8094 306.95786 508.8094 306.87973Q508.8094 306.02036 508.41876 305.6766Q507.8719 305.19223 506.8094 305.19223Q505.825 305.19223 505.34064 305.5516Q504.8719 305.89536 504.65314 306.77036L503.27814 306.58286Q503.46564 305.70786 503.8875 305.16098Q504.325 304.6141 505.1375 304.33286Q505.95 304.03598 507.0125 304.03598Q508.075 304.03598 508.73126 304.28598Q509.40314 304.53598 509.71564 304.91098Q510.02814 305.28598 510.15314 305.8641Q510.23126 306.22348 510.23126 307.16098L510.23126 309.03598Q510.23126 311.00473 510.3094 311.52036Q510.40314 312.03598 510.66876 312.52036L509.2 312.52036Q508.98126 312.08286 508.91876 311.4891ZM508.8094 308.34848Q508.04376 308.66098 506.5125 308.87973Q505.6375 309.00473 505.27814 309.16098Q504.91876 309.31723 504.71564 309.62973Q504.52814 309.9266 504.52814 310.28598Q504.52814 310.84848 504.95 311.22348Q505.3875 311.59848 506.2 311.59848Q507.0125 311.59848 507.6375 311.25473Q508.27814 310.89536 508.575 310.27036Q508.8094 309.8016 508.8094 308.8641L508.8094 308.34848ZM515.575 311.25473L515.77814 312.50473Q515.1844 312.62973 514.71564 312.62973Q513.95 312.62973 513.52814 312.39536Q513.10626 312.14536 512.9344 311.75473Q512.7625 311.34848 512.7625 310.08286L512.7625 305.31723L511.73126 305.31723L511.73126 304.22348L512.7625 304.22348L512.7625 302.16098L514.16876 301.31723L514.16876 304.22348L515.575 304.22348L515.575 305.31723L514.16876 305.31723L514.16876 310.16098Q514.16876 310.77036 514.23126 310.94223Q514.3094 311.1141 514.48126 311.22348Q514.65314 311.31723 514.96564 311.31723Q515.2 311.31723 515.575 311.25473ZM521.95 312.52036L521.95 311.3016Q520.98126 312.70786 519.3094 312.70786Q518.575 312.70786 517.9344 312.4266Q517.3094 312.14536 516.9969 311.72348Q516.6844 311.28598 516.5594 310.6766Q516.48126 310.25473 516.48126 309.3641L516.48126 304.22348L517.8875 304.22348L517.8875 308.81723Q517.8875 309.9266 517.96564 310.3016Q518.10626 310.8641 518.52814 311.1766Q518.96564 311.4891 519.59064 311.4891Q520.23126 311.4891 520.77814 311.1766Q521.34064 310.84848 521.5594 310.28598Q521.79376 309.72348 521.79376 308.66098L521.79376 304.22348L523.2 304.22348L523.2 312.52036L521.95 312.52036ZM525.4969 312.52036L525.4969 304.22348L526.7625 304.22348L526.7625 305.47348Q527.2469 304.59848 527.65314 304.31723Q528.0594 304.03598 528.5594 304.03598Q529.2625 304.03598 529.9969 304.4891L529.5125 305.78598Q528.9969 305.4891 528.48126 305.4891Q528.02814 305.4891 527.65314 305.77036Q527.29376 306.03598 527.1375 306.53598Q526.90314 307.28598 526.90314 308.1766L526.90314 312.52036L525.4969 312.52036ZM536.1844 309.84848L537.6375 310.02036Q537.29376 311.3016 536.35626 312.00473Q535.4344 312.70786 533.9969 312.70786Q532.16876 312.70786 531.10626 311.58286Q530.04376 310.45786 530.04376 308.44223Q530.04376 306.34848 531.1219 305.19223Q532.2 304.03598 533.91876 304.03598Q535.575 304.03598 536.6219 305.1766Q537.6844 306.3016 537.6844 308.34848Q537.6844 308.47348 537.6844 308.72348L531.4969 308.72348Q531.575 310.09848 532.2625 310.83286Q532.96564 311.5516 533.9969 311.5516Q534.77814 311.5516 535.325 311.14536Q535.8719 310.7391 536.1844 309.84848ZM531.575 307.56723L536.2 307.56723Q536.10626 306.52036 535.66876 306.00473Q534.9969 305.19223 533.9344 305.19223Q532.96564 305.19223 532.29376 305.84848Q531.6375 306.4891 531.575 307.56723ZM538.95 310.03598L540.34064 309.81723Q540.45 310.66098 540.98126 311.1141Q541.52814 311.5516 542.48126 311.5516Q543.45 311.5516 543.91876 311.16098Q544.3875 310.75473 544.3875 310.22348Q544.3875 309.75473 543.98126 309.47348Q543.6844 309.28598 542.54376 309.00473Q540.9969 308.6141 540.3875 308.33286Q539.79376 308.03598 539.48126 307.53598Q539.1844 307.03598 539.1844 306.4266Q539.1844 305.8641 539.4344 305.39536Q539.6844 304.9266 540.1219 304.6141Q540.45 304.3641 541.0125 304.20786Q541.59064 304.03598 542.23126 304.03598Q543.21564 304.03598 543.95 304.31723Q544.6844 304.59848 545.02814 305.08286Q545.3875 305.5516 545.52814 306.3641L544.15314 306.5516Q544.0594 305.91098 543.60626 305.5516Q543.15314 305.19223 542.34064 305.19223Q541.3719 305.19223 540.95 305.52036Q540.54376 305.83286 540.54376 306.25473Q540.54376 306.53598 540.71564 306.75473Q540.8875 306.97348 541.2469 307.12973Q541.46564 307.20786 542.4969 307.4891Q543.98126 307.87973 544.575 308.14536Q545.16876 308.39536 545.4969 308.87973Q545.84064 309.3641 545.84064 310.08286Q545.84064 310.78598 545.41876 311.41098Q545.0125 312.02036 544.23126 312.3641Q543.46564 312.70786 542.4969 312.70786Q540.8719 312.70786 540.02814 312.03598Q539.1844 311.3641 538.95 310.03598ZM552.91876 309.47348L554.3094 309.66098Q554.075 311.08286 553.1375 311.89536Q552.21564 312.70786 550.85626 312.70786Q549.15314 312.70786 548.10626 311.59848Q547.075 310.47348 547.075 308.39536Q547.075 307.0516 547.5125 306.0516Q547.96564 305.03598 548.8719 304.53598Q549.79376 304.03598 550.85626 304.03598Q552.21564 304.03598 553.075 304.72348Q553.9344 305.39536 554.16876 306.66098L552.8094 306.8641Q552.60626 306.03598 552.10626 305.6141Q551.6219 305.19223 550.91876 305.19223Q549.85626 305.19223 549.1844 305.95786Q548.52814 306.70786 548.52814 308.3641Q548.52814 310.03598 549.16876 310.8016Q549.8094 311.5516 550.84064 311.5516Q551.66876 311.5516 552.21564 311.0516Q552.77814 310.53598 552.91876 309.47348ZM560.91876 311.4891Q560.1375 312.16098 559.41876 312.44223Q558.7 312.70786 557.8719 312.70786Q556.4969 312.70786 555.7625 312.03598Q555.02814 311.3641 555.02814 310.33286Q555.02814 309.72348 555.3094 309.22348Q555.59064 308.70786 556.02814 308.41098Q556.48126 308.09848 557.04376 307.94223Q557.46564 307.83286 558.29376 307.7391Q559.9969 307.53598 560.8094 307.25473Q560.8094 306.95786 560.8094 306.87973Q560.8094 306.02036 560.41876 305.6766Q559.8719 305.19223 558.8094 305.19223Q557.825 305.19223 557.34064 305.5516Q556.8719 305.89536 556.65314 306.77036L555.27814 306.58286Q555.46564 305.70786 555.8875 305.16098Q556.325 304.6141 557.1375 304.33286Q557.95 304.03598 559.0125 304.03598Q560.075 304.03598 560.73126 304.28598Q561.40314 304.53598 561.71564 304.91098Q562.02814 305.28598 562.15314 305.8641Q562.23126 306.22348 562.23126 307.16098L562.23126 309.03598Q562.23126 311.00473 562.3094 311.52036Q562.40314 312.03598 562.66876 312.52036L561.2 312.52036Q560.98126 312.08286 560.91876 311.4891ZM560.8094 308.34848Q560.04376 308.66098 558.5125 308.87973Q557.6375 309.00473 557.27814 309.16098Q556.91876 309.31723 556.71564 309.62973Q556.52814 309.9266 556.52814 310.28598Q556.52814 310.84848 556.95 311.22348Q557.3875 311.59848 558.2 311.59848Q559.0125 311.59848 559.6375 311.25473Q560.27814 310.89536 560.575 310.27036Q560.8094 309.8016 560.8094 308.8641L560.8094 308.34848ZM564.5125 315.70786L564.5125 304.22348L565.79376 304.22348L565.79376 305.3016Q566.2469 304.66098 566.8094 304.34848Q567.3875 304.03598 568.2 304.03598Q569.2625 304.03598 570.075 304.58286Q570.8875 305.12973 571.29376 306.12973Q571.71564 307.1141 571.71564 308.3016Q571.71564 309.58286 571.2469 310.59848Q570.79376 311.6141 569.91876 312.16098Q569.0594 312.70786 568.09064 312.70786Q567.3875 312.70786 566.825 312.41098Q566.27814 312.1141 565.91876 311.66098L565.91876 315.70786L564.5125 315.70786ZM565.77814 308.41098Q565.77814 310.02036 566.41876 310.78598Q567.075 311.5516 567.9969 311.5516Q568.9344 311.5516 569.60626 310.75473Q570.27814 309.95786 570.27814 308.3016Q570.27814 306.70786 569.6219 305.9266Q568.96564 305.12973 568.0594 305.12973Q567.16876 305.12973 566.46564 305.97348Q565.77814 306.81723 565.77814 308.41098ZM579.1844 309.84848L580.6375 310.02036Q580.29376 311.3016 579.35626 312.00473Q578.4344 312.70786 576.9969 312.70786Q575.16876 312.70786 574.10626 311.58286Q573.04376 310.45786 573.04376 308.44223Q573.04376 306.34848 574.1219 305.19223Q575.2 304.03598 576.91876 304.03598Q578.575 304.03598 579.6219 305.1766Q580.6844 306.3016 580.6844 308.34848Q580.6844 308.47348 580.6844 308.72348L574.4969 308.72348Q574.575 310.09848 575.2625 310.83286Q575.96564 311.5516 576.9969 311.5516Q577.77814 311.5516 578.325 311.14536Q578.8719 310.7391 579.1844 309.84848ZM574.575 307.56723L579.2 307.56723Q579.10626 306.52036 578.66876 306.00473Q577.9969 305.19223 576.9344 305.19223Q575.96564 305.19223 575.29376 305.84848Q574.6375 306.4891 574.575 307.56723Z" fill-rule="nonzero"/><path fill="#9e9e9e" d="M541.6219 334.52036L541.6219 331.77036L536.65314 331.77036L536.65314 330.4891L541.8875 323.06723L543.02814 323.06723L543.02814 330.4891L544.575 330.4891L544.575 331.77036L543.02814 331.77036L543.02814 334.52036L541.6219 334.52036ZM541.6219 330.4891L541.6219 325.31723L538.04376 330.4891L541.6219 330.4891ZM546.1219 328.8641Q546.1219 326.83286 546.52814 325.59848Q546.95 324.3641 547.77814 323.69223Q548.60626 323.02036 549.85626 323.02036Q550.77814 323.02036 551.46564 323.39536Q552.16876 323.75473 552.6219 324.45786Q553.075 325.16098 553.325 326.16098Q553.59064 327.16098 553.59064 328.8641Q553.59064 330.87973 553.16876 332.12973Q552.7625 333.3641 551.9344 334.0516Q551.10626 334.72348 549.85626 334.72348Q548.2 334.72348 547.2469 333.52036Q546.1219 332.09848 546.1219 328.8641ZM547.5594 328.8641Q547.5594 331.69223 548.21564 332.62973Q548.8875 333.5516 549.85626 333.5516Q550.825 333.5516 551.48126 332.6141Q552.1375 331.6766 552.1375 328.8641Q552.1375 326.03598 551.48126 325.1141Q550.825 324.1766 549.84064 324.1766Q548.8719 324.1766 548.29376 325.00473Q547.5594 326.0516 547.5594 328.8641ZM555.90314 334.52036L555.90314 332.91098L557.5125 332.91098L557.5125 334.52036L555.90314 334.52036ZM559.1219 328.8641Q559.1219 326.83286 559.52814 325.59848Q559.95 324.3641 560.77814 323.69223Q561.60626 323.02036 562.85626 323.02036Q563.77814 323.02036 564.46564 323.39536Q565.16876 323.75473 565.6219 324.45786Q566.075 325.16098 566.325 326.16098Q566.59064 327.16098 566.59064 328.8641Q566.59064 330.87973 566.16876 332.12973Q565.7625 333.3641 564.9344 334.0516Q564.10626 334.72348 562.85626 334.72348Q561.2 334.72348 560.2469 333.52036Q559.1219 332.09848 559.1219 328.8641ZM560.5594 328.8641Q560.5594 331.69223 561.21564 332.62973Q561.8875 333.5516 562.85626 333.5516Q563.825 333.5516 564.48126 332.6141Q565.1375 331.6766 565.1375 328.8641Q565.1375 326.03598 564.48126 325.1141Q563.825 324.1766 562.84064 324.1766Q561.8719 324.1766 561.29376 325.00473Q560.5594 326.0516 560.5594 328.8641ZM568.3875 325.81723Q568.3875 324.58286 568.9969 323.72348Q569.6219 322.8641 570.79376 322.8641Q571.8719 322.8641 572.575 323.64536Q573.27814 324.41098 573.27814 325.89536Q573.27814 327.34848 572.5594 328.14536Q571.85626 328.9266 570.8094 328.9266Q569.7625 328.9266 569.075 328.16098Q568.3875 327.37973 568.3875 325.81723ZM570.825 323.83286Q570.3094 323.83286 569.95 324.28598Q569.60626 324.7391 569.60626 325.95786Q569.60626 327.0516 569.95 327.50473Q570.3094 327.95786 570.825 327.95786Q571.35626 327.95786 571.7 327.50473Q572.0594 327.0516 572.0594 325.84848Q572.0594 324.7391 571.7 324.28598Q571.35626 323.83286 570.825 323.83286ZM570.84064 334.94223L577.10626 322.8641L578.2469 322.8641L571.9969 334.94223L570.84064 334.94223ZM575.79376 331.83286Q575.79376 330.59848 576.40314 329.7391Q577.02814 328.87973 578.2 328.87973Q579.27814 328.87973 579.98126 329.66098Q580.7 330.4266 580.7 331.91098Q580.7 333.3641 579.98126 334.16098Q579.2625 334.94223 578.21564 334.94223Q577.16876 334.94223 576.48126 334.16098Q575.79376 333.37973 575.79376 331.83286ZM578.2469 329.84848Q577.71564 329.84848 577.35626 330.3016Q577.0125 330.75473 577.0125 331.97348Q577.0125 333.06723 577.35626 333.52036Q577.71564 333.97348 578.23126 333.97348Q578.77814 333.97348 579.1219 333.52036Q579.46564 333.06723 579.46564 331.8641Q579.46564 330.75473 579.10626 330.3016Q578.7625 329.84848 578.2469 329.84848Z" fill-rule="nonzero"/><path stroke="#757575" stroke-width="1.0" stroke-linecap="butt" d="M581.45 318.02036L454.76666 318.02036L383.0707 318.02036" fill-rule="nonzero"/><path fill="#9e9e9e" d="M385.0707 318.02036C385.0707 316.9158 384.1753 316.02036 383.0707 316.02036C381.96613 316.02036 381.0707 316.9158 381.0707 318.02036C381.0707 319.12494 381.96613 320.02036 383.0707 320.02036C384.1753 320.02036 385.0707 319.12494 385.0707 318.02036" fill-rule="nonzero"/><path fill="#f3f3f3" d="M265.98438 37.55L265.98438 23.2375L268.84375 23.2375L272.21875 33.3625Q272.6875 34.784374 272.90625 35.4875Q273.15625 34.70625 273.67188 33.190624L277.09375 23.2375L279.64062 23.2375L279.64062 37.55L277.82812 37.55L277.82812 25.565624L273.65625 37.55L271.95312 37.55L267.8125 25.3625L267.8125 37.55L265.98438 37.55ZM289.92188 34.20625L291.73438 34.440624Q291.3125 36.01875 290.14062 36.909374Q288.98438 37.784374 287.17188 37.784374Q284.90625 37.784374 283.5625 36.39375Q282.23438 34.9875 282.23438 32.45625Q282.23438 29.83125 283.57812 28.39375Q284.92188 26.940624 287.07812 26.940624Q289.15625 26.940624 290.46875 28.3625Q291.79688 29.76875 291.79688 32.346874Q291.79688 32.503124 291.78125 32.815624L284.04688 32.815624Q284.14062 34.51875 285.01562 35.425Q285.89062 36.33125 287.1875 36.33125Q288.15625 36.33125 288.82812 35.83125Q289.51562 35.315624 289.92188 34.20625ZM284.14062 31.3625L289.9375 31.3625Q289.82812 30.065624 289.28125 29.409374Q288.4375 28.39375 287.09375 28.39375Q285.89062 28.39375 285.0625 29.20625Q284.23438 30.003124 284.14062 31.3625ZM300.54688 37.55L300.54688 36.2375Q299.5625 37.784374 297.64062 37.784374Q296.40625 37.784374 295.35938 37.096874Q294.32812 36.409374 293.75 35.190624Q293.1875 33.971874 293.1875 32.378124Q293.1875 30.815624 293.70312 29.55Q294.21875 28.284374 295.25 27.6125Q296.29688 26.940624 297.5625 26.940624Q298.5 26.940624 299.23438 27.346874Q299.96875 27.7375 300.4375 28.3625L300.4375 23.2375L302.17188 23.2375L302.17188 37.55L300.54688 37.55ZM294.98438 32.378124Q294.98438 34.3625 295.82812 35.346874Q296.67188 36.33125 297.8125 36.33125Q298.96875 36.33125 299.76562 35.39375Q300.57812 34.45625 300.57812 32.51875Q300.57812 30.39375 299.75 29.39375Q298.9375 28.39375 297.73438 28.39375Q296.5625 28.39375 295.76562 29.3625Q294.98438 30.315624 294.98438 32.378124ZM304.82812 25.253124L304.82812 23.2375L306.59375 23.2375L306.59375 25.253124L304.82812 25.253124ZM304.82812 37.55L304.82812 27.175L306.59375 27.175L306.59375 37.55L304.82812 37.55ZM315.60938 37.55L315.60938 36.01875Q314.40625 37.784374 312.32812 37.784374Q311.40625 37.784374 310.60938 37.440624Q309.8125 37.08125 309.42188 36.55Q309.04688 36.01875 308.89062 35.2375Q308.78125 34.721874 308.78125 33.596874L308.78125 27.175L310.53125 27.175L310.53125 32.925Q310.53125 34.3 310.64062 34.784374Q310.8125 35.471874 311.34375 35.878124Q311.89062 36.26875 312.67188 36.26875Q313.46875 36.26875 314.15625 35.8625Q314.85938 35.45625 315.14062 34.76875Q315.4375 34.065624 315.4375 32.7375L315.4375 27.175L317.1875 27.175L317.1875 37.55L315.60938 37.55ZM319.8125 37.55L319.8125 27.175L321.39062 27.175L321.39062 28.628124Q321.875 27.878124 322.6875 27.409374Q323.5 26.940624 324.53125 26.940624Q325.6875 26.940624 326.42188 27.425Q327.15625 27.89375 327.46875 28.753124Q328.70312 26.940624 330.67188 26.940624Q332.21875 26.940624 333.04688 27.8Q333.875 28.659374 333.875 30.425L333.875 37.55L332.125 37.55L332.125 31.01875Q332.125 29.95625 331.95312 29.503124Q331.78125 29.034374 331.32812 28.753124Q330.89062 28.471874 330.28125 28.471874Q329.1875 28.471874 328.45312 29.20625Q327.73438 29.925 327.73438 31.51875L327.73438 37.55L325.98438 37.55L325.98438 30.815624Q325.98438 29.64375 325.54688 29.065624Q325.125 28.471874 324.14062 28.471874Q323.40625 28.471874 322.76562 28.8625Q322.14062 29.253124 321.85938 30.003124Q321.57812 30.753124 321.57812 32.175L321.57812 37.55L319.8125 37.55Z" fill-rule="nonzero"/></svg>