<svg version="1.1" viewBox="0.0 0.0 600.0 371.0" fill="none" stroke="none" stroke-linecap="square" stroke-miterlimit="10" width="600" height="371" xmlns:xlink="http://www.w3.org/1999/xlink" xmlns="http://www.w3.org/2000/svg"><path fill="#ffffff" fill-opacity="0.0" d="M0 0L600.0 0L600.0 371.0L0 371.0L0 0Z" fill-rule="nonzero"/><path fill="#d0473d" d="M171.16429 278.06668C144.58968 232.0381 144.58968 175.32857 171.16429 129.3C197.73889 83.27143 246.85078 54.916668 300.0 54.916668L300.0 129.3C273.42538 129.3 248.86945 143.47739 235.58214 166.49167C222.29485 189.50595 222.29485 217.86072 235.58214 240.875Z" fill-rule="nonzero"/><path fill="#8c4595" d="M300.0 54.916668C372.19553 54.916668 433.96994 106.751564 446.50656 177.85027C459.04318 248.94897 418.72278 318.78595 350.8812 343.47827C283.0396 368.1706 207.26204 340.5898 171.16429 278.06668L235.58214 240.875C253.63103 272.13657 291.5198 285.92697 325.4406 273.5808C359.3614 261.23465 379.5216 226.31616 373.2533 190.7668C366.985 155.21745 336.09775 129.3 300.0 129.3Z" fill-rule="nonzero"/><path fill="#ffffff" d="M380.0799 256.23645L378.5174 256.36145Q378.29865 255.43958 377.90802 255.0177Q377.2674 254.3302 376.3299 254.3302Q375.5799 254.3302 375.00177 254.75208Q374.25177 255.29895 373.81427 256.34583Q373.3924 257.3927 373.37677 259.3302Q373.9549 258.4552 374.7674 258.03333Q375.59552 257.61145 376.50177 257.61145Q378.09552 257.61145 379.2049 258.78333Q380.31427 259.93958 380.31427 261.78333Q380.31427 263.00208 379.78302 264.04895Q379.2674 265.0802 378.34552 265.6427Q377.43927 266.18958 376.28302 266.18958Q374.29865 266.18958 373.04865 264.73645Q371.79865 263.28333 371.79865 259.93958Q371.79865 256.2052 373.18927 254.50208Q374.3924 253.03333 376.42365 253.03333Q377.9549 253.03333 378.92365 253.8927Q379.8924 254.73645 380.0799 256.23645ZM373.62677 261.79895Q373.62677 262.61145 373.97052 263.36145Q374.31427 264.11145 374.93927 264.50208Q375.56427 264.8927 376.25177 264.8927Q377.25177 264.8927 377.97052 264.0802Q378.68927 263.2677 378.68927 261.87708Q378.68927 260.54895 377.97052 259.78333Q377.2674 259.00208 376.18927 259.00208Q375.11115 259.00208 374.36115 259.78333Q373.62677 260.54895 373.62677 261.79895ZM390.0799 256.23645L388.5174 256.36145Q388.29865 255.43958 387.90802 255.0177Q387.2674 254.3302 386.3299 254.3302Q385.5799 254.3302 385.00177 254.75208Q384.25177 255.29895 383.81427 256.34583Q383.3924 257.3927 383.37677 259.3302Q383.9549 258.4552 384.7674 258.03333Q385.59552 257.61145 386.50177 257.61145Q388.09552 257.61145 389.2049 258.78333Q390.31427 259.93958 390.31427 261.78333Q390.31427 263.00208 389.78302 264.04895Q389.2674 265.0802 388.34552 265.6427Q387.43927 266.18958 386.28302 266.18958Q384.29865 266.18958 383.04865 264.73645Q381.79865 263.28333 381.79865 259.93958Q381.79865 256.2052 383.18927 254.50208Q384.3924 253.03333 386.42365 253.03333Q387.9549 253.03333 388.92365 253.8927Q389.8924 254.73645 390.0799 256.23645ZM383.62677 261.79895Q383.62677 262.61145 383.97052 263.36145Q384.31427 264.11145 384.93927 264.50208Q385.56427 264.8927 386.25177 264.8927Q387.25177 264.8927 387.97052 264.0802Q388.68927 263.2677 388.68927 261.87708Q388.68927 260.54895 387.97052 259.78333Q387.2674 259.00208 386.18927 259.00208Q385.11115 259.00208 384.36115 259.78333Q383.62677 260.54895 383.62677 261.79895ZM392.7674 265.97083L392.7674 264.17395L394.56427 264.17395L394.56427 265.97083L392.7674 265.97083ZM396.98615 254.7677L396.98615 253.25208L405.31427 253.25208L405.31427 254.48645Q404.09552 255.79895 402.87677 257.97083Q401.67365 260.12708 401.0174 262.42395Q400.53302 264.04895 400.40802 265.97083L398.78302 265.97083Q398.81427 264.4552 399.37677 262.29895Q399.9549 260.1427 401.0174 258.1427Q402.0799 256.1427 403.28302 254.7677L396.98615 254.7677ZM407.17365 256.17395Q407.17365 254.79895 407.86115 253.8302Q408.56427 252.86145 409.87677 252.86145Q411.09552 252.86145 411.8924 253.73645Q412.68927 254.59583 412.68927 256.28333Q412.68927 257.90833 411.87677 258.79895Q411.0799 259.67395 409.8924 259.67395Q408.73615 259.67395 407.9549 258.81458Q407.17365 257.93958 407.17365 256.17395ZM409.92365 253.9552Q409.3299 253.9552 408.93927 254.47083Q408.54865 254.97083 408.54865 256.3302Q408.54865 257.5802 408.93927 258.0802Q409.34552 258.5802 409.92365 258.5802Q410.5174 258.5802 410.90802 258.0802Q411.29865 257.56458 411.29865 256.22083Q411.29865 254.97083 410.90802 254.47083Q410.5174 253.9552 409.92365 253.9552ZM409.93927 266.43958L416.98615 252.86145L418.2674 252.86145L411.23615 266.43958L409.93927 266.43958ZM415.50177 262.93958Q415.50177 261.56458 416.18927 260.59583Q416.8924 259.62708 418.22052 259.62708Q419.43927 259.62708 420.22052 260.50208Q421.0174 261.36145 421.0174 263.04895Q421.0174 264.67395 420.22052 265.56458Q419.42365 266.43958 418.23615 266.43958Q417.06427 266.43958 416.28302 265.56458Q415.50177 264.68958 415.50177 262.93958ZM418.2674 260.72083Q417.67365 260.72083 417.28302 261.23645Q416.8924 261.73645 416.8924 263.11145Q416.8924 264.3302 417.28302 264.84583Q417.67365 265.36145 418.25177 265.36145Q418.86115 265.36145 419.25177 264.84583Q419.6424 264.3302 419.6424 262.98645Q419.6424 261.73645 419.25177 261.23645Q418.86115 260.72083 418.2674 260.72083Z" fill-rule="nonzero"/><path fill="#ffffff" d="M178.62321 150.98958L180.21696 150.78645Q180.48259 152.1302 181.13884 152.72395Q181.79509 153.3177 182.73259 153.3177Q183.85759 153.3177 184.62321 152.55208Q185.38884 151.77083 185.38884 150.6302Q185.38884 149.53645 184.67009 148.83333Q183.96696 148.11458 182.87321 148.11458Q182.42009 148.11458 181.74821 148.30208L181.92009 146.91145Q182.07634 146.92708 182.18571 146.92708Q183.18571 146.92708 183.99821 146.39583Q184.81071 145.86458 184.81071 144.77083Q184.81071 143.89583 184.21696 143.33333Q183.62321 142.7552 182.70134 142.7552Q181.77946 142.7552 181.15446 143.33333Q180.54509 143.91145 180.37321 145.08333L178.79509 144.80208Q179.07634 143.20833 180.10759 142.33333Q181.13884 141.45833 182.67009 141.45833Q183.71696 141.45833 184.60759 141.91145Q185.49821 142.36458 185.96696 143.14583Q186.43571 143.92708 186.43571 144.80208Q186.43571 145.64583 185.98259 146.33333Q185.54509 147.0052 184.65446 147.41145Q185.79509 147.67708 186.42009 148.52083Q187.06071 149.34895 187.06071 150.58333Q187.06071 152.27083 185.82634 153.45833Q184.60759 154.6302 182.73259 154.6302Q181.02946 154.6302 179.90446 153.61458Q178.79509 152.59895 178.62321 150.98958ZM188.62321 150.98958L190.21696 150.78645Q190.48259 152.1302 191.13884 152.72395Q191.79509 153.3177 192.73259 153.3177Q193.85759 153.3177 194.62321 152.55208Q195.38884 151.77083 195.38884 150.6302Q195.38884 149.53645 194.67009 148.83333Q193.96696 148.11458 192.87321 148.11458Q192.42009 148.11458 191.74821 148.30208L191.92009 146.91145Q192.07634 146.92708 192.18571 146.92708Q193.18571 146.92708 193.99821 146.39583Q194.81071 145.86458 194.81071 144.77083Q194.81071 143.89583 194.21696 143.33333Q193.62321 142.7552 192.70134 142.7552Q191.77946 142.7552 191.15446 143.33333Q190.54509 143.91145 190.37321 145.08333L188.79509 144.80208Q189.07634 143.20833 190.10759 142.33333Q191.13884 141.45833 192.67009 141.45833Q193.71696 141.45833 194.60759 141.91145Q195.49821 142.36458 195.96696 143.14583Q196.43571 143.92708 196.43571 144.80208Q196.43571 145.64583 195.98259 146.33333Q195.54509 147.0052 194.65446 147.41145Q195.79509 147.67708 196.42009 148.52083Q197.06071 149.34895 197.06071 150.58333Q197.06071 152.27083 195.82634 153.45833Q194.60759 154.6302 192.73259 154.6302Q191.02946 154.6302 189.90446 153.61458Q188.79509 152.59895 188.62321 150.98958ZM199.51384 154.39583L199.51384 152.59895L201.31071 152.59895L201.31071 154.39583L199.51384 154.39583ZM203.62321 150.98958L205.21696 150.78645Q205.48259 152.1302 206.13884 152.72395Q206.79509 153.3177 207.73259 153.3177Q208.85759 153.3177 209.62321 152.55208Q210.38884 151.77083 210.38884 150.6302Q210.38884 149.53645 209.67009 148.83333Q208.96696 148.11458 207.87321 148.11458Q207.42009 148.11458 206.74821 148.30208L206.92009 146.91145Q207.07634 146.92708 207.18571 146.92708Q208.18571 146.92708 208.99821 146.39583Q209.81071 145.86458 209.81071 144.77083Q209.81071 143.89583 209.21696 143.33333Q208.62321 142.7552 207.70134 142.7552Q206.77946 142.7552 206.15446 143.33333Q205.54509 143.91145 205.37321 145.08333L203.79509 144.80208Q204.07634 143.20833 205.10759 142.33333Q206.13884 141.45833 207.67009 141.45833Q208.71696 141.45833 209.60759 141.91145Q210.49821 142.36458 210.96696 143.14583Q211.43571 143.92708 211.43571 144.80208Q211.43571 145.64583 210.98259 146.33333Q210.54509 147.0052 209.65446 147.41145Q210.79509 147.67708 211.42009 148.52083Q212.06071 149.34895 212.06071 150.58333Q212.06071 152.27083 210.82634 153.45833Q209.60759 154.6302 207.73259 154.6302Q206.02946 154.6302 204.90446 153.61458Q203.79509 152.59895 203.62321 150.98958ZM213.92009 144.59895Q213.92009 143.22395 214.60759 142.2552Q215.31071 141.28645 216.62321 141.28645Q217.84196 141.28645 218.63884 142.16145Q219.43571 143.02083 219.43571 144.70833Q219.43571 146.33333 218.62321 147.22395Q217.82634 148.09895 216.63884 148.09895Q215.48259 148.09895 214.70134 147.23958Q213.92009 146.36458 213.92009 144.59895ZM216.67009 142.3802Q216.07634 142.3802 215.68571 142.89583Q215.29509 143.39583 215.29509 144.7552Q215.29509 146.0052 215.68571 146.5052Q216.09196 147.0052 216.67009 147.0052Q217.26384 147.0052 217.65446 146.5052Q218.04509 145.98958 218.04509 144.64583Q218.04509 143.39583 217.65446 142.89583Q217.26384 142.3802 216.67009 142.3802ZM216.68571 154.86458L223.73259 141.28645L225.01384 141.28645L217.98259 154.86458L216.68571 154.86458ZM222.24821 151.36458Q222.24821 149.98958 222.93571 149.02083Q223.63884 148.05208 224.96696 148.05208Q226.18571 148.05208 226.96696 148.92708Q227.76384 149.78645 227.76384 151.47395Q227.76384 153.09895 226.96696 153.98958Q226.17009 154.86458 224.98259 154.86458Q223.81071 154.86458 223.02946 153.98958Q222.24821 153.11458 222.24821 151.36458ZM225.01384 149.14583Q224.42009 149.14583 224.02946 149.66145Q223.63884 150.16145 223.63884 151.53645Q223.63884 152.7552 224.02946 153.27083Q224.42009 153.78645 224.99821 153.78645Q225.60759 153.78645 225.99821 153.27083Q226.38884 152.7552 226.38884 151.41145Q226.38884 150.16145 225.99821 149.66145Q225.60759 149.14583 225.01384 149.14583Z" fill-rule="nonzero"/><path stroke="#ffffff" stroke-width="1.0" stroke-linejoin="round" stroke-linecap="round" d="M235.58214 240.875C253.63103 272.13657 291.5198 285.92697 325.4406 273.5808C359.3614 261.23465 379.5216 226.31616 373.2533 190.7668C366.985 155.21745 336.09775 129.3 300.0 129.3L300.0 54.916668C372.19553 54.916668 433.96994 106.751564 446.50656 177.85027C459.04318 248.94897 418.72278 318.78595 350.8812 343.47827C283.0396 368.1706 207.26204 340.5898 171.16429 278.06668" fill-rule="nonzero"/><path stroke="#ffffff" stroke-width="1.0" stroke-linejoin="round" stroke-linecap="round" d="M300.0 129.3C273.42538 129.3 248.86945 143.47739 235.58214 166.49167C222.29485 189.50595 222.29485 217.86072 235.58214 240.875L171.16429 278.06668C144.58968 232.0381 144.58968 175.32857 171.16429 129.3C197.73889 83.27143 246.85078 54.916668 300.0 54.916668" fill-rule="nonzero"/><path fill="#efefef" d="M19.76875 127.519165L19.76875 116.06604L21.33125 116.06604L27.346874 125.050415L27.346874 116.06604L28.8 116.06604L28.8 127.519165L27.2375 127.519165L21.221874 118.519165L21.221874 127.519165L19.76875 127.519165ZM37.01875 126.487915Q36.2375 127.15979 35.51875 127.44104Q34.8 127.706665 33.971874 127.706665Q32.596874 127.706665 31.8625 127.03479Q31.128124 126.362915 31.128124 125.331665Q31.128124 124.72229 31.409374 124.22229Q31.690624 123.706665 32.128124 123.40979Q32.58125 123.09729 33.14375 122.94104Q33.565624 122.831665 34.39375 122.737915Q36.096874 122.53479 36.909374 122.25354Q36.909374 121.956665 36.909374 121.87854Q36.909374 121.019165 36.51875 120.675415Q35.971874 120.19104 34.909374 120.19104Q33.925 120.19104 33.440624 120.550415Q32.971874 120.894165 32.753124 121.769165L31.378124 121.581665Q31.565624 120.706665 31.9875 120.15979Q32.425 119.612915 33.2375 119.331665Q34.05 119.03479 35.1125 119.03479Q36.175 119.03479 36.83125 119.28479Q37.503124 119.53479 37.815624 119.90979Q38.128124 120.28479 38.253124 120.862915Q38.33125 121.22229 38.33125 122.15979L38.33125 124.03479Q38.33125 126.00354 38.409374 126.519165Q38.503124 127.03479 38.76875 127.519165L37.3 127.519165Q37.08125 127.081665 37.01875 126.487915ZM36.909374 123.34729Q36.14375 123.65979 34.6125 123.87854Q33.7375 124.00354 33.378124 124.15979Q33.01875 124.31604 32.815624 124.62854Q32.628124 124.925415 32.628124 125.28479Q32.628124 125.84729 33.05 126.22229Q33.4875 126.59729 34.3 126.59729Q35.1125 126.59729 35.7375 126.25354Q36.378124 125.894165 36.675 125.269165Q36.909374 124.800415 36.909374 123.862915L36.909374 123.34729ZM42.909374 127.519165L39.753124 119.22229L41.2375 119.22229L43.01875 124.19104Q43.315624 124.987915 43.55 125.862915Q43.7375 125.206665 44.08125 124.28479L45.925 119.22229L47.3625 119.22229L44.221874 127.519165L42.909374 127.519165ZM54.01875 126.487915Q53.2375 127.15979 52.51875 127.44104Q51.8 127.706665 50.971874 127.706665Q49.596874 127.706665 48.8625 127.03479Q48.128124 126.362915 48.128124 125.331665Q48.128124 124.72229 48.409374 124.22229Q48.690624 123.706665 49.128124 123.40979Q49.58125 123.09729 50.14375 122.94104Q50.565624 122.831665 51.39375 122.737915Q53.096874 122.53479 53.909374 122.25354Q53.909374 121.956665 53.909374 121.87854Q53.909374 121.019165 53.51875 120.675415Q52.971874 120.19104 51.909374 120.19104Q50.925 120.19104 50.440624 120.550415Q49.971874 120.894165 49.753124 121.769165L48.378124 121.581665Q48.565624 120.706665 48.9875 120.15979Q49.425 119.612915 50.2375 119.331665Q51.05 119.03479 52.1125 119.03479Q53.175 119.03479 53.83125 119.28479Q54.503124 119.53479 54.815624 119.90979Q55.128124 120.28479 55.253124 120.862915Q55.33125 121.22229 55.33125 122.15979L55.33125 124.03479Q55.33125 126.00354 55.409374 126.519165Q55.503124 127.03479 55.76875 127.519165L54.3 127.519165Q54.08125 127.081665 54.01875 126.487915ZM53.909374 123.34729Q53.14375 123.65979 51.6125 123.87854Q50.7375 124.00354 50.378124 124.15979Q50.01875 124.31604 49.815624 124.62854Q49.628124 124.925415 49.628124 125.28479Q49.628124 125.84729 50.05 126.22229Q50.4875 126.59729 51.3 126.59729Q52.1125 126.59729 52.7375 126.25354Q53.378124 125.894165 53.675 125.269165Q53.909374 124.800415 53.909374 123.862915L53.909374 123.34729ZM57.58125 127.519165L57.58125 116.06604L58.9875 116.06604L58.9875 127.519165L57.58125 127.519165ZM65.26875 123.831665L66.70625 123.706665Q66.8 124.56604 67.175 125.12854Q67.55 125.675415 68.33125 126.019165Q69.1125 126.34729 70.08125 126.34729Q70.95625 126.34729 71.6125 126.09729Q72.28438 125.831665 72.59688 125.394165Q72.925 124.94104 72.925 124.40979Q72.925 123.862915 72.6125 123.47229Q72.3 123.06604 71.58125 122.78479Q71.12813 122.612915 69.55 122.237915Q67.97188 121.84729 67.33125 121.519165Q66.51875 121.081665 66.1125 120.456665Q65.70625 119.81604 65.70625 119.019165Q65.70625 118.15979 66.19063 117.40979Q66.69063 116.644165 67.62813 116.25354Q68.58125 115.862915 69.7375 115.862915Q71.01875 115.862915 71.9875 116.28479Q72.95625 116.69104 73.47188 117.487915Q74.00313 118.28479 74.05 119.28479L72.59688 119.394165Q72.47188 118.31604 71.8 117.769165Q71.12813 117.206665 69.8 117.206665Q68.425 117.206665 67.8 117.706665Q67.175 118.206665 67.175 118.925415Q67.175 119.53479 67.6125 119.94104Q68.05 120.331665 69.89375 120.75354Q71.75313 121.175415 72.44063 121.487915Q73.44063 121.94104 73.90938 122.65979Q74.39375 123.362915 74.39375 124.28479Q74.39375 125.19104 73.8625 126.00354Q73.34688 126.81604 72.3625 127.269165Q71.37813 127.72229 70.15938 127.72229Q68.59688 127.72229 67.55 127.269165Q66.50313 126.800415 65.89375 125.894165Q65.3 124.987915 65.26875 123.831665ZM79.675 126.25354L79.87813 127.50354Q79.28438 127.62854 78.81563 127.62854Q78.05 127.62854 77.62813 127.394165Q77.20625 127.144165 77.03438 126.75354Q76.8625 126.34729 76.8625 125.081665L76.8625 120.31604L75.83125 120.31604L75.83125 119.22229L76.8625 119.22229L76.8625 117.15979L78.26875 116.31604L78.26875 119.22229L79.675 119.22229L79.675 120.31604L78.26875 120.31604L78.26875 125.15979Q78.26875 125.769165 78.33125 125.94104Q78.40938 126.112915 78.58125 126.22229Q78.75313 126.31604 79.06563 126.31604Q79.3 126.31604 79.675 126.25354ZM80.59688 127.519165L80.59688 119.22229L81.8625 119.22229L81.8625 120.47229Q82.34688 119.59729 82.75313 119.31604Q83.15938 119.03479 83.65938 119.03479Q84.3625 119.03479 85.09688 119.487915L84.6125 120.78479Q84.09688 120.487915 83.58125 120.487915Q83.12813 120.487915 82.75313 120.769165Q82.39375 121.03479 82.2375 121.53479Q82.00313 122.28479 82.00313 123.175415L82.00313 127.519165L80.59688 127.519165ZM91.05 127.519165L91.05 126.300415Q90.08125 127.706665 88.40938 127.706665Q87.675 127.706665 87.03438 127.425415Q86.40938 127.144165 86.09688 126.72229Q85.78438 126.28479 85.65938 125.675415Q85.58125 125.25354 85.58125 124.362915L85.58125 119.22229L86.9875 119.22229L86.9875 123.81604Q86.9875 124.925415 87.06563 125.300415Q87.20625 125.862915 87.62813 126.175415Q88.06563 126.487915 88.69063 126.487915Q89.33125 126.487915 89.87813 126.175415Q90.44063 125.84729 90.65938 125.28479Q90.89375 124.72229 90.89375 123.65979L90.89375 119.22229L92.3 119.22229L92.3 127.519165L91.05 127.519165ZM100.01875 124.47229L101.40938 124.65979Q101.175 126.081665 100.2375 126.894165Q99.31563 127.706665 97.95625 127.706665Q96.25313 127.706665 95.20625 126.59729Q94.175 125.47229 94.175 123.394165Q94.175 122.050415 94.6125 121.050415Q95.06563 120.03479 95.97188 119.53479Q96.89375 119.03479 97.95625 119.03479Q99.31563 119.03479 100.175 119.72229Q101.03438 120.394165 101.26875 121.65979L99.90938 121.862915Q99.70625 121.03479 99.20625 120.612915Q98.72188 120.19104 98.01875 120.19104Q96.95625 120.19104 96.28438 120.956665Q95.62813 121.706665 95.62813 123.362915Q95.62813 125.03479 96.26875 125.800415Q96.90938 126.550415 97.94063 126.550415Q98.76875 126.550415 99.31563 126.050415Q99.87813 125.53479 100.01875 124.47229ZM105.675 126.25354L105.87813 127.50354Q105.28438 127.62854 104.81563 127.62854Q104.05 127.62854 103.62813 127.394165Q103.20625 127.144165 103.03438 126.75354Q102.8625 126.34729 102.8625 125.081665L102.8625 120.31604L101.83125 120.31604L101.83125 119.22229L102.8625 119.22229L102.8625 117.15979L104.26875 116.31604L104.26875 119.22229L105.675 119.22229L105.675 120.31604L104.26875 120.31604L104.26875 125.15979Q104.26875 125.769165 104.33125 125.94104Q104.40938 126.112915 104.58125 126.22229Q104.75313 126.31604 105.06563 126.31604Q105.3 126.31604 105.675 126.25354ZM112.05 127.519165L112.05 126.300415Q111.08125 127.706665 109.40938 127.706665Q108.675 127.706665 108.03438 127.425415Q107.40938 127.144165 107.09688 126.72229Q106.78438 126.28479 106.65938 125.675415Q106.58125 125.25354 106.58125 124.362915L106.58125 119.22229L107.9875 119.22229L107.9875 123.81604Q107.9875 124.925415 108.06563 125.300415Q108.20625 125.862915 108.62813 126.175415Q109.06563 126.487915 109.69063 126.487915Q110.33125 126.487915 110.87813 126.175415Q111.44063 125.84729 111.65938 125.28479Q111.89375 124.72229 111.89375 123.65979L111.89375 119.22229L113.3 119.22229L113.3 127.519165L112.05 127.519165ZM115.59688 127.519165L115.59688 119.22229L116.8625 119.22229L116.8625 120.47229Q117.34688 119.59729 117.75313 119.31604Q118.15938 119.03479 118.65938 119.03479Q119.3625 119.03479 120.09688 119.487915L119.6125 120.78479Q119.09688 120.487915 118.58125 120.487915Q118.12813 120.487915 117.75313 120.769165Q117.39375 121.03479 117.2375 121.53479Q117.00313 122.28479 117.00313 123.175415L117.00313 127.519165L115.59688 127.519165ZM126.28438 124.84729L127.7375 125.019165Q127.39375 126.300415 126.45625 127.00354Q125.53438 127.706665 124.09688 127.706665Q122.26875 127.706665 121.20625 126.581665Q120.14375 125.456665 120.14375 123.44104Q120.14375 121.34729 121.22188 120.19104Q122.3 119.03479 124.01875 119.03479Q125.675 119.03479 126.72188 120.175415Q127.78438 121.300415 127.78438 123.34729Q127.78438 123.47229 127.78438 123.72229L121.59688 123.72229Q121.675 125.09729 122.3625 125.831665Q123.06563 126.550415 124.09688 126.550415Q124.87813 126.550415 125.425 126.144165Q125.97188 125.737915 126.28438 124.84729ZM121.675 122.56604L126.3 122.56604Q126.20625 121.519165 125.76875 121.00354Q125.09688 120.19104 124.03438 120.19104Q123.06563 120.19104 122.39375 120.84729Q121.7375 121.487915 121.675 122.56604ZM129.05 125.03479L130.44063 124.81604Q130.55 125.65979 131.08125 126.112915Q131.62813 126.550415 132.58125 126.550415Q133.55 126.550415 134.01875 126.15979Q134.4875 125.75354 134.4875 125.22229Q134.4875 124.75354 134.08125 124.47229Q133.78438 124.28479 132.64375 124.00354Q131.09688 123.612915 130.4875 123.331665Q129.89375 123.03479 129.58125 122.53479Q129.28438 122.03479 129.28438 121.425415Q129.28438 120.862915 129.53438 120.394165Q129.78438 119.925415 130.22188 119.612915Q130.55 119.362915 131.1125 119.206665Q131.69063 119.03479 132.33125 119.03479Q133.31563 119.03479 134.05 119.31604Q134.78438 119.59729 135.12813 120.081665Q135.4875 120.550415 135.62813 121.362915L134.25313 121.550415Q134.15938 120.90979 133.70625 120.550415Q133.25313 120.19104 132.44063 120.19104Q131.47188 120.19104 131.05 120.519165Q130.64375 120.831665 130.64375 121.25354Q130.64375 121.53479 130.81563 121.75354Q130.9875 121.97229 131.34688 122.12854Q131.56563 122.206665 132.59688 122.487915Q134.08125 122.87854 134.675 123.144165Q135.26875 123.394165 135.59688 123.87854Q135.94063 124.362915 135.94063 125.081665Q135.94063 125.78479 135.51875 126.40979Q135.1125 127.019165 134.33125 127.362915Q133.56563 127.706665 132.59688 127.706665Q130.97188 127.706665 130.12813 127.03479Q129.28438 126.362915 129.05 125.03479Z" fill-rule="nonzero"/><path fill="#9e9e9e" d="M19.221874 146.48792L20.628124 146.30042Q20.878124 147.50354 21.45625 148.03479Q22.034374 148.55042 22.878124 148.55042Q23.8625 148.55042 24.55 147.86292Q25.2375 147.17542 25.2375 146.15979Q25.2375 145.19104 24.596874 144.56604Q23.971874 143.94104 22.9875 143.94104Q22.596874 143.94104 22.003124 144.09729L22.159374 142.86292Q22.3 142.87854 22.378124 142.87854Q23.284374 142.87854 24.003124 142.40979Q24.721874 141.94104 24.721874 140.95667Q24.721874 140.19104 24.190624 139.69104Q23.675 139.17542 22.846874 139.17542Q22.01875 139.17542 21.471874 139.69104Q20.925 140.20667 20.76875 141.23792L19.3625 140.98792Q19.628124 139.56604 20.534374 138.80042Q21.45625 138.01917 22.815624 138.01917Q23.753124 138.01917 24.534374 138.42542Q25.33125 138.81604 25.7375 139.51917Q26.159374 140.20667 26.159374 140.98792Q26.159374 141.73792 25.753124 142.34729Q25.3625 142.95667 24.58125 143.31604Q25.596874 143.55042 26.159374 144.28479Q26.721874 145.01917 26.721874 146.12854Q26.721874 147.62854 25.628124 148.67542Q24.534374 149.72229 22.8625 149.72229Q21.3625 149.72229 20.3625 148.83167Q19.3625 147.92542 19.221874 146.48792ZM28.221874 146.48792L29.628124 146.30042Q29.878124 147.50354 30.45625 148.03479Q31.034374 148.55042 31.878124 148.55042Q32.8625 148.55042 33.55 147.86292Q34.2375 147.17542 34.2375 146.15979Q34.2375 145.19104 33.596874 144.56604Q32.971874 143.94104 31.9875 143.94104Q31.596874 143.94104 31.003124 144.09729L31.159374 142.86292Q31.3 142.87854 31.378124 142.87854Q32.284374 142.87854 33.003124 142.40979Q33.721874 141.94104 33.721874 140.95667Q33.721874 140.19104 33.190624 139.69104Q32.675 139.17542 31.846874 139.17542Q31.01875 139.17542 30.471874 139.69104Q29.925 140.20667 29.76875 141.23792L28.3625 140.98792Q28.628124 139.56604 29.534374 138.80042Q30.45625 138.01917 31.815624 138.01917Q32.753124 138.01917 33.534374 138.42542Q34.33125 138.81604 34.7375 139.51917Q35.159374 140.20667 35.159374 140.98792Q35.159374 141.73792 34.753124 142.34729Q34.3625 142.95667 33.58125 143.31604Q34.596874 143.55042 35.159374 144.28479Q35.721874 145.01917 35.721874 146.12854Q35.721874 147.62854 34.628124 148.67542Q33.534374 149.72229 31.8625 149.72229Q30.3625 149.72229 29.3625 148.83167Q28.3625 147.92542 28.221874 146.48792ZM38.003124 149.51917L38.003124 147.90979L39.6125 147.90979L39.6125 149.51917L38.003124 149.51917ZM41.221874 146.48792L42.628124 146.30042Q42.878124 147.50354 43.45625 148.03479Q44.034374 148.55042 44.878124 148.55042Q45.8625 148.55042 46.55 147.86292Q47.2375 147.17542 47.2375 146.15979Q47.2375 145.19104 46.596874 144.56604Q45.971874 143.94104 44.9875 143.94104Q44.596874 143.94104 44.003124 144.09729L44.159374 142.86292Q44.3 142.87854 44.378124 142.87854Q45.284374 142.87854 46.003124 142.40979Q46.721874 141.94104 46.721874 140.95667Q46.721874 140.19104 46.190624 139.69104Q45.675 139.17542 44.846874 139.17542Q44.01875 139.17542 43.471874 139.69104Q42.925 140.20667 42.76875 141.23792L41.3625 140.98792Q41.628124 139.56604 42.534374 138.80042Q43.45625 138.01917 44.815624 138.01917Q45.753124 138.01917 46.534374 138.42542Q47.33125 138.81604 47.7375 139.51917Q48.159374 140.20667 48.159374 140.98792Q48.159374 141.73792 47.753124 142.34729Q47.3625 142.95667 46.58125 143.31604Q47.596874 143.55042 48.159374 144.28479Q48.721874 145.01917 48.721874 146.12854Q48.721874 147.62854 47.628124 148.67542Q46.534374 149.72229 44.8625 149.72229Q43.3625 149.72229 42.3625 148.83167Q41.3625 147.92542 41.221874 146.48792ZM50.4875 140.81604Q50.4875 139.58167 51.096874 138.72229Q51.721874 137.86292 52.89375 137.86292Q53.971874 137.86292 54.675 138.64417Q55.378124 139.40979 55.378124 140.89417Q55.378124 142.34729 54.659374 143.14417Q53.95625 143.92542 52.909374 143.92542Q51.8625 143.92542 51.175 143.15979Q50.4875 142.37854 50.4875 140.81604ZM52.925 138.83167Q52.409374 138.83167 52.05 139.28479Q51.70625 139.73792 51.70625 140.95667Q51.70625 142.05042 52.05 142.50354Q52.409374 142.95667 52.925 142.95667Q53.45625 142.95667 53.8 142.50354Q54.159374 142.05042 54.159374 140.84729Q54.159374 139.73792 53.8 139.28479Q53.45625 138.83167 52.925 138.83167ZM52.940624 149.94104L59.20625 137.86292L60.346874 137.86292L54.096874 149.94104L52.940624 149.94104ZM57.89375 146.83167Q57.89375 145.59729 58.503124 144.73792Q59.128124 143.87854 60.3 143.87854Q61.378124 143.87854 62.08125 144.65979Q62.8 145.42542 62.8 146.90979Q62.8 148.36292 62.08125 149.15979Q61.3625 149.94104 60.315624 149.94104Q59.26875 149.94104 58.58125 149.15979Q57.89375 148.37854 57.89375 146.83167ZM60.346874 144.84729Q59.815624 144.84729 59.45625 145.30042Q59.1125 145.75354 59.1125 146.97229Q59.1125 148.06604 59.45625 148.51917Q59.815624 148.97229 60.33125 148.97229Q60.878124 148.97229 61.221874 148.51917Q61.565624 148.06604 61.565624 146.86292Q61.565624 145.75354 61.20625 145.30042Q60.8625 144.84729 60.346874 144.84729Z" fill-rule="nonzero"/><path stroke="#757575" stroke-width="1.0" stroke-linecap="butt" d="M18.55 133.01917L145.23334 133.01917L177.60608 133.01917" fill-rule="nonzero"/><path fill="#9e9e9e" d="M179.60608 133.01917C179.60608 131.9146 178.71065 131.01917 177.60608 131.01917C176.50151 131.01917 175.60608 131.9146 175.60608 133.01917C175.60608 134.12373 176.50151 135.01917 177.60608 135.01917C178.71065 135.01917 179.60608 134.12373 179.60608 133.01917" fill-rule="nonzero"/><path fill="#efefef" d="M530.66876 268.8475L530.66876 257.39438L532.23126 257.39438L538.2469 266.37875L538.2469 257.39438L539.7 257.39438L539.7 268.8475L538.1375 268.8475L532.1219 259.8475L532.1219 268.8475L530.66876 268.8475ZM547.91876 267.81625Q547.1375 268.48813 546.41876 268.76938Q545.7 269.035 544.8719 269.035Q543.4969 269.035 542.7625 268.36313Q542.02814 267.69125 542.02814 266.66Q542.02814 266.05063 542.3094 265.55063Q542.59064 265.035 543.02814 264.73813Q543.48126 264.42563 544.04376 264.26938Q544.46564 264.16 545.29376 264.06625Q546.9969 263.86313 547.8094 263.58188Q547.8094 263.285 547.8094 263.20688Q547.8094 262.3475 547.41876 262.00375Q546.8719 261.51938 545.8094 261.51938Q544.825 261.51938 544.34064 261.87875Q543.8719 262.2225 543.65314 263.0975L542.27814 262.91Q542.46564 262.035 542.8875 261.48813Q543.325 260.94125 544.1375 260.66Q544.95 260.36313 546.0125 260.36313Q547.075 260.36313 547.73126 260.61313Q548.40314 260.86313 548.71564 261.23813Q549.02814 261.61313 549.15314 262.19125Q549.23126 262.55063 549.23126 263.48813L549.23126 265.36313Q549.23126 267.33188 549.3094 267.8475Q549.40314 268.36313 549.66876 268.8475L548.2 268.8475Q547.98126 268.41 547.91876 267.81625ZM547.8094 264.67563Q547.04376 264.98813 545.5125 265.20688Q544.6375 265.33188 544.27814 265.48813Q543.91876 265.64438 543.71564 265.95688Q543.52814 266.25375 543.52814 266.61313Q543.52814 267.17563 543.95 267.55063Q544.3875 267.92563 545.2 267.92563Q546.0125 267.92563 546.6375 267.58188Q547.27814 267.2225 547.575 266.5975Q547.8094 266.12875 547.8094 265.19125L547.8094 264.67563ZM554.575 267.58188L554.77814 268.83188Q554.1844 268.95688 553.71564 268.95688Q552.95 268.95688 552.52814 268.7225Q552.10626 268.4725 551.9344 268.08188Q551.7625 267.67563 551.7625 266.41L551.7625 261.64438L550.73126 261.64438L550.73126 260.55063L551.7625 260.55063L551.7625 258.48813L553.16876 257.64438L553.16876 260.55063L554.575 260.55063L554.575 261.64438L553.16876 261.64438L553.16876 266.48813Q553.16876 267.0975 553.23126 267.26938Q553.3094 267.44125 553.48126 267.55063Q553.65314 267.64438 553.96564 267.64438Q554.2 267.64438 554.575 267.58188ZM560.95 268.8475L560.95 267.62875Q559.98126 269.035 558.3094 269.035Q557.575 269.035 556.9344 268.75375Q556.3094 268.4725 555.9969 268.05063Q555.6844 267.61313 555.5594 267.00375Q555.48126 266.58188 555.48126 265.69125L555.48126 260.55063L556.8875 260.55063L556.8875 265.14438Q556.8875 266.25375 556.96564 266.62875Q557.10626 267.19125 557.52814 267.50375Q557.96564 267.81625 558.59064 267.81625Q559.23126 267.81625 559.77814 267.50375Q560.34064 267.17563 560.5594 266.61313Q560.79376 266.05063 560.79376 264.98813L560.79376 260.55063L562.2 260.55063L562.2 268.8475L560.95 268.8475ZM564.4969 268.8475L564.4969 260.55063L565.7625 260.55063L565.7625 261.80063Q566.2469 260.92563 566.65314 260.64438Q567.0594 260.36313 567.5594 260.36313Q568.2625 260.36313 568.9969 260.81625L568.5125 262.11313Q567.9969 261.81625 567.48126 261.81625Q567.02814 261.81625 566.65314 262.0975Q566.29376 262.36313 566.1375 262.86313Q565.90314 263.61313 565.90314 264.50375L565.90314 268.8475L564.4969 268.8475ZM574.91876 267.81625Q574.1375 268.48813 573.41876 268.76938Q572.7 269.035 571.8719 269.035Q570.4969 269.035 569.7625 268.36313Q569.02814 267.69125 569.02814 266.66Q569.02814 266.05063 569.3094 265.55063Q569.59064 265.035 570.02814 264.73813Q570.48126 264.42563 571.04376 264.26938Q571.46564 264.16 572.29376 264.06625Q573.9969 263.86313 574.8094 263.58188Q574.8094 263.285 574.8094 263.20688Q574.8094 262.3475 574.41876 262.00375Q573.8719 261.51938 572.8094 261.51938Q571.825 261.51938 571.34064 261.87875Q570.8719 262.2225 570.65314 263.0975L569.27814 262.91Q569.46564 262.035 569.8875 261.48813Q570.325 260.94125 571.1375 260.66Q571.95 260.36313 573.0125 260.36313Q574.075 260.36313 574.73126 260.61313Q575.40314 260.86313 575.71564 261.23813Q576.02814 261.61313 576.15314 262.19125Q576.23126 262.55063 576.23126 263.48813L576.23126 265.36313Q576.23126 267.33188 576.3094 267.8475Q576.40314 268.36313 576.66876 268.8475L575.2 268.8475Q574.98126 268.41 574.91876 267.81625ZM574.8094 264.67563Q574.04376 264.98813 572.5125 265.20688Q571.6375 265.33188 571.27814 265.48813Q570.91876 265.64438 570.71564 265.95688Q570.52814 266.25375 570.52814 266.61313Q570.52814 267.17563 570.95 267.55063Q571.3875 267.92563 572.2 267.92563Q573.0125 267.92563 573.6375 267.58188Q574.27814 267.2225 574.575 266.5975Q574.8094 266.12875 574.8094 265.19125L574.8094 264.67563ZM578.48126 268.8475L578.48126 257.39438L579.8875 257.39438L579.8875 268.8475L578.48126 268.8475Z" fill-rule="nonzero"/><path fill="#9e9e9e" d="M544.41876 282.19125L543.0125 282.30063Q542.825 281.4725 542.48126 281.0975Q541.91876 280.50375 541.075 280.50375Q540.40314 280.50375 539.90314 280.87875Q539.23126 281.36313 538.84064 282.30063Q538.46564 283.2225 538.45 284.94125Q538.96564 284.16 539.7 283.785Q540.4344 283.41 541.23126 283.41Q542.6375 283.41 543.6219 284.45688Q544.6219 285.48813 544.6219 287.12875Q544.6219 288.20688 544.15314 289.12875Q543.6844 290.05063 542.8719 290.55063Q542.0594 291.05063 541.02814 291.05063Q539.27814 291.05063 538.16876 289.75375Q537.0594 288.45688 537.0594 285.48813Q537.0594 282.16 538.27814 280.66Q539.35626 279.3475 541.16876 279.3475Q542.5125 279.3475 543.3719 280.11313Q544.2469 280.86313 544.41876 282.19125ZM538.66876 287.12875Q538.66876 287.86313 538.98126 288.535Q539.29376 289.19125 539.84064 289.535Q540.40314 289.87875 541.0125 289.87875Q541.90314 289.87875 542.54376 289.16Q543.1844 288.44125 543.1844 287.20688Q543.1844 286.01938 542.54376 285.3475Q541.91876 284.66 540.95 284.66Q539.9969 284.66 539.325 285.3475Q538.66876 286.01938 538.66876 287.12875ZM553.41876 282.19125L552.0125 282.30063Q551.825 281.4725 551.48126 281.0975Q550.91876 280.50375 550.075 280.50375Q549.40314 280.50375 548.90314 280.87875Q548.23126 281.36313 547.84064 282.30063Q547.46564 283.2225 547.45 284.94125Q547.96564 284.16 548.7 283.785Q549.4344 283.41 550.23126 283.41Q551.6375 283.41 552.6219 284.45688Q553.6219 285.48813 553.6219 287.12875Q553.6219 288.20688 553.15314 289.12875Q552.6844 290.05063 551.8719 290.55063Q551.0594 291.05063 550.02814 291.05063Q548.27814 291.05063 547.16876 289.75375Q546.0594 288.45688 546.0594 285.48813Q546.0594 282.16 547.27814 280.66Q548.35626 279.3475 550.16876 279.3475Q551.5125 279.3475 552.3719 280.11313Q553.2469 280.86313 553.41876 282.19125ZM547.66876 287.12875Q547.66876 287.86313 547.98126 288.535Q548.29376 289.19125 548.84064 289.535Q549.40314 289.87875 550.0125 289.87875Q550.90314 289.87875 551.54376 289.16Q552.1844 288.44125 552.1844 287.20688Q552.1844 286.01938 551.54376 285.3475Q550.91876 284.66 549.95 284.66Q548.9969 284.66 548.325 285.3475Q547.66876 286.01938 547.66876 287.12875ZM555.90314 290.8475L555.90314 289.23813L557.5125 289.23813L557.5125 290.8475L555.90314 290.8475ZM559.21564 280.89438L559.21564 279.535L566.6219 279.535L566.6219 280.62875Q565.52814 281.80063 564.45 283.73813Q563.3875 285.66 562.79376 287.69125Q562.3719 289.12875 562.2625 290.8475L560.8094 290.8475Q560.84064 289.48813 561.34064 287.58188Q561.85626 285.66 562.79376 283.89438Q563.7469 282.11313 564.825 280.89438L559.21564 280.89438ZM568.3875 282.14438Q568.3875 280.91 568.9969 280.05063Q569.6219 279.19125 570.79376 279.19125Q571.8719 279.19125 572.575 279.9725Q573.27814 280.73813 573.27814 282.2225Q573.27814 283.67563 572.5594 284.4725Q571.85626 285.25375 570.8094 285.25375Q569.7625 285.25375 569.075 284.48813Q568.3875 283.70688 568.3875 282.14438ZM570.825 280.16Q570.3094 280.16 569.95 280.61313Q569.60626 281.06625 569.60626 282.285Q569.60626 283.37875 569.95 283.83188Q570.3094 284.285 570.825 284.285Q571.35626 284.285 571.7 283.83188Q572.0594 283.37875 572.0594 282.17563Q572.0594 281.06625 571.7 280.61313Q571.35626 280.16 570.825 280.16ZM570.84064 291.26938L577.10626 279.19125L578.2469 279.19125L571.9969 291.26938L570.84064 291.26938ZM575.79376 288.16Q575.79376 286.92563 576.40314 286.06625Q577.02814 285.20688 578.2 285.20688Q579.27814 285.20688 579.98126 285.98813Q580.7 286.75375 580.7 288.23813Q580.7 289.69125 579.98126 290.48813Q579.2625 291.26938 578.21564 291.26938Q577.16876 291.26938 576.48126 290.48813Q575.79376 289.70688 575.79376 288.16ZM578.2469 286.17563Q577.71564 286.17563 577.35626 286.62875Q577.0125 287.08188 577.0125 288.30063Q577.0125 289.39438 577.35626 289.8475Q577.71564 290.30063 578.23126 290.30063Q578.77814 290.30063 579.1219 289.8475Q579.46564 289.39438 579.46564 288.19125Q579.46564 287.08188 579.10626 286.62875Q578.7625 286.17563 578.2469 286.17563Z" fill-rule="nonzero"/><path stroke="#757575" stroke-width="1.0" stroke-linecap="butt" d="M581.45 274.3475L454.76666 274.3475L422.39392 274.3475" fill-rule="nonzero"/><path fill="#9e9e9e" d="M424.39392 274.3475C424.39392 273.24292 423.4985 272.3475 422.39392 272.3475C421.28937 272.3475 420.39392 273.24292 420.39392 274.3475C420.39392 275.45206 421.28937 276.3475 422.39392 276.3475C423.4985 276.3475 424.39392 275.45206 424.39392 274.3475" fill-rule="nonzero"/><path fill="#f3f3f3" d="M271.26562 32.534374L273.15625 33.003124Q272.5625 35.346874 271.01562 36.58125Q269.46875 37.8 267.21875 37.8Q264.90625 37.8 263.45312 36.8625Q262.01562 35.909374 261.25 34.128124Q260.5 32.33125 260.5 30.284374Q260.5 28.05 261.34375 26.39375Q262.20312 24.721874 263.78125 23.8625Q265.35938 22.9875 267.25 22.9875Q269.40625 22.9875 270.85938 24.08125Q272.32812 25.175 272.90625 27.159374L271.04688 27.596874Q270.54688 26.034374 269.59375 25.33125Q268.65625 24.6125 267.21875 24.6125Q265.5625 24.6125 264.45312 25.409374Q263.34375 26.190624 262.89062 27.534374Q262.45312 28.8625 262.45312 30.26875Q262.45312 32.096874 262.98438 33.471874Q263.51562 34.83125 264.64062 35.503124Q265.76562 36.175 267.0625 36.175Q268.65625 36.175 269.76562 35.253124Q270.875 34.33125 271.26562 32.534374ZM281.59375 36.26875Q280.60938 37.096874 279.70312 37.440624Q278.79688 37.784374 277.76562 37.784374Q276.0625 37.784374 275.14062 36.95625Q274.21875 36.1125 274.21875 34.815624Q274.21875 34.05 274.5625 33.425Q274.92188 32.8 275.48438 32.425Q276.04688 32.034374 276.75 31.83125Q277.26562 31.70625 278.3125 31.565624Q280.4375 31.315624 281.4375 30.971874Q281.45312 30.6125 281.45312 30.503124Q281.45312 29.440624 280.95312 28.9875Q280.28125 28.39375 278.95312 28.39375Q277.70312 28.39375 277.10938 28.83125Q276.53125 29.26875 276.25 30.378124L274.53125 30.14375Q274.76562 29.034374 275.29688 28.3625Q275.82812 27.675 276.84375 27.315624Q277.85938 26.940624 279.20312 26.940624Q280.53125 26.940624 281.35938 27.253124Q282.1875 27.565624 282.57812 28.05Q282.96875 28.51875 283.125 29.2375Q283.21875 29.690624 283.21875 30.8625L283.21875 33.20625Q283.21875 35.659374 283.32812 36.315624Q283.4375 36.95625 283.78125 37.55L281.9375 37.55Q281.67188 37.003124 281.59375 36.26875ZM281.4375 32.346874Q280.48438 32.7375 278.5625 33.003124Q277.48438 33.159374 277.03125 33.3625Q276.59375 33.55 276.34375 33.925Q276.09375 34.3 276.09375 34.76875Q276.09375 35.471874 276.625 35.940624Q277.15625 36.409374 278.1875 36.409374Q279.20312 36.409374 279.98438 35.971874Q280.78125 35.51875 281.15625 34.753124Q281.4375 34.14375 281.4375 32.9875L281.4375 32.346874ZM289.65625 35.971874L289.90625 37.534374Q289.17188 37.690624 288.57812 37.690624Q287.625 37.690624 287.09375 37.39375Q286.57812 37.08125 286.35938 36.596874Q286.14062 36.096874 286.14062 34.51875L286.14062 28.55L284.85938 28.55L284.85938 27.175L286.14062 27.175L286.14062 24.6125L287.89062 23.55L287.89062 27.175L289.65625 27.175L289.65625 28.55L287.89062 28.55L287.89062 34.6125Q287.89062 35.3625 287.98438 35.58125Q288.07812 35.784374 288.28125 35.925Q288.5 36.05 288.89062 36.05Q289.17188 36.05 289.65625 35.971874ZM298.92188 34.20625L300.73438 34.440624Q300.3125 36.01875 299.14062 36.909374Q297.98438 37.784374 296.17188 37.784374Q293.90625 37.784374 292.5625 36.39375Q291.23438 34.9875 291.23438 32.45625Q291.23438 29.83125 292.57812 28.39375Q293.92188 26.940624 296.07812 26.940624Q298.15625 26.940624 299.46875 28.3625Q300.79688 29.76875 300.79688 32.346874Q300.79688 32.503124 300.78125 32.815624L293.04688 32.815624Q293.14062 34.51875 294.01562 35.425Q294.89062 36.33125 296.1875 36.33125Q297.15625 36.33125 297.82812 35.83125Q298.51562 35.315624 298.92188 34.20625ZM293.14062 31.3625L298.9375 31.3625Q298.82812 30.065624 298.28125 29.409374Q297.4375 28.39375 296.09375 28.39375Q294.89062 28.39375 294.0625 29.20625Q293.23438 30.003124 293.14062 31.3625ZM302.5 38.409374L304.20312 38.659374Q304.3125 39.45625 304.79688 39.815624Q305.45312 40.3 306.59375 40.3Q307.8125 40.3 308.46875 39.815624Q309.14062 39.33125 309.375 38.45625Q309.51562 37.909374 309.5 36.190624Q308.34375 37.55 306.625 37.55Q304.48438 37.55 303.3125 36.003124Q302.14062 34.45625 302.14062 32.3Q302.14062 30.815624 302.67188 29.565624Q303.21875 28.315624 304.23438 27.628124Q305.26562 26.940624 306.64062 26.940624Q308.46875 26.940624 309.67188 28.425L309.67188 27.175L311.28125 27.175L311.28125 36.14375Q311.28125 38.565624 310.78125 39.565624Q310.29688 40.58125 309.21875 41.159374Q308.15625 41.753124 306.59375 41.753124Q304.75 41.753124 303.59375 40.925Q302.45312 40.096874 302.5 38.409374ZM303.95312 32.175Q303.95312 34.221874 304.76562 35.159374Q305.57812 36.096874 306.79688 36.096874Q308.0 36.096874 308.8125 35.159374Q309.64062 34.221874 309.64062 32.2375Q309.64062 30.33125 308.79688 29.3625Q307.95312 28.39375 306.76562 28.39375Q305.59375 28.39375 304.76562 29.346874Q303.95312 30.3 303.95312 32.175ZM313.17188 32.3625Q313.17188 29.4875 314.76562 28.096874Q316.10938 26.940624 318.03125 26.940624Q320.17188 26.940624 321.51562 28.346874Q322.875 29.753124 322.875 32.221874Q322.875 34.221874 322.28125 35.378124Q321.6875 36.51875 320.53125 37.159374Q319.39062 37.784374 318.03125 37.784374Q315.84375 37.784374 314.5 36.39375Q313.17188 34.9875 313.17188 32.3625ZM314.96875 32.3625Q314.96875 34.3625 315.82812 35.346874Q316.70312 36.33125 318.03125 36.33125Q319.34375 36.33125 320.20312 35.346874Q321.07812 34.346874 321.07812 32.3Q321.07812 30.378124 320.20312 29.39375Q319.32812 28.39375 318.03125 28.39375Q316.70312 28.39375 315.82812 29.39375Q314.96875 30.378124 314.96875 32.3625ZM324.79688 37.55L324.79688 27.175L326.375 27.175L326.375 28.753124Q326.98438 27.64375 327.5 27.3Q328.01562 26.940624 328.625 26.940624Q329.51562 26.940624 330.4375 27.503124L329.82812 29.14375Q329.1875 28.753124 328.54688 28.753124Q327.96875 28.753124 327.5 29.1125Q327.04688 29.45625 326.84375 30.065624Q326.5625 31.003124 326.5625 32.1125L326.5625 37.55L324.79688 37.55ZM331.73438 41.55L331.54688 39.89375Q332.125 40.05 332.54688 40.05Q333.14062 40.05 333.48438 39.846874Q333.84375 39.659374 334.0625 39.315624Q334.23438 39.05 334.60938 38.003124Q334.65625 37.846874 334.76562 37.565624L330.82812 27.175L332.71875 27.175L334.875 33.190624Q335.29688 34.33125 335.625 35.58125Q335.9375 34.378124 336.34375 33.221874L338.5625 27.175L340.32812 27.175L336.375 37.721874Q335.75 39.440624 335.39062 40.08125Q334.92188 40.95625 334.3125 41.346874Q333.71875 41.753124 332.875 41.753124Q332.35938 41.753124 331.73438 41.55Z" fill-rule="nonzero"/></svg>