<svg version="1.1" viewBox="0.0 0.0 600.0 371.0" fill="none" stroke="none" stroke-linecap="square" stroke-miterlimit="10" width="600" height="371" xmlns:xlink="http://www.w3.org/1999/xlink" xmlns="http://www.w3.org/2000/svg"><path fill="#ffffff" fill-opacity="0.0" d="M0 0L600.0 0L600.0 371.0L0 371.0L0 0Z" fill-rule="nonzero"/><path fill="#f7d750" d="M300.0 54.916668C357.45438 54.916668 409.77304 88.00098 434.40332 139.90817L367.20166 171.79575C354.88654 145.84216 328.7272 129.3 300.0 129.3Z" fill-rule="nonzero"/><path fill="#78a94e" d="M434.40332 139.90817C455.36218 184.0781 453.28085 235.72647 428.83572 278.06668C404.3906 320.40686 360.70245 348.03357 311.97073 351.9676L305.98538 277.82547C330.35123 275.85846 352.19528 262.0451 364.41785 240.875C376.6404 219.7049 377.6811 193.8807 367.20166 171.79575Z" fill-rule="nonzero"/><path fill="#e5a345" d="M276.13614 56.843155C284.0261 55.560917 292.00653 54.916668 300.0 54.916668L300.0 129.3C296.00327 129.3 292.01303 129.62213 288.06808 130.26324Z" fill-rule="nonzero"/><path fill="#d0473d" d="M151.35399 209.67357C148.32492 134.50824 201.88397 68.91031 276.13614 56.843155L288.06808 130.26324C250.94199 136.29681 224.16246 169.09578 225.67699 206.67845Z" fill-rule="nonzero"/><path fill="#8c4595" d="M311.97073 351.9676C271.60748 355.22604 231.66008 341.88965 201.34946 315.03677C171.03883 288.1839 152.98454 250.1353 151.35399 209.67357L225.67699 206.67845C226.49226 226.90932 235.51941 245.93362 250.67473 259.36005C265.83005 272.7865 285.80374 279.45468 305.98538 277.82547Z" fill-rule="nonzero"/><path fill="#ffffff" d="M340.83615 115.88125L339.25803 115.88125L339.25803 105.80312Q338.6799 106.35 337.75803 106.89687Q336.83615 107.42812 336.08615 107.70937L336.08615 106.17812Q337.41428 105.55312 338.41428 104.6625Q339.41428 103.77187 339.82053 102.94375L340.83615 102.94375L340.83615 115.88125ZM344.9924 104.67812L344.9924 103.1625L353.32053 103.1625L353.32053 104.39687Q352.10178 105.70937 350.88303 107.88125Q349.6799 110.0375 349.02365 112.33437Q348.53928 113.95937 348.41428 115.88125L346.78928 115.88125Q346.82053 114.36562 347.38303 112.20937Q347.96115 110.05312 349.02365 108.05312Q350.08615 106.05312 351.28928 104.67812L344.9924 104.67812ZM355.77365 115.88125L355.77365 114.08437L357.57053 114.08437L357.57053 115.88125L355.77365 115.88125ZM360.1174 112.89687L361.63303 112.75625Q361.83615 113.83437 362.3674 114.31875Q362.91428 114.80312 363.77365 114.80312Q364.50803 114.80312 365.0549 114.475Q365.60178 114.13125 365.94553 113.58437Q366.3049 113.02187 366.53928 112.06875Q366.77365 111.11562 366.77365 110.13125Q366.77365 110.02187 366.77365 109.81875Q366.28928 110.56875 365.46115 111.0375Q364.64865 111.50625 363.69553 111.50625Q362.10178 111.50625 360.9924 110.35Q359.88303 109.19375 359.88303 107.2875Q359.88303 105.33437 361.03928 104.14687Q362.19553 102.94375 363.9299 102.94375Q365.19553 102.94375 366.22678 103.63125Q367.27365 104.30312 367.8049 105.55312Q368.35178 106.80312 368.35178 109.17812Q368.35178 111.64687 367.8049 113.11562Q367.27365 114.56875 366.21115 115.33437Q365.16428 116.1 363.7424 116.1Q362.22678 116.1 361.25803 115.27187Q360.3049 114.42812 360.1174 112.89687ZM366.60178 107.20937Q366.60178 105.85 365.8674 105.05312Q365.14865 104.25625 364.13303 104.25625Q363.07053 104.25625 362.28928 105.11562Q361.50803 105.975 361.50803 107.35Q361.50803 108.58437 362.2424 109.35Q362.9924 110.11562 364.08615 110.11562Q365.1799 110.11562 365.88303 109.35Q366.60178 108.58437 366.60178 107.20937ZM370.1799 106.08437Q370.1799 104.70937 370.8674 103.74062Q371.57053 102.77187 372.88303 102.77187Q374.10178 102.77187 374.89865 103.64687Q375.69553 104.50625 375.69553 106.19375Q375.69553 107.81875 374.88303 108.70937Q374.08615 109.58437 372.89865 109.58437Q371.7424 109.58437 370.96115 108.725Q370.1799 107.85 370.1799 106.08437ZM372.9299 103.86562Q372.33615 103.86562 371.94553 104.38125Q371.5549 104.88125 371.5549 106.24062Q371.5549 107.49062 371.94553 107.99062Q372.35178 108.49062 372.9299 108.49062Q373.52365 108.49062 373.91428 107.99062Q374.3049 107.475 374.3049 106.13125Q374.3049 104.88125 373.91428 104.38125Q373.52365 103.86562 372.9299 103.86562ZM372.94553 116.35L379.9924 102.77187L381.27365 102.77187L374.2424 116.35L372.94553 116.35ZM378.50803 112.85Q378.50803 111.475 379.19553 110.50625Q379.89865 109.5375 381.22678 109.5375Q382.44553 109.5375 383.22678 110.4125Q384.02365 111.27187 384.02365 112.95937Q384.02365 114.58437 383.22678 115.475Q382.4299 116.35 381.2424 116.35Q380.07053 116.35 379.28928 115.475Q378.50803 114.6 378.50803 112.85ZM381.27365 110.63125Q380.6799 110.63125 380.28928 111.14687Q379.89865 111.64687 379.89865 113.02187Q379.89865 114.24062 380.28928 114.75625Q380.6799 115.27187 381.25803 115.27187Q381.8674 115.27187 382.25803 114.75625Q382.64865 114.24062 382.64865 112.89687Q382.64865 111.64687 382.25803 111.14687Q381.8674 110.63125 381.27365 110.63125Z" fill-rule="nonzero"/><path fill="#ffffff" d="M371.87677 262.56458L373.47052 262.36145Q373.73615 263.7052 374.3924 264.29895Q375.04865 264.8927 375.98615 264.8927Q377.11115 264.8927 377.87677 264.12708Q378.6424 263.34583 378.6424 262.2052Q378.6424 261.11145 377.92365 260.40833Q377.22052 259.68958 376.12677 259.68958Q375.67365 259.68958 375.00177 259.87708L375.17365 258.48645Q375.3299 258.50208 375.43927 258.50208Q376.43927 258.50208 377.25177 257.97083Q378.06427 257.43958 378.06427 256.34583Q378.06427 255.47083 377.47052 254.90833Q376.87677 254.3302 375.9549 254.3302Q375.03302 254.3302 374.40802 254.90833Q373.79865 255.48645 373.62677 256.65833L372.04865 256.37708Q372.3299 254.78333 373.36115 253.90833Q374.3924 253.03333 375.92365 253.03333Q376.97052 253.03333 377.86115 253.48645Q378.75177 253.93958 379.22052 254.72083Q379.68927 255.50208 379.68927 256.37708Q379.68927 257.22083 379.23615 257.90833Q378.79865 258.5802 377.90802 258.98645Q379.04865 259.25208 379.67365 260.09583Q380.31427 260.92395 380.31427 262.15833Q380.31427 263.84583 379.0799 265.03333Q377.86115 266.2052 375.98615 266.2052Q374.28302 266.2052 373.15802 265.18958Q372.04865 264.17395 371.87677 262.56458ZM381.87677 259.61145Q381.87677 257.3302 382.34552 255.93958Q382.81427 254.54895 383.73615 253.79895Q384.67365 253.03333 386.0799 253.03333Q387.11115 253.03333 387.8924 253.4552Q388.67365 253.86145 389.17365 254.65833Q389.68927 255.43958 389.98615 256.5802Q390.28302 257.7052 390.28302 259.61145Q390.28302 261.87708 389.81427 263.28333Q389.34552 264.67395 388.40802 265.43958Q387.48615 266.18958 386.0799 266.18958Q384.2049 266.18958 383.1424 264.86145Q381.87677 263.25208 381.87677 259.61145ZM383.50177 259.61145Q383.50177 262.78333 384.23615 263.84583Q384.98615 264.8927 386.0799 264.8927Q387.15802 264.8927 387.90802 263.84583Q388.65802 262.78333 388.65802 259.61145Q388.65802 256.43958 387.90802 255.3927Q387.15802 254.34583 386.06427 254.34583Q384.97052 254.34583 384.31427 255.2677Q383.50177 256.43958 383.50177 259.61145ZM392.7674 265.97083L392.7674 264.17395L394.56427 264.17395L394.56427 265.97083L392.7674 265.97083ZM399.31427 258.98645Q398.3299 258.62708 397.84552 257.9552Q397.37677 257.28333 397.37677 256.36145Q397.37677 254.9552 398.37677 254.00208Q399.3924 253.03333 401.0799 253.03333Q402.7674 253.03333 403.78302 254.0177Q404.81427 254.98645 404.81427 256.3927Q404.81427 257.29895 404.34552 257.97083Q403.87677 258.62708 402.92365 258.98645Q404.11115 259.37708 404.72052 260.23645Q405.34552 261.09583 405.34552 262.28333Q405.34552 263.93958 404.17365 265.06458Q403.00177 266.18958 401.09552 266.18958Q399.18927 266.18958 398.0174 265.06458Q396.86115 263.92395 396.86115 262.23645Q396.86115 260.98645 397.48615 260.1427Q398.12677 259.28333 399.31427 258.98645ZM398.98615 256.29895Q398.98615 257.22083 399.5799 257.79895Q400.17365 258.37708 401.11115 258.37708Q402.0174 258.37708 402.59552 257.79895Q403.18927 257.22083 403.18927 256.3927Q403.18927 255.5177 402.5799 254.92395Q401.98615 254.3302 401.09552 254.3302Q400.18927 254.3302 399.5799 254.90833Q398.98615 255.48645 398.98615 256.29895ZM398.48615 262.25208Q398.48615 262.92395 398.79865 263.56458Q399.12677 264.18958 399.75177 264.54895Q400.3924 264.8927 401.12677 264.8927Q402.25177 264.8927 402.98615 264.15833Q403.73615 263.42395 403.73615 262.29895Q403.73615 261.15833 402.97052 260.42395Q402.2049 259.67395 401.06427 259.67395Q399.9549 259.67395 399.22052 260.40833Q398.48615 261.1427 398.48615 262.25208ZM407.17365 256.17395Q407.17365 254.79895 407.86115 253.8302Q408.56427 252.86145 409.87677 252.86145Q411.09552 252.86145 411.8924 253.73645Q412.68927 254.59583 412.68927 256.28333Q412.68927 257.90833 411.87677 258.79895Q411.0799 259.67395 409.8924 259.67395Q408.73615 259.67395 407.9549 258.81458Q407.17365 257.93958 407.17365 256.17395ZM409.92365 253.9552Q409.3299 253.9552 408.93927 254.47083Q408.54865 254.97083 408.54865 256.3302Q408.54865 257.5802 408.93927 258.0802Q409.34552 258.5802 409.92365 258.5802Q410.5174 258.5802 410.90802 258.0802Q411.29865 257.56458 411.29865 256.22083Q411.29865 254.97083 410.90802 254.47083Q410.5174 253.9552 409.92365 253.9552ZM409.93927 266.43958L416.98615 252.86145L418.2674 252.86145L411.23615 266.43958L409.93927 266.43958ZM415.50177 262.93958Q415.50177 261.56458 416.18927 260.59583Q416.8924 259.62708 418.22052 259.62708Q419.43927 259.62708 420.22052 260.50208Q421.0174 261.36145 421.0174 263.04895Q421.0174 264.67395 420.22052 265.56458Q419.42365 266.43958 418.23615 266.43958Q417.06427 266.43958 416.28302 265.56458Q415.50177 264.68958 415.50177 262.93958ZM418.2674 260.72083Q417.67365 260.72083 417.28302 261.23645Q416.8924 261.73645 416.8924 263.11145Q416.8924 264.3302 417.28302 264.84583Q417.67365 265.36145 418.25177 265.36145Q418.86115 265.36145 419.25177 264.84583Q419.6424 264.3302 419.6424 262.98645Q419.6424 261.73645 419.25177 261.23645Q418.86115 260.72083 418.2674 260.72083Z" fill-rule="nonzero"/><path fill="#ffffff" d="M209.57458 292.1828L209.57458 293.69843L201.05896 293.69843Q201.04333 293.1203 201.24646 292.60468Q201.57458 291.72968 202.27771 290.88593Q202.99646 290.04218 204.35583 288.9328Q206.44958 287.21405 207.18396 286.21405Q207.93396 285.19843 207.93396 284.3078Q207.93396 283.35468 207.26208 282.71405Q206.59021 282.07343 205.51208 282.07343Q204.35583 282.07343 203.66833 282.76093Q202.99646 283.44843 202.98083 284.65155L201.35583 284.47968Q201.52771 282.66718 202.60583 281.71405Q203.69958 280.76093 205.54333 280.76093Q207.38708 280.76093 208.46521 281.79218Q209.55896 282.82343 209.55896 284.33905Q209.55896 285.10468 209.23083 285.85468Q208.91833 286.60468 208.18396 287.4328Q207.44958 288.26093 205.74646 289.69843Q204.32458 290.90155 203.91833 291.32343Q203.51208 291.7453 203.26208 292.1828L209.57458 292.1828ZM211.26208 290.32343L212.91833 290.1828Q213.10583 291.40155 213.77771 292.01093Q214.44958 292.6203 215.40271 292.6203Q216.54333 292.6203 217.32458 291.76093Q218.12146 290.90155 218.12146 289.46405Q218.12146 288.1203 217.35583 287.33905Q216.60583 286.5578 215.37146 286.5578Q214.60583 286.5578 213.98083 286.90155Q213.37146 287.2453 213.02771 287.8078L211.54333 287.60468L212.79333 280.9953L219.19958 280.9953L219.19958 282.4953L214.05896 282.4953L213.35583 285.96405Q214.52771 285.15155 215.79333 285.15155Q217.48083 285.15155 218.63708 286.32343Q219.80896 287.4953 219.80896 289.32343Q219.80896 291.07343 218.77771 292.35468Q217.54333 293.91718 215.40271 293.91718Q213.63708 293.91718 212.52771 292.9328Q211.41833 291.94843 211.26208 290.32343ZM222.15271 293.69843L222.15271 291.90155L223.94958 291.90155L223.94958 293.69843L222.15271 293.69843ZM234.46521 283.96405L232.90271 284.08905Q232.68396 283.16718 232.29333 282.7453Q231.65271 282.0578 230.71521 282.0578Q229.96521 282.0578 229.38708 282.47968Q228.63708 283.02655 228.19958 284.07343Q227.77771 285.1203 227.76208 287.0578Q228.34021 286.1828 229.15271 285.76093Q229.98083 285.33905 230.88708 285.33905Q232.48083 285.33905 233.59021 286.51093Q234.69958 287.66718 234.69958 289.51093Q234.69958 290.72968 234.16833 291.77655Q233.65271 292.8078 232.73083 293.3703Q231.82458 293.91718 230.66833 293.91718Q228.68396 293.91718 227.43396 292.46405Q226.18396 291.01093 226.18396 287.66718Q226.18396 283.9328 227.57458 282.22968Q228.77771 280.76093 230.80896 280.76093Q232.34021 280.76093 233.30896 281.6203Q234.27771 282.46405 234.46521 283.96405ZM228.01208 289.52655Q228.01208 290.33905 228.35583 291.08905Q228.69958 291.83905 229.32458 292.22968Q229.94958 292.6203 230.63708 292.6203Q231.63708 292.6203 232.35583 291.8078Q233.07458 290.9953 233.07458 289.60468Q233.07458 288.27655 232.35583 287.51093Q231.65271 286.72968 230.57458 286.72968Q229.49646 286.72968 228.74646 287.51093Q228.01208 288.27655 228.01208 289.52655ZM236.55896 283.90155Q236.55896 282.52655 237.24646 281.5578Q237.94958 280.58905 239.26208 280.58905Q240.48083 280.58905 241.27771 281.46405Q242.07458 282.32343 242.07458 284.01093Q242.07458 285.63593 241.26208 286.52655Q240.46521 287.40155 239.27771 287.40155Q238.12146 287.40155 237.34021 286.54218Q236.55896 285.66718 236.55896 283.90155ZM239.30896 281.6828Q238.71521 281.6828 238.32458 282.19843Q237.93396 282.69843 237.93396 284.0578Q237.93396 285.3078 238.32458 285.8078Q238.73083 286.3078 239.30896 286.3078Q239.90271 286.3078 240.29333 285.8078Q240.68396 285.29218 240.68396 283.94843Q240.68396 282.69843 240.29333 282.19843Q239.90271 281.6828 239.30896 281.6828ZM239.32458 294.16718L246.37146 280.58905L247.65271 280.58905L240.62146 294.16718L239.32458 294.16718ZM244.88708 290.66718Q244.88708 289.29218 245.57458 288.32343Q246.27771 287.35468 247.60583 287.35468Q248.82458 287.35468 249.60583 288.22968Q250.40271 289.08905 250.40271 290.77655Q250.40271 292.40155 249.60583 293.29218Q248.80896 294.16718 247.62146 294.16718Q246.44958 294.16718 245.66833 293.29218Q244.88708 292.41718 244.88708 290.66718ZM247.65271 288.44843Q247.05896 288.44843 246.66833 288.96405Q246.27771 289.46405 246.27771 290.83905Q246.27771 292.0578 246.66833 292.57343Q247.05896 293.08905 247.63708 293.08905Q248.24646 293.08905 248.63708 292.57343Q249.02771 292.0578 249.02771 290.71405Q249.02771 289.46405 248.63708 288.96405Q248.24646 288.44843 247.65271 288.44843Z" fill-rule="nonzero"/><path fill="#ffffff" d="M197.13596 138.10262L197.13596 139.61824L188.62033 139.61824Q188.6047 139.04012 188.80783 138.52449Q189.13596 137.64949 189.83908 136.80574Q190.55783 135.96199 191.9172 134.85262Q194.01096 133.13387 194.74533 132.13387Q195.49533 131.11824 195.49533 130.22762Q195.49533 129.27449 194.82346 128.63387Q194.15158 127.99324 193.07346 127.99324Q191.9172 127.99324 191.2297 128.68074Q190.55783 129.36824 190.5422 130.57137L188.9172 130.39949Q189.08908 128.58699 190.1672 127.633865Q191.26096 126.68074 193.1047 126.68074Q194.94846 126.68074 196.02658 127.71199Q197.12033 128.74324 197.12033 130.25887Q197.12033 131.02449 196.7922 131.77449Q196.4797 132.52449 195.74533 133.35262Q195.01096 134.18074 193.30783 135.61824Q191.88596 136.82137 191.4797 137.24324Q191.07346 137.66512 190.82346 138.10262L197.13596 138.10262ZM198.82346 136.21199L200.4172 136.00887Q200.68283 137.35262 201.33908 137.94637Q201.99533 138.54012 202.93283 138.54012Q204.05783 138.54012 204.82346 137.77449Q205.58908 136.99324 205.58908 135.85262Q205.58908 134.75887 204.87033 134.05574Q204.1672 133.33699 203.07346 133.33699Q202.62033 133.33699 201.94846 133.52449L202.12033 132.13387Q202.27658 132.14949 202.38596 132.14949Q203.38596 132.14949 204.19846 131.61824Q205.01096 131.08699 205.01096 129.99324Q205.01096 129.11824 204.4172 128.55574Q203.82346 127.977615 202.90158 127.977615Q201.9797 127.977615 201.3547 128.55574Q200.74533 129.13387 200.57346 130.30574L198.99533 130.02449Q199.27658 128.43074 200.30783 127.55574Q201.33908 126.68074 202.87033 126.68074Q203.9172 126.68074 204.80783 127.133865Q205.69846 127.58699 206.1672 128.36824Q206.63596 129.14949 206.63596 130.02449Q206.63596 130.86824 206.18283 131.55574Q205.74533 132.22762 204.8547 132.63387Q205.99533 132.89949 206.62033 133.74324Q207.26096 134.57137 207.26096 135.80574Q207.26096 137.49324 206.02658 138.68074Q204.80783 139.85262 202.93283 139.85262Q201.2297 139.85262 200.1047 138.83699Q198.99533 137.82137 198.82346 136.21199ZM209.71408 139.61824L209.71408 137.82137L211.51096 137.82137L211.51096 139.61824L209.71408 139.61824ZM219.77658 139.61824L218.19846 139.61824L218.19846 129.54012Q217.62033 130.08699 216.69846 130.63387Q215.77658 131.16512 215.02658 131.44637L215.02658 129.91512Q216.3547 129.29012 217.3547 128.39949Q218.3547 127.508865 218.76096 126.68074L219.77658 126.68074L219.77658 139.61824ZM224.12033 129.82137Q224.12033 128.44637 224.80783 127.477615Q225.51096 126.508865 226.82346 126.508865Q228.0422 126.508865 228.83908 127.383865Q229.63596 128.24324 229.63596 129.93074Q229.63596 131.55574 228.82346 132.44637Q228.02658 133.32137 226.83908 133.32137Q225.68283 133.32137 224.90158 132.46199Q224.12033 131.58699 224.12033 129.82137ZM226.87033 127.602615Q226.27658 127.602615 225.88596 128.11824Q225.49533 128.61824 225.49533 129.97762Q225.49533 131.22762 225.88596 131.72762Q226.2922 132.22762 226.87033 132.22762Q227.46408 132.22762 227.8547 131.72762Q228.24533 131.21199 228.24533 129.86824Q228.24533 128.61824 227.8547 128.11824Q227.46408 127.602615 226.87033 127.602615ZM226.88596 140.08699L233.93283 126.508865L235.21408 126.508865L228.18283 140.08699L226.88596 140.08699ZM232.44846 136.58699Q232.44846 135.21199 233.13596 134.24324Q233.83908 133.27449 235.1672 133.27449Q236.38596 133.27449 237.1672 134.14949Q237.96408 135.00887 237.96408 136.69637Q237.96408 138.32137 237.1672 139.21199Q236.37033 140.08699 235.18283 140.08699Q234.01096 140.08699 233.2297 139.21199Q232.44846 138.33699 232.44846 136.58699ZM235.21408 134.36824Q234.62033 134.36824 234.2297 134.88387Q233.83908 135.38387 233.83908 136.75887Q233.83908 137.97762 234.2297 138.49324Q234.62033 139.00887 235.19846 139.00887Q235.80783 139.00887 236.19846 138.49324Q236.58908 137.97762 236.58908 136.63387Q236.58908 135.38387 236.19846 134.88387Q235.80783 134.36824 235.21408 134.36824Z" fill-rule="nonzero"/><path stroke="#ffffff" stroke-width="1.0" stroke-linejoin="round" stroke-linecap="round" d="M367.20166 171.79575C354.88654 145.84216 328.7272 129.3 300.0 129.3L300.0 54.916668C357.45438 54.916668 409.77304 88.00098 434.40332 139.90817" fill-rule="nonzero"/><path stroke="#ffffff" stroke-width="1.0" stroke-linejoin="round" stroke-linecap="round" d="M305.98538 277.82547C330.35123 275.85846 352.19528 262.0451 364.41785 240.875C376.6404 219.7049 377.6811 193.8807 367.20166 171.79575L434.40332 139.90817C455.36218 184.0781 453.28085 235.72647 428.83572 278.06668C404.3906 320.40686 360.70245 348.03357 311.97073 351.9676" fill-rule="nonzero"/><path stroke="#ffffff" stroke-width="1.0" stroke-linejoin="round" stroke-linecap="round" d="M225.67699 206.67845C226.49226 226.90932 235.51941 245.93362 250.67473 259.36005C265.83005 272.7865 285.80374 279.45468 305.98538 277.82547L311.97073 351.9676C271.60748 355.22604 231.66008 341.88965 201.34946 315.03677C171.03883 288.1839 152.98454 250.1353 151.35399 209.67357" fill-rule="nonzero"/><path stroke="#ffffff" stroke-width="1.0" stroke-linejoin="round" stroke-linecap="round" d="M288.06808 130.26324C250.94199 136.29681 224.16246 169.09578 225.67699 206.67845L151.35399 209.67357C148.32492 134.50824 201.88397 68.91031 276.13614 56.843155" fill-rule="nonzero"/><path stroke="#ffffff" stroke-width="1.0" stroke-linejoin="round" stroke-linecap="round" d="M300.0 129.3C296.00327 129.3 292.01303 129.62213 288.06808 130.26324L276.13614 56.843155C284.0261 55.560917 292.00653 54.916668 300.0 54.916668" fill-rule="nonzero"/><path fill="#efefef" d="M22.70625 69.916664L22.70625 59.80729L18.925 59.80729L18.925 58.46354L28.003124 58.46354L28.003124 59.80729L24.221874 59.80729L24.221874 69.916664L22.70625 69.916664ZM35.284374 67.24479L36.7375 67.416664Q36.39375 68.697914 35.45625 69.40104Q34.534374 70.104164 33.096874 70.104164Q31.26875 70.104164 30.20625 68.979164Q29.14375 67.854164 29.14375 65.83854Q29.14375 63.74479 30.221874 62.58854Q31.3 61.43229 33.01875 61.43229Q34.675 61.43229 35.721874 62.572914Q36.784374 63.697914 36.784374 65.74479Q36.784374 65.86979 36.784374 66.11979L30.596874 66.11979Q30.675 67.49479 31.3625 68.229164Q32.065624 68.947914 33.096874 68.947914Q33.878124 68.947914 34.425 68.541664Q34.971874 68.135414 35.284374 67.24479ZM30.675 64.96354L35.3 64.96354Q35.20625 63.916664 34.76875 63.40104Q34.096874 62.58854 33.034374 62.58854Q32.065624 62.58854 31.39375 63.24479Q30.7375 63.885414 30.675 64.96354ZM37.675 69.916664L40.70625 65.604164L37.89375 61.61979L39.659374 61.61979L40.925 63.55729Q41.284374 64.11979 41.503124 64.49479Q41.846874 63.979164 42.14375 63.572914L43.534374 61.61979L45.221874 61.61979L42.346874 65.52604L45.440624 69.916664L43.70625 69.916664L42.003124 67.33854L41.55 66.635414L39.378124 69.916664L37.675 69.916664ZM49.675 68.65104L49.878124 69.90104Q49.284374 70.02604 48.815624 70.02604Q48.05 70.02604 47.628124 69.791664Q47.20625 69.541664 47.034374 69.15104Q46.8625 68.74479 46.8625 67.479164L46.8625 62.71354L45.83125 62.71354L45.83125 61.61979L46.8625 61.61979L46.8625 59.55729L48.26875 58.71354L48.26875 61.61979L49.675 61.61979L49.675 62.71354L48.26875 62.71354L48.26875 67.55729Q48.26875 68.166664 48.33125 68.33854Q48.409374 68.510414 48.58125 68.61979Q48.753124 68.71354 49.065624 68.71354Q49.3 68.71354 49.675 68.65104Z" fill-rule="nonzero"/><path fill="#9e9e9e" d="M26.6125 90.55729L26.6125 91.916664L19.034374 91.916664Q19.01875 91.40104 19.20625 90.93229Q19.4875 90.166664 20.128124 89.416664Q20.76875 88.666664 21.971874 87.68229Q23.83125 86.15104 24.4875 85.260414Q25.14375 84.354164 25.14375 83.55729Q25.14375 82.729164 24.55 82.15104Q23.95625 81.572914 22.9875 81.572914Q21.971874 81.572914 21.3625 82.18229Q20.753124 82.791664 20.753124 83.86979L19.3 83.729164Q19.45625 82.104164 20.425 81.260414Q21.39375 80.416664 23.01875 80.416664Q24.675 80.416664 25.628124 81.33854Q26.596874 82.24479 26.596874 83.58854Q26.596874 84.27604 26.315624 84.947914Q26.034374 85.604164 25.378124 86.33854Q24.721874 87.072914 23.20625 88.354164Q21.940624 89.416664 21.58125 89.80729Q21.221874 90.18229 20.9875 90.55729L26.6125 90.55729ZM29.003124 91.916664L29.003124 90.30729L30.6125 90.30729L30.6125 91.916664L29.003124 91.916664ZM39.51875 83.260414L38.1125 83.36979Q37.925 82.541664 37.58125 82.166664Q37.01875 81.572914 36.175 81.572914Q35.503124 81.572914 35.003124 81.947914Q34.33125 82.43229 33.940624 83.36979Q33.565624 84.291664 33.55 86.010414Q34.065624 85.229164 34.8 84.854164Q35.534374 84.479164 36.33125 84.479164Q37.7375 84.479164 38.721874 85.52604Q39.721874 86.55729 39.721874 88.197914Q39.721874 89.27604 39.253124 90.197914Q38.784374 91.11979 37.971874 91.61979Q37.159374 92.11979 36.128124 92.11979Q34.378124 92.11979 33.26875 90.822914Q32.159374 89.52604 32.159374 86.55729Q32.159374 83.229164 33.378124 81.729164Q34.45625 80.416664 36.26875 80.416664Q37.6125 80.416664 38.471874 81.18229Q39.346874 81.93229 39.51875 83.260414ZM33.76875 88.197914Q33.76875 88.93229 34.08125 89.604164Q34.39375 90.260414 34.940624 90.604164Q35.503124 90.947914 36.1125 90.947914Q37.003124 90.947914 37.64375 90.229164Q38.284374 89.510414 38.284374 88.27604Q38.284374 87.08854 37.64375 86.416664Q37.01875 85.729164 36.05 85.729164Q35.096874 85.729164 34.425 86.416664Q33.76875 87.08854 33.76875 88.197914ZM41.4875 83.21354Q41.4875 81.979164 42.096874 81.11979Q42.721874 80.260414 43.89375 80.260414Q44.971874 80.260414 45.675 81.041664Q46.378124 81.80729 46.378124 83.291664Q46.378124 84.74479 45.659374 85.541664Q44.95625 86.322914 43.909374 86.322914Q42.8625 86.322914 42.175 85.55729Q41.4875 84.77604 41.4875 83.21354ZM43.925 81.229164Q43.409374 81.229164 43.05 81.68229Q42.70625 82.135414 42.70625 83.354164Q42.70625 84.447914 43.05 84.90104Q43.409374 85.354164 43.925 85.354164Q44.45625 85.354164 44.8 84.90104Q45.159374 84.447914 45.159374 83.24479Q45.159374 82.135414 44.8 81.68229Q44.45625 81.229164 43.925 81.229164ZM43.940624 92.33854L50.20625 80.260414L51.346874 80.260414L45.096874 92.33854L43.940624 92.33854ZM48.89375 89.229164Q48.89375 87.99479 49.503124 87.135414Q50.128124 86.27604 51.3 86.27604Q52.378124 86.27604 53.08125 87.05729Q53.8 87.822914 53.8 89.30729Q53.8 90.760414 53.08125 91.55729Q52.3625 92.33854 51.315624 92.33854Q50.26875 92.33854 49.58125 91.55729Q48.89375 90.77604 48.89375 89.229164ZM51.346874 87.24479Q50.815624 87.24479 50.45625 87.697914Q50.1125 88.15104 50.1125 89.36979Q50.1125 90.46354 50.45625 90.916664Q50.815624 91.36979 51.33125 91.36979Q51.878124 91.36979 52.221874 90.916664Q52.565624 90.46354 52.565624 89.260414Q52.565624 88.15104 52.20625 87.697914Q51.8625 87.24479 51.346874 87.24479Z" fill-rule="nonzero"/><path stroke="#757575" stroke-width="1.0" stroke-linecap="butt" d="M18.55 75.416664L145.23334 75.416664L288.6278 62.813286" fill-rule="nonzero"/><path fill="#9e9e9e" d="M290.6278 62.813286C290.6278 61.708714 289.73236 60.813286 288.6278 60.813286C287.52322 60.813286 286.6278 61.708714 286.6278 62.813286C286.6278 63.917854 287.52322 64.813286 288.6278 64.813286C289.73236 64.813286 290.6278 63.917854 290.6278 62.813286" fill-rule="nonzero"/><path fill="#efefef" d="M19.76875 110.916664L19.76875 99.46354L21.33125 99.46354L27.346874 108.447914L27.346874 99.46354L28.8 99.46354L28.8 110.916664L27.2375 110.916664L21.221874 101.916664L21.221874 110.916664L19.76875 110.916664ZM37.01875 109.885414Q36.2375 110.55729 35.51875 110.83854Q34.8 111.104164 33.971874 111.104164Q32.596874 111.104164 31.8625 110.43229Q31.128124 109.760414 31.128124 108.729164Q31.128124 108.11979 31.409374 107.61979Q31.690624 107.104164 32.128124 106.80729Q32.58125 106.49479 33.14375 106.33854Q33.565624 106.229164 34.39375 106.135414Q36.096874 105.93229 36.909374 105.65104Q36.909374 105.354164 36.909374 105.27604Q36.909374 104.416664 36.51875 104.072914Q35.971874 103.58854 34.909374 103.58854Q33.925 103.58854 33.440624 103.947914Q32.971874 104.291664 32.753124 105.166664L31.378124 104.979164Q31.565624 104.104164 31.9875 103.55729Q32.425 103.010414 33.2375 102.729164Q34.05 102.43229 35.1125 102.43229Q36.175 102.43229 36.83125 102.68229Q37.503124 102.93229 37.815624 103.30729Q38.128124 103.68229 38.253124 104.260414Q38.33125 104.61979 38.33125 105.55729L38.33125 107.43229Q38.33125 109.40104 38.409374 109.916664Q38.503124 110.43229 38.76875 110.916664L37.3 110.916664Q37.08125 110.479164 37.01875 109.885414ZM36.909374 106.74479Q36.14375 107.05729 34.6125 107.27604Q33.7375 107.40104 33.378124 107.55729Q33.01875 107.71354 32.815624 108.02604Q32.628124 108.322914 32.628124 108.68229Q32.628124 109.24479 33.05 109.61979Q33.4875 109.99479 34.3 109.99479Q35.1125 109.99479 35.7375 109.65104Q36.378124 109.291664 36.675 108.666664Q36.909374 108.197914 36.909374 107.260414L36.909374 106.74479ZM42.909374 110.916664L39.753124 102.61979L41.2375 102.61979L43.01875 107.58854Q43.315624 108.385414 43.55 109.260414Q43.7375 108.604164 44.08125 107.68229L45.925 102.61979L47.3625 102.61979L44.221874 110.916664L42.909374 110.916664ZM54.01875 109.885414Q53.2375 110.55729 52.51875 110.83854Q51.8 111.104164 50.971874 111.104164Q49.596874 111.104164 48.8625 110.43229Q48.128124 109.760414 48.128124 108.729164Q48.128124 108.11979 48.409374 107.61979Q48.690624 107.104164 49.128124 106.80729Q49.58125 106.49479 50.14375 106.33854Q50.565624 106.229164 51.39375 106.135414Q53.096874 105.93229 53.909374 105.65104Q53.909374 105.354164 53.909374 105.27604Q53.909374 104.416664 53.51875 104.072914Q52.971874 103.58854 51.909374 103.58854Q50.925 103.58854 50.440624 103.947914Q49.971874 104.291664 49.753124 105.166664L48.378124 104.979164Q48.565624 104.104164 48.9875 103.55729Q49.425 103.010414 50.2375 102.729164Q51.05 102.43229 52.1125 102.43229Q53.175 102.43229 53.83125 102.68229Q54.503124 102.93229 54.815624 103.30729Q55.128124 103.68229 55.253124 104.260414Q55.33125 104.61979 55.33125 105.55729L55.33125 107.43229Q55.33125 109.40104 55.409374 109.916664Q55.503124 110.43229 55.76875 110.916664L54.3 110.916664Q54.08125 110.479164 54.01875 109.885414ZM53.909374 106.74479Q53.14375 107.05729 51.6125 107.27604Q50.7375 107.40104 50.378124 107.55729Q50.01875 107.71354 49.815624 108.02604Q49.628124 108.322914 49.628124 108.68229Q49.628124 109.24479 50.05 109.61979Q50.4875 109.99479 51.3 109.99479Q52.1125 109.99479 52.7375 109.65104Q53.378124 109.291664 53.675 108.666664Q53.909374 108.197914 53.909374 107.260414L53.909374 106.74479ZM57.58125 110.916664L57.58125 99.46354L58.9875 99.46354L58.9875 110.916664L57.58125 110.916664ZM65.26875 107.229164L66.70625 107.104164Q66.8 107.96354 67.175 108.52604Q67.55 109.072914 68.33125 109.416664Q69.1125 109.74479 70.08125 109.74479Q70.95625 109.74479 71.6125 109.49479Q72.28438 109.229164 72.59688 108.791664Q72.925 108.33854 72.925 107.80729Q72.925 107.260414 72.6125 106.86979Q72.3 106.46354 71.58125 106.18229Q71.12813 106.010414 69.55 105.635414Q67.97188 105.24479 67.33125 104.916664Q66.51875 104.479164 66.1125 103.854164Q65.70625 103.21354 65.70625 102.416664Q65.70625 101.55729 66.19063 100.80729Q66.69063 100.041664 67.62813 99.65104Q68.58125 99.260414 69.7375 99.260414Q71.01875 99.260414 71.9875 99.68229Q72.95625 100.08854 73.47188 100.885414Q74.00313 101.68229 74.05 102.68229L72.59688 102.791664Q72.47188 101.71354 71.8 101.166664Q71.12813 100.604164 69.8 100.604164Q68.425 100.604164 67.8 101.104164Q67.175 101.604164 67.175 102.322914Q67.175 102.93229 67.6125 103.33854Q68.05 103.729164 69.89375 104.15104Q71.75313 104.572914 72.44063 104.885414Q73.44063 105.33854 73.90938 106.05729Q74.39375 106.760414 74.39375 107.68229Q74.39375 108.58854 73.8625 109.40104Q73.34688 110.21354 72.3625 110.666664Q71.37813 111.11979 70.15938 111.11979Q68.59688 111.11979 67.55 110.666664Q66.50313 110.197914 65.89375 109.291664Q65.3 108.385414 65.26875 107.229164ZM79.675 109.65104L79.87813 110.90104Q79.28438 111.02604 78.81563 111.02604Q78.05 111.02604 77.62813 110.791664Q77.20625 110.541664 77.03438 110.15104Q76.8625 109.74479 76.8625 108.479164L76.8625 103.71354L75.83125 103.71354L75.83125 102.61979L76.8625 102.61979L76.8625 100.55729L78.26875 99.71354L78.26875 102.61979L79.675 102.61979L79.675 103.71354L78.26875 103.71354L78.26875 108.55729Q78.26875 109.166664 78.33125 109.33854Q78.40938 109.510414 78.58125 109.61979Q78.75313 109.71354 79.06563 109.71354Q79.3 109.71354 79.675 109.65104ZM80.59688 110.916664L80.59688 102.61979L81.8625 102.61979L81.8625 103.86979Q82.34688 102.99479 82.75313 102.71354Q83.15938 102.43229 83.65938 102.43229Q84.3625 102.43229 85.09688 102.885414L84.6125 104.18229Q84.09688 103.885414 83.58125 103.885414Q83.12813 103.885414 82.75313 104.166664Q82.39375 104.43229 82.2375 104.93229Q82.00313 105.68229 82.00313 106.572914L82.00313 110.916664L80.59688 110.916664ZM91.05 110.916664L91.05 109.697914Q90.08125 111.104164 88.40938 111.104164Q87.675 111.104164 87.03438 110.822914Q86.40938 110.541664 86.09688 110.11979Q85.78438 109.68229 85.65938 109.072914Q85.58125 108.65104 85.58125 107.760414L85.58125 102.61979L86.9875 102.61979L86.9875 107.21354Q86.9875 108.322914 87.06563 108.697914Q87.20625 109.260414 87.62813 109.572914Q88.06563 109.885414 88.69063 109.885414Q89.33125 109.885414 89.87813 109.572914Q90.44063 109.24479 90.65938 108.68229Q90.89375 108.11979 90.89375 107.05729L90.89375 102.61979L92.3 102.61979L92.3 110.916664L91.05 110.916664ZM100.01875 107.86979L101.40938 108.05729Q101.175 109.479164 100.2375 110.291664Q99.31563 111.104164 97.95625 111.104164Q96.25313 111.104164 95.20625 109.99479Q94.175 108.86979 94.175 106.791664Q94.175 105.447914 94.6125 104.447914Q95.06563 103.43229 95.97188 102.93229Q96.89375 102.43229 97.95625 102.43229Q99.31563 102.43229 100.175 103.11979Q101.03438 103.791664 101.26875 105.05729L99.90938 105.260414Q99.70625 104.43229 99.20625 104.010414Q98.72188 103.58854 98.01875 103.58854Q96.95625 103.58854 96.28438 104.354164Q95.62813 105.104164 95.62813 106.760414Q95.62813 108.43229 96.26875 109.197914Q96.90938 109.947914 97.94063 109.947914Q98.76875 109.947914 99.31563 109.447914Q99.87813 108.93229 100.01875 107.86979ZM105.675 109.65104L105.87813 110.90104Q105.28438 111.02604 104.81563 111.02604Q104.05 111.02604 103.62813 110.791664Q103.20625 110.541664 103.03438 110.15104Q102.8625 109.74479 102.8625 108.479164L102.8625 103.71354L101.83125 103.71354L101.83125 102.61979L102.8625 102.61979L102.8625 100.55729L104.26875 99.71354L104.26875 102.61979L105.675 102.61979L105.675 103.71354L104.26875 103.71354L104.26875 108.55729Q104.26875 109.166664 104.33125 109.33854Q104.40938 109.510414 104.58125 109.61979Q104.75313 109.71354 105.06563 109.71354Q105.3 109.71354 105.675 109.65104ZM112.05 110.916664L112.05 109.697914Q111.08125 111.104164 109.40938 111.104164Q108.675 111.104164 108.03438 110.822914Q107.40938 110.541664 107.09688 110.11979Q106.78438 109.68229 106.65938 109.072914Q106.58125 108.65104 106.58125 107.760414L106.58125 102.61979L107.9875 102.61979L107.9875 107.21354Q107.9875 108.322914 108.06563 108.697914Q108.20625 109.260414 108.62813 109.572914Q109.06563 109.885414 109.69063 109.885414Q110.33125 109.885414 110.87813 109.572914Q111.44063 109.24479 111.65938 108.68229Q111.89375 108.11979 111.89375 107.05729L111.89375 102.61979L113.3 102.61979L113.3 110.916664L112.05 110.916664ZM115.59688 110.916664L115.59688 102.61979L116.8625 102.61979L116.8625 103.86979Q117.34688 102.99479 117.75313 102.71354Q118.15938 102.43229 118.65938 102.43229Q119.3625 102.43229 120.09688 102.885414L119.6125 104.18229Q119.09688 103.885414 118.58125 103.885414Q118.12813 103.885414 117.75313 104.166664Q117.39375 104.43229 117.2375 104.93229Q117.00313 105.68229 117.00313 106.572914L117.00313 110.916664L115.59688 110.916664ZM126.28438 108.24479L127.7375 108.416664Q127.39375 109.697914 126.45625 110.40104Q125.53438 111.104164 124.09688 111.104164Q122.26875 111.104164 121.20625 109.979164Q120.14375 108.854164 120.14375 106.83854Q120.14375 104.74479 121.22188 103.58854Q122.3 102.43229 124.01875 102.43229Q125.675 102.43229 126.72188 103.572914Q127.78438 104.697914 127.78438 106.74479Q127.78438 106.86979 127.78438 107.11979L121.59688 107.11979Q121.675 108.49479 122.3625 109.229164Q123.06563 109.947914 124.09688 109.947914Q124.87813 109.947914 125.425 109.541664Q125.97188 109.135414 126.28438 108.24479ZM121.675 105.96354L126.3 105.96354Q126.20625 104.916664 125.76875 104.40104Q125.09688 103.58854 124.03438 103.58854Q123.06563 103.58854 122.39375 104.24479Q121.7375 104.885414 121.675 105.96354ZM129.05 108.43229L130.44063 108.21354Q130.55 109.05729 131.08125 109.510414Q131.62813 109.947914 132.58125 109.947914Q133.55 109.947914 134.01875 109.55729Q134.4875 109.15104 134.4875 108.61979Q134.4875 108.15104 134.08125 107.86979Q133.78438 107.68229 132.64375 107.40104Q131.09688 107.010414 130.4875 106.729164Q129.89375 106.43229 129.58125 105.93229Q129.28438 105.43229 129.28438 104.822914Q129.28438 104.260414 129.53438 103.791664Q129.78438 103.322914 130.22188 103.010414Q130.55 102.760414 131.1125 102.604164Q131.69063 102.43229 132.33125 102.43229Q133.31563 102.43229 134.05 102.71354Q134.78438 102.99479 135.12813 103.479164Q135.4875 103.947914 135.62813 104.760414L134.25313 104.947914Q134.15938 104.30729 133.70625 103.947914Q133.25313 103.58854 132.44063 103.58854Q131.47188 103.58854 131.05 103.916664Q130.64375 104.229164 130.64375 104.65104Q130.64375 104.93229 130.81563 105.15104Q130.9875 105.36979 131.34688 105.52604Q131.56563 105.604164 132.59688 105.885414Q134.08125 106.27604 134.675 106.541664Q135.26875 106.791664 135.59688 107.27604Q135.94063 107.760414 135.94063 108.479164Q135.94063 109.18229 135.51875 109.80729Q135.1125 110.416664 134.33125 110.760414Q133.56563 111.104164 132.59688 111.104164Q130.97188 111.104164 130.12813 110.43229Q129.28438 109.760414 129.05 108.43229Z" fill-rule="nonzero"/><path fill="#9e9e9e" d="M26.6125 131.5573L26.6125 132.91667L19.034374 132.91667Q19.01875 132.40105 19.20625 131.9323Q19.4875 131.16667 20.128124 130.41667Q20.76875 129.66667 21.971874 128.6823Q23.83125 127.15105 24.4875 126.26042Q25.14375 125.35417 25.14375 124.5573Q25.14375 123.72917 24.55 123.15105Q23.95625 122.57292 22.9875 122.57292Q21.971874 122.57292 21.3625 123.1823Q20.753124 123.79167 20.753124 124.8698L19.3 124.72917Q19.45625 123.10417 20.425 122.26042Q21.39375 121.41667 23.01875 121.41667Q24.675 121.41667 25.628124 122.33855Q26.596874 123.2448 26.596874 124.58855Q26.596874 125.27605 26.315624 125.94792Q26.034374 126.60417 25.378124 127.33855Q24.721874 128.07292 23.20625 129.35417Q21.940624 130.41667 21.58125 130.8073Q21.221874 131.1823 20.9875 131.5573L26.6125 131.5573ZM28.221874 129.88542L29.628124 129.69792Q29.878124 130.90105 30.45625 131.4323Q31.034374 131.94792 31.878124 131.94792Q32.8625 131.94792 33.55 131.26042Q34.2375 130.57292 34.2375 129.5573Q34.2375 128.58855 33.596874 127.96355Q32.971874 127.33855 31.9875 127.33855Q31.596874 127.33855 31.003124 127.4948L31.159374 126.26042Q31.3 126.27605 31.378124 126.27605Q32.284374 126.27605 33.003124 125.8073Q33.721874 125.33855 33.721874 124.35417Q33.721874 123.58855 33.190624 123.08855Q32.675 122.57292 31.846874 122.57292Q31.01875 122.57292 30.471874 123.08855Q29.925 123.60417 29.76875 124.63542L28.3625 124.38542Q28.628124 122.96355 29.534374 122.19792Q30.45625 121.41667 31.815624 121.41667Q32.753124 121.41667 33.534374 121.82292Q34.33125 122.21355 34.7375 122.91667Q35.159374 123.60417 35.159374 124.38542Q35.159374 125.13542 34.753124 125.7448Q34.3625 126.35417 33.58125 126.71355Q34.596874 126.94792 35.159374 127.6823Q35.721874 128.41667 35.721874 129.52605Q35.721874 131.02605 34.628124 132.07292Q33.534374 133.1198 31.8625 133.1198Q30.3625 133.1198 29.3625 132.22917Q28.3625 131.32292 28.221874 129.88542ZM38.003124 132.91667L38.003124 131.3073L39.6125 131.3073L39.6125 132.91667L38.003124 132.91667ZM46.51875 132.91667L45.1125 132.91667L45.1125 123.94792Q44.596874 124.4323 43.76875 124.91667Q42.95625 125.40105 42.3 125.65105L42.3 124.29167Q43.471874 123.72917 44.346874 122.94792Q45.2375 122.15105 45.6125 121.41667L46.51875 121.41667L46.51875 132.91667ZM50.4875 124.21355Q50.4875 122.97917 51.096874 122.1198Q51.721874 121.26042 52.89375 121.26042Q53.971874 121.26042 54.675 122.04167Q55.378124 122.8073 55.378124 124.29167Q55.378124 125.7448 54.659374 126.54167Q53.95625 127.32292 52.909374 127.32292Q51.8625 127.32292 51.175 126.5573Q50.4875 125.77605 50.4875 124.21355ZM52.925 122.22917Q52.409374 122.22917 52.05 122.6823Q51.70625 123.13542 51.70625 124.35417Q51.70625 125.44792 52.05 125.90105Q52.409374 126.35417 52.925 126.35417Q53.45625 126.35417 53.8 125.90105Q54.159374 125.44792 54.159374 124.2448Q54.159374 123.13542 53.8 122.6823Q53.45625 122.22917 52.925 122.22917ZM52.940624 133.33855L59.20625 121.26042L60.346874 121.26042L54.096874 133.33855L52.940624 133.33855ZM57.89375 130.22917Q57.89375 128.9948 58.503124 128.13542Q59.128124 127.27605 60.3 127.27605Q61.378124 127.27605 62.08125 128.0573Q62.8 128.82292 62.8 130.3073Q62.8 131.76042 62.08125 132.5573Q61.3625 133.33855 60.315624 133.33855Q59.26875 133.33855 58.58125 132.5573Q57.89375 131.77605 57.89375 130.22917ZM60.346874 128.2448Q59.815624 128.2448 59.45625 128.69792Q59.1125 129.15105 59.1125 130.3698Q59.1125 131.46355 59.45625 131.91667Q59.815624 132.3698 60.33125 132.3698Q60.878124 132.3698 61.221874 131.91667Q61.565624 131.46355 61.565624 130.26042Q61.565624 129.15105 61.20625 128.69792Q60.8625 128.2448 60.346874 128.2448Z" fill-rule="nonzero"/><path stroke="#757575" stroke-width="1.0" stroke-linecap="butt" d="M18.55 116.416664L145.23334 116.416664L190.52637 114.30088" fill-rule="nonzero"/><path fill="#9e9e9e" d="M192.52637 114.30088C192.52637 113.19631 191.63094 112.30088 190.52637 112.30088C189.4218 112.30088 188.52637 113.19631 188.52637 114.30088C188.52637 115.40545 189.4218 116.30088 190.52637 116.30088C191.63094 116.30088 192.52637 115.40545 192.52637 114.30088" fill-rule="nonzero"/><path fill="#efefef" d="M19.76875 303.96912L19.76875 292.516L21.33125 292.516L27.346874 301.50037L27.346874 292.516L28.8 292.516L28.8 303.96912L27.2375 303.96912L21.221874 294.96912L21.221874 303.96912L19.76875 303.96912ZM37.01875 302.93787Q36.2375 303.60974 35.51875 303.891Q34.8 304.15662 33.971874 304.15662Q32.596874 304.15662 31.8625 303.48474Q31.128124 302.81287 31.128124 301.78162Q31.128124 301.17224 31.409374 300.67224Q31.690624 300.15662 32.128124 299.85974Q32.58125 299.54724 33.14375 299.391Q33.565624 299.28162 34.39375 299.18787Q36.096874 298.98474 36.909374 298.7035Q36.909374 298.40662 36.909374 298.3285Q36.909374 297.46912 36.51875 297.12537Q35.971874 296.641 34.909374 296.641Q33.925 296.641 33.440624 297.00037Q32.971874 297.34412 32.753124 298.21912L31.378124 298.03162Q31.565624 297.15662 31.9875 296.60974Q32.425 296.06287 33.2375 295.78162Q34.05 295.48474 35.1125 295.48474Q36.175 295.48474 36.83125 295.73474Q37.503124 295.98474 37.815624 296.35974Q38.128124 296.73474 38.253124 297.31287Q38.33125 297.67224 38.33125 298.60974L38.33125 300.48474Q38.33125 302.4535 38.409374 302.96912Q38.503124 303.48474 38.76875 303.96912L37.3 303.96912Q37.08125 303.53162 37.01875 302.93787ZM36.909374 299.79724Q36.14375 300.10974 34.6125 300.3285Q33.7375 300.4535 33.378124 300.60974Q33.01875 300.766 32.815624 301.0785Q32.628124 301.37537 32.628124 301.73474Q32.628124 302.29724 33.05 302.67224Q33.4875 303.04724 34.3 303.04724Q35.1125 303.04724 35.7375 302.7035Q36.378124 302.34412 36.675 301.71912Q36.909374 301.25037 36.909374 300.31287L36.909374 299.79724ZM43.675 302.7035L43.878124 303.9535Q43.284374 304.0785 42.815624 304.0785Q42.05 304.0785 41.628124 303.84412Q41.20625 303.59412 41.034374 303.2035Q40.8625 302.79724 40.8625 301.53162L40.8625 296.766L39.83125 296.766L39.83125 295.67224L40.8625 295.67224L40.8625 293.60974L42.26875 292.766L42.26875 295.67224L43.675 295.67224L43.675 296.766L42.26875 296.766L42.26875 301.60974Q42.26875 302.21912 42.33125 302.391Q42.409374 302.56287 42.58125 302.67224Q42.753124 302.766 43.065624 302.766Q43.3 302.766 43.675 302.7035ZM50.05 303.96912L50.05 302.75037Q49.08125 304.15662 47.409374 304.15662Q46.675 304.15662 46.034374 303.87537Q45.409374 303.59412 45.096874 303.17224Q44.784374 302.73474 44.659374 302.12537Q44.58125 301.7035 44.58125 300.81287L44.58125 295.67224L45.9875 295.67224L45.9875 300.266Q45.9875 301.37537 46.065624 301.75037Q46.20625 302.31287 46.628124 302.62537Q47.065624 302.93787 47.690624 302.93787Q48.33125 302.93787 48.878124 302.62537Q49.440624 302.29724 49.659374 301.73474Q49.89375 301.17224 49.89375 300.10974L49.89375 295.67224L51.3 295.67224L51.3 303.96912L50.05 303.96912ZM53.596874 303.96912L53.596874 295.67224L54.8625 295.67224L54.8625 296.92224Q55.346874 296.04724 55.753124 295.766Q56.159374 295.48474 56.659374 295.48474Q57.3625 295.48474 58.096874 295.93787L57.6125 297.23474Q57.096874 296.93787 56.58125 296.93787Q56.128124 296.93787 55.753124 297.21912Q55.39375 297.48474 55.2375 297.98474Q55.003124 298.73474 55.003124 299.62537L55.003124 303.96912L53.596874 303.96912ZM64.01875 302.93787Q63.2375 303.60974 62.51875 303.891Q61.8 304.15662 60.971874 304.15662Q59.596874 304.15662 58.8625 303.48474Q58.128124 302.81287 58.128124 301.78162Q58.128124 301.17224 58.409374 300.67224Q58.690624 300.15662 59.128124 299.85974Q59.58125 299.54724 60.14375 299.391Q60.565624 299.28162 61.39375 299.18787Q63.096874 298.98474 63.909374 298.7035Q63.909374 298.40662 63.909374 298.3285Q63.909374 297.46912 63.51875 297.12537Q62.971874 296.641 61.909374 296.641Q60.925 296.641 60.440624 297.00037Q59.971874 297.34412 59.753124 298.21912L58.378124 298.03162Q58.565624 297.15662 58.9875 296.60974Q59.425 296.06287 60.2375 295.78162Q61.05 295.48474 62.1125 295.48474Q63.175 295.48474 63.83125 295.73474Q64.50313 295.98474 64.81563 296.35974Q65.12813 296.73474 65.25313 297.31287Q65.33125 297.67224 65.33125 298.60974L65.33125 300.48474Q65.33125 302.4535 65.40938 302.96912Q65.50313 303.48474 65.76875 303.96912L64.3 303.96912Q64.08125 303.53162 64.01875 302.93787ZM63.909374 299.79724Q63.14375 300.10974 61.6125 300.3285Q60.7375 300.4535 60.378124 300.60974Q60.01875 300.766 59.815624 301.0785Q59.628124 301.37537 59.628124 301.73474Q59.628124 302.29724 60.05 302.67224Q60.4875 303.04724 61.3 303.04724Q62.1125 303.04724 62.7375 302.7035Q63.378124 302.34412 63.675 301.71912Q63.909374 301.25037 63.909374 300.31287L63.909374 299.79724ZM67.58125 303.96912L67.58125 292.516L68.9875 292.516L68.9875 303.96912L67.58125 303.96912Z" fill-rule="nonzero"/><path fill="#9e9e9e" d="M26.6125 324.60974L26.6125 325.96912L19.034374 325.96912Q19.01875 325.4535 19.20625 324.98474Q19.4875 324.21912 20.128124 323.46912Q20.76875 322.71912 21.971874 321.73474Q23.83125 320.2035 24.4875 319.31287Q25.14375 318.40662 25.14375 317.60974Q25.14375 316.78162 24.55 316.2035Q23.95625 315.62537 22.9875 315.62537Q21.971874 315.62537 21.3625 316.23474Q20.753124 316.84412 20.753124 317.92224L19.3 317.78162Q19.45625 316.15662 20.425 315.31287Q21.39375 314.46912 23.01875 314.46912Q24.675 314.46912 25.628124 315.391Q26.596874 316.29724 26.596874 317.641Q26.596874 318.3285 26.315624 319.00037Q26.034374 319.65662 25.378124 320.391Q24.721874 321.12537 23.20625 322.40662Q21.940624 323.46912 21.58125 323.85974Q21.221874 324.23474 20.9875 324.60974L26.6125 324.60974ZM28.221874 322.96912L29.690624 322.84412Q29.8625 323.92224 30.45625 324.46912Q31.05 325.00037 31.89375 325.00037Q32.909374 325.00037 33.6125 324.23474Q34.315624 323.46912 34.315624 322.2035Q34.315624 321.00037 33.64375 320.31287Q32.971874 319.60974 31.878124 319.60974Q31.190624 319.60974 30.64375 319.92224Q30.096874 320.23474 29.784374 320.71912L28.471874 320.54724L29.58125 314.67224L35.26875 314.67224L35.26875 316.016L30.70625 316.016L30.08125 319.09412Q31.1125 318.37537 32.253124 318.37537Q33.753124 318.37537 34.784374 319.42224Q35.815624 320.4535 35.815624 322.0785Q35.815624 323.641 34.909374 324.766Q33.8 326.17224 31.89375 326.17224Q30.33125 326.17224 29.346874 325.29724Q28.3625 324.40662 28.221874 322.96912ZM38.003124 325.96912L38.003124 324.35974L39.6125 324.35974L39.6125 325.96912L38.003124 325.96912ZM48.51875 317.31287L47.1125 317.42224Q46.925 316.59412 46.58125 316.21912Q46.01875 315.62537 45.175 315.62537Q44.503124 315.62537 44.003124 316.00037Q43.33125 316.48474 42.940624 317.42224Q42.565624 318.34412 42.55 320.06287Q43.065624 319.28162 43.8 318.90662Q44.534374 318.53162 45.33125 318.53162Q46.7375 318.53162 47.721874 319.5785Q48.721874 320.60974 48.721874 322.25037Q48.721874 323.3285 48.253124 324.25037Q47.784374 325.17224 46.971874 325.67224Q46.159374 326.17224 45.128124 326.17224Q43.378124 326.17224 42.26875 324.87537Q41.159374 323.5785 41.159374 320.60974Q41.159374 317.28162 42.378124 315.78162Q43.45625 314.46912 45.26875 314.46912Q46.6125 314.46912 47.471874 315.23474Q48.346874 315.98474 48.51875 317.31287ZM42.76875 322.25037Q42.76875 322.98474 43.08125 323.65662Q43.39375 324.31287 43.940624 324.65662Q44.503124 325.00037 45.1125 325.00037Q46.003124 325.00037 46.64375 324.28162Q47.284374 323.56287 47.284374 322.3285Q47.284374 321.141 46.64375 320.46912Q46.01875 319.78162 45.05 319.78162Q44.096874 319.78162 43.425 320.46912Q42.76875 321.141 42.76875 322.25037ZM50.4875 317.266Q50.4875 316.03162 51.096874 315.17224Q51.721874 314.31287 52.89375 314.31287Q53.971874 314.31287 54.675 315.09412Q55.378124 315.85974 55.378124 317.34412Q55.378124 318.79724 54.659374 319.59412Q53.95625 320.37537 52.909374 320.37537Q51.8625 320.37537 51.175 319.60974Q50.4875 318.8285 50.4875 317.266ZM52.925 315.28162Q52.409374 315.28162 52.05 315.73474Q51.70625 316.18787 51.70625 317.40662Q51.70625 318.50037 52.05 318.9535Q52.409374 319.40662 52.925 319.40662Q53.45625 319.40662 53.8 318.9535Q54.159374 318.50037 54.159374 317.29724Q54.159374 316.18787 53.8 315.73474Q53.45625 315.28162 52.925 315.28162ZM52.940624 326.391L59.20625 314.31287L60.346874 314.31287L54.096874 326.391L52.940624 326.391ZM57.89375 323.28162Q57.89375 322.04724 58.503124 321.18787Q59.128124 320.3285 60.3 320.3285Q61.378124 320.3285 62.08125 321.10974Q62.8 321.87537 62.8 323.35974Q62.8 324.81287 62.08125 325.60974Q61.3625 326.391 60.315624 326.391Q59.26875 326.391 58.58125 325.60974Q57.89375 324.8285 57.89375 323.28162ZM60.346874 321.29724Q59.815624 321.29724 59.45625 321.75037Q59.1125 322.2035 59.1125 323.42224Q59.1125 324.516 59.45625 324.96912Q59.815624 325.42224 60.33125 325.42224Q60.878124 325.42224 61.221874 324.96912Q61.565624 324.516 61.565624 323.31287Q61.565624 322.2035 61.20625 321.75037Q60.8625 321.29724 60.346874 321.29724Z" fill-rule="nonzero"/><path stroke="#757575" stroke-width="1.0" stroke-linecap="butt" d="M18.55 309.46912L145.23334 309.46912L206.28198 309.46912" fill-rule="nonzero"/><path fill="#9e9e9e" d="M208.28198 309.46912C208.28198 308.36453 207.38655 307.46912 206.28198 307.46912C205.17741 307.46912 204.28198 308.36453 204.28198 309.46912C204.28198 310.57367 205.17741 311.46912 206.28198 311.46912C207.38655 311.46912 208.28198 310.57367 208.28198 309.46912" fill-rule="nonzero"/><path fill="#efefef" d="M481.71564 78.734024L481.71564 67.2809L489.9969 67.2809L489.9969 68.62465L483.23126 68.62465L483.23126 72.140274L489.575 72.140274L489.575 73.484024L483.23126 73.484024L483.23126 77.37465L490.2625 77.37465L490.2625 78.734024L481.71564 78.734024ZM495.575 77.4684L495.77814 78.7184Q495.1844 78.8434 494.71564 78.8434Q493.95 78.8434 493.52814 78.609024Q493.10626 78.359024 492.9344 77.9684Q492.7625 77.56215 492.7625 76.296524L492.7625 71.5309L491.73126 71.5309L491.73126 70.43715L492.7625 70.43715L492.7625 68.37465L494.16876 67.5309L494.16876 70.43715L495.575 70.43715L495.575 71.5309L494.16876 71.5309L494.16876 76.37465Q494.16876 76.984024 494.23126 77.1559Q494.3094 77.327774 494.48126 77.43715Q494.65314 77.5309 494.96564 77.5309Q495.2 77.5309 495.575 77.4684ZM496.5125 78.734024L496.5125 67.2809L497.91876 67.2809L497.91876 71.390274Q498.90314 70.24965 500.40314 70.24965Q501.325 70.24965 501.9969 70.609024Q502.6844 70.9684 502.96564 71.609024Q503.2625 72.24965 503.2625 73.4684L503.2625 78.734024L501.85626 78.734024L501.85626 73.4684Q501.85626 72.421524 501.40314 71.93715Q500.95 71.452774 500.10626 71.452774Q499.48126 71.452774 498.9344 71.7809Q498.3875 72.109024 498.15314 72.671524Q497.91876 73.2184 497.91876 74.18715L497.91876 78.734024L496.5125 78.734024ZM505.5125 78.734024L505.5125 70.43715L506.77814 70.43715L506.77814 71.609024Q507.6844 70.24965 509.41876 70.24965Q510.16876 70.24965 510.79376 70.515274Q511.41876 70.7809 511.73126 71.2184Q512.04376 71.6559 512.16876 72.265274Q512.2469 72.6559 512.2469 73.62465L512.2469 78.734024L510.84064 78.734024L510.84064 73.68715Q510.84064 72.827774 510.66876 72.4059Q510.5125 71.9684 510.09064 71.7184Q509.6844 71.4684 509.1219 71.4684Q508.21564 71.4684 507.5594 72.046524Q506.91876 72.609024 506.91876 74.202774L506.91876 78.734024L505.5125 78.734024ZM514.5125 68.890274L514.5125 67.2809L515.91876 67.2809L515.91876 68.890274L514.5125 68.890274ZM514.5125 78.734024L514.5125 70.43715L515.91876 70.43715L515.91876 78.734024L514.5125 78.734024ZM523.91876 75.68715L525.3094 75.87465Q525.075 77.296524 524.1375 78.109024Q523.21564 78.921524 521.85626 78.921524Q520.15314 78.921524 519.10626 77.81215Q518.075 76.68715 518.075 74.609024Q518.075 73.265274 518.5125 72.265274Q518.96564 71.24965 519.8719 70.74965Q520.79376 70.24965 521.85626 70.24965Q523.21564 70.24965 524.075 70.93715Q524.9344 71.609024 525.16876 72.87465L523.8094 73.077774Q523.60626 72.24965 523.10626 71.827774Q522.6219 71.4059 521.91876 71.4059Q520.85626 71.4059 520.1844 72.171524Q519.52814 72.921524 519.52814 74.577774Q519.52814 76.24965 520.16876 77.015274Q520.8094 77.765274 521.84064 77.765274Q522.66876 77.765274 523.21564 77.265274Q523.77814 76.74965 523.91876 75.68715ZM536.04376 74.234024L536.04376 72.890274L540.90314 72.890274L540.90314 77.140274Q539.77814 78.0309 538.59064 78.484024Q537.40314 78.93715 536.15314 78.93715Q534.46564 78.93715 533.09064 78.2184Q531.71564 77.484024 531.0125 76.12465Q530.3094 74.74965 530.3094 73.06215Q530.3094 71.390274 530.9969 69.93715Q531.7 68.484024 533.0125 67.7809Q534.325 67.077774 536.04376 67.077774Q537.27814 67.077774 538.27814 67.484024Q539.29376 67.890274 539.85626 68.609024Q540.4344 69.327774 540.73126 70.484024L539.35626 70.859024Q539.10626 69.984024 538.71564 69.484024Q538.34064 68.984024 537.6219 68.68715Q536.91876 68.37465 536.04376 68.37465Q535.0125 68.37465 534.2469 68.702774Q533.4969 69.015274 533.02814 69.5309Q532.5594 70.046524 532.3094 70.6559Q531.8719 71.7184 531.8719 72.9684Q531.8719 74.49965 532.3875 75.5309Q532.91876 76.56215 533.91876 77.06215Q534.9344 77.56215 536.075 77.56215Q537.0594 77.56215 537.9969 77.18715Q538.9344 76.796524 539.41876 76.37465L539.41876 74.234024L536.04376 74.234024ZM542.4969 78.734024L542.4969 70.43715L543.7625 70.43715L543.7625 71.68715Q544.2469 70.81215 544.65314 70.5309Q545.0594 70.24965 545.5594 70.24965Q546.2625 70.24965 546.9969 70.702774L546.5125 71.99965Q545.9969 71.702774 545.48126 71.702774Q545.02814 71.702774 544.65314 71.984024Q544.29376 72.24965 544.1375 72.74965Q543.90314 73.49965 543.90314 74.390274L543.90314 78.734024L542.4969 78.734024ZM546.98126 74.577774Q546.98126 72.2809 548.2625 71.171524Q549.34064 70.24965 550.8719 70.24965Q552.59064 70.24965 553.66876 71.37465Q554.7625 72.484024 554.7625 74.4684Q554.7625 76.06215 554.27814 76.984024Q553.79376 77.9059 552.8719 78.421524Q551.96564 78.921524 550.8719 78.921524Q549.1375 78.921524 548.0594 77.81215Q546.98126 76.68715 546.98126 74.577774ZM548.4344 74.577774Q548.4344 76.171524 549.1219 76.9684Q549.825 77.765274 550.8719 77.765274Q551.91876 77.765274 552.60626 76.9684Q553.3094 76.171524 553.3094 74.5309Q553.3094 72.99965 552.60626 72.202774Q551.91876 71.4059 550.8719 71.4059Q549.825 71.4059 549.1219 72.202774Q548.4344 72.984024 548.4344 74.577774ZM561.95 78.734024L561.95 77.515274Q560.98126 78.921524 559.3094 78.921524Q558.575 78.921524 557.9344 78.640274Q557.3094 78.359024 556.9969 77.93715Q556.6844 77.49965 556.5594 76.890274Q556.48126 76.4684 556.48126 75.577774L556.48126 70.43715L557.8875 70.43715L557.8875 75.0309Q557.8875 76.140274 557.96564 76.515274Q558.10626 77.077774 558.52814 77.390274Q558.96564 77.702774 559.59064 77.702774Q560.23126 77.702774 560.77814 77.390274Q561.34064 77.06215 561.5594 76.49965Q561.79376 75.93715 561.79376 74.87465L561.79376 70.43715L563.2 70.43715L563.2 78.734024L561.95 78.734024ZM565.5125 81.921524L565.5125 70.43715L566.79376 70.43715L566.79376 71.515274Q567.2469 70.87465 567.8094 70.56215Q568.3875 70.24965 569.2 70.24965Q570.2625 70.24965 571.075 70.796524Q571.8875 71.3434 572.29376 72.3434Q572.71564 73.327774 572.71564 74.515274Q572.71564 75.796524 572.2469 76.81215Q571.79376 77.827774 570.91876 78.37465Q570.0594 78.921524 569.09064 78.921524Q568.3875 78.921524 567.825 78.62465Q567.27814 78.327774 566.91876 77.87465L566.91876 81.921524L565.5125 81.921524ZM566.77814 74.62465Q566.77814 76.234024 567.41876 76.99965Q568.075 77.765274 568.9969 77.765274Q569.9344 77.765274 570.60626 76.9684Q571.27814 76.171524 571.27814 74.515274Q571.27814 72.921524 570.6219 72.140274Q569.96564 71.3434 569.0594 71.3434Q568.16876 71.3434 567.46564 72.18715Q566.77814 73.0309 566.77814 74.62465ZM573.95 76.24965L575.34064 76.0309Q575.45 76.87465 575.98126 77.327774Q576.52814 77.765274 577.48126 77.765274Q578.45 77.765274 578.91876 77.37465Q579.3875 76.9684 579.3875 76.43715Q579.3875 75.9684 578.98126 75.68715Q578.6844 75.49965 577.54376 75.2184Q575.9969 74.827774 575.3875 74.546524Q574.79376 74.24965 574.48126 73.74965Q574.1844 73.24965 574.1844 72.640274Q574.1844 72.077774 574.4344 71.609024Q574.6844 71.140274 575.1219 70.827774Q575.45 70.577774 576.0125 70.421524Q576.59064 70.24965 577.23126 70.24965Q578.21564 70.24965 578.95 70.5309Q579.6844 70.81215 580.02814 71.296524Q580.3875 71.765274 580.52814 72.577774L579.15314 72.765274Q579.0594 72.12465 578.60626 71.765274Q578.15314 71.4059 577.34064 71.4059Q576.3719 71.4059 575.95 71.734024Q575.54376 72.046524 575.54376 72.4684Q575.54376 72.74965 575.71564 72.9684Q575.8875 73.18715 576.2469 73.3434Q576.46564 73.421524 577.4969 73.702774Q578.98126 74.0934 579.575 74.359024Q580.16876 74.609024 580.4969 75.0934Q580.84064 75.577774 580.84064 76.296524Q580.84064 76.99965 580.41876 77.62465Q580.0125 78.234024 579.23126 78.577774Q578.46564 78.921524 577.4969 78.921524Q575.8719 78.921524 575.02814 78.24965Q574.1844 77.577774 573.95 76.24965Z" fill-rule="nonzero"/><path fill="#9e9e9e" d="M542.41876 100.734024L541.0125 100.734024L541.0125 91.765274Q540.4969 92.24965 539.66876 92.734024Q538.85626 93.2184 538.2 93.4684L538.2 92.109024Q539.3719 91.546524 540.2469 90.765274Q541.1375 89.9684 541.5125 89.234024L542.41876 89.234024L542.41876 100.734024ZM546.21564 90.7809L546.21564 89.421524L553.6219 89.421524L553.6219 90.515274Q552.52814 91.68715 551.45 93.62465Q550.3875 95.546524 549.79376 97.577774Q549.3719 99.015274 549.2625 100.734024L547.8094 100.734024Q547.84064 99.37465 548.34064 97.4684Q548.85626 95.546524 549.79376 93.7809Q550.7469 91.99965 551.825 90.7809L546.21564 90.7809ZM555.90314 100.734024L555.90314 99.12465L557.5125 99.12465L557.5125 100.734024L555.90314 100.734024ZM559.325 98.077774L560.6844 97.952774Q560.85626 98.9059 561.34064 99.3434Q561.825 99.765274 562.575 99.765274Q563.23126 99.765274 563.71564 99.4684Q564.2 99.171524 564.5125 98.68715Q564.825 98.18715 565.02814 97.3434Q565.2469 96.49965 565.2469 95.62465Q565.2469 95.5309 565.2469 95.3434Q564.825 96.015274 564.09064 96.43715Q563.35626 96.8434 562.5125 96.8434Q561.09064 96.8434 560.10626 95.81215Q559.1219 94.7809 559.1219 93.0934Q559.1219 91.359024 560.1375 90.296524Q561.16876 89.234024 562.71564 89.234024Q563.84064 89.234024 564.7625 89.8434Q565.6844 90.43715 566.16876 91.546524Q566.65314 92.6559 566.65314 94.765274Q566.65314 96.9684 566.16876 98.265274Q565.7 99.56215 564.7469 100.24965Q563.8094 100.93715 562.54376 100.93715Q561.2 100.93715 560.34064 100.18715Q559.4969 99.43715 559.325 98.077774ZM565.09064 93.0309Q565.09064 91.81215 564.4344 91.109024Q563.79376 90.390274 562.8875 90.390274Q561.95 90.390274 561.2469 91.1559Q560.5594 91.921524 560.5594 93.140274Q560.5594 94.234024 561.21564 94.921524Q561.8875 95.609024 562.85626 95.609024Q563.825 95.609024 564.45 94.921524Q565.09064 94.234024 565.09064 93.0309ZM568.3875 92.0309Q568.3875 90.796524 568.9969 89.93715Q569.6219 89.077774 570.79376 89.077774Q571.8719 89.077774 572.575 89.859024Q573.27814 90.62465 573.27814 92.109024Q573.27814 93.56215 572.5594 94.359024Q571.85626 95.140274 570.8094 95.140274Q569.7625 95.140274 569.075 94.37465Q568.3875 93.5934 568.3875 92.0309ZM570.825 90.046524Q570.3094 90.046524 569.95 90.49965Q569.60626 90.952774 569.60626 92.171524Q569.60626 93.265274 569.95 93.7184Q570.3094 94.171524 570.825 94.171524Q571.35626 94.171524 571.7 93.7184Q572.0594 93.265274 572.0594 92.06215Q572.0594 90.952774 571.7 90.49965Q571.35626 90.046524 570.825 90.046524ZM570.84064 101.1559L577.10626 89.077774L578.2469 89.077774L571.9969 101.1559L570.84064 101.1559ZM575.79376 98.046524Q575.79376 96.81215 576.40314 95.952774Q577.02814 95.0934 578.2 95.0934Q579.27814 95.0934 579.98126 95.87465Q580.7 96.640274 580.7 98.12465Q580.7 99.577774 579.98126 100.37465Q579.2625 101.1559 578.21564 101.1559Q577.16876 101.1559 576.48126 100.37465Q575.79376 99.5934 575.79376 98.046524ZM578.2469 96.06215Q577.71564 96.06215 577.35626 96.515274Q577.0125 96.9684 577.0125 98.18715Q577.0125 99.2809 577.35626 99.734024Q577.71564 100.18715 578.23126 100.18715Q578.77814 100.18715 579.1219 99.734024Q579.46564 99.2809 579.46564 98.077774Q579.46564 96.9684 579.10626 96.515274Q578.7625 96.06215 578.2469 96.06215Z" fill-rule="nonzero"/><path stroke="#757575" stroke-width="1.0" stroke-linecap="butt" d="M581.45 84.234024L454.76666 84.234024L375.53516 84.234024" fill-rule="nonzero"/><path fill="#9e9e9e" d="M377.53516 84.234024C377.53516 83.129456 376.63974 82.234024 375.53516 82.234024C374.4306 82.234024 373.53516 83.129456 373.53516 84.234024C373.53516 85.3386 374.4306 86.234024 375.53516 86.234024C376.63974 86.234024 377.53516 85.3386 377.53516 84.234024" fill-rule="nonzero"/><path fill="#efefef" d="M481.41876 268.8475L485.825 257.39438L487.46564 257.39438L492.15314 268.8475L490.41876 268.8475L489.09064 265.37875L484.29376 265.37875L483.04376 268.8475L481.41876 268.8475ZM484.73126 264.14438L488.6219 264.14438L487.41876 260.9725Q486.8719 259.51938 486.60626 258.5975Q486.3875 259.69125 485.9969 260.785L484.73126 264.14438ZM493.4969 268.8475L493.4969 260.55063L494.7625 260.55063L494.7625 261.80063Q495.2469 260.92563 495.65314 260.64438Q496.0594 260.36313 496.5594 260.36313Q497.2625 260.36313 497.9969 260.81625L497.5125 262.11313Q496.9969 261.81625 496.48126 261.81625Q496.02814 261.81625 495.65314 262.0975Q495.29376 262.36313 495.1375 262.86313Q494.90314 263.61313 494.90314 264.50375L494.90314 268.8475L493.4969 268.8475ZM503.91876 265.80063L505.3094 265.98813Q505.075 267.41 504.1375 268.2225Q503.21564 269.035 501.85626 269.035Q500.15314 269.035 499.10626 267.92563Q498.075 266.80063 498.075 264.7225Q498.075 263.37875 498.5125 262.37875Q498.96564 261.36313 499.8719 260.86313Q500.79376 260.36313 501.85626 260.36313Q503.21564 260.36313 504.075 261.05063Q504.9344 261.7225 505.16876 262.98813L503.8094 263.19125Q503.60626 262.36313 503.10626 261.94125Q502.6219 261.51938 501.91876 261.51938Q500.85626 261.51938 500.1844 262.285Q499.52814 263.035 499.52814 264.69125Q499.52814 266.36313 500.16876 267.12875Q500.8094 267.87875 501.84064 267.87875Q502.66876 267.87875 503.21564 267.37875Q503.77814 266.86313 503.91876 265.80063ZM506.5125 268.8475L506.5125 257.39438L507.91876 257.39438L507.91876 261.50375Q508.90314 260.36313 510.40314 260.36313Q511.325 260.36313 511.9969 260.7225Q512.6844 261.08188 512.96564 261.7225Q513.2625 262.36313 513.2625 263.58188L513.2625 268.8475L511.85626 268.8475L511.85626 263.58188Q511.85626 262.535 511.40314 262.05063Q510.95 261.56625 510.10626 261.56625Q509.48126 261.56625 508.9344 261.89438Q508.3875 262.2225 508.15314 262.785Q507.91876 263.33188 507.91876 264.30063L507.91876 268.8475L506.5125 268.8475ZM515.5125 259.00375L515.5125 257.39438L516.91876 257.39438L516.91876 259.00375L515.5125 259.00375ZM515.5125 268.8475L515.5125 260.55063L516.91876 260.55063L516.91876 268.8475L515.5125 268.8475ZM522.575 267.58188L522.77814 268.83188Q522.1844 268.95688 521.71564 268.95688Q520.95 268.95688 520.52814 268.7225Q520.10626 268.4725 519.9344 268.08188Q519.7625 267.67563 519.7625 266.41L519.7625 261.64438L518.73126 261.64438L518.73126 260.55063L519.7625 260.55063L519.7625 258.48813L521.16876 257.64438L521.16876 260.55063L522.575 260.55063L522.575 261.64438L521.16876 261.64438L521.16876 266.48813Q521.16876 267.0975 521.23126 267.26938Q521.3094 267.44125 521.48126 267.55063Q521.65314 267.64438 521.96564 267.64438Q522.2 267.64438 522.575 267.58188ZM529.1844 266.17563L530.6375 266.3475Q530.29376 267.62875 529.35626 268.33188Q528.4344 269.035 526.9969 269.035Q525.16876 269.035 524.10626 267.91Q523.04376 266.785 523.04376 264.76938Q523.04376 262.67563 524.1219 261.51938Q525.2 260.36313 526.91876 260.36313Q528.575 260.36313 529.6219 261.50375Q530.6844 262.62875 530.6844 264.67563Q530.6844 264.80063 530.6844 265.05063L524.4969 265.05063Q524.575 266.42563 525.2625 267.16Q525.96564 267.87875 526.9969 267.87875Q527.77814 267.87875 528.325 267.4725Q528.8719 267.06625 529.1844 266.17563ZM524.575 263.89438L529.2 263.89438Q529.10626 262.8475 528.66876 262.33188Q527.9969 261.51938 526.9344 261.51938Q525.96564 261.51938 525.29376 262.17563Q524.6375 262.81625 524.575 263.89438ZM537.91876 265.80063L539.3094 265.98813Q539.075 267.41 538.1375 268.2225Q537.21564 269.035 535.85626 269.035Q534.15314 269.035 533.10626 267.92563Q532.075 266.80063 532.075 264.7225Q532.075 263.37875 532.5125 262.37875Q532.96564 261.36313 533.8719 260.86313Q534.79376 260.36313 535.85626 260.36313Q537.21564 260.36313 538.075 261.05063Q538.9344 261.7225 539.16876 262.98813L537.8094 263.19125Q537.60626 262.36313 537.10626 261.94125Q536.6219 261.51938 535.91876 261.51938Q534.85626 261.51938 534.1844 262.285Q533.52814 263.035 533.52814 264.69125Q533.52814 266.36313 534.16876 267.12875Q534.8094 267.87875 535.84064 267.87875Q536.66876 267.87875 537.21564 267.37875Q537.77814 266.86313 537.91876 265.80063ZM543.575 267.58188L543.77814 268.83188Q543.1844 268.95688 542.71564 268.95688Q541.95 268.95688 541.52814 268.7225Q541.10626 268.4725 540.9344 268.08188Q540.7625 267.67563 540.7625 266.41L540.7625 261.64438L539.73126 261.64438L539.73126 260.55063L540.7625 260.55063L540.7625 258.48813L542.16876 257.64438L542.16876 260.55063L543.575 260.55063L543.575 261.64438L542.16876 261.64438L542.16876 266.48813Q542.16876 267.0975 542.23126 267.26938Q542.3094 267.44125 542.48126 267.55063Q542.65314 267.64438 542.96564 267.64438Q543.2 267.64438 543.575 267.58188ZM549.95 268.8475L549.95 267.62875Q548.98126 269.035 547.3094 269.035Q546.575 269.035 545.9344 268.75375Q545.3094 268.4725 544.9969 268.05063Q544.6844 267.61313 544.5594 267.00375Q544.48126 266.58188 544.48126 265.69125L544.48126 260.55063L545.8875 260.55063L545.8875 265.14438Q545.8875 266.25375 545.96564 266.62875Q546.10626 267.19125 546.52814 267.50375Q546.96564 267.81625 547.59064 267.81625Q548.23126 267.81625 548.77814 267.50375Q549.34064 267.17563 549.5594 266.61313Q549.79376 266.05063 549.79376 264.98813L549.79376 260.55063L551.2 260.55063L551.2 268.8475L549.95 268.8475ZM553.4969 268.8475L553.4969 260.55063L554.7625 260.55063L554.7625 261.80063Q555.2469 260.92563 555.65314 260.64438Q556.0594 260.36313 556.5594 260.36313Q557.2625 260.36313 557.9969 260.81625L557.5125 262.11313Q556.9969 261.81625 556.48126 261.81625Q556.02814 261.81625 555.65314 262.0975Q555.29376 262.36313 555.1375 262.86313Q554.90314 263.61313 554.90314 264.50375L554.90314 268.8475L553.4969 268.8475ZM564.1844 266.17563L565.6375 266.3475Q565.29376 267.62875 564.35626 268.33188Q563.4344 269.035 561.9969 269.035Q560.16876 269.035 559.10626 267.91Q558.04376 266.785 558.04376 264.76938Q558.04376 262.67563 559.1219 261.51938Q560.2 260.36313 561.91876 260.36313Q563.575 260.36313 564.6219 261.50375Q565.6844 262.62875 565.6844 264.67563Q565.6844 264.80063 565.6844 265.05063L559.4969 265.05063Q559.575 266.42563 560.2625 267.16Q560.96564 267.87875 561.9969 267.87875Q562.77814 267.87875 563.325 267.4725Q563.8719 267.06625 564.1844 266.17563ZM559.575 263.89438L564.2 263.89438Q564.10626 262.8475 563.66876 262.33188Q562.9969 261.51938 561.9344 261.51938Q560.96564 261.51938 560.29376 262.17563Q559.6375 262.81625 559.575 263.89438ZM578.0594 267.48813Q577.35626 268.26938 576.52814 268.66Q575.71564 269.05063 574.7625 269.05063Q573.0125 269.05063 571.98126 267.8475Q571.1375 266.87875 571.1375 265.69125Q571.1375 264.62875 571.825 263.76938Q572.5125 262.91 573.8719 262.26938Q573.09064 261.37875 572.825 260.83188Q572.575 260.26938 572.575 259.75375Q572.575 258.7225 573.3875 257.95688Q574.2 257.19125 575.41876 257.19125Q576.59064 257.19125 577.34064 257.91Q578.09064 258.62875 578.09064 259.64438Q578.09064 261.26938 575.91876 262.42563L577.98126 265.05063Q578.325 264.36313 578.52814 263.45688L579.98126 263.76938Q579.60626 265.26938 578.96564 266.23813Q579.7625 267.285 580.7625 267.98813L579.8094 269.11313Q578.96564 268.56625 578.0594 267.48813ZM575.2 261.51938Q576.10626 260.98813 576.3719 260.58188Q576.65314 260.17563 576.65314 259.67563Q576.65314 259.0975 576.27814 258.7225Q575.90314 258.3475 575.35626 258.3475Q574.77814 258.3475 574.40314 258.7225Q574.02814 259.08188 574.02814 259.61313Q574.02814 259.87875 574.15314 260.17563Q574.29376 260.4725 574.575 260.80063L575.2 261.51938ZM577.16876 266.37875L574.59064 263.19125Q573.45 263.86313 573.04376 264.45688Q572.65314 265.035 572.65314 265.5975Q572.65314 266.30063 573.2 267.05063Q573.7625 267.80063 574.77814 267.80063Q575.41876 267.80063 576.09064 267.41Q576.7625 267.00375 577.16876 266.37875Z" fill-rule="nonzero"/><path fill="#9e9e9e" d="M537.1219 287.81625L538.52814 287.62875Q538.77814 288.83188 539.35626 289.36313Q539.9344 289.87875 540.77814 289.87875Q541.7625 289.87875 542.45 289.19125Q543.1375 288.50375 543.1375 287.48813Q543.1375 286.51938 542.4969 285.89438Q541.8719 285.26938 540.8875 285.26938Q540.4969 285.26938 539.90314 285.42563L540.0594 284.19125Q540.2 284.20688 540.27814 284.20688Q541.1844 284.20688 541.90314 283.73813Q542.6219 283.26938 542.6219 282.285Q542.6219 281.51938 542.09064 281.01938Q541.575 280.50375 540.7469 280.50375Q539.91876 280.50375 539.3719 281.01938Q538.825 281.535 538.66876 282.56625L537.2625 282.31625Q537.52814 280.89438 538.4344 280.12875Q539.35626 279.3475 540.71564 279.3475Q541.65314 279.3475 542.4344 279.75375Q543.23126 280.14438 543.6375 280.8475Q544.0594 281.535 544.0594 282.31625Q544.0594 283.06625 543.65314 283.67563Q543.2625 284.285 542.48126 284.64438Q543.4969 284.87875 544.0594 285.61313Q544.6219 286.3475 544.6219 287.45688Q544.6219 288.95688 543.52814 290.00375Q542.4344 291.05063 540.7625 291.05063Q539.2625 291.05063 538.2625 290.16Q537.2625 289.25375 537.1219 287.81625ZM546.1219 285.19125Q546.1219 283.16 546.52814 281.92563Q546.95 280.69125 547.77814 280.01938Q548.60626 279.3475 549.85626 279.3475Q550.77814 279.3475 551.46564 279.7225Q552.16876 280.08188 552.6219 280.785Q553.075 281.48813 553.325 282.48813Q553.59064 283.48813 553.59064 285.19125Q553.59064 287.20688 553.16876 288.45688Q552.7625 289.69125 551.9344 290.37875Q551.10626 291.05063 549.85626 291.05063Q548.2 291.05063 547.2469 289.8475Q546.1219 288.42563 546.1219 285.19125ZM547.5594 285.19125Q547.5594 288.01938 548.21564 288.95688Q548.8875 289.87875 549.85626 289.87875Q550.825 289.87875 551.48126 288.94125Q552.1375 288.00375 552.1375 285.19125Q552.1375 282.36313 551.48126 281.44125Q550.825 280.50375 549.84064 280.50375Q548.8719 280.50375 548.29376 281.33188Q547.5594 282.37875 547.5594 285.19125ZM555.90314 290.8475L555.90314 289.23813L557.5125 289.23813L557.5125 290.8475L555.90314 290.8475ZM561.27814 284.62875Q560.40314 284.31625 559.98126 283.7225Q559.5594 283.12875 559.5594 282.30063Q559.5594 281.05063 560.45 280.20688Q561.35626 279.3475 562.85626 279.3475Q564.35626 279.3475 565.2625 280.2225Q566.1844 281.08188 566.1844 282.33188Q566.1844 283.12875 565.7625 283.7225Q565.34064 284.31625 564.4969 284.62875Q565.54376 284.9725 566.09064 285.73813Q566.65314 286.50375 566.65314 287.56625Q566.65314 289.035 565.60626 290.05063Q564.575 291.05063 562.8719 291.05063Q561.1844 291.05063 560.1375 290.05063Q559.10626 289.035 559.10626 287.535Q559.10626 286.41 559.66876 285.66Q560.23126 284.91 561.27814 284.62875ZM560.9969 282.25375Q560.9969 283.06625 561.5125 283.58188Q562.04376 284.0975 562.8875 284.0975Q563.7 284.0975 564.21564 283.58188Q564.73126 283.06625 564.73126 282.33188Q564.73126 281.55063 564.2 281.035Q563.66876 280.50375 562.8719 280.50375Q562.0594 280.50375 561.52814 281.01938Q560.9969 281.535 560.9969 282.25375ZM560.54376 287.535Q560.54376 288.14438 560.825 288.70688Q561.1219 289.26938 561.6844 289.58188Q562.2469 289.87875 562.8875 289.87875Q563.90314 289.87875 564.5594 289.23813Q565.21564 288.58188 565.21564 287.58188Q565.21564 286.56625 564.52814 285.91Q563.85626 285.23813 562.84064 285.23813Q561.85626 285.23813 561.2 285.89438Q560.54376 286.55063 560.54376 287.535ZM568.3875 282.14438Q568.3875 280.91 568.9969 280.05063Q569.6219 279.19125 570.79376 279.19125Q571.8719 279.19125 572.575 279.9725Q573.27814 280.73813 573.27814 282.2225Q573.27814 283.67563 572.5594 284.4725Q571.85626 285.25375 570.8094 285.25375Q569.7625 285.25375 569.075 284.48813Q568.3875 283.70688 568.3875 282.14438ZM570.825 280.16Q570.3094 280.16 569.95 280.61313Q569.60626 281.06625 569.60626 282.285Q569.60626 283.37875 569.95 283.83188Q570.3094 284.285 570.825 284.285Q571.35626 284.285 571.7 283.83188Q572.0594 283.37875 572.0594 282.17563Q572.0594 281.06625 571.7 280.61313Q571.35626 280.16 570.825 280.16ZM570.84064 291.26938L577.10626 279.19125L578.2469 279.19125L571.9969 291.26938L570.84064 291.26938ZM575.79376 288.16Q575.79376 286.92563 576.40314 286.06625Q577.02814 285.20688 578.2 285.20688Q579.27814 285.20688 579.98126 285.98813Q580.7 286.75375 580.7 288.23813Q580.7 289.69125 579.98126 290.48813Q579.2625 291.26938 578.21564 291.26938Q577.16876 291.26938 576.48126 290.48813Q575.79376 289.70688 575.79376 288.16ZM578.2469 286.17563Q577.71564 286.17563 577.35626 286.62875Q577.0125 287.08188 577.0125 288.30063Q577.0125 289.39438 577.35626 289.8475Q577.71564 290.30063 578.23126 290.30063Q578.77814 290.30063 579.1219 289.8475Q579.46564 289.39438 579.46564 288.19125Q579.46564 287.08188 579.10626 286.62875Q578.7625 286.17563 578.2469 286.17563Z" fill-rule="nonzero"/><path stroke="#757575" stroke-width="1.0" stroke-linecap="butt" d="M581.45 274.3475L454.76666 274.3475L422.39392 274.3475" fill-rule="nonzero"/><path fill="#9e9e9e" d="M424.39392 274.3475C424.39392 273.24292 423.4985 272.3475 422.39392 272.3475C421.28937 272.3475 420.39392 273.24292 420.39392 274.3475C420.39392 275.45206 421.28937 276.3475 422.39392 276.3475C423.4985 276.3475 424.39392 275.45206 424.39392 274.3475" fill-rule="nonzero"/><path fill="#f3f3f3" d="M271.26562 32.534374L273.15625 33.003124Q272.5625 35.346874 271.01562 36.58125Q269.46875 37.8 267.21875 37.8Q264.90625 37.8 263.45312 36.8625Q262.01562 35.909374 261.25 34.128124Q260.5 32.33125 260.5 30.284374Q260.5 28.05 261.34375 26.39375Q262.20312 24.721874 263.78125 23.8625Q265.35938 22.9875 267.25 22.9875Q269.40625 22.9875 270.85938 24.08125Q272.32812 25.175 272.90625 27.159374L271.04688 27.596874Q270.54688 26.034374 269.59375 25.33125Q268.65625 24.6125 267.21875 24.6125Q265.5625 24.6125 264.45312 25.409374Q263.34375 26.190624 262.89062 27.534374Q262.45312 28.8625 262.45312 30.26875Q262.45312 32.096874 262.98438 33.471874Q263.51562 34.83125 264.64062 35.503124Q265.76562 36.175 267.0625 36.175Q268.65625 36.175 269.76562 35.253124Q270.875 34.33125 271.26562 32.534374ZM281.59375 36.26875Q280.60938 37.096874 279.70312 37.440624Q278.79688 37.784374 277.76562 37.784374Q276.0625 37.784374 275.14062 36.95625Q274.21875 36.1125 274.21875 34.815624Q274.21875 34.05 274.5625 33.425Q274.92188 32.8 275.48438 32.425Q276.04688 32.034374 276.75 31.83125Q277.26562 31.70625 278.3125 31.565624Q280.4375 31.315624 281.4375 30.971874Q281.45312 30.6125 281.45312 30.503124Q281.45312 29.440624 280.95312 28.9875Q280.28125 28.39375 278.95312 28.39375Q277.70312 28.39375 277.10938 28.83125Q276.53125 29.26875 276.25 30.378124L274.53125 30.14375Q274.76562 29.034374 275.29688 28.3625Q275.82812 27.675 276.84375 27.315624Q277.85938 26.940624 279.20312 26.940624Q280.53125 26.940624 281.35938 27.253124Q282.1875 27.565624 282.57812 28.05Q282.96875 28.51875 283.125 29.2375Q283.21875 29.690624 283.21875 30.8625L283.21875 33.20625Q283.21875 35.659374 283.32812 36.315624Q283.4375 36.95625 283.78125 37.55L281.9375 37.55Q281.67188 37.003124 281.59375 36.26875ZM281.4375 32.346874Q280.48438 32.7375 278.5625 33.003124Q277.48438 33.159374 277.03125 33.3625Q276.59375 33.55 276.34375 33.925Q276.09375 34.3 276.09375 34.76875Q276.09375 35.471874 276.625 35.940624Q277.15625 36.409374 278.1875 36.409374Q279.20312 36.409374 279.98438 35.971874Q280.78125 35.51875 281.15625 34.753124Q281.4375 34.14375 281.4375 32.9875L281.4375 32.346874ZM289.65625 35.971874L289.90625 37.534374Q289.17188 37.690624 288.57812 37.690624Q287.625 37.690624 287.09375 37.39375Q286.57812 37.08125 286.35938 36.596874Q286.14062 36.096874 286.14062 34.51875L286.14062 28.55L284.85938 28.55L284.85938 27.175L286.14062 27.175L286.14062 24.6125L287.89062 23.55L287.89062 27.175L289.65625 27.175L289.65625 28.55L287.89062 28.55L287.89062 34.6125Q287.89062 35.3625 287.98438 35.58125Q288.07812 35.784374 288.28125 35.925Q288.5 36.05 288.89062 36.05Q289.17188 36.05 289.65625 35.971874ZM298.92188 34.20625L300.73438 34.440624Q300.3125 36.01875 299.14062 36.909374Q297.98438 37.784374 296.17188 37.784374Q293.90625 37.784374 292.5625 36.39375Q291.23438 34.9875 291.23438 32.45625Q291.23438 29.83125 292.57812 28.39375Q293.92188 26.940624 296.07812 26.940624Q298.15625 26.940624 299.46875 28.3625Q300.79688 29.76875 300.79688 32.346874Q300.79688 32.503124 300.78125 32.815624L293.04688 32.815624Q293.14062 34.51875 294.01562 35.425Q294.89062 36.33125 296.1875 36.33125Q297.15625 36.33125 297.82812 35.83125Q298.51562 35.315624 298.92188 34.20625ZM293.14062 31.3625L298.9375 31.3625Q298.82812 30.065624 298.28125 29.409374Q297.4375 28.39375 296.09375 28.39375Q294.89062 28.39375 294.0625 29.20625Q293.23438 30.003124 293.14062 31.3625ZM302.5 38.409374L304.20312 38.659374Q304.3125 39.45625 304.79688 39.815624Q305.45312 40.3 306.59375 40.3Q307.8125 40.3 308.46875 39.815624Q309.14062 39.33125 309.375 38.45625Q309.51562 37.909374 309.5 36.190624Q308.34375 37.55 306.625 37.55Q304.48438 37.55 303.3125 36.003124Q302.14062 34.45625 302.14062 32.3Q302.14062 30.815624 302.67188 29.565624Q303.21875 28.315624 304.23438 27.628124Q305.26562 26.940624 306.64062 26.940624Q308.46875 26.940624 309.67188 28.425L309.67188 27.175L311.28125 27.175L311.28125 36.14375Q311.28125 38.565624 310.78125 39.565624Q310.29688 40.58125 309.21875 41.159374Q308.15625 41.753124 306.59375 41.753124Q304.75 41.753124 303.59375 40.925Q302.45312 40.096874 302.5 38.409374ZM303.95312 32.175Q303.95312 34.221874 304.76562 35.159374Q305.57812 36.096874 306.79688 36.096874Q308.0 36.096874 308.8125 35.159374Q309.64062 34.221874 309.64062 32.2375Q309.64062 30.33125 308.79688 29.3625Q307.95312 28.39375 306.76562 28.39375Q305.59375 28.39375 304.76562 29.346874Q303.95312 30.3 303.95312 32.175ZM313.17188 32.3625Q313.17188 29.4875 314.76562 28.096874Q316.10938 26.940624 318.03125 26.940624Q320.17188 26.940624 321.51562 28.346874Q322.875 29.753124 322.875 32.221874Q322.875 34.221874 322.28125 35.378124Q321.6875 36.51875 320.53125 37.159374Q319.39062 37.784374 318.03125 37.784374Q315.84375 37.784374 314.5 36.39375Q313.17188 34.9875 313.17188 32.3625ZM314.96875 32.3625Q314.96875 34.3625 315.82812 35.346874Q316.70312 36.33125 318.03125 36.33125Q319.34375 36.33125 320.20312 35.346874Q321.07812 34.346874 321.07812 32.3Q321.07812 30.378124 320.20312 29.39375Q319.32812 28.39375 318.03125 28.39375Q316.70312 28.39375 315.82812 29.39375Q314.96875 30.378124 314.96875 32.3625ZM324.79688 37.55L324.79688 27.175L326.375 27.175L326.375 28.753124Q326.98438 27.64375 327.5 27.3Q328.01562 26.940624 328.625 26.940624Q329.51562 26.940624 330.4375 27.503124L329.82812 29.14375Q329.1875 28.753124 328.54688 28.753124Q327.96875 28.753124 327.5 29.1125Q327.04688 29.45625 326.84375 30.065624Q326.5625 31.003124 326.5625 32.1125L326.5625 37.55L324.79688 37.55ZM331.73438 41.55L331.54688 39.89375Q332.125 40.05 332.54688 40.05Q333.14062 40.05 333.48438 39.846874Q333.84375 39.659374 334.0625 39.315624Q334.23438 39.05 334.60938 38.003124Q334.65625 37.846874 334.76562 37.565624L330.82812 27.175L332.71875 27.175L334.875 33.190624Q335.29688 34.33125 335.625 35.58125Q335.9375 34.378124 336.34375 33.221874L338.5625 27.175L340.32812 27.175L336.375 37.721874Q335.75 39.440624 335.39062 40.08125Q334.92188 40.95625 334.3125 41.346874Q333.71875 41.753124 332.875 41.753124Q332.35938 41.753124 331.73438 41.55Z" fill-rule="nonzero"/></svg>