<svg version="1.1" viewBox="0.0 0.0 600.0 371.0" fill="none" stroke="none" stroke-linecap="square" stroke-miterlimit="10" width="600" height="371" xmlns:xlink="http://www.w3.org/1999/xlink" xmlns="http://www.w3.org/2000/svg"><path fill="#ffffff" fill-opacity="0.0" d="M0 0L600.0 0L600.0 371.0L0 371.0L0 0Z" fill-rule="nonzero"/><path fill="#533990" d="M300.0 54.916668C338.2299 54.916668 374.99246 69.63418 402.66077 96.01583L325.6652 176.76646C318.7481 170.17105 309.55746 166.49167 300.0 166.49167Z" fill-rule="nonzero"/><path fill="#cf4366" d="M402.66077 96.01583C452.3462 143.39081 463.16147 218.6127 428.83572 278.06668L332.20892 222.27916C340.79037 207.41568 338.08655 188.6102 325.6652 176.76646Z" fill-rule="nonzero"/><path fill="#f7d750" d="M271.84573 57.605076C281.1238 55.816868 290.55115 54.916668 300.0 54.916668L300.0 166.49167C297.6378 166.49167 295.28094 166.71672 292.96143 167.16377Z" fill-rule="nonzero"/><path fill="#e5a345" d="M171.16429 278.06668C147.10402 236.39307 144.68709 185.65541 164.67708 141.88342C184.66707 98.11145 224.59479 66.711945 271.84573 57.605076L292.96143 167.16377C281.14868 169.44049 271.16678 177.29036 266.16928 188.23335C261.17178 199.17635 261.776 211.86076 267.79108 222.27916Z" fill-rule="nonzero"/><path fill="#df8d43" d="M428.83572 278.06668C402.2611 324.09525 353.1492 352.45 300.0 352.45C246.85078 352.45 197.73889 324.09525 171.16429 278.06668L267.79108 222.27916C274.43472 233.78632 286.7127 240.875 300.0 240.875C313.2873 240.875 325.56528 233.78632 332.20892 222.27916Z" fill-rule="nonzero"/><path fill="#ffffff" d="M321.16888 110.35371L319.59076 110.35371L319.59076 100.27558Q319.01263 100.82246 318.09076 101.36933Q317.16888 101.90058 316.41888 102.18183L316.41888 100.65058Q317.747 100.02558 318.747 99.13496Q319.747 98.24433 320.15326 97.41621L321.16888 97.41621L321.16888 110.35371ZM333.52826 108.83808L333.52826 110.35371L325.01263 110.35371Q324.997 109.77558 325.20013 109.25996Q325.52826 108.38496 326.23138 107.54121Q326.95013 106.69746 328.3095 105.58808Q330.40326 103.86933 331.13763 102.86933Q331.88763 101.85371 331.88763 100.96308Q331.88763 100.00996 331.21576 99.36933Q330.54388 98.72871 329.46576 98.72871Q328.3095 98.72871 327.622 99.41621Q326.95013 100.10371 326.9345 101.30683L325.3095 101.13496Q325.48138 99.32246 326.5595 98.36933Q327.65326 97.41621 329.497 97.41621Q331.34076 97.41621 332.41888 98.44746Q333.51263 99.47871 333.51263 100.99433Q333.51263 101.75996 333.1845 102.50996Q332.872 103.25996 332.13763 104.08808Q331.40326 104.91621 329.70013 106.35371Q328.27826 107.55683 327.872 107.97871Q327.46576 108.40058 327.21576 108.83808L333.52826 108.83808ZM336.10638 110.35371L336.10638 108.55683L337.90326 108.55683L337.90326 110.35371L336.10638 110.35371ZM346.16888 110.35371L344.59076 110.35371L344.59076 100.27558Q344.01263 100.82246 343.09076 101.36933Q342.16888 101.90058 341.41888 102.18183L341.41888 100.65058Q342.747 100.02558 343.747 99.13496Q344.747 98.24433 345.15326 97.41621L346.16888 97.41621L346.16888 110.35371ZM350.51263 100.55683Q350.51263 99.18183 351.20013 98.21308Q351.90326 97.24433 353.21576 97.24433Q354.4345 97.24433 355.23138 98.11933Q356.02826 98.97871 356.02826 100.66621Q356.02826 102.29121 355.21576 103.18183Q354.41888 104.05683 353.23138 104.05683Q352.07513 104.05683 351.29388 103.19746Q350.51263 102.32246 350.51263 100.55683ZM353.26263 98.33808Q352.66888 98.33808 352.27826 98.85371Q351.88763 99.35371 351.88763 100.71308Q351.88763 101.96308 352.27826 102.46308Q352.6845 102.96308 353.26263 102.96308Q353.85638 102.96308 354.247 102.46308Q354.63763 101.94746 354.63763 100.60371Q354.63763 99.35371 354.247 98.85371Q353.85638 98.33808 353.26263 98.33808ZM353.27826 110.82246L360.32513 97.24433L361.60638 97.24433L354.57513 110.82246L353.27826 110.82246ZM358.84076 107.32246Q358.84076 105.94746 359.52826 104.97871Q360.23138 104.00996 361.5595 104.00996Q362.77826 104.00996 363.5595 104.88496Q364.35638 105.74433 364.35638 107.43183Q364.35638 109.05683 363.5595 109.94746Q362.76263 110.82246 361.57513 110.82246Q360.40326 110.82246 359.622 109.94746Q358.84076 109.07246 358.84076 107.32246ZM361.60638 105.10371Q361.01263 105.10371 360.622 105.61933Q360.23138 106.11933 360.23138 107.49433Q360.23138 108.71308 360.622 109.22871Q361.01263 109.74433 361.59076 109.74433Q362.20013 109.74433 362.59076 109.22871Q362.98138 108.71308 362.98138 107.36933Q362.98138 106.11933 362.59076 105.61933Q362.20013 105.10371 361.60638 105.10371Z" fill-rule="nonzero"/><path fill="#ffffff" d="M386.42752 193.87794L386.42752 195.39357L377.9119 195.39357Q377.89627 194.81544 378.0994 194.29982Q378.42752 193.42482 379.13065 192.58107Q379.8494 191.73732 381.20877 190.62794Q383.30252 188.9092 384.0369 187.9092Q384.7869 186.89357 384.7869 186.00294Q384.7869 185.04982 384.11502 184.4092Q383.44315 183.76857 382.36502 183.76857Q381.20877 183.76857 380.52127 184.45607Q379.8494 185.14357 379.83377 186.3467L378.20877 186.17482Q378.38065 184.36232 379.45877 183.4092Q380.55252 182.45607 382.39627 182.45607Q384.24002 182.45607 385.31815 183.48732Q386.4119 184.51857 386.4119 186.0342Q386.4119 186.79982 386.08377 187.54982Q385.77127 188.29982 385.0369 189.12794Q384.30252 189.95607 382.5994 191.39357Q381.17752 192.5967 380.77127 193.01857Q380.36502 193.44044 380.11502 193.87794L386.42752 193.87794ZM394.06815 195.39357L392.49002 195.39357L392.49002 185.31544Q391.9119 185.86232 390.99002 186.4092Q390.06815 186.94044 389.31815 187.2217L389.31815 185.69044Q390.64627 185.06544 391.64627 184.17482Q392.64627 183.2842 393.05252 182.45607L394.06815 182.45607L394.06815 195.39357ZM399.00565 195.39357L399.00565 193.5967L400.80252 193.5967L400.80252 195.39357L399.00565 195.39357ZM411.42752 193.87794L411.42752 195.39357L402.9119 195.39357Q402.89627 194.81544 403.0994 194.29982Q403.42752 193.42482 404.13065 192.58107Q404.8494 191.73732 406.20877 190.62794Q408.30252 188.9092 409.0369 187.9092Q409.7869 186.89357 409.7869 186.00294Q409.7869 185.04982 409.11502 184.4092Q408.44315 183.76857 407.36502 183.76857Q406.20877 183.76857 405.52127 184.45607Q404.8494 185.14357 404.83377 186.3467L403.20877 186.17482Q403.38065 184.36232 404.45877 183.4092Q405.55252 182.45607 407.39627 182.45607Q409.24002 182.45607 410.31815 183.48732Q411.4119 184.51857 411.4119 186.0342Q411.4119 186.79982 411.08377 187.54982Q410.77127 188.29982 410.0369 189.12794Q409.30252 189.95607 407.5994 191.39357Q406.17752 192.5967 405.77127 193.01857Q405.36502 193.44044 405.11502 193.87794L411.42752 193.87794ZM413.4119 185.5967Q413.4119 184.2217 414.0994 183.25294Q414.80252 182.2842 416.11502 182.2842Q417.33377 182.2842 418.13065 183.1592Q418.92752 184.01857 418.92752 185.70607Q418.92752 187.33107 418.11502 188.2217Q417.31815 189.0967 416.13065 189.0967Q414.9744 189.0967 414.19315 188.23732Q413.4119 187.36232 413.4119 185.5967ZM416.1619 183.37794Q415.56815 183.37794 415.17752 183.89357Q414.7869 184.39357 414.7869 185.75294Q414.7869 187.00294 415.17752 187.50294Q415.58377 188.00294 416.1619 188.00294Q416.75565 188.00294 417.14627 187.50294Q417.5369 186.98732 417.5369 185.64357Q417.5369 184.39357 417.14627 183.89357Q416.75565 183.37794 416.1619 183.37794ZM416.17752 195.86232L423.2244 182.2842L424.50565 182.2842L417.4744 195.86232L416.17752 195.86232ZM421.74002 192.36232Q421.74002 190.98732 422.42752 190.01857Q423.13065 189.04982 424.45877 189.04982Q425.67752 189.04982 426.45877 189.92482Q427.25565 190.7842 427.25565 192.4717Q427.25565 194.0967 426.45877 194.98732Q425.6619 195.86232 424.4744 195.86232Q423.30252 195.86232 422.52127 194.98732Q421.74002 194.11232 421.74002 192.36232ZM424.50565 190.14357Q423.9119 190.14357 423.52127 190.6592Q423.13065 191.1592 423.13065 192.5342Q423.13065 193.75294 423.52127 194.26857Q423.9119 194.7842 424.49002 194.7842Q425.0994 194.7842 425.49002 194.26857Q425.88065 193.75294 425.88065 192.4092Q425.88065 191.1592 425.49002 190.6592Q425.0994 190.14357 424.50565 190.14357Z" fill-rule="nonzero"/><path fill="#ffffff" d="M275.25 324.58298L276.84375 324.37985Q277.10938 325.7236 277.76562 326.31735Q278.42188 326.9111 279.35938 326.9111Q280.48438 326.9111 281.25 326.14548Q282.01562 325.36423 282.01562 324.2236Q282.01562 323.12985 281.29688 322.42673Q280.59375 321.70798 279.5 321.70798Q279.04688 321.70798 278.375 321.89548L278.54688 320.50485Q278.70312 320.52048 278.8125 320.52048Q279.8125 320.52048 280.625 319.98923Q281.4375 319.45798 281.4375 318.36423Q281.4375 317.48923 280.84375 316.92673Q280.25 316.3486 279.32812 316.3486Q278.40625 316.3486 277.78125 316.92673Q277.17188 317.50485 277.0 318.67673L275.42188 318.39548Q275.70312 316.80173 276.73438 315.92673Q277.76562 315.05173 279.29688 315.05173Q280.34375 315.05173 281.23438 315.50485Q282.125 315.95798 282.59375 316.73923Q283.0625 317.52048 283.0625 318.39548Q283.0625 319.23923 282.60938 319.92673Q282.17188 320.5986 281.28125 321.00485Q282.42188 321.27048 283.04688 322.11423Q283.6875 322.94235 283.6875 324.17673Q283.6875 325.86423 282.45312 327.05173Q281.23438 328.2236 279.35938 328.2236Q277.65625 328.2236 276.53125 327.20798Q275.42188 326.19235 275.25 324.58298ZM285.25 324.58298L286.84375 324.37985Q287.10938 325.7236 287.76562 326.31735Q288.42188 326.9111 289.35938 326.9111Q290.48438 326.9111 291.25 326.14548Q292.01562 325.36423 292.01562 324.2236Q292.01562 323.12985 291.29688 322.42673Q290.59375 321.70798 289.5 321.70798Q289.04688 321.70798 288.375 321.89548L288.54688 320.50485Q288.70312 320.52048 288.8125 320.52048Q289.8125 320.52048 290.625 319.98923Q291.4375 319.45798 291.4375 318.36423Q291.4375 317.48923 290.84375 316.92673Q290.25 316.3486 289.32812 316.3486Q288.40625 316.3486 287.78125 316.92673Q287.17188 317.50485 287.0 318.67673L285.42188 318.39548Q285.70312 316.80173 286.73438 315.92673Q287.76562 315.05173 289.29688 315.05173Q290.34375 315.05173 291.23438 315.50485Q292.125 315.95798 292.59375 316.73923Q293.0625 317.52048 293.0625 318.39548Q293.0625 319.23923 292.60938 319.92673Q292.17188 320.5986 291.28125 321.00485Q292.42188 321.27048 293.04688 322.11423Q293.6875 322.94235 293.6875 324.17673Q293.6875 325.86423 292.45312 327.05173Q291.23438 328.2236 289.35938 328.2236Q287.65625 328.2236 286.53125 327.20798Q285.42188 326.19235 285.25 324.58298ZM296.14062 327.98923L296.14062 326.19235L297.9375 326.19235L297.9375 327.98923L296.14062 327.98923ZM300.25 324.58298L301.84375 324.37985Q302.10938 325.7236 302.76562 326.31735Q303.42188 326.9111 304.35938 326.9111Q305.48438 326.9111 306.25 326.14548Q307.01562 325.36423 307.01562 324.2236Q307.01562 323.12985 306.29688 322.42673Q305.59375 321.70798 304.5 321.70798Q304.04688 321.70798 303.375 321.89548L303.54688 320.50485Q303.70312 320.52048 303.8125 320.52048Q304.8125 320.52048 305.625 319.98923Q306.4375 319.45798 306.4375 318.36423Q306.4375 317.48923 305.84375 316.92673Q305.25 316.3486 304.32812 316.3486Q303.40625 316.3486 302.78125 316.92673Q302.17188 317.50485 302.0 318.67673L300.42188 318.39548Q300.70312 316.80173 301.73438 315.92673Q302.76562 315.05173 304.29688 315.05173Q305.34375 315.05173 306.23438 315.50485Q307.125 315.95798 307.59375 316.73923Q308.0625 317.52048 308.0625 318.39548Q308.0625 319.23923 307.60938 319.92673Q307.17188 320.5986 306.28125 321.00485Q307.42188 321.27048 308.04688 322.11423Q308.6875 322.94235 308.6875 324.17673Q308.6875 325.86423 307.45312 327.05173Q306.23438 328.2236 304.35938 328.2236Q302.65625 328.2236 301.53125 327.20798Q300.42188 326.19235 300.25 324.58298ZM310.54688 318.19235Q310.54688 316.81735 311.23438 315.8486Q311.9375 314.87985 313.25 314.87985Q314.46875 314.87985 315.26562 315.75485Q316.0625 316.61423 316.0625 318.30173Q316.0625 319.92673 315.25 320.81735Q314.45312 321.69235 313.26562 321.69235Q312.10938 321.69235 311.32812 320.83298Q310.54688 319.95798 310.54688 318.19235ZM313.29688 315.9736Q312.70312 315.9736 312.3125 316.48923Q311.92188 316.98923 311.92188 318.3486Q311.92188 319.5986 312.3125 320.0986Q312.71875 320.5986 313.29688 320.5986Q313.89062 320.5986 314.28125 320.0986Q314.67188 319.58298 314.67188 318.23923Q314.67188 316.98923 314.28125 316.48923Q313.89062 315.9736 313.29688 315.9736ZM313.3125 328.45798L320.35938 314.87985L321.64062 314.87985L314.60938 328.45798L313.3125 328.45798ZM318.875 324.95798Q318.875 323.58298 319.5625 322.61423Q320.26562 321.64548 321.59375 321.64548Q322.8125 321.64548 323.59375 322.52048Q324.39062 323.37985 324.39062 325.06735Q324.39062 326.69235 323.59375 327.58298Q322.79688 328.45798 321.60938 328.45798Q320.4375 328.45798 319.65625 327.58298Q318.875 326.70798 318.875 324.95798ZM321.64062 322.73923Q321.04688 322.73923 320.65625 323.25485Q320.26562 323.75485 320.26562 325.12985Q320.26562 326.3486 320.65625 326.86423Q321.04688 327.37985 321.625 327.37985Q322.23438 327.37985 322.625 326.86423Q323.01562 326.3486 323.01562 325.00485Q323.01562 323.75485 322.625 323.25485Q322.23438 322.73923 321.64062 322.73923Z" fill-rule="nonzero"/><path fill="#ffffff" d="M183.04695 164.66937L184.6407 164.46625Q184.90633 165.81 185.56258 166.40375Q186.21883 166.9975 187.15633 166.9975Q188.28133 166.9975 189.04695 166.23187Q189.81258 165.45062 189.81258 164.31Q189.81258 163.21625 189.09383 162.51312Q188.3907 161.79437 187.29695 161.79437Q186.84383 161.79437 186.17195 161.98187L186.34383 160.59125Q186.50008 160.60687 186.60945 160.60687Q187.60945 160.60687 188.42195 160.07562Q189.23445 159.54437 189.23445 158.45062Q189.23445 157.57562 188.6407 157.01312Q188.04695 156.435 187.12508 156.435Q186.2032 156.435 185.5782 157.01312Q184.96883 157.59125 184.79695 158.76312L183.21883 158.48187Q183.50008 156.88812 184.53133 156.01312Q185.56258 155.13812 187.09383 155.13812Q188.1407 155.13812 189.03133 155.59125Q189.92195 156.04437 190.3907 156.82562Q190.85945 157.60687 190.85945 158.48187Q190.85945 159.32562 190.40633 160.01312Q189.96883 160.685 189.0782 161.09125Q190.21883 161.35687 190.84383 162.20062Q191.48445 163.02875 191.48445 164.26312Q191.48445 165.95062 190.25008 167.13812Q189.03133 168.31 187.15633 168.31Q185.4532 168.31 184.3282 167.29437Q183.21883 166.27875 183.04695 164.66937ZM193.04695 161.71625Q193.04695 159.435 193.5157 158.04437Q193.98445 156.65375 194.90633 155.90375Q195.84383 155.13812 197.25008 155.13812Q198.28133 155.13812 199.06258 155.56Q199.84383 155.96625 200.34383 156.76312Q200.85945 157.54437 201.15633 158.685Q201.4532 159.81 201.4532 161.71625Q201.4532 163.98187 200.98445 165.38812Q200.5157 166.77875 199.5782 167.54437Q198.65633 168.29437 197.25008 168.29437Q195.37508 168.29437 194.31258 166.96625Q193.04695 165.35687 193.04695 161.71625ZM194.67195 161.71625Q194.67195 164.88812 195.40633 165.95062Q196.15633 166.9975 197.25008 166.9975Q198.3282 166.9975 199.0782 165.95062Q199.8282 164.88812 199.8282 161.71625Q199.8282 158.54437 199.0782 157.4975Q198.3282 156.45062 197.23445 156.45062Q196.1407 156.45062 195.48445 157.3725Q194.67195 158.54437 194.67195 161.71625ZM203.93758 168.07562L203.93758 166.27875L205.73445 166.27875L205.73445 168.07562L203.93758 168.07562ZM208.04695 164.66937L209.6407 164.46625Q209.90633 165.81 210.56258 166.40375Q211.21883 166.9975 212.15633 166.9975Q213.28133 166.9975 214.04695 166.23187Q214.81258 165.45062 214.81258 164.31Q214.81258 163.21625 214.09383 162.51312Q213.3907 161.79437 212.29695 161.79437Q211.84383 161.79437 211.17195 161.98187L211.34383 160.59125Q211.50008 160.60687 211.60945 160.60687Q212.60945 160.60687 213.42195 160.07562Q214.23445 159.54437 214.23445 158.45062Q214.23445 157.57562 213.6407 157.01312Q213.04695 156.435 212.12508 156.435Q211.2032 156.435 210.5782 157.01312Q209.96883 157.59125 209.79695 158.76312L208.21883 158.48187Q208.50008 156.88812 209.53133 156.01312Q210.56258 155.13812 212.09383 155.13812Q213.1407 155.13812 214.03133 155.59125Q214.92195 156.04437 215.3907 156.82562Q215.85945 157.60687 215.85945 158.48187Q215.85945 159.32562 215.40633 160.01312Q214.96883 160.685 214.0782 161.09125Q215.21883 161.35687 215.84383 162.20062Q216.48445 163.02875 216.48445 164.26312Q216.48445 165.95062 215.25008 167.13812Q214.03133 168.31 212.15633 168.31Q210.4532 168.31 209.3282 167.29437Q208.21883 166.27875 208.04695 164.66937ZM218.34383 158.27875Q218.34383 156.90375 219.03133 155.935Q219.73445 154.96625 221.04695 154.96625Q222.2657 154.96625 223.06258 155.84125Q223.85945 156.70062 223.85945 158.38812Q223.85945 160.01312 223.04695 160.90375Q222.25008 161.77875 221.06258 161.77875Q219.90633 161.77875 219.12508 160.91937Q218.34383 160.04437 218.34383 158.27875ZM221.09383 156.06Q220.50008 156.06 220.10945 156.57562Q219.71883 157.07562 219.71883 158.435Q219.71883 159.685 220.10945 160.185Q220.5157 160.685 221.09383 160.685Q221.68758 160.685 222.0782 160.185Q222.46883 159.66937 222.46883 158.32562Q222.46883 157.07562 222.0782 156.57562Q221.68758 156.06 221.09383 156.06ZM221.10945 168.54437L228.15633 154.96625L229.43758 154.96625L222.40633 168.54437L221.10945 168.54437ZM226.67195 165.04437Q226.67195 163.66937 227.35945 162.70062Q228.06258 161.73187 229.3907 161.73187Q230.60945 161.73187 231.3907 162.60687Q232.18758 163.46625 232.18758 165.15375Q232.18758 166.77875 231.3907 167.66937Q230.59383 168.54437 229.40633 168.54437Q228.23445 168.54437 227.4532 167.66937Q226.67195 166.79437 226.67195 165.04437ZM229.43758 162.82562Q228.84383 162.82562 228.4532 163.34125Q228.06258 163.84125 228.06258 165.21625Q228.06258 166.435 228.4532 166.95062Q228.84383 167.46625 229.42195 167.46625Q230.03133 167.46625 230.42195 166.95062Q230.81258 166.435 230.81258 165.09125Q230.81258 163.84125 230.42195 163.34125Q230.03133 162.82562 229.43758 162.82562Z" fill-rule="nonzero"/><path stroke="#ffffff" stroke-width="1.0" stroke-linejoin="round" stroke-linecap="round" d="M325.6652 176.76646C318.7481 170.17105 309.55746 166.49167 300.0 166.49167L300.0 54.916668C338.2299 54.916668 374.99246 69.63418 402.66077 96.01583" fill-rule="nonzero"/><path stroke="#ffffff" stroke-width="1.0" stroke-linejoin="round" stroke-linecap="round" d="M332.20892 222.27916C340.79037 207.41568 338.08655 188.6102 325.6652 176.76646L402.66077 96.01583C452.3462 143.39081 463.16147 218.6127 428.83572 278.06668" fill-rule="nonzero"/><path stroke="#ffffff" stroke-width="1.0" stroke-linejoin="round" stroke-linecap="round" d="M267.79108 222.27916C274.43472 233.78632 286.7127 240.875 300.0 240.875C313.2873 240.875 325.56528 233.78632 332.20892 222.27916L428.83572 278.06668C402.2611 324.09525 353.1492 352.45 300.0 352.45C246.85078 352.45 197.73889 324.09525 171.16429 278.06668" fill-rule="nonzero"/><path stroke="#ffffff" stroke-width="1.0" stroke-linejoin="round" stroke-linecap="round" d="M292.96143 167.16377C281.14868 169.44049 271.16678 177.29036 266.16928 188.23335C261.17178 199.17635 261.776 211.86076 267.79108 222.27916L171.16429 278.06668C147.10402 236.39307 144.68709 185.65541 164.67708 141.88342C184.66707 98.11145 224.59479 66.711945 271.84573 57.605076" fill-rule="nonzero"/><path stroke="#ffffff" stroke-width="1.0" stroke-linejoin="round" stroke-linecap="round" d="M300.0 166.49167C297.6378 166.49167 295.28094 166.71672 292.96143 167.16377L271.84573 57.605076C281.1238 55.816868 290.55115 54.916668 300.0 54.916668" fill-rule="nonzero"/><path fill="#efefef" d="M19.784374 69.916664L19.784374 58.46354L24.1125 58.46354Q25.253124 58.46354 25.846874 58.572914Q26.690624 58.71354 27.253124 59.104164Q27.83125 59.49479 28.175 60.21354Q28.534374 60.916664 28.534374 61.77604Q28.534374 63.229164 27.596874 64.24479Q26.675 65.260414 24.2375 65.260414L21.3 65.260414L21.3 69.916664L19.784374 69.916664ZM21.3 63.90104L24.26875 63.90104Q25.7375 63.90104 26.346874 63.354164Q26.971874 62.80729 26.971874 61.822914Q26.971874 61.104164 26.596874 60.58854Q26.2375 60.072914 25.64375 59.916664Q25.26875 59.80729 24.2375 59.80729L21.3 59.80729L21.3 63.90104ZM36.01875 68.885414Q35.2375 69.55729 34.51875 69.83854Q33.8 70.104164 32.971874 70.104164Q31.596874 70.104164 30.8625 69.43229Q30.128124 68.760414 30.128124 67.729164Q30.128124 67.11979 30.409374 66.61979Q30.690624 66.104164 31.128124 65.80729Q31.58125 65.49479 32.14375 65.33854Q32.565624 65.229164 33.39375 65.135414Q35.096874 64.93229 35.909374 64.65104Q35.909374 64.354164 35.909374 64.27604Q35.909374 63.416664 35.51875 63.072914Q34.971874 62.58854 33.909374 62.58854Q32.925 62.58854 32.440624 62.947914Q31.971874 63.291664 31.753124 64.166664L30.378124 63.979164Q30.565624 63.104164 30.9875 62.55729Q31.425 62.010414 32.2375 61.729164Q33.05 61.43229 34.1125 61.43229Q35.175 61.43229 35.83125 61.68229Q36.503124 61.93229 36.815624 62.30729Q37.128124 62.68229 37.253124 63.260414Q37.33125 63.61979 37.33125 64.55729L37.33125 66.43229Q37.33125 68.40104 37.409374 68.916664Q37.503124 69.43229 37.76875 69.916664L36.3 69.916664Q36.08125 69.479164 36.01875 68.885414ZM35.909374 65.74479Q35.14375 66.05729 33.6125 66.27604Q32.7375 66.40104 32.378124 66.55729Q32.01875 66.71354 31.815624 67.02604Q31.628124 67.322914 31.628124 67.68229Q31.628124 68.24479 32.05 68.61979Q32.4875 68.99479 33.3 68.99479Q34.1125 68.99479 34.7375 68.65104Q35.378124 68.291664 35.675 67.666664Q35.909374 67.197914 35.909374 66.260414L35.909374 65.74479ZM39.346874 70.604164L40.721874 70.80729Q40.8 71.447914 41.190624 71.729164Q41.721874 72.11979 42.628124 72.11979Q43.596874 72.11979 44.128124 71.729164Q44.659374 71.33854 44.846874 70.635414Q44.95625 70.21354 44.95625 68.822914Q44.034374 69.916664 42.659374 69.916664Q40.940624 69.916664 40.003124 68.68229Q39.065624 67.447914 39.065624 65.71354Q39.065624 64.52604 39.4875 63.52604Q39.925 62.52604 40.7375 61.979164Q41.565624 61.43229 42.659374 61.43229Q44.128124 61.43229 45.08125 62.61979L45.08125 61.61979L46.378124 61.61979L46.378124 68.791664Q46.378124 70.729164 45.9875 71.541664Q45.596874 72.354164 44.7375 72.822914Q43.878124 73.291664 42.628124 73.291664Q41.14375 73.291664 40.221874 72.61979Q39.315624 71.947914 39.346874 70.604164ZM40.51875 65.61979Q40.51875 67.24479 41.159374 67.99479Q41.815624 68.74479 42.784374 68.74479Q43.753124 68.74479 44.409374 68.010414Q45.065624 67.260414 45.065624 65.666664Q45.065624 64.135414 44.39375 63.36979Q43.721874 62.58854 42.76875 62.58854Q41.83125 62.58854 41.175 63.354164Q40.51875 64.11979 40.51875 65.61979ZM54.284374 67.24479L55.7375 67.416664Q55.39375 68.697914 54.45625 69.40104Q53.534374 70.104164 52.096874 70.104164Q50.26875 70.104164 49.20625 68.979164Q48.14375 67.854164 48.14375 65.83854Q48.14375 63.74479 49.221874 62.58854Q50.3 61.43229 52.01875 61.43229Q53.675 61.43229 54.721874 62.572914Q55.784374 63.697914 55.784374 65.74479Q55.784374 65.86979 55.784374 66.11979L49.596874 66.11979Q49.675 67.49479 50.3625 68.229164Q51.065624 68.947914 52.096874 68.947914Q52.878124 68.947914 53.425 68.541664Q53.971874 68.135414 54.284374 67.24479ZM49.675 64.96354L54.3 64.96354Q54.20625 63.916664 53.76875 63.40104Q53.096874 62.58854 52.034374 62.58854Q51.065624 62.58854 50.39375 63.24479Q49.7375 63.885414 49.675 64.96354Z" fill-rule="nonzero"/><path fill="#9e9e9e" d="M19.221874 88.885414L20.628124 88.697914Q20.878124 89.90104 21.45625 90.43229Q22.034374 90.947914 22.878124 90.947914Q23.8625 90.947914 24.55 90.260414Q25.2375 89.572914 25.2375 88.55729Q25.2375 87.58854 24.596874 86.96354Q23.971874 86.33854 22.9875 86.33854Q22.596874 86.33854 22.003124 86.49479L22.159374 85.260414Q22.3 85.27604 22.378124 85.27604Q23.284374 85.27604 24.003124 84.80729Q24.721874 84.33854 24.721874 83.354164Q24.721874 82.58854 24.190624 82.08854Q23.675 81.572914 22.846874 81.572914Q22.01875 81.572914 21.471874 82.08854Q20.925 82.604164 20.76875 83.635414L19.3625 83.385414Q19.628124 81.96354 20.534374 81.197914Q21.45625 80.416664 22.815624 80.416664Q23.753124 80.416664 24.534374 80.822914Q25.33125 81.21354 25.7375 81.916664Q26.159374 82.604164 26.159374 83.385414Q26.159374 84.135414 25.753124 84.74479Q25.3625 85.354164 24.58125 85.71354Q25.596874 85.947914 26.159374 86.68229Q26.721874 87.416664 26.721874 88.52604Q26.721874 90.02604 25.628124 91.072914Q24.534374 92.11979 22.8625 92.11979Q21.3625 92.11979 20.3625 91.229164Q19.3625 90.322914 19.221874 88.885414ZM29.003124 91.916664L29.003124 90.30729L30.6125 90.30729L30.6125 91.916664L29.003124 91.916664ZM32.221874 86.260414Q32.221874 84.229164 32.628124 82.99479Q33.05 81.760414 33.878124 81.08854Q34.70625 80.416664 35.95625 80.416664Q36.878124 80.416664 37.565624 80.791664Q38.26875 81.15104 38.721874 81.854164Q39.175 82.55729 39.425 83.55729Q39.690624 84.55729 39.690624 86.260414Q39.690624 88.27604 39.26875 89.52604Q38.8625 90.760414 38.034374 91.447914Q37.20625 92.11979 35.95625 92.11979Q34.3 92.11979 33.346874 90.916664Q32.221874 89.49479 32.221874 86.260414ZM33.659374 86.260414Q33.659374 89.08854 34.315624 90.02604Q34.9875 90.947914 35.95625 90.947914Q36.925 90.947914 37.58125 90.010414Q38.2375 89.072914 38.2375 86.260414Q38.2375 83.43229 37.58125 82.510414Q36.925 81.572914 35.940624 81.572914Q34.971874 81.572914 34.39375 82.40104Q33.659374 83.447914 33.659374 86.260414ZM41.4875 83.21354Q41.4875 81.979164 42.096874 81.11979Q42.721874 80.260414 43.89375 80.260414Q44.971874 80.260414 45.675 81.041664Q46.378124 81.80729 46.378124 83.291664Q46.378124 84.74479 45.659374 85.541664Q44.95625 86.322914 43.909374 86.322914Q42.8625 86.322914 42.175 85.55729Q41.4875 84.77604 41.4875 83.21354ZM43.925 81.229164Q43.409374 81.229164 43.05 81.68229Q42.70625 82.135414 42.70625 83.354164Q42.70625 84.447914 43.05 84.90104Q43.409374 85.354164 43.925 85.354164Q44.45625 85.354164 44.8 84.90104Q45.159374 84.447914 45.159374 83.24479Q45.159374 82.135414 44.8 81.68229Q44.45625 81.229164 43.925 81.229164ZM43.940624 92.33854L50.20625 80.260414L51.346874 80.260414L45.096874 92.33854L43.940624 92.33854ZM48.89375 89.229164Q48.89375 87.99479 49.503124 87.135414Q50.128124 86.27604 51.3 86.27604Q52.378124 86.27604 53.08125 87.05729Q53.8 87.822914 53.8 89.30729Q53.8 90.760414 53.08125 91.55729Q52.3625 92.33854 51.315624 92.33854Q50.26875 92.33854 49.58125 91.55729Q48.89375 90.77604 48.89375 89.229164ZM51.346874 87.24479Q50.815624 87.24479 50.45625 87.697914Q50.1125 88.15104 50.1125 89.36979Q50.1125 90.46354 50.45625 90.916664Q50.815624 91.36979 51.33125 91.36979Q51.878124 91.36979 52.221874 90.916664Q52.565624 90.46354 52.565624 89.260414Q52.565624 88.15104 52.20625 87.697914Q51.8625 87.24479 51.346874 87.24479Z" fill-rule="nonzero"/><path stroke="#757575" stroke-width="1.0" stroke-linecap="butt" d="M18.55 75.416664L145.23334 75.416664L286.5659 62.994946" fill-rule="nonzero"/><path fill="#9e9e9e" d="M288.5659 62.994946C288.5659 61.890377 287.67047 60.994946 286.5659 60.994946C285.4613 60.994946 284.5659 61.890377 284.5659 62.994946C284.5659 64.09952 285.4613 64.99495 286.5659 64.99495C287.67047 64.99495 288.5659 64.09952 288.5659 62.994946" fill-rule="nonzero"/><path fill="#efefef" d="M27.3 128.0203L28.815624 128.0203L28.815624 134.62967Q28.815624 136.36404 28.425 137.37967Q28.034374 138.3953 27.01875 139.03592Q26.003124 139.67654 24.346874 139.67654Q22.7375 139.67654 21.70625 139.11404Q20.690624 138.55154 20.253124 137.50467Q19.815624 136.4578 19.815624 134.62967L19.815624 128.0203L21.33125 128.0203L21.33125 134.62967Q21.33125 136.11404 21.596874 136.8328Q21.878124 137.53592 22.55 137.92654Q23.2375 138.30154 24.20625 138.30154Q25.878124 138.30154 26.58125 137.55154Q27.3 136.78592 27.3 134.62967L27.3 128.0203ZM31.596874 139.47342L31.596874 131.17654L32.8625 131.17654L32.8625 132.42654Q33.346874 131.55154 33.753124 131.2703Q34.159374 130.98904 34.659374 130.98904Q35.3625 130.98904 36.096874 131.44217L35.6125 132.73904Q35.096874 132.44217 34.58125 132.44217Q34.128124 132.44217 33.753124 132.72342Q33.39375 132.98904 33.2375 133.48904Q33.003124 134.23904 33.003124 135.12967L33.003124 139.47342L31.596874 139.47342ZM37.909374 139.47342L36.596874 139.47342L36.596874 128.0203L38.003124 128.0203L38.003124 132.09842Q38.89375 130.98904 40.284374 130.98904Q41.05 130.98904 41.721874 131.30154Q42.409374 131.59842 42.846874 132.16092Q43.3 132.72342 43.55 133.5203Q43.8 134.30154 43.8 135.19217Q43.8 137.3328 42.7375 138.50467Q41.690624 139.66092 40.20625 139.66092Q38.7375 139.66092 37.909374 138.42654L37.909374 139.47342ZM37.89375 135.25467Q37.89375 136.75467 38.3 137.41092Q38.95625 138.50467 40.096874 138.50467Q41.01875 138.50467 41.690624 137.7078Q42.3625 136.8953 42.3625 135.31717Q42.3625 133.69217 41.70625 132.92654Q41.065624 132.1453 40.159374 132.1453Q39.2375 132.1453 38.565624 132.94217Q37.89375 133.73904 37.89375 135.25467ZM51.01875 138.44217Q50.2375 139.11404 49.51875 139.3953Q48.8 139.66092 47.971874 139.66092Q46.596874 139.66092 45.8625 138.98904Q45.128124 138.31717 45.128124 137.28592Q45.128124 136.67654 45.409374 136.17654Q45.690624 135.66092 46.128124 135.36404Q46.58125 135.05154 47.14375 134.8953Q47.565624 134.78592 48.39375 134.69217Q50.096874 134.48904 50.909374 134.2078Q50.909374 133.91092 50.909374 133.8328Q50.909374 132.97342 50.51875 132.62967Q49.971874 132.1453 48.909374 132.1453Q47.925 132.1453 47.440624 132.50467Q46.971874 132.84842 46.753124 133.72342L45.378124 133.53592Q45.565624 132.66092 45.9875 132.11404Q46.425 131.56717 47.2375 131.28592Q48.05 130.98904 49.1125 130.98904Q50.175 130.98904 50.83125 131.23904Q51.503124 131.48904 51.815624 131.86404Q52.128124 132.23904 52.253124 132.81717Q52.33125 133.17654 52.33125 134.11404L52.33125 135.98904Q52.33125 137.9578 52.409374 138.47342Q52.503124 138.98904 52.76875 139.47342L51.3 139.47342Q51.08125 139.03592 51.01875 138.44217ZM50.909374 135.30154Q50.14375 135.61404 48.6125 135.8328Q47.7375 135.9578 47.378124 136.11404Q47.01875 136.2703 46.815624 136.5828Q46.628124 136.87967 46.628124 137.23904Q46.628124 137.80154 47.05 138.17654Q47.4875 138.55154 48.3 138.55154Q49.1125 138.55154 49.7375 138.2078Q50.378124 137.84842 50.675 137.22342Q50.909374 136.75467 50.909374 135.81717L50.909374 135.30154ZM54.6125 139.47342L54.6125 131.17654L55.878124 131.17654L55.878124 132.34842Q56.784374 130.98904 58.51875 130.98904Q59.26875 130.98904 59.89375 131.25467Q60.51875 131.5203 60.83125 131.9578Q61.14375 132.3953 61.26875 133.00467Q61.346874 133.3953 61.346874 134.36404L61.346874 139.47342L59.940624 139.47342L59.940624 134.42654Q59.940624 133.56717 59.76875 133.1453Q59.6125 132.7078 59.190624 132.4578Q58.784374 132.2078 58.221874 132.2078Q57.315624 132.2078 56.659374 132.78592Q56.01875 133.34842 56.01875 134.94217L56.01875 139.47342L54.6125 139.47342ZM63.05 136.98904L64.44063 136.7703Q64.55 137.61404 65.08125 138.06717Q65.62813 138.50467 66.58125 138.50467Q67.55 138.50467 68.01875 138.11404Q68.4875 137.7078 68.4875 137.17654Q68.4875 136.7078 68.08125 136.42654Q67.78438 136.23904 66.64375 135.9578Q65.09688 135.56717 64.4875 135.28592Q63.89375 134.98904 63.58125 134.48904Q63.284374 133.98904 63.284374 133.37967Q63.284374 132.81717 63.534374 132.34842Q63.784374 131.87967 64.22188 131.56717Q64.55 131.31717 65.1125 131.16092Q65.69063 130.98904 66.33125 130.98904Q67.31563 130.98904 68.05 131.2703Q68.78438 131.55154 69.12813 132.03592Q69.4875 132.50467 69.62813 133.31717L68.25313 133.50467Q68.15938 132.86404 67.70625 132.50467Q67.25313 132.1453 66.44063 132.1453Q65.47188 132.1453 65.05 132.47342Q64.64375 132.78592 64.64375 133.2078Q64.64375 133.48904 64.81563 133.7078Q64.9875 133.92654 65.34688 134.0828Q65.56563 134.16092 66.59688 134.44217Q68.08125 134.8328 68.675 135.09842Q69.26875 135.34842 69.59688 135.8328Q69.94063 136.31717 69.94063 137.03592Q69.94063 137.73904 69.51875 138.36404Q69.1125 138.97342 68.33125 139.31717Q67.56563 139.66092 66.59688 139.66092Q64.97188 139.66092 64.12813 138.98904Q63.284374 138.31717 63.05 136.98904ZM77.01875 136.42654L78.40938 136.61404Q78.175 138.03592 77.2375 138.84842Q76.31563 139.66092 74.95625 139.66092Q73.25313 139.66092 72.20625 138.55154Q71.175 137.42654 71.175 135.34842Q71.175 134.00467 71.6125 133.00467Q72.06563 131.98904 72.97188 131.48904Q73.89375 130.98904 74.95625 130.98904Q76.31563 130.98904 77.175 131.67654Q78.03438 132.34842 78.26875 133.61404L76.90938 133.81717Q76.70625 132.98904 76.20625 132.56717Q75.72188 132.1453 75.01875 132.1453Q73.95625 132.1453 73.28438 132.91092Q72.62813 133.66092 72.62813 135.31717Q72.62813 136.98904 73.26875 137.75467Q73.90938 138.50467 74.94063 138.50467Q75.76875 138.50467 76.31563 138.00467Q76.87813 137.48904 77.01875 136.42654ZM85.01875 138.44217Q84.2375 139.11404 83.51875 139.3953Q82.8 139.66092 81.97188 139.66092Q80.59688 139.66092 79.8625 138.98904Q79.12813 138.31717 79.12813 137.28592Q79.12813 136.67654 79.40938 136.17654Q79.69063 135.66092 80.12813 135.36404Q80.58125 135.05154 81.14375 134.8953Q81.56563 134.78592 82.39375 134.69217Q84.09688 134.48904 84.90938 134.2078Q84.90938 133.91092 84.90938 133.8328Q84.90938 132.97342 84.51875 132.62967Q83.97188 132.1453 82.90938 132.1453Q81.925 132.1453 81.44063 132.50467Q80.97188 132.84842 80.75313 133.72342L79.37813 133.53592Q79.56563 132.66092 79.9875 132.11404Q80.425 131.56717 81.2375 131.28592Q82.05 130.98904 83.1125 130.98904Q84.175 130.98904 84.83125 131.23904Q85.50313 131.48904 85.81563 131.86404Q86.12813 132.23904 86.25313 132.81717Q86.33125 133.17654 86.33125 134.11404L86.33125 135.98904Q86.33125 137.9578 86.40938 138.47342Q86.50313 138.98904 86.76875 139.47342L85.3 139.47342Q85.08125 139.03592 85.01875 138.44217ZM84.90938 135.30154Q84.14375 135.61404 82.6125 135.8328Q81.7375 135.9578 81.37813 136.11404Q81.01875 136.2703 80.81563 136.5828Q80.62813 136.87967 80.62813 137.23904Q80.62813 137.80154 81.05 138.17654Q81.4875 138.55154 82.3 138.55154Q83.1125 138.55154 83.7375 138.2078Q84.37813 137.84842 84.675 137.22342Q84.90938 136.75467 84.90938 135.81717L84.90938 135.30154ZM88.6125 142.66092L88.6125 131.17654L89.89375 131.17654L89.89375 132.25467Q90.34688 131.61404 90.90938 131.30154Q91.4875 130.98904 92.3 130.98904Q93.3625 130.98904 94.175 131.53592Q94.9875 132.0828 95.39375 133.0828Q95.81563 134.06717 95.81563 135.25467Q95.81563 136.53592 95.34688 137.55154Q94.89375 138.56717 94.01875 139.11404Q93.15938 139.66092 92.19063 139.66092Q91.4875 139.66092 90.925 139.36404Q90.37813 139.06717 90.01875 138.61404L90.01875 142.66092L88.6125 142.66092ZM89.87813 135.36404Q89.87813 136.97342 90.51875 137.73904Q91.175 138.50467 92.09688 138.50467Q93.03438 138.50467 93.70625 137.7078Q94.37813 136.91092 94.37813 135.25467Q94.37813 133.66092 93.72188 132.87967Q93.06563 132.0828 92.15938 132.0828Q91.26875 132.0828 90.56563 132.92654Q89.87813 133.7703 89.87813 135.36404ZM103.28438 136.80154L104.7375 136.97342Q104.39375 138.25467 103.45625 138.9578Q102.53438 139.66092 101.09688 139.66092Q99.26875 139.66092 98.20625 138.53592Q97.14375 137.41092 97.14375 135.3953Q97.14375 133.30154 98.22188 132.1453Q99.3 130.98904 101.01875 130.98904Q102.675 130.98904 103.72188 132.12967Q104.78438 133.25467 104.78438 135.30154Q104.78438 135.42654 104.78438 135.67654L98.59688 135.67654Q98.675 137.05154 99.3625 137.78592Q100.06563 138.50467 101.09688 138.50467Q101.87813 138.50467 102.425 138.09842Q102.97188 137.69217 103.28438 136.80154ZM98.675 134.5203L103.3 134.5203Q103.20625 133.47342 102.76875 132.9578Q102.09688 132.1453 101.03438 132.1453Q100.06563 132.1453 99.39375 132.80154Q98.7375 133.44217 98.675 134.5203Z" fill-rule="nonzero"/><path fill="#9e9e9e" d="M19.221874 158.44217L20.628124 158.25467Q20.878124 159.4578 21.45625 159.98904Q22.034374 160.50467 22.878124 160.50467Q23.8625 160.50467 24.55 159.81717Q25.2375 159.12967 25.2375 158.11404Q25.2375 157.1453 24.596874 156.5203Q23.971874 155.8953 22.9875 155.8953Q22.596874 155.8953 22.003124 156.05154L22.159374 154.81717Q22.3 154.8328 22.378124 154.8328Q23.284374 154.8328 24.003124 154.36404Q24.721874 153.8953 24.721874 152.91092Q24.721874 152.1453 24.190624 151.6453Q23.675 151.12967 22.846874 151.12967Q22.01875 151.12967 21.471874 151.6453Q20.925 152.16092 20.76875 153.19217L19.3625 152.94217Q19.628124 151.5203 20.534374 150.75467Q21.45625 149.97342 22.815624 149.97342Q23.753124 149.97342 24.534374 150.37967Q25.33125 150.7703 25.7375 151.47342Q26.159374 152.16092 26.159374 152.94217Q26.159374 153.69217 25.753124 154.30154Q25.3625 154.91092 24.58125 155.2703Q25.596874 155.50467 26.159374 156.23904Q26.721874 156.97342 26.721874 158.0828Q26.721874 159.5828 25.628124 160.62967Q24.534374 161.67654 22.8625 161.67654Q21.3625 161.67654 20.3625 160.78592Q19.3625 159.87967 19.221874 158.44217ZM28.221874 155.81717Q28.221874 153.78592 28.628124 152.55154Q29.05 151.31717 29.878124 150.6453Q30.70625 149.97342 31.95625 149.97342Q32.878124 149.97342 33.565624 150.34842Q34.26875 150.7078 34.721874 151.41092Q35.175 152.11404 35.425 153.11404Q35.690624 154.11404 35.690624 155.81717Q35.690624 157.8328 35.26875 159.0828Q34.8625 160.31717 34.034374 161.00467Q33.20625 161.67654 31.95625 161.67654Q30.3 161.67654 29.346874 160.47342Q28.221874 159.05154 28.221874 155.81717ZM29.659374 155.81717Q29.659374 158.6453 30.315624 159.5828Q30.9875 160.50467 31.95625 160.50467Q32.925 160.50467 33.58125 159.56717Q34.2375 158.62967 34.2375 155.81717Q34.2375 152.98904 33.58125 152.06717Q32.925 151.12967 31.940624 151.12967Q30.971874 151.12967 30.39375 151.9578Q29.659374 153.00467 29.659374 155.81717ZM38.003124 161.47342L38.003124 159.86404L39.6125 159.86404L39.6125 161.47342L38.003124 161.47342ZM41.221874 158.44217L42.628124 158.25467Q42.878124 159.4578 43.45625 159.98904Q44.034374 160.50467 44.878124 160.50467Q45.8625 160.50467 46.55 159.81717Q47.2375 159.12967 47.2375 158.11404Q47.2375 157.1453 46.596874 156.5203Q45.971874 155.8953 44.9875 155.8953Q44.596874 155.8953 44.003124 156.05154L44.159374 154.81717Q44.3 154.8328 44.378124 154.8328Q45.284374 154.8328 46.003124 154.36404Q46.721874 153.8953 46.721874 152.91092Q46.721874 152.1453 46.190624 151.6453Q45.675 151.12967 44.846874 151.12967Q44.01875 151.12967 43.471874 151.6453Q42.925 152.16092 42.76875 153.19217L41.3625 152.94217Q41.628124 151.5203 42.534374 150.75467Q43.45625 149.97342 44.815624 149.97342Q45.753124 149.97342 46.534374 150.37967Q47.33125 150.7703 47.7375 151.47342Q48.159374 152.16092 48.159374 152.94217Q48.159374 153.69217 47.753124 154.30154Q47.3625 154.91092 46.58125 155.2703Q47.596874 155.50467 48.159374 156.23904Q48.721874 156.97342 48.721874 158.0828Q48.721874 159.5828 47.628124 160.62967Q46.534374 161.67654 44.8625 161.67654Q43.3625 161.67654 42.3625 160.78592Q41.3625 159.87967 41.221874 158.44217ZM50.4875 152.7703Q50.4875 151.53592 51.096874 150.67654Q51.721874 149.81717 52.89375 149.81717Q53.971874 149.81717 54.675 150.59842Q55.378124 151.36404 55.378124 152.84842Q55.378124 154.30154 54.659374 155.09842Q53.95625 155.87967 52.909374 155.87967Q51.8625 155.87967 51.175 155.11404Q50.4875 154.3328 50.4875 152.7703ZM52.925 150.78592Q52.409374 150.78592 52.05 151.23904Q51.70625 151.69217 51.70625 152.91092Q51.70625 154.00467 52.05 154.4578Q52.409374 154.91092 52.925 154.91092Q53.45625 154.91092 53.8 154.4578Q54.159374 154.00467 54.159374 152.80154Q54.159374 151.69217 53.8 151.23904Q53.45625 150.78592 52.925 150.78592ZM52.940624 161.8953L59.20625 149.81717L60.346874 149.81717L54.096874 161.8953L52.940624 161.8953ZM57.89375 158.78592Q57.89375 157.55154 58.503124 156.69217Q59.128124 155.8328 60.3 155.8328Q61.378124 155.8328 62.08125 156.61404Q62.8 157.37967 62.8 158.86404Q62.8 160.31717 62.08125 161.11404Q61.3625 161.8953 60.315624 161.8953Q59.26875 161.8953 58.58125 161.11404Q57.89375 160.3328 57.89375 158.78592ZM60.346874 156.80154Q59.815624 156.80154 59.45625 157.25467Q59.1125 157.7078 59.1125 158.92654Q59.1125 160.0203 59.45625 160.47342Q59.815624 160.92654 60.33125 160.92654Q60.878124 160.92654 61.221874 160.47342Q61.565624 160.0203 61.565624 158.81717Q61.565624 157.7078 61.20625 157.25467Q60.8625 156.80154 60.346874 156.80154Z" fill-rule="nonzero"/><path stroke="#757575" stroke-width="1.0" stroke-linecap="butt" d="M18.55 144.97342L145.23334 144.97342L171.44322 144.97342" fill-rule="nonzero"/><path fill="#9e9e9e" d="M173.44322 144.97342C173.44322 143.86885 172.54779 142.97342 171.44322 142.97342C170.33865 142.97342 169.44322 143.86885 169.44322 144.97342C169.44322 146.07799 170.33865 146.97342 171.44322 146.97342C172.54779 146.97342 173.44322 146.07799 173.44322 144.97342" fill-rule="nonzero"/><path fill="#efefef" d="M498.6844 69.916664L498.6844 58.46354L503.0125 58.46354Q504.15314 58.46354 504.7469 58.572914Q505.59064 58.71354 506.15314 59.104164Q506.73126 59.49479 507.075 60.21354Q507.4344 60.916664 507.4344 61.77604Q507.4344 63.229164 506.4969 64.24479Q505.575 65.260414 503.1375 65.260414L500.2 65.260414L500.2 69.916664L498.6844 69.916664ZM500.2 63.90104L503.16876 63.90104Q504.6375 63.90104 505.2469 63.354164Q505.8719 62.80729 505.8719 61.822914Q505.8719 61.104164 505.4969 60.58854Q505.1375 60.072914 504.54376 59.916664Q504.16876 59.80729 503.1375 59.80729L500.2 59.80729L500.2 63.90104ZM515.1844 67.24479L516.6375 67.416664Q516.29376 68.697914 515.35626 69.40104Q514.4344 70.104164 512.9969 70.104164Q511.16876 70.104164 510.10626 68.979164Q509.04376 67.854164 509.04376 65.83854Q509.04376 63.74479 510.1219 62.58854Q511.2 61.43229 512.91876 61.43229Q514.575 61.43229 515.6219 62.572914Q516.6844 63.697914 516.6844 65.74479Q516.6844 65.86979 516.6844 66.11979L510.4969 66.11979Q510.575 67.49479 511.2625 68.229164Q511.96564 68.947914 512.9969 68.947914Q513.77814 68.947914 514.325 68.541664Q514.8719 68.135414 515.1844 67.24479ZM510.575 64.96354L515.2 64.96354Q515.10626 63.916664 514.66876 63.40104Q513.9969 62.58854 512.9344 62.58854Q511.96564 62.58854 511.29376 63.24479Q510.6375 63.885414 510.575 64.96354ZM518.4969 69.916664L518.4969 61.61979L519.7625 61.61979L519.7625 62.86979Q520.2469 61.99479 520.65314 61.71354Q521.0594 61.43229 521.5594 61.43229Q522.2625 61.43229 522.9969 61.885414L522.5125 63.18229Q521.9969 62.885414 521.48126 62.885414Q521.02814 62.885414 520.65314 63.166664Q520.29376 63.43229 520.1375 63.93229Q519.90314 64.68229 519.90314 65.572914L519.90314 69.916664L518.4969 69.916664ZM522.95 67.43229L524.34064 67.21354Q524.45 68.05729 524.98126 68.510414Q525.52814 68.947914 526.48126 68.947914Q527.45 68.947914 527.91876 68.55729Q528.3875 68.15104 528.3875 67.61979Q528.3875 67.15104 527.98126 66.86979Q527.6844 66.68229 526.54376 66.40104Q524.9969 66.010414 524.3875 65.729164Q523.79376 65.43229 523.48126 64.93229Q523.1844 64.43229 523.1844 63.822914Q523.1844 63.260414 523.4344 62.791664Q523.6844 62.322914 524.1219 62.010414Q524.45 61.760414 525.0125 61.604164Q525.59064 61.43229 526.23126 61.43229Q527.21564 61.43229 527.95 61.71354Q528.6844 61.99479 529.02814 62.479164Q529.3875 62.947914 529.52814 63.760414L528.15314 63.947914Q528.0594 63.30729 527.60626 62.947914Q527.15314 62.58854 526.34064 62.58854Q525.3719 62.58854 524.95 62.916664Q524.54376 63.229164 524.54376 63.65104Q524.54376 63.93229 524.71564 64.15104Q524.8875 64.36979 525.2469 64.52604Q525.46564 64.604164 526.4969 64.885414Q527.98126 65.27604 528.575 65.541664Q529.16876 65.791664 529.4969 66.27604Q529.84064 66.760414 529.84064 67.479164Q529.84064 68.18229 529.41876 68.80729Q529.0125 69.416664 528.23126 69.760414Q527.46564 70.104164 526.4969 70.104164Q524.8719 70.104164 524.02814 69.43229Q523.1844 68.760414 522.95 67.43229ZM531.5125 73.104164L531.5125 61.61979L532.79376 61.61979L532.79376 62.697914Q533.2469 62.05729 533.8094 61.74479Q534.3875 61.43229 535.2 61.43229Q536.2625 61.43229 537.075 61.979164Q537.8875 62.52604 538.29376 63.52604Q538.71564 64.510414 538.71564 65.697914Q538.71564 66.979164 538.2469 67.99479Q537.79376 69.010414 536.91876 69.55729Q536.0594 70.104164 535.09064 70.104164Q534.3875 70.104164 533.825 69.80729Q533.27814 69.510414 532.91876 69.05729L532.91876 73.104164L531.5125 73.104164ZM532.77814 65.80729Q532.77814 67.416664 533.41876 68.18229Q534.075 68.947914 534.9969 68.947914Q535.9344 68.947914 536.60626 68.15104Q537.27814 67.354164 537.27814 65.697914Q537.27814 64.104164 536.6219 63.322914Q535.96564 62.52604 535.0594 62.52604Q534.16876 62.52604 533.46564 63.36979Q532.77814 64.21354 532.77814 65.80729ZM546.1844 67.24479L547.6375 67.416664Q547.29376 68.697914 546.35626 69.40104Q545.4344 70.104164 543.9969 70.104164Q542.16876 70.104164 541.10626 68.979164Q540.04376 67.854164 540.04376 65.83854Q540.04376 63.74479 541.1219 62.58854Q542.2 61.43229 543.91876 61.43229Q545.575 61.43229 546.6219 62.572914Q547.6844 63.697914 547.6844 65.74479Q547.6844 65.86979 547.6844 66.11979L541.4969 66.11979Q541.575 67.49479 542.2625 68.229164Q542.96564 68.947914 543.9969 68.947914Q544.77814 68.947914 545.325 68.541664Q545.8719 68.135414 546.1844 67.24479ZM541.575 64.96354L546.2 64.96354Q546.10626 63.916664 545.66876 63.40104Q544.9969 62.58854 543.9344 62.58854Q542.96564 62.58854 542.29376 63.24479Q541.6375 63.885414 541.575 64.96354ZM554.91876 66.86979L556.3094 67.05729Q556.075 68.479164 555.1375 69.291664Q554.21564 70.104164 552.85626 70.104164Q551.15314 70.104164 550.10626 68.99479Q549.075 67.86979 549.075 65.791664Q549.075 64.447914 549.5125 63.447914Q549.96564 62.43229 550.8719 61.93229Q551.79376 61.43229 552.85626 61.43229Q554.21564 61.43229 555.075 62.11979Q555.9344 62.791664 556.16876 64.05729L554.8094 64.260414Q554.60626 63.43229 554.10626 63.010414Q553.6219 62.58854 552.91876 62.58854Q551.85626 62.58854 551.1844 63.354164Q550.52814 64.104164 550.52814 65.760414Q550.52814 67.43229 551.16876 68.197914Q551.8094 68.947914 552.84064 68.947914Q553.66876 68.947914 554.21564 68.447914Q554.77814 67.93229 554.91876 66.86979ZM560.575 68.65104L560.77814 69.90104Q560.1844 70.02604 559.71564 70.02604Q558.95 70.02604 558.52814 69.791664Q558.10626 69.541664 557.9344 69.15104Q557.7625 68.74479 557.7625 67.479164L557.7625 62.71354L556.73126 62.71354L556.73126 61.61979L557.7625 61.61979L557.7625 59.55729L559.16876 58.71354L559.16876 61.61979L560.575 61.61979L560.575 62.71354L559.16876 62.71354L559.16876 67.55729Q559.16876 68.166664 559.23126 68.33854Q559.3094 68.510414 559.48126 68.61979Q559.65314 68.71354 559.96564 68.71354Q560.2 68.71354 560.575 68.65104ZM561.5125 60.072914L561.5125 58.46354L562.91876 58.46354L562.91876 60.072914L561.5125 60.072914ZM561.5125 69.916664L561.5125 61.61979L562.91876 61.61979L562.91876 69.916664L561.5125 69.916664ZM567.8094 69.916664L564.65314 61.61979L566.1375 61.61979L567.91876 66.58854Q568.21564 67.385414 568.45 68.260414Q568.6375 67.604164 568.98126 66.68229L570.825 61.61979L572.2625 61.61979L569.1219 69.916664L567.8094 69.916664ZM579.1844 67.24479L580.6375 67.416664Q580.29376 68.697914 579.35626 69.40104Q578.4344 70.104164 576.9969 70.104164Q575.16876 70.104164 574.10626 68.979164Q573.04376 67.854164 573.04376 65.83854Q573.04376 63.74479 574.1219 62.58854Q575.2 61.43229 576.91876 61.43229Q578.575 61.43229 579.6219 62.572914Q580.6844 63.697914 580.6844 65.74479Q580.6844 65.86979 580.6844 66.11979L574.4969 66.11979Q574.575 67.49479 575.2625 68.229164Q575.96564 68.947914 576.9969 68.947914Q577.77814 68.947914 578.325 68.541664Q578.8719 68.135414 579.1844 67.24479ZM574.575 64.96354L579.2 64.96354Q579.10626 63.916664 578.66876 63.40104Q577.9969 62.58854 576.9344 62.58854Q575.96564 62.58854 575.29376 63.24479Q574.6375 63.885414 574.575 64.96354Z" fill-rule="nonzero"/><path fill="#9e9e9e" d="M542.41876 91.916664L541.0125 91.916664L541.0125 82.947914Q540.4969 83.43229 539.66876 83.916664Q538.85626 84.40104 538.2 84.65104L538.2 83.291664Q539.3719 82.729164 540.2469 81.947914Q541.1375 81.15104 541.5125 80.416664L542.41876 80.416664L542.41876 91.916664ZM553.5125 90.55729L553.5125 91.916664L545.9344 91.916664Q545.91876 91.40104 546.10626 90.93229Q546.3875 90.166664 547.02814 89.416664Q547.66876 88.666664 548.8719 87.68229Q550.73126 86.15104 551.3875 85.260414Q552.04376 84.354164 552.04376 83.55729Q552.04376 82.729164 551.45 82.15104Q550.85626 81.572914 549.8875 81.572914Q548.8719 81.572914 548.2625 82.18229Q547.65314 82.791664 547.65314 83.86979L546.2 83.729164Q546.35626 82.104164 547.325 81.260414Q548.29376 80.416664 549.91876 80.416664Q551.575 80.416664 552.52814 81.33854Q553.4969 82.24479 553.4969 83.58854Q553.4969 84.27604 553.21564 84.947914Q552.9344 85.604164 552.27814 86.33854Q551.6219 87.072914 550.10626 88.354164Q548.84064 89.416664 548.48126 89.80729Q548.1219 90.18229 547.8875 90.55729L553.5125 90.55729ZM555.90314 91.916664L555.90314 90.30729L557.5125 90.30729L557.5125 91.916664L555.90314 91.916664ZM564.41876 91.916664L563.0125 91.916664L563.0125 82.947914Q562.4969 83.43229 561.66876 83.916664Q560.85626 84.40104 560.2 84.65104L560.2 83.291664Q561.3719 82.729164 562.2469 81.947914Q563.1375 81.15104 563.5125 80.416664L564.41876 80.416664L564.41876 91.916664ZM568.3875 83.21354Q568.3875 81.979164 568.9969 81.11979Q569.6219 80.260414 570.79376 80.260414Q571.8719 80.260414 572.575 81.041664Q573.27814 81.80729 573.27814 83.291664Q573.27814 84.74479 572.5594 85.541664Q571.85626 86.322914 570.8094 86.322914Q569.7625 86.322914 569.075 85.55729Q568.3875 84.77604 568.3875 83.21354ZM570.825 81.229164Q570.3094 81.229164 569.95 81.68229Q569.60626 82.135414 569.60626 83.354164Q569.60626 84.447914 569.95 84.90104Q570.3094 85.354164 570.825 85.354164Q571.35626 85.354164 571.7 84.90104Q572.0594 84.447914 572.0594 83.24479Q572.0594 82.135414 571.7 81.68229Q571.35626 81.229164 570.825 81.229164ZM570.84064 92.33854L577.10626 80.260414L578.2469 80.260414L571.9969 92.33854L570.84064 92.33854ZM575.79376 89.229164Q575.79376 87.99479 576.40314 87.135414Q577.02814 86.27604 578.2 86.27604Q579.27814 86.27604 579.98126 87.05729Q580.7 87.822914 580.7 89.30729Q580.7 90.760414 579.98126 91.55729Q579.2625 92.33854 578.21564 92.33854Q577.16876 92.33854 576.48126 91.55729Q575.79376 90.77604 575.79376 89.229164ZM578.2469 87.24479Q577.71564 87.24479 577.35626 87.697914Q577.0125 88.15104 577.0125 89.36979Q577.0125 90.46354 577.35626 90.916664Q577.71564 91.36979 578.23126 91.36979Q578.77814 91.36979 579.1219 90.916664Q579.46564 90.46354 579.46564 89.260414Q579.46564 88.15104 579.10626 87.697914Q578.7625 87.24479 578.2469 87.24479Z" fill-rule="nonzero"/><path stroke="#757575" stroke-width="1.0" stroke-linecap="butt" d="M581.45 75.416664L454.76666 75.416664L352.52643 72.47864" fill-rule="nonzero"/><path fill="#9e9e9e" d="M354.52643 72.47864C354.52643 71.37407 353.631 70.47864 352.52643 70.47864C351.42188 70.47864 350.52643 71.37407 350.52643 72.47864C350.52643 73.58321 351.42188 74.47864 352.52643 74.47864C353.631 74.47864 354.52643 73.58321 354.52643 72.47864" fill-rule="nonzero"/><path fill="#efefef" d="M531.6844 178.07022L531.6844 166.6171L536.0125 166.6171Q537.15314 166.6171 537.7469 166.72647Q538.59064 166.8671 539.15314 167.25772Q539.73126 167.64835 540.075 168.3671Q540.4344 169.07022 540.4344 169.9296Q540.4344 171.38272 539.4969 172.39835Q538.575 173.41397 536.1375 173.41397L533.2 173.41397L533.2 178.07022L531.6844 178.07022ZM533.2 172.0546L536.16876 172.0546Q537.6375 172.0546 538.2469 171.50772Q538.8719 170.96085 538.8719 169.97647Q538.8719 169.25772 538.4969 168.7421Q538.1375 168.22647 537.54376 168.07022Q537.16876 167.96085 536.1375 167.96085L533.2 167.96085L533.2 172.0546ZM548.1844 175.39835L549.6375 175.57022Q549.29376 176.85147 548.35626 177.5546Q547.4344 178.25772 545.9969 178.25772Q544.16876 178.25772 543.10626 177.13272Q542.04376 176.00772 542.04376 173.9921Q542.04376 171.89835 543.1219 170.7421Q544.2 169.58585 545.91876 169.58585Q547.575 169.58585 548.6219 170.72647Q549.6844 171.85147 549.6844 173.89835Q549.6844 174.02335 549.6844 174.27335L543.4969 174.27335Q543.575 175.64835 544.2625 176.38272Q544.96564 177.10147 545.9969 177.10147Q546.77814 177.10147 547.325 176.69522Q547.8719 176.28897 548.1844 175.39835ZM543.575 173.1171L548.2 173.1171Q548.10626 172.07022 547.66876 171.5546Q546.9969 170.7421 545.9344 170.7421Q544.96564 170.7421 544.29376 171.39835Q543.6375 172.03897 543.575 173.1171ZM550.98126 173.91397Q550.98126 171.6171 552.2625 170.50772Q553.34064 169.58585 554.8719 169.58585Q556.59064 169.58585 557.66876 170.71085Q558.7625 171.82022 558.7625 173.8046Q558.7625 175.39835 558.27814 176.32022Q557.79376 177.2421 556.8719 177.75772Q555.96564 178.25772 554.8719 178.25772Q553.1375 178.25772 552.0594 177.14835Q550.98126 176.02335 550.98126 173.91397ZM552.4344 173.91397Q552.4344 175.50772 553.1219 176.3046Q553.825 177.10147 554.8719 177.10147Q555.91876 177.10147 556.60626 176.3046Q557.3094 175.50772 557.3094 173.8671Q557.3094 172.33585 556.60626 171.53897Q555.91876 170.7421 554.8719 170.7421Q553.825 170.7421 553.1219 171.53897Q552.4344 172.32022 552.4344 173.91397ZM560.5125 181.25772L560.5125 169.77335L561.79376 169.77335L561.79376 170.85147Q562.2469 170.21085 562.8094 169.89835Q563.3875 169.58585 564.2 169.58585Q565.2625 169.58585 566.075 170.13272Q566.8875 170.6796 567.29376 171.6796Q567.71564 172.66397 567.71564 173.85147Q567.71564 175.13272 567.2469 176.14835Q566.79376 177.16397 565.91876 177.71085Q565.0594 178.25772 564.09064 178.25772Q563.3875 178.25772 562.825 177.96085Q562.27814 177.66397 561.91876 177.21085L561.91876 181.25772L560.5125 181.25772ZM561.77814 173.96085Q561.77814 175.57022 562.41876 176.33585Q563.075 177.10147 563.9969 177.10147Q564.9344 177.10147 565.60626 176.3046Q566.27814 175.50772 566.27814 173.85147Q566.27814 172.25772 565.6219 171.47647Q564.96564 170.6796 564.0594 170.6796Q563.16876 170.6796 562.46564 171.52335Q561.77814 172.3671 561.77814 173.96085ZM569.48126 178.07022L569.48126 166.6171L570.8875 166.6171L570.8875 178.07022L569.48126 178.07022ZM579.1844 175.39835L580.6375 175.57022Q580.29376 176.85147 579.35626 177.5546Q578.4344 178.25772 576.9969 178.25772Q575.16876 178.25772 574.10626 177.13272Q573.04376 176.00772 573.04376 173.9921Q573.04376 171.89835 574.1219 170.7421Q575.2 169.58585 576.91876 169.58585Q578.575 169.58585 579.6219 170.72647Q580.6844 171.85147 580.6844 173.89835Q580.6844 174.02335 580.6844 174.27335L574.4969 174.27335Q574.575 175.64835 575.2625 176.38272Q575.96564 177.10147 576.9969 177.10147Q577.77814 177.10147 578.325 176.69522Q578.8719 176.28897 579.1844 175.39835ZM574.575 173.1171L579.2 173.1171Q579.10626 172.07022 578.66876 171.5546Q577.9969 170.7421 576.9344 170.7421Q575.96564 170.7421 575.29376 171.39835Q574.6375 172.03897 574.575 173.1171Z" fill-rule="nonzero"/><path fill="#9e9e9e" d="M544.5125 198.71085L544.5125 200.07022L536.9344 200.07022Q536.91876 199.5546 537.10626 199.08585Q537.3875 198.32022 538.02814 197.57022Q538.66876 196.82022 539.8719 195.83585Q541.73126 194.3046 542.3875 193.41397Q543.04376 192.50772 543.04376 191.71085Q543.04376 190.88272 542.45 190.3046Q541.85626 189.72647 540.8875 189.72647Q539.8719 189.72647 539.2625 190.33585Q538.65314 190.94522 538.65314 192.02335L537.2 191.88272Q537.35626 190.25772 538.325 189.41397Q539.29376 188.57022 540.91876 188.57022Q542.575 188.57022 543.52814 189.4921Q544.4969 190.39835 544.4969 191.7421Q544.4969 192.4296 544.21564 193.10147Q543.9344 193.75772 543.27814 194.4921Q542.6219 195.22647 541.10626 196.50772Q539.84064 197.57022 539.48126 197.96085Q539.1219 198.33585 538.8875 198.71085L544.5125 198.71085ZM551.41876 200.07022L550.0125 200.07022L550.0125 191.10147Q549.4969 191.58585 548.66876 192.07022Q547.85626 192.5546 547.2 192.8046L547.2 191.44522Q548.3719 190.88272 549.2469 190.10147Q550.1375 189.3046 550.5125 188.57022L551.41876 188.57022L551.41876 200.07022ZM555.90314 200.07022L555.90314 198.46085L557.5125 198.46085L557.5125 200.07022L555.90314 200.07022ZM566.5125 198.71085L566.5125 200.07022L558.9344 200.07022Q558.91876 199.5546 559.10626 199.08585Q559.3875 198.32022 560.02814 197.57022Q560.66876 196.82022 561.8719 195.83585Q563.73126 194.3046 564.3875 193.41397Q565.04376 192.50772 565.04376 191.71085Q565.04376 190.88272 564.45 190.3046Q563.85626 189.72647 562.8875 189.72647Q561.8719 189.72647 561.2625 190.33585Q560.65314 190.94522 560.65314 192.02335L559.2 191.88272Q559.35626 190.25772 560.325 189.41397Q561.29376 188.57022 562.91876 188.57022Q564.575 188.57022 565.52814 189.4921Q566.4969 190.39835 566.4969 191.7421Q566.4969 192.4296 566.21564 193.10147Q565.9344 193.75772 565.27814 194.4921Q564.6219 195.22647 563.10626 196.50772Q561.84064 197.57022 561.48126 197.96085Q561.1219 198.33585 560.8875 198.71085L566.5125 198.71085ZM568.3875 191.3671Q568.3875 190.13272 568.9969 189.27335Q569.6219 188.41397 570.79376 188.41397Q571.8719 188.41397 572.575 189.19522Q573.27814 189.96085 573.27814 191.44522Q573.27814 192.89835 572.5594 193.69522Q571.85626 194.47647 570.8094 194.47647Q569.7625 194.47647 569.075 193.71085Q568.3875 192.9296 568.3875 191.3671ZM570.825 189.38272Q570.3094 189.38272 569.95 189.83585Q569.60626 190.28897 569.60626 191.50772Q569.60626 192.60147 569.95 193.0546Q570.3094 193.50772 570.825 193.50772Q571.35626 193.50772 571.7 193.0546Q572.0594 192.60147 572.0594 191.39835Q572.0594 190.28897 571.7 189.83585Q571.35626 189.38272 570.825 189.38272ZM570.84064 200.4921L577.10626 188.41397L578.2469 188.41397L571.9969 200.4921L570.84064 200.4921ZM575.79376 197.38272Q575.79376 196.14835 576.40314 195.28897Q577.02814 194.4296 578.2 194.4296Q579.27814 194.4296 579.98126 195.21085Q580.7 195.97647 580.7 197.46085Q580.7 198.91397 579.98126 199.71085Q579.2625 200.4921 578.21564 200.4921Q577.16876 200.4921 576.48126 199.71085Q575.79376 198.9296 575.79376 197.38272ZM578.2469 195.39835Q577.71564 195.39835 577.35626 195.85147Q577.0125 196.3046 577.0125 197.52335Q577.0125 198.6171 577.35626 199.07022Q577.71564 199.52335 578.23126 199.52335Q578.77814 199.52335 579.1219 199.07022Q579.46564 198.6171 579.46564 197.41397Q579.46564 196.3046 579.10626 195.85147Q578.7625 195.39835 578.2469 195.39835Z" fill-rule="nonzero"/><path stroke="#757575" stroke-width="1.0" stroke-linecap="butt" d="M581.45 183.57022L454.76666 183.57022L439.8898 183.57022" fill-rule="nonzero"/><path fill="#9e9e9e" d="M441.8898 183.57022C441.8898 182.46565 440.9944 181.57022 439.8898 181.57022C438.78525 181.57022 437.8898 182.46565 437.8898 183.57022C437.8898 184.67479 438.78525 185.57022 439.8898 185.57022C440.9944 185.57022 441.8898 184.67479 441.8898 183.57022" fill-rule="nonzero"/><path fill="#efefef" d="M491.66876 326.45L491.66876 314.9969L493.23126 314.9969L499.2469 323.98126L499.2469 314.9969L500.7 314.9969L500.7 326.45L499.1375 326.45L493.1219 317.45L493.1219 326.45L491.66876 326.45ZM508.91876 325.41876Q508.1375 326.09064 507.41876 326.3719Q506.7 326.6375 505.8719 326.6375Q504.4969 326.6375 503.7625 325.96564Q503.02814 325.29376 503.02814 324.2625Q503.02814 323.65314 503.3094 323.15314Q503.59064 322.6375 504.02814 322.34064Q504.48126 322.02814 505.04376 321.8719Q505.46564 321.7625 506.29376 321.66876Q507.9969 321.46564 508.8094 321.1844Q508.8094 320.8875 508.8094 320.8094Q508.8094 319.95 508.41876 319.60626Q507.8719 319.1219 506.8094 319.1219Q505.825 319.1219 505.34064 319.48126Q504.8719 319.825 504.65314 320.7L503.27814 320.5125Q503.46564 319.6375 503.8875 319.09064Q504.325 318.54376 505.1375 318.2625Q505.95 317.96564 507.0125 317.96564Q508.075 317.96564 508.73126 318.21564Q509.40314 318.46564 509.71564 318.84064Q510.02814 319.21564 510.15314 319.79376Q510.23126 320.15314 510.23126 321.09064L510.23126 322.96564Q510.23126 324.9344 510.3094 325.45Q510.40314 325.96564 510.66876 326.45L509.2 326.45Q508.98126 326.0125 508.91876 325.41876ZM508.8094 322.27814Q508.04376 322.59064 506.5125 322.8094Q505.6375 322.9344 505.27814 323.09064Q504.91876 323.2469 504.71564 323.5594Q504.52814 323.85626 504.52814 324.21564Q504.52814 324.77814 504.95 325.15314Q505.3875 325.52814 506.2 325.52814Q507.0125 325.52814 507.6375 325.1844Q508.27814 324.825 508.575 324.2Q508.8094 323.73126 508.8094 322.79376L508.8094 322.27814ZM515.575 325.1844L515.77814 326.4344Q515.1844 326.5594 514.71564 326.5594Q513.95 326.5594 513.52814 326.325Q513.10626 326.075 512.9344 325.6844Q512.7625 325.27814 512.7625 324.0125L512.7625 319.2469L511.73126 319.2469L511.73126 318.15314L512.7625 318.15314L512.7625 316.09064L514.16876 315.2469L514.16876 318.15314L515.575 318.15314L515.575 319.2469L514.16876 319.2469L514.16876 324.09064Q514.16876 324.7 514.23126 324.8719Q514.3094 325.04376 514.48126 325.15314Q514.65314 325.2469 514.96564 325.2469Q515.2 325.2469 515.575 325.1844ZM521.95 326.45L521.95 325.23126Q520.98126 326.6375 519.3094 326.6375Q518.575 326.6375 517.9344 326.35626Q517.3094 326.075 516.9969 325.65314Q516.6844 325.21564 516.5594 324.60626Q516.48126 324.1844 516.48126 323.29376L516.48126 318.15314L517.8875 318.15314L517.8875 322.7469Q517.8875 323.85626 517.96564 324.23126Q518.10626 324.79376 518.52814 325.10626Q518.96564 325.41876 519.59064 325.41876Q520.23126 325.41876 520.77814 325.10626Q521.34064 324.77814 521.5594 324.21564Q521.79376 323.65314 521.79376 322.59064L521.79376 318.15314L523.2 318.15314L523.2 326.45L521.95 326.45ZM525.4969 326.45L525.4969 318.15314L526.7625 318.15314L526.7625 319.40314Q527.2469 318.52814 527.65314 318.2469Q528.0594 317.96564 528.5594 317.96564Q529.2625 317.96564 529.9969 318.41876L529.5125 319.71564Q528.9969 319.41876 528.48126 319.41876Q528.02814 319.41876 527.65314 319.7Q527.29376 319.96564 527.1375 320.46564Q526.90314 321.21564 526.90314 322.10626L526.90314 326.45L525.4969 326.45ZM536.1844 323.77814L537.6375 323.95Q537.29376 325.23126 536.35626 325.9344Q535.4344 326.6375 533.9969 326.6375Q532.16876 326.6375 531.10626 325.5125Q530.04376 324.3875 530.04376 322.3719Q530.04376 320.27814 531.1219 319.1219Q532.2 317.96564 533.91876 317.96564Q535.575 317.96564 536.6219 319.10626Q537.6844 320.23126 537.6844 322.27814Q537.6844 322.40314 537.6844 322.65314L531.4969 322.65314Q531.575 324.02814 532.2625 324.7625Q532.96564 325.48126 533.9969 325.48126Q534.77814 325.48126 535.325 325.075Q535.8719 324.66876 536.1844 323.77814ZM531.575 321.4969L536.2 321.4969Q536.10626 320.45 535.66876 319.9344Q534.9969 319.1219 533.9344 319.1219Q532.96564 319.1219 532.29376 319.77814Q531.6375 320.41876 531.575 321.4969ZM538.95 323.96564L540.34064 323.7469Q540.45 324.59064 540.98126 325.04376Q541.52814 325.48126 542.48126 325.48126Q543.45 325.48126 543.91876 325.09064Q544.3875 324.6844 544.3875 324.15314Q544.3875 323.6844 543.98126 323.40314Q543.6844 323.21564 542.54376 322.9344Q540.9969 322.54376 540.3875 322.2625Q539.79376 321.96564 539.48126 321.46564Q539.1844 320.96564 539.1844 320.35626Q539.1844 319.79376 539.4344 319.325Q539.6844 318.85626 540.1219 318.54376Q540.45 318.29376 541.0125 318.1375Q541.59064 317.96564 542.23126 317.96564Q543.21564 317.96564 543.95 318.2469Q544.6844 318.52814 545.02814 319.0125Q545.3875 319.48126 545.52814 320.29376L544.15314 320.48126Q544.0594 319.84064 543.60626 319.48126Q543.15314 319.1219 542.34064 319.1219Q541.3719 319.1219 540.95 319.45Q540.54376 319.7625 540.54376 320.1844Q540.54376 320.46564 540.71564 320.6844Q540.8875 320.90314 541.2469 321.0594Q541.46564 321.1375 542.4969 321.41876Q543.98126 321.8094 544.575 322.075Q545.16876 322.325 545.4969 322.8094Q545.84064 323.29376 545.84064 324.0125Q545.84064 324.71564 545.41876 325.34064Q545.0125 325.95 544.23126 326.29376Q543.46564 326.6375 542.4969 326.6375Q540.8719 326.6375 540.02814 325.96564Q539.1844 325.29376 538.95 323.96564ZM552.91876 323.40314L554.3094 323.59064Q554.075 325.0125 553.1375 325.825Q552.21564 326.6375 550.85626 326.6375Q549.15314 326.6375 548.10626 325.52814Q547.075 324.40314 547.075 322.325Q547.075 320.98126 547.5125 319.98126Q547.96564 318.96564 548.8719 318.46564Q549.79376 317.96564 550.85626 317.96564Q552.21564 317.96564 553.075 318.65314Q553.9344 319.325 554.16876 320.59064L552.8094 320.79376Q552.60626 319.96564 552.10626 319.54376Q551.6219 319.1219 550.91876 319.1219Q549.85626 319.1219 549.1844 319.8875Q548.52814 320.6375 548.52814 322.29376Q548.52814 323.96564 549.16876 324.73126Q549.8094 325.48126 550.84064 325.48126Q551.66876 325.48126 552.21564 324.98126Q552.77814 324.46564 552.91876 323.40314ZM560.91876 325.41876Q560.1375 326.09064 559.41876 326.3719Q558.7 326.6375 557.8719 326.6375Q556.4969 326.6375 555.7625 325.96564Q555.02814 325.29376 555.02814 324.2625Q555.02814 323.65314 555.3094 323.15314Q555.59064 322.6375 556.02814 322.34064Q556.48126 322.02814 557.04376 321.8719Q557.46564 321.7625 558.29376 321.66876Q559.9969 321.46564 560.8094 321.1844Q560.8094 320.8875 560.8094 320.8094Q560.8094 319.95 560.41876 319.60626Q559.8719 319.1219 558.8094 319.1219Q557.825 319.1219 557.34064 319.48126Q556.8719 319.825 556.65314 320.7L555.27814 320.5125Q555.46564 319.6375 555.8875 319.09064Q556.325 318.54376 557.1375 318.2625Q557.95 317.96564 559.0125 317.96564Q560.075 317.96564 560.73126 318.21564Q561.40314 318.46564 561.71564 318.84064Q562.02814 319.21564 562.15314 319.79376Q562.23126 320.15314 562.23126 321.09064L562.23126 322.96564Q562.23126 324.9344 562.3094 325.45Q562.40314 325.96564 562.66876 326.45L561.2 326.45Q560.98126 326.0125 560.91876 325.41876ZM560.8094 322.27814Q560.04376 322.59064 558.5125 322.8094Q557.6375 322.9344 557.27814 323.09064Q556.91876 323.2469 556.71564 323.5594Q556.52814 323.85626 556.52814 324.21564Q556.52814 324.77814 556.95 325.15314Q557.3875 325.52814 558.2 325.52814Q559.0125 325.52814 559.6375 325.1844Q560.27814 324.825 560.575 324.2Q560.8094 323.73126 560.8094 322.79376L560.8094 322.27814ZM564.5125 329.6375L564.5125 318.15314L565.79376 318.15314L565.79376 319.23126Q566.2469 318.59064 566.8094 318.27814Q567.3875 317.96564 568.2 317.96564Q569.2625 317.96564 570.075 318.5125Q570.8875 319.0594 571.29376 320.0594Q571.71564 321.04376 571.71564 322.23126Q571.71564 323.5125 571.2469 324.52814Q570.79376 325.54376 569.91876 326.09064Q569.0594 326.6375 568.09064 326.6375Q567.3875 326.6375 566.825 326.34064Q566.27814 326.04376 565.91876 325.59064L565.91876 329.6375L564.5125 329.6375ZM565.77814 322.34064Q565.77814 323.95 566.41876 324.71564Q567.075 325.48126 567.9969 325.48126Q568.9344 325.48126 569.60626 324.6844Q570.27814 323.8875 570.27814 322.23126Q570.27814 320.6375 569.6219 319.85626Q568.96564 319.0594 568.0594 319.0594Q567.16876 319.0594 566.46564 319.90314Q565.77814 320.7469 565.77814 322.34064ZM579.1844 323.77814L580.6375 323.95Q580.29376 325.23126 579.35626 325.9344Q578.4344 326.6375 576.9969 326.6375Q575.16876 326.6375 574.10626 325.5125Q573.04376 324.3875 573.04376 322.3719Q573.04376 320.27814 574.1219 319.1219Q575.2 317.96564 576.91876 317.96564Q578.575 317.96564 579.6219 319.10626Q580.6844 320.23126 580.6844 322.27814Q580.6844 322.40314 580.6844 322.65314L574.4969 322.65314Q574.575 324.02814 575.2625 324.7625Q575.96564 325.48126 576.9969 325.48126Q577.77814 325.48126 578.325 325.075Q578.8719 324.66876 579.1844 323.77814ZM574.575 321.4969L579.2 321.4969Q579.10626 320.45 578.66876 319.9344Q577.9969 319.1219 576.9344 319.1219Q575.96564 319.1219 575.29376 319.77814Q574.6375 320.41876 574.575 321.4969Z" fill-rule="nonzero"/><path fill="#9e9e9e" d="M537.1219 345.41876L538.52814 345.23126Q538.77814 346.4344 539.35626 346.96564Q539.9344 347.48126 540.77814 347.48126Q541.7625 347.48126 542.45 346.79376Q543.1375 346.10626 543.1375 345.09064Q543.1375 344.1219 542.4969 343.4969Q541.8719 342.8719 540.8875 342.8719Q540.4969 342.8719 539.90314 343.02814L540.0594 341.79376Q540.2 341.8094 540.27814 341.8094Q541.1844 341.8094 541.90314 341.34064Q542.6219 340.8719 542.6219 339.8875Q542.6219 339.1219 542.09064 338.6219Q541.575 338.10626 540.7469 338.10626Q539.91876 338.10626 539.3719 338.6219Q538.825 339.1375 538.66876 340.16876L537.2625 339.91876Q537.52814 338.4969 538.4344 337.73126Q539.35626 336.95 540.71564 336.95Q541.65314 336.95 542.4344 337.35626Q543.23126 337.7469 543.6375 338.45Q544.0594 339.1375 544.0594 339.91876Q544.0594 340.66876 543.65314 341.27814Q543.2625 341.8875 542.48126 342.2469Q543.4969 342.48126 544.0594 343.21564Q544.6219 343.95 544.6219 345.0594Q544.6219 346.5594 543.52814 347.60626Q542.4344 348.65314 540.7625 348.65314Q539.2625 348.65314 538.2625 347.7625Q537.2625 346.85626 537.1219 345.41876ZM546.1219 345.41876L547.52814 345.23126Q547.77814 346.4344 548.35626 346.96564Q548.9344 347.48126 549.77814 347.48126Q550.7625 347.48126 551.45 346.79376Q552.1375 346.10626 552.1375 345.09064Q552.1375 344.1219 551.4969 343.4969Q550.8719 342.8719 549.8875 342.8719Q549.4969 342.8719 548.90314 343.02814L549.0594 341.79376Q549.2 341.8094 549.27814 341.8094Q550.1844 341.8094 550.90314 341.34064Q551.6219 340.8719 551.6219 339.8875Q551.6219 339.1219 551.09064 338.6219Q550.575 338.10626 549.7469 338.10626Q548.91876 338.10626 548.3719 338.6219Q547.825 339.1375 547.66876 340.16876L546.2625 339.91876Q546.52814 338.4969 547.4344 337.73126Q548.35626 336.95 549.71564 336.95Q550.65314 336.95 551.4344 337.35626Q552.23126 337.7469 552.6375 338.45Q553.0594 339.1375 553.0594 339.91876Q553.0594 340.66876 552.65314 341.27814Q552.2625 341.8875 551.48126 342.2469Q552.4969 342.48126 553.0594 343.21564Q553.6219 343.95 553.6219 345.0594Q553.6219 346.5594 552.52814 347.60626Q551.4344 348.65314 549.7625 348.65314Q548.2625 348.65314 547.2625 347.7625Q546.2625 346.85626 546.1219 345.41876ZM555.90314 348.45L555.90314 346.84064L557.5125 346.84064L557.5125 348.45L555.90314 348.45ZM559.1219 345.41876L560.52814 345.23126Q560.77814 346.4344 561.35626 346.96564Q561.9344 347.48126 562.77814 347.48126Q563.7625 347.48126 564.45 346.79376Q565.1375 346.10626 565.1375 345.09064Q565.1375 344.1219 564.4969 343.4969Q563.8719 342.8719 562.8875 342.8719Q562.4969 342.8719 561.90314 343.02814L562.0594 341.79376Q562.2 341.8094 562.27814 341.8094Q563.1844 341.8094 563.90314 341.34064Q564.6219 340.8719 564.6219 339.8875Q564.6219 339.1219 564.09064 338.6219Q563.575 338.10626 562.7469 338.10626Q561.91876 338.10626 561.3719 338.6219Q560.825 339.1375 560.66876 340.16876L559.2625 339.91876Q559.52814 338.4969 560.4344 337.73126Q561.35626 336.95 562.71564 336.95Q563.65314 336.95 564.4344 337.35626Q565.23126 337.7469 565.6375 338.45Q566.0594 339.1375 566.0594 339.91876Q566.0594 340.66876 565.65314 341.27814Q565.2625 341.8875 564.48126 342.2469Q565.4969 342.48126 566.0594 343.21564Q566.6219 343.95 566.6219 345.0594Q566.6219 346.5594 565.52814 347.60626Q564.4344 348.65314 562.7625 348.65314Q561.2625 348.65314 560.2625 347.7625Q559.2625 346.85626 559.1219 345.41876ZM568.3875 339.7469Q568.3875 338.5125 568.9969 337.65314Q569.6219 336.79376 570.79376 336.79376Q571.8719 336.79376 572.575 337.575Q573.27814 338.34064 573.27814 339.825Q573.27814 341.27814 572.5594 342.075Q571.85626 342.85626 570.8094 342.85626Q569.7625 342.85626 569.075 342.09064Q568.3875 341.3094 568.3875 339.7469ZM570.825 337.7625Q570.3094 337.7625 569.95 338.21564Q569.60626 338.66876 569.60626 339.8875Q569.60626 340.98126 569.95 341.4344Q570.3094 341.8875 570.825 341.8875Q571.35626 341.8875 571.7 341.4344Q572.0594 340.98126 572.0594 339.77814Q572.0594 338.66876 571.7 338.21564Q571.35626 337.7625 570.825 337.7625ZM570.84064 348.8719L577.10626 336.79376L578.2469 336.79376L571.9969 348.8719L570.84064 348.8719ZM575.79376 345.7625Q575.79376 344.52814 576.40314 343.66876Q577.02814 342.8094 578.2 342.8094Q579.27814 342.8094 579.98126 343.59064Q580.7 344.35626 580.7 345.84064Q580.7 347.29376 579.98126 348.09064Q579.2625 348.8719 578.21564 348.8719Q577.16876 348.8719 576.48126 348.09064Q575.79376 347.3094 575.79376 345.7625ZM578.2469 343.77814Q577.71564 343.77814 577.35626 344.23126Q577.0125 344.6844 577.0125 345.90314Q577.0125 346.9969 577.35626 347.45Q577.71564 347.90314 578.23126 347.90314Q578.77814 347.90314 579.1219 347.45Q579.46564 346.9969 579.46564 345.79376Q579.46564 344.6844 579.10626 344.23126Q578.7625 343.77814 578.2469 343.77814Z" fill-rule="nonzero"/><path stroke="#757575" stroke-width="1.0" stroke-linecap="butt" d="M581.45 331.95L454.76666 331.95L300.0 345.01166" fill-rule="nonzero"/><path fill="#9e9e9e" d="M302.0 345.01166C302.0 343.9071 301.10458 343.01166 300.0 343.01166C298.89542 343.01166 298.0 343.9071 298.0 345.01166C298.0 346.11624 298.89542 347.01166 300.0 347.01166C301.10458 347.01166 302.0 346.11624 302.0 345.01166" fill-rule="nonzero"/><path fill="#f3f3f3" d="M265.98438 37.55L265.98438 23.2375L268.84375 23.2375L272.21875 33.3625Q272.6875 34.784374 272.90625 35.4875Q273.15625 34.70625 273.67188 33.190624L277.09375 23.2375L279.64062 23.2375L279.64062 37.55L277.82812 37.55L277.82812 25.565624L273.65625 37.55L271.95312 37.55L267.8125 25.3625L267.8125 37.55L265.98438 37.55ZM289.92188 34.20625L291.73438 34.440624Q291.3125 36.01875 290.14062 36.909374Q288.98438 37.784374 287.17188 37.784374Q284.90625 37.784374 283.5625 36.39375Q282.23438 34.9875 282.23438 32.45625Q282.23438 29.83125 283.57812 28.39375Q284.92188 26.940624 287.07812 26.940624Q289.15625 26.940624 290.46875 28.3625Q291.79688 29.76875 291.79688 32.346874Q291.79688 32.503124 291.78125 32.815624L284.04688 32.815624Q284.14062 34.51875 285.01562 35.425Q285.89062 36.33125 287.1875 36.33125Q288.15625 36.33125 288.82812 35.83125Q289.51562 35.315624 289.92188 34.20625ZM284.14062 31.3625L289.9375 31.3625Q289.82812 30.065624 289.28125 29.409374Q288.4375 28.39375 287.09375 28.39375Q285.89062 28.39375 285.0625 29.20625Q284.23438 30.003124 284.14062 31.3625ZM300.54688 37.55L300.54688 36.2375Q299.5625 37.784374 297.64062 37.784374Q296.40625 37.784374 295.35938 37.096874Q294.32812 36.409374 293.75 35.190624Q293.1875 33.971874 293.1875 32.378124Q293.1875 30.815624 293.70312 29.55Q294.21875 28.284374 295.25 27.6125Q296.29688 26.940624 297.5625 26.940624Q298.5 26.940624 299.23438 27.346874Q299.96875 27.7375 300.4375 28.3625L300.4375 23.2375L302.17188 23.2375L302.17188 37.55L300.54688 37.55ZM294.98438 32.378124Q294.98438 34.3625 295.82812 35.346874Q296.67188 36.33125 297.8125 36.33125Q298.96875 36.33125 299.76562 35.39375Q300.57812 34.45625 300.57812 32.51875Q300.57812 30.39375 299.75 29.39375Q298.9375 28.39375 297.73438 28.39375Q296.5625 28.39375 295.76562 29.3625Q294.98438 30.315624 294.98438 32.378124ZM304.82812 25.253124L304.82812 23.2375L306.59375 23.2375L306.59375 25.253124L304.82812 25.253124ZM304.82812 37.55L304.82812 27.175L306.59375 27.175L306.59375 37.55L304.82812 37.55ZM315.60938 37.55L315.60938 36.01875Q314.40625 37.784374 312.32812 37.784374Q311.40625 37.784374 310.60938 37.440624Q309.8125 37.08125 309.42188 36.55Q309.04688 36.01875 308.89062 35.2375Q308.78125 34.721874 308.78125 33.596874L308.78125 27.175L310.53125 27.175L310.53125 32.925Q310.53125 34.3 310.64062 34.784374Q310.8125 35.471874 311.34375 35.878124Q311.89062 36.26875 312.67188 36.26875Q313.46875 36.26875 314.15625 35.8625Q314.85938 35.45625 315.14062 34.76875Q315.4375 34.065624 315.4375 32.7375L315.4375 27.175L317.1875 27.175L317.1875 37.55L315.60938 37.55ZM319.8125 37.55L319.8125 27.175L321.39062 27.175L321.39062 28.628124Q321.875 27.878124 322.6875 27.409374Q323.5 26.940624 324.53125 26.940624Q325.6875 26.940624 326.42188 27.425Q327.15625 27.89375 327.46875 28.753124Q328.70312 26.940624 330.67188 26.940624Q332.21875 26.940624 333.04688 27.8Q333.875 28.659374 333.875 30.425L333.875 37.55L332.125 37.55L332.125 31.01875Q332.125 29.95625 331.95312 29.503124Q331.78125 29.034374 331.32812 28.753124Q330.89062 28.471874 330.28125 28.471874Q329.1875 28.471874 328.45312 29.20625Q327.73438 29.925 327.73438 31.51875L327.73438 37.55L325.98438 37.55L325.98438 30.815624Q325.98438 29.64375 325.54688 29.065624Q325.125 28.471874 324.14062 28.471874Q323.40625 28.471874 322.76562 28.8625Q322.14062 29.253124 321.85938 30.003124Q321.57812 30.753124 321.57812 32.175L321.57812 37.55L319.8125 37.55Z" fill-rule="nonzero"/></svg>