<svg version="1.1" viewBox="0.0 0.0 600.0 371.0" fill="none" stroke="none" stroke-linecap="square" stroke-miterlimit="10" width="600" height="371" xmlns:xlink="http://www.w3.org/1999/xlink" xmlns="http://www.w3.org/2000/svg"><path fill="#ffffff" fill-opacity="0.0" d="M0 0L600.0 0L600.0 371.0L0 371.0L0 0Z" fill-rule="nonzero"/><path fill="#e5a345" d="M278.8283 56.430897C285.84048 55.4227 292.9157 54.916668 300.0 54.916668L300.0 129.3C296.45786 129.3 292.92023 129.55301 289.41415 130.05711Z" fill-rule="nonzero"/><path fill="#8c4595" d="M264.92694 59.110165C269.51556 57.99697 274.1546 57.10287 278.8283 56.430897L289.41415 130.05711C287.0773 130.3931 284.75778 130.84015 282.46347 131.39674Z" fill-rule="nonzero"/><path fill="#78a94e" d="M258.0876 60.94276C260.3525 60.27772 262.63293 59.666683 264.92694 59.110165L282.46347 131.39674C281.31647 131.675 280.17624 131.98053 279.0438 132.31305Z" fill-rule="nonzero"/><path fill="#78b2c0" d="M251.34319 63.098713C253.5739 62.326656 255.82266 61.607803 258.0876 60.94276L279.0438 132.31305C277.91135 132.64557 276.78696 133.00499 275.6716 133.39102Z" fill-rule="nonzero"/><path fill="#313d89" d="M238.20009 68.36041C242.49515 66.39893 246.88113 64.64304 251.34319 63.098713L275.6716 133.39102C273.44058 134.1632 271.24756 135.04114 269.10004 136.02187Z" fill-rule="nonzero"/><path fill="#b3ca48" d="M219.57066 78.53285C225.53035 74.7028 231.756 71.30333 238.20009 68.36041L269.10004 136.02187C265.878 137.49333 262.76517 139.19307 259.78534 141.1081Z" fill-rule="nonzero"/><path fill="#f5ee58" d="M152.74756 224.85504C144.4588 167.20541 170.574 110.021095 219.57066 78.53285L259.78534 141.1081C235.287 156.85222 222.2294 185.44438 226.37378 214.26918Z" fill-rule="nonzero"/><path fill="#f7d750" d="M300.0 54.916668C379.40958 54.916668 444.8197 117.28509 448.59818 196.60474C452.37662 275.92438 393.1912 344.228 314.14117 351.77637C235.09116 359.32474 164.04872 303.45636 152.74756 224.85504L226.37378 214.26918C232.02437 253.56984 267.5456 281.50403 307.0706 277.72986C346.59558 273.95566 376.18832 239.80385 374.29907 200.14403C372.40985 160.4842 339.7048 129.3 300.0 129.3Z" fill-rule="nonzero"/><path fill="#ffffff" d="M359.68213 272.0463L359.68213 270.53067L368.01025 270.53067L368.01025 271.76505Q366.7915 273.07755 365.57275 275.24942Q364.36963 277.40567 363.71338 279.70255Q363.229 281.32755 363.104 283.24942L361.479 283.24942Q361.51025 281.7338 362.07275 279.57755Q362.65088 277.4213 363.71338 275.4213Q364.77588 273.4213 365.979 272.0463L359.68213 272.0463ZM377.88525 281.7338L377.88525 283.24942L369.36963 283.24942Q369.354 282.6713 369.55713 282.15567Q369.88525 281.28067 370.58838 280.43692Q371.30713 279.59317 372.6665 278.4838Q374.76025 276.76505 375.49463 275.76505Q376.24463 274.74942 376.24463 273.8588Q376.24463 272.90567 375.57275 272.26505Q374.90088 271.62442 373.82275 271.62442Q372.6665 271.62442 371.979 272.31192Q371.30713 272.99942 371.2915 274.20255L369.6665 274.03067Q369.83838 272.21817 370.9165 271.26505Q372.01025 270.31192 373.854 270.31192Q375.69775 270.31192 376.77588 271.34317Q377.86963 272.37442 377.86963 273.89005Q377.86963 274.65567 377.5415 275.40567Q377.229 276.15567 376.49463 276.9838Q375.76025 277.81192 374.05713 279.24942Q372.63525 280.45255 372.229 280.87442Q371.82275 281.2963 371.57275 281.7338L377.88525 281.7338ZM380.46338 283.24942L380.46338 281.45255L382.26025 281.45255L382.26025 283.24942L380.46338 283.24942ZM384.68213 272.0463L384.68213 270.53067L393.01025 270.53067L393.01025 271.76505Q391.7915 273.07755 390.57275 275.24942Q389.36963 277.40567 388.71338 279.70255Q388.229 281.32755 388.104 283.24942L386.479 283.24942Q386.51025 281.7338 387.07275 279.57755Q387.65088 277.4213 388.71338 275.4213Q389.77588 273.4213 390.979 272.0463L384.68213 272.0463ZM394.86963 273.45255Q394.86963 272.07755 395.55713 271.1088Q396.26025 270.14005 397.57275 270.14005Q398.7915 270.14005 399.58838 271.01505Q400.38525 271.87442 400.38525 273.56192Q400.38525 275.18692 399.57275 276.07755Q398.77588 276.95255 397.58838 276.95255Q396.43213 276.95255 395.65088 276.09317Q394.86963 275.21817 394.86963 273.45255ZM397.61963 271.2338Q397.02588 271.2338 396.63525 271.74942Q396.24463 272.24942 396.24463 273.6088Q396.24463 274.8588 396.63525 275.3588Q397.0415 275.8588 397.61963 275.8588Q398.21338 275.8588 398.604 275.3588Q398.99463 274.84317 398.99463 273.49942Q398.99463 272.24942 398.604 271.74942Q398.21338 271.2338 397.61963 271.2338ZM397.63525 283.71817L404.68213 270.14005L405.96338 270.14005L398.93213 283.71817L397.63525 283.71817ZM403.19775 280.21817Q403.19775 278.84317 403.88525 277.87442Q404.58838 276.90567 405.9165 276.90567Q407.13525 276.90567 407.9165 277.78067Q408.71338 278.64005 408.71338 280.32755Q408.71338 281.95255 407.9165 282.84317Q407.11963 283.71817 405.93213 283.71817Q404.76025 283.71817 403.979 282.84317Q403.19775 281.96817 403.19775 280.21817ZM405.96338 277.99942Q405.36963 277.99942 404.979 278.51505Q404.58838 279.01505 404.58838 280.39005Q404.58838 281.6088 404.979 282.12442Q405.36963 282.64005 405.94775 282.64005Q406.55713 282.64005 406.94775 282.12442Q407.33838 281.6088 407.33838 280.26505Q407.33838 279.01505 406.94775 278.51505Q406.55713 277.99942 405.96338 277.99942Z" fill-rule="nonzero"/><path fill="#ffffff" d="M179.71094 163.8334L178.13281 163.8334L178.13281 153.75528Q177.55469 154.30215 176.63281 154.84903Q175.71094 155.38028 174.96094 155.66153L174.96094 154.13028Q176.28906 153.50528 177.28906 152.61465Q178.28906 151.72403 178.69531 150.8959L179.71094 150.8959L179.71094 163.8334ZM186.19531 156.84903Q185.21094 156.48965 184.72656 155.81778Q184.25781 155.1459 184.25781 154.22403Q184.25781 152.81778 185.25781 151.86465Q186.27344 150.8959 187.96094 150.8959Q189.64844 150.8959 190.66406 151.88028Q191.69531 152.84903 191.69531 154.25528Q191.69531 155.16153 191.22656 155.8334Q190.75781 156.48965 189.80469 156.84903Q190.99219 157.23965 191.60156 158.09903Q192.22656 158.9584 192.22656 160.1459Q192.22656 161.80215 191.05469 162.92715Q189.88281 164.05215 187.97656 164.05215Q186.07031 164.05215 184.89844 162.92715Q183.74219 161.78653 183.74219 160.09903Q183.74219 158.84903 184.36719 158.00528Q185.00781 157.1459 186.19531 156.84903ZM185.86719 154.16153Q185.86719 155.0834 186.46094 155.66153Q187.05469 156.23965 187.99219 156.23965Q188.89844 156.23965 189.47656 155.66153Q190.07031 155.0834 190.07031 154.25528Q190.07031 153.38028 189.46094 152.78653Q188.86719 152.19278 187.97656 152.19278Q187.07031 152.19278 186.46094 152.7709Q185.86719 153.34903 185.86719 154.16153ZM185.36719 160.11465Q185.36719 160.78653 185.67969 161.42715Q186.00781 162.05215 186.63281 162.41153Q187.27344 162.75528 188.00781 162.75528Q189.13281 162.75528 189.86719 162.0209Q190.61719 161.28653 190.61719 160.16153Q190.61719 159.0209 189.85156 158.28653Q189.08594 157.53653 187.94531 157.53653Q186.83594 157.53653 186.10156 158.2709Q185.36719 159.00528 185.36719 160.11465ZM194.64844 163.8334L194.64844 162.03653L196.44531 162.03653L196.44531 163.8334L194.64844 163.8334ZM207.07031 162.31778L207.07031 163.8334L198.55469 163.8334Q198.53906 163.25528 198.74219 162.73965Q199.07031 161.86465 199.77344 161.0209Q200.49219 160.17715 201.85156 159.06778Q203.94531 157.34903 204.67969 156.34903Q205.42969 155.3334 205.42969 154.44278Q205.42969 153.48965 204.75781 152.84903Q204.08594 152.2084 203.00781 152.2084Q201.85156 152.2084 201.16406 152.8959Q200.49219 153.5834 200.47656 154.78653L198.85156 154.61465Q199.02344 152.80215 200.10156 151.84903Q201.19531 150.8959 203.03906 150.8959Q204.88281 150.8959 205.96094 151.92715Q207.05469 152.9584 207.05469 154.47403Q207.05469 155.23965 206.72656 155.98965Q206.41406 156.73965 205.67969 157.56778Q204.94531 158.3959 203.24219 159.8334Q201.82031 161.03653 201.41406 161.4584Q201.00781 161.88028 200.75781 162.31778L207.07031 162.31778ZM209.05469 154.03653Q209.05469 152.66153 209.74219 151.69278Q210.44531 150.72403 211.75781 150.72403Q212.97656 150.72403 213.77344 151.59903Q214.57031 152.4584 214.57031 154.1459Q214.57031 155.7709 213.75781 156.66153Q212.96094 157.53653 211.77344 157.53653Q210.61719 157.53653 209.83594 156.67715Q209.05469 155.80215 209.05469 154.03653ZM211.80469 151.81778Q211.21094 151.81778 210.82031 152.3334Q210.42969 152.8334 210.42969 154.19278Q210.42969 155.44278 210.82031 155.94278Q211.22656 156.44278 211.80469 156.44278Q212.39844 156.44278 212.78906 155.94278Q213.17969 155.42715 213.17969 154.0834Q213.17969 152.8334 212.78906 152.3334Q212.39844 151.81778 211.80469 151.81778ZM211.82031 164.30215L218.86719 150.72403L220.14844 150.72403L213.11719 164.30215L211.82031 164.30215ZM217.38281 160.80215Q217.38281 159.42715 218.07031 158.4584Q218.77344 157.48965 220.10156 157.48965Q221.32031 157.48965 222.10156 158.36465Q222.89844 159.22403 222.89844 160.91153Q222.89844 162.53653 222.10156 163.42715Q221.30469 164.30215 220.11719 164.30215Q218.94531 164.30215 218.16406 163.42715Q217.38281 162.55215 217.38281 160.80215ZM220.14844 158.5834Q219.55469 158.5834 219.16406 159.09903Q218.77344 159.59903 218.77344 160.97403Q218.77344 162.19278 219.16406 162.7084Q219.55469 163.22403 220.13281 163.22403Q220.74219 163.22403 221.13281 162.7084Q221.52344 162.19278 221.52344 160.84903Q221.52344 159.59903 221.13281 159.09903Q220.74219 158.5834 220.14844 158.5834Z" fill-rule="nonzero"/><path stroke="#ffffff" stroke-width="1.0" stroke-linejoin="round" stroke-linecap="round" d="M226.37378 214.26918C232.02437 253.56984 267.5456 281.50403 307.0706 277.72986C346.59558 273.95566 376.18832 239.80385 374.29907 200.14403C372.40985 160.4842 339.7048 129.3 300.0 129.3L300.0 54.916668C379.40958 54.916668 444.8197 117.28509 448.59818 196.60474C452.37662 275.92438 393.1912 344.228 314.14117 351.77637C235.09116 359.32474 164.04872 303.45636 152.74756 224.85504" fill-rule="nonzero"/><path stroke="#ffffff" stroke-width="1.0" stroke-linejoin="round" stroke-linecap="round" d="M259.78534 141.1081C235.287 156.85222 222.2294 185.44438 226.37378 214.26918L152.74756 224.85504C144.4588 167.20541 170.574 110.021095 219.57066 78.53285" fill-rule="nonzero"/><path stroke="#ffffff" stroke-width="1.0" stroke-linejoin="round" stroke-linecap="round" d="M269.10004 136.02187C265.878 137.49333 262.76517 139.19307 259.78534 141.1081L219.57066 78.53285C225.53035 74.7028 231.756 71.30333 238.20009 68.36041" fill-rule="nonzero"/><path stroke="#ffffff" stroke-width="1.0" stroke-linejoin="round" stroke-linecap="round" d="M275.6716 133.39102C273.44058 134.1632 271.24756 135.04114 269.10004 136.02187L238.20009 68.36041C242.49515 66.39893 246.88113 64.64304 251.34319 63.098713" fill-rule="nonzero"/><path stroke="#ffffff" stroke-width="1.0" stroke-linejoin="round" stroke-linecap="round" d="M279.0438 132.31305C277.91135 132.64557 276.78696 133.00499 275.6716 133.39102L251.34319 63.098713C253.5739 62.326656 255.82266 61.607803 258.0876 60.94276" fill-rule="nonzero"/><path stroke="#ffffff" stroke-width="1.0" stroke-linejoin="round" stroke-linecap="round" d="M282.46347 131.39674C281.31647 131.675 280.17624 131.98053 279.0438 132.31305L258.0876 60.94276C260.3525 60.27772 262.63293 59.666683 264.92694 59.110165" fill-rule="nonzero"/><path stroke="#ffffff" stroke-width="1.0" stroke-linejoin="round" stroke-linecap="round" d="M289.41415 130.05711C287.0773 130.3931 284.75778 130.84015 282.46347 131.39674L264.92694 59.110165C269.51556 57.99697 274.1546 57.10287 278.8283 56.430897" fill-rule="nonzero"/><path stroke="#ffffff" stroke-width="1.0" stroke-linejoin="round" stroke-linecap="round" d="M300.0 129.3C296.45786 129.3 292.92023 129.55301 289.41415 130.05711L278.8283 56.430897C285.84048 55.4227 292.9157 54.916668 300.0 54.916668" fill-rule="nonzero"/><path fill="#efefef" d="M22.70625 69.916664L22.70625 59.80729L18.925 59.80729L18.925 58.46354L28.003124 58.46354L28.003124 59.80729L24.221874 59.80729L24.221874 69.916664L22.70625 69.916664ZM35.284374 67.24479L36.7375 67.416664Q36.39375 68.697914 35.45625 69.40104Q34.534374 70.104164 33.096874 70.104164Q31.26875 70.104164 30.20625 68.979164Q29.14375 67.854164 29.14375 65.83854Q29.14375 63.74479 30.221874 62.58854Q31.3 61.43229 33.01875 61.43229Q34.675 61.43229 35.721874 62.572914Q36.784374 63.697914 36.784374 65.74479Q36.784374 65.86979 36.784374 66.11979L30.596874 66.11979Q30.675 67.49479 31.3625 68.229164Q32.065624 68.947914 33.096874 68.947914Q33.878124 68.947914 34.425 68.541664Q34.971874 68.135414 35.284374 67.24479ZM30.675 64.96354L35.3 64.96354Q35.20625 63.916664 34.76875 63.40104Q34.096874 62.58854 33.034374 62.58854Q32.065624 62.58854 31.39375 63.24479Q30.7375 63.885414 30.675 64.96354ZM37.675 69.916664L40.70625 65.604164L37.89375 61.61979L39.659374 61.61979L40.925 63.55729Q41.284374 64.11979 41.503124 64.49479Q41.846874 63.979164 42.14375 63.572914L43.534374 61.61979L45.221874 61.61979L42.346874 65.52604L45.440624 69.916664L43.70625 69.916664L42.003124 67.33854L41.55 66.635414L39.378124 69.916664L37.675 69.916664ZM49.675 68.65104L49.878124 69.90104Q49.284374 70.02604 48.815624 70.02604Q48.05 70.02604 47.628124 69.791664Q47.20625 69.541664 47.034374 69.15104Q46.8625 68.74479 46.8625 67.479164L46.8625 62.71354L45.83125 62.71354L45.83125 61.61979L46.8625 61.61979L46.8625 59.55729L48.26875 58.71354L48.26875 61.61979L49.675 61.61979L49.675 62.71354L48.26875 62.71354L48.26875 67.55729Q48.26875 68.166664 48.33125 68.33854Q48.409374 68.510414 48.58125 68.61979Q48.753124 68.71354 49.065624 68.71354Q49.3 68.71354 49.675 68.65104Z" fill-rule="nonzero"/><path fill="#9e9e9e" d="M26.6125 90.55729L26.6125 91.916664L19.034374 91.916664Q19.01875 91.40104 19.20625 90.93229Q19.4875 90.166664 20.128124 89.416664Q20.76875 88.666664 21.971874 87.68229Q23.83125 86.15104 24.4875 85.260414Q25.14375 84.354164 25.14375 83.55729Q25.14375 82.729164 24.55 82.15104Q23.95625 81.572914 22.9875 81.572914Q21.971874 81.572914 21.3625 82.18229Q20.753124 82.791664 20.753124 83.86979L19.3 83.729164Q19.45625 82.104164 20.425 81.260414Q21.39375 80.416664 23.01875 80.416664Q24.675 80.416664 25.628124 81.33854Q26.596874 82.24479 26.596874 83.58854Q26.596874 84.27604 26.315624 84.947914Q26.034374 85.604164 25.378124 86.33854Q24.721874 87.072914 23.20625 88.354164Q21.940624 89.416664 21.58125 89.80729Q21.221874 90.18229 20.9875 90.55729L26.6125 90.55729ZM29.003124 91.916664L29.003124 90.30729L30.6125 90.30729L30.6125 91.916664L29.003124 91.916664ZM32.221874 88.885414L33.628124 88.697914Q33.878124 89.90104 34.45625 90.43229Q35.034374 90.947914 35.878124 90.947914Q36.8625 90.947914 37.55 90.260414Q38.2375 89.572914 38.2375 88.55729Q38.2375 87.58854 37.596874 86.96354Q36.971874 86.33854 35.9875 86.33854Q35.596874 86.33854 35.003124 86.49479L35.159374 85.260414Q35.3 85.27604 35.378124 85.27604Q36.284374 85.27604 37.003124 84.80729Q37.721874 84.33854 37.721874 83.354164Q37.721874 82.58854 37.190624 82.08854Q36.675 81.572914 35.846874 81.572914Q35.01875 81.572914 34.471874 82.08854Q33.925 82.604164 33.76875 83.635414L32.3625 83.385414Q32.628124 81.96354 33.534374 81.197914Q34.45625 80.416664 35.815624 80.416664Q36.753124 80.416664 37.534374 80.822914Q38.33125 81.21354 38.7375 81.916664Q39.159374 82.604164 39.159374 83.385414Q39.159374 84.135414 38.753124 84.74479Q38.3625 85.354164 37.58125 85.71354Q38.596874 85.947914 39.159374 86.68229Q39.721874 87.416664 39.721874 88.52604Q39.721874 90.02604 38.628124 91.072914Q37.534374 92.11979 35.8625 92.11979Q34.3625 92.11979 33.3625 91.229164Q32.3625 90.322914 32.221874 88.885414ZM41.4875 83.21354Q41.4875 81.979164 42.096874 81.11979Q42.721874 80.260414 43.89375 80.260414Q44.971874 80.260414 45.675 81.041664Q46.378124 81.80729 46.378124 83.291664Q46.378124 84.74479 45.659374 85.541664Q44.95625 86.322914 43.909374 86.322914Q42.8625 86.322914 42.175 85.55729Q41.4875 84.77604 41.4875 83.21354ZM43.925 81.229164Q43.409374 81.229164 43.05 81.68229Q42.70625 82.135414 42.70625 83.354164Q42.70625 84.447914 43.05 84.90104Q43.409374 85.354164 43.925 85.354164Q44.45625 85.354164 44.8 84.90104Q45.159374 84.447914 45.159374 83.24479Q45.159374 82.135414 44.8 81.68229Q44.45625 81.229164 43.925 81.229164ZM43.940624 92.33854L50.20625 80.260414L51.346874 80.260414L45.096874 92.33854L43.940624 92.33854ZM48.89375 89.229164Q48.89375 87.99479 49.503124 87.135414Q50.128124 86.27604 51.3 86.27604Q52.378124 86.27604 53.08125 87.05729Q53.8 87.822914 53.8 89.30729Q53.8 90.760414 53.08125 91.55729Q52.3625 92.33854 51.315624 92.33854Q50.26875 92.33854 49.58125 91.55729Q48.89375 90.77604 48.89375 89.229164ZM51.346874 87.24479Q50.815624 87.24479 50.45625 87.697914Q50.1125 88.15104 50.1125 89.36979Q50.1125 90.46354 50.45625 90.916664Q50.815624 91.36979 51.33125 91.36979Q51.878124 91.36979 52.221874 90.916664Q52.565624 90.46354 52.565624 89.260414Q52.565624 88.15104 52.20625 87.697914Q51.8625 87.24479 51.346874 87.24479Z" fill-rule="nonzero"/><path stroke="#757575" stroke-width="1.0" stroke-linecap="butt" d="M18.55 75.416664L145.23334 75.416664L289.91776 62.715088" fill-rule="nonzero"/><path fill="#9e9e9e" d="M291.91776 62.715088C291.91776 61.61052 291.0223 60.715088 289.91776 60.715088C288.81317 60.715088 287.91776 61.61052 287.91776 62.715088C287.91776 63.819656 288.81317 64.71509 289.91776 64.71509C291.0223 64.71509 291.91776 63.819656 291.91776 62.715088" fill-rule="nonzero"/><path fill="#efefef" d="M19.815624 110.916664L19.815624 99.46354L24.89375 99.46354Q26.425 99.46354 27.221874 99.77604Q28.01875 100.072914 28.4875 100.854164Q28.971874 101.635414 28.971874 102.58854Q28.971874 103.80729 28.175 104.65104Q27.39375 105.479164 25.7375 105.697914Q26.346874 105.99479 26.659374 106.27604Q27.315624 106.885414 27.909374 107.791664L29.909374 110.916664L28.003124 110.916664L26.4875 108.52604Q25.815624 107.49479 25.378124 106.947914Q24.95625 106.40104 24.6125 106.18229Q24.284374 105.96354 23.925 105.885414Q23.675 105.822914 23.08125 105.822914L21.33125 105.822914L21.33125 110.916664L19.815624 110.916664ZM21.33125 104.510414L24.58125 104.510414Q25.628124 104.510414 26.20625 104.30729Q26.8 104.08854 27.096874 103.61979Q27.409374 103.135414 27.409374 102.58854Q27.409374 101.77604 26.815624 101.260414Q26.221874 100.729164 24.95625 100.729164L21.33125 100.729164L21.33125 104.510414ZM37.284374 108.24479L38.7375 108.416664Q38.39375 109.697914 37.45625 110.40104Q36.534374 111.104164 35.096874 111.104164Q33.26875 111.104164 32.20625 109.979164Q31.14375 108.854164 31.14375 106.83854Q31.14375 104.74479 32.221874 103.58854Q33.3 102.43229 35.01875 102.43229Q36.675 102.43229 37.721874 103.572914Q38.784374 104.697914 38.784374 106.74479Q38.784374 106.86979 38.784374 107.11979L32.596874 107.11979Q32.675 108.49479 33.3625 109.229164Q34.065624 109.947914 35.096874 109.947914Q35.878124 109.947914 36.425 109.541664Q36.971874 109.135414 37.284374 108.24479ZM32.675 105.96354L37.3 105.96354Q37.20625 104.916664 36.76875 104.40104Q36.096874 103.58854 35.034374 103.58854Q34.065624 103.58854 33.39375 104.24479Q32.7375 104.885414 32.675 105.96354ZM40.58125 110.916664L40.58125 99.46354L41.9875 99.46354L41.9875 110.916664L40.58125 110.916664ZM44.6125 101.072914L44.6125 99.46354L46.01875 99.46354L46.01875 101.072914L44.6125 101.072914ZM44.6125 110.916664L44.6125 102.61979L46.01875 102.61979L46.01875 110.916664L44.6125 110.916664ZM48.346874 111.604164L49.721874 111.80729Q49.8 112.447914 50.190624 112.729164Q50.721874 113.11979 51.628124 113.11979Q52.596874 113.11979 53.128124 112.729164Q53.659374 112.33854 53.846874 111.635414Q53.95625 111.21354 53.95625 109.822914Q53.034374 110.916664 51.659374 110.916664Q49.940624 110.916664 49.003124 109.68229Q48.065624 108.447914 48.065624 106.71354Q48.065624 105.52604 48.4875 104.52604Q48.925 103.52604 49.7375 102.979164Q50.565624 102.43229 51.659374 102.43229Q53.128124 102.43229 54.08125 103.61979L54.08125 102.61979L55.378124 102.61979L55.378124 109.791664Q55.378124 111.729164 54.9875 112.541664Q54.596874 113.354164 53.7375 113.822914Q52.878124 114.291664 51.628124 114.291664Q50.14375 114.291664 49.221874 113.61979Q48.315624 112.947914 48.346874 111.604164ZM49.51875 106.61979Q49.51875 108.24479 50.159374 108.99479Q50.815624 109.74479 51.784374 109.74479Q52.753124 109.74479 53.409374 109.010414Q54.065624 108.260414 54.065624 106.666664Q54.065624 105.135414 53.39375 104.36979Q52.721874 103.58854 51.76875 103.58854Q50.83125 103.58854 50.175 104.354164Q49.51875 105.11979 49.51875 106.61979ZM57.6125 101.072914L57.6125 99.46354L59.01875 99.46354L59.01875 101.072914L57.6125 101.072914ZM57.6125 110.916664L57.6125 102.61979L59.01875 102.61979L59.01875 110.916664L57.6125 110.916664ZM61.08125 106.760414Q61.08125 104.46354 62.3625 103.354164Q63.440624 102.43229 64.97188 102.43229Q66.69063 102.43229 67.76875 103.55729Q68.8625 104.666664 68.8625 106.65104Q68.8625 108.24479 68.37813 109.166664Q67.89375 110.08854 66.97188 110.604164Q66.06563 111.104164 64.97188 111.104164Q63.2375 111.104164 62.159374 109.99479Q61.08125 108.86979 61.08125 106.760414ZM62.534374 106.760414Q62.534374 108.354164 63.221874 109.15104Q63.925 109.947914 64.97188 109.947914Q66.01875 109.947914 66.70625 109.15104Q67.40938 108.354164 67.40938 106.71354Q67.40938 105.18229 66.70625 104.385414Q66.01875 103.58854 64.97188 103.58854Q63.925 103.58854 63.221874 104.385414Q62.534374 105.166664 62.534374 106.760414ZM76.05 110.916664L76.05 109.697914Q75.08125 111.104164 73.40938 111.104164Q72.675 111.104164 72.03438 110.822914Q71.40938 110.541664 71.09688 110.11979Q70.78438 109.68229 70.65938 109.072914Q70.58125 108.65104 70.58125 107.760414L70.58125 102.61979L71.9875 102.61979L71.9875 107.21354Q71.9875 108.322914 72.06563 108.697914Q72.20625 109.260414 72.62813 109.572914Q73.06563 109.885414 73.69063 109.885414Q74.33125 109.885414 74.87813 109.572914Q75.44063 109.24479 75.65938 108.68229Q75.89375 108.11979 75.89375 107.05729L75.89375 102.61979L77.3 102.61979L77.3 110.916664L76.05 110.916664ZM79.05 108.43229L80.44063 108.21354Q80.55 109.05729 81.08125 109.510414Q81.62813 109.947914 82.58125 109.947914Q83.55 109.947914 84.01875 109.55729Q84.4875 109.15104 84.4875 108.61979Q84.4875 108.15104 84.08125 107.86979Q83.78438 107.68229 82.64375 107.40104Q81.09688 107.010414 80.4875 106.729164Q79.89375 106.43229 79.58125 105.93229Q79.28438 105.43229 79.28438 104.822914Q79.28438 104.260414 79.53438 103.791664Q79.78438 103.322914 80.22188 103.010414Q80.55 102.760414 81.1125 102.604164Q81.69063 102.43229 82.33125 102.43229Q83.31563 102.43229 84.05 102.71354Q84.78438 102.99479 85.12813 103.479164Q85.4875 103.947914 85.62813 104.760414L84.25313 104.947914Q84.15938 104.30729 83.70625 103.947914Q83.25313 103.58854 82.44063 103.58854Q81.47188 103.58854 81.05 103.916664Q80.64375 104.229164 80.64375 104.65104Q80.64375 104.93229 80.81563 105.15104Q80.9875 105.36979 81.34688 105.52604Q81.56563 105.604164 82.59688 105.885414Q84.08125 106.27604 84.675 106.541664Q85.26875 106.791664 85.59688 107.27604Q85.94063 107.760414 85.94063 108.479164Q85.94063 109.18229 85.51875 109.80729Q85.1125 110.416664 84.33125 110.760414Q83.56563 111.104164 82.59688 111.104164Q80.97188 111.104164 80.12813 110.43229Q79.28438 109.760414 79.05 108.43229Z" fill-rule="nonzero"/><path fill="#9e9e9e" d="M26.6125 131.5573L26.6125 132.91667L19.034374 132.91667Q19.01875 132.40105 19.20625 131.9323Q19.4875 131.16667 20.128124 130.41667Q20.76875 129.66667 21.971874 128.6823Q23.83125 127.15105 24.4875 126.26042Q25.14375 125.35417 25.14375 124.5573Q25.14375 123.72917 24.55 123.15105Q23.95625 122.57292 22.9875 122.57292Q21.971874 122.57292 21.3625 123.1823Q20.753124 123.79167 20.753124 124.8698L19.3 124.72917Q19.45625 123.10417 20.425 122.26042Q21.39375 121.41667 23.01875 121.41667Q24.675 121.41667 25.628124 122.33855Q26.596874 123.2448 26.596874 124.58855Q26.596874 125.27605 26.315624 125.94792Q26.034374 126.60417 25.378124 127.33855Q24.721874 128.07292 23.20625 129.35417Q21.940624 130.41667 21.58125 130.8073Q21.221874 131.1823 20.9875 131.5573L26.6125 131.5573ZM29.003124 132.91667L29.003124 131.3073L30.6125 131.3073L30.6125 132.91667L29.003124 132.91667ZM32.221874 129.88542L33.628124 129.69792Q33.878124 130.90105 34.45625 131.4323Q35.034374 131.94792 35.878124 131.94792Q36.8625 131.94792 37.55 131.26042Q38.2375 130.57292 38.2375 129.5573Q38.2375 128.58855 37.596874 127.96355Q36.971874 127.33855 35.9875 127.33855Q35.596874 127.33855 35.003124 127.4948L35.159374 126.26042Q35.3 126.27605 35.378124 126.27605Q36.284374 126.27605 37.003124 125.8073Q37.721874 125.33855 37.721874 124.35417Q37.721874 123.58855 37.190624 123.08855Q36.675 122.57292 35.846874 122.57292Q35.01875 122.57292 34.471874 123.08855Q33.925 123.60417 33.76875 124.63542L32.3625 124.38542Q32.628124 122.96355 33.534374 122.19792Q34.45625 121.41667 35.815624 121.41667Q36.753124 121.41667 37.534374 121.82292Q38.33125 122.21355 38.7375 122.91667Q39.159374 123.60417 39.159374 124.38542Q39.159374 125.13542 38.753124 125.7448Q38.3625 126.35417 37.58125 126.71355Q38.596874 126.94792 39.159374 127.6823Q39.721874 128.41667 39.721874 129.52605Q39.721874 131.02605 38.628124 132.07292Q37.534374 133.1198 35.8625 133.1198Q34.3625 133.1198 33.3625 132.22917Q32.3625 131.32292 32.221874 129.88542ZM41.4875 124.21355Q41.4875 122.97917 42.096874 122.1198Q42.721874 121.26042 43.89375 121.26042Q44.971874 121.26042 45.675 122.04167Q46.378124 122.8073 46.378124 124.29167Q46.378124 125.7448 45.659374 126.54167Q44.95625 127.32292 43.909374 127.32292Q42.8625 127.32292 42.175 126.5573Q41.4875 125.77605 41.4875 124.21355ZM43.925 122.22917Q43.409374 122.22917 43.05 122.6823Q42.70625 123.13542 42.70625 124.35417Q42.70625 125.44792 43.05 125.90105Q43.409374 126.35417 43.925 126.35417Q44.45625 126.35417 44.8 125.90105Q45.159374 125.44792 45.159374 124.2448Q45.159374 123.13542 44.8 122.6823Q44.45625 122.22917 43.925 122.22917ZM43.940624 133.33855L50.20625 121.26042L51.346874 121.26042L45.096874 133.33855L43.940624 133.33855ZM48.89375 130.22917Q48.89375 128.9948 49.503124 128.13542Q50.128124 127.27605 51.3 127.27605Q52.378124 127.27605 53.08125 128.0573Q53.8 128.82292 53.8 130.3073Q53.8 131.76042 53.08125 132.5573Q52.3625 133.33855 51.315624 133.33855Q50.26875 133.33855 49.58125 132.5573Q48.89375 131.77605 48.89375 130.22917ZM51.346874 128.2448Q50.815624 128.2448 50.45625 128.69792Q50.1125 129.15105 50.1125 130.3698Q50.1125 131.46355 50.45625 131.91667Q50.815624 132.3698 51.33125 132.3698Q51.878124 132.3698 52.221874 131.91667Q52.565624 131.46355 52.565624 130.26042Q52.565624 129.15105 52.20625 128.69792Q51.8625 128.2448 51.346874 128.2448Z" fill-rule="nonzero"/><path stroke="#757575" stroke-width="1.0" stroke-linecap="butt" d="M18.55 116.416664L145.23334 116.416664L232.26854 79.642426" fill-rule="nonzero"/><path fill="#9e9e9e" d="M234.26854 79.642426C234.26854 78.53786 233.37311 77.642426 232.26854 77.642426C231.16397 77.642426 230.26854 78.53786 230.26854 79.642426C230.26854 80.746994 231.16397 81.642426 232.26854 81.642426C233.37311 81.642426 234.26854 80.746994 234.26854 79.642426" fill-rule="nonzero"/><path fill="#efefef" d="M27.95625 147.90105L29.471874 148.27605Q29.003124 150.15105 27.753124 151.13542Q26.51875 152.1198 24.7375 152.1198Q22.878124 152.1198 21.721874 151.3698Q20.565624 150.60417 19.95625 149.1823Q19.346874 147.7448 19.346874 146.10417Q19.346874 144.3073 20.034374 142.97917Q20.721874 141.65105 21.971874 140.96355Q23.2375 140.26042 24.753124 140.26042Q26.471874 140.26042 27.64375 141.13542Q28.815624 142.01042 29.284374 143.60417L27.784374 143.94792Q27.39375 142.69792 26.628124 142.13542Q25.878124 141.5573 24.721874 141.5573Q23.409374 141.5573 22.51875 142.19792Q21.628124 142.82292 21.26875 143.90105Q20.909374 144.96355 20.909374 146.08855Q20.909374 147.5573 21.33125 148.65105Q21.76875 149.72917 22.659374 150.27605Q23.565624 150.8073 24.6125 150.8073Q25.878124 150.8073 26.753124 150.07292Q27.64375 149.33855 27.95625 147.90105ZM37.05 151.91667L37.05 150.69792Q36.08125 152.10417 34.409374 152.10417Q33.675 152.10417 33.034374 151.82292Q32.409374 151.54167 32.096874 151.1198Q31.784374 150.6823 31.659374 150.07292Q31.58125 149.65105 31.58125 148.76042L31.58125 143.6198L32.9875 143.6198L32.9875 148.21355Q32.9875 149.32292 33.065624 149.69792Q33.20625 150.26042 33.628124 150.57292Q34.065624 150.88542 34.690624 150.88542Q35.33125 150.88542 35.878124 150.57292Q36.440624 150.2448 36.659374 149.6823Q36.89375 149.1198 36.89375 148.0573L36.89375 143.6198L38.3 143.6198L38.3 151.91667L37.05 151.91667ZM40.58125 151.91667L40.58125 140.46355L41.9875 140.46355L41.9875 151.91667L40.58125 151.91667ZM47.675 150.65105L47.878124 151.90105Q47.284374 152.02605 46.815624 152.02605Q46.05 152.02605 45.628124 151.79167Q45.20625 151.54167 45.034374 151.15105Q44.8625 150.7448 44.8625 149.47917L44.8625 144.71355L43.83125 144.71355L43.83125 143.6198L44.8625 143.6198L44.8625 141.5573L46.26875 140.71355L46.26875 143.6198L47.675 143.6198L47.675 144.71355L46.26875 144.71355L46.26875 149.5573Q46.26875 150.16667 46.33125 150.33855Q46.409374 150.51042 46.58125 150.6198Q46.753124 150.71355 47.065624 150.71355Q47.3 150.71355 47.675 150.65105ZM54.05 151.91667L54.05 150.69792Q53.08125 152.10417 51.409374 152.10417Q50.675 152.10417 50.034374 151.82292Q49.409374 151.54167 49.096874 151.1198Q48.784374 150.6823 48.659374 150.07292Q48.58125 149.65105 48.58125 148.76042L48.58125 143.6198L49.9875 143.6198L49.9875 148.21355Q49.9875 149.32292 50.065624 149.69792Q50.20625 150.26042 50.628124 150.57292Q51.065624 150.88542 51.690624 150.88542Q52.33125 150.88542 52.878124 150.57292Q53.440624 150.2448 53.659374 149.6823Q53.89375 149.1198 53.89375 148.0573L53.89375 143.6198L55.3 143.6198L55.3 151.91667L54.05 151.91667ZM57.596874 151.91667L57.596874 143.6198L58.8625 143.6198L58.8625 144.8698Q59.346874 143.9948 59.753124 143.71355Q60.159374 143.4323 60.659374 143.4323Q61.3625 143.4323 62.096874 143.88542L61.6125 145.1823Q61.096874 144.88542 60.58125 144.88542Q60.128124 144.88542 59.753124 145.16667Q59.39375 145.4323 59.2375 145.9323Q59.003124 146.6823 59.003124 147.57292L59.003124 151.91667L57.596874 151.91667ZM68.01875 150.88542Q67.2375 151.5573 66.51875 151.83855Q65.8 152.10417 64.97188 152.10417Q63.596874 152.10417 62.8625 151.4323Q62.128124 150.76042 62.128124 149.72917Q62.128124 149.1198 62.409374 148.6198Q62.690624 148.10417 63.128124 147.8073Q63.58125 147.4948 64.14375 147.33855Q64.56563 147.22917 65.39375 147.13542Q67.09688 146.9323 67.90938 146.65105Q67.90938 146.35417 67.90938 146.27605Q67.90938 145.41667 67.51875 145.07292Q66.97188 144.58855 65.90938 144.58855Q64.925 144.58855 64.44063 144.94792Q63.971874 145.29167 63.753124 146.16667L62.378124 145.97917Q62.565624 145.10417 62.9875 144.5573Q63.425 144.01042 64.2375 143.72917Q65.05 143.4323 66.1125 143.4323Q67.175 143.4323 67.83125 143.6823Q68.50313 143.9323 68.81563 144.3073Q69.12813 144.6823 69.25313 145.26042Q69.33125 145.6198 69.33125 146.5573L69.33125 148.4323Q69.33125 150.40105 69.40938 150.91667Q69.50313 151.4323 69.76875 151.91667L68.3 151.91667Q68.08125 151.47917 68.01875 150.88542ZM67.90938 147.7448Q67.14375 148.0573 65.6125 148.27605Q64.7375 148.40105 64.37813 148.5573Q64.01875 148.71355 63.815624 149.02605Q63.628124 149.32292 63.628124 149.6823Q63.628124 150.2448 64.05 150.6198Q64.4875 150.9948 65.3 150.9948Q66.1125 150.9948 66.7375 150.65105Q67.37813 150.29167 67.675 149.66667Q67.90938 149.19792 67.90938 148.26042L67.90938 147.7448ZM71.58125 151.91667L71.58125 140.46355L72.9875 140.46355L72.9875 151.91667L71.58125 151.91667ZM78.51875 151.91667L82.925 140.46355L84.56563 140.46355L89.25313 151.91667L87.51875 151.91667L86.19063 148.44792L81.39375 148.44792L80.14375 151.91667L78.51875 151.91667ZM81.83125 147.21355L85.72188 147.21355L84.51875 144.04167Q83.97188 142.58855 83.70625 141.66667Q83.4875 142.76042 83.09688 143.85417L81.83125 147.21355ZM96.01875 148.8698L97.40938 149.0573Q97.175 150.47917 96.2375 151.29167Q95.31563 152.10417 93.95625 152.10417Q92.25313 152.10417 91.20625 150.9948Q90.175 149.8698 90.175 147.79167Q90.175 146.44792 90.6125 145.44792Q91.06563 144.4323 91.97188 143.9323Q92.89375 143.4323 93.95625 143.4323Q95.31563 143.4323 96.175 144.1198Q97.03438 144.79167 97.26875 146.0573L95.90938 146.26042Q95.70625 145.4323 95.20625 145.01042Q94.72188 144.58855 94.01875 144.58855Q92.95625 144.58855 92.28438 145.35417Q91.62813 146.10417 91.62813 147.76042Q91.62813 149.4323 92.26875 150.19792Q92.90938 150.94792 93.94063 150.94792Q94.76875 150.94792 95.31563 150.44792Q95.87813 149.9323 96.01875 148.8698ZM101.675 150.65105L101.87813 151.90105Q101.28438 152.02605 100.81563 152.02605Q100.05 152.02605 99.62813 151.79167Q99.20625 151.54167 99.03438 151.15105Q98.8625 150.7448 98.8625 149.47917L98.8625 144.71355L97.83125 144.71355L97.83125 143.6198L98.8625 143.6198L98.8625 141.5573L100.26875 140.71355L100.26875 143.6198L101.675 143.6198L101.675 144.71355L100.26875 144.71355L100.26875 149.5573Q100.26875 150.16667 100.33125 150.33855Q100.40938 150.51042 100.58125 150.6198Q100.75313 150.71355 101.06563 150.71355Q101.3 150.71355 101.675 150.65105ZM102.05 149.4323L103.44063 149.21355Q103.55 150.0573 104.08125 150.51042Q104.62813 150.94792 105.58125 150.94792Q106.55 150.94792 107.01875 150.5573Q107.4875 150.15105 107.4875 149.6198Q107.4875 149.15105 107.08125 148.8698Q106.78438 148.6823 105.64375 148.40105Q104.09688 148.01042 103.4875 147.72917Q102.89375 147.4323 102.58125 146.9323Q102.28438 146.4323 102.28438 145.82292Q102.28438 145.26042 102.53438 144.79167Q102.78438 144.32292 103.22188 144.01042Q103.55 143.76042 104.1125 143.60417Q104.69063 143.4323 105.33125 143.4323Q106.31563 143.4323 107.05 143.71355Q107.78438 143.9948 108.12813 144.47917Q108.4875 144.94792 108.62813 145.76042L107.25313 145.94792Q107.15938 145.3073 106.70625 144.94792Q106.25313 144.58855 105.44063 144.58855Q104.47188 144.58855 104.05 144.91667Q103.64375 145.22917 103.64375 145.65105Q103.64375 145.9323 103.81563 146.15105Q103.9875 146.3698 104.34688 146.52605Q104.56563 146.60417 105.59688 146.88542Q107.08125 147.27605 107.675 147.54167Q108.26875 147.79167 108.59688 148.27605Q108.94063 148.76042 108.94063 149.47917Q108.94063 150.1823 108.51875 150.8073Q108.1125 151.41667 107.33125 151.76042Q106.56563 152.10417 105.59688 152.10417Q103.97188 152.10417 103.12813 151.4323Q102.28438 150.76042 102.05 149.4323ZM111.00313 151.91667L111.00313 150.3073L112.6125 150.3073L112.6125 151.91667L111.00313 151.91667Z" fill-rule="nonzero"/><path fill="#9e9e9e" d="M24.51875 173.91667L23.1125 173.91667L23.1125 164.94792Q22.596874 165.4323 21.76875 165.91667Q20.95625 166.40105 20.3 166.65105L20.3 165.29167Q21.471874 164.72917 22.346874 163.94792Q23.2375 163.15105 23.6125 162.41667L24.51875 162.41667L24.51875 173.91667ZM30.378124 167.69792Q29.503124 167.38542 29.08125 166.79167Q28.659374 166.19792 28.659374 165.3698Q28.659374 164.1198 29.55 163.27605Q30.45625 162.41667 31.95625 162.41667Q33.45625 162.41667 34.3625 163.29167Q35.284374 164.15105 35.284374 165.40105Q35.284374 166.19792 34.8625 166.79167Q34.440624 167.38542 33.596874 167.69792Q34.64375 168.04167 35.190624 168.8073Q35.753124 169.57292 35.753124 170.63542Q35.753124 172.10417 34.70625 173.1198Q33.675 174.1198 31.971874 174.1198Q30.284374 174.1198 29.2375 173.1198Q28.20625 172.10417 28.20625 170.60417Q28.20625 169.47917 28.76875 168.72917Q29.33125 167.97917 30.378124 167.69792ZM30.096874 165.32292Q30.096874 166.13542 30.6125 166.65105Q31.14375 167.16667 31.9875 167.16667Q32.8 167.16667 33.315624 166.65105Q33.83125 166.13542 33.83125 165.40105Q33.83125 164.6198 33.3 164.10417Q32.76875 163.57292 31.971874 163.57292Q31.159374 163.57292 30.628124 164.08855Q30.096874 164.60417 30.096874 165.32292ZM29.64375 170.60417Q29.64375 171.21355 29.925 171.77605Q30.221874 172.33855 30.784374 172.65105Q31.346874 172.94792 31.9875 172.94792Q33.003124 172.94792 33.659374 172.3073Q34.315624 171.65105 34.315624 170.65105Q34.315624 169.63542 33.628124 168.97917Q32.95625 168.3073 31.940624 168.3073Q30.95625 168.3073 30.3 168.96355Q29.64375 169.6198 29.64375 170.60417ZM38.003124 173.91667L38.003124 172.3073L39.6125 172.3073L39.6125 173.91667L38.003124 173.91667ZM48.6125 172.5573L48.6125 173.91667L41.034374 173.91667Q41.01875 173.40105 41.20625 172.9323Q41.4875 172.16667 42.128124 171.41667Q42.76875 170.66667 43.971874 169.6823Q45.83125 168.15105 46.4875 167.26042Q47.14375 166.35417 47.14375 165.5573Q47.14375 164.72917 46.55 164.15105Q45.95625 163.57292 44.9875 163.57292Q43.971874 163.57292 43.3625 164.1823Q42.753124 164.79167 42.753124 165.8698L41.3 165.72917Q41.45625 164.10417 42.425 163.26042Q43.39375 162.41667 45.01875 162.41667Q46.675 162.41667 47.628124 163.33855Q48.596874 164.2448 48.596874 165.58855Q48.596874 166.27605 48.315624 166.94792Q48.034374 167.60417 47.378124 168.33855Q46.721874 169.07292 45.20625 170.35417Q43.940624 171.41667 43.58125 171.8073Q43.221874 172.1823 42.9875 172.5573L48.6125 172.5573ZM50.4875 165.21355Q50.4875 163.97917 51.096874 163.1198Q51.721874 162.26042 52.89375 162.26042Q53.971874 162.26042 54.675 163.04167Q55.378124 163.8073 55.378124 165.29167Q55.378124 166.7448 54.659374 167.54167Q53.95625 168.32292 52.909374 168.32292Q51.8625 168.32292 51.175 167.5573Q50.4875 166.77605 50.4875 165.21355ZM52.925 163.22917Q52.409374 163.22917 52.05 163.6823Q51.70625 164.13542 51.70625 165.35417Q51.70625 166.44792 52.05 166.90105Q52.409374 167.35417 52.925 167.35417Q53.45625 167.35417 53.8 166.90105Q54.159374 166.44792 54.159374 165.2448Q54.159374 164.13542 53.8 163.6823Q53.45625 163.22917 52.925 163.22917ZM52.940624 174.33855L59.20625 162.26042L60.346874 162.26042L54.096874 174.33855L52.940624 174.33855ZM57.89375 171.22917Q57.89375 169.9948 58.503124 169.13542Q59.128124 168.27605 60.3 168.27605Q61.378124 168.27605 62.08125 169.0573Q62.8 169.82292 62.8 171.3073Q62.8 172.76042 62.08125 173.5573Q61.3625 174.33855 60.315624 174.33855Q59.26875 174.33855 58.58125 173.5573Q57.89375 172.77605 57.89375 171.22917ZM60.346874 169.2448Q59.815624 169.2448 59.45625 169.69792Q59.1125 170.15105 59.1125 171.3698Q59.1125 172.46355 59.45625 172.91667Q59.815624 173.3698 60.33125 173.3698Q60.878124 173.3698 61.221874 172.91667Q61.565624 172.46355 61.565624 171.26042Q61.565624 170.15105 61.20625 169.69792Q60.8625 169.2448 60.346874 169.2448Z" fill-rule="nonzero"/><path stroke="#757575" stroke-width="1.0" stroke-linecap="butt" d="M18.55 157.41667L145.23334 157.41667L171.44322 144.97342" fill-rule="nonzero"/><path fill="#9e9e9e" d="M173.44322 144.97342C173.44322 143.86885 172.54779 142.97342 171.44322 142.97342C170.33865 142.97342 169.44322 143.86885 169.44322 144.97342C169.44322 146.07799 170.33865 146.97342 171.44322 146.97342C172.54779 146.97342 173.44322 146.07799 173.44322 144.97342" fill-rule="nonzero"/><path fill="#efefef" d="M481.71564 290.7337L481.71564 279.28058L489.9969 279.28058L489.9969 280.62433L483.23126 280.62433L483.23126 284.13995L489.575 284.13995L489.575 285.4837L483.23126 285.4837L483.23126 289.37433L490.2625 289.37433L490.2625 290.7337L481.71564 290.7337ZM495.575 289.46808L495.77814 290.71808Q495.1844 290.84308 494.71564 290.84308Q493.95 290.84308 493.52814 290.6087Q493.10626 290.3587 492.9344 289.96808Q492.7625 289.56183 492.7625 288.2962L492.7625 283.53058L491.73126 283.53058L491.73126 282.43683L492.7625 282.43683L492.7625 280.37433L494.16876 279.53058L494.16876 282.43683L495.575 282.43683L495.575 283.53058L494.16876 283.53058L494.16876 288.37433Q494.16876 288.9837 494.23126 289.15558Q494.3094 289.32745 494.48126 289.43683Q494.65314 289.53058 494.96564 289.53058Q495.2 289.53058 495.575 289.46808ZM496.5125 290.7337L496.5125 279.28058L497.91876 279.28058L497.91876 283.38995Q498.90314 282.24933 500.40314 282.24933Q501.325 282.24933 501.9969 282.6087Q502.6844 282.96808 502.96564 283.6087Q503.2625 284.24933 503.2625 285.46808L503.2625 290.7337L501.85626 290.7337L501.85626 285.46808Q501.85626 284.4212 501.40314 283.93683Q500.95 283.45245 500.10626 283.45245Q499.48126 283.45245 498.9344 283.78058Q498.3875 284.1087 498.15314 284.6712Q497.91876 285.21808 497.91876 286.18683L497.91876 290.7337L496.5125 290.7337ZM505.5125 290.7337L505.5125 282.43683L506.77814 282.43683L506.77814 283.6087Q507.6844 282.24933 509.41876 282.24933Q510.16876 282.24933 510.79376 282.51495Q511.41876 282.78058 511.73126 283.21808Q512.04376 283.65558 512.16876 284.26495Q512.2469 284.65558 512.2469 285.62433L512.2469 290.7337L510.84064 290.7337L510.84064 285.68683Q510.84064 284.82745 510.66876 284.40558Q510.5125 283.96808 510.09064 283.71808Q509.6844 283.46808 509.1219 283.46808Q508.21564 283.46808 507.5594 284.0462Q506.91876 284.6087 506.91876 286.20245L506.91876 290.7337L505.5125 290.7337ZM514.5125 280.88995L514.5125 279.28058L515.91876 279.28058L515.91876 280.88995L514.5125 280.88995ZM514.5125 290.7337L514.5125 282.43683L515.91876 282.43683L515.91876 290.7337L514.5125 290.7337ZM523.91876 287.68683L525.3094 287.87433Q525.075 289.2962 524.1375 290.1087Q523.21564 290.9212 521.85626 290.9212Q520.15314 290.9212 519.10626 289.81183Q518.075 288.68683 518.075 286.6087Q518.075 285.26495 518.5125 284.26495Q518.96564 283.24933 519.8719 282.74933Q520.79376 282.24933 521.85626 282.24933Q523.21564 282.24933 524.075 282.93683Q524.9344 283.6087 525.16876 284.87433L523.8094 285.07745Q523.60626 284.24933 523.10626 283.82745Q522.6219 283.40558 521.91876 283.40558Q520.85626 283.40558 520.1844 284.1712Q519.52814 284.9212 519.52814 286.57745Q519.52814 288.24933 520.16876 289.01495Q520.8094 289.76495 521.84064 289.76495Q522.66876 289.76495 523.21564 289.26495Q523.77814 288.74933 523.91876 287.68683ZM536.04376 286.2337L536.04376 284.88995L540.90314 284.88995L540.90314 289.13995Q539.77814 290.03058 538.59064 290.4837Q537.40314 290.93683 536.15314 290.93683Q534.46564 290.93683 533.09064 290.21808Q531.71564 289.4837 531.0125 288.12433Q530.3094 286.74933 530.3094 285.06183Q530.3094 283.38995 530.9969 281.93683Q531.7 280.4837 533.0125 279.78058Q534.325 279.07745 536.04376 279.07745Q537.27814 279.07745 538.27814 279.4837Q539.29376 279.88995 539.85626 280.6087Q540.4344 281.32745 540.73126 282.4837L539.35626 282.8587Q539.10626 281.9837 538.71564 281.4837Q538.34064 280.9837 537.6219 280.68683Q536.91876 280.37433 536.04376 280.37433Q535.0125 280.37433 534.2469 280.70245Q533.4969 281.01495 533.02814 281.53058Q532.5594 282.0462 532.3094 282.65558Q531.8719 283.71808 531.8719 284.96808Q531.8719 286.49933 532.3875 287.53058Q532.91876 288.56183 533.91876 289.06183Q534.9344 289.56183 536.075 289.56183Q537.0594 289.56183 537.9969 289.18683Q538.9344 288.7962 539.41876 288.37433L539.41876 286.2337L536.04376 286.2337ZM542.4969 290.7337L542.4969 282.43683L543.7625 282.43683L543.7625 283.68683Q544.2469 282.81183 544.65314 282.53058Q545.0594 282.24933 545.5594 282.24933Q546.2625 282.24933 546.9969 282.70245L546.5125 283.99933Q545.9969 283.70245 545.48126 283.70245Q545.02814 283.70245 544.65314 283.9837Q544.29376 284.24933 544.1375 284.74933Q543.90314 285.49933 543.90314 286.38995L543.90314 290.7337L542.4969 290.7337ZM546.98126 286.57745Q546.98126 284.28058 548.2625 283.1712Q549.34064 282.24933 550.8719 282.24933Q552.59064 282.24933 553.66876 283.37433Q554.7625 284.4837 554.7625 286.46808Q554.7625 288.06183 554.27814 288.9837Q553.79376 289.90558 552.8719 290.4212Q551.96564 290.9212 550.8719 290.9212Q549.1375 290.9212 548.0594 289.81183Q546.98126 288.68683 546.98126 286.57745ZM548.4344 286.57745Q548.4344 288.1712 549.1219 288.96808Q549.825 289.76495 550.8719 289.76495Q551.91876 289.76495 552.60626 288.96808Q553.3094 288.1712 553.3094 286.53058Q553.3094 284.99933 552.60626 284.20245Q551.91876 283.40558 550.8719 283.40558Q549.825 283.40558 549.1219 284.20245Q548.4344 284.9837 548.4344 286.57745ZM561.95 290.7337L561.95 289.51495Q560.98126 290.9212 559.3094 290.9212Q558.575 290.9212 557.9344 290.63995Q557.3094 290.3587 556.9969 289.93683Q556.6844 289.49933 556.5594 288.88995Q556.48126 288.46808 556.48126 287.57745L556.48126 282.43683L557.8875 282.43683L557.8875 287.03058Q557.8875 288.13995 557.96564 288.51495Q558.10626 289.07745 558.52814 289.38995Q558.96564 289.70245 559.59064 289.70245Q560.23126 289.70245 560.77814 289.38995Q561.34064 289.06183 561.5594 288.49933Q561.79376 287.93683 561.79376 286.87433L561.79376 282.43683L563.2 282.43683L563.2 290.7337L561.95 290.7337ZM565.5125 293.9212L565.5125 282.43683L566.79376 282.43683L566.79376 283.51495Q567.2469 282.87433 567.8094 282.56183Q568.3875 282.24933 569.2 282.24933Q570.2625 282.24933 571.075 282.7962Q571.8875 283.34308 572.29376 284.34308Q572.71564 285.32745 572.71564 286.51495Q572.71564 287.7962 572.2469 288.81183Q571.79376 289.82745 570.91876 290.37433Q570.0594 290.9212 569.09064 290.9212Q568.3875 290.9212 567.825 290.62433Q567.27814 290.32745 566.91876 289.87433L566.91876 293.9212L565.5125 293.9212ZM566.77814 286.62433Q566.77814 288.2337 567.41876 288.99933Q568.075 289.76495 568.9969 289.76495Q569.9344 289.76495 570.60626 288.96808Q571.27814 288.1712 571.27814 286.51495Q571.27814 284.9212 570.6219 284.13995Q569.96564 283.34308 569.0594 283.34308Q568.16876 283.34308 567.46564 284.18683Q566.77814 285.03058 566.77814 286.62433ZM573.95 288.24933L575.34064 288.03058Q575.45 288.87433 575.98126 289.32745Q576.52814 289.76495 577.48126 289.76495Q578.45 289.76495 578.91876 289.37433Q579.3875 288.96808 579.3875 288.43683Q579.3875 287.96808 578.98126 287.68683Q578.6844 287.49933 577.54376 287.21808Q575.9969 286.82745 575.3875 286.5462Q574.79376 286.24933 574.48126 285.74933Q574.1844 285.24933 574.1844 284.63995Q574.1844 284.07745 574.4344 283.6087Q574.6844 283.13995 575.1219 282.82745Q575.45 282.57745 576.0125 282.4212Q576.59064 282.24933 577.23126 282.24933Q578.21564 282.24933 578.95 282.53058Q579.6844 282.81183 580.02814 283.2962Q580.3875 283.76495 580.52814 284.57745L579.15314 284.76495Q579.0594 284.12433 578.60626 283.76495Q578.15314 283.40558 577.34064 283.40558Q576.3719 283.40558 575.95 283.7337Q575.54376 284.0462 575.54376 284.46808Q575.54376 284.74933 575.71564 284.96808Q575.8875 285.18683 576.2469 285.34308Q576.46564 285.4212 577.4969 285.70245Q578.98126 286.09308 579.575 286.3587Q580.16876 286.6087 580.4969 287.09308Q580.84064 287.57745 580.84064 288.2962Q580.84064 288.99933 580.41876 289.62433Q580.0125 290.2337 579.23126 290.57745Q578.46564 290.9212 577.4969 290.9212Q575.8719 290.9212 575.02814 290.24933Q574.1844 289.57745 573.95 288.24933Z" fill-rule="nonzero"/><path fill="#9e9e9e" d="M537.21564 302.78058L537.21564 301.4212L544.6219 301.4212L544.6219 302.51495Q543.52814 303.68683 542.45 305.62433Q541.3875 307.5462 540.79376 309.57745Q540.3719 311.01495 540.2625 312.7337L538.8094 312.7337Q538.84064 311.37433 539.34064 309.46808Q539.85626 307.5462 540.79376 305.78058Q541.7469 303.99933 542.825 302.78058L537.21564 302.78058ZM553.5125 311.37433L553.5125 312.7337L545.9344 312.7337Q545.91876 312.21808 546.10626 311.74933Q546.3875 310.9837 547.02814 310.2337Q547.66876 309.4837 548.8719 308.49933Q550.73126 306.96808 551.3875 306.07745Q552.04376 305.1712 552.04376 304.37433Q552.04376 303.5462 551.45 302.96808Q550.85626 302.38995 549.8875 302.38995Q548.8719 302.38995 548.2625 302.99933Q547.65314 303.6087 547.65314 304.68683L546.2 304.5462Q546.35626 302.9212 547.325 302.07745Q548.29376 301.2337 549.91876 301.2337Q551.575 301.2337 552.52814 302.15558Q553.4969 303.06183 553.4969 304.40558Q553.4969 305.09308 553.21564 305.76495Q552.9344 306.4212 552.27814 307.15558Q551.6219 307.88995 550.10626 309.1712Q548.84064 310.2337 548.48126 310.62433Q548.1219 310.99933 547.8875 311.37433L553.5125 311.37433ZM555.90314 312.7337L555.90314 311.12433L557.5125 311.12433L557.5125 312.7337L555.90314 312.7337ZM559.21564 302.78058L559.21564 301.4212L566.6219 301.4212L566.6219 302.51495Q565.52814 303.68683 564.45 305.62433Q563.3875 307.5462 562.79376 309.57745Q562.3719 311.01495 562.2625 312.7337L560.8094 312.7337Q560.84064 311.37433 561.34064 309.46808Q561.85626 307.5462 562.79376 305.78058Q563.7469 303.99933 564.825 302.78058L559.21564 302.78058ZM568.3875 304.03058Q568.3875 302.7962 568.9969 301.93683Q569.6219 301.07745 570.79376 301.07745Q571.8719 301.07745 572.575 301.8587Q573.27814 302.62433 573.27814 304.1087Q573.27814 305.56183 572.5594 306.3587Q571.85626 307.13995 570.8094 307.13995Q569.7625 307.13995 569.075 306.37433Q568.3875 305.59308 568.3875 304.03058ZM570.825 302.0462Q570.3094 302.0462 569.95 302.49933Q569.60626 302.95245 569.60626 304.1712Q569.60626 305.26495 569.95 305.71808Q570.3094 306.1712 570.825 306.1712Q571.35626 306.1712 571.7 305.71808Q572.0594 305.26495 572.0594 304.06183Q572.0594 302.95245 571.7 302.49933Q571.35626 302.0462 570.825 302.0462ZM570.84064 313.15558L577.10626 301.07745L578.2469 301.07745L571.9969 313.15558L570.84064 313.15558ZM575.79376 310.0462Q575.79376 308.81183 576.40314 307.95245Q577.02814 307.09308 578.2 307.09308Q579.27814 307.09308 579.98126 307.87433Q580.7 308.63995 580.7 310.12433Q580.7 311.57745 579.98126 312.37433Q579.2625 313.15558 578.21564 313.15558Q577.16876 313.15558 576.48126 312.37433Q575.79376 311.59308 575.79376 310.0462ZM578.2469 308.06183Q577.71564 308.06183 577.35626 308.51495Q577.0125 308.96808 577.0125 310.18683Q577.0125 311.28058 577.35626 311.7337Q577.71564 312.18683 578.23126 312.18683Q578.77814 312.18683 579.1219 311.7337Q579.46564 311.28058 579.46564 310.07745Q579.46564 308.96808 579.10626 308.51495Q578.7625 308.06183 578.2469 308.06183Z" fill-rule="nonzero"/><path stroke="#757575" stroke-width="1.0" stroke-linecap="butt" d="M581.45 296.2337L454.76666 296.2337L406.80884 296.2337" fill-rule="nonzero"/><path fill="#9e9e9e" d="M408.80884 296.2337C408.80884 295.12915 407.9134 294.2337 406.80884 294.2337C405.70425 294.2337 404.80884 295.12915 404.80884 296.2337C404.80884 297.3383 405.70425 298.2337 406.80884 298.2337C407.9134 298.2337 408.80884 297.3383 408.80884 296.2337" fill-rule="nonzero"/><path fill="#f3f3f3" d="M271.26562 32.534374L273.15625 33.003124Q272.5625 35.346874 271.01562 36.58125Q269.46875 37.8 267.21875 37.8Q264.90625 37.8 263.45312 36.8625Q262.01562 35.909374 261.25 34.128124Q260.5 32.33125 260.5 30.284374Q260.5 28.05 261.34375 26.39375Q262.20312 24.721874 263.78125 23.8625Q265.35938 22.9875 267.25 22.9875Q269.40625 22.9875 270.85938 24.08125Q272.32812 25.175 272.90625 27.159374L271.04688 27.596874Q270.54688 26.034374 269.59375 25.33125Q268.65625 24.6125 267.21875 24.6125Q265.5625 24.6125 264.45312 25.409374Q263.34375 26.190624 262.89062 27.534374Q262.45312 28.8625 262.45312 30.26875Q262.45312 32.096874 262.98438 33.471874Q263.51562 34.83125 264.64062 35.503124Q265.76562 36.175 267.0625 36.175Q268.65625 36.175 269.76562 35.253124Q270.875 34.33125 271.26562 32.534374ZM281.59375 36.26875Q280.60938 37.096874 279.70312 37.440624Q278.79688 37.784374 277.76562 37.784374Q276.0625 37.784374 275.14062 36.95625Q274.21875 36.1125 274.21875 34.815624Q274.21875 34.05 274.5625 33.425Q274.92188 32.8 275.48438 32.425Q276.04688 32.034374 276.75 31.83125Q277.26562 31.70625 278.3125 31.565624Q280.4375 31.315624 281.4375 30.971874Q281.45312 30.6125 281.45312 30.503124Q281.45312 29.440624 280.95312 28.9875Q280.28125 28.39375 278.95312 28.39375Q277.70312 28.39375 277.10938 28.83125Q276.53125 29.26875 276.25 30.378124L274.53125 30.14375Q274.76562 29.034374 275.29688 28.3625Q275.82812 27.675 276.84375 27.315624Q277.85938 26.940624 279.20312 26.940624Q280.53125 26.940624 281.35938 27.253124Q282.1875 27.565624 282.57812 28.05Q282.96875 28.51875 283.125 29.2375Q283.21875 29.690624 283.21875 30.8625L283.21875 33.20625Q283.21875 35.659374 283.32812 36.315624Q283.4375 36.95625 283.78125 37.55L281.9375 37.55Q281.67188 37.003124 281.59375 36.26875ZM281.4375 32.346874Q280.48438 32.7375 278.5625 33.003124Q277.48438 33.159374 277.03125 33.3625Q276.59375 33.55 276.34375 33.925Q276.09375 34.3 276.09375 34.76875Q276.09375 35.471874 276.625 35.940624Q277.15625 36.409374 278.1875 36.409374Q279.20312 36.409374 279.98438 35.971874Q280.78125 35.51875 281.15625 34.753124Q281.4375 34.14375 281.4375 32.9875L281.4375 32.346874ZM289.65625 35.971874L289.90625 37.534374Q289.17188 37.690624 288.57812 37.690624Q287.625 37.690624 287.09375 37.39375Q286.57812 37.08125 286.35938 36.596874Q286.14062 36.096874 286.14062 34.51875L286.14062 28.55L284.85938 28.55L284.85938 27.175L286.14062 27.175L286.14062 24.6125L287.89062 23.55L287.89062 27.175L289.65625 27.175L289.65625 28.55L287.89062 28.55L287.89062 34.6125Q287.89062 35.3625 287.98438 35.58125Q288.07812 35.784374 288.28125 35.925Q288.5 36.05 288.89062 36.05Q289.17188 36.05 289.65625 35.971874ZM298.92188 34.20625L300.73438 34.440624Q300.3125 36.01875 299.14062 36.909374Q297.98438 37.784374 296.17188 37.784374Q293.90625 37.784374 292.5625 36.39375Q291.23438 34.9875 291.23438 32.45625Q291.23438 29.83125 292.57812 28.39375Q293.92188 26.940624 296.07812 26.940624Q298.15625 26.940624 299.46875 28.3625Q300.79688 29.76875 300.79688 32.346874Q300.79688 32.503124 300.78125 32.815624L293.04688 32.815624Q293.14062 34.51875 294.01562 35.425Q294.89062 36.33125 296.1875 36.33125Q297.15625 36.33125 297.82812 35.83125Q298.51562 35.315624 298.92188 34.20625ZM293.14062 31.3625L298.9375 31.3625Q298.82812 30.065624 298.28125 29.409374Q297.4375 28.39375 296.09375 28.39375Q294.89062 28.39375 294.0625 29.20625Q293.23438 30.003124 293.14062 31.3625ZM302.5 38.409374L304.20312 38.659374Q304.3125 39.45625 304.79688 39.815624Q305.45312 40.3 306.59375 40.3Q307.8125 40.3 308.46875 39.815624Q309.14062 39.33125 309.375 38.45625Q309.51562 37.909374 309.5 36.190624Q308.34375 37.55 306.625 37.55Q304.48438 37.55 303.3125 36.003124Q302.14062 34.45625 302.14062 32.3Q302.14062 30.815624 302.67188 29.565624Q303.21875 28.315624 304.23438 27.628124Q305.26562 26.940624 306.64062 26.940624Q308.46875 26.940624 309.67188 28.425L309.67188 27.175L311.28125 27.175L311.28125 36.14375Q311.28125 38.565624 310.78125 39.565624Q310.29688 40.58125 309.21875 41.159374Q308.15625 41.753124 306.59375 41.753124Q304.75 41.753124 303.59375 40.925Q302.45312 40.096874 302.5 38.409374ZM303.95312 32.175Q303.95312 34.221874 304.76562 35.159374Q305.57812 36.096874 306.79688 36.096874Q308.0 36.096874 308.8125 35.159374Q309.64062 34.221874 309.64062 32.2375Q309.64062 30.33125 308.79688 29.3625Q307.95312 28.39375 306.76562 28.39375Q305.59375 28.39375 304.76562 29.346874Q303.95312 30.3 303.95312 32.175ZM313.17188 32.3625Q313.17188 29.4875 314.76562 28.096874Q316.10938 26.940624 318.03125 26.940624Q320.17188 26.940624 321.51562 28.346874Q322.875 29.753124 322.875 32.221874Q322.875 34.221874 322.28125 35.378124Q321.6875 36.51875 320.53125 37.159374Q319.39062 37.784374 318.03125 37.784374Q315.84375 37.784374 314.5 36.39375Q313.17188 34.9875 313.17188 32.3625ZM314.96875 32.3625Q314.96875 34.3625 315.82812 35.346874Q316.70312 36.33125 318.03125 36.33125Q319.34375 36.33125 320.20312 35.346874Q321.07812 34.346874 321.07812 32.3Q321.07812 30.378124 320.20312 29.39375Q319.32812 28.39375 318.03125 28.39375Q316.70312 28.39375 315.82812 29.39375Q314.96875 30.378124 314.96875 32.3625ZM324.79688 37.55L324.79688 27.175L326.375 27.175L326.375 28.753124Q326.98438 27.64375 327.5 27.3Q328.01562 26.940624 328.625 26.940624Q329.51562 26.940624 330.4375 27.503124L329.82812 29.14375Q329.1875 28.753124 328.54688 28.753124Q327.96875 28.753124 327.5 29.1125Q327.04688 29.45625 326.84375 30.065624Q326.5625 31.003124 326.5625 32.1125L326.5625 37.55L324.79688 37.55ZM331.73438 41.55L331.54688 39.89375Q332.125 40.05 332.54688 40.05Q333.14062 40.05 333.48438 39.846874Q333.84375 39.659374 334.0625 39.315624Q334.23438 39.05 334.60938 38.003124Q334.65625 37.846874 334.76562 37.565624L330.82812 27.175L332.71875 27.175L334.875 33.190624Q335.29688 34.33125 335.625 35.58125Q335.9375 34.378124 336.34375 33.221874L338.5625 27.175L340.32812 27.175L336.375 37.721874Q335.75 39.440624 335.39062 40.08125Q334.92188 40.95625 334.3125 41.346874Q333.71875 41.753124 332.875 41.753124Q332.35938 41.753124 331.73438 41.55Z" fill-rule="nonzero"/></svg>