<svg version="1.1" viewBox="0.0 0.0 600.0 371.0" fill="none" stroke="none" stroke-linecap="square" stroke-miterlimit="10" width="600" height="371" xmlns:xlink="http://www.w3.org/1999/xlink" xmlns="http://www.w3.org/2000/svg"><path fill="#ffffff" fill-opacity="0.0" d="M0 0L600.0 0L600.0 371.0L0 371.0L0 0Z" fill-rule="nonzero"/><path fill="#533990" d="M300.0 54.916668C302.9396 54.916668 305.87857 55.003796 308.81302 55.17794L302.20325 166.55699C301.46964 166.51344 300.7349 166.49167 300.0 166.49167Z" fill-rule="nonzero"/><path fill="#f7d750" d="M273.68463 57.26263C282.36948 55.70175 291.176 54.916668 300.0 54.916668L300.0 166.49167C297.794 166.49167 295.59238 166.68794 293.42114 167.07816Z" fill-rule="nonzero"/><path fill="#e5a345" d="M256.5517 61.40275C262.1758 59.685303 267.89685 58.302837 273.68463 57.26263L293.42114 167.07816C291.9742 167.33821 290.54395 167.68382 289.1379 168.11319Z" fill-rule="nonzero"/><path fill="#df8d43" d="M240.02867 67.54017C245.4102 65.16959 250.92755 63.120193 256.5517 61.40275L289.1379 168.11319C287.7319 168.54254 286.35254 169.0549 285.00717 169.64754Z" fill-rule="nonzero"/><path fill="#d8753e" d="M224.34752 75.588745C229.4109 72.59832 234.64714 69.91074 240.02867 67.54017L285.00717 169.64754C283.66177 170.24019 282.35272 170.91208 281.08688 171.65968Z" fill-rule="nonzero"/><path fill="#cf4366" d="M308.81302 55.17794C382.36218 59.542706 441.63666 117.085945 448.17902 190.47346C454.72137 263.861 406.56046 330.98187 334.9432 348.28793C263.32596 365.594 189.82991 327.8711 162.13948 259.59396C134.44904 191.3168 160.90707 113.05659 224.34752 75.588745L281.08688 171.65968C265.22678 181.02664 258.61227 200.5917 265.53488 217.66098C272.4575 234.73027 290.83148 244.161 308.7358 239.83449C326.6401 235.50797 338.68033 218.72774 337.04474 200.38086C335.40918 182.03398 320.59055 167.64818 302.20325 166.55699Z" fill-rule="nonzero"/><path fill="#ffffff" d="M301.52017 314.9422L303.0358 314.80157Q303.23892 315.8797 303.77017 316.36407Q304.31705 316.84845 305.17642 316.84845Q305.9108 316.84845 306.45767 316.52032Q307.00455 316.17657 307.3483 315.6297Q307.70767 315.0672 307.94205 314.11407Q308.17642 313.16095 308.17642 312.17657Q308.17642 312.0672 308.17642 311.86407Q307.69205 312.61407 306.86392 313.08282Q306.05142 313.55157 305.0983 313.55157Q303.50455 313.55157 302.39517 312.39532Q301.2858 311.23907 301.2858 309.33282Q301.2858 307.3797 302.44205 306.1922Q303.5983 304.98907 305.33267 304.98907Q306.5983 304.98907 307.62955 305.67657Q308.67642 306.34845 309.20767 307.59845Q309.75455 308.84845 309.75455 311.22345Q309.75455 313.6922 309.20767 315.16095Q308.67642 316.61407 307.61392 317.3797Q306.56705 318.14532 305.14517 318.14532Q303.62955 318.14532 302.6608 317.3172Q301.70767 316.47345 301.52017 314.9422ZM308.00455 309.2547Q308.00455 307.89532 307.27017 307.09845Q306.55142 306.30157 305.5358 306.30157Q304.4733 306.30157 303.69205 307.16095Q302.9108 308.02032 302.9108 309.39532Q302.9108 310.6297 303.64517 311.39532Q304.39517 312.16095 305.48892 312.16095Q306.58267 312.16095 307.2858 311.39532Q308.00455 310.6297 308.00455 309.2547ZM311.2858 311.5672Q311.2858 309.28595 311.75455 307.89532Q312.2233 306.5047 313.14517 305.7547Q314.08267 304.98907 315.48892 304.98907Q316.52017 304.98907 317.30142 305.41095Q318.08267 305.8172 318.58267 306.61407Q319.0983 307.39532 319.39517 308.53595Q319.69205 309.66095 319.69205 311.5672Q319.69205 313.83282 319.2233 315.23907Q318.75455 316.6297 317.81705 317.39532Q316.89517 318.14532 315.48892 318.14532Q313.61392 318.14532 312.55142 316.8172Q311.2858 315.20782 311.2858 311.5672ZM312.9108 311.5672Q312.9108 314.73907 313.64517 315.80157Q314.39517 316.84845 315.48892 316.84845Q316.56705 316.84845 317.31705 315.80157Q318.06705 314.73907 318.06705 311.5672Q318.06705 308.39532 317.31705 307.34845Q316.56705 306.30157 315.4733 306.30157Q314.37955 306.30157 313.7233 307.22345Q312.9108 308.39532 312.9108 311.5672ZM322.17642 317.92657L322.17642 316.1297L323.9733 316.1297L323.9733 317.92657L322.17642 317.92657ZM334.48892 308.1922L332.92642 308.3172Q332.70767 307.39532 332.31705 306.97345Q331.67642 306.28595 330.73892 306.28595Q329.98892 306.28595 329.4108 306.70782Q328.6608 307.2547 328.2233 308.30157Q327.80142 309.34845 327.7858 311.28595Q328.36392 310.41095 329.17642 309.98907Q330.00455 309.5672 330.9108 309.5672Q332.50455 309.5672 333.61392 310.73907Q334.7233 311.89532 334.7233 313.73907Q334.7233 314.95782 334.19205 316.0047Q333.67642 317.03595 332.75455 317.59845Q331.8483 318.14532 330.69205 318.14532Q328.70767 318.14532 327.45767 316.6922Q326.20767 315.23907 326.20767 311.89532Q326.20767 308.16095 327.5983 306.45782Q328.80142 304.98907 330.83267 304.98907Q332.36392 304.98907 333.33267 305.84845Q334.30142 306.6922 334.48892 308.1922ZM328.0358 313.7547Q328.0358 314.5672 328.37955 315.3172Q328.7233 316.0672 329.3483 316.45782Q329.9733 316.84845 330.6608 316.84845Q331.6608 316.84845 332.37955 316.03595Q333.0983 315.22345 333.0983 313.83282Q333.0983 312.5047 332.37955 311.73907Q331.67642 310.95782 330.5983 310.95782Q329.52017 310.95782 328.77017 311.73907Q328.0358 312.5047 328.0358 313.7547ZM336.58267 308.1297Q336.58267 306.7547 337.27017 305.78595Q337.9733 304.8172 339.2858 304.8172Q340.50455 304.8172 341.30142 305.6922Q342.0983 306.55157 342.0983 308.23907Q342.0983 309.86407 341.2858 310.7547Q340.48892 311.6297 339.30142 311.6297Q338.14517 311.6297 337.36392 310.77032Q336.58267 309.89532 336.58267 308.1297ZM339.33267 305.91095Q338.73892 305.91095 338.3483 306.42657Q337.95767 306.92657 337.95767 308.28595Q337.95767 309.53595 338.3483 310.03595Q338.75455 310.53595 339.33267 310.53595Q339.92642 310.53595 340.31705 310.03595Q340.70767 309.52032 340.70767 308.17657Q340.70767 306.92657 340.31705 306.42657Q339.92642 305.91095 339.33267 305.91095ZM339.3483 318.39532L346.39517 304.8172L347.67642 304.8172L340.64517 318.39532L339.3483 318.39532ZM344.9108 314.89532Q344.9108 313.52032 345.5983 312.55157Q346.30142 311.58282 347.62955 311.58282Q348.8483 311.58282 349.62955 312.45782Q350.42642 313.3172 350.42642 315.0047Q350.42642 316.6297 349.62955 317.52032Q348.83267 318.39532 347.64517 318.39532Q346.4733 318.39532 345.69205 317.52032Q344.9108 316.64532 344.9108 314.89532ZM347.67642 312.67657Q347.08267 312.67657 346.69205 313.1922Q346.30142 313.6922 346.30142 315.0672Q346.30142 316.28595 346.69205 316.80157Q347.08267 317.3172 347.6608 317.3172Q348.27017 317.3172 348.6608 316.80157Q349.05142 316.28595 349.05142 314.9422Q349.05142 313.6922 348.6608 313.1922Q348.27017 312.67657 347.67642 312.67657Z" fill-rule="nonzero"/><path stroke="#ffffff" stroke-width="1.0" stroke-linejoin="round" stroke-linecap="round" d="M302.20325 166.55699C301.46964 166.51344 300.7349 166.49167 300.0 166.49167L300.0 54.916668C302.9396 54.916668 305.87857 55.003796 308.81302 55.17794" fill-rule="nonzero"/><path stroke="#ffffff" stroke-width="1.0" stroke-linejoin="round" stroke-linecap="round" d="M281.08688 171.65968C265.22678 181.02664 258.61227 200.5917 265.53488 217.66098C272.4575 234.73027 290.83148 244.161 308.7358 239.83449C326.6401 235.50797 338.68033 218.72774 337.04474 200.38086C335.40918 182.03398 320.59055 167.64818 302.20325 166.55699L308.81302 55.17794C382.36218 59.542706 441.63666 117.085945 448.17902 190.47346C454.72137 263.861 406.56046 330.98187 334.9432 348.28793C263.32596 365.594 189.82991 327.8711 162.13948 259.59396C134.44904 191.3168 160.90707 113.05659 224.34752 75.588745" fill-rule="nonzero"/><path stroke="#ffffff" stroke-width="1.0" stroke-linejoin="round" stroke-linecap="round" d="M285.00717 169.64754C283.66177 170.24019 282.35272 170.91208 281.08688 171.65968L224.34752 75.588745C229.4109 72.59832 234.64714 69.91074 240.02867 67.54017" fill-rule="nonzero"/><path stroke="#ffffff" stroke-width="1.0" stroke-linejoin="round" stroke-linecap="round" d="M289.1379 168.11319C287.7319 168.54254 286.35254 169.0549 285.00717 169.64754L240.02867 67.54017C245.4102 65.16959 250.92755 63.120193 256.5517 61.40275" fill-rule="nonzero"/><path stroke="#ffffff" stroke-width="1.0" stroke-linejoin="round" stroke-linecap="round" d="M293.42114 167.07816C291.9742 167.33821 290.54395 167.68382 289.1379 168.11319L256.5517 61.40275C262.1758 59.685303 267.89685 58.302837 273.68463 57.26263" fill-rule="nonzero"/><path stroke="#ffffff" stroke-width="1.0" stroke-linejoin="round" stroke-linecap="round" d="M300.0 166.49167C297.794 166.49167 295.59238 166.68794 293.42114 167.07816L273.68463 57.26263C282.36948 55.70175 291.176 54.916668 300.0 54.916668" fill-rule="nonzero"/><path fill="#efefef" d="M19.784374 69.916664L19.784374 58.46354L24.1125 58.46354Q25.253124 58.46354 25.846874 58.572914Q26.690624 58.71354 27.253124 59.104164Q27.83125 59.49479 28.175 60.21354Q28.534374 60.916664 28.534374 61.77604Q28.534374 63.229164 27.596874 64.24479Q26.675 65.260414 24.2375 65.260414L21.3 65.260414L21.3 69.916664L19.784374 69.916664ZM21.3 63.90104L24.26875 63.90104Q25.7375 63.90104 26.346874 63.354164Q26.971874 62.80729 26.971874 61.822914Q26.971874 61.104164 26.596874 60.58854Q26.2375 60.072914 25.64375 59.916664Q25.26875 59.80729 24.2375 59.80729L21.3 59.80729L21.3 63.90104ZM36.01875 68.885414Q35.2375 69.55729 34.51875 69.83854Q33.8 70.104164 32.971874 70.104164Q31.596874 70.104164 30.8625 69.43229Q30.128124 68.760414 30.128124 67.729164Q30.128124 67.11979 30.409374 66.61979Q30.690624 66.104164 31.128124 65.80729Q31.58125 65.49479 32.14375 65.33854Q32.565624 65.229164 33.39375 65.135414Q35.096874 64.93229 35.909374 64.65104Q35.909374 64.354164 35.909374 64.27604Q35.909374 63.416664 35.51875 63.072914Q34.971874 62.58854 33.909374 62.58854Q32.925 62.58854 32.440624 62.947914Q31.971874 63.291664 31.753124 64.166664L30.378124 63.979164Q30.565624 63.104164 30.9875 62.55729Q31.425 62.010414 32.2375 61.729164Q33.05 61.43229 34.1125 61.43229Q35.175 61.43229 35.83125 61.68229Q36.503124 61.93229 36.815624 62.30729Q37.128124 62.68229 37.253124 63.260414Q37.33125 63.61979 37.33125 64.55729L37.33125 66.43229Q37.33125 68.40104 37.409374 68.916664Q37.503124 69.43229 37.76875 69.916664L36.3 69.916664Q36.08125 69.479164 36.01875 68.885414ZM35.909374 65.74479Q35.14375 66.05729 33.6125 66.27604Q32.7375 66.40104 32.378124 66.55729Q32.01875 66.71354 31.815624 67.02604Q31.628124 67.322914 31.628124 67.68229Q31.628124 68.24479 32.05 68.61979Q32.4875 68.99479 33.3 68.99479Q34.1125 68.99479 34.7375 68.65104Q35.378124 68.291664 35.675 67.666664Q35.909374 67.197914 35.909374 66.260414L35.909374 65.74479ZM39.346874 70.604164L40.721874 70.80729Q40.8 71.447914 41.190624 71.729164Q41.721874 72.11979 42.628124 72.11979Q43.596874 72.11979 44.128124 71.729164Q44.659374 71.33854 44.846874 70.635414Q44.95625 70.21354 44.95625 68.822914Q44.034374 69.916664 42.659374 69.916664Q40.940624 69.916664 40.003124 68.68229Q39.065624 67.447914 39.065624 65.71354Q39.065624 64.52604 39.4875 63.52604Q39.925 62.52604 40.7375 61.979164Q41.565624 61.43229 42.659374 61.43229Q44.128124 61.43229 45.08125 62.61979L45.08125 61.61979L46.378124 61.61979L46.378124 68.791664Q46.378124 70.729164 45.9875 71.541664Q45.596874 72.354164 44.7375 72.822914Q43.878124 73.291664 42.628124 73.291664Q41.14375 73.291664 40.221874 72.61979Q39.315624 71.947914 39.346874 70.604164ZM40.51875 65.61979Q40.51875 67.24479 41.159374 67.99479Q41.815624 68.74479 42.784374 68.74479Q43.753124 68.74479 44.409374 68.010414Q45.065624 67.260414 45.065624 65.666664Q45.065624 64.135414 44.39375 63.36979Q43.721874 62.58854 42.76875 62.58854Q41.83125 62.58854 41.175 63.354164Q40.51875 64.11979 40.51875 65.61979ZM54.284374 67.24479L55.7375 67.416664Q55.39375 68.697914 54.45625 69.40104Q53.534374 70.104164 52.096874 70.104164Q50.26875 70.104164 49.20625 68.979164Q48.14375 67.854164 48.14375 65.83854Q48.14375 63.74479 49.221874 62.58854Q50.3 61.43229 52.01875 61.43229Q53.675 61.43229 54.721874 62.572914Q55.784374 63.697914 55.784374 65.74479Q55.784374 65.86979 55.784374 66.11979L49.596874 66.11979Q49.675 67.49479 50.3625 68.229164Q51.065624 68.947914 52.096874 68.947914Q52.878124 68.947914 53.425 68.541664Q53.971874 68.135414 54.284374 67.24479ZM49.675 64.96354L54.3 64.96354Q54.20625 63.916664 53.76875 63.40104Q53.096874 62.58854 52.034374 62.58854Q51.065624 62.58854 50.39375 63.24479Q49.7375 63.885414 49.675 64.96354Z" fill-rule="nonzero"/><path fill="#9e9e9e" d="M26.6125 90.55729L26.6125 91.916664L19.034374 91.916664Q19.01875 91.40104 19.20625 90.93229Q19.4875 90.166664 20.128124 89.416664Q20.76875 88.666664 21.971874 87.68229Q23.83125 86.15104 24.4875 85.260414Q25.14375 84.354164 25.14375 83.55729Q25.14375 82.729164 24.55 82.15104Q23.95625 81.572914 22.9875 81.572914Q21.971874 81.572914 21.3625 82.18229Q20.753124 82.791664 20.753124 83.86979L19.3 83.729164Q19.45625 82.104164 20.425 81.260414Q21.39375 80.416664 23.01875 80.416664Q24.675 80.416664 25.628124 81.33854Q26.596874 82.24479 26.596874 83.58854Q26.596874 84.27604 26.315624 84.947914Q26.034374 85.604164 25.378124 86.33854Q24.721874 87.072914 23.20625 88.354164Q21.940624 89.416664 21.58125 89.80729Q21.221874 90.18229 20.9875 90.55729L26.6125 90.55729ZM29.003124 91.916664L29.003124 90.30729L30.6125 90.30729L30.6125 91.916664L29.003124 91.916664ZM34.378124 85.697914Q33.503124 85.385414 33.08125 84.791664Q32.659374 84.197914 32.659374 83.36979Q32.659374 82.11979 33.55 81.27604Q34.45625 80.416664 35.95625 80.416664Q37.45625 80.416664 38.3625 81.291664Q39.284374 82.15104 39.284374 83.40104Q39.284374 84.197914 38.8625 84.791664Q38.440624 85.385414 37.596874 85.697914Q38.64375 86.041664 39.190624 86.80729Q39.753124 87.572914 39.753124 88.635414Q39.753124 90.104164 38.70625 91.11979Q37.675 92.11979 35.971874 92.11979Q34.284374 92.11979 33.2375 91.11979Q32.20625 90.104164 32.20625 88.604164Q32.20625 87.479164 32.76875 86.729164Q33.33125 85.979164 34.378124 85.697914ZM34.096874 83.322914Q34.096874 84.135414 34.6125 84.65104Q35.14375 85.166664 35.9875 85.166664Q36.8 85.166664 37.315624 84.65104Q37.83125 84.135414 37.83125 83.40104Q37.83125 82.61979 37.3 82.104164Q36.76875 81.572914 35.971874 81.572914Q35.159374 81.572914 34.628124 82.08854Q34.096874 82.604164 34.096874 83.322914ZM33.64375 88.604164Q33.64375 89.21354 33.925 89.77604Q34.221874 90.33854 34.784374 90.65104Q35.346874 90.947914 35.9875 90.947914Q37.003124 90.947914 37.659374 90.30729Q38.315624 89.65104 38.315624 88.65104Q38.315624 87.635414 37.628124 86.979164Q36.95625 86.30729 35.940624 86.30729Q34.95625 86.30729 34.3 86.96354Q33.64375 87.61979 33.64375 88.604164ZM41.4875 83.21354Q41.4875 81.979164 42.096874 81.11979Q42.721874 80.260414 43.89375 80.260414Q44.971874 80.260414 45.675 81.041664Q46.378124 81.80729 46.378124 83.291664Q46.378124 84.74479 45.659374 85.541664Q44.95625 86.322914 43.909374 86.322914Q42.8625 86.322914 42.175 85.55729Q41.4875 84.77604 41.4875 83.21354ZM43.925 81.229164Q43.409374 81.229164 43.05 81.68229Q42.70625 82.135414 42.70625 83.354164Q42.70625 84.447914 43.05 84.90104Q43.409374 85.354164 43.925 85.354164Q44.45625 85.354164 44.8 84.90104Q45.159374 84.447914 45.159374 83.24479Q45.159374 82.135414 44.8 81.68229Q44.45625 81.229164 43.925 81.229164ZM43.940624 92.33854L50.20625 80.260414L51.346874 80.260414L45.096874 92.33854L43.940624 92.33854ZM48.89375 89.229164Q48.89375 87.99479 49.503124 87.135414Q50.128124 86.27604 51.3 86.27604Q52.378124 86.27604 53.08125 87.05729Q53.8 87.822914 53.8 89.30729Q53.8 90.760414 53.08125 91.55729Q52.3625 92.33854 51.315624 92.33854Q50.26875 92.33854 49.58125 91.55729Q48.89375 90.77604 48.89375 89.229164ZM51.346874 87.24479Q50.815624 87.24479 50.45625 87.697914Q50.1125 88.15104 50.1125 89.36979Q50.1125 90.46354 50.45625 90.916664Q50.815624 91.36979 51.33125 91.36979Q51.878124 91.36979 52.221874 90.916664Q52.565624 90.46354 52.565624 89.260414Q52.565624 88.15104 52.20625 87.697914Q51.8625 87.24479 51.346874 87.24479Z" fill-rule="nonzero"/><path stroke="#757575" stroke-width="1.0" stroke-linecap="butt" d="M18.55 75.416664L145.23334 75.416664L287.45062 62.91327" fill-rule="nonzero"/><path fill="#9e9e9e" d="M289.45062 62.91327C289.45062 61.8087 288.5552 60.91327 287.45062 60.91327C286.34607 60.91327 285.45062 61.8087 285.45062 62.91327C285.45062 64.01784 286.34607 64.91327 287.45062 64.91327C288.5552 64.91327 289.45062 64.01784 289.45062 62.91327" fill-rule="nonzero"/><path fill="#efefef" d="M498.6844 69.916664L498.6844 58.46354L503.0125 58.46354Q504.15314 58.46354 504.7469 58.572914Q505.59064 58.71354 506.15314 59.104164Q506.73126 59.49479 507.075 60.21354Q507.4344 60.916664 507.4344 61.77604Q507.4344 63.229164 506.4969 64.24479Q505.575 65.260414 503.1375 65.260414L500.2 65.260414L500.2 69.916664L498.6844 69.916664ZM500.2 63.90104L503.16876 63.90104Q504.6375 63.90104 505.2469 63.354164Q505.8719 62.80729 505.8719 61.822914Q505.8719 61.104164 505.4969 60.58854Q505.1375 60.072914 504.54376 59.916664Q504.16876 59.80729 503.1375 59.80729L500.2 59.80729L500.2 63.90104ZM515.1844 67.24479L516.6375 67.416664Q516.29376 68.697914 515.35626 69.40104Q514.4344 70.104164 512.9969 70.104164Q511.16876 70.104164 510.10626 68.979164Q509.04376 67.854164 509.04376 65.83854Q509.04376 63.74479 510.1219 62.58854Q511.2 61.43229 512.91876 61.43229Q514.575 61.43229 515.6219 62.572914Q516.6844 63.697914 516.6844 65.74479Q516.6844 65.86979 516.6844 66.11979L510.4969 66.11979Q510.575 67.49479 511.2625 68.229164Q511.96564 68.947914 512.9969 68.947914Q513.77814 68.947914 514.325 68.541664Q514.8719 68.135414 515.1844 67.24479ZM510.575 64.96354L515.2 64.96354Q515.10626 63.916664 514.66876 63.40104Q513.9969 62.58854 512.9344 62.58854Q511.96564 62.58854 511.29376 63.24479Q510.6375 63.885414 510.575 64.96354ZM518.4969 69.916664L518.4969 61.61979L519.7625 61.61979L519.7625 62.86979Q520.2469 61.99479 520.65314 61.71354Q521.0594 61.43229 521.5594 61.43229Q522.2625 61.43229 522.9969 61.885414L522.5125 63.18229Q521.9969 62.885414 521.48126 62.885414Q521.02814 62.885414 520.65314 63.166664Q520.29376 63.43229 520.1375 63.93229Q519.90314 64.68229 519.90314 65.572914L519.90314 69.916664L518.4969 69.916664ZM522.95 67.43229L524.34064 67.21354Q524.45 68.05729 524.98126 68.510414Q525.52814 68.947914 526.48126 68.947914Q527.45 68.947914 527.91876 68.55729Q528.3875 68.15104 528.3875 67.61979Q528.3875 67.15104 527.98126 66.86979Q527.6844 66.68229 526.54376 66.40104Q524.9969 66.010414 524.3875 65.729164Q523.79376 65.43229 523.48126 64.93229Q523.1844 64.43229 523.1844 63.822914Q523.1844 63.260414 523.4344 62.791664Q523.6844 62.322914 524.1219 62.010414Q524.45 61.760414 525.0125 61.604164Q525.59064 61.43229 526.23126 61.43229Q527.21564 61.43229 527.95 61.71354Q528.6844 61.99479 529.02814 62.479164Q529.3875 62.947914 529.52814 63.760414L528.15314 63.947914Q528.0594 63.30729 527.60626 62.947914Q527.15314 62.58854 526.34064 62.58854Q525.3719 62.58854 524.95 62.916664Q524.54376 63.229164 524.54376 63.65104Q524.54376 63.93229 524.71564 64.15104Q524.8875 64.36979 525.2469 64.52604Q525.46564 64.604164 526.4969 64.885414Q527.98126 65.27604 528.575 65.541664Q529.16876 65.791664 529.4969 66.27604Q529.84064 66.760414 529.84064 67.479164Q529.84064 68.18229 529.41876 68.80729Q529.0125 69.416664 528.23126 69.760414Q527.46564 70.104164 526.4969 70.104164Q524.8719 70.104164 524.02814 69.43229Q523.1844 68.760414 522.95 67.43229ZM531.5125 73.104164L531.5125 61.61979L532.79376 61.61979L532.79376 62.697914Q533.2469 62.05729 533.8094 61.74479Q534.3875 61.43229 535.2 61.43229Q536.2625 61.43229 537.075 61.979164Q537.8875 62.52604 538.29376 63.52604Q538.71564 64.510414 538.71564 65.697914Q538.71564 66.979164 538.2469 67.99479Q537.79376 69.010414 536.91876 69.55729Q536.0594 70.104164 535.09064 70.104164Q534.3875 70.104164 533.825 69.80729Q533.27814 69.510414 532.91876 69.05729L532.91876 73.104164L531.5125 73.104164ZM532.77814 65.80729Q532.77814 67.416664 533.41876 68.18229Q534.075 68.947914 534.9969 68.947914Q535.9344 68.947914 536.60626 68.15104Q537.27814 67.354164 537.27814 65.697914Q537.27814 64.104164 536.6219 63.322914Q535.96564 62.52604 535.0594 62.52604Q534.16876 62.52604 533.46564 63.36979Q532.77814 64.21354 532.77814 65.80729ZM546.1844 67.24479L547.6375 67.416664Q547.29376 68.697914 546.35626 69.40104Q545.4344 70.104164 543.9969 70.104164Q542.16876 70.104164 541.10626 68.979164Q540.04376 67.854164 540.04376 65.83854Q540.04376 63.74479 541.1219 62.58854Q542.2 61.43229 543.91876 61.43229Q545.575 61.43229 546.6219 62.572914Q547.6844 63.697914 547.6844 65.74479Q547.6844 65.86979 547.6844 66.11979L541.4969 66.11979Q541.575 67.49479 542.2625 68.229164Q542.96564 68.947914 543.9969 68.947914Q544.77814 68.947914 545.325 68.541664Q545.8719 68.135414 546.1844 67.24479ZM541.575 64.96354L546.2 64.96354Q546.10626 63.916664 545.66876 63.40104Q544.9969 62.58854 543.9344 62.58854Q542.96564 62.58854 542.29376 63.24479Q541.6375 63.885414 541.575 64.96354ZM554.91876 66.86979L556.3094 67.05729Q556.075 68.479164 555.1375 69.291664Q554.21564 70.104164 552.85626 70.104164Q551.15314 70.104164 550.10626 68.99479Q549.075 67.86979 549.075 65.791664Q549.075 64.447914 549.5125 63.447914Q549.96564 62.43229 550.8719 61.93229Q551.79376 61.43229 552.85626 61.43229Q554.21564 61.43229 555.075 62.11979Q555.9344 62.791664 556.16876 64.05729L554.8094 64.260414Q554.60626 63.43229 554.10626 63.010414Q553.6219 62.58854 552.91876 62.58854Q551.85626 62.58854 551.1844 63.354164Q550.52814 64.104164 550.52814 65.760414Q550.52814 67.43229 551.16876 68.197914Q551.8094 68.947914 552.84064 68.947914Q553.66876 68.947914 554.21564 68.447914Q554.77814 67.93229 554.91876 66.86979ZM560.575 68.65104L560.77814 69.90104Q560.1844 70.02604 559.71564 70.02604Q558.95 70.02604 558.52814 69.791664Q558.10626 69.541664 557.9344 69.15104Q557.7625 68.74479 557.7625 67.479164L557.7625 62.71354L556.73126 62.71354L556.73126 61.61979L557.7625 61.61979L557.7625 59.55729L559.16876 58.71354L559.16876 61.61979L560.575 61.61979L560.575 62.71354L559.16876 62.71354L559.16876 67.55729Q559.16876 68.166664 559.23126 68.33854Q559.3094 68.510414 559.48126 68.61979Q559.65314 68.71354 559.96564 68.71354Q560.2 68.71354 560.575 68.65104ZM561.5125 60.072914L561.5125 58.46354L562.91876 58.46354L562.91876 60.072914L561.5125 60.072914ZM561.5125 69.916664L561.5125 61.61979L562.91876 61.61979L562.91876 69.916664L561.5125 69.916664ZM567.8094 69.916664L564.65314 61.61979L566.1375 61.61979L567.91876 66.58854Q568.21564 67.385414 568.45 68.260414Q568.6375 67.604164 568.98126 66.68229L570.825 61.61979L572.2625 61.61979L569.1219 69.916664L567.8094 69.916664ZM579.1844 67.24479L580.6375 67.416664Q580.29376 68.697914 579.35626 69.40104Q578.4344 70.104164 576.9969 70.104164Q575.16876 70.104164 574.10626 68.979164Q573.04376 67.854164 573.04376 65.83854Q573.04376 63.74479 574.1219 62.58854Q575.2 61.43229 576.91876 61.43229Q578.575 61.43229 579.6219 62.572914Q580.6844 63.697914 580.6844 65.74479Q580.6844 65.86979 580.6844 66.11979L574.4969 66.11979Q574.575 67.49479 575.2625 68.229164Q575.96564 68.947914 576.9969 68.947914Q577.77814 68.947914 578.325 68.541664Q578.8719 68.135414 579.1844 67.24479ZM574.575 64.96354L579.2 64.96354Q579.10626 63.916664 578.66876 63.40104Q577.9969 62.58854 576.9344 62.58854Q575.96564 62.58854 575.29376 63.24479Q574.6375 63.885414 574.575 64.96354Z" fill-rule="nonzero"/><path fill="#9e9e9e" d="M546.1219 86.260414Q546.1219 84.229164 546.52814 82.99479Q546.95 81.760414 547.77814 81.08854Q548.60626 80.416664 549.85626 80.416664Q550.77814 80.416664 551.46564 80.791664Q552.16876 81.15104 552.6219 81.854164Q553.075 82.55729 553.325 83.55729Q553.59064 84.55729 553.59064 86.260414Q553.59064 88.27604 553.16876 89.52604Q552.7625 90.760414 551.9344 91.447914Q551.10626 92.11979 549.85626 92.11979Q548.2 92.11979 547.2469 90.916664Q546.1219 89.49479 546.1219 86.260414ZM547.5594 86.260414Q547.5594 89.08854 548.21564 90.02604Q548.8875 90.947914 549.85626 90.947914Q550.825 90.947914 551.48126 90.010414Q552.1375 89.072914 552.1375 86.260414Q552.1375 83.43229 551.48126 82.510414Q550.825 81.572914 549.84064 81.572914Q548.8719 81.572914 548.29376 82.40104Q547.5594 83.447914 547.5594 86.260414ZM555.90314 91.916664L555.90314 90.30729L557.5125 90.30729L557.5125 91.916664L555.90314 91.916664ZM559.325 89.260414L560.6844 89.135414Q560.85626 90.08854 561.34064 90.52604Q561.825 90.947914 562.575 90.947914Q563.23126 90.947914 563.71564 90.65104Q564.2 90.354164 564.5125 89.86979Q564.825 89.36979 565.02814 88.52604Q565.2469 87.68229 565.2469 86.80729Q565.2469 86.71354 565.2469 86.52604Q564.825 87.197914 564.09064 87.61979Q563.35626 88.02604 562.5125 88.02604Q561.09064 88.02604 560.10626 86.99479Q559.1219 85.96354 559.1219 84.27604Q559.1219 82.541664 560.1375 81.479164Q561.16876 80.416664 562.71564 80.416664Q563.84064 80.416664 564.7625 81.02604Q565.6844 81.61979 566.16876 82.729164Q566.65314 83.83854 566.65314 85.947914Q566.65314 88.15104 566.16876 89.447914Q565.7 90.74479 564.7469 91.43229Q563.8094 92.11979 562.54376 92.11979Q561.2 92.11979 560.34064 91.36979Q559.4969 90.61979 559.325 89.260414ZM565.09064 84.21354Q565.09064 82.99479 564.4344 82.291664Q563.79376 81.572914 562.8875 81.572914Q561.95 81.572914 561.2469 82.33854Q560.5594 83.104164 560.5594 84.322914Q560.5594 85.416664 561.21564 86.104164Q561.8875 86.791664 562.85626 86.791664Q563.825 86.791664 564.45 86.104164Q565.09064 85.416664 565.09064 84.21354ZM568.3875 83.21354Q568.3875 81.979164 568.9969 81.11979Q569.6219 80.260414 570.79376 80.260414Q571.8719 80.260414 572.575 81.041664Q573.27814 81.80729 573.27814 83.291664Q573.27814 84.74479 572.5594 85.541664Q571.85626 86.322914 570.8094 86.322914Q569.7625 86.322914 569.075 85.55729Q568.3875 84.77604 568.3875 83.21354ZM570.825 81.229164Q570.3094 81.229164 569.95 81.68229Q569.60626 82.135414 569.60626 83.354164Q569.60626 84.447914 569.95 84.90104Q570.3094 85.354164 570.825 85.354164Q571.35626 85.354164 571.7 84.90104Q572.0594 84.447914 572.0594 83.24479Q572.0594 82.135414 571.7 81.68229Q571.35626 81.229164 570.825 81.229164ZM570.84064 92.33854L577.10626 80.260414L578.2469 80.260414L571.9969 92.33854L570.84064 92.33854ZM575.79376 89.229164Q575.79376 87.99479 576.40314 87.135414Q577.02814 86.27604 578.2 86.27604Q579.27814 86.27604 579.98126 87.05729Q580.7 87.822914 580.7 89.30729Q580.7 90.760414 579.98126 91.55729Q579.2625 92.33854 578.21564 92.33854Q577.16876 92.33854 576.48126 91.55729Q575.79376 90.77604 575.79376 89.229164ZM578.2469 87.24479Q577.71564 87.24479 577.35626 87.697914Q577.0125 88.15104 577.0125 89.36979Q577.0125 90.46354 577.35626 90.916664Q577.71564 91.36979 578.23126 91.36979Q578.77814 91.36979 579.1219 90.916664Q579.46564 90.46354 579.46564 89.260414Q579.46564 88.15104 579.10626 87.697914Q578.7625 87.24479 578.2469 87.24479Z" fill-rule="nonzero"/><path stroke="#757575" stroke-width="1.0" stroke-linecap="butt" d="M581.45 75.416664L454.76666 75.416664L304.18802 62.417065" fill-rule="nonzero"/><path fill="#9e9e9e" d="M306.18802 62.417065C306.18802 61.312496 305.2926 60.417065 304.18802 60.417065C303.08347 60.417065 302.18802 61.312496 302.18802 62.417065C302.18802 63.521637 303.08347 64.41707 304.18802 64.41707C305.2926 64.41707 306.18802 63.521637 306.18802 62.417065" fill-rule="nonzero"/><path fill="#efefef" d="M531.6844 326.45L531.6844 314.9969L536.0125 314.9969Q537.15314 314.9969 537.7469 315.10626Q538.59064 315.2469 539.15314 315.6375Q539.73126 316.02814 540.075 316.7469Q540.4344 317.45 540.4344 318.3094Q540.4344 319.7625 539.4969 320.77814Q538.575 321.79376 536.1375 321.79376L533.2 321.79376L533.2 326.45L531.6844 326.45ZM533.2 320.4344L536.16876 320.4344Q537.6375 320.4344 538.2469 319.8875Q538.8719 319.34064 538.8719 318.35626Q538.8719 317.6375 538.4969 317.1219Q538.1375 316.60626 537.54376 316.45Q537.16876 316.34064 536.1375 316.34064L533.2 316.34064L533.2 320.4344ZM548.1844 323.77814L549.6375 323.95Q549.29376 325.23126 548.35626 325.9344Q547.4344 326.6375 545.9969 326.6375Q544.16876 326.6375 543.10626 325.5125Q542.04376 324.3875 542.04376 322.3719Q542.04376 320.27814 543.1219 319.1219Q544.2 317.96564 545.91876 317.96564Q547.575 317.96564 548.6219 319.10626Q549.6844 320.23126 549.6844 322.27814Q549.6844 322.40314 549.6844 322.65314L543.4969 322.65314Q543.575 324.02814 544.2625 324.7625Q544.96564 325.48126 545.9969 325.48126Q546.77814 325.48126 547.325 325.075Q547.8719 324.66876 548.1844 323.77814ZM543.575 321.4969L548.2 321.4969Q548.10626 320.45 547.66876 319.9344Q546.9969 319.1219 545.9344 319.1219Q544.96564 319.1219 544.29376 319.77814Q543.6375 320.41876 543.575 321.4969ZM550.98126 322.29376Q550.98126 319.9969 552.2625 318.8875Q553.34064 317.96564 554.8719 317.96564Q556.59064 317.96564 557.66876 319.09064Q558.7625 320.2 558.7625 322.1844Q558.7625 323.77814 558.27814 324.7Q557.79376 325.6219 556.8719 326.1375Q555.96564 326.6375 554.8719 326.6375Q553.1375 326.6375 552.0594 325.52814Q550.98126 324.40314 550.98126 322.29376ZM552.4344 322.29376Q552.4344 323.8875 553.1219 324.6844Q553.825 325.48126 554.8719 325.48126Q555.91876 325.48126 556.60626 324.6844Q557.3094 323.8875 557.3094 322.2469Q557.3094 320.71564 556.60626 319.91876Q555.91876 319.1219 554.8719 319.1219Q553.825 319.1219 553.1219 319.91876Q552.4344 320.7 552.4344 322.29376ZM560.5125 329.6375L560.5125 318.15314L561.79376 318.15314L561.79376 319.23126Q562.2469 318.59064 562.8094 318.27814Q563.3875 317.96564 564.2 317.96564Q565.2625 317.96564 566.075 318.5125Q566.8875 319.0594 567.29376 320.0594Q567.71564 321.04376 567.71564 322.23126Q567.71564 323.5125 567.2469 324.52814Q566.79376 325.54376 565.91876 326.09064Q565.0594 326.6375 564.09064 326.6375Q563.3875 326.6375 562.825 326.34064Q562.27814 326.04376 561.91876 325.59064L561.91876 329.6375L560.5125 329.6375ZM561.77814 322.34064Q561.77814 323.95 562.41876 324.71564Q563.075 325.48126 563.9969 325.48126Q564.9344 325.48126 565.60626 324.6844Q566.27814 323.8875 566.27814 322.23126Q566.27814 320.6375 565.6219 319.85626Q564.96564 319.0594 564.0594 319.0594Q563.16876 319.0594 562.46564 319.90314Q561.77814 320.7469 561.77814 322.34064ZM569.48126 326.45L569.48126 314.9969L570.8875 314.9969L570.8875 326.45L569.48126 326.45ZM579.1844 323.77814L580.6375 323.95Q580.29376 325.23126 579.35626 325.9344Q578.4344 326.6375 576.9969 326.6375Q575.16876 326.6375 574.10626 325.5125Q573.04376 324.3875 573.04376 322.3719Q573.04376 320.27814 574.1219 319.1219Q575.2 317.96564 576.91876 317.96564Q578.575 317.96564 579.6219 319.10626Q580.6844 320.23126 580.6844 322.27814Q580.6844 322.40314 580.6844 322.65314L574.4969 322.65314Q574.575 324.02814 575.2625 324.7625Q575.96564 325.48126 576.9969 325.48126Q577.77814 325.48126 578.325 325.075Q578.8719 324.66876 579.1844 323.77814ZM574.575 321.4969L579.2 321.4969Q579.10626 320.45 578.66876 319.9344Q577.9969 319.1219 576.9344 319.1219Q575.96564 319.1219 575.29376 319.77814Q574.6375 320.41876 574.575 321.4969Z" fill-rule="nonzero"/><path fill="#9e9e9e" d="M537.325 345.79376L538.6844 345.66876Q538.85626 346.6219 539.34064 347.0594Q539.825 347.48126 540.575 347.48126Q541.23126 347.48126 541.71564 347.1844Q542.2 346.8875 542.5125 346.40314Q542.825 345.90314 543.02814 345.0594Q543.2469 344.21564 543.2469 343.34064Q543.2469 343.2469 543.2469 343.0594Q542.825 343.73126 542.09064 344.15314Q541.35626 344.5594 540.5125 344.5594Q539.09064 344.5594 538.10626 343.52814Q537.1219 342.4969 537.1219 340.8094Q537.1219 339.075 538.1375 338.0125Q539.16876 336.95 540.71564 336.95Q541.84064 336.95 542.7625 337.5594Q543.6844 338.15314 544.16876 339.2625Q544.65314 340.3719 544.65314 342.48126Q544.65314 344.6844 544.16876 345.98126Q543.7 347.27814 542.7469 347.96564Q541.8094 348.65314 540.54376 348.65314Q539.2 348.65314 538.34064 347.90314Q537.4969 347.15314 537.325 345.79376ZM543.09064 340.7469Q543.09064 339.52814 542.4344 338.825Q541.79376 338.10626 540.8875 338.10626Q539.95 338.10626 539.2469 338.8719Q538.5594 339.6375 538.5594 340.85626Q538.5594 341.95 539.21564 342.6375Q539.8875 343.325 540.85626 343.325Q541.825 343.325 542.45 342.6375Q543.09064 341.95 543.09064 340.7469ZM546.1219 342.79376Q546.1219 340.7625 546.52814 339.52814Q546.95 338.29376 547.77814 337.6219Q548.60626 336.95 549.85626 336.95Q550.77814 336.95 551.46564 337.325Q552.16876 337.6844 552.6219 338.3875Q553.075 339.09064 553.325 340.09064Q553.59064 341.09064 553.59064 342.79376Q553.59064 344.8094 553.16876 346.0594Q552.7625 347.29376 551.9344 347.98126Q551.10626 348.65314 549.85626 348.65314Q548.2 348.65314 547.2469 347.45Q546.1219 346.02814 546.1219 342.79376ZM547.5594 342.79376Q547.5594 345.6219 548.21564 346.5594Q548.8875 347.48126 549.85626 347.48126Q550.825 347.48126 551.48126 346.54376Q552.1375 345.60626 552.1375 342.79376Q552.1375 339.96564 551.48126 339.04376Q550.825 338.10626 549.84064 338.10626Q548.8719 338.10626 548.29376 338.9344Q547.5594 339.98126 547.5594 342.79376ZM555.90314 348.45L555.90314 346.84064L557.5125 346.84064L557.5125 348.45L555.90314 348.45ZM566.41876 339.79376L565.0125 339.90314Q564.825 339.075 564.48126 338.7Q563.91876 338.10626 563.075 338.10626Q562.40314 338.10626 561.90314 338.48126Q561.23126 338.96564 560.84064 339.90314Q560.46564 340.825 560.45 342.54376Q560.96564 341.7625 561.7 341.3875Q562.4344 341.0125 563.23126 341.0125Q564.6375 341.0125 565.6219 342.0594Q566.6219 343.09064 566.6219 344.73126Q566.6219 345.8094 566.15314 346.73126Q565.6844 347.65314 564.8719 348.15314Q564.0594 348.65314 563.02814 348.65314Q561.27814 348.65314 560.16876 347.35626Q559.0594 346.0594 559.0594 343.09064Q559.0594 339.7625 560.27814 338.2625Q561.35626 336.95 563.16876 336.95Q564.5125 336.95 565.3719 337.71564Q566.2469 338.46564 566.41876 339.79376ZM560.66876 344.73126Q560.66876 345.46564 560.98126 346.1375Q561.29376 346.79376 561.84064 347.1375Q562.40314 347.48126 563.0125 347.48126Q563.90314 347.48126 564.54376 346.7625Q565.1844 346.04376 565.1844 344.8094Q565.1844 343.6219 564.54376 342.95Q563.91876 342.2625 562.95 342.2625Q561.9969 342.2625 561.325 342.95Q560.66876 343.6219 560.66876 344.73126ZM568.3875 339.7469Q568.3875 338.5125 568.9969 337.65314Q569.6219 336.79376 570.79376 336.79376Q571.8719 336.79376 572.575 337.575Q573.27814 338.34064 573.27814 339.825Q573.27814 341.27814 572.5594 342.075Q571.85626 342.85626 570.8094 342.85626Q569.7625 342.85626 569.075 342.09064Q568.3875 341.3094 568.3875 339.7469ZM570.825 337.7625Q570.3094 337.7625 569.95 338.21564Q569.60626 338.66876 569.60626 339.8875Q569.60626 340.98126 569.95 341.4344Q570.3094 341.8875 570.825 341.8875Q571.35626 341.8875 571.7 341.4344Q572.0594 340.98126 572.0594 339.77814Q572.0594 338.66876 571.7 338.21564Q571.35626 337.7625 570.825 337.7625ZM570.84064 348.8719L577.10626 336.79376L578.2469 336.79376L571.9969 348.8719L570.84064 348.8719ZM575.79376 345.7625Q575.79376 344.52814 576.40314 343.66876Q577.02814 342.8094 578.2 342.8094Q579.27814 342.8094 579.98126 343.59064Q580.7 344.35626 580.7 345.84064Q580.7 347.29376 579.98126 348.09064Q579.2625 348.8719 578.21564 348.8719Q577.16876 348.8719 576.48126 348.09064Q575.79376 347.3094 575.79376 345.7625ZM578.2469 343.77814Q577.71564 343.77814 577.35626 344.23126Q577.0125 344.6844 577.0125 345.90314Q577.0125 346.9969 577.35626 347.45Q577.71564 347.90314 578.23126 347.90314Q578.77814 347.90314 579.1219 347.45Q579.46564 346.9969 579.46564 345.79376Q579.46564 344.6844 579.10626 344.23126Q578.7625 343.77814 578.2469 343.77814Z" fill-rule="nonzero"/><path stroke="#757575" stroke-width="1.0" stroke-linecap="butt" d="M581.45 331.95L454.76666 331.95L333.19604 341.0577" fill-rule="nonzero"/><path fill="#9e9e9e" d="M335.19604 341.0577C335.19604 339.95316 334.30063 339.0577 333.19604 339.0577C332.0915 339.0577 331.19604 339.95316 331.19604 341.0577C331.19604 342.1623 332.0915 343.0577 333.19604 343.0577C334.30063 343.0577 335.19604 342.1623 335.19604 341.0577" fill-rule="nonzero"/><path fill="#f3f3f3" d="M265.98438 37.55L265.98438 23.2375L268.84375 23.2375L272.21875 33.3625Q272.6875 34.784374 272.90625 35.4875Q273.15625 34.70625 273.67188 33.190624L277.09375 23.2375L279.64062 23.2375L279.64062 37.55L277.82812 37.55L277.82812 25.565624L273.65625 37.55L271.95312 37.55L267.8125 25.3625L267.8125 37.55L265.98438 37.55ZM289.92188 34.20625L291.73438 34.440624Q291.3125 36.01875 290.14062 36.909374Q288.98438 37.784374 287.17188 37.784374Q284.90625 37.784374 283.5625 36.39375Q282.23438 34.9875 282.23438 32.45625Q282.23438 29.83125 283.57812 28.39375Q284.92188 26.940624 287.07812 26.940624Q289.15625 26.940624 290.46875 28.3625Q291.79688 29.76875 291.79688 32.346874Q291.79688 32.503124 291.78125 32.815624L284.04688 32.815624Q284.14062 34.51875 285.01562 35.425Q285.89062 36.33125 287.1875 36.33125Q288.15625 36.33125 288.82812 35.83125Q289.51562 35.315624 289.92188 34.20625ZM284.14062 31.3625L289.9375 31.3625Q289.82812 30.065624 289.28125 29.409374Q288.4375 28.39375 287.09375 28.39375Q285.89062 28.39375 285.0625 29.20625Q284.23438 30.003124 284.14062 31.3625ZM300.54688 37.55L300.54688 36.2375Q299.5625 37.784374 297.64062 37.784374Q296.40625 37.784374 295.35938 37.096874Q294.32812 36.409374 293.75 35.190624Q293.1875 33.971874 293.1875 32.378124Q293.1875 30.815624 293.70312 29.55Q294.21875 28.284374 295.25 27.6125Q296.29688 26.940624 297.5625 26.940624Q298.5 26.940624 299.23438 27.346874Q299.96875 27.7375 300.4375 28.3625L300.4375 23.2375L302.17188 23.2375L302.17188 37.55L300.54688 37.55ZM294.98438 32.378124Q294.98438 34.3625 295.82812 35.346874Q296.67188 36.33125 297.8125 36.33125Q298.96875 36.33125 299.76562 35.39375Q300.57812 34.45625 300.57812 32.51875Q300.57812 30.39375 299.75 29.39375Q298.9375 28.39375 297.73438 28.39375Q296.5625 28.39375 295.76562 29.3625Q294.98438 30.315624 294.98438 32.378124ZM304.82812 25.253124L304.82812 23.2375L306.59375 23.2375L306.59375 25.253124L304.82812 25.253124ZM304.82812 37.55L304.82812 27.175L306.59375 27.175L306.59375 37.55L304.82812 37.55ZM315.60938 37.55L315.60938 36.01875Q314.40625 37.784374 312.32812 37.784374Q311.40625 37.784374 310.60938 37.440624Q309.8125 37.08125 309.42188 36.55Q309.04688 36.01875 308.89062 35.2375Q308.78125 34.721874 308.78125 33.596874L308.78125 27.175L310.53125 27.175L310.53125 32.925Q310.53125 34.3 310.64062 34.784374Q310.8125 35.471874 311.34375 35.878124Q311.89062 36.26875 312.67188 36.26875Q313.46875 36.26875 314.15625 35.8625Q314.85938 35.45625 315.14062 34.76875Q315.4375 34.065624 315.4375 32.7375L315.4375 27.175L317.1875 27.175L317.1875 37.55L315.60938 37.55ZM319.8125 37.55L319.8125 27.175L321.39062 27.175L321.39062 28.628124Q321.875 27.878124 322.6875 27.409374Q323.5 26.940624 324.53125 26.940624Q325.6875 26.940624 326.42188 27.425Q327.15625 27.89375 327.46875 28.753124Q328.70312 26.940624 330.67188 26.940624Q332.21875 26.940624 333.04688 27.8Q333.875 28.659374 333.875 30.425L333.875 37.55L332.125 37.55L332.125 31.01875Q332.125 29.95625 331.95312 29.503124Q331.78125 29.034374 331.32812 28.753124Q330.89062 28.471874 330.28125 28.471874Q329.1875 28.471874 328.45312 29.20625Q327.73438 29.925 327.73438 31.51875L327.73438 37.55L325.98438 37.55L325.98438 30.815624Q325.98438 29.64375 325.54688 29.065624Q325.125 28.471874 324.14062 28.471874Q323.40625 28.471874 322.76562 28.8625Q322.14062 29.253124 321.85938 30.003124Q321.57812 30.753124 321.57812 32.175L321.57812 37.55L319.8125 37.55Z" fill-rule="nonzero"/></svg>