<svg version="1.1" viewBox="0.0 0.0 600.0 371.0" fill="none" stroke="none" stroke-linecap="square" stroke-miterlimit="10" width="600" height="371" xmlns:xlink="http://www.w3.org/1999/xlink" xmlns="http://www.w3.org/2000/svg"><path fill="#ffffff" fill-opacity="0.0" d="M0 0L600.0 0L600.0 371.0L0 371.0L0 0Z" fill-rule="nonzero"/><path fill="#f7d750" d="M300.0 54.916668C360.1705 54.916668 414.41623 91.1625 437.44247 146.75279C460.46872 202.3431 447.74088 266.3303 405.1939 308.87726L352.59695 256.2803C373.87045 235.0068 380.23438 203.01321 368.72125 175.21806C357.2081 147.42291 330.08524 129.3 300.0 129.3Z" fill-rule="nonzero"/><path fill="#f5ee58" d="M405.1939 308.87726C377.29477 336.77643 339.45538 352.45 300.0 352.45L300.0 278.06668C319.7277 278.06668 338.64737 270.2299 352.59695 256.2803Z" fill-rule="nonzero"/><path fill="#d8753e" d="M194.80608 98.48942C222.70525 70.590256 260.54462 54.916668 300.0 54.916668L300.0 129.3C280.2723 129.3 261.35263 137.1368 247.40305 151.08638Z" fill-rule="nonzero"/><path fill="#8c4595" d="M300.0 352.45C239.8295 352.45 185.58377 316.20416 162.55753 260.61386C139.53127 205.02357 152.25911 141.03638 194.80608 98.48942L247.40305 151.08638C226.12956 172.35986 219.76564 204.35345 231.27876 232.1486C242.79189 259.94376 269.91476 278.06668 300.0 278.06668Z" fill-rule="nonzero"/><path fill="#ffffff" d="M378.33185 164.07918L379.9256 163.87605Q380.19122 165.2198 380.84747 165.81355Q381.50372 166.4073 382.44122 166.4073Q383.56622 166.4073 384.33185 165.64168Q385.09747 164.86043 385.09747 163.7198Q385.09747 162.62605 384.37872 161.92293Q383.6756 161.20418 382.58185 161.20418Q382.12872 161.20418 381.45685 161.39168L381.62872 160.00105Q381.78497 160.01668 381.89435 160.01668Q382.89435 160.01668 383.70685 159.48543Q384.51935 158.95418 384.51935 157.86043Q384.51935 156.98543 383.9256 156.42293Q383.33185 155.8448 382.40997 155.8448Q381.4881 155.8448 380.8631 156.42293Q380.25372 157.00105 380.08185 158.17293L378.50372 157.89168Q378.78497 156.29793 379.81622 155.42293Q380.84747 154.54793 382.37872 154.54793Q383.4256 154.54793 384.31622 155.00105Q385.20685 155.45418 385.6756 156.23543Q386.14435 157.01668 386.14435 157.89168Q386.14435 158.73543 385.69122 159.42293Q385.25372 160.0948 384.3631 160.50105Q385.50372 160.76668 386.12872 161.61043Q386.76935 162.43855 386.76935 163.67293Q386.76935 165.36043 385.53497 166.54793Q384.31622 167.7198 382.44122 167.7198Q380.7381 167.7198 379.6131 166.70418Q378.50372 165.68855 378.33185 164.07918ZM388.44122 156.2823L388.44122 154.76668L396.76935 154.76668L396.76935 156.00105Q395.5506 157.31355 394.33185 159.48543Q393.12872 161.64168 392.47247 163.93855Q391.9881 165.56355 391.8631 167.48543L390.2381 167.48543Q390.26935 165.9698 390.83185 163.81355Q391.40997 161.6573 392.47247 159.6573Q393.53497 157.6573 394.7381 156.2823L388.44122 156.2823ZM399.22247 167.48543L399.22247 165.68855L401.01935 165.68855L401.01935 167.48543L399.22247 167.48543ZM403.33185 164.11043L404.9881 163.9698Q405.1756 165.18855 405.84747 165.79793Q406.51935 166.4073 407.47247 166.4073Q408.6131 166.4073 409.39435 165.54793Q410.19122 164.68855 410.19122 163.25105Q410.19122 161.9073 409.4256 161.12605Q408.6756 160.3448 407.44122 160.3448Q406.6756 160.3448 406.0506 160.68855Q405.44122 161.0323 405.09747 161.5948L403.6131 161.39168L404.8631 154.7823L411.26935 154.7823L411.26935 156.2823L406.12872 156.2823L405.4256 159.75105Q406.59747 158.93855 407.8631 158.93855Q409.5506 158.93855 410.70685 160.11043Q411.87872 161.2823 411.87872 163.11043Q411.87872 164.86043 410.84747 166.14168Q409.6131 167.70418 407.47247 167.70418Q405.70685 167.70418 404.59747 166.7198Q403.4881 165.73543 403.33185 164.11043ZM413.62872 157.68855Q413.62872 156.31355 414.31622 155.3448Q415.01935 154.37605 416.33185 154.37605Q417.5506 154.37605 418.34747 155.25105Q419.14435 156.11043 419.14435 157.79793Q419.14435 159.42293 418.33185 160.31355Q417.53497 161.18855 416.34747 161.18855Q415.19122 161.18855 414.40997 160.32918Q413.62872 159.45418 413.62872 157.68855ZM416.37872 155.4698Q415.78497 155.4698 415.39435 155.98543Q415.00372 156.48543 415.00372 157.8448Q415.00372 159.0948 415.39435 159.5948Q415.8006 160.0948 416.37872 160.0948Q416.97247 160.0948 417.3631 159.5948Q417.75372 159.07918 417.75372 157.73543Q417.75372 156.48543 417.3631 155.98543Q416.97247 155.4698 416.37872 155.4698ZM416.39435 167.95418L423.44122 154.37605L424.72247 154.37605L417.69122 167.95418L416.39435 167.95418ZM421.95685 164.45418Q421.95685 163.07918 422.64435 162.11043Q423.34747 161.14168 424.6756 161.14168Q425.89435 161.14168 426.6756 162.01668Q427.47247 162.87605 427.47247 164.56355Q427.47247 166.18855 426.6756 167.07918Q425.87872 167.95418 424.69122 167.95418Q423.51935 167.95418 422.7381 167.07918Q421.95685 166.20418 421.95685 164.45418ZM424.72247 162.23543Q424.12872 162.23543 423.7381 162.75105Q423.34747 163.25105 423.34747 164.62605Q423.34747 165.8448 423.7381 166.36043Q424.12872 166.87605 424.70685 166.87605Q425.31622 166.87605 425.70685 166.36043Q426.09747 165.8448 426.09747 164.50105Q426.09747 163.25105 425.70685 162.75105Q425.31622 162.23543 424.72247 162.23543Z" fill-rule="nonzero"/><path fill="#ffffff" d="M323.90103 313.2652L322.3229 313.2652L322.3229 303.18707Q321.74478 303.73395 320.8229 304.28082Q319.90103 304.81207 319.15103 305.09332L319.15103 303.56207Q320.47916 302.93707 321.47916 302.04645Q322.47916 301.15582 322.8854 300.3277L323.90103 300.3277L323.90103 313.2652ZM336.2604 311.74957L336.2604 313.2652L327.74478 313.2652Q327.72916 312.68707 327.93228 312.17145Q328.2604 311.29645 328.96353 310.4527Q329.68228 309.60895 331.04166 308.49957Q333.1354 306.78082 333.86978 305.78082Q334.61978 304.7652 334.61978 303.87457Q334.61978 302.92145 333.9479 302.28082Q333.27603 301.6402 332.1979 301.6402Q331.04166 301.6402 330.35416 302.3277Q329.68228 303.0152 329.66666 304.21832L328.04166 304.04645Q328.21353 302.23395 329.29166 301.28082Q330.3854 300.3277 332.22916 300.3277Q334.0729 300.3277 335.15103 301.35895Q336.24478 302.3902 336.24478 303.90582Q336.24478 304.67145 335.91666 305.42145Q335.60416 306.17145 334.86978 306.99957Q334.1354 307.8277 332.43228 309.2652Q331.0104 310.46832 330.60416 310.8902Q330.1979 311.31207 329.9479 311.74957L336.2604 311.74957ZM338.83853 313.2652L338.83853 311.46832L340.6354 311.46832L340.6354 313.2652L338.83853 313.2652ZM342.9479 309.8902L344.60416 309.74957Q344.79166 310.96832 345.46353 311.5777Q346.1354 312.18707 347.08853 312.18707Q348.22916 312.18707 349.0104 311.3277Q349.80728 310.46832 349.80728 309.03082Q349.80728 307.68707 349.04166 306.90582Q348.29166 306.12457 347.05728 306.12457Q346.29166 306.12457 345.66666 306.46832Q345.05728 306.81207 344.71353 307.37457L343.22916 307.17145L344.47916 300.56207L350.8854 300.56207L350.8854 302.06207L345.74478 302.06207L345.04166 305.53082Q346.21353 304.71832 347.47916 304.71832Q349.16666 304.71832 350.3229 305.8902Q351.49478 307.06207 351.49478 308.8902Q351.49478 310.6402 350.46353 311.92145Q349.22916 313.48395 347.08853 313.48395Q345.3229 313.48395 344.21353 312.49957Q343.10416 311.5152 342.9479 309.8902ZM353.24478 303.46832Q353.24478 302.09332 353.93228 301.12457Q354.6354 300.15582 355.9479 300.15582Q357.16666 300.15582 357.96353 301.03082Q358.7604 301.8902 358.7604 303.5777Q358.7604 305.2027 357.9479 306.09332Q357.15103 306.96832 355.96353 306.96832Q354.80728 306.96832 354.02603 306.10895Q353.24478 305.23395 353.24478 303.46832ZM355.99478 301.24957Q355.40103 301.24957 355.0104 301.7652Q354.61978 302.2652 354.61978 303.62457Q354.61978 304.87457 355.0104 305.37457Q355.41666 305.87457 355.99478 305.87457Q356.58853 305.87457 356.97916 305.37457Q357.36978 304.85895 357.36978 303.5152Q357.36978 302.2652 356.97916 301.7652Q356.58853 301.24957 355.99478 301.24957ZM356.0104 313.73395L363.05728 300.15582L364.33853 300.15582L357.30728 313.73395L356.0104 313.73395ZM361.5729 310.23395Q361.5729 308.85895 362.2604 307.8902Q362.96353 306.92145 364.29166 306.92145Q365.5104 306.92145 366.29166 307.79645Q367.08853 308.65582 367.08853 310.34332Q367.08853 311.96832 366.29166 312.85895Q365.49478 313.73395 364.30728 313.73395Q363.1354 313.73395 362.35416 312.85895Q361.5729 311.98395 361.5729 310.23395ZM364.33853 308.0152Q363.74478 308.0152 363.35416 308.53082Q362.96353 309.03082 362.96353 310.40582Q362.96353 311.62457 363.35416 312.1402Q363.74478 312.65582 364.3229 312.65582Q364.93228 312.65582 365.3229 312.1402Q365.71353 311.62457 365.71353 310.28082Q365.71353 309.03082 365.3229 308.53082Q364.93228 308.0152 364.33853 308.0152Z" fill-rule="nonzero"/><path fill="#ffffff" d="M172.16814 249.47499L173.76189 249.27187Q174.02751 250.61562 174.68376 251.20937Q175.34001 251.80312 176.27751 251.80312Q177.40251 251.80312 178.16814 251.03749Q178.93376 250.25624 178.93376 249.11562Q178.93376 248.02187 178.21501 247.31874Q177.51189 246.59999 176.41814 246.59999Q175.96501 246.59999 175.29314 246.78749L175.46501 245.39687Q175.62126 245.41249 175.73064 245.41249Q176.73064 245.41249 177.54314 244.88124Q178.35564 244.34999 178.35564 243.25624Q178.35564 242.38124 177.76189 241.81874Q177.16814 241.24062 176.24626 241.24062Q175.32439 241.24062 174.69939 241.81874Q174.09001 242.39687 173.91814 243.56874L172.34001 243.28749Q172.62126 241.69374 173.65251 240.81874Q174.68376 239.94374 176.21501 239.94374Q177.26189 239.94374 178.15251 240.39687Q179.04314 240.84999 179.51189 241.63124Q179.98064 242.41249 179.98064 243.28749Q179.98064 244.13124 179.52751 244.81874Q179.09001 245.49062 178.19939 245.89687Q179.34001 246.16249 179.96501 247.00624Q180.60564 247.83437 180.60564 249.06874Q180.60564 250.75624 179.37126 251.94374Q178.15251 253.11562 176.27751 253.11562Q174.57439 253.11562 173.44939 252.09999Q172.34001 251.08437 172.16814 249.47499ZM182.27751 241.67812L182.27751 240.16249L190.60564 240.16249L190.60564 241.39687Q189.38689 242.70937 188.16814 244.88124Q186.96501 247.03749 186.30876 249.33437Q185.82439 250.95937 185.69939 252.88124L184.07439 252.88124Q184.10564 251.36562 184.66814 249.20937Q185.24626 247.05312 186.30876 245.05312Q187.37126 243.05312 188.57439 241.67812L182.27751 241.67812ZM193.05876 252.88124L193.05876 251.08437L194.85564 251.08437L194.85564 252.88124L193.05876 252.88124ZM197.16814 249.50624L198.82439 249.36562Q199.01189 250.58437 199.68376 251.19374Q200.35564 251.80312 201.30876 251.80312Q202.44939 251.80312 203.23064 250.94374Q204.02751 250.08437 204.02751 248.64687Q204.02751 247.30312 203.26189 246.52187Q202.51189 245.74062 201.27751 245.74062Q200.51189 245.74062 199.88689 246.08437Q199.27751 246.42812 198.93376 246.99062L197.44939 246.78749L198.69939 240.17812L205.10564 240.17812L205.10564 241.67812L199.96501 241.67812L199.26189 245.14687Q200.43376 244.33437 201.69939 244.33437Q203.38689 244.33437 204.54314 245.50624Q205.71501 246.67812 205.71501 248.50624Q205.71501 250.25624 204.68376 251.53749Q203.44939 253.09999 201.30876 253.09999Q199.54314 253.09999 198.43376 252.11562Q197.32439 251.13124 197.16814 249.50624ZM207.46501 243.08437Q207.46501 241.70937 208.15251 240.74062Q208.85564 239.77187 210.16814 239.77187Q211.38689 239.77187 212.18376 240.64687Q212.98064 241.50624 212.98064 243.19374Q212.98064 244.81874 212.16814 245.70937Q211.37126 246.58437 210.18376 246.58437Q209.02751 246.58437 208.24626 245.72499Q207.46501 244.84999 207.46501 243.08437ZM210.21501 240.86562Q209.62126 240.86562 209.23064 241.38124Q208.84001 241.88124 208.84001 243.24062Q208.84001 244.49062 209.23064 244.99062Q209.63689 245.49062 210.21501 245.49062Q210.80876 245.49062 211.19939 244.99062Q211.59001 244.47499 211.59001 243.13124Q211.59001 241.88124 211.19939 241.38124Q210.80876 240.86562 210.21501 240.86562ZM210.23064 253.34999L217.27751 239.77187L218.55876 239.77187L211.52751 253.34999L210.23064 253.34999ZM215.79314 249.84999Q215.79314 248.47499 216.48064 247.50624Q217.18376 246.53749 218.51189 246.53749Q219.73064 246.53749 220.51189 247.41249Q221.30876 248.27187 221.30876 249.95937Q221.30876 251.58437 220.51189 252.47499Q219.71501 253.34999 218.52751 253.34999Q217.35564 253.34999 216.57439 252.47499Q215.79314 251.59999 215.79314 249.84999ZM218.55876 247.63124Q217.96501 247.63124 217.57439 248.14687Q217.18376 248.64687 217.18376 250.02187Q217.18376 251.24062 217.57439 251.75624Q217.96501 252.27187 218.54314 252.27187Q219.15251 252.27187 219.54314 251.75624Q219.93376 251.24062 219.93376 249.89687Q219.93376 248.64687 219.54314 248.14687Q219.15251 247.63124 218.55876 247.63124Z" fill-rule="nonzero"/><path fill="#ffffff" d="M238.50522 107.10147L236.9271 107.10147L236.9271 97.023346Q236.34897 97.57022 235.4271 98.117096Q234.50522 98.648346 233.75522 98.929596L233.75522 97.398346Q235.08334 96.773346 236.08334 95.88272Q237.08334 94.992096 237.4896 94.16397L238.50522 94.16397L238.50522 107.10147ZM250.8646 105.585846L250.8646 107.10147L242.34897 107.10147Q242.33334 106.523346 242.53647 106.00772Q242.8646 105.13272 243.56772 104.28897Q244.28647 103.44522 245.64584 102.335846Q247.7396 100.617096 248.47397 99.617096Q249.22397 98.60147 249.22397 97.710846Q249.22397 96.75772 248.5521 96.117096Q247.88022 95.47647 246.8021 95.47647Q245.64584 95.47647 244.95834 96.16397Q244.28647 96.85147 244.27084 98.054596L242.64584 97.88272Q242.81772 96.07022 243.89584 95.117096Q244.9896 94.16397 246.83334 94.16397Q248.6771 94.16397 249.75522 95.19522Q250.84897 96.22647 250.84897 97.742096Q250.84897 98.50772 250.52084 99.25772Q250.20834 100.00772 249.47397 100.835846Q248.7396 101.66397 247.03647 103.10147Q245.6146 104.304596 245.20834 104.72647Q244.8021 105.148346 244.5521 105.585846L250.8646 105.585846ZM253.44272 107.10147L253.44272 105.304596L255.2396 105.304596L255.2396 107.10147L253.44272 107.10147ZM257.5521 103.72647L259.20834 103.585846Q259.39584 104.804596 260.06772 105.41397Q260.7396 106.023346 261.69272 106.023346Q262.83334 106.023346 263.6146 105.16397Q264.41147 104.304596 264.41147 102.867096Q264.41147 101.523346 263.64584 100.742096Q262.89584 99.960846 261.66147 99.960846Q260.89584 99.960846 260.27084 100.304596Q259.66147 100.648346 259.31772 101.210846L257.83334 101.00772L259.08334 94.398346L265.4896 94.398346L265.4896 95.898346L260.34897 95.898346L259.64584 99.367096Q260.81772 98.554596 262.08334 98.554596Q263.77084 98.554596 264.9271 99.72647Q266.09897 100.898346 266.09897 102.72647Q266.09897 104.47647 265.06772 105.75772Q263.83334 107.32022 261.69272 107.32022Q259.9271 107.32022 258.81772 106.335846Q257.70834 105.35147 257.5521 103.72647ZM267.84897 97.304596Q267.84897 95.929596 268.53647 94.960846Q269.2396 93.992096 270.5521 93.992096Q271.77084 93.992096 272.56772 94.867096Q273.3646 95.72647 273.3646 97.41397Q273.3646 99.03897 272.5521 99.929596Q271.75522 100.804596 270.56772 100.804596Q269.41147 100.804596 268.63022 99.94522Q267.84897 99.07022 267.84897 97.304596ZM270.59897 95.085846Q270.00522 95.085846 269.6146 95.60147Q269.22397 96.10147 269.22397 97.460846Q269.22397 98.710846 269.6146 99.210846Q270.02084 99.710846 270.59897 99.710846Q271.19272 99.710846 271.58334 99.210846Q271.97397 98.69522 271.97397 97.35147Q271.97397 96.10147 271.58334 95.60147Q271.19272 95.085846 270.59897 95.085846ZM270.6146 107.57022L277.66147 93.992096L278.94272 93.992096L271.91147 107.57022L270.6146 107.57022ZM276.1771 104.07022Q276.1771 102.69522 276.8646 101.72647Q277.56772 100.75772 278.89584 100.75772Q280.1146 100.75772 280.89584 101.63272Q281.69272 102.492096 281.69272 104.179596Q281.69272 105.804596 280.89584 106.69522Q280.09897 107.57022 278.91147 107.57022Q277.7396 107.57022 276.95834 106.69522Q276.1771 105.82022 276.1771 104.07022ZM278.94272 101.85147Q278.34897 101.85147 277.95834 102.367096Q277.56772 102.867096 277.56772 104.242096Q277.56772 105.460846 277.95834 105.97647Q278.34897 106.492096 278.9271 106.492096Q279.53647 106.492096 279.9271 105.97647Q280.31772 105.460846 280.31772 104.117096Q280.31772 102.867096 279.9271 102.367096Q279.53647 101.85147 278.94272 101.85147Z" fill-rule="nonzero"/><path stroke="#ffffff" stroke-width="1.0" stroke-linejoin="round" stroke-linecap="round" d="M352.59695 256.2803C373.87045 235.0068 380.23438 203.01321 368.72125 175.21806C357.2081 147.42291 330.08524 129.3 300.0 129.3L300.0 54.916668C360.1705 54.916668 414.41623 91.1625 437.44247 146.75279C460.46872 202.3431 447.74088 266.3303 405.1939 308.87726" fill-rule="nonzero"/><path stroke="#ffffff" stroke-width="1.0" stroke-linejoin="round" stroke-linecap="round" d="M300.0 278.06668C319.7277 278.06668 338.64737 270.2299 352.59695 256.2803L405.1939 308.87726C377.29477 336.77643 339.45538 352.45 300.0 352.45" fill-rule="nonzero"/><path stroke="#ffffff" stroke-width="1.0" stroke-linejoin="round" stroke-linecap="round" d="M247.40305 151.08638C226.12956 172.35986 219.76564 204.35345 231.27876 232.1486C242.79189 259.94376 269.91476 278.06668 300.0 278.06668L300.0 352.45C239.8295 352.45 185.58377 316.20416 162.55753 260.61386C139.53127 205.02357 152.25911 141.03638 194.80608 98.48942" fill-rule="nonzero"/><path stroke="#ffffff" stroke-width="1.0" stroke-linejoin="round" stroke-linecap="round" d="M300.0 129.3C280.2723 129.3 261.35263 137.1368 247.40305 151.08638L194.80608 98.48942C222.70525 70.590256 260.54462 54.916668 300.0 54.916668" fill-rule="nonzero"/><path fill="#efefef" d="M18.51875 69.916664L22.925 58.46354L24.565624 58.46354L29.253124 69.916664L27.51875 69.916664L26.190624 66.447914L21.39375 66.447914L20.14375 69.916664L18.51875 69.916664ZM21.83125 65.21354L25.721874 65.21354L24.51875 62.041664Q23.971874 60.58854 23.70625 59.666664Q23.4875 60.760414 23.096874 61.854164L21.83125 65.21354ZM30.596874 69.916664L30.596874 61.61979L31.8625 61.61979L31.8625 62.86979Q32.346874 61.99479 32.753124 61.71354Q33.159374 61.43229 33.659374 61.43229Q34.3625 61.43229 35.096874 61.885414L34.6125 63.18229Q34.096874 62.885414 33.58125 62.885414Q33.128124 62.885414 32.753124 63.166664Q32.39375 63.43229 32.2375 63.93229Q32.003124 64.68229 32.003124 65.572914L32.003124 69.916664L30.596874 69.916664ZM38.675 68.65104L38.878124 69.90104Q38.284374 70.02604 37.815624 70.02604Q37.05 70.02604 36.628124 69.791664Q36.20625 69.541664 36.034374 69.15104Q35.8625 68.74479 35.8625 67.479164L35.8625 62.71354L34.83125 62.71354L34.83125 61.61979L35.8625 61.61979L35.8625 59.55729L37.26875 58.71354L37.26875 61.61979L38.675 61.61979L38.675 62.71354L37.26875 62.71354L37.26875 67.55729Q37.26875 68.166664 37.33125 68.33854Q37.409374 68.510414 37.58125 68.61979Q37.753124 68.71354 38.065624 68.71354Q38.3 68.71354 38.675 68.65104ZM39.05 67.43229L40.440624 67.21354Q40.55 68.05729 41.08125 68.510414Q41.628124 68.947914 42.58125 68.947914Q43.55 68.947914 44.01875 68.55729Q44.4875 68.15104 44.4875 67.61979Q44.4875 67.15104 44.08125 66.86979Q43.784374 66.68229 42.64375 66.40104Q41.096874 66.010414 40.4875 65.729164Q39.89375 65.43229 39.58125 64.93229Q39.284374 64.43229 39.284374 63.822914Q39.284374 63.260414 39.534374 62.791664Q39.784374 62.322914 40.221874 62.010414Q40.55 61.760414 41.1125 61.604164Q41.690624 61.43229 42.33125 61.43229Q43.315624 61.43229 44.05 61.71354Q44.784374 61.99479 45.128124 62.479164Q45.4875 62.947914 45.628124 63.760414L44.253124 63.947914Q44.159374 63.30729 43.70625 62.947914Q43.253124 62.58854 42.440624 62.58854Q41.471874 62.58854 41.05 62.916664Q40.64375 63.229164 40.64375 63.65104Q40.64375 63.93229 40.815624 64.15104Q40.9875 64.36979 41.346874 64.52604Q41.565624 64.604164 42.596874 64.885414Q44.08125 65.27604 44.675 65.541664Q45.26875 65.791664 45.596874 66.27604Q45.940624 66.760414 45.940624 67.479164Q45.940624 68.18229 45.51875 68.80729Q45.1125 69.416664 44.33125 69.760414Q43.565624 70.104164 42.596874 70.104164Q40.971874 70.104164 40.128124 69.43229Q39.284374 68.760414 39.05 67.43229ZM58.159374 68.55729Q57.45625 69.33854 56.628124 69.729164Q55.815624 70.11979 54.8625 70.11979Q53.1125 70.11979 52.08125 68.916664Q51.2375 67.947914 51.2375 66.760414Q51.2375 65.697914 51.925 64.83854Q52.6125 63.979164 53.971874 63.33854Q53.190624 62.447914 52.925 61.90104Q52.675 61.33854 52.675 60.822914Q52.675 59.791664 53.4875 59.02604Q54.3 58.260414 55.51875 58.260414Q56.690624 58.260414 57.440624 58.979164Q58.190624 59.697914 58.190624 60.71354Q58.190624 62.33854 56.01875 63.49479L58.08125 66.11979Q58.425 65.43229 58.628124 64.52604L60.08125 64.83854Q59.70625 66.33854 59.065624 67.30729Q59.8625 68.354164 60.8625 69.05729L59.909374 70.18229Q59.065624 69.635414 58.159374 68.55729ZM55.3 62.58854Q56.20625 62.05729 56.471874 61.65104Q56.753124 61.24479 56.753124 60.74479Q56.753124 60.166664 56.378124 59.791664Q56.003124 59.416664 55.45625 59.416664Q54.878124 59.416664 54.503124 59.791664Q54.128124 60.15104 54.128124 60.68229Q54.128124 60.947914 54.253124 61.24479Q54.39375 61.541664 54.675 61.86979L55.3 62.58854ZM57.26875 67.447914L54.690624 64.260414Q53.55 64.93229 53.14375 65.52604Q52.753124 66.104164 52.753124 66.666664Q52.753124 67.36979 53.3 68.11979Q53.8625 68.86979 54.878124 68.86979Q55.51875 68.86979 56.190624 68.479164Q56.8625 68.072914 57.26875 67.447914ZM65.51875 69.916664L69.925 58.46354L71.56563 58.46354L76.25313 69.916664L74.51875 69.916664L73.19063 66.447914L68.39375 66.447914L67.14375 69.916664L65.51875 69.916664ZM68.83125 65.21354L72.72188 65.21354L71.51875 62.041664Q70.97188 60.58854 70.70625 59.666664Q70.4875 60.760414 70.09688 61.854164L68.83125 65.21354ZM77.6125 69.916664L77.6125 61.61979L78.87813 61.61979L78.87813 62.791664Q79.78438 61.43229 81.51875 61.43229Q82.26875 61.43229 82.89375 61.697914Q83.51875 61.96354 83.83125 62.40104Q84.14375 62.83854 84.26875 63.447914Q84.34688 63.83854 84.34688 64.80729L84.34688 69.916664L82.94063 69.916664L82.94063 64.86979Q82.94063 64.010414 82.76875 63.58854Q82.6125 63.15104 82.19063 62.90104Q81.78438 62.65104 81.22188 62.65104Q80.31563 62.65104 79.65938 63.229164Q79.01875 63.791664 79.01875 65.385414L79.01875 69.916664L77.6125 69.916664ZM89.675 68.65104L89.87813 69.90104Q89.28438 70.02604 88.81563 70.02604Q88.05 70.02604 87.62813 69.791664Q87.20625 69.541664 87.03438 69.15104Q86.8625 68.74479 86.8625 67.479164L86.8625 62.71354L85.83125 62.71354L85.83125 61.61979L86.8625 61.61979L86.8625 59.55729L88.26875 58.71354L88.26875 61.61979L89.675 61.61979L89.675 62.71354L88.26875 62.71354L88.26875 67.55729Q88.26875 68.166664 88.33125 68.33854Q88.40938 68.510414 88.58125 68.61979Q88.75313 68.71354 89.06563 68.71354Q89.3 68.71354 89.675 68.65104ZM90.6125 60.072914L90.6125 58.46354L92.01875 58.46354L92.01875 60.072914L90.6125 60.072914ZM90.6125 69.916664L90.6125 61.61979L92.01875 61.61979L92.01875 69.916664L90.6125 69.916664ZM99.89375 73.104164L99.89375 69.02604Q99.56563 69.49479 98.97188 69.80729Q98.39375 70.104164 97.72188 70.104164Q96.25313 70.104164 95.175 68.93229Q94.1125 67.74479 94.1125 65.68229Q94.1125 64.43229 94.55 63.447914Q94.9875 62.447914 95.8 61.947914Q96.62813 61.43229 97.6125 61.43229Q99.15938 61.43229 100.03438 62.729164L100.03438 61.61979L101.3 61.61979L101.3 73.104164L99.89375 73.104164ZM95.56563 65.74479Q95.56563 67.33854 96.2375 68.15104Q96.90938 68.947914 97.84688 68.947914Q98.7375 68.947914 99.37813 68.18229Q100.03438 67.416664 100.03438 65.86979Q100.03438 64.21354 99.34688 63.385414Q98.675 62.541664 97.75313 62.541664Q96.83125 62.541664 96.19063 63.322914Q95.56563 64.08854 95.56563 65.74479ZM109.05 69.916664L109.05 68.697914Q108.08125 70.104164 106.40938 70.104164Q105.675 70.104164 105.03438 69.822914Q104.40938 69.541664 104.09688 69.11979Q103.78438 68.68229 103.65938 68.072914Q103.58125 67.65104 103.58125 66.760414L103.58125 61.61979L104.9875 61.61979L104.9875 66.21354Q104.9875 67.322914 105.06563 67.697914Q105.20625 68.260414 105.62813 68.572914Q106.06563 68.885414 106.69063 68.885414Q107.33125 68.885414 107.87813 68.572914Q108.44063 68.24479 108.65938 67.68229Q108.89375 67.11979 108.89375 66.05729L108.89375 61.61979L110.3 61.61979L110.3 69.916664L109.05 69.916664ZM112.6125 60.072914L112.6125 58.46354L114.01875 58.46354L114.01875 60.072914L112.6125 60.072914ZM112.6125 69.916664L112.6125 61.61979L114.01875 61.61979L114.01875 69.916664L112.6125 69.916664ZM119.675 68.65104L119.87813 69.90104Q119.28438 70.02604 118.81563 70.02604Q118.05 70.02604 117.62813 69.791664Q117.20625 69.541664 117.03438 69.15104Q116.8625 68.74479 116.8625 67.479164L116.8625 62.71354L115.83125 62.71354L115.83125 61.61979L116.8625 61.61979L116.8625 59.55729L118.26875 58.71354L118.26875 61.61979L119.675 61.61979L119.675 62.71354L118.26875 62.71354L118.26875 67.55729Q118.26875 68.166664 118.33125 68.33854Q118.40938 68.510414 118.58125 68.61979Q118.75313 68.71354 119.06563 68.71354Q119.3 68.71354 119.675 68.65104ZM120.6125 60.072914L120.6125 58.46354L122.01875 58.46354L122.01875 60.072914L120.6125 60.072914ZM120.6125 69.916664L120.6125 61.61979L122.01875 61.61979L122.01875 69.916664L120.6125 69.916664ZM130.28438 67.24479L131.7375 67.416664Q131.39375 68.697914 130.45625 69.40104Q129.53438 70.104164 128.09688 70.104164Q126.26875 70.104164 125.20625 68.979164Q124.14375 67.854164 124.14375 65.83854Q124.14375 63.74479 125.22188 62.58854Q126.3 61.43229 128.01875 61.43229Q129.675 61.43229 130.72188 62.572914Q131.78438 63.697914 131.78438 65.74479Q131.78438 65.86979 131.78438 66.11979L125.59688 66.11979Q125.675 67.49479 126.3625 68.229164Q127.06563 68.947914 128.09688 68.947914Q128.87813 68.947914 129.425 68.541664Q129.97188 68.135414 130.28438 67.24479ZM125.675 64.96354L130.3 64.96354Q130.20625 63.916664 129.76875 63.40104Q129.09688 62.58854 128.03438 62.58854Q127.06563 62.58854 126.39375 63.24479Q125.7375 63.885414 125.675 64.96354ZM133.05 67.43229L134.44063 67.21354Q134.55 68.05729 135.08125 68.510414Q135.62813 68.947914 136.58125 68.947914Q137.55 68.947914 138.01875 68.55729Q138.4875 68.15104 138.4875 67.61979Q138.4875 67.15104 138.08125 66.86979Q137.78438 66.68229 136.64375 66.40104Q135.09688 66.010414 134.4875 65.729164Q133.89375 65.43229 133.58125 64.93229Q133.28438 64.43229 133.28438 63.822914Q133.28438 63.260414 133.53438 62.791664Q133.78438 62.322914 134.22188 62.010414Q134.55 61.760414 135.1125 61.604164Q135.69063 61.43229 136.33125 61.43229Q137.31563 61.43229 138.05 61.71354Q138.78438 61.99479 139.12813 62.479164Q139.4875 62.947914 139.62813 63.760414L138.25313 63.947914Q138.15938 63.30729 137.70625 62.947914Q137.25313 62.58854 136.44063 62.58854Q135.47188 62.58854 135.05 62.916664Q134.64375 63.229164 134.64375 63.65104Q134.64375 63.93229 134.81563 64.15104Q134.9875 64.36979 135.34688 64.52604Q135.56563 64.604164 136.59688 64.885414Q138.08125 65.27604 138.675 65.541664Q139.26875 65.791664 139.59688 66.27604Q139.94063 66.760414 139.94063 67.479164Q139.94063 68.18229 139.51875 68.80729Q139.1125 69.416664 138.33125 69.760414Q137.56563 70.104164 136.59688 70.104164Q134.97188 70.104164 134.12813 69.43229Q133.28438 68.760414 133.05 67.43229Z" fill-rule="nonzero"/><path fill="#9e9e9e" d="M24.51875 91.916664L23.1125 91.916664L23.1125 82.947914Q22.596874 83.43229 21.76875 83.916664Q20.95625 84.40104 20.3 84.65104L20.3 83.291664Q21.471874 82.729164 22.346874 81.947914Q23.2375 81.15104 23.6125 80.416664L24.51875 80.416664L24.51875 91.916664ZM35.6125 90.55729L35.6125 91.916664L28.034374 91.916664Q28.01875 91.40104 28.20625 90.93229Q28.4875 90.166664 29.128124 89.416664Q29.76875 88.666664 30.971874 87.68229Q32.83125 86.15104 33.4875 85.260414Q34.14375 84.354164 34.14375 83.55729Q34.14375 82.729164 33.55 82.15104Q32.95625 81.572914 31.9875 81.572914Q30.971874 81.572914 30.3625 82.18229Q29.753124 82.791664 29.753124 83.86979L28.3 83.729164Q28.45625 82.104164 29.425 81.260414Q30.39375 80.416664 32.01875 80.416664Q33.675 80.416664 34.628124 81.33854Q35.596874 82.24479 35.596874 83.58854Q35.596874 84.27604 35.315624 84.947914Q35.034374 85.604164 34.378124 86.33854Q33.721874 87.072914 32.20625 88.354164Q30.940624 89.416664 30.58125 89.80729Q30.221874 90.18229 29.9875 90.55729L35.6125 90.55729ZM38.003124 91.916664L38.003124 90.30729L39.6125 90.30729L39.6125 91.916664L38.003124 91.916664ZM41.221874 88.916664L42.690624 88.791664Q42.8625 89.86979 43.45625 90.416664Q44.05 90.947914 44.89375 90.947914Q45.909374 90.947914 46.6125 90.18229Q47.315624 89.416664 47.315624 88.15104Q47.315624 86.947914 46.64375 86.260414Q45.971874 85.55729 44.878124 85.55729Q44.190624 85.55729 43.64375 85.86979Q43.096874 86.18229 42.784374 86.666664L41.471874 86.49479L42.58125 80.61979L48.26875 80.61979L48.26875 81.96354L43.70625 81.96354L43.08125 85.041664Q44.1125 84.322914 45.253124 84.322914Q46.753124 84.322914 47.784374 85.36979Q48.815624 86.40104 48.815624 88.02604Q48.815624 89.58854 47.909374 90.71354Q46.8 92.11979 44.89375 92.11979Q43.33125 92.11979 42.346874 91.24479Q41.3625 90.354164 41.221874 88.916664ZM50.4875 83.21354Q50.4875 81.979164 51.096874 81.11979Q51.721874 80.260414 52.89375 80.260414Q53.971874 80.260414 54.675 81.041664Q55.378124 81.80729 55.378124 83.291664Q55.378124 84.74479 54.659374 85.541664Q53.95625 86.322914 52.909374 86.322914Q51.8625 86.322914 51.175 85.55729Q50.4875 84.77604 50.4875 83.21354ZM52.925 81.229164Q52.409374 81.229164 52.05 81.68229Q51.70625 82.135414 51.70625 83.354164Q51.70625 84.447914 52.05 84.90104Q52.409374 85.354164 52.925 85.354164Q53.45625 85.354164 53.8 84.90104Q54.159374 84.447914 54.159374 83.24479Q54.159374 82.135414 53.8 81.68229Q53.45625 81.229164 52.925 81.229164ZM52.940624 92.33854L59.20625 80.260414L60.346874 80.260414L54.096874 92.33854L52.940624 92.33854ZM57.89375 89.229164Q57.89375 87.99479 58.503124 87.135414Q59.128124 86.27604 60.3 86.27604Q61.378124 86.27604 62.08125 87.05729Q62.8 87.822914 62.8 89.30729Q62.8 90.760414 62.08125 91.55729Q61.3625 92.33854 60.315624 92.33854Q59.26875 92.33854 58.58125 91.55729Q57.89375 90.77604 57.89375 89.229164ZM60.346874 87.24479Q59.815624 87.24479 59.45625 87.697914Q59.1125 88.15104 59.1125 89.36979Q59.1125 90.46354 59.45625 90.916664Q59.815624 91.36979 60.33125 91.36979Q60.878124 91.36979 61.221874 90.916664Q61.565624 90.46354 61.565624 89.260414Q61.565624 88.15104 61.20625 87.697914Q60.8625 87.24479 60.346874 87.24479Z" fill-rule="nonzero"/><path stroke="#757575" stroke-width="1.0" stroke-linecap="butt" d="M18.55 75.416664L145.23334 75.416664L245.91599 73.112976" fill-rule="nonzero"/><path fill="#9e9e9e" d="M247.91599 73.112976C247.91599 72.00841 247.02055 71.112976 245.91599 71.112976C244.81142 71.112976 243.91599 72.00841 243.91599 73.112976C243.91599 74.217545 244.81142 75.112976 245.91599 75.112976C247.02055 75.112976 247.91599 74.217545 247.91599 73.112976" fill-rule="nonzero"/><path fill="#efefef" d="M19.76875 252.26735L19.76875 240.81422L21.33125 240.81422L27.346874 249.7986L27.346874 240.81422L28.8 240.81422L28.8 252.26735L27.2375 252.26735L21.221874 243.26735L21.221874 252.26735L19.76875 252.26735ZM37.01875 251.2361Q36.2375 251.90797 35.51875 252.18922Q34.8 252.45485 33.971874 252.45485Q32.596874 252.45485 31.8625 251.78297Q31.128124 251.1111 31.128124 250.07985Q31.128124 249.47047 31.409374 248.97047Q31.690624 248.45485 32.128124 248.15797Q32.58125 247.84547 33.14375 247.68922Q33.565624 247.57985 34.39375 247.4861Q36.096874 247.28297 36.909374 247.00172Q36.909374 246.70485 36.909374 246.62672Q36.909374 245.76735 36.51875 245.4236Q35.971874 244.93922 34.909374 244.93922Q33.925 244.93922 33.440624 245.2986Q32.971874 245.64235 32.753124 246.51735L31.378124 246.32985Q31.565624 245.45485 31.9875 244.90797Q32.425 244.3611 33.2375 244.07985Q34.05 243.78297 35.1125 243.78297Q36.175 243.78297 36.83125 244.03297Q37.503124 244.28297 37.815624 244.65797Q38.128124 245.03297 38.253124 245.6111Q38.33125 245.97047 38.33125 246.90797L38.33125 248.78297Q38.33125 250.75172 38.409374 251.26735Q38.503124 251.78297 38.76875 252.26735L37.3 252.26735Q37.08125 251.82985 37.01875 251.2361ZM36.909374 248.09547Q36.14375 248.40797 34.6125 248.62672Q33.7375 248.75172 33.378124 248.90797Q33.01875 249.06422 32.815624 249.37672Q32.628124 249.6736 32.628124 250.03297Q32.628124 250.59547 33.05 250.97047Q33.4875 251.34547 34.3 251.34547Q35.1125 251.34547 35.7375 251.00172Q36.378124 250.64235 36.675 250.01735Q36.909374 249.5486 36.909374 248.6111L36.909374 248.09547ZM43.675 251.00172L43.878124 252.25172Q43.284374 252.37672 42.815624 252.37672Q42.05 252.37672 41.628124 252.14235Q41.20625 251.89235 41.034374 251.50172Q40.8625 251.09547 40.8625 249.82985L40.8625 245.06422L39.83125 245.06422L39.83125 243.97047L40.8625 243.97047L40.8625 241.90797L42.26875 241.06422L42.26875 243.97047L43.675 243.97047L43.675 245.06422L42.26875 245.06422L42.26875 249.90797Q42.26875 250.51735 42.33125 250.68922Q42.409374 250.8611 42.58125 250.97047Q42.753124 251.06422 43.065624 251.06422Q43.3 251.06422 43.675 251.00172ZM50.05 252.26735L50.05 251.0486Q49.08125 252.45485 47.409374 252.45485Q46.675 252.45485 46.034374 252.1736Q45.409374 251.89235 45.096874 251.47047Q44.784374 251.03297 44.659374 250.4236Q44.58125 250.00172 44.58125 249.1111L44.58125 243.97047L45.9875 243.97047L45.9875 248.56422Q45.9875 249.6736 46.065624 250.0486Q46.20625 250.6111 46.628124 250.9236Q47.065624 251.2361 47.690624 251.2361Q48.33125 251.2361 48.878124 250.9236Q49.440624 250.59547 49.659374 250.03297Q49.89375 249.47047 49.89375 248.40797L49.89375 243.97047L51.3 243.97047L51.3 252.26735L50.05 252.26735ZM53.596874 252.26735L53.596874 243.97047L54.8625 243.97047L54.8625 245.22047Q55.346874 244.34547 55.753124 244.06422Q56.159374 243.78297 56.659374 243.78297Q57.3625 243.78297 58.096874 244.2361L57.6125 245.53297Q57.096874 245.2361 56.58125 245.2361Q56.128124 245.2361 55.753124 245.51735Q55.39375 245.78297 55.2375 246.28297Q55.003124 247.03297 55.003124 247.9236L55.003124 252.26735L53.596874 252.26735ZM64.01875 251.2361Q63.2375 251.90797 62.51875 252.18922Q61.8 252.45485 60.971874 252.45485Q59.596874 252.45485 58.8625 251.78297Q58.128124 251.1111 58.128124 250.07985Q58.128124 249.47047 58.409374 248.97047Q58.690624 248.45485 59.128124 248.15797Q59.58125 247.84547 60.14375 247.68922Q60.565624 247.57985 61.39375 247.4861Q63.096874 247.28297 63.909374 247.00172Q63.909374 246.70485 63.909374 246.62672Q63.909374 245.76735 63.51875 245.4236Q62.971874 244.93922 61.909374 244.93922Q60.925 244.93922 60.440624 245.2986Q59.971874 245.64235 59.753124 246.51735L58.378124 246.32985Q58.565624 245.45485 58.9875 244.90797Q59.425 244.3611 60.2375 244.07985Q61.05 243.78297 62.1125 243.78297Q63.175 243.78297 63.83125 244.03297Q64.50313 244.28297 64.81563 244.65797Q65.12813 245.03297 65.25313 245.6111Q65.33125 245.97047 65.33125 246.90797L65.33125 248.78297Q65.33125 250.75172 65.40938 251.26735Q65.50313 251.78297 65.76875 252.26735L64.3 252.26735Q64.08125 251.82985 64.01875 251.2361ZM63.909374 248.09547Q63.14375 248.40797 61.6125 248.62672Q60.7375 248.75172 60.378124 248.90797Q60.01875 249.06422 59.815624 249.37672Q59.628124 249.6736 59.628124 250.03297Q59.628124 250.59547 60.05 250.97047Q60.4875 251.34547 61.3 251.34547Q62.1125 251.34547 62.7375 251.00172Q63.378124 250.64235 63.675 250.01735Q63.909374 249.5486 63.909374 248.6111L63.909374 248.09547ZM67.58125 252.26735L67.58125 240.81422L68.9875 240.81422L68.9875 252.26735L67.58125 252.26735Z" fill-rule="nonzero"/><path fill="#9e9e9e" d="M19.221874 271.23608L20.628124 271.04858Q20.878124 272.2517 21.45625 272.78296Q22.034374 273.29858 22.878124 273.29858Q23.8625 273.29858 24.55 272.61108Q25.2375 271.92358 25.2375 270.90796Q25.2375 269.9392 24.596874 269.3142Q23.971874 268.6892 22.9875 268.6892Q22.596874 268.6892 22.003124 268.84546L22.159374 267.61108Q22.3 267.6267 22.378124 267.6267Q23.284374 267.6267 24.003124 267.15796Q24.721874 266.6892 24.721874 265.70483Q24.721874 264.9392 24.190624 264.4392Q23.675 263.92358 22.846874 263.92358Q22.01875 263.92358 21.471874 264.4392Q20.925 264.95483 20.76875 265.98608L19.3625 265.73608Q19.628124 264.3142 20.534374 263.54858Q21.45625 262.76733 22.815624 262.76733Q23.753124 262.76733 24.534374 263.17358Q25.33125 263.5642 25.7375 264.26733Q26.159374 264.95483 26.159374 265.73608Q26.159374 266.48608 25.753124 267.09546Q25.3625 267.70483 24.58125 268.0642Q25.596874 268.29858 26.159374 269.03296Q26.721874 269.76733 26.721874 270.8767Q26.721874 272.3767 25.628124 273.42358Q24.534374 274.47046 22.8625 274.47046Q21.3625 274.47046 20.3625 273.57983Q19.3625 272.67358 19.221874 271.23608ZM28.315624 264.3142L28.315624 262.95483L35.721874 262.95483L35.721874 264.04858Q34.628124 265.22046 33.55 267.15796Q32.4875 269.07983 31.89375 271.11108Q31.471874 272.54858 31.3625 274.26733L29.909374 274.26733Q29.940624 272.90796 30.440624 271.0017Q30.95625 269.07983 31.89375 267.3142Q32.846874 265.53296 33.925 264.3142L28.315624 264.3142ZM38.003124 274.26733L38.003124 272.65796L39.6125 272.65796L39.6125 274.26733L38.003124 274.26733ZM41.221874 271.26733L42.690624 271.14233Q42.8625 272.22046 43.45625 272.76733Q44.05 273.29858 44.89375 273.29858Q45.909374 273.29858 46.6125 272.53296Q47.315624 271.76733 47.315624 270.5017Q47.315624 269.29858 46.64375 268.61108Q45.971874 267.90796 44.878124 267.90796Q44.190624 267.90796 43.64375 268.22046Q43.096874 268.53296 42.784374 269.01733L41.471874 268.84546L42.58125 262.97046L48.26875 262.97046L48.26875 264.3142L43.70625 264.3142L43.08125 267.39233Q44.1125 266.67358 45.253124 266.67358Q46.753124 266.67358 47.784374 267.72046Q48.815624 268.7517 48.815624 270.3767Q48.815624 271.9392 47.909374 273.0642Q46.8 274.47046 44.89375 274.47046Q43.33125 274.47046 42.346874 273.59546Q41.3625 272.70483 41.221874 271.26733ZM50.4875 265.5642Q50.4875 264.32983 51.096874 263.47046Q51.721874 262.61108 52.89375 262.61108Q53.971874 262.61108 54.675 263.39233Q55.378124 264.15796 55.378124 265.64233Q55.378124 267.09546 54.659374 267.89233Q53.95625 268.67358 52.909374 268.67358Q51.8625 268.67358 51.175 267.90796Q50.4875 267.1267 50.4875 265.5642ZM52.925 263.57983Q52.409374 263.57983 52.05 264.03296Q51.70625 264.48608 51.70625 265.70483Q51.70625 266.79858 52.05 267.2517Q52.409374 267.70483 52.925 267.70483Q53.45625 267.70483 53.8 267.2517Q54.159374 266.79858 54.159374 265.59546Q54.159374 264.48608 53.8 264.03296Q53.45625 263.57983 52.925 263.57983ZM52.940624 274.6892L59.20625 262.61108L60.346874 262.61108L54.096874 274.6892L52.940624 274.6892ZM57.89375 271.57983Q57.89375 270.34546 58.503124 269.48608Q59.128124 268.6267 60.3 268.6267Q61.378124 268.6267 62.08125 269.40796Q62.8 270.17358 62.8 271.65796Q62.8 273.11108 62.08125 273.90796Q61.3625 274.6892 60.315624 274.6892Q59.26875 274.6892 58.58125 273.90796Q57.89375 273.1267 57.89375 271.57983ZM60.346874 269.59546Q59.815624 269.59546 59.45625 270.04858Q59.1125 270.5017 59.1125 271.72046Q59.1125 272.8142 59.45625 273.26733Q59.815624 273.72046 60.33125 273.72046Q60.878124 273.72046 61.221874 273.26733Q61.565624 272.8142 61.565624 271.61108Q61.565624 270.5017 61.20625 270.04858Q60.8625 269.59546 60.346874 269.59546Z" fill-rule="nonzero"/><path stroke="#757575" stroke-width="1.0" stroke-linecap="butt" d="M18.55 257.76733L145.23334 257.76733L169.42964 257.76733" fill-rule="nonzero"/><path fill="#9e9e9e" d="M171.42964 257.76733C171.42964 256.66278 170.53421 255.76735 169.42964 255.76735C168.32507 255.76735 167.42964 256.66278 167.42964 257.76733C167.42964 258.87192 168.32507 259.76733 169.42964 259.76733C170.53421 259.76733 171.42964 258.87192 171.42964 257.76733" fill-rule="nonzero"/><path fill="#efefef" d="M481.71564 144.09932L481.71564 132.6462L489.9969 132.6462L489.9969 133.98994L483.23126 133.98994L483.23126 137.50557L489.575 137.50557L489.575 138.84932L483.23126 138.84932L483.23126 142.73994L490.2625 142.73994L490.2625 144.09932L481.71564 144.09932ZM495.575 142.8337L495.77814 144.0837Q495.1844 144.2087 494.71564 144.2087Q493.95 144.2087 493.52814 143.97432Q493.10626 143.72432 492.9344 143.3337Q492.7625 142.92744 492.7625 141.66182L492.7625 136.8962L491.73126 136.8962L491.73126 135.80244L492.7625 135.80244L492.7625 133.73994L494.16876 132.8962L494.16876 135.80244L495.575 135.80244L495.575 136.8962L494.16876 136.8962L494.16876 141.73994Q494.16876 142.34932 494.23126 142.5212Q494.3094 142.69307 494.48126 142.80244Q494.65314 142.8962 494.96564 142.8962Q495.2 142.8962 495.575 142.8337ZM496.5125 144.09932L496.5125 132.6462L497.91876 132.6462L497.91876 136.75557Q498.90314 135.61494 500.40314 135.61494Q501.325 135.61494 501.9969 135.97432Q502.6844 136.3337 502.96564 136.97432Q503.2625 137.61494 503.2625 138.8337L503.2625 144.09932L501.85626 144.09932L501.85626 138.8337Q501.85626 137.78682 501.40314 137.30244Q500.95 136.81807 500.10626 136.81807Q499.48126 136.81807 498.9344 137.1462Q498.3875 137.47432 498.15314 138.03682Q497.91876 138.5837 497.91876 139.55244L497.91876 144.09932L496.5125 144.09932ZM505.5125 144.09932L505.5125 135.80244L506.77814 135.80244L506.77814 136.97432Q507.6844 135.61494 509.41876 135.61494Q510.16876 135.61494 510.79376 135.88057Q511.41876 136.1462 511.73126 136.5837Q512.04376 137.0212 512.16876 137.63057Q512.2469 138.0212 512.2469 138.98994L512.2469 144.09932L510.84064 144.09932L510.84064 139.05244Q510.84064 138.19307 510.66876 137.7712Q510.5125 137.3337 510.09064 137.0837Q509.6844 136.8337 509.1219 136.8337Q508.21564 136.8337 507.5594 137.41182Q506.91876 137.97432 506.91876 139.56807L506.91876 144.09932L505.5125 144.09932ZM514.5125 134.25557L514.5125 132.6462L515.91876 132.6462L515.91876 134.25557L514.5125 134.25557ZM514.5125 144.09932L514.5125 135.80244L515.91876 135.80244L515.91876 144.09932L514.5125 144.09932ZM523.91876 141.05244L525.3094 141.23994Q525.075 142.66182 524.1375 143.47432Q523.21564 144.28682 521.85626 144.28682Q520.15314 144.28682 519.10626 143.17744Q518.075 142.05244 518.075 139.97432Q518.075 138.63057 518.5125 137.63057Q518.96564 136.61494 519.8719 136.11494Q520.79376 135.61494 521.85626 135.61494Q523.21564 135.61494 524.075 136.30244Q524.9344 136.97432 525.16876 138.23994L523.8094 138.44307Q523.60626 137.61494 523.10626 137.19307Q522.6219 136.7712 521.91876 136.7712Q520.85626 136.7712 520.1844 137.53682Q519.52814 138.28682 519.52814 139.94307Q519.52814 141.61494 520.16876 142.38057Q520.8094 143.13057 521.84064 143.13057Q522.66876 143.13057 523.21564 142.63057Q523.77814 142.11494 523.91876 141.05244ZM536.04376 139.59932L536.04376 138.25557L540.90314 138.25557L540.90314 142.50557Q539.77814 143.3962 538.59064 143.84932Q537.40314 144.30244 536.15314 144.30244Q534.46564 144.30244 533.09064 143.5837Q531.71564 142.84932 531.0125 141.48994Q530.3094 140.11494 530.3094 138.42744Q530.3094 136.75557 530.9969 135.30244Q531.7 133.84932 533.0125 133.1462Q534.325 132.44307 536.04376 132.44307Q537.27814 132.44307 538.27814 132.84932Q539.29376 133.25557 539.85626 133.97432Q540.4344 134.69307 540.73126 135.84932L539.35626 136.22432Q539.10626 135.34932 538.71564 134.84932Q538.34064 134.34932 537.6219 134.05244Q536.91876 133.73994 536.04376 133.73994Q535.0125 133.73994 534.2469 134.06807Q533.4969 134.38057 533.02814 134.8962Q532.5594 135.41182 532.3094 136.0212Q531.8719 137.0837 531.8719 138.3337Q531.8719 139.86494 532.3875 140.8962Q532.91876 141.92744 533.91876 142.42744Q534.9344 142.92744 536.075 142.92744Q537.0594 142.92744 537.9969 142.55244Q538.9344 142.16182 539.41876 141.73994L539.41876 139.59932L536.04376 139.59932ZM542.4969 144.09932L542.4969 135.80244L543.7625 135.80244L543.7625 137.05244Q544.2469 136.17744 544.65314 135.8962Q545.0594 135.61494 545.5594 135.61494Q546.2625 135.61494 546.9969 136.06807L546.5125 137.36494Q545.9969 137.06807 545.48126 137.06807Q545.02814 137.06807 544.65314 137.34932Q544.29376 137.61494 544.1375 138.11494Q543.90314 138.86494 543.90314 139.75557L543.90314 144.09932L542.4969 144.09932ZM546.98126 139.94307Q546.98126 137.6462 548.2625 136.53682Q549.34064 135.61494 550.8719 135.61494Q552.59064 135.61494 553.66876 136.73994Q554.7625 137.84932 554.7625 139.8337Q554.7625 141.42744 554.27814 142.34932Q553.79376 143.2712 552.8719 143.78682Q551.96564 144.28682 550.8719 144.28682Q549.1375 144.28682 548.0594 143.17744Q546.98126 142.05244 546.98126 139.94307ZM548.4344 139.94307Q548.4344 141.53682 549.1219 142.3337Q549.825 143.13057 550.8719 143.13057Q551.91876 143.13057 552.60626 142.3337Q553.3094 141.53682 553.3094 139.8962Q553.3094 138.36494 552.60626 137.56807Q551.91876 136.7712 550.8719 136.7712Q549.825 136.7712 549.1219 137.56807Q548.4344 138.34932 548.4344 139.94307ZM561.95 144.09932L561.95 142.88057Q560.98126 144.28682 559.3094 144.28682Q558.575 144.28682 557.9344 144.00557Q557.3094 143.72432 556.9969 143.30244Q556.6844 142.86494 556.5594 142.25557Q556.48126 141.8337 556.48126 140.94307L556.48126 135.80244L557.8875 135.80244L557.8875 140.3962Q557.8875 141.50557 557.96564 141.88057Q558.10626 142.44307 558.52814 142.75557Q558.96564 143.06807 559.59064 143.06807Q560.23126 143.06807 560.77814 142.75557Q561.34064 142.42744 561.5594 141.86494Q561.79376 141.30244 561.79376 140.23994L561.79376 135.80244L563.2 135.80244L563.2 144.09932L561.95 144.09932ZM565.5125 147.28682L565.5125 135.80244L566.79376 135.80244L566.79376 136.88057Q567.2469 136.23994 567.8094 135.92744Q568.3875 135.61494 569.2 135.61494Q570.2625 135.61494 571.075 136.16182Q571.8875 136.7087 572.29376 137.7087Q572.71564 138.69307 572.71564 139.88057Q572.71564 141.16182 572.2469 142.17744Q571.79376 143.19307 570.91876 143.73994Q570.0594 144.28682 569.09064 144.28682Q568.3875 144.28682 567.825 143.98994Q567.27814 143.69307 566.91876 143.23994L566.91876 147.28682L565.5125 147.28682ZM566.77814 139.98994Q566.77814 141.59932 567.41876 142.36494Q568.075 143.13057 568.9969 143.13057Q569.9344 143.13057 570.60626 142.3337Q571.27814 141.53682 571.27814 139.88057Q571.27814 138.28682 570.6219 137.50557Q569.96564 136.7087 569.0594 136.7087Q568.16876 136.7087 567.46564 137.55244Q566.77814 138.3962 566.77814 139.98994ZM573.95 141.61494L575.34064 141.3962Q575.45 142.23994 575.98126 142.69307Q576.52814 143.13057 577.48126 143.13057Q578.45 143.13057 578.91876 142.73994Q579.3875 142.3337 579.3875 141.80244Q579.3875 141.3337 578.98126 141.05244Q578.6844 140.86494 577.54376 140.5837Q575.9969 140.19307 575.3875 139.91182Q574.79376 139.61494 574.48126 139.11494Q574.1844 138.61494 574.1844 138.00557Q574.1844 137.44307 574.4344 136.97432Q574.6844 136.50557 575.1219 136.19307Q575.45 135.94307 576.0125 135.78682Q576.59064 135.61494 577.23126 135.61494Q578.21564 135.61494 578.95 135.8962Q579.6844 136.17744 580.02814 136.66182Q580.3875 137.13057 580.52814 137.94307L579.15314 138.13057Q579.0594 137.48994 578.60626 137.13057Q578.15314 136.7712 577.34064 136.7712Q576.3719 136.7712 575.95 137.09932Q575.54376 137.41182 575.54376 137.8337Q575.54376 138.11494 575.71564 138.3337Q575.8875 138.55244 576.2469 138.7087Q576.46564 138.78682 577.4969 139.06807Q578.98126 139.4587 579.575 139.72432Q580.16876 139.97432 580.4969 140.4587Q580.84064 140.94307 580.84064 141.66182Q580.84064 142.36494 580.41876 142.98994Q580.0125 143.59932 579.23126 143.94307Q578.46564 144.28682 577.4969 144.28682Q575.8719 144.28682 575.02814 143.61494Q574.1844 142.94307 573.95 141.61494Z" fill-rule="nonzero"/><path fill="#9e9e9e" d="M537.1219 163.06807L538.52814 162.88057Q538.77814 164.0837 539.35626 164.61494Q539.9344 165.13057 540.77814 165.13057Q541.7625 165.13057 542.45 164.44307Q543.1375 163.75557 543.1375 162.73994Q543.1375 161.7712 542.4969 161.1462Q541.8719 160.5212 540.8875 160.5212Q540.4969 160.5212 539.90314 160.67744L540.0594 159.44307Q540.2 159.4587 540.27814 159.4587Q541.1844 159.4587 541.90314 158.98994Q542.6219 158.5212 542.6219 157.53682Q542.6219 156.7712 542.09064 156.2712Q541.575 155.75557 540.7469 155.75557Q539.91876 155.75557 539.3719 156.2712Q538.825 156.78682 538.66876 157.81807L537.2625 157.56807Q537.52814 156.1462 538.4344 155.38057Q539.35626 154.59932 540.71564 154.59932Q541.65314 154.59932 542.4344 155.00557Q543.23126 155.3962 543.6375 156.09932Q544.0594 156.78682 544.0594 157.56807Q544.0594 158.31807 543.65314 158.92744Q543.2625 159.53682 542.48126 159.8962Q543.4969 160.13057 544.0594 160.86494Q544.6219 161.59932 544.6219 162.7087Q544.6219 164.2087 543.52814 165.25557Q542.4344 166.30244 540.7625 166.30244Q539.2625 166.30244 538.2625 165.41182Q537.2625 164.50557 537.1219 163.06807ZM546.21564 156.1462L546.21564 154.78682L553.6219 154.78682L553.6219 155.88057Q552.52814 157.05244 551.45 158.98994Q550.3875 160.91182 549.79376 162.94307Q549.3719 164.38057 549.2625 166.09932L547.8094 166.09932Q547.84064 164.73994 548.34064 162.8337Q548.85626 160.91182 549.79376 159.1462Q550.7469 157.36494 551.825 156.1462L546.21564 156.1462ZM555.90314 166.09932L555.90314 164.48994L557.5125 164.48994L557.5125 166.09932L555.90314 166.09932ZM559.1219 163.09932L560.59064 162.97432Q560.7625 164.05244 561.35626 164.59932Q561.95 165.13057 562.79376 165.13057Q563.8094 165.13057 564.5125 164.36494Q565.21564 163.59932 565.21564 162.3337Q565.21564 161.13057 564.54376 160.44307Q563.8719 159.73994 562.77814 159.73994Q562.09064 159.73994 561.54376 160.05244Q560.9969 160.36494 560.6844 160.84932L559.3719 160.67744L560.48126 154.80244L566.16876 154.80244L566.16876 156.1462L561.60626 156.1462L560.98126 159.22432Q562.0125 158.50557 563.15314 158.50557Q564.65314 158.50557 565.6844 159.55244Q566.71564 160.5837 566.71564 162.2087Q566.71564 163.7712 565.8094 164.8962Q564.7 166.30244 562.79376 166.30244Q561.23126 166.30244 560.2469 165.42744Q559.2625 164.53682 559.1219 163.09932ZM568.3875 157.3962Q568.3875 156.16182 568.9969 155.30244Q569.6219 154.44307 570.79376 154.44307Q571.8719 154.44307 572.575 155.22432Q573.27814 155.98994 573.27814 157.47432Q573.27814 158.92744 572.5594 159.72432Q571.85626 160.50557 570.8094 160.50557Q569.7625 160.50557 569.075 159.73994Q568.3875 158.9587 568.3875 157.3962ZM570.825 155.41182Q570.3094 155.41182 569.95 155.86494Q569.60626 156.31807 569.60626 157.53682Q569.60626 158.63057 569.95 159.0837Q570.3094 159.53682 570.825 159.53682Q571.35626 159.53682 571.7 159.0837Q572.0594 158.63057 572.0594 157.42744Q572.0594 156.31807 571.7 155.86494Q571.35626 155.41182 570.825 155.41182ZM570.84064 166.5212L577.10626 154.44307L578.2469 154.44307L571.9969 166.5212L570.84064 166.5212ZM575.79376 163.41182Q575.79376 162.17744 576.40314 161.31807Q577.02814 160.4587 578.2 160.4587Q579.27814 160.4587 579.98126 161.23994Q580.7 162.00557 580.7 163.48994Q580.7 164.94307 579.98126 165.73994Q579.2625 166.5212 578.21564 166.5212Q577.16876 166.5212 576.48126 165.73994Q575.79376 164.9587 575.79376 163.41182ZM578.2469 161.42744Q577.71564 161.42744 577.35626 161.88057Q577.0125 162.3337 577.0125 163.55244Q577.0125 164.6462 577.35626 165.09932Q577.71564 165.55244 578.23126 165.55244Q578.77814 165.55244 579.1219 165.09932Q579.46564 164.6462 579.46564 163.44307Q579.46564 162.3337 579.10626 161.88057Q578.7625 161.42744 578.2469 161.42744Z" fill-rule="nonzero"/><path stroke="#757575" stroke-width="1.0" stroke-linecap="butt" d="M581.45 149.59932L454.76666 149.59932L430.57034 149.59932" fill-rule="nonzero"/><path fill="#9e9e9e" d="M432.57034 149.59932C432.57034 148.49475 431.67493 147.59932 430.57034 147.59932C429.4658 147.59932 428.57034 148.49475 428.57034 149.59932C428.57034 150.70389 429.4658 151.59932 430.57034 151.59932C431.67493 151.59932 432.57034 150.70389 432.57034 149.59932" fill-rule="nonzero"/><path fill="#efefef" d="M495.85626 322.4344L497.3719 322.8094Q496.90314 324.6844 495.65314 325.66876Q494.41876 326.65314 492.6375 326.65314Q490.77814 326.65314 489.6219 325.90314Q488.46564 325.1375 487.85626 323.71564Q487.2469 322.27814 487.2469 320.6375Q487.2469 318.84064 487.9344 317.5125Q488.6219 316.1844 489.8719 315.4969Q491.1375 314.79376 492.65314 314.79376Q494.3719 314.79376 495.54376 315.66876Q496.71564 316.54376 497.1844 318.1375L495.6844 318.48126Q495.29376 317.23126 494.52814 316.66876Q493.77814 316.09064 492.6219 316.09064Q491.3094 316.09064 490.41876 316.73126Q489.52814 317.35626 489.16876 318.4344Q488.8094 319.4969 488.8094 320.6219Q488.8094 322.09064 489.23126 323.1844Q489.66876 324.2625 490.5594 324.8094Q491.46564 325.34064 492.5125 325.34064Q493.77814 325.34064 494.65314 324.60626Q495.54376 323.8719 495.85626 322.4344ZM504.95 326.45L504.95 325.23126Q503.98126 326.6375 502.3094 326.6375Q501.575 326.6375 500.9344 326.35626Q500.3094 326.075 499.9969 325.65314Q499.6844 325.21564 499.5594 324.60626Q499.48126 324.1844 499.48126 323.29376L499.48126 318.15314L500.8875 318.15314L500.8875 322.7469Q500.8875 323.85626 500.96564 324.23126Q501.10626 324.79376 501.52814 325.10626Q501.96564 325.41876 502.59064 325.41876Q503.23126 325.41876 503.77814 325.10626Q504.34064 324.77814 504.5594 324.21564Q504.79376 323.65314 504.79376 322.59064L504.79376 318.15314L506.2 318.15314L506.2 326.45L504.95 326.45ZM508.48126 326.45L508.48126 314.9969L509.8875 314.9969L509.8875 326.45L508.48126 326.45ZM515.575 325.1844L515.77814 326.4344Q515.1844 326.5594 514.71564 326.5594Q513.95 326.5594 513.52814 326.325Q513.10626 326.075 512.9344 325.6844Q512.7625 325.27814 512.7625 324.0125L512.7625 319.2469L511.73126 319.2469L511.73126 318.15314L512.7625 318.15314L512.7625 316.09064L514.16876 315.2469L514.16876 318.15314L515.575 318.15314L515.575 319.2469L514.16876 319.2469L514.16876 324.09064Q514.16876 324.7 514.23126 324.8719Q514.3094 325.04376 514.48126 325.15314Q514.65314 325.2469 514.96564 325.2469Q515.2 325.2469 515.575 325.1844ZM521.95 326.45L521.95 325.23126Q520.98126 326.6375 519.3094 326.6375Q518.575 326.6375 517.9344 326.35626Q517.3094 326.075 516.9969 325.65314Q516.6844 325.21564 516.5594 324.60626Q516.48126 324.1844 516.48126 323.29376L516.48126 318.15314L517.8875 318.15314L517.8875 322.7469Q517.8875 323.85626 517.96564 324.23126Q518.10626 324.79376 518.52814 325.10626Q518.96564 325.41876 519.59064 325.41876Q520.23126 325.41876 520.77814 325.10626Q521.34064 324.77814 521.5594 324.21564Q521.79376 323.65314 521.79376 322.59064L521.79376 318.15314L523.2 318.15314L523.2 326.45L521.95 326.45ZM525.4969 326.45L525.4969 318.15314L526.7625 318.15314L526.7625 319.40314Q527.2469 318.52814 527.65314 318.2469Q528.0594 317.96564 528.5594 317.96564Q529.2625 317.96564 529.9969 318.41876L529.5125 319.71564Q528.9969 319.41876 528.48126 319.41876Q528.02814 319.41876 527.65314 319.7Q527.29376 319.96564 527.1375 320.46564Q526.90314 321.21564 526.90314 322.10626L526.90314 326.45L525.4969 326.45ZM535.91876 325.41876Q535.1375 326.09064 534.41876 326.3719Q533.7 326.6375 532.8719 326.6375Q531.4969 326.6375 530.7625 325.96564Q530.02814 325.29376 530.02814 324.2625Q530.02814 323.65314 530.3094 323.15314Q530.59064 322.6375 531.02814 322.34064Q531.48126 322.02814 532.04376 321.8719Q532.46564 321.7625 533.29376 321.66876Q534.9969 321.46564 535.8094 321.1844Q535.8094 320.8875 535.8094 320.8094Q535.8094 319.95 535.41876 319.60626Q534.8719 319.1219 533.8094 319.1219Q532.825 319.1219 532.34064 319.48126Q531.8719 319.825 531.65314 320.7L530.27814 320.5125Q530.46564 319.6375 530.8875 319.09064Q531.325 318.54376 532.1375 318.2625Q532.95 317.96564 534.0125 317.96564Q535.075 317.96564 535.73126 318.21564Q536.40314 318.46564 536.71564 318.84064Q537.02814 319.21564 537.15314 319.79376Q537.23126 320.15314 537.23126 321.09064L537.23126 322.96564Q537.23126 324.9344 537.3094 325.45Q537.40314 325.96564 537.66876 326.45L536.2 326.45Q535.98126 326.0125 535.91876 325.41876ZM535.8094 322.27814Q535.04376 322.59064 533.5125 322.8094Q532.6375 322.9344 532.27814 323.09064Q531.91876 323.2469 531.71564 323.5594Q531.52814 323.85626 531.52814 324.21564Q531.52814 324.77814 531.95 325.15314Q532.3875 325.52814 533.2 325.52814Q534.0125 325.52814 534.6375 325.1844Q535.27814 324.825 535.575 324.2Q535.8094 323.73126 535.8094 322.79376L535.8094 322.27814ZM539.48126 326.45L539.48126 314.9969L540.8875 314.9969L540.8875 326.45L539.48126 326.45ZM546.41876 326.45L550.825 314.9969L552.46564 314.9969L557.15314 326.45L555.41876 326.45L554.09064 322.98126L549.29376 322.98126L548.04376 326.45L546.41876 326.45ZM549.73126 321.7469L553.6219 321.7469L552.41876 318.575Q551.8719 317.1219 551.60626 316.2Q551.3875 317.29376 550.9969 318.3875L549.73126 321.7469ZM563.91876 323.40314L565.3094 323.59064Q565.075 325.0125 564.1375 325.825Q563.21564 326.6375 561.85626 326.6375Q560.15314 326.6375 559.10626 325.52814Q558.075 324.40314 558.075 322.325Q558.075 320.98126 558.5125 319.98126Q558.96564 318.96564 559.8719 318.46564Q560.79376 317.96564 561.85626 317.96564Q563.21564 317.96564 564.075 318.65314Q564.9344 319.325 565.16876 320.59064L563.8094 320.79376Q563.60626 319.96564 563.10626 319.54376Q562.6219 319.1219 561.91876 319.1219Q560.85626 319.1219 560.1844 319.8875Q559.52814 320.6375 559.52814 322.29376Q559.52814 323.96564 560.16876 324.73126Q560.8094 325.48126 561.84064 325.48126Q562.66876 325.48126 563.21564 324.98126Q563.77814 324.46564 563.91876 323.40314ZM569.575 325.1844L569.77814 326.4344Q569.1844 326.5594 568.71564 326.5594Q567.95 326.5594 567.52814 326.325Q567.10626 326.075 566.9344 325.6844Q566.7625 325.27814 566.7625 324.0125L566.7625 319.2469L565.73126 319.2469L565.73126 318.15314L566.7625 318.15314L566.7625 316.09064L568.16876 315.2469L568.16876 318.15314L569.575 318.15314L569.575 319.2469L568.16876 319.2469L568.16876 324.09064Q568.16876 324.7 568.23126 324.8719Q568.3094 325.04376 568.48126 325.15314Q568.65314 325.2469 568.96564 325.2469Q569.2 325.2469 569.575 325.1844ZM569.95 323.96564L571.34064 323.7469Q571.45 324.59064 571.98126 325.04376Q572.52814 325.48126 573.48126 325.48126Q574.45 325.48126 574.91876 325.09064Q575.3875 324.6844 575.3875 324.15314Q575.3875 323.6844 574.98126 323.40314Q574.6844 323.21564 573.54376 322.9344Q571.9969 322.54376 571.3875 322.2625Q570.79376 321.96564 570.48126 321.46564Q570.1844 320.96564 570.1844 320.35626Q570.1844 319.79376 570.4344 319.325Q570.6844 318.85626 571.1219 318.54376Q571.45 318.29376 572.0125 318.1375Q572.59064 317.96564 573.23126 317.96564Q574.21564 317.96564 574.95 318.2469Q575.6844 318.52814 576.02814 319.0125Q576.3875 319.48126 576.52814 320.29376L575.15314 320.48126Q575.0594 319.84064 574.60626 319.48126Q574.15314 319.1219 573.34064 319.1219Q572.3719 319.1219 571.95 319.45Q571.54376 319.7625 571.54376 320.1844Q571.54376 320.46564 571.71564 320.6844Q571.8875 320.90314 572.2469 321.0594Q572.46564 321.1375 573.4969 321.41876Q574.98126 321.8094 575.575 322.075Q576.16876 322.325 576.4969 322.8094Q576.84064 323.29376 576.84064 324.0125Q576.84064 324.71564 576.41876 325.34064Q576.0125 325.95 575.23126 326.29376Q574.46564 326.6375 573.4969 326.6375Q571.8719 326.6375 571.02814 325.96564Q570.1844 325.29376 569.95 323.96564ZM578.90314 326.45L578.90314 324.84064L580.5125 324.84064L580.5125 326.45L578.90314 326.45Z" fill-rule="nonzero"/><path fill="#9e9e9e" d="M542.41876 348.45L541.0125 348.45L541.0125 339.48126Q540.4969 339.96564 539.66876 340.45Q538.85626 340.9344 538.2 341.1844L538.2 339.825Q539.3719 339.2625 540.2469 338.48126Q541.1375 337.6844 541.5125 336.95L542.41876 336.95L542.41876 348.45ZM553.5125 347.09064L553.5125 348.45L545.9344 348.45Q545.91876 347.9344 546.10626 347.46564Q546.3875 346.7 547.02814 345.95Q547.66876 345.2 548.8719 344.21564Q550.73126 342.6844 551.3875 341.79376Q552.04376 340.8875 552.04376 340.09064Q552.04376 339.2625 551.45 338.6844Q550.85626 338.10626 549.8875 338.10626Q548.8719 338.10626 548.2625 338.71564Q547.65314 339.325 547.65314 340.40314L546.2 340.2625Q546.35626 338.6375 547.325 337.79376Q548.29376 336.95 549.91876 336.95Q551.575 336.95 552.52814 337.8719Q553.4969 338.77814 553.4969 340.1219Q553.4969 340.8094 553.21564 341.48126Q552.9344 342.1375 552.27814 342.8719Q551.6219 343.60626 550.10626 344.8875Q548.84064 345.95 548.48126 346.34064Q548.1219 346.71564 547.8875 347.09064L553.5125 347.09064ZM555.90314 348.45L555.90314 346.84064L557.5125 346.84064L557.5125 348.45L555.90314 348.45ZM559.1219 345.45L560.59064 345.325Q560.7625 346.40314 561.35626 346.95Q561.95 347.48126 562.79376 347.48126Q563.8094 347.48126 564.5125 346.71564Q565.21564 345.95 565.21564 344.6844Q565.21564 343.48126 564.54376 342.79376Q563.8719 342.09064 562.77814 342.09064Q562.09064 342.09064 561.54376 342.40314Q560.9969 342.71564 560.6844 343.2L559.3719 343.02814L560.48126 337.15314L566.16876 337.15314L566.16876 338.4969L561.60626 338.4969L560.98126 341.575Q562.0125 340.85626 563.15314 340.85626Q564.65314 340.85626 565.6844 341.90314Q566.71564 342.9344 566.71564 344.5594Q566.71564 346.1219 565.8094 347.2469Q564.7 348.65314 562.79376 348.65314Q561.23126 348.65314 560.2469 347.77814Q559.2625 346.8875 559.1219 345.45ZM568.3875 339.7469Q568.3875 338.5125 568.9969 337.65314Q569.6219 336.79376 570.79376 336.79376Q571.8719 336.79376 572.575 337.575Q573.27814 338.34064 573.27814 339.825Q573.27814 341.27814 572.5594 342.075Q571.85626 342.85626 570.8094 342.85626Q569.7625 342.85626 569.075 342.09064Q568.3875 341.3094 568.3875 339.7469ZM570.825 337.7625Q570.3094 337.7625 569.95 338.21564Q569.60626 338.66876 569.60626 339.8875Q569.60626 340.98126 569.95 341.4344Q570.3094 341.8875 570.825 341.8875Q571.35626 341.8875 571.7 341.4344Q572.0594 340.98126 572.0594 339.77814Q572.0594 338.66876 571.7 338.21564Q571.35626 337.7625 570.825 337.7625ZM570.84064 348.8719L577.10626 336.79376L578.2469 336.79376L571.9969 348.8719L570.84064 348.8719ZM575.79376 345.7625Q575.79376 344.52814 576.40314 343.66876Q577.02814 342.8094 578.2 342.8094Q579.27814 342.8094 579.98126 343.59064Q580.7 344.35626 580.7 345.84064Q580.7 347.29376 579.98126 348.09064Q579.2625 348.8719 578.21564 348.8719Q577.16876 348.8719 576.48126 348.09064Q575.79376 347.3094 575.79376 345.7625ZM578.2469 343.77814Q577.71564 343.77814 577.35626 344.23126Q577.0125 344.6844 577.0125 345.90314Q577.0125 346.9969 577.35626 347.45Q577.71564 347.90314 578.23126 347.90314Q578.77814 347.90314 579.1219 347.45Q579.46564 346.9969 579.46564 345.79376Q579.46564 344.6844 579.10626 344.23126Q578.7625 343.77814 578.2469 343.77814Z" fill-rule="nonzero"/><path stroke="#757575" stroke-width="1.0" stroke-linecap="butt" d="M581.45 331.95L454.76666 331.95L354.084 334.2537" fill-rule="nonzero"/><path fill="#9e9e9e" d="M356.084 334.2537C356.084 333.1491 355.18857 332.2537 354.084 332.2537C352.97943 332.2537 352.084 333.1491 352.084 334.2537C352.084 335.35825 352.97943 336.2537 354.084 336.2537C355.18857 336.2537 356.084 335.35825 356.084 334.2537" fill-rule="nonzero"/><path fill="#f3f3f3" d="M271.26562 32.534374L273.15625 33.003124Q272.5625 35.346874 271.01562 36.58125Q269.46875 37.8 267.21875 37.8Q264.90625 37.8 263.45312 36.8625Q262.01562 35.909374 261.25 34.128124Q260.5 32.33125 260.5 30.284374Q260.5 28.05 261.34375 26.39375Q262.20312 24.721874 263.78125 23.8625Q265.35938 22.9875 267.25 22.9875Q269.40625 22.9875 270.85938 24.08125Q272.32812 25.175 272.90625 27.159374L271.04688 27.596874Q270.54688 26.034374 269.59375 25.33125Q268.65625 24.6125 267.21875 24.6125Q265.5625 24.6125 264.45312 25.409374Q263.34375 26.190624 262.89062 27.534374Q262.45312 28.8625 262.45312 30.26875Q262.45312 32.096874 262.98438 33.471874Q263.51562 34.83125 264.64062 35.503124Q265.76562 36.175 267.0625 36.175Q268.65625 36.175 269.76562 35.253124Q270.875 34.33125 271.26562 32.534374ZM281.59375 36.26875Q280.60938 37.096874 279.70312 37.440624Q278.79688 37.784374 277.76562 37.784374Q276.0625 37.784374 275.14062 36.95625Q274.21875 36.1125 274.21875 34.815624Q274.21875 34.05 274.5625 33.425Q274.92188 32.8 275.48438 32.425Q276.04688 32.034374 276.75 31.83125Q277.26562 31.70625 278.3125 31.565624Q280.4375 31.315624 281.4375 30.971874Q281.45312 30.6125 281.45312 30.503124Q281.45312 29.440624 280.95312 28.9875Q280.28125 28.39375 278.95312 28.39375Q277.70312 28.39375 277.10938 28.83125Q276.53125 29.26875 276.25 30.378124L274.53125 30.14375Q274.76562 29.034374 275.29688 28.3625Q275.82812 27.675 276.84375 27.315624Q277.85938 26.940624 279.20312 26.940624Q280.53125 26.940624 281.35938 27.253124Q282.1875 27.565624 282.57812 28.05Q282.96875 28.51875 283.125 29.2375Q283.21875 29.690624 283.21875 30.8625L283.21875 33.20625Q283.21875 35.659374 283.32812 36.315624Q283.4375 36.95625 283.78125 37.55L281.9375 37.55Q281.67188 37.003124 281.59375 36.26875ZM281.4375 32.346874Q280.48438 32.7375 278.5625 33.003124Q277.48438 33.159374 277.03125 33.3625Q276.59375 33.55 276.34375 33.925Q276.09375 34.3 276.09375 34.76875Q276.09375 35.471874 276.625 35.940624Q277.15625 36.409374 278.1875 36.409374Q279.20312 36.409374 279.98438 35.971874Q280.78125 35.51875 281.15625 34.753124Q281.4375 34.14375 281.4375 32.9875L281.4375 32.346874ZM289.65625 35.971874L289.90625 37.534374Q289.17188 37.690624 288.57812 37.690624Q287.625 37.690624 287.09375 37.39375Q286.57812 37.08125 286.35938 36.596874Q286.14062 36.096874 286.14062 34.51875L286.14062 28.55L284.85938 28.55L284.85938 27.175L286.14062 27.175L286.14062 24.6125L287.89062 23.55L287.89062 27.175L289.65625 27.175L289.65625 28.55L287.89062 28.55L287.89062 34.6125Q287.89062 35.3625 287.98438 35.58125Q288.07812 35.784374 288.28125 35.925Q288.5 36.05 288.89062 36.05Q289.17188 36.05 289.65625 35.971874ZM298.92188 34.20625L300.73438 34.440624Q300.3125 36.01875 299.14062 36.909374Q297.98438 37.784374 296.17188 37.784374Q293.90625 37.784374 292.5625 36.39375Q291.23438 34.9875 291.23438 32.45625Q291.23438 29.83125 292.57812 28.39375Q293.92188 26.940624 296.07812 26.940624Q298.15625 26.940624 299.46875 28.3625Q300.79688 29.76875 300.79688 32.346874Q300.79688 32.503124 300.78125 32.815624L293.04688 32.815624Q293.14062 34.51875 294.01562 35.425Q294.89062 36.33125 296.1875 36.33125Q297.15625 36.33125 297.82812 35.83125Q298.51562 35.315624 298.92188 34.20625ZM293.14062 31.3625L298.9375 31.3625Q298.82812 30.065624 298.28125 29.409374Q297.4375 28.39375 296.09375 28.39375Q294.89062 28.39375 294.0625 29.20625Q293.23438 30.003124 293.14062 31.3625ZM302.5 38.409374L304.20312 38.659374Q304.3125 39.45625 304.79688 39.815624Q305.45312 40.3 306.59375 40.3Q307.8125 40.3 308.46875 39.815624Q309.14062 39.33125 309.375 38.45625Q309.51562 37.909374 309.5 36.190624Q308.34375 37.55 306.625 37.55Q304.48438 37.55 303.3125 36.003124Q302.14062 34.45625 302.14062 32.3Q302.14062 30.815624 302.67188 29.565624Q303.21875 28.315624 304.23438 27.628124Q305.26562 26.940624 306.64062 26.940624Q308.46875 26.940624 309.67188 28.425L309.67188 27.175L311.28125 27.175L311.28125 36.14375Q311.28125 38.565624 310.78125 39.565624Q310.29688 40.58125 309.21875 41.159374Q308.15625 41.753124 306.59375 41.753124Q304.75 41.753124 303.59375 40.925Q302.45312 40.096874 302.5 38.409374ZM303.95312 32.175Q303.95312 34.221874 304.76562 35.159374Q305.57812 36.096874 306.79688 36.096874Q308.0 36.096874 308.8125 35.159374Q309.64062 34.221874 309.64062 32.2375Q309.64062 30.33125 308.79688 29.3625Q307.95312 28.39375 306.76562 28.39375Q305.59375 28.39375 304.76562 29.346874Q303.95312 30.3 303.95312 32.175ZM313.17188 32.3625Q313.17188 29.4875 314.76562 28.096874Q316.10938 26.940624 318.03125 26.940624Q320.17188 26.940624 321.51562 28.346874Q322.875 29.753124 322.875 32.221874Q322.875 34.221874 322.28125 35.378124Q321.6875 36.51875 320.53125 37.159374Q319.39062 37.784374 318.03125 37.784374Q315.84375 37.784374 314.5 36.39375Q313.17188 34.9875 313.17188 32.3625ZM314.96875 32.3625Q314.96875 34.3625 315.82812 35.346874Q316.70312 36.33125 318.03125 36.33125Q319.34375 36.33125 320.20312 35.346874Q321.07812 34.346874 321.07812 32.3Q321.07812 30.378124 320.20312 29.39375Q319.32812 28.39375 318.03125 28.39375Q316.70312 28.39375 315.82812 29.39375Q314.96875 30.378124 314.96875 32.3625ZM324.79688 37.55L324.79688 27.175L326.375 27.175L326.375 28.753124Q326.98438 27.64375 327.5 27.3Q328.01562 26.940624 328.625 26.940624Q329.51562 26.940624 330.4375 27.503124L329.82812 29.14375Q329.1875 28.753124 328.54688 28.753124Q327.96875 28.753124 327.5 29.1125Q327.04688 29.45625 326.84375 30.065624Q326.5625 31.003124 326.5625 32.1125L326.5625 37.55L324.79688 37.55ZM331.73438 41.55L331.54688 39.89375Q332.125 40.05 332.54688 40.05Q333.14062 40.05 333.48438 39.846874Q333.84375 39.659374 334.0625 39.315624Q334.23438 39.05 334.60938 38.003124Q334.65625 37.846874 334.76562 37.565624L330.82812 27.175L332.71875 27.175L334.875 33.190624Q335.29688 34.33125 335.625 35.58125Q335.9375 34.378124 336.34375 33.221874L338.5625 27.175L340.32812 27.175L336.375 37.721874Q335.75 39.440624 335.39062 40.08125Q334.92188 40.95625 334.3125 41.346874Q333.71875 41.753124 332.875 41.753124Q332.35938 41.753124 331.73438 41.55Z" fill-rule="nonzero"/></svg>