<svg version="1.1" viewBox="0.0 0.0 600.0 371.0" fill="none" stroke="none" stroke-linecap="square" stroke-miterlimit="10" width="600" height="371" xmlns:xlink="http://www.w3.org/1999/xlink" xmlns="http://www.w3.org/2000/svg"><path fill="#ffffff" fill-opacity="0.0" d="M0 0L600.0 0L600.0 371.0L0 371.0L0 0Z" fill-rule="nonzero"/><path fill="#b5428d" d="M300.0 54.916668C345.27335 54.916668 388.08298 75.53269 416.31046 110.92883L329.0776 180.4947C322.02075 171.64568 311.31833 166.49167 300.0 166.49167Z" fill-rule="nonzero"/><path fill="#d0473d" d="M235.45256 337.71747C172.91847 307.60263 139.51859 238.24706 154.96323 170.57964C170.40787 102.91222 230.59239 54.916668 300.0 54.916668L300.0 166.49167C282.6481 166.49167 267.60196 178.49055 263.7408 195.40741C259.87964 212.32426 268.2296 229.66316 283.86313 237.19186Z" fill-rule="nonzero"/><path fill="#cf4366" d="M416.31046 110.92883C459.5854 165.1939 459.5854 242.17278 416.31046 296.43784C373.03552 350.70288 297.98666 367.8323 235.45256 337.71747L283.86313 237.19186C299.49667 244.72058 318.25888 240.43822 329.0776 226.87196C339.89636 213.3057 339.89636 194.06097 329.0776 180.4947Z" fill-rule="nonzero"/><path fill="#ffffff" d="M327.28397 114.495476L325.70584 114.495476L325.70584 104.41735Q325.12772 104.964226 324.20584 105.5111Q323.28397 106.04235 322.53397 106.3236L322.53397 104.79235Q323.8621 104.16735 324.8621 103.276726Q325.8621 102.3861 326.26834 101.557976L327.28397 101.557976L327.28397 114.495476ZM336.39334 114.495476L336.39334 111.41735L330.81522 111.41735L330.81522 109.964226L336.69022 101.60485L337.9871 101.60485L337.9871 109.964226L339.72147 109.964226L339.72147 111.41735L337.9871 111.41735L337.9871 114.495476L336.39334 114.495476ZM336.39334 109.964226L336.39334 104.151726L332.3621 109.964226L336.39334 109.964226ZM342.22147 114.495476L342.22147 112.6986L344.01834 112.6986L344.01834 114.495476L342.22147 114.495476ZM346.33084 111.089226L347.9246 110.8861Q348.19022 112.22985 348.84647 112.8236Q349.50272 113.41735 350.44022 113.41735Q351.56522 113.41735 352.33084 112.651726Q353.09647 111.870476 353.09647 110.72985Q353.09647 109.6361 352.37772 108.932976Q351.6746 108.214226 350.58084 108.214226Q350.12772 108.214226 349.45584 108.401726L349.62772 107.0111Q349.78397 107.026726 349.89334 107.026726Q350.89334 107.026726 351.70584 106.495476Q352.51834 105.964226 352.51834 104.870476Q352.51834 103.995476 351.9246 103.432976Q351.33084 102.85485 350.40897 102.85485Q349.4871 102.85485 348.8621 103.432976Q348.25272 104.0111 348.08084 105.182976L346.50272 104.901726Q346.78397 103.307976 347.81522 102.432976Q348.84647 101.557976 350.37772 101.557976Q351.4246 101.557976 352.31522 102.0111Q353.20584 102.464226 353.6746 103.245476Q354.14334 104.026726 354.14334 104.901726Q354.14334 105.745476 353.69022 106.432976Q353.25272 107.10485 352.3621 107.5111Q353.50272 107.776726 354.12772 108.620476Q354.76834 109.4486 354.76834 110.682976Q354.76834 112.370476 353.53397 113.557976Q352.31522 114.72985 350.44022 114.72985Q348.7371 114.72985 347.6121 113.714226Q346.50272 112.6986 346.33084 111.089226ZM356.62772 104.6986Q356.62772 103.3236 357.31522 102.35485Q358.01834 101.3861 359.33084 101.3861Q360.5496 101.3861 361.34647 102.2611Q362.14334 103.120476 362.14334 104.807976Q362.14334 106.432976 361.33084 107.3236Q360.53397 108.1986 359.34647 108.1986Q358.19022 108.1986 357.40897 107.339226Q356.62772 106.464226 356.62772 104.6986ZM359.37772 102.47985Q358.78397 102.47985 358.39334 102.995476Q358.00272 103.495476 358.00272 104.85485Q358.00272 106.10485 358.39334 106.60485Q358.7996 107.10485 359.37772 107.10485Q359.97147 107.10485 360.3621 106.60485Q360.75272 106.089226 360.75272 104.745476Q360.75272 103.495476 360.3621 102.995476Q359.97147 102.47985 359.37772 102.47985ZM359.39334 114.964226L366.44022 101.3861L367.72147 101.3861L360.69022 114.964226L359.39334 114.964226ZM364.95584 111.464226Q364.95584 110.089226 365.64334 109.120476Q366.34647 108.151726 367.6746 108.151726Q368.89334 108.151726 369.6746 109.026726Q370.47147 109.8861 370.47147 111.5736Q370.47147 113.1986 369.6746 114.089226Q368.87772 114.964226 367.69022 114.964226Q366.51834 114.964226 365.7371 114.089226Q364.95584 113.214226 364.95584 111.464226ZM367.72147 109.245476Q367.12772 109.245476 366.7371 109.7611Q366.34647 110.2611 366.34647 111.6361Q366.34647 112.85485 366.7371 113.370476Q367.12772 113.8861 367.70584 113.8861Q368.31522 113.8861 368.70584 113.370476Q369.09647 112.85485 369.09647 111.5111Q369.09647 110.2611 368.70584 109.7611Q368.31522 109.245476 367.72147 109.245476Z" fill-rule="nonzero"/><path fill="#ffffff" d="M359.4973 273.33112L359.4973 270.253L353.9192 270.253L353.9192 268.79987L359.7942 260.4405L361.09106 260.4405L361.09106 268.79987L362.82544 268.79987L362.82544 270.253L361.09106 270.253L361.09106 273.33112L359.4973 273.33112ZM359.4973 268.79987L359.4973 262.98737L355.46606 268.79987L359.4973 268.79987ZM372.7473 271.8155L372.7473 273.33112L364.2317 273.33112Q364.21606 272.753 364.4192 272.23737Q364.7473 271.36237 365.45044 270.51862Q366.1692 269.67487 367.52856 268.5655Q369.6223 266.84674 370.3567 265.84674Q371.1067 264.83112 371.1067 263.9405Q371.1067 262.98737 370.4348 262.34674Q369.76294 261.70612 368.6848 261.70612Q367.52856 261.70612 366.84106 262.39362Q366.1692 263.08112 366.15356 264.28424L364.52856 264.11237Q364.70044 262.29987 365.77856 261.34674Q366.8723 260.39362 368.71606 260.39362Q370.5598 260.39362 371.63794 261.42487Q372.7317 262.45612 372.7317 263.97174Q372.7317 264.73737 372.40356 265.48737Q372.09106 266.23737 371.3567 267.0655Q370.6223 267.89362 368.9192 269.33112Q367.4973 270.53424 367.09106 270.95612Q366.6848 271.378 366.4348 271.8155L372.7473 271.8155ZM375.32544 273.33112L375.32544 271.53424L377.1223 271.53424L377.1223 273.33112L375.32544 273.33112ZM379.6692 270.34674L381.1848 270.20612Q381.38794 271.28424 381.9192 271.76862Q382.46606 272.253 383.32544 272.253Q384.0598 272.253 384.6067 271.92487Q385.15356 271.58112 385.4973 271.03424Q385.8567 270.47174 386.09106 269.51862Q386.32544 268.5655 386.32544 267.58112Q386.32544 267.47174 386.32544 267.26862Q385.84106 268.01862 385.01294 268.48737Q384.20044 268.95612 383.2473 268.95612Q381.65356 268.95612 380.5442 267.79987Q379.4348 266.64362 379.4348 264.73737Q379.4348 262.78424 380.59106 261.59674Q381.7473 260.39362 383.4817 260.39362Q384.7473 260.39362 385.77856 261.08112Q386.82544 261.753 387.3567 263.003Q387.90356 264.253 387.90356 266.628Q387.90356 269.09674 387.3567 270.5655Q386.82544 272.01862 385.76294 272.78424Q384.71606 273.54987 383.2942 273.54987Q381.77856 273.54987 380.8098 272.72174Q379.8567 271.878 379.6692 270.34674ZM386.15356 264.65924Q386.15356 263.29987 385.4192 262.503Q384.70044 261.70612 383.6848 261.70612Q382.6223 261.70612 381.84106 262.5655Q381.0598 263.42487 381.0598 264.79987Q381.0598 266.03424 381.7942 266.79987Q382.5442 267.5655 383.63794 267.5655Q384.7317 267.5655 385.4348 266.79987Q386.15356 266.03424 386.15356 264.65924ZM389.7317 263.53424Q389.7317 262.15924 390.4192 261.1905Q391.1223 260.22174 392.4348 260.22174Q393.65356 260.22174 394.45044 261.09674Q395.2473 261.95612 395.2473 263.64362Q395.2473 265.26862 394.4348 266.15924Q393.63794 267.03424 392.45044 267.03424Q391.2942 267.03424 390.51294 266.17487Q389.7317 265.29987 389.7317 263.53424ZM392.4817 261.3155Q391.88794 261.3155 391.4973 261.83112Q391.1067 262.33112 391.1067 263.6905Q391.1067 264.9405 391.4973 265.4405Q391.90356 265.9405 392.4817 265.9405Q393.07544 265.9405 393.46606 265.4405Q393.8567 264.92487 393.8567 263.58112Q393.8567 262.33112 393.46606 261.83112Q393.07544 261.3155 392.4817 261.3155ZM392.4973 273.79987L399.5442 260.22174L400.82544 260.22174L393.7942 273.79987L392.4973 273.79987ZM398.0598 270.29987Q398.0598 268.92487 398.7473 267.95612Q399.45044 266.98737 400.77856 266.98737Q401.9973 266.98737 402.77856 267.86237Q403.57544 268.72174 403.57544 270.40924Q403.57544 272.03424 402.77856 272.92487Q401.9817 273.79987 400.7942 273.79987Q399.6223 273.79987 398.84106 272.92487Q398.0598 272.04987 398.0598 270.29987ZM400.82544 268.08112Q400.2317 268.08112 399.84106 268.59674Q399.45044 269.09674 399.45044 270.47174Q399.45044 271.6905 399.84106 272.20612Q400.2317 272.72174 400.8098 272.72174Q401.4192 272.72174 401.8098 272.20612Q402.20044 271.6905 402.20044 270.34674Q402.20044 269.09674 401.8098 268.59674Q401.4192 268.08112 400.82544 268.08112Z" fill-rule="nonzero"/><path fill="#ffffff" d="M179.97409 187.28175L179.97409 184.20363L174.39597 184.20363L174.39597 182.7505L180.27097 174.39113L181.56784 174.39113L181.56784 182.7505L183.30222 182.7505L183.30222 184.20363L181.56784 184.20363L181.56784 187.28175L179.97409 187.28175ZM179.97409 182.7505L179.97409 176.938L175.94284 182.7505L179.97409 182.7505ZM193.22409 185.76613L193.22409 187.28175L184.70847 187.28175Q184.69284 186.70363 184.89597 186.188Q185.22409 185.313 185.92722 184.46925Q186.64597 183.6255 188.00534 182.51613Q190.09909 180.79738 190.83347 179.79738Q191.58347 178.78175 191.58347 177.89113Q191.58347 176.938 190.91159 176.29738Q190.23972 175.65675 189.16159 175.65675Q188.00534 175.65675 187.31784 176.34425Q186.64597 177.03175 186.63034 178.23488L185.00534 178.063Q185.17722 176.2505 186.25534 175.29738Q187.34909 174.34425 189.19284 174.34425Q191.03659 174.34425 192.11472 175.3755Q193.20847 176.40675 193.20847 177.92238Q193.20847 178.688 192.88034 179.438Q192.56784 180.188 191.83347 181.01613Q191.09909 181.84425 189.39597 183.28175Q187.97409 184.48488 187.56784 184.90675Q187.16159 185.32863 186.91159 185.76613L193.22409 185.76613ZM195.80222 187.28175L195.80222 185.48488L197.59909 185.48488L197.59909 187.28175L195.80222 187.28175ZM200.14597 184.29738L201.66159 184.15675Q201.86472 185.23488 202.39597 185.71925Q202.94284 186.20363 203.80222 186.20363Q204.53659 186.20363 205.08347 185.8755Q205.63034 185.53175 205.97409 184.98488Q206.33347 184.42238 206.56784 183.46925Q206.80222 182.51613 206.80222 181.53175Q206.80222 181.42238 206.80222 181.21925Q206.31784 181.96925 205.48972 182.438Q204.67722 182.90675 203.72409 182.90675Q202.13034 182.90675 201.02097 181.7505Q199.91159 180.59425 199.91159 178.688Q199.91159 176.73488 201.06784 175.54738Q202.22409 174.34425 203.95847 174.34425Q205.22409 174.34425 206.25534 175.03175Q207.30222 175.70363 207.83347 176.95363Q208.38034 178.20363 208.38034 180.57863Q208.38034 183.04738 207.83347 184.51613Q207.30222 185.96925 206.23972 186.73488Q205.19284 187.5005 203.77097 187.5005Q202.25534 187.5005 201.28659 186.67238Q200.33347 185.82863 200.14597 184.29738ZM206.63034 178.60988Q206.63034 177.2505 205.89597 176.45363Q205.17722 175.65675 204.16159 175.65675Q203.09909 175.65675 202.31784 176.51613Q201.53659 177.3755 201.53659 178.7505Q201.53659 179.98488 202.27097 180.7505Q203.02097 181.51613 204.11472 181.51613Q205.20847 181.51613 205.91159 180.7505Q206.63034 179.98488 206.63034 178.60988ZM210.20847 177.48488Q210.20847 176.10988 210.89597 175.14113Q211.59909 174.17238 212.91159 174.17238Q214.13034 174.17238 214.92722 175.04738Q215.72409 175.90675 215.72409 177.59425Q215.72409 179.21925 214.91159 180.10988Q214.11472 180.98488 212.92722 180.98488Q211.77097 180.98488 210.98972 180.1255Q210.20847 179.2505 210.20847 177.48488ZM212.95847 175.26613Q212.36472 175.26613 211.97409 175.78175Q211.58347 176.28175 211.58347 177.64113Q211.58347 178.89113 211.97409 179.39113Q212.38034 179.89113 212.95847 179.89113Q213.55222 179.89113 213.94284 179.39113Q214.33347 178.8755 214.33347 177.53175Q214.33347 176.28175 213.94284 175.78175Q213.55222 175.26613 212.95847 175.26613ZM212.97409 187.7505L220.02097 174.17238L221.30222 174.17238L214.27097 187.7505L212.97409 187.7505ZM218.53659 184.2505Q218.53659 182.8755 219.22409 181.90675Q219.92722 180.938 221.25534 180.938Q222.47409 180.938 223.25534 181.813Q224.05222 182.67238 224.05222 184.35988Q224.05222 185.98488 223.25534 186.8755Q222.45847 187.7505 221.27097 187.7505Q220.09909 187.7505 219.31784 186.8755Q218.53659 186.0005 218.53659 184.2505ZM221.30222 182.03175Q220.70847 182.03175 220.31784 182.54738Q219.92722 183.04738 219.92722 184.42238Q219.92722 185.64113 220.31784 186.15675Q220.70847 186.67238 221.28659 186.67238Q221.89597 186.67238 222.28659 186.15675Q222.67722 185.64113 222.67722 184.29738Q222.67722 183.04738 222.28659 182.54738Q221.89597 182.03175 221.30222 182.03175Z" fill-rule="nonzero"/><path stroke="#ffffff" stroke-width="1.0" stroke-linejoin="round" stroke-linecap="round" d="M329.0776 180.4947C322.02075 171.64568 311.31833 166.49167 300.0 166.49167L300.0 54.916668C345.27335 54.916668 388.08298 75.53269 416.31046 110.92883" fill-rule="nonzero"/><path stroke="#ffffff" stroke-width="1.0" stroke-linejoin="round" stroke-linecap="round" d="M283.86313 237.19186C299.49667 244.72058 318.25888 240.43822 329.0776 226.87196C339.89636 213.3057 339.89636 194.06097 329.0776 180.4947L416.31046 110.92883C459.5854 165.1939 459.5854 242.17278 416.31046 296.43784C373.03552 350.70288 297.98666 367.8323 235.45256 337.71747" fill-rule="nonzero"/><path stroke="#ffffff" stroke-width="1.0" stroke-linejoin="round" stroke-linecap="round" d="M300.0 166.49167C282.6481 166.49167 267.60196 178.49055 263.7408 195.40741C259.87964 212.32426 268.2296 229.66316 283.86313 237.19186L235.45256 337.71747C172.91847 307.60263 139.51859 238.24706 154.96323 170.57964C170.40787 102.91222 230.59239 54.916668 300.0 54.916668" fill-rule="nonzero"/><path fill="#efefef" d="M19.784374 166.73482L19.784374 155.2817L24.1125 155.2817Q25.253124 155.2817 25.846874 155.39107Q26.690624 155.5317 27.253124 155.92232Q27.83125 156.31294 28.175 157.0317Q28.534374 157.73482 28.534374 158.5942Q28.534374 160.04732 27.596874 161.06294Q26.675 162.07857 24.2375 162.07857L21.3 162.07857L21.3 166.73482L19.784374 166.73482ZM21.3 160.7192L24.26875 160.7192Q25.7375 160.7192 26.346874 160.17232Q26.971874 159.62544 26.971874 158.64107Q26.971874 157.92232 26.596874 157.4067Q26.2375 156.89107 25.64375 156.73482Q25.26875 156.62544 24.2375 156.62544L21.3 156.62544L21.3 160.7192ZM30.58125 166.73482L30.58125 155.2817L31.9875 155.2817L31.9875 166.73482L30.58125 166.73482ZM40.01875 165.70357Q39.2375 166.37544 38.51875 166.6567Q37.8 166.92232 36.971874 166.92232Q35.596874 166.92232 34.8625 166.25044Q34.128124 165.57857 34.128124 164.54732Q34.128124 163.93794 34.409374 163.43794Q34.690624 162.92232 35.128124 162.62544Q35.58125 162.31294 36.14375 162.1567Q36.565624 162.04732 37.39375 161.95357Q39.096874 161.75044 39.909374 161.4692Q39.909374 161.17232 39.909374 161.0942Q39.909374 160.23482 39.51875 159.89107Q38.971874 159.4067 37.909374 159.4067Q36.925 159.4067 36.440624 159.76607Q35.971874 160.10982 35.753124 160.98482L34.378124 160.79732Q34.565624 159.92232 34.9875 159.37544Q35.425 158.82857 36.2375 158.54732Q37.05 158.25044 38.1125 158.25044Q39.175 158.25044 39.83125 158.50044Q40.503124 158.75044 40.815624 159.12544Q41.128124 159.50044 41.253124 160.07857Q41.33125 160.43794 41.33125 161.37544L41.33125 163.25044Q41.33125 165.2192 41.409374 165.73482Q41.503124 166.25044 41.76875 166.73482L40.3 166.73482Q40.08125 166.29732 40.01875 165.70357ZM39.909374 162.56294Q39.14375 162.87544 37.6125 163.0942Q36.7375 163.2192 36.378124 163.37544Q36.01875 163.5317 35.815624 163.8442Q35.628124 164.14107 35.628124 164.50044Q35.628124 165.06294 36.05 165.43794Q36.4875 165.81294 37.3 165.81294Q38.1125 165.81294 38.7375 165.4692Q39.378124 165.10982 39.675 164.48482Q39.909374 164.01607 39.909374 163.07857L39.909374 162.56294ZM43.6125 166.73482L43.6125 158.43794L44.878124 158.43794L44.878124 159.60982Q45.784374 158.25044 47.51875 158.25044Q48.26875 158.25044 48.89375 158.51607Q49.51875 158.7817 49.83125 159.2192Q50.14375 159.6567 50.26875 160.26607Q50.346874 160.6567 50.346874 161.62544L50.346874 166.73482L48.940624 166.73482L48.940624 161.68794Q48.940624 160.82857 48.76875 160.4067Q48.6125 159.9692 48.190624 159.7192Q47.784374 159.4692 47.221874 159.4692Q46.315624 159.4692 45.659374 160.04732Q45.01875 160.60982 45.01875 162.20357L45.01875 166.73482L43.6125 166.73482ZM55.675 165.4692L55.878124 166.7192Q55.284374 166.8442 54.815624 166.8442Q54.05 166.8442 53.628124 166.60982Q53.20625 166.35982 53.034374 165.9692Q52.8625 165.56294 52.8625 164.29732L52.8625 159.5317L51.83125 159.5317L51.83125 158.43794L52.8625 158.43794L52.8625 156.37544L54.26875 155.5317L54.26875 158.43794L55.675 158.43794L55.675 159.5317L54.26875 159.5317L54.26875 164.37544Q54.26875 164.98482 54.33125 165.1567Q54.409374 165.32857 54.58125 165.43794Q54.753124 165.5317 55.065624 165.5317Q55.3 165.5317 55.675 165.4692ZM56.05 164.25044L57.440624 164.0317Q57.55 164.87544 58.08125 165.32857Q58.628124 165.76607 59.58125 165.76607Q60.55 165.76607 61.01875 165.37544Q61.4875 164.9692 61.4875 164.43794Q61.4875 163.9692 61.08125 163.68794Q60.784374 163.50044 59.64375 163.2192Q58.096874 162.82857 57.4875 162.54732Q56.89375 162.25044 56.58125 161.75044Q56.284374 161.25044 56.284374 160.64107Q56.284374 160.07857 56.534374 159.60982Q56.784374 159.14107 57.221874 158.82857Q57.55 158.57857 58.1125 158.42232Q58.690624 158.25044 59.33125 158.25044Q60.315624 158.25044 61.05 158.5317Q61.784374 158.81294 62.128124 159.29732Q62.4875 159.76607 62.628124 160.57857L61.253124 160.76607Q61.159374 160.12544 60.70625 159.76607Q60.253124 159.4067 59.440624 159.4067Q58.471874 159.4067 58.05 159.73482Q57.64375 160.04732 57.64375 160.4692Q57.64375 160.75044 57.815624 160.9692Q57.9875 161.18794 58.346874 161.3442Q58.565624 161.42232 59.596874 161.70357Q61.08125 162.0942 61.675 162.35982Q62.26875 162.60982 62.596874 163.0942Q62.940624 163.57857 62.940624 164.29732Q62.940624 165.00044 62.51875 165.62544Q62.1125 166.23482 61.33125 166.57857Q60.565624 166.92232 59.596874 166.92232Q57.971874 166.92232 57.128124 166.25044Q56.284374 165.57857 56.05 164.25044Z" fill-rule="nonzero"/><path fill="#9e9e9e" d="M23.721874 188.73482L23.721874 185.98482L18.753124 185.98482L18.753124 184.70357L23.9875 177.2817L25.128124 177.2817L25.128124 184.70357L26.675 184.70357L26.675 185.98482L25.128124 185.98482L25.128124 188.73482L23.721874 188.73482ZM23.721874 184.70357L23.721874 179.5317L20.14375 184.70357L23.721874 184.70357ZM35.6125 187.37544L35.6125 188.73482L28.034374 188.73482Q28.01875 188.2192 28.20625 187.75044Q28.4875 186.98482 29.128124 186.23482Q29.76875 185.48482 30.971874 184.50044Q32.83125 182.9692 33.4875 182.07857Q34.14375 181.17232 34.14375 180.37544Q34.14375 179.54732 33.55 178.9692Q32.95625 178.39107 31.9875 178.39107Q30.971874 178.39107 30.3625 179.00044Q29.753124 179.60982 29.753124 180.68794L28.3 180.54732Q28.45625 178.92232 29.425 178.07857Q30.39375 177.23482 32.01875 177.23482Q33.675 177.23482 34.628124 178.1567Q35.596874 179.06294 35.596874 180.4067Q35.596874 181.0942 35.315624 181.76607Q35.034374 182.42232 34.378124 183.1567Q33.721874 183.89107 32.20625 185.17232Q30.940624 186.23482 30.58125 186.62544Q30.221874 187.00044 29.9875 187.37544L35.6125 187.37544ZM38.003124 188.73482L38.003124 187.12544L39.6125 187.12544L39.6125 188.73482L38.003124 188.73482ZM41.425 186.07857L42.784374 185.95357Q42.95625 186.9067 43.440624 187.3442Q43.925 187.76607 44.675 187.76607Q45.33125 187.76607 45.815624 187.4692Q46.3 187.17232 46.6125 186.68794Q46.925 186.18794 47.128124 185.3442Q47.346874 184.50044 47.346874 183.62544Q47.346874 183.5317 47.346874 183.3442Q46.925 184.01607 46.190624 184.43794Q45.45625 184.8442 44.6125 184.8442Q43.190624 184.8442 42.20625 183.81294Q41.221874 182.7817 41.221874 181.0942Q41.221874 179.35982 42.2375 178.29732Q43.26875 177.23482 44.815624 177.23482Q45.940624 177.23482 46.8625 177.8442Q47.784374 178.43794 48.26875 179.54732Q48.753124 180.6567 48.753124 182.76607Q48.753124 184.9692 48.26875 186.26607Q47.8 187.56294 46.846874 188.25044Q45.909374 188.93794 44.64375 188.93794Q43.3 188.93794 42.440624 188.18794Q41.596874 187.43794 41.425 186.07857ZM47.190624 181.0317Q47.190624 179.81294 46.534374 179.10982Q45.89375 178.39107 44.9875 178.39107Q44.05 178.39107 43.346874 179.1567Q42.659374 179.92232 42.659374 181.14107Q42.659374 182.23482 43.315624 182.92232Q43.9875 183.60982 44.95625 183.60982Q45.925 183.60982 46.55 182.92232Q47.190624 182.23482 47.190624 181.0317ZM50.4875 180.0317Q50.4875 178.79732 51.096874 177.93794Q51.721874 177.07857 52.89375 177.07857Q53.971874 177.07857 54.675 177.85982Q55.378124 178.62544 55.378124 180.10982Q55.378124 181.56294 54.659374 182.35982Q53.95625 183.14107 52.909374 183.14107Q51.8625 183.14107 51.175 182.37544Q50.4875 181.5942 50.4875 180.0317ZM52.925 178.04732Q52.409374 178.04732 52.05 178.50044Q51.70625 178.95357 51.70625 180.17232Q51.70625 181.26607 52.05 181.7192Q52.409374 182.17232 52.925 182.17232Q53.45625 182.17232 53.8 181.7192Q54.159374 181.26607 54.159374 180.06294Q54.159374 178.95357 53.8 178.50044Q53.45625 178.04732 52.925 178.04732ZM52.940624 189.1567L59.20625 177.07857L60.346874 177.07857L54.096874 189.1567L52.940624 189.1567ZM57.89375 186.04732Q57.89375 184.81294 58.503124 183.95357Q59.128124 183.0942 60.3 183.0942Q61.378124 183.0942 62.08125 183.87544Q62.8 184.64107 62.8 186.12544Q62.8 187.57857 62.08125 188.37544Q61.3625 189.1567 60.315624 189.1567Q59.26875 189.1567 58.58125 188.37544Q57.89375 187.5942 57.89375 186.04732ZM60.346874 184.06294Q59.815624 184.06294 59.45625 184.51607Q59.1125 184.9692 59.1125 186.18794Q59.1125 187.2817 59.45625 187.73482Q59.815624 188.18794 60.33125 188.18794Q60.878124 188.18794 61.221874 187.73482Q61.565624 187.2817 61.565624 186.07857Q61.565624 184.9692 61.20625 184.51607Q60.8625 184.06294 60.346874 184.06294Z" fill-rule="nonzero"/><path stroke="#757575" stroke-width="1.0" stroke-linecap="butt" d="M18.55 172.23482L145.23334 172.23482L162.21506 172.23482" fill-rule="nonzero"/><path fill="#9e9e9e" d="M164.21506 172.23482C164.21506 171.13025 163.31963 170.23482 162.21506 170.23482C161.11049 170.23482 160.21506 171.13025 160.21506 172.23482C160.21506 173.33939 161.11049 174.23482 162.21506 174.23482C163.31963 174.23482 164.21506 173.33939 164.21506 172.23482" fill-rule="nonzero"/><path fill="#efefef" d="M532.6844 70.85091L532.6844 59.39778L536.6375 59.39778Q537.96564 59.39778 538.66876 59.55403Q539.65314 59.788406 540.35626 60.382156Q541.2625 61.14778 541.7 62.33528Q542.15314 63.52278 542.15314 65.05403Q542.15314 66.36653 541.84064 67.38216Q541.54376 68.38216 541.0594 69.03841Q540.59064 69.69466 540.02814 70.08528Q539.46564 70.46028 538.65314 70.66341Q537.85626 70.85091 536.825 70.85091L532.6844 70.85091ZM534.2 69.49153L536.65314 69.49153Q537.77814 69.49153 538.41876 69.28841Q539.075 69.06966 539.45 68.69466Q539.9969 68.14778 540.29376 67.24153Q540.59064 66.33528 540.59064 65.03841Q540.59064 63.24153 539.9969 62.27278Q539.41876 61.30403 538.575 60.975906Q537.96564 60.74153 536.60626 60.74153L534.2 60.74153L534.2 69.49153ZM550.1844 68.17903L551.6375 68.35091Q551.29376 69.63216 550.35626 70.33528Q549.4344 71.03841 547.9969 71.03841Q546.16876 71.03841 545.10626 69.91341Q544.04376 68.78841 544.04376 66.77278Q544.04376 64.67903 545.1219 63.52278Q546.2 62.36653 547.91876 62.36653Q549.575 62.36653 550.6219 63.507156Q551.6844 64.63216 551.6844 66.67903Q551.6844 66.80403 551.6844 67.05403L545.4969 67.05403Q545.575 68.42903 546.2625 69.16341Q546.96564 69.88216 547.9969 69.88216Q548.77814 69.88216 549.325 69.47591Q549.8719 69.06966 550.1844 68.17903ZM545.575 65.89778L550.2 65.89778Q550.10626 64.85091 549.66876 64.33528Q548.9969 63.52278 547.9344 63.52278Q546.96564 63.52278 546.29376 64.17903Q545.6375 64.81966 545.575 65.89778ZM556.575 69.58528L556.77814 70.83528Q556.1844 70.96028 555.71564 70.96028Q554.95 70.96028 554.52814 70.72591Q554.10626 70.47591 553.9344 70.08528Q553.7625 69.67903 553.7625 68.41341L553.7625 63.64778L552.73126 63.64778L552.73126 62.55403L553.7625 62.55403L553.7625 60.49153L555.16876 59.64778L555.16876 62.55403L556.575 62.55403L556.575 63.64778L555.16876 63.64778L555.16876 68.49153Q555.16876 69.10091 555.23126 69.27278Q555.3094 69.44466 555.48126 69.55403Q555.65314 69.64778 555.96564 69.64778Q556.2 69.64778 556.575 69.58528ZM562.91876 69.81966Q562.1375 70.49153 561.41876 70.77278Q560.7 71.03841 559.8719 71.03841Q558.4969 71.03841 557.7625 70.36653Q557.02814 69.69466 557.02814 68.66341Q557.02814 68.05403 557.3094 67.55403Q557.59064 67.03841 558.02814 66.74153Q558.48126 66.42903 559.04376 66.27278Q559.46564 66.16341 560.29376 66.06966Q561.9969 65.86653 562.8094 65.58528Q562.8094 65.28841 562.8094 65.21028Q562.8094 64.35091 562.41876 64.00716Q561.8719 63.52278 560.8094 63.52278Q559.825 63.52278 559.34064 63.882156Q558.8719 64.22591 558.65314 65.10091L557.27814 64.91341Q557.46564 64.03841 557.8875 63.49153Q558.325 62.944656 559.1375 62.663406Q559.95 62.36653 561.0125 62.36653Q562.075 62.36653 562.73126 62.61653Q563.40314 62.86653 563.71564 63.24153Q564.02814 63.61653 564.15314 64.19466Q564.23126 64.55403 564.23126 65.49153L564.23126 67.36653Q564.23126 69.33528 564.3094 69.85091Q564.40314 70.36653 564.66876 70.85091L563.2 70.85091Q562.98126 70.41341 562.91876 69.81966ZM562.8094 66.67903Q562.04376 66.99153 560.5125 67.21028Q559.6375 67.33528 559.27814 67.49153Q558.91876 67.64778 558.71564 67.96028Q558.52814 68.25716 558.52814 68.61653Q558.52814 69.17903 558.95 69.55403Q559.3875 69.92903 560.2 69.92903Q561.0125 69.92903 561.6375 69.58528Q562.27814 69.22591 562.575 68.60091Q562.8094 68.13216 562.8094 67.19466L562.8094 66.67903ZM566.5125 61.007156L566.5125 59.39778L567.91876 59.39778L567.91876 61.007156L566.5125 61.007156ZM566.5125 70.85091L566.5125 62.55403L567.91876 62.55403L567.91876 70.85091L566.5125 70.85091ZM570.48126 70.85091L570.48126 59.39778L571.8875 59.39778L571.8875 70.85091L570.48126 70.85091ZM573.95 68.36653L575.34064 68.14778Q575.45 68.99153 575.98126 69.44466Q576.52814 69.88216 577.48126 69.88216Q578.45 69.88216 578.91876 69.49153Q579.3875 69.08528 579.3875 68.55403Q579.3875 68.08528 578.98126 67.80403Q578.6844 67.61653 577.54376 67.33528Q575.9969 66.94466 575.3875 66.66341Q574.79376 66.36653 574.48126 65.86653Q574.1844 65.36653 574.1844 64.75716Q574.1844 64.19466 574.4344 63.725906Q574.6844 63.257156 575.1219 62.944656Q575.45 62.694656 576.0125 62.538406Q576.59064 62.36653 577.23126 62.36653Q578.21564 62.36653 578.95 62.64778Q579.6844 62.92903 580.02814 63.413406Q580.3875 63.882156 580.52814 64.69466L579.15314 64.88216Q579.0594 64.24153 578.60626 63.882156Q578.15314 63.52278 577.34064 63.52278Q576.3719 63.52278 575.95 63.850906Q575.54376 64.16341 575.54376 64.58528Q575.54376 64.86653 575.71564 65.08528Q575.8875 65.30403 576.2469 65.46028Q576.46564 65.53841 577.4969 65.81966Q578.98126 66.21028 579.575 66.47591Q580.16876 66.72591 580.4969 67.21028Q580.84064 67.69466 580.84064 68.41341Q580.84064 69.11653 580.41876 69.74153Q580.0125 70.35091 579.23126 70.69466Q578.46564 71.03841 577.4969 71.03841Q575.8719 71.03841 575.02814 70.36653Q574.1844 69.69466 573.95 68.36653Z" fill-rule="nonzero"/><path fill="#9e9e9e" d="M542.41876 92.85091L541.0125 92.85091L541.0125 83.88216Q540.4969 84.36653 539.66876 84.85091Q538.85626 85.33528 538.2 85.58528L538.2 84.22591Q539.3719 83.66341 540.2469 82.88216Q541.1375 82.08528 541.5125 81.35091L542.41876 81.35091L542.41876 92.85091ZM550.6219 92.85091L550.6219 90.10091L545.65314 90.10091L545.65314 88.81966L550.8875 81.39778L552.02814 81.39778L552.02814 88.81966L553.575 88.81966L553.575 90.10091L552.02814 90.10091L552.02814 92.85091L550.6219 92.85091ZM550.6219 88.81966L550.6219 83.64778L547.04376 88.81966L550.6219 88.81966ZM555.90314 92.85091L555.90314 91.24153L557.5125 91.24153L557.5125 92.85091L555.90314 92.85091ZM559.1219 89.81966L560.52814 89.63216Q560.77814 90.83528 561.35626 91.36653Q561.9344 91.88216 562.77814 91.88216Q563.7625 91.88216 564.45 91.19466Q565.1375 90.50716 565.1375 89.49153Q565.1375 88.52278 564.4969 87.89778Q563.8719 87.27278 562.8875 87.27278Q562.4969 87.27278 561.90314 87.42903L562.0594 86.19466Q562.2 86.21028 562.27814 86.21028Q563.1844 86.21028 563.90314 85.74153Q564.6219 85.27278 564.6219 84.28841Q564.6219 83.52278 564.09064 83.02278Q563.575 82.50716 562.7469 82.50716Q561.91876 82.50716 561.3719 83.02278Q560.825 83.53841 560.66876 84.56966L559.2625 84.31966Q559.52814 82.89778 560.4344 82.13216Q561.35626 81.35091 562.71564 81.35091Q563.65314 81.35091 564.4344 81.75716Q565.23126 82.14778 565.6375 82.85091Q566.0594 83.53841 566.0594 84.31966Q566.0594 85.06966 565.65314 85.67903Q565.2625 86.28841 564.48126 86.64778Q565.4969 86.88216 566.0594 87.61653Q566.6219 88.35091 566.6219 89.46028Q566.6219 90.96028 565.52814 92.00716Q564.4344 93.05403 562.7625 93.05403Q561.2625 93.05403 560.2625 92.16341Q559.2625 91.25716 559.1219 89.81966ZM568.3875 84.14778Q568.3875 82.91341 568.9969 82.05403Q569.6219 81.19466 570.79376 81.19466Q571.8719 81.19466 572.575 81.97591Q573.27814 82.74153 573.27814 84.22591Q573.27814 85.67903 572.5594 86.47591Q571.85626 87.25716 570.8094 87.25716Q569.7625 87.25716 569.075 86.49153Q568.3875 85.71028 568.3875 84.14778ZM570.825 82.16341Q570.3094 82.16341 569.95 82.61653Q569.60626 83.06966 569.60626 84.28841Q569.60626 85.38216 569.95 85.83528Q570.3094 86.28841 570.825 86.28841Q571.35626 86.28841 571.7 85.83528Q572.0594 85.38216 572.0594 84.17903Q572.0594 83.06966 571.7 82.61653Q571.35626 82.16341 570.825 82.16341ZM570.84064 93.27278L577.10626 81.19466L578.2469 81.19466L571.9969 93.27278L570.84064 93.27278ZM575.79376 90.16341Q575.79376 88.92903 576.40314 88.06966Q577.02814 87.21028 578.2 87.21028Q579.27814 87.21028 579.98126 87.99153Q580.7 88.75716 580.7 90.24153Q580.7 91.69466 579.98126 92.49153Q579.2625 93.27278 578.21564 93.27278Q577.16876 93.27278 576.48126 92.49153Q575.79376 91.71028 575.79376 90.16341ZM578.2469 88.17903Q577.71564 88.17903 577.35626 88.63216Q577.0125 89.08528 577.0125 90.30403Q577.0125 91.39778 577.35626 91.85091Q577.71564 92.30403 578.23126 92.30403Q578.77814 92.30403 579.1219 91.85091Q579.46564 91.39778 579.46564 90.19466Q579.46564 89.08528 579.10626 88.63216Q578.7625 88.17903 578.2469 88.17903Z" fill-rule="nonzero"/><path stroke="#757575" stroke-width="1.0" stroke-linecap="butt" d="M581.45 76.35091L454.76666 76.35091L361.32007 76.35091" fill-rule="nonzero"/><path fill="#9e9e9e" d="M363.32007 76.35091C363.32007 75.24634 362.42462 74.35091 361.32007 74.35091C360.21548 74.35091 359.32007 75.24634 359.32007 76.35091C359.32007 77.455475 360.21548 78.35091 361.32007 78.35091C362.42462 78.35091 363.32007 77.455475 363.32007 76.35091" fill-rule="nonzero"/><path fill="#efefef" d="M531.6844 286.3001L531.6844 274.847L536.0125 274.847Q537.15314 274.847 537.7469 274.95636Q538.59064 275.097 539.15314 275.4876Q539.73126 275.87823 540.075 276.597Q540.4344 277.3001 540.4344 278.1595Q540.4344 279.6126 539.4969 280.62823Q538.575 281.64386 536.1375 281.64386L533.2 281.64386L533.2 286.3001L531.6844 286.3001ZM533.2 280.2845L536.16876 280.2845Q537.6375 280.2845 538.2469 279.7376Q538.8719 279.19073 538.8719 278.20636Q538.8719 277.4876 538.4969 276.972Q538.1375 276.45636 537.54376 276.3001Q537.16876 276.19073 536.1375 276.19073L533.2 276.19073L533.2 280.2845ZM548.1844 283.62823L549.6375 283.8001Q549.29376 285.08136 548.35626 285.7845Q547.4344 286.4876 545.9969 286.4876Q544.16876 286.4876 543.10626 285.3626Q542.04376 284.2376 542.04376 282.222Q542.04376 280.12823 543.1219 278.972Q544.2 277.81573 545.91876 277.81573Q547.575 277.81573 548.6219 278.95636Q549.6844 280.08136 549.6844 282.12823Q549.6844 282.25323 549.6844 282.50323L543.4969 282.50323Q543.575 283.87823 544.2625 284.6126Q544.96564 285.33136 545.9969 285.33136Q546.77814 285.33136 547.325 284.9251Q547.8719 284.51886 548.1844 283.62823ZM543.575 281.347L548.2 281.347Q548.10626 280.3001 547.66876 279.7845Q546.9969 278.972 545.9344 278.972Q544.96564 278.972 544.29376 279.62823Q543.6375 280.26886 543.575 281.347ZM550.98126 282.14386Q550.98126 279.847 552.2625 278.7376Q553.34064 277.81573 554.8719 277.81573Q556.59064 277.81573 557.66876 278.94073Q558.7625 280.0501 558.7625 282.0345Q558.7625 283.62823 558.27814 284.5501Q557.79376 285.472 556.8719 285.9876Q555.96564 286.4876 554.8719 286.4876Q553.1375 286.4876 552.0594 285.37823Q550.98126 284.25323 550.98126 282.14386ZM552.4344 282.14386Q552.4344 283.7376 553.1219 284.5345Q553.825 285.33136 554.8719 285.33136Q555.91876 285.33136 556.60626 284.5345Q557.3094 283.7376 557.3094 282.097Q557.3094 280.56573 556.60626 279.76886Q555.91876 278.972 554.8719 278.972Q553.825 278.972 553.1219 279.76886Q552.4344 280.5501 552.4344 282.14386ZM560.5125 289.4876L560.5125 278.00323L561.79376 278.00323L561.79376 279.08136Q562.2469 278.44073 562.8094 278.12823Q563.3875 277.81573 564.2 277.81573Q565.2625 277.81573 566.075 278.3626Q566.8875 278.9095 567.29376 279.9095Q567.71564 280.89386 567.71564 282.08136Q567.71564 283.3626 567.2469 284.37823Q566.79376 285.39386 565.91876 285.94073Q565.0594 286.4876 564.09064 286.4876Q563.3875 286.4876 562.825 286.19073Q562.27814 285.89386 561.91876 285.44073L561.91876 289.4876L560.5125 289.4876ZM561.77814 282.19073Q561.77814 283.8001 562.41876 284.56573Q563.075 285.33136 563.9969 285.33136Q564.9344 285.33136 565.60626 284.5345Q566.27814 283.7376 566.27814 282.08136Q566.27814 280.4876 565.6219 279.70636Q564.96564 278.9095 564.0594 278.9095Q563.16876 278.9095 562.46564 279.75323Q561.77814 280.597 561.77814 282.19073ZM569.48126 286.3001L569.48126 274.847L570.8875 274.847L570.8875 286.3001L569.48126 286.3001ZM579.1844 283.62823L580.6375 283.8001Q580.29376 285.08136 579.35626 285.7845Q578.4344 286.4876 576.9969 286.4876Q575.16876 286.4876 574.10626 285.3626Q573.04376 284.2376 573.04376 282.222Q573.04376 280.12823 574.1219 278.972Q575.2 277.81573 576.91876 277.81573Q578.575 277.81573 579.6219 278.95636Q580.6844 280.08136 580.6844 282.12823Q580.6844 282.25323 580.6844 282.50323L574.4969 282.50323Q574.575 283.87823 575.2625 284.6126Q575.96564 285.33136 576.9969 285.33136Q577.77814 285.33136 578.325 284.9251Q578.8719 284.51886 579.1844 283.62823ZM574.575 281.347L579.2 281.347Q579.10626 280.3001 578.66876 279.7845Q577.9969 278.972 576.9344 278.972Q575.96564 278.972 575.29376 279.62823Q574.6375 280.26886 574.575 281.347Z" fill-rule="nonzero"/><path fill="#9e9e9e" d="M541.6219 308.3001L541.6219 305.5501L536.65314 305.5501L536.65314 304.26886L541.8875 296.847L543.02814 296.847L543.02814 304.26886L544.575 304.26886L544.575 305.5501L543.02814 305.5501L543.02814 308.3001L541.6219 308.3001ZM541.6219 304.26886L541.6219 299.097L538.04376 304.26886L541.6219 304.26886ZM553.5125 306.94073L553.5125 308.3001L545.9344 308.3001Q545.91876 307.7845 546.10626 307.31573Q546.3875 306.5501 547.02814 305.8001Q547.66876 305.0501 548.8719 304.06573Q550.73126 302.5345 551.3875 301.64386Q552.04376 300.7376 552.04376 299.94073Q552.04376 299.1126 551.45 298.5345Q550.85626 297.95636 549.8875 297.95636Q548.8719 297.95636 548.2625 298.56573Q547.65314 299.1751 547.65314 300.25323L546.2 300.1126Q546.35626 298.4876 547.325 297.64386Q548.29376 296.8001 549.91876 296.8001Q551.575 296.8001 552.52814 297.722Q553.4969 298.62823 553.4969 299.972Q553.4969 300.6595 553.21564 301.33136Q552.9344 301.9876 552.27814 302.722Q551.6219 303.45636 550.10626 304.7376Q548.84064 305.8001 548.48126 306.19073Q548.1219 306.56573 547.8875 306.94073L553.5125 306.94073ZM555.90314 308.3001L555.90314 306.69073L557.5125 306.69073L557.5125 308.3001L555.90314 308.3001ZM559.325 305.64386L560.6844 305.51886Q560.85626 306.472 561.34064 306.9095Q561.825 307.33136 562.575 307.33136Q563.23126 307.33136 563.71564 307.0345Q564.2 306.7376 564.5125 306.25323Q564.825 305.75323 565.02814 304.9095Q565.2469 304.06573 565.2469 303.19073Q565.2469 303.097 565.2469 302.9095Q564.825 303.58136 564.09064 304.00323Q563.35626 304.4095 562.5125 304.4095Q561.09064 304.4095 560.10626 303.37823Q559.1219 302.347 559.1219 300.6595Q559.1219 298.9251 560.1375 297.8626Q561.16876 296.8001 562.71564 296.8001Q563.84064 296.8001 564.7625 297.4095Q565.6844 298.00323 566.16876 299.1126Q566.65314 300.222 566.65314 302.33136Q566.65314 304.5345 566.16876 305.83136Q565.7 307.12823 564.7469 307.81573Q563.8094 308.50323 562.54376 308.50323Q561.2 308.50323 560.34064 307.75323Q559.4969 307.00323 559.325 305.64386ZM565.09064 300.597Q565.09064 299.37823 564.4344 298.6751Q563.79376 297.95636 562.8875 297.95636Q561.95 297.95636 561.2469 298.722Q560.5594 299.4876 560.5594 300.70636Q560.5594 301.8001 561.21564 302.4876Q561.8875 303.1751 562.85626 303.1751Q563.825 303.1751 564.45 302.4876Q565.09064 301.8001 565.09064 300.597ZM568.3875 299.597Q568.3875 298.3626 568.9969 297.50323Q569.6219 296.64386 570.79376 296.64386Q571.8719 296.64386 572.575 297.4251Q573.27814 298.19073 573.27814 299.6751Q573.27814 301.12823 572.5594 301.9251Q571.85626 302.70636 570.8094 302.70636Q569.7625 302.70636 569.075 301.94073Q568.3875 301.1595 568.3875 299.597ZM570.825 297.6126Q570.3094 297.6126 569.95 298.06573Q569.60626 298.51886 569.60626 299.7376Q569.60626 300.83136 569.95 301.2845Q570.3094 301.7376 570.825 301.7376Q571.35626 301.7376 571.7 301.2845Q572.0594 300.83136 572.0594 299.62823Q572.0594 298.51886 571.7 298.06573Q571.35626 297.6126 570.825 297.6126ZM570.84064 308.722L577.10626 296.64386L578.2469 296.64386L571.9969 308.722L570.84064 308.722ZM575.79376 305.6126Q575.79376 304.37823 576.40314 303.51886Q577.02814 302.6595 578.2 302.6595Q579.27814 302.6595 579.98126 303.44073Q580.7 304.20636 580.7 305.69073Q580.7 307.14386 579.98126 307.94073Q579.2625 308.722 578.21564 308.722Q577.16876 308.722 576.48126 307.94073Q575.79376 307.1595 575.79376 305.6126ZM578.2469 303.62823Q577.71564 303.62823 577.35626 304.08136Q577.0125 304.5345 577.0125 305.75323Q577.0125 306.847 577.35626 307.3001Q577.71564 307.75323 578.23126 307.75323Q578.77814 307.75323 579.1219 307.3001Q579.46564 306.847 579.46564 305.64386Q579.46564 304.5345 579.10626 304.08136Q578.7625 303.62823 578.2469 303.62823Z" fill-rule="nonzero"/><path stroke="#757575" stroke-width="1.0" stroke-linecap="butt" d="M581.45 291.8001L454.76666 291.8001L410.49493 291.8001" fill-rule="nonzero"/><path fill="#9e9e9e" d="M412.49493 291.8001C412.49493 290.69553 411.59952 289.8001 410.49493 289.8001C409.39038 289.8001 408.49493 290.69553 408.49493 291.8001C408.49493 292.90466 409.39038 293.8001 410.49493 293.8001C411.59952 293.8001 412.49493 292.90466 412.49493 291.8001" fill-rule="nonzero"/><path fill="#f3f3f3" d="M265.98438 37.55L265.98438 23.2375L268.84375 23.2375L272.21875 33.3625Q272.6875 34.784374 272.90625 35.4875Q273.15625 34.70625 273.67188 33.190624L277.09375 23.2375L279.64062 23.2375L279.64062 37.55L277.82812 37.55L277.82812 25.565624L273.65625 37.55L271.95312 37.55L267.8125 25.3625L267.8125 37.55L265.98438 37.55ZM289.92188 34.20625L291.73438 34.440624Q291.3125 36.01875 290.14062 36.909374Q288.98438 37.784374 287.17188 37.784374Q284.90625 37.784374 283.5625 36.39375Q282.23438 34.9875 282.23438 32.45625Q282.23438 29.83125 283.57812 28.39375Q284.92188 26.940624 287.07812 26.940624Q289.15625 26.940624 290.46875 28.3625Q291.79688 29.76875 291.79688 32.346874Q291.79688 32.503124 291.78125 32.815624L284.04688 32.815624Q284.14062 34.51875 285.01562 35.425Q285.89062 36.33125 287.1875 36.33125Q288.15625 36.33125 288.82812 35.83125Q289.51562 35.315624 289.92188 34.20625ZM284.14062 31.3625L289.9375 31.3625Q289.82812 30.065624 289.28125 29.409374Q288.4375 28.39375 287.09375 28.39375Q285.89062 28.39375 285.0625 29.20625Q284.23438 30.003124 284.14062 31.3625ZM300.54688 37.55L300.54688 36.2375Q299.5625 37.784374 297.64062 37.784374Q296.40625 37.784374 295.35938 37.096874Q294.32812 36.409374 293.75 35.190624Q293.1875 33.971874 293.1875 32.378124Q293.1875 30.815624 293.70312 29.55Q294.21875 28.284374 295.25 27.6125Q296.29688 26.940624 297.5625 26.940624Q298.5 26.940624 299.23438 27.346874Q299.96875 27.7375 300.4375 28.3625L300.4375 23.2375L302.17188 23.2375L302.17188 37.55L300.54688 37.55ZM294.98438 32.378124Q294.98438 34.3625 295.82812 35.346874Q296.67188 36.33125 297.8125 36.33125Q298.96875 36.33125 299.76562 35.39375Q300.57812 34.45625 300.57812 32.51875Q300.57812 30.39375 299.75 29.39375Q298.9375 28.39375 297.73438 28.39375Q296.5625 28.39375 295.76562 29.3625Q294.98438 30.315624 294.98438 32.378124ZM304.82812 25.253124L304.82812 23.2375L306.59375 23.2375L306.59375 25.253124L304.82812 25.253124ZM304.82812 37.55L304.82812 27.175L306.59375 27.175L306.59375 37.55L304.82812 37.55ZM315.60938 37.55L315.60938 36.01875Q314.40625 37.784374 312.32812 37.784374Q311.40625 37.784374 310.60938 37.440624Q309.8125 37.08125 309.42188 36.55Q309.04688 36.01875 308.89062 35.2375Q308.78125 34.721874 308.78125 33.596874L308.78125 27.175L310.53125 27.175L310.53125 32.925Q310.53125 34.3 310.64062 34.784374Q310.8125 35.471874 311.34375 35.878124Q311.89062 36.26875 312.67188 36.26875Q313.46875 36.26875 314.15625 35.8625Q314.85938 35.45625 315.14062 34.76875Q315.4375 34.065624 315.4375 32.7375L315.4375 27.175L317.1875 27.175L317.1875 37.55L315.60938 37.55ZM319.8125 37.55L319.8125 27.175L321.39062 27.175L321.39062 28.628124Q321.875 27.878124 322.6875 27.409374Q323.5 26.940624 324.53125 26.940624Q325.6875 26.940624 326.42188 27.425Q327.15625 27.89375 327.46875 28.753124Q328.70312 26.940624 330.67188 26.940624Q332.21875 26.940624 333.04688 27.8Q333.875 28.659374 333.875 30.425L333.875 37.55L332.125 37.55L332.125 31.01875Q332.125 29.95625 331.95312 29.503124Q331.78125 29.034374 331.32812 28.753124Q330.89062 28.471874 330.28125 28.471874Q329.1875 28.471874 328.45312 29.20625Q327.73438 29.925 327.73438 31.51875L327.73438 37.55L325.98438 37.55L325.98438 30.815624Q325.98438 29.64375 325.54688 29.065624Q325.125 28.471874 324.14062 28.471874Q323.40625 28.471874 322.76562 28.8625Q322.14062 29.253124 321.85938 30.003124Q321.57812 30.753124 321.57812 32.175L321.57812 37.55L319.8125 37.55Z" fill-rule="nonzero"/></svg>