<svg version="1.1" viewBox="0.0 0.0 600.0 371.0" fill="none" stroke="none" stroke-linecap="square" stroke-miterlimit="10" width="600" height="371" xmlns:xlink="http://www.w3.org/1999/xlink" xmlns="http://www.w3.org/2000/svg"><path fill="#ffffff" fill-opacity="0.0" d="M0 0L600.0 0L600.0 371.0L0 371.0L0 0Z" fill-rule="nonzero"/><path fill="#f7d750" d="M300.0 54.916668C353.1492 54.916668 402.2611 83.27143 428.83572 129.3C455.4103 175.32857 455.4103 232.0381 428.83572 278.06668L364.41785 240.875C377.70517 217.86072 377.70517 189.50595 364.41785 166.49167C351.13055 143.47739 326.57462 129.3 300.0 129.3Z" fill-rule="nonzero"/><path fill="#78a94e" d="M171.16429 278.06668C144.58968 232.0381 144.58968 175.32857 171.16429 129.3C197.73889 83.27143 246.85078 54.916668 300.0 54.916668L300.0 129.3C273.42538 129.3 248.86945 143.47739 235.58214 166.49167C222.29485 189.50595 222.29485 217.86072 235.58214 240.875Z" fill-rule="nonzero"/><path fill="#f5ee58" d="M428.83572 278.06668C402.2611 324.09525 353.1492 352.45 300.0 352.45C246.85078 352.45 197.73889 324.09525 171.16429 278.06668L235.58214 240.875C248.86945 263.88928 273.42538 278.06668 300.0 278.06668C326.57462 278.06668 351.13055 263.88928 364.41785 240.875Z" fill-rule="nonzero"/><path fill="#ffffff" d="M371.87677 150.98958L373.47052 150.78645Q373.73615 152.1302 374.3924 152.72395Q375.04865 153.3177 375.98615 153.3177Q377.11115 153.3177 377.87677 152.55208Q378.6424 151.77083 378.6424 150.6302Q378.6424 149.53645 377.92365 148.83333Q377.22052 148.11458 376.12677 148.11458Q375.67365 148.11458 375.00177 148.30208L375.17365 146.91145Q375.3299 146.92708 375.43927 146.92708Q376.43927 146.92708 377.25177 146.39583Q378.06427 145.86458 378.06427 144.77083Q378.06427 143.89583 377.47052 143.33333Q376.87677 142.7552 375.9549 142.7552Q375.03302 142.7552 374.40802 143.33333Q373.79865 143.91145 373.62677 145.08333L372.04865 144.80208Q372.3299 143.20833 373.36115 142.33333Q374.3924 141.45833 375.92365 141.45833Q376.97052 141.45833 377.86115 141.91145Q378.75177 142.36458 379.22052 143.14583Q379.68927 143.92708 379.68927 144.80208Q379.68927 145.64583 379.23615 146.33333Q378.79865 147.0052 377.90802 147.41145Q379.04865 147.67708 379.67365 148.52083Q380.31427 149.34895 380.31427 150.58333Q380.31427 152.27083 379.0799 153.45833Q377.86115 154.6302 375.98615 154.6302Q374.28302 154.6302 373.15802 153.61458Q372.04865 152.59895 371.87677 150.98958ZM381.87677 150.98958L383.47052 150.78645Q383.73615 152.1302 384.3924 152.72395Q385.04865 153.3177 385.98615 153.3177Q387.11115 153.3177 387.87677 152.55208Q388.6424 151.77083 388.6424 150.6302Q388.6424 149.53645 387.92365 148.83333Q387.22052 148.11458 386.12677 148.11458Q385.67365 148.11458 385.00177 148.30208L385.17365 146.91145Q385.3299 146.92708 385.43927 146.92708Q386.43927 146.92708 387.25177 146.39583Q388.06427 145.86458 388.06427 144.77083Q388.06427 143.89583 387.47052 143.33333Q386.87677 142.7552 385.9549 142.7552Q385.03302 142.7552 384.40802 143.33333Q383.79865 143.91145 383.62677 145.08333L382.04865 144.80208Q382.3299 143.20833 383.36115 142.33333Q384.3924 141.45833 385.92365 141.45833Q386.97052 141.45833 387.86115 141.91145Q388.75177 142.36458 389.22052 143.14583Q389.68927 143.92708 389.68927 144.80208Q389.68927 145.64583 389.23615 146.33333Q388.79865 147.0052 387.90802 147.41145Q389.04865 147.67708 389.67365 148.52083Q390.31427 149.34895 390.31427 150.58333Q390.31427 152.27083 389.0799 153.45833Q387.86115 154.6302 385.98615 154.6302Q384.28302 154.6302 383.15802 153.61458Q382.04865 152.59895 381.87677 150.98958ZM392.7674 154.39583L392.7674 152.59895L394.56427 152.59895L394.56427 154.39583L392.7674 154.39583ZM396.87677 150.98958L398.47052 150.78645Q398.73615 152.1302 399.3924 152.72395Q400.04865 153.3177 400.98615 153.3177Q402.11115 153.3177 402.87677 152.55208Q403.6424 151.77083 403.6424 150.6302Q403.6424 149.53645 402.92365 148.83333Q402.22052 148.11458 401.12677 148.11458Q400.67365 148.11458 400.00177 148.30208L400.17365 146.91145Q400.3299 146.92708 400.43927 146.92708Q401.43927 146.92708 402.25177 146.39583Q403.06427 145.86458 403.06427 144.77083Q403.06427 143.89583 402.47052 143.33333Q401.87677 142.7552 400.9549 142.7552Q400.03302 142.7552 399.40802 143.33333Q398.79865 143.91145 398.62677 145.08333L397.04865 144.80208Q397.3299 143.20833 398.36115 142.33333Q399.3924 141.45833 400.92365 141.45833Q401.97052 141.45833 402.86115 141.91145Q403.75177 142.36458 404.22052 143.14583Q404.68927 143.92708 404.68927 144.80208Q404.68927 145.64583 404.23615 146.33333Q403.79865 147.0052 402.90802 147.41145Q404.04865 147.67708 404.67365 148.52083Q405.31427 149.34895 405.31427 150.58333Q405.31427 152.27083 404.0799 153.45833Q402.86115 154.6302 400.98615 154.6302Q399.28302 154.6302 398.15802 153.61458Q397.04865 152.59895 396.87677 150.98958ZM407.17365 144.59895Q407.17365 143.22395 407.86115 142.2552Q408.56427 141.28645 409.87677 141.28645Q411.09552 141.28645 411.8924 142.16145Q412.68927 143.02083 412.68927 144.70833Q412.68927 146.33333 411.87677 147.22395Q411.0799 148.09895 409.8924 148.09895Q408.73615 148.09895 407.9549 147.23958Q407.17365 146.36458 407.17365 144.59895ZM409.92365 142.3802Q409.3299 142.3802 408.93927 142.89583Q408.54865 143.39583 408.54865 144.7552Q408.54865 146.0052 408.93927 146.5052Q409.34552 147.0052 409.92365 147.0052Q410.5174 147.0052 410.90802 146.5052Q411.29865 145.98958 411.29865 144.64583Q411.29865 143.39583 410.90802 142.89583Q410.5174 142.3802 409.92365 142.3802ZM409.93927 154.86458L416.98615 141.28645L418.2674 141.28645L411.23615 154.86458L409.93927 154.86458ZM415.50177 151.36458Q415.50177 149.98958 416.18927 149.02083Q416.8924 148.05208 418.22052 148.05208Q419.43927 148.05208 420.22052 148.92708Q421.0174 149.78645 421.0174 151.47395Q421.0174 153.09895 420.22052 153.98958Q419.42365 154.86458 418.23615 154.86458Q417.06427 154.86458 416.28302 153.98958Q415.50177 153.11458 415.50177 151.36458ZM418.2674 149.14583Q417.67365 149.14583 417.28302 149.66145Q416.8924 150.16145 416.8924 151.53645Q416.8924 152.7552 417.28302 153.27083Q417.67365 153.78645 418.25177 153.78645Q418.86115 153.78645 419.25177 153.27083Q419.6424 152.7552 419.6424 151.41145Q419.6424 150.16145 419.25177 149.66145Q418.86115 149.14583 418.2674 149.14583Z" fill-rule="nonzero"/><path fill="#ffffff" d="M275.25 324.58298L276.84375 324.37985Q277.10938 325.7236 277.76562 326.31735Q278.42188 326.9111 279.35938 326.9111Q280.48438 326.9111 281.25 326.14548Q282.01562 325.36423 282.01562 324.2236Q282.01562 323.12985 281.29688 322.42673Q280.59375 321.70798 279.5 321.70798Q279.04688 321.70798 278.375 321.89548L278.54688 320.50485Q278.70312 320.52048 278.8125 320.52048Q279.8125 320.52048 280.625 319.98923Q281.4375 319.45798 281.4375 318.36423Q281.4375 317.48923 280.84375 316.92673Q280.25 316.3486 279.32812 316.3486Q278.40625 316.3486 277.78125 316.92673Q277.17188 317.50485 277.0 318.67673L275.42188 318.39548Q275.70312 316.80173 276.73438 315.92673Q277.76562 315.05173 279.29688 315.05173Q280.34375 315.05173 281.23438 315.50485Q282.125 315.95798 282.59375 316.73923Q283.0625 317.52048 283.0625 318.39548Q283.0625 319.23923 282.60938 319.92673Q282.17188 320.5986 281.28125 321.00485Q282.42188 321.27048 283.04688 322.11423Q283.6875 322.94235 283.6875 324.17673Q283.6875 325.86423 282.45312 327.05173Q281.23438 328.2236 279.35938 328.2236Q277.65625 328.2236 276.53125 327.20798Q275.42188 326.19235 275.25 324.58298ZM285.25 324.58298L286.84375 324.37985Q287.10938 325.7236 287.76562 326.31735Q288.42188 326.9111 289.35938 326.9111Q290.48438 326.9111 291.25 326.14548Q292.01562 325.36423 292.01562 324.2236Q292.01562 323.12985 291.29688 322.42673Q290.59375 321.70798 289.5 321.70798Q289.04688 321.70798 288.375 321.89548L288.54688 320.50485Q288.70312 320.52048 288.8125 320.52048Q289.8125 320.52048 290.625 319.98923Q291.4375 319.45798 291.4375 318.36423Q291.4375 317.48923 290.84375 316.92673Q290.25 316.3486 289.32812 316.3486Q288.40625 316.3486 287.78125 316.92673Q287.17188 317.50485 287.0 318.67673L285.42188 318.39548Q285.70312 316.80173 286.73438 315.92673Q287.76562 315.05173 289.29688 315.05173Q290.34375 315.05173 291.23438 315.50485Q292.125 315.95798 292.59375 316.73923Q293.0625 317.52048 293.0625 318.39548Q293.0625 319.23923 292.60938 319.92673Q292.17188 320.5986 291.28125 321.00485Q292.42188 321.27048 293.04688 322.11423Q293.6875 322.94235 293.6875 324.17673Q293.6875 325.86423 292.45312 327.05173Q291.23438 328.2236 289.35938 328.2236Q287.65625 328.2236 286.53125 327.20798Q285.42188 326.19235 285.25 324.58298ZM296.14062 327.98923L296.14062 326.19235L297.9375 326.19235L297.9375 327.98923L296.14062 327.98923ZM300.25 324.58298L301.84375 324.37985Q302.10938 325.7236 302.76562 326.31735Q303.42188 326.9111 304.35938 326.9111Q305.48438 326.9111 306.25 326.14548Q307.01562 325.36423 307.01562 324.2236Q307.01562 323.12985 306.29688 322.42673Q305.59375 321.70798 304.5 321.70798Q304.04688 321.70798 303.375 321.89548L303.54688 320.50485Q303.70312 320.52048 303.8125 320.52048Q304.8125 320.52048 305.625 319.98923Q306.4375 319.45798 306.4375 318.36423Q306.4375 317.48923 305.84375 316.92673Q305.25 316.3486 304.32812 316.3486Q303.40625 316.3486 302.78125 316.92673Q302.17188 317.50485 302.0 318.67673L300.42188 318.39548Q300.70312 316.80173 301.73438 315.92673Q302.76562 315.05173 304.29688 315.05173Q305.34375 315.05173 306.23438 315.50485Q307.125 315.95798 307.59375 316.73923Q308.0625 317.52048 308.0625 318.39548Q308.0625 319.23923 307.60938 319.92673Q307.17188 320.5986 306.28125 321.00485Q307.42188 321.27048 308.04688 322.11423Q308.6875 322.94235 308.6875 324.17673Q308.6875 325.86423 307.45312 327.05173Q306.23438 328.2236 304.35938 328.2236Q302.65625 328.2236 301.53125 327.20798Q300.42188 326.19235 300.25 324.58298ZM310.54688 318.19235Q310.54688 316.81735 311.23438 315.8486Q311.9375 314.87985 313.25 314.87985Q314.46875 314.87985 315.26562 315.75485Q316.0625 316.61423 316.0625 318.30173Q316.0625 319.92673 315.25 320.81735Q314.45312 321.69235 313.26562 321.69235Q312.10938 321.69235 311.32812 320.83298Q310.54688 319.95798 310.54688 318.19235ZM313.29688 315.9736Q312.70312 315.9736 312.3125 316.48923Q311.92188 316.98923 311.92188 318.3486Q311.92188 319.5986 312.3125 320.0986Q312.71875 320.5986 313.29688 320.5986Q313.89062 320.5986 314.28125 320.0986Q314.67188 319.58298 314.67188 318.23923Q314.67188 316.98923 314.28125 316.48923Q313.89062 315.9736 313.29688 315.9736ZM313.3125 328.45798L320.35938 314.87985L321.64062 314.87985L314.60938 328.45798L313.3125 328.45798ZM318.875 324.95798Q318.875 323.58298 319.5625 322.61423Q320.26562 321.64548 321.59375 321.64548Q322.8125 321.64548 323.59375 322.52048Q324.39062 323.37985 324.39062 325.06735Q324.39062 326.69235 323.59375 327.58298Q322.79688 328.45798 321.60938 328.45798Q320.4375 328.45798 319.65625 327.58298Q318.875 326.70798 318.875 324.95798ZM321.64062 322.73923Q321.04688 322.73923 320.65625 323.25485Q320.26562 323.75485 320.26562 325.12985Q320.26562 326.3486 320.65625 326.86423Q321.04688 327.37985 321.625 327.37985Q322.23438 327.37985 322.625 326.86423Q323.01562 326.3486 323.01562 325.00485Q323.01562 323.75485 322.625 323.25485Q322.23438 322.73923 321.64062 322.73923Z" fill-rule="nonzero"/><path fill="#ffffff" d="M178.62321 150.98958L180.21696 150.78645Q180.48259 152.1302 181.13884 152.72395Q181.79509 153.3177 182.73259 153.3177Q183.85759 153.3177 184.62321 152.55208Q185.38884 151.77083 185.38884 150.6302Q185.38884 149.53645 184.67009 148.83333Q183.96696 148.11458 182.87321 148.11458Q182.42009 148.11458 181.74821 148.30208L181.92009 146.91145Q182.07634 146.92708 182.18571 146.92708Q183.18571 146.92708 183.99821 146.39583Q184.81071 145.86458 184.81071 144.77083Q184.81071 143.89583 184.21696 143.33333Q183.62321 142.7552 182.70134 142.7552Q181.77946 142.7552 181.15446 143.33333Q180.54509 143.91145 180.37321 145.08333L178.79509 144.80208Q179.07634 143.20833 180.10759 142.33333Q181.13884 141.45833 182.67009 141.45833Q183.71696 141.45833 184.60759 141.91145Q185.49821 142.36458 185.96696 143.14583Q186.43571 143.92708 186.43571 144.80208Q186.43571 145.64583 185.98259 146.33333Q185.54509 147.0052 184.65446 147.41145Q185.79509 147.67708 186.42009 148.52083Q187.06071 149.34895 187.06071 150.58333Q187.06071 152.27083 185.82634 153.45833Q184.60759 154.6302 182.73259 154.6302Q181.02946 154.6302 179.90446 153.61458Q178.79509 152.59895 178.62321 150.98958ZM188.62321 150.98958L190.21696 150.78645Q190.48259 152.1302 191.13884 152.72395Q191.79509 153.3177 192.73259 153.3177Q193.85759 153.3177 194.62321 152.55208Q195.38884 151.77083 195.38884 150.6302Q195.38884 149.53645 194.67009 148.83333Q193.96696 148.11458 192.87321 148.11458Q192.42009 148.11458 191.74821 148.30208L191.92009 146.91145Q192.07634 146.92708 192.18571 146.92708Q193.18571 146.92708 193.99821 146.39583Q194.81071 145.86458 194.81071 144.77083Q194.81071 143.89583 194.21696 143.33333Q193.62321 142.7552 192.70134 142.7552Q191.77946 142.7552 191.15446 143.33333Q190.54509 143.91145 190.37321 145.08333L188.79509 144.80208Q189.07634 143.20833 190.10759 142.33333Q191.13884 141.45833 192.67009 141.45833Q193.71696 141.45833 194.60759 141.91145Q195.49821 142.36458 195.96696 143.14583Q196.43571 143.92708 196.43571 144.80208Q196.43571 145.64583 195.98259 146.33333Q195.54509 147.0052 194.65446 147.41145Q195.79509 147.67708 196.42009 148.52083Q197.06071 149.34895 197.06071 150.58333Q197.06071 152.27083 195.82634 153.45833Q194.60759 154.6302 192.73259 154.6302Q191.02946 154.6302 189.90446 153.61458Q188.79509 152.59895 188.62321 150.98958ZM199.51384 154.39583L199.51384 152.59895L201.31071 152.59895L201.31071 154.39583L199.51384 154.39583ZM203.62321 150.98958L205.21696 150.78645Q205.48259 152.1302 206.13884 152.72395Q206.79509 153.3177 207.73259 153.3177Q208.85759 153.3177 209.62321 152.55208Q210.38884 151.77083 210.38884 150.6302Q210.38884 149.53645 209.67009 148.83333Q208.96696 148.11458 207.87321 148.11458Q207.42009 148.11458 206.74821 148.30208L206.92009 146.91145Q207.07634 146.92708 207.18571 146.92708Q208.18571 146.92708 208.99821 146.39583Q209.81071 145.86458 209.81071 144.77083Q209.81071 143.89583 209.21696 143.33333Q208.62321 142.7552 207.70134 142.7552Q206.77946 142.7552 206.15446 143.33333Q205.54509 143.91145 205.37321 145.08333L203.79509 144.80208Q204.07634 143.20833 205.10759 142.33333Q206.13884 141.45833 207.67009 141.45833Q208.71696 141.45833 209.60759 141.91145Q210.49821 142.36458 210.96696 143.14583Q211.43571 143.92708 211.43571 144.80208Q211.43571 145.64583 210.98259 146.33333Q210.54509 147.0052 209.65446 147.41145Q210.79509 147.67708 211.42009 148.52083Q212.06071 149.34895 212.06071 150.58333Q212.06071 152.27083 210.82634 153.45833Q209.60759 154.6302 207.73259 154.6302Q206.02946 154.6302 204.90446 153.61458Q203.79509 152.59895 203.62321 150.98958ZM213.92009 144.59895Q213.92009 143.22395 214.60759 142.2552Q215.31071 141.28645 216.62321 141.28645Q217.84196 141.28645 218.63884 142.16145Q219.43571 143.02083 219.43571 144.70833Q219.43571 146.33333 218.62321 147.22395Q217.82634 148.09895 216.63884 148.09895Q215.48259 148.09895 214.70134 147.23958Q213.92009 146.36458 213.92009 144.59895ZM216.67009 142.3802Q216.07634 142.3802 215.68571 142.89583Q215.29509 143.39583 215.29509 144.7552Q215.29509 146.0052 215.68571 146.5052Q216.09196 147.0052 216.67009 147.0052Q217.26384 147.0052 217.65446 146.5052Q218.04509 145.98958 218.04509 144.64583Q218.04509 143.39583 217.65446 142.89583Q217.26384 142.3802 216.67009 142.3802ZM216.68571 154.86458L223.73259 141.28645L225.01384 141.28645L217.98259 154.86458L216.68571 154.86458ZM222.24821 151.36458Q222.24821 149.98958 222.93571 149.02083Q223.63884 148.05208 224.96696 148.05208Q226.18571 148.05208 226.96696 148.92708Q227.76384 149.78645 227.76384 151.47395Q227.76384 153.09895 226.96696 153.98958Q226.17009 154.86458 224.98259 154.86458Q223.81071 154.86458 223.02946 153.98958Q222.24821 153.11458 222.24821 151.36458ZM225.01384 149.14583Q224.42009 149.14583 224.02946 149.66145Q223.63884 150.16145 223.63884 151.53645Q223.63884 152.7552 224.02946 153.27083Q224.42009 153.78645 224.99821 153.78645Q225.60759 153.78645 225.99821 153.27083Q226.38884 152.7552 226.38884 151.41145Q226.38884 150.16145 225.99821 149.66145Q225.60759 149.14583 225.01384 149.14583Z" fill-rule="nonzero"/><path stroke="#ffffff" stroke-width="1.0" stroke-linejoin="round" stroke-linecap="round" d="M364.41785 240.875C377.70517 217.86072 377.70517 189.50595 364.41785 166.49167C351.13055 143.47739 326.57462 129.3 300.0 129.3L300.0 54.916668C353.1492 54.916668 402.2611 83.27143 428.83572 129.3C455.4103 175.32857 455.4103 232.0381 428.83572 278.06668" fill-rule="nonzero"/><path stroke="#ffffff" stroke-width="1.0" stroke-linejoin="round" stroke-linecap="round" d="M235.58214 240.875C248.86945 263.88928 273.42538 278.06668 300.0 278.06668C326.57462 278.06668 351.13055 263.88928 364.41785 240.875L428.83572 278.06668C402.2611 324.09525 353.1492 352.45 300.0 352.45C246.85078 352.45 197.73889 324.09525 171.16429 278.06668" fill-rule="nonzero"/><path stroke="#ffffff" stroke-width="1.0" stroke-linejoin="round" stroke-linecap="round" d="M300.0 129.3C273.42538 129.3 248.86945 143.47739 235.58214 166.49167C222.29485 189.50595 222.29485 217.86072 235.58214 240.875L171.16429 278.06668C144.58968 232.0381 144.58968 175.32857 171.16429 129.3C197.73889 83.27143 246.85078 54.916668 300.0 54.916668" fill-rule="nonzero"/><path fill="#efefef" d="M18.51875 127.519165L22.925 116.06604L24.565624 116.06604L29.253124 127.519165L27.51875 127.519165L26.190624 124.050415L21.39375 124.050415L20.14375 127.519165L18.51875 127.519165ZM21.83125 122.81604L25.721874 122.81604L24.51875 119.644165Q23.971874 118.19104 23.70625 117.269165Q23.4875 118.362915 23.096874 119.456665L21.83125 122.81604ZM30.596874 127.519165L30.596874 119.22229L31.8625 119.22229L31.8625 120.47229Q32.346874 119.59729 32.753124 119.31604Q33.159374 119.03479 33.659374 119.03479Q34.3625 119.03479 35.096874 119.487915L34.6125 120.78479Q34.096874 120.487915 33.58125 120.487915Q33.128124 120.487915 32.753124 120.769165Q32.39375 121.03479 32.2375 121.53479Q32.003124 122.28479 32.003124 123.175415L32.003124 127.519165L30.596874 127.519165ZM41.01875 124.47229L42.409374 124.65979Q42.175 126.081665 41.2375 126.894165Q40.315624 127.706665 38.95625 127.706665Q37.253124 127.706665 36.20625 126.59729Q35.175 125.47229 35.175 123.394165Q35.175 122.050415 35.6125 121.050415Q36.065624 120.03479 36.971874 119.53479Q37.89375 119.03479 38.95625 119.03479Q40.315624 119.03479 41.175 119.72229Q42.034374 120.394165 42.26875 121.65979L40.909374 121.862915Q40.70625 121.03479 40.20625 120.612915Q39.721874 120.19104 39.01875 120.19104Q37.95625 120.19104 37.284374 120.956665Q36.628124 121.706665 36.628124 123.362915Q36.628124 125.03479 37.26875 125.800415Q37.909374 126.550415 38.940624 126.550415Q39.76875 126.550415 40.315624 126.050415Q40.878124 125.53479 41.01875 124.47229ZM43.6125 127.519165L43.6125 116.06604L45.01875 116.06604L45.01875 120.175415Q46.003124 119.03479 47.503124 119.03479Q48.425 119.03479 49.096874 119.394165Q49.784374 119.75354 50.065624 120.394165Q50.3625 121.03479 50.3625 122.25354L50.3625 127.519165L48.95625 127.519165L48.95625 122.25354Q48.95625 121.206665 48.503124 120.72229Q48.05 120.237915 47.20625 120.237915Q46.58125 120.237915 46.034374 120.56604Q45.4875 120.894165 45.253124 121.456665Q45.01875 122.00354 45.01875 122.97229L45.01875 127.519165L43.6125 127.519165ZM52.6125 117.675415L52.6125 116.06604L54.01875 116.06604L54.01875 117.675415L52.6125 117.675415ZM52.6125 127.519165L52.6125 119.22229L54.01875 119.22229L54.01875 127.519165L52.6125 127.519165ZM59.675 126.25354L59.878124 127.50354Q59.284374 127.62854 58.815624 127.62854Q58.05 127.62854 57.628124 127.394165Q57.20625 127.144165 57.034374 126.75354Q56.8625 126.34729 56.8625 125.081665L56.8625 120.31604L55.83125 120.31604L55.83125 119.22229L56.8625 119.22229L56.8625 117.15979L58.26875 116.31604L58.26875 119.22229L59.675 119.22229L59.675 120.31604L58.26875 120.31604L58.26875 125.15979Q58.26875 125.769165 58.33125 125.94104Q58.409374 126.112915 58.58125 126.22229Q58.753124 126.31604 59.065624 126.31604Q59.3 126.31604 59.675 126.25354ZM66.28438 124.84729L67.7375 125.019165Q67.39375 126.300415 66.45625 127.00354Q65.53438 127.706665 64.09688 127.706665Q62.26875 127.706665 61.20625 126.581665Q60.14375 125.456665 60.14375 123.44104Q60.14375 121.34729 61.221874 120.19104Q62.3 119.03479 64.01875 119.03479Q65.675 119.03479 66.72188 120.175415Q67.78438 121.300415 67.78438 123.34729Q67.78438 123.47229 67.78438 123.72229L61.596874 123.72229Q61.675 125.09729 62.3625 125.831665Q63.065624 126.550415 64.09688 126.550415Q64.87813 126.550415 65.425 126.144165Q65.97188 125.737915 66.28438 124.84729ZM61.675 122.56604L66.3 122.56604Q66.20625 121.519165 65.76875 121.00354Q65.09688 120.19104 64.03438 120.19104Q63.065624 120.19104 62.39375 120.84729Q61.7375 121.487915 61.675 122.56604ZM75.01875 124.47229L76.40938 124.65979Q76.175 126.081665 75.2375 126.894165Q74.31563 127.706665 72.95625 127.706665Q71.25313 127.706665 70.20625 126.59729Q69.175 125.47229 69.175 123.394165Q69.175 122.050415 69.6125 121.050415Q70.06563 120.03479 70.97188 119.53479Q71.89375 119.03479 72.95625 119.03479Q74.31563 119.03479 75.175 119.72229Q76.03438 120.394165 76.26875 121.65979L74.90938 121.862915Q74.70625 121.03479 74.20625 120.612915Q73.72188 120.19104 73.01875 120.19104Q71.95625 120.19104 71.28438 120.956665Q70.62813 121.706665 70.62813 123.362915Q70.62813 125.03479 71.26875 125.800415Q71.90938 126.550415 72.94063 126.550415Q73.76875 126.550415 74.31563 126.050415Q74.87813 125.53479 75.01875 124.47229ZM80.675 126.25354L80.87813 127.50354Q80.28438 127.62854 79.81563 127.62854Q79.05 127.62854 78.62813 127.394165Q78.20625 127.144165 78.03438 126.75354Q77.8625 126.34729 77.8625 125.081665L77.8625 120.31604L76.83125 120.31604L76.83125 119.22229L77.8625 119.22229L77.8625 117.15979L79.26875 116.31604L79.26875 119.22229L80.675 119.22229L80.675 120.31604L79.26875 120.31604L79.26875 125.15979Q79.26875 125.769165 79.33125 125.94104Q79.40938 126.112915 79.58125 126.22229Q79.75313 126.31604 80.06563 126.31604Q80.3 126.31604 80.675 126.25354ZM87.05 127.519165L87.05 126.300415Q86.08125 127.706665 84.40938 127.706665Q83.675 127.706665 83.03438 127.425415Q82.40938 127.144165 82.09688 126.72229Q81.78438 126.28479 81.65938 125.675415Q81.58125 125.25354 81.58125 124.362915L81.58125 119.22229L82.9875 119.22229L82.9875 123.81604Q82.9875 124.925415 83.06563 125.300415Q83.20625 125.862915 83.62813 126.175415Q84.06563 126.487915 84.69063 126.487915Q85.33125 126.487915 85.87813 126.175415Q86.44063 125.84729 86.65938 125.28479Q86.89375 124.72229 86.89375 123.65979L86.89375 119.22229L88.3 119.22229L88.3 127.519165L87.05 127.519165ZM90.59688 127.519165L90.59688 119.22229L91.8625 119.22229L91.8625 120.47229Q92.34688 119.59729 92.75313 119.31604Q93.15938 119.03479 93.65938 119.03479Q94.3625 119.03479 95.09688 119.487915L94.6125 120.78479Q94.09688 120.487915 93.58125 120.487915Q93.12813 120.487915 92.75313 120.769165Q92.39375 121.03479 92.2375 121.53479Q92.00313 122.28479 92.00313 123.175415L92.00313 127.519165L90.59688 127.519165ZM101.28438 124.84729L102.7375 125.019165Q102.39375 126.300415 101.45625 127.00354Q100.53438 127.706665 99.09688 127.706665Q97.26875 127.706665 96.20625 126.581665Q95.14375 125.456665 95.14375 123.44104Q95.14375 121.34729 96.22188 120.19104Q97.3 119.03479 99.01875 119.03479Q100.675 119.03479 101.72188 120.175415Q102.78438 121.300415 102.78438 123.34729Q102.78438 123.47229 102.78438 123.72229L96.59688 123.72229Q96.675 125.09729 97.3625 125.831665Q98.06563 126.550415 99.09688 126.550415Q99.87813 126.550415 100.425 126.144165Q100.97188 125.737915 101.28438 124.84729ZM96.675 122.56604L101.3 122.56604Q101.20625 121.519165 100.76875 121.00354Q100.09688 120.19104 99.03438 120.19104Q98.06563 120.19104 97.39375 120.84729Q96.7375 121.487915 96.675 122.56604ZM115.15938 126.15979Q114.45625 126.94104 113.62813 127.331665Q112.81563 127.72229 111.8625 127.72229Q110.1125 127.72229 109.08125 126.519165Q108.2375 125.550415 108.2375 124.362915Q108.2375 123.300415 108.925 122.44104Q109.6125 121.581665 110.97188 120.94104Q110.19063 120.050415 109.925 119.50354Q109.675 118.94104 109.675 118.425415Q109.675 117.394165 110.4875 116.62854Q111.3 115.862915 112.51875 115.862915Q113.69063 115.862915 114.44063 116.581665Q115.19063 117.300415 115.19063 118.31604Q115.19063 119.94104 113.01875 121.09729L115.08125 123.72229Q115.425 123.03479 115.62813 122.12854L117.08125 122.44104Q116.70625 123.94104 116.06563 124.90979Q116.8625 125.956665 117.8625 126.65979L116.90938 127.78479Q116.06563 127.237915 115.15938 126.15979ZM112.3 120.19104Q113.20625 119.65979 113.47188 119.25354Q113.75313 118.84729 113.75313 118.34729Q113.75313 117.769165 113.37813 117.394165Q113.00313 117.019165 112.45625 117.019165Q111.87813 117.019165 111.50313 117.394165Q111.12813 117.75354 111.12813 118.28479Q111.12813 118.550415 111.25313 118.84729Q111.39375 119.144165 111.675 119.47229L112.3 120.19104ZM114.26875 125.050415L111.69063 121.862915Q110.55 122.53479 110.14375 123.12854Q109.75313 123.706665 109.75313 124.269165Q109.75313 124.97229 110.3 125.72229Q110.8625 126.47229 111.87813 126.47229Q112.51875 126.47229 113.19063 126.081665Q113.8625 125.675415 114.26875 125.050415Z" fill-rule="nonzero"/><path fill="#9e9e9e" d="M19.221874 146.48792L20.628124 146.30042Q20.878124 147.50354 21.45625 148.03479Q22.034374 148.55042 22.878124 148.55042Q23.8625 148.55042 24.55 147.86292Q25.2375 147.17542 25.2375 146.15979Q25.2375 145.19104 24.596874 144.56604Q23.971874 143.94104 22.9875 143.94104Q22.596874 143.94104 22.003124 144.09729L22.159374 142.86292Q22.3 142.87854 22.378124 142.87854Q23.284374 142.87854 24.003124 142.40979Q24.721874 141.94104 24.721874 140.95667Q24.721874 140.19104 24.190624 139.69104Q23.675 139.17542 22.846874 139.17542Q22.01875 139.17542 21.471874 139.69104Q20.925 140.20667 20.76875 141.23792L19.3625 140.98792Q19.628124 139.56604 20.534374 138.80042Q21.45625 138.01917 22.815624 138.01917Q23.753124 138.01917 24.534374 138.42542Q25.33125 138.81604 25.7375 139.51917Q26.159374 140.20667 26.159374 140.98792Q26.159374 141.73792 25.753124 142.34729Q25.3625 142.95667 24.58125 143.31604Q25.596874 143.55042 26.159374 144.28479Q26.721874 145.01917 26.721874 146.12854Q26.721874 147.62854 25.628124 148.67542Q24.534374 149.72229 22.8625 149.72229Q21.3625 149.72229 20.3625 148.83167Q19.3625 147.92542 19.221874 146.48792ZM28.221874 146.48792L29.628124 146.30042Q29.878124 147.50354 30.45625 148.03479Q31.034374 148.55042 31.878124 148.55042Q32.8625 148.55042 33.55 147.86292Q34.2375 147.17542 34.2375 146.15979Q34.2375 145.19104 33.596874 144.56604Q32.971874 143.94104 31.9875 143.94104Q31.596874 143.94104 31.003124 144.09729L31.159374 142.86292Q31.3 142.87854 31.378124 142.87854Q32.284374 142.87854 33.003124 142.40979Q33.721874 141.94104 33.721874 140.95667Q33.721874 140.19104 33.190624 139.69104Q32.675 139.17542 31.846874 139.17542Q31.01875 139.17542 30.471874 139.69104Q29.925 140.20667 29.76875 141.23792L28.3625 140.98792Q28.628124 139.56604 29.534374 138.80042Q30.45625 138.01917 31.815624 138.01917Q32.753124 138.01917 33.534374 138.42542Q34.33125 138.81604 34.7375 139.51917Q35.159374 140.20667 35.159374 140.98792Q35.159374 141.73792 34.753124 142.34729Q34.3625 142.95667 33.58125 143.31604Q34.596874 143.55042 35.159374 144.28479Q35.721874 145.01917 35.721874 146.12854Q35.721874 147.62854 34.628124 148.67542Q33.534374 149.72229 31.8625 149.72229Q30.3625 149.72229 29.3625 148.83167Q28.3625 147.92542 28.221874 146.48792ZM38.003124 149.51917L38.003124 147.90979L39.6125 147.90979L39.6125 149.51917L38.003124 149.51917ZM41.221874 146.48792L42.628124 146.30042Q42.878124 147.50354 43.45625 148.03479Q44.034374 148.55042 44.878124 148.55042Q45.8625 148.55042 46.55 147.86292Q47.2375 147.17542 47.2375 146.15979Q47.2375 145.19104 46.596874 144.56604Q45.971874 143.94104 44.9875 143.94104Q44.596874 143.94104 44.003124 144.09729L44.159374 142.86292Q44.3 142.87854 44.378124 142.87854Q45.284374 142.87854 46.003124 142.40979Q46.721874 141.94104 46.721874 140.95667Q46.721874 140.19104 46.190624 139.69104Q45.675 139.17542 44.846874 139.17542Q44.01875 139.17542 43.471874 139.69104Q42.925 140.20667 42.76875 141.23792L41.3625 140.98792Q41.628124 139.56604 42.534374 138.80042Q43.45625 138.01917 44.815624 138.01917Q45.753124 138.01917 46.534374 138.42542Q47.33125 138.81604 47.7375 139.51917Q48.159374 140.20667 48.159374 140.98792Q48.159374 141.73792 47.753124 142.34729Q47.3625 142.95667 46.58125 143.31604Q47.596874 143.55042 48.159374 144.28479Q48.721874 145.01917 48.721874 146.12854Q48.721874 147.62854 47.628124 148.67542Q46.534374 149.72229 44.8625 149.72229Q43.3625 149.72229 42.3625 148.83167Q41.3625 147.92542 41.221874 146.48792ZM50.4875 140.81604Q50.4875 139.58167 51.096874 138.72229Q51.721874 137.86292 52.89375 137.86292Q53.971874 137.86292 54.675 138.64417Q55.378124 139.40979 55.378124 140.89417Q55.378124 142.34729 54.659374 143.14417Q53.95625 143.92542 52.909374 143.92542Q51.8625 143.92542 51.175 143.15979Q50.4875 142.37854 50.4875 140.81604ZM52.925 138.83167Q52.409374 138.83167 52.05 139.28479Q51.70625 139.73792 51.70625 140.95667Q51.70625 142.05042 52.05 142.50354Q52.409374 142.95667 52.925 142.95667Q53.45625 142.95667 53.8 142.50354Q54.159374 142.05042 54.159374 140.84729Q54.159374 139.73792 53.8 139.28479Q53.45625 138.83167 52.925 138.83167ZM52.940624 149.94104L59.20625 137.86292L60.346874 137.86292L54.096874 149.94104L52.940624 149.94104ZM57.89375 146.83167Q57.89375 145.59729 58.503124 144.73792Q59.128124 143.87854 60.3 143.87854Q61.378124 143.87854 62.08125 144.65979Q62.8 145.42542 62.8 146.90979Q62.8 148.36292 62.08125 149.15979Q61.3625 149.94104 60.315624 149.94104Q59.26875 149.94104 58.58125 149.15979Q57.89375 148.37854 57.89375 146.83167ZM60.346874 144.84729Q59.815624 144.84729 59.45625 145.30042Q59.1125 145.75354 59.1125 146.97229Q59.1125 148.06604 59.45625 148.51917Q59.815624 148.97229 60.33125 148.97229Q60.878124 148.97229 61.221874 148.51917Q61.565624 148.06604 61.565624 146.86292Q61.565624 145.75354 61.20625 145.30042Q60.8625 144.84729 60.346874 144.84729Z" fill-rule="nonzero"/><path stroke="#757575" stroke-width="1.0" stroke-linecap="butt" d="M18.55 133.01917L145.23334 133.01917L177.60608 133.01917" fill-rule="nonzero"/><path fill="#9e9e9e" d="M179.60608 133.01917C179.60608 131.9146 178.71065 131.01917 177.60608 131.01917C176.50151 131.01917 175.60608 131.9146 175.60608 133.01917C175.60608 134.12373 176.50151 135.01917 177.60608 135.01917C178.71065 135.01917 179.60608 134.12373 179.60608 133.01917" fill-rule="nonzero"/><path fill="#efefef" d="M481.71564 127.519165L481.71564 116.06604L489.9969 116.06604L489.9969 117.40979L483.23126 117.40979L483.23126 120.925415L489.575 120.925415L489.575 122.269165L483.23126 122.269165L483.23126 126.15979L490.2625 126.15979L490.2625 127.519165L481.71564 127.519165ZM495.575 126.25354L495.77814 127.50354Q495.1844 127.62854 494.71564 127.62854Q493.95 127.62854 493.52814 127.394165Q493.10626 127.144165 492.9344 126.75354Q492.7625 126.34729 492.7625 125.081665L492.7625 120.31604L491.73126 120.31604L491.73126 119.22229L492.7625 119.22229L492.7625 117.15979L494.16876 116.31604L494.16876 119.22229L495.575 119.22229L495.575 120.31604L494.16876 120.31604L494.16876 125.15979Q494.16876 125.769165 494.23126 125.94104Q494.3094 126.112915 494.48126 126.22229Q494.65314 126.31604 494.96564 126.31604Q495.2 126.31604 495.575 126.25354ZM496.5125 127.519165L496.5125 116.06604L497.91876 116.06604L497.91876 120.175415Q498.90314 119.03479 500.40314 119.03479Q501.325 119.03479 501.9969 119.394165Q502.6844 119.75354 502.96564 120.394165Q503.2625 121.03479 503.2625 122.25354L503.2625 127.519165L501.85626 127.519165L501.85626 122.25354Q501.85626 121.206665 501.40314 120.72229Q500.95 120.237915 500.10626 120.237915Q499.48126 120.237915 498.9344 120.56604Q498.3875 120.894165 498.15314 121.456665Q497.91876 122.00354 497.91876 122.97229L497.91876 127.519165L496.5125 127.519165ZM505.5125 127.519165L505.5125 119.22229L506.77814 119.22229L506.77814 120.394165Q507.6844 119.03479 509.41876 119.03479Q510.16876 119.03479 510.79376 119.300415Q511.41876 119.56604 511.73126 120.00354Q512.04376 120.44104 512.16876 121.050415Q512.2469 121.44104 512.2469 122.40979L512.2469 127.519165L510.84064 127.519165L510.84064 122.47229Q510.84064 121.612915 510.66876 121.19104Q510.5125 120.75354 510.09064 120.50354Q509.6844 120.25354 509.1219 120.25354Q508.21564 120.25354 507.5594 120.831665Q506.91876 121.394165 506.91876 122.987915L506.91876 127.519165L505.5125 127.519165ZM514.5125 117.675415L514.5125 116.06604L515.91876 116.06604L515.91876 117.675415L514.5125 117.675415ZM514.5125 127.519165L514.5125 119.22229L515.91876 119.22229L515.91876 127.519165L514.5125 127.519165ZM523.91876 124.47229L525.3094 124.65979Q525.075 126.081665 524.1375 126.894165Q523.21564 127.706665 521.85626 127.706665Q520.15314 127.706665 519.10626 126.59729Q518.075 125.47229 518.075 123.394165Q518.075 122.050415 518.5125 121.050415Q518.96564 120.03479 519.8719 119.53479Q520.79376 119.03479 521.85626 119.03479Q523.21564 119.03479 524.075 119.72229Q524.9344 120.394165 525.16876 121.65979L523.8094 121.862915Q523.60626 121.03479 523.10626 120.612915Q522.6219 120.19104 521.91876 120.19104Q520.85626 120.19104 520.1844 120.956665Q519.52814 121.706665 519.52814 123.362915Q519.52814 125.03479 520.16876 125.800415Q520.8094 126.550415 521.84064 126.550415Q522.66876 126.550415 523.21564 126.050415Q523.77814 125.53479 523.91876 124.47229ZM536.04376 123.019165L536.04376 121.675415L540.90314 121.675415L540.90314 125.925415Q539.77814 126.81604 538.59064 127.269165Q537.40314 127.72229 536.15314 127.72229Q534.46564 127.72229 533.09064 127.00354Q531.71564 126.269165 531.0125 124.90979Q530.3094 123.53479 530.3094 121.84729Q530.3094 120.175415 530.9969 118.72229Q531.7 117.269165 533.0125 116.56604Q534.325 115.862915 536.04376 115.862915Q537.27814 115.862915 538.27814 116.269165Q539.29376 116.675415 539.85626 117.394165Q540.4344 118.112915 540.73126 119.269165L539.35626 119.644165Q539.10626 118.769165 538.71564 118.269165Q538.34064 117.769165 537.6219 117.47229Q536.91876 117.15979 536.04376 117.15979Q535.0125 117.15979 534.2469 117.487915Q533.4969 117.800415 533.02814 118.31604Q532.5594 118.831665 532.3094 119.44104Q531.8719 120.50354 531.8719 121.75354Q531.8719 123.28479 532.3875 124.31604Q532.91876 125.34729 533.91876 125.84729Q534.9344 126.34729 536.075 126.34729Q537.0594 126.34729 537.9969 125.97229Q538.9344 125.581665 539.41876 125.15979L539.41876 123.019165L536.04376 123.019165ZM542.4969 127.519165L542.4969 119.22229L543.7625 119.22229L543.7625 120.47229Q544.2469 119.59729 544.65314 119.31604Q545.0594 119.03479 545.5594 119.03479Q546.2625 119.03479 546.9969 119.487915L546.5125 120.78479Q545.9969 120.487915 545.48126 120.487915Q545.02814 120.487915 544.65314 120.769165Q544.29376 121.03479 544.1375 121.53479Q543.90314 122.28479 543.90314 123.175415L543.90314 127.519165L542.4969 127.519165ZM546.98126 123.362915Q546.98126 121.06604 548.2625 119.956665Q549.34064 119.03479 550.8719 119.03479Q552.59064 119.03479 553.66876 120.15979Q554.7625 121.269165 554.7625 123.25354Q554.7625 124.84729 554.27814 125.769165Q553.79376 126.69104 552.8719 127.206665Q551.96564 127.706665 550.8719 127.706665Q549.1375 127.706665 548.0594 126.59729Q546.98126 125.47229 546.98126 123.362915ZM548.4344 123.362915Q548.4344 124.956665 549.1219 125.75354Q549.825 126.550415 550.8719 126.550415Q551.91876 126.550415 552.60626 125.75354Q553.3094 124.956665 553.3094 123.31604Q553.3094 121.78479 552.60626 120.987915Q551.91876 120.19104 550.8719 120.19104Q549.825 120.19104 549.1219 120.987915Q548.4344 121.769165 548.4344 123.362915ZM561.95 127.519165L561.95 126.300415Q560.98126 127.706665 559.3094 127.706665Q558.575 127.706665 557.9344 127.425415Q557.3094 127.144165 556.9969 126.72229Q556.6844 126.28479 556.5594 125.675415Q556.48126 125.25354 556.48126 124.362915L556.48126 119.22229L557.8875 119.22229L557.8875 123.81604Q557.8875 124.925415 557.96564 125.300415Q558.10626 125.862915 558.52814 126.175415Q558.96564 126.487915 559.59064 126.487915Q560.23126 126.487915 560.77814 126.175415Q561.34064 125.84729 561.5594 125.28479Q561.79376 124.72229 561.79376 123.65979L561.79376 119.22229L563.2 119.22229L563.2 127.519165L561.95 127.519165ZM565.5125 130.70667L565.5125 119.22229L566.79376 119.22229L566.79376 120.300415Q567.2469 119.65979 567.8094 119.34729Q568.3875 119.03479 569.2 119.03479Q570.2625 119.03479 571.075 119.581665Q571.8875 120.12854 572.29376 121.12854Q572.71564 122.112915 572.71564 123.300415Q572.71564 124.581665 572.2469 125.59729Q571.79376 126.612915 570.91876 127.15979Q570.0594 127.706665 569.09064 127.706665Q568.3875 127.706665 567.825 127.40979Q567.27814 127.112915 566.91876 126.65979L566.91876 130.70667L565.5125 130.70667ZM566.77814 123.40979Q566.77814 125.019165 567.41876 125.78479Q568.075 126.550415 568.9969 126.550415Q569.9344 126.550415 570.60626 125.75354Q571.27814 124.956665 571.27814 123.300415Q571.27814 121.706665 570.6219 120.925415Q569.96564 120.12854 569.0594 120.12854Q568.16876 120.12854 567.46564 120.97229Q566.77814 121.81604 566.77814 123.40979ZM573.95 125.03479L575.34064 124.81604Q575.45 125.65979 575.98126 126.112915Q576.52814 126.550415 577.48126 126.550415Q578.45 126.550415 578.91876 126.15979Q579.3875 125.75354 579.3875 125.22229Q579.3875 124.75354 578.98126 124.47229Q578.6844 124.28479 577.54376 124.00354Q575.9969 123.612915 575.3875 123.331665Q574.79376 123.03479 574.48126 122.53479Q574.1844 122.03479 574.1844 121.425415Q574.1844 120.862915 574.4344 120.394165Q574.6844 119.925415 575.1219 119.612915Q575.45 119.362915 576.0125 119.206665Q576.59064 119.03479 577.23126 119.03479Q578.21564 119.03479 578.95 119.31604Q579.6844 119.59729 580.02814 120.081665Q580.3875 120.550415 580.52814 121.362915L579.15314 121.550415Q579.0594 120.90979 578.60626 120.550415Q578.15314 120.19104 577.34064 120.19104Q576.3719 120.19104 575.95 120.519165Q575.54376 120.831665 575.54376 121.25354Q575.54376 121.53479 575.71564 121.75354Q575.8875 121.97229 576.2469 122.12854Q576.46564 122.206665 577.4969 122.487915Q578.98126 122.87854 579.575 123.144165Q580.16876 123.394165 580.4969 123.87854Q580.84064 124.362915 580.84064 125.081665Q580.84064 125.78479 580.41876 126.40979Q580.0125 127.019165 579.23126 127.362915Q578.46564 127.706665 577.4969 127.706665Q575.8719 127.706665 575.02814 127.03479Q574.1844 126.362915 573.95 125.03479Z" fill-rule="nonzero"/><path fill="#9e9e9e" d="M537.1219 146.48792L538.52814 146.30042Q538.77814 147.50354 539.35626 148.03479Q539.9344 148.55042 540.77814 148.55042Q541.7625 148.55042 542.45 147.86292Q543.1375 147.17542 543.1375 146.15979Q543.1375 145.19104 542.4969 144.56604Q541.8719 143.94104 540.8875 143.94104Q540.4969 143.94104 539.90314 144.09729L540.0594 142.86292Q540.2 142.87854 540.27814 142.87854Q541.1844 142.87854 541.90314 142.40979Q542.6219 141.94104 542.6219 140.95667Q542.6219 140.19104 542.09064 139.69104Q541.575 139.17542 540.7469 139.17542Q539.91876 139.17542 539.3719 139.69104Q538.825 140.20667 538.66876 141.23792L537.2625 140.98792Q537.52814 139.56604 538.4344 138.80042Q539.35626 138.01917 540.71564 138.01917Q541.65314 138.01917 542.4344 138.42542Q543.23126 138.81604 543.6375 139.51917Q544.0594 140.20667 544.0594 140.98792Q544.0594 141.73792 543.65314 142.34729Q543.2625 142.95667 542.48126 143.31604Q543.4969 143.55042 544.0594 144.28479Q544.6219 145.01917 544.6219 146.12854Q544.6219 147.62854 543.52814 148.67542Q542.4344 149.72229 540.7625 149.72229Q539.2625 149.72229 538.2625 148.83167Q537.2625 147.92542 537.1219 146.48792ZM546.1219 146.48792L547.52814 146.30042Q547.77814 147.50354 548.35626 148.03479Q548.9344 148.55042 549.77814 148.55042Q550.7625 148.55042 551.45 147.86292Q552.1375 147.17542 552.1375 146.15979Q552.1375 145.19104 551.4969 144.56604Q550.8719 143.94104 549.8875 143.94104Q549.4969 143.94104 548.90314 144.09729L549.0594 142.86292Q549.2 142.87854 549.27814 142.87854Q550.1844 142.87854 550.90314 142.40979Q551.6219 141.94104 551.6219 140.95667Q551.6219 140.19104 551.09064 139.69104Q550.575 139.17542 549.7469 139.17542Q548.91876 139.17542 548.3719 139.69104Q547.825 140.20667 547.66876 141.23792L546.2625 140.98792Q546.52814 139.56604 547.4344 138.80042Q548.35626 138.01917 549.71564 138.01917Q550.65314 138.01917 551.4344 138.42542Q552.23126 138.81604 552.6375 139.51917Q553.0594 140.20667 553.0594 140.98792Q553.0594 141.73792 552.65314 142.34729Q552.2625 142.95667 551.48126 143.31604Q552.4969 143.55042 553.0594 144.28479Q553.6219 145.01917 553.6219 146.12854Q553.6219 147.62854 552.52814 148.67542Q551.4344 149.72229 549.7625 149.72229Q548.2625 149.72229 547.2625 148.83167Q546.2625 147.92542 546.1219 146.48792ZM555.90314 149.51917L555.90314 147.90979L557.5125 147.90979L557.5125 149.51917L555.90314 149.51917ZM559.1219 146.48792L560.52814 146.30042Q560.77814 147.50354 561.35626 148.03479Q561.9344 148.55042 562.77814 148.55042Q563.7625 148.55042 564.45 147.86292Q565.1375 147.17542 565.1375 146.15979Q565.1375 145.19104 564.4969 144.56604Q563.8719 143.94104 562.8875 143.94104Q562.4969 143.94104 561.90314 144.09729L562.0594 142.86292Q562.2 142.87854 562.27814 142.87854Q563.1844 142.87854 563.90314 142.40979Q564.6219 141.94104 564.6219 140.95667Q564.6219 140.19104 564.09064 139.69104Q563.575 139.17542 562.7469 139.17542Q561.91876 139.17542 561.3719 139.69104Q560.825 140.20667 560.66876 141.23792L559.2625 140.98792Q559.52814 139.56604 560.4344 138.80042Q561.35626 138.01917 562.71564 138.01917Q563.65314 138.01917 564.4344 138.42542Q565.23126 138.81604 565.6375 139.51917Q566.0594 140.20667 566.0594 140.98792Q566.0594 141.73792 565.65314 142.34729Q565.2625 142.95667 564.48126 143.31604Q565.4969 143.55042 566.0594 144.28479Q566.6219 145.01917 566.6219 146.12854Q566.6219 147.62854 565.52814 148.67542Q564.4344 149.72229 562.7625 149.72229Q561.2625 149.72229 560.2625 148.83167Q559.2625 147.92542 559.1219 146.48792ZM568.3875 140.81604Q568.3875 139.58167 568.9969 138.72229Q569.6219 137.86292 570.79376 137.86292Q571.8719 137.86292 572.575 138.64417Q573.27814 139.40979 573.27814 140.89417Q573.27814 142.34729 572.5594 143.14417Q571.85626 143.92542 570.8094 143.92542Q569.7625 143.92542 569.075 143.15979Q568.3875 142.37854 568.3875 140.81604ZM570.825 138.83167Q570.3094 138.83167 569.95 139.28479Q569.60626 139.73792 569.60626 140.95667Q569.60626 142.05042 569.95 142.50354Q570.3094 142.95667 570.825 142.95667Q571.35626 142.95667 571.7 142.50354Q572.0594 142.05042 572.0594 140.84729Q572.0594 139.73792 571.7 139.28479Q571.35626 138.83167 570.825 138.83167ZM570.84064 149.94104L577.10626 137.86292L578.2469 137.86292L571.9969 149.94104L570.84064 149.94104ZM575.79376 146.83167Q575.79376 145.59729 576.40314 144.73792Q577.02814 143.87854 578.2 143.87854Q579.27814 143.87854 579.98126 144.65979Q580.7 145.42542 580.7 146.90979Q580.7 148.36292 579.98126 149.15979Q579.2625 149.94104 578.21564 149.94104Q577.16876 149.94104 576.48126 149.15979Q575.79376 148.37854 575.79376 146.83167ZM578.2469 144.84729Q577.71564 144.84729 577.35626 145.30042Q577.0125 145.75354 577.0125 146.97229Q577.0125 148.06604 577.35626 148.51917Q577.71564 148.97229 578.23126 148.97229Q578.77814 148.97229 579.1219 148.51917Q579.46564 148.06604 579.46564 146.86292Q579.46564 145.75354 579.10626 145.30042Q578.7625 144.84729 578.2469 144.84729Z" fill-rule="nonzero"/><path stroke="#757575" stroke-width="1.0" stroke-linecap="butt" d="M581.45 133.01917L454.76666 133.01917L422.39392 133.01917" fill-rule="nonzero"/><path fill="#9e9e9e" d="M424.39392 133.01917C424.39392 131.9146 423.4985 131.01917 422.39392 131.01917C421.28937 131.01917 420.39392 131.9146 420.39392 133.01917C420.39392 134.12373 421.28937 135.01917 422.39392 135.01917C423.4985 135.01917 424.39392 134.12373 424.39392 133.01917" fill-rule="nonzero"/><path fill="#efefef" d="M495.85626 322.4344L497.3719 322.8094Q496.90314 324.6844 495.65314 325.66876Q494.41876 326.65314 492.6375 326.65314Q490.77814 326.65314 489.6219 325.90314Q488.46564 325.1375 487.85626 323.71564Q487.2469 322.27814 487.2469 320.6375Q487.2469 318.84064 487.9344 317.5125Q488.6219 316.1844 489.8719 315.4969Q491.1375 314.79376 492.65314 314.79376Q494.3719 314.79376 495.54376 315.66876Q496.71564 316.54376 497.1844 318.1375L495.6844 318.48126Q495.29376 317.23126 494.52814 316.66876Q493.77814 316.09064 492.6219 316.09064Q491.3094 316.09064 490.41876 316.73126Q489.52814 317.35626 489.16876 318.4344Q488.8094 319.4969 488.8094 320.6219Q488.8094 322.09064 489.23126 323.1844Q489.66876 324.2625 490.5594 324.8094Q491.46564 325.34064 492.5125 325.34064Q493.77814 325.34064 494.65314 324.60626Q495.54376 323.8719 495.85626 322.4344ZM504.95 326.45L504.95 325.23126Q503.98126 326.6375 502.3094 326.6375Q501.575 326.6375 500.9344 326.35626Q500.3094 326.075 499.9969 325.65314Q499.6844 325.21564 499.5594 324.60626Q499.48126 324.1844 499.48126 323.29376L499.48126 318.15314L500.8875 318.15314L500.8875 322.7469Q500.8875 323.85626 500.96564 324.23126Q501.10626 324.79376 501.52814 325.10626Q501.96564 325.41876 502.59064 325.41876Q503.23126 325.41876 503.77814 325.10626Q504.34064 324.77814 504.5594 324.21564Q504.79376 323.65314 504.79376 322.59064L504.79376 318.15314L506.2 318.15314L506.2 326.45L504.95 326.45ZM508.48126 326.45L508.48126 314.9969L509.8875 314.9969L509.8875 326.45L508.48126 326.45ZM515.575 325.1844L515.77814 326.4344Q515.1844 326.5594 514.71564 326.5594Q513.95 326.5594 513.52814 326.325Q513.10626 326.075 512.9344 325.6844Q512.7625 325.27814 512.7625 324.0125L512.7625 319.2469L511.73126 319.2469L511.73126 318.15314L512.7625 318.15314L512.7625 316.09064L514.16876 315.2469L514.16876 318.15314L515.575 318.15314L515.575 319.2469L514.16876 319.2469L514.16876 324.09064Q514.16876 324.7 514.23126 324.8719Q514.3094 325.04376 514.48126 325.15314Q514.65314 325.2469 514.96564 325.2469Q515.2 325.2469 515.575 325.1844ZM521.95 326.45L521.95 325.23126Q520.98126 326.6375 519.3094 326.6375Q518.575 326.6375 517.9344 326.35626Q517.3094 326.075 516.9969 325.65314Q516.6844 325.21564 516.5594 324.60626Q516.48126 324.1844 516.48126 323.29376L516.48126 318.15314L517.8875 318.15314L517.8875 322.7469Q517.8875 323.85626 517.96564 324.23126Q518.10626 324.79376 518.52814 325.10626Q518.96564 325.41876 519.59064 325.41876Q520.23126 325.41876 520.77814 325.10626Q521.34064 324.77814 521.5594 324.21564Q521.79376 323.65314 521.79376 322.59064L521.79376 318.15314L523.2 318.15314L523.2 326.45L521.95 326.45ZM525.4969 326.45L525.4969 318.15314L526.7625 318.15314L526.7625 319.40314Q527.2469 318.52814 527.65314 318.2469Q528.0594 317.96564 528.5594 317.96564Q529.2625 317.96564 529.9969 318.41876L529.5125 319.71564Q528.9969 319.41876 528.48126 319.41876Q528.02814 319.41876 527.65314 319.7Q527.29376 319.96564 527.1375 320.46564Q526.90314 321.21564 526.90314 322.10626L526.90314 326.45L525.4969 326.45ZM535.91876 325.41876Q535.1375 326.09064 534.41876 326.3719Q533.7 326.6375 532.8719 326.6375Q531.4969 326.6375 530.7625 325.96564Q530.02814 325.29376 530.02814 324.2625Q530.02814 323.65314 530.3094 323.15314Q530.59064 322.6375 531.02814 322.34064Q531.48126 322.02814 532.04376 321.8719Q532.46564 321.7625 533.29376 321.66876Q534.9969 321.46564 535.8094 321.1844Q535.8094 320.8875 535.8094 320.8094Q535.8094 319.95 535.41876 319.60626Q534.8719 319.1219 533.8094 319.1219Q532.825 319.1219 532.34064 319.48126Q531.8719 319.825 531.65314 320.7L530.27814 320.5125Q530.46564 319.6375 530.8875 319.09064Q531.325 318.54376 532.1375 318.2625Q532.95 317.96564 534.0125 317.96564Q535.075 317.96564 535.73126 318.21564Q536.40314 318.46564 536.71564 318.84064Q537.02814 319.21564 537.15314 319.79376Q537.23126 320.15314 537.23126 321.09064L537.23126 322.96564Q537.23126 324.9344 537.3094 325.45Q537.40314 325.96564 537.66876 326.45L536.2 326.45Q535.98126 326.0125 535.91876 325.41876ZM535.8094 322.27814Q535.04376 322.59064 533.5125 322.8094Q532.6375 322.9344 532.27814 323.09064Q531.91876 323.2469 531.71564 323.5594Q531.52814 323.85626 531.52814 324.21564Q531.52814 324.77814 531.95 325.15314Q532.3875 325.52814 533.2 325.52814Q534.0125 325.52814 534.6375 325.1844Q535.27814 324.825 535.575 324.2Q535.8094 323.73126 535.8094 322.79376L535.8094 322.27814ZM539.48126 326.45L539.48126 314.9969L540.8875 314.9969L540.8875 326.45L539.48126 326.45ZM546.41876 326.45L550.825 314.9969L552.46564 314.9969L557.15314 326.45L555.41876 326.45L554.09064 322.98126L549.29376 322.98126L548.04376 326.45L546.41876 326.45ZM549.73126 321.7469L553.6219 321.7469L552.41876 318.575Q551.8719 317.1219 551.60626 316.2Q551.3875 317.29376 550.9969 318.3875L549.73126 321.7469ZM563.91876 323.40314L565.3094 323.59064Q565.075 325.0125 564.1375 325.825Q563.21564 326.6375 561.85626 326.6375Q560.15314 326.6375 559.10626 325.52814Q558.075 324.40314 558.075 322.325Q558.075 320.98126 558.5125 319.98126Q558.96564 318.96564 559.8719 318.46564Q560.79376 317.96564 561.85626 317.96564Q563.21564 317.96564 564.075 318.65314Q564.9344 319.325 565.16876 320.59064L563.8094 320.79376Q563.60626 319.96564 563.10626 319.54376Q562.6219 319.1219 561.91876 319.1219Q560.85626 319.1219 560.1844 319.8875Q559.52814 320.6375 559.52814 322.29376Q559.52814 323.96564 560.16876 324.73126Q560.8094 325.48126 561.84064 325.48126Q562.66876 325.48126 563.21564 324.98126Q563.77814 324.46564 563.91876 323.40314ZM569.575 325.1844L569.77814 326.4344Q569.1844 326.5594 568.71564 326.5594Q567.95 326.5594 567.52814 326.325Q567.10626 326.075 566.9344 325.6844Q566.7625 325.27814 566.7625 324.0125L566.7625 319.2469L565.73126 319.2469L565.73126 318.15314L566.7625 318.15314L566.7625 316.09064L568.16876 315.2469L568.16876 318.15314L569.575 318.15314L569.575 319.2469L568.16876 319.2469L568.16876 324.09064Q568.16876 324.7 568.23126 324.8719Q568.3094 325.04376 568.48126 325.15314Q568.65314 325.2469 568.96564 325.2469Q569.2 325.2469 569.575 325.1844ZM569.95 323.96564L571.34064 323.7469Q571.45 324.59064 571.98126 325.04376Q572.52814 325.48126 573.48126 325.48126Q574.45 325.48126 574.91876 325.09064Q575.3875 324.6844 575.3875 324.15314Q575.3875 323.6844 574.98126 323.40314Q574.6844 323.21564 573.54376 322.9344Q571.9969 322.54376 571.3875 322.2625Q570.79376 321.96564 570.48126 321.46564Q570.1844 320.96564 570.1844 320.35626Q570.1844 319.79376 570.4344 319.325Q570.6844 318.85626 571.1219 318.54376Q571.45 318.29376 572.0125 318.1375Q572.59064 317.96564 573.23126 317.96564Q574.21564 317.96564 574.95 318.2469Q575.6844 318.52814 576.02814 319.0125Q576.3875 319.48126 576.52814 320.29376L575.15314 320.48126Q575.0594 319.84064 574.60626 319.48126Q574.15314 319.1219 573.34064 319.1219Q572.3719 319.1219 571.95 319.45Q571.54376 319.7625 571.54376 320.1844Q571.54376 320.46564 571.71564 320.6844Q571.8875 320.90314 572.2469 321.0594Q572.46564 321.1375 573.4969 321.41876Q574.98126 321.8094 575.575 322.075Q576.16876 322.325 576.4969 322.8094Q576.84064 323.29376 576.84064 324.0125Q576.84064 324.71564 576.41876 325.34064Q576.0125 325.95 575.23126 326.29376Q574.46564 326.6375 573.4969 326.6375Q571.8719 326.6375 571.02814 325.96564Q570.1844 325.29376 569.95 323.96564ZM578.90314 326.45L578.90314 324.84064L580.5125 324.84064L580.5125 326.45L578.90314 326.45Z" fill-rule="nonzero"/><path fill="#9e9e9e" d="M537.1219 345.41876L538.52814 345.23126Q538.77814 346.4344 539.35626 346.96564Q539.9344 347.48126 540.77814 347.48126Q541.7625 347.48126 542.45 346.79376Q543.1375 346.10626 543.1375 345.09064Q543.1375 344.1219 542.4969 343.4969Q541.8719 342.8719 540.8875 342.8719Q540.4969 342.8719 539.90314 343.02814L540.0594 341.79376Q540.2 341.8094 540.27814 341.8094Q541.1844 341.8094 541.90314 341.34064Q542.6219 340.8719 542.6219 339.8875Q542.6219 339.1219 542.09064 338.6219Q541.575 338.10626 540.7469 338.10626Q539.91876 338.10626 539.3719 338.6219Q538.825 339.1375 538.66876 340.16876L537.2625 339.91876Q537.52814 338.4969 538.4344 337.73126Q539.35626 336.95 540.71564 336.95Q541.65314 336.95 542.4344 337.35626Q543.23126 337.7469 543.6375 338.45Q544.0594 339.1375 544.0594 339.91876Q544.0594 340.66876 543.65314 341.27814Q543.2625 341.8875 542.48126 342.2469Q543.4969 342.48126 544.0594 343.21564Q544.6219 343.95 544.6219 345.0594Q544.6219 346.5594 543.52814 347.60626Q542.4344 348.65314 540.7625 348.65314Q539.2625 348.65314 538.2625 347.7625Q537.2625 346.85626 537.1219 345.41876ZM546.1219 345.41876L547.52814 345.23126Q547.77814 346.4344 548.35626 346.96564Q548.9344 347.48126 549.77814 347.48126Q550.7625 347.48126 551.45 346.79376Q552.1375 346.10626 552.1375 345.09064Q552.1375 344.1219 551.4969 343.4969Q550.8719 342.8719 549.8875 342.8719Q549.4969 342.8719 548.90314 343.02814L549.0594 341.79376Q549.2 341.8094 549.27814 341.8094Q550.1844 341.8094 550.90314 341.34064Q551.6219 340.8719 551.6219 339.8875Q551.6219 339.1219 551.09064 338.6219Q550.575 338.10626 549.7469 338.10626Q548.91876 338.10626 548.3719 338.6219Q547.825 339.1375 547.66876 340.16876L546.2625 339.91876Q546.52814 338.4969 547.4344 337.73126Q548.35626 336.95 549.71564 336.95Q550.65314 336.95 551.4344 337.35626Q552.23126 337.7469 552.6375 338.45Q553.0594 339.1375 553.0594 339.91876Q553.0594 340.66876 552.65314 341.27814Q552.2625 341.8875 551.48126 342.2469Q552.4969 342.48126 553.0594 343.21564Q553.6219 343.95 553.6219 345.0594Q553.6219 346.5594 552.52814 347.60626Q551.4344 348.65314 549.7625 348.65314Q548.2625 348.65314 547.2625 347.7625Q546.2625 346.85626 546.1219 345.41876ZM555.90314 348.45L555.90314 346.84064L557.5125 346.84064L557.5125 348.45L555.90314 348.45ZM559.1219 345.41876L560.52814 345.23126Q560.77814 346.4344 561.35626 346.96564Q561.9344 347.48126 562.77814 347.48126Q563.7625 347.48126 564.45 346.79376Q565.1375 346.10626 565.1375 345.09064Q565.1375 344.1219 564.4969 343.4969Q563.8719 342.8719 562.8875 342.8719Q562.4969 342.8719 561.90314 343.02814L562.0594 341.79376Q562.2 341.8094 562.27814 341.8094Q563.1844 341.8094 563.90314 341.34064Q564.6219 340.8719 564.6219 339.8875Q564.6219 339.1219 564.09064 338.6219Q563.575 338.10626 562.7469 338.10626Q561.91876 338.10626 561.3719 338.6219Q560.825 339.1375 560.66876 340.16876L559.2625 339.91876Q559.52814 338.4969 560.4344 337.73126Q561.35626 336.95 562.71564 336.95Q563.65314 336.95 564.4344 337.35626Q565.23126 337.7469 565.6375 338.45Q566.0594 339.1375 566.0594 339.91876Q566.0594 340.66876 565.65314 341.27814Q565.2625 341.8875 564.48126 342.2469Q565.4969 342.48126 566.0594 343.21564Q566.6219 343.95 566.6219 345.0594Q566.6219 346.5594 565.52814 347.60626Q564.4344 348.65314 562.7625 348.65314Q561.2625 348.65314 560.2625 347.7625Q559.2625 346.85626 559.1219 345.41876ZM568.3875 339.7469Q568.3875 338.5125 568.9969 337.65314Q569.6219 336.79376 570.79376 336.79376Q571.8719 336.79376 572.575 337.575Q573.27814 338.34064 573.27814 339.825Q573.27814 341.27814 572.5594 342.075Q571.85626 342.85626 570.8094 342.85626Q569.7625 342.85626 569.075 342.09064Q568.3875 341.3094 568.3875 339.7469ZM570.825 337.7625Q570.3094 337.7625 569.95 338.21564Q569.60626 338.66876 569.60626 339.8875Q569.60626 340.98126 569.95 341.4344Q570.3094 341.8875 570.825 341.8875Q571.35626 341.8875 571.7 341.4344Q572.0594 340.98126 572.0594 339.77814Q572.0594 338.66876 571.7 338.21564Q571.35626 337.7625 570.825 337.7625ZM570.84064 348.8719L577.10626 336.79376L578.2469 336.79376L571.9969 348.8719L570.84064 348.8719ZM575.79376 345.7625Q575.79376 344.52814 576.40314 343.66876Q577.02814 342.8094 578.2 342.8094Q579.27814 342.8094 579.98126 343.59064Q580.7 344.35626 580.7 345.84064Q580.7 347.29376 579.98126 348.09064Q579.2625 348.8719 578.21564 348.8719Q577.16876 348.8719 576.48126 348.09064Q575.79376 347.3094 575.79376 345.7625ZM578.2469 343.77814Q577.71564 343.77814 577.35626 344.23126Q577.0125 344.6844 577.0125 345.90314Q577.0125 346.9969 577.35626 347.45Q577.71564 347.90314 578.23126 347.90314Q578.77814 347.90314 579.1219 347.45Q579.46564 346.9969 579.46564 345.79376Q579.46564 344.6844 579.10626 344.23126Q578.7625 343.77814 578.2469 343.77814Z" fill-rule="nonzero"/><path stroke="#757575" stroke-width="1.0" stroke-linecap="butt" d="M581.45 331.95L454.76666 331.95L300.0 345.01166" fill-rule="nonzero"/><path fill="#9e9e9e" d="M302.0 345.01166C302.0 343.9071 301.10458 343.01166 300.0 343.01166C298.89542 343.01166 298.0 343.9071 298.0 345.01166C298.0 346.11624 298.89542 347.01166 300.0 347.01166C301.10458 347.01166 302.0 346.11624 302.0 345.01166" fill-rule="nonzero"/><path fill="#f3f3f3" d="M271.26562 32.534374L273.15625 33.003124Q272.5625 35.346874 271.01562 36.58125Q269.46875 37.8 267.21875 37.8Q264.90625 37.8 263.45312 36.8625Q262.01562 35.909374 261.25 34.128124Q260.5 32.33125 260.5 30.284374Q260.5 28.05 261.34375 26.39375Q262.20312 24.721874 263.78125 23.8625Q265.35938 22.9875 267.25 22.9875Q269.40625 22.9875 270.85938 24.08125Q272.32812 25.175 272.90625 27.159374L271.04688 27.596874Q270.54688 26.034374 269.59375 25.33125Q268.65625 24.6125 267.21875 24.6125Q265.5625 24.6125 264.45312 25.409374Q263.34375 26.190624 262.89062 27.534374Q262.45312 28.8625 262.45312 30.26875Q262.45312 32.096874 262.98438 33.471874Q263.51562 34.83125 264.64062 35.503124Q265.76562 36.175 267.0625 36.175Q268.65625 36.175 269.76562 35.253124Q270.875 34.33125 271.26562 32.534374ZM281.59375 36.26875Q280.60938 37.096874 279.70312 37.440624Q278.79688 37.784374 277.76562 37.784374Q276.0625 37.784374 275.14062 36.95625Q274.21875 36.1125 274.21875 34.815624Q274.21875 34.05 274.5625 33.425Q274.92188 32.8 275.48438 32.425Q276.04688 32.034374 276.75 31.83125Q277.26562 31.70625 278.3125 31.565624Q280.4375 31.315624 281.4375 30.971874Q281.45312 30.6125 281.45312 30.503124Q281.45312 29.440624 280.95312 28.9875Q280.28125 28.39375 278.95312 28.39375Q277.70312 28.39375 277.10938 28.83125Q276.53125 29.26875 276.25 30.378124L274.53125 30.14375Q274.76562 29.034374 275.29688 28.3625Q275.82812 27.675 276.84375 27.315624Q277.85938 26.940624 279.20312 26.940624Q280.53125 26.940624 281.35938 27.253124Q282.1875 27.565624 282.57812 28.05Q282.96875 28.51875 283.125 29.2375Q283.21875 29.690624 283.21875 30.8625L283.21875 33.20625Q283.21875 35.659374 283.32812 36.315624Q283.4375 36.95625 283.78125 37.55L281.9375 37.55Q281.67188 37.003124 281.59375 36.26875ZM281.4375 32.346874Q280.48438 32.7375 278.5625 33.003124Q277.48438 33.159374 277.03125 33.3625Q276.59375 33.55 276.34375 33.925Q276.09375 34.3 276.09375 34.76875Q276.09375 35.471874 276.625 35.940624Q277.15625 36.409374 278.1875 36.409374Q279.20312 36.409374 279.98438 35.971874Q280.78125 35.51875 281.15625 34.753124Q281.4375 34.14375 281.4375 32.9875L281.4375 32.346874ZM289.65625 35.971874L289.90625 37.534374Q289.17188 37.690624 288.57812 37.690624Q287.625 37.690624 287.09375 37.39375Q286.57812 37.08125 286.35938 36.596874Q286.14062 36.096874 286.14062 34.51875L286.14062 28.55L284.85938 28.55L284.85938 27.175L286.14062 27.175L286.14062 24.6125L287.89062 23.55L287.89062 27.175L289.65625 27.175L289.65625 28.55L287.89062 28.55L287.89062 34.6125Q287.89062 35.3625 287.98438 35.58125Q288.07812 35.784374 288.28125 35.925Q288.5 36.05 288.89062 36.05Q289.17188 36.05 289.65625 35.971874ZM298.92188 34.20625L300.73438 34.440624Q300.3125 36.01875 299.14062 36.909374Q297.98438 37.784374 296.17188 37.784374Q293.90625 37.784374 292.5625 36.39375Q291.23438 34.9875 291.23438 32.45625Q291.23438 29.83125 292.57812 28.39375Q293.92188 26.940624 296.07812 26.940624Q298.15625 26.940624 299.46875 28.3625Q300.79688 29.76875 300.79688 32.346874Q300.79688 32.503124 300.78125 32.815624L293.04688 32.815624Q293.14062 34.51875 294.01562 35.425Q294.89062 36.33125 296.1875 36.33125Q297.15625 36.33125 297.82812 35.83125Q298.51562 35.315624 298.92188 34.20625ZM293.14062 31.3625L298.9375 31.3625Q298.82812 30.065624 298.28125 29.409374Q297.4375 28.39375 296.09375 28.39375Q294.89062 28.39375 294.0625 29.20625Q293.23438 30.003124 293.14062 31.3625ZM302.5 38.409374L304.20312 38.659374Q304.3125 39.45625 304.79688 39.815624Q305.45312 40.3 306.59375 40.3Q307.8125 40.3 308.46875 39.815624Q309.14062 39.33125 309.375 38.45625Q309.51562 37.909374 309.5 36.190624Q308.34375 37.55 306.625 37.55Q304.48438 37.55 303.3125 36.003124Q302.14062 34.45625 302.14062 32.3Q302.14062 30.815624 302.67188 29.565624Q303.21875 28.315624 304.23438 27.628124Q305.26562 26.940624 306.64062 26.940624Q308.46875 26.940624 309.67188 28.425L309.67188 27.175L311.28125 27.175L311.28125 36.14375Q311.28125 38.565624 310.78125 39.565624Q310.29688 40.58125 309.21875 41.159374Q308.15625 41.753124 306.59375 41.753124Q304.75 41.753124 303.59375 40.925Q302.45312 40.096874 302.5 38.409374ZM303.95312 32.175Q303.95312 34.221874 304.76562 35.159374Q305.57812 36.096874 306.79688 36.096874Q308.0 36.096874 308.8125 35.159374Q309.64062 34.221874 309.64062 32.2375Q309.64062 30.33125 308.79688 29.3625Q307.95312 28.39375 306.76562 28.39375Q305.59375 28.39375 304.76562 29.346874Q303.95312 30.3 303.95312 32.175ZM313.17188 32.3625Q313.17188 29.4875 314.76562 28.096874Q316.10938 26.940624 318.03125 26.940624Q320.17188 26.940624 321.51562 28.346874Q322.875 29.753124 322.875 32.221874Q322.875 34.221874 322.28125 35.378124Q321.6875 36.51875 320.53125 37.159374Q319.39062 37.784374 318.03125 37.784374Q315.84375 37.784374 314.5 36.39375Q313.17188 34.9875 313.17188 32.3625ZM314.96875 32.3625Q314.96875 34.3625 315.82812 35.346874Q316.70312 36.33125 318.03125 36.33125Q319.34375 36.33125 320.20312 35.346874Q321.07812 34.346874 321.07812 32.3Q321.07812 30.378124 320.20312 29.39375Q319.32812 28.39375 318.03125 28.39375Q316.70312 28.39375 315.82812 29.39375Q314.96875 30.378124 314.96875 32.3625ZM324.79688 37.55L324.79688 27.175L326.375 27.175L326.375 28.753124Q326.98438 27.64375 327.5 27.3Q328.01562 26.940624 328.625 26.940624Q329.51562 26.940624 330.4375 27.503124L329.82812 29.14375Q329.1875 28.753124 328.54688 28.753124Q327.96875 28.753124 327.5 29.1125Q327.04688 29.45625 326.84375 30.065624Q326.5625 31.003124 326.5625 32.1125L326.5625 37.55L324.79688 37.55ZM331.73438 41.55L331.54688 39.89375Q332.125 40.05 332.54688 40.05Q333.14062 40.05 333.48438 39.846874Q333.84375 39.659374 334.0625 39.315624Q334.23438 39.05 334.60938 38.003124Q334.65625 37.846874 334.76562 37.565624L330.82812 27.175L332.71875 27.175L334.875 33.190624Q335.29688 34.33125 335.625 35.58125Q335.9375 34.378124 336.34375 33.221874L338.5625 27.175L340.32812 27.175L336.375 37.721874Q335.75 39.440624 335.39062 40.08125Q334.92188 40.95625 334.3125 41.346874Q333.71875 41.753124 332.875 41.753124Q332.35938 41.753124 331.73438 41.55Z" fill-rule="nonzero"/></svg>