<svg version="1.1" viewBox="0.0 0.0 600.0 371.0" fill="none" stroke="none" stroke-linecap="square" stroke-miterlimit="10" width="600" height="371" xmlns:xlink="http://www.w3.org/1999/xlink" xmlns="http://www.w3.org/2000/svg"><path fill="#ffffff" fill-opacity="0.0" d="M0 0L600.0 0L600.0 371.0L0 371.0L0 0Z" fill-rule="nonzero"/><path fill="#e5a345" d="M183.68953 110.92883C211.91702 75.53269 254.72664 54.916668 300.0 54.916668L300.0 129.3C277.3633 129.3 255.95851 139.60802 241.84477 157.30608Z" fill-rule="nonzero"/><path fill="#78a94e" d="M235.45256 337.71747C194.66267 318.0741 165.03749 280.9253 154.96323 236.78703C144.88895 192.64877 155.46205 146.32497 183.68953 110.92883L241.84477 157.30608C227.73103 175.00415 222.44447 198.16605 227.48161 220.23518C232.51875 242.30432 247.33133 260.87872 267.7263 270.7004Z" fill-rule="nonzero"/><path fill="#b3ca48" d="M300.0 54.916668C361.1846 54.916668 416.12973 92.37764 438.48297 149.33276C460.8362 206.28789 446.0385 271.12094 401.18704 312.73703C356.33554 354.35312 290.57797 364.26447 235.45256 337.71747L267.7263 270.7004C295.28897 283.9739 328.1678 279.01822 350.5935 258.21017C373.01926 237.40213 380.41812 204.98561 369.2415 176.50806C358.06488 148.03049 330.5923 129.3 300.0 129.3Z" fill-rule="nonzero"/><path fill="#ffffff" d="M384.0276 231.63611L385.68384 231.49548Q385.87134 232.71423 386.5432 233.32361Q387.2151 233.93298 388.1682 233.93298Q389.30884 233.93298 390.0901 233.07361Q390.88696 232.21423 390.88696 230.77673Q390.88696 229.43298 390.12134 228.65173Q389.37134 227.87048 388.13696 227.87048Q387.37134 227.87048 386.74634 228.21423Q386.13696 228.55798 385.7932 229.12048L384.30884 228.91736L385.55884 222.30798L391.9651 222.30798L391.9651 223.80798L386.82446 223.80798L386.12134 227.27673Q387.2932 226.46423 388.55884 226.46423Q390.24634 226.46423 391.4026 227.63611Q392.57446 228.80798 392.57446 230.63611Q392.57446 232.38611 391.5432 233.66736Q390.30884 235.22986 388.1682 235.22986Q386.4026 235.22986 385.2932 234.24548Q384.18384 233.26111 384.0276 231.63611ZM394.13696 223.80798L394.13696 222.29236L402.4651 222.29236L402.4651 223.52673Q401.24634 224.83923 400.0276 227.01111Q398.82446 229.16736 398.1682 231.46423Q397.68384 233.08923 397.55884 235.01111L395.93384 235.01111Q395.9651 233.49548 396.5276 231.33923Q397.1057 229.18298 398.1682 227.18298Q399.2307 225.18298 400.43384 223.80798L394.13696 223.80798ZM404.9182 235.01111L404.9182 233.21423L406.7151 233.21423L406.7151 235.01111L404.9182 235.01111ZM414.9807 235.01111L413.4026 235.01111L413.4026 224.93298Q412.82446 225.47986 411.9026 226.02673Q410.9807 226.55798 410.2307 226.83923L410.2307 225.30798Q411.55884 224.68298 412.55884 223.79236Q413.55884 222.90173 413.9651 222.07361L414.9807 222.07361L414.9807 235.01111ZM419.32446 225.21423Q419.32446 223.83923 420.01196 222.87048Q420.7151 221.90173 422.0276 221.90173Q423.24634 221.90173 424.0432 222.77673Q424.8401 223.63611 424.8401 225.32361Q424.8401 226.94861 424.0276 227.83923Q423.2307 228.71423 422.0432 228.71423Q420.88696 228.71423 420.1057 227.85486Q419.32446 226.97986 419.32446 225.21423ZM422.07446 222.99548Q421.4807 222.99548 421.0901 223.51111Q420.69946 224.01111 420.69946 225.37048Q420.69946 226.62048 421.0901 227.12048Q421.49634 227.62048 422.07446 227.62048Q422.6682 227.62048 423.05884 227.12048Q423.44946 226.60486 423.44946 225.26111Q423.44946 224.01111 423.05884 223.51111Q422.6682 222.99548 422.07446 222.99548ZM422.0901 235.47986L429.13696 221.90173L430.4182 221.90173L423.38696 235.47986L422.0901 235.47986ZM427.6526 231.97986Q427.6526 230.60486 428.3401 229.63611Q429.0432 228.66736 430.37134 228.66736Q431.5901 228.66736 432.37134 229.54236Q433.1682 230.40173 433.1682 232.08923Q433.1682 233.71423 432.37134 234.60486Q431.57446 235.47986 430.38696 235.47986Q429.2151 235.47986 428.43384 234.60486Q427.6526 233.72986 427.6526 231.97986ZM430.4182 229.76111Q429.82446 229.76111 429.43384 230.27673Q429.0432 230.77673 429.0432 232.15173Q429.0432 233.37048 429.43384 233.88611Q429.82446 234.40173 430.4026 234.40173Q431.01196 234.40173 431.4026 233.88611Q431.7932 233.37048 431.7932 232.02673Q431.7932 230.77673 431.4026 230.27673Q431.01196 229.76111 430.4182 229.76111Z" fill-rule="nonzero"/><path fill="#ffffff" d="M174.78491 233.49548L174.78491 235.01111L166.26929 235.01111Q166.25366 234.43298 166.45679 233.91736Q166.78491 233.04236 167.48804 232.19861Q168.20679 231.35486 169.56616 230.24548Q171.65991 228.52673 172.39429 227.52673Q173.14429 226.51111 173.14429 225.62048Q173.14429 224.66736 172.47241 224.02673Q171.80054 223.38611 170.72241 223.38611Q169.56616 223.38611 168.87866 224.07361Q168.20679 224.76111 168.19116 225.96423L166.56616 225.79236Q166.73804 223.97986 167.81616 223.02673Q168.90991 222.07361 170.75366 222.07361Q172.59741 222.07361 173.67554 223.10486Q174.76929 224.13611 174.76929 225.65173Q174.76929 226.41736 174.44116 227.16736Q174.12866 227.91736 173.39429 228.74548Q172.65991 229.57361 170.95679 231.01111Q169.53491 232.21423 169.12866 232.63611Q168.72241 233.05798 168.47241 233.49548L174.78491 233.49548ZM178.90991 228.02673Q177.92554 227.66736 177.44116 226.99548Q176.97241 226.32361 176.97241 225.40173Q176.97241 223.99548 177.97241 223.04236Q178.98804 222.07361 180.67554 222.07361Q182.36304 222.07361 183.37866 223.05798Q184.40991 224.02673 184.40991 225.43298Q184.40991 226.33923 183.94116 227.01111Q183.47241 227.66736 182.51929 228.02673Q183.70679 228.41736 184.31616 229.27673Q184.94116 230.13611 184.94116 231.32361Q184.94116 232.97986 183.76929 234.10486Q182.59741 235.22986 180.69116 235.22986Q178.78491 235.22986 177.61304 234.10486Q176.45679 232.96423 176.45679 231.27673Q176.45679 230.02673 177.08179 229.18298Q177.72241 228.32361 178.90991 228.02673ZM178.58179 225.33923Q178.58179 226.26111 179.17554 226.83923Q179.76929 227.41736 180.70679 227.41736Q181.61304 227.41736 182.19116 226.83923Q182.78491 226.26111 182.78491 225.43298Q182.78491 224.55798 182.17554 223.96423Q181.58179 223.37048 180.69116 223.37048Q179.78491 223.37048 179.17554 223.94861Q178.58179 224.52673 178.58179 225.33923ZM178.08179 231.29236Q178.08179 231.96423 178.39429 232.60486Q178.72241 233.22986 179.34741 233.58923Q179.98804 233.93298 180.72241 233.93298Q181.84741 233.93298 182.58179 233.19861Q183.33179 232.46423 183.33179 231.33923Q183.33179 230.19861 182.56616 229.46423Q181.80054 228.71423 180.65991 228.71423Q179.55054 228.71423 178.81616 229.44861Q178.08179 230.18298 178.08179 231.29236ZM187.36304 235.01111L187.36304 233.21423L189.15991 233.21423L189.15991 235.01111L187.36304 235.01111ZM199.67554 225.27673L198.11304 225.40173Q197.89429 224.47986 197.50366 224.05798Q196.86304 223.37048 195.92554 223.37048Q195.17554 223.37048 194.59741 223.79236Q193.84741 224.33923 193.40991 225.38611Q192.98804 226.43298 192.97241 228.37048Q193.55054 227.49548 194.36304 227.07361Q195.19116 226.65173 196.09741 226.65173Q197.69116 226.65173 198.80054 227.82361Q199.90991 228.97986 199.90991 230.82361Q199.90991 232.04236 199.37866 233.08923Q198.86304 234.12048 197.94116 234.68298Q197.03491 235.22986 195.87866 235.22986Q193.89429 235.22986 192.64429 233.77673Q191.39429 232.32361 191.39429 228.97986Q191.39429 225.24548 192.78491 223.54236Q193.98804 222.07361 196.01929 222.07361Q197.55054 222.07361 198.51929 222.93298Q199.48804 223.77673 199.67554 225.27673ZM193.22241 230.83923Q193.22241 231.65173 193.56616 232.40173Q193.90991 233.15173 194.53491 233.54236Q195.15991 233.93298 195.84741 233.93298Q196.84741 233.93298 197.56616 233.12048Q198.28491 232.30798 198.28491 230.91736Q198.28491 229.58923 197.56616 228.82361Q196.86304 228.04236 195.78491 228.04236Q194.70679 228.04236 193.95679 228.82361Q193.22241 229.58923 193.22241 230.83923ZM201.76929 225.21423Q201.76929 223.83923 202.45679 222.87048Q203.15991 221.90173 204.47241 221.90173Q205.69116 221.90173 206.48804 222.77673Q207.28491 223.63611 207.28491 225.32361Q207.28491 226.94861 206.47241 227.83923Q205.67554 228.71423 204.48804 228.71423Q203.33179 228.71423 202.55054 227.85486Q201.76929 226.97986 201.76929 225.21423ZM204.51929 222.99548Q203.92554 222.99548 203.53491 223.51111Q203.14429 224.01111 203.14429 225.37048Q203.14429 226.62048 203.53491 227.12048Q203.94116 227.62048 204.51929 227.62048Q205.11304 227.62048 205.50366 227.12048Q205.89429 226.60486 205.89429 225.26111Q205.89429 224.01111 205.50366 223.51111Q205.11304 222.99548 204.51929 222.99548ZM204.53491 235.47986L211.58179 221.90173L212.86304 221.90173L205.83179 235.47986L204.53491 235.47986ZM210.09741 231.97986Q210.09741 230.60486 210.78491 229.63611Q211.48804 228.66736 212.81616 228.66736Q214.03491 228.66736 214.81616 229.54236Q215.61304 230.40173 215.61304 232.08923Q215.61304 233.71423 214.81616 234.60486Q214.01929 235.47986 212.83179 235.47986Q211.65991 235.47986 210.87866 234.60486Q210.09741 233.72986 210.09741 231.97986ZM212.86304 229.76111Q212.26929 229.76111 211.87866 230.27673Q211.48804 230.77673 211.48804 232.15173Q211.48804 233.37048 211.87866 233.88611Q212.26929 234.40173 212.84741 234.40173Q213.45679 234.40173 213.84741 233.88611Q214.23804 233.37048 214.23804 232.02673Q214.23804 230.77673 213.84741 230.27673Q213.45679 229.76111 212.86304 229.76111Z" fill-rule="nonzero"/><path fill="#ffffff" d="M232.79254 109.65773L231.21442 109.65773L231.21442 99.579605Q230.63629 100.12648 229.71442 100.673355Q228.79254 101.204605 228.04254 101.485855L228.04254 99.954605Q229.37067 99.329605 230.37067 98.43898Q231.37067 97.548355 231.77692 96.72023L232.79254 96.72023L232.79254 109.65773ZM241.90192 109.65773L241.90192 106.579605L236.32379 106.579605L236.32379 105.12648L242.19879 96.767105L243.49567 96.767105L243.49567 105.12648L245.23004 105.12648L245.23004 106.579605L243.49567 106.579605L243.49567 109.65773L241.90192 109.65773ZM241.90192 105.12648L241.90192 99.31398L237.87067 105.12648L241.90192 105.12648ZM247.73004 109.65773L247.73004 107.860855L249.52692 107.860855L249.52692 109.65773L247.73004 109.65773ZM251.83942 106.25148L253.43317 106.048355Q253.69879 107.392105 254.35504 107.985855Q255.01129 108.579605 255.94879 108.579605Q257.0738 108.579605 257.83942 107.81398Q258.60504 107.03273 258.60504 105.892105Q258.60504 104.798355 257.8863 104.09523Q257.18317 103.37648 256.08942 103.37648Q255.63629 103.37648 254.96442 103.56398L255.13629 102.173355Q255.29254 102.18898 255.40192 102.18898Q256.40192 102.18898 257.21442 101.65773Q258.02692 101.12648 258.02692 100.03273Q258.02692 99.15773 257.43317 98.59523Q256.83942 98.017105 255.91754 98.017105Q254.99567 98.017105 254.37067 98.59523Q253.76129 99.173355 253.58942 100.34523L252.01129 100.06398Q252.29254 98.47023 253.32379 97.59523Q254.35504 96.72023 255.88629 96.72023Q256.93317 96.72023 257.8238 97.173355Q258.71442 97.62648 259.18317 98.40773Q259.65192 99.18898 259.65192 100.06398Q259.65192 100.90773 259.1988 101.59523Q258.7613 102.267105 257.87067 102.673355Q259.0113 102.93898 259.6363 103.78273Q260.27692 104.610855 260.27692 105.84523Q260.27692 107.53273 259.04254 108.72023Q257.8238 109.892105 255.94879 109.892105Q254.24567 109.892105 253.12067 108.87648Q252.01129 107.860855 251.83942 106.25148ZM262.1363 99.860855Q262.1363 98.485855 262.8238 97.517105Q263.52692 96.548355 264.83942 96.548355Q266.05817 96.548355 266.85504 97.423355Q267.65192 98.28273 267.65192 99.97023Q267.65192 101.59523 266.83942 102.485855Q266.04254 103.360855 264.85504 103.360855Q263.6988 103.360855 262.91754 102.50148Q262.1363 101.62648 262.1363 99.860855ZM264.8863 97.642105Q264.29254 97.642105 263.90192 98.15773Q263.5113 98.65773 263.5113 100.017105Q263.5113 101.267105 263.90192 101.767105Q264.30817 102.267105 264.8863 102.267105Q265.48004 102.267105 265.87067 101.767105Q266.2613 101.25148 266.2613 99.90773Q266.2613 98.65773 265.87067 98.15773Q265.48004 97.642105 264.8863 97.642105ZM264.90192 110.12648L271.9488 96.548355L273.23004 96.548355L266.1988 110.12648L264.90192 110.12648ZM270.46442 106.62648Q270.46442 105.25148 271.15192 104.28273Q271.85504 103.31398 273.18317 103.31398Q274.40192 103.31398 275.18317 104.18898Q275.98004 105.048355 275.98004 106.735855Q275.98004 108.360855 275.18317 109.25148Q274.3863 110.12648 273.1988 110.12648Q272.02692 110.12648 271.24567 109.25148Q270.46442 108.37648 270.46442 106.62648ZM273.23004 104.40773Q272.6363 104.40773 272.24567 104.923355Q271.85504 105.423355 271.85504 106.798355Q271.85504 108.017105 272.24567 108.53273Q272.6363 109.048355 273.21442 109.048355Q273.8238 109.048355 274.21442 108.53273Q274.60504 108.017105 274.60504 106.673355Q274.60504 105.423355 274.21442 104.923355Q273.8238 104.40773 273.23004 104.40773Z" fill-rule="nonzero"/><path stroke="#ffffff" stroke-width="1.0" stroke-linejoin="round" stroke-linecap="round" d="M267.7263 270.7004C295.28897 283.9739 328.1678 279.01822 350.5935 258.21017C373.01926 237.40213 380.41812 204.98561 369.2415 176.50806C358.06488 148.03049 330.5923 129.3 300.0 129.3L300.0 54.916668C361.1846 54.916668 416.12973 92.37764 438.48297 149.33276C460.8362 206.28789 446.0385 271.12094 401.18704 312.73703C356.33554 354.35312 290.57797 364.26447 235.45256 337.71747" fill-rule="nonzero"/><path stroke="#ffffff" stroke-width="1.0" stroke-linejoin="round" stroke-linecap="round" d="M241.84477 157.30608C227.73103 175.00415 222.44447 198.16605 227.48161 220.23518C232.51875 242.30432 247.33133 260.87872 267.7263 270.7004L235.45256 337.71747C194.66267 318.0741 165.03749 280.9253 154.96323 236.78703C144.88895 192.64877 155.46205 146.32497 183.68953 110.92883" fill-rule="nonzero"/><path stroke="#ffffff" stroke-width="1.0" stroke-linejoin="round" stroke-linecap="round" d="M300.0 129.3C277.3633 129.3 255.95851 139.60802 241.84477 157.30608L183.68953 110.92883C211.91702 75.53269 254.72664 54.916668 300.0 54.916668" fill-rule="nonzero"/><path fill="#efefef" d="M22.70625 70.85091L22.70625 60.74153L18.925 60.74153L18.925 59.39778L28.003124 59.39778L28.003124 60.74153L24.221874 60.74153L24.221874 70.85091L22.70625 70.85091ZM35.284374 68.17903L36.7375 68.35091Q36.39375 69.63216 35.45625 70.33528Q34.534374 71.03841 33.096874 71.03841Q31.26875 71.03841 30.20625 69.91341Q29.14375 68.78841 29.14375 66.77278Q29.14375 64.67903 30.221874 63.52278Q31.3 62.36653 33.01875 62.36653Q34.675 62.36653 35.721874 63.507156Q36.784374 64.63216 36.784374 66.67903Q36.784374 66.80403 36.784374 67.05403L30.596874 67.05403Q30.675 68.42903 31.3625 69.16341Q32.065624 69.88216 33.096874 69.88216Q33.878124 69.88216 34.425 69.47591Q34.971874 69.06966 35.284374 68.17903ZM30.675 65.89778L35.3 65.89778Q35.20625 64.85091 34.76875 64.33528Q34.096874 63.52278 33.034374 63.52278Q32.065624 63.52278 31.39375 64.17903Q30.7375 64.81966 30.675 65.89778ZM37.675 70.85091L40.70625 66.53841L37.89375 62.55403L39.659374 62.55403L40.925 64.49153Q41.284374 65.05403 41.503124 65.42903Q41.846874 64.91341 42.14375 64.50716L43.534374 62.55403L45.221874 62.55403L42.346874 66.46028L45.440624 70.85091L43.70625 70.85091L42.003124 68.27278L41.55 67.56966L39.378124 70.85091L37.675 70.85091ZM49.675 69.58528L49.878124 70.83528Q49.284374 70.96028 48.815624 70.96028Q48.05 70.96028 47.628124 70.72591Q47.20625 70.47591 47.034374 70.08528Q46.8625 69.67903 46.8625 68.41341L46.8625 63.64778L45.83125 63.64778L45.83125 62.55403L46.8625 62.55403L46.8625 60.49153L48.26875 59.64778L48.26875 62.55403L49.675 62.55403L49.675 63.64778L48.26875 63.64778L48.26875 68.49153Q48.26875 69.10091 48.33125 69.27278Q48.409374 69.44466 48.58125 69.55403Q48.753124 69.64778 49.065624 69.64778Q49.3 69.64778 49.675 69.58528Z" fill-rule="nonzero"/><path fill="#9e9e9e" d="M24.51875 92.85091L23.1125 92.85091L23.1125 83.88216Q22.596874 84.36653 21.76875 84.85091Q20.95625 85.33528 20.3 85.58528L20.3 84.22591Q21.471874 83.66341 22.346874 82.88216Q23.2375 82.08528 23.6125 81.35091L24.51875 81.35091L24.51875 92.85091ZM32.721874 92.85091L32.721874 90.10091L27.753124 90.10091L27.753124 88.81966L32.9875 81.39778L34.128124 81.39778L34.128124 88.81966L35.675 88.81966L35.675 90.10091L34.128124 90.10091L34.128124 92.85091L32.721874 92.85091ZM32.721874 88.81966L32.721874 83.64778L29.14375 88.81966L32.721874 88.81966ZM38.003124 92.85091L38.003124 91.24153L39.6125 91.24153L39.6125 92.85091L38.003124 92.85091ZM41.221874 89.81966L42.628124 89.63216Q42.878124 90.83528 43.45625 91.36653Q44.034374 91.88216 44.878124 91.88216Q45.8625 91.88216 46.55 91.19466Q47.2375 90.50716 47.2375 89.49153Q47.2375 88.52278 46.596874 87.89778Q45.971874 87.27278 44.9875 87.27278Q44.596874 87.27278 44.003124 87.42903L44.159374 86.19466Q44.3 86.21028 44.378124 86.21028Q45.284374 86.21028 46.003124 85.74153Q46.721874 85.27278 46.721874 84.28841Q46.721874 83.52278 46.190624 83.02278Q45.675 82.50716 44.846874 82.50716Q44.01875 82.50716 43.471874 83.02278Q42.925 83.53841 42.76875 84.56966L41.3625 84.31966Q41.628124 82.89778 42.534374 82.13216Q43.45625 81.35091 44.815624 81.35091Q45.753124 81.35091 46.534374 81.75716Q47.33125 82.14778 47.7375 82.85091Q48.159374 83.53841 48.159374 84.31966Q48.159374 85.06966 47.753124 85.67903Q47.3625 86.28841 46.58125 86.64778Q47.596874 86.88216 48.159374 87.61653Q48.721874 88.35091 48.721874 89.46028Q48.721874 90.96028 47.628124 92.00716Q46.534374 93.05403 44.8625 93.05403Q43.3625 93.05403 42.3625 92.16341Q41.3625 91.25716 41.221874 89.81966ZM50.4875 84.14778Q50.4875 82.91341 51.096874 82.05403Q51.721874 81.19466 52.89375 81.19466Q53.971874 81.19466 54.675 81.97591Q55.378124 82.74153 55.378124 84.22591Q55.378124 85.67903 54.659374 86.47591Q53.95625 87.25716 52.909374 87.25716Q51.8625 87.25716 51.175 86.49153Q50.4875 85.71028 50.4875 84.14778ZM52.925 82.16341Q52.409374 82.16341 52.05 82.61653Q51.70625 83.06966 51.70625 84.28841Q51.70625 85.38216 52.05 85.83528Q52.409374 86.28841 52.925 86.28841Q53.45625 86.28841 53.8 85.83528Q54.159374 85.38216 54.159374 84.17903Q54.159374 83.06966 53.8 82.61653Q53.45625 82.16341 52.925 82.16341ZM52.940624 93.27278L59.20625 81.19466L60.346874 81.19466L54.096874 93.27278L52.940624 93.27278ZM57.89375 90.16341Q57.89375 88.92903 58.503124 88.06966Q59.128124 87.21028 60.3 87.21028Q61.378124 87.21028 62.08125 87.99153Q62.8 88.75716 62.8 90.24153Q62.8 91.69466 62.08125 92.49153Q61.3625 93.27278 60.315624 93.27278Q59.26875 93.27278 58.58125 92.49153Q57.89375 91.71028 57.89375 90.16341ZM60.346874 88.17903Q59.815624 88.17903 59.45625 88.63216Q59.1125 89.08528 59.1125 90.30403Q59.1125 91.39778 59.45625 91.85091Q59.815624 92.30403 60.33125 92.30403Q60.878124 92.30403 61.221874 91.85091Q61.565624 91.39778 61.565624 90.19466Q61.565624 89.08528 61.20625 88.63216Q60.8625 88.17903 60.346874 88.17903Z" fill-rule="nonzero"/><path stroke="#757575" stroke-width="1.0" stroke-linecap="butt" d="M18.55 76.35091L145.23334 76.35091L238.67993 76.35091" fill-rule="nonzero"/><path fill="#9e9e9e" d="M240.67993 76.35091C240.67993 75.24634 239.7845 74.35091 238.67993 74.35091C237.57536 74.35091 236.67993 75.24634 236.67993 76.35091C236.67993 77.455475 237.57536 78.35091 238.67993 78.35091C239.7845 78.35091 240.67993 77.455475 240.67993 76.35091" fill-rule="nonzero"/><path fill="#efefef" d="M18.51875 229.63185L22.925 218.17873L24.565624 218.17873L29.253124 229.63185L27.51875 229.63185L26.190624 226.1631L21.39375 226.1631L20.14375 229.63185L18.51875 229.63185ZM21.83125 224.92873L25.721874 224.92873L24.51875 221.75685Q23.971874 220.30373 23.70625 219.38185Q23.4875 220.4756 23.096874 221.56935L21.83125 224.92873ZM30.596874 229.63185L30.596874 221.33498L31.8625 221.33498L31.8625 222.58498Q32.346874 221.70998 32.753124 221.42873Q33.159374 221.14748 33.659374 221.14748Q34.3625 221.14748 35.096874 221.6006L34.6125 222.89748Q34.096874 222.6006 33.58125 222.6006Q33.128124 222.6006 32.753124 222.88185Q32.39375 223.14748 32.2375 223.64748Q32.003124 224.39748 32.003124 225.2881L32.003124 229.63185L30.596874 229.63185ZM41.01875 226.58498L42.409374 226.77248Q42.175 228.19435 41.2375 229.00685Q40.315624 229.81935 38.95625 229.81935Q37.253124 229.81935 36.20625 228.70998Q35.175 227.58498 35.175 225.50685Q35.175 224.1631 35.6125 223.1631Q36.065624 222.14748 36.971874 221.64748Q37.89375 221.14748 38.95625 221.14748Q40.315624 221.14748 41.175 221.83498Q42.034374 222.50685 42.26875 223.77248L40.909374 223.9756Q40.70625 223.14748 40.20625 222.7256Q39.721874 222.30373 39.01875 222.30373Q37.95625 222.30373 37.284374 223.06935Q36.628124 223.81935 36.628124 225.4756Q36.628124 227.14748 37.26875 227.9131Q37.909374 228.6631 38.940624 228.6631Q39.76875 228.6631 40.315624 228.1631Q40.878124 227.64748 41.01875 226.58498ZM43.6125 229.63185L43.6125 218.17873L45.01875 218.17873L45.01875 222.2881Q46.003124 221.14748 47.503124 221.14748Q48.425 221.14748 49.096874 221.50685Q49.784374 221.86623 50.065624 222.50685Q50.3625 223.14748 50.3625 224.36623L50.3625 229.63185L48.95625 229.63185L48.95625 224.36623Q48.95625 223.31935 48.503124 222.83498Q48.05 222.3506 47.20625 222.3506Q46.58125 222.3506 46.034374 222.67873Q45.4875 223.00685 45.253124 223.56935Q45.01875 224.11623 45.01875 225.08498L45.01875 229.63185L43.6125 229.63185ZM52.6125 219.7881L52.6125 218.17873L54.01875 218.17873L54.01875 219.7881L52.6125 219.7881ZM52.6125 229.63185L52.6125 221.33498L54.01875 221.33498L54.01875 229.63185L52.6125 229.63185ZM59.675 228.36623L59.878124 229.61623Q59.284374 229.74123 58.815624 229.74123Q58.05 229.74123 57.628124 229.50685Q57.20625 229.25685 57.034374 228.86623Q56.8625 228.45998 56.8625 227.19435L56.8625 222.42873L55.83125 222.42873L55.83125 221.33498L56.8625 221.33498L56.8625 219.27248L58.26875 218.42873L58.26875 221.33498L59.675 221.33498L59.675 222.42873L58.26875 222.42873L58.26875 227.27248Q58.26875 227.88185 58.33125 228.05373Q58.409374 228.2256 58.58125 228.33498Q58.753124 228.42873 59.065624 228.42873Q59.3 228.42873 59.675 228.36623ZM66.28438 226.95998L67.7375 227.13185Q67.39375 228.4131 66.45625 229.11623Q65.53438 229.81935 64.09688 229.81935Q62.26875 229.81935 61.20625 228.69435Q60.14375 227.56935 60.14375 225.55373Q60.14375 223.45998 61.221874 222.30373Q62.3 221.14748 64.01875 221.14748Q65.675 221.14748 66.72188 222.2881Q67.78438 223.4131 67.78438 225.45998Q67.78438 225.58498 67.78438 225.83498L61.596874 225.83498Q61.675 227.20998 62.3625 227.94435Q63.065624 228.6631 64.09688 228.6631Q64.87813 228.6631 65.425 228.25685Q65.97188 227.8506 66.28438 226.95998ZM61.675 224.67873L66.3 224.67873Q66.20625 223.63185 65.76875 223.11623Q65.09688 222.30373 64.03438 222.30373Q63.065624 222.30373 62.39375 222.95998Q61.7375 223.6006 61.675 224.67873ZM75.01875 226.58498L76.40938 226.77248Q76.175 228.19435 75.2375 229.00685Q74.31563 229.81935 72.95625 229.81935Q71.25313 229.81935 70.20625 228.70998Q69.175 227.58498 69.175 225.50685Q69.175 224.1631 69.6125 223.1631Q70.06563 222.14748 70.97188 221.64748Q71.89375 221.14748 72.95625 221.14748Q74.31563 221.14748 75.175 221.83498Q76.03438 222.50685 76.26875 223.77248L74.90938 223.9756Q74.70625 223.14748 74.20625 222.7256Q73.72188 222.30373 73.01875 222.30373Q71.95625 222.30373 71.28438 223.06935Q70.62813 223.81935 70.62813 225.4756Q70.62813 227.14748 71.26875 227.9131Q71.90938 228.6631 72.94063 228.6631Q73.76875 228.6631 74.31563 228.1631Q74.87813 227.64748 75.01875 226.58498ZM80.675 228.36623L80.87813 229.61623Q80.28438 229.74123 79.81563 229.74123Q79.05 229.74123 78.62813 229.50685Q78.20625 229.25685 78.03438 228.86623Q77.8625 228.45998 77.8625 227.19435L77.8625 222.42873L76.83125 222.42873L76.83125 221.33498L77.8625 221.33498L77.8625 219.27248L79.26875 218.42873L79.26875 221.33498L80.675 221.33498L80.675 222.42873L79.26875 222.42873L79.26875 227.27248Q79.26875 227.88185 79.33125 228.05373Q79.40938 228.2256 79.58125 228.33498Q79.75313 228.42873 80.06563 228.42873Q80.3 228.42873 80.675 228.36623ZM87.05 229.63185L87.05 228.4131Q86.08125 229.81935 84.40938 229.81935Q83.675 229.81935 83.03438 229.5381Q82.40938 229.25685 82.09688 228.83498Q81.78438 228.39748 81.65938 227.7881Q81.58125 227.36623 81.58125 226.4756L81.58125 221.33498L82.9875 221.33498L82.9875 225.92873Q82.9875 227.0381 83.06563 227.4131Q83.20625 227.9756 83.62813 228.2881Q84.06563 228.6006 84.69063 228.6006Q85.33125 228.6006 85.87813 228.2881Q86.44063 227.95998 86.65938 227.39748Q86.89375 226.83498 86.89375 225.77248L86.89375 221.33498L88.3 221.33498L88.3 229.63185L87.05 229.63185ZM90.59688 229.63185L90.59688 221.33498L91.8625 221.33498L91.8625 222.58498Q92.34688 221.70998 92.75313 221.42873Q93.15938 221.14748 93.65938 221.14748Q94.3625 221.14748 95.09688 221.6006L94.6125 222.89748Q94.09688 222.6006 93.58125 222.6006Q93.12813 222.6006 92.75313 222.88185Q92.39375 223.14748 92.2375 223.64748Q92.00313 224.39748 92.00313 225.2881L92.00313 229.63185L90.59688 229.63185ZM101.28438 226.95998L102.7375 227.13185Q102.39375 228.4131 101.45625 229.11623Q100.53438 229.81935 99.09688 229.81935Q97.26875 229.81935 96.20625 228.69435Q95.14375 227.56935 95.14375 225.55373Q95.14375 223.45998 96.22188 222.30373Q97.3 221.14748 99.01875 221.14748Q100.675 221.14748 101.72188 222.2881Q102.78438 223.4131 102.78438 225.45998Q102.78438 225.58498 102.78438 225.83498L96.59688 225.83498Q96.675 227.20998 97.3625 227.94435Q98.06563 228.6631 99.09688 228.6631Q99.87813 228.6631 100.425 228.25685Q100.97188 227.8506 101.28438 226.95998ZM96.675 224.67873L101.3 224.67873Q101.20625 223.63185 100.76875 223.11623Q100.09688 222.30373 99.03438 222.30373Q98.06563 222.30373 97.39375 222.95998Q96.7375 223.6006 96.675 224.67873ZM115.15938 228.27248Q114.45625 229.05373 113.62813 229.44435Q112.81563 229.83498 111.8625 229.83498Q110.1125 229.83498 109.08125 228.63185Q108.2375 227.6631 108.2375 226.4756Q108.2375 225.4131 108.925 224.55373Q109.6125 223.69435 110.97188 223.05373Q110.19063 222.1631 109.925 221.61623Q109.675 221.05373 109.675 220.5381Q109.675 219.50685 110.4875 218.74123Q111.3 217.9756 112.51875 217.9756Q113.69063 217.9756 114.44063 218.69435Q115.19063 219.4131 115.19063 220.42873Q115.19063 222.05373 113.01875 223.20998L115.08125 225.83498Q115.425 225.14748 115.62813 224.24123L117.08125 224.55373Q116.70625 226.05373 116.06563 227.02248Q116.8625 228.06935 117.8625 228.77248L116.90938 229.89748Q116.06563 229.3506 115.15938 228.27248ZM112.3 222.30373Q113.20625 221.77248 113.47188 221.36623Q113.75313 220.95998 113.75313 220.45998Q113.75313 219.88185 113.37813 219.50685Q113.00313 219.13185 112.45625 219.13185Q111.87813 219.13185 111.50313 219.50685Q111.12813 219.86623 111.12813 220.39748Q111.12813 220.6631 111.25313 220.95998Q111.39375 221.25685 111.675 221.58498L112.3 222.30373ZM114.26875 227.1631L111.69063 223.9756Q110.55 224.64748 110.14375 225.24123Q109.75313 225.81935 109.75313 226.38185Q109.75313 227.08498 110.3 227.83498Q110.8625 228.58498 111.87813 228.58498Q112.51875 228.58498 113.19063 228.19435Q113.8625 227.7881 114.26875 227.1631Z" fill-rule="nonzero"/><path fill="#9e9e9e" d="M26.6125 250.27248L26.6125 251.63185L19.034374 251.63185Q19.01875 251.11623 19.20625 250.64748Q19.4875 249.88185 20.128124 249.13185Q20.76875 248.38185 21.971874 247.39748Q23.83125 245.86623 24.4875 244.9756Q25.14375 244.06935 25.14375 243.27248Q25.14375 242.44435 24.55 241.86623Q23.95625 241.2881 22.9875 241.2881Q21.971874 241.2881 21.3625 241.89748Q20.753124 242.50685 20.753124 243.58498L19.3 243.44435Q19.45625 241.81935 20.425 240.9756Q21.39375 240.13185 23.01875 240.13185Q24.675 240.13185 25.628124 241.05373Q26.596874 241.95998 26.596874 243.30373Q26.596874 243.99123 26.315624 244.6631Q26.034374 245.31935 25.378124 246.05373Q24.721874 246.7881 23.20625 248.06935Q21.940624 249.13185 21.58125 249.52248Q21.221874 249.89748 20.9875 250.27248L26.6125 250.27248ZM30.378124 245.4131Q29.503124 245.1006 29.08125 244.50685Q28.659374 243.9131 28.659374 243.08498Q28.659374 241.83498 29.55 240.99123Q30.45625 240.13185 31.95625 240.13185Q33.45625 240.13185 34.3625 241.00685Q35.284374 241.86623 35.284374 243.11623Q35.284374 243.9131 34.8625 244.50685Q34.440624 245.1006 33.596874 245.4131Q34.64375 245.75685 35.190624 246.52248Q35.753124 247.2881 35.753124 248.3506Q35.753124 249.81935 34.70625 250.83498Q33.675 251.83498 31.971874 251.83498Q30.284374 251.83498 29.2375 250.83498Q28.20625 249.81935 28.20625 248.31935Q28.20625 247.19435 28.76875 246.44435Q29.33125 245.69435 30.378124 245.4131ZM30.096874 243.0381Q30.096874 243.8506 30.6125 244.36623Q31.14375 244.88185 31.9875 244.88185Q32.8 244.88185 33.315624 244.36623Q33.83125 243.8506 33.83125 243.11623Q33.83125 242.33498 33.3 241.81935Q32.76875 241.2881 31.971874 241.2881Q31.159374 241.2881 30.628124 241.80373Q30.096874 242.31935 30.096874 243.0381ZM29.64375 248.31935Q29.64375 248.92873 29.925 249.49123Q30.221874 250.05373 30.784374 250.36623Q31.346874 250.6631 31.9875 250.6631Q33.003124 250.6631 33.659374 250.02248Q34.315624 249.36623 34.315624 248.36623Q34.315624 247.3506 33.628124 246.69435Q32.95625 246.02248 31.940624 246.02248Q30.95625 246.02248 30.3 246.67873Q29.64375 247.33498 29.64375 248.31935ZM38.003124 251.63185L38.003124 250.02248L39.6125 250.02248L39.6125 251.63185L38.003124 251.63185ZM48.51875 242.9756L47.1125 243.08498Q46.925 242.25685 46.58125 241.88185Q46.01875 241.2881 45.175 241.2881Q44.503124 241.2881 44.003124 241.6631Q43.33125 242.14748 42.940624 243.08498Q42.565624 244.00685 42.55 245.7256Q43.065624 244.94435 43.8 244.56935Q44.534374 244.19435 45.33125 244.19435Q46.7375 244.19435 47.721874 245.24123Q48.721874 246.27248 48.721874 247.9131Q48.721874 248.99123 48.253124 249.9131Q47.784374 250.83498 46.971874 251.33498Q46.159374 251.83498 45.128124 251.83498Q43.378124 251.83498 42.26875 250.5381Q41.159374 249.24123 41.159374 246.27248Q41.159374 242.94435 42.378124 241.44435Q43.45625 240.13185 45.26875 240.13185Q46.6125 240.13185 47.471874 240.89748Q48.346874 241.64748 48.51875 242.9756ZM42.76875 247.9131Q42.76875 248.64748 43.08125 249.31935Q43.39375 249.9756 43.940624 250.31935Q44.503124 250.6631 45.1125 250.6631Q46.003124 250.6631 46.64375 249.94435Q47.284374 249.2256 47.284374 247.99123Q47.284374 246.80373 46.64375 246.13185Q46.01875 245.44435 45.05 245.44435Q44.096874 245.44435 43.425 246.13185Q42.76875 246.80373 42.76875 247.9131ZM50.4875 242.92873Q50.4875 241.69435 51.096874 240.83498Q51.721874 239.9756 52.89375 239.9756Q53.971874 239.9756 54.675 240.75685Q55.378124 241.52248 55.378124 243.00685Q55.378124 244.45998 54.659374 245.25685Q53.95625 246.0381 52.909374 246.0381Q51.8625 246.0381 51.175 245.27248Q50.4875 244.49123 50.4875 242.92873ZM52.925 240.94435Q52.409374 240.94435 52.05 241.39748Q51.70625 241.8506 51.70625 243.06935Q51.70625 244.1631 52.05 244.61623Q52.409374 245.06935 52.925 245.06935Q53.45625 245.06935 53.8 244.61623Q54.159374 244.1631 54.159374 242.95998Q54.159374 241.8506 53.8 241.39748Q53.45625 240.94435 52.925 240.94435ZM52.940624 252.05373L59.20625 239.9756L60.346874 239.9756L54.096874 252.05373L52.940624 252.05373ZM57.89375 248.94435Q57.89375 247.70998 58.503124 246.8506Q59.128124 245.99123 60.3 245.99123Q61.378124 245.99123 62.08125 246.77248Q62.8 247.5381 62.8 249.02248Q62.8 250.4756 62.08125 251.27248Q61.3625 252.05373 60.315624 252.05373Q59.26875 252.05373 58.58125 251.27248Q57.89375 250.49123 57.89375 248.94435ZM60.346874 246.95998Q59.815624 246.95998 59.45625 247.4131Q59.1125 247.86623 59.1125 249.08498Q59.1125 250.17873 59.45625 250.63185Q59.815624 251.08498 60.33125 251.08498Q60.878124 251.08498 61.221874 250.63185Q61.565624 250.17873 61.565624 248.9756Q61.565624 247.86623 61.20625 247.4131Q60.8625 246.95998 60.346874 246.95998Z" fill-rule="nonzero"/><path stroke="#757575" stroke-width="1.0" stroke-linecap="butt" d="M18.55 235.13185L145.23334 235.13185L162.21506 235.13185" fill-rule="nonzero"/><path fill="#9e9e9e" d="M164.21506 235.13185C164.21506 234.02728 163.31963 233.13185 162.21506 233.13185C161.11049 233.13185 160.21506 234.02728 160.21506 235.13185C160.21506 236.23642 161.11049 237.13185 162.21506 237.13185C163.31963 237.13185 164.21506 236.23642 164.21506 235.13185" fill-rule="nonzero"/><path fill="#efefef" d="M514.71564 229.63185L514.71564 218.17873L519.79376 218.17873Q521.325 218.17873 522.1219 218.49123Q522.91876 218.7881 523.3875 219.56935Q523.8719 220.3506 523.8719 221.30373Q523.8719 222.52248 523.075 223.36623Q522.29376 224.19435 520.6375 224.4131Q521.2469 224.70998 521.5594 224.99123Q522.21564 225.6006 522.8094 226.50685L524.8094 229.63185L522.90314 229.63185L521.3875 227.24123Q520.71564 226.20998 520.27814 225.6631Q519.85626 225.11623 519.5125 224.89748Q519.1844 224.67873 518.825 224.6006Q518.575 224.5381 517.98126 224.5381L516.23126 224.5381L516.23126 229.63185L514.71564 229.63185ZM516.23126 223.2256L519.48126 223.2256Q520.52814 223.2256 521.10626 223.02248Q521.7 222.80373 521.9969 222.33498Q522.3094 221.8506 522.3094 221.30373Q522.3094 220.49123 521.71564 219.9756Q521.1219 219.44435 519.85626 219.44435L516.23126 219.44435L516.23126 223.2256ZM532.1844 226.95998L533.6375 227.13185Q533.29376 228.4131 532.35626 229.11623Q531.4344 229.81935 529.9969 229.81935Q528.16876 229.81935 527.10626 228.69435Q526.04376 227.56935 526.04376 225.55373Q526.04376 223.45998 527.1219 222.30373Q528.2 221.14748 529.91876 221.14748Q531.575 221.14748 532.6219 222.2881Q533.6844 223.4131 533.6844 225.45998Q533.6844 225.58498 533.6844 225.83498L527.4969 225.83498Q527.575 227.20998 528.2625 227.94435Q528.96564 228.6631 529.9969 228.6631Q530.77814 228.6631 531.325 228.25685Q531.8719 227.8506 532.1844 226.95998ZM527.575 224.67873L532.2 224.67873Q532.10626 223.63185 531.66876 223.11623Q530.9969 222.30373 529.9344 222.30373Q528.96564 222.30373 528.29376 222.95998Q527.6375 223.6006 527.575 224.67873ZM535.48126 229.63185L535.48126 218.17873L536.8875 218.17873L536.8875 229.63185L535.48126 229.63185ZM539.5125 219.7881L539.5125 218.17873L540.91876 218.17873L540.91876 219.7881L539.5125 219.7881ZM539.5125 229.63185L539.5125 221.33498L540.91876 221.33498L540.91876 229.63185L539.5125 229.63185ZM543.2469 230.31935L544.6219 230.52248Q544.7 231.1631 545.09064 231.44435Q545.6219 231.83498 546.52814 231.83498Q547.4969 231.83498 548.02814 231.44435Q548.5594 231.05373 548.7469 230.3506Q548.85626 229.92873 548.85626 228.5381Q547.9344 229.63185 546.5594 229.63185Q544.84064 229.63185 543.90314 228.39748Q542.96564 227.1631 542.96564 225.42873Q542.96564 224.24123 543.3875 223.24123Q543.825 222.24123 544.6375 221.69435Q545.46564 221.14748 546.5594 221.14748Q548.02814 221.14748 548.98126 222.33498L548.98126 221.33498L550.27814 221.33498L550.27814 228.50685Q550.27814 230.44435 549.8875 231.25685Q549.4969 232.06935 548.6375 232.5381Q547.77814 233.00685 546.52814 233.00685Q545.04376 233.00685 544.1219 232.33498Q543.21564 231.6631 543.2469 230.31935ZM544.41876 225.33498Q544.41876 226.95998 545.0594 227.70998Q545.71564 228.45998 546.6844 228.45998Q547.65314 228.45998 548.3094 227.7256Q548.96564 226.9756 548.96564 225.38185Q548.96564 223.8506 548.29376 223.08498Q547.6219 222.30373 546.66876 222.30373Q545.73126 222.30373 545.075 223.06935Q544.41876 223.83498 544.41876 225.33498ZM552.5125 219.7881L552.5125 218.17873L553.91876 218.17873L553.91876 219.7881L552.5125 219.7881ZM552.5125 229.63185L552.5125 221.33498L553.91876 221.33498L553.91876 229.63185L552.5125 229.63185ZM555.98126 225.4756Q555.98126 223.17873 557.2625 222.06935Q558.34064 221.14748 559.8719 221.14748Q561.59064 221.14748 562.66876 222.27248Q563.7625 223.38185 563.7625 225.36623Q563.7625 226.95998 563.27814 227.88185Q562.79376 228.80373 561.8719 229.31935Q560.96564 229.81935 559.8719 229.81935Q558.1375 229.81935 557.0594 228.70998Q555.98126 227.58498 555.98126 225.4756ZM557.4344 225.4756Q557.4344 227.06935 558.1219 227.86623Q558.825 228.6631 559.8719 228.6631Q560.91876 228.6631 561.60626 227.86623Q562.3094 227.06935 562.3094 225.42873Q562.3094 223.89748 561.60626 223.1006Q560.91876 222.30373 559.8719 222.30373Q558.825 222.30373 558.1219 223.1006Q557.4344 223.88185 557.4344 225.4756ZM570.95 229.63185L570.95 228.4131Q569.98126 229.81935 568.3094 229.81935Q567.575 229.81935 566.9344 229.5381Q566.3094 229.25685 565.9969 228.83498Q565.6844 228.39748 565.5594 227.7881Q565.48126 227.36623 565.48126 226.4756L565.48126 221.33498L566.8875 221.33498L566.8875 225.92873Q566.8875 227.0381 566.96564 227.4131Q567.10626 227.9756 567.52814 228.2881Q567.96564 228.6006 568.59064 228.6006Q569.23126 228.6006 569.77814 228.2881Q570.34064 227.95998 570.5594 227.39748Q570.79376 226.83498 570.79376 225.77248L570.79376 221.33498L572.2 221.33498L572.2 229.63185L570.95 229.63185ZM573.95 227.14748L575.34064 226.92873Q575.45 227.77248 575.98126 228.2256Q576.52814 228.6631 577.48126 228.6631Q578.45 228.6631 578.91876 228.27248Q579.3875 227.86623 579.3875 227.33498Q579.3875 226.86623 578.98126 226.58498Q578.6844 226.39748 577.54376 226.11623Q575.9969 225.7256 575.3875 225.44435Q574.79376 225.14748 574.48126 224.64748Q574.1844 224.14748 574.1844 223.5381Q574.1844 222.9756 574.4344 222.50685Q574.6844 222.0381 575.1219 221.7256Q575.45 221.4756 576.0125 221.31935Q576.59064 221.14748 577.23126 221.14748Q578.21564 221.14748 578.95 221.42873Q579.6844 221.70998 580.02814 222.19435Q580.3875 222.6631 580.52814 223.4756L579.15314 223.6631Q579.0594 223.02248 578.60626 222.6631Q578.15314 222.30373 577.34064 222.30373Q576.3719 222.30373 575.95 222.63185Q575.54376 222.94435 575.54376 223.36623Q575.54376 223.64748 575.71564 223.86623Q575.8875 224.08498 576.2469 224.24123Q576.46564 224.31935 577.4969 224.6006Q578.98126 224.99123 579.575 225.25685Q580.16876 225.50685 580.4969 225.99123Q580.84064 226.4756 580.84064 227.19435Q580.84064 227.89748 580.41876 228.52248Q580.0125 229.13185 579.23126 229.4756Q578.46564 229.81935 577.4969 229.81935Q575.8719 229.81935 575.02814 229.14748Q574.1844 228.4756 573.95 227.14748Z" fill-rule="nonzero"/><path fill="#9e9e9e" d="M537.1219 248.63185L538.59064 248.50685Q538.7625 249.58498 539.35626 250.13185Q539.95 250.6631 540.79376 250.6631Q541.8094 250.6631 542.5125 249.89748Q543.21564 249.13185 543.21564 247.86623Q543.21564 246.6631 542.54376 245.9756Q541.8719 245.27248 540.77814 245.27248Q540.09064 245.27248 539.54376 245.58498Q538.9969 245.89748 538.6844 246.38185L537.3719 246.20998L538.48126 240.33498L544.16876 240.33498L544.16876 241.67873L539.60626 241.67873L538.98126 244.75685Q540.0125 244.0381 541.15314 244.0381Q542.65314 244.0381 543.6844 245.08498Q544.71564 246.11623 544.71564 247.74123Q544.71564 249.30373 543.8094 250.42873Q542.7 251.83498 540.79376 251.83498Q539.23126 251.83498 538.2469 250.95998Q537.2625 250.06935 537.1219 248.63185ZM546.21564 241.67873L546.21564 240.31935L553.6219 240.31935L553.6219 241.4131Q552.52814 242.58498 551.45 244.52248Q550.3875 246.44435 549.79376 248.4756Q549.3719 249.9131 549.2625 251.63185L547.8094 251.63185Q547.84064 250.27248 548.34064 248.36623Q548.85626 246.44435 549.79376 244.67873Q550.7469 242.89748 551.825 241.67873L546.21564 241.67873ZM555.90314 251.63185L555.90314 250.02248L557.5125 250.02248L557.5125 251.63185L555.90314 251.63185ZM564.41876 251.63185L563.0125 251.63185L563.0125 242.6631Q562.4969 243.14748 561.66876 243.63185Q560.85626 244.11623 560.2 244.36623L560.2 243.00685Q561.3719 242.44435 562.2469 241.6631Q563.1375 240.86623 563.5125 240.13185L564.41876 240.13185L564.41876 251.63185ZM568.3875 242.92873Q568.3875 241.69435 568.9969 240.83498Q569.6219 239.9756 570.79376 239.9756Q571.8719 239.9756 572.575 240.75685Q573.27814 241.52248 573.27814 243.00685Q573.27814 244.45998 572.5594 245.25685Q571.85626 246.0381 570.8094 246.0381Q569.7625 246.0381 569.075 245.27248Q568.3875 244.49123 568.3875 242.92873ZM570.825 240.94435Q570.3094 240.94435 569.95 241.39748Q569.60626 241.8506 569.60626 243.06935Q569.60626 244.1631 569.95 244.61623Q570.3094 245.06935 570.825 245.06935Q571.35626 245.06935 571.7 244.61623Q572.0594 244.1631 572.0594 242.95998Q572.0594 241.8506 571.7 241.39748Q571.35626 240.94435 570.825 240.94435ZM570.84064 252.05373L577.10626 239.9756L578.2469 239.9756L571.9969 252.05373L570.84064 252.05373ZM575.79376 248.94435Q575.79376 247.70998 576.40314 246.8506Q577.02814 245.99123 578.2 245.99123Q579.27814 245.99123 579.98126 246.77248Q580.7 247.5381 580.7 249.02248Q580.7 250.4756 579.98126 251.27248Q579.2625 252.05373 578.21564 252.05373Q577.16876 252.05373 576.48126 251.27248Q575.79376 250.49123 575.79376 248.94435ZM578.2469 246.95998Q577.71564 246.95998 577.35626 247.4131Q577.0125 247.86623 577.0125 249.08498Q577.0125 250.17873 577.35626 250.63185Q577.71564 251.08498 578.23126 251.08498Q578.77814 251.08498 579.1219 250.63185Q579.46564 250.17873 579.46564 248.9756Q579.46564 247.86623 579.10626 247.4131Q578.7625 246.95998 578.2469 246.95998Z" fill-rule="nonzero"/><path stroke="#757575" stroke-width="1.0" stroke-linecap="butt" d="M581.45 235.13185L454.76666 235.13185L437.78494 235.13185" fill-rule="nonzero"/><path fill="#9e9e9e" d="M439.78494 235.13185C439.78494 234.02728 438.8895 233.13185 437.78494 233.13185C436.68036 233.13185 435.78494 234.02728 435.78494 235.13185C435.78494 236.23642 436.68036 237.13185 437.78494 237.13185C438.8895 237.13185 439.78494 236.23642 439.78494 235.13185" fill-rule="nonzero"/><path fill="#f3f3f3" d="M271.26562 32.534374L273.15625 33.003124Q272.5625 35.346874 271.01562 36.58125Q269.46875 37.8 267.21875 37.8Q264.90625 37.8 263.45312 36.8625Q262.01562 35.909374 261.25 34.128124Q260.5 32.33125 260.5 30.284374Q260.5 28.05 261.34375 26.39375Q262.20312 24.721874 263.78125 23.8625Q265.35938 22.9875 267.25 22.9875Q269.40625 22.9875 270.85938 24.08125Q272.32812 25.175 272.90625 27.159374L271.04688 27.596874Q270.54688 26.034374 269.59375 25.33125Q268.65625 24.6125 267.21875 24.6125Q265.5625 24.6125 264.45312 25.409374Q263.34375 26.190624 262.89062 27.534374Q262.45312 28.8625 262.45312 30.26875Q262.45312 32.096874 262.98438 33.471874Q263.51562 34.83125 264.64062 35.503124Q265.76562 36.175 267.0625 36.175Q268.65625 36.175 269.76562 35.253124Q270.875 34.33125 271.26562 32.534374ZM281.59375 36.26875Q280.60938 37.096874 279.70312 37.440624Q278.79688 37.784374 277.76562 37.784374Q276.0625 37.784374 275.14062 36.95625Q274.21875 36.1125 274.21875 34.815624Q274.21875 34.05 274.5625 33.425Q274.92188 32.8 275.48438 32.425Q276.04688 32.034374 276.75 31.83125Q277.26562 31.70625 278.3125 31.565624Q280.4375 31.315624 281.4375 30.971874Q281.45312 30.6125 281.45312 30.503124Q281.45312 29.440624 280.95312 28.9875Q280.28125 28.39375 278.95312 28.39375Q277.70312 28.39375 277.10938 28.83125Q276.53125 29.26875 276.25 30.378124L274.53125 30.14375Q274.76562 29.034374 275.29688 28.3625Q275.82812 27.675 276.84375 27.315624Q277.85938 26.940624 279.20312 26.940624Q280.53125 26.940624 281.35938 27.253124Q282.1875 27.565624 282.57812 28.05Q282.96875 28.51875 283.125 29.2375Q283.21875 29.690624 283.21875 30.8625L283.21875 33.20625Q283.21875 35.659374 283.32812 36.315624Q283.4375 36.95625 283.78125 37.55L281.9375 37.55Q281.67188 37.003124 281.59375 36.26875ZM281.4375 32.346874Q280.48438 32.7375 278.5625 33.003124Q277.48438 33.159374 277.03125 33.3625Q276.59375 33.55 276.34375 33.925Q276.09375 34.3 276.09375 34.76875Q276.09375 35.471874 276.625 35.940624Q277.15625 36.409374 278.1875 36.409374Q279.20312 36.409374 279.98438 35.971874Q280.78125 35.51875 281.15625 34.753124Q281.4375 34.14375 281.4375 32.9875L281.4375 32.346874ZM289.65625 35.971874L289.90625 37.534374Q289.17188 37.690624 288.57812 37.690624Q287.625 37.690624 287.09375 37.39375Q286.57812 37.08125 286.35938 36.596874Q286.14062 36.096874 286.14062 34.51875L286.14062 28.55L284.85938 28.55L284.85938 27.175L286.14062 27.175L286.14062 24.6125L287.89062 23.55L287.89062 27.175L289.65625 27.175L289.65625 28.55L287.89062 28.55L287.89062 34.6125Q287.89062 35.3625 287.98438 35.58125Q288.07812 35.784374 288.28125 35.925Q288.5 36.05 288.89062 36.05Q289.17188 36.05 289.65625 35.971874ZM298.92188 34.20625L300.73438 34.440624Q300.3125 36.01875 299.14062 36.909374Q297.98438 37.784374 296.17188 37.784374Q293.90625 37.784374 292.5625 36.39375Q291.23438 34.9875 291.23438 32.45625Q291.23438 29.83125 292.57812 28.39375Q293.92188 26.940624 296.07812 26.940624Q298.15625 26.940624 299.46875 28.3625Q300.79688 29.76875 300.79688 32.346874Q300.79688 32.503124 300.78125 32.815624L293.04688 32.815624Q293.14062 34.51875 294.01562 35.425Q294.89062 36.33125 296.1875 36.33125Q297.15625 36.33125 297.82812 35.83125Q298.51562 35.315624 298.92188 34.20625ZM293.14062 31.3625L298.9375 31.3625Q298.82812 30.065624 298.28125 29.409374Q297.4375 28.39375 296.09375 28.39375Q294.89062 28.39375 294.0625 29.20625Q293.23438 30.003124 293.14062 31.3625ZM302.5 38.409374L304.20312 38.659374Q304.3125 39.45625 304.79688 39.815624Q305.45312 40.3 306.59375 40.3Q307.8125 40.3 308.46875 39.815624Q309.14062 39.33125 309.375 38.45625Q309.51562 37.909374 309.5 36.190624Q308.34375 37.55 306.625 37.55Q304.48438 37.55 303.3125 36.003124Q302.14062 34.45625 302.14062 32.3Q302.14062 30.815624 302.67188 29.565624Q303.21875 28.315624 304.23438 27.628124Q305.26562 26.940624 306.64062 26.940624Q308.46875 26.940624 309.67188 28.425L309.67188 27.175L311.28125 27.175L311.28125 36.14375Q311.28125 38.565624 310.78125 39.565624Q310.29688 40.58125 309.21875 41.159374Q308.15625 41.753124 306.59375 41.753124Q304.75 41.753124 303.59375 40.925Q302.45312 40.096874 302.5 38.409374ZM303.95312 32.175Q303.95312 34.221874 304.76562 35.159374Q305.57812 36.096874 306.79688 36.096874Q308.0 36.096874 308.8125 35.159374Q309.64062 34.221874 309.64062 32.2375Q309.64062 30.33125 308.79688 29.3625Q307.95312 28.39375 306.76562 28.39375Q305.59375 28.39375 304.76562 29.346874Q303.95312 30.3 303.95312 32.175ZM313.17188 32.3625Q313.17188 29.4875 314.76562 28.096874Q316.10938 26.940624 318.03125 26.940624Q320.17188 26.940624 321.51562 28.346874Q322.875 29.753124 322.875 32.221874Q322.875 34.221874 322.28125 35.378124Q321.6875 36.51875 320.53125 37.159374Q319.39062 37.784374 318.03125 37.784374Q315.84375 37.784374 314.5 36.39375Q313.17188 34.9875 313.17188 32.3625ZM314.96875 32.3625Q314.96875 34.3625 315.82812 35.346874Q316.70312 36.33125 318.03125 36.33125Q319.34375 36.33125 320.20312 35.346874Q321.07812 34.346874 321.07812 32.3Q321.07812 30.378124 320.20312 29.39375Q319.32812 28.39375 318.03125 28.39375Q316.70312 28.39375 315.82812 29.39375Q314.96875 30.378124 314.96875 32.3625ZM324.79688 37.55L324.79688 27.175L326.375 27.175L326.375 28.753124Q326.98438 27.64375 327.5 27.3Q328.01562 26.940624 328.625 26.940624Q329.51562 26.940624 330.4375 27.503124L329.82812 29.14375Q329.1875 28.753124 328.54688 28.753124Q327.96875 28.753124 327.5 29.1125Q327.04688 29.45625 326.84375 30.065624Q326.5625 31.003124 326.5625 32.1125L326.5625 37.55L324.79688 37.55ZM331.73438 41.55L331.54688 39.89375Q332.125 40.05 332.54688 40.05Q333.14062 40.05 333.48438 39.846874Q333.84375 39.659374 334.0625 39.315624Q334.23438 39.05 334.60938 38.003124Q334.65625 37.846874 334.76562 37.565624L330.82812 27.175L332.71875 27.175L334.875 33.190624Q335.29688 34.33125 335.625 35.58125Q335.9375 34.378124 336.34375 33.221874L338.5625 27.175L340.32812 27.175L336.375 37.721874Q335.75 39.440624 335.39062 40.08125Q334.92188 40.95625 334.3125 41.346874Q333.71875 41.753124 332.875 41.753124Q332.35938 41.753124 331.73438 41.55Z" fill-rule="nonzero"/></svg>