<svg version="1.1" viewBox="0.0 0.0 600.0 371.0" fill="none" stroke="none" stroke-linecap="square" stroke-miterlimit="10" width="600" height="371" xmlns:xlink="http://www.w3.org/1999/xlink" xmlns="http://www.w3.org/2000/svg"><path fill="#ffffff" fill-opacity="0.0" d="M0 0L600.0 0L600.0 371.0L0 371.0L0 0Z" fill-rule="nonzero"/><path fill="#313d89" d="M300.0 54.916668C345.27335 54.916668 388.08298 75.53269 416.31046 110.92883L329.0776 180.4947C322.02075 171.64568 311.31833 166.49167 300.0 166.49167Z" fill-rule="nonzero"/><path fill="#533990" d="M416.31046 110.92883C444.53793 146.32497 455.11105 192.64877 445.03677 236.78703L336.2592 211.95926C338.77777 200.9247 336.1345 189.34375 329.0776 180.4947Z" fill-rule="nonzero"/><path fill="#b5428d" d="M445.03677 236.78703C438.384 265.93472 423.1033 292.4017 401.18704 312.73703L325.29675 230.94675C330.77582 225.86293 334.596 219.24619 336.2592 211.95926Z" fill-rule="nonzero"/><path fill="#e5a345" d="M216.19675 80.76655C240.89905 63.9248 270.10272 54.916668 300.0 54.916668L300.0 166.49167C292.52567 166.49167 285.22476 168.7437 279.0492 172.95413Z" fill-rule="nonzero"/><path fill="#d8753e" d="M161.51701 149.33276C172.43973 121.50217 191.49445 97.60829 216.19675 80.76655L279.0492 172.95413C272.87363 177.16457 268.10992 183.13805 265.37924 190.09569Z" fill-rule="nonzero"/><path fill="#cf4366" d="M401.18704 312.73703C350.30765 359.94617 273.544 365.69882 216.19675 326.60013C158.84949 287.50143 136.15956 213.94249 161.51701 149.33276L265.37924 190.09569C259.0399 206.24812 264.71237 224.63786 279.0492 234.41254C293.38602 244.18721 312.5769 242.74904 325.29675 230.94675Z" fill-rule="nonzero"/><path fill="#ffffff" d="M327.28397 114.495476L325.70584 114.495476L325.70584 104.41735Q325.12772 104.964226 324.20584 105.5111Q323.28397 106.04235 322.53397 106.3236L322.53397 104.79235Q323.8621 104.16735 324.8621 103.276726Q325.8621 102.3861 326.26834 101.557976L327.28397 101.557976L327.28397 114.495476ZM336.39334 114.495476L336.39334 111.41735L330.81522 111.41735L330.81522 109.964226L336.69022 101.60485L337.9871 101.60485L337.9871 109.964226L339.72147 109.964226L339.72147 111.41735L337.9871 111.41735L337.9871 114.495476L336.39334 114.495476ZM336.39334 109.964226L336.39334 104.151726L332.3621 109.964226L336.39334 109.964226ZM342.22147 114.495476L342.22147 112.6986L344.01834 112.6986L344.01834 114.495476L342.22147 114.495476ZM346.33084 111.089226L347.9246 110.8861Q348.19022 112.22985 348.84647 112.8236Q349.50272 113.41735 350.44022 113.41735Q351.56522 113.41735 352.33084 112.651726Q353.09647 111.870476 353.09647 110.72985Q353.09647 109.6361 352.37772 108.932976Q351.6746 108.214226 350.58084 108.214226Q350.12772 108.214226 349.45584 108.401726L349.62772 107.0111Q349.78397 107.026726 349.89334 107.026726Q350.89334 107.026726 351.70584 106.495476Q352.51834 105.964226 352.51834 104.870476Q352.51834 103.995476 351.9246 103.432976Q351.33084 102.85485 350.40897 102.85485Q349.4871 102.85485 348.8621 103.432976Q348.25272 104.0111 348.08084 105.182976L346.50272 104.901726Q346.78397 103.307976 347.81522 102.432976Q348.84647 101.557976 350.37772 101.557976Q351.4246 101.557976 352.31522 102.0111Q353.20584 102.464226 353.6746 103.245476Q354.14334 104.026726 354.14334 104.901726Q354.14334 105.745476 353.69022 106.432976Q353.25272 107.10485 352.3621 107.5111Q353.50272 107.776726 354.12772 108.620476Q354.76834 109.4486 354.76834 110.682976Q354.76834 112.370476 353.53397 113.557976Q352.31522 114.72985 350.44022 114.72985Q348.7371 114.72985 347.6121 113.714226Q346.50272 112.6986 346.33084 111.089226ZM356.62772 104.6986Q356.62772 103.3236 357.31522 102.35485Q358.01834 101.3861 359.33084 101.3861Q360.5496 101.3861 361.34647 102.2611Q362.14334 103.120476 362.14334 104.807976Q362.14334 106.432976 361.33084 107.3236Q360.53397 108.1986 359.34647 108.1986Q358.19022 108.1986 357.40897 107.339226Q356.62772 106.464226 356.62772 104.6986ZM359.37772 102.47985Q358.78397 102.47985 358.39334 102.995476Q358.00272 103.495476 358.00272 104.85485Q358.00272 106.10485 358.39334 106.60485Q358.7996 107.10485 359.37772 107.10485Q359.97147 107.10485 360.3621 106.60485Q360.75272 106.089226 360.75272 104.745476Q360.75272 103.495476 360.3621 102.995476Q359.97147 102.47985 359.37772 102.47985ZM359.39334 114.964226L366.44022 101.3861L367.72147 101.3861L360.69022 114.964226L359.39334 114.964226ZM364.95584 111.464226Q364.95584 110.089226 365.64334 109.120476Q366.34647 108.151726 367.6746 108.151726Q368.89334 108.151726 369.6746 109.026726Q370.47147 109.8861 370.47147 111.5736Q370.47147 113.1986 369.6746 114.089226Q368.87772 114.964226 367.69022 114.964226Q366.51834 114.964226 365.7371 114.089226Q364.95584 113.214226 364.95584 111.464226ZM367.72147 109.245476Q367.12772 109.245476 366.7371 109.7611Q366.34647 110.2611 366.34647 111.6361Q366.34647 112.85485 366.7371 113.370476Q367.12772 113.8861 367.70584 113.8861Q368.31522 113.8861 368.70584 113.370476Q369.09647 112.85485 369.09647 111.5111Q369.09647 110.2611 368.70584 109.7611Q368.31522 109.245476 367.72147 109.245476Z" fill-rule="nonzero"/><path fill="#ffffff" d="M381.54153 187.28175L379.9634 187.28175L379.9634 177.20363Q379.38528 177.7505 378.4634 178.29738Q377.54153 178.82863 376.79153 179.10988L376.79153 177.57863Q378.11966 176.95363 379.11966 176.063Q380.11966 175.17238 380.5259 174.34425L381.54153 174.34425L381.54153 187.28175ZM390.6509 187.28175L390.6509 184.20363L385.07278 184.20363L385.07278 182.7505L390.94778 174.39113L392.24466 174.39113L392.24466 182.7505L393.97903 182.7505L393.97903 184.20363L392.24466 184.20363L392.24466 187.28175L390.6509 187.28175ZM390.6509 182.7505L390.6509 176.938L386.61966 182.7505L390.6509 182.7505ZM396.47903 187.28175L396.47903 185.48488L398.2759 185.48488L398.2759 187.28175L396.47903 187.28175ZM400.5884 183.8755L402.18216 183.67238Q402.44778 185.01613 403.10403 185.60988Q403.76028 186.20363 404.69778 186.20363Q405.82278 186.20363 406.5884 185.438Q407.35403 184.65675 407.35403 183.51613Q407.35403 182.42238 406.63528 181.71925Q405.93216 181.0005 404.8384 181.0005Q404.38528 181.0005 403.7134 181.188L403.88528 179.79738Q404.04153 179.813 404.1509 179.813Q405.1509 179.813 405.9634 179.28175Q406.7759 178.7505 406.7759 177.65675Q406.7759 176.78175 406.18216 176.21925Q405.5884 175.64113 404.66653 175.64113Q403.74466 175.64113 403.11966 176.21925Q402.51028 176.79738 402.3384 177.96925L400.76028 177.688Q401.04153 176.09425 402.07278 175.21925Q403.10403 174.34425 404.63528 174.34425Q405.68216 174.34425 406.57278 174.79738Q407.4634 175.2505 407.93216 176.03175Q408.4009 176.813 408.4009 177.688Q408.4009 178.53175 407.94778 179.21925Q407.51028 179.89113 406.61966 180.29738Q407.76028 180.563 408.38528 181.40675Q409.0259 182.23488 409.0259 183.46925Q409.0259 185.15675 407.79153 186.34425Q406.57278 187.51613 404.69778 187.51613Q402.99466 187.51613 401.86966 186.5005Q400.76028 185.48488 400.5884 183.8755ZM410.88528 177.48488Q410.88528 176.10988 411.57278 175.14113Q412.2759 174.17238 413.5884 174.17238Q414.80716 174.17238 415.60403 175.04738Q416.4009 175.90675 416.4009 177.59425Q416.4009 179.21925 415.5884 180.10988Q414.79153 180.98488 413.60403 180.98488Q412.44778 180.98488 411.66653 180.1255Q410.88528 179.2505 410.88528 177.48488ZM413.63528 175.26613Q413.04153 175.26613 412.6509 175.78175Q412.26028 176.28175 412.26028 177.64113Q412.26028 178.89113 412.6509 179.39113Q413.05716 179.89113 413.63528 179.89113Q414.22903 179.89113 414.61966 179.39113Q415.01028 178.8755 415.01028 177.53175Q415.01028 176.28175 414.61966 175.78175Q414.22903 175.26613 413.63528 175.26613ZM413.6509 187.7505L420.69778 174.17238L421.97903 174.17238L414.94778 187.7505L413.6509 187.7505ZM419.2134 184.2505Q419.2134 182.8755 419.9009 181.90675Q420.60403 180.938 421.93216 180.938Q423.1509 180.938 423.93216 181.813Q424.72903 182.67238 424.72903 184.35988Q424.72903 185.98488 423.93216 186.8755Q423.13528 187.7505 421.94778 187.7505Q420.7759 187.7505 419.99466 186.8755Q419.2134 186.0005 419.2134 184.2505ZM421.97903 182.03175Q421.38528 182.03175 420.99466 182.54738Q420.60403 183.04738 420.60403 184.42238Q420.60403 185.64113 420.99466 186.15675Q421.38528 186.67238 421.9634 186.67238Q422.57278 186.67238 422.9634 186.15675Q423.35403 185.64113 423.35403 184.29738Q423.35403 183.04738 422.9634 182.54738Q422.57278 182.03175 421.97903 182.03175Z" fill-rule="nonzero"/><path fill="#ffffff" d="M371.74564 259.88867L373.26126 259.74805Q373.4644 260.82617 373.99564 261.31055Q374.5425 261.79492 375.4019 261.79492Q376.13626 261.79492 376.68314 261.4668Q377.23 261.12305 377.57376 260.57617Q377.93314 260.01367 378.1675 259.06055Q378.4019 258.10742 378.4019 257.12305Q378.4019 257.01367 378.4019 256.81055Q377.9175 257.56055 377.0894 258.0293Q376.2769 258.49805 375.32376 258.49805Q373.73 258.49805 372.62064 257.3418Q371.51126 256.18555 371.51126 254.2793Q371.51126 252.32617 372.6675 251.13867Q373.82376 249.93555 375.55814 249.93555Q376.82376 249.93555 377.855 250.62305Q378.9019 251.29492 379.43314 252.54492Q379.98 253.79492 379.98 256.16992Q379.98 258.63867 379.43314 260.10742Q378.9019 261.56055 377.8394 262.32617Q376.7925 263.0918 375.37064 263.0918Q373.855 263.0918 372.88626 262.26367Q371.93314 261.41992 371.74564 259.88867ZM378.23 254.20117Q378.23 252.8418 377.49564 252.04492Q376.7769 251.24805 375.76126 251.24805Q374.69876 251.24805 373.9175 252.10742Q373.13626 252.9668 373.13626 254.3418Q373.13626 255.57617 373.87064 256.3418Q374.62064 257.10742 375.7144 257.10742Q376.80814 257.10742 377.51126 256.3418Q378.23 255.57617 378.23 254.20117ZM382.4019 262.87305L382.4019 261.07617L384.19876 261.07617L384.19876 262.87305L382.4019 262.87305ZM386.51126 259.49805L388.1675 259.35742Q388.355 260.57617 389.0269 261.18555Q389.69876 261.79492 390.6519 261.79492Q391.7925 261.79492 392.57376 260.93555Q393.37064 260.07617 393.37064 258.63867Q393.37064 257.29492 392.605 256.51367Q391.855 255.73242 390.62064 255.73242Q389.855 255.73242 389.23 256.07617Q388.62064 256.41992 388.2769 256.98242L386.7925 256.7793L388.0425 250.16992L394.44876 250.16992L394.44876 251.66992L389.30814 251.66992L388.605 255.13867Q389.7769 254.32617 391.0425 254.32617Q392.73 254.32617 393.88626 255.49805Q395.05814 256.66992 395.05814 258.49805Q395.05814 260.24805 394.0269 261.5293Q392.7925 263.0918 390.6519 263.0918Q388.88626 263.0918 387.7769 262.10742Q386.6675 261.12305 386.51126 259.49805ZM396.80814 253.07617Q396.80814 251.70117 397.49564 250.73242Q398.19876 249.76367 399.51126 249.76367Q400.73 249.76367 401.5269 250.63867Q402.32376 251.49805 402.32376 253.18555Q402.32376 254.81055 401.51126 255.70117Q400.7144 256.57617 399.5269 256.57617Q398.37064 256.57617 397.5894 255.7168Q396.80814 254.8418 396.80814 253.07617ZM399.55814 250.85742Q398.9644 250.85742 398.57376 251.37305Q398.18314 251.87305 398.18314 253.23242Q398.18314 254.48242 398.57376 254.98242Q398.98 255.48242 399.55814 255.48242Q400.1519 255.48242 400.5425 254.98242Q400.93314 254.4668 400.93314 253.12305Q400.93314 251.87305 400.5425 251.37305Q400.1519 250.85742 399.55814 250.85742ZM399.57376 263.3418L406.62064 249.76367L407.9019 249.76367L400.87064 263.3418L399.57376 263.3418ZM405.13626 259.8418Q405.13626 258.4668 405.82376 257.49805Q406.5269 256.5293 407.855 256.5293Q409.07376 256.5293 409.855 257.4043Q410.6519 258.26367 410.6519 259.95117Q410.6519 261.57617 409.855 262.4668Q409.05814 263.3418 407.87064 263.3418Q406.69876 263.3418 405.9175 262.4668Q405.13626 261.5918 405.13626 259.8418ZM407.9019 257.62305Q407.30814 257.62305 406.9175 258.13867Q406.5269 258.63867 406.5269 260.01367Q406.5269 261.23242 406.9175 261.74805Q407.30814 262.26367 407.88626 262.26367Q408.49564 262.26367 408.88626 261.74805Q409.2769 261.23242 409.2769 259.88867Q409.2769 258.63867 408.88626 258.13867Q408.49564 257.62305 407.9019 257.62305Z" fill-rule="nonzero"/><path fill="#ffffff" d="M221.82425 295.96985L221.82425 292.89172L216.24612 292.89172L216.24612 291.4386L222.12112 283.07922L223.418 283.07922L223.418 291.4386L225.15237 291.4386L225.15237 292.89172L223.418 292.89172L223.418 295.96985L221.82425 295.96985ZM221.82425 291.4386L221.82425 285.6261L217.793 291.4386L221.82425 291.4386ZM235.07425 294.45422L235.07425 295.96985L226.55862 295.96985Q226.543 295.39172 226.74612 294.8761Q227.07425 294.0011 227.77737 293.15735Q228.49612 292.3136 229.8555 291.20422Q231.94925 289.48547 232.68362 288.48547Q233.43362 287.46985 233.43362 286.57922Q233.43362 285.6261 232.76175 284.98547Q232.08987 284.34485 231.01175 284.34485Q229.8555 284.34485 229.168 285.03235Q228.49612 285.71985 228.4805 286.92297L226.8555 286.7511Q227.02737 284.9386 228.1055 283.98547Q229.19925 283.03235 231.043 283.03235Q232.88675 283.03235 233.96487 284.0636Q235.05862 285.09485 235.05862 286.61047Q235.05862 287.3761 234.7305 288.1261Q234.418 288.8761 233.68362 289.70422Q232.94925 290.53235 231.24612 291.96985Q229.82425 293.17297 229.418 293.59485Q229.01175 294.01672 228.76175 294.45422L235.07425 294.45422ZM237.65237 295.96985L237.65237 294.17297L239.44925 294.17297L239.44925 295.96985L237.65237 295.96985ZM241.99612 292.98547L243.51175 292.84485Q243.71487 293.92297 244.24612 294.40735Q244.793 294.89172 245.65237 294.89172Q246.38675 294.89172 246.93362 294.5636Q247.4805 294.21985 247.82425 293.67297Q248.18362 293.11047 248.418 292.15735Q248.65237 291.20422 248.65237 290.21985Q248.65237 290.11047 248.65237 289.90735Q248.168 290.65735 247.33987 291.1261Q246.52737 291.59485 245.57425 291.59485Q243.9805 291.59485 242.87112 290.4386Q241.76175 289.28235 241.76175 287.3761Q241.76175 285.42297 242.918 284.23547Q244.07425 283.03235 245.80862 283.03235Q247.07425 283.03235 248.1055 283.71985Q249.15237 284.39172 249.68362 285.64172Q250.2305 286.89172 250.2305 289.26672Q250.2305 291.73547 249.68362 293.20422Q249.15237 294.65735 248.08987 295.42297Q247.043 296.1886 245.62112 296.1886Q244.1055 296.1886 243.13675 295.36047Q242.18362 294.51672 241.99612 292.98547ZM248.4805 287.29797Q248.4805 285.9386 247.74612 285.14172Q247.02737 284.34485 246.01175 284.34485Q244.94925 284.34485 244.168 285.20422Q243.38675 286.0636 243.38675 287.4386Q243.38675 288.67297 244.12112 289.4386Q244.87112 290.20422 245.96487 290.20422Q247.05862 290.20422 247.76175 289.4386Q248.4805 288.67297 248.4805 287.29797ZM252.05862 286.17297Q252.05862 284.79797 252.74612 283.82922Q253.44925 282.86047 254.76175 282.86047Q255.9805 282.86047 256.77737 283.73547Q257.57425 284.59485 257.57425 286.28235Q257.57425 287.90735 256.76175 288.79797Q255.96487 289.67297 254.77737 289.67297Q253.62112 289.67297 252.83987 288.8136Q252.05862 287.9386 252.05862 286.17297ZM254.80862 283.95422Q254.21487 283.95422 253.82425 284.46985Q253.43362 284.96985 253.43362 286.32922Q253.43362 287.57922 253.82425 288.07922Q254.2305 288.57922 254.80862 288.57922Q255.40237 288.57922 255.793 288.07922Q256.18362 287.5636 256.18362 286.21985Q256.18362 284.96985 255.793 284.46985Q255.40237 283.95422 254.80862 283.95422ZM254.82425 296.4386L261.87112 282.86047L263.15237 282.86047L256.12112 296.4386L254.82425 296.4386ZM260.38675 292.9386Q260.38675 291.5636 261.07425 290.59485Q261.77737 289.6261 263.1055 289.6261Q264.32425 289.6261 265.1055 290.5011Q265.90237 291.36047 265.90237 293.04797Q265.90237 294.67297 265.1055 295.5636Q264.30862 296.4386 263.12112 296.4386Q261.94925 296.4386 261.168 295.5636Q260.38675 294.6886 260.38675 292.9386ZM263.15237 290.71985Q262.55862 290.71985 262.168 291.23547Q261.77737 291.73547 261.77737 293.11047Q261.77737 294.32922 262.168 294.84485Q262.55862 295.36047 263.13675 295.36047Q263.74612 295.36047 264.13675 294.84485Q264.52737 294.32922 264.52737 292.98547Q264.52737 291.73547 264.13675 291.23547Q263.74612 290.71985 263.15237 290.71985Z" fill-rule="nonzero"/><path fill="#ffffff" d="M198.1814 141.56451L199.69702 141.42389Q199.90015 142.50201 200.4314 142.98639Q200.97827 143.47076 201.83765 143.47076Q202.57202 143.47076 203.1189 143.14264Q203.66577 142.79889 204.00952 142.25201Q204.3689 141.68951 204.60327 140.73639Q204.83765 139.78326 204.83765 138.79889Q204.83765 138.68951 204.83765 138.48639Q204.35327 139.23639 203.52515 139.70514Q202.71265 140.17389 201.75952 140.17389Q200.16577 140.17389 199.0564 139.01764Q197.94702 137.86139 197.94702 135.95514Q197.94702 134.00201 199.10327 132.81451Q200.25952 131.61139 201.9939 131.61139Q203.25952 131.61139 204.29077 132.29889Q205.33765 132.97076 205.8689 134.22076Q206.41577 135.47076 206.41577 137.84576Q206.41577 140.31451 205.8689 141.78326Q205.33765 143.23639 204.27515 144.00201Q203.22827 144.76764 201.8064 144.76764Q200.29077 144.76764 199.32202 143.93951Q198.3689 143.09576 198.1814 141.56451ZM204.66577 135.87701Q204.66577 134.51764 203.9314 133.72076Q203.21265 132.92389 202.19702 132.92389Q201.13452 132.92389 200.35327 133.78326Q199.57202 134.64264 199.57202 136.01764Q199.57202 137.25201 200.3064 138.01764Q201.0564 138.78326 202.15015 138.78326Q203.2439 138.78326 203.94702 138.01764Q204.66577 137.25201 204.66577 135.87701ZM208.83765 144.54889L208.83765 142.75201L210.63452 142.75201L210.63452 144.54889L208.83765 144.54889ZM212.94702 141.17389L214.60327 141.03326Q214.79077 142.25201 215.46265 142.86139Q216.13452 143.47076 217.08765 143.47076Q218.22827 143.47076 219.00952 142.61139Q219.8064 141.75201 219.8064 140.31451Q219.8064 138.97076 219.04077 138.18951Q218.29077 137.40826 217.0564 137.40826Q216.29077 137.40826 215.66577 137.75201Q215.0564 138.09576 214.71265 138.65826L213.22827 138.45514L214.47827 131.84576L220.88452 131.84576L220.88452 133.34576L215.7439 133.34576L215.04077 136.81451Q216.21265 136.00201 217.47827 136.00201Q219.16577 136.00201 220.32202 137.17389Q221.4939 138.34576 221.4939 140.17389Q221.4939 141.92389 220.46265 143.20514Q219.22827 144.76764 217.08765 144.76764Q215.32202 144.76764 214.21265 143.78326Q213.10327 142.79889 212.94702 141.17389ZM223.2439 134.75201Q223.2439 133.37701 223.9314 132.40826Q224.63452 131.43951 225.94702 131.43951Q227.16577 131.43951 227.96265 132.31451Q228.75952 133.17389 228.75952 134.86139Q228.75952 136.48639 227.94702 137.37701Q227.15015 138.25201 225.96265 138.25201Q224.8064 138.25201 224.02515 137.39264Q223.2439 136.51764 223.2439 134.75201ZM225.9939 132.53326Q225.40015 132.53326 225.00952 133.04889Q224.6189 133.54889 224.6189 134.90826Q224.6189 136.15826 225.00952 136.65826Q225.41577 137.15826 225.9939 137.15826Q226.58765 137.15826 226.97827 136.65826Q227.3689 136.14264 227.3689 134.79889Q227.3689 133.54889 226.97827 133.04889Q226.58765 132.53326 225.9939 132.53326ZM226.00952 145.01764L233.0564 131.43951L234.33765 131.43951L227.3064 145.01764L226.00952 145.01764ZM231.57202 141.51764Q231.57202 140.14264 232.25952 139.17389Q232.96265 138.20514 234.29077 138.20514Q235.50952 138.20514 236.29077 139.08014Q237.08765 139.93951 237.08765 141.62701Q237.08765 143.25201 236.29077 144.14264Q235.4939 145.01764 234.3064 145.01764Q233.13452 145.01764 232.35327 144.14264Q231.57202 143.26764 231.57202 141.51764ZM234.33765 139.29889Q233.7439 139.29889 233.35327 139.81451Q232.96265 140.31451 232.96265 141.68951Q232.96265 142.90826 233.35327 143.42389Q233.7439 143.93951 234.32202 143.93951Q234.9314 143.93951 235.32202 143.42389Q235.71265 142.90826 235.71265 141.56451Q235.71265 140.31451 235.32202 139.81451Q234.9314 139.29889 234.33765 139.29889Z" fill-rule="nonzero"/><path fill="#ffffff" d="M247.54778 100.421104L249.0634 100.28048Q249.26653 101.358604 249.79778 101.84298Q250.34465 102.327354 251.20403 102.327354Q251.9384 102.327354 252.48528 101.99923Q253.03215 101.65548 253.3759 101.108604Q253.73528 100.546104 253.96965 99.59298Q254.20403 98.639854 254.20403 97.65548Q254.20403 97.546104 254.20403 97.34298Q253.71965 98.09298 252.89153 98.56173Q252.07903 99.03048 251.1259 99.03048Q249.53215 99.03048 248.42278 97.87423Q247.3134 96.71798 247.3134 94.81173Q247.3134 92.858604 248.46965 91.671104Q249.6259 90.46798 251.36028 90.46798Q252.6259 90.46798 253.65715 91.15548Q254.70403 91.827354 255.23528 93.077354Q255.78215 94.327354 255.78215 96.702354Q255.78215 99.171104 255.23528 100.639854Q254.70403 102.09298 253.64153 102.858604Q252.59465 103.62423 251.17278 103.62423Q249.65715 103.62423 248.6884 102.796104Q247.73528 101.952354 247.54778 100.421104ZM254.03215 94.733604Q254.03215 93.37423 253.29778 92.577354Q252.57903 91.78048 251.5634 91.78048Q250.5009 91.78048 249.71965 92.639854Q248.9384 93.49923 248.9384 94.87423Q248.9384 96.108604 249.67278 96.87423Q250.42278 97.639854 251.51653 97.639854Q252.61028 97.639854 253.3134 96.87423Q254.03215 96.108604 254.03215 94.733604ZM258.20404 103.40548L258.20404 101.608604L260.00092 101.608604L260.00092 103.40548L258.20404 103.40548ZM262.31342 100.03048L263.96967 99.889854Q264.15717 101.108604 264.82904 101.71798Q265.50092 102.327354 266.45404 102.327354Q267.59467 102.327354 268.37592 101.46798Q269.1728 100.608604 269.1728 99.171104Q269.1728 97.827354 268.40717 97.046104Q267.65717 96.264854 266.4228 96.264854Q265.65717 96.264854 265.03217 96.608604Q264.4228 96.952354 264.07904 97.514854L262.59467 97.31173L263.84467 90.702354L270.25092 90.702354L270.25092 92.202354L265.1103 92.202354L264.40717 95.671104Q265.57904 94.858604 266.84467 94.858604Q268.53217 94.858604 269.68842 96.03048Q270.8603 97.202354 270.8603 99.03048Q270.8603 100.78048 269.82904 102.06173Q268.59467 103.62423 266.45404 103.62423Q264.68842 103.62423 263.57904 102.639854Q262.46967 101.65548 262.31342 100.03048ZM272.6103 93.608604Q272.6103 92.233604 273.2978 91.264854Q274.00092 90.296104 275.31342 90.296104Q276.53217 90.296104 277.32904 91.171104Q278.12592 92.03048 278.12592 93.71798Q278.12592 95.34298 277.31342 96.233604Q276.51654 97.108604 275.32904 97.108604Q274.1728 97.108604 273.39154 96.24923Q272.6103 95.37423 272.6103 93.608604ZM275.3603 91.389854Q274.76654 91.389854 274.37592 91.90548Q273.9853 92.40548 273.9853 93.764854Q273.9853 95.014854 274.37592 95.514854Q274.78217 96.014854 275.3603 96.014854Q275.95404 96.014854 276.34467 95.514854Q276.7353 94.99923 276.7353 93.65548Q276.7353 92.40548 276.34467 91.90548Q275.95404 91.389854 275.3603 91.389854ZM275.37592 103.87423L282.4228 90.296104L283.70404 90.296104L276.6728 103.87423L275.37592 103.87423ZM280.93842 100.37423Q280.93842 98.99923 281.62592 98.03048Q282.32904 97.06173 283.65717 97.06173Q284.87592 97.06173 285.65717 97.93673Q286.45404 98.796104 286.45404 100.483604Q286.45404 102.108604 285.65717 102.99923Q284.8603 103.87423 283.6728 103.87423Q282.50092 103.87423 281.71967 102.99923Q280.93842 102.12423 280.93842 100.37423ZM283.70404 98.15548Q283.1103 98.15548 282.71967 98.671104Q282.32904 99.171104 282.32904 100.546104Q282.32904 101.764854 282.71967 102.28048Q283.1103 102.796104 283.68842 102.796104Q284.2978 102.796104 284.68842 102.28048Q285.07904 101.764854 285.07904 100.421104Q285.07904 99.171104 284.68842 98.671104Q284.2978 98.15548 283.70404 98.15548Z" fill-rule="nonzero"/><path stroke="#ffffff" stroke-width="1.0" stroke-linejoin="round" stroke-linecap="round" d="M329.0776 180.4947C322.02075 171.64568 311.31833 166.49167 300.0 166.49167L300.0 54.916668C345.27335 54.916668 388.08298 75.53269 416.31046 110.92883" fill-rule="nonzero"/><path stroke="#ffffff" stroke-width="1.0" stroke-linejoin="round" stroke-linecap="round" d="M336.2592 211.95926C338.77777 200.9247 336.1345 189.34375 329.0776 180.4947L416.31046 110.92883C444.53793 146.32497 455.11105 192.64877 445.03677 236.78703" fill-rule="nonzero"/><path stroke="#ffffff" stroke-width="1.0" stroke-linejoin="round" stroke-linecap="round" d="M325.29675 230.94675C330.77582 225.86293 334.596 219.24619 336.2592 211.95926L445.03677 236.78703C438.384 265.93472 423.1033 292.4017 401.18704 312.73703" fill-rule="nonzero"/><path stroke="#ffffff" stroke-width="1.0" stroke-linejoin="round" stroke-linecap="round" d="M265.37924 190.09569C259.0399 206.24812 264.71237 224.63786 279.0492 234.41254C293.38602 244.18721 312.5769 242.74904 325.29675 230.94675L401.18704 312.73703C350.30765 359.94617 273.544 365.69882 216.19675 326.60013C158.84949 287.50143 136.15956 213.94249 161.51701 149.33276" fill-rule="nonzero"/><path stroke="#ffffff" stroke-width="1.0" stroke-linejoin="round" stroke-linecap="round" d="M279.0492 172.95413C272.87363 177.16457 268.10992 183.13805 265.37924 190.09569L161.51701 149.33276C172.43973 121.50217 191.49445 97.60829 216.19675 80.76655" fill-rule="nonzero"/><path stroke="#ffffff" stroke-width="1.0" stroke-linejoin="round" stroke-linecap="round" d="M300.0 166.49167C292.52567 166.49167 285.22476 168.7437 279.0492 172.95413L216.19675 80.76655C240.89905 63.9248 270.10272 54.916668 300.0 54.916668" fill-rule="nonzero"/><path fill="#efefef" d="M27.3 58.46354L28.815624 58.46354L28.815624 65.072914Q28.815624 66.80729 28.425 67.822914Q28.034374 68.83854 27.01875 69.479164Q26.003124 70.11979 24.346874 70.11979Q22.7375 70.11979 21.70625 69.55729Q20.690624 68.99479 20.253124 67.947914Q19.815624 66.90104 19.815624 65.072914L19.815624 58.46354L21.33125 58.46354L21.33125 65.072914Q21.33125 66.55729 21.596874 67.27604Q21.878124 67.979164 22.55 68.36979Q23.2375 68.74479 24.20625 68.74479Q25.878124 68.74479 26.58125 67.99479Q27.3 67.229164 27.3 65.072914L27.3 58.46354ZM31.596874 69.916664L31.596874 61.61979L32.8625 61.61979L32.8625 62.86979Q33.346874 61.99479 33.753124 61.71354Q34.159374 61.43229 34.659374 61.43229Q35.3625 61.43229 36.096874 61.885414L35.6125 63.18229Q35.096874 62.885414 34.58125 62.885414Q34.128124 62.885414 33.753124 63.166664Q33.39375 63.43229 33.2375 63.93229Q33.003124 64.68229 33.003124 65.572914L33.003124 69.916664L31.596874 69.916664ZM37.909374 69.916664L36.596874 69.916664L36.596874 58.46354L38.003124 58.46354L38.003124 62.541664Q38.89375 61.43229 40.284374 61.43229Q41.05 61.43229 41.721874 61.74479Q42.409374 62.041664 42.846874 62.604164Q43.3 63.166664 43.55 63.96354Q43.8 64.74479 43.8 65.635414Q43.8 67.77604 42.7375 68.947914Q41.690624 70.104164 40.20625 70.104164Q38.7375 70.104164 37.909374 68.86979L37.909374 69.916664ZM37.89375 65.697914Q37.89375 67.197914 38.3 67.854164Q38.95625 68.947914 40.096874 68.947914Q41.01875 68.947914 41.690624 68.15104Q42.3625 67.33854 42.3625 65.760414Q42.3625 64.135414 41.70625 63.36979Q41.065624 62.58854 40.159374 62.58854Q39.2375 62.58854 38.565624 63.385414Q37.89375 64.18229 37.89375 65.697914ZM51.01875 68.885414Q50.2375 69.55729 49.51875 69.83854Q48.8 70.104164 47.971874 70.104164Q46.596874 70.104164 45.8625 69.43229Q45.128124 68.760414 45.128124 67.729164Q45.128124 67.11979 45.409374 66.61979Q45.690624 66.104164 46.128124 65.80729Q46.58125 65.49479 47.14375 65.33854Q47.565624 65.229164 48.39375 65.135414Q50.096874 64.93229 50.909374 64.65104Q50.909374 64.354164 50.909374 64.27604Q50.909374 63.416664 50.51875 63.072914Q49.971874 62.58854 48.909374 62.58854Q47.925 62.58854 47.440624 62.947914Q46.971874 63.291664 46.753124 64.166664L45.378124 63.979164Q45.565624 63.104164 45.9875 62.55729Q46.425 62.010414 47.2375 61.729164Q48.05 61.43229 49.1125 61.43229Q50.175 61.43229 50.83125 61.68229Q51.503124 61.93229 51.815624 62.30729Q52.128124 62.68229 52.253124 63.260414Q52.33125 63.61979 52.33125 64.55729L52.33125 66.43229Q52.33125 68.40104 52.409374 68.916664Q52.503124 69.43229 52.76875 69.916664L51.3 69.916664Q51.08125 69.479164 51.01875 68.885414ZM50.909374 65.74479Q50.14375 66.05729 48.6125 66.27604Q47.7375 66.40104 47.378124 66.55729Q47.01875 66.71354 46.815624 67.02604Q46.628124 67.322914 46.628124 67.68229Q46.628124 68.24479 47.05 68.61979Q47.4875 68.99479 48.3 68.99479Q49.1125 68.99479 49.7375 68.65104Q50.378124 68.291664 50.675 67.666664Q50.909374 67.197914 50.909374 66.260414L50.909374 65.74479ZM54.6125 69.916664L54.6125 61.61979L55.878124 61.61979L55.878124 62.791664Q56.784374 61.43229 58.51875 61.43229Q59.26875 61.43229 59.89375 61.697914Q60.51875 61.96354 60.83125 62.40104Q61.14375 62.83854 61.26875 63.447914Q61.346874 63.83854 61.346874 64.80729L61.346874 69.916664L59.940624 69.916664L59.940624 64.86979Q59.940624 64.010414 59.76875 63.58854Q59.6125 63.15104 59.190624 62.90104Q58.784374 62.65104 58.221874 62.65104Q57.315624 62.65104 56.659374 63.229164Q56.01875 63.791664 56.01875 65.385414L56.01875 69.916664L54.6125 69.916664ZM63.05 67.43229L64.44063 67.21354Q64.55 68.05729 65.08125 68.510414Q65.62813 68.947914 66.58125 68.947914Q67.55 68.947914 68.01875 68.55729Q68.4875 68.15104 68.4875 67.61979Q68.4875 67.15104 68.08125 66.86979Q67.78438 66.68229 66.64375 66.40104Q65.09688 66.010414 64.4875 65.729164Q63.89375 65.43229 63.58125 64.93229Q63.284374 64.43229 63.284374 63.822914Q63.284374 63.260414 63.534374 62.791664Q63.784374 62.322914 64.22188 62.010414Q64.55 61.760414 65.1125 61.604164Q65.69063 61.43229 66.33125 61.43229Q67.31563 61.43229 68.05 61.71354Q68.78438 61.99479 69.12813 62.479164Q69.4875 62.947914 69.62813 63.760414L68.25313 63.947914Q68.15938 63.30729 67.70625 62.947914Q67.25313 62.58854 66.44063 62.58854Q65.47188 62.58854 65.05 62.916664Q64.64375 63.229164 64.64375 63.65104Q64.64375 63.93229 64.81563 64.15104Q64.9875 64.36979 65.34688 64.52604Q65.56563 64.604164 66.59688 64.885414Q68.08125 65.27604 68.675 65.541664Q69.26875 65.791664 69.59688 66.27604Q69.94063 66.760414 69.94063 67.479164Q69.94063 68.18229 69.51875 68.80729Q69.1125 69.416664 68.33125 69.760414Q67.56563 70.104164 66.59688 70.104164Q64.97188 70.104164 64.12813 69.43229Q63.284374 68.760414 63.05 67.43229ZM77.01875 66.86979L78.40938 67.05729Q78.175 68.479164 77.2375 69.291664Q76.31563 70.104164 74.95625 70.104164Q73.25313 70.104164 72.20625 68.99479Q71.175 67.86979 71.175 65.791664Q71.175 64.447914 71.6125 63.447914Q72.06563 62.43229 72.97188 61.93229Q73.89375 61.43229 74.95625 61.43229Q76.31563 61.43229 77.175 62.11979Q78.03438 62.791664 78.26875 64.05729L76.90938 64.260414Q76.70625 63.43229 76.20625 63.010414Q75.72188 62.58854 75.01875 62.58854Q73.95625 62.58854 73.28438 63.354164Q72.62813 64.104164 72.62813 65.760414Q72.62813 67.43229 73.26875 68.197914Q73.90938 68.947914 74.94063 68.947914Q75.76875 68.947914 76.31563 68.447914Q76.87813 67.93229 77.01875 66.86979ZM85.01875 68.885414Q84.2375 69.55729 83.51875 69.83854Q82.8 70.104164 81.97188 70.104164Q80.59688 70.104164 79.8625 69.43229Q79.12813 68.760414 79.12813 67.729164Q79.12813 67.11979 79.40938 66.61979Q79.69063 66.104164 80.12813 65.80729Q80.58125 65.49479 81.14375 65.33854Q81.56563 65.229164 82.39375 65.135414Q84.09688 64.93229 84.90938 64.65104Q84.90938 64.354164 84.90938 64.27604Q84.90938 63.416664 84.51875 63.072914Q83.97188 62.58854 82.90938 62.58854Q81.925 62.58854 81.44063 62.947914Q80.97188 63.291664 80.75313 64.166664L79.37813 63.979164Q79.56563 63.104164 79.9875 62.55729Q80.425 62.010414 81.2375 61.729164Q82.05 61.43229 83.1125 61.43229Q84.175 61.43229 84.83125 61.68229Q85.50313 61.93229 85.81563 62.30729Q86.12813 62.68229 86.25313 63.260414Q86.33125 63.61979 86.33125 64.55729L86.33125 66.43229Q86.33125 68.40104 86.40938 68.916664Q86.50313 69.43229 86.76875 69.916664L85.3 69.916664Q85.08125 69.479164 85.01875 68.885414ZM84.90938 65.74479Q84.14375 66.05729 82.6125 66.27604Q81.7375 66.40104 81.37813 66.55729Q81.01875 66.71354 80.81563 67.02604Q80.62813 67.322914 80.62813 67.68229Q80.62813 68.24479 81.05 68.61979Q81.4875 68.99479 82.3 68.99479Q83.1125 68.99479 83.7375 68.65104Q84.37813 68.291664 84.675 67.666664Q84.90938 67.197914 84.90938 66.260414L84.90938 65.74479ZM88.6125 73.104164L88.6125 61.61979L89.89375 61.61979L89.89375 62.697914Q90.34688 62.05729 90.90938 61.74479Q91.4875 61.43229 92.3 61.43229Q93.3625 61.43229 94.175 61.979164Q94.9875 62.52604 95.39375 63.52604Q95.81563 64.510414 95.81563 65.697914Q95.81563 66.979164 95.34688 67.99479Q94.89375 69.010414 94.01875 69.55729Q93.15938 70.104164 92.19063 70.104164Q91.4875 70.104164 90.925 69.80729Q90.37813 69.510414 90.01875 69.05729L90.01875 73.104164L88.6125 73.104164ZM89.87813 65.80729Q89.87813 67.416664 90.51875 68.18229Q91.175 68.947914 92.09688 68.947914Q93.03438 68.947914 93.70625 68.15104Q94.37813 67.354164 94.37813 65.697914Q94.37813 64.104164 93.72188 63.322914Q93.06563 62.52604 92.15938 62.52604Q91.26875 62.52604 90.56563 63.36979Q89.87813 64.21354 89.87813 65.80729ZM103.28438 67.24479L104.7375 67.416664Q104.39375 68.697914 103.45625 69.40104Q102.53438 70.104164 101.09688 70.104164Q99.26875 70.104164 98.20625 68.979164Q97.14375 67.854164 97.14375 65.83854Q97.14375 63.74479 98.22188 62.58854Q99.3 61.43229 101.01875 61.43229Q102.675 61.43229 103.72188 62.572914Q104.78438 63.697914 104.78438 65.74479Q104.78438 65.86979 104.78438 66.11979L98.59688 66.11979Q98.675 67.49479 99.3625 68.229164Q100.06563 68.947914 101.09688 68.947914Q101.87813 68.947914 102.425 68.541664Q102.97188 68.135414 103.28438 67.24479ZM98.675 64.96354L103.3 64.96354Q103.20625 63.916664 102.76875 63.40104Q102.09688 62.58854 101.03438 62.58854Q100.06563 62.58854 99.39375 63.24479Q98.7375 63.885414 98.675 64.96354Z" fill-rule="nonzero"/><path fill="#9e9e9e" d="M19.425 89.260414L20.784374 89.135414Q20.95625 90.08854 21.440624 90.52604Q21.925 90.947914 22.675 90.947914Q23.33125 90.947914 23.815624 90.65104Q24.3 90.354164 24.6125 89.86979Q24.925 89.36979 25.128124 88.52604Q25.346874 87.68229 25.346874 86.80729Q25.346874 86.71354 25.346874 86.52604Q24.925 87.197914 24.190624 87.61979Q23.45625 88.02604 22.6125 88.02604Q21.190624 88.02604 20.20625 86.99479Q19.221874 85.96354 19.221874 84.27604Q19.221874 82.541664 20.2375 81.479164Q21.26875 80.416664 22.815624 80.416664Q23.940624 80.416664 24.8625 81.02604Q25.784374 81.61979 26.26875 82.729164Q26.753124 83.83854 26.753124 85.947914Q26.753124 88.15104 26.26875 89.447914Q25.8 90.74479 24.846874 91.43229Q23.909374 92.11979 22.64375 92.11979Q21.3 92.11979 20.440624 91.36979Q19.596874 90.61979 19.425 89.260414ZM25.190624 84.21354Q25.190624 82.99479 24.534374 82.291664Q23.89375 81.572914 22.9875 81.572914Q22.05 81.572914 21.346874 82.33854Q20.659374 83.104164 20.659374 84.322914Q20.659374 85.416664 21.315624 86.104164Q21.9875 86.791664 22.95625 86.791664Q23.925 86.791664 24.55 86.104164Q25.190624 85.416664 25.190624 84.21354ZM29.003124 91.916664L29.003124 90.30729L30.6125 90.30729L30.6125 91.916664L29.003124 91.916664ZM32.221874 88.916664L33.690624 88.791664Q33.8625 89.86979 34.45625 90.416664Q35.05 90.947914 35.89375 90.947914Q36.909374 90.947914 37.6125 90.18229Q38.315624 89.416664 38.315624 88.15104Q38.315624 86.947914 37.64375 86.260414Q36.971874 85.55729 35.878124 85.55729Q35.190624 85.55729 34.64375 85.86979Q34.096874 86.18229 33.784374 86.666664L32.471874 86.49479L33.58125 80.61979L39.26875 80.61979L39.26875 81.96354L34.70625 81.96354L34.08125 85.041664Q35.1125 84.322914 36.253124 84.322914Q37.753124 84.322914 38.784374 85.36979Q39.815624 86.40104 39.815624 88.02604Q39.815624 89.58854 38.909374 90.71354Q37.8 92.11979 35.89375 92.11979Q34.33125 92.11979 33.346874 91.24479Q32.3625 90.354164 32.221874 88.916664ZM41.4875 83.21354Q41.4875 81.979164 42.096874 81.11979Q42.721874 80.260414 43.89375 80.260414Q44.971874 80.260414 45.675 81.041664Q46.378124 81.80729 46.378124 83.291664Q46.378124 84.74479 45.659374 85.541664Q44.95625 86.322914 43.909374 86.322914Q42.8625 86.322914 42.175 85.55729Q41.4875 84.77604 41.4875 83.21354ZM43.925 81.229164Q43.409374 81.229164 43.05 81.68229Q42.70625 82.135414 42.70625 83.354164Q42.70625 84.447914 43.05 84.90104Q43.409374 85.354164 43.925 85.354164Q44.45625 85.354164 44.8 84.90104Q45.159374 84.447914 45.159374 83.24479Q45.159374 82.135414 44.8 81.68229Q44.45625 81.229164 43.925 81.229164ZM43.940624 92.33854L50.20625 80.260414L51.346874 80.260414L45.096874 92.33854L43.940624 92.33854ZM48.89375 89.229164Q48.89375 87.99479 49.503124 87.135414Q50.128124 86.27604 51.3 86.27604Q52.378124 86.27604 53.08125 87.05729Q53.8 87.822914 53.8 89.30729Q53.8 90.760414 53.08125 91.55729Q52.3625 92.33854 51.315624 92.33854Q50.26875 92.33854 49.58125 91.55729Q48.89375 90.77604 48.89375 89.229164ZM51.346874 87.24479Q50.815624 87.24479 50.45625 87.697914Q50.1125 88.15104 50.1125 89.36979Q50.1125 90.46354 50.45625 90.916664Q50.815624 91.36979 51.33125 91.36979Q51.878124 91.36979 52.221874 90.916664Q52.565624 90.46354 52.565624 89.260414Q52.565624 88.15104 52.20625 87.697914Q51.8625 87.24479 51.346874 87.24479Z" fill-rule="nonzero"/><path stroke="#757575" stroke-width="1.0" stroke-linecap="butt" d="M18.55 75.416664L145.23334 75.416664L258.34274 68.63382" fill-rule="nonzero"/><path fill="#9e9e9e" d="M260.34274 68.63382C260.34274 67.52925 259.44733 66.63382 258.34274 66.63382C257.23816 66.63382 256.34274 67.52925 256.34274 68.63382C256.34274 69.73839 257.23816 70.63382 258.34274 70.63382C259.44733 70.63382 260.34274 69.73839 260.34274 68.63382" fill-rule="nonzero"/><path fill="#efefef" d="M18.51875 110.916664L22.925 99.46354L24.565624 99.46354L29.253124 110.916664L27.51875 110.916664L26.190624 107.447914L21.39375 107.447914L20.14375 110.916664L18.51875 110.916664ZM21.83125 106.21354L25.721874 106.21354L24.51875 103.041664Q23.971874 101.58854 23.70625 100.666664Q23.4875 101.760414 23.096874 102.854164L21.83125 106.21354ZM30.6125 110.916664L30.6125 102.61979L31.878124 102.61979L31.878124 103.791664Q32.784374 102.43229 34.51875 102.43229Q35.26875 102.43229 35.89375 102.697914Q36.51875 102.96354 36.83125 103.40104Q37.14375 103.83854 37.26875 104.447914Q37.346874 104.83854 37.346874 105.80729L37.346874 110.916664L35.940624 110.916664L35.940624 105.86979Q35.940624 105.010414 35.76875 104.58854Q35.6125 104.15104 35.190624 103.90104Q34.784374 103.65104 34.221874 103.65104Q33.315624 103.65104 32.659374 104.229164Q32.01875 104.791664 32.01875 106.385414L32.01875 110.916664L30.6125 110.916664ZM39.6125 101.072914L39.6125 99.46354L41.01875 99.46354L41.01875 101.072914L39.6125 101.072914ZM39.6125 110.916664L39.6125 102.61979L41.01875 102.61979L41.01875 110.916664L39.6125 110.916664ZM43.6125 110.916664L43.6125 102.61979L44.8625 102.61979L44.8625 103.77604Q45.253124 103.166664 45.89375 102.80729Q46.55 102.43229 47.378124 102.43229Q48.3 102.43229 48.89375 102.822914Q49.4875 103.197914 49.721874 103.885414Q50.70625 102.43229 52.284374 102.43229Q53.51875 102.43229 54.175 103.11979Q54.846874 103.791664 54.846874 105.21354L54.846874 110.916664L53.45625 110.916664L53.45625 105.68229Q53.45625 104.83854 53.315624 104.479164Q53.175 104.104164 52.815624 103.885414Q52.45625 103.65104 51.971874 103.65104Q51.096874 103.65104 50.51875 104.229164Q49.940624 104.80729 49.940624 106.08854L49.940624 110.916664L48.534374 110.916664L48.534374 105.52604Q48.534374 104.58854 48.190624 104.11979Q47.846874 103.65104 47.065624 103.65104Q46.471874 103.65104 45.971874 103.96354Q45.471874 104.27604 45.2375 104.885414Q45.01875 105.479164 45.01875 106.604164L45.01875 110.916664L43.6125 110.916664ZM62.01875 109.885414Q61.2375 110.55729 60.51875 110.83854Q59.8 111.104164 58.971874 111.104164Q57.596874 111.104164 56.8625 110.43229Q56.128124 109.760414 56.128124 108.729164Q56.128124 108.11979 56.409374 107.61979Q56.690624 107.104164 57.128124 106.80729Q57.58125 106.49479 58.14375 106.33854Q58.565624 106.229164 59.39375 106.135414Q61.096874 105.93229 61.909374 105.65104Q61.909374 105.354164 61.909374 105.27604Q61.909374 104.416664 61.51875 104.072914Q60.971874 103.58854 59.909374 103.58854Q58.925 103.58854 58.440624 103.947914Q57.971874 104.291664 57.753124 105.166664L56.378124 104.979164Q56.565624 104.104164 56.9875 103.55729Q57.425 103.010414 58.2375 102.729164Q59.05 102.43229 60.1125 102.43229Q61.175 102.43229 61.83125 102.68229Q62.503124 102.93229 62.815624 103.30729Q63.128124 103.68229 63.253124 104.260414Q63.33125 104.61979 63.33125 105.55729L63.33125 107.43229Q63.33125 109.40104 63.409374 109.916664Q63.503124 110.43229 63.76875 110.916664L62.3 110.916664Q62.08125 110.479164 62.01875 109.885414ZM61.909374 106.74479Q61.14375 107.05729 59.6125 107.27604Q58.7375 107.40104 58.378124 107.55729Q58.01875 107.71354 57.815624 108.02604Q57.628124 108.322914 57.628124 108.68229Q57.628124 109.24479 58.05 109.61979Q58.4875 109.99479 59.3 109.99479Q60.1125 109.99479 60.7375 109.65104Q61.378124 109.291664 61.675 108.666664Q61.909374 108.197914 61.909374 107.260414L61.909374 106.74479ZM65.58125 110.916664L65.58125 99.46354L66.9875 99.46354L66.9875 110.916664L65.58125 110.916664ZM69.05 108.43229L70.44063 108.21354Q70.55 109.05729 71.08125 109.510414Q71.62813 109.947914 72.58125 109.947914Q73.55 109.947914 74.01875 109.55729Q74.4875 109.15104 74.4875 108.61979Q74.4875 108.15104 74.08125 107.86979Q73.78438 107.68229 72.64375 107.40104Q71.09688 107.010414 70.4875 106.729164Q69.89375 106.43229 69.58125 105.93229Q69.28438 105.43229 69.28438 104.822914Q69.28438 104.260414 69.53438 103.791664Q69.78438 103.322914 70.22188 103.010414Q70.55 102.760414 71.1125 102.604164Q71.69063 102.43229 72.33125 102.43229Q73.31563 102.43229 74.05 102.71354Q74.78438 102.99479 75.12813 103.479164Q75.4875 103.947914 75.62813 104.760414L74.25313 104.947914Q74.15938 104.30729 73.70625 103.947914Q73.25313 103.58854 72.44063 103.58854Q71.47188 103.58854 71.05 103.916664Q70.64375 104.229164 70.64375 104.65104Q70.64375 104.93229 70.81563 105.15104Q70.9875 105.36979 71.34688 105.52604Q71.56563 105.604164 72.59688 105.885414Q74.08125 106.27604 74.675 106.541664Q75.26875 106.791664 75.59688 107.27604Q75.94063 107.760414 75.94063 108.479164Q75.94063 109.18229 75.51875 109.80729Q75.1125 110.416664 74.33125 110.760414Q73.56563 111.104164 72.59688 111.104164Q70.97188 111.104164 70.12813 110.43229Q69.28438 109.760414 69.05 108.43229Z" fill-rule="nonzero"/><path fill="#9e9e9e" d="M19.425 130.26042L20.784374 130.13542Q20.95625 131.08855 21.440624 131.52605Q21.925 131.94792 22.675 131.94792Q23.33125 131.94792 23.815624 131.65105Q24.3 131.35417 24.6125 130.8698Q24.925 130.3698 25.128124 129.52605Q25.346874 128.6823 25.346874 127.8073Q25.346874 127.71355 25.346874 127.52605Q24.925 128.19792 24.190624 128.6198Q23.45625 129.02605 22.6125 129.02605Q21.190624 129.02605 20.20625 127.9948Q19.221874 126.96355 19.221874 125.27605Q19.221874 123.54167 20.2375 122.47917Q21.26875 121.41667 22.815624 121.41667Q23.940624 121.41667 24.8625 122.02605Q25.784374 122.6198 26.26875 123.72917Q26.753124 124.83855 26.753124 126.94792Q26.753124 129.15105 26.26875 130.44792Q25.8 131.7448 24.846874 132.4323Q23.909374 133.1198 22.64375 133.1198Q21.3 133.1198 20.440624 132.3698Q19.596874 131.6198 19.425 130.26042ZM25.190624 125.21355Q25.190624 123.9948 24.534374 123.29167Q23.89375 122.57292 22.9875 122.57292Q22.05 122.57292 21.346874 123.33855Q20.659374 124.10417 20.659374 125.32292Q20.659374 126.41667 21.315624 127.10417Q21.9875 127.79167 22.95625 127.79167Q23.925 127.79167 24.55 127.10417Q25.190624 126.41667 25.190624 125.21355ZM29.003124 132.91667L29.003124 131.3073L30.6125 131.3073L30.6125 132.91667L29.003124 132.91667ZM32.221874 129.91667L33.690624 129.79167Q33.8625 130.8698 34.45625 131.41667Q35.05 131.94792 35.89375 131.94792Q36.909374 131.94792 37.6125 131.1823Q38.315624 130.41667 38.315624 129.15105Q38.315624 127.94792 37.64375 127.26042Q36.971874 126.5573 35.878124 126.5573Q35.190624 126.5573 34.64375 126.8698Q34.096874 127.1823 33.784374 127.66667L32.471874 127.4948L33.58125 121.6198L39.26875 121.6198L39.26875 122.96355L34.70625 122.96355L34.08125 126.04167Q35.1125 125.32292 36.253124 125.32292Q37.753124 125.32292 38.784374 126.3698Q39.815624 127.40105 39.815624 129.02605Q39.815624 130.58855 38.909374 131.71355Q37.8 133.1198 35.89375 133.1198Q34.33125 133.1198 33.346874 132.2448Q32.3625 131.35417 32.221874 129.91667ZM41.4875 124.21355Q41.4875 122.97917 42.096874 122.1198Q42.721874 121.26042 43.89375 121.26042Q44.971874 121.26042 45.675 122.04167Q46.378124 122.8073 46.378124 124.29167Q46.378124 125.7448 45.659374 126.54167Q44.95625 127.32292 43.909374 127.32292Q42.8625 127.32292 42.175 126.5573Q41.4875 125.77605 41.4875 124.21355ZM43.925 122.22917Q43.409374 122.22917 43.05 122.6823Q42.70625 123.13542 42.70625 124.35417Q42.70625 125.44792 43.05 125.90105Q43.409374 126.35417 43.925 126.35417Q44.45625 126.35417 44.8 125.90105Q45.159374 125.44792 45.159374 124.2448Q45.159374 123.13542 44.8 122.6823Q44.45625 122.22917 43.925 122.22917ZM43.940624 133.33855L50.20625 121.26042L51.346874 121.26042L45.096874 133.33855L43.940624 133.33855ZM48.89375 130.22917Q48.89375 128.9948 49.503124 128.13542Q50.128124 127.27605 51.3 127.27605Q52.378124 127.27605 53.08125 128.0573Q53.8 128.82292 53.8 130.3073Q53.8 131.76042 53.08125 132.5573Q52.3625 133.33855 51.315624 133.33855Q50.26875 133.33855 49.58125 132.5573Q48.89375 131.77605 48.89375 130.22917ZM51.346874 128.2448Q50.815624 128.2448 50.45625 128.69792Q50.1125 129.15105 50.1125 130.3698Q50.1125 131.46355 50.45625 131.91667Q50.815624 132.3698 51.33125 132.3698Q51.878124 132.3698 52.221874 131.91667Q52.565624 131.46355 52.565624 130.26042Q52.565624 129.15105 52.20625 128.69792Q51.8625 128.2448 51.346874 128.2448Z" fill-rule="nonzero"/><path stroke="#757575" stroke-width="1.0" stroke-linecap="butt" d="M18.55 116.416664L145.23334 116.416664L189.50507 115.56656" fill-rule="nonzero"/><path fill="#9e9e9e" d="M191.50507 115.56656C191.50507 114.46199 190.60963 113.56656 189.50507 113.56656C188.4005 113.56656 187.50507 114.46199 187.50507 115.56656C187.50507 116.67113 188.4005 117.56656 189.50507 117.56656C190.60963 117.56656 191.50507 116.67113 191.50507 115.56656" fill-rule="nonzero"/><path fill="#efefef" d="M19.784374 314.95428L19.784374 303.50116L24.1125 303.50116Q25.253124 303.50116 25.846874 303.61053Q26.690624 303.75116 27.253124 304.14178Q27.83125 304.5324 28.175 305.25116Q28.534374 305.95428 28.534374 306.81366Q28.534374 308.26678 27.596874 309.2824Q26.675 310.29803 24.2375 310.29803L21.3 310.29803L21.3 314.95428L19.784374 314.95428ZM21.3 308.93866L24.26875 308.93866Q25.7375 308.93866 26.346874 308.39178Q26.971874 307.8449 26.971874 306.86053Q26.971874 306.14178 26.596874 305.62616Q26.2375 305.11053 25.64375 304.95428Q25.26875 304.8449 24.2375 304.8449L21.3 304.8449L21.3 308.93866ZM36.284374 312.2824L37.7375 312.45428Q37.39375 313.73553 36.45625 314.43866Q35.534374 315.14178 34.096874 315.14178Q32.26875 315.14178 31.20625 314.01678Q30.14375 312.89178 30.14375 310.87616Q30.14375 308.7824 31.221874 307.62616Q32.3 306.4699 34.01875 306.4699Q35.675 306.4699 36.721874 307.61053Q37.784374 308.73553 37.784374 310.7824Q37.784374 310.9074 37.784374 311.1574L31.596874 311.1574Q31.675 312.5324 32.3625 313.26678Q33.065624 313.98553 34.096874 313.98553Q34.878124 313.98553 35.425 313.57928Q35.971874 313.17303 36.284374 312.2824ZM31.675 310.00116L36.3 310.00116Q36.20625 308.95428 35.76875 308.43866Q35.096874 307.62616 34.034374 307.62616Q33.065624 307.62616 32.39375 308.2824Q31.7375 308.92303 31.675 310.00116ZM39.08125 310.79803Q39.08125 308.50116 40.3625 307.39178Q41.440624 306.4699 42.971874 306.4699Q44.690624 306.4699 45.76875 307.5949Q46.8625 308.70428 46.8625 310.68866Q46.8625 312.2824 46.378124 313.20428Q45.89375 314.12616 44.971874 314.64178Q44.065624 315.14178 42.971874 315.14178Q41.2375 315.14178 40.159374 314.0324Q39.08125 312.9074 39.08125 310.79803ZM40.534374 310.79803Q40.534374 312.39178 41.221874 313.18866Q41.925 313.98553 42.971874 313.98553Q44.01875 313.98553 44.70625 313.18866Q45.409374 312.39178 45.409374 310.75116Q45.409374 309.2199 44.70625 308.42303Q44.01875 307.62616 42.971874 307.62616Q41.925 307.62616 41.221874 308.42303Q40.534374 309.20428 40.534374 310.79803ZM48.6125 318.14178L48.6125 306.6574L49.89375 306.6574L49.89375 307.73553Q50.346874 307.0949 50.909374 306.7824Q51.4875 306.4699 52.3 306.4699Q53.3625 306.4699 54.175 307.01678Q54.9875 307.56366 55.39375 308.56366Q55.815624 309.54803 55.815624 310.73553Q55.815624 312.01678 55.346874 313.0324Q54.89375 314.04803 54.01875 314.5949Q53.159374 315.14178 52.190624 315.14178Q51.4875 315.14178 50.925 314.8449Q50.378124 314.54803 50.01875 314.0949L50.01875 318.14178L48.6125 318.14178ZM49.878124 310.8449Q49.878124 312.45428 50.51875 313.2199Q51.175 313.98553 52.096874 313.98553Q53.034374 313.98553 53.70625 313.18866Q54.378124 312.39178 54.378124 310.73553Q54.378124 309.14178 53.721874 308.36053Q53.065624 307.56366 52.159374 307.56366Q51.26875 307.56366 50.565624 308.4074Q49.878124 309.25116 49.878124 310.8449ZM57.58125 314.95428L57.58125 303.50116L58.9875 303.50116L58.9875 314.95428L57.58125 314.95428ZM67.28438 312.2824L68.7375 312.45428Q68.39375 313.73553 67.45625 314.43866Q66.53438 315.14178 65.09688 315.14178Q63.26875 315.14178 62.20625 314.01678Q61.14375 312.89178 61.14375 310.87616Q61.14375 308.7824 62.221874 307.62616Q63.3 306.4699 65.01875 306.4699Q66.675 306.4699 67.72188 307.61053Q68.78438 308.73553 68.78438 310.7824Q68.78438 310.9074 68.78438 311.1574L62.596874 311.1574Q62.675 312.5324 63.3625 313.26678Q64.06563 313.98553 65.09688 313.98553Q65.87813 313.98553 66.425 313.57928Q66.97188 313.17303 67.28438 312.2824ZM62.675 310.00116L67.3 310.00116Q67.20625 308.95428 66.76875 308.43866Q66.09688 307.62616 65.03438 307.62616Q64.06563 307.62616 63.39375 308.2824Q62.7375 308.92303 62.675 310.00116Z" fill-rule="nonzero"/><path fill="#9e9e9e" d="M23.721874 336.95428L23.721874 334.20428L18.753124 334.20428L18.753124 332.92303L23.9875 325.50116L25.128124 325.50116L25.128124 332.92303L26.675 332.92303L26.675 334.20428L25.128124 334.20428L25.128124 336.95428L23.721874 336.95428ZM23.721874 332.92303L23.721874 327.75116L20.14375 332.92303L23.721874 332.92303ZM35.6125 335.5949L35.6125 336.95428L28.034374 336.95428Q28.01875 336.43866 28.20625 335.9699Q28.4875 335.20428 29.128124 334.45428Q29.76875 333.70428 30.971874 332.7199Q32.83125 331.18866 33.4875 330.29803Q34.14375 329.39178 34.14375 328.5949Q34.14375 327.76678 33.55 327.18866Q32.95625 326.61053 31.9875 326.61053Q30.971874 326.61053 30.3625 327.2199Q29.753124 327.82928 29.753124 328.9074L28.3 328.76678Q28.45625 327.14178 29.425 326.29803Q30.39375 325.45428 32.01875 325.45428Q33.675 325.45428 34.628124 326.37616Q35.596874 327.2824 35.596874 328.62616Q35.596874 329.31366 35.315624 329.98553Q35.034374 330.64178 34.378124 331.37616Q33.721874 332.11053 32.20625 333.39178Q30.940624 334.45428 30.58125 334.8449Q30.221874 335.2199 29.9875 335.5949L35.6125 335.5949ZM38.003124 336.95428L38.003124 335.3449L39.6125 335.3449L39.6125 336.95428L38.003124 336.95428ZM41.425 334.29803L42.784374 334.17303Q42.95625 335.12616 43.440624 335.56366Q43.925 335.98553 44.675 335.98553Q45.33125 335.98553 45.815624 335.68866Q46.3 335.39178 46.6125 334.9074Q46.925 334.4074 47.128124 333.56366Q47.346874 332.7199 47.346874 331.8449Q47.346874 331.75116 47.346874 331.56366Q46.925 332.23553 46.190624 332.6574Q45.45625 333.06366 44.6125 333.06366Q43.190624 333.06366 42.20625 332.0324Q41.221874 331.00116 41.221874 329.31366Q41.221874 327.57928 42.2375 326.51678Q43.26875 325.45428 44.815624 325.45428Q45.940624 325.45428 46.8625 326.06366Q47.784374 326.6574 48.26875 327.76678Q48.753124 328.87616 48.753124 330.98553Q48.753124 333.18866 48.26875 334.48553Q47.8 335.7824 46.846874 336.4699Q45.909374 337.1574 44.64375 337.1574Q43.3 337.1574 42.440624 336.4074Q41.596874 335.6574 41.425 334.29803ZM47.190624 329.25116Q47.190624 328.0324 46.534374 327.32928Q45.89375 326.61053 44.9875 326.61053Q44.05 326.61053 43.346874 327.37616Q42.659374 328.14178 42.659374 329.36053Q42.659374 330.45428 43.315624 331.14178Q43.9875 331.82928 44.95625 331.82928Q45.925 331.82928 46.55 331.14178Q47.190624 330.45428 47.190624 329.25116ZM50.4875 328.25116Q50.4875 327.01678 51.096874 326.1574Q51.721874 325.29803 52.89375 325.29803Q53.971874 325.29803 54.675 326.07928Q55.378124 326.8449 55.378124 328.32928Q55.378124 329.7824 54.659374 330.57928Q53.95625 331.36053 52.909374 331.36053Q51.8625 331.36053 51.175 330.5949Q50.4875 329.81366 50.4875 328.25116ZM52.925 326.26678Q52.409374 326.26678 52.05 326.7199Q51.70625 327.17303 51.70625 328.39178Q51.70625 329.48553 52.05 329.93866Q52.409374 330.39178 52.925 330.39178Q53.45625 330.39178 53.8 329.93866Q54.159374 329.48553 54.159374 328.2824Q54.159374 327.17303 53.8 326.7199Q53.45625 326.26678 52.925 326.26678ZM52.940624 337.37616L59.20625 325.29803L60.346874 325.29803L54.096874 337.37616L52.940624 337.37616ZM57.89375 334.26678Q57.89375 333.0324 58.503124 332.17303Q59.128124 331.31366 60.3 331.31366Q61.378124 331.31366 62.08125 332.0949Q62.8 332.86053 62.8 334.3449Q62.8 335.79803 62.08125 336.5949Q61.3625 337.37616 60.315624 337.37616Q59.26875 337.37616 58.58125 336.5949Q57.89375 335.81366 57.89375 334.26678ZM60.346874 332.2824Q59.815624 332.2824 59.45625 332.73553Q59.1125 333.18866 59.1125 334.4074Q59.1125 335.50116 59.45625 335.95428Q59.815624 336.4074 60.33125 336.4074Q60.878124 336.4074 61.221874 335.95428Q61.565624 335.50116 61.565624 334.29803Q61.565624 333.18866 61.20625 332.73553Q60.8625 332.2824 60.346874 332.2824Z" fill-rule="nonzero"/><path stroke="#757575" stroke-width="1.0" stroke-linecap="butt" d="M18.55 320.45428L145.23334 320.45428L220.38692 320.45428" fill-rule="nonzero"/><path fill="#9e9e9e" d="M222.38692 320.45428C222.38692 319.3497 221.49149 318.45428 220.38692 318.45428C219.28235 318.45428 218.38692 319.3497 218.38692 320.45428C218.38692 321.55884 219.28235 322.45428 220.38692 322.45428C221.49149 322.45428 222.38692 321.55884 222.38692 320.45428" fill-rule="nonzero"/><path fill="#efefef" d="M490.23126 65.27278Q490.23126 62.413406 491.7625 60.80403Q493.29376 59.194656 495.71564 59.194656Q497.29376 59.194656 498.5594 59.96028Q499.84064 60.71028 500.5125 62.069656Q501.1844 63.413406 501.1844 65.13216Q501.1844 66.88216 500.48126 68.25716Q499.77814 69.63216 498.48126 70.35091Q497.2 71.05403 495.7 71.05403Q494.09064 71.05403 492.8094 70.27278Q491.54376 69.47591 490.8875 68.13216Q490.23126 66.77278 490.23126 65.27278ZM491.79376 65.28841Q491.79376 67.36653 492.90314 68.55403Q494.0125 69.74153 495.7 69.74153Q497.40314 69.74153 498.5125 68.53841Q499.6219 67.33528 499.6219 65.13216Q499.6219 63.725906 499.1375 62.694656Q498.66876 61.64778 497.7625 61.069656Q496.85626 60.49153 495.71564 60.49153Q494.10626 60.49153 492.95 61.600906Q491.79376 62.71028 491.79376 65.28841ZM502.4969 70.85091L502.4969 62.55403L503.7625 62.55403L503.7625 63.80403Q504.2469 62.92903 504.65314 62.64778Q505.0594 62.36653 505.5594 62.36653Q506.2625 62.36653 506.9969 62.819656L506.5125 64.11653Q505.9969 63.819656 505.48126 63.819656Q505.02814 63.819656 504.65314 64.10091Q504.29376 64.36653 504.1375 64.86653Q503.90314 65.61653 503.90314 66.50716L503.90314 70.85091L502.4969 70.85091ZM510.575 69.58528L510.77814 70.83528Q510.1844 70.96028 509.71564 70.96028Q508.95 70.96028 508.52814 70.72591Q508.10626 70.47591 507.9344 70.08528Q507.7625 69.67903 507.7625 68.41341L507.7625 63.64778L506.73126 63.64778L506.73126 62.55403L507.7625 62.55403L507.7625 60.49153L509.16876 59.64778L509.16876 62.55403L510.575 62.55403L510.575 63.64778L509.16876 63.64778L509.16876 68.49153Q509.16876 69.10091 509.23126 69.27278Q509.3094 69.44466 509.48126 69.55403Q509.65314 69.64778 509.96564 69.64778Q510.2 69.64778 510.575 69.58528ZM511.5125 70.85091L511.5125 59.39778L512.91876 59.39778L512.91876 63.507156Q513.90314 62.36653 515.40314 62.36653Q516.325 62.36653 516.9969 62.725906Q517.6844 63.08528 517.96564 63.725906Q518.2625 64.36653 518.2625 65.58528L518.2625 70.85091L516.85626 70.85091L516.85626 65.58528Q516.85626 64.53841 516.40314 64.05403Q515.95 63.569656 515.10626 63.569656Q514.48126 63.569656 513.9344 63.89778Q513.3875 64.22591 513.15314 64.78841Q512.91876 65.33528 512.91876 66.30403L512.91876 70.85091L511.5125 70.85091ZM519.98126 66.69466Q519.98126 64.39778 521.2625 63.288406Q522.34064 62.36653 523.8719 62.36653Q525.59064 62.36653 526.66876 63.49153Q527.7625 64.60091 527.7625 66.58528Q527.7625 68.17903 527.27814 69.10091Q526.79376 70.02278 525.8719 70.53841Q524.96564 71.03841 523.8719 71.03841Q522.1375 71.03841 521.0594 69.92903Q519.98126 68.80403 519.98126 66.69466ZM521.4344 66.69466Q521.4344 68.28841 522.1219 69.08528Q522.825 69.88216 523.8719 69.88216Q524.91876 69.88216 525.60626 69.08528Q526.3094 68.28841 526.3094 66.64778Q526.3094 65.11653 525.60626 64.31966Q524.91876 63.52278 523.8719 63.52278Q522.825 63.52278 522.1219 64.31966Q521.4344 65.10091 521.4344 66.69466ZM529.2469 71.53841L530.6219 71.74153Q530.7 72.38216 531.09064 72.66341Q531.6219 73.05403 532.52814 73.05403Q533.4969 73.05403 534.02814 72.66341Q534.5594 72.27278 534.7469 71.56966Q534.85626 71.14778 534.85626 69.75716Q533.9344 70.85091 532.5594 70.85091Q530.84064 70.85091 529.90314 69.61653Q528.96564 68.38216 528.96564 66.64778Q528.96564 65.46028 529.3875 64.46028Q529.825 63.46028 530.6375 62.913406Q531.46564 62.36653 532.5594 62.36653Q534.02814 62.36653 534.98126 63.55403L534.98126 62.55403L536.27814 62.55403L536.27814 69.72591Q536.27814 71.66341 535.8875 72.47591Q535.4969 73.28841 534.6375 73.75716Q533.77814 74.22591 532.52814 74.22591Q531.04376 74.22591 530.1219 73.55403Q529.21564 72.88216 529.2469 71.53841ZM530.41876 66.55403Q530.41876 68.17903 531.0594 68.92903Q531.71564 69.67903 532.6844 69.67903Q533.65314 69.67903 534.3094 68.94466Q534.96564 68.19466 534.96564 66.60091Q534.96564 65.06966 534.29376 64.30403Q533.6219 63.52278 532.66876 63.52278Q531.73126 63.52278 531.075 64.28841Q530.41876 65.05403 530.41876 66.55403ZM538.4969 70.85091L538.4969 62.55403L539.7625 62.55403L539.7625 63.80403Q540.2469 62.92903 540.65314 62.64778Q541.0594 62.36653 541.5594 62.36653Q542.2625 62.36653 542.9969 62.819656L542.5125 64.11653Q541.9969 63.819656 541.48126 63.819656Q541.02814 63.819656 540.65314 64.10091Q540.29376 64.36653 540.1375 64.86653Q539.90314 65.61653 539.90314 66.50716L539.90314 70.85091L538.4969 70.85091ZM548.91876 69.81966Q548.1375 70.49153 547.41876 70.77278Q546.7 71.03841 545.8719 71.03841Q544.4969 71.03841 543.7625 70.36653Q543.02814 69.69466 543.02814 68.66341Q543.02814 68.05403 543.3094 67.55403Q543.59064 67.03841 544.02814 66.74153Q544.48126 66.42903 545.04376 66.27278Q545.46564 66.16341 546.29376 66.06966Q547.9969 65.86653 548.8094 65.58528Q548.8094 65.28841 548.8094 65.21028Q548.8094 64.35091 548.41876 64.00716Q547.8719 63.52278 546.8094 63.52278Q545.825 63.52278 545.34064 63.882156Q544.8719 64.22591 544.65314 65.10091L543.27814 64.91341Q543.46564 64.03841 543.8875 63.49153Q544.325 62.944656 545.1375 62.663406Q545.95 62.36653 547.0125 62.36653Q548.075 62.36653 548.73126 62.61653Q549.40314 62.86653 549.71564 63.24153Q550.02814 63.61653 550.15314 64.19466Q550.23126 64.55403 550.23126 65.49153L550.23126 67.36653Q550.23126 69.33528 550.3094 69.85091Q550.40314 70.36653 550.66876 70.85091L549.2 70.85091Q548.98126 70.41341 548.91876 69.81966ZM548.8094 66.67903Q548.04376 66.99153 546.5125 67.21028Q545.6375 67.33528 545.27814 67.49153Q544.91876 67.64778 544.71564 67.96028Q544.52814 68.25716 544.52814 68.61653Q544.52814 69.17903 544.95 69.55403Q545.3875 69.92903 546.2 69.92903Q547.0125 69.92903 547.6375 69.58528Q548.27814 69.22591 548.575 68.60091Q548.8094 68.13216 548.8094 67.19466L548.8094 66.67903ZM552.5125 74.03841L552.5125 62.55403L553.79376 62.55403L553.79376 63.632156Q554.2469 62.99153 554.8094 62.67903Q555.3875 62.36653 556.2 62.36653Q557.2625 62.36653 558.075 62.913406Q558.8875 63.46028 559.29376 64.46028Q559.71564 65.44466 559.71564 66.63216Q559.71564 67.91341 559.2469 68.92903Q558.79376 69.94466 557.91876 70.49153Q557.0594 71.03841 556.09064 71.03841Q555.3875 71.03841 554.825 70.74153Q554.27814 70.44466 553.91876 69.99153L553.91876 74.03841L552.5125 74.03841ZM553.77814 66.74153Q553.77814 68.35091 554.41876 69.11653Q555.075 69.88216 555.9969 69.88216Q556.9344 69.88216 557.60626 69.08528Q558.27814 68.28841 558.27814 66.63216Q558.27814 65.03841 557.6219 64.25716Q556.96564 63.46028 556.0594 63.46028Q555.16876 63.46028 554.46564 64.30403Q553.77814 65.14778 553.77814 66.74153ZM561.5125 70.85091L561.5125 59.39778L562.91876 59.39778L562.91876 63.507156Q563.90314 62.36653 565.40314 62.36653Q566.325 62.36653 566.9969 62.725906Q567.6844 63.08528 567.96564 63.725906Q568.2625 64.36653 568.2625 65.58528L568.2625 70.85091L566.85626 70.85091L566.85626 65.58528Q566.85626 64.53841 566.40314 64.05403Q565.95 63.569656 565.10626 63.569656Q564.48126 63.569656 563.9344 63.89778Q563.3875 64.22591 563.15314 64.78841Q562.91876 65.33528 562.91876 66.30403L562.91876 70.85091L561.5125 70.85091ZM570.5125 61.007156L570.5125 59.39778L571.91876 59.39778L571.91876 61.007156L570.5125 61.007156ZM570.5125 70.85091L570.5125 62.55403L571.91876 62.55403L571.91876 70.85091L570.5125 70.85091ZM579.91876 67.80403L581.3094 67.99153Q581.075 69.41341 580.1375 70.22591Q579.21564 71.03841 577.85626 71.03841Q576.15314 71.03841 575.10626 69.92903Q574.075 68.80403 574.075 66.72591Q574.075 65.38216 574.5125 64.38216Q574.96564 63.36653 575.8719 62.86653Q576.79376 62.36653 577.85626 62.36653Q579.21564 62.36653 580.075 63.05403Q580.9344 63.725906 581.16876 64.99153L579.8094 65.19466Q579.60626 64.36653 579.10626 63.944656Q578.6219 63.52278 577.91876 63.52278Q576.85626 63.52278 576.1844 64.28841Q575.52814 65.03841 575.52814 66.69466Q575.52814 68.36653 576.16876 69.13216Q576.8094 69.88216 577.84064 69.88216Q578.66876 69.88216 579.21564 69.38216Q579.77814 68.86653 579.91876 67.80403Z" fill-rule="nonzero"/><path fill="#9e9e9e" d="M542.41876 92.85091L541.0125 92.85091L541.0125 83.88216Q540.4969 84.36653 539.66876 84.85091Q538.85626 85.33528 538.2 85.58528L538.2 84.22591Q539.3719 83.66341 540.2469 82.88216Q541.1375 82.08528 541.5125 81.35091L542.41876 81.35091L542.41876 92.85091ZM550.6219 92.85091L550.6219 90.10091L545.65314 90.10091L545.65314 88.81966L550.8875 81.39778L552.02814 81.39778L552.02814 88.81966L553.575 88.81966L553.575 90.10091L552.02814 90.10091L552.02814 92.85091L550.6219 92.85091ZM550.6219 88.81966L550.6219 83.64778L547.04376 88.81966L550.6219 88.81966ZM555.90314 92.85091L555.90314 91.24153L557.5125 91.24153L557.5125 92.85091L555.90314 92.85091ZM559.1219 89.81966L560.52814 89.63216Q560.77814 90.83528 561.35626 91.36653Q561.9344 91.88216 562.77814 91.88216Q563.7625 91.88216 564.45 91.19466Q565.1375 90.50716 565.1375 89.49153Q565.1375 88.52278 564.4969 87.89778Q563.8719 87.27278 562.8875 87.27278Q562.4969 87.27278 561.90314 87.42903L562.0594 86.19466Q562.2 86.21028 562.27814 86.21028Q563.1844 86.21028 563.90314 85.74153Q564.6219 85.27278 564.6219 84.28841Q564.6219 83.52278 564.09064 83.02278Q563.575 82.50716 562.7469 82.50716Q561.91876 82.50716 561.3719 83.02278Q560.825 83.53841 560.66876 84.56966L559.2625 84.31966Q559.52814 82.89778 560.4344 82.13216Q561.35626 81.35091 562.71564 81.35091Q563.65314 81.35091 564.4344 81.75716Q565.23126 82.14778 565.6375 82.85091Q566.0594 83.53841 566.0594 84.31966Q566.0594 85.06966 565.65314 85.67903Q565.2625 86.28841 564.48126 86.64778Q565.4969 86.88216 566.0594 87.61653Q566.6219 88.35091 566.6219 89.46028Q566.6219 90.96028 565.52814 92.00716Q564.4344 93.05403 562.7625 93.05403Q561.2625 93.05403 560.2625 92.16341Q559.2625 91.25716 559.1219 89.81966ZM568.3875 84.14778Q568.3875 82.91341 568.9969 82.05403Q569.6219 81.19466 570.79376 81.19466Q571.8719 81.19466 572.575 81.97591Q573.27814 82.74153 573.27814 84.22591Q573.27814 85.67903 572.5594 86.47591Q571.85626 87.25716 570.8094 87.25716Q569.7625 87.25716 569.075 86.49153Q568.3875 85.71028 568.3875 84.14778ZM570.825 82.16341Q570.3094 82.16341 569.95 82.61653Q569.60626 83.06966 569.60626 84.28841Q569.60626 85.38216 569.95 85.83528Q570.3094 86.28841 570.825 86.28841Q571.35626 86.28841 571.7 85.83528Q572.0594 85.38216 572.0594 84.17903Q572.0594 83.06966 571.7 82.61653Q571.35626 82.16341 570.825 82.16341ZM570.84064 93.27278L577.10626 81.19466L578.2469 81.19466L571.9969 93.27278L570.84064 93.27278ZM575.79376 90.16341Q575.79376 88.92903 576.40314 88.06966Q577.02814 87.21028 578.2 87.21028Q579.27814 87.21028 579.98126 87.99153Q580.7 88.75716 580.7 90.24153Q580.7 91.69466 579.98126 92.49153Q579.2625 93.27278 578.21564 93.27278Q577.16876 93.27278 576.48126 92.49153Q575.79376 91.71028 575.79376 90.16341ZM578.2469 88.17903Q577.71564 88.17903 577.35626 88.63216Q577.0125 89.08528 577.0125 90.30403Q577.0125 91.39778 577.35626 91.85091Q577.71564 92.30403 578.23126 92.30403Q578.77814 92.30403 579.1219 91.85091Q579.46564 91.39778 579.46564 90.19466Q579.46564 89.08528 579.10626 88.63216Q578.7625 88.17903 578.2469 88.17903Z" fill-rule="nonzero"/><path stroke="#757575" stroke-width="1.0" stroke-linecap="butt" d="M581.45 76.35091L454.76666 76.35091L361.32007 76.35091" fill-rule="nonzero"/><path fill="#9e9e9e" d="M363.32007 76.35091C363.32007 75.24634 362.42462 74.35091 361.32007 74.35091C360.21548 74.35091 359.32007 75.24634 359.32007 76.35091C359.32007 77.455475 360.21548 78.35091 361.32007 78.35091C362.42462 78.35091 363.32007 77.455475 363.32007 76.35091" fill-rule="nonzero"/><path fill="#efefef" d="M498.6844 166.73482L498.6844 155.2817L503.0125 155.2817Q504.15314 155.2817 504.7469 155.39107Q505.59064 155.5317 506.15314 155.92232Q506.73126 156.31294 507.075 157.0317Q507.4344 157.73482 507.4344 158.5942Q507.4344 160.04732 506.4969 161.06294Q505.575 162.07857 503.1375 162.07857L500.2 162.07857L500.2 166.73482L498.6844 166.73482ZM500.2 160.7192L503.16876 160.7192Q504.6375 160.7192 505.2469 160.17232Q505.8719 159.62544 505.8719 158.64107Q505.8719 157.92232 505.4969 157.4067Q505.1375 156.89107 504.54376 156.73482Q504.16876 156.62544 503.1375 156.62544L500.2 156.62544L500.2 160.7192ZM515.1844 164.06294L516.6375 164.23482Q516.29376 165.51607 515.35626 166.2192Q514.4344 166.92232 512.9969 166.92232Q511.16876 166.92232 510.10626 165.79732Q509.04376 164.67232 509.04376 162.6567Q509.04376 160.56294 510.1219 159.4067Q511.2 158.25044 512.91876 158.25044Q514.575 158.25044 515.6219 159.39107Q516.6844 160.51607 516.6844 162.56294Q516.6844 162.68794 516.6844 162.93794L510.4969 162.93794Q510.575 164.31294 511.2625 165.04732Q511.96564 165.76607 512.9969 165.76607Q513.77814 165.76607 514.325 165.35982Q514.8719 164.95357 515.1844 164.06294ZM510.575 161.7817L515.2 161.7817Q515.10626 160.73482 514.66876 160.2192Q513.9969 159.4067 512.9344 159.4067Q511.96564 159.4067 511.29376 160.06294Q510.6375 160.70357 510.575 161.7817ZM518.4969 166.73482L518.4969 158.43794L519.7625 158.43794L519.7625 159.68794Q520.2469 158.81294 520.65314 158.5317Q521.0594 158.25044 521.5594 158.25044Q522.2625 158.25044 522.9969 158.70357L522.5125 160.00044Q521.9969 159.70357 521.48126 159.70357Q521.02814 159.70357 520.65314 159.98482Q520.29376 160.25044 520.1375 160.75044Q519.90314 161.50044 519.90314 162.39107L519.90314 166.73482L518.4969 166.73482ZM522.95 164.25044L524.34064 164.0317Q524.45 164.87544 524.98126 165.32857Q525.52814 165.76607 526.48126 165.76607Q527.45 165.76607 527.91876 165.37544Q528.3875 164.9692 528.3875 164.43794Q528.3875 163.9692 527.98126 163.68794Q527.6844 163.50044 526.54376 163.2192Q524.9969 162.82857 524.3875 162.54732Q523.79376 162.25044 523.48126 161.75044Q523.1844 161.25044 523.1844 160.64107Q523.1844 160.07857 523.4344 159.60982Q523.6844 159.14107 524.1219 158.82857Q524.45 158.57857 525.0125 158.42232Q525.59064 158.25044 526.23126 158.25044Q527.21564 158.25044 527.95 158.5317Q528.6844 158.81294 529.02814 159.29732Q529.3875 159.76607 529.52814 160.57857L528.15314 160.76607Q528.0594 160.12544 527.60626 159.76607Q527.15314 159.4067 526.34064 159.4067Q525.3719 159.4067 524.95 159.73482Q524.54376 160.04732 524.54376 160.4692Q524.54376 160.75044 524.71564 160.9692Q524.8875 161.18794 525.2469 161.3442Q525.46564 161.42232 526.4969 161.70357Q527.98126 162.0942 528.575 162.35982Q529.16876 162.60982 529.4969 163.0942Q529.84064 163.57857 529.84064 164.29732Q529.84064 165.00044 529.41876 165.62544Q529.0125 166.23482 528.23126 166.57857Q527.46564 166.92232 526.4969 166.92232Q524.8719 166.92232 524.02814 166.25044Q523.1844 165.57857 522.95 164.25044ZM531.5125 169.92232L531.5125 158.43794L532.79376 158.43794L532.79376 159.51607Q533.2469 158.87544 533.8094 158.56294Q534.3875 158.25044 535.2 158.25044Q536.2625 158.25044 537.075 158.79732Q537.8875 159.3442 538.29376 160.3442Q538.71564 161.32857 538.71564 162.51607Q538.71564 163.79732 538.2469 164.81294Q537.79376 165.82857 536.91876 166.37544Q536.0594 166.92232 535.09064 166.92232Q534.3875 166.92232 533.825 166.62544Q533.27814 166.32857 532.91876 165.87544L532.91876 169.92232L531.5125 169.92232ZM532.77814 162.62544Q532.77814 164.23482 533.41876 165.00044Q534.075 165.76607 534.9969 165.76607Q535.9344 165.76607 536.60626 164.9692Q537.27814 164.17232 537.27814 162.51607Q537.27814 160.92232 536.6219 160.14107Q535.96564 159.3442 535.0594 159.3442Q534.16876 159.3442 533.46564 160.18794Q532.77814 161.0317 532.77814 162.62544ZM546.1844 164.06294L547.6375 164.23482Q547.29376 165.51607 546.35626 166.2192Q545.4344 166.92232 543.9969 166.92232Q542.16876 166.92232 541.10626 165.79732Q540.04376 164.67232 540.04376 162.6567Q540.04376 160.56294 541.1219 159.4067Q542.2 158.25044 543.91876 158.25044Q545.575 158.25044 546.6219 159.39107Q547.6844 160.51607 547.6844 162.56294Q547.6844 162.68794 547.6844 162.93794L541.4969 162.93794Q541.575 164.31294 542.2625 165.04732Q542.96564 165.76607 543.9969 165.76607Q544.77814 165.76607 545.325 165.35982Q545.8719 164.95357 546.1844 164.06294ZM541.575 161.7817L546.2 161.7817Q546.10626 160.73482 545.66876 160.2192Q544.9969 159.4067 543.9344 159.4067Q542.96564 159.4067 542.29376 160.06294Q541.6375 160.70357 541.575 161.7817ZM554.91876 163.68794L556.3094 163.87544Q556.075 165.29732 555.1375 166.10982Q554.21564 166.92232 552.85626 166.92232Q551.15314 166.92232 550.10626 165.81294Q549.075 164.68794 549.075 162.60982Q549.075 161.26607 549.5125 160.26607Q549.96564 159.25044 550.8719 158.75044Q551.79376 158.25044 552.85626 158.25044Q554.21564 158.25044 555.075 158.93794Q555.9344 159.60982 556.16876 160.87544L554.8094 161.07857Q554.60626 160.25044 554.10626 159.82857Q553.6219 159.4067 552.91876 159.4067Q551.85626 159.4067 551.1844 160.17232Q550.52814 160.92232 550.52814 162.57857Q550.52814 164.25044 551.16876 165.01607Q551.8094 165.76607 552.84064 165.76607Q553.66876 165.76607 554.21564 165.26607Q554.77814 164.75044 554.91876 163.68794ZM560.575 165.4692L560.77814 166.7192Q560.1844 166.8442 559.71564 166.8442Q558.95 166.8442 558.52814 166.60982Q558.10626 166.35982 557.9344 165.9692Q557.7625 165.56294 557.7625 164.29732L557.7625 159.5317L556.73126 159.5317L556.73126 158.43794L557.7625 158.43794L557.7625 156.37544L559.16876 155.5317L559.16876 158.43794L560.575 158.43794L560.575 159.5317L559.16876 159.5317L559.16876 164.37544Q559.16876 164.98482 559.23126 165.1567Q559.3094 165.32857 559.48126 165.43794Q559.65314 165.5317 559.96564 165.5317Q560.2 165.5317 560.575 165.4692ZM561.5125 156.89107L561.5125 155.2817L562.91876 155.2817L562.91876 156.89107L561.5125 156.89107ZM561.5125 166.73482L561.5125 158.43794L562.91876 158.43794L562.91876 166.73482L561.5125 166.73482ZM567.8094 166.73482L564.65314 158.43794L566.1375 158.43794L567.91876 163.4067Q568.21564 164.20357 568.45 165.07857Q568.6375 164.42232 568.98126 163.50044L570.825 158.43794L572.2625 158.43794L569.1219 166.73482L567.8094 166.73482ZM579.1844 164.06294L580.6375 164.23482Q580.29376 165.51607 579.35626 166.2192Q578.4344 166.92232 576.9969 166.92232Q575.16876 166.92232 574.10626 165.79732Q573.04376 164.67232 573.04376 162.6567Q573.04376 160.56294 574.1219 159.4067Q575.2 158.25044 576.91876 158.25044Q578.575 158.25044 579.6219 159.39107Q580.6844 160.51607 580.6844 162.56294Q580.6844 162.68794 580.6844 162.93794L574.4969 162.93794Q574.575 164.31294 575.2625 165.04732Q575.96564 165.76607 576.9969 165.76607Q577.77814 165.76607 578.325 165.35982Q578.8719 164.95357 579.1844 164.06294ZM574.575 161.7817L579.2 161.7817Q579.10626 160.73482 578.66876 160.2192Q577.9969 159.4067 576.9344 159.4067Q575.96564 159.4067 575.29376 160.06294Q574.6375 160.70357 574.575 161.7817Z" fill-rule="nonzero"/><path fill="#9e9e9e" d="M542.41876 188.73482L541.0125 188.73482L541.0125 179.76607Q540.4969 180.25044 539.66876 180.73482Q538.85626 181.2192 538.2 181.4692L538.2 180.10982Q539.3719 179.54732 540.2469 178.76607Q541.1375 177.9692 541.5125 177.23482L542.41876 177.23482L542.41876 188.73482ZM550.6219 188.73482L550.6219 185.98482L545.65314 185.98482L545.65314 184.70357L550.8875 177.2817L552.02814 177.2817L552.02814 184.70357L553.575 184.70357L553.575 185.98482L552.02814 185.98482L552.02814 188.73482L550.6219 188.73482ZM550.6219 184.70357L550.6219 179.5317L547.04376 184.70357L550.6219 184.70357ZM555.90314 188.73482L555.90314 187.12544L557.5125 187.12544L557.5125 188.73482L555.90314 188.73482ZM559.1219 185.70357L560.52814 185.51607Q560.77814 186.7192 561.35626 187.25044Q561.9344 187.76607 562.77814 187.76607Q563.7625 187.76607 564.45 187.07857Q565.1375 186.39107 565.1375 185.37544Q565.1375 184.4067 564.4969 183.7817Q563.8719 183.1567 562.8875 183.1567Q562.4969 183.1567 561.90314 183.31294L562.0594 182.07857Q562.2 182.0942 562.27814 182.0942Q563.1844 182.0942 563.90314 181.62544Q564.6219 181.1567 564.6219 180.17232Q564.6219 179.4067 564.09064 178.9067Q563.575 178.39107 562.7469 178.39107Q561.91876 178.39107 561.3719 178.9067Q560.825 179.42232 560.66876 180.45357L559.2625 180.20357Q559.52814 178.7817 560.4344 178.01607Q561.35626 177.23482 562.71564 177.23482Q563.65314 177.23482 564.4344 177.64107Q565.23126 178.0317 565.6375 178.73482Q566.0594 179.42232 566.0594 180.20357Q566.0594 180.95357 565.65314 181.56294Q565.2625 182.17232 564.48126 182.5317Q565.4969 182.76607 566.0594 183.50044Q566.6219 184.23482 566.6219 185.3442Q566.6219 186.8442 565.52814 187.89107Q564.4344 188.93794 562.7625 188.93794Q561.2625 188.93794 560.2625 188.04732Q559.2625 187.14107 559.1219 185.70357ZM568.3875 180.0317Q568.3875 178.79732 568.9969 177.93794Q569.6219 177.07857 570.79376 177.07857Q571.8719 177.07857 572.575 177.85982Q573.27814 178.62544 573.27814 180.10982Q573.27814 181.56294 572.5594 182.35982Q571.85626 183.14107 570.8094 183.14107Q569.7625 183.14107 569.075 182.37544Q568.3875 181.5942 568.3875 180.0317ZM570.825 178.04732Q570.3094 178.04732 569.95 178.50044Q569.60626 178.95357 569.60626 180.17232Q569.60626 181.26607 569.95 181.7192Q570.3094 182.17232 570.825 182.17232Q571.35626 182.17232 571.7 181.7192Q572.0594 181.26607 572.0594 180.06294Q572.0594 178.95357 571.7 178.50044Q571.35626 178.04732 570.825 178.04732ZM570.84064 189.1567L577.10626 177.07857L578.2469 177.07857L571.9969 189.1567L570.84064 189.1567ZM575.79376 186.04732Q575.79376 184.81294 576.40314 183.95357Q577.02814 183.0942 578.2 183.0942Q579.27814 183.0942 579.98126 183.87544Q580.7 184.64107 580.7 186.12544Q580.7 187.57857 579.98126 188.37544Q579.2625 189.1567 578.21564 189.1567Q577.16876 189.1567 576.48126 188.37544Q575.79376 187.5942 575.79376 186.04732ZM578.2469 184.06294Q577.71564 184.06294 577.35626 184.51607Q577.0125 184.9692 577.0125 186.18794Q577.0125 187.2817 577.35626 187.73482Q577.71564 188.18794 578.23126 188.18794Q578.77814 188.18794 579.1219 187.73482Q579.46564 187.2817 579.46564 186.07857Q579.46564 184.9692 579.10626 184.51607Q578.7625 184.06294 578.2469 184.06294Z" fill-rule="nonzero"/><path stroke="#757575" stroke-width="1.0" stroke-linecap="butt" d="M581.45 172.23482L454.76666 172.23482L437.78494 172.23482" fill-rule="nonzero"/><path fill="#9e9e9e" d="M439.78494 172.23482C439.78494 171.13025 438.8895 170.23482 437.78494 170.23482C436.68036 170.23482 435.78494 171.13025 435.78494 172.23482C435.78494 173.33939 436.68036 174.23482 437.78494 174.23482C438.8895 174.23482 439.78494 173.33939 439.78494 172.23482" fill-rule="nonzero"/><path fill="#efefef" d="M532.6844 268.8475L532.6844 257.39438L536.6375 257.39438Q537.96564 257.39438 538.66876 257.55063Q539.65314 257.785 540.35626 258.37875Q541.2625 259.14438 541.7 260.33188Q542.15314 261.51938 542.15314 263.05063Q542.15314 264.36313 541.84064 265.37875Q541.54376 266.37875 541.0594 267.035Q540.59064 267.69125 540.02814 268.08188Q539.46564 268.45688 538.65314 268.66Q537.85626 268.8475 536.825 268.8475L532.6844 268.8475ZM534.2 267.48813L536.65314 267.48813Q537.77814 267.48813 538.41876 267.285Q539.075 267.06625 539.45 266.69125Q539.9969 266.14438 540.29376 265.23813Q540.59064 264.33188 540.59064 263.035Q540.59064 261.23813 539.9969 260.26938Q539.41876 259.30063 538.575 258.9725Q537.96564 258.73813 536.60626 258.73813L534.2 258.73813L534.2 267.48813ZM550.1844 266.17563L551.6375 266.3475Q551.29376 267.62875 550.35626 268.33188Q549.4344 269.035 547.9969 269.035Q546.16876 269.035 545.10626 267.91Q544.04376 266.785 544.04376 264.76938Q544.04376 262.67563 545.1219 261.51938Q546.2 260.36313 547.91876 260.36313Q549.575 260.36313 550.6219 261.50375Q551.6844 262.62875 551.6844 264.67563Q551.6844 264.80063 551.6844 265.05063L545.4969 265.05063Q545.575 266.42563 546.2625 267.16Q546.96564 267.87875 547.9969 267.87875Q548.77814 267.87875 549.325 267.4725Q549.8719 267.06625 550.1844 266.17563ZM545.575 263.89438L550.2 263.89438Q550.10626 262.8475 549.66876 262.33188Q548.9969 261.51938 547.9344 261.51938Q546.96564 261.51938 546.29376 262.17563Q545.6375 262.81625 545.575 263.89438ZM556.575 267.58188L556.77814 268.83188Q556.1844 268.95688 555.71564 268.95688Q554.95 268.95688 554.52814 268.7225Q554.10626 268.4725 553.9344 268.08188Q553.7625 267.67563 553.7625 266.41L553.7625 261.64438L552.73126 261.64438L552.73126 260.55063L553.7625 260.55063L553.7625 258.48813L555.16876 257.64438L555.16876 260.55063L556.575 260.55063L556.575 261.64438L555.16876 261.64438L555.16876 266.48813Q555.16876 267.0975 555.23126 267.26938Q555.3094 267.44125 555.48126 267.55063Q555.65314 267.64438 555.96564 267.64438Q556.2 267.64438 556.575 267.58188ZM562.91876 267.81625Q562.1375 268.48813 561.41876 268.76938Q560.7 269.035 559.8719 269.035Q558.4969 269.035 557.7625 268.36313Q557.02814 267.69125 557.02814 266.66Q557.02814 266.05063 557.3094 265.55063Q557.59064 265.035 558.02814 264.73813Q558.48126 264.42563 559.04376 264.26938Q559.46564 264.16 560.29376 264.06625Q561.9969 263.86313 562.8094 263.58188Q562.8094 263.285 562.8094 263.20688Q562.8094 262.3475 562.41876 262.00375Q561.8719 261.51938 560.8094 261.51938Q559.825 261.51938 559.34064 261.87875Q558.8719 262.2225 558.65314 263.0975L557.27814 262.91Q557.46564 262.035 557.8875 261.48813Q558.325 260.94125 559.1375 260.66Q559.95 260.36313 561.0125 260.36313Q562.075 260.36313 562.73126 260.61313Q563.40314 260.86313 563.71564 261.23813Q564.02814 261.61313 564.15314 262.19125Q564.23126 262.55063 564.23126 263.48813L564.23126 265.36313Q564.23126 267.33188 564.3094 267.8475Q564.40314 268.36313 564.66876 268.8475L563.2 268.8475Q562.98126 268.41 562.91876 267.81625ZM562.8094 264.67563Q562.04376 264.98813 560.5125 265.20688Q559.6375 265.33188 559.27814 265.48813Q558.91876 265.64438 558.71564 265.95688Q558.52814 266.25375 558.52814 266.61313Q558.52814 267.17563 558.95 267.55063Q559.3875 267.92563 560.2 267.92563Q561.0125 267.92563 561.6375 267.58188Q562.27814 267.2225 562.575 266.5975Q562.8094 266.12875 562.8094 265.19125L562.8094 264.67563ZM566.5125 259.00375L566.5125 257.39438L567.91876 257.39438L567.91876 259.00375L566.5125 259.00375ZM566.5125 268.8475L566.5125 260.55063L567.91876 260.55063L567.91876 268.8475L566.5125 268.8475ZM570.48126 268.8475L570.48126 257.39438L571.8875 257.39438L571.8875 268.8475L570.48126 268.8475ZM573.95 266.36313L575.34064 266.14438Q575.45 266.98813 575.98126 267.44125Q576.52814 267.87875 577.48126 267.87875Q578.45 267.87875 578.91876 267.48813Q579.3875 267.08188 579.3875 266.55063Q579.3875 266.08188 578.98126 265.80063Q578.6844 265.61313 577.54376 265.33188Q575.9969 264.94125 575.3875 264.66Q574.79376 264.36313 574.48126 263.86313Q574.1844 263.36313 574.1844 262.75375Q574.1844 262.19125 574.4344 261.7225Q574.6844 261.25375 575.1219 260.94125Q575.45 260.69125 576.0125 260.535Q576.59064 260.36313 577.23126 260.36313Q578.21564 260.36313 578.95 260.64438Q579.6844 260.92563 580.02814 261.41Q580.3875 261.87875 580.52814 262.69125L579.15314 262.87875Q579.0594 262.23813 578.60626 261.87875Q578.15314 261.51938 577.34064 261.51938Q576.3719 261.51938 575.95 261.8475Q575.54376 262.16 575.54376 262.58188Q575.54376 262.86313 575.71564 263.08188Q575.8875 263.30063 576.2469 263.45688Q576.46564 263.535 577.4969 263.81625Q578.98126 264.20688 579.575 264.4725Q580.16876 264.7225 580.4969 265.20688Q580.84064 265.69125 580.84064 266.41Q580.84064 267.11313 580.41876 267.73813Q580.0125 268.3475 579.23126 268.69125Q578.46564 269.035 577.4969 269.035Q575.8719 269.035 575.02814 268.36313Q574.1844 267.69125 573.95 266.36313Z" fill-rule="nonzero"/><path fill="#9e9e9e" d="M546.325 288.19125L547.6844 288.06625Q547.85626 289.01938 548.34064 289.45688Q548.825 289.87875 549.575 289.87875Q550.23126 289.87875 550.71564 289.58188Q551.2 289.285 551.5125 288.80063Q551.825 288.30063 552.02814 287.45688Q552.2469 286.61313 552.2469 285.73813Q552.2469 285.64438 552.2469 285.45688Q551.825 286.12875 551.09064 286.55063Q550.35626 286.95688 549.5125 286.95688Q548.09064 286.95688 547.10626 285.92563Q546.1219 284.89438 546.1219 283.20688Q546.1219 281.4725 547.1375 280.41Q548.16876 279.3475 549.71564 279.3475Q550.84064 279.3475 551.7625 279.95688Q552.6844 280.55063 553.16876 281.66Q553.65314 282.76938 553.65314 284.87875Q553.65314 287.08188 553.16876 288.37875Q552.7 289.67563 551.7469 290.36313Q550.8094 291.05063 549.54376 291.05063Q548.2 291.05063 547.34064 290.30063Q546.4969 289.55063 546.325 288.19125ZM552.09064 283.14438Q552.09064 281.92563 551.4344 281.2225Q550.79376 280.50375 549.8875 280.50375Q548.95 280.50375 548.2469 281.26938Q547.5594 282.035 547.5594 283.25375Q547.5594 284.3475 548.21564 285.035Q548.8875 285.7225 549.85626 285.7225Q550.825 285.7225 551.45 285.035Q552.09064 284.3475 552.09064 283.14438ZM555.90314 290.8475L555.90314 289.23813L557.5125 289.23813L557.5125 290.8475L555.90314 290.8475ZM559.1219 287.8475L560.59064 287.7225Q560.7625 288.80063 561.35626 289.3475Q561.95 289.87875 562.79376 289.87875Q563.8094 289.87875 564.5125 289.11313Q565.21564 288.3475 565.21564 287.08188Q565.21564 285.87875 564.54376 285.19125Q563.8719 284.48813 562.77814 284.48813Q562.09064 284.48813 561.54376 284.80063Q560.9969 285.11313 560.6844 285.5975L559.3719 285.42563L560.48126 279.55063L566.16876 279.55063L566.16876 280.89438L561.60626 280.89438L560.98126 283.9725Q562.0125 283.25375 563.15314 283.25375Q564.65314 283.25375 565.6844 284.30063Q566.71564 285.33188 566.71564 286.95688Q566.71564 288.51938 565.8094 289.64438Q564.7 291.05063 562.79376 291.05063Q561.23126 291.05063 560.2469 290.17563Q559.2625 289.285 559.1219 287.8475ZM568.3875 282.14438Q568.3875 280.91 568.9969 280.05063Q569.6219 279.19125 570.79376 279.19125Q571.8719 279.19125 572.575 279.9725Q573.27814 280.73813 573.27814 282.2225Q573.27814 283.67563 572.5594 284.4725Q571.85626 285.25375 570.8094 285.25375Q569.7625 285.25375 569.075 284.48813Q568.3875 283.70688 568.3875 282.14438ZM570.825 280.16Q570.3094 280.16 569.95 280.61313Q569.60626 281.06625 569.60626 282.285Q569.60626 283.37875 569.95 283.83188Q570.3094 284.285 570.825 284.285Q571.35626 284.285 571.7 283.83188Q572.0594 283.37875 572.0594 282.17563Q572.0594 281.06625 571.7 280.61313Q571.35626 280.16 570.825 280.16ZM570.84064 291.26938L577.10626 279.19125L578.2469 279.19125L571.9969 291.26938L570.84064 291.26938ZM575.79376 288.16Q575.79376 286.92563 576.40314 286.06625Q577.02814 285.20688 578.2 285.20688Q579.27814 285.20688 579.98126 285.98813Q580.7 286.75375 580.7 288.23813Q580.7 289.69125 579.98126 290.48813Q579.2625 291.26938 578.21564 291.26938Q577.16876 291.26938 576.48126 290.48813Q575.79376 289.70688 575.79376 288.16ZM578.2469 286.17563Q577.71564 286.17563 577.35626 286.62875Q577.0125 287.08188 577.0125 288.30063Q577.0125 289.39438 577.35626 289.8475Q577.71564 290.30063 578.23126 290.30063Q578.77814 290.30063 579.1219 289.8475Q579.46564 289.39438 579.46564 288.19125Q579.46564 287.08188 579.10626 286.62875Q578.7625 286.17563 578.2469 286.17563Z" fill-rule="nonzero"/><path stroke="#757575" stroke-width="1.0" stroke-linecap="butt" d="M581.45 274.3475L454.76666 274.3475L422.39392 274.3475" fill-rule="nonzero"/><path fill="#9e9e9e" d="M424.39392 274.3475C424.39392 273.24292 423.4985 272.3475 422.39392 272.3475C421.28937 272.3475 420.39392 273.24292 420.39392 274.3475C420.39392 275.45206 421.28937 276.3475 422.39392 276.3475C423.4985 276.3475 424.39392 275.45206 424.39392 274.3475" fill-rule="nonzero"/><path fill="#f3f3f3" d="M265.98438 37.55L265.98438 23.2375L268.84375 23.2375L272.21875 33.3625Q272.6875 34.784374 272.90625 35.4875Q273.15625 34.70625 273.67188 33.190624L277.09375 23.2375L279.64062 23.2375L279.64062 37.55L277.82812 37.55L277.82812 25.565624L273.65625 37.55L271.95312 37.55L267.8125 25.3625L267.8125 37.55L265.98438 37.55ZM289.92188 34.20625L291.73438 34.440624Q291.3125 36.01875 290.14062 36.909374Q288.98438 37.784374 287.17188 37.784374Q284.90625 37.784374 283.5625 36.39375Q282.23438 34.9875 282.23438 32.45625Q282.23438 29.83125 283.57812 28.39375Q284.92188 26.940624 287.07812 26.940624Q289.15625 26.940624 290.46875 28.3625Q291.79688 29.76875 291.79688 32.346874Q291.79688 32.503124 291.78125 32.815624L284.04688 32.815624Q284.14062 34.51875 285.01562 35.425Q285.89062 36.33125 287.1875 36.33125Q288.15625 36.33125 288.82812 35.83125Q289.51562 35.315624 289.92188 34.20625ZM284.14062 31.3625L289.9375 31.3625Q289.82812 30.065624 289.28125 29.409374Q288.4375 28.39375 287.09375 28.39375Q285.89062 28.39375 285.0625 29.20625Q284.23438 30.003124 284.14062 31.3625ZM300.54688 37.55L300.54688 36.2375Q299.5625 37.784374 297.64062 37.784374Q296.40625 37.784374 295.35938 37.096874Q294.32812 36.409374 293.75 35.190624Q293.1875 33.971874 293.1875 32.378124Q293.1875 30.815624 293.70312 29.55Q294.21875 28.284374 295.25 27.6125Q296.29688 26.940624 297.5625 26.940624Q298.5 26.940624 299.23438 27.346874Q299.96875 27.7375 300.4375 28.3625L300.4375 23.2375L302.17188 23.2375L302.17188 37.55L300.54688 37.55ZM294.98438 32.378124Q294.98438 34.3625 295.82812 35.346874Q296.67188 36.33125 297.8125 36.33125Q298.96875 36.33125 299.76562 35.39375Q300.57812 34.45625 300.57812 32.51875Q300.57812 30.39375 299.75 29.39375Q298.9375 28.39375 297.73438 28.39375Q296.5625 28.39375 295.76562 29.3625Q294.98438 30.315624 294.98438 32.378124ZM304.82812 25.253124L304.82812 23.2375L306.59375 23.2375L306.59375 25.253124L304.82812 25.253124ZM304.82812 37.55L304.82812 27.175L306.59375 27.175L306.59375 37.55L304.82812 37.55ZM315.60938 37.55L315.60938 36.01875Q314.40625 37.784374 312.32812 37.784374Q311.40625 37.784374 310.60938 37.440624Q309.8125 37.08125 309.42188 36.55Q309.04688 36.01875 308.89062 35.2375Q308.78125 34.721874 308.78125 33.596874L308.78125 27.175L310.53125 27.175L310.53125 32.925Q310.53125 34.3 310.64062 34.784374Q310.8125 35.471874 311.34375 35.878124Q311.89062 36.26875 312.67188 36.26875Q313.46875 36.26875 314.15625 35.8625Q314.85938 35.45625 315.14062 34.76875Q315.4375 34.065624 315.4375 32.7375L315.4375 27.175L317.1875 27.175L317.1875 37.55L315.60938 37.55ZM319.8125 37.55L319.8125 27.175L321.39062 27.175L321.39062 28.628124Q321.875 27.878124 322.6875 27.409374Q323.5 26.940624 324.53125 26.940624Q325.6875 26.940624 326.42188 27.425Q327.15625 27.89375 327.46875 28.753124Q328.70312 26.940624 330.67188 26.940624Q332.21875 26.940624 333.04688 27.8Q333.875 28.659374 333.875 30.425L333.875 37.55L332.125 37.55L332.125 31.01875Q332.125 29.95625 331.95312 29.503124Q331.78125 29.034374 331.32812 28.753124Q330.89062 28.471874 330.28125 28.471874Q329.1875 28.471874 328.45312 29.20625Q327.73438 29.925 327.73438 31.51875L327.73438 37.55L325.98438 37.55L325.98438 30.815624Q325.98438 29.64375 325.54688 29.065624Q325.125 28.471874 324.14062 28.471874Q323.40625 28.471874 322.76562 28.8625Q322.14062 29.253124 321.85938 30.003124Q321.57812 30.753124 321.57812 32.175L321.57812 37.55L319.8125 37.55Z" fill-rule="nonzero"/></svg>