<svg version="1.1" viewBox="0.0 0.0 600.0 371.0" fill="none" stroke="none" stroke-linecap="square" stroke-miterlimit="10" width="600" height="371" xmlns:xlink="http://www.w3.org/1999/xlink" xmlns="http://www.w3.org/2000/svg"><path fill="#ffffff" fill-opacity="0.0" d="M0 0L600.0 0L600.0 371.0L0 371.0L0 0Z" fill-rule="nonzero"/><path fill="#533990" d="M300.0 54.916668C345.27335 54.916668 388.08298 75.53269 416.31046 110.92883L329.0776 180.4947C322.02075 171.64568 311.31833 166.49167 300.0 166.49167Z" fill-rule="nonzero"/><path fill="#e5a345" d="M154.96323 236.78703C144.88895 192.64877 155.46205 146.32497 183.68953 110.92883C211.91702 75.53269 254.72664 54.916668 300.0 54.916668L300.0 166.49167C288.68167 166.49167 277.97925 171.64568 270.9224 180.4947C263.8655 189.34375 261.22223 200.9247 263.7408 211.95926Z" fill-rule="nonzero"/><path fill="#df8d43" d="M183.68953 296.43784C169.75497 278.96445 159.93642 258.576 154.96323 236.78703L263.7408 211.95926C264.9841 217.4065 267.43875 222.50362 270.9224 226.87196Z" fill-rule="nonzero"/><path fill="#cf4366" d="M416.31046 110.92883C467.53735 175.16533 456.991 268.7669 392.7545 319.9938C328.518 371.2207 234.91643 360.67432 183.68953 296.43784L270.9224 226.87196C283.7291 242.93108 307.1295 245.56767 323.18863 232.76096C339.24774 219.95422 341.88434 196.55383 329.0776 180.4947Z" fill-rule="nonzero"/><path fill="#ffffff" d="M327.28397 114.495476L325.70584 114.495476L325.70584 104.41735Q325.12772 104.964226 324.20584 105.5111Q323.28397 106.04235 322.53397 106.3236L322.53397 104.79235Q323.8621 104.16735 324.8621 103.276726Q325.8621 102.3861 326.26834 101.557976L327.28397 101.557976L327.28397 114.495476ZM336.39334 114.495476L336.39334 111.41735L330.81522 111.41735L330.81522 109.964226L336.69022 101.60485L337.9871 101.60485L337.9871 109.964226L339.72147 109.964226L339.72147 111.41735L337.9871 111.41735L337.9871 114.495476L336.39334 114.495476ZM336.39334 109.964226L336.39334 104.151726L332.3621 109.964226L336.39334 109.964226ZM342.22147 114.495476L342.22147 112.6986L344.01834 112.6986L344.01834 114.495476L342.22147 114.495476ZM346.33084 111.089226L347.9246 110.8861Q348.19022 112.22985 348.84647 112.8236Q349.50272 113.41735 350.44022 113.41735Q351.56522 113.41735 352.33084 112.651726Q353.09647 111.870476 353.09647 110.72985Q353.09647 109.6361 352.37772 108.932976Q351.6746 108.214226 350.58084 108.214226Q350.12772 108.214226 349.45584 108.401726L349.62772 107.0111Q349.78397 107.026726 349.89334 107.026726Q350.89334 107.026726 351.70584 106.495476Q352.51834 105.964226 352.51834 104.870476Q352.51834 103.995476 351.9246 103.432976Q351.33084 102.85485 350.40897 102.85485Q349.4871 102.85485 348.8621 103.432976Q348.25272 104.0111 348.08084 105.182976L346.50272 104.901726Q346.78397 103.307976 347.81522 102.432976Q348.84647 101.557976 350.37772 101.557976Q351.4246 101.557976 352.31522 102.0111Q353.20584 102.464226 353.6746 103.245476Q354.14334 104.026726 354.14334 104.901726Q354.14334 105.745476 353.69022 106.432976Q353.25272 107.10485 352.3621 107.5111Q353.50272 107.776726 354.12772 108.620476Q354.76834 109.4486 354.76834 110.682976Q354.76834 112.370476 353.53397 113.557976Q352.31522 114.72985 350.44022 114.72985Q348.7371 114.72985 347.6121 113.714226Q346.50272 112.6986 346.33084 111.089226ZM356.62772 104.6986Q356.62772 103.3236 357.31522 102.35485Q358.01834 101.3861 359.33084 101.3861Q360.5496 101.3861 361.34647 102.2611Q362.14334 103.120476 362.14334 104.807976Q362.14334 106.432976 361.33084 107.3236Q360.53397 108.1986 359.34647 108.1986Q358.19022 108.1986 357.40897 107.339226Q356.62772 106.464226 356.62772 104.6986ZM359.37772 102.47985Q358.78397 102.47985 358.39334 102.995476Q358.00272 103.495476 358.00272 104.85485Q358.00272 106.10485 358.39334 106.60485Q358.7996 107.10485 359.37772 107.10485Q359.97147 107.10485 360.3621 106.60485Q360.75272 106.089226 360.75272 104.745476Q360.75272 103.495476 360.3621 102.995476Q359.97147 102.47985 359.37772 102.47985ZM359.39334 114.964226L366.44022 101.3861L367.72147 101.3861L360.69022 114.964226L359.39334 114.964226ZM364.95584 111.464226Q364.95584 110.089226 365.64334 109.120476Q366.34647 108.151726 367.6746 108.151726Q368.89334 108.151726 369.6746 109.026726Q370.47147 109.8861 370.47147 111.5736Q370.47147 113.1986 369.6746 114.089226Q368.87772 114.964226 367.69022 114.964226Q366.51834 114.964226 365.7371 114.089226Q364.95584 113.214226 364.95584 111.464226ZM367.72147 109.245476Q367.12772 109.245476 366.7371 109.7611Q366.34647 110.2611 366.34647 111.6361Q366.34647 112.85485 366.7371 113.370476Q367.12772 113.8861 367.70584 113.8861Q368.31522 113.8861 368.70584 113.370476Q369.09647 112.85485 369.09647 111.5111Q369.09647 110.2611 368.70584 109.7611Q368.31522 109.245476 367.72147 109.245476Z" fill-rule="nonzero"/><path fill="#ffffff" d="M339.4173 287.27158L341.07355 287.13095Q341.26105 288.3497 341.93292 288.95908Q342.6048 289.56845 343.55792 289.56845Q344.69855 289.56845 345.4798 288.70908Q346.27667 287.8497 346.27667 286.4122Q346.27667 285.06845 345.51105 284.2872Q344.76105 283.50595 343.52667 283.50595Q342.76105 283.50595 342.13605 283.8497Q341.52667 284.19345 341.18292 284.75595L339.69855 284.55283L340.94855 277.94345L347.3548 277.94345L347.3548 279.44345L342.21417 279.44345L341.51105 282.9122Q342.68292 282.0997 343.94855 282.0997Q345.63605 282.0997 346.7923 283.27158Q347.96417 284.44345 347.96417 286.27158Q347.96417 288.02158 346.93292 289.30283Q345.69855 290.86533 343.55792 290.86533Q341.7923 290.86533 340.68292 289.88095Q339.57355 288.89658 339.4173 287.27158ZM349.4173 284.2872Q349.4173 282.00595 349.88605 280.61533Q350.3548 279.2247 351.27667 278.4747Q352.21417 277.70908 353.62042 277.70908Q354.65167 277.70908 355.43292 278.13095Q356.21417 278.5372 356.71417 279.33408Q357.2298 280.11533 357.52667 281.25595Q357.82355 282.38095 357.82355 284.2872Q357.82355 286.55283 357.3548 287.95908Q356.88605 289.3497 355.94855 290.11533Q355.02667 290.86533 353.62042 290.86533Q351.74542 290.86533 350.68292 289.5372Q349.4173 287.92783 349.4173 284.2872ZM351.0423 284.2872Q351.0423 287.45908 351.77667 288.52158Q352.52667 289.56845 353.62042 289.56845Q354.69855 289.56845 355.44855 288.52158Q356.19855 287.45908 356.19855 284.2872Q356.19855 281.11533 355.44855 280.06845Q354.69855 279.02158 353.6048 279.02158Q352.51105 279.02158 351.8548 279.94345Q351.0423 281.11533 351.0423 284.2872ZM360.30792 290.64658L360.30792 288.8497L362.1048 288.8497L362.1048 290.64658L360.30792 290.64658ZM364.4173 284.2872Q364.4173 282.00595 364.88605 280.61533Q365.3548 279.2247 366.27667 278.4747Q367.21417 277.70908 368.62042 277.70908Q369.65167 277.70908 370.43292 278.13095Q371.21417 278.5372 371.71417 279.33408Q372.2298 280.11533 372.52667 281.25595Q372.82355 282.38095 372.82355 284.2872Q372.82355 286.55283 372.3548 287.95908Q371.88605 289.3497 370.94855 290.11533Q370.02667 290.86533 368.62042 290.86533Q366.74542 290.86533 365.68292 289.5372Q364.4173 287.92783 364.4173 284.2872ZM366.0423 284.2872Q366.0423 287.45908 366.77667 288.52158Q367.52667 289.56845 368.62042 289.56845Q369.69855 289.56845 370.44855 288.52158Q371.19855 287.45908 371.19855 284.2872Q371.19855 281.11533 370.44855 280.06845Q369.69855 279.02158 368.6048 279.02158Q367.51105 279.02158 366.8548 279.94345Q366.0423 281.11533 366.0423 284.2872ZM374.71417 280.8497Q374.71417 279.4747 375.40167 278.50595Q376.1048 277.5372 377.4173 277.5372Q378.63605 277.5372 379.43292 278.4122Q380.2298 279.27158 380.2298 280.95908Q380.2298 282.58408 379.4173 283.4747Q378.62042 284.3497 377.43292 284.3497Q376.27667 284.3497 375.49542 283.49033Q374.71417 282.61533 374.71417 280.8497ZM377.46417 278.63095Q376.87042 278.63095 376.4798 279.14658Q376.08917 279.64658 376.08917 281.00595Q376.08917 282.25595 376.4798 282.75595Q376.88605 283.25595 377.46417 283.25595Q378.05792 283.25595 378.44855 282.75595Q378.83917 282.24033 378.83917 280.89658Q378.83917 279.64658 378.44855 279.14658Q378.05792 278.63095 377.46417 278.63095ZM377.4798 291.11533L384.52667 277.5372L385.80792 277.5372L378.77667 291.11533L377.4798 291.11533ZM383.0423 287.61533Q383.0423 286.24033 383.7298 285.27158Q384.43292 284.30283 385.76105 284.30283Q386.9798 284.30283 387.76105 285.17783Q388.55792 286.0372 388.55792 287.7247Q388.55792 289.3497 387.76105 290.24033Q386.96417 291.11533 385.77667 291.11533Q384.6048 291.11533 383.82355 290.24033Q383.0423 289.36533 383.0423 287.61533ZM385.80792 285.39658Q385.21417 285.39658 384.82355 285.9122Q384.43292 286.4122 384.43292 287.7872Q384.43292 289.00595 384.82355 289.52158Q385.21417 290.0372 385.7923 290.0372Q386.40167 290.0372 386.7923 289.52158Q387.18292 289.00595 387.18292 287.6622Q387.18292 286.4122 386.7923 285.9122Q386.40167 285.39658 385.80792 285.39658Z" fill-rule="nonzero"/><path fill="#ffffff" d="M185.1333 244.83868L185.1333 243.32306L193.46143 243.32306L193.46143 244.55743Q192.24268 245.86993 191.02393 248.04181Q189.8208 250.19806 189.16455 252.49493Q188.68018 254.11993 188.55518 256.0418L186.93018 256.0418Q186.96143 254.52618 187.52393 252.36993Q188.10205 250.21368 189.16455 248.21368Q190.22705 246.21368 191.43018 244.83868L185.1333 244.83868ZM195.91455 256.0418L195.91455 254.24493L197.71143 254.24493L197.71143 256.0418L195.91455 256.0418ZM205.97705 256.0418L204.39893 256.0418L204.39893 245.96368Q203.8208 246.51056 202.89893 247.05743Q201.97705 247.58868 201.22705 247.86993L201.22705 246.33868Q202.55518 245.71368 203.55518 244.82306Q204.55518 243.93243 204.96143 243.10431L205.97705 243.10431L205.97705 256.0418ZM210.3208 246.24493Q210.3208 244.86993 211.0083 243.90118Q211.71143 242.93243 213.02393 242.93243Q214.24268 242.93243 215.03955 243.80743Q215.83643 244.66681 215.83643 246.35431Q215.83643 247.97931 215.02393 248.86993Q214.22705 249.74493 213.03955 249.74493Q211.8833 249.74493 211.10205 248.88556Q210.3208 248.01056 210.3208 246.24493ZM213.0708 244.02618Q212.47705 244.02618 212.08643 244.54181Q211.6958 245.04181 211.6958 246.40118Q211.6958 247.65118 212.08643 248.15118Q212.49268 248.65118 213.0708 248.65118Q213.66455 248.65118 214.05518 248.15118Q214.4458 247.63556 214.4458 246.29181Q214.4458 245.04181 214.05518 244.54181Q213.66455 244.02618 213.0708 244.02618ZM213.08643 256.51056L220.1333 242.93243L221.41455 242.93243L214.3833 256.51056L213.08643 256.51056ZM218.64893 253.01056Q218.64893 251.63556 219.33643 250.66681Q220.03955 249.69806 221.36768 249.69806Q222.58643 249.69806 223.36768 250.57306Q224.16455 251.43243 224.16455 253.11993Q224.16455 254.74493 223.36768 255.63556Q222.5708 256.51056 221.3833 256.51056Q220.21143 256.51056 219.43018 255.63556Q218.64893 254.76056 218.64893 253.01056ZM221.41455 250.79181Q220.8208 250.79181 220.43018 251.30743Q220.03955 251.80743 220.03955 253.18243Q220.03955 254.40118 220.43018 254.91681Q220.8208 255.43243 221.39893 255.43243Q222.0083 255.43243 222.39893 254.91681Q222.78955 254.40118 222.78955 253.05743Q222.78955 251.80743 222.39893 251.30743Q222.0083 250.79181 221.41455 250.79181Z" fill-rule="nonzero"/><path fill="#ffffff" d="M204.3777 145.51994L204.3777 147.03557L195.86208 147.03557Q195.84645 146.45744 196.04958 145.94182Q196.3777 145.06682 197.08083 144.22307Q197.79958 143.37932 199.15895 142.26994Q201.2527 140.5512 201.98708 139.5512Q202.73708 138.53557 202.73708 137.64494Q202.73708 136.69182 202.0652 136.0512Q201.39333 135.41057 200.3152 135.41057Q199.15895 135.41057 198.47145 136.09807Q197.79958 136.78557 197.78395 137.9887L196.15895 137.81682Q196.33083 136.00432 197.40895 135.0512Q198.5027 134.09807 200.34645 134.09807Q202.1902 134.09807 203.26833 135.12932Q204.36208 136.16057 204.36208 137.6762Q204.36208 138.44182 204.03395 139.19182Q203.72145 139.94182 202.98708 140.76994Q202.2527 141.59807 200.54958 143.03557Q199.1277 144.2387 198.72145 144.66057Q198.3152 145.08244 198.0652 145.51994L204.3777 145.51994ZM208.5027 140.0512Q207.51833 139.69182 207.03395 139.01994Q206.5652 138.34807 206.5652 137.4262Q206.5652 136.01994 207.5652 135.06682Q208.58083 134.09807 210.26833 134.09807Q211.95583 134.09807 212.97145 135.08244Q214.0027 136.0512 214.0027 137.45744Q214.0027 138.3637 213.53395 139.03557Q213.0652 139.69182 212.11208 140.0512Q213.29958 140.44182 213.90895 141.3012Q214.53395 142.16057 214.53395 143.34807Q214.53395 145.00432 213.36208 146.12932Q212.1902 147.25432 210.28395 147.25432Q208.3777 147.25432 207.20583 146.12932Q206.04958 144.9887 206.04958 143.3012Q206.04958 142.0512 206.67458 141.20744Q207.3152 140.34807 208.5027 140.0512ZM208.17458 137.3637Q208.17458 138.28557 208.76833 138.8637Q209.36208 139.44182 210.29958 139.44182Q211.20583 139.44182 211.78395 138.8637Q212.3777 138.28557 212.3777 137.45744Q212.3777 136.58244 211.76833 135.9887Q211.17458 135.39494 210.28395 135.39494Q209.3777 135.39494 208.76833 135.97307Q208.17458 136.5512 208.17458 137.3637ZM207.67458 143.31682Q207.67458 143.9887 207.98708 144.62932Q208.3152 145.25432 208.9402 145.6137Q209.58083 145.95744 210.3152 145.95744Q211.4402 145.95744 212.17458 145.22307Q212.92458 144.4887 212.92458 143.3637Q212.92458 142.22307 212.15895 141.4887Q211.39333 140.7387 210.2527 140.7387Q209.14333 140.7387 208.40895 141.47307Q207.67458 142.20744 207.67458 143.31682ZM216.95583 147.03557L216.95583 145.2387L218.7527 145.2387L218.7527 147.03557L216.95583 147.03557ZM229.26833 137.3012L227.70583 137.4262Q227.48708 136.50432 227.09645 136.08244Q226.45583 135.39494 225.51833 135.39494Q224.76833 135.39494 224.1902 135.81682Q223.4402 136.3637 223.0027 137.41057Q222.58083 138.45744 222.5652 140.39494Q223.14333 139.51994 223.95583 139.09807Q224.78395 138.6762 225.6902 138.6762Q227.28395 138.6762 228.39333 139.84807Q229.5027 141.00432 229.5027 142.84807Q229.5027 144.06682 228.97145 145.1137Q228.45583 146.14494 227.53395 146.70744Q226.6277 147.25432 225.47145 147.25432Q223.48708 147.25432 222.23708 145.8012Q220.98708 144.34807 220.98708 141.00432Q220.98708 137.26994 222.3777 135.56682Q223.58083 134.09807 225.61208 134.09807Q227.14333 134.09807 228.11208 134.95744Q229.08083 135.8012 229.26833 137.3012ZM222.8152 142.8637Q222.8152 143.6762 223.15895 144.4262Q223.5027 145.1762 224.1277 145.56682Q224.7527 145.95744 225.4402 145.95744Q226.4402 145.95744 227.15895 145.14494Q227.8777 144.33244 227.8777 142.94182Q227.8777 141.6137 227.15895 140.84807Q226.45583 140.06682 225.3777 140.06682Q224.29958 140.06682 223.54958 140.84807Q222.8152 141.6137 222.8152 142.8637ZM231.36208 137.2387Q231.36208 135.8637 232.04958 134.89494Q232.7527 133.9262 234.0652 133.9262Q235.28395 133.9262 236.08083 134.8012Q236.8777 135.66057 236.8777 137.34807Q236.8777 138.97307 236.0652 139.8637Q235.26833 140.7387 234.08083 140.7387Q232.92458 140.7387 232.14333 139.87932Q231.36208 139.00432 231.36208 137.2387ZM234.11208 135.01994Q233.51833 135.01994 233.1277 135.53557Q232.73708 136.03557 232.73708 137.39494Q232.73708 138.64494 233.1277 139.14494Q233.53395 139.64494 234.11208 139.64494Q234.70583 139.64494 235.09645 139.14494Q235.48708 138.62932 235.48708 137.28557Q235.48708 136.03557 235.09645 135.53557Q234.70583 135.01994 234.11208 135.01994ZM234.1277 147.50432L241.17458 133.9262L242.45583 133.9262L235.42458 147.50432L234.1277 147.50432ZM239.6902 144.00432Q239.6902 142.62932 240.3777 141.66057Q241.08083 140.69182 242.40895 140.69182Q243.6277 140.69182 244.40895 141.56682Q245.20583 142.4262 245.20583 144.1137Q245.20583 145.7387 244.40895 146.62932Q243.61208 147.50432 242.42458 147.50432Q241.2527 147.50432 240.47145 146.62932Q239.6902 145.75432 239.6902 144.00432ZM242.45583 141.78557Q241.86208 141.78557 241.47145 142.3012Q241.08083 142.8012 241.08083 144.1762Q241.08083 145.39494 241.47145 145.91057Q241.86208 146.4262 242.4402 146.4262Q243.04958 146.4262 243.4402 145.91057Q243.83083 145.39494 243.83083 144.0512Q243.83083 142.8012 243.4402 142.3012Q243.04958 141.78557 242.45583 141.78557Z" fill-rule="nonzero"/><path stroke="#ffffff" stroke-width="1.0" stroke-linejoin="round" stroke-linecap="round" d="M329.0776 180.4947C322.02075 171.64568 311.31833 166.49167 300.0 166.49167L300.0 54.916668C345.27335 54.916668 388.08298 75.53269 416.31046 110.92883" fill-rule="nonzero"/><path stroke="#ffffff" stroke-width="1.0" stroke-linejoin="round" stroke-linecap="round" d="M270.9224 226.87196C283.7291 242.93108 307.1295 245.56767 323.18863 232.76096C339.24774 219.95422 341.88434 196.55383 329.0776 180.4947L416.31046 110.92883C467.53735 175.16533 456.991 268.7669 392.7545 319.9938C328.518 371.2207 234.91643 360.67432 183.68953 296.43784" fill-rule="nonzero"/><path stroke="#ffffff" stroke-width="1.0" stroke-linejoin="round" stroke-linecap="round" d="M263.7408 211.95926C264.9841 217.4065 267.43875 222.50362 270.9224 226.87196L183.68953 296.43784C169.75497 278.96445 159.93642 258.576 154.96323 236.78703" fill-rule="nonzero"/><path stroke="#ffffff" stroke-width="1.0" stroke-linejoin="round" stroke-linecap="round" d="M300.0 166.49167C288.68167 166.49167 277.97925 171.64568 270.9224 180.4947C263.8655 189.34375 261.22223 200.9247 263.7408 211.95926L154.96323 236.78703C144.88895 192.64877 155.46205 146.32497 183.68953 110.92883C211.91702 75.53269 254.72664 54.916668 300.0 54.916668" fill-rule="nonzero"/><path fill="#efefef" d="M27.3 98.613434L28.815624 98.613434L28.815624 105.22281Q28.815624 106.957184 28.425 107.97281Q28.034374 108.988434 27.01875 109.62906Q26.003124 110.269684 24.346874 110.269684Q22.7375 110.269684 21.70625 109.707184Q20.690624 109.144684 20.253124 108.09781Q19.815624 107.050934 19.815624 105.22281L19.815624 98.613434L21.33125 98.613434L21.33125 105.22281Q21.33125 106.707184 21.596874 107.425934Q21.878124 108.12906 22.55 108.519684Q23.2375 108.894684 24.20625 108.894684Q25.878124 108.894684 26.58125 108.144684Q27.3 107.37906 27.3 105.22281L27.3 98.613434ZM31.596874 110.06656L31.596874 101.769684L32.8625 101.769684L32.8625 103.019684Q33.346874 102.144684 33.753124 101.863434Q34.159374 101.582184 34.659374 101.582184Q35.3625 101.582184 36.096874 102.03531L35.6125 103.332184Q35.096874 103.03531 34.58125 103.03531Q34.128124 103.03531 33.753124 103.31656Q33.39375 103.582184 33.2375 104.082184Q33.003124 104.832184 33.003124 105.72281L33.003124 110.06656L31.596874 110.06656ZM37.909374 110.06656L36.596874 110.06656L36.596874 98.613434L38.003124 98.613434L38.003124 102.69156Q38.89375 101.582184 40.284374 101.582184Q41.05 101.582184 41.721874 101.894684Q42.409374 102.19156 42.846874 102.75406Q43.3 103.31656 43.55 104.113434Q43.8 104.894684 43.8 105.78531Q43.8 107.925934 42.7375 109.09781Q41.690624 110.25406 40.20625 110.25406Q38.7375 110.25406 37.909374 109.019684L37.909374 110.06656ZM37.89375 105.84781Q37.89375 107.34781 38.3 108.00406Q38.95625 109.09781 40.096874 109.09781Q41.01875 109.09781 41.690624 108.300934Q42.3625 107.488434 42.3625 105.91031Q42.3625 104.28531 41.70625 103.519684Q41.065624 102.738434 40.159374 102.738434Q39.2375 102.738434 38.565624 103.53531Q37.89375 104.332184 37.89375 105.84781ZM51.01875 109.03531Q50.2375 109.707184 49.51875 109.988434Q48.8 110.25406 47.971874 110.25406Q46.596874 110.25406 45.8625 109.582184Q45.128124 108.91031 45.128124 107.87906Q45.128124 107.269684 45.409374 106.769684Q45.690624 106.25406 46.128124 105.957184Q46.58125 105.644684 47.14375 105.488434Q47.565624 105.37906 48.39375 105.28531Q50.096874 105.082184 50.909374 104.800934Q50.909374 104.50406 50.909374 104.425934Q50.909374 103.56656 50.51875 103.22281Q49.971874 102.738434 48.909374 102.738434Q47.925 102.738434 47.440624 103.09781Q46.971874 103.44156 46.753124 104.31656L45.378124 104.12906Q45.565624 103.25406 45.9875 102.707184Q46.425 102.16031 47.2375 101.87906Q48.05 101.582184 49.1125 101.582184Q50.175 101.582184 50.83125 101.832184Q51.503124 102.082184 51.815624 102.457184Q52.128124 102.832184 52.253124 103.41031Q52.33125 103.769684 52.33125 104.707184L52.33125 106.582184Q52.33125 108.550934 52.409374 109.06656Q52.503124 109.582184 52.76875 110.06656L51.3 110.06656Q51.08125 109.62906 51.01875 109.03531ZM50.909374 105.894684Q50.14375 106.207184 48.6125 106.425934Q47.7375 106.550934 47.378124 106.707184Q47.01875 106.863434 46.815624 107.175934Q46.628124 107.47281 46.628124 107.832184Q46.628124 108.394684 47.05 108.769684Q47.4875 109.144684 48.3 109.144684Q49.1125 109.144684 49.7375 108.800934Q50.378124 108.44156 50.675 107.81656Q50.909374 107.34781 50.909374 106.41031L50.909374 105.894684ZM54.6125 110.06656L54.6125 101.769684L55.878124 101.769684L55.878124 102.94156Q56.784374 101.582184 58.51875 101.582184Q59.26875 101.582184 59.89375 101.84781Q60.51875 102.113434 60.83125 102.550934Q61.14375 102.988434 61.26875 103.59781Q61.346874 103.988434 61.346874 104.957184L61.346874 110.06656L59.940624 110.06656L59.940624 105.019684Q59.940624 104.16031 59.76875 103.738434Q59.6125 103.300934 59.190624 103.050934Q58.784374 102.800934 58.221874 102.800934Q57.315624 102.800934 56.659374 103.37906Q56.01875 103.94156 56.01875 105.53531L56.01875 110.06656L54.6125 110.06656ZM63.05 107.582184L64.44063 107.363434Q64.55 108.207184 65.08125 108.66031Q65.62813 109.09781 66.58125 109.09781Q67.55 109.09781 68.01875 108.707184Q68.4875 108.300934 68.4875 107.769684Q68.4875 107.300934 68.08125 107.019684Q67.78438 106.832184 66.64375 106.550934Q65.09688 106.16031 64.4875 105.87906Q63.89375 105.582184 63.58125 105.082184Q63.284374 104.582184 63.284374 103.97281Q63.284374 103.41031 63.534374 102.94156Q63.784374 102.47281 64.22188 102.16031Q64.55 101.91031 65.1125 101.75406Q65.69063 101.582184 66.33125 101.582184Q67.31563 101.582184 68.05 101.863434Q68.78438 102.144684 69.12813 102.62906Q69.4875 103.09781 69.62813 103.91031L68.25313 104.09781Q68.15938 103.457184 67.70625 103.09781Q67.25313 102.738434 66.44063 102.738434Q65.47188 102.738434 65.05 103.06656Q64.64375 103.37906 64.64375 103.800934Q64.64375 104.082184 64.81563 104.300934Q64.9875 104.519684 65.34688 104.675934Q65.56563 104.75406 66.59688 105.03531Q68.08125 105.425934 68.675 105.69156Q69.26875 105.94156 69.59688 106.425934Q69.94063 106.91031 69.94063 107.62906Q69.94063 108.332184 69.51875 108.957184Q69.1125 109.56656 68.33125 109.91031Q67.56563 110.25406 66.59688 110.25406Q64.97188 110.25406 64.12813 109.582184Q63.284374 108.91031 63.05 107.582184ZM77.01875 107.019684L78.40938 107.207184Q78.175 108.62906 77.2375 109.44156Q76.31563 110.25406 74.95625 110.25406Q73.25313 110.25406 72.20625 109.144684Q71.175 108.019684 71.175 105.94156Q71.175 104.59781 71.6125 103.59781Q72.06563 102.582184 72.97188 102.082184Q73.89375 101.582184 74.95625 101.582184Q76.31563 101.582184 77.175 102.269684Q78.03438 102.94156 78.26875 104.207184L76.90938 104.41031Q76.70625 103.582184 76.20625 103.16031Q75.72188 102.738434 75.01875 102.738434Q73.95625 102.738434 73.28438 103.50406Q72.62813 104.25406 72.62813 105.91031Q72.62813 107.582184 73.26875 108.34781Q73.90938 109.09781 74.94063 109.09781Q75.76875 109.09781 76.31563 108.59781Q76.87813 108.082184 77.01875 107.019684ZM85.01875 109.03531Q84.2375 109.707184 83.51875 109.988434Q82.8 110.25406 81.97188 110.25406Q80.59688 110.25406 79.8625 109.582184Q79.12813 108.91031 79.12813 107.87906Q79.12813 107.269684 79.40938 106.769684Q79.69063 106.25406 80.12813 105.957184Q80.58125 105.644684 81.14375 105.488434Q81.56563 105.37906 82.39375 105.28531Q84.09688 105.082184 84.90938 104.800934Q84.90938 104.50406 84.90938 104.425934Q84.90938 103.56656 84.51875 103.22281Q83.97188 102.738434 82.90938 102.738434Q81.925 102.738434 81.44063 103.09781Q80.97188 103.44156 80.75313 104.31656L79.37813 104.12906Q79.56563 103.25406 79.9875 102.707184Q80.425 102.16031 81.2375 101.87906Q82.05 101.582184 83.1125 101.582184Q84.175 101.582184 84.83125 101.832184Q85.50313 102.082184 85.81563 102.457184Q86.12813 102.832184 86.25313 103.41031Q86.33125 103.769684 86.33125 104.707184L86.33125 106.582184Q86.33125 108.550934 86.40938 109.06656Q86.50313 109.582184 86.76875 110.06656L85.3 110.06656Q85.08125 109.62906 85.01875 109.03531ZM84.90938 105.894684Q84.14375 106.207184 82.6125 106.425934Q81.7375 106.550934 81.37813 106.707184Q81.01875 106.863434 80.81563 107.175934Q80.62813 107.47281 80.62813 107.832184Q80.62813 108.394684 81.05 108.769684Q81.4875 109.144684 82.3 109.144684Q83.1125 109.144684 83.7375 108.800934Q84.37813 108.44156 84.675 107.81656Q84.90938 107.34781 84.90938 106.41031L84.90938 105.894684ZM88.6125 113.25406L88.6125 101.769684L89.89375 101.769684L89.89375 102.84781Q90.34688 102.207184 90.90938 101.894684Q91.4875 101.582184 92.3 101.582184Q93.3625 101.582184 94.175 102.12906Q94.9875 102.675934 95.39375 103.675934Q95.81563 104.66031 95.81563 105.84781Q95.81563 107.12906 95.34688 108.144684Q94.89375 109.16031 94.01875 109.707184Q93.15938 110.25406 92.19063 110.25406Q91.4875 110.25406 90.925 109.957184Q90.37813 109.66031 90.01875 109.207184L90.01875 113.25406L88.6125 113.25406ZM89.87813 105.957184Q89.87813 107.56656 90.51875 108.332184Q91.175 109.09781 92.09688 109.09781Q93.03438 109.09781 93.70625 108.300934Q94.37813 107.50406 94.37813 105.84781Q94.37813 104.25406 93.72188 103.47281Q93.06563 102.675934 92.15938 102.675934Q91.26875 102.675934 90.56563 103.519684Q89.87813 104.363434 89.87813 105.957184ZM103.28438 107.394684L104.7375 107.56656Q104.39375 108.84781 103.45625 109.550934Q102.53438 110.25406 101.09688 110.25406Q99.26875 110.25406 98.20625 109.12906Q97.14375 108.00406 97.14375 105.988434Q97.14375 103.894684 98.22188 102.738434Q99.3 101.582184 101.01875 101.582184Q102.675 101.582184 103.72188 102.72281Q104.78438 103.84781 104.78438 105.894684Q104.78438 106.019684 104.78438 106.269684L98.59688 106.269684Q98.675 107.644684 99.3625 108.37906Q100.06563 109.09781 101.09688 109.09781Q101.87813 109.09781 102.425 108.69156Q102.97188 108.28531 103.28438 107.394684ZM98.675 105.113434L103.3 105.113434Q103.20625 104.06656 102.76875 103.550934Q102.09688 102.738434 101.03438 102.738434Q100.06563 102.738434 99.39375 103.394684Q98.7375 104.03531 98.675 105.113434Z" fill-rule="nonzero"/><path fill="#9e9e9e" d="M26.6125 130.70718L26.6125 132.06656L19.034374 132.06656Q19.01875 131.55093 19.20625 131.08218Q19.4875 130.31656 20.128124 129.56656Q20.76875 128.81656 21.971874 127.832184Q23.83125 126.300934 24.4875 125.41031Q25.14375 124.50406 25.14375 123.707184Q25.14375 122.87906 24.55 122.300934Q23.95625 121.72281 22.9875 121.72281Q21.971874 121.72281 21.3625 122.332184Q20.753124 122.94156 20.753124 124.019684L19.3 123.87906Q19.45625 122.25406 20.425 121.41031Q21.39375 120.56656 23.01875 120.56656Q24.675 120.56656 25.628124 121.488434Q26.596874 122.394684 26.596874 123.738434Q26.596874 124.425934 26.315624 125.09781Q26.034374 125.75406 25.378124 126.488434Q24.721874 127.22281 23.20625 128.50406Q21.940624 129.56656 21.58125 129.95718Q21.221874 130.33218 20.9875 130.70718L26.6125 130.70718ZM30.378124 125.84781Q29.503124 125.53531 29.08125 124.94156Q28.659374 124.34781 28.659374 123.519684Q28.659374 122.269684 29.55 121.425934Q30.45625 120.56656 31.95625 120.56656Q33.45625 120.56656 34.3625 121.44156Q35.284374 122.300934 35.284374 123.550934Q35.284374 124.34781 34.8625 124.94156Q34.440624 125.53531 33.596874 125.84781Q34.64375 126.19156 35.190624 126.957184Q35.753124 127.72281 35.753124 128.78531Q35.753124 130.25406 34.70625 131.26968Q33.675 132.26968 31.971874 132.26968Q30.284374 132.26968 29.2375 131.26968Q28.20625 130.25406 28.20625 128.75406Q28.20625 127.62906 28.76875 126.87906Q29.33125 126.12906 30.378124 125.84781ZM30.096874 123.47281Q30.096874 124.28531 30.6125 124.800934Q31.14375 125.31656 31.9875 125.31656Q32.8 125.31656 33.315624 124.800934Q33.83125 124.28531 33.83125 123.550934Q33.83125 122.769684 33.3 122.25406Q32.76875 121.72281 31.971874 121.72281Q31.159374 121.72281 30.628124 122.238434Q30.096874 122.75406 30.096874 123.47281ZM29.64375 128.75406Q29.64375 129.36343 29.925 129.92593Q30.221874 130.48843 30.784374 130.80093Q31.346874 131.09781 31.9875 131.09781Q33.003124 131.09781 33.659374 130.45718Q34.315624 129.80093 34.315624 128.80093Q34.315624 127.78531 33.628124 127.12906Q32.95625 126.457184 31.940624 126.457184Q30.95625 126.457184 30.3 127.113434Q29.64375 127.769684 29.64375 128.75406ZM38.003124 132.06656L38.003124 130.45718L39.6125 130.45718L39.6125 132.06656L38.003124 132.06656ZM48.51875 123.41031L47.1125 123.519684Q46.925 122.69156 46.58125 122.31656Q46.01875 121.72281 45.175 121.72281Q44.503124 121.72281 44.003124 122.09781Q43.33125 122.582184 42.940624 123.519684Q42.565624 124.44156 42.55 126.16031Q43.065624 125.37906 43.8 125.00406Q44.534374 124.62906 45.33125 124.62906Q46.7375 124.62906 47.721874 125.675934Q48.721874 126.707184 48.721874 128.34781Q48.721874 129.42593 48.253124 130.34781Q47.784374 131.26968 46.971874 131.76968Q46.159374 132.26968 45.128124 132.26968Q43.378124 132.26968 42.26875 130.97281Q41.159374 129.67593 41.159374 126.707184Q41.159374 123.37906 42.378124 121.87906Q43.45625 120.56656 45.26875 120.56656Q46.6125 120.56656 47.471874 121.332184Q48.346874 122.082184 48.51875 123.41031ZM42.76875 128.34781Q42.76875 129.08218 43.08125 129.75406Q43.39375 130.41031 43.940624 130.75406Q44.503124 131.09781 45.1125 131.09781Q46.003124 131.09781 46.64375 130.37906Q47.284374 129.66031 47.284374 128.42593Q47.284374 127.238434 46.64375 126.56656Q46.01875 125.87906 45.05 125.87906Q44.096874 125.87906 43.425 126.56656Q42.76875 127.238434 42.76875 128.34781ZM50.4875 123.363434Q50.4875 122.12906 51.096874 121.269684Q51.721874 120.41031 52.89375 120.41031Q53.971874 120.41031 54.675 121.19156Q55.378124 121.957184 55.378124 123.44156Q55.378124 124.894684 54.659374 125.69156Q53.95625 126.47281 52.909374 126.47281Q51.8625 126.47281 51.175 125.707184Q50.4875 124.925934 50.4875 123.363434ZM52.925 121.37906Q52.409374 121.37906 52.05 121.832184Q51.70625 122.28531 51.70625 123.50406Q51.70625 124.59781 52.05 125.050934Q52.409374 125.50406 52.925 125.50406Q53.45625 125.50406 53.8 125.050934Q54.159374 124.59781 54.159374 123.394684Q54.159374 122.28531 53.8 121.832184Q53.45625 121.37906 52.925 121.37906ZM52.940624 132.48843L59.20625 120.41031L60.346874 120.41031L54.096874 132.48843L52.940624 132.48843ZM57.89375 129.37906Q57.89375 128.14468 58.503124 127.28531Q59.128124 126.425934 60.3 126.425934Q61.378124 126.425934 62.08125 127.207184Q62.8 127.97281 62.8 129.45718Q62.8 130.91031 62.08125 131.70718Q61.3625 132.48843 60.315624 132.48843Q59.26875 132.48843 58.58125 131.70718Q57.89375 130.92593 57.89375 129.37906ZM60.346874 127.394684Q59.815624 127.394684 59.45625 127.84781Q59.1125 128.30093 59.1125 129.51968Q59.1125 130.61343 59.45625 131.06656Q59.815624 131.51968 60.33125 131.51968Q60.878124 131.51968 61.221874 131.06656Q61.565624 130.61343 61.565624 129.41031Q61.565624 128.30093 61.20625 127.84781Q60.8625 127.394684 60.346874 127.394684Z" fill-rule="nonzero"/><path stroke="#757575" stroke-width="1.0" stroke-linecap="butt" d="M18.55 115.56656L145.23334 115.56656L189.50507 115.56656" fill-rule="nonzero"/><path fill="#9e9e9e" d="M191.50507 115.56656C191.50507 114.46199 190.60963 113.56656 189.50507 113.56656C188.4005 113.56656 187.50507 114.46199 187.50507 115.56656C187.50507 116.67113 188.4005 117.56656 189.50507 117.56656C190.60963 117.56656 191.50507 116.67113 191.50507 115.56656" fill-rule="nonzero"/><path fill="#efefef" d="M19.76875 259.5034L19.76875 248.05026L21.33125 248.05026L27.346874 257.03464L27.346874 248.05026L28.8 248.05026L28.8 259.5034L27.2375 259.5034L21.221874 250.50339L21.221874 259.5034L19.76875 259.5034ZM37.01875 258.47214Q36.2375 259.144 35.51875 259.42526Q34.8 259.6909 33.971874 259.6909Q32.596874 259.6909 31.8625 259.019Q31.128124 258.34714 31.128124 257.3159Q31.128124 256.7065 31.409374 256.2065Q31.690624 255.69089 32.128124 255.39401Q32.58125 255.08151 33.14375 254.92526Q33.565624 254.81589 34.39375 254.72214Q36.096874 254.51901 36.909374 254.23776Q36.909374 253.94089 36.909374 253.86276Q36.909374 253.00339 36.51875 252.65964Q35.971874 252.17526 34.909374 252.17526Q33.925 252.17526 33.440624 252.53464Q32.971874 252.87839 32.753124 253.75339L31.378124 253.56589Q31.565624 252.69089 31.9875 252.14401Q32.425 251.59714 33.2375 251.31589Q34.05 251.01901 35.1125 251.01901Q36.175 251.01901 36.83125 251.26901Q37.503124 251.51901 37.815624 251.89401Q38.128124 252.26901 38.253124 252.84714Q38.33125 253.20651 38.33125 254.14401L38.33125 256.019Q38.33125 257.98776 38.409374 258.5034Q38.503124 259.019 38.76875 259.5034L37.3 259.5034Q37.08125 259.0659 37.01875 258.47214ZM36.909374 255.33151Q36.14375 255.64401 34.6125 255.86276Q33.7375 255.98776 33.378124 256.144Q33.01875 256.30026 32.815624 256.61276Q32.628124 256.90964 32.628124 257.269Q32.628124 257.8315 33.05 258.2065Q33.4875 258.5815 34.3 258.5815Q35.1125 258.5815 35.7375 258.23776Q36.378124 257.8784 36.675 257.2534Q36.909374 256.78464 36.909374 255.84714L36.909374 255.33151ZM43.675 258.23776L43.878124 259.48776Q43.284374 259.61276 42.815624 259.61276Q42.05 259.61276 41.628124 259.3784Q41.20625 259.1284 41.034374 258.73776Q40.8625 258.3315 40.8625 257.0659L40.8625 252.30026L39.83125 252.30026L39.83125 251.20651L40.8625 251.20651L40.8625 249.14401L42.26875 248.30026L42.26875 251.20651L43.675 251.20651L43.675 252.30026L42.26875 252.30026L42.26875 257.144Q42.26875 257.7534 42.33125 257.92526Q42.409374 258.09714 42.58125 258.2065Q42.753124 258.30026 43.065624 258.30026Q43.3 258.30026 43.675 258.23776ZM50.05 259.5034L50.05 258.28464Q49.08125 259.6909 47.409374 259.6909Q46.675 259.6909 46.034374 259.40964Q45.409374 259.1284 45.096874 258.7065Q44.784374 258.269 44.659374 257.65964Q44.58125 257.23776 44.58125 256.34714L44.58125 251.20651L45.9875 251.20651L45.9875 255.80026Q45.9875 256.90964 46.065624 257.28464Q46.20625 257.84714 46.628124 258.15964Q47.065624 258.47214 47.690624 258.47214Q48.33125 258.47214 48.878124 258.15964Q49.440624 257.8315 49.659374 257.269Q49.89375 256.7065 49.89375 255.64401L49.89375 251.20651L51.3 251.20651L51.3 259.5034L50.05 259.5034ZM53.596874 259.5034L53.596874 251.20651L54.8625 251.20651L54.8625 252.45651Q55.346874 251.58151 55.753124 251.30026Q56.159374 251.01901 56.659374 251.01901Q57.3625 251.01901 58.096874 251.47214L57.6125 252.76901Q57.096874 252.47214 56.58125 252.47214Q56.128124 252.47214 55.753124 252.75339Q55.39375 253.01901 55.2375 253.51901Q55.003124 254.26901 55.003124 255.15964L55.003124 259.5034L53.596874 259.5034ZM64.28438 256.8315L65.7375 257.0034Q65.39375 258.28464 64.45625 258.98776Q63.534374 259.6909 62.096874 259.6909Q60.26875 259.6909 59.20625 258.5659Q58.14375 257.4409 58.14375 255.42526Q58.14375 253.33151 59.221874 252.17526Q60.3 251.01901 62.01875 251.01901Q63.675 251.01901 64.72188 252.15964Q65.78438 253.28464 65.78438 255.33151Q65.78438 255.45651 65.78438 255.70651L59.596874 255.70651Q59.675 257.0815 60.3625 257.8159Q61.065624 258.53464 62.096874 258.53464Q62.878124 258.53464 63.425 258.1284Q63.971874 257.72214 64.28438 256.8315ZM59.675 254.55026L64.3 254.55026Q64.20625 253.50339 63.76875 252.98776Q63.096874 252.17526 62.034374 252.17526Q61.065624 252.17526 60.39375 252.83151Q59.7375 253.47214 59.675 254.55026ZM67.05 257.019L68.44063 256.80026Q68.55 257.644 69.08125 258.09714Q69.62813 258.53464 70.58125 258.53464Q71.55 258.53464 72.01875 258.144Q72.4875 257.73776 72.4875 257.2065Q72.4875 256.73776 72.08125 256.4565Q71.78438 256.269 70.64375 255.98776Q69.09688 255.59714 68.4875 255.31589Q67.89375 255.01901 67.58125 254.51901Q67.28438 254.01901 67.28438 253.40964Q67.28438 252.84714 67.53438 252.37839Q67.78438 251.90964 68.22188 251.59714Q68.55 251.34714 69.1125 251.19089Q69.69063 251.01901 70.33125 251.01901Q71.31563 251.01901 72.05 251.30026Q72.78438 251.58151 73.12813 252.06589Q73.4875 252.53464 73.62813 253.34714L72.25313 253.53464Q72.15938 252.89401 71.70625 252.53464Q71.25313 252.17526 70.44063 252.17526Q69.47188 252.17526 69.05 252.50339Q68.64375 252.81589 68.64375 253.23776Q68.64375 253.51901 68.81563 253.73776Q68.9875 253.95651 69.34688 254.11276Q69.56563 254.19089 70.59688 254.47214Q72.08125 254.86276 72.675 255.12839Q73.26875 255.37839 73.59688 255.86276Q73.94063 256.34714 73.94063 257.0659Q73.94063 257.769 73.51875 258.394Q73.1125 259.0034 72.33125 259.34714Q71.56563 259.6909 70.59688 259.6909Q68.97188 259.6909 68.12813 259.019Q67.28438 258.34714 67.05 257.019ZM81.01875 256.4565L82.40938 256.644Q82.175 258.0659 81.2375 258.8784Q80.31563 259.6909 78.95625 259.6909Q77.25313 259.6909 76.20625 258.5815Q75.175 257.4565 75.175 255.37839Q75.175 254.03464 75.6125 253.03464Q76.06563 252.01901 76.97188 251.51901Q77.89375 251.01901 78.95625 251.01901Q80.31563 251.01901 81.175 251.70651Q82.03438 252.37839 82.26875 253.64401L80.90938 253.84714Q80.70625 253.01901 80.20625 252.59714Q79.72188 252.17526 79.01875 252.17526Q77.95625 252.17526 77.28438 252.94089Q76.62813 253.69089 76.62813 255.34714Q76.62813 257.019 77.26875 257.78464Q77.90938 258.53464 78.94063 258.53464Q79.76875 258.53464 80.31563 258.03464Q80.87813 257.519 81.01875 256.4565ZM89.01875 258.47214Q88.2375 259.144 87.51875 259.42526Q86.8 259.6909 85.97188 259.6909Q84.59688 259.6909 83.8625 259.019Q83.12813 258.34714 83.12813 257.3159Q83.12813 256.7065 83.40938 256.2065Q83.69063 255.69089 84.12813 255.39401Q84.58125 255.08151 85.14375 254.92526Q85.56563 254.81589 86.39375 254.72214Q88.09688 254.51901 88.90938 254.23776Q88.90938 253.94089 88.90938 253.86276Q88.90938 253.00339 88.51875 252.65964Q87.97188 252.17526 86.90938 252.17526Q85.925 252.17526 85.44063 252.53464Q84.97188 252.87839 84.75313 253.75339L83.37813 253.56589Q83.56563 252.69089 83.9875 252.14401Q84.425 251.59714 85.2375 251.31589Q86.05 251.01901 87.1125 251.01901Q88.175 251.01901 88.83125 251.26901Q89.50313 251.51901 89.81563 251.89401Q90.12813 252.26901 90.25313 252.84714Q90.33125 253.20651 90.33125 254.14401L90.33125 256.019Q90.33125 257.98776 90.40938 258.5034Q90.50313 259.019 90.76875 259.5034L89.3 259.5034Q89.08125 259.0659 89.01875 258.47214ZM88.90938 255.33151Q88.14375 255.64401 86.6125 255.86276Q85.7375 255.98776 85.37813 256.144Q85.01875 256.30026 84.81563 256.61276Q84.62813 256.90964 84.62813 257.269Q84.62813 257.8315 85.05 258.2065Q85.4875 258.5815 86.3 258.5815Q87.1125 258.5815 87.7375 258.23776Q88.37813 257.8784 88.675 257.2534Q88.90938 256.78464 88.90938 255.84714L88.90938 255.33151ZM92.6125 262.6909L92.6125 251.20651L93.89375 251.20651L93.89375 252.28464Q94.34688 251.64401 94.90938 251.33151Q95.4875 251.01901 96.3 251.01901Q97.3625 251.01901 98.175 251.56589Q98.9875 252.11276 99.39375 253.11276Q99.81563 254.09714 99.81563 255.28464Q99.81563 256.5659 99.34688 257.5815Q98.89375 258.59714 98.01875 259.144Q97.15938 259.6909 96.19063 259.6909Q95.4875 259.6909 94.925 259.394Q94.37813 259.09714 94.01875 258.644L94.01875 262.6909L92.6125 262.6909ZM93.87813 255.39401Q93.87813 257.0034 94.51875 257.769Q95.175 258.53464 96.09688 258.53464Q97.03438 258.53464 97.70625 257.73776Q98.37813 256.9409 98.37813 255.28464Q98.37813 253.69089 97.72188 252.90964Q97.06563 252.11276 96.15938 252.11276Q95.26875 252.11276 94.56563 252.95651Q93.87813 253.80026 93.87813 255.39401ZM107.28438 256.8315L108.7375 257.0034Q108.39375 258.28464 107.45625 258.98776Q106.53438 259.6909 105.09688 259.6909Q103.26875 259.6909 102.20625 258.5659Q101.14375 257.4409 101.14375 255.42526Q101.14375 253.33151 102.22188 252.17526Q103.3 251.01901 105.01875 251.01901Q106.675 251.01901 107.72188 252.15964Q108.78438 253.28464 108.78438 255.33151Q108.78438 255.45651 108.78438 255.70651L102.59688 255.70651Q102.675 257.0815 103.3625 257.8159Q104.06563 258.53464 105.09688 258.53464Q105.87813 258.53464 106.425 258.1284Q106.97188 257.72214 107.28438 256.8315ZM102.675 254.55026L107.3 254.55026Q107.20625 253.50339 106.76875 252.98776Q106.09688 252.17526 105.03438 252.17526Q104.06563 252.17526 103.39375 252.83151Q102.7375 253.47214 102.675 254.55026Z" fill-rule="nonzero"/><path fill="#9e9e9e" d="M19.315624 271.55026L19.315624 270.1909L26.721874 270.1909L26.721874 271.28464Q25.628124 272.4565 24.55 274.394Q23.4875 276.3159 22.89375 278.34714Q22.471874 279.78464 22.3625 281.5034L20.909374 281.5034Q20.940624 280.144 21.440624 278.23776Q21.95625 276.3159 22.89375 274.55026Q23.846874 272.769 24.925 271.55026L19.315624 271.55026ZM29.003124 281.5034L29.003124 279.894L30.6125 279.894L30.6125 281.5034L29.003124 281.5034ZM37.51875 281.5034L36.1125 281.5034L36.1125 272.53464Q35.596874 273.019 34.76875 273.5034Q33.95625 273.98776 33.3 274.23776L33.3 272.8784Q34.471874 272.3159 35.346874 271.53464Q36.2375 270.73776 36.6125 270.0034L37.51875 270.0034L37.51875 281.5034ZM41.4875 272.80026Q41.4875 271.5659 42.096874 270.7065Q42.721874 269.84714 43.89375 269.84714Q44.971874 269.84714 45.675 270.6284Q46.378124 271.394 46.378124 272.8784Q46.378124 274.3315 45.659374 275.1284Q44.95625 275.90964 43.909374 275.90964Q42.8625 275.90964 42.175 275.144Q41.4875 274.36276 41.4875 272.80026ZM43.925 270.8159Q43.409374 270.8159 43.05 271.269Q42.70625 271.72214 42.70625 272.9409Q42.70625 274.03464 43.05 274.48776Q43.409374 274.9409 43.925 274.9409Q44.45625 274.9409 44.8 274.48776Q45.159374 274.03464 45.159374 272.8315Q45.159374 271.72214 44.8 271.269Q44.45625 270.8159 43.925 270.8159ZM43.940624 281.92526L50.20625 269.84714L51.346874 269.84714L45.096874 281.92526L43.940624 281.92526ZM48.89375 278.8159Q48.89375 277.5815 49.503124 276.72214Q50.128124 275.86276 51.3 275.86276Q52.378124 275.86276 53.08125 276.644Q53.8 277.40964 53.8 278.894Q53.8 280.34714 53.08125 281.144Q52.3625 281.92526 51.315624 281.92526Q50.26875 281.92526 49.58125 281.144Q48.89375 280.36276 48.89375 278.8159ZM51.346874 276.8315Q50.815624 276.8315 50.45625 277.28464Q50.1125 277.73776 50.1125 278.9565Q50.1125 280.05026 50.45625 280.5034Q50.815624 280.9565 51.33125 280.9565Q51.878124 280.9565 52.221874 280.5034Q52.565624 280.05026 52.565624 278.84714Q52.565624 277.73776 52.20625 277.28464Q51.8625 276.8315 51.346874 276.8315Z" fill-rule="nonzero"/><path stroke="#757575" stroke-width="1.0" stroke-linecap="butt" d="M18.55 265.0034L145.23334 265.0034L172.66757 265.0034" fill-rule="nonzero"/><path fill="#9e9e9e" d="M174.66757 265.0034C174.66757 263.89883 173.77214 263.0034 172.66757 263.0034C171.563 263.0034 170.66757 263.89883 170.66757 265.0034C170.66757 266.10797 171.563 267.0034 172.66757 267.0034C173.77214 267.0034 174.66757 266.10797 174.66757 265.0034" fill-rule="nonzero"/><path fill="#efefef" d="M498.6844 70.85091L498.6844 59.39778L503.0125 59.39778Q504.15314 59.39778 504.7469 59.507156Q505.59064 59.64778 506.15314 60.038406Q506.73126 60.42903 507.075 61.14778Q507.4344 61.850906 507.4344 62.71028Q507.4344 64.16341 506.4969 65.17903Q505.575 66.19466 503.1375 66.19466L500.2 66.19466L500.2 70.85091L498.6844 70.85091ZM500.2 64.83528L503.16876 64.83528Q504.6375 64.83528 505.2469 64.28841Q505.8719 63.74153 505.8719 62.757156Q505.8719 62.038406 505.4969 61.52278Q505.1375 61.007156 504.54376 60.850906Q504.16876 60.74153 503.1375 60.74153L500.2 60.74153L500.2 64.83528ZM515.1844 68.17903L516.6375 68.35091Q516.29376 69.63216 515.35626 70.33528Q514.4344 71.03841 512.9969 71.03841Q511.16876 71.03841 510.10626 69.91341Q509.04376 68.78841 509.04376 66.77278Q509.04376 64.67903 510.1219 63.52278Q511.2 62.36653 512.91876 62.36653Q514.575 62.36653 515.6219 63.507156Q516.6844 64.63216 516.6844 66.67903Q516.6844 66.80403 516.6844 67.05403L510.4969 67.05403Q510.575 68.42903 511.2625 69.16341Q511.96564 69.88216 512.9969 69.88216Q513.77814 69.88216 514.325 69.47591Q514.8719 69.06966 515.1844 68.17903ZM510.575 65.89778L515.2 65.89778Q515.10626 64.85091 514.66876 64.33528Q513.9969 63.52278 512.9344 63.52278Q511.96564 63.52278 511.29376 64.17903Q510.6375 64.81966 510.575 65.89778ZM518.4969 70.85091L518.4969 62.55403L519.7625 62.55403L519.7625 63.80403Q520.2469 62.92903 520.65314 62.64778Q521.0594 62.36653 521.5594 62.36653Q522.2625 62.36653 522.9969 62.819656L522.5125 64.11653Q521.9969 63.819656 521.48126 63.819656Q521.02814 63.819656 520.65314 64.10091Q520.29376 64.36653 520.1375 64.86653Q519.90314 65.61653 519.90314 66.50716L519.90314 70.85091L518.4969 70.85091ZM522.95 68.36653L524.34064 68.14778Q524.45 68.99153 524.98126 69.44466Q525.52814 69.88216 526.48126 69.88216Q527.45 69.88216 527.91876 69.49153Q528.3875 69.08528 528.3875 68.55403Q528.3875 68.08528 527.98126 67.80403Q527.6844 67.61653 526.54376 67.33528Q524.9969 66.94466 524.3875 66.66341Q523.79376 66.36653 523.48126 65.86653Q523.1844 65.36653 523.1844 64.75716Q523.1844 64.19466 523.4344 63.725906Q523.6844 63.257156 524.1219 62.944656Q524.45 62.694656 525.0125 62.538406Q525.59064 62.36653 526.23126 62.36653Q527.21564 62.36653 527.95 62.64778Q528.6844 62.92903 529.02814 63.413406Q529.3875 63.882156 529.52814 64.69466L528.15314 64.88216Q528.0594 64.24153 527.60626 63.882156Q527.15314 63.52278 526.34064 63.52278Q525.3719 63.52278 524.95 63.850906Q524.54376 64.16341 524.54376 64.58528Q524.54376 64.86653 524.71564 65.08528Q524.8875 65.30403 525.2469 65.46028Q525.46564 65.53841 526.4969 65.81966Q527.98126 66.21028 528.575 66.47591Q529.16876 66.72591 529.4969 67.21028Q529.84064 67.69466 529.84064 68.41341Q529.84064 69.11653 529.41876 69.74153Q529.0125 70.35091 528.23126 70.69466Q527.46564 71.03841 526.4969 71.03841Q524.8719 71.03841 524.02814 70.36653Q523.1844 69.69466 522.95 68.36653ZM531.5125 74.03841L531.5125 62.55403L532.79376 62.55403L532.79376 63.632156Q533.2469 62.99153 533.8094 62.67903Q534.3875 62.36653 535.2 62.36653Q536.2625 62.36653 537.075 62.913406Q537.8875 63.46028 538.29376 64.46028Q538.71564 65.44466 538.71564 66.63216Q538.71564 67.91341 538.2469 68.92903Q537.79376 69.94466 536.91876 70.49153Q536.0594 71.03841 535.09064 71.03841Q534.3875 71.03841 533.825 70.74153Q533.27814 70.44466 532.91876 69.99153L532.91876 74.03841L531.5125 74.03841ZM532.77814 66.74153Q532.77814 68.35091 533.41876 69.11653Q534.075 69.88216 534.9969 69.88216Q535.9344 69.88216 536.60626 69.08528Q537.27814 68.28841 537.27814 66.63216Q537.27814 65.03841 536.6219 64.25716Q535.96564 63.46028 535.0594 63.46028Q534.16876 63.46028 533.46564 64.30403Q532.77814 65.14778 532.77814 66.74153ZM546.1844 68.17903L547.6375 68.35091Q547.29376 69.63216 546.35626 70.33528Q545.4344 71.03841 543.9969 71.03841Q542.16876 71.03841 541.10626 69.91341Q540.04376 68.78841 540.04376 66.77278Q540.04376 64.67903 541.1219 63.52278Q542.2 62.36653 543.91876 62.36653Q545.575 62.36653 546.6219 63.507156Q547.6844 64.63216 547.6844 66.67903Q547.6844 66.80403 547.6844 67.05403L541.4969 67.05403Q541.575 68.42903 542.2625 69.16341Q542.96564 69.88216 543.9969 69.88216Q544.77814 69.88216 545.325 69.47591Q545.8719 69.06966 546.1844 68.17903ZM541.575 65.89778L546.2 65.89778Q546.10626 64.85091 545.66876 64.33528Q544.9969 63.52278 543.9344 63.52278Q542.96564 63.52278 542.29376 64.17903Q541.6375 64.81966 541.575 65.89778ZM554.91876 67.80403L556.3094 67.99153Q556.075 69.41341 555.1375 70.22591Q554.21564 71.03841 552.85626 71.03841Q551.15314 71.03841 550.10626 69.92903Q549.075 68.80403 549.075 66.72591Q549.075 65.38216 549.5125 64.38216Q549.96564 63.36653 550.8719 62.86653Q551.79376 62.36653 552.85626 62.36653Q554.21564 62.36653 555.075 63.05403Q555.9344 63.725906 556.16876 64.99153L554.8094 65.19466Q554.60626 64.36653 554.10626 63.944656Q553.6219 63.52278 552.91876 63.52278Q551.85626 63.52278 551.1844 64.28841Q550.52814 65.03841 550.52814 66.69466Q550.52814 68.36653 551.16876 69.13216Q551.8094 69.88216 552.84064 69.88216Q553.66876 69.88216 554.21564 69.38216Q554.77814 68.86653 554.91876 67.80403ZM560.575 69.58528L560.77814 70.83528Q560.1844 70.96028 559.71564 70.96028Q558.95 70.96028 558.52814 70.72591Q558.10626 70.47591 557.9344 70.08528Q557.7625 69.67903 557.7625 68.41341L557.7625 63.64778L556.73126 63.64778L556.73126 62.55403L557.7625 62.55403L557.7625 60.49153L559.16876 59.64778L559.16876 62.55403L560.575 62.55403L560.575 63.64778L559.16876 63.64778L559.16876 68.49153Q559.16876 69.10091 559.23126 69.27278Q559.3094 69.44466 559.48126 69.55403Q559.65314 69.64778 559.96564 69.64778Q560.2 69.64778 560.575 69.58528ZM561.5125 61.007156L561.5125 59.39778L562.91876 59.39778L562.91876 61.007156L561.5125 61.007156ZM561.5125 70.85091L561.5125 62.55403L562.91876 62.55403L562.91876 70.85091L561.5125 70.85091ZM567.8094 70.85091L564.65314 62.55403L566.1375 62.55403L567.91876 67.52278Q568.21564 68.31966 568.45 69.19466Q568.6375 68.53841 568.98126 67.61653L570.825 62.55403L572.2625 62.55403L569.1219 70.85091L567.8094 70.85091ZM579.1844 68.17903L580.6375 68.35091Q580.29376 69.63216 579.35626 70.33528Q578.4344 71.03841 576.9969 71.03841Q575.16876 71.03841 574.10626 69.91341Q573.04376 68.78841 573.04376 66.77278Q573.04376 64.67903 574.1219 63.52278Q575.2 62.36653 576.91876 62.36653Q578.575 62.36653 579.6219 63.507156Q580.6844 64.63216 580.6844 66.67903Q580.6844 66.80403 580.6844 67.05403L574.4969 67.05403Q574.575 68.42903 575.2625 69.16341Q575.96564 69.88216 576.9969 69.88216Q577.77814 69.88216 578.325 69.47591Q578.8719 69.06966 579.1844 68.17903ZM574.575 65.89778L579.2 65.89778Q579.10626 64.85091 578.66876 64.33528Q577.9969 63.52278 576.9344 63.52278Q575.96564 63.52278 575.29376 64.17903Q574.6375 64.81966 574.575 65.89778Z" fill-rule="nonzero"/><path fill="#9e9e9e" d="M542.41876 92.85091L541.0125 92.85091L541.0125 83.88216Q540.4969 84.36653 539.66876 84.85091Q538.85626 85.33528 538.2 85.58528L538.2 84.22591Q539.3719 83.66341 540.2469 82.88216Q541.1375 82.08528 541.5125 81.35091L542.41876 81.35091L542.41876 92.85091ZM550.6219 92.85091L550.6219 90.10091L545.65314 90.10091L545.65314 88.81966L550.8875 81.39778L552.02814 81.39778L552.02814 88.81966L553.575 88.81966L553.575 90.10091L552.02814 90.10091L552.02814 92.85091L550.6219 92.85091ZM550.6219 88.81966L550.6219 83.64778L547.04376 88.81966L550.6219 88.81966ZM555.90314 92.85091L555.90314 91.24153L557.5125 91.24153L557.5125 92.85091L555.90314 92.85091ZM559.1219 89.81966L560.52814 89.63216Q560.77814 90.83528 561.35626 91.36653Q561.9344 91.88216 562.77814 91.88216Q563.7625 91.88216 564.45 91.19466Q565.1375 90.50716 565.1375 89.49153Q565.1375 88.52278 564.4969 87.89778Q563.8719 87.27278 562.8875 87.27278Q562.4969 87.27278 561.90314 87.42903L562.0594 86.19466Q562.2 86.21028 562.27814 86.21028Q563.1844 86.21028 563.90314 85.74153Q564.6219 85.27278 564.6219 84.28841Q564.6219 83.52278 564.09064 83.02278Q563.575 82.50716 562.7469 82.50716Q561.91876 82.50716 561.3719 83.02278Q560.825 83.53841 560.66876 84.56966L559.2625 84.31966Q559.52814 82.89778 560.4344 82.13216Q561.35626 81.35091 562.71564 81.35091Q563.65314 81.35091 564.4344 81.75716Q565.23126 82.14778 565.6375 82.85091Q566.0594 83.53841 566.0594 84.31966Q566.0594 85.06966 565.65314 85.67903Q565.2625 86.28841 564.48126 86.64778Q565.4969 86.88216 566.0594 87.61653Q566.6219 88.35091 566.6219 89.46028Q566.6219 90.96028 565.52814 92.00716Q564.4344 93.05403 562.7625 93.05403Q561.2625 93.05403 560.2625 92.16341Q559.2625 91.25716 559.1219 89.81966ZM568.3875 84.14778Q568.3875 82.91341 568.9969 82.05403Q569.6219 81.19466 570.79376 81.19466Q571.8719 81.19466 572.575 81.97591Q573.27814 82.74153 573.27814 84.22591Q573.27814 85.67903 572.5594 86.47591Q571.85626 87.25716 570.8094 87.25716Q569.7625 87.25716 569.075 86.49153Q568.3875 85.71028 568.3875 84.14778ZM570.825 82.16341Q570.3094 82.16341 569.95 82.61653Q569.60626 83.06966 569.60626 84.28841Q569.60626 85.38216 569.95 85.83528Q570.3094 86.28841 570.825 86.28841Q571.35626 86.28841 571.7 85.83528Q572.0594 85.38216 572.0594 84.17903Q572.0594 83.06966 571.7 82.61653Q571.35626 82.16341 570.825 82.16341ZM570.84064 93.27278L577.10626 81.19466L578.2469 81.19466L571.9969 93.27278L570.84064 93.27278ZM575.79376 90.16341Q575.79376 88.92903 576.40314 88.06966Q577.02814 87.21028 578.2 87.21028Q579.27814 87.21028 579.98126 87.99153Q580.7 88.75716 580.7 90.24153Q580.7 91.69466 579.98126 92.49153Q579.2625 93.27278 578.21564 93.27278Q577.16876 93.27278 576.48126 92.49153Q575.79376 91.71028 575.79376 90.16341ZM578.2469 88.17903Q577.71564 88.17903 577.35626 88.63216Q577.0125 89.08528 577.0125 90.30403Q577.0125 91.39778 577.35626 91.85091Q577.71564 92.30403 578.23126 92.30403Q578.77814 92.30403 579.1219 91.85091Q579.46564 91.39778 579.46564 90.19466Q579.46564 89.08528 579.10626 88.63216Q578.7625 88.17903 578.2469 88.17903Z" fill-rule="nonzero"/><path stroke="#757575" stroke-width="1.0" stroke-linecap="butt" d="M581.45 76.35091L454.76666 76.35091L361.32007 76.35091" fill-rule="nonzero"/><path fill="#9e9e9e" d="M363.32007 76.35091C363.32007 75.24634 362.42462 74.35091 361.32007 74.35091C360.21548 74.35091 359.32007 75.24634 359.32007 76.35091C359.32007 77.455475 360.21548 78.35091 361.32007 78.35091C362.42462 78.35091 363.32007 77.455475 363.32007 76.35091" fill-rule="nonzero"/><path fill="#efefef" d="M531.6844 308.67828L531.6844 297.22516L536.0125 297.22516Q537.15314 297.22516 537.7469 297.33453Q538.59064 297.47516 539.15314 297.86578Q539.73126 298.2564 540.075 298.97516Q540.4344 299.67828 540.4344 300.53766Q540.4344 301.99078 539.4969 303.0064Q538.575 304.02203 536.1375 304.02203L533.2 304.02203L533.2 308.67828L531.6844 308.67828ZM533.2 302.66266L536.16876 302.66266Q537.6375 302.66266 538.2469 302.11578Q538.8719 301.5689 538.8719 300.58453Q538.8719 299.86578 538.4969 299.35016Q538.1375 298.83453 537.54376 298.67828Q537.16876 298.5689 536.1375 298.5689L533.2 298.5689L533.2 302.66266ZM548.1844 306.0064L549.6375 306.17828Q549.29376 307.45953 548.35626 308.16266Q547.4344 308.86578 545.9969 308.86578Q544.16876 308.86578 543.10626 307.74078Q542.04376 306.61578 542.04376 304.60016Q542.04376 302.5064 543.1219 301.35016Q544.2 300.1939 545.91876 300.1939Q547.575 300.1939 548.6219 301.33453Q549.6844 302.45953 549.6844 304.5064Q549.6844 304.6314 549.6844 304.8814L543.4969 304.8814Q543.575 306.2564 544.2625 306.99078Q544.96564 307.70953 545.9969 307.70953Q546.77814 307.70953 547.325 307.30328Q547.8719 306.89703 548.1844 306.0064ZM543.575 303.72516L548.2 303.72516Q548.10626 302.67828 547.66876 302.16266Q546.9969 301.35016 545.9344 301.35016Q544.96564 301.35016 544.29376 302.0064Q543.6375 302.64703 543.575 303.72516ZM550.98126 304.52203Q550.98126 302.22516 552.2625 301.11578Q553.34064 300.1939 554.8719 300.1939Q556.59064 300.1939 557.66876 301.3189Q558.7625 302.42828 558.7625 304.41266Q558.7625 306.0064 558.27814 306.92828Q557.79376 307.85016 556.8719 308.36578Q555.96564 308.86578 554.8719 308.86578Q553.1375 308.86578 552.0594 307.7564Q550.98126 306.6314 550.98126 304.52203ZM552.4344 304.52203Q552.4344 306.11578 553.1219 306.91266Q553.825 307.70953 554.8719 307.70953Q555.91876 307.70953 556.60626 306.91266Q557.3094 306.11578 557.3094 304.47516Q557.3094 302.9439 556.60626 302.14703Q555.91876 301.35016 554.8719 301.35016Q553.825 301.35016 553.1219 302.14703Q552.4344 302.92828 552.4344 304.52203ZM560.5125 311.86578L560.5125 300.3814L561.79376 300.3814L561.79376 301.45953Q562.2469 300.8189 562.8094 300.5064Q563.3875 300.1939 564.2 300.1939Q565.2625 300.1939 566.075 300.74078Q566.8875 301.28766 567.29376 302.28766Q567.71564 303.27203 567.71564 304.45953Q567.71564 305.74078 567.2469 306.7564Q566.79376 307.77203 565.91876 308.3189Q565.0594 308.86578 564.09064 308.86578Q563.3875 308.86578 562.825 308.5689Q562.27814 308.27203 561.91876 307.8189L561.91876 311.86578L560.5125 311.86578ZM561.77814 304.5689Q561.77814 306.17828 562.41876 306.9439Q563.075 307.70953 563.9969 307.70953Q564.9344 307.70953 565.60626 306.91266Q566.27814 306.11578 566.27814 304.45953Q566.27814 302.86578 565.6219 302.08453Q564.96564 301.28766 564.0594 301.28766Q563.16876 301.28766 562.46564 302.1314Q561.77814 302.97516 561.77814 304.5689ZM569.48126 308.67828L569.48126 297.22516L570.8875 297.22516L570.8875 308.67828L569.48126 308.67828ZM579.1844 306.0064L580.6375 306.17828Q580.29376 307.45953 579.35626 308.16266Q578.4344 308.86578 576.9969 308.86578Q575.16876 308.86578 574.10626 307.74078Q573.04376 306.61578 573.04376 304.60016Q573.04376 302.5064 574.1219 301.35016Q575.2 300.1939 576.91876 300.1939Q578.575 300.1939 579.6219 301.33453Q580.6844 302.45953 580.6844 304.5064Q580.6844 304.6314 580.6844 304.8814L574.4969 304.8814Q574.575 306.2564 575.2625 306.99078Q575.96564 307.70953 576.9969 307.70953Q577.77814 307.70953 578.325 307.30328Q578.8719 306.89703 579.1844 306.0064ZM574.575 303.72516L579.2 303.72516Q579.10626 302.67828 578.66876 302.16266Q577.9969 301.35016 576.9344 301.35016Q575.96564 301.35016 575.29376 302.0064Q574.6375 302.64703 574.575 303.72516Z" fill-rule="nonzero"/><path fill="#9e9e9e" d="M537.1219 327.67828L538.59064 327.55328Q538.7625 328.6314 539.35626 329.17828Q539.95 329.70953 540.79376 329.70953Q541.8094 329.70953 542.5125 328.9439Q543.21564 328.17828 543.21564 326.91266Q543.21564 325.70953 542.54376 325.02203Q541.8719 324.3189 540.77814 324.3189Q540.09064 324.3189 539.54376 324.6314Q538.9969 324.9439 538.6844 325.42828L537.3719 325.2564L538.48126 319.3814L544.16876 319.3814L544.16876 320.72516L539.60626 320.72516L538.98126 323.80328Q540.0125 323.08453 541.15314 323.08453Q542.65314 323.08453 543.6844 324.1314Q544.71564 325.16266 544.71564 326.78766Q544.71564 328.35016 543.8094 329.47516Q542.7 330.8814 540.79376 330.8814Q539.23126 330.8814 538.2469 330.0064Q537.2625 329.11578 537.1219 327.67828ZM546.1219 325.02203Q546.1219 322.99078 546.52814 321.7564Q546.95 320.52203 547.77814 319.85016Q548.60626 319.17828 549.85626 319.17828Q550.77814 319.17828 551.46564 319.55328Q552.16876 319.91266 552.6219 320.61578Q553.075 321.3189 553.325 322.3189Q553.59064 323.3189 553.59064 325.02203Q553.59064 327.03766 553.16876 328.28766Q552.7625 329.52203 551.9344 330.20953Q551.10626 330.8814 549.85626 330.8814Q548.2 330.8814 547.2469 329.67828Q546.1219 328.2564 546.1219 325.02203ZM547.5594 325.02203Q547.5594 327.85016 548.21564 328.78766Q548.8875 329.70953 549.85626 329.70953Q550.825 329.70953 551.48126 328.77203Q552.1375 327.83453 552.1375 325.02203Q552.1375 322.1939 551.48126 321.27203Q550.825 320.33453 549.84064 320.33453Q548.8719 320.33453 548.29376 321.16266Q547.5594 322.20953 547.5594 325.02203ZM555.90314 330.67828L555.90314 329.0689L557.5125 329.0689L557.5125 330.67828L555.90314 330.67828ZM559.1219 325.02203Q559.1219 322.99078 559.52814 321.7564Q559.95 320.52203 560.77814 319.85016Q561.60626 319.17828 562.85626 319.17828Q563.77814 319.17828 564.46564 319.55328Q565.16876 319.91266 565.6219 320.61578Q566.075 321.3189 566.325 322.3189Q566.59064 323.3189 566.59064 325.02203Q566.59064 327.03766 566.16876 328.28766Q565.7625 329.52203 564.9344 330.20953Q564.10626 330.8814 562.85626 330.8814Q561.2 330.8814 560.2469 329.67828Q559.1219 328.2564 559.1219 325.02203ZM560.5594 325.02203Q560.5594 327.85016 561.21564 328.78766Q561.8875 329.70953 562.85626 329.70953Q563.825 329.70953 564.48126 328.77203Q565.1375 327.83453 565.1375 325.02203Q565.1375 322.1939 564.48126 321.27203Q563.825 320.33453 562.84064 320.33453Q561.8719 320.33453 561.29376 321.16266Q560.5594 322.20953 560.5594 325.02203ZM568.3875 321.97516Q568.3875 320.74078 568.9969 319.8814Q569.6219 319.02203 570.79376 319.02203Q571.8719 319.02203 572.575 319.80328Q573.27814 320.5689 573.27814 322.05328Q573.27814 323.5064 572.5594 324.30328Q571.85626 325.08453 570.8094 325.08453Q569.7625 325.08453 569.075 324.3189Q568.3875 323.53766 568.3875 321.97516ZM570.825 319.99078Q570.3094 319.99078 569.95 320.4439Q569.60626 320.89703 569.60626 322.11578Q569.60626 323.20953 569.95 323.66266Q570.3094 324.11578 570.825 324.11578Q571.35626 324.11578 571.7 323.66266Q572.0594 323.20953 572.0594 322.0064Q572.0594 320.89703 571.7 320.4439Q571.35626 319.99078 570.825 319.99078ZM570.84064 331.10016L577.10626 319.02203L578.2469 319.02203L571.9969 331.10016L570.84064 331.10016ZM575.79376 327.99078Q575.79376 326.7564 576.40314 325.89703Q577.02814 325.03766 578.2 325.03766Q579.27814 325.03766 579.98126 325.8189Q580.7 326.58453 580.7 328.0689Q580.7 329.52203 579.98126 330.3189Q579.2625 331.10016 578.21564 331.10016Q577.16876 331.10016 576.48126 330.3189Q575.79376 329.53766 575.79376 327.99078ZM578.2469 326.0064Q577.71564 326.0064 577.35626 326.45953Q577.0125 326.91266 577.0125 328.1314Q577.0125 329.22516 577.35626 329.67828Q577.71564 330.1314 578.23126 330.1314Q578.77814 330.1314 579.1219 329.67828Q579.46564 329.22516 579.46564 328.02203Q579.46564 326.91266 579.10626 326.45953Q578.7625 326.0064 578.2469 326.0064Z" fill-rule="nonzero"/><path stroke="#757575" stroke-width="1.0" stroke-linecap="butt" d="M581.45 314.17828L454.76666 314.17828L388.11676 314.17828" fill-rule="nonzero"/><path fill="#9e9e9e" d="M390.11676 314.17828C390.11676 313.0737 389.22134 312.17828 388.11676 312.17828C387.0122 312.17828 386.11676 313.0737 386.11676 314.17828C386.11676 315.28284 387.0122 316.17828 388.11676 316.17828C389.22134 316.17828 390.11676 315.28284 390.11676 314.17828" fill-rule="nonzero"/><path fill="#f3f3f3" d="M265.98438 37.55L265.98438 23.2375L268.84375 23.2375L272.21875 33.3625Q272.6875 34.784374 272.90625 35.4875Q273.15625 34.70625 273.67188 33.190624L277.09375 23.2375L279.64062 23.2375L279.64062 37.55L277.82812 37.55L277.82812 25.565624L273.65625 37.55L271.95312 37.55L267.8125 25.3625L267.8125 37.55L265.98438 37.55ZM289.92188 34.20625L291.73438 34.440624Q291.3125 36.01875 290.14062 36.909374Q288.98438 37.784374 287.17188 37.784374Q284.90625 37.784374 283.5625 36.39375Q282.23438 34.9875 282.23438 32.45625Q282.23438 29.83125 283.57812 28.39375Q284.92188 26.940624 287.07812 26.940624Q289.15625 26.940624 290.46875 28.3625Q291.79688 29.76875 291.79688 32.346874Q291.79688 32.503124 291.78125 32.815624L284.04688 32.815624Q284.14062 34.51875 285.01562 35.425Q285.89062 36.33125 287.1875 36.33125Q288.15625 36.33125 288.82812 35.83125Q289.51562 35.315624 289.92188 34.20625ZM284.14062 31.3625L289.9375 31.3625Q289.82812 30.065624 289.28125 29.409374Q288.4375 28.39375 287.09375 28.39375Q285.89062 28.39375 285.0625 29.20625Q284.23438 30.003124 284.14062 31.3625ZM300.54688 37.55L300.54688 36.2375Q299.5625 37.784374 297.64062 37.784374Q296.40625 37.784374 295.35938 37.096874Q294.32812 36.409374 293.75 35.190624Q293.1875 33.971874 293.1875 32.378124Q293.1875 30.815624 293.70312 29.55Q294.21875 28.284374 295.25 27.6125Q296.29688 26.940624 297.5625 26.940624Q298.5 26.940624 299.23438 27.346874Q299.96875 27.7375 300.4375 28.3625L300.4375 23.2375L302.17188 23.2375L302.17188 37.55L300.54688 37.55ZM294.98438 32.378124Q294.98438 34.3625 295.82812 35.346874Q296.67188 36.33125 297.8125 36.33125Q298.96875 36.33125 299.76562 35.39375Q300.57812 34.45625 300.57812 32.51875Q300.57812 30.39375 299.75 29.39375Q298.9375 28.39375 297.73438 28.39375Q296.5625 28.39375 295.76562 29.3625Q294.98438 30.315624 294.98438 32.378124ZM304.82812 25.253124L304.82812 23.2375L306.59375 23.2375L306.59375 25.253124L304.82812 25.253124ZM304.82812 37.55L304.82812 27.175L306.59375 27.175L306.59375 37.55L304.82812 37.55ZM315.60938 37.55L315.60938 36.01875Q314.40625 37.784374 312.32812 37.784374Q311.40625 37.784374 310.60938 37.440624Q309.8125 37.08125 309.42188 36.55Q309.04688 36.01875 308.89062 35.2375Q308.78125 34.721874 308.78125 33.596874L308.78125 27.175L310.53125 27.175L310.53125 32.925Q310.53125 34.3 310.64062 34.784374Q310.8125 35.471874 311.34375 35.878124Q311.89062 36.26875 312.67188 36.26875Q313.46875 36.26875 314.15625 35.8625Q314.85938 35.45625 315.14062 34.76875Q315.4375 34.065624 315.4375 32.7375L315.4375 27.175L317.1875 27.175L317.1875 37.55L315.60938 37.55ZM319.8125 37.55L319.8125 27.175L321.39062 27.175L321.39062 28.628124Q321.875 27.878124 322.6875 27.409374Q323.5 26.940624 324.53125 26.940624Q325.6875 26.940624 326.42188 27.425Q327.15625 27.89375 327.46875 28.753124Q328.70312 26.940624 330.67188 26.940624Q332.21875 26.940624 333.04688 27.8Q333.875 28.659374 333.875 30.425L333.875 37.55L332.125 37.55L332.125 31.01875Q332.125 29.95625 331.95312 29.503124Q331.78125 29.034374 331.32812 28.753124Q330.89062 28.471874 330.28125 28.471874Q329.1875 28.471874 328.45312 29.20625Q327.73438 29.925 327.73438 31.51875L327.73438 37.55L325.98438 37.55L325.98438 30.815624Q325.98438 29.64375 325.54688 29.065624Q325.125 28.471874 324.14062 28.471874Q323.40625 28.471874 322.76562 28.8625Q322.14062 29.253124 321.85938 30.003124Q321.57812 30.753124 321.57812 32.175L321.57812 37.55L319.8125 37.55Z" fill-rule="nonzero"/></svg>