<svg version="1.1" viewBox="0.0 0.0 600.0 371.0" fill="none" stroke="none" stroke-linecap="square" stroke-miterlimit="10" width="600" height="371" xmlns:xlink="http://www.w3.org/1999/xlink" xmlns="http://www.w3.org/2000/svg"><path fill="#ffffff" fill-opacity="0.0" d="M0 0L600.0 0L600.0 371.0L0 371.0L0 0Z" fill-rule="nonzero"/><path fill="#2d4d98" d="M300.0 54.916668C324.08472 54.916668 347.80936 60.764263 369.1353 71.95699L334.56766 137.82016C323.90466 132.2238 312.04236 129.3 300.0 129.3Z" fill-rule="nonzero"/><path fill="#d8753e" d="M160.90076 256.4367C143.56403 210.72354 149.7946 159.41013 177.56743 119.17423C205.34026 78.93835 251.10974 54.916668 300.0 54.916668L300.0 129.3C275.55487 129.3 252.67014 141.31084 238.78372 161.42879C224.89731 181.54672 221.78201 207.20343 230.45038 230.06003Z" fill-rule="nonzero"/><path fill="#8c4595" d="M201.34946 315.03677C183.32178 299.06564 169.44131 278.95633 160.90076 256.4367L230.45038 230.06003C234.72066 241.31982 241.66089 251.3745 250.67473 259.36005Z" fill-rule="nonzero"/><path fill="#78a94e" d="M369.1353 71.95699C420.00864 98.65738 450.95947 152.26578 448.64603 209.67357C446.33255 267.08136 411.16843 318.02542 358.31155 340.54562C305.4547 363.0658 244.35468 353.13608 201.34946 315.03677L250.67473 259.36005C272.17734 278.4097 302.72736 283.37457 329.1558 272.11447C355.5842 260.85437 373.1663 235.38234 374.323 206.67845C375.47974 177.97455 360.00433 151.17035 334.56766 137.82016Z" fill-rule="nonzero"/><path fill="#ffffff" d="M307.38992 89.31296L307.38992 87.79733L315.71805 87.79733L315.71805 89.03171Q314.4993 90.34421 313.28055 92.51608Q312.07742 94.67233 311.42117 96.96921Q310.9368 98.59421 310.8118 100.51608L309.1868 100.51608Q309.21805 99.00046 309.78055 96.84421Q310.35867 94.68796 311.42117 92.68796Q312.48367 90.68796 313.6868 89.31296L307.38992 89.31296ZM318.17117 100.51608L318.17117 98.71921L319.96805 98.71921L319.96805 100.51608L318.17117 100.51608ZM322.38992 89.31296L322.38992 87.79733L330.71805 87.79733L330.71805 89.03171Q329.4993 90.34421 328.28055 92.51608Q327.07742 94.67233 326.42117 96.96921Q325.9368 98.59421 325.8118 100.51608L324.1868 100.51608Q324.21805 99.00046 324.78055 96.84421Q325.35867 94.68796 326.42117 92.68796Q327.48367 90.68796 328.6868 89.31296L322.38992 89.31296ZM332.57742 90.71921Q332.57742 89.34421 333.26492 88.37546Q333.96805 87.40671 335.28055 87.40671Q336.4993 87.40671 337.29617 88.28171Q338.09305 89.14108 338.09305 90.82858Q338.09305 92.45358 337.28055 93.34421Q336.48367 94.21921 335.29617 94.21921Q334.13992 94.21921 333.35867 93.35983Q332.57742 92.48483 332.57742 90.71921ZM335.32742 88.50046Q334.73367 88.50046 334.34305 89.01608Q333.95242 89.51608 333.95242 90.87546Q333.95242 92.12546 334.34305 92.62546Q334.7493 93.12546 335.32742 93.12546Q335.92117 93.12546 336.3118 92.62546Q336.70242 92.10983 336.70242 90.76608Q336.70242 89.51608 336.3118 89.01608Q335.92117 88.50046 335.32742 88.50046ZM335.34305 100.98483L342.38992 87.40671L343.67117 87.40671L336.63992 100.98483L335.34305 100.98483ZM340.90555 97.48483Q340.90555 96.10983 341.59305 95.14108Q342.29617 94.17233 343.6243 94.17233Q344.84305 94.17233 345.6243 95.04733Q346.42117 95.90671 346.42117 97.59421Q346.42117 99.21921 345.6243 100.10983Q344.82742 100.98483 343.63992 100.98483Q342.46805 100.98483 341.6868 100.10983Q340.90555 99.23483 340.90555 97.48483ZM343.67117 95.26608Q343.07742 95.26608 342.6868 95.78171Q342.29617 96.28171 342.29617 97.65671Q342.29617 98.87546 342.6868 99.39108Q343.07742 99.90671 343.65555 99.90671Q344.26492 99.90671 344.65555 99.39108Q345.04617 98.87546 345.04617 97.53171Q345.04617 96.28171 344.65555 95.78171Q344.26492 95.26608 343.67117 95.26608Z" fill-rule="nonzero"/><path fill="#ffffff" d="M367.07443 270.19016L368.73068 270.04953Q368.91818 271.26828 369.59006 271.87766Q370.26193 272.48703 371.21506 272.48703Q372.35568 272.48703 373.13693 271.62766Q373.9338 270.76828 373.9338 269.33078Q373.9338 267.98703 373.16818 267.20578Q372.41818 266.42453 371.1838 266.42453Q370.41818 266.42453 369.79318 266.76828Q369.1838 267.11203 368.84006 267.67453L367.35568 267.4714L368.60568 260.86203L375.01193 260.86203L375.01193 262.36203L369.8713 262.36203L369.16818 265.83078Q370.34006 265.01828 371.60568 265.01828Q373.29318 265.01828 374.44943 266.19016Q375.6213 267.36203 375.6213 269.19016Q375.6213 270.94016 374.59006 272.2214Q373.35568 273.7839 371.21506 273.7839Q369.44943 273.7839 368.34006 272.79953Q367.23068 271.81516 367.07443 270.19016ZM377.07443 270.1589L378.66818 269.95578Q378.9338 271.29953 379.59006 271.89328Q380.2463 272.48703 381.1838 272.48703Q382.3088 272.48703 383.07443 271.7214Q383.84006 270.94016 383.84006 269.79953Q383.84006 268.70578 383.1213 268.00266Q382.41818 267.2839 381.32443 267.2839Q380.8713 267.2839 380.19943 267.4714L380.3713 266.08078Q380.52756 266.0964 380.63693 266.0964Q381.63693 266.0964 382.44943 265.56516Q383.26193 265.0339 383.26193 263.94016Q383.26193 263.06516 382.66818 262.50266Q382.07443 261.92453 381.15256 261.92453Q380.23068 261.92453 379.60568 262.50266Q378.9963 263.08078 378.82443 264.25266L377.2463 263.9714Q377.52756 262.37766 378.5588 261.50266Q379.59006 260.62766 381.1213 260.62766Q382.16818 260.62766 383.0588 261.08078Q383.94943 261.5339 384.41818 262.31516Q384.88693 263.0964 384.88693 263.9714Q384.88693 264.81516 384.4338 265.50266Q383.9963 266.17453 383.10568 266.58078Q384.2463 266.8464 384.8713 267.69016Q385.51193 268.51828 385.51193 269.75266Q385.51193 271.44016 384.27756 272.62766Q383.0588 273.79953 381.1838 273.79953Q379.48068 273.79953 378.35568 272.7839Q377.2463 271.76828 377.07443 270.1589ZM387.96506 273.56516L387.96506 271.76828L389.76193 271.76828L389.76193 273.56516L387.96506 273.56516ZM394.51193 266.58078Q393.52756 266.2214 393.04318 265.54953Q392.57443 264.87766 392.57443 263.95578Q392.57443 262.54953 393.57443 261.5964Q394.59006 260.62766 396.27756 260.62766Q397.96506 260.62766 398.98068 261.61203Q400.01193 262.58078 400.01193 263.98703Q400.01193 264.89328 399.54318 265.56516Q399.07443 266.2214 398.1213 266.58078Q399.3088 266.9714 399.91818 267.83078Q400.54318 268.69016 400.54318 269.87766Q400.54318 271.5339 399.3713 272.6589Q398.19943 273.7839 396.29318 273.7839Q394.38693 273.7839 393.21506 272.6589Q392.0588 271.51828 392.0588 269.83078Q392.0588 268.58078 392.6838 267.73703Q393.32443 266.87766 394.51193 266.58078ZM394.1838 263.89328Q394.1838 264.81516 394.77756 265.39328Q395.3713 265.9714 396.3088 265.9714Q397.21506 265.9714 397.79318 265.39328Q398.38693 264.81516 398.38693 263.98703Q398.38693 263.11203 397.77756 262.51828Q397.1838 261.92453 396.29318 261.92453Q395.38693 261.92453 394.77756 262.50266Q394.1838 263.08078 394.1838 263.89328ZM393.6838 269.8464Q393.6838 270.51828 393.9963 271.1589Q394.32443 271.7839 394.94943 272.14328Q395.59006 272.48703 396.32443 272.48703Q397.44943 272.48703 398.1838 271.75266Q398.9338 271.01828 398.9338 269.89328Q398.9338 268.75266 398.16818 268.01828Q397.40256 267.26828 396.26193 267.26828Q395.15256 267.26828 394.41818 268.00266Q393.6838 268.73703 393.6838 269.8464ZM402.3713 263.76828Q402.3713 262.39328 403.0588 261.42453Q403.76193 260.45578 405.07443 260.45578Q406.29318 260.45578 407.09006 261.33078Q407.88693 262.19016 407.88693 263.87766Q407.88693 265.50266 407.07443 266.39328Q406.27756 267.26828 405.09006 267.26828Q403.9338 267.26828 403.15256 266.4089Q402.3713 265.5339 402.3713 263.76828ZM405.1213 261.54953Q404.52756 261.54953 404.13693 262.06516Q403.7463 262.56516 403.7463 263.92453Q403.7463 265.17453 404.13693 265.67453Q404.54318 266.17453 405.1213 266.17453Q405.71506 266.17453 406.10568 265.67453Q406.4963 265.1589 406.4963 263.81516Q406.4963 262.56516 406.10568 262.06516Q405.71506 261.54953 405.1213 261.54953ZM405.13693 274.0339L412.1838 260.45578L413.46506 260.45578L406.4338 274.0339L405.13693 274.0339ZM410.69943 270.5339Q410.69943 269.1589 411.38693 268.19016Q412.09006 267.2214 413.41818 267.2214Q414.63693 267.2214 415.41818 268.0964Q416.21506 268.95578 416.21506 270.64328Q416.21506 272.26828 415.41818 273.1589Q414.6213 274.0339 413.4338 274.0339Q412.26193 274.0339 411.48068 273.1589Q410.69943 272.2839 410.69943 270.5339ZM413.46506 268.31516Q412.8713 268.31516 412.48068 268.83078Q412.09006 269.33078 412.09006 270.70578Q412.09006 271.92453 412.48068 272.44016Q412.8713 272.95578 413.44943 272.95578Q414.0588 272.95578 414.44943 272.44016Q414.84006 271.92453 414.84006 270.58078Q414.84006 269.33078 414.44943 268.83078Q414.0588 268.31516 413.46506 268.31516Z" fill-rule="nonzero"/><path fill="#ffffff" d="M188.53494 262.36203L188.53494 260.8464L196.86307 260.8464L196.86307 262.08078Q195.64432 263.39328 194.42557 265.56516Q193.22244 267.7214 192.5662 270.01828Q192.08182 271.64328 191.95682 273.56516L190.33182 273.56516Q190.36307 272.04953 190.92557 269.89328Q191.5037 267.73703 192.5662 265.73703Q193.6287 263.73703 194.83182 262.36203L188.53494 262.36203ZM199.3162 273.56516L199.3162 271.76828L201.11307 271.76828L201.11307 273.56516L199.3162 273.56516ZM203.53494 262.36203L203.53494 260.8464L211.86307 260.8464L211.86307 262.08078Q210.64432 263.39328 209.42557 265.56516Q208.22244 267.7214 207.5662 270.01828Q207.08182 271.64328 206.95682 273.56516L205.33182 273.56516Q205.36307 272.04953 205.92557 269.89328Q206.5037 267.73703 207.5662 265.73703Q208.6287 263.73703 209.83182 262.36203L203.53494 262.36203ZM213.72244 263.76828Q213.72244 262.39328 214.40994 261.42453Q215.11307 260.45578 216.42557 260.45578Q217.64432 260.45578 218.4412 261.33078Q219.23807 262.19016 219.23807 263.87766Q219.23807 265.50266 218.42557 266.39328Q217.6287 267.26828 216.4412 267.26828Q215.28494 267.26828 214.5037 266.4089Q213.72244 265.5339 213.72244 263.76828ZM216.47244 261.54953Q215.8787 261.54953 215.48807 262.06516Q215.09744 262.56516 215.09744 263.92453Q215.09744 265.17453 215.48807 265.67453Q215.89432 266.17453 216.47244 266.17453Q217.0662 266.17453 217.45682 265.67453Q217.84744 265.1589 217.84744 263.81516Q217.84744 262.56516 217.45682 262.06516Q217.0662 261.54953 216.47244 261.54953ZM216.48807 274.0339L223.53494 260.45578L224.8162 260.45578L217.78494 274.0339L216.48807 274.0339ZM222.05057 270.5339Q222.05057 269.1589 222.73807 268.19016Q223.4412 267.2214 224.76932 267.2214Q225.98807 267.2214 226.76932 268.0964Q227.5662 268.95578 227.5662 270.64328Q227.5662 272.26828 226.76932 273.1589Q225.97244 274.0339 224.78494 274.0339Q223.61307 274.0339 222.83182 273.1589Q222.05057 272.2839 222.05057 270.5339ZM224.8162 268.31516Q224.22244 268.31516 223.83182 268.83078Q223.4412 269.33078 223.4412 270.70578Q223.4412 271.92453 223.83182 272.44016Q224.22244 272.95578 224.80057 272.95578Q225.40994 272.95578 225.80057 272.44016Q226.1912 271.92453 226.1912 270.58078Q226.1912 269.33078 225.80057 268.83078Q225.40994 268.31516 224.8162 268.31516Z" fill-rule="nonzero"/><path fill="#ffffff" d="M183.42557 143.39526L185.01932 143.19214Q185.28494 144.53589 185.9412 145.12964Q186.59744 145.72339 187.53494 145.72339Q188.65994 145.72339 189.42557 144.95776Q190.1912 144.17651 190.1912 143.03589Q190.1912 141.94214 189.47244 141.23901Q188.76932 140.52026 187.67557 140.52026Q187.22244 140.52026 186.55057 140.70776L186.72244 139.31714Q186.8787 139.33276 186.98807 139.33276Q187.98807 139.33276 188.80057 138.80151Q189.61307 138.27026 189.61307 137.17651Q189.61307 136.30151 189.01932 135.73901Q188.42557 135.16089 187.5037 135.16089Q186.58182 135.16089 185.95682 135.73901Q185.34744 136.31714 185.17557 137.48901L183.59744 137.20776Q183.8787 135.61401 184.90994 134.73901Q185.9412 133.86401 187.47244 133.86401Q188.51932 133.86401 189.40994 134.31714Q190.30057 134.77026 190.76932 135.55151Q191.23807 136.33276 191.23807 137.20776Q191.23807 138.05151 190.78494 138.73901Q190.34744 139.41089 189.45682 139.81714Q190.59744 140.08276 191.22244 140.92651Q191.86307 141.75464 191.86307 142.98901Q191.86307 144.67651 190.6287 145.86401Q189.40994 147.03589 187.53494 147.03589Q185.83182 147.03589 184.70682 146.02026Q183.59744 145.00464 183.42557 143.39526ZM193.42557 140.44214Q193.42557 138.16089 193.89432 136.77026Q194.36307 135.37964 195.28494 134.62964Q196.22244 133.86401 197.6287 133.86401Q198.65994 133.86401 199.4412 134.28589Q200.22244 134.69214 200.72244 135.48901Q201.23807 136.27026 201.53494 137.41089Q201.83182 138.53589 201.83182 140.44214Q201.83182 142.70776 201.36307 144.11401Q200.89432 145.50464 199.95682 146.27026Q199.03494 147.02026 197.6287 147.02026Q195.7537 147.02026 194.6912 145.69214Q193.42557 144.08276 193.42557 140.44214ZM195.05057 140.44214Q195.05057 143.61401 195.78494 144.67651Q196.53494 145.72339 197.6287 145.72339Q198.70682 145.72339 199.45682 144.67651Q200.20682 143.61401 200.20682 140.44214Q200.20682 137.27026 199.45682 136.22339Q198.70682 135.17651 197.61307 135.17651Q196.51932 135.17651 195.86307 136.09839Q195.05057 137.27026 195.05057 140.44214ZM204.3162 146.80151L204.3162 145.00464L206.11307 145.00464L206.11307 146.80151L204.3162 146.80151ZM210.86307 139.81714Q209.8787 139.45776 209.39432 138.78589Q208.92557 138.11401 208.92557 137.19214Q208.92557 135.78589 209.92557 134.83276Q210.9412 133.86401 212.6287 133.86401Q214.3162 133.86401 215.33182 134.84839Q216.36307 135.81714 216.36307 137.22339Q216.36307 138.12964 215.89432 138.80151Q215.42557 139.45776 214.47244 139.81714Q215.65994 140.20776 216.26932 141.06714Q216.89432 141.92651 216.89432 143.11401Q216.89432 144.77026 215.72244 145.89526Q214.55057 147.02026 212.64432 147.02026Q210.73807 147.02026 209.5662 145.89526Q208.40994 144.75464 208.40994 143.06714Q208.40994 141.81714 209.03494 140.97339Q209.67557 140.11401 210.86307 139.81714ZM210.53494 137.12964Q210.53494 138.05151 211.1287 138.62964Q211.72244 139.20776 212.65994 139.20776Q213.5662 139.20776 214.14432 138.62964Q214.73807 138.05151 214.73807 137.22339Q214.73807 136.34839 214.1287 135.75464Q213.53494 135.16089 212.64432 135.16089Q211.73807 135.16089 211.1287 135.73901Q210.53494 136.31714 210.53494 137.12964ZM210.03494 143.08276Q210.03494 143.75464 210.34744 144.39526Q210.67557 145.02026 211.30057 145.37964Q211.9412 145.72339 212.67557 145.72339Q213.80057 145.72339 214.53494 144.98901Q215.28494 144.25464 215.28494 143.12964Q215.28494 141.98901 214.51932 141.25464Q213.7537 140.50464 212.61307 140.50464Q211.5037 140.50464 210.76932 141.23901Q210.03494 141.97339 210.03494 143.08276ZM218.72244 137.00464Q218.72244 135.62964 219.40994 134.66089Q220.11307 133.69214 221.42557 133.69214Q222.64432 133.69214 223.4412 134.56714Q224.23807 135.42651 224.23807 137.11401Q224.23807 138.73901 223.42557 139.62964Q222.6287 140.50464 221.4412 140.50464Q220.28494 140.50464 219.5037 139.64526Q218.72244 138.77026 218.72244 137.00464ZM221.47244 134.78589Q220.8787 134.78589 220.48807 135.30151Q220.09744 135.80151 220.09744 137.16089Q220.09744 138.41089 220.48807 138.91089Q220.89432 139.41089 221.47244 139.41089Q222.0662 139.41089 222.45682 138.91089Q222.84744 138.39526 222.84744 137.05151Q222.84744 135.80151 222.45682 135.30151Q222.0662 134.78589 221.47244 134.78589ZM221.48807 147.27026L228.53494 133.69214L229.8162 133.69214L222.78494 147.27026L221.48807 147.27026ZM227.05057 143.77026Q227.05057 142.39526 227.73807 141.42651Q228.4412 140.45776 229.76932 140.45776Q230.98807 140.45776 231.76932 141.33276Q232.5662 142.19214 232.5662 143.87964Q232.5662 145.50464 231.76932 146.39526Q230.97244 147.27026 229.78494 147.27026Q228.61307 147.27026 227.83182 146.39526Q227.05057 145.52026 227.05057 143.77026ZM229.8162 141.55151Q229.22244 141.55151 228.83182 142.06714Q228.4412 142.56714 228.4412 143.94214Q228.4412 145.16089 228.83182 145.67651Q229.22244 146.19214 229.80057 146.19214Q230.40994 146.19214 230.80057 145.67651Q231.1912 145.16089 231.1912 143.81714Q231.1912 142.56714 230.80057 142.06714Q230.40994 141.55151 229.8162 141.55151Z" fill-rule="nonzero"/><path stroke="#ffffff" stroke-width="1.0" stroke-linejoin="round" stroke-linecap="round" d="M334.56766 137.82016C323.90466 132.2238 312.04236 129.3 300.0 129.3L300.0 54.916668C324.08472 54.916668 347.80936 60.764263 369.1353 71.95699" fill-rule="nonzero"/><path stroke="#ffffff" stroke-width="1.0" stroke-linejoin="round" stroke-linecap="round" d="M250.67473 259.36005C272.17734 278.4097 302.72736 283.37457 329.1558 272.11447C355.5842 260.85437 373.1663 235.38234 374.323 206.67845C375.47974 177.97455 360.00433 151.17035 334.56766 137.82016L369.1353 71.95699C420.00864 98.65738 450.95947 152.26578 448.64603 209.67357C446.33255 267.08136 411.16843 318.02542 358.31155 340.54562C305.4547 363.0658 244.35468 353.13608 201.34946 315.03677" fill-rule="nonzero"/><path stroke="#ffffff" stroke-width="1.0" stroke-linejoin="round" stroke-linecap="round" d="M230.45038 230.06003C234.72066 241.31982 241.66089 251.3745 250.67473 259.36005L201.34946 315.03677C183.32178 299.06564 169.44131 278.95633 160.90076 256.4367" fill-rule="nonzero"/><path stroke="#ffffff" stroke-width="1.0" stroke-linejoin="round" stroke-linecap="round" d="M300.0 129.3C275.55487 129.3 252.67014 141.31084 238.78372 161.42879C224.89731 181.54672 221.78201 207.20343 230.45038 230.06003L160.90076 256.4367C143.56403 210.72354 149.7946 159.41013 177.56743 119.17423C205.34026 78.93835 251.10974 54.916668 300.0 54.916668" fill-rule="nonzero"/><path fill="#efefef" d="M18.51875 117.89969L22.925 106.44656L24.565624 106.44656L29.253124 117.89969L27.51875 117.89969L26.190624 114.43094L21.39375 114.43094L20.14375 117.89969L18.51875 117.89969ZM21.83125 113.19656L25.721874 113.19656L24.51875 110.02469Q23.971874 108.57156 23.70625 107.64969Q23.4875 108.74344 23.096874 109.83719L21.83125 113.19656ZM30.596874 117.89969L30.596874 109.60281L31.8625 109.60281L31.8625 110.85281Q32.346874 109.97781 32.753124 109.69656Q33.159374 109.41531 33.659374 109.41531Q34.3625 109.41531 35.096874 109.86844L34.6125 111.16531Q34.096874 110.86844 33.58125 110.86844Q33.128124 110.86844 32.753124 111.14969Q32.39375 111.41531 32.2375 111.91531Q32.003124 112.66531 32.003124 113.55594L32.003124 117.89969L30.596874 117.89969ZM38.675 116.63406L38.878124 117.88406Q38.284374 118.00906 37.815624 118.00906Q37.05 118.00906 36.628124 117.77469Q36.20625 117.52469 36.034374 117.13406Q35.8625 116.72781 35.8625 115.46219L35.8625 110.69656L34.83125 110.69656L34.83125 109.60281L35.8625 109.60281L35.8625 107.54031L37.26875 106.69656L37.26875 109.60281L38.675 109.60281L38.675 110.69656L37.26875 110.69656L37.26875 115.54031Q37.26875 116.14969 37.33125 116.32156Q37.409374 116.49344 37.58125 116.60281Q37.753124 116.69656 38.065624 116.69656Q38.3 116.69656 38.675 116.63406ZM39.05 115.41531L40.440624 115.19656Q40.55 116.04031 41.08125 116.49344Q41.628124 116.93094 42.58125 116.93094Q43.55 116.93094 44.01875 116.54031Q44.4875 116.13406 44.4875 115.60281Q44.4875 115.13406 44.08125 114.85281Q43.784374 114.66531 42.64375 114.38406Q41.096874 113.99344 40.4875 113.71219Q39.89375 113.41531 39.58125 112.91531Q39.284374 112.41531 39.284374 111.80594Q39.284374 111.24344 39.534374 110.77469Q39.784374 110.30594 40.221874 109.99344Q40.55 109.74344 41.1125 109.58719Q41.690624 109.41531 42.33125 109.41531Q43.315624 109.41531 44.05 109.69656Q44.784374 109.97781 45.128124 110.46219Q45.4875 110.93094 45.628124 111.74344L44.253124 111.93094Q44.159374 111.29031 43.70625 110.93094Q43.253124 110.57156 42.440624 110.57156Q41.471874 110.57156 41.05 110.89969Q40.64375 111.21219 40.64375 111.63406Q40.64375 111.91531 40.815624 112.13406Q40.9875 112.35281 41.346874 112.50906Q41.565624 112.58719 42.596874 112.86844Q44.08125 113.25906 44.675 113.52469Q45.26875 113.77469 45.596874 114.25906Q45.940624 114.74344 45.940624 115.46219Q45.940624 116.16531 45.51875 116.79031Q45.1125 117.39969 44.33125 117.74344Q43.565624 118.08719 42.596874 118.08719Q40.971874 118.08719 40.128124 117.41531Q39.284374 116.74344 39.05 115.41531ZM58.159374 116.54031Q57.45625 117.32156 56.628124 117.71219Q55.815624 118.10281 54.8625 118.10281Q53.1125 118.10281 52.08125 116.89969Q51.2375 115.93094 51.2375 114.74344Q51.2375 113.68094 51.925 112.82156Q52.6125 111.96219 53.971874 111.32156Q53.190624 110.43094 52.925 109.88406Q52.675 109.32156 52.675 108.80594Q52.675 107.77469 53.4875 107.00906Q54.3 106.24344 55.51875 106.24344Q56.690624 106.24344 57.440624 106.96219Q58.190624 107.68094 58.190624 108.69656Q58.190624 110.32156 56.01875 111.47781L58.08125 114.10281Q58.425 113.41531 58.628124 112.50906L60.08125 112.82156Q59.70625 114.32156 59.065624 115.29031Q59.8625 116.33719 60.8625 117.04031L59.909374 118.16531Q59.065624 117.61844 58.159374 116.54031ZM55.3 110.57156Q56.20625 110.04031 56.471874 109.63406Q56.753124 109.22781 56.753124 108.72781Q56.753124 108.14969 56.378124 107.77469Q56.003124 107.39969 55.45625 107.39969Q54.878124 107.39969 54.503124 107.77469Q54.128124 108.13406 54.128124 108.66531Q54.128124 108.93094 54.253124 109.22781Q54.39375 109.52469 54.675 109.85281L55.3 110.57156ZM57.26875 115.43094L54.690624 112.24344Q53.55 112.91531 53.14375 113.50906Q52.753124 114.08719 52.753124 114.64969Q52.753124 115.35281 53.3 116.10281Q53.8625 116.85281 54.878124 116.85281Q55.51875 116.85281 56.190624 116.46219Q56.8625 116.05594 57.26875 115.43094ZM65.51875 117.89969L69.925 106.44656L71.56563 106.44656L76.25313 117.89969L74.51875 117.89969L73.19063 114.43094L68.39375 114.43094L67.14375 117.89969L65.51875 117.89969ZM68.83125 113.19656L72.72188 113.19656L71.51875 110.02469Q70.97188 108.57156 70.70625 107.64969Q70.4875 108.74344 70.09688 109.83719L68.83125 113.19656ZM77.6125 117.89969L77.6125 109.60281L78.87813 109.60281L78.87813 110.77469Q79.78438 109.41531 81.51875 109.41531Q82.26875 109.41531 82.89375 109.68094Q83.51875 109.94656 83.83125 110.38406Q84.14375 110.82156 84.26875 111.43094Q84.34688 111.82156 84.34688 112.79031L84.34688 117.89969L82.94063 117.89969L82.94063 112.85281Q82.94063 111.99344 82.76875 111.57156Q82.6125 111.13406 82.19063 110.88406Q81.78438 110.63406 81.22188 110.63406Q80.31563 110.63406 79.65938 111.21219Q79.01875 111.77469 79.01875 113.36844L79.01875 117.89969L77.6125 117.89969ZM89.675 116.63406L89.87813 117.88406Q89.28438 118.00906 88.81563 118.00906Q88.05 118.00906 87.62813 117.77469Q87.20625 117.52469 87.03438 117.13406Q86.8625 116.72781 86.8625 115.46219L86.8625 110.69656L85.83125 110.69656L85.83125 109.60281L86.8625 109.60281L86.8625 107.54031L88.26875 106.69656L88.26875 109.60281L89.675 109.60281L89.675 110.69656L88.26875 110.69656L88.26875 115.54031Q88.26875 116.14969 88.33125 116.32156Q88.40938 116.49344 88.58125 116.60281Q88.75313 116.69656 89.06563 116.69656Q89.3 116.69656 89.675 116.63406ZM90.6125 108.05594L90.6125 106.44656L92.01875 106.44656L92.01875 108.05594L90.6125 108.05594ZM90.6125 117.89969L90.6125 109.60281L92.01875 109.60281L92.01875 117.89969L90.6125 117.89969ZM99.89375 121.08719L99.89375 117.00906Q99.56563 117.47781 98.97188 117.79031Q98.39375 118.08719 97.72188 118.08719Q96.25313 118.08719 95.175 116.91531Q94.1125 115.72781 94.1125 113.66531Q94.1125 112.41531 94.55 111.43094Q94.9875 110.43094 95.8 109.93094Q96.62813 109.41531 97.6125 109.41531Q99.15938 109.41531 100.03438 110.71219L100.03438 109.60281L101.3 109.60281L101.3 121.08719L99.89375 121.08719ZM95.56563 113.72781Q95.56563 115.32156 96.2375 116.13406Q96.90938 116.93094 97.84688 116.93094Q98.7375 116.93094 99.37813 116.16531Q100.03438 115.39969 100.03438 113.85281Q100.03438 112.19656 99.34688 111.36844Q98.675 110.52469 97.75313 110.52469Q96.83125 110.52469 96.19063 111.30594Q95.56563 112.07156 95.56563 113.72781ZM109.05 117.89969L109.05 116.68094Q108.08125 118.08719 106.40938 118.08719Q105.675 118.08719 105.03438 117.80594Q104.40938 117.52469 104.09688 117.10281Q103.78438 116.66531 103.65938 116.05594Q103.58125 115.63406 103.58125 114.74344L103.58125 109.60281L104.9875 109.60281L104.9875 114.19656Q104.9875 115.30594 105.06563 115.68094Q105.20625 116.24344 105.62813 116.55594Q106.06563 116.86844 106.69063 116.86844Q107.33125 116.86844 107.87813 116.55594Q108.44063 116.22781 108.65938 115.66531Q108.89375 115.10281 108.89375 114.04031L108.89375 109.60281L110.3 109.60281L110.3 117.89969L109.05 117.89969ZM112.6125 108.05594L112.6125 106.44656L114.01875 106.44656L114.01875 108.05594L112.6125 108.05594ZM112.6125 117.89969L112.6125 109.60281L114.01875 109.60281L114.01875 117.89969L112.6125 117.89969ZM119.675 116.63406L119.87813 117.88406Q119.28438 118.00906 118.81563 118.00906Q118.05 118.00906 117.62813 117.77469Q117.20625 117.52469 117.03438 117.13406Q116.8625 116.72781 116.8625 115.46219L116.8625 110.69656L115.83125 110.69656L115.83125 109.60281L116.8625 109.60281L116.8625 107.54031L118.26875 106.69656L118.26875 109.60281L119.675 109.60281L119.675 110.69656L118.26875 110.69656L118.26875 115.54031Q118.26875 116.14969 118.33125 116.32156Q118.40938 116.49344 118.58125 116.60281Q118.75313 116.69656 119.06563 116.69656Q119.3 116.69656 119.675 116.63406ZM120.6125 108.05594L120.6125 106.44656L122.01875 106.44656L122.01875 108.05594L120.6125 108.05594ZM120.6125 117.89969L120.6125 109.60281L122.01875 109.60281L122.01875 117.89969L120.6125 117.89969ZM130.28438 115.22781L131.7375 115.39969Q131.39375 116.68094 130.45625 117.38406Q129.53438 118.08719 128.09688 118.08719Q126.26875 118.08719 125.20625 116.96219Q124.14375 115.83719 124.14375 113.82156Q124.14375 111.72781 125.22188 110.57156Q126.3 109.41531 128.01875 109.41531Q129.675 109.41531 130.72188 110.55594Q131.78438 111.68094 131.78438 113.72781Q131.78438 113.85281 131.78438 114.10281L125.59688 114.10281Q125.675 115.47781 126.3625 116.21219Q127.06563 116.93094 128.09688 116.93094Q128.87813 116.93094 129.425 116.52469Q129.97188 116.11844 130.28438 115.22781ZM125.675 112.94656L130.3 112.94656Q130.20625 111.89969 129.76875 111.38406Q129.09688 110.57156 128.03438 110.57156Q127.06563 110.57156 126.39375 111.22781Q125.7375 111.86844 125.675 112.94656ZM133.05 115.41531L134.44063 115.19656Q134.55 116.04031 135.08125 116.49344Q135.62813 116.93094 136.58125 116.93094Q137.55 116.93094 138.01875 116.54031Q138.4875 116.13406 138.4875 115.60281Q138.4875 115.13406 138.08125 114.85281Q137.78438 114.66531 136.64375 114.38406Q135.09688 113.99344 134.4875 113.71219Q133.89375 113.41531 133.58125 112.91531Q133.28438 112.41531 133.28438 111.80594Q133.28438 111.24344 133.53438 110.77469Q133.78438 110.30594 134.22188 109.99344Q134.55 109.74344 135.1125 109.58719Q135.69063 109.41531 136.33125 109.41531Q137.31563 109.41531 138.05 109.69656Q138.78438 109.97781 139.12813 110.46219Q139.4875 110.93094 139.62813 111.74344L138.25313 111.93094Q138.15938 111.29031 137.70625 110.93094Q137.25313 110.57156 136.44063 110.57156Q135.47188 110.57156 135.05 110.89969Q134.64375 111.21219 134.64375 111.63406Q134.64375 111.91531 134.81563 112.13406Q134.9875 112.35281 135.34688 112.50906Q135.56563 112.58719 136.59688 112.86844Q138.08125 113.25906 138.675 113.52469Q139.26875 113.77469 139.59688 114.25906Q139.94063 114.74344 139.94063 115.46219Q139.94063 116.16531 139.51875 116.79031Q139.1125 117.39969 138.33125 117.74344Q137.56563 118.08719 136.59688 118.08719Q134.97188 118.08719 134.12813 117.41531Q133.28438 116.74344 133.05 115.41531Z" fill-rule="nonzero"/><path fill="#9e9e9e" d="M19.221874 136.86844L20.628124 136.68094Q20.878124 137.88406 21.45625 138.41531Q22.034374 138.93094 22.878124 138.93094Q23.8625 138.93094 24.55 138.24344Q25.2375 137.55594 25.2375 136.54031Q25.2375 135.57156 24.596874 134.94656Q23.971874 134.32156 22.9875 134.32156Q22.596874 134.32156 22.003124 134.47781L22.159374 133.24344Q22.3 133.25906 22.378124 133.25906Q23.284374 133.25906 24.003124 132.79031Q24.721874 132.32156 24.721874 131.33719Q24.721874 130.57156 24.190624 130.07156Q23.675 129.55594 22.846874 129.55594Q22.01875 129.55594 21.471874 130.07156Q20.925 130.58719 20.76875 131.61844L19.3625 131.36844Q19.628124 129.94656 20.534374 129.18094Q21.45625 128.39969 22.815624 128.39969Q23.753124 128.39969 24.534374 128.80594Q25.33125 129.19656 25.7375 129.89969Q26.159374 130.58719 26.159374 131.36844Q26.159374 132.11844 25.753124 132.72781Q25.3625 133.33719 24.58125 133.69656Q25.596874 133.93094 26.159374 134.66531Q26.721874 135.39969 26.721874 136.50906Q26.721874 138.00906 25.628124 139.05594Q24.534374 140.10281 22.8625 140.10281Q21.3625 140.10281 20.3625 139.21219Q19.3625 138.30594 19.221874 136.86844ZM28.221874 134.24344Q28.221874 132.21219 28.628124 130.97781Q29.05 129.74344 29.878124 129.07156Q30.70625 128.39969 31.95625 128.39969Q32.878124 128.39969 33.565624 128.77469Q34.26875 129.13406 34.721874 129.83719Q35.175 130.54031 35.425 131.54031Q35.690624 132.54031 35.690624 134.24344Q35.690624 136.25906 35.26875 137.50906Q34.8625 138.74344 34.034374 139.43094Q33.20625 140.10281 31.95625 140.10281Q30.3 140.10281 29.346874 138.89969Q28.221874 137.47781 28.221874 134.24344ZM29.659374 134.24344Q29.659374 137.07156 30.315624 138.00906Q30.9875 138.93094 31.95625 138.93094Q32.925 138.93094 33.58125 137.99344Q34.2375 137.05594 34.2375 134.24344Q34.2375 131.41531 33.58125 130.49344Q32.925 129.55594 31.940624 129.55594Q30.971874 129.55594 30.39375 130.38406Q29.659374 131.43094 29.659374 134.24344ZM38.003124 139.89969L38.003124 138.29031L39.6125 138.29031L39.6125 139.89969L38.003124 139.89969ZM43.378124 133.68094Q42.503124 133.36844 42.08125 132.77469Q41.659374 132.18094 41.659374 131.35281Q41.659374 130.10281 42.55 129.25906Q43.45625 128.39969 44.95625 128.39969Q46.45625 128.39969 47.3625 129.27469Q48.284374 130.13406 48.284374 131.38406Q48.284374 132.18094 47.8625 132.77469Q47.440624 133.36844 46.596874 133.68094Q47.64375 134.02469 48.190624 134.79031Q48.753124 135.55594 48.753124 136.61844Q48.753124 138.08719 47.70625 139.10281Q46.675 140.10281 44.971874 140.10281Q43.284374 140.10281 42.2375 139.10281Q41.20625 138.08719 41.20625 136.58719Q41.20625 135.46219 41.76875 134.71219Q42.33125 133.96219 43.378124 133.68094ZM43.096874 131.30594Q43.096874 132.11844 43.6125 132.63406Q44.14375 133.14969 44.9875 133.14969Q45.8 133.14969 46.315624 132.63406Q46.83125 132.11844 46.83125 131.38406Q46.83125 130.60281 46.3 130.08719Q45.76875 129.55594 44.971874 129.55594Q44.159374 129.55594 43.628124 130.07156Q43.096874 130.58719 43.096874 131.30594ZM42.64375 136.58719Q42.64375 137.19656 42.925 137.75906Q43.221874 138.32156 43.784374 138.63406Q44.346874 138.93094 44.9875 138.93094Q46.003124 138.93094 46.659374 138.29031Q47.315624 137.63406 47.315624 136.63406Q47.315624 135.61844 46.628124 134.96219Q45.95625 134.29031 44.940624 134.29031Q43.95625 134.29031 43.3 134.94656Q42.64375 135.60281 42.64375 136.58719ZM50.4875 131.19656Q50.4875 129.96219 51.096874 129.10281Q51.721874 128.24344 52.89375 128.24344Q53.971874 128.24344 54.675 129.02469Q55.378124 129.79031 55.378124 131.27469Q55.378124 132.72781 54.659374 133.52469Q53.95625 134.30594 52.909374 134.30594Q51.8625 134.30594 51.175 133.54031Q50.4875 132.75906 50.4875 131.19656ZM52.925 129.21219Q52.409374 129.21219 52.05 129.66531Q51.70625 130.11844 51.70625 131.33719Q51.70625 132.43094 52.05 132.88406Q52.409374 133.33719 52.925 133.33719Q53.45625 133.33719 53.8 132.88406Q54.159374 132.43094 54.159374 131.22781Q54.159374 130.11844 53.8 129.66531Q53.45625 129.21219 52.925 129.21219ZM52.940624 140.32156L59.20625 128.24344L60.346874 128.24344L54.096874 140.32156L52.940624 140.32156ZM57.89375 137.21219Q57.89375 135.97781 58.503124 135.11844Q59.128124 134.25906 60.3 134.25906Q61.378124 134.25906 62.08125 135.04031Q62.8 135.80594 62.8 137.29031Q62.8 138.74344 62.08125 139.54031Q61.3625 140.32156 60.315624 140.32156Q59.26875 140.32156 58.58125 139.54031Q57.89375 138.75906 57.89375 137.21219ZM60.346874 135.22781Q59.815624 135.22781 59.45625 135.68094Q59.1125 136.13406 59.1125 137.35281Q59.1125 138.44656 59.45625 138.89969Q59.815624 139.35281 60.33125 139.35281Q60.878124 139.35281 61.221874 138.89969Q61.565624 138.44656 61.565624 137.24344Q61.565624 136.13406 61.20625 135.68094Q60.8625 135.22781 60.346874 135.22781Z" fill-rule="nonzero"/><path stroke="#757575" stroke-width="1.0" stroke-linecap="butt" d="M18.55 123.39969L145.23334 123.39969L183.68906 123.39969" fill-rule="nonzero"/><path fill="#9e9e9e" d="M185.68906 123.39969C185.68906 122.29512 184.79362 121.39969 183.68906 121.39969C182.58449 121.39969 181.68906 122.29512 181.68906 123.39969C181.68906 124.50426 182.58449 125.39969 183.68906 125.39969C184.79362 125.39969 185.68906 124.50426 185.68906 123.39969" fill-rule="nonzero"/><path fill="#efefef" d="M19.76875 278.46698L19.76875 267.01385L21.33125 267.01385L27.346874 275.99823L27.346874 267.01385L28.8 267.01385L28.8 278.46698L27.2375 278.46698L21.221874 269.46698L21.221874 278.46698L19.76875 278.46698ZM37.01875 277.43573Q36.2375 278.1076 35.51875 278.38885Q34.8 278.65448 33.971874 278.65448Q32.596874 278.65448 31.8625 277.9826Q31.128124 277.31073 31.128124 276.27948Q31.128124 275.6701 31.409374 275.1701Q31.690624 274.65448 32.128124 274.3576Q32.58125 274.0451 33.14375 273.88885Q33.565624 273.77948 34.39375 273.68573Q36.096874 273.4826 36.909374 273.20135Q36.909374 272.90448 36.909374 272.82635Q36.909374 271.96698 36.51875 271.62323Q35.971874 271.13885 34.909374 271.13885Q33.925 271.13885 33.440624 271.49823Q32.971874 271.84198 32.753124 272.71698L31.378124 272.52948Q31.565624 271.65448 31.9875 271.1076Q32.425 270.56073 33.2375 270.27948Q34.05 269.9826 35.1125 269.9826Q36.175 269.9826 36.83125 270.2326Q37.503124 270.4826 37.815624 270.8576Q38.128124 271.2326 38.253124 271.81073Q38.33125 272.1701 38.33125 273.1076L38.33125 274.9826Q38.33125 276.95135 38.409374 277.46698Q38.503124 277.9826 38.76875 278.46698L37.3 278.46698Q37.08125 278.02948 37.01875 277.43573ZM36.909374 274.2951Q36.14375 274.6076 34.6125 274.82635Q33.7375 274.95135 33.378124 275.1076Q33.01875 275.26385 32.815624 275.57635Q32.628124 275.87323 32.628124 276.2326Q32.628124 276.7951 33.05 277.1701Q33.4875 277.5451 34.3 277.5451Q35.1125 277.5451 35.7375 277.20135Q36.378124 276.84198 36.675 276.21698Q36.909374 275.74823 36.909374 274.81073L36.909374 274.2951ZM43.675 277.20135L43.878124 278.45135Q43.284374 278.57635 42.815624 278.57635Q42.05 278.57635 41.628124 278.34198Q41.20625 278.09198 41.034374 277.70135Q40.8625 277.2951 40.8625 276.02948L40.8625 271.26385L39.83125 271.26385L39.83125 270.1701L40.8625 270.1701L40.8625 268.1076L42.26875 267.26385L42.26875 270.1701L43.675 270.1701L43.675 271.26385L42.26875 271.26385L42.26875 276.1076Q42.26875 276.71698 42.33125 276.88885Q42.409374 277.06073 42.58125 277.1701Q42.753124 277.26385 43.065624 277.26385Q43.3 277.26385 43.675 277.20135ZM50.05 278.46698L50.05 277.24823Q49.08125 278.65448 47.409374 278.65448Q46.675 278.65448 46.034374 278.37323Q45.409374 278.09198 45.096874 277.6701Q44.784374 277.2326 44.659374 276.62323Q44.58125 276.20135 44.58125 275.31073L44.58125 270.1701L45.9875 270.1701L45.9875 274.76385Q45.9875 275.87323 46.065624 276.24823Q46.20625 276.81073 46.628124 277.12323Q47.065624 277.43573 47.690624 277.43573Q48.33125 277.43573 48.878124 277.12323Q49.440624 276.7951 49.659374 276.2326Q49.89375 275.6701 49.89375 274.6076L49.89375 270.1701L51.3 270.1701L51.3 278.46698L50.05 278.46698ZM53.596874 278.46698L53.596874 270.1701L54.8625 270.1701L54.8625 271.4201Q55.346874 270.5451 55.753124 270.26385Q56.159374 269.9826 56.659374 269.9826Q57.3625 269.9826 58.096874 270.43573L57.6125 271.7326Q57.096874 271.43573 56.58125 271.43573Q56.128124 271.43573 55.753124 271.71698Q55.39375 271.9826 55.2375 272.4826Q55.003124 273.2326 55.003124 274.12323L55.003124 278.46698L53.596874 278.46698ZM64.01875 277.43573Q63.2375 278.1076 62.51875 278.38885Q61.8 278.65448 60.971874 278.65448Q59.596874 278.65448 58.8625 277.9826Q58.128124 277.31073 58.128124 276.27948Q58.128124 275.6701 58.409374 275.1701Q58.690624 274.65448 59.128124 274.3576Q59.58125 274.0451 60.14375 273.88885Q60.565624 273.77948 61.39375 273.68573Q63.096874 273.4826 63.909374 273.20135Q63.909374 272.90448 63.909374 272.82635Q63.909374 271.96698 63.51875 271.62323Q62.971874 271.13885 61.909374 271.13885Q60.925 271.13885 60.440624 271.49823Q59.971874 271.84198 59.753124 272.71698L58.378124 272.52948Q58.565624 271.65448 58.9875 271.1076Q59.425 270.56073 60.2375 270.27948Q61.05 269.9826 62.1125 269.9826Q63.175 269.9826 63.83125 270.2326Q64.50313 270.4826 64.81563 270.8576Q65.12813 271.2326 65.25313 271.81073Q65.33125 272.1701 65.33125 273.1076L65.33125 274.9826Q65.33125 276.95135 65.40938 277.46698Q65.50313 277.9826 65.76875 278.46698L64.3 278.46698Q64.08125 278.02948 64.01875 277.43573ZM63.909374 274.2951Q63.14375 274.6076 61.6125 274.82635Q60.7375 274.95135 60.378124 275.1076Q60.01875 275.26385 59.815624 275.57635Q59.628124 275.87323 59.628124 276.2326Q59.628124 276.7951 60.05 277.1701Q60.4875 277.5451 61.3 277.5451Q62.1125 277.5451 62.7375 277.20135Q63.378124 276.84198 63.675 276.21698Q63.909374 275.74823 63.909374 274.81073L63.909374 274.2951ZM67.58125 278.46698L67.58125 267.01385L68.9875 267.01385L68.9875 278.46698L67.58125 278.46698Z" fill-rule="nonzero"/><path fill="#9e9e9e" d="M19.315624 290.51385L19.315624 289.15448L26.721874 289.15448L26.721874 290.24823Q25.628124 291.4201 24.55 293.3576Q23.4875 295.27948 22.89375 297.31073Q22.471874 298.74823 22.3625 300.46698L20.909374 300.46698Q20.940624 299.1076 21.440624 297.20135Q21.95625 295.27948 22.89375 293.51385Q23.846874 291.7326 24.925 290.51385L19.315624 290.51385ZM29.003124 300.46698L29.003124 298.8576L30.6125 298.8576L30.6125 300.46698L29.003124 300.46698ZM32.315624 290.51385L32.315624 289.15448L39.721874 289.15448L39.721874 290.24823Q38.628124 291.4201 37.55 293.3576Q36.4875 295.27948 35.89375 297.31073Q35.471874 298.74823 35.3625 300.46698L33.909374 300.46698Q33.940624 299.1076 34.440624 297.20135Q34.95625 295.27948 35.89375 293.51385Q36.846874 291.7326 37.925 290.51385L32.315624 290.51385ZM41.4875 291.76385Q41.4875 290.52948 42.096874 289.6701Q42.721874 288.81073 43.89375 288.81073Q44.971874 288.81073 45.675 289.59198Q46.378124 290.3576 46.378124 291.84198Q46.378124 293.2951 45.659374 294.09198Q44.95625 294.87323 43.909374 294.87323Q42.8625 294.87323 42.175 294.1076Q41.4875 293.32635 41.4875 291.76385ZM43.925 289.77948Q43.409374 289.77948 43.05 290.2326Q42.70625 290.68573 42.70625 291.90448Q42.70625 292.99823 43.05 293.45135Q43.409374 293.90448 43.925 293.90448Q44.45625 293.90448 44.8 293.45135Q45.159374 292.99823 45.159374 291.7951Q45.159374 290.68573 44.8 290.2326Q44.45625 289.77948 43.925 289.77948ZM43.940624 300.88885L50.20625 288.81073L51.346874 288.81073L45.096874 300.88885L43.940624 300.88885ZM48.89375 297.77948Q48.89375 296.5451 49.503124 295.68573Q50.128124 294.82635 51.3 294.82635Q52.378124 294.82635 53.08125 295.6076Q53.8 296.37323 53.8 297.8576Q53.8 299.31073 53.08125 300.1076Q52.3625 300.88885 51.315624 300.88885Q50.26875 300.88885 49.58125 300.1076Q48.89375 299.32635 48.89375 297.77948ZM51.346874 295.7951Q50.815624 295.7951 50.45625 296.24823Q50.1125 296.70135 50.1125 297.9201Q50.1125 299.01385 50.45625 299.46698Q50.815624 299.9201 51.33125 299.9201Q51.878124 299.9201 52.221874 299.46698Q52.565624 299.01385 52.565624 297.81073Q52.565624 296.70135 52.20625 296.24823Q51.8625 295.7951 51.346874 295.7951Z" fill-rule="nonzero"/><path stroke="#757575" stroke-width="1.0" stroke-linecap="butt" d="M18.55 283.96698L145.23334 283.96698L183.68906 283.96698" fill-rule="nonzero"/><path fill="#9e9e9e" d="M185.68906 283.96698C185.68906 282.8624 184.79362 281.96698 183.68906 281.96698C182.58449 281.96698 181.68906 282.8624 181.68906 283.96698C181.68906 285.07153 182.58449 285.96698 183.68906 285.96698C184.79362 285.96698 185.68906 285.07153 185.68906 283.96698" fill-rule="nonzero"/><path fill="#efefef" d="M506.6844 69.916664L506.6844 58.46354L510.6375 58.46354Q511.96564 58.46354 512.66876 58.61979Q513.65314 58.854164 514.35626 59.447914Q515.2625 60.21354 515.7 61.40104Q516.15314 62.58854 516.15314 64.11979Q516.15314 65.43229 515.84064 66.447914Q515.54376 67.447914 515.0594 68.104164Q514.59064 68.760414 514.02814 69.15104Q513.46564 69.52604 512.65314 69.729164Q511.85626 69.916664 510.825 69.916664L506.6844 69.916664ZM508.2 68.55729L510.65314 68.55729Q511.77814 68.55729 512.41876 68.354164Q513.075 68.135414 513.45 67.760414Q513.9969 67.21354 514.29376 66.30729Q514.59064 65.40104 514.59064 64.104164Q514.59064 62.30729 513.9969 61.33854Q513.41876 60.36979 512.575 60.041664Q511.96564 59.80729 510.60626 59.80729L508.2 59.80729L508.2 68.55729ZM518.5125 60.072914L518.5125 58.46354L519.91876 58.46354L519.91876 60.072914L518.5125 60.072914ZM518.5125 69.916664L518.5125 61.61979L519.91876 61.61979L519.91876 69.916664L518.5125 69.916664ZM522.5125 73.104164L522.5125 61.61979L523.79376 61.61979L523.79376 62.697914Q524.2469 62.05729 524.8094 61.74479Q525.3875 61.43229 526.2 61.43229Q527.2625 61.43229 528.075 61.979164Q528.8875 62.52604 529.29376 63.52604Q529.71564 64.510414 529.71564 65.697914Q529.71564 66.979164 529.2469 67.99479Q528.79376 69.010414 527.91876 69.55729Q527.0594 70.104164 526.09064 70.104164Q525.3875 70.104164 524.825 69.80729Q524.27814 69.510414 523.91876 69.05729L523.91876 73.104164L522.5125 73.104164ZM523.77814 65.80729Q523.77814 67.416664 524.41876 68.18229Q525.075 68.947914 525.9969 68.947914Q526.9344 68.947914 527.60626 68.15104Q528.27814 67.354164 528.27814 65.697914Q528.27814 64.104164 527.6219 63.322914Q526.96564 62.52604 526.0594 62.52604Q525.16876 62.52604 524.46564 63.36979Q523.77814 64.21354 523.77814 65.80729ZM531.48126 69.916664L531.48126 58.46354L532.8875 58.46354L532.8875 69.916664L531.48126 69.916664ZM534.98126 65.760414Q534.98126 63.46354 536.2625 62.354164Q537.34064 61.43229 538.8719 61.43229Q540.59064 61.43229 541.66876 62.55729Q542.7625 63.666664 542.7625 65.65104Q542.7625 67.24479 542.27814 68.166664Q541.79376 69.08854 540.8719 69.604164Q539.96564 70.104164 538.8719 70.104164Q537.1375 70.104164 536.0594 68.99479Q534.98126 67.86979 534.98126 65.760414ZM536.4344 65.760414Q536.4344 67.354164 537.1219 68.15104Q537.825 68.947914 538.8719 68.947914Q539.91876 68.947914 540.60626 68.15104Q541.3094 67.354164 541.3094 65.71354Q541.3094 64.18229 540.60626 63.385414Q539.91876 62.58854 538.8719 62.58854Q537.825 62.58854 537.1219 63.385414Q536.4344 64.166664 536.4344 65.760414ZM544.5125 69.916664L544.5125 61.61979L545.7625 61.61979L545.7625 62.77604Q546.15314 62.166664 546.79376 61.80729Q547.45 61.43229 548.27814 61.43229Q549.2 61.43229 549.79376 61.822914Q550.3875 62.197914 550.6219 62.885414Q551.60626 61.43229 553.1844 61.43229Q554.41876 61.43229 555.075 62.11979Q555.7469 62.791664 555.7469 64.21354L555.7469 69.916664L554.35626 69.916664L554.35626 64.68229Q554.35626 63.83854 554.21564 63.479164Q554.075 63.104164 553.71564 62.885414Q553.35626 62.65104 552.8719 62.65104Q551.9969 62.65104 551.41876 63.229164Q550.84064 63.80729 550.84064 65.08854L550.84064 69.916664L549.4344 69.916664L549.4344 64.52604Q549.4344 63.58854 549.09064 63.11979Q548.7469 62.65104 547.96564 62.65104Q547.3719 62.65104 546.8719 62.96354Q546.3719 63.27604 546.1375 63.885414Q545.91876 64.479164 545.91876 65.604164L545.91876 69.916664L544.5125 69.916664ZM562.91876 68.885414Q562.1375 69.55729 561.41876 69.83854Q560.7 70.104164 559.8719 70.104164Q558.4969 70.104164 557.7625 69.43229Q557.02814 68.760414 557.02814 67.729164Q557.02814 67.11979 557.3094 66.61979Q557.59064 66.104164 558.02814 65.80729Q558.48126 65.49479 559.04376 65.33854Q559.46564 65.229164 560.29376 65.135414Q561.9969 64.93229 562.8094 64.65104Q562.8094 64.354164 562.8094 64.27604Q562.8094 63.416664 562.41876 63.072914Q561.8719 62.58854 560.8094 62.58854Q559.825 62.58854 559.34064 62.947914Q558.8719 63.291664 558.65314 64.166664L557.27814 63.979164Q557.46564 63.104164 557.8875 62.55729Q558.325 62.010414 559.1375 61.729164Q559.95 61.43229 561.0125 61.43229Q562.075 61.43229 562.73126 61.68229Q563.40314 61.93229 563.71564 62.30729Q564.02814 62.68229 564.15314 63.260414Q564.23126 63.61979 564.23126 64.55729L564.23126 66.43229Q564.23126 68.40104 564.3094 68.916664Q564.40314 69.43229 564.66876 69.916664L563.2 69.916664Q562.98126 69.479164 562.91876 68.885414ZM562.8094 65.74479Q562.04376 66.05729 560.5125 66.27604Q559.6375 66.40104 559.27814 66.55729Q558.91876 66.71354 558.71564 67.02604Q558.52814 67.322914 558.52814 67.68229Q558.52814 68.24479 558.95 68.61979Q559.3875 68.99479 560.2 68.99479Q561.0125 68.99479 561.6375 68.65104Q562.27814 68.291664 562.575 67.666664Q562.8094 67.197914 562.8094 66.260414L562.8094 65.74479ZM569.575 68.65104L569.77814 69.90104Q569.1844 70.02604 568.71564 70.02604Q567.95 70.02604 567.52814 69.791664Q567.10626 69.541664 566.9344 69.15104Q566.7625 68.74479 566.7625 67.479164L566.7625 62.71354L565.73126 62.71354L565.73126 61.61979L566.7625 61.61979L566.7625 59.55729L568.16876 58.71354L568.16876 61.61979L569.575 61.61979L569.575 62.71354L568.16876 62.71354L568.16876 67.55729Q568.16876 68.166664 568.23126 68.33854Q568.3094 68.510414 568.48126 68.61979Q568.65314 68.71354 568.96564 68.71354Q569.2 68.71354 569.575 68.65104ZM570.5125 60.072914L570.5125 58.46354L571.91876 58.46354L571.91876 60.072914L570.5125 60.072914ZM570.5125 69.916664L570.5125 61.61979L571.91876 61.61979L571.91876 69.916664L570.5125 69.916664ZM579.91876 66.86979L581.3094 67.05729Q581.075 68.479164 580.1375 69.291664Q579.21564 70.104164 577.85626 70.104164Q576.15314 70.104164 575.10626 68.99479Q574.075 67.86979 574.075 65.791664Q574.075 64.447914 574.5125 63.447914Q574.96564 62.43229 575.8719 61.93229Q576.79376 61.43229 577.85626 61.43229Q579.21564 61.43229 580.075 62.11979Q580.9344 62.791664 581.16876 64.05729L579.8094 64.260414Q579.60626 63.43229 579.10626 63.010414Q578.6219 62.58854 577.91876 62.58854Q576.85626 62.58854 576.1844 63.354164Q575.52814 64.104164 575.52814 65.760414Q575.52814 67.43229 576.16876 68.197914Q576.8094 68.947914 577.84064 68.947914Q578.66876 68.947914 579.21564 68.447914Q579.77814 67.93229 579.91876 66.86979Z" fill-rule="nonzero"/><path fill="#9e9e9e" d="M546.21564 81.96354L546.21564 80.604164L553.6219 80.604164L553.6219 81.697914Q552.52814 82.86979 551.45 84.80729Q550.3875 86.729164 549.79376 88.760414Q549.3719 90.197914 549.2625 91.916664L547.8094 91.916664Q547.84064 90.55729 548.34064 88.65104Q548.85626 86.729164 549.79376 84.96354Q550.7469 83.18229 551.825 81.96354L546.21564 81.96354ZM555.90314 91.916664L555.90314 90.30729L557.5125 90.30729L557.5125 91.916664L555.90314 91.916664ZM559.21564 81.96354L559.21564 80.604164L566.6219 80.604164L566.6219 81.697914Q565.52814 82.86979 564.45 84.80729Q563.3875 86.729164 562.79376 88.760414Q562.3719 90.197914 562.2625 91.916664L560.8094 91.916664Q560.84064 90.55729 561.34064 88.65104Q561.85626 86.729164 562.79376 84.96354Q563.7469 83.18229 564.825 81.96354L559.21564 81.96354ZM568.3875 83.21354Q568.3875 81.979164 568.9969 81.11979Q569.6219 80.260414 570.79376 80.260414Q571.8719 80.260414 572.575 81.041664Q573.27814 81.80729 573.27814 83.291664Q573.27814 84.74479 572.5594 85.541664Q571.85626 86.322914 570.8094 86.322914Q569.7625 86.322914 569.075 85.55729Q568.3875 84.77604 568.3875 83.21354ZM570.825 81.229164Q570.3094 81.229164 569.95 81.68229Q569.60626 82.135414 569.60626 83.354164Q569.60626 84.447914 569.95 84.90104Q570.3094 85.354164 570.825 85.354164Q571.35626 85.354164 571.7 84.90104Q572.0594 84.447914 572.0594 83.24479Q572.0594 82.135414 571.7 81.68229Q571.35626 81.229164 570.825 81.229164ZM570.84064 92.33854L577.10626 80.260414L578.2469 80.260414L571.9969 92.33854L570.84064 92.33854ZM575.79376 89.229164Q575.79376 87.99479 576.40314 87.135414Q577.02814 86.27604 578.2 86.27604Q579.27814 86.27604 579.98126 87.05729Q580.7 87.822914 580.7 89.30729Q580.7 90.760414 579.98126 91.55729Q579.2625 92.33854 578.21564 92.33854Q577.16876 92.33854 576.48126 91.55729Q575.79376 90.77604 575.79376 89.229164ZM578.2469 87.24479Q577.71564 87.24479 577.35626 87.697914Q577.0125 88.15104 577.0125 89.36979Q577.0125 90.46354 577.35626 90.916664Q577.71564 91.36979 578.23126 91.36979Q578.77814 91.36979 579.1219 90.916664Q579.46564 90.46354 579.46564 89.260414Q579.46564 88.15104 579.10626 87.697914Q578.7625 87.24479 578.2469 87.24479Z" fill-rule="nonzero"/><path stroke="#757575" stroke-width="1.0" stroke-linecap="butt" d="M581.45 75.416664L454.76666 75.416664L333.82208 66.46175" fill-rule="nonzero"/><path fill="#9e9e9e" d="M335.82208 66.46175C335.82208 65.35718 334.92667 64.46175 333.82208 64.46175C332.71753 64.46175 331.82208 65.35718 331.82208 66.46175C331.82208 67.566315 332.71753 68.46175 333.82208 68.46175C334.92667 68.46175 335.82208 67.566315 335.82208 66.46175" fill-rule="nonzero"/><path fill="#efefef" d="M481.41876 278.46698L485.825 267.01385L487.46564 267.01385L492.15314 278.46698L490.41876 278.46698L489.09064 274.99823L484.29376 274.99823L483.04376 278.46698L481.41876 278.46698ZM484.73126 273.76385L488.6219 273.76385L487.41876 270.59198Q486.8719 269.13885 486.60626 268.21698Q486.3875 269.31073 485.9969 270.40448L484.73126 273.76385ZM493.4969 278.46698L493.4969 270.1701L494.7625 270.1701L494.7625 271.4201Q495.2469 270.5451 495.65314 270.26385Q496.0594 269.9826 496.5594 269.9826Q497.2625 269.9826 497.9969 270.43573L497.5125 271.7326Q496.9969 271.43573 496.48126 271.43573Q496.02814 271.43573 495.65314 271.71698Q495.29376 271.9826 495.1375 272.4826Q494.90314 273.2326 494.90314 274.12323L494.90314 278.46698L493.4969 278.46698ZM503.91876 275.4201L505.3094 275.6076Q505.075 277.02948 504.1375 277.84198Q503.21564 278.65448 501.85626 278.65448Q500.15314 278.65448 499.10626 277.5451Q498.075 276.4201 498.075 274.34198Q498.075 272.99823 498.5125 271.99823Q498.96564 270.9826 499.8719 270.4826Q500.79376 269.9826 501.85626 269.9826Q503.21564 269.9826 504.075 270.6701Q504.9344 271.34198 505.16876 272.6076L503.8094 272.81073Q503.60626 271.9826 503.10626 271.56073Q502.6219 271.13885 501.91876 271.13885Q500.85626 271.13885 500.1844 271.90448Q499.52814 272.65448 499.52814 274.31073Q499.52814 275.9826 500.16876 276.74823Q500.8094 277.49823 501.84064 277.49823Q502.66876 277.49823 503.21564 276.99823Q503.77814 276.4826 503.91876 275.4201ZM506.5125 278.46698L506.5125 267.01385L507.91876 267.01385L507.91876 271.12323Q508.90314 269.9826 510.40314 269.9826Q511.325 269.9826 511.9969 270.34198Q512.6844 270.70135 512.96564 271.34198Q513.2625 271.9826 513.2625 273.20135L513.2625 278.46698L511.85626 278.46698L511.85626 273.20135Q511.85626 272.15448 511.40314 271.6701Q510.95 271.18573 510.10626 271.18573Q509.48126 271.18573 508.9344 271.51385Q508.3875 271.84198 508.15314 272.40448Q507.91876 272.95135 507.91876 273.9201L507.91876 278.46698L506.5125 278.46698ZM515.5125 268.62323L515.5125 267.01385L516.91876 267.01385L516.91876 268.62323L515.5125 268.62323ZM515.5125 278.46698L515.5125 270.1701L516.91876 270.1701L516.91876 278.46698L515.5125 278.46698ZM522.575 277.20135L522.77814 278.45135Q522.1844 278.57635 521.71564 278.57635Q520.95 278.57635 520.52814 278.34198Q520.10626 278.09198 519.9344 277.70135Q519.7625 277.2951 519.7625 276.02948L519.7625 271.26385L518.73126 271.26385L518.73126 270.1701L519.7625 270.1701L519.7625 268.1076L521.16876 267.26385L521.16876 270.1701L522.575 270.1701L522.575 271.26385L521.16876 271.26385L521.16876 276.1076Q521.16876 276.71698 521.23126 276.88885Q521.3094 277.06073 521.48126 277.1701Q521.65314 277.26385 521.96564 277.26385Q522.2 277.26385 522.575 277.20135ZM529.1844 275.7951L530.6375 275.96698Q530.29376 277.24823 529.35626 277.95135Q528.4344 278.65448 526.9969 278.65448Q525.16876 278.65448 524.10626 277.52948Q523.04376 276.40448 523.04376 274.38885Q523.04376 272.2951 524.1219 271.13885Q525.2 269.9826 526.91876 269.9826Q528.575 269.9826 529.6219 271.12323Q530.6844 272.24823 530.6844 274.2951Q530.6844 274.4201 530.6844 274.6701L524.4969 274.6701Q524.575 276.0451 525.2625 276.77948Q525.96564 277.49823 526.9969 277.49823Q527.77814 277.49823 528.325 277.09198Q528.8719 276.68573 529.1844 275.7951ZM524.575 273.51385L529.2 273.51385Q529.10626 272.46698 528.66876 271.95135Q527.9969 271.13885 526.9344 271.13885Q525.96564 271.13885 525.29376 271.7951Q524.6375 272.43573 524.575 273.51385ZM537.91876 275.4201L539.3094 275.6076Q539.075 277.02948 538.1375 277.84198Q537.21564 278.65448 535.85626 278.65448Q534.15314 278.65448 533.10626 277.5451Q532.075 276.4201 532.075 274.34198Q532.075 272.99823 532.5125 271.99823Q532.96564 270.9826 533.8719 270.4826Q534.79376 269.9826 535.85626 269.9826Q537.21564 269.9826 538.075 270.6701Q538.9344 271.34198 539.16876 272.6076L537.8094 272.81073Q537.60626 271.9826 537.10626 271.56073Q536.6219 271.13885 535.91876 271.13885Q534.85626 271.13885 534.1844 271.90448Q533.52814 272.65448 533.52814 274.31073Q533.52814 275.9826 534.16876 276.74823Q534.8094 277.49823 535.84064 277.49823Q536.66876 277.49823 537.21564 276.99823Q537.77814 276.4826 537.91876 275.4201ZM543.575 277.20135L543.77814 278.45135Q543.1844 278.57635 542.71564 278.57635Q541.95 278.57635 541.52814 278.34198Q541.10626 278.09198 540.9344 277.70135Q540.7625 277.2951 540.7625 276.02948L540.7625 271.26385L539.73126 271.26385L539.73126 270.1701L540.7625 270.1701L540.7625 268.1076L542.16876 267.26385L542.16876 270.1701L543.575 270.1701L543.575 271.26385L542.16876 271.26385L542.16876 276.1076Q542.16876 276.71698 542.23126 276.88885Q542.3094 277.06073 542.48126 277.1701Q542.65314 277.26385 542.96564 277.26385Q543.2 277.26385 543.575 277.20135ZM549.95 278.46698L549.95 277.24823Q548.98126 278.65448 547.3094 278.65448Q546.575 278.65448 545.9344 278.37323Q545.3094 278.09198 544.9969 277.6701Q544.6844 277.2326 544.5594 276.62323Q544.48126 276.20135 544.48126 275.31073L544.48126 270.1701L545.8875 270.1701L545.8875 274.76385Q545.8875 275.87323 545.96564 276.24823Q546.10626 276.81073 546.52814 277.12323Q546.96564 277.43573 547.59064 277.43573Q548.23126 277.43573 548.77814 277.12323Q549.34064 276.7951 549.5594 276.2326Q549.79376 275.6701 549.79376 274.6076L549.79376 270.1701L551.2 270.1701L551.2 278.46698L549.95 278.46698ZM553.4969 278.46698L553.4969 270.1701L554.7625 270.1701L554.7625 271.4201Q555.2469 270.5451 555.65314 270.26385Q556.0594 269.9826 556.5594 269.9826Q557.2625 269.9826 557.9969 270.43573L557.5125 271.7326Q556.9969 271.43573 556.48126 271.43573Q556.02814 271.43573 555.65314 271.71698Q555.29376 271.9826 555.1375 272.4826Q554.90314 273.2326 554.90314 274.12323L554.90314 278.46698L553.4969 278.46698ZM564.1844 275.7951L565.6375 275.96698Q565.29376 277.24823 564.35626 277.95135Q563.4344 278.65448 561.9969 278.65448Q560.16876 278.65448 559.10626 277.52948Q558.04376 276.40448 558.04376 274.38885Q558.04376 272.2951 559.1219 271.13885Q560.2 269.9826 561.91876 269.9826Q563.575 269.9826 564.6219 271.12323Q565.6844 272.24823 565.6844 274.2951Q565.6844 274.4201 565.6844 274.6701L559.4969 274.6701Q559.575 276.0451 560.2625 276.77948Q560.96564 277.49823 561.9969 277.49823Q562.77814 277.49823 563.325 277.09198Q563.8719 276.68573 564.1844 275.7951ZM559.575 273.51385L564.2 273.51385Q564.10626 272.46698 563.66876 271.95135Q562.9969 271.13885 561.9344 271.13885Q560.96564 271.13885 560.29376 271.7951Q559.6375 272.43573 559.575 273.51385ZM578.0594 277.1076Q577.35626 277.88885 576.52814 278.27948Q575.71564 278.6701 574.7625 278.6701Q573.0125 278.6701 571.98126 277.46698Q571.1375 276.49823 571.1375 275.31073Q571.1375 274.24823 571.825 273.38885Q572.5125 272.52948 573.8719 271.88885Q573.09064 270.99823 572.825 270.45135Q572.575 269.88885 572.575 269.37323Q572.575 268.34198 573.3875 267.57635Q574.2 266.81073 575.41876 266.81073Q576.59064 266.81073 577.34064 267.52948Q578.09064 268.24823 578.09064 269.26385Q578.09064 270.88885 575.91876 272.0451L577.98126 274.6701Q578.325 273.9826 578.52814 273.07635L579.98126 273.38885Q579.60626 274.88885 578.96564 275.8576Q579.7625 276.90448 580.7625 277.6076L579.8094 278.7326Q578.96564 278.18573 578.0594 277.1076ZM575.2 271.13885Q576.10626 270.6076 576.3719 270.20135Q576.65314 269.7951 576.65314 269.2951Q576.65314 268.71698 576.27814 268.34198Q575.90314 267.96698 575.35626 267.96698Q574.77814 267.96698 574.40314 268.34198Q574.02814 268.70135 574.02814 269.2326Q574.02814 269.49823 574.15314 269.7951Q574.29376 270.09198 574.575 270.4201L575.2 271.13885ZM577.16876 275.99823L574.59064 272.81073Q573.45 273.4826 573.04376 274.07635Q572.65314 274.65448 572.65314 275.21698Q572.65314 275.9201 573.2 276.6701Q573.7625 277.4201 574.77814 277.4201Q575.41876 277.4201 576.09064 277.02948Q576.7625 276.62323 577.16876 275.99823Z" fill-rule="nonzero"/><path fill="#9e9e9e" d="M537.1219 297.46698L538.59064 297.34198Q538.7625 298.4201 539.35626 298.96698Q539.95 299.49823 540.79376 299.49823Q541.8094 299.49823 542.5125 298.7326Q543.21564 297.96698 543.21564 296.70135Q543.21564 295.49823 542.54376 294.81073Q541.8719 294.1076 540.77814 294.1076Q540.09064 294.1076 539.54376 294.4201Q538.9969 294.7326 538.6844 295.21698L537.3719 295.0451L538.48126 289.1701L544.16876 289.1701L544.16876 290.51385L539.60626 290.51385L538.98126 293.59198Q540.0125 292.87323 541.15314 292.87323Q542.65314 292.87323 543.6844 293.9201Q544.71564 294.95135 544.71564 296.57635Q544.71564 298.13885 543.8094 299.26385Q542.7 300.6701 540.79376 300.6701Q539.23126 300.6701 538.2469 299.7951Q537.2625 298.90448 537.1219 297.46698ZM546.1219 297.43573L547.52814 297.24823Q547.77814 298.45135 548.35626 298.9826Q548.9344 299.49823 549.77814 299.49823Q550.7625 299.49823 551.45 298.81073Q552.1375 298.12323 552.1375 297.1076Q552.1375 296.13885 551.4969 295.51385Q550.8719 294.88885 549.8875 294.88885Q549.4969 294.88885 548.90314 295.0451L549.0594 293.81073Q549.2 293.82635 549.27814 293.82635Q550.1844 293.82635 550.90314 293.3576Q551.6219 292.88885 551.6219 291.90448Q551.6219 291.13885 551.09064 290.63885Q550.575 290.12323 549.7469 290.12323Q548.91876 290.12323 548.3719 290.63885Q547.825 291.15448 547.66876 292.18573L546.2625 291.93573Q546.52814 290.51385 547.4344 289.74823Q548.35626 288.96698 549.71564 288.96698Q550.65314 288.96698 551.4344 289.37323Q552.23126 289.76385 552.6375 290.46698Q553.0594 291.15448 553.0594 291.93573Q553.0594 292.68573 552.65314 293.2951Q552.2625 293.90448 551.48126 294.26385Q552.4969 294.49823 553.0594 295.2326Q553.6219 295.96698 553.6219 297.07635Q553.6219 298.57635 552.52814 299.62323Q551.4344 300.6701 549.7625 300.6701Q548.2625 300.6701 547.2625 299.77948Q546.2625 298.87323 546.1219 297.43573ZM555.90314 300.46698L555.90314 298.8576L557.5125 298.8576L557.5125 300.46698L555.90314 300.46698ZM561.27814 294.24823Q560.40314 293.93573 559.98126 293.34198Q559.5594 292.74823 559.5594 291.9201Q559.5594 290.6701 560.45 289.82635Q561.35626 288.96698 562.85626 288.96698Q564.35626 288.96698 565.2625 289.84198Q566.1844 290.70135 566.1844 291.95135Q566.1844 292.74823 565.7625 293.34198Q565.34064 293.93573 564.4969 294.24823Q565.54376 294.59198 566.09064 295.3576Q566.65314 296.12323 566.65314 297.18573Q566.65314 298.65448 565.60626 299.6701Q564.575 300.6701 562.8719 300.6701Q561.1844 300.6701 560.1375 299.6701Q559.10626 298.65448 559.10626 297.15448Q559.10626 296.02948 559.66876 295.27948Q560.23126 294.52948 561.27814 294.24823ZM560.9969 291.87323Q560.9969 292.68573 561.5125 293.20135Q562.04376 293.71698 562.8875 293.71698Q563.7 293.71698 564.21564 293.20135Q564.73126 292.68573 564.73126 291.95135Q564.73126 291.1701 564.2 290.65448Q563.66876 290.12323 562.8719 290.12323Q562.0594 290.12323 561.52814 290.63885Q560.9969 291.15448 560.9969 291.87323ZM560.54376 297.15448Q560.54376 297.76385 560.825 298.32635Q561.1219 298.88885 561.6844 299.20135Q562.2469 299.49823 562.8875 299.49823Q563.90314 299.49823 564.5594 298.8576Q565.21564 298.20135 565.21564 297.20135Q565.21564 296.18573 564.52814 295.52948Q563.85626 294.8576 562.84064 294.8576Q561.85626 294.8576 561.2 295.51385Q560.54376 296.1701 560.54376 297.15448ZM568.3875 291.76385Q568.3875 290.52948 568.9969 289.6701Q569.6219 288.81073 570.79376 288.81073Q571.8719 288.81073 572.575 289.59198Q573.27814 290.3576 573.27814 291.84198Q573.27814 293.2951 572.5594 294.09198Q571.85626 294.87323 570.8094 294.87323Q569.7625 294.87323 569.075 294.1076Q568.3875 293.32635 568.3875 291.76385ZM570.825 289.77948Q570.3094 289.77948 569.95 290.2326Q569.60626 290.68573 569.60626 291.90448Q569.60626 292.99823 569.95 293.45135Q570.3094 293.90448 570.825 293.90448Q571.35626 293.90448 571.7 293.45135Q572.0594 292.99823 572.0594 291.7951Q572.0594 290.68573 571.7 290.2326Q571.35626 289.77948 570.825 289.77948ZM570.84064 300.88885L577.10626 288.81073L578.2469 288.81073L571.9969 300.88885L570.84064 300.88885ZM575.79376 297.77948Q575.79376 296.5451 576.40314 295.68573Q577.02814 294.82635 578.2 294.82635Q579.27814 294.82635 579.98126 295.6076Q580.7 296.37323 580.7 297.8576Q580.7 299.31073 579.98126 300.1076Q579.2625 300.88885 578.21564 300.88885Q577.16876 300.88885 576.48126 300.1076Q575.79376 299.32635 575.79376 297.77948ZM578.2469 295.7951Q577.71564 295.7951 577.35626 296.24823Q577.0125 296.70135 577.0125 297.9201Q577.0125 299.01385 577.35626 299.46698Q577.71564 299.9201 578.23126 299.9201Q578.77814 299.9201 579.1219 299.46698Q579.46564 299.01385 579.46564 297.81073Q579.46564 296.70135 579.10626 296.24823Q578.7625 295.7951 578.2469 295.7951Z" fill-rule="nonzero"/><path stroke="#757575" stroke-width="1.0" stroke-linecap="butt" d="M581.45 283.96698L454.76666 283.96698L416.31094 283.96698" fill-rule="nonzero"/><path fill="#9e9e9e" d="M418.31094 283.96698C418.31094 282.8624 417.4155 281.96698 416.31094 281.96698C415.20636 281.96698 414.31094 282.8624 414.31094 283.96698C414.31094 285.07153 415.20636 285.96698 416.31094 285.96698C417.4155 285.96698 418.31094 285.07153 418.31094 283.96698" fill-rule="nonzero"/><path fill="#f3f3f3" d="M271.26562 32.534374L273.15625 33.003124Q272.5625 35.346874 271.01562 36.58125Q269.46875 37.8 267.21875 37.8Q264.90625 37.8 263.45312 36.8625Q262.01562 35.909374 261.25 34.128124Q260.5 32.33125 260.5 30.284374Q260.5 28.05 261.34375 26.39375Q262.20312 24.721874 263.78125 23.8625Q265.35938 22.9875 267.25 22.9875Q269.40625 22.9875 270.85938 24.08125Q272.32812 25.175 272.90625 27.159374L271.04688 27.596874Q270.54688 26.034374 269.59375 25.33125Q268.65625 24.6125 267.21875 24.6125Q265.5625 24.6125 264.45312 25.409374Q263.34375 26.190624 262.89062 27.534374Q262.45312 28.8625 262.45312 30.26875Q262.45312 32.096874 262.98438 33.471874Q263.51562 34.83125 264.64062 35.503124Q265.76562 36.175 267.0625 36.175Q268.65625 36.175 269.76562 35.253124Q270.875 34.33125 271.26562 32.534374ZM281.59375 36.26875Q280.60938 37.096874 279.70312 37.440624Q278.79688 37.784374 277.76562 37.784374Q276.0625 37.784374 275.14062 36.95625Q274.21875 36.1125 274.21875 34.815624Q274.21875 34.05 274.5625 33.425Q274.92188 32.8 275.48438 32.425Q276.04688 32.034374 276.75 31.83125Q277.26562 31.70625 278.3125 31.565624Q280.4375 31.315624 281.4375 30.971874Q281.45312 30.6125 281.45312 30.503124Q281.45312 29.440624 280.95312 28.9875Q280.28125 28.39375 278.95312 28.39375Q277.70312 28.39375 277.10938 28.83125Q276.53125 29.26875 276.25 30.378124L274.53125 30.14375Q274.76562 29.034374 275.29688 28.3625Q275.82812 27.675 276.84375 27.315624Q277.85938 26.940624 279.20312 26.940624Q280.53125 26.940624 281.35938 27.253124Q282.1875 27.565624 282.57812 28.05Q282.96875 28.51875 283.125 29.2375Q283.21875 29.690624 283.21875 30.8625L283.21875 33.20625Q283.21875 35.659374 283.32812 36.315624Q283.4375 36.95625 283.78125 37.55L281.9375 37.55Q281.67188 37.003124 281.59375 36.26875ZM281.4375 32.346874Q280.48438 32.7375 278.5625 33.003124Q277.48438 33.159374 277.03125 33.3625Q276.59375 33.55 276.34375 33.925Q276.09375 34.3 276.09375 34.76875Q276.09375 35.471874 276.625 35.940624Q277.15625 36.409374 278.1875 36.409374Q279.20312 36.409374 279.98438 35.971874Q280.78125 35.51875 281.15625 34.753124Q281.4375 34.14375 281.4375 32.9875L281.4375 32.346874ZM289.65625 35.971874L289.90625 37.534374Q289.17188 37.690624 288.57812 37.690624Q287.625 37.690624 287.09375 37.39375Q286.57812 37.08125 286.35938 36.596874Q286.14062 36.096874 286.14062 34.51875L286.14062 28.55L284.85938 28.55L284.85938 27.175L286.14062 27.175L286.14062 24.6125L287.89062 23.55L287.89062 27.175L289.65625 27.175L289.65625 28.55L287.89062 28.55L287.89062 34.6125Q287.89062 35.3625 287.98438 35.58125Q288.07812 35.784374 288.28125 35.925Q288.5 36.05 288.89062 36.05Q289.17188 36.05 289.65625 35.971874ZM298.92188 34.20625L300.73438 34.440624Q300.3125 36.01875 299.14062 36.909374Q297.98438 37.784374 296.17188 37.784374Q293.90625 37.784374 292.5625 36.39375Q291.23438 34.9875 291.23438 32.45625Q291.23438 29.83125 292.57812 28.39375Q293.92188 26.940624 296.07812 26.940624Q298.15625 26.940624 299.46875 28.3625Q300.79688 29.76875 300.79688 32.346874Q300.79688 32.503124 300.78125 32.815624L293.04688 32.815624Q293.14062 34.51875 294.01562 35.425Q294.89062 36.33125 296.1875 36.33125Q297.15625 36.33125 297.82812 35.83125Q298.51562 35.315624 298.92188 34.20625ZM293.14062 31.3625L298.9375 31.3625Q298.82812 30.065624 298.28125 29.409374Q297.4375 28.39375 296.09375 28.39375Q294.89062 28.39375 294.0625 29.20625Q293.23438 30.003124 293.14062 31.3625ZM302.5 38.409374L304.20312 38.659374Q304.3125 39.45625 304.79688 39.815624Q305.45312 40.3 306.59375 40.3Q307.8125 40.3 308.46875 39.815624Q309.14062 39.33125 309.375 38.45625Q309.51562 37.909374 309.5 36.190624Q308.34375 37.55 306.625 37.55Q304.48438 37.55 303.3125 36.003124Q302.14062 34.45625 302.14062 32.3Q302.14062 30.815624 302.67188 29.565624Q303.21875 28.315624 304.23438 27.628124Q305.26562 26.940624 306.64062 26.940624Q308.46875 26.940624 309.67188 28.425L309.67188 27.175L311.28125 27.175L311.28125 36.14375Q311.28125 38.565624 310.78125 39.565624Q310.29688 40.58125 309.21875 41.159374Q308.15625 41.753124 306.59375 41.753124Q304.75 41.753124 303.59375 40.925Q302.45312 40.096874 302.5 38.409374ZM303.95312 32.175Q303.95312 34.221874 304.76562 35.159374Q305.57812 36.096874 306.79688 36.096874Q308.0 36.096874 308.8125 35.159374Q309.64062 34.221874 309.64062 32.2375Q309.64062 30.33125 308.79688 29.3625Q307.95312 28.39375 306.76562 28.39375Q305.59375 28.39375 304.76562 29.346874Q303.95312 30.3 303.95312 32.175ZM313.17188 32.3625Q313.17188 29.4875 314.76562 28.096874Q316.10938 26.940624 318.03125 26.940624Q320.17188 26.940624 321.51562 28.346874Q322.875 29.753124 322.875 32.221874Q322.875 34.221874 322.28125 35.378124Q321.6875 36.51875 320.53125 37.159374Q319.39062 37.784374 318.03125 37.784374Q315.84375 37.784374 314.5 36.39375Q313.17188 34.9875 313.17188 32.3625ZM314.96875 32.3625Q314.96875 34.3625 315.82812 35.346874Q316.70312 36.33125 318.03125 36.33125Q319.34375 36.33125 320.20312 35.346874Q321.07812 34.346874 321.07812 32.3Q321.07812 30.378124 320.20312 29.39375Q319.32812 28.39375 318.03125 28.39375Q316.70312 28.39375 315.82812 29.39375Q314.96875 30.378124 314.96875 32.3625ZM324.79688 37.55L324.79688 27.175L326.375 27.175L326.375 28.753124Q326.98438 27.64375 327.5 27.3Q328.01562 26.940624 328.625 26.940624Q329.51562 26.940624 330.4375 27.503124L329.82812 29.14375Q329.1875 28.753124 328.54688 28.753124Q327.96875 28.753124 327.5 29.1125Q327.04688 29.45625 326.84375 30.065624Q326.5625 31.003124 326.5625 32.1125L326.5625 37.55L324.79688 37.55ZM331.73438 41.55L331.54688 39.89375Q332.125 40.05 332.54688 40.05Q333.14062 40.05 333.48438 39.846874Q333.84375 39.659374 334.0625 39.315624Q334.23438 39.05 334.60938 38.003124Q334.65625 37.846874 334.76562 37.565624L330.82812 27.175L332.71875 27.175L334.875 33.190624Q335.29688 34.33125 335.625 35.58125Q335.9375 34.378124 336.34375 33.221874L338.5625 27.175L340.32812 27.175L336.375 37.721874Q335.75 39.440624 335.39062 40.08125Q334.92188 40.95625 334.3125 41.346874Q333.71875 41.753124 332.875 41.753124Q332.35938 41.753124 331.73438 41.55Z" fill-rule="nonzero"/></svg>