<svg version="1.1" viewBox="0.0 0.0 600.0 371.0" fill="none" stroke="none" stroke-linecap="square" stroke-miterlimit="10" width="600" height="371" xmlns:xlink="http://www.w3.org/1999/xlink" xmlns="http://www.w3.org/2000/svg"><path fill="#ffffff" fill-opacity="0.0" d="M0 0L600.0 0L600.0 371.0L0 371.0L0 0Z" fill-rule="nonzero"/><path fill="#304388" d="M300.0 54.916668C339.45538 54.916668 377.29477 70.590256 405.1939 98.48942L326.2985 177.38486C319.3237 170.41006 309.86383 166.49167 300.0 166.49167Z" fill-rule="nonzero"/><path fill="#313d89" d="M405.1939 98.48942C447.74088 141.03638 460.46872 205.02357 437.44247 260.61386L334.36063 217.91597C340.1172 204.0184 336.9352 188.02159 326.2985 177.38486Z" fill-rule="nonzero"/><path fill="#e5a345" d="M243.06946 66.24085C261.11865 58.76463 280.46368 54.916668 300.0 54.916668L300.0 166.49167C295.1159 166.49167 290.27966 167.45366 285.76736 169.32271Z" fill-rule="nonzero"/><path fill="#cf4366" d="M194.80608 98.48942C208.62035 84.675156 225.02026 73.71708 243.06946 66.24085L285.76736 169.32271C281.25507 171.19177 277.1551 173.93129 273.7015 177.38486Z" fill-rule="nonzero"/><path fill="#b5428d" d="M243.06946 341.12582C197.16606 322.112 163.785 281.43707 154.09184 232.70627C144.39868 183.97548 159.67314 133.62236 194.80608 98.48942L273.7015 177.38486C264.91827 186.16809 261.09967 198.75638 263.52295 210.93907C265.94626 223.12177 274.2915 233.2905 285.76736 238.04396Z" fill-rule="nonzero"/><path fill="#533990" d="M437.44247 260.61386C406.0006 336.52127 318.97684 372.5677 243.06946 341.12582L285.76736 238.04396C304.7442 245.90442 326.50015 236.8928 334.36063 217.91597Z" fill-rule="nonzero"/><path fill="#ffffff" d="M322.26086 111.06117L320.68274 111.06117L320.68274 100.98305Q320.1046 101.52992 319.18274 102.0768Q318.26086 102.60805 317.51086 102.8893L317.51086 101.35805Q318.839 100.73305 319.839 99.84242Q320.839 98.9518 321.24524 98.12367L322.26086 98.12367L322.26086 111.06117ZM334.62024 109.54555L334.62024 111.06117L326.1046 111.06117Q326.089 110.48305 326.2921 109.96742Q326.62024 109.09242 327.32336 108.24867Q328.0421 107.40492 329.4015 106.29555Q331.49524 104.5768 332.2296 103.5768Q332.9796 102.56117 332.9796 101.67055Q332.9796 100.71742 332.30774 100.0768Q331.63586 99.43617 330.55774 99.43617Q329.4015 99.43617 328.714 100.12367Q328.0421 100.81117 328.0265 102.0143L326.4015 101.84242Q326.57336 100.02992 327.6515 99.0768Q328.74524 98.12367 330.589 98.12367Q332.43274 98.12367 333.51086 99.15492Q334.6046 100.18617 334.6046 101.7018Q334.6046 102.46742 334.2765 103.21742Q333.964 103.96742 333.2296 104.79555Q332.49524 105.62367 330.7921 107.06117Q329.37024 108.2643 328.964 108.68617Q328.55774 109.10805 328.30774 109.54555L334.62024 109.54555ZM337.19836 111.06117L337.19836 109.2643L338.99524 109.2643L338.99524 111.06117L337.19836 111.06117ZM341.30774 107.68617L342.964 107.54555Q343.1515 108.7643 343.82336 109.37367Q344.49524 109.98305 345.44836 109.98305Q346.589 109.98305 347.37024 109.12367Q348.1671 108.2643 348.1671 106.8268Q348.1671 105.48305 347.4015 104.7018Q346.6515 103.92055 345.4171 103.92055Q344.6515 103.92055 344.0265 104.2643Q343.4171 104.60805 343.07336 105.17055L341.589 104.96742L342.839 98.35805L349.24524 98.35805L349.24524 99.85805L344.1046 99.85805L343.4015 103.3268Q344.57336 102.5143 345.839 102.5143Q347.5265 102.5143 348.68274 103.68617Q349.8546 104.85805 349.8546 106.68617Q349.8546 108.43617 348.82336 109.71742Q347.589 111.27992 345.44836 111.27992Q343.68274 111.27992 342.57336 110.29555Q341.464 109.31117 341.30774 107.68617ZM351.6046 101.2643Q351.6046 99.8893 352.2921 98.92055Q352.99524 97.9518 354.30774 97.9518Q355.5265 97.9518 356.32336 98.8268Q357.12024 99.68617 357.12024 101.37367Q357.12024 102.99867 356.30774 103.8893Q355.51086 104.7643 354.32336 104.7643Q353.1671 104.7643 352.38586 103.90492Q351.6046 103.02992 351.6046 101.2643ZM354.3546 99.04555Q353.76086 99.04555 353.37024 99.56117Q352.9796 100.06117 352.9796 101.42055Q352.9796 102.67055 353.37024 103.17055Q353.7765 103.67055 354.3546 103.67055Q354.94836 103.67055 355.339 103.17055Q355.7296 102.65492 355.7296 101.31117Q355.7296 100.06117 355.339 99.56117Q354.94836 99.04555 354.3546 99.04555ZM354.37024 111.52992L361.4171 97.9518L362.69836 97.9518L355.6671 111.52992L354.37024 111.52992ZM359.93274 108.02992Q359.93274 106.65492 360.62024 105.68617Q361.32336 104.71742 362.6515 104.71742Q363.87024 104.71742 364.6515 105.59242Q365.44836 106.4518 365.44836 108.1393Q365.44836 109.7643 364.6515 110.65492Q363.8546 111.52992 362.6671 111.52992Q361.49524 111.52992 360.714 110.65492Q359.93274 109.77992 359.93274 108.02992ZM362.69836 105.81117Q362.1046 105.81117 361.714 106.3268Q361.32336 106.8268 361.32336 108.2018Q361.32336 109.42055 361.714 109.93617Q362.1046 110.4518 362.68274 110.4518Q363.2921 110.4518 363.68274 109.93617Q364.07336 109.42055 364.07336 108.0768Q364.07336 106.8268 363.68274 106.3268Q363.2921 105.81117 362.69836 105.81117Z" fill-rule="nonzero"/><path fill="#ffffff" d="M382.45862 190.04236L380.8805 190.04236L380.8805 179.96423Q380.30237 180.51111 379.3805 181.05798Q378.45862 181.58923 377.70862 181.87048L377.70862 180.33923Q379.03674 179.71423 380.03674 178.82361Q381.03674 177.93298 381.443 177.10486L382.45862 177.10486L382.45862 190.04236ZM388.943 183.05798Q387.95862 182.69861 387.47424 182.02673Q387.0055 181.35486 387.0055 180.43298Q387.0055 179.02673 388.0055 178.07361Q389.02112 177.10486 390.70862 177.10486Q392.39612 177.10486 393.41174 178.08923Q394.443 179.05798 394.443 180.46423Q394.443 181.37048 393.97424 182.04236Q393.5055 182.69861 392.55237 183.05798Q393.73987 183.44861 394.34924 184.30798Q394.97424 185.16736 394.97424 186.35486Q394.97424 188.01111 393.80237 189.13611Q392.6305 190.26111 390.72424 190.26111Q388.818 190.26111 387.64612 189.13611Q386.48987 187.99548 386.48987 186.30798Q386.48987 185.05798 387.11487 184.21423Q387.7555 183.35486 388.943 183.05798ZM388.61487 180.37048Q388.61487 181.29236 389.20862 181.87048Q389.80237 182.44861 390.73987 182.44861Q391.64612 182.44861 392.22424 181.87048Q392.818 181.29236 392.818 180.46423Q392.818 179.58923 392.20862 178.99548Q391.61487 178.40173 390.72424 178.40173Q389.818 178.40173 389.20862 178.97986Q388.61487 179.55798 388.61487 180.37048ZM388.11487 186.32361Q388.11487 186.99548 388.42737 187.63611Q388.7555 188.26111 389.3805 188.62048Q390.02112 188.96423 390.7555 188.96423Q391.8805 188.96423 392.61487 188.22986Q393.36487 187.49548 393.36487 186.37048Q393.36487 185.22986 392.59924 184.49548Q391.83362 183.74548 390.693 183.74548Q389.58362 183.74548 388.84924 184.47986Q388.11487 185.21423 388.11487 186.32361ZM397.39612 190.04236L397.39612 188.24548L399.193 188.24548L399.193 190.04236L397.39612 190.04236ZM403.943 183.05798Q402.95862 182.69861 402.47424 182.02673Q402.0055 181.35486 402.0055 180.43298Q402.0055 179.02673 403.0055 178.07361Q404.02112 177.10486 405.70862 177.10486Q407.39612 177.10486 408.41174 178.08923Q409.443 179.05798 409.443 180.46423Q409.443 181.37048 408.97424 182.04236Q408.5055 182.69861 407.55237 183.05798Q408.73987 183.44861 409.34924 184.30798Q409.97424 185.16736 409.97424 186.35486Q409.97424 188.01111 408.80237 189.13611Q407.6305 190.26111 405.72424 190.26111Q403.818 190.26111 402.64612 189.13611Q401.48987 187.99548 401.48987 186.30798Q401.48987 185.05798 402.11487 184.21423Q402.7555 183.35486 403.943 183.05798ZM403.61487 180.37048Q403.61487 181.29236 404.20862 181.87048Q404.80237 182.44861 405.73987 182.44861Q406.64612 182.44861 407.22424 181.87048Q407.818 181.29236 407.818 180.46423Q407.818 179.58923 407.20862 178.99548Q406.61487 178.40173 405.72424 178.40173Q404.818 178.40173 404.20862 178.97986Q403.61487 179.55798 403.61487 180.37048ZM403.11487 186.32361Q403.11487 186.99548 403.42737 187.63611Q403.7555 188.26111 404.3805 188.62048Q405.02112 188.96423 405.7555 188.96423Q406.8805 188.96423 407.61487 188.22986Q408.36487 187.49548 408.36487 186.37048Q408.36487 185.22986 407.59924 184.49548Q406.83362 183.74548 405.693 183.74548Q404.58362 183.74548 403.84924 184.47986Q403.11487 185.21423 403.11487 186.32361ZM411.80237 180.24548Q411.80237 178.87048 412.48987 177.90173Q413.193 176.93298 414.5055 176.93298Q415.72424 176.93298 416.52112 177.80798Q417.318 178.66736 417.318 180.35486Q417.318 181.97986 416.5055 182.87048Q415.70862 183.74548 414.52112 183.74548Q413.36487 183.74548 412.58362 182.88611Q411.80237 182.01111 411.80237 180.24548ZM414.55237 178.02673Q413.95862 178.02673 413.568 178.54236Q413.17737 179.04236 413.17737 180.40173Q413.17737 181.65173 413.568 182.15173Q413.97424 182.65173 414.55237 182.65173Q415.14612 182.65173 415.53674 182.15173Q415.92737 181.63611 415.92737 180.29236Q415.92737 179.04236 415.53674 178.54236Q415.14612 178.02673 414.55237 178.02673ZM414.568 190.51111L421.61487 176.93298L422.89612 176.93298L415.86487 190.51111L414.568 190.51111ZM420.1305 187.01111Q420.1305 185.63611 420.818 184.66736Q421.52112 183.69861 422.84924 183.69861Q424.068 183.69861 424.84924 184.57361Q425.64612 185.43298 425.64612 187.12048Q425.64612 188.74548 424.84924 189.63611Q424.05237 190.51111 422.86487 190.51111Q421.693 190.51111 420.91174 189.63611Q420.1305 188.76111 420.1305 187.01111ZM422.89612 184.79236Q422.30237 184.79236 421.91174 185.30798Q421.52112 185.80798 421.52112 187.18298Q421.52112 188.40173 421.91174 188.91736Q422.30237 189.43298 422.8805 189.43298Q423.48987 189.43298 423.8805 188.91736Q424.27112 188.40173 424.27112 187.05798Q424.27112 185.80798 423.8805 185.30798Q423.48987 184.79236 422.89612 184.79236Z" fill-rule="nonzero"/><path fill="#ffffff" d="M324.62024 307.78986L324.62024 309.30548L316.1046 309.30548Q316.089 308.72736 316.2921 308.21173Q316.62024 307.33673 317.32336 306.49298Q318.0421 305.64923 319.4015 304.53986Q321.49524 302.8211 322.2296 301.8211Q322.9796 300.80548 322.9796 299.91486Q322.9796 298.96173 322.30774 298.3211Q321.63586 297.68048 320.55774 297.68048Q319.4015 297.68048 318.714 298.36798Q318.0421 299.05548 318.0265 300.2586L316.4015 300.08673Q316.57336 298.27423 317.6515 297.3211Q318.74524 296.36798 320.589 296.36798Q322.43274 296.36798 323.51086 297.39923Q324.6046 298.43048 324.6046 299.9461Q324.6046 300.71173 324.2765 301.46173Q323.964 302.21173 323.2296 303.03986Q322.49524 303.86798 320.7921 305.30548Q319.37024 306.5086 318.964 306.93048Q318.55774 307.35236 318.30774 307.78986L324.62024 307.78986ZM326.30774 305.93048L327.964 305.78986Q328.1515 307.0086 328.82336 307.61798Q329.49524 308.22736 330.44836 308.22736Q331.589 308.22736 332.37024 307.36798Q333.1671 306.5086 333.1671 305.0711Q333.1671 303.72736 332.4015 302.9461Q331.6515 302.16486 330.4171 302.16486Q329.6515 302.16486 329.0265 302.5086Q328.4171 302.85236 328.07336 303.41486L326.589 303.21173L327.839 296.60236L334.24524 296.60236L334.24524 298.10236L329.1046 298.10236L328.4015 301.5711Q329.57336 300.7586 330.839 300.7586Q332.5265 300.7586 333.68274 301.93048Q334.8546 303.10236 334.8546 304.93048Q334.8546 306.68048 333.82336 307.96173Q332.589 309.52423 330.44836 309.52423Q328.68274 309.52423 327.57336 308.53986Q326.464 307.55548 326.30774 305.93048ZM337.19836 309.30548L337.19836 307.5086L338.99524 307.5086L338.99524 309.30548L337.19836 309.30548ZM341.30774 302.9461Q341.30774 300.66486 341.7765 299.27423Q342.24524 297.8836 343.1671 297.1336Q344.1046 296.36798 345.51086 296.36798Q346.5421 296.36798 347.32336 296.78986Q348.1046 297.1961 348.6046 297.99298Q349.12024 298.77423 349.4171 299.91486Q349.714 301.03986 349.714 302.9461Q349.714 305.21173 349.24524 306.61798Q348.7765 308.0086 347.839 308.77423Q346.9171 309.52423 345.51086 309.52423Q343.63586 309.52423 342.57336 308.1961Q341.30774 306.58673 341.30774 302.9461ZM342.93274 302.9461Q342.93274 306.11798 343.6671 307.18048Q344.4171 308.22736 345.51086 308.22736Q346.589 308.22736 347.339 307.18048Q348.089 306.11798 348.089 302.9461Q348.089 299.77423 347.339 298.72736Q346.589 297.68048 345.49524 297.68048Q344.4015 297.68048 343.74524 298.60236Q342.93274 299.77423 342.93274 302.9461ZM351.6046 299.5086Q351.6046 298.1336 352.2921 297.16486Q352.99524 296.1961 354.30774 296.1961Q355.5265 296.1961 356.32336 297.0711Q357.12024 297.93048 357.12024 299.61798Q357.12024 301.24298 356.30774 302.1336Q355.51086 303.0086 354.32336 303.0086Q353.1671 303.0086 352.38586 302.14923Q351.6046 301.27423 351.6046 299.5086ZM354.3546 297.28986Q353.76086 297.28986 353.37024 297.80548Q352.9796 298.30548 352.9796 299.66486Q352.9796 300.91486 353.37024 301.41486Q353.7765 301.91486 354.3546 301.91486Q354.94836 301.91486 355.339 301.41486Q355.7296 300.89923 355.7296 299.55548Q355.7296 298.30548 355.339 297.80548Q354.94836 297.28986 354.3546 297.28986ZM354.37024 309.77423L361.4171 296.1961L362.69836 296.1961L355.6671 309.77423L354.37024 309.77423ZM359.93274 306.27423Q359.93274 304.89923 360.62024 303.93048Q361.32336 302.96173 362.6515 302.96173Q363.87024 302.96173 364.6515 303.83673Q365.44836 304.6961 365.44836 306.3836Q365.44836 308.0086 364.6515 308.89923Q363.8546 309.77423 362.6671 309.77423Q361.49524 309.77423 360.714 308.89923Q359.93274 308.02423 359.93274 306.27423ZM362.69836 304.05548Q362.1046 304.05548 361.714 304.5711Q361.32336 305.0711 361.32336 306.4461Q361.32336 307.66486 361.714 308.18048Q362.1046 308.6961 362.68274 308.6961Q363.2921 308.6961 363.68274 308.18048Q364.07336 307.66486 364.07336 306.3211Q364.07336 305.0711 363.68274 304.5711Q363.2921 304.05548 362.69836 304.05548Z" fill-rule="nonzero"/><path fill="#ffffff" d="M173.99452 226.91805L175.58827 226.71492Q175.8539 228.05867 176.51015 228.65242Q177.1664 229.24617 178.1039 229.24617Q179.2289 229.24617 179.99452 228.48055Q180.76015 227.6993 180.76015 226.55867Q180.76015 225.46492 180.0414 224.7618Q179.33827 224.04305 178.24452 224.04305Q177.7914 224.04305 177.11952 224.23055L177.2914 222.83992Q177.44765 222.85555 177.55702 222.85555Q178.55702 222.85555 179.36952 222.3243Q180.18202 221.79305 180.18202 220.6993Q180.18202 219.8243 179.58827 219.2618Q178.99452 218.68367 178.07265 218.68367Q177.15077 218.68367 176.52577 219.2618Q175.9164 219.83992 175.74452 221.0118L174.1664 220.73055Q174.44765 219.1368 175.4789 218.2618Q176.51015 217.3868 178.0414 217.3868Q179.08827 217.3868 179.9789 217.83992Q180.86952 218.29305 181.33827 219.0743Q181.80702 219.85555 181.80702 220.73055Q181.80702 221.5743 181.3539 222.2618Q180.9164 222.93367 180.02577 223.33992Q181.1664 223.60555 181.7914 224.4493Q182.43202 225.27742 182.43202 226.5118Q182.43202 228.1993 181.19765 229.3868Q179.9789 230.55867 178.1039 230.55867Q176.40077 230.55867 175.27577 229.54305Q174.1664 228.52742 173.99452 226.91805ZM189.94765 230.3243L188.36952 230.3243L188.36952 220.24617Q187.7914 220.79305 186.86952 221.33992Q185.94765 221.87117 185.19765 222.15242L185.19765 220.62117Q186.52577 219.99617 187.52577 219.10555Q188.52577 218.21492 188.93202 217.3868L189.94765 217.3868L189.94765 230.3243ZM194.88515 230.3243L194.88515 228.52742L196.68202 228.52742L196.68202 230.3243L194.88515 230.3243ZM198.99452 226.91805L200.58827 226.71492Q200.8539 228.05867 201.51015 228.65242Q202.1664 229.24617 203.1039 229.24617Q204.2289 229.24617 204.99452 228.48055Q205.76015 227.6993 205.76015 226.55867Q205.76015 225.46492 205.0414 224.7618Q204.33827 224.04305 203.24452 224.04305Q202.7914 224.04305 202.11952 224.23055L202.2914 222.83992Q202.44765 222.85555 202.55702 222.85555Q203.55702 222.85555 204.36952 222.3243Q205.18202 221.79305 205.18202 220.6993Q205.18202 219.8243 204.58827 219.2618Q203.99452 218.68367 203.07265 218.68367Q202.15077 218.68367 201.52577 219.2618Q200.9164 219.83992 200.74452 221.0118L199.1664 220.73055Q199.44765 219.1368 200.4789 218.2618Q201.51015 217.3868 203.0414 217.3868Q204.08827 217.3868 204.9789 217.83992Q205.86952 218.29305 206.33827 219.0743Q206.80702 219.85555 206.80702 220.73055Q206.80702 221.5743 206.3539 222.2618Q205.9164 222.93367 205.02577 223.33992Q206.1664 223.60555 206.7914 224.4493Q207.43202 225.27742 207.43202 226.5118Q207.43202 228.1993 206.19765 229.3868Q204.9789 230.55867 203.1039 230.55867Q201.40077 230.55867 200.27577 229.54305Q199.1664 228.52742 198.99452 226.91805ZM209.2914 220.52742Q209.2914 219.15242 209.9789 218.18367Q210.68202 217.21492 211.99452 217.21492Q213.21327 217.21492 214.01015 218.08992Q214.80702 218.9493 214.80702 220.6368Q214.80702 222.2618 213.99452 223.15242Q213.19765 224.02742 212.01015 224.02742Q210.8539 224.02742 210.07265 223.16805Q209.2914 222.29305 209.2914 220.52742ZM212.0414 218.30867Q211.44765 218.30867 211.05702 218.8243Q210.6664 219.3243 210.6664 220.68367Q210.6664 221.93367 211.05702 222.43367Q211.46327 222.93367 212.0414 222.93367Q212.63515 222.93367 213.02577 222.43367Q213.4164 221.91805 213.4164 220.5743Q213.4164 219.3243 213.02577 218.8243Q212.63515 218.30867 212.0414 218.30867ZM212.05702 230.79305L219.1039 217.21492L220.38515 217.21492L213.3539 230.79305L212.05702 230.79305ZM217.61952 227.29305Q217.61952 225.91805 218.30702 224.9493Q219.01015 223.98055 220.33827 223.98055Q221.55702 223.98055 222.33827 224.85555Q223.13515 225.71492 223.13515 227.40242Q223.13515 229.02742 222.33827 229.91805Q221.5414 230.79305 220.3539 230.79305Q219.18202 230.79305 218.40077 229.91805Q217.61952 229.04305 217.61952 227.29305ZM220.38515 225.0743Q219.7914 225.0743 219.40077 225.58992Q219.01015 226.08992 219.01015 227.46492Q219.01015 228.68367 219.40077 229.1993Q219.7914 229.71492 220.36952 229.71492Q220.9789 229.71492 221.36952 229.1993Q221.76015 228.68367 221.76015 227.33992Q221.76015 226.08992 221.36952 225.58992Q220.9789 225.0743 220.38515 225.0743Z" fill-rule="nonzero"/><path stroke="#ffffff" stroke-width="1.0" stroke-linejoin="round" stroke-linecap="round" d="M326.2985 177.38486C319.3237 170.41006 309.86383 166.49167 300.0 166.49167L300.0 54.916668C339.45538 54.916668 377.29477 70.590256 405.1939 98.48942" fill-rule="nonzero"/><path stroke="#ffffff" stroke-width="1.0" stroke-linejoin="round" stroke-linecap="round" d="M334.36063 217.91597C340.1172 204.0184 336.9352 188.02159 326.2985 177.38486L405.1939 98.48942C447.74088 141.03638 460.46872 205.02357 437.44247 260.61386" fill-rule="nonzero"/><path stroke="#ffffff" stroke-width="1.0" stroke-linejoin="round" stroke-linecap="round" d="M285.76736 238.04396C304.7442 245.90442 326.50015 236.8928 334.36063 217.91597L437.44247 260.61386C406.0006 336.52127 318.97684 372.5677 243.06946 341.12582" fill-rule="nonzero"/><path stroke="#ffffff" stroke-width="1.0" stroke-linejoin="round" stroke-linecap="round" d="M273.7015 177.38486C264.91827 186.16809 261.09967 198.75638 263.52295 210.93907C265.94626 223.12177 274.2915 233.2905 285.76736 238.04396L243.06946 341.12582C197.16606 322.112 163.785 281.43707 154.09184 232.70627C144.39868 183.97548 159.67314 133.62236 194.80608 98.48942" fill-rule="nonzero"/><path stroke="#ffffff" stroke-width="1.0" stroke-linejoin="round" stroke-linecap="round" d="M285.76736 169.32271C281.25507 171.19177 277.1551 173.93129 273.7015 177.38486L194.80608 98.48942C208.62035 84.675156 225.02026 73.71708 243.06946 66.24085" fill-rule="nonzero"/><path stroke="#ffffff" stroke-width="1.0" stroke-linejoin="round" stroke-linecap="round" d="M300.0 166.49167C295.1159 166.49167 290.27966 167.45366 285.76736 169.32271L243.06946 66.24085C261.11865 58.76463 280.46368 54.916668 300.0 54.916668" fill-rule="nonzero"/><path fill="#efefef" d="M27.3 58.46354L28.815624 58.46354L28.815624 65.072914Q28.815624 66.80729 28.425 67.822914Q28.034374 68.83854 27.01875 69.479164Q26.003124 70.11979 24.346874 70.11979Q22.7375 70.11979 21.70625 69.55729Q20.690624 68.99479 20.253124 67.947914Q19.815624 66.90104 19.815624 65.072914L19.815624 58.46354L21.33125 58.46354L21.33125 65.072914Q21.33125 66.55729 21.596874 67.27604Q21.878124 67.979164 22.55 68.36979Q23.2375 68.74479 24.20625 68.74479Q25.878124 68.74479 26.58125 67.99479Q27.3 67.229164 27.3 65.072914L27.3 58.46354ZM31.596874 69.916664L31.596874 61.61979L32.8625 61.61979L32.8625 62.86979Q33.346874 61.99479 33.753124 61.71354Q34.159374 61.43229 34.659374 61.43229Q35.3625 61.43229 36.096874 61.885414L35.6125 63.18229Q35.096874 62.885414 34.58125 62.885414Q34.128124 62.885414 33.753124 63.166664Q33.39375 63.43229 33.2375 63.93229Q33.003124 64.68229 33.003124 65.572914L33.003124 69.916664L31.596874 69.916664ZM37.909374 69.916664L36.596874 69.916664L36.596874 58.46354L38.003124 58.46354L38.003124 62.541664Q38.89375 61.43229 40.284374 61.43229Q41.05 61.43229 41.721874 61.74479Q42.409374 62.041664 42.846874 62.604164Q43.3 63.166664 43.55 63.96354Q43.8 64.74479 43.8 65.635414Q43.8 67.77604 42.7375 68.947914Q41.690624 70.104164 40.20625 70.104164Q38.7375 70.104164 37.909374 68.86979L37.909374 69.916664ZM37.89375 65.697914Q37.89375 67.197914 38.3 67.854164Q38.95625 68.947914 40.096874 68.947914Q41.01875 68.947914 41.690624 68.15104Q42.3625 67.33854 42.3625 65.760414Q42.3625 64.135414 41.70625 63.36979Q41.065624 62.58854 40.159374 62.58854Q39.2375 62.58854 38.565624 63.385414Q37.89375 64.18229 37.89375 65.697914ZM51.01875 68.885414Q50.2375 69.55729 49.51875 69.83854Q48.8 70.104164 47.971874 70.104164Q46.596874 70.104164 45.8625 69.43229Q45.128124 68.760414 45.128124 67.729164Q45.128124 67.11979 45.409374 66.61979Q45.690624 66.104164 46.128124 65.80729Q46.58125 65.49479 47.14375 65.33854Q47.565624 65.229164 48.39375 65.135414Q50.096874 64.93229 50.909374 64.65104Q50.909374 64.354164 50.909374 64.27604Q50.909374 63.416664 50.51875 63.072914Q49.971874 62.58854 48.909374 62.58854Q47.925 62.58854 47.440624 62.947914Q46.971874 63.291664 46.753124 64.166664L45.378124 63.979164Q45.565624 63.104164 45.9875 62.55729Q46.425 62.010414 47.2375 61.729164Q48.05 61.43229 49.1125 61.43229Q50.175 61.43229 50.83125 61.68229Q51.503124 61.93229 51.815624 62.30729Q52.128124 62.68229 52.253124 63.260414Q52.33125 63.61979 52.33125 64.55729L52.33125 66.43229Q52.33125 68.40104 52.409374 68.916664Q52.503124 69.43229 52.76875 69.916664L51.3 69.916664Q51.08125 69.479164 51.01875 68.885414ZM50.909374 65.74479Q50.14375 66.05729 48.6125 66.27604Q47.7375 66.40104 47.378124 66.55729Q47.01875 66.71354 46.815624 67.02604Q46.628124 67.322914 46.628124 67.68229Q46.628124 68.24479 47.05 68.61979Q47.4875 68.99479 48.3 68.99479Q49.1125 68.99479 49.7375 68.65104Q50.378124 68.291664 50.675 67.666664Q50.909374 67.197914 50.909374 66.260414L50.909374 65.74479ZM54.6125 69.916664L54.6125 61.61979L55.878124 61.61979L55.878124 62.791664Q56.784374 61.43229 58.51875 61.43229Q59.26875 61.43229 59.89375 61.697914Q60.51875 61.96354 60.83125 62.40104Q61.14375 62.83854 61.26875 63.447914Q61.346874 63.83854 61.346874 64.80729L61.346874 69.916664L59.940624 69.916664L59.940624 64.86979Q59.940624 64.010414 59.76875 63.58854Q59.6125 63.15104 59.190624 62.90104Q58.784374 62.65104 58.221874 62.65104Q57.315624 62.65104 56.659374 63.229164Q56.01875 63.791664 56.01875 65.385414L56.01875 69.916664L54.6125 69.916664ZM63.05 67.43229L64.44063 67.21354Q64.55 68.05729 65.08125 68.510414Q65.62813 68.947914 66.58125 68.947914Q67.55 68.947914 68.01875 68.55729Q68.4875 68.15104 68.4875 67.61979Q68.4875 67.15104 68.08125 66.86979Q67.78438 66.68229 66.64375 66.40104Q65.09688 66.010414 64.4875 65.729164Q63.89375 65.43229 63.58125 64.93229Q63.284374 64.43229 63.284374 63.822914Q63.284374 63.260414 63.534374 62.791664Q63.784374 62.322914 64.22188 62.010414Q64.55 61.760414 65.1125 61.604164Q65.69063 61.43229 66.33125 61.43229Q67.31563 61.43229 68.05 61.71354Q68.78438 61.99479 69.12813 62.479164Q69.4875 62.947914 69.62813 63.760414L68.25313 63.947914Q68.15938 63.30729 67.70625 62.947914Q67.25313 62.58854 66.44063 62.58854Q65.47188 62.58854 65.05 62.916664Q64.64375 63.229164 64.64375 63.65104Q64.64375 63.93229 64.81563 64.15104Q64.9875 64.36979 65.34688 64.52604Q65.56563 64.604164 66.59688 64.885414Q68.08125 65.27604 68.675 65.541664Q69.26875 65.791664 69.59688 66.27604Q69.94063 66.760414 69.94063 67.479164Q69.94063 68.18229 69.51875 68.80729Q69.1125 69.416664 68.33125 69.760414Q67.56563 70.104164 66.59688 70.104164Q64.97188 70.104164 64.12813 69.43229Q63.284374 68.760414 63.05 67.43229ZM77.01875 66.86979L78.40938 67.05729Q78.175 68.479164 77.2375 69.291664Q76.31563 70.104164 74.95625 70.104164Q73.25313 70.104164 72.20625 68.99479Q71.175 67.86979 71.175 65.791664Q71.175 64.447914 71.6125 63.447914Q72.06563 62.43229 72.97188 61.93229Q73.89375 61.43229 74.95625 61.43229Q76.31563 61.43229 77.175 62.11979Q78.03438 62.791664 78.26875 64.05729L76.90938 64.260414Q76.70625 63.43229 76.20625 63.010414Q75.72188 62.58854 75.01875 62.58854Q73.95625 62.58854 73.28438 63.354164Q72.62813 64.104164 72.62813 65.760414Q72.62813 67.43229 73.26875 68.197914Q73.90938 68.947914 74.94063 68.947914Q75.76875 68.947914 76.31563 68.447914Q76.87813 67.93229 77.01875 66.86979ZM85.01875 68.885414Q84.2375 69.55729 83.51875 69.83854Q82.8 70.104164 81.97188 70.104164Q80.59688 70.104164 79.8625 69.43229Q79.12813 68.760414 79.12813 67.729164Q79.12813 67.11979 79.40938 66.61979Q79.69063 66.104164 80.12813 65.80729Q80.58125 65.49479 81.14375 65.33854Q81.56563 65.229164 82.39375 65.135414Q84.09688 64.93229 84.90938 64.65104Q84.90938 64.354164 84.90938 64.27604Q84.90938 63.416664 84.51875 63.072914Q83.97188 62.58854 82.90938 62.58854Q81.925 62.58854 81.44063 62.947914Q80.97188 63.291664 80.75313 64.166664L79.37813 63.979164Q79.56563 63.104164 79.9875 62.55729Q80.425 62.010414 81.2375 61.729164Q82.05 61.43229 83.1125 61.43229Q84.175 61.43229 84.83125 61.68229Q85.50313 61.93229 85.81563 62.30729Q86.12813 62.68229 86.25313 63.260414Q86.33125 63.61979 86.33125 64.55729L86.33125 66.43229Q86.33125 68.40104 86.40938 68.916664Q86.50313 69.43229 86.76875 69.916664L85.3 69.916664Q85.08125 69.479164 85.01875 68.885414ZM84.90938 65.74479Q84.14375 66.05729 82.6125 66.27604Q81.7375 66.40104 81.37813 66.55729Q81.01875 66.71354 80.81563 67.02604Q80.62813 67.322914 80.62813 67.68229Q80.62813 68.24479 81.05 68.61979Q81.4875 68.99479 82.3 68.99479Q83.1125 68.99479 83.7375 68.65104Q84.37813 68.291664 84.675 67.666664Q84.90938 67.197914 84.90938 66.260414L84.90938 65.74479ZM88.6125 73.104164L88.6125 61.61979L89.89375 61.61979L89.89375 62.697914Q90.34688 62.05729 90.90938 61.74479Q91.4875 61.43229 92.3 61.43229Q93.3625 61.43229 94.175 61.979164Q94.9875 62.52604 95.39375 63.52604Q95.81563 64.510414 95.81563 65.697914Q95.81563 66.979164 95.34688 67.99479Q94.89375 69.010414 94.01875 69.55729Q93.15938 70.104164 92.19063 70.104164Q91.4875 70.104164 90.925 69.80729Q90.37813 69.510414 90.01875 69.05729L90.01875 73.104164L88.6125 73.104164ZM89.87813 65.80729Q89.87813 67.416664 90.51875 68.18229Q91.175 68.947914 92.09688 68.947914Q93.03438 68.947914 93.70625 68.15104Q94.37813 67.354164 94.37813 65.697914Q94.37813 64.104164 93.72188 63.322914Q93.06563 62.52604 92.15938 62.52604Q91.26875 62.52604 90.56563 63.36979Q89.87813 64.21354 89.87813 65.80729ZM103.28438 67.24479L104.7375 67.416664Q104.39375 68.697914 103.45625 69.40104Q102.53438 70.104164 101.09688 70.104164Q99.26875 70.104164 98.20625 68.979164Q97.14375 67.854164 97.14375 65.83854Q97.14375 63.74479 98.22188 62.58854Q99.3 61.43229 101.01875 61.43229Q102.675 61.43229 103.72188 62.572914Q104.78438 63.697914 104.78438 65.74479Q104.78438 65.86979 104.78438 66.11979L98.59688 66.11979Q98.675 67.49479 99.3625 68.229164Q100.06563 68.947914 101.09688 68.947914Q101.87813 68.947914 102.425 68.541664Q102.97188 68.135414 103.28438 67.24479ZM98.675 64.96354L103.3 64.96354Q103.20625 63.916664 102.76875 63.40104Q102.09688 62.58854 101.03438 62.58854Q100.06563 62.58854 99.39375 63.24479Q98.7375 63.885414 98.675 64.96354Z" fill-rule="nonzero"/><path fill="#9e9e9e" d="M26.51875 83.260414L25.1125 83.36979Q24.925 82.541664 24.58125 82.166664Q24.01875 81.572914 23.175 81.572914Q22.503124 81.572914 22.003124 81.947914Q21.33125 82.43229 20.940624 83.36979Q20.565624 84.291664 20.55 86.010414Q21.065624 85.229164 21.8 84.854164Q22.534374 84.479164 23.33125 84.479164Q24.7375 84.479164 25.721874 85.52604Q26.721874 86.55729 26.721874 88.197914Q26.721874 89.27604 26.253124 90.197914Q25.784374 91.11979 24.971874 91.61979Q24.159374 92.11979 23.128124 92.11979Q21.378124 92.11979 20.26875 90.822914Q19.159374 89.52604 19.159374 86.55729Q19.159374 83.229164 20.378124 81.729164Q21.45625 80.416664 23.26875 80.416664Q24.6125 80.416664 25.471874 81.18229Q26.346874 81.93229 26.51875 83.260414ZM20.76875 88.197914Q20.76875 88.93229 21.08125 89.604164Q21.39375 90.260414 21.940624 90.604164Q22.503124 90.947914 23.1125 90.947914Q24.003124 90.947914 24.64375 90.229164Q25.284374 89.510414 25.284374 88.27604Q25.284374 87.08854 24.64375 86.416664Q24.01875 85.729164 23.05 85.729164Q22.096874 85.729164 21.425 86.416664Q20.76875 87.08854 20.76875 88.197914ZM29.003124 91.916664L29.003124 90.30729L30.6125 90.30729L30.6125 91.916664L29.003124 91.916664ZM32.221874 88.885414L33.628124 88.697914Q33.878124 89.90104 34.45625 90.43229Q35.034374 90.947914 35.878124 90.947914Q36.8625 90.947914 37.55 90.260414Q38.2375 89.572914 38.2375 88.55729Q38.2375 87.58854 37.596874 86.96354Q36.971874 86.33854 35.9875 86.33854Q35.596874 86.33854 35.003124 86.49479L35.159374 85.260414Q35.3 85.27604 35.378124 85.27604Q36.284374 85.27604 37.003124 84.80729Q37.721874 84.33854 37.721874 83.354164Q37.721874 82.58854 37.190624 82.08854Q36.675 81.572914 35.846874 81.572914Q35.01875 81.572914 34.471874 82.08854Q33.925 82.604164 33.76875 83.635414L32.3625 83.385414Q32.628124 81.96354 33.534374 81.197914Q34.45625 80.416664 35.815624 80.416664Q36.753124 80.416664 37.534374 80.822914Q38.33125 81.21354 38.7375 81.916664Q39.159374 82.604164 39.159374 83.385414Q39.159374 84.135414 38.753124 84.74479Q38.3625 85.354164 37.58125 85.71354Q38.596874 85.947914 39.159374 86.68229Q39.721874 87.416664 39.721874 88.52604Q39.721874 90.02604 38.628124 91.072914Q37.534374 92.11979 35.8625 92.11979Q34.3625 92.11979 33.3625 91.229164Q32.3625 90.322914 32.221874 88.885414ZM41.4875 83.21354Q41.4875 81.979164 42.096874 81.11979Q42.721874 80.260414 43.89375 80.260414Q44.971874 80.260414 45.675 81.041664Q46.378124 81.80729 46.378124 83.291664Q46.378124 84.74479 45.659374 85.541664Q44.95625 86.322914 43.909374 86.322914Q42.8625 86.322914 42.175 85.55729Q41.4875 84.77604 41.4875 83.21354ZM43.925 81.229164Q43.409374 81.229164 43.05 81.68229Q42.70625 82.135414 42.70625 83.354164Q42.70625 84.447914 43.05 84.90104Q43.409374 85.354164 43.925 85.354164Q44.45625 85.354164 44.8 84.90104Q45.159374 84.447914 45.159374 83.24479Q45.159374 82.135414 44.8 81.68229Q44.45625 81.229164 43.925 81.229164ZM43.940624 92.33854L50.20625 80.260414L51.346874 80.260414L45.096874 92.33854L43.940624 92.33854ZM48.89375 89.229164Q48.89375 87.99479 49.503124 87.135414Q50.128124 86.27604 51.3 86.27604Q52.378124 86.27604 53.08125 87.05729Q53.8 87.822914 53.8 89.30729Q53.8 90.760414 53.08125 91.55729Q52.3625 92.33854 51.315624 92.33854Q50.26875 92.33854 49.58125 91.55729Q48.89375 90.77604 48.89375 89.229164ZM51.346874 87.24479Q50.815624 87.24479 50.45625 87.697914Q50.1125 88.15104 50.1125 89.36979Q50.1125 90.46354 50.45625 90.916664Q50.815624 91.36979 51.33125 91.36979Q51.878124 91.36979 52.221874 90.916664Q52.565624 90.46354 52.565624 89.260414Q52.565624 88.15104 52.20625 87.697914Q51.8625 87.24479 51.346874 87.24479Z" fill-rule="nonzero"/><path stroke="#757575" stroke-width="1.0" stroke-linecap="butt" d="M18.55 75.416664L145.23334 75.416664L272.42822 65.07059" fill-rule="nonzero"/><path fill="#9e9e9e" d="M274.42822 65.07059C274.42822 63.966015 273.53278 63.070583 272.42822 63.070583C271.32364 63.070583 270.42822 63.966015 270.42822 65.07059C270.42822 66.175156 271.32364 67.07059 272.42822 67.07059C273.53278 67.07059 274.42822 66.175156 274.42822 65.07059" fill-rule="nonzero"/><path fill="#efefef" d="M19.784374 110.916664L19.784374 99.46354L24.1125 99.46354Q25.253124 99.46354 25.846874 99.572914Q26.690624 99.71354 27.253124 100.104164Q27.83125 100.49479 28.175 101.21354Q28.534374 101.916664 28.534374 102.77604Q28.534374 104.229164 27.596874 105.24479Q26.675 106.260414 24.2375 106.260414L21.3 106.260414L21.3 110.916664L19.784374 110.916664ZM21.3 104.90104L24.26875 104.90104Q25.7375 104.90104 26.346874 104.354164Q26.971874 103.80729 26.971874 102.822914Q26.971874 102.104164 26.596874 101.58854Q26.2375 101.072914 25.64375 100.916664Q25.26875 100.80729 24.2375 100.80729L21.3 100.80729L21.3 104.90104ZM36.284374 108.24479L37.7375 108.416664Q37.39375 109.697914 36.45625 110.40104Q35.534374 111.104164 34.096874 111.104164Q32.26875 111.104164 31.20625 109.979164Q30.14375 108.854164 30.14375 106.83854Q30.14375 104.74479 31.221874 103.58854Q32.3 102.43229 34.01875 102.43229Q35.675 102.43229 36.721874 103.572914Q37.784374 104.697914 37.784374 106.74479Q37.784374 106.86979 37.784374 107.11979L31.596874 107.11979Q31.675 108.49479 32.3625 109.229164Q33.065624 109.947914 34.096874 109.947914Q34.878124 109.947914 35.425 109.541664Q35.971874 109.135414 36.284374 108.24479ZM31.675 105.96354L36.3 105.96354Q36.20625 104.916664 35.76875 104.40104Q35.096874 103.58854 34.034374 103.58854Q33.065624 103.58854 32.39375 104.24479Q31.7375 104.885414 31.675 105.96354ZM39.08125 106.760414Q39.08125 104.46354 40.3625 103.354164Q41.440624 102.43229 42.971874 102.43229Q44.690624 102.43229 45.76875 103.55729Q46.8625 104.666664 46.8625 106.65104Q46.8625 108.24479 46.378124 109.166664Q45.89375 110.08854 44.971874 110.604164Q44.065624 111.104164 42.971874 111.104164Q41.2375 111.104164 40.159374 109.99479Q39.08125 108.86979 39.08125 106.760414ZM40.534374 106.760414Q40.534374 108.354164 41.221874 109.15104Q41.925 109.947914 42.971874 109.947914Q44.01875 109.947914 44.70625 109.15104Q45.409374 108.354164 45.409374 106.71354Q45.409374 105.18229 44.70625 104.385414Q44.01875 103.58854 42.971874 103.58854Q41.925 103.58854 41.221874 104.385414Q40.534374 105.166664 40.534374 106.760414ZM48.6125 114.104164L48.6125 102.61979L49.89375 102.61979L49.89375 103.697914Q50.346874 103.05729 50.909374 102.74479Q51.4875 102.43229 52.3 102.43229Q53.3625 102.43229 54.175 102.979164Q54.9875 103.52604 55.39375 104.52604Q55.815624 105.510414 55.815624 106.697914Q55.815624 107.979164 55.346874 108.99479Q54.89375 110.010414 54.01875 110.55729Q53.159374 111.104164 52.190624 111.104164Q51.4875 111.104164 50.925 110.80729Q50.378124 110.510414 50.01875 110.05729L50.01875 114.104164L48.6125 114.104164ZM49.878124 106.80729Q49.878124 108.416664 50.51875 109.18229Q51.175 109.947914 52.096874 109.947914Q53.034374 109.947914 53.70625 109.15104Q54.378124 108.354164 54.378124 106.697914Q54.378124 105.104164 53.721874 104.322914Q53.065624 103.52604 52.159374 103.52604Q51.26875 103.52604 50.565624 104.36979Q49.878124 105.21354 49.878124 106.80729ZM57.58125 110.916664L57.58125 99.46354L58.9875 99.46354L58.9875 110.916664L57.58125 110.916664ZM67.28438 108.24479L68.7375 108.416664Q68.39375 109.697914 67.45625 110.40104Q66.53438 111.104164 65.09688 111.104164Q63.26875 111.104164 62.20625 109.979164Q61.14375 108.854164 61.14375 106.83854Q61.14375 104.74479 62.221874 103.58854Q63.3 102.43229 65.01875 102.43229Q66.675 102.43229 67.72188 103.572914Q68.78438 104.697914 68.78438 106.74479Q68.78438 106.86979 68.78438 107.11979L62.596874 107.11979Q62.675 108.49479 63.3625 109.229164Q64.06563 109.947914 65.09688 109.947914Q65.87813 109.947914 66.425 109.541664Q66.97188 109.135414 67.28438 108.24479ZM62.675 105.96354L67.3 105.96354Q67.20625 104.916664 66.76875 104.40104Q66.09688 103.58854 65.03438 103.58854Q64.06563 103.58854 63.39375 104.24479Q62.7375 104.885414 62.675 105.96354Z" fill-rule="nonzero"/><path fill="#9e9e9e" d="M26.51875 124.26042L25.1125 124.3698Q24.925 123.54167 24.58125 123.16667Q24.01875 122.57292 23.175 122.57292Q22.503124 122.57292 22.003124 122.94792Q21.33125 123.4323 20.940624 124.3698Q20.565624 125.29167 20.55 127.01042Q21.065624 126.22917 21.8 125.85417Q22.534374 125.47917 23.33125 125.47917Q24.7375 125.47917 25.721874 126.52605Q26.721874 127.5573 26.721874 129.19792Q26.721874 130.27605 26.253124 131.19792Q25.784374 132.1198 24.971874 132.6198Q24.159374 133.1198 23.128124 133.1198Q21.378124 133.1198 20.26875 131.82292Q19.159374 130.52605 19.159374 127.5573Q19.159374 124.22917 20.378124 122.72917Q21.45625 121.41667 23.26875 121.41667Q24.6125 121.41667 25.471874 122.1823Q26.346874 122.9323 26.51875 124.26042ZM20.76875 129.19792Q20.76875 129.9323 21.08125 130.60417Q21.39375 131.26042 21.940624 131.60417Q22.503124 131.94792 23.1125 131.94792Q24.003124 131.94792 24.64375 131.22917Q25.284374 130.51042 25.284374 129.27605Q25.284374 128.08855 24.64375 127.41667Q24.01875 126.72917 23.05 126.72917Q22.096874 126.72917 21.425 127.41667Q20.76875 128.08855 20.76875 129.19792ZM29.003124 132.91667L29.003124 131.3073L30.6125 131.3073L30.6125 132.91667L29.003124 132.91667ZM32.221874 129.88542L33.628124 129.69792Q33.878124 130.90105 34.45625 131.4323Q35.034374 131.94792 35.878124 131.94792Q36.8625 131.94792 37.55 131.26042Q38.2375 130.57292 38.2375 129.5573Q38.2375 128.58855 37.596874 127.96355Q36.971874 127.33855 35.9875 127.33855Q35.596874 127.33855 35.003124 127.4948L35.159374 126.26042Q35.3 126.27605 35.378124 126.27605Q36.284374 126.27605 37.003124 125.8073Q37.721874 125.33855 37.721874 124.35417Q37.721874 123.58855 37.190624 123.08855Q36.675 122.57292 35.846874 122.57292Q35.01875 122.57292 34.471874 123.08855Q33.925 123.60417 33.76875 124.63542L32.3625 124.38542Q32.628124 122.96355 33.534374 122.19792Q34.45625 121.41667 35.815624 121.41667Q36.753124 121.41667 37.534374 121.82292Q38.33125 122.21355 38.7375 122.91667Q39.159374 123.60417 39.159374 124.38542Q39.159374 125.13542 38.753124 125.7448Q38.3625 126.35417 37.58125 126.71355Q38.596874 126.94792 39.159374 127.6823Q39.721874 128.41667 39.721874 129.52605Q39.721874 131.02605 38.628124 132.07292Q37.534374 133.1198 35.8625 133.1198Q34.3625 133.1198 33.3625 132.22917Q32.3625 131.32292 32.221874 129.88542ZM41.4875 124.21355Q41.4875 122.97917 42.096874 122.1198Q42.721874 121.26042 43.89375 121.26042Q44.971874 121.26042 45.675 122.04167Q46.378124 122.8073 46.378124 124.29167Q46.378124 125.7448 45.659374 126.54167Q44.95625 127.32292 43.909374 127.32292Q42.8625 127.32292 42.175 126.5573Q41.4875 125.77605 41.4875 124.21355ZM43.925 122.22917Q43.409374 122.22917 43.05 122.6823Q42.70625 123.13542 42.70625 124.35417Q42.70625 125.44792 43.05 125.90105Q43.409374 126.35417 43.925 126.35417Q44.45625 126.35417 44.8 125.90105Q45.159374 125.44792 45.159374 124.2448Q45.159374 123.13542 44.8 122.6823Q44.45625 122.22917 43.925 122.22917ZM43.940624 133.33855L50.20625 121.26042L51.346874 121.26042L45.096874 133.33855L43.940624 133.33855ZM48.89375 130.22917Q48.89375 128.9948 49.503124 128.13542Q50.128124 127.27605 51.3 127.27605Q52.378124 127.27605 53.08125 128.0573Q53.8 128.82292 53.8 130.3073Q53.8 131.76042 53.08125 132.5573Q52.3625 133.33855 51.315624 133.33855Q50.26875 133.33855 49.58125 132.5573Q48.89375 131.77605 48.89375 130.22917ZM51.346874 128.2448Q50.815624 128.2448 50.45625 128.69792Q50.1125 129.15105 50.1125 130.3698Q50.1125 131.46355 50.45625 131.91667Q50.815624 132.3698 51.33125 132.3698Q51.878124 132.3698 52.221874 131.91667Q52.565624 131.46355 52.565624 130.26042Q52.565624 129.15105 52.20625 128.69792Q51.8625 128.2448 51.346874 128.2448Z" fill-rule="nonzero"/><path stroke="#757575" stroke-width="1.0" stroke-linecap="butt" d="M18.55 116.416664L145.23334 116.416664L221.48218 86.17312" fill-rule="nonzero"/><path fill="#9e9e9e" d="M223.48218 86.17312C223.48218 85.06855 222.58676 84.17312 221.48218 84.17312C220.37761 84.17312 219.48218 85.06855 219.48218 86.17312C219.48218 87.27769 220.37761 88.17312 221.48218 88.17312C222.58676 88.17312 223.48218 87.27769 223.48218 86.17312" fill-rule="nonzero"/><path fill="#efefef" d="M19.784374 225.75513L19.784374 214.302L23.7375 214.302Q25.065624 214.302 25.76875 214.45825Q26.753124 214.69263 27.45625 215.28638Q28.3625 216.052 28.8 217.2395Q29.253124 218.427 29.253124 219.95825Q29.253124 221.27075 28.940624 222.28638Q28.64375 223.28638 28.159374 223.94263Q27.690624 224.59888 27.128124 224.9895Q26.565624 225.3645 25.753124 225.56763Q24.95625 225.75513 23.925 225.75513L19.784374 225.75513ZM21.3 224.39575L23.753124 224.39575Q24.878124 224.39575 25.51875 224.19263Q26.175 223.97388 26.55 223.59888Q27.096874 223.052 27.39375 222.14575Q27.690624 221.2395 27.690624 219.94263Q27.690624 218.14575 27.096874 217.177Q26.51875 216.20825 25.675 215.88013Q25.065624 215.64575 23.70625 215.64575L21.3 215.64575L21.3 224.39575ZM37.284374 223.08325L38.7375 223.25513Q38.39375 224.53638 37.45625 225.2395Q36.534374 225.94263 35.096874 225.94263Q33.26875 225.94263 32.20625 224.81763Q31.14375 223.69263 31.14375 221.677Q31.14375 219.58325 32.221874 218.427Q33.3 217.27075 35.01875 217.27075Q36.675 217.27075 37.721874 218.41138Q38.784374 219.53638 38.784374 221.58325Q38.784374 221.70825 38.784374 221.95825L32.596874 221.95825Q32.675 223.33325 33.3625 224.06763Q34.065624 224.78638 35.096874 224.78638Q35.878124 224.78638 36.425 224.38013Q36.971874 223.97388 37.284374 223.08325ZM32.675 220.802L37.3 220.802Q37.20625 219.75513 36.76875 219.2395Q36.096874 218.427 35.034374 218.427Q34.065624 218.427 33.39375 219.08325Q32.7375 219.72388 32.675 220.802ZM43.675 224.4895L43.878124 225.7395Q43.284374 225.8645 42.815624 225.8645Q42.05 225.8645 41.628124 225.63013Q41.20625 225.38013 41.034374 224.9895Q40.8625 224.58325 40.8625 223.31763L40.8625 218.552L39.83125 218.552L39.83125 217.45825L40.8625 217.45825L40.8625 215.39575L42.26875 214.552L42.26875 217.45825L43.675 217.45825L43.675 218.552L42.26875 218.552L42.26875 223.39575Q42.26875 224.00513 42.33125 224.177Q42.409374 224.34888 42.58125 224.45825Q42.753124 224.552 43.065624 224.552Q43.3 224.552 43.675 224.4895ZM50.01875 224.72388Q49.2375 225.39575 48.51875 225.677Q47.8 225.94263 46.971874 225.94263Q45.596874 225.94263 44.8625 225.27075Q44.128124 224.59888 44.128124 223.56763Q44.128124 222.95825 44.409374 222.45825Q44.690624 221.94263 45.128124 221.64575Q45.58125 221.33325 46.14375 221.177Q46.565624 221.06763 47.39375 220.97388Q49.096874 220.77075 49.909374 220.4895Q49.909374 220.19263 49.909374 220.1145Q49.909374 219.25513 49.51875 218.91138Q48.971874 218.427 47.909374 218.427Q46.925 218.427 46.440624 218.78638Q45.971874 219.13013 45.753124 220.00513L44.378124 219.81763Q44.565624 218.94263 44.9875 218.39575Q45.425 217.84888 46.2375 217.56763Q47.05 217.27075 48.1125 217.27075Q49.175 217.27075 49.83125 217.52075Q50.503124 217.77075 50.815624 218.14575Q51.128124 218.52075 51.253124 219.09888Q51.33125 219.45825 51.33125 220.39575L51.33125 222.27075Q51.33125 224.2395 51.409374 224.75513Q51.503124 225.27075 51.76875 225.75513L50.3 225.75513Q50.08125 225.31763 50.01875 224.72388ZM49.909374 221.58325Q49.14375 221.89575 47.6125 222.1145Q46.7375 222.2395 46.378124 222.39575Q46.01875 222.552 45.815624 222.8645Q45.628124 223.16138 45.628124 223.52075Q45.628124 224.08325 46.05 224.45825Q46.4875 224.83325 47.3 224.83325Q48.1125 224.83325 48.7375 224.4895Q49.378124 224.13013 49.675 223.50513Q49.909374 223.03638 49.909374 222.09888L49.909374 221.58325ZM53.6125 215.91138L53.6125 214.302L55.01875 214.302L55.01875 215.91138L53.6125 215.91138ZM53.6125 225.75513L53.6125 217.45825L55.01875 217.45825L55.01875 225.75513L53.6125 225.75513ZM57.58125 225.75513L57.58125 214.302L58.9875 214.302L58.9875 225.75513L57.58125 225.75513ZM61.05 223.27075L62.440624 223.052Q62.55 223.89575 63.08125 224.34888Q63.628124 224.78638 64.58125 224.78638Q65.55 224.78638 66.01875 224.39575Q66.4875 223.9895 66.4875 223.45825Q66.4875 222.9895 66.08125 222.70825Q65.78438 222.52075 64.64375 222.2395Q63.096874 221.84888 62.4875 221.56763Q61.89375 221.27075 61.58125 220.77075Q61.284374 220.27075 61.284374 219.66138Q61.284374 219.09888 61.534374 218.63013Q61.784374 218.16138 62.221874 217.84888Q62.55 217.59888 63.1125 217.44263Q63.690624 217.27075 64.33125 217.27075Q65.31563 217.27075 66.05 217.552Q66.78438 217.83325 67.12813 218.31763Q67.4875 218.78638 67.62813 219.59888L66.25313 219.78638Q66.15938 219.14575 65.70625 218.78638Q65.25313 218.427 64.44063 218.427Q63.471874 218.427 63.05 218.75513Q62.64375 219.06763 62.64375 219.4895Q62.64375 219.77075 62.815624 219.9895Q62.9875 220.20825 63.346874 220.3645Q63.565624 220.44263 64.59688 220.72388Q66.08125 221.1145 66.675 221.38013Q67.26875 221.63013 67.59688 222.1145Q67.94063 222.59888 67.94063 223.31763Q67.94063 224.02075 67.51875 224.64575Q67.1125 225.25513 66.33125 225.59888Q65.56563 225.94263 64.59688 225.94263Q62.971874 225.94263 62.128124 225.27075Q61.284374 224.59888 61.05 223.27075Z" fill-rule="nonzero"/><path fill="#9e9e9e" d="M19.221874 244.72388L20.628124 244.53638Q20.878124 245.7395 21.45625 246.27075Q22.034374 246.78638 22.878124 246.78638Q23.8625 246.78638 24.55 246.09888Q25.2375 245.41138 25.2375 244.39575Q25.2375 243.427 24.596874 242.802Q23.971874 242.177 22.9875 242.177Q22.596874 242.177 22.003124 242.33325L22.159374 241.09888Q22.3 241.1145 22.378124 241.1145Q23.284374 241.1145 24.003124 240.64575Q24.721874 240.177 24.721874 239.19263Q24.721874 238.427 24.190624 237.927Q23.675 237.41138 22.846874 237.41138Q22.01875 237.41138 21.471874 237.927Q20.925 238.44263 20.76875 239.47388L19.3625 239.22388Q19.628124 237.802 20.534374 237.03638Q21.45625 236.25513 22.815624 236.25513Q23.753124 236.25513 24.534374 236.66138Q25.33125 237.052 25.7375 237.75513Q26.159374 238.44263 26.159374 239.22388Q26.159374 239.97388 25.753124 240.58325Q25.3625 241.19263 24.58125 241.552Q25.596874 241.78638 26.159374 242.52075Q26.721874 243.25513 26.721874 244.3645Q26.721874 245.8645 25.628124 246.91138Q24.534374 247.95825 22.8625 247.95825Q21.3625 247.95825 20.3625 247.06763Q19.3625 246.16138 19.221874 244.72388ZM33.51875 247.75513L32.1125 247.75513L32.1125 238.78638Q31.596874 239.27075 30.76875 239.75513Q29.95625 240.2395 29.3 240.4895L29.3 239.13013Q30.471874 238.56763 31.346874 237.78638Q32.2375 236.9895 32.6125 236.25513L33.51875 236.25513L33.51875 247.75513ZM38.003124 247.75513L38.003124 246.14575L39.6125 246.14575L39.6125 247.75513L38.003124 247.75513ZM41.221874 244.72388L42.628124 244.53638Q42.878124 245.7395 43.45625 246.27075Q44.034374 246.78638 44.878124 246.78638Q45.8625 246.78638 46.55 246.09888Q47.2375 245.41138 47.2375 244.39575Q47.2375 243.427 46.596874 242.802Q45.971874 242.177 44.9875 242.177Q44.596874 242.177 44.003124 242.33325L44.159374 241.09888Q44.3 241.1145 44.378124 241.1145Q45.284374 241.1145 46.003124 240.64575Q46.721874 240.177 46.721874 239.19263Q46.721874 238.427 46.190624 237.927Q45.675 237.41138 44.846874 237.41138Q44.01875 237.41138 43.471874 237.927Q42.925 238.44263 42.76875 239.47388L41.3625 239.22388Q41.628124 237.802 42.534374 237.03638Q43.45625 236.25513 44.815624 236.25513Q45.753124 236.25513 46.534374 236.66138Q47.33125 237.052 47.7375 237.75513Q48.159374 238.44263 48.159374 239.22388Q48.159374 239.97388 47.753124 240.58325Q47.3625 241.19263 46.58125 241.552Q47.596874 241.78638 48.159374 242.52075Q48.721874 243.25513 48.721874 244.3645Q48.721874 245.8645 47.628124 246.91138Q46.534374 247.95825 44.8625 247.95825Q43.3625 247.95825 42.3625 247.06763Q41.3625 246.16138 41.221874 244.72388ZM50.4875 239.052Q50.4875 237.81763 51.096874 236.95825Q51.721874 236.09888 52.89375 236.09888Q53.971874 236.09888 54.675 236.88013Q55.378124 237.64575 55.378124 239.13013Q55.378124 240.58325 54.659374 241.38013Q53.95625 242.16138 52.909374 242.16138Q51.8625 242.16138 51.175 241.39575Q50.4875 240.6145 50.4875 239.052ZM52.925 237.06763Q52.409374 237.06763 52.05 237.52075Q51.70625 237.97388 51.70625 239.19263Q51.70625 240.28638 52.05 240.7395Q52.409374 241.19263 52.925 241.19263Q53.45625 241.19263 53.8 240.7395Q54.159374 240.28638 54.159374 239.08325Q54.159374 237.97388 53.8 237.52075Q53.45625 237.06763 52.925 237.06763ZM52.940624 248.177L59.20625 236.09888L60.346874 236.09888L54.096874 248.177L52.940624 248.177ZM57.89375 245.06763Q57.89375 243.83325 58.503124 242.97388Q59.128124 242.1145 60.3 242.1145Q61.378124 242.1145 62.08125 242.89575Q62.8 243.66138 62.8 245.14575Q62.8 246.59888 62.08125 247.39575Q61.3625 248.177 60.315624 248.177Q59.26875 248.177 58.58125 247.39575Q57.89375 246.6145 57.89375 245.06763ZM60.346874 243.08325Q59.815624 243.08325 59.45625 243.53638Q59.1125 243.9895 59.1125 245.20825Q59.1125 246.302 59.45625 246.75513Q59.815624 247.20825 60.33125 247.20825Q60.878124 247.20825 61.221874 246.75513Q61.565624 246.302 61.565624 245.09888Q61.565624 243.9895 61.20625 243.53638Q60.8625 243.08325 60.346874 243.08325Z" fill-rule="nonzero"/><path stroke="#757575" stroke-width="1.0" stroke-linecap="butt" d="M18.55 231.25513L145.23334 231.25513L161.38725 231.25513" fill-rule="nonzero"/><path fill="#9e9e9e" d="M163.38725 231.25513C163.38725 230.15056 162.49182 229.25513 161.38725 229.25513C160.28268 229.25513 159.38725 230.15056 159.38725 231.25513C159.38725 232.3597 160.28268 233.25513 161.38725 233.25513C162.49182 233.25513 163.38725 232.3597 163.38725 231.25513" fill-rule="nonzero"/><path fill="#efefef" d="M551.6375 69.916664L551.6375 58.46354L553.91876 58.46354L556.6375 66.572914Q557.0125 67.697914 557.1844 68.260414Q557.3719 67.635414 557.79376 66.43229L560.52814 58.46354L562.575 58.46354L562.575 69.916664L561.10626 69.916664L561.10626 60.322914L557.77814 69.916664L556.41876 69.916664L553.10626 60.166664L553.10626 69.916664L551.6375 69.916664ZM569.91876 68.885414Q569.1375 69.55729 568.41876 69.83854Q567.7 70.104164 566.8719 70.104164Q565.4969 70.104164 564.7625 69.43229Q564.02814 68.760414 564.02814 67.729164Q564.02814 67.11979 564.3094 66.61979Q564.59064 66.104164 565.02814 65.80729Q565.48126 65.49479 566.04376 65.33854Q566.46564 65.229164 567.29376 65.135414Q568.9969 64.93229 569.8094 64.65104Q569.8094 64.354164 569.8094 64.27604Q569.8094 63.416664 569.41876 63.072914Q568.8719 62.58854 567.8094 62.58854Q566.825 62.58854 566.34064 62.947914Q565.8719 63.291664 565.65314 64.166664L564.27814 63.979164Q564.46564 63.104164 564.8875 62.55729Q565.325 62.010414 566.1375 61.729164Q566.95 61.43229 568.0125 61.43229Q569.075 61.43229 569.73126 61.68229Q570.40314 61.93229 570.71564 62.30729Q571.02814 62.68229 571.15314 63.260414Q571.23126 63.61979 571.23126 64.55729L571.23126 66.43229Q571.23126 68.40104 571.3094 68.916664Q571.40314 69.43229 571.66876 69.916664L570.2 69.916664Q569.98126 69.479164 569.91876 68.885414ZM569.8094 65.74479Q569.04376 66.05729 567.5125 66.27604Q566.6375 66.40104 566.27814 66.55729Q565.91876 66.71354 565.71564 67.02604Q565.52814 67.322914 565.52814 67.68229Q565.52814 68.24479 565.95 68.61979Q566.3875 68.99479 567.2 68.99479Q568.0125 68.99479 568.6375 68.65104Q569.27814 68.291664 569.575 67.666664Q569.8094 67.197914 569.8094 66.260414L569.8094 65.74479ZM573.5125 73.104164L573.5125 61.61979L574.79376 61.61979L574.79376 62.697914Q575.2469 62.05729 575.8094 61.74479Q576.3875 61.43229 577.2 61.43229Q578.2625 61.43229 579.075 61.979164Q579.8875 62.52604 580.29376 63.52604Q580.71564 64.510414 580.71564 65.697914Q580.71564 66.979164 580.2469 67.99479Q579.79376 69.010414 578.91876 69.55729Q578.0594 70.104164 577.09064 70.104164Q576.3875 70.104164 575.825 69.80729Q575.27814 69.510414 574.91876 69.05729L574.91876 73.104164L573.5125 73.104164ZM574.77814 65.80729Q574.77814 67.416664 575.41876 68.18229Q576.075 68.947914 576.9969 68.947914Q577.9344 68.947914 578.60626 68.15104Q579.27814 67.354164 579.27814 65.697914Q579.27814 64.104164 578.6219 63.322914Q577.96564 62.52604 577.0594 62.52604Q576.16876 62.52604 575.46564 63.36979Q574.77814 64.21354 574.77814 65.80729Z" fill-rule="nonzero"/><path fill="#9e9e9e" d="M542.41876 91.916664L541.0125 91.916664L541.0125 82.947914Q540.4969 83.43229 539.66876 83.916664Q538.85626 84.40104 538.2 84.65104L538.2 83.291664Q539.3719 82.729164 540.2469 81.947914Q541.1375 81.15104 541.5125 80.416664L542.41876 80.416664L542.41876 91.916664ZM553.5125 90.55729L553.5125 91.916664L545.9344 91.916664Q545.91876 91.40104 546.10626 90.93229Q546.3875 90.166664 547.02814 89.416664Q547.66876 88.666664 548.8719 87.68229Q550.73126 86.15104 551.3875 85.260414Q552.04376 84.354164 552.04376 83.55729Q552.04376 82.729164 551.45 82.15104Q550.85626 81.572914 549.8875 81.572914Q548.8719 81.572914 548.2625 82.18229Q547.65314 82.791664 547.65314 83.86979L546.2 83.729164Q546.35626 82.104164 547.325 81.260414Q548.29376 80.416664 549.91876 80.416664Q551.575 80.416664 552.52814 81.33854Q553.4969 82.24479 553.4969 83.58854Q553.4969 84.27604 553.21564 84.947914Q552.9344 85.604164 552.27814 86.33854Q551.6219 87.072914 550.10626 88.354164Q548.84064 89.416664 548.48126 89.80729Q548.1219 90.18229 547.8875 90.55729L553.5125 90.55729ZM555.90314 91.916664L555.90314 90.30729L557.5125 90.30729L557.5125 91.916664L555.90314 91.916664ZM559.1219 88.916664L560.59064 88.791664Q560.7625 89.86979 561.35626 90.416664Q561.95 90.947914 562.79376 90.947914Q563.8094 90.947914 564.5125 90.18229Q565.21564 89.416664 565.21564 88.15104Q565.21564 86.947914 564.54376 86.260414Q563.8719 85.55729 562.77814 85.55729Q562.09064 85.55729 561.54376 85.86979Q560.9969 86.18229 560.6844 86.666664L559.3719 86.49479L560.48126 80.61979L566.16876 80.61979L566.16876 81.96354L561.60626 81.96354L560.98126 85.041664Q562.0125 84.322914 563.15314 84.322914Q564.65314 84.322914 565.6844 85.36979Q566.71564 86.40104 566.71564 88.02604Q566.71564 89.58854 565.8094 90.71354Q564.7 92.11979 562.79376 92.11979Q561.23126 92.11979 560.2469 91.24479Q559.2625 90.354164 559.1219 88.916664ZM568.3875 83.21354Q568.3875 81.979164 568.9969 81.11979Q569.6219 80.260414 570.79376 80.260414Q571.8719 80.260414 572.575 81.041664Q573.27814 81.80729 573.27814 83.291664Q573.27814 84.74479 572.5594 85.541664Q571.85626 86.322914 570.8094 86.322914Q569.7625 86.322914 569.075 85.55729Q568.3875 84.77604 568.3875 83.21354ZM570.825 81.229164Q570.3094 81.229164 569.95 81.68229Q569.60626 82.135414 569.60626 83.354164Q569.60626 84.447914 569.95 84.90104Q570.3094 85.354164 570.825 85.354164Q571.35626 85.354164 571.7 84.90104Q572.0594 84.447914 572.0594 83.24479Q572.0594 82.135414 571.7 81.68229Q571.35626 81.229164 570.825 81.229164ZM570.84064 92.33854L577.10626 80.260414L578.2469 80.260414L571.9969 92.33854L570.84064 92.33854ZM575.79376 89.229164Q575.79376 87.99479 576.40314 87.135414Q577.02814 86.27604 578.2 86.27604Q579.27814 86.27604 579.98126 87.05729Q580.7 87.822914 580.7 89.30729Q580.7 90.760414 579.98126 91.55729Q579.2625 92.33854 578.21564 92.33854Q577.16876 92.33854 576.48126 91.55729Q575.79376 90.77604 575.79376 89.229164ZM578.2469 87.24479Q577.71564 87.24479 577.35626 87.697914Q577.0125 88.15104 577.0125 89.36979Q577.0125 90.46354 577.35626 90.916664Q577.71564 91.36979 578.23126 91.36979Q578.77814 91.36979 579.1219 90.916664Q579.46564 90.46354 579.46564 89.260414Q579.46564 88.15104 579.10626 87.697914Q578.7625 87.24479 578.2469 87.24479Z" fill-rule="nonzero"/><path stroke="#757575" stroke-width="1.0" stroke-linecap="butt" d="M581.45 75.416664L454.76666 75.416664L354.084 73.112976" fill-rule="nonzero"/><path fill="#9e9e9e" d="M356.084 73.112976C356.084 72.00841 355.18857 71.112976 354.084 71.112976C352.97943 71.112976 352.084 72.00841 352.084 73.112976C352.084 74.217545 352.97943 75.112976 354.084 75.112976C355.18857 75.112976 356.084 74.217545 356.084 73.112976" fill-rule="nonzero"/><path fill="#efefef" d="M490.23126 165.03342Q490.23126 162.17404 491.7625 160.56467Q493.29376 158.95529 495.71564 158.95529Q497.29376 158.95529 498.5594 159.72092Q499.84064 160.47092 500.5125 161.83029Q501.1844 163.17404 501.1844 164.89279Q501.1844 166.64279 500.48126 168.01779Q499.77814 169.39279 498.48126 170.11154Q497.2 170.81467 495.7 170.81467Q494.09064 170.81467 492.8094 170.03342Q491.54376 169.23654 490.8875 167.89279Q490.23126 166.53342 490.23126 165.03342ZM491.79376 165.04904Q491.79376 167.12717 492.90314 168.31467Q494.0125 169.50217 495.7 169.50217Q497.40314 169.50217 498.5125 168.29904Q499.6219 167.09592 499.6219 164.89279Q499.6219 163.48654 499.1375 162.45529Q498.66876 161.40842 497.7625 160.83029Q496.85626 160.25217 495.71564 160.25217Q494.10626 160.25217 492.95 161.36154Q491.79376 162.47092 491.79376 165.04904ZM502.4969 170.61154L502.4969 162.31467L503.7625 162.31467L503.7625 163.56467Q504.2469 162.68967 504.65314 162.40842Q505.0594 162.12717 505.5594 162.12717Q506.2625 162.12717 506.9969 162.58029L506.5125 163.87717Q505.9969 163.58029 505.48126 163.58029Q505.02814 163.58029 504.65314 163.86154Q504.29376 164.12717 504.1375 164.62717Q503.90314 165.37717 503.90314 166.26779L503.90314 170.61154L502.4969 170.61154ZM510.575 169.34592L510.77814 170.59592Q510.1844 170.72092 509.71564 170.72092Q508.95 170.72092 508.52814 170.48654Q508.10626 170.23654 507.9344 169.84592Q507.7625 169.43967 507.7625 168.17404L507.7625 163.40842L506.73126 163.40842L506.73126 162.31467L507.7625 162.31467L507.7625 160.25217L509.16876 159.40842L509.16876 162.31467L510.575 162.31467L510.575 163.40842L509.16876 163.40842L509.16876 168.25217Q509.16876 168.86154 509.23126 169.03342Q509.3094 169.20529 509.48126 169.31467Q509.65314 169.40842 509.96564 169.40842Q510.2 169.40842 510.575 169.34592ZM511.5125 170.61154L511.5125 159.15842L512.91876 159.15842L512.91876 163.26779Q513.90314 162.12717 515.40314 162.12717Q516.325 162.12717 516.9969 162.48654Q517.6844 162.84592 517.96564 163.48654Q518.2625 164.12717 518.2625 165.34592L518.2625 170.61154L516.85626 170.61154L516.85626 165.34592Q516.85626 164.29904 516.40314 163.81467Q515.95 163.33029 515.10626 163.33029Q514.48126 163.33029 513.9344 163.65842Q513.3875 163.98654 513.15314 164.54904Q512.91876 165.09592 512.91876 166.06467L512.91876 170.61154L511.5125 170.61154ZM519.98126 166.45529Q519.98126 164.15842 521.2625 163.04904Q522.34064 162.12717 523.8719 162.12717Q525.59064 162.12717 526.66876 163.25217Q527.7625 164.36154 527.7625 166.34592Q527.7625 167.93967 527.27814 168.86154Q526.79376 169.78342 525.8719 170.29904Q524.96564 170.79904 523.8719 170.79904Q522.1375 170.79904 521.0594 169.68967Q519.98126 168.56467 519.98126 166.45529ZM521.4344 166.45529Q521.4344 168.04904 522.1219 168.84592Q522.825 169.64279 523.8719 169.64279Q524.91876 169.64279 525.60626 168.84592Q526.3094 168.04904 526.3094 166.40842Q526.3094 164.87717 525.60626 164.08029Q524.91876 163.28342 523.8719 163.28342Q522.825 163.28342 522.1219 164.08029Q521.4344 164.86154 521.4344 166.45529ZM529.2469 171.29904L530.6219 171.50217Q530.7 172.14279 531.09064 172.42404Q531.6219 172.81467 532.52814 172.81467Q533.4969 172.81467 534.02814 172.42404Q534.5594 172.03342 534.7469 171.33029Q534.85626 170.90842 534.85626 169.51779Q533.9344 170.61154 532.5594 170.61154Q530.84064 170.61154 529.90314 169.37717Q528.96564 168.14279 528.96564 166.40842Q528.96564 165.22092 529.3875 164.22092Q529.825 163.22092 530.6375 162.67404Q531.46564 162.12717 532.5594 162.12717Q534.02814 162.12717 534.98126 163.31467L534.98126 162.31467L536.27814 162.31467L536.27814 169.48654Q536.27814 171.42404 535.8875 172.23654Q535.4969 173.04904 534.6375 173.51779Q533.77814 173.98654 532.52814 173.98654Q531.04376 173.98654 530.1219 173.31467Q529.21564 172.64279 529.2469 171.29904ZM530.41876 166.31467Q530.41876 167.93967 531.0594 168.68967Q531.71564 169.43967 532.6844 169.43967Q533.65314 169.43967 534.3094 168.70529Q534.96564 167.95529 534.96564 166.36154Q534.96564 164.83029 534.29376 164.06467Q533.6219 163.28342 532.66876 163.28342Q531.73126 163.28342 531.075 164.04904Q530.41876 164.81467 530.41876 166.31467ZM538.4969 170.61154L538.4969 162.31467L539.7625 162.31467L539.7625 163.56467Q540.2469 162.68967 540.65314 162.40842Q541.0594 162.12717 541.5594 162.12717Q542.2625 162.12717 542.9969 162.58029L542.5125 163.87717Q541.9969 163.58029 541.48126 163.58029Q541.02814 163.58029 540.65314 163.86154Q540.29376 164.12717 540.1375 164.62717Q539.90314 165.37717 539.90314 166.26779L539.90314 170.61154L538.4969 170.61154ZM548.91876 169.58029Q548.1375 170.25217 547.41876 170.53342Q546.7 170.79904 545.8719 170.79904Q544.4969 170.79904 543.7625 170.12717Q543.02814 169.45529 543.02814 168.42404Q543.02814 167.81467 543.3094 167.31467Q543.59064 166.79904 544.02814 166.50217Q544.48126 166.18967 545.04376 166.03342Q545.46564 165.92404 546.29376 165.83029Q547.9969 165.62717 548.8094 165.34592Q548.8094 165.04904 548.8094 164.97092Q548.8094 164.11154 548.41876 163.76779Q547.8719 163.28342 546.8094 163.28342Q545.825 163.28342 545.34064 163.64279Q544.8719 163.98654 544.65314 164.86154L543.27814 164.67404Q543.46564 163.79904 543.8875 163.25217Q544.325 162.70529 545.1375 162.42404Q545.95 162.12717 547.0125 162.12717Q548.075 162.12717 548.73126 162.37717Q549.40314 162.62717 549.71564 163.00217Q550.02814 163.37717 550.15314 163.95529Q550.23126 164.31467 550.23126 165.25217L550.23126 167.12717Q550.23126 169.09592 550.3094 169.61154Q550.40314 170.12717 550.66876 170.61154L549.2 170.61154Q548.98126 170.17404 548.91876 169.58029ZM548.8094 166.43967Q548.04376 166.75217 546.5125 166.97092Q545.6375 167.09592 545.27814 167.25217Q544.91876 167.40842 544.71564 167.72092Q544.52814 168.01779 544.52814 168.37717Q544.52814 168.93967 544.95 169.31467Q545.3875 169.68967 546.2 169.68967Q547.0125 169.68967 547.6375 169.34592Q548.27814 168.98654 548.575 168.36154Q548.8094 167.89279 548.8094 166.95529L548.8094 166.43967ZM552.5125 173.79904L552.5125 162.31467L553.79376 162.31467L553.79376 163.39279Q554.2469 162.75217 554.8094 162.43967Q555.3875 162.12717 556.2 162.12717Q557.2625 162.12717 558.075 162.67404Q558.8875 163.22092 559.29376 164.22092Q559.71564 165.20529 559.71564 166.39279Q559.71564 167.67404 559.2469 168.68967Q558.79376 169.70529 557.91876 170.25217Q557.0594 170.79904 556.09064 170.79904Q555.3875 170.79904 554.825 170.50217Q554.27814 170.20529 553.91876 169.75217L553.91876 173.79904L552.5125 173.79904ZM553.77814 166.50217Q553.77814 168.11154 554.41876 168.87717Q555.075 169.64279 555.9969 169.64279Q556.9344 169.64279 557.60626 168.84592Q558.27814 168.04904 558.27814 166.39279Q558.27814 164.79904 557.6219 164.01779Q556.96564 163.22092 556.0594 163.22092Q555.16876 163.22092 554.46564 164.06467Q553.77814 164.90842 553.77814 166.50217ZM561.5125 170.61154L561.5125 159.15842L562.91876 159.15842L562.91876 163.26779Q563.90314 162.12717 565.40314 162.12717Q566.325 162.12717 566.9969 162.48654Q567.6844 162.84592 567.96564 163.48654Q568.2625 164.12717 568.2625 165.34592L568.2625 170.61154L566.85626 170.61154L566.85626 165.34592Q566.85626 164.29904 566.40314 163.81467Q565.95 163.33029 565.10626 163.33029Q564.48126 163.33029 563.9344 163.65842Q563.3875 163.98654 563.15314 164.54904Q562.91876 165.09592 562.91876 166.06467L562.91876 170.61154L561.5125 170.61154ZM570.5125 160.76779L570.5125 159.15842L571.91876 159.15842L571.91876 160.76779L570.5125 160.76779ZM570.5125 170.61154L570.5125 162.31467L571.91876 162.31467L571.91876 170.61154L570.5125 170.61154ZM579.91876 167.56467L581.3094 167.75217Q581.075 169.17404 580.1375 169.98654Q579.21564 170.79904 577.85626 170.79904Q576.15314 170.79904 575.10626 169.68967Q574.075 168.56467 574.075 166.48654Q574.075 165.14279 574.5125 164.14279Q574.96564 163.12717 575.8719 162.62717Q576.79376 162.12717 577.85626 162.12717Q579.21564 162.12717 580.075 162.81467Q580.9344 163.48654 581.16876 164.75217L579.8094 164.95529Q579.60626 164.12717 579.10626 163.70529Q578.6219 163.28342 577.91876 163.28342Q576.85626 163.28342 576.1844 164.04904Q575.52814 164.79904 575.52814 166.45529Q575.52814 168.12717 576.16876 168.89279Q576.8094 169.64279 577.84064 169.64279Q578.66876 169.64279 579.21564 169.14279Q579.77814 168.62717 579.91876 167.56467Z" fill-rule="nonzero"/><path fill="#9e9e9e" d="M542.41876 192.61154L541.0125 192.61154L541.0125 183.64279Q540.4969 184.12717 539.66876 184.61154Q538.85626 185.09592 538.2 185.34592L538.2 183.98654Q539.3719 183.42404 540.2469 182.64279Q541.1375 181.84592 541.5125 181.11154L542.41876 181.11154L542.41876 192.61154ZM548.27814 186.39279Q547.40314 186.08029 546.98126 185.48654Q546.5594 184.89279 546.5594 184.06467Q546.5594 182.81467 547.45 181.97092Q548.35626 181.11154 549.85626 181.11154Q551.35626 181.11154 552.2625 181.98654Q553.1844 182.84592 553.1844 184.09592Q553.1844 184.89279 552.7625 185.48654Q552.34064 186.08029 551.4969 186.39279Q552.54376 186.73654 553.09064 187.50217Q553.65314 188.26779 553.65314 189.33029Q553.65314 190.79904 552.60626 191.81467Q551.575 192.81467 549.8719 192.81467Q548.1844 192.81467 547.1375 191.81467Q546.10626 190.79904 546.10626 189.29904Q546.10626 188.17404 546.66876 187.42404Q547.23126 186.67404 548.27814 186.39279ZM547.9969 184.01779Q547.9969 184.83029 548.5125 185.34592Q549.04376 185.86154 549.8875 185.86154Q550.7 185.86154 551.21564 185.34592Q551.73126 184.83029 551.73126 184.09592Q551.73126 183.31467 551.2 182.79904Q550.66876 182.26779 549.8719 182.26779Q549.0594 182.26779 548.52814 182.78342Q547.9969 183.29904 547.9969 184.01779ZM547.54376 189.29904Q547.54376 189.90842 547.825 190.47092Q548.1219 191.03342 548.6844 191.34592Q549.2469 191.64279 549.8875 191.64279Q550.90314 191.64279 551.5594 191.00217Q552.21564 190.34592 552.21564 189.34592Q552.21564 188.33029 551.52814 187.67404Q550.85626 187.00217 549.84064 187.00217Q548.85626 187.00217 548.2 187.65842Q547.54376 188.31467 547.54376 189.29904ZM555.90314 192.61154L555.90314 191.00217L557.5125 191.00217L557.5125 192.61154L555.90314 192.61154ZM561.27814 186.39279Q560.40314 186.08029 559.98126 185.48654Q559.5594 184.89279 559.5594 184.06467Q559.5594 182.81467 560.45 181.97092Q561.35626 181.11154 562.85626 181.11154Q564.35626 181.11154 565.2625 181.98654Q566.1844 182.84592 566.1844 184.09592Q566.1844 184.89279 565.7625 185.48654Q565.34064 186.08029 564.4969 186.39279Q565.54376 186.73654 566.09064 187.50217Q566.65314 188.26779 566.65314 189.33029Q566.65314 190.79904 565.60626 191.81467Q564.575 192.81467 562.8719 192.81467Q561.1844 192.81467 560.1375 191.81467Q559.10626 190.79904 559.10626 189.29904Q559.10626 188.17404 559.66876 187.42404Q560.23126 186.67404 561.27814 186.39279ZM560.9969 184.01779Q560.9969 184.83029 561.5125 185.34592Q562.04376 185.86154 562.8875 185.86154Q563.7 185.86154 564.21564 185.34592Q564.73126 184.83029 564.73126 184.09592Q564.73126 183.31467 564.2 182.79904Q563.66876 182.26779 562.8719 182.26779Q562.0594 182.26779 561.52814 182.78342Q560.9969 183.29904 560.9969 184.01779ZM560.54376 189.29904Q560.54376 189.90842 560.825 190.47092Q561.1219 191.03342 561.6844 191.34592Q562.2469 191.64279 562.8875 191.64279Q563.90314 191.64279 564.5594 191.00217Q565.21564 190.34592 565.21564 189.34592Q565.21564 188.33029 564.52814 187.67404Q563.85626 187.00217 562.84064 187.00217Q561.85626 187.00217 561.2 187.65842Q560.54376 188.31467 560.54376 189.29904ZM568.3875 183.90842Q568.3875 182.67404 568.9969 181.81467Q569.6219 180.95529 570.79376 180.95529Q571.8719 180.95529 572.575 181.73654Q573.27814 182.50217 573.27814 183.98654Q573.27814 185.43967 572.5594 186.23654Q571.85626 187.01779 570.8094 187.01779Q569.7625 187.01779 569.075 186.25217Q568.3875 185.47092 568.3875 183.90842ZM570.825 181.92404Q570.3094 181.92404 569.95 182.37717Q569.60626 182.83029 569.60626 184.04904Q569.60626 185.14279 569.95 185.59592Q570.3094 186.04904 570.825 186.04904Q571.35626 186.04904 571.7 185.59592Q572.0594 185.14279 572.0594 183.93967Q572.0594 182.83029 571.7 182.37717Q571.35626 181.92404 570.825 181.92404ZM570.84064 193.03342L577.10626 180.95529L578.2469 180.95529L571.9969 193.03342L570.84064 193.03342ZM575.79376 189.92404Q575.79376 188.68967 576.40314 187.83029Q577.02814 186.97092 578.2 186.97092Q579.27814 186.97092 579.98126 187.75217Q580.7 188.51779 580.7 190.00217Q580.7 191.45529 579.98126 192.25217Q579.2625 193.03342 578.21564 193.03342Q577.16876 193.03342 576.48126 192.25217Q575.79376 191.47092 575.79376 189.92404ZM578.2469 187.93967Q577.71564 187.93967 577.35626 188.39279Q577.0125 188.84592 577.0125 190.06467Q577.0125 191.15842 577.35626 191.61154Q577.71564 192.06467 578.23126 192.06467Q578.77814 192.06467 579.1219 191.61154Q579.46564 191.15842 579.46564 189.95529Q579.46564 188.84592 579.10626 188.39279Q578.7625 187.93967 578.2469 187.93967Z" fill-rule="nonzero"/><path stroke="#757575" stroke-width="1.0" stroke-linecap="butt" d="M581.45 176.11154L454.76666 176.11154L438.61276 176.11154" fill-rule="nonzero"/><path fill="#9e9e9e" d="M440.61276 176.11154C440.61276 175.00697 439.71732 174.11154 438.61276 174.11154C437.50818 174.11154 436.61276 175.00697 436.61276 176.11154C436.61276 177.21611 437.50818 178.11154 438.61276 178.11154C439.71732 178.11154 440.61276 177.21611 440.61276 176.11154" fill-rule="nonzero"/><path fill="#efefef" d="M498.6844 326.45L498.6844 314.9969L503.0125 314.9969Q504.15314 314.9969 504.7469 315.10626Q505.59064 315.2469 506.15314 315.6375Q506.73126 316.02814 507.075 316.7469Q507.4344 317.45 507.4344 318.3094Q507.4344 319.7625 506.4969 320.77814Q505.575 321.79376 503.1375 321.79376L500.2 321.79376L500.2 326.45L498.6844 326.45ZM500.2 320.4344L503.16876 320.4344Q504.6375 320.4344 505.2469 319.8875Q505.8719 319.34064 505.8719 318.35626Q505.8719 317.6375 505.4969 317.1219Q505.1375 316.60626 504.54376 316.45Q504.16876 316.34064 503.1375 316.34064L500.2 316.34064L500.2 320.4344ZM515.1844 323.77814L516.6375 323.95Q516.29376 325.23126 515.35626 325.9344Q514.4344 326.6375 512.9969 326.6375Q511.16876 326.6375 510.10626 325.5125Q509.04376 324.3875 509.04376 322.3719Q509.04376 320.27814 510.1219 319.1219Q511.2 317.96564 512.91876 317.96564Q514.575 317.96564 515.6219 319.10626Q516.6844 320.23126 516.6844 322.27814Q516.6844 322.40314 516.6844 322.65314L510.4969 322.65314Q510.575 324.02814 511.2625 324.7625Q511.96564 325.48126 512.9969 325.48126Q513.77814 325.48126 514.325 325.075Q514.8719 324.66876 515.1844 323.77814ZM510.575 321.4969L515.2 321.4969Q515.10626 320.45 514.66876 319.9344Q513.9969 319.1219 512.9344 319.1219Q511.96564 319.1219 511.29376 319.77814Q510.6375 320.41876 510.575 321.4969ZM518.4969 326.45L518.4969 318.15314L519.7625 318.15314L519.7625 319.40314Q520.2469 318.52814 520.65314 318.2469Q521.0594 317.96564 521.5594 317.96564Q522.2625 317.96564 522.9969 318.41876L522.5125 319.71564Q521.9969 319.41876 521.48126 319.41876Q521.02814 319.41876 520.65314 319.7Q520.29376 319.96564 520.1375 320.46564Q519.90314 321.21564 519.90314 322.10626L519.90314 326.45L518.4969 326.45ZM522.95 323.96564L524.34064 323.7469Q524.45 324.59064 524.98126 325.04376Q525.52814 325.48126 526.48126 325.48126Q527.45 325.48126 527.91876 325.09064Q528.3875 324.6844 528.3875 324.15314Q528.3875 323.6844 527.98126 323.40314Q527.6844 323.21564 526.54376 322.9344Q524.9969 322.54376 524.3875 322.2625Q523.79376 321.96564 523.48126 321.46564Q523.1844 320.96564 523.1844 320.35626Q523.1844 319.79376 523.4344 319.325Q523.6844 318.85626 524.1219 318.54376Q524.45 318.29376 525.0125 318.1375Q525.59064 317.96564 526.23126 317.96564Q527.21564 317.96564 527.95 318.2469Q528.6844 318.52814 529.02814 319.0125Q529.3875 319.48126 529.52814 320.29376L528.15314 320.48126Q528.0594 319.84064 527.60626 319.48126Q527.15314 319.1219 526.34064 319.1219Q525.3719 319.1219 524.95 319.45Q524.54376 319.7625 524.54376 320.1844Q524.54376 320.46564 524.71564 320.6844Q524.8875 320.90314 525.2469 321.0594Q525.46564 321.1375 526.4969 321.41876Q527.98126 321.8094 528.575 322.075Q529.16876 322.325 529.4969 322.8094Q529.84064 323.29376 529.84064 324.0125Q529.84064 324.71564 529.41876 325.34064Q529.0125 325.95 528.23126 326.29376Q527.46564 326.6375 526.4969 326.6375Q524.8719 326.6375 524.02814 325.96564Q523.1844 325.29376 522.95 323.96564ZM531.5125 329.6375L531.5125 318.15314L532.79376 318.15314L532.79376 319.23126Q533.2469 318.59064 533.8094 318.27814Q534.3875 317.96564 535.2 317.96564Q536.2625 317.96564 537.075 318.5125Q537.8875 319.0594 538.29376 320.0594Q538.71564 321.04376 538.71564 322.23126Q538.71564 323.5125 538.2469 324.52814Q537.79376 325.54376 536.91876 326.09064Q536.0594 326.6375 535.09064 326.6375Q534.3875 326.6375 533.825 326.34064Q533.27814 326.04376 532.91876 325.59064L532.91876 329.6375L531.5125 329.6375ZM532.77814 322.34064Q532.77814 323.95 533.41876 324.71564Q534.075 325.48126 534.9969 325.48126Q535.9344 325.48126 536.60626 324.6844Q537.27814 323.8875 537.27814 322.23126Q537.27814 320.6375 536.6219 319.85626Q535.96564 319.0594 535.0594 319.0594Q534.16876 319.0594 533.46564 319.90314Q532.77814 320.7469 532.77814 322.34064ZM546.1844 323.77814L547.6375 323.95Q547.29376 325.23126 546.35626 325.9344Q545.4344 326.6375 543.9969 326.6375Q542.16876 326.6375 541.10626 325.5125Q540.04376 324.3875 540.04376 322.3719Q540.04376 320.27814 541.1219 319.1219Q542.2 317.96564 543.91876 317.96564Q545.575 317.96564 546.6219 319.10626Q547.6844 320.23126 547.6844 322.27814Q547.6844 322.40314 547.6844 322.65314L541.4969 322.65314Q541.575 324.02814 542.2625 324.7625Q542.96564 325.48126 543.9969 325.48126Q544.77814 325.48126 545.325 325.075Q545.8719 324.66876 546.1844 323.77814ZM541.575 321.4969L546.2 321.4969Q546.10626 320.45 545.66876 319.9344Q544.9969 319.1219 543.9344 319.1219Q542.96564 319.1219 542.29376 319.77814Q541.6375 320.41876 541.575 321.4969ZM554.91876 323.40314L556.3094 323.59064Q556.075 325.0125 555.1375 325.825Q554.21564 326.6375 552.85626 326.6375Q551.15314 326.6375 550.10626 325.52814Q549.075 324.40314 549.075 322.325Q549.075 320.98126 549.5125 319.98126Q549.96564 318.96564 550.8719 318.46564Q551.79376 317.96564 552.85626 317.96564Q554.21564 317.96564 555.075 318.65314Q555.9344 319.325 556.16876 320.59064L554.8094 320.79376Q554.60626 319.96564 554.10626 319.54376Q553.6219 319.1219 552.91876 319.1219Q551.85626 319.1219 551.1844 319.8875Q550.52814 320.6375 550.52814 322.29376Q550.52814 323.96564 551.16876 324.73126Q551.8094 325.48126 552.84064 325.48126Q553.66876 325.48126 554.21564 324.98126Q554.77814 324.46564 554.91876 323.40314ZM560.575 325.1844L560.77814 326.4344Q560.1844 326.5594 559.71564 326.5594Q558.95 326.5594 558.52814 326.325Q558.10626 326.075 557.9344 325.6844Q557.7625 325.27814 557.7625 324.0125L557.7625 319.2469L556.73126 319.2469L556.73126 318.15314L557.7625 318.15314L557.7625 316.09064L559.16876 315.2469L559.16876 318.15314L560.575 318.15314L560.575 319.2469L559.16876 319.2469L559.16876 324.09064Q559.16876 324.7 559.23126 324.8719Q559.3094 325.04376 559.48126 325.15314Q559.65314 325.2469 559.96564 325.2469Q560.2 325.2469 560.575 325.1844ZM561.5125 316.60626L561.5125 314.9969L562.91876 314.9969L562.91876 316.60626L561.5125 316.60626ZM561.5125 326.45L561.5125 318.15314L562.91876 318.15314L562.91876 326.45L561.5125 326.45ZM567.8094 326.45L564.65314 318.15314L566.1375 318.15314L567.91876 323.1219Q568.21564 323.91876 568.45 324.79376Q568.6375 324.1375 568.98126 323.21564L570.825 318.15314L572.2625 318.15314L569.1219 326.45L567.8094 326.45ZM579.1844 323.77814L580.6375 323.95Q580.29376 325.23126 579.35626 325.9344Q578.4344 326.6375 576.9969 326.6375Q575.16876 326.6375 574.10626 325.5125Q573.04376 324.3875 573.04376 322.3719Q573.04376 320.27814 574.1219 319.1219Q575.2 317.96564 576.91876 317.96564Q578.575 317.96564 579.6219 319.10626Q580.6844 320.23126 580.6844 322.27814Q580.6844 322.40314 580.6844 322.65314L574.4969 322.65314Q574.575 324.02814 575.2625 324.7625Q575.96564 325.48126 576.9969 325.48126Q577.77814 325.48126 578.325 325.075Q578.8719 324.66876 579.1844 323.77814ZM574.575 321.4969L579.2 321.4969Q579.10626 320.45 578.66876 319.9344Q577.9969 319.1219 576.9344 319.1219Q575.96564 319.1219 575.29376 319.77814Q574.6375 320.41876 574.575 321.4969Z" fill-rule="nonzero"/><path fill="#9e9e9e" d="M544.5125 347.09064L544.5125 348.45L536.9344 348.45Q536.91876 347.9344 537.10626 347.46564Q537.3875 346.7 538.02814 345.95Q538.66876 345.2 539.8719 344.21564Q541.73126 342.6844 542.3875 341.79376Q543.04376 340.8875 543.04376 340.09064Q543.04376 339.2625 542.45 338.6844Q541.85626 338.10626 540.8875 338.10626Q539.8719 338.10626 539.2625 338.71564Q538.65314 339.325 538.65314 340.40314L537.2 340.2625Q537.35626 338.6375 538.325 337.79376Q539.29376 336.95 540.91876 336.95Q542.575 336.95 543.52814 337.8719Q544.4969 338.77814 544.4969 340.1219Q544.4969 340.8094 544.21564 341.48126Q543.9344 342.1375 543.27814 342.8719Q542.6219 343.60626 541.10626 344.8875Q539.84064 345.95 539.48126 346.34064Q539.1219 346.71564 538.8875 347.09064L544.5125 347.09064ZM546.1219 345.45L547.59064 345.325Q547.7625 346.40314 548.35626 346.95Q548.95 347.48126 549.79376 347.48126Q550.8094 347.48126 551.5125 346.71564Q552.21564 345.95 552.21564 344.6844Q552.21564 343.48126 551.54376 342.79376Q550.8719 342.09064 549.77814 342.09064Q549.09064 342.09064 548.54376 342.40314Q547.9969 342.71564 547.6844 343.2L546.3719 343.02814L547.48126 337.15314L553.16876 337.15314L553.16876 338.4969L548.60626 338.4969L547.98126 341.575Q549.0125 340.85626 550.15314 340.85626Q551.65314 340.85626 552.6844 341.90314Q553.71564 342.9344 553.71564 344.5594Q553.71564 346.1219 552.8094 347.2469Q551.7 348.65314 549.79376 348.65314Q548.23126 348.65314 547.2469 347.77814Q546.2625 346.8875 546.1219 345.45ZM555.90314 348.45L555.90314 346.84064L557.5125 346.84064L557.5125 348.45L555.90314 348.45ZM559.1219 342.79376Q559.1219 340.7625 559.52814 339.52814Q559.95 338.29376 560.77814 337.6219Q561.60626 336.95 562.85626 336.95Q563.77814 336.95 564.46564 337.325Q565.16876 337.6844 565.6219 338.3875Q566.075 339.09064 566.325 340.09064Q566.59064 341.09064 566.59064 342.79376Q566.59064 344.8094 566.16876 346.0594Q565.7625 347.29376 564.9344 347.98126Q564.10626 348.65314 562.85626 348.65314Q561.2 348.65314 560.2469 347.45Q559.1219 346.02814 559.1219 342.79376ZM560.5594 342.79376Q560.5594 345.6219 561.21564 346.5594Q561.8875 347.48126 562.85626 347.48126Q563.825 347.48126 564.48126 346.54376Q565.1375 345.60626 565.1375 342.79376Q565.1375 339.96564 564.48126 339.04376Q563.825 338.10626 562.84064 338.10626Q561.8719 338.10626 561.29376 338.9344Q560.5594 339.98126 560.5594 342.79376ZM568.3875 339.7469Q568.3875 338.5125 568.9969 337.65314Q569.6219 336.79376 570.79376 336.79376Q571.8719 336.79376 572.575 337.575Q573.27814 338.34064 573.27814 339.825Q573.27814 341.27814 572.5594 342.075Q571.85626 342.85626 570.8094 342.85626Q569.7625 342.85626 569.075 342.09064Q568.3875 341.3094 568.3875 339.7469ZM570.825 337.7625Q570.3094 337.7625 569.95 338.21564Q569.60626 338.66876 569.60626 339.8875Q569.60626 340.98126 569.95 341.4344Q570.3094 341.8875 570.825 341.8875Q571.35626 341.8875 571.7 341.4344Q572.0594 340.98126 572.0594 339.77814Q572.0594 338.66876 571.7 338.21564Q571.35626 337.7625 570.825 337.7625ZM570.84064 348.8719L577.10626 336.79376L578.2469 336.79376L571.9969 348.8719L570.84064 348.8719ZM575.79376 345.7625Q575.79376 344.52814 576.40314 343.66876Q577.02814 342.8094 578.2 342.8094Q579.27814 342.8094 579.98126 343.59064Q580.7 344.35626 580.7 345.84064Q580.7 347.29376 579.98126 348.09064Q579.2625 348.8719 578.21564 348.8719Q577.16876 348.8719 576.48126 348.09064Q575.79376 347.3094 575.79376 345.7625ZM578.2469 343.77814Q577.71564 343.77814 577.35626 344.23126Q577.0125 344.6844 577.0125 345.90314Q577.0125 346.9969 577.35626 347.45Q577.71564 347.90314 578.23126 347.90314Q578.77814 347.90314 579.1219 347.45Q579.46564 346.9969 579.46564 345.79376Q579.46564 344.6844 579.10626 344.23126Q578.7625 343.77814 578.2469 343.77814Z" fill-rule="nonzero"/><path stroke="#757575" stroke-width="1.0" stroke-linecap="butt" d="M581.45 331.95L454.76666 331.95L354.084 334.2537" fill-rule="nonzero"/><path fill="#9e9e9e" d="M356.084 334.2537C356.084 333.1491 355.18857 332.2537 354.084 332.2537C352.97943 332.2537 352.084 333.1491 352.084 334.2537C352.084 335.35825 352.97943 336.2537 354.084 336.2537C355.18857 336.2537 356.084 335.35825 356.084 334.2537" fill-rule="nonzero"/><path fill="#f3f3f3" d="M265.98438 37.55L265.98438 23.2375L268.84375 23.2375L272.21875 33.3625Q272.6875 34.784374 272.90625 35.4875Q273.15625 34.70625 273.67188 33.190624L277.09375 23.2375L279.64062 23.2375L279.64062 37.55L277.82812 37.55L277.82812 25.565624L273.65625 37.55L271.95312 37.55L267.8125 25.3625L267.8125 37.55L265.98438 37.55ZM289.92188 34.20625L291.73438 34.440624Q291.3125 36.01875 290.14062 36.909374Q288.98438 37.784374 287.17188 37.784374Q284.90625 37.784374 283.5625 36.39375Q282.23438 34.9875 282.23438 32.45625Q282.23438 29.83125 283.57812 28.39375Q284.92188 26.940624 287.07812 26.940624Q289.15625 26.940624 290.46875 28.3625Q291.79688 29.76875 291.79688 32.346874Q291.79688 32.503124 291.78125 32.815624L284.04688 32.815624Q284.14062 34.51875 285.01562 35.425Q285.89062 36.33125 287.1875 36.33125Q288.15625 36.33125 288.82812 35.83125Q289.51562 35.315624 289.92188 34.20625ZM284.14062 31.3625L289.9375 31.3625Q289.82812 30.065624 289.28125 29.409374Q288.4375 28.39375 287.09375 28.39375Q285.89062 28.39375 285.0625 29.20625Q284.23438 30.003124 284.14062 31.3625ZM300.54688 37.55L300.54688 36.2375Q299.5625 37.784374 297.64062 37.784374Q296.40625 37.784374 295.35938 37.096874Q294.32812 36.409374 293.75 35.190624Q293.1875 33.971874 293.1875 32.378124Q293.1875 30.815624 293.70312 29.55Q294.21875 28.284374 295.25 27.6125Q296.29688 26.940624 297.5625 26.940624Q298.5 26.940624 299.23438 27.346874Q299.96875 27.7375 300.4375 28.3625L300.4375 23.2375L302.17188 23.2375L302.17188 37.55L300.54688 37.55ZM294.98438 32.378124Q294.98438 34.3625 295.82812 35.346874Q296.67188 36.33125 297.8125 36.33125Q298.96875 36.33125 299.76562 35.39375Q300.57812 34.45625 300.57812 32.51875Q300.57812 30.39375 299.75 29.39375Q298.9375 28.39375 297.73438 28.39375Q296.5625 28.39375 295.76562 29.3625Q294.98438 30.315624 294.98438 32.378124ZM304.82812 25.253124L304.82812 23.2375L306.59375 23.2375L306.59375 25.253124L304.82812 25.253124ZM304.82812 37.55L304.82812 27.175L306.59375 27.175L306.59375 37.55L304.82812 37.55ZM315.60938 37.55L315.60938 36.01875Q314.40625 37.784374 312.32812 37.784374Q311.40625 37.784374 310.60938 37.440624Q309.8125 37.08125 309.42188 36.55Q309.04688 36.01875 308.89062 35.2375Q308.78125 34.721874 308.78125 33.596874L308.78125 27.175L310.53125 27.175L310.53125 32.925Q310.53125 34.3 310.64062 34.784374Q310.8125 35.471874 311.34375 35.878124Q311.89062 36.26875 312.67188 36.26875Q313.46875 36.26875 314.15625 35.8625Q314.85938 35.45625 315.14062 34.76875Q315.4375 34.065624 315.4375 32.7375L315.4375 27.175L317.1875 27.175L317.1875 37.55L315.60938 37.55ZM319.8125 37.55L319.8125 27.175L321.39062 27.175L321.39062 28.628124Q321.875 27.878124 322.6875 27.409374Q323.5 26.940624 324.53125 26.940624Q325.6875 26.940624 326.42188 27.425Q327.15625 27.89375 327.46875 28.753124Q328.70312 26.940624 330.67188 26.940624Q332.21875 26.940624 333.04688 27.8Q333.875 28.659374 333.875 30.425L333.875 37.55L332.125 37.55L332.125 31.01875Q332.125 29.95625 331.95312 29.503124Q331.78125 29.034374 331.32812 28.753124Q330.89062 28.471874 330.28125 28.471874Q329.1875 28.471874 328.45312 29.20625Q327.73438 29.925 327.73438 31.51875L327.73438 37.55L325.98438 37.55L325.98438 30.815624Q325.98438 29.64375 325.54688 29.065624Q325.125 28.471874 324.14062 28.471874Q323.40625 28.471874 322.76562 28.8625Q322.14062 29.253124 321.85938 30.003124Q321.57812 30.753124 321.57812 32.175L321.57812 37.55L319.8125 37.55Z" fill-rule="nonzero"/></svg>