<svg version="1.1" viewBox="0.0 0.0 600.0 371.0" fill="none" stroke="none" stroke-linecap="square" stroke-miterlimit="10" width="600" height="371" xmlns:xlink="http://www.w3.org/1999/xlink" xmlns="http://www.w3.org/2000/svg"><path fill="#ffffff" fill-opacity="0.0" d="M0 0L600.0 0L600.0 371.0L0 371.0L0 0Z" fill-rule="nonzero"/><path fill="#304388" d="M300.0 54.916668C308.42603 54.916668 316.83685 55.63253 325.1417 57.05654L306.28543 167.02664C304.2092 166.67064 302.1065 166.49167 300.0 166.49167Z" fill-rule="nonzero"/><path fill="#e5a345" d="M250.4399 63.4146C266.35806 57.79035 283.11746 54.916668 300.0 54.916668L300.0 166.49167C295.77936 166.49167 291.5895 167.21008 287.61 168.61615Z" fill-rule="nonzero"/><path fill="#df8d43" d="M188.32498 105.39696C205.1064 86.32957 226.49042 71.87649 250.4399 63.4146L287.61 168.61615C281.62262 170.73163 276.2766 174.3449 272.08124 179.11174Z" fill-rule="nonzero"/><path fill="#d8753e" d="M152.43828 222.57935C147.0084 180.17671 160.08186 137.48737 188.32498 105.39696L272.08124 179.11174C265.02048 187.13434 261.7521 197.80667 263.10956 208.40733Z" fill-rule="nonzero"/><path fill="#cf4366" d="M325.1417 57.05654C400.5056 69.97898 453.80023 137.9283 448.3944 214.20078C442.98862 290.47324 380.6431 350.2266 304.20993 352.3904C227.77675 354.55426 162.15054 298.42383 152.43828 222.57935L263.10956 208.40733C265.53763 227.36845 281.94418 241.40106 301.0525 240.8601C320.16077 240.31915 335.74716 225.38081 337.0986 206.3127C338.45004 187.24458 325.1264 170.25725 306.28543 167.02664Z" fill-rule="nonzero"/><path fill="#ffffff" d="M345.97546 272.65973L345.97546 271.1441L354.3036 271.1441L354.3036 272.37848Q353.08484 273.69098 351.8661 275.86285Q350.66296 278.0191 350.0067 280.31598Q349.52234 281.94098 349.39734 283.86285L347.77234 283.86285Q347.8036 282.34723 348.3661 280.19098Q348.9442 278.03473 350.0067 276.03473Q351.0692 274.03473 352.27234 272.65973L345.97546 272.65973ZM355.8661 277.50348Q355.8661 275.22223 356.33484 273.8316Q356.8036 272.44098 357.72546 271.69098Q358.66296 270.92535 360.0692 270.92535Q361.10046 270.92535 361.8817 271.34723Q362.66296 271.75348 363.16296 272.55035Q363.6786 273.3316 363.97546 274.47223Q364.27234 275.59723 364.27234 277.50348Q364.27234 279.7691 363.8036 281.17535Q363.33484 282.56598 362.39734 283.3316Q361.47546 284.0816 360.0692 284.0816Q358.1942 284.0816 357.1317 282.75348Q355.8661 281.1441 355.8661 277.50348ZM357.4911 277.50348Q357.4911 280.67535 358.22546 281.73785Q358.97546 282.78473 360.0692 282.78473Q361.14734 282.78473 361.89734 281.73785Q362.64734 280.67535 362.64734 277.50348Q362.64734 274.3316 361.89734 273.28473Q361.14734 272.23785 360.0536 272.23785Q358.95984 272.23785 358.3036 273.15973Q357.4911 274.3316 357.4911 277.50348ZM366.7567 283.86285L366.7567 282.06598L368.5536 282.06598L368.5536 283.86285L366.7567 283.86285ZM370.8661 280.4566L372.45984 280.25348Q372.72546 281.59723 373.3817 282.19098Q374.03796 282.78473 374.97546 282.78473Q376.10046 282.78473 376.8661 282.0191Q377.6317 281.23785 377.6317 280.09723Q377.6317 279.00348 376.91296 278.30035Q376.20984 277.5816 375.1161 277.5816Q374.66296 277.5816 373.9911 277.7691L374.16296 276.37848Q374.3192 276.3941 374.4286 276.3941Q375.4286 276.3941 376.2411 275.86285Q377.0536 275.3316 377.0536 274.23785Q377.0536 273.36285 376.45984 272.80035Q375.8661 272.22223 374.9442 272.22223Q374.02234 272.22223 373.39734 272.80035Q372.78796 273.37848 372.6161 274.55035L371.03796 274.2691Q371.3192 272.67535 372.35046 271.80035Q373.3817 270.92535 374.91296 270.92535Q375.95984 270.92535 376.85046 271.37848Q377.7411 271.8316 378.20984 272.61285Q378.6786 273.3941 378.6786 274.2691Q378.6786 275.11285 378.22546 275.80035Q377.78796 276.47223 376.89734 276.87848Q378.03796 277.1441 378.66296 277.98785Q379.3036 278.81598 379.3036 280.05035Q379.3036 281.73785 378.0692 282.92535Q376.85046 284.09723 374.97546 284.09723Q373.27234 284.09723 372.14734 283.0816Q371.03796 282.06598 370.8661 280.4566ZM381.16296 274.06598Q381.16296 272.69098 381.85046 271.72223Q382.5536 270.75348 383.8661 270.75348Q385.08484 270.75348 385.8817 271.62848Q386.6786 272.48785 386.6786 274.17535Q386.6786 275.80035 385.8661 276.69098Q385.0692 277.56598 383.8817 277.56598Q382.72546 277.56598 381.9442 276.7066Q381.16296 275.8316 381.16296 274.06598ZM383.91296 271.84723Q383.3192 271.84723 382.9286 272.36285Q382.53796 272.86285 382.53796 274.22223Q382.53796 275.47223 382.9286 275.97223Q383.33484 276.47223 383.91296 276.47223Q384.5067 276.47223 384.89734 275.97223Q385.28796 275.4566 385.28796 274.11285Q385.28796 272.86285 384.89734 272.36285Q384.5067 271.84723 383.91296 271.84723ZM383.9286 284.3316L390.97546 270.75348L392.2567 270.75348L385.22546 284.3316L383.9286 284.3316ZM389.4911 280.8316Q389.4911 279.4566 390.1786 278.48785Q390.8817 277.5191 392.20984 277.5191Q393.4286 277.5191 394.20984 278.3941Q395.0067 279.25348 395.0067 280.94098Q395.0067 282.56598 394.20984 283.4566Q393.41296 284.3316 392.22546 284.3316Q391.0536 284.3316 390.27234 283.4566Q389.4911 282.5816 389.4911 280.8316ZM392.2567 278.61285Q391.66296 278.61285 391.27234 279.12848Q390.8817 279.62848 390.8817 281.00348Q390.8817 282.22223 391.27234 282.73785Q391.66296 283.25348 392.2411 283.25348Q392.85046 283.25348 393.2411 282.73785Q393.6317 282.22223 393.6317 280.87848Q393.6317 279.62848 393.2411 279.12848Q392.85046 278.61285 392.2567 278.61285Z" fill-rule="nonzero"/><path fill="#ffffff" d="M183.47539 180.25455L181.89726 180.25455L181.89726 170.17642Q181.31914 170.7233 180.39726 171.27017Q179.47539 171.80142 178.72539 172.08267L178.72539 170.55142Q180.05351 169.92642 181.05351 169.0358Q182.05351 168.14517 182.45976 167.31705L183.47539 167.31705L183.47539 180.25455ZM187.52226 176.8483L189.11601 176.64517Q189.38164 177.98892 190.03789 178.58267Q190.69414 179.17642 191.63164 179.17642Q192.75664 179.17642 193.52226 178.4108Q194.28789 177.62955 194.28789 176.48892Q194.28789 175.39517 193.56914 174.69205Q192.86601 173.9733 191.77226 173.9733Q191.31914 173.9733 190.64726 174.1608L190.81914 172.77017Q190.97539 172.7858 191.08476 172.7858Q192.08476 172.7858 192.89726 172.25455Q193.70976 171.7233 193.70976 170.62955Q193.70976 169.75455 193.11601 169.19205Q192.52226 168.61392 191.60039 168.61392Q190.67851 168.61392 190.05351 169.19205Q189.44414 169.77017 189.27226 170.94205L187.69414 170.6608Q187.97539 169.06705 189.00664 168.19205Q190.03789 167.31705 191.56914 167.31705Q192.61601 167.31705 193.50664 167.77017Q194.39726 168.2233 194.86601 169.00455Q195.33476 169.7858 195.33476 170.6608Q195.33476 171.50455 194.88164 172.19205Q194.44414 172.86392 193.55351 173.27017Q194.69414 173.5358 195.31914 174.37955Q195.95976 175.20767 195.95976 176.44205Q195.95976 178.12955 194.72539 179.31705Q193.50664 180.48892 191.63164 180.48892Q189.92851 180.48892 188.80351 179.4733Q187.69414 178.45767 187.52226 176.8483ZM198.41289 180.25455L198.41289 178.45767L200.20976 178.45767L200.20976 180.25455L198.41289 180.25455ZM202.52226 176.87955L204.17851 176.73892Q204.36601 177.95767 205.03789 178.56705Q205.70976 179.17642 206.66289 179.17642Q207.80351 179.17642 208.58476 178.31705Q209.38164 177.45767 209.38164 176.02017Q209.38164 174.67642 208.61601 173.89517Q207.86601 173.11392 206.63164 173.11392Q205.86601 173.11392 205.24101 173.45767Q204.63164 173.80142 204.28789 174.36392L202.80351 174.1608L204.05351 167.55142L210.45976 167.55142L210.45976 169.05142L205.31914 169.05142L204.61601 172.52017Q205.78789 171.70767 207.05351 171.70767Q208.74101 171.70767 209.89726 172.87955Q211.06914 174.05142 211.06914 175.87955Q211.06914 177.62955 210.03789 178.9108Q208.80351 180.4733 206.66289 180.4733Q204.89726 180.4733 203.78789 179.48892Q202.67851 178.50455 202.52226 176.87955ZM212.81914 170.45767Q212.81914 169.08267 213.50664 168.11392Q214.20976 167.14517 215.52226 167.14517Q216.74101 167.14517 217.53789 168.02017Q218.33476 168.87955 218.33476 170.56705Q218.33476 172.19205 217.52226 173.08267Q216.72539 173.95767 215.53789 173.95767Q214.38164 173.95767 213.60039 173.0983Q212.81914 172.2233 212.81914 170.45767ZM215.56914 168.23892Q214.97539 168.23892 214.58476 168.75455Q214.19414 169.25455 214.19414 170.61392Q214.19414 171.86392 214.58476 172.36392Q214.99101 172.86392 215.56914 172.86392Q216.16289 172.86392 216.55351 172.36392Q216.94414 171.8483 216.94414 170.50455Q216.94414 169.25455 216.55351 168.75455Q216.16289 168.23892 215.56914 168.23892ZM215.58476 180.7233L222.63164 167.14517L223.91289 167.14517L216.88164 180.7233L215.58476 180.7233ZM221.14726 177.2233Q221.14726 175.8483 221.83476 174.87955Q222.53789 173.9108 223.86601 173.9108Q225.08476 173.9108 225.86601 174.7858Q226.66289 175.64517 226.66289 177.33267Q226.66289 178.95767 225.86601 179.8483Q225.06914 180.7233 223.88164 180.7233Q222.70976 180.7233 221.92851 179.8483Q221.14726 178.9733 221.14726 177.2233ZM223.91289 175.00455Q223.31914 175.00455 222.92851 175.52017Q222.53789 176.02017 222.53789 177.39517Q222.53789 178.61392 222.92851 179.12955Q223.31914 179.64517 223.89726 179.64517Q224.50664 179.64517 224.89726 179.12955Q225.28789 178.61392 225.28789 177.27017Q225.28789 176.02017 224.89726 175.52017Q224.50664 175.00455 223.91289 175.00455Z" fill-rule="nonzero"/><path fill="#ffffff" d="M222.67862 114.41294Q221.69424 114.053566 221.20987 113.38169Q220.74112 112.709816 220.74112 111.78794Q220.74112 110.38169 221.74112 109.428566Q222.75674 108.459816 224.44424 108.459816Q226.13174 108.459816 227.14737 109.44419Q228.17862 110.41294 228.17862 111.81919Q228.17862 112.72544 227.70987 113.397316Q227.24112 114.053566 226.288 114.41294Q227.4755 114.803566 228.08487 115.66294Q228.70987 116.522316 228.70987 117.709816Q228.70987 119.366066 227.538 120.491066Q226.36612 121.616066 224.45987 121.616066Q222.55362 121.616066 221.38174 120.491066Q220.2255 119.35044 220.2255 117.66294Q220.2255 116.41294 220.8505 115.56919Q221.49112 114.709816 222.67862 114.41294ZM222.3505 111.72544Q222.3505 112.647316 222.94424 113.22544Q223.538 113.803566 224.4755 113.803566Q225.38174 113.803566 225.95987 113.22544Q226.55362 112.647316 226.55362 111.81919Q226.55362 110.94419 225.94424 110.35044Q225.3505 109.75669 224.45987 109.75669Q223.55362 109.75669 222.94424 110.334816Q222.3505 110.91294 222.3505 111.72544ZM221.8505 117.678566Q221.8505 118.35044 222.163 118.991066Q222.49112 119.616066 223.11612 119.97544Q223.75674 120.31919 224.49112 120.31919Q225.61612 120.31919 226.3505 119.584816Q227.1005 118.85044 227.1005 117.72544Q227.1005 116.584816 226.33487 115.85044Q225.56924 115.10044 224.42862 115.10044Q223.31924 115.10044 222.58487 115.834816Q221.8505 116.56919 221.8505 117.678566ZM231.13174 121.397316L231.13174 119.60044L232.92862 119.60044L232.92862 121.397316L231.13174 121.397316ZM241.19424 121.397316L239.61612 121.397316L239.61612 111.31919Q239.038 111.866066 238.11612 112.41294Q237.19424 112.94419 236.44424 113.22544L236.44424 111.69419Q237.77237 111.06919 238.77237 110.178566Q239.77237 109.28794 240.17862 108.459816L241.19424 108.459816L241.19424 121.397316ZM245.538 111.60044Q245.538 110.22544 246.2255 109.25669Q246.92862 108.28794 248.24112 108.28794Q249.45987 108.28794 250.25674 109.16294Q251.05362 110.022316 251.05362 111.709816Q251.05362 113.334816 250.24112 114.22544Q249.44424 115.10044 248.25674 115.10044Q247.1005 115.10044 246.31924 114.241066Q245.538 113.366066 245.538 111.60044ZM248.288 109.38169Q247.69424 109.38169 247.30362 109.897316Q246.913 110.397316 246.913 111.75669Q246.913 113.00669 247.30362 113.50669Q247.70987 114.00669 248.288 114.00669Q248.88174 114.00669 249.27237 113.50669Q249.663 112.991066 249.663 111.647316Q249.663 110.397316 249.27237 109.897316Q248.88174 109.38169 248.288 109.38169ZM248.30362 121.866066L255.3505 108.28794L256.63174 108.28794L249.6005 121.866066L248.30362 121.866066ZM253.86612 118.366066Q253.86612 116.991066 254.55362 116.022316Q255.25674 115.053566 256.58487 115.053566Q257.80362 115.053566 258.58487 115.928566Q259.38174 116.78794 259.38174 118.47544Q259.38174 120.10044 258.58487 120.991066Q257.788 121.866066 256.6005 121.866066Q255.42862 121.866066 254.64737 120.991066Q253.86612 120.116066 253.86612 118.366066ZM256.63174 116.147316Q256.038 116.147316 255.64737 116.66294Q255.25674 117.16294 255.25674 118.53794Q255.25674 119.75669 255.64737 120.272316Q256.038 120.78794 256.61612 120.78794Q257.2255 120.78794 257.61612 120.272316Q258.00674 119.75669 258.00674 118.41294Q258.00674 117.16294 257.61612 116.66294Q257.2255 116.147316 256.63174 116.147316Z" fill-rule="nonzero"/><path stroke="#ffffff" stroke-width="1.0" stroke-linejoin="round" stroke-linecap="round" d="M306.28543 167.02664C304.2092 166.67064 302.1065 166.49167 300.0 166.49167L300.0 54.916668C308.42603 54.916668 316.83685 55.63253 325.1417 57.05654" fill-rule="nonzero"/><path stroke="#ffffff" stroke-width="1.0" stroke-linejoin="round" stroke-linecap="round" d="M263.10956 208.40733C265.53763 227.36845 281.94418 241.40106 301.0525 240.8601C320.16077 240.31915 335.74716 225.38081 337.0986 206.3127C338.45004 187.24458 325.1264 170.25725 306.28543 167.02664L325.1417 57.05654C400.5056 69.97898 453.80023 137.9283 448.3944 214.20078C442.98862 290.47324 380.6431 350.2266 304.20993 352.3904C227.77675 354.55426 162.15054 298.42383 152.43828 222.57935" fill-rule="nonzero"/><path stroke="#ffffff" stroke-width="1.0" stroke-linejoin="round" stroke-linecap="round" d="M272.08124 179.11174C265.02048 187.13434 261.7521 197.80667 263.10956 208.40733L152.43828 222.57935C147.0084 180.17671 160.08186 137.48737 188.32498 105.39696" fill-rule="nonzero"/><path stroke="#ffffff" stroke-width="1.0" stroke-linejoin="round" stroke-linecap="round" d="M287.61 168.61615C281.62262 170.73163 276.2766 174.3449 272.08124 179.11174L188.32498 105.39696C205.1064 86.32957 226.49042 71.87649 250.4399 63.4146" fill-rule="nonzero"/><path stroke="#ffffff" stroke-width="1.0" stroke-linejoin="round" stroke-linecap="round" d="M300.0 166.49167C295.77936 166.49167 291.5895 167.21008 287.61 168.61615L250.4399 63.4146C266.35806 57.79035 283.11746 54.916668 300.0 54.916668" fill-rule="nonzero"/><path fill="#efefef" d="M27.3 58.46354L28.815624 58.46354L28.815624 65.072914Q28.815624 66.80729 28.425 67.822914Q28.034374 68.83854 27.01875 69.479164Q26.003124 70.11979 24.346874 70.11979Q22.7375 70.11979 21.70625 69.55729Q20.690624 68.99479 20.253124 67.947914Q19.815624 66.90104 19.815624 65.072914L19.815624 58.46354L21.33125 58.46354L21.33125 65.072914Q21.33125 66.55729 21.596874 67.27604Q21.878124 67.979164 22.55 68.36979Q23.2375 68.74479 24.20625 68.74479Q25.878124 68.74479 26.58125 67.99479Q27.3 67.229164 27.3 65.072914L27.3 58.46354ZM31.596874 69.916664L31.596874 61.61979L32.8625 61.61979L32.8625 62.86979Q33.346874 61.99479 33.753124 61.71354Q34.159374 61.43229 34.659374 61.43229Q35.3625 61.43229 36.096874 61.885414L35.6125 63.18229Q35.096874 62.885414 34.58125 62.885414Q34.128124 62.885414 33.753124 63.166664Q33.39375 63.43229 33.2375 63.93229Q33.003124 64.68229 33.003124 65.572914L33.003124 69.916664L31.596874 69.916664ZM37.909374 69.916664L36.596874 69.916664L36.596874 58.46354L38.003124 58.46354L38.003124 62.541664Q38.89375 61.43229 40.284374 61.43229Q41.05 61.43229 41.721874 61.74479Q42.409374 62.041664 42.846874 62.604164Q43.3 63.166664 43.55 63.96354Q43.8 64.74479 43.8 65.635414Q43.8 67.77604 42.7375 68.947914Q41.690624 70.104164 40.20625 70.104164Q38.7375 70.104164 37.909374 68.86979L37.909374 69.916664ZM37.89375 65.697914Q37.89375 67.197914 38.3 67.854164Q38.95625 68.947914 40.096874 68.947914Q41.01875 68.947914 41.690624 68.15104Q42.3625 67.33854 42.3625 65.760414Q42.3625 64.135414 41.70625 63.36979Q41.065624 62.58854 40.159374 62.58854Q39.2375 62.58854 38.565624 63.385414Q37.89375 64.18229 37.89375 65.697914ZM51.01875 68.885414Q50.2375 69.55729 49.51875 69.83854Q48.8 70.104164 47.971874 70.104164Q46.596874 70.104164 45.8625 69.43229Q45.128124 68.760414 45.128124 67.729164Q45.128124 67.11979 45.409374 66.61979Q45.690624 66.104164 46.128124 65.80729Q46.58125 65.49479 47.14375 65.33854Q47.565624 65.229164 48.39375 65.135414Q50.096874 64.93229 50.909374 64.65104Q50.909374 64.354164 50.909374 64.27604Q50.909374 63.416664 50.51875 63.072914Q49.971874 62.58854 48.909374 62.58854Q47.925 62.58854 47.440624 62.947914Q46.971874 63.291664 46.753124 64.166664L45.378124 63.979164Q45.565624 63.104164 45.9875 62.55729Q46.425 62.010414 47.2375 61.729164Q48.05 61.43229 49.1125 61.43229Q50.175 61.43229 50.83125 61.68229Q51.503124 61.93229 51.815624 62.30729Q52.128124 62.68229 52.253124 63.260414Q52.33125 63.61979 52.33125 64.55729L52.33125 66.43229Q52.33125 68.40104 52.409374 68.916664Q52.503124 69.43229 52.76875 69.916664L51.3 69.916664Q51.08125 69.479164 51.01875 68.885414ZM50.909374 65.74479Q50.14375 66.05729 48.6125 66.27604Q47.7375 66.40104 47.378124 66.55729Q47.01875 66.71354 46.815624 67.02604Q46.628124 67.322914 46.628124 67.68229Q46.628124 68.24479 47.05 68.61979Q47.4875 68.99479 48.3 68.99479Q49.1125 68.99479 49.7375 68.65104Q50.378124 68.291664 50.675 67.666664Q50.909374 67.197914 50.909374 66.260414L50.909374 65.74479ZM54.6125 69.916664L54.6125 61.61979L55.878124 61.61979L55.878124 62.791664Q56.784374 61.43229 58.51875 61.43229Q59.26875 61.43229 59.89375 61.697914Q60.51875 61.96354 60.83125 62.40104Q61.14375 62.83854 61.26875 63.447914Q61.346874 63.83854 61.346874 64.80729L61.346874 69.916664L59.940624 69.916664L59.940624 64.86979Q59.940624 64.010414 59.76875 63.58854Q59.6125 63.15104 59.190624 62.90104Q58.784374 62.65104 58.221874 62.65104Q57.315624 62.65104 56.659374 63.229164Q56.01875 63.791664 56.01875 65.385414L56.01875 69.916664L54.6125 69.916664ZM63.05 67.43229L64.44063 67.21354Q64.55 68.05729 65.08125 68.510414Q65.62813 68.947914 66.58125 68.947914Q67.55 68.947914 68.01875 68.55729Q68.4875 68.15104 68.4875 67.61979Q68.4875 67.15104 68.08125 66.86979Q67.78438 66.68229 66.64375 66.40104Q65.09688 66.010414 64.4875 65.729164Q63.89375 65.43229 63.58125 64.93229Q63.284374 64.43229 63.284374 63.822914Q63.284374 63.260414 63.534374 62.791664Q63.784374 62.322914 64.22188 62.010414Q64.55 61.760414 65.1125 61.604164Q65.69063 61.43229 66.33125 61.43229Q67.31563 61.43229 68.05 61.71354Q68.78438 61.99479 69.12813 62.479164Q69.4875 62.947914 69.62813 63.760414L68.25313 63.947914Q68.15938 63.30729 67.70625 62.947914Q67.25313 62.58854 66.44063 62.58854Q65.47188 62.58854 65.05 62.916664Q64.64375 63.229164 64.64375 63.65104Q64.64375 63.93229 64.81563 64.15104Q64.9875 64.36979 65.34688 64.52604Q65.56563 64.604164 66.59688 64.885414Q68.08125 65.27604 68.675 65.541664Q69.26875 65.791664 69.59688 66.27604Q69.94063 66.760414 69.94063 67.479164Q69.94063 68.18229 69.51875 68.80729Q69.1125 69.416664 68.33125 69.760414Q67.56563 70.104164 66.59688 70.104164Q64.97188 70.104164 64.12813 69.43229Q63.284374 68.760414 63.05 67.43229ZM77.01875 66.86979L78.40938 67.05729Q78.175 68.479164 77.2375 69.291664Q76.31563 70.104164 74.95625 70.104164Q73.25313 70.104164 72.20625 68.99479Q71.175 67.86979 71.175 65.791664Q71.175 64.447914 71.6125 63.447914Q72.06563 62.43229 72.97188 61.93229Q73.89375 61.43229 74.95625 61.43229Q76.31563 61.43229 77.175 62.11979Q78.03438 62.791664 78.26875 64.05729L76.90938 64.260414Q76.70625 63.43229 76.20625 63.010414Q75.72188 62.58854 75.01875 62.58854Q73.95625 62.58854 73.28438 63.354164Q72.62813 64.104164 72.62813 65.760414Q72.62813 67.43229 73.26875 68.197914Q73.90938 68.947914 74.94063 68.947914Q75.76875 68.947914 76.31563 68.447914Q76.87813 67.93229 77.01875 66.86979ZM85.01875 68.885414Q84.2375 69.55729 83.51875 69.83854Q82.8 70.104164 81.97188 70.104164Q80.59688 70.104164 79.8625 69.43229Q79.12813 68.760414 79.12813 67.729164Q79.12813 67.11979 79.40938 66.61979Q79.69063 66.104164 80.12813 65.80729Q80.58125 65.49479 81.14375 65.33854Q81.56563 65.229164 82.39375 65.135414Q84.09688 64.93229 84.90938 64.65104Q84.90938 64.354164 84.90938 64.27604Q84.90938 63.416664 84.51875 63.072914Q83.97188 62.58854 82.90938 62.58854Q81.925 62.58854 81.44063 62.947914Q80.97188 63.291664 80.75313 64.166664L79.37813 63.979164Q79.56563 63.104164 79.9875 62.55729Q80.425 62.010414 81.2375 61.729164Q82.05 61.43229 83.1125 61.43229Q84.175 61.43229 84.83125 61.68229Q85.50313 61.93229 85.81563 62.30729Q86.12813 62.68229 86.25313 63.260414Q86.33125 63.61979 86.33125 64.55729L86.33125 66.43229Q86.33125 68.40104 86.40938 68.916664Q86.50313 69.43229 86.76875 69.916664L85.3 69.916664Q85.08125 69.479164 85.01875 68.885414ZM84.90938 65.74479Q84.14375 66.05729 82.6125 66.27604Q81.7375 66.40104 81.37813 66.55729Q81.01875 66.71354 80.81563 67.02604Q80.62813 67.322914 80.62813 67.68229Q80.62813 68.24479 81.05 68.61979Q81.4875 68.99479 82.3 68.99479Q83.1125 68.99479 83.7375 68.65104Q84.37813 68.291664 84.675 67.666664Q84.90938 67.197914 84.90938 66.260414L84.90938 65.74479ZM88.6125 73.104164L88.6125 61.61979L89.89375 61.61979L89.89375 62.697914Q90.34688 62.05729 90.90938 61.74479Q91.4875 61.43229 92.3 61.43229Q93.3625 61.43229 94.175 61.979164Q94.9875 62.52604 95.39375 63.52604Q95.81563 64.510414 95.81563 65.697914Q95.81563 66.979164 95.34688 67.99479Q94.89375 69.010414 94.01875 69.55729Q93.15938 70.104164 92.19063 70.104164Q91.4875 70.104164 90.925 69.80729Q90.37813 69.510414 90.01875 69.05729L90.01875 73.104164L88.6125 73.104164ZM89.87813 65.80729Q89.87813 67.416664 90.51875 68.18229Q91.175 68.947914 92.09688 68.947914Q93.03438 68.947914 93.70625 68.15104Q94.37813 67.354164 94.37813 65.697914Q94.37813 64.104164 93.72188 63.322914Q93.06563 62.52604 92.15938 62.52604Q91.26875 62.52604 90.56563 63.36979Q89.87813 64.21354 89.87813 65.80729ZM103.28438 67.24479L104.7375 67.416664Q104.39375 68.697914 103.45625 69.40104Q102.53438 70.104164 101.09688 70.104164Q99.26875 70.104164 98.20625 68.979164Q97.14375 67.854164 97.14375 65.83854Q97.14375 63.74479 98.22188 62.58854Q99.3 61.43229 101.01875 61.43229Q102.675 61.43229 103.72188 62.572914Q104.78438 63.697914 104.78438 65.74479Q104.78438 65.86979 104.78438 66.11979L98.59688 66.11979Q98.675 67.49479 99.3625 68.229164Q100.06563 68.947914 101.09688 68.947914Q101.87813 68.947914 102.425 68.541664Q102.97188 68.135414 103.28438 67.24479ZM98.675 64.96354L103.3 64.96354Q103.20625 63.916664 102.76875 63.40104Q102.09688 62.58854 101.03438 62.58854Q100.06563 62.58854 99.39375 63.24479Q98.7375 63.885414 98.675 64.96354Z" fill-rule="nonzero"/><path fill="#9e9e9e" d="M19.221874 88.916664L20.690624 88.791664Q20.8625 89.86979 21.45625 90.416664Q22.05 90.947914 22.89375 90.947914Q23.909374 90.947914 24.6125 90.18229Q25.315624 89.416664 25.315624 88.15104Q25.315624 86.947914 24.64375 86.260414Q23.971874 85.55729 22.878124 85.55729Q22.190624 85.55729 21.64375 85.86979Q21.096874 86.18229 20.784374 86.666664L19.471874 86.49479L20.58125 80.61979L26.26875 80.61979L26.26875 81.96354L21.70625 81.96354L21.08125 85.041664Q22.1125 84.322914 23.253124 84.322914Q24.753124 84.322914 25.784374 85.36979Q26.815624 86.40104 26.815624 88.02604Q26.815624 89.58854 25.909374 90.71354Q24.8 92.11979 22.89375 92.11979Q21.33125 92.11979 20.346874 91.24479Q19.3625 90.354164 19.221874 88.916664ZM29.003124 91.916664L29.003124 90.30729L30.6125 90.30729L30.6125 91.916664L29.003124 91.916664ZM36.721874 91.916664L36.721874 89.166664L31.753124 89.166664L31.753124 87.885414L36.9875 80.46354L38.128124 80.46354L38.128124 87.885414L39.675 87.885414L39.675 89.166664L38.128124 89.166664L38.128124 91.916664L36.721874 91.916664ZM36.721874 87.885414L36.721874 82.71354L33.14375 87.885414L36.721874 87.885414ZM41.4875 83.21354Q41.4875 81.979164 42.096874 81.11979Q42.721874 80.260414 43.89375 80.260414Q44.971874 80.260414 45.675 81.041664Q46.378124 81.80729 46.378124 83.291664Q46.378124 84.74479 45.659374 85.541664Q44.95625 86.322914 43.909374 86.322914Q42.8625 86.322914 42.175 85.55729Q41.4875 84.77604 41.4875 83.21354ZM43.925 81.229164Q43.409374 81.229164 43.05 81.68229Q42.70625 82.135414 42.70625 83.354164Q42.70625 84.447914 43.05 84.90104Q43.409374 85.354164 43.925 85.354164Q44.45625 85.354164 44.8 84.90104Q45.159374 84.447914 45.159374 83.24479Q45.159374 82.135414 44.8 81.68229Q44.45625 81.229164 43.925 81.229164ZM43.940624 92.33854L50.20625 80.260414L51.346874 80.260414L45.096874 92.33854L43.940624 92.33854ZM48.89375 89.229164Q48.89375 87.99479 49.503124 87.135414Q50.128124 86.27604 51.3 86.27604Q52.378124 86.27604 53.08125 87.05729Q53.8 87.822914 53.8 89.30729Q53.8 90.760414 53.08125 91.55729Q52.3625 92.33854 51.315624 92.33854Q50.26875 92.33854 49.58125 91.55729Q48.89375 90.77604 48.89375 89.229164ZM51.346874 87.24479Q50.815624 87.24479 50.45625 87.697914Q50.1125 88.15104 50.1125 89.36979Q50.1125 90.46354 50.45625 90.916664Q50.815624 91.36979 51.33125 91.36979Q51.878124 91.36979 52.221874 90.916664Q52.565624 90.46354 52.565624 89.260414Q52.565624 88.15104 52.20625 87.697914Q51.8625 87.24479 51.346874 87.24479Z" fill-rule="nonzero"/><path stroke="#757575" stroke-width="1.0" stroke-linecap="butt" d="M18.55 75.416664L145.23334 75.416664L276.1154 64.38788" fill-rule="nonzero"/><path fill="#9e9e9e" d="M278.1154 64.38788C278.1154 63.28331 277.21997 62.38788 276.1154 62.38788C275.01083 62.38788 274.1154 63.28331 274.1154 64.38788C274.1154 65.49245 275.01083 66.38788 276.1154 66.38788C277.21997 66.38788 278.1154 65.49245 278.1154 64.38788" fill-rule="nonzero"/><path fill="#efefef" d="M19.76875 110.916664L19.76875 99.46354L21.33125 99.46354L27.346874 108.447914L27.346874 99.46354L28.8 99.46354L28.8 110.916664L27.2375 110.916664L21.221874 101.916664L21.221874 110.916664L19.76875 110.916664ZM37.01875 109.885414Q36.2375 110.55729 35.51875 110.83854Q34.8 111.104164 33.971874 111.104164Q32.596874 111.104164 31.8625 110.43229Q31.128124 109.760414 31.128124 108.729164Q31.128124 108.11979 31.409374 107.61979Q31.690624 107.104164 32.128124 106.80729Q32.58125 106.49479 33.14375 106.33854Q33.565624 106.229164 34.39375 106.135414Q36.096874 105.93229 36.909374 105.65104Q36.909374 105.354164 36.909374 105.27604Q36.909374 104.416664 36.51875 104.072914Q35.971874 103.58854 34.909374 103.58854Q33.925 103.58854 33.440624 103.947914Q32.971874 104.291664 32.753124 105.166664L31.378124 104.979164Q31.565624 104.104164 31.9875 103.55729Q32.425 103.010414 33.2375 102.729164Q34.05 102.43229 35.1125 102.43229Q36.175 102.43229 36.83125 102.68229Q37.503124 102.93229 37.815624 103.30729Q38.128124 103.68229 38.253124 104.260414Q38.33125 104.61979 38.33125 105.55729L38.33125 107.43229Q38.33125 109.40104 38.409374 109.916664Q38.503124 110.43229 38.76875 110.916664L37.3 110.916664Q37.08125 110.479164 37.01875 109.885414ZM36.909374 106.74479Q36.14375 107.05729 34.6125 107.27604Q33.7375 107.40104 33.378124 107.55729Q33.01875 107.71354 32.815624 108.02604Q32.628124 108.322914 32.628124 108.68229Q32.628124 109.24479 33.05 109.61979Q33.4875 109.99479 34.3 109.99479Q35.1125 109.99479 35.7375 109.65104Q36.378124 109.291664 36.675 108.666664Q36.909374 108.197914 36.909374 107.260414L36.909374 106.74479ZM43.675 109.65104L43.878124 110.90104Q43.284374 111.02604 42.815624 111.02604Q42.05 111.02604 41.628124 110.791664Q41.20625 110.541664 41.034374 110.15104Q40.8625 109.74479 40.8625 108.479164L40.8625 103.71354L39.83125 103.71354L39.83125 102.61979L40.8625 102.61979L40.8625 100.55729L42.26875 99.71354L42.26875 102.61979L43.675 102.61979L43.675 103.71354L42.26875 103.71354L42.26875 108.55729Q42.26875 109.166664 42.33125 109.33854Q42.409374 109.510414 42.58125 109.61979Q42.753124 109.71354 43.065624 109.71354Q43.3 109.71354 43.675 109.65104ZM50.05 110.916664L50.05 109.697914Q49.08125 111.104164 47.409374 111.104164Q46.675 111.104164 46.034374 110.822914Q45.409374 110.541664 45.096874 110.11979Q44.784374 109.68229 44.659374 109.072914Q44.58125 108.65104 44.58125 107.760414L44.58125 102.61979L45.9875 102.61979L45.9875 107.21354Q45.9875 108.322914 46.065624 108.697914Q46.20625 109.260414 46.628124 109.572914Q47.065624 109.885414 47.690624 109.885414Q48.33125 109.885414 48.878124 109.572914Q49.440624 109.24479 49.659374 108.68229Q49.89375 108.11979 49.89375 107.05729L49.89375 102.61979L51.3 102.61979L51.3 110.916664L50.05 110.916664ZM53.596874 110.916664L53.596874 102.61979L54.8625 102.61979L54.8625 103.86979Q55.346874 102.99479 55.753124 102.71354Q56.159374 102.43229 56.659374 102.43229Q57.3625 102.43229 58.096874 102.885414L57.6125 104.18229Q57.096874 103.885414 56.58125 103.885414Q56.128124 103.885414 55.753124 104.166664Q55.39375 104.43229 55.2375 104.93229Q55.003124 105.68229 55.003124 106.572914L55.003124 110.916664L53.596874 110.916664ZM64.28438 108.24479L65.7375 108.416664Q65.39375 109.697914 64.45625 110.40104Q63.534374 111.104164 62.096874 111.104164Q60.26875 111.104164 59.20625 109.979164Q58.14375 108.854164 58.14375 106.83854Q58.14375 104.74479 59.221874 103.58854Q60.3 102.43229 62.01875 102.43229Q63.675 102.43229 64.72188 103.572914Q65.78438 104.697914 65.78438 106.74479Q65.78438 106.86979 65.78438 107.11979L59.596874 107.11979Q59.675 108.49479 60.3625 109.229164Q61.065624 109.947914 62.096874 109.947914Q62.878124 109.947914 63.425 109.541664Q63.971874 109.135414 64.28438 108.24479ZM59.675 105.96354L64.3 105.96354Q64.20625 104.916664 63.76875 104.40104Q63.096874 103.58854 62.034374 103.58854Q61.065624 103.58854 60.39375 104.24479Q59.7375 104.885414 59.675 105.96354ZM67.05 108.43229L68.44063 108.21354Q68.55 109.05729 69.08125 109.510414Q69.62813 109.947914 70.58125 109.947914Q71.55 109.947914 72.01875 109.55729Q72.4875 109.15104 72.4875 108.61979Q72.4875 108.15104 72.08125 107.86979Q71.78438 107.68229 70.64375 107.40104Q69.09688 107.010414 68.4875 106.729164Q67.89375 106.43229 67.58125 105.93229Q67.28438 105.43229 67.28438 104.822914Q67.28438 104.260414 67.53438 103.791664Q67.78438 103.322914 68.22188 103.010414Q68.55 102.760414 69.1125 102.604164Q69.69063 102.43229 70.33125 102.43229Q71.31563 102.43229 72.05 102.71354Q72.78438 102.99479 73.12813 103.479164Q73.4875 103.947914 73.62813 104.760414L72.25313 104.947914Q72.15938 104.30729 71.70625 103.947914Q71.25313 103.58854 70.44063 103.58854Q69.47188 103.58854 69.05 103.916664Q68.64375 104.229164 68.64375 104.65104Q68.64375 104.93229 68.81563 105.15104Q68.9875 105.36979 69.34688 105.52604Q69.56563 105.604164 70.59688 105.885414Q72.08125 106.27604 72.675 106.541664Q73.26875 106.791664 73.59688 107.27604Q73.94063 107.760414 73.94063 108.479164Q73.94063 109.18229 73.51875 109.80729Q73.1125 110.416664 72.33125 110.760414Q71.56563 111.104164 70.59688 111.104164Q68.97188 111.104164 68.12813 110.43229Q67.28438 109.760414 67.05 108.43229ZM81.01875 107.86979L82.40938 108.05729Q82.175 109.479164 81.2375 110.291664Q80.31563 111.104164 78.95625 111.104164Q77.25313 111.104164 76.20625 109.99479Q75.175 108.86979 75.175 106.791664Q75.175 105.447914 75.6125 104.447914Q76.06563 103.43229 76.97188 102.93229Q77.89375 102.43229 78.95625 102.43229Q80.31563 102.43229 81.175 103.11979Q82.03438 103.791664 82.26875 105.05729L80.90938 105.260414Q80.70625 104.43229 80.20625 104.010414Q79.72188 103.58854 79.01875 103.58854Q77.95625 103.58854 77.28438 104.354164Q76.62813 105.104164 76.62813 106.760414Q76.62813 108.43229 77.26875 109.197914Q77.90938 109.947914 78.94063 109.947914Q79.76875 109.947914 80.31563 109.447914Q80.87813 108.93229 81.01875 107.86979ZM89.01875 109.885414Q88.2375 110.55729 87.51875 110.83854Q86.8 111.104164 85.97188 111.104164Q84.59688 111.104164 83.8625 110.43229Q83.12813 109.760414 83.12813 108.729164Q83.12813 108.11979 83.40938 107.61979Q83.69063 107.104164 84.12813 106.80729Q84.58125 106.49479 85.14375 106.33854Q85.56563 106.229164 86.39375 106.135414Q88.09688 105.93229 88.90938 105.65104Q88.90938 105.354164 88.90938 105.27604Q88.90938 104.416664 88.51875 104.072914Q87.97188 103.58854 86.90938 103.58854Q85.925 103.58854 85.44063 103.947914Q84.97188 104.291664 84.75313 105.166664L83.37813 104.979164Q83.56563 104.104164 83.9875 103.55729Q84.425 103.010414 85.2375 102.729164Q86.05 102.43229 87.1125 102.43229Q88.175 102.43229 88.83125 102.68229Q89.50313 102.93229 89.81563 103.30729Q90.12813 103.68229 90.25313 104.260414Q90.33125 104.61979 90.33125 105.55729L90.33125 107.43229Q90.33125 109.40104 90.40938 109.916664Q90.50313 110.43229 90.76875 110.916664L89.3 110.916664Q89.08125 110.479164 89.01875 109.885414ZM88.90938 106.74479Q88.14375 107.05729 86.6125 107.27604Q85.7375 107.40104 85.37813 107.55729Q85.01875 107.71354 84.81563 108.02604Q84.62813 108.322914 84.62813 108.68229Q84.62813 109.24479 85.05 109.61979Q85.4875 109.99479 86.3 109.99479Q87.1125 109.99479 87.7375 109.65104Q88.37813 109.291664 88.675 108.666664Q88.90938 108.197914 88.90938 107.260414L88.90938 106.74479ZM92.6125 114.104164L92.6125 102.61979L93.89375 102.61979L93.89375 103.697914Q94.34688 103.05729 94.90938 102.74479Q95.4875 102.43229 96.3 102.43229Q97.3625 102.43229 98.175 102.979164Q98.9875 103.52604 99.39375 104.52604Q99.81563 105.510414 99.81563 106.697914Q99.81563 107.979164 99.34688 108.99479Q98.89375 110.010414 98.01875 110.55729Q97.15938 111.104164 96.19063 111.104164Q95.4875 111.104164 94.925 110.80729Q94.37813 110.510414 94.01875 110.05729L94.01875 114.104164L92.6125 114.104164ZM93.87813 106.80729Q93.87813 108.416664 94.51875 109.18229Q95.175 109.947914 96.09688 109.947914Q97.03438 109.947914 97.70625 109.15104Q98.37813 108.354164 98.37813 106.697914Q98.37813 105.104164 97.72188 104.322914Q97.06563 103.52604 96.15938 103.52604Q95.26875 103.52604 94.56563 104.36979Q93.87813 105.21354 93.87813 106.80729ZM107.28438 108.24479L108.7375 108.416664Q108.39375 109.697914 107.45625 110.40104Q106.53438 111.104164 105.09688 111.104164Q103.26875 111.104164 102.20625 109.979164Q101.14375 108.854164 101.14375 106.83854Q101.14375 104.74479 102.22188 103.58854Q103.3 102.43229 105.01875 102.43229Q106.675 102.43229 107.72188 103.572914Q108.78438 104.697914 108.78438 106.74479Q108.78438 106.86979 108.78438 107.11979L102.59688 107.11979Q102.675 108.49479 103.3625 109.229164Q104.06563 109.947914 105.09688 109.947914Q105.87813 109.947914 106.425 109.541664Q106.97188 109.135414 107.28438 108.24479ZM102.675 105.96354L107.3 105.96354Q107.20625 104.916664 106.76875 104.40104Q106.09688 103.58854 105.03438 103.58854Q104.06563 103.58854 103.39375 104.24479Q102.7375 104.885414 102.675 105.96354Z" fill-rule="nonzero"/><path fill="#9e9e9e" d="M21.378124 126.69792Q20.503124 126.38542 20.08125 125.79167Q19.659374 125.19792 19.659374 124.3698Q19.659374 123.1198 20.55 122.27605Q21.45625 121.41667 22.95625 121.41667Q24.45625 121.41667 25.3625 122.29167Q26.284374 123.15105 26.284374 124.40105Q26.284374 125.19792 25.8625 125.79167Q25.440624 126.38542 24.596874 126.69792Q25.64375 127.04167 26.190624 127.8073Q26.753124 128.57292 26.753124 129.63542Q26.753124 131.10417 25.70625 132.1198Q24.675 133.1198 22.971874 133.1198Q21.284374 133.1198 20.2375 132.1198Q19.20625 131.10417 19.20625 129.60417Q19.20625 128.47917 19.76875 127.72917Q20.33125 126.97917 21.378124 126.69792ZM21.096874 124.32292Q21.096874 125.13542 21.6125 125.65105Q22.14375 126.16667 22.9875 126.16667Q23.8 126.16667 24.315624 125.65105Q24.83125 125.13542 24.83125 124.40105Q24.83125 123.6198 24.3 123.10417Q23.76875 122.57292 22.971874 122.57292Q22.159374 122.57292 21.628124 123.08855Q21.096874 123.60417 21.096874 124.32292ZM20.64375 129.60417Q20.64375 130.21355 20.925 130.77605Q21.221874 131.33855 21.784374 131.65105Q22.346874 131.94792 22.9875 131.94792Q24.003124 131.94792 24.659374 131.3073Q25.315624 130.65105 25.315624 129.65105Q25.315624 128.63542 24.628124 127.97917Q23.95625 127.3073 22.940624 127.3073Q21.95625 127.3073 21.3 127.96355Q20.64375 128.6198 20.64375 129.60417ZM29.003124 132.91667L29.003124 131.3073L30.6125 131.3073L30.6125 132.91667L29.003124 132.91667ZM37.51875 132.91667L36.1125 132.91667L36.1125 123.94792Q35.596874 124.4323 34.76875 124.91667Q33.95625 125.40105 33.3 125.65105L33.3 124.29167Q34.471874 123.72917 35.346874 122.94792Q36.2375 122.15105 36.6125 121.41667L37.51875 121.41667L37.51875 132.91667ZM41.4875 124.21355Q41.4875 122.97917 42.096874 122.1198Q42.721874 121.26042 43.89375 121.26042Q44.971874 121.26042 45.675 122.04167Q46.378124 122.8073 46.378124 124.29167Q46.378124 125.7448 45.659374 126.54167Q44.95625 127.32292 43.909374 127.32292Q42.8625 127.32292 42.175 126.5573Q41.4875 125.77605 41.4875 124.21355ZM43.925 122.22917Q43.409374 122.22917 43.05 122.6823Q42.70625 123.13542 42.70625 124.35417Q42.70625 125.44792 43.05 125.90105Q43.409374 126.35417 43.925 126.35417Q44.45625 126.35417 44.8 125.90105Q45.159374 125.44792 45.159374 124.2448Q45.159374 123.13542 44.8 122.6823Q44.45625 122.22917 43.925 122.22917ZM43.940624 133.33855L50.20625 121.26042L51.346874 121.26042L45.096874 133.33855L43.940624 133.33855ZM48.89375 130.22917Q48.89375 128.9948 49.503124 128.13542Q50.128124 127.27605 51.3 127.27605Q52.378124 127.27605 53.08125 128.0573Q53.8 128.82292 53.8 130.3073Q53.8 131.76042 53.08125 132.5573Q52.3625 133.33855 51.315624 133.33855Q50.26875 133.33855 49.58125 132.5573Q48.89375 131.77605 48.89375 130.22917ZM51.346874 128.2448Q50.815624 128.2448 50.45625 128.69792Q50.1125 129.15105 50.1125 130.3698Q50.1125 131.46355 50.45625 131.91667Q50.815624 132.3698 51.33125 132.3698Q51.878124 132.3698 52.221874 131.91667Q52.565624 131.46355 52.565624 130.26042Q52.565624 129.15105 52.20625 128.69792Q51.8625 128.2448 51.346874 128.2448Z" fill-rule="nonzero"/><path stroke="#757575" stroke-width="1.0" stroke-linecap="butt" d="M18.55 116.416664L145.23334 116.416664L220.8597 86.591446" fill-rule="nonzero"/><path fill="#9e9e9e" d="M222.8597 86.591446C222.8597 85.48688 221.96426 84.591446 220.8597 84.591446C219.75513 84.591446 218.8597 85.48688 218.8597 86.591446C218.8597 87.696014 219.75513 88.591446 220.8597 88.591446C221.96426 88.591446 222.8597 87.696014 222.8597 86.591446" fill-rule="nonzero"/><path fill="#efefef" d="M18.51875 156.79918L22.925 145.34605L24.565624 145.34605L29.253124 156.79918L27.51875 156.79918L26.190624 153.33043L21.39375 153.33043L20.14375 156.79918L18.51875 156.79918ZM21.83125 152.09605L25.721874 152.09605L24.51875 148.92418Q23.971874 147.47105 23.70625 146.54918Q23.4875 147.64293 23.096874 148.73668L21.83125 152.09605ZM30.6125 156.79918L30.6125 148.5023L31.878124 148.5023L31.878124 149.67418Q32.784374 148.3148 34.51875 148.3148Q35.26875 148.3148 35.89375 148.58043Q36.51875 148.84605 36.83125 149.28355Q37.14375 149.72105 37.26875 150.33043Q37.346874 150.72105 37.346874 151.6898L37.346874 156.79918L35.940624 156.79918L35.940624 151.7523Q35.940624 150.89293 35.76875 150.47105Q35.6125 150.03355 35.190624 149.78355Q34.784374 149.53355 34.221874 149.53355Q33.315624 149.53355 32.659374 150.11168Q32.01875 150.67418 32.01875 152.26793L32.01875 156.79918L30.6125 156.79918ZM39.6125 146.95543L39.6125 145.34605L41.01875 145.34605L41.01875 146.95543L39.6125 146.95543ZM39.6125 156.79918L39.6125 148.5023L41.01875 148.5023L41.01875 156.79918L39.6125 156.79918ZM43.6125 156.79918L43.6125 148.5023L44.8625 148.5023L44.8625 149.65855Q45.253124 149.04918 45.89375 148.6898Q46.55 148.3148 47.378124 148.3148Q48.3 148.3148 48.89375 148.70543Q49.4875 149.08043 49.721874 149.76793Q50.70625 148.3148 52.284374 148.3148Q53.51875 148.3148 54.175 149.0023Q54.846874 149.67418 54.846874 151.09605L54.846874 156.79918L53.45625 156.79918L53.45625 151.5648Q53.45625 150.72105 53.315624 150.36168Q53.175 149.98668 52.815624 149.76793Q52.45625 149.53355 51.971874 149.53355Q51.096874 149.53355 50.51875 150.11168Q49.940624 150.6898 49.940624 151.97105L49.940624 156.79918L48.534374 156.79918L48.534374 151.40855Q48.534374 150.47105 48.190624 150.0023Q47.846874 149.53355 47.065624 149.53355Q46.471874 149.53355 45.971874 149.84605Q45.471874 150.15855 45.2375 150.76793Q45.01875 151.36168 45.01875 152.48668L45.01875 156.79918L43.6125 156.79918ZM62.01875 155.76793Q61.2375 156.4398 60.51875 156.72105Q59.8 156.98668 58.971874 156.98668Q57.596874 156.98668 56.8625 156.3148Q56.128124 155.64293 56.128124 154.61168Q56.128124 154.0023 56.409374 153.5023Q56.690624 152.98668 57.128124 152.6898Q57.58125 152.3773 58.14375 152.22105Q58.565624 152.11168 59.39375 152.01793Q61.096874 151.8148 61.909374 151.53355Q61.909374 151.23668 61.909374 151.15855Q61.909374 150.29918 61.51875 149.95543Q60.971874 149.47105 59.909374 149.47105Q58.925 149.47105 58.440624 149.83043Q57.971874 150.17418 57.753124 151.04918L56.378124 150.86168Q56.565624 149.98668 56.9875 149.4398Q57.425 148.89293 58.2375 148.61168Q59.05 148.3148 60.1125 148.3148Q61.175 148.3148 61.83125 148.5648Q62.503124 148.8148 62.815624 149.1898Q63.128124 149.5648 63.253124 150.14293Q63.33125 150.5023 63.33125 151.4398L63.33125 153.3148Q63.33125 155.28355 63.409374 155.79918Q63.503124 156.3148 63.76875 156.79918L62.3 156.79918Q62.08125 156.36168 62.01875 155.76793ZM61.909374 152.6273Q61.14375 152.9398 59.6125 153.15855Q58.7375 153.28355 58.378124 153.4398Q58.01875 153.59605 57.815624 153.90855Q57.628124 154.20543 57.628124 154.5648Q57.628124 155.1273 58.05 155.5023Q58.4875 155.8773 59.3 155.8773Q60.1125 155.8773 60.7375 155.53355Q61.378124 155.17418 61.675 154.54918Q61.909374 154.08043 61.909374 153.14293L61.909374 152.6273ZM65.58125 156.79918L65.58125 145.34605L66.9875 145.34605L66.9875 156.79918L65.58125 156.79918ZM69.05 154.3148L70.44063 154.09605Q70.55 154.9398 71.08125 155.39293Q71.62813 155.83043 72.58125 155.83043Q73.55 155.83043 74.01875 155.4398Q74.4875 155.03355 74.4875 154.5023Q74.4875 154.03355 74.08125 153.7523Q73.78438 153.5648 72.64375 153.28355Q71.09688 152.89293 70.4875 152.61168Q69.89375 152.3148 69.58125 151.8148Q69.28438 151.3148 69.28438 150.70543Q69.28438 150.14293 69.53438 149.67418Q69.78438 149.20543 70.22188 148.89293Q70.55 148.64293 71.1125 148.48668Q71.69063 148.3148 72.33125 148.3148Q73.31563 148.3148 74.05 148.59605Q74.78438 148.8773 75.12813 149.36168Q75.4875 149.83043 75.62813 150.64293L74.25313 150.83043Q74.15938 150.1898 73.70625 149.83043Q73.25313 149.47105 72.44063 149.47105Q71.47188 149.47105 71.05 149.79918Q70.64375 150.11168 70.64375 150.53355Q70.64375 150.8148 70.81563 151.03355Q70.9875 151.2523 71.34688 151.40855Q71.56563 151.48668 72.59688 151.76793Q74.08125 152.15855 74.675 152.42418Q75.26875 152.67418 75.59688 153.15855Q75.94063 153.64293 75.94063 154.36168Q75.94063 155.0648 75.51875 155.6898Q75.1125 156.29918 74.33125 156.64293Q73.56563 156.98668 72.59688 156.98668Q70.97188 156.98668 70.12813 156.3148Q69.28438 155.64293 69.05 154.3148Z" fill-rule="nonzero"/><path fill="#9e9e9e" d="M24.51875 178.79918L23.1125 178.79918L23.1125 169.83043Q22.596874 170.3148 21.76875 170.79918Q20.95625 171.28355 20.3 171.53355L20.3 170.17418Q21.471874 169.61168 22.346874 168.83043Q23.2375 168.03355 23.6125 167.29918L24.51875 167.29918L24.51875 178.79918ZM28.221874 175.76793L29.628124 175.58043Q29.878124 176.78355 30.45625 177.3148Q31.034374 177.83043 31.878124 177.83043Q32.8625 177.83043 33.55 177.14293Q34.2375 176.45543 34.2375 175.4398Q34.2375 174.47105 33.596874 173.84605Q32.971874 173.22105 31.9875 173.22105Q31.596874 173.22105 31.003124 173.3773L31.159374 172.14293Q31.3 172.15855 31.378124 172.15855Q32.284374 172.15855 33.003124 171.6898Q33.721874 171.22105 33.721874 170.23668Q33.721874 169.47105 33.190624 168.97105Q32.675 168.45543 31.846874 168.45543Q31.01875 168.45543 30.471874 168.97105Q29.925 169.48668 29.76875 170.51793L28.3625 170.26793Q28.628124 168.84605 29.534374 168.08043Q30.45625 167.29918 31.815624 167.29918Q32.753124 167.29918 33.534374 167.70543Q34.33125 168.09605 34.7375 168.79918Q35.159374 169.48668 35.159374 170.26793Q35.159374 171.01793 34.753124 171.6273Q34.3625 172.23668 33.58125 172.59605Q34.596874 172.83043 35.159374 173.5648Q35.721874 174.29918 35.721874 175.40855Q35.721874 176.90855 34.628124 177.95543Q33.534374 179.0023 31.8625 179.0023Q30.3625 179.0023 29.3625 178.11168Q28.3625 177.20543 28.221874 175.76793ZM38.003124 178.79918L38.003124 177.1898L39.6125 177.1898L39.6125 178.79918L38.003124 178.79918ZM41.221874 175.79918L42.690624 175.67418Q42.8625 176.7523 43.45625 177.29918Q44.05 177.83043 44.89375 177.83043Q45.909374 177.83043 46.6125 177.0648Q47.315624 176.29918 47.315624 175.03355Q47.315624 173.83043 46.64375 173.14293Q45.971874 172.4398 44.878124 172.4398Q44.190624 172.4398 43.64375 172.7523Q43.096874 173.0648 42.784374 173.54918L41.471874 173.3773L42.58125 167.5023L48.26875 167.5023L48.26875 168.84605L43.70625 168.84605L43.08125 171.92418Q44.1125 171.20543 45.253124 171.20543Q46.753124 171.20543 47.784374 172.2523Q48.815624 173.28355 48.815624 174.90855Q48.815624 176.47105 47.909374 177.59605Q46.8 179.0023 44.89375 179.0023Q43.33125 179.0023 42.346874 178.1273Q41.3625 177.23668 41.221874 175.79918ZM50.4875 170.09605Q50.4875 168.86168 51.096874 168.0023Q51.721874 167.14293 52.89375 167.14293Q53.971874 167.14293 54.675 167.92418Q55.378124 168.6898 55.378124 170.17418Q55.378124 171.6273 54.659374 172.42418Q53.95625 173.20543 52.909374 173.20543Q51.8625 173.20543 51.175 172.4398Q50.4875 171.65855 50.4875 170.09605ZM52.925 168.11168Q52.409374 168.11168 52.05 168.5648Q51.70625 169.01793 51.70625 170.23668Q51.70625 171.33043 52.05 171.78355Q52.409374 172.23668 52.925 172.23668Q53.45625 172.23668 53.8 171.78355Q54.159374 171.33043 54.159374 170.1273Q54.159374 169.01793 53.8 168.5648Q53.45625 168.11168 52.925 168.11168ZM52.940624 179.22105L59.20625 167.14293L60.346874 167.14293L54.096874 179.22105L52.940624 179.22105ZM57.89375 176.11168Q57.89375 174.8773 58.503124 174.01793Q59.128124 173.15855 60.3 173.15855Q61.378124 173.15855 62.08125 173.9398Q62.8 174.70543 62.8 176.1898Q62.8 177.64293 62.08125 178.4398Q61.3625 179.22105 60.315624 179.22105Q59.26875 179.22105 58.58125 178.4398Q57.89375 177.65855 57.89375 176.11168ZM60.346874 174.1273Q59.815624 174.1273 59.45625 174.58043Q59.1125 175.03355 59.1125 176.2523Q59.1125 177.34605 59.45625 177.79918Q59.815624 178.2523 60.33125 178.2523Q60.878124 178.2523 61.221874 177.79918Q61.565624 177.34605 61.565624 176.14293Q61.565624 175.03355 61.20625 174.58043Q60.8625 174.1273 60.346874 174.1273Z" fill-rule="nonzero"/><path stroke="#757575" stroke-width="1.0" stroke-linecap="butt" d="M18.55 162.29918L145.23334 162.29918L164.86655 162.29918" fill-rule="nonzero"/><path fill="#9e9e9e" d="M166.86655 162.29918C166.86655 161.19461 165.97112 160.29918 164.86655 160.29918C163.76198 160.29918 162.86655 161.19461 162.86655 162.29918C162.86655 163.40375 163.76198 164.29918 164.86655 164.29918C165.97112 164.29918 166.86655 163.40375 166.86655 162.29918" fill-rule="nonzero"/><path fill="#efefef" d="M551.6375 69.916664L551.6375 58.46354L553.91876 58.46354L556.6375 66.572914Q557.0125 67.697914 557.1844 68.260414Q557.3719 67.635414 557.79376 66.43229L560.52814 58.46354L562.575 58.46354L562.575 69.916664L561.10626 69.916664L561.10626 60.322914L557.77814 69.916664L556.41876 69.916664L553.10626 60.166664L553.10626 69.916664L551.6375 69.916664ZM569.91876 68.885414Q569.1375 69.55729 568.41876 69.83854Q567.7 70.104164 566.8719 70.104164Q565.4969 70.104164 564.7625 69.43229Q564.02814 68.760414 564.02814 67.729164Q564.02814 67.11979 564.3094 66.61979Q564.59064 66.104164 565.02814 65.80729Q565.48126 65.49479 566.04376 65.33854Q566.46564 65.229164 567.29376 65.135414Q568.9969 64.93229 569.8094 64.65104Q569.8094 64.354164 569.8094 64.27604Q569.8094 63.416664 569.41876 63.072914Q568.8719 62.58854 567.8094 62.58854Q566.825 62.58854 566.34064 62.947914Q565.8719 63.291664 565.65314 64.166664L564.27814 63.979164Q564.46564 63.104164 564.8875 62.55729Q565.325 62.010414 566.1375 61.729164Q566.95 61.43229 568.0125 61.43229Q569.075 61.43229 569.73126 61.68229Q570.40314 61.93229 570.71564 62.30729Q571.02814 62.68229 571.15314 63.260414Q571.23126 63.61979 571.23126 64.55729L571.23126 66.43229Q571.23126 68.40104 571.3094 68.916664Q571.40314 69.43229 571.66876 69.916664L570.2 69.916664Q569.98126 69.479164 569.91876 68.885414ZM569.8094 65.74479Q569.04376 66.05729 567.5125 66.27604Q566.6375 66.40104 566.27814 66.55729Q565.91876 66.71354 565.71564 67.02604Q565.52814 67.322914 565.52814 67.68229Q565.52814 68.24479 565.95 68.61979Q566.3875 68.99479 567.2 68.99479Q568.0125 68.99479 568.6375 68.65104Q569.27814 68.291664 569.575 67.666664Q569.8094 67.197914 569.8094 66.260414L569.8094 65.74479ZM573.5125 73.104164L573.5125 61.61979L574.79376 61.61979L574.79376 62.697914Q575.2469 62.05729 575.8094 61.74479Q576.3875 61.43229 577.2 61.43229Q578.2625 61.43229 579.075 61.979164Q579.8875 62.52604 580.29376 63.52604Q580.71564 64.510414 580.71564 65.697914Q580.71564 66.979164 580.2469 67.99479Q579.79376 69.010414 578.91876 69.55729Q578.0594 70.104164 577.09064 70.104164Q576.3875 70.104164 575.825 69.80729Q575.27814 69.510414 574.91876 69.05729L574.91876 73.104164L573.5125 73.104164ZM574.77814 65.80729Q574.77814 67.416664 575.41876 68.18229Q576.075 68.947914 576.9969 68.947914Q577.9344 68.947914 578.60626 68.15104Q579.27814 67.354164 579.27814 65.697914Q579.27814 64.104164 578.6219 63.322914Q577.96564 62.52604 577.0594 62.52604Q576.16876 62.52604 575.46564 63.36979Q574.77814 64.21354 574.77814 65.80729Z" fill-rule="nonzero"/><path fill="#9e9e9e" d="M553.5125 90.55729L553.5125 91.916664L545.9344 91.916664Q545.91876 91.40104 546.10626 90.93229Q546.3875 90.166664 547.02814 89.416664Q547.66876 88.666664 548.8719 87.68229Q550.73126 86.15104 551.3875 85.260414Q552.04376 84.354164 552.04376 83.55729Q552.04376 82.729164 551.45 82.15104Q550.85626 81.572914 549.8875 81.572914Q548.8719 81.572914 548.2625 82.18229Q547.65314 82.791664 547.65314 83.86979L546.2 83.729164Q546.35626 82.104164 547.325 81.260414Q548.29376 80.416664 549.91876 80.416664Q551.575 80.416664 552.52814 81.33854Q553.4969 82.24479 553.4969 83.58854Q553.4969 84.27604 553.21564 84.947914Q552.9344 85.604164 552.27814 86.33854Q551.6219 87.072914 550.10626 88.354164Q548.84064 89.416664 548.48126 89.80729Q548.1219 90.18229 547.8875 90.55729L553.5125 90.55729ZM555.90314 91.916664L555.90314 90.30729L557.5125 90.30729L557.5125 91.916664L555.90314 91.916664ZM559.21564 81.96354L559.21564 80.604164L566.6219 80.604164L566.6219 81.697914Q565.52814 82.86979 564.45 84.80729Q563.3875 86.729164 562.79376 88.760414Q562.3719 90.197914 562.2625 91.916664L560.8094 91.916664Q560.84064 90.55729 561.34064 88.65104Q561.85626 86.729164 562.79376 84.96354Q563.7469 83.18229 564.825 81.96354L559.21564 81.96354ZM568.3875 83.21354Q568.3875 81.979164 568.9969 81.11979Q569.6219 80.260414 570.79376 80.260414Q571.8719 80.260414 572.575 81.041664Q573.27814 81.80729 573.27814 83.291664Q573.27814 84.74479 572.5594 85.541664Q571.85626 86.322914 570.8094 86.322914Q569.7625 86.322914 569.075 85.55729Q568.3875 84.77604 568.3875 83.21354ZM570.825 81.229164Q570.3094 81.229164 569.95 81.68229Q569.60626 82.135414 569.60626 83.354164Q569.60626 84.447914 569.95 84.90104Q570.3094 85.354164 570.825 85.354164Q571.35626 85.354164 571.7 84.90104Q572.0594 84.447914 572.0594 83.24479Q572.0594 82.135414 571.7 81.68229Q571.35626 81.229164 570.825 81.229164ZM570.84064 92.33854L577.10626 80.260414L578.2469 80.260414L571.9969 92.33854L570.84064 92.33854ZM575.79376 89.229164Q575.79376 87.99479 576.40314 87.135414Q577.02814 86.27604 578.2 86.27604Q579.27814 86.27604 579.98126 87.05729Q580.7 87.822914 580.7 89.30729Q580.7 90.760414 579.98126 91.55729Q579.2625 92.33854 578.21564 92.33854Q577.16876 92.33854 576.48126 91.55729Q575.79376 90.77604 575.79376 89.229164ZM578.2469 87.24479Q577.71564 87.24479 577.35626 87.697914Q577.0125 88.15104 577.0125 89.36979Q577.0125 90.46354 577.35626 90.916664Q577.71564 91.36979 578.23126 91.36979Q578.77814 91.36979 579.1219 90.916664Q579.46564 90.46354 579.46564 89.260414Q579.46564 88.15104 579.10626 87.697914Q578.7625 87.24479 578.2469 87.24479Z" fill-rule="nonzero"/><path stroke="#757575" stroke-width="1.0" stroke-linecap="butt" d="M581.45 75.416664L454.76666 75.416664L311.98547 62.864136" fill-rule="nonzero"/><path fill="#9e9e9e" d="M313.98547 62.864136C313.98547 61.759567 313.09006 60.864136 311.98547 60.864136C310.88092 60.864136 309.98547 61.759567 309.98547 62.864136C309.98547 63.968708 310.88092 64.864136 311.98547 64.864136C313.09006 64.864136 313.98547 63.968708 313.98547 62.864136" fill-rule="nonzero"/><path fill="#efefef" d="M531.6844 300.2162L531.6844 288.76306L536.0125 288.76306Q537.15314 288.76306 537.7469 288.87244Q538.59064 289.01306 539.15314 289.4037Q539.73126 289.7943 540.075 290.51306Q540.4344 291.2162 540.4344 292.07556Q540.4344 293.5287 539.4969 294.5443Q538.575 295.55994 536.1375 295.55994L533.2 295.55994L533.2 300.2162L531.6844 300.2162ZM533.2 294.20056L536.16876 294.20056Q537.6375 294.20056 538.2469 293.6537Q538.8719 293.1068 538.8719 292.12244Q538.8719 291.4037 538.4969 290.88806Q538.1375 290.37244 537.54376 290.2162Q537.16876 290.1068 536.1375 290.1068L533.2 290.1068L533.2 294.20056ZM548.1844 297.5443L549.6375 297.7162Q549.29376 298.99744 548.35626 299.70056Q547.4344 300.4037 545.9969 300.4037Q544.16876 300.4037 543.10626 299.2787Q542.04376 298.1537 542.04376 296.13806Q542.04376 294.0443 543.1219 292.88806Q544.2 291.7318 545.91876 291.7318Q547.575 291.7318 548.6219 292.87244Q549.6844 293.99744 549.6844 296.0443Q549.6844 296.1693 549.6844 296.4193L543.4969 296.4193Q543.575 297.7943 544.2625 298.5287Q544.96564 299.24744 545.9969 299.24744Q546.77814 299.24744 547.325 298.8412Q547.8719 298.43494 548.1844 297.5443ZM543.575 295.26306L548.2 295.26306Q548.10626 294.2162 547.66876 293.70056Q546.9969 292.88806 545.9344 292.88806Q544.96564 292.88806 544.29376 293.5443Q543.6375 294.18494 543.575 295.26306ZM550.98126 296.05994Q550.98126 293.76306 552.2625 292.6537Q553.34064 291.7318 554.8719 291.7318Q556.59064 291.7318 557.66876 292.8568Q558.7625 293.9662 558.7625 295.95056Q558.7625 297.5443 558.27814 298.4662Q557.79376 299.38806 556.8719 299.9037Q555.96564 300.4037 554.8719 300.4037Q553.1375 300.4037 552.0594 299.2943Q550.98126 298.1693 550.98126 296.05994ZM552.4344 296.05994Q552.4344 297.6537 553.1219 298.45056Q553.825 299.24744 554.8719 299.24744Q555.91876 299.24744 556.60626 298.45056Q557.3094 297.6537 557.3094 296.01306Q557.3094 294.4818 556.60626 293.68494Q555.91876 292.88806 554.8719 292.88806Q553.825 292.88806 553.1219 293.68494Q552.4344 294.4662 552.4344 296.05994ZM560.5125 303.4037L560.5125 291.9193L561.79376 291.9193L561.79376 292.99744Q562.2469 292.3568 562.8094 292.0443Q563.3875 291.7318 564.2 291.7318Q565.2625 291.7318 566.075 292.2787Q566.8875 292.82556 567.29376 293.82556Q567.71564 294.80994 567.71564 295.99744Q567.71564 297.2787 567.2469 298.2943Q566.79376 299.30994 565.91876 299.8568Q565.0594 300.4037 564.09064 300.4037Q563.3875 300.4037 562.825 300.1068Q562.27814 299.80994 561.91876 299.3568L561.91876 303.4037L560.5125 303.4037ZM561.77814 296.1068Q561.77814 297.7162 562.41876 298.4818Q563.075 299.24744 563.9969 299.24744Q564.9344 299.24744 565.60626 298.45056Q566.27814 297.6537 566.27814 295.99744Q566.27814 294.4037 565.6219 293.62244Q564.96564 292.82556 564.0594 292.82556Q563.16876 292.82556 562.46564 293.6693Q561.77814 294.51306 561.77814 296.1068ZM569.48126 300.2162L569.48126 288.76306L570.8875 288.76306L570.8875 300.2162L569.48126 300.2162ZM579.1844 297.5443L580.6375 297.7162Q580.29376 298.99744 579.35626 299.70056Q578.4344 300.4037 576.9969 300.4037Q575.16876 300.4037 574.10626 299.2787Q573.04376 298.1537 573.04376 296.13806Q573.04376 294.0443 574.1219 292.88806Q575.2 291.7318 576.91876 291.7318Q578.575 291.7318 579.6219 292.87244Q580.6844 293.99744 580.6844 296.0443Q580.6844 296.1693 580.6844 296.4193L574.4969 296.4193Q574.575 297.7943 575.2625 298.5287Q575.96564 299.24744 576.9969 299.24744Q577.77814 299.24744 578.325 298.8412Q578.8719 298.43494 579.1844 297.5443ZM574.575 295.26306L579.2 295.26306Q579.10626 294.2162 578.66876 293.70056Q577.9969 292.88806 576.9344 292.88806Q575.96564 292.88806 575.29376 293.5443Q574.6375 294.18494 574.575 295.26306Z" fill-rule="nonzero"/><path fill="#9e9e9e" d="M537.21564 312.26306L537.21564 310.9037L544.6219 310.9037L544.6219 311.99744Q543.52814 313.1693 542.45 315.1068Q541.3875 317.0287 540.79376 319.05994Q540.3719 320.49744 540.2625 322.2162L538.8094 322.2162Q538.84064 320.8568 539.34064 318.95056Q539.85626 317.0287 540.79376 315.26306Q541.7469 313.4818 542.825 312.26306L537.21564 312.26306ZM546.1219 316.55994Q546.1219 314.5287 546.52814 313.2943Q546.95 312.05994 547.77814 311.38806Q548.60626 310.7162 549.85626 310.7162Q550.77814 310.7162 551.46564 311.0912Q552.16876 311.45056 552.6219 312.1537Q553.075 312.8568 553.325 313.8568Q553.59064 314.8568 553.59064 316.55994Q553.59064 318.57556 553.16876 319.82556Q552.7625 321.05994 551.9344 321.74744Q551.10626 322.4193 549.85626 322.4193Q548.2 322.4193 547.2469 321.2162Q546.1219 319.7943 546.1219 316.55994ZM547.5594 316.55994Q547.5594 319.38806 548.21564 320.32556Q548.8875 321.24744 549.85626 321.24744Q550.825 321.24744 551.48126 320.30994Q552.1375 319.37244 552.1375 316.55994Q552.1375 313.7318 551.48126 312.80994Q550.825 311.87244 549.84064 311.87244Q548.8719 311.87244 548.29376 312.70056Q547.5594 313.74744 547.5594 316.55994ZM555.90314 322.2162L555.90314 320.6068L557.5125 320.6068L557.5125 322.2162L555.90314 322.2162ZM559.1219 319.18494L560.52814 318.99744Q560.77814 320.20056 561.35626 320.7318Q561.9344 321.24744 562.77814 321.24744Q563.7625 321.24744 564.45 320.55994Q565.1375 319.87244 565.1375 318.8568Q565.1375 317.88806 564.4969 317.26306Q563.8719 316.63806 562.8875 316.63806Q562.4969 316.63806 561.90314 316.7943L562.0594 315.55994Q562.2 315.57556 562.27814 315.57556Q563.1844 315.57556 563.90314 315.1068Q564.6219 314.63806 564.6219 313.6537Q564.6219 312.88806 564.09064 312.38806Q563.575 311.87244 562.7469 311.87244Q561.91876 311.87244 561.3719 312.38806Q560.825 312.9037 560.66876 313.93494L559.2625 313.68494Q559.52814 312.26306 560.4344 311.49744Q561.35626 310.7162 562.71564 310.7162Q563.65314 310.7162 564.4344 311.12244Q565.23126 311.51306 565.6375 312.2162Q566.0594 312.9037 566.0594 313.68494Q566.0594 314.43494 565.65314 315.0443Q565.2625 315.6537 564.48126 316.01306Q565.4969 316.24744 566.0594 316.9818Q566.6219 317.7162 566.6219 318.82556Q566.6219 320.32556 565.52814 321.37244Q564.4344 322.4193 562.7625 322.4193Q561.2625 322.4193 560.2625 321.5287Q559.2625 320.62244 559.1219 319.18494ZM568.3875 313.51306Q568.3875 312.2787 568.9969 311.4193Q569.6219 310.55994 570.79376 310.55994Q571.8719 310.55994 572.575 311.3412Q573.27814 312.1068 573.27814 313.5912Q573.27814 315.0443 572.5594 315.8412Q571.85626 316.62244 570.8094 316.62244Q569.7625 316.62244 569.075 315.8568Q568.3875 315.07556 568.3875 313.51306ZM570.825 311.5287Q570.3094 311.5287 569.95 311.9818Q569.60626 312.43494 569.60626 313.6537Q569.60626 314.74744 569.95 315.20056Q570.3094 315.6537 570.825 315.6537Q571.35626 315.6537 571.7 315.20056Q572.0594 314.74744 572.0594 313.5443Q572.0594 312.43494 571.7 311.9818Q571.35626 311.5287 570.825 311.5287ZM570.84064 322.63806L577.10626 310.55994L578.2469 310.55994L571.9969 322.63806L570.84064 322.63806ZM575.79376 319.5287Q575.79376 318.2943 576.40314 317.43494Q577.02814 316.57556 578.2 316.57556Q579.27814 316.57556 579.98126 317.3568Q580.7 318.12244 580.7 319.6068Q580.7 321.05994 579.98126 321.8568Q579.2625 322.63806 578.21564 322.63806Q577.16876 322.63806 576.48126 321.8568Q575.79376 321.07556 575.79376 319.5287ZM578.2469 317.5443Q577.71564 317.5443 577.35626 317.99744Q577.0125 318.45056 577.0125 319.6693Q577.0125 320.76306 577.35626 321.2162Q577.71564 321.6693 578.23126 321.6693Q578.77814 321.6693 579.1219 321.2162Q579.46564 320.76306 579.46564 319.55994Q579.46564 318.45056 579.10626 317.99744Q578.7625 317.5443 578.2469 317.5443Z" fill-rule="nonzero"/><path stroke="#757575" stroke-width="1.0" stroke-linecap="butt" d="M581.45 305.7162L454.76666 305.7162L397.79056 305.7162" fill-rule="nonzero"/><path fill="#9e9e9e" d="M399.79056 305.7162C399.79056 304.6116 398.89514 303.7162 397.79056 303.7162C396.686 303.7162 395.79056 304.6116 395.79056 305.7162C395.79056 306.82074 396.686 307.7162 397.79056 307.7162C398.89514 307.7162 399.79056 306.82074 399.79056 305.7162" fill-rule="nonzero"/><path fill="#f3f3f3" d="M265.98438 37.55L265.98438 23.2375L268.84375 23.2375L272.21875 33.3625Q272.6875 34.784374 272.90625 35.4875Q273.15625 34.70625 273.67188 33.190624L277.09375 23.2375L279.64062 23.2375L279.64062 37.55L277.82812 37.55L277.82812 25.565624L273.65625 37.55L271.95312 37.55L267.8125 25.3625L267.8125 37.55L265.98438 37.55ZM289.92188 34.20625L291.73438 34.440624Q291.3125 36.01875 290.14062 36.909374Q288.98438 37.784374 287.17188 37.784374Q284.90625 37.784374 283.5625 36.39375Q282.23438 34.9875 282.23438 32.45625Q282.23438 29.83125 283.57812 28.39375Q284.92188 26.940624 287.07812 26.940624Q289.15625 26.940624 290.46875 28.3625Q291.79688 29.76875 291.79688 32.346874Q291.79688 32.503124 291.78125 32.815624L284.04688 32.815624Q284.14062 34.51875 285.01562 35.425Q285.89062 36.33125 287.1875 36.33125Q288.15625 36.33125 288.82812 35.83125Q289.51562 35.315624 289.92188 34.20625ZM284.14062 31.3625L289.9375 31.3625Q289.82812 30.065624 289.28125 29.409374Q288.4375 28.39375 287.09375 28.39375Q285.89062 28.39375 285.0625 29.20625Q284.23438 30.003124 284.14062 31.3625ZM300.54688 37.55L300.54688 36.2375Q299.5625 37.784374 297.64062 37.784374Q296.40625 37.784374 295.35938 37.096874Q294.32812 36.409374 293.75 35.190624Q293.1875 33.971874 293.1875 32.378124Q293.1875 30.815624 293.70312 29.55Q294.21875 28.284374 295.25 27.6125Q296.29688 26.940624 297.5625 26.940624Q298.5 26.940624 299.23438 27.346874Q299.96875 27.7375 300.4375 28.3625L300.4375 23.2375L302.17188 23.2375L302.17188 37.55L300.54688 37.55ZM294.98438 32.378124Q294.98438 34.3625 295.82812 35.346874Q296.67188 36.33125 297.8125 36.33125Q298.96875 36.33125 299.76562 35.39375Q300.57812 34.45625 300.57812 32.51875Q300.57812 30.39375 299.75 29.39375Q298.9375 28.39375 297.73438 28.39375Q296.5625 28.39375 295.76562 29.3625Q294.98438 30.315624 294.98438 32.378124ZM304.82812 25.253124L304.82812 23.2375L306.59375 23.2375L306.59375 25.253124L304.82812 25.253124ZM304.82812 37.55L304.82812 27.175L306.59375 27.175L306.59375 37.55L304.82812 37.55ZM315.60938 37.55L315.60938 36.01875Q314.40625 37.784374 312.32812 37.784374Q311.40625 37.784374 310.60938 37.440624Q309.8125 37.08125 309.42188 36.55Q309.04688 36.01875 308.89062 35.2375Q308.78125 34.721874 308.78125 33.596874L308.78125 27.175L310.53125 27.175L310.53125 32.925Q310.53125 34.3 310.64062 34.784374Q310.8125 35.471874 311.34375 35.878124Q311.89062 36.26875 312.67188 36.26875Q313.46875 36.26875 314.15625 35.8625Q314.85938 35.45625 315.14062 34.76875Q315.4375 34.065624 315.4375 32.7375L315.4375 27.175L317.1875 27.175L317.1875 37.55L315.60938 37.55ZM319.8125 37.55L319.8125 27.175L321.39062 27.175L321.39062 28.628124Q321.875 27.878124 322.6875 27.409374Q323.5 26.940624 324.53125 26.940624Q325.6875 26.940624 326.42188 27.425Q327.15625 27.89375 327.46875 28.753124Q328.70312 26.940624 330.67188 26.940624Q332.21875 26.940624 333.04688 27.8Q333.875 28.659374 333.875 30.425L333.875 37.55L332.125 37.55L332.125 31.01875Q332.125 29.95625 331.95312 29.503124Q331.78125 29.034374 331.32812 28.753124Q330.89062 28.471874 330.28125 28.471874Q329.1875 28.471874 328.45312 29.20625Q327.73438 29.925 327.73438 31.51875L327.73438 37.55L325.98438 37.55L325.98438 30.815624Q325.98438 29.64375 325.54688 29.065624Q325.125 28.471874 324.14062 28.471874Q323.40625 28.471874 322.76562 28.8625Q322.14062 29.253124 321.85938 30.003124Q321.57812 30.753124 321.57812 32.175L321.57812 37.55L319.8125 37.55Z" fill-rule="nonzero"/></svg>