<svg version="1.1" viewBox="0.0 0.0 600.0 371.0" fill="none" stroke="none" stroke-linecap="square" stroke-miterlimit="10" width="600" height="371" xmlns:xlink="http://www.w3.org/1999/xlink" xmlns="http://www.w3.org/2000/svg"><path fill="#ffffff" fill-opacity="0.0" d="M0 0L600.0 0L600.0 371.0L0 371.0L0 0Z" fill-rule="nonzero"/><path fill="#d8753e" d="M171.16429 278.06668C144.58968 232.0381 144.58968 175.32857 171.16429 129.3C197.73889 83.27143 246.85078 54.916668 300.0 54.916668L300.0 129.3C273.42538 129.3 248.86945 143.47739 235.58214 166.49167C222.29485 189.50595 222.29485 217.86072 235.58214 240.875Z" fill-rule="nonzero"/><path fill="#78a94e" d="M300.0 54.916668C372.19553 54.916668 433.96994 106.751564 446.50656 177.85027C459.04318 248.94897 418.72278 318.78595 350.8812 343.47827C283.0396 368.1706 207.26204 340.5898 171.16429 278.06668L235.58214 240.875C253.63103 272.13657 291.5198 285.92697 325.4406 273.5808C359.3614 261.23465 379.5216 226.31616 373.2533 190.7668C366.985 155.21745 336.09775 129.3 300.0 129.3Z" fill-rule="nonzero"/><path fill="#ffffff" d="M380.0799 256.23645L378.5174 256.36145Q378.29865 255.43958 377.90802 255.0177Q377.2674 254.3302 376.3299 254.3302Q375.5799 254.3302 375.00177 254.75208Q374.25177 255.29895 373.81427 256.34583Q373.3924 257.3927 373.37677 259.3302Q373.9549 258.4552 374.7674 258.03333Q375.59552 257.61145 376.50177 257.61145Q378.09552 257.61145 379.2049 258.78333Q380.31427 259.93958 380.31427 261.78333Q380.31427 263.00208 379.78302 264.04895Q379.2674 265.0802 378.34552 265.6427Q377.43927 266.18958 376.28302 266.18958Q374.29865 266.18958 373.04865 264.73645Q371.79865 263.28333 371.79865 259.93958Q371.79865 256.2052 373.18927 254.50208Q374.3924 253.03333 376.42365 253.03333Q377.9549 253.03333 378.92365 253.8927Q379.8924 254.73645 380.0799 256.23645ZM373.62677 261.79895Q373.62677 262.61145 373.97052 263.36145Q374.31427 264.11145 374.93927 264.50208Q375.56427 264.8927 376.25177 264.8927Q377.25177 264.8927 377.97052 264.0802Q378.68927 263.2677 378.68927 261.87708Q378.68927 260.54895 377.97052 259.78333Q377.2674 259.00208 376.18927 259.00208Q375.11115 259.00208 374.36115 259.78333Q373.62677 260.54895 373.62677 261.79895ZM390.0799 256.23645L388.5174 256.36145Q388.29865 255.43958 387.90802 255.0177Q387.2674 254.3302 386.3299 254.3302Q385.5799 254.3302 385.00177 254.75208Q384.25177 255.29895 383.81427 256.34583Q383.3924 257.3927 383.37677 259.3302Q383.9549 258.4552 384.7674 258.03333Q385.59552 257.61145 386.50177 257.61145Q388.09552 257.61145 389.2049 258.78333Q390.31427 259.93958 390.31427 261.78333Q390.31427 263.00208 389.78302 264.04895Q389.2674 265.0802 388.34552 265.6427Q387.43927 266.18958 386.28302 266.18958Q384.29865 266.18958 383.04865 264.73645Q381.79865 263.28333 381.79865 259.93958Q381.79865 256.2052 383.18927 254.50208Q384.3924 253.03333 386.42365 253.03333Q387.9549 253.03333 388.92365 253.8927Q389.8924 254.73645 390.0799 256.23645ZM383.62677 261.79895Q383.62677 262.61145 383.97052 263.36145Q384.31427 264.11145 384.93927 264.50208Q385.56427 264.8927 386.25177 264.8927Q387.25177 264.8927 387.97052 264.0802Q388.68927 263.2677 388.68927 261.87708Q388.68927 260.54895 387.97052 259.78333Q387.2674 259.00208 386.18927 259.00208Q385.11115 259.00208 384.36115 259.78333Q383.62677 260.54895 383.62677 261.79895ZM392.7674 265.97083L392.7674 264.17395L394.56427 264.17395L394.56427 265.97083L392.7674 265.97083ZM396.98615 254.7677L396.98615 253.25208L405.31427 253.25208L405.31427 254.48645Q404.09552 255.79895 402.87677 257.97083Q401.67365 260.12708 401.0174 262.42395Q400.53302 264.04895 400.40802 265.97083L398.78302 265.97083Q398.81427 264.4552 399.37677 262.29895Q399.9549 260.1427 401.0174 258.1427Q402.0799 256.1427 403.28302 254.7677L396.98615 254.7677ZM407.17365 256.17395Q407.17365 254.79895 407.86115 253.8302Q408.56427 252.86145 409.87677 252.86145Q411.09552 252.86145 411.8924 253.73645Q412.68927 254.59583 412.68927 256.28333Q412.68927 257.90833 411.87677 258.79895Q411.0799 259.67395 409.8924 259.67395Q408.73615 259.67395 407.9549 258.81458Q407.17365 257.93958 407.17365 256.17395ZM409.92365 253.9552Q409.3299 253.9552 408.93927 254.47083Q408.54865 254.97083 408.54865 256.3302Q408.54865 257.5802 408.93927 258.0802Q409.34552 258.5802 409.92365 258.5802Q410.5174 258.5802 410.90802 258.0802Q411.29865 257.56458 411.29865 256.22083Q411.29865 254.97083 410.90802 254.47083Q410.5174 253.9552 409.92365 253.9552ZM409.93927 266.43958L416.98615 252.86145L418.2674 252.86145L411.23615 266.43958L409.93927 266.43958ZM415.50177 262.93958Q415.50177 261.56458 416.18927 260.59583Q416.8924 259.62708 418.22052 259.62708Q419.43927 259.62708 420.22052 260.50208Q421.0174 261.36145 421.0174 263.04895Q421.0174 264.67395 420.22052 265.56458Q419.42365 266.43958 418.23615 266.43958Q417.06427 266.43958 416.28302 265.56458Q415.50177 264.68958 415.50177 262.93958ZM418.2674 260.72083Q417.67365 260.72083 417.28302 261.23645Q416.8924 261.73645 416.8924 263.11145Q416.8924 264.3302 417.28302 264.84583Q417.67365 265.36145 418.25177 265.36145Q418.86115 265.36145 419.25177 264.84583Q419.6424 264.3302 419.6424 262.98645Q419.6424 261.73645 419.25177 261.23645Q418.86115 260.72083 418.2674 260.72083Z" fill-rule="nonzero"/><path fill="#ffffff" d="M178.62321 150.98958L180.21696 150.78645Q180.48259 152.1302 181.13884 152.72395Q181.79509 153.3177 182.73259 153.3177Q183.85759 153.3177 184.62321 152.55208Q185.38884 151.77083 185.38884 150.6302Q185.38884 149.53645 184.67009 148.83333Q183.96696 148.11458 182.87321 148.11458Q182.42009 148.11458 181.74821 148.30208L181.92009 146.91145Q182.07634 146.92708 182.18571 146.92708Q183.18571 146.92708 183.99821 146.39583Q184.81071 145.86458 184.81071 144.77083Q184.81071 143.89583 184.21696 143.33333Q183.62321 142.7552 182.70134 142.7552Q181.77946 142.7552 181.15446 143.33333Q180.54509 143.91145 180.37321 145.08333L178.79509 144.80208Q179.07634 143.20833 180.10759 142.33333Q181.13884 141.45833 182.67009 141.45833Q183.71696 141.45833 184.60759 141.91145Q185.49821 142.36458 185.96696 143.14583Q186.43571 143.92708 186.43571 144.80208Q186.43571 145.64583 185.98259 146.33333Q185.54509 147.0052 184.65446 147.41145Q185.79509 147.67708 186.42009 148.52083Q187.06071 149.34895 187.06071 150.58333Q187.06071 152.27083 185.82634 153.45833Q184.60759 154.6302 182.73259 154.6302Q181.02946 154.6302 179.90446 153.61458Q178.79509 152.59895 178.62321 150.98958ZM188.62321 150.98958L190.21696 150.78645Q190.48259 152.1302 191.13884 152.72395Q191.79509 153.3177 192.73259 153.3177Q193.85759 153.3177 194.62321 152.55208Q195.38884 151.77083 195.38884 150.6302Q195.38884 149.53645 194.67009 148.83333Q193.96696 148.11458 192.87321 148.11458Q192.42009 148.11458 191.74821 148.30208L191.92009 146.91145Q192.07634 146.92708 192.18571 146.92708Q193.18571 146.92708 193.99821 146.39583Q194.81071 145.86458 194.81071 144.77083Q194.81071 143.89583 194.21696 143.33333Q193.62321 142.7552 192.70134 142.7552Q191.77946 142.7552 191.15446 143.33333Q190.54509 143.91145 190.37321 145.08333L188.79509 144.80208Q189.07634 143.20833 190.10759 142.33333Q191.13884 141.45833 192.67009 141.45833Q193.71696 141.45833 194.60759 141.91145Q195.49821 142.36458 195.96696 143.14583Q196.43571 143.92708 196.43571 144.80208Q196.43571 145.64583 195.98259 146.33333Q195.54509 147.0052 194.65446 147.41145Q195.79509 147.67708 196.42009 148.52083Q197.06071 149.34895 197.06071 150.58333Q197.06071 152.27083 195.82634 153.45833Q194.60759 154.6302 192.73259 154.6302Q191.02946 154.6302 189.90446 153.61458Q188.79509 152.59895 188.62321 150.98958ZM199.51384 154.39583L199.51384 152.59895L201.31071 152.59895L201.31071 154.39583L199.51384 154.39583ZM203.62321 150.98958L205.21696 150.78645Q205.48259 152.1302 206.13884 152.72395Q206.79509 153.3177 207.73259 153.3177Q208.85759 153.3177 209.62321 152.55208Q210.38884 151.77083 210.38884 150.6302Q210.38884 149.53645 209.67009 148.83333Q208.96696 148.11458 207.87321 148.11458Q207.42009 148.11458 206.74821 148.30208L206.92009 146.91145Q207.07634 146.92708 207.18571 146.92708Q208.18571 146.92708 208.99821 146.39583Q209.81071 145.86458 209.81071 144.77083Q209.81071 143.89583 209.21696 143.33333Q208.62321 142.7552 207.70134 142.7552Q206.77946 142.7552 206.15446 143.33333Q205.54509 143.91145 205.37321 145.08333L203.79509 144.80208Q204.07634 143.20833 205.10759 142.33333Q206.13884 141.45833 207.67009 141.45833Q208.71696 141.45833 209.60759 141.91145Q210.49821 142.36458 210.96696 143.14583Q211.43571 143.92708 211.43571 144.80208Q211.43571 145.64583 210.98259 146.33333Q210.54509 147.0052 209.65446 147.41145Q210.79509 147.67708 211.42009 148.52083Q212.06071 149.34895 212.06071 150.58333Q212.06071 152.27083 210.82634 153.45833Q209.60759 154.6302 207.73259 154.6302Q206.02946 154.6302 204.90446 153.61458Q203.79509 152.59895 203.62321 150.98958ZM213.92009 144.59895Q213.92009 143.22395 214.60759 142.2552Q215.31071 141.28645 216.62321 141.28645Q217.84196 141.28645 218.63884 142.16145Q219.43571 143.02083 219.43571 144.70833Q219.43571 146.33333 218.62321 147.22395Q217.82634 148.09895 216.63884 148.09895Q215.48259 148.09895 214.70134 147.23958Q213.92009 146.36458 213.92009 144.59895ZM216.67009 142.3802Q216.07634 142.3802 215.68571 142.89583Q215.29509 143.39583 215.29509 144.7552Q215.29509 146.0052 215.68571 146.5052Q216.09196 147.0052 216.67009 147.0052Q217.26384 147.0052 217.65446 146.5052Q218.04509 145.98958 218.04509 144.64583Q218.04509 143.39583 217.65446 142.89583Q217.26384 142.3802 216.67009 142.3802ZM216.68571 154.86458L223.73259 141.28645L225.01384 141.28645L217.98259 154.86458L216.68571 154.86458ZM222.24821 151.36458Q222.24821 149.98958 222.93571 149.02083Q223.63884 148.05208 224.96696 148.05208Q226.18571 148.05208 226.96696 148.92708Q227.76384 149.78645 227.76384 151.47395Q227.76384 153.09895 226.96696 153.98958Q226.17009 154.86458 224.98259 154.86458Q223.81071 154.86458 223.02946 153.98958Q222.24821 153.11458 222.24821 151.36458ZM225.01384 149.14583Q224.42009 149.14583 224.02946 149.66145Q223.63884 150.16145 223.63884 151.53645Q223.63884 152.7552 224.02946 153.27083Q224.42009 153.78645 224.99821 153.78645Q225.60759 153.78645 225.99821 153.27083Q226.38884 152.7552 226.38884 151.41145Q226.38884 150.16145 225.99821 149.66145Q225.60759 149.14583 225.01384 149.14583Z" fill-rule="nonzero"/><path stroke="#ffffff" stroke-width="1.0" stroke-linejoin="round" stroke-linecap="round" d="M235.58214 240.875C253.63103 272.13657 291.5198 285.92697 325.4406 273.5808C359.3614 261.23465 379.5216 226.31616 373.2533 190.7668C366.985 155.21745 336.09775 129.3 300.0 129.3L300.0 54.916668C372.19553 54.916668 433.96994 106.751564 446.50656 177.85027C459.04318 248.94897 418.72278 318.78595 350.8812 343.47827C283.0396 368.1706 207.26204 340.5898 171.16429 278.06668" fill-rule="nonzero"/><path stroke="#ffffff" stroke-width="1.0" stroke-linejoin="round" stroke-linecap="round" d="M300.0 129.3C273.42538 129.3 248.86945 143.47739 235.58214 166.49167C222.29485 189.50595 222.29485 217.86072 235.58214 240.875L171.16429 278.06668C144.58968 232.0381 144.58968 175.32857 171.16429 129.3C197.73889 83.27143 246.85078 54.916668 300.0 54.916668" fill-rule="nonzero"/><path fill="#efefef" d="M18.51875 127.519165L22.925 116.06604L24.565624 116.06604L29.253124 127.519165L27.51875 127.519165L26.190624 124.050415L21.39375 124.050415L20.14375 127.519165L18.51875 127.519165ZM21.83125 122.81604L25.721874 122.81604L24.51875 119.644165Q23.971874 118.19104 23.70625 117.269165Q23.4875 118.362915 23.096874 119.456665L21.83125 122.81604ZM30.596874 127.519165L30.596874 119.22229L31.8625 119.22229L31.8625 120.47229Q32.346874 119.59729 32.753124 119.31604Q33.159374 119.03479 33.659374 119.03479Q34.3625 119.03479 35.096874 119.487915L34.6125 120.78479Q34.096874 120.487915 33.58125 120.487915Q33.128124 120.487915 32.753124 120.769165Q32.39375 121.03479 32.2375 121.53479Q32.003124 122.28479 32.003124 123.175415L32.003124 127.519165L30.596874 127.519165ZM38.675 126.25354L38.878124 127.50354Q38.284374 127.62854 37.815624 127.62854Q37.05 127.62854 36.628124 127.394165Q36.20625 127.144165 36.034374 126.75354Q35.8625 126.34729 35.8625 125.081665L35.8625 120.31604L34.83125 120.31604L34.83125 119.22229L35.8625 119.22229L35.8625 117.15979L37.26875 116.31604L37.26875 119.22229L38.675 119.22229L38.675 120.31604L37.26875 120.31604L37.26875 125.15979Q37.26875 125.769165 37.33125 125.94104Q37.409374 126.112915 37.58125 126.22229Q37.753124 126.31604 38.065624 126.31604Q38.3 126.31604 38.675 126.25354ZM39.05 125.03479L40.440624 124.81604Q40.55 125.65979 41.08125 126.112915Q41.628124 126.550415 42.58125 126.550415Q43.55 126.550415 44.01875 126.15979Q44.4875 125.75354 44.4875 125.22229Q44.4875 124.75354 44.08125 124.47229Q43.784374 124.28479 42.64375 124.00354Q41.096874 123.612915 40.4875 123.331665Q39.89375 123.03479 39.58125 122.53479Q39.284374 122.03479 39.284374 121.425415Q39.284374 120.862915 39.534374 120.394165Q39.784374 119.925415 40.221874 119.612915Q40.55 119.362915 41.1125 119.206665Q41.690624 119.03479 42.33125 119.03479Q43.315624 119.03479 44.05 119.31604Q44.784374 119.59729 45.128124 120.081665Q45.4875 120.550415 45.628124 121.362915L44.253124 121.550415Q44.159374 120.90979 43.70625 120.550415Q43.253124 120.19104 42.440624 120.19104Q41.471874 120.19104 41.05 120.519165Q40.64375 120.831665 40.64375 121.25354Q40.64375 121.53479 40.815624 121.75354Q40.9875 121.97229 41.346874 122.12854Q41.565624 122.206665 42.596874 122.487915Q44.08125 122.87854 44.675 123.144165Q45.26875 123.394165 45.596874 123.87854Q45.940624 124.362915 45.940624 125.081665Q45.940624 125.78479 45.51875 126.40979Q45.1125 127.019165 44.33125 127.362915Q43.565624 127.706665 42.596874 127.706665Q40.971874 127.706665 40.128124 127.03479Q39.284374 126.362915 39.05 125.03479ZM58.159374 126.15979Q57.45625 126.94104 56.628124 127.331665Q55.815624 127.72229 54.8625 127.72229Q53.1125 127.72229 52.08125 126.519165Q51.2375 125.550415 51.2375 124.362915Q51.2375 123.300415 51.925 122.44104Q52.6125 121.581665 53.971874 120.94104Q53.190624 120.050415 52.925 119.50354Q52.675 118.94104 52.675 118.425415Q52.675 117.394165 53.4875 116.62854Q54.3 115.862915 55.51875 115.862915Q56.690624 115.862915 57.440624 116.581665Q58.190624 117.300415 58.190624 118.31604Q58.190624 119.94104 56.01875 121.09729L58.08125 123.72229Q58.425 123.03479 58.628124 122.12854L60.08125 122.44104Q59.70625 123.94104 59.065624 124.90979Q59.8625 125.956665 60.8625 126.65979L59.909374 127.78479Q59.065624 127.237915 58.159374 126.15979ZM55.3 120.19104Q56.20625 119.65979 56.471874 119.25354Q56.753124 118.84729 56.753124 118.34729Q56.753124 117.769165 56.378124 117.394165Q56.003124 117.019165 55.45625 117.019165Q54.878124 117.019165 54.503124 117.394165Q54.128124 117.75354 54.128124 118.28479Q54.128124 118.550415 54.253124 118.84729Q54.39375 119.144165 54.675 119.47229L55.3 120.19104ZM57.26875 125.050415L54.690624 121.862915Q53.55 122.53479 53.14375 123.12854Q52.753124 123.706665 52.753124 124.269165Q52.753124 124.97229 53.3 125.72229Q53.8625 126.47229 54.878124 126.47229Q55.51875 126.47229 56.190624 126.081665Q56.8625 125.675415 57.26875 125.050415ZM65.51875 127.519165L69.925 116.06604L71.56563 116.06604L76.25313 127.519165L74.51875 127.519165L73.19063 124.050415L68.39375 124.050415L67.14375 127.519165L65.51875 127.519165ZM68.83125 122.81604L72.72188 122.81604L71.51875 119.644165Q70.97188 118.19104 70.70625 117.269165Q70.4875 118.362915 70.09688 119.456665L68.83125 122.81604ZM77.6125 127.519165L77.6125 119.22229L78.87813 119.22229L78.87813 120.394165Q79.78438 119.03479 81.51875 119.03479Q82.26875 119.03479 82.89375 119.300415Q83.51875 119.56604 83.83125 120.00354Q84.14375 120.44104 84.26875 121.050415Q84.34688 121.44104 84.34688 122.40979L84.34688 127.519165L82.94063 127.519165L82.94063 122.47229Q82.94063 121.612915 82.76875 121.19104Q82.6125 120.75354 82.19063 120.50354Q81.78438 120.25354 81.22188 120.25354Q80.31563 120.25354 79.65938 120.831665Q79.01875 121.394165 79.01875 122.987915L79.01875 127.519165L77.6125 127.519165ZM89.675 126.25354L89.87813 127.50354Q89.28438 127.62854 88.81563 127.62854Q88.05 127.62854 87.62813 127.394165Q87.20625 127.144165 87.03438 126.75354Q86.8625 126.34729 86.8625 125.081665L86.8625 120.31604L85.83125 120.31604L85.83125 119.22229L86.8625 119.22229L86.8625 117.15979L88.26875 116.31604L88.26875 119.22229L89.675 119.22229L89.675 120.31604L88.26875 120.31604L88.26875 125.15979Q88.26875 125.769165 88.33125 125.94104Q88.40938 126.112915 88.58125 126.22229Q88.75313 126.31604 89.06563 126.31604Q89.3 126.31604 89.675 126.25354ZM90.6125 117.675415L90.6125 116.06604L92.01875 116.06604L92.01875 117.675415L90.6125 117.675415ZM90.6125 127.519165L90.6125 119.22229L92.01875 119.22229L92.01875 127.519165L90.6125 127.519165ZM99.89375 130.70667L99.89375 126.62854Q99.56563 127.09729 98.97188 127.40979Q98.39375 127.706665 97.72188 127.706665Q96.25313 127.706665 95.175 126.53479Q94.1125 125.34729 94.1125 123.28479Q94.1125 122.03479 94.55 121.050415Q94.9875 120.050415 95.8 119.550415Q96.62813 119.03479 97.6125 119.03479Q99.15938 119.03479 100.03438 120.331665L100.03438 119.22229L101.3 119.22229L101.3 130.70667L99.89375 130.70667ZM95.56563 123.34729Q95.56563 124.94104 96.2375 125.75354Q96.90938 126.550415 97.84688 126.550415Q98.7375 126.550415 99.37813 125.78479Q100.03438 125.019165 100.03438 123.47229Q100.03438 121.81604 99.34688 120.987915Q98.675 120.144165 97.75313 120.144165Q96.83125 120.144165 96.19063 120.925415Q95.56563 121.69104 95.56563 123.34729ZM109.05 127.519165L109.05 126.300415Q108.08125 127.706665 106.40938 127.706665Q105.675 127.706665 105.03438 127.425415Q104.40938 127.144165 104.09688 126.72229Q103.78438 126.28479 103.65938 125.675415Q103.58125 125.25354 103.58125 124.362915L103.58125 119.22229L104.9875 119.22229L104.9875 123.81604Q104.9875 124.925415 105.06563 125.300415Q105.20625 125.862915 105.62813 126.175415Q106.06563 126.487915 106.69063 126.487915Q107.33125 126.487915 107.87813 126.175415Q108.44063 125.84729 108.65938 125.28479Q108.89375 124.72229 108.89375 123.65979L108.89375 119.22229L110.3 119.22229L110.3 127.519165L109.05 127.519165ZM112.6125 117.675415L112.6125 116.06604L114.01875 116.06604L114.01875 117.675415L112.6125 117.675415ZM112.6125 127.519165L112.6125 119.22229L114.01875 119.22229L114.01875 127.519165L112.6125 127.519165ZM119.675 126.25354L119.87813 127.50354Q119.28438 127.62854 118.81563 127.62854Q118.05 127.62854 117.62813 127.394165Q117.20625 127.144165 117.03438 126.75354Q116.8625 126.34729 116.8625 125.081665L116.8625 120.31604L115.83125 120.31604L115.83125 119.22229L116.8625 119.22229L116.8625 117.15979L118.26875 116.31604L118.26875 119.22229L119.675 119.22229L119.675 120.31604L118.26875 120.31604L118.26875 125.15979Q118.26875 125.769165 118.33125 125.94104Q118.40938 126.112915 118.58125 126.22229Q118.75313 126.31604 119.06563 126.31604Q119.3 126.31604 119.675 126.25354ZM120.6125 117.675415L120.6125 116.06604L122.01875 116.06604L122.01875 117.675415L120.6125 117.675415ZM120.6125 127.519165L120.6125 119.22229L122.01875 119.22229L122.01875 127.519165L120.6125 127.519165ZM130.28438 124.84729L131.7375 125.019165Q131.39375 126.300415 130.45625 127.00354Q129.53438 127.706665 128.09688 127.706665Q126.26875 127.706665 125.20625 126.581665Q124.14375 125.456665 124.14375 123.44104Q124.14375 121.34729 125.22188 120.19104Q126.3 119.03479 128.01875 119.03479Q129.675 119.03479 130.72188 120.175415Q131.78438 121.300415 131.78438 123.34729Q131.78438 123.47229 131.78438 123.72229L125.59688 123.72229Q125.675 125.09729 126.3625 125.831665Q127.06563 126.550415 128.09688 126.550415Q128.87813 126.550415 129.425 126.144165Q129.97188 125.737915 130.28438 124.84729ZM125.675 122.56604L130.3 122.56604Q130.20625 121.519165 129.76875 121.00354Q129.09688 120.19104 128.03438 120.19104Q127.06563 120.19104 126.39375 120.84729Q125.7375 121.487915 125.675 122.56604ZM133.05 125.03479L134.44063 124.81604Q134.55 125.65979 135.08125 126.112915Q135.62813 126.550415 136.58125 126.550415Q137.55 126.550415 138.01875 126.15979Q138.4875 125.75354 138.4875 125.22229Q138.4875 124.75354 138.08125 124.47229Q137.78438 124.28479 136.64375 124.00354Q135.09688 123.612915 134.4875 123.331665Q133.89375 123.03479 133.58125 122.53479Q133.28438 122.03479 133.28438 121.425415Q133.28438 120.862915 133.53438 120.394165Q133.78438 119.925415 134.22188 119.612915Q134.55 119.362915 135.1125 119.206665Q135.69063 119.03479 136.33125 119.03479Q137.31563 119.03479 138.05 119.31604Q138.78438 119.59729 139.12813 120.081665Q139.4875 120.550415 139.62813 121.362915L138.25313 121.550415Q138.15938 120.90979 137.70625 120.550415Q137.25313 120.19104 136.44063 120.19104Q135.47188 120.19104 135.05 120.519165Q134.64375 120.831665 134.64375 121.25354Q134.64375 121.53479 134.81563 121.75354Q134.9875 121.97229 135.34688 122.12854Q135.56563 122.206665 136.59688 122.487915Q138.08125 122.87854 138.675 123.144165Q139.26875 123.394165 139.59688 123.87854Q139.94063 124.362915 139.94063 125.081665Q139.94063 125.78479 139.51875 126.40979Q139.1125 127.019165 138.33125 127.362915Q137.56563 127.706665 136.59688 127.706665Q134.97188 127.706665 134.12813 127.03479Q133.28438 126.362915 133.05 125.03479Z" fill-rule="nonzero"/><path fill="#9e9e9e" d="M19.221874 146.48792L20.628124 146.30042Q20.878124 147.50354 21.45625 148.03479Q22.034374 148.55042 22.878124 148.55042Q23.8625 148.55042 24.55 147.86292Q25.2375 147.17542 25.2375 146.15979Q25.2375 145.19104 24.596874 144.56604Q23.971874 143.94104 22.9875 143.94104Q22.596874 143.94104 22.003124 144.09729L22.159374 142.86292Q22.3 142.87854 22.378124 142.87854Q23.284374 142.87854 24.003124 142.40979Q24.721874 141.94104 24.721874 140.95667Q24.721874 140.19104 24.190624 139.69104Q23.675 139.17542 22.846874 139.17542Q22.01875 139.17542 21.471874 139.69104Q20.925 140.20667 20.76875 141.23792L19.3625 140.98792Q19.628124 139.56604 20.534374 138.80042Q21.45625 138.01917 22.815624 138.01917Q23.753124 138.01917 24.534374 138.42542Q25.33125 138.81604 25.7375 139.51917Q26.159374 140.20667 26.159374 140.98792Q26.159374 141.73792 25.753124 142.34729Q25.3625 142.95667 24.58125 143.31604Q25.596874 143.55042 26.159374 144.28479Q26.721874 145.01917 26.721874 146.12854Q26.721874 147.62854 25.628124 148.67542Q24.534374 149.72229 22.8625 149.72229Q21.3625 149.72229 20.3625 148.83167Q19.3625 147.92542 19.221874 146.48792ZM28.221874 146.48792L29.628124 146.30042Q29.878124 147.50354 30.45625 148.03479Q31.034374 148.55042 31.878124 148.55042Q32.8625 148.55042 33.55 147.86292Q34.2375 147.17542 34.2375 146.15979Q34.2375 145.19104 33.596874 144.56604Q32.971874 143.94104 31.9875 143.94104Q31.596874 143.94104 31.003124 144.09729L31.159374 142.86292Q31.3 142.87854 31.378124 142.87854Q32.284374 142.87854 33.003124 142.40979Q33.721874 141.94104 33.721874 140.95667Q33.721874 140.19104 33.190624 139.69104Q32.675 139.17542 31.846874 139.17542Q31.01875 139.17542 30.471874 139.69104Q29.925 140.20667 29.76875 141.23792L28.3625 140.98792Q28.628124 139.56604 29.534374 138.80042Q30.45625 138.01917 31.815624 138.01917Q32.753124 138.01917 33.534374 138.42542Q34.33125 138.81604 34.7375 139.51917Q35.159374 140.20667 35.159374 140.98792Q35.159374 141.73792 34.753124 142.34729Q34.3625 142.95667 33.58125 143.31604Q34.596874 143.55042 35.159374 144.28479Q35.721874 145.01917 35.721874 146.12854Q35.721874 147.62854 34.628124 148.67542Q33.534374 149.72229 31.8625 149.72229Q30.3625 149.72229 29.3625 148.83167Q28.3625 147.92542 28.221874 146.48792ZM38.003124 149.51917L38.003124 147.90979L39.6125 147.90979L39.6125 149.51917L38.003124 149.51917ZM41.221874 146.48792L42.628124 146.30042Q42.878124 147.50354 43.45625 148.03479Q44.034374 148.55042 44.878124 148.55042Q45.8625 148.55042 46.55 147.86292Q47.2375 147.17542 47.2375 146.15979Q47.2375 145.19104 46.596874 144.56604Q45.971874 143.94104 44.9875 143.94104Q44.596874 143.94104 44.003124 144.09729L44.159374 142.86292Q44.3 142.87854 44.378124 142.87854Q45.284374 142.87854 46.003124 142.40979Q46.721874 141.94104 46.721874 140.95667Q46.721874 140.19104 46.190624 139.69104Q45.675 139.17542 44.846874 139.17542Q44.01875 139.17542 43.471874 139.69104Q42.925 140.20667 42.76875 141.23792L41.3625 140.98792Q41.628124 139.56604 42.534374 138.80042Q43.45625 138.01917 44.815624 138.01917Q45.753124 138.01917 46.534374 138.42542Q47.33125 138.81604 47.7375 139.51917Q48.159374 140.20667 48.159374 140.98792Q48.159374 141.73792 47.753124 142.34729Q47.3625 142.95667 46.58125 143.31604Q47.596874 143.55042 48.159374 144.28479Q48.721874 145.01917 48.721874 146.12854Q48.721874 147.62854 47.628124 148.67542Q46.534374 149.72229 44.8625 149.72229Q43.3625 149.72229 42.3625 148.83167Q41.3625 147.92542 41.221874 146.48792ZM50.4875 140.81604Q50.4875 139.58167 51.096874 138.72229Q51.721874 137.86292 52.89375 137.86292Q53.971874 137.86292 54.675 138.64417Q55.378124 139.40979 55.378124 140.89417Q55.378124 142.34729 54.659374 143.14417Q53.95625 143.92542 52.909374 143.92542Q51.8625 143.92542 51.175 143.15979Q50.4875 142.37854 50.4875 140.81604ZM52.925 138.83167Q52.409374 138.83167 52.05 139.28479Q51.70625 139.73792 51.70625 140.95667Q51.70625 142.05042 52.05 142.50354Q52.409374 142.95667 52.925 142.95667Q53.45625 142.95667 53.8 142.50354Q54.159374 142.05042 54.159374 140.84729Q54.159374 139.73792 53.8 139.28479Q53.45625 138.83167 52.925 138.83167ZM52.940624 149.94104L59.20625 137.86292L60.346874 137.86292L54.096874 149.94104L52.940624 149.94104ZM57.89375 146.83167Q57.89375 145.59729 58.503124 144.73792Q59.128124 143.87854 60.3 143.87854Q61.378124 143.87854 62.08125 144.65979Q62.8 145.42542 62.8 146.90979Q62.8 148.36292 62.08125 149.15979Q61.3625 149.94104 60.315624 149.94104Q59.26875 149.94104 58.58125 149.15979Q57.89375 148.37854 57.89375 146.83167ZM60.346874 144.84729Q59.815624 144.84729 59.45625 145.30042Q59.1125 145.75354 59.1125 146.97229Q59.1125 148.06604 59.45625 148.51917Q59.815624 148.97229 60.33125 148.97229Q60.878124 148.97229 61.221874 148.51917Q61.565624 148.06604 61.565624 146.86292Q61.565624 145.75354 61.20625 145.30042Q60.8625 144.84729 60.346874 144.84729Z" fill-rule="nonzero"/><path stroke="#757575" stroke-width="1.0" stroke-linecap="butt" d="M18.55 133.01917L145.23334 133.01917L177.60608 133.01917" fill-rule="nonzero"/><path fill="#9e9e9e" d="M179.60608 133.01917C179.60608 131.9146 178.71065 131.01917 177.60608 131.01917C176.50151 131.01917 175.60608 131.9146 175.60608 133.01917C175.60608 134.12373 176.50151 135.01917 177.60608 135.01917C178.71065 135.01917 179.60608 134.12373 179.60608 133.01917" fill-rule="nonzero"/><path fill="#efefef" d="M481.41876 268.8475L485.825 257.39438L487.46564 257.39438L492.15314 268.8475L490.41876 268.8475L489.09064 265.37875L484.29376 265.37875L483.04376 268.8475L481.41876 268.8475ZM484.73126 264.14438L488.6219 264.14438L487.41876 260.9725Q486.8719 259.51938 486.60626 258.5975Q486.3875 259.69125 485.9969 260.785L484.73126 264.14438ZM493.4969 268.8475L493.4969 260.55063L494.7625 260.55063L494.7625 261.80063Q495.2469 260.92563 495.65314 260.64438Q496.0594 260.36313 496.5594 260.36313Q497.2625 260.36313 497.9969 260.81625L497.5125 262.11313Q496.9969 261.81625 496.48126 261.81625Q496.02814 261.81625 495.65314 262.0975Q495.29376 262.36313 495.1375 262.86313Q494.90314 263.61313 494.90314 264.50375L494.90314 268.8475L493.4969 268.8475ZM503.91876 265.80063L505.3094 265.98813Q505.075 267.41 504.1375 268.2225Q503.21564 269.035 501.85626 269.035Q500.15314 269.035 499.10626 267.92563Q498.075 266.80063 498.075 264.7225Q498.075 263.37875 498.5125 262.37875Q498.96564 261.36313 499.8719 260.86313Q500.79376 260.36313 501.85626 260.36313Q503.21564 260.36313 504.075 261.05063Q504.9344 261.7225 505.16876 262.98813L503.8094 263.19125Q503.60626 262.36313 503.10626 261.94125Q502.6219 261.51938 501.91876 261.51938Q500.85626 261.51938 500.1844 262.285Q499.52814 263.035 499.52814 264.69125Q499.52814 266.36313 500.16876 267.12875Q500.8094 267.87875 501.84064 267.87875Q502.66876 267.87875 503.21564 267.37875Q503.77814 266.86313 503.91876 265.80063ZM506.5125 268.8475L506.5125 257.39438L507.91876 257.39438L507.91876 261.50375Q508.90314 260.36313 510.40314 260.36313Q511.325 260.36313 511.9969 260.7225Q512.6844 261.08188 512.96564 261.7225Q513.2625 262.36313 513.2625 263.58188L513.2625 268.8475L511.85626 268.8475L511.85626 263.58188Q511.85626 262.535 511.40314 262.05063Q510.95 261.56625 510.10626 261.56625Q509.48126 261.56625 508.9344 261.89438Q508.3875 262.2225 508.15314 262.785Q507.91876 263.33188 507.91876 264.30063L507.91876 268.8475L506.5125 268.8475ZM515.5125 259.00375L515.5125 257.39438L516.91876 257.39438L516.91876 259.00375L515.5125 259.00375ZM515.5125 268.8475L515.5125 260.55063L516.91876 260.55063L516.91876 268.8475L515.5125 268.8475ZM522.575 267.58188L522.77814 268.83188Q522.1844 268.95688 521.71564 268.95688Q520.95 268.95688 520.52814 268.7225Q520.10626 268.4725 519.9344 268.08188Q519.7625 267.67563 519.7625 266.41L519.7625 261.64438L518.73126 261.64438L518.73126 260.55063L519.7625 260.55063L519.7625 258.48813L521.16876 257.64438L521.16876 260.55063L522.575 260.55063L522.575 261.64438L521.16876 261.64438L521.16876 266.48813Q521.16876 267.0975 521.23126 267.26938Q521.3094 267.44125 521.48126 267.55063Q521.65314 267.64438 521.96564 267.64438Q522.2 267.64438 522.575 267.58188ZM529.1844 266.17563L530.6375 266.3475Q530.29376 267.62875 529.35626 268.33188Q528.4344 269.035 526.9969 269.035Q525.16876 269.035 524.10626 267.91Q523.04376 266.785 523.04376 264.76938Q523.04376 262.67563 524.1219 261.51938Q525.2 260.36313 526.91876 260.36313Q528.575 260.36313 529.6219 261.50375Q530.6844 262.62875 530.6844 264.67563Q530.6844 264.80063 530.6844 265.05063L524.4969 265.05063Q524.575 266.42563 525.2625 267.16Q525.96564 267.87875 526.9969 267.87875Q527.77814 267.87875 528.325 267.4725Q528.8719 267.06625 529.1844 266.17563ZM524.575 263.89438L529.2 263.89438Q529.10626 262.8475 528.66876 262.33188Q527.9969 261.51938 526.9344 261.51938Q525.96564 261.51938 525.29376 262.17563Q524.6375 262.81625 524.575 263.89438ZM537.91876 265.80063L539.3094 265.98813Q539.075 267.41 538.1375 268.2225Q537.21564 269.035 535.85626 269.035Q534.15314 269.035 533.10626 267.92563Q532.075 266.80063 532.075 264.7225Q532.075 263.37875 532.5125 262.37875Q532.96564 261.36313 533.8719 260.86313Q534.79376 260.36313 535.85626 260.36313Q537.21564 260.36313 538.075 261.05063Q538.9344 261.7225 539.16876 262.98813L537.8094 263.19125Q537.60626 262.36313 537.10626 261.94125Q536.6219 261.51938 535.91876 261.51938Q534.85626 261.51938 534.1844 262.285Q533.52814 263.035 533.52814 264.69125Q533.52814 266.36313 534.16876 267.12875Q534.8094 267.87875 535.84064 267.87875Q536.66876 267.87875 537.21564 267.37875Q537.77814 266.86313 537.91876 265.80063ZM543.575 267.58188L543.77814 268.83188Q543.1844 268.95688 542.71564 268.95688Q541.95 268.95688 541.52814 268.7225Q541.10626 268.4725 540.9344 268.08188Q540.7625 267.67563 540.7625 266.41L540.7625 261.64438L539.73126 261.64438L539.73126 260.55063L540.7625 260.55063L540.7625 258.48813L542.16876 257.64438L542.16876 260.55063L543.575 260.55063L543.575 261.64438L542.16876 261.64438L542.16876 266.48813Q542.16876 267.0975 542.23126 267.26938Q542.3094 267.44125 542.48126 267.55063Q542.65314 267.64438 542.96564 267.64438Q543.2 267.64438 543.575 267.58188ZM549.95 268.8475L549.95 267.62875Q548.98126 269.035 547.3094 269.035Q546.575 269.035 545.9344 268.75375Q545.3094 268.4725 544.9969 268.05063Q544.6844 267.61313 544.5594 267.00375Q544.48126 266.58188 544.48126 265.69125L544.48126 260.55063L545.8875 260.55063L545.8875 265.14438Q545.8875 266.25375 545.96564 266.62875Q546.10626 267.19125 546.52814 267.50375Q546.96564 267.81625 547.59064 267.81625Q548.23126 267.81625 548.77814 267.50375Q549.34064 267.17563 549.5594 266.61313Q549.79376 266.05063 549.79376 264.98813L549.79376 260.55063L551.2 260.55063L551.2 268.8475L549.95 268.8475ZM553.4969 268.8475L553.4969 260.55063L554.7625 260.55063L554.7625 261.80063Q555.2469 260.92563 555.65314 260.64438Q556.0594 260.36313 556.5594 260.36313Q557.2625 260.36313 557.9969 260.81625L557.5125 262.11313Q556.9969 261.81625 556.48126 261.81625Q556.02814 261.81625 555.65314 262.0975Q555.29376 262.36313 555.1375 262.86313Q554.90314 263.61313 554.90314 264.50375L554.90314 268.8475L553.4969 268.8475ZM564.1844 266.17563L565.6375 266.3475Q565.29376 267.62875 564.35626 268.33188Q563.4344 269.035 561.9969 269.035Q560.16876 269.035 559.10626 267.91Q558.04376 266.785 558.04376 264.76938Q558.04376 262.67563 559.1219 261.51938Q560.2 260.36313 561.91876 260.36313Q563.575 260.36313 564.6219 261.50375Q565.6844 262.62875 565.6844 264.67563Q565.6844 264.80063 565.6844 265.05063L559.4969 265.05063Q559.575 266.42563 560.2625 267.16Q560.96564 267.87875 561.9969 267.87875Q562.77814 267.87875 563.325 267.4725Q563.8719 267.06625 564.1844 266.17563ZM559.575 263.89438L564.2 263.89438Q564.10626 262.8475 563.66876 262.33188Q562.9969 261.51938 561.9344 261.51938Q560.96564 261.51938 560.29376 262.17563Q559.6375 262.81625 559.575 263.89438ZM578.0594 267.48813Q577.35626 268.26938 576.52814 268.66Q575.71564 269.05063 574.7625 269.05063Q573.0125 269.05063 571.98126 267.8475Q571.1375 266.87875 571.1375 265.69125Q571.1375 264.62875 571.825 263.76938Q572.5125 262.91 573.8719 262.26938Q573.09064 261.37875 572.825 260.83188Q572.575 260.26938 572.575 259.75375Q572.575 258.7225 573.3875 257.95688Q574.2 257.19125 575.41876 257.19125Q576.59064 257.19125 577.34064 257.91Q578.09064 258.62875 578.09064 259.64438Q578.09064 261.26938 575.91876 262.42563L577.98126 265.05063Q578.325 264.36313 578.52814 263.45688L579.98126 263.76938Q579.60626 265.26938 578.96564 266.23813Q579.7625 267.285 580.7625 267.98813L579.8094 269.11313Q578.96564 268.56625 578.0594 267.48813ZM575.2 261.51938Q576.10626 260.98813 576.3719 260.58188Q576.65314 260.17563 576.65314 259.67563Q576.65314 259.0975 576.27814 258.7225Q575.90314 258.3475 575.35626 258.3475Q574.77814 258.3475 574.40314 258.7225Q574.02814 259.08188 574.02814 259.61313Q574.02814 259.87875 574.15314 260.17563Q574.29376 260.4725 574.575 260.80063L575.2 261.51938ZM577.16876 266.37875L574.59064 263.19125Q573.45 263.86313 573.04376 264.45688Q572.65314 265.035 572.65314 265.5975Q572.65314 266.30063 573.2 267.05063Q573.7625 267.80063 574.77814 267.80063Q575.41876 267.80063 576.09064 267.41Q576.7625 267.00375 577.16876 266.37875Z" fill-rule="nonzero"/><path fill="#9e9e9e" d="M544.41876 282.19125L543.0125 282.30063Q542.825 281.4725 542.48126 281.0975Q541.91876 280.50375 541.075 280.50375Q540.40314 280.50375 539.90314 280.87875Q539.23126 281.36313 538.84064 282.30063Q538.46564 283.2225 538.45 284.94125Q538.96564 284.16 539.7 283.785Q540.4344 283.41 541.23126 283.41Q542.6375 283.41 543.6219 284.45688Q544.6219 285.48813 544.6219 287.12875Q544.6219 288.20688 544.15314 289.12875Q543.6844 290.05063 542.8719 290.55063Q542.0594 291.05063 541.02814 291.05063Q539.27814 291.05063 538.16876 289.75375Q537.0594 288.45688 537.0594 285.48813Q537.0594 282.16 538.27814 280.66Q539.35626 279.3475 541.16876 279.3475Q542.5125 279.3475 543.3719 280.11313Q544.2469 280.86313 544.41876 282.19125ZM538.66876 287.12875Q538.66876 287.86313 538.98126 288.535Q539.29376 289.19125 539.84064 289.535Q540.40314 289.87875 541.0125 289.87875Q541.90314 289.87875 542.54376 289.16Q543.1844 288.44125 543.1844 287.20688Q543.1844 286.01938 542.54376 285.3475Q541.91876 284.66 540.95 284.66Q539.9969 284.66 539.325 285.3475Q538.66876 286.01938 538.66876 287.12875ZM553.41876 282.19125L552.0125 282.30063Q551.825 281.4725 551.48126 281.0975Q550.91876 280.50375 550.075 280.50375Q549.40314 280.50375 548.90314 280.87875Q548.23126 281.36313 547.84064 282.30063Q547.46564 283.2225 547.45 284.94125Q547.96564 284.16 548.7 283.785Q549.4344 283.41 550.23126 283.41Q551.6375 283.41 552.6219 284.45688Q553.6219 285.48813 553.6219 287.12875Q553.6219 288.20688 553.15314 289.12875Q552.6844 290.05063 551.8719 290.55063Q551.0594 291.05063 550.02814 291.05063Q548.27814 291.05063 547.16876 289.75375Q546.0594 288.45688 546.0594 285.48813Q546.0594 282.16 547.27814 280.66Q548.35626 279.3475 550.16876 279.3475Q551.5125 279.3475 552.3719 280.11313Q553.2469 280.86313 553.41876 282.19125ZM547.66876 287.12875Q547.66876 287.86313 547.98126 288.535Q548.29376 289.19125 548.84064 289.535Q549.40314 289.87875 550.0125 289.87875Q550.90314 289.87875 551.54376 289.16Q552.1844 288.44125 552.1844 287.20688Q552.1844 286.01938 551.54376 285.3475Q550.91876 284.66 549.95 284.66Q548.9969 284.66 548.325 285.3475Q547.66876 286.01938 547.66876 287.12875ZM555.90314 290.8475L555.90314 289.23813L557.5125 289.23813L557.5125 290.8475L555.90314 290.8475ZM559.21564 280.89438L559.21564 279.535L566.6219 279.535L566.6219 280.62875Q565.52814 281.80063 564.45 283.73813Q563.3875 285.66 562.79376 287.69125Q562.3719 289.12875 562.2625 290.8475L560.8094 290.8475Q560.84064 289.48813 561.34064 287.58188Q561.85626 285.66 562.79376 283.89438Q563.7469 282.11313 564.825 280.89438L559.21564 280.89438ZM568.3875 282.14438Q568.3875 280.91 568.9969 280.05063Q569.6219 279.19125 570.79376 279.19125Q571.8719 279.19125 572.575 279.9725Q573.27814 280.73813 573.27814 282.2225Q573.27814 283.67563 572.5594 284.4725Q571.85626 285.25375 570.8094 285.25375Q569.7625 285.25375 569.075 284.48813Q568.3875 283.70688 568.3875 282.14438ZM570.825 280.16Q570.3094 280.16 569.95 280.61313Q569.60626 281.06625 569.60626 282.285Q569.60626 283.37875 569.95 283.83188Q570.3094 284.285 570.825 284.285Q571.35626 284.285 571.7 283.83188Q572.0594 283.37875 572.0594 282.17563Q572.0594 281.06625 571.7 280.61313Q571.35626 280.16 570.825 280.16ZM570.84064 291.26938L577.10626 279.19125L578.2469 279.19125L571.9969 291.26938L570.84064 291.26938ZM575.79376 288.16Q575.79376 286.92563 576.40314 286.06625Q577.02814 285.20688 578.2 285.20688Q579.27814 285.20688 579.98126 285.98813Q580.7 286.75375 580.7 288.23813Q580.7 289.69125 579.98126 290.48813Q579.2625 291.26938 578.21564 291.26938Q577.16876 291.26938 576.48126 290.48813Q575.79376 289.70688 575.79376 288.16ZM578.2469 286.17563Q577.71564 286.17563 577.35626 286.62875Q577.0125 287.08188 577.0125 288.30063Q577.0125 289.39438 577.35626 289.8475Q577.71564 290.30063 578.23126 290.30063Q578.77814 290.30063 579.1219 289.8475Q579.46564 289.39438 579.46564 288.19125Q579.46564 287.08188 579.10626 286.62875Q578.7625 286.17563 578.2469 286.17563Z" fill-rule="nonzero"/><path stroke="#757575" stroke-width="1.0" stroke-linecap="butt" d="M581.45 274.3475L454.76666 274.3475L422.39392 274.3475" fill-rule="nonzero"/><path fill="#9e9e9e" d="M424.39392 274.3475C424.39392 273.24292 423.4985 272.3475 422.39392 272.3475C421.28937 272.3475 420.39392 273.24292 420.39392 274.3475C420.39392 275.45206 421.28937 276.3475 422.39392 276.3475C423.4985 276.3475 424.39392 275.45206 424.39392 274.3475" fill-rule="nonzero"/><path fill="#f3f3f3" d="M271.26562 32.534374L273.15625 33.003124Q272.5625 35.346874 271.01562 36.58125Q269.46875 37.8 267.21875 37.8Q264.90625 37.8 263.45312 36.8625Q262.01562 35.909374 261.25 34.128124Q260.5 32.33125 260.5 30.284374Q260.5 28.05 261.34375 26.39375Q262.20312 24.721874 263.78125 23.8625Q265.35938 22.9875 267.25 22.9875Q269.40625 22.9875 270.85938 24.08125Q272.32812 25.175 272.90625 27.159374L271.04688 27.596874Q270.54688 26.034374 269.59375 25.33125Q268.65625 24.6125 267.21875 24.6125Q265.5625 24.6125 264.45312 25.409374Q263.34375 26.190624 262.89062 27.534374Q262.45312 28.8625 262.45312 30.26875Q262.45312 32.096874 262.98438 33.471874Q263.51562 34.83125 264.64062 35.503124Q265.76562 36.175 267.0625 36.175Q268.65625 36.175 269.76562 35.253124Q270.875 34.33125 271.26562 32.534374ZM281.59375 36.26875Q280.60938 37.096874 279.70312 37.440624Q278.79688 37.784374 277.76562 37.784374Q276.0625 37.784374 275.14062 36.95625Q274.21875 36.1125 274.21875 34.815624Q274.21875 34.05 274.5625 33.425Q274.92188 32.8 275.48438 32.425Q276.04688 32.034374 276.75 31.83125Q277.26562 31.70625 278.3125 31.565624Q280.4375 31.315624 281.4375 30.971874Q281.45312 30.6125 281.45312 30.503124Q281.45312 29.440624 280.95312 28.9875Q280.28125 28.39375 278.95312 28.39375Q277.70312 28.39375 277.10938 28.83125Q276.53125 29.26875 276.25 30.378124L274.53125 30.14375Q274.76562 29.034374 275.29688 28.3625Q275.82812 27.675 276.84375 27.315624Q277.85938 26.940624 279.20312 26.940624Q280.53125 26.940624 281.35938 27.253124Q282.1875 27.565624 282.57812 28.05Q282.96875 28.51875 283.125 29.2375Q283.21875 29.690624 283.21875 30.8625L283.21875 33.20625Q283.21875 35.659374 283.32812 36.315624Q283.4375 36.95625 283.78125 37.55L281.9375 37.55Q281.67188 37.003124 281.59375 36.26875ZM281.4375 32.346874Q280.48438 32.7375 278.5625 33.003124Q277.48438 33.159374 277.03125 33.3625Q276.59375 33.55 276.34375 33.925Q276.09375 34.3 276.09375 34.76875Q276.09375 35.471874 276.625 35.940624Q277.15625 36.409374 278.1875 36.409374Q279.20312 36.409374 279.98438 35.971874Q280.78125 35.51875 281.15625 34.753124Q281.4375 34.14375 281.4375 32.9875L281.4375 32.346874ZM289.65625 35.971874L289.90625 37.534374Q289.17188 37.690624 288.57812 37.690624Q287.625 37.690624 287.09375 37.39375Q286.57812 37.08125 286.35938 36.596874Q286.14062 36.096874 286.14062 34.51875L286.14062 28.55L284.85938 28.55L284.85938 27.175L286.14062 27.175L286.14062 24.6125L287.89062 23.55L287.89062 27.175L289.65625 27.175L289.65625 28.55L287.89062 28.55L287.89062 34.6125Q287.89062 35.3625 287.98438 35.58125Q288.07812 35.784374 288.28125 35.925Q288.5 36.05 288.89062 36.05Q289.17188 36.05 289.65625 35.971874ZM298.92188 34.20625L300.73438 34.440624Q300.3125 36.01875 299.14062 36.909374Q297.98438 37.784374 296.17188 37.784374Q293.90625 37.784374 292.5625 36.39375Q291.23438 34.9875 291.23438 32.45625Q291.23438 29.83125 292.57812 28.39375Q293.92188 26.940624 296.07812 26.940624Q298.15625 26.940624 299.46875 28.3625Q300.79688 29.76875 300.79688 32.346874Q300.79688 32.503124 300.78125 32.815624L293.04688 32.815624Q293.14062 34.51875 294.01562 35.425Q294.89062 36.33125 296.1875 36.33125Q297.15625 36.33125 297.82812 35.83125Q298.51562 35.315624 298.92188 34.20625ZM293.14062 31.3625L298.9375 31.3625Q298.82812 30.065624 298.28125 29.409374Q297.4375 28.39375 296.09375 28.39375Q294.89062 28.39375 294.0625 29.20625Q293.23438 30.003124 293.14062 31.3625ZM302.5 38.409374L304.20312 38.659374Q304.3125 39.45625 304.79688 39.815624Q305.45312 40.3 306.59375 40.3Q307.8125 40.3 308.46875 39.815624Q309.14062 39.33125 309.375 38.45625Q309.51562 37.909374 309.5 36.190624Q308.34375 37.55 306.625 37.55Q304.48438 37.55 303.3125 36.003124Q302.14062 34.45625 302.14062 32.3Q302.14062 30.815624 302.67188 29.565624Q303.21875 28.315624 304.23438 27.628124Q305.26562 26.940624 306.64062 26.940624Q308.46875 26.940624 309.67188 28.425L309.67188 27.175L311.28125 27.175L311.28125 36.14375Q311.28125 38.565624 310.78125 39.565624Q310.29688 40.58125 309.21875 41.159374Q308.15625 41.753124 306.59375 41.753124Q304.75 41.753124 303.59375 40.925Q302.45312 40.096874 302.5 38.409374ZM303.95312 32.175Q303.95312 34.221874 304.76562 35.159374Q305.57812 36.096874 306.79688 36.096874Q308.0 36.096874 308.8125 35.159374Q309.64062 34.221874 309.64062 32.2375Q309.64062 30.33125 308.79688 29.3625Q307.95312 28.39375 306.76562 28.39375Q305.59375 28.39375 304.76562 29.346874Q303.95312 30.3 303.95312 32.175ZM313.17188 32.3625Q313.17188 29.4875 314.76562 28.096874Q316.10938 26.940624 318.03125 26.940624Q320.17188 26.940624 321.51562 28.346874Q322.875 29.753124 322.875 32.221874Q322.875 34.221874 322.28125 35.378124Q321.6875 36.51875 320.53125 37.159374Q319.39062 37.784374 318.03125 37.784374Q315.84375 37.784374 314.5 36.39375Q313.17188 34.9875 313.17188 32.3625ZM314.96875 32.3625Q314.96875 34.3625 315.82812 35.346874Q316.70312 36.33125 318.03125 36.33125Q319.34375 36.33125 320.20312 35.346874Q321.07812 34.346874 321.07812 32.3Q321.07812 30.378124 320.20312 29.39375Q319.32812 28.39375 318.03125 28.39375Q316.70312 28.39375 315.82812 29.39375Q314.96875 30.378124 314.96875 32.3625ZM324.79688 37.55L324.79688 27.175L326.375 27.175L326.375 28.753124Q326.98438 27.64375 327.5 27.3Q328.01562 26.940624 328.625 26.940624Q329.51562 26.940624 330.4375 27.503124L329.82812 29.14375Q329.1875 28.753124 328.54688 28.753124Q327.96875 28.753124 327.5 29.1125Q327.04688 29.45625 326.84375 30.065624Q326.5625 31.003124 326.5625 32.1125L326.5625 37.55L324.79688 37.55ZM331.73438 41.55L331.54688 39.89375Q332.125 40.05 332.54688 40.05Q333.14062 40.05 333.48438 39.846874Q333.84375 39.659374 334.0625 39.315624Q334.23438 39.05 334.60938 38.003124Q334.65625 37.846874 334.76562 37.565624L330.82812 27.175L332.71875 27.175L334.875 33.190624Q335.29688 34.33125 335.625 35.58125Q335.9375 34.378124 336.34375 33.221874L338.5625 27.175L340.32812 27.175L336.375 37.721874Q335.75 39.440624 335.39062 40.08125Q334.92188 40.95625 334.3125 41.346874Q333.71875 41.753124 332.875 41.753124Q332.35938 41.753124 331.73438 41.55Z" fill-rule="nonzero"/></svg>