<svg version="1.1" viewBox="0.0 0.0 600.0 371.0" fill="none" stroke="none" stroke-linecap="square" stroke-miterlimit="10" width="600" height="371" xmlns:xlink="http://www.w3.org/1999/xlink" xmlns="http://www.w3.org/2000/svg"><path fill="#ffffff" fill-opacity="0.0" d="M0 0L600.0 0L600.0 371.0L0 371.0L0 0Z" fill-rule="nonzero"/><path fill="#304388" d="M300.0 54.916668C364.44962 54.916668 421.5695 96.416664 441.4855 157.7119L335.37137 192.19048C330.39236 176.86667 316.1124 166.49167 300.0 166.49167Z" fill-rule="nonzero"/><path fill="#e5a345" d="M158.5145 157.7119C178.43053 96.416664 235.55037 54.916668 300.0 54.916668L300.0 166.49167C283.8876 166.49167 269.60764 176.86667 264.62863 192.19048Z" fill-rule="nonzero"/><path fill="#b5428d" d="M212.55714 324.0381C160.4163 286.15555 138.59846 219.00714 158.5145 157.7119L264.62863 192.19048C259.64963 207.51428 265.10406 224.30139 278.13928 233.77202Z" fill-rule="nonzero"/><path fill="#533990" d="M441.4855 157.7119C461.40155 219.00714 439.5837 286.15555 387.44284 324.0381C335.302 361.92062 264.698 361.92062 212.55714 324.0381L278.13928 233.77202C291.1745 243.24266 308.8255 243.24266 321.86072 233.77202C334.89594 224.30139 340.35037 207.51428 335.37137 192.19048Z" fill-rule="nonzero"/><path fill="#ffffff" d="M344.36365 124.982124L344.36365 126.49775L335.84802 126.49775Q335.8324 125.919624 336.03552 125.404Q336.36365 124.529 337.06677 123.68525Q337.78552 122.8415 339.1449 121.732124Q341.23865 120.013374 341.97302 119.013374Q342.72302 117.99775 342.72302 117.107124Q342.72302 116.154 342.05115 115.513374Q341.37927 114.87275 340.30115 114.87275Q339.1449 114.87275 338.4574 115.56025Q337.78552 116.24775 337.7699 117.450874L336.1449 117.279Q336.31677 115.4665 337.3949 114.513374Q338.48865 113.56025 340.3324 113.56025Q342.17615 113.56025 343.25427 114.5915Q344.34802 115.62275 344.34802 117.138374Q344.34802 117.904 344.0199 118.654Q343.7074 119.404 342.97302 120.232124Q342.23865 121.06025 340.53552 122.49775Q339.11365 123.700874 338.7074 124.12275Q338.30115 124.544624 338.05115 124.982124L344.36365 124.982124ZM346.05115 120.138374Q346.05115 117.857124 346.5199 116.4665Q346.98865 115.075874 347.91052 114.325874Q348.84802 113.56025 350.25427 113.56025Q351.28552 113.56025 352.06677 113.982124Q352.84802 114.388374 353.34802 115.18525Q353.86365 115.9665 354.16052 117.107124Q354.4574 118.232124 354.4574 120.138374Q354.4574 122.404 353.98865 123.81025Q353.5199 125.200874 352.5824 125.9665Q351.66052 126.7165 350.25427 126.7165Q348.37927 126.7165 347.31677 125.388374Q346.05115 123.779 346.05115 120.138374ZM347.67615 120.138374Q347.67615 123.31025 348.41052 124.37275Q349.16052 125.419624 350.25427 125.419624Q351.3324 125.419624 352.0824 124.37275Q352.8324 123.31025 352.8324 120.138374Q352.8324 116.9665 352.0824 115.919624Q351.3324 114.87275 350.23865 114.87275Q349.1449 114.87275 348.48865 115.794624Q347.67615 116.9665 347.67615 120.138374ZM356.94177 126.49775L356.94177 124.700874L358.73865 124.700874L358.73865 126.49775L356.94177 126.49775ZM361.05115 120.138374Q361.05115 117.857124 361.5199 116.4665Q361.98865 115.075874 362.91052 114.325874Q363.84802 113.56025 365.25427 113.56025Q366.28552 113.56025 367.06677 113.982124Q367.84802 114.388374 368.34802 115.18525Q368.86365 115.9665 369.16052 117.107124Q369.4574 118.232124 369.4574 120.138374Q369.4574 122.404 368.98865 123.81025Q368.5199 125.200874 367.5824 125.9665Q366.66052 126.7165 365.25427 126.7165Q363.37927 126.7165 362.31677 125.388374Q361.05115 123.779 361.05115 120.138374ZM362.67615 120.138374Q362.67615 123.31025 363.41052 124.37275Q364.16052 125.419624 365.25427 125.419624Q366.3324 125.419624 367.0824 124.37275Q367.8324 123.31025 367.8324 120.138374Q367.8324 116.9665 367.0824 115.919624Q366.3324 114.87275 365.23865 114.87275Q364.1449 114.87275 363.48865 115.794624Q362.67615 116.9665 362.67615 120.138374ZM371.34802 116.700874Q371.34802 115.325874 372.03552 114.357124Q372.73865 113.388374 374.05115 113.388374Q375.2699 113.388374 376.06677 114.263374Q376.86365 115.12275 376.86365 116.81025Q376.86365 118.43525 376.05115 119.325874Q375.25427 120.200874 374.06677 120.200874Q372.91052 120.200874 372.12927 119.3415Q371.34802 118.4665 371.34802 116.700874ZM374.09802 114.482124Q373.50427 114.482124 373.11365 114.99775Q372.72302 115.49775 372.72302 116.857124Q372.72302 118.107124 373.11365 118.607124Q373.5199 119.107124 374.09802 119.107124Q374.69177 119.107124 375.0824 118.607124Q375.47302 118.0915 375.47302 116.74775Q375.47302 115.49775 375.0824 114.99775Q374.69177 114.482124 374.09802 114.482124ZM374.11365 126.9665L381.16052 113.388374L382.44177 113.388374L375.41052 126.9665L374.11365 126.9665ZM379.67615 123.4665Q379.67615 122.0915 380.36365 121.12275Q381.06677 120.154 382.3949 120.154Q383.61365 120.154 384.3949 121.029Q385.19177 121.888374 385.19177 123.575874Q385.19177 125.200874 384.3949 126.0915Q383.59802 126.9665 382.41052 126.9665Q381.23865 126.9665 380.4574 126.0915Q379.67615 125.2165 379.67615 123.4665ZM382.44177 121.24775Q381.84802 121.24775 381.4574 121.763374Q381.06677 122.263374 381.06677 123.638374Q381.06677 124.857124 381.4574 125.37275Q381.84802 125.888374 382.42615 125.888374Q383.03552 125.888374 383.42615 125.37275Q383.81677 124.857124 383.81677 123.513374Q383.81677 122.263374 383.42615 121.763374Q383.03552 121.24775 382.44177 121.24775Z" fill-rule="nonzero"/><path fill="#ffffff" d="M341.11365 293.86893L341.11365 290.7908L335.53552 290.7908L335.53552 289.33768L341.41052 280.9783L342.7074 280.9783L342.7074 289.33768L344.44177 289.33768L344.44177 290.7908L342.7074 290.7908L342.7074 293.86893L341.11365 293.86893ZM341.11365 289.33768L341.11365 283.52518L337.0824 289.33768L341.11365 289.33768ZM346.05115 287.50955Q346.05115 285.2283 346.5199 283.83768Q346.98865 282.44705 347.91052 281.69705Q348.84802 280.93143 350.25427 280.93143Q351.28552 280.93143 352.06677 281.3533Q352.84802 281.75955 353.34802 282.55643Q353.86365 283.33768 354.16052 284.4783Q354.4574 285.6033 354.4574 287.50955Q354.4574 289.77518 353.98865 291.18143Q353.5199 292.57205 352.5824 293.33768Q351.66052 294.08768 350.25427 294.08768Q348.37927 294.08768 347.31677 292.75955Q346.05115 291.15018 346.05115 287.50955ZM347.67615 287.50955Q347.67615 290.68143 348.41052 291.74393Q349.16052 292.7908 350.25427 292.7908Q351.3324 292.7908 352.0824 291.74393Q352.8324 290.68143 352.8324 287.50955Q352.8324 284.33768 352.0824 283.2908Q351.3324 282.24393 350.23865 282.24393Q349.1449 282.24393 348.48865 283.1658Q347.67615 284.33768 347.67615 287.50955ZM356.94177 293.86893L356.94177 292.07205L358.73865 292.07205L358.73865 293.86893L356.94177 293.86893ZM361.05115 287.50955Q361.05115 285.2283 361.5199 283.83768Q361.98865 282.44705 362.91052 281.69705Q363.84802 280.93143 365.25427 280.93143Q366.28552 280.93143 367.06677 281.3533Q367.84802 281.75955 368.34802 282.55643Q368.86365 283.33768 369.16052 284.4783Q369.4574 285.6033 369.4574 287.50955Q369.4574 289.77518 368.98865 291.18143Q368.5199 292.57205 367.5824 293.33768Q366.66052 294.08768 365.25427 294.08768Q363.37927 294.08768 362.31677 292.75955Q361.05115 291.15018 361.05115 287.50955ZM362.67615 287.50955Q362.67615 290.68143 363.41052 291.74393Q364.16052 292.7908 365.25427 292.7908Q366.3324 292.7908 367.0824 291.74393Q367.8324 290.68143 367.8324 287.50955Q367.8324 284.33768 367.0824 283.2908Q366.3324 282.24393 365.23865 282.24393Q364.1449 282.24393 363.48865 283.1658Q362.67615 284.33768 362.67615 287.50955ZM371.34802 284.07205Q371.34802 282.69705 372.03552 281.7283Q372.73865 280.75955 374.05115 280.75955Q375.2699 280.75955 376.06677 281.63455Q376.86365 282.49393 376.86365 284.18143Q376.86365 285.80643 376.05115 286.69705Q375.25427 287.57205 374.06677 287.57205Q372.91052 287.57205 372.12927 286.71268Q371.34802 285.83768 371.34802 284.07205ZM374.09802 281.8533Q373.50427 281.8533 373.11365 282.36893Q372.72302 282.86893 372.72302 284.2283Q372.72302 285.4783 373.11365 285.9783Q373.5199 286.4783 374.09802 286.4783Q374.69177 286.4783 375.0824 285.9783Q375.47302 285.46268 375.47302 284.11893Q375.47302 282.86893 375.0824 282.36893Q374.69177 281.8533 374.09802 281.8533ZM374.11365 294.33768L381.16052 280.75955L382.44177 280.75955L375.41052 294.33768L374.11365 294.33768ZM379.67615 290.83768Q379.67615 289.46268 380.36365 288.49393Q381.06677 287.52518 382.3949 287.52518Q383.61365 287.52518 384.3949 288.40018Q385.19177 289.25955 385.19177 290.94705Q385.19177 292.57205 384.3949 293.46268Q383.59802 294.33768 382.41052 294.33768Q381.23865 294.33768 380.4574 293.46268Q379.67615 292.58768 379.67615 290.83768ZM382.44177 288.61893Q381.84802 288.61893 381.4574 289.13455Q381.06677 289.63455 381.06677 291.00955Q381.06677 292.2283 381.4574 292.74393Q381.84802 293.25955 382.42615 293.25955Q383.03552 293.25955 383.42615 292.74393Q383.81677 292.2283 383.81677 290.88455Q383.81677 289.63455 383.42615 289.13455Q383.03552 288.61893 382.44177 288.61893Z" fill-rule="nonzero"/><path fill="#ffffff" d="M186.4911 240.20811L186.4911 241.72374L177.97548 241.72374Q177.95985 241.14561 178.16298 240.62999Q178.4911 239.75499 179.19423 238.91124Q179.91298 238.06749 181.27235 236.95811Q183.3661 235.23936 184.10048 234.23936Q184.85048 233.22374 184.85048 232.33311Q184.85048 231.37999 184.1786 230.73936Q183.50673 230.09874 182.4286 230.09874Q181.27235 230.09874 180.58485 230.78624Q179.91298 231.47374 179.89735 232.67686L178.27235 232.50499Q178.44423 230.69249 179.52235 229.73936Q180.6161 228.78624 182.45985 228.78624Q184.3036 228.78624 185.38173 229.81749Q186.47548 230.84874 186.47548 232.36436Q186.47548 233.12999 186.14735 233.87999Q185.83485 234.62999 185.10048 235.45811Q184.3661 236.28624 182.66298 237.72374Q181.2411 238.92686 180.83485 239.34874Q180.4286 239.77061 180.1786 240.20811L186.4911 240.20811ZM188.1786 235.36436Q188.1786 233.08311 188.64735 231.69249Q189.1161 230.30186 190.03798 229.55186Q190.97548 228.78624 192.38173 228.78624Q193.41298 228.78624 194.19423 229.20811Q194.97548 229.61436 195.47548 230.41124Q195.9911 231.19249 196.28798 232.33311Q196.58485 233.45811 196.58485 235.36436Q196.58485 237.62999 196.1161 239.03624Q195.64735 240.42686 194.70985 241.19249Q193.78798 241.94249 192.38173 241.94249Q190.50673 241.94249 189.44423 240.61436Q188.1786 239.00499 188.1786 235.36436ZM189.8036 235.36436Q189.8036 238.53624 190.53798 239.59874Q191.28798 240.64561 192.38173 240.64561Q193.45985 240.64561 194.20985 239.59874Q194.95985 238.53624 194.95985 235.36436Q194.95985 232.19249 194.20985 231.14561Q193.45985 230.09874 192.3661 230.09874Q191.27235 230.09874 190.6161 231.02061Q189.8036 232.19249 189.8036 235.36436ZM199.06923 241.72374L199.06923 239.92686L200.8661 239.92686L200.8661 241.72374L199.06923 241.72374ZM203.1786 235.36436Q203.1786 233.08311 203.64735 231.69249Q204.1161 230.30186 205.03798 229.55186Q205.97548 228.78624 207.38173 228.78624Q208.41298 228.78624 209.19423 229.20811Q209.97548 229.61436 210.47548 230.41124Q210.9911 231.19249 211.28798 232.33311Q211.58485 233.45811 211.58485 235.36436Q211.58485 237.62999 211.1161 239.03624Q210.64735 240.42686 209.70985 241.19249Q208.78798 241.94249 207.38173 241.94249Q205.50673 241.94249 204.44423 240.61436Q203.1786 239.00499 203.1786 235.36436ZM204.8036 235.36436Q204.8036 238.53624 205.53798 239.59874Q206.28798 240.64561 207.38173 240.64561Q208.45985 240.64561 209.20985 239.59874Q209.95985 238.53624 209.95985 235.36436Q209.95985 232.19249 209.20985 231.14561Q208.45985 230.09874 207.3661 230.09874Q206.27235 230.09874 205.6161 231.02061Q204.8036 232.19249 204.8036 235.36436ZM213.47548 231.92686Q213.47548 230.55186 214.16298 229.58311Q214.8661 228.61436 216.1786 228.61436Q217.39735 228.61436 218.19423 229.48936Q218.9911 230.34874 218.9911 232.03624Q218.9911 233.66124 218.1786 234.55186Q217.38173 235.42686 216.19423 235.42686Q215.03798 235.42686 214.25673 234.56749Q213.47548 233.69249 213.47548 231.92686ZM216.22548 229.70811Q215.63173 229.70811 215.2411 230.22374Q214.85048 230.72374 214.85048 232.08311Q214.85048 233.33311 215.2411 233.83311Q215.64735 234.33311 216.22548 234.33311Q216.81923 234.33311 217.20985 233.83311Q217.60048 233.31749 217.60048 231.97374Q217.60048 230.72374 217.20985 230.22374Q216.81923 229.70811 216.22548 229.70811ZM216.2411 242.19249L223.28798 228.61436L224.56923 228.61436L217.53798 242.19249L216.2411 242.19249ZM221.8036 238.69249Q221.8036 237.31749 222.4911 236.34874Q223.19423 235.37999 224.52235 235.37999Q225.7411 235.37999 226.52235 236.25499Q227.31923 237.11436 227.31923 238.80186Q227.31923 240.42686 226.52235 241.31749Q225.72548 242.19249 224.53798 242.19249Q223.3661 242.19249 222.58485 241.31749Q221.8036 240.44249 221.8036 238.69249ZM224.56923 236.47374Q223.97548 236.47374 223.58485 236.98936Q223.19423 237.48936 223.19423 238.86436Q223.19423 240.08311 223.58485 240.59874Q223.97548 241.11436 224.5536 241.11436Q225.16298 241.11436 225.5536 240.59874Q225.94423 240.08311 225.94423 238.73936Q225.94423 237.48936 225.5536 236.98936Q225.16298 236.47374 224.56923 236.47374Z" fill-rule="nonzero"/><path fill="#ffffff" d="M222.76137 124.982124L222.76137 126.49775L214.24574 126.49775Q214.23012 125.919624 214.43324 125.404Q214.76137 124.529 215.4645 123.68525Q216.18324 122.8415 217.54262 121.732124Q219.63637 120.013374 220.37074 119.013374Q221.12074 117.99775 221.12074 117.107124Q221.12074 116.154 220.44887 115.513374Q219.777 114.87275 218.69887 114.87275Q217.54262 114.87275 216.85512 115.56025Q216.18324 116.24775 216.16762 117.450874L214.54262 117.279Q214.7145 115.4665 215.79262 114.513374Q216.88637 113.56025 218.73012 113.56025Q220.57387 113.56025 221.652 114.5915Q222.74574 115.62275 222.74574 117.138374Q222.74574 117.904 222.41762 118.654Q222.10512 119.404 221.37074 120.232124Q220.63637 121.06025 218.93324 122.49775Q217.51137 123.700874 217.10512 124.12275Q216.69887 124.544624 216.44887 124.982124L222.76137 124.982124ZM224.44887 120.138374Q224.44887 117.857124 224.91762 116.4665Q225.38637 115.075874 226.30824 114.325874Q227.24574 113.56025 228.652 113.56025Q229.68324 113.56025 230.4645 113.982124Q231.24574 114.388374 231.74574 115.18525Q232.26137 115.9665 232.55824 117.107124Q232.85512 118.232124 232.85512 120.138374Q232.85512 122.404 232.38637 123.81025Q231.91762 125.200874 230.98012 125.9665Q230.05824 126.7165 228.652 126.7165Q226.777 126.7165 225.7145 125.388374Q224.44887 123.779 224.44887 120.138374ZM226.07387 120.138374Q226.07387 123.31025 226.80824 124.37275Q227.55824 125.419624 228.652 125.419624Q229.73012 125.419624 230.48012 124.37275Q231.23012 123.31025 231.23012 120.138374Q231.23012 116.9665 230.48012 115.919624Q229.73012 114.87275 228.63637 114.87275Q227.54262 114.87275 226.88637 115.794624Q226.07387 116.9665 226.07387 120.138374ZM235.3395 126.49775L235.3395 124.700874L237.13637 124.700874L237.13637 126.49775L235.3395 126.49775ZM239.44887 120.138374Q239.44887 117.857124 239.91762 116.4665Q240.38637 115.075874 241.30824 114.325874Q242.24574 113.56025 243.652 113.56025Q244.68324 113.56025 245.4645 113.982124Q246.24574 114.388374 246.74574 115.18525Q247.26137 115.9665 247.55824 117.107124Q247.85512 118.232124 247.85512 120.138374Q247.85512 122.404 247.38637 123.81025Q246.91762 125.200874 245.98012 125.9665Q245.05824 126.7165 243.652 126.7165Q241.777 126.7165 240.7145 125.388374Q239.44887 123.779 239.44887 120.138374ZM241.07387 120.138374Q241.07387 123.31025 241.80824 124.37275Q242.55824 125.419624 243.652 125.419624Q244.73012 125.419624 245.48012 124.37275Q246.23012 123.31025 246.23012 120.138374Q246.23012 116.9665 245.48012 115.919624Q244.73012 114.87275 243.63637 114.87275Q242.54262 114.87275 241.88637 115.794624Q241.07387 116.9665 241.07387 120.138374ZM249.74574 116.700874Q249.74574 115.325874 250.43324 114.357124Q251.13637 113.388374 252.44887 113.388374Q253.66762 113.388374 254.4645 114.263374Q255.26137 115.12275 255.26137 116.81025Q255.26137 118.43525 254.44887 119.325874Q253.652 120.200874 252.4645 120.200874Q251.30824 120.200874 250.527 119.3415Q249.74574 118.4665 249.74574 116.700874ZM252.49574 114.482124Q251.902 114.482124 251.51137 114.99775Q251.12074 115.49775 251.12074 116.857124Q251.12074 118.107124 251.51137 118.607124Q251.91762 119.107124 252.49574 119.107124Q253.0895 119.107124 253.48012 118.607124Q253.87074 118.0915 253.87074 116.74775Q253.87074 115.49775 253.48012 114.99775Q253.0895 114.482124 252.49574 114.482124ZM252.51137 126.9665L259.55823 113.388374L260.83948 113.388374L253.80824 126.9665L252.51137 126.9665ZM258.07385 123.4665Q258.07385 122.0915 258.76135 121.12275Q259.46448 120.154 260.7926 120.154Q262.01135 120.154 262.7926 121.029Q263.58948 121.888374 263.58948 123.575874Q263.58948 125.200874 262.7926 126.0915Q261.99573 126.9665 260.80823 126.9665Q259.63635 126.9665 258.8551 126.0915Q258.07385 125.2165 258.07385 123.4665ZM260.83948 121.24775Q260.24573 121.24775 259.8551 121.763374Q259.46448 122.263374 259.46448 123.638374Q259.46448 124.857124 259.8551 125.37275Q260.24573 125.888374 260.82385 125.888374Q261.43323 125.888374 261.82385 125.37275Q262.21448 124.857124 262.21448 123.513374Q262.21448 122.263374 261.82385 121.763374Q261.43323 121.24775 260.83948 121.24775Z" fill-rule="nonzero"/><path stroke="#ffffff" stroke-width="1.0" stroke-linejoin="round" stroke-linecap="round" d="M335.37137 192.19048C330.39236 176.86667 316.1124 166.49167 300.0 166.49167L300.0 54.916668C364.44962 54.916668 421.5695 96.416664 441.4855 157.7119" fill-rule="nonzero"/><path stroke="#ffffff" stroke-width="1.0" stroke-linejoin="round" stroke-linecap="round" d="M278.13928 233.77202C291.1745 243.24266 308.8255 243.24266 321.86072 233.77202C334.89594 224.30139 340.35037 207.51428 335.37137 192.19048L441.4855 157.7119C461.40155 219.00714 439.5837 286.15555 387.44284 324.0381C335.302 361.92062 264.698 361.92062 212.55714 324.0381" fill-rule="nonzero"/><path stroke="#ffffff" stroke-width="1.0" stroke-linejoin="round" stroke-linecap="round" d="M264.62863 192.19048C259.64963 207.51428 265.10406 224.30139 278.13928 233.77202L212.55714 324.0381C160.4163 286.15555 138.59846 219.00714 158.5145 157.7119" fill-rule="nonzero"/><path stroke="#ffffff" stroke-width="1.0" stroke-linejoin="round" stroke-linecap="round" d="M300.0 166.49167C283.8876 166.49167 269.60764 176.86667 264.62863 192.19048L158.5145 157.7119C178.43053 96.416664 235.55037 54.916668 300.0 54.916668" fill-rule="nonzero"/><path fill="#efefef" d="M27.3 72.39319L28.815624 72.39319L28.815624 79.00256Q28.815624 80.73694 28.425 81.75256Q28.034374 82.76819 27.01875 83.40881Q26.003124 84.04944 24.346874 84.04944Q22.7375 84.04944 21.70625 83.48694Q20.690624 82.92444 20.253124 81.87756Q19.815624 80.83069 19.815624 79.00256L19.815624 72.39319L21.33125 72.39319L21.33125 79.00256Q21.33125 80.48694 21.596874 81.20569Q21.878124 81.90881 22.55 82.29944Q23.2375 82.67444 24.20625 82.67444Q25.878124 82.67444 26.58125 81.92444Q27.3 81.15881 27.3 79.00256L27.3 72.39319ZM31.596874 83.84631L31.596874 75.54944L32.8625 75.54944L32.8625 76.79944Q33.346874 75.92444 33.753124 75.64319Q34.159374 75.36194 34.659374 75.36194Q35.3625 75.36194 36.096874 75.81506L35.6125 77.11194Q35.096874 76.81506 34.58125 76.81506Q34.128124 76.81506 33.753124 77.09631Q33.39375 77.36194 33.2375 77.86194Q33.003124 78.61194 33.003124 79.50256L33.003124 83.84631L31.596874 83.84631ZM37.909374 83.84631L36.596874 83.84631L36.596874 72.39319L38.003124 72.39319L38.003124 76.47131Q38.89375 75.36194 40.284374 75.36194Q41.05 75.36194 41.721874 75.67444Q42.409374 75.97131 42.846874 76.53381Q43.3 77.09631 43.55 77.89319Q43.8 78.67444 43.8 79.56506Q43.8 81.70569 42.7375 82.87756Q41.690624 84.03381 40.20625 84.03381Q38.7375 84.03381 37.909374 82.79944L37.909374 83.84631ZM37.89375 79.62756Q37.89375 81.12756 38.3 81.78381Q38.95625 82.87756 40.096874 82.87756Q41.01875 82.87756 41.690624 82.08069Q42.3625 81.26819 42.3625 79.69006Q42.3625 78.06506 41.70625 77.29944Q41.065624 76.51819 40.159374 76.51819Q39.2375 76.51819 38.565624 77.31506Q37.89375 78.11194 37.89375 79.62756ZM51.01875 82.81506Q50.2375 83.48694 49.51875 83.76819Q48.8 84.03381 47.971874 84.03381Q46.596874 84.03381 45.8625 83.36194Q45.128124 82.69006 45.128124 81.65881Q45.128124 81.04944 45.409374 80.54944Q45.690624 80.03381 46.128124 79.73694Q46.58125 79.42444 47.14375 79.26819Q47.565624 79.15881 48.39375 79.06506Q50.096874 78.86194 50.909374 78.58069Q50.909374 78.28381 50.909374 78.20569Q50.909374 77.34631 50.51875 77.00256Q49.971874 76.51819 48.909374 76.51819Q47.925 76.51819 47.440624 76.87756Q46.971874 77.22131 46.753124 78.09631L45.378124 77.90881Q45.565624 77.03381 45.9875 76.48694Q46.425 75.94006 47.2375 75.65881Q48.05 75.36194 49.1125 75.36194Q50.175 75.36194 50.83125 75.61194Q51.503124 75.86194 51.815624 76.23694Q52.128124 76.61194 52.253124 77.19006Q52.33125 77.54944 52.33125 78.48694L52.33125 80.36194Q52.33125 82.33069 52.409374 82.84631Q52.503124 83.36194 52.76875 83.84631L51.3 83.84631Q51.08125 83.40881 51.01875 82.81506ZM50.909374 79.67444Q50.14375 79.98694 48.6125 80.20569Q47.7375 80.33069 47.378124 80.48694Q47.01875 80.64319 46.815624 80.95569Q46.628124 81.25256 46.628124 81.61194Q46.628124 82.17444 47.05 82.54944Q47.4875 82.92444 48.3 82.92444Q49.1125 82.92444 49.7375 82.58069Q50.378124 82.22131 50.675 81.59631Q50.909374 81.12756 50.909374 80.19006L50.909374 79.67444ZM54.6125 83.84631L54.6125 75.54944L55.878124 75.54944L55.878124 76.72131Q56.784374 75.36194 58.51875 75.36194Q59.26875 75.36194 59.89375 75.62756Q60.51875 75.89319 60.83125 76.33069Q61.14375 76.76819 61.26875 77.37756Q61.346874 77.76819 61.346874 78.73694L61.346874 83.84631L59.940624 83.84631L59.940624 78.79944Q59.940624 77.94006 59.76875 77.51819Q59.6125 77.08069 59.190624 76.83069Q58.784374 76.58069 58.221874 76.58069Q57.315624 76.58069 56.659374 77.15881Q56.01875 77.72131 56.01875 79.31506L56.01875 83.84631L54.6125 83.84631ZM63.05 81.36194L64.44063 81.14319Q64.55 81.98694 65.08125 82.44006Q65.62813 82.87756 66.58125 82.87756Q67.55 82.87756 68.01875 82.48694Q68.4875 82.08069 68.4875 81.54944Q68.4875 81.08069 68.08125 80.79944Q67.78438 80.61194 66.64375 80.33069Q65.09688 79.94006 64.4875 79.65881Q63.89375 79.36194 63.58125 78.86194Q63.284374 78.36194 63.284374 77.75256Q63.284374 77.19006 63.534374 76.72131Q63.784374 76.25256 64.22188 75.94006Q64.55 75.69006 65.1125 75.53381Q65.69063 75.36194 66.33125 75.36194Q67.31563 75.36194 68.05 75.64319Q68.78438 75.92444 69.12813 76.40881Q69.4875 76.87756 69.62813 77.69006L68.25313 77.87756Q68.15938 77.23694 67.70625 76.87756Q67.25313 76.51819 66.44063 76.51819Q65.47188 76.51819 65.05 76.84631Q64.64375 77.15881 64.64375 77.58069Q64.64375 77.86194 64.81563 78.08069Q64.9875 78.29944 65.34688 78.45569Q65.56563 78.53381 66.59688 78.81506Q68.08125 79.20569 68.675 79.47131Q69.26875 79.72131 69.59688 80.20569Q69.94063 80.69006 69.94063 81.40881Q69.94063 82.11194 69.51875 82.73694Q69.1125 83.34631 68.33125 83.69006Q67.56563 84.03381 66.59688 84.03381Q64.97188 84.03381 64.12813 83.36194Q63.284374 82.69006 63.05 81.36194ZM77.01875 80.79944L78.40938 80.98694Q78.175 82.40881 77.2375 83.22131Q76.31563 84.03381 74.95625 84.03381Q73.25313 84.03381 72.20625 82.92444Q71.175 81.79944 71.175 79.72131Q71.175 78.37756 71.6125 77.37756Q72.06563 76.36194 72.97188 75.86194Q73.89375 75.36194 74.95625 75.36194Q76.31563 75.36194 77.175 76.04944Q78.03438 76.72131 78.26875 77.98694L76.90938 78.19006Q76.70625 77.36194 76.20625 76.94006Q75.72188 76.51819 75.01875 76.51819Q73.95625 76.51819 73.28438 77.28381Q72.62813 78.03381 72.62813 79.69006Q72.62813 81.36194 73.26875 82.12756Q73.90938 82.87756 74.94063 82.87756Q75.76875 82.87756 76.31563 82.37756Q76.87813 81.86194 77.01875 80.79944ZM85.01875 82.81506Q84.2375 83.48694 83.51875 83.76819Q82.8 84.03381 81.97188 84.03381Q80.59688 84.03381 79.8625 83.36194Q79.12813 82.69006 79.12813 81.65881Q79.12813 81.04944 79.40938 80.54944Q79.69063 80.03381 80.12813 79.73694Q80.58125 79.42444 81.14375 79.26819Q81.56563 79.15881 82.39375 79.06506Q84.09688 78.86194 84.90938 78.58069Q84.90938 78.28381 84.90938 78.20569Q84.90938 77.34631 84.51875 77.00256Q83.97188 76.51819 82.90938 76.51819Q81.925 76.51819 81.44063 76.87756Q80.97188 77.22131 80.75313 78.09631L79.37813 77.90881Q79.56563 77.03381 79.9875 76.48694Q80.425 75.94006 81.2375 75.65881Q82.05 75.36194 83.1125 75.36194Q84.175 75.36194 84.83125 75.61194Q85.50313 75.86194 85.81563 76.23694Q86.12813 76.61194 86.25313 77.19006Q86.33125 77.54944 86.33125 78.48694L86.33125 80.36194Q86.33125 82.33069 86.40938 82.84631Q86.50313 83.36194 86.76875 83.84631L85.3 83.84631Q85.08125 83.40881 85.01875 82.81506ZM84.90938 79.67444Q84.14375 79.98694 82.6125 80.20569Q81.7375 80.33069 81.37813 80.48694Q81.01875 80.64319 80.81563 80.95569Q80.62813 81.25256 80.62813 81.61194Q80.62813 82.17444 81.05 82.54944Q81.4875 82.92444 82.3 82.92444Q83.1125 82.92444 83.7375 82.58069Q84.37813 82.22131 84.675 81.59631Q84.90938 81.12756 84.90938 80.19006L84.90938 79.67444ZM88.6125 87.03381L88.6125 75.54944L89.89375 75.54944L89.89375 76.62756Q90.34688 75.98694 90.90938 75.67444Q91.4875 75.36194 92.3 75.36194Q93.3625 75.36194 94.175 75.90881Q94.9875 76.45569 95.39375 77.45569Q95.81563 78.44006 95.81563 79.62756Q95.81563 80.90881 95.34688 81.92444Q94.89375 82.94006 94.01875 83.48694Q93.15938 84.03381 92.19063 84.03381Q91.4875 84.03381 90.925 83.73694Q90.37813 83.44006 90.01875 82.98694L90.01875 87.03381L88.6125 87.03381ZM89.87813 79.73694Q89.87813 81.34631 90.51875 82.11194Q91.175 82.87756 92.09688 82.87756Q93.03438 82.87756 93.70625 82.08069Q94.37813 81.28381 94.37813 79.62756Q94.37813 78.03381 93.72188 77.25256Q93.06563 76.45569 92.15938 76.45569Q91.26875 76.45569 90.56563 77.29944Q89.87813 78.14319 89.87813 79.73694ZM103.28438 81.17444L104.7375 81.34631Q104.39375 82.62756 103.45625 83.33069Q102.53438 84.03381 101.09688 84.03381Q99.26875 84.03381 98.20625 82.90881Q97.14375 81.78381 97.14375 79.76819Q97.14375 77.67444 98.22188 76.51819Q99.3 75.36194 101.01875 75.36194Q102.675 75.36194 103.72188 76.50256Q104.78438 77.62756 104.78438 79.67444Q104.78438 79.79944 104.78438 80.04944L98.59688 80.04944Q98.675 81.42444 99.3625 82.15881Q100.06563 82.87756 101.09688 82.87756Q101.87813 82.87756 102.425 82.47131Q102.97188 82.06506 103.28438 81.17444ZM98.675 78.89319L103.3 78.89319Q103.20625 77.84631 102.76875 77.33069Q102.09688 76.51819 101.03438 76.51819Q100.06563 76.51819 99.39375 77.17444Q98.7375 77.81506 98.675 78.89319Z" fill-rule="nonzero"/><path fill="#9e9e9e" d="M26.6125 104.48694L26.6125 105.84631L19.034374 105.84631Q19.01875 105.33069 19.20625 104.86194Q19.4875 104.09631 20.128124 103.34631Q20.76875 102.59631 21.971874 101.61194Q23.83125 100.08069 24.4875 99.19006Q25.14375 98.28381 25.14375 97.48694Q25.14375 96.65881 24.55 96.08069Q23.95625 95.50256 22.9875 95.50256Q21.971874 95.50256 21.3625 96.11194Q20.753124 96.72131 20.753124 97.79944L19.3 97.65881Q19.45625 96.03381 20.425 95.19006Q21.39375 94.34631 23.01875 94.34631Q24.675 94.34631 25.628124 95.26819Q26.596874 96.17444 26.596874 97.51819Q26.596874 98.20569 26.315624 98.87756Q26.034374 99.53381 25.378124 100.26819Q24.721874 101.00256 23.20625 102.28381Q21.940624 103.34631 21.58125 103.73694Q21.221874 104.11194 20.9875 104.48694L26.6125 104.48694ZM28.221874 100.19006Q28.221874 98.15881 28.628124 96.92444Q29.05 95.69006 29.878124 95.01819Q30.70625 94.34631 31.95625 94.34631Q32.878124 94.34631 33.565624 94.72131Q34.26875 95.08069 34.721874 95.78381Q35.175 96.48694 35.425 97.48694Q35.690624 98.48694 35.690624 100.19006Q35.690624 102.20569 35.26875 103.45569Q34.8625 104.69006 34.034374 105.37756Q33.20625 106.04944 31.95625 106.04944Q30.3 106.04944 29.346874 104.84631Q28.221874 103.42444 28.221874 100.19006ZM29.659374 100.19006Q29.659374 103.01819 30.315624 103.95569Q30.9875 104.87756 31.95625 104.87756Q32.925 104.87756 33.58125 103.94006Q34.2375 103.00256 34.2375 100.19006Q34.2375 97.36194 33.58125 96.44006Q32.925 95.50256 31.940624 95.50256Q30.971874 95.50256 30.39375 96.33069Q29.659374 97.37756 29.659374 100.19006ZM38.003124 105.84631L38.003124 104.23694L39.6125 104.23694L39.6125 105.84631L38.003124 105.84631ZM41.221874 100.19006Q41.221874 98.15881 41.628124 96.92444Q42.05 95.69006 42.878124 95.01819Q43.70625 94.34631 44.95625 94.34631Q45.878124 94.34631 46.565624 94.72131Q47.26875 95.08069 47.721874 95.78381Q48.175 96.48694 48.425 97.48694Q48.690624 98.48694 48.690624 100.19006Q48.690624 102.20569 48.26875 103.45569Q47.8625 104.69006 47.034374 105.37756Q46.20625 106.04944 44.95625 106.04944Q43.3 106.04944 42.346874 104.84631Q41.221874 103.42444 41.221874 100.19006ZM42.659374 100.19006Q42.659374 103.01819 43.315624 103.95569Q43.9875 104.87756 44.95625 104.87756Q45.925 104.87756 46.58125 103.94006Q47.2375 103.00256 47.2375 100.19006Q47.2375 97.36194 46.58125 96.44006Q45.925 95.50256 44.940624 95.50256Q43.971874 95.50256 43.39375 96.33069Q42.659374 97.37756 42.659374 100.19006ZM50.4875 97.14319Q50.4875 95.90881 51.096874 95.04944Q51.721874 94.19006 52.89375 94.19006Q53.971874 94.19006 54.675 94.97131Q55.378124 95.73694 55.378124 97.22131Q55.378124 98.67444 54.659374 99.47131Q53.95625 100.25256 52.909374 100.25256Q51.8625 100.25256 51.175 99.48694Q50.4875 98.70569 50.4875 97.14319ZM52.925 95.15881Q52.409374 95.15881 52.05 95.61194Q51.70625 96.06506 51.70625 97.28381Q51.70625 98.37756 52.05 98.83069Q52.409374 99.28381 52.925 99.28381Q53.45625 99.28381 53.8 98.83069Q54.159374 98.37756 54.159374 97.17444Q54.159374 96.06506 53.8 95.61194Q53.45625 95.15881 52.925 95.15881ZM52.940624 106.26819L59.20625 94.19006L60.346874 94.19006L54.096874 106.26819L52.940624 106.26819ZM57.89375 103.15881Q57.89375 101.92444 58.503124 101.06506Q59.128124 100.20569 60.3 100.20569Q61.378124 100.20569 62.08125 100.98694Q62.8 101.75256 62.8 103.23694Q62.8 104.69006 62.08125 105.48694Q61.3625 106.26819 60.315624 106.26819Q59.26875 106.26819 58.58125 105.48694Q57.89375 104.70569 57.89375 103.15881ZM60.346874 101.17444Q59.815624 101.17444 59.45625 101.62756Q59.1125 102.08069 59.1125 103.29944Q59.1125 104.39319 59.45625 104.84631Q59.815624 105.29944 60.33125 105.29944Q60.878124 105.29944 61.221874 104.84631Q61.565624 104.39319 61.565624 103.19006Q61.565624 102.08069 61.20625 101.62756Q60.8625 101.17444 60.346874 101.17444Z" fill-rule="nonzero"/><path stroke="#757575" stroke-width="1.0" stroke-linecap="butt" d="M18.55 89.34631L145.23334 89.34631L216.92929 89.34631" fill-rule="nonzero"/><path fill="#9e9e9e" d="M218.92929 89.34631C218.92929 88.24174 218.03386 87.34631 216.92929 87.34631C215.82472 87.34631 214.92929 88.24174 214.92929 89.34631C214.92929 90.45088 215.82472 91.34631 216.92929 91.34631C218.03386 91.34631 218.92929 90.45088 218.92929 89.34631" fill-rule="nonzero"/><path fill="#efefef" d="M19.784374 241.85619L19.784374 230.40306L23.7375 230.40306Q25.065624 230.40306 25.76875 230.55931Q26.753124 230.79369 27.45625 231.38744Q28.3625 232.15306 28.8 233.34056Q29.253124 234.52806 29.253124 236.05931Q29.253124 237.37181 28.940624 238.38744Q28.64375 239.38744 28.159374 240.04369Q27.690624 240.69994 27.128124 241.09056Q26.565624 241.46556 25.753124 241.66869Q24.95625 241.85619 23.925 241.85619L19.784374 241.85619ZM21.3 240.49681L23.753124 240.49681Q24.878124 240.49681 25.51875 240.29369Q26.175 240.07494 26.55 239.69994Q27.096874 239.15306 27.39375 238.24681Q27.690624 237.34056 27.690624 236.04369Q27.690624 234.24681 27.096874 233.27806Q26.51875 232.30931 25.675 231.98119Q25.065624 231.74681 23.70625 231.74681L21.3 231.74681L21.3 240.49681ZM37.284374 239.18431L38.7375 239.35619Q38.39375 240.63744 37.45625 241.34056Q36.534374 242.04369 35.096874 242.04369Q33.26875 242.04369 32.20625 240.91869Q31.14375 239.79369 31.14375 237.77806Q31.14375 235.68431 32.221874 234.52806Q33.3 233.37181 35.01875 233.37181Q36.675 233.37181 37.721874 234.51244Q38.784374 235.63744 38.784374 237.68431Q38.784374 237.80931 38.784374 238.05931L32.596874 238.05931Q32.675 239.43431 33.3625 240.16869Q34.065624 240.88744 35.096874 240.88744Q35.878124 240.88744 36.425 240.48119Q36.971874 240.07494 37.284374 239.18431ZM32.675 236.90306L37.3 236.90306Q37.20625 235.85619 36.76875 235.34056Q36.096874 234.52806 35.034374 234.52806Q34.065624 234.52806 33.39375 235.18431Q32.7375 235.82494 32.675 236.90306ZM43.675 240.59056L43.878124 241.84056Q43.284374 241.96556 42.815624 241.96556Q42.05 241.96556 41.628124 241.73119Q41.20625 241.48119 41.034374 241.09056Q40.8625 240.68431 40.8625 239.41869L40.8625 234.65306L39.83125 234.65306L39.83125 233.55931L40.8625 233.55931L40.8625 231.49681L42.26875 230.65306L42.26875 233.55931L43.675 233.55931L43.675 234.65306L42.26875 234.65306L42.26875 239.49681Q42.26875 240.10619 42.33125 240.27806Q42.409374 240.44994 42.58125 240.55931Q42.753124 240.65306 43.065624 240.65306Q43.3 240.65306 43.675 240.59056ZM50.01875 240.82494Q49.2375 241.49681 48.51875 241.77806Q47.8 242.04369 46.971874 242.04369Q45.596874 242.04369 44.8625 241.37181Q44.128124 240.69994 44.128124 239.66869Q44.128124 239.05931 44.409374 238.55931Q44.690624 238.04369 45.128124 237.74681Q45.58125 237.43431 46.14375 237.27806Q46.565624 237.16869 47.39375 237.07494Q49.096874 236.87181 49.909374 236.59056Q49.909374 236.29369 49.909374 236.21556Q49.909374 235.35619 49.51875 235.01244Q48.971874 234.52806 47.909374 234.52806Q46.925 234.52806 46.440624 234.88744Q45.971874 235.23119 45.753124 236.10619L44.378124 235.91869Q44.565624 235.04369 44.9875 234.49681Q45.425 233.94994 46.2375 233.66869Q47.05 233.37181 48.1125 233.37181Q49.175 233.37181 49.83125 233.62181Q50.503124 233.87181 50.815624 234.24681Q51.128124 234.62181 51.253124 235.19994Q51.33125 235.55931 51.33125 236.49681L51.33125 238.37181Q51.33125 240.34056 51.409374 240.85619Q51.503124 241.37181 51.76875 241.85619L50.3 241.85619Q50.08125 241.41869 50.01875 240.82494ZM49.909374 237.68431Q49.14375 237.99681 47.6125 238.21556Q46.7375 238.34056 46.378124 238.49681Q46.01875 238.65306 45.815624 238.96556Q45.628124 239.26244 45.628124 239.62181Q45.628124 240.18431 46.05 240.55931Q46.4875 240.93431 47.3 240.93431Q48.1125 240.93431 48.7375 240.59056Q49.378124 240.23119 49.675 239.60619Q49.909374 239.13744 49.909374 238.19994L49.909374 237.68431ZM53.6125 232.01244L53.6125 230.40306L55.01875 230.40306L55.01875 232.01244L53.6125 232.01244ZM53.6125 241.85619L53.6125 233.55931L55.01875 233.55931L55.01875 241.85619L53.6125 241.85619ZM57.58125 241.85619L57.58125 230.40306L58.9875 230.40306L58.9875 241.85619L57.58125 241.85619ZM61.05 239.37181L62.440624 239.15306Q62.55 239.99681 63.08125 240.44994Q63.628124 240.88744 64.58125 240.88744Q65.55 240.88744 66.01875 240.49681Q66.4875 240.09056 66.4875 239.55931Q66.4875 239.09056 66.08125 238.80931Q65.78438 238.62181 64.64375 238.34056Q63.096874 237.94994 62.4875 237.66869Q61.89375 237.37181 61.58125 236.87181Q61.284374 236.37181 61.284374 235.76244Q61.284374 235.19994 61.534374 234.73119Q61.784374 234.26244 62.221874 233.94994Q62.55 233.69994 63.1125 233.54369Q63.690624 233.37181 64.33125 233.37181Q65.31563 233.37181 66.05 233.65306Q66.78438 233.93431 67.12813 234.41869Q67.4875 234.88744 67.62813 235.69994L66.25313 235.88744Q66.15938 235.24681 65.70625 234.88744Q65.25313 234.52806 64.44063 234.52806Q63.471874 234.52806 63.05 234.85619Q62.64375 235.16869 62.64375 235.59056Q62.64375 235.87181 62.815624 236.09056Q62.9875 236.30931 63.346874 236.46556Q63.565624 236.54369 64.59688 236.82494Q66.08125 237.21556 66.675 237.48119Q67.26875 237.73119 67.59688 238.21556Q67.94063 238.69994 67.94063 239.41869Q67.94063 240.12181 67.51875 240.74681Q67.1125 241.35619 66.33125 241.69994Q65.56563 242.04369 64.59688 242.04369Q62.971874 242.04369 62.128124 241.37181Q61.284374 240.69994 61.05 239.37181Z" fill-rule="nonzero"/><path fill="#9e9e9e" d="M26.6125 262.49683L26.6125 263.8562L19.034374 263.8562Q19.01875 263.34058 19.20625 262.87183Q19.4875 262.1062 20.128124 261.3562Q20.76875 260.6062 21.971874 259.62183Q23.83125 258.09058 24.4875 257.19995Q25.14375 256.2937 25.14375 255.49683Q25.14375 254.6687 24.55 254.09058Q23.95625 253.51245 22.9875 253.51245Q21.971874 253.51245 21.3625 254.12183Q20.753124 254.7312 20.753124 255.80933L19.3 255.6687Q19.45625 254.0437 20.425 253.19995Q21.39375 252.3562 23.01875 252.3562Q24.675 252.3562 25.628124 253.27808Q26.596874 254.18433 26.596874 255.52808Q26.596874 256.21558 26.315624 256.88745Q26.034374 257.5437 25.378124 258.27808Q24.721874 259.01245 23.20625 260.2937Q21.940624 261.3562 21.58125 261.74683Q21.221874 262.12183 20.9875 262.49683L26.6125 262.49683ZM28.221874 258.19995Q28.221874 256.1687 28.628124 254.93433Q29.05 253.69995 29.878124 253.02808Q30.70625 252.3562 31.95625 252.3562Q32.878124 252.3562 33.565624 252.7312Q34.26875 253.09058 34.721874 253.7937Q35.175 254.49683 35.425 255.49683Q35.690624 256.49683 35.690624 258.19995Q35.690624 260.21558 35.26875 261.46558Q34.8625 262.69995 34.034374 263.38745Q33.20625 264.05933 31.95625 264.05933Q30.3 264.05933 29.346874 262.8562Q28.221874 261.43433 28.221874 258.19995ZM29.659374 258.19995Q29.659374 261.02808 30.315624 261.96558Q30.9875 262.88745 31.95625 262.88745Q32.925 262.88745 33.58125 261.94995Q34.2375 261.01245 34.2375 258.19995Q34.2375 255.37183 33.58125 254.44995Q32.925 253.51245 31.940624 253.51245Q30.971874 253.51245 30.39375 254.34058Q29.659374 255.38745 29.659374 258.19995ZM38.003124 263.8562L38.003124 262.24683L39.6125 262.24683L39.6125 263.8562L38.003124 263.8562ZM41.221874 258.19995Q41.221874 256.1687 41.628124 254.93433Q42.05 253.69995 42.878124 253.02808Q43.70625 252.3562 44.95625 252.3562Q45.878124 252.3562 46.565624 252.7312Q47.26875 253.09058 47.721874 253.7937Q48.175 254.49683 48.425 255.49683Q48.690624 256.49683 48.690624 258.19995Q48.690624 260.21558 48.26875 261.46558Q47.8625 262.69995 47.034374 263.38745Q46.20625 264.05933 44.95625 264.05933Q43.3 264.05933 42.346874 262.8562Q41.221874 261.43433 41.221874 258.19995ZM42.659374 258.19995Q42.659374 261.02808 43.315624 261.96558Q43.9875 262.88745 44.95625 262.88745Q45.925 262.88745 46.58125 261.94995Q47.2375 261.01245 47.2375 258.19995Q47.2375 255.37183 46.58125 254.44995Q45.925 253.51245 44.940624 253.51245Q43.971874 253.51245 43.39375 254.34058Q42.659374 255.38745 42.659374 258.19995ZM50.4875 255.15308Q50.4875 253.9187 51.096874 253.05933Q51.721874 252.19995 52.89375 252.19995Q53.971874 252.19995 54.675 252.9812Q55.378124 253.74683 55.378124 255.2312Q55.378124 256.68433 54.659374 257.4812Q53.95625 258.26245 52.909374 258.26245Q51.8625 258.26245 51.175 257.49683Q50.4875 256.71558 50.4875 255.15308ZM52.925 253.1687Q52.409374 253.1687 52.05 253.62183Q51.70625 254.07495 51.70625 255.2937Q51.70625 256.38745 52.05 256.84058Q52.409374 257.2937 52.925 257.2937Q53.45625 257.2937 53.8 256.84058Q54.159374 256.38745 54.159374 255.18433Q54.159374 254.07495 53.8 253.62183Q53.45625 253.1687 52.925 253.1687ZM52.940624 264.27808L59.20625 252.19995L60.346874 252.19995L54.096874 264.27808L52.940624 264.27808ZM57.89375 261.1687Q57.89375 259.93433 58.503124 259.07495Q59.128124 258.21558 60.3 258.21558Q61.378124 258.21558 62.08125 258.99683Q62.8 259.76245 62.8 261.24683Q62.8 262.69995 62.08125 263.49683Q61.3625 264.27808 60.315624 264.27808Q59.26875 264.27808 58.58125 263.49683Q57.89375 262.71558 57.89375 261.1687ZM60.346874 259.18433Q59.815624 259.18433 59.45625 259.63745Q59.1125 260.09058 59.1125 261.30933Q59.1125 262.40308 59.45625 262.8562Q59.815624 263.30933 60.33125 263.30933Q60.878124 263.30933 61.221874 262.8562Q61.565624 262.40308 61.565624 261.19995Q61.565624 260.09058 61.20625 259.63745Q60.8625 259.18433 60.346874 259.18433Z" fill-rule="nonzero"/><path stroke="#757575" stroke-width="1.0" stroke-linecap="butt" d="M18.55 247.35619L145.23334 247.35619L165.58876 247.35619" fill-rule="nonzero"/><path fill="#9e9e9e" d="M167.58876 247.35619C167.58876 246.25162 166.69334 245.35619 165.58876 245.35619C164.48419 245.35619 163.58876 246.25162 163.58876 247.35619C163.58876 248.46075 164.48419 249.35619 165.58876 249.35619C166.69334 249.35619 167.58876 248.46075 167.58876 247.35619" fill-rule="nonzero"/><path fill="#efefef" d="M551.6375 83.84631L551.6375 72.39319L553.91876 72.39319L556.6375 80.50256Q557.0125 81.62756 557.1844 82.19006Q557.3719 81.56506 557.79376 80.36194L560.52814 72.39319L562.575 72.39319L562.575 83.84631L561.10626 83.84631L561.10626 74.25256L557.77814 83.84631L556.41876 83.84631L553.10626 74.09631L553.10626 83.84631L551.6375 83.84631ZM569.91876 82.81506Q569.1375 83.48694 568.41876 83.76819Q567.7 84.03381 566.8719 84.03381Q565.4969 84.03381 564.7625 83.36194Q564.02814 82.69006 564.02814 81.65881Q564.02814 81.04944 564.3094 80.54944Q564.59064 80.03381 565.02814 79.73694Q565.48126 79.42444 566.04376 79.26819Q566.46564 79.15881 567.29376 79.06506Q568.9969 78.86194 569.8094 78.58069Q569.8094 78.28381 569.8094 78.20569Q569.8094 77.34631 569.41876 77.00256Q568.8719 76.51819 567.8094 76.51819Q566.825 76.51819 566.34064 76.87756Q565.8719 77.22131 565.65314 78.09631L564.27814 77.90881Q564.46564 77.03381 564.8875 76.48694Q565.325 75.94006 566.1375 75.65881Q566.95 75.36194 568.0125 75.36194Q569.075 75.36194 569.73126 75.61194Q570.40314 75.86194 570.71564 76.23694Q571.02814 76.61194 571.15314 77.19006Q571.23126 77.54944 571.23126 78.48694L571.23126 80.36194Q571.23126 82.33069 571.3094 82.84631Q571.40314 83.36194 571.66876 83.84631L570.2 83.84631Q569.98126 83.40881 569.91876 82.81506ZM569.8094 79.67444Q569.04376 79.98694 567.5125 80.20569Q566.6375 80.33069 566.27814 80.48694Q565.91876 80.64319 565.71564 80.95569Q565.52814 81.25256 565.52814 81.61194Q565.52814 82.17444 565.95 82.54944Q566.3875 82.92444 567.2 82.92444Q568.0125 82.92444 568.6375 82.58069Q569.27814 82.22131 569.575 81.59631Q569.8094 81.12756 569.8094 80.19006L569.8094 79.67444ZM573.5125 87.03381L573.5125 75.54944L574.79376 75.54944L574.79376 76.62756Q575.2469 75.98694 575.8094 75.67444Q576.3875 75.36194 577.2 75.36194Q578.2625 75.36194 579.075 75.90881Q579.8875 76.45569 580.29376 77.45569Q580.71564 78.44006 580.71564 79.62756Q580.71564 80.90881 580.2469 81.92444Q579.79376 82.94006 578.91876 83.48694Q578.0594 84.03381 577.09064 84.03381Q576.3875 84.03381 575.825 83.73694Q575.27814 83.44006 574.91876 82.98694L574.91876 87.03381L573.5125 87.03381ZM574.77814 79.73694Q574.77814 81.34631 575.41876 82.11194Q576.075 82.87756 576.9969 82.87756Q577.9344 82.87756 578.60626 82.08069Q579.27814 81.28381 579.27814 79.62756Q579.27814 78.03381 578.6219 77.25256Q577.96564 76.45569 577.0594 76.45569Q576.16876 76.45569 575.46564 77.29944Q574.77814 78.14319 574.77814 79.73694Z" fill-rule="nonzero"/><path fill="#9e9e9e" d="M544.5125 104.48694L544.5125 105.84631L536.9344 105.84631Q536.91876 105.33069 537.10626 104.86194Q537.3875 104.09631 538.02814 103.34631Q538.66876 102.59631 539.8719 101.61194Q541.73126 100.08069 542.3875 99.19006Q543.04376 98.28381 543.04376 97.48694Q543.04376 96.65881 542.45 96.08069Q541.85626 95.50256 540.8875 95.50256Q539.8719 95.50256 539.2625 96.11194Q538.65314 96.72131 538.65314 97.79944L537.2 97.65881Q537.35626 96.03381 538.325 95.19006Q539.29376 94.34631 540.91876 94.34631Q542.575 94.34631 543.52814 95.26819Q544.4969 96.17444 544.4969 97.51819Q544.4969 98.20569 544.21564 98.87756Q543.9344 99.53381 543.27814 100.26819Q542.6219 101.00256 541.10626 102.28381Q539.84064 103.34631 539.48126 103.73694Q539.1219 104.11194 538.8875 104.48694L544.5125 104.48694ZM546.1219 100.19006Q546.1219 98.15881 546.52814 96.92444Q546.95 95.69006 547.77814 95.01819Q548.60626 94.34631 549.85626 94.34631Q550.77814 94.34631 551.46564 94.72131Q552.16876 95.08069 552.6219 95.78381Q553.075 96.48694 553.325 97.48694Q553.59064 98.48694 553.59064 100.19006Q553.59064 102.20569 553.16876 103.45569Q552.7625 104.69006 551.9344 105.37756Q551.10626 106.04944 549.85626 106.04944Q548.2 106.04944 547.2469 104.84631Q546.1219 103.42444 546.1219 100.19006ZM547.5594 100.19006Q547.5594 103.01819 548.21564 103.95569Q548.8875 104.87756 549.85626 104.87756Q550.825 104.87756 551.48126 103.94006Q552.1375 103.00256 552.1375 100.19006Q552.1375 97.36194 551.48126 96.44006Q550.825 95.50256 549.84064 95.50256Q548.8719 95.50256 548.29376 96.33069Q547.5594 97.37756 547.5594 100.19006ZM555.90314 105.84631L555.90314 104.23694L557.5125 104.23694L557.5125 105.84631L555.90314 105.84631ZM559.1219 100.19006Q559.1219 98.15881 559.52814 96.92444Q559.95 95.69006 560.77814 95.01819Q561.60626 94.34631 562.85626 94.34631Q563.77814 94.34631 564.46564 94.72131Q565.16876 95.08069 565.6219 95.78381Q566.075 96.48694 566.325 97.48694Q566.59064 98.48694 566.59064 100.19006Q566.59064 102.20569 566.16876 103.45569Q565.7625 104.69006 564.9344 105.37756Q564.10626 106.04944 562.85626 106.04944Q561.2 106.04944 560.2469 104.84631Q559.1219 103.42444 559.1219 100.19006ZM560.5594 100.19006Q560.5594 103.01819 561.21564 103.95569Q561.8875 104.87756 562.85626 104.87756Q563.825 104.87756 564.48126 103.94006Q565.1375 103.00256 565.1375 100.19006Q565.1375 97.36194 564.48126 96.44006Q563.825 95.50256 562.84064 95.50256Q561.8719 95.50256 561.29376 96.33069Q560.5594 97.37756 560.5594 100.19006ZM568.3875 97.14319Q568.3875 95.90881 568.9969 95.04944Q569.6219 94.19006 570.79376 94.19006Q571.8719 94.19006 572.575 94.97131Q573.27814 95.73694 573.27814 97.22131Q573.27814 98.67444 572.5594 99.47131Q571.85626 100.25256 570.8094 100.25256Q569.7625 100.25256 569.075 99.48694Q568.3875 98.70569 568.3875 97.14319ZM570.825 95.15881Q570.3094 95.15881 569.95 95.61194Q569.60626 96.06506 569.60626 97.28381Q569.60626 98.37756 569.95 98.83069Q570.3094 99.28381 570.825 99.28381Q571.35626 99.28381 571.7 98.83069Q572.0594 98.37756 572.0594 97.17444Q572.0594 96.06506 571.7 95.61194Q571.35626 95.15881 570.825 95.15881ZM570.84064 106.26819L577.10626 94.19006L578.2469 94.19006L571.9969 106.26819L570.84064 106.26819ZM575.79376 103.15881Q575.79376 101.92444 576.40314 101.06506Q577.02814 100.20569 578.2 100.20569Q579.27814 100.20569 579.98126 100.98694Q580.7 101.75256 580.7 103.23694Q580.7 104.69006 579.98126 105.48694Q579.2625 106.26819 578.21564 106.26819Q577.16876 106.26819 576.48126 105.48694Q575.79376 104.70569 575.79376 103.15881ZM578.2469 101.17444Q577.71564 101.17444 577.35626 101.62756Q577.0125 102.08069 577.0125 103.29944Q577.0125 104.39319 577.35626 104.84631Q577.71564 105.29944 578.23126 105.29944Q578.77814 105.29944 579.1219 104.84631Q579.46564 104.39319 579.46564 103.19006Q579.46564 102.08069 579.10626 101.62756Q578.7625 101.17444 578.2469 101.17444Z" fill-rule="nonzero"/><path stroke="#757575" stroke-width="1.0" stroke-linecap="butt" d="M581.45 89.34631L454.76666 89.34631L383.0707 89.34631" fill-rule="nonzero"/><path fill="#9e9e9e" d="M385.0707 89.34631C385.0707 88.24174 384.1753 87.34631 383.0707 87.34631C381.96613 87.34631 381.0707 88.24174 381.0707 89.34631C381.0707 90.45088 381.96613 91.34631 383.0707 91.34631C384.1753 91.34631 385.0707 90.45088 385.0707 89.34631" fill-rule="nonzero"/><path fill="#efefef" d="M498.6844 312.52036L498.6844 301.06723L503.0125 301.06723Q504.15314 301.06723 504.7469 301.1766Q505.59064 301.31723 506.15314 301.70786Q506.73126 302.09848 507.075 302.81723Q507.4344 303.52036 507.4344 304.37973Q507.4344 305.83286 506.4969 306.84848Q505.575 307.8641 503.1375 307.8641L500.2 307.8641L500.2 312.52036L498.6844 312.52036ZM500.2 306.50473L503.16876 306.50473Q504.6375 306.50473 505.2469 305.95786Q505.8719 305.41098 505.8719 304.4266Q505.8719 303.70786 505.4969 303.19223Q505.1375 302.6766 504.54376 302.52036Q504.16876 302.41098 503.1375 302.41098L500.2 302.41098L500.2 306.50473ZM515.1844 309.84848L516.6375 310.02036Q516.29376 311.3016 515.35626 312.00473Q514.4344 312.70786 512.9969 312.70786Q511.16876 312.70786 510.10626 311.58286Q509.04376 310.45786 509.04376 308.44223Q509.04376 306.34848 510.1219 305.19223Q511.2 304.03598 512.91876 304.03598Q514.575 304.03598 515.6219 305.1766Q516.6844 306.3016 516.6844 308.34848Q516.6844 308.47348 516.6844 308.72348L510.4969 308.72348Q510.575 310.09848 511.2625 310.83286Q511.96564 311.5516 512.9969 311.5516Q513.77814 311.5516 514.325 311.14536Q514.8719 310.7391 515.1844 309.84848ZM510.575 307.56723L515.2 307.56723Q515.10626 306.52036 514.66876 306.00473Q513.9969 305.19223 512.9344 305.19223Q511.96564 305.19223 511.29376 305.84848Q510.6375 306.4891 510.575 307.56723ZM518.4969 312.52036L518.4969 304.22348L519.7625 304.22348L519.7625 305.47348Q520.2469 304.59848 520.65314 304.31723Q521.0594 304.03598 521.5594 304.03598Q522.2625 304.03598 522.9969 304.4891L522.5125 305.78598Q521.9969 305.4891 521.48126 305.4891Q521.02814 305.4891 520.65314 305.77036Q520.29376 306.03598 520.1375 306.53598Q519.90314 307.28598 519.90314 308.1766L519.90314 312.52036L518.4969 312.52036ZM522.95 310.03598L524.34064 309.81723Q524.45 310.66098 524.98126 311.1141Q525.52814 311.5516 526.48126 311.5516Q527.45 311.5516 527.91876 311.16098Q528.3875 310.75473 528.3875 310.22348Q528.3875 309.75473 527.98126 309.47348Q527.6844 309.28598 526.54376 309.00473Q524.9969 308.6141 524.3875 308.33286Q523.79376 308.03598 523.48126 307.53598Q523.1844 307.03598 523.1844 306.4266Q523.1844 305.8641 523.4344 305.39536Q523.6844 304.9266 524.1219 304.6141Q524.45 304.3641 525.0125 304.20786Q525.59064 304.03598 526.23126 304.03598Q527.21564 304.03598 527.95 304.31723Q528.6844 304.59848 529.02814 305.08286Q529.3875 305.5516 529.52814 306.3641L528.15314 306.5516Q528.0594 305.91098 527.60626 305.5516Q527.15314 305.19223 526.34064 305.19223Q525.3719 305.19223 524.95 305.52036Q524.54376 305.83286 524.54376 306.25473Q524.54376 306.53598 524.71564 306.75473Q524.8875 306.97348 525.2469 307.12973Q525.46564 307.20786 526.4969 307.4891Q527.98126 307.87973 528.575 308.14536Q529.16876 308.39536 529.4969 308.87973Q529.84064 309.3641 529.84064 310.08286Q529.84064 310.78598 529.41876 311.41098Q529.0125 312.02036 528.23126 312.3641Q527.46564 312.70786 526.4969 312.70786Q524.8719 312.70786 524.02814 312.03598Q523.1844 311.3641 522.95 310.03598ZM531.5125 315.70786L531.5125 304.22348L532.79376 304.22348L532.79376 305.3016Q533.2469 304.66098 533.8094 304.34848Q534.3875 304.03598 535.2 304.03598Q536.2625 304.03598 537.075 304.58286Q537.8875 305.12973 538.29376 306.12973Q538.71564 307.1141 538.71564 308.3016Q538.71564 309.58286 538.2469 310.59848Q537.79376 311.6141 536.91876 312.16098Q536.0594 312.70786 535.09064 312.70786Q534.3875 312.70786 533.825 312.41098Q533.27814 312.1141 532.91876 311.66098L532.91876 315.70786L531.5125 315.70786ZM532.77814 308.41098Q532.77814 310.02036 533.41876 310.78598Q534.075 311.5516 534.9969 311.5516Q535.9344 311.5516 536.60626 310.75473Q537.27814 309.95786 537.27814 308.3016Q537.27814 306.70786 536.6219 305.9266Q535.96564 305.12973 535.0594 305.12973Q534.16876 305.12973 533.46564 305.97348Q532.77814 306.81723 532.77814 308.41098ZM546.1844 309.84848L547.6375 310.02036Q547.29376 311.3016 546.35626 312.00473Q545.4344 312.70786 543.9969 312.70786Q542.16876 312.70786 541.10626 311.58286Q540.04376 310.45786 540.04376 308.44223Q540.04376 306.34848 541.1219 305.19223Q542.2 304.03598 543.91876 304.03598Q545.575 304.03598 546.6219 305.1766Q547.6844 306.3016 547.6844 308.34848Q547.6844 308.47348 547.6844 308.72348L541.4969 308.72348Q541.575 310.09848 542.2625 310.83286Q542.96564 311.5516 543.9969 311.5516Q544.77814 311.5516 545.325 311.14536Q545.8719 310.7391 546.1844 309.84848ZM541.575 307.56723L546.2 307.56723Q546.10626 306.52036 545.66876 306.00473Q544.9969 305.19223 543.9344 305.19223Q542.96564 305.19223 542.29376 305.84848Q541.6375 306.4891 541.575 307.56723ZM554.91876 309.47348L556.3094 309.66098Q556.075 311.08286 555.1375 311.89536Q554.21564 312.70786 552.85626 312.70786Q551.15314 312.70786 550.10626 311.59848Q549.075 310.47348 549.075 308.39536Q549.075 307.0516 549.5125 306.0516Q549.96564 305.03598 550.8719 304.53598Q551.79376 304.03598 552.85626 304.03598Q554.21564 304.03598 555.075 304.72348Q555.9344 305.39536 556.16876 306.66098L554.8094 306.8641Q554.60626 306.03598 554.10626 305.6141Q553.6219 305.19223 552.91876 305.19223Q551.85626 305.19223 551.1844 305.95786Q550.52814 306.70786 550.52814 308.3641Q550.52814 310.03598 551.16876 310.8016Q551.8094 311.5516 552.84064 311.5516Q553.66876 311.5516 554.21564 311.0516Q554.77814 310.53598 554.91876 309.47348ZM560.575 311.25473L560.77814 312.50473Q560.1844 312.62973 559.71564 312.62973Q558.95 312.62973 558.52814 312.39536Q558.10626 312.14536 557.9344 311.75473Q557.7625 311.34848 557.7625 310.08286L557.7625 305.31723L556.73126 305.31723L556.73126 304.22348L557.7625 304.22348L557.7625 302.16098L559.16876 301.31723L559.16876 304.22348L560.575 304.22348L560.575 305.31723L559.16876 305.31723L559.16876 310.16098Q559.16876 310.77036 559.23126 310.94223Q559.3094 311.1141 559.48126 311.22348Q559.65314 311.31723 559.96564 311.31723Q560.2 311.31723 560.575 311.25473ZM561.5125 302.6766L561.5125 301.06723L562.91876 301.06723L562.91876 302.6766L561.5125 302.6766ZM561.5125 312.52036L561.5125 304.22348L562.91876 304.22348L562.91876 312.52036L561.5125 312.52036ZM567.8094 312.52036L564.65314 304.22348L566.1375 304.22348L567.91876 309.19223Q568.21564 309.9891 568.45 310.8641Q568.6375 310.20786 568.98126 309.28598L570.825 304.22348L572.2625 304.22348L569.1219 312.52036L567.8094 312.52036ZM579.1844 309.84848L580.6375 310.02036Q580.29376 311.3016 579.35626 312.00473Q578.4344 312.70786 576.9969 312.70786Q575.16876 312.70786 574.10626 311.58286Q573.04376 310.45786 573.04376 308.44223Q573.04376 306.34848 574.1219 305.19223Q575.2 304.03598 576.91876 304.03598Q578.575 304.03598 579.6219 305.1766Q580.6844 306.3016 580.6844 308.34848Q580.6844 308.47348 580.6844 308.72348L574.4969 308.72348Q574.575 310.09848 575.2625 310.83286Q575.96564 311.5516 576.9969 311.5516Q577.77814 311.5516 578.325 311.14536Q578.8719 310.7391 579.1844 309.84848ZM574.575 307.56723L579.2 307.56723Q579.10626 306.52036 578.66876 306.00473Q577.9969 305.19223 576.9344 305.19223Q575.96564 305.19223 575.29376 305.84848Q574.6375 306.4891 574.575 307.56723Z" fill-rule="nonzero"/><path fill="#9e9e9e" d="M541.6219 334.52036L541.6219 331.77036L536.65314 331.77036L536.65314 330.4891L541.8875 323.06723L543.02814 323.06723L543.02814 330.4891L544.575 330.4891L544.575 331.77036L543.02814 331.77036L543.02814 334.52036L541.6219 334.52036ZM541.6219 330.4891L541.6219 325.31723L538.04376 330.4891L541.6219 330.4891ZM546.1219 328.8641Q546.1219 326.83286 546.52814 325.59848Q546.95 324.3641 547.77814 323.69223Q548.60626 323.02036 549.85626 323.02036Q550.77814 323.02036 551.46564 323.39536Q552.16876 323.75473 552.6219 324.45786Q553.075 325.16098 553.325 326.16098Q553.59064 327.16098 553.59064 328.8641Q553.59064 330.87973 553.16876 332.12973Q552.7625 333.3641 551.9344 334.0516Q551.10626 334.72348 549.85626 334.72348Q548.2 334.72348 547.2469 333.52036Q546.1219 332.09848 546.1219 328.8641ZM547.5594 328.8641Q547.5594 331.69223 548.21564 332.62973Q548.8875 333.5516 549.85626 333.5516Q550.825 333.5516 551.48126 332.6141Q552.1375 331.6766 552.1375 328.8641Q552.1375 326.03598 551.48126 325.1141Q550.825 324.1766 549.84064 324.1766Q548.8719 324.1766 548.29376 325.00473Q547.5594 326.0516 547.5594 328.8641ZM555.90314 334.52036L555.90314 332.91098L557.5125 332.91098L557.5125 334.52036L555.90314 334.52036ZM559.1219 328.8641Q559.1219 326.83286 559.52814 325.59848Q559.95 324.3641 560.77814 323.69223Q561.60626 323.02036 562.85626 323.02036Q563.77814 323.02036 564.46564 323.39536Q565.16876 323.75473 565.6219 324.45786Q566.075 325.16098 566.325 326.16098Q566.59064 327.16098 566.59064 328.8641Q566.59064 330.87973 566.16876 332.12973Q565.7625 333.3641 564.9344 334.0516Q564.10626 334.72348 562.85626 334.72348Q561.2 334.72348 560.2469 333.52036Q559.1219 332.09848 559.1219 328.8641ZM560.5594 328.8641Q560.5594 331.69223 561.21564 332.62973Q561.8875 333.5516 562.85626 333.5516Q563.825 333.5516 564.48126 332.6141Q565.1375 331.6766 565.1375 328.8641Q565.1375 326.03598 564.48126 325.1141Q563.825 324.1766 562.84064 324.1766Q561.8719 324.1766 561.29376 325.00473Q560.5594 326.0516 560.5594 328.8641ZM568.3875 325.81723Q568.3875 324.58286 568.9969 323.72348Q569.6219 322.8641 570.79376 322.8641Q571.8719 322.8641 572.575 323.64536Q573.27814 324.41098 573.27814 325.89536Q573.27814 327.34848 572.5594 328.14536Q571.85626 328.9266 570.8094 328.9266Q569.7625 328.9266 569.075 328.16098Q568.3875 327.37973 568.3875 325.81723ZM570.825 323.83286Q570.3094 323.83286 569.95 324.28598Q569.60626 324.7391 569.60626 325.95786Q569.60626 327.0516 569.95 327.50473Q570.3094 327.95786 570.825 327.95786Q571.35626 327.95786 571.7 327.50473Q572.0594 327.0516 572.0594 325.84848Q572.0594 324.7391 571.7 324.28598Q571.35626 323.83286 570.825 323.83286ZM570.84064 334.94223L577.10626 322.8641L578.2469 322.8641L571.9969 334.94223L570.84064 334.94223ZM575.79376 331.83286Q575.79376 330.59848 576.40314 329.7391Q577.02814 328.87973 578.2 328.87973Q579.27814 328.87973 579.98126 329.66098Q580.7 330.4266 580.7 331.91098Q580.7 333.3641 579.98126 334.16098Q579.2625 334.94223 578.21564 334.94223Q577.16876 334.94223 576.48126 334.16098Q575.79376 333.37973 575.79376 331.83286ZM578.2469 329.84848Q577.71564 329.84848 577.35626 330.3016Q577.0125 330.75473 577.0125 331.97348Q577.0125 333.06723 577.35626 333.52036Q577.71564 333.97348 578.23126 333.97348Q578.77814 333.97348 579.1219 333.52036Q579.46564 333.06723 579.46564 331.8641Q579.46564 330.75473 579.10626 330.3016Q578.7625 329.84848 578.2469 329.84848Z" fill-rule="nonzero"/><path stroke="#757575" stroke-width="1.0" stroke-linecap="butt" d="M581.45 318.02036L454.76666 318.02036L383.0707 318.02036" fill-rule="nonzero"/><path fill="#9e9e9e" d="M385.0707 318.02036C385.0707 316.9158 384.1753 316.02036 383.0707 316.02036C381.96613 316.02036 381.0707 316.9158 381.0707 318.02036C381.0707 319.12494 381.96613 320.02036 383.0707 320.02036C384.1753 320.02036 385.0707 319.12494 385.0707 318.02036" fill-rule="nonzero"/><path fill="#f3f3f3" d="M265.98438 37.55L265.98438 23.2375L268.84375 23.2375L272.21875 33.3625Q272.6875 34.784374 272.90625 35.4875Q273.15625 34.70625 273.67188 33.190624L277.09375 23.2375L279.64062 23.2375L279.64062 37.55L277.82812 37.55L277.82812 25.565624L273.65625 37.55L271.95312 37.55L267.8125 25.3625L267.8125 37.55L265.98438 37.55ZM289.92188 34.20625L291.73438 34.440624Q291.3125 36.01875 290.14062 36.909374Q288.98438 37.784374 287.17188 37.784374Q284.90625 37.784374 283.5625 36.39375Q282.23438 34.9875 282.23438 32.45625Q282.23438 29.83125 283.57812 28.39375Q284.92188 26.940624 287.07812 26.940624Q289.15625 26.940624 290.46875 28.3625Q291.79688 29.76875 291.79688 32.346874Q291.79688 32.503124 291.78125 32.815624L284.04688 32.815624Q284.14062 34.51875 285.01562 35.425Q285.89062 36.33125 287.1875 36.33125Q288.15625 36.33125 288.82812 35.83125Q289.51562 35.315624 289.92188 34.20625ZM284.14062 31.3625L289.9375 31.3625Q289.82812 30.065624 289.28125 29.409374Q288.4375 28.39375 287.09375 28.39375Q285.89062 28.39375 285.0625 29.20625Q284.23438 30.003124 284.14062 31.3625ZM300.54688 37.55L300.54688 36.2375Q299.5625 37.784374 297.64062 37.784374Q296.40625 37.784374 295.35938 37.096874Q294.32812 36.409374 293.75 35.190624Q293.1875 33.971874 293.1875 32.378124Q293.1875 30.815624 293.70312 29.55Q294.21875 28.284374 295.25 27.6125Q296.29688 26.940624 297.5625 26.940624Q298.5 26.940624 299.23438 27.346874Q299.96875 27.7375 300.4375 28.3625L300.4375 23.2375L302.17188 23.2375L302.17188 37.55L300.54688 37.55ZM294.98438 32.378124Q294.98438 34.3625 295.82812 35.346874Q296.67188 36.33125 297.8125 36.33125Q298.96875 36.33125 299.76562 35.39375Q300.57812 34.45625 300.57812 32.51875Q300.57812 30.39375 299.75 29.39375Q298.9375 28.39375 297.73438 28.39375Q296.5625 28.39375 295.76562 29.3625Q294.98438 30.315624 294.98438 32.378124ZM304.82812 25.253124L304.82812 23.2375L306.59375 23.2375L306.59375 25.253124L304.82812 25.253124ZM304.82812 37.55L304.82812 27.175L306.59375 27.175L306.59375 37.55L304.82812 37.55ZM315.60938 37.55L315.60938 36.01875Q314.40625 37.784374 312.32812 37.784374Q311.40625 37.784374 310.60938 37.440624Q309.8125 37.08125 309.42188 36.55Q309.04688 36.01875 308.89062 35.2375Q308.78125 34.721874 308.78125 33.596874L308.78125 27.175L310.53125 27.175L310.53125 32.925Q310.53125 34.3 310.64062 34.784374Q310.8125 35.471874 311.34375 35.878124Q311.89062 36.26875 312.67188 36.26875Q313.46875 36.26875 314.15625 35.8625Q314.85938 35.45625 315.14062 34.76875Q315.4375 34.065624 315.4375 32.7375L315.4375 27.175L317.1875 27.175L317.1875 37.55L315.60938 37.55ZM319.8125 37.55L319.8125 27.175L321.39062 27.175L321.39062 28.628124Q321.875 27.878124 322.6875 27.409374Q323.5 26.940624 324.53125 26.940624Q325.6875 26.940624 326.42188 27.425Q327.15625 27.89375 327.46875 28.753124Q328.70312 26.940624 330.67188 26.940624Q332.21875 26.940624 333.04688 27.8Q333.875 28.659374 333.875 30.425L333.875 37.55L332.125 37.55L332.125 31.01875Q332.125 29.95625 331.95312 29.503124Q331.78125 29.034374 331.32812 28.753124Q330.89062 28.471874 330.28125 28.471874Q329.1875 28.471874 328.45312 29.20625Q327.73438 29.925 327.73438 31.51875L327.73438 37.55L325.98438 37.55L325.98438 30.815624Q325.98438 29.64375 325.54688 29.065624Q325.125 28.471874 324.14062 28.471874Q323.40625 28.471874 322.76562 28.8625Q322.14062 29.253124 321.85938 30.003124Q321.57812 30.753124 321.57812 32.175L321.57812 37.55L319.8125 37.55Z" fill-rule="nonzero"/></svg>