<svg version="1.1" viewBox="0.0 0.0 600.0 371.0" fill="none" stroke="none" stroke-linecap="square" stroke-miterlimit="10" width="600" height="371" xmlns:xlink="http://www.w3.org/1999/xlink" xmlns="http://www.w3.org/2000/svg"><path fill="#ffffff" fill-opacity="0.0" d="M0 0L600.0 0L600.0 371.0L0 371.0L0 0Z" fill-rule="nonzero"/><path fill="#f7d750" d="M300.0 54.916668C345.27335 54.916668 388.08298 75.53269 416.31046 110.92883C444.53793 146.32497 455.11105 192.64877 445.03677 236.78703L372.5184 220.23518C377.5555 198.16605 372.26898 175.00415 358.15524 157.30608C344.0415 139.60802 322.6367 129.3 300.0 129.3Z" fill-rule="nonzero"/><path fill="#f5ee58" d="M445.03677 236.78703C434.9625 280.9253 405.33734 318.0741 364.54742 337.71747L332.2737 270.7004C352.66867 260.87872 367.48126 242.30432 372.5184 220.23518Z" fill-rule="nonzero"/><path fill="#d0473d" d="M183.68953 110.92883C211.91702 75.53269 254.72664 54.916668 300.0 54.916668L300.0 129.3C277.3633 129.3 255.95851 139.60802 241.84477 157.30608Z" fill-rule="nonzero"/><path fill="#8c4595" d="M154.96323 236.78703C144.88895 192.64877 155.46205 146.32497 183.68953 110.92883L241.84477 157.30608C227.73103 175.00415 222.44447 198.16605 227.48161 220.23518Z" fill-rule="nonzero"/><path fill="#78a94e" d="M235.45256 337.71747C194.66267 318.0741 165.03749 280.9253 154.96323 236.78703L227.48161 220.23518C232.51875 242.30432 247.33133 260.87872 267.7263 270.7004Z" fill-rule="nonzero"/><path fill="#2d4d98" d="M364.54742 337.71747C323.75754 357.36084 276.24246 357.36084 235.45256 337.71747L267.7263 270.7004C288.12122 280.5221 311.87878 280.5221 332.2737 270.7004Z" fill-rule="nonzero"/><path fill="#ffffff" d="M370.79535 139.10184L370.79535 140.61746L362.27972 140.61746Q362.2641 140.03934 362.46722 139.52371Q362.79535 138.64871 363.49847 137.80496Q364.21722 136.96121 365.5766 135.85184Q367.67035 134.13309 368.40472 133.13309Q369.15472 132.11746 369.15472 131.22684Q369.15472 130.27371 368.48285 129.63309Q367.81097 128.99246 366.73285 128.99246Q365.5766 128.99246 364.8891 129.67996Q364.21722 130.36746 364.2016 131.57059L362.5766 131.39871Q362.74847 129.58621 363.8266 128.63309Q364.92035 127.67996 366.7641 127.67996Q368.60785 127.67996 369.68597 128.71121Q370.77972 129.74246 370.77972 131.25809Q370.77972 132.02371 370.4516 132.77371Q370.1391 133.52371 369.40472 134.35184Q368.67035 135.17996 366.96722 136.61746Q365.54535 137.82059 365.1391 138.24246Q364.73285 138.66434 364.48285 139.10184L370.79535 139.10184ZM374.92035 133.63309Q373.93597 133.27371 373.4516 132.60184Q372.98285 131.92996 372.98285 131.00809Q372.98285 129.60184 373.98285 128.64871Q374.99847 127.67996 376.68597 127.67996Q378.37347 127.67996 379.3891 128.66434Q380.42035 129.63309 380.42035 131.03934Q380.42035 131.94559 379.9516 132.61746Q379.48285 133.27371 378.52972 133.63309Q379.71722 134.02371 380.3266 134.88309Q380.9516 135.74246 380.9516 136.92996Q380.9516 138.58621 379.77972 139.71121Q378.60785 140.83621 376.7016 140.83621Q374.79535 140.83621 373.62347 139.71121Q372.46722 138.57059 372.46722 136.88309Q372.46722 135.63309 373.09222 134.78934Q373.73285 133.92996 374.92035 133.63309ZM374.59222 130.94559Q374.59222 131.86746 375.18597 132.44559Q375.77972 133.02371 376.71722 133.02371Q377.62347 133.02371 378.2016 132.44559Q378.79535 131.86746 378.79535 131.03934Q378.79535 130.16434 378.18597 129.57059Q377.59222 128.97684 376.7016 128.97684Q375.79535 128.97684 375.18597 129.55496Q374.59222 130.13309 374.59222 130.94559ZM374.09222 136.89871Q374.09222 137.57059 374.40472 138.21121Q374.73285 138.83621 375.35785 139.19559Q375.99847 139.53934 376.73285 139.53934Q377.85785 139.53934 378.59222 138.80496Q379.34222 138.07059 379.34222 136.94559Q379.34222 135.80496 378.5766 135.07059Q377.81097 134.32059 376.67035 134.32059Q375.56097 134.32059 374.8266 135.05496Q374.09222 135.78934 374.09222 136.89871ZM383.37347 140.61746L383.37347 138.82059L385.17035 138.82059L385.17035 140.61746L383.37347 140.61746ZM395.68597 130.88309L394.12347 131.00809Q393.90472 130.08621 393.5141 129.66434Q392.87347 128.97684 391.93597 128.97684Q391.18597 128.97684 390.60785 129.39871Q389.85785 129.94559 389.42035 130.99246Q388.99847 132.03934 388.98285 133.97684Q389.56097 133.10184 390.37347 132.67996Q391.2016 132.25809 392.10785 132.25809Q393.7016 132.25809 394.81097 133.42996Q395.92035 134.58621 395.92035 136.42996Q395.92035 137.64871 395.3891 138.69559Q394.87347 139.72684 393.9516 140.28934Q393.04535 140.83621 391.8891 140.83621Q389.90472 140.83621 388.65472 139.38309Q387.40472 137.92996 387.40472 134.58621Q387.40472 130.85184 388.79535 129.14871Q389.99847 127.67996 392.02972 127.67996Q393.56097 127.67996 394.52972 128.53934Q395.49847 129.38309 395.68597 130.88309ZM389.23285 136.44559Q389.23285 137.25809 389.5766 138.00809Q389.92035 138.75809 390.54535 139.14871Q391.17035 139.53934 391.85785 139.53934Q392.85785 139.53934 393.5766 138.72684Q394.29535 137.91434 394.29535 136.52371Q394.29535 135.19559 393.5766 134.42996Q392.87347 133.64871 391.79535 133.64871Q390.71722 133.64871 389.96722 134.42996Q389.23285 135.19559 389.23285 136.44559ZM397.77972 130.82059Q397.77972 129.44559 398.46722 128.47684Q399.17035 127.50809 400.48285 127.50809Q401.7016 127.50809 402.49847 128.38309Q403.29535 129.24246 403.29535 130.92996Q403.29535 132.55496 402.48285 133.44559Q401.68597 134.32059 400.49847 134.32059Q399.34222 134.32059 398.56097 133.46121Q397.77972 132.58621 397.77972 130.82059ZM400.52972 128.60184Q399.93597 128.60184 399.54535 129.11746Q399.15472 129.61746 399.15472 130.97684Q399.15472 132.22684 399.54535 132.72684Q399.9516 133.22684 400.52972 133.22684Q401.12347 133.22684 401.5141 132.72684Q401.90472 132.21121 401.90472 130.86746Q401.90472 129.61746 401.5141 129.11746Q401.12347 128.60184 400.52972 128.60184ZM400.54535 141.08621L407.59222 127.50809L408.87347 127.50809L401.84222 141.08621L400.54535 141.08621ZM406.10785 137.58621Q406.10785 136.21121 406.79535 135.24246Q407.49847 134.27371 408.8266 134.27371Q410.04535 134.27371 410.8266 135.14871Q411.62347 136.00809 411.62347 137.69559Q411.62347 139.32059 410.8266 140.21121Q410.02972 141.08621 408.84222 141.08621Q407.67035 141.08621 406.8891 140.21121Q406.10785 139.33621 406.10785 137.58621ZM408.87347 135.36746Q408.27972 135.36746 407.8891 135.88309Q407.49847 136.38309 407.49847 137.75809Q407.49847 138.97684 407.8891 139.49246Q408.27972 140.00809 408.85785 140.00809Q409.46722 140.00809 409.85785 139.49246Q410.24847 138.97684 410.24847 137.63309Q410.24847 136.38309 409.85785 135.88309Q409.46722 135.36746 408.87347 135.36746Z" fill-rule="nonzero"/><path fill="#ffffff" d="M368.43597 279.7492L366.85785 279.7492L366.85785 269.67108Q366.27972 270.21796 365.35785 270.76483Q364.43597 271.29608 363.68597 271.57733L363.68597 270.04608Q365.0141 269.42108 366.0141 268.53046Q367.0141 267.63983 367.42035 266.8117L368.43597 266.8117L368.43597 279.7492ZM377.54535 279.7492L377.54535 276.67108L371.96722 276.67108L371.96722 275.21796L377.84222 266.85858L379.1391 266.85858L379.1391 275.21796L380.87347 275.21796L380.87347 276.67108L379.1391 276.67108L379.1391 279.7492L377.54535 279.7492ZM377.54535 275.21796L377.54535 269.40546L373.5141 275.21796L377.54535 275.21796ZM383.37347 279.7492L383.37347 277.95233L385.17035 277.95233L385.17035 279.7492L383.37347 279.7492ZM387.48285 276.34296L389.0766 276.13983Q389.34222 277.48358 389.99847 278.07733Q390.65472 278.67108 391.59222 278.67108Q392.71722 278.67108 393.48285 277.90546Q394.24847 277.1242 394.24847 275.98358Q394.24847 274.88983 393.52972 274.1867Q392.8266 273.46796 391.73285 273.46796Q391.27972 273.46796 390.60785 273.65546L390.77972 272.26483Q390.93597 272.28046 391.04535 272.28046Q392.04535 272.28046 392.85785 271.7492Q393.67035 271.21796 393.67035 270.1242Q393.67035 269.2492 393.0766 268.6867Q392.48285 268.10858 391.56097 268.10858Q390.6391 268.10858 390.0141 268.6867Q389.40472 269.26483 389.23285 270.4367L387.65472 270.15546Q387.93597 268.5617 388.96722 267.6867Q389.99847 266.8117 391.52972 266.8117Q392.5766 266.8117 393.46722 267.26483Q394.35785 267.71796 394.8266 268.4992Q395.29535 269.28046 395.29535 270.15546Q395.29535 270.9992 394.84222 271.6867Q394.40472 272.35858 393.5141 272.76483Q394.65472 273.03046 395.27972 273.8742Q395.92035 274.70233 395.92035 275.9367Q395.92035 277.6242 394.68597 278.8117Q393.46722 279.98358 391.59222 279.98358Q389.8891 279.98358 388.7641 278.96796Q387.65472 277.95233 387.48285 276.34296ZM397.77972 269.95233Q397.77972 268.57733 398.46722 267.60858Q399.17035 266.63983 400.48285 266.63983Q401.7016 266.63983 402.49847 267.51483Q403.29535 268.3742 403.29535 270.0617Q403.29535 271.6867 402.48285 272.57733Q401.68597 273.45233 400.49847 273.45233Q399.34222 273.45233 398.56097 272.59296Q397.77972 271.71796 397.77972 269.95233ZM400.52972 267.73358Q399.93597 267.73358 399.54535 268.2492Q399.15472 268.7492 399.15472 270.10858Q399.15472 271.35858 399.54535 271.85858Q399.9516 272.35858 400.52972 272.35858Q401.12347 272.35858 401.5141 271.85858Q401.90472 271.34296 401.90472 269.9992Q401.90472 268.7492 401.5141 268.2492Q401.12347 267.73358 400.52972 267.73358ZM400.54535 280.21796L407.59222 266.63983L408.87347 266.63983L401.84222 280.21796L400.54535 280.21796ZM406.10785 276.71796Q406.10785 275.34296 406.79535 274.3742Q407.49847 273.40546 408.8266 273.40546Q410.04535 273.40546 410.8266 274.28046Q411.62347 275.13983 411.62347 276.82733Q411.62347 278.45233 410.8266 279.34296Q410.02972 280.21796 408.84222 280.21796Q407.67035 280.21796 406.8891 279.34296Q406.10785 278.46796 406.10785 276.71796ZM408.87347 274.4992Q408.27972 274.4992 407.8891 275.01483Q407.49847 275.51483 407.49847 276.88983Q407.49847 278.10858 407.8891 278.6242Q408.27972 279.13983 408.85785 279.13983Q409.46722 279.13983 409.85785 278.6242Q410.24847 278.10858 410.24847 276.76483Q410.24847 275.51483 409.85785 275.01483Q409.46722 274.4992 408.87347 274.4992Z" fill-rule="nonzero"/><path fill="#ffffff" d="M281.20312 327.98923L279.625 327.98923L279.625 317.9111Q279.04688 318.45798 278.125 319.00485Q277.20312 319.5361 276.45312 319.81735L276.45312 318.2861Q277.78125 317.6611 278.78125 316.77048Q279.78125 315.87985 280.1875 315.05173L281.20312 315.05173L281.20312 327.98923ZM290.3125 327.98923L290.3125 324.9111L284.73438 324.9111L284.73438 323.45798L290.60938 315.0986L291.90625 315.0986L291.90625 323.45798L293.64062 323.45798L293.64062 324.9111L291.90625 324.9111L291.90625 327.98923L290.3125 327.98923ZM290.3125 323.45798L290.3125 317.64548L286.28125 323.45798L290.3125 323.45798ZM296.14062 327.98923L296.14062 326.19235L297.9375 326.19235L297.9375 327.98923L296.14062 327.98923ZM300.25 324.58298L301.84375 324.37985Q302.10938 325.7236 302.76562 326.31735Q303.42188 326.9111 304.35938 326.9111Q305.48438 326.9111 306.25 326.14548Q307.01562 325.36423 307.01562 324.2236Q307.01562 323.12985 306.29688 322.42673Q305.59375 321.70798 304.5 321.70798Q304.04688 321.70798 303.375 321.89548L303.54688 320.50485Q303.70312 320.52048 303.8125 320.52048Q304.8125 320.52048 305.625 319.98923Q306.4375 319.45798 306.4375 318.36423Q306.4375 317.48923 305.84375 316.92673Q305.25 316.3486 304.32812 316.3486Q303.40625 316.3486 302.78125 316.92673Q302.17188 317.50485 302.0 318.67673L300.42188 318.39548Q300.70312 316.80173 301.73438 315.92673Q302.76562 315.05173 304.29688 315.05173Q305.34375 315.05173 306.23438 315.50485Q307.125 315.95798 307.59375 316.73923Q308.0625 317.52048 308.0625 318.39548Q308.0625 319.23923 307.60938 319.92673Q307.17188 320.5986 306.28125 321.00485Q307.42188 321.27048 308.04688 322.11423Q308.6875 322.94235 308.6875 324.17673Q308.6875 325.86423 307.45312 327.05173Q306.23438 328.2236 304.35938 328.2236Q302.65625 328.2236 301.53125 327.20798Q300.42188 326.19235 300.25 324.58298ZM310.54688 318.19235Q310.54688 316.81735 311.23438 315.8486Q311.9375 314.87985 313.25 314.87985Q314.46875 314.87985 315.26562 315.75485Q316.0625 316.61423 316.0625 318.30173Q316.0625 319.92673 315.25 320.81735Q314.45312 321.69235 313.26562 321.69235Q312.10938 321.69235 311.32812 320.83298Q310.54688 319.95798 310.54688 318.19235ZM313.29688 315.9736Q312.70312 315.9736 312.3125 316.48923Q311.92188 316.98923 311.92188 318.3486Q311.92188 319.5986 312.3125 320.0986Q312.71875 320.5986 313.29688 320.5986Q313.89062 320.5986 314.28125 320.0986Q314.67188 319.58298 314.67188 318.23923Q314.67188 316.98923 314.28125 316.48923Q313.89062 315.9736 313.29688 315.9736ZM313.3125 328.45798L320.35938 314.87985L321.64062 314.87985L314.60938 328.45798L313.3125 328.45798ZM318.875 324.95798Q318.875 323.58298 319.5625 322.61423Q320.26562 321.64548 321.59375 321.64548Q322.8125 321.64548 323.59375 322.52048Q324.39062 323.37985 324.39062 325.06735Q324.39062 326.69235 323.59375 327.58298Q322.79688 328.45798 321.60938 328.45798Q320.4375 328.45798 319.65625 327.58298Q318.875 326.70798 318.875 324.95798ZM321.64062 322.73923Q321.04688 322.73923 320.65625 323.25485Q320.26562 323.75485 320.26562 325.12985Q320.26562 326.3486 320.65625 326.86423Q321.04688 327.37985 321.625 327.37985Q322.23438 327.37985 322.625 326.86423Q323.01562 326.3486 323.01562 325.00485Q323.01562 323.75485 322.625 323.25485Q322.23438 322.73923 321.64062 322.73923Z" fill-rule="nonzero"/><path fill="#ffffff" d="M193.97028 279.7492L192.39215 279.7492L192.39215 269.67108Q191.81403 270.21796 190.89215 270.76483Q189.97028 271.29608 189.22028 271.57733L189.22028 270.04608Q190.5484 269.42108 191.5484 268.53046Q192.5484 267.63983 192.95465 266.8117L193.97028 266.8117L193.97028 279.7492ZM203.07965 279.7492L203.07965 276.67108L197.50153 276.67108L197.50153 275.21796L203.37653 266.85858L204.6734 266.85858L204.6734 275.21796L206.40778 275.21796L206.40778 276.67108L204.6734 276.67108L204.6734 279.7492L203.07965 279.7492ZM203.07965 275.21796L203.07965 269.40546L199.0484 275.21796L203.07965 275.21796ZM208.90778 279.7492L208.90778 277.95233L210.70465 277.95233L210.70465 279.7492L208.90778 279.7492ZM213.01715 276.34296L214.6109 276.13983Q214.87653 277.48358 215.53278 278.07733Q216.18903 278.67108 217.12653 278.67108Q218.25153 278.67108 219.01715 277.90546Q219.78278 277.1242 219.78278 275.98358Q219.78278 274.88983 219.06403 274.1867Q218.3609 273.46796 217.26715 273.46796Q216.81403 273.46796 216.14215 273.65546L216.31403 272.26483Q216.47028 272.28046 216.57965 272.28046Q217.57965 272.28046 218.39215 271.7492Q219.20465 271.21796 219.20465 270.1242Q219.20465 269.2492 218.6109 268.6867Q218.01715 268.10858 217.09528 268.10858Q216.1734 268.10858 215.5484 268.6867Q214.93903 269.26483 214.76715 270.4367L213.18903 270.15546Q213.47028 268.5617 214.50153 267.6867Q215.53278 266.8117 217.06403 266.8117Q218.1109 266.8117 219.00153 267.26483Q219.89215 267.71796 220.3609 268.4992Q220.82965 269.28046 220.82965 270.15546Q220.82965 270.9992 220.37653 271.6867Q219.93903 272.35858 219.0484 272.76483Q220.18903 273.03046 220.81403 273.8742Q221.45465 274.70233 221.45465 275.9367Q221.45465 277.6242 220.22028 278.8117Q219.00153 279.98358 217.12653 279.98358Q215.4234 279.98358 214.2984 278.96796Q213.18903 277.95233 213.01715 276.34296ZM223.31403 269.95233Q223.31403 268.57733 224.00153 267.60858Q224.70465 266.63983 226.01715 266.63983Q227.2359 266.63983 228.03278 267.51483Q228.82965 268.3742 228.82965 270.0617Q228.82965 271.6867 228.01715 272.57733Q227.22028 273.45233 226.03278 273.45233Q224.87653 273.45233 224.09528 272.59296Q223.31403 271.71796 223.31403 269.95233ZM226.06403 267.73358Q225.47028 267.73358 225.07965 268.2492Q224.68903 268.7492 224.68903 270.10858Q224.68903 271.35858 225.07965 271.85858Q225.4859 272.35858 226.06403 272.35858Q226.65778 272.35858 227.0484 271.85858Q227.43903 271.34296 227.43903 269.9992Q227.43903 268.7492 227.0484 268.2492Q226.65778 267.73358 226.06403 267.73358ZM226.07965 280.21796L233.12653 266.63983L234.40778 266.63983L227.37653 280.21796L226.07965 280.21796ZM231.64215 276.71796Q231.64215 275.34296 232.32965 274.3742Q233.03278 273.40546 234.3609 273.40546Q235.57965 273.40546 236.3609 274.28046Q237.15778 275.13983 237.15778 276.82733Q237.15778 278.45233 236.3609 279.34296Q235.56403 280.21796 234.37653 280.21796Q233.20465 280.21796 232.4234 279.34296Q231.64215 278.46796 231.64215 276.71796ZM234.40778 274.4992Q233.81403 274.4992 233.4234 275.01483Q233.03278 275.51483 233.03278 276.88983Q233.03278 278.10858 233.4234 278.6242Q233.81403 279.13983 234.39215 279.13983Q235.00153 279.13983 235.39215 278.6242Q235.78278 278.10858 235.78278 276.76483Q235.78278 275.51483 235.39215 275.01483Q235.00153 274.4992 234.40778 274.4992Z" fill-rule="nonzero"/><path fill="#ffffff" d="M172.42554 185.35556L170.84741 185.35556L170.84741 175.27744Q170.26929 175.82431 169.34741 176.37119Q168.42554 176.90244 167.67554 177.18369L167.67554 175.65244Q169.00366 175.02744 170.00366 174.13681Q171.00366 173.24619 171.40991 172.41806L172.42554 172.41806L172.42554 185.35556ZM181.53491 185.35556L181.53491 182.27744L175.95679 182.27744L175.95679 180.82431L181.83179 172.46494L183.12866 172.46494L183.12866 180.82431L184.86304 180.82431L184.86304 182.27744L183.12866 182.27744L183.12866 185.35556L181.53491 185.35556ZM181.53491 180.82431L181.53491 175.01181L177.50366 180.82431L181.53491 180.82431ZM187.36304 185.35556L187.36304 183.55869L189.15991 183.55869L189.15991 185.35556L187.36304 185.35556ZM191.47241 181.94931L193.06616 181.74619Q193.33179 183.08994 193.98804 183.68369Q194.64429 184.27744 195.58179 184.27744Q196.70679 184.27744 197.47241 183.51181Q198.23804 182.73056 198.23804 181.58994Q198.23804 180.49619 197.51929 179.79306Q196.81616 179.07431 195.72241 179.07431Q195.26929 179.07431 194.59741 179.26181L194.76929 177.87119Q194.92554 177.88681 195.03491 177.88681Q196.03491 177.88681 196.84741 177.35556Q197.65991 176.82431 197.65991 175.73056Q197.65991 174.85556 197.06616 174.29306Q196.47241 173.71494 195.55054 173.71494Q194.62866 173.71494 194.00366 174.29306Q193.39429 174.87119 193.22241 176.04306L191.64429 175.76181Q191.92554 174.16806 192.95679 173.29306Q193.98804 172.41806 195.51929 172.41806Q196.56616 172.41806 197.45679 172.87119Q198.34741 173.32431 198.81616 174.10556Q199.28491 174.88681 199.28491 175.76181Q199.28491 176.60556 198.83179 177.29306Q198.39429 177.96494 197.50366 178.37119Q198.64429 178.63681 199.26929 179.48056Q199.90991 180.30869 199.90991 181.54306Q199.90991 183.23056 198.67554 184.41806Q197.45679 185.58994 195.58179 185.58994Q193.87866 185.58994 192.75366 184.57431Q191.64429 183.55869 191.47241 181.94931ZM201.76929 175.55869Q201.76929 174.18369 202.45679 173.21494Q203.15991 172.24619 204.47241 172.24619Q205.69116 172.24619 206.48804 173.12119Q207.28491 173.98056 207.28491 175.66806Q207.28491 177.29306 206.47241 178.18369Q205.67554 179.05869 204.48804 179.05869Q203.33179 179.05869 202.55054 178.19931Q201.76929 177.32431 201.76929 175.55869ZM204.51929 173.33994Q203.92554 173.33994 203.53491 173.85556Q203.14429 174.35556 203.14429 175.71494Q203.14429 176.96494 203.53491 177.46494Q203.94116 177.96494 204.51929 177.96494Q205.11304 177.96494 205.50366 177.46494Q205.89429 176.94931 205.89429 175.60556Q205.89429 174.35556 205.50366 173.85556Q205.11304 173.33994 204.51929 173.33994ZM204.53491 185.82431L211.58179 172.24619L212.86304 172.24619L205.83179 185.82431L204.53491 185.82431ZM210.09741 182.32431Q210.09741 180.94931 210.78491 179.98056Q211.48804 179.01181 212.81616 179.01181Q214.03491 179.01181 214.81616 179.88681Q215.61304 180.74619 215.61304 182.43369Q215.61304 184.05869 214.81616 184.94931Q214.01929 185.82431 212.83179 185.82431Q211.65991 185.82431 210.87866 184.94931Q210.09741 184.07431 210.09741 182.32431ZM212.86304 180.10556Q212.26929 180.10556 211.87866 180.62119Q211.48804 181.12119 211.48804 182.49619Q211.48804 183.71494 211.87866 184.23056Q212.26929 184.74619 212.84741 184.74619Q213.45679 184.74619 213.84741 184.23056Q214.23804 183.71494 214.23804 182.37119Q214.23804 181.12119 213.84741 180.62119Q213.45679 180.10556 212.86304 180.10556Z" fill-rule="nonzero"/><path fill="#ffffff" d="M232.79254 109.65773L231.21442 109.65773L231.21442 99.579605Q230.63629 100.12648 229.71442 100.673355Q228.79254 101.204605 228.04254 101.485855L228.04254 99.954605Q229.37067 99.329605 230.37067 98.43898Q231.37067 97.548355 231.77692 96.72023L232.79254 96.72023L232.79254 109.65773ZM241.90192 109.65773L241.90192 106.579605L236.32379 106.579605L236.32379 105.12648L242.19879 96.767105L243.49567 96.767105L243.49567 105.12648L245.23004 105.12648L245.23004 106.579605L243.49567 106.579605L243.49567 109.65773L241.90192 109.65773ZM241.90192 105.12648L241.90192 99.31398L237.87067 105.12648L241.90192 105.12648ZM247.73004 109.65773L247.73004 107.860855L249.52692 107.860855L249.52692 109.65773L247.73004 109.65773ZM251.83942 106.25148L253.43317 106.048355Q253.69879 107.392105 254.35504 107.985855Q255.01129 108.579605 255.94879 108.579605Q257.0738 108.579605 257.83942 107.81398Q258.60504 107.03273 258.60504 105.892105Q258.60504 104.798355 257.8863 104.09523Q257.18317 103.37648 256.08942 103.37648Q255.63629 103.37648 254.96442 103.56398L255.13629 102.173355Q255.29254 102.18898 255.40192 102.18898Q256.40192 102.18898 257.21442 101.65773Q258.02692 101.12648 258.02692 100.03273Q258.02692 99.15773 257.43317 98.59523Q256.83942 98.017105 255.91754 98.017105Q254.99567 98.017105 254.37067 98.59523Q253.76129 99.173355 253.58942 100.34523L252.01129 100.06398Q252.29254 98.47023 253.32379 97.59523Q254.35504 96.72023 255.88629 96.72023Q256.93317 96.72023 257.8238 97.173355Q258.71442 97.62648 259.18317 98.40773Q259.65192 99.18898 259.65192 100.06398Q259.65192 100.90773 259.1988 101.59523Q258.7613 102.267105 257.87067 102.673355Q259.0113 102.93898 259.6363 103.78273Q260.27692 104.610855 260.27692 105.84523Q260.27692 107.53273 259.04254 108.72023Q257.8238 109.892105 255.94879 109.892105Q254.24567 109.892105 253.12067 108.87648Q252.01129 107.860855 251.83942 106.25148ZM262.1363 99.860855Q262.1363 98.485855 262.8238 97.517105Q263.52692 96.548355 264.83942 96.548355Q266.05817 96.548355 266.85504 97.423355Q267.65192 98.28273 267.65192 99.97023Q267.65192 101.59523 266.83942 102.485855Q266.04254 103.360855 264.85504 103.360855Q263.6988 103.360855 262.91754 102.50148Q262.1363 101.62648 262.1363 99.860855ZM264.8863 97.642105Q264.29254 97.642105 263.90192 98.15773Q263.5113 98.65773 263.5113 100.017105Q263.5113 101.267105 263.90192 101.767105Q264.30817 102.267105 264.8863 102.267105Q265.48004 102.267105 265.87067 101.767105Q266.2613 101.25148 266.2613 99.90773Q266.2613 98.65773 265.87067 98.15773Q265.48004 97.642105 264.8863 97.642105ZM264.90192 110.12648L271.9488 96.548355L273.23004 96.548355L266.1988 110.12648L264.90192 110.12648ZM270.46442 106.62648Q270.46442 105.25148 271.15192 104.28273Q271.85504 103.31398 273.18317 103.31398Q274.40192 103.31398 275.18317 104.18898Q275.98004 105.048355 275.98004 106.735855Q275.98004 108.360855 275.18317 109.25148Q274.3863 110.12648 273.1988 110.12648Q272.02692 110.12648 271.24567 109.25148Q270.46442 108.37648 270.46442 106.62648ZM273.23004 104.40773Q272.6363 104.40773 272.24567 104.923355Q271.85504 105.423355 271.85504 106.798355Q271.85504 108.017105 272.24567 108.53273Q272.6363 109.048355 273.21442 109.048355Q273.8238 109.048355 274.21442 108.53273Q274.60504 108.017105 274.60504 106.673355Q274.60504 105.423355 274.21442 104.923355Q273.8238 104.40773 273.23004 104.40773Z" fill-rule="nonzero"/><path stroke="#ffffff" stroke-width="1.0" stroke-linejoin="round" stroke-linecap="round" d="M372.5184 220.23518C377.5555 198.16605 372.26898 175.00415 358.15524 157.30608C344.0415 139.60802 322.6367 129.3 300.0 129.3L300.0 54.916668C345.27335 54.916668 388.08298 75.53269 416.31046 110.92883C444.53793 146.32497 455.11105 192.64877 445.03677 236.78703" fill-rule="nonzero"/><path stroke="#ffffff" stroke-width="1.0" stroke-linejoin="round" stroke-linecap="round" d="M332.2737 270.7004C352.66867 260.87872 367.48126 242.30432 372.5184 220.23518L445.03677 236.78703C434.9625 280.9253 405.33734 318.0741 364.54742 337.71747" fill-rule="nonzero"/><path stroke="#ffffff" stroke-width="1.0" stroke-linejoin="round" stroke-linecap="round" d="M267.7263 270.7004C288.12122 280.5221 311.87878 280.5221 332.2737 270.7004L364.54742 337.71747C323.75754 357.36084 276.24246 357.36084 235.45256 337.71747" fill-rule="nonzero"/><path stroke="#ffffff" stroke-width="1.0" stroke-linejoin="round" stroke-linecap="round" d="M227.48161 220.23518C232.51875 242.30432 247.33133 260.87872 267.7263 270.7004L235.45256 337.71747C194.66267 318.0741 165.03749 280.9253 154.96323 236.78703" fill-rule="nonzero"/><path stroke="#ffffff" stroke-width="1.0" stroke-linejoin="round" stroke-linecap="round" d="M241.84477 157.30608C227.73103 175.00415 222.44447 198.16605 227.48161 220.23518L154.96323 236.78703C144.88895 192.64877 155.46205 146.32497 183.68953 110.92883" fill-rule="nonzero"/><path stroke="#ffffff" stroke-width="1.0" stroke-linejoin="round" stroke-linecap="round" d="M300.0 129.3C277.3633 129.3 255.95851 139.60802 241.84477 157.30608L183.68953 110.92883C211.91702 75.53269 254.72664 54.916668 300.0 54.916668" fill-rule="nonzero"/><path fill="#efefef" d="M19.76875 70.85091L19.76875 59.39778L21.33125 59.39778L27.346874 68.38216L27.346874 59.39778L28.8 59.39778L28.8 70.85091L27.2375 70.85091L21.221874 61.850906L21.221874 70.85091L19.76875 70.85091ZM37.01875 69.81966Q36.2375 70.49153 35.51875 70.77278Q34.8 71.03841 33.971874 71.03841Q32.596874 71.03841 31.8625 70.36653Q31.128124 69.69466 31.128124 68.66341Q31.128124 68.05403 31.409374 67.55403Q31.690624 67.03841 32.128124 66.74153Q32.58125 66.42903 33.14375 66.27278Q33.565624 66.16341 34.39375 66.06966Q36.096874 65.86653 36.909374 65.58528Q36.909374 65.28841 36.909374 65.21028Q36.909374 64.35091 36.51875 64.00716Q35.971874 63.52278 34.909374 63.52278Q33.925 63.52278 33.440624 63.882156Q32.971874 64.22591 32.753124 65.10091L31.378124 64.91341Q31.565624 64.03841 31.9875 63.49153Q32.425 62.944656 33.2375 62.663406Q34.05 62.36653 35.1125 62.36653Q36.175 62.36653 36.83125 62.61653Q37.503124 62.86653 37.815624 63.24153Q38.128124 63.61653 38.253124 64.19466Q38.33125 64.55403 38.33125 65.49153L38.33125 67.36653Q38.33125 69.33528 38.409374 69.85091Q38.503124 70.36653 38.76875 70.85091L37.3 70.85091Q37.08125 70.41341 37.01875 69.81966ZM36.909374 66.67903Q36.14375 66.99153 34.6125 67.21028Q33.7375 67.33528 33.378124 67.49153Q33.01875 67.64778 32.815624 67.96028Q32.628124 68.25716 32.628124 68.61653Q32.628124 69.17903 33.05 69.55403Q33.4875 69.92903 34.3 69.92903Q35.1125 69.92903 35.7375 69.58528Q36.378124 69.22591 36.675 68.60091Q36.909374 68.13216 36.909374 67.19466L36.909374 66.67903ZM42.909374 70.85091L39.753124 62.55403L41.2375 62.55403L43.01875 67.52278Q43.315624 68.31966 43.55 69.19466Q43.7375 68.53841 44.08125 67.61653L45.925 62.55403L47.3625 62.55403L44.221874 70.85091L42.909374 70.85091ZM54.01875 69.81966Q53.2375 70.49153 52.51875 70.77278Q51.8 71.03841 50.971874 71.03841Q49.596874 71.03841 48.8625 70.36653Q48.128124 69.69466 48.128124 68.66341Q48.128124 68.05403 48.409374 67.55403Q48.690624 67.03841 49.128124 66.74153Q49.58125 66.42903 50.14375 66.27278Q50.565624 66.16341 51.39375 66.06966Q53.096874 65.86653 53.909374 65.58528Q53.909374 65.28841 53.909374 65.21028Q53.909374 64.35091 53.51875 64.00716Q52.971874 63.52278 51.909374 63.52278Q50.925 63.52278 50.440624 63.882156Q49.971874 64.22591 49.753124 65.10091L48.378124 64.91341Q48.565624 64.03841 48.9875 63.49153Q49.425 62.944656 50.2375 62.663406Q51.05 62.36653 52.1125 62.36653Q53.175 62.36653 53.83125 62.61653Q54.503124 62.86653 54.815624 63.24153Q55.128124 63.61653 55.253124 64.19466Q55.33125 64.55403 55.33125 65.49153L55.33125 67.36653Q55.33125 69.33528 55.409374 69.85091Q55.503124 70.36653 55.76875 70.85091L54.3 70.85091Q54.08125 70.41341 54.01875 69.81966ZM53.909374 66.67903Q53.14375 66.99153 51.6125 67.21028Q50.7375 67.33528 50.378124 67.49153Q50.01875 67.64778 49.815624 67.96028Q49.628124 68.25716 49.628124 68.61653Q49.628124 69.17903 50.05 69.55403Q50.4875 69.92903 51.3 69.92903Q52.1125 69.92903 52.7375 69.58528Q53.378124 69.22591 53.675 68.60091Q53.909374 68.13216 53.909374 67.19466L53.909374 66.67903ZM57.58125 70.85091L57.58125 59.39778L58.9875 59.39778L58.9875 70.85091L57.58125 70.85091ZM65.26875 67.16341L66.70625 67.03841Q66.8 67.89778 67.175 68.46028Q67.55 69.00716 68.33125 69.35091Q69.1125 69.67903 70.08125 69.67903Q70.95625 69.67903 71.6125 69.42903Q72.28438 69.16341 72.59688 68.72591Q72.925 68.27278 72.925 67.74153Q72.925 67.19466 72.6125 66.80403Q72.3 66.39778 71.58125 66.11653Q71.12813 65.94466 69.55 65.56966Q67.97188 65.17903 67.33125 64.85091Q66.51875 64.41341 66.1125 63.788406Q65.70625 63.14778 65.70625 62.350906Q65.70625 61.49153 66.19063 60.74153Q66.69063 59.975906 67.62813 59.58528Q68.58125 59.194656 69.7375 59.194656Q71.01875 59.194656 71.9875 59.61653Q72.95625 60.02278 73.47188 60.819656Q74.00313 61.61653 74.05 62.61653L72.59688 62.725906Q72.47188 61.64778 71.8 61.100906Q71.12813 60.538406 69.8 60.538406Q68.425 60.538406 67.8 61.038406Q67.175 61.538406 67.175 62.257156Q67.175 62.86653 67.6125 63.27278Q68.05 63.663406 69.89375 64.08528Q71.75313 64.50716 72.44063 64.81966Q73.44063 65.27278 73.90938 65.99153Q74.39375 66.69466 74.39375 67.61653Q74.39375 68.52278 73.8625 69.33528Q73.34688 70.14778 72.3625 70.60091Q71.37813 71.05403 70.15938 71.05403Q68.59688 71.05403 67.55 70.60091Q66.50313 70.13216 65.89375 69.22591Q65.3 68.31966 65.26875 67.16341ZM79.675 69.58528L79.87813 70.83528Q79.28438 70.96028 78.81563 70.96028Q78.05 70.96028 77.62813 70.72591Q77.20625 70.47591 77.03438 70.08528Q76.8625 69.67903 76.8625 68.41341L76.8625 63.64778L75.83125 63.64778L75.83125 62.55403L76.8625 62.55403L76.8625 60.49153L78.26875 59.64778L78.26875 62.55403L79.675 62.55403L79.675 63.64778L78.26875 63.64778L78.26875 68.49153Q78.26875 69.10091 78.33125 69.27278Q78.40938 69.44466 78.58125 69.55403Q78.75313 69.64778 79.06563 69.64778Q79.3 69.64778 79.675 69.58528ZM80.59688 70.85091L80.59688 62.55403L81.8625 62.55403L81.8625 63.80403Q82.34688 62.92903 82.75313 62.64778Q83.15938 62.36653 83.65938 62.36653Q84.3625 62.36653 85.09688 62.819656L84.6125 64.11653Q84.09688 63.819656 83.58125 63.819656Q83.12813 63.819656 82.75313 64.10091Q82.39375 64.36653 82.2375 64.86653Q82.00313 65.61653 82.00313 66.50716L82.00313 70.85091L80.59688 70.85091ZM91.05 70.85091L91.05 69.63216Q90.08125 71.03841 88.40938 71.03841Q87.675 71.03841 87.03438 70.75716Q86.40938 70.47591 86.09688 70.05403Q85.78438 69.61653 85.65938 69.00716Q85.58125 68.58528 85.58125 67.69466L85.58125 62.55403L86.9875 62.55403L86.9875 67.14778Q86.9875 68.25716 87.06563 68.63216Q87.20625 69.19466 87.62813 69.50716Q88.06563 69.81966 88.69063 69.81966Q89.33125 69.81966 89.87813 69.50716Q90.44063 69.17903 90.65938 68.61653Q90.89375 68.05403 90.89375 66.99153L90.89375 62.55403L92.3 62.55403L92.3 70.85091L91.05 70.85091ZM100.01875 67.80403L101.40938 67.99153Q101.175 69.41341 100.2375 70.22591Q99.31563 71.03841 97.95625 71.03841Q96.25313 71.03841 95.20625 69.92903Q94.175 68.80403 94.175 66.72591Q94.175 65.38216 94.6125 64.38216Q95.06563 63.36653 95.97188 62.86653Q96.89375 62.36653 97.95625 62.36653Q99.31563 62.36653 100.175 63.05403Q101.03438 63.725906 101.26875 64.99153L99.90938 65.19466Q99.70625 64.36653 99.20625 63.944656Q98.72188 63.52278 98.01875 63.52278Q96.95625 63.52278 96.28438 64.28841Q95.62813 65.03841 95.62813 66.69466Q95.62813 68.36653 96.26875 69.13216Q96.90938 69.88216 97.94063 69.88216Q98.76875 69.88216 99.31563 69.38216Q99.87813 68.86653 100.01875 67.80403ZM105.675 69.58528L105.87813 70.83528Q105.28438 70.96028 104.81563 70.96028Q104.05 70.96028 103.62813 70.72591Q103.20625 70.47591 103.03438 70.08528Q102.8625 69.67903 102.8625 68.41341L102.8625 63.64778L101.83125 63.64778L101.83125 62.55403L102.8625 62.55403L102.8625 60.49153L104.26875 59.64778L104.26875 62.55403L105.675 62.55403L105.675 63.64778L104.26875 63.64778L104.26875 68.49153Q104.26875 69.10091 104.33125 69.27278Q104.40938 69.44466 104.58125 69.55403Q104.75313 69.64778 105.06563 69.64778Q105.3 69.64778 105.675 69.58528ZM112.05 70.85091L112.05 69.63216Q111.08125 71.03841 109.40938 71.03841Q108.675 71.03841 108.03438 70.75716Q107.40938 70.47591 107.09688 70.05403Q106.78438 69.61653 106.65938 69.00716Q106.58125 68.58528 106.58125 67.69466L106.58125 62.55403L107.9875 62.55403L107.9875 67.14778Q107.9875 68.25716 108.06563 68.63216Q108.20625 69.19466 108.62813 69.50716Q109.06563 69.81966 109.69063 69.81966Q110.33125 69.81966 110.87813 69.50716Q111.44063 69.17903 111.65938 68.61653Q111.89375 68.05403 111.89375 66.99153L111.89375 62.55403L113.3 62.55403L113.3 70.85091L112.05 70.85091ZM115.59688 70.85091L115.59688 62.55403L116.8625 62.55403L116.8625 63.80403Q117.34688 62.92903 117.75313 62.64778Q118.15938 62.36653 118.65938 62.36653Q119.3625 62.36653 120.09688 62.819656L119.6125 64.11653Q119.09688 63.819656 118.58125 63.819656Q118.12813 63.819656 117.75313 64.10091Q117.39375 64.36653 117.2375 64.86653Q117.00313 65.61653 117.00313 66.50716L117.00313 70.85091L115.59688 70.85091ZM126.28438 68.17903L127.7375 68.35091Q127.39375 69.63216 126.45625 70.33528Q125.53438 71.03841 124.09688 71.03841Q122.26875 71.03841 121.20625 69.91341Q120.14375 68.78841 120.14375 66.77278Q120.14375 64.67903 121.22188 63.52278Q122.3 62.36653 124.01875 62.36653Q125.675 62.36653 126.72188 63.507156Q127.78438 64.63216 127.78438 66.67903Q127.78438 66.80403 127.78438 67.05403L121.59688 67.05403Q121.675 68.42903 122.3625 69.16341Q123.06563 69.88216 124.09688 69.88216Q124.87813 69.88216 125.425 69.47591Q125.97188 69.06966 126.28438 68.17903ZM121.675 65.89778L126.3 65.89778Q126.20625 64.85091 125.76875 64.33528Q125.09688 63.52278 124.03438 63.52278Q123.06563 63.52278 122.39375 64.17903Q121.7375 64.81966 121.675 65.89778ZM129.05 68.36653L130.44063 68.14778Q130.55 68.99153 131.08125 69.44466Q131.62813 69.88216 132.58125 69.88216Q133.55 69.88216 134.01875 69.49153Q134.4875 69.08528 134.4875 68.55403Q134.4875 68.08528 134.08125 67.80403Q133.78438 67.61653 132.64375 67.33528Q131.09688 66.94466 130.4875 66.66341Q129.89375 66.36653 129.58125 65.86653Q129.28438 65.36653 129.28438 64.75716Q129.28438 64.19466 129.53438 63.725906Q129.78438 63.257156 130.22188 62.944656Q130.55 62.694656 131.1125 62.538406Q131.69063 62.36653 132.33125 62.36653Q133.31563 62.36653 134.05 62.64778Q134.78438 62.92903 135.12813 63.413406Q135.4875 63.882156 135.62813 64.69466L134.25313 64.88216Q134.15938 64.24153 133.70625 63.882156Q133.25313 63.52278 132.44063 63.52278Q131.47188 63.52278 131.05 63.850906Q130.64375 64.16341 130.64375 64.58528Q130.64375 64.86653 130.81563 65.08528Q130.9875 65.30403 131.34688 65.46028Q131.56563 65.53841 132.59688 65.81966Q134.08125 66.21028 134.675 66.47591Q135.26875 66.72591 135.59688 67.21028Q135.94063 67.69466 135.94063 68.41341Q135.94063 69.11653 135.51875 69.74153Q135.1125 70.35091 134.33125 70.69466Q133.56563 71.03841 132.59688 71.03841Q130.97188 71.03841 130.12813 70.36653Q129.28438 69.69466 129.05 68.36653Z" fill-rule="nonzero"/><path fill="#9e9e9e" d="M24.51875 92.85091L23.1125 92.85091L23.1125 83.88216Q22.596874 84.36653 21.76875 84.85091Q20.95625 85.33528 20.3 85.58528L20.3 84.22591Q21.471874 83.66341 22.346874 82.88216Q23.2375 82.08528 23.6125 81.35091L24.51875 81.35091L24.51875 92.85091ZM32.721874 92.85091L32.721874 90.10091L27.753124 90.10091L27.753124 88.81966L32.9875 81.39778L34.128124 81.39778L34.128124 88.81966L35.675 88.81966L35.675 90.10091L34.128124 90.10091L34.128124 92.85091L32.721874 92.85091ZM32.721874 88.81966L32.721874 83.64778L29.14375 88.81966L32.721874 88.81966ZM38.003124 92.85091L38.003124 91.24153L39.6125 91.24153L39.6125 92.85091L38.003124 92.85091ZM41.221874 89.81966L42.628124 89.63216Q42.878124 90.83528 43.45625 91.36653Q44.034374 91.88216 44.878124 91.88216Q45.8625 91.88216 46.55 91.19466Q47.2375 90.50716 47.2375 89.49153Q47.2375 88.52278 46.596874 87.89778Q45.971874 87.27278 44.9875 87.27278Q44.596874 87.27278 44.003124 87.42903L44.159374 86.19466Q44.3 86.21028 44.378124 86.21028Q45.284374 86.21028 46.003124 85.74153Q46.721874 85.27278 46.721874 84.28841Q46.721874 83.52278 46.190624 83.02278Q45.675 82.50716 44.846874 82.50716Q44.01875 82.50716 43.471874 83.02278Q42.925 83.53841 42.76875 84.56966L41.3625 84.31966Q41.628124 82.89778 42.534374 82.13216Q43.45625 81.35091 44.815624 81.35091Q45.753124 81.35091 46.534374 81.75716Q47.33125 82.14778 47.7375 82.85091Q48.159374 83.53841 48.159374 84.31966Q48.159374 85.06966 47.753124 85.67903Q47.3625 86.28841 46.58125 86.64778Q47.596874 86.88216 48.159374 87.61653Q48.721874 88.35091 48.721874 89.46028Q48.721874 90.96028 47.628124 92.00716Q46.534374 93.05403 44.8625 93.05403Q43.3625 93.05403 42.3625 92.16341Q41.3625 91.25716 41.221874 89.81966ZM50.4875 84.14778Q50.4875 82.91341 51.096874 82.05403Q51.721874 81.19466 52.89375 81.19466Q53.971874 81.19466 54.675 81.97591Q55.378124 82.74153 55.378124 84.22591Q55.378124 85.67903 54.659374 86.47591Q53.95625 87.25716 52.909374 87.25716Q51.8625 87.25716 51.175 86.49153Q50.4875 85.71028 50.4875 84.14778ZM52.925 82.16341Q52.409374 82.16341 52.05 82.61653Q51.70625 83.06966 51.70625 84.28841Q51.70625 85.38216 52.05 85.83528Q52.409374 86.28841 52.925 86.28841Q53.45625 86.28841 53.8 85.83528Q54.159374 85.38216 54.159374 84.17903Q54.159374 83.06966 53.8 82.61653Q53.45625 82.16341 52.925 82.16341ZM52.940624 93.27278L59.20625 81.19466L60.346874 81.19466L54.096874 93.27278L52.940624 93.27278ZM57.89375 90.16341Q57.89375 88.92903 58.503124 88.06966Q59.128124 87.21028 60.3 87.21028Q61.378124 87.21028 62.08125 87.99153Q62.8 88.75716 62.8 90.24153Q62.8 91.69466 62.08125 92.49153Q61.3625 93.27278 60.315624 93.27278Q59.26875 93.27278 58.58125 92.49153Q57.89375 91.71028 57.89375 90.16341ZM60.346874 88.17903Q59.815624 88.17903 59.45625 88.63216Q59.1125 89.08528 59.1125 90.30403Q59.1125 91.39778 59.45625 91.85091Q59.815624 92.30403 60.33125 92.30403Q60.878124 92.30403 61.221874 91.85091Q61.565624 91.39778 61.565624 90.19466Q61.565624 89.08528 61.20625 88.63216Q60.8625 88.17903 60.346874 88.17903Z" fill-rule="nonzero"/><path stroke="#757575" stroke-width="1.0" stroke-linecap="butt" d="M18.55 76.35091L145.23334 76.35091L238.67993 76.35091" fill-rule="nonzero"/><path fill="#9e9e9e" d="M240.67993 76.35091C240.67993 75.24634 239.7845 74.35091 238.67993 74.35091C237.57536 74.35091 236.67993 75.24634 236.67993 76.35091C236.67993 77.455475 237.57536 78.35091 238.67993 78.35091C239.7845 78.35091 240.67993 77.455475 240.67993 76.35091" fill-rule="nonzero"/><path fill="#efefef" d="M19.76875 166.73482L19.76875 155.2817L21.33125 155.2817L27.346874 164.26607L27.346874 155.2817L28.8 155.2817L28.8 166.73482L27.2375 166.73482L21.221874 157.73482L21.221874 166.73482L19.76875 166.73482ZM37.01875 165.70357Q36.2375 166.37544 35.51875 166.6567Q34.8 166.92232 33.971874 166.92232Q32.596874 166.92232 31.8625 166.25044Q31.128124 165.57857 31.128124 164.54732Q31.128124 163.93794 31.409374 163.43794Q31.690624 162.92232 32.128124 162.62544Q32.58125 162.31294 33.14375 162.1567Q33.565624 162.04732 34.39375 161.95357Q36.096874 161.75044 36.909374 161.4692Q36.909374 161.17232 36.909374 161.0942Q36.909374 160.23482 36.51875 159.89107Q35.971874 159.4067 34.909374 159.4067Q33.925 159.4067 33.440624 159.76607Q32.971874 160.10982 32.753124 160.98482L31.378124 160.79732Q31.565624 159.92232 31.9875 159.37544Q32.425 158.82857 33.2375 158.54732Q34.05 158.25044 35.1125 158.25044Q36.175 158.25044 36.83125 158.50044Q37.503124 158.75044 37.815624 159.12544Q38.128124 159.50044 38.253124 160.07857Q38.33125 160.43794 38.33125 161.37544L38.33125 163.25044Q38.33125 165.2192 38.409374 165.73482Q38.503124 166.25044 38.76875 166.73482L37.3 166.73482Q37.08125 166.29732 37.01875 165.70357ZM36.909374 162.56294Q36.14375 162.87544 34.6125 163.0942Q33.7375 163.2192 33.378124 163.37544Q33.01875 163.5317 32.815624 163.8442Q32.628124 164.14107 32.628124 164.50044Q32.628124 165.06294 33.05 165.43794Q33.4875 165.81294 34.3 165.81294Q35.1125 165.81294 35.7375 165.4692Q36.378124 165.10982 36.675 164.48482Q36.909374 164.01607 36.909374 163.07857L36.909374 162.56294ZM43.675 165.4692L43.878124 166.7192Q43.284374 166.8442 42.815624 166.8442Q42.05 166.8442 41.628124 166.60982Q41.20625 166.35982 41.034374 165.9692Q40.8625 165.56294 40.8625 164.29732L40.8625 159.5317L39.83125 159.5317L39.83125 158.43794L40.8625 158.43794L40.8625 156.37544L42.26875 155.5317L42.26875 158.43794L43.675 158.43794L43.675 159.5317L42.26875 159.5317L42.26875 164.37544Q42.26875 164.98482 42.33125 165.1567Q42.409374 165.32857 42.58125 165.43794Q42.753124 165.5317 43.065624 165.5317Q43.3 165.5317 43.675 165.4692ZM50.05 166.73482L50.05 165.51607Q49.08125 166.92232 47.409374 166.92232Q46.675 166.92232 46.034374 166.64107Q45.409374 166.35982 45.096874 165.93794Q44.784374 165.50044 44.659374 164.89107Q44.58125 164.4692 44.58125 163.57857L44.58125 158.43794L45.9875 158.43794L45.9875 163.0317Q45.9875 164.14107 46.065624 164.51607Q46.20625 165.07857 46.628124 165.39107Q47.065624 165.70357 47.690624 165.70357Q48.33125 165.70357 48.878124 165.39107Q49.440624 165.06294 49.659374 164.50044Q49.89375 163.93794 49.89375 162.87544L49.89375 158.43794L51.3 158.43794L51.3 166.73482L50.05 166.73482ZM53.596874 166.73482L53.596874 158.43794L54.8625 158.43794L54.8625 159.68794Q55.346874 158.81294 55.753124 158.5317Q56.159374 158.25044 56.659374 158.25044Q57.3625 158.25044 58.096874 158.70357L57.6125 160.00044Q57.096874 159.70357 56.58125 159.70357Q56.128124 159.70357 55.753124 159.98482Q55.39375 160.25044 55.2375 160.75044Q55.003124 161.50044 55.003124 162.39107L55.003124 166.73482L53.596874 166.73482ZM64.01875 165.70357Q63.2375 166.37544 62.51875 166.6567Q61.8 166.92232 60.971874 166.92232Q59.596874 166.92232 58.8625 166.25044Q58.128124 165.57857 58.128124 164.54732Q58.128124 163.93794 58.409374 163.43794Q58.690624 162.92232 59.128124 162.62544Q59.58125 162.31294 60.14375 162.1567Q60.565624 162.04732 61.39375 161.95357Q63.096874 161.75044 63.909374 161.4692Q63.909374 161.17232 63.909374 161.0942Q63.909374 160.23482 63.51875 159.89107Q62.971874 159.4067 61.909374 159.4067Q60.925 159.4067 60.440624 159.76607Q59.971874 160.10982 59.753124 160.98482L58.378124 160.79732Q58.565624 159.92232 58.9875 159.37544Q59.425 158.82857 60.2375 158.54732Q61.05 158.25044 62.1125 158.25044Q63.175 158.25044 63.83125 158.50044Q64.50313 158.75044 64.81563 159.12544Q65.12813 159.50044 65.25313 160.07857Q65.33125 160.43794 65.33125 161.37544L65.33125 163.25044Q65.33125 165.2192 65.40938 165.73482Q65.50313 166.25044 65.76875 166.73482L64.3 166.73482Q64.08125 166.29732 64.01875 165.70357ZM63.909374 162.56294Q63.14375 162.87544 61.6125 163.0942Q60.7375 163.2192 60.378124 163.37544Q60.01875 163.5317 59.815624 163.8442Q59.628124 164.14107 59.628124 164.50044Q59.628124 165.06294 60.05 165.43794Q60.4875 165.81294 61.3 165.81294Q62.1125 165.81294 62.7375 165.4692Q63.378124 165.10982 63.675 164.48482Q63.909374 164.01607 63.909374 163.07857L63.909374 162.56294ZM67.58125 166.73482L67.58125 155.2817L68.9875 155.2817L68.9875 166.73482L67.58125 166.73482Z" fill-rule="nonzero"/><path fill="#9e9e9e" d="M24.51875 188.73482L23.1125 188.73482L23.1125 179.76607Q22.596874 180.25044 21.76875 180.73482Q20.95625 181.2192 20.3 181.4692L20.3 180.10982Q21.471874 179.54732 22.346874 178.76607Q23.2375 177.9692 23.6125 177.23482L24.51875 177.23482L24.51875 188.73482ZM32.721874 188.73482L32.721874 185.98482L27.753124 185.98482L27.753124 184.70357L32.9875 177.2817L34.128124 177.2817L34.128124 184.70357L35.675 184.70357L35.675 185.98482L34.128124 185.98482L34.128124 188.73482L32.721874 188.73482ZM32.721874 184.70357L32.721874 179.5317L29.14375 184.70357L32.721874 184.70357ZM38.003124 188.73482L38.003124 187.12544L39.6125 187.12544L39.6125 188.73482L38.003124 188.73482ZM41.221874 185.70357L42.628124 185.51607Q42.878124 186.7192 43.45625 187.25044Q44.034374 187.76607 44.878124 187.76607Q45.8625 187.76607 46.55 187.07857Q47.2375 186.39107 47.2375 185.37544Q47.2375 184.4067 46.596874 183.7817Q45.971874 183.1567 44.9875 183.1567Q44.596874 183.1567 44.003124 183.31294L44.159374 182.07857Q44.3 182.0942 44.378124 182.0942Q45.284374 182.0942 46.003124 181.62544Q46.721874 181.1567 46.721874 180.17232Q46.721874 179.4067 46.190624 178.9067Q45.675 178.39107 44.846874 178.39107Q44.01875 178.39107 43.471874 178.9067Q42.925 179.42232 42.76875 180.45357L41.3625 180.20357Q41.628124 178.7817 42.534374 178.01607Q43.45625 177.23482 44.815624 177.23482Q45.753124 177.23482 46.534374 177.64107Q47.33125 178.0317 47.7375 178.73482Q48.159374 179.42232 48.159374 180.20357Q48.159374 180.95357 47.753124 181.56294Q47.3625 182.17232 46.58125 182.5317Q47.596874 182.76607 48.159374 183.50044Q48.721874 184.23482 48.721874 185.3442Q48.721874 186.8442 47.628124 187.89107Q46.534374 188.93794 44.8625 188.93794Q43.3625 188.93794 42.3625 188.04732Q41.3625 187.14107 41.221874 185.70357ZM50.4875 180.0317Q50.4875 178.79732 51.096874 177.93794Q51.721874 177.07857 52.89375 177.07857Q53.971874 177.07857 54.675 177.85982Q55.378124 178.62544 55.378124 180.10982Q55.378124 181.56294 54.659374 182.35982Q53.95625 183.14107 52.909374 183.14107Q51.8625 183.14107 51.175 182.37544Q50.4875 181.5942 50.4875 180.0317ZM52.925 178.04732Q52.409374 178.04732 52.05 178.50044Q51.70625 178.95357 51.70625 180.17232Q51.70625 181.26607 52.05 181.7192Q52.409374 182.17232 52.925 182.17232Q53.45625 182.17232 53.8 181.7192Q54.159374 181.26607 54.159374 180.06294Q54.159374 178.95357 53.8 178.50044Q53.45625 178.04732 52.925 178.04732ZM52.940624 189.1567L59.20625 177.07857L60.346874 177.07857L54.096874 189.1567L52.940624 189.1567ZM57.89375 186.04732Q57.89375 184.81294 58.503124 183.95357Q59.128124 183.0942 60.3 183.0942Q61.378124 183.0942 62.08125 183.87544Q62.8 184.64107 62.8 186.12544Q62.8 187.57857 62.08125 188.37544Q61.3625 189.1567 60.315624 189.1567Q59.26875 189.1567 58.58125 188.37544Q57.89375 187.5942 57.89375 186.04732ZM60.346874 184.06294Q59.815624 184.06294 59.45625 184.51607Q59.1125 184.9692 59.1125 186.18794Q59.1125 187.2817 59.45625 187.73482Q59.815624 188.18794 60.33125 188.18794Q60.878124 188.18794 61.221874 187.73482Q61.565624 187.2817 61.565624 186.07857Q61.565624 184.9692 61.20625 184.51607Q60.8625 184.06294 60.346874 184.06294Z" fill-rule="nonzero"/><path stroke="#757575" stroke-width="1.0" stroke-linecap="butt" d="M18.55 172.23482L145.23334 172.23482L162.21506 172.23482" fill-rule="nonzero"/><path fill="#9e9e9e" d="M164.21506 172.23482C164.21506 171.13025 163.31963 170.23482 162.21506 170.23482C161.11049 170.23482 160.21506 171.13025 160.21506 172.23482C160.21506 173.33939 161.11049 174.23482 162.21506 174.23482C163.31963 174.23482 164.21506 173.33939 164.21506 172.23482" fill-rule="nonzero"/><path fill="#efefef" d="M18.51875 286.3001L22.925 274.847L24.565624 274.847L29.253124 286.3001L27.51875 286.3001L26.190624 282.83136L21.39375 282.83136L20.14375 286.3001L18.51875 286.3001ZM21.83125 281.597L25.721874 281.597L24.51875 278.4251Q23.971874 276.972 23.70625 276.0501Q23.4875 277.14386 23.096874 278.2376L21.83125 281.597ZM30.596874 286.3001L30.596874 278.00323L31.8625 278.00323L31.8625 279.25323Q32.346874 278.37823 32.753124 278.097Q33.159374 277.81573 33.659374 277.81573Q34.3625 277.81573 35.096874 278.26886L34.6125 279.56573Q34.096874 279.26886 33.58125 279.26886Q33.128124 279.26886 32.753124 279.5501Q32.39375 279.81573 32.2375 280.31573Q32.003124 281.06573 32.003124 281.95636L32.003124 286.3001L30.596874 286.3001ZM41.01875 283.25323L42.409374 283.44073Q42.175 284.8626 41.2375 285.6751Q40.315624 286.4876 38.95625 286.4876Q37.253124 286.4876 36.20625 285.37823Q35.175 284.25323 35.175 282.1751Q35.175 280.83136 35.6125 279.83136Q36.065624 278.81573 36.971874 278.31573Q37.89375 277.81573 38.95625 277.81573Q40.315624 277.81573 41.175 278.50323Q42.034374 279.1751 42.26875 280.44073L40.909374 280.64386Q40.70625 279.81573 40.20625 279.39386Q39.721874 278.972 39.01875 278.972Q37.95625 278.972 37.284374 279.7376Q36.628124 280.4876 36.628124 282.14386Q36.628124 283.81573 37.26875 284.58136Q37.909374 285.33136 38.940624 285.33136Q39.76875 285.33136 40.315624 284.83136Q40.878124 284.31573 41.01875 283.25323ZM43.6125 286.3001L43.6125 274.847L45.01875 274.847L45.01875 278.95636Q46.003124 277.81573 47.503124 277.81573Q48.425 277.81573 49.096874 278.1751Q49.784374 278.5345 50.065624 279.1751Q50.3625 279.81573 50.3625 281.0345L50.3625 286.3001L48.95625 286.3001L48.95625 281.0345Q48.95625 279.9876 48.503124 279.50323Q48.05 279.01886 47.20625 279.01886Q46.58125 279.01886 46.034374 279.347Q45.4875 279.6751 45.253124 280.2376Q45.01875 280.7845 45.01875 281.75323L45.01875 286.3001L43.6125 286.3001ZM52.6125 276.45636L52.6125 274.847L54.01875 274.847L54.01875 276.45636L52.6125 276.45636ZM52.6125 286.3001L52.6125 278.00323L54.01875 278.00323L54.01875 286.3001L52.6125 286.3001ZM59.675 285.0345L59.878124 286.2845Q59.284374 286.4095 58.815624 286.4095Q58.05 286.4095 57.628124 286.1751Q57.20625 285.9251 57.034374 285.5345Q56.8625 285.12823 56.8625 283.8626L56.8625 279.097L55.83125 279.097L55.83125 278.00323L56.8625 278.00323L56.8625 275.94073L58.26875 275.097L58.26875 278.00323L59.675 278.00323L59.675 279.097L58.26875 279.097L58.26875 283.94073Q58.26875 284.5501 58.33125 284.722Q58.409374 284.89386 58.58125 285.00323Q58.753124 285.097 59.065624 285.097Q59.3 285.097 59.675 285.0345ZM66.28438 283.62823L67.7375 283.8001Q67.39375 285.08136 66.45625 285.7845Q65.53438 286.4876 64.09688 286.4876Q62.26875 286.4876 61.20625 285.3626Q60.14375 284.2376 60.14375 282.222Q60.14375 280.12823 61.221874 278.972Q62.3 277.81573 64.01875 277.81573Q65.675 277.81573 66.72188 278.95636Q67.78438 280.08136 67.78438 282.12823Q67.78438 282.25323 67.78438 282.50323L61.596874 282.50323Q61.675 283.87823 62.3625 284.6126Q63.065624 285.33136 64.09688 285.33136Q64.87813 285.33136 65.425 284.9251Q65.97188 284.51886 66.28438 283.62823ZM61.675 281.347L66.3 281.347Q66.20625 280.3001 65.76875 279.7845Q65.09688 278.972 64.03438 278.972Q63.065624 278.972 62.39375 279.62823Q61.7375 280.26886 61.675 281.347ZM75.01875 283.25323L76.40938 283.44073Q76.175 284.8626 75.2375 285.6751Q74.31563 286.4876 72.95625 286.4876Q71.25313 286.4876 70.20625 285.37823Q69.175 284.25323 69.175 282.1751Q69.175 280.83136 69.6125 279.83136Q70.06563 278.81573 70.97188 278.31573Q71.89375 277.81573 72.95625 277.81573Q74.31563 277.81573 75.175 278.50323Q76.03438 279.1751 76.26875 280.44073L74.90938 280.64386Q74.70625 279.81573 74.20625 279.39386Q73.72188 278.972 73.01875 278.972Q71.95625 278.972 71.28438 279.7376Q70.62813 280.4876 70.62813 282.14386Q70.62813 283.81573 71.26875 284.58136Q71.90938 285.33136 72.94063 285.33136Q73.76875 285.33136 74.31563 284.83136Q74.87813 284.31573 75.01875 283.25323ZM80.675 285.0345L80.87813 286.2845Q80.28438 286.4095 79.81563 286.4095Q79.05 286.4095 78.62813 286.1751Q78.20625 285.9251 78.03438 285.5345Q77.8625 285.12823 77.8625 283.8626L77.8625 279.097L76.83125 279.097L76.83125 278.00323L77.8625 278.00323L77.8625 275.94073L79.26875 275.097L79.26875 278.00323L80.675 278.00323L80.675 279.097L79.26875 279.097L79.26875 283.94073Q79.26875 284.5501 79.33125 284.722Q79.40938 284.89386 79.58125 285.00323Q79.75313 285.097 80.06563 285.097Q80.3 285.097 80.675 285.0345ZM87.05 286.3001L87.05 285.08136Q86.08125 286.4876 84.40938 286.4876Q83.675 286.4876 83.03438 286.20636Q82.40938 285.9251 82.09688 285.50323Q81.78438 285.06573 81.65938 284.45636Q81.58125 284.0345 81.58125 283.14386L81.58125 278.00323L82.9875 278.00323L82.9875 282.597Q82.9875 283.70636 83.06563 284.08136Q83.20625 284.64386 83.62813 284.95636Q84.06563 285.26886 84.69063 285.26886Q85.33125 285.26886 85.87813 284.95636Q86.44063 284.62823 86.65938 284.06573Q86.89375 283.50323 86.89375 282.44073L86.89375 278.00323L88.3 278.00323L88.3 286.3001L87.05 286.3001ZM90.59688 286.3001L90.59688 278.00323L91.8625 278.00323L91.8625 279.25323Q92.34688 278.37823 92.75313 278.097Q93.15938 277.81573 93.65938 277.81573Q94.3625 277.81573 95.09688 278.26886L94.6125 279.56573Q94.09688 279.26886 93.58125 279.26886Q93.12813 279.26886 92.75313 279.5501Q92.39375 279.81573 92.2375 280.31573Q92.00313 281.06573 92.00313 281.95636L92.00313 286.3001L90.59688 286.3001ZM101.28438 283.62823L102.7375 283.8001Q102.39375 285.08136 101.45625 285.7845Q100.53438 286.4876 99.09688 286.4876Q97.26875 286.4876 96.20625 285.3626Q95.14375 284.2376 95.14375 282.222Q95.14375 280.12823 96.22188 278.972Q97.3 277.81573 99.01875 277.81573Q100.675 277.81573 101.72188 278.95636Q102.78438 280.08136 102.78438 282.12823Q102.78438 282.25323 102.78438 282.50323L96.59688 282.50323Q96.675 283.87823 97.3625 284.6126Q98.06563 285.33136 99.09688 285.33136Q99.87813 285.33136 100.425 284.9251Q100.97188 284.51886 101.28438 283.62823ZM96.675 281.347L101.3 281.347Q101.20625 280.3001 100.76875 279.7845Q100.09688 278.972 99.03438 278.972Q98.06563 278.972 97.39375 279.62823Q96.7375 280.26886 96.675 281.347ZM115.15938 284.94073Q114.45625 285.722 113.62813 286.1126Q112.81563 286.50323 111.8625 286.50323Q110.1125 286.50323 109.08125 285.3001Q108.2375 284.33136 108.2375 283.14386Q108.2375 282.08136 108.925 281.222Q109.6125 280.3626 110.97188 279.722Q110.19063 278.83136 109.925 278.2845Q109.675 277.722 109.675 277.20636Q109.675 276.1751 110.4875 275.4095Q111.3 274.64386 112.51875 274.64386Q113.69063 274.64386 114.44063 275.3626Q115.19063 276.08136 115.19063 277.097Q115.19063 278.722 113.01875 279.87823L115.08125 282.50323Q115.425 281.81573 115.62813 280.9095L117.08125 281.222Q116.70625 282.722 116.06563 283.69073Q116.8625 284.7376 117.8625 285.44073L116.90938 286.56573Q116.06563 286.01886 115.15938 284.94073ZM112.3 278.972Q113.20625 278.44073 113.47188 278.0345Q113.75313 277.62823 113.75313 277.12823Q113.75313 276.5501 113.37813 276.1751Q113.00313 275.8001 112.45625 275.8001Q111.87813 275.8001 111.50313 276.1751Q111.12813 276.5345 111.12813 277.06573Q111.12813 277.33136 111.25313 277.62823Q111.39375 277.9251 111.675 278.25323L112.3 278.972ZM114.26875 283.83136L111.69063 280.64386Q110.55 281.31573 110.14375 281.9095Q109.75313 282.4876 109.75313 283.0501Q109.75313 283.75323 110.3 284.50323Q110.8625 285.25323 111.87813 285.25323Q112.51875 285.25323 113.19063 284.8626Q113.8625 284.45636 114.26875 283.83136Z" fill-rule="nonzero"/><path fill="#9e9e9e" d="M24.51875 308.3001L23.1125 308.3001L23.1125 299.33136Q22.596874 299.81573 21.76875 300.3001Q20.95625 300.7845 20.3 301.0345L20.3 299.6751Q21.471874 299.1126 22.346874 298.33136Q23.2375 297.5345 23.6125 296.8001L24.51875 296.8001L24.51875 308.3001ZM32.721874 308.3001L32.721874 305.5501L27.753124 305.5501L27.753124 304.26886L32.9875 296.847L34.128124 296.847L34.128124 304.26886L35.675 304.26886L35.675 305.5501L34.128124 305.5501L34.128124 308.3001L32.721874 308.3001ZM32.721874 304.26886L32.721874 299.097L29.14375 304.26886L32.721874 304.26886ZM38.003124 308.3001L38.003124 306.69073L39.6125 306.69073L39.6125 308.3001L38.003124 308.3001ZM41.221874 305.26886L42.628124 305.08136Q42.878124 306.2845 43.45625 306.81573Q44.034374 307.33136 44.878124 307.33136Q45.8625 307.33136 46.55 306.64386Q47.2375 305.95636 47.2375 304.94073Q47.2375 303.972 46.596874 303.347Q45.971874 302.722 44.9875 302.722Q44.596874 302.722 44.003124 302.87823L44.159374 301.64386Q44.3 301.6595 44.378124 301.6595Q45.284374 301.6595 46.003124 301.19073Q46.721874 300.722 46.721874 299.7376Q46.721874 298.972 46.190624 298.472Q45.675 297.95636 44.846874 297.95636Q44.01875 297.95636 43.471874 298.472Q42.925 298.9876 42.76875 300.01886L41.3625 299.76886Q41.628124 298.347 42.534374 297.58136Q43.45625 296.8001 44.815624 296.8001Q45.753124 296.8001 46.534374 297.20636Q47.33125 297.597 47.7375 298.3001Q48.159374 298.9876 48.159374 299.76886Q48.159374 300.51886 47.753124 301.12823Q47.3625 301.7376 46.58125 302.097Q47.596874 302.33136 48.159374 303.06573Q48.721874 303.8001 48.721874 304.9095Q48.721874 306.4095 47.628124 307.45636Q46.534374 308.50323 44.8625 308.50323Q43.3625 308.50323 42.3625 307.6126Q41.3625 306.70636 41.221874 305.26886ZM50.4875 299.597Q50.4875 298.3626 51.096874 297.50323Q51.721874 296.64386 52.89375 296.64386Q53.971874 296.64386 54.675 297.4251Q55.378124 298.19073 55.378124 299.6751Q55.378124 301.12823 54.659374 301.9251Q53.95625 302.70636 52.909374 302.70636Q51.8625 302.70636 51.175 301.94073Q50.4875 301.1595 50.4875 299.597ZM52.925 297.6126Q52.409374 297.6126 52.05 298.06573Q51.70625 298.51886 51.70625 299.7376Q51.70625 300.83136 52.05 301.2845Q52.409374 301.7376 52.925 301.7376Q53.45625 301.7376 53.8 301.2845Q54.159374 300.83136 54.159374 299.62823Q54.159374 298.51886 53.8 298.06573Q53.45625 297.6126 52.925 297.6126ZM52.940624 308.722L59.20625 296.64386L60.346874 296.64386L54.096874 308.722L52.940624 308.722ZM57.89375 305.6126Q57.89375 304.37823 58.503124 303.51886Q59.128124 302.6595 60.3 302.6595Q61.378124 302.6595 62.08125 303.44073Q62.8 304.20636 62.8 305.69073Q62.8 307.14386 62.08125 307.94073Q61.3625 308.722 60.315624 308.722Q59.26875 308.722 58.58125 307.94073Q57.89375 307.1595 57.89375 305.6126ZM60.346874 303.62823Q59.815624 303.62823 59.45625 304.08136Q59.1125 304.5345 59.1125 305.75323Q59.1125 306.847 59.45625 307.3001Q59.815624 307.75323 60.33125 307.75323Q60.878124 307.75323 61.221874 307.3001Q61.565624 306.847 61.565624 305.64386Q61.565624 304.5345 61.20625 304.08136Q60.8625 303.62823 60.346874 303.62823Z" fill-rule="nonzero"/><path stroke="#757575" stroke-width="1.0" stroke-linecap="butt" d="M18.55 291.8001L145.23334 291.8001L189.50507 291.8001" fill-rule="nonzero"/><path fill="#9e9e9e" d="M191.50507 291.8001C191.50507 290.69553 190.60963 289.8001 189.50507 289.8001C188.4005 289.8001 187.50507 290.69553 187.50507 291.8001C187.50507 292.90466 188.4005 293.8001 189.50507 293.8001C190.60963 293.8001 191.50507 292.90466 191.50507 291.8001" fill-rule="nonzero"/><path fill="#efefef" d="M481.71564 110.06656L481.71564 98.613434L489.9969 98.613434L489.9969 99.957184L483.23126 99.957184L483.23126 103.47281L489.575 103.47281L489.575 104.81656L483.23126 104.81656L483.23126 108.707184L490.2625 108.707184L490.2625 110.06656L481.71564 110.06656ZM495.575 108.800934L495.77814 110.050934Q495.1844 110.175934 494.71564 110.175934Q493.95 110.175934 493.52814 109.94156Q493.10626 109.69156 492.9344 109.300934Q492.7625 108.894684 492.7625 107.62906L492.7625 102.863434L491.73126 102.863434L491.73126 101.769684L492.7625 101.769684L492.7625 99.707184L494.16876 98.863434L494.16876 101.769684L495.575 101.769684L495.575 102.863434L494.16876 102.863434L494.16876 107.707184Q494.16876 108.31656 494.23126 108.488434Q494.3094 108.66031 494.48126 108.769684Q494.65314 108.863434 494.96564 108.863434Q495.2 108.863434 495.575 108.800934ZM496.5125 110.06656L496.5125 98.613434L497.91876 98.613434L497.91876 102.72281Q498.90314 101.582184 500.40314 101.582184Q501.325 101.582184 501.9969 101.94156Q502.6844 102.300934 502.96564 102.94156Q503.2625 103.582184 503.2625 104.800934L503.2625 110.06656L501.85626 110.06656L501.85626 104.800934Q501.85626 103.75406 501.40314 103.269684Q500.95 102.78531 500.10626 102.78531Q499.48126 102.78531 498.9344 103.113434Q498.3875 103.44156 498.15314 104.00406Q497.91876 104.550934 497.91876 105.519684L497.91876 110.06656L496.5125 110.06656ZM505.5125 110.06656L505.5125 101.769684L506.77814 101.769684L506.77814 102.94156Q507.6844 101.582184 509.41876 101.582184Q510.16876 101.582184 510.79376 101.84781Q511.41876 102.113434 511.73126 102.550934Q512.04376 102.988434 512.16876 103.59781Q512.2469 103.988434 512.2469 104.957184L512.2469 110.06656L510.84064 110.06656L510.84064 105.019684Q510.84064 104.16031 510.66876 103.738434Q510.5125 103.300934 510.09064 103.050934Q509.6844 102.800934 509.1219 102.800934Q508.21564 102.800934 507.5594 103.37906Q506.91876 103.94156 506.91876 105.53531L506.91876 110.06656L505.5125 110.06656ZM514.5125 100.22281L514.5125 98.613434L515.91876 98.613434L515.91876 100.22281L514.5125 100.22281ZM514.5125 110.06656L514.5125 101.769684L515.91876 101.769684L515.91876 110.06656L514.5125 110.06656ZM523.91876 107.019684L525.3094 107.207184Q525.075 108.62906 524.1375 109.44156Q523.21564 110.25406 521.85626 110.25406Q520.15314 110.25406 519.10626 109.144684Q518.075 108.019684 518.075 105.94156Q518.075 104.59781 518.5125 103.59781Q518.96564 102.582184 519.8719 102.082184Q520.79376 101.582184 521.85626 101.582184Q523.21564 101.582184 524.075 102.269684Q524.9344 102.94156 525.16876 104.207184L523.8094 104.41031Q523.60626 103.582184 523.10626 103.16031Q522.6219 102.738434 521.91876 102.738434Q520.85626 102.738434 520.1844 103.50406Q519.52814 104.25406 519.52814 105.91031Q519.52814 107.582184 520.16876 108.34781Q520.8094 109.09781 521.84064 109.09781Q522.66876 109.09781 523.21564 108.59781Q523.77814 108.082184 523.91876 107.019684ZM536.04376 105.56656L536.04376 104.22281L540.90314 104.22281L540.90314 108.47281Q539.77814 109.363434 538.59064 109.81656Q537.40314 110.269684 536.15314 110.269684Q534.46564 110.269684 533.09064 109.550934Q531.71564 108.81656 531.0125 107.457184Q530.3094 106.082184 530.3094 104.394684Q530.3094 102.72281 530.9969 101.269684Q531.7 99.81656 533.0125 99.113434Q534.325 98.41031 536.04376 98.41031Q537.27814 98.41031 538.27814 98.81656Q539.29376 99.22281 539.85626 99.94156Q540.4344 100.66031 540.73126 101.81656L539.35626 102.19156Q539.10626 101.31656 538.71564 100.81656Q538.34064 100.31656 537.6219 100.019684Q536.91876 99.707184 536.04376 99.707184Q535.0125 99.707184 534.2469 100.03531Q533.4969 100.34781 533.02814 100.863434Q532.5594 101.37906 532.3094 101.988434Q531.8719 103.050934 531.8719 104.300934Q531.8719 105.832184 532.3875 106.863434Q532.91876 107.894684 533.91876 108.394684Q534.9344 108.894684 536.075 108.894684Q537.0594 108.894684 537.9969 108.519684Q538.9344 108.12906 539.41876 107.707184L539.41876 105.56656L536.04376 105.56656ZM542.4969 110.06656L542.4969 101.769684L543.7625 101.769684L543.7625 103.019684Q544.2469 102.144684 544.65314 101.863434Q545.0594 101.582184 545.5594 101.582184Q546.2625 101.582184 546.9969 102.03531L546.5125 103.332184Q545.9969 103.03531 545.48126 103.03531Q545.02814 103.03531 544.65314 103.31656Q544.29376 103.582184 544.1375 104.082184Q543.90314 104.832184 543.90314 105.72281L543.90314 110.06656L542.4969 110.06656ZM546.98126 105.91031Q546.98126 103.613434 548.2625 102.50406Q549.34064 101.582184 550.8719 101.582184Q552.59064 101.582184 553.66876 102.707184Q554.7625 103.81656 554.7625 105.800934Q554.7625 107.394684 554.27814 108.31656Q553.79376 109.238434 552.8719 109.75406Q551.96564 110.25406 550.8719 110.25406Q549.1375 110.25406 548.0594 109.144684Q546.98126 108.019684 546.98126 105.91031ZM548.4344 105.91031Q548.4344 107.50406 549.1219 108.300934Q549.825 109.09781 550.8719 109.09781Q551.91876 109.09781 552.60626 108.300934Q553.3094 107.50406 553.3094 105.863434Q553.3094 104.332184 552.60626 103.53531Q551.91876 102.738434 550.8719 102.738434Q549.825 102.738434 549.1219 103.53531Q548.4344 104.31656 548.4344 105.91031ZM561.95 110.06656L561.95 108.84781Q560.98126 110.25406 559.3094 110.25406Q558.575 110.25406 557.9344 109.97281Q557.3094 109.69156 556.9969 109.269684Q556.6844 108.832184 556.5594 108.22281Q556.48126 107.800934 556.48126 106.91031L556.48126 101.769684L557.8875 101.769684L557.8875 106.363434Q557.8875 107.47281 557.96564 107.84781Q558.10626 108.41031 558.52814 108.72281Q558.96564 109.03531 559.59064 109.03531Q560.23126 109.03531 560.77814 108.72281Q561.34064 108.394684 561.5594 107.832184Q561.79376 107.269684 561.79376 106.207184L561.79376 101.769684L563.2 101.769684L563.2 110.06656L561.95 110.06656ZM565.5125 113.25406L565.5125 101.769684L566.79376 101.769684L566.79376 102.84781Q567.2469 102.207184 567.8094 101.894684Q568.3875 101.582184 569.2 101.582184Q570.2625 101.582184 571.075 102.12906Q571.8875 102.675934 572.29376 103.675934Q572.71564 104.66031 572.71564 105.84781Q572.71564 107.12906 572.2469 108.144684Q571.79376 109.16031 570.91876 109.707184Q570.0594 110.25406 569.09064 110.25406Q568.3875 110.25406 567.825 109.957184Q567.27814 109.66031 566.91876 109.207184L566.91876 113.25406L565.5125 113.25406ZM566.77814 105.957184Q566.77814 107.56656 567.41876 108.332184Q568.075 109.09781 568.9969 109.09781Q569.9344 109.09781 570.60626 108.300934Q571.27814 107.50406 571.27814 105.84781Q571.27814 104.25406 570.6219 103.47281Q569.96564 102.675934 569.0594 102.675934Q568.16876 102.675934 567.46564 103.519684Q566.77814 104.363434 566.77814 105.957184ZM573.95 107.582184L575.34064 107.363434Q575.45 108.207184 575.98126 108.66031Q576.52814 109.09781 577.48126 109.09781Q578.45 109.09781 578.91876 108.707184Q579.3875 108.300934 579.3875 107.769684Q579.3875 107.300934 578.98126 107.019684Q578.6844 106.832184 577.54376 106.550934Q575.9969 106.16031 575.3875 105.87906Q574.79376 105.582184 574.48126 105.082184Q574.1844 104.582184 574.1844 103.97281Q574.1844 103.41031 574.4344 102.94156Q574.6844 102.47281 575.1219 102.16031Q575.45 101.91031 576.0125 101.75406Q576.59064 101.582184 577.23126 101.582184Q578.21564 101.582184 578.95 101.863434Q579.6844 102.144684 580.02814 102.62906Q580.3875 103.09781 580.52814 103.91031L579.15314 104.09781Q579.0594 103.457184 578.60626 103.09781Q578.15314 102.738434 577.34064 102.738434Q576.3719 102.738434 575.95 103.06656Q575.54376 103.37906 575.54376 103.800934Q575.54376 104.082184 575.71564 104.300934Q575.8875 104.519684 576.2469 104.675934Q576.46564 104.75406 577.4969 105.03531Q578.98126 105.425934 579.575 105.69156Q580.16876 105.94156 580.4969 106.425934Q580.84064 106.91031 580.84064 107.62906Q580.84064 108.332184 580.41876 108.957184Q580.0125 109.56656 579.23126 109.91031Q578.46564 110.25406 577.4969 110.25406Q575.8719 110.25406 575.02814 109.582184Q574.1844 108.91031 573.95 107.582184Z" fill-rule="nonzero"/><path fill="#9e9e9e" d="M544.5125 130.70718L544.5125 132.06656L536.9344 132.06656Q536.91876 131.55093 537.10626 131.08218Q537.3875 130.31656 538.02814 129.56656Q538.66876 128.81656 539.8719 127.832184Q541.73126 126.300934 542.3875 125.41031Q543.04376 124.50406 543.04376 123.707184Q543.04376 122.87906 542.45 122.300934Q541.85626 121.72281 540.8875 121.72281Q539.8719 121.72281 539.2625 122.332184Q538.65314 122.94156 538.65314 124.019684L537.2 123.87906Q537.35626 122.25406 538.325 121.41031Q539.29376 120.56656 540.91876 120.56656Q542.575 120.56656 543.52814 121.488434Q544.4969 122.394684 544.4969 123.738434Q544.4969 124.425934 544.21564 125.09781Q543.9344 125.75406 543.27814 126.488434Q542.6219 127.22281 541.10626 128.50406Q539.84064 129.56656 539.48126 129.95718Q539.1219 130.33218 538.8875 130.70718L544.5125 130.70718ZM548.27814 125.84781Q547.40314 125.53531 546.98126 124.94156Q546.5594 124.34781 546.5594 123.519684Q546.5594 122.269684 547.45 121.425934Q548.35626 120.56656 549.85626 120.56656Q551.35626 120.56656 552.2625 121.44156Q553.1844 122.300934 553.1844 123.550934Q553.1844 124.34781 552.7625 124.94156Q552.34064 125.53531 551.4969 125.84781Q552.54376 126.19156 553.09064 126.957184Q553.65314 127.72281 553.65314 128.78531Q553.65314 130.25406 552.60626 131.26968Q551.575 132.26968 549.8719 132.26968Q548.1844 132.26968 547.1375 131.26968Q546.10626 130.25406 546.10626 128.75406Q546.10626 127.62906 546.66876 126.87906Q547.23126 126.12906 548.27814 125.84781ZM547.9969 123.47281Q547.9969 124.28531 548.5125 124.800934Q549.04376 125.31656 549.8875 125.31656Q550.7 125.31656 551.21564 124.800934Q551.73126 124.28531 551.73126 123.550934Q551.73126 122.769684 551.2 122.25406Q550.66876 121.72281 549.8719 121.72281Q549.0594 121.72281 548.52814 122.238434Q547.9969 122.75406 547.9969 123.47281ZM547.54376 128.75406Q547.54376 129.36343 547.825 129.92593Q548.1219 130.48843 548.6844 130.80093Q549.2469 131.09781 549.8875 131.09781Q550.90314 131.09781 551.5594 130.45718Q552.21564 129.80093 552.21564 128.80093Q552.21564 127.78531 551.52814 127.12906Q550.85626 126.457184 549.84064 126.457184Q548.85626 126.457184 548.2 127.113434Q547.54376 127.769684 547.54376 128.75406ZM555.90314 132.06656L555.90314 130.45718L557.5125 130.45718L557.5125 132.06656L555.90314 132.06656ZM566.41876 123.41031L565.0125 123.519684Q564.825 122.69156 564.48126 122.31656Q563.91876 121.72281 563.075 121.72281Q562.40314 121.72281 561.90314 122.09781Q561.23126 122.582184 560.84064 123.519684Q560.46564 124.44156 560.45 126.16031Q560.96564 125.37906 561.7 125.00406Q562.4344 124.62906 563.23126 124.62906Q564.6375 124.62906 565.6219 125.675934Q566.6219 126.707184 566.6219 128.34781Q566.6219 129.42593 566.15314 130.34781Q565.6844 131.26968 564.8719 131.76968Q564.0594 132.26968 563.02814 132.26968Q561.27814 132.26968 560.16876 130.97281Q559.0594 129.67593 559.0594 126.707184Q559.0594 123.37906 560.27814 121.87906Q561.35626 120.56656 563.16876 120.56656Q564.5125 120.56656 565.3719 121.332184Q566.2469 122.082184 566.41876 123.41031ZM560.66876 128.34781Q560.66876 129.08218 560.98126 129.75406Q561.29376 130.41031 561.84064 130.75406Q562.40314 131.09781 563.0125 131.09781Q563.90314 131.09781 564.54376 130.37906Q565.1844 129.66031 565.1844 128.42593Q565.1844 127.238434 564.54376 126.56656Q563.91876 125.87906 562.95 125.87906Q561.9969 125.87906 561.325 126.56656Q560.66876 127.238434 560.66876 128.34781ZM568.3875 123.363434Q568.3875 122.12906 568.9969 121.269684Q569.6219 120.41031 570.79376 120.41031Q571.8719 120.41031 572.575 121.19156Q573.27814 121.957184 573.27814 123.44156Q573.27814 124.894684 572.5594 125.69156Q571.85626 126.47281 570.8094 126.47281Q569.7625 126.47281 569.075 125.707184Q568.3875 124.925934 568.3875 123.363434ZM570.825 121.37906Q570.3094 121.37906 569.95 121.832184Q569.60626 122.28531 569.60626 123.50406Q569.60626 124.59781 569.95 125.050934Q570.3094 125.50406 570.825 125.50406Q571.35626 125.50406 571.7 125.050934Q572.0594 124.59781 572.0594 123.394684Q572.0594 122.28531 571.7 121.832184Q571.35626 121.37906 570.825 121.37906ZM570.84064 132.48843L577.10626 120.41031L578.2469 120.41031L571.9969 132.48843L570.84064 132.48843ZM575.79376 129.37906Q575.79376 128.14468 576.40314 127.28531Q577.02814 126.425934 578.2 126.425934Q579.27814 126.425934 579.98126 127.207184Q580.7 127.97281 580.7 129.45718Q580.7 130.91031 579.98126 131.70718Q579.2625 132.48843 578.21564 132.48843Q577.16876 132.48843 576.48126 131.70718Q575.79376 130.92593 575.79376 129.37906ZM578.2469 127.394684Q577.71564 127.394684 577.35626 127.84781Q577.0125 128.30093 577.0125 129.51968Q577.0125 130.61343 577.35626 131.06656Q577.71564 131.51968 578.23126 131.51968Q578.77814 131.51968 579.1219 131.06656Q579.46564 130.61343 579.46564 129.41031Q579.46564 128.30093 579.10626 127.84781Q578.7625 127.394684 578.2469 127.394684Z" fill-rule="nonzero"/><path stroke="#757575" stroke-width="1.0" stroke-linecap="butt" d="M581.45 115.56656L454.76666 115.56656L410.49493 115.56656" fill-rule="nonzero"/><path fill="#9e9e9e" d="M412.49493 115.56656C412.49493 114.46199 411.59952 113.56656 410.49493 113.56656C409.39038 113.56656 408.49493 114.46199 408.49493 115.56656C408.49493 116.67113 409.39038 117.56656 410.49493 117.56656C411.59952 117.56656 412.49493 116.67113 412.49493 115.56656" fill-rule="nonzero"/><path fill="#efefef" d="M495.85626 281.4344L497.3719 281.8094Q496.90314 283.6844 495.65314 284.66876Q494.41876 285.65314 492.6375 285.65314Q490.77814 285.65314 489.6219 284.90314Q488.46564 284.1375 487.85626 282.71564Q487.2469 281.27814 487.2469 279.6375Q487.2469 277.84064 487.9344 276.5125Q488.6219 275.1844 489.8719 274.4969Q491.1375 273.79376 492.65314 273.79376Q494.3719 273.79376 495.54376 274.66876Q496.71564 275.54376 497.1844 277.1375L495.6844 277.48126Q495.29376 276.23126 494.52814 275.66876Q493.77814 275.09064 492.6219 275.09064Q491.3094 275.09064 490.41876 275.73126Q489.52814 276.35626 489.16876 277.4344Q488.8094 278.4969 488.8094 279.6219Q488.8094 281.09064 489.23126 282.1844Q489.66876 283.2625 490.5594 283.8094Q491.46564 284.34064 492.5125 284.34064Q493.77814 284.34064 494.65314 283.60626Q495.54376 282.8719 495.85626 281.4344ZM504.95 285.45L504.95 284.23126Q503.98126 285.6375 502.3094 285.6375Q501.575 285.6375 500.9344 285.35626Q500.3094 285.075 499.9969 284.65314Q499.6844 284.21564 499.5594 283.60626Q499.48126 283.1844 499.48126 282.29376L499.48126 277.15314L500.8875 277.15314L500.8875 281.7469Q500.8875 282.85626 500.96564 283.23126Q501.10626 283.79376 501.52814 284.10626Q501.96564 284.41876 502.59064 284.41876Q503.23126 284.41876 503.77814 284.10626Q504.34064 283.77814 504.5594 283.21564Q504.79376 282.65314 504.79376 281.59064L504.79376 277.15314L506.2 277.15314L506.2 285.45L504.95 285.45ZM508.48126 285.45L508.48126 273.9969L509.8875 273.9969L509.8875 285.45L508.48126 285.45ZM515.575 284.1844L515.77814 285.4344Q515.1844 285.5594 514.71564 285.5594Q513.95 285.5594 513.52814 285.325Q513.10626 285.075 512.9344 284.6844Q512.7625 284.27814 512.7625 283.0125L512.7625 278.2469L511.73126 278.2469L511.73126 277.15314L512.7625 277.15314L512.7625 275.09064L514.16876 274.2469L514.16876 277.15314L515.575 277.15314L515.575 278.2469L514.16876 278.2469L514.16876 283.09064Q514.16876 283.7 514.23126 283.8719Q514.3094 284.04376 514.48126 284.15314Q514.65314 284.2469 514.96564 284.2469Q515.2 284.2469 515.575 284.1844ZM521.95 285.45L521.95 284.23126Q520.98126 285.6375 519.3094 285.6375Q518.575 285.6375 517.9344 285.35626Q517.3094 285.075 516.9969 284.65314Q516.6844 284.21564 516.5594 283.60626Q516.48126 283.1844 516.48126 282.29376L516.48126 277.15314L517.8875 277.15314L517.8875 281.7469Q517.8875 282.85626 517.96564 283.23126Q518.10626 283.79376 518.52814 284.10626Q518.96564 284.41876 519.59064 284.41876Q520.23126 284.41876 520.77814 284.10626Q521.34064 283.77814 521.5594 283.21564Q521.79376 282.65314 521.79376 281.59064L521.79376 277.15314L523.2 277.15314L523.2 285.45L521.95 285.45ZM525.4969 285.45L525.4969 277.15314L526.7625 277.15314L526.7625 278.40314Q527.2469 277.52814 527.65314 277.2469Q528.0594 276.96564 528.5594 276.96564Q529.2625 276.96564 529.9969 277.41876L529.5125 278.71564Q528.9969 278.41876 528.48126 278.41876Q528.02814 278.41876 527.65314 278.7Q527.29376 278.96564 527.1375 279.46564Q526.90314 280.21564 526.90314 281.10626L526.90314 285.45L525.4969 285.45ZM535.91876 284.41876Q535.1375 285.09064 534.41876 285.3719Q533.7 285.6375 532.8719 285.6375Q531.4969 285.6375 530.7625 284.96564Q530.02814 284.29376 530.02814 283.2625Q530.02814 282.65314 530.3094 282.15314Q530.59064 281.6375 531.02814 281.34064Q531.48126 281.02814 532.04376 280.8719Q532.46564 280.7625 533.29376 280.66876Q534.9969 280.46564 535.8094 280.1844Q535.8094 279.8875 535.8094 279.8094Q535.8094 278.95 535.41876 278.60626Q534.8719 278.1219 533.8094 278.1219Q532.825 278.1219 532.34064 278.48126Q531.8719 278.825 531.65314 279.7L530.27814 279.5125Q530.46564 278.6375 530.8875 278.09064Q531.325 277.54376 532.1375 277.2625Q532.95 276.96564 534.0125 276.96564Q535.075 276.96564 535.73126 277.21564Q536.40314 277.46564 536.71564 277.84064Q537.02814 278.21564 537.15314 278.79376Q537.23126 279.15314 537.23126 280.09064L537.23126 281.96564Q537.23126 283.9344 537.3094 284.45Q537.40314 284.96564 537.66876 285.45L536.2 285.45Q535.98126 285.0125 535.91876 284.41876ZM535.8094 281.27814Q535.04376 281.59064 533.5125 281.8094Q532.6375 281.9344 532.27814 282.09064Q531.91876 282.2469 531.71564 282.5594Q531.52814 282.85626 531.52814 283.21564Q531.52814 283.77814 531.95 284.15314Q532.3875 284.52814 533.2 284.52814Q534.0125 284.52814 534.6375 284.1844Q535.27814 283.825 535.575 283.2Q535.8094 282.73126 535.8094 281.79376L535.8094 281.27814ZM539.48126 285.45L539.48126 273.9969L540.8875 273.9969L540.8875 285.45L539.48126 285.45ZM546.41876 285.45L550.825 273.9969L552.46564 273.9969L557.15314 285.45L555.41876 285.45L554.09064 281.98126L549.29376 281.98126L548.04376 285.45L546.41876 285.45ZM549.73126 280.7469L553.6219 280.7469L552.41876 277.575Q551.8719 276.1219 551.60626 275.2Q551.3875 276.29376 550.9969 277.3875L549.73126 280.7469ZM563.91876 282.40314L565.3094 282.59064Q565.075 284.0125 564.1375 284.825Q563.21564 285.6375 561.85626 285.6375Q560.15314 285.6375 559.10626 284.52814Q558.075 283.40314 558.075 281.325Q558.075 279.98126 558.5125 278.98126Q558.96564 277.96564 559.8719 277.46564Q560.79376 276.96564 561.85626 276.96564Q563.21564 276.96564 564.075 277.65314Q564.9344 278.325 565.16876 279.59064L563.8094 279.79376Q563.60626 278.96564 563.10626 278.54376Q562.6219 278.1219 561.91876 278.1219Q560.85626 278.1219 560.1844 278.8875Q559.52814 279.6375 559.52814 281.29376Q559.52814 282.96564 560.16876 283.73126Q560.8094 284.48126 561.84064 284.48126Q562.66876 284.48126 563.21564 283.98126Q563.77814 283.46564 563.91876 282.40314ZM569.575 284.1844L569.77814 285.4344Q569.1844 285.5594 568.71564 285.5594Q567.95 285.5594 567.52814 285.325Q567.10626 285.075 566.9344 284.6844Q566.7625 284.27814 566.7625 283.0125L566.7625 278.2469L565.73126 278.2469L565.73126 277.15314L566.7625 277.15314L566.7625 275.09064L568.16876 274.2469L568.16876 277.15314L569.575 277.15314L569.575 278.2469L568.16876 278.2469L568.16876 283.09064Q568.16876 283.7 568.23126 283.8719Q568.3094 284.04376 568.48126 284.15314Q568.65314 284.2469 568.96564 284.2469Q569.2 284.2469 569.575 284.1844ZM569.95 282.96564L571.34064 282.7469Q571.45 283.59064 571.98126 284.04376Q572.52814 284.48126 573.48126 284.48126Q574.45 284.48126 574.91876 284.09064Q575.3875 283.6844 575.3875 283.15314Q575.3875 282.6844 574.98126 282.40314Q574.6844 282.21564 573.54376 281.9344Q571.9969 281.54376 571.3875 281.2625Q570.79376 280.96564 570.48126 280.46564Q570.1844 279.96564 570.1844 279.35626Q570.1844 278.79376 570.4344 278.325Q570.6844 277.85626 571.1219 277.54376Q571.45 277.29376 572.0125 277.1375Q572.59064 276.96564 573.23126 276.96564Q574.21564 276.96564 574.95 277.2469Q575.6844 277.52814 576.02814 278.0125Q576.3875 278.48126 576.52814 279.29376L575.15314 279.48126Q575.0594 278.84064 574.60626 278.48126Q574.15314 278.1219 573.34064 278.1219Q572.3719 278.1219 571.95 278.45Q571.54376 278.7625 571.54376 279.1844Q571.54376 279.46564 571.71564 279.6844Q571.8875 279.90314 572.2469 280.0594Q572.46564 280.1375 573.4969 280.41876Q574.98126 280.8094 575.575 281.075Q576.16876 281.325 576.4969 281.8094Q576.84064 282.29376 576.84064 283.0125Q576.84064 283.71564 576.41876 284.34064Q576.0125 284.95 575.23126 285.29376Q574.46564 285.6375 573.4969 285.6375Q571.8719 285.6375 571.02814 284.96564Q570.1844 284.29376 569.95 282.96564ZM578.90314 285.45L578.90314 283.84064L580.5125 283.84064L580.5125 285.45L578.90314 285.45Z" fill-rule="nonzero"/><path fill="#9e9e9e" d="M542.41876 307.45L541.0125 307.45L541.0125 298.48126Q540.4969 298.96564 539.66876 299.45Q538.85626 299.9344 538.2 300.1844L538.2 298.825Q539.3719 298.2625 540.2469 297.48126Q541.1375 296.6844 541.5125 295.95L542.41876 295.95L542.41876 307.45ZM550.6219 307.45L550.6219 304.7L545.65314 304.7L545.65314 303.41876L550.8875 295.9969L552.02814 295.9969L552.02814 303.41876L553.575 303.41876L553.575 304.7L552.02814 304.7L552.02814 307.45L550.6219 307.45ZM550.6219 303.41876L550.6219 298.2469L547.04376 303.41876L550.6219 303.41876ZM555.90314 307.45L555.90314 305.84064L557.5125 305.84064L557.5125 307.45L555.90314 307.45ZM559.1219 304.41876L560.52814 304.23126Q560.77814 305.4344 561.35626 305.96564Q561.9344 306.48126 562.77814 306.48126Q563.7625 306.48126 564.45 305.79376Q565.1375 305.10626 565.1375 304.09064Q565.1375 303.1219 564.4969 302.4969Q563.8719 301.8719 562.8875 301.8719Q562.4969 301.8719 561.90314 302.02814L562.0594 300.79376Q562.2 300.8094 562.27814 300.8094Q563.1844 300.8094 563.90314 300.34064Q564.6219 299.8719 564.6219 298.8875Q564.6219 298.1219 564.09064 297.6219Q563.575 297.10626 562.7469 297.10626Q561.91876 297.10626 561.3719 297.6219Q560.825 298.1375 560.66876 299.16876L559.2625 298.91876Q559.52814 297.4969 560.4344 296.73126Q561.35626 295.95 562.71564 295.95Q563.65314 295.95 564.4344 296.35626Q565.23126 296.7469 565.6375 297.45Q566.0594 298.1375 566.0594 298.91876Q566.0594 299.66876 565.65314 300.27814Q565.2625 300.8875 564.48126 301.2469Q565.4969 301.48126 566.0594 302.21564Q566.6219 302.95 566.6219 304.0594Q566.6219 305.5594 565.52814 306.60626Q564.4344 307.65314 562.7625 307.65314Q561.2625 307.65314 560.2625 306.7625Q559.2625 305.85626 559.1219 304.41876ZM568.3875 298.7469Q568.3875 297.5125 568.9969 296.65314Q569.6219 295.79376 570.79376 295.79376Q571.8719 295.79376 572.575 296.575Q573.27814 297.34064 573.27814 298.825Q573.27814 300.27814 572.5594 301.075Q571.85626 301.85626 570.8094 301.85626Q569.7625 301.85626 569.075 301.09064Q568.3875 300.3094 568.3875 298.7469ZM570.825 296.7625Q570.3094 296.7625 569.95 297.21564Q569.60626 297.66876 569.60626 298.8875Q569.60626 299.98126 569.95 300.4344Q570.3094 300.8875 570.825 300.8875Q571.35626 300.8875 571.7 300.4344Q572.0594 299.98126 572.0594 298.77814Q572.0594 297.66876 571.7 297.21564Q571.35626 296.7625 570.825 296.7625ZM570.84064 307.8719L577.10626 295.79376L578.2469 295.79376L571.9969 307.8719L570.84064 307.8719ZM575.79376 304.7625Q575.79376 303.52814 576.40314 302.66876Q577.02814 301.8094 578.2 301.8094Q579.27814 301.8094 579.98126 302.59064Q580.7 303.35626 580.7 304.84064Q580.7 306.29376 579.98126 307.09064Q579.2625 307.8719 578.21564 307.8719Q577.16876 307.8719 576.48126 307.09064Q575.79376 306.3094 575.79376 304.7625ZM578.2469 302.77814Q577.71564 302.77814 577.35626 303.23126Q577.0125 303.6844 577.0125 304.90314Q577.0125 305.9969 577.35626 306.45Q577.71564 306.90314 578.23126 306.90314Q578.77814 306.90314 579.1219 306.45Q579.46564 305.9969 579.46564 304.79376Q579.46564 303.6844 579.10626 303.23126Q578.7625 302.77814 578.2469 302.77814Z" fill-rule="nonzero"/><path stroke="#757575" stroke-width="1.0" stroke-linecap="butt" d="M581.45 290.95L454.76666 290.95L410.49493 291.8001" fill-rule="nonzero"/><path fill="#9e9e9e" d="M412.49493 291.8001C412.49493 290.69553 411.59952 289.8001 410.49493 289.8001C409.39038 289.8001 408.49493 290.69553 408.49493 291.8001C408.49493 292.90466 409.39038 293.8001 410.49493 293.8001C411.59952 293.8001 412.49493 292.90466 412.49493 291.8001" fill-rule="nonzero"/><path fill="#efefef" d="M506.6844 326.45L506.6844 314.9969L510.6375 314.9969Q511.96564 314.9969 512.66876 315.15314Q513.65314 315.3875 514.35626 315.98126Q515.2625 316.7469 515.7 317.9344Q516.15314 319.1219 516.15314 320.65314Q516.15314 321.96564 515.84064 322.98126Q515.54376 323.98126 515.0594 324.6375Q514.59064 325.29376 514.02814 325.6844Q513.46564 326.0594 512.65314 326.2625Q511.85626 326.45 510.825 326.45L506.6844 326.45ZM508.2 325.09064L510.65314 325.09064Q511.77814 325.09064 512.41876 324.8875Q513.075 324.66876 513.45 324.29376Q513.9969 323.7469 514.29376 322.84064Q514.59064 321.9344 514.59064 320.6375Q514.59064 318.84064 513.9969 317.8719Q513.41876 316.90314 512.575 316.575Q511.96564 316.34064 510.60626 316.34064L508.2 316.34064L508.2 325.09064ZM518.5125 316.60626L518.5125 314.9969L519.91876 314.9969L519.91876 316.60626L518.5125 316.60626ZM518.5125 326.45L518.5125 318.15314L519.91876 318.15314L519.91876 326.45L518.5125 326.45ZM522.5125 329.6375L522.5125 318.15314L523.79376 318.15314L523.79376 319.23126Q524.2469 318.59064 524.8094 318.27814Q525.3875 317.96564 526.2 317.96564Q527.2625 317.96564 528.075 318.5125Q528.8875 319.0594 529.29376 320.0594Q529.71564 321.04376 529.71564 322.23126Q529.71564 323.5125 529.2469 324.52814Q528.79376 325.54376 527.91876 326.09064Q527.0594 326.6375 526.09064 326.6375Q525.3875 326.6375 524.825 326.34064Q524.27814 326.04376 523.91876 325.59064L523.91876 329.6375L522.5125 329.6375ZM523.77814 322.34064Q523.77814 323.95 524.41876 324.71564Q525.075 325.48126 525.9969 325.48126Q526.9344 325.48126 527.60626 324.6844Q528.27814 323.8875 528.27814 322.23126Q528.27814 320.6375 527.6219 319.85626Q526.96564 319.0594 526.0594 319.0594Q525.16876 319.0594 524.46564 319.90314Q523.77814 320.7469 523.77814 322.34064ZM531.48126 326.45L531.48126 314.9969L532.8875 314.9969L532.8875 326.45L531.48126 326.45ZM534.98126 322.29376Q534.98126 319.9969 536.2625 318.8875Q537.34064 317.96564 538.8719 317.96564Q540.59064 317.96564 541.66876 319.09064Q542.7625 320.2 542.7625 322.1844Q542.7625 323.77814 542.27814 324.7Q541.79376 325.6219 540.8719 326.1375Q539.96564 326.6375 538.8719 326.6375Q537.1375 326.6375 536.0594 325.52814Q534.98126 324.40314 534.98126 322.29376ZM536.4344 322.29376Q536.4344 323.8875 537.1219 324.6844Q537.825 325.48126 538.8719 325.48126Q539.91876 325.48126 540.60626 324.6844Q541.3094 323.8875 541.3094 322.2469Q541.3094 320.71564 540.60626 319.91876Q539.91876 319.1219 538.8719 319.1219Q537.825 319.1219 537.1219 319.91876Q536.4344 320.7 536.4344 322.29376ZM544.5125 326.45L544.5125 318.15314L545.7625 318.15314L545.7625 319.3094Q546.15314 318.7 546.79376 318.34064Q547.45 317.96564 548.27814 317.96564Q549.2 317.96564 549.79376 318.35626Q550.3875 318.73126 550.6219 319.41876Q551.60626 317.96564 553.1844 317.96564Q554.41876 317.96564 555.075 318.65314Q555.7469 319.325 555.7469 320.7469L555.7469 326.45L554.35626 326.45L554.35626 321.21564Q554.35626 320.3719 554.21564 320.0125Q554.075 319.6375 553.71564 319.41876Q553.35626 319.1844 552.8719 319.1844Q551.9969 319.1844 551.41876 319.7625Q550.84064 320.34064 550.84064 321.6219L550.84064 326.45L549.4344 326.45L549.4344 321.0594Q549.4344 320.1219 549.09064 319.65314Q548.7469 319.1844 547.96564 319.1844Q547.3719 319.1844 546.8719 319.4969Q546.3719 319.8094 546.1375 320.41876Q545.91876 321.0125 545.91876 322.1375L545.91876 326.45L544.5125 326.45ZM562.91876 325.41876Q562.1375 326.09064 561.41876 326.3719Q560.7 326.6375 559.8719 326.6375Q558.4969 326.6375 557.7625 325.96564Q557.02814 325.29376 557.02814 324.2625Q557.02814 323.65314 557.3094 323.15314Q557.59064 322.6375 558.02814 322.34064Q558.48126 322.02814 559.04376 321.8719Q559.46564 321.7625 560.29376 321.66876Q561.9969 321.46564 562.8094 321.1844Q562.8094 320.8875 562.8094 320.8094Q562.8094 319.95 562.41876 319.60626Q561.8719 319.1219 560.8094 319.1219Q559.825 319.1219 559.34064 319.48126Q558.8719 319.825 558.65314 320.7L557.27814 320.5125Q557.46564 319.6375 557.8875 319.09064Q558.325 318.54376 559.1375 318.2625Q559.95 317.96564 561.0125 317.96564Q562.075 317.96564 562.73126 318.21564Q563.40314 318.46564 563.71564 318.84064Q564.02814 319.21564 564.15314 319.79376Q564.23126 320.15314 564.23126 321.09064L564.23126 322.96564Q564.23126 324.9344 564.3094 325.45Q564.40314 325.96564 564.66876 326.45L563.2 326.45Q562.98126 326.0125 562.91876 325.41876ZM562.8094 322.27814Q562.04376 322.59064 560.5125 322.8094Q559.6375 322.9344 559.27814 323.09064Q558.91876 323.2469 558.71564 323.5594Q558.52814 323.85626 558.52814 324.21564Q558.52814 324.77814 558.95 325.15314Q559.3875 325.52814 560.2 325.52814Q561.0125 325.52814 561.6375 325.1844Q562.27814 324.825 562.575 324.2Q562.8094 323.73126 562.8094 322.79376L562.8094 322.27814ZM569.575 325.1844L569.77814 326.4344Q569.1844 326.5594 568.71564 326.5594Q567.95 326.5594 567.52814 326.325Q567.10626 326.075 566.9344 325.6844Q566.7625 325.27814 566.7625 324.0125L566.7625 319.2469L565.73126 319.2469L565.73126 318.15314L566.7625 318.15314L566.7625 316.09064L568.16876 315.2469L568.16876 318.15314L569.575 318.15314L569.575 319.2469L568.16876 319.2469L568.16876 324.09064Q568.16876 324.7 568.23126 324.8719Q568.3094 325.04376 568.48126 325.15314Q568.65314 325.2469 568.96564 325.2469Q569.2 325.2469 569.575 325.1844ZM570.5125 316.60626L570.5125 314.9969L571.91876 314.9969L571.91876 316.60626L570.5125 316.60626ZM570.5125 326.45L570.5125 318.15314L571.91876 318.15314L571.91876 326.45L570.5125 326.45ZM579.91876 323.40314L581.3094 323.59064Q581.075 325.0125 580.1375 325.825Q579.21564 326.6375 577.85626 326.6375Q576.15314 326.6375 575.10626 325.52814Q574.075 324.40314 574.075 322.325Q574.075 320.98126 574.5125 319.98126Q574.96564 318.96564 575.8719 318.46564Q576.79376 317.96564 577.85626 317.96564Q579.21564 317.96564 580.075 318.65314Q580.9344 319.325 581.16876 320.59064L579.8094 320.79376Q579.60626 319.96564 579.10626 319.54376Q578.6219 319.1219 577.91876 319.1219Q576.85626 319.1219 576.1844 319.8875Q575.52814 320.6375 575.52814 322.29376Q575.52814 323.96564 576.16876 324.73126Q576.8094 325.48126 577.84064 325.48126Q578.66876 325.48126 579.21564 324.98126Q579.77814 324.46564 579.91876 323.40314Z" fill-rule="nonzero"/><path fill="#9e9e9e" d="M542.41876 348.45L541.0125 348.45L541.0125 339.48126Q540.4969 339.96564 539.66876 340.45Q538.85626 340.9344 538.2 341.1844L538.2 339.825Q539.3719 339.2625 540.2469 338.48126Q541.1375 337.6844 541.5125 336.95L542.41876 336.95L542.41876 348.45ZM550.6219 348.45L550.6219 345.7L545.65314 345.7L545.65314 344.41876L550.8875 336.9969L552.02814 336.9969L552.02814 344.41876L553.575 344.41876L553.575 345.7L552.02814 345.7L552.02814 348.45L550.6219 348.45ZM550.6219 344.41876L550.6219 339.2469L547.04376 344.41876L550.6219 344.41876ZM555.90314 348.45L555.90314 346.84064L557.5125 346.84064L557.5125 348.45L555.90314 348.45ZM559.1219 345.41876L560.52814 345.23126Q560.77814 346.4344 561.35626 346.96564Q561.9344 347.48126 562.77814 347.48126Q563.7625 347.48126 564.45 346.79376Q565.1375 346.10626 565.1375 345.09064Q565.1375 344.1219 564.4969 343.4969Q563.8719 342.8719 562.8875 342.8719Q562.4969 342.8719 561.90314 343.02814L562.0594 341.79376Q562.2 341.8094 562.27814 341.8094Q563.1844 341.8094 563.90314 341.34064Q564.6219 340.8719 564.6219 339.8875Q564.6219 339.1219 564.09064 338.6219Q563.575 338.10626 562.7469 338.10626Q561.91876 338.10626 561.3719 338.6219Q560.825 339.1375 560.66876 340.16876L559.2625 339.91876Q559.52814 338.4969 560.4344 337.73126Q561.35626 336.95 562.71564 336.95Q563.65314 336.95 564.4344 337.35626Q565.23126 337.7469 565.6375 338.45Q566.0594 339.1375 566.0594 339.91876Q566.0594 340.66876 565.65314 341.27814Q565.2625 341.8875 564.48126 342.2469Q565.4969 342.48126 566.0594 343.21564Q566.6219 343.95 566.6219 345.0594Q566.6219 346.5594 565.52814 347.60626Q564.4344 348.65314 562.7625 348.65314Q561.2625 348.65314 560.2625 347.7625Q559.2625 346.85626 559.1219 345.41876ZM568.3875 339.7469Q568.3875 338.5125 568.9969 337.65314Q569.6219 336.79376 570.79376 336.79376Q571.8719 336.79376 572.575 337.575Q573.27814 338.34064 573.27814 339.825Q573.27814 341.27814 572.5594 342.075Q571.85626 342.85626 570.8094 342.85626Q569.7625 342.85626 569.075 342.09064Q568.3875 341.3094 568.3875 339.7469ZM570.825 337.7625Q570.3094 337.7625 569.95 338.21564Q569.60626 338.66876 569.60626 339.8875Q569.60626 340.98126 569.95 341.4344Q570.3094 341.8875 570.825 341.8875Q571.35626 341.8875 571.7 341.4344Q572.0594 340.98126 572.0594 339.77814Q572.0594 338.66876 571.7 338.21564Q571.35626 337.7625 570.825 337.7625ZM570.84064 348.8719L577.10626 336.79376L578.2469 336.79376L571.9969 348.8719L570.84064 348.8719ZM575.79376 345.7625Q575.79376 344.52814 576.40314 343.66876Q577.02814 342.8094 578.2 342.8094Q579.27814 342.8094 579.98126 343.59064Q580.7 344.35626 580.7 345.84064Q580.7 347.29376 579.98126 348.09064Q579.2625 348.8719 578.21564 348.8719Q577.16876 348.8719 576.48126 348.09064Q575.79376 347.3094 575.79376 345.7625ZM578.2469 343.77814Q577.71564 343.77814 577.35626 344.23126Q577.0125 344.6844 577.0125 345.90314Q577.0125 346.9969 577.35626 347.45Q577.71564 347.90314 578.23126 347.90314Q578.77814 347.90314 579.1219 347.45Q579.46564 346.9969 579.46564 345.79376Q579.46564 344.6844 579.10626 344.23126Q578.7625 343.77814 578.2469 343.77814Z" fill-rule="nonzero"/><path stroke="#757575" stroke-width="1.0" stroke-linecap="butt" d="M581.45 331.95L454.76666 331.95L300.0 345.01166" fill-rule="nonzero"/><path fill="#9e9e9e" d="M302.0 345.01166C302.0 343.9071 301.10458 343.01166 300.0 343.01166C298.89542 343.01166 298.0 343.9071 298.0 345.01166C298.0 346.11624 298.89542 347.01166 300.0 347.01166C301.10458 347.01166 302.0 346.11624 302.0 345.01166" fill-rule="nonzero"/><path fill="#f3f3f3" d="M271.26562 32.534374L273.15625 33.003124Q272.5625 35.346874 271.01562 36.58125Q269.46875 37.8 267.21875 37.8Q264.90625 37.8 263.45312 36.8625Q262.01562 35.909374 261.25 34.128124Q260.5 32.33125 260.5 30.284374Q260.5 28.05 261.34375 26.39375Q262.20312 24.721874 263.78125 23.8625Q265.35938 22.9875 267.25 22.9875Q269.40625 22.9875 270.85938 24.08125Q272.32812 25.175 272.90625 27.159374L271.04688 27.596874Q270.54688 26.034374 269.59375 25.33125Q268.65625 24.6125 267.21875 24.6125Q265.5625 24.6125 264.45312 25.409374Q263.34375 26.190624 262.89062 27.534374Q262.45312 28.8625 262.45312 30.26875Q262.45312 32.096874 262.98438 33.471874Q263.51562 34.83125 264.64062 35.503124Q265.76562 36.175 267.0625 36.175Q268.65625 36.175 269.76562 35.253124Q270.875 34.33125 271.26562 32.534374ZM281.59375 36.26875Q280.60938 37.096874 279.70312 37.440624Q278.79688 37.784374 277.76562 37.784374Q276.0625 37.784374 275.14062 36.95625Q274.21875 36.1125 274.21875 34.815624Q274.21875 34.05 274.5625 33.425Q274.92188 32.8 275.48438 32.425Q276.04688 32.034374 276.75 31.83125Q277.26562 31.70625 278.3125 31.565624Q280.4375 31.315624 281.4375 30.971874Q281.45312 30.6125 281.45312 30.503124Q281.45312 29.440624 280.95312 28.9875Q280.28125 28.39375 278.95312 28.39375Q277.70312 28.39375 277.10938 28.83125Q276.53125 29.26875 276.25 30.378124L274.53125 30.14375Q274.76562 29.034374 275.29688 28.3625Q275.82812 27.675 276.84375 27.315624Q277.85938 26.940624 279.20312 26.940624Q280.53125 26.940624 281.35938 27.253124Q282.1875 27.565624 282.57812 28.05Q282.96875 28.51875 283.125 29.2375Q283.21875 29.690624 283.21875 30.8625L283.21875 33.20625Q283.21875 35.659374 283.32812 36.315624Q283.4375 36.95625 283.78125 37.55L281.9375 37.55Q281.67188 37.003124 281.59375 36.26875ZM281.4375 32.346874Q280.48438 32.7375 278.5625 33.003124Q277.48438 33.159374 277.03125 33.3625Q276.59375 33.55 276.34375 33.925Q276.09375 34.3 276.09375 34.76875Q276.09375 35.471874 276.625 35.940624Q277.15625 36.409374 278.1875 36.409374Q279.20312 36.409374 279.98438 35.971874Q280.78125 35.51875 281.15625 34.753124Q281.4375 34.14375 281.4375 32.9875L281.4375 32.346874ZM289.65625 35.971874L289.90625 37.534374Q289.17188 37.690624 288.57812 37.690624Q287.625 37.690624 287.09375 37.39375Q286.57812 37.08125 286.35938 36.596874Q286.14062 36.096874 286.14062 34.51875L286.14062 28.55L284.85938 28.55L284.85938 27.175L286.14062 27.175L286.14062 24.6125L287.89062 23.55L287.89062 27.175L289.65625 27.175L289.65625 28.55L287.89062 28.55L287.89062 34.6125Q287.89062 35.3625 287.98438 35.58125Q288.07812 35.784374 288.28125 35.925Q288.5 36.05 288.89062 36.05Q289.17188 36.05 289.65625 35.971874ZM298.92188 34.20625L300.73438 34.440624Q300.3125 36.01875 299.14062 36.909374Q297.98438 37.784374 296.17188 37.784374Q293.90625 37.784374 292.5625 36.39375Q291.23438 34.9875 291.23438 32.45625Q291.23438 29.83125 292.57812 28.39375Q293.92188 26.940624 296.07812 26.940624Q298.15625 26.940624 299.46875 28.3625Q300.79688 29.76875 300.79688 32.346874Q300.79688 32.503124 300.78125 32.815624L293.04688 32.815624Q293.14062 34.51875 294.01562 35.425Q294.89062 36.33125 296.1875 36.33125Q297.15625 36.33125 297.82812 35.83125Q298.51562 35.315624 298.92188 34.20625ZM293.14062 31.3625L298.9375 31.3625Q298.82812 30.065624 298.28125 29.409374Q297.4375 28.39375 296.09375 28.39375Q294.89062 28.39375 294.0625 29.20625Q293.23438 30.003124 293.14062 31.3625ZM302.5 38.409374L304.20312 38.659374Q304.3125 39.45625 304.79688 39.815624Q305.45312 40.3 306.59375 40.3Q307.8125 40.3 308.46875 39.815624Q309.14062 39.33125 309.375 38.45625Q309.51562 37.909374 309.5 36.190624Q308.34375 37.55 306.625 37.55Q304.48438 37.55 303.3125 36.003124Q302.14062 34.45625 302.14062 32.3Q302.14062 30.815624 302.67188 29.565624Q303.21875 28.315624 304.23438 27.628124Q305.26562 26.940624 306.64062 26.940624Q308.46875 26.940624 309.67188 28.425L309.67188 27.175L311.28125 27.175L311.28125 36.14375Q311.28125 38.565624 310.78125 39.565624Q310.29688 40.58125 309.21875 41.159374Q308.15625 41.753124 306.59375 41.753124Q304.75 41.753124 303.59375 40.925Q302.45312 40.096874 302.5 38.409374ZM303.95312 32.175Q303.95312 34.221874 304.76562 35.159374Q305.57812 36.096874 306.79688 36.096874Q308.0 36.096874 308.8125 35.159374Q309.64062 34.221874 309.64062 32.2375Q309.64062 30.33125 308.79688 29.3625Q307.95312 28.39375 306.76562 28.39375Q305.59375 28.39375 304.76562 29.346874Q303.95312 30.3 303.95312 32.175ZM313.17188 32.3625Q313.17188 29.4875 314.76562 28.096874Q316.10938 26.940624 318.03125 26.940624Q320.17188 26.940624 321.51562 28.346874Q322.875 29.753124 322.875 32.221874Q322.875 34.221874 322.28125 35.378124Q321.6875 36.51875 320.53125 37.159374Q319.39062 37.784374 318.03125 37.784374Q315.84375 37.784374 314.5 36.39375Q313.17188 34.9875 313.17188 32.3625ZM314.96875 32.3625Q314.96875 34.3625 315.82812 35.346874Q316.70312 36.33125 318.03125 36.33125Q319.34375 36.33125 320.20312 35.346874Q321.07812 34.346874 321.07812 32.3Q321.07812 30.378124 320.20312 29.39375Q319.32812 28.39375 318.03125 28.39375Q316.70312 28.39375 315.82812 29.39375Q314.96875 30.378124 314.96875 32.3625ZM324.79688 37.55L324.79688 27.175L326.375 27.175L326.375 28.753124Q326.98438 27.64375 327.5 27.3Q328.01562 26.940624 328.625 26.940624Q329.51562 26.940624 330.4375 27.503124L329.82812 29.14375Q329.1875 28.753124 328.54688 28.753124Q327.96875 28.753124 327.5 29.1125Q327.04688 29.45625 326.84375 30.065624Q326.5625 31.003124 326.5625 32.1125L326.5625 37.55L324.79688 37.55ZM331.73438 41.55L331.54688 39.89375Q332.125 40.05 332.54688 40.05Q333.14062 40.05 333.48438 39.846874Q333.84375 39.659374 334.0625 39.315624Q334.23438 39.05 334.60938 38.003124Q334.65625 37.846874 334.76562 37.565624L330.82812 27.175L332.71875 27.175L334.875 33.190624Q335.29688 34.33125 335.625 35.58125Q335.9375 34.378124 336.34375 33.221874L338.5625 27.175L340.32812 27.175L336.375 37.721874Q335.75 39.440624 335.39062 40.08125Q334.92188 40.95625 334.3125 41.346874Q333.71875 41.753124 332.875 41.753124Q332.35938 41.753124 331.73438 41.55Z" fill-rule="nonzero"/></svg>