<svg version="1.1" viewBox="0.0 0.0 600.0 371.0" fill="none" stroke="none" stroke-linecap="square" stroke-miterlimit="10" width="600" height="371" xmlns:xlink="http://www.w3.org/1999/xlink" xmlns="http://www.w3.org/2000/svg"><path fill="#ffffff" fill-opacity="0.0" d="M0 0L600.0 0L600.0 371.0L0 371.0L0 0Z" fill-rule="nonzero"/><path fill="#304388" d="M300.0 54.916668C312.47946 54.916668 324.90936 56.486927 336.99677 59.590446L309.2492 167.66011C306.22733 166.88423 303.11987 166.49167 300.0 166.49167Z" fill-rule="nonzero"/><path fill="#533990" d="M336.99677 59.590446C349.08417 62.693962 360.73303 67.306076 371.66888 73.31811L317.91724 171.09203C315.18326 169.58902 312.27106 168.43599 309.2492 167.66011Z" fill-rule="nonzero"/><path fill="#e5a345" d="M263.00323 59.590446C275.09064 56.486927 287.52054 54.916668 300.0 54.916668L300.0 166.49167C296.88013 166.49167 293.77267 166.88423 290.7508 167.66011Z" fill-rule="nonzero"/><path fill="#df8d43" d="M228.33112 73.31811C239.26695 67.306076 250.91583 62.693962 263.00323 59.590446L290.7508 167.66011C287.72894 168.43599 284.81674 169.58902 282.08276 171.09203Z" fill-rule="nonzero"/><path fill="#d8753e" d="M198.16222 95.2371C207.25935 86.69431 217.39526 79.33014 228.33112 73.31811L282.08276 171.09203C279.34882 172.59503 276.81485 174.43608 274.54056 176.57178Z" fill-rule="nonzero"/><path fill="#cf4366" d="M371.66888 73.31811C428.1465 104.36695 458.20825 168.25137 446.1316 231.55943C434.05493 294.86746 382.58682 343.19925 318.64542 351.27692C254.70398 359.3546 192.8332 325.34085 165.39189 267.0251C137.95058 208.70934 151.18045 139.35591 198.16222 95.2371L274.54056 176.57178C262.7951 187.60147 259.48764 204.93983 266.34796 219.51877C273.2083 234.09772 288.676 242.60115 304.66135 240.58173C320.6467 238.56232 333.51373 226.47937 336.5329 210.65236C339.55206 194.82535 332.03662 178.85423 317.91724 171.09203Z" fill-rule="nonzero"/><path fill="#ffffff" d="M291.96124 316.18723Q290.97687 315.82785 290.4925 315.15598Q290.02374 314.4841 290.02374 313.56223Q290.02374 312.15598 291.02374 311.20285Q292.03937 310.2341 293.72687 310.2341Q295.41437 310.2341 296.43 311.21848Q297.46124 312.18723 297.46124 313.59348Q297.46124 314.49973 296.9925 315.1716Q296.52374 315.82785 295.57062 316.18723Q296.75812 316.57785 297.3675 317.43723Q297.9925 318.2966 297.9925 319.4841Q297.9925 321.14035 296.82062 322.26535Q295.64874 323.39035 293.7425 323.39035Q291.83624 323.39035 290.66437 322.26535Q289.50812 321.12473 289.50812 319.43723Q289.50812 318.18723 290.13312 317.34348Q290.77374 316.4841 291.96124 316.18723ZM291.63312 313.49973Q291.63312 314.4216 292.22687 314.99973Q292.82062 315.57785 293.75812 315.57785Q294.66437 315.57785 295.2425 314.99973Q295.83624 314.4216 295.83624 313.59348Q295.83624 312.71848 295.22687 312.12473Q294.63312 311.53098 293.7425 311.53098Q292.83624 311.53098 292.22687 312.1091Q291.63312 312.68723 291.63312 313.49973ZM291.13312 319.45285Q291.13312 320.12473 291.44562 320.76535Q291.77374 321.39035 292.39874 321.74973Q293.03937 322.09348 293.77374 322.09348Q294.89874 322.09348 295.63312 321.3591Q296.38312 320.62473 296.38312 319.49973Q296.38312 318.3591 295.6175 317.62473Q294.85187 316.87473 293.71124 316.87473Q292.60187 316.87473 291.8675 317.6091Q291.13312 318.34348 291.13312 319.45285ZM299.52374 316.81223Q299.52374 314.53098 299.9925 313.14035Q300.46124 311.74973 301.38312 310.99973Q302.32062 310.2341 303.72687 310.2341Q304.75812 310.2341 305.53937 310.65598Q306.32062 311.06223 306.82062 311.8591Q307.33624 312.64035 307.63312 313.78098Q307.93 314.90598 307.93 316.81223Q307.93 319.07785 307.46124 320.4841Q306.9925 321.87473 306.055 322.64035Q305.13312 323.39035 303.72687 323.39035Q301.85187 323.39035 300.78937 322.06223Q299.52374 320.45285 299.52374 316.81223ZM301.14874 316.81223Q301.14874 319.9841 301.88312 321.0466Q302.63312 322.09348 303.72687 322.09348Q304.805 322.09348 305.555 321.0466Q306.305 319.9841 306.305 316.81223Q306.305 313.64035 305.555 312.59348Q304.805 311.5466 303.71124 311.5466Q302.6175 311.5466 301.96124 312.46848Q301.14874 313.64035 301.14874 316.81223ZM310.41437 323.1716L310.41437 321.37473L312.21124 321.37473L312.21124 323.1716L310.41437 323.1716ZM314.52374 316.81223Q314.52374 314.53098 314.9925 313.14035Q315.46124 311.74973 316.38312 310.99973Q317.32062 310.2341 318.72687 310.2341Q319.75812 310.2341 320.53937 310.65598Q321.32062 311.06223 321.82062 311.8591Q322.33624 312.64035 322.63312 313.78098Q322.93 314.90598 322.93 316.81223Q322.93 319.07785 322.46124 320.4841Q321.9925 321.87473 321.055 322.64035Q320.13312 323.39035 318.72687 323.39035Q316.85187 323.39035 315.78937 322.06223Q314.52374 320.45285 314.52374 316.81223ZM316.14874 316.81223Q316.14874 319.9841 316.88312 321.0466Q317.63312 322.09348 318.72687 322.09348Q319.805 322.09348 320.555 321.0466Q321.305 319.9841 321.305 316.81223Q321.305 313.64035 320.555 312.59348Q319.805 311.5466 318.71124 311.5466Q317.6175 311.5466 316.96124 312.46848Q316.14874 313.64035 316.14874 316.81223ZM324.82062 313.37473Q324.82062 311.99973 325.50812 311.03098Q326.21124 310.06223 327.52374 310.06223Q328.7425 310.06223 329.53937 310.93723Q330.33624 311.7966 330.33624 313.4841Q330.33624 315.1091 329.52374 315.99973Q328.72687 316.87473 327.53937 316.87473Q326.38312 316.87473 325.60187 316.01535Q324.82062 315.14035 324.82062 313.37473ZM327.57062 311.15598Q326.97687 311.15598 326.58624 311.6716Q326.19562 312.1716 326.19562 313.53098Q326.19562 314.78098 326.58624 315.28098Q326.9925 315.78098 327.57062 315.78098Q328.16437 315.78098 328.555 315.28098Q328.94562 314.76535 328.94562 313.4216Q328.94562 312.1716 328.555 311.6716Q328.16437 311.15598 327.57062 311.15598ZM327.58624 323.64035L334.63312 310.06223L335.91437 310.06223L328.88312 323.64035L327.58624 323.64035ZM333.14874 320.14035Q333.14874 318.76535 333.83624 317.7966Q334.53937 316.82785 335.8675 316.82785Q337.08624 316.82785 337.8675 317.70285Q338.66437 318.56223 338.66437 320.24973Q338.66437 321.87473 337.8675 322.76535Q337.07062 323.64035 335.88312 323.64035Q334.71124 323.64035 333.93 322.76535Q333.14874 321.89035 333.14874 320.14035ZM335.91437 317.9216Q335.32062 317.9216 334.93 318.43723Q334.53937 318.93723 334.53937 320.31223Q334.53937 321.53098 334.93 322.0466Q335.32062 322.56223 335.89874 322.56223Q336.50812 322.56223 336.89874 322.0466Q337.28937 321.53098 337.28937 320.18723Q337.28937 318.93723 336.89874 318.43723Q336.50812 317.9216 335.91437 317.9216Z" fill-rule="nonzero"/><path stroke="#ffffff" stroke-width="1.0" stroke-linejoin="round" stroke-linecap="round" d="M309.2492 167.66011C306.22733 166.88423 303.11987 166.49167 300.0 166.49167L300.0 54.916668C312.47946 54.916668 324.90936 56.486927 336.99677 59.590446" fill-rule="nonzero"/><path stroke="#ffffff" stroke-width="1.0" stroke-linejoin="round" stroke-linecap="round" d="M317.91724 171.09203C315.18326 169.58902 312.27106 168.43599 309.2492 167.66011L336.99677 59.590446C349.08417 62.693962 360.73303 67.306076 371.66888 73.31811" fill-rule="nonzero"/><path stroke="#ffffff" stroke-width="1.0" stroke-linejoin="round" stroke-linecap="round" d="M274.54056 176.57178C262.7951 187.60147 259.48764 204.93983 266.34796 219.51877C273.2083 234.09772 288.676 242.60115 304.66135 240.58173C320.6467 238.56232 333.51373 226.47937 336.5329 210.65236C339.55206 194.82535 332.03662 178.85423 317.91724 171.09203L371.66888 73.31811C428.1465 104.36695 458.20825 168.25137 446.1316 231.55943C434.05493 294.86746 382.58682 343.19925 318.64542 351.27692C254.70398 359.3546 192.8332 325.34085 165.39189 267.0251C137.95058 208.70934 151.18045 139.35591 198.16222 95.2371" fill-rule="nonzero"/><path stroke="#ffffff" stroke-width="1.0" stroke-linejoin="round" stroke-linecap="round" d="M282.08276 171.09203C279.34882 172.59503 276.81485 174.43608 274.54056 176.57178L198.16222 95.2371C207.25935 86.69431 217.39526 79.33014 228.33112 73.31811" fill-rule="nonzero"/><path stroke="#ffffff" stroke-width="1.0" stroke-linejoin="round" stroke-linecap="round" d="M290.7508 167.66011C287.72894 168.43599 284.81674 169.58902 282.08276 171.09203L228.33112 73.31811C239.26695 67.306076 250.91583 62.693962 263.00323 59.590446" fill-rule="nonzero"/><path stroke="#ffffff" stroke-width="1.0" stroke-linejoin="round" stroke-linecap="round" d="M300.0 166.49167C296.88013 166.49167 293.77267 166.88423 290.7508 167.66011L263.00323 59.590446C275.09064 56.486927 287.52054 54.916668 300.0 54.916668" fill-rule="nonzero"/><path fill="#efefef" d="M27.3 58.46354L28.815624 58.46354L28.815624 65.072914Q28.815624 66.80729 28.425 67.822914Q28.034374 68.83854 27.01875 69.479164Q26.003124 70.11979 24.346874 70.11979Q22.7375 70.11979 21.70625 69.55729Q20.690624 68.99479 20.253124 67.947914Q19.815624 66.90104 19.815624 65.072914L19.815624 58.46354L21.33125 58.46354L21.33125 65.072914Q21.33125 66.55729 21.596874 67.27604Q21.878124 67.979164 22.55 68.36979Q23.2375 68.74479 24.20625 68.74479Q25.878124 68.74479 26.58125 67.99479Q27.3 67.229164 27.3 65.072914L27.3 58.46354ZM31.596874 69.916664L31.596874 61.61979L32.8625 61.61979L32.8625 62.86979Q33.346874 61.99479 33.753124 61.71354Q34.159374 61.43229 34.659374 61.43229Q35.3625 61.43229 36.096874 61.885414L35.6125 63.18229Q35.096874 62.885414 34.58125 62.885414Q34.128124 62.885414 33.753124 63.166664Q33.39375 63.43229 33.2375 63.93229Q33.003124 64.68229 33.003124 65.572914L33.003124 69.916664L31.596874 69.916664ZM37.909374 69.916664L36.596874 69.916664L36.596874 58.46354L38.003124 58.46354L38.003124 62.541664Q38.89375 61.43229 40.284374 61.43229Q41.05 61.43229 41.721874 61.74479Q42.409374 62.041664 42.846874 62.604164Q43.3 63.166664 43.55 63.96354Q43.8 64.74479 43.8 65.635414Q43.8 67.77604 42.7375 68.947914Q41.690624 70.104164 40.20625 70.104164Q38.7375 70.104164 37.909374 68.86979L37.909374 69.916664ZM37.89375 65.697914Q37.89375 67.197914 38.3 67.854164Q38.95625 68.947914 40.096874 68.947914Q41.01875 68.947914 41.690624 68.15104Q42.3625 67.33854 42.3625 65.760414Q42.3625 64.135414 41.70625 63.36979Q41.065624 62.58854 40.159374 62.58854Q39.2375 62.58854 38.565624 63.385414Q37.89375 64.18229 37.89375 65.697914ZM51.01875 68.885414Q50.2375 69.55729 49.51875 69.83854Q48.8 70.104164 47.971874 70.104164Q46.596874 70.104164 45.8625 69.43229Q45.128124 68.760414 45.128124 67.729164Q45.128124 67.11979 45.409374 66.61979Q45.690624 66.104164 46.128124 65.80729Q46.58125 65.49479 47.14375 65.33854Q47.565624 65.229164 48.39375 65.135414Q50.096874 64.93229 50.909374 64.65104Q50.909374 64.354164 50.909374 64.27604Q50.909374 63.416664 50.51875 63.072914Q49.971874 62.58854 48.909374 62.58854Q47.925 62.58854 47.440624 62.947914Q46.971874 63.291664 46.753124 64.166664L45.378124 63.979164Q45.565624 63.104164 45.9875 62.55729Q46.425 62.010414 47.2375 61.729164Q48.05 61.43229 49.1125 61.43229Q50.175 61.43229 50.83125 61.68229Q51.503124 61.93229 51.815624 62.30729Q52.128124 62.68229 52.253124 63.260414Q52.33125 63.61979 52.33125 64.55729L52.33125 66.43229Q52.33125 68.40104 52.409374 68.916664Q52.503124 69.43229 52.76875 69.916664L51.3 69.916664Q51.08125 69.479164 51.01875 68.885414ZM50.909374 65.74479Q50.14375 66.05729 48.6125 66.27604Q47.7375 66.40104 47.378124 66.55729Q47.01875 66.71354 46.815624 67.02604Q46.628124 67.322914 46.628124 67.68229Q46.628124 68.24479 47.05 68.61979Q47.4875 68.99479 48.3 68.99479Q49.1125 68.99479 49.7375 68.65104Q50.378124 68.291664 50.675 67.666664Q50.909374 67.197914 50.909374 66.260414L50.909374 65.74479ZM54.6125 69.916664L54.6125 61.61979L55.878124 61.61979L55.878124 62.791664Q56.784374 61.43229 58.51875 61.43229Q59.26875 61.43229 59.89375 61.697914Q60.51875 61.96354 60.83125 62.40104Q61.14375 62.83854 61.26875 63.447914Q61.346874 63.83854 61.346874 64.80729L61.346874 69.916664L59.940624 69.916664L59.940624 64.86979Q59.940624 64.010414 59.76875 63.58854Q59.6125 63.15104 59.190624 62.90104Q58.784374 62.65104 58.221874 62.65104Q57.315624 62.65104 56.659374 63.229164Q56.01875 63.791664 56.01875 65.385414L56.01875 69.916664L54.6125 69.916664ZM63.05 67.43229L64.44063 67.21354Q64.55 68.05729 65.08125 68.510414Q65.62813 68.947914 66.58125 68.947914Q67.55 68.947914 68.01875 68.55729Q68.4875 68.15104 68.4875 67.61979Q68.4875 67.15104 68.08125 66.86979Q67.78438 66.68229 66.64375 66.40104Q65.09688 66.010414 64.4875 65.729164Q63.89375 65.43229 63.58125 64.93229Q63.284374 64.43229 63.284374 63.822914Q63.284374 63.260414 63.534374 62.791664Q63.784374 62.322914 64.22188 62.010414Q64.55 61.760414 65.1125 61.604164Q65.69063 61.43229 66.33125 61.43229Q67.31563 61.43229 68.05 61.71354Q68.78438 61.99479 69.12813 62.479164Q69.4875 62.947914 69.62813 63.760414L68.25313 63.947914Q68.15938 63.30729 67.70625 62.947914Q67.25313 62.58854 66.44063 62.58854Q65.47188 62.58854 65.05 62.916664Q64.64375 63.229164 64.64375 63.65104Q64.64375 63.93229 64.81563 64.15104Q64.9875 64.36979 65.34688 64.52604Q65.56563 64.604164 66.59688 64.885414Q68.08125 65.27604 68.675 65.541664Q69.26875 65.791664 69.59688 66.27604Q69.94063 66.760414 69.94063 67.479164Q69.94063 68.18229 69.51875 68.80729Q69.1125 69.416664 68.33125 69.760414Q67.56563 70.104164 66.59688 70.104164Q64.97188 70.104164 64.12813 69.43229Q63.284374 68.760414 63.05 67.43229ZM77.01875 66.86979L78.40938 67.05729Q78.175 68.479164 77.2375 69.291664Q76.31563 70.104164 74.95625 70.104164Q73.25313 70.104164 72.20625 68.99479Q71.175 67.86979 71.175 65.791664Q71.175 64.447914 71.6125 63.447914Q72.06563 62.43229 72.97188 61.93229Q73.89375 61.43229 74.95625 61.43229Q76.31563 61.43229 77.175 62.11979Q78.03438 62.791664 78.26875 64.05729L76.90938 64.260414Q76.70625 63.43229 76.20625 63.010414Q75.72188 62.58854 75.01875 62.58854Q73.95625 62.58854 73.28438 63.354164Q72.62813 64.104164 72.62813 65.760414Q72.62813 67.43229 73.26875 68.197914Q73.90938 68.947914 74.94063 68.947914Q75.76875 68.947914 76.31563 68.447914Q76.87813 67.93229 77.01875 66.86979ZM85.01875 68.885414Q84.2375 69.55729 83.51875 69.83854Q82.8 70.104164 81.97188 70.104164Q80.59688 70.104164 79.8625 69.43229Q79.12813 68.760414 79.12813 67.729164Q79.12813 67.11979 79.40938 66.61979Q79.69063 66.104164 80.12813 65.80729Q80.58125 65.49479 81.14375 65.33854Q81.56563 65.229164 82.39375 65.135414Q84.09688 64.93229 84.90938 64.65104Q84.90938 64.354164 84.90938 64.27604Q84.90938 63.416664 84.51875 63.072914Q83.97188 62.58854 82.90938 62.58854Q81.925 62.58854 81.44063 62.947914Q80.97188 63.291664 80.75313 64.166664L79.37813 63.979164Q79.56563 63.104164 79.9875 62.55729Q80.425 62.010414 81.2375 61.729164Q82.05 61.43229 83.1125 61.43229Q84.175 61.43229 84.83125 61.68229Q85.50313 61.93229 85.81563 62.30729Q86.12813 62.68229 86.25313 63.260414Q86.33125 63.61979 86.33125 64.55729L86.33125 66.43229Q86.33125 68.40104 86.40938 68.916664Q86.50313 69.43229 86.76875 69.916664L85.3 69.916664Q85.08125 69.479164 85.01875 68.885414ZM84.90938 65.74479Q84.14375 66.05729 82.6125 66.27604Q81.7375 66.40104 81.37813 66.55729Q81.01875 66.71354 80.81563 67.02604Q80.62813 67.322914 80.62813 67.68229Q80.62813 68.24479 81.05 68.61979Q81.4875 68.99479 82.3 68.99479Q83.1125 68.99479 83.7375 68.65104Q84.37813 68.291664 84.675 67.666664Q84.90938 67.197914 84.90938 66.260414L84.90938 65.74479ZM88.6125 73.104164L88.6125 61.61979L89.89375 61.61979L89.89375 62.697914Q90.34688 62.05729 90.90938 61.74479Q91.4875 61.43229 92.3 61.43229Q93.3625 61.43229 94.175 61.979164Q94.9875 62.52604 95.39375 63.52604Q95.81563 64.510414 95.81563 65.697914Q95.81563 66.979164 95.34688 67.99479Q94.89375 69.010414 94.01875 69.55729Q93.15938 70.104164 92.19063 70.104164Q91.4875 70.104164 90.925 69.80729Q90.37813 69.510414 90.01875 69.05729L90.01875 73.104164L88.6125 73.104164ZM89.87813 65.80729Q89.87813 67.416664 90.51875 68.18229Q91.175 68.947914 92.09688 68.947914Q93.03438 68.947914 93.70625 68.15104Q94.37813 67.354164 94.37813 65.697914Q94.37813 64.104164 93.72188 63.322914Q93.06563 62.52604 92.15938 62.52604Q91.26875 62.52604 90.56563 63.36979Q89.87813 64.21354 89.87813 65.80729ZM103.28438 67.24479L104.7375 67.416664Q104.39375 68.697914 103.45625 69.40104Q102.53438 70.104164 101.09688 70.104164Q99.26875 70.104164 98.20625 68.979164Q97.14375 67.854164 97.14375 65.83854Q97.14375 63.74479 98.22188 62.58854Q99.3 61.43229 101.01875 61.43229Q102.675 61.43229 103.72188 62.572914Q104.78438 63.697914 104.78438 65.74479Q104.78438 65.86979 104.78438 66.11979L98.59688 66.11979Q98.675 67.49479 99.3625 68.229164Q100.06563 68.947914 101.09688 68.947914Q101.87813 68.947914 102.425 68.541664Q102.97188 68.135414 103.28438 67.24479ZM98.675 64.96354L103.3 64.96354Q103.20625 63.916664 102.76875 63.40104Q102.09688 62.58854 101.03438 62.58854Q100.06563 62.58854 99.39375 63.24479Q98.7375 63.885414 98.675 64.96354Z" fill-rule="nonzero"/><path fill="#9e9e9e" d="M23.721874 91.916664L23.721874 89.166664L18.753124 89.166664L18.753124 87.885414L23.9875 80.46354L25.128124 80.46354L25.128124 87.885414L26.675 87.885414L26.675 89.166664L25.128124 89.166664L25.128124 91.916664L23.721874 91.916664ZM23.721874 87.885414L23.721874 82.71354L20.14375 87.885414L23.721874 87.885414ZM29.003124 91.916664L29.003124 90.30729L30.6125 90.30729L30.6125 91.916664L29.003124 91.916664ZM32.221874 86.260414Q32.221874 84.229164 32.628124 82.99479Q33.05 81.760414 33.878124 81.08854Q34.70625 80.416664 35.95625 80.416664Q36.878124 80.416664 37.565624 80.791664Q38.26875 81.15104 38.721874 81.854164Q39.175 82.55729 39.425 83.55729Q39.690624 84.55729 39.690624 86.260414Q39.690624 88.27604 39.26875 89.52604Q38.8625 90.760414 38.034374 91.447914Q37.20625 92.11979 35.95625 92.11979Q34.3 92.11979 33.346874 90.916664Q32.221874 89.49479 32.221874 86.260414ZM33.659374 86.260414Q33.659374 89.08854 34.315624 90.02604Q34.9875 90.947914 35.95625 90.947914Q36.925 90.947914 37.58125 90.010414Q38.2375 89.072914 38.2375 86.260414Q38.2375 83.43229 37.58125 82.510414Q36.925 81.572914 35.940624 81.572914Q34.971874 81.572914 34.39375 82.40104Q33.659374 83.447914 33.659374 86.260414ZM41.4875 83.21354Q41.4875 81.979164 42.096874 81.11979Q42.721874 80.260414 43.89375 80.260414Q44.971874 80.260414 45.675 81.041664Q46.378124 81.80729 46.378124 83.291664Q46.378124 84.74479 45.659374 85.541664Q44.95625 86.322914 43.909374 86.322914Q42.8625 86.322914 42.175 85.55729Q41.4875 84.77604 41.4875 83.21354ZM43.925 81.229164Q43.409374 81.229164 43.05 81.68229Q42.70625 82.135414 42.70625 83.354164Q42.70625 84.447914 43.05 84.90104Q43.409374 85.354164 43.925 85.354164Q44.45625 85.354164 44.8 84.90104Q45.159374 84.447914 45.159374 83.24479Q45.159374 82.135414 44.8 81.68229Q44.45625 81.229164 43.925 81.229164ZM43.940624 92.33854L50.20625 80.260414L51.346874 80.260414L45.096874 92.33854L43.940624 92.33854ZM48.89375 89.229164Q48.89375 87.99479 49.503124 87.135414Q50.128124 86.27604 51.3 86.27604Q52.378124 86.27604 53.08125 87.05729Q53.8 87.822914 53.8 89.30729Q53.8 90.760414 53.08125 91.55729Q52.3625 92.33854 51.315624 92.33854Q50.26875 92.33854 49.58125 91.55729Q48.89375 90.77604 48.89375 89.229164ZM51.346874 87.24479Q50.815624 87.24479 50.45625 87.697914Q50.1125 88.15104 50.1125 89.36979Q50.1125 90.46354 50.45625 90.916664Q50.815624 91.36979 51.33125 91.36979Q51.878124 91.36979 52.221874 90.916664Q52.565624 90.46354 52.565624 89.260414Q52.565624 88.15104 52.20625 87.697914Q51.8625 87.24479 51.346874 87.24479Z" fill-rule="nonzero"/><path stroke="#757575" stroke-width="1.0" stroke-linecap="butt" d="M18.55 75.416664L145.23334 75.416664L282.28687 63.469418" fill-rule="nonzero"/><path fill="#9e9e9e" d="M284.28687 63.469418C284.28687 62.364845 283.39142 61.469418 282.28687 61.469418C281.18228 61.469418 280.28687 62.364845 280.28687 63.469418C280.28687 64.57398 281.18228 65.46941 282.28687 65.46941C283.39142 65.46941 284.28687 64.57398 284.28687 63.469418" fill-rule="nonzero"/><path fill="#efefef" d="M19.76875 110.916664L19.76875 99.46354L21.33125 99.46354L27.346874 108.447914L27.346874 99.46354L28.8 99.46354L28.8 110.916664L27.2375 110.916664L21.221874 101.916664L21.221874 110.916664L19.76875 110.916664ZM37.01875 109.885414Q36.2375 110.55729 35.51875 110.83854Q34.8 111.104164 33.971874 111.104164Q32.596874 111.104164 31.8625 110.43229Q31.128124 109.760414 31.128124 108.729164Q31.128124 108.11979 31.409374 107.61979Q31.690624 107.104164 32.128124 106.80729Q32.58125 106.49479 33.14375 106.33854Q33.565624 106.229164 34.39375 106.135414Q36.096874 105.93229 36.909374 105.65104Q36.909374 105.354164 36.909374 105.27604Q36.909374 104.416664 36.51875 104.072914Q35.971874 103.58854 34.909374 103.58854Q33.925 103.58854 33.440624 103.947914Q32.971874 104.291664 32.753124 105.166664L31.378124 104.979164Q31.565624 104.104164 31.9875 103.55729Q32.425 103.010414 33.2375 102.729164Q34.05 102.43229 35.1125 102.43229Q36.175 102.43229 36.83125 102.68229Q37.503124 102.93229 37.815624 103.30729Q38.128124 103.68229 38.253124 104.260414Q38.33125 104.61979 38.33125 105.55729L38.33125 107.43229Q38.33125 109.40104 38.409374 109.916664Q38.503124 110.43229 38.76875 110.916664L37.3 110.916664Q37.08125 110.479164 37.01875 109.885414ZM36.909374 106.74479Q36.14375 107.05729 34.6125 107.27604Q33.7375 107.40104 33.378124 107.55729Q33.01875 107.71354 32.815624 108.02604Q32.628124 108.322914 32.628124 108.68229Q32.628124 109.24479 33.05 109.61979Q33.4875 109.99479 34.3 109.99479Q35.1125 109.99479 35.7375 109.65104Q36.378124 109.291664 36.675 108.666664Q36.909374 108.197914 36.909374 107.260414L36.909374 106.74479ZM43.675 109.65104L43.878124 110.90104Q43.284374 111.02604 42.815624 111.02604Q42.05 111.02604 41.628124 110.791664Q41.20625 110.541664 41.034374 110.15104Q40.8625 109.74479 40.8625 108.479164L40.8625 103.71354L39.83125 103.71354L39.83125 102.61979L40.8625 102.61979L40.8625 100.55729L42.26875 99.71354L42.26875 102.61979L43.675 102.61979L43.675 103.71354L42.26875 103.71354L42.26875 108.55729Q42.26875 109.166664 42.33125 109.33854Q42.409374 109.510414 42.58125 109.61979Q42.753124 109.71354 43.065624 109.71354Q43.3 109.71354 43.675 109.65104ZM50.05 110.916664L50.05 109.697914Q49.08125 111.104164 47.409374 111.104164Q46.675 111.104164 46.034374 110.822914Q45.409374 110.541664 45.096874 110.11979Q44.784374 109.68229 44.659374 109.072914Q44.58125 108.65104 44.58125 107.760414L44.58125 102.61979L45.9875 102.61979L45.9875 107.21354Q45.9875 108.322914 46.065624 108.697914Q46.20625 109.260414 46.628124 109.572914Q47.065624 109.885414 47.690624 109.885414Q48.33125 109.885414 48.878124 109.572914Q49.440624 109.24479 49.659374 108.68229Q49.89375 108.11979 49.89375 107.05729L49.89375 102.61979L51.3 102.61979L51.3 110.916664L50.05 110.916664ZM53.596874 110.916664L53.596874 102.61979L54.8625 102.61979L54.8625 103.86979Q55.346874 102.99479 55.753124 102.71354Q56.159374 102.43229 56.659374 102.43229Q57.3625 102.43229 58.096874 102.885414L57.6125 104.18229Q57.096874 103.885414 56.58125 103.885414Q56.128124 103.885414 55.753124 104.166664Q55.39375 104.43229 55.2375 104.93229Q55.003124 105.68229 55.003124 106.572914L55.003124 110.916664L53.596874 110.916664ZM64.28438 108.24479L65.7375 108.416664Q65.39375 109.697914 64.45625 110.40104Q63.534374 111.104164 62.096874 111.104164Q60.26875 111.104164 59.20625 109.979164Q58.14375 108.854164 58.14375 106.83854Q58.14375 104.74479 59.221874 103.58854Q60.3 102.43229 62.01875 102.43229Q63.675 102.43229 64.72188 103.572914Q65.78438 104.697914 65.78438 106.74479Q65.78438 106.86979 65.78438 107.11979L59.596874 107.11979Q59.675 108.49479 60.3625 109.229164Q61.065624 109.947914 62.096874 109.947914Q62.878124 109.947914 63.425 109.541664Q63.971874 109.135414 64.28438 108.24479ZM59.675 105.96354L64.3 105.96354Q64.20625 104.916664 63.76875 104.40104Q63.096874 103.58854 62.034374 103.58854Q61.065624 103.58854 60.39375 104.24479Q59.7375 104.885414 59.675 105.96354ZM67.05 108.43229L68.44063 108.21354Q68.55 109.05729 69.08125 109.510414Q69.62813 109.947914 70.58125 109.947914Q71.55 109.947914 72.01875 109.55729Q72.4875 109.15104 72.4875 108.61979Q72.4875 108.15104 72.08125 107.86979Q71.78438 107.68229 70.64375 107.40104Q69.09688 107.010414 68.4875 106.729164Q67.89375 106.43229 67.58125 105.93229Q67.28438 105.43229 67.28438 104.822914Q67.28438 104.260414 67.53438 103.791664Q67.78438 103.322914 68.22188 103.010414Q68.55 102.760414 69.1125 102.604164Q69.69063 102.43229 70.33125 102.43229Q71.31563 102.43229 72.05 102.71354Q72.78438 102.99479 73.12813 103.479164Q73.4875 103.947914 73.62813 104.760414L72.25313 104.947914Q72.15938 104.30729 71.70625 103.947914Q71.25313 103.58854 70.44063 103.58854Q69.47188 103.58854 69.05 103.916664Q68.64375 104.229164 68.64375 104.65104Q68.64375 104.93229 68.81563 105.15104Q68.9875 105.36979 69.34688 105.52604Q69.56563 105.604164 70.59688 105.885414Q72.08125 106.27604 72.675 106.541664Q73.26875 106.791664 73.59688 107.27604Q73.94063 107.760414 73.94063 108.479164Q73.94063 109.18229 73.51875 109.80729Q73.1125 110.416664 72.33125 110.760414Q71.56563 111.104164 70.59688 111.104164Q68.97188 111.104164 68.12813 110.43229Q67.28438 109.760414 67.05 108.43229ZM81.01875 107.86979L82.40938 108.05729Q82.175 109.479164 81.2375 110.291664Q80.31563 111.104164 78.95625 111.104164Q77.25313 111.104164 76.20625 109.99479Q75.175 108.86979 75.175 106.791664Q75.175 105.447914 75.6125 104.447914Q76.06563 103.43229 76.97188 102.93229Q77.89375 102.43229 78.95625 102.43229Q80.31563 102.43229 81.175 103.11979Q82.03438 103.791664 82.26875 105.05729L80.90938 105.260414Q80.70625 104.43229 80.20625 104.010414Q79.72188 103.58854 79.01875 103.58854Q77.95625 103.58854 77.28438 104.354164Q76.62813 105.104164 76.62813 106.760414Q76.62813 108.43229 77.26875 109.197914Q77.90938 109.947914 78.94063 109.947914Q79.76875 109.947914 80.31563 109.447914Q80.87813 108.93229 81.01875 107.86979ZM89.01875 109.885414Q88.2375 110.55729 87.51875 110.83854Q86.8 111.104164 85.97188 111.104164Q84.59688 111.104164 83.8625 110.43229Q83.12813 109.760414 83.12813 108.729164Q83.12813 108.11979 83.40938 107.61979Q83.69063 107.104164 84.12813 106.80729Q84.58125 106.49479 85.14375 106.33854Q85.56563 106.229164 86.39375 106.135414Q88.09688 105.93229 88.90938 105.65104Q88.90938 105.354164 88.90938 105.27604Q88.90938 104.416664 88.51875 104.072914Q87.97188 103.58854 86.90938 103.58854Q85.925 103.58854 85.44063 103.947914Q84.97188 104.291664 84.75313 105.166664L83.37813 104.979164Q83.56563 104.104164 83.9875 103.55729Q84.425 103.010414 85.2375 102.729164Q86.05 102.43229 87.1125 102.43229Q88.175 102.43229 88.83125 102.68229Q89.50313 102.93229 89.81563 103.30729Q90.12813 103.68229 90.25313 104.260414Q90.33125 104.61979 90.33125 105.55729L90.33125 107.43229Q90.33125 109.40104 90.40938 109.916664Q90.50313 110.43229 90.76875 110.916664L89.3 110.916664Q89.08125 110.479164 89.01875 109.885414ZM88.90938 106.74479Q88.14375 107.05729 86.6125 107.27604Q85.7375 107.40104 85.37813 107.55729Q85.01875 107.71354 84.81563 108.02604Q84.62813 108.322914 84.62813 108.68229Q84.62813 109.24479 85.05 109.61979Q85.4875 109.99479 86.3 109.99479Q87.1125 109.99479 87.7375 109.65104Q88.37813 109.291664 88.675 108.666664Q88.90938 108.197914 88.90938 107.260414L88.90938 106.74479ZM92.6125 114.104164L92.6125 102.61979L93.89375 102.61979L93.89375 103.697914Q94.34688 103.05729 94.90938 102.74479Q95.4875 102.43229 96.3 102.43229Q97.3625 102.43229 98.175 102.979164Q98.9875 103.52604 99.39375 104.52604Q99.81563 105.510414 99.81563 106.697914Q99.81563 107.979164 99.34688 108.99479Q98.89375 110.010414 98.01875 110.55729Q97.15938 111.104164 96.19063 111.104164Q95.4875 111.104164 94.925 110.80729Q94.37813 110.510414 94.01875 110.05729L94.01875 114.104164L92.6125 114.104164ZM93.87813 106.80729Q93.87813 108.416664 94.51875 109.18229Q95.175 109.947914 96.09688 109.947914Q97.03438 109.947914 97.70625 109.15104Q98.37813 108.354164 98.37813 106.697914Q98.37813 105.104164 97.72188 104.322914Q97.06563 103.52604 96.15938 103.52604Q95.26875 103.52604 94.56563 104.36979Q93.87813 105.21354 93.87813 106.80729ZM107.28438 108.24479L108.7375 108.416664Q108.39375 109.697914 107.45625 110.40104Q106.53438 111.104164 105.09688 111.104164Q103.26875 111.104164 102.20625 109.979164Q101.14375 108.854164 101.14375 106.83854Q101.14375 104.74479 102.22188 103.58854Q103.3 102.43229 105.01875 102.43229Q106.675 102.43229 107.72188 103.572914Q108.78438 104.697914 108.78438 106.74479Q108.78438 106.86979 108.78438 107.11979L102.59688 107.11979Q102.675 108.49479 103.3625 109.229164Q104.06563 109.947914 105.09688 109.947914Q105.87813 109.947914 106.425 109.541664Q106.97188 109.135414 107.28438 108.24479ZM102.675 105.96354L107.3 105.96354Q107.20625 104.916664 106.76875 104.40104Q106.09688 103.58854 105.03438 103.58854Q104.06563 103.58854 103.39375 104.24479Q102.7375 104.885414 102.675 105.96354Z" fill-rule="nonzero"/><path fill="#9e9e9e" d="M23.721874 132.91667L23.721874 130.16667L18.753124 130.16667L18.753124 128.88542L23.9875 121.46355L25.128124 121.46355L25.128124 128.88542L26.675 128.88542L26.675 130.16667L25.128124 130.16667L25.128124 132.91667L23.721874 132.91667ZM23.721874 128.88542L23.721874 123.71355L20.14375 128.88542L23.721874 128.88542ZM29.003124 132.91667L29.003124 131.3073L30.6125 131.3073L30.6125 132.91667L29.003124 132.91667ZM32.221874 127.26042Q32.221874 125.22917 32.628124 123.9948Q33.05 122.76042 33.878124 122.08855Q34.70625 121.41667 35.95625 121.41667Q36.878124 121.41667 37.565624 121.79167Q38.26875 122.15105 38.721874 122.85417Q39.175 123.5573 39.425 124.5573Q39.690624 125.5573 39.690624 127.26042Q39.690624 129.27605 39.26875 130.52605Q38.8625 131.76042 38.034374 132.44792Q37.20625 133.1198 35.95625 133.1198Q34.3 133.1198 33.346874 131.91667Q32.221874 130.4948 32.221874 127.26042ZM33.659374 127.26042Q33.659374 130.08855 34.315624 131.02605Q34.9875 131.94792 35.95625 131.94792Q36.925 131.94792 37.58125 131.01042Q38.2375 130.07292 38.2375 127.26042Q38.2375 124.4323 37.58125 123.51042Q36.925 122.57292 35.940624 122.57292Q34.971874 122.57292 34.39375 123.40105Q33.659374 124.44792 33.659374 127.26042ZM41.4875 124.21355Q41.4875 122.97917 42.096874 122.1198Q42.721874 121.26042 43.89375 121.26042Q44.971874 121.26042 45.675 122.04167Q46.378124 122.8073 46.378124 124.29167Q46.378124 125.7448 45.659374 126.54167Q44.95625 127.32292 43.909374 127.32292Q42.8625 127.32292 42.175 126.5573Q41.4875 125.77605 41.4875 124.21355ZM43.925 122.22917Q43.409374 122.22917 43.05 122.6823Q42.70625 123.13542 42.70625 124.35417Q42.70625 125.44792 43.05 125.90105Q43.409374 126.35417 43.925 126.35417Q44.45625 126.35417 44.8 125.90105Q45.159374 125.44792 45.159374 124.2448Q45.159374 123.13542 44.8 122.6823Q44.45625 122.22917 43.925 122.22917ZM43.940624 133.33855L50.20625 121.26042L51.346874 121.26042L45.096874 133.33855L43.940624 133.33855ZM48.89375 130.22917Q48.89375 128.9948 49.503124 128.13542Q50.128124 127.27605 51.3 127.27605Q52.378124 127.27605 53.08125 128.0573Q53.8 128.82292 53.8 130.3073Q53.8 131.76042 53.08125 132.5573Q52.3625 133.33855 51.315624 133.33855Q50.26875 133.33855 49.58125 132.5573Q48.89375 131.77605 48.89375 130.22917ZM51.346874 128.2448Q50.815624 128.2448 50.45625 128.69792Q50.1125 129.15105 50.1125 130.3698Q50.1125 131.46355 50.45625 131.91667Q50.815624 132.3698 51.33125 132.3698Q51.878124 132.3698 52.221874 131.91667Q52.565624 131.46355 52.565624 130.26042Q52.565624 129.15105 52.20625 128.69792Q51.8625 128.2448 51.346874 128.2448Z" fill-rule="nonzero"/><path stroke="#757575" stroke-width="1.0" stroke-linecap="butt" d="M18.55 116.416664L145.23334 116.416664L247.97357 72.27957" fill-rule="nonzero"/><path fill="#9e9e9e" d="M249.97357 72.27957C249.97357 71.175 249.07814 70.27957 247.97357 70.27957C246.869 70.27957 245.97357 71.175 245.97357 72.27957C245.97357 73.38414 246.869 74.27957 247.97357 74.27957C249.07814 74.27957 249.97357 73.38414 249.97357 72.27957" fill-rule="nonzero"/><path fill="#efefef" d="M18.51875 151.91667L22.925 140.46355L24.565624 140.46355L29.253124 151.91667L27.51875 151.91667L26.190624 148.44792L21.39375 148.44792L20.14375 151.91667L18.51875 151.91667ZM21.83125 147.21355L25.721874 147.21355L24.51875 144.04167Q23.971874 142.58855 23.70625 141.66667Q23.4875 142.76042 23.096874 143.85417L21.83125 147.21355ZM30.6125 151.91667L30.6125 143.6198L31.878124 143.6198L31.878124 144.79167Q32.784374 143.4323 34.51875 143.4323Q35.26875 143.4323 35.89375 143.69792Q36.51875 143.96355 36.83125 144.40105Q37.14375 144.83855 37.26875 145.44792Q37.346874 145.83855 37.346874 146.8073L37.346874 151.91667L35.940624 151.91667L35.940624 146.8698Q35.940624 146.01042 35.76875 145.58855Q35.6125 145.15105 35.190624 144.90105Q34.784374 144.65105 34.221874 144.65105Q33.315624 144.65105 32.659374 145.22917Q32.01875 145.79167 32.01875 147.38542L32.01875 151.91667L30.6125 151.91667ZM39.6125 142.07292L39.6125 140.46355L41.01875 140.46355L41.01875 142.07292L39.6125 142.07292ZM39.6125 151.91667L39.6125 143.6198L41.01875 143.6198L41.01875 151.91667L39.6125 151.91667ZM43.6125 151.91667L43.6125 143.6198L44.8625 143.6198L44.8625 144.77605Q45.253124 144.16667 45.89375 143.8073Q46.55 143.4323 47.378124 143.4323Q48.3 143.4323 48.89375 143.82292Q49.4875 144.19792 49.721874 144.88542Q50.70625 143.4323 52.284374 143.4323Q53.51875 143.4323 54.175 144.1198Q54.846874 144.79167 54.846874 146.21355L54.846874 151.91667L53.45625 151.91667L53.45625 146.6823Q53.45625 145.83855 53.315624 145.47917Q53.175 145.10417 52.815624 144.88542Q52.45625 144.65105 51.971874 144.65105Q51.096874 144.65105 50.51875 145.22917Q49.940624 145.8073 49.940624 147.08855L49.940624 151.91667L48.534374 151.91667L48.534374 146.52605Q48.534374 145.58855 48.190624 145.1198Q47.846874 144.65105 47.065624 144.65105Q46.471874 144.65105 45.971874 144.96355Q45.471874 145.27605 45.2375 145.88542Q45.01875 146.47917 45.01875 147.60417L45.01875 151.91667L43.6125 151.91667ZM62.01875 150.88542Q61.2375 151.5573 60.51875 151.83855Q59.8 152.10417 58.971874 152.10417Q57.596874 152.10417 56.8625 151.4323Q56.128124 150.76042 56.128124 149.72917Q56.128124 149.1198 56.409374 148.6198Q56.690624 148.10417 57.128124 147.8073Q57.58125 147.4948 58.14375 147.33855Q58.565624 147.22917 59.39375 147.13542Q61.096874 146.9323 61.909374 146.65105Q61.909374 146.35417 61.909374 146.27605Q61.909374 145.41667 61.51875 145.07292Q60.971874 144.58855 59.909374 144.58855Q58.925 144.58855 58.440624 144.94792Q57.971874 145.29167 57.753124 146.16667L56.378124 145.97917Q56.565624 145.10417 56.9875 144.5573Q57.425 144.01042 58.2375 143.72917Q59.05 143.4323 60.1125 143.4323Q61.175 143.4323 61.83125 143.6823Q62.503124 143.9323 62.815624 144.3073Q63.128124 144.6823 63.253124 145.26042Q63.33125 145.6198 63.33125 146.5573L63.33125 148.4323Q63.33125 150.40105 63.409374 150.91667Q63.503124 151.4323 63.76875 151.91667L62.3 151.91667Q62.08125 151.47917 62.01875 150.88542ZM61.909374 147.7448Q61.14375 148.0573 59.6125 148.27605Q58.7375 148.40105 58.378124 148.5573Q58.01875 148.71355 57.815624 149.02605Q57.628124 149.32292 57.628124 149.6823Q57.628124 150.2448 58.05 150.6198Q58.4875 150.9948 59.3 150.9948Q60.1125 150.9948 60.7375 150.65105Q61.378124 150.29167 61.675 149.66667Q61.909374 149.19792 61.909374 148.26042L61.909374 147.7448ZM65.58125 151.91667L65.58125 140.46355L66.9875 140.46355L66.9875 151.91667L65.58125 151.91667ZM69.05 149.4323L70.44063 149.21355Q70.55 150.0573 71.08125 150.51042Q71.62813 150.94792 72.58125 150.94792Q73.55 150.94792 74.01875 150.5573Q74.4875 150.15105 74.4875 149.6198Q74.4875 149.15105 74.08125 148.8698Q73.78438 148.6823 72.64375 148.40105Q71.09688 148.01042 70.4875 147.72917Q69.89375 147.4323 69.58125 146.9323Q69.28438 146.4323 69.28438 145.82292Q69.28438 145.26042 69.53438 144.79167Q69.78438 144.32292 70.22188 144.01042Q70.55 143.76042 71.1125 143.60417Q71.69063 143.4323 72.33125 143.4323Q73.31563 143.4323 74.05 143.71355Q74.78438 143.9948 75.12813 144.47917Q75.4875 144.94792 75.62813 145.76042L74.25313 145.94792Q74.15938 145.3073 73.70625 144.94792Q73.25313 144.58855 72.44063 144.58855Q71.47188 144.58855 71.05 144.91667Q70.64375 145.22917 70.64375 145.65105Q70.64375 145.9323 70.81563 146.15105Q70.9875 146.3698 71.34688 146.52605Q71.56563 146.60417 72.59688 146.88542Q74.08125 147.27605 74.675 147.54167Q75.26875 147.79167 75.59688 148.27605Q75.94063 148.76042 75.94063 149.47917Q75.94063 150.1823 75.51875 150.8073Q75.1125 151.41667 74.33125 151.76042Q73.56563 152.10417 72.59688 152.10417Q70.97188 152.10417 70.12813 151.4323Q69.28438 150.76042 69.05 149.4323Z" fill-rule="nonzero"/><path fill="#9e9e9e" d="M23.721874 173.91667L23.721874 171.16667L18.753124 171.16667L18.753124 169.88542L23.9875 162.46355L25.128124 162.46355L25.128124 169.88542L26.675 169.88542L26.675 171.16667L25.128124 171.16667L25.128124 173.91667L23.721874 173.91667ZM23.721874 169.88542L23.721874 164.71355L20.14375 169.88542L23.721874 169.88542ZM29.003124 173.91667L29.003124 172.3073L30.6125 172.3073L30.6125 173.91667L29.003124 173.91667ZM32.221874 168.26042Q32.221874 166.22917 32.628124 164.9948Q33.05 163.76042 33.878124 163.08855Q34.70625 162.41667 35.95625 162.41667Q36.878124 162.41667 37.565624 162.79167Q38.26875 163.15105 38.721874 163.85417Q39.175 164.5573 39.425 165.5573Q39.690624 166.5573 39.690624 168.26042Q39.690624 170.27605 39.26875 171.52605Q38.8625 172.76042 38.034374 173.44792Q37.20625 174.1198 35.95625 174.1198Q34.3 174.1198 33.346874 172.91667Q32.221874 171.4948 32.221874 168.26042ZM33.659374 168.26042Q33.659374 171.08855 34.315624 172.02605Q34.9875 172.94792 35.95625 172.94792Q36.925 172.94792 37.58125 172.01042Q38.2375 171.07292 38.2375 168.26042Q38.2375 165.4323 37.58125 164.51042Q36.925 163.57292 35.940624 163.57292Q34.971874 163.57292 34.39375 164.40105Q33.659374 165.44792 33.659374 168.26042ZM41.4875 165.21355Q41.4875 163.97917 42.096874 163.1198Q42.721874 162.26042 43.89375 162.26042Q44.971874 162.26042 45.675 163.04167Q46.378124 163.8073 46.378124 165.29167Q46.378124 166.7448 45.659374 167.54167Q44.95625 168.32292 43.909374 168.32292Q42.8625 168.32292 42.175 167.5573Q41.4875 166.77605 41.4875 165.21355ZM43.925 163.22917Q43.409374 163.22917 43.05 163.6823Q42.70625 164.13542 42.70625 165.35417Q42.70625 166.44792 43.05 166.90105Q43.409374 167.35417 43.925 167.35417Q44.45625 167.35417 44.8 166.90105Q45.159374 166.44792 45.159374 165.2448Q45.159374 164.13542 44.8 163.6823Q44.45625 163.22917 43.925 163.22917ZM43.940624 174.33855L50.20625 162.26042L51.346874 162.26042L45.096874 174.33855L43.940624 174.33855ZM48.89375 171.22917Q48.89375 169.9948 49.503124 169.13542Q50.128124 168.27605 51.3 168.27605Q52.378124 168.27605 53.08125 169.0573Q53.8 169.82292 53.8 171.3073Q53.8 172.76042 53.08125 173.5573Q52.3625 174.33855 51.315624 174.33855Q50.26875 174.33855 49.58125 173.5573Q48.89375 172.77605 48.89375 171.22917ZM51.346874 169.2448Q50.815624 169.2448 50.45625 169.69792Q50.1125 170.15105 50.1125 171.3698Q50.1125 172.46355 50.45625 172.91667Q50.815624 173.3698 51.33125 173.3698Q51.878124 173.3698 52.221874 172.91667Q52.565624 172.46355 52.565624 171.26042Q52.565624 170.15105 52.20625 169.69792Q51.8625 169.2448 51.346874 169.2448Z" fill-rule="nonzero"/><path stroke="#757575" stroke-width="1.0" stroke-linecap="butt" d="M18.55 157.41667L145.23334 157.41667L216.92929 89.34631" fill-rule="nonzero"/><path fill="#9e9e9e" d="M218.92929 89.34631C218.92929 88.24174 218.03386 87.34631 216.92929 87.34631C215.82472 87.34631 214.92929 88.24174 214.92929 89.34631C214.92929 90.45088 215.82472 91.34631 216.92929 91.34631C218.03386 91.34631 218.92929 90.45088 218.92929 89.34631" fill-rule="nonzero"/><path fill="#efefef" d="M551.6375 69.916664L551.6375 58.46354L553.91876 58.46354L556.6375 66.572914Q557.0125 67.697914 557.1844 68.260414Q557.3719 67.635414 557.79376 66.43229L560.52814 58.46354L562.575 58.46354L562.575 69.916664L561.10626 69.916664L561.10626 60.322914L557.77814 69.916664L556.41876 69.916664L553.10626 60.166664L553.10626 69.916664L551.6375 69.916664ZM569.91876 68.885414Q569.1375 69.55729 568.41876 69.83854Q567.7 70.104164 566.8719 70.104164Q565.4969 70.104164 564.7625 69.43229Q564.02814 68.760414 564.02814 67.729164Q564.02814 67.11979 564.3094 66.61979Q564.59064 66.104164 565.02814 65.80729Q565.48126 65.49479 566.04376 65.33854Q566.46564 65.229164 567.29376 65.135414Q568.9969 64.93229 569.8094 64.65104Q569.8094 64.354164 569.8094 64.27604Q569.8094 63.416664 569.41876 63.072914Q568.8719 62.58854 567.8094 62.58854Q566.825 62.58854 566.34064 62.947914Q565.8719 63.291664 565.65314 64.166664L564.27814 63.979164Q564.46564 63.104164 564.8875 62.55729Q565.325 62.010414 566.1375 61.729164Q566.95 61.43229 568.0125 61.43229Q569.075 61.43229 569.73126 61.68229Q570.40314 61.93229 570.71564 62.30729Q571.02814 62.68229 571.15314 63.260414Q571.23126 63.61979 571.23126 64.55729L571.23126 66.43229Q571.23126 68.40104 571.3094 68.916664Q571.40314 69.43229 571.66876 69.916664L570.2 69.916664Q569.98126 69.479164 569.91876 68.885414ZM569.8094 65.74479Q569.04376 66.05729 567.5125 66.27604Q566.6375 66.40104 566.27814 66.55729Q565.91876 66.71354 565.71564 67.02604Q565.52814 67.322914 565.52814 67.68229Q565.52814 68.24479 565.95 68.61979Q566.3875 68.99479 567.2 68.99479Q568.0125 68.99479 568.6375 68.65104Q569.27814 68.291664 569.575 67.666664Q569.8094 67.197914 569.8094 66.260414L569.8094 65.74479ZM573.5125 73.104164L573.5125 61.61979L574.79376 61.61979L574.79376 62.697914Q575.2469 62.05729 575.8094 61.74479Q576.3875 61.43229 577.2 61.43229Q578.2625 61.43229 579.075 61.979164Q579.8875 62.52604 580.29376 63.52604Q580.71564 64.510414 580.71564 65.697914Q580.71564 66.979164 580.2469 67.99479Q579.79376 69.010414 578.91876 69.55729Q578.0594 70.104164 577.09064 70.104164Q576.3875 70.104164 575.825 69.80729Q575.27814 69.510414 574.91876 69.05729L574.91876 73.104164L573.5125 73.104164ZM574.77814 65.80729Q574.77814 67.416664 575.41876 68.18229Q576.075 68.947914 576.9969 68.947914Q577.9344 68.947914 578.60626 68.15104Q579.27814 67.354164 579.27814 65.697914Q579.27814 64.104164 578.6219 63.322914Q577.96564 62.52604 577.0594 62.52604Q576.16876 62.52604 575.46564 63.36979Q574.77814 64.21354 574.77814 65.80729Z" fill-rule="nonzero"/><path fill="#9e9e9e" d="M550.6219 91.916664L550.6219 89.166664L545.65314 89.166664L545.65314 87.885414L550.8875 80.46354L552.02814 80.46354L552.02814 87.885414L553.575 87.885414L553.575 89.166664L552.02814 89.166664L552.02814 91.916664L550.6219 91.916664ZM550.6219 87.885414L550.6219 82.71354L547.04376 87.885414L550.6219 87.885414ZM555.90314 91.916664L555.90314 90.30729L557.5125 90.30729L557.5125 91.916664L555.90314 91.916664ZM559.1219 86.260414Q559.1219 84.229164 559.52814 82.99479Q559.95 81.760414 560.77814 81.08854Q561.60626 80.416664 562.85626 80.416664Q563.77814 80.416664 564.46564 80.791664Q565.16876 81.15104 565.6219 81.854164Q566.075 82.55729 566.325 83.55729Q566.59064 84.55729 566.59064 86.260414Q566.59064 88.27604 566.16876 89.52604Q565.7625 90.760414 564.9344 91.447914Q564.10626 92.11979 562.85626 92.11979Q561.2 92.11979 560.2469 90.916664Q559.1219 89.49479 559.1219 86.260414ZM560.5594 86.260414Q560.5594 89.08854 561.21564 90.02604Q561.8875 90.947914 562.85626 90.947914Q563.825 90.947914 564.48126 90.010414Q565.1375 89.072914 565.1375 86.260414Q565.1375 83.43229 564.48126 82.510414Q563.825 81.572914 562.84064 81.572914Q561.8719 81.572914 561.29376 82.40104Q560.5594 83.447914 560.5594 86.260414ZM568.3875 83.21354Q568.3875 81.979164 568.9969 81.11979Q569.6219 80.260414 570.79376 80.260414Q571.8719 80.260414 572.575 81.041664Q573.27814 81.80729 573.27814 83.291664Q573.27814 84.74479 572.5594 85.541664Q571.85626 86.322914 570.8094 86.322914Q569.7625 86.322914 569.075 85.55729Q568.3875 84.77604 568.3875 83.21354ZM570.825 81.229164Q570.3094 81.229164 569.95 81.68229Q569.60626 82.135414 569.60626 83.354164Q569.60626 84.447914 569.95 84.90104Q570.3094 85.354164 570.825 85.354164Q571.35626 85.354164 571.7 84.90104Q572.0594 84.447914 572.0594 83.24479Q572.0594 82.135414 571.7 81.68229Q571.35626 81.229164 570.825 81.229164ZM570.84064 92.33854L577.10626 80.260414L578.2469 80.260414L571.9969 92.33854L570.84064 92.33854ZM575.79376 89.229164Q575.79376 87.99479 576.40314 87.135414Q577.02814 86.27604 578.2 86.27604Q579.27814 86.27604 579.98126 87.05729Q580.7 87.822914 580.7 89.30729Q580.7 90.760414 579.98126 91.55729Q579.2625 92.33854 578.21564 92.33854Q577.16876 92.33854 576.48126 91.55729Q575.79376 90.77604 575.79376 89.229164ZM578.2469 87.24479Q577.71564 87.24479 577.35626 87.697914Q577.0125 88.15104 577.0125 89.36979Q577.0125 90.46354 577.35626 90.916664Q577.71564 91.36979 578.23126 91.36979Q578.77814 91.36979 579.1219 90.916664Q579.46564 90.46354 579.46564 89.260414Q579.46564 88.15104 579.10626 87.697914Q578.7625 87.24479 578.2469 87.24479Z" fill-rule="nonzero"/><path stroke="#757575" stroke-width="1.0" stroke-linecap="butt" d="M581.45 75.416664L454.76666 75.416664L317.71313 63.469418" fill-rule="nonzero"/><path fill="#9e9e9e" d="M319.71313 63.469418C319.71313 62.364845 318.81772 61.469418 317.71313 61.469418C316.60858 61.469418 315.71313 62.364845 315.71313 63.469418C315.71313 64.57398 316.60858 65.46941 317.71313 65.46941C318.81772 65.46941 319.71313 64.57398 319.71313 63.469418" fill-rule="nonzero"/><path fill="#efefef" d="M498.6844 110.916664L498.6844 99.46354L503.0125 99.46354Q504.15314 99.46354 504.7469 99.572914Q505.59064 99.71354 506.15314 100.104164Q506.73126 100.49479 507.075 101.21354Q507.4344 101.916664 507.4344 102.77604Q507.4344 104.229164 506.4969 105.24479Q505.575 106.260414 503.1375 106.260414L500.2 106.260414L500.2 110.916664L498.6844 110.916664ZM500.2 104.90104L503.16876 104.90104Q504.6375 104.90104 505.2469 104.354164Q505.8719 103.80729 505.8719 102.822914Q505.8719 102.104164 505.4969 101.58854Q505.1375 101.072914 504.54376 100.916664Q504.16876 100.80729 503.1375 100.80729L500.2 100.80729L500.2 104.90104ZM515.1844 108.24479L516.6375 108.416664Q516.29376 109.697914 515.35626 110.40104Q514.4344 111.104164 512.9969 111.104164Q511.16876 111.104164 510.10626 109.979164Q509.04376 108.854164 509.04376 106.83854Q509.04376 104.74479 510.1219 103.58854Q511.2 102.43229 512.91876 102.43229Q514.575 102.43229 515.6219 103.572914Q516.6844 104.697914 516.6844 106.74479Q516.6844 106.86979 516.6844 107.11979L510.4969 107.11979Q510.575 108.49479 511.2625 109.229164Q511.96564 109.947914 512.9969 109.947914Q513.77814 109.947914 514.325 109.541664Q514.8719 109.135414 515.1844 108.24479ZM510.575 105.96354L515.2 105.96354Q515.10626 104.916664 514.66876 104.40104Q513.9969 103.58854 512.9344 103.58854Q511.96564 103.58854 511.29376 104.24479Q510.6375 104.885414 510.575 105.96354ZM518.4969 110.916664L518.4969 102.61979L519.7625 102.61979L519.7625 103.86979Q520.2469 102.99479 520.65314 102.71354Q521.0594 102.43229 521.5594 102.43229Q522.2625 102.43229 522.9969 102.885414L522.5125 104.18229Q521.9969 103.885414 521.48126 103.885414Q521.02814 103.885414 520.65314 104.166664Q520.29376 104.43229 520.1375 104.93229Q519.90314 105.68229 519.90314 106.572914L519.90314 110.916664L518.4969 110.916664ZM522.95 108.43229L524.34064 108.21354Q524.45 109.05729 524.98126 109.510414Q525.52814 109.947914 526.48126 109.947914Q527.45 109.947914 527.91876 109.55729Q528.3875 109.15104 528.3875 108.61979Q528.3875 108.15104 527.98126 107.86979Q527.6844 107.68229 526.54376 107.40104Q524.9969 107.010414 524.3875 106.729164Q523.79376 106.43229 523.48126 105.93229Q523.1844 105.43229 523.1844 104.822914Q523.1844 104.260414 523.4344 103.791664Q523.6844 103.322914 524.1219 103.010414Q524.45 102.760414 525.0125 102.604164Q525.59064 102.43229 526.23126 102.43229Q527.21564 102.43229 527.95 102.71354Q528.6844 102.99479 529.02814 103.479164Q529.3875 103.947914 529.52814 104.760414L528.15314 104.947914Q528.0594 104.30729 527.60626 103.947914Q527.15314 103.58854 526.34064 103.58854Q525.3719 103.58854 524.95 103.916664Q524.54376 104.229164 524.54376 104.65104Q524.54376 104.93229 524.71564 105.15104Q524.8875 105.36979 525.2469 105.52604Q525.46564 105.604164 526.4969 105.885414Q527.98126 106.27604 528.575 106.541664Q529.16876 106.791664 529.4969 107.27604Q529.84064 107.760414 529.84064 108.479164Q529.84064 109.18229 529.41876 109.80729Q529.0125 110.416664 528.23126 110.760414Q527.46564 111.104164 526.4969 111.104164Q524.8719 111.104164 524.02814 110.43229Q523.1844 109.760414 522.95 108.43229ZM531.5125 114.104164L531.5125 102.61979L532.79376 102.61979L532.79376 103.697914Q533.2469 103.05729 533.8094 102.74479Q534.3875 102.43229 535.2 102.43229Q536.2625 102.43229 537.075 102.979164Q537.8875 103.52604 538.29376 104.52604Q538.71564 105.510414 538.71564 106.697914Q538.71564 107.979164 538.2469 108.99479Q537.79376 110.010414 536.91876 110.55729Q536.0594 111.104164 535.09064 111.104164Q534.3875 111.104164 533.825 110.80729Q533.27814 110.510414 532.91876 110.05729L532.91876 114.104164L531.5125 114.104164ZM532.77814 106.80729Q532.77814 108.416664 533.41876 109.18229Q534.075 109.947914 534.9969 109.947914Q535.9344 109.947914 536.60626 109.15104Q537.27814 108.354164 537.27814 106.697914Q537.27814 105.104164 536.6219 104.322914Q535.96564 103.52604 535.0594 103.52604Q534.16876 103.52604 533.46564 104.36979Q532.77814 105.21354 532.77814 106.80729ZM546.1844 108.24479L547.6375 108.416664Q547.29376 109.697914 546.35626 110.40104Q545.4344 111.104164 543.9969 111.104164Q542.16876 111.104164 541.10626 109.979164Q540.04376 108.854164 540.04376 106.83854Q540.04376 104.74479 541.1219 103.58854Q542.2 102.43229 543.91876 102.43229Q545.575 102.43229 546.6219 103.572914Q547.6844 104.697914 547.6844 106.74479Q547.6844 106.86979 547.6844 107.11979L541.4969 107.11979Q541.575 108.49479 542.2625 109.229164Q542.96564 109.947914 543.9969 109.947914Q544.77814 109.947914 545.325 109.541664Q545.8719 109.135414 546.1844 108.24479ZM541.575 105.96354L546.2 105.96354Q546.10626 104.916664 545.66876 104.40104Q544.9969 103.58854 543.9344 103.58854Q542.96564 103.58854 542.29376 104.24479Q541.6375 104.885414 541.575 105.96354ZM554.91876 107.86979L556.3094 108.05729Q556.075 109.479164 555.1375 110.291664Q554.21564 111.104164 552.85626 111.104164Q551.15314 111.104164 550.10626 109.99479Q549.075 108.86979 549.075 106.791664Q549.075 105.447914 549.5125 104.447914Q549.96564 103.43229 550.8719 102.93229Q551.79376 102.43229 552.85626 102.43229Q554.21564 102.43229 555.075 103.11979Q555.9344 103.791664 556.16876 105.05729L554.8094 105.260414Q554.60626 104.43229 554.10626 104.010414Q553.6219 103.58854 552.91876 103.58854Q551.85626 103.58854 551.1844 104.354164Q550.52814 105.104164 550.52814 106.760414Q550.52814 108.43229 551.16876 109.197914Q551.8094 109.947914 552.84064 109.947914Q553.66876 109.947914 554.21564 109.447914Q554.77814 108.93229 554.91876 107.86979ZM560.575 109.65104L560.77814 110.90104Q560.1844 111.02604 559.71564 111.02604Q558.95 111.02604 558.52814 110.791664Q558.10626 110.541664 557.9344 110.15104Q557.7625 109.74479 557.7625 108.479164L557.7625 103.71354L556.73126 103.71354L556.73126 102.61979L557.7625 102.61979L557.7625 100.55729L559.16876 99.71354L559.16876 102.61979L560.575 102.61979L560.575 103.71354L559.16876 103.71354L559.16876 108.55729Q559.16876 109.166664 559.23126 109.33854Q559.3094 109.510414 559.48126 109.61979Q559.65314 109.71354 559.96564 109.71354Q560.2 109.71354 560.575 109.65104ZM561.5125 101.072914L561.5125 99.46354L562.91876 99.46354L562.91876 101.072914L561.5125 101.072914ZM561.5125 110.916664L561.5125 102.61979L562.91876 102.61979L562.91876 110.916664L561.5125 110.916664ZM567.8094 110.916664L564.65314 102.61979L566.1375 102.61979L567.91876 107.58854Q568.21564 108.385414 568.45 109.260414Q568.6375 108.604164 568.98126 107.68229L570.825 102.61979L572.2625 102.61979L569.1219 110.916664L567.8094 110.916664ZM579.1844 108.24479L580.6375 108.416664Q580.29376 109.697914 579.35626 110.40104Q578.4344 111.104164 576.9969 111.104164Q575.16876 111.104164 574.10626 109.979164Q573.04376 108.854164 573.04376 106.83854Q573.04376 104.74479 574.1219 103.58854Q575.2 102.43229 576.91876 102.43229Q578.575 102.43229 579.6219 103.572914Q580.6844 104.697914 580.6844 106.74479Q580.6844 106.86979 580.6844 107.11979L574.4969 107.11979Q574.575 108.49479 575.2625 109.229164Q575.96564 109.947914 576.9969 109.947914Q577.77814 109.947914 578.325 109.541664Q578.8719 109.135414 579.1844 108.24479ZM574.575 105.96354L579.2 105.96354Q579.10626 104.916664 578.66876 104.40104Q577.9969 103.58854 576.9344 103.58854Q575.96564 103.58854 575.29376 104.24479Q574.6375 104.885414 574.575 105.96354Z" fill-rule="nonzero"/><path fill="#9e9e9e" d="M550.6219 132.91667L550.6219 130.16667L545.65314 130.16667L545.65314 128.88542L550.8875 121.46355L552.02814 121.46355L552.02814 128.88542L553.575 128.88542L553.575 130.16667L552.02814 130.16667L552.02814 132.91667L550.6219 132.91667ZM550.6219 128.88542L550.6219 123.71355L547.04376 128.88542L550.6219 128.88542ZM555.90314 132.91667L555.90314 131.3073L557.5125 131.3073L557.5125 132.91667L555.90314 132.91667ZM559.1219 127.26042Q559.1219 125.22917 559.52814 123.9948Q559.95 122.76042 560.77814 122.08855Q561.60626 121.41667 562.85626 121.41667Q563.77814 121.41667 564.46564 121.79167Q565.16876 122.15105 565.6219 122.85417Q566.075 123.5573 566.325 124.5573Q566.59064 125.5573 566.59064 127.26042Q566.59064 129.27605 566.16876 130.52605Q565.7625 131.76042 564.9344 132.44792Q564.10626 133.1198 562.85626 133.1198Q561.2 133.1198 560.2469 131.91667Q559.1219 130.4948 559.1219 127.26042ZM560.5594 127.26042Q560.5594 130.08855 561.21564 131.02605Q561.8875 131.94792 562.85626 131.94792Q563.825 131.94792 564.48126 131.01042Q565.1375 130.07292 565.1375 127.26042Q565.1375 124.4323 564.48126 123.51042Q563.825 122.57292 562.84064 122.57292Q561.8719 122.57292 561.29376 123.40105Q560.5594 124.44792 560.5594 127.26042ZM568.3875 124.21355Q568.3875 122.97917 568.9969 122.1198Q569.6219 121.26042 570.79376 121.26042Q571.8719 121.26042 572.575 122.04167Q573.27814 122.8073 573.27814 124.29167Q573.27814 125.7448 572.5594 126.54167Q571.85626 127.32292 570.8094 127.32292Q569.7625 127.32292 569.075 126.5573Q568.3875 125.77605 568.3875 124.21355ZM570.825 122.22917Q570.3094 122.22917 569.95 122.6823Q569.60626 123.13542 569.60626 124.35417Q569.60626 125.44792 569.95 125.90105Q570.3094 126.35417 570.825 126.35417Q571.35626 126.35417 571.7 125.90105Q572.0594 125.44792 572.0594 124.2448Q572.0594 123.13542 571.7 122.6823Q571.35626 122.22917 570.825 122.22917ZM570.84064 133.33855L577.10626 121.26042L578.2469 121.26042L571.9969 133.33855L570.84064 133.33855ZM575.79376 130.22917Q575.79376 128.9948 576.40314 128.13542Q577.02814 127.27605 578.2 127.27605Q579.27814 127.27605 579.98126 128.0573Q580.7 128.82292 580.7 130.3073Q580.7 131.76042 579.98126 132.5573Q579.2625 133.33855 578.21564 133.33855Q577.16876 133.33855 576.48126 132.5573Q575.79376 131.77605 575.79376 130.22917ZM578.2469 128.2448Q577.71564 128.2448 577.35626 128.69792Q577.0125 129.15105 577.0125 130.3698Q577.0125 131.46355 577.35626 131.91667Q577.71564 132.3698 578.23126 132.3698Q578.77814 132.3698 579.1219 131.91667Q579.46564 131.46355 579.46564 130.26042Q579.46564 129.15105 579.10626 128.69792Q578.7625 128.2448 578.2469 128.2448Z" fill-rule="nonzero"/><path stroke="#757575" stroke-width="1.0" stroke-linecap="butt" d="M581.45 116.416664L454.76666 116.416664L352.02643 72.27957" fill-rule="nonzero"/><path fill="#9e9e9e" d="M354.02643 72.27957C354.02643 71.175 353.131 70.27957 352.02643 70.27957C350.92188 70.27957 350.02643 71.175 350.02643 72.27957C350.02643 73.38414 350.92188 74.27957 352.02643 74.27957C353.131 74.27957 354.02643 73.38414 354.02643 72.27957" fill-rule="nonzero"/><path fill="#efefef" d="M531.6844 326.45L531.6844 314.9969L536.0125 314.9969Q537.15314 314.9969 537.7469 315.10626Q538.59064 315.2469 539.15314 315.6375Q539.73126 316.02814 540.075 316.7469Q540.4344 317.45 540.4344 318.3094Q540.4344 319.7625 539.4969 320.77814Q538.575 321.79376 536.1375 321.79376L533.2 321.79376L533.2 326.45L531.6844 326.45ZM533.2 320.4344L536.16876 320.4344Q537.6375 320.4344 538.2469 319.8875Q538.8719 319.34064 538.8719 318.35626Q538.8719 317.6375 538.4969 317.1219Q538.1375 316.60626 537.54376 316.45Q537.16876 316.34064 536.1375 316.34064L533.2 316.34064L533.2 320.4344ZM548.1844 323.77814L549.6375 323.95Q549.29376 325.23126 548.35626 325.9344Q547.4344 326.6375 545.9969 326.6375Q544.16876 326.6375 543.10626 325.5125Q542.04376 324.3875 542.04376 322.3719Q542.04376 320.27814 543.1219 319.1219Q544.2 317.96564 545.91876 317.96564Q547.575 317.96564 548.6219 319.10626Q549.6844 320.23126 549.6844 322.27814Q549.6844 322.40314 549.6844 322.65314L543.4969 322.65314Q543.575 324.02814 544.2625 324.7625Q544.96564 325.48126 545.9969 325.48126Q546.77814 325.48126 547.325 325.075Q547.8719 324.66876 548.1844 323.77814ZM543.575 321.4969L548.2 321.4969Q548.10626 320.45 547.66876 319.9344Q546.9969 319.1219 545.9344 319.1219Q544.96564 319.1219 544.29376 319.77814Q543.6375 320.41876 543.575 321.4969ZM550.98126 322.29376Q550.98126 319.9969 552.2625 318.8875Q553.34064 317.96564 554.8719 317.96564Q556.59064 317.96564 557.66876 319.09064Q558.7625 320.2 558.7625 322.1844Q558.7625 323.77814 558.27814 324.7Q557.79376 325.6219 556.8719 326.1375Q555.96564 326.6375 554.8719 326.6375Q553.1375 326.6375 552.0594 325.52814Q550.98126 324.40314 550.98126 322.29376ZM552.4344 322.29376Q552.4344 323.8875 553.1219 324.6844Q553.825 325.48126 554.8719 325.48126Q555.91876 325.48126 556.60626 324.6844Q557.3094 323.8875 557.3094 322.2469Q557.3094 320.71564 556.60626 319.91876Q555.91876 319.1219 554.8719 319.1219Q553.825 319.1219 553.1219 319.91876Q552.4344 320.7 552.4344 322.29376ZM560.5125 329.6375L560.5125 318.15314L561.79376 318.15314L561.79376 319.23126Q562.2469 318.59064 562.8094 318.27814Q563.3875 317.96564 564.2 317.96564Q565.2625 317.96564 566.075 318.5125Q566.8875 319.0594 567.29376 320.0594Q567.71564 321.04376 567.71564 322.23126Q567.71564 323.5125 567.2469 324.52814Q566.79376 325.54376 565.91876 326.09064Q565.0594 326.6375 564.09064 326.6375Q563.3875 326.6375 562.825 326.34064Q562.27814 326.04376 561.91876 325.59064L561.91876 329.6375L560.5125 329.6375ZM561.77814 322.34064Q561.77814 323.95 562.41876 324.71564Q563.075 325.48126 563.9969 325.48126Q564.9344 325.48126 565.60626 324.6844Q566.27814 323.8875 566.27814 322.23126Q566.27814 320.6375 565.6219 319.85626Q564.96564 319.0594 564.0594 319.0594Q563.16876 319.0594 562.46564 319.90314Q561.77814 320.7469 561.77814 322.34064ZM569.48126 326.45L569.48126 314.9969L570.8875 314.9969L570.8875 326.45L569.48126 326.45ZM579.1844 323.77814L580.6375 323.95Q580.29376 325.23126 579.35626 325.9344Q578.4344 326.6375 576.9969 326.6375Q575.16876 326.6375 574.10626 325.5125Q573.04376 324.3875 573.04376 322.3719Q573.04376 320.27814 574.1219 319.1219Q575.2 317.96564 576.91876 317.96564Q578.575 317.96564 579.6219 319.10626Q580.6844 320.23126 580.6844 322.27814Q580.6844 322.40314 580.6844 322.65314L574.4969 322.65314Q574.575 324.02814 575.2625 324.7625Q575.96564 325.48126 576.9969 325.48126Q577.77814 325.48126 578.325 325.075Q578.8719 324.66876 579.1844 323.77814ZM574.575 321.4969L579.2 321.4969Q579.10626 320.45 578.66876 319.9344Q577.9969 319.1219 576.9344 319.1219Q575.96564 319.1219 575.29376 319.77814Q574.6375 320.41876 574.575 321.4969Z" fill-rule="nonzero"/><path fill="#9e9e9e" d="M539.27814 342.23126Q538.40314 341.91876 537.98126 341.325Q537.5594 340.73126 537.5594 339.90314Q537.5594 338.65314 538.45 337.8094Q539.35626 336.95 540.85626 336.95Q542.35626 336.95 543.2625 337.825Q544.1844 338.6844 544.1844 339.9344Q544.1844 340.73126 543.7625 341.325Q543.34064 341.91876 542.4969 342.23126Q543.54376 342.575 544.09064 343.34064Q544.65314 344.10626 544.65314 345.16876Q544.65314 346.6375 543.60626 347.65314Q542.575 348.65314 540.8719 348.65314Q539.1844 348.65314 538.1375 347.65314Q537.10626 346.6375 537.10626 345.1375Q537.10626 344.0125 537.66876 343.2625Q538.23126 342.5125 539.27814 342.23126ZM538.9969 339.85626Q538.9969 340.66876 539.5125 341.1844Q540.04376 341.7 540.8875 341.7Q541.7 341.7 542.21564 341.1844Q542.73126 340.66876 542.73126 339.9344Q542.73126 339.15314 542.2 338.6375Q541.66876 338.10626 540.8719 338.10626Q540.0594 338.10626 539.52814 338.6219Q538.9969 339.1375 538.9969 339.85626ZM538.54376 345.1375Q538.54376 345.7469 538.825 346.3094Q539.1219 346.8719 539.6844 347.1844Q540.2469 347.48126 540.8875 347.48126Q541.90314 347.48126 542.5594 346.84064Q543.21564 346.1844 543.21564 345.1844Q543.21564 344.16876 542.52814 343.5125Q541.85626 342.84064 540.84064 342.84064Q539.85626 342.84064 539.2 343.4969Q538.54376 344.15314 538.54376 345.1375ZM546.1219 342.79376Q546.1219 340.7625 546.52814 339.52814Q546.95 338.29376 547.77814 337.6219Q548.60626 336.95 549.85626 336.95Q550.77814 336.95 551.46564 337.325Q552.16876 337.6844 552.6219 338.3875Q553.075 339.09064 553.325 340.09064Q553.59064 341.09064 553.59064 342.79376Q553.59064 344.8094 553.16876 346.0594Q552.7625 347.29376 551.9344 347.98126Q551.10626 348.65314 549.85626 348.65314Q548.2 348.65314 547.2469 347.45Q546.1219 346.02814 546.1219 342.79376ZM547.5594 342.79376Q547.5594 345.6219 548.21564 346.5594Q548.8875 347.48126 549.85626 347.48126Q550.825 347.48126 551.48126 346.54376Q552.1375 345.60626 552.1375 342.79376Q552.1375 339.96564 551.48126 339.04376Q550.825 338.10626 549.84064 338.10626Q548.8719 338.10626 548.29376 338.9344Q547.5594 339.98126 547.5594 342.79376ZM555.90314 348.45L555.90314 346.84064L557.5125 346.84064L557.5125 348.45L555.90314 348.45ZM559.1219 342.79376Q559.1219 340.7625 559.52814 339.52814Q559.95 338.29376 560.77814 337.6219Q561.60626 336.95 562.85626 336.95Q563.77814 336.95 564.46564 337.325Q565.16876 337.6844 565.6219 338.3875Q566.075 339.09064 566.325 340.09064Q566.59064 341.09064 566.59064 342.79376Q566.59064 344.8094 566.16876 346.0594Q565.7625 347.29376 564.9344 347.98126Q564.10626 348.65314 562.85626 348.65314Q561.2 348.65314 560.2469 347.45Q559.1219 346.02814 559.1219 342.79376ZM560.5594 342.79376Q560.5594 345.6219 561.21564 346.5594Q561.8875 347.48126 562.85626 347.48126Q563.825 347.48126 564.48126 346.54376Q565.1375 345.60626 565.1375 342.79376Q565.1375 339.96564 564.48126 339.04376Q563.825 338.10626 562.84064 338.10626Q561.8719 338.10626 561.29376 338.9344Q560.5594 339.98126 560.5594 342.79376ZM568.3875 339.7469Q568.3875 338.5125 568.9969 337.65314Q569.6219 336.79376 570.79376 336.79376Q571.8719 336.79376 572.575 337.575Q573.27814 338.34064 573.27814 339.825Q573.27814 341.27814 572.5594 342.075Q571.85626 342.85626 570.8094 342.85626Q569.7625 342.85626 569.075 342.09064Q568.3875 341.3094 568.3875 339.7469ZM570.825 337.7625Q570.3094 337.7625 569.95 338.21564Q569.60626 338.66876 569.60626 339.8875Q569.60626 340.98126 569.95 341.4344Q570.3094 341.8875 570.825 341.8875Q571.35626 341.8875 571.7 341.4344Q572.0594 340.98126 572.0594 339.77814Q572.0594 338.66876 571.7 338.21564Q571.35626 337.7625 570.825 337.7625ZM570.84064 348.8719L577.10626 336.79376L578.2469 336.79376L571.9969 348.8719L570.84064 348.8719ZM575.79376 345.7625Q575.79376 344.52814 576.40314 343.66876Q577.02814 342.8094 578.2 342.8094Q579.27814 342.8094 579.98126 343.59064Q580.7 344.35626 580.7 345.84064Q580.7 347.29376 579.98126 348.09064Q579.2625 348.8719 578.21564 348.8719Q577.16876 348.8719 576.48126 348.09064Q575.79376 347.3094 575.79376 345.7625ZM578.2469 343.77814Q577.71564 343.77814 577.35626 344.23126Q577.0125 344.6844 577.0125 345.90314Q577.0125 346.9969 577.35626 347.45Q577.71564 347.90314 578.23126 347.90314Q578.77814 347.90314 579.1219 347.45Q579.46564 346.9969 579.46564 345.79376Q579.46564 344.6844 579.10626 344.23126Q578.7625 343.77814 578.2469 343.77814Z" fill-rule="nonzero"/><path stroke="#757575" stroke-width="1.0" stroke-linecap="butt" d="M581.45 331.95L454.76666 331.95L317.71313 343.89725" fill-rule="nonzero"/><path fill="#9e9e9e" d="M319.71313 343.89725C319.71313 342.7927 318.81772 341.89725 317.71313 341.89725C316.60858 341.89725 315.71313 342.7927 315.71313 343.89725C315.71313 345.00183 316.60858 345.89725 317.71313 345.89725C318.81772 345.89725 319.71313 345.00183 319.71313 343.89725" fill-rule="nonzero"/><path fill="#f3f3f3" d="M265.98438 37.55L265.98438 23.2375L268.84375 23.2375L272.21875 33.3625Q272.6875 34.784374 272.90625 35.4875Q273.15625 34.70625 273.67188 33.190624L277.09375 23.2375L279.64062 23.2375L279.64062 37.55L277.82812 37.55L277.82812 25.565624L273.65625 37.55L271.95312 37.55L267.8125 25.3625L267.8125 37.55L265.98438 37.55ZM289.92188 34.20625L291.73438 34.440624Q291.3125 36.01875 290.14062 36.909374Q288.98438 37.784374 287.17188 37.784374Q284.90625 37.784374 283.5625 36.39375Q282.23438 34.9875 282.23438 32.45625Q282.23438 29.83125 283.57812 28.39375Q284.92188 26.940624 287.07812 26.940624Q289.15625 26.940624 290.46875 28.3625Q291.79688 29.76875 291.79688 32.346874Q291.79688 32.503124 291.78125 32.815624L284.04688 32.815624Q284.14062 34.51875 285.01562 35.425Q285.89062 36.33125 287.1875 36.33125Q288.15625 36.33125 288.82812 35.83125Q289.51562 35.315624 289.92188 34.20625ZM284.14062 31.3625L289.9375 31.3625Q289.82812 30.065624 289.28125 29.409374Q288.4375 28.39375 287.09375 28.39375Q285.89062 28.39375 285.0625 29.20625Q284.23438 30.003124 284.14062 31.3625ZM300.54688 37.55L300.54688 36.2375Q299.5625 37.784374 297.64062 37.784374Q296.40625 37.784374 295.35938 37.096874Q294.32812 36.409374 293.75 35.190624Q293.1875 33.971874 293.1875 32.378124Q293.1875 30.815624 293.70312 29.55Q294.21875 28.284374 295.25 27.6125Q296.29688 26.940624 297.5625 26.940624Q298.5 26.940624 299.23438 27.346874Q299.96875 27.7375 300.4375 28.3625L300.4375 23.2375L302.17188 23.2375L302.17188 37.55L300.54688 37.55ZM294.98438 32.378124Q294.98438 34.3625 295.82812 35.346874Q296.67188 36.33125 297.8125 36.33125Q298.96875 36.33125 299.76562 35.39375Q300.57812 34.45625 300.57812 32.51875Q300.57812 30.39375 299.75 29.39375Q298.9375 28.39375 297.73438 28.39375Q296.5625 28.39375 295.76562 29.3625Q294.98438 30.315624 294.98438 32.378124ZM304.82812 25.253124L304.82812 23.2375L306.59375 23.2375L306.59375 25.253124L304.82812 25.253124ZM304.82812 37.55L304.82812 27.175L306.59375 27.175L306.59375 37.55L304.82812 37.55ZM315.60938 37.55L315.60938 36.01875Q314.40625 37.784374 312.32812 37.784374Q311.40625 37.784374 310.60938 37.440624Q309.8125 37.08125 309.42188 36.55Q309.04688 36.01875 308.89062 35.2375Q308.78125 34.721874 308.78125 33.596874L308.78125 27.175L310.53125 27.175L310.53125 32.925Q310.53125 34.3 310.64062 34.784374Q310.8125 35.471874 311.34375 35.878124Q311.89062 36.26875 312.67188 36.26875Q313.46875 36.26875 314.15625 35.8625Q314.85938 35.45625 315.14062 34.76875Q315.4375 34.065624 315.4375 32.7375L315.4375 27.175L317.1875 27.175L317.1875 37.55L315.60938 37.55ZM319.8125 37.55L319.8125 27.175L321.39062 27.175L321.39062 28.628124Q321.875 27.878124 322.6875 27.409374Q323.5 26.940624 324.53125 26.940624Q325.6875 26.940624 326.42188 27.425Q327.15625 27.89375 327.46875 28.753124Q328.70312 26.940624 330.67188 26.940624Q332.21875 26.940624 333.04688 27.8Q333.875 28.659374 333.875 30.425L333.875 37.55L332.125 37.55L332.125 31.01875Q332.125 29.95625 331.95312 29.503124Q331.78125 29.034374 331.32812 28.753124Q330.89062 28.471874 330.28125 28.471874Q329.1875 28.471874 328.45312 29.20625Q327.73438 29.925 327.73438 31.51875L327.73438 37.55L325.98438 37.55L325.98438 30.815624Q325.98438 29.64375 325.54688 29.065624Q325.125 28.471874 324.14062 28.471874Q323.40625 28.471874 322.76562 28.8625Q322.14062 29.253124 321.85938 30.003124Q321.57812 30.753124 321.57812 32.175L321.57812 37.55L319.8125 37.55Z" fill-rule="nonzero"/></svg>