<svg version="1.1" viewBox="0.0 0.0 600.0 371.0" fill="none" stroke="none" stroke-linecap="square" stroke-miterlimit="10" width="600" height="371" xmlns:xlink="http://www.w3.org/1999/xlink" xmlns="http://www.w3.org/2000/svg"><path fill="#ffffff" fill-opacity="0.0" d="M0 0L600.0 0L600.0 371.0L0 371.0L0 0Z" fill-rule="nonzero"/><path fill="#4571b0" d="M300.0 54.916668C353.1492 54.916668 402.2611 83.27143 428.83572 129.3C455.4103 175.32857 455.4103 232.0381 428.83572 278.06668L364.41785 240.875C377.70517 217.86072 377.70517 189.50595 364.41785 166.49167C351.13055 143.47739 326.57462 129.3 300.0 129.3Z" fill-rule="nonzero"/><path fill="#2d4d98" d="M428.83572 278.06668C402.2611 324.09525 353.1492 352.45 300.0 352.45L300.0 278.06668C326.57462 278.06668 351.13055 263.88928 364.41785 240.875Z" fill-rule="nonzero"/><path fill="#78a94e" d="M300.0 352.45C217.83844 352.45 151.23334 285.8449 151.23334 203.68333C151.23334 121.521774 217.83844 54.916668 300.0 54.916668L300.0 129.3C258.91922 129.3 225.61667 162.60255 225.61667 203.68333C225.61667 244.76411 258.91922 278.06668 300.0 278.06668Z" fill-rule="nonzero"/><path fill="#ffffff" d="M371.87677 150.98958L373.47052 150.78645Q373.73615 152.1302 374.3924 152.72395Q375.04865 153.3177 375.98615 153.3177Q377.11115 153.3177 377.87677 152.55208Q378.6424 151.77083 378.6424 150.6302Q378.6424 149.53645 377.92365 148.83333Q377.22052 148.11458 376.12677 148.11458Q375.67365 148.11458 375.00177 148.30208L375.17365 146.91145Q375.3299 146.92708 375.43927 146.92708Q376.43927 146.92708 377.25177 146.39583Q378.06427 145.86458 378.06427 144.77083Q378.06427 143.89583 377.47052 143.33333Q376.87677 142.7552 375.9549 142.7552Q375.03302 142.7552 374.40802 143.33333Q373.79865 143.91145 373.62677 145.08333L372.04865 144.80208Q372.3299 143.20833 373.36115 142.33333Q374.3924 141.45833 375.92365 141.45833Q376.97052 141.45833 377.86115 141.91145Q378.75177 142.36458 379.22052 143.14583Q379.68927 143.92708 379.68927 144.80208Q379.68927 145.64583 379.23615 146.33333Q378.79865 147.0052 377.90802 147.41145Q379.04865 147.67708 379.67365 148.52083Q380.31427 149.34895 380.31427 150.58333Q380.31427 152.27083 379.0799 153.45833Q377.86115 154.6302 375.98615 154.6302Q374.28302 154.6302 373.15802 153.61458Q372.04865 152.59895 371.87677 150.98958ZM381.87677 150.98958L383.47052 150.78645Q383.73615 152.1302 384.3924 152.72395Q385.04865 153.3177 385.98615 153.3177Q387.11115 153.3177 387.87677 152.55208Q388.6424 151.77083 388.6424 150.6302Q388.6424 149.53645 387.92365 148.83333Q387.22052 148.11458 386.12677 148.11458Q385.67365 148.11458 385.00177 148.30208L385.17365 146.91145Q385.3299 146.92708 385.43927 146.92708Q386.43927 146.92708 387.25177 146.39583Q388.06427 145.86458 388.06427 144.77083Q388.06427 143.89583 387.47052 143.33333Q386.87677 142.7552 385.9549 142.7552Q385.03302 142.7552 384.40802 143.33333Q383.79865 143.91145 383.62677 145.08333L382.04865 144.80208Q382.3299 143.20833 383.36115 142.33333Q384.3924 141.45833 385.92365 141.45833Q386.97052 141.45833 387.86115 141.91145Q388.75177 142.36458 389.22052 143.14583Q389.68927 143.92708 389.68927 144.80208Q389.68927 145.64583 389.23615 146.33333Q388.79865 147.0052 387.90802 147.41145Q389.04865 147.67708 389.67365 148.52083Q390.31427 149.34895 390.31427 150.58333Q390.31427 152.27083 389.0799 153.45833Q387.86115 154.6302 385.98615 154.6302Q384.28302 154.6302 383.15802 153.61458Q382.04865 152.59895 381.87677 150.98958ZM392.7674 154.39583L392.7674 152.59895L394.56427 152.59895L394.56427 154.39583L392.7674 154.39583ZM396.87677 150.98958L398.47052 150.78645Q398.73615 152.1302 399.3924 152.72395Q400.04865 153.3177 400.98615 153.3177Q402.11115 153.3177 402.87677 152.55208Q403.6424 151.77083 403.6424 150.6302Q403.6424 149.53645 402.92365 148.83333Q402.22052 148.11458 401.12677 148.11458Q400.67365 148.11458 400.00177 148.30208L400.17365 146.91145Q400.3299 146.92708 400.43927 146.92708Q401.43927 146.92708 402.25177 146.39583Q403.06427 145.86458 403.06427 144.77083Q403.06427 143.89583 402.47052 143.33333Q401.87677 142.7552 400.9549 142.7552Q400.03302 142.7552 399.40802 143.33333Q398.79865 143.91145 398.62677 145.08333L397.04865 144.80208Q397.3299 143.20833 398.36115 142.33333Q399.3924 141.45833 400.92365 141.45833Q401.97052 141.45833 402.86115 141.91145Q403.75177 142.36458 404.22052 143.14583Q404.68927 143.92708 404.68927 144.80208Q404.68927 145.64583 404.23615 146.33333Q403.79865 147.0052 402.90802 147.41145Q404.04865 147.67708 404.67365 148.52083Q405.31427 149.34895 405.31427 150.58333Q405.31427 152.27083 404.0799 153.45833Q402.86115 154.6302 400.98615 154.6302Q399.28302 154.6302 398.15802 153.61458Q397.04865 152.59895 396.87677 150.98958ZM407.17365 144.59895Q407.17365 143.22395 407.86115 142.2552Q408.56427 141.28645 409.87677 141.28645Q411.09552 141.28645 411.8924 142.16145Q412.68927 143.02083 412.68927 144.70833Q412.68927 146.33333 411.87677 147.22395Q411.0799 148.09895 409.8924 148.09895Q408.73615 148.09895 407.9549 147.23958Q407.17365 146.36458 407.17365 144.59895ZM409.92365 142.3802Q409.3299 142.3802 408.93927 142.89583Q408.54865 143.39583 408.54865 144.7552Q408.54865 146.0052 408.93927 146.5052Q409.34552 147.0052 409.92365 147.0052Q410.5174 147.0052 410.90802 146.5052Q411.29865 145.98958 411.29865 144.64583Q411.29865 143.39583 410.90802 142.89583Q410.5174 142.3802 409.92365 142.3802ZM409.93927 154.86458L416.98615 141.28645L418.2674 141.28645L411.23615 154.86458L409.93927 154.86458ZM415.50177 151.36458Q415.50177 149.98958 416.18927 149.02083Q416.8924 148.05208 418.22052 148.05208Q419.43927 148.05208 420.22052 148.92708Q421.0174 149.78645 421.0174 151.47395Q421.0174 153.09895 420.22052 153.98958Q419.42365 154.86458 418.23615 154.86458Q417.06427 154.86458 416.28302 153.98958Q415.50177 153.11458 415.50177 151.36458ZM418.2674 149.14583Q417.67365 149.14583 417.28302 149.66145Q416.8924 150.16145 416.8924 151.53645Q416.8924 152.7552 417.28302 153.27083Q417.67365 153.78645 418.25177 153.78645Q418.86115 153.78645 419.25177 153.27083Q419.6424 152.7552 419.6424 151.41145Q419.6424 150.16145 419.25177 149.66145Q418.86115 149.14583 418.2674 149.14583Z" fill-rule="nonzero"/><path fill="#ffffff" d="M336.99063 306.81012L335.4125 306.81012L335.4125 296.732Q334.83438 297.27887 333.9125 297.82574Q332.99063 298.357 332.24063 298.63824L332.24063 297.107Q333.56876 296.482 334.56876 295.59137Q335.56876 294.70074 335.975 293.87262L336.99063 293.87262L336.99063 306.81012ZM349.24063 297.07574L347.67813 297.20074Q347.45938 296.27887 347.06876 295.857Q346.42813 295.1695 345.49063 295.1695Q344.74063 295.1695 344.1625 295.59137Q343.4125 296.13824 342.975 297.18512Q342.55313 298.232 342.5375 300.1695Q343.11563 299.2945 343.92813 298.87262Q344.75626 298.45074 345.6625 298.45074Q347.25626 298.45074 348.36563 299.62262Q349.475 300.77887 349.475 302.62262Q349.475 303.84137 348.94376 304.88824Q348.42813 305.9195 347.50626 306.482Q346.6 307.02887 345.44376 307.02887Q343.45938 307.02887 342.20938 305.57574Q340.95938 304.12262 340.95938 300.77887Q340.95938 297.0445 342.35 295.34137Q343.55313 293.87262 345.58438 293.87262Q347.11563 293.87262 348.08438 294.732Q349.05313 295.57574 349.24063 297.07574ZM342.7875 302.63824Q342.7875 303.45074 343.13126 304.20074Q343.475 304.95074 344.1 305.34137Q344.725 305.732 345.4125 305.732Q346.4125 305.732 347.13126 304.9195Q347.85 304.107 347.85 302.71637Q347.85 301.38824 347.13126 300.62262Q346.42813 299.84137 345.35 299.84137Q344.27188 299.84137 343.52188 300.62262Q342.7875 301.38824 342.7875 302.63824ZM351.92813 306.81012L351.92813 305.01324L353.725 305.01324L353.725 306.81012L351.92813 306.81012ZM356.14688 295.607L356.14688 294.09137L364.475 294.09137L364.475 295.32574Q363.25626 296.63824 362.0375 298.81012Q360.83438 300.96637 360.17813 303.26324Q359.69376 304.88824 359.56876 306.81012L357.94376 306.81012Q357.975 305.2945 358.5375 303.13824Q359.11563 300.982 360.17813 298.982Q361.24063 296.982 362.44376 295.607L356.14688 295.607ZM366.33438 297.01324Q366.33438 295.63824 367.02188 294.6695Q367.725 293.70074 369.0375 293.70074Q370.25626 293.70074 371.05313 294.57574Q371.85 295.43512 371.85 297.12262Q371.85 298.74762 371.0375 299.63824Q370.24063 300.51324 369.05313 300.51324Q367.89688 300.51324 367.11563 299.65387Q366.33438 298.77887 366.33438 297.01324ZM369.08438 294.7945Q368.49063 294.7945 368.1 295.31012Q367.70938 295.81012 367.70938 297.1695Q367.70938 298.4195 368.1 298.9195Q368.50626 299.4195 369.08438 299.4195Q369.67813 299.4195 370.06876 298.9195Q370.45938 298.40387 370.45938 297.06012Q370.45938 295.81012 370.06876 295.31012Q369.67813 294.7945 369.08438 294.7945ZM369.1 307.27887L376.14688 293.70074L377.42813 293.70074L370.39688 307.27887L369.1 307.27887ZM374.6625 303.77887Q374.6625 302.40387 375.35 301.43512Q376.05313 300.46637 377.38126 300.46637Q378.6 300.46637 379.38126 301.34137Q380.17813 302.20074 380.17813 303.88824Q380.17813 305.51324 379.38126 306.40387Q378.58438 307.27887 377.39688 307.27887Q376.225 307.27887 375.44376 306.40387Q374.6625 305.52887 374.6625 303.77887ZM377.42813 301.56012Q376.83438 301.56012 376.44376 302.07574Q376.05313 302.57574 376.05313 303.95074Q376.05313 305.1695 376.44376 305.68512Q376.83438 306.20074 377.4125 306.20074Q378.02188 306.20074 378.4125 305.68512Q378.80313 305.1695 378.80313 303.82574Q378.80313 302.57574 378.4125 302.07574Q378.02188 301.56012 377.42813 301.56012Z" fill-rule="nonzero"/><path fill="#ffffff" d="M163.675 206.80833L165.33125 206.66771Q165.51875 207.88646 166.19063 208.49583Q166.8625 209.10521 167.81563 209.10521Q168.95625 209.10521 169.7375 208.24583Q170.53438 207.38646 170.53438 205.94896Q170.53438 204.60521 169.76875 203.82396Q169.01875 203.04271 167.78438 203.04271Q167.01875 203.04271 166.39375 203.38646Q165.78438 203.73021 165.44063 204.29271L163.95625 204.08958L165.20625 197.48021L171.6125 197.48021L171.6125 198.98021L166.47188 198.98021L165.76875 202.44896Q166.94063 201.63646 168.20625 201.63646Q169.89375 201.63646 171.05 202.80833Q172.22188 203.98021 172.22188 205.80833Q172.22188 207.55833 171.19063 208.83958Q169.95625 210.40208 167.81563 210.40208Q166.05 210.40208 164.94063 209.41771Q163.83125 208.43333 163.675 206.80833ZM173.675 203.82396Q173.675 201.54271 174.14375 200.15208Q174.6125 198.76146 175.53438 198.01146Q176.47188 197.24583 177.87813 197.24583Q178.90938 197.24583 179.69063 197.66771Q180.47188 198.07396 180.97188 198.87083Q181.4875 199.65208 181.78438 200.79271Q182.08125 201.91771 182.08125 203.82396Q182.08125 206.08958 181.6125 207.49583Q181.14375 208.88646 180.20625 209.65208Q179.28438 210.40208 177.87813 210.40208Q176.00313 210.40208 174.94063 209.07396Q173.675 207.46458 173.675 203.82396ZM175.3 203.82396Q175.3 206.99583 176.03438 208.05833Q176.78438 209.10521 177.87813 209.10521Q178.95625 209.10521 179.70625 208.05833Q180.45625 206.99583 180.45625 203.82396Q180.45625 200.65208 179.70625 199.60521Q178.95625 198.55833 177.8625 198.55833Q176.76875 198.55833 176.1125 199.48021Q175.3 200.65208 175.3 203.82396ZM184.56563 210.18333L184.56563 208.38646L186.3625 208.38646L186.3625 210.18333L184.56563 210.18333ZM188.675 203.82396Q188.675 201.54271 189.14375 200.15208Q189.6125 198.76146 190.53438 198.01146Q191.47188 197.24583 192.87813 197.24583Q193.90938 197.24583 194.69063 197.66771Q195.47188 198.07396 195.97188 198.87083Q196.4875 199.65208 196.78438 200.79271Q197.08125 201.91771 197.08125 203.82396Q197.08125 206.08958 196.6125 207.49583Q196.14375 208.88646 195.20625 209.65208Q194.28438 210.40208 192.87813 210.40208Q191.00313 210.40208 189.94063 209.07396Q188.675 207.46458 188.675 203.82396ZM190.3 203.82396Q190.3 206.99583 191.03438 208.05833Q191.78438 209.10521 192.87813 209.10521Q193.95625 209.10521 194.70625 208.05833Q195.45625 206.99583 195.45625 203.82396Q195.45625 200.65208 194.70625 199.60521Q193.95625 198.55833 192.8625 198.55833Q191.76875 198.55833 191.1125 199.48021Q190.3 200.65208 190.3 203.82396ZM198.97188 200.38646Q198.97188 199.01146 199.65938 198.04271Q200.3625 197.07396 201.675 197.07396Q202.89375 197.07396 203.69063 197.94896Q204.4875 198.80833 204.4875 200.49583Q204.4875 202.12083 203.675 203.01146Q202.87813 203.88646 201.69063 203.88646Q200.53438 203.88646 199.75313 203.02708Q198.97188 202.15208 198.97188 200.38646ZM201.72188 198.16771Q201.12813 198.16771 200.7375 198.68333Q200.34688 199.18333 200.34688 200.54271Q200.34688 201.79271 200.7375 202.29271Q201.14375 202.79271 201.72188 202.79271Q202.31563 202.79271 202.70625 202.29271Q203.09688 201.77708 203.09688 200.43333Q203.09688 199.18333 202.70625 198.68333Q202.31563 198.16771 201.72188 198.16771ZM201.7375 210.65208L208.78438 197.07396L210.06563 197.07396L203.03438 210.65208L201.7375 210.65208ZM207.3 207.15208Q207.3 205.77708 207.9875 204.80833Q208.69063 203.83958 210.01875 203.83958Q211.2375 203.83958 212.01875 204.71458Q212.81563 205.57396 212.81563 207.26146Q212.81563 208.88646 212.01875 209.77708Q211.22188 210.65208 210.03438 210.65208Q208.8625 210.65208 208.08125 209.77708Q207.3 208.90208 207.3 207.15208ZM210.06563 204.93333Q209.47188 204.93333 209.08125 205.44896Q208.69063 205.94896 208.69063 207.32396Q208.69063 208.54271 209.08125 209.05833Q209.47188 209.57396 210.05 209.57396Q210.65938 209.57396 211.05 209.05833Q211.44063 208.54271 211.44063 207.19896Q211.44063 205.94896 211.05 205.44896Q210.65938 204.93333 210.06563 204.93333Z" fill-rule="nonzero"/><path stroke="#ffffff" stroke-width="1.0" stroke-linejoin="round" stroke-linecap="round" d="M364.41785 240.875C377.70517 217.86072 377.70517 189.50595 364.41785 166.49167C351.13055 143.47739 326.57462 129.3 300.0 129.3L300.0 54.916668C353.1492 54.916668 402.2611 83.27143 428.83572 129.3C455.4103 175.32857 455.4103 232.0381 428.83572 278.06668" fill-rule="nonzero"/><path stroke="#ffffff" stroke-width="1.0" stroke-linejoin="round" stroke-linecap="round" d="M300.0 278.06668C326.57462 278.06668 351.13055 263.88928 364.41785 240.875L428.83572 278.06668C402.2611 324.09525 353.1492 352.45 300.0 352.45" fill-rule="nonzero"/><path stroke="#ffffff" stroke-width="1.0" stroke-linejoin="round" stroke-linecap="round" d="M300.0 129.3C258.91922 129.3 225.61667 162.60255 225.61667 203.68333C225.61667 244.76411 258.91922 278.06668 300.0 278.06668L300.0 352.45C217.83844 352.45 151.23334 285.8449 151.23334 203.68333C151.23334 121.521774 217.83844 54.916668 300.0 54.916668" fill-rule="nonzero"/><path fill="#efefef" d="M18.51875 198.18333L22.925 186.73021L24.565624 186.73021L29.253124 198.18333L27.51875 198.18333L26.190624 194.71458L21.39375 194.71458L20.14375 198.18333L18.51875 198.18333ZM21.83125 193.48021L25.721874 193.48021L24.51875 190.30833Q23.971874 188.85521 23.70625 187.93333Q23.4875 189.02708 23.096874 190.12083L21.83125 193.48021ZM30.596874 198.18333L30.596874 189.88646L31.8625 189.88646L31.8625 191.13646Q32.346874 190.26146 32.753124 189.98021Q33.159374 189.69896 33.659374 189.69896Q34.3625 189.69896 35.096874 190.15208L34.6125 191.44896Q34.096874 191.15208 33.58125 191.15208Q33.128124 191.15208 32.753124 191.43333Q32.39375 191.69896 32.2375 192.19896Q32.003124 192.94896 32.003124 193.83958L32.003124 198.18333L30.596874 198.18333ZM41.01875 195.13646L42.409374 195.32396Q42.175 196.74583 41.2375 197.55833Q40.315624 198.37083 38.95625 198.37083Q37.253124 198.37083 36.20625 197.26146Q35.175 196.13646 35.175 194.05833Q35.175 192.71458 35.6125 191.71458Q36.065624 190.69896 36.971874 190.19896Q37.89375 189.69896 38.95625 189.69896Q40.315624 189.69896 41.175 190.38646Q42.034374 191.05833 42.26875 192.32396L40.909374 192.52708Q40.70625 191.69896 40.20625 191.27708Q39.721874 190.85521 39.01875 190.85521Q37.95625 190.85521 37.284374 191.62083Q36.628124 192.37083 36.628124 194.02708Q36.628124 195.69896 37.26875 196.46458Q37.909374 197.21458 38.940624 197.21458Q39.76875 197.21458 40.315624 196.71458Q40.878124 196.19896 41.01875 195.13646ZM43.6125 198.18333L43.6125 186.73021L45.01875 186.73021L45.01875 190.83958Q46.003124 189.69896 47.503124 189.69896Q48.425 189.69896 49.096874 190.05833Q49.784374 190.41771 50.065624 191.05833Q50.3625 191.69896 50.3625 192.91771L50.3625 198.18333L48.95625 198.18333L48.95625 192.91771Q48.95625 191.87083 48.503124 191.38646Q48.05 190.90208 47.20625 190.90208Q46.58125 190.90208 46.034374 191.23021Q45.4875 191.55833 45.253124 192.12083Q45.01875 192.66771 45.01875 193.63646L45.01875 198.18333L43.6125 198.18333ZM52.6125 188.33958L52.6125 186.73021L54.01875 186.73021L54.01875 188.33958L52.6125 188.33958ZM52.6125 198.18333L52.6125 189.88646L54.01875 189.88646L54.01875 198.18333L52.6125 198.18333ZM59.675 196.91771L59.878124 198.16771Q59.284374 198.29271 58.815624 198.29271Q58.05 198.29271 57.628124 198.05833Q57.20625 197.80833 57.034374 197.41771Q56.8625 197.01146 56.8625 195.74583L56.8625 190.98021L55.83125 190.98021L55.83125 189.88646L56.8625 189.88646L56.8625 187.82396L58.26875 186.98021L58.26875 189.88646L59.675 189.88646L59.675 190.98021L58.26875 190.98021L58.26875 195.82396Q58.26875 196.43333 58.33125 196.60521Q58.409374 196.77708 58.58125 196.88646Q58.753124 196.98021 59.065624 196.98021Q59.3 196.98021 59.675 196.91771ZM66.28438 195.51146L67.7375 195.68333Q67.39375 196.96458 66.45625 197.66771Q65.53438 198.37083 64.09688 198.37083Q62.26875 198.37083 61.20625 197.24583Q60.14375 196.12083 60.14375 194.10521Q60.14375 192.01146 61.221874 190.85521Q62.3 189.69896 64.01875 189.69896Q65.675 189.69896 66.72188 190.83958Q67.78438 191.96458 67.78438 194.01146Q67.78438 194.13646 67.78438 194.38646L61.596874 194.38646Q61.675 195.76146 62.3625 196.49583Q63.065624 197.21458 64.09688 197.21458Q64.87813 197.21458 65.425 196.80833Q65.97188 196.40208 66.28438 195.51146ZM61.675 193.23021L66.3 193.23021Q66.20625 192.18333 65.76875 191.66771Q65.09688 190.85521 64.03438 190.85521Q63.065624 190.85521 62.39375 191.51146Q61.7375 192.15208 61.675 193.23021ZM75.01875 195.13646L76.40938 195.32396Q76.175 196.74583 75.2375 197.55833Q74.31563 198.37083 72.95625 198.37083Q71.25313 198.37083 70.20625 197.26146Q69.175 196.13646 69.175 194.05833Q69.175 192.71458 69.6125 191.71458Q70.06563 190.69896 70.97188 190.19896Q71.89375 189.69896 72.95625 189.69896Q74.31563 189.69896 75.175 190.38646Q76.03438 191.05833 76.26875 192.32396L74.90938 192.52708Q74.70625 191.69896 74.20625 191.27708Q73.72188 190.85521 73.01875 190.85521Q71.95625 190.85521 71.28438 191.62083Q70.62813 192.37083 70.62813 194.02708Q70.62813 195.69896 71.26875 196.46458Q71.90938 197.21458 72.94063 197.21458Q73.76875 197.21458 74.31563 196.71458Q74.87813 196.19896 75.01875 195.13646ZM80.675 196.91771L80.87813 198.16771Q80.28438 198.29271 79.81563 198.29271Q79.05 198.29271 78.62813 198.05833Q78.20625 197.80833 78.03438 197.41771Q77.8625 197.01146 77.8625 195.74583L77.8625 190.98021L76.83125 190.98021L76.83125 189.88646L77.8625 189.88646L77.8625 187.82396L79.26875 186.98021L79.26875 189.88646L80.675 189.88646L80.675 190.98021L79.26875 190.98021L79.26875 195.82396Q79.26875 196.43333 79.33125 196.60521Q79.40938 196.77708 79.58125 196.88646Q79.75313 196.98021 80.06563 196.98021Q80.3 196.98021 80.675 196.91771ZM87.05 198.18333L87.05 196.96458Q86.08125 198.37083 84.40938 198.37083Q83.675 198.37083 83.03438 198.08958Q82.40938 197.80833 82.09688 197.38646Q81.78438 196.94896 81.65938 196.33958Q81.58125 195.91771 81.58125 195.02708L81.58125 189.88646L82.9875 189.88646L82.9875 194.48021Q82.9875 195.58958 83.06563 195.96458Q83.20625 196.52708 83.62813 196.83958Q84.06563 197.15208 84.69063 197.15208Q85.33125 197.15208 85.87813 196.83958Q86.44063 196.51146 86.65938 195.94896Q86.89375 195.38646 86.89375 194.32396L86.89375 189.88646L88.3 189.88646L88.3 198.18333L87.05 198.18333ZM90.59688 198.18333L90.59688 189.88646L91.8625 189.88646L91.8625 191.13646Q92.34688 190.26146 92.75313 189.98021Q93.15938 189.69896 93.65938 189.69896Q94.3625 189.69896 95.09688 190.15208L94.6125 191.44896Q94.09688 191.15208 93.58125 191.15208Q93.12813 191.15208 92.75313 191.43333Q92.39375 191.69896 92.2375 192.19896Q92.00313 192.94896 92.00313 193.83958L92.00313 198.18333L90.59688 198.18333ZM101.28438 195.51146L102.7375 195.68333Q102.39375 196.96458 101.45625 197.66771Q100.53438 198.37083 99.09688 198.37083Q97.26875 198.37083 96.20625 197.24583Q95.14375 196.12083 95.14375 194.10521Q95.14375 192.01146 96.22188 190.85521Q97.3 189.69896 99.01875 189.69896Q100.675 189.69896 101.72188 190.83958Q102.78438 191.96458 102.78438 194.01146Q102.78438 194.13646 102.78438 194.38646L96.59688 194.38646Q96.675 195.76146 97.3625 196.49583Q98.06563 197.21458 99.09688 197.21458Q99.87813 197.21458 100.425 196.80833Q100.97188 196.40208 101.28438 195.51146ZM96.675 193.23021L101.3 193.23021Q101.20625 192.18333 100.76875 191.66771Q100.09688 190.85521 99.03438 190.85521Q98.06563 190.85521 97.39375 191.51146Q96.7375 192.15208 96.675 193.23021ZM115.15938 196.82396Q114.45625 197.60521 113.62813 197.99583Q112.81563 198.38646 111.8625 198.38646Q110.1125 198.38646 109.08125 197.18333Q108.2375 196.21458 108.2375 195.02708Q108.2375 193.96458 108.925 193.10521Q109.6125 192.24583 110.97188 191.60521Q110.19063 190.71458 109.925 190.16771Q109.675 189.60521 109.675 189.08958Q109.675 188.05833 110.4875 187.29271Q111.3 186.52708 112.51875 186.52708Q113.69063 186.52708 114.44063 187.24583Q115.19063 187.96458 115.19063 188.98021Q115.19063 190.60521 113.01875 191.76146L115.08125 194.38646Q115.425 193.69896 115.62813 192.79271L117.08125 193.10521Q116.70625 194.60521 116.06563 195.57396Q116.8625 196.62083 117.8625 197.32396L116.90938 198.44896Q116.06563 197.90208 115.15938 196.82396ZM112.3 190.85521Q113.20625 190.32396 113.47188 189.91771Q113.75313 189.51146 113.75313 189.01146Q113.75313 188.43333 113.37813 188.05833Q113.00313 187.68333 112.45625 187.68333Q111.87813 187.68333 111.50313 188.05833Q111.12813 188.41771 111.12813 188.94896Q111.12813 189.21458 111.25313 189.51146Q111.39375 189.80833 111.675 190.13646L112.3 190.85521ZM114.26875 195.71458L111.69063 192.52708Q110.55 193.19896 110.14375 193.79271Q109.75313 194.37083 109.75313 194.93333Q109.75313 195.63646 110.3 196.38646Q110.8625 197.13646 111.87813 197.13646Q112.51875 197.13646 113.19063 196.74583Q113.8625 196.33958 114.26875 195.71458Z" fill-rule="nonzero"/><path fill="#9e9e9e" d="M19.221874 217.18333L20.690624 217.05833Q20.8625 218.13646 21.45625 218.68333Q22.05 219.21458 22.89375 219.21458Q23.909374 219.21458 24.6125 218.44896Q25.315624 217.68333 25.315624 216.41771Q25.315624 215.21458 24.64375 214.52708Q23.971874 213.82396 22.878124 213.82396Q22.190624 213.82396 21.64375 214.13646Q21.096874 214.44896 20.784374 214.93333L19.471874 214.76146L20.58125 208.88646L26.26875 208.88646L26.26875 210.23021L21.70625 210.23021L21.08125 213.30833Q22.1125 212.58958 23.253124 212.58958Q24.753124 212.58958 25.784374 213.63646Q26.815624 214.66771 26.815624 216.29271Q26.815624 217.85521 25.909374 218.98021Q24.8 220.38646 22.89375 220.38646Q21.33125 220.38646 20.346874 219.51146Q19.3625 218.62083 19.221874 217.18333ZM28.221874 214.52708Q28.221874 212.49583 28.628124 211.26146Q29.05 210.02708 29.878124 209.35521Q30.70625 208.68333 31.95625 208.68333Q32.878124 208.68333 33.565624 209.05833Q34.26875 209.41771 34.721874 210.12083Q35.175 210.82396 35.425 211.82396Q35.690624 212.82396 35.690624 214.52708Q35.690624 216.54271 35.26875 217.79271Q34.8625 219.02708 34.034374 219.71458Q33.20625 220.38646 31.95625 220.38646Q30.3 220.38646 29.346874 219.18333Q28.221874 217.76146 28.221874 214.52708ZM29.659374 214.52708Q29.659374 217.35521 30.315624 218.29271Q30.9875 219.21458 31.95625 219.21458Q32.925 219.21458 33.58125 218.27708Q34.2375 217.33958 34.2375 214.52708Q34.2375 211.69896 33.58125 210.77708Q32.925 209.83958 31.940624 209.83958Q30.971874 209.83958 30.39375 210.66771Q29.659374 211.71458 29.659374 214.52708ZM38.003124 220.18333L38.003124 218.57396L39.6125 218.57396L39.6125 220.18333L38.003124 220.18333ZM41.221874 214.52708Q41.221874 212.49583 41.628124 211.26146Q42.05 210.02708 42.878124 209.35521Q43.70625 208.68333 44.95625 208.68333Q45.878124 208.68333 46.565624 209.05833Q47.26875 209.41771 47.721874 210.12083Q48.175 210.82396 48.425 211.82396Q48.690624 212.82396 48.690624 214.52708Q48.690624 216.54271 48.26875 217.79271Q47.8625 219.02708 47.034374 219.71458Q46.20625 220.38646 44.95625 220.38646Q43.3 220.38646 42.346874 219.18333Q41.221874 217.76146 41.221874 214.52708ZM42.659374 214.52708Q42.659374 217.35521 43.315624 218.29271Q43.9875 219.21458 44.95625 219.21458Q45.925 219.21458 46.58125 218.27708Q47.2375 217.33958 47.2375 214.52708Q47.2375 211.69896 46.58125 210.77708Q45.925 209.83958 44.940624 209.83958Q43.971874 209.83958 43.39375 210.66771Q42.659374 211.71458 42.659374 214.52708ZM50.4875 211.48021Q50.4875 210.24583 51.096874 209.38646Q51.721874 208.52708 52.89375 208.52708Q53.971874 208.52708 54.675 209.30833Q55.378124 210.07396 55.378124 211.55833Q55.378124 213.01146 54.659374 213.80833Q53.95625 214.58958 52.909374 214.58958Q51.8625 214.58958 51.175 213.82396Q50.4875 213.04271 50.4875 211.48021ZM52.925 209.49583Q52.409374 209.49583 52.05 209.94896Q51.70625 210.40208 51.70625 211.62083Q51.70625 212.71458 52.05 213.16771Q52.409374 213.62083 52.925 213.62083Q53.45625 213.62083 53.8 213.16771Q54.159374 212.71458 54.159374 211.51146Q54.159374 210.40208 53.8 209.94896Q53.45625 209.49583 52.925 209.49583ZM52.940624 220.60521L59.20625 208.52708L60.346874 208.52708L54.096874 220.60521L52.940624 220.60521ZM57.89375 217.49583Q57.89375 216.26146 58.503124 215.40208Q59.128124 214.54271 60.3 214.54271Q61.378124 214.54271 62.08125 215.32396Q62.8 216.08958 62.8 217.57396Q62.8 219.02708 62.08125 219.82396Q61.3625 220.60521 60.315624 220.60521Q59.26875 220.60521 58.58125 219.82396Q57.89375 219.04271 57.89375 217.49583ZM60.346874 215.51146Q59.815624 215.51146 59.45625 215.96458Q59.1125 216.41771 59.1125 217.63646Q59.1125 218.73021 59.45625 219.18333Q59.815624 219.63646 60.33125 219.63646Q60.878124 219.63646 61.221874 219.18333Q61.565624 218.73021 61.565624 217.52708Q61.565624 216.41771 61.20625 215.96458Q60.8625 215.51146 60.346874 215.51146Z" fill-rule="nonzero"/><path stroke="#757575" stroke-width="1.0" stroke-linecap="butt" d="M18.55 203.68333L145.23334 203.68333L158.67166 203.68333" fill-rule="nonzero"/><path fill="#9e9e9e" d="M160.67166 203.68333C160.67166 202.57877 159.77623 201.68333 158.67166 201.68333C157.5671 201.68333 156.67166 202.57877 156.67166 203.68333C156.67166 204.7879 157.5671 205.68333 158.67166 205.68333C159.77623 205.68333 160.67166 204.7879 160.67166 203.68333" fill-rule="nonzero"/><path fill="#efefef" d="M531.6375 127.519165L531.6375 116.06604L533.91876 116.06604L536.6375 124.175415Q537.0125 125.300415 537.1844 125.862915Q537.3719 125.237915 537.79376 124.03479L540.52814 116.06604L542.575 116.06604L542.575 127.519165L541.10626 127.519165L541.10626 117.925415L537.77814 127.519165L536.41876 127.519165L533.10626 117.769165L533.10626 127.519165L531.6375 127.519165ZM544.5125 117.675415L544.5125 116.06604L545.91876 116.06604L545.91876 117.675415L544.5125 117.675415ZM544.5125 127.519165L544.5125 119.22229L545.91876 119.22229L545.91876 127.519165L544.5125 127.519165ZM548.48126 127.519165L548.48126 116.06604L549.8875 116.06604L549.8875 127.519165L548.48126 127.519165ZM552.5125 117.675415L552.5125 116.06604L553.91876 116.06604L553.91876 117.675415L552.5125 117.675415ZM552.5125 127.519165L552.5125 119.22229L553.91876 119.22229L553.91876 127.519165L552.5125 127.519165ZM559.575 126.25354L559.77814 127.50354Q559.1844 127.62854 558.71564 127.62854Q557.95 127.62854 557.52814 127.394165Q557.10626 127.144165 556.9344 126.75354Q556.7625 126.34729 556.7625 125.081665L556.7625 120.31604L555.73126 120.31604L555.73126 119.22229L556.7625 119.22229L556.7625 117.15979L558.16876 116.31604L558.16876 119.22229L559.575 119.22229L559.575 120.31604L558.16876 120.31604L558.16876 125.15979Q558.16876 125.769165 558.23126 125.94104Q558.3094 126.112915 558.48126 126.22229Q558.65314 126.31604 558.96564 126.31604Q559.2 126.31604 559.575 126.25354ZM565.91876 126.487915Q565.1375 127.15979 564.41876 127.44104Q563.7 127.706665 562.8719 127.706665Q561.4969 127.706665 560.7625 127.03479Q560.02814 126.362915 560.02814 125.331665Q560.02814 124.72229 560.3094 124.22229Q560.59064 123.706665 561.02814 123.40979Q561.48126 123.09729 562.04376 122.94104Q562.46564 122.831665 563.29376 122.737915Q564.9969 122.53479 565.8094 122.25354Q565.8094 121.956665 565.8094 121.87854Q565.8094 121.019165 565.41876 120.675415Q564.8719 120.19104 563.8094 120.19104Q562.825 120.19104 562.34064 120.550415Q561.8719 120.894165 561.65314 121.769165L560.27814 121.581665Q560.46564 120.706665 560.8875 120.15979Q561.325 119.612915 562.1375 119.331665Q562.95 119.03479 564.0125 119.03479Q565.075 119.03479 565.73126 119.28479Q566.40314 119.53479 566.71564 119.90979Q567.02814 120.28479 567.15314 120.862915Q567.23126 121.22229 567.23126 122.15979L567.23126 124.03479Q567.23126 126.00354 567.3094 126.519165Q567.40314 127.03479 567.66876 127.519165L566.2 127.519165Q565.98126 127.081665 565.91876 126.487915ZM565.8094 123.34729Q565.04376 123.65979 563.5125 123.87854Q562.6375 124.00354 562.27814 124.15979Q561.91876 124.31604 561.71564 124.62854Q561.52814 124.925415 561.52814 125.28479Q561.52814 125.84729 561.95 126.22229Q562.3875 126.59729 563.2 126.59729Q564.0125 126.59729 564.6375 126.25354Q565.27814 125.894165 565.575 125.269165Q565.8094 124.800415 565.8094 123.862915L565.8094 123.34729ZM569.4969 127.519165L569.4969 119.22229L570.7625 119.22229L570.7625 120.47229Q571.2469 119.59729 571.65314 119.31604Q572.0594 119.03479 572.5594 119.03479Q573.2625 119.03479 573.9969 119.487915L573.5125 120.78479Q572.9969 120.487915 572.48126 120.487915Q572.02814 120.487915 571.65314 120.769165Q571.29376 121.03479 571.1375 121.53479Q570.90314 122.28479 570.90314 123.175415L570.90314 127.519165L569.4969 127.519165ZM574.45 130.72229L574.29376 129.39417Q574.7469 129.51917 575.09064 129.51917Q575.5594 129.51917 575.84064 129.36292Q576.1219 129.20667 576.3094 128.92542Q576.4344 128.72229 576.73126 127.87854Q576.77814 127.769165 576.85626 127.53479L573.71564 119.22229L575.23126 119.22229L576.95 124.019165Q577.29376 124.94104 577.5594 125.94104Q577.79376 124.97229 578.1375 124.050415L579.90314 119.22229L581.3094 119.22229L578.15314 127.65979Q577.65314 129.03479 577.3719 129.55042Q576.9969 130.23792 576.5125 130.56604Q576.02814 130.89417 575.35626 130.89417Q574.95 130.89417 574.45 130.72229Z" fill-rule="nonzero"/><path fill="#9e9e9e" d="M537.1219 146.48792L538.52814 146.30042Q538.77814 147.50354 539.35626 148.03479Q539.9344 148.55042 540.77814 148.55042Q541.7625 148.55042 542.45 147.86292Q543.1375 147.17542 543.1375 146.15979Q543.1375 145.19104 542.4969 144.56604Q541.8719 143.94104 540.8875 143.94104Q540.4969 143.94104 539.90314 144.09729L540.0594 142.86292Q540.2 142.87854 540.27814 142.87854Q541.1844 142.87854 541.90314 142.40979Q542.6219 141.94104 542.6219 140.95667Q542.6219 140.19104 542.09064 139.69104Q541.575 139.17542 540.7469 139.17542Q539.91876 139.17542 539.3719 139.69104Q538.825 140.20667 538.66876 141.23792L537.2625 140.98792Q537.52814 139.56604 538.4344 138.80042Q539.35626 138.01917 540.71564 138.01917Q541.65314 138.01917 542.4344 138.42542Q543.23126 138.81604 543.6375 139.51917Q544.0594 140.20667 544.0594 140.98792Q544.0594 141.73792 543.65314 142.34729Q543.2625 142.95667 542.48126 143.31604Q543.4969 143.55042 544.0594 144.28479Q544.6219 145.01917 544.6219 146.12854Q544.6219 147.62854 543.52814 148.67542Q542.4344 149.72229 540.7625 149.72229Q539.2625 149.72229 538.2625 148.83167Q537.2625 147.92542 537.1219 146.48792ZM546.1219 146.48792L547.52814 146.30042Q547.77814 147.50354 548.35626 148.03479Q548.9344 148.55042 549.77814 148.55042Q550.7625 148.55042 551.45 147.86292Q552.1375 147.17542 552.1375 146.15979Q552.1375 145.19104 551.4969 144.56604Q550.8719 143.94104 549.8875 143.94104Q549.4969 143.94104 548.90314 144.09729L549.0594 142.86292Q549.2 142.87854 549.27814 142.87854Q550.1844 142.87854 550.90314 142.40979Q551.6219 141.94104 551.6219 140.95667Q551.6219 140.19104 551.09064 139.69104Q550.575 139.17542 549.7469 139.17542Q548.91876 139.17542 548.3719 139.69104Q547.825 140.20667 547.66876 141.23792L546.2625 140.98792Q546.52814 139.56604 547.4344 138.80042Q548.35626 138.01917 549.71564 138.01917Q550.65314 138.01917 551.4344 138.42542Q552.23126 138.81604 552.6375 139.51917Q553.0594 140.20667 553.0594 140.98792Q553.0594 141.73792 552.65314 142.34729Q552.2625 142.95667 551.48126 143.31604Q552.4969 143.55042 553.0594 144.28479Q553.6219 145.01917 553.6219 146.12854Q553.6219 147.62854 552.52814 148.67542Q551.4344 149.72229 549.7625 149.72229Q548.2625 149.72229 547.2625 148.83167Q546.2625 147.92542 546.1219 146.48792ZM555.90314 149.51917L555.90314 147.90979L557.5125 147.90979L557.5125 149.51917L555.90314 149.51917ZM559.1219 146.48792L560.52814 146.30042Q560.77814 147.50354 561.35626 148.03479Q561.9344 148.55042 562.77814 148.55042Q563.7625 148.55042 564.45 147.86292Q565.1375 147.17542 565.1375 146.15979Q565.1375 145.19104 564.4969 144.56604Q563.8719 143.94104 562.8875 143.94104Q562.4969 143.94104 561.90314 144.09729L562.0594 142.86292Q562.2 142.87854 562.27814 142.87854Q563.1844 142.87854 563.90314 142.40979Q564.6219 141.94104 564.6219 140.95667Q564.6219 140.19104 564.09064 139.69104Q563.575 139.17542 562.7469 139.17542Q561.91876 139.17542 561.3719 139.69104Q560.825 140.20667 560.66876 141.23792L559.2625 140.98792Q559.52814 139.56604 560.4344 138.80042Q561.35626 138.01917 562.71564 138.01917Q563.65314 138.01917 564.4344 138.42542Q565.23126 138.81604 565.6375 139.51917Q566.0594 140.20667 566.0594 140.98792Q566.0594 141.73792 565.65314 142.34729Q565.2625 142.95667 564.48126 143.31604Q565.4969 143.55042 566.0594 144.28479Q566.6219 145.01917 566.6219 146.12854Q566.6219 147.62854 565.52814 148.67542Q564.4344 149.72229 562.7625 149.72229Q561.2625 149.72229 560.2625 148.83167Q559.2625 147.92542 559.1219 146.48792ZM568.3875 140.81604Q568.3875 139.58167 568.9969 138.72229Q569.6219 137.86292 570.79376 137.86292Q571.8719 137.86292 572.575 138.64417Q573.27814 139.40979 573.27814 140.89417Q573.27814 142.34729 572.5594 143.14417Q571.85626 143.92542 570.8094 143.92542Q569.7625 143.92542 569.075 143.15979Q568.3875 142.37854 568.3875 140.81604ZM570.825 138.83167Q570.3094 138.83167 569.95 139.28479Q569.60626 139.73792 569.60626 140.95667Q569.60626 142.05042 569.95 142.50354Q570.3094 142.95667 570.825 142.95667Q571.35626 142.95667 571.7 142.50354Q572.0594 142.05042 572.0594 140.84729Q572.0594 139.73792 571.7 139.28479Q571.35626 138.83167 570.825 138.83167ZM570.84064 149.94104L577.10626 137.86292L578.2469 137.86292L571.9969 149.94104L570.84064 149.94104ZM575.79376 146.83167Q575.79376 145.59729 576.40314 144.73792Q577.02814 143.87854 578.2 143.87854Q579.27814 143.87854 579.98126 144.65979Q580.7 145.42542 580.7 146.90979Q580.7 148.36292 579.98126 149.15979Q579.2625 149.94104 578.21564 149.94104Q577.16876 149.94104 576.48126 149.15979Q575.79376 148.37854 575.79376 146.83167ZM578.2469 144.84729Q577.71564 144.84729 577.35626 145.30042Q577.0125 145.75354 577.0125 146.97229Q577.0125 148.06604 577.35626 148.51917Q577.71564 148.97229 578.23126 148.97229Q578.77814 148.97229 579.1219 148.51917Q579.46564 148.06604 579.46564 146.86292Q579.46564 145.75354 579.10626 145.30042Q578.7625 144.84729 578.2469 144.84729Z" fill-rule="nonzero"/><path stroke="#757575" stroke-width="1.0" stroke-linecap="butt" d="M581.45 133.01917L454.76666 133.01917L422.39392 133.01917" fill-rule="nonzero"/><path fill="#9e9e9e" d="M424.39392 133.01917C424.39392 131.9146 423.4985 131.01917 422.39392 131.01917C421.28937 131.01917 420.39392 131.9146 420.39392 133.01917C420.39392 134.12373 421.28937 135.01917 422.39392 135.01917C423.4985 135.01917 424.39392 134.12373 424.39392 133.01917" fill-rule="nonzero"/><path fill="#efefef" d="M506.6844 320.57727L506.6844 309.12415L510.6375 309.12415Q511.96564 309.12415 512.66876 309.2804Q513.65314 309.51477 514.35626 310.10852Q515.2625 310.87415 515.7 312.06165Q516.15314 313.24915 516.15314 314.7804Q516.15314 316.0929 515.84064 317.10852Q515.54376 318.10852 515.0594 318.76477Q514.59064 319.42102 514.02814 319.81165Q513.46564 320.18665 512.65314 320.38977Q511.85626 320.57727 510.825 320.57727L506.6844 320.57727ZM508.2 319.2179L510.65314 319.2179Q511.77814 319.2179 512.41876 319.01477Q513.075 318.79602 513.45 318.42102Q513.9969 317.87415 514.29376 316.9679Q514.59064 316.06165 514.59064 314.76477Q514.59064 312.9679 513.9969 311.99915Q513.41876 311.0304 512.575 310.70227Q511.96564 310.4679 510.60626 310.4679L508.2 310.4679L508.2 319.2179ZM518.5125 310.73352L518.5125 309.12415L519.91876 309.12415L519.91876 310.73352L518.5125 310.73352ZM518.5125 320.57727L518.5125 312.2804L519.91876 312.2804L519.91876 320.57727L518.5125 320.57727ZM522.5125 323.76477L522.5125 312.2804L523.79376 312.2804L523.79376 313.35852Q524.2469 312.7179 524.8094 312.4054Q525.3875 312.0929 526.2 312.0929Q527.2625 312.0929 528.075 312.63977Q528.8875 313.18665 529.29376 314.18665Q529.71564 315.17102 529.71564 316.35852Q529.71564 317.63977 529.2469 318.6554Q528.79376 319.67102 527.91876 320.2179Q527.0594 320.76477 526.09064 320.76477Q525.3875 320.76477 524.825 320.4679Q524.27814 320.17102 523.91876 319.7179L523.91876 323.76477L522.5125 323.76477ZM523.77814 316.4679Q523.77814 318.07727 524.41876 318.8429Q525.075 319.60852 525.9969 319.60852Q526.9344 319.60852 527.60626 318.81165Q528.27814 318.01477 528.27814 316.35852Q528.27814 314.76477 527.6219 313.98352Q526.96564 313.18665 526.0594 313.18665Q525.16876 313.18665 524.46564 314.0304Q523.77814 314.87415 523.77814 316.4679ZM531.48126 320.57727L531.48126 309.12415L532.8875 309.12415L532.8875 320.57727L531.48126 320.57727ZM534.98126 316.42102Q534.98126 314.12415 536.2625 313.01477Q537.34064 312.0929 538.8719 312.0929Q540.59064 312.0929 541.66876 313.2179Q542.7625 314.32727 542.7625 316.31165Q542.7625 317.9054 542.27814 318.82727Q541.79376 319.74915 540.8719 320.26477Q539.96564 320.76477 538.8719 320.76477Q537.1375 320.76477 536.0594 319.6554Q534.98126 318.5304 534.98126 316.42102ZM536.4344 316.42102Q536.4344 318.01477 537.1219 318.81165Q537.825 319.60852 538.8719 319.60852Q539.91876 319.60852 540.60626 318.81165Q541.3094 318.01477 541.3094 316.37415Q541.3094 314.8429 540.60626 314.04602Q539.91876 313.24915 538.8719 313.24915Q537.825 313.24915 537.1219 314.04602Q536.4344 314.82727 536.4344 316.42102ZM544.5125 320.57727L544.5125 312.2804L545.7625 312.2804L545.7625 313.43665Q546.15314 312.82727 546.79376 312.4679Q547.45 312.0929 548.27814 312.0929Q549.2 312.0929 549.79376 312.48352Q550.3875 312.85852 550.6219 313.54602Q551.60626 312.0929 553.1844 312.0929Q554.41876 312.0929 555.075 312.7804Q555.7469 313.45227 555.7469 314.87415L555.7469 320.57727L554.35626 320.57727L554.35626 315.3429Q554.35626 314.49915 554.21564 314.13977Q554.075 313.76477 553.71564 313.54602Q553.35626 313.31165 552.8719 313.31165Q551.9969 313.31165 551.41876 313.88977Q550.84064 314.4679 550.84064 315.74915L550.84064 320.57727L549.4344 320.57727L549.4344 315.18665Q549.4344 314.24915 549.09064 313.7804Q548.7469 313.31165 547.96564 313.31165Q547.3719 313.31165 546.8719 313.62415Q546.3719 313.93665 546.1375 314.54602Q545.91876 315.13977 545.91876 316.26477L545.91876 320.57727L544.5125 320.57727ZM562.91876 319.54602Q562.1375 320.2179 561.41876 320.49915Q560.7 320.76477 559.8719 320.76477Q558.4969 320.76477 557.7625 320.0929Q557.02814 319.42102 557.02814 318.38977Q557.02814 317.7804 557.3094 317.2804Q557.59064 316.76477 558.02814 316.4679Q558.48126 316.1554 559.04376 315.99915Q559.46564 315.88977 560.29376 315.79602Q561.9969 315.5929 562.8094 315.31165Q562.8094 315.01477 562.8094 314.93665Q562.8094 314.07727 562.41876 313.73352Q561.8719 313.24915 560.8094 313.24915Q559.825 313.24915 559.34064 313.60852Q558.8719 313.95227 558.65314 314.82727L557.27814 314.63977Q557.46564 313.76477 557.8875 313.2179Q558.325 312.67102 559.1375 312.38977Q559.95 312.0929 561.0125 312.0929Q562.075 312.0929 562.73126 312.3429Q563.40314 312.5929 563.71564 312.9679Q564.02814 313.3429 564.15314 313.92102Q564.23126 314.2804 564.23126 315.2179L564.23126 317.0929Q564.23126 319.06165 564.3094 319.57727Q564.40314 320.0929 564.66876 320.57727L563.2 320.57727Q562.98126 320.13977 562.91876 319.54602ZM562.8094 316.4054Q562.04376 316.7179 560.5125 316.93665Q559.6375 317.06165 559.27814 317.2179Q558.91876 317.37415 558.71564 317.68665Q558.52814 317.98352 558.52814 318.3429Q558.52814 318.9054 558.95 319.2804Q559.3875 319.6554 560.2 319.6554Q561.0125 319.6554 561.6375 319.31165Q562.27814 318.95227 562.575 318.32727Q562.8094 317.85852 562.8094 316.92102L562.8094 316.4054ZM569.575 319.31165L569.77814 320.56165Q569.1844 320.68665 568.71564 320.68665Q567.95 320.68665 567.52814 320.45227Q567.10626 320.20227 566.9344 319.81165Q566.7625 319.4054 566.7625 318.13977L566.7625 313.37415L565.73126 313.37415L565.73126 312.2804L566.7625 312.2804L566.7625 310.2179L568.16876 309.37415L568.16876 312.2804L569.575 312.2804L569.575 313.37415L568.16876 313.37415L568.16876 318.2179Q568.16876 318.82727 568.23126 318.99915Q568.3094 319.17102 568.48126 319.2804Q568.65314 319.37415 568.96564 319.37415Q569.2 319.37415 569.575 319.31165ZM570.5125 310.73352L570.5125 309.12415L571.91876 309.12415L571.91876 310.73352L570.5125 310.73352ZM570.5125 320.57727L570.5125 312.2804L571.91876 312.2804L571.91876 320.57727L570.5125 320.57727ZM579.91876 317.5304L581.3094 317.7179Q581.075 319.13977 580.1375 319.95227Q579.21564 320.76477 577.85626 320.76477Q576.15314 320.76477 575.10626 319.6554Q574.075 318.5304 574.075 316.45227Q574.075 315.10852 574.5125 314.10852Q574.96564 313.0929 575.8719 312.5929Q576.79376 312.0929 577.85626 312.0929Q579.21564 312.0929 580.075 312.7804Q580.9344 313.45227 581.16876 314.7179L579.8094 314.92102Q579.60626 314.0929 579.10626 313.67102Q578.6219 313.24915 577.91876 313.24915Q576.85626 313.24915 576.1844 314.01477Q575.52814 314.76477 575.52814 316.42102Q575.52814 318.0929 576.16876 318.85852Q576.8094 319.60852 577.84064 319.60852Q578.66876 319.60852 579.21564 319.10852Q579.77814 318.5929 579.91876 317.5304Z" fill-rule="nonzero"/><path fill="#9e9e9e" d="M542.41876 342.57727L541.0125 342.57727L541.0125 333.60852Q540.4969 334.0929 539.66876 334.57727Q538.85626 335.06165 538.2 335.31165L538.2 333.95227Q539.3719 333.38977 540.2469 332.60852Q541.1375 331.81165 541.5125 331.07727L542.41876 331.07727L542.41876 342.57727ZM553.41876 333.92102L552.0125 334.0304Q551.825 333.20227 551.48126 332.82727Q550.91876 332.23352 550.075 332.23352Q549.40314 332.23352 548.90314 332.60852Q548.23126 333.0929 547.84064 334.0304Q547.46564 334.95227 547.45 336.67102Q547.96564 335.88977 548.7 335.51477Q549.4344 335.13977 550.23126 335.13977Q551.6375 335.13977 552.6219 336.18665Q553.6219 337.2179 553.6219 338.85852Q553.6219 339.93665 553.15314 340.85852Q552.6844 341.7804 551.8719 342.2804Q551.0594 342.7804 550.02814 342.7804Q548.27814 342.7804 547.16876 341.48352Q546.0594 340.18665 546.0594 337.2179Q546.0594 333.88977 547.27814 332.38977Q548.35626 331.07727 550.16876 331.07727Q551.5125 331.07727 552.3719 331.8429Q553.2469 332.5929 553.41876 333.92102ZM547.66876 338.85852Q547.66876 339.5929 547.98126 340.26477Q548.29376 340.92102 548.84064 341.26477Q549.40314 341.60852 550.0125 341.60852Q550.90314 341.60852 551.54376 340.88977Q552.1844 340.17102 552.1844 338.93665Q552.1844 337.74915 551.54376 337.07727Q550.91876 336.38977 549.95 336.38977Q548.9969 336.38977 548.325 337.07727Q547.66876 337.74915 547.66876 338.85852ZM555.90314 342.57727L555.90314 340.9679L557.5125 340.9679L557.5125 342.57727L555.90314 342.57727ZM559.21564 332.62415L559.21564 331.26477L566.6219 331.26477L566.6219 332.35852Q565.52814 333.5304 564.45 335.4679Q563.3875 337.38977 562.79376 339.42102Q562.3719 340.85852 562.2625 342.57727L560.8094 342.57727Q560.84064 341.2179 561.34064 339.31165Q561.85626 337.38977 562.79376 335.62415Q563.7469 333.8429 564.825 332.62415L559.21564 332.62415ZM568.3875 333.87415Q568.3875 332.63977 568.9969 331.7804Q569.6219 330.92102 570.79376 330.92102Q571.8719 330.92102 572.575 331.70227Q573.27814 332.4679 573.27814 333.95227Q573.27814 335.4054 572.5594 336.20227Q571.85626 336.98352 570.8094 336.98352Q569.7625 336.98352 569.075 336.2179Q568.3875 335.43665 568.3875 333.87415ZM570.825 331.88977Q570.3094 331.88977 569.95 332.3429Q569.60626 332.79602 569.60626 334.01477Q569.60626 335.10852 569.95 335.56165Q570.3094 336.01477 570.825 336.01477Q571.35626 336.01477 571.7 335.56165Q572.0594 335.10852 572.0594 333.9054Q572.0594 332.79602 571.7 332.3429Q571.35626 331.88977 570.825 331.88977ZM570.84064 342.99915L577.10626 330.92102L578.2469 330.92102L571.9969 342.99915L570.84064 342.99915ZM575.79376 339.88977Q575.79376 338.6554 576.40314 337.79602Q577.02814 336.93665 578.2 336.93665Q579.27814 336.93665 579.98126 337.7179Q580.7 338.48352 580.7 339.9679Q580.7 341.42102 579.98126 342.2179Q579.2625 342.99915 578.21564 342.99915Q577.16876 342.99915 576.48126 342.2179Q575.79376 341.43665 575.79376 339.88977ZM578.2469 337.9054Q577.71564 337.9054 577.35626 338.35852Q577.0125 338.81165 577.0125 340.0304Q577.0125 341.12415 577.35626 341.57727Q577.71564 342.0304 578.23126 342.0304Q578.77814 342.0304 579.1219 341.57727Q579.46564 341.12415 579.46564 339.92102Q579.46564 338.81165 579.10626 338.35852Q578.7625 337.9054 578.2469 337.9054Z" fill-rule="nonzero"/><path stroke="#757575" stroke-width="1.0" stroke-linecap="butt" d="M581.45 326.07727L454.76666 326.07727L370.66415 326.07727" fill-rule="nonzero"/><path fill="#9e9e9e" d="M372.66415 326.07727C372.66415 324.9727 371.76874 324.07727 370.66415 324.07727C369.5596 324.07727 368.66415 324.9727 368.66415 326.07727C368.66415 327.18182 369.5596 328.07727 370.66415 328.07727C371.76874 328.07727 372.66415 327.18182 372.66415 326.07727" fill-rule="nonzero"/><path fill="#f3f3f3" d="M271.26562 32.534374L273.15625 33.003124Q272.5625 35.346874 271.01562 36.58125Q269.46875 37.8 267.21875 37.8Q264.90625 37.8 263.45312 36.8625Q262.01562 35.909374 261.25 34.128124Q260.5 32.33125 260.5 30.284374Q260.5 28.05 261.34375 26.39375Q262.20312 24.721874 263.78125 23.8625Q265.35938 22.9875 267.25 22.9875Q269.40625 22.9875 270.85938 24.08125Q272.32812 25.175 272.90625 27.159374L271.04688 27.596874Q270.54688 26.034374 269.59375 25.33125Q268.65625 24.6125 267.21875 24.6125Q265.5625 24.6125 264.45312 25.409374Q263.34375 26.190624 262.89062 27.534374Q262.45312 28.8625 262.45312 30.26875Q262.45312 32.096874 262.98438 33.471874Q263.51562 34.83125 264.64062 35.503124Q265.76562 36.175 267.0625 36.175Q268.65625 36.175 269.76562 35.253124Q270.875 34.33125 271.26562 32.534374ZM281.59375 36.26875Q280.60938 37.096874 279.70312 37.440624Q278.79688 37.784374 277.76562 37.784374Q276.0625 37.784374 275.14062 36.95625Q274.21875 36.1125 274.21875 34.815624Q274.21875 34.05 274.5625 33.425Q274.92188 32.8 275.48438 32.425Q276.04688 32.034374 276.75 31.83125Q277.26562 31.70625 278.3125 31.565624Q280.4375 31.315624 281.4375 30.971874Q281.45312 30.6125 281.45312 30.503124Q281.45312 29.440624 280.95312 28.9875Q280.28125 28.39375 278.95312 28.39375Q277.70312 28.39375 277.10938 28.83125Q276.53125 29.26875 276.25 30.378124L274.53125 30.14375Q274.76562 29.034374 275.29688 28.3625Q275.82812 27.675 276.84375 27.315624Q277.85938 26.940624 279.20312 26.940624Q280.53125 26.940624 281.35938 27.253124Q282.1875 27.565624 282.57812 28.05Q282.96875 28.51875 283.125 29.2375Q283.21875 29.690624 283.21875 30.8625L283.21875 33.20625Q283.21875 35.659374 283.32812 36.315624Q283.4375 36.95625 283.78125 37.55L281.9375 37.55Q281.67188 37.003124 281.59375 36.26875ZM281.4375 32.346874Q280.48438 32.7375 278.5625 33.003124Q277.48438 33.159374 277.03125 33.3625Q276.59375 33.55 276.34375 33.925Q276.09375 34.3 276.09375 34.76875Q276.09375 35.471874 276.625 35.940624Q277.15625 36.409374 278.1875 36.409374Q279.20312 36.409374 279.98438 35.971874Q280.78125 35.51875 281.15625 34.753124Q281.4375 34.14375 281.4375 32.9875L281.4375 32.346874ZM289.65625 35.971874L289.90625 37.534374Q289.17188 37.690624 288.57812 37.690624Q287.625 37.690624 287.09375 37.39375Q286.57812 37.08125 286.35938 36.596874Q286.14062 36.096874 286.14062 34.51875L286.14062 28.55L284.85938 28.55L284.85938 27.175L286.14062 27.175L286.14062 24.6125L287.89062 23.55L287.89062 27.175L289.65625 27.175L289.65625 28.55L287.89062 28.55L287.89062 34.6125Q287.89062 35.3625 287.98438 35.58125Q288.07812 35.784374 288.28125 35.925Q288.5 36.05 288.89062 36.05Q289.17188 36.05 289.65625 35.971874ZM298.92188 34.20625L300.73438 34.440624Q300.3125 36.01875 299.14062 36.909374Q297.98438 37.784374 296.17188 37.784374Q293.90625 37.784374 292.5625 36.39375Q291.23438 34.9875 291.23438 32.45625Q291.23438 29.83125 292.57812 28.39375Q293.92188 26.940624 296.07812 26.940624Q298.15625 26.940624 299.46875 28.3625Q300.79688 29.76875 300.79688 32.346874Q300.79688 32.503124 300.78125 32.815624L293.04688 32.815624Q293.14062 34.51875 294.01562 35.425Q294.89062 36.33125 296.1875 36.33125Q297.15625 36.33125 297.82812 35.83125Q298.51562 35.315624 298.92188 34.20625ZM293.14062 31.3625L298.9375 31.3625Q298.82812 30.065624 298.28125 29.409374Q297.4375 28.39375 296.09375 28.39375Q294.89062 28.39375 294.0625 29.20625Q293.23438 30.003124 293.14062 31.3625ZM302.5 38.409374L304.20312 38.659374Q304.3125 39.45625 304.79688 39.815624Q305.45312 40.3 306.59375 40.3Q307.8125 40.3 308.46875 39.815624Q309.14062 39.33125 309.375 38.45625Q309.51562 37.909374 309.5 36.190624Q308.34375 37.55 306.625 37.55Q304.48438 37.55 303.3125 36.003124Q302.14062 34.45625 302.14062 32.3Q302.14062 30.815624 302.67188 29.565624Q303.21875 28.315624 304.23438 27.628124Q305.26562 26.940624 306.64062 26.940624Q308.46875 26.940624 309.67188 28.425L309.67188 27.175L311.28125 27.175L311.28125 36.14375Q311.28125 38.565624 310.78125 39.565624Q310.29688 40.58125 309.21875 41.159374Q308.15625 41.753124 306.59375 41.753124Q304.75 41.753124 303.59375 40.925Q302.45312 40.096874 302.5 38.409374ZM303.95312 32.175Q303.95312 34.221874 304.76562 35.159374Q305.57812 36.096874 306.79688 36.096874Q308.0 36.096874 308.8125 35.159374Q309.64062 34.221874 309.64062 32.2375Q309.64062 30.33125 308.79688 29.3625Q307.95312 28.39375 306.76562 28.39375Q305.59375 28.39375 304.76562 29.346874Q303.95312 30.3 303.95312 32.175ZM313.17188 32.3625Q313.17188 29.4875 314.76562 28.096874Q316.10938 26.940624 318.03125 26.940624Q320.17188 26.940624 321.51562 28.346874Q322.875 29.753124 322.875 32.221874Q322.875 34.221874 322.28125 35.378124Q321.6875 36.51875 320.53125 37.159374Q319.39062 37.784374 318.03125 37.784374Q315.84375 37.784374 314.5 36.39375Q313.17188 34.9875 313.17188 32.3625ZM314.96875 32.3625Q314.96875 34.3625 315.82812 35.346874Q316.70312 36.33125 318.03125 36.33125Q319.34375 36.33125 320.20312 35.346874Q321.07812 34.346874 321.07812 32.3Q321.07812 30.378124 320.20312 29.39375Q319.32812 28.39375 318.03125 28.39375Q316.70312 28.39375 315.82812 29.39375Q314.96875 30.378124 314.96875 32.3625ZM324.79688 37.55L324.79688 27.175L326.375 27.175L326.375 28.753124Q326.98438 27.64375 327.5 27.3Q328.01562 26.940624 328.625 26.940624Q329.51562 26.940624 330.4375 27.503124L329.82812 29.14375Q329.1875 28.753124 328.54688 28.753124Q327.96875 28.753124 327.5 29.1125Q327.04688 29.45625 326.84375 30.065624Q326.5625 31.003124 326.5625 32.1125L326.5625 37.55L324.79688 37.55ZM331.73438 41.55L331.54688 39.89375Q332.125 40.05 332.54688 40.05Q333.14062 40.05 333.48438 39.846874Q333.84375 39.659374 334.0625 39.315624Q334.23438 39.05 334.60938 38.003124Q334.65625 37.846874 334.76562 37.565624L330.82812 27.175L332.71875 27.175L334.875 33.190624Q335.29688 34.33125 335.625 35.58125Q335.9375 34.378124 336.34375 33.221874L338.5625 27.175L340.32812 27.175L336.375 37.721874Q335.75 39.440624 335.39062 40.08125Q334.92188 40.95625 334.3125 41.346874Q333.71875 41.753124 332.875 41.753124Q332.35938 41.753124 331.73438 41.55Z" fill-rule="nonzero"/></svg>