<svg version="1.1" viewBox="0.0 0.0 600.0 371.0" fill="none" stroke="none" stroke-linecap="square" stroke-miterlimit="10" width="600" height="371" xmlns:xlink="http://www.w3.org/1999/xlink" xmlns="http://www.w3.org/2000/svg"><path fill="#ffffff" fill-opacity="0.0" d="M0 0L600.0 0L600.0 371.0L0 371.0L0 0Z" fill-rule="nonzero"/><path fill="#313d89" d="M300.0 54.916668C320.84802 54.916668 341.46326 59.298573 360.50885 67.77822L315.12723 169.70706C310.3658 167.58714 305.212 166.49167 300.0 166.49167Z" fill-rule="nonzero"/><path fill="#f7d750" d="M158.5145 157.7119C178.43053 96.416664 235.55037 54.916668 300.0 54.916668L300.0 166.49167C283.8876 166.49167 269.60764 176.86667 264.62863 192.19048Z" fill-rule="nonzero"/><path fill="#e5a345" d="M152.0483 219.23369C149.86908 198.49988 152.0721 177.53954 158.5145 157.7119L264.62863 192.19048C263.01804 197.14738 262.4673 202.38747 263.0121 207.57092Z" fill-rule="nonzero"/><path fill="#df8d43" d="M269.06967 349.1991C206.02843 335.79926 158.78511 283.33026 152.0483 219.23369L263.0121 207.57092C264.6963 223.59506 276.5071 236.71231 292.26743 240.06227Z" fill-rule="nonzero"/><path fill="#cf4366" d="M360.50885 67.77822C430.06763 98.74779 465.01456 177.23984 441.4855 249.65475C417.95648 322.0697 343.54736 365.02982 269.06967 349.1991L292.26743 240.06227C310.88684 244.01996 329.4891 233.27992 335.37137 215.1762C341.25363 197.07246 332.5169 177.44945 315.12723 169.70706Z" fill-rule="nonzero"/><path fill="#ffffff" d="M312.08643 89.26302L310.52393 89.38802Q310.30518 88.46615 309.91455 88.04427Q309.27393 87.35677 308.33643 87.35677Q307.58643 87.35677 307.0083 87.77865Q306.2583 88.32552 305.8208 89.3724Q305.39893 90.41927 305.3833 92.35677Q305.96143 91.48177 306.77393 91.0599Q307.60205 90.63802 308.5083 90.63802Q310.10205 90.63802 311.21143 91.8099Q312.3208 92.96615 312.3208 94.8099Q312.3208 96.02865 311.78955 97.07552Q311.27393 98.10677 310.35205 98.66927Q309.4458 99.21615 308.28955 99.21615Q306.30518 99.21615 305.05518 97.76302Q303.80518 96.3099 303.80518 92.96615Q303.80518 89.23177 305.1958 87.52865Q306.39893 86.0599 308.43018 86.0599Q309.96143 86.0599 310.93018 86.91927Q311.89893 87.76302 312.08643 89.26302ZM305.6333 94.82552Q305.6333 95.63802 305.97705 96.38802Q306.3208 97.13802 306.9458 97.52865Q307.5708 97.91927 308.2583 97.91927Q309.2583 97.91927 309.97705 97.10677Q310.6958 96.29427 310.6958 94.90365Q310.6958 93.57552 309.97705 92.8099Q309.27393 92.02865 308.1958 92.02865Q307.11768 92.02865 306.36768 92.8099Q305.6333 93.57552 305.6333 94.82552ZM314.77393 98.9974L314.77393 97.20052L316.5708 97.20052L316.5708 98.9974L314.77393 98.9974ZM318.99268 87.79427L318.99268 86.27865L327.3208 86.27865L327.3208 87.51302Q326.10205 88.82552 324.8833 90.9974Q323.68018 93.15365 323.02393 95.45052Q322.53955 97.07552 322.41455 98.9974L320.78955 98.9974Q320.8208 97.48177 321.3833 95.32552Q321.96143 93.16927 323.02393 91.16927Q324.08643 89.16927 325.28955 87.79427L318.99268 87.79427ZM329.18018 89.20052Q329.18018 87.82552 329.86768 86.85677Q330.5708 85.88802 331.8833 85.88802Q333.10205 85.88802 333.89893 86.76302Q334.6958 87.6224 334.6958 89.3099Q334.6958 90.9349 333.8833 91.82552Q333.08643 92.70052 331.89893 92.70052Q330.74268 92.70052 329.96143 91.84115Q329.18018 90.96615 329.18018 89.20052ZM331.93018 86.98177Q331.33643 86.98177 330.9458 87.4974Q330.55518 87.9974 330.55518 89.35677Q330.55518 90.60677 330.9458 91.10677Q331.35205 91.60677 331.93018 91.60677Q332.52393 91.60677 332.91455 91.10677Q333.30518 90.59115 333.30518 89.2474Q333.30518 87.9974 332.91455 87.4974Q332.52393 86.98177 331.93018 86.98177ZM331.9458 99.46615L338.99268 85.88802L340.27393 85.88802L333.24268 99.46615L331.9458 99.46615ZM337.5083 95.96615Q337.5083 94.59115 338.1958 93.6224Q338.89893 92.65365 340.22705 92.65365Q341.4458 92.65365 342.22705 93.52865Q343.02393 94.38802 343.02393 96.07552Q343.02393 97.70052 342.22705 98.59115Q341.43018 99.46615 340.24268 99.46615Q339.0708 99.46615 338.28955 98.59115Q337.5083 97.71615 337.5083 95.96615ZM340.27393 93.7474Q339.68018 93.7474 339.28955 94.26302Q338.89893 94.76302 338.89893 96.13802Q338.89893 97.35677 339.28955 97.8724Q339.68018 98.38802 340.2583 98.38802Q340.86768 98.38802 341.2583 97.8724Q341.64893 97.35677 341.64893 96.01302Q341.64893 94.76302 341.2583 94.26302Q340.86768 93.7474 340.27393 93.7474Z" fill-rule="nonzero"/><path fill="#ffffff" d="M377.38388 241.72374L377.38388 238.64561L371.80576 238.64561L371.80576 237.19249L377.68076 228.83311L378.97763 228.83311L378.97763 237.19249L380.712 237.19249L380.712 238.64561L378.97763 238.64561L378.97763 241.72374L377.38388 241.72374ZM377.38388 237.19249L377.38388 231.37999L373.35263 237.19249L377.38388 237.19249ZM390.5245 231.98936L388.962 232.11436Q388.74326 231.19249 388.35263 230.77061Q387.712 230.08311 386.7745 230.08311Q386.0245 230.08311 385.44638 230.50499Q384.69638 231.05186 384.25888 232.09874Q383.837 233.14561 383.82138 235.08311Q384.3995 234.20811 385.212 233.78624Q386.04013 233.36436 386.94638 233.36436Q388.54013 233.36436 389.6495 234.53624Q390.75888 235.69249 390.75888 237.53624Q390.75888 238.75499 390.22763 239.80186Q389.712 240.83311 388.79013 241.39561Q387.88388 241.94249 386.72763 241.94249Q384.74326 241.94249 383.49326 240.48936Q382.24326 239.03624 382.24326 235.69249Q382.24326 231.95811 383.63388 230.25499Q384.837 228.78624 386.86826 228.78624Q388.3995 228.78624 389.36826 229.64561Q390.337 230.48936 390.5245 231.98936ZM384.07138 237.55186Q384.07138 238.36436 384.41513 239.11436Q384.75888 239.86436 385.38388 240.25499Q386.00888 240.64561 386.69638 240.64561Q387.69638 240.64561 388.41513 239.83311Q389.13388 239.02061 389.13388 237.62999Q389.13388 236.30186 388.41513 235.53624Q387.712 234.75499 386.63388 234.75499Q385.55576 234.75499 384.80576 235.53624Q384.07138 236.30186 384.07138 237.55186ZM393.212 241.72374L393.212 239.92686L395.00888 239.92686L395.00888 241.72374L393.212 241.72374ZM397.43076 230.52061L397.43076 229.00499L405.75888 229.00499L405.75888 230.23936Q404.54013 231.55186 403.32138 233.72374Q402.11826 235.87999 401.462 238.17686Q400.97763 239.80186 400.85263 241.72374L399.22763 241.72374Q399.25888 240.20811 399.82138 238.05186Q400.3995 235.89561 401.462 233.89561Q402.5245 231.89561 403.72763 230.52061L397.43076 230.52061ZM407.61826 231.92686Q407.61826 230.55186 408.30576 229.58311Q409.00888 228.61436 410.32138 228.61436Q411.54013 228.61436 412.337 229.48936Q413.13388 230.34874 413.13388 232.03624Q413.13388 233.66124 412.32138 234.55186Q411.5245 235.42686 410.337 235.42686Q409.18076 235.42686 408.3995 234.56749Q407.61826 233.69249 407.61826 231.92686ZM410.36826 229.70811Q409.7745 229.70811 409.38388 230.22374Q408.99326 230.72374 408.99326 232.08311Q408.99326 233.33311 409.38388 233.83311Q409.79013 234.33311 410.36826 234.33311Q410.962 234.33311 411.35263 233.83311Q411.74326 233.31749 411.74326 231.97374Q411.74326 230.72374 411.35263 230.22374Q410.962 229.70811 410.36826 229.70811ZM410.38388 242.19249L417.43076 228.61436L418.712 228.61436L411.68076 242.19249L410.38388 242.19249ZM415.94638 238.69249Q415.94638 237.31749 416.63388 236.34874Q417.337 235.37999 418.66513 235.37999Q419.88388 235.37999 420.66513 236.25499Q421.462 237.11436 421.462 238.80186Q421.462 240.42686 420.66513 241.31749Q419.86826 242.19249 418.68076 242.19249Q417.50888 242.19249 416.72763 241.31749Q415.94638 240.44249 415.94638 238.69249ZM418.712 236.47374Q418.11826 236.47374 417.72763 236.98936Q417.337 237.48936 417.337 238.86436Q417.337 240.08311 417.72763 240.59874Q418.11826 241.11436 418.69638 241.11436Q419.30576 241.11436 419.69638 240.59874Q420.087 240.08311 420.087 238.73936Q420.087 237.48936 419.69638 236.98936Q419.30576 236.47374 418.712 236.47374Z" fill-rule="nonzero"/><path fill="#ffffff" d="M208.09113 276.62244L208.09113 278.13806L199.5755 278.13806Q199.55988 277.55994 199.763 277.0443Q200.09113 276.1693 200.79425 275.32556Q201.513 274.4818 202.87238 273.37244Q204.96613 271.6537 205.7005 270.6537Q206.4505 269.63806 206.4505 268.74744Q206.4505 267.7943 205.77863 267.1537Q205.10675 266.51306 204.02863 266.51306Q202.87238 266.51306 202.18488 267.20056Q201.513 267.88806 201.49738 269.0912L199.87238 268.9193Q200.04425 267.1068 201.12238 266.1537Q202.21613 265.20056 204.05988 265.20056Q205.90363 265.20056 206.98175 266.2318Q208.0755 267.26306 208.0755 268.7787Q208.0755 269.5443 207.74738 270.2943Q207.43488 271.0443 206.7005 271.87244Q205.96613 272.70056 204.263 274.13806Q202.84113 275.3412 202.43488 275.76306Q202.02863 276.18494 201.77863 276.62244L208.09113 276.62244ZM209.77863 271.7787Q209.77863 269.49744 210.24738 268.1068Q210.71613 266.7162 211.638 265.9662Q212.5755 265.20056 213.98175 265.20056Q215.013 265.20056 215.79425 265.62244Q216.5755 266.0287 217.0755 266.82556Q217.59113 267.6068 217.888 268.74744Q218.18488 269.87244 218.18488 271.7787Q218.18488 274.0443 217.71613 275.45056Q217.24738 276.8412 216.30988 277.6068Q215.388 278.3568 213.98175 278.3568Q212.10675 278.3568 211.04425 277.0287Q209.77863 275.4193 209.77863 271.7787ZM211.40363 271.7787Q211.40363 274.95056 212.138 276.01306Q212.888 277.05994 213.98175 277.05994Q215.05988 277.05994 215.80988 276.01306Q216.55988 274.95056 216.55988 271.7787Q216.55988 268.6068 215.80988 267.55994Q215.05988 266.51306 213.96613 266.51306Q212.87238 266.51306 212.21613 267.43494Q211.40363 268.6068 211.40363 271.7787ZM220.66925 278.13806L220.66925 276.3412L222.46613 276.3412L222.46613 278.13806L220.66925 278.13806ZM224.77863 271.7787Q224.77863 269.49744 225.24738 268.1068Q225.71613 266.7162 226.638 265.9662Q227.5755 265.20056 228.98175 265.20056Q230.013 265.20056 230.79425 265.62244Q231.5755 266.0287 232.0755 266.82556Q232.59113 267.6068 232.888 268.74744Q233.18488 269.87244 233.18488 271.7787Q233.18488 274.0443 232.71613 275.45056Q232.24738 276.8412 231.30988 277.6068Q230.388 278.3568 228.98175 278.3568Q227.10675 278.3568 226.04425 277.0287Q224.77863 275.4193 224.77863 271.7787ZM226.40363 271.7787Q226.40363 274.95056 227.138 276.01306Q227.888 277.05994 228.98175 277.05994Q230.05988 277.05994 230.80988 276.01306Q231.55988 274.95056 231.55988 271.7787Q231.55988 268.6068 230.80988 267.55994Q230.05988 266.51306 228.96613 266.51306Q227.87238 266.51306 227.21613 267.43494Q226.40363 268.6068 226.40363 271.7787ZM235.0755 268.3412Q235.0755 266.9662 235.763 265.99744Q236.46613 265.0287 237.77863 265.0287Q238.99738 265.0287 239.79425 265.9037Q240.59113 266.76306 240.59113 268.45056Q240.59113 270.07556 239.77863 270.9662Q238.98175 271.8412 237.79425 271.8412Q236.638 271.8412 235.85675 270.9818Q235.0755 270.1068 235.0755 268.3412ZM237.8255 266.12244Q237.23175 266.12244 236.84113 266.63806Q236.4505 267.13806 236.4505 268.49744Q236.4505 269.74744 236.84113 270.24744Q237.24738 270.74744 237.8255 270.74744Q238.41925 270.74744 238.80988 270.24744Q239.2005 269.7318 239.2005 268.38806Q239.2005 267.13806 238.80988 266.63806Q238.41925 266.12244 237.8255 266.12244ZM237.84113 278.6068L244.888 265.0287L246.16925 265.0287L239.138 278.6068L237.84113 278.6068ZM243.40363 275.1068Q243.40363 273.7318 244.09113 272.76306Q244.79425 271.7943 246.12238 271.7943Q247.34113 271.7943 248.12238 272.6693Q248.91925 273.5287 248.91925 275.2162Q248.91925 276.8412 248.12238 277.7318Q247.3255 278.6068 246.138 278.6068Q244.96613 278.6068 244.18488 277.7318Q243.40363 276.8568 243.40363 275.1068ZM246.16925 272.88806Q245.5755 272.88806 245.18488 273.4037Q244.79425 273.9037 244.79425 275.2787Q244.79425 276.49744 245.18488 277.01306Q245.5755 277.5287 246.15363 277.5287Q246.763 277.5287 247.15363 277.01306Q247.54425 276.49744 247.54425 275.1537Q247.54425 273.9037 247.15363 273.4037Q246.763 272.88806 246.16925 272.88806Z" fill-rule="nonzero"/><path fill="#ffffff" d="M179.68864 189.01735L178.12614 189.14235Q177.9074 188.22047 177.51677 187.7986Q176.87614 187.1111 175.93864 187.1111Q175.18864 187.1111 174.61052 187.53297Q173.86052 188.07985 173.42302 189.12672Q173.00114 190.1736 172.98552 192.1111Q173.56364 191.2361 174.37614 190.81422Q175.20427 190.39235 176.11052 190.39235Q177.70427 190.39235 178.81364 191.56422Q179.92302 192.72047 179.92302 194.56422Q179.92302 195.78297 179.39177 196.82985Q178.87614 197.8611 177.95427 198.4236Q177.04802 198.97047 175.89177 198.97047Q173.9074 198.97047 172.6574 197.51735Q171.4074 196.06422 171.4074 192.72047Q171.4074 188.9861 172.79802 187.28297Q174.00114 185.81422 176.0324 185.81422Q177.56364 185.81422 178.5324 186.6736Q179.50114 187.51735 179.68864 189.01735ZM173.23552 194.57985Q173.23552 195.39235 173.57927 196.14235Q173.92302 196.89235 174.54802 197.28297Q175.17302 197.6736 175.86052 197.6736Q176.86052 197.6736 177.57927 196.8611Q178.29802 196.0486 178.29802 194.65797Q178.29802 193.32985 177.57927 192.56422Q176.87614 191.78297 175.79802 191.78297Q174.7199 191.78297 173.9699 192.56422Q173.23552 193.32985 173.23552 194.57985ZM182.37614 198.75172L182.37614 196.95485L184.17302 196.95485L184.17302 198.75172L182.37614 198.75172ZM186.5949 187.5486L186.5949 186.03297L194.92302 186.03297L194.92302 187.26735Q193.70427 188.57985 192.48552 190.75172Q191.2824 192.90797 190.62614 195.20485Q190.14177 196.82985 190.01677 198.75172L188.39177 198.75172Q188.42302 197.2361 188.98552 195.07985Q189.56364 192.9236 190.62614 190.9236Q191.68864 188.9236 192.89177 187.5486L186.5949 187.5486ZM196.7824 188.95485Q196.7824 187.57985 197.4699 186.6111Q198.17302 185.64235 199.48552 185.64235Q200.70427 185.64235 201.50114 186.51735Q202.29802 187.37672 202.29802 189.06422Q202.29802 190.68922 201.48552 191.57985Q200.68864 192.45485 199.50114 192.45485Q198.3449 192.45485 197.56364 191.59547Q196.7824 190.72047 196.7824 188.95485ZM199.5324 186.7361Q198.93864 186.7361 198.54802 187.25172Q198.1574 187.75172 198.1574 189.1111Q198.1574 190.3611 198.54802 190.8611Q198.95427 191.3611 199.5324 191.3611Q200.12614 191.3611 200.51677 190.8611Q200.9074 190.34547 200.9074 189.00172Q200.9074 187.75172 200.51677 187.25172Q200.12614 186.7361 199.5324 186.7361ZM199.54802 199.22047L206.5949 185.64235L207.87614 185.64235L200.8449 199.22047L199.54802 199.22047ZM205.11052 195.72047Q205.11052 194.34547 205.79802 193.37672Q206.50114 192.40797 207.82927 192.40797Q209.04802 192.40797 209.82927 193.28297Q210.62614 194.14235 210.62614 195.82985Q210.62614 197.45485 209.82927 198.34547Q209.0324 199.22047 207.8449 199.22047Q206.67302 199.22047 205.89177 198.34547Q205.11052 197.47047 205.11052 195.72047ZM207.87614 193.50172Q207.2824 193.50172 206.89177 194.01735Q206.50114 194.51735 206.50114 195.89235Q206.50114 197.1111 206.89177 197.62672Q207.2824 198.14235 207.86052 198.14235Q208.4699 198.14235 208.86052 197.62672Q209.25114 197.1111 209.25114 195.76735Q209.25114 194.51735 208.86052 194.01735Q208.4699 193.50172 207.87614 193.50172Z" fill-rule="nonzero"/><path fill="#ffffff" d="M222.76137 124.982124L222.76137 126.49775L214.24574 126.49775Q214.23012 125.919624 214.43324 125.404Q214.76137 124.529 215.4645 123.68525Q216.18324 122.8415 217.54262 121.732124Q219.63637 120.013374 220.37074 119.013374Q221.12074 117.99775 221.12074 117.107124Q221.12074 116.154 220.44887 115.513374Q219.777 114.87275 218.69887 114.87275Q217.54262 114.87275 216.85512 115.56025Q216.18324 116.24775 216.16762 117.450874L214.54262 117.279Q214.7145 115.4665 215.79262 114.513374Q216.88637 113.56025 218.73012 113.56025Q220.57387 113.56025 221.652 114.5915Q222.74574 115.62275 222.74574 117.138374Q222.74574 117.904 222.41762 118.654Q222.10512 119.404 221.37074 120.232124Q220.63637 121.06025 218.93324 122.49775Q217.51137 123.700874 217.10512 124.12275Q216.69887 124.544624 216.44887 124.982124L222.76137 124.982124ZM224.44887 120.138374Q224.44887 117.857124 224.91762 116.4665Q225.38637 115.075874 226.30824 114.325874Q227.24574 113.56025 228.652 113.56025Q229.68324 113.56025 230.4645 113.982124Q231.24574 114.388374 231.74574 115.18525Q232.26137 115.9665 232.55824 117.107124Q232.85512 118.232124 232.85512 120.138374Q232.85512 122.404 232.38637 123.81025Q231.91762 125.200874 230.98012 125.9665Q230.05824 126.7165 228.652 126.7165Q226.777 126.7165 225.7145 125.388374Q224.44887 123.779 224.44887 120.138374ZM226.07387 120.138374Q226.07387 123.31025 226.80824 124.37275Q227.55824 125.419624 228.652 125.419624Q229.73012 125.419624 230.48012 124.37275Q231.23012 123.31025 231.23012 120.138374Q231.23012 116.9665 230.48012 115.919624Q229.73012 114.87275 228.63637 114.87275Q227.54262 114.87275 226.88637 115.794624Q226.07387 116.9665 226.07387 120.138374ZM235.3395 126.49775L235.3395 124.700874L237.13637 124.700874L237.13637 126.49775L235.3395 126.49775ZM239.44887 120.138374Q239.44887 117.857124 239.91762 116.4665Q240.38637 115.075874 241.30824 114.325874Q242.24574 113.56025 243.652 113.56025Q244.68324 113.56025 245.4645 113.982124Q246.24574 114.388374 246.74574 115.18525Q247.26137 115.9665 247.55824 117.107124Q247.85512 118.232124 247.85512 120.138374Q247.85512 122.404 247.38637 123.81025Q246.91762 125.200874 245.98012 125.9665Q245.05824 126.7165 243.652 126.7165Q241.777 126.7165 240.7145 125.388374Q239.44887 123.779 239.44887 120.138374ZM241.07387 120.138374Q241.07387 123.31025 241.80824 124.37275Q242.55824 125.419624 243.652 125.419624Q244.73012 125.419624 245.48012 124.37275Q246.23012 123.31025 246.23012 120.138374Q246.23012 116.9665 245.48012 115.919624Q244.73012 114.87275 243.63637 114.87275Q242.54262 114.87275 241.88637 115.794624Q241.07387 116.9665 241.07387 120.138374ZM249.74574 116.700874Q249.74574 115.325874 250.43324 114.357124Q251.13637 113.388374 252.44887 113.388374Q253.66762 113.388374 254.4645 114.263374Q255.26137 115.12275 255.26137 116.81025Q255.26137 118.43525 254.44887 119.325874Q253.652 120.200874 252.4645 120.200874Q251.30824 120.200874 250.527 119.3415Q249.74574 118.4665 249.74574 116.700874ZM252.49574 114.482124Q251.902 114.482124 251.51137 114.99775Q251.12074 115.49775 251.12074 116.857124Q251.12074 118.107124 251.51137 118.607124Q251.91762 119.107124 252.49574 119.107124Q253.0895 119.107124 253.48012 118.607124Q253.87074 118.0915 253.87074 116.74775Q253.87074 115.49775 253.48012 114.99775Q253.0895 114.482124 252.49574 114.482124ZM252.51137 126.9665L259.55823 113.388374L260.83948 113.388374L253.80824 126.9665L252.51137 126.9665ZM258.07385 123.4665Q258.07385 122.0915 258.76135 121.12275Q259.46448 120.154 260.7926 120.154Q262.01135 120.154 262.7926 121.029Q263.58948 121.888374 263.58948 123.575874Q263.58948 125.200874 262.7926 126.0915Q261.99573 126.9665 260.80823 126.9665Q259.63635 126.9665 258.8551 126.0915Q258.07385 125.2165 258.07385 123.4665ZM260.83948 121.24775Q260.24573 121.24775 259.8551 121.763374Q259.46448 122.263374 259.46448 123.638374Q259.46448 124.857124 259.8551 125.37275Q260.24573 125.888374 260.82385 125.888374Q261.43323 125.888374 261.82385 125.37275Q262.21448 124.857124 262.21448 123.513374Q262.21448 122.263374 261.82385 121.763374Q261.43323 121.24775 260.83948 121.24775Z" fill-rule="nonzero"/><path stroke="#ffffff" stroke-width="1.0" stroke-linejoin="round" stroke-linecap="round" d="M315.12723 169.70706C310.3658 167.58714 305.212 166.49167 300.0 166.49167L300.0 54.916668C320.84802 54.916668 341.46326 59.298573 360.50885 67.77822" fill-rule="nonzero"/><path stroke="#ffffff" stroke-width="1.0" stroke-linejoin="round" stroke-linecap="round" d="M292.26743 240.06227C310.88684 244.01996 329.4891 233.27992 335.37137 215.1762C341.25363 197.07246 332.5169 177.44945 315.12723 169.70706L360.50885 67.77822C430.06763 98.74779 465.01456 177.23984 441.4855 249.65475C417.95648 322.0697 343.54736 365.02982 269.06967 349.1991" fill-rule="nonzero"/><path stroke="#ffffff" stroke-width="1.0" stroke-linejoin="round" stroke-linecap="round" d="M263.0121 207.57092C264.6963 223.59506 276.5071 236.71231 292.26743 240.06227L269.06967 349.1991C206.02843 335.79926 158.78511 283.33026 152.0483 219.23369" fill-rule="nonzero"/><path stroke="#ffffff" stroke-width="1.0" stroke-linejoin="round" stroke-linecap="round" d="M264.62863 192.19048C263.01804 197.14738 262.4673 202.38747 263.0121 207.57092L152.0483 219.23369C149.86908 198.49988 152.0721 177.53954 158.5145 157.7119" fill-rule="nonzero"/><path stroke="#ffffff" stroke-width="1.0" stroke-linejoin="round" stroke-linecap="round" d="M300.0 166.49167C283.8876 166.49167 269.60764 176.86667 264.62863 192.19048L158.5145 157.7119C178.43053 96.416664 235.55037 54.916668 300.0 54.916668" fill-rule="nonzero"/><path fill="#efefef" d="M19.784374 83.84631L19.784374 72.39319L24.1125 72.39319Q25.253124 72.39319 25.846874 72.50256Q26.690624 72.64319 27.253124 73.03381Q27.83125 73.42444 28.175 74.14319Q28.534374 74.84631 28.534374 75.70569Q28.534374 77.15881 27.596874 78.17444Q26.675 79.19006 24.2375 79.19006L21.3 79.19006L21.3 83.84631L19.784374 83.84631ZM21.3 77.83069L24.26875 77.83069Q25.7375 77.83069 26.346874 77.28381Q26.971874 76.73694 26.971874 75.75256Q26.971874 75.03381 26.596874 74.51819Q26.2375 74.00256 25.64375 73.84631Q25.26875 73.73694 24.2375 73.73694L21.3 73.73694L21.3 77.83069ZM36.01875 82.81506Q35.2375 83.48694 34.51875 83.76819Q33.8 84.03381 32.971874 84.03381Q31.596874 84.03381 30.8625 83.36194Q30.128124 82.69006 30.128124 81.65881Q30.128124 81.04944 30.409374 80.54944Q30.690624 80.03381 31.128124 79.73694Q31.58125 79.42444 32.14375 79.26819Q32.565624 79.15881 33.39375 79.06506Q35.096874 78.86194 35.909374 78.58069Q35.909374 78.28381 35.909374 78.20569Q35.909374 77.34631 35.51875 77.00256Q34.971874 76.51819 33.909374 76.51819Q32.925 76.51819 32.440624 76.87756Q31.971874 77.22131 31.753124 78.09631L30.378124 77.90881Q30.565624 77.03381 30.9875 76.48694Q31.425 75.94006 32.2375 75.65881Q33.05 75.36194 34.1125 75.36194Q35.175 75.36194 35.83125 75.61194Q36.503124 75.86194 36.815624 76.23694Q37.128124 76.61194 37.253124 77.19006Q37.33125 77.54944 37.33125 78.48694L37.33125 80.36194Q37.33125 82.33069 37.409374 82.84631Q37.503124 83.36194 37.76875 83.84631L36.3 83.84631Q36.08125 83.40881 36.01875 82.81506ZM35.909374 79.67444Q35.14375 79.98694 33.6125 80.20569Q32.7375 80.33069 32.378124 80.48694Q32.01875 80.64319 31.815624 80.95569Q31.628124 81.25256 31.628124 81.61194Q31.628124 82.17444 32.05 82.54944Q32.4875 82.92444 33.3 82.92444Q34.1125 82.92444 34.7375 82.58069Q35.378124 82.22131 35.675 81.59631Q35.909374 81.12756 35.909374 80.19006L35.909374 79.67444ZM39.346874 84.53381L40.721874 84.73694Q40.8 85.37756 41.190624 85.65881Q41.721874 86.04944 42.628124 86.04944Q43.596874 86.04944 44.128124 85.65881Q44.659374 85.26819 44.846874 84.56506Q44.95625 84.14319 44.95625 82.75256Q44.034374 83.84631 42.659374 83.84631Q40.940624 83.84631 40.003124 82.61194Q39.065624 81.37756 39.065624 79.64319Q39.065624 78.45569 39.4875 77.45569Q39.925 76.45569 40.7375 75.90881Q41.565624 75.36194 42.659374 75.36194Q44.128124 75.36194 45.08125 76.54944L45.08125 75.54944L46.378124 75.54944L46.378124 82.72131Q46.378124 84.65881 45.9875 85.47131Q45.596874 86.28381 44.7375 86.75256Q43.878124 87.22131 42.628124 87.22131Q41.14375 87.22131 40.221874 86.54944Q39.315624 85.87756 39.346874 84.53381ZM40.51875 79.54944Q40.51875 81.17444 41.159374 81.92444Q41.815624 82.67444 42.784374 82.67444Q43.753124 82.67444 44.409374 81.94006Q45.065624 81.19006 45.065624 79.59631Q45.065624 78.06506 44.39375 77.29944Q43.721874 76.51819 42.76875 76.51819Q41.83125 76.51819 41.175 77.28381Q40.51875 78.04944 40.51875 79.54944ZM54.284374 81.17444L55.7375 81.34631Q55.39375 82.62756 54.45625 83.33069Q53.534374 84.03381 52.096874 84.03381Q50.26875 84.03381 49.20625 82.90881Q48.14375 81.78381 48.14375 79.76819Q48.14375 77.67444 49.221874 76.51819Q50.3 75.36194 52.01875 75.36194Q53.675 75.36194 54.721874 76.50256Q55.784374 77.62756 55.784374 79.67444Q55.784374 79.79944 55.784374 80.04944L49.596874 80.04944Q49.675 81.42444 50.3625 82.15881Q51.065624 82.87756 52.096874 82.87756Q52.878124 82.87756 53.425 82.47131Q53.971874 82.06506 54.284374 81.17444ZM49.675 78.89319L54.3 78.89319Q54.20625 77.84631 53.76875 77.33069Q53.096874 76.51819 52.034374 76.51819Q51.065624 76.51819 50.39375 77.17444Q49.7375 77.81506 49.675 78.89319Z" fill-rule="nonzero"/><path fill="#9e9e9e" d="M26.6125 104.48694L26.6125 105.84631L19.034374 105.84631Q19.01875 105.33069 19.20625 104.86194Q19.4875 104.09631 20.128124 103.34631Q20.76875 102.59631 21.971874 101.61194Q23.83125 100.08069 24.4875 99.19006Q25.14375 98.28381 25.14375 97.48694Q25.14375 96.65881 24.55 96.08069Q23.95625 95.50256 22.9875 95.50256Q21.971874 95.50256 21.3625 96.11194Q20.753124 96.72131 20.753124 97.79944L19.3 97.65881Q19.45625 96.03381 20.425 95.19006Q21.39375 94.34631 23.01875 94.34631Q24.675 94.34631 25.628124 95.26819Q26.596874 96.17444 26.596874 97.51819Q26.596874 98.20569 26.315624 98.87756Q26.034374 99.53381 25.378124 100.26819Q24.721874 101.00256 23.20625 102.28381Q21.940624 103.34631 21.58125 103.73694Q21.221874 104.11194 20.9875 104.48694L26.6125 104.48694ZM28.221874 100.19006Q28.221874 98.15881 28.628124 96.92444Q29.05 95.69006 29.878124 95.01819Q30.70625 94.34631 31.95625 94.34631Q32.878124 94.34631 33.565624 94.72131Q34.26875 95.08069 34.721874 95.78381Q35.175 96.48694 35.425 97.48694Q35.690624 98.48694 35.690624 100.19006Q35.690624 102.20569 35.26875 103.45569Q34.8625 104.69006 34.034374 105.37756Q33.20625 106.04944 31.95625 106.04944Q30.3 106.04944 29.346874 104.84631Q28.221874 103.42444 28.221874 100.19006ZM29.659374 100.19006Q29.659374 103.01819 30.315624 103.95569Q30.9875 104.87756 31.95625 104.87756Q32.925 104.87756 33.58125 103.94006Q34.2375 103.00256 34.2375 100.19006Q34.2375 97.36194 33.58125 96.44006Q32.925 95.50256 31.940624 95.50256Q30.971874 95.50256 30.39375 96.33069Q29.659374 97.37756 29.659374 100.19006ZM38.003124 105.84631L38.003124 104.23694L39.6125 104.23694L39.6125 105.84631L38.003124 105.84631ZM41.221874 100.19006Q41.221874 98.15881 41.628124 96.92444Q42.05 95.69006 42.878124 95.01819Q43.70625 94.34631 44.95625 94.34631Q45.878124 94.34631 46.565624 94.72131Q47.26875 95.08069 47.721874 95.78381Q48.175 96.48694 48.425 97.48694Q48.690624 98.48694 48.690624 100.19006Q48.690624 102.20569 48.26875 103.45569Q47.8625 104.69006 47.034374 105.37756Q46.20625 106.04944 44.95625 106.04944Q43.3 106.04944 42.346874 104.84631Q41.221874 103.42444 41.221874 100.19006ZM42.659374 100.19006Q42.659374 103.01819 43.315624 103.95569Q43.9875 104.87756 44.95625 104.87756Q45.925 104.87756 46.58125 103.94006Q47.2375 103.00256 47.2375 100.19006Q47.2375 97.36194 46.58125 96.44006Q45.925 95.50256 44.940624 95.50256Q43.971874 95.50256 43.39375 96.33069Q42.659374 97.37756 42.659374 100.19006ZM50.4875 97.14319Q50.4875 95.90881 51.096874 95.04944Q51.721874 94.19006 52.89375 94.19006Q53.971874 94.19006 54.675 94.97131Q55.378124 95.73694 55.378124 97.22131Q55.378124 98.67444 54.659374 99.47131Q53.95625 100.25256 52.909374 100.25256Q51.8625 100.25256 51.175 99.48694Q50.4875 98.70569 50.4875 97.14319ZM52.925 95.15881Q52.409374 95.15881 52.05 95.61194Q51.70625 96.06506 51.70625 97.28381Q51.70625 98.37756 52.05 98.83069Q52.409374 99.28381 52.925 99.28381Q53.45625 99.28381 53.8 98.83069Q54.159374 98.37756 54.159374 97.17444Q54.159374 96.06506 53.8 95.61194Q53.45625 95.15881 52.925 95.15881ZM52.940624 106.26819L59.20625 94.19006L60.346874 94.19006L54.096874 106.26819L52.940624 106.26819ZM57.89375 103.15881Q57.89375 101.92444 58.503124 101.06506Q59.128124 100.20569 60.3 100.20569Q61.378124 100.20569 62.08125 100.98694Q62.8 101.75256 62.8 103.23694Q62.8 104.69006 62.08125 105.48694Q61.3625 106.26819 60.315624 106.26819Q59.26875 106.26819 58.58125 105.48694Q57.89375 104.70569 57.89375 103.15881ZM60.346874 101.17444Q59.815624 101.17444 59.45625 101.62756Q59.1125 102.08069 59.1125 103.29944Q59.1125 104.39319 59.45625 104.84631Q59.815624 105.29944 60.33125 105.29944Q60.878124 105.29944 61.221874 104.84631Q61.565624 104.39319 61.565624 103.19006Q61.565624 102.08069 61.20625 101.62756Q60.8625 101.17444 60.346874 101.17444Z" fill-rule="nonzero"/><path stroke="#757575" stroke-width="1.0" stroke-linecap="butt" d="M18.55 89.34631L145.23334 89.34631L216.92929 89.34631" fill-rule="nonzero"/><path fill="#9e9e9e" d="M218.92929 89.34631C218.92929 88.24174 218.03386 87.34631 216.92929 87.34631C215.82472 87.34631 214.92929 88.24174 214.92929 89.34631C214.92929 90.45088 215.82472 91.34631 216.92929 91.34631C218.03386 91.34631 218.92929 90.45088 218.92929 89.34631" fill-rule="nonzero"/><path fill="#efefef" d="M27.3 171.95738L28.815624 171.95738L28.815624 178.56676Q28.815624 180.30113 28.425 181.31676Q28.034374 182.33238 27.01875 182.973Q26.003124 183.61363 24.346874 183.61363Q22.7375 183.61363 21.70625 183.05113Q20.690624 182.48863 20.253124 181.44176Q19.815624 180.39488 19.815624 178.56676L19.815624 171.95738L21.33125 171.95738L21.33125 178.56676Q21.33125 180.05113 21.596874 180.76988Q21.878124 181.473 22.55 181.86363Q23.2375 182.23863 24.20625 182.23863Q25.878124 182.23863 26.58125 181.48863Q27.3 180.723 27.3 178.56676L27.3 171.95738ZM31.596874 183.4105L31.596874 175.11363L32.8625 175.11363L32.8625 176.36363Q33.346874 175.48863 33.753124 175.20738Q34.159374 174.92613 34.659374 174.92613Q35.3625 174.92613 36.096874 175.37926L35.6125 176.67613Q35.096874 176.37926 34.58125 176.37926Q34.128124 176.37926 33.753124 176.6605Q33.39375 176.92613 33.2375 177.42613Q33.003124 178.17613 33.003124 179.06676L33.003124 183.4105L31.596874 183.4105ZM37.909374 183.4105L36.596874 183.4105L36.596874 171.95738L38.003124 171.95738L38.003124 176.0355Q38.89375 174.92613 40.284374 174.92613Q41.05 174.92613 41.721874 175.23863Q42.409374 175.5355 42.846874 176.098Q43.3 176.6605 43.55 177.45738Q43.8 178.23863 43.8 179.12926Q43.8 181.26988 42.7375 182.44176Q41.690624 183.598 40.20625 183.598Q38.7375 183.598 37.909374 182.36363L37.909374 183.4105ZM37.89375 179.19176Q37.89375 180.69176 38.3 181.348Q38.95625 182.44176 40.096874 182.44176Q41.01875 182.44176 41.690624 181.64488Q42.3625 180.83238 42.3625 179.25426Q42.3625 177.62926 41.70625 176.86363Q41.065624 176.08238 40.159374 176.08238Q39.2375 176.08238 38.565624 176.87926Q37.89375 177.67613 37.89375 179.19176ZM51.01875 182.37926Q50.2375 183.05113 49.51875 183.33238Q48.8 183.598 47.971874 183.598Q46.596874 183.598 45.8625 182.92613Q45.128124 182.25426 45.128124 181.223Q45.128124 180.61363 45.409374 180.11363Q45.690624 179.598 46.128124 179.30113Q46.58125 178.98863 47.14375 178.83238Q47.565624 178.723 48.39375 178.62926Q50.096874 178.42613 50.909374 178.14488Q50.909374 177.848 50.909374 177.76988Q50.909374 176.9105 50.51875 176.56676Q49.971874 176.08238 48.909374 176.08238Q47.925 176.08238 47.440624 176.44176Q46.971874 176.7855 46.753124 177.6605L45.378124 177.473Q45.565624 176.598 45.9875 176.05113Q46.425 175.50426 47.2375 175.223Q48.05 174.92613 49.1125 174.92613Q50.175 174.92613 50.83125 175.17613Q51.503124 175.42613 51.815624 175.80113Q52.128124 176.17613 52.253124 176.75426Q52.33125 177.11363 52.33125 178.05113L52.33125 179.92613Q52.33125 181.89488 52.409374 182.4105Q52.503124 182.92613 52.76875 183.4105L51.3 183.4105Q51.08125 182.973 51.01875 182.37926ZM50.909374 179.23863Q50.14375 179.55113 48.6125 179.76988Q47.7375 179.89488 47.378124 180.05113Q47.01875 180.20738 46.815624 180.51988Q46.628124 180.81676 46.628124 181.17613Q46.628124 181.73863 47.05 182.11363Q47.4875 182.48863 48.3 182.48863Q49.1125 182.48863 49.7375 182.14488Q50.378124 181.7855 50.675 181.1605Q50.909374 180.69176 50.909374 179.75426L50.909374 179.23863ZM54.6125 183.4105L54.6125 175.11363L55.878124 175.11363L55.878124 176.2855Q56.784374 174.92613 58.51875 174.92613Q59.26875 174.92613 59.89375 175.19176Q60.51875 175.45738 60.83125 175.89488Q61.14375 176.33238 61.26875 176.94176Q61.346874 177.33238 61.346874 178.30113L61.346874 183.4105L59.940624 183.4105L59.940624 178.36363Q59.940624 177.50426 59.76875 177.08238Q59.6125 176.64488 59.190624 176.39488Q58.784374 176.14488 58.221874 176.14488Q57.315624 176.14488 56.659374 176.723Q56.01875 177.2855 56.01875 178.87926L56.01875 183.4105L54.6125 183.4105ZM63.05 180.92613L64.44063 180.70738Q64.55 181.55113 65.08125 182.00426Q65.62813 182.44176 66.58125 182.44176Q67.55 182.44176 68.01875 182.05113Q68.4875 181.64488 68.4875 181.11363Q68.4875 180.64488 68.08125 180.36363Q67.78438 180.17613 66.64375 179.89488Q65.09688 179.50426 64.4875 179.223Q63.89375 178.92613 63.58125 178.42613Q63.284374 177.92613 63.284374 177.31676Q63.284374 176.75426 63.534374 176.2855Q63.784374 175.81676 64.22188 175.50426Q64.55 175.25426 65.1125 175.098Q65.69063 174.92613 66.33125 174.92613Q67.31563 174.92613 68.05 175.20738Q68.78438 175.48863 69.12813 175.973Q69.4875 176.44176 69.62813 177.25426L68.25313 177.44176Q68.15938 176.80113 67.70625 176.44176Q67.25313 176.08238 66.44063 176.08238Q65.47188 176.08238 65.05 176.4105Q64.64375 176.723 64.64375 177.14488Q64.64375 177.42613 64.81563 177.64488Q64.9875 177.86363 65.34688 178.01988Q65.56563 178.098 66.59688 178.37926Q68.08125 178.76988 68.675 179.0355Q69.26875 179.2855 69.59688 179.76988Q69.94063 180.25426 69.94063 180.973Q69.94063 181.67613 69.51875 182.30113Q69.1125 182.9105 68.33125 183.25426Q67.56563 183.598 66.59688 183.598Q64.97188 183.598 64.12813 182.92613Q63.284374 182.25426 63.05 180.92613ZM77.01875 180.36363L78.40938 180.55113Q78.175 181.973 77.2375 182.7855Q76.31563 183.598 74.95625 183.598Q73.25313 183.598 72.20625 182.48863Q71.175 181.36363 71.175 179.2855Q71.175 177.94176 71.6125 176.94176Q72.06563 175.92613 72.97188 175.42613Q73.89375 174.92613 74.95625 174.92613Q76.31563 174.92613 77.175 175.61363Q78.03438 176.2855 78.26875 177.55113L76.90938 177.75426Q76.70625 176.92613 76.20625 176.50426Q75.72188 176.08238 75.01875 176.08238Q73.95625 176.08238 73.28438 176.848Q72.62813 177.598 72.62813 179.25426Q72.62813 180.92613 73.26875 181.69176Q73.90938 182.44176 74.94063 182.44176Q75.76875 182.44176 76.31563 181.94176Q76.87813 181.42613 77.01875 180.36363ZM85.01875 182.37926Q84.2375 183.05113 83.51875 183.33238Q82.8 183.598 81.97188 183.598Q80.59688 183.598 79.8625 182.92613Q79.12813 182.25426 79.12813 181.223Q79.12813 180.61363 79.40938 180.11363Q79.69063 179.598 80.12813 179.30113Q80.58125 178.98863 81.14375 178.83238Q81.56563 178.723 82.39375 178.62926Q84.09688 178.42613 84.90938 178.14488Q84.90938 177.848 84.90938 177.76988Q84.90938 176.9105 84.51875 176.56676Q83.97188 176.08238 82.90938 176.08238Q81.925 176.08238 81.44063 176.44176Q80.97188 176.7855 80.75313 177.6605L79.37813 177.473Q79.56563 176.598 79.9875 176.05113Q80.425 175.50426 81.2375 175.223Q82.05 174.92613 83.1125 174.92613Q84.175 174.92613 84.83125 175.17613Q85.50313 175.42613 85.81563 175.80113Q86.12813 176.17613 86.25313 176.75426Q86.33125 177.11363 86.33125 178.05113L86.33125 179.92613Q86.33125 181.89488 86.40938 182.4105Q86.50313 182.92613 86.76875 183.4105L85.3 183.4105Q85.08125 182.973 85.01875 182.37926ZM84.90938 179.23863Q84.14375 179.55113 82.6125 179.76988Q81.7375 179.89488 81.37813 180.05113Q81.01875 180.20738 80.81563 180.51988Q80.62813 180.81676 80.62813 181.17613Q80.62813 181.73863 81.05 182.11363Q81.4875 182.48863 82.3 182.48863Q83.1125 182.48863 83.7375 182.14488Q84.37813 181.7855 84.675 181.1605Q84.90938 180.69176 84.90938 179.75426L84.90938 179.23863ZM88.6125 186.598L88.6125 175.11363L89.89375 175.11363L89.89375 176.19176Q90.34688 175.55113 90.90938 175.23863Q91.4875 174.92613 92.3 174.92613Q93.3625 174.92613 94.175 175.473Q94.9875 176.01988 95.39375 177.01988Q95.81563 178.00426 95.81563 179.19176Q95.81563 180.473 95.34688 181.48863Q94.89375 182.50426 94.01875 183.05113Q93.15938 183.598 92.19063 183.598Q91.4875 183.598 90.925 183.30113Q90.37813 183.00426 90.01875 182.55113L90.01875 186.598L88.6125 186.598ZM89.87813 179.30113Q89.87813 180.9105 90.51875 181.67613Q91.175 182.44176 92.09688 182.44176Q93.03438 182.44176 93.70625 181.64488Q94.37813 180.848 94.37813 179.19176Q94.37813 177.598 93.72188 176.81676Q93.06563 176.01988 92.15938 176.01988Q91.26875 176.01988 90.56563 176.86363Q89.87813 177.70738 89.87813 179.30113ZM103.28438 180.73863L104.7375 180.9105Q104.39375 182.19176 103.45625 182.89488Q102.53438 183.598 101.09688 183.598Q99.26875 183.598 98.20625 182.473Q97.14375 181.348 97.14375 179.33238Q97.14375 177.23863 98.22188 176.08238Q99.3 174.92613 101.01875 174.92613Q102.675 174.92613 103.72188 176.06676Q104.78438 177.19176 104.78438 179.23863Q104.78438 179.36363 104.78438 179.61363L98.59688 179.61363Q98.675 180.98863 99.3625 181.723Q100.06563 182.44176 101.09688 182.44176Q101.87813 182.44176 102.425 182.0355Q102.97188 181.62926 103.28438 180.73863ZM98.675 178.45738L103.3 178.45738Q103.20625 177.4105 102.76875 176.89488Q102.09688 176.08238 101.03438 176.08238Q100.06563 176.08238 99.39375 176.73863Q98.7375 177.37926 98.675 178.45738Z" fill-rule="nonzero"/><path fill="#9e9e9e" d="M26.51875 196.75426L25.1125 196.86363Q24.925 196.0355 24.58125 195.6605Q24.01875 195.06676 23.175 195.06676Q22.503124 195.06676 22.003124 195.44176Q21.33125 195.92613 20.940624 196.86363Q20.565624 197.7855 20.55 199.50426Q21.065624 198.723 21.8 198.348Q22.534374 197.973 23.33125 197.973Q24.7375 197.973 25.721874 199.01988Q26.721874 200.05113 26.721874 201.69176Q26.721874 202.76988 26.253124 203.69176Q25.784374 204.61363 24.971874 205.11363Q24.159374 205.61363 23.128124 205.61363Q21.378124 205.61363 20.26875 204.31676Q19.159374 203.01988 19.159374 200.05113Q19.159374 196.723 20.378124 195.223Q21.45625 193.9105 23.26875 193.9105Q24.6125 193.9105 25.471874 194.67613Q26.346874 195.42613 26.51875 196.75426ZM20.76875 201.69176Q20.76875 202.42613 21.08125 203.098Q21.39375 203.75426 21.940624 204.098Q22.503124 204.44176 23.1125 204.44176Q24.003124 204.44176 24.64375 203.723Q25.284374 203.00426 25.284374 201.76988Q25.284374 200.58238 24.64375 199.9105Q24.01875 199.223 23.05 199.223Q22.096874 199.223 21.425 199.9105Q20.76875 200.58238 20.76875 201.69176ZM29.003124 205.4105L29.003124 203.80113L30.6125 203.80113L30.6125 205.4105L29.003124 205.4105ZM32.315624 195.45738L32.315624 194.098L39.721874 194.098L39.721874 195.19176Q38.628124 196.36363 37.55 198.30113Q36.4875 200.223 35.89375 202.25426Q35.471874 203.69176 35.3625 205.4105L33.909374 205.4105Q33.940624 204.05113 34.440624 202.14488Q34.95625 200.223 35.89375 198.45738Q36.846874 196.67613 37.925 195.45738L32.315624 195.45738ZM41.4875 196.70738Q41.4875 195.473 42.096874 194.61363Q42.721874 193.75426 43.89375 193.75426Q44.971874 193.75426 45.675 194.5355Q46.378124 195.30113 46.378124 196.7855Q46.378124 198.23863 45.659374 199.0355Q44.95625 199.81676 43.909374 199.81676Q42.8625 199.81676 42.175 199.05113Q41.4875 198.26988 41.4875 196.70738ZM43.925 194.723Q43.409374 194.723 43.05 195.17613Q42.70625 195.62926 42.70625 196.848Q42.70625 197.94176 43.05 198.39488Q43.409374 198.848 43.925 198.848Q44.45625 198.848 44.8 198.39488Q45.159374 197.94176 45.159374 196.73863Q45.159374 195.62926 44.8 195.17613Q44.45625 194.723 43.925 194.723ZM43.940624 205.83238L50.20625 193.75426L51.346874 193.75426L45.096874 205.83238L43.940624 205.83238ZM48.89375 202.723Q48.89375 201.48863 49.503124 200.62926Q50.128124 199.76988 51.3 199.76988Q52.378124 199.76988 53.08125 200.55113Q53.8 201.31676 53.8 202.80113Q53.8 204.25426 53.08125 205.05113Q52.3625 205.83238 51.315624 205.83238Q50.26875 205.83238 49.58125 205.05113Q48.89375 204.26988 48.89375 202.723ZM51.346874 200.73863Q50.815624 200.73863 50.45625 201.19176Q50.1125 201.64488 50.1125 202.86363Q50.1125 203.95738 50.45625 204.4105Q50.815624 204.86363 51.33125 204.86363Q51.878124 204.86363 52.221874 204.4105Q52.565624 203.95738 52.565624 202.75426Q52.565624 201.64488 52.20625 201.19176Q51.8625 200.73863 51.346874 200.73863Z" fill-rule="nonzero"/><path stroke="#757575" stroke-width="1.0" stroke-linecap="butt" d="M18.55 188.9105L145.23334 188.9105L159.44588 188.9105" fill-rule="nonzero"/><path fill="#9e9e9e" d="M161.44588 188.9105C161.44588 187.80592 160.55045 186.9105 159.44588 186.9105C158.34131 186.9105 157.44588 187.80592 157.44588 188.9105C157.44588 190.01508 158.34131 190.9105 159.44588 190.9105C160.55045 190.9105 161.44588 190.01508 161.44588 188.9105" fill-rule="nonzero"/><path fill="#efefef" d="M19.76875 292.75046L19.76875 281.29733L21.33125 281.29733L27.346874 290.2817L27.346874 281.29733L28.8 281.29733L28.8 292.75046L27.2375 292.75046L21.221874 283.75046L21.221874 292.75046L19.76875 292.75046ZM37.01875 291.7192Q36.2375 292.39108 35.51875 292.67233Q34.8 292.93796 33.971874 292.93796Q32.596874 292.93796 31.8625 292.26608Q31.128124 291.5942 31.128124 290.56296Q31.128124 289.95358 31.409374 289.45358Q31.690624 288.93796 32.128124 288.64108Q32.58125 288.32858 33.14375 288.17233Q33.565624 288.06296 34.39375 287.9692Q36.096874 287.76608 36.909374 287.48483Q36.909374 287.18796 36.909374 287.10983Q36.909374 286.25046 36.51875 285.9067Q35.971874 285.42233 34.909374 285.42233Q33.925 285.42233 33.440624 285.7817Q32.971874 286.12546 32.753124 287.00046L31.378124 286.81296Q31.565624 285.93796 31.9875 285.39108Q32.425 284.8442 33.2375 284.56296Q34.05 284.26608 35.1125 284.26608Q36.175 284.26608 36.83125 284.51608Q37.503124 284.76608 37.815624 285.14108Q38.128124 285.51608 38.253124 286.0942Q38.33125 286.45358 38.33125 287.39108L38.33125 289.26608Q38.33125 291.23483 38.409374 291.75046Q38.503124 292.26608 38.76875 292.75046L37.3 292.75046Q37.08125 292.31296 37.01875 291.7192ZM36.909374 288.57858Q36.14375 288.89108 34.6125 289.10983Q33.7375 289.23483 33.378124 289.39108Q33.01875 289.54733 32.815624 289.85983Q32.628124 290.1567 32.628124 290.51608Q32.628124 291.07858 33.05 291.45358Q33.4875 291.82858 34.3 291.82858Q35.1125 291.82858 35.7375 291.48483Q36.378124 291.12546 36.675 290.50046Q36.909374 290.0317 36.909374 289.0942L36.909374 288.57858ZM43.675 291.48483L43.878124 292.73483Q43.284374 292.85983 42.815624 292.85983Q42.05 292.85983 41.628124 292.62546Q41.20625 292.37546 41.034374 291.98483Q40.8625 291.57858 40.8625 290.31296L40.8625 285.54733L39.83125 285.54733L39.83125 284.45358L40.8625 284.45358L40.8625 282.39108L42.26875 281.54733L42.26875 284.45358L43.675 284.45358L43.675 285.54733L42.26875 285.54733L42.26875 290.39108Q42.26875 291.00046 42.33125 291.17233Q42.409374 291.3442 42.58125 291.45358Q42.753124 291.54733 43.065624 291.54733Q43.3 291.54733 43.675 291.48483ZM50.05 292.75046L50.05 291.5317Q49.08125 292.93796 47.409374 292.93796Q46.675 292.93796 46.034374 292.6567Q45.409374 292.37546 45.096874 291.95358Q44.784374 291.51608 44.659374 290.9067Q44.58125 290.48483 44.58125 289.5942L44.58125 284.45358L45.9875 284.45358L45.9875 289.04733Q45.9875 290.1567 46.065624 290.5317Q46.20625 291.0942 46.628124 291.4067Q47.065624 291.7192 47.690624 291.7192Q48.33125 291.7192 48.878124 291.4067Q49.440624 291.07858 49.659374 290.51608Q49.89375 289.95358 49.89375 288.89108L49.89375 284.45358L51.3 284.45358L51.3 292.75046L50.05 292.75046ZM53.596874 292.75046L53.596874 284.45358L54.8625 284.45358L54.8625 285.70358Q55.346874 284.82858 55.753124 284.54733Q56.159374 284.26608 56.659374 284.26608Q57.3625 284.26608 58.096874 284.7192L57.6125 286.01608Q57.096874 285.7192 56.58125 285.7192Q56.128124 285.7192 55.753124 286.00046Q55.39375 286.26608 55.2375 286.76608Q55.003124 287.51608 55.003124 288.4067L55.003124 292.75046L53.596874 292.75046ZM64.28438 290.07858L65.7375 290.25046Q65.39375 291.5317 64.45625 292.23483Q63.534374 292.93796 62.096874 292.93796Q60.26875 292.93796 59.20625 291.81296Q58.14375 290.68796 58.14375 288.67233Q58.14375 286.57858 59.221874 285.42233Q60.3 284.26608 62.01875 284.26608Q63.675 284.26608 64.72188 285.4067Q65.78438 286.5317 65.78438 288.57858Q65.78438 288.70358 65.78438 288.95358L59.596874 288.95358Q59.675 290.32858 60.3625 291.06296Q61.065624 291.7817 62.096874 291.7817Q62.878124 291.7817 63.425 291.37546Q63.971874 290.9692 64.28438 290.07858ZM59.675 287.79733L64.3 287.79733Q64.20625 286.75046 63.76875 286.23483Q63.096874 285.42233 62.034374 285.42233Q61.065624 285.42233 60.39375 286.07858Q59.7375 286.7192 59.675 287.79733ZM67.05 290.26608L68.44063 290.04733Q68.55 290.89108 69.08125 291.3442Q69.62813 291.7817 70.58125 291.7817Q71.55 291.7817 72.01875 291.39108Q72.4875 290.98483 72.4875 290.45358Q72.4875 289.98483 72.08125 289.70358Q71.78438 289.51608 70.64375 289.23483Q69.09688 288.8442 68.4875 288.56296Q67.89375 288.26608 67.58125 287.76608Q67.28438 287.26608 67.28438 286.6567Q67.28438 286.0942 67.53438 285.62546Q67.78438 285.1567 68.22188 284.8442Q68.55 284.5942 69.1125 284.43796Q69.69063 284.26608 70.33125 284.26608Q71.31563 284.26608 72.05 284.54733Q72.78438 284.82858 73.12813 285.31296Q73.4875 285.7817 73.62813 286.5942L72.25313 286.7817Q72.15938 286.14108 71.70625 285.7817Q71.25313 285.42233 70.44063 285.42233Q69.47188 285.42233 69.05 285.75046Q68.64375 286.06296 68.64375 286.48483Q68.64375 286.76608 68.81563 286.98483Q68.9875 287.20358 69.34688 287.35983Q69.56563 287.43796 70.59688 287.7192Q72.08125 288.10983 72.675 288.37546Q73.26875 288.62546 73.59688 289.10983Q73.94063 289.5942 73.94063 290.31296Q73.94063 291.01608 73.51875 291.64108Q73.1125 292.25046 72.33125 292.5942Q71.56563 292.93796 70.59688 292.93796Q68.97188 292.93796 68.12813 292.26608Q67.28438 291.5942 67.05 290.26608ZM81.01875 289.70358L82.40938 289.89108Q82.175 291.31296 81.2375 292.12546Q80.31563 292.93796 78.95625 292.93796Q77.25313 292.93796 76.20625 291.82858Q75.175 290.70358 75.175 288.62546Q75.175 287.2817 75.6125 286.2817Q76.06563 285.26608 76.97188 284.76608Q77.89375 284.26608 78.95625 284.26608Q80.31563 284.26608 81.175 284.95358Q82.03438 285.62546 82.26875 286.89108L80.90938 287.0942Q80.70625 286.26608 80.20625 285.8442Q79.72188 285.42233 79.01875 285.42233Q77.95625 285.42233 77.28438 286.18796Q76.62813 286.93796 76.62813 288.5942Q76.62813 290.26608 77.26875 291.0317Q77.90938 291.7817 78.94063 291.7817Q79.76875 291.7817 80.31563 291.2817Q80.87813 290.76608 81.01875 289.70358ZM89.01875 291.7192Q88.2375 292.39108 87.51875 292.67233Q86.8 292.93796 85.97188 292.93796Q84.59688 292.93796 83.8625 292.26608Q83.12813 291.5942 83.12813 290.56296Q83.12813 289.95358 83.40938 289.45358Q83.69063 288.93796 84.12813 288.64108Q84.58125 288.32858 85.14375 288.17233Q85.56563 288.06296 86.39375 287.9692Q88.09688 287.76608 88.90938 287.48483Q88.90938 287.18796 88.90938 287.10983Q88.90938 286.25046 88.51875 285.9067Q87.97188 285.42233 86.90938 285.42233Q85.925 285.42233 85.44063 285.7817Q84.97188 286.12546 84.75313 287.00046L83.37813 286.81296Q83.56563 285.93796 83.9875 285.39108Q84.425 284.8442 85.2375 284.56296Q86.05 284.26608 87.1125 284.26608Q88.175 284.26608 88.83125 284.51608Q89.50313 284.76608 89.81563 285.14108Q90.12813 285.51608 90.25313 286.0942Q90.33125 286.45358 90.33125 287.39108L90.33125 289.26608Q90.33125 291.23483 90.40938 291.75046Q90.50313 292.26608 90.76875 292.75046L89.3 292.75046Q89.08125 292.31296 89.01875 291.7192ZM88.90938 288.57858Q88.14375 288.89108 86.6125 289.10983Q85.7375 289.23483 85.37813 289.39108Q85.01875 289.54733 84.81563 289.85983Q84.62813 290.1567 84.62813 290.51608Q84.62813 291.07858 85.05 291.45358Q85.4875 291.82858 86.3 291.82858Q87.1125 291.82858 87.7375 291.48483Q88.37813 291.12546 88.675 290.50046Q88.90938 290.0317 88.90938 289.0942L88.90938 288.57858ZM92.6125 295.93796L92.6125 284.45358L93.89375 284.45358L93.89375 285.5317Q94.34688 284.89108 94.90938 284.57858Q95.4875 284.26608 96.3 284.26608Q97.3625 284.26608 98.175 284.81296Q98.9875 285.35983 99.39375 286.35983Q99.81563 287.3442 99.81563 288.5317Q99.81563 289.81296 99.34688 290.82858Q98.89375 291.8442 98.01875 292.39108Q97.15938 292.93796 96.19063 292.93796Q95.4875 292.93796 94.925 292.64108Q94.37813 292.3442 94.01875 291.89108L94.01875 295.93796L92.6125 295.93796ZM93.87813 288.64108Q93.87813 290.25046 94.51875 291.01608Q95.175 291.7817 96.09688 291.7817Q97.03438 291.7817 97.70625 290.98483Q98.37813 290.18796 98.37813 288.5317Q98.37813 286.93796 97.72188 286.1567Q97.06563 285.35983 96.15938 285.35983Q95.26875 285.35983 94.56563 286.20358Q93.87813 287.04733 93.87813 288.64108ZM107.28438 290.07858L108.7375 290.25046Q108.39375 291.5317 107.45625 292.23483Q106.53438 292.93796 105.09688 292.93796Q103.26875 292.93796 102.20625 291.81296Q101.14375 290.68796 101.14375 288.67233Q101.14375 286.57858 102.22188 285.42233Q103.3 284.26608 105.01875 284.26608Q106.675 284.26608 107.72188 285.4067Q108.78438 286.5317 108.78438 288.57858Q108.78438 288.70358 108.78438 288.95358L102.59688 288.95358Q102.675 290.32858 103.3625 291.06296Q104.06563 291.7817 105.09688 291.7817Q105.87813 291.7817 106.425 291.37546Q106.97188 290.9692 107.28438 290.07858ZM102.675 287.79733L107.3 287.79733Q107.20625 286.75046 106.76875 286.23483Q106.09688 285.42233 105.03438 285.42233Q104.06563 285.42233 103.39375 286.07858Q102.7375 286.7192 102.675 287.79733Z" fill-rule="nonzero"/><path fill="#9e9e9e" d="M26.6125 313.39108L26.6125 314.75046L19.034374 314.75046Q19.01875 314.23483 19.20625 313.76608Q19.4875 313.00046 20.128124 312.25046Q20.76875 311.50046 21.971874 310.51608Q23.83125 308.98483 24.4875 308.0942Q25.14375 307.18796 25.14375 306.39108Q25.14375 305.56296 24.55 304.98483Q23.95625 304.4067 22.9875 304.4067Q21.971874 304.4067 21.3625 305.01608Q20.753124 305.62546 20.753124 306.70358L19.3 306.56296Q19.45625 304.93796 20.425 304.0942Q21.39375 303.25046 23.01875 303.25046Q24.675 303.25046 25.628124 304.17233Q26.596874 305.07858 26.596874 306.42233Q26.596874 307.10983 26.315624 307.7817Q26.034374 308.43796 25.378124 309.17233Q24.721874 309.9067 23.20625 311.18796Q21.940624 312.25046 21.58125 312.64108Q21.221874 313.01608 20.9875 313.39108L26.6125 313.39108ZM28.221874 309.0942Q28.221874 307.06296 28.628124 305.82858Q29.05 304.5942 29.878124 303.92233Q30.70625 303.25046 31.95625 303.25046Q32.878124 303.25046 33.565624 303.62546Q34.26875 303.98483 34.721874 304.68796Q35.175 305.39108 35.425 306.39108Q35.690624 307.39108 35.690624 309.0942Q35.690624 311.10983 35.26875 312.35983Q34.8625 313.5942 34.034374 314.2817Q33.20625 314.95358 31.95625 314.95358Q30.3 314.95358 29.346874 313.75046Q28.221874 312.32858 28.221874 309.0942ZM29.659374 309.0942Q29.659374 311.92233 30.315624 312.85983Q30.9875 313.7817 31.95625 313.7817Q32.925 313.7817 33.58125 312.8442Q34.2375 311.9067 34.2375 309.0942Q34.2375 306.26608 33.58125 305.3442Q32.925 304.4067 31.940624 304.4067Q30.971874 304.4067 30.39375 305.23483Q29.659374 306.2817 29.659374 309.0942ZM38.003124 314.75046L38.003124 313.14108L39.6125 313.14108L39.6125 314.75046L38.003124 314.75046ZM41.221874 309.0942Q41.221874 307.06296 41.628124 305.82858Q42.05 304.5942 42.878124 303.92233Q43.70625 303.25046 44.95625 303.25046Q45.878124 303.25046 46.565624 303.62546Q47.26875 303.98483 47.721874 304.68796Q48.175 305.39108 48.425 306.39108Q48.690624 307.39108 48.690624 309.0942Q48.690624 311.10983 48.26875 312.35983Q47.8625 313.5942 47.034374 314.2817Q46.20625 314.95358 44.95625 314.95358Q43.3 314.95358 42.346874 313.75046Q41.221874 312.32858 41.221874 309.0942ZM42.659374 309.0942Q42.659374 311.92233 43.315624 312.85983Q43.9875 313.7817 44.95625 313.7817Q45.925 313.7817 46.58125 312.8442Q47.2375 311.9067 47.2375 309.0942Q47.2375 306.26608 46.58125 305.3442Q45.925 304.4067 44.940624 304.4067Q43.971874 304.4067 43.39375 305.23483Q42.659374 306.2817 42.659374 309.0942ZM50.4875 306.04733Q50.4875 304.81296 51.096874 303.95358Q51.721874 303.0942 52.89375 303.0942Q53.971874 303.0942 54.675 303.87546Q55.378124 304.64108 55.378124 306.12546Q55.378124 307.57858 54.659374 308.37546Q53.95625 309.1567 52.909374 309.1567Q51.8625 309.1567 51.175 308.39108Q50.4875 307.60983 50.4875 306.04733ZM52.925 304.06296Q52.409374 304.06296 52.05 304.51608Q51.70625 304.9692 51.70625 306.18796Q51.70625 307.2817 52.05 307.73483Q52.409374 308.18796 52.925 308.18796Q53.45625 308.18796 53.8 307.73483Q54.159374 307.2817 54.159374 306.07858Q54.159374 304.9692 53.8 304.51608Q53.45625 304.06296 52.925 304.06296ZM52.940624 315.17233L59.20625 303.0942L60.346874 303.0942L54.096874 315.17233L52.940624 315.17233ZM57.89375 312.06296Q57.89375 310.82858 58.503124 309.9692Q59.128124 309.10983 60.3 309.10983Q61.378124 309.10983 62.08125 309.89108Q62.8 310.6567 62.8 312.14108Q62.8 313.5942 62.08125 314.39108Q61.3625 315.17233 60.315624 315.17233Q59.26875 315.17233 58.58125 314.39108Q57.89375 313.60983 57.89375 312.06296ZM60.346874 310.07858Q59.815624 310.07858 59.45625 310.5317Q59.1125 310.98483 59.1125 312.20358Q59.1125 313.29733 59.45625 313.75046Q59.815624 314.20358 60.33125 314.20358Q60.878124 314.20358 61.221874 313.75046Q61.565624 313.29733 61.565624 312.0942Q61.565624 310.98483 61.20625 310.5317Q60.8625 310.07858 60.346874 310.07858Z" fill-rule="nonzero"/><path stroke="#757575" stroke-width="1.0" stroke-linecap="butt" d="M18.55 298.25046L145.23334 298.25046L194.97258 298.25046" fill-rule="nonzero"/><path fill="#9e9e9e" d="M196.97258 298.25046C196.97258 297.14587 196.07715 296.25046 194.97258 296.25046C193.86801 296.25046 192.97258 297.14587 192.97258 298.25046C192.97258 299.355 193.86801 300.25046 194.97258 300.25046C196.07715 300.25046 196.97258 299.355 196.97258 298.25046" fill-rule="nonzero"/><path fill="#efefef" d="M490.23126 64.33854Q490.23126 61.479164 491.7625 59.86979Q493.29376 58.260414 495.71564 58.260414Q497.29376 58.260414 498.5594 59.02604Q499.84064 59.77604 500.5125 61.135414Q501.1844 62.479164 501.1844 64.197914Q501.1844 65.947914 500.48126 67.322914Q499.77814 68.697914 498.48126 69.416664Q497.2 70.11979 495.7 70.11979Q494.09064 70.11979 492.8094 69.33854Q491.54376 68.541664 490.8875 67.197914Q490.23126 65.83854 490.23126 64.33854ZM491.79376 64.354164Q491.79376 66.43229 492.90314 67.61979Q494.0125 68.80729 495.7 68.80729Q497.40314 68.80729 498.5125 67.604164Q499.6219 66.40104 499.6219 64.197914Q499.6219 62.791664 499.1375 61.760414Q498.66876 60.71354 497.7625 60.135414Q496.85626 59.55729 495.71564 59.55729Q494.10626 59.55729 492.95 60.666664Q491.79376 61.77604 491.79376 64.354164ZM502.4969 69.916664L502.4969 61.61979L503.7625 61.61979L503.7625 62.86979Q504.2469 61.99479 504.65314 61.71354Q505.0594 61.43229 505.5594 61.43229Q506.2625 61.43229 506.9969 61.885414L506.5125 63.18229Q505.9969 62.885414 505.48126 62.885414Q505.02814 62.885414 504.65314 63.166664Q504.29376 63.43229 504.1375 63.93229Q503.90314 64.68229 503.90314 65.572914L503.90314 69.916664L502.4969 69.916664ZM510.575 68.65104L510.77814 69.90104Q510.1844 70.02604 509.71564 70.02604Q508.95 70.02604 508.52814 69.791664Q508.10626 69.541664 507.9344 69.15104Q507.7625 68.74479 507.7625 67.479164L507.7625 62.71354L506.73126 62.71354L506.73126 61.61979L507.7625 61.61979L507.7625 59.55729L509.16876 58.71354L509.16876 61.61979L510.575 61.61979L510.575 62.71354L509.16876 62.71354L509.16876 67.55729Q509.16876 68.166664 509.23126 68.33854Q509.3094 68.510414 509.48126 68.61979Q509.65314 68.71354 509.96564 68.71354Q510.2 68.71354 510.575 68.65104ZM511.5125 69.916664L511.5125 58.46354L512.91876 58.46354L512.91876 62.572914Q513.90314 61.43229 515.40314 61.43229Q516.325 61.43229 516.9969 61.791664Q517.6844 62.15104 517.96564 62.791664Q518.2625 63.43229 518.2625 64.65104L518.2625 69.916664L516.85626 69.916664L516.85626 64.65104Q516.85626 63.604164 516.40314 63.11979Q515.95 62.635414 515.10626 62.635414Q514.48126 62.635414 513.9344 62.96354Q513.3875 63.291664 513.15314 63.854164Q512.91876 64.40104 512.91876 65.36979L512.91876 69.916664L511.5125 69.916664ZM519.98126 65.760414Q519.98126 63.46354 521.2625 62.354164Q522.34064 61.43229 523.8719 61.43229Q525.59064 61.43229 526.66876 62.55729Q527.7625 63.666664 527.7625 65.65104Q527.7625 67.24479 527.27814 68.166664Q526.79376 69.08854 525.8719 69.604164Q524.96564 70.104164 523.8719 70.104164Q522.1375 70.104164 521.0594 68.99479Q519.98126 67.86979 519.98126 65.760414ZM521.4344 65.760414Q521.4344 67.354164 522.1219 68.15104Q522.825 68.947914 523.8719 68.947914Q524.91876 68.947914 525.60626 68.15104Q526.3094 67.354164 526.3094 65.71354Q526.3094 64.18229 525.60626 63.385414Q524.91876 62.58854 523.8719 62.58854Q522.825 62.58854 522.1219 63.385414Q521.4344 64.166664 521.4344 65.760414ZM529.2469 70.604164L530.6219 70.80729Q530.7 71.447914 531.09064 71.729164Q531.6219 72.11979 532.52814 72.11979Q533.4969 72.11979 534.02814 71.729164Q534.5594 71.33854 534.7469 70.635414Q534.85626 70.21354 534.85626 68.822914Q533.9344 69.916664 532.5594 69.916664Q530.84064 69.916664 529.90314 68.68229Q528.96564 67.447914 528.96564 65.71354Q528.96564 64.52604 529.3875 63.52604Q529.825 62.52604 530.6375 61.979164Q531.46564 61.43229 532.5594 61.43229Q534.02814 61.43229 534.98126 62.61979L534.98126 61.61979L536.27814 61.61979L536.27814 68.791664Q536.27814 70.729164 535.8875 71.541664Q535.4969 72.354164 534.6375 72.822914Q533.77814 73.291664 532.52814 73.291664Q531.04376 73.291664 530.1219 72.61979Q529.21564 71.947914 529.2469 70.604164ZM530.41876 65.61979Q530.41876 67.24479 531.0594 67.99479Q531.71564 68.74479 532.6844 68.74479Q533.65314 68.74479 534.3094 68.010414Q534.96564 67.260414 534.96564 65.666664Q534.96564 64.135414 534.29376 63.36979Q533.6219 62.58854 532.66876 62.58854Q531.73126 62.58854 531.075 63.354164Q530.41876 64.11979 530.41876 65.61979ZM538.4969 69.916664L538.4969 61.61979L539.7625 61.61979L539.7625 62.86979Q540.2469 61.99479 540.65314 61.71354Q541.0594 61.43229 541.5594 61.43229Q542.2625 61.43229 542.9969 61.885414L542.5125 63.18229Q541.9969 62.885414 541.48126 62.885414Q541.02814 62.885414 540.65314 63.166664Q540.29376 63.43229 540.1375 63.93229Q539.90314 64.68229 539.90314 65.572914L539.90314 69.916664L538.4969 69.916664ZM548.91876 68.885414Q548.1375 69.55729 547.41876 69.83854Q546.7 70.104164 545.8719 70.104164Q544.4969 70.104164 543.7625 69.43229Q543.02814 68.760414 543.02814 67.729164Q543.02814 67.11979 543.3094 66.61979Q543.59064 66.104164 544.02814 65.80729Q544.48126 65.49479 545.04376 65.33854Q545.46564 65.229164 546.29376 65.135414Q547.9969 64.93229 548.8094 64.65104Q548.8094 64.354164 548.8094 64.27604Q548.8094 63.416664 548.41876 63.072914Q547.8719 62.58854 546.8094 62.58854Q545.825 62.58854 545.34064 62.947914Q544.8719 63.291664 544.65314 64.166664L543.27814 63.979164Q543.46564 63.104164 543.8875 62.55729Q544.325 62.010414 545.1375 61.729164Q545.95 61.43229 547.0125 61.43229Q548.075 61.43229 548.73126 61.68229Q549.40314 61.93229 549.71564 62.30729Q550.02814 62.68229 550.15314 63.260414Q550.23126 63.61979 550.23126 64.55729L550.23126 66.43229Q550.23126 68.40104 550.3094 68.916664Q550.40314 69.43229 550.66876 69.916664L549.2 69.916664Q548.98126 69.479164 548.91876 68.885414ZM548.8094 65.74479Q548.04376 66.05729 546.5125 66.27604Q545.6375 66.40104 545.27814 66.55729Q544.91876 66.71354 544.71564 67.02604Q544.52814 67.322914 544.52814 67.68229Q544.52814 68.24479 544.95 68.61979Q545.3875 68.99479 546.2 68.99479Q547.0125 68.99479 547.6375 68.65104Q548.27814 68.291664 548.575 67.666664Q548.8094 67.197914 548.8094 66.260414L548.8094 65.74479ZM552.5125 73.104164L552.5125 61.61979L553.79376 61.61979L553.79376 62.697914Q554.2469 62.05729 554.8094 61.74479Q555.3875 61.43229 556.2 61.43229Q557.2625 61.43229 558.075 61.979164Q558.8875 62.52604 559.29376 63.52604Q559.71564 64.510414 559.71564 65.697914Q559.71564 66.979164 559.2469 67.99479Q558.79376 69.010414 557.91876 69.55729Q557.0594 70.104164 556.09064 70.104164Q555.3875 70.104164 554.825 69.80729Q554.27814 69.510414 553.91876 69.05729L553.91876 73.104164L552.5125 73.104164ZM553.77814 65.80729Q553.77814 67.416664 554.41876 68.18229Q555.075 68.947914 555.9969 68.947914Q556.9344 68.947914 557.60626 68.15104Q558.27814 67.354164 558.27814 65.697914Q558.27814 64.104164 557.6219 63.322914Q556.96564 62.52604 556.0594 62.52604Q555.16876 62.52604 554.46564 63.36979Q553.77814 64.21354 553.77814 65.80729ZM561.5125 69.916664L561.5125 58.46354L562.91876 58.46354L562.91876 62.572914Q563.90314 61.43229 565.40314 61.43229Q566.325 61.43229 566.9969 61.791664Q567.6844 62.15104 567.96564 62.791664Q568.2625 63.43229 568.2625 64.65104L568.2625 69.916664L566.85626 69.916664L566.85626 64.65104Q566.85626 63.604164 566.40314 63.11979Q565.95 62.635414 565.10626 62.635414Q564.48126 62.635414 563.9344 62.96354Q563.3875 63.291664 563.15314 63.854164Q562.91876 64.40104 562.91876 65.36979L562.91876 69.916664L561.5125 69.916664ZM570.5125 60.072914L570.5125 58.46354L571.91876 58.46354L571.91876 60.072914L570.5125 60.072914ZM570.5125 69.916664L570.5125 61.61979L571.91876 61.61979L571.91876 69.916664L570.5125 69.916664ZM579.91876 66.86979L581.3094 67.05729Q581.075 68.479164 580.1375 69.291664Q579.21564 70.104164 577.85626 70.104164Q576.15314 70.104164 575.10626 68.99479Q574.075 67.86979 574.075 65.791664Q574.075 64.447914 574.5125 63.447914Q574.96564 62.43229 575.8719 61.93229Q576.79376 61.43229 577.85626 61.43229Q579.21564 61.43229 580.075 62.11979Q580.9344 62.791664 581.16876 64.05729L579.8094 64.260414Q579.60626 63.43229 579.10626 63.010414Q578.6219 62.58854 577.91876 62.58854Q576.85626 62.58854 576.1844 63.354164Q575.52814 64.104164 575.52814 65.760414Q575.52814 67.43229 576.16876 68.197914Q576.8094 68.947914 577.84064 68.947914Q578.66876 68.947914 579.21564 68.447914Q579.77814 67.93229 579.91876 66.86979Z" fill-rule="nonzero"/><path fill="#9e9e9e" d="M553.41876 83.260414L552.0125 83.36979Q551.825 82.541664 551.48126 82.166664Q550.91876 81.572914 550.075 81.572914Q549.40314 81.572914 548.90314 81.947914Q548.23126 82.43229 547.84064 83.36979Q547.46564 84.291664 547.45 86.010414Q547.96564 85.229164 548.7 84.854164Q549.4344 84.479164 550.23126 84.479164Q551.6375 84.479164 552.6219 85.52604Q553.6219 86.55729 553.6219 88.197914Q553.6219 89.27604 553.15314 90.197914Q552.6844 91.11979 551.8719 91.61979Q551.0594 92.11979 550.02814 92.11979Q548.27814 92.11979 547.16876 90.822914Q546.0594 89.52604 546.0594 86.55729Q546.0594 83.229164 547.27814 81.729164Q548.35626 80.416664 550.16876 80.416664Q551.5125 80.416664 552.3719 81.18229Q553.2469 81.93229 553.41876 83.260414ZM547.66876 88.197914Q547.66876 88.93229 547.98126 89.604164Q548.29376 90.260414 548.84064 90.604164Q549.40314 90.947914 550.0125 90.947914Q550.90314 90.947914 551.54376 90.229164Q552.1844 89.510414 552.1844 88.27604Q552.1844 87.08854 551.54376 86.416664Q550.91876 85.729164 549.95 85.729164Q548.9969 85.729164 548.325 86.416664Q547.66876 87.08854 547.66876 88.197914ZM555.90314 91.916664L555.90314 90.30729L557.5125 90.30729L557.5125 91.916664L555.90314 91.916664ZM559.21564 81.96354L559.21564 80.604164L566.6219 80.604164L566.6219 81.697914Q565.52814 82.86979 564.45 84.80729Q563.3875 86.729164 562.79376 88.760414Q562.3719 90.197914 562.2625 91.916664L560.8094 91.916664Q560.84064 90.55729 561.34064 88.65104Q561.85626 86.729164 562.79376 84.96354Q563.7469 83.18229 564.825 81.96354L559.21564 81.96354ZM568.3875 83.21354Q568.3875 81.979164 568.9969 81.11979Q569.6219 80.260414 570.79376 80.260414Q571.8719 80.260414 572.575 81.041664Q573.27814 81.80729 573.27814 83.291664Q573.27814 84.74479 572.5594 85.541664Q571.85626 86.322914 570.8094 86.322914Q569.7625 86.322914 569.075 85.55729Q568.3875 84.77604 568.3875 83.21354ZM570.825 81.229164Q570.3094 81.229164 569.95 81.68229Q569.60626 82.135414 569.60626 83.354164Q569.60626 84.447914 569.95 84.90104Q570.3094 85.354164 570.825 85.354164Q571.35626 85.354164 571.7 84.90104Q572.0594 84.447914 572.0594 83.24479Q572.0594 82.135414 571.7 81.68229Q571.35626 81.229164 570.825 81.229164ZM570.84064 92.33854L577.10626 80.260414L578.2469 80.260414L571.9969 92.33854L570.84064 92.33854ZM575.79376 89.229164Q575.79376 87.99479 576.40314 87.135414Q577.02814 86.27604 578.2 86.27604Q579.27814 86.27604 579.98126 87.05729Q580.7 87.822914 580.7 89.30729Q580.7 90.760414 579.98126 91.55729Q579.2625 92.33854 578.21564 92.33854Q577.16876 92.33854 576.48126 91.55729Q575.79376 90.77604 575.79376 89.229164ZM578.2469 87.24479Q577.71564 87.24479 577.35626 87.697914Q577.0125 88.15104 577.0125 89.36979Q577.0125 90.46354 577.35626 90.916664Q577.71564 91.36979 578.23126 91.36979Q578.77814 91.36979 579.1219 90.916664Q579.46564 90.46354 579.46564 89.260414Q579.46564 88.15104 579.10626 87.697914Q578.7625 87.24479 578.2469 87.24479Z" fill-rule="nonzero"/><path stroke="#757575" stroke-width="1.0" stroke-linecap="butt" d="M581.45 75.416664L454.76666 75.416664L329.38382 65.44336" fill-rule="nonzero"/><path fill="#9e9e9e" d="M331.38382 65.44336C331.38382 64.33879 330.48837 63.443363 329.38382 63.443363C328.27924 63.443363 327.38382 64.33879 327.38382 65.44336C327.38382 66.547935 328.27924 67.44336 329.38382 67.44336C330.48837 67.44336 331.38382 66.547935 331.38382 65.44336" fill-rule="nonzero"/><path fill="#efefef" d="M531.6844 241.85619L531.6844 230.40306L536.0125 230.40306Q537.15314 230.40306 537.7469 230.51244Q538.59064 230.65306 539.15314 231.04369Q539.73126 231.43431 540.075 232.15306Q540.4344 232.85619 540.4344 233.71556Q540.4344 235.16869 539.4969 236.18431Q538.575 237.19994 536.1375 237.19994L533.2 237.19994L533.2 241.85619L531.6844 241.85619ZM533.2 235.84056L536.16876 235.84056Q537.6375 235.84056 538.2469 235.29369Q538.8719 234.74681 538.8719 233.76244Q538.8719 233.04369 538.4969 232.52806Q538.1375 232.01244 537.54376 231.85619Q537.16876 231.74681 536.1375 231.74681L533.2 231.74681L533.2 235.84056ZM548.1844 239.18431L549.6375 239.35619Q549.29376 240.63744 548.35626 241.34056Q547.4344 242.04369 545.9969 242.04369Q544.16876 242.04369 543.10626 240.91869Q542.04376 239.79369 542.04376 237.77806Q542.04376 235.68431 543.1219 234.52806Q544.2 233.37181 545.91876 233.37181Q547.575 233.37181 548.6219 234.51244Q549.6844 235.63744 549.6844 237.68431Q549.6844 237.80931 549.6844 238.05931L543.4969 238.05931Q543.575 239.43431 544.2625 240.16869Q544.96564 240.88744 545.9969 240.88744Q546.77814 240.88744 547.325 240.48119Q547.8719 240.07494 548.1844 239.18431ZM543.575 236.90306L548.2 236.90306Q548.10626 235.85619 547.66876 235.34056Q546.9969 234.52806 545.9344 234.52806Q544.96564 234.52806 544.29376 235.18431Q543.6375 235.82494 543.575 236.90306ZM550.98126 237.69994Q550.98126 235.40306 552.2625 234.29369Q553.34064 233.37181 554.8719 233.37181Q556.59064 233.37181 557.66876 234.49681Q558.7625 235.60619 558.7625 237.59056Q558.7625 239.18431 558.27814 240.10619Q557.79376 241.02806 556.8719 241.54369Q555.96564 242.04369 554.8719 242.04369Q553.1375 242.04369 552.0594 240.93431Q550.98126 239.80931 550.98126 237.69994ZM552.4344 237.69994Q552.4344 239.29369 553.1219 240.09056Q553.825 240.88744 554.8719 240.88744Q555.91876 240.88744 556.60626 240.09056Q557.3094 239.29369 557.3094 237.65306Q557.3094 236.12181 556.60626 235.32494Q555.91876 234.52806 554.8719 234.52806Q553.825 234.52806 553.1219 235.32494Q552.4344 236.10619 552.4344 237.69994ZM560.5125 245.04369L560.5125 233.55931L561.79376 233.55931L561.79376 234.63744Q562.2469 233.99681 562.8094 233.68431Q563.3875 233.37181 564.2 233.37181Q565.2625 233.37181 566.075 233.91869Q566.8875 234.46556 567.29376 235.46556Q567.71564 236.44994 567.71564 237.63744Q567.71564 238.91869 567.2469 239.93431Q566.79376 240.94994 565.91876 241.49681Q565.0594 242.04369 564.09064 242.04369Q563.3875 242.04369 562.825 241.74681Q562.27814 241.44994 561.91876 240.99681L561.91876 245.04369L560.5125 245.04369ZM561.77814 237.74681Q561.77814 239.35619 562.41876 240.12181Q563.075 240.88744 563.9969 240.88744Q564.9344 240.88744 565.60626 240.09056Q566.27814 239.29369 566.27814 237.63744Q566.27814 236.04369 565.6219 235.26244Q564.96564 234.46556 564.0594 234.46556Q563.16876 234.46556 562.46564 235.30931Q561.77814 236.15306 561.77814 237.74681ZM569.48126 241.85619L569.48126 230.40306L570.8875 230.40306L570.8875 241.85619L569.48126 241.85619ZM579.1844 239.18431L580.6375 239.35619Q580.29376 240.63744 579.35626 241.34056Q578.4344 242.04369 576.9969 242.04369Q575.16876 242.04369 574.10626 240.91869Q573.04376 239.79369 573.04376 237.77806Q573.04376 235.68431 574.1219 234.52806Q575.2 233.37181 576.91876 233.37181Q578.575 233.37181 579.6219 234.51244Q580.6844 235.63744 580.6844 237.68431Q580.6844 237.80931 580.6844 238.05931L574.4969 238.05931Q574.575 239.43431 575.2625 240.16869Q575.96564 240.88744 576.9969 240.88744Q577.77814 240.88744 578.325 240.48119Q578.8719 240.07494 579.1844 239.18431ZM574.575 236.90306L579.2 236.90306Q579.10626 235.85619 578.66876 235.34056Q577.9969 234.52806 576.9344 234.52806Q575.96564 234.52806 575.29376 235.18431Q574.6375 235.82494 574.575 236.90306Z" fill-rule="nonzero"/><path fill="#9e9e9e" d="M541.6219 263.8562L541.6219 261.1062L536.65314 261.1062L536.65314 259.82495L541.8875 252.40308L543.02814 252.40308L543.02814 259.82495L544.575 259.82495L544.575 261.1062L543.02814 261.1062L543.02814 263.8562L541.6219 263.8562ZM541.6219 259.82495L541.6219 254.65308L538.04376 259.82495L541.6219 259.82495ZM553.41876 255.19995L552.0125 255.30933Q551.825 254.4812 551.48126 254.1062Q550.91876 253.51245 550.075 253.51245Q549.40314 253.51245 548.90314 253.88745Q548.23126 254.37183 547.84064 255.30933Q547.46564 256.2312 547.45 257.94995Q547.96564 257.1687 548.7 256.7937Q549.4344 256.4187 550.23126 256.4187Q551.6375 256.4187 552.6219 257.46558Q553.6219 258.49683 553.6219 260.13745Q553.6219 261.21558 553.15314 262.13745Q552.6844 263.05933 551.8719 263.55933Q551.0594 264.05933 550.02814 264.05933Q548.27814 264.05933 547.16876 262.76245Q546.0594 261.46558 546.0594 258.49683Q546.0594 255.1687 547.27814 253.6687Q548.35626 252.3562 550.16876 252.3562Q551.5125 252.3562 552.3719 253.12183Q553.2469 253.87183 553.41876 255.19995ZM547.66876 260.13745Q547.66876 260.87183 547.98126 261.5437Q548.29376 262.19995 548.84064 262.5437Q549.40314 262.88745 550.0125 262.88745Q550.90314 262.88745 551.54376 262.1687Q552.1844 261.44995 552.1844 260.21558Q552.1844 259.02808 551.54376 258.3562Q550.91876 257.6687 549.95 257.6687Q548.9969 257.6687 548.325 258.3562Q547.66876 259.02808 547.66876 260.13745ZM555.90314 263.8562L555.90314 262.24683L557.5125 262.24683L557.5125 263.8562L555.90314 263.8562ZM559.21564 253.90308L559.21564 252.5437L566.6219 252.5437L566.6219 253.63745Q565.52814 254.80933 564.45 256.74683Q563.3875 258.6687 562.79376 260.69995Q562.3719 262.13745 562.2625 263.8562L560.8094 263.8562Q560.84064 262.49683 561.34064 260.59058Q561.85626 258.6687 562.79376 256.90308Q563.7469 255.12183 564.825 253.90308L559.21564 253.90308ZM568.3875 255.15308Q568.3875 253.9187 568.9969 253.05933Q569.6219 252.19995 570.79376 252.19995Q571.8719 252.19995 572.575 252.9812Q573.27814 253.74683 573.27814 255.2312Q573.27814 256.68433 572.5594 257.4812Q571.85626 258.26245 570.8094 258.26245Q569.7625 258.26245 569.075 257.49683Q568.3875 256.71558 568.3875 255.15308ZM570.825 253.1687Q570.3094 253.1687 569.95 253.62183Q569.60626 254.07495 569.60626 255.2937Q569.60626 256.38745 569.95 256.84058Q570.3094 257.2937 570.825 257.2937Q571.35626 257.2937 571.7 256.84058Q572.0594 256.38745 572.0594 255.18433Q572.0594 254.07495 571.7 253.62183Q571.35626 253.1687 570.825 253.1687ZM570.84064 264.27808L577.10626 252.19995L578.2469 252.19995L571.9969 264.27808L570.84064 264.27808ZM575.79376 261.1687Q575.79376 259.93433 576.40314 259.07495Q577.02814 258.21558 578.2 258.21558Q579.27814 258.21558 579.98126 258.99683Q580.7 259.76245 580.7 261.24683Q580.7 262.69995 579.98126 263.49683Q579.2625 264.27808 578.21564 264.27808Q577.16876 264.27808 576.48126 263.49683Q575.79376 262.71558 575.79376 261.1687ZM578.2469 259.18433Q577.71564 259.18433 577.35626 259.63745Q577.0125 260.09058 577.0125 261.30933Q577.0125 262.40308 577.35626 262.8562Q577.71564 263.30933 578.23126 263.30933Q578.77814 263.30933 579.1219 262.8562Q579.46564 262.40308 579.46564 261.19995Q579.46564 260.09058 579.10626 259.63745Q578.7625 259.18433 578.2469 259.18433Z" fill-rule="nonzero"/><path stroke="#757575" stroke-width="1.0" stroke-linecap="butt" d="M581.45 247.35619L454.76666 247.35619L434.41122 247.35619" fill-rule="nonzero"/><path fill="#9e9e9e" d="M436.41122 247.35619C436.41122 246.25162 435.5158 245.35619 434.41122 245.35619C433.30667 245.35619 432.41122 246.25162 432.41122 247.35619C432.41122 248.46075 433.30667 249.35619 434.41122 249.35619C435.5158 249.35619 436.41122 248.46075 436.41122 247.35619" fill-rule="nonzero"/><path fill="#f3f3f3" d="M265.98438 37.55L265.98438 23.2375L268.84375 23.2375L272.21875 33.3625Q272.6875 34.784374 272.90625 35.4875Q273.15625 34.70625 273.67188 33.190624L277.09375 23.2375L279.64062 23.2375L279.64062 37.55L277.82812 37.55L277.82812 25.565624L273.65625 37.55L271.95312 37.55L267.8125 25.3625L267.8125 37.55L265.98438 37.55ZM289.92188 34.20625L291.73438 34.440624Q291.3125 36.01875 290.14062 36.909374Q288.98438 37.784374 287.17188 37.784374Q284.90625 37.784374 283.5625 36.39375Q282.23438 34.9875 282.23438 32.45625Q282.23438 29.83125 283.57812 28.39375Q284.92188 26.940624 287.07812 26.940624Q289.15625 26.940624 290.46875 28.3625Q291.79688 29.76875 291.79688 32.346874Q291.79688 32.503124 291.78125 32.815624L284.04688 32.815624Q284.14062 34.51875 285.01562 35.425Q285.89062 36.33125 287.1875 36.33125Q288.15625 36.33125 288.82812 35.83125Q289.51562 35.315624 289.92188 34.20625ZM284.14062 31.3625L289.9375 31.3625Q289.82812 30.065624 289.28125 29.409374Q288.4375 28.39375 287.09375 28.39375Q285.89062 28.39375 285.0625 29.20625Q284.23438 30.003124 284.14062 31.3625ZM300.54688 37.55L300.54688 36.2375Q299.5625 37.784374 297.64062 37.784374Q296.40625 37.784374 295.35938 37.096874Q294.32812 36.409374 293.75 35.190624Q293.1875 33.971874 293.1875 32.378124Q293.1875 30.815624 293.70312 29.55Q294.21875 28.284374 295.25 27.6125Q296.29688 26.940624 297.5625 26.940624Q298.5 26.940624 299.23438 27.346874Q299.96875 27.7375 300.4375 28.3625L300.4375 23.2375L302.17188 23.2375L302.17188 37.55L300.54688 37.55ZM294.98438 32.378124Q294.98438 34.3625 295.82812 35.346874Q296.67188 36.33125 297.8125 36.33125Q298.96875 36.33125 299.76562 35.39375Q300.57812 34.45625 300.57812 32.51875Q300.57812 30.39375 299.75 29.39375Q298.9375 28.39375 297.73438 28.39375Q296.5625 28.39375 295.76562 29.3625Q294.98438 30.315624 294.98438 32.378124ZM304.82812 25.253124L304.82812 23.2375L306.59375 23.2375L306.59375 25.253124L304.82812 25.253124ZM304.82812 37.55L304.82812 27.175L306.59375 27.175L306.59375 37.55L304.82812 37.55ZM315.60938 37.55L315.60938 36.01875Q314.40625 37.784374 312.32812 37.784374Q311.40625 37.784374 310.60938 37.440624Q309.8125 37.08125 309.42188 36.55Q309.04688 36.01875 308.89062 35.2375Q308.78125 34.721874 308.78125 33.596874L308.78125 27.175L310.53125 27.175L310.53125 32.925Q310.53125 34.3 310.64062 34.784374Q310.8125 35.471874 311.34375 35.878124Q311.89062 36.26875 312.67188 36.26875Q313.46875 36.26875 314.15625 35.8625Q314.85938 35.45625 315.14062 34.76875Q315.4375 34.065624 315.4375 32.7375L315.4375 27.175L317.1875 27.175L317.1875 37.55L315.60938 37.55ZM319.8125 37.55L319.8125 27.175L321.39062 27.175L321.39062 28.628124Q321.875 27.878124 322.6875 27.409374Q323.5 26.940624 324.53125 26.940624Q325.6875 26.940624 326.42188 27.425Q327.15625 27.89375 327.46875 28.753124Q328.70312 26.940624 330.67188 26.940624Q332.21875 26.940624 333.04688 27.8Q333.875 28.659374 333.875 30.425L333.875 37.55L332.125 37.55L332.125 31.01875Q332.125 29.95625 331.95312 29.503124Q331.78125 29.034374 331.32812 28.753124Q330.89062 28.471874 330.28125 28.471874Q329.1875 28.471874 328.45312 29.20625Q327.73438 29.925 327.73438 31.51875L327.73438 37.55L325.98438 37.55L325.98438 30.815624Q325.98438 29.64375 325.54688 29.065624Q325.125 28.471874 324.14062 28.471874Q323.40625 28.471874 322.76562 28.8625Q322.14062 29.253124 321.85938 30.003124Q321.57812 30.753124 321.57812 32.175L321.57812 37.55L319.8125 37.55Z" fill-rule="nonzero"/></svg>