<svg version="1.1" viewBox="0.0 0.0 600.0 371.0" fill="none" stroke="none" stroke-linecap="square" stroke-miterlimit="10" width="600" height="371" xmlns:xlink="http://www.w3.org/1999/xlink" xmlns="http://www.w3.org/2000/svg"><path fill="#ffffff" fill-opacity="0.0" d="M0 0L600.0 0L600.0 371.0L0 371.0L0 0Z" fill-rule="nonzero"/><path fill="#304388" d="M300.0 54.916668C334.97543 54.916668 368.83264 67.23968 395.62537 89.72146L323.90634 175.19287C317.20816 169.57242 308.74387 166.49167 300.0 166.49167Z" fill-rule="nonzero"/><path fill="#313d89" d="M395.62537 89.72146C436.34003 123.88511 455.73584 177.17464 446.50656 229.51639L336.62665 210.1416C338.93396 197.05615 334.08502 183.73378 323.90634 175.19287Z" fill-rule="nonzero"/><path fill="#533990" d="M446.50656 229.51639C440.43314 263.96048 422.41812 295.16342 395.62537 317.6452L323.90634 232.1738C330.60452 226.55336 335.10828 218.75262 336.62665 210.1416Z" fill-rule="nonzero"/><path fill="#b5428d" d="M395.62537 317.6452C382.33154 328.80005 367.1885 337.5429 350.8812 343.47827L312.7203 238.63206C316.79712 237.14822 320.5829 234.96251 323.90634 232.1738Z" fill-rule="nonzero"/><path fill="#e5a345" d="M171.16429 129.3C197.73889 83.27143 246.85078 54.916668 300.0 54.916668L300.0 166.49167C286.7127 166.49167 274.43472 173.58035 267.79108 185.0875Z" fill-rule="nonzero"/><path fill="#df8d43" d="M249.1188 343.47827C207.79642 328.43814 175.24518 295.88693 160.20506 254.56453C145.16495 213.24214 149.17711 167.38292 171.16429 129.3L267.79108 185.0875C262.29428 194.60823 261.29123 206.07303 265.05127 216.40363C268.8113 226.73422 276.9491 234.87204 287.2797 238.63206Z" fill-rule="nonzero"/><path fill="#cf4366" d="M350.8812 343.47827C318.01505 355.44058 281.98495 355.44058 249.1188 343.47827L287.2797 238.63206C295.49625 241.62265 304.50375 241.62265 312.7203 238.63206Z" fill-rule="nonzero"/><path fill="#ffffff" d="M318.2112 108.504425L316.6331 108.504425L316.6331 98.4263Q316.05496 98.973175 315.1331 99.52005Q314.2112 100.0513 313.4612 100.33255L313.4612 98.8013Q314.78934 98.1763 315.78934 97.285675Q316.78934 96.39505 317.1956 95.566925L318.2112 95.566925L318.2112 108.504425ZM328.2112 108.504425L326.6331 108.504425L326.6331 98.4263Q326.05496 98.973175 325.1331 99.52005Q324.2112 100.0513 323.4612 100.33255L323.4612 98.8013Q324.78934 98.1763 325.78934 97.285675Q326.78934 96.39505 327.1956 95.566925L328.2112 95.566925L328.2112 108.504425ZM333.1487 108.504425L333.1487 106.70755L334.9456 106.70755L334.9456 108.504425L333.1487 108.504425ZM343.2112 108.504425L341.6331 108.504425L341.6331 98.4263Q341.05496 98.973175 340.1331 99.52005Q339.2112 100.0513 338.4612 100.33255L338.4612 98.8013Q339.78934 98.1763 340.78934 97.285675Q341.78934 96.39505 342.1956 95.566925L343.2112 95.566925L343.2112 108.504425ZM347.55496 98.70755Q347.55496 97.33255 348.24246 96.3638Q348.9456 95.39505 350.2581 95.39505Q351.47684 95.39505 352.2737 96.27005Q353.0706 97.129425 353.0706 98.816925Q353.0706 100.441925 352.2581 101.33255Q351.4612 102.20755 350.2737 102.20755Q349.11746 102.20755 348.3362 101.348175Q347.55496 100.473175 347.55496 98.70755ZM350.30496 96.4888Q349.7112 96.4888 349.3206 97.004425Q348.92996 97.504425 348.92996 98.8638Q348.92996 100.1138 349.3206 100.6138Q349.72684 101.1138 350.30496 101.1138Q350.8987 101.1138 351.28934 100.6138Q351.67996 100.098175 351.67996 98.754425Q351.67996 97.504425 351.28934 97.004425Q350.8987 96.4888 350.30496 96.4888ZM350.3206 108.973175L357.36746 95.39505L358.6487 95.39505L351.61746 108.973175L350.3206 108.973175ZM355.8831 105.473175Q355.8831 104.098175 356.5706 103.129425Q357.2737 102.160675 358.60184 102.160675Q359.8206 102.160675 360.60184 103.035675Q361.3987 103.89505 361.3987 105.58255Q361.3987 107.20755 360.60184 108.098175Q359.80496 108.973175 358.61746 108.973175Q357.4456 108.973175 356.66434 108.098175Q355.8831 107.223175 355.8831 105.473175ZM358.6487 103.254425Q358.05496 103.254425 357.66434 103.77005Q357.2737 104.27005 357.2737 105.64505Q357.2737 106.8638 357.66434 107.379425Q358.05496 107.89505 358.6331 107.89505Q359.24246 107.89505 359.6331 107.379425Q360.0237 106.8638 360.0237 105.52005Q360.0237 104.27005 359.6331 103.77005Q359.24246 103.254425 358.6487 103.254425Z" fill-rule="nonzero"/><path fill="#ffffff" d="M376.87015 175.36339L375.29202 175.36339L375.29202 165.28526Q374.7139 165.83214 373.79202 166.37901Q372.87015 166.91026 372.12015 167.19151L372.12015 165.66026Q373.44827 165.03526 374.44827 164.14464Q375.44827 163.25401 375.85452 162.42589L376.87015 162.42589L376.87015 175.36339ZM389.12015 165.62901L387.55765 165.75401Q387.3389 164.83214 386.94827 164.41026Q386.30765 163.72276 385.37015 163.72276Q384.62015 163.72276 384.04202 164.14464Q383.29202 164.69151 382.85452 165.73839Q382.43265 166.78526 382.41702 168.72276Q382.99515 167.84776 383.80765 167.42589Q384.63577 167.00401 385.54202 167.00401Q387.13577 167.00401 388.24515 168.17589Q389.35452 169.33214 389.35452 171.17589Q389.35452 172.39464 388.82327 173.44151Q388.30765 174.47276 387.38577 175.03526Q386.47952 175.58214 385.32327 175.58214Q383.3389 175.58214 382.0889 174.12901Q380.8389 172.67589 380.8389 169.33214Q380.8389 165.59776 382.22952 163.89464Q383.43265 162.42589 385.4639 162.42589Q386.99515 162.42589 387.9639 163.28526Q388.93265 164.12901 389.12015 165.62901ZM382.66702 171.19151Q382.66702 172.00401 383.01077 172.75401Q383.35452 173.50401 383.97952 173.89464Q384.60452 174.28526 385.29202 174.28526Q386.29202 174.28526 387.01077 173.47276Q387.72952 172.66026 387.72952 171.26964Q387.72952 169.94151 387.01077 169.17589Q386.30765 168.39464 385.22952 168.39464Q384.1514 168.39464 383.4014 169.17589Q382.66702 169.94151 382.66702 171.19151ZM391.80765 175.36339L391.80765 173.56651L393.60452 173.56651L393.60452 175.36339L391.80765 175.36339ZM396.0264 164.16026L396.0264 162.64464L404.35452 162.64464L404.35452 163.87901Q403.13577 165.19151 401.91702 167.36339Q400.7139 169.51964 400.05765 171.81651Q399.57327 173.44151 399.44827 175.36339L397.82327 175.36339Q397.85452 173.84776 398.41702 171.69151Q398.99515 169.53526 400.05765 167.53526Q401.12015 165.53526 402.32327 164.16026L396.0264 164.16026ZM406.2139 165.56651Q406.2139 164.19151 406.9014 163.22276Q407.60452 162.25401 408.91702 162.25401Q410.13577 162.25401 410.93265 163.12901Q411.72952 163.98839 411.72952 165.67589Q411.72952 167.30089 410.91702 168.19151Q410.12015 169.06651 408.93265 169.06651Q407.7764 169.06651 406.99515 168.20714Q406.2139 167.33214 406.2139 165.56651ZM408.9639 163.34776Q408.37015 163.34776 407.97952 163.86339Q407.5889 164.36339 407.5889 165.72276Q407.5889 166.97276 407.97952 167.47276Q408.38577 167.97276 408.9639 167.97276Q409.55765 167.97276 409.94827 167.47276Q410.3389 166.95714 410.3389 165.61339Q410.3389 164.36339 409.94827 163.86339Q409.55765 163.34776 408.9639 163.34776ZM408.97952 175.83214L416.0264 162.25401L417.30765 162.25401L410.2764 175.83214L408.97952 175.83214ZM414.54202 172.33214Q414.54202 170.95714 415.22952 169.98839Q415.93265 169.01964 417.26077 169.01964Q418.47952 169.01964 419.26077 169.89464Q420.05765 170.75401 420.05765 172.44151Q420.05765 174.06651 419.26077 174.95714Q418.4639 175.83214 417.2764 175.83214Q416.10452 175.83214 415.32327 174.95714Q414.54202 174.08214 414.54202 172.33214ZM417.30765 170.11339Q416.7139 170.11339 416.32327 170.62901Q415.93265 171.12901 415.93265 172.50401Q415.93265 173.72276 416.32327 174.23839Q416.7139 174.75401 417.29202 174.75401Q417.9014 174.75401 418.29202 174.23839Q418.68265 173.72276 418.68265 172.37901Q418.68265 171.12901 418.29202 170.62901Q417.9014 170.11339 417.30765 170.11339Z" fill-rule="nonzero"/><path fill="#ffffff" d="M368.7586 260.73352L367.18048 260.73352L367.18048 250.6554Q366.60236 251.20227 365.68048 251.74915Q364.7586 252.2804 364.0086 252.56165L364.0086 251.0304Q365.33673 250.4054 366.33673 249.51477Q367.33673 248.62415 367.74298 247.79602L368.7586 247.79602L368.7586 260.73352ZM378.7586 260.73352L377.18048 260.73352L377.18048 250.6554Q376.60236 251.20227 375.68048 251.74915Q374.7586 252.2804 374.0086 252.56165L374.0086 251.0304Q375.33673 250.4054 376.33673 249.51477Q377.33673 248.62415 377.74298 247.79602L378.7586 247.79602L378.7586 260.73352ZM383.6961 260.73352L383.6961 258.93665L385.49298 258.93665L385.49298 260.73352L383.6961 260.73352ZM393.7586 260.73352L392.18048 260.73352L392.18048 250.6554Q391.60236 251.20227 390.68048 251.74915Q389.7586 252.2804 389.0086 252.56165L389.0086 251.0304Q390.33673 250.4054 391.33673 249.51477Q392.33673 248.62415 392.74298 247.79602L393.7586 247.79602L393.7586 260.73352ZM398.10236 250.93665Q398.10236 249.56165 398.78986 248.5929Q399.49298 247.62415 400.80548 247.62415Q402.02423 247.62415 402.8211 248.49915Q403.61798 249.35852 403.61798 251.04602Q403.61798 252.67102 402.80548 253.56165Q402.0086 254.43665 400.8211 254.43665Q399.66486 254.43665 398.8836 253.57727Q398.10236 252.70227 398.10236 250.93665ZM400.85236 248.7179Q400.2586 248.7179 399.86798 249.23352Q399.47736 249.73352 399.47736 251.0929Q399.47736 252.3429 399.86798 252.8429Q400.27423 253.3429 400.85236 253.3429Q401.4461 253.3429 401.83673 252.8429Q402.22736 252.32727 402.22736 250.98352Q402.22736 249.73352 401.83673 249.23352Q401.4461 248.7179 400.85236 248.7179ZM400.86798 261.20227L407.91486 247.62415L409.1961 247.62415L402.16486 261.20227L400.86798 261.20227ZM406.43048 257.70227Q406.43048 256.32727 407.11798 255.35852Q407.8211 254.38977 409.14923 254.38977Q410.36798 254.38977 411.14923 255.26477Q411.9461 256.12415 411.9461 257.81165Q411.9461 259.43665 411.14923 260.32727Q410.35236 261.20227 409.16486 261.20227Q407.99298 261.20227 407.21173 260.32727Q406.43048 259.45227 406.43048 257.70227ZM409.1961 255.48352Q408.60236 255.48352 408.21173 255.99915Q407.8211 256.49915 407.8211 257.87415Q407.8211 259.0929 408.21173 259.60852Q408.60236 260.12415 409.18048 260.12415Q409.78986 260.12415 410.18048 259.60852Q410.5711 259.0929 410.5711 257.74915Q410.5711 256.49915 410.18048 255.99915Q409.78986 255.48352 409.1961 255.48352Z" fill-rule="nonzero"/><path fill="#ffffff" d="M281.20312 327.98923L279.625 327.98923L279.625 317.9111Q279.04688 318.45798 278.125 319.00485Q277.20312 319.5361 276.45312 319.81735L276.45312 318.2861Q277.78125 317.6611 278.78125 316.77048Q279.78125 315.87985 280.1875 315.05173L281.20312 315.05173L281.20312 327.98923ZM291.20312 327.98923L289.625 327.98923L289.625 317.9111Q289.04688 318.45798 288.125 319.00485Q287.20312 319.5361 286.45312 319.81735L286.45312 318.2861Q287.78125 317.6611 288.78125 316.77048Q289.78125 315.87985 290.1875 315.05173L291.20312 315.05173L291.20312 327.98923ZM296.14062 327.98923L296.14062 326.19235L297.9375 326.19235L297.9375 327.98923L296.14062 327.98923ZM306.20312 327.98923L304.625 327.98923L304.625 317.9111Q304.04688 318.45798 303.125 319.00485Q302.20312 319.5361 301.45312 319.81735L301.45312 318.2861Q302.78125 317.6611 303.78125 316.77048Q304.78125 315.87985 305.1875 315.05173L306.20312 315.05173L306.20312 327.98923ZM310.54688 318.19235Q310.54688 316.81735 311.23438 315.8486Q311.9375 314.87985 313.25 314.87985Q314.46875 314.87985 315.26562 315.75485Q316.0625 316.61423 316.0625 318.30173Q316.0625 319.92673 315.25 320.81735Q314.45312 321.69235 313.26562 321.69235Q312.10938 321.69235 311.32812 320.83298Q310.54688 319.95798 310.54688 318.19235ZM313.29688 315.9736Q312.70312 315.9736 312.3125 316.48923Q311.92188 316.98923 311.92188 318.3486Q311.92188 319.5986 312.3125 320.0986Q312.71875 320.5986 313.29688 320.5986Q313.89062 320.5986 314.28125 320.0986Q314.67188 319.58298 314.67188 318.23923Q314.67188 316.98923 314.28125 316.48923Q313.89062 315.9736 313.29688 315.9736ZM313.3125 328.45798L320.35938 314.87985L321.64062 314.87985L314.60938 328.45798L313.3125 328.45798ZM318.875 324.95798Q318.875 323.58298 319.5625 322.61423Q320.26562 321.64548 321.59375 321.64548Q322.8125 321.64548 323.59375 322.52048Q324.39062 323.37985 324.39062 325.06735Q324.39062 326.69235 323.59375 327.58298Q322.79688 328.45798 321.60938 328.45798Q320.4375 328.45798 319.65625 327.58298Q318.875 326.70798 318.875 324.95798ZM321.64062 322.73923Q321.04688 322.73923 320.65625 323.25485Q320.26562 323.75485 320.26562 325.12985Q320.26562 326.3486 320.65625 326.86423Q321.04688 327.37985 321.625 327.37985Q322.23438 327.37985 322.625 326.86423Q323.01562 326.3486 323.01562 325.00485Q323.01562 323.75485 322.625 323.25485Q322.23438 322.73923 321.64062 322.73923Z" fill-rule="nonzero"/><path fill="#ffffff" d="M187.89546 243.48766L187.89546 245.00328L179.37984 245.00328Q179.36421 244.42516 179.56734 243.90953Q179.89546 243.03453 180.59859 242.19078Q181.31734 241.34703 182.67671 240.23766Q184.77046 238.5189 185.50484 237.5189Q186.25484 236.50328 186.25484 235.61266Q186.25484 234.65953 185.58296 234.0189Q184.91109 233.37828 183.83296 233.37828Q182.67671 233.37828 181.98921 234.06578Q181.31734 234.75328 181.30171 235.9564L179.67671 235.78453Q179.84859 233.97203 180.92671 233.0189Q182.02046 232.06578 183.86421 232.06578Q185.70796 232.06578 186.78609 233.09703Q187.87984 234.12828 187.87984 235.6439Q187.87984 236.40953 187.55171 237.15953Q187.23921 237.90953 186.50484 238.73766Q185.77046 239.56578 184.06734 241.00328Q182.64546 242.2064 182.23921 242.62828Q181.83296 243.05016 181.58296 243.48766L187.89546 243.48766ZM189.69234 233.80016L189.69234 232.28453L198.02046 232.28453L198.02046 233.5189Q196.80171 234.8314 195.58296 237.00328Q194.37984 239.15953 193.72359 241.4564Q193.23921 243.0814 193.11421 245.00328L191.48921 245.00328Q191.52046 243.48766 192.08296 241.3314Q192.66109 239.17516 193.72359 237.17516Q194.78609 235.17516 195.98921 233.80016L189.69234 233.80016ZM200.47359 245.00328L200.47359 243.2064L202.27046 243.2064L202.27046 245.00328L200.47359 245.00328ZM207.02046 238.0189Q206.03609 237.65953 205.55171 236.98766Q205.08296 236.31578 205.08296 235.3939Q205.08296 233.98766 206.08296 233.03453Q207.09859 232.06578 208.78609 232.06578Q210.47359 232.06578 211.48921 233.05016Q212.52046 234.0189 212.52046 235.42516Q212.52046 236.3314 212.05171 237.00328Q211.58296 237.65953 210.62984 238.0189Q211.81734 238.40953 212.42671 239.2689Q213.05171 240.12828 213.05171 241.31578Q213.05171 242.97203 211.87984 244.09703Q210.70796 245.22203 208.80171 245.22203Q206.89546 245.22203 205.72359 244.09703Q204.56734 242.9564 204.56734 241.2689Q204.56734 240.0189 205.19234 239.17516Q205.83296 238.31578 207.02046 238.0189ZM206.69234 235.3314Q206.69234 236.25328 207.28609 236.8314Q207.87984 237.40953 208.81734 237.40953Q209.72359 237.40953 210.30171 236.8314Q210.89546 236.25328 210.89546 235.42516Q210.89546 234.55016 210.28609 233.9564Q209.69234 233.36266 208.80171 233.36266Q207.89546 233.36266 207.28609 233.94078Q206.69234 234.5189 206.69234 235.3314ZM206.19234 241.28453Q206.19234 241.9564 206.50484 242.59703Q206.83296 243.22203 207.45796 243.5814Q208.09859 243.92516 208.83296 243.92516Q209.95796 243.92516 210.69234 243.19078Q211.44234 242.4564 211.44234 241.3314Q211.44234 240.19078 210.67671 239.4564Q209.91109 238.7064 208.77046 238.7064Q207.66109 238.7064 206.92671 239.44078Q206.19234 240.17516 206.19234 241.28453ZM214.87984 235.2064Q214.87984 233.8314 215.56734 232.86266Q216.27046 231.8939 217.58296 231.8939Q218.80171 231.8939 219.59859 232.7689Q220.39546 233.62828 220.39546 235.31578Q220.39546 236.94078 219.58296 237.8314Q218.78609 238.7064 217.59859 238.7064Q216.44234 238.7064 215.66109 237.84703Q214.87984 236.97203 214.87984 235.2064ZM217.62984 232.98766Q217.03609 232.98766 216.64546 233.50328Q216.25484 234.00328 216.25484 235.36266Q216.25484 236.61266 216.64546 237.11266Q217.05171 237.61266 217.62984 237.61266Q218.22359 237.61266 218.61421 237.11266Q219.00484 236.59703 219.00484 235.25328Q219.00484 234.00328 218.61421 233.50328Q218.22359 232.98766 217.62984 232.98766ZM217.64546 245.47203L224.69234 231.8939L225.97359 231.8939L218.94234 245.47203L217.64546 245.47203ZM223.20796 241.97203Q223.20796 240.59703 223.89546 239.62828Q224.59859 238.65953 225.92671 238.65953Q227.14546 238.65953 227.92671 239.53453Q228.72359 240.3939 228.72359 242.0814Q228.72359 243.7064 227.92671 244.59703Q227.12984 245.47203 225.94234 245.47203Q224.77046 245.47203 223.98921 244.59703Q223.20796 243.72203 223.20796 241.97203ZM225.97359 239.75328Q225.37984 239.75328 224.98921 240.2689Q224.59859 240.7689 224.59859 242.1439Q224.59859 243.36266 224.98921 243.87828Q225.37984 244.3939 225.95796 244.3939Q226.56734 244.3939 226.95796 243.87828Q227.34859 243.36266 227.34859 242.0189Q227.34859 240.7689 226.95796 240.2689Q226.56734 239.75328 225.97359 239.75328Z" fill-rule="nonzero"/><path fill="#ffffff" d="M228.74121 119.316635L227.16309 119.316635L227.16309 109.23851Q226.58496 109.785385 225.66309 110.33226Q224.74121 110.86351 223.99121 111.14476L223.99121 109.61351Q225.31934 108.98851 226.31934 108.097885Q227.31934 107.20726 227.72559 106.379135L228.74121 106.379135L228.74121 119.316635ZM240.99121 109.58226L239.42871 109.70726Q239.20996 108.785385 238.81934 108.36351Q238.17871 107.67601 237.24121 107.67601Q236.49121 107.67601 235.91309 108.097885Q235.16309 108.64476 234.72559 109.691635Q234.30371 110.73851 234.28809 112.67601Q234.86621 111.80101 235.67871 111.379135Q236.50684 110.95726 237.41309 110.95726Q239.00684 110.95726 240.11621 112.129135Q241.22559 113.285385 241.22559 115.129135Q241.22559 116.347885 240.69434 117.39476Q240.17871 118.42601 239.25684 118.98851Q238.35059 119.535385 237.19434 119.535385Q235.20996 119.535385 233.95996 118.08226Q232.70996 116.629135 232.70996 113.285385Q232.70996 109.55101 234.10059 107.847885Q235.30371 106.379135 237.33496 106.379135Q238.86621 106.379135 239.83496 107.23851Q240.80371 108.08226 240.99121 109.58226ZM234.53809 115.14476Q234.53809 115.95726 234.88184 116.70726Q235.22559 117.45726 235.85059 117.847885Q236.47559 118.23851 237.16309 118.23851Q238.16309 118.23851 238.88184 117.42601Q239.60059 116.61351 239.60059 115.222885Q239.60059 113.89476 238.88184 113.129135Q238.17871 112.347885 237.10059 112.347885Q236.02246 112.347885 235.27246 113.129135Q234.53809 113.89476 234.53809 115.14476ZM243.67871 119.316635L243.67871 117.51976L245.47559 117.51976L245.47559 119.316635L243.67871 119.316635ZM247.89746 108.11351L247.89746 106.597885L256.2256 106.597885L256.2256 107.83226Q255.00684 109.14476 253.78809 111.316635Q252.58496 113.472885 251.92871 115.76976Q251.44434 117.39476 251.31934 119.316635L249.69434 119.316635Q249.72559 117.80101 250.28809 115.64476Q250.86621 113.48851 251.92871 111.48851Q252.99121 109.48851 254.19434 108.11351L247.89746 108.11351ZM258.08496 109.51976Q258.08496 108.14476 258.77246 107.17601Q259.4756 106.20726 260.7881 106.20726Q262.00684 106.20726 262.8037 107.08226Q263.6006 107.941635 263.6006 109.629135Q263.6006 111.254135 262.7881 112.14476Q261.9912 113.01976 260.8037 113.01976Q259.64746 113.01976 258.8662 112.160385Q258.08496 111.285385 258.08496 109.51976ZM260.83496 107.30101Q260.2412 107.30101 259.8506 107.816635Q259.45996 108.316635 259.45996 109.67601Q259.45996 110.92601 259.8506 111.42601Q260.25684 111.92601 260.83496 111.92601Q261.4287 111.92601 261.81934 111.42601Q262.20996 110.910385 262.20996 109.566635Q262.20996 108.316635 261.81934 107.816635Q261.4287 107.30101 260.83496 107.30101ZM260.8506 119.785385L267.89746 106.20726L269.1787 106.20726L262.14746 119.785385L260.8506 119.785385ZM266.4131 116.285385Q266.4131 114.910385 267.1006 113.941635Q267.8037 112.972885 269.13184 112.972885Q270.3506 112.972885 271.13184 113.847885Q271.9287 114.70726 271.9287 116.39476Q271.9287 118.01976 271.13184 118.910385Q270.33496 119.785385 269.14746 119.785385Q267.9756 119.785385 267.19434 118.910385Q266.4131 118.035385 266.4131 116.285385ZM269.1787 114.066635Q268.58496 114.066635 268.19434 114.58226Q267.8037 115.08226 267.8037 116.45726Q267.8037 117.67601 268.19434 118.191635Q268.58496 118.70726 269.1631 118.70726Q269.77246 118.70726 270.1631 118.191635Q270.5537 117.67601 270.5537 116.33226Q270.5537 115.08226 270.1631 114.58226Q269.77246 114.066635 269.1787 114.066635Z" fill-rule="nonzero"/><path stroke="#ffffff" stroke-width="1.0" stroke-linejoin="round" stroke-linecap="round" d="M323.90634 175.19287C317.20816 169.57242 308.74387 166.49167 300.0 166.49167L300.0 54.916668C334.97543 54.916668 368.83264 67.23968 395.62537 89.72146" fill-rule="nonzero"/><path stroke="#ffffff" stroke-width="1.0" stroke-linejoin="round" stroke-linecap="round" d="M336.62665 210.1416C338.93396 197.05615 334.08502 183.73378 323.90634 175.19287L395.62537 89.72146C436.34003 123.88511 455.73584 177.17464 446.50656 229.51639" fill-rule="nonzero"/><path stroke="#ffffff" stroke-width="1.0" stroke-linejoin="round" stroke-linecap="round" d="M323.90634 232.1738C330.60452 226.55336 335.10828 218.75262 336.62665 210.1416L446.50656 229.51639C440.43314 263.96048 422.41812 295.16342 395.62537 317.6452" fill-rule="nonzero"/><path stroke="#ffffff" stroke-width="1.0" stroke-linejoin="round" stroke-linecap="round" d="M312.7203 238.63206C316.79712 237.14822 320.5829 234.96251 323.90634 232.1738L395.62537 317.6452C382.33154 328.80005 367.1885 337.5429 350.8812 343.47827" fill-rule="nonzero"/><path stroke="#ffffff" stroke-width="1.0" stroke-linejoin="round" stroke-linecap="round" d="M287.2797 238.63206C295.49625 241.62265 304.50375 241.62265 312.7203 238.63206L350.8812 343.47827C318.01505 355.44058 281.98495 355.44058 249.1188 343.47827" fill-rule="nonzero"/><path stroke="#ffffff" stroke-width="1.0" stroke-linejoin="round" stroke-linecap="round" d="M267.79108 185.0875C262.29428 194.60823 261.29123 206.07303 265.05127 216.40363C268.8113 226.73422 276.9491 234.87204 287.2797 238.63206L249.1188 343.47827C207.79642 328.43814 175.24518 295.88693 160.20506 254.56453C145.16495 213.24214 149.17711 167.38292 171.16429 129.3" fill-rule="nonzero"/><path stroke="#ffffff" stroke-width="1.0" stroke-linejoin="round" stroke-linecap="round" d="M300.0 166.49167C286.7127 166.49167 274.43472 173.58035 267.79108 185.0875L171.16429 129.3C197.73889 83.27143 246.85078 54.916668 300.0 54.916668" fill-rule="nonzero"/><path fill="#efefef" d="M27.3 64.33628L28.815624 64.33628L28.815624 70.945656Q28.815624 72.68003 28.425 73.695656Q28.034374 74.71128 27.01875 75.351906Q26.003124 75.99253 24.346874 75.99253Q22.7375 75.99253 21.70625 75.43003Q20.690624 74.86753 20.253124 73.820656Q19.815624 72.77378 19.815624 70.945656L19.815624 64.33628L21.33125 64.33628L21.33125 70.945656Q21.33125 72.43003 21.596874 73.14878Q21.878124 73.851906 22.55 74.24253Q23.2375 74.61753 24.20625 74.61753Q25.878124 74.61753 26.58125 73.86753Q27.3 73.101906 27.3 70.945656L27.3 64.33628ZM31.596874 75.789406L31.596874 67.49253L32.8625 67.49253L32.8625 68.74253Q33.346874 67.86753 33.753124 67.58628Q34.159374 67.30503 34.659374 67.30503Q35.3625 67.30503 36.096874 67.758156L35.6125 69.05503Q35.096874 68.758156 34.58125 68.758156Q34.128124 68.758156 33.753124 69.039406Q33.39375 69.30503 33.2375 69.80503Q33.003124 70.55503 33.003124 71.445656L33.003124 75.789406L31.596874 75.789406ZM37.909374 75.789406L36.596874 75.789406L36.596874 64.33628L38.003124 64.33628L38.003124 68.414406Q38.89375 67.30503 40.284374 67.30503Q41.05 67.30503 41.721874 67.61753Q42.409374 67.914406 42.846874 68.476906Q43.3 69.039406 43.55 69.83628Q43.8 70.61753 43.8 71.508156Q43.8 73.64878 42.7375 74.820656Q41.690624 75.976906 40.20625 75.976906Q38.7375 75.976906 37.909374 74.74253L37.909374 75.789406ZM37.89375 71.570656Q37.89375 73.070656 38.3 73.726906Q38.95625 74.820656 40.096874 74.820656Q41.01875 74.820656 41.690624 74.02378Q42.3625 73.21128 42.3625 71.633156Q42.3625 70.008156 41.70625 69.24253Q41.065624 68.46128 40.159374 68.46128Q39.2375 68.46128 38.565624 69.258156Q37.89375 70.05503 37.89375 71.570656ZM51.01875 74.758156Q50.2375 75.43003 49.51875 75.71128Q48.8 75.976906 47.971874 75.976906Q46.596874 75.976906 45.8625 75.30503Q45.128124 74.633156 45.128124 73.601906Q45.128124 72.99253 45.409374 72.49253Q45.690624 71.976906 46.128124 71.68003Q46.58125 71.36753 47.14375 71.21128Q47.565624 71.101906 48.39375 71.008156Q50.096874 70.80503 50.909374 70.52378Q50.909374 70.226906 50.909374 70.14878Q50.909374 69.289406 50.51875 68.945656Q49.971874 68.46128 48.909374 68.46128Q47.925 68.46128 47.440624 68.820656Q46.971874 69.164406 46.753124 70.039406L45.378124 69.851906Q45.565624 68.976906 45.9875 68.43003Q46.425 67.883156 47.2375 67.601906Q48.05 67.30503 49.1125 67.30503Q50.175 67.30503 50.83125 67.55503Q51.503124 67.80503 51.815624 68.18003Q52.128124 68.55503 52.253124 69.133156Q52.33125 69.49253 52.33125 70.43003L52.33125 72.30503Q52.33125 74.27378 52.409374 74.789406Q52.503124 75.30503 52.76875 75.789406L51.3 75.789406Q51.08125 75.351906 51.01875 74.758156ZM50.909374 71.61753Q50.14375 71.93003 48.6125 72.14878Q47.7375 72.27378 47.378124 72.43003Q47.01875 72.58628 46.815624 72.89878Q46.628124 73.195656 46.628124 73.55503Q46.628124 74.11753 47.05 74.49253Q47.4875 74.86753 48.3 74.86753Q49.1125 74.86753 49.7375 74.52378Q50.378124 74.164406 50.675 73.539406Q50.909374 73.070656 50.909374 72.133156L50.909374 71.61753ZM54.6125 75.789406L54.6125 67.49253L55.878124 67.49253L55.878124 68.664406Q56.784374 67.30503 58.51875 67.30503Q59.26875 67.30503 59.89375 67.570656Q60.51875 67.83628 60.83125 68.27378Q61.14375 68.71128 61.26875 69.320656Q61.346874 69.71128 61.346874 70.68003L61.346874 75.789406L59.940624 75.789406L59.940624 70.74253Q59.940624 69.883156 59.76875 69.46128Q59.6125 69.02378 59.190624 68.77378Q58.784374 68.52378 58.221874 68.52378Q57.315624 68.52378 56.659374 69.101906Q56.01875 69.664406 56.01875 71.258156L56.01875 75.789406L54.6125 75.789406ZM63.05 73.30503L64.44063 73.08628Q64.55 73.93003 65.08125 74.383156Q65.62813 74.820656 66.58125 74.820656Q67.55 74.820656 68.01875 74.43003Q68.4875 74.02378 68.4875 73.49253Q68.4875 73.02378 68.08125 72.74253Q67.78438 72.55503 66.64375 72.27378Q65.09688 71.883156 64.4875 71.601906Q63.89375 71.30503 63.58125 70.80503Q63.284374 70.30503 63.284374 69.695656Q63.284374 69.133156 63.534374 68.664406Q63.784374 68.195656 64.22188 67.883156Q64.55 67.633156 65.1125 67.476906Q65.69063 67.30503 66.33125 67.30503Q67.31563 67.30503 68.05 67.58628Q68.78438 67.86753 69.12813 68.351906Q69.4875 68.820656 69.62813 69.633156L68.25313 69.820656Q68.15938 69.18003 67.70625 68.820656Q67.25313 68.46128 66.44063 68.46128Q65.47188 68.46128 65.05 68.789406Q64.64375 69.101906 64.64375 69.52378Q64.64375 69.80503 64.81563 70.02378Q64.9875 70.24253 65.34688 70.39878Q65.56563 70.476906 66.59688 70.758156Q68.08125 71.14878 68.675 71.414406Q69.26875 71.664406 69.59688 72.14878Q69.94063 72.633156 69.94063 73.351906Q69.94063 74.05503 69.51875 74.68003Q69.1125 75.289406 68.33125 75.633156Q67.56563 75.976906 66.59688 75.976906Q64.97188 75.976906 64.12813 75.30503Q63.284374 74.633156 63.05 73.30503ZM77.01875 72.74253L78.40938 72.93003Q78.175 74.351906 77.2375 75.164406Q76.31563 75.976906 74.95625 75.976906Q73.25313 75.976906 72.20625 74.86753Q71.175 73.74253 71.175 71.664406Q71.175 70.320656 71.6125 69.320656Q72.06563 68.30503 72.97188 67.80503Q73.89375 67.30503 74.95625 67.30503Q76.31563 67.30503 77.175 67.99253Q78.03438 68.664406 78.26875 69.93003L76.90938 70.133156Q76.70625 69.30503 76.20625 68.883156Q75.72188 68.46128 75.01875 68.46128Q73.95625 68.46128 73.28438 69.226906Q72.62813 69.976906 72.62813 71.633156Q72.62813 73.30503 73.26875 74.070656Q73.90938 74.820656 74.94063 74.820656Q75.76875 74.820656 76.31563 74.320656Q76.87813 73.80503 77.01875 72.74253ZM85.01875 74.758156Q84.2375 75.43003 83.51875 75.71128Q82.8 75.976906 81.97188 75.976906Q80.59688 75.976906 79.8625 75.30503Q79.12813 74.633156 79.12813 73.601906Q79.12813 72.99253 79.40938 72.49253Q79.69063 71.976906 80.12813 71.68003Q80.58125 71.36753 81.14375 71.21128Q81.56563 71.101906 82.39375 71.008156Q84.09688 70.80503 84.90938 70.52378Q84.90938 70.226906 84.90938 70.14878Q84.90938 69.289406 84.51875 68.945656Q83.97188 68.46128 82.90938 68.46128Q81.925 68.46128 81.44063 68.820656Q80.97188 69.164406 80.75313 70.039406L79.37813 69.851906Q79.56563 68.976906 79.9875 68.43003Q80.425 67.883156 81.2375 67.601906Q82.05 67.30503 83.1125 67.30503Q84.175 67.30503 84.83125 67.55503Q85.50313 67.80503 85.81563 68.18003Q86.12813 68.55503 86.25313 69.133156Q86.33125 69.49253 86.33125 70.43003L86.33125 72.30503Q86.33125 74.27378 86.40938 74.789406Q86.50313 75.30503 86.76875 75.789406L85.3 75.789406Q85.08125 75.351906 85.01875 74.758156ZM84.90938 71.61753Q84.14375 71.93003 82.6125 72.14878Q81.7375 72.27378 81.37813 72.43003Q81.01875 72.58628 80.81563 72.89878Q80.62813 73.195656 80.62813 73.55503Q80.62813 74.11753 81.05 74.49253Q81.4875 74.86753 82.3 74.86753Q83.1125 74.86753 83.7375 74.52378Q84.37813 74.164406 84.675 73.539406Q84.90938 73.070656 84.90938 72.133156L84.90938 71.61753ZM88.6125 78.976906L88.6125 67.49253L89.89375 67.49253L89.89375 68.570656Q90.34688 67.93003 90.90938 67.61753Q91.4875 67.30503 92.3 67.30503Q93.3625 67.30503 94.175 67.851906Q94.9875 68.39878 95.39375 69.39878Q95.81563 70.383156 95.81563 71.570656Q95.81563 72.851906 95.34688 73.86753Q94.89375 74.883156 94.01875 75.43003Q93.15938 75.976906 92.19063 75.976906Q91.4875 75.976906 90.925 75.68003Q90.37813 75.383156 90.01875 74.93003L90.01875 78.976906L88.6125 78.976906ZM89.87813 71.68003Q89.87813 73.289406 90.51875 74.05503Q91.175 74.820656 92.09688 74.820656Q93.03438 74.820656 93.70625 74.02378Q94.37813 73.226906 94.37813 71.570656Q94.37813 69.976906 93.72188 69.195656Q93.06563 68.39878 92.15938 68.39878Q91.26875 68.39878 90.56563 69.24253Q89.87813 70.08628 89.87813 71.68003ZM103.28438 73.11753L104.7375 73.289406Q104.39375 74.570656 103.45625 75.27378Q102.53438 75.976906 101.09688 75.976906Q99.26875 75.976906 98.20625 74.851906Q97.14375 73.726906 97.14375 71.71128Q97.14375 69.61753 98.22188 68.46128Q99.3 67.30503 101.01875 67.30503Q102.675 67.30503 103.72188 68.445656Q104.78438 69.570656 104.78438 71.61753Q104.78438 71.74253 104.78438 71.99253L98.59688 71.99253Q98.675 73.36753 99.3625 74.101906Q100.06563 74.820656 101.09688 74.820656Q101.87813 74.820656 102.425 74.414406Q102.97188 74.008156 103.28438 73.11753ZM98.675 70.83628L103.3 70.83628Q103.20625 69.789406 102.76875 69.27378Q102.09688 68.46128 101.03438 68.46128Q100.06563 68.46128 99.39375 69.11753Q98.7375 69.758156 98.675 70.83628Z" fill-rule="nonzero"/><path fill="#9e9e9e" d="M24.51875 97.789406L23.1125 97.789406L23.1125 88.820656Q22.596874 89.30503 21.76875 89.789406Q20.95625 90.27378 20.3 90.52378L20.3 89.164406Q21.471874 88.601906 22.346874 87.820656Q23.2375 87.02378 23.6125 86.289406L24.51875 86.289406L24.51875 97.789406ZM35.51875 89.133156L34.1125 89.24253Q33.925 88.414406 33.58125 88.039406Q33.01875 87.445656 32.175 87.445656Q31.503124 87.445656 31.003124 87.820656Q30.33125 88.30503 29.940624 89.24253Q29.565624 90.164406 29.55 91.883156Q30.065624 91.101906 30.8 90.726906Q31.534374 90.351906 32.33125 90.351906Q33.7375 90.351906 34.721874 91.39878Q35.721874 92.43003 35.721874 94.070656Q35.721874 95.14878 35.253124 96.070656Q34.784374 96.99253 33.971874 97.49253Q33.159374 97.99253 32.128124 97.99253Q30.378124 97.99253 29.26875 96.695656Q28.159374 95.39878 28.159374 92.43003Q28.159374 89.101906 29.378124 87.601906Q30.45625 86.289406 32.26875 86.289406Q33.6125 86.289406 34.471874 87.05503Q35.346874 87.80503 35.51875 89.133156ZM29.76875 94.070656Q29.76875 94.80503 30.08125 95.476906Q30.39375 96.133156 30.940624 96.476906Q31.503124 96.820656 32.1125 96.820656Q33.003124 96.820656 33.64375 96.101906Q34.284374 95.383156 34.284374 94.14878Q34.284374 92.96128 33.64375 92.289406Q33.01875 91.601906 32.05 91.601906Q31.096874 91.601906 30.425 92.289406Q29.76875 92.96128 29.76875 94.070656ZM38.003124 97.789406L38.003124 96.18003L39.6125 96.18003L39.6125 97.789406L38.003124 97.789406ZM41.315624 87.83628L41.315624 86.476906L48.721874 86.476906L48.721874 87.570656Q47.628124 88.74253 46.55 90.68003Q45.4875 92.601906 44.89375 94.633156Q44.471874 96.070656 44.3625 97.789406L42.909374 97.789406Q42.940624 96.43003 43.440624 94.52378Q43.95625 92.601906 44.89375 90.83628Q45.846874 89.05503 46.925 87.83628L41.315624 87.83628ZM50.4875 89.08628Q50.4875 87.851906 51.096874 86.99253Q51.721874 86.133156 52.89375 86.133156Q53.971874 86.133156 54.675 86.914406Q55.378124 87.68003 55.378124 89.164406Q55.378124 90.61753 54.659374 91.414406Q53.95625 92.195656 52.909374 92.195656Q51.8625 92.195656 51.175 91.43003Q50.4875 90.64878 50.4875 89.08628ZM52.925 87.101906Q52.409374 87.101906 52.05 87.55503Q51.70625 88.008156 51.70625 89.226906Q51.70625 90.320656 52.05 90.77378Q52.409374 91.226906 52.925 91.226906Q53.45625 91.226906 53.8 90.77378Q54.159374 90.320656 54.159374 89.11753Q54.159374 88.008156 53.8 87.55503Q53.45625 87.101906 52.925 87.101906ZM52.940624 98.21128L59.20625 86.133156L60.346874 86.133156L54.096874 98.21128L52.940624 98.21128ZM57.89375 95.101906Q57.89375 93.86753 58.503124 93.008156Q59.128124 92.14878 60.3 92.14878Q61.378124 92.14878 62.08125 92.93003Q62.8 93.695656 62.8 95.18003Q62.8 96.633156 62.08125 97.43003Q61.3625 98.21128 60.315624 98.21128Q59.26875 98.21128 58.58125 97.43003Q57.89375 96.64878 57.89375 95.101906ZM60.346874 93.11753Q59.815624 93.11753 59.45625 93.570656Q59.1125 94.02378 59.1125 95.24253Q59.1125 96.33628 59.45625 96.789406Q59.815624 97.24253 60.33125 97.24253Q60.878124 97.24253 61.221874 96.789406Q61.565624 96.33628 61.565624 95.133156Q61.565624 94.02378 61.20625 93.570656Q60.8625 93.11753 60.346874 93.11753Z" fill-rule="nonzero"/><path stroke="#757575" stroke-width="1.0" stroke-linecap="butt" d="M18.55 81.289406L145.23334 81.289406L229.33583 81.289406" fill-rule="nonzero"/><path fill="#9e9e9e" d="M231.33583 81.289406C231.33583 80.18484 230.4404 79.289406 229.33583 79.289406C228.23126 79.289406 227.33583 80.18484 227.33583 81.289406C227.33583 82.393974 228.23126 83.289406 229.33583 83.289406C230.4404 83.289406 231.33583 82.393974 231.33583 81.289406" fill-rule="nonzero"/><path fill="#efefef" d="M19.76875 246.52048L19.76875 235.06735L21.33125 235.06735L27.346874 244.05173L27.346874 235.06735L28.8 235.06735L28.8 246.52048L27.2375 246.52048L21.221874 237.52048L21.221874 246.52048L19.76875 246.52048ZM37.01875 245.48923Q36.2375 246.1611 35.51875 246.44235Q34.8 246.70798 33.971874 246.70798Q32.596874 246.70798 31.8625 246.0361Q31.128124 245.36423 31.128124 244.33298Q31.128124 243.7236 31.409374 243.2236Q31.690624 242.70798 32.128124 242.4111Q32.58125 242.0986 33.14375 241.94235Q33.565624 241.83298 34.39375 241.73923Q36.096874 241.5361 36.909374 241.25485Q36.909374 240.95798 36.909374 240.87985Q36.909374 240.02048 36.51875 239.67673Q35.971874 239.19235 34.909374 239.19235Q33.925 239.19235 33.440624 239.55173Q32.971874 239.89548 32.753124 240.77048L31.378124 240.58298Q31.565624 239.70798 31.9875 239.1611Q32.425 238.61423 33.2375 238.33298Q34.05 238.0361 35.1125 238.0361Q36.175 238.0361 36.83125 238.2861Q37.503124 238.5361 37.815624 238.9111Q38.128124 239.2861 38.253124 239.86423Q38.33125 240.2236 38.33125 241.1611L38.33125 243.0361Q38.33125 245.00485 38.409374 245.52048Q38.503124 246.0361 38.76875 246.52048L37.3 246.52048Q37.08125 246.08298 37.01875 245.48923ZM36.909374 242.3486Q36.14375 242.6611 34.6125 242.87985Q33.7375 243.00485 33.378124 243.1611Q33.01875 243.31735 32.815624 243.62985Q32.628124 243.92673 32.628124 244.2861Q32.628124 244.8486 33.05 245.2236Q33.4875 245.5986 34.3 245.5986Q35.1125 245.5986 35.7375 245.25485Q36.378124 244.89548 36.675 244.27048Q36.909374 243.80173 36.909374 242.86423L36.909374 242.3486ZM43.675 245.25485L43.878124 246.50485Q43.284374 246.62985 42.815624 246.62985Q42.05 246.62985 41.628124 246.39548Q41.20625 246.14548 41.034374 245.75485Q40.8625 245.3486 40.8625 244.08298L40.8625 239.31735L39.83125 239.31735L39.83125 238.2236L40.8625 238.2236L40.8625 236.1611L42.26875 235.31735L42.26875 238.2236L43.675 238.2236L43.675 239.31735L42.26875 239.31735L42.26875 244.1611Q42.26875 244.77048 42.33125 244.94235Q42.409374 245.11423 42.58125 245.2236Q42.753124 245.31735 43.065624 245.31735Q43.3 245.31735 43.675 245.25485ZM50.05 246.52048L50.05 245.30173Q49.08125 246.70798 47.409374 246.70798Q46.675 246.70798 46.034374 246.42673Q45.409374 246.14548 45.096874 245.7236Q44.784374 245.2861 44.659374 244.67673Q44.58125 244.25485 44.58125 243.36423L44.58125 238.2236L45.9875 238.2236L45.9875 242.81735Q45.9875 243.92673 46.065624 244.30173Q46.20625 244.86423 46.628124 245.17673Q47.065624 245.48923 47.690624 245.48923Q48.33125 245.48923 48.878124 245.17673Q49.440624 244.8486 49.659374 244.2861Q49.89375 243.7236 49.89375 242.6611L49.89375 238.2236L51.3 238.2236L51.3 246.52048L50.05 246.52048ZM53.596874 246.52048L53.596874 238.2236L54.8625 238.2236L54.8625 239.4736Q55.346874 238.5986 55.753124 238.31735Q56.159374 238.0361 56.659374 238.0361Q57.3625 238.0361 58.096874 238.48923L57.6125 239.7861Q57.096874 239.48923 56.58125 239.48923Q56.128124 239.48923 55.753124 239.77048Q55.39375 240.0361 55.2375 240.5361Q55.003124 241.2861 55.003124 242.17673L55.003124 246.52048L53.596874 246.52048ZM64.28438 243.8486L65.7375 244.02048Q65.39375 245.30173 64.45625 246.00485Q63.534374 246.70798 62.096874 246.70798Q60.26875 246.70798 59.20625 245.58298Q58.14375 244.45798 58.14375 242.44235Q58.14375 240.3486 59.221874 239.19235Q60.3 238.0361 62.01875 238.0361Q63.675 238.0361 64.72188 239.17673Q65.78438 240.30173 65.78438 242.3486Q65.78438 242.4736 65.78438 242.7236L59.596874 242.7236Q59.675 244.0986 60.3625 244.83298Q61.065624 245.55173 62.096874 245.55173Q62.878124 245.55173 63.425 245.14548Q63.971874 244.73923 64.28438 243.8486ZM59.675 241.56735L64.3 241.56735Q64.20625 240.52048 63.76875 240.00485Q63.096874 239.19235 62.034374 239.19235Q61.065624 239.19235 60.39375 239.8486Q59.7375 240.48923 59.675 241.56735ZM67.05 244.0361L68.44063 243.81735Q68.55 244.6611 69.08125 245.11423Q69.62813 245.55173 70.58125 245.55173Q71.55 245.55173 72.01875 245.1611Q72.4875 244.75485 72.4875 244.2236Q72.4875 243.75485 72.08125 243.4736Q71.78438 243.2861 70.64375 243.00485Q69.09688 242.61423 68.4875 242.33298Q67.89375 242.0361 67.58125 241.5361Q67.28438 241.0361 67.28438 240.42673Q67.28438 239.86423 67.53438 239.39548Q67.78438 238.92673 68.22188 238.61423Q68.55 238.36423 69.1125 238.20798Q69.69063 238.0361 70.33125 238.0361Q71.31563 238.0361 72.05 238.31735Q72.78438 238.5986 73.12813 239.08298Q73.4875 239.55173 73.62813 240.36423L72.25313 240.55173Q72.15938 239.9111 71.70625 239.55173Q71.25313 239.19235 70.44063 239.19235Q69.47188 239.19235 69.05 239.52048Q68.64375 239.83298 68.64375 240.25485Q68.64375 240.5361 68.81563 240.75485Q68.9875 240.9736 69.34688 241.12985Q69.56563 241.20798 70.59688 241.48923Q72.08125 241.87985 72.675 242.14548Q73.26875 242.39548 73.59688 242.87985Q73.94063 243.36423 73.94063 244.08298Q73.94063 244.7861 73.51875 245.4111Q73.1125 246.02048 72.33125 246.36423Q71.56563 246.70798 70.59688 246.70798Q68.97188 246.70798 68.12813 246.0361Q67.28438 245.36423 67.05 244.0361ZM81.01875 243.4736L82.40938 243.6611Q82.175 245.08298 81.2375 245.89548Q80.31563 246.70798 78.95625 246.70798Q77.25313 246.70798 76.20625 245.5986Q75.175 244.4736 75.175 242.39548Q75.175 241.05173 75.6125 240.05173Q76.06563 239.0361 76.97188 238.5361Q77.89375 238.0361 78.95625 238.0361Q80.31563 238.0361 81.175 238.7236Q82.03438 239.39548 82.26875 240.6611L80.90938 240.86423Q80.70625 240.0361 80.20625 239.61423Q79.72188 239.19235 79.01875 239.19235Q77.95625 239.19235 77.28438 239.95798Q76.62813 240.70798 76.62813 242.36423Q76.62813 244.0361 77.26875 244.80173Q77.90938 245.55173 78.94063 245.55173Q79.76875 245.55173 80.31563 245.05173Q80.87813 244.5361 81.01875 243.4736ZM89.01875 245.48923Q88.2375 246.1611 87.51875 246.44235Q86.8 246.70798 85.97188 246.70798Q84.59688 246.70798 83.8625 246.0361Q83.12813 245.36423 83.12813 244.33298Q83.12813 243.7236 83.40938 243.2236Q83.69063 242.70798 84.12813 242.4111Q84.58125 242.0986 85.14375 241.94235Q85.56563 241.83298 86.39375 241.73923Q88.09688 241.5361 88.90938 241.25485Q88.90938 240.95798 88.90938 240.87985Q88.90938 240.02048 88.51875 239.67673Q87.97188 239.19235 86.90938 239.19235Q85.925 239.19235 85.44063 239.55173Q84.97188 239.89548 84.75313 240.77048L83.37813 240.58298Q83.56563 239.70798 83.9875 239.1611Q84.425 238.61423 85.2375 238.33298Q86.05 238.0361 87.1125 238.0361Q88.175 238.0361 88.83125 238.2861Q89.50313 238.5361 89.81563 238.9111Q90.12813 239.2861 90.25313 239.86423Q90.33125 240.2236 90.33125 241.1611L90.33125 243.0361Q90.33125 245.00485 90.40938 245.52048Q90.50313 246.0361 90.76875 246.52048L89.3 246.52048Q89.08125 246.08298 89.01875 245.48923ZM88.90938 242.3486Q88.14375 242.6611 86.6125 242.87985Q85.7375 243.00485 85.37813 243.1611Q85.01875 243.31735 84.81563 243.62985Q84.62813 243.92673 84.62813 244.2861Q84.62813 244.8486 85.05 245.2236Q85.4875 245.5986 86.3 245.5986Q87.1125 245.5986 87.7375 245.25485Q88.37813 244.89548 88.675 244.27048Q88.90938 243.80173 88.90938 242.86423L88.90938 242.3486ZM92.6125 249.70798L92.6125 238.2236L93.89375 238.2236L93.89375 239.30173Q94.34688 238.6611 94.90938 238.3486Q95.4875 238.0361 96.3 238.0361Q97.3625 238.0361 98.175 238.58298Q98.9875 239.12985 99.39375 240.12985Q99.81563 241.11423 99.81563 242.30173Q99.81563 243.58298 99.34688 244.5986Q98.89375 245.61423 98.01875 246.1611Q97.15938 246.70798 96.19063 246.70798Q95.4875 246.70798 94.925 246.4111Q94.37813 246.11423 94.01875 245.6611L94.01875 249.70798L92.6125 249.70798ZM93.87813 242.4111Q93.87813 244.02048 94.51875 244.7861Q95.175 245.55173 96.09688 245.55173Q97.03438 245.55173 97.70625 244.75485Q98.37813 243.95798 98.37813 242.30173Q98.37813 240.70798 97.72188 239.92673Q97.06563 239.12985 96.15938 239.12985Q95.26875 239.12985 94.56563 239.9736Q93.87813 240.81735 93.87813 242.4111ZM107.28438 243.8486L108.7375 244.02048Q108.39375 245.30173 107.45625 246.00485Q106.53438 246.70798 105.09688 246.70798Q103.26875 246.70798 102.20625 245.58298Q101.14375 244.45798 101.14375 242.44235Q101.14375 240.3486 102.22188 239.19235Q103.3 238.0361 105.01875 238.0361Q106.675 238.0361 107.72188 239.17673Q108.78438 240.30173 108.78438 242.3486Q108.78438 242.4736 108.78438 242.7236L102.59688 242.7236Q102.675 244.0986 103.3625 244.83298Q104.06563 245.55173 105.09688 245.55173Q105.87813 245.55173 106.425 245.14548Q106.97188 244.73923 107.28438 243.8486ZM102.675 241.56735L107.3 241.56735Q107.20625 240.52048 106.76875 240.00485Q106.09688 239.19235 105.03438 239.19235Q104.06563 239.19235 103.39375 239.8486Q102.7375 240.48923 102.675 241.56735Z" fill-rule="nonzero"/><path fill="#9e9e9e" d="M26.6125 267.1611L26.6125 268.52048L19.034374 268.52048Q19.01875 268.00485 19.20625 267.5361Q19.4875 266.77048 20.128124 266.02048Q20.76875 265.27048 21.971874 264.2861Q23.83125 262.75485 24.4875 261.86423Q25.14375 260.95798 25.14375 260.1611Q25.14375 259.33298 24.55 258.75485Q23.95625 258.17673 22.9875 258.17673Q21.971874 258.17673 21.3625 258.7861Q20.753124 259.39548 20.753124 260.4736L19.3 260.33298Q19.45625 258.70798 20.425 257.86423Q21.39375 257.02048 23.01875 257.02048Q24.675 257.02048 25.628124 257.94235Q26.596874 258.8486 26.596874 260.19235Q26.596874 260.87985 26.315624 261.55173Q26.034374 262.20798 25.378124 262.94235Q24.721874 263.67673 23.20625 264.95798Q21.940624 266.02048 21.58125 266.4111Q21.221874 266.7861 20.9875 267.1611L26.6125 267.1611ZM28.315624 258.56735L28.315624 257.20798L35.721874 257.20798L35.721874 258.30173Q34.628124 259.4736 33.55 261.4111Q32.4875 263.33298 31.89375 265.36423Q31.471874 266.80173 31.3625 268.52048L29.909374 268.52048Q29.940624 267.1611 30.440624 265.25485Q30.95625 263.33298 31.89375 261.56735Q32.846874 259.7861 33.925 258.56735L28.315624 258.56735ZM38.003124 268.52048L38.003124 266.9111L39.6125 266.9111L39.6125 268.52048L38.003124 268.52048ZM43.378124 262.30173Q42.503124 261.98923 42.08125 261.39548Q41.659374 260.80173 41.659374 259.9736Q41.659374 258.7236 42.55 257.87985Q43.45625 257.02048 44.95625 257.02048Q46.45625 257.02048 47.3625 257.89548Q48.284374 258.75485 48.284374 260.00485Q48.284374 260.80173 47.8625 261.39548Q47.440624 261.98923 46.596874 262.30173Q47.64375 262.64548 48.190624 263.4111Q48.753124 264.17673 48.753124 265.23923Q48.753124 266.70798 47.70625 267.7236Q46.675 268.7236 44.971874 268.7236Q43.284374 268.7236 42.2375 267.7236Q41.20625 266.70798 41.20625 265.20798Q41.20625 264.08298 41.76875 263.33298Q42.33125 262.58298 43.378124 262.30173ZM43.096874 259.92673Q43.096874 260.73923 43.6125 261.25485Q44.14375 261.77048 44.9875 261.77048Q45.8 261.77048 46.315624 261.25485Q46.83125 260.73923 46.83125 260.00485Q46.83125 259.2236 46.3 258.70798Q45.76875 258.17673 44.971874 258.17673Q44.159374 258.17673 43.628124 258.69235Q43.096874 259.20798 43.096874 259.92673ZM42.64375 265.20798Q42.64375 265.81735 42.925 266.37985Q43.221874 266.94235 43.784374 267.25485Q44.346874 267.55173 44.9875 267.55173Q46.003124 267.55173 46.659374 266.9111Q47.315624 266.25485 47.315624 265.25485Q47.315624 264.23923 46.628124 263.58298Q45.95625 262.9111 44.940624 262.9111Q43.95625 262.9111 43.3 263.56735Q42.64375 264.2236 42.64375 265.20798ZM50.4875 259.81735Q50.4875 258.58298 51.096874 257.7236Q51.721874 256.86423 52.89375 256.86423Q53.971874 256.86423 54.675 257.64548Q55.378124 258.4111 55.378124 259.89548Q55.378124 261.3486 54.659374 262.14548Q53.95625 262.92673 52.909374 262.92673Q51.8625 262.92673 51.175 262.1611Q50.4875 261.37985 50.4875 259.81735ZM52.925 257.83298Q52.409374 257.83298 52.05 258.2861Q51.70625 258.73923 51.70625 259.95798Q51.70625 261.05173 52.05 261.50485Q52.409374 261.95798 52.925 261.95798Q53.45625 261.95798 53.8 261.50485Q54.159374 261.05173 54.159374 259.8486Q54.159374 258.73923 53.8 258.2861Q53.45625 257.83298 52.925 257.83298ZM52.940624 268.94235L59.20625 256.86423L60.346874 256.86423L54.096874 268.94235L52.940624 268.94235ZM57.89375 265.83298Q57.89375 264.5986 58.503124 263.73923Q59.128124 262.87985 60.3 262.87985Q61.378124 262.87985 62.08125 263.6611Q62.8 264.42673 62.8 265.9111Q62.8 267.36423 62.08125 268.1611Q61.3625 268.94235 60.315624 268.94235Q59.26875 268.94235 58.58125 268.1611Q57.89375 267.37985 57.89375 265.83298ZM60.346874 263.8486Q59.815624 263.8486 59.45625 264.30173Q59.1125 264.75485 59.1125 265.9736Q59.1125 267.06735 59.45625 267.52048Q59.815624 267.9736 60.33125 267.9736Q60.878124 267.9736 61.221874 267.52048Q61.565624 267.06735 61.565624 265.86423Q61.565624 264.75485 61.20625 264.30173Q60.8625 263.8486 60.346874 263.8486Z" fill-rule="nonzero"/><path stroke="#757575" stroke-width="1.0" stroke-linecap="butt" d="M18.55 252.02048L145.23334 252.02048L167.19481 252.02048" fill-rule="nonzero"/><path fill="#9e9e9e" d="M169.19481 252.02048C169.19481 250.9159 168.29938 250.02048 167.19481 250.02048C166.09024 250.02048 165.19481 250.9159 165.19481 252.02048C165.19481 253.12505 166.09024 254.02048 167.19481 254.02048C168.29938 254.02048 169.19481 253.12505 169.19481 252.02048" fill-rule="nonzero"/><path fill="#efefef" d="M551.6375 69.916664L551.6375 58.46354L553.91876 58.46354L556.6375 66.572914Q557.0125 67.697914 557.1844 68.260414Q557.3719 67.635414 557.79376 66.43229L560.52814 58.46354L562.575 58.46354L562.575 69.916664L561.10626 69.916664L561.10626 60.322914L557.77814 69.916664L556.41876 69.916664L553.10626 60.166664L553.10626 69.916664L551.6375 69.916664ZM569.91876 68.885414Q569.1375 69.55729 568.41876 69.83854Q567.7 70.104164 566.8719 70.104164Q565.4969 70.104164 564.7625 69.43229Q564.02814 68.760414 564.02814 67.729164Q564.02814 67.11979 564.3094 66.61979Q564.59064 66.104164 565.02814 65.80729Q565.48126 65.49479 566.04376 65.33854Q566.46564 65.229164 567.29376 65.135414Q568.9969 64.93229 569.8094 64.65104Q569.8094 64.354164 569.8094 64.27604Q569.8094 63.416664 569.41876 63.072914Q568.8719 62.58854 567.8094 62.58854Q566.825 62.58854 566.34064 62.947914Q565.8719 63.291664 565.65314 64.166664L564.27814 63.979164Q564.46564 63.104164 564.8875 62.55729Q565.325 62.010414 566.1375 61.729164Q566.95 61.43229 568.0125 61.43229Q569.075 61.43229 569.73126 61.68229Q570.40314 61.93229 570.71564 62.30729Q571.02814 62.68229 571.15314 63.260414Q571.23126 63.61979 571.23126 64.55729L571.23126 66.43229Q571.23126 68.40104 571.3094 68.916664Q571.40314 69.43229 571.66876 69.916664L570.2 69.916664Q569.98126 69.479164 569.91876 68.885414ZM569.8094 65.74479Q569.04376 66.05729 567.5125 66.27604Q566.6375 66.40104 566.27814 66.55729Q565.91876 66.71354 565.71564 67.02604Q565.52814 67.322914 565.52814 67.68229Q565.52814 68.24479 565.95 68.61979Q566.3875 68.99479 567.2 68.99479Q568.0125 68.99479 568.6375 68.65104Q569.27814 68.291664 569.575 67.666664Q569.8094 67.197914 569.8094 66.260414L569.8094 65.74479ZM573.5125 73.104164L573.5125 61.61979L574.79376 61.61979L574.79376 62.697914Q575.2469 62.05729 575.8094 61.74479Q576.3875 61.43229 577.2 61.43229Q578.2625 61.43229 579.075 61.979164Q579.8875 62.52604 580.29376 63.52604Q580.71564 64.510414 580.71564 65.697914Q580.71564 66.979164 580.2469 67.99479Q579.79376 69.010414 578.91876 69.55729Q578.0594 70.104164 577.09064 70.104164Q576.3875 70.104164 575.825 69.80729Q575.27814 69.510414 574.91876 69.05729L574.91876 73.104164L573.5125 73.104164ZM574.77814 65.80729Q574.77814 67.416664 575.41876 68.18229Q576.075 68.947914 576.9969 68.947914Q577.9344 68.947914 578.60626 68.15104Q579.27814 67.354164 579.27814 65.697914Q579.27814 64.104164 578.6219 63.322914Q577.96564 62.52604 577.0594 62.52604Q576.16876 62.52604 575.46564 63.36979Q574.77814 64.21354 574.77814 65.80729Z" fill-rule="nonzero"/><path fill="#9e9e9e" d="M542.41876 91.916664L541.0125 91.916664L541.0125 82.947914Q540.4969 83.43229 539.66876 83.916664Q538.85626 84.40104 538.2 84.65104L538.2 83.291664Q539.3719 82.729164 540.2469 81.947914Q541.1375 81.15104 541.5125 80.416664L542.41876 80.416664L542.41876 91.916664ZM551.41876 91.916664L550.0125 91.916664L550.0125 82.947914Q549.4969 83.43229 548.66876 83.916664Q547.85626 84.40104 547.2 84.65104L547.2 83.291664Q548.3719 82.729164 549.2469 81.947914Q550.1375 81.15104 550.5125 80.416664L551.41876 80.416664L551.41876 91.916664ZM555.90314 91.916664L555.90314 90.30729L557.5125 90.30729L557.5125 91.916664L555.90314 91.916664ZM564.41876 91.916664L563.0125 91.916664L563.0125 82.947914Q562.4969 83.43229 561.66876 83.916664Q560.85626 84.40104 560.2 84.65104L560.2 83.291664Q561.3719 82.729164 562.2469 81.947914Q563.1375 81.15104 563.5125 80.416664L564.41876 80.416664L564.41876 91.916664ZM568.3875 83.21354Q568.3875 81.979164 568.9969 81.11979Q569.6219 80.260414 570.79376 80.260414Q571.8719 80.260414 572.575 81.041664Q573.27814 81.80729 573.27814 83.291664Q573.27814 84.74479 572.5594 85.541664Q571.85626 86.322914 570.8094 86.322914Q569.7625 86.322914 569.075 85.55729Q568.3875 84.77604 568.3875 83.21354ZM570.825 81.229164Q570.3094 81.229164 569.95 81.68229Q569.60626 82.135414 569.60626 83.354164Q569.60626 84.447914 569.95 84.90104Q570.3094 85.354164 570.825 85.354164Q571.35626 85.354164 571.7 84.90104Q572.0594 84.447914 572.0594 83.24479Q572.0594 82.135414 571.7 81.68229Q571.35626 81.229164 570.825 81.229164ZM570.84064 92.33854L577.10626 80.260414L578.2469 80.260414L571.9969 92.33854L570.84064 92.33854ZM575.79376 89.229164Q575.79376 87.99479 576.40314 87.135414Q577.02814 86.27604 578.2 86.27604Q579.27814 86.27604 579.98126 87.05729Q580.7 87.822914 580.7 89.30729Q580.7 90.760414 579.98126 91.55729Q579.2625 92.33854 578.21564 92.33854Q577.16876 92.33854 576.48126 91.55729Q575.79376 90.77604 575.79376 89.229164ZM578.2469 87.24479Q577.71564 87.24479 577.35626 87.697914Q577.0125 88.15104 577.0125 89.36979Q577.0125 90.46354 577.35626 90.916664Q577.71564 91.36979 578.23126 91.36979Q578.77814 91.36979 579.1219 90.916664Q579.46564 90.46354 579.46564 89.260414Q579.46564 88.15104 579.10626 87.697914Q578.7625 87.24479 578.2469 87.24479Z" fill-rule="nonzero"/><path stroke="#757575" stroke-width="1.0" stroke-linecap="butt" d="M581.45 75.416664L454.76666 75.416664L348.33713 70.87814" fill-rule="nonzero"/><path fill="#9e9e9e" d="M350.33713 70.87814C350.33713 69.773575 349.4417 68.87814 348.33713 68.87814C347.23257 68.87814 346.33713 69.773575 346.33713 70.87814C346.33713 71.98271 347.23257 72.87814 348.33713 72.87814C349.4417 72.87814 350.33713 71.98271 350.33713 70.87814" fill-rule="nonzero"/><path fill="#efefef" d="M490.23126 144.26807Q490.23126 141.40869 491.7625 139.79932Q493.29376 138.18994 495.71564 138.18994Q497.29376 138.18994 498.5594 138.95557Q499.84064 139.70557 500.5125 141.06494Q501.1844 142.40869 501.1844 144.12744Q501.1844 145.87744 500.48126 147.25244Q499.77814 148.62744 498.48126 149.34619Q497.2 150.04932 495.7 150.04932Q494.09064 150.04932 492.8094 149.26807Q491.54376 148.47119 490.8875 147.12744Q490.23126 145.76807 490.23126 144.26807ZM491.79376 144.28369Q491.79376 146.36182 492.90314 147.54932Q494.0125 148.73682 495.7 148.73682Q497.40314 148.73682 498.5125 147.53369Q499.6219 146.33057 499.6219 144.12744Q499.6219 142.72119 499.1375 141.68994Q498.66876 140.64307 497.7625 140.06494Q496.85626 139.48682 495.71564 139.48682Q494.10626 139.48682 492.95 140.59619Q491.79376 141.70557 491.79376 144.28369ZM502.4969 149.84619L502.4969 141.54932L503.7625 141.54932L503.7625 142.79932Q504.2469 141.92432 504.65314 141.64307Q505.0594 141.36182 505.5594 141.36182Q506.2625 141.36182 506.9969 141.81494L506.5125 143.11182Q505.9969 142.81494 505.48126 142.81494Q505.02814 142.81494 504.65314 143.09619Q504.29376 143.36182 504.1375 143.86182Q503.90314 144.61182 503.90314 145.50244L503.90314 149.84619L502.4969 149.84619ZM510.575 148.58057L510.77814 149.83057Q510.1844 149.95557 509.71564 149.95557Q508.95 149.95557 508.52814 149.72119Q508.10626 149.47119 507.9344 149.08057Q507.7625 148.67432 507.7625 147.40869L507.7625 142.64307L506.73126 142.64307L506.73126 141.54932L507.7625 141.54932L507.7625 139.48682L509.16876 138.64307L509.16876 141.54932L510.575 141.54932L510.575 142.64307L509.16876 142.64307L509.16876 147.48682Q509.16876 148.09619 509.23126 148.26807Q509.3094 148.43994 509.48126 148.54932Q509.65314 148.64307 509.96564 148.64307Q510.2 148.64307 510.575 148.58057ZM511.5125 149.84619L511.5125 138.39307L512.91876 138.39307L512.91876 142.50244Q513.90314 141.36182 515.40314 141.36182Q516.325 141.36182 516.9969 141.72119Q517.6844 142.08057 517.96564 142.72119Q518.2625 143.36182 518.2625 144.58057L518.2625 149.84619L516.85626 149.84619L516.85626 144.58057Q516.85626 143.53369 516.40314 143.04932Q515.95 142.56494 515.10626 142.56494Q514.48126 142.56494 513.9344 142.89307Q513.3875 143.22119 513.15314 143.78369Q512.91876 144.33057 512.91876 145.29932L512.91876 149.84619L511.5125 149.84619ZM519.98126 145.68994Q519.98126 143.39307 521.2625 142.28369Q522.34064 141.36182 523.8719 141.36182Q525.59064 141.36182 526.66876 142.48682Q527.7625 143.59619 527.7625 145.58057Q527.7625 147.17432 527.27814 148.09619Q526.79376 149.01807 525.8719 149.53369Q524.96564 150.03369 523.8719 150.03369Q522.1375 150.03369 521.0594 148.92432Q519.98126 147.79932 519.98126 145.68994ZM521.4344 145.68994Q521.4344 147.28369 522.1219 148.08057Q522.825 148.87744 523.8719 148.87744Q524.91876 148.87744 525.60626 148.08057Q526.3094 147.28369 526.3094 145.64307Q526.3094 144.11182 525.60626 143.31494Q524.91876 142.51807 523.8719 142.51807Q522.825 142.51807 522.1219 143.31494Q521.4344 144.09619 521.4344 145.68994ZM529.2469 150.53369L530.6219 150.73682Q530.7 151.37744 531.09064 151.65869Q531.6219 152.04932 532.52814 152.04932Q533.4969 152.04932 534.02814 151.65869Q534.5594 151.26807 534.7469 150.56494Q534.85626 150.14307 534.85626 148.75244Q533.9344 149.84619 532.5594 149.84619Q530.84064 149.84619 529.90314 148.61182Q528.96564 147.37744 528.96564 145.64307Q528.96564 144.45557 529.3875 143.45557Q529.825 142.45557 530.6375 141.90869Q531.46564 141.36182 532.5594 141.36182Q534.02814 141.36182 534.98126 142.54932L534.98126 141.54932L536.27814 141.54932L536.27814 148.72119Q536.27814 150.65869 535.8875 151.47119Q535.4969 152.28369 534.6375 152.75244Q533.77814 153.22119 532.52814 153.22119Q531.04376 153.22119 530.1219 152.54932Q529.21564 151.87744 529.2469 150.53369ZM530.41876 145.54932Q530.41876 147.17432 531.0594 147.92432Q531.71564 148.67432 532.6844 148.67432Q533.65314 148.67432 534.3094 147.93994Q534.96564 147.18994 534.96564 145.59619Q534.96564 144.06494 534.29376 143.29932Q533.6219 142.51807 532.66876 142.51807Q531.73126 142.51807 531.075 143.28369Q530.41876 144.04932 530.41876 145.54932ZM538.4969 149.84619L538.4969 141.54932L539.7625 141.54932L539.7625 142.79932Q540.2469 141.92432 540.65314 141.64307Q541.0594 141.36182 541.5594 141.36182Q542.2625 141.36182 542.9969 141.81494L542.5125 143.11182Q541.9969 142.81494 541.48126 142.81494Q541.02814 142.81494 540.65314 143.09619Q540.29376 143.36182 540.1375 143.86182Q539.90314 144.61182 539.90314 145.50244L539.90314 149.84619L538.4969 149.84619ZM548.91876 148.81494Q548.1375 149.48682 547.41876 149.76807Q546.7 150.03369 545.8719 150.03369Q544.4969 150.03369 543.7625 149.36182Q543.02814 148.68994 543.02814 147.65869Q543.02814 147.04932 543.3094 146.54932Q543.59064 146.03369 544.02814 145.73682Q544.48126 145.42432 545.04376 145.26807Q545.46564 145.15869 546.29376 145.06494Q547.9969 144.86182 548.8094 144.58057Q548.8094 144.28369 548.8094 144.20557Q548.8094 143.34619 548.41876 143.00244Q547.8719 142.51807 546.8094 142.51807Q545.825 142.51807 545.34064 142.87744Q544.8719 143.22119 544.65314 144.09619L543.27814 143.90869Q543.46564 143.03369 543.8875 142.48682Q544.325 141.93994 545.1375 141.65869Q545.95 141.36182 547.0125 141.36182Q548.075 141.36182 548.73126 141.61182Q549.40314 141.86182 549.71564 142.23682Q550.02814 142.61182 550.15314 143.18994Q550.23126 143.54932 550.23126 144.48682L550.23126 146.36182Q550.23126 148.33057 550.3094 148.84619Q550.40314 149.36182 550.66876 149.84619L549.2 149.84619Q548.98126 149.40869 548.91876 148.81494ZM548.8094 145.67432Q548.04376 145.98682 546.5125 146.20557Q545.6375 146.33057 545.27814 146.48682Q544.91876 146.64307 544.71564 146.95557Q544.52814 147.25244 544.52814 147.61182Q544.52814 148.17432 544.95 148.54932Q545.3875 148.92432 546.2 148.92432Q547.0125 148.92432 547.6375 148.58057Q548.27814 148.22119 548.575 147.59619Q548.8094 147.12744 548.8094 146.18994L548.8094 145.67432ZM552.5125 153.03369L552.5125 141.54932L553.79376 141.54932L553.79376 142.62744Q554.2469 141.98682 554.8094 141.67432Q555.3875 141.36182 556.2 141.36182Q557.2625 141.36182 558.075 141.90869Q558.8875 142.45557 559.29376 143.45557Q559.71564 144.43994 559.71564 145.62744Q559.71564 146.90869 559.2469 147.92432Q558.79376 148.93994 557.91876 149.48682Q557.0594 150.03369 556.09064 150.03369Q555.3875 150.03369 554.825 149.73682Q554.27814 149.43994 553.91876 148.98682L553.91876 153.03369L552.5125 153.03369ZM553.77814 145.73682Q553.77814 147.34619 554.41876 148.11182Q555.075 148.87744 555.9969 148.87744Q556.9344 148.87744 557.60626 148.08057Q558.27814 147.28369 558.27814 145.62744Q558.27814 144.03369 557.6219 143.25244Q556.96564 142.45557 556.0594 142.45557Q555.16876 142.45557 554.46564 143.29932Q553.77814 144.14307 553.77814 145.73682ZM561.5125 149.84619L561.5125 138.39307L562.91876 138.39307L562.91876 142.50244Q563.90314 141.36182 565.40314 141.36182Q566.325 141.36182 566.9969 141.72119Q567.6844 142.08057 567.96564 142.72119Q568.2625 143.36182 568.2625 144.58057L568.2625 149.84619L566.85626 149.84619L566.85626 144.58057Q566.85626 143.53369 566.40314 143.04932Q565.95 142.56494 565.10626 142.56494Q564.48126 142.56494 563.9344 142.89307Q563.3875 143.22119 563.15314 143.78369Q562.91876 144.33057 562.91876 145.29932L562.91876 149.84619L561.5125 149.84619ZM570.5125 140.00244L570.5125 138.39307L571.91876 138.39307L571.91876 140.00244L570.5125 140.00244ZM570.5125 149.84619L570.5125 141.54932L571.91876 141.54932L571.91876 149.84619L570.5125 149.84619ZM579.91876 146.79932L581.3094 146.98682Q581.075 148.40869 580.1375 149.22119Q579.21564 150.03369 577.85626 150.03369Q576.15314 150.03369 575.10626 148.92432Q574.075 147.79932 574.075 145.72119Q574.075 144.37744 574.5125 143.37744Q574.96564 142.36182 575.8719 141.86182Q576.79376 141.36182 577.85626 141.36182Q579.21564 141.36182 580.075 142.04932Q580.9344 142.72119 581.16876 143.98682L579.8094 144.18994Q579.60626 143.36182 579.10626 142.93994Q578.6219 142.51807 577.91876 142.51807Q576.85626 142.51807 576.1844 143.28369Q575.52814 144.03369 575.52814 145.68994Q575.52814 147.36182 576.16876 148.12744Q576.8094 148.87744 577.84064 148.87744Q578.66876 148.87744 579.21564 148.37744Q579.77814 147.86182 579.91876 146.79932Z" fill-rule="nonzero"/><path fill="#9e9e9e" d="M542.41876 171.84619L541.0125 171.84619L541.0125 162.87744Q540.4969 163.36182 539.66876 163.84619Q538.85626 164.33057 538.2 164.58057L538.2 163.22119Q539.3719 162.65869 540.2469 161.87744Q541.1375 161.08057 541.5125 160.34619L542.41876 160.34619L542.41876 171.84619ZM553.41876 163.18994L552.0125 163.29932Q551.825 162.47119 551.48126 162.09619Q550.91876 161.50244 550.075 161.50244Q549.40314 161.50244 548.90314 161.87744Q548.23126 162.36182 547.84064 163.29932Q547.46564 164.22119 547.45 165.93994Q547.96564 165.15869 548.7 164.78369Q549.4344 164.40869 550.23126 164.40869Q551.6375 164.40869 552.6219 165.45557Q553.6219 166.48682 553.6219 168.12744Q553.6219 169.20557 553.15314 170.12744Q552.6844 171.04932 551.8719 171.54932Q551.0594 172.04932 550.02814 172.04932Q548.27814 172.04932 547.16876 170.75244Q546.0594 169.45557 546.0594 166.48682Q546.0594 163.15869 547.27814 161.65869Q548.35626 160.34619 550.16876 160.34619Q551.5125 160.34619 552.3719 161.11182Q553.2469 161.86182 553.41876 163.18994ZM547.66876 168.12744Q547.66876 168.86182 547.98126 169.53369Q548.29376 170.18994 548.84064 170.53369Q549.40314 170.87744 550.0125 170.87744Q550.90314 170.87744 551.54376 170.15869Q552.1844 169.43994 552.1844 168.20557Q552.1844 167.01807 551.54376 166.34619Q550.91876 165.65869 549.95 165.65869Q548.9969 165.65869 548.325 166.34619Q547.66876 167.01807 547.66876 168.12744ZM555.90314 171.84619L555.90314 170.23682L557.5125 170.23682L557.5125 171.84619L555.90314 171.84619ZM559.21564 161.89307L559.21564 160.53369L566.6219 160.53369L566.6219 161.62744Q565.52814 162.79932 564.45 164.73682Q563.3875 166.65869 562.79376 168.68994Q562.3719 170.12744 562.2625 171.84619L560.8094 171.84619Q560.84064 170.48682 561.34064 168.58057Q561.85626 166.65869 562.79376 164.89307Q563.7469 163.11182 564.825 161.89307L559.21564 161.89307ZM568.3875 163.14307Q568.3875 161.90869 568.9969 161.04932Q569.6219 160.18994 570.79376 160.18994Q571.8719 160.18994 572.575 160.97119Q573.27814 161.73682 573.27814 163.22119Q573.27814 164.67432 572.5594 165.47119Q571.85626 166.25244 570.8094 166.25244Q569.7625 166.25244 569.075 165.48682Q568.3875 164.70557 568.3875 163.14307ZM570.825 161.15869Q570.3094 161.15869 569.95 161.61182Q569.60626 162.06494 569.60626 163.28369Q569.60626 164.37744 569.95 164.83057Q570.3094 165.28369 570.825 165.28369Q571.35626 165.28369 571.7 164.83057Q572.0594 164.37744 572.0594 163.17432Q572.0594 162.06494 571.7 161.61182Q571.35626 161.15869 570.825 161.15869ZM570.84064 172.26807L577.10626 160.18994L578.2469 160.18994L571.9969 172.26807L570.84064 172.26807ZM575.79376 169.15869Q575.79376 167.92432 576.40314 167.06494Q577.02814 166.20557 578.2 166.20557Q579.27814 166.20557 579.98126 166.98682Q580.7 167.75244 580.7 169.23682Q580.7 170.68994 579.98126 171.48682Q579.2625 172.26807 578.21564 172.26807Q577.16876 172.26807 576.48126 171.48682Q575.79376 170.70557 575.79376 169.15869ZM578.2469 167.17432Q577.71564 167.17432 577.35626 167.62744Q577.0125 168.08057 577.0125 169.29932Q577.0125 170.39307 577.35626 170.84619Q577.71564 171.29932 578.23126 171.29932Q578.77814 171.29932 579.1219 170.84619Q579.46564 170.39307 579.46564 169.18994Q579.46564 168.08057 579.10626 167.62744Q578.7625 167.17432 578.2469 167.17432Z" fill-rule="nonzero"/><path stroke="#757575" stroke-width="1.0" stroke-linecap="butt" d="M581.45 155.34619L454.76666 155.34619L432.8052 155.34619" fill-rule="nonzero"/><path fill="#9e9e9e" d="M434.8052 155.34619C434.8052 154.24162 433.90976 153.34619 432.8052 153.34619C431.70062 153.34619 430.8052 154.24162 430.8052 155.34619C430.8052 156.45076 431.70062 157.34619 432.8052 157.34619C433.90976 157.34619 434.8052 156.45076 434.8052 155.34619" fill-rule="nonzero"/><path fill="#efefef" d="M498.6844 244.45L498.6844 232.99687L503.0125 232.99687Q504.15314 232.99687 504.7469 233.10625Q505.59064 233.24687 506.15314 233.6375Q506.73126 234.02812 507.075 234.74687Q507.4344 235.45 507.4344 236.30937Q507.4344 237.7625 506.4969 238.77812Q505.575 239.79375 503.1375 239.79375L500.2 239.79375L500.2 244.45L498.6844 244.45ZM500.2 238.43437L503.16876 238.43437Q504.6375 238.43437 505.2469 237.8875Q505.8719 237.34062 505.8719 236.35625Q505.8719 235.6375 505.4969 235.12187Q505.1375 234.60625 504.54376 234.45Q504.16876 234.34062 503.1375 234.34062L500.2 234.34062L500.2 238.43437ZM515.1844 241.77812L516.6375 241.95Q516.29376 243.23125 515.35626 243.93437Q514.4344 244.6375 512.9969 244.6375Q511.16876 244.6375 510.10626 243.5125Q509.04376 242.3875 509.04376 240.37187Q509.04376 238.27812 510.1219 237.12187Q511.2 235.96562 512.91876 235.96562Q514.575 235.96562 515.6219 237.10625Q516.6844 238.23125 516.6844 240.27812Q516.6844 240.40312 516.6844 240.65312L510.4969 240.65312Q510.575 242.02812 511.2625 242.7625Q511.96564 243.48125 512.9969 243.48125Q513.77814 243.48125 514.325 243.075Q514.8719 242.66875 515.1844 241.77812ZM510.575 239.49687L515.2 239.49687Q515.10626 238.45 514.66876 237.93437Q513.9969 237.12187 512.9344 237.12187Q511.96564 237.12187 511.29376 237.77812Q510.6375 238.41875 510.575 239.49687ZM518.4969 244.45L518.4969 236.15312L519.7625 236.15312L519.7625 237.40312Q520.2469 236.52812 520.65314 236.24687Q521.0594 235.96562 521.5594 235.96562Q522.2625 235.96562 522.9969 236.41875L522.5125 237.71562Q521.9969 237.41875 521.48126 237.41875Q521.02814 237.41875 520.65314 237.7Q520.29376 237.96562 520.1375 238.46562Q519.90314 239.21562 519.90314 240.10625L519.90314 244.45L518.4969 244.45ZM522.95 241.96562L524.34064 241.74687Q524.45 242.59062 524.98126 243.04375Q525.52814 243.48125 526.48126 243.48125Q527.45 243.48125 527.91876 243.09062Q528.3875 242.68437 528.3875 242.15312Q528.3875 241.68437 527.98126 241.40312Q527.6844 241.21562 526.54376 240.93437Q524.9969 240.54375 524.3875 240.2625Q523.79376 239.96562 523.48126 239.46562Q523.1844 238.96562 523.1844 238.35625Q523.1844 237.79375 523.4344 237.325Q523.6844 236.85625 524.1219 236.54375Q524.45 236.29375 525.0125 236.1375Q525.59064 235.96562 526.23126 235.96562Q527.21564 235.96562 527.95 236.24687Q528.6844 236.52812 529.02814 237.0125Q529.3875 237.48125 529.52814 238.29375L528.15314 238.48125Q528.0594 237.84062 527.60626 237.48125Q527.15314 237.12187 526.34064 237.12187Q525.3719 237.12187 524.95 237.45Q524.54376 237.7625 524.54376 238.18437Q524.54376 238.46562 524.71564 238.68437Q524.8875 238.90312 525.2469 239.05937Q525.46564 239.1375 526.4969 239.41875Q527.98126 239.80937 528.575 240.075Q529.16876 240.325 529.4969 240.80937Q529.84064 241.29375 529.84064 242.0125Q529.84064 242.71562 529.41876 243.34062Q529.0125 243.95 528.23126 244.29375Q527.46564 244.6375 526.4969 244.6375Q524.8719 244.6375 524.02814 243.96562Q523.1844 243.29375 522.95 241.96562ZM531.5125 247.6375L531.5125 236.15312L532.79376 236.15312L532.79376 237.23125Q533.2469 236.59062 533.8094 236.27812Q534.3875 235.96562 535.2 235.96562Q536.2625 235.96562 537.075 236.5125Q537.8875 237.05937 538.29376 238.05937Q538.71564 239.04375 538.71564 240.23125Q538.71564 241.5125 538.2469 242.52812Q537.79376 243.54375 536.91876 244.09062Q536.0594 244.6375 535.09064 244.6375Q534.3875 244.6375 533.825 244.34062Q533.27814 244.04375 532.91876 243.59062L532.91876 247.6375L531.5125 247.6375ZM532.77814 240.34062Q532.77814 241.95 533.41876 242.71562Q534.075 243.48125 534.9969 243.48125Q535.9344 243.48125 536.60626 242.68437Q537.27814 241.8875 537.27814 240.23125Q537.27814 238.6375 536.6219 237.85625Q535.96564 237.05937 535.0594 237.05937Q534.16876 237.05937 533.46564 237.90312Q532.77814 238.74687 532.77814 240.34062ZM546.1844 241.77812L547.6375 241.95Q547.29376 243.23125 546.35626 243.93437Q545.4344 244.6375 543.9969 244.6375Q542.16876 244.6375 541.10626 243.5125Q540.04376 242.3875 540.04376 240.37187Q540.04376 238.27812 541.1219 237.12187Q542.2 235.96562 543.91876 235.96562Q545.575 235.96562 546.6219 237.10625Q547.6844 238.23125 547.6844 240.27812Q547.6844 240.40312 547.6844 240.65312L541.4969 240.65312Q541.575 242.02812 542.2625 242.7625Q542.96564 243.48125 543.9969 243.48125Q544.77814 243.48125 545.325 243.075Q545.8719 242.66875 546.1844 241.77812ZM541.575 239.49687L546.2 239.49687Q546.10626 238.45 545.66876 237.93437Q544.9969 237.12187 543.9344 237.12187Q542.96564 237.12187 542.29376 237.77812Q541.6375 238.41875 541.575 239.49687ZM554.91876 241.40312L556.3094 241.59062Q556.075 243.0125 555.1375 243.825Q554.21564 244.6375 552.85626 244.6375Q551.15314 244.6375 550.10626 243.52812Q549.075 242.40312 549.075 240.325Q549.075 238.98125 549.5125 237.98125Q549.96564 236.96562 550.8719 236.46562Q551.79376 235.96562 552.85626 235.96562Q554.21564 235.96562 555.075 236.65312Q555.9344 237.325 556.16876 238.59062L554.8094 238.79375Q554.60626 237.96562 554.10626 237.54375Q553.6219 237.12187 552.91876 237.12187Q551.85626 237.12187 551.1844 237.8875Q550.52814 238.6375 550.52814 240.29375Q550.52814 241.96562 551.16876 242.73125Q551.8094 243.48125 552.84064 243.48125Q553.66876 243.48125 554.21564 242.98125Q554.77814 242.46562 554.91876 241.40312ZM560.575 243.18437L560.77814 244.43437Q560.1844 244.55937 559.71564 244.55937Q558.95 244.55937 558.52814 244.325Q558.10626 244.075 557.9344 243.68437Q557.7625 243.27812 557.7625 242.0125L557.7625 237.24687L556.73126 237.24687L556.73126 236.15312L557.7625 236.15312L557.7625 234.09062L559.16876 233.24687L559.16876 236.15312L560.575 236.15312L560.575 237.24687L559.16876 237.24687L559.16876 242.09062Q559.16876 242.7 559.23126 242.87187Q559.3094 243.04375 559.48126 243.15312Q559.65314 243.24687 559.96564 243.24687Q560.2 243.24687 560.575 243.18437ZM561.5125 234.60625L561.5125 232.99687L562.91876 232.99687L562.91876 234.60625L561.5125 234.60625ZM561.5125 244.45L561.5125 236.15312L562.91876 236.15312L562.91876 244.45L561.5125 244.45ZM567.8094 244.45L564.65314 236.15312L566.1375 236.15312L567.91876 241.12187Q568.21564 241.91875 568.45 242.79375Q568.6375 242.1375 568.98126 241.21562L570.825 236.15312L572.2625 236.15312L569.1219 244.45L567.8094 244.45ZM579.1844 241.77812L580.6375 241.95Q580.29376 243.23125 579.35626 243.93437Q578.4344 244.6375 576.9969 244.6375Q575.16876 244.6375 574.10626 243.5125Q573.04376 242.3875 573.04376 240.37187Q573.04376 238.27812 574.1219 237.12187Q575.2 235.96562 576.91876 235.96562Q578.575 235.96562 579.6219 237.10625Q580.6844 238.23125 580.6844 240.27812Q580.6844 240.40312 580.6844 240.65312L574.4969 240.65312Q574.575 242.02812 575.2625 242.7625Q575.96564 243.48125 576.9969 243.48125Q577.77814 243.48125 578.325 243.075Q578.8719 242.66875 579.1844 241.77812ZM574.575 239.49687L579.2 239.49687Q579.10626 238.45 578.66876 237.93437Q577.9969 237.12187 576.9344 237.12187Q575.96564 237.12187 575.29376 237.77812Q574.6375 238.41875 574.575 239.49687Z" fill-rule="nonzero"/><path fill="#9e9e9e" d="M542.41876 266.45L541.0125 266.45L541.0125 257.48126Q540.4969 257.96564 539.66876 258.45Q538.85626 258.9344 538.2 259.1844L538.2 257.825Q539.3719 257.2625 540.2469 256.48126Q541.1375 255.68439 541.5125 254.95001L542.41876 254.95001L542.41876 266.45ZM551.41876 266.45L550.0125 266.45L550.0125 257.48126Q549.4969 257.96564 548.66876 258.45Q547.85626 258.9344 547.2 259.1844L547.2 257.825Q548.3719 257.2625 549.2469 256.48126Q550.1375 255.68439 550.5125 254.95001L551.41876 254.95001L551.41876 266.45ZM555.90314 266.45L555.90314 264.84064L557.5125 264.84064L557.5125 266.45L555.90314 266.45ZM564.41876 266.45L563.0125 266.45L563.0125 257.48126Q562.4969 257.96564 561.66876 258.45Q560.85626 258.9344 560.2 259.1844L560.2 257.825Q561.3719 257.2625 562.2469 256.48126Q563.1375 255.68439 563.5125 254.95001L564.41876 254.95001L564.41876 266.45ZM568.3875 257.7469Q568.3875 256.5125 568.9969 255.65314Q569.6219 254.79376 570.79376 254.79376Q571.8719 254.79376 572.575 255.57501Q573.27814 256.34064 573.27814 257.825Q573.27814 259.27814 572.5594 260.075Q571.85626 260.85626 570.8094 260.85626Q569.7625 260.85626 569.075 260.09064Q568.3875 259.3094 568.3875 257.7469ZM570.825 255.76251Q570.3094 255.76251 569.95 256.21564Q569.60626 256.66876 569.60626 257.8875Q569.60626 258.98126 569.95 259.4344Q570.3094 259.8875 570.825 259.8875Q571.35626 259.8875 571.7 259.4344Q572.0594 258.98126 572.0594 257.77814Q572.0594 256.66876 571.7 256.21564Q571.35626 255.76251 570.825 255.76251ZM570.84064 266.8719L577.10626 254.79376L578.2469 254.79376L571.9969 266.8719L570.84064 266.8719ZM575.79376 263.7625Q575.79376 262.52814 576.40314 261.66876Q577.02814 260.8094 578.2 260.8094Q579.27814 260.8094 579.98126 261.59064Q580.7 262.35626 580.7 263.84064Q580.7 265.29376 579.98126 266.09064Q579.2625 266.8719 578.21564 266.8719Q577.16876 266.8719 576.48126 266.09064Q575.79376 265.3094 575.79376 263.7625ZM578.2469 261.77814Q577.71564 261.77814 577.35626 262.23126Q577.0125 262.6844 577.0125 263.90314Q577.0125 264.9969 577.35626 265.45Q577.71564 265.90314 578.23126 265.90314Q578.77814 265.90314 579.1219 265.45Q579.46564 264.9969 579.46564 263.79376Q579.46564 262.6844 579.10626 262.23126Q578.7625 261.77814 578.2469 261.77814Z" fill-rule="nonzero"/><path stroke="#757575" stroke-width="1.0" stroke-linecap="butt" d="M581.45 249.95L454.76666 249.95L422.39392 274.3475" fill-rule="nonzero"/><path fill="#9e9e9e" d="M424.39392 274.3475C424.39392 273.24292 423.4985 272.3475 422.39392 272.3475C421.28937 272.3475 420.39392 273.24292 420.39392 274.3475C420.39392 275.45206 421.28937 276.3475 422.39392 276.3475C423.4985 276.3475 424.39392 275.45206 424.39392 274.3475" fill-rule="nonzero"/><path fill="#efefef" d="M532.6844 285.45L532.6844 273.9969L536.6375 273.9969Q537.96564 273.9969 538.66876 274.15314Q539.65314 274.3875 540.35626 274.98126Q541.2625 275.7469 541.7 276.9344Q542.15314 278.1219 542.15314 279.65314Q542.15314 280.96564 541.84064 281.98126Q541.54376 282.98126 541.0594 283.6375Q540.59064 284.29376 540.02814 284.6844Q539.46564 285.0594 538.65314 285.2625Q537.85626 285.45 536.825 285.45L532.6844 285.45ZM534.2 284.09064L536.65314 284.09064Q537.77814 284.09064 538.41876 283.8875Q539.075 283.66876 539.45 283.29376Q539.9969 282.7469 540.29376 281.84064Q540.59064 280.9344 540.59064 279.6375Q540.59064 277.84064 539.9969 276.8719Q539.41876 275.90314 538.575 275.575Q537.96564 275.34064 536.60626 275.34064L534.2 275.34064L534.2 284.09064ZM550.1844 282.77814L551.6375 282.95Q551.29376 284.23126 550.35626 284.9344Q549.4344 285.6375 547.9969 285.6375Q546.16876 285.6375 545.10626 284.5125Q544.04376 283.3875 544.04376 281.3719Q544.04376 279.27814 545.1219 278.1219Q546.2 276.96564 547.91876 276.96564Q549.575 276.96564 550.6219 278.10626Q551.6844 279.23126 551.6844 281.27814Q551.6844 281.40314 551.6844 281.65314L545.4969 281.65314Q545.575 283.02814 546.2625 283.7625Q546.96564 284.48126 547.9969 284.48126Q548.77814 284.48126 549.325 284.075Q549.8719 283.66876 550.1844 282.77814ZM545.575 280.4969L550.2 280.4969Q550.10626 279.45 549.66876 278.9344Q548.9969 278.1219 547.9344 278.1219Q546.96564 278.1219 546.29376 278.77814Q545.6375 279.41876 545.575 280.4969ZM556.575 284.1844L556.77814 285.4344Q556.1844 285.5594 555.71564 285.5594Q554.95 285.5594 554.52814 285.325Q554.10626 285.075 553.9344 284.6844Q553.7625 284.27814 553.7625 283.0125L553.7625 278.2469L552.73126 278.2469L552.73126 277.15314L553.7625 277.15314L553.7625 275.09064L555.16876 274.2469L555.16876 277.15314L556.575 277.15314L556.575 278.2469L555.16876 278.2469L555.16876 283.09064Q555.16876 283.7 555.23126 283.8719Q555.3094 284.04376 555.48126 284.15314Q555.65314 284.2469 555.96564 284.2469Q556.2 284.2469 556.575 284.1844ZM562.91876 284.41876Q562.1375 285.09064 561.41876 285.3719Q560.7 285.6375 559.8719 285.6375Q558.4969 285.6375 557.7625 284.96564Q557.02814 284.29376 557.02814 283.2625Q557.02814 282.65314 557.3094 282.15314Q557.59064 281.6375 558.02814 281.34064Q558.48126 281.02814 559.04376 280.8719Q559.46564 280.7625 560.29376 280.66876Q561.9969 280.46564 562.8094 280.1844Q562.8094 279.8875 562.8094 279.8094Q562.8094 278.95 562.41876 278.60626Q561.8719 278.1219 560.8094 278.1219Q559.825 278.1219 559.34064 278.48126Q558.8719 278.825 558.65314 279.7L557.27814 279.5125Q557.46564 278.6375 557.8875 278.09064Q558.325 277.54376 559.1375 277.2625Q559.95 276.96564 561.0125 276.96564Q562.075 276.96564 562.73126 277.21564Q563.40314 277.46564 563.71564 277.84064Q564.02814 278.21564 564.15314 278.79376Q564.23126 279.15314 564.23126 280.09064L564.23126 281.96564Q564.23126 283.9344 564.3094 284.45Q564.40314 284.96564 564.66876 285.45L563.2 285.45Q562.98126 285.0125 562.91876 284.41876ZM562.8094 281.27814Q562.04376 281.59064 560.5125 281.8094Q559.6375 281.9344 559.27814 282.09064Q558.91876 282.2469 558.71564 282.5594Q558.52814 282.85626 558.52814 283.21564Q558.52814 283.77814 558.95 284.15314Q559.3875 284.52814 560.2 284.52814Q561.0125 284.52814 561.6375 284.1844Q562.27814 283.825 562.575 283.2Q562.8094 282.73126 562.8094 281.79376L562.8094 281.27814ZM566.5125 275.60626L566.5125 273.9969L567.91876 273.9969L567.91876 275.60626L566.5125 275.60626ZM566.5125 285.45L566.5125 277.15314L567.91876 277.15314L567.91876 285.45L566.5125 285.45ZM570.48126 285.45L570.48126 273.9969L571.8875 273.9969L571.8875 285.45L570.48126 285.45ZM573.95 282.96564L575.34064 282.7469Q575.45 283.59064 575.98126 284.04376Q576.52814 284.48126 577.48126 284.48126Q578.45 284.48126 578.91876 284.09064Q579.3875 283.6844 579.3875 283.15314Q579.3875 282.6844 578.98126 282.40314Q578.6844 282.21564 577.54376 281.9344Q575.9969 281.54376 575.3875 281.2625Q574.79376 280.96564 574.48126 280.46564Q574.1844 279.96564 574.1844 279.35626Q574.1844 278.79376 574.4344 278.325Q574.6844 277.85626 575.1219 277.54376Q575.45 277.29376 576.0125 277.1375Q576.59064 276.96564 577.23126 276.96564Q578.21564 276.96564 578.95 277.2469Q579.6844 277.52814 580.02814 278.0125Q580.3875 278.48126 580.52814 279.29376L579.15314 279.48126Q579.0594 278.84064 578.60626 278.48126Q578.15314 278.1219 577.34064 278.1219Q576.3719 278.1219 575.95 278.45Q575.54376 278.7625 575.54376 279.1844Q575.54376 279.46564 575.71564 279.6844Q575.8875 279.90314 576.2469 280.0594Q576.46564 280.1375 577.4969 280.41876Q578.98126 280.8094 579.575 281.075Q580.16876 281.325 580.4969 281.8094Q580.84064 282.29376 580.84064 283.0125Q580.84064 283.71564 580.41876 284.34064Q580.0125 284.95 579.23126 285.29376Q578.46564 285.6375 577.4969 285.6375Q575.8719 285.6375 575.02814 284.96564Q574.1844 284.29376 573.95 282.96564Z" fill-rule="nonzero"/><path fill="#9e9e9e" d="M546.1219 304.45L547.59064 304.325Q547.7625 305.40314 548.35626 305.95Q548.95 306.48126 549.79376 306.48126Q550.8094 306.48126 551.5125 305.71564Q552.21564 304.95 552.21564 303.6844Q552.21564 302.48126 551.54376 301.79376Q550.8719 301.09064 549.77814 301.09064Q549.09064 301.09064 548.54376 301.40314Q547.9969 301.71564 547.6844 302.2L546.3719 302.02814L547.48126 296.15314L553.16876 296.15314L553.16876 297.4969L548.60626 297.4969L547.98126 300.575Q549.0125 299.85626 550.15314 299.85626Q551.65314 299.85626 552.6844 300.90314Q553.71564 301.9344 553.71564 303.5594Q553.71564 305.1219 552.8094 306.2469Q551.7 307.65314 549.79376 307.65314Q548.23126 307.65314 547.2469 306.77814Q546.2625 305.8875 546.1219 304.45ZM555.90314 307.45L555.90314 305.84064L557.5125 305.84064L557.5125 307.45L555.90314 307.45ZM566.41876 298.79376L565.0125 298.90314Q564.825 298.075 564.48126 297.7Q563.91876 297.10626 563.075 297.10626Q562.40314 297.10626 561.90314 297.48126Q561.23126 297.96564 560.84064 298.90314Q560.46564 299.825 560.45 301.54376Q560.96564 300.7625 561.7 300.3875Q562.4344 300.0125 563.23126 300.0125Q564.6375 300.0125 565.6219 301.0594Q566.6219 302.09064 566.6219 303.73126Q566.6219 304.8094 566.15314 305.73126Q565.6844 306.65314 564.8719 307.15314Q564.0594 307.65314 563.02814 307.65314Q561.27814 307.65314 560.16876 306.35626Q559.0594 305.0594 559.0594 302.09064Q559.0594 298.7625 560.27814 297.2625Q561.35626 295.95 563.16876 295.95Q564.5125 295.95 565.3719 296.71564Q566.2469 297.46564 566.41876 298.79376ZM560.66876 303.73126Q560.66876 304.46564 560.98126 305.1375Q561.29376 305.79376 561.84064 306.1375Q562.40314 306.48126 563.0125 306.48126Q563.90314 306.48126 564.54376 305.7625Q565.1844 305.04376 565.1844 303.8094Q565.1844 302.6219 564.54376 301.95Q563.91876 301.2625 562.95 301.2625Q561.9969 301.2625 561.325 301.95Q560.66876 302.6219 560.66876 303.73126ZM568.3875 298.7469Q568.3875 297.5125 568.9969 296.65314Q569.6219 295.79376 570.79376 295.79376Q571.8719 295.79376 572.575 296.575Q573.27814 297.34064 573.27814 298.825Q573.27814 300.27814 572.5594 301.075Q571.85626 301.85626 570.8094 301.85626Q569.7625 301.85626 569.075 301.09064Q568.3875 300.3094 568.3875 298.7469ZM570.825 296.7625Q570.3094 296.7625 569.95 297.21564Q569.60626 297.66876 569.60626 298.8875Q569.60626 299.98126 569.95 300.4344Q570.3094 300.8875 570.825 300.8875Q571.35626 300.8875 571.7 300.4344Q572.0594 299.98126 572.0594 298.77814Q572.0594 297.66876 571.7 297.21564Q571.35626 296.7625 570.825 296.7625ZM570.84064 307.8719L577.10626 295.79376L578.2469 295.79376L571.9969 307.8719L570.84064 307.8719ZM575.79376 304.7625Q575.79376 303.52814 576.40314 302.66876Q577.02814 301.8094 578.2 301.8094Q579.27814 301.8094 579.98126 302.59064Q580.7 303.35626 580.7 304.84064Q580.7 306.29376 579.98126 307.09064Q579.2625 307.8719 578.21564 307.8719Q577.16876 307.8719 576.48126 307.09064Q575.79376 306.3094 575.79376 304.7625ZM578.2469 302.77814Q577.71564 302.77814 577.35626 303.23126Q577.0125 303.6844 577.0125 304.90314Q577.0125 305.9969 577.35626 306.45Q577.71564 306.90314 578.23126 306.90314Q578.77814 306.90314 579.1219 306.45Q579.46564 305.9969 579.46564 304.79376Q579.46564 303.6844 579.10626 303.23126Q578.7625 302.77814 578.2469 302.77814Z" fill-rule="nonzero"/><path stroke="#757575" stroke-width="1.0" stroke-linecap="butt" d="M581.45 290.95L454.76666 290.95L370.66415 326.07727" fill-rule="nonzero"/><path fill="#9e9e9e" d="M372.66415 326.07727C372.66415 324.9727 371.76874 324.07727 370.66415 324.07727C369.5596 324.07727 368.66415 324.9727 368.66415 326.07727C368.66415 327.18182 369.5596 328.07727 370.66415 328.07727C371.76874 328.07727 372.66415 327.18182 372.66415 326.07727" fill-rule="nonzero"/><path fill="#efefef" d="M531.6844 326.45L531.6844 314.9969L536.0125 314.9969Q537.15314 314.9969 537.7469 315.10626Q538.59064 315.2469 539.15314 315.6375Q539.73126 316.02814 540.075 316.7469Q540.4344 317.45 540.4344 318.3094Q540.4344 319.7625 539.4969 320.77814Q538.575 321.79376 536.1375 321.79376L533.2 321.79376L533.2 326.45L531.6844 326.45ZM533.2 320.4344L536.16876 320.4344Q537.6375 320.4344 538.2469 319.8875Q538.8719 319.34064 538.8719 318.35626Q538.8719 317.6375 538.4969 317.1219Q538.1375 316.60626 537.54376 316.45Q537.16876 316.34064 536.1375 316.34064L533.2 316.34064L533.2 320.4344ZM548.1844 323.77814L549.6375 323.95Q549.29376 325.23126 548.35626 325.9344Q547.4344 326.6375 545.9969 326.6375Q544.16876 326.6375 543.10626 325.5125Q542.04376 324.3875 542.04376 322.3719Q542.04376 320.27814 543.1219 319.1219Q544.2 317.96564 545.91876 317.96564Q547.575 317.96564 548.6219 319.10626Q549.6844 320.23126 549.6844 322.27814Q549.6844 322.40314 549.6844 322.65314L543.4969 322.65314Q543.575 324.02814 544.2625 324.7625Q544.96564 325.48126 545.9969 325.48126Q546.77814 325.48126 547.325 325.075Q547.8719 324.66876 548.1844 323.77814ZM543.575 321.4969L548.2 321.4969Q548.10626 320.45 547.66876 319.9344Q546.9969 319.1219 545.9344 319.1219Q544.96564 319.1219 544.29376 319.77814Q543.6375 320.41876 543.575 321.4969ZM550.98126 322.29376Q550.98126 319.9969 552.2625 318.8875Q553.34064 317.96564 554.8719 317.96564Q556.59064 317.96564 557.66876 319.09064Q558.7625 320.2 558.7625 322.1844Q558.7625 323.77814 558.27814 324.7Q557.79376 325.6219 556.8719 326.1375Q555.96564 326.6375 554.8719 326.6375Q553.1375 326.6375 552.0594 325.52814Q550.98126 324.40314 550.98126 322.29376ZM552.4344 322.29376Q552.4344 323.8875 553.1219 324.6844Q553.825 325.48126 554.8719 325.48126Q555.91876 325.48126 556.60626 324.6844Q557.3094 323.8875 557.3094 322.2469Q557.3094 320.71564 556.60626 319.91876Q555.91876 319.1219 554.8719 319.1219Q553.825 319.1219 553.1219 319.91876Q552.4344 320.7 552.4344 322.29376ZM560.5125 329.6375L560.5125 318.15314L561.79376 318.15314L561.79376 319.23126Q562.2469 318.59064 562.8094 318.27814Q563.3875 317.96564 564.2 317.96564Q565.2625 317.96564 566.075 318.5125Q566.8875 319.0594 567.29376 320.0594Q567.71564 321.04376 567.71564 322.23126Q567.71564 323.5125 567.2469 324.52814Q566.79376 325.54376 565.91876 326.09064Q565.0594 326.6375 564.09064 326.6375Q563.3875 326.6375 562.825 326.34064Q562.27814 326.04376 561.91876 325.59064L561.91876 329.6375L560.5125 329.6375ZM561.77814 322.34064Q561.77814 323.95 562.41876 324.71564Q563.075 325.48126 563.9969 325.48126Q564.9344 325.48126 565.60626 324.6844Q566.27814 323.8875 566.27814 322.23126Q566.27814 320.6375 565.6219 319.85626Q564.96564 319.0594 564.0594 319.0594Q563.16876 319.0594 562.46564 319.90314Q561.77814 320.7469 561.77814 322.34064ZM569.48126 326.45L569.48126 314.9969L570.8875 314.9969L570.8875 326.45L569.48126 326.45ZM579.1844 323.77814L580.6375 323.95Q580.29376 325.23126 579.35626 325.9344Q578.4344 326.6375 576.9969 326.6375Q575.16876 326.6375 574.10626 325.5125Q573.04376 324.3875 573.04376 322.3719Q573.04376 320.27814 574.1219 319.1219Q575.2 317.96564 576.91876 317.96564Q578.575 317.96564 579.6219 319.10626Q580.6844 320.23126 580.6844 322.27814Q580.6844 322.40314 580.6844 322.65314L574.4969 322.65314Q574.575 324.02814 575.2625 324.7625Q575.96564 325.48126 576.9969 325.48126Q577.77814 325.48126 578.325 325.075Q578.8719 324.66876 579.1844 323.77814ZM574.575 321.4969L579.2 321.4969Q579.10626 320.45 578.66876 319.9344Q577.9969 319.1219 576.9344 319.1219Q575.96564 319.1219 575.29376 319.77814Q574.6375 320.41876 574.575 321.4969Z" fill-rule="nonzero"/><path fill="#9e9e9e" d="M542.41876 348.45L541.0125 348.45L541.0125 339.48126Q540.4969 339.96564 539.66876 340.45Q538.85626 340.9344 538.2 341.1844L538.2 339.825Q539.3719 339.2625 540.2469 338.48126Q541.1375 337.6844 541.5125 336.95L542.41876 336.95L542.41876 348.45ZM551.41876 348.45L550.0125 348.45L550.0125 339.48126Q549.4969 339.96564 548.66876 340.45Q547.85626 340.9344 547.2 341.1844L547.2 339.825Q548.3719 339.2625 549.2469 338.48126Q550.1375 337.6844 550.5125 336.95L551.41876 336.95L551.41876 348.45ZM555.90314 348.45L555.90314 346.84064L557.5125 346.84064L557.5125 348.45L555.90314 348.45ZM564.41876 348.45L563.0125 348.45L563.0125 339.48126Q562.4969 339.96564 561.66876 340.45Q560.85626 340.9344 560.2 341.1844L560.2 339.825Q561.3719 339.2625 562.2469 338.48126Q563.1375 337.6844 563.5125 336.95L564.41876 336.95L564.41876 348.45ZM568.3875 339.7469Q568.3875 338.5125 568.9969 337.65314Q569.6219 336.79376 570.79376 336.79376Q571.8719 336.79376 572.575 337.575Q573.27814 338.34064 573.27814 339.825Q573.27814 341.27814 572.5594 342.075Q571.85626 342.85626 570.8094 342.85626Q569.7625 342.85626 569.075 342.09064Q568.3875 341.3094 568.3875 339.7469ZM570.825 337.7625Q570.3094 337.7625 569.95 338.21564Q569.60626 338.66876 569.60626 339.8875Q569.60626 340.98126 569.95 341.4344Q570.3094 341.8875 570.825 341.8875Q571.35626 341.8875 571.7 341.4344Q572.0594 340.98126 572.0594 339.77814Q572.0594 338.66876 571.7 338.21564Q571.35626 337.7625 570.825 337.7625ZM570.84064 348.8719L577.10626 336.79376L578.2469 336.79376L571.9969 348.8719L570.84064 348.8719ZM575.79376 345.7625Q575.79376 344.52814 576.40314 343.66876Q577.02814 342.8094 578.2 342.8094Q579.27814 342.8094 579.98126 343.59064Q580.7 344.35626 580.7 345.84064Q580.7 347.29376 579.98126 348.09064Q579.2625 348.8719 578.21564 348.8719Q577.16876 348.8719 576.48126 348.09064Q575.79376 347.3094 575.79376 345.7625ZM578.2469 343.77814Q577.71564 343.77814 577.35626 344.23126Q577.0125 344.6844 577.0125 345.90314Q577.0125 346.9969 577.35626 347.45Q577.71564 347.90314 578.23126 347.90314Q578.77814 347.90314 579.1219 347.45Q579.46564 346.9969 579.46564 345.79376Q579.46564 344.6844 579.10626 344.23126Q578.7625 343.77814 578.2469 343.77814Z" fill-rule="nonzero"/><path stroke="#757575" stroke-width="1.0" stroke-linecap="butt" d="M581.45 331.95L454.76666 331.95L300.0 345.01166" fill-rule="nonzero"/><path fill="#9e9e9e" d="M302.0 345.01166C302.0 343.9071 301.10458 343.01166 300.0 343.01166C298.89542 343.01166 298.0 343.9071 298.0 345.01166C298.0 346.11624 298.89542 347.01166 300.0 347.01166C301.10458 347.01166 302.0 346.11624 302.0 345.01166" fill-rule="nonzero"/><path fill="#f3f3f3" d="M265.98438 37.55L265.98438 23.2375L268.84375 23.2375L272.21875 33.3625Q272.6875 34.784374 272.90625 35.4875Q273.15625 34.70625 273.67188 33.190624L277.09375 23.2375L279.64062 23.2375L279.64062 37.55L277.82812 37.55L277.82812 25.565624L273.65625 37.55L271.95312 37.55L267.8125 25.3625L267.8125 37.55L265.98438 37.55ZM289.92188 34.20625L291.73438 34.440624Q291.3125 36.01875 290.14062 36.909374Q288.98438 37.784374 287.17188 37.784374Q284.90625 37.784374 283.5625 36.39375Q282.23438 34.9875 282.23438 32.45625Q282.23438 29.83125 283.57812 28.39375Q284.92188 26.940624 287.07812 26.940624Q289.15625 26.940624 290.46875 28.3625Q291.79688 29.76875 291.79688 32.346874Q291.79688 32.503124 291.78125 32.815624L284.04688 32.815624Q284.14062 34.51875 285.01562 35.425Q285.89062 36.33125 287.1875 36.33125Q288.15625 36.33125 288.82812 35.83125Q289.51562 35.315624 289.92188 34.20625ZM284.14062 31.3625L289.9375 31.3625Q289.82812 30.065624 289.28125 29.409374Q288.4375 28.39375 287.09375 28.39375Q285.89062 28.39375 285.0625 29.20625Q284.23438 30.003124 284.14062 31.3625ZM300.54688 37.55L300.54688 36.2375Q299.5625 37.784374 297.64062 37.784374Q296.40625 37.784374 295.35938 37.096874Q294.32812 36.409374 293.75 35.190624Q293.1875 33.971874 293.1875 32.378124Q293.1875 30.815624 293.70312 29.55Q294.21875 28.284374 295.25 27.6125Q296.29688 26.940624 297.5625 26.940624Q298.5 26.940624 299.23438 27.346874Q299.96875 27.7375 300.4375 28.3625L300.4375 23.2375L302.17188 23.2375L302.17188 37.55L300.54688 37.55ZM294.98438 32.378124Q294.98438 34.3625 295.82812 35.346874Q296.67188 36.33125 297.8125 36.33125Q298.96875 36.33125 299.76562 35.39375Q300.57812 34.45625 300.57812 32.51875Q300.57812 30.39375 299.75 29.39375Q298.9375 28.39375 297.73438 28.39375Q296.5625 28.39375 295.76562 29.3625Q294.98438 30.315624 294.98438 32.378124ZM304.82812 25.253124L304.82812 23.2375L306.59375 23.2375L306.59375 25.253124L304.82812 25.253124ZM304.82812 37.55L304.82812 27.175L306.59375 27.175L306.59375 37.55L304.82812 37.55ZM315.60938 37.55L315.60938 36.01875Q314.40625 37.784374 312.32812 37.784374Q311.40625 37.784374 310.60938 37.440624Q309.8125 37.08125 309.42188 36.55Q309.04688 36.01875 308.89062 35.2375Q308.78125 34.721874 308.78125 33.596874L308.78125 27.175L310.53125 27.175L310.53125 32.925Q310.53125 34.3 310.64062 34.784374Q310.8125 35.471874 311.34375 35.878124Q311.89062 36.26875 312.67188 36.26875Q313.46875 36.26875 314.15625 35.8625Q314.85938 35.45625 315.14062 34.76875Q315.4375 34.065624 315.4375 32.7375L315.4375 27.175L317.1875 27.175L317.1875 37.55L315.60938 37.55ZM319.8125 37.55L319.8125 27.175L321.39062 27.175L321.39062 28.628124Q321.875 27.878124 322.6875 27.409374Q323.5 26.940624 324.53125 26.940624Q325.6875 26.940624 326.42188 27.425Q327.15625 27.89375 327.46875 28.753124Q328.70312 26.940624 330.67188 26.940624Q332.21875 26.940624 333.04688 27.8Q333.875 28.659374 333.875 30.425L333.875 37.55L332.125 37.55L332.125 31.01875Q332.125 29.95625 331.95312 29.503124Q331.78125 29.034374 331.32812 28.753124Q330.89062 28.471874 330.28125 28.471874Q329.1875 28.471874 328.45312 29.20625Q327.73438 29.925 327.73438 31.51875L327.73438 37.55L325.98438 37.55L325.98438 30.815624Q325.98438 29.64375 325.54688 29.065624Q325.125 28.471874 324.14062 28.471874Q323.40625 28.471874 322.76562 28.8625Q322.14062 29.253124 321.85938 30.003124Q321.57812 30.753124 321.57812 32.175L321.57812 37.55L319.8125 37.55Z" fill-rule="nonzero"/></svg>