<svg version="1.1" viewBox="0.0 0.0 600.0 371.0" fill="none" stroke="none" stroke-linecap="square" stroke-miterlimit="10" width="600" height="371" xmlns:xlink="http://www.w3.org/1999/xlink" xmlns="http://www.w3.org/2000/svg"><path fill="#ffffff" fill-opacity="0.0" d="M0 0L600.0 0L600.0 371.0L0 371.0L0 0Z" fill-rule="nonzero"/><path fill="#f5ee58" d="M300.0 54.916668C328.51923 54.916668 356.43744 63.114193 380.42932 78.53285L340.21466 141.1081C328.21872 133.39876 314.2596 129.3 300.0 129.3Z" fill-rule="nonzero"/><path fill="#b3ca48" d="M380.42932 78.53285C404.42123 93.95151 423.47562 115.94143 435.3229 141.88342L367.66147 172.78339C361.7378 159.81238 352.2106 148.81741 340.21466 141.1081Z" fill-rule="nonzero"/><path fill="#313d89" d="M435.3229 141.88342C447.17023 167.82542 451.31116 196.6261 447.25244 224.85504L373.62622 214.26918C375.65558 200.15471 373.5851 185.75438 367.66147 172.78339Z" fill-rule="nonzero"/><path fill="#4571b0" d="M447.25244 224.85504C443.19373 253.08397 431.10648 279.5514 412.43036 301.10477L356.21518 252.39406C365.55322 241.61736 371.59686 228.38365 373.62622 214.26918Z" fill-rule="nonzero"/><path fill="#78a94e" d="M412.43036 301.10477C367.47314 352.98813 292.85107 367.37036 231.83116 335.9124C170.81126 304.45447 139.24162 235.32661 155.42683 168.61026C171.61205 101.89391 231.34848 54.916668 300.0 54.916668L300.0 129.3C265.67422 129.3 235.80602 152.78862 227.71341 186.1468C219.6208 219.50497 235.40562 254.06891 265.9156 269.79788C296.42554 285.52686 333.73657 278.33572 356.21518 252.39406Z" fill-rule="nonzero"/><path fill="#ffffff" d="M312.04358 99.71815L313.5592 99.57752Q313.76233 100.65565 314.29358 101.14002Q314.84045 101.6244 315.69983 101.6244Q316.4342 101.6244 316.98108 101.29627Q317.52795 100.95252 317.8717 100.40565Q318.23108 99.84315 318.46545 98.89002Q318.69983 97.9369 318.69983 96.95252Q318.69983 96.84315 318.69983 96.64002Q318.21545 97.39002 317.38733 97.85877Q316.57483 98.32752 315.6217 98.32752Q314.02795 98.32752 312.91858 97.17127Q311.8092 96.01502 311.8092 94.10877Q311.8092 92.15565 312.96545 90.96815Q314.1217 89.76502 315.85608 89.76502Q317.1217 89.76502 318.15295 90.45252Q319.19983 91.1244 319.73108 92.3744Q320.27795 93.6244 320.27795 95.9994Q320.27795 98.46815 319.73108 99.9369Q319.19983 101.39002 318.13733 102.15565Q317.09045 102.92127 315.66858 102.92127Q314.15295 102.92127 313.1842 102.09315Q312.23108 101.2494 312.04358 99.71815ZM318.52795 94.03065Q318.52795 92.67127 317.79358 91.8744Q317.07483 91.07752 316.0592 91.07752Q314.9967 91.07752 314.21545 91.9369Q313.4342 92.79627 313.4342 94.17127Q313.4342 95.40565 314.16858 96.17127Q314.91858 96.9369 316.01233 96.9369Q317.10608 96.9369 317.8092 96.17127Q318.52795 95.40565 318.52795 94.03065ZM322.69983 102.70252L322.69983 100.90565L324.4967 100.90565L324.4967 102.70252L322.69983 102.70252ZM332.76233 102.70252L331.1842 102.70252L331.1842 92.6244Q330.60608 93.17127 329.6842 93.71815Q328.76233 94.2494 328.01233 94.53065L328.01233 92.9994Q329.34045 92.3744 330.34045 91.48377Q331.34045 90.59315 331.7467 89.76502L332.76233 89.76502L332.76233 102.70252ZM337.10608 92.90565Q337.10608 91.53065 337.79358 90.5619Q338.4967 89.59315 339.8092 89.59315Q341.02795 89.59315 341.82483 90.46815Q342.6217 91.32752 342.6217 93.01502Q342.6217 94.64002 341.8092 95.53065Q341.01233 96.40565 339.82483 96.40565Q338.66858 96.40565 337.88733 95.54627Q337.10608 94.67127 337.10608 92.90565ZM339.85608 90.6869Q339.26233 90.6869 338.8717 91.20252Q338.48108 91.70252 338.48108 93.0619Q338.48108 94.3119 338.8717 94.8119Q339.27795 95.3119 339.85608 95.3119Q340.44983 95.3119 340.84045 94.8119Q341.23108 94.29627 341.23108 92.95252Q341.23108 91.70252 340.84045 91.20252Q340.44983 90.6869 339.85608 90.6869ZM339.8717 103.17127L346.91858 89.59315L348.19983 89.59315L341.16858 103.17127L339.8717 103.17127ZM345.4342 99.67127Q345.4342 98.29627 346.1217 97.32752Q346.82483 96.35877 348.15295 96.35877Q349.3717 96.35877 350.15295 97.23377Q350.94983 98.09315 350.94983 99.78065Q350.94983 101.40565 350.15295 102.29627Q349.35608 103.17127 348.16858 103.17127Q346.9967 103.17127 346.21545 102.29627Q345.4342 101.42127 345.4342 99.67127ZM348.19983 97.45252Q347.60608 97.45252 347.21545 97.96815Q346.82483 98.46815 346.82483 99.84315Q346.82483 101.0619 347.21545 101.57752Q347.60608 102.09315 348.1842 102.09315Q348.79358 102.09315 349.1842 101.57752Q349.57483 101.0619 349.57483 99.71815Q349.57483 98.46815 349.1842 97.96815Q348.79358 97.45252 348.19983 97.45252Z" fill-rule="nonzero"/><path fill="#ffffff" d="M364.80713 134.13287L366.32275 133.99225Q366.52588 135.07037 367.05713 135.55475Q367.604 136.03912 368.46338 136.03912Q369.19775 136.03912 369.74463 135.711Q370.2915 135.36725 370.63525 134.82037Q370.99463 134.25787 371.229 133.30475Q371.46338 132.35162 371.46338 131.36725Q371.46338 131.25787 371.46338 131.05475Q370.979 131.80475 370.15088 132.2735Q369.33838 132.74225 368.38525 132.74225Q366.7915 132.74225 365.68213 131.586Q364.57275 130.42975 364.57275 128.5235Q364.57275 126.57037 365.729 125.38287Q366.88525 124.17975 368.61963 124.17975Q369.88525 124.17975 370.9165 124.86725Q371.96338 125.53912 372.49463 126.78912Q373.0415 128.03912 373.0415 130.41412Q373.0415 132.88287 372.49463 134.35162Q371.96338 135.80475 370.90088 136.57037Q369.854 137.336 368.43213 137.336Q366.9165 137.336 365.94775 136.50787Q364.99463 135.66412 364.80713 134.13287ZM371.2915 128.44537Q371.2915 127.086 370.55713 126.28912Q369.83838 125.49225 368.82275 125.49225Q367.76025 125.49225 366.979 126.35162Q366.19775 127.211 366.19775 128.586Q366.19775 129.82037 366.93213 130.586Q367.68213 131.35162 368.77588 131.35162Q369.86963 131.35162 370.57275 130.586Q371.2915 129.82037 371.2915 128.44537ZM375.46338 137.11725L375.46338 135.32037L377.26025 135.32037L377.26025 137.11725L375.46338 137.11725ZM385.52588 137.11725L383.94775 137.11725L383.94775 127.03912Q383.36963 127.586 382.44775 128.13287Q381.52588 128.66412 380.77588 128.94537L380.77588 127.41412Q382.104 126.78912 383.104 125.8985Q384.104 125.00787 384.51025 124.17975L385.52588 124.17975L385.52588 137.11725ZM389.86963 127.32037Q389.86963 125.94537 390.55713 124.97662Q391.26025 124.00787 392.57275 124.00787Q393.7915 124.00787 394.58838 124.88287Q395.38525 125.74225 395.38525 127.42975Q395.38525 129.05475 394.57275 129.94537Q393.77588 130.82037 392.58838 130.82037Q391.43213 130.82037 390.65088 129.961Q389.86963 129.086 389.86963 127.32037ZM392.61963 125.10162Q392.02588 125.10162 391.63525 125.61725Q391.24463 126.11725 391.24463 127.47662Q391.24463 128.72662 391.63525 129.22662Q392.0415 129.72662 392.61963 129.72662Q393.21338 129.72662 393.604 129.22662Q393.99463 128.711 393.99463 127.36725Q393.99463 126.11725 393.604 125.61725Q393.21338 125.10162 392.61963 125.10162ZM392.63525 137.586L399.68213 124.00787L400.96338 124.00787L393.93213 137.586L392.63525 137.586ZM398.19775 134.086Q398.19775 132.711 398.88525 131.74225Q399.58838 130.7735 400.9165 130.7735Q402.13525 130.7735 402.9165 131.6485Q403.71338 132.50787 403.71338 134.19537Q403.71338 135.82037 402.9165 136.711Q402.11963 137.586 400.93213 137.586Q399.76025 137.586 398.979 136.711Q398.19775 135.836 398.19775 134.086ZM400.96338 131.86725Q400.36963 131.86725 399.979 132.38287Q399.58838 132.88287 399.58838 134.25787Q399.58838 135.47662 399.979 135.99225Q400.36963 136.50787 400.94775 136.50787Q401.55713 136.50787 401.94775 135.99225Q402.33838 135.47662 402.33838 134.13287Q402.33838 132.88287 401.94775 132.38287Q401.55713 131.86725 400.96338 131.86725Z" fill-rule="nonzero"/><path fill="#ffffff" d="M390.9237 191.32018L392.43933 191.17955Q392.64246 192.25768 393.1737 192.74205Q393.72058 193.22643 394.57996 193.22643Q395.31433 193.22643 395.8612 192.8983Q396.40808 192.55455 396.75183 192.00768Q397.1112 191.44518 397.34558 190.49205Q397.57996 189.53893 397.57996 188.55455Q397.57996 188.44518 397.57996 188.24205Q397.09558 188.99205 396.26746 189.4608Q395.45496 189.92955 394.50183 189.92955Q392.90808 189.92955 391.7987 188.7733Q390.68933 187.61705 390.68933 185.7108Q390.68933 183.75768 391.84558 182.57018Q393.00183 181.36705 394.7362 181.36705Q396.00183 181.36705 397.03308 182.05455Q398.07996 182.72643 398.6112 183.97643Q399.15808 185.22643 399.15808 187.60143Q399.15808 190.07018 398.6112 191.53893Q398.07996 192.99205 397.01746 193.75768Q395.97058 194.5233 394.5487 194.5233Q393.03308 194.5233 392.06433 193.69518Q391.1112 192.85143 390.9237 191.32018ZM397.40808 185.63268Q397.40808 184.2733 396.6737 183.47643Q395.95496 182.67955 394.93933 182.67955Q393.87683 182.67955 393.09558 183.53893Q392.31433 184.3983 392.31433 185.7733Q392.31433 187.00768 393.0487 187.7733Q393.7987 188.53893 394.89246 188.53893Q395.9862 188.53893 396.68933 187.7733Q397.40808 187.00768 397.40808 185.63268ZM401.57996 194.30455L401.57996 192.50768L403.37683 192.50768L403.37683 194.30455L401.57996 194.30455ZM411.64246 194.30455L410.06433 194.30455L410.06433 184.22643Q409.4862 184.7733 408.56433 185.32018Q407.64246 185.85143 406.89246 186.13268L406.89246 184.60143Q408.22058 183.97643 409.22058 183.0858Q410.22058 182.19518 410.62683 181.36705L411.64246 181.36705L411.64246 194.30455ZM415.9862 184.50768Q415.9862 183.13268 416.6737 182.16393Q417.37683 181.19518 418.68933 181.19518Q419.90808 181.19518 420.70496 182.07018Q421.50183 182.92955 421.50183 184.61705Q421.50183 186.24205 420.68933 187.13268Q419.89246 188.00768 418.70496 188.00768Q417.5487 188.00768 416.76746 187.1483Q415.9862 186.2733 415.9862 184.50768ZM418.7362 182.28893Q418.14246 182.28893 417.75183 182.80455Q417.3612 183.30455 417.3612 184.66393Q417.3612 185.91393 417.75183 186.41393Q418.15808 186.91393 418.7362 186.91393Q419.32996 186.91393 419.72058 186.41393Q420.1112 185.8983 420.1112 184.55455Q420.1112 183.30455 419.72058 182.80455Q419.32996 182.28893 418.7362 182.28893ZM418.75183 194.7733L425.7987 181.19518L427.07996 181.19518L420.0487 194.7733L418.75183 194.7733ZM424.31433 191.2733Q424.31433 189.8983 425.00183 188.92955Q425.70496 187.9608 427.03308 187.9608Q428.25183 187.9608 429.03308 188.8358Q429.82996 189.69518 429.82996 191.38268Q429.82996 193.00768 429.03308 193.8983Q428.2362 194.7733 427.0487 194.7733Q425.87683 194.7733 425.09558 193.8983Q424.31433 193.0233 424.31433 191.2733ZM427.07996 189.05455Q426.4862 189.05455 426.09558 189.57018Q425.70496 190.07018 425.70496 191.44518Q425.70496 192.66393 426.09558 193.17955Q426.4862 193.69518 427.06433 193.69518Q427.6737 193.69518 428.06433 193.17955Q428.45496 192.66393 428.45496 191.32018Q428.45496 190.07018 428.06433 189.57018Q427.6737 189.05455 427.07996 189.05455Z" fill-rule="nonzero"/><path fill="#ffffff" d="M381.97656 253.54889L383.4922 253.40826Q383.6953 254.48639 384.22656 254.97076Q384.77344 255.45514 385.6328 255.45514Q386.3672 255.45514 386.91406 255.12701Q387.46094 254.78326 387.8047 254.23639Q388.16406 253.67389 388.39844 252.72076Q388.6328 251.76764 388.6328 250.78326Q388.6328 250.67389 388.6328 250.47076Q388.14844 251.22076 387.3203 251.68951Q386.5078 252.15826 385.5547 252.15826Q383.96094 252.15826 382.85156 251.00201Q381.7422 249.84576 381.7422 247.93951Q381.7422 245.98639 382.89844 244.79889Q384.0547 243.59576 385.78906 243.59576Q387.0547 243.59576 388.08594 244.28326Q389.1328 244.95514 389.66406 246.20514Q390.21094 247.45514 390.21094 249.83014Q390.21094 252.29889 389.66406 253.76764Q389.1328 255.22076 388.0703 255.98639Q387.02344 256.752 385.60156 256.752Q384.08594 256.752 383.1172 255.92389Q382.16406 255.08014 381.97656 253.54889ZM388.46094 247.86139Q388.46094 246.50201 387.72656 245.70514Q387.0078 244.90826 385.9922 244.90826Q384.9297 244.90826 384.14844 245.76764Q383.3672 246.62701 383.3672 248.00201Q383.3672 249.23639 384.10156 250.00201Q384.85156 250.76764 385.9453 250.76764Q387.03906 250.76764 387.7422 250.00201Q388.46094 249.23639 388.46094 247.86139ZM392.6328 256.53326L392.6328 254.73639L394.4297 254.73639L394.4297 256.53326L392.6328 256.53326ZM402.6953 256.53326L401.1172 256.53326L401.1172 246.45514Q400.53906 247.00201 399.6172 247.54889Q398.6953 248.08014 397.9453 248.36139L397.9453 246.83014Q399.27344 246.20514 400.27344 245.31451Q401.27344 244.42389 401.6797 243.59576L402.6953 243.59576L402.6953 256.53326ZM407.03906 246.73639Q407.03906 245.36139 407.72656 244.39264Q408.4297 243.42389 409.7422 243.42389Q410.96094 243.42389 411.7578 244.29889Q412.5547 245.15826 412.5547 246.84576Q412.5547 248.47076 411.7422 249.36139Q410.9453 250.23639 409.7578 250.23639Q408.60156 250.23639 407.8203 249.37701Q407.03906 248.50201 407.03906 246.73639ZM409.78906 244.51764Q409.1953 244.51764 408.8047 245.03326Q408.41406 245.53326 408.41406 246.89264Q408.41406 248.14264 408.8047 248.64264Q409.21094 249.14264 409.78906 249.14264Q410.3828 249.14264 410.77344 248.64264Q411.16406 248.12701 411.16406 246.78326Q411.16406 245.53326 410.77344 245.03326Q410.3828 244.51764 409.78906 244.51764ZM409.8047 257.002L416.85156 243.42389L418.1328 243.42389L411.10156 257.002L409.8047 257.002ZM415.3672 253.50201Q415.3672 252.12701 416.0547 251.15826Q416.7578 250.18951 418.08594 250.18951Q419.3047 250.18951 420.08594 251.06451Q420.8828 251.92389 420.8828 253.61139Q420.8828 255.23639 420.08594 256.127Q419.28906 257.002 418.10156 257.002Q416.9297 257.002 416.14844 256.127Q415.3672 255.25201 415.3672 253.50201ZM418.1328 251.28326Q417.53906 251.28326 417.14844 251.79889Q416.7578 252.29889 416.7578 253.67389Q416.7578 254.89264 417.14844 255.40826Q417.53906 255.92389 418.1172 255.92389Q418.72656 255.92389 419.1172 255.40826Q419.5078 254.89264 419.5078 253.54889Q419.5078 252.29889 419.1172 251.79889Q418.72656 251.28326 418.1328 251.28326Z" fill-rule="nonzero"/><path fill="#ffffff" d="M181.96094 246.79889L180.39844 246.92389Q180.17969 246.00201 179.78906 245.58014Q179.14844 244.89264 178.21094 244.89264Q177.46094 244.89264 176.88281 245.31451Q176.13281 245.86139 175.69531 246.90826Q175.27344 247.95514 175.25781 249.89264Q175.83594 249.01764 176.64844 248.59576Q177.47656 248.17389 178.38281 248.17389Q179.97656 248.17389 181.08594 249.34576Q182.19531 250.50201 182.19531 252.34576Q182.19531 253.56451 181.66406 254.61139Q181.14844 255.64264 180.22656 256.20514Q179.32031 256.752 178.16406 256.752Q176.17969 256.752 174.92969 255.29889Q173.67969 253.84576 173.67969 250.50201Q173.67969 246.76764 175.07031 245.06451Q176.27344 243.59576 178.30469 243.59576Q179.83594 243.59576 180.80469 244.45514Q181.77344 245.29889 181.96094 246.79889ZM175.50781 252.36139Q175.50781 253.17389 175.85156 253.92389Q176.19531 254.67389 176.82031 255.06451Q177.44531 255.45514 178.13281 255.45514Q179.13281 255.45514 179.85156 254.64264Q180.57031 253.83014 180.57031 252.43951Q180.57031 251.11139 179.85156 250.34576Q179.14844 249.56451 178.07031 249.56451Q176.99219 249.56451 176.24219 250.34576Q175.50781 251.11139 175.50781 252.36139ZM183.75781 253.12701L185.35156 252.92389Q185.61719 254.26764 186.27344 254.86139Q186.92969 255.45514 187.86719 255.45514Q188.99219 255.45514 189.75781 254.68951Q190.52344 253.90826 190.52344 252.76764Q190.52344 251.67389 189.80469 250.97076Q189.10156 250.25201 188.00781 250.25201Q187.55469 250.25201 186.88281 250.43951L187.05469 249.04889Q187.21094 249.06451 187.32031 249.06451Q188.32031 249.06451 189.13281 248.53326Q189.94531 248.00201 189.94531 246.90826Q189.94531 246.03326 189.35156 245.47076Q188.75781 244.89264 187.83594 244.89264Q186.91406 244.89264 186.28906 245.47076Q185.67969 246.04889 185.50781 247.22076L183.92969 246.93951Q184.21094 245.34576 185.24219 244.47076Q186.27344 243.59576 187.80469 243.59576Q188.85156 243.59576 189.74219 244.04889Q190.63281 244.50201 191.10156 245.28326Q191.57031 246.06451 191.57031 246.93951Q191.57031 247.78326 191.11719 248.47076Q190.67969 249.14264 189.78906 249.54889Q190.92969 249.81451 191.55469 250.65826Q192.19531 251.48639 192.19531 252.72076Q192.19531 254.40826 190.96094 255.59576Q189.74219 256.76764 187.86719 256.76764Q186.16406 256.76764 185.03906 255.75201Q183.92969 254.73639 183.75781 253.12701ZM194.64844 256.53326L194.64844 254.73639L196.44531 254.73639L196.44531 256.53326L194.64844 256.53326ZM206.96094 246.79889L205.39844 246.92389Q205.17969 246.00201 204.78906 245.58014Q204.14844 244.89264 203.21094 244.89264Q202.46094 244.89264 201.88281 245.31451Q201.13281 245.86139 200.69531 246.90826Q200.27344 247.95514 200.25781 249.89264Q200.83594 249.01764 201.64844 248.59576Q202.47656 248.17389 203.38281 248.17389Q204.97656 248.17389 206.08594 249.34576Q207.19531 250.50201 207.19531 252.34576Q207.19531 253.56451 206.66406 254.61139Q206.14844 255.64264 205.22656 256.20514Q204.32031 256.752 203.16406 256.752Q201.17969 256.752 199.92969 255.29889Q198.67969 253.84576 198.67969 250.50201Q198.67969 246.76764 200.07031 245.06451Q201.27344 243.59576 203.30469 243.59576Q204.83594 243.59576 205.80469 244.45514Q206.77344 245.29889 206.96094 246.79889ZM200.50781 252.36139Q200.50781 253.17389 200.85156 253.92389Q201.19531 254.67389 201.82031 255.06451Q202.44531 255.45514 203.13281 255.45514Q204.13281 255.45514 204.85156 254.64264Q205.57031 253.83014 205.57031 252.43951Q205.57031 251.11139 204.85156 250.34576Q204.14844 249.56451 203.07031 249.56451Q201.99219 249.56451 201.24219 250.34576Q200.50781 251.11139 200.50781 252.36139ZM209.05469 246.73639Q209.05469 245.36139 209.74219 244.39264Q210.44531 243.42389 211.75781 243.42389Q212.97656 243.42389 213.77344 244.29889Q214.57031 245.15826 214.57031 246.84576Q214.57031 248.47076 213.75781 249.36139Q212.96094 250.23639 211.77344 250.23639Q210.61719 250.23639 209.83594 249.37701Q209.05469 248.50201 209.05469 246.73639ZM211.80469 244.51764Q211.21094 244.51764 210.82031 245.03326Q210.42969 245.53326 210.42969 246.89264Q210.42969 248.14264 210.82031 248.64264Q211.22656 249.14264 211.80469 249.14264Q212.39844 249.14264 212.78906 248.64264Q213.17969 248.12701 213.17969 246.78326Q213.17969 245.53326 212.78906 245.03326Q212.39844 244.51764 211.80469 244.51764ZM211.82031 257.002L218.86719 243.42389L220.14844 243.42389L213.11719 257.002L211.82031 257.002ZM217.38281 253.50201Q217.38281 252.12701 218.07031 251.15826Q218.77344 250.18951 220.10156 250.18951Q221.32031 250.18951 222.10156 251.06451Q222.89844 251.92389 222.89844 253.61139Q222.89844 255.23639 222.10156 256.127Q221.30469 257.002 220.11719 257.002Q218.94531 257.002 218.16406 256.127Q217.38281 255.25201 217.38281 253.50201ZM220.14844 251.28326Q219.55469 251.28326 219.16406 251.79889Q218.77344 252.29889 218.77344 253.67389Q218.77344 254.89264 219.16406 255.40826Q219.55469 255.92389 220.13281 255.92389Q220.74219 255.92389 221.13281 255.40826Q221.52344 254.89264 221.52344 253.54889Q221.52344 252.29889 221.13281 251.79889Q220.74219 251.28326 220.14844 251.28326Z" fill-rule="nonzero"/><path stroke="#ffffff" stroke-width="1.0" stroke-linejoin="round" stroke-linecap="round" d="M340.21466 141.1081C328.21872 133.39876 314.2596 129.3 300.0 129.3L300.0 54.916668C328.51923 54.916668 356.43744 63.114193 380.42932 78.53285" fill-rule="nonzero"/><path stroke="#ffffff" stroke-width="1.0" stroke-linejoin="round" stroke-linecap="round" d="M367.66147 172.78339C361.7378 159.81238 352.2106 148.81741 340.21466 141.1081L380.42932 78.53285C404.42123 93.95151 423.47562 115.94143 435.3229 141.88342" fill-rule="nonzero"/><path stroke="#ffffff" stroke-width="1.0" stroke-linejoin="round" stroke-linecap="round" d="M373.62622 214.26918C375.65558 200.15471 373.5851 185.75438 367.66147 172.78339L435.3229 141.88342C447.17023 167.82542 451.31116 196.6261 447.25244 224.85504" fill-rule="nonzero"/><path stroke="#ffffff" stroke-width="1.0" stroke-linejoin="round" stroke-linecap="round" d="M356.21518 252.39406C365.55322 241.61736 371.59686 228.38365 373.62622 214.26918L447.25244 224.85504C443.19373 253.08397 431.10648 279.5514 412.43036 301.10477" fill-rule="nonzero"/><path stroke="#ffffff" stroke-width="1.0" stroke-linejoin="round" stroke-linecap="round" d="M300.0 129.3C265.67422 129.3 235.80602 152.78862 227.71341 186.1468C219.6208 219.50497 235.40562 254.06891 265.9156 269.79788C296.42554 285.52686 333.73657 278.33572 356.21518 252.39406L412.43036 301.10477C367.47314 352.98813 292.85107 367.37036 231.83116 335.9124C170.81126 304.45447 139.24162 235.32661 155.42683 168.61026C171.61205 101.89391 231.34848 54.916668 300.0 54.916668" fill-rule="nonzero"/><path fill="#efefef" d="M18.51875 256.89325L22.925 245.44012L24.565624 245.44012L29.253124 256.89325L27.51875 256.89325L26.190624 253.4245L21.39375 253.4245L20.14375 256.89325L18.51875 256.89325ZM21.83125 252.19012L25.721874 252.19012L24.51875 249.01825Q23.971874 247.56512 23.70625 246.64325Q23.4875 247.737 23.096874 248.83075L21.83125 252.19012ZM30.596874 256.89325L30.596874 248.59637L31.8625 248.59637L31.8625 249.84637Q32.346874 248.97137 32.753124 248.69012Q33.159374 248.40887 33.659374 248.40887Q34.3625 248.40887 35.096874 248.862L34.6125 250.15887Q34.096874 249.862 33.58125 249.862Q33.128124 249.862 32.753124 250.14325Q32.39375 250.40887 32.2375 250.90887Q32.003124 251.65887 32.003124 252.5495L32.003124 256.89325L30.596874 256.89325ZM41.01875 253.84637L42.409374 254.03387Q42.175 255.45575 41.2375 256.26825Q40.315624 257.08075 38.95625 257.08075Q37.253124 257.08075 36.20625 255.97137Q35.175 254.84637 35.175 252.76825Q35.175 251.4245 35.6125 250.4245Q36.065624 249.40887 36.971874 248.90887Q37.89375 248.40887 38.95625 248.40887Q40.315624 248.40887 41.175 249.09637Q42.034374 249.76825 42.26875 251.03387L40.909374 251.237Q40.70625 250.40887 40.20625 249.987Q39.721874 249.56512 39.01875 249.56512Q37.95625 249.56512 37.284374 250.33075Q36.628124 251.08075 36.628124 252.737Q36.628124 254.40887 37.26875 255.1745Q37.909374 255.9245 38.940624 255.9245Q39.76875 255.9245 40.315624 255.4245Q40.878124 254.90887 41.01875 253.84637ZM43.6125 256.89325L43.6125 245.44012L45.01875 245.44012L45.01875 249.5495Q46.003124 248.40887 47.503124 248.40887Q48.425 248.40887 49.096874 248.76825Q49.784374 249.12762 50.065624 249.76825Q50.3625 250.40887 50.3625 251.62762L50.3625 256.89325L48.95625 256.89325L48.95625 251.62762Q48.95625 250.58075 48.503124 250.09637Q48.05 249.612 47.20625 249.612Q46.58125 249.612 46.034374 249.94012Q45.4875 250.26825 45.253124 250.83075Q45.01875 251.37762 45.01875 252.34637L45.01875 256.89325L43.6125 256.89325ZM52.6125 247.0495L52.6125 245.44012L54.01875 245.44012L54.01875 247.0495L52.6125 247.0495ZM52.6125 256.89325L52.6125 248.59637L54.01875 248.59637L54.01875 256.89325L52.6125 256.89325ZM59.675 255.62762L59.878124 256.87762Q59.284374 257.00262 58.815624 257.00262Q58.05 257.00262 57.628124 256.76825Q57.20625 256.51825 57.034374 256.12762Q56.8625 255.72137 56.8625 254.45575L56.8625 249.69012L55.83125 249.69012L55.83125 248.59637L56.8625 248.59637L56.8625 246.53387L58.26875 245.69012L58.26875 248.59637L59.675 248.59637L59.675 249.69012L58.26875 249.69012L58.26875 254.53387Q58.26875 255.14325 58.33125 255.31512Q58.409374 255.487 58.58125 255.59637Q58.753124 255.69012 59.065624 255.69012Q59.3 255.69012 59.675 255.62762ZM66.28438 254.22137L67.7375 254.39325Q67.39375 255.6745 66.45625 256.37762Q65.53438 257.08075 64.09688 257.08075Q62.26875 257.08075 61.20625 255.95575Q60.14375 254.83075 60.14375 252.81512Q60.14375 250.72137 61.221874 249.56512Q62.3 248.40887 64.01875 248.40887Q65.675 248.40887 66.72188 249.5495Q67.78438 250.6745 67.78438 252.72137Q67.78438 252.84637 67.78438 253.09637L61.596874 253.09637Q61.675 254.47137 62.3625 255.20575Q63.065624 255.9245 64.09688 255.9245Q64.87813 255.9245 65.425 255.51825Q65.97188 255.112 66.28438 254.22137ZM61.675 251.94012L66.3 251.94012Q66.20625 250.89325 65.76875 250.37762Q65.09688 249.56512 64.03438 249.56512Q63.065624 249.56512 62.39375 250.22137Q61.7375 250.862 61.675 251.94012ZM75.01875 253.84637L76.40938 254.03387Q76.175 255.45575 75.2375 256.26825Q74.31563 257.08075 72.95625 257.08075Q71.25313 257.08075 70.20625 255.97137Q69.175 254.84637 69.175 252.76825Q69.175 251.4245 69.6125 250.4245Q70.06563 249.40887 70.97188 248.90887Q71.89375 248.40887 72.95625 248.40887Q74.31563 248.40887 75.175 249.09637Q76.03438 249.76825 76.26875 251.03387L74.90938 251.237Q74.70625 250.40887 74.20625 249.987Q73.72188 249.56512 73.01875 249.56512Q71.95625 249.56512 71.28438 250.33075Q70.62813 251.08075 70.62813 252.737Q70.62813 254.40887 71.26875 255.1745Q71.90938 255.9245 72.94063 255.9245Q73.76875 255.9245 74.31563 255.4245Q74.87813 254.90887 75.01875 253.84637ZM80.675 255.62762L80.87813 256.87762Q80.28438 257.00262 79.81563 257.00262Q79.05 257.00262 78.62813 256.76825Q78.20625 256.51825 78.03438 256.12762Q77.8625 255.72137 77.8625 254.45575L77.8625 249.69012L76.83125 249.69012L76.83125 248.59637L77.8625 248.59637L77.8625 246.53387L79.26875 245.69012L79.26875 248.59637L80.675 248.59637L80.675 249.69012L79.26875 249.69012L79.26875 254.53387Q79.26875 255.14325 79.33125 255.31512Q79.40938 255.487 79.58125 255.59637Q79.75313 255.69012 80.06563 255.69012Q80.3 255.69012 80.675 255.62762ZM87.05 256.89325L87.05 255.6745Q86.08125 257.08075 84.40938 257.08075Q83.675 257.08075 83.03438 256.7995Q82.40938 256.51825 82.09688 256.09637Q81.78438 255.65887 81.65938 255.0495Q81.58125 254.62762 81.58125 253.737L81.58125 248.59637L82.9875 248.59637L82.9875 253.19012Q82.9875 254.2995 83.06563 254.6745Q83.20625 255.237 83.62813 255.5495Q84.06563 255.862 84.69063 255.862Q85.33125 255.862 85.87813 255.5495Q86.44063 255.22137 86.65938 254.65887Q86.89375 254.09637 86.89375 253.03387L86.89375 248.59637L88.3 248.59637L88.3 256.89325L87.05 256.89325ZM90.59688 256.89325L90.59688 248.59637L91.8625 248.59637L91.8625 249.84637Q92.34688 248.97137 92.75313 248.69012Q93.15938 248.40887 93.65938 248.40887Q94.3625 248.40887 95.09688 248.862L94.6125 250.15887Q94.09688 249.862 93.58125 249.862Q93.12813 249.862 92.75313 250.14325Q92.39375 250.40887 92.2375 250.90887Q92.00313 251.65887 92.00313 252.5495L92.00313 256.89325L90.59688 256.89325ZM101.28438 254.22137L102.7375 254.39325Q102.39375 255.6745 101.45625 256.37762Q100.53438 257.08075 99.09688 257.08075Q97.26875 257.08075 96.20625 255.95575Q95.14375 254.83075 95.14375 252.81512Q95.14375 250.72137 96.22188 249.56512Q97.3 248.40887 99.01875 248.40887Q100.675 248.40887 101.72188 249.5495Q102.78438 250.6745 102.78438 252.72137Q102.78438 252.84637 102.78438 253.09637L96.59688 253.09637Q96.675 254.47137 97.3625 255.20575Q98.06563 255.9245 99.09688 255.9245Q99.87813 255.9245 100.425 255.51825Q100.97188 255.112 101.28438 254.22137ZM96.675 251.94012L101.3 251.94012Q101.20625 250.89325 100.76875 250.37762Q100.09688 249.56512 99.03438 249.56512Q98.06563 249.56512 97.39375 250.22137Q96.7375 250.862 96.675 251.94012ZM115.15938 255.53387Q114.45625 256.31512 113.62813 256.70575Q112.81563 257.09637 111.8625 257.09637Q110.1125 257.09637 109.08125 255.89325Q108.2375 254.9245 108.2375 253.737Q108.2375 252.6745 108.925 251.81512Q109.6125 250.95575 110.97188 250.31512Q110.19063 249.4245 109.925 248.87762Q109.675 248.31512 109.675 247.7995Q109.675 246.76825 110.4875 246.00262Q111.3 245.237 112.51875 245.237Q113.69063 245.237 114.44063 245.95575Q115.19063 246.6745 115.19063 247.69012Q115.19063 249.31512 113.01875 250.47137L115.08125 253.09637Q115.425 252.40887 115.62813 251.50262L117.08125 251.81512Q116.70625 253.31512 116.06563 254.28387Q116.8625 255.33075 117.8625 256.03387L116.90938 257.15887Q116.06563 256.612 115.15938 255.53387ZM112.3 249.56512Q113.20625 249.03387 113.47188 248.62762Q113.75313 248.22137 113.75313 247.72137Q113.75313 247.14325 113.37813 246.76825Q113.00313 246.39325 112.45625 246.39325Q111.87813 246.39325 111.50313 246.76825Q111.12813 247.12762 111.12813 247.65887Q111.12813 247.9245 111.25313 248.22137Q111.39375 248.51825 111.675 248.84637L112.3 249.56512ZM114.26875 254.4245L111.69063 251.237Q110.55 251.90887 110.14375 252.50262Q109.75313 253.08075 109.75313 253.64325Q109.75313 254.34637 110.3 255.09637Q110.8625 255.84637 111.87813 255.84637Q112.51875 255.84637 113.19063 255.45575Q113.8625 255.0495 114.26875 254.4245Z" fill-rule="nonzero"/><path fill="#9e9e9e" d="M26.51875 270.237L25.1125 270.34637Q24.925 269.51825 24.58125 269.14325Q24.01875 268.5495 23.175 268.5495Q22.503124 268.5495 22.003124 268.9245Q21.33125 269.40887 20.940624 270.34637Q20.565624 271.26825 20.55 272.987Q21.065624 272.20575 21.8 271.83075Q22.534374 271.45575 23.33125 271.45575Q24.7375 271.45575 25.721874 272.50262Q26.721874 273.53387 26.721874 275.1745Q26.721874 276.25262 26.253124 277.1745Q25.784374 278.09637 24.971874 278.59637Q24.159374 279.09637 23.128124 279.09637Q21.378124 279.09637 20.26875 277.7995Q19.159374 276.50262 19.159374 273.53387Q19.159374 270.20575 20.378124 268.70575Q21.45625 267.39325 23.26875 267.39325Q24.6125 267.39325 25.471874 268.15887Q26.346874 268.90887 26.51875 270.237ZM20.76875 275.1745Q20.76875 275.90887 21.08125 276.58075Q21.39375 277.237 21.940624 277.58075Q22.503124 277.9245 23.1125 277.9245Q24.003124 277.9245 24.64375 277.20575Q25.284374 276.487 25.284374 275.25262Q25.284374 274.06512 24.64375 273.39325Q24.01875 272.70575 23.05 272.70575Q22.096874 272.70575 21.425 273.39325Q20.76875 274.06512 20.76875 275.1745ZM28.221874 275.862L29.628124 275.6745Q29.878124 276.87762 30.45625 277.40887Q31.034374 277.9245 31.878124 277.9245Q32.8625 277.9245 33.55 277.237Q34.2375 276.5495 34.2375 275.53387Q34.2375 274.56512 33.596874 273.94012Q32.971874 273.31512 31.9875 273.31512Q31.596874 273.31512 31.003124 273.47137L31.159374 272.237Q31.3 272.25262 31.378124 272.25262Q32.284374 272.25262 33.003124 271.78387Q33.721874 271.31512 33.721874 270.33075Q33.721874 269.56512 33.190624 269.06512Q32.675 268.5495 31.846874 268.5495Q31.01875 268.5495 30.471874 269.06512Q29.925 269.58075 29.76875 270.612L28.3625 270.362Q28.628124 268.94012 29.534374 268.1745Q30.45625 267.39325 31.815624 267.39325Q32.753124 267.39325 33.534374 267.7995Q34.33125 268.19012 34.7375 268.89325Q35.159374 269.58075 35.159374 270.362Q35.159374 271.112 34.753124 271.72137Q34.3625 272.33075 33.58125 272.69012Q34.596874 272.9245 35.159374 273.65887Q35.721874 274.39325 35.721874 275.50262Q35.721874 277.00262 34.628124 278.0495Q33.534374 279.09637 31.8625 279.09637Q30.3625 279.09637 29.3625 278.20575Q28.3625 277.2995 28.221874 275.862ZM38.003124 278.89325L38.003124 277.28387L39.6125 277.28387L39.6125 278.89325L38.003124 278.89325ZM48.51875 270.237L47.1125 270.34637Q46.925 269.51825 46.58125 269.14325Q46.01875 268.5495 45.175 268.5495Q44.503124 268.5495 44.003124 268.9245Q43.33125 269.40887 42.940624 270.34637Q42.565624 271.26825 42.55 272.987Q43.065624 272.20575 43.8 271.83075Q44.534374 271.45575 45.33125 271.45575Q46.7375 271.45575 47.721874 272.50262Q48.721874 273.53387 48.721874 275.1745Q48.721874 276.25262 48.253124 277.1745Q47.784374 278.09637 46.971874 278.59637Q46.159374 279.09637 45.128124 279.09637Q43.378124 279.09637 42.26875 277.7995Q41.159374 276.50262 41.159374 273.53387Q41.159374 270.20575 42.378124 268.70575Q43.45625 267.39325 45.26875 267.39325Q46.6125 267.39325 47.471874 268.15887Q48.346874 268.90887 48.51875 270.237ZM42.76875 275.1745Q42.76875 275.90887 43.08125 276.58075Q43.39375 277.237 43.940624 277.58075Q44.503124 277.9245 45.1125 277.9245Q46.003124 277.9245 46.64375 277.20575Q47.284374 276.487 47.284374 275.25262Q47.284374 274.06512 46.64375 273.39325Q46.01875 272.70575 45.05 272.70575Q44.096874 272.70575 43.425 273.39325Q42.76875 274.06512 42.76875 275.1745ZM50.4875 270.19012Q50.4875 268.95575 51.096874 268.09637Q51.721874 267.237 52.89375 267.237Q53.971874 267.237 54.675 268.01825Q55.378124 268.78387 55.378124 270.26825Q55.378124 271.72137 54.659374 272.51825Q53.95625 273.2995 52.909374 273.2995Q51.8625 273.2995 51.175 272.53387Q50.4875 271.75262 50.4875 270.19012ZM52.925 268.20575Q52.409374 268.20575 52.05 268.65887Q51.70625 269.112 51.70625 270.33075Q51.70625 271.4245 52.05 271.87762Q52.409374 272.33075 52.925 272.33075Q53.45625 272.33075 53.8 271.87762Q54.159374 271.4245 54.159374 270.22137Q54.159374 269.112 53.8 268.65887Q53.45625 268.20575 52.925 268.20575ZM52.940624 279.31512L59.20625 267.237L60.346874 267.237L54.096874 279.31512L52.940624 279.31512ZM57.89375 276.20575Q57.89375 274.97137 58.503124 274.112Q59.128124 273.25262 60.3 273.25262Q61.378124 273.25262 62.08125 274.03387Q62.8 274.7995 62.8 276.28387Q62.8 277.737 62.08125 278.53387Q61.3625 279.31512 60.315624 279.31512Q59.26875 279.31512 58.58125 278.53387Q57.89375 277.75262 57.89375 276.20575ZM60.346874 274.22137Q59.815624 274.22137 59.45625 274.6745Q59.1125 275.12762 59.1125 276.34637Q59.1125 277.44012 59.45625 277.89325Q59.815624 278.34637 60.33125 278.34637Q60.878124 278.34637 61.221874 277.89325Q61.565624 277.44012 61.565624 276.237Q61.565624 275.12762 61.20625 274.6745Q60.8625 274.22137 60.346874 274.22137Z" fill-rule="nonzero"/><path stroke="#757575" stroke-width="1.0" stroke-linecap="butt" d="M18.55 262.39325L145.23334 262.39325L171.44322 262.39325" fill-rule="nonzero"/><path fill="#9e9e9e" d="M173.44322 262.39325C173.44322 261.28867 172.54779 260.39325 171.44322 260.39325C170.33865 260.39325 169.44322 261.28867 169.44322 262.39325C169.44322 263.4978 170.33865 264.39325 171.44322 264.39325C172.54779 264.39325 173.44322 263.4978 173.44322 262.39325" fill-rule="nonzero"/><path fill="#efefef" d="M495.85626 65.90104L497.3719 66.27604Q496.90314 68.15104 495.65314 69.135414Q494.41876 70.11979 492.6375 70.11979Q490.77814 70.11979 489.6219 69.36979Q488.46564 68.604164 487.85626 67.18229Q487.2469 65.74479 487.2469 64.104164Q487.2469 62.30729 487.9344 60.979164Q488.6219 59.65104 489.8719 58.96354Q491.1375 58.260414 492.65314 58.260414Q494.3719 58.260414 495.54376 59.135414Q496.71564 60.010414 497.1844 61.604164L495.6844 61.947914Q495.29376 60.697914 494.52814 60.135414Q493.77814 59.55729 492.6219 59.55729Q491.3094 59.55729 490.41876 60.197914Q489.52814 60.822914 489.16876 61.90104Q488.8094 62.96354 488.8094 64.08854Q488.8094 65.55729 489.23126 66.65104Q489.66876 67.729164 490.5594 68.27604Q491.46564 68.80729 492.5125 68.80729Q493.77814 68.80729 494.65314 68.072914Q495.54376 67.33854 495.85626 65.90104ZM504.95 69.916664L504.95 68.697914Q503.98126 70.104164 502.3094 70.104164Q501.575 70.104164 500.9344 69.822914Q500.3094 69.541664 499.9969 69.11979Q499.6844 68.68229 499.5594 68.072914Q499.48126 67.65104 499.48126 66.760414L499.48126 61.61979L500.8875 61.61979L500.8875 66.21354Q500.8875 67.322914 500.96564 67.697914Q501.10626 68.260414 501.52814 68.572914Q501.96564 68.885414 502.59064 68.885414Q503.23126 68.885414 503.77814 68.572914Q504.34064 68.24479 504.5594 67.68229Q504.79376 67.11979 504.79376 66.05729L504.79376 61.61979L506.2 61.61979L506.2 69.916664L504.95 69.916664ZM508.48126 69.916664L508.48126 58.46354L509.8875 58.46354L509.8875 69.916664L508.48126 69.916664ZM515.575 68.65104L515.77814 69.90104Q515.1844 70.02604 514.71564 70.02604Q513.95 70.02604 513.52814 69.791664Q513.10626 69.541664 512.9344 69.15104Q512.7625 68.74479 512.7625 67.479164L512.7625 62.71354L511.73126 62.71354L511.73126 61.61979L512.7625 61.61979L512.7625 59.55729L514.16876 58.71354L514.16876 61.61979L515.575 61.61979L515.575 62.71354L514.16876 62.71354L514.16876 67.55729Q514.16876 68.166664 514.23126 68.33854Q514.3094 68.510414 514.48126 68.61979Q514.65314 68.71354 514.96564 68.71354Q515.2 68.71354 515.575 68.65104ZM521.95 69.916664L521.95 68.697914Q520.98126 70.104164 519.3094 70.104164Q518.575 70.104164 517.9344 69.822914Q517.3094 69.541664 516.9969 69.11979Q516.6844 68.68229 516.5594 68.072914Q516.48126 67.65104 516.48126 66.760414L516.48126 61.61979L517.8875 61.61979L517.8875 66.21354Q517.8875 67.322914 517.96564 67.697914Q518.10626 68.260414 518.52814 68.572914Q518.96564 68.885414 519.59064 68.885414Q520.23126 68.885414 520.77814 68.572914Q521.34064 68.24479 521.5594 67.68229Q521.79376 67.11979 521.79376 66.05729L521.79376 61.61979L523.2 61.61979L523.2 69.916664L521.95 69.916664ZM525.4969 69.916664L525.4969 61.61979L526.7625 61.61979L526.7625 62.86979Q527.2469 61.99479 527.65314 61.71354Q528.0594 61.43229 528.5594 61.43229Q529.2625 61.43229 529.9969 61.885414L529.5125 63.18229Q528.9969 62.885414 528.48126 62.885414Q528.02814 62.885414 527.65314 63.166664Q527.29376 63.43229 527.1375 63.93229Q526.90314 64.68229 526.90314 65.572914L526.90314 69.916664L525.4969 69.916664ZM535.91876 68.885414Q535.1375 69.55729 534.41876 69.83854Q533.7 70.104164 532.8719 70.104164Q531.4969 70.104164 530.7625 69.43229Q530.02814 68.760414 530.02814 67.729164Q530.02814 67.11979 530.3094 66.61979Q530.59064 66.104164 531.02814 65.80729Q531.48126 65.49479 532.04376 65.33854Q532.46564 65.229164 533.29376 65.135414Q534.9969 64.93229 535.8094 64.65104Q535.8094 64.354164 535.8094 64.27604Q535.8094 63.416664 535.41876 63.072914Q534.8719 62.58854 533.8094 62.58854Q532.825 62.58854 532.34064 62.947914Q531.8719 63.291664 531.65314 64.166664L530.27814 63.979164Q530.46564 63.104164 530.8875 62.55729Q531.325 62.010414 532.1375 61.729164Q532.95 61.43229 534.0125 61.43229Q535.075 61.43229 535.73126 61.68229Q536.40314 61.93229 536.71564 62.30729Q537.02814 62.68229 537.15314 63.260414Q537.23126 63.61979 537.23126 64.55729L537.23126 66.43229Q537.23126 68.40104 537.3094 68.916664Q537.40314 69.43229 537.66876 69.916664L536.2 69.916664Q535.98126 69.479164 535.91876 68.885414ZM535.8094 65.74479Q535.04376 66.05729 533.5125 66.27604Q532.6375 66.40104 532.27814 66.55729Q531.91876 66.71354 531.71564 67.02604Q531.52814 67.322914 531.52814 67.68229Q531.52814 68.24479 531.95 68.61979Q532.3875 68.99479 533.2 68.99479Q534.0125 68.99479 534.6375 68.65104Q535.27814 68.291664 535.575 67.666664Q535.8094 67.197914 535.8094 66.260414L535.8094 65.74479ZM539.48126 69.916664L539.48126 58.46354L540.8875 58.46354L540.8875 69.916664L539.48126 69.916664ZM546.41876 69.916664L550.825 58.46354L552.46564 58.46354L557.15314 69.916664L555.41876 69.916664L554.09064 66.447914L549.29376 66.447914L548.04376 69.916664L546.41876 69.916664ZM549.73126 65.21354L553.6219 65.21354L552.41876 62.041664Q551.8719 60.58854 551.60626 59.666664Q551.3875 60.760414 550.9969 61.854164L549.73126 65.21354ZM563.91876 66.86979L565.3094 67.05729Q565.075 68.479164 564.1375 69.291664Q563.21564 70.104164 561.85626 70.104164Q560.15314 70.104164 559.10626 68.99479Q558.075 67.86979 558.075 65.791664Q558.075 64.447914 558.5125 63.447914Q558.96564 62.43229 559.8719 61.93229Q560.79376 61.43229 561.85626 61.43229Q563.21564 61.43229 564.075 62.11979Q564.9344 62.791664 565.16876 64.05729L563.8094 64.260414Q563.60626 63.43229 563.10626 63.010414Q562.6219 62.58854 561.91876 62.58854Q560.85626 62.58854 560.1844 63.354164Q559.52814 64.104164 559.52814 65.760414Q559.52814 67.43229 560.16876 68.197914Q560.8094 68.947914 561.84064 68.947914Q562.66876 68.947914 563.21564 68.447914Q563.77814 67.93229 563.91876 66.86979ZM569.575 68.65104L569.77814 69.90104Q569.1844 70.02604 568.71564 70.02604Q567.95 70.02604 567.52814 69.791664Q567.10626 69.541664 566.9344 69.15104Q566.7625 68.74479 566.7625 67.479164L566.7625 62.71354L565.73126 62.71354L565.73126 61.61979L566.7625 61.61979L566.7625 59.55729L568.16876 58.71354L568.16876 61.61979L569.575 61.61979L569.575 62.71354L568.16876 62.71354L568.16876 67.55729Q568.16876 68.166664 568.23126 68.33854Q568.3094 68.510414 568.48126 68.61979Q568.65314 68.71354 568.96564 68.71354Q569.2 68.71354 569.575 68.65104ZM569.95 67.43229L571.34064 67.21354Q571.45 68.05729 571.98126 68.510414Q572.52814 68.947914 573.48126 68.947914Q574.45 68.947914 574.91876 68.55729Q575.3875 68.15104 575.3875 67.61979Q575.3875 67.15104 574.98126 66.86979Q574.6844 66.68229 573.54376 66.40104Q571.9969 66.010414 571.3875 65.729164Q570.79376 65.43229 570.48126 64.93229Q570.1844 64.43229 570.1844 63.822914Q570.1844 63.260414 570.4344 62.791664Q570.6844 62.322914 571.1219 62.010414Q571.45 61.760414 572.0125 61.604164Q572.59064 61.43229 573.23126 61.43229Q574.21564 61.43229 574.95 61.71354Q575.6844 61.99479 576.02814 62.479164Q576.3875 62.947914 576.52814 63.760414L575.15314 63.947914Q575.0594 63.30729 574.60626 62.947914Q574.15314 62.58854 573.34064 62.58854Q572.3719 62.58854 571.95 62.916664Q571.54376 63.229164 571.54376 63.65104Q571.54376 63.93229 571.71564 64.15104Q571.8875 64.36979 572.2469 64.52604Q572.46564 64.604164 573.4969 64.885414Q574.98126 65.27604 575.575 65.541664Q576.16876 65.791664 576.4969 66.27604Q576.84064 66.760414 576.84064 67.479164Q576.84064 68.18229 576.41876 68.80729Q576.0125 69.416664 575.23126 69.760414Q574.46564 70.104164 573.4969 70.104164Q571.8719 70.104164 571.02814 69.43229Q570.1844 68.760414 569.95 67.43229ZM578.90314 69.916664L578.90314 68.30729L580.5125 68.30729L580.5125 69.916664L578.90314 69.916664Z" fill-rule="nonzero"/><path fill="#9e9e9e" d="M546.325 89.260414L547.6844 89.135414Q547.85626 90.08854 548.34064 90.52604Q548.825 90.947914 549.575 90.947914Q550.23126 90.947914 550.71564 90.65104Q551.2 90.354164 551.5125 89.86979Q551.825 89.36979 552.02814 88.52604Q552.2469 87.68229 552.2469 86.80729Q552.2469 86.71354 552.2469 86.52604Q551.825 87.197914 551.09064 87.61979Q550.35626 88.02604 549.5125 88.02604Q548.09064 88.02604 547.10626 86.99479Q546.1219 85.96354 546.1219 84.27604Q546.1219 82.541664 547.1375 81.479164Q548.16876 80.416664 549.71564 80.416664Q550.84064 80.416664 551.7625 81.02604Q552.6844 81.61979 553.16876 82.729164Q553.65314 83.83854 553.65314 85.947914Q553.65314 88.15104 553.16876 89.447914Q552.7 90.74479 551.7469 91.43229Q550.8094 92.11979 549.54376 92.11979Q548.2 92.11979 547.34064 91.36979Q546.4969 90.61979 546.325 89.260414ZM552.09064 84.21354Q552.09064 82.99479 551.4344 82.291664Q550.79376 81.572914 549.8875 81.572914Q548.95 81.572914 548.2469 82.33854Q547.5594 83.104164 547.5594 84.322914Q547.5594 85.416664 548.21564 86.104164Q548.8875 86.791664 549.85626 86.791664Q550.825 86.791664 551.45 86.104164Q552.09064 85.416664 552.09064 84.21354ZM555.90314 91.916664L555.90314 90.30729L557.5125 90.30729L557.5125 91.916664L555.90314 91.916664ZM564.41876 91.916664L563.0125 91.916664L563.0125 82.947914Q562.4969 83.43229 561.66876 83.916664Q560.85626 84.40104 560.2 84.65104L560.2 83.291664Q561.3719 82.729164 562.2469 81.947914Q563.1375 81.15104 563.5125 80.416664L564.41876 80.416664L564.41876 91.916664ZM568.3875 83.21354Q568.3875 81.979164 568.9969 81.11979Q569.6219 80.260414 570.79376 80.260414Q571.8719 80.260414 572.575 81.041664Q573.27814 81.80729 573.27814 83.291664Q573.27814 84.74479 572.5594 85.541664Q571.85626 86.322914 570.8094 86.322914Q569.7625 86.322914 569.075 85.55729Q568.3875 84.77604 568.3875 83.21354ZM570.825 81.229164Q570.3094 81.229164 569.95 81.68229Q569.60626 82.135414 569.60626 83.354164Q569.60626 84.447914 569.95 84.90104Q570.3094 85.354164 570.825 85.354164Q571.35626 85.354164 571.7 84.90104Q572.0594 84.447914 572.0594 83.24479Q572.0594 82.135414 571.7 81.68229Q571.35626 81.229164 570.825 81.229164ZM570.84064 92.33854L577.10626 80.260414L578.2469 80.260414L571.9969 92.33854L570.84064 92.33854ZM575.79376 89.229164Q575.79376 87.99479 576.40314 87.135414Q577.02814 86.27604 578.2 86.27604Q579.27814 86.27604 579.98126 87.05729Q580.7 87.822914 580.7 89.30729Q580.7 90.760414 579.98126 91.55729Q579.2625 92.33854 578.21564 92.33854Q577.16876 92.33854 576.48126 91.55729Q575.79376 90.77604 575.79376 89.229164ZM578.2469 87.24479Q577.71564 87.24479 577.35626 87.697914Q577.0125 88.15104 577.0125 89.36979Q577.0125 90.46354 577.35626 90.916664Q577.71564 91.36979 578.23126 91.36979Q578.77814 91.36979 579.1219 90.916664Q579.46564 90.46354 579.46564 89.260414Q579.46564 88.15104 579.10626 87.697914Q578.7625 87.24479 578.2469 87.24479Z" fill-rule="nonzero"/><path stroke="#757575" stroke-width="1.0" stroke-linecap="butt" d="M581.45 75.416664L454.76666 75.416664L339.8168 68.07979" fill-rule="nonzero"/><path fill="#9e9e9e" d="M341.8168 68.07979C341.8168 66.97522 340.92136 66.07979 339.8168 66.07979C338.71222 66.07979 337.8168 66.97522 337.8168 68.07979C337.8168 69.18436 338.71222 70.07979 339.8168 70.07979C340.92136 70.07979 341.8168 69.18436 341.8168 68.07979" fill-rule="nonzero"/><path fill="#efefef" d="M514.71564 110.916664L514.71564 99.46354L519.79376 99.46354Q521.325 99.46354 522.1219 99.77604Q522.91876 100.072914 523.3875 100.854164Q523.8719 101.635414 523.8719 102.58854Q523.8719 103.80729 523.075 104.65104Q522.29376 105.479164 520.6375 105.697914Q521.2469 105.99479 521.5594 106.27604Q522.21564 106.885414 522.8094 107.791664L524.8094 110.916664L522.90314 110.916664L521.3875 108.52604Q520.71564 107.49479 520.27814 106.947914Q519.85626 106.40104 519.5125 106.18229Q519.1844 105.96354 518.825 105.885414Q518.575 105.822914 517.98126 105.822914L516.23126 105.822914L516.23126 110.916664L514.71564 110.916664ZM516.23126 104.510414L519.48126 104.510414Q520.52814 104.510414 521.10626 104.30729Q521.7 104.08854 521.9969 103.61979Q522.3094 103.135414 522.3094 102.58854Q522.3094 101.77604 521.71564 101.260414Q521.1219 100.729164 519.85626 100.729164L516.23126 100.729164L516.23126 104.510414ZM532.1844 108.24479L533.6375 108.416664Q533.29376 109.697914 532.35626 110.40104Q531.4344 111.104164 529.9969 111.104164Q528.16876 111.104164 527.10626 109.979164Q526.04376 108.854164 526.04376 106.83854Q526.04376 104.74479 527.1219 103.58854Q528.2 102.43229 529.91876 102.43229Q531.575 102.43229 532.6219 103.572914Q533.6844 104.697914 533.6844 106.74479Q533.6844 106.86979 533.6844 107.11979L527.4969 107.11979Q527.575 108.49479 528.2625 109.229164Q528.96564 109.947914 529.9969 109.947914Q530.77814 109.947914 531.325 109.541664Q531.8719 109.135414 532.1844 108.24479ZM527.575 105.96354L532.2 105.96354Q532.10626 104.916664 531.66876 104.40104Q530.9969 103.58854 529.9344 103.58854Q528.96564 103.58854 528.29376 104.24479Q527.6375 104.885414 527.575 105.96354ZM535.48126 110.916664L535.48126 99.46354L536.8875 99.46354L536.8875 110.916664L535.48126 110.916664ZM539.5125 101.072914L539.5125 99.46354L540.91876 99.46354L540.91876 101.072914L539.5125 101.072914ZM539.5125 110.916664L539.5125 102.61979L540.91876 102.61979L540.91876 110.916664L539.5125 110.916664ZM543.2469 111.604164L544.6219 111.80729Q544.7 112.447914 545.09064 112.729164Q545.6219 113.11979 546.52814 113.11979Q547.4969 113.11979 548.02814 112.729164Q548.5594 112.33854 548.7469 111.635414Q548.85626 111.21354 548.85626 109.822914Q547.9344 110.916664 546.5594 110.916664Q544.84064 110.916664 543.90314 109.68229Q542.96564 108.447914 542.96564 106.71354Q542.96564 105.52604 543.3875 104.52604Q543.825 103.52604 544.6375 102.979164Q545.46564 102.43229 546.5594 102.43229Q548.02814 102.43229 548.98126 103.61979L548.98126 102.61979L550.27814 102.61979L550.27814 109.791664Q550.27814 111.729164 549.8875 112.541664Q549.4969 113.354164 548.6375 113.822914Q547.77814 114.291664 546.52814 114.291664Q545.04376 114.291664 544.1219 113.61979Q543.21564 112.947914 543.2469 111.604164ZM544.41876 106.61979Q544.41876 108.24479 545.0594 108.99479Q545.71564 109.74479 546.6844 109.74479Q547.65314 109.74479 548.3094 109.010414Q548.96564 108.260414 548.96564 106.666664Q548.96564 105.135414 548.29376 104.36979Q547.6219 103.58854 546.66876 103.58854Q545.73126 103.58854 545.075 104.354164Q544.41876 105.11979 544.41876 106.61979ZM552.5125 101.072914L552.5125 99.46354L553.91876 99.46354L553.91876 101.072914L552.5125 101.072914ZM552.5125 110.916664L552.5125 102.61979L553.91876 102.61979L553.91876 110.916664L552.5125 110.916664ZM555.98126 106.760414Q555.98126 104.46354 557.2625 103.354164Q558.34064 102.43229 559.8719 102.43229Q561.59064 102.43229 562.66876 103.55729Q563.7625 104.666664 563.7625 106.65104Q563.7625 108.24479 563.27814 109.166664Q562.79376 110.08854 561.8719 110.604164Q560.96564 111.104164 559.8719 111.104164Q558.1375 111.104164 557.0594 109.99479Q555.98126 108.86979 555.98126 106.760414ZM557.4344 106.760414Q557.4344 108.354164 558.1219 109.15104Q558.825 109.947914 559.8719 109.947914Q560.91876 109.947914 561.60626 109.15104Q562.3094 108.354164 562.3094 106.71354Q562.3094 105.18229 561.60626 104.385414Q560.91876 103.58854 559.8719 103.58854Q558.825 103.58854 558.1219 104.385414Q557.4344 105.166664 557.4344 106.760414ZM570.95 110.916664L570.95 109.697914Q569.98126 111.104164 568.3094 111.104164Q567.575 111.104164 566.9344 110.822914Q566.3094 110.541664 565.9969 110.11979Q565.6844 109.68229 565.5594 109.072914Q565.48126 108.65104 565.48126 107.760414L565.48126 102.61979L566.8875 102.61979L566.8875 107.21354Q566.8875 108.322914 566.96564 108.697914Q567.10626 109.260414 567.52814 109.572914Q567.96564 109.885414 568.59064 109.885414Q569.23126 109.885414 569.77814 109.572914Q570.34064 109.24479 570.5594 108.68229Q570.79376 108.11979 570.79376 107.05729L570.79376 102.61979L572.2 102.61979L572.2 110.916664L570.95 110.916664ZM573.95 108.43229L575.34064 108.21354Q575.45 109.05729 575.98126 109.510414Q576.52814 109.947914 577.48126 109.947914Q578.45 109.947914 578.91876 109.55729Q579.3875 109.15104 579.3875 108.61979Q579.3875 108.15104 578.98126 107.86979Q578.6844 107.68229 577.54376 107.40104Q575.9969 107.010414 575.3875 106.729164Q574.79376 106.43229 574.48126 105.93229Q574.1844 105.43229 574.1844 104.822914Q574.1844 104.260414 574.4344 103.791664Q574.6844 103.322914 575.1219 103.010414Q575.45 102.760414 576.0125 102.604164Q576.59064 102.43229 577.23126 102.43229Q578.21564 102.43229 578.95 102.71354Q579.6844 102.99479 580.02814 103.479164Q580.3875 103.947914 580.52814 104.760414L579.15314 104.947914Q579.0594 104.30729 578.60626 103.947914Q578.15314 103.58854 577.34064 103.58854Q576.3719 103.58854 575.95 103.916664Q575.54376 104.229164 575.54376 104.65104Q575.54376 104.93229 575.71564 105.15104Q575.8875 105.36979 576.2469 105.52604Q576.46564 105.604164 577.4969 105.885414Q578.98126 106.27604 579.575 106.541664Q580.16876 106.791664 580.4969 107.27604Q580.84064 107.760414 580.84064 108.479164Q580.84064 109.18229 580.41876 109.80729Q580.0125 110.416664 579.23126 110.760414Q578.46564 111.104164 577.4969 111.104164Q575.8719 111.104164 575.02814 110.43229Q574.1844 109.760414 573.95 108.43229Z" fill-rule="nonzero"/><path fill="#9e9e9e" d="M546.325 130.26042L547.6844 130.13542Q547.85626 131.08855 548.34064 131.52605Q548.825 131.94792 549.575 131.94792Q550.23126 131.94792 550.71564 131.65105Q551.2 131.35417 551.5125 130.8698Q551.825 130.3698 552.02814 129.52605Q552.2469 128.6823 552.2469 127.8073Q552.2469 127.71355 552.2469 127.52605Q551.825 128.19792 551.09064 128.6198Q550.35626 129.02605 549.5125 129.02605Q548.09064 129.02605 547.10626 127.9948Q546.1219 126.96355 546.1219 125.27605Q546.1219 123.54167 547.1375 122.47917Q548.16876 121.41667 549.71564 121.41667Q550.84064 121.41667 551.7625 122.02605Q552.6844 122.6198 553.16876 123.72917Q553.65314 124.83855 553.65314 126.94792Q553.65314 129.15105 553.16876 130.44792Q552.7 131.7448 551.7469 132.4323Q550.8094 133.1198 549.54376 133.1198Q548.2 133.1198 547.34064 132.3698Q546.4969 131.6198 546.325 130.26042ZM552.09064 125.21355Q552.09064 123.9948 551.4344 123.29167Q550.79376 122.57292 549.8875 122.57292Q548.95 122.57292 548.2469 123.33855Q547.5594 124.10417 547.5594 125.32292Q547.5594 126.41667 548.21564 127.10417Q548.8875 127.79167 549.85626 127.79167Q550.825 127.79167 551.45 127.10417Q552.09064 126.41667 552.09064 125.21355ZM555.90314 132.91667L555.90314 131.3073L557.5125 131.3073L557.5125 132.91667L555.90314 132.91667ZM564.41876 132.91667L563.0125 132.91667L563.0125 123.94792Q562.4969 124.4323 561.66876 124.91667Q560.85626 125.40105 560.2 125.65105L560.2 124.29167Q561.3719 123.72917 562.2469 122.94792Q563.1375 122.15105 563.5125 121.41667L564.41876 121.41667L564.41876 132.91667ZM568.3875 124.21355Q568.3875 122.97917 568.9969 122.1198Q569.6219 121.26042 570.79376 121.26042Q571.8719 121.26042 572.575 122.04167Q573.27814 122.8073 573.27814 124.29167Q573.27814 125.7448 572.5594 126.54167Q571.85626 127.32292 570.8094 127.32292Q569.7625 127.32292 569.075 126.5573Q568.3875 125.77605 568.3875 124.21355ZM570.825 122.22917Q570.3094 122.22917 569.95 122.6823Q569.60626 123.13542 569.60626 124.35417Q569.60626 125.44792 569.95 125.90105Q570.3094 126.35417 570.825 126.35417Q571.35626 126.35417 571.7 125.90105Q572.0594 125.44792 572.0594 124.2448Q572.0594 123.13542 571.7 122.6823Q571.35626 122.22917 570.825 122.22917ZM570.84064 133.33855L577.10626 121.26042L578.2469 121.26042L571.9969 133.33855L570.84064 133.33855ZM575.79376 130.22917Q575.79376 128.9948 576.40314 128.13542Q577.02814 127.27605 578.2 127.27605Q579.27814 127.27605 579.98126 128.0573Q580.7 128.82292 580.7 130.3073Q580.7 131.76042 579.98126 132.5573Q579.2625 133.33855 578.21564 133.33855Q577.16876 133.33855 576.48126 132.5573Q575.79376 131.77605 575.79376 130.22917ZM578.2469 128.2448Q577.71564 128.2448 577.35626 128.69792Q577.0125 129.15105 577.0125 130.3698Q577.0125 131.46355 577.35626 131.91667Q577.71564 132.3698 578.23126 132.3698Q578.77814 132.3698 579.1219 131.91667Q579.46564 131.46355 579.46564 130.26042Q579.46564 129.15105 579.10626 128.69792Q578.7625 128.2448 578.2469 128.2448Z" fill-rule="nonzero"/><path stroke="#757575" stroke-width="1.0" stroke-linecap="butt" d="M581.45 116.416664L454.76666 116.416664L406.80884 111.13296" fill-rule="nonzero"/><path fill="#9e9e9e" d="M408.80884 111.13296C408.80884 110.02839 407.9134 109.13296 406.80884 109.13296C405.70425 109.13296 404.80884 110.02839 404.80884 111.13296C404.80884 112.237526 405.70425 113.13296 406.80884 113.13296C407.9134 113.13296 408.80884 112.237526 408.80884 111.13296" fill-rule="nonzero"/><path fill="#efefef" d="M456.71564 178.07022L456.71564 166.6171L464.9969 166.6171L464.9969 167.96085L458.23126 167.96085L458.23126 171.47647L464.575 171.47647L464.575 172.82022L458.23126 172.82022L458.23126 176.71085L465.2625 176.71085L465.2625 178.07022L456.71564 178.07022ZM472.91876 175.02335L474.3094 175.21085Q474.075 176.63272 473.1375 177.44522Q472.21564 178.25772 470.85626 178.25772Q469.15314 178.25772 468.10626 177.14835Q467.075 176.02335 467.075 173.94522Q467.075 172.60147 467.5125 171.60147Q467.96564 170.58585 468.8719 170.08585Q469.79376 169.58585 470.85626 169.58585Q472.21564 169.58585 473.075 170.27335Q473.9344 170.94522 474.16876 172.21085L472.8094 172.41397Q472.60626 171.58585 472.10626 171.16397Q471.6219 170.7421 470.91876 170.7421Q469.85626 170.7421 469.1844 171.50772Q468.52814 172.25772 468.52814 173.91397Q468.52814 175.58585 469.16876 176.35147Q469.8094 177.10147 470.84064 177.10147Q471.66876 177.10147 472.21564 176.60147Q472.77814 176.08585 472.91876 175.02335ZM474.98126 173.91397Q474.98126 171.6171 476.2625 170.50772Q477.34064 169.58585 478.8719 169.58585Q480.59064 169.58585 481.66876 170.71085Q482.7625 171.82022 482.7625 173.8046Q482.7625 175.39835 482.27814 176.32022Q481.79376 177.2421 480.8719 177.75772Q479.96564 178.25772 478.8719 178.25772Q477.1375 178.25772 476.0594 177.14835Q474.98126 176.02335 474.98126 173.91397ZM476.4344 173.91397Q476.4344 175.50772 477.1219 176.3046Q477.825 177.10147 478.8719 177.10147Q479.91876 177.10147 480.60626 176.3046Q481.3094 175.50772 481.3094 173.8671Q481.3094 172.33585 480.60626 171.53897Q479.91876 170.7421 478.8719 170.7421Q477.825 170.7421 477.1219 171.53897Q476.4344 172.32022 476.4344 173.91397ZM484.5125 178.07022L484.5125 169.77335L485.77814 169.77335L485.77814 170.94522Q486.6844 169.58585 488.41876 169.58585Q489.16876 169.58585 489.79376 169.85147Q490.41876 170.1171 490.73126 170.5546Q491.04376 170.9921 491.16876 171.60147Q491.2469 171.9921 491.2469 172.96085L491.2469 178.07022L489.84064 178.07022L489.84064 173.02335Q489.84064 172.16397 489.66876 171.7421Q489.5125 171.3046 489.09064 171.0546Q488.6844 170.8046 488.1219 170.8046Q487.21564 170.8046 486.5594 171.38272Q485.91876 171.94522 485.91876 173.53897L485.91876 178.07022L484.5125 178.07022ZM492.98126 173.91397Q492.98126 171.6171 494.2625 170.50772Q495.34064 169.58585 496.8719 169.58585Q498.59064 169.58585 499.66876 170.71085Q500.7625 171.82022 500.7625 173.8046Q500.7625 175.39835 500.27814 176.32022Q499.79376 177.2421 498.8719 177.75772Q497.96564 178.25772 496.8719 178.25772Q495.1375 178.25772 494.0594 177.14835Q492.98126 176.02335 492.98126 173.91397ZM494.4344 173.91397Q494.4344 175.50772 495.1219 176.3046Q495.825 177.10147 496.8719 177.10147Q497.91876 177.10147 498.60626 176.3046Q499.3094 175.50772 499.3094 173.8671Q499.3094 172.33585 498.60626 171.53897Q497.91876 170.7421 496.8719 170.7421Q495.825 170.7421 495.1219 171.53897Q494.4344 172.32022 494.4344 173.91397ZM502.5125 178.07022L502.5125 169.77335L503.7625 169.77335L503.7625 170.9296Q504.15314 170.32022 504.79376 169.96085Q505.45 169.58585 506.27814 169.58585Q507.2 169.58585 507.79376 169.97647Q508.3875 170.35147 508.6219 171.03897Q509.60626 169.58585 511.1844 169.58585Q512.41876 169.58585 513.075 170.27335Q513.7469 170.94522 513.7469 172.3671L513.7469 178.07022L512.35626 178.07022L512.35626 172.83585Q512.35626 171.9921 512.21564 171.63272Q512.075 171.25772 511.71564 171.03897Q511.35626 170.8046 510.8719 170.8046Q509.9969 170.8046 509.41876 171.38272Q508.84064 171.96085 508.84064 173.2421L508.84064 178.07022L507.4344 178.07022L507.4344 172.6796Q507.4344 171.7421 507.09064 171.27335Q506.7469 170.8046 505.96564 170.8046Q505.3719 170.8046 504.8719 171.1171Q504.3719 171.4296 504.1375 172.03897Q503.91876 172.63272 503.91876 173.75772L503.91876 178.07022L502.5125 178.07022ZM515.5125 168.22647L515.5125 166.6171L516.91876 166.6171L516.91876 168.22647L515.5125 168.22647ZM515.5125 178.07022L515.5125 169.77335L516.91876 169.77335L516.91876 178.07022L515.5125 178.07022ZM524.91876 175.02335L526.3094 175.21085Q526.075 176.63272 525.1375 177.44522Q524.21564 178.25772 522.85626 178.25772Q521.15314 178.25772 520.10626 177.14835Q519.075 176.02335 519.075 173.94522Q519.075 172.60147 519.5125 171.60147Q519.96564 170.58585 520.8719 170.08585Q521.79376 169.58585 522.85626 169.58585Q524.21564 169.58585 525.075 170.27335Q525.9344 170.94522 526.16876 172.21085L524.8094 172.41397Q524.60626 171.58585 524.10626 171.16397Q523.6219 170.7421 522.91876 170.7421Q521.85626 170.7421 521.1844 171.50772Q520.52814 172.25772 520.52814 173.91397Q520.52814 175.58585 521.16876 176.35147Q521.8094 177.10147 522.84064 177.10147Q523.66876 177.10147 524.21564 176.60147Q524.77814 176.08585 524.91876 175.02335ZM530.41876 178.07022L534.825 166.6171L536.46564 166.6171L541.15314 178.07022L539.41876 178.07022L538.09064 174.60147L533.29376 174.60147L532.04376 178.07022L530.41876 178.07022ZM533.73126 173.3671L537.6219 173.3671L536.41876 170.19522Q535.8719 168.7421 535.60626 167.82022Q535.3875 168.91397 534.9969 170.00772L533.73126 173.3671ZM547.91876 175.02335L549.3094 175.21085Q549.075 176.63272 548.1375 177.44522Q547.21564 178.25772 545.85626 178.25772Q544.15314 178.25772 543.10626 177.14835Q542.075 176.02335 542.075 173.94522Q542.075 172.60147 542.5125 171.60147Q542.96564 170.58585 543.8719 170.08585Q544.79376 169.58585 545.85626 169.58585Q547.21564 169.58585 548.075 170.27335Q548.9344 170.94522 549.16876 172.21085L547.8094 172.41397Q547.60626 171.58585 547.10626 171.16397Q546.6219 170.7421 545.91876 170.7421Q544.85626 170.7421 544.1844 171.50772Q543.52814 172.25772 543.52814 173.91397Q543.52814 175.58585 544.16876 176.35147Q544.8094 177.10147 545.84064 177.10147Q546.66876 177.10147 547.21564 176.60147Q547.77814 176.08585 547.91876 175.02335ZM553.575 176.8046L553.77814 178.0546Q553.1844 178.1796 552.71564 178.1796Q551.95 178.1796 551.52814 177.94522Q551.10626 177.69522 550.9344 177.3046Q550.7625 176.89835 550.7625 175.63272L550.7625 170.8671L549.73126 170.8671L549.73126 169.77335L550.7625 169.77335L550.7625 167.71085L552.16876 166.8671L552.16876 169.77335L553.575 169.77335L553.575 170.8671L552.16876 170.8671L552.16876 175.71085Q552.16876 176.32022 552.23126 176.4921Q552.3094 176.66397 552.48126 176.77335Q552.65314 176.8671 552.96564 176.8671Q553.2 176.8671 553.575 176.8046ZM554.5125 168.22647L554.5125 166.6171L555.91876 166.6171L555.91876 168.22647L554.5125 168.22647ZM554.5125 178.07022L554.5125 169.77335L555.91876 169.77335L555.91876 178.07022L554.5125 178.07022ZM560.8094 178.07022L557.65314 169.77335L559.1375 169.77335L560.91876 174.7421Q561.21564 175.53897 561.45 176.41397Q561.6375 175.75772 561.98126 174.83585L563.825 169.77335L565.2625 169.77335L562.1219 178.07022L560.8094 178.07022ZM566.5125 168.22647L566.5125 166.6171L567.91876 166.6171L567.91876 168.22647L566.5125 168.22647ZM566.5125 178.07022L566.5125 169.77335L567.91876 169.77335L567.91876 178.07022L566.5125 178.07022ZM573.575 176.8046L573.77814 178.0546Q573.1844 178.1796 572.71564 178.1796Q571.95 178.1796 571.52814 177.94522Q571.10626 177.69522 570.9344 177.3046Q570.7625 176.89835 570.7625 175.63272L570.7625 170.8671L569.73126 170.8671L569.73126 169.77335L570.7625 169.77335L570.7625 167.71085L572.16876 166.8671L572.16876 169.77335L573.575 169.77335L573.575 170.8671L572.16876 170.8671L572.16876 175.71085Q572.16876 176.32022 572.23126 176.4921Q572.3094 176.66397 572.48126 176.77335Q572.65314 176.8671 572.96564 176.8671Q573.2 176.8671 573.575 176.8046ZM574.45 181.27335L574.29376 179.94522Q574.7469 180.07022 575.09064 180.07022Q575.5594 180.07022 575.84064 179.91397Q576.1219 179.75772 576.3094 179.47647Q576.4344 179.27335 576.73126 178.4296Q576.77814 178.32022 576.85626 178.08585L573.71564 169.77335L575.23126 169.77335L576.95 174.57022Q577.29376 175.4921 577.5594 176.4921Q577.79376 175.52335 578.1375 174.60147L579.90314 169.77335L581.3094 169.77335L578.15314 178.21085Q577.65314 179.58585 577.3719 180.10147Q576.9969 180.78897 576.5125 181.1171Q576.02814 181.44522 575.35626 181.44522Q574.95 181.44522 574.45 181.27335Z" fill-rule="nonzero"/><path fill="#9e9e9e" d="M546.325 197.41397L547.6844 197.28897Q547.85626 198.2421 548.34064 198.6796Q548.825 199.10147 549.575 199.10147Q550.23126 199.10147 550.71564 198.8046Q551.2 198.50772 551.5125 198.02335Q551.825 197.52335 552.02814 196.6796Q552.2469 195.83585 552.2469 194.96085Q552.2469 194.8671 552.2469 194.6796Q551.825 195.35147 551.09064 195.77335Q550.35626 196.1796 549.5125 196.1796Q548.09064 196.1796 547.10626 195.14835Q546.1219 194.1171 546.1219 192.4296Q546.1219 190.69522 547.1375 189.63272Q548.16876 188.57022 549.71564 188.57022Q550.84064 188.57022 551.7625 189.1796Q552.6844 189.77335 553.16876 190.88272Q553.65314 191.9921 553.65314 194.10147Q553.65314 196.3046 553.16876 197.60147Q552.7 198.89835 551.7469 199.58585Q550.8094 200.27335 549.54376 200.27335Q548.2 200.27335 547.34064 199.52335Q546.4969 198.77335 546.325 197.41397ZM552.09064 192.3671Q552.09064 191.14835 551.4344 190.44522Q550.79376 189.72647 549.8875 189.72647Q548.95 189.72647 548.2469 190.4921Q547.5594 191.25772 547.5594 192.47647Q547.5594 193.57022 548.21564 194.25772Q548.8875 194.94522 549.85626 194.94522Q550.825 194.94522 551.45 194.25772Q552.09064 193.57022 552.09064 192.3671ZM555.90314 200.07022L555.90314 198.46085L557.5125 198.46085L557.5125 200.07022L555.90314 200.07022ZM564.41876 200.07022L563.0125 200.07022L563.0125 191.10147Q562.4969 191.58585 561.66876 192.07022Q560.85626 192.5546 560.2 192.8046L560.2 191.44522Q561.3719 190.88272 562.2469 190.10147Q563.1375 189.3046 563.5125 188.57022L564.41876 188.57022L564.41876 200.07022ZM568.3875 191.3671Q568.3875 190.13272 568.9969 189.27335Q569.6219 188.41397 570.79376 188.41397Q571.8719 188.41397 572.575 189.19522Q573.27814 189.96085 573.27814 191.44522Q573.27814 192.89835 572.5594 193.69522Q571.85626 194.47647 570.8094 194.47647Q569.7625 194.47647 569.075 193.71085Q568.3875 192.9296 568.3875 191.3671ZM570.825 189.38272Q570.3094 189.38272 569.95 189.83585Q569.60626 190.28897 569.60626 191.50772Q569.60626 192.60147 569.95 193.0546Q570.3094 193.50772 570.825 193.50772Q571.35626 193.50772 571.7 193.0546Q572.0594 192.60147 572.0594 191.39835Q572.0594 190.28897 571.7 189.83585Q571.35626 189.38272 570.825 189.38272ZM570.84064 200.4921L577.10626 188.41397L578.2469 188.41397L571.9969 200.4921L570.84064 200.4921ZM575.79376 197.38272Q575.79376 196.14835 576.40314 195.28897Q577.02814 194.4296 578.2 194.4296Q579.27814 194.4296 579.98126 195.21085Q580.7 195.97647 580.7 197.46085Q580.7 198.91397 579.98126 199.71085Q579.2625 200.4921 578.21564 200.4921Q577.16876 200.4921 576.48126 199.71085Q575.79376 198.9296 575.79376 197.38272ZM578.2469 195.39835Q577.71564 195.39835 577.35626 195.85147Q577.0125 196.3046 577.0125 197.52335Q577.0125 198.6171 577.35626 199.07022Q577.71564 199.52335 578.23126 199.52335Q578.77814 199.52335 579.1219 199.07022Q579.46564 198.6171 579.46564 197.41397Q579.46564 196.3046 579.10626 195.85147Q578.7625 195.39835 578.2469 195.39835Z" fill-rule="nonzero"/><path stroke="#757575" stroke-width="1.0" stroke-linecap="butt" d="M581.45 183.57022L454.76666 183.57022L439.8898 183.57022" fill-rule="nonzero"/><path fill="#9e9e9e" d="M441.8898 183.57022C441.8898 182.46565 440.9944 181.57022 439.8898 181.57022C438.78525 181.57022 437.8898 182.46565 437.8898 183.57022C437.8898 184.67479 438.78525 185.57022 439.8898 185.57022C440.9944 185.57022 441.8898 184.67479 441.8898 183.57022" fill-rule="nonzero"/><path fill="#efefef" d="M531.6375 256.89325L531.6375 245.44012L533.91876 245.44012L536.6375 253.5495Q537.0125 254.6745 537.1844 255.237Q537.3719 254.612 537.79376 253.40887L540.52814 245.44012L542.575 245.44012L542.575 256.89325L541.10626 256.89325L541.10626 247.2995L537.77814 256.89325L536.41876 256.89325L533.10626 247.14325L533.10626 256.89325L531.6375 256.89325ZM544.5125 247.0495L544.5125 245.44012L545.91876 245.44012L545.91876 247.0495L544.5125 247.0495ZM544.5125 256.89325L544.5125 248.59637L545.91876 248.59637L545.91876 256.89325L544.5125 256.89325ZM548.48126 256.89325L548.48126 245.44012L549.8875 245.44012L549.8875 256.89325L548.48126 256.89325ZM552.5125 247.0495L552.5125 245.44012L553.91876 245.44012L553.91876 247.0495L552.5125 247.0495ZM552.5125 256.89325L552.5125 248.59637L553.91876 248.59637L553.91876 256.89325L552.5125 256.89325ZM559.575 255.62762L559.77814 256.87762Q559.1844 257.00262 558.71564 257.00262Q557.95 257.00262 557.52814 256.76825Q557.10626 256.51825 556.9344 256.12762Q556.7625 255.72137 556.7625 254.45575L556.7625 249.69012L555.73126 249.69012L555.73126 248.59637L556.7625 248.59637L556.7625 246.53387L558.16876 245.69012L558.16876 248.59637L559.575 248.59637L559.575 249.69012L558.16876 249.69012L558.16876 254.53387Q558.16876 255.14325 558.23126 255.31512Q558.3094 255.487 558.48126 255.59637Q558.65314 255.69012 558.96564 255.69012Q559.2 255.69012 559.575 255.62762ZM565.91876 255.862Q565.1375 256.53387 564.41876 256.81512Q563.7 257.08075 562.8719 257.08075Q561.4969 257.08075 560.7625 256.40887Q560.02814 255.737 560.02814 254.70575Q560.02814 254.09637 560.3094 253.59637Q560.59064 253.08075 561.02814 252.78387Q561.48126 252.47137 562.04376 252.31512Q562.46564 252.20575 563.29376 252.112Q564.9969 251.90887 565.8094 251.62762Q565.8094 251.33075 565.8094 251.25262Q565.8094 250.39325 565.41876 250.0495Q564.8719 249.56512 563.8094 249.56512Q562.825 249.56512 562.34064 249.9245Q561.8719 250.26825 561.65314 251.14325L560.27814 250.95575Q560.46564 250.08075 560.8875 249.53387Q561.325 248.987 562.1375 248.70575Q562.95 248.40887 564.0125 248.40887Q565.075 248.40887 565.73126 248.65887Q566.40314 248.90887 566.71564 249.28387Q567.02814 249.65887 567.15314 250.237Q567.23126 250.59637 567.23126 251.53387L567.23126 253.40887Q567.23126 255.37762 567.3094 255.89325Q567.40314 256.40887 567.66876 256.89325L566.2 256.89325Q565.98126 256.45575 565.91876 255.862ZM565.8094 252.72137Q565.04376 253.03387 563.5125 253.25262Q562.6375 253.37762 562.27814 253.53387Q561.91876 253.69012 561.71564 254.00262Q561.52814 254.2995 561.52814 254.65887Q561.52814 255.22137 561.95 255.59637Q562.3875 255.97137 563.2 255.97137Q564.0125 255.97137 564.6375 255.62762Q565.27814 255.26825 565.575 254.64325Q565.8094 254.1745 565.8094 253.237L565.8094 252.72137ZM569.4969 256.89325L569.4969 248.59637L570.7625 248.59637L570.7625 249.84637Q571.2469 248.97137 571.65314 248.69012Q572.0594 248.40887 572.5594 248.40887Q573.2625 248.40887 573.9969 248.862L573.5125 250.15887Q572.9969 249.862 572.48126 249.862Q572.02814 249.862 571.65314 250.14325Q571.29376 250.40887 571.1375 250.90887Q570.90314 251.65887 570.90314 252.5495L570.90314 256.89325L569.4969 256.89325ZM574.45 260.09637L574.29376 258.76825Q574.7469 258.89325 575.09064 258.89325Q575.5594 258.89325 575.84064 258.737Q576.1219 258.58075 576.3094 258.2995Q576.4344 258.09637 576.73126 257.25262Q576.77814 257.14325 576.85626 256.90887L573.71564 248.59637L575.23126 248.59637L576.95 253.39325Q577.29376 254.31512 577.5594 255.31512Q577.79376 254.34637 578.1375 253.4245L579.90314 248.59637L581.3094 248.59637L578.15314 257.03387Q577.65314 258.40887 577.3719 258.9245Q576.9969 259.612 576.5125 259.94012Q576.02814 260.26825 575.35626 260.26825Q574.95 260.26825 574.45 260.09637Z" fill-rule="nonzero"/><path fill="#9e9e9e" d="M546.325 276.237L547.6844 276.112Q547.85626 277.06512 548.34064 277.50262Q548.825 277.9245 549.575 277.9245Q550.23126 277.9245 550.71564 277.62762Q551.2 277.33075 551.5125 276.84637Q551.825 276.34637 552.02814 275.50262Q552.2469 274.65887 552.2469 273.78387Q552.2469 273.69012 552.2469 273.50262Q551.825 274.1745 551.09064 274.59637Q550.35626 275.00262 549.5125 275.00262Q548.09064 275.00262 547.10626 273.97137Q546.1219 272.94012 546.1219 271.25262Q546.1219 269.51825 547.1375 268.45575Q548.16876 267.39325 549.71564 267.39325Q550.84064 267.39325 551.7625 268.00262Q552.6844 268.59637 553.16876 269.70575Q553.65314 270.81512 553.65314 272.9245Q553.65314 275.12762 553.16876 276.4245Q552.7 277.72137 551.7469 278.40887Q550.8094 279.09637 549.54376 279.09637Q548.2 279.09637 547.34064 278.34637Q546.4969 277.59637 546.325 276.237ZM552.09064 271.19012Q552.09064 269.97137 551.4344 269.26825Q550.79376 268.5495 549.8875 268.5495Q548.95 268.5495 548.2469 269.31512Q547.5594 270.08075 547.5594 271.2995Q547.5594 272.39325 548.21564 273.08075Q548.8875 273.76825 549.85626 273.76825Q550.825 273.76825 551.45 273.08075Q552.09064 272.39325 552.09064 271.19012ZM555.90314 278.89325L555.90314 277.28387L557.5125 277.28387L557.5125 278.89325L555.90314 278.89325ZM564.41876 278.89325L563.0125 278.89325L563.0125 269.9245Q562.4969 270.40887 561.66876 270.89325Q560.85626 271.37762 560.2 271.62762L560.2 270.26825Q561.3719 269.70575 562.2469 268.9245Q563.1375 268.12762 563.5125 267.39325L564.41876 267.39325L564.41876 278.89325ZM568.3875 270.19012Q568.3875 268.95575 568.9969 268.09637Q569.6219 267.237 570.79376 267.237Q571.8719 267.237 572.575 268.01825Q573.27814 268.78387 573.27814 270.26825Q573.27814 271.72137 572.5594 272.51825Q571.85626 273.2995 570.8094 273.2995Q569.7625 273.2995 569.075 272.53387Q568.3875 271.75262 568.3875 270.19012ZM570.825 268.20575Q570.3094 268.20575 569.95 268.65887Q569.60626 269.112 569.60626 270.33075Q569.60626 271.4245 569.95 271.87762Q570.3094 272.33075 570.825 272.33075Q571.35626 272.33075 571.7 271.87762Q572.0594 271.4245 572.0594 270.22137Q572.0594 269.112 571.7 268.65887Q571.35626 268.20575 570.825 268.20575ZM570.84064 279.31512L577.10626 267.237L578.2469 267.237L571.9969 279.31512L570.84064 279.31512ZM575.79376 276.20575Q575.79376 274.97137 576.40314 274.112Q577.02814 273.25262 578.2 273.25262Q579.27814 273.25262 579.98126 274.03387Q580.7 274.7995 580.7 276.28387Q580.7 277.737 579.98126 278.53387Q579.2625 279.31512 578.21564 279.31512Q577.16876 279.31512 576.48126 278.53387Q575.79376 277.75262 575.79376 276.20575ZM578.2469 274.22137Q577.71564 274.22137 577.35626 274.6745Q577.0125 275.12762 577.0125 276.34637Q577.0125 277.44012 577.35626 277.89325Q577.71564 278.34637 578.23126 278.34637Q578.77814 278.34637 579.1219 277.89325Q579.46564 277.44012 579.46564 276.237Q579.46564 275.12762 579.10626 274.6745Q578.7625 274.22137 578.2469 274.22137Z" fill-rule="nonzero"/><path stroke="#757575" stroke-width="1.0" stroke-linecap="butt" d="M581.45 262.39325L454.76666 262.39325L428.55676 262.39325" fill-rule="nonzero"/><path fill="#9e9e9e" d="M430.55676 262.39325C430.55676 261.28867 429.66135 260.39325 428.55676 260.39325C427.4522 260.39325 426.55676 261.28867 426.55676 262.39325C426.55676 263.4978 427.4522 264.39325 428.55676 264.39325C429.66135 264.39325 430.55676 263.4978 430.55676 262.39325" fill-rule="nonzero"/><path fill="#f3f3f3" d="M271.26562 32.534374L273.15625 33.003124Q272.5625 35.346874 271.01562 36.58125Q269.46875 37.8 267.21875 37.8Q264.90625 37.8 263.45312 36.8625Q262.01562 35.909374 261.25 34.128124Q260.5 32.33125 260.5 30.284374Q260.5 28.05 261.34375 26.39375Q262.20312 24.721874 263.78125 23.8625Q265.35938 22.9875 267.25 22.9875Q269.40625 22.9875 270.85938 24.08125Q272.32812 25.175 272.90625 27.159374L271.04688 27.596874Q270.54688 26.034374 269.59375 25.33125Q268.65625 24.6125 267.21875 24.6125Q265.5625 24.6125 264.45312 25.409374Q263.34375 26.190624 262.89062 27.534374Q262.45312 28.8625 262.45312 30.26875Q262.45312 32.096874 262.98438 33.471874Q263.51562 34.83125 264.64062 35.503124Q265.76562 36.175 267.0625 36.175Q268.65625 36.175 269.76562 35.253124Q270.875 34.33125 271.26562 32.534374ZM281.59375 36.26875Q280.60938 37.096874 279.70312 37.440624Q278.79688 37.784374 277.76562 37.784374Q276.0625 37.784374 275.14062 36.95625Q274.21875 36.1125 274.21875 34.815624Q274.21875 34.05 274.5625 33.425Q274.92188 32.8 275.48438 32.425Q276.04688 32.034374 276.75 31.83125Q277.26562 31.70625 278.3125 31.565624Q280.4375 31.315624 281.4375 30.971874Q281.45312 30.6125 281.45312 30.503124Q281.45312 29.440624 280.95312 28.9875Q280.28125 28.39375 278.95312 28.39375Q277.70312 28.39375 277.10938 28.83125Q276.53125 29.26875 276.25 30.378124L274.53125 30.14375Q274.76562 29.034374 275.29688 28.3625Q275.82812 27.675 276.84375 27.315624Q277.85938 26.940624 279.20312 26.940624Q280.53125 26.940624 281.35938 27.253124Q282.1875 27.565624 282.57812 28.05Q282.96875 28.51875 283.125 29.2375Q283.21875 29.690624 283.21875 30.8625L283.21875 33.20625Q283.21875 35.659374 283.32812 36.315624Q283.4375 36.95625 283.78125 37.55L281.9375 37.55Q281.67188 37.003124 281.59375 36.26875ZM281.4375 32.346874Q280.48438 32.7375 278.5625 33.003124Q277.48438 33.159374 277.03125 33.3625Q276.59375 33.55 276.34375 33.925Q276.09375 34.3 276.09375 34.76875Q276.09375 35.471874 276.625 35.940624Q277.15625 36.409374 278.1875 36.409374Q279.20312 36.409374 279.98438 35.971874Q280.78125 35.51875 281.15625 34.753124Q281.4375 34.14375 281.4375 32.9875L281.4375 32.346874ZM289.65625 35.971874L289.90625 37.534374Q289.17188 37.690624 288.57812 37.690624Q287.625 37.690624 287.09375 37.39375Q286.57812 37.08125 286.35938 36.596874Q286.14062 36.096874 286.14062 34.51875L286.14062 28.55L284.85938 28.55L284.85938 27.175L286.14062 27.175L286.14062 24.6125L287.89062 23.55L287.89062 27.175L289.65625 27.175L289.65625 28.55L287.89062 28.55L287.89062 34.6125Q287.89062 35.3625 287.98438 35.58125Q288.07812 35.784374 288.28125 35.925Q288.5 36.05 288.89062 36.05Q289.17188 36.05 289.65625 35.971874ZM298.92188 34.20625L300.73438 34.440624Q300.3125 36.01875 299.14062 36.909374Q297.98438 37.784374 296.17188 37.784374Q293.90625 37.784374 292.5625 36.39375Q291.23438 34.9875 291.23438 32.45625Q291.23438 29.83125 292.57812 28.39375Q293.92188 26.940624 296.07812 26.940624Q298.15625 26.940624 299.46875 28.3625Q300.79688 29.76875 300.79688 32.346874Q300.79688 32.503124 300.78125 32.815624L293.04688 32.815624Q293.14062 34.51875 294.01562 35.425Q294.89062 36.33125 296.1875 36.33125Q297.15625 36.33125 297.82812 35.83125Q298.51562 35.315624 298.92188 34.20625ZM293.14062 31.3625L298.9375 31.3625Q298.82812 30.065624 298.28125 29.409374Q297.4375 28.39375 296.09375 28.39375Q294.89062 28.39375 294.0625 29.20625Q293.23438 30.003124 293.14062 31.3625ZM302.5 38.409374L304.20312 38.659374Q304.3125 39.45625 304.79688 39.815624Q305.45312 40.3 306.59375 40.3Q307.8125 40.3 308.46875 39.815624Q309.14062 39.33125 309.375 38.45625Q309.51562 37.909374 309.5 36.190624Q308.34375 37.55 306.625 37.55Q304.48438 37.55 303.3125 36.003124Q302.14062 34.45625 302.14062 32.3Q302.14062 30.815624 302.67188 29.565624Q303.21875 28.315624 304.23438 27.628124Q305.26562 26.940624 306.64062 26.940624Q308.46875 26.940624 309.67188 28.425L309.67188 27.175L311.28125 27.175L311.28125 36.14375Q311.28125 38.565624 310.78125 39.565624Q310.29688 40.58125 309.21875 41.159374Q308.15625 41.753124 306.59375 41.753124Q304.75 41.753124 303.59375 40.925Q302.45312 40.096874 302.5 38.409374ZM303.95312 32.175Q303.95312 34.221874 304.76562 35.159374Q305.57812 36.096874 306.79688 36.096874Q308.0 36.096874 308.8125 35.159374Q309.64062 34.221874 309.64062 32.2375Q309.64062 30.33125 308.79688 29.3625Q307.95312 28.39375 306.76562 28.39375Q305.59375 28.39375 304.76562 29.346874Q303.95312 30.3 303.95312 32.175ZM313.17188 32.3625Q313.17188 29.4875 314.76562 28.096874Q316.10938 26.940624 318.03125 26.940624Q320.17188 26.940624 321.51562 28.346874Q322.875 29.753124 322.875 32.221874Q322.875 34.221874 322.28125 35.378124Q321.6875 36.51875 320.53125 37.159374Q319.39062 37.784374 318.03125 37.784374Q315.84375 37.784374 314.5 36.39375Q313.17188 34.9875 313.17188 32.3625ZM314.96875 32.3625Q314.96875 34.3625 315.82812 35.346874Q316.70312 36.33125 318.03125 36.33125Q319.34375 36.33125 320.20312 35.346874Q321.07812 34.346874 321.07812 32.3Q321.07812 30.378124 320.20312 29.39375Q319.32812 28.39375 318.03125 28.39375Q316.70312 28.39375 315.82812 29.39375Q314.96875 30.378124 314.96875 32.3625ZM324.79688 37.55L324.79688 27.175L326.375 27.175L326.375 28.753124Q326.98438 27.64375 327.5 27.3Q328.01562 26.940624 328.625 26.940624Q329.51562 26.940624 330.4375 27.503124L329.82812 29.14375Q329.1875 28.753124 328.54688 28.753124Q327.96875 28.753124 327.5 29.1125Q327.04688 29.45625 326.84375 30.065624Q326.5625 31.003124 326.5625 32.1125L326.5625 37.55L324.79688 37.55ZM331.73438 41.55L331.54688 39.89375Q332.125 40.05 332.54688 40.05Q333.14062 40.05 333.48438 39.846874Q333.84375 39.659374 334.0625 39.315624Q334.23438 39.05 334.60938 38.003124Q334.65625 37.846874 334.76562 37.565624L330.82812 27.175L332.71875 27.175L334.875 33.190624Q335.29688 34.33125 335.625 35.58125Q335.9375 34.378124 336.34375 33.221874L338.5625 27.175L340.32812 27.175L336.375 37.721874Q335.75 39.440624 335.39062 40.08125Q334.92188 40.95625 334.3125 41.346874Q333.71875 41.753124 332.875 41.753124Q332.35938 41.753124 331.73438 41.55Z" fill-rule="nonzero"/></svg>