<svg version="1.1" viewBox="0.0 0.0 600.0 371.0" fill="none" stroke="none" stroke-linecap="square" stroke-miterlimit="10" width="600" height="371" xmlns:xlink="http://www.w3.org/1999/xlink" xmlns="http://www.w3.org/2000/svg"><path fill="#ffffff" fill-opacity="0.0" d="M0 0L600.0 0L600.0 371.0L0 371.0L0 0Z" fill-rule="nonzero"/><path fill="#df8d43" d="M230.86469 71.95699C252.19064 60.764263 275.91528 54.916668 300.0 54.916668L300.0 166.49167C293.97882 166.49167 288.04767 167.95357 282.71616 170.75175Z" fill-rule="nonzero"/><path fill="#cf4366" d="M264.3978 348.1271C204.3838 333.335 159.76839 282.9746 152.31801 221.61517C144.86763 160.25575 176.13457 100.68157 230.86469 71.95699L282.71616 170.75175C269.03363 177.93289 261.21692 192.82643 263.0795 208.16629C264.9421 223.50615 276.09595 236.09625 291.09946 239.79428Z" fill-rule="nonzero"/><path fill="#304388" d="M300.0 54.916668C357.45438 54.916668 409.77304 88.00098 434.40332 139.90817C459.03357 191.81537 451.57217 253.26567 415.2354 297.7701C378.89865 342.27457 320.18268 361.87683 264.3978 348.1271L291.09946 239.79428C305.04565 243.2317 319.72467 238.33115 328.80884 227.20503C337.89304 216.07892 339.7584 200.71634 333.60083 187.73955C327.44327 174.76274 314.3636 166.49167 300.0 166.49167Z" fill-rule="nonzero"/><path fill="#ffffff" d="M378.72067 219.37195L380.37692 219.23132Q380.56442 220.45007 381.2363 221.05945Q381.90817 221.66882 382.8613 221.66882Q384.00192 221.66882 384.78317 220.80945Q385.58005 219.95007 385.58005 218.51257Q385.58005 217.16882 384.81442 216.38757Q384.06442 215.60632 382.83005 215.60632Q382.06442 215.60632 381.43942 215.95007Q380.83005 216.29382 380.4863 216.85632L379.00192 216.6532L380.25192 210.04382L386.65817 210.04382L386.65817 211.54382L381.51755 211.54382L380.81442 215.01257Q381.9863 214.20007 383.25192 214.20007Q384.93942 214.20007 386.09567 215.37195Q387.26755 216.54382 387.26755 218.37195Q387.26755 220.12195 386.2363 221.4032Q385.00192 222.9657 382.8613 222.9657Q381.09567 222.9657 379.9863 221.98132Q378.87692 220.99695 378.72067 219.37195ZM388.72067 219.3407L390.31442 219.13757Q390.58005 220.48132 391.2363 221.07507Q391.89255 221.66882 392.83005 221.66882Q393.95505 221.66882 394.72067 220.9032Q395.4863 220.12195 395.4863 218.98132Q395.4863 217.88757 394.76755 217.18445Q394.06442 216.4657 392.97067 216.4657Q392.51755 216.4657 391.84567 216.6532L392.01755 215.26257Q392.1738 215.2782 392.28317 215.2782Q393.28317 215.2782 394.09567 214.74695Q394.90817 214.2157 394.90817 213.12195Q394.90817 212.24695 394.31442 211.68445Q393.72067 211.10632 392.7988 211.10632Q391.87692 211.10632 391.25192 211.68445Q390.64255 212.26257 390.47067 213.43445L388.89255 213.1532Q389.1738 211.55945 390.20505 210.68445Q391.2363 209.80945 392.76755 209.80945Q393.81442 209.80945 394.70505 210.26257Q395.59567 210.7157 396.06442 211.49695Q396.53317 212.2782 396.53317 213.1532Q396.53317 213.99695 396.08005 214.68445Q395.64255 215.35632 394.75192 215.76257Q395.89255 216.0282 396.51755 216.87195Q397.15817 217.70007 397.15817 218.93445Q397.15817 220.62195 395.9238 221.80945Q394.70505 222.98132 392.83005 222.98132Q391.12692 222.98132 390.00192 221.9657Q388.89255 220.95007 388.72067 219.3407ZM399.6113 222.74695L399.6113 220.95007L401.40817 220.95007L401.40817 222.74695L399.6113 222.74695ZM406.15817 215.76257Q405.1738 215.4032 404.68942 214.73132Q404.22067 214.05945 404.22067 213.13757Q404.22067 211.73132 405.22067 210.7782Q406.2363 209.80945 407.9238 209.80945Q409.6113 209.80945 410.62692 210.79382Q411.65817 211.76257 411.65817 213.16882Q411.65817 214.07507 411.18942 214.74695Q410.72067 215.4032 409.76755 215.76257Q410.95505 216.1532 411.56442 217.01257Q412.18942 217.87195 412.18942 219.05945Q412.18942 220.7157 411.01755 221.8407Q409.84567 222.9657 407.93942 222.9657Q406.03317 222.9657 404.8613 221.8407Q403.70505 220.70007 403.70505 219.01257Q403.70505 217.76257 404.33005 216.91882Q404.97067 216.05945 406.15817 215.76257ZM405.83005 213.07507Q405.83005 213.99695 406.4238 214.57507Q407.01755 215.1532 407.95505 215.1532Q408.8613 215.1532 409.43942 214.57507Q410.03317 213.99695 410.03317 213.16882Q410.03317 212.29382 409.4238 211.70007Q408.83005 211.10632 407.93942 211.10632Q407.03317 211.10632 406.4238 211.68445Q405.83005 212.26257 405.83005 213.07507ZM405.33005 219.0282Q405.33005 219.70007 405.64255 220.3407Q405.97067 220.9657 406.59567 221.32507Q407.2363 221.66882 407.97067 221.66882Q409.09567 221.66882 409.83005 220.93445Q410.58005 220.20007 410.58005 219.07507Q410.58005 217.93445 409.81442 217.20007Q409.0488 216.45007 407.90817 216.45007Q406.7988 216.45007 406.06442 217.18445Q405.33005 217.91882 405.33005 219.0282ZM414.01755 212.95007Q414.01755 211.57507 414.70505 210.60632Q415.40817 209.63757 416.72067 209.63757Q417.93942 209.63757 418.7363 210.51257Q419.53317 211.37195 419.53317 213.05945Q419.53317 214.68445 418.72067 215.57507Q417.9238 216.45007 416.7363 216.45007Q415.58005 216.45007 414.7988 215.5907Q414.01755 214.7157 414.01755 212.95007ZM416.76755 210.73132Q416.1738 210.73132 415.78317 211.24695Q415.39255 211.74695 415.39255 213.10632Q415.39255 214.35632 415.78317 214.85632Q416.18942 215.35632 416.76755 215.35632Q417.3613 215.35632 417.75192 214.85632Q418.14255 214.3407 418.14255 212.99695Q418.14255 211.74695 417.75192 211.24695Q417.3613 210.73132 416.76755 210.73132ZM416.78317 223.2157L423.83005 209.63757L425.1113 209.63757L418.08005 223.2157L416.78317 223.2157ZM422.34567 219.7157Q422.34567 218.3407 423.03317 217.37195Q423.7363 216.4032 425.06442 216.4032Q426.28317 216.4032 427.06442 217.2782Q427.8613 218.13757 427.8613 219.82507Q427.8613 221.45007 427.06442 222.3407Q426.26755 223.2157 425.08005 223.2157Q423.90817 223.2157 423.12692 222.3407Q422.34567 221.4657 422.34567 219.7157ZM425.1113 217.49695Q424.51755 217.49695 424.12692 218.01257Q423.7363 218.51257 423.7363 219.88757Q423.7363 221.10632 424.12692 221.62195Q424.51755 222.13757 425.09567 222.13757Q425.70505 222.13757 426.09567 221.62195Q426.4863 221.10632 426.4863 219.76257Q426.4863 218.51257 426.09567 218.01257Q425.70505 217.49695 425.1113 217.49695Z" fill-rule="nonzero"/><path fill="#ffffff" d="M171.77933 219.3407L173.37308 219.13757Q173.6387 220.48132 174.29495 221.07507Q174.9512 221.66882 175.8887 221.66882Q177.0137 221.66882 177.77933 220.9032Q178.54495 220.12195 178.54495 218.98132Q178.54495 217.88757 177.8262 217.18445Q177.12308 216.4657 176.02933 216.4657Q175.5762 216.4657 174.90433 216.6532L175.0762 215.26257Q175.23245 215.2782 175.34183 215.2782Q176.34183 215.2782 177.15433 214.74695Q177.96683 214.2157 177.96683 213.12195Q177.96683 212.24695 177.37308 211.68445Q176.77933 211.10632 175.85745 211.10632Q174.93558 211.10632 174.31058 211.68445Q173.7012 212.26257 173.52933 213.43445L171.9512 213.1532Q172.23245 211.55945 173.2637 210.68445Q174.29495 209.80945 175.8262 209.80945Q176.87308 209.80945 177.7637 210.26257Q178.65433 210.7157 179.12308 211.49695Q179.59183 212.2782 179.59183 213.1532Q179.59183 213.99695 179.1387 214.68445Q178.7012 215.35632 177.81058 215.76257Q178.9512 216.0282 179.5762 216.87195Q180.21683 217.70007 180.21683 218.93445Q180.21683 220.62195 178.98245 221.80945Q177.7637 222.98132 175.8887 222.98132Q174.18558 222.98132 173.06058 221.9657Q171.9512 220.95007 171.77933 219.3407ZM184.21683 215.76257Q183.23245 215.4032 182.74808 214.73132Q182.27933 214.05945 182.27933 213.13757Q182.27933 211.73132 183.27933 210.7782Q184.29495 209.80945 185.98245 209.80945Q187.66995 209.80945 188.68558 210.79382Q189.71683 211.76257 189.71683 213.16882Q189.71683 214.07507 189.24808 214.74695Q188.77933 215.4032 187.8262 215.76257Q189.0137 216.1532 189.62308 217.01257Q190.24808 217.87195 190.24808 219.05945Q190.24808 220.7157 189.0762 221.8407Q187.90433 222.9657 185.99808 222.9657Q184.09183 222.9657 182.91995 221.8407Q181.7637 220.70007 181.7637 219.01257Q181.7637 217.76257 182.3887 216.91882Q183.02933 216.05945 184.21683 215.76257ZM183.8887 213.07507Q183.8887 213.99695 184.48245 214.57507Q185.0762 215.1532 186.0137 215.1532Q186.91995 215.1532 187.49808 214.57507Q188.09183 213.99695 188.09183 213.16882Q188.09183 212.29382 187.48245 211.70007Q186.8887 211.10632 185.99808 211.10632Q185.09183 211.10632 184.48245 211.68445Q183.8887 212.26257 183.8887 213.07507ZM183.3887 219.0282Q183.3887 219.70007 183.7012 220.3407Q184.02933 220.9657 184.65433 221.32507Q185.29495 221.66882 186.02933 221.66882Q187.15433 221.66882 187.8887 220.93445Q188.6387 220.20007 188.6387 219.07507Q188.6387 217.93445 187.87308 217.20007Q187.10745 216.45007 185.96683 216.45007Q184.85745 216.45007 184.12308 217.18445Q183.3887 217.91882 183.3887 219.0282ZM192.66995 222.74695L192.66995 220.95007L194.46683 220.95007L194.46683 222.74695L192.66995 222.74695ZM196.77933 219.37195L198.43558 219.23132Q198.62308 220.45007 199.29495 221.05945Q199.96683 221.66882 200.91995 221.66882Q202.06058 221.66882 202.84183 220.80945Q203.6387 219.95007 203.6387 218.51257Q203.6387 217.16882 202.87308 216.38757Q202.12308 215.60632 200.8887 215.60632Q200.12308 215.60632 199.49808 215.95007Q198.8887 216.29382 198.54495 216.85632L197.06058 216.6532L198.31058 210.04382L204.71683 210.04382L204.71683 211.54382L199.5762 211.54382L198.87308 215.01257Q200.04495 214.20007 201.31058 214.20007Q202.99808 214.20007 204.15433 215.37195Q205.3262 216.54382 205.3262 218.37195Q205.3262 220.12195 204.29495 221.4032Q203.06058 222.9657 200.91995 222.9657Q199.15433 222.9657 198.04495 221.98132Q196.93558 220.99695 196.77933 219.37195ZM207.0762 212.95007Q207.0762 211.57507 207.7637 210.60632Q208.46683 209.63757 209.77933 209.63757Q210.99808 209.63757 211.79495 210.51257Q212.59183 211.37195 212.59183 213.05945Q212.59183 214.68445 211.77933 215.57507Q210.98245 216.45007 209.79495 216.45007Q208.6387 216.45007 207.85745 215.5907Q207.0762 214.7157 207.0762 212.95007ZM209.8262 210.73132Q209.23245 210.73132 208.84183 211.24695Q208.4512 211.74695 208.4512 213.10632Q208.4512 214.35632 208.84183 214.85632Q209.24808 215.35632 209.8262 215.35632Q210.41995 215.35632 210.81058 214.85632Q211.2012 214.3407 211.2012 212.99695Q211.2012 211.74695 210.81058 211.24695Q210.41995 210.73132 209.8262 210.73132ZM209.84183 223.2157L216.8887 209.63757L218.16995 209.63757L211.1387 223.2157L209.84183 223.2157ZM215.40433 219.7157Q215.40433 218.3407 216.09183 217.37195Q216.79495 216.4032 218.12308 216.4032Q219.34183 216.4032 220.12308 217.2782Q220.91995 218.13757 220.91995 219.82507Q220.91995 221.45007 220.12308 222.3407Q219.3262 223.2157 218.1387 223.2157Q216.96683 223.2157 216.18558 222.3407Q215.40433 221.4657 215.40433 219.7157ZM218.16995 217.49695Q217.5762 217.49695 217.18558 218.01257Q216.79495 218.51257 216.79495 219.88757Q216.79495 221.10632 217.18558 221.62195Q217.5762 222.13757 218.15433 222.13757Q218.7637 222.13757 219.15433 221.62195Q219.54495 221.10632 219.54495 219.76257Q219.54495 218.51257 219.15433 218.01257Q218.7637 217.49695 218.16995 217.49695Z" fill-rule="nonzero"/><path fill="#ffffff" d="M253.32883 89.31296L253.32883 87.79733L261.65695 87.79733L261.65695 89.03171Q260.4382 90.34421 259.21945 92.51608Q258.01633 94.67233 257.36008 96.96921Q256.8757 98.59421 256.7507 100.51608L255.1257 100.51608Q255.15695 99.00046 255.71945 96.84421Q256.29758 94.68796 257.36008 92.68796Q258.42258 90.68796 259.6257 89.31296L253.32883 89.31296ZM264.11008 100.51608L264.11008 98.71921L265.90695 98.71921L265.90695 100.51608L264.11008 100.51608ZM268.32883 89.31296L268.32883 87.79733L276.65695 87.79733L276.65695 89.03171Q275.4382 90.34421 274.21945 92.51608Q273.01633 94.67233 272.36008 96.96921Q271.8757 98.59421 271.7507 100.51608L270.1257 100.51608Q270.15695 99.00046 270.71945 96.84421Q271.29758 94.68796 272.36008 92.68796Q273.42258 90.68796 274.6257 89.31296L268.32883 89.31296ZM278.51633 90.71921Q278.51633 89.34421 279.20383 88.37546Q279.90695 87.40671 281.21945 87.40671Q282.4382 87.40671 283.23508 88.28171Q284.03195 89.14108 284.03195 90.82858Q284.03195 92.45358 283.21945 93.34421Q282.42258 94.21921 281.23508 94.21921Q280.07883 94.21921 279.29758 93.35983Q278.51633 92.48483 278.51633 90.71921ZM281.26633 88.50046Q280.67258 88.50046 280.28195 89.01608Q279.89133 89.51608 279.89133 90.87546Q279.89133 92.12546 280.28195 92.62546Q280.6882 93.12546 281.26633 93.12546Q281.86008 93.12546 282.2507 92.62546Q282.64133 92.10983 282.64133 90.76608Q282.64133 89.51608 282.2507 89.01608Q281.86008 88.50046 281.26633 88.50046ZM281.28195 100.98483L288.32883 87.40671L289.61008 87.40671L282.57883 100.98483L281.28195 100.98483ZM286.84445 97.48483Q286.84445 96.10983 287.53195 95.14108Q288.23508 94.17233 289.5632 94.17233Q290.78195 94.17233 291.5632 95.04733Q292.36008 95.90671 292.36008 97.59421Q292.36008 99.21921 291.5632 100.10983Q290.76633 100.98483 289.57883 100.98483Q288.40695 100.98483 287.6257 100.10983Q286.84445 99.23483 286.84445 97.48483ZM289.61008 95.26608Q289.01633 95.26608 288.6257 95.78171Q288.23508 96.28171 288.23508 97.65671Q288.23508 98.87546 288.6257 99.39108Q289.01633 99.90671 289.59445 99.90671Q290.20383 99.90671 290.59445 99.39108Q290.98508 98.87546 290.98508 97.53171Q290.98508 96.28171 290.59445 95.78171Q290.20383 95.26608 289.61008 95.26608Z" fill-rule="nonzero"/><path stroke="#ffffff" stroke-width="1.0" stroke-linejoin="round" stroke-linecap="round" d="M291.09946 239.79428C305.04565 243.2317 319.72467 238.33115 328.80884 227.20503C337.89304 216.07892 339.7584 200.71634 333.60083 187.73955C327.44327 174.76274 314.3636 166.49167 300.0 166.49167L300.0 54.916668C357.45438 54.916668 409.77304 88.00098 434.40332 139.90817C459.03357 191.81537 451.57217 253.26567 415.2354 297.7701C378.89865 342.27457 320.18268 361.87683 264.3978 348.1271" fill-rule="nonzero"/><path stroke="#ffffff" stroke-width="1.0" stroke-linejoin="round" stroke-linecap="round" d="M282.71616 170.75175C269.03363 177.93289 261.21692 192.82643 263.0795 208.16629C264.9421 223.50615 276.09595 236.09625 291.09946 239.79428L264.3978 348.1271C204.3838 333.335 159.76839 282.9746 152.31801 221.61517C144.86763 160.25575 176.13457 100.68157 230.86469 71.95699" fill-rule="nonzero"/><path stroke="#ffffff" stroke-width="1.0" stroke-linejoin="round" stroke-linecap="round" d="M300.0 166.49167C293.97882 166.49167 288.04767 167.95357 282.71616 170.75175L230.86469 71.95699C252.19064 60.764263 275.91528 54.916668 300.0 54.916668" fill-rule="nonzero"/><path fill="#efefef" d="M19.76875 69.916664L19.76875 58.46354L21.33125 58.46354L27.346874 67.447914L27.346874 58.46354L28.8 58.46354L28.8 69.916664L27.2375 69.916664L21.221874 60.916664L21.221874 69.916664L19.76875 69.916664ZM37.01875 68.885414Q36.2375 69.55729 35.51875 69.83854Q34.8 70.104164 33.971874 70.104164Q32.596874 70.104164 31.8625 69.43229Q31.128124 68.760414 31.128124 67.729164Q31.128124 67.11979 31.409374 66.61979Q31.690624 66.104164 32.128124 65.80729Q32.58125 65.49479 33.14375 65.33854Q33.565624 65.229164 34.39375 65.135414Q36.096874 64.93229 36.909374 64.65104Q36.909374 64.354164 36.909374 64.27604Q36.909374 63.416664 36.51875 63.072914Q35.971874 62.58854 34.909374 62.58854Q33.925 62.58854 33.440624 62.947914Q32.971874 63.291664 32.753124 64.166664L31.378124 63.979164Q31.565624 63.104164 31.9875 62.55729Q32.425 62.010414 33.2375 61.729164Q34.05 61.43229 35.1125 61.43229Q36.175 61.43229 36.83125 61.68229Q37.503124 61.93229 37.815624 62.30729Q38.128124 62.68229 38.253124 63.260414Q38.33125 63.61979 38.33125 64.55729L38.33125 66.43229Q38.33125 68.40104 38.409374 68.916664Q38.503124 69.43229 38.76875 69.916664L37.3 69.916664Q37.08125 69.479164 37.01875 68.885414ZM36.909374 65.74479Q36.14375 66.05729 34.6125 66.27604Q33.7375 66.40104 33.378124 66.55729Q33.01875 66.71354 32.815624 67.02604Q32.628124 67.322914 32.628124 67.68229Q32.628124 68.24479 33.05 68.61979Q33.4875 68.99479 34.3 68.99479Q35.1125 68.99479 35.7375 68.65104Q36.378124 68.291664 36.675 67.666664Q36.909374 67.197914 36.909374 66.260414L36.909374 65.74479ZM43.675 68.65104L43.878124 69.90104Q43.284374 70.02604 42.815624 70.02604Q42.05 70.02604 41.628124 69.791664Q41.20625 69.541664 41.034374 69.15104Q40.8625 68.74479 40.8625 67.479164L40.8625 62.71354L39.83125 62.71354L39.83125 61.61979L40.8625 61.61979L40.8625 59.55729L42.26875 58.71354L42.26875 61.61979L43.675 61.61979L43.675 62.71354L42.26875 62.71354L42.26875 67.55729Q42.26875 68.166664 42.33125 68.33854Q42.409374 68.510414 42.58125 68.61979Q42.753124 68.71354 43.065624 68.71354Q43.3 68.71354 43.675 68.65104ZM50.05 69.916664L50.05 68.697914Q49.08125 70.104164 47.409374 70.104164Q46.675 70.104164 46.034374 69.822914Q45.409374 69.541664 45.096874 69.11979Q44.784374 68.68229 44.659374 68.072914Q44.58125 67.65104 44.58125 66.760414L44.58125 61.61979L45.9875 61.61979L45.9875 66.21354Q45.9875 67.322914 46.065624 67.697914Q46.20625 68.260414 46.628124 68.572914Q47.065624 68.885414 47.690624 68.885414Q48.33125 68.885414 48.878124 68.572914Q49.440624 68.24479 49.659374 67.68229Q49.89375 67.11979 49.89375 66.05729L49.89375 61.61979L51.3 61.61979L51.3 69.916664L50.05 69.916664ZM53.596874 69.916664L53.596874 61.61979L54.8625 61.61979L54.8625 62.86979Q55.346874 61.99479 55.753124 61.71354Q56.159374 61.43229 56.659374 61.43229Q57.3625 61.43229 58.096874 61.885414L57.6125 63.18229Q57.096874 62.885414 56.58125 62.885414Q56.128124 62.885414 55.753124 63.166664Q55.39375 63.43229 55.2375 63.93229Q55.003124 64.68229 55.003124 65.572914L55.003124 69.916664L53.596874 69.916664ZM64.28438 67.24479L65.7375 67.416664Q65.39375 68.697914 64.45625 69.40104Q63.534374 70.104164 62.096874 70.104164Q60.26875 70.104164 59.20625 68.979164Q58.14375 67.854164 58.14375 65.83854Q58.14375 63.74479 59.221874 62.58854Q60.3 61.43229 62.01875 61.43229Q63.675 61.43229 64.72188 62.572914Q65.78438 63.697914 65.78438 65.74479Q65.78438 65.86979 65.78438 66.11979L59.596874 66.11979Q59.675 67.49479 60.3625 68.229164Q61.065624 68.947914 62.096874 68.947914Q62.878124 68.947914 63.425 68.541664Q63.971874 68.135414 64.28438 67.24479ZM59.675 64.96354L64.3 64.96354Q64.20625 63.916664 63.76875 63.40104Q63.096874 62.58854 62.034374 62.58854Q61.065624 62.58854 60.39375 63.24479Q59.7375 63.885414 59.675 64.96354ZM67.05 67.43229L68.44063 67.21354Q68.55 68.05729 69.08125 68.510414Q69.62813 68.947914 70.58125 68.947914Q71.55 68.947914 72.01875 68.55729Q72.4875 68.15104 72.4875 67.61979Q72.4875 67.15104 72.08125 66.86979Q71.78438 66.68229 70.64375 66.40104Q69.09688 66.010414 68.4875 65.729164Q67.89375 65.43229 67.58125 64.93229Q67.28438 64.43229 67.28438 63.822914Q67.28438 63.260414 67.53438 62.791664Q67.78438 62.322914 68.22188 62.010414Q68.55 61.760414 69.1125 61.604164Q69.69063 61.43229 70.33125 61.43229Q71.31563 61.43229 72.05 61.71354Q72.78438 61.99479 73.12813 62.479164Q73.4875 62.947914 73.62813 63.760414L72.25313 63.947914Q72.15938 63.30729 71.70625 62.947914Q71.25313 62.58854 70.44063 62.58854Q69.47188 62.58854 69.05 62.916664Q68.64375 63.229164 68.64375 63.65104Q68.64375 63.93229 68.81563 64.15104Q68.9875 64.36979 69.34688 64.52604Q69.56563 64.604164 70.59688 64.885414Q72.08125 65.27604 72.675 65.541664Q73.26875 65.791664 73.59688 66.27604Q73.94063 66.760414 73.94063 67.479164Q73.94063 68.18229 73.51875 68.80729Q73.1125 69.416664 72.33125 69.760414Q71.56563 70.104164 70.59688 70.104164Q68.97188 70.104164 68.12813 69.43229Q67.28438 68.760414 67.05 67.43229ZM81.01875 66.86979L82.40938 67.05729Q82.175 68.479164 81.2375 69.291664Q80.31563 70.104164 78.95625 70.104164Q77.25313 70.104164 76.20625 68.99479Q75.175 67.86979 75.175 65.791664Q75.175 64.447914 75.6125 63.447914Q76.06563 62.43229 76.97188 61.93229Q77.89375 61.43229 78.95625 61.43229Q80.31563 61.43229 81.175 62.11979Q82.03438 62.791664 82.26875 64.05729L80.90938 64.260414Q80.70625 63.43229 80.20625 63.010414Q79.72188 62.58854 79.01875 62.58854Q77.95625 62.58854 77.28438 63.354164Q76.62813 64.104164 76.62813 65.760414Q76.62813 67.43229 77.26875 68.197914Q77.90938 68.947914 78.94063 68.947914Q79.76875 68.947914 80.31563 68.447914Q80.87813 67.93229 81.01875 66.86979ZM89.01875 68.885414Q88.2375 69.55729 87.51875 69.83854Q86.8 70.104164 85.97188 70.104164Q84.59688 70.104164 83.8625 69.43229Q83.12813 68.760414 83.12813 67.729164Q83.12813 67.11979 83.40938 66.61979Q83.69063 66.104164 84.12813 65.80729Q84.58125 65.49479 85.14375 65.33854Q85.56563 65.229164 86.39375 65.135414Q88.09688 64.93229 88.90938 64.65104Q88.90938 64.354164 88.90938 64.27604Q88.90938 63.416664 88.51875 63.072914Q87.97188 62.58854 86.90938 62.58854Q85.925 62.58854 85.44063 62.947914Q84.97188 63.291664 84.75313 64.166664L83.37813 63.979164Q83.56563 63.104164 83.9875 62.55729Q84.425 62.010414 85.2375 61.729164Q86.05 61.43229 87.1125 61.43229Q88.175 61.43229 88.83125 61.68229Q89.50313 61.93229 89.81563 62.30729Q90.12813 62.68229 90.25313 63.260414Q90.33125 63.61979 90.33125 64.55729L90.33125 66.43229Q90.33125 68.40104 90.40938 68.916664Q90.50313 69.43229 90.76875 69.916664L89.3 69.916664Q89.08125 69.479164 89.01875 68.885414ZM88.90938 65.74479Q88.14375 66.05729 86.6125 66.27604Q85.7375 66.40104 85.37813 66.55729Q85.01875 66.71354 84.81563 67.02604Q84.62813 67.322914 84.62813 67.68229Q84.62813 68.24479 85.05 68.61979Q85.4875 68.99479 86.3 68.99479Q87.1125 68.99479 87.7375 68.65104Q88.37813 68.291664 88.675 67.666664Q88.90938 67.197914 88.90938 66.260414L88.90938 65.74479ZM92.6125 73.104164L92.6125 61.61979L93.89375 61.61979L93.89375 62.697914Q94.34688 62.05729 94.90938 61.74479Q95.4875 61.43229 96.3 61.43229Q97.3625 61.43229 98.175 61.979164Q98.9875 62.52604 99.39375 63.52604Q99.81563 64.510414 99.81563 65.697914Q99.81563 66.979164 99.34688 67.99479Q98.89375 69.010414 98.01875 69.55729Q97.15938 70.104164 96.19063 70.104164Q95.4875 70.104164 94.925 69.80729Q94.37813 69.510414 94.01875 69.05729L94.01875 73.104164L92.6125 73.104164ZM93.87813 65.80729Q93.87813 67.416664 94.51875 68.18229Q95.175 68.947914 96.09688 68.947914Q97.03438 68.947914 97.70625 68.15104Q98.37813 67.354164 98.37813 65.697914Q98.37813 64.104164 97.72188 63.322914Q97.06563 62.52604 96.15938 62.52604Q95.26875 62.52604 94.56563 63.36979Q93.87813 64.21354 93.87813 65.80729ZM107.28438 67.24479L108.7375 67.416664Q108.39375 68.697914 107.45625 69.40104Q106.53438 70.104164 105.09688 70.104164Q103.26875 70.104164 102.20625 68.979164Q101.14375 67.854164 101.14375 65.83854Q101.14375 63.74479 102.22188 62.58854Q103.3 61.43229 105.01875 61.43229Q106.675 61.43229 107.72188 62.572914Q108.78438 63.697914 108.78438 65.74479Q108.78438 65.86979 108.78438 66.11979L102.59688 66.11979Q102.675 67.49479 103.3625 68.229164Q104.06563 68.947914 105.09688 68.947914Q105.87813 68.947914 106.425 68.541664Q106.97188 68.135414 107.28438 67.24479ZM102.675 64.96354L107.3 64.96354Q107.20625 63.916664 106.76875 63.40104Q106.09688 62.58854 105.03438 62.58854Q104.06563 62.58854 103.39375 63.24479Q102.7375 63.885414 102.675 64.96354Z" fill-rule="nonzero"/><path fill="#9e9e9e" d="M19.315624 81.96354L19.315624 80.604164L26.721874 80.604164L26.721874 81.697914Q25.628124 82.86979 24.55 84.80729Q23.4875 86.729164 22.89375 88.760414Q22.471874 90.197914 22.3625 91.916664L20.909374 91.916664Q20.940624 90.55729 21.440624 88.65104Q21.95625 86.729164 22.89375 84.96354Q23.846874 83.18229 24.925 81.96354L19.315624 81.96354ZM29.003124 91.916664L29.003124 90.30729L30.6125 90.30729L30.6125 91.916664L29.003124 91.916664ZM32.315624 81.96354L32.315624 80.604164L39.721874 80.604164L39.721874 81.697914Q38.628124 82.86979 37.55 84.80729Q36.4875 86.729164 35.89375 88.760414Q35.471874 90.197914 35.3625 91.916664L33.909374 91.916664Q33.940624 90.55729 34.440624 88.65104Q34.95625 86.729164 35.89375 84.96354Q36.846874 83.18229 37.925 81.96354L32.315624 81.96354ZM41.4875 83.21354Q41.4875 81.979164 42.096874 81.11979Q42.721874 80.260414 43.89375 80.260414Q44.971874 80.260414 45.675 81.041664Q46.378124 81.80729 46.378124 83.291664Q46.378124 84.74479 45.659374 85.541664Q44.95625 86.322914 43.909374 86.322914Q42.8625 86.322914 42.175 85.55729Q41.4875 84.77604 41.4875 83.21354ZM43.925 81.229164Q43.409374 81.229164 43.05 81.68229Q42.70625 82.135414 42.70625 83.354164Q42.70625 84.447914 43.05 84.90104Q43.409374 85.354164 43.925 85.354164Q44.45625 85.354164 44.8 84.90104Q45.159374 84.447914 45.159374 83.24479Q45.159374 82.135414 44.8 81.68229Q44.45625 81.229164 43.925 81.229164ZM43.940624 92.33854L50.20625 80.260414L51.346874 80.260414L45.096874 92.33854L43.940624 92.33854ZM48.89375 89.229164Q48.89375 87.99479 49.503124 87.135414Q50.128124 86.27604 51.3 86.27604Q52.378124 86.27604 53.08125 87.05729Q53.8 87.822914 53.8 89.30729Q53.8 90.760414 53.08125 91.55729Q52.3625 92.33854 51.315624 92.33854Q50.26875 92.33854 49.58125 91.55729Q48.89375 90.77604 48.89375 89.229164ZM51.346874 87.24479Q50.815624 87.24479 50.45625 87.697914Q50.1125 88.15104 50.1125 89.36979Q50.1125 90.46354 50.45625 90.916664Q50.815624 91.36979 51.33125 91.36979Q51.878124 91.36979 52.221874 90.916664Q52.565624 90.46354 52.565624 89.260414Q52.565624 88.15104 52.20625 87.697914Q51.8625 87.24479 51.346874 87.24479Z" fill-rule="nonzero"/><path stroke="#757575" stroke-width="1.0" stroke-linecap="butt" d="M18.55 75.416664L145.23334 75.416664L266.17792 66.46175" fill-rule="nonzero"/><path fill="#9e9e9e" d="M268.17792 66.46175C268.17792 65.35718 267.28247 64.46175 266.17792 64.46175C265.07333 64.46175 264.17792 65.35718 264.17792 66.46175C264.17792 67.566315 265.07333 68.46175 266.17792 68.46175C267.28247 68.46175 268.17792 67.566315 268.17792 66.46175" fill-rule="nonzero"/><path fill="#efefef" d="M19.784374 215.21858L19.784374 203.76546L24.1125 203.76546Q25.253124 203.76546 25.846874 203.87483Q26.690624 204.01546 27.253124 204.40608Q27.83125 204.7967 28.175 205.51546Q28.534374 206.21858 28.534374 207.07796Q28.534374 208.53108 27.596874 209.5467Q26.675 210.56233 24.2375 210.56233L21.3 210.56233L21.3 215.21858L19.784374 215.21858ZM21.3 209.20296L24.26875 209.20296Q25.7375 209.20296 26.346874 208.65608Q26.971874 208.1092 26.971874 207.12483Q26.971874 206.40608 26.596874 205.89046Q26.2375 205.37483 25.64375 205.21858Q25.26875 205.1092 24.2375 205.1092L21.3 205.1092L21.3 209.20296ZM36.284374 212.5467L37.7375 212.71858Q37.39375 213.99983 36.45625 214.70296Q35.534374 215.40608 34.096874 215.40608Q32.26875 215.40608 31.20625 214.28108Q30.14375 213.15608 30.14375 211.14046Q30.14375 209.0467 31.221874 207.89046Q32.3 206.7342 34.01875 206.7342Q35.675 206.7342 36.721874 207.87483Q37.784374 208.99983 37.784374 211.0467Q37.784374 211.1717 37.784374 211.4217L31.596874 211.4217Q31.675 212.7967 32.3625 213.53108Q33.065624 214.24983 34.096874 214.24983Q34.878124 214.24983 35.425 213.84358Q35.971874 213.43733 36.284374 212.5467ZM31.675 210.26546L36.3 210.26546Q36.20625 209.21858 35.76875 208.70296Q35.096874 207.89046 34.034374 207.89046Q33.065624 207.89046 32.39375 208.5467Q31.7375 209.18733 31.675 210.26546ZM39.08125 211.06233Q39.08125 208.76546 40.3625 207.65608Q41.440624 206.7342 42.971874 206.7342Q44.690624 206.7342 45.76875 207.8592Q46.8625 208.96858 46.8625 210.95296Q46.8625 212.5467 46.378124 213.46858Q45.89375 214.39046 44.971874 214.90608Q44.065624 215.40608 42.971874 215.40608Q41.2375 215.40608 40.159374 214.2967Q39.08125 213.1717 39.08125 211.06233ZM40.534374 211.06233Q40.534374 212.65608 41.221874 213.45296Q41.925 214.24983 42.971874 214.24983Q44.01875 214.24983 44.70625 213.45296Q45.409374 212.65608 45.409374 211.01546Q45.409374 209.4842 44.70625 208.68733Q44.01875 207.89046 42.971874 207.89046Q41.925 207.89046 41.221874 208.68733Q40.534374 209.46858 40.534374 211.06233ZM48.6125 218.40608L48.6125 206.9217L49.89375 206.9217L49.89375 207.99983Q50.346874 207.3592 50.909374 207.0467Q51.4875 206.7342 52.3 206.7342Q53.3625 206.7342 54.175 207.28108Q54.9875 207.82796 55.39375 208.82796Q55.815624 209.81233 55.815624 210.99983Q55.815624 212.28108 55.346874 213.2967Q54.89375 214.31233 54.01875 214.8592Q53.159374 215.40608 52.190624 215.40608Q51.4875 215.40608 50.925 215.1092Q50.378124 214.81233 50.01875 214.3592L50.01875 218.40608L48.6125 218.40608ZM49.878124 211.1092Q49.878124 212.71858 50.51875 213.4842Q51.175 214.24983 52.096874 214.24983Q53.034374 214.24983 53.70625 213.45296Q54.378124 212.65608 54.378124 210.99983Q54.378124 209.40608 53.721874 208.62483Q53.065624 207.82796 52.159374 207.82796Q51.26875 207.82796 50.565624 208.6717Q49.878124 209.51546 49.878124 211.1092ZM57.58125 215.21858L57.58125 203.76546L58.9875 203.76546L58.9875 215.21858L57.58125 215.21858ZM67.28438 212.5467L68.7375 212.71858Q68.39375 213.99983 67.45625 214.70296Q66.53438 215.40608 65.09688 215.40608Q63.26875 215.40608 62.20625 214.28108Q61.14375 213.15608 61.14375 211.14046Q61.14375 209.0467 62.221874 207.89046Q63.3 206.7342 65.01875 206.7342Q66.675 206.7342 67.72188 207.87483Q68.78438 208.99983 68.78438 211.0467Q68.78438 211.1717 68.78438 211.4217L62.596874 211.4217Q62.675 212.7967 63.3625 213.53108Q64.06563 214.24983 65.09688 214.24983Q65.87813 214.24983 66.425 213.84358Q66.97188 213.43733 67.28438 212.5467ZM62.675 210.26546L67.3 210.26546Q67.20625 209.21858 66.76875 208.70296Q66.09688 207.89046 65.03438 207.89046Q64.06563 207.89046 63.39375 208.5467Q62.7375 209.18733 62.675 210.26546Z" fill-rule="nonzero"/><path fill="#9e9e9e" d="M19.221874 234.18733L20.628124 233.99983Q20.878124 235.20296 21.45625 235.7342Q22.034374 236.24983 22.878124 236.24983Q23.8625 236.24983 24.55 235.56233Q25.2375 234.87483 25.2375 233.8592Q25.2375 232.89046 24.596874 232.26546Q23.971874 231.64046 22.9875 231.64046Q22.596874 231.64046 22.003124 231.7967L22.159374 230.56233Q22.3 230.57796 22.378124 230.57796Q23.284374 230.57796 24.003124 230.1092Q24.721874 229.64046 24.721874 228.65608Q24.721874 227.89046 24.190624 227.39046Q23.675 226.87483 22.846874 226.87483Q22.01875 226.87483 21.471874 227.39046Q20.925 227.90608 20.76875 228.93733L19.3625 228.68733Q19.628124 227.26546 20.534374 226.49983Q21.45625 225.71858 22.815624 225.71858Q23.753124 225.71858 24.534374 226.12483Q25.33125 226.51546 25.7375 227.21858Q26.159374 227.90608 26.159374 228.68733Q26.159374 229.43733 25.753124 230.0467Q25.3625 230.65608 24.58125 231.01546Q25.596874 231.24983 26.159374 231.9842Q26.721874 232.71858 26.721874 233.82796Q26.721874 235.32796 25.628124 236.37483Q24.534374 237.4217 22.8625 237.4217Q21.3625 237.4217 20.3625 236.53108Q19.3625 235.62483 19.221874 234.18733ZM30.378124 230.99983Q29.503124 230.68733 29.08125 230.09358Q28.659374 229.49983 28.659374 228.6717Q28.659374 227.4217 29.55 226.57796Q30.45625 225.71858 31.95625 225.71858Q33.45625 225.71858 34.3625 226.59358Q35.284374 227.45296 35.284374 228.70296Q35.284374 229.49983 34.8625 230.09358Q34.440624 230.68733 33.596874 230.99983Q34.64375 231.34358 35.190624 232.1092Q35.753124 232.87483 35.753124 233.93733Q35.753124 235.40608 34.70625 236.4217Q33.675 237.4217 31.971874 237.4217Q30.284374 237.4217 29.2375 236.4217Q28.20625 235.40608 28.20625 233.90608Q28.20625 232.78108 28.76875 232.03108Q29.33125 231.28108 30.378124 230.99983ZM30.096874 228.62483Q30.096874 229.43733 30.6125 229.95296Q31.14375 230.46858 31.9875 230.46858Q32.8 230.46858 33.315624 229.95296Q33.83125 229.43733 33.83125 228.70296Q33.83125 227.9217 33.3 227.40608Q32.76875 226.87483 31.971874 226.87483Q31.159374 226.87483 30.628124 227.39046Q30.096874 227.90608 30.096874 228.62483ZM29.64375 233.90608Q29.64375 234.51546 29.925 235.07796Q30.221874 235.64046 30.784374 235.95296Q31.346874 236.24983 31.9875 236.24983Q33.003124 236.24983 33.659374 235.6092Q34.315624 234.95296 34.315624 233.95296Q34.315624 232.93733 33.628124 232.28108Q32.95625 231.6092 31.940624 231.6092Q30.95625 231.6092 30.3 232.26546Q29.64375 232.9217 29.64375 233.90608ZM38.003124 237.21858L38.003124 235.6092L39.6125 235.6092L39.6125 237.21858L38.003124 237.21858ZM41.221874 234.21858L42.690624 234.09358Q42.8625 235.1717 43.45625 235.71858Q44.05 236.24983 44.89375 236.24983Q45.909374 236.24983 46.6125 235.4842Q47.315624 234.71858 47.315624 233.45296Q47.315624 232.24983 46.64375 231.56233Q45.971874 230.8592 44.878124 230.8592Q44.190624 230.8592 43.64375 231.1717Q43.096874 231.4842 42.784374 231.96858L41.471874 231.7967L42.58125 225.9217L48.26875 225.9217L48.26875 227.26546L43.70625 227.26546L43.08125 230.34358Q44.1125 229.62483 45.253124 229.62483Q46.753124 229.62483 47.784374 230.6717Q48.815624 231.70296 48.815624 233.32796Q48.815624 234.89046 47.909374 236.01546Q46.8 237.4217 44.89375 237.4217Q43.33125 237.4217 42.346874 236.5467Q41.3625 235.65608 41.221874 234.21858ZM50.4875 228.51546Q50.4875 227.28108 51.096874 226.4217Q51.721874 225.56233 52.89375 225.56233Q53.971874 225.56233 54.675 226.34358Q55.378124 227.1092 55.378124 228.59358Q55.378124 230.0467 54.659374 230.84358Q53.95625 231.62483 52.909374 231.62483Q51.8625 231.62483 51.175 230.8592Q50.4875 230.07796 50.4875 228.51546ZM52.925 226.53108Q52.409374 226.53108 52.05 226.9842Q51.70625 227.43733 51.70625 228.65608Q51.70625 229.74983 52.05 230.20296Q52.409374 230.65608 52.925 230.65608Q53.45625 230.65608 53.8 230.20296Q54.159374 229.74983 54.159374 228.5467Q54.159374 227.43733 53.8 226.9842Q53.45625 226.53108 52.925 226.53108ZM52.940624 237.64046L59.20625 225.56233L60.346874 225.56233L54.096874 237.64046L52.940624 237.64046ZM57.89375 234.53108Q57.89375 233.2967 58.503124 232.43733Q59.128124 231.57796 60.3 231.57796Q61.378124 231.57796 62.08125 232.3592Q62.8 233.12483 62.8 234.6092Q62.8 236.06233 62.08125 236.8592Q61.3625 237.64046 60.315624 237.64046Q59.26875 237.64046 58.58125 236.8592Q57.89375 236.07796 57.89375 234.53108ZM60.346874 232.5467Q59.815624 232.5467 59.45625 232.99983Q59.1125 233.45296 59.1125 234.6717Q59.1125 235.76546 59.45625 236.21858Q59.815624 236.6717 60.33125 236.6717Q60.878124 236.6717 61.221874 236.21858Q61.565624 235.76546 61.565624 234.56233Q61.565624 233.45296 61.20625 232.99983Q60.8625 232.5467 60.346874 232.5467Z" fill-rule="nonzero"/><path stroke="#757575" stroke-width="1.0" stroke-linecap="butt" d="M18.55 220.71858L145.23334 220.71858L159.7021 220.71858" fill-rule="nonzero"/><path fill="#9e9e9e" d="M161.7021 220.71858C161.7021 219.61401 160.80669 218.71858 159.7021 218.71858C158.59753 218.71858 157.7021 219.61401 157.7021 220.71858C157.7021 221.82315 158.59753 222.71858 159.7021 222.71858C160.80669 222.71858 161.7021 221.82315 161.7021 220.71858" fill-rule="nonzero"/><path fill="#efefef" d="M551.6375 215.21858L551.6375 203.76546L553.91876 203.76546L556.6375 211.87483Q557.0125 212.99983 557.1844 213.56233Q557.3719 212.93733 557.79376 211.7342L560.52814 203.76546L562.575 203.76546L562.575 215.21858L561.10626 215.21858L561.10626 205.62483L557.77814 215.21858L556.41876 215.21858L553.10626 205.46858L553.10626 215.21858L551.6375 215.21858ZM569.91876 214.18733Q569.1375 214.8592 568.41876 215.14046Q567.7 215.40608 566.8719 215.40608Q565.4969 215.40608 564.7625 214.7342Q564.02814 214.06233 564.02814 213.03108Q564.02814 212.4217 564.3094 211.9217Q564.59064 211.40608 565.02814 211.1092Q565.48126 210.7967 566.04376 210.64046Q566.46564 210.53108 567.29376 210.43733Q568.9969 210.2342 569.8094 209.95296Q569.8094 209.65608 569.8094 209.57796Q569.8094 208.71858 569.41876 208.37483Q568.8719 207.89046 567.8094 207.89046Q566.825 207.89046 566.34064 208.24983Q565.8719 208.59358 565.65314 209.46858L564.27814 209.28108Q564.46564 208.40608 564.8875 207.8592Q565.325 207.31233 566.1375 207.03108Q566.95 206.7342 568.0125 206.7342Q569.075 206.7342 569.73126 206.9842Q570.40314 207.2342 570.71564 207.6092Q571.02814 207.9842 571.15314 208.56233Q571.23126 208.9217 571.23126 209.8592L571.23126 211.7342Q571.23126 213.70296 571.3094 214.21858Q571.40314 214.7342 571.66876 215.21858L570.2 215.21858Q569.98126 214.78108 569.91876 214.18733ZM569.8094 211.0467Q569.04376 211.3592 567.5125 211.57796Q566.6375 211.70296 566.27814 211.8592Q565.91876 212.01546 565.71564 212.32796Q565.52814 212.62483 565.52814 212.9842Q565.52814 213.5467 565.95 213.9217Q566.3875 214.2967 567.2 214.2967Q568.0125 214.2967 568.6375 213.95296Q569.27814 213.59358 569.575 212.96858Q569.8094 212.49983 569.8094 211.56233L569.8094 211.0467ZM573.5125 218.40608L573.5125 206.9217L574.79376 206.9217L574.79376 207.99983Q575.2469 207.3592 575.8094 207.0467Q576.3875 206.7342 577.2 206.7342Q578.2625 206.7342 579.075 207.28108Q579.8875 207.82796 580.29376 208.82796Q580.71564 209.81233 580.71564 210.99983Q580.71564 212.28108 580.2469 213.2967Q579.79376 214.31233 578.91876 214.8592Q578.0594 215.40608 577.09064 215.40608Q576.3875 215.40608 575.825 215.1092Q575.27814 214.81233 574.91876 214.3592L574.91876 218.40608L573.5125 218.40608ZM574.77814 211.1092Q574.77814 212.71858 575.41876 213.4842Q576.075 214.24983 576.9969 214.24983Q577.9344 214.24983 578.60626 213.45296Q579.27814 212.65608 579.27814 210.99983Q579.27814 209.40608 578.6219 208.62483Q577.96564 207.82796 577.0594 207.82796Q576.16876 207.82796 575.46564 208.6717Q574.77814 209.51546 574.77814 211.1092Z" fill-rule="nonzero"/><path fill="#9e9e9e" d="M537.1219 234.21858L538.59064 234.09358Q538.7625 235.1717 539.35626 235.71858Q539.95 236.24983 540.79376 236.24983Q541.8094 236.24983 542.5125 235.4842Q543.21564 234.71858 543.21564 233.45296Q543.21564 232.24983 542.54376 231.56233Q541.8719 230.8592 540.77814 230.8592Q540.09064 230.8592 539.54376 231.1717Q538.9969 231.4842 538.6844 231.96858L537.3719 231.7967L538.48126 225.9217L544.16876 225.9217L544.16876 227.26546L539.60626 227.26546L538.98126 230.34358Q540.0125 229.62483 541.15314 229.62483Q542.65314 229.62483 543.6844 230.6717Q544.71564 231.70296 544.71564 233.32796Q544.71564 234.89046 543.8094 236.01546Q542.7 237.4217 540.79376 237.4217Q539.23126 237.4217 538.2469 236.5467Q537.2625 235.65608 537.1219 234.21858ZM546.1219 234.18733L547.52814 233.99983Q547.77814 235.20296 548.35626 235.7342Q548.9344 236.24983 549.77814 236.24983Q550.7625 236.24983 551.45 235.56233Q552.1375 234.87483 552.1375 233.8592Q552.1375 232.89046 551.4969 232.26546Q550.8719 231.64046 549.8875 231.64046Q549.4969 231.64046 548.90314 231.7967L549.0594 230.56233Q549.2 230.57796 549.27814 230.57796Q550.1844 230.57796 550.90314 230.1092Q551.6219 229.64046 551.6219 228.65608Q551.6219 227.89046 551.09064 227.39046Q550.575 226.87483 549.7469 226.87483Q548.91876 226.87483 548.3719 227.39046Q547.825 227.90608 547.66876 228.93733L546.2625 228.68733Q546.52814 227.26546 547.4344 226.49983Q548.35626 225.71858 549.71564 225.71858Q550.65314 225.71858 551.4344 226.12483Q552.23126 226.51546 552.6375 227.21858Q553.0594 227.90608 553.0594 228.68733Q553.0594 229.43733 552.65314 230.0467Q552.2625 230.65608 551.48126 231.01546Q552.4969 231.24983 553.0594 231.9842Q553.6219 232.71858 553.6219 233.82796Q553.6219 235.32796 552.52814 236.37483Q551.4344 237.4217 549.7625 237.4217Q548.2625 237.4217 547.2625 236.53108Q546.2625 235.62483 546.1219 234.18733ZM555.90314 237.21858L555.90314 235.6092L557.5125 235.6092L557.5125 237.21858L555.90314 237.21858ZM561.27814 230.99983Q560.40314 230.68733 559.98126 230.09358Q559.5594 229.49983 559.5594 228.6717Q559.5594 227.4217 560.45 226.57796Q561.35626 225.71858 562.85626 225.71858Q564.35626 225.71858 565.2625 226.59358Q566.1844 227.45296 566.1844 228.70296Q566.1844 229.49983 565.7625 230.09358Q565.34064 230.68733 564.4969 230.99983Q565.54376 231.34358 566.09064 232.1092Q566.65314 232.87483 566.65314 233.93733Q566.65314 235.40608 565.60626 236.4217Q564.575 237.4217 562.8719 237.4217Q561.1844 237.4217 560.1375 236.4217Q559.10626 235.40608 559.10626 233.90608Q559.10626 232.78108 559.66876 232.03108Q560.23126 231.28108 561.27814 230.99983ZM560.9969 228.62483Q560.9969 229.43733 561.5125 229.95296Q562.04376 230.46858 562.8875 230.46858Q563.7 230.46858 564.21564 229.95296Q564.73126 229.43733 564.73126 228.70296Q564.73126 227.9217 564.2 227.40608Q563.66876 226.87483 562.8719 226.87483Q562.0594 226.87483 561.52814 227.39046Q560.9969 227.90608 560.9969 228.62483ZM560.54376 233.90608Q560.54376 234.51546 560.825 235.07796Q561.1219 235.64046 561.6844 235.95296Q562.2469 236.24983 562.8875 236.24983Q563.90314 236.24983 564.5594 235.6092Q565.21564 234.95296 565.21564 233.95296Q565.21564 232.93733 564.52814 232.28108Q563.85626 231.6092 562.84064 231.6092Q561.85626 231.6092 561.2 232.26546Q560.54376 232.9217 560.54376 233.90608ZM568.3875 228.51546Q568.3875 227.28108 568.9969 226.4217Q569.6219 225.56233 570.79376 225.56233Q571.8719 225.56233 572.575 226.34358Q573.27814 227.1092 573.27814 228.59358Q573.27814 230.0467 572.5594 230.84358Q571.85626 231.62483 570.8094 231.62483Q569.7625 231.62483 569.075 230.8592Q568.3875 230.07796 568.3875 228.51546ZM570.825 226.53108Q570.3094 226.53108 569.95 226.9842Q569.60626 227.43733 569.60626 228.65608Q569.60626 229.74983 569.95 230.20296Q570.3094 230.65608 570.825 230.65608Q571.35626 230.65608 571.7 230.20296Q572.0594 229.74983 572.0594 228.5467Q572.0594 227.43733 571.7 226.9842Q571.35626 226.53108 570.825 226.53108ZM570.84064 237.64046L577.10626 225.56233L578.2469 225.56233L571.9969 237.64046L570.84064 237.64046ZM575.79376 234.53108Q575.79376 233.2967 576.40314 232.43733Q577.02814 231.57796 578.2 231.57796Q579.27814 231.57796 579.98126 232.3592Q580.7 233.12483 580.7 234.6092Q580.7 236.06233 579.98126 236.8592Q579.2625 237.64046 578.21564 237.64046Q577.16876 237.64046 576.48126 236.8592Q575.79376 236.07796 575.79376 234.53108ZM578.2469 232.5467Q577.71564 232.5467 577.35626 232.99983Q577.0125 233.45296 577.0125 234.6717Q577.0125 235.76546 577.35626 236.21858Q577.71564 236.6717 578.23126 236.6717Q578.77814 236.6717 579.1219 236.21858Q579.46564 235.76546 579.46564 234.56233Q579.46564 233.45296 579.10626 232.99983Q578.7625 232.5467 578.2469 232.5467Z" fill-rule="nonzero"/><path stroke="#757575" stroke-width="1.0" stroke-linecap="butt" d="M581.45 220.71858L454.76666 220.71858L440.29788 220.71858" fill-rule="nonzero"/><path fill="#9e9e9e" d="M442.29788 220.71858C442.29788 219.61401 441.40247 218.71858 440.29788 218.71858C439.19333 218.71858 438.29788 219.61401 438.29788 220.71858C438.29788 221.82315 439.19333 222.71858 440.29788 222.71858C441.40247 222.71858 442.29788 221.82315 442.29788 220.71858" fill-rule="nonzero"/><path fill="#f3f3f3" d="M265.98438 37.55L265.98438 23.2375L268.84375 23.2375L272.21875 33.3625Q272.6875 34.784374 272.90625 35.4875Q273.15625 34.70625 273.67188 33.190624L277.09375 23.2375L279.64062 23.2375L279.64062 37.55L277.82812 37.55L277.82812 25.565624L273.65625 37.55L271.95312 37.55L267.8125 25.3625L267.8125 37.55L265.98438 37.55ZM289.92188 34.20625L291.73438 34.440624Q291.3125 36.01875 290.14062 36.909374Q288.98438 37.784374 287.17188 37.784374Q284.90625 37.784374 283.5625 36.39375Q282.23438 34.9875 282.23438 32.45625Q282.23438 29.83125 283.57812 28.39375Q284.92188 26.940624 287.07812 26.940624Q289.15625 26.940624 290.46875 28.3625Q291.79688 29.76875 291.79688 32.346874Q291.79688 32.503124 291.78125 32.815624L284.04688 32.815624Q284.14062 34.51875 285.01562 35.425Q285.89062 36.33125 287.1875 36.33125Q288.15625 36.33125 288.82812 35.83125Q289.51562 35.315624 289.92188 34.20625ZM284.14062 31.3625L289.9375 31.3625Q289.82812 30.065624 289.28125 29.409374Q288.4375 28.39375 287.09375 28.39375Q285.89062 28.39375 285.0625 29.20625Q284.23438 30.003124 284.14062 31.3625ZM300.54688 37.55L300.54688 36.2375Q299.5625 37.784374 297.64062 37.784374Q296.40625 37.784374 295.35938 37.096874Q294.32812 36.409374 293.75 35.190624Q293.1875 33.971874 293.1875 32.378124Q293.1875 30.815624 293.70312 29.55Q294.21875 28.284374 295.25 27.6125Q296.29688 26.940624 297.5625 26.940624Q298.5 26.940624 299.23438 27.346874Q299.96875 27.7375 300.4375 28.3625L300.4375 23.2375L302.17188 23.2375L302.17188 37.55L300.54688 37.55ZM294.98438 32.378124Q294.98438 34.3625 295.82812 35.346874Q296.67188 36.33125 297.8125 36.33125Q298.96875 36.33125 299.76562 35.39375Q300.57812 34.45625 300.57812 32.51875Q300.57812 30.39375 299.75 29.39375Q298.9375 28.39375 297.73438 28.39375Q296.5625 28.39375 295.76562 29.3625Q294.98438 30.315624 294.98438 32.378124ZM304.82812 25.253124L304.82812 23.2375L306.59375 23.2375L306.59375 25.253124L304.82812 25.253124ZM304.82812 37.55L304.82812 27.175L306.59375 27.175L306.59375 37.55L304.82812 37.55ZM315.60938 37.55L315.60938 36.01875Q314.40625 37.784374 312.32812 37.784374Q311.40625 37.784374 310.60938 37.440624Q309.8125 37.08125 309.42188 36.55Q309.04688 36.01875 308.89062 35.2375Q308.78125 34.721874 308.78125 33.596874L308.78125 27.175L310.53125 27.175L310.53125 32.925Q310.53125 34.3 310.64062 34.784374Q310.8125 35.471874 311.34375 35.878124Q311.89062 36.26875 312.67188 36.26875Q313.46875 36.26875 314.15625 35.8625Q314.85938 35.45625 315.14062 34.76875Q315.4375 34.065624 315.4375 32.7375L315.4375 27.175L317.1875 27.175L317.1875 37.55L315.60938 37.55ZM319.8125 37.55L319.8125 27.175L321.39062 27.175L321.39062 28.628124Q321.875 27.878124 322.6875 27.409374Q323.5 26.940624 324.53125 26.940624Q325.6875 26.940624 326.42188 27.425Q327.15625 27.89375 327.46875 28.753124Q328.70312 26.940624 330.67188 26.940624Q332.21875 26.940624 333.04688 27.8Q333.875 28.659374 333.875 30.425L333.875 37.55L332.125 37.55L332.125 31.01875Q332.125 29.95625 331.95312 29.503124Q331.78125 29.034374 331.32812 28.753124Q330.89062 28.471874 330.28125 28.471874Q329.1875 28.471874 328.45312 29.20625Q327.73438 29.925 327.73438 31.51875L327.73438 37.55L325.98438 37.55L325.98438 30.815624Q325.98438 29.64375 325.54688 29.065624Q325.125 28.471874 324.14062 28.471874Q323.40625 28.471874 322.76562 28.8625Q322.14062 29.253124 321.85938 30.003124Q321.57812 30.753124 321.57812 32.175L321.57812 37.55L319.8125 37.55Z" fill-rule="nonzero"/></svg>