<svg version="1.1" viewBox="0.0 0.0 600.0 371.0" fill="none" stroke="none" stroke-linecap="square" stroke-miterlimit="10" width="600" height="371" xmlns:xlink="http://www.w3.org/1999/xlink" xmlns="http://www.w3.org/2000/svg"><path fill="#ffffff" fill-opacity="0.0" d="M0 0L600.0 0L600.0 371.0L0 371.0L0 0Z" fill-rule="nonzero"/><path fill="#d8753e" d="M194.80608 98.48942C222.70525 70.590256 260.54462 54.916668 300.0 54.916668L300.0 129.3C280.2723 129.3 261.35263 137.1368 247.40305 151.08638Z" fill-rule="nonzero"/><path fill="#8c4595" d="M162.55753 260.61386C139.53127 205.02357 152.25911 141.03638 194.80608 98.48942L247.40305 151.08638C226.12956 172.35986 219.76564 204.35345 231.27876 232.1486Z" fill-rule="nonzero"/><path fill="#78a94e" d="M300.0 54.916668C374.65573 54.916668 437.74942 110.24833 447.49396 184.26538C457.23846 258.28244 410.61557 328.05856 338.50363 347.3809C266.39172 366.70322 191.12704 329.5868 162.55753 260.61386L231.27876 232.1486C245.56352 266.63507 283.19586 285.19327 319.25183 275.5321C355.30777 265.87094 378.61923 230.9829 373.74698 193.97437C368.8747 156.96584 337.32788 129.3 300.0 129.3Z" fill-rule="nonzero"/><path fill="#ffffff" d="M376.22433 262.4367L374.66183 262.5617Q374.44308 261.63983 374.05246 261.21796Q373.41183 260.53046 372.47433 260.53046Q371.72433 260.53046 371.1462 260.95233Q370.3962 261.4992 369.9587 262.54608Q369.53683 263.59296 369.5212 265.53046Q370.09933 264.65546 370.91183 264.23358Q371.73996 263.8117 372.6462 263.8117Q374.23996 263.8117 375.34933 264.98358Q376.4587 266.13983 376.4587 267.98358Q376.4587 269.20233 375.92746 270.2492Q375.41183 271.28046 374.48996 271.84296Q373.5837 272.38983 372.42746 272.38983Q370.44308 272.38983 369.19308 270.9367Q367.94308 269.48358 367.94308 266.13983Q367.94308 262.40546 369.3337 260.70233Q370.53683 259.23358 372.56808 259.23358Q374.09933 259.23358 375.06808 260.09296Q376.03683 260.9367 376.22433 262.4367ZM369.7712 267.9992Q369.7712 268.8117 370.11496 269.5617Q370.4587 270.3117 371.0837 270.70233Q371.7087 271.09296 372.3962 271.09296Q373.3962 271.09296 374.11496 270.28046Q374.8337 269.46796 374.8337 268.07733Q374.8337 266.7492 374.11496 265.98358Q373.41183 265.20233 372.3337 265.20233Q371.25558 265.20233 370.50558 265.98358Q369.7712 266.7492 369.7712 267.9992ZM380.4587 265.1867Q379.47433 264.82733 378.98996 264.15546Q378.5212 263.48358 378.5212 262.5617Q378.5212 261.15546 379.5212 260.20233Q380.53683 259.23358 382.22433 259.23358Q383.91183 259.23358 384.92746 260.21796Q385.9587 261.1867 385.9587 262.59296Q385.9587 263.4992 385.48996 264.17108Q385.0212 264.82733 384.06808 265.1867Q385.25558 265.57733 385.86496 266.4367Q386.48996 267.29608 386.48996 268.48358Q386.48996 270.13983 385.31808 271.26483Q384.1462 272.38983 382.23996 272.38983Q380.3337 272.38983 379.16183 271.26483Q378.00558 270.1242 378.00558 268.4367Q378.00558 267.1867 378.63058 266.34296Q379.2712 265.48358 380.4587 265.1867ZM380.13058 262.4992Q380.13058 263.42108 380.72433 263.9992Q381.31808 264.57733 382.25558 264.57733Q383.16183 264.57733 383.73996 263.9992Q384.3337 263.42108 384.3337 262.59296Q384.3337 261.71796 383.72433 261.1242Q383.13058 260.53046 382.23996 260.53046Q381.3337 260.53046 380.72433 261.10858Q380.13058 261.6867 380.13058 262.4992ZM379.63058 268.45233Q379.63058 269.1242 379.94308 269.76483Q380.2712 270.38983 380.8962 270.7492Q381.53683 271.09296 382.2712 271.09296Q383.3962 271.09296 384.13058 270.35858Q384.88058 269.6242 384.88058 268.4992Q384.88058 267.35858 384.11496 266.6242Q383.34933 265.8742 382.2087 265.8742Q381.09933 265.8742 380.36496 266.60858Q379.63058 267.34296 379.63058 268.45233ZM388.91183 272.17108L388.91183 270.3742L390.7087 270.3742L390.7087 272.17108L388.91183 272.17108ZM395.4587 265.1867Q394.47433 264.82733 393.98996 264.15546Q393.5212 263.48358 393.5212 262.5617Q393.5212 261.15546 394.5212 260.20233Q395.53683 259.23358 397.22433 259.23358Q398.91183 259.23358 399.92746 260.21796Q400.9587 261.1867 400.9587 262.59296Q400.9587 263.4992 400.48996 264.17108Q400.0212 264.82733 399.06808 265.1867Q400.25558 265.57733 400.86496 266.4367Q401.48996 267.29608 401.48996 268.48358Q401.48996 270.13983 400.31808 271.26483Q399.1462 272.38983 397.23996 272.38983Q395.3337 272.38983 394.16183 271.26483Q393.00558 270.1242 393.00558 268.4367Q393.00558 267.1867 393.63058 266.34296Q394.2712 265.48358 395.4587 265.1867ZM395.13058 262.4992Q395.13058 263.42108 395.72433 263.9992Q396.31808 264.57733 397.25558 264.57733Q398.16183 264.57733 398.73996 263.9992Q399.3337 263.42108 399.3337 262.59296Q399.3337 261.71796 398.72433 261.1242Q398.13058 260.53046 397.23996 260.53046Q396.3337 260.53046 395.72433 261.10858Q395.13058 261.6867 395.13058 262.4992ZM394.63058 268.45233Q394.63058 269.1242 394.94308 269.76483Q395.2712 270.38983 395.8962 270.7492Q396.53683 271.09296 397.2712 271.09296Q398.3962 271.09296 399.13058 270.35858Q399.88058 269.6242 399.88058 268.4992Q399.88058 267.35858 399.11496 266.6242Q398.34933 265.8742 397.2087 265.8742Q396.09933 265.8742 395.36496 266.60858Q394.63058 267.34296 394.63058 268.45233ZM403.31808 262.3742Q403.31808 260.9992 404.00558 260.03046Q404.7087 259.0617 406.0212 259.0617Q407.23996 259.0617 408.03683 259.9367Q408.8337 260.79608 408.8337 262.48358Q408.8337 264.10858 408.0212 264.9992Q407.22433 265.8742 406.03683 265.8742Q404.88058 265.8742 404.09933 265.01483Q403.31808 264.13983 403.31808 262.3742ZM406.06808 260.15546Q405.47433 260.15546 405.0837 260.67108Q404.69308 261.17108 404.69308 262.53046Q404.69308 263.78046 405.0837 264.28046Q405.48996 264.78046 406.06808 264.78046Q406.66183 264.78046 407.05246 264.28046Q407.44308 263.76483 407.44308 262.42108Q407.44308 261.17108 407.05246 260.67108Q406.66183 260.15546 406.06808 260.15546ZM406.0837 272.63983L413.13058 259.0617L414.41183 259.0617L407.38058 272.63983L406.0837 272.63983ZM411.6462 269.13983Q411.6462 267.76483 412.3337 266.79608Q413.03683 265.82733 414.36496 265.82733Q415.5837 265.82733 416.36496 266.70233Q417.16183 267.5617 417.16183 269.2492Q417.16183 270.8742 416.36496 271.76483Q415.56808 272.63983 414.38058 272.63983Q413.2087 272.63983 412.42746 271.76483Q411.6462 270.88983 411.6462 269.13983ZM414.41183 266.92108Q413.81808 266.92108 413.42746 267.4367Q413.03683 267.9367 413.03683 269.3117Q413.03683 270.53046 413.42746 271.04608Q413.81808 271.5617 414.3962 271.5617Q415.00558 271.5617 415.3962 271.04608Q415.78683 270.53046 415.78683 269.1867Q415.78683 267.9367 415.3962 267.4367Q415.00558 266.92108 414.41183 266.92108Z" fill-rule="nonzero"/><path fill="#ffffff" d="M171.772 188.41614L170.19388 188.41614L170.19388 178.33801Q169.61575 178.88489 168.69388 179.43176Q167.772 179.96301 167.022 180.24426L167.022 178.71301Q168.35013 178.08801 169.35013 177.19739Q170.35013 176.30676 170.75638 175.47864L171.772 175.47864L171.772 188.41614ZM178.25638 181.43176Q177.272 181.07239 176.78763 180.40051Q176.31888 179.72864 176.31888 178.80676Q176.31888 177.40051 177.31888 176.44739Q178.3345 175.47864 180.022 175.47864Q181.7095 175.47864 182.72513 176.46301Q183.75638 177.43176 183.75638 178.83801Q183.75638 179.74426 183.28763 180.41614Q182.81888 181.07239 181.86575 181.43176Q183.05325 181.82239 183.66263 182.68176Q184.28763 183.54114 184.28763 184.72864Q184.28763 186.38489 183.11575 187.50989Q181.94388 188.63489 180.03763 188.63489Q178.13138 188.63489 176.9595 187.50989Q175.80325 186.36926 175.80325 184.68176Q175.80325 183.43176 176.42825 182.58801Q177.06888 181.72864 178.25638 181.43176ZM177.92825 178.74426Q177.92825 179.66614 178.522 180.24426Q179.11575 180.82239 180.05325 180.82239Q180.9595 180.82239 181.53763 180.24426Q182.13138 179.66614 182.13138 178.83801Q182.13138 177.96301 181.522 177.36926Q180.92825 176.77551 180.03763 176.77551Q179.13138 176.77551 178.522 177.35364Q177.92825 177.93176 177.92825 178.74426ZM177.42825 184.69739Q177.42825 185.36926 177.74075 186.00989Q178.06888 186.63489 178.69388 186.99426Q179.3345 187.33801 180.06888 187.33801Q181.19388 187.33801 181.92825 186.60364Q182.67825 185.86926 182.67825 184.74426Q182.67825 183.60364 181.91263 182.86926Q181.147 182.11926 180.00638 182.11926Q178.897 182.11926 178.16263 182.85364Q177.42825 183.58801 177.42825 184.69739ZM186.7095 188.41614L186.7095 186.61926L188.50638 186.61926L188.50638 188.41614L186.7095 188.41614ZM193.25638 181.43176Q192.272 181.07239 191.78763 180.40051Q191.31888 179.72864 191.31888 178.80676Q191.31888 177.40051 192.31888 176.44739Q193.3345 175.47864 195.022 175.47864Q196.7095 175.47864 197.72513 176.46301Q198.75638 177.43176 198.75638 178.83801Q198.75638 179.74426 198.28763 180.41614Q197.81888 181.07239 196.86575 181.43176Q198.05325 181.82239 198.66263 182.68176Q199.28763 183.54114 199.28763 184.72864Q199.28763 186.38489 198.11575 187.50989Q196.94388 188.63489 195.03763 188.63489Q193.13138 188.63489 191.9595 187.50989Q190.80325 186.36926 190.80325 184.68176Q190.80325 183.43176 191.42825 182.58801Q192.06888 181.72864 193.25638 181.43176ZM192.92825 178.74426Q192.92825 179.66614 193.522 180.24426Q194.11575 180.82239 195.05325 180.82239Q195.9595 180.82239 196.53763 180.24426Q197.13138 179.66614 197.13138 178.83801Q197.13138 177.96301 196.522 177.36926Q195.92825 176.77551 195.03763 176.77551Q194.13138 176.77551 193.522 177.35364Q192.92825 177.93176 192.92825 178.74426ZM192.42825 184.69739Q192.42825 185.36926 192.74075 186.00989Q193.06888 186.63489 193.69388 186.99426Q194.3345 187.33801 195.06888 187.33801Q196.19388 187.33801 196.92825 186.60364Q197.67825 185.86926 197.67825 184.74426Q197.67825 183.60364 196.91263 182.86926Q196.147 182.11926 195.00638 182.11926Q193.897 182.11926 193.16263 182.85364Q192.42825 183.58801 192.42825 184.69739ZM201.11575 178.61926Q201.11575 177.24426 201.80325 176.27551Q202.50638 175.30676 203.81888 175.30676Q205.03763 175.30676 205.8345 176.18176Q206.63138 177.04114 206.63138 178.72864Q206.63138 180.35364 205.81888 181.24426Q205.022 182.11926 203.8345 182.11926Q202.67825 182.11926 201.897 181.25989Q201.11575 180.38489 201.11575 178.61926ZM203.86575 176.40051Q203.272 176.40051 202.88138 176.91614Q202.49075 177.41614 202.49075 178.77551Q202.49075 180.02551 202.88138 180.52551Q203.28763 181.02551 203.86575 181.02551Q204.4595 181.02551 204.85013 180.52551Q205.24075 180.00989 205.24075 178.66614Q205.24075 177.41614 204.85013 176.91614Q204.4595 176.40051 203.86575 176.40051ZM203.88138 188.88489L210.92825 175.30676L212.2095 175.30676L205.17825 188.88489L203.88138 188.88489ZM209.44388 185.38489Q209.44388 184.00989 210.13138 183.04114Q210.8345 182.07239 212.16263 182.07239Q213.38138 182.07239 214.16263 182.94739Q214.9595 183.80676 214.9595 185.49426Q214.9595 187.11926 214.16263 188.00989Q213.36575 188.88489 212.17825 188.88489Q211.00638 188.88489 210.22513 188.00989Q209.44388 187.13489 209.44388 185.38489ZM212.2095 183.16614Q211.61575 183.16614 211.22513 183.68176Q210.8345 184.18176 210.8345 185.55676Q210.8345 186.77551 211.22513 187.29114Q211.61575 187.80676 212.19388 187.80676Q212.80325 187.80676 213.19388 187.29114Q213.5845 186.77551 213.5845 185.43176Q213.5845 184.18176 213.19388 183.68176Q212.80325 183.16614 212.2095 183.16614Z" fill-rule="nonzero"/><path fill="#ffffff" d="M238.50522 107.10147L236.9271 107.10147L236.9271 97.023346Q236.34897 97.57022 235.4271 98.117096Q234.50522 98.648346 233.75522 98.929596L233.75522 97.398346Q235.08334 96.773346 236.08334 95.88272Q237.08334 94.992096 237.4896 94.16397L238.50522 94.16397L238.50522 107.10147ZM250.8646 105.585846L250.8646 107.10147L242.34897 107.10147Q242.33334 106.523346 242.53647 106.00772Q242.8646 105.13272 243.56772 104.28897Q244.28647 103.44522 245.64584 102.335846Q247.7396 100.617096 248.47397 99.617096Q249.22397 98.60147 249.22397 97.710846Q249.22397 96.75772 248.5521 96.117096Q247.88022 95.47647 246.8021 95.47647Q245.64584 95.47647 244.95834 96.16397Q244.28647 96.85147 244.27084 98.054596L242.64584 97.88272Q242.81772 96.07022 243.89584 95.117096Q244.9896 94.16397 246.83334 94.16397Q248.6771 94.16397 249.75522 95.19522Q250.84897 96.22647 250.84897 97.742096Q250.84897 98.50772 250.52084 99.25772Q250.20834 100.00772 249.47397 100.835846Q248.7396 101.66397 247.03647 103.10147Q245.6146 104.304596 245.20834 104.72647Q244.8021 105.148346 244.5521 105.585846L250.8646 105.585846ZM253.44272 107.10147L253.44272 105.304596L255.2396 105.304596L255.2396 107.10147L253.44272 107.10147ZM257.5521 103.72647L259.20834 103.585846Q259.39584 104.804596 260.06772 105.41397Q260.7396 106.023346 261.69272 106.023346Q262.83334 106.023346 263.6146 105.16397Q264.41147 104.304596 264.41147 102.867096Q264.41147 101.523346 263.64584 100.742096Q262.89584 99.960846 261.66147 99.960846Q260.89584 99.960846 260.27084 100.304596Q259.66147 100.648346 259.31772 101.210846L257.83334 101.00772L259.08334 94.398346L265.4896 94.398346L265.4896 95.898346L260.34897 95.898346L259.64584 99.367096Q260.81772 98.554596 262.08334 98.554596Q263.77084 98.554596 264.9271 99.72647Q266.09897 100.898346 266.09897 102.72647Q266.09897 104.47647 265.06772 105.75772Q263.83334 107.32022 261.69272 107.32022Q259.9271 107.32022 258.81772 106.335846Q257.70834 105.35147 257.5521 103.72647ZM267.84897 97.304596Q267.84897 95.929596 268.53647 94.960846Q269.2396 93.992096 270.5521 93.992096Q271.77084 93.992096 272.56772 94.867096Q273.3646 95.72647 273.3646 97.41397Q273.3646 99.03897 272.5521 99.929596Q271.75522 100.804596 270.56772 100.804596Q269.41147 100.804596 268.63022 99.94522Q267.84897 99.07022 267.84897 97.304596ZM270.59897 95.085846Q270.00522 95.085846 269.6146 95.60147Q269.22397 96.10147 269.22397 97.460846Q269.22397 98.710846 269.6146 99.210846Q270.02084 99.710846 270.59897 99.710846Q271.19272 99.710846 271.58334 99.210846Q271.97397 98.69522 271.97397 97.35147Q271.97397 96.10147 271.58334 95.60147Q271.19272 95.085846 270.59897 95.085846ZM270.6146 107.57022L277.66147 93.992096L278.94272 93.992096L271.91147 107.57022L270.6146 107.57022ZM276.1771 104.07022Q276.1771 102.69522 276.8646 101.72647Q277.56772 100.75772 278.89584 100.75772Q280.1146 100.75772 280.89584 101.63272Q281.69272 102.492096 281.69272 104.179596Q281.69272 105.804596 280.89584 106.69522Q280.09897 107.57022 278.91147 107.57022Q277.7396 107.57022 276.95834 106.69522Q276.1771 105.82022 276.1771 104.07022ZM278.94272 101.85147Q278.34897 101.85147 277.95834 102.367096Q277.56772 102.867096 277.56772 104.242096Q277.56772 105.460846 277.95834 105.97647Q278.34897 106.492096 278.9271 106.492096Q279.53647 106.492096 279.9271 105.97647Q280.31772 105.460846 280.31772 104.117096Q280.31772 102.867096 279.9271 102.367096Q279.53647 101.85147 278.94272 101.85147Z" fill-rule="nonzero"/><path stroke="#ffffff" stroke-width="1.0" stroke-linejoin="round" stroke-linecap="round" d="M231.27876 232.1486C245.56352 266.63507 283.19586 285.19327 319.25183 275.5321C355.30777 265.87094 378.61923 230.9829 373.74698 193.97437C368.8747 156.96584 337.32788 129.3 300.0 129.3L300.0 54.916668C374.65573 54.916668 437.74942 110.24833 447.49396 184.26538C457.23846 258.28244 410.61557 328.05856 338.50363 347.3809C266.39172 366.70322 191.12704 329.5868 162.55753 260.61386" fill-rule="nonzero"/><path stroke="#ffffff" stroke-width="1.0" stroke-linejoin="round" stroke-linecap="round" d="M247.40305 151.08638C226.12956 172.35986 219.76564 204.35345 231.27876 232.1486L162.55753 260.61386C139.53127 205.02357 152.25911 141.03638 194.80608 98.48942" fill-rule="nonzero"/><path stroke="#ffffff" stroke-width="1.0" stroke-linejoin="round" stroke-linecap="round" d="M300.0 129.3C280.2723 129.3 261.35263 137.1368 247.40305 151.08638L194.80608 98.48942C222.70525 70.590256 260.54462 54.916668 300.0 54.916668" fill-rule="nonzero"/><path fill="#efefef" d="M18.51875 69.916664L22.925 58.46354L24.565624 58.46354L29.253124 69.916664L27.51875 69.916664L26.190624 66.447914L21.39375 66.447914L20.14375 69.916664L18.51875 69.916664ZM21.83125 65.21354L25.721874 65.21354L24.51875 62.041664Q23.971874 60.58854 23.70625 59.666664Q23.4875 60.760414 23.096874 61.854164L21.83125 65.21354ZM30.596874 69.916664L30.596874 61.61979L31.8625 61.61979L31.8625 62.86979Q32.346874 61.99479 32.753124 61.71354Q33.159374 61.43229 33.659374 61.43229Q34.3625 61.43229 35.096874 61.885414L34.6125 63.18229Q34.096874 62.885414 33.58125 62.885414Q33.128124 62.885414 32.753124 63.166664Q32.39375 63.43229 32.2375 63.93229Q32.003124 64.68229 32.003124 65.572914L32.003124 69.916664L30.596874 69.916664ZM38.675 68.65104L38.878124 69.90104Q38.284374 70.02604 37.815624 70.02604Q37.05 70.02604 36.628124 69.791664Q36.20625 69.541664 36.034374 69.15104Q35.8625 68.74479 35.8625 67.479164L35.8625 62.71354L34.83125 62.71354L34.83125 61.61979L35.8625 61.61979L35.8625 59.55729L37.26875 58.71354L37.26875 61.61979L38.675 61.61979L38.675 62.71354L37.26875 62.71354L37.26875 67.55729Q37.26875 68.166664 37.33125 68.33854Q37.409374 68.510414 37.58125 68.61979Q37.753124 68.71354 38.065624 68.71354Q38.3 68.71354 38.675 68.65104ZM39.05 67.43229L40.440624 67.21354Q40.55 68.05729 41.08125 68.510414Q41.628124 68.947914 42.58125 68.947914Q43.55 68.947914 44.01875 68.55729Q44.4875 68.15104 44.4875 67.61979Q44.4875 67.15104 44.08125 66.86979Q43.784374 66.68229 42.64375 66.40104Q41.096874 66.010414 40.4875 65.729164Q39.89375 65.43229 39.58125 64.93229Q39.284374 64.43229 39.284374 63.822914Q39.284374 63.260414 39.534374 62.791664Q39.784374 62.322914 40.221874 62.010414Q40.55 61.760414 41.1125 61.604164Q41.690624 61.43229 42.33125 61.43229Q43.315624 61.43229 44.05 61.71354Q44.784374 61.99479 45.128124 62.479164Q45.4875 62.947914 45.628124 63.760414L44.253124 63.947914Q44.159374 63.30729 43.70625 62.947914Q43.253124 62.58854 42.440624 62.58854Q41.471874 62.58854 41.05 62.916664Q40.64375 63.229164 40.64375 63.65104Q40.64375 63.93229 40.815624 64.15104Q40.9875 64.36979 41.346874 64.52604Q41.565624 64.604164 42.596874 64.885414Q44.08125 65.27604 44.675 65.541664Q45.26875 65.791664 45.596874 66.27604Q45.940624 66.760414 45.940624 67.479164Q45.940624 68.18229 45.51875 68.80729Q45.1125 69.416664 44.33125 69.760414Q43.565624 70.104164 42.596874 70.104164Q40.971874 70.104164 40.128124 69.43229Q39.284374 68.760414 39.05 67.43229ZM58.159374 68.55729Q57.45625 69.33854 56.628124 69.729164Q55.815624 70.11979 54.8625 70.11979Q53.1125 70.11979 52.08125 68.916664Q51.2375 67.947914 51.2375 66.760414Q51.2375 65.697914 51.925 64.83854Q52.6125 63.979164 53.971874 63.33854Q53.190624 62.447914 52.925 61.90104Q52.675 61.33854 52.675 60.822914Q52.675 59.791664 53.4875 59.02604Q54.3 58.260414 55.51875 58.260414Q56.690624 58.260414 57.440624 58.979164Q58.190624 59.697914 58.190624 60.71354Q58.190624 62.33854 56.01875 63.49479L58.08125 66.11979Q58.425 65.43229 58.628124 64.52604L60.08125 64.83854Q59.70625 66.33854 59.065624 67.30729Q59.8625 68.354164 60.8625 69.05729L59.909374 70.18229Q59.065624 69.635414 58.159374 68.55729ZM55.3 62.58854Q56.20625 62.05729 56.471874 61.65104Q56.753124 61.24479 56.753124 60.74479Q56.753124 60.166664 56.378124 59.791664Q56.003124 59.416664 55.45625 59.416664Q54.878124 59.416664 54.503124 59.791664Q54.128124 60.15104 54.128124 60.68229Q54.128124 60.947914 54.253124 61.24479Q54.39375 61.541664 54.675 61.86979L55.3 62.58854ZM57.26875 67.447914L54.690624 64.260414Q53.55 64.93229 53.14375 65.52604Q52.753124 66.104164 52.753124 66.666664Q52.753124 67.36979 53.3 68.11979Q53.8625 68.86979 54.878124 68.86979Q55.51875 68.86979 56.190624 68.479164Q56.8625 68.072914 57.26875 67.447914ZM65.51875 69.916664L69.925 58.46354L71.56563 58.46354L76.25313 69.916664L74.51875 69.916664L73.19063 66.447914L68.39375 66.447914L67.14375 69.916664L65.51875 69.916664ZM68.83125 65.21354L72.72188 65.21354L71.51875 62.041664Q70.97188 60.58854 70.70625 59.666664Q70.4875 60.760414 70.09688 61.854164L68.83125 65.21354ZM77.6125 69.916664L77.6125 61.61979L78.87813 61.61979L78.87813 62.791664Q79.78438 61.43229 81.51875 61.43229Q82.26875 61.43229 82.89375 61.697914Q83.51875 61.96354 83.83125 62.40104Q84.14375 62.83854 84.26875 63.447914Q84.34688 63.83854 84.34688 64.80729L84.34688 69.916664L82.94063 69.916664L82.94063 64.86979Q82.94063 64.010414 82.76875 63.58854Q82.6125 63.15104 82.19063 62.90104Q81.78438 62.65104 81.22188 62.65104Q80.31563 62.65104 79.65938 63.229164Q79.01875 63.791664 79.01875 65.385414L79.01875 69.916664L77.6125 69.916664ZM89.675 68.65104L89.87813 69.90104Q89.28438 70.02604 88.81563 70.02604Q88.05 70.02604 87.62813 69.791664Q87.20625 69.541664 87.03438 69.15104Q86.8625 68.74479 86.8625 67.479164L86.8625 62.71354L85.83125 62.71354L85.83125 61.61979L86.8625 61.61979L86.8625 59.55729L88.26875 58.71354L88.26875 61.61979L89.675 61.61979L89.675 62.71354L88.26875 62.71354L88.26875 67.55729Q88.26875 68.166664 88.33125 68.33854Q88.40938 68.510414 88.58125 68.61979Q88.75313 68.71354 89.06563 68.71354Q89.3 68.71354 89.675 68.65104ZM90.6125 60.072914L90.6125 58.46354L92.01875 58.46354L92.01875 60.072914L90.6125 60.072914ZM90.6125 69.916664L90.6125 61.61979L92.01875 61.61979L92.01875 69.916664L90.6125 69.916664ZM99.89375 73.104164L99.89375 69.02604Q99.56563 69.49479 98.97188 69.80729Q98.39375 70.104164 97.72188 70.104164Q96.25313 70.104164 95.175 68.93229Q94.1125 67.74479 94.1125 65.68229Q94.1125 64.43229 94.55 63.447914Q94.9875 62.447914 95.8 61.947914Q96.62813 61.43229 97.6125 61.43229Q99.15938 61.43229 100.03438 62.729164L100.03438 61.61979L101.3 61.61979L101.3 73.104164L99.89375 73.104164ZM95.56563 65.74479Q95.56563 67.33854 96.2375 68.15104Q96.90938 68.947914 97.84688 68.947914Q98.7375 68.947914 99.37813 68.18229Q100.03438 67.416664 100.03438 65.86979Q100.03438 64.21354 99.34688 63.385414Q98.675 62.541664 97.75313 62.541664Q96.83125 62.541664 96.19063 63.322914Q95.56563 64.08854 95.56563 65.74479ZM109.05 69.916664L109.05 68.697914Q108.08125 70.104164 106.40938 70.104164Q105.675 70.104164 105.03438 69.822914Q104.40938 69.541664 104.09688 69.11979Q103.78438 68.68229 103.65938 68.072914Q103.58125 67.65104 103.58125 66.760414L103.58125 61.61979L104.9875 61.61979L104.9875 66.21354Q104.9875 67.322914 105.06563 67.697914Q105.20625 68.260414 105.62813 68.572914Q106.06563 68.885414 106.69063 68.885414Q107.33125 68.885414 107.87813 68.572914Q108.44063 68.24479 108.65938 67.68229Q108.89375 67.11979 108.89375 66.05729L108.89375 61.61979L110.3 61.61979L110.3 69.916664L109.05 69.916664ZM112.6125 60.072914L112.6125 58.46354L114.01875 58.46354L114.01875 60.072914L112.6125 60.072914ZM112.6125 69.916664L112.6125 61.61979L114.01875 61.61979L114.01875 69.916664L112.6125 69.916664ZM119.675 68.65104L119.87813 69.90104Q119.28438 70.02604 118.81563 70.02604Q118.05 70.02604 117.62813 69.791664Q117.20625 69.541664 117.03438 69.15104Q116.8625 68.74479 116.8625 67.479164L116.8625 62.71354L115.83125 62.71354L115.83125 61.61979L116.8625 61.61979L116.8625 59.55729L118.26875 58.71354L118.26875 61.61979L119.675 61.61979L119.675 62.71354L118.26875 62.71354L118.26875 67.55729Q118.26875 68.166664 118.33125 68.33854Q118.40938 68.510414 118.58125 68.61979Q118.75313 68.71354 119.06563 68.71354Q119.3 68.71354 119.675 68.65104ZM120.6125 60.072914L120.6125 58.46354L122.01875 58.46354L122.01875 60.072914L120.6125 60.072914ZM120.6125 69.916664L120.6125 61.61979L122.01875 61.61979L122.01875 69.916664L120.6125 69.916664ZM130.28438 67.24479L131.7375 67.416664Q131.39375 68.697914 130.45625 69.40104Q129.53438 70.104164 128.09688 70.104164Q126.26875 70.104164 125.20625 68.979164Q124.14375 67.854164 124.14375 65.83854Q124.14375 63.74479 125.22188 62.58854Q126.3 61.43229 128.01875 61.43229Q129.675 61.43229 130.72188 62.572914Q131.78438 63.697914 131.78438 65.74479Q131.78438 65.86979 131.78438 66.11979L125.59688 66.11979Q125.675 67.49479 126.3625 68.229164Q127.06563 68.947914 128.09688 68.947914Q128.87813 68.947914 129.425 68.541664Q129.97188 68.135414 130.28438 67.24479ZM125.675 64.96354L130.3 64.96354Q130.20625 63.916664 129.76875 63.40104Q129.09688 62.58854 128.03438 62.58854Q127.06563 62.58854 126.39375 63.24479Q125.7375 63.885414 125.675 64.96354ZM133.05 67.43229L134.44063 67.21354Q134.55 68.05729 135.08125 68.510414Q135.62813 68.947914 136.58125 68.947914Q137.55 68.947914 138.01875 68.55729Q138.4875 68.15104 138.4875 67.61979Q138.4875 67.15104 138.08125 66.86979Q137.78438 66.68229 136.64375 66.40104Q135.09688 66.010414 134.4875 65.729164Q133.89375 65.43229 133.58125 64.93229Q133.28438 64.43229 133.28438 63.822914Q133.28438 63.260414 133.53438 62.791664Q133.78438 62.322914 134.22188 62.010414Q134.55 61.760414 135.1125 61.604164Q135.69063 61.43229 136.33125 61.43229Q137.31563 61.43229 138.05 61.71354Q138.78438 61.99479 139.12813 62.479164Q139.4875 62.947914 139.62813 63.760414L138.25313 63.947914Q138.15938 63.30729 137.70625 62.947914Q137.25313 62.58854 136.44063 62.58854Q135.47188 62.58854 135.05 62.916664Q134.64375 63.229164 134.64375 63.65104Q134.64375 63.93229 134.81563 64.15104Q134.9875 64.36979 135.34688 64.52604Q135.56563 64.604164 136.59688 64.885414Q138.08125 65.27604 138.675 65.541664Q139.26875 65.791664 139.59688 66.27604Q139.94063 66.760414 139.94063 67.479164Q139.94063 68.18229 139.51875 68.80729Q139.1125 69.416664 138.33125 69.760414Q137.56563 70.104164 136.59688 70.104164Q134.97188 70.104164 134.12813 69.43229Q133.28438 68.760414 133.05 67.43229Z" fill-rule="nonzero"/><path fill="#9e9e9e" d="M24.51875 91.916664L23.1125 91.916664L23.1125 82.947914Q22.596874 83.43229 21.76875 83.916664Q20.95625 84.40104 20.3 84.65104L20.3 83.291664Q21.471874 82.729164 22.346874 81.947914Q23.2375 81.15104 23.6125 80.416664L24.51875 80.416664L24.51875 91.916664ZM35.6125 90.55729L35.6125 91.916664L28.034374 91.916664Q28.01875 91.40104 28.20625 90.93229Q28.4875 90.166664 29.128124 89.416664Q29.76875 88.666664 30.971874 87.68229Q32.83125 86.15104 33.4875 85.260414Q34.14375 84.354164 34.14375 83.55729Q34.14375 82.729164 33.55 82.15104Q32.95625 81.572914 31.9875 81.572914Q30.971874 81.572914 30.3625 82.18229Q29.753124 82.791664 29.753124 83.86979L28.3 83.729164Q28.45625 82.104164 29.425 81.260414Q30.39375 80.416664 32.01875 80.416664Q33.675 80.416664 34.628124 81.33854Q35.596874 82.24479 35.596874 83.58854Q35.596874 84.27604 35.315624 84.947914Q35.034374 85.604164 34.378124 86.33854Q33.721874 87.072914 32.20625 88.354164Q30.940624 89.416664 30.58125 89.80729Q30.221874 90.18229 29.9875 90.55729L35.6125 90.55729ZM38.003124 91.916664L38.003124 90.30729L39.6125 90.30729L39.6125 91.916664L38.003124 91.916664ZM41.221874 88.916664L42.690624 88.791664Q42.8625 89.86979 43.45625 90.416664Q44.05 90.947914 44.89375 90.947914Q45.909374 90.947914 46.6125 90.18229Q47.315624 89.416664 47.315624 88.15104Q47.315624 86.947914 46.64375 86.260414Q45.971874 85.55729 44.878124 85.55729Q44.190624 85.55729 43.64375 85.86979Q43.096874 86.18229 42.784374 86.666664L41.471874 86.49479L42.58125 80.61979L48.26875 80.61979L48.26875 81.96354L43.70625 81.96354L43.08125 85.041664Q44.1125 84.322914 45.253124 84.322914Q46.753124 84.322914 47.784374 85.36979Q48.815624 86.40104 48.815624 88.02604Q48.815624 89.58854 47.909374 90.71354Q46.8 92.11979 44.89375 92.11979Q43.33125 92.11979 42.346874 91.24479Q41.3625 90.354164 41.221874 88.916664ZM50.4875 83.21354Q50.4875 81.979164 51.096874 81.11979Q51.721874 80.260414 52.89375 80.260414Q53.971874 80.260414 54.675 81.041664Q55.378124 81.80729 55.378124 83.291664Q55.378124 84.74479 54.659374 85.541664Q53.95625 86.322914 52.909374 86.322914Q51.8625 86.322914 51.175 85.55729Q50.4875 84.77604 50.4875 83.21354ZM52.925 81.229164Q52.409374 81.229164 52.05 81.68229Q51.70625 82.135414 51.70625 83.354164Q51.70625 84.447914 52.05 84.90104Q52.409374 85.354164 52.925 85.354164Q53.45625 85.354164 53.8 84.90104Q54.159374 84.447914 54.159374 83.24479Q54.159374 82.135414 53.8 81.68229Q53.45625 81.229164 52.925 81.229164ZM52.940624 92.33854L59.20625 80.260414L60.346874 80.260414L54.096874 92.33854L52.940624 92.33854ZM57.89375 89.229164Q57.89375 87.99479 58.503124 87.135414Q59.128124 86.27604 60.3 86.27604Q61.378124 86.27604 62.08125 87.05729Q62.8 87.822914 62.8 89.30729Q62.8 90.760414 62.08125 91.55729Q61.3625 92.33854 60.315624 92.33854Q59.26875 92.33854 58.58125 91.55729Q57.89375 90.77604 57.89375 89.229164ZM60.346874 87.24479Q59.815624 87.24479 59.45625 87.697914Q59.1125 88.15104 59.1125 89.36979Q59.1125 90.46354 59.45625 90.916664Q59.815624 91.36979 60.33125 91.36979Q60.878124 91.36979 61.221874 90.916664Q61.565624 90.46354 61.565624 89.260414Q61.565624 88.15104 61.20625 87.697914Q60.8625 87.24479 60.346874 87.24479Z" fill-rule="nonzero"/><path stroke="#757575" stroke-width="1.0" stroke-linecap="butt" d="M18.55 75.416664L145.23334 75.416664L245.91599 73.112976" fill-rule="nonzero"/><path fill="#9e9e9e" d="M247.91599 73.112976C247.91599 72.00841 247.02055 71.112976 245.91599 71.112976C244.81142 71.112976 243.91599 72.00841 243.91599 73.112976C243.91599 74.217545 244.81142 75.112976 245.91599 75.112976C247.02055 75.112976 247.91599 74.217545 247.91599 73.112976" fill-rule="nonzero"/><path fill="#efefef" d="M19.76875 170.61154L19.76875 159.15842L21.33125 159.15842L27.346874 168.14279L27.346874 159.15842L28.8 159.15842L28.8 170.61154L27.2375 170.61154L21.221874 161.61154L21.221874 170.61154L19.76875 170.61154ZM37.01875 169.58029Q36.2375 170.25217 35.51875 170.53342Q34.8 170.79904 33.971874 170.79904Q32.596874 170.79904 31.8625 170.12717Q31.128124 169.45529 31.128124 168.42404Q31.128124 167.81467 31.409374 167.31467Q31.690624 166.79904 32.128124 166.50217Q32.58125 166.18967 33.14375 166.03342Q33.565624 165.92404 34.39375 165.83029Q36.096874 165.62717 36.909374 165.34592Q36.909374 165.04904 36.909374 164.97092Q36.909374 164.11154 36.51875 163.76779Q35.971874 163.28342 34.909374 163.28342Q33.925 163.28342 33.440624 163.64279Q32.971874 163.98654 32.753124 164.86154L31.378124 164.67404Q31.565624 163.79904 31.9875 163.25217Q32.425 162.70529 33.2375 162.42404Q34.05 162.12717 35.1125 162.12717Q36.175 162.12717 36.83125 162.37717Q37.503124 162.62717 37.815624 163.00217Q38.128124 163.37717 38.253124 163.95529Q38.33125 164.31467 38.33125 165.25217L38.33125 167.12717Q38.33125 169.09592 38.409374 169.61154Q38.503124 170.12717 38.76875 170.61154L37.3 170.61154Q37.08125 170.17404 37.01875 169.58029ZM36.909374 166.43967Q36.14375 166.75217 34.6125 166.97092Q33.7375 167.09592 33.378124 167.25217Q33.01875 167.40842 32.815624 167.72092Q32.628124 168.01779 32.628124 168.37717Q32.628124 168.93967 33.05 169.31467Q33.4875 169.68967 34.3 169.68967Q35.1125 169.68967 35.7375 169.34592Q36.378124 168.98654 36.675 168.36154Q36.909374 167.89279 36.909374 166.95529L36.909374 166.43967ZM43.675 169.34592L43.878124 170.59592Q43.284374 170.72092 42.815624 170.72092Q42.05 170.72092 41.628124 170.48654Q41.20625 170.23654 41.034374 169.84592Q40.8625 169.43967 40.8625 168.17404L40.8625 163.40842L39.83125 163.40842L39.83125 162.31467L40.8625 162.31467L40.8625 160.25217L42.26875 159.40842L42.26875 162.31467L43.675 162.31467L43.675 163.40842L42.26875 163.40842L42.26875 168.25217Q42.26875 168.86154 42.33125 169.03342Q42.409374 169.20529 42.58125 169.31467Q42.753124 169.40842 43.065624 169.40842Q43.3 169.40842 43.675 169.34592ZM50.05 170.61154L50.05 169.39279Q49.08125 170.79904 47.409374 170.79904Q46.675 170.79904 46.034374 170.51779Q45.409374 170.23654 45.096874 169.81467Q44.784374 169.37717 44.659374 168.76779Q44.58125 168.34592 44.58125 167.45529L44.58125 162.31467L45.9875 162.31467L45.9875 166.90842Q45.9875 168.01779 46.065624 168.39279Q46.20625 168.95529 46.628124 169.26779Q47.065624 169.58029 47.690624 169.58029Q48.33125 169.58029 48.878124 169.26779Q49.440624 168.93967 49.659374 168.37717Q49.89375 167.81467 49.89375 166.75217L49.89375 162.31467L51.3 162.31467L51.3 170.61154L50.05 170.61154ZM53.596874 170.61154L53.596874 162.31467L54.8625 162.31467L54.8625 163.56467Q55.346874 162.68967 55.753124 162.40842Q56.159374 162.12717 56.659374 162.12717Q57.3625 162.12717 58.096874 162.58029L57.6125 163.87717Q57.096874 163.58029 56.58125 163.58029Q56.128124 163.58029 55.753124 163.86154Q55.39375 164.12717 55.2375 164.62717Q55.003124 165.37717 55.003124 166.26779L55.003124 170.61154L53.596874 170.61154ZM64.01875 169.58029Q63.2375 170.25217 62.51875 170.53342Q61.8 170.79904 60.971874 170.79904Q59.596874 170.79904 58.8625 170.12717Q58.128124 169.45529 58.128124 168.42404Q58.128124 167.81467 58.409374 167.31467Q58.690624 166.79904 59.128124 166.50217Q59.58125 166.18967 60.14375 166.03342Q60.565624 165.92404 61.39375 165.83029Q63.096874 165.62717 63.909374 165.34592Q63.909374 165.04904 63.909374 164.97092Q63.909374 164.11154 63.51875 163.76779Q62.971874 163.28342 61.909374 163.28342Q60.925 163.28342 60.440624 163.64279Q59.971874 163.98654 59.753124 164.86154L58.378124 164.67404Q58.565624 163.79904 58.9875 163.25217Q59.425 162.70529 60.2375 162.42404Q61.05 162.12717 62.1125 162.12717Q63.175 162.12717 63.83125 162.37717Q64.50313 162.62717 64.81563 163.00217Q65.12813 163.37717 65.25313 163.95529Q65.33125 164.31467 65.33125 165.25217L65.33125 167.12717Q65.33125 169.09592 65.40938 169.61154Q65.50313 170.12717 65.76875 170.61154L64.3 170.61154Q64.08125 170.17404 64.01875 169.58029ZM63.909374 166.43967Q63.14375 166.75217 61.6125 166.97092Q60.7375 167.09592 60.378124 167.25217Q60.01875 167.40842 59.815624 167.72092Q59.628124 168.01779 59.628124 168.37717Q59.628124 168.93967 60.05 169.31467Q60.4875 169.68967 61.3 169.68967Q62.1125 169.68967 62.7375 169.34592Q63.378124 168.98654 63.675 168.36154Q63.909374 167.89279 63.909374 166.95529L63.909374 166.43967ZM67.58125 170.61154L67.58125 159.15842L68.9875 159.15842L68.9875 170.61154L67.58125 170.61154Z" fill-rule="nonzero"/><path fill="#9e9e9e" d="M24.51875 192.61154L23.1125 192.61154L23.1125 183.64279Q22.596874 184.12717 21.76875 184.61154Q20.95625 185.09592 20.3 185.34592L20.3 183.98654Q21.471874 183.42404 22.346874 182.64279Q23.2375 181.84592 23.6125 181.11154L24.51875 181.11154L24.51875 192.61154ZM30.378124 186.39279Q29.503124 186.08029 29.08125 185.48654Q28.659374 184.89279 28.659374 184.06467Q28.659374 182.81467 29.55 181.97092Q30.45625 181.11154 31.95625 181.11154Q33.45625 181.11154 34.3625 181.98654Q35.284374 182.84592 35.284374 184.09592Q35.284374 184.89279 34.8625 185.48654Q34.440624 186.08029 33.596874 186.39279Q34.64375 186.73654 35.190624 187.50217Q35.753124 188.26779 35.753124 189.33029Q35.753124 190.79904 34.70625 191.81467Q33.675 192.81467 31.971874 192.81467Q30.284374 192.81467 29.2375 191.81467Q28.20625 190.79904 28.20625 189.29904Q28.20625 188.17404 28.76875 187.42404Q29.33125 186.67404 30.378124 186.39279ZM30.096874 184.01779Q30.096874 184.83029 30.6125 185.34592Q31.14375 185.86154 31.9875 185.86154Q32.8 185.86154 33.315624 185.34592Q33.83125 184.83029 33.83125 184.09592Q33.83125 183.31467 33.3 182.79904Q32.76875 182.26779 31.971874 182.26779Q31.159374 182.26779 30.628124 182.78342Q30.096874 183.29904 30.096874 184.01779ZM29.64375 189.29904Q29.64375 189.90842 29.925 190.47092Q30.221874 191.03342 30.784374 191.34592Q31.346874 191.64279 31.9875 191.64279Q33.003124 191.64279 33.659374 191.00217Q34.315624 190.34592 34.315624 189.34592Q34.315624 188.33029 33.628124 187.67404Q32.95625 187.00217 31.940624 187.00217Q30.95625 187.00217 30.3 187.65842Q29.64375 188.31467 29.64375 189.29904ZM38.003124 192.61154L38.003124 191.00217L39.6125 191.00217L39.6125 192.61154L38.003124 192.61154ZM43.378124 186.39279Q42.503124 186.08029 42.08125 185.48654Q41.659374 184.89279 41.659374 184.06467Q41.659374 182.81467 42.55 181.97092Q43.45625 181.11154 44.95625 181.11154Q46.45625 181.11154 47.3625 181.98654Q48.284374 182.84592 48.284374 184.09592Q48.284374 184.89279 47.8625 185.48654Q47.440624 186.08029 46.596874 186.39279Q47.64375 186.73654 48.190624 187.50217Q48.753124 188.26779 48.753124 189.33029Q48.753124 190.79904 47.70625 191.81467Q46.675 192.81467 44.971874 192.81467Q43.284374 192.81467 42.2375 191.81467Q41.20625 190.79904 41.20625 189.29904Q41.20625 188.17404 41.76875 187.42404Q42.33125 186.67404 43.378124 186.39279ZM43.096874 184.01779Q43.096874 184.83029 43.6125 185.34592Q44.14375 185.86154 44.9875 185.86154Q45.8 185.86154 46.315624 185.34592Q46.83125 184.83029 46.83125 184.09592Q46.83125 183.31467 46.3 182.79904Q45.76875 182.26779 44.971874 182.26779Q44.159374 182.26779 43.628124 182.78342Q43.096874 183.29904 43.096874 184.01779ZM42.64375 189.29904Q42.64375 189.90842 42.925 190.47092Q43.221874 191.03342 43.784374 191.34592Q44.346874 191.64279 44.9875 191.64279Q46.003124 191.64279 46.659374 191.00217Q47.315624 190.34592 47.315624 189.34592Q47.315624 188.33029 46.628124 187.67404Q45.95625 187.00217 44.940624 187.00217Q43.95625 187.00217 43.3 187.65842Q42.64375 188.31467 42.64375 189.29904ZM50.4875 183.90842Q50.4875 182.67404 51.096874 181.81467Q51.721874 180.95529 52.89375 180.95529Q53.971874 180.95529 54.675 181.73654Q55.378124 182.50217 55.378124 183.98654Q55.378124 185.43967 54.659374 186.23654Q53.95625 187.01779 52.909374 187.01779Q51.8625 187.01779 51.175 186.25217Q50.4875 185.47092 50.4875 183.90842ZM52.925 181.92404Q52.409374 181.92404 52.05 182.37717Q51.70625 182.83029 51.70625 184.04904Q51.70625 185.14279 52.05 185.59592Q52.409374 186.04904 52.925 186.04904Q53.45625 186.04904 53.8 185.59592Q54.159374 185.14279 54.159374 183.93967Q54.159374 182.83029 53.8 182.37717Q53.45625 181.92404 52.925 181.92404ZM52.940624 193.03342L59.20625 180.95529L60.346874 180.95529L54.096874 193.03342L52.940624 193.03342ZM57.89375 189.92404Q57.89375 188.68967 58.503124 187.83029Q59.128124 186.97092 60.3 186.97092Q61.378124 186.97092 62.08125 187.75217Q62.8 188.51779 62.8 190.00217Q62.8 191.45529 62.08125 192.25217Q61.3625 193.03342 60.315624 193.03342Q59.26875 193.03342 58.58125 192.25217Q57.89375 191.47092 57.89375 189.92404ZM60.346874 187.93967Q59.815624 187.93967 59.45625 188.39279Q59.1125 188.84592 59.1125 190.06467Q59.1125 191.15842 59.45625 191.61154Q59.815624 192.06467 60.33125 192.06467Q60.878124 192.06467 61.221874 191.61154Q61.565624 191.15842 61.565624 189.95529Q61.565624 188.84592 61.20625 188.39279Q60.8625 187.93967 60.346874 187.93967Z" fill-rule="nonzero"/><path stroke="#757575" stroke-width="1.0" stroke-linecap="butt" d="M18.55 176.11154L145.23334 176.11154L161.38725 176.11154" fill-rule="nonzero"/><path fill="#9e9e9e" d="M163.38725 176.11154C163.38725 175.00697 162.49182 174.11154 161.38725 174.11154C160.28268 174.11154 159.38725 175.00697 159.38725 176.11154C159.38725 177.21611 160.28268 178.11154 161.38725 178.11154C162.49182 178.11154 163.38725 177.21611 163.38725 176.11154" fill-rule="nonzero"/><path fill="#efefef" d="M481.41876 276.70114L485.825 265.24802L487.46564 265.24802L492.15314 276.70114L490.41876 276.70114L489.09064 273.2324L484.29376 273.2324L483.04376 276.70114L481.41876 276.70114ZM484.73126 271.99802L488.6219 271.99802L487.41876 268.82614Q486.8719 267.37302 486.60626 266.45114Q486.3875 267.5449 485.9969 268.63864L484.73126 271.99802ZM493.4969 276.70114L493.4969 268.40427L494.7625 268.40427L494.7625 269.65427Q495.2469 268.77927 495.65314 268.49802Q496.0594 268.21677 496.5594 268.21677Q497.2625 268.21677 497.9969 268.6699L497.5125 269.96677Q496.9969 269.6699 496.48126 269.6699Q496.02814 269.6699 495.65314 269.95114Q495.29376 270.21677 495.1375 270.71677Q494.90314 271.46677 494.90314 272.3574L494.90314 276.70114L493.4969 276.70114ZM503.91876 273.65427L505.3094 273.84177Q505.075 275.26364 504.1375 276.07614Q503.21564 276.88864 501.85626 276.88864Q500.15314 276.88864 499.10626 275.77927Q498.075 274.65427 498.075 272.57614Q498.075 271.2324 498.5125 270.2324Q498.96564 269.21677 499.8719 268.71677Q500.79376 268.21677 501.85626 268.21677Q503.21564 268.21677 504.075 268.90427Q504.9344 269.57614 505.16876 270.84177L503.8094 271.0449Q503.60626 270.21677 503.10626 269.7949Q502.6219 269.37302 501.91876 269.37302Q500.85626 269.37302 500.1844 270.13864Q499.52814 270.88864 499.52814 272.5449Q499.52814 274.21677 500.16876 274.9824Q500.8094 275.7324 501.84064 275.7324Q502.66876 275.7324 503.21564 275.2324Q503.77814 274.71677 503.91876 273.65427ZM506.5125 276.70114L506.5125 265.24802L507.91876 265.24802L507.91876 269.3574Q508.90314 268.21677 510.40314 268.21677Q511.325 268.21677 511.9969 268.57614Q512.6844 268.93552 512.96564 269.57614Q513.2625 270.21677 513.2625 271.43552L513.2625 276.70114L511.85626 276.70114L511.85626 271.43552Q511.85626 270.38864 511.40314 269.90427Q510.95 269.4199 510.10626 269.4199Q509.48126 269.4199 508.9344 269.74802Q508.3875 270.07614 508.15314 270.63864Q507.91876 271.18552 507.91876 272.15427L507.91876 276.70114L506.5125 276.70114ZM515.5125 266.8574L515.5125 265.24802L516.91876 265.24802L516.91876 266.8574L515.5125 266.8574ZM515.5125 276.70114L515.5125 268.40427L516.91876 268.40427L516.91876 276.70114L515.5125 276.70114ZM522.575 275.43552L522.77814 276.68552Q522.1844 276.81052 521.71564 276.81052Q520.95 276.81052 520.52814 276.57614Q520.10626 276.32614 519.9344 275.93552Q519.7625 275.52927 519.7625 274.26364L519.7625 269.49802L518.73126 269.49802L518.73126 268.40427L519.7625 268.40427L519.7625 266.34177L521.16876 265.49802L521.16876 268.40427L522.575 268.40427L522.575 269.49802L521.16876 269.49802L521.16876 274.34177Q521.16876 274.95114 521.23126 275.12302Q521.3094 275.2949 521.48126 275.40427Q521.65314 275.49802 521.96564 275.49802Q522.2 275.49802 522.575 275.43552ZM529.1844 274.02927L530.6375 274.20114Q530.29376 275.4824 529.35626 276.18552Q528.4344 276.88864 526.9969 276.88864Q525.16876 276.88864 524.10626 275.76364Q523.04376 274.63864 523.04376 272.62302Q523.04376 270.52927 524.1219 269.37302Q525.2 268.21677 526.91876 268.21677Q528.575 268.21677 529.6219 269.3574Q530.6844 270.4824 530.6844 272.52927Q530.6844 272.65427 530.6844 272.90427L524.4969 272.90427Q524.575 274.27927 525.2625 275.01364Q525.96564 275.7324 526.9969 275.7324Q527.77814 275.7324 528.325 275.32614Q528.8719 274.9199 529.1844 274.02927ZM524.575 271.74802L529.2 271.74802Q529.10626 270.70114 528.66876 270.18552Q527.9969 269.37302 526.9344 269.37302Q525.96564 269.37302 525.29376 270.02927Q524.6375 270.6699 524.575 271.74802ZM537.91876 273.65427L539.3094 273.84177Q539.075 275.26364 538.1375 276.07614Q537.21564 276.88864 535.85626 276.88864Q534.15314 276.88864 533.10626 275.77927Q532.075 274.65427 532.075 272.57614Q532.075 271.2324 532.5125 270.2324Q532.96564 269.21677 533.8719 268.71677Q534.79376 268.21677 535.85626 268.21677Q537.21564 268.21677 538.075 268.90427Q538.9344 269.57614 539.16876 270.84177L537.8094 271.0449Q537.60626 270.21677 537.10626 269.7949Q536.6219 269.37302 535.91876 269.37302Q534.85626 269.37302 534.1844 270.13864Q533.52814 270.88864 533.52814 272.5449Q533.52814 274.21677 534.16876 274.9824Q534.8094 275.7324 535.84064 275.7324Q536.66876 275.7324 537.21564 275.2324Q537.77814 274.71677 537.91876 273.65427ZM543.575 275.43552L543.77814 276.68552Q543.1844 276.81052 542.71564 276.81052Q541.95 276.81052 541.52814 276.57614Q541.10626 276.32614 540.9344 275.93552Q540.7625 275.52927 540.7625 274.26364L540.7625 269.49802L539.73126 269.49802L539.73126 268.40427L540.7625 268.40427L540.7625 266.34177L542.16876 265.49802L542.16876 268.40427L543.575 268.40427L543.575 269.49802L542.16876 269.49802L542.16876 274.34177Q542.16876 274.95114 542.23126 275.12302Q542.3094 275.2949 542.48126 275.40427Q542.65314 275.49802 542.96564 275.49802Q543.2 275.49802 543.575 275.43552ZM549.95 276.70114L549.95 275.4824Q548.98126 276.88864 547.3094 276.88864Q546.575 276.88864 545.9344 276.6074Q545.3094 276.32614 544.9969 275.90427Q544.6844 275.46677 544.5594 274.8574Q544.48126 274.43552 544.48126 273.5449L544.48126 268.40427L545.8875 268.40427L545.8875 272.99802Q545.8875 274.1074 545.96564 274.4824Q546.10626 275.0449 546.52814 275.3574Q546.96564 275.6699 547.59064 275.6699Q548.23126 275.6699 548.77814 275.3574Q549.34064 275.02927 549.5594 274.46677Q549.79376 273.90427 549.79376 272.84177L549.79376 268.40427L551.2 268.40427L551.2 276.70114L549.95 276.70114ZM553.4969 276.70114L553.4969 268.40427L554.7625 268.40427L554.7625 269.65427Q555.2469 268.77927 555.65314 268.49802Q556.0594 268.21677 556.5594 268.21677Q557.2625 268.21677 557.9969 268.6699L557.5125 269.96677Q556.9969 269.6699 556.48126 269.6699Q556.02814 269.6699 555.65314 269.95114Q555.29376 270.21677 555.1375 270.71677Q554.90314 271.46677 554.90314 272.3574L554.90314 276.70114L553.4969 276.70114ZM564.1844 274.02927L565.6375 274.20114Q565.29376 275.4824 564.35626 276.18552Q563.4344 276.88864 561.9969 276.88864Q560.16876 276.88864 559.10626 275.76364Q558.04376 274.63864 558.04376 272.62302Q558.04376 270.52927 559.1219 269.37302Q560.2 268.21677 561.91876 268.21677Q563.575 268.21677 564.6219 269.3574Q565.6844 270.4824 565.6844 272.52927Q565.6844 272.65427 565.6844 272.90427L559.4969 272.90427Q559.575 274.27927 560.2625 275.01364Q560.96564 275.7324 561.9969 275.7324Q562.77814 275.7324 563.325 275.32614Q563.8719 274.9199 564.1844 274.02927ZM559.575 271.74802L564.2 271.74802Q564.10626 270.70114 563.66876 270.18552Q562.9969 269.37302 561.9344 269.37302Q560.96564 269.37302 560.29376 270.02927Q559.6375 270.6699 559.575 271.74802ZM578.0594 275.34177Q577.35626 276.12302 576.52814 276.51364Q575.71564 276.90427 574.7625 276.90427Q573.0125 276.90427 571.98126 275.70114Q571.1375 274.7324 571.1375 273.5449Q571.1375 272.4824 571.825 271.62302Q572.5125 270.76364 573.8719 270.12302Q573.09064 269.2324 572.825 268.68552Q572.575 268.12302 572.575 267.6074Q572.575 266.57614 573.3875 265.81052Q574.2 265.0449 575.41876 265.0449Q576.59064 265.0449 577.34064 265.76364Q578.09064 266.4824 578.09064 267.49802Q578.09064 269.12302 575.91876 270.27927L577.98126 272.90427Q578.325 272.21677 578.52814 271.31052L579.98126 271.62302Q579.60626 273.12302 578.96564 274.09177Q579.7625 275.13864 580.7625 275.84177L579.8094 276.96677Q578.96564 276.4199 578.0594 275.34177ZM575.2 269.37302Q576.10626 268.84177 576.3719 268.43552Q576.65314 268.02927 576.65314 267.52927Q576.65314 266.95114 576.27814 266.57614Q575.90314 266.20114 575.35626 266.20114Q574.77814 266.20114 574.40314 266.57614Q574.02814 266.93552 574.02814 267.46677Q574.02814 267.7324 574.15314 268.02927Q574.29376 268.32614 574.575 268.65427L575.2 269.37302ZM577.16876 274.2324L574.59064 271.0449Q573.45 271.71677 573.04376 272.31052Q572.65314 272.88864 572.65314 273.45114Q572.65314 274.15427 573.2 274.90427Q573.7625 275.65427 574.77814 275.65427Q575.41876 275.65427 576.09064 275.26364Q576.7625 274.8574 577.16876 274.2324Z" fill-rule="nonzero"/><path fill="#9e9e9e" d="M544.41876 290.0449L543.0125 290.15427Q542.825 289.32614 542.48126 288.95114Q541.91876 288.3574 541.075 288.3574Q540.40314 288.3574 539.90314 288.7324Q539.23126 289.21677 538.84064 290.15427Q538.46564 291.07614 538.45 292.7949Q538.96564 292.01364 539.7 291.63864Q540.4344 291.26364 541.23126 291.26364Q542.6375 291.26364 543.6219 292.31052Q544.6219 293.34177 544.6219 294.9824Q544.6219 296.06052 544.15314 296.9824Q543.6844 297.90427 542.8719 298.40427Q542.0594 298.90427 541.02814 298.90427Q539.27814 298.90427 538.16876 297.6074Q537.0594 296.31052 537.0594 293.34177Q537.0594 290.01364 538.27814 288.51364Q539.35626 287.20114 541.16876 287.20114Q542.5125 287.20114 543.3719 287.96677Q544.2469 288.71677 544.41876 290.0449ZM538.66876 294.9824Q538.66876 295.71677 538.98126 296.38864Q539.29376 297.0449 539.84064 297.38864Q540.40314 297.7324 541.0125 297.7324Q541.90314 297.7324 542.54376 297.01364Q543.1844 296.2949 543.1844 295.06052Q543.1844 293.87302 542.54376 293.20114Q541.91876 292.51364 540.95 292.51364Q539.9969 292.51364 539.325 293.20114Q538.66876 293.87302 538.66876 294.9824ZM548.27814 292.4824Q547.40314 292.1699 546.98126 291.57614Q546.5594 290.9824 546.5594 290.15427Q546.5594 288.90427 547.45 288.06052Q548.35626 287.20114 549.85626 287.20114Q551.35626 287.20114 552.2625 288.07614Q553.1844 288.93552 553.1844 290.18552Q553.1844 290.9824 552.7625 291.57614Q552.34064 292.1699 551.4969 292.4824Q552.54376 292.82614 553.09064 293.59177Q553.65314 294.3574 553.65314 295.4199Q553.65314 296.88864 552.60626 297.90427Q551.575 298.90427 549.8719 298.90427Q548.1844 298.90427 547.1375 297.90427Q546.10626 296.88864 546.10626 295.38864Q546.10626 294.26364 546.66876 293.51364Q547.23126 292.76364 548.27814 292.4824ZM547.9969 290.1074Q547.9969 290.9199 548.5125 291.43552Q549.04376 291.95114 549.8875 291.95114Q550.7 291.95114 551.21564 291.43552Q551.73126 290.9199 551.73126 290.18552Q551.73126 289.40427 551.2 288.88864Q550.66876 288.3574 549.8719 288.3574Q549.0594 288.3574 548.52814 288.87302Q547.9969 289.38864 547.9969 290.1074ZM547.54376 295.38864Q547.54376 295.99802 547.825 296.56052Q548.1219 297.12302 548.6844 297.43552Q549.2469 297.7324 549.8875 297.7324Q550.90314 297.7324 551.5594 297.09177Q552.21564 296.43552 552.21564 295.43552Q552.21564 294.4199 551.52814 293.76364Q550.85626 293.09177 549.84064 293.09177Q548.85626 293.09177 548.2 293.74802Q547.54376 294.40427 547.54376 295.38864ZM555.90314 298.70114L555.90314 297.09177L557.5125 297.09177L557.5125 298.70114L555.90314 298.70114ZM561.27814 292.4824Q560.40314 292.1699 559.98126 291.57614Q559.5594 290.9824 559.5594 290.15427Q559.5594 288.90427 560.45 288.06052Q561.35626 287.20114 562.85626 287.20114Q564.35626 287.20114 565.2625 288.07614Q566.1844 288.93552 566.1844 290.18552Q566.1844 290.9824 565.7625 291.57614Q565.34064 292.1699 564.4969 292.4824Q565.54376 292.82614 566.09064 293.59177Q566.65314 294.3574 566.65314 295.4199Q566.65314 296.88864 565.60626 297.90427Q564.575 298.90427 562.8719 298.90427Q561.1844 298.90427 560.1375 297.90427Q559.10626 296.88864 559.10626 295.38864Q559.10626 294.26364 559.66876 293.51364Q560.23126 292.76364 561.27814 292.4824ZM560.9969 290.1074Q560.9969 290.9199 561.5125 291.43552Q562.04376 291.95114 562.8875 291.95114Q563.7 291.95114 564.21564 291.43552Q564.73126 290.9199 564.73126 290.18552Q564.73126 289.40427 564.2 288.88864Q563.66876 288.3574 562.8719 288.3574Q562.0594 288.3574 561.52814 288.87302Q560.9969 289.38864 560.9969 290.1074ZM560.54376 295.38864Q560.54376 295.99802 560.825 296.56052Q561.1219 297.12302 561.6844 297.43552Q562.2469 297.7324 562.8875 297.7324Q563.90314 297.7324 564.5594 297.09177Q565.21564 296.43552 565.21564 295.43552Q565.21564 294.4199 564.52814 293.76364Q563.85626 293.09177 562.84064 293.09177Q561.85626 293.09177 561.2 293.74802Q560.54376 294.40427 560.54376 295.38864ZM568.3875 289.99802Q568.3875 288.76364 568.9969 287.90427Q569.6219 287.0449 570.79376 287.0449Q571.8719 287.0449 572.575 287.82614Q573.27814 288.59177 573.27814 290.07614Q573.27814 291.52927 572.5594 292.32614Q571.85626 293.1074 570.8094 293.1074Q569.7625 293.1074 569.075 292.34177Q568.3875 291.56052 568.3875 289.99802ZM570.825 288.01364Q570.3094 288.01364 569.95 288.46677Q569.60626 288.9199 569.60626 290.13864Q569.60626 291.2324 569.95 291.68552Q570.3094 292.13864 570.825 292.13864Q571.35626 292.13864 571.7 291.68552Q572.0594 291.2324 572.0594 290.02927Q572.0594 288.9199 571.7 288.46677Q571.35626 288.01364 570.825 288.01364ZM570.84064 299.12302L577.10626 287.0449L578.2469 287.0449L571.9969 299.12302L570.84064 299.12302ZM575.79376 296.01364Q575.79376 294.77927 576.40314 293.9199Q577.02814 293.06052 578.2 293.06052Q579.27814 293.06052 579.98126 293.84177Q580.7 294.6074 580.7 296.09177Q580.7 297.5449 579.98126 298.34177Q579.2625 299.12302 578.21564 299.12302Q577.16876 299.12302 576.48126 298.34177Q575.79376 297.56052 575.79376 296.01364ZM578.2469 294.02927Q577.71564 294.02927 577.35626 294.4824Q577.0125 294.93552 577.0125 296.15427Q577.0125 297.24802 577.35626 297.70114Q577.71564 298.15427 578.23126 298.15427Q578.77814 298.15427 579.1219 297.70114Q579.46564 297.24802 579.46564 296.0449Q579.46564 294.93552 579.10626 294.4824Q578.7625 294.02927 578.2469 294.02927Z" fill-rule="nonzero"/><path stroke="#757575" stroke-width="1.0" stroke-linecap="butt" d="M581.45 282.20114L454.76666 282.20114L417.51022 282.20114" fill-rule="nonzero"/><path fill="#9e9e9e" d="M419.51022 282.20114C419.51022 281.0966 418.61478 280.20114 417.51022 280.20114C416.40564 280.20114 415.51022 281.0966 415.51022 282.20114C415.51022 283.30573 416.40564 284.20114 417.51022 284.20114C418.61478 284.20114 419.51022 283.30573 419.51022 282.20114" fill-rule="nonzero"/><path fill="#f3f3f3" d="M271.26562 32.534374L273.15625 33.003124Q272.5625 35.346874 271.01562 36.58125Q269.46875 37.8 267.21875 37.8Q264.90625 37.8 263.45312 36.8625Q262.01562 35.909374 261.25 34.128124Q260.5 32.33125 260.5 30.284374Q260.5 28.05 261.34375 26.39375Q262.20312 24.721874 263.78125 23.8625Q265.35938 22.9875 267.25 22.9875Q269.40625 22.9875 270.85938 24.08125Q272.32812 25.175 272.90625 27.159374L271.04688 27.596874Q270.54688 26.034374 269.59375 25.33125Q268.65625 24.6125 267.21875 24.6125Q265.5625 24.6125 264.45312 25.409374Q263.34375 26.190624 262.89062 27.534374Q262.45312 28.8625 262.45312 30.26875Q262.45312 32.096874 262.98438 33.471874Q263.51562 34.83125 264.64062 35.503124Q265.76562 36.175 267.0625 36.175Q268.65625 36.175 269.76562 35.253124Q270.875 34.33125 271.26562 32.534374ZM281.59375 36.26875Q280.60938 37.096874 279.70312 37.440624Q278.79688 37.784374 277.76562 37.784374Q276.0625 37.784374 275.14062 36.95625Q274.21875 36.1125 274.21875 34.815624Q274.21875 34.05 274.5625 33.425Q274.92188 32.8 275.48438 32.425Q276.04688 32.034374 276.75 31.83125Q277.26562 31.70625 278.3125 31.565624Q280.4375 31.315624 281.4375 30.971874Q281.45312 30.6125 281.45312 30.503124Q281.45312 29.440624 280.95312 28.9875Q280.28125 28.39375 278.95312 28.39375Q277.70312 28.39375 277.10938 28.83125Q276.53125 29.26875 276.25 30.378124L274.53125 30.14375Q274.76562 29.034374 275.29688 28.3625Q275.82812 27.675 276.84375 27.315624Q277.85938 26.940624 279.20312 26.940624Q280.53125 26.940624 281.35938 27.253124Q282.1875 27.565624 282.57812 28.05Q282.96875 28.51875 283.125 29.2375Q283.21875 29.690624 283.21875 30.8625L283.21875 33.20625Q283.21875 35.659374 283.32812 36.315624Q283.4375 36.95625 283.78125 37.55L281.9375 37.55Q281.67188 37.003124 281.59375 36.26875ZM281.4375 32.346874Q280.48438 32.7375 278.5625 33.003124Q277.48438 33.159374 277.03125 33.3625Q276.59375 33.55 276.34375 33.925Q276.09375 34.3 276.09375 34.76875Q276.09375 35.471874 276.625 35.940624Q277.15625 36.409374 278.1875 36.409374Q279.20312 36.409374 279.98438 35.971874Q280.78125 35.51875 281.15625 34.753124Q281.4375 34.14375 281.4375 32.9875L281.4375 32.346874ZM289.65625 35.971874L289.90625 37.534374Q289.17188 37.690624 288.57812 37.690624Q287.625 37.690624 287.09375 37.39375Q286.57812 37.08125 286.35938 36.596874Q286.14062 36.096874 286.14062 34.51875L286.14062 28.55L284.85938 28.55L284.85938 27.175L286.14062 27.175L286.14062 24.6125L287.89062 23.55L287.89062 27.175L289.65625 27.175L289.65625 28.55L287.89062 28.55L287.89062 34.6125Q287.89062 35.3625 287.98438 35.58125Q288.07812 35.784374 288.28125 35.925Q288.5 36.05 288.89062 36.05Q289.17188 36.05 289.65625 35.971874ZM298.92188 34.20625L300.73438 34.440624Q300.3125 36.01875 299.14062 36.909374Q297.98438 37.784374 296.17188 37.784374Q293.90625 37.784374 292.5625 36.39375Q291.23438 34.9875 291.23438 32.45625Q291.23438 29.83125 292.57812 28.39375Q293.92188 26.940624 296.07812 26.940624Q298.15625 26.940624 299.46875 28.3625Q300.79688 29.76875 300.79688 32.346874Q300.79688 32.503124 300.78125 32.815624L293.04688 32.815624Q293.14062 34.51875 294.01562 35.425Q294.89062 36.33125 296.1875 36.33125Q297.15625 36.33125 297.82812 35.83125Q298.51562 35.315624 298.92188 34.20625ZM293.14062 31.3625L298.9375 31.3625Q298.82812 30.065624 298.28125 29.409374Q297.4375 28.39375 296.09375 28.39375Q294.89062 28.39375 294.0625 29.20625Q293.23438 30.003124 293.14062 31.3625ZM302.5 38.409374L304.20312 38.659374Q304.3125 39.45625 304.79688 39.815624Q305.45312 40.3 306.59375 40.3Q307.8125 40.3 308.46875 39.815624Q309.14062 39.33125 309.375 38.45625Q309.51562 37.909374 309.5 36.190624Q308.34375 37.55 306.625 37.55Q304.48438 37.55 303.3125 36.003124Q302.14062 34.45625 302.14062 32.3Q302.14062 30.815624 302.67188 29.565624Q303.21875 28.315624 304.23438 27.628124Q305.26562 26.940624 306.64062 26.940624Q308.46875 26.940624 309.67188 28.425L309.67188 27.175L311.28125 27.175L311.28125 36.14375Q311.28125 38.565624 310.78125 39.565624Q310.29688 40.58125 309.21875 41.159374Q308.15625 41.753124 306.59375 41.753124Q304.75 41.753124 303.59375 40.925Q302.45312 40.096874 302.5 38.409374ZM303.95312 32.175Q303.95312 34.221874 304.76562 35.159374Q305.57812 36.096874 306.79688 36.096874Q308.0 36.096874 308.8125 35.159374Q309.64062 34.221874 309.64062 32.2375Q309.64062 30.33125 308.79688 29.3625Q307.95312 28.39375 306.76562 28.39375Q305.59375 28.39375 304.76562 29.346874Q303.95312 30.3 303.95312 32.175ZM313.17188 32.3625Q313.17188 29.4875 314.76562 28.096874Q316.10938 26.940624 318.03125 26.940624Q320.17188 26.940624 321.51562 28.346874Q322.875 29.753124 322.875 32.221874Q322.875 34.221874 322.28125 35.378124Q321.6875 36.51875 320.53125 37.159374Q319.39062 37.784374 318.03125 37.784374Q315.84375 37.784374 314.5 36.39375Q313.17188 34.9875 313.17188 32.3625ZM314.96875 32.3625Q314.96875 34.3625 315.82812 35.346874Q316.70312 36.33125 318.03125 36.33125Q319.34375 36.33125 320.20312 35.346874Q321.07812 34.346874 321.07812 32.3Q321.07812 30.378124 320.20312 29.39375Q319.32812 28.39375 318.03125 28.39375Q316.70312 28.39375 315.82812 29.39375Q314.96875 30.378124 314.96875 32.3625ZM324.79688 37.55L324.79688 27.175L326.375 27.175L326.375 28.753124Q326.98438 27.64375 327.5 27.3Q328.01562 26.940624 328.625 26.940624Q329.51562 26.940624 330.4375 27.503124L329.82812 29.14375Q329.1875 28.753124 328.54688 28.753124Q327.96875 28.753124 327.5 29.1125Q327.04688 29.45625 326.84375 30.065624Q326.5625 31.003124 326.5625 32.1125L326.5625 37.55L324.79688 37.55ZM331.73438 41.55L331.54688 39.89375Q332.125 40.05 332.54688 40.05Q333.14062 40.05 333.48438 39.846874Q333.84375 39.659374 334.0625 39.315624Q334.23438 39.05 334.60938 38.003124Q334.65625 37.846874 334.76562 37.565624L330.82812 27.175L332.71875 27.175L334.875 33.190624Q335.29688 34.33125 335.625 35.58125Q335.9375 34.378124 336.34375 33.221874L338.5625 27.175L340.32812 27.175L336.375 37.721874Q335.75 39.440624 335.39062 40.08125Q334.92188 40.95625 334.3125 41.346874Q333.71875 41.753124 332.875 41.753124Q332.35938 41.753124 331.73438 41.55Z" fill-rule="nonzero"/></svg>