<svg version="1.1" viewBox="0.0 0.0 600.0 371.0" fill="none" stroke="none" stroke-linecap="square" stroke-miterlimit="10" width="600" height="371" xmlns:xlink="http://www.w3.org/1999/xlink" xmlns="http://www.w3.org/2000/svg"><path fill="#ffffff" fill-opacity="0.0" d="M0 0L600.0 0L600.0 371.0L0 371.0L0 0Z" fill-rule="nonzero"/><path fill="#304388" d="M300.0 54.916668C310.75452 54.916668 321.47736 56.082844 331.98044 58.39475L307.99512 167.36119C305.36932 166.78322 302.68863 166.49167 300.0 166.49167Z" fill-rule="nonzero"/><path fill="#533990" d="M331.98044 58.39475C385.766 70.23385 428.6105 110.8183 443.34412 163.88403C458.07776 216.94977 442.2896 273.81348 402.30676 311.68726L325.5767 230.68431C335.57242 221.21587 339.51944 206.99994 335.83603 193.7335C332.15262 180.46707 321.4415 170.32097 307.99512 167.36119Z" fill-rule="nonzero"/><path fill="#e5a345" d="M161.79922 258.74756C143.54076 212.92223 149.18477 161.02632 176.86746 120.1974C204.55016 79.368484 250.67119 54.916668 300.0 54.916668L300.0 166.49167C287.6678 166.49167 276.13754 172.60461 269.21686 182.81184C262.2962 193.01907 260.8852 205.99306 265.4498 217.44939Z" fill-rule="nonzero"/><path fill="#df8d43" d="M402.30676 311.68726C366.49426 345.61066 316.1951 359.57614 268.01956 348.97192C219.84402 338.36768 180.05771 304.57288 161.79922 258.74756L265.4498 217.44939C270.01443 228.90572 279.961 237.35442 292.00488 240.00548C304.04877 242.65654 316.62357 239.16516 325.5767 230.68431Z" fill-rule="nonzero"/><path fill="#ffffff" d="M373.9611 179.37009L375.55484 179.16696Q375.82047 180.51071 376.4767 181.10446Q377.13297 181.69821 378.07047 181.69821Q379.19547 181.69821 379.9611 180.93259Q380.7267 180.15134 380.7267 179.01071Q380.7267 177.91696 380.00797 177.21384Q379.30484 176.49509 378.2111 176.49509Q377.75797 176.49509 377.0861 176.68259L377.25797 175.29196Q377.4142 175.30759 377.5236 175.30759Q378.5236 175.30759 379.3361 174.77634Q380.1486 174.24509 380.1486 173.15134Q380.1486 172.27634 379.55484 171.71384Q378.9611 171.13571 378.0392 171.13571Q377.11734 171.13571 376.49234 171.71384Q375.88297 172.29196 375.7111 173.46384L374.13297 173.18259Q374.4142 171.58884 375.44547 170.71384Q376.4767 169.83884 378.00797 169.83884Q379.05484 169.83884 379.94547 170.29196Q380.8361 170.74509 381.30484 171.52634Q381.7736 172.30759 381.7736 173.18259Q381.7736 174.02634 381.32047 174.71384Q380.88297 175.38571 379.99234 175.79196Q381.13297 176.05759 381.75797 176.90134Q382.3986 177.72946 382.3986 178.96384Q382.3986 180.65134 381.1642 181.83884Q379.94547 183.01071 378.07047 183.01071Q376.36734 183.01071 375.24234 181.99509Q374.13297 180.97946 373.9611 179.37009ZM389.0236 182.77634L389.0236 179.69821L383.44547 179.69821L383.44547 178.24509L389.32047 169.88571L390.61734 169.88571L390.61734 178.24509L392.3517 178.24509L392.3517 179.69821L390.61734 179.69821L390.61734 182.77634L389.0236 182.77634ZM389.0236 178.24509L389.0236 172.43259L384.99234 178.24509L389.0236 178.24509ZM394.8517 182.77634L394.8517 180.97946L396.6486 180.97946L396.6486 182.77634L394.8517 182.77634ZM398.9611 179.40134L400.61734 179.26071Q400.80484 180.47946 401.4767 181.08884Q402.1486 181.69821 403.1017 181.69821Q404.24234 181.69821 405.0236 180.83884Q405.82047 179.97946 405.82047 178.54196Q405.82047 177.19821 405.05484 176.41696Q404.30484 175.63571 403.07047 175.63571Q402.30484 175.63571 401.67984 175.97946Q401.07047 176.32321 400.7267 176.88571L399.24234 176.68259L400.49234 170.07321L406.8986 170.07321L406.8986 171.57321L401.75797 171.57321L401.05484 175.04196Q402.2267 174.22946 403.49234 174.22946Q405.17984 174.22946 406.3361 175.40134Q407.50797 176.57321 407.50797 178.40134Q407.50797 180.15134 406.4767 181.43259Q405.24234 182.99509 403.1017 182.99509Q401.3361 182.99509 400.2267 182.01071Q399.11734 181.02634 398.9611 179.40134ZM409.25797 172.97946Q409.25797 171.60446 409.94547 170.63571Q410.6486 169.66696 411.9611 169.66696Q413.17984 169.66696 413.9767 170.54196Q414.7736 171.40134 414.7736 173.08884Q414.7736 174.71384 413.9611 175.60446Q413.1642 176.47946 411.9767 176.47946Q410.82047 176.47946 410.0392 175.62009Q409.25797 174.74509 409.25797 172.97946ZM412.00797 170.76071Q411.4142 170.76071 411.0236 171.27634Q410.63297 171.77634 410.63297 173.13571Q410.63297 174.38571 411.0236 174.88571Q411.42984 175.38571 412.00797 175.38571Q412.6017 175.38571 412.99234 174.88571Q413.38297 174.37009 413.38297 173.02634Q413.38297 171.77634 412.99234 171.27634Q412.6017 170.76071 412.00797 170.76071ZM412.0236 183.24509L419.07047 169.66696L420.3517 169.66696L413.32047 183.24509L412.0236 183.24509ZM417.5861 179.74509Q417.5861 178.37009 418.2736 177.40134Q418.9767 176.43259 420.30484 176.43259Q421.5236 176.43259 422.30484 177.30759Q423.1017 178.16696 423.1017 179.85446Q423.1017 181.47946 422.30484 182.37009Q421.50797 183.24509 420.32047 183.24509Q419.1486 183.24509 418.36734 182.37009Q417.5861 181.49509 417.5861 179.74509ZM420.3517 177.52634Q419.75797 177.52634 419.36734 178.04196Q418.9767 178.54196 418.9767 179.91696Q418.9767 181.13571 419.36734 181.65134Q419.75797 182.16696 420.3361 182.16696Q420.94547 182.16696 421.3361 181.65134Q421.7267 181.13571 421.7267 179.79196Q421.7267 178.54196 421.3361 178.04196Q420.94547 177.52634 420.3517 177.52634Z" fill-rule="nonzero"/><path fill="#ffffff" d="M251.30844 315.54468L252.90219 315.34155Q253.16782 316.6853 253.82407 317.27905Q254.48032 317.8728 255.41782 317.8728Q256.54282 317.8728 257.30844 317.10718Q258.07407 316.32593 258.07407 315.1853Q258.07407 314.09155 257.35532 313.38843Q256.6522 312.66968 255.55844 312.66968Q255.10532 312.66968 254.43344 312.85718L254.60532 311.46655Q254.76157 311.48218 254.87094 311.48218Q255.87094 311.48218 256.68344 310.95093Q257.49594 310.41968 257.49594 309.32593Q257.49594 308.45093 256.9022 307.88843Q256.30844 307.3103 255.38657 307.3103Q254.46469 307.3103 253.83969 307.88843Q253.23032 308.46655 253.05844 309.63843L251.48032 309.35718Q251.76157 307.76343 252.79282 306.88843Q253.82407 306.01343 255.35532 306.01343Q256.4022 306.01343 257.29282 306.46655Q258.18344 306.91968 258.6522 307.70093Q259.12094 308.48218 259.12094 309.35718Q259.12094 310.20093 258.66782 310.88843Q258.23032 311.5603 257.3397 311.96655Q258.48032 312.23218 259.10532 313.07593Q259.74594 313.90405 259.74594 315.13843Q259.74594 316.82593 258.51157 318.01343Q257.29282 319.1853 255.41782 319.1853Q253.71469 319.1853 252.58969 318.16968Q251.48032 317.15405 251.30844 315.54468ZM267.26157 318.95093L265.68344 318.95093L265.68344 308.8728Q265.10532 309.41968 264.18344 309.96655Q263.26157 310.4978 262.51157 310.77905L262.51157 309.2478Q263.8397 308.6228 264.8397 307.73218Q265.8397 306.84155 266.24594 306.01343L267.26157 306.01343L267.26157 318.95093ZM272.19907 318.95093L272.19907 317.15405L273.99594 317.15405L273.99594 318.95093L272.19907 318.95093ZM276.30844 312.59155Q276.30844 310.3103 276.7772 308.91968Q277.24594 307.52905 278.16782 306.77905Q279.10532 306.01343 280.51157 306.01343Q281.54282 306.01343 282.32407 306.4353Q283.10532 306.84155 283.60532 307.63843Q284.12094 308.41968 284.41782 309.5603Q284.7147 310.6853 284.7147 312.59155Q284.7147 314.85718 284.24594 316.26343Q283.7772 317.65405 282.8397 318.41968Q281.91782 319.16968 280.51157 319.16968Q278.63657 319.16968 277.57407 317.84155Q276.30844 316.23218 276.30844 312.59155ZM277.93344 312.59155Q277.93344 315.76343 278.66782 316.82593Q279.41782 317.8728 280.51157 317.8728Q281.5897 317.8728 282.3397 316.82593Q283.0897 315.76343 283.0897 312.59155Q283.0897 309.41968 282.3397 308.3728Q281.5897 307.32593 280.49594 307.32593Q279.4022 307.32593 278.74594 308.2478Q277.93344 309.41968 277.93344 312.59155ZM286.60532 309.15405Q286.60532 307.77905 287.29282 306.8103Q287.99594 305.84155 289.30844 305.84155Q290.5272 305.84155 291.32407 306.71655Q292.12094 307.57593 292.12094 309.26343Q292.12094 310.88843 291.30844 311.77905Q290.51157 312.65405 289.32407 312.65405Q288.16782 312.65405 287.38657 311.79468Q286.60532 310.91968 286.60532 309.15405ZM289.35532 306.9353Q288.76157 306.9353 288.37094 307.45093Q287.98032 307.95093 287.98032 309.3103Q287.98032 310.5603 288.37094 311.0603Q288.7772 311.5603 289.35532 311.5603Q289.94907 311.5603 290.3397 311.0603Q290.73032 310.54468 290.73032 309.20093Q290.73032 307.95093 290.3397 307.45093Q289.94907 306.9353 289.35532 306.9353ZM289.37094 319.41968L296.41782 305.84155L297.69907 305.84155L290.66782 319.41968L289.37094 319.41968ZM294.93344 315.91968Q294.93344 314.54468 295.62094 313.57593Q296.32407 312.60718 297.6522 312.60718Q298.87094 312.60718 299.6522 313.48218Q300.44907 314.34155 300.44907 316.02905Q300.44907 317.65405 299.6522 318.54468Q298.85532 319.41968 297.66782 319.41968Q296.49594 319.41968 295.7147 318.54468Q294.93344 317.66968 294.93344 315.91968ZM297.69907 313.70093Q297.10532 313.70093 296.7147 314.21655Q296.32407 314.71655 296.32407 316.09155Q296.32407 317.3103 296.7147 317.82593Q297.10532 318.34155 297.68344 318.34155Q298.29282 318.34155 298.68344 317.82593Q299.07407 317.3103 299.07407 315.96655Q299.07407 314.71655 298.68344 314.21655Q298.29282 313.70093 297.69907 313.70093Z" fill-rule="nonzero"/><path fill="#ffffff" d="M191.57306 150.04271L193.16681 149.83958Q193.43243 151.18333 194.08868 151.77708Q194.74493 152.37083 195.68243 152.37083Q196.80743 152.37083 197.57306 151.60521Q198.33868 150.82396 198.33868 149.68333Q198.33868 148.58958 197.61993 147.88646Q196.91681 147.16771 195.82306 147.16771Q195.36993 147.16771 194.69806 147.35521L194.86993 145.96458Q195.02618 145.98021 195.13556 145.98021Q196.13556 145.98021 196.94806 145.44896Q197.76056 144.91771 197.76056 143.82396Q197.76056 142.94896 197.16681 142.38646Q196.57306 141.80833 195.65118 141.80833Q194.72931 141.80833 194.10431 142.38646Q193.49493 142.96458 193.32306 144.13646L191.74493 143.85521Q192.02618 142.26146 193.05743 141.38646Q194.08868 140.51146 195.61993 140.51146Q196.66681 140.51146 197.55743 140.96458Q198.44806 141.41771 198.91681 142.19896Q199.38556 142.98021 199.38556 143.85521Q199.38556 144.69896 198.93243 145.38646Q198.49493 146.05833 197.60431 146.46458Q198.74493 146.73021 199.36993 147.57396Q200.01056 148.40208 200.01056 149.63646Q200.01056 151.32396 198.77618 152.51146Q197.55743 153.68333 195.68243 153.68333Q193.97931 153.68333 192.85431 152.66771Q191.74493 151.65208 191.57306 150.04271ZM207.52618 153.44896L205.94806 153.44896L205.94806 143.37083Q205.36993 143.91771 204.44806 144.46458Q203.52618 144.99583 202.77618 145.27708L202.77618 143.74583Q204.10431 143.12083 205.10431 142.23021Q206.10431 141.33958 206.51056 140.51146L207.52618 140.51146L207.52618 153.44896ZM212.46368 153.44896L212.46368 151.65208L214.26056 151.65208L214.26056 153.44896L212.46368 153.44896ZM216.57306 147.08958Q216.57306 144.80833 217.04181 143.41771Q217.51056 142.02708 218.43243 141.27708Q219.36993 140.51146 220.77618 140.51146Q221.80743 140.51146 222.58868 140.93333Q223.36993 141.33958 223.86993 142.13646Q224.38556 142.91771 224.68243 144.05833Q224.97931 145.18333 224.97931 147.08958Q224.97931 149.35521 224.51056 150.76146Q224.04181 152.15208 223.10431 152.91771Q222.18243 153.66771 220.77618 153.66771Q218.90118 153.66771 217.83868 152.33958Q216.57306 150.73021 216.57306 147.08958ZM218.19806 147.08958Q218.19806 150.26146 218.93243 151.32396Q219.68243 152.37083 220.77618 152.37083Q221.85431 152.37083 222.60431 151.32396Q223.35431 150.26146 223.35431 147.08958Q223.35431 143.91771 222.60431 142.87083Q221.85431 141.82396 220.76056 141.82396Q219.66681 141.82396 219.01056 142.74583Q218.19806 143.91771 218.19806 147.08958ZM226.86993 143.65208Q226.86993 142.27708 227.55743 141.30833Q228.26056 140.33958 229.57306 140.33958Q230.79181 140.33958 231.58868 141.21458Q232.38556 142.07396 232.38556 143.76146Q232.38556 145.38646 231.57306 146.27708Q230.77618 147.15208 229.58868 147.15208Q228.43243 147.15208 227.65118 146.29271Q226.86993 145.41771 226.86993 143.65208ZM229.61993 141.43333Q229.02618 141.43333 228.63556 141.94896Q228.24493 142.44896 228.24493 143.80833Q228.24493 145.05833 228.63556 145.55833Q229.04181 146.05833 229.61993 146.05833Q230.21368 146.05833 230.60431 145.55833Q230.99493 145.04271 230.99493 143.69896Q230.99493 142.44896 230.60431 141.94896Q230.21368 141.43333 229.61993 141.43333ZM229.63556 153.91771L236.68243 140.33958L237.96368 140.33958L230.93243 153.91771L229.63556 153.91771ZM235.19806 150.41771Q235.19806 149.04271 235.88556 148.07396Q236.58868 147.10521 237.91681 147.10521Q239.13556 147.10521 239.91681 147.98021Q240.71368 148.83958 240.71368 150.52708Q240.71368 152.15208 239.91681 153.04271Q239.11993 153.91771 237.93243 153.91771Q236.76056 153.91771 235.97931 153.04271Q235.19806 152.16771 235.19806 150.41771ZM237.96368 148.19896Q237.36993 148.19896 236.97931 148.71458Q236.58868 149.21458 236.58868 150.58958Q236.58868 151.80833 236.97931 152.32396Q237.36993 152.83958 237.94806 152.83958Q238.55743 152.83958 238.94806 152.32396Q239.33868 151.80833 239.33868 150.46458Q239.33868 149.21458 238.94806 148.71458Q238.55743 148.19896 237.96368 148.19896Z" fill-rule="nonzero"/><path stroke="#ffffff" stroke-width="1.0" stroke-linejoin="round" stroke-linecap="round" d="M307.99512 167.36119C305.36932 166.78322 302.68863 166.49167 300.0 166.49167L300.0 54.916668C310.75452 54.916668 321.47736 56.082844 331.98044 58.39475" fill-rule="nonzero"/><path stroke="#ffffff" stroke-width="1.0" stroke-linejoin="round" stroke-linecap="round" d="M325.5767 230.68431C335.57242 221.21587 339.51944 206.99994 335.83603 193.7335C332.15262 180.46707 321.4415 170.32097 307.99512 167.36119L331.98044 58.39475C385.766 70.23385 428.6105 110.8183 443.34412 163.88403C458.07776 216.94977 442.2896 273.81348 402.30676 311.68726" fill-rule="nonzero"/><path stroke="#ffffff" stroke-width="1.0" stroke-linejoin="round" stroke-linecap="round" d="M265.4498 217.44939C270.01443 228.90572 279.961 237.35442 292.00488 240.00548C304.04877 242.65654 316.62357 239.16516 325.5767 230.68431L402.30676 311.68726C366.49426 345.61066 316.1951 359.57614 268.01956 348.97192C219.84402 338.36768 180.05771 304.57288 161.79922 258.74756" fill-rule="nonzero"/><path stroke="#ffffff" stroke-width="1.0" stroke-linejoin="round" stroke-linecap="round" d="M300.0 166.49167C287.6678 166.49167 276.13754 172.60461 269.21686 182.81184C262.2962 193.01907 260.8852 205.99306 265.4498 217.44939L161.79922 258.74756C143.54076 212.92223 149.18477 161.02632 176.86746 120.1974C204.55016 79.368484 250.67119 54.916668 300.0 54.916668" fill-rule="nonzero"/><path fill="#efefef" d="M27.3 107.41858L28.815624 107.41858L28.815624 114.027954Q28.815624 115.76233 28.425 116.777954Q28.034374 117.79358 27.01875 118.434204Q26.003124 119.07483 24.346874 119.07483Q22.7375 119.07483 21.70625 118.51233Q20.690624 117.94983 20.253124 116.902954Q19.815624 115.85608 19.815624 114.027954L19.815624 107.41858L21.33125 107.41858L21.33125 114.027954Q21.33125 115.51233 21.596874 116.23108Q21.878124 116.934204 22.55 117.32483Q23.2375 117.69983 24.20625 117.69983Q25.878124 117.69983 26.58125 116.94983Q27.3 116.184204 27.3 114.027954L27.3 107.41858ZM31.596874 118.871704L31.596874 110.57483L32.8625 110.57483L32.8625 111.82483Q33.346874 110.94983 33.753124 110.66858Q34.159374 110.38733 34.659374 110.38733Q35.3625 110.38733 36.096874 110.840454L35.6125 112.13733Q35.096874 111.840454 34.58125 111.840454Q34.128124 111.840454 33.753124 112.121704Q33.39375 112.38733 33.2375 112.88733Q33.003124 113.63733 33.003124 114.527954L33.003124 118.871704L31.596874 118.871704ZM37.909374 118.871704L36.596874 118.871704L36.596874 107.41858L38.003124 107.41858L38.003124 111.496704Q38.89375 110.38733 40.284374 110.38733Q41.05 110.38733 41.721874 110.69983Q42.409374 110.996704 42.846874 111.559204Q43.3 112.121704 43.55 112.91858Q43.8 113.69983 43.8 114.590454Q43.8 116.73108 42.7375 117.902954Q41.690624 119.059204 40.20625 119.059204Q38.7375 119.059204 37.909374 117.82483L37.909374 118.871704ZM37.89375 114.652954Q37.89375 116.152954 38.3 116.809204Q38.95625 117.902954 40.096874 117.902954Q41.01875 117.902954 41.690624 117.10608Q42.3625 116.29358 42.3625 114.715454Q42.3625 113.090454 41.70625 112.32483Q41.065624 111.54358 40.159374 111.54358Q39.2375 111.54358 38.565624 112.340454Q37.89375 113.13733 37.89375 114.652954ZM51.01875 117.840454Q50.2375 118.51233 49.51875 118.79358Q48.8 119.059204 47.971874 119.059204Q46.596874 119.059204 45.8625 118.38733Q45.128124 117.715454 45.128124 116.684204Q45.128124 116.07483 45.409374 115.57483Q45.690624 115.059204 46.128124 114.76233Q46.58125 114.44983 47.14375 114.29358Q47.565624 114.184204 48.39375 114.090454Q50.096874 113.88733 50.909374 113.60608Q50.909374 113.309204 50.909374 113.23108Q50.909374 112.371704 50.51875 112.027954Q49.971874 111.54358 48.909374 111.54358Q47.925 111.54358 47.440624 111.902954Q46.971874 112.246704 46.753124 113.121704L45.378124 112.934204Q45.565624 112.059204 45.9875 111.51233Q46.425 110.965454 47.2375 110.684204Q48.05 110.38733 49.1125 110.38733Q50.175 110.38733 50.83125 110.63733Q51.503124 110.88733 51.815624 111.26233Q52.128124 111.63733 52.253124 112.215454Q52.33125 112.57483 52.33125 113.51233L52.33125 115.38733Q52.33125 117.35608 52.409374 117.871704Q52.503124 118.38733 52.76875 118.871704L51.3 118.871704Q51.08125 118.434204 51.01875 117.840454ZM50.909374 114.69983Q50.14375 115.01233 48.6125 115.23108Q47.7375 115.35608 47.378124 115.51233Q47.01875 115.66858 46.815624 115.98108Q46.628124 116.277954 46.628124 116.63733Q46.628124 117.19983 47.05 117.57483Q47.4875 117.94983 48.3 117.94983Q49.1125 117.94983 49.7375 117.60608Q50.378124 117.246704 50.675 116.621704Q50.909374 116.152954 50.909374 115.215454L50.909374 114.69983ZM54.6125 118.871704L54.6125 110.57483L55.878124 110.57483L55.878124 111.746704Q56.784374 110.38733 58.51875 110.38733Q59.26875 110.38733 59.89375 110.652954Q60.51875 110.91858 60.83125 111.35608Q61.14375 111.79358 61.26875 112.402954Q61.346874 112.79358 61.346874 113.76233L61.346874 118.871704L59.940624 118.871704L59.940624 113.82483Q59.940624 112.965454 59.76875 112.54358Q59.6125 112.10608 59.190624 111.85608Q58.784374 111.60608 58.221874 111.60608Q57.315624 111.60608 56.659374 112.184204Q56.01875 112.746704 56.01875 114.340454L56.01875 118.871704L54.6125 118.871704ZM63.05 116.38733L64.44063 116.16858Q64.55 117.01233 65.08125 117.465454Q65.62813 117.902954 66.58125 117.902954Q67.55 117.902954 68.01875 117.51233Q68.4875 117.10608 68.4875 116.57483Q68.4875 116.10608 68.08125 115.82483Q67.78438 115.63733 66.64375 115.35608Q65.09688 114.965454 64.4875 114.684204Q63.89375 114.38733 63.58125 113.88733Q63.284374 113.38733 63.284374 112.777954Q63.284374 112.215454 63.534374 111.746704Q63.784374 111.277954 64.22188 110.965454Q64.55 110.715454 65.1125 110.559204Q65.69063 110.38733 66.33125 110.38733Q67.31563 110.38733 68.05 110.66858Q68.78438 110.94983 69.12813 111.434204Q69.4875 111.902954 69.62813 112.715454L68.25313 112.902954Q68.15938 112.26233 67.70625 111.902954Q67.25313 111.54358 66.44063 111.54358Q65.47188 111.54358 65.05 111.871704Q64.64375 112.184204 64.64375 112.60608Q64.64375 112.88733 64.81563 113.10608Q64.9875 113.32483 65.34688 113.48108Q65.56563 113.559204 66.59688 113.840454Q68.08125 114.23108 68.675 114.496704Q69.26875 114.746704 69.59688 115.23108Q69.94063 115.715454 69.94063 116.434204Q69.94063 117.13733 69.51875 117.76233Q69.1125 118.371704 68.33125 118.715454Q67.56563 119.059204 66.59688 119.059204Q64.97188 119.059204 64.12813 118.38733Q63.284374 117.715454 63.05 116.38733ZM77.01875 115.82483L78.40938 116.01233Q78.175 117.434204 77.2375 118.246704Q76.31563 119.059204 74.95625 119.059204Q73.25313 119.059204 72.20625 117.94983Q71.175 116.82483 71.175 114.746704Q71.175 113.402954 71.6125 112.402954Q72.06563 111.38733 72.97188 110.88733Q73.89375 110.38733 74.95625 110.38733Q76.31563 110.38733 77.175 111.07483Q78.03438 111.746704 78.26875 113.01233L76.90938 113.215454Q76.70625 112.38733 76.20625 111.965454Q75.72188 111.54358 75.01875 111.54358Q73.95625 111.54358 73.28438 112.309204Q72.62813 113.059204 72.62813 114.715454Q72.62813 116.38733 73.26875 117.152954Q73.90938 117.902954 74.94063 117.902954Q75.76875 117.902954 76.31563 117.402954Q76.87813 116.88733 77.01875 115.82483ZM85.01875 117.840454Q84.2375 118.51233 83.51875 118.79358Q82.8 119.059204 81.97188 119.059204Q80.59688 119.059204 79.8625 118.38733Q79.12813 117.715454 79.12813 116.684204Q79.12813 116.07483 79.40938 115.57483Q79.69063 115.059204 80.12813 114.76233Q80.58125 114.44983 81.14375 114.29358Q81.56563 114.184204 82.39375 114.090454Q84.09688 113.88733 84.90938 113.60608Q84.90938 113.309204 84.90938 113.23108Q84.90938 112.371704 84.51875 112.027954Q83.97188 111.54358 82.90938 111.54358Q81.925 111.54358 81.44063 111.902954Q80.97188 112.246704 80.75313 113.121704L79.37813 112.934204Q79.56563 112.059204 79.9875 111.51233Q80.425 110.965454 81.2375 110.684204Q82.05 110.38733 83.1125 110.38733Q84.175 110.38733 84.83125 110.63733Q85.50313 110.88733 85.81563 111.26233Q86.12813 111.63733 86.25313 112.215454Q86.33125 112.57483 86.33125 113.51233L86.33125 115.38733Q86.33125 117.35608 86.40938 117.871704Q86.50313 118.38733 86.76875 118.871704L85.3 118.871704Q85.08125 118.434204 85.01875 117.840454ZM84.90938 114.69983Q84.14375 115.01233 82.6125 115.23108Q81.7375 115.35608 81.37813 115.51233Q81.01875 115.66858 80.81563 115.98108Q80.62813 116.277954 80.62813 116.63733Q80.62813 117.19983 81.05 117.57483Q81.4875 117.94983 82.3 117.94983Q83.1125 117.94983 83.7375 117.60608Q84.37813 117.246704 84.675 116.621704Q84.90938 116.152954 84.90938 115.215454L84.90938 114.69983ZM88.6125 122.059204L88.6125 110.57483L89.89375 110.57483L89.89375 111.652954Q90.34688 111.01233 90.90938 110.69983Q91.4875 110.38733 92.3 110.38733Q93.3625 110.38733 94.175 110.934204Q94.9875 111.48108 95.39375 112.48108Q95.81563 113.465454 95.81563 114.652954Q95.81563 115.934204 95.34688 116.94983Q94.89375 117.965454 94.01875 118.51233Q93.15938 119.059204 92.19063 119.059204Q91.4875 119.059204 90.925 118.76233Q90.37813 118.465454 90.01875 118.01233L90.01875 122.059204L88.6125 122.059204ZM89.87813 114.76233Q89.87813 116.371704 90.51875 117.13733Q91.175 117.902954 92.09688 117.902954Q93.03438 117.902954 93.70625 117.10608Q94.37813 116.309204 94.37813 114.652954Q94.37813 113.059204 93.72188 112.277954Q93.06563 111.48108 92.15938 111.48108Q91.26875 111.48108 90.56563 112.32483Q89.87813 113.16858 89.87813 114.76233ZM103.28438 116.19983L104.7375 116.371704Q104.39375 117.652954 103.45625 118.35608Q102.53438 119.059204 101.09688 119.059204Q99.26875 119.059204 98.20625 117.934204Q97.14375 116.809204 97.14375 114.79358Q97.14375 112.69983 98.22188 111.54358Q99.3 110.38733 101.01875 110.38733Q102.675 110.38733 103.72188 111.527954Q104.78438 112.652954 104.78438 114.69983Q104.78438 114.82483 104.78438 115.07483L98.59688 115.07483Q98.675 116.44983 99.3625 117.184204Q100.06563 117.902954 101.09688 117.902954Q101.87813 117.902954 102.425 117.496704Q102.97188 117.090454 103.28438 116.19983ZM98.675 113.91858L103.3 113.91858Q103.20625 112.871704 102.76875 112.35608Q102.09688 111.54358 101.03438 111.54358Q100.06563 111.54358 99.39375 112.19983Q98.7375 112.840454 98.675 113.91858Z" fill-rule="nonzero"/><path fill="#9e9e9e" d="M19.221874 137.84045L20.628124 137.65295Q20.878124 138.85608 21.45625 139.38733Q22.034374 139.90295 22.878124 139.90295Q23.8625 139.90295 24.55 139.21545Q25.2375 138.52795 25.2375 137.51233Q25.2375 136.54358 24.596874 135.91858Q23.971874 135.29358 22.9875 135.29358Q22.596874 135.29358 22.003124 135.44983L22.159374 134.21545Q22.3 134.23108 22.378124 134.23108Q23.284374 134.23108 24.003124 133.76233Q24.721874 133.29358 24.721874 132.3092Q24.721874 131.54358 24.190624 131.04358Q23.675 130.52795 22.846874 130.52795Q22.01875 130.52795 21.471874 131.04358Q20.925 131.5592 20.76875 132.59045L19.3625 132.34045Q19.628124 130.91858 20.534374 130.15295Q21.45625 129.3717 22.815624 129.3717Q23.753124 129.3717 24.534374 129.77795Q25.33125 130.16858 25.7375 130.8717Q26.159374 131.5592 26.159374 132.34045Q26.159374 133.09045 25.753124 133.69983Q25.3625 134.3092 24.58125 134.66858Q25.596874 134.90295 26.159374 135.63733Q26.721874 136.3717 26.721874 137.48108Q26.721874 138.98108 25.628124 140.02795Q24.534374 141.07483 22.8625 141.07483Q21.3625 141.07483 20.3625 140.1842Q19.3625 139.27795 19.221874 137.84045ZM33.51875 140.8717L32.1125 140.8717L32.1125 131.90295Q31.596874 132.38733 30.76875 132.8717Q29.95625 133.35608 29.3 133.60608L29.3 132.2467Q30.471874 131.6842 31.346874 130.90295Q32.2375 130.10608 32.6125 129.3717L33.51875 129.3717L33.51875 140.8717ZM38.003124 140.8717L38.003124 139.26233L39.6125 139.26233L39.6125 140.8717L38.003124 140.8717ZM41.221874 135.21545Q41.221874 133.1842 41.628124 131.94983Q42.05 130.71545 42.878124 130.04358Q43.70625 129.3717 44.95625 129.3717Q45.878124 129.3717 46.565624 129.7467Q47.26875 130.10608 47.721874 130.8092Q48.175 131.51233 48.425 132.51233Q48.690624 133.51233 48.690624 135.21545Q48.690624 137.23108 48.26875 138.48108Q47.8625 139.71545 47.034374 140.40295Q46.20625 141.07483 44.95625 141.07483Q43.3 141.07483 42.346874 139.8717Q41.221874 138.44983 41.221874 135.21545ZM42.659374 135.21545Q42.659374 138.04358 43.315624 138.98108Q43.9875 139.90295 44.95625 139.90295Q45.925 139.90295 46.58125 138.96545Q47.2375 138.02795 47.2375 135.21545Q47.2375 132.38733 46.58125 131.46545Q45.925 130.52795 44.940624 130.52795Q43.971874 130.52795 43.39375 131.35608Q42.659374 132.40295 42.659374 135.21545ZM50.4875 132.16858Q50.4875 130.9342 51.096874 130.07483Q51.721874 129.21545 52.89375 129.21545Q53.971874 129.21545 54.675 129.9967Q55.378124 130.76233 55.378124 132.2467Q55.378124 133.69983 54.659374 134.4967Q53.95625 135.27795 52.909374 135.27795Q51.8625 135.27795 51.175 134.51233Q50.4875 133.73108 50.4875 132.16858ZM52.925 130.1842Q52.409374 130.1842 52.05 130.63733Q51.70625 131.09045 51.70625 132.3092Q51.70625 133.40295 52.05 133.85608Q52.409374 134.3092 52.925 134.3092Q53.45625 134.3092 53.8 133.85608Q54.159374 133.40295 54.159374 132.19983Q54.159374 131.09045 53.8 130.63733Q53.45625 130.1842 52.925 130.1842ZM52.940624 141.29358L59.20625 129.21545L60.346874 129.21545L54.096874 141.29358L52.940624 141.29358ZM57.89375 138.1842Q57.89375 136.94983 58.503124 136.09045Q59.128124 135.23108 60.3 135.23108Q61.378124 135.23108 62.08125 136.01233Q62.8 136.77795 62.8 138.26233Q62.8 139.71545 62.08125 140.51233Q61.3625 141.29358 60.315624 141.29358Q59.26875 141.29358 58.58125 140.51233Q57.89375 139.73108 57.89375 138.1842ZM60.346874 136.19983Q59.815624 136.19983 59.45625 136.65295Q59.1125 137.10608 59.1125 138.32483Q59.1125 139.41858 59.45625 139.8717Q59.815624 140.32483 60.33125 140.32483Q60.878124 140.32483 61.221874 139.8717Q61.565624 139.41858 61.565624 138.21545Q61.565624 137.10608 61.20625 136.65295Q60.8625 136.19983 60.346874 136.19983Z" fill-rule="nonzero"/><path stroke="#757575" stroke-width="1.0" stroke-linecap="butt" d="M18.55 124.371704L145.23334 124.371704L183.0241 124.371704" fill-rule="nonzero"/><path fill="#9e9e9e" d="M185.0241 124.371704C185.0241 123.26713 184.12866 122.371704 183.0241 122.371704C181.91953 122.371704 181.0241 123.26713 181.0241 124.371704C181.0241 125.47627 181.91953 126.371704 183.0241 126.371704C184.12866 126.371704 185.0241 125.47627 185.0241 124.371704" fill-rule="nonzero"/><path fill="#efefef" d="M19.76875 326.45L19.76875 314.9969L21.33125 314.9969L27.346874 323.98126L27.346874 314.9969L28.8 314.9969L28.8 326.45L27.2375 326.45L21.221874 317.45L21.221874 326.45L19.76875 326.45ZM37.01875 325.41876Q36.2375 326.09064 35.51875 326.3719Q34.8 326.6375 33.971874 326.6375Q32.596874 326.6375 31.8625 325.96564Q31.128124 325.29376 31.128124 324.2625Q31.128124 323.65314 31.409374 323.15314Q31.690624 322.6375 32.128124 322.34064Q32.58125 322.02814 33.14375 321.8719Q33.565624 321.7625 34.39375 321.66876Q36.096874 321.46564 36.909374 321.1844Q36.909374 320.8875 36.909374 320.8094Q36.909374 319.95 36.51875 319.60626Q35.971874 319.1219 34.909374 319.1219Q33.925 319.1219 33.440624 319.48126Q32.971874 319.825 32.753124 320.7L31.378124 320.5125Q31.565624 319.6375 31.9875 319.09064Q32.425 318.54376 33.2375 318.2625Q34.05 317.96564 35.1125 317.96564Q36.175 317.96564 36.83125 318.21564Q37.503124 318.46564 37.815624 318.84064Q38.128124 319.21564 38.253124 319.79376Q38.33125 320.15314 38.33125 321.09064L38.33125 322.96564Q38.33125 324.9344 38.409374 325.45Q38.503124 325.96564 38.76875 326.45L37.3 326.45Q37.08125 326.0125 37.01875 325.41876ZM36.909374 322.27814Q36.14375 322.59064 34.6125 322.8094Q33.7375 322.9344 33.378124 323.09064Q33.01875 323.2469 32.815624 323.5594Q32.628124 323.85626 32.628124 324.21564Q32.628124 324.77814 33.05 325.15314Q33.4875 325.52814 34.3 325.52814Q35.1125 325.52814 35.7375 325.1844Q36.378124 324.825 36.675 324.2Q36.909374 323.73126 36.909374 322.79376L36.909374 322.27814ZM43.675 325.1844L43.878124 326.4344Q43.284374 326.5594 42.815624 326.5594Q42.05 326.5594 41.628124 326.325Q41.20625 326.075 41.034374 325.6844Q40.8625 325.27814 40.8625 324.0125L40.8625 319.2469L39.83125 319.2469L39.83125 318.15314L40.8625 318.15314L40.8625 316.09064L42.26875 315.2469L42.26875 318.15314L43.675 318.15314L43.675 319.2469L42.26875 319.2469L42.26875 324.09064Q42.26875 324.7 42.33125 324.8719Q42.409374 325.04376 42.58125 325.15314Q42.753124 325.2469 43.065624 325.2469Q43.3 325.2469 43.675 325.1844ZM50.05 326.45L50.05 325.23126Q49.08125 326.6375 47.409374 326.6375Q46.675 326.6375 46.034374 326.35626Q45.409374 326.075 45.096874 325.65314Q44.784374 325.21564 44.659374 324.60626Q44.58125 324.1844 44.58125 323.29376L44.58125 318.15314L45.9875 318.15314L45.9875 322.7469Q45.9875 323.85626 46.065624 324.23126Q46.20625 324.79376 46.628124 325.10626Q47.065624 325.41876 47.690624 325.41876Q48.33125 325.41876 48.878124 325.10626Q49.440624 324.77814 49.659374 324.21564Q49.89375 323.65314 49.89375 322.59064L49.89375 318.15314L51.3 318.15314L51.3 326.45L50.05 326.45ZM53.596874 326.45L53.596874 318.15314L54.8625 318.15314L54.8625 319.40314Q55.346874 318.52814 55.753124 318.2469Q56.159374 317.96564 56.659374 317.96564Q57.3625 317.96564 58.096874 318.41876L57.6125 319.71564Q57.096874 319.41876 56.58125 319.41876Q56.128124 319.41876 55.753124 319.7Q55.39375 319.96564 55.2375 320.46564Q55.003124 321.21564 55.003124 322.10626L55.003124 326.45L53.596874 326.45ZM64.28438 323.77814L65.7375 323.95Q65.39375 325.23126 64.45625 325.9344Q63.534374 326.6375 62.096874 326.6375Q60.26875 326.6375 59.20625 325.5125Q58.14375 324.3875 58.14375 322.3719Q58.14375 320.27814 59.221874 319.1219Q60.3 317.96564 62.01875 317.96564Q63.675 317.96564 64.72188 319.10626Q65.78438 320.23126 65.78438 322.27814Q65.78438 322.40314 65.78438 322.65314L59.596874 322.65314Q59.675 324.02814 60.3625 324.7625Q61.065624 325.48126 62.096874 325.48126Q62.878124 325.48126 63.425 325.075Q63.971874 324.66876 64.28438 323.77814ZM59.675 321.4969L64.3 321.4969Q64.20625 320.45 63.76875 319.9344Q63.096874 319.1219 62.034374 319.1219Q61.065624 319.1219 60.39375 319.77814Q59.7375 320.41876 59.675 321.4969ZM67.05 323.96564L68.44063 323.7469Q68.55 324.59064 69.08125 325.04376Q69.62813 325.48126 70.58125 325.48126Q71.55 325.48126 72.01875 325.09064Q72.4875 324.6844 72.4875 324.15314Q72.4875 323.6844 72.08125 323.40314Q71.78438 323.21564 70.64375 322.9344Q69.09688 322.54376 68.4875 322.2625Q67.89375 321.96564 67.58125 321.46564Q67.28438 320.96564 67.28438 320.35626Q67.28438 319.79376 67.53438 319.325Q67.78438 318.85626 68.22188 318.54376Q68.55 318.29376 69.1125 318.1375Q69.69063 317.96564 70.33125 317.96564Q71.31563 317.96564 72.05 318.2469Q72.78438 318.52814 73.12813 319.0125Q73.4875 319.48126 73.62813 320.29376L72.25313 320.48126Q72.15938 319.84064 71.70625 319.48126Q71.25313 319.1219 70.44063 319.1219Q69.47188 319.1219 69.05 319.45Q68.64375 319.7625 68.64375 320.1844Q68.64375 320.46564 68.81563 320.6844Q68.9875 320.90314 69.34688 321.0594Q69.56563 321.1375 70.59688 321.41876Q72.08125 321.8094 72.675 322.075Q73.26875 322.325 73.59688 322.8094Q73.94063 323.29376 73.94063 324.0125Q73.94063 324.71564 73.51875 325.34064Q73.1125 325.95 72.33125 326.29376Q71.56563 326.6375 70.59688 326.6375Q68.97188 326.6375 68.12813 325.96564Q67.28438 325.29376 67.05 323.96564ZM81.01875 323.40314L82.40938 323.59064Q82.175 325.0125 81.2375 325.825Q80.31563 326.6375 78.95625 326.6375Q77.25313 326.6375 76.20625 325.52814Q75.175 324.40314 75.175 322.325Q75.175 320.98126 75.6125 319.98126Q76.06563 318.96564 76.97188 318.46564Q77.89375 317.96564 78.95625 317.96564Q80.31563 317.96564 81.175 318.65314Q82.03438 319.325 82.26875 320.59064L80.90938 320.79376Q80.70625 319.96564 80.20625 319.54376Q79.72188 319.1219 79.01875 319.1219Q77.95625 319.1219 77.28438 319.8875Q76.62813 320.6375 76.62813 322.29376Q76.62813 323.96564 77.26875 324.73126Q77.90938 325.48126 78.94063 325.48126Q79.76875 325.48126 80.31563 324.98126Q80.87813 324.46564 81.01875 323.40314ZM89.01875 325.41876Q88.2375 326.09064 87.51875 326.3719Q86.8 326.6375 85.97188 326.6375Q84.59688 326.6375 83.8625 325.96564Q83.12813 325.29376 83.12813 324.2625Q83.12813 323.65314 83.40938 323.15314Q83.69063 322.6375 84.12813 322.34064Q84.58125 322.02814 85.14375 321.8719Q85.56563 321.7625 86.39375 321.66876Q88.09688 321.46564 88.90938 321.1844Q88.90938 320.8875 88.90938 320.8094Q88.90938 319.95 88.51875 319.60626Q87.97188 319.1219 86.90938 319.1219Q85.925 319.1219 85.44063 319.48126Q84.97188 319.825 84.75313 320.7L83.37813 320.5125Q83.56563 319.6375 83.9875 319.09064Q84.425 318.54376 85.2375 318.2625Q86.05 317.96564 87.1125 317.96564Q88.175 317.96564 88.83125 318.21564Q89.50313 318.46564 89.81563 318.84064Q90.12813 319.21564 90.25313 319.79376Q90.33125 320.15314 90.33125 321.09064L90.33125 322.96564Q90.33125 324.9344 90.40938 325.45Q90.50313 325.96564 90.76875 326.45L89.3 326.45Q89.08125 326.0125 89.01875 325.41876ZM88.90938 322.27814Q88.14375 322.59064 86.6125 322.8094Q85.7375 322.9344 85.37813 323.09064Q85.01875 323.2469 84.81563 323.5594Q84.62813 323.85626 84.62813 324.21564Q84.62813 324.77814 85.05 325.15314Q85.4875 325.52814 86.3 325.52814Q87.1125 325.52814 87.7375 325.1844Q88.37813 324.825 88.675 324.2Q88.90938 323.73126 88.90938 322.79376L88.90938 322.27814ZM92.6125 329.6375L92.6125 318.15314L93.89375 318.15314L93.89375 319.23126Q94.34688 318.59064 94.90938 318.27814Q95.4875 317.96564 96.3 317.96564Q97.3625 317.96564 98.175 318.5125Q98.9875 319.0594 99.39375 320.0594Q99.81563 321.04376 99.81563 322.23126Q99.81563 323.5125 99.34688 324.52814Q98.89375 325.54376 98.01875 326.09064Q97.15938 326.6375 96.19063 326.6375Q95.4875 326.6375 94.925 326.34064Q94.37813 326.04376 94.01875 325.59064L94.01875 329.6375L92.6125 329.6375ZM93.87813 322.34064Q93.87813 323.95 94.51875 324.71564Q95.175 325.48126 96.09688 325.48126Q97.03438 325.48126 97.70625 324.6844Q98.37813 323.8875 98.37813 322.23126Q98.37813 320.6375 97.72188 319.85626Q97.06563 319.0594 96.15938 319.0594Q95.26875 319.0594 94.56563 319.90314Q93.87813 320.7469 93.87813 322.34064ZM107.28438 323.77814L108.7375 323.95Q108.39375 325.23126 107.45625 325.9344Q106.53438 326.6375 105.09688 326.6375Q103.26875 326.6375 102.20625 325.5125Q101.14375 324.3875 101.14375 322.3719Q101.14375 320.27814 102.22188 319.1219Q103.3 317.96564 105.01875 317.96564Q106.675 317.96564 107.72188 319.10626Q108.78438 320.23126 108.78438 322.27814Q108.78438 322.40314 108.78438 322.65314L102.59688 322.65314Q102.675 324.02814 103.3625 324.7625Q104.06563 325.48126 105.09688 325.48126Q105.87813 325.48126 106.425 325.075Q106.97188 324.66876 107.28438 323.77814ZM102.675 321.4969L107.3 321.4969Q107.20625 320.45 106.76875 319.9344Q106.09688 319.1219 105.03438 319.1219Q104.06563 319.1219 103.39375 319.77814Q102.7375 320.41876 102.675 321.4969Z" fill-rule="nonzero"/><path fill="#9e9e9e" d="M19.221874 345.41876L20.628124 345.23126Q20.878124 346.4344 21.45625 346.96564Q22.034374 347.48126 22.878124 347.48126Q23.8625 347.48126 24.55 346.79376Q25.2375 346.10626 25.2375 345.09064Q25.2375 344.1219 24.596874 343.4969Q23.971874 342.8719 22.9875 342.8719Q22.596874 342.8719 22.003124 343.02814L22.159374 341.79376Q22.3 341.8094 22.378124 341.8094Q23.284374 341.8094 24.003124 341.34064Q24.721874 340.8719 24.721874 339.8875Q24.721874 339.1219 24.190624 338.6219Q23.675 338.10626 22.846874 338.10626Q22.01875 338.10626 21.471874 338.6219Q20.925 339.1375 20.76875 340.16876L19.3625 339.91876Q19.628124 338.4969 20.534374 337.73126Q21.45625 336.95 22.815624 336.95Q23.753124 336.95 24.534374 337.35626Q25.33125 337.7469 25.7375 338.45Q26.159374 339.1375 26.159374 339.91876Q26.159374 340.66876 25.753124 341.27814Q25.3625 341.8875 24.58125 342.2469Q25.596874 342.48126 26.159374 343.21564Q26.721874 343.95 26.721874 345.0594Q26.721874 346.5594 25.628124 347.60626Q24.534374 348.65314 22.8625 348.65314Q21.3625 348.65314 20.3625 347.7625Q19.3625 346.85626 19.221874 345.41876ZM33.51875 348.45L32.1125 348.45L32.1125 339.48126Q31.596874 339.96564 30.76875 340.45Q29.95625 340.9344 29.3 341.1844L29.3 339.825Q30.471874 339.2625 31.346874 338.48126Q32.2375 337.6844 32.6125 336.95L33.51875 336.95L33.51875 348.45ZM38.003124 348.45L38.003124 346.84064L39.6125 346.84064L39.6125 348.45L38.003124 348.45ZM41.221874 342.79376Q41.221874 340.7625 41.628124 339.52814Q42.05 338.29376 42.878124 337.6219Q43.70625 336.95 44.95625 336.95Q45.878124 336.95 46.565624 337.325Q47.26875 337.6844 47.721874 338.3875Q48.175 339.09064 48.425 340.09064Q48.690624 341.09064 48.690624 342.79376Q48.690624 344.8094 48.26875 346.0594Q47.8625 347.29376 47.034374 347.98126Q46.20625 348.65314 44.95625 348.65314Q43.3 348.65314 42.346874 347.45Q41.221874 346.02814 41.221874 342.79376ZM42.659374 342.79376Q42.659374 345.6219 43.315624 346.5594Q43.9875 347.48126 44.95625 347.48126Q45.925 347.48126 46.58125 346.54376Q47.2375 345.60626 47.2375 342.79376Q47.2375 339.96564 46.58125 339.04376Q45.925 338.10626 44.940624 338.10626Q43.971874 338.10626 43.39375 338.9344Q42.659374 339.98126 42.659374 342.79376ZM50.4875 339.7469Q50.4875 338.5125 51.096874 337.65314Q51.721874 336.79376 52.89375 336.79376Q53.971874 336.79376 54.675 337.575Q55.378124 338.34064 55.378124 339.825Q55.378124 341.27814 54.659374 342.075Q53.95625 342.85626 52.909374 342.85626Q51.8625 342.85626 51.175 342.09064Q50.4875 341.3094 50.4875 339.7469ZM52.925 337.7625Q52.409374 337.7625 52.05 338.21564Q51.70625 338.66876 51.70625 339.8875Q51.70625 340.98126 52.05 341.4344Q52.409374 341.8875 52.925 341.8875Q53.45625 341.8875 53.8 341.4344Q54.159374 340.98126 54.159374 339.77814Q54.159374 338.66876 53.8 338.21564Q53.45625 337.7625 52.925 337.7625ZM52.940624 348.8719L59.20625 336.79376L60.346874 336.79376L54.096874 348.8719L52.940624 348.8719ZM57.89375 345.7625Q57.89375 344.52814 58.503124 343.66876Q59.128124 342.8094 60.3 342.8094Q61.378124 342.8094 62.08125 343.59064Q62.8 344.35626 62.8 345.84064Q62.8 347.29376 62.08125 348.09064Q61.3625 348.8719 60.315624 348.8719Q59.26875 348.8719 58.58125 348.09064Q57.89375 347.3094 57.89375 345.7625ZM60.346874 343.77814Q59.815624 343.77814 59.45625 344.23126Q59.1125 344.6844 59.1125 345.90314Q59.1125 346.9969 59.45625 347.45Q59.815624 347.90314 60.33125 347.90314Q60.878124 347.90314 61.221874 347.45Q61.565624 346.9969 61.565624 345.79376Q61.565624 344.6844 61.20625 344.23126Q60.8625 343.77814 60.346874 343.77814Z" fill-rule="nonzero"/><path stroke="#757575" stroke-width="1.0" stroke-linecap="butt" d="M18.55 331.95L145.23334 331.95L269.6186 341.7075" fill-rule="nonzero"/><path fill="#9e9e9e" d="M271.6186 341.7075C271.6186 340.6029 270.72314 339.7075 269.6186 339.7075C268.514 339.7075 267.6186 340.6029 267.6186 341.7075C267.6186 342.81207 268.514 343.7075 269.6186 343.7075C270.72314 343.7075 271.6186 342.81207 271.6186 341.7075" fill-rule="nonzero"/><path fill="#efefef" d="M551.6375 69.916664L551.6375 58.46354L553.91876 58.46354L556.6375 66.572914Q557.0125 67.697914 557.1844 68.260414Q557.3719 67.635414 557.79376 66.43229L560.52814 58.46354L562.575 58.46354L562.575 69.916664L561.10626 69.916664L561.10626 60.322914L557.77814 69.916664L556.41876 69.916664L553.10626 60.166664L553.10626 69.916664L551.6375 69.916664ZM569.91876 68.885414Q569.1375 69.55729 568.41876 69.83854Q567.7 70.104164 566.8719 70.104164Q565.4969 70.104164 564.7625 69.43229Q564.02814 68.760414 564.02814 67.729164Q564.02814 67.11979 564.3094 66.61979Q564.59064 66.104164 565.02814 65.80729Q565.48126 65.49479 566.04376 65.33854Q566.46564 65.229164 567.29376 65.135414Q568.9969 64.93229 569.8094 64.65104Q569.8094 64.354164 569.8094 64.27604Q569.8094 63.416664 569.41876 63.072914Q568.8719 62.58854 567.8094 62.58854Q566.825 62.58854 566.34064 62.947914Q565.8719 63.291664 565.65314 64.166664L564.27814 63.979164Q564.46564 63.104164 564.8875 62.55729Q565.325 62.010414 566.1375 61.729164Q566.95 61.43229 568.0125 61.43229Q569.075 61.43229 569.73126 61.68229Q570.40314 61.93229 570.71564 62.30729Q571.02814 62.68229 571.15314 63.260414Q571.23126 63.61979 571.23126 64.55729L571.23126 66.43229Q571.23126 68.40104 571.3094 68.916664Q571.40314 69.43229 571.66876 69.916664L570.2 69.916664Q569.98126 69.479164 569.91876 68.885414ZM569.8094 65.74479Q569.04376 66.05729 567.5125 66.27604Q566.6375 66.40104 566.27814 66.55729Q565.91876 66.71354 565.71564 67.02604Q565.52814 67.322914 565.52814 67.68229Q565.52814 68.24479 565.95 68.61979Q566.3875 68.99479 567.2 68.99479Q568.0125 68.99479 568.6375 68.65104Q569.27814 68.291664 569.575 67.666664Q569.8094 67.197914 569.8094 66.260414L569.8094 65.74479ZM573.5125 73.104164L573.5125 61.61979L574.79376 61.61979L574.79376 62.697914Q575.2469 62.05729 575.8094 61.74479Q576.3875 61.43229 577.2 61.43229Q578.2625 61.43229 579.075 61.979164Q579.8875 62.52604 580.29376 63.52604Q580.71564 64.510414 580.71564 65.697914Q580.71564 66.979164 580.2469 67.99479Q579.79376 69.010414 578.91876 69.55729Q578.0594 70.104164 577.09064 70.104164Q576.3875 70.104164 575.825 69.80729Q575.27814 69.510414 574.91876 69.05729L574.91876 73.104164L573.5125 73.104164ZM574.77814 65.80729Q574.77814 67.416664 575.41876 68.18229Q576.075 68.947914 576.9969 68.947914Q577.9344 68.947914 578.60626 68.15104Q579.27814 67.354164 579.27814 65.697914Q579.27814 64.104164 578.6219 63.322914Q577.96564 62.52604 577.0594 62.52604Q576.16876 62.52604 575.46564 63.36979Q574.77814 64.21354 574.77814 65.80729Z" fill-rule="nonzero"/><path fill="#9e9e9e" d="M546.1219 88.885414L547.52814 88.697914Q547.77814 89.90104 548.35626 90.43229Q548.9344 90.947914 549.77814 90.947914Q550.7625 90.947914 551.45 90.260414Q552.1375 89.572914 552.1375 88.55729Q552.1375 87.58854 551.4969 86.96354Q550.8719 86.33854 549.8875 86.33854Q549.4969 86.33854 548.90314 86.49479L549.0594 85.260414Q549.2 85.27604 549.27814 85.27604Q550.1844 85.27604 550.90314 84.80729Q551.6219 84.33854 551.6219 83.354164Q551.6219 82.58854 551.09064 82.08854Q550.575 81.572914 549.7469 81.572914Q548.91876 81.572914 548.3719 82.08854Q547.825 82.604164 547.66876 83.635414L546.2625 83.385414Q546.52814 81.96354 547.4344 81.197914Q548.35626 80.416664 549.71564 80.416664Q550.65314 80.416664 551.4344 80.822914Q552.23126 81.21354 552.6375 81.916664Q553.0594 82.604164 553.0594 83.385414Q553.0594 84.135414 552.65314 84.74479Q552.2625 85.354164 551.48126 85.71354Q552.4969 85.947914 553.0594 86.68229Q553.6219 87.416664 553.6219 88.52604Q553.6219 90.02604 552.52814 91.072914Q551.4344 92.11979 549.7625 92.11979Q548.2625 92.11979 547.2625 91.229164Q546.2625 90.322914 546.1219 88.885414ZM555.90314 91.916664L555.90314 90.30729L557.5125 90.30729L557.5125 91.916664L555.90314 91.916664ZM563.6219 91.916664L563.6219 89.166664L558.65314 89.166664L558.65314 87.885414L563.8875 80.46354L565.02814 80.46354L565.02814 87.885414L566.575 87.885414L566.575 89.166664L565.02814 89.166664L565.02814 91.916664L563.6219 91.916664ZM563.6219 87.885414L563.6219 82.71354L560.04376 87.885414L563.6219 87.885414ZM568.3875 83.21354Q568.3875 81.979164 568.9969 81.11979Q569.6219 80.260414 570.79376 80.260414Q571.8719 80.260414 572.575 81.041664Q573.27814 81.80729 573.27814 83.291664Q573.27814 84.74479 572.5594 85.541664Q571.85626 86.322914 570.8094 86.322914Q569.7625 86.322914 569.075 85.55729Q568.3875 84.77604 568.3875 83.21354ZM570.825 81.229164Q570.3094 81.229164 569.95 81.68229Q569.60626 82.135414 569.60626 83.354164Q569.60626 84.447914 569.95 84.90104Q570.3094 85.354164 570.825 85.354164Q571.35626 85.354164 571.7 84.90104Q572.0594 84.447914 572.0594 83.24479Q572.0594 82.135414 571.7 81.68229Q571.35626 81.229164 570.825 81.229164ZM570.84064 92.33854L577.10626 80.260414L578.2469 80.260414L571.9969 92.33854L570.84064 92.33854ZM575.79376 89.229164Q575.79376 87.99479 576.40314 87.135414Q577.02814 86.27604 578.2 86.27604Q579.27814 86.27604 579.98126 87.05729Q580.7 87.822914 580.7 89.30729Q580.7 90.760414 579.98126 91.55729Q579.2625 92.33854 578.21564 92.33854Q577.16876 92.33854 576.48126 91.55729Q575.79376 90.77604 575.79376 89.229164ZM578.2469 87.24479Q577.71564 87.24479 577.35626 87.697914Q577.0125 88.15104 577.0125 89.36979Q577.0125 90.46354 577.35626 90.916664Q577.71564 91.36979 578.23126 91.36979Q578.77814 91.36979 579.1219 90.916664Q579.46564 90.46354 579.46564 89.260414Q579.46564 88.15104 579.10626 87.697914Q578.7625 87.24479 578.2469 87.24479Z" fill-rule="nonzero"/><path stroke="#757575" stroke-width="1.0" stroke-linecap="butt" d="M581.45 75.416664L454.76666 75.416664L315.28027 63.18347" fill-rule="nonzero"/><path fill="#9e9e9e" d="M317.28027 63.18347C317.28027 62.078903 316.38486 61.18347 315.28027 61.18347C314.17572 61.18347 313.28027 62.078903 313.28027 63.18347C313.28027 64.28804 314.17572 65.18347 315.28027 65.18347C316.38486 65.18347 317.28027 64.28804 317.28027 63.18347" fill-rule="nonzero"/><path fill="#efefef" d="M498.6844 160.374L498.6844 148.92087L503.0125 148.92087Q504.15314 148.92087 504.7469 149.03024Q505.59064 149.17087 506.15314 149.5615Q506.73126 149.95212 507.075 150.67087Q507.4344 151.374 507.4344 152.23337Q507.4344 153.6865 506.4969 154.70212Q505.575 155.71774 503.1375 155.71774L500.2 155.71774L500.2 160.374L498.6844 160.374ZM500.2 154.35837L503.16876 154.35837Q504.6375 154.35837 505.2469 153.8115Q505.8719 153.26462 505.8719 152.28024Q505.8719 151.5615 505.4969 151.04587Q505.1375 150.53024 504.54376 150.374Q504.16876 150.26462 503.1375 150.26462L500.2 150.26462L500.2 154.35837ZM515.1844 157.70212L516.6375 157.874Q516.29376 159.15524 515.35626 159.85837Q514.4344 160.5615 512.9969 160.5615Q511.16876 160.5615 510.10626 159.4365Q509.04376 158.3115 509.04376 156.29587Q509.04376 154.20212 510.1219 153.04587Q511.2 151.88962 512.91876 151.88962Q514.575 151.88962 515.6219 153.03024Q516.6844 154.15524 516.6844 156.20212Q516.6844 156.32712 516.6844 156.57712L510.4969 156.57712Q510.575 157.95212 511.2625 158.6865Q511.96564 159.40524 512.9969 159.40524Q513.77814 159.40524 514.325 158.999Q514.8719 158.59274 515.1844 157.70212ZM510.575 155.42087L515.2 155.42087Q515.10626 154.374 514.66876 153.85837Q513.9969 153.04587 512.9344 153.04587Q511.96564 153.04587 511.29376 153.70212Q510.6375 154.34274 510.575 155.42087ZM518.4969 160.374L518.4969 152.07712L519.7625 152.07712L519.7625 153.32712Q520.2469 152.45212 520.65314 152.17087Q521.0594 151.88962 521.5594 151.88962Q522.2625 151.88962 522.9969 152.34274L522.5125 153.63962Q521.9969 153.34274 521.48126 153.34274Q521.02814 153.34274 520.65314 153.624Q520.29376 153.88962 520.1375 154.38962Q519.90314 155.13962 519.90314 156.03024L519.90314 160.374L518.4969 160.374ZM522.95 157.88962L524.34064 157.67087Q524.45 158.51462 524.98126 158.96774Q525.52814 159.40524 526.48126 159.40524Q527.45 159.40524 527.91876 159.01462Q528.3875 158.60837 528.3875 158.07712Q528.3875 157.60837 527.98126 157.32712Q527.6844 157.13962 526.54376 156.85837Q524.9969 156.46774 524.3875 156.1865Q523.79376 155.88962 523.48126 155.38962Q523.1844 154.88962 523.1844 154.28024Q523.1844 153.71774 523.4344 153.249Q523.6844 152.78024 524.1219 152.46774Q524.45 152.21774 525.0125 152.0615Q525.59064 151.88962 526.23126 151.88962Q527.21564 151.88962 527.95 152.17087Q528.6844 152.45212 529.02814 152.9365Q529.3875 153.40524 529.52814 154.21774L528.15314 154.40524Q528.0594 153.76462 527.60626 153.40524Q527.15314 153.04587 526.34064 153.04587Q525.3719 153.04587 524.95 153.374Q524.54376 153.6865 524.54376 154.10837Q524.54376 154.38962 524.71564 154.60837Q524.8875 154.82712 525.2469 154.98337Q525.46564 155.0615 526.4969 155.34274Q527.98126 155.73337 528.575 155.999Q529.16876 156.249 529.4969 156.73337Q529.84064 157.21774 529.84064 157.9365Q529.84064 158.63962 529.41876 159.26462Q529.0125 159.874 528.23126 160.21774Q527.46564 160.5615 526.4969 160.5615Q524.8719 160.5615 524.02814 159.88962Q523.1844 159.21774 522.95 157.88962ZM531.5125 163.5615L531.5125 152.07712L532.79376 152.07712L532.79376 153.15524Q533.2469 152.51462 533.8094 152.20212Q534.3875 151.88962 535.2 151.88962Q536.2625 151.88962 537.075 152.4365Q537.8875 152.98337 538.29376 153.98337Q538.71564 154.96774 538.71564 156.15524Q538.71564 157.4365 538.2469 158.45212Q537.79376 159.46774 536.91876 160.01462Q536.0594 160.5615 535.09064 160.5615Q534.3875 160.5615 533.825 160.26462Q533.27814 159.96774 532.91876 159.51462L532.91876 163.5615L531.5125 163.5615ZM532.77814 156.26462Q532.77814 157.874 533.41876 158.63962Q534.075 159.40524 534.9969 159.40524Q535.9344 159.40524 536.60626 158.60837Q537.27814 157.8115 537.27814 156.15524Q537.27814 154.5615 536.6219 153.78024Q535.96564 152.98337 535.0594 152.98337Q534.16876 152.98337 533.46564 153.82712Q532.77814 154.67087 532.77814 156.26462ZM546.1844 157.70212L547.6375 157.874Q547.29376 159.15524 546.35626 159.85837Q545.4344 160.5615 543.9969 160.5615Q542.16876 160.5615 541.10626 159.4365Q540.04376 158.3115 540.04376 156.29587Q540.04376 154.20212 541.1219 153.04587Q542.2 151.88962 543.91876 151.88962Q545.575 151.88962 546.6219 153.03024Q547.6844 154.15524 547.6844 156.20212Q547.6844 156.32712 547.6844 156.57712L541.4969 156.57712Q541.575 157.95212 542.2625 158.6865Q542.96564 159.40524 543.9969 159.40524Q544.77814 159.40524 545.325 158.999Q545.8719 158.59274 546.1844 157.70212ZM541.575 155.42087L546.2 155.42087Q546.10626 154.374 545.66876 153.85837Q544.9969 153.04587 543.9344 153.04587Q542.96564 153.04587 542.29376 153.70212Q541.6375 154.34274 541.575 155.42087ZM554.91876 157.32712L556.3094 157.51462Q556.075 158.9365 555.1375 159.749Q554.21564 160.5615 552.85626 160.5615Q551.15314 160.5615 550.10626 159.45212Q549.075 158.32712 549.075 156.249Q549.075 154.90524 549.5125 153.90524Q549.96564 152.88962 550.8719 152.38962Q551.79376 151.88962 552.85626 151.88962Q554.21564 151.88962 555.075 152.57712Q555.9344 153.249 556.16876 154.51462L554.8094 154.71774Q554.60626 153.88962 554.10626 153.46774Q553.6219 153.04587 552.91876 153.04587Q551.85626 153.04587 551.1844 153.8115Q550.52814 154.5615 550.52814 156.21774Q550.52814 157.88962 551.16876 158.65524Q551.8094 159.40524 552.84064 159.40524Q553.66876 159.40524 554.21564 158.90524Q554.77814 158.38962 554.91876 157.32712ZM560.575 159.10837L560.77814 160.35837Q560.1844 160.48337 559.71564 160.48337Q558.95 160.48337 558.52814 160.249Q558.10626 159.999 557.9344 159.60837Q557.7625 159.20212 557.7625 157.9365L557.7625 153.17087L556.73126 153.17087L556.73126 152.07712L557.7625 152.07712L557.7625 150.01462L559.16876 149.17087L559.16876 152.07712L560.575 152.07712L560.575 153.17087L559.16876 153.17087L559.16876 158.01462Q559.16876 158.624 559.23126 158.79587Q559.3094 158.96774 559.48126 159.07712Q559.65314 159.17087 559.96564 159.17087Q560.2 159.17087 560.575 159.10837ZM561.5125 150.53024L561.5125 148.92087L562.91876 148.92087L562.91876 150.53024L561.5125 150.53024ZM561.5125 160.374L561.5125 152.07712L562.91876 152.07712L562.91876 160.374L561.5125 160.374ZM567.8094 160.374L564.65314 152.07712L566.1375 152.07712L567.91876 157.04587Q568.21564 157.84274 568.45 158.71774Q568.6375 158.0615 568.98126 157.13962L570.825 152.07712L572.2625 152.07712L569.1219 160.374L567.8094 160.374ZM579.1844 157.70212L580.6375 157.874Q580.29376 159.15524 579.35626 159.85837Q578.4344 160.5615 576.9969 160.5615Q575.16876 160.5615 574.10626 159.4365Q573.04376 158.3115 573.04376 156.29587Q573.04376 154.20212 574.1219 153.04587Q575.2 151.88962 576.91876 151.88962Q578.575 151.88962 579.6219 153.03024Q580.6844 154.15524 580.6844 156.20212Q580.6844 156.32712 580.6844 156.57712L574.4969 156.57712Q574.575 157.95212 575.2625 158.6865Q575.96564 159.40524 576.9969 159.40524Q577.77814 159.40524 578.325 158.999Q578.8719 158.59274 579.1844 157.70212ZM574.575 155.42087L579.2 155.42087Q579.10626 154.374 578.66876 153.85837Q577.9969 153.04587 576.9344 153.04587Q575.96564 153.04587 575.29376 153.70212Q574.6375 154.34274 574.575 155.42087Z" fill-rule="nonzero"/><path fill="#9e9e9e" d="M537.1219 179.34274L538.52814 179.15524Q538.77814 180.35837 539.35626 180.88962Q539.9344 181.40524 540.77814 181.40524Q541.7625 181.40524 542.45 180.71774Q543.1375 180.03024 543.1375 179.01462Q543.1375 178.04587 542.4969 177.42087Q541.8719 176.79587 540.8875 176.79587Q540.4969 176.79587 539.90314 176.95212L540.0594 175.71774Q540.2 175.73337 540.27814 175.73337Q541.1844 175.73337 541.90314 175.26462Q542.6219 174.79587 542.6219 173.8115Q542.6219 173.04587 542.09064 172.54587Q541.575 172.03024 540.7469 172.03024Q539.91876 172.03024 539.3719 172.54587Q538.825 173.0615 538.66876 174.09274L537.2625 173.84274Q537.52814 172.42087 538.4344 171.65524Q539.35626 170.874 540.71564 170.874Q541.65314 170.874 542.4344 171.28024Q543.23126 171.67087 543.6375 172.374Q544.0594 173.0615 544.0594 173.84274Q544.0594 174.59274 543.65314 175.20212Q543.2625 175.8115 542.48126 176.17087Q543.4969 176.40524 544.0594 177.13962Q544.6219 177.874 544.6219 178.98337Q544.6219 180.48337 543.52814 181.53024Q542.4344 182.57712 540.7625 182.57712Q539.2625 182.57712 538.2625 181.6865Q537.2625 180.78024 537.1219 179.34274ZM550.6219 182.374L550.6219 179.624L545.65314 179.624L545.65314 178.34274L550.8875 170.92087L552.02814 170.92087L552.02814 178.34274L553.575 178.34274L553.575 179.624L552.02814 179.624L552.02814 182.374L550.6219 182.374ZM550.6219 178.34274L550.6219 173.17087L547.04376 178.34274L550.6219 178.34274ZM555.90314 182.374L555.90314 180.76462L557.5125 180.76462L557.5125 182.374L555.90314 182.374ZM559.1219 179.374L560.59064 179.249Q560.7625 180.32712 561.35626 180.874Q561.95 181.40524 562.79376 181.40524Q563.8094 181.40524 564.5125 180.63962Q565.21564 179.874 565.21564 178.60837Q565.21564 177.40524 564.54376 176.71774Q563.8719 176.01462 562.77814 176.01462Q562.09064 176.01462 561.54376 176.32712Q560.9969 176.63962 560.6844 177.124L559.3719 176.95212L560.48126 171.07712L566.16876 171.07712L566.16876 172.42087L561.60626 172.42087L560.98126 175.499Q562.0125 174.78024 563.15314 174.78024Q564.65314 174.78024 565.6844 175.82712Q566.71564 176.85837 566.71564 178.48337Q566.71564 180.04587 565.8094 181.17087Q564.7 182.57712 562.79376 182.57712Q561.23126 182.57712 560.2469 181.70212Q559.2625 180.8115 559.1219 179.374ZM568.3875 173.67087Q568.3875 172.4365 568.9969 171.57712Q569.6219 170.71774 570.79376 170.71774Q571.8719 170.71774 572.575 171.499Q573.27814 172.26462 573.27814 173.749Q573.27814 175.20212 572.5594 175.999Q571.85626 176.78024 570.8094 176.78024Q569.7625 176.78024 569.075 176.01462Q568.3875 175.23337 568.3875 173.67087ZM570.825 171.6865Q570.3094 171.6865 569.95 172.13962Q569.60626 172.59274 569.60626 173.8115Q569.60626 174.90524 569.95 175.35837Q570.3094 175.8115 570.825 175.8115Q571.35626 175.8115 571.7 175.35837Q572.0594 174.90524 572.0594 173.70212Q572.0594 172.59274 571.7 172.13962Q571.35626 171.6865 570.825 171.6865ZM570.84064 182.79587L577.10626 170.71774L578.2469 170.71774L571.9969 182.79587L570.84064 182.79587ZM575.79376 179.6865Q575.79376 178.45212 576.40314 177.59274Q577.02814 176.73337 578.2 176.73337Q579.27814 176.73337 579.98126 177.51462Q580.7 178.28024 580.7 179.76462Q580.7 181.21774 579.98126 182.01462Q579.2625 182.79587 578.21564 182.79587Q577.16876 182.79587 576.48126 182.01462Q575.79376 181.23337 575.79376 179.6865ZM578.2469 177.70212Q577.71564 177.70212 577.35626 178.15524Q577.0125 178.60837 577.0125 179.82712Q577.0125 180.92087 577.35626 181.374Q577.71564 181.82712 578.23126 181.82712Q578.77814 181.82712 579.1219 181.374Q579.46564 180.92087 579.46564 179.71774Q579.46564 178.60837 579.10626 178.15524Q578.7625 177.70212 578.2469 177.70212Z" fill-rule="nonzero"/><path stroke="#757575" stroke-width="1.0" stroke-linecap="butt" d="M581.45 165.874L454.76666 165.874L436.1769 165.874" fill-rule="nonzero"/><path fill="#9e9e9e" d="M438.1769 165.874C438.1769 164.76942 437.2815 163.874 436.1769 163.874C435.07236 163.874 434.1769 164.76942 434.1769 165.874C434.1769 166.97856 435.07236 167.874 436.1769 167.874C437.2815 167.874 438.1769 166.97856 438.1769 165.874" fill-rule="nonzero"/><path fill="#f3f3f3" d="M265.98438 37.55L265.98438 23.2375L268.84375 23.2375L272.21875 33.3625Q272.6875 34.784374 272.90625 35.4875Q273.15625 34.70625 273.67188 33.190624L277.09375 23.2375L279.64062 23.2375L279.64062 37.55L277.82812 37.55L277.82812 25.565624L273.65625 37.55L271.95312 37.55L267.8125 25.3625L267.8125 37.55L265.98438 37.55ZM289.92188 34.20625L291.73438 34.440624Q291.3125 36.01875 290.14062 36.909374Q288.98438 37.784374 287.17188 37.784374Q284.90625 37.784374 283.5625 36.39375Q282.23438 34.9875 282.23438 32.45625Q282.23438 29.83125 283.57812 28.39375Q284.92188 26.940624 287.07812 26.940624Q289.15625 26.940624 290.46875 28.3625Q291.79688 29.76875 291.79688 32.346874Q291.79688 32.503124 291.78125 32.815624L284.04688 32.815624Q284.14062 34.51875 285.01562 35.425Q285.89062 36.33125 287.1875 36.33125Q288.15625 36.33125 288.82812 35.83125Q289.51562 35.315624 289.92188 34.20625ZM284.14062 31.3625L289.9375 31.3625Q289.82812 30.065624 289.28125 29.409374Q288.4375 28.39375 287.09375 28.39375Q285.89062 28.39375 285.0625 29.20625Q284.23438 30.003124 284.14062 31.3625ZM300.54688 37.55L300.54688 36.2375Q299.5625 37.784374 297.64062 37.784374Q296.40625 37.784374 295.35938 37.096874Q294.32812 36.409374 293.75 35.190624Q293.1875 33.971874 293.1875 32.378124Q293.1875 30.815624 293.70312 29.55Q294.21875 28.284374 295.25 27.6125Q296.29688 26.940624 297.5625 26.940624Q298.5 26.940624 299.23438 27.346874Q299.96875 27.7375 300.4375 28.3625L300.4375 23.2375L302.17188 23.2375L302.17188 37.55L300.54688 37.55ZM294.98438 32.378124Q294.98438 34.3625 295.82812 35.346874Q296.67188 36.33125 297.8125 36.33125Q298.96875 36.33125 299.76562 35.39375Q300.57812 34.45625 300.57812 32.51875Q300.57812 30.39375 299.75 29.39375Q298.9375 28.39375 297.73438 28.39375Q296.5625 28.39375 295.76562 29.3625Q294.98438 30.315624 294.98438 32.378124ZM304.82812 25.253124L304.82812 23.2375L306.59375 23.2375L306.59375 25.253124L304.82812 25.253124ZM304.82812 37.55L304.82812 27.175L306.59375 27.175L306.59375 37.55L304.82812 37.55ZM315.60938 37.55L315.60938 36.01875Q314.40625 37.784374 312.32812 37.784374Q311.40625 37.784374 310.60938 37.440624Q309.8125 37.08125 309.42188 36.55Q309.04688 36.01875 308.89062 35.2375Q308.78125 34.721874 308.78125 33.596874L308.78125 27.175L310.53125 27.175L310.53125 32.925Q310.53125 34.3 310.64062 34.784374Q310.8125 35.471874 311.34375 35.878124Q311.89062 36.26875 312.67188 36.26875Q313.46875 36.26875 314.15625 35.8625Q314.85938 35.45625 315.14062 34.76875Q315.4375 34.065624 315.4375 32.7375L315.4375 27.175L317.1875 27.175L317.1875 37.55L315.60938 37.55ZM319.8125 37.55L319.8125 27.175L321.39062 27.175L321.39062 28.628124Q321.875 27.878124 322.6875 27.409374Q323.5 26.940624 324.53125 26.940624Q325.6875 26.940624 326.42188 27.425Q327.15625 27.89375 327.46875 28.753124Q328.70312 26.940624 330.67188 26.940624Q332.21875 26.940624 333.04688 27.8Q333.875 28.659374 333.875 30.425L333.875 37.55L332.125 37.55L332.125 31.01875Q332.125 29.95625 331.95312 29.503124Q331.78125 29.034374 331.32812 28.753124Q330.89062 28.471874 330.28125 28.471874Q329.1875 28.471874 328.45312 29.20625Q327.73438 29.925 327.73438 31.51875L327.73438 37.55L325.98438 37.55L325.98438 30.815624Q325.98438 29.64375 325.54688 29.065624Q325.125 28.471874 324.14062 28.471874Q323.40625 28.471874 322.76562 28.8625Q322.14062 29.253124 321.85938 30.003124Q321.57812 30.753124 321.57812 32.175L321.57812 37.55L319.8125 37.55Z" fill-rule="nonzero"/></svg>