<svg version="1.1" viewBox="0.0 0.0 600.0 371.0" fill="none" stroke="none" stroke-linecap="square" stroke-miterlimit="10" width="600" height="371" xmlns:xlink="http://www.w3.org/1999/xlink" xmlns="http://www.w3.org/2000/svg"><path fill="#ffffff" fill-opacity="0.0" d="M0 0L600.0 0L600.0 371.0L0 371.0L0 0Z" fill-rule="nonzero"/><path fill="#df8d43" d="M300.0 54.916668C382.16156 54.916668 448.76666 121.521774 448.76666 203.68333C448.76666 285.8449 382.16156 352.45 300.0 352.45L300.0 240.875C320.5404 240.875 337.19168 224.22372 337.19168 203.68333C337.19168 183.14294 320.5404 166.49167 300.0 166.49167Z" fill-rule="nonzero"/><path fill="#e5a345" d="M300.0 352.45C217.83844 352.45 151.23334 285.8449 151.23334 203.68333C151.23334 121.521774 217.83844 54.916668 300.0 54.916668L300.0 166.49167C279.4596 166.49167 262.80832 183.14294 262.80832 203.68333C262.80832 224.22372 279.4596 240.875 300.0 240.875Z" fill-rule="nonzero"/><path fill="#ffffff" d="M381.45966 206.80833L383.1159 206.66771Q383.3034 207.88646 383.97528 208.49583Q384.64716 209.10521 385.60028 209.10521Q386.7409 209.10521 387.52216 208.24583Q388.31903 207.38646 388.31903 205.94896Q388.31903 204.60521 387.5534 203.82396Q386.8034 203.04271 385.56903 203.04271Q384.8034 203.04271 384.1784 203.38646Q383.56903 203.73021 383.22528 204.29271L381.7409 204.08958L382.9909 197.48021L389.39716 197.48021L389.39716 198.98021L384.25653 198.98021L383.5534 202.44896Q384.72528 201.63646 385.9909 201.63646Q387.6784 201.63646 388.83466 202.80833Q390.00653 203.98021 390.00653 205.80833Q390.00653 207.55833 388.97528 208.83958Q387.7409 210.40208 385.60028 210.40208Q383.83466 210.40208 382.72528 209.41771Q381.6159 208.43333 381.45966 206.80833ZM391.45966 203.82396Q391.45966 201.54271 391.9284 200.15208Q392.39716 198.76146 393.31903 198.01146Q394.25653 197.24583 395.66278 197.24583Q396.69403 197.24583 397.47528 197.66771Q398.25653 198.07396 398.75653 198.87083Q399.27216 199.65208 399.56903 200.79271Q399.8659 201.91771 399.8659 203.82396Q399.8659 206.08958 399.39716 207.49583Q398.9284 208.88646 397.9909 209.65208Q397.06903 210.40208 395.66278 210.40208Q393.78778 210.40208 392.72528 209.07396Q391.45966 207.46458 391.45966 203.82396ZM393.08466 203.82396Q393.08466 206.99583 393.81903 208.05833Q394.56903 209.10521 395.66278 209.10521Q396.7409 209.10521 397.4909 208.05833Q398.2409 206.99583 398.2409 203.82396Q398.2409 200.65208 397.4909 199.60521Q396.7409 198.55833 395.64716 198.55833Q394.5534 198.55833 393.89716 199.48021Q393.08466 200.65208 393.08466 203.82396ZM402.35028 210.18333L402.35028 208.38646L404.14716 208.38646L404.14716 210.18333L402.35028 210.18333ZM406.45966 203.82396Q406.45966 201.54271 406.9284 200.15208Q407.39716 198.76146 408.31903 198.01146Q409.25653 197.24583 410.66278 197.24583Q411.69403 197.24583 412.47528 197.66771Q413.25653 198.07396 413.75653 198.87083Q414.27216 199.65208 414.56903 200.79271Q414.8659 201.91771 414.8659 203.82396Q414.8659 206.08958 414.39716 207.49583Q413.9284 208.88646 412.9909 209.65208Q412.06903 210.40208 410.66278 210.40208Q408.78778 210.40208 407.72528 209.07396Q406.45966 207.46458 406.45966 203.82396ZM408.08466 203.82396Q408.08466 206.99583 408.81903 208.05833Q409.56903 209.10521 410.66278 209.10521Q411.7409 209.10521 412.4909 208.05833Q413.2409 206.99583 413.2409 203.82396Q413.2409 200.65208 412.4909 199.60521Q411.7409 198.55833 410.64716 198.55833Q409.5534 198.55833 408.89716 199.48021Q408.08466 200.65208 408.08466 203.82396ZM416.75653 200.38646Q416.75653 199.01146 417.44403 198.04271Q418.14716 197.07396 419.45966 197.07396Q420.6784 197.07396 421.47528 197.94896Q422.27216 198.80833 422.27216 200.49583Q422.27216 202.12083 421.45966 203.01146Q420.66278 203.88646 419.47528 203.88646Q418.31903 203.88646 417.53778 203.02708Q416.75653 202.15208 416.75653 200.38646ZM419.50653 198.16771Q418.91278 198.16771 418.52216 198.68333Q418.13153 199.18333 418.13153 200.54271Q418.13153 201.79271 418.52216 202.29271Q418.9284 202.79271 419.50653 202.79271Q420.10028 202.79271 420.4909 202.29271Q420.88153 201.77708 420.88153 200.43333Q420.88153 199.18333 420.4909 198.68333Q420.10028 198.16771 419.50653 198.16771ZM419.52216 210.65208L426.56903 197.07396L427.85028 197.07396L420.81903 210.65208L419.52216 210.65208ZM425.08466 207.15208Q425.08466 205.77708 425.77216 204.80833Q426.47528 203.83958 427.8034 203.83958Q429.02216 203.83958 429.8034 204.71458Q430.60028 205.57396 430.60028 207.26146Q430.60028 208.88646 429.8034 209.77708Q429.00653 210.65208 427.81903 210.65208Q426.64716 210.65208 425.8659 209.77708Q425.08466 208.90208 425.08466 207.15208ZM427.85028 204.93333Q427.25653 204.93333 426.8659 205.44896Q426.47528 205.94896 426.47528 207.32396Q426.47528 208.54271 426.8659 209.05833Q427.25653 209.57396 427.83466 209.57396Q428.44403 209.57396 428.83466 209.05833Q429.22528 208.54271 429.22528 207.19896Q429.22528 205.94896 428.83466 205.44896Q428.44403 204.93333 427.85028 204.93333Z" fill-rule="nonzero"/><path fill="#ffffff" d="M169.04036 206.80833L170.69661 206.66771Q170.88411 207.88646 171.55598 208.49583Q172.22786 209.10521 173.18098 209.10521Q174.32161 209.10521 175.10286 208.24583Q175.89973 207.38646 175.89973 205.94896Q175.89973 204.60521 175.13411 203.82396Q174.38411 203.04271 173.14973 203.04271Q172.38411 203.04271 171.75911 203.38646Q171.14973 203.73021 170.80598 204.29271L169.32161 204.08958L170.57161 197.48021L176.97786 197.48021L176.97786 198.98021L171.83723 198.98021L171.13411 202.44896Q172.30598 201.63646 173.57161 201.63646Q175.25911 201.63646 176.41536 202.80833Q177.58723 203.98021 177.58723 205.80833Q177.58723 207.55833 176.55598 208.83958Q175.32161 210.40208 173.18098 210.40208Q171.41536 210.40208 170.30598 209.41771Q169.19661 208.43333 169.04036 206.80833ZM179.04036 203.82396Q179.04036 201.54271 179.50911 200.15208Q179.97786 198.76146 180.89973 198.01146Q181.83723 197.24583 183.24348 197.24583Q184.27473 197.24583 185.05598 197.66771Q185.83723 198.07396 186.33723 198.87083Q186.85286 199.65208 187.14973 200.79271Q187.44661 201.91771 187.44661 203.82396Q187.44661 206.08958 186.97786 207.49583Q186.50911 208.88646 185.57161 209.65208Q184.64973 210.40208 183.24348 210.40208Q181.36848 210.40208 180.30598 209.07396Q179.04036 207.46458 179.04036 203.82396ZM180.66536 203.82396Q180.66536 206.99583 181.39973 208.05833Q182.14973 209.10521 183.24348 209.10521Q184.32161 209.10521 185.07161 208.05833Q185.82161 206.99583 185.82161 203.82396Q185.82161 200.65208 185.07161 199.60521Q184.32161 198.55833 183.22786 198.55833Q182.13411 198.55833 181.47786 199.48021Q180.66536 200.65208 180.66536 203.82396ZM189.93098 210.18333L189.93098 208.38646L191.72786 208.38646L191.72786 210.18333L189.93098 210.18333ZM194.04036 203.82396Q194.04036 201.54271 194.50911 200.15208Q194.97786 198.76146 195.89973 198.01146Q196.83723 197.24583 198.24348 197.24583Q199.27473 197.24583 200.05598 197.66771Q200.83723 198.07396 201.33723 198.87083Q201.85286 199.65208 202.14973 200.79271Q202.44661 201.91771 202.44661 203.82396Q202.44661 206.08958 201.97786 207.49583Q201.50911 208.88646 200.57161 209.65208Q199.64973 210.40208 198.24348 210.40208Q196.36848 210.40208 195.30598 209.07396Q194.04036 207.46458 194.04036 203.82396ZM195.66536 203.82396Q195.66536 206.99583 196.39973 208.05833Q197.14973 209.10521 198.24348 209.10521Q199.32161 209.10521 200.07161 208.05833Q200.82161 206.99583 200.82161 203.82396Q200.82161 200.65208 200.07161 199.60521Q199.32161 198.55833 198.22786 198.55833Q197.13411 198.55833 196.47786 199.48021Q195.66536 200.65208 195.66536 203.82396ZM204.33723 200.38646Q204.33723 199.01146 205.02473 198.04271Q205.72786 197.07396 207.04036 197.07396Q208.25911 197.07396 209.05598 197.94896Q209.85286 198.80833 209.85286 200.49583Q209.85286 202.12083 209.04036 203.01146Q208.24348 203.88646 207.05598 203.88646Q205.89973 203.88646 205.11848 203.02708Q204.33723 202.15208 204.33723 200.38646ZM207.08723 198.16771Q206.49348 198.16771 206.10286 198.68333Q205.71223 199.18333 205.71223 200.54271Q205.71223 201.79271 206.10286 202.29271Q206.50911 202.79271 207.08723 202.79271Q207.68098 202.79271 208.07161 202.29271Q208.46223 201.77708 208.46223 200.43333Q208.46223 199.18333 208.07161 198.68333Q207.68098 198.16771 207.08723 198.16771ZM207.10286 210.65208L214.14973 197.07396L215.43098 197.07396L208.39973 210.65208L207.10286 210.65208ZM212.66536 207.15208Q212.66536 205.77708 213.35286 204.80833Q214.05598 203.83958 215.38411 203.83958Q216.60286 203.83958 217.38411 204.71458Q218.18098 205.57396 218.18098 207.26146Q218.18098 208.88646 217.38411 209.77708Q216.58723 210.65208 215.39973 210.65208Q214.22786 210.65208 213.44661 209.77708Q212.66536 208.90208 212.66536 207.15208ZM215.43098 204.93333Q214.83723 204.93333 214.44661 205.44896Q214.05598 205.94896 214.05598 207.32396Q214.05598 208.54271 214.44661 209.05833Q214.83723 209.57396 215.41536 209.57396Q216.02473 209.57396 216.41536 209.05833Q216.80598 208.54271 216.80598 207.19896Q216.80598 205.94896 216.41536 205.44896Q216.02473 204.93333 215.43098 204.93333Z" fill-rule="nonzero"/><path stroke="#ffffff" stroke-width="1.0" stroke-linejoin="round" stroke-linecap="round" d="M300.0 240.875C320.5404 240.875 337.19168 224.22372 337.19168 203.68333C337.19168 183.14294 320.5404 166.49167 300.0 166.49167L300.0 54.916668C382.16156 54.916668 448.76666 121.521774 448.76666 203.68333C448.76666 285.8449 382.16156 352.45 300.0 352.45" fill-rule="nonzero"/><path stroke="#ffffff" stroke-width="1.0" stroke-linejoin="round" stroke-linecap="round" d="M300.0 166.49167C279.4596 166.49167 262.80832 183.14294 262.80832 203.68333C262.80832 224.22372 279.4596 240.875 300.0 240.875L300.0 352.45C217.83844 352.45 151.23334 285.8449 151.23334 203.68333C151.23334 121.521774 217.83844 54.916668 300.0 54.916668" fill-rule="nonzero"/><path fill="#efefef" d="M27.3 186.73021L28.815624 186.73021L28.815624 193.33958Q28.815624 195.07396 28.425 196.08958Q28.034374 197.10521 27.01875 197.74583Q26.003124 198.38646 24.346874 198.38646Q22.7375 198.38646 21.70625 197.82396Q20.690624 197.26146 20.253124 196.21458Q19.815624 195.16771 19.815624 193.33958L19.815624 186.73021L21.33125 186.73021L21.33125 193.33958Q21.33125 194.82396 21.596874 195.54271Q21.878124 196.24583 22.55 196.63646Q23.2375 197.01146 24.20625 197.01146Q25.878124 197.01146 26.58125 196.26146Q27.3 195.49583 27.3 193.33958L27.3 186.73021ZM31.596874 198.18333L31.596874 189.88646L32.8625 189.88646L32.8625 191.13646Q33.346874 190.26146 33.753124 189.98021Q34.159374 189.69896 34.659374 189.69896Q35.3625 189.69896 36.096874 190.15208L35.6125 191.44896Q35.096874 191.15208 34.58125 191.15208Q34.128124 191.15208 33.753124 191.43333Q33.39375 191.69896 33.2375 192.19896Q33.003124 192.94896 33.003124 193.83958L33.003124 198.18333L31.596874 198.18333ZM37.909374 198.18333L36.596874 198.18333L36.596874 186.73021L38.003124 186.73021L38.003124 190.80833Q38.89375 189.69896 40.284374 189.69896Q41.05 189.69896 41.721874 190.01146Q42.409374 190.30833 42.846874 190.87083Q43.3 191.43333 43.55 192.23021Q43.8 193.01146 43.8 193.90208Q43.8 196.04271 42.7375 197.21458Q41.690624 198.37083 40.20625 198.37083Q38.7375 198.37083 37.909374 197.13646L37.909374 198.18333ZM37.89375 193.96458Q37.89375 195.46458 38.3 196.12083Q38.95625 197.21458 40.096874 197.21458Q41.01875 197.21458 41.690624 196.41771Q42.3625 195.60521 42.3625 194.02708Q42.3625 192.40208 41.70625 191.63646Q41.065624 190.85521 40.159374 190.85521Q39.2375 190.85521 38.565624 191.65208Q37.89375 192.44896 37.89375 193.96458ZM51.01875 197.15208Q50.2375 197.82396 49.51875 198.10521Q48.8 198.37083 47.971874 198.37083Q46.596874 198.37083 45.8625 197.69896Q45.128124 197.02708 45.128124 195.99583Q45.128124 195.38646 45.409374 194.88646Q45.690624 194.37083 46.128124 194.07396Q46.58125 193.76146 47.14375 193.60521Q47.565624 193.49583 48.39375 193.40208Q50.096874 193.19896 50.909374 192.91771Q50.909374 192.62083 50.909374 192.54271Q50.909374 191.68333 50.51875 191.33958Q49.971874 190.85521 48.909374 190.85521Q47.925 190.85521 47.440624 191.21458Q46.971874 191.55833 46.753124 192.43333L45.378124 192.24583Q45.565624 191.37083 45.9875 190.82396Q46.425 190.27708 47.2375 189.99583Q48.05 189.69896 49.1125 189.69896Q50.175 189.69896 50.83125 189.94896Q51.503124 190.19896 51.815624 190.57396Q52.128124 190.94896 52.253124 191.52708Q52.33125 191.88646 52.33125 192.82396L52.33125 194.69896Q52.33125 196.66771 52.409374 197.18333Q52.503124 197.69896 52.76875 198.18333L51.3 198.18333Q51.08125 197.74583 51.01875 197.15208ZM50.909374 194.01146Q50.14375 194.32396 48.6125 194.54271Q47.7375 194.66771 47.378124 194.82396Q47.01875 194.98021 46.815624 195.29271Q46.628124 195.58958 46.628124 195.94896Q46.628124 196.51146 47.05 196.88646Q47.4875 197.26146 48.3 197.26146Q49.1125 197.26146 49.7375 196.91771Q50.378124 196.55833 50.675 195.93333Q50.909374 195.46458 50.909374 194.52708L50.909374 194.01146ZM54.6125 198.18333L54.6125 189.88646L55.878124 189.88646L55.878124 191.05833Q56.784374 189.69896 58.51875 189.69896Q59.26875 189.69896 59.89375 189.96458Q60.51875 190.23021 60.83125 190.66771Q61.14375 191.10521 61.26875 191.71458Q61.346874 192.10521 61.346874 193.07396L61.346874 198.18333L59.940624 198.18333L59.940624 193.13646Q59.940624 192.27708 59.76875 191.85521Q59.6125 191.41771 59.190624 191.16771Q58.784374 190.91771 58.221874 190.91771Q57.315624 190.91771 56.659374 191.49583Q56.01875 192.05833 56.01875 193.65208L56.01875 198.18333L54.6125 198.18333ZM63.05 195.69896L64.44063 195.48021Q64.55 196.32396 65.08125 196.77708Q65.62813 197.21458 66.58125 197.21458Q67.55 197.21458 68.01875 196.82396Q68.4875 196.41771 68.4875 195.88646Q68.4875 195.41771 68.08125 195.13646Q67.78438 194.94896 66.64375 194.66771Q65.09688 194.27708 64.4875 193.99583Q63.89375 193.69896 63.58125 193.19896Q63.284374 192.69896 63.284374 192.08958Q63.284374 191.52708 63.534374 191.05833Q63.784374 190.58958 64.22188 190.27708Q64.55 190.02708 65.1125 189.87083Q65.69063 189.69896 66.33125 189.69896Q67.31563 189.69896 68.05 189.98021Q68.78438 190.26146 69.12813 190.74583Q69.4875 191.21458 69.62813 192.02708L68.25313 192.21458Q68.15938 191.57396 67.70625 191.21458Q67.25313 190.85521 66.44063 190.85521Q65.47188 190.85521 65.05 191.18333Q64.64375 191.49583 64.64375 191.91771Q64.64375 192.19896 64.81563 192.41771Q64.9875 192.63646 65.34688 192.79271Q65.56563 192.87083 66.59688 193.15208Q68.08125 193.54271 68.675 193.80833Q69.26875 194.05833 69.59688 194.54271Q69.94063 195.02708 69.94063 195.74583Q69.94063 196.44896 69.51875 197.07396Q69.1125 197.68333 68.33125 198.02708Q67.56563 198.37083 66.59688 198.37083Q64.97188 198.37083 64.12813 197.69896Q63.284374 197.02708 63.05 195.69896ZM77.01875 195.13646L78.40938 195.32396Q78.175 196.74583 77.2375 197.55833Q76.31563 198.37083 74.95625 198.37083Q73.25313 198.37083 72.20625 197.26146Q71.175 196.13646 71.175 194.05833Q71.175 192.71458 71.6125 191.71458Q72.06563 190.69896 72.97188 190.19896Q73.89375 189.69896 74.95625 189.69896Q76.31563 189.69896 77.175 190.38646Q78.03438 191.05833 78.26875 192.32396L76.90938 192.52708Q76.70625 191.69896 76.20625 191.27708Q75.72188 190.85521 75.01875 190.85521Q73.95625 190.85521 73.28438 191.62083Q72.62813 192.37083 72.62813 194.02708Q72.62813 195.69896 73.26875 196.46458Q73.90938 197.21458 74.94063 197.21458Q75.76875 197.21458 76.31563 196.71458Q76.87813 196.19896 77.01875 195.13646ZM85.01875 197.15208Q84.2375 197.82396 83.51875 198.10521Q82.8 198.37083 81.97188 198.37083Q80.59688 198.37083 79.8625 197.69896Q79.12813 197.02708 79.12813 195.99583Q79.12813 195.38646 79.40938 194.88646Q79.69063 194.37083 80.12813 194.07396Q80.58125 193.76146 81.14375 193.60521Q81.56563 193.49583 82.39375 193.40208Q84.09688 193.19896 84.90938 192.91771Q84.90938 192.62083 84.90938 192.54271Q84.90938 191.68333 84.51875 191.33958Q83.97188 190.85521 82.90938 190.85521Q81.925 190.85521 81.44063 191.21458Q80.97188 191.55833 80.75313 192.43333L79.37813 192.24583Q79.56563 191.37083 79.9875 190.82396Q80.425 190.27708 81.2375 189.99583Q82.05 189.69896 83.1125 189.69896Q84.175 189.69896 84.83125 189.94896Q85.50313 190.19896 85.81563 190.57396Q86.12813 190.94896 86.25313 191.52708Q86.33125 191.88646 86.33125 192.82396L86.33125 194.69896Q86.33125 196.66771 86.40938 197.18333Q86.50313 197.69896 86.76875 198.18333L85.3 198.18333Q85.08125 197.74583 85.01875 197.15208ZM84.90938 194.01146Q84.14375 194.32396 82.6125 194.54271Q81.7375 194.66771 81.37813 194.82396Q81.01875 194.98021 80.81563 195.29271Q80.62813 195.58958 80.62813 195.94896Q80.62813 196.51146 81.05 196.88646Q81.4875 197.26146 82.3 197.26146Q83.1125 197.26146 83.7375 196.91771Q84.37813 196.55833 84.675 195.93333Q84.90938 195.46458 84.90938 194.52708L84.90938 194.01146ZM88.6125 201.37083L88.6125 189.88646L89.89375 189.88646L89.89375 190.96458Q90.34688 190.32396 90.90938 190.01146Q91.4875 189.69896 92.3 189.69896Q93.3625 189.69896 94.175 190.24583Q94.9875 190.79271 95.39375 191.79271Q95.81563 192.77708 95.81563 193.96458Q95.81563 195.24583 95.34688 196.26146Q94.89375 197.27708 94.01875 197.82396Q93.15938 198.37083 92.19063 198.37083Q91.4875 198.37083 90.925 198.07396Q90.37813 197.77708 90.01875 197.32396L90.01875 201.37083L88.6125 201.37083ZM89.87813 194.07396Q89.87813 195.68333 90.51875 196.44896Q91.175 197.21458 92.09688 197.21458Q93.03438 197.21458 93.70625 196.41771Q94.37813 195.62083 94.37813 193.96458Q94.37813 192.37083 93.72188 191.58958Q93.06563 190.79271 92.15938 190.79271Q91.26875 190.79271 90.56563 191.63646Q89.87813 192.48021 89.87813 194.07396ZM103.28438 195.51146L104.7375 195.68333Q104.39375 196.96458 103.45625 197.66771Q102.53438 198.37083 101.09688 198.37083Q99.26875 198.37083 98.20625 197.24583Q97.14375 196.12083 97.14375 194.10521Q97.14375 192.01146 98.22188 190.85521Q99.3 189.69896 101.01875 189.69896Q102.675 189.69896 103.72188 190.83958Q104.78438 191.96458 104.78438 194.01146Q104.78438 194.13646 104.78438 194.38646L98.59688 194.38646Q98.675 195.76146 99.3625 196.49583Q100.06563 197.21458 101.09688 197.21458Q101.87813 197.21458 102.425 196.80833Q102.97188 196.40208 103.28438 195.51146ZM98.675 193.23021L103.3 193.23021Q103.20625 192.18333 102.76875 191.66771Q102.09688 190.85521 101.03438 190.85521Q100.06563 190.85521 99.39375 191.51146Q98.7375 192.15208 98.675 193.23021Z" fill-rule="nonzero"/><path fill="#9e9e9e" d="M19.221874 217.18333L20.690624 217.05833Q20.8625 218.13646 21.45625 218.68333Q22.05 219.21458 22.89375 219.21458Q23.909374 219.21458 24.6125 218.44896Q25.315624 217.68333 25.315624 216.41771Q25.315624 215.21458 24.64375 214.52708Q23.971874 213.82396 22.878124 213.82396Q22.190624 213.82396 21.64375 214.13646Q21.096874 214.44896 20.784374 214.93333L19.471874 214.76146L20.58125 208.88646L26.26875 208.88646L26.26875 210.23021L21.70625 210.23021L21.08125 213.30833Q22.1125 212.58958 23.253124 212.58958Q24.753124 212.58958 25.784374 213.63646Q26.815624 214.66771 26.815624 216.29271Q26.815624 217.85521 25.909374 218.98021Q24.8 220.38646 22.89375 220.38646Q21.33125 220.38646 20.346874 219.51146Q19.3625 218.62083 19.221874 217.18333ZM28.221874 214.52708Q28.221874 212.49583 28.628124 211.26146Q29.05 210.02708 29.878124 209.35521Q30.70625 208.68333 31.95625 208.68333Q32.878124 208.68333 33.565624 209.05833Q34.26875 209.41771 34.721874 210.12083Q35.175 210.82396 35.425 211.82396Q35.690624 212.82396 35.690624 214.52708Q35.690624 216.54271 35.26875 217.79271Q34.8625 219.02708 34.034374 219.71458Q33.20625 220.38646 31.95625 220.38646Q30.3 220.38646 29.346874 219.18333Q28.221874 217.76146 28.221874 214.52708ZM29.659374 214.52708Q29.659374 217.35521 30.315624 218.29271Q30.9875 219.21458 31.95625 219.21458Q32.925 219.21458 33.58125 218.27708Q34.2375 217.33958 34.2375 214.52708Q34.2375 211.69896 33.58125 210.77708Q32.925 209.83958 31.940624 209.83958Q30.971874 209.83958 30.39375 210.66771Q29.659374 211.71458 29.659374 214.52708ZM38.003124 220.18333L38.003124 218.57396L39.6125 218.57396L39.6125 220.18333L38.003124 220.18333ZM41.221874 214.52708Q41.221874 212.49583 41.628124 211.26146Q42.05 210.02708 42.878124 209.35521Q43.70625 208.68333 44.95625 208.68333Q45.878124 208.68333 46.565624 209.05833Q47.26875 209.41771 47.721874 210.12083Q48.175 210.82396 48.425 211.82396Q48.690624 212.82396 48.690624 214.52708Q48.690624 216.54271 48.26875 217.79271Q47.8625 219.02708 47.034374 219.71458Q46.20625 220.38646 44.95625 220.38646Q43.3 220.38646 42.346874 219.18333Q41.221874 217.76146 41.221874 214.52708ZM42.659374 214.52708Q42.659374 217.35521 43.315624 218.29271Q43.9875 219.21458 44.95625 219.21458Q45.925 219.21458 46.58125 218.27708Q47.2375 217.33958 47.2375 214.52708Q47.2375 211.69896 46.58125 210.77708Q45.925 209.83958 44.940624 209.83958Q43.971874 209.83958 43.39375 210.66771Q42.659374 211.71458 42.659374 214.52708ZM50.4875 211.48021Q50.4875 210.24583 51.096874 209.38646Q51.721874 208.52708 52.89375 208.52708Q53.971874 208.52708 54.675 209.30833Q55.378124 210.07396 55.378124 211.55833Q55.378124 213.01146 54.659374 213.80833Q53.95625 214.58958 52.909374 214.58958Q51.8625 214.58958 51.175 213.82396Q50.4875 213.04271 50.4875 211.48021ZM52.925 209.49583Q52.409374 209.49583 52.05 209.94896Q51.70625 210.40208 51.70625 211.62083Q51.70625 212.71458 52.05 213.16771Q52.409374 213.62083 52.925 213.62083Q53.45625 213.62083 53.8 213.16771Q54.159374 212.71458 54.159374 211.51146Q54.159374 210.40208 53.8 209.94896Q53.45625 209.49583 52.925 209.49583ZM52.940624 220.60521L59.20625 208.52708L60.346874 208.52708L54.096874 220.60521L52.940624 220.60521ZM57.89375 217.49583Q57.89375 216.26146 58.503124 215.40208Q59.128124 214.54271 60.3 214.54271Q61.378124 214.54271 62.08125 215.32396Q62.8 216.08958 62.8 217.57396Q62.8 219.02708 62.08125 219.82396Q61.3625 220.60521 60.315624 220.60521Q59.26875 220.60521 58.58125 219.82396Q57.89375 219.04271 57.89375 217.49583ZM60.346874 215.51146Q59.815624 215.51146 59.45625 215.96458Q59.1125 216.41771 59.1125 217.63646Q59.1125 218.73021 59.45625 219.18333Q59.815624 219.63646 60.33125 219.63646Q60.878124 219.63646 61.221874 219.18333Q61.565624 218.73021 61.565624 217.52708Q61.565624 216.41771 61.20625 215.96458Q60.8625 215.51146 60.346874 215.51146Z" fill-rule="nonzero"/><path stroke="#757575" stroke-width="1.0" stroke-linecap="butt" d="M18.55 203.68333L145.23334 203.68333L158.67166 203.68333" fill-rule="nonzero"/><path fill="#9e9e9e" d="M160.67166 203.68333C160.67166 202.57877 159.77623 201.68333 158.67166 201.68333C157.5671 201.68333 156.67166 202.57877 156.67166 203.68333C156.67166 204.7879 157.5671 205.68333 158.67166 205.68333C159.77623 205.68333 160.67166 204.7879 160.67166 203.68333" fill-rule="nonzero"/><path fill="#efefef" d="M491.66876 198.18333L491.66876 186.73021L493.23126 186.73021L499.2469 195.71458L499.2469 186.73021L500.7 186.73021L500.7 198.18333L499.1375 198.18333L493.1219 189.18333L493.1219 198.18333L491.66876 198.18333ZM508.91876 197.15208Q508.1375 197.82396 507.41876 198.10521Q506.7 198.37083 505.8719 198.37083Q504.4969 198.37083 503.7625 197.69896Q503.02814 197.02708 503.02814 195.99583Q503.02814 195.38646 503.3094 194.88646Q503.59064 194.37083 504.02814 194.07396Q504.48126 193.76146 505.04376 193.60521Q505.46564 193.49583 506.29376 193.40208Q507.9969 193.19896 508.8094 192.91771Q508.8094 192.62083 508.8094 192.54271Q508.8094 191.68333 508.41876 191.33958Q507.8719 190.85521 506.8094 190.85521Q505.825 190.85521 505.34064 191.21458Q504.8719 191.55833 504.65314 192.43333L503.27814 192.24583Q503.46564 191.37083 503.8875 190.82396Q504.325 190.27708 505.1375 189.99583Q505.95 189.69896 507.0125 189.69896Q508.075 189.69896 508.73126 189.94896Q509.40314 190.19896 509.71564 190.57396Q510.02814 190.94896 510.15314 191.52708Q510.23126 191.88646 510.23126 192.82396L510.23126 194.69896Q510.23126 196.66771 510.3094 197.18333Q510.40314 197.69896 510.66876 198.18333L509.2 198.18333Q508.98126 197.74583 508.91876 197.15208ZM508.8094 194.01146Q508.04376 194.32396 506.5125 194.54271Q505.6375 194.66771 505.27814 194.82396Q504.91876 194.98021 504.71564 195.29271Q504.52814 195.58958 504.52814 195.94896Q504.52814 196.51146 504.95 196.88646Q505.3875 197.26146 506.2 197.26146Q507.0125 197.26146 507.6375 196.91771Q508.27814 196.55833 508.575 195.93333Q508.8094 195.46458 508.8094 194.52708L508.8094 194.01146ZM515.575 196.91771L515.77814 198.16771Q515.1844 198.29271 514.71564 198.29271Q513.95 198.29271 513.52814 198.05833Q513.10626 197.80833 512.9344 197.41771Q512.7625 197.01146 512.7625 195.74583L512.7625 190.98021L511.73126 190.98021L511.73126 189.88646L512.7625 189.88646L512.7625 187.82396L514.16876 186.98021L514.16876 189.88646L515.575 189.88646L515.575 190.98021L514.16876 190.98021L514.16876 195.82396Q514.16876 196.43333 514.23126 196.60521Q514.3094 196.77708 514.48126 196.88646Q514.65314 196.98021 514.96564 196.98021Q515.2 196.98021 515.575 196.91771ZM521.95 198.18333L521.95 196.96458Q520.98126 198.37083 519.3094 198.37083Q518.575 198.37083 517.9344 198.08958Q517.3094 197.80833 516.9969 197.38646Q516.6844 196.94896 516.5594 196.33958Q516.48126 195.91771 516.48126 195.02708L516.48126 189.88646L517.8875 189.88646L517.8875 194.48021Q517.8875 195.58958 517.96564 195.96458Q518.10626 196.52708 518.52814 196.83958Q518.96564 197.15208 519.59064 197.15208Q520.23126 197.15208 520.77814 196.83958Q521.34064 196.51146 521.5594 195.94896Q521.79376 195.38646 521.79376 194.32396L521.79376 189.88646L523.2 189.88646L523.2 198.18333L521.95 198.18333ZM525.4969 198.18333L525.4969 189.88646L526.7625 189.88646L526.7625 191.13646Q527.2469 190.26146 527.65314 189.98021Q528.0594 189.69896 528.5594 189.69896Q529.2625 189.69896 529.9969 190.15208L529.5125 191.44896Q528.9969 191.15208 528.48126 191.15208Q528.02814 191.15208 527.65314 191.43333Q527.29376 191.69896 527.1375 192.19896Q526.90314 192.94896 526.90314 193.83958L526.90314 198.18333L525.4969 198.18333ZM536.1844 195.51146L537.6375 195.68333Q537.29376 196.96458 536.35626 197.66771Q535.4344 198.37083 533.9969 198.37083Q532.16876 198.37083 531.10626 197.24583Q530.04376 196.12083 530.04376 194.10521Q530.04376 192.01146 531.1219 190.85521Q532.2 189.69896 533.91876 189.69896Q535.575 189.69896 536.6219 190.83958Q537.6844 191.96458 537.6844 194.01146Q537.6844 194.13646 537.6844 194.38646L531.4969 194.38646Q531.575 195.76146 532.2625 196.49583Q532.96564 197.21458 533.9969 197.21458Q534.77814 197.21458 535.325 196.80833Q535.8719 196.40208 536.1844 195.51146ZM531.575 193.23021L536.2 193.23021Q536.10626 192.18333 535.66876 191.66771Q534.9969 190.85521 533.9344 190.85521Q532.96564 190.85521 532.29376 191.51146Q531.6375 192.15208 531.575 193.23021ZM538.95 195.69896L540.34064 195.48021Q540.45 196.32396 540.98126 196.77708Q541.52814 197.21458 542.48126 197.21458Q543.45 197.21458 543.91876 196.82396Q544.3875 196.41771 544.3875 195.88646Q544.3875 195.41771 543.98126 195.13646Q543.6844 194.94896 542.54376 194.66771Q540.9969 194.27708 540.3875 193.99583Q539.79376 193.69896 539.48126 193.19896Q539.1844 192.69896 539.1844 192.08958Q539.1844 191.52708 539.4344 191.05833Q539.6844 190.58958 540.1219 190.27708Q540.45 190.02708 541.0125 189.87083Q541.59064 189.69896 542.23126 189.69896Q543.21564 189.69896 543.95 189.98021Q544.6844 190.26146 545.02814 190.74583Q545.3875 191.21458 545.52814 192.02708L544.15314 192.21458Q544.0594 191.57396 543.60626 191.21458Q543.15314 190.85521 542.34064 190.85521Q541.3719 190.85521 540.95 191.18333Q540.54376 191.49583 540.54376 191.91771Q540.54376 192.19896 540.71564 192.41771Q540.8875 192.63646 541.2469 192.79271Q541.46564 192.87083 542.4969 193.15208Q543.98126 193.54271 544.575 193.80833Q545.16876 194.05833 545.4969 194.54271Q545.84064 195.02708 545.84064 195.74583Q545.84064 196.44896 545.41876 197.07396Q545.0125 197.68333 544.23126 198.02708Q543.46564 198.37083 542.4969 198.37083Q540.8719 198.37083 540.02814 197.69896Q539.1844 197.02708 538.95 195.69896ZM552.91876 195.13646L554.3094 195.32396Q554.075 196.74583 553.1375 197.55833Q552.21564 198.37083 550.85626 198.37083Q549.15314 198.37083 548.10626 197.26146Q547.075 196.13646 547.075 194.05833Q547.075 192.71458 547.5125 191.71458Q547.96564 190.69896 548.8719 190.19896Q549.79376 189.69896 550.85626 189.69896Q552.21564 189.69896 553.075 190.38646Q553.9344 191.05833 554.16876 192.32396L552.8094 192.52708Q552.60626 191.69896 552.10626 191.27708Q551.6219 190.85521 550.91876 190.85521Q549.85626 190.85521 549.1844 191.62083Q548.52814 192.37083 548.52814 194.02708Q548.52814 195.69896 549.16876 196.46458Q549.8094 197.21458 550.84064 197.21458Q551.66876 197.21458 552.21564 196.71458Q552.77814 196.19896 552.91876 195.13646ZM560.91876 197.15208Q560.1375 197.82396 559.41876 198.10521Q558.7 198.37083 557.8719 198.37083Q556.4969 198.37083 555.7625 197.69896Q555.02814 197.02708 555.02814 195.99583Q555.02814 195.38646 555.3094 194.88646Q555.59064 194.37083 556.02814 194.07396Q556.48126 193.76146 557.04376 193.60521Q557.46564 193.49583 558.29376 193.40208Q559.9969 193.19896 560.8094 192.91771Q560.8094 192.62083 560.8094 192.54271Q560.8094 191.68333 560.41876 191.33958Q559.8719 190.85521 558.8094 190.85521Q557.825 190.85521 557.34064 191.21458Q556.8719 191.55833 556.65314 192.43333L555.27814 192.24583Q555.46564 191.37083 555.8875 190.82396Q556.325 190.27708 557.1375 189.99583Q557.95 189.69896 559.0125 189.69896Q560.075 189.69896 560.73126 189.94896Q561.40314 190.19896 561.71564 190.57396Q562.02814 190.94896 562.15314 191.52708Q562.23126 191.88646 562.23126 192.82396L562.23126 194.69896Q562.23126 196.66771 562.3094 197.18333Q562.40314 197.69896 562.66876 198.18333L561.2 198.18333Q560.98126 197.74583 560.91876 197.15208ZM560.8094 194.01146Q560.04376 194.32396 558.5125 194.54271Q557.6375 194.66771 557.27814 194.82396Q556.91876 194.98021 556.71564 195.29271Q556.52814 195.58958 556.52814 195.94896Q556.52814 196.51146 556.95 196.88646Q557.3875 197.26146 558.2 197.26146Q559.0125 197.26146 559.6375 196.91771Q560.27814 196.55833 560.575 195.93333Q560.8094 195.46458 560.8094 194.52708L560.8094 194.01146ZM564.5125 201.37083L564.5125 189.88646L565.79376 189.88646L565.79376 190.96458Q566.2469 190.32396 566.8094 190.01146Q567.3875 189.69896 568.2 189.69896Q569.2625 189.69896 570.075 190.24583Q570.8875 190.79271 571.29376 191.79271Q571.71564 192.77708 571.71564 193.96458Q571.71564 195.24583 571.2469 196.26146Q570.79376 197.27708 569.91876 197.82396Q569.0594 198.37083 568.09064 198.37083Q567.3875 198.37083 566.825 198.07396Q566.27814 197.77708 565.91876 197.32396L565.91876 201.37083L564.5125 201.37083ZM565.77814 194.07396Q565.77814 195.68333 566.41876 196.44896Q567.075 197.21458 567.9969 197.21458Q568.9344 197.21458 569.60626 196.41771Q570.27814 195.62083 570.27814 193.96458Q570.27814 192.37083 569.6219 191.58958Q568.96564 190.79271 568.0594 190.79271Q567.16876 190.79271 566.46564 191.63646Q565.77814 192.48021 565.77814 194.07396ZM579.1844 195.51146L580.6375 195.68333Q580.29376 196.96458 579.35626 197.66771Q578.4344 198.37083 576.9969 198.37083Q575.16876 198.37083 574.10626 197.24583Q573.04376 196.12083 573.04376 194.10521Q573.04376 192.01146 574.1219 190.85521Q575.2 189.69896 576.91876 189.69896Q578.575 189.69896 579.6219 190.83958Q580.6844 191.96458 580.6844 194.01146Q580.6844 194.13646 580.6844 194.38646L574.4969 194.38646Q574.575 195.76146 575.2625 196.49583Q575.96564 197.21458 576.9969 197.21458Q577.77814 197.21458 578.325 196.80833Q578.8719 196.40208 579.1844 195.51146ZM574.575 193.23021L579.2 193.23021Q579.10626 192.18333 578.66876 191.66771Q577.9969 190.85521 576.9344 190.85521Q575.96564 190.85521 575.29376 191.51146Q574.6375 192.15208 574.575 193.23021Z" fill-rule="nonzero"/><path fill="#9e9e9e" d="M537.1219 217.18333L538.59064 217.05833Q538.7625 218.13646 539.35626 218.68333Q539.95 219.21458 540.79376 219.21458Q541.8094 219.21458 542.5125 218.44896Q543.21564 217.68333 543.21564 216.41771Q543.21564 215.21458 542.54376 214.52708Q541.8719 213.82396 540.77814 213.82396Q540.09064 213.82396 539.54376 214.13646Q538.9969 214.44896 538.6844 214.93333L537.3719 214.76146L538.48126 208.88646L544.16876 208.88646L544.16876 210.23021L539.60626 210.23021L538.98126 213.30833Q540.0125 212.58958 541.15314 212.58958Q542.65314 212.58958 543.6844 213.63646Q544.71564 214.66771 544.71564 216.29271Q544.71564 217.85521 543.8094 218.98021Q542.7 220.38646 540.79376 220.38646Q539.23126 220.38646 538.2469 219.51146Q537.2625 218.62083 537.1219 217.18333ZM546.1219 214.52708Q546.1219 212.49583 546.52814 211.26146Q546.95 210.02708 547.77814 209.35521Q548.60626 208.68333 549.85626 208.68333Q550.77814 208.68333 551.46564 209.05833Q552.16876 209.41771 552.6219 210.12083Q553.075 210.82396 553.325 211.82396Q553.59064 212.82396 553.59064 214.52708Q553.59064 216.54271 553.16876 217.79271Q552.7625 219.02708 551.9344 219.71458Q551.10626 220.38646 549.85626 220.38646Q548.2 220.38646 547.2469 219.18333Q546.1219 217.76146 546.1219 214.52708ZM547.5594 214.52708Q547.5594 217.35521 548.21564 218.29271Q548.8875 219.21458 549.85626 219.21458Q550.825 219.21458 551.48126 218.27708Q552.1375 217.33958 552.1375 214.52708Q552.1375 211.69896 551.48126 210.77708Q550.825 209.83958 549.84064 209.83958Q548.8719 209.83958 548.29376 210.66771Q547.5594 211.71458 547.5594 214.52708ZM555.90314 220.18333L555.90314 218.57396L557.5125 218.57396L557.5125 220.18333L555.90314 220.18333ZM559.1219 214.52708Q559.1219 212.49583 559.52814 211.26146Q559.95 210.02708 560.77814 209.35521Q561.60626 208.68333 562.85626 208.68333Q563.77814 208.68333 564.46564 209.05833Q565.16876 209.41771 565.6219 210.12083Q566.075 210.82396 566.325 211.82396Q566.59064 212.82396 566.59064 214.52708Q566.59064 216.54271 566.16876 217.79271Q565.7625 219.02708 564.9344 219.71458Q564.10626 220.38646 562.85626 220.38646Q561.2 220.38646 560.2469 219.18333Q559.1219 217.76146 559.1219 214.52708ZM560.5594 214.52708Q560.5594 217.35521 561.21564 218.29271Q561.8875 219.21458 562.85626 219.21458Q563.825 219.21458 564.48126 218.27708Q565.1375 217.33958 565.1375 214.52708Q565.1375 211.69896 564.48126 210.77708Q563.825 209.83958 562.84064 209.83958Q561.8719 209.83958 561.29376 210.66771Q560.5594 211.71458 560.5594 214.52708ZM568.3875 211.48021Q568.3875 210.24583 568.9969 209.38646Q569.6219 208.52708 570.79376 208.52708Q571.8719 208.52708 572.575 209.30833Q573.27814 210.07396 573.27814 211.55833Q573.27814 213.01146 572.5594 213.80833Q571.85626 214.58958 570.8094 214.58958Q569.7625 214.58958 569.075 213.82396Q568.3875 213.04271 568.3875 211.48021ZM570.825 209.49583Q570.3094 209.49583 569.95 209.94896Q569.60626 210.40208 569.60626 211.62083Q569.60626 212.71458 569.95 213.16771Q570.3094 213.62083 570.825 213.62083Q571.35626 213.62083 571.7 213.16771Q572.0594 212.71458 572.0594 211.51146Q572.0594 210.40208 571.7 209.94896Q571.35626 209.49583 570.825 209.49583ZM570.84064 220.60521L577.10626 208.52708L578.2469 208.52708L571.9969 220.60521L570.84064 220.60521ZM575.79376 217.49583Q575.79376 216.26146 576.40314 215.40208Q577.02814 214.54271 578.2 214.54271Q579.27814 214.54271 579.98126 215.32396Q580.7 216.08958 580.7 217.57396Q580.7 219.02708 579.98126 219.82396Q579.2625 220.60521 578.21564 220.60521Q577.16876 220.60521 576.48126 219.82396Q575.79376 219.04271 575.79376 217.49583ZM578.2469 215.51146Q577.71564 215.51146 577.35626 215.96458Q577.0125 216.41771 577.0125 217.63646Q577.0125 218.73021 577.35626 219.18333Q577.71564 219.63646 578.23126 219.63646Q578.77814 219.63646 579.1219 219.18333Q579.46564 218.73021 579.46564 217.52708Q579.46564 216.41771 579.10626 215.96458Q578.7625 215.51146 578.2469 215.51146Z" fill-rule="nonzero"/><path stroke="#757575" stroke-width="1.0" stroke-linecap="butt" d="M581.45 203.68333L454.76666 203.68333L441.32834 203.68333" fill-rule="nonzero"/><path fill="#9e9e9e" d="M443.32834 203.68333C443.32834 202.57877 442.4329 201.68333 441.32834 201.68333C440.22375 201.68333 439.32834 202.57877 439.32834 203.68333C439.32834 204.7879 440.22375 205.68333 441.32834 205.68333C442.4329 205.68333 443.32834 204.7879 443.32834 203.68333" fill-rule="nonzero"/><path fill="#f3f3f3" d="M265.98438 37.55L265.98438 23.2375L268.84375 23.2375L272.21875 33.3625Q272.6875 34.784374 272.90625 35.4875Q273.15625 34.70625 273.67188 33.190624L277.09375 23.2375L279.64062 23.2375L279.64062 37.55L277.82812 37.55L277.82812 25.565624L273.65625 37.55L271.95312 37.55L267.8125 25.3625L267.8125 37.55L265.98438 37.55ZM289.92188 34.20625L291.73438 34.440624Q291.3125 36.01875 290.14062 36.909374Q288.98438 37.784374 287.17188 37.784374Q284.90625 37.784374 283.5625 36.39375Q282.23438 34.9875 282.23438 32.45625Q282.23438 29.83125 283.57812 28.39375Q284.92188 26.940624 287.07812 26.940624Q289.15625 26.940624 290.46875 28.3625Q291.79688 29.76875 291.79688 32.346874Q291.79688 32.503124 291.78125 32.815624L284.04688 32.815624Q284.14062 34.51875 285.01562 35.425Q285.89062 36.33125 287.1875 36.33125Q288.15625 36.33125 288.82812 35.83125Q289.51562 35.315624 289.92188 34.20625ZM284.14062 31.3625L289.9375 31.3625Q289.82812 30.065624 289.28125 29.409374Q288.4375 28.39375 287.09375 28.39375Q285.89062 28.39375 285.0625 29.20625Q284.23438 30.003124 284.14062 31.3625ZM300.54688 37.55L300.54688 36.2375Q299.5625 37.784374 297.64062 37.784374Q296.40625 37.784374 295.35938 37.096874Q294.32812 36.409374 293.75 35.190624Q293.1875 33.971874 293.1875 32.378124Q293.1875 30.815624 293.70312 29.55Q294.21875 28.284374 295.25 27.6125Q296.29688 26.940624 297.5625 26.940624Q298.5 26.940624 299.23438 27.346874Q299.96875 27.7375 300.4375 28.3625L300.4375 23.2375L302.17188 23.2375L302.17188 37.55L300.54688 37.55ZM294.98438 32.378124Q294.98438 34.3625 295.82812 35.346874Q296.67188 36.33125 297.8125 36.33125Q298.96875 36.33125 299.76562 35.39375Q300.57812 34.45625 300.57812 32.51875Q300.57812 30.39375 299.75 29.39375Q298.9375 28.39375 297.73438 28.39375Q296.5625 28.39375 295.76562 29.3625Q294.98438 30.315624 294.98438 32.378124ZM304.82812 25.253124L304.82812 23.2375L306.59375 23.2375L306.59375 25.253124L304.82812 25.253124ZM304.82812 37.55L304.82812 27.175L306.59375 27.175L306.59375 37.55L304.82812 37.55ZM315.60938 37.55L315.60938 36.01875Q314.40625 37.784374 312.32812 37.784374Q311.40625 37.784374 310.60938 37.440624Q309.8125 37.08125 309.42188 36.55Q309.04688 36.01875 308.89062 35.2375Q308.78125 34.721874 308.78125 33.596874L308.78125 27.175L310.53125 27.175L310.53125 32.925Q310.53125 34.3 310.64062 34.784374Q310.8125 35.471874 311.34375 35.878124Q311.89062 36.26875 312.67188 36.26875Q313.46875 36.26875 314.15625 35.8625Q314.85938 35.45625 315.14062 34.76875Q315.4375 34.065624 315.4375 32.7375L315.4375 27.175L317.1875 27.175L317.1875 37.55L315.60938 37.55ZM319.8125 37.55L319.8125 27.175L321.39062 27.175L321.39062 28.628124Q321.875 27.878124 322.6875 27.409374Q323.5 26.940624 324.53125 26.940624Q325.6875 26.940624 326.42188 27.425Q327.15625 27.89375 327.46875 28.753124Q328.70312 26.940624 330.67188 26.940624Q332.21875 26.940624 333.04688 27.8Q333.875 28.659374 333.875 30.425L333.875 37.55L332.125 37.55L332.125 31.01875Q332.125 29.95625 331.95312 29.503124Q331.78125 29.034374 331.32812 28.753124Q330.89062 28.471874 330.28125 28.471874Q329.1875 28.471874 328.45312 29.20625Q327.73438 29.925 327.73438 31.51875L327.73438 37.55L325.98438 37.55L325.98438 30.815624Q325.98438 29.64375 325.54688 29.065624Q325.125 28.471874 324.14062 28.471874Q323.40625 28.471874 322.76562 28.8625Q322.14062 29.253124 321.85938 30.003124Q321.57812 30.753124 321.57812 32.175L321.57812 37.55L319.8125 37.55Z" fill-rule="nonzero"/></svg>