<svg version="1.1" viewBox="0.0 0.0 600.0 371.0" fill="none" stroke="none" stroke-linecap="square" stroke-miterlimit="10" width="600" height="371" xmlns:xlink="http://www.w3.org/1999/xlink" xmlns="http://www.w3.org/2000/svg"><path fill="#ffffff" fill-opacity="0.0" d="M0 0L600.0 0L600.0 371.0L0 371.0L0 0Z" fill-rule="nonzero"/><path fill="#2d4d98" d="M171.16429 129.3C197.73889 83.27143 246.85078 54.916668 300.0 54.916668L300.0 129.3C273.42538 129.3 248.86945 143.47739 235.58214 166.49167Z" fill-rule="nonzero"/><path fill="#4571b0" d="M225.61667 332.51904C154.46266 291.43826 130.08351 200.454 171.16429 129.3L235.58214 166.49167C215.04175 202.06866 227.23134 247.5608 262.80832 268.1012Z" fill-rule="nonzero"/><path fill="#b3ca48" d="M261.49637 347.3809C248.93845 344.01602 236.87578 339.0195 225.61667 332.51904L262.80832 268.1012C268.4379 271.3514 274.4692 273.84967 280.74817 275.5321Z" fill-rule="nonzero"/><path fill="#f7d750" d="M300.0 54.916668C357.81537 54.916668 410.39456 88.4133 434.8284 140.81183C459.2622 193.21034 451.12488 255.01956 413.96188 299.30872C376.79886 343.59784 317.3417 362.3446 261.49637 347.3809L280.74817 275.5321C308.67087 283.01398 338.39944 273.6406 356.98093 251.49602C375.56244 229.35144 379.6311 198.44684 367.41418 172.24757C355.19727 146.04832 328.90768 129.3 300.0 129.3Z" fill-rule="nonzero"/><path fill="#ffffff" d="M385.87045 221.3718L387.5267 221.23117Q387.7142 222.44992 388.38608 223.0593Q389.05795 223.66867 390.01108 223.66867Q391.1517 223.66867 391.93295 222.8093Q392.72983 221.94992 392.72983 220.51242Q392.72983 219.16867 391.9642 218.38742Q391.2142 217.60617 389.97983 217.60617Q389.2142 217.60617 388.5892 217.94992Q387.97983 218.29367 387.63608 218.85617L386.1517 218.65305L387.4017 212.04367L393.80795 212.04367L393.80795 213.54367L388.66733 213.54367L387.9642 217.01242Q389.13608 216.19992 390.4017 216.19992Q392.0892 216.19992 393.24545 217.3718Q394.41733 218.54367 394.41733 220.3718Q394.41733 222.1218 393.38608 223.40305Q392.1517 224.96555 390.01108 224.96555Q388.24545 224.96555 387.13608 223.98117Q386.0267 222.9968 385.87045 221.3718ZM400.93295 224.7468L400.93295 221.66867L395.35483 221.66867L395.35483 220.21555L401.22983 211.85617L402.5267 211.85617L402.5267 220.21555L404.26108 220.21555L404.26108 221.66867L402.5267 221.66867L402.5267 224.7468L400.93295 224.7468ZM400.93295 220.21555L400.93295 214.40305L396.9017 220.21555L400.93295 220.21555ZM406.76108 224.7468L406.76108 222.94992L408.55795 222.94992L408.55795 224.7468L406.76108 224.7468ZM419.18295 223.23117L419.18295 224.7468L410.66733 224.7468Q410.6517 224.16867 410.85483 223.65305Q411.18295 222.77805 411.88608 221.9343Q412.60483 221.09055 413.9642 219.98117Q416.05795 218.26242 416.79233 217.26242Q417.54233 216.2468 417.54233 215.35617Q417.54233 214.40305 416.87045 213.76242Q416.19858 213.1218 415.12045 213.1218Q413.9642 213.1218 413.2767 213.8093Q412.60483 214.4968 412.5892 215.69992L410.9642 215.52805Q411.13608 213.71555 412.2142 212.76242Q413.30795 211.8093 415.1517 211.8093Q416.99545 211.8093 418.07358 212.84055Q419.16733 213.8718 419.16733 215.38742Q419.16733 216.15305 418.8392 216.90305Q418.5267 217.65305 417.79233 218.48117Q417.05795 219.3093 415.35483 220.7468Q413.93295 221.94992 413.5267 222.3718Q413.12045 222.79367 412.87045 223.23117L419.18295 223.23117ZM421.16733 214.94992Q421.16733 213.57492 421.85483 212.60617Q422.55795 211.63742 423.87045 211.63742Q425.0892 211.63742 425.88608 212.51242Q426.68295 213.3718 426.68295 215.0593Q426.68295 216.6843 425.87045 217.57492Q425.07358 218.44992 423.88608 218.44992Q422.72983 218.44992 421.94858 217.59055Q421.16733 216.71555 421.16733 214.94992ZM423.91733 212.73117Q423.32358 212.73117 422.93295 213.2468Q422.54233 213.7468 422.54233 215.10617Q422.54233 216.35617 422.93295 216.85617Q423.3392 217.35617 423.91733 217.35617Q424.51108 217.35617 424.9017 216.85617Q425.29233 216.34055 425.29233 214.9968Q425.29233 213.7468 424.9017 213.2468Q424.51108 212.73117 423.91733 212.73117ZM423.93295 225.21555L430.97983 211.63742L432.26108 211.63742L425.22983 225.21555L423.93295 225.21555ZM429.49545 221.71555Q429.49545 220.34055 430.18295 219.3718Q430.88608 218.40305 432.2142 218.40305Q433.43295 218.40305 434.2142 219.27805Q435.01108 220.13742 435.01108 221.82492Q435.01108 223.44992 434.2142 224.34055Q433.41733 225.21555 432.22983 225.21555Q431.05795 225.21555 430.2767 224.34055Q429.49545 223.46555 429.49545 221.71555ZM432.26108 219.4968Q431.66733 219.4968 431.2767 220.01242Q430.88608 220.51242 430.88608 221.88742Q430.88608 223.10617 431.2767 223.6218Q431.66733 224.13742 432.24545 224.13742Q432.85483 224.13742 433.24545 223.6218Q433.63608 223.10617 433.63608 221.76242Q433.63608 220.51242 433.24545 220.01242Q432.85483 219.4968 432.26108 219.4968Z" fill-rule="nonzero"/><path fill="#ffffff" d="M175.78932 237.54544L175.78932 239.06107L167.2737 239.06107Q167.25807 238.48294 167.4612 237.96732Q167.78932 237.09232 168.49245 236.24857Q169.2112 235.40482 170.57057 234.29544Q172.66432 232.57669 173.3987 231.57669Q174.1487 230.56107 174.1487 229.67044Q174.1487 228.71732 173.47682 228.07669Q172.80495 227.43607 171.72682 227.43607Q170.57057 227.43607 169.88307 228.12357Q169.2112 228.81107 169.19557 230.01419L167.57057 229.84232Q167.74245 228.02982 168.82057 227.07669Q169.91432 226.12357 171.75807 226.12357Q173.60182 226.12357 174.67995 227.15482Q175.7737 228.18607 175.7737 229.70169Q175.7737 230.46732 175.44557 231.21732Q175.13307 231.96732 174.3987 232.79544Q173.66432 233.62357 171.9612 235.06107Q170.53932 236.26419 170.13307 236.68607Q169.72682 237.10794 169.47682 237.54544L175.78932 237.54544ZM177.47682 235.68607L179.13307 235.54544Q179.32057 236.76419 179.99245 237.37357Q180.66432 237.98294 181.61745 237.98294Q182.75807 237.98294 183.53932 237.12357Q184.3362 236.26419 184.3362 234.82669Q184.3362 233.48294 183.57057 232.70169Q182.82057 231.92044 181.5862 231.92044Q180.82057 231.92044 180.19557 232.26419Q179.5862 232.60794 179.24245 233.17044L177.75807 232.96732L179.00807 226.35794L185.41432 226.35794L185.41432 227.85794L180.2737 227.85794L179.57057 231.32669Q180.74245 230.51419 182.00807 230.51419Q183.69557 230.51419 184.85182 231.68607Q186.0237 232.85794 186.0237 234.68607Q186.0237 236.43607 184.99245 237.71732Q183.75807 239.27982 181.61745 239.27982Q179.85182 239.27982 178.74245 238.29544Q177.63307 237.31107 177.47682 235.68607ZM188.36745 239.06107L188.36745 237.26419L190.16432 237.26419L190.16432 239.06107L188.36745 239.06107ZM192.47682 232.70169Q192.47682 230.42044 192.94557 229.02982Q193.41432 227.63919 194.3362 226.88919Q195.2737 226.12357 196.67995 226.12357Q197.7112 226.12357 198.49245 226.54544Q199.2737 226.95169 199.7737 227.74857Q200.28932 228.52982 200.5862 229.67044Q200.88307 230.79544 200.88307 232.70169Q200.88307 234.96732 200.41432 236.37357Q199.94557 237.76419 199.00807 238.52982Q198.0862 239.27982 196.67995 239.27982Q194.80495 239.27982 193.74245 237.95169Q192.47682 236.34232 192.47682 232.70169ZM194.10182 232.70169Q194.10182 235.87357 194.8362 236.93607Q195.5862 237.98294 196.67995 237.98294Q197.75807 237.98294 198.50807 236.93607Q199.25807 235.87357 199.25807 232.70169Q199.25807 229.52982 198.50807 228.48294Q197.75807 227.43607 196.66432 227.43607Q195.57057 227.43607 194.91432 228.35794Q194.10182 229.52982 194.10182 232.70169ZM202.7737 229.26419Q202.7737 227.88919 203.4612 226.92044Q204.16432 225.95169 205.47682 225.95169Q206.69557 225.95169 207.49245 226.82669Q208.28932 227.68607 208.28932 229.37357Q208.28932 230.99857 207.47682 231.88919Q206.67995 232.76419 205.49245 232.76419Q204.3362 232.76419 203.55495 231.90482Q202.7737 231.02982 202.7737 229.26419ZM205.5237 227.04544Q204.92995 227.04544 204.53932 227.56107Q204.1487 228.06107 204.1487 229.42044Q204.1487 230.67044 204.53932 231.17044Q204.94557 231.67044 205.5237 231.67044Q206.11745 231.67044 206.50807 231.17044Q206.8987 230.65482 206.8987 229.31107Q206.8987 228.06107 206.50807 227.56107Q206.11745 227.04544 205.5237 227.04544ZM205.53932 239.52982L212.5862 225.95169L213.86745 225.95169L206.8362 239.52982L205.53932 239.52982ZM211.10182 236.02982Q211.10182 234.65482 211.78932 233.68607Q212.49245 232.71732 213.82057 232.71732Q215.03932 232.71732 215.82057 233.59232Q216.61745 234.45169 216.61745 236.13919Q216.61745 237.76419 215.82057 238.65482Q215.0237 239.52982 213.8362 239.52982Q212.66432 239.52982 211.88307 238.65482Q211.10182 237.77982 211.10182 236.02982ZM213.86745 233.81107Q213.2737 233.81107 212.88307 234.32669Q212.49245 234.82669 212.49245 236.20169Q212.49245 237.42044 212.88307 237.93607Q213.2737 238.45169 213.85182 238.45169Q214.4612 238.45169 214.85182 237.93607Q215.24245 237.42044 215.24245 236.07669Q215.24245 234.82669 214.85182 234.32669Q214.4612 233.81107 213.86745 233.81107Z" fill-rule="nonzero"/><path fill="#ffffff" d="M225.41562 113.55655L223.8375 113.55655L223.8375 103.478424Q223.25937 104.0253 222.3375 104.572174Q221.41562 105.103424 220.66562 105.384674L220.66562 103.853424Q221.99374 103.228424 222.99374 102.3378Q223.99374 101.447174 224.4 100.61905L225.41562 100.61905L225.41562 113.55655ZM237.66562 103.822174L236.10312 103.947174Q235.88437 103.0253 235.49374 102.603424Q234.85312 101.915924 233.91562 101.915924Q233.16562 101.915924 232.5875 102.3378Q231.8375 102.884674 231.4 103.93155Q230.97812 104.978424 230.9625 106.915924Q231.54062 106.040924 232.35312 105.61905Q233.18124 105.197174 234.0875 105.197174Q235.68124 105.197174 236.79062 106.36905Q237.9 107.5253 237.9 109.36905Q237.9 110.5878 237.36874 111.634674Q236.85312 112.665924 235.93124 113.228424Q235.025 113.7753 233.86874 113.7753Q231.88437 113.7753 230.63437 112.322174Q229.38437 110.86905 229.38437 107.5253Q229.38437 103.790924 230.775 102.0878Q231.97812 100.61905 234.00937 100.61905Q235.54062 100.61905 236.50937 101.478424Q237.47812 102.322174 237.66562 103.822174ZM231.2125 109.384674Q231.2125 110.197174 231.55624 110.947174Q231.9 111.697174 232.525 112.0878Q233.15 112.478424 233.8375 112.478424Q234.8375 112.478424 235.55624 111.665924Q236.275 110.853424 236.275 109.4628Q236.275 108.134674 235.55624 107.36905Q234.85312 106.5878 233.775 106.5878Q232.69687 106.5878 231.94687 107.36905Q231.2125 108.134674 231.2125 109.384674ZM240.35312 113.55655L240.35312 111.759674L242.15 111.759674L242.15 113.55655L240.35312 113.55655ZM244.57187 102.353424L244.57187 100.8378L252.9 100.8378L252.9 102.072174Q251.68124 103.384674 250.4625 105.55655Q249.25937 107.7128 248.60312 110.009674Q248.11874 111.634674 247.99374 113.55655L246.36874 113.55655Q246.4 112.040924 246.9625 109.884674Q247.54062 107.728424 248.60312 105.728424Q249.66562 103.728424 250.86874 102.353424L244.57187 102.353424ZM254.75937 103.759674Q254.75937 102.384674 255.44687 101.415924Q256.15 100.447174 257.4625 100.447174Q258.68124 100.447174 259.47812 101.322174Q260.275 102.18155 260.275 103.86905Q260.275 105.49405 259.4625 106.384674Q258.66562 107.259674 257.47812 107.259674Q256.32187 107.259674 255.54062 106.4003Q254.75937 105.5253 254.75937 103.759674ZM257.50937 101.540924Q256.91562 101.540924 256.525 102.05655Q256.13437 102.55655 256.13437 103.915924Q256.13437 105.165924 256.525 105.665924Q256.93124 106.165924 257.50937 106.165924Q258.10312 106.165924 258.49374 105.665924Q258.88437 105.1503 258.88437 103.80655Q258.88437 102.55655 258.49374 102.05655Q258.10312 101.540924 257.50937 101.540924ZM257.525 114.0253L264.57187 100.447174L265.85312 100.447174L258.82187 114.0253L257.525 114.0253ZM263.0875 110.5253Q263.0875 109.1503 263.775 108.18155Q264.47812 107.2128 265.80624 107.2128Q267.025 107.2128 267.80624 108.0878Q268.60312 108.947174 268.60312 110.634674Q268.60312 112.259674 267.80624 113.1503Q267.00937 114.0253 265.82187 114.0253Q264.65 114.0253 263.86874 113.1503Q263.0875 112.2753 263.0875 110.5253ZM265.85312 108.30655Q265.25937 108.30655 264.86874 108.822174Q264.47812 109.322174 264.47812 110.697174Q264.47812 111.915924 264.86874 112.43155Q265.25937 112.947174 265.8375 112.947174Q266.44687 112.947174 266.8375 112.43155Q267.22812 111.915924 267.22812 110.572174Q267.22812 109.322174 266.8375 108.822174Q266.44687 108.30655 265.85312 108.30655Z" fill-rule="nonzero"/><path stroke="#ffffff" stroke-width="1.0" stroke-linejoin="round" stroke-linecap="round" d="M280.74817 275.5321C308.67087 283.01398 338.39944 273.6406 356.98093 251.49602C375.56244 229.35144 379.6311 198.44684 367.41418 172.24757C355.19727 146.04832 328.90768 129.3 300.0 129.3L300.0 54.916668C357.81537 54.916668 410.39456 88.4133 434.8284 140.81183C459.2622 193.21034 451.12488 255.01956 413.96188 299.30872C376.79886 343.59784 317.3417 362.3446 261.49637 347.3809" fill-rule="nonzero"/><path stroke="#ffffff" stroke-width="1.0" stroke-linejoin="round" stroke-linecap="round" d="M262.80832 268.1012C268.4379 271.3514 274.4692 273.84967 280.74817 275.5321L261.49637 347.3809C248.93845 344.01602 236.87578 339.0195 225.61667 332.51904" fill-rule="nonzero"/><path stroke="#ffffff" stroke-width="1.0" stroke-linejoin="round" stroke-linecap="round" d="M235.58214 166.49167C215.04175 202.06866 227.23134 247.5608 262.80832 268.1012L225.61667 332.51904C154.46266 291.43826 130.08351 200.454 171.16429 129.3" fill-rule="nonzero"/><path stroke="#ffffff" stroke-width="1.0" stroke-linejoin="round" stroke-linecap="round" d="M300.0 129.3C273.42538 129.3 248.86945 143.47739 235.58214 166.49167L171.16429 129.3C197.73889 83.27143 246.85078 54.916668 300.0 54.916668" fill-rule="nonzero"/><path fill="#efefef" d="M19.784374 75.789406L19.784374 64.33628L23.7375 64.33628Q25.065624 64.33628 25.76875 64.49253Q26.753124 64.726906 27.45625 65.320656Q28.3625 66.08628 28.8 67.27378Q29.253124 68.46128 29.253124 69.99253Q29.253124 71.30503 28.940624 72.320656Q28.64375 73.320656 28.159374 73.976906Q27.690624 74.633156 27.128124 75.02378Q26.565624 75.39878 25.753124 75.601906Q24.95625 75.789406 23.925 75.789406L19.784374 75.789406ZM21.3 74.43003L23.753124 74.43003Q24.878124 74.43003 25.51875 74.226906Q26.175 74.008156 26.55 73.633156Q27.096874 73.08628 27.39375 72.18003Q27.690624 71.27378 27.690624 69.976906Q27.690624 68.18003 27.096874 67.21128Q26.51875 66.24253 25.675 65.914406Q25.065624 65.68003 23.70625 65.68003L21.3 65.68003L21.3 74.43003ZM31.6125 65.945656L31.6125 64.33628L33.01875 64.33628L33.01875 65.945656L31.6125 65.945656ZM31.6125 75.789406L31.6125 67.49253L33.01875 67.49253L33.01875 75.789406L31.6125 75.789406ZM35.6125 78.976906L35.6125 67.49253L36.89375 67.49253L36.89375 68.570656Q37.346874 67.93003 37.909374 67.61753Q38.4875 67.30503 39.3 67.30503Q40.3625 67.30503 41.175 67.851906Q41.9875 68.39878 42.39375 69.39878Q42.815624 70.383156 42.815624 71.570656Q42.815624 72.851906 42.346874 73.86753Q41.89375 74.883156 41.01875 75.43003Q40.159374 75.976906 39.190624 75.976906Q38.4875 75.976906 37.925 75.68003Q37.378124 75.383156 37.01875 74.93003L37.01875 78.976906L35.6125 78.976906ZM36.878124 71.68003Q36.878124 73.289406 37.51875 74.05503Q38.175 74.820656 39.096874 74.820656Q40.034374 74.820656 40.70625 74.02378Q41.378124 73.226906 41.378124 71.570656Q41.378124 69.976906 40.721874 69.195656Q40.065624 68.39878 39.159374 68.39878Q38.26875 68.39878 37.565624 69.24253Q36.878124 70.08628 36.878124 71.68003ZM44.58125 75.789406L44.58125 64.33628L45.9875 64.33628L45.9875 75.789406L44.58125 75.789406ZM48.08125 71.633156Q48.08125 69.33628 49.3625 68.226906Q50.440624 67.30503 51.971874 67.30503Q53.690624 67.30503 54.76875 68.43003Q55.8625 69.539406 55.8625 71.52378Q55.8625 73.11753 55.378124 74.039406Q54.89375 74.96128 53.971874 75.476906Q53.065624 75.976906 51.971874 75.976906Q50.2375 75.976906 49.159374 74.86753Q48.08125 73.74253 48.08125 71.633156ZM49.534374 71.633156Q49.534374 73.226906 50.221874 74.02378Q50.925 74.820656 51.971874 74.820656Q53.01875 74.820656 53.70625 74.02378Q54.409374 73.226906 54.409374 71.58628Q54.409374 70.05503 53.70625 69.258156Q53.01875 68.46128 51.971874 68.46128Q50.925 68.46128 50.221874 69.258156Q49.534374 70.039406 49.534374 71.633156ZM57.6125 75.789406L57.6125 67.49253L58.8625 67.49253L58.8625 68.64878Q59.253124 68.039406 59.89375 67.68003Q60.55 67.30503 61.378124 67.30503Q62.3 67.30503 62.89375 67.695656Q63.4875 68.070656 63.721874 68.758156Q64.70625 67.30503 66.28438 67.30503Q67.51875 67.30503 68.175 67.99253Q68.84688 68.664406 68.84688 70.08628L68.84688 75.789406L67.45625 75.789406L67.45625 70.55503Q67.45625 69.71128 67.31563 69.351906Q67.175 68.976906 66.81563 68.758156Q66.45625 68.52378 65.97188 68.52378Q65.09688 68.52378 64.51875 69.101906Q63.940624 69.68003 63.940624 70.96128L63.940624 75.789406L62.534374 75.789406L62.534374 70.39878Q62.534374 69.46128 62.190624 68.99253Q61.846874 68.52378 61.065624 68.52378Q60.471874 68.52378 59.971874 68.83628Q59.471874 69.14878 59.2375 69.758156Q59.01875 70.351906 59.01875 71.476906L59.01875 75.789406L57.6125 75.789406ZM76.01875 74.758156Q75.2375 75.43003 74.51875 75.71128Q73.8 75.976906 72.97188 75.976906Q71.59688 75.976906 70.8625 75.30503Q70.12813 74.633156 70.12813 73.601906Q70.12813 72.99253 70.40938 72.49253Q70.69063 71.976906 71.12813 71.68003Q71.58125 71.36753 72.14375 71.21128Q72.56563 71.101906 73.39375 71.008156Q75.09688 70.80503 75.90938 70.52378Q75.90938 70.226906 75.90938 70.14878Q75.90938 69.289406 75.51875 68.945656Q74.97188 68.46128 73.90938 68.46128Q72.925 68.46128 72.44063 68.820656Q71.97188 69.164406 71.75313 70.039406L70.37813 69.851906Q70.56563 68.976906 70.9875 68.43003Q71.425 67.883156 72.2375 67.601906Q73.05 67.30503 74.1125 67.30503Q75.175 67.30503 75.83125 67.55503Q76.50313 67.80503 76.81563 68.18003Q77.12813 68.55503 77.25313 69.133156Q77.33125 69.49253 77.33125 70.43003L77.33125 72.30503Q77.33125 74.27378 77.40938 74.789406Q77.50313 75.30503 77.76875 75.789406L76.3 75.789406Q76.08125 75.351906 76.01875 74.758156ZM75.90938 71.61753Q75.14375 71.93003 73.6125 72.14878Q72.7375 72.27378 72.37813 72.43003Q72.01875 72.58628 71.81563 72.89878Q71.62813 73.195656 71.62813 73.55503Q71.62813 74.11753 72.05 74.49253Q72.4875 74.86753 73.3 74.86753Q74.1125 74.86753 74.7375 74.52378Q75.37813 74.164406 75.675 73.539406Q75.90938 73.070656 75.90938 72.133156L75.90938 71.61753ZM82.675 74.52378L82.87813 75.77378Q82.28438 75.89878 81.81563 75.89878Q81.05 75.89878 80.62813 75.664406Q80.20625 75.414406 80.03438 75.02378Q79.8625 74.61753 79.8625 73.351906L79.8625 68.58628L78.83125 68.58628L78.83125 67.49253L79.8625 67.49253L79.8625 65.43003L81.26875 64.58628L81.26875 67.49253L82.675 67.49253L82.675 68.58628L81.26875 68.58628L81.26875 73.43003Q81.26875 74.039406 81.33125 74.21128Q81.40938 74.383156 81.58125 74.49253Q81.75313 74.58628 82.06563 74.58628Q82.3 74.58628 82.675 74.52378ZM83.6125 65.945656L83.6125 64.33628L85.01875 64.33628L85.01875 65.945656L83.6125 65.945656ZM83.6125 75.789406L83.6125 67.49253L85.01875 67.49253L85.01875 75.789406L83.6125 75.789406ZM93.01875 72.74253L94.40938 72.93003Q94.175 74.351906 93.2375 75.164406Q92.31563 75.976906 90.95625 75.976906Q89.25313 75.976906 88.20625 74.86753Q87.175 73.74253 87.175 71.664406Q87.175 70.320656 87.6125 69.320656Q88.06563 68.30503 88.97188 67.80503Q89.89375 67.30503 90.95625 67.30503Q92.31563 67.30503 93.175 67.99253Q94.03438 68.664406 94.26875 69.93003L92.90938 70.133156Q92.70625 69.30503 92.20625 68.883156Q91.72188 68.46128 91.01875 68.46128Q89.95625 68.46128 89.28438 69.226906Q88.62813 69.976906 88.62813 71.633156Q88.62813 73.30503 89.26875 74.070656Q89.90938 74.820656 90.94063 74.820656Q91.76875 74.820656 92.31563 74.320656Q92.87813 73.80503 93.01875 72.74253Z" fill-rule="nonzero"/><path fill="#9e9e9e" d="M24.51875 97.789406L23.1125 97.789406L23.1125 88.820656Q22.596874 89.30503 21.76875 89.789406Q20.95625 90.27378 20.3 90.52378L20.3 89.164406Q21.471874 88.601906 22.346874 87.820656Q23.2375 87.02378 23.6125 86.289406L24.51875 86.289406L24.51875 97.789406ZM35.51875 89.133156L34.1125 89.24253Q33.925 88.414406 33.58125 88.039406Q33.01875 87.445656 32.175 87.445656Q31.503124 87.445656 31.003124 87.820656Q30.33125 88.30503 29.940624 89.24253Q29.565624 90.164406 29.55 91.883156Q30.065624 91.101906 30.8 90.726906Q31.534374 90.351906 32.33125 90.351906Q33.7375 90.351906 34.721874 91.39878Q35.721874 92.43003 35.721874 94.070656Q35.721874 95.14878 35.253124 96.070656Q34.784374 96.99253 33.971874 97.49253Q33.159374 97.99253 32.128124 97.99253Q30.378124 97.99253 29.26875 96.695656Q28.159374 95.39878 28.159374 92.43003Q28.159374 89.101906 29.378124 87.601906Q30.45625 86.289406 32.26875 86.289406Q33.6125 86.289406 34.471874 87.05503Q35.346874 87.80503 35.51875 89.133156ZM29.76875 94.070656Q29.76875 94.80503 30.08125 95.476906Q30.39375 96.133156 30.940624 96.476906Q31.503124 96.820656 32.1125 96.820656Q33.003124 96.820656 33.64375 96.101906Q34.284374 95.383156 34.284374 94.14878Q34.284374 92.96128 33.64375 92.289406Q33.01875 91.601906 32.05 91.601906Q31.096874 91.601906 30.425 92.289406Q29.76875 92.96128 29.76875 94.070656ZM38.003124 97.789406L38.003124 96.18003L39.6125 96.18003L39.6125 97.789406L38.003124 97.789406ZM41.315624 87.83628L41.315624 86.476906L48.721874 86.476906L48.721874 87.570656Q47.628124 88.74253 46.55 90.68003Q45.4875 92.601906 44.89375 94.633156Q44.471874 96.070656 44.3625 97.789406L42.909374 97.789406Q42.940624 96.43003 43.440624 94.52378Q43.95625 92.601906 44.89375 90.83628Q45.846874 89.05503 46.925 87.83628L41.315624 87.83628ZM50.4875 89.08628Q50.4875 87.851906 51.096874 86.99253Q51.721874 86.133156 52.89375 86.133156Q53.971874 86.133156 54.675 86.914406Q55.378124 87.68003 55.378124 89.164406Q55.378124 90.61753 54.659374 91.414406Q53.95625 92.195656 52.909374 92.195656Q51.8625 92.195656 51.175 91.43003Q50.4875 90.64878 50.4875 89.08628ZM52.925 87.101906Q52.409374 87.101906 52.05 87.55503Q51.70625 88.008156 51.70625 89.226906Q51.70625 90.320656 52.05 90.77378Q52.409374 91.226906 52.925 91.226906Q53.45625 91.226906 53.8 90.77378Q54.159374 90.320656 54.159374 89.11753Q54.159374 88.008156 53.8 87.55503Q53.45625 87.101906 52.925 87.101906ZM52.940624 98.21128L59.20625 86.133156L60.346874 86.133156L54.096874 98.21128L52.940624 98.21128ZM57.89375 95.101906Q57.89375 93.86753 58.503124 93.008156Q59.128124 92.14878 60.3 92.14878Q61.378124 92.14878 62.08125 92.93003Q62.8 93.695656 62.8 95.18003Q62.8 96.633156 62.08125 97.43003Q61.3625 98.21128 60.315624 98.21128Q59.26875 98.21128 58.58125 97.43003Q57.89375 96.64878 57.89375 95.101906ZM60.346874 93.11753Q59.815624 93.11753 59.45625 93.570656Q59.1125 94.02378 59.1125 95.24253Q59.1125 96.33628 59.45625 96.789406Q59.815624 97.24253 60.33125 97.24253Q60.878124 97.24253 61.221874 96.789406Q61.565624 96.33628 61.565624 95.133156Q61.565624 94.02378 61.20625 93.570656Q60.8625 93.11753 60.346874 93.11753Z" fill-rule="nonzero"/><path stroke="#757575" stroke-width="1.0" stroke-linecap="butt" d="M18.55 81.289406L145.23334 81.289406L229.33583 81.289406" fill-rule="nonzero"/><path fill="#9e9e9e" d="M231.33583 81.289406C231.33583 80.18484 230.4404 79.289406 229.33583 79.289406C228.23126 79.289406 227.33583 80.18484 227.33583 81.289406C227.33583 82.393974 228.23126 83.289406 229.33583 83.289406C230.4404 83.289406 231.33583 82.393974 231.33583 81.289406" fill-rule="nonzero"/><path fill="#efefef" d="M19.7375 234.7618L19.7375 223.30867L22.01875 223.30867L24.7375 231.41805Q25.1125 232.54305 25.284374 233.10555Q25.471874 232.48055 25.89375 231.27742L28.628124 223.30867L30.675 223.30867L30.675 234.7618L29.20625 234.7618L29.20625 225.16805L25.878124 234.7618L24.51875 234.7618L21.20625 225.0118L21.20625 234.7618L19.7375 234.7618ZM32.6125 224.91805L32.6125 223.30867L34.01875 223.30867L34.01875 224.91805L32.6125 224.91805ZM32.6125 234.7618L32.6125 226.46492L34.01875 226.46492L34.01875 234.7618L32.6125 234.7618ZM36.58125 234.7618L36.58125 223.30867L37.9875 223.30867L37.9875 234.7618L36.58125 234.7618ZM40.6125 224.91805L40.6125 223.30867L42.01875 223.30867L42.01875 224.91805L40.6125 224.91805ZM40.6125 234.7618L40.6125 226.46492L42.01875 226.46492L42.01875 234.7618L40.6125 234.7618ZM47.675 233.49617L47.878124 234.74617Q47.284374 234.87117 46.815624 234.87117Q46.05 234.87117 45.628124 234.6368Q45.20625 234.3868 45.034374 233.99617Q44.8625 233.58992 44.8625 232.3243L44.8625 227.55867L43.83125 227.55867L43.83125 226.46492L44.8625 226.46492L44.8625 224.40242L46.26875 223.55867L46.26875 226.46492L47.675 226.46492L47.675 227.55867L46.26875 227.55867L46.26875 232.40242Q46.26875 233.0118 46.33125 233.18367Q46.409374 233.35555 46.58125 233.46492Q46.753124 233.55867 47.065624 233.55867Q47.3 233.55867 47.675 233.49617ZM54.01875 233.73055Q53.2375 234.40242 52.51875 234.68367Q51.8 234.9493 50.971874 234.9493Q49.596874 234.9493 48.8625 234.27742Q48.128124 233.60555 48.128124 232.5743Q48.128124 231.96492 48.409374 231.46492Q48.690624 230.9493 49.128124 230.65242Q49.58125 230.33992 50.14375 230.18367Q50.565624 230.0743 51.39375 229.98055Q53.096874 229.77742 53.909374 229.49617Q53.909374 229.1993 53.909374 229.12117Q53.909374 228.2618 53.51875 227.91805Q52.971874 227.43367 51.909374 227.43367Q50.925 227.43367 50.440624 227.79305Q49.971874 228.1368 49.753124 229.0118L48.378124 228.8243Q48.565624 227.9493 48.9875 227.40242Q49.425 226.85555 50.2375 226.5743Q51.05 226.27742 52.1125 226.27742Q53.175 226.27742 53.83125 226.52742Q54.503124 226.77742 54.815624 227.15242Q55.128124 227.52742 55.253124 228.10555Q55.33125 228.46492 55.33125 229.40242L55.33125 231.27742Q55.33125 233.24617 55.409374 233.7618Q55.503124 234.27742 55.76875 234.7618L54.3 234.7618Q54.08125 234.3243 54.01875 233.73055ZM53.909374 230.58992Q53.14375 230.90242 51.6125 231.12117Q50.7375 231.24617 50.378124 231.40242Q50.01875 231.55867 49.815624 231.87117Q49.628124 232.16805 49.628124 232.52742Q49.628124 233.08992 50.05 233.46492Q50.4875 233.83992 51.3 233.83992Q52.1125 233.83992 52.7375 233.49617Q53.378124 233.1368 53.675 232.5118Q53.909374 232.04305 53.909374 231.10555L53.909374 230.58992ZM57.596874 234.7618L57.596874 226.46492L58.8625 226.46492L58.8625 227.71492Q59.346874 226.83992 59.753124 226.55867Q60.159374 226.27742 60.659374 226.27742Q61.3625 226.27742 62.096874 226.73055L61.6125 228.02742Q61.096874 227.73055 60.58125 227.73055Q60.128124 227.73055 59.753124 228.0118Q59.39375 228.27742 59.2375 228.77742Q59.003124 229.52742 59.003124 230.41805L59.003124 234.7618L57.596874 234.7618ZM62.55 237.96492L62.39375 236.6368Q62.846874 236.7618 63.190624 236.7618Q63.659374 236.7618 63.940624 236.60555Q64.22188 236.4493 64.40938 236.16805Q64.53438 235.96492 64.83125 235.12117Q64.87813 235.0118 64.95625 234.77742L61.815624 226.46492L63.33125 226.46492L65.05 231.2618Q65.39375 232.18367 65.65938 233.18367Q65.89375 232.21492 66.2375 231.29305L68.00313 226.46492L69.40938 226.46492L66.25313 234.90242Q65.75313 236.27742 65.47188 236.79305Q65.09688 237.48055 64.6125 237.80867Q64.12813 238.1368 63.45625 238.1368Q63.05 238.1368 62.55 237.96492Z" fill-rule="nonzero"/><path fill="#9e9e9e" d="M26.6125 255.40244L26.6125 256.7618L19.034374 256.7618Q19.01875 256.2462 19.20625 255.77744Q19.4875 255.01181 20.128124 254.26181Q20.76875 253.51181 21.971874 252.52744Q23.83125 250.99619 24.4875 250.10556Q25.14375 249.19931 25.14375 248.40244Q25.14375 247.57431 24.55 246.99619Q23.95625 246.41806 22.9875 246.41806Q21.971874 246.41806 21.3625 247.02744Q20.753124 247.63681 20.753124 248.71494L19.3 248.57431Q19.45625 246.94931 20.425 246.10556Q21.39375 245.26181 23.01875 245.26181Q24.675 245.26181 25.628124 246.18369Q26.596874 247.08994 26.596874 248.43369Q26.596874 249.12119 26.315624 249.79306Q26.034374 250.44931 25.378124 251.18369Q24.721874 251.91806 23.20625 253.19931Q21.940624 254.26181 21.58125 254.65244Q21.221874 255.02744 20.9875 255.40244L26.6125 255.40244ZM28.221874 253.76181L29.690624 253.63681Q29.8625 254.71494 30.45625 255.26181Q31.05 255.79306 31.89375 255.79306Q32.909374 255.79306 33.6125 255.02744Q34.315624 254.26181 34.315624 252.99619Q34.315624 251.79306 33.64375 251.10556Q32.971874 250.40244 31.878124 250.40244Q31.190624 250.40244 30.64375 250.71494Q30.096874 251.02744 29.784374 251.51181L28.471874 251.33994L29.58125 245.46494L35.26875 245.46494L35.26875 246.80869L30.70625 246.80869L30.08125 249.88681Q31.1125 249.16806 32.253124 249.16806Q33.753124 249.16806 34.784374 250.21494Q35.815624 251.24619 35.815624 252.87119Q35.815624 254.43369 34.909374 255.55869Q33.8 256.96494 31.89375 256.96494Q30.33125 256.96494 29.346874 256.08994Q28.3625 255.19931 28.221874 253.76181ZM38.003124 256.7618L38.003124 255.15244L39.6125 255.15244L39.6125 256.7618L38.003124 256.7618ZM41.221874 251.10556Q41.221874 249.07431 41.628124 247.83994Q42.05 246.60556 42.878124 245.93369Q43.70625 245.26181 44.95625 245.26181Q45.878124 245.26181 46.565624 245.63681Q47.26875 245.99619 47.721874 246.69931Q48.175 247.40244 48.425 248.40244Q48.690624 249.40244 48.690624 251.10556Q48.690624 253.12119 48.26875 254.37119Q47.8625 255.60556 47.034374 256.29306Q46.20625 256.96494 44.95625 256.96494Q43.3 256.96494 42.346874 255.76181Q41.221874 254.33994 41.221874 251.10556ZM42.659374 251.10556Q42.659374 253.93369 43.315624 254.87119Q43.9875 255.79306 44.95625 255.79306Q45.925 255.79306 46.58125 254.85556Q47.2375 253.91806 47.2375 251.10556Q47.2375 248.27744 46.58125 247.35556Q45.925 246.41806 44.940624 246.41806Q43.971874 246.41806 43.39375 247.24619Q42.659374 248.29306 42.659374 251.10556ZM50.4875 248.05869Q50.4875 246.82431 51.096874 245.96494Q51.721874 245.10556 52.89375 245.10556Q53.971874 245.10556 54.675 245.88681Q55.378124 246.65244 55.378124 248.13681Q55.378124 249.58994 54.659374 250.38681Q53.95625 251.16806 52.909374 251.16806Q51.8625 251.16806 51.175 250.40244Q50.4875 249.62119 50.4875 248.05869ZM52.925 246.07431Q52.409374 246.07431 52.05 246.52744Q51.70625 246.98056 51.70625 248.19931Q51.70625 249.29306 52.05 249.74619Q52.409374 250.19931 52.925 250.19931Q53.45625 250.19931 53.8 249.74619Q54.159374 249.29306 54.159374 248.08994Q54.159374 246.98056 53.8 246.52744Q53.45625 246.07431 52.925 246.07431ZM52.940624 257.1837L59.20625 245.10556L60.346874 245.10556L54.096874 257.1837L52.940624 257.1837ZM57.89375 254.07431Q57.89375 252.83994 58.503124 251.98056Q59.128124 251.12119 60.3 251.12119Q61.378124 251.12119 62.08125 251.90244Q62.8 252.66806 62.8 254.15244Q62.8 255.60556 62.08125 256.40244Q61.3625 257.1837 60.315624 257.1837Q59.26875 257.1837 58.58125 256.40244Q57.89375 255.62119 57.89375 254.07431ZM60.346874 252.08994Q59.815624 252.08994 59.45625 252.54306Q59.1125 252.99619 59.1125 254.21494Q59.1125 255.30869 59.45625 255.76181Q59.815624 256.21494 60.33125 256.21494Q60.878124 256.21494 61.221874 255.76181Q61.565624 255.30869 61.565624 254.10556Q61.565624 252.99619 61.20625 252.54306Q60.8625 252.08994 60.346874 252.08994Z" fill-rule="nonzero"/><path stroke="#757575" stroke-width="1.0" stroke-linecap="butt" d="M18.55 240.2618L145.23334 240.2618L163.48732 240.2618" fill-rule="nonzero"/><path fill="#9e9e9e" d="M165.48732 240.2618C165.48732 239.15723 164.59189 238.2618 163.48732 238.2618C162.38274 238.2618 161.48732 239.15723 161.48732 240.2618C161.48732 241.36636 162.38274 242.2618 163.48732 242.2618C164.59189 242.2618 165.48732 241.36636 165.48732 240.2618" fill-rule="nonzero"/><path fill="#efefef" d="M19.815624 326.45L19.815624 314.9969L24.89375 314.9969Q26.425 314.9969 27.221874 315.3094Q28.01875 315.60626 28.4875 316.3875Q28.971874 317.16876 28.971874 318.1219Q28.971874 319.34064 28.175 320.1844Q27.39375 321.0125 25.7375 321.23126Q26.346874 321.52814 26.659374 321.8094Q27.315624 322.41876 27.909374 323.325L29.909374 326.45L28.003124 326.45L26.4875 324.0594Q25.815624 323.02814 25.378124 322.48126Q24.95625 321.9344 24.6125 321.71564Q24.284374 321.4969 23.925 321.41876Q23.675 321.35626 23.08125 321.35626L21.33125 321.35626L21.33125 326.45L19.815624 326.45ZM21.33125 320.04376L24.58125 320.04376Q25.628124 320.04376 26.20625 319.84064Q26.8 319.6219 27.096874 319.15314Q27.409374 318.66876 27.409374 318.1219Q27.409374 317.3094 26.815624 316.79376Q26.221874 316.2625 24.95625 316.2625L21.33125 316.2625L21.33125 320.04376ZM37.284374 323.77814L38.7375 323.95Q38.39375 325.23126 37.45625 325.9344Q36.534374 326.6375 35.096874 326.6375Q33.26875 326.6375 32.20625 325.5125Q31.14375 324.3875 31.14375 322.3719Q31.14375 320.27814 32.221874 319.1219Q33.3 317.96564 35.01875 317.96564Q36.675 317.96564 37.721874 319.10626Q38.784374 320.23126 38.784374 322.27814Q38.784374 322.40314 38.784374 322.65314L32.596874 322.65314Q32.675 324.02814 33.3625 324.7625Q34.065624 325.48126 35.096874 325.48126Q35.878124 325.48126 36.425 325.075Q36.971874 324.66876 37.284374 323.77814ZM32.675 321.4969L37.3 321.4969Q37.20625 320.45 36.76875 319.9344Q36.096874 319.1219 35.034374 319.1219Q34.065624 319.1219 33.39375 319.77814Q32.7375 320.41876 32.675 321.4969ZM40.58125 326.45L40.58125 314.9969L41.9875 314.9969L41.9875 326.45L40.58125 326.45ZM44.6125 316.60626L44.6125 314.9969L46.01875 314.9969L46.01875 316.60626L44.6125 316.60626ZM44.6125 326.45L44.6125 318.15314L46.01875 318.15314L46.01875 326.45L44.6125 326.45ZM48.346874 327.1375L49.721874 327.34064Q49.8 327.98126 50.190624 328.2625Q50.721874 328.65314 51.628124 328.65314Q52.596874 328.65314 53.128124 328.2625Q53.659374 327.8719 53.846874 327.16876Q53.95625 326.7469 53.95625 325.35626Q53.034374 326.45 51.659374 326.45Q49.940624 326.45 49.003124 325.21564Q48.065624 323.98126 48.065624 322.2469Q48.065624 321.0594 48.4875 320.0594Q48.925 319.0594 49.7375 318.5125Q50.565624 317.96564 51.659374 317.96564Q53.128124 317.96564 54.08125 319.15314L54.08125 318.15314L55.378124 318.15314L55.378124 325.325Q55.378124 327.2625 54.9875 328.075Q54.596874 328.8875 53.7375 329.35626Q52.878124 329.825 51.628124 329.825Q50.14375 329.825 49.221874 329.15314Q48.315624 328.48126 48.346874 327.1375ZM49.51875 322.15314Q49.51875 323.77814 50.159374 324.52814Q50.815624 325.27814 51.784374 325.27814Q52.753124 325.27814 53.409374 324.54376Q54.065624 323.79376 54.065624 322.2Q54.065624 320.66876 53.39375 319.90314Q52.721874 319.1219 51.76875 319.1219Q50.83125 319.1219 50.175 319.8875Q49.51875 320.65314 49.51875 322.15314ZM57.6125 316.60626L57.6125 314.9969L59.01875 314.9969L59.01875 316.60626L57.6125 316.60626ZM57.6125 326.45L57.6125 318.15314L59.01875 318.15314L59.01875 326.45L57.6125 326.45ZM61.08125 322.29376Q61.08125 319.9969 62.3625 318.8875Q63.440624 317.96564 64.97188 317.96564Q66.69063 317.96564 67.76875 319.09064Q68.8625 320.2 68.8625 322.1844Q68.8625 323.77814 68.37813 324.7Q67.89375 325.6219 66.97188 326.1375Q66.06563 326.6375 64.97188 326.6375Q63.2375 326.6375 62.159374 325.52814Q61.08125 324.40314 61.08125 322.29376ZM62.534374 322.29376Q62.534374 323.8875 63.221874 324.6844Q63.925 325.48126 64.97188 325.48126Q66.01875 325.48126 66.70625 324.6844Q67.40938 323.8875 67.40938 322.2469Q67.40938 320.71564 66.70625 319.91876Q66.01875 319.1219 64.97188 319.1219Q63.925 319.1219 63.221874 319.91876Q62.534374 320.7 62.534374 322.29376ZM76.05 326.45L76.05 325.23126Q75.08125 326.6375 73.40938 326.6375Q72.675 326.6375 72.03438 326.35626Q71.40938 326.075 71.09688 325.65314Q70.78438 325.21564 70.65938 324.60626Q70.58125 324.1844 70.58125 323.29376L70.58125 318.15314L71.9875 318.15314L71.9875 322.7469Q71.9875 323.85626 72.06563 324.23126Q72.20625 324.79376 72.62813 325.10626Q73.06563 325.41876 73.69063 325.41876Q74.33125 325.41876 74.87813 325.10626Q75.44063 324.77814 75.65938 324.21564Q75.89375 323.65314 75.89375 322.59064L75.89375 318.15314L77.3 318.15314L77.3 326.45L76.05 326.45ZM79.05 323.96564L80.44063 323.7469Q80.55 324.59064 81.08125 325.04376Q81.62813 325.48126 82.58125 325.48126Q83.55 325.48126 84.01875 325.09064Q84.4875 324.6844 84.4875 324.15314Q84.4875 323.6844 84.08125 323.40314Q83.78438 323.21564 82.64375 322.9344Q81.09688 322.54376 80.4875 322.2625Q79.89375 321.96564 79.58125 321.46564Q79.28438 320.96564 79.28438 320.35626Q79.28438 319.79376 79.53438 319.325Q79.78438 318.85626 80.22188 318.54376Q80.55 318.29376 81.1125 318.1375Q81.69063 317.96564 82.33125 317.96564Q83.31563 317.96564 84.05 318.2469Q84.78438 318.52814 85.12813 319.0125Q85.4875 319.48126 85.62813 320.29376L84.25313 320.48126Q84.15938 319.84064 83.70625 319.48126Q83.25313 319.1219 82.44063 319.1219Q81.47188 319.1219 81.05 319.45Q80.64375 319.7625 80.64375 320.1844Q80.64375 320.46564 80.81563 320.6844Q80.9875 320.90314 81.34688 321.0594Q81.56563 321.1375 82.59688 321.41876Q84.08125 321.8094 84.675 322.075Q85.26875 322.325 85.59688 322.8094Q85.94063 323.29376 85.94063 324.0125Q85.94063 324.71564 85.51875 325.34064Q85.1125 325.95 84.33125 326.29376Q83.56563 326.6375 82.59688 326.6375Q80.97188 326.6375 80.12813 325.96564Q79.28438 325.29376 79.05 323.96564Z" fill-rule="nonzero"/><path fill="#9e9e9e" d="M23.721874 348.45L23.721874 345.7L18.753124 345.7L18.753124 344.41876L23.9875 336.9969L25.128124 336.9969L25.128124 344.41876L26.675 344.41876L26.675 345.7L25.128124 345.7L25.128124 348.45L23.721874 348.45ZM23.721874 344.41876L23.721874 339.2469L20.14375 344.41876L23.721874 344.41876ZM29.003124 348.45L29.003124 346.84064L30.6125 346.84064L30.6125 348.45L29.003124 348.45ZM39.6125 347.09064L39.6125 348.45L32.034374 348.45Q32.01875 347.9344 32.20625 347.46564Q32.4875 346.7 33.128124 345.95Q33.76875 345.2 34.971874 344.21564Q36.83125 342.6844 37.4875 341.79376Q38.14375 340.8875 38.14375 340.09064Q38.14375 339.2625 37.55 338.6844Q36.95625 338.10626 35.9875 338.10626Q34.971874 338.10626 34.3625 338.71564Q33.753124 339.325 33.753124 340.40314L32.3 340.2625Q32.45625 338.6375 33.425 337.79376Q34.39375 336.95 36.01875 336.95Q37.675 336.95 38.628124 337.8719Q39.596874 338.77814 39.596874 340.1219Q39.596874 340.8094 39.315624 341.48126Q39.034374 342.1375 38.378124 342.8719Q37.721874 343.60626 36.20625 344.8875Q34.940624 345.95 34.58125 346.34064Q34.221874 346.71564 33.9875 347.09064L39.6125 347.09064ZM41.4875 339.7469Q41.4875 338.5125 42.096874 337.65314Q42.721874 336.79376 43.89375 336.79376Q44.971874 336.79376 45.675 337.575Q46.378124 338.34064 46.378124 339.825Q46.378124 341.27814 45.659374 342.075Q44.95625 342.85626 43.909374 342.85626Q42.8625 342.85626 42.175 342.09064Q41.4875 341.3094 41.4875 339.7469ZM43.925 337.7625Q43.409374 337.7625 43.05 338.21564Q42.70625 338.66876 42.70625 339.8875Q42.70625 340.98126 43.05 341.4344Q43.409374 341.8875 43.925 341.8875Q44.45625 341.8875 44.8 341.4344Q45.159374 340.98126 45.159374 339.77814Q45.159374 338.66876 44.8 338.21564Q44.45625 337.7625 43.925 337.7625ZM43.940624 348.8719L50.20625 336.79376L51.346874 336.79376L45.096874 348.8719L43.940624 348.8719ZM48.89375 345.7625Q48.89375 344.52814 49.503124 343.66876Q50.128124 342.8094 51.3 342.8094Q52.378124 342.8094 53.08125 343.59064Q53.8 344.35626 53.8 345.84064Q53.8 347.29376 53.08125 348.09064Q52.3625 348.8719 51.315624 348.8719Q50.26875 348.8719 49.58125 348.09064Q48.89375 347.3094 48.89375 345.7625ZM51.346874 343.77814Q50.815624 343.77814 50.45625 344.23126Q50.1125 344.6844 50.1125 345.90314Q50.1125 346.9969 50.45625 347.45Q50.815624 347.90314 51.33125 347.90314Q51.878124 347.90314 52.221874 347.45Q52.565624 346.9969 52.565624 345.79376Q52.565624 344.6844 52.20625 344.23126Q51.8625 343.77814 51.346874 343.77814Z" fill-rule="nonzero"/><path stroke="#757575" stroke-width="1.0" stroke-linecap="butt" d="M18.55 331.95L145.23334 331.95L245.91599 334.2537" fill-rule="nonzero"/><path fill="#9e9e9e" d="M247.91599 334.2537C247.91599 333.1491 247.02055 332.2537 245.91599 332.2537C244.81142 332.2537 243.91599 333.1491 243.91599 334.2537C243.91599 335.35825 244.81142 336.2537 245.91599 336.2537C247.02055 336.2537 247.91599 335.35825 247.91599 334.2537" fill-rule="nonzero"/><path fill="#efefef" d="M481.71564 216.63039L481.71564 205.17726L489.9969 205.17726L489.9969 206.52101L483.23126 206.52101L483.23126 210.03664L489.575 210.03664L489.575 211.38039L483.23126 211.38039L483.23126 215.27101L490.2625 215.27101L490.2625 216.63039L481.71564 216.63039ZM495.575 215.36476L495.77814 216.61476Q495.1844 216.73976 494.71564 216.73976Q493.95 216.73976 493.52814 216.50539Q493.10626 216.25539 492.9344 215.86476Q492.7625 215.45851 492.7625 214.19289L492.7625 209.42726L491.73126 209.42726L491.73126 208.33351L492.7625 208.33351L492.7625 206.27101L494.16876 205.42726L494.16876 208.33351L495.575 208.33351L495.575 209.42726L494.16876 209.42726L494.16876 214.27101Q494.16876 214.88039 494.23126 215.05226Q494.3094 215.22414 494.48126 215.33351Q494.65314 215.42726 494.96564 215.42726Q495.2 215.42726 495.575 215.36476ZM496.5125 216.63039L496.5125 205.17726L497.91876 205.17726L497.91876 209.28664Q498.90314 208.14601 500.40314 208.14601Q501.325 208.14601 501.9969 208.50539Q502.6844 208.86476 502.96564 209.50539Q503.2625 210.14601 503.2625 211.36476L503.2625 216.63039L501.85626 216.63039L501.85626 211.36476Q501.85626 210.31789 501.40314 209.83351Q500.95 209.34914 500.10626 209.34914Q499.48126 209.34914 498.9344 209.67726Q498.3875 210.00539 498.15314 210.56789Q497.91876 211.11476 497.91876 212.08351L497.91876 216.63039L496.5125 216.63039ZM505.5125 216.63039L505.5125 208.33351L506.77814 208.33351L506.77814 209.50539Q507.6844 208.14601 509.41876 208.14601Q510.16876 208.14601 510.79376 208.41164Q511.41876 208.67726 511.73126 209.11476Q512.04376 209.55226 512.16876 210.16164Q512.2469 210.55226 512.2469 211.52101L512.2469 216.63039L510.84064 216.63039L510.84064 211.58351Q510.84064 210.72414 510.66876 210.30226Q510.5125 209.86476 510.09064 209.61476Q509.6844 209.36476 509.1219 209.36476Q508.21564 209.36476 507.5594 209.94289Q506.91876 210.50539 506.91876 212.09914L506.91876 216.63039L505.5125 216.63039ZM514.5125 206.78664L514.5125 205.17726L515.91876 205.17726L515.91876 206.78664L514.5125 206.78664ZM514.5125 216.63039L514.5125 208.33351L515.91876 208.33351L515.91876 216.63039L514.5125 216.63039ZM523.91876 213.58351L525.3094 213.77101Q525.075 215.19289 524.1375 216.00539Q523.21564 216.81789 521.85626 216.81789Q520.15314 216.81789 519.10626 215.70851Q518.075 214.58351 518.075 212.50539Q518.075 211.16164 518.5125 210.16164Q518.96564 209.14601 519.8719 208.64601Q520.79376 208.14601 521.85626 208.14601Q523.21564 208.14601 524.075 208.83351Q524.9344 209.50539 525.16876 210.77101L523.8094 210.97414Q523.60626 210.14601 523.10626 209.72414Q522.6219 209.30226 521.91876 209.30226Q520.85626 209.30226 520.1844 210.06789Q519.52814 210.81789 519.52814 212.47414Q519.52814 214.14601 520.16876 214.91164Q520.8094 215.66164 521.84064 215.66164Q522.66876 215.66164 523.21564 215.16164Q523.77814 214.64601 523.91876 213.58351ZM536.04376 212.13039L536.04376 210.78664L540.90314 210.78664L540.90314 215.03664Q539.77814 215.92726 538.59064 216.38039Q537.40314 216.83351 536.15314 216.83351Q534.46564 216.83351 533.09064 216.11476Q531.71564 215.38039 531.0125 214.02101Q530.3094 212.64601 530.3094 210.95851Q530.3094 209.28664 530.9969 207.83351Q531.7 206.38039 533.0125 205.67726Q534.325 204.97414 536.04376 204.97414Q537.27814 204.97414 538.27814 205.38039Q539.29376 205.78664 539.85626 206.50539Q540.4344 207.22414 540.73126 208.38039L539.35626 208.75539Q539.10626 207.88039 538.71564 207.38039Q538.34064 206.88039 537.6219 206.58351Q536.91876 206.27101 536.04376 206.27101Q535.0125 206.27101 534.2469 206.59914Q533.4969 206.91164 533.02814 207.42726Q532.5594 207.94289 532.3094 208.55226Q531.8719 209.61476 531.8719 210.86476Q531.8719 212.39601 532.3875 213.42726Q532.91876 214.45851 533.91876 214.95851Q534.9344 215.45851 536.075 215.45851Q537.0594 215.45851 537.9969 215.08351Q538.9344 214.69289 539.41876 214.27101L539.41876 212.13039L536.04376 212.13039ZM542.4969 216.63039L542.4969 208.33351L543.7625 208.33351L543.7625 209.58351Q544.2469 208.70851 544.65314 208.42726Q545.0594 208.14601 545.5594 208.14601Q546.2625 208.14601 546.9969 208.59914L546.5125 209.89601Q545.9969 209.59914 545.48126 209.59914Q545.02814 209.59914 544.65314 209.88039Q544.29376 210.14601 544.1375 210.64601Q543.90314 211.39601 543.90314 212.28664L543.90314 216.63039L542.4969 216.63039ZM546.98126 212.47414Q546.98126 210.17726 548.2625 209.06789Q549.34064 208.14601 550.8719 208.14601Q552.59064 208.14601 553.66876 209.27101Q554.7625 210.38039 554.7625 212.36476Q554.7625 213.95851 554.27814 214.88039Q553.79376 215.80226 552.8719 216.31789Q551.96564 216.81789 550.8719 216.81789Q549.1375 216.81789 548.0594 215.70851Q546.98126 214.58351 546.98126 212.47414ZM548.4344 212.47414Q548.4344 214.06789 549.1219 214.86476Q549.825 215.66164 550.8719 215.66164Q551.91876 215.66164 552.60626 214.86476Q553.3094 214.06789 553.3094 212.42726Q553.3094 210.89601 552.60626 210.09914Q551.91876 209.30226 550.8719 209.30226Q549.825 209.30226 549.1219 210.09914Q548.4344 210.88039 548.4344 212.47414ZM561.95 216.63039L561.95 215.41164Q560.98126 216.81789 559.3094 216.81789Q558.575 216.81789 557.9344 216.53664Q557.3094 216.25539 556.9969 215.83351Q556.6844 215.39601 556.5594 214.78664Q556.48126 214.36476 556.48126 213.47414L556.48126 208.33351L557.8875 208.33351L557.8875 212.92726Q557.8875 214.03664 557.96564 214.41164Q558.10626 214.97414 558.52814 215.28664Q558.96564 215.59914 559.59064 215.59914Q560.23126 215.59914 560.77814 215.28664Q561.34064 214.95851 561.5594 214.39601Q561.79376 213.83351 561.79376 212.77101L561.79376 208.33351L563.2 208.33351L563.2 216.63039L561.95 216.63039ZM565.5125 219.81789L565.5125 208.33351L566.79376 208.33351L566.79376 209.41164Q567.2469 208.77101 567.8094 208.45851Q568.3875 208.14601 569.2 208.14601Q570.2625 208.14601 571.075 208.69289Q571.8875 209.23976 572.29376 210.23976Q572.71564 211.22414 572.71564 212.41164Q572.71564 213.69289 572.2469 214.70851Q571.79376 215.72414 570.91876 216.27101Q570.0594 216.81789 569.09064 216.81789Q568.3875 216.81789 567.825 216.52101Q567.27814 216.22414 566.91876 215.77101L566.91876 219.81789L565.5125 219.81789ZM566.77814 212.52101Q566.77814 214.13039 567.41876 214.89601Q568.075 215.66164 568.9969 215.66164Q569.9344 215.66164 570.60626 214.86476Q571.27814 214.06789 571.27814 212.41164Q571.27814 210.81789 570.6219 210.03664Q569.96564 209.23976 569.0594 209.23976Q568.16876 209.23976 567.46564 210.08351Q566.77814 210.92726 566.77814 212.52101ZM573.95 214.14601L575.34064 213.92726Q575.45 214.77101 575.98126 215.22414Q576.52814 215.66164 577.48126 215.66164Q578.45 215.66164 578.91876 215.27101Q579.3875 214.86476 579.3875 214.33351Q579.3875 213.86476 578.98126 213.58351Q578.6844 213.39601 577.54376 213.11476Q575.9969 212.72414 575.3875 212.44289Q574.79376 212.14601 574.48126 211.64601Q574.1844 211.14601 574.1844 210.53664Q574.1844 209.97414 574.4344 209.50539Q574.6844 209.03664 575.1219 208.72414Q575.45 208.47414 576.0125 208.31789Q576.59064 208.14601 577.23126 208.14601Q578.21564 208.14601 578.95 208.42726Q579.6844 208.70851 580.02814 209.19289Q580.3875 209.66164 580.52814 210.47414L579.15314 210.66164Q579.0594 210.02101 578.60626 209.66164Q578.15314 209.30226 577.34064 209.30226Q576.3719 209.30226 575.95 209.63039Q575.54376 209.94289 575.54376 210.36476Q575.54376 210.64601 575.71564 210.86476Q575.8875 211.08351 576.2469 211.23976Q576.46564 211.31789 577.4969 211.59914Q578.98126 211.98976 579.575 212.25539Q580.16876 212.50539 580.4969 212.98976Q580.84064 213.47414 580.84064 214.19289Q580.84064 214.89601 580.41876 215.52101Q580.0125 216.13039 579.23126 216.47414Q578.46564 216.81789 577.4969 216.81789Q575.8719 216.81789 575.02814 216.14601Q574.1844 215.47414 573.95 214.14601Z" fill-rule="nonzero"/><path fill="#9e9e9e" d="M537.1219 235.63039L538.59064 235.50539Q538.7625 236.58351 539.35626 237.13039Q539.95 237.66164 540.79376 237.66164Q541.8094 237.66164 542.5125 236.89601Q543.21564 236.13039 543.21564 234.86476Q543.21564 233.66164 542.54376 232.97414Q541.8719 232.27101 540.77814 232.27101Q540.09064 232.27101 539.54376 232.58351Q538.9969 232.89601 538.6844 233.38039L537.3719 233.20851L538.48126 227.33351L544.16876 227.33351L544.16876 228.67726L539.60626 228.67726L538.98126 231.75539Q540.0125 231.03664 541.15314 231.03664Q542.65314 231.03664 543.6844 232.08351Q544.71564 233.11476 544.71564 234.73976Q544.71564 236.30226 543.8094 237.42726Q542.7 238.83351 540.79376 238.83351Q539.23126 238.83351 538.2469 237.95851Q537.2625 237.06789 537.1219 235.63039ZM550.6219 238.63039L550.6219 235.88039L545.65314 235.88039L545.65314 234.59914L550.8875 227.17726L552.02814 227.17726L552.02814 234.59914L553.575 234.59914L553.575 235.88039L552.02814 235.88039L552.02814 238.63039L550.6219 238.63039ZM550.6219 234.59914L550.6219 229.42726L547.04376 234.59914L550.6219 234.59914ZM555.90314 238.63039L555.90314 237.02101L557.5125 237.02101L557.5125 238.63039L555.90314 238.63039ZM566.5125 237.27101L566.5125 238.63039L558.9344 238.63039Q558.91876 238.11476 559.10626 237.64601Q559.3875 236.88039 560.02814 236.13039Q560.66876 235.38039 561.8719 234.39601Q563.73126 232.86476 564.3875 231.97414Q565.04376 231.06789 565.04376 230.27101Q565.04376 229.44289 564.45 228.86476Q563.85626 228.28664 562.8875 228.28664Q561.8719 228.28664 561.2625 228.89601Q560.65314 229.50539 560.65314 230.58351L559.2 230.44289Q559.35626 228.81789 560.325 227.97414Q561.29376 227.13039 562.91876 227.13039Q564.575 227.13039 565.52814 228.05226Q566.4969 228.95851 566.4969 230.30226Q566.4969 230.98976 566.21564 231.66164Q565.9344 232.31789 565.27814 233.05226Q564.6219 233.78664 563.10626 235.06789Q561.84064 236.13039 561.48126 236.52101Q561.1219 236.89601 560.8875 237.27101L566.5125 237.27101ZM568.3875 229.92726Q568.3875 228.69289 568.9969 227.83351Q569.6219 226.97414 570.79376 226.97414Q571.8719 226.97414 572.575 227.75539Q573.27814 228.52101 573.27814 230.00539Q573.27814 231.45851 572.5594 232.25539Q571.85626 233.03664 570.8094 233.03664Q569.7625 233.03664 569.075 232.27101Q568.3875 231.48976 568.3875 229.92726ZM570.825 227.94289Q570.3094 227.94289 569.95 228.39601Q569.60626 228.84914 569.60626 230.06789Q569.60626 231.16164 569.95 231.61476Q570.3094 232.06789 570.825 232.06789Q571.35626 232.06789 571.7 231.61476Q572.0594 231.16164 572.0594 229.95851Q572.0594 228.84914 571.7 228.39601Q571.35626 227.94289 570.825 227.94289ZM570.84064 239.05226L577.10626 226.97414L578.2469 226.97414L571.9969 239.05226L570.84064 239.05226ZM575.79376 235.94289Q575.79376 234.70851 576.40314 233.84914Q577.02814 232.98976 578.2 232.98976Q579.27814 232.98976 579.98126 233.77101Q580.7 234.53664 580.7 236.02101Q580.7 237.47414 579.98126 238.27101Q579.2625 239.05226 578.21564 239.05226Q577.16876 239.05226 576.48126 238.27101Q575.79376 237.48976 575.79376 235.94289ZM578.2469 233.95851Q577.71564 233.95851 577.35626 234.41164Q577.0125 234.86476 577.0125 236.08351Q577.0125 237.17726 577.35626 237.63039Q577.71564 238.08351 578.23126 238.08351Q578.77814 238.08351 579.1219 237.63039Q579.46564 237.17726 579.46564 235.97414Q579.46564 234.86476 579.10626 234.41164Q578.7625 233.95851 578.2469 233.95851Z" fill-rule="nonzero"/><path stroke="#757575" stroke-width="1.0" stroke-linecap="butt" d="M581.45 222.13039L454.76666 222.13039L440.11926 222.13039" fill-rule="nonzero"/><path fill="#9e9e9e" d="M442.11926 222.13039C442.11926 221.02582 441.22382 220.13039 440.11926 220.13039C439.01468 220.13039 438.11926 221.02582 438.11926 222.13039C438.11926 223.23495 439.01468 224.13039 440.11926 224.13039C441.22382 224.13039 442.11926 223.23495 442.11926 222.13039" fill-rule="nonzero"/><path fill="#f3f3f3" d="M271.26562 32.534374L273.15625 33.003124Q272.5625 35.346874 271.01562 36.58125Q269.46875 37.8 267.21875 37.8Q264.90625 37.8 263.45312 36.8625Q262.01562 35.909374 261.25 34.128124Q260.5 32.33125 260.5 30.284374Q260.5 28.05 261.34375 26.39375Q262.20312 24.721874 263.78125 23.8625Q265.35938 22.9875 267.25 22.9875Q269.40625 22.9875 270.85938 24.08125Q272.32812 25.175 272.90625 27.159374L271.04688 27.596874Q270.54688 26.034374 269.59375 25.33125Q268.65625 24.6125 267.21875 24.6125Q265.5625 24.6125 264.45312 25.409374Q263.34375 26.190624 262.89062 27.534374Q262.45312 28.8625 262.45312 30.26875Q262.45312 32.096874 262.98438 33.471874Q263.51562 34.83125 264.64062 35.503124Q265.76562 36.175 267.0625 36.175Q268.65625 36.175 269.76562 35.253124Q270.875 34.33125 271.26562 32.534374ZM281.59375 36.26875Q280.60938 37.096874 279.70312 37.440624Q278.79688 37.784374 277.76562 37.784374Q276.0625 37.784374 275.14062 36.95625Q274.21875 36.1125 274.21875 34.815624Q274.21875 34.05 274.5625 33.425Q274.92188 32.8 275.48438 32.425Q276.04688 32.034374 276.75 31.83125Q277.26562 31.70625 278.3125 31.565624Q280.4375 31.315624 281.4375 30.971874Q281.45312 30.6125 281.45312 30.503124Q281.45312 29.440624 280.95312 28.9875Q280.28125 28.39375 278.95312 28.39375Q277.70312 28.39375 277.10938 28.83125Q276.53125 29.26875 276.25 30.378124L274.53125 30.14375Q274.76562 29.034374 275.29688 28.3625Q275.82812 27.675 276.84375 27.315624Q277.85938 26.940624 279.20312 26.940624Q280.53125 26.940624 281.35938 27.253124Q282.1875 27.565624 282.57812 28.05Q282.96875 28.51875 283.125 29.2375Q283.21875 29.690624 283.21875 30.8625L283.21875 33.20625Q283.21875 35.659374 283.32812 36.315624Q283.4375 36.95625 283.78125 37.55L281.9375 37.55Q281.67188 37.003124 281.59375 36.26875ZM281.4375 32.346874Q280.48438 32.7375 278.5625 33.003124Q277.48438 33.159374 277.03125 33.3625Q276.59375 33.55 276.34375 33.925Q276.09375 34.3 276.09375 34.76875Q276.09375 35.471874 276.625 35.940624Q277.15625 36.409374 278.1875 36.409374Q279.20312 36.409374 279.98438 35.971874Q280.78125 35.51875 281.15625 34.753124Q281.4375 34.14375 281.4375 32.9875L281.4375 32.346874ZM289.65625 35.971874L289.90625 37.534374Q289.17188 37.690624 288.57812 37.690624Q287.625 37.690624 287.09375 37.39375Q286.57812 37.08125 286.35938 36.596874Q286.14062 36.096874 286.14062 34.51875L286.14062 28.55L284.85938 28.55L284.85938 27.175L286.14062 27.175L286.14062 24.6125L287.89062 23.55L287.89062 27.175L289.65625 27.175L289.65625 28.55L287.89062 28.55L287.89062 34.6125Q287.89062 35.3625 287.98438 35.58125Q288.07812 35.784374 288.28125 35.925Q288.5 36.05 288.89062 36.05Q289.17188 36.05 289.65625 35.971874ZM298.92188 34.20625L300.73438 34.440624Q300.3125 36.01875 299.14062 36.909374Q297.98438 37.784374 296.17188 37.784374Q293.90625 37.784374 292.5625 36.39375Q291.23438 34.9875 291.23438 32.45625Q291.23438 29.83125 292.57812 28.39375Q293.92188 26.940624 296.07812 26.940624Q298.15625 26.940624 299.46875 28.3625Q300.79688 29.76875 300.79688 32.346874Q300.79688 32.503124 300.78125 32.815624L293.04688 32.815624Q293.14062 34.51875 294.01562 35.425Q294.89062 36.33125 296.1875 36.33125Q297.15625 36.33125 297.82812 35.83125Q298.51562 35.315624 298.92188 34.20625ZM293.14062 31.3625L298.9375 31.3625Q298.82812 30.065624 298.28125 29.409374Q297.4375 28.39375 296.09375 28.39375Q294.89062 28.39375 294.0625 29.20625Q293.23438 30.003124 293.14062 31.3625ZM302.5 38.409374L304.20312 38.659374Q304.3125 39.45625 304.79688 39.815624Q305.45312 40.3 306.59375 40.3Q307.8125 40.3 308.46875 39.815624Q309.14062 39.33125 309.375 38.45625Q309.51562 37.909374 309.5 36.190624Q308.34375 37.55 306.625 37.55Q304.48438 37.55 303.3125 36.003124Q302.14062 34.45625 302.14062 32.3Q302.14062 30.815624 302.67188 29.565624Q303.21875 28.315624 304.23438 27.628124Q305.26562 26.940624 306.64062 26.940624Q308.46875 26.940624 309.67188 28.425L309.67188 27.175L311.28125 27.175L311.28125 36.14375Q311.28125 38.565624 310.78125 39.565624Q310.29688 40.58125 309.21875 41.159374Q308.15625 41.753124 306.59375 41.753124Q304.75 41.753124 303.59375 40.925Q302.45312 40.096874 302.5 38.409374ZM303.95312 32.175Q303.95312 34.221874 304.76562 35.159374Q305.57812 36.096874 306.79688 36.096874Q308.0 36.096874 308.8125 35.159374Q309.64062 34.221874 309.64062 32.2375Q309.64062 30.33125 308.79688 29.3625Q307.95312 28.39375 306.76562 28.39375Q305.59375 28.39375 304.76562 29.346874Q303.95312 30.3 303.95312 32.175ZM313.17188 32.3625Q313.17188 29.4875 314.76562 28.096874Q316.10938 26.940624 318.03125 26.940624Q320.17188 26.940624 321.51562 28.346874Q322.875 29.753124 322.875 32.221874Q322.875 34.221874 322.28125 35.378124Q321.6875 36.51875 320.53125 37.159374Q319.39062 37.784374 318.03125 37.784374Q315.84375 37.784374 314.5 36.39375Q313.17188 34.9875 313.17188 32.3625ZM314.96875 32.3625Q314.96875 34.3625 315.82812 35.346874Q316.70312 36.33125 318.03125 36.33125Q319.34375 36.33125 320.20312 35.346874Q321.07812 34.346874 321.07812 32.3Q321.07812 30.378124 320.20312 29.39375Q319.32812 28.39375 318.03125 28.39375Q316.70312 28.39375 315.82812 29.39375Q314.96875 30.378124 314.96875 32.3625ZM324.79688 37.55L324.79688 27.175L326.375 27.175L326.375 28.753124Q326.98438 27.64375 327.5 27.3Q328.01562 26.940624 328.625 26.940624Q329.51562 26.940624 330.4375 27.503124L329.82812 29.14375Q329.1875 28.753124 328.54688 28.753124Q327.96875 28.753124 327.5 29.1125Q327.04688 29.45625 326.84375 30.065624Q326.5625 31.003124 326.5625 32.1125L326.5625 37.55L324.79688 37.55ZM331.73438 41.55L331.54688 39.89375Q332.125 40.05 332.54688 40.05Q333.14062 40.05 333.48438 39.846874Q333.84375 39.659374 334.0625 39.315624Q334.23438 39.05 334.60938 38.003124Q334.65625 37.846874 334.76562 37.565624L330.82812 27.175L332.71875 27.175L334.875 33.190624Q335.29688 34.33125 335.625 35.58125Q335.9375 34.378124 336.34375 33.221874L338.5625 27.175L340.32812 27.175L336.375 37.721874Q335.75 39.440624 335.39062 40.08125Q334.92188 40.95625 334.3125 41.346874Q333.71875 41.753124 332.875 41.753124Q332.35938 41.753124 331.73438 41.55Z" fill-rule="nonzero"/></svg>