<svg version="1.1" viewBox="0.0 0.0 600.0 371.0" fill="none" stroke="none" stroke-linecap="square" stroke-miterlimit="10" width="600" height="371" xmlns:xlink="http://www.w3.org/1999/xlink" xmlns="http://www.w3.org/2000/svg"><path fill="#ffffff" fill-opacity="0.0" d="M0 0L600.0 0L600.0 371.0L0 371.0L0 0Z" fill-rule="nonzero"/><path fill="#d8753e" d="M235.45256 69.6492C255.5886 59.952198 277.6507 54.916668 300.0 54.916668L300.0 166.49167C294.4127 166.49167 288.89716 167.75055 283.86313 170.1748Z" fill-rule="nonzero"/><path fill="#cf4366" d="M300.0 54.916668C375.71628 54.916668 439.35373 111.78655 447.83127 187.02675C456.30878 262.26694 406.92163 331.87164 333.1037 348.72012C259.28577 365.56857 184.58913 324.2852 159.58162 252.81786C134.57411 181.35051 167.23454 102.50127 235.45256 69.6492L283.86313 170.1748C266.80862 178.38782 258.64352 198.10013 264.89542 215.96696C271.14728 233.8338 289.82144 244.15465 308.2759 239.94252C326.7304 235.73041 339.0772 218.32924 336.95782 199.51918C334.83844 180.70914 318.92908 166.49167 300.0 166.49167Z" fill-rule="nonzero"/><path fill="#ffffff" d="M300.22208 315.58194L301.7377 315.4413Q301.94083 316.51944 302.47208 317.0038Q303.01895 317.4882 303.87833 317.4882Q304.6127 317.4882 305.15958 317.16006Q305.70645 316.8163 306.0502 316.26944Q306.40958 315.70694 306.64395 314.7538Q306.87833 313.8007 306.87833 312.8163Q306.87833 312.70694 306.87833 312.5038Q306.39395 313.2538 305.56583 313.72256Q304.75333 314.1913 303.8002 314.1913Q302.20645 314.1913 301.09708 313.03506Q299.9877 311.8788 299.9877 309.97256Q299.9877 308.01944 301.14395 306.83194Q302.3002 305.6288 304.03458 305.6288Q305.3002 305.6288 306.33145 306.3163Q307.37833 306.9882 307.90958 308.2382Q308.45645 309.4882 308.45645 311.8632Q308.45645 314.33194 307.90958 315.8007Q307.37833 317.2538 306.31583 318.01944Q305.26895 318.78506 303.84708 318.78506Q302.33145 318.78506 301.3627 317.95694Q300.40958 317.1132 300.22208 315.58194ZM306.70645 309.89444Q306.70645 308.53506 305.97208 307.7382Q305.25333 306.9413 304.2377 306.9413Q303.1752 306.9413 302.39395 307.8007Q301.6127 308.66006 301.6127 310.03506Q301.6127 311.26944 302.34708 312.03506Q303.09708 312.8007 304.19083 312.8007Q305.28458 312.8007 305.9877 312.03506Q306.70645 311.26944 306.70645 309.89444ZM318.3002 317.0507L318.3002 318.5663L309.78458 318.5663Q309.76895 317.9882 309.97208 317.47256Q310.3002 316.59756 311.00333 315.7538Q311.72208 314.91006 313.08145 313.8007Q315.1752 312.08194 315.90958 311.08194Q316.65958 310.0663 316.65958 309.1757Q316.65958 308.22256 315.9877 307.58194Q315.31583 306.9413 314.2377 306.9413Q313.08145 306.9413 312.39395 307.6288Q311.72208 308.3163 311.70645 309.51944L310.08145 309.34756Q310.25333 307.53506 311.33145 306.58194Q312.4252 305.6288 314.26895 305.6288Q316.1127 305.6288 317.19083 306.66006Q318.28458 307.6913 318.28458 309.20694Q318.28458 309.97256 317.95645 310.72256Q317.64395 311.47256 316.90958 312.3007Q316.1752 313.1288 314.47208 314.5663Q313.0502 315.76944 312.64395 316.1913Q312.2377 316.6132 311.9877 317.0507L318.3002 317.0507ZM320.87833 318.5663L320.87833 316.76944L322.6752 316.76944L322.6752 318.5663L320.87833 318.5663ZM325.22208 315.58194L326.7377 315.4413Q326.94083 316.51944 327.47208 317.0038Q328.01895 317.4882 328.87833 317.4882Q329.6127 317.4882 330.15958 317.16006Q330.70645 316.8163 331.0502 316.26944Q331.40958 315.70694 331.64395 314.7538Q331.87833 313.8007 331.87833 312.8163Q331.87833 312.70694 331.87833 312.5038Q331.39395 313.2538 330.56583 313.72256Q329.75333 314.1913 328.8002 314.1913Q327.20645 314.1913 326.09708 313.03506Q324.9877 311.8788 324.9877 309.97256Q324.9877 308.01944 326.14395 306.83194Q327.3002 305.6288 329.03458 305.6288Q330.3002 305.6288 331.33145 306.3163Q332.37833 306.9882 332.90958 308.2382Q333.45645 309.4882 333.45645 311.8632Q333.45645 314.33194 332.90958 315.8007Q332.37833 317.2538 331.31583 318.01944Q330.26895 318.78506 328.84708 318.78506Q327.33145 318.78506 326.3627 317.95694Q325.40958 317.1132 325.22208 315.58194ZM331.70645 309.89444Q331.70645 308.53506 330.97208 307.7382Q330.25333 306.9413 329.2377 306.9413Q328.1752 306.9413 327.39395 307.8007Q326.6127 308.66006 326.6127 310.03506Q326.6127 311.26944 327.34708 312.03506Q328.09708 312.8007 329.19083 312.8007Q330.28458 312.8007 330.9877 312.03506Q331.70645 311.26944 331.70645 309.89444ZM335.28458 308.76944Q335.28458 307.39444 335.97208 306.4257Q336.6752 305.45694 337.9877 305.45694Q339.20645 305.45694 340.00333 306.33194Q340.8002 307.1913 340.8002 308.8788Q340.8002 310.5038 339.9877 311.39444Q339.19083 312.26944 338.00333 312.26944Q336.84708 312.26944 336.06583 311.41006Q335.28458 310.53506 335.28458 308.76944ZM338.03458 306.5507Q337.44083 306.5507 337.0502 307.0663Q336.65958 307.5663 336.65958 308.9257Q336.65958 310.1757 337.0502 310.6757Q337.45645 311.1757 338.03458 311.1757Q338.62833 311.1757 339.01895 310.6757Q339.40958 310.16006 339.40958 308.8163Q339.40958 307.5663 339.01895 307.0663Q338.62833 306.5507 338.03458 306.5507ZM338.0502 319.03506L345.09708 305.45694L346.37833 305.45694L339.34708 319.03506L338.0502 319.03506ZM343.6127 315.53506Q343.6127 314.16006 344.3002 313.1913Q345.00333 312.22256 346.33145 312.22256Q347.5502 312.22256 348.33145 313.09756Q349.12833 313.95694 349.12833 315.64444Q349.12833 317.26944 348.33145 318.16006Q347.53458 319.03506 346.34708 319.03506Q345.1752 319.03506 344.39395 318.16006Q343.6127 317.28506 343.6127 315.53506ZM346.37833 313.3163Q345.78458 313.3163 345.39395 313.83194Q345.00333 314.33194 345.00333 315.70694Q345.00333 316.9257 345.39395 317.4413Q345.78458 317.95694 346.3627 317.95694Q346.97208 317.95694 347.3627 317.4413Q347.75333 316.9257 347.75333 315.58194Q347.75333 314.33194 347.3627 313.83194Q346.97208 313.3163 346.37833 313.3163Z" fill-rule="nonzero"/><path fill="#ffffff" d="M255.14076 88.49027L255.14076 86.97465L263.46887 86.97465L263.46887 88.20902Q262.25012 89.52152 261.03137 91.6934Q259.82825 93.84965 259.172 96.14652Q258.68762 97.77152 258.56262 99.6934L256.93762 99.6934Q256.96887 98.17777 257.53137 96.02152Q258.1095 93.86527 259.172 91.86527Q260.2345 89.86527 261.43762 88.49027L255.14076 88.49027ZM265.922 99.6934L265.922 97.89652L267.71887 97.89652L267.71887 99.6934L265.922 99.6934ZM275.9845 99.6934L274.40637 99.6934L274.40637 89.61527Q273.82825 90.16215 272.90637 90.70902Q271.9845 91.24027 271.2345 91.52152L271.2345 89.99027Q272.56262 89.36527 273.56262 88.47465Q274.56262 87.58402 274.96887 86.7559L275.9845 86.7559L275.9845 99.6934ZM280.32825 89.89652Q280.32825 88.52152 281.01575 87.55277Q281.71887 86.58402 283.03137 86.58402Q284.25012 86.58402 285.047 87.45902Q285.84387 88.3184 285.84387 90.0059Q285.84387 91.6309 285.03137 92.52152Q284.2345 93.39652 283.047 93.39652Q281.89075 93.39652 281.1095 92.53715Q280.32825 91.66215 280.32825 89.89652ZM283.07825 87.67777Q282.4845 87.67777 282.09387 88.1934Q281.70325 88.6934 281.70325 90.05277Q281.70325 91.30277 282.09387 91.80277Q282.50012 92.30277 283.07825 92.30277Q283.672 92.30277 284.06262 91.80277Q284.45325 91.28715 284.45325 89.9434Q284.45325 88.6934 284.06262 88.1934Q283.672 87.67777 283.07825 87.67777ZM283.09387 100.16215L290.14075 86.58402L291.422 86.58402L284.39075 100.16215L283.09387 100.16215ZM288.65637 96.66215Q288.65637 95.28715 289.34387 94.3184Q290.047 93.34965 291.37512 93.34965Q292.59387 93.34965 293.37512 94.22465Q294.172 95.08402 294.172 96.77152Q294.172 98.39652 293.37512 99.28715Q292.57825 100.16215 291.39075 100.16215Q290.21887 100.16215 289.43762 99.28715Q288.65637 98.41215 288.65637 96.66215ZM291.422 94.4434Q290.82825 94.4434 290.43762 94.95902Q290.047 95.45902 290.047 96.83402Q290.047 98.05277 290.43762 98.5684Q290.82825 99.08402 291.40637 99.08402Q292.01575 99.08402 292.40637 98.5684Q292.797 98.05277 292.797 96.70902Q292.797 95.45902 292.40637 94.95902Q292.01575 94.4434 291.422 94.4434Z" fill-rule="nonzero"/><path stroke="#ffffff" stroke-width="1.0" stroke-linejoin="round" stroke-linecap="round" d="M283.86313 170.1748C266.80862 178.38782 258.64352 198.10013 264.89542 215.96696C271.14728 233.8338 289.82144 244.15465 308.2759 239.94252C326.7304 235.73041 339.0772 218.32924 336.95782 199.51918C334.83844 180.70914 318.92908 166.49167 300.0 166.49167L300.0 54.916668C375.71628 54.916668 439.35373 111.78655 447.83127 187.02675C456.30878 262.26694 406.92163 331.87164 333.1037 348.72012C259.28577 365.56857 184.58913 324.2852 159.58162 252.81786C134.57411 181.35051 167.23454 102.50127 235.45256 69.6492" fill-rule="nonzero"/><path stroke="#ffffff" stroke-width="1.0" stroke-linejoin="round" stroke-linecap="round" d="M300.0 166.49167C294.4127 166.49167 288.89716 167.75055 283.86313 170.1748L235.45256 69.6492C255.5886 59.952198 277.6507 54.916668 300.0 54.916668" fill-rule="nonzero"/><path fill="#efefef" d="M18.51875 69.916664L22.925 58.46354L24.565624 58.46354L29.253124 69.916664L27.51875 69.916664L26.190624 66.447914L21.39375 66.447914L20.14375 69.916664L18.51875 69.916664ZM21.83125 65.21354L25.721874 65.21354L24.51875 62.041664Q23.971874 60.58854 23.70625 59.666664Q23.4875 60.760414 23.096874 61.854164L21.83125 65.21354ZM30.6125 69.916664L30.6125 61.61979L31.878124 61.61979L31.878124 62.791664Q32.784374 61.43229 34.51875 61.43229Q35.26875 61.43229 35.89375 61.697914Q36.51875 61.96354 36.83125 62.40104Q37.14375 62.83854 37.26875 63.447914Q37.346874 63.83854 37.346874 64.80729L37.346874 69.916664L35.940624 69.916664L35.940624 64.86979Q35.940624 64.010414 35.76875 63.58854Q35.6125 63.15104 35.190624 62.90104Q34.784374 62.65104 34.221874 62.65104Q33.315624 62.65104 32.659374 63.229164Q32.01875 63.791664 32.01875 65.385414L32.01875 69.916664L30.6125 69.916664ZM39.6125 60.072914L39.6125 58.46354L41.01875 58.46354L41.01875 60.072914L39.6125 60.072914ZM39.6125 69.916664L39.6125 61.61979L41.01875 61.61979L41.01875 69.916664L39.6125 69.916664ZM43.6125 69.916664L43.6125 61.61979L44.8625 61.61979L44.8625 62.77604Q45.253124 62.166664 45.89375 61.80729Q46.55 61.43229 47.378124 61.43229Q48.3 61.43229 48.89375 61.822914Q49.4875 62.197914 49.721874 62.885414Q50.70625 61.43229 52.284374 61.43229Q53.51875 61.43229 54.175 62.11979Q54.846874 62.791664 54.846874 64.21354L54.846874 69.916664L53.45625 69.916664L53.45625 64.68229Q53.45625 63.83854 53.315624 63.479164Q53.175 63.104164 52.815624 62.885414Q52.45625 62.65104 51.971874 62.65104Q51.096874 62.65104 50.51875 63.229164Q49.940624 63.80729 49.940624 65.08854L49.940624 69.916664L48.534374 69.916664L48.534374 64.52604Q48.534374 63.58854 48.190624 63.11979Q47.846874 62.65104 47.065624 62.65104Q46.471874 62.65104 45.971874 62.96354Q45.471874 63.27604 45.2375 63.885414Q45.01875 64.479164 45.01875 65.604164L45.01875 69.916664L43.6125 69.916664ZM62.01875 68.885414Q61.2375 69.55729 60.51875 69.83854Q59.8 70.104164 58.971874 70.104164Q57.596874 70.104164 56.8625 69.43229Q56.128124 68.760414 56.128124 67.729164Q56.128124 67.11979 56.409374 66.61979Q56.690624 66.104164 57.128124 65.80729Q57.58125 65.49479 58.14375 65.33854Q58.565624 65.229164 59.39375 65.135414Q61.096874 64.93229 61.909374 64.65104Q61.909374 64.354164 61.909374 64.27604Q61.909374 63.416664 61.51875 63.072914Q60.971874 62.58854 59.909374 62.58854Q58.925 62.58854 58.440624 62.947914Q57.971874 63.291664 57.753124 64.166664L56.378124 63.979164Q56.565624 63.104164 56.9875 62.55729Q57.425 62.010414 58.2375 61.729164Q59.05 61.43229 60.1125 61.43229Q61.175 61.43229 61.83125 61.68229Q62.503124 61.93229 62.815624 62.30729Q63.128124 62.68229 63.253124 63.260414Q63.33125 63.61979 63.33125 64.55729L63.33125 66.43229Q63.33125 68.40104 63.409374 68.916664Q63.503124 69.43229 63.76875 69.916664L62.3 69.916664Q62.08125 69.479164 62.01875 68.885414ZM61.909374 65.74479Q61.14375 66.05729 59.6125 66.27604Q58.7375 66.40104 58.378124 66.55729Q58.01875 66.71354 57.815624 67.02604Q57.628124 67.322914 57.628124 67.68229Q57.628124 68.24479 58.05 68.61979Q58.4875 68.99479 59.3 68.99479Q60.1125 68.99479 60.7375 68.65104Q61.378124 68.291664 61.675 67.666664Q61.909374 67.197914 61.909374 66.260414L61.909374 65.74479ZM65.58125 69.916664L65.58125 58.46354L66.9875 58.46354L66.9875 69.916664L65.58125 69.916664ZM69.05 67.43229L70.44063 67.21354Q70.55 68.05729 71.08125 68.510414Q71.62813 68.947914 72.58125 68.947914Q73.55 68.947914 74.01875 68.55729Q74.4875 68.15104 74.4875 67.61979Q74.4875 67.15104 74.08125 66.86979Q73.78438 66.68229 72.64375 66.40104Q71.09688 66.010414 70.4875 65.729164Q69.89375 65.43229 69.58125 64.93229Q69.28438 64.43229 69.28438 63.822914Q69.28438 63.260414 69.53438 62.791664Q69.78438 62.322914 70.22188 62.010414Q70.55 61.760414 71.1125 61.604164Q71.69063 61.43229 72.33125 61.43229Q73.31563 61.43229 74.05 61.71354Q74.78438 61.99479 75.12813 62.479164Q75.4875 62.947914 75.62813 63.760414L74.25313 63.947914Q74.15938 63.30729 73.70625 62.947914Q73.25313 62.58854 72.44063 62.58854Q71.47188 62.58854 71.05 62.916664Q70.64375 63.229164 70.64375 63.65104Q70.64375 63.93229 70.81563 64.15104Q70.9875 64.36979 71.34688 64.52604Q71.56563 64.604164 72.59688 64.885414Q74.08125 65.27604 74.675 65.541664Q75.26875 65.791664 75.59688 66.27604Q75.94063 66.760414 75.94063 67.479164Q75.94063 68.18229 75.51875 68.80729Q75.1125 69.416664 74.33125 69.760414Q73.56563 70.104164 72.59688 70.104164Q70.97188 70.104164 70.12813 69.43229Q69.28438 68.760414 69.05 67.43229Z" fill-rule="nonzero"/><path fill="#9e9e9e" d="M19.315624 81.96354L19.315624 80.604164L26.721874 80.604164L26.721874 81.697914Q25.628124 82.86979 24.55 84.80729Q23.4875 86.729164 22.89375 88.760414Q22.471874 90.197914 22.3625 91.916664L20.909374 91.916664Q20.940624 90.55729 21.440624 88.65104Q21.95625 86.729164 22.89375 84.96354Q23.846874 83.18229 24.925 81.96354L19.315624 81.96354ZM29.003124 91.916664L29.003124 90.30729L30.6125 90.30729L30.6125 91.916664L29.003124 91.916664ZM37.51875 91.916664L36.1125 91.916664L36.1125 82.947914Q35.596874 83.43229 34.76875 83.916664Q33.95625 84.40104 33.3 84.65104L33.3 83.291664Q34.471874 82.729164 35.346874 81.947914Q36.2375 81.15104 36.6125 80.416664L37.51875 80.416664L37.51875 91.916664ZM41.4875 83.21354Q41.4875 81.979164 42.096874 81.11979Q42.721874 80.260414 43.89375 80.260414Q44.971874 80.260414 45.675 81.041664Q46.378124 81.80729 46.378124 83.291664Q46.378124 84.74479 45.659374 85.541664Q44.95625 86.322914 43.909374 86.322914Q42.8625 86.322914 42.175 85.55729Q41.4875 84.77604 41.4875 83.21354ZM43.925 81.229164Q43.409374 81.229164 43.05 81.68229Q42.70625 82.135414 42.70625 83.354164Q42.70625 84.447914 43.05 84.90104Q43.409374 85.354164 43.925 85.354164Q44.45625 85.354164 44.8 84.90104Q45.159374 84.447914 45.159374 83.24479Q45.159374 82.135414 44.8 81.68229Q44.45625 81.229164 43.925 81.229164ZM43.940624 92.33854L50.20625 80.260414L51.346874 80.260414L45.096874 92.33854L43.940624 92.33854ZM48.89375 89.229164Q48.89375 87.99479 49.503124 87.135414Q50.128124 86.27604 51.3 86.27604Q52.378124 86.27604 53.08125 87.05729Q53.8 87.822914 53.8 89.30729Q53.8 90.760414 53.08125 91.55729Q52.3625 92.33854 51.315624 92.33854Q50.26875 92.33854 49.58125 91.55729Q48.89375 90.77604 48.89375 89.229164ZM51.346874 87.24479Q50.815624 87.24479 50.45625 87.697914Q50.1125 88.15104 50.1125 89.36979Q50.1125 90.46354 50.45625 90.916664Q50.815624 91.36979 51.33125 91.36979Q51.878124 91.36979 52.221874 90.916664Q52.565624 90.46354 52.565624 89.260414Q52.565624 88.15104 52.20625 87.697914Q51.8625 87.24479 51.346874 87.24479Z" fill-rule="nonzero"/><path stroke="#757575" stroke-width="1.0" stroke-linecap="butt" d="M18.55 75.416664L145.23334 75.416664L268.55148 65.8984" fill-rule="nonzero"/><path fill="#9e9e9e" d="M270.55148 65.8984C270.55148 64.79382 269.65607 63.898396 268.55148 63.898396C267.44693 63.898396 266.55148 64.79382 266.55148 65.8984C266.55148 67.00297 267.44693 67.8984 268.55148 67.8984C269.65607 67.8984 270.55148 67.00297 270.55148 65.8984" fill-rule="nonzero"/><path fill="#efefef" d="M531.6844 326.45L531.6844 314.9969L536.0125 314.9969Q537.15314 314.9969 537.7469 315.10626Q538.59064 315.2469 539.15314 315.6375Q539.73126 316.02814 540.075 316.7469Q540.4344 317.45 540.4344 318.3094Q540.4344 319.7625 539.4969 320.77814Q538.575 321.79376 536.1375 321.79376L533.2 321.79376L533.2 326.45L531.6844 326.45ZM533.2 320.4344L536.16876 320.4344Q537.6375 320.4344 538.2469 319.8875Q538.8719 319.34064 538.8719 318.35626Q538.8719 317.6375 538.4969 317.1219Q538.1375 316.60626 537.54376 316.45Q537.16876 316.34064 536.1375 316.34064L533.2 316.34064L533.2 320.4344ZM548.1844 323.77814L549.6375 323.95Q549.29376 325.23126 548.35626 325.9344Q547.4344 326.6375 545.9969 326.6375Q544.16876 326.6375 543.10626 325.5125Q542.04376 324.3875 542.04376 322.3719Q542.04376 320.27814 543.1219 319.1219Q544.2 317.96564 545.91876 317.96564Q547.575 317.96564 548.6219 319.10626Q549.6844 320.23126 549.6844 322.27814Q549.6844 322.40314 549.6844 322.65314L543.4969 322.65314Q543.575 324.02814 544.2625 324.7625Q544.96564 325.48126 545.9969 325.48126Q546.77814 325.48126 547.325 325.075Q547.8719 324.66876 548.1844 323.77814ZM543.575 321.4969L548.2 321.4969Q548.10626 320.45 547.66876 319.9344Q546.9969 319.1219 545.9344 319.1219Q544.96564 319.1219 544.29376 319.77814Q543.6375 320.41876 543.575 321.4969ZM550.98126 322.29376Q550.98126 319.9969 552.2625 318.8875Q553.34064 317.96564 554.8719 317.96564Q556.59064 317.96564 557.66876 319.09064Q558.7625 320.2 558.7625 322.1844Q558.7625 323.77814 558.27814 324.7Q557.79376 325.6219 556.8719 326.1375Q555.96564 326.6375 554.8719 326.6375Q553.1375 326.6375 552.0594 325.52814Q550.98126 324.40314 550.98126 322.29376ZM552.4344 322.29376Q552.4344 323.8875 553.1219 324.6844Q553.825 325.48126 554.8719 325.48126Q555.91876 325.48126 556.60626 324.6844Q557.3094 323.8875 557.3094 322.2469Q557.3094 320.71564 556.60626 319.91876Q555.91876 319.1219 554.8719 319.1219Q553.825 319.1219 553.1219 319.91876Q552.4344 320.7 552.4344 322.29376ZM560.5125 329.6375L560.5125 318.15314L561.79376 318.15314L561.79376 319.23126Q562.2469 318.59064 562.8094 318.27814Q563.3875 317.96564 564.2 317.96564Q565.2625 317.96564 566.075 318.5125Q566.8875 319.0594 567.29376 320.0594Q567.71564 321.04376 567.71564 322.23126Q567.71564 323.5125 567.2469 324.52814Q566.79376 325.54376 565.91876 326.09064Q565.0594 326.6375 564.09064 326.6375Q563.3875 326.6375 562.825 326.34064Q562.27814 326.04376 561.91876 325.59064L561.91876 329.6375L560.5125 329.6375ZM561.77814 322.34064Q561.77814 323.95 562.41876 324.71564Q563.075 325.48126 563.9969 325.48126Q564.9344 325.48126 565.60626 324.6844Q566.27814 323.8875 566.27814 322.23126Q566.27814 320.6375 565.6219 319.85626Q564.96564 319.0594 564.0594 319.0594Q563.16876 319.0594 562.46564 319.90314Q561.77814 320.7469 561.77814 322.34064ZM569.48126 326.45L569.48126 314.9969L570.8875 314.9969L570.8875 326.45L569.48126 326.45ZM579.1844 323.77814L580.6375 323.95Q580.29376 325.23126 579.35626 325.9344Q578.4344 326.6375 576.9969 326.6375Q575.16876 326.6375 574.10626 325.5125Q573.04376 324.3875 573.04376 322.3719Q573.04376 320.27814 574.1219 319.1219Q575.2 317.96564 576.91876 317.96564Q578.575 317.96564 579.6219 319.10626Q580.6844 320.23126 580.6844 322.27814Q580.6844 322.40314 580.6844 322.65314L574.4969 322.65314Q574.575 324.02814 575.2625 324.7625Q575.96564 325.48126 576.9969 325.48126Q577.77814 325.48126 578.325 325.075Q578.8719 324.66876 579.1844 323.77814ZM574.575 321.4969L579.2 321.4969Q579.10626 320.45 578.66876 319.9344Q577.9969 319.1219 576.9344 319.1219Q575.96564 319.1219 575.29376 319.77814Q574.6375 320.41876 574.575 321.4969Z" fill-rule="nonzero"/><path fill="#9e9e9e" d="M537.325 345.79376L538.6844 345.66876Q538.85626 346.6219 539.34064 347.0594Q539.825 347.48126 540.575 347.48126Q541.23126 347.48126 541.71564 347.1844Q542.2 346.8875 542.5125 346.40314Q542.825 345.90314 543.02814 345.0594Q543.2469 344.21564 543.2469 343.34064Q543.2469 343.2469 543.2469 343.0594Q542.825 343.73126 542.09064 344.15314Q541.35626 344.5594 540.5125 344.5594Q539.09064 344.5594 538.10626 343.52814Q537.1219 342.4969 537.1219 340.8094Q537.1219 339.075 538.1375 338.0125Q539.16876 336.95 540.71564 336.95Q541.84064 336.95 542.7625 337.5594Q543.6844 338.15314 544.16876 339.2625Q544.65314 340.3719 544.65314 342.48126Q544.65314 344.6844 544.16876 345.98126Q543.7 347.27814 542.7469 347.96564Q541.8094 348.65314 540.54376 348.65314Q539.2 348.65314 538.34064 347.90314Q537.4969 347.15314 537.325 345.79376ZM543.09064 340.7469Q543.09064 339.52814 542.4344 338.825Q541.79376 338.10626 540.8875 338.10626Q539.95 338.10626 539.2469 338.8719Q538.5594 339.6375 538.5594 340.85626Q538.5594 341.95 539.21564 342.6375Q539.8875 343.325 540.85626 343.325Q541.825 343.325 542.45 342.6375Q543.09064 341.95 543.09064 340.7469ZM553.5125 347.09064L553.5125 348.45L545.9344 348.45Q545.91876 347.9344 546.10626 347.46564Q546.3875 346.7 547.02814 345.95Q547.66876 345.2 548.8719 344.21564Q550.73126 342.6844 551.3875 341.79376Q552.04376 340.8875 552.04376 340.09064Q552.04376 339.2625 551.45 338.6844Q550.85626 338.10626 549.8875 338.10626Q548.8719 338.10626 548.2625 338.71564Q547.65314 339.325 547.65314 340.40314L546.2 340.2625Q546.35626 338.6375 547.325 337.79376Q548.29376 336.95 549.91876 336.95Q551.575 336.95 552.52814 337.8719Q553.4969 338.77814 553.4969 340.1219Q553.4969 340.8094 553.21564 341.48126Q552.9344 342.1375 552.27814 342.8719Q551.6219 343.60626 550.10626 344.8875Q548.84064 345.95 548.48126 346.34064Q548.1219 346.71564 547.8875 347.09064L553.5125 347.09064ZM555.90314 348.45L555.90314 346.84064L557.5125 346.84064L557.5125 348.45L555.90314 348.45ZM559.325 345.79376L560.6844 345.66876Q560.85626 346.6219 561.34064 347.0594Q561.825 347.48126 562.575 347.48126Q563.23126 347.48126 563.71564 347.1844Q564.2 346.8875 564.5125 346.40314Q564.825 345.90314 565.02814 345.0594Q565.2469 344.21564 565.2469 343.34064Q565.2469 343.2469 565.2469 343.0594Q564.825 343.73126 564.09064 344.15314Q563.35626 344.5594 562.5125 344.5594Q561.09064 344.5594 560.10626 343.52814Q559.1219 342.4969 559.1219 340.8094Q559.1219 339.075 560.1375 338.0125Q561.16876 336.95 562.71564 336.95Q563.84064 336.95 564.7625 337.5594Q565.6844 338.15314 566.16876 339.2625Q566.65314 340.3719 566.65314 342.48126Q566.65314 344.6844 566.16876 345.98126Q565.7 347.27814 564.7469 347.96564Q563.8094 348.65314 562.54376 348.65314Q561.2 348.65314 560.34064 347.90314Q559.4969 347.15314 559.325 345.79376ZM565.09064 340.7469Q565.09064 339.52814 564.4344 338.825Q563.79376 338.10626 562.8875 338.10626Q561.95 338.10626 561.2469 338.8719Q560.5594 339.6375 560.5594 340.85626Q560.5594 341.95 561.21564 342.6375Q561.8875 343.325 562.85626 343.325Q563.825 343.325 564.45 342.6375Q565.09064 341.95 565.09064 340.7469ZM568.3875 339.7469Q568.3875 338.5125 568.9969 337.65314Q569.6219 336.79376 570.79376 336.79376Q571.8719 336.79376 572.575 337.575Q573.27814 338.34064 573.27814 339.825Q573.27814 341.27814 572.5594 342.075Q571.85626 342.85626 570.8094 342.85626Q569.7625 342.85626 569.075 342.09064Q568.3875 341.3094 568.3875 339.7469ZM570.825 337.7625Q570.3094 337.7625 569.95 338.21564Q569.60626 338.66876 569.60626 339.8875Q569.60626 340.98126 569.95 341.4344Q570.3094 341.8875 570.825 341.8875Q571.35626 341.8875 571.7 341.4344Q572.0594 340.98126 572.0594 339.77814Q572.0594 338.66876 571.7 338.21564Q571.35626 337.7625 570.825 337.7625ZM570.84064 348.8719L577.10626 336.79376L578.2469 336.79376L571.9969 348.8719L570.84064 348.8719ZM575.79376 345.7625Q575.79376 344.52814 576.40314 343.66876Q577.02814 342.8094 578.2 342.8094Q579.27814 342.8094 579.98126 343.59064Q580.7 344.35626 580.7 345.84064Q580.7 347.29376 579.98126 348.09064Q579.2625 348.8719 578.21564 348.8719Q577.16876 348.8719 576.48126 348.09064Q575.79376 347.3094 575.79376 345.7625ZM578.2469 343.77814Q577.71564 343.77814 577.35626 344.23126Q577.0125 344.6844 577.0125 345.90314Q577.0125 346.9969 577.35626 347.45Q577.71564 347.90314 578.23126 347.90314Q578.77814 347.90314 579.1219 347.45Q579.46564 346.9969 579.46564 345.79376Q579.46564 344.6844 579.10626 344.23126Q578.7625 343.77814 578.2469 343.77814Z" fill-rule="nonzero"/><path stroke="#757575" stroke-width="1.0" stroke-linecap="butt" d="M581.45 331.95L454.76666 331.95L331.44852 341.46826" fill-rule="nonzero"/><path fill="#9e9e9e" d="M333.44852 341.46826C333.44852 340.3637 332.55307 339.46826 331.44852 339.46826C330.34393 339.46826 329.44852 340.3637 329.44852 341.46826C329.44852 342.57285 330.34393 343.46826 331.44852 343.46826C332.55307 343.46826 333.44852 342.57285 333.44852 341.46826" fill-rule="nonzero"/><path fill="#f3f3f3" d="M265.98438 37.55L265.98438 23.2375L268.84375 23.2375L272.21875 33.3625Q272.6875 34.784374 272.90625 35.4875Q273.15625 34.70625 273.67188 33.190624L277.09375 23.2375L279.64062 23.2375L279.64062 37.55L277.82812 37.55L277.82812 25.565624L273.65625 37.55L271.95312 37.55L267.8125 25.3625L267.8125 37.55L265.98438 37.55ZM289.92188 34.20625L291.73438 34.440624Q291.3125 36.01875 290.14062 36.909374Q288.98438 37.784374 287.17188 37.784374Q284.90625 37.784374 283.5625 36.39375Q282.23438 34.9875 282.23438 32.45625Q282.23438 29.83125 283.57812 28.39375Q284.92188 26.940624 287.07812 26.940624Q289.15625 26.940624 290.46875 28.3625Q291.79688 29.76875 291.79688 32.346874Q291.79688 32.503124 291.78125 32.815624L284.04688 32.815624Q284.14062 34.51875 285.01562 35.425Q285.89062 36.33125 287.1875 36.33125Q288.15625 36.33125 288.82812 35.83125Q289.51562 35.315624 289.92188 34.20625ZM284.14062 31.3625L289.9375 31.3625Q289.82812 30.065624 289.28125 29.409374Q288.4375 28.39375 287.09375 28.39375Q285.89062 28.39375 285.0625 29.20625Q284.23438 30.003124 284.14062 31.3625ZM300.54688 37.55L300.54688 36.2375Q299.5625 37.784374 297.64062 37.784374Q296.40625 37.784374 295.35938 37.096874Q294.32812 36.409374 293.75 35.190624Q293.1875 33.971874 293.1875 32.378124Q293.1875 30.815624 293.70312 29.55Q294.21875 28.284374 295.25 27.6125Q296.29688 26.940624 297.5625 26.940624Q298.5 26.940624 299.23438 27.346874Q299.96875 27.7375 300.4375 28.3625L300.4375 23.2375L302.17188 23.2375L302.17188 37.55L300.54688 37.55ZM294.98438 32.378124Q294.98438 34.3625 295.82812 35.346874Q296.67188 36.33125 297.8125 36.33125Q298.96875 36.33125 299.76562 35.39375Q300.57812 34.45625 300.57812 32.51875Q300.57812 30.39375 299.75 29.39375Q298.9375 28.39375 297.73438 28.39375Q296.5625 28.39375 295.76562 29.3625Q294.98438 30.315624 294.98438 32.378124ZM304.82812 25.253124L304.82812 23.2375L306.59375 23.2375L306.59375 25.253124L304.82812 25.253124ZM304.82812 37.55L304.82812 27.175L306.59375 27.175L306.59375 37.55L304.82812 37.55ZM315.60938 37.55L315.60938 36.01875Q314.40625 37.784374 312.32812 37.784374Q311.40625 37.784374 310.60938 37.440624Q309.8125 37.08125 309.42188 36.55Q309.04688 36.01875 308.89062 35.2375Q308.78125 34.721874 308.78125 33.596874L308.78125 27.175L310.53125 27.175L310.53125 32.925Q310.53125 34.3 310.64062 34.784374Q310.8125 35.471874 311.34375 35.878124Q311.89062 36.26875 312.67188 36.26875Q313.46875 36.26875 314.15625 35.8625Q314.85938 35.45625 315.14062 34.76875Q315.4375 34.065624 315.4375 32.7375L315.4375 27.175L317.1875 27.175L317.1875 37.55L315.60938 37.55ZM319.8125 37.55L319.8125 27.175L321.39062 27.175L321.39062 28.628124Q321.875 27.878124 322.6875 27.409374Q323.5 26.940624 324.53125 26.940624Q325.6875 26.940624 326.42188 27.425Q327.15625 27.89375 327.46875 28.753124Q328.70312 26.940624 330.67188 26.940624Q332.21875 26.940624 333.04688 27.8Q333.875 28.659374 333.875 30.425L333.875 37.55L332.125 37.55L332.125 31.01875Q332.125 29.95625 331.95312 29.503124Q331.78125 29.034374 331.32812 28.753124Q330.89062 28.471874 330.28125 28.471874Q329.1875 28.471874 328.45312 29.20625Q327.73438 29.925 327.73438 31.51875L327.73438 37.55L325.98438 37.55L325.98438 30.815624Q325.98438 29.64375 325.54688 29.065624Q325.125 28.471874 324.14062 28.471874Q323.40625 28.471874 322.76562 28.8625Q322.14062 29.253124 321.85938 30.003124Q321.57812 30.753124 321.57812 32.175L321.57812 37.55L319.8125 37.55Z" fill-rule="nonzero"/></svg>