<svg version="1.1" viewBox="0.0 0.0 600.0 371.0" fill="none" stroke="none" stroke-linecap="square" stroke-miterlimit="10" width="600" height="371" xmlns:xlink="http://www.w3.org/1999/xlink" xmlns="http://www.w3.org/2000/svg"><path fill="#ffffff" fill-opacity="0.0" d="M0 0L600.0 0L600.0 371.0L0 371.0L0 0Z" fill-rule="nonzero"/><path fill="#2d4d98" d="M181.97546 113.11993C210.1307 76.42731 253.74997 54.916668 300.0 54.916668L300.0 129.3C276.875 129.3 255.06535 140.05533 240.98773 158.40163Z" fill-rule="nonzero"/><path fill="#4571b0" d="M152.50606 184.26538C155.91461 158.37479 166.07826 133.83755 181.97546 113.11993L240.98773 158.40163C233.03914 168.76045 227.9573 181.02907 226.25302 193.97437Z" fill-rule="nonzero"/><path fill="#b3ca48" d="M152.50606 223.10127C150.8091 210.2116 150.8091 197.15508 152.50606 184.26538L226.25302 193.97437C225.40454 200.4192 225.40454 206.94746 226.25302 213.3923Z" fill-rule="nonzero"/><path fill="#f5ee58" d="M162.55753 260.61386C157.58229 248.6026 154.20302 235.99097 152.50606 223.10127L226.25302 213.3923C227.1015 219.83714 228.79114 226.14296 231.27876 232.1486Z" fill-rule="nonzero"/><path fill="#f7d750" d="M300.0 54.916668C374.65573 54.916668 437.74942 110.24833 447.49396 184.26538C457.23846 258.28244 410.61557 328.05856 338.50363 347.3809C266.39172 366.70322 191.12704 329.5868 162.55753 260.61386L231.27876 232.1486C245.56352 266.63507 283.19586 285.19327 319.25183 275.5321C355.30777 265.87094 378.61923 230.9829 373.74698 193.97437C368.8747 156.96584 337.32788 129.3 300.0 129.3Z" fill-rule="nonzero"/><path fill="#ffffff" d="M376.22433 262.4367L374.66183 262.5617Q374.44308 261.63983 374.05246 261.21796Q373.41183 260.53046 372.47433 260.53046Q371.72433 260.53046 371.1462 260.95233Q370.3962 261.4992 369.9587 262.54608Q369.53683 263.59296 369.5212 265.53046Q370.09933 264.65546 370.91183 264.23358Q371.73996 263.8117 372.6462 263.8117Q374.23996 263.8117 375.34933 264.98358Q376.4587 266.13983 376.4587 267.98358Q376.4587 269.20233 375.92746 270.2492Q375.41183 271.28046 374.48996 271.84296Q373.5837 272.38983 372.42746 272.38983Q370.44308 272.38983 369.19308 270.9367Q367.94308 269.48358 367.94308 266.13983Q367.94308 262.40546 369.3337 260.70233Q370.53683 259.23358 372.56808 259.23358Q374.09933 259.23358 375.06808 260.09296Q376.03683 260.9367 376.22433 262.4367ZM369.7712 267.9992Q369.7712 268.8117 370.11496 269.5617Q370.4587 270.3117 371.0837 270.70233Q371.7087 271.09296 372.3962 271.09296Q373.3962 271.09296 374.11496 270.28046Q374.8337 269.46796 374.8337 268.07733Q374.8337 266.7492 374.11496 265.98358Q373.41183 265.20233 372.3337 265.20233Q371.25558 265.20233 370.50558 265.98358Q369.7712 266.7492 369.7712 267.9992ZM380.4587 265.1867Q379.47433 264.82733 378.98996 264.15546Q378.5212 263.48358 378.5212 262.5617Q378.5212 261.15546 379.5212 260.20233Q380.53683 259.23358 382.22433 259.23358Q383.91183 259.23358 384.92746 260.21796Q385.9587 261.1867 385.9587 262.59296Q385.9587 263.4992 385.48996 264.17108Q385.0212 264.82733 384.06808 265.1867Q385.25558 265.57733 385.86496 266.4367Q386.48996 267.29608 386.48996 268.48358Q386.48996 270.13983 385.31808 271.26483Q384.1462 272.38983 382.23996 272.38983Q380.3337 272.38983 379.16183 271.26483Q378.00558 270.1242 378.00558 268.4367Q378.00558 267.1867 378.63058 266.34296Q379.2712 265.48358 380.4587 265.1867ZM380.13058 262.4992Q380.13058 263.42108 380.72433 263.9992Q381.31808 264.57733 382.25558 264.57733Q383.16183 264.57733 383.73996 263.9992Q384.3337 263.42108 384.3337 262.59296Q384.3337 261.71796 383.72433 261.1242Q383.13058 260.53046 382.23996 260.53046Q381.3337 260.53046 380.72433 261.10858Q380.13058 261.6867 380.13058 262.4992ZM379.63058 268.45233Q379.63058 269.1242 379.94308 269.76483Q380.2712 270.38983 380.8962 270.7492Q381.53683 271.09296 382.2712 271.09296Q383.3962 271.09296 384.13058 270.35858Q384.88058 269.6242 384.88058 268.4992Q384.88058 267.35858 384.11496 266.6242Q383.34933 265.8742 382.2087 265.8742Q381.09933 265.8742 380.36496 266.60858Q379.63058 267.34296 379.63058 268.45233ZM388.91183 272.17108L388.91183 270.3742L390.7087 270.3742L390.7087 272.17108L388.91183 272.17108ZM395.4587 265.1867Q394.47433 264.82733 393.98996 264.15546Q393.5212 263.48358 393.5212 262.5617Q393.5212 261.15546 394.5212 260.20233Q395.53683 259.23358 397.22433 259.23358Q398.91183 259.23358 399.92746 260.21796Q400.9587 261.1867 400.9587 262.59296Q400.9587 263.4992 400.48996 264.17108Q400.0212 264.82733 399.06808 265.1867Q400.25558 265.57733 400.86496 266.4367Q401.48996 267.29608 401.48996 268.48358Q401.48996 270.13983 400.31808 271.26483Q399.1462 272.38983 397.23996 272.38983Q395.3337 272.38983 394.16183 271.26483Q393.00558 270.1242 393.00558 268.4367Q393.00558 267.1867 393.63058 266.34296Q394.2712 265.48358 395.4587 265.1867ZM395.13058 262.4992Q395.13058 263.42108 395.72433 263.9992Q396.31808 264.57733 397.25558 264.57733Q398.16183 264.57733 398.73996 263.9992Q399.3337 263.42108 399.3337 262.59296Q399.3337 261.71796 398.72433 261.1242Q398.13058 260.53046 397.23996 260.53046Q396.3337 260.53046 395.72433 261.10858Q395.13058 261.6867 395.13058 262.4992ZM394.63058 268.45233Q394.63058 269.1242 394.94308 269.76483Q395.2712 270.38983 395.8962 270.7492Q396.53683 271.09296 397.2712 271.09296Q398.3962 271.09296 399.13058 270.35858Q399.88058 269.6242 399.88058 268.4992Q399.88058 267.35858 399.11496 266.6242Q398.34933 265.8742 397.2087 265.8742Q396.09933 265.8742 395.36496 266.60858Q394.63058 267.34296 394.63058 268.45233ZM403.31808 262.3742Q403.31808 260.9992 404.00558 260.03046Q404.7087 259.0617 406.0212 259.0617Q407.23996 259.0617 408.03683 259.9367Q408.8337 260.79608 408.8337 262.48358Q408.8337 264.10858 408.0212 264.9992Q407.22433 265.8742 406.03683 265.8742Q404.88058 265.8742 404.09933 265.01483Q403.31808 264.13983 403.31808 262.3742ZM406.06808 260.15546Q405.47433 260.15546 405.0837 260.67108Q404.69308 261.17108 404.69308 262.53046Q404.69308 263.78046 405.0837 264.28046Q405.48996 264.78046 406.06808 264.78046Q406.66183 264.78046 407.05246 264.28046Q407.44308 263.76483 407.44308 262.42108Q407.44308 261.17108 407.05246 260.67108Q406.66183 260.15546 406.06808 260.15546ZM406.0837 272.63983L413.13058 259.0617L414.41183 259.0617L407.38058 272.63983L406.0837 272.63983ZM411.6462 269.13983Q411.6462 267.76483 412.3337 266.79608Q413.03683 265.82733 414.36496 265.82733Q415.5837 265.82733 416.36496 266.70233Q417.16183 267.5617 417.16183 269.2492Q417.16183 270.8742 416.36496 271.76483Q415.56808 272.63983 414.38058 272.63983Q413.2087 272.63983 412.42746 271.76483Q411.6462 270.88983 411.6462 269.13983ZM414.41183 266.92108Q413.81808 266.92108 413.42746 267.4367Q413.03683 267.9367 413.03683 269.3117Q413.03683 270.53046 413.42746 271.04608Q413.81808 271.5617 414.3962 271.5617Q415.00558 271.5617 415.3962 271.04608Q415.78683 270.53046 415.78683 269.1867Q415.78683 267.9367 415.3962 267.4367Q415.00558 266.92108 414.41183 266.92108Z" fill-rule="nonzero"/><path fill="#ffffff" d="M173.7375 210.18333L173.7375 207.10521L168.15938 207.10521L168.15938 205.65208L174.03438 197.29271L175.33125 197.29271L175.33125 205.65208L177.06563 205.65208L177.06563 207.10521L175.33125 207.10521L175.33125 210.18333L173.7375 210.18333ZM173.7375 205.65208L173.7375 199.83958L169.70625 205.65208L173.7375 205.65208ZM179.56563 210.18333L179.56563 208.38646L181.3625 208.38646L181.3625 210.18333L179.56563 210.18333ZM191.9875 208.66771L191.9875 210.18333L183.47188 210.18333Q183.45625 209.60521 183.65938 209.08958Q183.9875 208.21458 184.69063 207.37083Q185.40938 206.52708 186.76875 205.41771Q188.8625 203.69896 189.59688 202.69896Q190.34688 201.68333 190.34688 200.79271Q190.34688 199.83958 189.675 199.19896Q189.00313 198.55833 187.925 198.55833Q186.76875 198.55833 186.08125 199.24583Q185.40938 199.93333 185.39375 201.13646L183.76875 200.96458Q183.94063 199.15208 185.01875 198.19896Q186.1125 197.24583 187.95625 197.24583Q189.8 197.24583 190.87813 198.27708Q191.97188 199.30833 191.97188 200.82396Q191.97188 201.58958 191.64375 202.33958Q191.33125 203.08958 190.59688 203.91771Q189.8625 204.74583 188.15938 206.18333Q186.7375 207.38646 186.33125 207.80833Q185.925 208.23021 185.675 208.66771L191.9875 208.66771ZM193.97188 200.38646Q193.97188 199.01146 194.65938 198.04271Q195.3625 197.07396 196.675 197.07396Q197.89375 197.07396 198.69063 197.94896Q199.4875 198.80833 199.4875 200.49583Q199.4875 202.12083 198.675 203.01146Q197.87813 203.88646 196.69063 203.88646Q195.53438 203.88646 194.75313 203.02708Q193.97188 202.15208 193.97188 200.38646ZM196.72188 198.16771Q196.12813 198.16771 195.7375 198.68333Q195.34688 199.18333 195.34688 200.54271Q195.34688 201.79271 195.7375 202.29271Q196.14375 202.79271 196.72188 202.79271Q197.31563 202.79271 197.70625 202.29271Q198.09688 201.77708 198.09688 200.43333Q198.09688 199.18333 197.70625 198.68333Q197.31563 198.16771 196.72188 198.16771ZM196.7375 210.65208L203.78438 197.07396L205.06563 197.07396L198.03438 210.65208L196.7375 210.65208ZM202.3 207.15208Q202.3 205.77708 202.9875 204.80833Q203.69063 203.83958 205.01875 203.83958Q206.2375 203.83958 207.01875 204.71458Q207.81563 205.57396 207.81563 207.26146Q207.81563 208.88646 207.01875 209.77708Q206.22188 210.65208 205.03438 210.65208Q203.8625 210.65208 203.08125 209.77708Q202.3 208.90208 202.3 207.15208ZM205.06563 204.93333Q204.47188 204.93333 204.08125 205.44896Q203.69063 205.94896 203.69063 207.32396Q203.69063 208.54271 204.08125 209.05833Q204.47188 209.57396 205.05 209.57396Q205.65938 209.57396 206.05 209.05833Q206.44063 208.54271 206.44063 207.19896Q206.44063 205.94896 206.05 205.44896Q205.65938 204.93333 205.06563 204.93333Z" fill-rule="nonzero"/><path fill="#ffffff" d="M179.60564 160.50105Q178.62126 160.14168 178.13689 159.4698Q177.66814 158.79793 177.66814 157.87605Q177.66814 156.4698 178.66814 155.51668Q179.68376 154.54793 181.37126 154.54793Q183.05876 154.54793 184.07439 155.5323Q185.10564 156.50105 185.10564 157.9073Q185.10564 158.81355 184.63689 159.48543Q184.16814 160.14168 183.21501 160.50105Q184.40251 160.89168 185.01189 161.75105Q185.63689 162.61043 185.63689 163.79793Q185.63689 165.45418 184.46501 166.57918Q183.29314 167.70418 181.38689 167.70418Q179.48064 167.70418 178.30876 166.57918Q177.15251 165.43855 177.15251 163.75105Q177.15251 162.50105 177.77751 161.6573Q178.41814 160.79793 179.60564 160.50105ZM179.27751 157.81355Q179.27751 158.73543 179.87126 159.31355Q180.46501 159.89168 181.40251 159.89168Q182.30876 159.89168 182.88689 159.31355Q183.48064 158.73543 183.48064 157.9073Q183.48064 157.0323 182.87126 156.43855Q182.27751 155.8448 181.38689 155.8448Q180.48064 155.8448 179.87126 156.42293Q179.27751 157.00105 179.27751 157.81355ZM178.77751 163.76668Q178.77751 164.43855 179.09001 165.07918Q179.41814 165.70418 180.04314 166.06355Q180.68376 166.4073 181.41814 166.4073Q182.54314 166.4073 183.27751 165.67293Q184.02751 164.93855 184.02751 163.81355Q184.02751 162.67293 183.26189 161.93855Q182.49626 161.18855 181.35564 161.18855Q180.24626 161.18855 179.51189 161.92293Q178.77751 162.6573 178.77751 163.76668ZM188.05876 167.48543L188.05876 165.68855L189.85564 165.68855L189.85564 167.48543L188.05876 167.48543ZM192.16814 164.07918L193.76189 163.87605Q194.02751 165.2198 194.68376 165.81355Q195.34001 166.4073 196.27751 166.4073Q197.40251 166.4073 198.16814 165.64168Q198.93376 164.86043 198.93376 163.7198Q198.93376 162.62605 198.21501 161.92293Q197.51189 161.20418 196.41814 161.20418Q195.96501 161.20418 195.29314 161.39168L195.46501 160.00105Q195.62126 160.01668 195.73064 160.01668Q196.73064 160.01668 197.54314 159.48543Q198.35564 158.95418 198.35564 157.86043Q198.35564 156.98543 197.76189 156.42293Q197.16814 155.8448 196.24626 155.8448Q195.32439 155.8448 194.69939 156.42293Q194.09001 157.00105 193.91814 158.17293L192.34001 157.89168Q192.62126 156.29793 193.65251 155.42293Q194.68376 154.54793 196.21501 154.54793Q197.26189 154.54793 198.15251 155.00105Q199.04314 155.45418 199.51189 156.23543Q199.98064 157.01668 199.98064 157.89168Q199.98064 158.73543 199.52751 159.42293Q199.09001 160.0948 198.19939 160.50105Q199.34001 160.76668 199.96501 161.61043Q200.60564 162.43855 200.60564 163.67293Q200.60564 165.36043 199.37126 166.54793Q198.15251 167.7198 196.27751 167.7198Q194.57439 167.7198 193.44939 166.70418Q192.34001 165.68855 192.16814 164.07918ZM202.46501 157.68855Q202.46501 156.31355 203.15251 155.3448Q203.85564 154.37605 205.16814 154.37605Q206.38689 154.37605 207.18376 155.25105Q207.98064 156.11043 207.98064 157.79793Q207.98064 159.42293 207.16814 160.31355Q206.37126 161.18855 205.18376 161.18855Q204.02751 161.18855 203.24626 160.32918Q202.46501 159.45418 202.46501 157.68855ZM205.21501 155.4698Q204.62126 155.4698 204.23064 155.98543Q203.84001 156.48543 203.84001 157.8448Q203.84001 159.0948 204.23064 159.5948Q204.63689 160.0948 205.21501 160.0948Q205.80876 160.0948 206.19939 159.5948Q206.59001 159.07918 206.59001 157.73543Q206.59001 156.48543 206.19939 155.98543Q205.80876 155.4698 205.21501 155.4698ZM205.23064 167.95418L212.27751 154.37605L213.55876 154.37605L206.52751 167.95418L205.23064 167.95418ZM210.79314 164.45418Q210.79314 163.07918 211.48064 162.11043Q212.18376 161.14168 213.51189 161.14168Q214.73064 161.14168 215.51189 162.01668Q216.30876 162.87605 216.30876 164.56355Q216.30876 166.18855 215.51189 167.07918Q214.71501 167.95418 213.52751 167.95418Q212.35564 167.95418 211.57439 167.07918Q210.79314 166.20418 210.79314 164.45418ZM213.55876 162.23543Q212.96501 162.23543 212.57439 162.75105Q212.18376 163.25105 212.18376 164.62605Q212.18376 165.8448 212.57439 166.36043Q212.96501 166.87605 213.54314 166.87605Q214.15251 166.87605 214.54314 166.36043Q214.93376 165.8448 214.93376 164.50105Q214.93376 163.25105 214.54314 162.75105Q214.15251 162.23543 213.55876 162.23543Z" fill-rule="nonzero"/><path fill="#ffffff" d="M231.85477 110.11475L230.27664 110.11475L230.27664 100.03663Q229.69852 100.5835 228.77664 101.13038Q227.85477 101.66163 227.10477 101.94288L227.10477 100.41163Q228.43289 99.78663 229.43289 98.896Q230.43289 98.00538 230.83914 97.17725L231.85477 97.17725L231.85477 110.11475ZM240.96414 110.11475L240.96414 107.03663L235.38602 107.03663L235.38602 105.5835L241.26102 97.22413L242.55789 97.22413L242.55789 105.5835L244.29227 105.5835L244.29227 107.03663L242.55789 107.03663L242.55789 110.11475L240.96414 110.11475ZM240.96414 105.5835L240.96414 99.771L236.93289 105.5835L240.96414 105.5835ZM246.79227 110.11475L246.79227 108.31788L248.58914 108.31788L248.58914 110.11475L246.79227 110.11475ZM259.10477 100.38038L257.54227 100.50538Q257.32352 99.5835 256.9329 99.16163Q256.29227 98.47413 255.35477 98.47413Q254.60477 98.47413 254.02664 98.896Q253.27664 99.44288 252.83914 100.48975Q252.41727 101.53663 252.40164 103.47413Q252.97977 102.59913 253.79227 102.17725Q254.62039 101.75538 255.52664 101.75538Q257.1204 101.75538 258.22977 102.92725Q259.33914 104.0835 259.33914 105.92725Q259.33914 107.146 258.8079 108.19288Q258.29227 109.22413 257.3704 109.78663Q256.46414 110.3335 255.30789 110.3335Q253.32352 110.3335 252.07352 108.88038Q250.82352 107.42725 250.82352 104.0835Q250.82352 100.34913 252.21414 98.646Q253.41727 97.17725 255.44852 97.17725Q256.97977 97.17725 257.94852 98.03663Q258.91727 98.88038 259.10477 100.38038ZM252.65164 105.94288Q252.65164 106.75538 252.99539 107.50538Q253.33914 108.25538 253.96414 108.646Q254.58914 109.03663 255.27664 109.03663Q256.27664 109.03663 256.9954 108.22413Q257.71414 107.41163 257.71414 106.021Q257.71414 104.69288 256.9954 103.92725Q256.29227 103.146 255.21414 103.146Q254.13602 103.146 253.38602 103.92725Q252.65164 104.69288 252.65164 105.94288ZM261.19852 100.31788Q261.19852 98.94288 261.88602 97.97413Q262.58914 97.00538 263.90164 97.00538Q265.1204 97.00538 265.91727 97.88038Q266.71414 98.73975 266.71414 100.42725Q266.71414 102.05225 265.90164 102.94288Q265.10477 103.81788 263.91727 103.81788Q262.76102 103.81788 261.97977 102.9585Q261.19852 102.0835 261.19852 100.31788ZM263.94852 98.09913Q263.35477 98.09913 262.96414 98.61475Q262.57352 99.11475 262.57352 100.47413Q262.57352 101.72413 262.96414 102.22413Q263.3704 102.72413 263.94852 102.72413Q264.54227 102.72413 264.9329 102.22413Q265.32352 101.7085 265.32352 100.36475Q265.32352 99.11475 264.9329 98.61475Q264.54227 98.09913 263.94852 98.09913ZM263.96414 110.5835L271.01102 97.00538L272.29227 97.00538L265.26102 110.5835L263.96414 110.5835ZM269.52664 107.0835Q269.52664 105.7085 270.21414 104.73975Q270.91727 103.771 272.2454 103.771Q273.46414 103.771 274.2454 104.646Q275.04227 105.50538 275.04227 107.19288Q275.04227 108.81788 274.2454 109.7085Q273.44852 110.5835 272.26102 110.5835Q271.08914 110.5835 270.3079 109.7085Q269.52664 108.8335 269.52664 107.0835ZM272.29227 104.86475Q271.69852 104.86475 271.3079 105.38038Q270.91727 105.88038 270.91727 107.25538Q270.91727 108.47413 271.3079 108.98975Q271.69852 109.50538 272.27664 109.50538Q272.88602 109.50538 273.27664 108.98975Q273.66727 108.47413 273.66727 107.13038Q273.66727 105.88038 273.27664 105.38038Q272.88602 104.86475 272.29227 104.86475Z" fill-rule="nonzero"/><path stroke="#ffffff" stroke-width="1.0" stroke-linejoin="round" stroke-linecap="round" d="M231.27876 232.1486C245.56352 266.63507 283.19586 285.19327 319.25183 275.5321C355.30777 265.87094 378.61923 230.9829 373.74698 193.97437C368.8747 156.96584 337.32788 129.3 300.0 129.3L300.0 54.916668C374.65573 54.916668 437.74942 110.24833 447.49396 184.26538C457.23846 258.28244 410.61557 328.05856 338.50363 347.3809C266.39172 366.70322 191.12704 329.5868 162.55753 260.61386" fill-rule="nonzero"/><path stroke="#ffffff" stroke-width="1.0" stroke-linejoin="round" stroke-linecap="round" d="M226.25302 213.3923C227.1015 219.83714 228.79114 226.14296 231.27876 232.1486L162.55753 260.61386C157.58229 248.6026 154.20302 235.99097 152.50606 223.10127" fill-rule="nonzero"/><path stroke="#ffffff" stroke-width="1.0" stroke-linejoin="round" stroke-linecap="round" d="M226.25302 193.97437C225.40454 200.4192 225.40454 206.94746 226.25302 213.3923L152.50606 223.10127C150.8091 210.2116 150.8091 197.15508 152.50606 184.26538" fill-rule="nonzero"/><path stroke="#ffffff" stroke-width="1.0" stroke-linejoin="round" stroke-linecap="round" d="M240.98773 158.40163C233.03914 168.76045 227.9573 181.02907 226.25302 193.97437L152.50606 184.26538C155.91461 158.37479 166.07826 133.83755 181.97546 113.11993" fill-rule="nonzero"/><path stroke="#ffffff" stroke-width="1.0" stroke-linejoin="round" stroke-linecap="round" d="M300.0 129.3C276.875 129.3 255.06535 140.05533 240.98773 158.40163L181.97546 113.11993C210.1307 76.42731 253.74997 54.916668 300.0 54.916668" fill-rule="nonzero"/><path fill="#efefef" d="M19.784374 71.4298L19.784374 59.976677L23.7375 59.976677Q25.065624 59.976677 25.76875 60.132927Q26.753124 60.367302 27.45625 60.961052Q28.3625 61.726677 28.8 62.914177Q29.253124 64.10168 29.253124 65.63293Q29.253124 66.94543 28.940624 67.96105Q28.64375 68.96105 28.159374 69.6173Q27.690624 70.27355 27.128124 70.66418Q26.565624 71.03918 25.753124 71.2423Q24.95625 71.4298 23.925 71.4298L19.784374 71.4298ZM21.3 70.07043L23.753124 70.07043Q24.878124 70.07043 25.51875 69.8673Q26.175 69.64855 26.55 69.27355Q27.096874 68.72668 27.39375 67.82043Q27.690624 66.91418 27.690624 65.6173Q27.690624 63.820427 27.096874 62.851677Q26.51875 61.882927 25.675 61.554802Q25.065624 61.320427 23.70625 61.320427L21.3 61.320427L21.3 70.07043ZM31.6125 61.586052L31.6125 59.976677L33.01875 59.976677L33.01875 61.586052L31.6125 61.586052ZM31.6125 71.4298L31.6125 63.132927L33.01875 63.132927L33.01875 71.4298L31.6125 71.4298ZM35.6125 74.6173L35.6125 63.132927L36.89375 63.132927L36.89375 64.21105Q37.346874 63.570427 37.909374 63.257927Q38.4875 62.945427 39.3 62.945427Q40.3625 62.945427 41.175 63.492302Q41.9875 64.03918 42.39375 65.03918Q42.815624 66.02355 42.815624 67.21105Q42.815624 68.4923 42.346874 69.50793Q41.89375 70.52355 41.01875 71.07043Q40.159374 71.6173 39.190624 71.6173Q38.4875 71.6173 37.925 71.32043Q37.378124 71.02355 37.01875 70.57043L37.01875 74.6173L35.6125 74.6173ZM36.878124 67.32043Q36.878124 68.9298 37.51875 69.69543Q38.175 70.46105 39.096874 70.46105Q40.034374 70.46105 40.70625 69.66418Q41.378124 68.8673 41.378124 67.21105Q41.378124 65.6173 40.721874 64.83605Q40.065624 64.03918 39.159374 64.03918Q38.26875 64.03918 37.565624 64.88293Q36.878124 65.72668 36.878124 67.32043ZM44.58125 71.4298L44.58125 59.976677L45.9875 59.976677L45.9875 71.4298L44.58125 71.4298ZM48.08125 67.27355Q48.08125 64.97668 49.3625 63.867302Q50.440624 62.945427 51.971874 62.945427Q53.690624 62.945427 54.76875 64.07043Q55.8625 65.1798 55.8625 67.16418Q55.8625 68.75793 55.378124 69.6798Q54.89375 70.60168 53.971874 71.1173Q53.065624 71.6173 51.971874 71.6173Q50.2375 71.6173 49.159374 70.50793Q48.08125 69.38293 48.08125 67.27355ZM49.534374 67.27355Q49.534374 68.8673 50.221874 69.66418Q50.925 70.46105 51.971874 70.46105Q53.01875 70.46105 53.70625 69.66418Q54.409374 68.8673 54.409374 67.22668Q54.409374 65.69543 53.70625 64.89855Q53.01875 64.10168 51.971874 64.10168Q50.925 64.10168 50.221874 64.89855Q49.534374 65.6798 49.534374 67.27355ZM57.6125 71.4298L57.6125 63.132927L58.8625 63.132927L58.8625 64.28918Q59.253124 63.679802 59.89375 63.320427Q60.55 62.945427 61.378124 62.945427Q62.3 62.945427 62.89375 63.336052Q63.4875 63.711052 63.721874 64.39855Q64.70625 62.945427 66.28438 62.945427Q67.51875 62.945427 68.175 63.632927Q68.84688 64.3048 68.84688 65.72668L68.84688 71.4298L67.45625 71.4298L67.45625 66.19543Q67.45625 65.35168 67.31563 64.9923Q67.175 64.6173 66.81563 64.39855Q66.45625 64.16418 65.97188 64.16418Q65.09688 64.16418 64.51875 64.7423Q63.940624 65.32043 63.940624 66.60168L63.940624 71.4298L62.534374 71.4298L62.534374 66.03918Q62.534374 65.10168 62.190624 64.63293Q61.846874 64.16418 61.065624 64.16418Q60.471874 64.16418 59.971874 64.47668Q59.471874 64.78918 59.2375 65.39855Q59.01875 65.9923 59.01875 67.1173L59.01875 71.4298L57.6125 71.4298ZM76.01875 70.39855Q75.2375 71.07043 74.51875 71.35168Q73.8 71.6173 72.97188 71.6173Q71.59688 71.6173 70.8625 70.94543Q70.12813 70.27355 70.12813 69.2423Q70.12813 68.63293 70.40938 68.13293Q70.69063 67.6173 71.12813 67.32043Q71.58125 67.00793 72.14375 66.85168Q72.56563 66.7423 73.39375 66.64855Q75.09688 66.44543 75.90938 66.16418Q75.90938 65.8673 75.90938 65.78918Q75.90938 64.9298 75.51875 64.58605Q74.97188 64.10168 73.90938 64.10168Q72.925 64.10168 72.44063 64.46105Q71.97188 64.8048 71.75313 65.6798L70.37813 65.4923Q70.56563 64.6173 70.9875 64.07043Q71.425 63.523552 72.2375 63.242302Q73.05 62.945427 74.1125 62.945427Q75.175 62.945427 75.83125 63.195427Q76.50313 63.445427 76.81563 63.820427Q77.12813 64.19543 77.25313 64.77355Q77.33125 65.13293 77.33125 66.07043L77.33125 67.94543Q77.33125 69.91418 77.40938 70.4298Q77.50313 70.94543 77.76875 71.4298L76.3 71.4298Q76.08125 70.9923 76.01875 70.39855ZM75.90938 67.25793Q75.14375 67.57043 73.6125 67.78918Q72.7375 67.91418 72.37813 68.07043Q72.01875 68.22668 71.81563 68.53918Q71.62813 68.83605 71.62813 69.19543Q71.62813 69.75793 72.05 70.13293Q72.4875 70.50793 73.3 70.50793Q74.1125 70.50793 74.7375 70.16418Q75.37813 69.8048 75.675 69.1798Q75.90938 68.71105 75.90938 67.77355L75.90938 67.25793ZM82.675 70.16418L82.87813 71.41418Q82.28438 71.53918 81.81563 71.53918Q81.05 71.53918 80.62813 71.3048Q80.20625 71.0548 80.03438 70.66418Q79.8625 70.25793 79.8625 68.9923L79.8625 64.22668L78.83125 64.22668L78.83125 63.132927L79.8625 63.132927L79.8625 61.070427L81.26875 60.226677L81.26875 63.132927L82.675 63.132927L82.675 64.22668L81.26875 64.22668L81.26875 69.07043Q81.26875 69.6798 81.33125 69.85168Q81.40938 70.02355 81.58125 70.13293Q81.75313 70.22668 82.06563 70.22668Q82.3 70.22668 82.675 70.16418ZM83.6125 61.586052L83.6125 59.976677L85.01875 59.976677L85.01875 61.586052L83.6125 61.586052ZM83.6125 71.4298L83.6125 63.132927L85.01875 63.132927L85.01875 71.4298L83.6125 71.4298ZM93.01875 68.38293L94.40938 68.57043Q94.175 69.9923 93.2375 70.8048Q92.31563 71.6173 90.95625 71.6173Q89.25313 71.6173 88.20625 70.50793Q87.175 69.38293 87.175 67.3048Q87.175 65.96105 87.6125 64.96105Q88.06563 63.945427 88.97188 63.445427Q89.89375 62.945427 90.95625 62.945427Q92.31563 62.945427 93.175 63.632927Q94.03438 64.3048 94.26875 65.57043L92.90938 65.77355Q92.70625 64.94543 92.20625 64.52355Q91.72188 64.10168 91.01875 64.10168Q89.95625 64.10168 89.28438 64.8673Q88.62813 65.6173 88.62813 67.27355Q88.62813 68.94543 89.26875 69.71105Q89.90938 70.46105 90.94063 70.46105Q91.76875 70.46105 92.31563 69.96105Q92.87813 69.44543 93.01875 68.38293Z" fill-rule="nonzero"/><path fill="#9e9e9e" d="M24.51875 93.4298L23.1125 93.4298L23.1125 84.46105Q22.596874 84.94543 21.76875 85.4298Q20.95625 85.91418 20.3 86.16418L20.3 84.8048Q21.471874 84.2423 22.346874 83.46105Q23.2375 82.66418 23.6125 81.9298L24.51875 81.9298L24.51875 93.4298ZM32.721874 93.4298L32.721874 90.6798L27.753124 90.6798L27.753124 89.39855L32.9875 81.97668L34.128124 81.97668L34.128124 89.39855L35.675 89.39855L35.675 90.6798L34.128124 90.6798L34.128124 93.4298L32.721874 93.4298ZM32.721874 89.39855L32.721874 84.22668L29.14375 89.39855L32.721874 89.39855ZM38.003124 93.4298L38.003124 91.82043L39.6125 91.82043L39.6125 93.4298L38.003124 93.4298ZM48.51875 84.77355L47.1125 84.88293Q46.925 84.0548 46.58125 83.6798Q46.01875 83.08605 45.175 83.08605Q44.503124 83.08605 44.003124 83.46105Q43.33125 83.94543 42.940624 84.88293Q42.565624 85.8048 42.55 87.52355Q43.065624 86.7423 43.8 86.3673Q44.534374 85.9923 45.33125 85.9923Q46.7375 85.9923 47.721874 87.03918Q48.721874 88.07043 48.721874 89.71105Q48.721874 90.78918 48.253124 91.71105Q47.784374 92.63293 46.971874 93.13293Q46.159374 93.63293 45.128124 93.63293Q43.378124 93.63293 42.26875 92.33605Q41.159374 91.03918 41.159374 88.07043Q41.159374 84.7423 42.378124 83.2423Q43.45625 81.9298 45.26875 81.9298Q46.6125 81.9298 47.471874 82.69543Q48.346874 83.44543 48.51875 84.77355ZM42.76875 89.71105Q42.76875 90.44543 43.08125 91.1173Q43.39375 91.77355 43.940624 92.1173Q44.503124 92.46105 45.1125 92.46105Q46.003124 92.46105 46.64375 91.7423Q47.284374 91.02355 47.284374 89.78918Q47.284374 88.60168 46.64375 87.9298Q46.01875 87.2423 45.05 87.2423Q44.096874 87.2423 43.425 87.9298Q42.76875 88.60168 42.76875 89.71105ZM50.4875 84.72668Q50.4875 83.4923 51.096874 82.63293Q51.721874 81.77355 52.89375 81.77355Q53.971874 81.77355 54.675 82.5548Q55.378124 83.32043 55.378124 84.8048Q55.378124 86.25793 54.659374 87.0548Q53.95625 87.83605 52.909374 87.83605Q51.8625 87.83605 51.175 87.07043Q50.4875 86.28918 50.4875 84.72668ZM52.925 82.7423Q52.409374 82.7423 52.05 83.19543Q51.70625 83.64855 51.70625 84.8673Q51.70625 85.96105 52.05 86.41418Q52.409374 86.8673 52.925 86.8673Q53.45625 86.8673 53.8 86.41418Q54.159374 85.96105 54.159374 84.75793Q54.159374 83.64855 53.8 83.19543Q53.45625 82.7423 52.925 82.7423ZM52.940624 93.85168L59.20625 81.77355L60.346874 81.77355L54.096874 93.85168L52.940624 93.85168ZM57.89375 90.7423Q57.89375 89.50793 58.503124 88.64855Q59.128124 87.78918 60.3 87.78918Q61.378124 87.78918 62.08125 88.57043Q62.8 89.33605 62.8 90.82043Q62.8 92.27355 62.08125 93.07043Q61.3625 93.85168 60.315624 93.85168Q59.26875 93.85168 58.58125 93.07043Q57.89375 92.28918 57.89375 90.7423ZM60.346874 88.75793Q59.815624 88.75793 59.45625 89.21105Q59.1125 89.66418 59.1125 90.88293Q59.1125 91.97668 59.45625 92.4298Q59.815624 92.88293 60.33125 92.88293Q60.878124 92.88293 61.221874 92.4298Q61.565624 91.97668 61.565624 90.77355Q61.565624 89.66418 61.20625 89.21105Q60.8625 88.75793 60.346874 88.75793Z" fill-rule="nonzero"/><path stroke="#757575" stroke-width="1.0" stroke-linecap="butt" d="M18.55 76.9298L145.23334 76.9298L237.49208 76.9298" fill-rule="nonzero"/><path fill="#9e9e9e" d="M239.49208 76.9298C239.49208 75.82523 238.59665 74.9298 237.49208 74.9298C236.38751 74.9298 235.49208 75.82523 235.49208 76.9298C235.49208 78.03437 236.38751 78.9298 237.49208 78.9298C238.59665 78.9298 239.49208 78.03437 239.49208 76.9298" fill-rule="nonzero"/><path fill="#efefef" d="M19.7375 144.09932L19.7375 132.6462L22.01875 132.6462L24.7375 140.75557Q25.1125 141.88057 25.284374 142.44307Q25.471874 141.81807 25.89375 140.61494L28.628124 132.6462L30.675 132.6462L30.675 144.09932L29.20625 144.09932L29.20625 134.50557L25.878124 144.09932L24.51875 144.09932L21.20625 134.34932L21.20625 144.09932L19.7375 144.09932ZM32.6125 134.25557L32.6125 132.6462L34.01875 132.6462L34.01875 134.25557L32.6125 134.25557ZM32.6125 144.09932L32.6125 135.80244L34.01875 135.80244L34.01875 144.09932L32.6125 144.09932ZM36.58125 144.09932L36.58125 132.6462L37.9875 132.6462L37.9875 144.09932L36.58125 144.09932ZM40.6125 134.25557L40.6125 132.6462L42.01875 132.6462L42.01875 134.25557L40.6125 134.25557ZM40.6125 144.09932L40.6125 135.80244L42.01875 135.80244L42.01875 144.09932L40.6125 144.09932ZM47.675 142.8337L47.878124 144.0837Q47.284374 144.2087 46.815624 144.2087Q46.05 144.2087 45.628124 143.97432Q45.20625 143.72432 45.034374 143.3337Q44.8625 142.92744 44.8625 141.66182L44.8625 136.8962L43.83125 136.8962L43.83125 135.80244L44.8625 135.80244L44.8625 133.73994L46.26875 132.8962L46.26875 135.80244L47.675 135.80244L47.675 136.8962L46.26875 136.8962L46.26875 141.73994Q46.26875 142.34932 46.33125 142.5212Q46.409374 142.69307 46.58125 142.80244Q46.753124 142.8962 47.065624 142.8962Q47.3 142.8962 47.675 142.8337ZM54.01875 143.06807Q53.2375 143.73994 52.51875 144.0212Q51.8 144.28682 50.971874 144.28682Q49.596874 144.28682 48.8625 143.61494Q48.128124 142.94307 48.128124 141.91182Q48.128124 141.30244 48.409374 140.80244Q48.690624 140.28682 49.128124 139.98994Q49.58125 139.67744 50.14375 139.5212Q50.565624 139.41182 51.39375 139.31807Q53.096874 139.11494 53.909374 138.8337Q53.909374 138.53682 53.909374 138.4587Q53.909374 137.59932 53.51875 137.25557Q52.971874 136.7712 51.909374 136.7712Q50.925 136.7712 50.440624 137.13057Q49.971874 137.47432 49.753124 138.34932L48.378124 138.16182Q48.565624 137.28682 48.9875 136.73994Q49.425 136.19307 50.2375 135.91182Q51.05 135.61494 52.1125 135.61494Q53.175 135.61494 53.83125 135.86494Q54.503124 136.11494 54.815624 136.48994Q55.128124 136.86494 55.253124 137.44307Q55.33125 137.80244 55.33125 138.73994L55.33125 140.61494Q55.33125 142.5837 55.409374 143.09932Q55.503124 143.61494 55.76875 144.09932L54.3 144.09932Q54.08125 143.66182 54.01875 143.06807ZM53.909374 139.92744Q53.14375 140.23994 51.6125 140.4587Q50.7375 140.5837 50.378124 140.73994Q50.01875 140.8962 49.815624 141.2087Q49.628124 141.50557 49.628124 141.86494Q49.628124 142.42744 50.05 142.80244Q50.4875 143.17744 51.3 143.17744Q52.1125 143.17744 52.7375 142.8337Q53.378124 142.47432 53.675 141.84932Q53.909374 141.38057 53.909374 140.44307L53.909374 139.92744ZM57.596874 144.09932L57.596874 135.80244L58.8625 135.80244L58.8625 137.05244Q59.346874 136.17744 59.753124 135.8962Q60.159374 135.61494 60.659374 135.61494Q61.3625 135.61494 62.096874 136.06807L61.6125 137.36494Q61.096874 137.06807 60.58125 137.06807Q60.128124 137.06807 59.753124 137.34932Q59.39375 137.61494 59.2375 138.11494Q59.003124 138.86494 59.003124 139.75557L59.003124 144.09932L57.596874 144.09932ZM62.55 147.30244L62.39375 145.97432Q62.846874 146.09932 63.190624 146.09932Q63.659374 146.09932 63.940624 145.94307Q64.22188 145.78682 64.40938 145.50557Q64.53438 145.30244 64.83125 144.4587Q64.87813 144.34932 64.95625 144.11494L61.815624 135.80244L63.33125 135.80244L65.05 140.59932Q65.39375 141.5212 65.65938 142.5212Q65.89375 141.55244 66.2375 140.63057L68.00313 135.80244L69.40938 135.80244L66.25313 144.23994Q65.75313 145.61494 65.47188 146.13057Q65.09688 146.81807 64.6125 147.1462Q64.12813 147.47432 63.45625 147.47432Q63.05 147.47432 62.55 147.30244Z" fill-rule="nonzero"/><path fill="#9e9e9e" d="M21.378124 159.88057Q20.503124 159.56807 20.08125 158.97432Q19.659374 158.38057 19.659374 157.55244Q19.659374 156.30244 20.55 155.4587Q21.45625 154.59932 22.95625 154.59932Q24.45625 154.59932 25.3625 155.47432Q26.284374 156.3337 26.284374 157.5837Q26.284374 158.38057 25.8625 158.97432Q25.440624 159.56807 24.596874 159.88057Q25.64375 160.22432 26.190624 160.98994Q26.753124 161.75557 26.753124 162.81807Q26.753124 164.28682 25.70625 165.30244Q24.675 166.30244 22.971874 166.30244Q21.284374 166.30244 20.2375 165.30244Q19.20625 164.28682 19.20625 162.78682Q19.20625 161.66182 19.76875 160.91182Q20.33125 160.16182 21.378124 159.88057ZM21.096874 157.50557Q21.096874 158.31807 21.6125 158.8337Q22.14375 159.34932 22.9875 159.34932Q23.8 159.34932 24.315624 158.8337Q24.83125 158.31807 24.83125 157.5837Q24.83125 156.80244 24.3 156.28682Q23.76875 155.75557 22.971874 155.75557Q22.159374 155.75557 21.628124 156.2712Q21.096874 156.78682 21.096874 157.50557ZM20.64375 162.78682Q20.64375 163.3962 20.925 163.9587Q21.221874 164.5212 21.784374 164.8337Q22.346874 165.13057 22.9875 165.13057Q24.003124 165.13057 24.659374 164.48994Q25.315624 163.8337 25.315624 162.8337Q25.315624 161.81807 24.628124 161.16182Q23.95625 160.48994 22.940624 160.48994Q21.95625 160.48994 21.3 161.1462Q20.64375 161.80244 20.64375 162.78682ZM29.003124 166.09932L29.003124 164.48994L30.6125 164.48994L30.6125 166.09932L29.003124 166.09932ZM32.221874 163.06807L33.628124 162.88057Q33.878124 164.0837 34.45625 164.61494Q35.034374 165.13057 35.878124 165.13057Q36.8625 165.13057 37.55 164.44307Q38.2375 163.75557 38.2375 162.73994Q38.2375 161.7712 37.596874 161.1462Q36.971874 160.5212 35.9875 160.5212Q35.596874 160.5212 35.003124 160.67744L35.159374 159.44307Q35.3 159.4587 35.378124 159.4587Q36.284374 159.4587 37.003124 158.98994Q37.721874 158.5212 37.721874 157.53682Q37.721874 156.7712 37.190624 156.2712Q36.675 155.75557 35.846874 155.75557Q35.01875 155.75557 34.471874 156.2712Q33.925 156.78682 33.76875 157.81807L32.3625 157.56807Q32.628124 156.1462 33.534374 155.38057Q34.45625 154.59932 35.815624 154.59932Q36.753124 154.59932 37.534374 155.00557Q38.33125 155.3962 38.7375 156.09932Q39.159374 156.78682 39.159374 157.56807Q39.159374 158.31807 38.753124 158.92744Q38.3625 159.53682 37.58125 159.8962Q38.596874 160.13057 39.159374 160.86494Q39.721874 161.59932 39.721874 162.7087Q39.721874 164.2087 38.628124 165.25557Q37.534374 166.30244 35.8625 166.30244Q34.3625 166.30244 33.3625 165.41182Q32.3625 164.50557 32.221874 163.06807ZM41.4875 157.3962Q41.4875 156.16182 42.096874 155.30244Q42.721874 154.44307 43.89375 154.44307Q44.971874 154.44307 45.675 155.22432Q46.378124 155.98994 46.378124 157.47432Q46.378124 158.92744 45.659374 159.72432Q44.95625 160.50557 43.909374 160.50557Q42.8625 160.50557 42.175 159.73994Q41.4875 158.9587 41.4875 157.3962ZM43.925 155.41182Q43.409374 155.41182 43.05 155.86494Q42.70625 156.31807 42.70625 157.53682Q42.70625 158.63057 43.05 159.0837Q43.409374 159.53682 43.925 159.53682Q44.45625 159.53682 44.8 159.0837Q45.159374 158.63057 45.159374 157.42744Q45.159374 156.31807 44.8 155.86494Q44.45625 155.41182 43.925 155.41182ZM43.940624 166.5212L50.20625 154.44307L51.346874 154.44307L45.096874 166.5212L43.940624 166.5212ZM48.89375 163.41182Q48.89375 162.17744 49.503124 161.31807Q50.128124 160.4587 51.3 160.4587Q52.378124 160.4587 53.08125 161.23994Q53.8 162.00557 53.8 163.48994Q53.8 164.94307 53.08125 165.73994Q52.3625 166.5212 51.315624 166.5212Q50.26875 166.5212 49.58125 165.73994Q48.89375 164.9587 48.89375 163.41182ZM51.346874 161.42744Q50.815624 161.42744 50.45625 161.88057Q50.1125 162.3337 50.1125 163.55244Q50.1125 164.6462 50.45625 165.09932Q50.815624 165.55244 51.33125 165.55244Q51.878124 165.55244 52.221874 165.09932Q52.565624 164.6462 52.565624 163.44307Q52.565624 162.3337 52.20625 161.88057Q51.8625 161.42744 51.346874 161.42744Z" fill-rule="nonzero"/><path stroke="#757575" stroke-width="1.0" stroke-linecap="butt" d="M18.55 149.59932L145.23334 149.59932L169.42964 149.59932" fill-rule="nonzero"/><path fill="#9e9e9e" d="M171.42964 149.59932C171.42964 148.49475 170.53421 147.59932 169.42964 147.59932C168.32507 147.59932 167.42964 148.49475 167.42964 149.59932C167.42964 150.70389 168.32507 151.59932 169.42964 151.59932C170.53421 151.59932 171.42964 150.70389 171.42964 149.59932" fill-rule="nonzero"/><path fill="#efefef" d="M19.815624 195.97256L19.815624 184.51944L24.89375 184.51944Q26.425 184.51944 27.221874 184.83194Q28.01875 185.12881 28.4875 185.91006Q28.971874 186.69131 28.971874 187.64444Q28.971874 188.86319 28.175 189.70694Q27.39375 190.53506 25.7375 190.75381Q26.346874 191.05069 26.659374 191.33194Q27.315624 191.94131 27.909374 192.84756L29.909374 195.97256L28.003124 195.97256L26.4875 193.58194Q25.815624 192.55069 25.378124 192.00381Q24.95625 191.45694 24.6125 191.23819Q24.284374 191.01944 23.925 190.94131Q23.675 190.87881 23.08125 190.87881L21.33125 190.87881L21.33125 195.97256L19.815624 195.97256ZM21.33125 189.56631L24.58125 189.56631Q25.628124 189.56631 26.20625 189.36319Q26.8 189.14444 27.096874 188.67569Q27.409374 188.19131 27.409374 187.64444Q27.409374 186.83194 26.815624 186.31631Q26.221874 185.78506 24.95625 185.78506L21.33125 185.78506L21.33125 189.56631ZM37.284374 193.30069L38.7375 193.47256Q38.39375 194.75381 37.45625 195.45694Q36.534374 196.16006 35.096874 196.16006Q33.26875 196.16006 32.20625 195.03506Q31.14375 193.91006 31.14375 191.89444Q31.14375 189.80069 32.221874 188.64444Q33.3 187.48819 35.01875 187.48819Q36.675 187.48819 37.721874 188.62881Q38.784374 189.75381 38.784374 191.80069Q38.784374 191.92569 38.784374 192.17569L32.596874 192.17569Q32.675 193.55069 33.3625 194.28506Q34.065624 195.00381 35.096874 195.00381Q35.878124 195.00381 36.425 194.59756Q36.971874 194.19131 37.284374 193.30069ZM32.675 191.01944L37.3 191.01944Q37.20625 189.97256 36.76875 189.45694Q36.096874 188.64444 35.034374 188.64444Q34.065624 188.64444 33.39375 189.30069Q32.7375 189.94131 32.675 191.01944ZM40.58125 195.97256L40.58125 184.51944L41.9875 184.51944L41.9875 195.97256L40.58125 195.97256ZM44.6125 186.12881L44.6125 184.51944L46.01875 184.51944L46.01875 186.12881L44.6125 186.12881ZM44.6125 195.97256L44.6125 187.67569L46.01875 187.67569L46.01875 195.97256L44.6125 195.97256ZM48.346874 196.66006L49.721874 196.86319Q49.8 197.50381 50.190624 197.78506Q50.721874 198.17569 51.628124 198.17569Q52.596874 198.17569 53.128124 197.78506Q53.659374 197.39444 53.846874 196.69131Q53.95625 196.26944 53.95625 194.87881Q53.034374 195.97256 51.659374 195.97256Q49.940624 195.97256 49.003124 194.73819Q48.065624 193.50381 48.065624 191.76944Q48.065624 190.58194 48.4875 189.58194Q48.925 188.58194 49.7375 188.03506Q50.565624 187.48819 51.659374 187.48819Q53.128124 187.48819 54.08125 188.67569L54.08125 187.67569L55.378124 187.67569L55.378124 194.84756Q55.378124 196.78506 54.9875 197.59756Q54.596874 198.41006 53.7375 198.87881Q52.878124 199.34756 51.628124 199.34756Q50.14375 199.34756 49.221874 198.67569Q48.315624 198.00381 48.346874 196.66006ZM49.51875 191.67569Q49.51875 193.30069 50.159374 194.05069Q50.815624 194.80069 51.784374 194.80069Q52.753124 194.80069 53.409374 194.06631Q54.065624 193.31631 54.065624 191.72256Q54.065624 190.19131 53.39375 189.42569Q52.721874 188.64444 51.76875 188.64444Q50.83125 188.64444 50.175 189.41006Q49.51875 190.17569 49.51875 191.67569ZM57.6125 186.12881L57.6125 184.51944L59.01875 184.51944L59.01875 186.12881L57.6125 186.12881ZM57.6125 195.97256L57.6125 187.67569L59.01875 187.67569L59.01875 195.97256L57.6125 195.97256ZM61.08125 191.81631Q61.08125 189.51944 62.3625 188.41006Q63.440624 187.48819 64.97188 187.48819Q66.69063 187.48819 67.76875 188.61319Q68.8625 189.72256 68.8625 191.70694Q68.8625 193.30069 68.37813 194.22256Q67.89375 195.14444 66.97188 195.66006Q66.06563 196.16006 64.97188 196.16006Q63.2375 196.16006 62.159374 195.05069Q61.08125 193.92569 61.08125 191.81631ZM62.534374 191.81631Q62.534374 193.41006 63.221874 194.20694Q63.925 195.00381 64.97188 195.00381Q66.01875 195.00381 66.70625 194.20694Q67.40938 193.41006 67.40938 191.76944Q67.40938 190.23819 66.70625 189.44131Q66.01875 188.64444 64.97188 188.64444Q63.925 188.64444 63.221874 189.44131Q62.534374 190.22256 62.534374 191.81631ZM76.05 195.97256L76.05 194.75381Q75.08125 196.16006 73.40938 196.16006Q72.675 196.16006 72.03438 195.87881Q71.40938 195.59756 71.09688 195.17569Q70.78438 194.73819 70.65938 194.12881Q70.58125 193.70694 70.58125 192.81631L70.58125 187.67569L71.9875 187.67569L71.9875 192.26944Q71.9875 193.37881 72.06563 193.75381Q72.20625 194.31631 72.62813 194.62881Q73.06563 194.94131 73.69063 194.94131Q74.33125 194.94131 74.87813 194.62881Q75.44063 194.30069 75.65938 193.73819Q75.89375 193.17569 75.89375 192.11319L75.89375 187.67569L77.3 187.67569L77.3 195.97256L76.05 195.97256ZM79.05 193.48819L80.44063 193.26944Q80.55 194.11319 81.08125 194.56631Q81.62813 195.00381 82.58125 195.00381Q83.55 195.00381 84.01875 194.61319Q84.4875 194.20694 84.4875 193.67569Q84.4875 193.20694 84.08125 192.92569Q83.78438 192.73819 82.64375 192.45694Q81.09688 192.06631 80.4875 191.78506Q79.89375 191.48819 79.58125 190.98819Q79.28438 190.48819 79.28438 189.87881Q79.28438 189.31631 79.53438 188.84756Q79.78438 188.37881 80.22188 188.06631Q80.55 187.81631 81.1125 187.66006Q81.69063 187.48819 82.33125 187.48819Q83.31563 187.48819 84.05 187.76944Q84.78438 188.05069 85.12813 188.53506Q85.4875 189.00381 85.62813 189.81631L84.25313 190.00381Q84.15938 189.36319 83.70625 189.00381Q83.25313 188.64444 82.44063 188.64444Q81.47188 188.64444 81.05 188.97256Q80.64375 189.28506 80.64375 189.70694Q80.64375 189.98819 80.81563 190.20694Q80.9875 190.42569 81.34688 190.58194Q81.56563 190.66006 82.59688 190.94131Q84.08125 191.33194 84.675 191.59756Q85.26875 191.84756 85.59688 192.33194Q85.94063 192.81631 85.94063 193.53506Q85.94063 194.23819 85.51875 194.86319Q85.1125 195.47256 84.33125 195.81631Q83.56563 196.16006 82.59688 196.16006Q80.97188 196.16006 80.12813 195.48819Q79.28438 194.81631 79.05 193.48819Z" fill-rule="nonzero"/><path fill="#9e9e9e" d="M23.721874 217.97256L23.721874 215.22256L18.753124 215.22256L18.753124 213.94131L23.9875 206.51944L25.128124 206.51944L25.128124 213.94131L26.675 213.94131L26.675 215.22256L25.128124 215.22256L25.128124 217.97256L23.721874 217.97256ZM23.721874 213.94131L23.721874 208.76944L20.14375 213.94131L23.721874 213.94131ZM29.003124 217.97256L29.003124 216.36319L30.6125 216.36319L30.6125 217.97256L29.003124 217.97256ZM39.6125 216.61319L39.6125 217.97256L32.034374 217.97256Q32.01875 217.45694 32.20625 216.98819Q32.4875 216.22256 33.128124 215.47256Q33.76875 214.72256 34.971874 213.73819Q36.83125 212.20694 37.4875 211.31631Q38.14375 210.41006 38.14375 209.61319Q38.14375 208.78506 37.55 208.20694Q36.95625 207.62881 35.9875 207.62881Q34.971874 207.62881 34.3625 208.23819Q33.753124 208.84756 33.753124 209.92569L32.3 209.78506Q32.45625 208.16006 33.425 207.31631Q34.39375 206.47256 36.01875 206.47256Q37.675 206.47256 38.628124 207.39444Q39.596874 208.30069 39.596874 209.64444Q39.596874 210.33194 39.315624 211.00381Q39.034374 211.66006 38.378124 212.39444Q37.721874 213.12881 36.20625 214.41006Q34.940624 215.47256 34.58125 215.86319Q34.221874 216.23819 33.9875 216.61319L39.6125 216.61319ZM41.4875 209.26944Q41.4875 208.03506 42.096874 207.17569Q42.721874 206.31631 43.89375 206.31631Q44.971874 206.31631 45.675 207.09756Q46.378124 207.86319 46.378124 209.34756Q46.378124 210.80069 45.659374 211.59756Q44.95625 212.37881 43.909374 212.37881Q42.8625 212.37881 42.175 211.61319Q41.4875 210.83194 41.4875 209.26944ZM43.925 207.28506Q43.409374 207.28506 43.05 207.73819Q42.70625 208.19131 42.70625 209.41006Q42.70625 210.50381 43.05 210.95694Q43.409374 211.41006 43.925 211.41006Q44.45625 211.41006 44.8 210.95694Q45.159374 210.50381 45.159374 209.30069Q45.159374 208.19131 44.8 207.73819Q44.45625 207.28506 43.925 207.28506ZM43.940624 218.39444L50.20625 206.31631L51.346874 206.31631L45.096874 218.39444L43.940624 218.39444ZM48.89375 215.28506Q48.89375 214.05069 49.503124 213.19131Q50.128124 212.33194 51.3 212.33194Q52.378124 212.33194 53.08125 213.11319Q53.8 213.87881 53.8 215.36319Q53.8 216.81631 53.08125 217.61319Q52.3625 218.39444 51.315624 218.39444Q50.26875 218.39444 49.58125 217.61319Q48.89375 216.83194 48.89375 215.28506ZM51.346874 213.30069Q50.815624 213.30069 50.45625 213.75381Q50.1125 214.20694 50.1125 215.42569Q50.1125 216.51944 50.45625 216.97256Q50.815624 217.42569 51.33125 217.42569Q51.878124 217.42569 52.221874 216.97256Q52.565624 216.51944 52.565624 215.31631Q52.565624 214.20694 52.20625 213.75381Q51.8625 213.30069 51.346874 213.30069Z" fill-rule="nonzero"/><path stroke="#757575" stroke-width="1.0" stroke-linecap="butt" d="M18.55 201.47256L145.23334 201.47256L158.67166 203.68333" fill-rule="nonzero"/><path fill="#9e9e9e" d="M160.67166 203.68333C160.67166 202.57877 159.77623 201.68333 158.67166 201.68333C157.5671 201.68333 156.67166 202.57877 156.67166 203.68333C156.67166 204.7879 157.5671 205.68333 158.67166 205.68333C159.77623 205.68333 160.67166 204.7879 160.67166 203.68333" fill-rule="nonzero"/><path fill="#efefef" d="M27.95625 232.95694L29.471874 233.33194Q29.003124 235.20694 27.753124 236.19131Q26.51875 237.17569 24.7375 237.17569Q22.878124 237.17569 21.721874 236.42569Q20.565624 235.66006 19.95625 234.23819Q19.346874 232.80069 19.346874 231.16006Q19.346874 229.36319 20.034374 228.03506Q20.721874 226.70694 21.971874 226.01944Q23.2375 225.31631 24.753124 225.31631Q26.471874 225.31631 27.64375 226.19131Q28.815624 227.06631 29.284374 228.66006L27.784374 229.00381Q27.39375 227.75381 26.628124 227.19131Q25.878124 226.61319 24.721874 226.61319Q23.409374 226.61319 22.51875 227.25381Q21.628124 227.87881 21.26875 228.95694Q20.909374 230.01944 20.909374 231.14444Q20.909374 232.61319 21.33125 233.70694Q21.76875 234.78506 22.659374 235.33194Q23.565624 235.86319 24.6125 235.86319Q25.878124 235.86319 26.753124 235.12881Q27.64375 234.39444 27.95625 232.95694ZM37.05 236.97256L37.05 235.75381Q36.08125 237.16006 34.409374 237.16006Q33.675 237.16006 33.034374 236.87881Q32.409374 236.59756 32.096874 236.17569Q31.784374 235.73819 31.659374 235.12881Q31.58125 234.70694 31.58125 233.81631L31.58125 228.67569L32.9875 228.67569L32.9875 233.26944Q32.9875 234.37881 33.065624 234.75381Q33.20625 235.31631 33.628124 235.62881Q34.065624 235.94131 34.690624 235.94131Q35.33125 235.94131 35.878124 235.62881Q36.440624 235.30069 36.659374 234.73819Q36.89375 234.17569 36.89375 233.11319L36.89375 228.67569L38.3 228.67569L38.3 236.97256L37.05 236.97256ZM40.58125 236.97256L40.58125 225.51944L41.9875 225.51944L41.9875 236.97256L40.58125 236.97256ZM47.675 235.70694L47.878124 236.95694Q47.284374 237.08194 46.815624 237.08194Q46.05 237.08194 45.628124 236.84756Q45.20625 236.59756 45.034374 236.20694Q44.8625 235.80069 44.8625 234.53506L44.8625 229.76944L43.83125 229.76944L43.83125 228.67569L44.8625 228.67569L44.8625 226.61319L46.26875 225.76944L46.26875 228.67569L47.675 228.67569L47.675 229.76944L46.26875 229.76944L46.26875 234.61319Q46.26875 235.22256 46.33125 235.39444Q46.409374 235.56631 46.58125 235.67569Q46.753124 235.76944 47.065624 235.76944Q47.3 235.76944 47.675 235.70694ZM54.05 236.97256L54.05 235.75381Q53.08125 237.16006 51.409374 237.16006Q50.675 237.16006 50.034374 236.87881Q49.409374 236.59756 49.096874 236.17569Q48.784374 235.73819 48.659374 235.12881Q48.58125 234.70694 48.58125 233.81631L48.58125 228.67569L49.9875 228.67569L49.9875 233.26944Q49.9875 234.37881 50.065624 234.75381Q50.20625 235.31631 50.628124 235.62881Q51.065624 235.94131 51.690624 235.94131Q52.33125 235.94131 52.878124 235.62881Q53.440624 235.30069 53.659374 234.73819Q53.89375 234.17569 53.89375 233.11319L53.89375 228.67569L55.3 228.67569L55.3 236.97256L54.05 236.97256ZM57.596874 236.97256L57.596874 228.67569L58.8625 228.67569L58.8625 229.92569Q59.346874 229.05069 59.753124 228.76944Q60.159374 228.48819 60.659374 228.48819Q61.3625 228.48819 62.096874 228.94131L61.6125 230.23819Q61.096874 229.94131 60.58125 229.94131Q60.128124 229.94131 59.753124 230.22256Q59.39375 230.48819 59.2375 230.98819Q59.003124 231.73819 59.003124 232.62881L59.003124 236.97256L57.596874 236.97256ZM68.01875 235.94131Q67.2375 236.61319 66.51875 236.89444Q65.8 237.16006 64.97188 237.16006Q63.596874 237.16006 62.8625 236.48819Q62.128124 235.81631 62.128124 234.78506Q62.128124 234.17569 62.409374 233.67569Q62.690624 233.16006 63.128124 232.86319Q63.58125 232.55069 64.14375 232.39444Q64.56563 232.28506 65.39375 232.19131Q67.09688 231.98819 67.90938 231.70694Q67.90938 231.41006 67.90938 231.33194Q67.90938 230.47256 67.51875 230.12881Q66.97188 229.64444 65.90938 229.64444Q64.925 229.64444 64.44063 230.00381Q63.971874 230.34756 63.753124 231.22256L62.378124 231.03506Q62.565624 230.16006 62.9875 229.61319Q63.425 229.06631 64.2375 228.78506Q65.05 228.48819 66.1125 228.48819Q67.175 228.48819 67.83125 228.73819Q68.50313 228.98819 68.81563 229.36319Q69.12813 229.73819 69.25313 230.31631Q69.33125 230.67569 69.33125 231.61319L69.33125 233.48819Q69.33125 235.45694 69.40938 235.97256Q69.50313 236.48819 69.76875 236.97256L68.3 236.97256Q68.08125 236.53506 68.01875 235.94131ZM67.90938 232.80069Q67.14375 233.11319 65.6125 233.33194Q64.7375 233.45694 64.37813 233.61319Q64.01875 233.76944 63.815624 234.08194Q63.628124 234.37881 63.628124 234.73819Q63.628124 235.30069 64.05 235.67569Q64.4875 236.05069 65.3 236.05069Q66.1125 236.05069 66.7375 235.70694Q67.37813 235.34756 67.675 234.72256Q67.90938 234.25381 67.90938 233.31631L67.90938 232.80069ZM71.58125 236.97256L71.58125 225.51944L72.9875 225.51944L72.9875 236.97256L71.58125 236.97256ZM78.51875 236.97256L82.925 225.51944L84.56563 225.51944L89.25313 236.97256L87.51875 236.97256L86.19063 233.50381L81.39375 233.50381L80.14375 236.97256L78.51875 236.97256ZM81.83125 232.26944L85.72188 232.26944L84.51875 229.09756Q83.97188 227.64444 83.70625 226.72256Q83.4875 227.81631 83.09688 228.91006L81.83125 232.26944ZM96.01875 233.92569L97.40938 234.11319Q97.175 235.53506 96.2375 236.34756Q95.31563 237.16006 93.95625 237.16006Q92.25313 237.16006 91.20625 236.05069Q90.175 234.92569 90.175 232.84756Q90.175 231.50381 90.6125 230.50381Q91.06563 229.48819 91.97188 228.98819Q92.89375 228.48819 93.95625 228.48819Q95.31563 228.48819 96.175 229.17569Q97.03438 229.84756 97.26875 231.11319L95.90938 231.31631Q95.70625 230.48819 95.20625 230.06631Q94.72188 229.64444 94.01875 229.64444Q92.95625 229.64444 92.28438 230.41006Q91.62813 231.16006 91.62813 232.81631Q91.62813 234.48819 92.26875 235.25381Q92.90938 236.00381 93.94063 236.00381Q94.76875 236.00381 95.31563 235.50381Q95.87813 234.98819 96.01875 233.92569ZM101.675 235.70694L101.87813 236.95694Q101.28438 237.08194 100.81563 237.08194Q100.05 237.08194 99.62813 236.84756Q99.20625 236.59756 99.03438 236.20694Q98.8625 235.80069 98.8625 234.53506L98.8625 229.76944L97.83125 229.76944L97.83125 228.67569L98.8625 228.67569L98.8625 226.61319L100.26875 225.76944L100.26875 228.67569L101.675 228.67569L101.675 229.76944L100.26875 229.76944L100.26875 234.61319Q100.26875 235.22256 100.33125 235.39444Q100.40938 235.56631 100.58125 235.67569Q100.75313 235.76944 101.06563 235.76944Q101.3 235.76944 101.675 235.70694ZM102.05 234.48819L103.44063 234.26944Q103.55 235.11319 104.08125 235.56631Q104.62813 236.00381 105.58125 236.00381Q106.55 236.00381 107.01875 235.61319Q107.4875 235.20694 107.4875 234.67569Q107.4875 234.20694 107.08125 233.92569Q106.78438 233.73819 105.64375 233.45694Q104.09688 233.06631 103.4875 232.78506Q102.89375 232.48819 102.58125 231.98819Q102.28438 231.48819 102.28438 230.87881Q102.28438 230.31631 102.53438 229.84756Q102.78438 229.37881 103.22188 229.06631Q103.55 228.81631 104.1125 228.66006Q104.69063 228.48819 105.33125 228.48819Q106.31563 228.48819 107.05 228.76944Q107.78438 229.05069 108.12813 229.53506Q108.4875 230.00381 108.62813 230.81631L107.25313 231.00381Q107.15938 230.36319 106.70625 230.00381Q106.25313 229.64444 105.44063 229.64444Q104.47188 229.64444 104.05 229.97256Q103.64375 230.28506 103.64375 230.70694Q103.64375 230.98819 103.81563 231.20694Q103.9875 231.42569 104.34688 231.58194Q104.56563 231.66006 105.59688 231.94131Q107.08125 232.33194 107.675 232.59756Q108.26875 232.84756 108.59688 233.33194Q108.94063 233.81631 108.94063 234.53506Q108.94063 235.23819 108.51875 235.86319Q108.1125 236.47256 107.33125 236.81631Q106.56563 237.16006 105.59688 237.16006Q103.97188 237.16006 103.12813 236.48819Q102.28438 235.81631 102.05 234.48819ZM111.00313 236.97256L111.00313 235.36319L112.6125 235.36319L112.6125 236.97256L111.00313 236.97256Z" fill-rule="nonzero"/><path fill="#9e9e9e" d="M23.721874 258.97256L23.721874 256.22256L18.753124 256.22256L18.753124 254.94131L23.9875 247.51944L25.128124 247.51944L25.128124 254.94131L26.675 254.94131L26.675 256.22256L25.128124 256.22256L25.128124 258.97256L23.721874 258.97256ZM23.721874 254.94131L23.721874 249.76944L20.14375 254.94131L23.721874 254.94131ZM29.003124 258.97256L29.003124 257.3632L30.6125 257.3632L30.6125 258.97256L29.003124 258.97256ZM39.6125 257.6132L39.6125 258.97256L32.034374 258.97256Q32.01875 258.45694 32.20625 257.9882Q32.4875 257.22256 33.128124 256.47256Q33.76875 255.72256 34.971874 254.73819Q36.83125 253.20694 37.4875 252.31631Q38.14375 251.41006 38.14375 250.61319Q38.14375 249.78506 37.55 249.20694Q36.95625 248.62881 35.9875 248.62881Q34.971874 248.62881 34.3625 249.23819Q33.753124 249.84756 33.753124 250.92569L32.3 250.78506Q32.45625 249.16006 33.425 248.31631Q34.39375 247.47256 36.01875 247.47256Q37.675 247.47256 38.628124 248.39444Q39.596874 249.30069 39.596874 250.64444Q39.596874 251.33194 39.315624 252.00381Q39.034374 252.66006 38.378124 253.39444Q37.721874 254.12881 36.20625 255.41006Q34.940624 256.47256 34.58125 256.8632Q34.221874 257.2382 33.9875 257.6132L39.6125 257.6132ZM41.4875 250.26944Q41.4875 249.03506 42.096874 248.17569Q42.721874 247.31631 43.89375 247.31631Q44.971874 247.31631 45.675 248.09756Q46.378124 248.86319 46.378124 250.34756Q46.378124 251.80069 45.659374 252.59756Q44.95625 253.37881 43.909374 253.37881Q42.8625 253.37881 42.175 252.61319Q41.4875 251.83194 41.4875 250.26944ZM43.925 248.28506Q43.409374 248.28506 43.05 248.73819Q42.70625 249.19131 42.70625 250.41006Q42.70625 251.50381 43.05 251.95694Q43.409374 252.41006 43.925 252.41006Q44.45625 252.41006 44.8 251.95694Q45.159374 251.50381 45.159374 250.30069Q45.159374 249.19131 44.8 248.73819Q44.45625 248.28506 43.925 248.28506ZM43.940624 259.39444L50.20625 247.31631L51.346874 247.31631L45.096874 259.39444L43.940624 259.39444ZM48.89375 256.28506Q48.89375 255.05069 49.503124 254.19131Q50.128124 253.33194 51.3 253.33194Q52.378124 253.33194 53.08125 254.11319Q53.8 254.87881 53.8 256.3632Q53.8 257.8163 53.08125 258.6132Q52.3625 259.39444 51.315624 259.39444Q50.26875 259.39444 49.58125 258.6132Q48.89375 257.83194 48.89375 256.28506ZM51.346874 254.30069Q50.815624 254.30069 50.45625 254.75381Q50.1125 255.20694 50.1125 256.4257Q50.1125 257.51944 50.45625 257.97256Q50.815624 258.4257 51.33125 258.4257Q51.878124 258.4257 52.221874 257.97256Q52.565624 257.51944 52.565624 256.3163Q52.565624 255.20694 52.20625 254.75381Q51.8625 254.30069 51.346874 254.30069Z" fill-rule="nonzero"/><path stroke="#757575" stroke-width="1.0" stroke-linecap="butt" d="M18.55 242.47256L145.23334 242.47256L163.48732 240.2618" fill-rule="nonzero"/><path fill="#9e9e9e" d="M165.48732 240.2618C165.48732 239.15723 164.59189 238.2618 163.48732 238.2618C162.38274 238.2618 161.48732 239.15723 161.48732 240.2618C161.48732 241.36636 162.38274 242.2618 163.48732 242.2618C164.59189 242.2618 165.48732 241.36636 165.48732 240.2618" fill-rule="nonzero"/><path fill="#efefef" d="M481.71564 276.70114L481.71564 265.24802L489.9969 265.24802L489.9969 266.59177L483.23126 266.59177L483.23126 270.1074L489.575 270.1074L489.575 271.45114L483.23126 271.45114L483.23126 275.34177L490.2625 275.34177L490.2625 276.70114L481.71564 276.70114ZM495.575 275.43552L495.77814 276.68552Q495.1844 276.81052 494.71564 276.81052Q493.95 276.81052 493.52814 276.57614Q493.10626 276.32614 492.9344 275.93552Q492.7625 275.52927 492.7625 274.26364L492.7625 269.49802L491.73126 269.49802L491.73126 268.40427L492.7625 268.40427L492.7625 266.34177L494.16876 265.49802L494.16876 268.40427L495.575 268.40427L495.575 269.49802L494.16876 269.49802L494.16876 274.34177Q494.16876 274.95114 494.23126 275.12302Q494.3094 275.2949 494.48126 275.40427Q494.65314 275.49802 494.96564 275.49802Q495.2 275.49802 495.575 275.43552ZM496.5125 276.70114L496.5125 265.24802L497.91876 265.24802L497.91876 269.3574Q498.90314 268.21677 500.40314 268.21677Q501.325 268.21677 501.9969 268.57614Q502.6844 268.93552 502.96564 269.57614Q503.2625 270.21677 503.2625 271.43552L503.2625 276.70114L501.85626 276.70114L501.85626 271.43552Q501.85626 270.38864 501.40314 269.90427Q500.95 269.4199 500.10626 269.4199Q499.48126 269.4199 498.9344 269.74802Q498.3875 270.07614 498.15314 270.63864Q497.91876 271.18552 497.91876 272.15427L497.91876 276.70114L496.5125 276.70114ZM505.5125 276.70114L505.5125 268.40427L506.77814 268.40427L506.77814 269.57614Q507.6844 268.21677 509.41876 268.21677Q510.16876 268.21677 510.79376 268.4824Q511.41876 268.74802 511.73126 269.18552Q512.04376 269.62302 512.16876 270.2324Q512.2469 270.62302 512.2469 271.59177L512.2469 276.70114L510.84064 276.70114L510.84064 271.65427Q510.84064 270.7949 510.66876 270.37302Q510.5125 269.93552 510.09064 269.68552Q509.6844 269.43552 509.1219 269.43552Q508.21564 269.43552 507.5594 270.01364Q506.91876 270.57614 506.91876 272.1699L506.91876 276.70114L505.5125 276.70114ZM514.5125 266.8574L514.5125 265.24802L515.91876 265.24802L515.91876 266.8574L514.5125 266.8574ZM514.5125 276.70114L514.5125 268.40427L515.91876 268.40427L515.91876 276.70114L514.5125 276.70114ZM523.91876 273.65427L525.3094 273.84177Q525.075 275.26364 524.1375 276.07614Q523.21564 276.88864 521.85626 276.88864Q520.15314 276.88864 519.10626 275.77927Q518.075 274.65427 518.075 272.57614Q518.075 271.2324 518.5125 270.2324Q518.96564 269.21677 519.8719 268.71677Q520.79376 268.21677 521.85626 268.21677Q523.21564 268.21677 524.075 268.90427Q524.9344 269.57614 525.16876 270.84177L523.8094 271.0449Q523.60626 270.21677 523.10626 269.7949Q522.6219 269.37302 521.91876 269.37302Q520.85626 269.37302 520.1844 270.13864Q519.52814 270.88864 519.52814 272.5449Q519.52814 274.21677 520.16876 274.9824Q520.8094 275.7324 521.84064 275.7324Q522.66876 275.7324 523.21564 275.2324Q523.77814 274.71677 523.91876 273.65427ZM536.04376 272.20114L536.04376 270.8574L540.90314 270.8574L540.90314 275.1074Q539.77814 275.99802 538.59064 276.45114Q537.40314 276.90427 536.15314 276.90427Q534.46564 276.90427 533.09064 276.18552Q531.71564 275.45114 531.0125 274.09177Q530.3094 272.71677 530.3094 271.02927Q530.3094 269.3574 530.9969 267.90427Q531.7 266.45114 533.0125 265.74802Q534.325 265.0449 536.04376 265.0449Q537.27814 265.0449 538.27814 265.45114Q539.29376 265.8574 539.85626 266.57614Q540.4344 267.2949 540.73126 268.45114L539.35626 268.82614Q539.10626 267.95114 538.71564 267.45114Q538.34064 266.95114 537.6219 266.65427Q536.91876 266.34177 536.04376 266.34177Q535.0125 266.34177 534.2469 266.6699Q533.4969 266.9824 533.02814 267.49802Q532.5594 268.01364 532.3094 268.62302Q531.8719 269.68552 531.8719 270.93552Q531.8719 272.46677 532.3875 273.49802Q532.91876 274.52927 533.91876 275.02927Q534.9344 275.52927 536.075 275.52927Q537.0594 275.52927 537.9969 275.15427Q538.9344 274.76364 539.41876 274.34177L539.41876 272.20114L536.04376 272.20114ZM542.4969 276.70114L542.4969 268.40427L543.7625 268.40427L543.7625 269.65427Q544.2469 268.77927 544.65314 268.49802Q545.0594 268.21677 545.5594 268.21677Q546.2625 268.21677 546.9969 268.6699L546.5125 269.96677Q545.9969 269.6699 545.48126 269.6699Q545.02814 269.6699 544.65314 269.95114Q544.29376 270.21677 544.1375 270.71677Q543.90314 271.46677 543.90314 272.3574L543.90314 276.70114L542.4969 276.70114ZM546.98126 272.5449Q546.98126 270.24802 548.2625 269.13864Q549.34064 268.21677 550.8719 268.21677Q552.59064 268.21677 553.66876 269.34177Q554.7625 270.45114 554.7625 272.43552Q554.7625 274.02927 554.27814 274.95114Q553.79376 275.87302 552.8719 276.38864Q551.96564 276.88864 550.8719 276.88864Q549.1375 276.88864 548.0594 275.77927Q546.98126 274.65427 546.98126 272.5449ZM548.4344 272.5449Q548.4344 274.13864 549.1219 274.93552Q549.825 275.7324 550.8719 275.7324Q551.91876 275.7324 552.60626 274.93552Q553.3094 274.13864 553.3094 272.49802Q553.3094 270.96677 552.60626 270.1699Q551.91876 269.37302 550.8719 269.37302Q549.825 269.37302 549.1219 270.1699Q548.4344 270.95114 548.4344 272.5449ZM561.95 276.70114L561.95 275.4824Q560.98126 276.88864 559.3094 276.88864Q558.575 276.88864 557.9344 276.6074Q557.3094 276.32614 556.9969 275.90427Q556.6844 275.46677 556.5594 274.8574Q556.48126 274.43552 556.48126 273.5449L556.48126 268.40427L557.8875 268.40427L557.8875 272.99802Q557.8875 274.1074 557.96564 274.4824Q558.10626 275.0449 558.52814 275.3574Q558.96564 275.6699 559.59064 275.6699Q560.23126 275.6699 560.77814 275.3574Q561.34064 275.02927 561.5594 274.46677Q561.79376 273.90427 561.79376 272.84177L561.79376 268.40427L563.2 268.40427L563.2 276.70114L561.95 276.70114ZM565.5125 279.88864L565.5125 268.40427L566.79376 268.40427L566.79376 269.4824Q567.2469 268.84177 567.8094 268.52927Q568.3875 268.21677 569.2 268.21677Q570.2625 268.21677 571.075 268.76364Q571.8875 269.31052 572.29376 270.31052Q572.71564 271.2949 572.71564 272.4824Q572.71564 273.76364 572.2469 274.77927Q571.79376 275.7949 570.91876 276.34177Q570.0594 276.88864 569.09064 276.88864Q568.3875 276.88864 567.825 276.59177Q567.27814 276.2949 566.91876 275.84177L566.91876 279.88864L565.5125 279.88864ZM566.77814 272.59177Q566.77814 274.20114 567.41876 274.96677Q568.075 275.7324 568.9969 275.7324Q569.9344 275.7324 570.60626 274.93552Q571.27814 274.13864 571.27814 272.4824Q571.27814 270.88864 570.6219 270.1074Q569.96564 269.31052 569.0594 269.31052Q568.16876 269.31052 567.46564 270.15427Q566.77814 270.99802 566.77814 272.59177ZM573.95 274.21677L575.34064 273.99802Q575.45 274.84177 575.98126 275.2949Q576.52814 275.7324 577.48126 275.7324Q578.45 275.7324 578.91876 275.34177Q579.3875 274.93552 579.3875 274.40427Q579.3875 273.93552 578.98126 273.65427Q578.6844 273.46677 577.54376 273.18552Q575.9969 272.7949 575.3875 272.51364Q574.79376 272.21677 574.48126 271.71677Q574.1844 271.21677 574.1844 270.6074Q574.1844 270.0449 574.4344 269.57614Q574.6844 269.1074 575.1219 268.7949Q575.45 268.5449 576.0125 268.38864Q576.59064 268.21677 577.23126 268.21677Q578.21564 268.21677 578.95 268.49802Q579.6844 268.77927 580.02814 269.26364Q580.3875 269.7324 580.52814 270.5449L579.15314 270.7324Q579.0594 270.09177 578.60626 269.7324Q578.15314 269.37302 577.34064 269.37302Q576.3719 269.37302 575.95 269.70114Q575.54376 270.01364 575.54376 270.43552Q575.54376 270.71677 575.71564 270.93552Q575.8875 271.15427 576.2469 271.31052Q576.46564 271.38864 577.4969 271.6699Q578.98126 272.06052 579.575 272.32614Q580.16876 272.57614 580.4969 273.06052Q580.84064 273.5449 580.84064 274.26364Q580.84064 274.96677 580.41876 275.59177Q580.0125 276.20114 579.23126 276.5449Q578.46564 276.88864 577.4969 276.88864Q575.8719 276.88864 575.02814 276.21677Q574.1844 275.5449 573.95 274.21677Z" fill-rule="nonzero"/><path fill="#9e9e9e" d="M544.41876 290.0449L543.0125 290.15427Q542.825 289.32614 542.48126 288.95114Q541.91876 288.3574 541.075 288.3574Q540.40314 288.3574 539.90314 288.7324Q539.23126 289.21677 538.84064 290.15427Q538.46564 291.07614 538.45 292.7949Q538.96564 292.01364 539.7 291.63864Q540.4344 291.26364 541.23126 291.26364Q542.6375 291.26364 543.6219 292.31052Q544.6219 293.34177 544.6219 294.9824Q544.6219 296.06052 544.15314 296.9824Q543.6844 297.90427 542.8719 298.40427Q542.0594 298.90427 541.02814 298.90427Q539.27814 298.90427 538.16876 297.6074Q537.0594 296.31052 537.0594 293.34177Q537.0594 290.01364 538.27814 288.51364Q539.35626 287.20114 541.16876 287.20114Q542.5125 287.20114 543.3719 287.96677Q544.2469 288.71677 544.41876 290.0449ZM538.66876 294.9824Q538.66876 295.71677 538.98126 296.38864Q539.29376 297.0449 539.84064 297.38864Q540.40314 297.7324 541.0125 297.7324Q541.90314 297.7324 542.54376 297.01364Q543.1844 296.2949 543.1844 295.06052Q543.1844 293.87302 542.54376 293.20114Q541.91876 292.51364 540.95 292.51364Q539.9969 292.51364 539.325 293.20114Q538.66876 293.87302 538.66876 294.9824ZM548.27814 292.4824Q547.40314 292.1699 546.98126 291.57614Q546.5594 290.9824 546.5594 290.15427Q546.5594 288.90427 547.45 288.06052Q548.35626 287.20114 549.85626 287.20114Q551.35626 287.20114 552.2625 288.07614Q553.1844 288.93552 553.1844 290.18552Q553.1844 290.9824 552.7625 291.57614Q552.34064 292.1699 551.4969 292.4824Q552.54376 292.82614 553.09064 293.59177Q553.65314 294.3574 553.65314 295.4199Q553.65314 296.88864 552.60626 297.90427Q551.575 298.90427 549.8719 298.90427Q548.1844 298.90427 547.1375 297.90427Q546.10626 296.88864 546.10626 295.38864Q546.10626 294.26364 546.66876 293.51364Q547.23126 292.76364 548.27814 292.4824ZM547.9969 290.1074Q547.9969 290.9199 548.5125 291.43552Q549.04376 291.95114 549.8875 291.95114Q550.7 291.95114 551.21564 291.43552Q551.73126 290.9199 551.73126 290.18552Q551.73126 289.40427 551.2 288.88864Q550.66876 288.3574 549.8719 288.3574Q549.0594 288.3574 548.52814 288.87302Q547.9969 289.38864 547.9969 290.1074ZM547.54376 295.38864Q547.54376 295.99802 547.825 296.56052Q548.1219 297.12302 548.6844 297.43552Q549.2469 297.7324 549.8875 297.7324Q550.90314 297.7324 551.5594 297.09177Q552.21564 296.43552 552.21564 295.43552Q552.21564 294.4199 551.52814 293.76364Q550.85626 293.09177 549.84064 293.09177Q548.85626 293.09177 548.2 293.74802Q547.54376 294.40427 547.54376 295.38864ZM555.90314 298.70114L555.90314 297.09177L557.5125 297.09177L557.5125 298.70114L555.90314 298.70114ZM561.27814 292.4824Q560.40314 292.1699 559.98126 291.57614Q559.5594 290.9824 559.5594 290.15427Q559.5594 288.90427 560.45 288.06052Q561.35626 287.20114 562.85626 287.20114Q564.35626 287.20114 565.2625 288.07614Q566.1844 288.93552 566.1844 290.18552Q566.1844 290.9824 565.7625 291.57614Q565.34064 292.1699 564.4969 292.4824Q565.54376 292.82614 566.09064 293.59177Q566.65314 294.3574 566.65314 295.4199Q566.65314 296.88864 565.60626 297.90427Q564.575 298.90427 562.8719 298.90427Q561.1844 298.90427 560.1375 297.90427Q559.10626 296.88864 559.10626 295.38864Q559.10626 294.26364 559.66876 293.51364Q560.23126 292.76364 561.27814 292.4824ZM560.9969 290.1074Q560.9969 290.9199 561.5125 291.43552Q562.04376 291.95114 562.8875 291.95114Q563.7 291.95114 564.21564 291.43552Q564.73126 290.9199 564.73126 290.18552Q564.73126 289.40427 564.2 288.88864Q563.66876 288.3574 562.8719 288.3574Q562.0594 288.3574 561.52814 288.87302Q560.9969 289.38864 560.9969 290.1074ZM560.54376 295.38864Q560.54376 295.99802 560.825 296.56052Q561.1219 297.12302 561.6844 297.43552Q562.2469 297.7324 562.8875 297.7324Q563.90314 297.7324 564.5594 297.09177Q565.21564 296.43552 565.21564 295.43552Q565.21564 294.4199 564.52814 293.76364Q563.85626 293.09177 562.84064 293.09177Q561.85626 293.09177 561.2 293.74802Q560.54376 294.40427 560.54376 295.38864ZM568.3875 289.99802Q568.3875 288.76364 568.9969 287.90427Q569.6219 287.0449 570.79376 287.0449Q571.8719 287.0449 572.575 287.82614Q573.27814 288.59177 573.27814 290.07614Q573.27814 291.52927 572.5594 292.32614Q571.85626 293.1074 570.8094 293.1074Q569.7625 293.1074 569.075 292.34177Q568.3875 291.56052 568.3875 289.99802ZM570.825 288.01364Q570.3094 288.01364 569.95 288.46677Q569.60626 288.9199 569.60626 290.13864Q569.60626 291.2324 569.95 291.68552Q570.3094 292.13864 570.825 292.13864Q571.35626 292.13864 571.7 291.68552Q572.0594 291.2324 572.0594 290.02927Q572.0594 288.9199 571.7 288.46677Q571.35626 288.01364 570.825 288.01364ZM570.84064 299.12302L577.10626 287.0449L578.2469 287.0449L571.9969 299.12302L570.84064 299.12302ZM575.79376 296.01364Q575.79376 294.77927 576.40314 293.9199Q577.02814 293.06052 578.2 293.06052Q579.27814 293.06052 579.98126 293.84177Q580.7 294.6074 580.7 296.09177Q580.7 297.5449 579.98126 298.34177Q579.2625 299.12302 578.21564 299.12302Q577.16876 299.12302 576.48126 298.34177Q575.79376 297.56052 575.79376 296.01364ZM578.2469 294.02927Q577.71564 294.02927 577.35626 294.4824Q577.0125 294.93552 577.0125 296.15427Q577.0125 297.24802 577.35626 297.70114Q577.71564 298.15427 578.23126 298.15427Q578.77814 298.15427 579.1219 297.70114Q579.46564 297.24802 579.46564 296.0449Q579.46564 294.93552 579.10626 294.4824Q578.7625 294.02927 578.2469 294.02927Z" fill-rule="nonzero"/><path stroke="#757575" stroke-width="1.0" stroke-linecap="butt" d="M581.45 282.20114L454.76666 282.20114L417.51022 282.20114" fill-rule="nonzero"/><path fill="#9e9e9e" d="M419.51022 282.20114C419.51022 281.0966 418.61478 280.20114 417.51022 280.20114C416.40564 280.20114 415.51022 281.0966 415.51022 282.20114C415.51022 283.30573 416.40564 284.20114 417.51022 284.20114C418.61478 284.20114 419.51022 283.30573 419.51022 282.20114" fill-rule="nonzero"/><path fill="#f3f3f3" d="M271.26562 32.534374L273.15625 33.003124Q272.5625 35.346874 271.01562 36.58125Q269.46875 37.8 267.21875 37.8Q264.90625 37.8 263.45312 36.8625Q262.01562 35.909374 261.25 34.128124Q260.5 32.33125 260.5 30.284374Q260.5 28.05 261.34375 26.39375Q262.20312 24.721874 263.78125 23.8625Q265.35938 22.9875 267.25 22.9875Q269.40625 22.9875 270.85938 24.08125Q272.32812 25.175 272.90625 27.159374L271.04688 27.596874Q270.54688 26.034374 269.59375 25.33125Q268.65625 24.6125 267.21875 24.6125Q265.5625 24.6125 264.45312 25.409374Q263.34375 26.190624 262.89062 27.534374Q262.45312 28.8625 262.45312 30.26875Q262.45312 32.096874 262.98438 33.471874Q263.51562 34.83125 264.64062 35.503124Q265.76562 36.175 267.0625 36.175Q268.65625 36.175 269.76562 35.253124Q270.875 34.33125 271.26562 32.534374ZM281.59375 36.26875Q280.60938 37.096874 279.70312 37.440624Q278.79688 37.784374 277.76562 37.784374Q276.0625 37.784374 275.14062 36.95625Q274.21875 36.1125 274.21875 34.815624Q274.21875 34.05 274.5625 33.425Q274.92188 32.8 275.48438 32.425Q276.04688 32.034374 276.75 31.83125Q277.26562 31.70625 278.3125 31.565624Q280.4375 31.315624 281.4375 30.971874Q281.45312 30.6125 281.45312 30.503124Q281.45312 29.440624 280.95312 28.9875Q280.28125 28.39375 278.95312 28.39375Q277.70312 28.39375 277.10938 28.83125Q276.53125 29.26875 276.25 30.378124L274.53125 30.14375Q274.76562 29.034374 275.29688 28.3625Q275.82812 27.675 276.84375 27.315624Q277.85938 26.940624 279.20312 26.940624Q280.53125 26.940624 281.35938 27.253124Q282.1875 27.565624 282.57812 28.05Q282.96875 28.51875 283.125 29.2375Q283.21875 29.690624 283.21875 30.8625L283.21875 33.20625Q283.21875 35.659374 283.32812 36.315624Q283.4375 36.95625 283.78125 37.55L281.9375 37.55Q281.67188 37.003124 281.59375 36.26875ZM281.4375 32.346874Q280.48438 32.7375 278.5625 33.003124Q277.48438 33.159374 277.03125 33.3625Q276.59375 33.55 276.34375 33.925Q276.09375 34.3 276.09375 34.76875Q276.09375 35.471874 276.625 35.940624Q277.15625 36.409374 278.1875 36.409374Q279.20312 36.409374 279.98438 35.971874Q280.78125 35.51875 281.15625 34.753124Q281.4375 34.14375 281.4375 32.9875L281.4375 32.346874ZM289.65625 35.971874L289.90625 37.534374Q289.17188 37.690624 288.57812 37.690624Q287.625 37.690624 287.09375 37.39375Q286.57812 37.08125 286.35938 36.596874Q286.14062 36.096874 286.14062 34.51875L286.14062 28.55L284.85938 28.55L284.85938 27.175L286.14062 27.175L286.14062 24.6125L287.89062 23.55L287.89062 27.175L289.65625 27.175L289.65625 28.55L287.89062 28.55L287.89062 34.6125Q287.89062 35.3625 287.98438 35.58125Q288.07812 35.784374 288.28125 35.925Q288.5 36.05 288.89062 36.05Q289.17188 36.05 289.65625 35.971874ZM298.92188 34.20625L300.73438 34.440624Q300.3125 36.01875 299.14062 36.909374Q297.98438 37.784374 296.17188 37.784374Q293.90625 37.784374 292.5625 36.39375Q291.23438 34.9875 291.23438 32.45625Q291.23438 29.83125 292.57812 28.39375Q293.92188 26.940624 296.07812 26.940624Q298.15625 26.940624 299.46875 28.3625Q300.79688 29.76875 300.79688 32.346874Q300.79688 32.503124 300.78125 32.815624L293.04688 32.815624Q293.14062 34.51875 294.01562 35.425Q294.89062 36.33125 296.1875 36.33125Q297.15625 36.33125 297.82812 35.83125Q298.51562 35.315624 298.92188 34.20625ZM293.14062 31.3625L298.9375 31.3625Q298.82812 30.065624 298.28125 29.409374Q297.4375 28.39375 296.09375 28.39375Q294.89062 28.39375 294.0625 29.20625Q293.23438 30.003124 293.14062 31.3625ZM302.5 38.409374L304.20312 38.659374Q304.3125 39.45625 304.79688 39.815624Q305.45312 40.3 306.59375 40.3Q307.8125 40.3 308.46875 39.815624Q309.14062 39.33125 309.375 38.45625Q309.51562 37.909374 309.5 36.190624Q308.34375 37.55 306.625 37.55Q304.48438 37.55 303.3125 36.003124Q302.14062 34.45625 302.14062 32.3Q302.14062 30.815624 302.67188 29.565624Q303.21875 28.315624 304.23438 27.628124Q305.26562 26.940624 306.64062 26.940624Q308.46875 26.940624 309.67188 28.425L309.67188 27.175L311.28125 27.175L311.28125 36.14375Q311.28125 38.565624 310.78125 39.565624Q310.29688 40.58125 309.21875 41.159374Q308.15625 41.753124 306.59375 41.753124Q304.75 41.753124 303.59375 40.925Q302.45312 40.096874 302.5 38.409374ZM303.95312 32.175Q303.95312 34.221874 304.76562 35.159374Q305.57812 36.096874 306.79688 36.096874Q308.0 36.096874 308.8125 35.159374Q309.64062 34.221874 309.64062 32.2375Q309.64062 30.33125 308.79688 29.3625Q307.95312 28.39375 306.76562 28.39375Q305.59375 28.39375 304.76562 29.346874Q303.95312 30.3 303.95312 32.175ZM313.17188 32.3625Q313.17188 29.4875 314.76562 28.096874Q316.10938 26.940624 318.03125 26.940624Q320.17188 26.940624 321.51562 28.346874Q322.875 29.753124 322.875 32.221874Q322.875 34.221874 322.28125 35.378124Q321.6875 36.51875 320.53125 37.159374Q319.39062 37.784374 318.03125 37.784374Q315.84375 37.784374 314.5 36.39375Q313.17188 34.9875 313.17188 32.3625ZM314.96875 32.3625Q314.96875 34.3625 315.82812 35.346874Q316.70312 36.33125 318.03125 36.33125Q319.34375 36.33125 320.20312 35.346874Q321.07812 34.346874 321.07812 32.3Q321.07812 30.378124 320.20312 29.39375Q319.32812 28.39375 318.03125 28.39375Q316.70312 28.39375 315.82812 29.39375Q314.96875 30.378124 314.96875 32.3625ZM324.79688 37.55L324.79688 27.175L326.375 27.175L326.375 28.753124Q326.98438 27.64375 327.5 27.3Q328.01562 26.940624 328.625 26.940624Q329.51562 26.940624 330.4375 27.503124L329.82812 29.14375Q329.1875 28.753124 328.54688 28.753124Q327.96875 28.753124 327.5 29.1125Q327.04688 29.45625 326.84375 30.065624Q326.5625 31.003124 326.5625 32.1125L326.5625 37.55L324.79688 37.55ZM331.73438 41.55L331.54688 39.89375Q332.125 40.05 332.54688 40.05Q333.14062 40.05 333.48438 39.846874Q333.84375 39.659374 334.0625 39.315624Q334.23438 39.05 334.60938 38.003124Q334.65625 37.846874 334.76562 37.565624L330.82812 27.175L332.71875 27.175L334.875 33.190624Q335.29688 34.33125 335.625 35.58125Q335.9375 34.378124 336.34375 33.221874L338.5625 27.175L340.32812 27.175L336.375 37.721874Q335.75 39.440624 335.39062 40.08125Q334.92188 40.95625 334.3125 41.346874Q333.71875 41.753124 332.875 41.753124Q332.35938 41.753124 331.73438 41.55Z" fill-rule="nonzero"/></svg>