<svg version="1.1" viewBox="0.0 0.0 600.0 371.0" fill="none" stroke="none" stroke-linecap="square" stroke-miterlimit="10" width="600" height="371" xmlns:xlink="http://www.w3.org/1999/xlink" xmlns="http://www.w3.org/2000/svg"><path fill="#ffffff" fill-opacity="0.0" d="M0 0L600.0 0L600.0 371.0L0 371.0L0 0Z" fill-rule="nonzero"/><path fill="#f5ee58" d="M300.0 54.916668C345.27335 54.916668 388.08298 75.53269 416.31046 110.92883L358.15524 157.30608C344.0415 139.60802 322.6367 129.3 300.0 129.3Z" fill-rule="nonzero"/><path fill="#313d89" d="M416.31046 110.92883C425.57846 122.55052 433.0523 135.49562 438.48297 149.33276L369.2415 176.50806C366.52615 169.58948 362.7892 163.11693 358.15524 157.30608Z" fill-rule="nonzero"/><path fill="#d8753e" d="M183.68953 110.92883C211.91702 75.53269 254.72664 54.916668 300.0 54.916668L300.0 129.3C277.3633 129.3 255.95851 139.60802 241.84477 157.30608Z" fill-rule="nonzero"/><path fill="#d0473d" d="M161.51701 149.33276C166.9477 135.49562 174.42155 122.55052 183.68953 110.92883L241.84477 157.30608C237.21077 163.11693 233.47385 169.58948 230.75851 176.50806Z" fill-rule="nonzero"/><path fill="#8c4595" d="M198.81297 312.73703C153.96149 271.12094 139.16377 206.28789 161.51701 149.33276L230.75851 176.50806C219.5819 204.98561 226.98074 237.40213 249.40648 258.21017Z" fill-rule="nonzero"/><path fill="#78a94e" d="M438.48297 149.33276C463.84042 213.94249 441.1505 287.50143 383.80325 326.60013C326.456 365.69882 249.69235 359.94617 198.81297 312.73703L249.40648 258.21017C274.84616 281.81476 313.228 284.69107 341.9016 265.14172C370.57526 245.59238 381.92023 208.81291 369.2415 176.50806Z" fill-rule="nonzero"/><path fill="#ffffff" d="M329.6137 109.65773L328.03558 109.65773L328.03558 99.579605Q327.45746 100.12648 326.53558 100.673355Q325.6137 101.204605 324.8637 101.485855L324.8637 99.954605Q326.19183 99.329605 327.19183 98.43898Q328.19183 97.548355 328.59808 96.72023L329.6137 96.72023L329.6137 109.65773ZM338.72308 109.65773L338.72308 106.579605L333.14496 106.579605L333.14496 105.12648L339.01996 96.767105L340.31683 96.767105L340.31683 105.12648L342.0512 105.12648L342.0512 106.579605L340.31683 106.579605L340.31683 109.65773L338.72308 109.65773ZM338.72308 105.12648L338.72308 99.31398L334.69183 105.12648L338.72308 105.12648ZM344.5512 109.65773L344.5512 107.860855L346.34808 107.860855L346.34808 109.65773L344.5512 109.65773ZM348.66058 106.25148L350.25433 106.048355Q350.51996 107.392105 351.1762 107.985855Q351.83246 108.579605 352.76996 108.579605Q353.89496 108.579605 354.66058 107.81398Q355.4262 107.03273 355.4262 105.892105Q355.4262 104.798355 354.70746 104.09523Q354.00433 103.37648 352.91058 103.37648Q352.45746 103.37648 351.78558 103.56398L351.95746 102.173355Q352.1137 102.18898 352.22308 102.18898Q353.22308 102.18898 354.03558 101.65773Q354.84808 101.12648 354.84808 100.03273Q354.84808 99.15773 354.25433 98.59523Q353.66058 98.017105 352.7387 98.017105Q351.81683 98.017105 351.19183 98.59523Q350.58246 99.173355 350.41058 100.34523L348.83246 100.06398Q349.1137 98.47023 350.14496 97.59523Q351.1762 96.72023 352.70746 96.72023Q353.75433 96.72023 354.64496 97.173355Q355.53558 97.62648 356.00433 98.40773Q356.47308 99.18898 356.47308 100.06398Q356.47308 100.90773 356.01996 101.59523Q355.58246 102.267105 354.69183 102.673355Q355.83246 102.93898 356.45746 103.78273Q357.09808 104.610855 357.09808 105.84523Q357.09808 107.53273 355.8637 108.72023Q354.64496 109.892105 352.76996 109.892105Q351.06683 109.892105 349.94183 108.87648Q348.83246 107.860855 348.66058 106.25148ZM358.95746 99.860855Q358.95746 98.485855 359.64496 97.517105Q360.34808 96.548355 361.66058 96.548355Q362.87933 96.548355 363.6762 97.423355Q364.47308 98.28273 364.47308 99.97023Q364.47308 101.59523 363.66058 102.485855Q362.8637 103.360855 361.6762 103.360855Q360.51996 103.360855 359.7387 102.50148Q358.95746 101.62648 358.95746 99.860855ZM361.70746 97.642105Q361.1137 97.642105 360.72308 98.15773Q360.33246 98.65773 360.33246 100.017105Q360.33246 101.267105 360.72308 101.767105Q361.12933 102.267105 361.70746 102.267105Q362.3012 102.267105 362.69183 101.767105Q363.08246 101.25148 363.08246 99.90773Q363.08246 98.65773 362.69183 98.15773Q362.3012 97.642105 361.70746 97.642105ZM361.72308 110.12648L368.76996 96.548355L370.0512 96.548355L363.01996 110.12648L361.72308 110.12648ZM367.28558 106.62648Q367.28558 105.25148 367.97308 104.28273Q368.6762 103.31398 370.00433 103.31398Q371.22308 103.31398 372.00433 104.18898Q372.8012 105.048355 372.8012 106.735855Q372.8012 108.360855 372.00433 109.25148Q371.20746 110.12648 370.01996 110.12648Q368.84808 110.12648 368.06683 109.25148Q367.28558 108.37648 367.28558 106.62648ZM370.0512 104.40773Q369.45746 104.40773 369.06683 104.923355Q368.6762 105.423355 368.6762 106.798355Q368.6762 108.017105 369.06683 108.53273Q369.45746 109.048355 370.03558 109.048355Q370.64496 109.048355 371.03558 108.53273Q371.4262 108.017105 371.4262 106.673355Q371.4262 105.423355 371.03558 104.923355Q370.64496 104.40773 370.0512 104.40773Z" fill-rule="nonzero"/><path fill="#ffffff" d="M343.16495 302.3709L343.16495 299.2928L337.58682 299.2928L337.58682 297.83966L343.46182 289.4803L344.7587 289.4803L344.7587 297.83966L346.49307 297.83966L346.49307 299.2928L344.7587 299.2928L344.7587 302.3709L343.16495 302.3709ZM343.16495 297.83966L343.16495 292.02716L339.1337 297.83966L343.16495 297.83966ZM356.41495 300.8553L356.41495 302.3709L347.89932 302.3709Q347.8837 301.7928 348.08682 301.27716Q348.41495 300.40216 349.11807 299.5584Q349.83682 298.71466 351.1962 297.6053Q353.28995 295.88654 354.02432 294.88654Q354.77432 293.8709 354.77432 292.9803Q354.77432 292.02716 354.10245 291.38654Q353.43057 290.7459 352.35245 290.7459Q351.1962 290.7459 350.5087 291.4334Q349.83682 292.1209 349.8212 293.32404L348.1962 293.15216Q348.36807 291.33966 349.4462 290.38654Q350.53995 289.4334 352.3837 289.4334Q354.22745 289.4334 355.30557 290.46466Q356.39932 291.4959 356.39932 293.01154Q356.39932 293.77716 356.0712 294.52716Q355.7587 295.27716 355.02432 296.1053Q354.28995 296.9334 352.58682 298.3709Q351.16495 299.57404 350.7587 299.9959Q350.35245 300.4178 350.10245 300.8553L356.41495 300.8553ZM358.99307 302.3709L358.99307 300.57404L360.78995 300.57404L360.78995 302.3709L358.99307 302.3709ZM363.33682 299.38654L364.85245 299.2459Q365.05557 300.32404 365.58682 300.8084Q366.1337 301.2928 366.99307 301.2928Q367.72745 301.2928 368.27432 300.96466Q368.8212 300.6209 369.16495 300.07404Q369.52432 299.51154 369.7587 298.5584Q369.99307 297.6053 369.99307 296.6209Q369.99307 296.51154 369.99307 296.3084Q369.5087 297.0584 368.68057 297.52716Q367.86807 297.9959 366.91495 297.9959Q365.3212 297.9959 364.21182 296.83966Q363.10245 295.6834 363.10245 293.77716Q363.10245 291.82404 364.2587 290.63654Q365.41495 289.4334 367.14932 289.4334Q368.41495 289.4334 369.4462 290.1209Q370.49307 290.7928 371.02432 292.0428Q371.5712 293.2928 371.5712 295.6678Q371.5712 298.13654 371.02432 299.6053Q370.49307 301.0584 369.43057 301.82404Q368.3837 302.58966 366.96182 302.58966Q365.4462 302.58966 364.47745 301.76154Q363.52432 300.9178 363.33682 299.38654ZM369.8212 293.69904Q369.8212 292.33966 369.08682 291.5428Q368.36807 290.7459 367.35245 290.7459Q366.28995 290.7459 365.5087 291.6053Q364.72745 292.46466 364.72745 293.83966Q364.72745 295.07404 365.46182 295.83966Q366.21182 296.6053 367.30557 296.6053Q368.39932 296.6053 369.10245 295.83966Q369.8212 295.07404 369.8212 293.69904ZM373.39932 292.57404Q373.39932 291.19904 374.08682 290.2303Q374.78995 289.26154 376.10245 289.26154Q377.3212 289.26154 378.11807 290.13654Q378.91495 290.9959 378.91495 292.6834Q378.91495 294.3084 378.10245 295.19904Q377.30557 296.07404 376.11807 296.07404Q374.96182 296.07404 374.18057 295.21466Q373.39932 294.33966 373.39932 292.57404ZM376.14932 290.3553Q375.55557 290.3553 375.16495 290.8709Q374.77432 291.3709 374.77432 292.7303Q374.77432 293.9803 375.16495 294.4803Q375.5712 294.9803 376.14932 294.9803Q376.74307 294.9803 377.1337 294.4803Q377.52432 293.96466 377.52432 292.6209Q377.52432 291.3709 377.1337 290.8709Q376.74307 290.3553 376.14932 290.3553ZM376.16495 302.83966L383.21182 289.26154L384.49307 289.26154L377.46182 302.83966L376.16495 302.83966ZM381.72745 299.33966Q381.72745 297.96466 382.41495 296.9959Q383.11807 296.02716 384.4462 296.02716Q385.66495 296.02716 386.4462 296.90216Q387.24307 297.76154 387.24307 299.44904Q387.24307 301.07404 386.4462 301.96466Q385.64932 302.83966 384.46182 302.83966Q383.28995 302.83966 382.5087 301.96466Q381.72745 301.08966 381.72745 299.33966ZM384.49307 297.1209Q383.89932 297.1209 383.5087 297.63654Q383.11807 298.13654 383.11807 299.51154Q383.11807 300.7303 383.5087 301.2459Q383.89932 301.76154 384.47745 301.76154Q385.08682 301.76154 385.47745 301.2459Q385.86807 300.7303 385.86807 299.38654Q385.86807 298.13654 385.47745 297.63654Q385.08682 297.1209 384.49307 297.1209Z" fill-rule="nonzero"/><path fill="#ffffff" d="M172.42554 235.01111L170.84741 235.01111L170.84741 224.93298Q170.26929 225.47986 169.34741 226.02673Q168.42554 226.55798 167.67554 226.83923L167.67554 225.30798Q169.00366 224.68298 170.00366 223.79236Q171.00366 222.90173 171.40991 222.07361L172.42554 222.07361L172.42554 235.01111ZM176.70679 232.02673L178.22241 231.88611Q178.42554 232.96423 178.95679 233.44861Q179.50366 233.93298 180.36304 233.93298Q181.09741 233.93298 181.64429 233.60486Q182.19116 233.26111 182.53491 232.71423Q182.89429 232.15173 183.12866 231.19861Q183.36304 230.24548 183.36304 229.26111Q183.36304 229.15173 183.36304 228.94861Q182.87866 229.69861 182.05054 230.16736Q181.23804 230.63611 180.28491 230.63611Q178.69116 230.63611 177.58179 229.47986Q176.47241 228.32361 176.47241 226.41736Q176.47241 224.46423 177.62866 223.27673Q178.78491 222.07361 180.51929 222.07361Q181.78491 222.07361 182.81616 222.76111Q183.86304 223.43298 184.39429 224.68298Q184.94116 225.93298 184.94116 228.30798Q184.94116 230.77673 184.39429 232.24548Q183.86304 233.69861 182.80054 234.46423Q181.75366 235.22986 180.33179 235.22986Q178.81616 235.22986 177.84741 234.40173Q176.89429 233.55798 176.70679 232.02673ZM183.19116 226.33923Q183.19116 224.97986 182.45679 224.18298Q181.73804 223.38611 180.72241 223.38611Q179.65991 223.38611 178.87866 224.24548Q178.09741 225.10486 178.09741 226.47986Q178.09741 227.71423 178.83179 228.47986Q179.58179 229.24548 180.67554 229.24548Q181.76929 229.24548 182.47241 228.47986Q183.19116 227.71423 183.19116 226.33923ZM187.36304 235.01111L187.36304 233.21423L189.15991 233.21423L189.15991 235.01111L187.36304 235.01111ZM191.47241 228.65173Q191.47241 226.37048 191.94116 224.97986Q192.40991 223.58923 193.33179 222.83923Q194.26929 222.07361 195.67554 222.07361Q196.70679 222.07361 197.48804 222.49548Q198.26929 222.90173 198.76929 223.69861Q199.28491 224.47986 199.58179 225.62048Q199.87866 226.74548 199.87866 228.65173Q199.87866 230.91736 199.40991 232.32361Q198.94116 233.71423 198.00366 234.47986Q197.08179 235.22986 195.67554 235.22986Q193.80054 235.22986 192.73804 233.90173Q191.47241 232.29236 191.47241 228.65173ZM193.09741 228.65173Q193.09741 231.82361 193.83179 232.88611Q194.58179 233.93298 195.67554 233.93298Q196.75366 233.93298 197.50366 232.88611Q198.25366 231.82361 198.25366 228.65173Q198.25366 225.47986 197.50366 224.43298Q196.75366 223.38611 195.65991 223.38611Q194.56616 223.38611 193.90991 224.30798Q193.09741 225.47986 193.09741 228.65173ZM201.76929 225.21423Q201.76929 223.83923 202.45679 222.87048Q203.15991 221.90173 204.47241 221.90173Q205.69116 221.90173 206.48804 222.77673Q207.28491 223.63611 207.28491 225.32361Q207.28491 226.94861 206.47241 227.83923Q205.67554 228.71423 204.48804 228.71423Q203.33179 228.71423 202.55054 227.85486Q201.76929 226.97986 201.76929 225.21423ZM204.51929 222.99548Q203.92554 222.99548 203.53491 223.51111Q203.14429 224.01111 203.14429 225.37048Q203.14429 226.62048 203.53491 227.12048Q203.94116 227.62048 204.51929 227.62048Q205.11304 227.62048 205.50366 227.12048Q205.89429 226.60486 205.89429 225.26111Q205.89429 224.01111 205.50366 223.51111Q205.11304 222.99548 204.51929 222.99548ZM204.53491 235.47986L211.58179 221.90173L212.86304 221.90173L205.83179 235.47986L204.53491 235.47986ZM210.09741 231.97986Q210.09741 230.60486 210.78491 229.63611Q211.48804 228.66736 212.81616 228.66736Q214.03491 228.66736 214.81616 229.54236Q215.61304 230.40173 215.61304 232.08923Q215.61304 233.71423 214.81616 234.60486Q214.01929 235.47986 212.83179 235.47986Q211.65991 235.47986 210.87866 234.60486Q210.09741 233.72986 210.09741 231.97986ZM212.86304 229.76111Q212.26929 229.76111 211.87866 230.27673Q211.48804 230.77673 211.48804 232.15173Q211.48804 233.37048 211.87866 233.88611Q212.26929 234.40173 212.84741 234.40173Q213.45679 234.40173 213.84741 233.88611Q214.23804 233.37048 214.23804 232.02673Q214.23804 230.77673 213.84741 230.27673Q213.45679 229.76111 212.86304 229.76111Z" fill-rule="nonzero"/><path fill="#ffffff" d="M232.79254 109.65773L231.21442 109.65773L231.21442 99.579605Q230.63629 100.12648 229.71442 100.673355Q228.79254 101.204605 228.04254 101.485855L228.04254 99.954605Q229.37067 99.329605 230.37067 98.43898Q231.37067 97.548355 231.77692 96.72023L232.79254 96.72023L232.79254 109.65773ZM241.90192 109.65773L241.90192 106.579605L236.32379 106.579605L236.32379 105.12648L242.19879 96.767105L243.49567 96.767105L243.49567 105.12648L245.23004 105.12648L245.23004 106.579605L243.49567 106.579605L243.49567 109.65773L241.90192 109.65773ZM241.90192 105.12648L241.90192 99.31398L237.87067 105.12648L241.90192 105.12648ZM247.73004 109.65773L247.73004 107.860855L249.52692 107.860855L249.52692 109.65773L247.73004 109.65773ZM251.83942 106.25148L253.43317 106.048355Q253.69879 107.392105 254.35504 107.985855Q255.01129 108.579605 255.94879 108.579605Q257.0738 108.579605 257.83942 107.81398Q258.60504 107.03273 258.60504 105.892105Q258.60504 104.798355 257.8863 104.09523Q257.18317 103.37648 256.08942 103.37648Q255.63629 103.37648 254.96442 103.56398L255.13629 102.173355Q255.29254 102.18898 255.40192 102.18898Q256.40192 102.18898 257.21442 101.65773Q258.02692 101.12648 258.02692 100.03273Q258.02692 99.15773 257.43317 98.59523Q256.83942 98.017105 255.91754 98.017105Q254.99567 98.017105 254.37067 98.59523Q253.76129 99.173355 253.58942 100.34523L252.01129 100.06398Q252.29254 98.47023 253.32379 97.59523Q254.35504 96.72023 255.88629 96.72023Q256.93317 96.72023 257.8238 97.173355Q258.71442 97.62648 259.18317 98.40773Q259.65192 99.18898 259.65192 100.06398Q259.65192 100.90773 259.1988 101.59523Q258.7613 102.267105 257.87067 102.673355Q259.0113 102.93898 259.6363 103.78273Q260.27692 104.610855 260.27692 105.84523Q260.27692 107.53273 259.04254 108.72023Q257.8238 109.892105 255.94879 109.892105Q254.24567 109.892105 253.12067 108.87648Q252.01129 107.860855 251.83942 106.25148ZM262.1363 99.860855Q262.1363 98.485855 262.8238 97.517105Q263.52692 96.548355 264.83942 96.548355Q266.05817 96.548355 266.85504 97.423355Q267.65192 98.28273 267.65192 99.97023Q267.65192 101.59523 266.83942 102.485855Q266.04254 103.360855 264.85504 103.360855Q263.6988 103.360855 262.91754 102.50148Q262.1363 101.62648 262.1363 99.860855ZM264.8863 97.642105Q264.29254 97.642105 263.90192 98.15773Q263.5113 98.65773 263.5113 100.017105Q263.5113 101.267105 263.90192 101.767105Q264.30817 102.267105 264.8863 102.267105Q265.48004 102.267105 265.87067 101.767105Q266.2613 101.25148 266.2613 99.90773Q266.2613 98.65773 265.87067 98.15773Q265.48004 97.642105 264.8863 97.642105ZM264.90192 110.12648L271.9488 96.548355L273.23004 96.548355L266.1988 110.12648L264.90192 110.12648ZM270.46442 106.62648Q270.46442 105.25148 271.15192 104.28273Q271.85504 103.31398 273.18317 103.31398Q274.40192 103.31398 275.18317 104.18898Q275.98004 105.048355 275.98004 106.735855Q275.98004 108.360855 275.18317 109.25148Q274.3863 110.12648 273.1988 110.12648Q272.02692 110.12648 271.24567 109.25148Q270.46442 108.37648 270.46442 106.62648ZM273.23004 104.40773Q272.6363 104.40773 272.24567 104.923355Q271.85504 105.423355 271.85504 106.798355Q271.85504 108.017105 272.24567 108.53273Q272.6363 109.048355 273.21442 109.048355Q273.8238 109.048355 274.21442 108.53273Q274.60504 108.017105 274.60504 106.673355Q274.60504 105.423355 274.21442 104.923355Q273.8238 104.40773 273.23004 104.40773Z" fill-rule="nonzero"/><path stroke="#ffffff" stroke-width="1.0" stroke-linejoin="round" stroke-linecap="round" d="M358.15524 157.30608C344.0415 139.60802 322.6367 129.3 300.0 129.3L300.0 54.916668C345.27335 54.916668 388.08298 75.53269 416.31046 110.92883" fill-rule="nonzero"/><path stroke="#ffffff" stroke-width="1.0" stroke-linejoin="round" stroke-linecap="round" d="M369.2415 176.50806C366.52615 169.58948 362.7892 163.11693 358.15524 157.30608L416.31046 110.92883C425.57846 122.55052 433.0523 135.49562 438.48297 149.33276" fill-rule="nonzero"/><path stroke="#ffffff" stroke-width="1.0" stroke-linejoin="round" stroke-linecap="round" d="M249.40648 258.21017C274.84616 281.81476 313.228 284.69107 341.9016 265.14172C370.57526 245.59238 381.92023 208.81291 369.2415 176.50806L438.48297 149.33276C463.84042 213.94249 441.1505 287.50143 383.80325 326.60013C326.456 365.69882 249.69235 359.94617 198.81297 312.73703" fill-rule="nonzero"/><path stroke="#ffffff" stroke-width="1.0" stroke-linejoin="round" stroke-linecap="round" d="M230.75851 176.50806C219.5819 204.98561 226.98074 237.40213 249.40648 258.21017L198.81297 312.73703C153.96149 271.12094 139.16377 206.28789 161.51701 149.33276" fill-rule="nonzero"/><path stroke="#ffffff" stroke-width="1.0" stroke-linejoin="round" stroke-linecap="round" d="M241.84477 157.30608C237.21077 163.11693 233.47385 169.58948 230.75851 176.50806L161.51701 149.33276C166.9477 135.49562 174.42155 122.55052 183.68953 110.92883" fill-rule="nonzero"/><path stroke="#ffffff" stroke-width="1.0" stroke-linejoin="round" stroke-linecap="round" d="M300.0 129.3C277.3633 129.3 255.95851 139.60802 241.84477 157.30608L183.68953 110.92883C211.91702 75.53269 254.72664 54.916668 300.0 54.916668" fill-rule="nonzero"/><path fill="#efefef" d="M18.51875 70.85091L22.925 59.39778L24.565624 59.39778L29.253124 70.85091L27.51875 70.85091L26.190624 67.38216L21.39375 67.38216L20.14375 70.85091L18.51875 70.85091ZM21.83125 66.14778L25.721874 66.14778L24.51875 62.975906Q23.971874 61.52278 23.70625 60.600906Q23.4875 61.694656 23.096874 62.788406L21.83125 66.14778ZM30.596874 70.85091L30.596874 62.55403L31.8625 62.55403L31.8625 63.80403Q32.346874 62.92903 32.753124 62.64778Q33.159374 62.36653 33.659374 62.36653Q34.3625 62.36653 35.096874 62.819656L34.6125 64.11653Q34.096874 63.819656 33.58125 63.819656Q33.128124 63.819656 32.753124 64.10091Q32.39375 64.36653 32.2375 64.86653Q32.003124 65.61653 32.003124 66.50716L32.003124 70.85091L30.596874 70.85091ZM38.675 69.58528L38.878124 70.83528Q38.284374 70.96028 37.815624 70.96028Q37.05 70.96028 36.628124 70.72591Q36.20625 70.47591 36.034374 70.08528Q35.8625 69.67903 35.8625 68.41341L35.8625 63.64778L34.83125 63.64778L34.83125 62.55403L35.8625 62.55403L35.8625 60.49153L37.26875 59.64778L37.26875 62.55403L38.675 62.55403L38.675 63.64778L37.26875 63.64778L37.26875 68.49153Q37.26875 69.10091 37.33125 69.27278Q37.409374 69.44466 37.58125 69.55403Q37.753124 69.64778 38.065624 69.64778Q38.3 69.64778 38.675 69.58528ZM39.05 68.36653L40.440624 68.14778Q40.55 68.99153 41.08125 69.44466Q41.628124 69.88216 42.58125 69.88216Q43.55 69.88216 44.01875 69.49153Q44.4875 69.08528 44.4875 68.55403Q44.4875 68.08528 44.08125 67.80403Q43.784374 67.61653 42.64375 67.33528Q41.096874 66.94466 40.4875 66.66341Q39.89375 66.36653 39.58125 65.86653Q39.284374 65.36653 39.284374 64.75716Q39.284374 64.19466 39.534374 63.725906Q39.784374 63.257156 40.221874 62.944656Q40.55 62.694656 41.1125 62.538406Q41.690624 62.36653 42.33125 62.36653Q43.315624 62.36653 44.05 62.64778Q44.784374 62.92903 45.128124 63.413406Q45.4875 63.882156 45.628124 64.69466L44.253124 64.88216Q44.159374 64.24153 43.70625 63.882156Q43.253124 63.52278 42.440624 63.52278Q41.471874 63.52278 41.05 63.850906Q40.64375 64.16341 40.64375 64.58528Q40.64375 64.86653 40.815624 65.08528Q40.9875 65.30403 41.346874 65.46028Q41.565624 65.53841 42.596874 65.81966Q44.08125 66.21028 44.675 66.47591Q45.26875 66.72591 45.596874 67.21028Q45.940624 67.69466 45.940624 68.41341Q45.940624 69.11653 45.51875 69.74153Q45.1125 70.35091 44.33125 70.69466Q43.565624 71.03841 42.596874 71.03841Q40.971874 71.03841 40.128124 70.36653Q39.284374 69.69466 39.05 68.36653ZM58.159374 69.49153Q57.45625 70.27278 56.628124 70.66341Q55.815624 71.05403 54.8625 71.05403Q53.1125 71.05403 52.08125 69.85091Q51.2375 68.88216 51.2375 67.69466Q51.2375 66.63216 51.925 65.77278Q52.6125 64.91341 53.971874 64.27278Q53.190624 63.382156 52.925 62.83528Q52.675 62.27278 52.675 61.757156Q52.675 60.725906 53.4875 59.96028Q54.3 59.194656 55.51875 59.194656Q56.690624 59.194656 57.440624 59.913406Q58.190624 60.632156 58.190624 61.64778Q58.190624 63.27278 56.01875 64.42903L58.08125 67.05403Q58.425 66.36653 58.628124 65.46028L60.08125 65.77278Q59.70625 67.27278 59.065624 68.24153Q59.8625 69.28841 60.8625 69.99153L59.909374 71.11653Q59.065624 70.56966 58.159374 69.49153ZM55.3 63.52278Q56.20625 62.99153 56.471874 62.58528Q56.753124 62.17903 56.753124 61.67903Q56.753124 61.100906 56.378124 60.725906Q56.003124 60.350906 55.45625 60.350906Q54.878124 60.350906 54.503124 60.725906Q54.128124 61.08528 54.128124 61.61653Q54.128124 61.882156 54.253124 62.17903Q54.39375 62.475906 54.675 62.80403L55.3 63.52278ZM57.26875 68.38216L54.690624 65.19466Q53.55 65.86653 53.14375 66.46028Q52.753124 67.03841 52.753124 67.60091Q52.753124 68.30403 53.3 69.05403Q53.8625 69.80403 54.878124 69.80403Q55.51875 69.80403 56.190624 69.41341Q56.8625 69.00716 57.26875 68.38216ZM65.51875 70.85091L69.925 59.39778L71.56563 59.39778L76.25313 70.85091L74.51875 70.85091L73.19063 67.38216L68.39375 67.38216L67.14375 70.85091L65.51875 70.85091ZM68.83125 66.14778L72.72188 66.14778L71.51875 62.975906Q70.97188 61.52278 70.70625 60.600906Q70.4875 61.694656 70.09688 62.788406L68.83125 66.14778ZM77.6125 70.85091L77.6125 62.55403L78.87813 62.55403L78.87813 63.725906Q79.78438 62.36653 81.51875 62.36653Q82.26875 62.36653 82.89375 62.632156Q83.51875 62.89778 83.83125 63.33528Q84.14375 63.77278 84.26875 64.38216Q84.34688 64.77278 84.34688 65.74153L84.34688 70.85091L82.94063 70.85091L82.94063 65.80403Q82.94063 64.94466 82.76875 64.52278Q82.6125 64.08528 82.19063 63.83528Q81.78438 63.58528 81.22188 63.58528Q80.31563 63.58528 79.65938 64.16341Q79.01875 64.72591 79.01875 66.31966L79.01875 70.85091L77.6125 70.85091ZM89.675 69.58528L89.87813 70.83528Q89.28438 70.96028 88.81563 70.96028Q88.05 70.96028 87.62813 70.72591Q87.20625 70.47591 87.03438 70.08528Q86.8625 69.67903 86.8625 68.41341L86.8625 63.64778L85.83125 63.64778L85.83125 62.55403L86.8625 62.55403L86.8625 60.49153L88.26875 59.64778L88.26875 62.55403L89.675 62.55403L89.675 63.64778L88.26875 63.64778L88.26875 68.49153Q88.26875 69.10091 88.33125 69.27278Q88.40938 69.44466 88.58125 69.55403Q88.75313 69.64778 89.06563 69.64778Q89.3 69.64778 89.675 69.58528ZM90.6125 61.007156L90.6125 59.39778L92.01875 59.39778L92.01875 61.007156L90.6125 61.007156ZM90.6125 70.85091L90.6125 62.55403L92.01875 62.55403L92.01875 70.85091L90.6125 70.85091ZM99.89375 74.03841L99.89375 69.96028Q99.56563 70.42903 98.97188 70.74153Q98.39375 71.03841 97.72188 71.03841Q96.25313 71.03841 95.175 69.86653Q94.1125 68.67903 94.1125 66.61653Q94.1125 65.36653 94.55 64.38216Q94.9875 63.382156 95.8 62.882156Q96.62813 62.36653 97.6125 62.36653Q99.15938 62.36653 100.03438 63.663406L100.03438 62.55403L101.3 62.55403L101.3 74.03841L99.89375 74.03841ZM95.56563 66.67903Q95.56563 68.27278 96.2375 69.08528Q96.90938 69.88216 97.84688 69.88216Q98.7375 69.88216 99.37813 69.11653Q100.03438 68.35091 100.03438 66.80403Q100.03438 65.14778 99.34688 64.31966Q98.675 63.475906 97.75313 63.475906Q96.83125 63.475906 96.19063 64.25716Q95.56563 65.02278 95.56563 66.67903ZM109.05 70.85091L109.05 69.63216Q108.08125 71.03841 106.40938 71.03841Q105.675 71.03841 105.03438 70.75716Q104.40938 70.47591 104.09688 70.05403Q103.78438 69.61653 103.65938 69.00716Q103.58125 68.58528 103.58125 67.69466L103.58125 62.55403L104.9875 62.55403L104.9875 67.14778Q104.9875 68.25716 105.06563 68.63216Q105.20625 69.19466 105.62813 69.50716Q106.06563 69.81966 106.69063 69.81966Q107.33125 69.81966 107.87813 69.50716Q108.44063 69.17903 108.65938 68.61653Q108.89375 68.05403 108.89375 66.99153L108.89375 62.55403L110.3 62.55403L110.3 70.85091L109.05 70.85091ZM112.6125 61.007156L112.6125 59.39778L114.01875 59.39778L114.01875 61.007156L112.6125 61.007156ZM112.6125 70.85091L112.6125 62.55403L114.01875 62.55403L114.01875 70.85091L112.6125 70.85091ZM119.675 69.58528L119.87813 70.83528Q119.28438 70.96028 118.81563 70.96028Q118.05 70.96028 117.62813 70.72591Q117.20625 70.47591 117.03438 70.08528Q116.8625 69.67903 116.8625 68.41341L116.8625 63.64778L115.83125 63.64778L115.83125 62.55403L116.8625 62.55403L116.8625 60.49153L118.26875 59.64778L118.26875 62.55403L119.675 62.55403L119.675 63.64778L118.26875 63.64778L118.26875 68.49153Q118.26875 69.10091 118.33125 69.27278Q118.40938 69.44466 118.58125 69.55403Q118.75313 69.64778 119.06563 69.64778Q119.3 69.64778 119.675 69.58528ZM120.6125 61.007156L120.6125 59.39778L122.01875 59.39778L122.01875 61.007156L120.6125 61.007156ZM120.6125 70.85091L120.6125 62.55403L122.01875 62.55403L122.01875 70.85091L120.6125 70.85091ZM130.28438 68.17903L131.7375 68.35091Q131.39375 69.63216 130.45625 70.33528Q129.53438 71.03841 128.09688 71.03841Q126.26875 71.03841 125.20625 69.91341Q124.14375 68.78841 124.14375 66.77278Q124.14375 64.67903 125.22188 63.52278Q126.3 62.36653 128.01875 62.36653Q129.675 62.36653 130.72188 63.507156Q131.78438 64.63216 131.78438 66.67903Q131.78438 66.80403 131.78438 67.05403L125.59688 67.05403Q125.675 68.42903 126.3625 69.16341Q127.06563 69.88216 128.09688 69.88216Q128.87813 69.88216 129.425 69.47591Q129.97188 69.06966 130.28438 68.17903ZM125.675 65.89778L130.3 65.89778Q130.20625 64.85091 129.76875 64.33528Q129.09688 63.52278 128.03438 63.52278Q127.06563 63.52278 126.39375 64.17903Q125.7375 64.81966 125.675 65.89778ZM133.05 68.36653L134.44063 68.14778Q134.55 68.99153 135.08125 69.44466Q135.62813 69.88216 136.58125 69.88216Q137.55 69.88216 138.01875 69.49153Q138.4875 69.08528 138.4875 68.55403Q138.4875 68.08528 138.08125 67.80403Q137.78438 67.61653 136.64375 67.33528Q135.09688 66.94466 134.4875 66.66341Q133.89375 66.36653 133.58125 65.86653Q133.28438 65.36653 133.28438 64.75716Q133.28438 64.19466 133.53438 63.725906Q133.78438 63.257156 134.22188 62.944656Q134.55 62.694656 135.1125 62.538406Q135.69063 62.36653 136.33125 62.36653Q137.31563 62.36653 138.05 62.64778Q138.78438 62.92903 139.12813 63.413406Q139.4875 63.882156 139.62813 64.69466L138.25313 64.88216Q138.15938 64.24153 137.70625 63.882156Q137.25313 63.52278 136.44063 63.52278Q135.47188 63.52278 135.05 63.850906Q134.64375 64.16341 134.64375 64.58528Q134.64375 64.86653 134.81563 65.08528Q134.9875 65.30403 135.34688 65.46028Q135.56563 65.53841 136.59688 65.81966Q138.08125 66.21028 138.675 66.47591Q139.26875 66.72591 139.59688 67.21028Q139.94063 67.69466 139.94063 68.41341Q139.94063 69.11653 139.51875 69.74153Q139.1125 70.35091 138.33125 70.69466Q137.56563 71.03841 136.59688 71.03841Q134.97188 71.03841 134.12813 70.36653Q133.28438 69.69466 133.05 68.36653Z" fill-rule="nonzero"/><path fill="#9e9e9e" d="M24.51875 92.85091L23.1125 92.85091L23.1125 83.88216Q22.596874 84.36653 21.76875 84.85091Q20.95625 85.33528 20.3 85.58528L20.3 84.22591Q21.471874 83.66341 22.346874 82.88216Q23.2375 82.08528 23.6125 81.35091L24.51875 81.35091L24.51875 92.85091ZM32.721874 92.85091L32.721874 90.10091L27.753124 90.10091L27.753124 88.81966L32.9875 81.39778L34.128124 81.39778L34.128124 88.81966L35.675 88.81966L35.675 90.10091L34.128124 90.10091L34.128124 92.85091L32.721874 92.85091ZM32.721874 88.81966L32.721874 83.64778L29.14375 88.81966L32.721874 88.81966ZM38.003124 92.85091L38.003124 91.24153L39.6125 91.24153L39.6125 92.85091L38.003124 92.85091ZM41.221874 89.81966L42.628124 89.63216Q42.878124 90.83528 43.45625 91.36653Q44.034374 91.88216 44.878124 91.88216Q45.8625 91.88216 46.55 91.19466Q47.2375 90.50716 47.2375 89.49153Q47.2375 88.52278 46.596874 87.89778Q45.971874 87.27278 44.9875 87.27278Q44.596874 87.27278 44.003124 87.42903L44.159374 86.19466Q44.3 86.21028 44.378124 86.21028Q45.284374 86.21028 46.003124 85.74153Q46.721874 85.27278 46.721874 84.28841Q46.721874 83.52278 46.190624 83.02278Q45.675 82.50716 44.846874 82.50716Q44.01875 82.50716 43.471874 83.02278Q42.925 83.53841 42.76875 84.56966L41.3625 84.31966Q41.628124 82.89778 42.534374 82.13216Q43.45625 81.35091 44.815624 81.35091Q45.753124 81.35091 46.534374 81.75716Q47.33125 82.14778 47.7375 82.85091Q48.159374 83.53841 48.159374 84.31966Q48.159374 85.06966 47.753124 85.67903Q47.3625 86.28841 46.58125 86.64778Q47.596874 86.88216 48.159374 87.61653Q48.721874 88.35091 48.721874 89.46028Q48.721874 90.96028 47.628124 92.00716Q46.534374 93.05403 44.8625 93.05403Q43.3625 93.05403 42.3625 92.16341Q41.3625 91.25716 41.221874 89.81966ZM50.4875 84.14778Q50.4875 82.91341 51.096874 82.05403Q51.721874 81.19466 52.89375 81.19466Q53.971874 81.19466 54.675 81.97591Q55.378124 82.74153 55.378124 84.22591Q55.378124 85.67903 54.659374 86.47591Q53.95625 87.25716 52.909374 87.25716Q51.8625 87.25716 51.175 86.49153Q50.4875 85.71028 50.4875 84.14778ZM52.925 82.16341Q52.409374 82.16341 52.05 82.61653Q51.70625 83.06966 51.70625 84.28841Q51.70625 85.38216 52.05 85.83528Q52.409374 86.28841 52.925 86.28841Q53.45625 86.28841 53.8 85.83528Q54.159374 85.38216 54.159374 84.17903Q54.159374 83.06966 53.8 82.61653Q53.45625 82.16341 52.925 82.16341ZM52.940624 93.27278L59.20625 81.19466L60.346874 81.19466L54.096874 93.27278L52.940624 93.27278ZM57.89375 90.16341Q57.89375 88.92903 58.503124 88.06966Q59.128124 87.21028 60.3 87.21028Q61.378124 87.21028 62.08125 87.99153Q62.8 88.75716 62.8 90.24153Q62.8 91.69466 62.08125 92.49153Q61.3625 93.27278 60.315624 93.27278Q59.26875 93.27278 58.58125 92.49153Q57.89375 91.71028 57.89375 90.16341ZM60.346874 88.17903Q59.815624 88.17903 59.45625 88.63216Q59.1125 89.08528 59.1125 90.30403Q59.1125 91.39778 59.45625 91.85091Q59.815624 92.30403 60.33125 92.30403Q60.878124 92.30403 61.221874 91.85091Q61.565624 91.39778 61.565624 90.19466Q61.565624 89.08528 61.20625 88.63216Q60.8625 88.17903 60.346874 88.17903Z" fill-rule="nonzero"/><path stroke="#757575" stroke-width="1.0" stroke-linecap="butt" d="M18.55 76.35091L145.23334 76.35091L238.67993 76.35091" fill-rule="nonzero"/><path fill="#9e9e9e" d="M240.67993 76.35091C240.67993 75.24634 239.7845 74.35091 238.67993 74.35091C237.57536 74.35091 236.67993 75.24634 236.67993 76.35091C236.67993 77.455475 237.57536 78.35091 238.67993 78.35091C239.7845 78.35091 240.67993 77.455475 240.67993 76.35091" fill-rule="nonzero"/><path fill="#efefef" d="M19.76875 127.519165L19.76875 116.06604L21.33125 116.06604L27.346874 125.050415L27.346874 116.06604L28.8 116.06604L28.8 127.519165L27.2375 127.519165L21.221874 118.519165L21.221874 127.519165L19.76875 127.519165ZM37.01875 126.487915Q36.2375 127.15979 35.51875 127.44104Q34.8 127.706665 33.971874 127.706665Q32.596874 127.706665 31.8625 127.03479Q31.128124 126.362915 31.128124 125.331665Q31.128124 124.72229 31.409374 124.22229Q31.690624 123.706665 32.128124 123.40979Q32.58125 123.09729 33.14375 122.94104Q33.565624 122.831665 34.39375 122.737915Q36.096874 122.53479 36.909374 122.25354Q36.909374 121.956665 36.909374 121.87854Q36.909374 121.019165 36.51875 120.675415Q35.971874 120.19104 34.909374 120.19104Q33.925 120.19104 33.440624 120.550415Q32.971874 120.894165 32.753124 121.769165L31.378124 121.581665Q31.565624 120.706665 31.9875 120.15979Q32.425 119.612915 33.2375 119.331665Q34.05 119.03479 35.1125 119.03479Q36.175 119.03479 36.83125 119.28479Q37.503124 119.53479 37.815624 119.90979Q38.128124 120.28479 38.253124 120.862915Q38.33125 121.22229 38.33125 122.15979L38.33125 124.03479Q38.33125 126.00354 38.409374 126.519165Q38.503124 127.03479 38.76875 127.519165L37.3 127.519165Q37.08125 127.081665 37.01875 126.487915ZM36.909374 123.34729Q36.14375 123.65979 34.6125 123.87854Q33.7375 124.00354 33.378124 124.15979Q33.01875 124.31604 32.815624 124.62854Q32.628124 124.925415 32.628124 125.28479Q32.628124 125.84729 33.05 126.22229Q33.4875 126.59729 34.3 126.59729Q35.1125 126.59729 35.7375 126.25354Q36.378124 125.894165 36.675 125.269165Q36.909374 124.800415 36.909374 123.862915L36.909374 123.34729ZM42.909374 127.519165L39.753124 119.22229L41.2375 119.22229L43.01875 124.19104Q43.315624 124.987915 43.55 125.862915Q43.7375 125.206665 44.08125 124.28479L45.925 119.22229L47.3625 119.22229L44.221874 127.519165L42.909374 127.519165ZM54.01875 126.487915Q53.2375 127.15979 52.51875 127.44104Q51.8 127.706665 50.971874 127.706665Q49.596874 127.706665 48.8625 127.03479Q48.128124 126.362915 48.128124 125.331665Q48.128124 124.72229 48.409374 124.22229Q48.690624 123.706665 49.128124 123.40979Q49.58125 123.09729 50.14375 122.94104Q50.565624 122.831665 51.39375 122.737915Q53.096874 122.53479 53.909374 122.25354Q53.909374 121.956665 53.909374 121.87854Q53.909374 121.019165 53.51875 120.675415Q52.971874 120.19104 51.909374 120.19104Q50.925 120.19104 50.440624 120.550415Q49.971874 120.894165 49.753124 121.769165L48.378124 121.581665Q48.565624 120.706665 48.9875 120.15979Q49.425 119.612915 50.2375 119.331665Q51.05 119.03479 52.1125 119.03479Q53.175 119.03479 53.83125 119.28479Q54.503124 119.53479 54.815624 119.90979Q55.128124 120.28479 55.253124 120.862915Q55.33125 121.22229 55.33125 122.15979L55.33125 124.03479Q55.33125 126.00354 55.409374 126.519165Q55.503124 127.03479 55.76875 127.519165L54.3 127.519165Q54.08125 127.081665 54.01875 126.487915ZM53.909374 123.34729Q53.14375 123.65979 51.6125 123.87854Q50.7375 124.00354 50.378124 124.15979Q50.01875 124.31604 49.815624 124.62854Q49.628124 124.925415 49.628124 125.28479Q49.628124 125.84729 50.05 126.22229Q50.4875 126.59729 51.3 126.59729Q52.1125 126.59729 52.7375 126.25354Q53.378124 125.894165 53.675 125.269165Q53.909374 124.800415 53.909374 123.862915L53.909374 123.34729ZM57.58125 127.519165L57.58125 116.06604L58.9875 116.06604L58.9875 127.519165L57.58125 127.519165ZM65.26875 123.831665L66.70625 123.706665Q66.8 124.56604 67.175 125.12854Q67.55 125.675415 68.33125 126.019165Q69.1125 126.34729 70.08125 126.34729Q70.95625 126.34729 71.6125 126.09729Q72.28438 125.831665 72.59688 125.394165Q72.925 124.94104 72.925 124.40979Q72.925 123.862915 72.6125 123.47229Q72.3 123.06604 71.58125 122.78479Q71.12813 122.612915 69.55 122.237915Q67.97188 121.84729 67.33125 121.519165Q66.51875 121.081665 66.1125 120.456665Q65.70625 119.81604 65.70625 119.019165Q65.70625 118.15979 66.19063 117.40979Q66.69063 116.644165 67.62813 116.25354Q68.58125 115.862915 69.7375 115.862915Q71.01875 115.862915 71.9875 116.28479Q72.95625 116.69104 73.47188 117.487915Q74.00313 118.28479 74.05 119.28479L72.59688 119.394165Q72.47188 118.31604 71.8 117.769165Q71.12813 117.206665 69.8 117.206665Q68.425 117.206665 67.8 117.706665Q67.175 118.206665 67.175 118.925415Q67.175 119.53479 67.6125 119.94104Q68.05 120.331665 69.89375 120.75354Q71.75313 121.175415 72.44063 121.487915Q73.44063 121.94104 73.90938 122.65979Q74.39375 123.362915 74.39375 124.28479Q74.39375 125.19104 73.8625 126.00354Q73.34688 126.81604 72.3625 127.269165Q71.37813 127.72229 70.15938 127.72229Q68.59688 127.72229 67.55 127.269165Q66.50313 126.800415 65.89375 125.894165Q65.3 124.987915 65.26875 123.831665ZM79.675 126.25354L79.87813 127.50354Q79.28438 127.62854 78.81563 127.62854Q78.05 127.62854 77.62813 127.394165Q77.20625 127.144165 77.03438 126.75354Q76.8625 126.34729 76.8625 125.081665L76.8625 120.31604L75.83125 120.31604L75.83125 119.22229L76.8625 119.22229L76.8625 117.15979L78.26875 116.31604L78.26875 119.22229L79.675 119.22229L79.675 120.31604L78.26875 120.31604L78.26875 125.15979Q78.26875 125.769165 78.33125 125.94104Q78.40938 126.112915 78.58125 126.22229Q78.75313 126.31604 79.06563 126.31604Q79.3 126.31604 79.675 126.25354ZM80.59688 127.519165L80.59688 119.22229L81.8625 119.22229L81.8625 120.47229Q82.34688 119.59729 82.75313 119.31604Q83.15938 119.03479 83.65938 119.03479Q84.3625 119.03479 85.09688 119.487915L84.6125 120.78479Q84.09688 120.487915 83.58125 120.487915Q83.12813 120.487915 82.75313 120.769165Q82.39375 121.03479 82.2375 121.53479Q82.00313 122.28479 82.00313 123.175415L82.00313 127.519165L80.59688 127.519165ZM91.05 127.519165L91.05 126.300415Q90.08125 127.706665 88.40938 127.706665Q87.675 127.706665 87.03438 127.425415Q86.40938 127.144165 86.09688 126.72229Q85.78438 126.28479 85.65938 125.675415Q85.58125 125.25354 85.58125 124.362915L85.58125 119.22229L86.9875 119.22229L86.9875 123.81604Q86.9875 124.925415 87.06563 125.300415Q87.20625 125.862915 87.62813 126.175415Q88.06563 126.487915 88.69063 126.487915Q89.33125 126.487915 89.87813 126.175415Q90.44063 125.84729 90.65938 125.28479Q90.89375 124.72229 90.89375 123.65979L90.89375 119.22229L92.3 119.22229L92.3 127.519165L91.05 127.519165ZM100.01875 124.47229L101.40938 124.65979Q101.175 126.081665 100.2375 126.894165Q99.31563 127.706665 97.95625 127.706665Q96.25313 127.706665 95.20625 126.59729Q94.175 125.47229 94.175 123.394165Q94.175 122.050415 94.6125 121.050415Q95.06563 120.03479 95.97188 119.53479Q96.89375 119.03479 97.95625 119.03479Q99.31563 119.03479 100.175 119.72229Q101.03438 120.394165 101.26875 121.65979L99.90938 121.862915Q99.70625 121.03479 99.20625 120.612915Q98.72188 120.19104 98.01875 120.19104Q96.95625 120.19104 96.28438 120.956665Q95.62813 121.706665 95.62813 123.362915Q95.62813 125.03479 96.26875 125.800415Q96.90938 126.550415 97.94063 126.550415Q98.76875 126.550415 99.31563 126.050415Q99.87813 125.53479 100.01875 124.47229ZM105.675 126.25354L105.87813 127.50354Q105.28438 127.62854 104.81563 127.62854Q104.05 127.62854 103.62813 127.394165Q103.20625 127.144165 103.03438 126.75354Q102.8625 126.34729 102.8625 125.081665L102.8625 120.31604L101.83125 120.31604L101.83125 119.22229L102.8625 119.22229L102.8625 117.15979L104.26875 116.31604L104.26875 119.22229L105.675 119.22229L105.675 120.31604L104.26875 120.31604L104.26875 125.15979Q104.26875 125.769165 104.33125 125.94104Q104.40938 126.112915 104.58125 126.22229Q104.75313 126.31604 105.06563 126.31604Q105.3 126.31604 105.675 126.25354ZM112.05 127.519165L112.05 126.300415Q111.08125 127.706665 109.40938 127.706665Q108.675 127.706665 108.03438 127.425415Q107.40938 127.144165 107.09688 126.72229Q106.78438 126.28479 106.65938 125.675415Q106.58125 125.25354 106.58125 124.362915L106.58125 119.22229L107.9875 119.22229L107.9875 123.81604Q107.9875 124.925415 108.06563 125.300415Q108.20625 125.862915 108.62813 126.175415Q109.06563 126.487915 109.69063 126.487915Q110.33125 126.487915 110.87813 126.175415Q111.44063 125.84729 111.65938 125.28479Q111.89375 124.72229 111.89375 123.65979L111.89375 119.22229L113.3 119.22229L113.3 127.519165L112.05 127.519165ZM115.59688 127.519165L115.59688 119.22229L116.8625 119.22229L116.8625 120.47229Q117.34688 119.59729 117.75313 119.31604Q118.15938 119.03479 118.65938 119.03479Q119.3625 119.03479 120.09688 119.487915L119.6125 120.78479Q119.09688 120.487915 118.58125 120.487915Q118.12813 120.487915 117.75313 120.769165Q117.39375 121.03479 117.2375 121.53479Q117.00313 122.28479 117.00313 123.175415L117.00313 127.519165L115.59688 127.519165ZM126.28438 124.84729L127.7375 125.019165Q127.39375 126.300415 126.45625 127.00354Q125.53438 127.706665 124.09688 127.706665Q122.26875 127.706665 121.20625 126.581665Q120.14375 125.456665 120.14375 123.44104Q120.14375 121.34729 121.22188 120.19104Q122.3 119.03479 124.01875 119.03479Q125.675 119.03479 126.72188 120.175415Q127.78438 121.300415 127.78438 123.34729Q127.78438 123.47229 127.78438 123.72229L121.59688 123.72229Q121.675 125.09729 122.3625 125.831665Q123.06563 126.550415 124.09688 126.550415Q124.87813 126.550415 125.425 126.144165Q125.97188 125.737915 126.28438 124.84729ZM121.675 122.56604L126.3 122.56604Q126.20625 121.519165 125.76875 121.00354Q125.09688 120.19104 124.03438 120.19104Q123.06563 120.19104 122.39375 120.84729Q121.7375 121.487915 121.675 122.56604ZM129.05 125.03479L130.44063 124.81604Q130.55 125.65979 131.08125 126.112915Q131.62813 126.550415 132.58125 126.550415Q133.55 126.550415 134.01875 126.15979Q134.4875 125.75354 134.4875 125.22229Q134.4875 124.75354 134.08125 124.47229Q133.78438 124.28479 132.64375 124.00354Q131.09688 123.612915 130.4875 123.331665Q129.89375 123.03479 129.58125 122.53479Q129.28438 122.03479 129.28438 121.425415Q129.28438 120.862915 129.53438 120.394165Q129.78438 119.925415 130.22188 119.612915Q130.55 119.362915 131.1125 119.206665Q131.69063 119.03479 132.33125 119.03479Q133.31563 119.03479 134.05 119.31604Q134.78438 119.59729 135.12813 120.081665Q135.4875 120.550415 135.62813 121.362915L134.25313 121.550415Q134.15938 120.90979 133.70625 120.550415Q133.25313 120.19104 132.44063 120.19104Q131.47188 120.19104 131.05 120.519165Q130.64375 120.831665 130.64375 121.25354Q130.64375 121.53479 130.81563 121.75354Q130.9875 121.97229 131.34688 122.12854Q131.56563 122.206665 132.59688 122.487915Q134.08125 122.87854 134.675 123.144165Q135.26875 123.394165 135.59688 123.87854Q135.94063 124.362915 135.94063 125.081665Q135.94063 125.78479 135.51875 126.40979Q135.1125 127.019165 134.33125 127.362915Q133.56563 127.706665 132.59688 127.706665Q130.97188 127.706665 130.12813 127.03479Q129.28438 126.362915 129.05 125.03479Z" fill-rule="nonzero"/><path fill="#9e9e9e" d="M23.721874 149.51917L23.721874 146.76917L18.753124 146.76917L18.753124 145.48792L23.9875 138.06604L25.128124 138.06604L25.128124 145.48792L26.675 145.48792L26.675 146.76917L25.128124 146.76917L25.128124 149.51917L23.721874 149.51917ZM23.721874 145.48792L23.721874 140.31604L20.14375 145.48792L23.721874 145.48792ZM29.003124 149.51917L29.003124 147.90979L30.6125 147.90979L30.6125 149.51917L29.003124 149.51917ZM34.378124 143.30042Q33.503124 142.98792 33.08125 142.39417Q32.659374 141.80042 32.659374 140.97229Q32.659374 139.72229 33.55 138.87854Q34.45625 138.01917 35.95625 138.01917Q37.45625 138.01917 38.3625 138.89417Q39.284374 139.75354 39.284374 141.00354Q39.284374 141.80042 38.8625 142.39417Q38.440624 142.98792 37.596874 143.30042Q38.64375 143.64417 39.190624 144.40979Q39.753124 145.17542 39.753124 146.23792Q39.753124 147.70667 38.70625 148.72229Q37.675 149.72229 35.971874 149.72229Q34.284374 149.72229 33.2375 148.72229Q32.20625 147.70667 32.20625 146.20667Q32.20625 145.08167 32.76875 144.33167Q33.33125 143.58167 34.378124 143.30042ZM34.096874 140.92542Q34.096874 141.73792 34.6125 142.25354Q35.14375 142.76917 35.9875 142.76917Q36.8 142.76917 37.315624 142.25354Q37.83125 141.73792 37.83125 141.00354Q37.83125 140.22229 37.3 139.70667Q36.76875 139.17542 35.971874 139.17542Q35.159374 139.17542 34.628124 139.69104Q34.096874 140.20667 34.096874 140.92542ZM33.64375 146.20667Q33.64375 146.81604 33.925 147.37854Q34.221874 147.94104 34.784374 148.25354Q35.346874 148.55042 35.9875 148.55042Q37.003124 148.55042 37.659374 147.90979Q38.315624 147.25354 38.315624 146.25354Q38.315624 145.23792 37.628124 144.58167Q36.95625 143.90979 35.940624 143.90979Q34.95625 143.90979 34.3 144.56604Q33.64375 145.22229 33.64375 146.20667ZM41.4875 140.81604Q41.4875 139.58167 42.096874 138.72229Q42.721874 137.86292 43.89375 137.86292Q44.971874 137.86292 45.675 138.64417Q46.378124 139.40979 46.378124 140.89417Q46.378124 142.34729 45.659374 143.14417Q44.95625 143.92542 43.909374 143.92542Q42.8625 143.92542 42.175 143.15979Q41.4875 142.37854 41.4875 140.81604ZM43.925 138.83167Q43.409374 138.83167 43.05 139.28479Q42.70625 139.73792 42.70625 140.95667Q42.70625 142.05042 43.05 142.50354Q43.409374 142.95667 43.925 142.95667Q44.45625 142.95667 44.8 142.50354Q45.159374 142.05042 45.159374 140.84729Q45.159374 139.73792 44.8 139.28479Q44.45625 138.83167 43.925 138.83167ZM43.940624 149.94104L50.20625 137.86292L51.346874 137.86292L45.096874 149.94104L43.940624 149.94104ZM48.89375 146.83167Q48.89375 145.59729 49.503124 144.73792Q50.128124 143.87854 51.3 143.87854Q52.378124 143.87854 53.08125 144.65979Q53.8 145.42542 53.8 146.90979Q53.8 148.36292 53.08125 149.15979Q52.3625 149.94104 51.315624 149.94104Q50.26875 149.94104 49.58125 149.15979Q48.89375 148.37854 48.89375 146.83167ZM51.346874 144.84729Q50.815624 144.84729 50.45625 145.30042Q50.1125 145.75354 50.1125 146.97229Q50.1125 148.06604 50.45625 148.51917Q50.815624 148.97229 51.33125 148.97229Q51.878124 148.97229 52.221874 148.51917Q52.565624 148.06604 52.565624 146.86292Q52.565624 145.75354 52.20625 145.30042Q51.8625 144.84729 51.346874 144.84729Z" fill-rule="nonzero"/><path stroke="#757575" stroke-width="1.0" stroke-linecap="butt" d="M18.55 133.01917L145.23334 133.01917L177.60608 133.01917" fill-rule="nonzero"/><path fill="#9e9e9e" d="M179.60608 133.01917C179.60608 131.9146 178.71065 131.01917 177.60608 131.01917C176.50151 131.01917 175.60608 131.9146 175.60608 133.01917C175.60608 134.12373 176.50151 135.01917 177.60608 135.01917C178.71065 135.01917 179.60608 134.12373 179.60608 133.01917" fill-rule="nonzero"/><path fill="#efefef" d="M19.76875 229.63185L19.76875 218.17873L21.33125 218.17873L27.346874 227.1631L27.346874 218.17873L28.8 218.17873L28.8 229.63185L27.2375 229.63185L21.221874 220.63185L21.221874 229.63185L19.76875 229.63185ZM37.01875 228.6006Q36.2375 229.27248 35.51875 229.55373Q34.8 229.81935 33.971874 229.81935Q32.596874 229.81935 31.8625 229.14748Q31.128124 228.4756 31.128124 227.44435Q31.128124 226.83498 31.409374 226.33498Q31.690624 225.81935 32.128124 225.52248Q32.58125 225.20998 33.14375 225.05373Q33.565624 224.94435 34.39375 224.8506Q36.096874 224.64748 36.909374 224.36623Q36.909374 224.06935 36.909374 223.99123Q36.909374 223.13185 36.51875 222.7881Q35.971874 222.30373 34.909374 222.30373Q33.925 222.30373 33.440624 222.6631Q32.971874 223.00685 32.753124 223.88185L31.378124 223.69435Q31.565624 222.81935 31.9875 222.27248Q32.425 221.7256 33.2375 221.44435Q34.05 221.14748 35.1125 221.14748Q36.175 221.14748 36.83125 221.39748Q37.503124 221.64748 37.815624 222.02248Q38.128124 222.39748 38.253124 222.9756Q38.33125 223.33498 38.33125 224.27248L38.33125 226.14748Q38.33125 228.11623 38.409374 228.63185Q38.503124 229.14748 38.76875 229.63185L37.3 229.63185Q37.08125 229.19435 37.01875 228.6006ZM36.909374 225.45998Q36.14375 225.77248 34.6125 225.99123Q33.7375 226.11623 33.378124 226.27248Q33.01875 226.42873 32.815624 226.74123Q32.628124 227.0381 32.628124 227.39748Q32.628124 227.95998 33.05 228.33498Q33.4875 228.70998 34.3 228.70998Q35.1125 228.70998 35.7375 228.36623Q36.378124 228.00685 36.675 227.38185Q36.909374 226.9131 36.909374 225.9756L36.909374 225.45998ZM43.675 228.36623L43.878124 229.61623Q43.284374 229.74123 42.815624 229.74123Q42.05 229.74123 41.628124 229.50685Q41.20625 229.25685 41.034374 228.86623Q40.8625 228.45998 40.8625 227.19435L40.8625 222.42873L39.83125 222.42873L39.83125 221.33498L40.8625 221.33498L40.8625 219.27248L42.26875 218.42873L42.26875 221.33498L43.675 221.33498L43.675 222.42873L42.26875 222.42873L42.26875 227.27248Q42.26875 227.88185 42.33125 228.05373Q42.409374 228.2256 42.58125 228.33498Q42.753124 228.42873 43.065624 228.42873Q43.3 228.42873 43.675 228.36623ZM50.05 229.63185L50.05 228.4131Q49.08125 229.81935 47.409374 229.81935Q46.675 229.81935 46.034374 229.5381Q45.409374 229.25685 45.096874 228.83498Q44.784374 228.39748 44.659374 227.7881Q44.58125 227.36623 44.58125 226.4756L44.58125 221.33498L45.9875 221.33498L45.9875 225.92873Q45.9875 227.0381 46.065624 227.4131Q46.20625 227.9756 46.628124 228.2881Q47.065624 228.6006 47.690624 228.6006Q48.33125 228.6006 48.878124 228.2881Q49.440624 227.95998 49.659374 227.39748Q49.89375 226.83498 49.89375 225.77248L49.89375 221.33498L51.3 221.33498L51.3 229.63185L50.05 229.63185ZM53.596874 229.63185L53.596874 221.33498L54.8625 221.33498L54.8625 222.58498Q55.346874 221.70998 55.753124 221.42873Q56.159374 221.14748 56.659374 221.14748Q57.3625 221.14748 58.096874 221.6006L57.6125 222.89748Q57.096874 222.6006 56.58125 222.6006Q56.128124 222.6006 55.753124 222.88185Q55.39375 223.14748 55.2375 223.64748Q55.003124 224.39748 55.003124 225.2881L55.003124 229.63185L53.596874 229.63185ZM64.01875 228.6006Q63.2375 229.27248 62.51875 229.55373Q61.8 229.81935 60.971874 229.81935Q59.596874 229.81935 58.8625 229.14748Q58.128124 228.4756 58.128124 227.44435Q58.128124 226.83498 58.409374 226.33498Q58.690624 225.81935 59.128124 225.52248Q59.58125 225.20998 60.14375 225.05373Q60.565624 224.94435 61.39375 224.8506Q63.096874 224.64748 63.909374 224.36623Q63.909374 224.06935 63.909374 223.99123Q63.909374 223.13185 63.51875 222.7881Q62.971874 222.30373 61.909374 222.30373Q60.925 222.30373 60.440624 222.6631Q59.971874 223.00685 59.753124 223.88185L58.378124 223.69435Q58.565624 222.81935 58.9875 222.27248Q59.425 221.7256 60.2375 221.44435Q61.05 221.14748 62.1125 221.14748Q63.175 221.14748 63.83125 221.39748Q64.50313 221.64748 64.81563 222.02248Q65.12813 222.39748 65.25313 222.9756Q65.33125 223.33498 65.33125 224.27248L65.33125 226.14748Q65.33125 228.11623 65.40938 228.63185Q65.50313 229.14748 65.76875 229.63185L64.3 229.63185Q64.08125 229.19435 64.01875 228.6006ZM63.909374 225.45998Q63.14375 225.77248 61.6125 225.99123Q60.7375 226.11623 60.378124 226.27248Q60.01875 226.42873 59.815624 226.74123Q59.628124 227.0381 59.628124 227.39748Q59.628124 227.95998 60.05 228.33498Q60.4875 228.70998 61.3 228.70998Q62.1125 228.70998 62.7375 228.36623Q63.378124 228.00685 63.675 227.38185Q63.909374 226.9131 63.909374 225.9756L63.909374 225.45998ZM67.58125 229.63185L67.58125 218.17873L68.9875 218.17873L68.9875 229.63185L67.58125 229.63185Z" fill-rule="nonzero"/><path fill="#9e9e9e" d="M24.51875 251.63185L23.1125 251.63185L23.1125 242.6631Q22.596874 243.14748 21.76875 243.63185Q20.95625 244.11623 20.3 244.36623L20.3 243.00685Q21.471874 242.44435 22.346874 241.6631Q23.2375 240.86623 23.6125 240.13185L24.51875 240.13185L24.51875 251.63185ZM28.425 248.9756L29.784374 248.8506Q29.95625 249.80373 30.440624 250.24123Q30.925 250.6631 31.675 250.6631Q32.33125 250.6631 32.815624 250.36623Q33.3 250.06935 33.6125 249.58498Q33.925 249.08498 34.128124 248.24123Q34.346874 247.39748 34.346874 246.52248Q34.346874 246.42873 34.346874 246.24123Q33.925 246.9131 33.190624 247.33498Q32.45625 247.74123 31.6125 247.74123Q30.190624 247.74123 29.20625 246.70998Q28.221874 245.67873 28.221874 243.99123Q28.221874 242.25685 29.2375 241.19435Q30.26875 240.13185 31.815624 240.13185Q32.940624 240.13185 33.8625 240.74123Q34.784374 241.33498 35.26875 242.44435Q35.753124 243.55373 35.753124 245.6631Q35.753124 247.86623 35.26875 249.1631Q34.8 250.45998 33.846874 251.14748Q32.909374 251.83498 31.64375 251.83498Q30.3 251.83498 29.440624 251.08498Q28.596874 250.33498 28.425 248.9756ZM34.190624 243.92873Q34.190624 242.70998 33.534374 242.00685Q32.89375 241.2881 31.9875 241.2881Q31.05 241.2881 30.346874 242.05373Q29.659374 242.81935 29.659374 244.0381Q29.659374 245.13185 30.315624 245.81935Q30.9875 246.50685 31.95625 246.50685Q32.925 246.50685 33.55 245.81935Q34.190624 245.13185 34.190624 243.92873ZM38.003124 251.63185L38.003124 250.02248L39.6125 250.02248L39.6125 251.63185L38.003124 251.63185ZM41.221874 245.9756Q41.221874 243.94435 41.628124 242.70998Q42.05 241.4756 42.878124 240.80373Q43.70625 240.13185 44.95625 240.13185Q45.878124 240.13185 46.565624 240.50685Q47.26875 240.86623 47.721874 241.56935Q48.175 242.27248 48.425 243.27248Q48.690624 244.27248 48.690624 245.9756Q48.690624 247.99123 48.26875 249.24123Q47.8625 250.4756 47.034374 251.1631Q46.20625 251.83498 44.95625 251.83498Q43.3 251.83498 42.346874 250.63185Q41.221874 249.20998 41.221874 245.9756ZM42.659374 245.9756Q42.659374 248.80373 43.315624 249.74123Q43.9875 250.6631 44.95625 250.6631Q45.925 250.6631 46.58125 249.7256Q47.2375 248.7881 47.2375 245.9756Q47.2375 243.14748 46.58125 242.2256Q45.925 241.2881 44.940624 241.2881Q43.971874 241.2881 43.39375 242.11623Q42.659374 243.1631 42.659374 245.9756ZM50.4875 242.92873Q50.4875 241.69435 51.096874 240.83498Q51.721874 239.9756 52.89375 239.9756Q53.971874 239.9756 54.675 240.75685Q55.378124 241.52248 55.378124 243.00685Q55.378124 244.45998 54.659374 245.25685Q53.95625 246.0381 52.909374 246.0381Q51.8625 246.0381 51.175 245.27248Q50.4875 244.49123 50.4875 242.92873ZM52.925 240.94435Q52.409374 240.94435 52.05 241.39748Q51.70625 241.8506 51.70625 243.06935Q51.70625 244.1631 52.05 244.61623Q52.409374 245.06935 52.925 245.06935Q53.45625 245.06935 53.8 244.61623Q54.159374 244.1631 54.159374 242.95998Q54.159374 241.8506 53.8 241.39748Q53.45625 240.94435 52.925 240.94435ZM52.940624 252.05373L59.20625 239.9756L60.346874 239.9756L54.096874 252.05373L52.940624 252.05373ZM57.89375 248.94435Q57.89375 247.70998 58.503124 246.8506Q59.128124 245.99123 60.3 245.99123Q61.378124 245.99123 62.08125 246.77248Q62.8 247.5381 62.8 249.02248Q62.8 250.4756 62.08125 251.27248Q61.3625 252.05373 60.315624 252.05373Q59.26875 252.05373 58.58125 251.27248Q57.89375 250.49123 57.89375 248.94435ZM60.346874 246.95998Q59.815624 246.95998 59.45625 247.4131Q59.1125 247.86623 59.1125 249.08498Q59.1125 250.17873 59.45625 250.63185Q59.815624 251.08498 60.33125 251.08498Q60.878124 251.08498 61.221874 250.63185Q61.565624 250.17873 61.565624 248.9756Q61.565624 247.86623 61.20625 247.4131Q60.8625 246.95998 60.346874 246.95998Z" fill-rule="nonzero"/><path stroke="#757575" stroke-width="1.0" stroke-linecap="butt" d="M18.55 235.13185L145.23334 235.13185L162.21506 235.13185" fill-rule="nonzero"/><path fill="#9e9e9e" d="M164.21506 235.13185C164.21506 234.02728 163.31963 233.13185 162.21506 233.13185C161.11049 233.13185 160.21506 234.02728 160.21506 235.13185C160.21506 236.23642 161.11049 237.13185 162.21506 237.13185C163.31963 237.13185 164.21506 236.23642 164.21506 235.13185" fill-rule="nonzero"/><path fill="#efefef" d="M495.85626 66.83528L497.3719 67.21028Q496.90314 69.08528 495.65314 70.06966Q494.41876 71.05403 492.6375 71.05403Q490.77814 71.05403 489.6219 70.30403Q488.46564 69.53841 487.85626 68.11653Q487.2469 66.67903 487.2469 65.03841Q487.2469 63.24153 487.9344 61.913406Q488.6219 60.58528 489.8719 59.89778Q491.1375 59.194656 492.65314 59.194656Q494.3719 59.194656 495.54376 60.069656Q496.71564 60.944656 497.1844 62.538406L495.6844 62.882156Q495.29376 61.632156 494.52814 61.069656Q493.77814 60.49153 492.6219 60.49153Q491.3094 60.49153 490.41876 61.132156Q489.52814 61.757156 489.16876 62.83528Q488.8094 63.89778 488.8094 65.02278Q488.8094 66.49153 489.23126 67.58528Q489.66876 68.66341 490.5594 69.21028Q491.46564 69.74153 492.5125 69.74153Q493.77814 69.74153 494.65314 69.00716Q495.54376 68.27278 495.85626 66.83528ZM504.95 70.85091L504.95 69.63216Q503.98126 71.03841 502.3094 71.03841Q501.575 71.03841 500.9344 70.75716Q500.3094 70.47591 499.9969 70.05403Q499.6844 69.61653 499.5594 69.00716Q499.48126 68.58528 499.48126 67.69466L499.48126 62.55403L500.8875 62.55403L500.8875 67.14778Q500.8875 68.25716 500.96564 68.63216Q501.10626 69.19466 501.52814 69.50716Q501.96564 69.81966 502.59064 69.81966Q503.23126 69.81966 503.77814 69.50716Q504.34064 69.17903 504.5594 68.61653Q504.79376 68.05403 504.79376 66.99153L504.79376 62.55403L506.2 62.55403L506.2 70.85091L504.95 70.85091ZM508.48126 70.85091L508.48126 59.39778L509.8875 59.39778L509.8875 70.85091L508.48126 70.85091ZM515.575 69.58528L515.77814 70.83528Q515.1844 70.96028 514.71564 70.96028Q513.95 70.96028 513.52814 70.72591Q513.10626 70.47591 512.9344 70.08528Q512.7625 69.67903 512.7625 68.41341L512.7625 63.64778L511.73126 63.64778L511.73126 62.55403L512.7625 62.55403L512.7625 60.49153L514.16876 59.64778L514.16876 62.55403L515.575 62.55403L515.575 63.64778L514.16876 63.64778L514.16876 68.49153Q514.16876 69.10091 514.23126 69.27278Q514.3094 69.44466 514.48126 69.55403Q514.65314 69.64778 514.96564 69.64778Q515.2 69.64778 515.575 69.58528ZM521.95 70.85091L521.95 69.63216Q520.98126 71.03841 519.3094 71.03841Q518.575 71.03841 517.9344 70.75716Q517.3094 70.47591 516.9969 70.05403Q516.6844 69.61653 516.5594 69.00716Q516.48126 68.58528 516.48126 67.69466L516.48126 62.55403L517.8875 62.55403L517.8875 67.14778Q517.8875 68.25716 517.96564 68.63216Q518.10626 69.19466 518.52814 69.50716Q518.96564 69.81966 519.59064 69.81966Q520.23126 69.81966 520.77814 69.50716Q521.34064 69.17903 521.5594 68.61653Q521.79376 68.05403 521.79376 66.99153L521.79376 62.55403L523.2 62.55403L523.2 70.85091L521.95 70.85091ZM525.4969 70.85091L525.4969 62.55403L526.7625 62.55403L526.7625 63.80403Q527.2469 62.92903 527.65314 62.64778Q528.0594 62.36653 528.5594 62.36653Q529.2625 62.36653 529.9969 62.819656L529.5125 64.11653Q528.9969 63.819656 528.48126 63.819656Q528.02814 63.819656 527.65314 64.10091Q527.29376 64.36653 527.1375 64.86653Q526.90314 65.61653 526.90314 66.50716L526.90314 70.85091L525.4969 70.85091ZM535.91876 69.81966Q535.1375 70.49153 534.41876 70.77278Q533.7 71.03841 532.8719 71.03841Q531.4969 71.03841 530.7625 70.36653Q530.02814 69.69466 530.02814 68.66341Q530.02814 68.05403 530.3094 67.55403Q530.59064 67.03841 531.02814 66.74153Q531.48126 66.42903 532.04376 66.27278Q532.46564 66.16341 533.29376 66.06966Q534.9969 65.86653 535.8094 65.58528Q535.8094 65.28841 535.8094 65.21028Q535.8094 64.35091 535.41876 64.00716Q534.8719 63.52278 533.8094 63.52278Q532.825 63.52278 532.34064 63.882156Q531.8719 64.22591 531.65314 65.10091L530.27814 64.91341Q530.46564 64.03841 530.8875 63.49153Q531.325 62.944656 532.1375 62.663406Q532.95 62.36653 534.0125 62.36653Q535.075 62.36653 535.73126 62.61653Q536.40314 62.86653 536.71564 63.24153Q537.02814 63.61653 537.15314 64.19466Q537.23126 64.55403 537.23126 65.49153L537.23126 67.36653Q537.23126 69.33528 537.3094 69.85091Q537.40314 70.36653 537.66876 70.85091L536.2 70.85091Q535.98126 70.41341 535.91876 69.81966ZM535.8094 66.67903Q535.04376 66.99153 533.5125 67.21028Q532.6375 67.33528 532.27814 67.49153Q531.91876 67.64778 531.71564 67.96028Q531.52814 68.25716 531.52814 68.61653Q531.52814 69.17903 531.95 69.55403Q532.3875 69.92903 533.2 69.92903Q534.0125 69.92903 534.6375 69.58528Q535.27814 69.22591 535.575 68.60091Q535.8094 68.13216 535.8094 67.19466L535.8094 66.67903ZM539.48126 70.85091L539.48126 59.39778L540.8875 59.39778L540.8875 70.85091L539.48126 70.85091ZM546.41876 70.85091L550.825 59.39778L552.46564 59.39778L557.15314 70.85091L555.41876 70.85091L554.09064 67.38216L549.29376 67.38216L548.04376 70.85091L546.41876 70.85091ZM549.73126 66.14778L553.6219 66.14778L552.41876 62.975906Q551.8719 61.52278 551.60626 60.600906Q551.3875 61.694656 550.9969 62.788406L549.73126 66.14778ZM563.91876 67.80403L565.3094 67.99153Q565.075 69.41341 564.1375 70.22591Q563.21564 71.03841 561.85626 71.03841Q560.15314 71.03841 559.10626 69.92903Q558.075 68.80403 558.075 66.72591Q558.075 65.38216 558.5125 64.38216Q558.96564 63.36653 559.8719 62.86653Q560.79376 62.36653 561.85626 62.36653Q563.21564 62.36653 564.075 63.05403Q564.9344 63.725906 565.16876 64.99153L563.8094 65.19466Q563.60626 64.36653 563.10626 63.944656Q562.6219 63.52278 561.91876 63.52278Q560.85626 63.52278 560.1844 64.28841Q559.52814 65.03841 559.52814 66.69466Q559.52814 68.36653 560.16876 69.13216Q560.8094 69.88216 561.84064 69.88216Q562.66876 69.88216 563.21564 69.38216Q563.77814 68.86653 563.91876 67.80403ZM569.575 69.58528L569.77814 70.83528Q569.1844 70.96028 568.71564 70.96028Q567.95 70.96028 567.52814 70.72591Q567.10626 70.47591 566.9344 70.08528Q566.7625 69.67903 566.7625 68.41341L566.7625 63.64778L565.73126 63.64778L565.73126 62.55403L566.7625 62.55403L566.7625 60.49153L568.16876 59.64778L568.16876 62.55403L569.575 62.55403L569.575 63.64778L568.16876 63.64778L568.16876 68.49153Q568.16876 69.10091 568.23126 69.27278Q568.3094 69.44466 568.48126 69.55403Q568.65314 69.64778 568.96564 69.64778Q569.2 69.64778 569.575 69.58528ZM569.95 68.36653L571.34064 68.14778Q571.45 68.99153 571.98126 69.44466Q572.52814 69.88216 573.48126 69.88216Q574.45 69.88216 574.91876 69.49153Q575.3875 69.08528 575.3875 68.55403Q575.3875 68.08528 574.98126 67.80403Q574.6844 67.61653 573.54376 67.33528Q571.9969 66.94466 571.3875 66.66341Q570.79376 66.36653 570.48126 65.86653Q570.1844 65.36653 570.1844 64.75716Q570.1844 64.19466 570.4344 63.725906Q570.6844 63.257156 571.1219 62.944656Q571.45 62.694656 572.0125 62.538406Q572.59064 62.36653 573.23126 62.36653Q574.21564 62.36653 574.95 62.64778Q575.6844 62.92903 576.02814 63.413406Q576.3875 63.882156 576.52814 64.69466L575.15314 64.88216Q575.0594 64.24153 574.60626 63.882156Q574.15314 63.52278 573.34064 63.52278Q572.3719 63.52278 571.95 63.850906Q571.54376 64.16341 571.54376 64.58528Q571.54376 64.86653 571.71564 65.08528Q571.8875 65.30403 572.2469 65.46028Q572.46564 65.53841 573.4969 65.81966Q574.98126 66.21028 575.575 66.47591Q576.16876 66.72591 576.4969 67.21028Q576.84064 67.69466 576.84064 68.41341Q576.84064 69.11653 576.41876 69.74153Q576.0125 70.35091 575.23126 70.69466Q574.46564 71.03841 573.4969 71.03841Q571.8719 71.03841 571.02814 70.36653Q570.1844 69.69466 569.95 68.36653ZM578.90314 70.85091L578.90314 69.24153L580.5125 69.24153L580.5125 70.85091L578.90314 70.85091Z" fill-rule="nonzero"/><path fill="#9e9e9e" d="M542.41876 92.85091L541.0125 92.85091L541.0125 83.88216Q540.4969 84.36653 539.66876 84.85091Q538.85626 85.33528 538.2 85.58528L538.2 84.22591Q539.3719 83.66341 540.2469 82.88216Q541.1375 82.08528 541.5125 81.35091L542.41876 81.35091L542.41876 92.85091ZM550.6219 92.85091L550.6219 90.10091L545.65314 90.10091L545.65314 88.81966L550.8875 81.39778L552.02814 81.39778L552.02814 88.81966L553.575 88.81966L553.575 90.10091L552.02814 90.10091L552.02814 92.85091L550.6219 92.85091ZM550.6219 88.81966L550.6219 83.64778L547.04376 88.81966L550.6219 88.81966ZM555.90314 92.85091L555.90314 91.24153L557.5125 91.24153L557.5125 92.85091L555.90314 92.85091ZM559.1219 89.81966L560.52814 89.63216Q560.77814 90.83528 561.35626 91.36653Q561.9344 91.88216 562.77814 91.88216Q563.7625 91.88216 564.45 91.19466Q565.1375 90.50716 565.1375 89.49153Q565.1375 88.52278 564.4969 87.89778Q563.8719 87.27278 562.8875 87.27278Q562.4969 87.27278 561.90314 87.42903L562.0594 86.19466Q562.2 86.21028 562.27814 86.21028Q563.1844 86.21028 563.90314 85.74153Q564.6219 85.27278 564.6219 84.28841Q564.6219 83.52278 564.09064 83.02278Q563.575 82.50716 562.7469 82.50716Q561.91876 82.50716 561.3719 83.02278Q560.825 83.53841 560.66876 84.56966L559.2625 84.31966Q559.52814 82.89778 560.4344 82.13216Q561.35626 81.35091 562.71564 81.35091Q563.65314 81.35091 564.4344 81.75716Q565.23126 82.14778 565.6375 82.85091Q566.0594 83.53841 566.0594 84.31966Q566.0594 85.06966 565.65314 85.67903Q565.2625 86.28841 564.48126 86.64778Q565.4969 86.88216 566.0594 87.61653Q566.6219 88.35091 566.6219 89.46028Q566.6219 90.96028 565.52814 92.00716Q564.4344 93.05403 562.7625 93.05403Q561.2625 93.05403 560.2625 92.16341Q559.2625 91.25716 559.1219 89.81966ZM568.3875 84.14778Q568.3875 82.91341 568.9969 82.05403Q569.6219 81.19466 570.79376 81.19466Q571.8719 81.19466 572.575 81.97591Q573.27814 82.74153 573.27814 84.22591Q573.27814 85.67903 572.5594 86.47591Q571.85626 87.25716 570.8094 87.25716Q569.7625 87.25716 569.075 86.49153Q568.3875 85.71028 568.3875 84.14778ZM570.825 82.16341Q570.3094 82.16341 569.95 82.61653Q569.60626 83.06966 569.60626 84.28841Q569.60626 85.38216 569.95 85.83528Q570.3094 86.28841 570.825 86.28841Q571.35626 86.28841 571.7 85.83528Q572.0594 85.38216 572.0594 84.17903Q572.0594 83.06966 571.7 82.61653Q571.35626 82.16341 570.825 82.16341ZM570.84064 93.27278L577.10626 81.19466L578.2469 81.19466L571.9969 93.27278L570.84064 93.27278ZM575.79376 90.16341Q575.79376 88.92903 576.40314 88.06966Q577.02814 87.21028 578.2 87.21028Q579.27814 87.21028 579.98126 87.99153Q580.7 88.75716 580.7 90.24153Q580.7 91.69466 579.98126 92.49153Q579.2625 93.27278 578.21564 93.27278Q577.16876 93.27278 576.48126 92.49153Q575.79376 91.71028 575.79376 90.16341ZM578.2469 88.17903Q577.71564 88.17903 577.35626 88.63216Q577.0125 89.08528 577.0125 90.30403Q577.0125 91.39778 577.35626 91.85091Q577.71564 92.30403 578.23126 92.30403Q578.77814 92.30403 579.1219 91.85091Q579.46564 91.39778 579.46564 90.19466Q579.46564 89.08528 579.10626 88.63216Q578.7625 88.17903 578.2469 88.17903Z" fill-rule="nonzero"/><path stroke="#757575" stroke-width="1.0" stroke-linecap="butt" d="M581.45 76.35091L454.76666 76.35091L361.32007 76.35091" fill-rule="nonzero"/><path fill="#9e9e9e" d="M363.32007 76.35091C363.32007 75.24634 362.42462 74.35091 361.32007 74.35091C360.21548 74.35091 359.32007 75.24634 359.32007 76.35091C359.32007 77.455475 360.21548 78.35091 361.32007 78.35091C362.42462 78.35091 363.32007 77.455475 363.32007 76.35091" fill-rule="nonzero"/><path fill="#efefef" d="M456.71564 127.519165L456.71564 116.06604L464.9969 116.06604L464.9969 117.40979L458.23126 117.40979L458.23126 120.925415L464.575 120.925415L464.575 122.269165L458.23126 122.269165L458.23126 126.15979L465.2625 126.15979L465.2625 127.519165L456.71564 127.519165ZM472.91876 124.47229L474.3094 124.65979Q474.075 126.081665 473.1375 126.894165Q472.21564 127.706665 470.85626 127.706665Q469.15314 127.706665 468.10626 126.59729Q467.075 125.47229 467.075 123.394165Q467.075 122.050415 467.5125 121.050415Q467.96564 120.03479 468.8719 119.53479Q469.79376 119.03479 470.85626 119.03479Q472.21564 119.03479 473.075 119.72229Q473.9344 120.394165 474.16876 121.65979L472.8094 121.862915Q472.60626 121.03479 472.10626 120.612915Q471.6219 120.19104 470.91876 120.19104Q469.85626 120.19104 469.1844 120.956665Q468.52814 121.706665 468.52814 123.362915Q468.52814 125.03479 469.16876 125.800415Q469.8094 126.550415 470.84064 126.550415Q471.66876 126.550415 472.21564 126.050415Q472.77814 125.53479 472.91876 124.47229ZM474.98126 123.362915Q474.98126 121.06604 476.2625 119.956665Q477.34064 119.03479 478.8719 119.03479Q480.59064 119.03479 481.66876 120.15979Q482.7625 121.269165 482.7625 123.25354Q482.7625 124.84729 482.27814 125.769165Q481.79376 126.69104 480.8719 127.206665Q479.96564 127.706665 478.8719 127.706665Q477.1375 127.706665 476.0594 126.59729Q474.98126 125.47229 474.98126 123.362915ZM476.4344 123.362915Q476.4344 124.956665 477.1219 125.75354Q477.825 126.550415 478.8719 126.550415Q479.91876 126.550415 480.60626 125.75354Q481.3094 124.956665 481.3094 123.31604Q481.3094 121.78479 480.60626 120.987915Q479.91876 120.19104 478.8719 120.19104Q477.825 120.19104 477.1219 120.987915Q476.4344 121.769165 476.4344 123.362915ZM484.5125 127.519165L484.5125 119.22229L485.77814 119.22229L485.77814 120.394165Q486.6844 119.03479 488.41876 119.03479Q489.16876 119.03479 489.79376 119.300415Q490.41876 119.56604 490.73126 120.00354Q491.04376 120.44104 491.16876 121.050415Q491.2469 121.44104 491.2469 122.40979L491.2469 127.519165L489.84064 127.519165L489.84064 122.47229Q489.84064 121.612915 489.66876 121.19104Q489.5125 120.75354 489.09064 120.50354Q488.6844 120.25354 488.1219 120.25354Q487.21564 120.25354 486.5594 120.831665Q485.91876 121.394165 485.91876 122.987915L485.91876 127.519165L484.5125 127.519165ZM492.98126 123.362915Q492.98126 121.06604 494.2625 119.956665Q495.34064 119.03479 496.8719 119.03479Q498.59064 119.03479 499.66876 120.15979Q500.7625 121.269165 500.7625 123.25354Q500.7625 124.84729 500.27814 125.769165Q499.79376 126.69104 498.8719 127.206665Q497.96564 127.706665 496.8719 127.706665Q495.1375 127.706665 494.0594 126.59729Q492.98126 125.47229 492.98126 123.362915ZM494.4344 123.362915Q494.4344 124.956665 495.1219 125.75354Q495.825 126.550415 496.8719 126.550415Q497.91876 126.550415 498.60626 125.75354Q499.3094 124.956665 499.3094 123.31604Q499.3094 121.78479 498.60626 120.987915Q497.91876 120.19104 496.8719 120.19104Q495.825 120.19104 495.1219 120.987915Q494.4344 121.769165 494.4344 123.362915ZM502.5125 127.519165L502.5125 119.22229L503.7625 119.22229L503.7625 120.37854Q504.15314 119.769165 504.79376 119.40979Q505.45 119.03479 506.27814 119.03479Q507.2 119.03479 507.79376 119.425415Q508.3875 119.800415 508.6219 120.487915Q509.60626 119.03479 511.1844 119.03479Q512.41876 119.03479 513.075 119.72229Q513.7469 120.394165 513.7469 121.81604L513.7469 127.519165L512.35626 127.519165L512.35626 122.28479Q512.35626 121.44104 512.21564 121.081665Q512.075 120.706665 511.71564 120.487915Q511.35626 120.25354 510.8719 120.25354Q509.9969 120.25354 509.41876 120.831665Q508.84064 121.40979 508.84064 122.69104L508.84064 127.519165L507.4344 127.519165L507.4344 122.12854Q507.4344 121.19104 507.09064 120.72229Q506.7469 120.25354 505.96564 120.25354Q505.3719 120.25354 504.8719 120.56604Q504.3719 120.87854 504.1375 121.487915Q503.91876 122.081665 503.91876 123.206665L503.91876 127.519165L502.5125 127.519165ZM515.5125 117.675415L515.5125 116.06604L516.91876 116.06604L516.91876 117.675415L515.5125 117.675415ZM515.5125 127.519165L515.5125 119.22229L516.91876 119.22229L516.91876 127.519165L515.5125 127.519165ZM524.91876 124.47229L526.3094 124.65979Q526.075 126.081665 525.1375 126.894165Q524.21564 127.706665 522.85626 127.706665Q521.15314 127.706665 520.10626 126.59729Q519.075 125.47229 519.075 123.394165Q519.075 122.050415 519.5125 121.050415Q519.96564 120.03479 520.8719 119.53479Q521.79376 119.03479 522.85626 119.03479Q524.21564 119.03479 525.075 119.72229Q525.9344 120.394165 526.16876 121.65979L524.8094 121.862915Q524.60626 121.03479 524.10626 120.612915Q523.6219 120.19104 522.91876 120.19104Q521.85626 120.19104 521.1844 120.956665Q520.52814 121.706665 520.52814 123.362915Q520.52814 125.03479 521.16876 125.800415Q521.8094 126.550415 522.84064 126.550415Q523.66876 126.550415 524.21564 126.050415Q524.77814 125.53479 524.91876 124.47229ZM530.41876 127.519165L534.825 116.06604L536.46564 116.06604L541.15314 127.519165L539.41876 127.519165L538.09064 124.050415L533.29376 124.050415L532.04376 127.519165L530.41876 127.519165ZM533.73126 122.81604L537.6219 122.81604L536.41876 119.644165Q535.8719 118.19104 535.60626 117.269165Q535.3875 118.362915 534.9969 119.456665L533.73126 122.81604ZM547.91876 124.47229L549.3094 124.65979Q549.075 126.081665 548.1375 126.894165Q547.21564 127.706665 545.85626 127.706665Q544.15314 127.706665 543.10626 126.59729Q542.075 125.47229 542.075 123.394165Q542.075 122.050415 542.5125 121.050415Q542.96564 120.03479 543.8719 119.53479Q544.79376 119.03479 545.85626 119.03479Q547.21564 119.03479 548.075 119.72229Q548.9344 120.394165 549.16876 121.65979L547.8094 121.862915Q547.60626 121.03479 547.10626 120.612915Q546.6219 120.19104 545.91876 120.19104Q544.85626 120.19104 544.1844 120.956665Q543.52814 121.706665 543.52814 123.362915Q543.52814 125.03479 544.16876 125.800415Q544.8094 126.550415 545.84064 126.550415Q546.66876 126.550415 547.21564 126.050415Q547.77814 125.53479 547.91876 124.47229ZM553.575 126.25354L553.77814 127.50354Q553.1844 127.62854 552.71564 127.62854Q551.95 127.62854 551.52814 127.394165Q551.10626 127.144165 550.9344 126.75354Q550.7625 126.34729 550.7625 125.081665L550.7625 120.31604L549.73126 120.31604L549.73126 119.22229L550.7625 119.22229L550.7625 117.15979L552.16876 116.31604L552.16876 119.22229L553.575 119.22229L553.575 120.31604L552.16876 120.31604L552.16876 125.15979Q552.16876 125.769165 552.23126 125.94104Q552.3094 126.112915 552.48126 126.22229Q552.65314 126.31604 552.96564 126.31604Q553.2 126.31604 553.575 126.25354ZM554.5125 117.675415L554.5125 116.06604L555.91876 116.06604L555.91876 117.675415L554.5125 117.675415ZM554.5125 127.519165L554.5125 119.22229L555.91876 119.22229L555.91876 127.519165L554.5125 127.519165ZM560.8094 127.519165L557.65314 119.22229L559.1375 119.22229L560.91876 124.19104Q561.21564 124.987915 561.45 125.862915Q561.6375 125.206665 561.98126 124.28479L563.825 119.22229L565.2625 119.22229L562.1219 127.519165L560.8094 127.519165ZM566.5125 117.675415L566.5125 116.06604L567.91876 116.06604L567.91876 117.675415L566.5125 117.675415ZM566.5125 127.519165L566.5125 119.22229L567.91876 119.22229L567.91876 127.519165L566.5125 127.519165ZM573.575 126.25354L573.77814 127.50354Q573.1844 127.62854 572.71564 127.62854Q571.95 127.62854 571.52814 127.394165Q571.10626 127.144165 570.9344 126.75354Q570.7625 126.34729 570.7625 125.081665L570.7625 120.31604L569.73126 120.31604L569.73126 119.22229L570.7625 119.22229L570.7625 117.15979L572.16876 116.31604L572.16876 119.22229L573.575 119.22229L573.575 120.31604L572.16876 120.31604L572.16876 125.15979Q572.16876 125.769165 572.23126 125.94104Q572.3094 126.112915 572.48126 126.22229Q572.65314 126.31604 572.96564 126.31604Q573.2 126.31604 573.575 126.25354ZM574.45 130.72229L574.29376 129.39417Q574.7469 129.51917 575.09064 129.51917Q575.5594 129.51917 575.84064 129.36292Q576.1219 129.20667 576.3094 128.92542Q576.4344 128.72229 576.73126 127.87854Q576.77814 127.769165 576.85626 127.53479L573.71564 119.22229L575.23126 119.22229L576.95 124.019165Q577.29376 124.94104 577.5594 125.94104Q577.79376 124.97229 578.1375 124.050415L579.90314 119.22229L581.3094 119.22229L578.15314 127.65979Q577.65314 129.03479 577.3719 129.55042Q576.9969 130.23792 576.5125 130.56604Q576.02814 130.89417 575.35626 130.89417Q574.95 130.89417 574.45 130.72229Z" fill-rule="nonzero"/><path fill="#9e9e9e" d="M550.6219 149.51917L550.6219 146.76917L545.65314 146.76917L545.65314 145.48792L550.8875 138.06604L552.02814 138.06604L552.02814 145.48792L553.575 145.48792L553.575 146.76917L552.02814 146.76917L552.02814 149.51917L550.6219 149.51917ZM550.6219 145.48792L550.6219 140.31604L547.04376 145.48792L550.6219 145.48792ZM555.90314 149.51917L555.90314 147.90979L557.5125 147.90979L557.5125 149.51917L555.90314 149.51917ZM561.27814 143.30042Q560.40314 142.98792 559.98126 142.39417Q559.5594 141.80042 559.5594 140.97229Q559.5594 139.72229 560.45 138.87854Q561.35626 138.01917 562.85626 138.01917Q564.35626 138.01917 565.2625 138.89417Q566.1844 139.75354 566.1844 141.00354Q566.1844 141.80042 565.7625 142.39417Q565.34064 142.98792 564.4969 143.30042Q565.54376 143.64417 566.09064 144.40979Q566.65314 145.17542 566.65314 146.23792Q566.65314 147.70667 565.60626 148.72229Q564.575 149.72229 562.8719 149.72229Q561.1844 149.72229 560.1375 148.72229Q559.10626 147.70667 559.10626 146.20667Q559.10626 145.08167 559.66876 144.33167Q560.23126 143.58167 561.27814 143.30042ZM560.9969 140.92542Q560.9969 141.73792 561.5125 142.25354Q562.04376 142.76917 562.8875 142.76917Q563.7 142.76917 564.21564 142.25354Q564.73126 141.73792 564.73126 141.00354Q564.73126 140.22229 564.2 139.70667Q563.66876 139.17542 562.8719 139.17542Q562.0594 139.17542 561.52814 139.69104Q560.9969 140.20667 560.9969 140.92542ZM560.54376 146.20667Q560.54376 146.81604 560.825 147.37854Q561.1219 147.94104 561.6844 148.25354Q562.2469 148.55042 562.8875 148.55042Q563.90314 148.55042 564.5594 147.90979Q565.21564 147.25354 565.21564 146.25354Q565.21564 145.23792 564.52814 144.58167Q563.85626 143.90979 562.84064 143.90979Q561.85626 143.90979 561.2 144.56604Q560.54376 145.22229 560.54376 146.20667ZM568.3875 140.81604Q568.3875 139.58167 568.9969 138.72229Q569.6219 137.86292 570.79376 137.86292Q571.8719 137.86292 572.575 138.64417Q573.27814 139.40979 573.27814 140.89417Q573.27814 142.34729 572.5594 143.14417Q571.85626 143.92542 570.8094 143.92542Q569.7625 143.92542 569.075 143.15979Q568.3875 142.37854 568.3875 140.81604ZM570.825 138.83167Q570.3094 138.83167 569.95 139.28479Q569.60626 139.73792 569.60626 140.95667Q569.60626 142.05042 569.95 142.50354Q570.3094 142.95667 570.825 142.95667Q571.35626 142.95667 571.7 142.50354Q572.0594 142.05042 572.0594 140.84729Q572.0594 139.73792 571.7 139.28479Q571.35626 138.83167 570.825 138.83167ZM570.84064 149.94104L577.10626 137.86292L578.2469 137.86292L571.9969 149.94104L570.84064 149.94104ZM575.79376 146.83167Q575.79376 145.59729 576.40314 144.73792Q577.02814 143.87854 578.2 143.87854Q579.27814 143.87854 579.98126 144.65979Q580.7 145.42542 580.7 146.90979Q580.7 148.36292 579.98126 149.15979Q579.2625 149.94104 578.21564 149.94104Q577.16876 149.94104 576.48126 149.15979Q575.79376 148.37854 575.79376 146.83167ZM578.2469 144.84729Q577.71564 144.84729 577.35626 145.30042Q577.0125 145.75354 577.0125 146.97229Q577.0125 148.06604 577.35626 148.51917Q577.71564 148.97229 578.23126 148.97229Q578.77814 148.97229 579.1219 148.51917Q579.46564 148.06604 579.46564 146.86292Q579.46564 145.75354 579.10626 145.30042Q578.7625 144.84729 578.2469 144.84729Z" fill-rule="nonzero"/><path stroke="#757575" stroke-width="1.0" stroke-linecap="butt" d="M581.45 133.01917L454.76666 133.01917L422.39392 133.01917" fill-rule="nonzero"/><path fill="#9e9e9e" d="M424.39392 133.01917C424.39392 131.9146 423.4985 131.01917 422.39392 131.01917C421.28937 131.01917 420.39392 131.9146 420.39392 133.01917C420.39392 134.12373 421.28937 135.01917 422.39392 135.01917C423.4985 135.01917 424.39392 134.12373 424.39392 133.01917" fill-rule="nonzero"/><path fill="#efefef" d="M481.41876 314.95428L485.825 303.50116L487.46564 303.50116L492.15314 314.95428L490.41876 314.95428L489.09064 311.48553L484.29376 311.48553L483.04376 314.95428L481.41876 314.95428ZM484.73126 310.25116L488.6219 310.25116L487.41876 307.07928Q486.8719 305.62616 486.60626 304.70428Q486.3875 305.79803 485.9969 306.89178L484.73126 310.25116ZM493.4969 314.95428L493.4969 306.6574L494.7625 306.6574L494.7625 307.9074Q495.2469 307.0324 495.65314 306.75116Q496.0594 306.4699 496.5594 306.4699Q497.2625 306.4699 497.9969 306.92303L497.5125 308.2199Q496.9969 307.92303 496.48126 307.92303Q496.02814 307.92303 495.65314 308.20428Q495.29376 308.4699 495.1375 308.9699Q494.90314 309.7199 494.90314 310.61053L494.90314 314.95428L493.4969 314.95428ZM503.91876 311.9074L505.3094 312.0949Q505.075 313.51678 504.1375 314.32928Q503.21564 315.14178 501.85626 315.14178Q500.15314 315.14178 499.10626 314.0324Q498.075 312.9074 498.075 310.82928Q498.075 309.48553 498.5125 308.48553Q498.96564 307.4699 499.8719 306.9699Q500.79376 306.4699 501.85626 306.4699Q503.21564 306.4699 504.075 307.1574Q504.9344 307.82928 505.16876 309.0949L503.8094 309.29803Q503.60626 308.4699 503.10626 308.04803Q502.6219 307.62616 501.91876 307.62616Q500.85626 307.62616 500.1844 308.39178Q499.52814 309.14178 499.52814 310.79803Q499.52814 312.4699 500.16876 313.23553Q500.8094 313.98553 501.84064 313.98553Q502.66876 313.98553 503.21564 313.48553Q503.77814 312.9699 503.91876 311.9074ZM506.5125 314.95428L506.5125 303.50116L507.91876 303.50116L507.91876 307.61053Q508.90314 306.4699 510.40314 306.4699Q511.325 306.4699 511.9969 306.82928Q512.6844 307.18866 512.96564 307.82928Q513.2625 308.4699 513.2625 309.68866L513.2625 314.95428L511.85626 314.95428L511.85626 309.68866Q511.85626 308.64178 511.40314 308.1574Q510.95 307.67303 510.10626 307.67303Q509.48126 307.67303 508.9344 308.00116Q508.3875 308.32928 508.15314 308.89178Q507.91876 309.43866 507.91876 310.4074L507.91876 314.95428L506.5125 314.95428ZM515.5125 305.11053L515.5125 303.50116L516.91876 303.50116L516.91876 305.11053L515.5125 305.11053ZM515.5125 314.95428L515.5125 306.6574L516.91876 306.6574L516.91876 314.95428L515.5125 314.95428ZM522.575 313.68866L522.77814 314.93866Q522.1844 315.06366 521.71564 315.06366Q520.95 315.06366 520.52814 314.82928Q520.10626 314.57928 519.9344 314.18866Q519.7625 313.7824 519.7625 312.51678L519.7625 307.75116L518.73126 307.75116L518.73126 306.6574L519.7625 306.6574L519.7625 304.5949L521.16876 303.75116L521.16876 306.6574L522.575 306.6574L522.575 307.75116L521.16876 307.75116L521.16876 312.5949Q521.16876 313.20428 521.23126 313.37616Q521.3094 313.54803 521.48126 313.6574Q521.65314 313.75116 521.96564 313.75116Q522.2 313.75116 522.575 313.68866ZM529.1844 312.2824L530.6375 312.45428Q530.29376 313.73553 529.35626 314.43866Q528.4344 315.14178 526.9969 315.14178Q525.16876 315.14178 524.10626 314.01678Q523.04376 312.89178 523.04376 310.87616Q523.04376 308.7824 524.1219 307.62616Q525.2 306.4699 526.91876 306.4699Q528.575 306.4699 529.6219 307.61053Q530.6844 308.73553 530.6844 310.7824Q530.6844 310.9074 530.6844 311.1574L524.4969 311.1574Q524.575 312.5324 525.2625 313.26678Q525.96564 313.98553 526.9969 313.98553Q527.77814 313.98553 528.325 313.57928Q528.8719 313.17303 529.1844 312.2824ZM524.575 310.00116L529.2 310.00116Q529.10626 308.95428 528.66876 308.43866Q527.9969 307.62616 526.9344 307.62616Q525.96564 307.62616 525.29376 308.2824Q524.6375 308.92303 524.575 310.00116ZM537.91876 311.9074L539.3094 312.0949Q539.075 313.51678 538.1375 314.32928Q537.21564 315.14178 535.85626 315.14178Q534.15314 315.14178 533.10626 314.0324Q532.075 312.9074 532.075 310.82928Q532.075 309.48553 532.5125 308.48553Q532.96564 307.4699 533.8719 306.9699Q534.79376 306.4699 535.85626 306.4699Q537.21564 306.4699 538.075 307.1574Q538.9344 307.82928 539.16876 309.0949L537.8094 309.29803Q537.60626 308.4699 537.10626 308.04803Q536.6219 307.62616 535.91876 307.62616Q534.85626 307.62616 534.1844 308.39178Q533.52814 309.14178 533.52814 310.79803Q533.52814 312.4699 534.16876 313.23553Q534.8094 313.98553 535.84064 313.98553Q536.66876 313.98553 537.21564 313.48553Q537.77814 312.9699 537.91876 311.9074ZM543.575 313.68866L543.77814 314.93866Q543.1844 315.06366 542.71564 315.06366Q541.95 315.06366 541.52814 314.82928Q541.10626 314.57928 540.9344 314.18866Q540.7625 313.7824 540.7625 312.51678L540.7625 307.75116L539.73126 307.75116L539.73126 306.6574L540.7625 306.6574L540.7625 304.5949L542.16876 303.75116L542.16876 306.6574L543.575 306.6574L543.575 307.75116L542.16876 307.75116L542.16876 312.5949Q542.16876 313.20428 542.23126 313.37616Q542.3094 313.54803 542.48126 313.6574Q542.65314 313.75116 542.96564 313.75116Q543.2 313.75116 543.575 313.68866ZM549.95 314.95428L549.95 313.73553Q548.98126 315.14178 547.3094 315.14178Q546.575 315.14178 545.9344 314.86053Q545.3094 314.57928 544.9969 314.1574Q544.6844 313.7199 544.5594 313.11053Q544.48126 312.68866 544.48126 311.79803L544.48126 306.6574L545.8875 306.6574L545.8875 311.25116Q545.8875 312.36053 545.96564 312.73553Q546.10626 313.29803 546.52814 313.61053Q546.96564 313.92303 547.59064 313.92303Q548.23126 313.92303 548.77814 313.61053Q549.34064 313.2824 549.5594 312.7199Q549.79376 312.1574 549.79376 311.0949L549.79376 306.6574L551.2 306.6574L551.2 314.95428L549.95 314.95428ZM553.4969 314.95428L553.4969 306.6574L554.7625 306.6574L554.7625 307.9074Q555.2469 307.0324 555.65314 306.75116Q556.0594 306.4699 556.5594 306.4699Q557.2625 306.4699 557.9969 306.92303L557.5125 308.2199Q556.9969 307.92303 556.48126 307.92303Q556.02814 307.92303 555.65314 308.20428Q555.29376 308.4699 555.1375 308.9699Q554.90314 309.7199 554.90314 310.61053L554.90314 314.95428L553.4969 314.95428ZM564.1844 312.2824L565.6375 312.45428Q565.29376 313.73553 564.35626 314.43866Q563.4344 315.14178 561.9969 315.14178Q560.16876 315.14178 559.10626 314.01678Q558.04376 312.89178 558.04376 310.87616Q558.04376 308.7824 559.1219 307.62616Q560.2 306.4699 561.91876 306.4699Q563.575 306.4699 564.6219 307.61053Q565.6844 308.73553 565.6844 310.7824Q565.6844 310.9074 565.6844 311.1574L559.4969 311.1574Q559.575 312.5324 560.2625 313.26678Q560.96564 313.98553 561.9969 313.98553Q562.77814 313.98553 563.325 313.57928Q563.8719 313.17303 564.1844 312.2824ZM559.575 310.00116L564.2 310.00116Q564.10626 308.95428 563.66876 308.43866Q562.9969 307.62616 561.9344 307.62616Q560.96564 307.62616 560.29376 308.2824Q559.6375 308.92303 559.575 310.00116ZM578.0594 313.5949Q577.35626 314.37616 576.52814 314.76678Q575.71564 315.1574 574.7625 315.1574Q573.0125 315.1574 571.98126 313.95428Q571.1375 312.98553 571.1375 311.79803Q571.1375 310.73553 571.825 309.87616Q572.5125 309.01678 573.8719 308.37616Q573.09064 307.48553 572.825 306.93866Q572.575 306.37616 572.575 305.86053Q572.575 304.82928 573.3875 304.06366Q574.2 303.29803 575.41876 303.29803Q576.59064 303.29803 577.34064 304.01678Q578.09064 304.73553 578.09064 305.75116Q578.09064 307.37616 575.91876 308.5324L577.98126 311.1574Q578.325 310.4699 578.52814 309.56366L579.98126 309.87616Q579.60626 311.37616 578.96564 312.3449Q579.7625 313.39178 580.7625 314.0949L579.8094 315.2199Q578.96564 314.67303 578.0594 313.5949ZM575.2 307.62616Q576.10626 307.0949 576.3719 306.68866Q576.65314 306.2824 576.65314 305.7824Q576.65314 305.20428 576.27814 304.82928Q575.90314 304.45428 575.35626 304.45428Q574.77814 304.45428 574.40314 304.82928Q574.02814 305.18866 574.02814 305.7199Q574.02814 305.98553 574.15314 306.2824Q574.29376 306.57928 574.575 306.9074L575.2 307.62616ZM577.16876 312.48553L574.59064 309.29803Q573.45 309.9699 573.04376 310.56366Q572.65314 311.14178 572.65314 311.70428Q572.65314 312.4074 573.2 313.1574Q573.7625 313.9074 574.77814 313.9074Q575.41876 313.9074 576.09064 313.51678Q576.7625 313.11053 577.16876 312.48553Z" fill-rule="nonzero"/><path fill="#9e9e9e" d="M541.6219 336.95428L541.6219 334.20428L536.65314 334.20428L536.65314 332.92303L541.8875 325.50116L543.02814 325.50116L543.02814 332.92303L544.575 332.92303L544.575 334.20428L543.02814 334.20428L543.02814 336.95428L541.6219 336.95428ZM541.6219 332.92303L541.6219 327.75116L538.04376 332.92303L541.6219 332.92303ZM553.5125 335.5949L553.5125 336.95428L545.9344 336.95428Q545.91876 336.43866 546.10626 335.9699Q546.3875 335.20428 547.02814 334.45428Q547.66876 333.70428 548.8719 332.7199Q550.73126 331.18866 551.3875 330.29803Q552.04376 329.39178 552.04376 328.5949Q552.04376 327.76678 551.45 327.18866Q550.85626 326.61053 549.8875 326.61053Q548.8719 326.61053 548.2625 327.2199Q547.65314 327.82928 547.65314 328.9074L546.2 328.76678Q546.35626 327.14178 547.325 326.29803Q548.29376 325.45428 549.91876 325.45428Q551.575 325.45428 552.52814 326.37616Q553.4969 327.2824 553.4969 328.62616Q553.4969 329.31366 553.21564 329.98553Q552.9344 330.64178 552.27814 331.37616Q551.6219 332.11053 550.10626 333.39178Q548.84064 334.45428 548.48126 334.8449Q548.1219 335.2199 547.8875 335.5949L553.5125 335.5949ZM555.90314 336.95428L555.90314 335.3449L557.5125 335.3449L557.5125 336.95428L555.90314 336.95428ZM559.325 334.29803L560.6844 334.17303Q560.85626 335.12616 561.34064 335.56366Q561.825 335.98553 562.575 335.98553Q563.23126 335.98553 563.71564 335.68866Q564.2 335.39178 564.5125 334.9074Q564.825 334.4074 565.02814 333.56366Q565.2469 332.7199 565.2469 331.8449Q565.2469 331.75116 565.2469 331.56366Q564.825 332.23553 564.09064 332.6574Q563.35626 333.06366 562.5125 333.06366Q561.09064 333.06366 560.10626 332.0324Q559.1219 331.00116 559.1219 329.31366Q559.1219 327.57928 560.1375 326.51678Q561.16876 325.45428 562.71564 325.45428Q563.84064 325.45428 564.7625 326.06366Q565.6844 326.6574 566.16876 327.76678Q566.65314 328.87616 566.65314 330.98553Q566.65314 333.18866 566.16876 334.48553Q565.7 335.7824 564.7469 336.4699Q563.8094 337.1574 562.54376 337.1574Q561.2 337.1574 560.34064 336.4074Q559.4969 335.6574 559.325 334.29803ZM565.09064 329.25116Q565.09064 328.0324 564.4344 327.32928Q563.79376 326.61053 562.8875 326.61053Q561.95 326.61053 561.2469 327.37616Q560.5594 328.14178 560.5594 329.36053Q560.5594 330.45428 561.21564 331.14178Q561.8875 331.82928 562.85626 331.82928Q563.825 331.82928 564.45 331.14178Q565.09064 330.45428 565.09064 329.25116ZM568.3875 328.25116Q568.3875 327.01678 568.9969 326.1574Q569.6219 325.29803 570.79376 325.29803Q571.8719 325.29803 572.575 326.07928Q573.27814 326.8449 573.27814 328.32928Q573.27814 329.7824 572.5594 330.57928Q571.85626 331.36053 570.8094 331.36053Q569.7625 331.36053 569.075 330.5949Q568.3875 329.81366 568.3875 328.25116ZM570.825 326.26678Q570.3094 326.26678 569.95 326.7199Q569.60626 327.17303 569.60626 328.39178Q569.60626 329.48553 569.95 329.93866Q570.3094 330.39178 570.825 330.39178Q571.35626 330.39178 571.7 329.93866Q572.0594 329.48553 572.0594 328.2824Q572.0594 327.17303 571.7 326.7199Q571.35626 326.26678 570.825 326.26678ZM570.84064 337.37616L577.10626 325.29803L578.2469 325.29803L571.9969 337.37616L570.84064 337.37616ZM575.79376 334.26678Q575.79376 333.0324 576.40314 332.17303Q577.02814 331.31366 578.2 331.31366Q579.27814 331.31366 579.98126 332.0949Q580.7 332.86053 580.7 334.3449Q580.7 335.79803 579.98126 336.5949Q579.2625 337.37616 578.21564 337.37616Q577.16876 337.37616 576.48126 336.5949Q575.79376 335.81366 575.79376 334.26678ZM578.2469 332.2824Q577.71564 332.2824 577.35626 332.73553Q577.0125 333.18866 577.0125 334.4074Q577.0125 335.50116 577.35626 335.95428Q577.71564 336.4074 578.23126 336.4074Q578.77814 336.4074 579.1219 335.95428Q579.46564 335.50116 579.46564 334.29803Q579.46564 333.18866 579.10626 332.73553Q578.7625 332.2824 578.2469 332.2824Z" fill-rule="nonzero"/><path stroke="#757575" stroke-width="1.0" stroke-linecap="butt" d="M581.45 320.45428L454.76666 320.45428L379.6131 320.45428" fill-rule="nonzero"/><path fill="#9e9e9e" d="M381.6131 320.45428C381.6131 319.3497 380.71765 318.45428 379.6131 318.45428C378.5085 318.45428 377.6131 319.3497 377.6131 320.45428C377.6131 321.55884 378.5085 322.45428 379.6131 322.45428C380.71765 322.45428 381.6131 321.55884 381.6131 320.45428" fill-rule="nonzero"/><path fill="#f3f3f3" d="M271.26562 32.534374L273.15625 33.003124Q272.5625 35.346874 271.01562 36.58125Q269.46875 37.8 267.21875 37.8Q264.90625 37.8 263.45312 36.8625Q262.01562 35.909374 261.25 34.128124Q260.5 32.33125 260.5 30.284374Q260.5 28.05 261.34375 26.39375Q262.20312 24.721874 263.78125 23.8625Q265.35938 22.9875 267.25 22.9875Q269.40625 22.9875 270.85938 24.08125Q272.32812 25.175 272.90625 27.159374L271.04688 27.596874Q270.54688 26.034374 269.59375 25.33125Q268.65625 24.6125 267.21875 24.6125Q265.5625 24.6125 264.45312 25.409374Q263.34375 26.190624 262.89062 27.534374Q262.45312 28.8625 262.45312 30.26875Q262.45312 32.096874 262.98438 33.471874Q263.51562 34.83125 264.64062 35.503124Q265.76562 36.175 267.0625 36.175Q268.65625 36.175 269.76562 35.253124Q270.875 34.33125 271.26562 32.534374ZM281.59375 36.26875Q280.60938 37.096874 279.70312 37.440624Q278.79688 37.784374 277.76562 37.784374Q276.0625 37.784374 275.14062 36.95625Q274.21875 36.1125 274.21875 34.815624Q274.21875 34.05 274.5625 33.425Q274.92188 32.8 275.48438 32.425Q276.04688 32.034374 276.75 31.83125Q277.26562 31.70625 278.3125 31.565624Q280.4375 31.315624 281.4375 30.971874Q281.45312 30.6125 281.45312 30.503124Q281.45312 29.440624 280.95312 28.9875Q280.28125 28.39375 278.95312 28.39375Q277.70312 28.39375 277.10938 28.83125Q276.53125 29.26875 276.25 30.378124L274.53125 30.14375Q274.76562 29.034374 275.29688 28.3625Q275.82812 27.675 276.84375 27.315624Q277.85938 26.940624 279.20312 26.940624Q280.53125 26.940624 281.35938 27.253124Q282.1875 27.565624 282.57812 28.05Q282.96875 28.51875 283.125 29.2375Q283.21875 29.690624 283.21875 30.8625L283.21875 33.20625Q283.21875 35.659374 283.32812 36.315624Q283.4375 36.95625 283.78125 37.55L281.9375 37.55Q281.67188 37.003124 281.59375 36.26875ZM281.4375 32.346874Q280.48438 32.7375 278.5625 33.003124Q277.48438 33.159374 277.03125 33.3625Q276.59375 33.55 276.34375 33.925Q276.09375 34.3 276.09375 34.76875Q276.09375 35.471874 276.625 35.940624Q277.15625 36.409374 278.1875 36.409374Q279.20312 36.409374 279.98438 35.971874Q280.78125 35.51875 281.15625 34.753124Q281.4375 34.14375 281.4375 32.9875L281.4375 32.346874ZM289.65625 35.971874L289.90625 37.534374Q289.17188 37.690624 288.57812 37.690624Q287.625 37.690624 287.09375 37.39375Q286.57812 37.08125 286.35938 36.596874Q286.14062 36.096874 286.14062 34.51875L286.14062 28.55L284.85938 28.55L284.85938 27.175L286.14062 27.175L286.14062 24.6125L287.89062 23.55L287.89062 27.175L289.65625 27.175L289.65625 28.55L287.89062 28.55L287.89062 34.6125Q287.89062 35.3625 287.98438 35.58125Q288.07812 35.784374 288.28125 35.925Q288.5 36.05 288.89062 36.05Q289.17188 36.05 289.65625 35.971874ZM298.92188 34.20625L300.73438 34.440624Q300.3125 36.01875 299.14062 36.909374Q297.98438 37.784374 296.17188 37.784374Q293.90625 37.784374 292.5625 36.39375Q291.23438 34.9875 291.23438 32.45625Q291.23438 29.83125 292.57812 28.39375Q293.92188 26.940624 296.07812 26.940624Q298.15625 26.940624 299.46875 28.3625Q300.79688 29.76875 300.79688 32.346874Q300.79688 32.503124 300.78125 32.815624L293.04688 32.815624Q293.14062 34.51875 294.01562 35.425Q294.89062 36.33125 296.1875 36.33125Q297.15625 36.33125 297.82812 35.83125Q298.51562 35.315624 298.92188 34.20625ZM293.14062 31.3625L298.9375 31.3625Q298.82812 30.065624 298.28125 29.409374Q297.4375 28.39375 296.09375 28.39375Q294.89062 28.39375 294.0625 29.20625Q293.23438 30.003124 293.14062 31.3625ZM302.5 38.409374L304.20312 38.659374Q304.3125 39.45625 304.79688 39.815624Q305.45312 40.3 306.59375 40.3Q307.8125 40.3 308.46875 39.815624Q309.14062 39.33125 309.375 38.45625Q309.51562 37.909374 309.5 36.190624Q308.34375 37.55 306.625 37.55Q304.48438 37.55 303.3125 36.003124Q302.14062 34.45625 302.14062 32.3Q302.14062 30.815624 302.67188 29.565624Q303.21875 28.315624 304.23438 27.628124Q305.26562 26.940624 306.64062 26.940624Q308.46875 26.940624 309.67188 28.425L309.67188 27.175L311.28125 27.175L311.28125 36.14375Q311.28125 38.565624 310.78125 39.565624Q310.29688 40.58125 309.21875 41.159374Q308.15625 41.753124 306.59375 41.753124Q304.75 41.753124 303.59375 40.925Q302.45312 40.096874 302.5 38.409374ZM303.95312 32.175Q303.95312 34.221874 304.76562 35.159374Q305.57812 36.096874 306.79688 36.096874Q308.0 36.096874 308.8125 35.159374Q309.64062 34.221874 309.64062 32.2375Q309.64062 30.33125 308.79688 29.3625Q307.95312 28.39375 306.76562 28.39375Q305.59375 28.39375 304.76562 29.346874Q303.95312 30.3 303.95312 32.175ZM313.17188 32.3625Q313.17188 29.4875 314.76562 28.096874Q316.10938 26.940624 318.03125 26.940624Q320.17188 26.940624 321.51562 28.346874Q322.875 29.753124 322.875 32.221874Q322.875 34.221874 322.28125 35.378124Q321.6875 36.51875 320.53125 37.159374Q319.39062 37.784374 318.03125 37.784374Q315.84375 37.784374 314.5 36.39375Q313.17188 34.9875 313.17188 32.3625ZM314.96875 32.3625Q314.96875 34.3625 315.82812 35.346874Q316.70312 36.33125 318.03125 36.33125Q319.34375 36.33125 320.20312 35.346874Q321.07812 34.346874 321.07812 32.3Q321.07812 30.378124 320.20312 29.39375Q319.32812 28.39375 318.03125 28.39375Q316.70312 28.39375 315.82812 29.39375Q314.96875 30.378124 314.96875 32.3625ZM324.79688 37.55L324.79688 27.175L326.375 27.175L326.375 28.753124Q326.98438 27.64375 327.5 27.3Q328.01562 26.940624 328.625 26.940624Q329.51562 26.940624 330.4375 27.503124L329.82812 29.14375Q329.1875 28.753124 328.54688 28.753124Q327.96875 28.753124 327.5 29.1125Q327.04688 29.45625 326.84375 30.065624Q326.5625 31.003124 326.5625 32.1125L326.5625 37.55L324.79688 37.55ZM331.73438 41.55L331.54688 39.89375Q332.125 40.05 332.54688 40.05Q333.14062 40.05 333.48438 39.846874Q333.84375 39.659374 334.0625 39.315624Q334.23438 39.05 334.60938 38.003124Q334.65625 37.846874 334.76562 37.565624L330.82812 27.175L332.71875 27.175L334.875 33.190624Q335.29688 34.33125 335.625 35.58125Q335.9375 34.378124 336.34375 33.221874L338.5625 27.175L340.32812 27.175L336.375 37.721874Q335.75 39.440624 335.39062 40.08125Q334.92188 40.95625 334.3125 41.346874Q333.71875 41.753124 332.875 41.753124Q332.35938 41.753124 331.73438 41.55Z" fill-rule="nonzero"/></svg>