<svg version="1.1" viewBox="0.0 0.0 600.0 371.0" fill="none" stroke="none" stroke-linecap="square" stroke-miterlimit="10" width="600" height="371" xmlns:xlink="http://www.w3.org/1999/xlink" xmlns="http://www.w3.org/2000/svg"><path fill="#ffffff" fill-opacity="0.0" d="M0 0L600.0 0L600.0 371.0L0 371.0L0 0Z" fill-rule="nonzero"/><path fill="#304388" d="M300.0 54.916668C311.5529 54.916668 323.06647 56.26241 334.30795 58.926693L308.577 167.49417C305.76663 166.82811 302.8882 166.49167 300.0 166.49167Z" fill-rule="nonzero"/><path fill="#533990" d="M334.30795 58.926693C345.54944 61.590973 356.44232 65.55566 366.76636 70.740585L316.6916 170.44765C314.11057 169.15141 311.38736 168.16025 308.577 167.49417Z" fill-rule="nonzero"/><path fill="#cf4366" d="M366.76636 70.740585C425.50293 100.2392 457.9201 164.78708 446.50656 229.51639C435.09305 294.24573 382.5542 343.81354 317.27075 351.4441L304.3177 240.62352C320.63855 238.71588 333.77325 226.32393 336.62665 210.1416C339.48 193.95927 331.37573 177.8223 316.6916 170.44765Z" fill-rule="nonzero"/><path fill="#e5a345" d="M163.40005 144.75987C186.92076 90.23275 240.61624 54.916668 300.0 54.916668L300.0 166.49167C285.15405 166.49167 271.7302 175.3207 265.85 188.95247Z" fill-rule="nonzero"/><path fill="#df8d43" d="M191.79105 305.77322C151.03944 262.57904 139.87935 199.28699 163.40005 144.75987L265.85 188.95247C259.96985 202.58424 262.75986 218.40726 272.94775 229.20581Z" fill-rule="nonzero"/><path fill="#d8753e" d="M317.27075 351.4441C270.57748 356.90176 224.05205 339.96786 191.79105 305.77322L272.94775 229.20581C281.013 237.75447 292.64438 241.98795 304.3177 240.62352Z" fill-rule="nonzero"/><path fill="#ffffff" d="M382.2463 228.15701L382.2463 225.07889L376.66818 225.07889L376.66818 223.62576L382.54318 215.26639L383.84006 215.26639L383.84006 223.62576L385.57443 223.62576L385.57443 225.07889L383.84006 225.07889L383.84006 228.15701L382.2463 228.15701ZM382.2463 223.62576L382.2463 217.81326L378.21506 223.62576L382.2463 223.62576ZM387.1838 221.79764Q387.1838 219.51639 387.65256 218.12576Q388.1213 216.73514 389.04318 215.98514Q389.98068 215.21951 391.38693 215.21951Q392.41818 215.21951 393.19943 215.64139Q393.98068 216.04764 394.48068 216.84451Q394.9963 217.62576 395.29318 218.76639Q395.59006 219.89139 395.59006 221.79764Q395.59006 224.06326 395.1213 225.46951Q394.65256 226.86014 393.71506 227.62576Q392.79318 228.37576 391.38693 228.37576Q389.51193 228.37576 388.44943 227.04764Q387.1838 225.43826 387.1838 221.79764ZM388.8088 221.79764Q388.8088 224.96951 389.54318 226.03201Q390.29318 227.07889 391.38693 227.07889Q392.46506 227.07889 393.21506 226.03201Q393.96506 224.96951 393.96506 221.79764Q393.96506 218.62576 393.21506 217.57889Q392.46506 216.53201 391.3713 216.53201Q390.27756 216.53201 389.6213 217.45389Q388.8088 218.62576 388.8088 221.79764ZM398.07443 228.15701L398.07443 226.36014L399.8713 226.36014L399.8713 228.15701L398.07443 228.15701ZM402.29318 216.95389L402.29318 215.43826L410.6213 215.43826L410.6213 216.67264Q409.40256 217.98514 408.1838 220.15701Q406.98068 222.31326 406.32443 224.61014Q405.84006 226.23514 405.71506 228.15701L404.09006 228.15701Q404.1213 226.64139 404.6838 224.48514Q405.26193 222.32889 406.32443 220.32889Q407.38693 218.32889 408.59006 216.95389L402.29318 216.95389ZM412.48068 218.36014Q412.48068 216.98514 413.16818 216.01639Q413.8713 215.04764 415.1838 215.04764Q416.40256 215.04764 417.19943 215.92264Q417.9963 216.78201 417.9963 218.46951Q417.9963 220.09451 417.1838 220.98514Q416.38693 221.86014 415.19943 221.86014Q414.04318 221.86014 413.26193 221.00076Q412.48068 220.12576 412.48068 218.36014ZM415.23068 216.14139Q414.63693 216.14139 414.2463 216.65701Q413.85568 217.15701 413.85568 218.51639Q413.85568 219.76639 414.2463 220.26639Q414.65256 220.76639 415.23068 220.76639Q415.82443 220.76639 416.21506 220.26639Q416.60568 219.75076 416.60568 218.40701Q416.60568 217.15701 416.21506 216.65701Q415.82443 216.14139 415.23068 216.14139ZM415.2463 228.62576L422.29318 215.04764L423.57443 215.04764L416.54318 228.62576L415.2463 228.62576ZM420.8088 225.12576Q420.8088 223.75076 421.4963 222.78201Q422.19943 221.81326 423.52756 221.81326Q424.7463 221.81326 425.52756 222.68826Q426.32443 223.54764 426.32443 225.23514Q426.32443 226.86014 425.52756 227.75076Q424.73068 228.62576 423.54318 228.62576Q422.3713 228.62576 421.59006 227.75076Q420.8088 226.87576 420.8088 225.12576ZM423.57443 222.90701Q422.98068 222.90701 422.59006 223.42264Q422.19943 223.92264 422.19943 225.29764Q422.19943 226.51639 422.59006 227.03201Q422.98068 227.54764 423.5588 227.54764Q424.16818 227.54764 424.5588 227.03201Q424.94943 226.51639 424.94943 225.17264Q424.94943 223.92264 424.5588 223.42264Q424.16818 222.90701 423.57443 222.90701Z" fill-rule="nonzero"/><path fill="#ffffff" d="M244.19502 311.86224L242.6169 311.86224L242.6169 301.78412Q242.03877 302.331 241.1169 302.87787Q240.19502 303.40912 239.44502 303.69037L239.44502 302.15912Q240.77315 301.53412 241.77315 300.6435Q242.77315 299.75287 243.1794 298.92474L244.19502 298.92474L244.19502 311.86224ZM253.3044 311.86224L253.3044 308.78412L247.72627 308.78412L247.72627 307.331L253.60127 298.97162L254.89815 298.97162L254.89815 307.331L256.6325 307.331L256.6325 308.78412L254.89815 308.78412L254.89815 311.86224L253.3044 311.86224ZM253.3044 307.331L253.3044 301.5185L249.27315 307.331L253.3044 307.331ZM259.1325 311.86224L259.1325 310.06537L260.92938 310.06537L260.92938 311.86224L259.1325 311.86224ZM265.67938 304.87787Q264.695 304.5185 264.21063 303.84662Q263.74188 303.17474 263.74188 302.25287Q263.74188 300.84662 264.74188 299.8935Q265.7575 298.92474 267.445 298.92474Q269.1325 298.92474 270.14813 299.90912Q271.17938 300.87787 271.17938 302.28412Q271.17938 303.19037 270.71063 303.86224Q270.24188 304.5185 269.28876 304.87787Q270.47626 305.2685 271.08563 306.12787Q271.71063 306.98724 271.71063 308.17474Q271.71063 309.831 270.53876 310.956Q269.36688 312.081 267.46063 312.081Q265.55438 312.081 264.3825 310.956Q263.22626 309.81537 263.22626 308.12787Q263.22626 306.87787 263.85126 306.03412Q264.49188 305.17474 265.67938 304.87787ZM265.35126 302.19037Q265.35126 303.11224 265.945 303.69037Q266.53876 304.2685 267.47626 304.2685Q268.3825 304.2685 268.96063 303.69037Q269.55438 303.11224 269.55438 302.28412Q269.55438 301.40912 268.945 300.81537Q268.35126 300.22162 267.46063 300.22162Q266.55438 300.22162 265.945 300.79974Q265.35126 301.37787 265.35126 302.19037ZM264.85126 308.1435Q264.85126 308.81537 265.16376 309.456Q265.49188 310.081 266.11688 310.44037Q266.7575 310.78412 267.49188 310.78412Q268.61688 310.78412 269.35126 310.04974Q270.10126 309.31537 270.10126 308.19037Q270.10126 307.04974 269.33563 306.31537Q268.57 305.56537 267.42938 305.56537Q266.32 305.56537 265.58563 306.29974Q264.85126 307.03412 264.85126 308.1435ZM273.53876 302.06537Q273.53876 300.69037 274.22626 299.72162Q274.92938 298.75287 276.24188 298.75287Q277.46063 298.75287 278.2575 299.62787Q279.05438 300.48724 279.05438 302.17474Q279.05438 303.79974 278.24188 304.69037Q277.445 305.56537 276.2575 305.56537Q275.10126 305.56537 274.32 304.706Q273.53876 303.831 273.53876 302.06537ZM276.28876 299.84662Q275.695 299.84662 275.30438 300.36224Q274.91376 300.86224 274.91376 302.22162Q274.91376 303.47162 275.30438 303.97162Q275.71063 304.47162 276.28876 304.47162Q276.8825 304.47162 277.27313 303.97162Q277.66376 303.456 277.66376 302.11224Q277.66376 300.86224 277.27313 300.36224Q276.8825 299.84662 276.28876 299.84662ZM276.30438 312.331L283.35126 298.75287L284.6325 298.75287L277.60126 312.331L276.30438 312.331ZM281.86688 308.831Q281.86688 307.456 282.55438 306.48724Q283.2575 305.5185 284.58563 305.5185Q285.80438 305.5185 286.58563 306.3935Q287.3825 307.25287 287.3825 308.94037Q287.3825 310.56537 286.58563 311.456Q285.78876 312.331 284.60126 312.331Q283.42938 312.331 282.64813 311.456Q281.86688 310.581 281.86688 308.831ZM284.6325 306.61224Q284.03876 306.61224 283.64813 307.12787Q283.2575 307.62787 283.2575 309.00287Q283.2575 310.22162 283.64813 310.73724Q284.03876 311.25287 284.61688 311.25287Q285.22626 311.25287 285.61688 310.73724Q286.0075 310.22162 286.0075 308.87787Q286.0075 307.62787 285.61688 307.12787Q285.22626 306.61224 284.6325 306.61224Z" fill-rule="nonzero"/><path fill="#ffffff" d="M179.26933 228.15701L177.69121 228.15701L177.69121 218.07889Q177.11308 218.62576 176.19121 219.17264Q175.26933 219.70389 174.51933 219.98514L174.51933 218.45389Q175.84746 217.82889 176.84746 216.93826Q177.84746 216.04764 178.25371 215.21951L179.26933 215.21951L179.26933 228.15701ZM185.75371 221.17264Q184.76933 220.81326 184.28496 220.14139Q183.81621 219.46951 183.81621 218.54764Q183.81621 217.14139 184.81621 216.18826Q185.83183 215.21951 187.51933 215.21951Q189.20683 215.21951 190.22246 216.20389Q191.25371 217.17264 191.25371 218.57889Q191.25371 219.48514 190.78496 220.15701Q190.31621 220.81326 189.36308 221.17264Q190.55058 221.56326 191.15996 222.42264Q191.78496 223.28201 191.78496 224.46951Q191.78496 226.12576 190.61308 227.25076Q189.44121 228.37576 187.53496 228.37576Q185.62871 228.37576 184.45683 227.25076Q183.30058 226.11014 183.30058 224.42264Q183.30058 223.17264 183.92558 222.32889Q184.56621 221.46951 185.75371 221.17264ZM185.42558 218.48514Q185.42558 219.40701 186.01933 219.98514Q186.61308 220.56326 187.55058 220.56326Q188.45683 220.56326 189.03496 219.98514Q189.62871 219.40701 189.62871 218.57889Q189.62871 217.70389 189.01933 217.11014Q188.42558 216.51639 187.53496 216.51639Q186.62871 216.51639 186.01933 217.09451Q185.42558 217.67264 185.42558 218.48514ZM184.92558 224.43826Q184.92558 225.11014 185.23808 225.75076Q185.56621 226.37576 186.19121 226.73514Q186.83183 227.07889 187.56621 227.07889Q188.69121 227.07889 189.42558 226.34451Q190.17558 225.61014 190.17558 224.48514Q190.17558 223.34451 189.40996 222.61014Q188.64433 221.86014 187.50371 221.86014Q186.39433 221.86014 185.65996 222.59451Q184.92558 223.32889 184.92558 224.43826ZM194.20683 228.15701L194.20683 226.36014L196.00371 226.36014L196.00371 228.15701L194.20683 228.15701ZM198.31621 224.78201L199.97246 224.64139Q200.15996 225.86014 200.83183 226.46951Q201.50371 227.07889 202.45683 227.07889Q203.59746 227.07889 204.37871 226.21951Q205.17558 225.36014 205.17558 223.92264Q205.17558 222.57889 204.40996 221.79764Q203.65996 221.01639 202.42558 221.01639Q201.65996 221.01639 201.03496 221.36014Q200.42558 221.70389 200.08183 222.26639L198.59746 222.06326L199.84746 215.45389L206.25371 215.45389L206.25371 216.95389L201.11308 216.95389L200.40996 220.42264Q201.58183 219.61014 202.84746 219.61014Q204.53496 219.61014 205.69121 220.78201Q206.86308 221.95389 206.86308 223.78201Q206.86308 225.53201 205.83183 226.81326Q204.59746 228.37576 202.45683 228.37576Q200.69121 228.37576 199.58183 227.39139Q198.47246 226.40701 198.31621 224.78201ZM208.61308 218.36014Q208.61308 216.98514 209.30058 216.01639Q210.00371 215.04764 211.31621 215.04764Q212.53496 215.04764 213.33183 215.92264Q214.12871 216.78201 214.12871 218.46951Q214.12871 220.09451 213.31621 220.98514Q212.51933 221.86014 211.33183 221.86014Q210.17558 221.86014 209.39433 221.00076Q208.61308 220.12576 208.61308 218.36014ZM211.36308 216.14139Q210.76933 216.14139 210.37871 216.65701Q209.98808 217.15701 209.98808 218.51639Q209.98808 219.76639 210.37871 220.26639Q210.78496 220.76639 211.36308 220.76639Q211.95683 220.76639 212.34746 220.26639Q212.73808 219.75076 212.73808 218.40701Q212.73808 217.15701 212.34746 216.65701Q211.95683 216.14139 211.36308 216.14139ZM211.37871 228.62576L218.42558 215.04764L219.70683 215.04764L212.67558 228.62576L211.37871 228.62576ZM216.94121 225.12576Q216.94121 223.75076 217.62871 222.78201Q218.33183 221.81326 219.65996 221.81326Q220.87871 221.81326 221.65996 222.68826Q222.45683 223.54764 222.45683 225.23514Q222.45683 226.86014 221.65996 227.75076Q220.86308 228.62576 219.67558 228.62576Q218.50371 228.62576 217.72246 227.75076Q216.94121 226.87576 216.94121 225.12576ZM219.70683 222.90701Q219.11308 222.90701 218.72246 223.42264Q218.33183 223.92264 218.33183 225.29764Q218.33183 226.51639 218.72246 227.03201Q219.11308 227.54764 219.69121 227.54764Q220.30058 227.54764 220.69121 227.03201Q221.08183 226.51639 221.08183 225.17264Q221.08183 223.92264 220.69121 223.42264Q220.30058 222.90701 219.70683 222.90701Z" fill-rule="nonzero"/><path fill="#ffffff" d="M224.02379 123.24638L222.44566 123.24638L222.44566 113.16826Q221.86754 113.71513 220.94566 114.26201Q220.02379 114.79326 219.27379 115.07451L219.27379 113.54326Q220.60191 112.91826 221.60191 112.02763Q222.60191 111.13701 223.00816 110.30888L224.02379 110.30888L224.02379 123.24638ZM230.50816 116.26201Q229.52379 115.90263 229.03941 115.23076Q228.57066 114.55888 228.57066 113.63701Q228.57066 112.23076 229.57066 111.27763Q230.58629 110.30888 232.27379 110.30888Q233.96129 110.30888 234.97691 111.29326Q236.00816 112.26201 236.00816 113.66826Q236.00816 114.57451 235.53941 115.24638Q235.07066 115.90263 234.11754 116.26201Q235.30504 116.65263 235.91441 117.51201Q236.53941 118.37138 236.53941 119.55888Q236.53941 121.21513 235.36754 122.34013Q234.19566 123.46513 232.28941 123.46513Q230.38316 123.46513 229.21129 122.34013Q228.05504 121.19951 228.05504 119.51201Q228.05504 118.26201 228.68004 117.41826Q229.32066 116.55888 230.50816 116.26201ZM230.18004 113.57451Q230.18004 114.49638 230.77379 115.07451Q231.36754 115.65263 232.30504 115.65263Q233.21129 115.65263 233.78941 115.07451Q234.38316 114.49638 234.38316 113.66826Q234.38316 112.79326 233.77379 112.19951Q233.18004 111.60576 232.28941 111.60576Q231.38316 111.60576 230.77379 112.18388Q230.18004 112.76201 230.18004 113.57451ZM229.68004 119.52763Q229.68004 120.19951 229.99254 120.84013Q230.32066 121.46513 230.94566 121.82451Q231.58629 122.16826 232.32066 122.16826Q233.44566 122.16826 234.18004 121.43388Q234.93004 120.69951 234.93004 119.57451Q234.93004 118.43388 234.16441 117.69951Q233.39879 116.94951 232.25816 116.94951Q231.14879 116.94951 230.41441 117.68388Q229.68004 118.41826 229.68004 119.52763ZM238.96129 123.24638L238.96129 121.44951L240.75816 121.44951L240.75816 123.24638L238.96129 123.24638ZM243.07066 119.87138L244.72691 119.73076Q244.91441 120.94951 245.58629 121.55888Q246.25816 122.16826 247.21129 122.16826Q248.35191 122.16826 249.13316 121.30888Q249.93004 120.44951 249.93004 119.01201Q249.93004 117.66826 249.16441 116.88701Q248.41441 116.10576 247.18004 116.10576Q246.41441 116.10576 245.78941 116.44951Q245.18004 116.79326 244.83629 117.35576L243.35191 117.15263L244.60191 110.54326L251.00816 110.54326L251.00816 112.04326L245.86754 112.04326L245.16441 115.51201Q246.33629 114.69951 247.60191 114.69951Q249.28941 114.69951 250.44566 115.87138Q251.61754 117.04326 251.61754 118.87138Q251.61754 120.62138 250.58629 121.90263Q249.35191 123.46513 247.21129 123.46513Q245.44566 123.46513 244.33629 122.48076Q243.22691 121.49638 243.07066 119.87138ZM253.36754 113.44951Q253.36754 112.07451 254.05504 111.10576Q254.75816 110.13701 256.07068 110.13701Q257.28943 110.13701 258.0863 111.01201Q258.88318 111.87138 258.88318 113.55888Q258.88318 115.18388 258.07068 116.07451Q257.2738 116.94951 256.0863 116.94951Q254.93004 116.94951 254.14879 116.09013Q253.36754 115.21513 253.36754 113.44951ZM256.11755 111.23076Q255.52379 111.23076 255.13316 111.74638Q254.74254 112.24638 254.74254 113.60576Q254.74254 114.85576 255.13316 115.35576Q255.53941 115.85576 256.11755 115.85576Q256.7113 115.85576 257.10193 115.35576Q257.49255 114.84013 257.49255 113.49638Q257.49255 112.24638 257.10193 111.74638Q256.7113 111.23076 256.11755 111.23076ZM256.13318 123.71513L263.18005 110.13701L264.4613 110.13701L257.43005 123.71513L256.13318 123.71513ZM261.69568 120.21513Q261.69568 118.84013 262.38318 117.87138Q263.0863 116.90263 264.41443 116.90263Q265.63318 116.90263 266.41443 117.77763Q267.2113 118.63701 267.2113 120.32451Q267.2113 121.94951 266.41443 122.84013Q265.61755 123.71513 264.43005 123.71513Q263.25818 123.71513 262.47693 122.84013Q261.69568 121.96513 261.69568 120.21513ZM264.4613 117.99638Q263.86755 117.99638 263.47693 118.51201Q263.0863 119.01201 263.0863 120.38701Q263.0863 121.60576 263.47693 122.12138Q263.86755 122.63701 264.44568 122.63701Q265.05505 122.63701 265.44568 122.12138Q265.8363 121.60576 265.8363 120.26201Q265.8363 119.01201 265.44568 118.51201Q265.05505 117.99638 264.4613 117.99638Z" fill-rule="nonzero"/><path stroke="#ffffff" stroke-width="1.0" stroke-linejoin="round" stroke-linecap="round" d="M308.577 167.49417C305.76663 166.82811 302.8882 166.49167 300.0 166.49167L300.0 54.916668C311.5529 54.916668 323.06647 56.26241 334.30795 58.926693" fill-rule="nonzero"/><path stroke="#ffffff" stroke-width="1.0" stroke-linejoin="round" stroke-linecap="round" d="M316.6916 170.44765C314.11057 169.15141 311.38736 168.16025 308.577 167.49417L334.30795 58.926693C345.54944 61.590973 356.44232 65.55566 366.76636 70.740585" fill-rule="nonzero"/><path stroke="#ffffff" stroke-width="1.0" stroke-linejoin="round" stroke-linecap="round" d="M304.3177 240.62352C320.63855 238.71588 333.77325 226.32393 336.62665 210.1416C339.48 193.95927 331.37573 177.8223 316.6916 170.44765L366.76636 70.740585C425.50293 100.2392 457.9201 164.78708 446.50656 229.51639C435.09305 294.24573 382.5542 343.81354 317.27075 351.4441" fill-rule="nonzero"/><path stroke="#ffffff" stroke-width="1.0" stroke-linejoin="round" stroke-linecap="round" d="M272.94775 229.20581C281.013 237.75447 292.64438 241.98795 304.3177 240.62352L317.27075 351.4441C270.57748 356.90176 224.05205 339.96786 191.79105 305.77322" fill-rule="nonzero"/><path stroke="#ffffff" stroke-width="1.0" stroke-linejoin="round" stroke-linecap="round" d="M265.85 188.95247C259.96985 202.58424 262.75986 218.40726 272.94775 229.20581L191.79105 305.77322C151.03944 262.57904 139.87935 199.28699 163.40005 144.75987" fill-rule="nonzero"/><path stroke="#ffffff" stroke-width="1.0" stroke-linejoin="round" stroke-linecap="round" d="M300.0 166.49167C285.15405 166.49167 271.7302 175.3207 265.85 188.95247L163.40005 144.75987C186.92076 90.23275 240.61624 54.916668 300.0 54.916668" fill-rule="nonzero"/><path fill="#efefef" d="M27.3 68.65211L28.815624 68.65211L28.815624 75.26148Q28.815624 76.99586 28.425 78.01148Q28.034374 79.02711 27.01875 79.66773Q26.003124 80.30836 24.346874 80.30836Q22.7375 80.30836 21.70625 79.74586Q20.690624 79.18336 20.253124 78.13648Q19.815624 77.08961 19.815624 75.26148L19.815624 68.65211L21.33125 68.65211L21.33125 75.26148Q21.33125 76.74586 21.596874 77.46461Q21.878124 78.16773 22.55 78.55836Q23.2375 78.93336 24.20625 78.93336Q25.878124 78.93336 26.58125 78.18336Q27.3 77.41773 27.3 75.26148L27.3 68.65211ZM31.596874 80.10523L31.596874 71.80836L32.8625 71.80836L32.8625 73.05836Q33.346874 72.18336 33.753124 71.90211Q34.159374 71.62086 34.659374 71.62086Q35.3625 71.62086 36.096874 72.07398L35.6125 73.37086Q35.096874 73.07398 34.58125 73.07398Q34.128124 73.07398 33.753124 73.35523Q33.39375 73.62086 33.2375 74.12086Q33.003124 74.87086 33.003124 75.76148L33.003124 80.10523L31.596874 80.10523ZM37.909374 80.10523L36.596874 80.10523L36.596874 68.65211L38.003124 68.65211L38.003124 72.73023Q38.89375 71.62086 40.284374 71.62086Q41.05 71.62086 41.721874 71.93336Q42.409374 72.23023 42.846874 72.79273Q43.3 73.35523 43.55 74.15211Q43.8 74.93336 43.8 75.82398Q43.8 77.96461 42.7375 79.13648Q41.690624 80.29273 40.20625 80.29273Q38.7375 80.29273 37.909374 79.05836L37.909374 80.10523ZM37.89375 75.88648Q37.89375 77.38648 38.3 78.04273Q38.95625 79.13648 40.096874 79.13648Q41.01875 79.13648 41.690624 78.33961Q42.3625 77.52711 42.3625 75.94898Q42.3625 74.32398 41.70625 73.55836Q41.065624 72.77711 40.159374 72.77711Q39.2375 72.77711 38.565624 73.57398Q37.89375 74.37086 37.89375 75.88648ZM51.01875 79.07398Q50.2375 79.74586 49.51875 80.02711Q48.8 80.29273 47.971874 80.29273Q46.596874 80.29273 45.8625 79.62086Q45.128124 78.94898 45.128124 77.91773Q45.128124 77.30836 45.409374 76.80836Q45.690624 76.29273 46.128124 75.99586Q46.58125 75.68336 47.14375 75.52711Q47.565624 75.41773 48.39375 75.32398Q50.096874 75.12086 50.909374 74.83961Q50.909374 74.54273 50.909374 74.46461Q50.909374 73.60523 50.51875 73.26148Q49.971874 72.77711 48.909374 72.77711Q47.925 72.77711 47.440624 73.13648Q46.971874 73.48023 46.753124 74.35523L45.378124 74.16773Q45.565624 73.29273 45.9875 72.74586Q46.425 72.19898 47.2375 71.91773Q48.05 71.62086 49.1125 71.62086Q50.175 71.62086 50.83125 71.87086Q51.503124 72.12086 51.815624 72.49586Q52.128124 72.87086 52.253124 73.44898Q52.33125 73.80836 52.33125 74.74586L52.33125 76.62086Q52.33125 78.58961 52.409374 79.10523Q52.503124 79.62086 52.76875 80.10523L51.3 80.10523Q51.08125 79.66773 51.01875 79.07398ZM50.909374 75.93336Q50.14375 76.24586 48.6125 76.46461Q47.7375 76.58961 47.378124 76.74586Q47.01875 76.90211 46.815624 77.21461Q46.628124 77.51148 46.628124 77.87086Q46.628124 78.43336 47.05 78.80836Q47.4875 79.18336 48.3 79.18336Q49.1125 79.18336 49.7375 78.83961Q50.378124 78.48023 50.675 77.85523Q50.909374 77.38648 50.909374 76.44898L50.909374 75.93336ZM54.6125 80.10523L54.6125 71.80836L55.878124 71.80836L55.878124 72.98023Q56.784374 71.62086 58.51875 71.62086Q59.26875 71.62086 59.89375 71.88648Q60.51875 72.15211 60.83125 72.58961Q61.14375 73.02711 61.26875 73.63648Q61.346874 74.02711 61.346874 74.99586L61.346874 80.10523L59.940624 80.10523L59.940624 75.05836Q59.940624 74.19898 59.76875 73.77711Q59.6125 73.33961 59.190624 73.08961Q58.784374 72.83961 58.221874 72.83961Q57.315624 72.83961 56.659374 73.41773Q56.01875 73.98023 56.01875 75.57398L56.01875 80.10523L54.6125 80.10523ZM63.05 77.62086L64.44063 77.40211Q64.55 78.24586 65.08125 78.69898Q65.62813 79.13648 66.58125 79.13648Q67.55 79.13648 68.01875 78.74586Q68.4875 78.33961 68.4875 77.80836Q68.4875 77.33961 68.08125 77.05836Q67.78438 76.87086 66.64375 76.58961Q65.09688 76.19898 64.4875 75.91773Q63.89375 75.62086 63.58125 75.12086Q63.284374 74.62086 63.284374 74.01148Q63.284374 73.44898 63.534374 72.98023Q63.784374 72.51148 64.22188 72.19898Q64.55 71.94898 65.1125 71.79273Q65.69063 71.62086 66.33125 71.62086Q67.31563 71.62086 68.05 71.90211Q68.78438 72.18336 69.12813 72.66773Q69.4875 73.13648 69.62813 73.94898L68.25313 74.13648Q68.15938 73.49586 67.70625 73.13648Q67.25313 72.77711 66.44063 72.77711Q65.47188 72.77711 65.05 73.10523Q64.64375 73.41773 64.64375 73.83961Q64.64375 74.12086 64.81563 74.33961Q64.9875 74.55836 65.34688 74.71461Q65.56563 74.79273 66.59688 75.07398Q68.08125 75.46461 68.675 75.73023Q69.26875 75.98023 69.59688 76.46461Q69.94063 76.94898 69.94063 77.66773Q69.94063 78.37086 69.51875 78.99586Q69.1125 79.60523 68.33125 79.94898Q67.56563 80.29273 66.59688 80.29273Q64.97188 80.29273 64.12813 79.62086Q63.284374 78.94898 63.05 77.62086ZM77.01875 77.05836L78.40938 77.24586Q78.175 78.66773 77.2375 79.48023Q76.31563 80.29273 74.95625 80.29273Q73.25313 80.29273 72.20625 79.18336Q71.175 78.05836 71.175 75.98023Q71.175 74.63648 71.6125 73.63648Q72.06563 72.62086 72.97188 72.12086Q73.89375 71.62086 74.95625 71.62086Q76.31563 71.62086 77.175 72.30836Q78.03438 72.98023 78.26875 74.24586L76.90938 74.44898Q76.70625 73.62086 76.20625 73.19898Q75.72188 72.77711 75.01875 72.77711Q73.95625 72.77711 73.28438 73.54273Q72.62813 74.29273 72.62813 75.94898Q72.62813 77.62086 73.26875 78.38648Q73.90938 79.13648 74.94063 79.13648Q75.76875 79.13648 76.31563 78.63648Q76.87813 78.12086 77.01875 77.05836ZM85.01875 79.07398Q84.2375 79.74586 83.51875 80.02711Q82.8 80.29273 81.97188 80.29273Q80.59688 80.29273 79.8625 79.62086Q79.12813 78.94898 79.12813 77.91773Q79.12813 77.30836 79.40938 76.80836Q79.69063 76.29273 80.12813 75.99586Q80.58125 75.68336 81.14375 75.52711Q81.56563 75.41773 82.39375 75.32398Q84.09688 75.12086 84.90938 74.83961Q84.90938 74.54273 84.90938 74.46461Q84.90938 73.60523 84.51875 73.26148Q83.97188 72.77711 82.90938 72.77711Q81.925 72.77711 81.44063 73.13648Q80.97188 73.48023 80.75313 74.35523L79.37813 74.16773Q79.56563 73.29273 79.9875 72.74586Q80.425 72.19898 81.2375 71.91773Q82.05 71.62086 83.1125 71.62086Q84.175 71.62086 84.83125 71.87086Q85.50313 72.12086 85.81563 72.49586Q86.12813 72.87086 86.25313 73.44898Q86.33125 73.80836 86.33125 74.74586L86.33125 76.62086Q86.33125 78.58961 86.40938 79.10523Q86.50313 79.62086 86.76875 80.10523L85.3 80.10523Q85.08125 79.66773 85.01875 79.07398ZM84.90938 75.93336Q84.14375 76.24586 82.6125 76.46461Q81.7375 76.58961 81.37813 76.74586Q81.01875 76.90211 80.81563 77.21461Q80.62813 77.51148 80.62813 77.87086Q80.62813 78.43336 81.05 78.80836Q81.4875 79.18336 82.3 79.18336Q83.1125 79.18336 83.7375 78.83961Q84.37813 78.48023 84.675 77.85523Q84.90938 77.38648 84.90938 76.44898L84.90938 75.93336ZM88.6125 83.29273L88.6125 71.80836L89.89375 71.80836L89.89375 72.88648Q90.34688 72.24586 90.90938 71.93336Q91.4875 71.62086 92.3 71.62086Q93.3625 71.62086 94.175 72.16773Q94.9875 72.71461 95.39375 73.71461Q95.81563 74.69898 95.81563 75.88648Q95.81563 77.16773 95.34688 78.18336Q94.89375 79.19898 94.01875 79.74586Q93.15938 80.29273 92.19063 80.29273Q91.4875 80.29273 90.925 79.99586Q90.37813 79.69898 90.01875 79.24586L90.01875 83.29273L88.6125 83.29273ZM89.87813 75.99586Q89.87813 77.60523 90.51875 78.37086Q91.175 79.13648 92.09688 79.13648Q93.03438 79.13648 93.70625 78.33961Q94.37813 77.54273 94.37813 75.88648Q94.37813 74.29273 93.72188 73.51148Q93.06563 72.71461 92.15938 72.71461Q91.26875 72.71461 90.56563 73.55836Q89.87813 74.40211 89.87813 75.99586ZM103.28438 77.43336L104.7375 77.60523Q104.39375 78.88648 103.45625 79.58961Q102.53438 80.29273 101.09688 80.29273Q99.26875 80.29273 98.20625 79.16773Q97.14375 78.04273 97.14375 76.02711Q97.14375 73.93336 98.22188 72.77711Q99.3 71.62086 101.01875 71.62086Q102.675 71.62086 103.72188 72.76148Q104.78438 73.88648 104.78438 75.93336Q104.78438 76.05836 104.78438 76.30836L98.59688 76.30836Q98.675 77.68336 99.3625 78.41773Q100.06563 79.13648 101.09688 79.13648Q101.87813 79.13648 102.425 78.73023Q102.97188 78.32398 103.28438 77.43336ZM98.675 75.15211L103.3 75.15211Q103.20625 74.10523 102.76875 73.58961Q102.09688 72.77711 101.03438 72.77711Q100.06563 72.77711 99.39375 73.43336Q98.7375 74.07398 98.675 75.15211Z" fill-rule="nonzero"/><path fill="#9e9e9e" d="M24.51875 102.10523L23.1125 102.10523L23.1125 93.13648Q22.596874 93.62086 21.76875 94.10523Q20.95625 94.58961 20.3 94.83961L20.3 93.48023Q21.471874 92.91773 22.346874 92.13648Q23.2375 91.33961 23.6125 90.60523L24.51875 90.60523L24.51875 102.10523ZM30.378124 95.88648Q29.503124 95.57398 29.08125 94.98023Q28.659374 94.38648 28.659374 93.55836Q28.659374 92.30836 29.55 91.46461Q30.45625 90.60523 31.95625 90.60523Q33.45625 90.60523 34.3625 91.48023Q35.284374 92.33961 35.284374 93.58961Q35.284374 94.38648 34.8625 94.98023Q34.440624 95.57398 33.596874 95.88648Q34.64375 96.23023 35.190624 96.99586Q35.753124 97.76148 35.753124 98.82398Q35.753124 100.29273 34.70625 101.30836Q33.675 102.30836 31.971874 102.30836Q30.284374 102.30836 29.2375 101.30836Q28.20625 100.29273 28.20625 98.79273Q28.20625 97.66773 28.76875 96.91773Q29.33125 96.16773 30.378124 95.88648ZM30.096874 93.51148Q30.096874 94.32398 30.6125 94.83961Q31.14375 95.35523 31.9875 95.35523Q32.8 95.35523 33.315624 94.83961Q33.83125 94.32398 33.83125 93.58961Q33.83125 92.80836 33.3 92.29273Q32.76875 91.76148 31.971874 91.76148Q31.159374 91.76148 30.628124 92.27711Q30.096874 92.79273 30.096874 93.51148ZM29.64375 98.79273Q29.64375 99.40211 29.925 99.96461Q30.221874 100.52711 30.784374 100.83961Q31.346874 101.13648 31.9875 101.13648Q33.003124 101.13648 33.659374 100.49586Q34.315624 99.83961 34.315624 98.83961Q34.315624 97.82398 33.628124 97.16773Q32.95625 96.49586 31.940624 96.49586Q30.95625 96.49586 30.3 97.15211Q29.64375 97.80836 29.64375 98.79273ZM38.003124 102.10523L38.003124 100.49586L39.6125 100.49586L39.6125 102.10523L38.003124 102.10523ZM41.221874 99.10523L42.690624 98.98023Q42.8625 100.05836 43.45625 100.60523Q44.05 101.13648 44.89375 101.13648Q45.909374 101.13648 46.6125 100.37086Q47.315624 99.60523 47.315624 98.33961Q47.315624 97.13648 46.64375 96.44898Q45.971874 95.74586 44.878124 95.74586Q44.190624 95.74586 43.64375 96.05836Q43.096874 96.37086 42.784374 96.85523L41.471874 96.68336L42.58125 90.80836L48.26875 90.80836L48.26875 92.15211L43.70625 92.15211L43.08125 95.23023Q44.1125 94.51148 45.253124 94.51148Q46.753124 94.51148 47.784374 95.55836Q48.815624 96.58961 48.815624 98.21461Q48.815624 99.77711 47.909374 100.90211Q46.8 102.30836 44.89375 102.30836Q43.33125 102.30836 42.346874 101.43336Q41.3625 100.54273 41.221874 99.10523ZM50.4875 93.40211Q50.4875 92.16773 51.096874 91.30836Q51.721874 90.44898 52.89375 90.44898Q53.971874 90.44898 54.675 91.23023Q55.378124 91.99586 55.378124 93.48023Q55.378124 94.93336 54.659374 95.73023Q53.95625 96.51148 52.909374 96.51148Q51.8625 96.51148 51.175 95.74586Q50.4875 94.96461 50.4875 93.40211ZM52.925 91.41773Q52.409374 91.41773 52.05 91.87086Q51.70625 92.32398 51.70625 93.54273Q51.70625 94.63648 52.05 95.08961Q52.409374 95.54273 52.925 95.54273Q53.45625 95.54273 53.8 95.08961Q54.159374 94.63648 54.159374 93.43336Q54.159374 92.32398 53.8 91.87086Q53.45625 91.41773 52.925 91.41773ZM52.940624 102.52711L59.20625 90.44898L60.346874 90.44898L54.096874 102.52711L52.940624 102.52711ZM57.89375 99.41773Q57.89375 98.18336 58.503124 97.32398Q59.128124 96.46461 60.3 96.46461Q61.378124 96.46461 62.08125 97.24586Q62.8 98.01148 62.8 99.49586Q62.8 100.94898 62.08125 101.74586Q61.3625 102.52711 60.315624 102.52711Q59.26875 102.52711 58.58125 101.74586Q57.89375 100.96461 57.89375 99.41773ZM60.346874 97.43336Q59.815624 97.43336 59.45625 97.88648Q59.1125 98.33961 59.1125 99.55836Q59.1125 100.65211 59.45625 101.10523Q59.815624 101.55836 60.33125 101.55836Q60.878124 101.55836 61.221874 101.10523Q61.565624 100.65211 61.565624 99.44898Q61.565624 98.33961 61.20625 97.88648Q60.8625 97.43336 60.346874 97.43336Z" fill-rule="nonzero"/><path stroke="#757575" stroke-width="1.0" stroke-linecap="butt" d="M18.55 85.60523L145.23334 85.60523L222.3388 85.60523" fill-rule="nonzero"/><path fill="#9e9e9e" d="M224.3388 85.60523C224.3388 84.50066 223.44337 83.60523 222.3388 83.60523C221.23424 83.60523 220.3388 84.50066 220.3388 85.60523C220.3388 86.7098 221.23424 87.60523 222.3388 87.60523C223.44337 87.60523 224.3388 86.7098 224.3388 85.60523" fill-rule="nonzero"/><path fill="#efefef" d="M19.76875 222.72475L19.76875 211.27162L21.33125 211.27162L27.346874 220.256L27.346874 211.27162L28.8 211.27162L28.8 222.72475L27.2375 222.72475L21.221874 213.72475L21.221874 222.72475L19.76875 222.72475ZM37.01875 221.6935Q36.2375 222.36537 35.51875 222.64662Q34.8 222.91225 33.971874 222.91225Q32.596874 222.91225 31.8625 222.24037Q31.128124 221.5685 31.128124 220.53725Q31.128124 219.92787 31.409374 219.42787Q31.690624 218.91225 32.128124 218.61537Q32.58125 218.30287 33.14375 218.14662Q33.565624 218.03725 34.39375 217.9435Q36.096874 217.74037 36.909374 217.45912Q36.909374 217.16225 36.909374 217.08412Q36.909374 216.22475 36.51875 215.881Q35.971874 215.39662 34.909374 215.39662Q33.925 215.39662 33.440624 215.756Q32.971874 216.09975 32.753124 216.97475L31.378124 216.78725Q31.565624 215.91225 31.9875 215.36537Q32.425 214.8185 33.2375 214.53725Q34.05 214.24037 35.1125 214.24037Q36.175 214.24037 36.83125 214.49037Q37.503124 214.74037 37.815624 215.11537Q38.128124 215.49037 38.253124 216.0685Q38.33125 216.42787 38.33125 217.36537L38.33125 219.24037Q38.33125 221.20912 38.409374 221.72475Q38.503124 222.24037 38.76875 222.72475L37.3 222.72475Q37.08125 222.28725 37.01875 221.6935ZM36.909374 218.55287Q36.14375 218.86537 34.6125 219.08412Q33.7375 219.20912 33.378124 219.36537Q33.01875 219.52162 32.815624 219.83412Q32.628124 220.131 32.628124 220.49037Q32.628124 221.05287 33.05 221.42787Q33.4875 221.80287 34.3 221.80287Q35.1125 221.80287 35.7375 221.45912Q36.378124 221.09975 36.675 220.47475Q36.909374 220.006 36.909374 219.0685L36.909374 218.55287ZM43.675 221.45912L43.878124 222.70912Q43.284374 222.83412 42.815624 222.83412Q42.05 222.83412 41.628124 222.59975Q41.20625 222.34975 41.034374 221.95912Q40.8625 221.55287 40.8625 220.28725L40.8625 215.52162L39.83125 215.52162L39.83125 214.42787L40.8625 214.42787L40.8625 212.36537L42.26875 211.52162L42.26875 214.42787L43.675 214.42787L43.675 215.52162L42.26875 215.52162L42.26875 220.36537Q42.26875 220.97475 42.33125 221.14662Q42.409374 221.3185 42.58125 221.42787Q42.753124 221.52162 43.065624 221.52162Q43.3 221.52162 43.675 221.45912ZM50.05 222.72475L50.05 221.506Q49.08125 222.91225 47.409374 222.91225Q46.675 222.91225 46.034374 222.631Q45.409374 222.34975 45.096874 221.92787Q44.784374 221.49037 44.659374 220.881Q44.58125 220.45912 44.58125 219.5685L44.58125 214.42787L45.9875 214.42787L45.9875 219.02162Q45.9875 220.131 46.065624 220.506Q46.20625 221.0685 46.628124 221.381Q47.065624 221.6935 47.690624 221.6935Q48.33125 221.6935 48.878124 221.381Q49.440624 221.05287 49.659374 220.49037Q49.89375 219.92787 49.89375 218.86537L49.89375 214.42787L51.3 214.42787L51.3 222.72475L50.05 222.72475ZM53.596874 222.72475L53.596874 214.42787L54.8625 214.42787L54.8625 215.67787Q55.346874 214.80287 55.753124 214.52162Q56.159374 214.24037 56.659374 214.24037Q57.3625 214.24037 58.096874 214.6935L57.6125 215.99037Q57.096874 215.6935 56.58125 215.6935Q56.128124 215.6935 55.753124 215.97475Q55.39375 216.24037 55.2375 216.74037Q55.003124 217.49037 55.003124 218.381L55.003124 222.72475L53.596874 222.72475ZM64.28438 220.05287L65.7375 220.22475Q65.39375 221.506 64.45625 222.20912Q63.534374 222.91225 62.096874 222.91225Q60.26875 222.91225 59.20625 221.78725Q58.14375 220.66225 58.14375 218.64662Q58.14375 216.55287 59.221874 215.39662Q60.3 214.24037 62.01875 214.24037Q63.675 214.24037 64.72188 215.381Q65.78438 216.506 65.78438 218.55287Q65.78438 218.67787 65.78438 218.92787L59.596874 218.92787Q59.675 220.30287 60.3625 221.03725Q61.065624 221.756 62.096874 221.756Q62.878124 221.756 63.425 221.34975Q63.971874 220.9435 64.28438 220.05287ZM59.675 217.77162L64.3 217.77162Q64.20625 216.72475 63.76875 216.20912Q63.096874 215.39662 62.034374 215.39662Q61.065624 215.39662 60.39375 216.05287Q59.7375 216.6935 59.675 217.77162ZM67.05 220.24037L68.44063 220.02162Q68.55 220.86537 69.08125 221.3185Q69.62813 221.756 70.58125 221.756Q71.55 221.756 72.01875 221.36537Q72.4875 220.95912 72.4875 220.42787Q72.4875 219.95912 72.08125 219.67787Q71.78438 219.49037 70.64375 219.20912Q69.09688 218.8185 68.4875 218.53725Q67.89375 218.24037 67.58125 217.74037Q67.28438 217.24037 67.28438 216.631Q67.28438 216.0685 67.53438 215.59975Q67.78438 215.131 68.22188 214.8185Q68.55 214.5685 69.1125 214.41225Q69.69063 214.24037 70.33125 214.24037Q71.31563 214.24037 72.05 214.52162Q72.78438 214.80287 73.12813 215.28725Q73.4875 215.756 73.62813 216.5685L72.25313 216.756Q72.15938 216.11537 71.70625 215.756Q71.25313 215.39662 70.44063 215.39662Q69.47188 215.39662 69.05 215.72475Q68.64375 216.03725 68.64375 216.45912Q68.64375 216.74037 68.81563 216.95912Q68.9875 217.17787 69.34688 217.33412Q69.56563 217.41225 70.59688 217.6935Q72.08125 218.08412 72.675 218.34975Q73.26875 218.59975 73.59688 219.08412Q73.94063 219.5685 73.94063 220.28725Q73.94063 220.99037 73.51875 221.61537Q73.1125 222.22475 72.33125 222.5685Q71.56563 222.91225 70.59688 222.91225Q68.97188 222.91225 68.12813 222.24037Q67.28438 221.5685 67.05 220.24037ZM81.01875 219.67787L82.40938 219.86537Q82.175 221.28725 81.2375 222.09975Q80.31563 222.91225 78.95625 222.91225Q77.25313 222.91225 76.20625 221.80287Q75.175 220.67787 75.175 218.59975Q75.175 217.256 75.6125 216.256Q76.06563 215.24037 76.97188 214.74037Q77.89375 214.24037 78.95625 214.24037Q80.31563 214.24037 81.175 214.92787Q82.03438 215.59975 82.26875 216.86537L80.90938 217.0685Q80.70625 216.24037 80.20625 215.8185Q79.72188 215.39662 79.01875 215.39662Q77.95625 215.39662 77.28438 216.16225Q76.62813 216.91225 76.62813 218.5685Q76.62813 220.24037 77.26875 221.006Q77.90938 221.756 78.94063 221.756Q79.76875 221.756 80.31563 221.256Q80.87813 220.74037 81.01875 219.67787ZM89.01875 221.6935Q88.2375 222.36537 87.51875 222.64662Q86.8 222.91225 85.97188 222.91225Q84.59688 222.91225 83.8625 222.24037Q83.12813 221.5685 83.12813 220.53725Q83.12813 219.92787 83.40938 219.42787Q83.69063 218.91225 84.12813 218.61537Q84.58125 218.30287 85.14375 218.14662Q85.56563 218.03725 86.39375 217.9435Q88.09688 217.74037 88.90938 217.45912Q88.90938 217.16225 88.90938 217.08412Q88.90938 216.22475 88.51875 215.881Q87.97188 215.39662 86.90938 215.39662Q85.925 215.39662 85.44063 215.756Q84.97188 216.09975 84.75313 216.97475L83.37813 216.78725Q83.56563 215.91225 83.9875 215.36537Q84.425 214.8185 85.2375 214.53725Q86.05 214.24037 87.1125 214.24037Q88.175 214.24037 88.83125 214.49037Q89.50313 214.74037 89.81563 215.11537Q90.12813 215.49037 90.25313 216.0685Q90.33125 216.42787 90.33125 217.36537L90.33125 219.24037Q90.33125 221.20912 90.40938 221.72475Q90.50313 222.24037 90.76875 222.72475L89.3 222.72475Q89.08125 222.28725 89.01875 221.6935ZM88.90938 218.55287Q88.14375 218.86537 86.6125 219.08412Q85.7375 219.20912 85.37813 219.36537Q85.01875 219.52162 84.81563 219.83412Q84.62813 220.131 84.62813 220.49037Q84.62813 221.05287 85.05 221.42787Q85.4875 221.80287 86.3 221.80287Q87.1125 221.80287 87.7375 221.45912Q88.37813 221.09975 88.675 220.47475Q88.90938 220.006 88.90938 219.0685L88.90938 218.55287ZM92.6125 225.91225L92.6125 214.42787L93.89375 214.42787L93.89375 215.506Q94.34688 214.86537 94.90938 214.55287Q95.4875 214.24037 96.3 214.24037Q97.3625 214.24037 98.175 214.78725Q98.9875 215.33412 99.39375 216.33412Q99.81563 217.3185 99.81563 218.506Q99.81563 219.78725 99.34688 220.80287Q98.89375 221.8185 98.01875 222.36537Q97.15938 222.91225 96.19063 222.91225Q95.4875 222.91225 94.925 222.61537Q94.37813 222.3185 94.01875 221.86537L94.01875 225.91225L92.6125 225.91225ZM93.87813 218.61537Q93.87813 220.22475 94.51875 220.99037Q95.175 221.756 96.09688 221.756Q97.03438 221.756 97.70625 220.95912Q98.37813 220.16225 98.37813 218.506Q98.37813 216.91225 97.72188 216.131Q97.06563 215.33412 96.15938 215.33412Q95.26875 215.33412 94.56563 216.17787Q93.87813 217.02162 93.87813 218.61537ZM107.28438 220.05287L108.7375 220.22475Q108.39375 221.506 107.45625 222.20912Q106.53438 222.91225 105.09688 222.91225Q103.26875 222.91225 102.20625 221.78725Q101.14375 220.66225 101.14375 218.64662Q101.14375 216.55287 102.22188 215.39662Q103.3 214.24037 105.01875 214.24037Q106.675 214.24037 107.72188 215.381Q108.78438 216.506 108.78438 218.55287Q108.78438 218.67787 108.78438 218.92787L102.59688 218.92787Q102.675 220.30287 103.3625 221.03725Q104.06563 221.756 105.09688 221.756Q105.87813 221.756 106.425 221.34975Q106.97188 220.9435 107.28438 220.05287ZM102.675 217.77162L107.3 217.77162Q107.20625 216.72475 106.76875 216.20912Q106.09688 215.39662 105.03438 215.39662Q104.06563 215.39662 103.39375 216.05287Q102.7375 216.6935 102.675 217.77162Z" fill-rule="nonzero"/><path fill="#9e9e9e" d="M24.51875 244.72475L23.1125 244.72475L23.1125 235.756Q22.596874 236.24037 21.76875 236.72475Q20.95625 237.20912 20.3 237.45912L20.3 236.09975Q21.471874 235.53725 22.346874 234.756Q23.2375 233.95912 23.6125 233.22475L24.51875 233.22475L24.51875 244.72475ZM30.378124 238.506Q29.503124 238.1935 29.08125 237.59975Q28.659374 237.006 28.659374 236.17787Q28.659374 234.92787 29.55 234.08412Q30.45625 233.22475 31.95625 233.22475Q33.45625 233.22475 34.3625 234.09975Q35.284374 234.95912 35.284374 236.20912Q35.284374 237.006 34.8625 237.59975Q34.440624 238.1935 33.596874 238.506Q34.64375 238.84975 35.190624 239.61537Q35.753124 240.381 35.753124 241.4435Q35.753124 242.91225 34.70625 243.92787Q33.675 244.92787 31.971874 244.92787Q30.284374 244.92787 29.2375 243.92787Q28.20625 242.91225 28.20625 241.41225Q28.20625 240.28725 28.76875 239.53725Q29.33125 238.78725 30.378124 238.506ZM30.096874 236.131Q30.096874 236.9435 30.6125 237.45912Q31.14375 237.97475 31.9875 237.97475Q32.8 237.97475 33.315624 237.45912Q33.83125 236.9435 33.83125 236.20912Q33.83125 235.42787 33.3 234.91225Q32.76875 234.381 31.971874 234.381Q31.159374 234.381 30.628124 234.89662Q30.096874 235.41225 30.096874 236.131ZM29.64375 241.41225Q29.64375 242.02162 29.925 242.58412Q30.221874 243.14662 30.784374 243.45912Q31.346874 243.756 31.9875 243.756Q33.003124 243.756 33.659374 243.11537Q34.315624 242.45912 34.315624 241.45912Q34.315624 240.4435 33.628124 239.78725Q32.95625 239.11537 31.940624 239.11537Q30.95625 239.11537 30.3 239.77162Q29.64375 240.42787 29.64375 241.41225ZM38.003124 244.72475L38.003124 243.11537L39.6125 243.11537L39.6125 244.72475L38.003124 244.72475ZM41.221874 241.72475L42.690624 241.59975Q42.8625 242.67787 43.45625 243.22475Q44.05 243.756 44.89375 243.756Q45.909374 243.756 46.6125 242.99037Q47.315624 242.22475 47.315624 240.95912Q47.315624 239.756 46.64375 239.0685Q45.971874 238.36537 44.878124 238.36537Q44.190624 238.36537 43.64375 238.67787Q43.096874 238.99037 42.784374 239.47475L41.471874 239.30287L42.58125 233.42787L48.26875 233.42787L48.26875 234.77162L43.70625 234.77162L43.08125 237.84975Q44.1125 237.131 45.253124 237.131Q46.753124 237.131 47.784374 238.17787Q48.815624 239.20912 48.815624 240.83412Q48.815624 242.39662 47.909374 243.52162Q46.8 244.92787 44.89375 244.92787Q43.33125 244.92787 42.346874 244.05287Q41.3625 243.16225 41.221874 241.72475ZM50.4875 236.02162Q50.4875 234.78725 51.096874 233.92787Q51.721874 233.0685 52.89375 233.0685Q53.971874 233.0685 54.675 233.84975Q55.378124 234.61537 55.378124 236.09975Q55.378124 237.55287 54.659374 238.34975Q53.95625 239.131 52.909374 239.131Q51.8625 239.131 51.175 238.36537Q50.4875 237.58412 50.4875 236.02162ZM52.925 234.03725Q52.409374 234.03725 52.05 234.49037Q51.70625 234.9435 51.70625 236.16225Q51.70625 237.256 52.05 237.70912Q52.409374 238.16225 52.925 238.16225Q53.45625 238.16225 53.8 237.70912Q54.159374 237.256 54.159374 236.05287Q54.159374 234.9435 53.8 234.49037Q53.45625 234.03725 52.925 234.03725ZM52.940624 245.14662L59.20625 233.0685L60.346874 233.0685L54.096874 245.14662L52.940624 245.14662ZM57.89375 242.03725Q57.89375 240.80287 58.503124 239.9435Q59.128124 239.08412 60.3 239.08412Q61.378124 239.08412 62.08125 239.86537Q62.8 240.631 62.8 242.11537Q62.8 243.5685 62.08125 244.36537Q61.3625 245.14662 60.315624 245.14662Q59.26875 245.14662 58.58125 244.36537Q57.89375 243.58412 57.89375 242.03725ZM60.346874 240.05287Q59.815624 240.05287 59.45625 240.506Q59.1125 240.95912 59.1125 242.17787Q59.1125 243.27162 59.45625 243.72475Q59.815624 244.17787 60.33125 244.17787Q60.878124 244.17787 61.221874 243.72475Q61.565624 243.27162 61.565624 242.0685Q61.565624 240.95912 61.20625 240.506Q60.8625 240.05287 60.346874 240.05287Z" fill-rule="nonzero"/><path stroke="#757575" stroke-width="1.0" stroke-linecap="butt" d="M18.55 228.22475L145.23334 228.22475L160.81876 228.22475" fill-rule="nonzero"/><path fill="#9e9e9e" d="M162.81876 228.22475C162.81876 227.12018 161.92332 226.22475 160.81876 226.22475C159.71419 226.22475 158.81876 227.12018 158.81876 228.22475C158.81876 229.32932 159.71419 230.22475 160.81876 230.22475C161.92332 230.22475 162.81876 229.32932 162.81876 228.22475" fill-rule="nonzero"/><path fill="#efefef" d="M18.51875 326.45L22.925 314.9969L24.565624 314.9969L29.253124 326.45L27.51875 326.45L26.190624 322.98126L21.39375 322.98126L20.14375 326.45L18.51875 326.45ZM21.83125 321.7469L25.721874 321.7469L24.51875 318.575Q23.971874 317.1219 23.70625 316.2Q23.4875 317.29376 23.096874 318.3875L21.83125 321.7469ZM30.6125 326.45L30.6125 318.15314L31.878124 318.15314L31.878124 319.325Q32.784374 317.96564 34.51875 317.96564Q35.26875 317.96564 35.89375 318.23126Q36.51875 318.4969 36.83125 318.9344Q37.14375 319.3719 37.26875 319.98126Q37.346874 320.3719 37.346874 321.34064L37.346874 326.45L35.940624 326.45L35.940624 321.40314Q35.940624 320.54376 35.76875 320.1219Q35.6125 319.6844 35.190624 319.4344Q34.784374 319.1844 34.221874 319.1844Q33.315624 319.1844 32.659374 319.7625Q32.01875 320.325 32.01875 321.91876L32.01875 326.45L30.6125 326.45ZM39.6125 316.60626L39.6125 314.9969L41.01875 314.9969L41.01875 316.60626L39.6125 316.60626ZM39.6125 326.45L39.6125 318.15314L41.01875 318.15314L41.01875 326.45L39.6125 326.45ZM43.6125 326.45L43.6125 318.15314L44.8625 318.15314L44.8625 319.3094Q45.253124 318.7 45.89375 318.34064Q46.55 317.96564 47.378124 317.96564Q48.3 317.96564 48.89375 318.35626Q49.4875 318.73126 49.721874 319.41876Q50.70625 317.96564 52.284374 317.96564Q53.51875 317.96564 54.175 318.65314Q54.846874 319.325 54.846874 320.7469L54.846874 326.45L53.45625 326.45L53.45625 321.21564Q53.45625 320.3719 53.315624 320.0125Q53.175 319.6375 52.815624 319.41876Q52.45625 319.1844 51.971874 319.1844Q51.096874 319.1844 50.51875 319.7625Q49.940624 320.34064 49.940624 321.6219L49.940624 326.45L48.534374 326.45L48.534374 321.0594Q48.534374 320.1219 48.190624 319.65314Q47.846874 319.1844 47.065624 319.1844Q46.471874 319.1844 45.971874 319.4969Q45.471874 319.8094 45.2375 320.41876Q45.01875 321.0125 45.01875 322.1375L45.01875 326.45L43.6125 326.45ZM62.01875 325.41876Q61.2375 326.09064 60.51875 326.3719Q59.8 326.6375 58.971874 326.6375Q57.596874 326.6375 56.8625 325.96564Q56.128124 325.29376 56.128124 324.2625Q56.128124 323.65314 56.409374 323.15314Q56.690624 322.6375 57.128124 322.34064Q57.58125 322.02814 58.14375 321.8719Q58.565624 321.7625 59.39375 321.66876Q61.096874 321.46564 61.909374 321.1844Q61.909374 320.8875 61.909374 320.8094Q61.909374 319.95 61.51875 319.60626Q60.971874 319.1219 59.909374 319.1219Q58.925 319.1219 58.440624 319.48126Q57.971874 319.825 57.753124 320.7L56.378124 320.5125Q56.565624 319.6375 56.9875 319.09064Q57.425 318.54376 58.2375 318.2625Q59.05 317.96564 60.1125 317.96564Q61.175 317.96564 61.83125 318.21564Q62.503124 318.46564 62.815624 318.84064Q63.128124 319.21564 63.253124 319.79376Q63.33125 320.15314 63.33125 321.09064L63.33125 322.96564Q63.33125 324.9344 63.409374 325.45Q63.503124 325.96564 63.76875 326.45L62.3 326.45Q62.08125 326.0125 62.01875 325.41876ZM61.909374 322.27814Q61.14375 322.59064 59.6125 322.8094Q58.7375 322.9344 58.378124 323.09064Q58.01875 323.2469 57.815624 323.5594Q57.628124 323.85626 57.628124 324.21564Q57.628124 324.77814 58.05 325.15314Q58.4875 325.52814 59.3 325.52814Q60.1125 325.52814 60.7375 325.1844Q61.378124 324.825 61.675 324.2Q61.909374 323.73126 61.909374 322.79376L61.909374 322.27814ZM65.58125 326.45L65.58125 314.9969L66.9875 314.9969L66.9875 326.45L65.58125 326.45ZM69.05 323.96564L70.44063 323.7469Q70.55 324.59064 71.08125 325.04376Q71.62813 325.48126 72.58125 325.48126Q73.55 325.48126 74.01875 325.09064Q74.4875 324.6844 74.4875 324.15314Q74.4875 323.6844 74.08125 323.40314Q73.78438 323.21564 72.64375 322.9344Q71.09688 322.54376 70.4875 322.2625Q69.89375 321.96564 69.58125 321.46564Q69.28438 320.96564 69.28438 320.35626Q69.28438 319.79376 69.53438 319.325Q69.78438 318.85626 70.22188 318.54376Q70.55 318.29376 71.1125 318.1375Q71.69063 317.96564 72.33125 317.96564Q73.31563 317.96564 74.05 318.2469Q74.78438 318.52814 75.12813 319.0125Q75.4875 319.48126 75.62813 320.29376L74.25313 320.48126Q74.15938 319.84064 73.70625 319.48126Q73.25313 319.1219 72.44063 319.1219Q71.47188 319.1219 71.05 319.45Q70.64375 319.7625 70.64375 320.1844Q70.64375 320.46564 70.81563 320.6844Q70.9875 320.90314 71.34688 321.0594Q71.56563 321.1375 72.59688 321.41876Q74.08125 321.8094 74.675 322.075Q75.26875 322.325 75.59688 322.8094Q75.94063 323.29376 75.94063 324.0125Q75.94063 324.71564 75.51875 325.34064Q75.1125 325.95 74.33125 326.29376Q73.56563 326.6375 72.59688 326.6375Q70.97188 326.6375 70.12813 325.96564Q69.28438 325.29376 69.05 323.96564Z" fill-rule="nonzero"/><path fill="#9e9e9e" d="M24.51875 348.45L23.1125 348.45L23.1125 339.48126Q22.596874 339.96564 21.76875 340.45Q20.95625 340.9344 20.3 341.1844L20.3 339.825Q21.471874 339.2625 22.346874 338.48126Q23.2375 337.6844 23.6125 336.95L24.51875 336.95L24.51875 348.45ZM32.721874 348.45L32.721874 345.7L27.753124 345.7L27.753124 344.41876L32.9875 336.9969L34.128124 336.9969L34.128124 344.41876L35.675 344.41876L35.675 345.7L34.128124 345.7L34.128124 348.45L32.721874 348.45ZM32.721874 344.41876L32.721874 339.2469L29.14375 344.41876L32.721874 344.41876ZM38.003124 348.45L38.003124 346.84064L39.6125 346.84064L39.6125 348.45L38.003124 348.45ZM43.378124 342.23126Q42.503124 341.91876 42.08125 341.325Q41.659374 340.73126 41.659374 339.90314Q41.659374 338.65314 42.55 337.8094Q43.45625 336.95 44.95625 336.95Q46.45625 336.95 47.3625 337.825Q48.284374 338.6844 48.284374 339.9344Q48.284374 340.73126 47.8625 341.325Q47.440624 341.91876 46.596874 342.23126Q47.64375 342.575 48.190624 343.34064Q48.753124 344.10626 48.753124 345.16876Q48.753124 346.6375 47.70625 347.65314Q46.675 348.65314 44.971874 348.65314Q43.284374 348.65314 42.2375 347.65314Q41.20625 346.6375 41.20625 345.1375Q41.20625 344.0125 41.76875 343.2625Q42.33125 342.5125 43.378124 342.23126ZM43.096874 339.85626Q43.096874 340.66876 43.6125 341.1844Q44.14375 341.7 44.9875 341.7Q45.8 341.7 46.315624 341.1844Q46.83125 340.66876 46.83125 339.9344Q46.83125 339.15314 46.3 338.6375Q45.76875 338.10626 44.971874 338.10626Q44.159374 338.10626 43.628124 338.6219Q43.096874 339.1375 43.096874 339.85626ZM42.64375 345.1375Q42.64375 345.7469 42.925 346.3094Q43.221874 346.8719 43.784374 347.1844Q44.346874 347.48126 44.9875 347.48126Q46.003124 347.48126 46.659374 346.84064Q47.315624 346.1844 47.315624 345.1844Q47.315624 344.16876 46.628124 343.5125Q45.95625 342.84064 44.940624 342.84064Q43.95625 342.84064 43.3 343.4969Q42.64375 344.15314 42.64375 345.1375ZM50.4875 339.7469Q50.4875 338.5125 51.096874 337.65314Q51.721874 336.79376 52.89375 336.79376Q53.971874 336.79376 54.675 337.575Q55.378124 338.34064 55.378124 339.825Q55.378124 341.27814 54.659374 342.075Q53.95625 342.85626 52.909374 342.85626Q51.8625 342.85626 51.175 342.09064Q50.4875 341.3094 50.4875 339.7469ZM52.925 337.7625Q52.409374 337.7625 52.05 338.21564Q51.70625 338.66876 51.70625 339.8875Q51.70625 340.98126 52.05 341.4344Q52.409374 341.8875 52.925 341.8875Q53.45625 341.8875 53.8 341.4344Q54.159374 340.98126 54.159374 339.77814Q54.159374 338.66876 53.8 338.21564Q53.45625 337.7625 52.925 337.7625ZM52.940624 348.8719L59.20625 336.79376L60.346874 336.79376L54.096874 348.8719L52.940624 348.8719ZM57.89375 345.7625Q57.89375 344.52814 58.503124 343.66876Q59.128124 342.8094 60.3 342.8094Q61.378124 342.8094 62.08125 343.59064Q62.8 344.35626 62.8 345.84064Q62.8 347.29376 62.08125 348.09064Q61.3625 348.8719 60.315624 348.8719Q59.26875 348.8719 58.58125 348.09064Q57.89375 347.3094 57.89375 345.7625ZM60.346874 343.77814Q59.815624 343.77814 59.45625 344.23126Q59.1125 344.6844 59.1125 345.90314Q59.1125 346.9969 59.45625 347.45Q59.815624 347.90314 60.33125 347.90314Q60.878124 347.90314 61.221874 347.45Q61.565624 346.9969 61.565624 345.79376Q61.565624 344.6844 61.20625 344.23126Q60.8625 343.77814 60.346874 343.77814Z" fill-rule="nonzero"/><path stroke="#757575" stroke-width="1.0" stroke-linecap="butt" d="M18.55 331.95L145.23334 331.95L251.66286 336.48853" fill-rule="nonzero"/><path fill="#9e9e9e" d="M253.66286 336.48853C253.66286 335.38394 252.76743 334.48853 251.66286 334.48853C250.55829 334.48853 249.66286 335.38394 249.66286 336.48853C249.66286 337.5931 250.55829 338.48853 251.66286 338.48853C252.76743 338.48853 253.66286 337.5931 253.66286 336.48853" fill-rule="nonzero"/><path fill="#efefef" d="M551.6375 69.916664L551.6375 58.46354L553.91876 58.46354L556.6375 66.572914Q557.0125 67.697914 557.1844 68.260414Q557.3719 67.635414 557.79376 66.43229L560.52814 58.46354L562.575 58.46354L562.575 69.916664L561.10626 69.916664L561.10626 60.322914L557.77814 69.916664L556.41876 69.916664L553.10626 60.166664L553.10626 69.916664L551.6375 69.916664ZM569.91876 68.885414Q569.1375 69.55729 568.41876 69.83854Q567.7 70.104164 566.8719 70.104164Q565.4969 70.104164 564.7625 69.43229Q564.02814 68.760414 564.02814 67.729164Q564.02814 67.11979 564.3094 66.61979Q564.59064 66.104164 565.02814 65.80729Q565.48126 65.49479 566.04376 65.33854Q566.46564 65.229164 567.29376 65.135414Q568.9969 64.93229 569.8094 64.65104Q569.8094 64.354164 569.8094 64.27604Q569.8094 63.416664 569.41876 63.072914Q568.8719 62.58854 567.8094 62.58854Q566.825 62.58854 566.34064 62.947914Q565.8719 63.291664 565.65314 64.166664L564.27814 63.979164Q564.46564 63.104164 564.8875 62.55729Q565.325 62.010414 566.1375 61.729164Q566.95 61.43229 568.0125 61.43229Q569.075 61.43229 569.73126 61.68229Q570.40314 61.93229 570.71564 62.30729Q571.02814 62.68229 571.15314 63.260414Q571.23126 63.61979 571.23126 64.55729L571.23126 66.43229Q571.23126 68.40104 571.3094 68.916664Q571.40314 69.43229 571.66876 69.916664L570.2 69.916664Q569.98126 69.479164 569.91876 68.885414ZM569.8094 65.74479Q569.04376 66.05729 567.5125 66.27604Q566.6375 66.40104 566.27814 66.55729Q565.91876 66.71354 565.71564 67.02604Q565.52814 67.322914 565.52814 67.68229Q565.52814 68.24479 565.95 68.61979Q566.3875 68.99479 567.2 68.99479Q568.0125 68.99479 568.6375 68.65104Q569.27814 68.291664 569.575 67.666664Q569.8094 67.197914 569.8094 66.260414L569.8094 65.74479ZM573.5125 73.104164L573.5125 61.61979L574.79376 61.61979L574.79376 62.697914Q575.2469 62.05729 575.8094 61.74479Q576.3875 61.43229 577.2 61.43229Q578.2625 61.43229 579.075 61.979164Q579.8875 62.52604 580.29376 63.52604Q580.71564 64.510414 580.71564 65.697914Q580.71564 66.979164 580.2469 67.99479Q579.79376 69.010414 578.91876 69.55729Q578.0594 70.104164 577.09064 70.104164Q576.3875 70.104164 575.825 69.80729Q575.27814 69.510414 574.91876 69.05729L574.91876 73.104164L573.5125 73.104164ZM574.77814 65.80729Q574.77814 67.416664 575.41876 68.18229Q576.075 68.947914 576.9969 68.947914Q577.9344 68.947914 578.60626 68.15104Q579.27814 67.354164 579.27814 65.697914Q579.27814 64.104164 578.6219 63.322914Q577.96564 62.52604 577.0594 62.52604Q576.16876 62.52604 575.46564 63.36979Q574.77814 64.21354 574.77814 65.80729Z" fill-rule="nonzero"/><path fill="#9e9e9e" d="M546.1219 88.885414L547.52814 88.697914Q547.77814 89.90104 548.35626 90.43229Q548.9344 90.947914 549.77814 90.947914Q550.7625 90.947914 551.45 90.260414Q552.1375 89.572914 552.1375 88.55729Q552.1375 87.58854 551.4969 86.96354Q550.8719 86.33854 549.8875 86.33854Q549.4969 86.33854 548.90314 86.49479L549.0594 85.260414Q549.2 85.27604 549.27814 85.27604Q550.1844 85.27604 550.90314 84.80729Q551.6219 84.33854 551.6219 83.354164Q551.6219 82.58854 551.09064 82.08854Q550.575 81.572914 549.7469 81.572914Q548.91876 81.572914 548.3719 82.08854Q547.825 82.604164 547.66876 83.635414L546.2625 83.385414Q546.52814 81.96354 547.4344 81.197914Q548.35626 80.416664 549.71564 80.416664Q550.65314 80.416664 551.4344 80.822914Q552.23126 81.21354 552.6375 81.916664Q553.0594 82.604164 553.0594 83.385414Q553.0594 84.135414 552.65314 84.74479Q552.2625 85.354164 551.48126 85.71354Q552.4969 85.947914 553.0594 86.68229Q553.6219 87.416664 553.6219 88.52604Q553.6219 90.02604 552.52814 91.072914Q551.4344 92.11979 549.7625 92.11979Q548.2625 92.11979 547.2625 91.229164Q546.2625 90.322914 546.1219 88.885414ZM555.90314 91.916664L555.90314 90.30729L557.5125 90.30729L557.5125 91.916664L555.90314 91.916664ZM559.21564 81.96354L559.21564 80.604164L566.6219 80.604164L566.6219 81.697914Q565.52814 82.86979 564.45 84.80729Q563.3875 86.729164 562.79376 88.760414Q562.3719 90.197914 562.2625 91.916664L560.8094 91.916664Q560.84064 90.55729 561.34064 88.65104Q561.85626 86.729164 562.79376 84.96354Q563.7469 83.18229 564.825 81.96354L559.21564 81.96354ZM568.3875 83.21354Q568.3875 81.979164 568.9969 81.11979Q569.6219 80.260414 570.79376 80.260414Q571.8719 80.260414 572.575 81.041664Q573.27814 81.80729 573.27814 83.291664Q573.27814 84.74479 572.5594 85.541664Q571.85626 86.322914 570.8094 86.322914Q569.7625 86.322914 569.075 85.55729Q568.3875 84.77604 568.3875 83.21354ZM570.825 81.229164Q570.3094 81.229164 569.95 81.68229Q569.60626 82.135414 569.60626 83.354164Q569.60626 84.447914 569.95 84.90104Q570.3094 85.354164 570.825 85.354164Q571.35626 85.354164 571.7 84.90104Q572.0594 84.447914 572.0594 83.24479Q572.0594 82.135414 571.7 81.68229Q571.35626 81.229164 570.825 81.229164ZM570.84064 92.33854L577.10626 80.260414L578.2469 80.260414L571.9969 92.33854L570.84064 92.33854ZM575.79376 89.229164Q575.79376 87.99479 576.40314 87.135414Q577.02814 86.27604 578.2 86.27604Q579.27814 86.27604 579.98126 87.05729Q580.7 87.822914 580.7 89.30729Q580.7 90.760414 579.98126 91.55729Q579.2625 92.33854 578.21564 92.33854Q577.16876 92.33854 576.48126 91.55729Q575.79376 90.77604 575.79376 89.229164ZM578.2469 87.24479Q577.71564 87.24479 577.35626 87.697914Q577.0125 88.15104 577.0125 89.36979Q577.0125 90.46354 577.35626 90.916664Q577.71564 91.36979 578.23126 91.36979Q578.77814 91.36979 579.1219 90.916664Q579.46564 90.46354 579.46564 89.260414Q579.46564 88.15104 579.10626 87.697914Q578.7625 87.24479 578.2469 87.24479Z" fill-rule="nonzero"/><path stroke="#757575" stroke-width="1.0" stroke-linecap="butt" d="M581.45 75.416664L454.76666 75.416664L316.40723 63.31061" fill-rule="nonzero"/><path fill="#9e9e9e" d="M318.40723 63.31061C318.40723 62.206043 317.51178 61.31061 316.40723 61.31061C315.30264 61.31061 314.40723 62.206043 314.40723 63.31061C314.40723 64.415184 315.30264 65.31061 316.40723 65.31061C317.51178 65.31061 318.40723 64.415184 318.40723 63.31061" fill-rule="nonzero"/><path fill="#efefef" d="M498.6844 110.916664L498.6844 99.46354L503.0125 99.46354Q504.15314 99.46354 504.7469 99.572914Q505.59064 99.71354 506.15314 100.104164Q506.73126 100.49479 507.075 101.21354Q507.4344 101.916664 507.4344 102.77604Q507.4344 104.229164 506.4969 105.24479Q505.575 106.260414 503.1375 106.260414L500.2 106.260414L500.2 110.916664L498.6844 110.916664ZM500.2 104.90104L503.16876 104.90104Q504.6375 104.90104 505.2469 104.354164Q505.8719 103.80729 505.8719 102.822914Q505.8719 102.104164 505.4969 101.58854Q505.1375 101.072914 504.54376 100.916664Q504.16876 100.80729 503.1375 100.80729L500.2 100.80729L500.2 104.90104ZM515.1844 108.24479L516.6375 108.416664Q516.29376 109.697914 515.35626 110.40104Q514.4344 111.104164 512.9969 111.104164Q511.16876 111.104164 510.10626 109.979164Q509.04376 108.854164 509.04376 106.83854Q509.04376 104.74479 510.1219 103.58854Q511.2 102.43229 512.91876 102.43229Q514.575 102.43229 515.6219 103.572914Q516.6844 104.697914 516.6844 106.74479Q516.6844 106.86979 516.6844 107.11979L510.4969 107.11979Q510.575 108.49479 511.2625 109.229164Q511.96564 109.947914 512.9969 109.947914Q513.77814 109.947914 514.325 109.541664Q514.8719 109.135414 515.1844 108.24479ZM510.575 105.96354L515.2 105.96354Q515.10626 104.916664 514.66876 104.40104Q513.9969 103.58854 512.9344 103.58854Q511.96564 103.58854 511.29376 104.24479Q510.6375 104.885414 510.575 105.96354ZM518.4969 110.916664L518.4969 102.61979L519.7625 102.61979L519.7625 103.86979Q520.2469 102.99479 520.65314 102.71354Q521.0594 102.43229 521.5594 102.43229Q522.2625 102.43229 522.9969 102.885414L522.5125 104.18229Q521.9969 103.885414 521.48126 103.885414Q521.02814 103.885414 520.65314 104.166664Q520.29376 104.43229 520.1375 104.93229Q519.90314 105.68229 519.90314 106.572914L519.90314 110.916664L518.4969 110.916664ZM522.95 108.43229L524.34064 108.21354Q524.45 109.05729 524.98126 109.510414Q525.52814 109.947914 526.48126 109.947914Q527.45 109.947914 527.91876 109.55729Q528.3875 109.15104 528.3875 108.61979Q528.3875 108.15104 527.98126 107.86979Q527.6844 107.68229 526.54376 107.40104Q524.9969 107.010414 524.3875 106.729164Q523.79376 106.43229 523.48126 105.93229Q523.1844 105.43229 523.1844 104.822914Q523.1844 104.260414 523.4344 103.791664Q523.6844 103.322914 524.1219 103.010414Q524.45 102.760414 525.0125 102.604164Q525.59064 102.43229 526.23126 102.43229Q527.21564 102.43229 527.95 102.71354Q528.6844 102.99479 529.02814 103.479164Q529.3875 103.947914 529.52814 104.760414L528.15314 104.947914Q528.0594 104.30729 527.60626 103.947914Q527.15314 103.58854 526.34064 103.58854Q525.3719 103.58854 524.95 103.916664Q524.54376 104.229164 524.54376 104.65104Q524.54376 104.93229 524.71564 105.15104Q524.8875 105.36979 525.2469 105.52604Q525.46564 105.604164 526.4969 105.885414Q527.98126 106.27604 528.575 106.541664Q529.16876 106.791664 529.4969 107.27604Q529.84064 107.760414 529.84064 108.479164Q529.84064 109.18229 529.41876 109.80729Q529.0125 110.416664 528.23126 110.760414Q527.46564 111.104164 526.4969 111.104164Q524.8719 111.104164 524.02814 110.43229Q523.1844 109.760414 522.95 108.43229ZM531.5125 114.104164L531.5125 102.61979L532.79376 102.61979L532.79376 103.697914Q533.2469 103.05729 533.8094 102.74479Q534.3875 102.43229 535.2 102.43229Q536.2625 102.43229 537.075 102.979164Q537.8875 103.52604 538.29376 104.52604Q538.71564 105.510414 538.71564 106.697914Q538.71564 107.979164 538.2469 108.99479Q537.79376 110.010414 536.91876 110.55729Q536.0594 111.104164 535.09064 111.104164Q534.3875 111.104164 533.825 110.80729Q533.27814 110.510414 532.91876 110.05729L532.91876 114.104164L531.5125 114.104164ZM532.77814 106.80729Q532.77814 108.416664 533.41876 109.18229Q534.075 109.947914 534.9969 109.947914Q535.9344 109.947914 536.60626 109.15104Q537.27814 108.354164 537.27814 106.697914Q537.27814 105.104164 536.6219 104.322914Q535.96564 103.52604 535.0594 103.52604Q534.16876 103.52604 533.46564 104.36979Q532.77814 105.21354 532.77814 106.80729ZM546.1844 108.24479L547.6375 108.416664Q547.29376 109.697914 546.35626 110.40104Q545.4344 111.104164 543.9969 111.104164Q542.16876 111.104164 541.10626 109.979164Q540.04376 108.854164 540.04376 106.83854Q540.04376 104.74479 541.1219 103.58854Q542.2 102.43229 543.91876 102.43229Q545.575 102.43229 546.6219 103.572914Q547.6844 104.697914 547.6844 106.74479Q547.6844 106.86979 547.6844 107.11979L541.4969 107.11979Q541.575 108.49479 542.2625 109.229164Q542.96564 109.947914 543.9969 109.947914Q544.77814 109.947914 545.325 109.541664Q545.8719 109.135414 546.1844 108.24479ZM541.575 105.96354L546.2 105.96354Q546.10626 104.916664 545.66876 104.40104Q544.9969 103.58854 543.9344 103.58854Q542.96564 103.58854 542.29376 104.24479Q541.6375 104.885414 541.575 105.96354ZM554.91876 107.86979L556.3094 108.05729Q556.075 109.479164 555.1375 110.291664Q554.21564 111.104164 552.85626 111.104164Q551.15314 111.104164 550.10626 109.99479Q549.075 108.86979 549.075 106.791664Q549.075 105.447914 549.5125 104.447914Q549.96564 103.43229 550.8719 102.93229Q551.79376 102.43229 552.85626 102.43229Q554.21564 102.43229 555.075 103.11979Q555.9344 103.791664 556.16876 105.05729L554.8094 105.260414Q554.60626 104.43229 554.10626 104.010414Q553.6219 103.58854 552.91876 103.58854Q551.85626 103.58854 551.1844 104.354164Q550.52814 105.104164 550.52814 106.760414Q550.52814 108.43229 551.16876 109.197914Q551.8094 109.947914 552.84064 109.947914Q553.66876 109.947914 554.21564 109.447914Q554.77814 108.93229 554.91876 107.86979ZM560.575 109.65104L560.77814 110.90104Q560.1844 111.02604 559.71564 111.02604Q558.95 111.02604 558.52814 110.791664Q558.10626 110.541664 557.9344 110.15104Q557.7625 109.74479 557.7625 108.479164L557.7625 103.71354L556.73126 103.71354L556.73126 102.61979L557.7625 102.61979L557.7625 100.55729L559.16876 99.71354L559.16876 102.61979L560.575 102.61979L560.575 103.71354L559.16876 103.71354L559.16876 108.55729Q559.16876 109.166664 559.23126 109.33854Q559.3094 109.510414 559.48126 109.61979Q559.65314 109.71354 559.96564 109.71354Q560.2 109.71354 560.575 109.65104ZM561.5125 101.072914L561.5125 99.46354L562.91876 99.46354L562.91876 101.072914L561.5125 101.072914ZM561.5125 110.916664L561.5125 102.61979L562.91876 102.61979L562.91876 110.916664L561.5125 110.916664ZM567.8094 110.916664L564.65314 102.61979L566.1375 102.61979L567.91876 107.58854Q568.21564 108.385414 568.45 109.260414Q568.6375 108.604164 568.98126 107.68229L570.825 102.61979L572.2625 102.61979L569.1219 110.916664L567.8094 110.916664ZM579.1844 108.24479L580.6375 108.416664Q580.29376 109.697914 579.35626 110.40104Q578.4344 111.104164 576.9969 111.104164Q575.16876 111.104164 574.10626 109.979164Q573.04376 108.854164 573.04376 106.83854Q573.04376 104.74479 574.1219 103.58854Q575.2 102.43229 576.91876 102.43229Q578.575 102.43229 579.6219 103.572914Q580.6844 104.697914 580.6844 106.74479Q580.6844 106.86979 580.6844 107.11979L574.4969 107.11979Q574.575 108.49479 575.2625 109.229164Q575.96564 109.947914 576.9969 109.947914Q577.77814 109.947914 578.325 109.541664Q578.8719 109.135414 579.1844 108.24479ZM574.575 105.96354L579.2 105.96354Q579.10626 104.916664 578.66876 104.40104Q577.9969 103.58854 576.9344 103.58854Q575.96564 103.58854 575.29376 104.24479Q574.6375 104.885414 574.575 105.96354Z" fill-rule="nonzero"/><path fill="#9e9e9e" d="M546.1219 129.88542L547.52814 129.69792Q547.77814 130.90105 548.35626 131.4323Q548.9344 131.94792 549.77814 131.94792Q550.7625 131.94792 551.45 131.26042Q552.1375 130.57292 552.1375 129.5573Q552.1375 128.58855 551.4969 127.96355Q550.8719 127.33855 549.8875 127.33855Q549.4969 127.33855 548.90314 127.4948L549.0594 126.26042Q549.2 126.27605 549.27814 126.27605Q550.1844 126.27605 550.90314 125.8073Q551.6219 125.33855 551.6219 124.35417Q551.6219 123.58855 551.09064 123.08855Q550.575 122.57292 549.7469 122.57292Q548.91876 122.57292 548.3719 123.08855Q547.825 123.60417 547.66876 124.63542L546.2625 124.38542Q546.52814 122.96355 547.4344 122.19792Q548.35626 121.41667 549.71564 121.41667Q550.65314 121.41667 551.4344 121.82292Q552.23126 122.21355 552.6375 122.91667Q553.0594 123.60417 553.0594 124.38542Q553.0594 125.13542 552.65314 125.7448Q552.2625 126.35417 551.48126 126.71355Q552.4969 126.94792 553.0594 127.6823Q553.6219 128.41667 553.6219 129.52605Q553.6219 131.02605 552.52814 132.07292Q551.4344 133.1198 549.7625 133.1198Q548.2625 133.1198 547.2625 132.22917Q546.2625 131.32292 546.1219 129.88542ZM555.90314 132.91667L555.90314 131.3073L557.5125 131.3073L557.5125 132.91667L555.90314 132.91667ZM559.21564 122.96355L559.21564 121.60417L566.6219 121.60417L566.6219 122.69792Q565.52814 123.8698 564.45 125.8073Q563.3875 127.72917 562.79376 129.76042Q562.3719 131.19792 562.2625 132.91667L560.8094 132.91667Q560.84064 131.5573 561.34064 129.65105Q561.85626 127.72917 562.79376 125.96355Q563.7469 124.1823 564.825 122.96355L559.21564 122.96355ZM568.3875 124.21355Q568.3875 122.97917 568.9969 122.1198Q569.6219 121.26042 570.79376 121.26042Q571.8719 121.26042 572.575 122.04167Q573.27814 122.8073 573.27814 124.29167Q573.27814 125.7448 572.5594 126.54167Q571.85626 127.32292 570.8094 127.32292Q569.7625 127.32292 569.075 126.5573Q568.3875 125.77605 568.3875 124.21355ZM570.825 122.22917Q570.3094 122.22917 569.95 122.6823Q569.60626 123.13542 569.60626 124.35417Q569.60626 125.44792 569.95 125.90105Q570.3094 126.35417 570.825 126.35417Q571.35626 126.35417 571.7 125.90105Q572.0594 125.44792 572.0594 124.2448Q572.0594 123.13542 571.7 122.6823Q571.35626 122.22917 570.825 122.22917ZM570.84064 133.33855L577.10626 121.26042L578.2469 121.26042L571.9969 133.33855L570.84064 133.33855ZM575.79376 130.22917Q575.79376 128.9948 576.40314 128.13542Q577.02814 127.27605 578.2 127.27605Q579.27814 127.27605 579.98126 128.0573Q580.7 128.82292 580.7 130.3073Q580.7 131.76042 579.98126 132.5573Q579.2625 133.33855 578.21564 133.33855Q577.16876 133.33855 576.48126 132.5573Q575.79376 131.77605 575.79376 130.22917ZM578.2469 128.2448Q577.71564 128.2448 577.35626 128.69792Q577.0125 129.15105 577.0125 130.3698Q577.0125 131.46355 577.35626 131.91667Q577.71564 132.3698 578.23126 132.3698Q578.77814 132.3698 579.1219 131.91667Q579.46564 131.46355 579.46564 130.26042Q579.46564 129.15105 579.10626 128.69792Q578.7625 128.2448 578.2469 128.2448Z" fill-rule="nonzero"/><path stroke="#757575" stroke-width="1.0" stroke-linecap="butt" d="M581.45 116.416664L454.76666 116.416664L348.33713 70.87814" fill-rule="nonzero"/><path fill="#9e9e9e" d="M350.33713 70.87814C350.33713 69.773575 349.4417 68.87814 348.33713 68.87814C347.23257 68.87814 346.33713 69.773575 346.33713 70.87814C346.33713 71.98271 347.23257 72.87814 348.33713 72.87814C349.4417 72.87814 350.33713 71.98271 350.33713 70.87814" fill-rule="nonzero"/><path fill="#efefef" d="M531.6844 222.72475L531.6844 211.27162L536.0125 211.27162Q537.15314 211.27162 537.7469 211.381Q538.59064 211.52162 539.15314 211.91225Q539.73126 212.30287 540.075 213.02162Q540.4344 213.72475 540.4344 214.58412Q540.4344 216.03725 539.4969 217.05287Q538.575 218.0685 536.1375 218.0685L533.2 218.0685L533.2 222.72475L531.6844 222.72475ZM533.2 216.70912L536.16876 216.70912Q537.6375 216.70912 538.2469 216.16225Q538.8719 215.61537 538.8719 214.631Q538.8719 213.91225 538.4969 213.39662Q538.1375 212.881 537.54376 212.72475Q537.16876 212.61537 536.1375 212.61537L533.2 212.61537L533.2 216.70912ZM548.1844 220.05287L549.6375 220.22475Q549.29376 221.506 548.35626 222.20912Q547.4344 222.91225 545.9969 222.91225Q544.16876 222.91225 543.10626 221.78725Q542.04376 220.66225 542.04376 218.64662Q542.04376 216.55287 543.1219 215.39662Q544.2 214.24037 545.91876 214.24037Q547.575 214.24037 548.6219 215.381Q549.6844 216.506 549.6844 218.55287Q549.6844 218.67787 549.6844 218.92787L543.4969 218.92787Q543.575 220.30287 544.2625 221.03725Q544.96564 221.756 545.9969 221.756Q546.77814 221.756 547.325 221.34975Q547.8719 220.9435 548.1844 220.05287ZM543.575 217.77162L548.2 217.77162Q548.10626 216.72475 547.66876 216.20912Q546.9969 215.39662 545.9344 215.39662Q544.96564 215.39662 544.29376 216.05287Q543.6375 216.6935 543.575 217.77162ZM550.98126 218.5685Q550.98126 216.27162 552.2625 215.16225Q553.34064 214.24037 554.8719 214.24037Q556.59064 214.24037 557.66876 215.36537Q558.7625 216.47475 558.7625 218.45912Q558.7625 220.05287 558.27814 220.97475Q557.79376 221.89662 556.8719 222.41225Q555.96564 222.91225 554.8719 222.91225Q553.1375 222.91225 552.0594 221.80287Q550.98126 220.67787 550.98126 218.5685ZM552.4344 218.5685Q552.4344 220.16225 553.1219 220.95912Q553.825 221.756 554.8719 221.756Q555.91876 221.756 556.60626 220.95912Q557.3094 220.16225 557.3094 218.52162Q557.3094 216.99037 556.60626 216.1935Q555.91876 215.39662 554.8719 215.39662Q553.825 215.39662 553.1219 216.1935Q552.4344 216.97475 552.4344 218.5685ZM560.5125 225.91225L560.5125 214.42787L561.79376 214.42787L561.79376 215.506Q562.2469 214.86537 562.8094 214.55287Q563.3875 214.24037 564.2 214.24037Q565.2625 214.24037 566.075 214.78725Q566.8875 215.33412 567.29376 216.33412Q567.71564 217.3185 567.71564 218.506Q567.71564 219.78725 567.2469 220.80287Q566.79376 221.8185 565.91876 222.36537Q565.0594 222.91225 564.09064 222.91225Q563.3875 222.91225 562.825 222.61537Q562.27814 222.3185 561.91876 221.86537L561.91876 225.91225L560.5125 225.91225ZM561.77814 218.61537Q561.77814 220.22475 562.41876 220.99037Q563.075 221.756 563.9969 221.756Q564.9344 221.756 565.60626 220.95912Q566.27814 220.16225 566.27814 218.506Q566.27814 216.91225 565.6219 216.131Q564.96564 215.33412 564.0594 215.33412Q563.16876 215.33412 562.46564 216.17787Q561.77814 217.02162 561.77814 218.61537ZM569.48126 222.72475L569.48126 211.27162L570.8875 211.27162L570.8875 222.72475L569.48126 222.72475ZM579.1844 220.05287L580.6375 220.22475Q580.29376 221.506 579.35626 222.20912Q578.4344 222.91225 576.9969 222.91225Q575.16876 222.91225 574.10626 221.78725Q573.04376 220.66225 573.04376 218.64662Q573.04376 216.55287 574.1219 215.39662Q575.2 214.24037 576.91876 214.24037Q578.575 214.24037 579.6219 215.381Q580.6844 216.506 580.6844 218.55287Q580.6844 218.67787 580.6844 218.92787L574.4969 218.92787Q574.575 220.30287 575.2625 221.03725Q575.96564 221.756 576.9969 221.756Q577.77814 221.756 578.325 221.34975Q578.8719 220.9435 579.1844 220.05287ZM574.575 217.77162L579.2 217.77162Q579.10626 216.72475 578.66876 216.20912Q577.9969 215.39662 576.9344 215.39662Q575.96564 215.39662 575.29376 216.05287Q574.6375 216.6935 574.575 217.77162Z" fill-rule="nonzero"/><path fill="#9e9e9e" d="M541.6219 244.72475L541.6219 241.97475L536.65314 241.97475L536.65314 240.6935L541.8875 233.27162L543.02814 233.27162L543.02814 240.6935L544.575 240.6935L544.575 241.97475L543.02814 241.97475L543.02814 244.72475L541.6219 244.72475ZM541.6219 240.6935L541.6219 235.52162L538.04376 240.6935L541.6219 240.6935ZM546.1219 239.0685Q546.1219 237.03725 546.52814 235.80287Q546.95 234.5685 547.77814 233.89662Q548.60626 233.22475 549.85626 233.22475Q550.77814 233.22475 551.46564 233.59975Q552.16876 233.95912 552.6219 234.66225Q553.075 235.36537 553.325 236.36537Q553.59064 237.36537 553.59064 239.0685Q553.59064 241.08412 553.16876 242.33412Q552.7625 243.5685 551.9344 244.256Q551.10626 244.92787 549.85626 244.92787Q548.2 244.92787 547.2469 243.72475Q546.1219 242.30287 546.1219 239.0685ZM547.5594 239.0685Q547.5594 241.89662 548.21564 242.83412Q548.8875 243.756 549.85626 243.756Q550.825 243.756 551.48126 242.8185Q552.1375 241.881 552.1375 239.0685Q552.1375 236.24037 551.48126 235.3185Q550.825 234.381 549.84064 234.381Q548.8719 234.381 548.29376 235.20912Q547.5594 236.256 547.5594 239.0685ZM555.90314 244.72475L555.90314 243.11537L557.5125 243.11537L557.5125 244.72475L555.90314 244.72475ZM559.21564 234.77162L559.21564 233.41225L566.6219 233.41225L566.6219 234.506Q565.52814 235.67787 564.45 237.61537Q563.3875 239.53725 562.79376 241.5685Q562.3719 243.006 562.2625 244.72475L560.8094 244.72475Q560.84064 243.36537 561.34064 241.45912Q561.85626 239.53725 562.79376 237.77162Q563.7469 235.99037 564.825 234.77162L559.21564 234.77162ZM568.3875 236.02162Q568.3875 234.78725 568.9969 233.92787Q569.6219 233.0685 570.79376 233.0685Q571.8719 233.0685 572.575 233.84975Q573.27814 234.61537 573.27814 236.09975Q573.27814 237.55287 572.5594 238.34975Q571.85626 239.131 570.8094 239.131Q569.7625 239.131 569.075 238.36537Q568.3875 237.58412 568.3875 236.02162ZM570.825 234.03725Q570.3094 234.03725 569.95 234.49037Q569.60626 234.9435 569.60626 236.16225Q569.60626 237.256 569.95 237.70912Q570.3094 238.16225 570.825 238.16225Q571.35626 238.16225 571.7 237.70912Q572.0594 237.256 572.0594 236.05287Q572.0594 234.9435 571.7 234.49037Q571.35626 234.03725 570.825 234.03725ZM570.84064 245.14662L577.10626 233.0685L578.2469 233.0685L571.9969 245.14662L570.84064 245.14662ZM575.79376 242.03725Q575.79376 240.80287 576.40314 239.9435Q577.02814 239.08412 578.2 239.08412Q579.27814 239.08412 579.98126 239.86537Q580.7 240.631 580.7 242.11537Q580.7 243.5685 579.98126 244.36537Q579.2625 245.14662 578.21564 245.14662Q577.16876 245.14662 576.48126 244.36537Q575.79376 243.58412 575.79376 242.03725ZM578.2469 240.05287Q577.71564 240.05287 577.35626 240.506Q577.0125 240.95912 577.0125 242.17787Q577.0125 243.27162 577.35626 243.72475Q577.71564 244.17787 578.23126 244.17787Q578.77814 244.17787 579.1219 243.72475Q579.46564 243.27162 579.46564 242.0685Q579.46564 240.95912 579.10626 240.506Q578.7625 240.05287 578.2469 240.05287Z" fill-rule="nonzero"/><path stroke="#757575" stroke-width="1.0" stroke-linecap="butt" d="M581.45 228.22475L454.76666 228.22475L439.18124 228.22475" fill-rule="nonzero"/><path fill="#9e9e9e" d="M441.18124 228.22475C441.18124 227.12018 440.2858 226.22475 439.18124 226.22475C438.07666 226.22475 437.18124 227.12018 437.18124 228.22475C437.18124 229.32932 438.07666 230.22475 439.18124 230.22475C440.2858 230.22475 441.18124 229.32932 441.18124 228.22475" fill-rule="nonzero"/><path fill="#f3f3f3" d="M265.98438 37.55L265.98438 23.2375L268.84375 23.2375L272.21875 33.3625Q272.6875 34.784374 272.90625 35.4875Q273.15625 34.70625 273.67188 33.190624L277.09375 23.2375L279.64062 23.2375L279.64062 37.55L277.82812 37.55L277.82812 25.565624L273.65625 37.55L271.95312 37.55L267.8125 25.3625L267.8125 37.55L265.98438 37.55ZM289.92188 34.20625L291.73438 34.440624Q291.3125 36.01875 290.14062 36.909374Q288.98438 37.784374 287.17188 37.784374Q284.90625 37.784374 283.5625 36.39375Q282.23438 34.9875 282.23438 32.45625Q282.23438 29.83125 283.57812 28.39375Q284.92188 26.940624 287.07812 26.940624Q289.15625 26.940624 290.46875 28.3625Q291.79688 29.76875 291.79688 32.346874Q291.79688 32.503124 291.78125 32.815624L284.04688 32.815624Q284.14062 34.51875 285.01562 35.425Q285.89062 36.33125 287.1875 36.33125Q288.15625 36.33125 288.82812 35.83125Q289.51562 35.315624 289.92188 34.20625ZM284.14062 31.3625L289.9375 31.3625Q289.82812 30.065624 289.28125 29.409374Q288.4375 28.39375 287.09375 28.39375Q285.89062 28.39375 285.0625 29.20625Q284.23438 30.003124 284.14062 31.3625ZM300.54688 37.55L300.54688 36.2375Q299.5625 37.784374 297.64062 37.784374Q296.40625 37.784374 295.35938 37.096874Q294.32812 36.409374 293.75 35.190624Q293.1875 33.971874 293.1875 32.378124Q293.1875 30.815624 293.70312 29.55Q294.21875 28.284374 295.25 27.6125Q296.29688 26.940624 297.5625 26.940624Q298.5 26.940624 299.23438 27.346874Q299.96875 27.7375 300.4375 28.3625L300.4375 23.2375L302.17188 23.2375L302.17188 37.55L300.54688 37.55ZM294.98438 32.378124Q294.98438 34.3625 295.82812 35.346874Q296.67188 36.33125 297.8125 36.33125Q298.96875 36.33125 299.76562 35.39375Q300.57812 34.45625 300.57812 32.51875Q300.57812 30.39375 299.75 29.39375Q298.9375 28.39375 297.73438 28.39375Q296.5625 28.39375 295.76562 29.3625Q294.98438 30.315624 294.98438 32.378124ZM304.82812 25.253124L304.82812 23.2375L306.59375 23.2375L306.59375 25.253124L304.82812 25.253124ZM304.82812 37.55L304.82812 27.175L306.59375 27.175L306.59375 37.55L304.82812 37.55ZM315.60938 37.55L315.60938 36.01875Q314.40625 37.784374 312.32812 37.784374Q311.40625 37.784374 310.60938 37.440624Q309.8125 37.08125 309.42188 36.55Q309.04688 36.01875 308.89062 35.2375Q308.78125 34.721874 308.78125 33.596874L308.78125 27.175L310.53125 27.175L310.53125 32.925Q310.53125 34.3 310.64062 34.784374Q310.8125 35.471874 311.34375 35.878124Q311.89062 36.26875 312.67188 36.26875Q313.46875 36.26875 314.15625 35.8625Q314.85938 35.45625 315.14062 34.76875Q315.4375 34.065624 315.4375 32.7375L315.4375 27.175L317.1875 27.175L317.1875 37.55L315.60938 37.55ZM319.8125 37.55L319.8125 27.175L321.39062 27.175L321.39062 28.628124Q321.875 27.878124 322.6875 27.409374Q323.5 26.940624 324.53125 26.940624Q325.6875 26.940624 326.42188 27.425Q327.15625 27.89375 327.46875 28.753124Q328.70312 26.940624 330.67188 26.940624Q332.21875 26.940624 333.04688 27.8Q333.875 28.659374 333.875 30.425L333.875 37.55L332.125 37.55L332.125 31.01875Q332.125 29.95625 331.95312 29.503124Q331.78125 29.034374 331.32812 28.753124Q330.89062 28.471874 330.28125 28.471874Q329.1875 28.471874 328.45312 29.20625Q327.73438 29.925 327.73438 31.51875L327.73438 37.55L325.98438 37.55L325.98438 30.815624Q325.98438 29.64375 325.54688 29.065624Q325.125 28.471874 324.14062 28.471874Q323.40625 28.471874 322.76562 28.8625Q322.14062 29.253124 321.85938 30.003124Q321.57812 30.753124 321.57812 32.175L321.57812 37.55L319.8125 37.55Z" fill-rule="nonzero"/></svg>