<svg version="1.1" viewBox="0.0 0.0 600.0 371.0" fill="none" stroke="none" stroke-linecap="square" stroke-miterlimit="10" width="600" height="371" xmlns:xlink="http://www.w3.org/1999/xlink" xmlns="http://www.w3.org/2000/svg"><path fill="#ffffff" fill-opacity="0.0" d="M0 0L600.0 0L600.0 371.0L0 371.0L0 0Z" fill-rule="nonzero"/><path fill="#f7d750" d="M300.0 54.916668C358.24243 54.916668 411.12814 88.904236 435.3229 141.88342C459.5177 194.86263 450.57104 257.08807 412.43036 301.10477L356.21518 252.39406C375.28552 230.38571 379.75885 199.27298 367.66147 172.78339C355.56406 146.29378 329.12122 129.3 300.0 129.3Z" fill-rule="nonzero"/><path fill="#d0473d" d="M219.57066 78.53285C243.56256 63.114193 271.48077 54.916668 300.0 54.916668L300.0 129.3C285.7404 129.3 271.78128 133.39876 259.78534 141.1081Z" fill-rule="nonzero"/><path fill="#78a94e" d="M187.56966 301.10477C159.31267 268.49448 146.60674 225.22205 152.74756 182.51163C158.8884 139.80122 183.2709 101.86129 219.57066 78.53285L259.78534 141.1081C241.63545 152.77231 229.4442 171.74228 226.37378 193.09749C223.30336 214.45268 229.65634 236.08891 243.78482 252.39406Z" fill-rule="nonzero"/><path fill="#4571b0" d="M412.43036 301.10477C384.17337 333.7151 343.1496 352.45 300.0 352.45C256.8504 352.45 215.82664 333.7151 187.56966 301.10477L243.78482 252.39406C257.91333 268.69922 278.4252 278.06668 300.0 278.06668C321.5748 278.06668 342.08667 268.69922 356.21518 252.39406Z" fill-rule="nonzero"/><path fill="#ffffff" d="M376.7422 160.42715L378.33594 160.22403Q378.60156 161.56778 379.2578 162.16153Q379.91406 162.75528 380.85156 162.75528Q381.97656 162.75528 382.7422 161.98965Q383.5078 161.2084 383.5078 160.06778Q383.5078 158.97403 382.78906 158.2709Q382.08594 157.55215 380.9922 157.55215Q380.53906 157.55215 379.8672 157.73965L380.03906 156.34903Q380.1953 156.36465 380.3047 156.36465Q381.3047 156.36465 382.1172 155.8334Q382.9297 155.30215 382.9297 154.2084Q382.9297 153.3334 382.33594 152.7709Q381.7422 152.19278 380.8203 152.19278Q379.89844 152.19278 379.27344 152.7709Q378.66406 153.34903 378.4922 154.5209L376.91406 154.23965Q377.1953 152.6459 378.22656 151.7709Q379.2578 150.8959 380.78906 150.8959Q381.83594 150.8959 382.72656 151.34903Q383.6172 151.80215 384.08594 152.5834Q384.5547 153.36465 384.5547 154.23965Q384.5547 155.0834 384.10156 155.7709Q383.66406 156.44278 382.77344 156.84903Q383.91406 157.11465 384.53906 157.9584Q385.1797 158.78653 385.1797 160.0209Q385.1797 161.7084 383.9453 162.8959Q382.72656 164.06778 380.85156 164.06778Q379.14844 164.06778 378.02344 163.05215Q376.91406 162.03653 376.7422 160.42715ZM394.9453 154.09903L393.3828 154.22403Q393.16406 153.30215 392.77344 152.88028Q392.1328 152.19278 391.1953 152.19278Q390.4453 152.19278 389.8672 152.61465Q389.1172 153.16153 388.6797 154.2084Q388.2578 155.25528 388.2422 157.19278Q388.8203 156.31778 389.6328 155.8959Q390.46094 155.47403 391.3672 155.47403Q392.96094 155.47403 394.0703 156.6459Q395.1797 157.80215 395.1797 159.6459Q395.1797 160.86465 394.64844 161.91153Q394.1328 162.94278 393.21094 163.50528Q392.3047 164.05215 391.14844 164.05215Q389.16406 164.05215 387.91406 162.59903Q386.66406 161.1459 386.66406 157.80215Q386.66406 154.06778 388.0547 152.36465Q389.2578 150.8959 391.28906 150.8959Q392.8203 150.8959 393.78906 151.75528Q394.7578 152.59903 394.9453 154.09903ZM388.4922 159.66153Q388.4922 160.47403 388.83594 161.22403Q389.1797 161.97403 389.8047 162.36465Q390.4297 162.75528 391.1172 162.75528Q392.1172 162.75528 392.83594 161.94278Q393.5547 161.13028 393.5547 159.73965Q393.5547 158.41153 392.83594 157.6459Q392.1328 156.86465 391.0547 156.86465Q389.97656 156.86465 389.22656 157.6459Q388.4922 158.41153 388.4922 159.66153ZM397.6328 163.8334L397.6328 162.03653L399.4297 162.03653L399.4297 163.8334L397.6328 163.8334ZM406.8047 163.8334L406.8047 160.75528L401.22656 160.75528L401.22656 159.30215L407.10156 150.94278L408.39844 150.94278L408.39844 159.30215L410.1328 159.30215L410.1328 160.75528L408.39844 160.75528L408.39844 163.8334L406.8047 163.8334ZM406.8047 159.30215L406.8047 153.48965L402.77344 159.30215L406.8047 159.30215ZM412.03906 154.03653Q412.03906 152.66153 412.72656 151.69278Q413.4297 150.72403 414.7422 150.72403Q415.96094 150.72403 416.7578 151.59903Q417.5547 152.4584 417.5547 154.1459Q417.5547 155.7709 416.7422 156.66153Q415.9453 157.53653 414.7578 157.53653Q413.60156 157.53653 412.8203 156.67715Q412.03906 155.80215 412.03906 154.03653ZM414.78906 151.81778Q414.1953 151.81778 413.8047 152.3334Q413.41406 152.8334 413.41406 154.19278Q413.41406 155.44278 413.8047 155.94278Q414.21094 156.44278 414.78906 156.44278Q415.3828 156.44278 415.77344 155.94278Q416.16406 155.42715 416.16406 154.0834Q416.16406 152.8334 415.77344 152.3334Q415.3828 151.81778 414.78906 151.81778ZM414.8047 164.30215L421.85156 150.72403L423.1328 150.72403L416.10156 164.30215L414.8047 164.30215ZM420.3672 160.80215Q420.3672 159.42715 421.0547 158.4584Q421.7578 157.48965 423.08594 157.48965Q424.3047 157.48965 425.08594 158.36465Q425.8828 159.22403 425.8828 160.91153Q425.8828 162.53653 425.08594 163.42715Q424.28906 164.30215 423.10156 164.30215Q421.9297 164.30215 421.14844 163.42715Q420.3672 162.55215 420.3672 160.80215ZM423.1328 158.5834Q422.53906 158.5834 422.14844 159.09903Q421.7578 159.59903 421.7578 160.97403Q421.7578 162.19278 422.14844 162.7084Q422.53906 163.22403 423.1172 163.22403Q423.72656 163.22403 424.1172 162.7084Q424.5078 162.19278 424.5078 160.84903Q424.5078 159.59903 424.1172 159.09903Q423.72656 158.5834 423.1328 158.5834Z" fill-rule="nonzero"/><path fill="#ffffff" d="M283.5625 326.4736L283.5625 327.98923L275.04688 327.98923Q275.03125 327.4111 275.23438 326.89548Q275.5625 326.02048 276.26562 325.17673Q276.98438 324.33298 278.34375 323.2236Q280.4375 321.50485 281.17188 320.50485Q281.92188 319.48923 281.92188 318.5986Q281.92188 317.64548 281.25 317.00485Q280.57812 316.36423 279.5 316.36423Q278.34375 316.36423 277.65625 317.05173Q276.98438 317.73923 276.96875 318.94235L275.34375 318.77048Q275.51562 316.95798 276.59375 316.00485Q277.6875 315.05173 279.53125 315.05173Q281.375 315.05173 282.45312 316.08298Q283.54688 317.11423 283.54688 318.62985Q283.54688 319.39548 283.21875 320.14548Q282.90625 320.89548 282.17188 321.7236Q281.4375 322.55173 279.73438 323.98923Q278.3125 325.19235 277.90625 325.61423Q277.5 326.0361 277.25 326.4736L283.5625 326.4736ZM285.35938 316.7861L285.35938 315.27048L293.6875 315.27048L293.6875 316.50485Q292.46875 317.81735 291.25 319.98923Q290.04688 322.14548 289.39062 324.44235Q288.90625 326.06735 288.78125 327.98923L287.15625 327.98923Q287.1875 326.4736 287.75 324.31735Q288.32812 322.1611 289.39062 320.1611Q290.45312 318.1611 291.65625 316.7861L285.35938 316.7861ZM296.14062 327.98923L296.14062 326.19235L297.9375 326.19235L297.9375 327.98923L296.14062 327.98923ZM300.25 324.58298L301.84375 324.37985Q302.10938 325.7236 302.76562 326.31735Q303.42188 326.9111 304.35938 326.9111Q305.48438 326.9111 306.25 326.14548Q307.01562 325.36423 307.01562 324.2236Q307.01562 323.12985 306.29688 322.42673Q305.59375 321.70798 304.5 321.70798Q304.04688 321.70798 303.375 321.89548L303.54688 320.50485Q303.70312 320.52048 303.8125 320.52048Q304.8125 320.52048 305.625 319.98923Q306.4375 319.45798 306.4375 318.36423Q306.4375 317.48923 305.84375 316.92673Q305.25 316.3486 304.32812 316.3486Q303.40625 316.3486 302.78125 316.92673Q302.17188 317.50485 302.0 318.67673L300.42188 318.39548Q300.70312 316.80173 301.73438 315.92673Q302.76562 315.05173 304.29688 315.05173Q305.34375 315.05173 306.23438 315.50485Q307.125 315.95798 307.59375 316.73923Q308.0625 317.52048 308.0625 318.39548Q308.0625 319.23923 307.60938 319.92673Q307.17188 320.5986 306.28125 321.00485Q307.42188 321.27048 308.04688 322.11423Q308.6875 322.94235 308.6875 324.17673Q308.6875 325.86423 307.45312 327.05173Q306.23438 328.2236 304.35938 328.2236Q302.65625 328.2236 301.53125 327.20798Q300.42188 326.19235 300.25 324.58298ZM310.54688 318.19235Q310.54688 316.81735 311.23438 315.8486Q311.9375 314.87985 313.25 314.87985Q314.46875 314.87985 315.26562 315.75485Q316.0625 316.61423 316.0625 318.30173Q316.0625 319.92673 315.25 320.81735Q314.45312 321.69235 313.26562 321.69235Q312.10938 321.69235 311.32812 320.83298Q310.54688 319.95798 310.54688 318.19235ZM313.29688 315.9736Q312.70312 315.9736 312.3125 316.48923Q311.92188 316.98923 311.92188 318.3486Q311.92188 319.5986 312.3125 320.0986Q312.71875 320.5986 313.29688 320.5986Q313.89062 320.5986 314.28125 320.0986Q314.67188 319.58298 314.67188 318.23923Q314.67188 316.98923 314.28125 316.48923Q313.89062 315.9736 313.29688 315.9736ZM313.3125 328.45798L320.35938 314.87985L321.64062 314.87985L314.60938 328.45798L313.3125 328.45798ZM318.875 324.95798Q318.875 323.58298 319.5625 322.61423Q320.26562 321.64548 321.59375 321.64548Q322.8125 321.64548 323.59375 322.52048Q324.39062 323.37985 324.39062 325.06735Q324.39062 326.69235 323.59375 327.58298Q322.79688 328.45798 321.60938 328.45798Q320.4375 328.45798 319.65625 327.58298Q318.875 326.70798 318.875 324.95798ZM321.64062 322.73923Q321.04688 322.73923 320.65625 323.25485Q320.26562 323.75485 320.26562 325.12985Q320.26562 326.3486 320.65625 326.86423Q321.04688 327.37985 321.625 327.37985Q322.23438 327.37985 322.625 326.86423Q323.01562 326.3486 323.01562 325.00485Q323.01562 323.75485 322.625 323.25485Q322.23438 322.73923 321.64062 322.73923Z" fill-rule="nonzero"/><path fill="#ffffff" d="M173.12317 192.78893L173.12317 194.30455L164.60754 194.30455Q164.59192 193.72643 164.79504 193.2108Q165.12317 192.3358 165.8263 191.49205Q166.54504 190.6483 167.90442 189.53893Q169.99817 187.82018 170.73254 186.82018Q171.48254 185.80455 171.48254 184.91393Q171.48254 183.9608 170.81067 183.32018Q170.1388 182.67955 169.06067 182.67955Q167.90442 182.67955 167.21692 183.36705Q166.54504 184.05455 166.52942 185.25768L164.90442 185.0858Q165.0763 183.2733 166.15442 182.32018Q167.24817 181.36705 169.09192 181.36705Q170.93567 181.36705 172.0138 182.3983Q173.10754 183.42955 173.10754 184.94518Q173.10754 185.7108 172.77942 186.4608Q172.46692 187.2108 171.73254 188.03893Q170.99817 188.86705 169.29504 190.30455Q167.87317 191.50768 167.46692 191.92955Q167.06067 192.35143 166.81067 192.78893L173.12317 192.78893ZM174.92004 183.10143L174.92004 181.5858L183.24817 181.5858L183.24817 182.82018Q182.02942 184.13268 180.81067 186.30455Q179.60754 188.4608 178.9513 190.75768Q178.46692 192.38268 178.34192 194.30455L176.71692 194.30455Q176.74817 192.78893 177.31067 190.63268Q177.8888 188.47643 178.9513 186.47643Q180.0138 184.47643 181.21692 183.10143L174.92004 183.10143ZM185.7013 194.30455L185.7013 192.50768L187.49817 192.50768L187.49817 194.30455L185.7013 194.30455ZM189.81067 190.8983L191.40442 190.69518Q191.67004 192.03893 192.3263 192.63268Q192.98254 193.22643 193.92004 193.22643Q195.04504 193.22643 195.81067 192.4608Q196.5763 191.67955 196.5763 190.53893Q196.5763 189.44518 195.85754 188.74205Q195.15442 188.0233 194.06067 188.0233Q193.60754 188.0233 192.93567 188.2108L193.10754 186.82018Q193.2638 186.8358 193.37317 186.8358Q194.37317 186.8358 195.18567 186.30455Q195.99817 185.7733 195.99817 184.67955Q195.99817 183.80455 195.40442 183.24205Q194.81067 182.66393 193.8888 182.66393Q192.96692 182.66393 192.34192 183.24205Q191.73254 183.82018 191.56067 184.99205L189.98254 184.7108Q190.2638 183.11705 191.29504 182.24205Q192.3263 181.36705 193.85754 181.36705Q194.90442 181.36705 195.79504 181.82018Q196.68567 182.2733 197.15442 183.05455Q197.62317 183.8358 197.62317 184.7108Q197.62317 185.55455 197.17004 186.24205Q196.73254 186.91393 195.84192 187.32018Q196.98254 187.5858 197.60754 188.42955Q198.24817 189.25768 198.24817 190.49205Q198.24817 192.17955 197.0138 193.36705Q195.79504 194.53893 193.92004 194.53893Q192.21692 194.53893 191.09192 193.5233Q189.98254 192.50768 189.81067 190.8983ZM200.10754 184.50768Q200.10754 183.13268 200.79504 182.16393Q201.49817 181.19518 202.81067 181.19518Q204.02942 181.19518 204.8263 182.07018Q205.62317 182.92955 205.62317 184.61705Q205.62317 186.24205 204.81067 187.13268Q204.0138 188.00768 202.8263 188.00768Q201.67004 188.00768 200.8888 187.1483Q200.10754 186.2733 200.10754 184.50768ZM202.85754 182.28893Q202.2638 182.28893 201.87317 182.80455Q201.48254 183.30455 201.48254 184.66393Q201.48254 185.91393 201.87317 186.41393Q202.27942 186.91393 202.85754 186.91393Q203.4513 186.91393 203.84192 186.41393Q204.23254 185.8983 204.23254 184.55455Q204.23254 183.30455 203.84192 182.80455Q203.4513 182.28893 202.85754 182.28893ZM202.87317 194.7733L209.92004 181.19518L211.2013 181.19518L204.17004 194.7733L202.87317 194.7733ZM208.43567 191.2733Q208.43567 189.8983 209.12317 188.92955Q209.8263 187.9608 211.15442 187.9608Q212.37317 187.9608 213.15442 188.8358Q213.9513 189.69518 213.9513 191.38268Q213.9513 193.00768 213.15442 193.8983Q212.35754 194.7733 211.17004 194.7733Q209.99817 194.7733 209.21692 193.8983Q208.43567 193.0233 208.43567 191.2733ZM211.2013 189.05455Q210.60754 189.05455 210.21692 189.57018Q209.8263 190.07018 209.8263 191.44518Q209.8263 192.66393 210.21692 193.17955Q210.60754 193.69518 211.18567 193.69518Q211.79504 193.69518 212.18567 193.17955Q212.5763 192.66393 212.5763 191.32018Q212.5763 190.07018 212.18567 189.57018Q211.79504 189.05455 211.2013 189.05455Z" fill-rule="nonzero"/><path fill="#ffffff" d="M248.92516 99.71815L250.44078 99.57752Q250.6439 100.65565 251.17516 101.14002Q251.72203 101.6244 252.5814 101.6244Q253.31578 101.6244 253.86266 101.29627Q254.40953 100.95252 254.75328 100.40565Q255.11266 99.84315 255.34703 98.89002Q255.5814 97.9369 255.5814 96.95252Q255.5814 96.84315 255.5814 96.64002Q255.09703 97.39002 254.2689 97.85877Q253.4564 98.32752 252.50328 98.32752Q250.90953 98.32752 249.80016 97.17127Q248.69078 96.01502 248.69078 94.10877Q248.69078 92.15565 249.84703 90.96815Q251.00328 89.76502 252.73766 89.76502Q254.00328 89.76502 255.03453 90.45252Q256.08142 91.1244 256.61267 92.3744Q257.15955 93.6244 257.15955 95.9994Q257.15955 98.46815 256.61267 99.9369Q256.08142 101.39002 255.0189 102.15565Q253.97203 102.92127 252.55016 102.92127Q251.03453 102.92127 250.06578 102.09315Q249.11266 101.2494 248.92516 99.71815ZM255.40953 94.03065Q255.40953 92.67127 254.67516 91.8744Q253.9564 91.07752 252.94078 91.07752Q251.87828 91.07752 251.09703 91.9369Q250.31578 92.79627 250.31578 94.17127Q250.31578 95.40565 251.05016 96.17127Q251.80016 96.9369 252.8939 96.9369Q253.98766 96.9369 254.69078 96.17127Q255.40953 95.40565 255.40953 94.03065ZM259.58142 102.70252L259.58142 100.90565L261.3783 100.90565L261.3783 102.70252L259.58142 102.70252ZM269.64392 102.70252L268.0658 102.70252L268.0658 92.6244Q267.48767 93.17127 266.5658 93.71815Q265.64392 94.2494 264.89392 94.53065L264.89392 92.9994Q266.22205 92.3744 267.22205 91.48377Q268.22205 90.59315 268.6283 89.76502L269.64392 89.76502L269.64392 102.70252ZM273.98767 92.90565Q273.98767 91.53065 274.67517 90.5619Q275.3783 89.59315 276.6908 89.59315Q277.90955 89.59315 278.70642 90.46815Q279.5033 91.32752 279.5033 93.01502Q279.5033 94.64002 278.6908 95.53065Q277.89392 96.40565 276.70642 96.40565Q275.55017 96.40565 274.76892 95.54627Q273.98767 94.67127 273.98767 92.90565ZM276.73767 90.6869Q276.14392 90.6869 275.7533 91.20252Q275.36267 91.70252 275.36267 93.0619Q275.36267 94.3119 275.7533 94.8119Q276.15955 95.3119 276.73767 95.3119Q277.33142 95.3119 277.72205 94.8119Q278.11267 94.29627 278.11267 92.95252Q278.11267 91.70252 277.72205 91.20252Q277.33142 90.6869 276.73767 90.6869ZM276.7533 103.17127L283.80017 89.59315L285.08142 89.59315L278.05017 103.17127L276.7533 103.17127ZM282.3158 99.67127Q282.3158 98.29627 283.0033 97.32752Q283.70642 96.35877 285.03455 96.35877Q286.2533 96.35877 287.03455 97.23377Q287.83142 98.09315 287.83142 99.78065Q287.83142 101.40565 287.03455 102.29627Q286.23767 103.17127 285.05017 103.17127Q283.8783 103.17127 283.09705 102.29627Q282.3158 101.42127 282.3158 99.67127ZM285.08142 97.45252Q284.48767 97.45252 284.09705 97.96815Q283.70642 98.46815 283.70642 99.84315Q283.70642 101.0619 284.09705 101.57752Q284.48767 102.09315 285.0658 102.09315Q285.67517 102.09315 286.0658 101.57752Q286.45642 101.0619 286.45642 99.71815Q286.45642 98.46815 286.0658 97.96815Q285.67517 97.45252 285.08142 97.45252Z" fill-rule="nonzero"/><path stroke="#ffffff" stroke-width="1.0" stroke-linejoin="round" stroke-linecap="round" d="M356.21518 252.39406C375.28552 230.38571 379.75885 199.27298 367.66147 172.78339C355.56406 146.29378 329.12122 129.3 300.0 129.3L300.0 54.916668C358.24243 54.916668 411.12814 88.904236 435.3229 141.88342C459.5177 194.86263 450.57104 257.08807 412.43036 301.10477" fill-rule="nonzero"/><path stroke="#ffffff" stroke-width="1.0" stroke-linejoin="round" stroke-linecap="round" d="M243.78482 252.39406C257.91333 268.69922 278.4252 278.06668 300.0 278.06668C321.5748 278.06668 342.08667 268.69922 356.21518 252.39406L412.43036 301.10477C384.17337 333.7151 343.1496 352.45 300.0 352.45C256.8504 352.45 215.82664 333.7151 187.56966 301.10477" fill-rule="nonzero"/><path stroke="#ffffff" stroke-width="1.0" stroke-linejoin="round" stroke-linecap="round" d="M259.78534 141.1081C241.63545 152.77231 229.4442 171.74228 226.37378 193.09749C223.30336 214.45268 229.65634 236.08891 243.78482 252.39406L187.56966 301.10477C159.31267 268.49448 146.60674 225.22205 152.74756 182.51163C158.8884 139.80122 183.2709 101.86129 219.57066 78.53285" fill-rule="nonzero"/><path stroke="#ffffff" stroke-width="1.0" stroke-linejoin="round" stroke-linecap="round" d="M300.0 129.3C285.7404 129.3 271.78128 133.39876 259.78534 141.1081L219.57066 78.53285C243.56256 63.114193 271.48077 54.916668 300.0 54.916668" fill-rule="nonzero"/><path fill="#efefef" d="M19.76875 69.916664L19.76875 58.46354L21.33125 58.46354L27.346874 67.447914L27.346874 58.46354L28.8 58.46354L28.8 69.916664L27.2375 69.916664L21.221874 60.916664L21.221874 69.916664L19.76875 69.916664ZM37.01875 68.885414Q36.2375 69.55729 35.51875 69.83854Q34.8 70.104164 33.971874 70.104164Q32.596874 70.104164 31.8625 69.43229Q31.128124 68.760414 31.128124 67.729164Q31.128124 67.11979 31.409374 66.61979Q31.690624 66.104164 32.128124 65.80729Q32.58125 65.49479 33.14375 65.33854Q33.565624 65.229164 34.39375 65.135414Q36.096874 64.93229 36.909374 64.65104Q36.909374 64.354164 36.909374 64.27604Q36.909374 63.416664 36.51875 63.072914Q35.971874 62.58854 34.909374 62.58854Q33.925 62.58854 33.440624 62.947914Q32.971874 63.291664 32.753124 64.166664L31.378124 63.979164Q31.565624 63.104164 31.9875 62.55729Q32.425 62.010414 33.2375 61.729164Q34.05 61.43229 35.1125 61.43229Q36.175 61.43229 36.83125 61.68229Q37.503124 61.93229 37.815624 62.30729Q38.128124 62.68229 38.253124 63.260414Q38.33125 63.61979 38.33125 64.55729L38.33125 66.43229Q38.33125 68.40104 38.409374 68.916664Q38.503124 69.43229 38.76875 69.916664L37.3 69.916664Q37.08125 69.479164 37.01875 68.885414ZM36.909374 65.74479Q36.14375 66.05729 34.6125 66.27604Q33.7375 66.40104 33.378124 66.55729Q33.01875 66.71354 32.815624 67.02604Q32.628124 67.322914 32.628124 67.68229Q32.628124 68.24479 33.05 68.61979Q33.4875 68.99479 34.3 68.99479Q35.1125 68.99479 35.7375 68.65104Q36.378124 68.291664 36.675 67.666664Q36.909374 67.197914 36.909374 66.260414L36.909374 65.74479ZM42.909374 69.916664L39.753124 61.61979L41.2375 61.61979L43.01875 66.58854Q43.315624 67.385414 43.55 68.260414Q43.7375 67.604164 44.08125 66.68229L45.925 61.61979L47.3625 61.61979L44.221874 69.916664L42.909374 69.916664ZM54.01875 68.885414Q53.2375 69.55729 52.51875 69.83854Q51.8 70.104164 50.971874 70.104164Q49.596874 70.104164 48.8625 69.43229Q48.128124 68.760414 48.128124 67.729164Q48.128124 67.11979 48.409374 66.61979Q48.690624 66.104164 49.128124 65.80729Q49.58125 65.49479 50.14375 65.33854Q50.565624 65.229164 51.39375 65.135414Q53.096874 64.93229 53.909374 64.65104Q53.909374 64.354164 53.909374 64.27604Q53.909374 63.416664 53.51875 63.072914Q52.971874 62.58854 51.909374 62.58854Q50.925 62.58854 50.440624 62.947914Q49.971874 63.291664 49.753124 64.166664L48.378124 63.979164Q48.565624 63.104164 48.9875 62.55729Q49.425 62.010414 50.2375 61.729164Q51.05 61.43229 52.1125 61.43229Q53.175 61.43229 53.83125 61.68229Q54.503124 61.93229 54.815624 62.30729Q55.128124 62.68229 55.253124 63.260414Q55.33125 63.61979 55.33125 64.55729L55.33125 66.43229Q55.33125 68.40104 55.409374 68.916664Q55.503124 69.43229 55.76875 69.916664L54.3 69.916664Q54.08125 69.479164 54.01875 68.885414ZM53.909374 65.74479Q53.14375 66.05729 51.6125 66.27604Q50.7375 66.40104 50.378124 66.55729Q50.01875 66.71354 49.815624 67.02604Q49.628124 67.322914 49.628124 67.68229Q49.628124 68.24479 50.05 68.61979Q50.4875 68.99479 51.3 68.99479Q52.1125 68.99479 52.7375 68.65104Q53.378124 68.291664 53.675 67.666664Q53.909374 67.197914 53.909374 66.260414L53.909374 65.74479ZM57.58125 69.916664L57.58125 58.46354L58.9875 58.46354L58.9875 69.916664L57.58125 69.916664ZM65.26875 66.229164L66.70625 66.104164Q66.8 66.96354 67.175 67.52604Q67.55 68.072914 68.33125 68.416664Q69.1125 68.74479 70.08125 68.74479Q70.95625 68.74479 71.6125 68.49479Q72.28438 68.229164 72.59688 67.791664Q72.925 67.33854 72.925 66.80729Q72.925 66.260414 72.6125 65.86979Q72.3 65.46354 71.58125 65.18229Q71.12813 65.010414 69.55 64.635414Q67.97188 64.24479 67.33125 63.916664Q66.51875 63.479164 66.1125 62.854164Q65.70625 62.21354 65.70625 61.416664Q65.70625 60.55729 66.19063 59.80729Q66.69063 59.041664 67.62813 58.65104Q68.58125 58.260414 69.7375 58.260414Q71.01875 58.260414 71.9875 58.68229Q72.95625 59.08854 73.47188 59.885414Q74.00313 60.68229 74.05 61.68229L72.59688 61.791664Q72.47188 60.71354 71.8 60.166664Q71.12813 59.604164 69.8 59.604164Q68.425 59.604164 67.8 60.104164Q67.175 60.604164 67.175 61.322914Q67.175 61.93229 67.6125 62.33854Q68.05 62.729164 69.89375 63.15104Q71.75313 63.572914 72.44063 63.885414Q73.44063 64.33854 73.90938 65.05729Q74.39375 65.760414 74.39375 66.68229Q74.39375 67.58854 73.8625 68.40104Q73.34688 69.21354 72.3625 69.666664Q71.37813 70.11979 70.15938 70.11979Q68.59688 70.11979 67.55 69.666664Q66.50313 69.197914 65.89375 68.291664Q65.3 67.385414 65.26875 66.229164ZM79.675 68.65104L79.87813 69.90104Q79.28438 70.02604 78.81563 70.02604Q78.05 70.02604 77.62813 69.791664Q77.20625 69.541664 77.03438 69.15104Q76.8625 68.74479 76.8625 67.479164L76.8625 62.71354L75.83125 62.71354L75.83125 61.61979L76.8625 61.61979L76.8625 59.55729L78.26875 58.71354L78.26875 61.61979L79.675 61.61979L79.675 62.71354L78.26875 62.71354L78.26875 67.55729Q78.26875 68.166664 78.33125 68.33854Q78.40938 68.510414 78.58125 68.61979Q78.75313 68.71354 79.06563 68.71354Q79.3 68.71354 79.675 68.65104ZM80.59688 69.916664L80.59688 61.61979L81.8625 61.61979L81.8625 62.86979Q82.34688 61.99479 82.75313 61.71354Q83.15938 61.43229 83.65938 61.43229Q84.3625 61.43229 85.09688 61.885414L84.6125 63.18229Q84.09688 62.885414 83.58125 62.885414Q83.12813 62.885414 82.75313 63.166664Q82.39375 63.43229 82.2375 63.93229Q82.00313 64.68229 82.00313 65.572914L82.00313 69.916664L80.59688 69.916664ZM91.05 69.916664L91.05 68.697914Q90.08125 70.104164 88.40938 70.104164Q87.675 70.104164 87.03438 69.822914Q86.40938 69.541664 86.09688 69.11979Q85.78438 68.68229 85.65938 68.072914Q85.58125 67.65104 85.58125 66.760414L85.58125 61.61979L86.9875 61.61979L86.9875 66.21354Q86.9875 67.322914 87.06563 67.697914Q87.20625 68.260414 87.62813 68.572914Q88.06563 68.885414 88.69063 68.885414Q89.33125 68.885414 89.87813 68.572914Q90.44063 68.24479 90.65938 67.68229Q90.89375 67.11979 90.89375 66.05729L90.89375 61.61979L92.3 61.61979L92.3 69.916664L91.05 69.916664ZM100.01875 66.86979L101.40938 67.05729Q101.175 68.479164 100.2375 69.291664Q99.31563 70.104164 97.95625 70.104164Q96.25313 70.104164 95.20625 68.99479Q94.175 67.86979 94.175 65.791664Q94.175 64.447914 94.6125 63.447914Q95.06563 62.43229 95.97188 61.93229Q96.89375 61.43229 97.95625 61.43229Q99.31563 61.43229 100.175 62.11979Q101.03438 62.791664 101.26875 64.05729L99.90938 64.260414Q99.70625 63.43229 99.20625 63.010414Q98.72188 62.58854 98.01875 62.58854Q96.95625 62.58854 96.28438 63.354164Q95.62813 64.104164 95.62813 65.760414Q95.62813 67.43229 96.26875 68.197914Q96.90938 68.947914 97.94063 68.947914Q98.76875 68.947914 99.31563 68.447914Q99.87813 67.93229 100.01875 66.86979ZM105.675 68.65104L105.87813 69.90104Q105.28438 70.02604 104.81563 70.02604Q104.05 70.02604 103.62813 69.791664Q103.20625 69.541664 103.03438 69.15104Q102.8625 68.74479 102.8625 67.479164L102.8625 62.71354L101.83125 62.71354L101.83125 61.61979L102.8625 61.61979L102.8625 59.55729L104.26875 58.71354L104.26875 61.61979L105.675 61.61979L105.675 62.71354L104.26875 62.71354L104.26875 67.55729Q104.26875 68.166664 104.33125 68.33854Q104.40938 68.510414 104.58125 68.61979Q104.75313 68.71354 105.06563 68.71354Q105.3 68.71354 105.675 68.65104ZM112.05 69.916664L112.05 68.697914Q111.08125 70.104164 109.40938 70.104164Q108.675 70.104164 108.03438 69.822914Q107.40938 69.541664 107.09688 69.11979Q106.78438 68.68229 106.65938 68.072914Q106.58125 67.65104 106.58125 66.760414L106.58125 61.61979L107.9875 61.61979L107.9875 66.21354Q107.9875 67.322914 108.06563 67.697914Q108.20625 68.260414 108.62813 68.572914Q109.06563 68.885414 109.69063 68.885414Q110.33125 68.885414 110.87813 68.572914Q111.44063 68.24479 111.65938 67.68229Q111.89375 67.11979 111.89375 66.05729L111.89375 61.61979L113.3 61.61979L113.3 69.916664L112.05 69.916664ZM115.59688 69.916664L115.59688 61.61979L116.8625 61.61979L116.8625 62.86979Q117.34688 61.99479 117.75313 61.71354Q118.15938 61.43229 118.65938 61.43229Q119.3625 61.43229 120.09688 61.885414L119.6125 63.18229Q119.09688 62.885414 118.58125 62.885414Q118.12813 62.885414 117.75313 63.166664Q117.39375 63.43229 117.2375 63.93229Q117.00313 64.68229 117.00313 65.572914L117.00313 69.916664L115.59688 69.916664ZM126.28438 67.24479L127.7375 67.416664Q127.39375 68.697914 126.45625 69.40104Q125.53438 70.104164 124.09688 70.104164Q122.26875 70.104164 121.20625 68.979164Q120.14375 67.854164 120.14375 65.83854Q120.14375 63.74479 121.22188 62.58854Q122.3 61.43229 124.01875 61.43229Q125.675 61.43229 126.72188 62.572914Q127.78438 63.697914 127.78438 65.74479Q127.78438 65.86979 127.78438 66.11979L121.59688 66.11979Q121.675 67.49479 122.3625 68.229164Q123.06563 68.947914 124.09688 68.947914Q124.87813 68.947914 125.425 68.541664Q125.97188 68.135414 126.28438 67.24479ZM121.675 64.96354L126.3 64.96354Q126.20625 63.916664 125.76875 63.40104Q125.09688 62.58854 124.03438 62.58854Q123.06563 62.58854 122.39375 63.24479Q121.7375 63.885414 121.675 64.96354ZM129.05 67.43229L130.44063 67.21354Q130.55 68.05729 131.08125 68.510414Q131.62813 68.947914 132.58125 68.947914Q133.55 68.947914 134.01875 68.55729Q134.4875 68.15104 134.4875 67.61979Q134.4875 67.15104 134.08125 66.86979Q133.78438 66.68229 132.64375 66.40104Q131.09688 66.010414 130.4875 65.729164Q129.89375 65.43229 129.58125 64.93229Q129.28438 64.43229 129.28438 63.822914Q129.28438 63.260414 129.53438 62.791664Q129.78438 62.322914 130.22188 62.010414Q130.55 61.760414 131.1125 61.604164Q131.69063 61.43229 132.33125 61.43229Q133.31563 61.43229 134.05 61.71354Q134.78438 61.99479 135.12813 62.479164Q135.4875 62.947914 135.62813 63.760414L134.25313 63.947914Q134.15938 63.30729 133.70625 62.947914Q133.25313 62.58854 132.44063 62.58854Q131.47188 62.58854 131.05 62.916664Q130.64375 63.229164 130.64375 63.65104Q130.64375 63.93229 130.81563 64.15104Q130.9875 64.36979 131.34688 64.52604Q131.56563 64.604164 132.59688 64.885414Q134.08125 65.27604 134.675 65.541664Q135.26875 65.791664 135.59688 66.27604Q135.94063 66.760414 135.94063 67.479164Q135.94063 68.18229 135.51875 68.80729Q135.1125 69.416664 134.33125 69.760414Q133.56563 70.104164 132.59688 70.104164Q130.97188 70.104164 130.12813 69.43229Q129.28438 68.760414 129.05 67.43229Z" fill-rule="nonzero"/><path fill="#9e9e9e" d="M19.425 89.260414L20.784374 89.135414Q20.95625 90.08854 21.440624 90.52604Q21.925 90.947914 22.675 90.947914Q23.33125 90.947914 23.815624 90.65104Q24.3 90.354164 24.6125 89.86979Q24.925 89.36979 25.128124 88.52604Q25.346874 87.68229 25.346874 86.80729Q25.346874 86.71354 25.346874 86.52604Q24.925 87.197914 24.190624 87.61979Q23.45625 88.02604 22.6125 88.02604Q21.190624 88.02604 20.20625 86.99479Q19.221874 85.96354 19.221874 84.27604Q19.221874 82.541664 20.2375 81.479164Q21.26875 80.416664 22.815624 80.416664Q23.940624 80.416664 24.8625 81.02604Q25.784374 81.61979 26.26875 82.729164Q26.753124 83.83854 26.753124 85.947914Q26.753124 88.15104 26.26875 89.447914Q25.8 90.74479 24.846874 91.43229Q23.909374 92.11979 22.64375 92.11979Q21.3 92.11979 20.440624 91.36979Q19.596874 90.61979 19.425 89.260414ZM25.190624 84.21354Q25.190624 82.99479 24.534374 82.291664Q23.89375 81.572914 22.9875 81.572914Q22.05 81.572914 21.346874 82.33854Q20.659374 83.104164 20.659374 84.322914Q20.659374 85.416664 21.315624 86.104164Q21.9875 86.791664 22.95625 86.791664Q23.925 86.791664 24.55 86.104164Q25.190624 85.416664 25.190624 84.21354ZM29.003124 91.916664L29.003124 90.30729L30.6125 90.30729L30.6125 91.916664L29.003124 91.916664ZM37.51875 91.916664L36.1125 91.916664L36.1125 82.947914Q35.596874 83.43229 34.76875 83.916664Q33.95625 84.40104 33.3 84.65104L33.3 83.291664Q34.471874 82.729164 35.346874 81.947914Q36.2375 81.15104 36.6125 80.416664L37.51875 80.416664L37.51875 91.916664ZM41.4875 83.21354Q41.4875 81.979164 42.096874 81.11979Q42.721874 80.260414 43.89375 80.260414Q44.971874 80.260414 45.675 81.041664Q46.378124 81.80729 46.378124 83.291664Q46.378124 84.74479 45.659374 85.541664Q44.95625 86.322914 43.909374 86.322914Q42.8625 86.322914 42.175 85.55729Q41.4875 84.77604 41.4875 83.21354ZM43.925 81.229164Q43.409374 81.229164 43.05 81.68229Q42.70625 82.135414 42.70625 83.354164Q42.70625 84.447914 43.05 84.90104Q43.409374 85.354164 43.925 85.354164Q44.45625 85.354164 44.8 84.90104Q45.159374 84.447914 45.159374 83.24479Q45.159374 82.135414 44.8 81.68229Q44.45625 81.229164 43.925 81.229164ZM43.940624 92.33854L50.20625 80.260414L51.346874 80.260414L45.096874 92.33854L43.940624 92.33854ZM48.89375 89.229164Q48.89375 87.99479 49.503124 87.135414Q50.128124 86.27604 51.3 86.27604Q52.378124 86.27604 53.08125 87.05729Q53.8 87.822914 53.8 89.30729Q53.8 90.760414 53.08125 91.55729Q52.3625 92.33854 51.315624 92.33854Q50.26875 92.33854 49.58125 91.55729Q48.89375 90.77604 48.89375 89.229164ZM51.346874 87.24479Q50.815624 87.24479 50.45625 87.697914Q50.1125 88.15104 50.1125 89.36979Q50.1125 90.46354 50.45625 90.916664Q50.815624 91.36979 51.33125 91.36979Q51.878124 91.36979 52.221874 90.916664Q52.565624 90.46354 52.565624 89.260414Q52.565624 88.15104 52.20625 87.697914Q51.8625 87.24479 51.346874 87.24479Z" fill-rule="nonzero"/><path stroke="#757575" stroke-width="1.0" stroke-linecap="butt" d="M18.55 75.416664L145.23334 75.416664L260.1832 68.07979" fill-rule="nonzero"/><path fill="#9e9e9e" d="M262.1832 68.07979C262.1832 66.97522 261.28778 66.07979 260.1832 66.07979C259.07864 66.07979 258.1832 66.97522 258.1832 68.07979C258.1832 69.18436 259.07864 70.07979 260.1832 70.07979C261.28778 70.07979 262.1832 69.18436 262.1832 68.07979" fill-rule="nonzero"/><path fill="#efefef" d="M18.51875 178.07022L22.925 166.6171L24.565624 166.6171L29.253124 178.07022L27.51875 178.07022L26.190624 174.60147L21.39375 174.60147L20.14375 178.07022L18.51875 178.07022ZM21.83125 173.3671L25.721874 173.3671L24.51875 170.19522Q23.971874 168.7421 23.70625 167.82022Q23.4875 168.91397 23.096874 170.00772L21.83125 173.3671ZM30.596874 178.07022L30.596874 169.77335L31.8625 169.77335L31.8625 171.02335Q32.346874 170.14835 32.753124 169.8671Q33.159374 169.58585 33.659374 169.58585Q34.3625 169.58585 35.096874 170.03897L34.6125 171.33585Q34.096874 171.03897 33.58125 171.03897Q33.128124 171.03897 32.753124 171.32022Q32.39375 171.58585 32.2375 172.08585Q32.003124 172.83585 32.003124 173.72647L32.003124 178.07022L30.596874 178.07022ZM41.01875 175.02335L42.409374 175.21085Q42.175 176.63272 41.2375 177.44522Q40.315624 178.25772 38.95625 178.25772Q37.253124 178.25772 36.20625 177.14835Q35.175 176.02335 35.175 173.94522Q35.175 172.60147 35.6125 171.60147Q36.065624 170.58585 36.971874 170.08585Q37.89375 169.58585 38.95625 169.58585Q40.315624 169.58585 41.175 170.27335Q42.034374 170.94522 42.26875 172.21085L40.909374 172.41397Q40.70625 171.58585 40.20625 171.16397Q39.721874 170.7421 39.01875 170.7421Q37.95625 170.7421 37.284374 171.50772Q36.628124 172.25772 36.628124 173.91397Q36.628124 175.58585 37.26875 176.35147Q37.909374 177.10147 38.940624 177.10147Q39.76875 177.10147 40.315624 176.60147Q40.878124 176.08585 41.01875 175.02335ZM43.6125 178.07022L43.6125 166.6171L45.01875 166.6171L45.01875 170.72647Q46.003124 169.58585 47.503124 169.58585Q48.425 169.58585 49.096874 169.94522Q49.784374 170.3046 50.065624 170.94522Q50.3625 171.58585 50.3625 172.8046L50.3625 178.07022L48.95625 178.07022L48.95625 172.8046Q48.95625 171.75772 48.503124 171.27335Q48.05 170.78897 47.20625 170.78897Q46.58125 170.78897 46.034374 171.1171Q45.4875 171.44522 45.253124 172.00772Q45.01875 172.5546 45.01875 173.52335L45.01875 178.07022L43.6125 178.07022ZM52.6125 168.22647L52.6125 166.6171L54.01875 166.6171L54.01875 168.22647L52.6125 168.22647ZM52.6125 178.07022L52.6125 169.77335L54.01875 169.77335L54.01875 178.07022L52.6125 178.07022ZM59.675 176.8046L59.878124 178.0546Q59.284374 178.1796 58.815624 178.1796Q58.05 178.1796 57.628124 177.94522Q57.20625 177.69522 57.034374 177.3046Q56.8625 176.89835 56.8625 175.63272L56.8625 170.8671L55.83125 170.8671L55.83125 169.77335L56.8625 169.77335L56.8625 167.71085L58.26875 166.8671L58.26875 169.77335L59.675 169.77335L59.675 170.8671L58.26875 170.8671L58.26875 175.71085Q58.26875 176.32022 58.33125 176.4921Q58.409374 176.66397 58.58125 176.77335Q58.753124 176.8671 59.065624 176.8671Q59.3 176.8671 59.675 176.8046ZM66.28438 175.39835L67.7375 175.57022Q67.39375 176.85147 66.45625 177.5546Q65.53438 178.25772 64.09688 178.25772Q62.26875 178.25772 61.20625 177.13272Q60.14375 176.00772 60.14375 173.9921Q60.14375 171.89835 61.221874 170.7421Q62.3 169.58585 64.01875 169.58585Q65.675 169.58585 66.72188 170.72647Q67.78438 171.85147 67.78438 173.89835Q67.78438 174.02335 67.78438 174.27335L61.596874 174.27335Q61.675 175.64835 62.3625 176.38272Q63.065624 177.10147 64.09688 177.10147Q64.87813 177.10147 65.425 176.69522Q65.97188 176.28897 66.28438 175.39835ZM61.675 173.1171L66.3 173.1171Q66.20625 172.07022 65.76875 171.5546Q65.09688 170.7421 64.03438 170.7421Q63.065624 170.7421 62.39375 171.39835Q61.7375 172.03897 61.675 173.1171ZM75.01875 175.02335L76.40938 175.21085Q76.175 176.63272 75.2375 177.44522Q74.31563 178.25772 72.95625 178.25772Q71.25313 178.25772 70.20625 177.14835Q69.175 176.02335 69.175 173.94522Q69.175 172.60147 69.6125 171.60147Q70.06563 170.58585 70.97188 170.08585Q71.89375 169.58585 72.95625 169.58585Q74.31563 169.58585 75.175 170.27335Q76.03438 170.94522 76.26875 172.21085L74.90938 172.41397Q74.70625 171.58585 74.20625 171.16397Q73.72188 170.7421 73.01875 170.7421Q71.95625 170.7421 71.28438 171.50772Q70.62813 172.25772 70.62813 173.91397Q70.62813 175.58585 71.26875 176.35147Q71.90938 177.10147 72.94063 177.10147Q73.76875 177.10147 74.31563 176.60147Q74.87813 176.08585 75.01875 175.02335ZM80.675 176.8046L80.87813 178.0546Q80.28438 178.1796 79.81563 178.1796Q79.05 178.1796 78.62813 177.94522Q78.20625 177.69522 78.03438 177.3046Q77.8625 176.89835 77.8625 175.63272L77.8625 170.8671L76.83125 170.8671L76.83125 169.77335L77.8625 169.77335L77.8625 167.71085L79.26875 166.8671L79.26875 169.77335L80.675 169.77335L80.675 170.8671L79.26875 170.8671L79.26875 175.71085Q79.26875 176.32022 79.33125 176.4921Q79.40938 176.66397 79.58125 176.77335Q79.75313 176.8671 80.06563 176.8671Q80.3 176.8671 80.675 176.8046ZM87.05 178.07022L87.05 176.85147Q86.08125 178.25772 84.40938 178.25772Q83.675 178.25772 83.03438 177.97647Q82.40938 177.69522 82.09688 177.27335Q81.78438 176.83585 81.65938 176.22647Q81.58125 175.8046 81.58125 174.91397L81.58125 169.77335L82.9875 169.77335L82.9875 174.3671Q82.9875 175.47647 83.06563 175.85147Q83.20625 176.41397 83.62813 176.72647Q84.06563 177.03897 84.69063 177.03897Q85.33125 177.03897 85.87813 176.72647Q86.44063 176.39835 86.65938 175.83585Q86.89375 175.27335 86.89375 174.21085L86.89375 169.77335L88.3 169.77335L88.3 178.07022L87.05 178.07022ZM90.59688 178.07022L90.59688 169.77335L91.8625 169.77335L91.8625 171.02335Q92.34688 170.14835 92.75313 169.8671Q93.15938 169.58585 93.65938 169.58585Q94.3625 169.58585 95.09688 170.03897L94.6125 171.33585Q94.09688 171.03897 93.58125 171.03897Q93.12813 171.03897 92.75313 171.32022Q92.39375 171.58585 92.2375 172.08585Q92.00313 172.83585 92.00313 173.72647L92.00313 178.07022L90.59688 178.07022ZM101.28438 175.39835L102.7375 175.57022Q102.39375 176.85147 101.45625 177.5546Q100.53438 178.25772 99.09688 178.25772Q97.26875 178.25772 96.20625 177.13272Q95.14375 176.00772 95.14375 173.9921Q95.14375 171.89835 96.22188 170.7421Q97.3 169.58585 99.01875 169.58585Q100.675 169.58585 101.72188 170.72647Q102.78438 171.85147 102.78438 173.89835Q102.78438 174.02335 102.78438 174.27335L96.59688 174.27335Q96.675 175.64835 97.3625 176.38272Q98.06563 177.10147 99.09688 177.10147Q99.87813 177.10147 100.425 176.69522Q100.97188 176.28897 101.28438 175.39835ZM96.675 173.1171L101.3 173.1171Q101.20625 172.07022 100.76875 171.5546Q100.09688 170.7421 99.03438 170.7421Q98.06563 170.7421 97.39375 171.39835Q96.7375 172.03897 96.675 173.1171ZM115.15938 176.71085Q114.45625 177.4921 113.62813 177.88272Q112.81563 178.27335 111.8625 178.27335Q110.1125 178.27335 109.08125 177.07022Q108.2375 176.10147 108.2375 174.91397Q108.2375 173.85147 108.925 172.9921Q109.6125 172.13272 110.97188 171.4921Q110.19063 170.60147 109.925 170.0546Q109.675 169.4921 109.675 168.97647Q109.675 167.94522 110.4875 167.1796Q111.3 166.41397 112.51875 166.41397Q113.69063 166.41397 114.44063 167.13272Q115.19063 167.85147 115.19063 168.8671Q115.19063 170.4921 113.01875 171.64835L115.08125 174.27335Q115.425 173.58585 115.62813 172.6796L117.08125 172.9921Q116.70625 174.4921 116.06563 175.46085Q116.8625 176.50772 117.8625 177.21085L116.90938 178.33585Q116.06563 177.78897 115.15938 176.71085ZM112.3 170.7421Q113.20625 170.21085 113.47188 169.8046Q113.75313 169.39835 113.75313 168.89835Q113.75313 168.32022 113.37813 167.94522Q113.00313 167.57022 112.45625 167.57022Q111.87813 167.57022 111.50313 167.94522Q111.12813 168.3046 111.12813 168.83585Q111.12813 169.10147 111.25313 169.39835Q111.39375 169.69522 111.675 170.02335L112.3 170.7421ZM114.26875 175.60147L111.69063 172.41397Q110.55 173.08585 110.14375 173.6796Q109.75313 174.25772 109.75313 174.82022Q109.75313 175.52335 110.3 176.27335Q110.8625 177.02335 111.87813 177.02335Q112.51875 177.02335 113.19063 176.63272Q113.8625 176.22647 114.26875 175.60147Z" fill-rule="nonzero"/><path fill="#9e9e9e" d="M26.6125 198.71085L26.6125 200.07022L19.034374 200.07022Q19.01875 199.5546 19.20625 199.08585Q19.4875 198.32022 20.128124 197.57022Q20.76875 196.82022 21.971874 195.83585Q23.83125 194.3046 24.4875 193.41397Q25.14375 192.50772 25.14375 191.71085Q25.14375 190.88272 24.55 190.3046Q23.95625 189.72647 22.9875 189.72647Q21.971874 189.72647 21.3625 190.33585Q20.753124 190.94522 20.753124 192.02335L19.3 191.88272Q19.45625 190.25772 20.425 189.41397Q21.39375 188.57022 23.01875 188.57022Q24.675 188.57022 25.628124 189.4921Q26.596874 190.39835 26.596874 191.7421Q26.596874 192.4296 26.315624 193.10147Q26.034374 193.75772 25.378124 194.4921Q24.721874 195.22647 23.20625 196.50772Q21.940624 197.57022 21.58125 197.96085Q21.221874 198.33585 20.9875 198.71085L26.6125 198.71085ZM28.315624 190.1171L28.315624 188.75772L35.721874 188.75772L35.721874 189.85147Q34.628124 191.02335 33.55 192.96085Q32.4875 194.88272 31.89375 196.91397Q31.471874 198.35147 31.3625 200.07022L29.909374 200.07022Q29.940624 198.71085 30.440624 196.8046Q30.95625 194.88272 31.89375 193.1171Q32.846874 191.33585 33.925 190.1171L28.315624 190.1171ZM38.003124 200.07022L38.003124 198.46085L39.6125 198.46085L39.6125 200.07022L38.003124 200.07022ZM41.221874 197.03897L42.628124 196.85147Q42.878124 198.0546 43.45625 198.58585Q44.034374 199.10147 44.878124 199.10147Q45.8625 199.10147 46.55 198.41397Q47.2375 197.72647 47.2375 196.71085Q47.2375 195.7421 46.596874 195.1171Q45.971874 194.4921 44.9875 194.4921Q44.596874 194.4921 44.003124 194.64835L44.159374 193.41397Q44.3 193.4296 44.378124 193.4296Q45.284374 193.4296 46.003124 192.96085Q46.721874 192.4921 46.721874 191.50772Q46.721874 190.7421 46.190624 190.2421Q45.675 189.72647 44.846874 189.72647Q44.01875 189.72647 43.471874 190.2421Q42.925 190.75772 42.76875 191.78897L41.3625 191.53897Q41.628124 190.1171 42.534374 189.35147Q43.45625 188.57022 44.815624 188.57022Q45.753124 188.57022 46.534374 188.97647Q47.33125 189.3671 47.7375 190.07022Q48.159374 190.75772 48.159374 191.53897Q48.159374 192.28897 47.753124 192.89835Q47.3625 193.50772 46.58125 193.8671Q47.596874 194.10147 48.159374 194.83585Q48.721874 195.57022 48.721874 196.6796Q48.721874 198.1796 47.628124 199.22647Q46.534374 200.27335 44.8625 200.27335Q43.3625 200.27335 42.3625 199.38272Q41.3625 198.47647 41.221874 197.03897ZM50.4875 191.3671Q50.4875 190.13272 51.096874 189.27335Q51.721874 188.41397 52.89375 188.41397Q53.971874 188.41397 54.675 189.19522Q55.378124 189.96085 55.378124 191.44522Q55.378124 192.89835 54.659374 193.69522Q53.95625 194.47647 52.909374 194.47647Q51.8625 194.47647 51.175 193.71085Q50.4875 192.9296 50.4875 191.3671ZM52.925 189.38272Q52.409374 189.38272 52.05 189.83585Q51.70625 190.28897 51.70625 191.50772Q51.70625 192.60147 52.05 193.0546Q52.409374 193.50772 52.925 193.50772Q53.45625 193.50772 53.8 193.0546Q54.159374 192.60147 54.159374 191.39835Q54.159374 190.28897 53.8 189.83585Q53.45625 189.38272 52.925 189.38272ZM52.940624 200.4921L59.20625 188.41397L60.346874 188.41397L54.096874 200.4921L52.940624 200.4921ZM57.89375 197.38272Q57.89375 196.14835 58.503124 195.28897Q59.128124 194.4296 60.3 194.4296Q61.378124 194.4296 62.08125 195.21085Q62.8 195.97647 62.8 197.46085Q62.8 198.91397 62.08125 199.71085Q61.3625 200.4921 60.315624 200.4921Q59.26875 200.4921 58.58125 199.71085Q57.89375 198.9296 57.89375 197.38272ZM60.346874 195.39835Q59.815624 195.39835 59.45625 195.85147Q59.1125 196.3046 59.1125 197.52335Q59.1125 198.6171 59.45625 199.07022Q59.815624 199.52335 60.33125 199.52335Q60.878124 199.52335 61.221874 199.07022Q61.565624 198.6171 61.565624 197.41397Q61.565624 196.3046 61.20625 195.85147Q60.8625 195.39835 60.346874 195.39835Z" fill-rule="nonzero"/><path stroke="#757575" stroke-width="1.0" stroke-linecap="butt" d="M18.55 183.57022L145.23334 183.57022L160.11018 183.57022" fill-rule="nonzero"/><path fill="#9e9e9e" d="M162.11018 183.57022C162.11018 182.46565 161.21475 181.57022 160.11018 181.57022C159.00562 181.57022 158.11018 182.46565 158.11018 183.57022C158.11018 184.67479 159.00562 185.57022 160.11018 185.57022C161.21475 185.57022 162.11018 184.67479 162.11018 183.57022" fill-rule="nonzero"/><path fill="#efefef" d="M481.71564 139.47342L481.71564 128.0203L489.9969 128.0203L489.9969 129.36404L483.23126 129.36404L483.23126 132.87967L489.575 132.87967L489.575 134.22342L483.23126 134.22342L483.23126 138.11404L490.2625 138.11404L490.2625 139.47342L481.71564 139.47342ZM495.575 138.2078L495.77814 139.4578Q495.1844 139.5828 494.71564 139.5828Q493.95 139.5828 493.52814 139.34842Q493.10626 139.09842 492.9344 138.7078Q492.7625 138.30154 492.7625 137.03592L492.7625 132.2703L491.73126 132.2703L491.73126 131.17654L492.7625 131.17654L492.7625 129.11404L494.16876 128.2703L494.16876 131.17654L495.575 131.17654L495.575 132.2703L494.16876 132.2703L494.16876 137.11404Q494.16876 137.72342 494.23126 137.8953Q494.3094 138.06717 494.48126 138.17654Q494.65314 138.2703 494.96564 138.2703Q495.2 138.2703 495.575 138.2078ZM496.5125 139.47342L496.5125 128.0203L497.91876 128.0203L497.91876 132.12967Q498.90314 130.98904 500.40314 130.98904Q501.325 130.98904 501.9969 131.34842Q502.6844 131.7078 502.96564 132.34842Q503.2625 132.98904 503.2625 134.2078L503.2625 139.47342L501.85626 139.47342L501.85626 134.2078Q501.85626 133.16092 501.40314 132.67654Q500.95 132.19217 500.10626 132.19217Q499.48126 132.19217 498.9344 132.5203Q498.3875 132.84842 498.15314 133.41092Q497.91876 133.9578 497.91876 134.92654L497.91876 139.47342L496.5125 139.47342ZM505.5125 139.47342L505.5125 131.17654L506.77814 131.17654L506.77814 132.34842Q507.6844 130.98904 509.41876 130.98904Q510.16876 130.98904 510.79376 131.25467Q511.41876 131.5203 511.73126 131.9578Q512.04376 132.3953 512.16876 133.00467Q512.2469 133.3953 512.2469 134.36404L512.2469 139.47342L510.84064 139.47342L510.84064 134.42654Q510.84064 133.56717 510.66876 133.1453Q510.5125 132.7078 510.09064 132.4578Q509.6844 132.2078 509.1219 132.2078Q508.21564 132.2078 507.5594 132.78592Q506.91876 133.34842 506.91876 134.94217L506.91876 139.47342L505.5125 139.47342ZM514.5125 129.62967L514.5125 128.0203L515.91876 128.0203L515.91876 129.62967L514.5125 129.62967ZM514.5125 139.47342L514.5125 131.17654L515.91876 131.17654L515.91876 139.47342L514.5125 139.47342ZM523.91876 136.42654L525.3094 136.61404Q525.075 138.03592 524.1375 138.84842Q523.21564 139.66092 521.85626 139.66092Q520.15314 139.66092 519.10626 138.55154Q518.075 137.42654 518.075 135.34842Q518.075 134.00467 518.5125 133.00467Q518.96564 131.98904 519.8719 131.48904Q520.79376 130.98904 521.85626 130.98904Q523.21564 130.98904 524.075 131.67654Q524.9344 132.34842 525.16876 133.61404L523.8094 133.81717Q523.60626 132.98904 523.10626 132.56717Q522.6219 132.1453 521.91876 132.1453Q520.85626 132.1453 520.1844 132.91092Q519.52814 133.66092 519.52814 135.31717Q519.52814 136.98904 520.16876 137.75467Q520.8094 138.50467 521.84064 138.50467Q522.66876 138.50467 523.21564 138.00467Q523.77814 137.48904 523.91876 136.42654ZM536.04376 134.97342L536.04376 133.62967L540.90314 133.62967L540.90314 137.87967Q539.77814 138.7703 538.59064 139.22342Q537.40314 139.67654 536.15314 139.67654Q534.46564 139.67654 533.09064 138.9578Q531.71564 138.22342 531.0125 136.86404Q530.3094 135.48904 530.3094 133.80154Q530.3094 132.12967 530.9969 130.67654Q531.7 129.22342 533.0125 128.5203Q534.325 127.81717 536.04376 127.81717Q537.27814 127.81717 538.27814 128.22342Q539.29376 128.62967 539.85626 129.34842Q540.4344 130.06717 540.73126 131.22342L539.35626 131.59842Q539.10626 130.72342 538.71564 130.22342Q538.34064 129.72342 537.6219 129.42654Q536.91876 129.11404 536.04376 129.11404Q535.0125 129.11404 534.2469 129.44217Q533.4969 129.75467 533.02814 130.2703Q532.5594 130.78592 532.3094 131.3953Q531.8719 132.4578 531.8719 133.7078Q531.8719 135.23904 532.3875 136.2703Q532.91876 137.30154 533.91876 137.80154Q534.9344 138.30154 536.075 138.30154Q537.0594 138.30154 537.9969 137.92654Q538.9344 137.53592 539.41876 137.11404L539.41876 134.97342L536.04376 134.97342ZM542.4969 139.47342L542.4969 131.17654L543.7625 131.17654L543.7625 132.42654Q544.2469 131.55154 544.65314 131.2703Q545.0594 130.98904 545.5594 130.98904Q546.2625 130.98904 546.9969 131.44217L546.5125 132.73904Q545.9969 132.44217 545.48126 132.44217Q545.02814 132.44217 544.65314 132.72342Q544.29376 132.98904 544.1375 133.48904Q543.90314 134.23904 543.90314 135.12967L543.90314 139.47342L542.4969 139.47342ZM546.98126 135.31717Q546.98126 133.0203 548.2625 131.91092Q549.34064 130.98904 550.8719 130.98904Q552.59064 130.98904 553.66876 132.11404Q554.7625 133.22342 554.7625 135.2078Q554.7625 136.80154 554.27814 137.72342Q553.79376 138.6453 552.8719 139.16092Q551.96564 139.66092 550.8719 139.66092Q549.1375 139.66092 548.0594 138.55154Q546.98126 137.42654 546.98126 135.31717ZM548.4344 135.31717Q548.4344 136.91092 549.1219 137.7078Q549.825 138.50467 550.8719 138.50467Q551.91876 138.50467 552.60626 137.7078Q553.3094 136.91092 553.3094 135.2703Q553.3094 133.73904 552.60626 132.94217Q551.91876 132.1453 550.8719 132.1453Q549.825 132.1453 549.1219 132.94217Q548.4344 133.72342 548.4344 135.31717ZM561.95 139.47342L561.95 138.25467Q560.98126 139.66092 559.3094 139.66092Q558.575 139.66092 557.9344 139.37967Q557.3094 139.09842 556.9969 138.67654Q556.6844 138.23904 556.5594 137.62967Q556.48126 137.2078 556.48126 136.31717L556.48126 131.17654L557.8875 131.17654L557.8875 135.7703Q557.8875 136.87967 557.96564 137.25467Q558.10626 137.81717 558.52814 138.12967Q558.96564 138.44217 559.59064 138.44217Q560.23126 138.44217 560.77814 138.12967Q561.34064 137.80154 561.5594 137.23904Q561.79376 136.67654 561.79376 135.61404L561.79376 131.17654L563.2 131.17654L563.2 139.47342L561.95 139.47342ZM565.5125 142.66092L565.5125 131.17654L566.79376 131.17654L566.79376 132.25467Q567.2469 131.61404 567.8094 131.30154Q568.3875 130.98904 569.2 130.98904Q570.2625 130.98904 571.075 131.53592Q571.8875 132.0828 572.29376 133.0828Q572.71564 134.06717 572.71564 135.25467Q572.71564 136.53592 572.2469 137.55154Q571.79376 138.56717 570.91876 139.11404Q570.0594 139.66092 569.09064 139.66092Q568.3875 139.66092 567.825 139.36404Q567.27814 139.06717 566.91876 138.61404L566.91876 142.66092L565.5125 142.66092ZM566.77814 135.36404Q566.77814 136.97342 567.41876 137.73904Q568.075 138.50467 568.9969 138.50467Q569.9344 138.50467 570.60626 137.7078Q571.27814 136.91092 571.27814 135.25467Q571.27814 133.66092 570.6219 132.87967Q569.96564 132.0828 569.0594 132.0828Q568.16876 132.0828 567.46564 132.92654Q566.77814 133.7703 566.77814 135.36404ZM573.95 136.98904L575.34064 136.7703Q575.45 137.61404 575.98126 138.06717Q576.52814 138.50467 577.48126 138.50467Q578.45 138.50467 578.91876 138.11404Q579.3875 137.7078 579.3875 137.17654Q579.3875 136.7078 578.98126 136.42654Q578.6844 136.23904 577.54376 135.9578Q575.9969 135.56717 575.3875 135.28592Q574.79376 134.98904 574.48126 134.48904Q574.1844 133.98904 574.1844 133.37967Q574.1844 132.81717 574.4344 132.34842Q574.6844 131.87967 575.1219 131.56717Q575.45 131.31717 576.0125 131.16092Q576.59064 130.98904 577.23126 130.98904Q578.21564 130.98904 578.95 131.2703Q579.6844 131.55154 580.02814 132.03592Q580.3875 132.50467 580.52814 133.31717L579.15314 133.50467Q579.0594 132.86404 578.60626 132.50467Q578.15314 132.1453 577.34064 132.1453Q576.3719 132.1453 575.95 132.47342Q575.54376 132.78592 575.54376 133.2078Q575.54376 133.48904 575.71564 133.7078Q575.8875 133.92654 576.2469 134.0828Q576.46564 134.16092 577.4969 134.44217Q578.98126 134.8328 579.575 135.09842Q580.16876 135.34842 580.4969 135.8328Q580.84064 136.31717 580.84064 137.03592Q580.84064 137.73904 580.41876 138.36404Q580.0125 138.97342 579.23126 139.31717Q578.46564 139.66092 577.4969 139.66092Q575.8719 139.66092 575.02814 138.98904Q574.1844 138.31717 573.95 136.98904Z" fill-rule="nonzero"/><path fill="#9e9e9e" d="M537.1219 158.44217L538.52814 158.25467Q538.77814 159.4578 539.35626 159.98904Q539.9344 160.50467 540.77814 160.50467Q541.7625 160.50467 542.45 159.81717Q543.1375 159.12967 543.1375 158.11404Q543.1375 157.1453 542.4969 156.5203Q541.8719 155.8953 540.8875 155.8953Q540.4969 155.8953 539.90314 156.05154L540.0594 154.81717Q540.2 154.8328 540.27814 154.8328Q541.1844 154.8328 541.90314 154.36404Q542.6219 153.8953 542.6219 152.91092Q542.6219 152.1453 542.09064 151.6453Q541.575 151.12967 540.7469 151.12967Q539.91876 151.12967 539.3719 151.6453Q538.825 152.16092 538.66876 153.19217L537.2625 152.94217Q537.52814 151.5203 538.4344 150.75467Q539.35626 149.97342 540.71564 149.97342Q541.65314 149.97342 542.4344 150.37967Q543.23126 150.7703 543.6375 151.47342Q544.0594 152.16092 544.0594 152.94217Q544.0594 153.69217 543.65314 154.30154Q543.2625 154.91092 542.48126 155.2703Q543.4969 155.50467 544.0594 156.23904Q544.6219 156.97342 544.6219 158.0828Q544.6219 159.5828 543.52814 160.62967Q542.4344 161.67654 540.7625 161.67654Q539.2625 161.67654 538.2625 160.78592Q537.2625 159.87967 537.1219 158.44217ZM553.41876 152.81717L552.0125 152.92654Q551.825 152.09842 551.48126 151.72342Q550.91876 151.12967 550.075 151.12967Q549.40314 151.12967 548.90314 151.50467Q548.23126 151.98904 547.84064 152.92654Q547.46564 153.84842 547.45 155.56717Q547.96564 154.78592 548.7 154.41092Q549.4344 154.03592 550.23126 154.03592Q551.6375 154.03592 552.6219 155.0828Q553.6219 156.11404 553.6219 157.75467Q553.6219 158.8328 553.15314 159.75467Q552.6844 160.67654 551.8719 161.17654Q551.0594 161.67654 550.02814 161.67654Q548.27814 161.67654 547.16876 160.37967Q546.0594 159.0828 546.0594 156.11404Q546.0594 152.78592 547.27814 151.28592Q548.35626 149.97342 550.16876 149.97342Q551.5125 149.97342 552.3719 150.73904Q553.2469 151.48904 553.41876 152.81717ZM547.66876 157.75467Q547.66876 158.48904 547.98126 159.16092Q548.29376 159.81717 548.84064 160.16092Q549.40314 160.50467 550.0125 160.50467Q550.90314 160.50467 551.54376 159.78592Q552.1844 159.06717 552.1844 157.8328Q552.1844 156.6453 551.54376 155.97342Q550.91876 155.28592 549.95 155.28592Q548.9969 155.28592 548.325 155.97342Q547.66876 156.6453 547.66876 157.75467ZM555.90314 161.47342L555.90314 159.86404L557.5125 159.86404L557.5125 161.47342L555.90314 161.47342ZM563.6219 161.47342L563.6219 158.72342L558.65314 158.72342L558.65314 157.44217L563.8875 150.0203L565.02814 150.0203L565.02814 157.44217L566.575 157.44217L566.575 158.72342L565.02814 158.72342L565.02814 161.47342L563.6219 161.47342ZM563.6219 157.44217L563.6219 152.2703L560.04376 157.44217L563.6219 157.44217ZM568.3875 152.7703Q568.3875 151.53592 568.9969 150.67654Q569.6219 149.81717 570.79376 149.81717Q571.8719 149.81717 572.575 150.59842Q573.27814 151.36404 573.27814 152.84842Q573.27814 154.30154 572.5594 155.09842Q571.85626 155.87967 570.8094 155.87967Q569.7625 155.87967 569.075 155.11404Q568.3875 154.3328 568.3875 152.7703ZM570.825 150.78592Q570.3094 150.78592 569.95 151.23904Q569.60626 151.69217 569.60626 152.91092Q569.60626 154.00467 569.95 154.4578Q570.3094 154.91092 570.825 154.91092Q571.35626 154.91092 571.7 154.4578Q572.0594 154.00467 572.0594 152.80154Q572.0594 151.69217 571.7 151.23904Q571.35626 150.78592 570.825 150.78592ZM570.84064 161.8953L577.10626 149.81717L578.2469 149.81717L571.9969 161.8953L570.84064 161.8953ZM575.79376 158.78592Q575.79376 157.55154 576.40314 156.69217Q577.02814 155.8328 578.2 155.8328Q579.27814 155.8328 579.98126 156.61404Q580.7 157.37967 580.7 158.86404Q580.7 160.31717 579.98126 161.11404Q579.2625 161.8953 578.21564 161.8953Q577.16876 161.8953 576.48126 161.11404Q575.79376 160.3328 575.79376 158.78592ZM578.2469 156.80154Q577.71564 156.80154 577.35626 157.25467Q577.0125 157.7078 577.0125 158.92654Q577.0125 160.0203 577.35626 160.47342Q577.71564 160.92654 578.23126 160.92654Q578.77814 160.92654 579.1219 160.47342Q579.46564 160.0203 579.46564 158.81717Q579.46564 157.7078 579.10626 157.25467Q578.7625 156.80154 578.2469 156.80154Z" fill-rule="nonzero"/><path stroke="#757575" stroke-width="1.0" stroke-linecap="butt" d="M581.45 144.97342L454.76666 144.97342L428.55676 144.97342" fill-rule="nonzero"/><path fill="#9e9e9e" d="M430.55676 144.97342C430.55676 143.86885 429.66135 142.97342 428.55676 142.97342C427.4522 142.97342 426.55676 143.86885 426.55676 144.97342C426.55676 146.07799 427.4522 146.97342 428.55676 146.97342C429.66135 146.97342 430.55676 146.07799 430.55676 144.97342" fill-rule="nonzero"/><path fill="#efefef" d="M531.6375 326.45L531.6375 314.9969L533.91876 314.9969L536.6375 323.10626Q537.0125 324.23126 537.1844 324.79376Q537.3719 324.16876 537.79376 322.96564L540.52814 314.9969L542.575 314.9969L542.575 326.45L541.10626 326.45L541.10626 316.85626L537.77814 326.45L536.41876 326.45L533.10626 316.7L533.10626 326.45L531.6375 326.45ZM544.5125 316.60626L544.5125 314.9969L545.91876 314.9969L545.91876 316.60626L544.5125 316.60626ZM544.5125 326.45L544.5125 318.15314L545.91876 318.15314L545.91876 326.45L544.5125 326.45ZM548.48126 326.45L548.48126 314.9969L549.8875 314.9969L549.8875 326.45L548.48126 326.45ZM552.5125 316.60626L552.5125 314.9969L553.91876 314.9969L553.91876 316.60626L552.5125 316.60626ZM552.5125 326.45L552.5125 318.15314L553.91876 318.15314L553.91876 326.45L552.5125 326.45ZM559.575 325.1844L559.77814 326.4344Q559.1844 326.5594 558.71564 326.5594Q557.95 326.5594 557.52814 326.325Q557.10626 326.075 556.9344 325.6844Q556.7625 325.27814 556.7625 324.0125L556.7625 319.2469L555.73126 319.2469L555.73126 318.15314L556.7625 318.15314L556.7625 316.09064L558.16876 315.2469L558.16876 318.15314L559.575 318.15314L559.575 319.2469L558.16876 319.2469L558.16876 324.09064Q558.16876 324.7 558.23126 324.8719Q558.3094 325.04376 558.48126 325.15314Q558.65314 325.2469 558.96564 325.2469Q559.2 325.2469 559.575 325.1844ZM565.91876 325.41876Q565.1375 326.09064 564.41876 326.3719Q563.7 326.6375 562.8719 326.6375Q561.4969 326.6375 560.7625 325.96564Q560.02814 325.29376 560.02814 324.2625Q560.02814 323.65314 560.3094 323.15314Q560.59064 322.6375 561.02814 322.34064Q561.48126 322.02814 562.04376 321.8719Q562.46564 321.7625 563.29376 321.66876Q564.9969 321.46564 565.8094 321.1844Q565.8094 320.8875 565.8094 320.8094Q565.8094 319.95 565.41876 319.60626Q564.8719 319.1219 563.8094 319.1219Q562.825 319.1219 562.34064 319.48126Q561.8719 319.825 561.65314 320.7L560.27814 320.5125Q560.46564 319.6375 560.8875 319.09064Q561.325 318.54376 562.1375 318.2625Q562.95 317.96564 564.0125 317.96564Q565.075 317.96564 565.73126 318.21564Q566.40314 318.46564 566.71564 318.84064Q567.02814 319.21564 567.15314 319.79376Q567.23126 320.15314 567.23126 321.09064L567.23126 322.96564Q567.23126 324.9344 567.3094 325.45Q567.40314 325.96564 567.66876 326.45L566.2 326.45Q565.98126 326.0125 565.91876 325.41876ZM565.8094 322.27814Q565.04376 322.59064 563.5125 322.8094Q562.6375 322.9344 562.27814 323.09064Q561.91876 323.2469 561.71564 323.5594Q561.52814 323.85626 561.52814 324.21564Q561.52814 324.77814 561.95 325.15314Q562.3875 325.52814 563.2 325.52814Q564.0125 325.52814 564.6375 325.1844Q565.27814 324.825 565.575 324.2Q565.8094 323.73126 565.8094 322.79376L565.8094 322.27814ZM569.4969 326.45L569.4969 318.15314L570.7625 318.15314L570.7625 319.40314Q571.2469 318.52814 571.65314 318.2469Q572.0594 317.96564 572.5594 317.96564Q573.2625 317.96564 573.9969 318.41876L573.5125 319.71564Q572.9969 319.41876 572.48126 319.41876Q572.02814 319.41876 571.65314 319.7Q571.29376 319.96564 571.1375 320.46564Q570.90314 321.21564 570.90314 322.10626L570.90314 326.45L569.4969 326.45ZM574.45 329.65314L574.29376 328.325Q574.7469 328.45 575.09064 328.45Q575.5594 328.45 575.84064 328.29376Q576.1219 328.1375 576.3094 327.85626Q576.4344 327.65314 576.73126 326.8094Q576.77814 326.7 576.85626 326.46564L573.71564 318.15314L575.23126 318.15314L576.95 322.95Q577.29376 323.8719 577.5594 324.8719Q577.79376 323.90314 578.1375 322.98126L579.90314 318.15314L581.3094 318.15314L578.15314 326.59064Q577.65314 327.96564 577.3719 328.48126Q576.9969 329.16876 576.5125 329.4969Q576.02814 329.825 575.35626 329.825Q574.95 329.825 574.45 329.65314Z" fill-rule="nonzero"/><path fill="#9e9e9e" d="M544.5125 347.09064L544.5125 348.45L536.9344 348.45Q536.91876 347.9344 537.10626 347.46564Q537.3875 346.7 538.02814 345.95Q538.66876 345.2 539.8719 344.21564Q541.73126 342.6844 542.3875 341.79376Q543.04376 340.8875 543.04376 340.09064Q543.04376 339.2625 542.45 338.6844Q541.85626 338.10626 540.8875 338.10626Q539.8719 338.10626 539.2625 338.71564Q538.65314 339.325 538.65314 340.40314L537.2 340.2625Q537.35626 338.6375 538.325 337.79376Q539.29376 336.95 540.91876 336.95Q542.575 336.95 543.52814 337.8719Q544.4969 338.77814 544.4969 340.1219Q544.4969 340.8094 544.21564 341.48126Q543.9344 342.1375 543.27814 342.8719Q542.6219 343.60626 541.10626 344.8875Q539.84064 345.95 539.48126 346.34064Q539.1219 346.71564 538.8875 347.09064L544.5125 347.09064ZM546.21564 338.4969L546.21564 337.1375L553.6219 337.1375L553.6219 338.23126Q552.52814 339.40314 551.45 341.34064Q550.3875 343.2625 549.79376 345.29376Q549.3719 346.73126 549.2625 348.45L547.8094 348.45Q547.84064 347.09064 548.34064 345.1844Q548.85626 343.2625 549.79376 341.4969Q550.7469 339.71564 551.825 338.4969L546.21564 338.4969ZM555.90314 348.45L555.90314 346.84064L557.5125 346.84064L557.5125 348.45L555.90314 348.45ZM559.1219 345.41876L560.52814 345.23126Q560.77814 346.4344 561.35626 346.96564Q561.9344 347.48126 562.77814 347.48126Q563.7625 347.48126 564.45 346.79376Q565.1375 346.10626 565.1375 345.09064Q565.1375 344.1219 564.4969 343.4969Q563.8719 342.8719 562.8875 342.8719Q562.4969 342.8719 561.90314 343.02814L562.0594 341.79376Q562.2 341.8094 562.27814 341.8094Q563.1844 341.8094 563.90314 341.34064Q564.6219 340.8719 564.6219 339.8875Q564.6219 339.1219 564.09064 338.6219Q563.575 338.10626 562.7469 338.10626Q561.91876 338.10626 561.3719 338.6219Q560.825 339.1375 560.66876 340.16876L559.2625 339.91876Q559.52814 338.4969 560.4344 337.73126Q561.35626 336.95 562.71564 336.95Q563.65314 336.95 564.4344 337.35626Q565.23126 337.7469 565.6375 338.45Q566.0594 339.1375 566.0594 339.91876Q566.0594 340.66876 565.65314 341.27814Q565.2625 341.8875 564.48126 342.2469Q565.4969 342.48126 566.0594 343.21564Q566.6219 343.95 566.6219 345.0594Q566.6219 346.5594 565.52814 347.60626Q564.4344 348.65314 562.7625 348.65314Q561.2625 348.65314 560.2625 347.7625Q559.2625 346.85626 559.1219 345.41876ZM568.3875 339.7469Q568.3875 338.5125 568.9969 337.65314Q569.6219 336.79376 570.79376 336.79376Q571.8719 336.79376 572.575 337.575Q573.27814 338.34064 573.27814 339.825Q573.27814 341.27814 572.5594 342.075Q571.85626 342.85626 570.8094 342.85626Q569.7625 342.85626 569.075 342.09064Q568.3875 341.3094 568.3875 339.7469ZM570.825 337.7625Q570.3094 337.7625 569.95 338.21564Q569.60626 338.66876 569.60626 339.8875Q569.60626 340.98126 569.95 341.4344Q570.3094 341.8875 570.825 341.8875Q571.35626 341.8875 571.7 341.4344Q572.0594 340.98126 572.0594 339.77814Q572.0594 338.66876 571.7 338.21564Q571.35626 337.7625 570.825 337.7625ZM570.84064 348.8719L577.10626 336.79376L578.2469 336.79376L571.9969 348.8719L570.84064 348.8719ZM575.79376 345.7625Q575.79376 344.52814 576.40314 343.66876Q577.02814 342.8094 578.2 342.8094Q579.27814 342.8094 579.98126 343.59064Q580.7 344.35626 580.7 345.84064Q580.7 347.29376 579.98126 348.09064Q579.2625 348.8719 578.21564 348.8719Q577.16876 348.8719 576.48126 348.09064Q575.79376 347.3094 575.79376 345.7625ZM578.2469 343.77814Q577.71564 343.77814 577.35626 344.23126Q577.0125 344.6844 577.0125 345.90314Q577.0125 346.9969 577.35626 347.45Q577.71564 347.90314 578.23126 347.90314Q578.77814 347.90314 579.1219 347.45Q579.46564 346.9969 579.46564 345.79376Q579.46564 344.6844 579.10626 344.23126Q578.7625 343.77814 578.2469 343.77814Z" fill-rule="nonzero"/><path stroke="#757575" stroke-width="1.0" stroke-linecap="butt" d="M581.45 331.95L454.76666 331.95L300.0 345.01166" fill-rule="nonzero"/><path fill="#9e9e9e" d="M302.0 345.01166C302.0 343.9071 301.10458 343.01166 300.0 343.01166C298.89542 343.01166 298.0 343.9071 298.0 345.01166C298.0 346.11624 298.89542 347.01166 300.0 347.01166C301.10458 347.01166 302.0 346.11624 302.0 345.01166" fill-rule="nonzero"/><path fill="#f3f3f3" d="M271.26562 32.534374L273.15625 33.003124Q272.5625 35.346874 271.01562 36.58125Q269.46875 37.8 267.21875 37.8Q264.90625 37.8 263.45312 36.8625Q262.01562 35.909374 261.25 34.128124Q260.5 32.33125 260.5 30.284374Q260.5 28.05 261.34375 26.39375Q262.20312 24.721874 263.78125 23.8625Q265.35938 22.9875 267.25 22.9875Q269.40625 22.9875 270.85938 24.08125Q272.32812 25.175 272.90625 27.159374L271.04688 27.596874Q270.54688 26.034374 269.59375 25.33125Q268.65625 24.6125 267.21875 24.6125Q265.5625 24.6125 264.45312 25.409374Q263.34375 26.190624 262.89062 27.534374Q262.45312 28.8625 262.45312 30.26875Q262.45312 32.096874 262.98438 33.471874Q263.51562 34.83125 264.64062 35.503124Q265.76562 36.175 267.0625 36.175Q268.65625 36.175 269.76562 35.253124Q270.875 34.33125 271.26562 32.534374ZM281.59375 36.26875Q280.60938 37.096874 279.70312 37.440624Q278.79688 37.784374 277.76562 37.784374Q276.0625 37.784374 275.14062 36.95625Q274.21875 36.1125 274.21875 34.815624Q274.21875 34.05 274.5625 33.425Q274.92188 32.8 275.48438 32.425Q276.04688 32.034374 276.75 31.83125Q277.26562 31.70625 278.3125 31.565624Q280.4375 31.315624 281.4375 30.971874Q281.45312 30.6125 281.45312 30.503124Q281.45312 29.440624 280.95312 28.9875Q280.28125 28.39375 278.95312 28.39375Q277.70312 28.39375 277.10938 28.83125Q276.53125 29.26875 276.25 30.378124L274.53125 30.14375Q274.76562 29.034374 275.29688 28.3625Q275.82812 27.675 276.84375 27.315624Q277.85938 26.940624 279.20312 26.940624Q280.53125 26.940624 281.35938 27.253124Q282.1875 27.565624 282.57812 28.05Q282.96875 28.51875 283.125 29.2375Q283.21875 29.690624 283.21875 30.8625L283.21875 33.20625Q283.21875 35.659374 283.32812 36.315624Q283.4375 36.95625 283.78125 37.55L281.9375 37.55Q281.67188 37.003124 281.59375 36.26875ZM281.4375 32.346874Q280.48438 32.7375 278.5625 33.003124Q277.48438 33.159374 277.03125 33.3625Q276.59375 33.55 276.34375 33.925Q276.09375 34.3 276.09375 34.76875Q276.09375 35.471874 276.625 35.940624Q277.15625 36.409374 278.1875 36.409374Q279.20312 36.409374 279.98438 35.971874Q280.78125 35.51875 281.15625 34.753124Q281.4375 34.14375 281.4375 32.9875L281.4375 32.346874ZM289.65625 35.971874L289.90625 37.534374Q289.17188 37.690624 288.57812 37.690624Q287.625 37.690624 287.09375 37.39375Q286.57812 37.08125 286.35938 36.596874Q286.14062 36.096874 286.14062 34.51875L286.14062 28.55L284.85938 28.55L284.85938 27.175L286.14062 27.175L286.14062 24.6125L287.89062 23.55L287.89062 27.175L289.65625 27.175L289.65625 28.55L287.89062 28.55L287.89062 34.6125Q287.89062 35.3625 287.98438 35.58125Q288.07812 35.784374 288.28125 35.925Q288.5 36.05 288.89062 36.05Q289.17188 36.05 289.65625 35.971874ZM298.92188 34.20625L300.73438 34.440624Q300.3125 36.01875 299.14062 36.909374Q297.98438 37.784374 296.17188 37.784374Q293.90625 37.784374 292.5625 36.39375Q291.23438 34.9875 291.23438 32.45625Q291.23438 29.83125 292.57812 28.39375Q293.92188 26.940624 296.07812 26.940624Q298.15625 26.940624 299.46875 28.3625Q300.79688 29.76875 300.79688 32.346874Q300.79688 32.503124 300.78125 32.815624L293.04688 32.815624Q293.14062 34.51875 294.01562 35.425Q294.89062 36.33125 296.1875 36.33125Q297.15625 36.33125 297.82812 35.83125Q298.51562 35.315624 298.92188 34.20625ZM293.14062 31.3625L298.9375 31.3625Q298.82812 30.065624 298.28125 29.409374Q297.4375 28.39375 296.09375 28.39375Q294.89062 28.39375 294.0625 29.20625Q293.23438 30.003124 293.14062 31.3625ZM302.5 38.409374L304.20312 38.659374Q304.3125 39.45625 304.79688 39.815624Q305.45312 40.3 306.59375 40.3Q307.8125 40.3 308.46875 39.815624Q309.14062 39.33125 309.375 38.45625Q309.51562 37.909374 309.5 36.190624Q308.34375 37.55 306.625 37.55Q304.48438 37.55 303.3125 36.003124Q302.14062 34.45625 302.14062 32.3Q302.14062 30.815624 302.67188 29.565624Q303.21875 28.315624 304.23438 27.628124Q305.26562 26.940624 306.64062 26.940624Q308.46875 26.940624 309.67188 28.425L309.67188 27.175L311.28125 27.175L311.28125 36.14375Q311.28125 38.565624 310.78125 39.565624Q310.29688 40.58125 309.21875 41.159374Q308.15625 41.753124 306.59375 41.753124Q304.75 41.753124 303.59375 40.925Q302.45312 40.096874 302.5 38.409374ZM303.95312 32.175Q303.95312 34.221874 304.76562 35.159374Q305.57812 36.096874 306.79688 36.096874Q308.0 36.096874 308.8125 35.159374Q309.64062 34.221874 309.64062 32.2375Q309.64062 30.33125 308.79688 29.3625Q307.95312 28.39375 306.76562 28.39375Q305.59375 28.39375 304.76562 29.346874Q303.95312 30.3 303.95312 32.175ZM313.17188 32.3625Q313.17188 29.4875 314.76562 28.096874Q316.10938 26.940624 318.03125 26.940624Q320.17188 26.940624 321.51562 28.346874Q322.875 29.753124 322.875 32.221874Q322.875 34.221874 322.28125 35.378124Q321.6875 36.51875 320.53125 37.159374Q319.39062 37.784374 318.03125 37.784374Q315.84375 37.784374 314.5 36.39375Q313.17188 34.9875 313.17188 32.3625ZM314.96875 32.3625Q314.96875 34.3625 315.82812 35.346874Q316.70312 36.33125 318.03125 36.33125Q319.34375 36.33125 320.20312 35.346874Q321.07812 34.346874 321.07812 32.3Q321.07812 30.378124 320.20312 29.39375Q319.32812 28.39375 318.03125 28.39375Q316.70312 28.39375 315.82812 29.39375Q314.96875 30.378124 314.96875 32.3625ZM324.79688 37.55L324.79688 27.175L326.375 27.175L326.375 28.753124Q326.98438 27.64375 327.5 27.3Q328.01562 26.940624 328.625 26.940624Q329.51562 26.940624 330.4375 27.503124L329.82812 29.14375Q329.1875 28.753124 328.54688 28.753124Q327.96875 28.753124 327.5 29.1125Q327.04688 29.45625 326.84375 30.065624Q326.5625 31.003124 326.5625 32.1125L326.5625 37.55L324.79688 37.55ZM331.73438 41.55L331.54688 39.89375Q332.125 40.05 332.54688 40.05Q333.14062 40.05 333.48438 39.846874Q333.84375 39.659374 334.0625 39.315624Q334.23438 39.05 334.60938 38.003124Q334.65625 37.846874 334.76562 37.565624L330.82812 27.175L332.71875 27.175L334.875 33.190624Q335.29688 34.33125 335.625 35.58125Q335.9375 34.378124 336.34375 33.221874L338.5625 27.175L340.32812 27.175L336.375 37.721874Q335.75 39.440624 335.39062 40.08125Q334.92188 40.95625 334.3125 41.346874Q333.71875 41.753124 332.875 41.753124Q332.35938 41.753124 331.73438 41.55Z" fill-rule="nonzero"/></svg>