<svg version="1.1" viewBox="0.0 0.0 600.0 371.0" fill="none" stroke="none" stroke-linecap="square" stroke-miterlimit="10" width="600" height="371" xmlns:xlink="http://www.w3.org/1999/xlink" xmlns="http://www.w3.org/2000/svg"><path fill="#ffffff" fill-opacity="0.0" d="M0 0L600.0 0L600.0 371.0L0 371.0L0 0Z" fill-rule="nonzero"/><path fill="#f7d750" d="M300.0 54.916668C307.0843 54.916668 314.15952 55.4227 321.1717 56.430897L310.58585 130.05711C307.07977 129.55301 303.54214 129.3 300.0 129.3Z" fill-rule="nonzero"/><path fill="#f5ee58" d="M321.1717 56.430897C342.28006 59.46582 362.48923 67.00345 380.42932 78.53285L340.21466 141.1081C331.24463 135.3434 321.14005 131.57458 310.58585 130.05711Z" fill-rule="nonzero"/><path fill="#b3ca48" d="M380.42932 78.53285C392.36392 86.20274 403.14005 95.54031 412.43036 106.26189L356.21518 154.97261C351.57004 149.61183 346.18195 144.94304 340.21466 141.1081Z" fill-rule="nonzero"/><path fill="#d8753e" d="M278.8283 56.430897C285.84048 55.4227 292.9157 54.916668 300.0 54.916668L300.0 129.3C296.45786 129.3 292.92023 129.55301 289.41415 130.05711Z" fill-rule="nonzero"/><path fill="#d0473d" d="M238.20009 68.36041C251.10474 62.467056 264.78604 58.44987 278.8283 56.430897L289.41415 130.05711C282.393 131.0666 275.55237 133.0752 269.10004 136.02187Z" fill-rule="nonzero"/><path fill="#8c4595" d="M219.57066 328.83383C173.79285 299.4142 147.73036 247.34799 151.61238 193.07043C155.49438 138.7929 188.70139 90.96572 238.20009 68.36041L269.10004 136.02187C244.3507 147.32452 227.7472 171.23811 225.80618 198.37689C223.86519 225.51566 236.89642 251.54877 259.78534 266.25858Z" fill-rule="nonzero"/><path fill="#78a94e" d="M412.43036 106.26189C460.87878 162.17435 460.87878 245.19232 412.43036 301.10477C363.9819 357.01724 281.80896 368.83194 219.57066 328.83383L259.78534 266.25858C290.90448 286.25763 331.99097 280.35028 356.21518 252.39406C380.4394 224.43782 380.4394 182.92885 356.21518 154.97261Z" fill-rule="nonzero"/><path fill="#ffffff" d="M327.44458 95.90879L325.88208 96.03379Q325.66333 95.111916 325.2727 94.69004Q324.63208 94.00254 323.69458 94.00254Q322.94458 94.00254 322.36646 94.424416Q321.61646 94.97129 321.17896 96.018166Q320.75708 97.06504 320.74146 99.00254Q321.31958 98.12754 322.13208 97.705666Q322.9602 97.28379 323.86646 97.28379Q325.4602 97.28379 326.56958 98.455666Q327.67896 99.611916 327.67896 101.455666Q327.67896 102.674416 327.1477 103.72129Q326.63208 104.75254 325.7102 105.31504Q324.80396 105.861916 323.6477 105.861916Q321.66333 105.861916 320.41333 104.40879Q319.16333 102.955666 319.16333 99.611916Q319.16333 95.87754 320.55396 94.174416Q321.75708 92.705666 323.78833 92.705666Q325.31958 92.705666 326.28833 93.56504Q327.25708 94.40879 327.44458 95.90879ZM320.99146 101.47129Q320.99146 102.28379 321.3352 103.03379Q321.67896 103.78379 322.30396 104.174416Q322.92896 104.56504 323.61646 104.56504Q324.61646 104.56504 325.3352 103.75254Q326.05396 102.94004 326.05396 101.549416Q326.05396 100.22129 325.3352 99.455666Q324.63208 98.674416 323.55396 98.674416Q322.47583 98.674416 321.72583 99.455666Q320.99146 100.22129 320.99146 101.47129ZM330.13208 105.643166L330.13208 103.84629L331.92896 103.84629L331.92896 105.643166L330.13208 105.643166ZM336.67896 98.65879Q335.69458 98.299416 335.2102 97.62754Q334.74146 96.955666 334.74146 96.03379Q334.74146 94.62754 335.74146 93.674416Q336.75708 92.705666 338.44458 92.705666Q340.13208 92.705666 341.1477 93.69004Q342.17896 94.65879 342.17896 96.06504Q342.17896 96.97129 341.7102 97.643166Q341.24146 98.299416 340.28833 98.65879Q341.47583 99.049416 342.0852 99.90879Q342.7102 100.768166 342.7102 101.955666Q342.7102 103.611916 341.53833 104.736916Q340.36646 105.861916 338.4602 105.861916Q336.55396 105.861916 335.38208 104.736916Q334.22583 103.59629 334.22583 101.90879Q334.22583 100.65879 334.85083 99.81504Q335.49146 98.955666 336.67896 98.65879ZM336.35083 95.97129Q336.35083 96.893166 336.94458 97.47129Q337.53833 98.049416 338.47583 98.049416Q339.38208 98.049416 339.9602 97.47129Q340.55396 96.893166 340.55396 96.06504Q340.55396 95.19004 339.94458 94.59629Q339.35083 94.00254 338.4602 94.00254Q337.55396 94.00254 336.94458 94.580666Q336.35083 95.15879 336.35083 95.97129ZM335.85083 101.924416Q335.85083 102.59629 336.16333 103.236916Q336.49146 103.861916 337.11646 104.22129Q337.75708 104.56504 338.49146 104.56504Q339.61646 104.56504 340.35083 103.830666Q341.10083 103.09629 341.10083 101.97129Q341.10083 100.830666 340.3352 100.09629Q339.56958 99.34629 338.42896 99.34629Q337.31958 99.34629 336.5852 100.080666Q335.85083 100.81504 335.85083 101.924416ZM344.53833 95.84629Q344.53833 94.47129 345.22583 93.50254Q345.92896 92.53379 347.24146 92.53379Q348.4602 92.53379 349.25708 93.40879Q350.05396 94.268166 350.05396 95.955666Q350.05396 97.580666 349.24146 98.47129Q348.44458 99.34629 347.25708 99.34629Q346.10083 99.34629 345.31958 98.486916Q344.53833 97.611916 344.53833 95.84629ZM347.28833 93.62754Q346.69458 93.62754 346.30396 94.143166Q345.91333 94.643166 345.91333 96.00254Q345.91333 97.25254 346.30396 97.75254Q346.7102 98.25254 347.28833 98.25254Q347.88208 98.25254 348.2727 97.75254Q348.66333 97.236916 348.66333 95.893166Q348.66333 94.643166 348.2727 94.143166Q347.88208 93.62754 347.28833 93.62754ZM347.30396 106.111916L354.35083 92.53379L355.63208 92.53379L348.60083 106.111916L347.30396 106.111916ZM352.86646 102.611916Q352.86646 101.236916 353.55396 100.268166Q354.25708 99.299416 355.5852 99.299416Q356.80396 99.299416 357.5852 100.174416Q358.38208 101.03379 358.38208 102.72129Q358.38208 104.34629 357.5852 105.236916Q356.78833 106.111916 355.60083 106.111916Q354.42896 106.111916 353.6477 105.236916Q352.86646 104.361916 352.86646 102.611916ZM355.63208 100.393166Q355.03833 100.393166 354.6477 100.90879Q354.25708 101.40879 354.25708 102.78379Q354.25708 104.00254 354.6477 104.518166Q355.03833 105.03379 355.61646 105.03379Q356.22583 105.03379 356.61646 104.518166Q357.00708 104.00254 357.00708 102.65879Q357.00708 101.40879 356.61646 100.90879Q356.22583 100.393166 355.63208 100.393166Z" fill-rule="nonzero"/><path fill="#ffffff" d="M364.63525 283.24942L364.63525 280.1713L359.05713 280.1713L359.05713 278.71817L364.93213 270.3588L366.229 270.3588L366.229 278.71817L367.96338 278.71817L367.96338 280.1713L366.229 280.1713L366.229 283.24942L364.63525 283.24942ZM364.63525 278.71817L364.63525 272.90567L360.604 278.71817L364.63525 278.71817ZM369.57275 279.87442L371.229 279.7338Q371.4165 280.95255 372.08838 281.56192Q372.76025 282.1713 373.71338 282.1713Q374.854 282.1713 375.63525 281.31192Q376.43213 280.45255 376.43213 279.01505Q376.43213 277.6713 375.6665 276.89005Q374.9165 276.1088 373.68213 276.1088Q372.9165 276.1088 372.2915 276.45255Q371.68213 276.7963 371.33838 277.3588L369.854 277.15567L371.104 270.5463L377.51025 270.5463L377.51025 272.0463L372.36963 272.0463L371.6665 275.51505Q372.83838 274.70255 374.104 274.70255Q375.7915 274.70255 376.94775 275.87442Q378.11963 277.0463 378.11963 278.87442Q378.11963 280.62442 377.08838 281.90567Q375.854 283.46817 373.71338 283.46817Q371.94775 283.46817 370.83838 282.4838Q369.729 281.49942 369.57275 279.87442ZM380.46338 283.24942L380.46338 281.45255L382.26025 281.45255L382.26025 283.24942L380.46338 283.24942ZM384.57275 279.87442L386.229 279.7338Q386.4165 280.95255 387.08838 281.56192Q387.76025 282.1713 388.71338 282.1713Q389.854 282.1713 390.63525 281.31192Q391.43213 280.45255 391.43213 279.01505Q391.43213 277.6713 390.6665 276.89005Q389.9165 276.1088 388.68213 276.1088Q387.9165 276.1088 387.2915 276.45255Q386.68213 276.7963 386.33838 277.3588L384.854 277.15567L386.104 270.5463L392.51025 270.5463L392.51025 272.0463L387.36963 272.0463L386.6665 275.51505Q387.83838 274.70255 389.104 274.70255Q390.7915 274.70255 391.94775 275.87442Q393.11963 277.0463 393.11963 278.87442Q393.11963 280.62442 392.08838 281.90567Q390.854 283.46817 388.71338 283.46817Q386.94775 283.46817 385.83838 282.4838Q384.729 281.49942 384.57275 279.87442ZM394.86963 273.45255Q394.86963 272.07755 395.55713 271.1088Q396.26025 270.14005 397.57275 270.14005Q398.7915 270.14005 399.58838 271.01505Q400.38525 271.87442 400.38525 273.56192Q400.38525 275.18692 399.57275 276.07755Q398.77588 276.95255 397.58838 276.95255Q396.43213 276.95255 395.65088 276.09317Q394.86963 275.21817 394.86963 273.45255ZM397.61963 271.2338Q397.02588 271.2338 396.63525 271.74942Q396.24463 272.24942 396.24463 273.6088Q396.24463 274.8588 396.63525 275.3588Q397.0415 275.8588 397.61963 275.8588Q398.21338 275.8588 398.604 275.3588Q398.99463 274.84317 398.99463 273.49942Q398.99463 272.24942 398.604 271.74942Q398.21338 271.2338 397.61963 271.2338ZM397.63525 283.71817L404.68213 270.14005L405.96338 270.14005L398.93213 283.71817L397.63525 283.71817ZM403.19775 280.21817Q403.19775 278.84317 403.88525 277.87442Q404.58838 276.90567 405.9165 276.90567Q407.13525 276.90567 407.9165 277.78067Q408.71338 278.64005 408.71338 280.32755Q408.71338 281.95255 407.9165 282.84317Q407.11963 283.71817 405.93213 283.71817Q404.76025 283.71817 403.979 282.84317Q403.19775 281.96817 403.19775 280.21817ZM405.96338 277.99942Q405.36963 277.99942 404.979 278.51505Q404.58838 279.01505 404.58838 280.39005Q404.58838 281.6088 404.979 282.12442Q405.36963 282.64005 405.94775 282.64005Q406.55713 282.64005 406.94775 282.12442Q407.33838 281.6088 407.33838 280.26505Q407.33838 279.01505 406.94775 278.51505Q406.55713 277.99942 405.96338 277.99942Z" fill-rule="nonzero"/><path fill="#ffffff" d="M163.95927 198.81741L165.55302 198.61429Q165.81865 199.95804 166.4749 200.55179Q167.13115 201.14554 168.06865 201.14554Q169.19365 201.14554 169.95927 200.37991Q170.7249 199.59866 170.7249 198.45804Q170.7249 197.36429 170.00615 196.66116Q169.30302 195.94241 168.20927 195.94241Q167.75615 195.94241 167.08427 196.12991L167.25615 194.73929Q167.4124 194.75491 167.52177 194.75491Q168.52177 194.75491 169.33427 194.22366Q170.14677 193.69241 170.14677 192.59866Q170.14677 191.72366 169.55302 191.16116Q168.95927 190.58304 168.0374 190.58304Q167.11552 190.58304 166.49052 191.16116Q165.88115 191.73929 165.70927 192.91116L164.13115 192.62991Q164.4124 191.03616 165.44365 190.16116Q166.4749 189.28616 168.00615 189.28616Q169.05302 189.28616 169.94365 189.73929Q170.83427 190.19241 171.30302 190.97366Q171.77177 191.75491 171.77177 192.62991Q171.77177 193.47366 171.31865 194.16116Q170.88115 194.83304 169.99052 195.23929Q171.13115 195.50491 171.75615 196.34866Q172.39677 197.17679 172.39677 198.41116Q172.39677 200.09866 171.1624 201.28616Q169.94365 202.45804 168.06865 202.45804Q166.36552 202.45804 165.24052 201.44241Q164.13115 200.42679 163.95927 198.81741ZM179.02177 202.22366L179.02177 199.14554L173.44365 199.14554L173.44365 197.69241L179.31865 189.33304L180.61552 189.33304L180.61552 197.69241L182.3499 197.69241L182.3499 199.14554L180.61552 199.14554L180.61552 202.22366L179.02177 202.22366ZM179.02177 197.69241L179.02177 191.87991L174.99052 197.69241L179.02177 197.69241ZM184.8499 202.22366L184.8499 200.42679L186.64677 200.42679L186.64677 202.22366L184.8499 202.22366ZM194.9124 202.22366L193.33427 202.22366L193.33427 192.14554Q192.75615 192.69241 191.83427 193.23929Q190.9124 193.77054 190.1624 194.05179L190.1624 192.52054Q191.49052 191.89554 192.49052 191.00491Q193.49052 190.11429 193.89677 189.28616L194.9124 189.28616L194.9124 202.22366ZM199.25615 192.42679Q199.25615 191.05179 199.94365 190.08304Q200.64677 189.11429 201.95927 189.11429Q203.17802 189.11429 203.9749 189.98929Q204.77177 190.84866 204.77177 192.53616Q204.77177 194.16116 203.95927 195.05179Q203.1624 195.92679 201.9749 195.92679Q200.81865 195.92679 200.0374 195.06741Q199.25615 194.19241 199.25615 192.42679ZM202.00615 190.20804Q201.4124 190.20804 201.02177 190.72366Q200.63115 191.22366 200.63115 192.58304Q200.63115 193.83304 201.02177 194.33304Q201.42802 194.83304 202.00615 194.83304Q202.5999 194.83304 202.99052 194.33304Q203.38115 193.81741 203.38115 192.47366Q203.38115 191.22366 202.99052 190.72366Q202.5999 190.20804 202.00615 190.20804ZM202.02177 202.69241L209.06865 189.11429L210.3499 189.11429L203.31865 202.69241L202.02177 202.69241ZM207.58427 199.19241Q207.58427 197.81741 208.27177 196.84866Q208.9749 195.87991 210.30302 195.87991Q211.52177 195.87991 212.30302 196.75491Q213.0999 197.61429 213.0999 199.30179Q213.0999 200.92679 212.30302 201.81741Q211.50615 202.69241 210.31865 202.69241Q209.14677 202.69241 208.36552 201.81741Q207.58427 200.94241 207.58427 199.19241ZM210.3499 196.97366Q209.75615 196.97366 209.36552 197.48929Q208.9749 197.98929 208.9749 199.36429Q208.9749 200.58304 209.36552 201.09866Q209.75615 201.61429 210.33427 201.61429Q210.94365 201.61429 211.33427 201.09866Q211.7249 200.58304 211.7249 199.23929Q211.7249 197.98929 211.33427 197.48929Q210.94365 196.97366 210.3499 196.97366Z" fill-rule="nonzero"/><path stroke="#ffffff" stroke-width="1.0" stroke-linejoin="round" stroke-linecap="round" d="M310.58585 130.05711C307.07977 129.55301 303.54214 129.3 300.0 129.3L300.0 54.916668C307.0843 54.916668 314.15952 55.4227 321.1717 56.430897" fill-rule="nonzero"/><path stroke="#ffffff" stroke-width="1.0" stroke-linejoin="round" stroke-linecap="round" d="M340.21466 141.1081C331.24463 135.3434 321.14005 131.57458 310.58585 130.05711L321.1717 56.430897C342.28006 59.46582 362.48923 67.00345 380.42932 78.53285" fill-rule="nonzero"/><path stroke="#ffffff" stroke-width="1.0" stroke-linejoin="round" stroke-linecap="round" d="M356.21518 154.97261C351.57004 149.61183 346.18195 144.94304 340.21466 141.1081L380.42932 78.53285C392.36392 86.20274 403.14005 95.54031 412.43036 106.26189" fill-rule="nonzero"/><path stroke="#ffffff" stroke-width="1.0" stroke-linejoin="round" stroke-linecap="round" d="M259.78534 266.25858C290.90448 286.25763 331.99097 280.35028 356.21518 252.39406C380.4394 224.43782 380.4394 182.92885 356.21518 154.97261L412.43036 106.26189C460.87878 162.17435 460.87878 245.19232 412.43036 301.10477C363.9819 357.01724 281.80896 368.83194 219.57066 328.83383" fill-rule="nonzero"/><path stroke="#ffffff" stroke-width="1.0" stroke-linejoin="round" stroke-linecap="round" d="M269.10004 136.02187C244.3507 147.32452 227.7472 171.23811 225.80618 198.37689C223.86519 225.51566 236.89642 251.54877 259.78534 266.25858L219.57066 328.83383C173.79285 299.4142 147.73036 247.34799 151.61238 193.07043C155.49438 138.7929 188.70139 90.96572 238.20009 68.36041" fill-rule="nonzero"/><path stroke="#ffffff" stroke-width="1.0" stroke-linejoin="round" stroke-linecap="round" d="M289.41415 130.05711C282.393 131.0666 275.55237 133.0752 269.10004 136.02187L238.20009 68.36041C251.10474 62.467056 264.78604 58.44987 278.8283 56.430897" fill-rule="nonzero"/><path stroke="#ffffff" stroke-width="1.0" stroke-linejoin="round" stroke-linecap="round" d="M300.0 129.3C296.45786 129.3 292.92023 129.55301 289.41415 130.05711L278.8283 56.430897C285.84048 55.4227 292.9157 54.916668 300.0 54.916668" fill-rule="nonzero"/><path fill="#efefef" d="M19.76875 69.916664L19.76875 58.46354L21.33125 58.46354L27.346874 67.447914L27.346874 58.46354L28.8 58.46354L28.8 69.916664L27.2375 69.916664L21.221874 60.916664L21.221874 69.916664L19.76875 69.916664ZM37.01875 68.885414Q36.2375 69.55729 35.51875 69.83854Q34.8 70.104164 33.971874 70.104164Q32.596874 70.104164 31.8625 69.43229Q31.128124 68.760414 31.128124 67.729164Q31.128124 67.11979 31.409374 66.61979Q31.690624 66.104164 32.128124 65.80729Q32.58125 65.49479 33.14375 65.33854Q33.565624 65.229164 34.39375 65.135414Q36.096874 64.93229 36.909374 64.65104Q36.909374 64.354164 36.909374 64.27604Q36.909374 63.416664 36.51875 63.072914Q35.971874 62.58854 34.909374 62.58854Q33.925 62.58854 33.440624 62.947914Q32.971874 63.291664 32.753124 64.166664L31.378124 63.979164Q31.565624 63.104164 31.9875 62.55729Q32.425 62.010414 33.2375 61.729164Q34.05 61.43229 35.1125 61.43229Q36.175 61.43229 36.83125 61.68229Q37.503124 61.93229 37.815624 62.30729Q38.128124 62.68229 38.253124 63.260414Q38.33125 63.61979 38.33125 64.55729L38.33125 66.43229Q38.33125 68.40104 38.409374 68.916664Q38.503124 69.43229 38.76875 69.916664L37.3 69.916664Q37.08125 69.479164 37.01875 68.885414ZM36.909374 65.74479Q36.14375 66.05729 34.6125 66.27604Q33.7375 66.40104 33.378124 66.55729Q33.01875 66.71354 32.815624 67.02604Q32.628124 67.322914 32.628124 67.68229Q32.628124 68.24479 33.05 68.61979Q33.4875 68.99479 34.3 68.99479Q35.1125 68.99479 35.7375 68.65104Q36.378124 68.291664 36.675 67.666664Q36.909374 67.197914 36.909374 66.260414L36.909374 65.74479ZM42.909374 69.916664L39.753124 61.61979L41.2375 61.61979L43.01875 66.58854Q43.315624 67.385414 43.55 68.260414Q43.7375 67.604164 44.08125 66.68229L45.925 61.61979L47.3625 61.61979L44.221874 69.916664L42.909374 69.916664ZM54.01875 68.885414Q53.2375 69.55729 52.51875 69.83854Q51.8 70.104164 50.971874 70.104164Q49.596874 70.104164 48.8625 69.43229Q48.128124 68.760414 48.128124 67.729164Q48.128124 67.11979 48.409374 66.61979Q48.690624 66.104164 49.128124 65.80729Q49.58125 65.49479 50.14375 65.33854Q50.565624 65.229164 51.39375 65.135414Q53.096874 64.93229 53.909374 64.65104Q53.909374 64.354164 53.909374 64.27604Q53.909374 63.416664 53.51875 63.072914Q52.971874 62.58854 51.909374 62.58854Q50.925 62.58854 50.440624 62.947914Q49.971874 63.291664 49.753124 64.166664L48.378124 63.979164Q48.565624 63.104164 48.9875 62.55729Q49.425 62.010414 50.2375 61.729164Q51.05 61.43229 52.1125 61.43229Q53.175 61.43229 53.83125 61.68229Q54.503124 61.93229 54.815624 62.30729Q55.128124 62.68229 55.253124 63.260414Q55.33125 63.61979 55.33125 64.55729L55.33125 66.43229Q55.33125 68.40104 55.409374 68.916664Q55.503124 69.43229 55.76875 69.916664L54.3 69.916664Q54.08125 69.479164 54.01875 68.885414ZM53.909374 65.74479Q53.14375 66.05729 51.6125 66.27604Q50.7375 66.40104 50.378124 66.55729Q50.01875 66.71354 49.815624 67.02604Q49.628124 67.322914 49.628124 67.68229Q49.628124 68.24479 50.05 68.61979Q50.4875 68.99479 51.3 68.99479Q52.1125 68.99479 52.7375 68.65104Q53.378124 68.291664 53.675 67.666664Q53.909374 67.197914 53.909374 66.260414L53.909374 65.74479ZM57.58125 69.916664L57.58125 58.46354L58.9875 58.46354L58.9875 69.916664L57.58125 69.916664ZM65.26875 66.229164L66.70625 66.104164Q66.8 66.96354 67.175 67.52604Q67.55 68.072914 68.33125 68.416664Q69.1125 68.74479 70.08125 68.74479Q70.95625 68.74479 71.6125 68.49479Q72.28438 68.229164 72.59688 67.791664Q72.925 67.33854 72.925 66.80729Q72.925 66.260414 72.6125 65.86979Q72.3 65.46354 71.58125 65.18229Q71.12813 65.010414 69.55 64.635414Q67.97188 64.24479 67.33125 63.916664Q66.51875 63.479164 66.1125 62.854164Q65.70625 62.21354 65.70625 61.416664Q65.70625 60.55729 66.19063 59.80729Q66.69063 59.041664 67.62813 58.65104Q68.58125 58.260414 69.7375 58.260414Q71.01875 58.260414 71.9875 58.68229Q72.95625 59.08854 73.47188 59.885414Q74.00313 60.68229 74.05 61.68229L72.59688 61.791664Q72.47188 60.71354 71.8 60.166664Q71.12813 59.604164 69.8 59.604164Q68.425 59.604164 67.8 60.104164Q67.175 60.604164 67.175 61.322914Q67.175 61.93229 67.6125 62.33854Q68.05 62.729164 69.89375 63.15104Q71.75313 63.572914 72.44063 63.885414Q73.44063 64.33854 73.90938 65.05729Q74.39375 65.760414 74.39375 66.68229Q74.39375 67.58854 73.8625 68.40104Q73.34688 69.21354 72.3625 69.666664Q71.37813 70.11979 70.15938 70.11979Q68.59688 70.11979 67.55 69.666664Q66.50313 69.197914 65.89375 68.291664Q65.3 67.385414 65.26875 66.229164ZM79.675 68.65104L79.87813 69.90104Q79.28438 70.02604 78.81563 70.02604Q78.05 70.02604 77.62813 69.791664Q77.20625 69.541664 77.03438 69.15104Q76.8625 68.74479 76.8625 67.479164L76.8625 62.71354L75.83125 62.71354L75.83125 61.61979L76.8625 61.61979L76.8625 59.55729L78.26875 58.71354L78.26875 61.61979L79.675 61.61979L79.675 62.71354L78.26875 62.71354L78.26875 67.55729Q78.26875 68.166664 78.33125 68.33854Q78.40938 68.510414 78.58125 68.61979Q78.75313 68.71354 79.06563 68.71354Q79.3 68.71354 79.675 68.65104ZM80.59688 69.916664L80.59688 61.61979L81.8625 61.61979L81.8625 62.86979Q82.34688 61.99479 82.75313 61.71354Q83.15938 61.43229 83.65938 61.43229Q84.3625 61.43229 85.09688 61.885414L84.6125 63.18229Q84.09688 62.885414 83.58125 62.885414Q83.12813 62.885414 82.75313 63.166664Q82.39375 63.43229 82.2375 63.93229Q82.00313 64.68229 82.00313 65.572914L82.00313 69.916664L80.59688 69.916664ZM91.05 69.916664L91.05 68.697914Q90.08125 70.104164 88.40938 70.104164Q87.675 70.104164 87.03438 69.822914Q86.40938 69.541664 86.09688 69.11979Q85.78438 68.68229 85.65938 68.072914Q85.58125 67.65104 85.58125 66.760414L85.58125 61.61979L86.9875 61.61979L86.9875 66.21354Q86.9875 67.322914 87.06563 67.697914Q87.20625 68.260414 87.62813 68.572914Q88.06563 68.885414 88.69063 68.885414Q89.33125 68.885414 89.87813 68.572914Q90.44063 68.24479 90.65938 67.68229Q90.89375 67.11979 90.89375 66.05729L90.89375 61.61979L92.3 61.61979L92.3 69.916664L91.05 69.916664ZM100.01875 66.86979L101.40938 67.05729Q101.175 68.479164 100.2375 69.291664Q99.31563 70.104164 97.95625 70.104164Q96.25313 70.104164 95.20625 68.99479Q94.175 67.86979 94.175 65.791664Q94.175 64.447914 94.6125 63.447914Q95.06563 62.43229 95.97188 61.93229Q96.89375 61.43229 97.95625 61.43229Q99.31563 61.43229 100.175 62.11979Q101.03438 62.791664 101.26875 64.05729L99.90938 64.260414Q99.70625 63.43229 99.20625 63.010414Q98.72188 62.58854 98.01875 62.58854Q96.95625 62.58854 96.28438 63.354164Q95.62813 64.104164 95.62813 65.760414Q95.62813 67.43229 96.26875 68.197914Q96.90938 68.947914 97.94063 68.947914Q98.76875 68.947914 99.31563 68.447914Q99.87813 67.93229 100.01875 66.86979ZM105.675 68.65104L105.87813 69.90104Q105.28438 70.02604 104.81563 70.02604Q104.05 70.02604 103.62813 69.791664Q103.20625 69.541664 103.03438 69.15104Q102.8625 68.74479 102.8625 67.479164L102.8625 62.71354L101.83125 62.71354L101.83125 61.61979L102.8625 61.61979L102.8625 59.55729L104.26875 58.71354L104.26875 61.61979L105.675 61.61979L105.675 62.71354L104.26875 62.71354L104.26875 67.55729Q104.26875 68.166664 104.33125 68.33854Q104.40938 68.510414 104.58125 68.61979Q104.75313 68.71354 105.06563 68.71354Q105.3 68.71354 105.675 68.65104ZM112.05 69.916664L112.05 68.697914Q111.08125 70.104164 109.40938 70.104164Q108.675 70.104164 108.03438 69.822914Q107.40938 69.541664 107.09688 69.11979Q106.78438 68.68229 106.65938 68.072914Q106.58125 67.65104 106.58125 66.760414L106.58125 61.61979L107.9875 61.61979L107.9875 66.21354Q107.9875 67.322914 108.06563 67.697914Q108.20625 68.260414 108.62813 68.572914Q109.06563 68.885414 109.69063 68.885414Q110.33125 68.885414 110.87813 68.572914Q111.44063 68.24479 111.65938 67.68229Q111.89375 67.11979 111.89375 66.05729L111.89375 61.61979L113.3 61.61979L113.3 69.916664L112.05 69.916664ZM115.59688 69.916664L115.59688 61.61979L116.8625 61.61979L116.8625 62.86979Q117.34688 61.99479 117.75313 61.71354Q118.15938 61.43229 118.65938 61.43229Q119.3625 61.43229 120.09688 61.885414L119.6125 63.18229Q119.09688 62.885414 118.58125 62.885414Q118.12813 62.885414 117.75313 63.166664Q117.39375 63.43229 117.2375 63.93229Q117.00313 64.68229 117.00313 65.572914L117.00313 69.916664L115.59688 69.916664ZM126.28438 67.24479L127.7375 67.416664Q127.39375 68.697914 126.45625 69.40104Q125.53438 70.104164 124.09688 70.104164Q122.26875 70.104164 121.20625 68.979164Q120.14375 67.854164 120.14375 65.83854Q120.14375 63.74479 121.22188 62.58854Q122.3 61.43229 124.01875 61.43229Q125.675 61.43229 126.72188 62.572914Q127.78438 63.697914 127.78438 65.74479Q127.78438 65.86979 127.78438 66.11979L121.59688 66.11979Q121.675 67.49479 122.3625 68.229164Q123.06563 68.947914 124.09688 68.947914Q124.87813 68.947914 125.425 68.541664Q125.97188 68.135414 126.28438 67.24479ZM121.675 64.96354L126.3 64.96354Q126.20625 63.916664 125.76875 63.40104Q125.09688 62.58854 124.03438 62.58854Q123.06563 62.58854 122.39375 63.24479Q121.7375 63.885414 121.675 64.96354ZM129.05 67.43229L130.44063 67.21354Q130.55 68.05729 131.08125 68.510414Q131.62813 68.947914 132.58125 68.947914Q133.55 68.947914 134.01875 68.55729Q134.4875 68.15104 134.4875 67.61979Q134.4875 67.15104 134.08125 66.86979Q133.78438 66.68229 132.64375 66.40104Q131.09688 66.010414 130.4875 65.729164Q129.89375 65.43229 129.58125 64.93229Q129.28438 64.43229 129.28438 63.822914Q129.28438 63.260414 129.53438 62.791664Q129.78438 62.322914 130.22188 62.010414Q130.55 61.760414 131.1125 61.604164Q131.69063 61.43229 132.33125 61.43229Q133.31563 61.43229 134.05 61.71354Q134.78438 61.99479 135.12813 62.479164Q135.4875 62.947914 135.62813 63.760414L134.25313 63.947914Q134.15938 63.30729 133.70625 62.947914Q133.25313 62.58854 132.44063 62.58854Q131.47188 62.58854 131.05 62.916664Q130.64375 63.229164 130.64375 63.65104Q130.64375 63.93229 130.81563 64.15104Q130.9875 64.36979 131.34688 64.52604Q131.56563 64.604164 132.59688 64.885414Q134.08125 65.27604 134.675 65.541664Q135.26875 65.791664 135.59688 66.27604Q135.94063 66.760414 135.94063 67.479164Q135.94063 68.18229 135.51875 68.80729Q135.1125 69.416664 134.33125 69.760414Q133.56563 70.104164 132.59688 70.104164Q130.97188 70.104164 130.12813 69.43229Q129.28438 68.760414 129.05 67.43229Z" fill-rule="nonzero"/><path fill="#9e9e9e" d="M23.721874 91.916664L23.721874 89.166664L18.753124 89.166664L18.753124 87.885414L23.9875 80.46354L25.128124 80.46354L25.128124 87.885414L26.675 87.885414L26.675 89.166664L25.128124 89.166664L25.128124 91.916664L23.721874 91.916664ZM23.721874 87.885414L23.721874 82.71354L20.14375 87.885414L23.721874 87.885414ZM29.003124 91.916664L29.003124 90.30729L30.6125 90.30729L30.6125 91.916664L29.003124 91.916664ZM32.221874 88.916664L33.690624 88.791664Q33.8625 89.86979 34.45625 90.416664Q35.05 90.947914 35.89375 90.947914Q36.909374 90.947914 37.6125 90.18229Q38.315624 89.416664 38.315624 88.15104Q38.315624 86.947914 37.64375 86.260414Q36.971874 85.55729 35.878124 85.55729Q35.190624 85.55729 34.64375 85.86979Q34.096874 86.18229 33.784374 86.666664L32.471874 86.49479L33.58125 80.61979L39.26875 80.61979L39.26875 81.96354L34.70625 81.96354L34.08125 85.041664Q35.1125 84.322914 36.253124 84.322914Q37.753124 84.322914 38.784374 85.36979Q39.815624 86.40104 39.815624 88.02604Q39.815624 89.58854 38.909374 90.71354Q37.8 92.11979 35.89375 92.11979Q34.33125 92.11979 33.346874 91.24479Q32.3625 90.354164 32.221874 88.916664ZM41.4875 83.21354Q41.4875 81.979164 42.096874 81.11979Q42.721874 80.260414 43.89375 80.260414Q44.971874 80.260414 45.675 81.041664Q46.378124 81.80729 46.378124 83.291664Q46.378124 84.74479 45.659374 85.541664Q44.95625 86.322914 43.909374 86.322914Q42.8625 86.322914 42.175 85.55729Q41.4875 84.77604 41.4875 83.21354ZM43.925 81.229164Q43.409374 81.229164 43.05 81.68229Q42.70625 82.135414 42.70625 83.354164Q42.70625 84.447914 43.05 84.90104Q43.409374 85.354164 43.925 85.354164Q44.45625 85.354164 44.8 84.90104Q45.159374 84.447914 45.159374 83.24479Q45.159374 82.135414 44.8 81.68229Q44.45625 81.229164 43.925 81.229164ZM43.940624 92.33854L50.20625 80.260414L51.346874 80.260414L45.096874 92.33854L43.940624 92.33854ZM48.89375 89.229164Q48.89375 87.99479 49.503124 87.135414Q50.128124 86.27604 51.3 86.27604Q52.378124 86.27604 53.08125 87.05729Q53.8 87.822914 53.8 89.30729Q53.8 90.760414 53.08125 91.55729Q52.3625 92.33854 51.315624 92.33854Q50.26875 92.33854 49.58125 91.55729Q48.89375 90.77604 48.89375 89.229164ZM51.346874 87.24479Q50.815624 87.24479 50.45625 87.697914Q50.1125 88.15104 50.1125 89.36979Q50.1125 90.46354 50.45625 90.916664Q50.815624 91.36979 51.33125 91.36979Q51.878124 91.36979 52.221874 90.916664Q52.565624 90.46354 52.565624 89.260414Q52.565624 88.15104 52.20625 87.697914Q51.8625 87.24479 51.346874 87.24479Z" fill-rule="nonzero"/><path stroke="#757575" stroke-width="1.0" stroke-linecap="butt" d="M18.55 75.416664L145.23334 75.416664L260.1832 68.07979" fill-rule="nonzero"/><path fill="#9e9e9e" d="M262.1832 68.07979C262.1832 66.97522 261.28778 66.07979 260.1832 66.07979C259.07864 66.07979 258.1832 66.97522 258.1832 68.07979C258.1832 69.18436 259.07864 70.07979 260.1832 70.07979C261.28778 70.07979 262.1832 69.18436 262.1832 68.07979" fill-rule="nonzero"/><path fill="#efefef" d="M19.76875 188.10109L19.76875 176.64796L21.33125 176.64796L27.346874 185.63234L27.346874 176.64796L28.8 176.64796L28.8 188.10109L27.2375 188.10109L21.221874 179.10109L21.221874 188.10109L19.76875 188.10109ZM37.01875 187.06984Q36.2375 187.74171 35.51875 188.02296Q34.8 188.28859 33.971874 188.28859Q32.596874 188.28859 31.8625 187.61671Q31.128124 186.94484 31.128124 185.91359Q31.128124 185.30421 31.409374 184.80421Q31.690624 184.28859 32.128124 183.99171Q32.58125 183.67921 33.14375 183.52296Q33.565624 183.41359 34.39375 183.31984Q36.096874 183.11671 36.909374 182.83546Q36.909374 182.53859 36.909374 182.46046Q36.909374 181.60109 36.51875 181.25734Q35.971874 180.77296 34.909374 180.77296Q33.925 180.77296 33.440624 181.13234Q32.971874 181.47609 32.753124 182.35109L31.378124 182.16359Q31.565624 181.28859 31.9875 180.74171Q32.425 180.19484 33.2375 179.91359Q34.05 179.61671 35.1125 179.61671Q36.175 179.61671 36.83125 179.86671Q37.503124 180.11671 37.815624 180.49171Q38.128124 180.86671 38.253124 181.44484Q38.33125 181.80421 38.33125 182.74171L38.33125 184.61671Q38.33125 186.58546 38.409374 187.10109Q38.503124 187.61671 38.76875 188.10109L37.3 188.10109Q37.08125 187.66359 37.01875 187.06984ZM36.909374 183.92921Q36.14375 184.24171 34.6125 184.46046Q33.7375 184.58546 33.378124 184.74171Q33.01875 184.89796 32.815624 185.21046Q32.628124 185.50734 32.628124 185.86671Q32.628124 186.42921 33.05 186.80421Q33.4875 187.17921 34.3 187.17921Q35.1125 187.17921 35.7375 186.83546Q36.378124 186.47609 36.675 185.85109Q36.909374 185.38234 36.909374 184.44484L36.909374 183.92921ZM43.675 186.83546L43.878124 188.08546Q43.284374 188.21046 42.815624 188.21046Q42.05 188.21046 41.628124 187.97609Q41.20625 187.72609 41.034374 187.33546Q40.8625 186.92921 40.8625 185.66359L40.8625 180.89796L39.83125 180.89796L39.83125 179.80421L40.8625 179.80421L40.8625 177.74171L42.26875 176.89796L42.26875 179.80421L43.675 179.80421L43.675 180.89796L42.26875 180.89796L42.26875 185.74171Q42.26875 186.35109 42.33125 186.52296Q42.409374 186.69484 42.58125 186.80421Q42.753124 186.89796 43.065624 186.89796Q43.3 186.89796 43.675 186.83546ZM50.05 188.10109L50.05 186.88234Q49.08125 188.28859 47.409374 188.28859Q46.675 188.28859 46.034374 188.00734Q45.409374 187.72609 45.096874 187.30421Q44.784374 186.86671 44.659374 186.25734Q44.58125 185.83546 44.58125 184.94484L44.58125 179.80421L45.9875 179.80421L45.9875 184.39796Q45.9875 185.50734 46.065624 185.88234Q46.20625 186.44484 46.628124 186.75734Q47.065624 187.06984 47.690624 187.06984Q48.33125 187.06984 48.878124 186.75734Q49.440624 186.42921 49.659374 185.86671Q49.89375 185.30421 49.89375 184.24171L49.89375 179.80421L51.3 179.80421L51.3 188.10109L50.05 188.10109ZM53.596874 188.10109L53.596874 179.80421L54.8625 179.80421L54.8625 181.05421Q55.346874 180.17921 55.753124 179.89796Q56.159374 179.61671 56.659374 179.61671Q57.3625 179.61671 58.096874 180.06984L57.6125 181.36671Q57.096874 181.06984 56.58125 181.06984Q56.128124 181.06984 55.753124 181.35109Q55.39375 181.61671 55.2375 182.11671Q55.003124 182.86671 55.003124 183.75734L55.003124 188.10109L53.596874 188.10109ZM64.01875 187.06984Q63.2375 187.74171 62.51875 188.02296Q61.8 188.28859 60.971874 188.28859Q59.596874 188.28859 58.8625 187.61671Q58.128124 186.94484 58.128124 185.91359Q58.128124 185.30421 58.409374 184.80421Q58.690624 184.28859 59.128124 183.99171Q59.58125 183.67921 60.14375 183.52296Q60.565624 183.41359 61.39375 183.31984Q63.096874 183.11671 63.909374 182.83546Q63.909374 182.53859 63.909374 182.46046Q63.909374 181.60109 63.51875 181.25734Q62.971874 180.77296 61.909374 180.77296Q60.925 180.77296 60.440624 181.13234Q59.971874 181.47609 59.753124 182.35109L58.378124 182.16359Q58.565624 181.28859 58.9875 180.74171Q59.425 180.19484 60.2375 179.91359Q61.05 179.61671 62.1125 179.61671Q63.175 179.61671 63.83125 179.86671Q64.50313 180.11671 64.81563 180.49171Q65.12813 180.86671 65.25313 181.44484Q65.33125 181.80421 65.33125 182.74171L65.33125 184.61671Q65.33125 186.58546 65.40938 187.10109Q65.50313 187.61671 65.76875 188.10109L64.3 188.10109Q64.08125 187.66359 64.01875 187.06984ZM63.909374 183.92921Q63.14375 184.24171 61.6125 184.46046Q60.7375 184.58546 60.378124 184.74171Q60.01875 184.89796 59.815624 185.21046Q59.628124 185.50734 59.628124 185.86671Q59.628124 186.42921 60.05 186.80421Q60.4875 187.17921 61.3 187.17921Q62.1125 187.17921 62.7375 186.83546Q63.378124 186.47609 63.675 185.85109Q63.909374 185.38234 63.909374 184.44484L63.909374 183.92921ZM67.58125 188.10109L67.58125 176.64796L68.9875 176.64796L68.9875 188.10109L67.58125 188.10109Z" fill-rule="nonzero"/><path fill="#9e9e9e" d="M19.221874 207.06984L20.628124 206.88234Q20.878124 208.08546 21.45625 208.61671Q22.034374 209.13234 22.878124 209.13234Q23.8625 209.13234 24.55 208.44484Q25.2375 207.75734 25.2375 206.74171Q25.2375 205.77296 24.596874 205.14796Q23.971874 204.52296 22.9875 204.52296Q22.596874 204.52296 22.003124 204.67921L22.159374 203.44484Q22.3 203.46046 22.378124 203.46046Q23.284374 203.46046 24.003124 202.99171Q24.721874 202.52296 24.721874 201.53859Q24.721874 200.77296 24.190624 200.27296Q23.675 199.75734 22.846874 199.75734Q22.01875 199.75734 21.471874 200.27296Q20.925 200.78859 20.76875 201.81984L19.3625 201.56984Q19.628124 200.14796 20.534374 199.38234Q21.45625 198.60109 22.815624 198.60109Q23.753124 198.60109 24.534374 199.00734Q25.33125 199.39796 25.7375 200.10109Q26.159374 200.78859 26.159374 201.56984Q26.159374 202.31984 25.753124 202.92921Q25.3625 203.53859 24.58125 203.89796Q25.596874 204.13234 26.159374 204.86671Q26.721874 205.60109 26.721874 206.71046Q26.721874 208.21046 25.628124 209.25734Q24.534374 210.30421 22.8625 210.30421Q21.3625 210.30421 20.3625 209.41359Q19.3625 208.50734 19.221874 207.06984ZM32.721874 210.10109L32.721874 207.35109L27.753124 207.35109L27.753124 206.06984L32.9875 198.64796L34.128124 198.64796L34.128124 206.06984L35.675 206.06984L35.675 207.35109L34.128124 207.35109L34.128124 210.10109L32.721874 210.10109ZM32.721874 206.06984L32.721874 200.89796L29.14375 206.06984L32.721874 206.06984ZM38.003124 210.10109L38.003124 208.49171L39.6125 208.49171L39.6125 210.10109L38.003124 210.10109ZM46.51875 210.10109L45.1125 210.10109L45.1125 201.13234Q44.596874 201.61671 43.76875 202.10109Q42.95625 202.58546 42.3 202.83546L42.3 201.47609Q43.471874 200.91359 44.346874 200.13234Q45.2375 199.33546 45.6125 198.60109L46.51875 198.60109L46.51875 210.10109ZM50.4875 201.39796Q50.4875 200.16359 51.096874 199.30421Q51.721874 198.44484 52.89375 198.44484Q53.971874 198.44484 54.675 199.22609Q55.378124 199.99171 55.378124 201.47609Q55.378124 202.92921 54.659374 203.72609Q53.95625 204.50734 52.909374 204.50734Q51.8625 204.50734 51.175 203.74171Q50.4875 202.96046 50.4875 201.39796ZM52.925 199.41359Q52.409374 199.41359 52.05 199.86671Q51.70625 200.31984 51.70625 201.53859Q51.70625 202.63234 52.05 203.08546Q52.409374 203.53859 52.925 203.53859Q53.45625 203.53859 53.8 203.08546Q54.159374 202.63234 54.159374 201.42921Q54.159374 200.31984 53.8 199.86671Q53.45625 199.41359 52.925 199.41359ZM52.940624 210.52296L59.20625 198.44484L60.346874 198.44484L54.096874 210.52296L52.940624 210.52296ZM57.89375 207.41359Q57.89375 206.17921 58.503124 205.31984Q59.128124 204.46046 60.3 204.46046Q61.378124 204.46046 62.08125 205.24171Q62.8 206.00734 62.8 207.49171Q62.8 208.94484 62.08125 209.74171Q61.3625 210.52296 60.315624 210.52296Q59.26875 210.52296 58.58125 209.74171Q57.89375 208.96046 57.89375 207.41359ZM60.346874 205.42921Q59.815624 205.42921 59.45625 205.88234Q59.1125 206.33546 59.1125 207.55421Q59.1125 208.64796 59.45625 209.10109Q59.815624 209.55421 60.33125 209.55421Q60.878124 209.55421 61.221874 209.10109Q61.565624 208.64796 61.565624 207.44484Q61.565624 206.33546 61.20625 205.88234Q60.8625 205.42921 60.346874 205.42921Z" fill-rule="nonzero"/><path stroke="#757575" stroke-width="1.0" stroke-linecap="butt" d="M18.55 193.60109L145.23334 193.60109L159.03175 193.60109" fill-rule="nonzero"/><path fill="#9e9e9e" d="M161.03175 193.60109C161.03175 192.49652 160.13632 191.60109 159.03175 191.60109C157.92719 191.60109 157.03175 192.49652 157.03175 193.60109C157.03175 194.70566 157.92719 195.60109 159.03175 195.60109C160.13632 195.60109 161.03175 194.70566 161.03175 193.60109" fill-rule="nonzero"/><path fill="#efefef" d="M481.71564 69.916664L481.71564 58.46354L489.9969 58.46354L489.9969 59.80729L483.23126 59.80729L483.23126 63.322914L489.575 63.322914L489.575 64.666664L483.23126 64.666664L483.23126 68.55729L490.2625 68.55729L490.2625 69.916664L481.71564 69.916664ZM495.575 68.65104L495.77814 69.90104Q495.1844 70.02604 494.71564 70.02604Q493.95 70.02604 493.52814 69.791664Q493.10626 69.541664 492.9344 69.15104Q492.7625 68.74479 492.7625 67.479164L492.7625 62.71354L491.73126 62.71354L491.73126 61.61979L492.7625 61.61979L492.7625 59.55729L494.16876 58.71354L494.16876 61.61979L495.575 61.61979L495.575 62.71354L494.16876 62.71354L494.16876 67.55729Q494.16876 68.166664 494.23126 68.33854Q494.3094 68.510414 494.48126 68.61979Q494.65314 68.71354 494.96564 68.71354Q495.2 68.71354 495.575 68.65104ZM496.5125 69.916664L496.5125 58.46354L497.91876 58.46354L497.91876 62.572914Q498.90314 61.43229 500.40314 61.43229Q501.325 61.43229 501.9969 61.791664Q502.6844 62.15104 502.96564 62.791664Q503.2625 63.43229 503.2625 64.65104L503.2625 69.916664L501.85626 69.916664L501.85626 64.65104Q501.85626 63.604164 501.40314 63.11979Q500.95 62.635414 500.10626 62.635414Q499.48126 62.635414 498.9344 62.96354Q498.3875 63.291664 498.15314 63.854164Q497.91876 64.40104 497.91876 65.36979L497.91876 69.916664L496.5125 69.916664ZM505.5125 69.916664L505.5125 61.61979L506.77814 61.61979L506.77814 62.791664Q507.6844 61.43229 509.41876 61.43229Q510.16876 61.43229 510.79376 61.697914Q511.41876 61.96354 511.73126 62.40104Q512.04376 62.83854 512.16876 63.447914Q512.2469 63.83854 512.2469 64.80729L512.2469 69.916664L510.84064 69.916664L510.84064 64.86979Q510.84064 64.010414 510.66876 63.58854Q510.5125 63.15104 510.09064 62.90104Q509.6844 62.65104 509.1219 62.65104Q508.21564 62.65104 507.5594 63.229164Q506.91876 63.791664 506.91876 65.385414L506.91876 69.916664L505.5125 69.916664ZM514.5125 60.072914L514.5125 58.46354L515.91876 58.46354L515.91876 60.072914L514.5125 60.072914ZM514.5125 69.916664L514.5125 61.61979L515.91876 61.61979L515.91876 69.916664L514.5125 69.916664ZM523.91876 66.86979L525.3094 67.05729Q525.075 68.479164 524.1375 69.291664Q523.21564 70.104164 521.85626 70.104164Q520.15314 70.104164 519.10626 68.99479Q518.075 67.86979 518.075 65.791664Q518.075 64.447914 518.5125 63.447914Q518.96564 62.43229 519.8719 61.93229Q520.79376 61.43229 521.85626 61.43229Q523.21564 61.43229 524.075 62.11979Q524.9344 62.791664 525.16876 64.05729L523.8094 64.260414Q523.60626 63.43229 523.10626 63.010414Q522.6219 62.58854 521.91876 62.58854Q520.85626 62.58854 520.1844 63.354164Q519.52814 64.104164 519.52814 65.760414Q519.52814 67.43229 520.16876 68.197914Q520.8094 68.947914 521.84064 68.947914Q522.66876 68.947914 523.21564 68.447914Q523.77814 67.93229 523.91876 66.86979ZM536.04376 65.416664L536.04376 64.072914L540.90314 64.072914L540.90314 68.322914Q539.77814 69.21354 538.59064 69.666664Q537.40314 70.11979 536.15314 70.11979Q534.46564 70.11979 533.09064 69.40104Q531.71564 68.666664 531.0125 67.30729Q530.3094 65.93229 530.3094 64.24479Q530.3094 62.572914 530.9969 61.11979Q531.7 59.666664 533.0125 58.96354Q534.325 58.260414 536.04376 58.260414Q537.27814 58.260414 538.27814 58.666664Q539.29376 59.072914 539.85626 59.791664Q540.4344 60.510414 540.73126 61.666664L539.35626 62.041664Q539.10626 61.166664 538.71564 60.666664Q538.34064 60.166664 537.6219 59.86979Q536.91876 59.55729 536.04376 59.55729Q535.0125 59.55729 534.2469 59.885414Q533.4969 60.197914 533.02814 60.71354Q532.5594 61.229164 532.3094 61.83854Q531.8719 62.90104 531.8719 64.15104Q531.8719 65.68229 532.3875 66.71354Q532.91876 67.74479 533.91876 68.24479Q534.9344 68.74479 536.075 68.74479Q537.0594 68.74479 537.9969 68.36979Q538.9344 67.979164 539.41876 67.55729L539.41876 65.416664L536.04376 65.416664ZM542.4969 69.916664L542.4969 61.61979L543.7625 61.61979L543.7625 62.86979Q544.2469 61.99479 544.65314 61.71354Q545.0594 61.43229 545.5594 61.43229Q546.2625 61.43229 546.9969 61.885414L546.5125 63.18229Q545.9969 62.885414 545.48126 62.885414Q545.02814 62.885414 544.65314 63.166664Q544.29376 63.43229 544.1375 63.93229Q543.90314 64.68229 543.90314 65.572914L543.90314 69.916664L542.4969 69.916664ZM546.98126 65.760414Q546.98126 63.46354 548.2625 62.354164Q549.34064 61.43229 550.8719 61.43229Q552.59064 61.43229 553.66876 62.55729Q554.7625 63.666664 554.7625 65.65104Q554.7625 67.24479 554.27814 68.166664Q553.79376 69.08854 552.8719 69.604164Q551.96564 70.104164 550.8719 70.104164Q549.1375 70.104164 548.0594 68.99479Q546.98126 67.86979 546.98126 65.760414ZM548.4344 65.760414Q548.4344 67.354164 549.1219 68.15104Q549.825 68.947914 550.8719 68.947914Q551.91876 68.947914 552.60626 68.15104Q553.3094 67.354164 553.3094 65.71354Q553.3094 64.18229 552.60626 63.385414Q551.91876 62.58854 550.8719 62.58854Q549.825 62.58854 549.1219 63.385414Q548.4344 64.166664 548.4344 65.760414ZM561.95 69.916664L561.95 68.697914Q560.98126 70.104164 559.3094 70.104164Q558.575 70.104164 557.9344 69.822914Q557.3094 69.541664 556.9969 69.11979Q556.6844 68.68229 556.5594 68.072914Q556.48126 67.65104 556.48126 66.760414L556.48126 61.61979L557.8875 61.61979L557.8875 66.21354Q557.8875 67.322914 557.96564 67.697914Q558.10626 68.260414 558.52814 68.572914Q558.96564 68.885414 559.59064 68.885414Q560.23126 68.885414 560.77814 68.572914Q561.34064 68.24479 561.5594 67.68229Q561.79376 67.11979 561.79376 66.05729L561.79376 61.61979L563.2 61.61979L563.2 69.916664L561.95 69.916664ZM565.5125 73.104164L565.5125 61.61979L566.79376 61.61979L566.79376 62.697914Q567.2469 62.05729 567.8094 61.74479Q568.3875 61.43229 569.2 61.43229Q570.2625 61.43229 571.075 61.979164Q571.8875 62.52604 572.29376 63.52604Q572.71564 64.510414 572.71564 65.697914Q572.71564 66.979164 572.2469 67.99479Q571.79376 69.010414 570.91876 69.55729Q570.0594 70.104164 569.09064 70.104164Q568.3875 70.104164 567.825 69.80729Q567.27814 69.510414 566.91876 69.05729L566.91876 73.104164L565.5125 73.104164ZM566.77814 65.80729Q566.77814 67.416664 567.41876 68.18229Q568.075 68.947914 568.9969 68.947914Q569.9344 68.947914 570.60626 68.15104Q571.27814 67.354164 571.27814 65.697914Q571.27814 64.104164 570.6219 63.322914Q569.96564 62.52604 569.0594 62.52604Q568.16876 62.52604 567.46564 63.36979Q566.77814 64.21354 566.77814 65.80729ZM573.95 67.43229L575.34064 67.21354Q575.45 68.05729 575.98126 68.510414Q576.52814 68.947914 577.48126 68.947914Q578.45 68.947914 578.91876 68.55729Q579.3875 68.15104 579.3875 67.61979Q579.3875 67.15104 578.98126 66.86979Q578.6844 66.68229 577.54376 66.40104Q575.9969 66.010414 575.3875 65.729164Q574.79376 65.43229 574.48126 64.93229Q574.1844 64.43229 574.1844 63.822914Q574.1844 63.260414 574.4344 62.791664Q574.6844 62.322914 575.1219 62.010414Q575.45 61.760414 576.0125 61.604164Q576.59064 61.43229 577.23126 61.43229Q578.21564 61.43229 578.95 61.71354Q579.6844 61.99479 580.02814 62.479164Q580.3875 62.947914 580.52814 63.760414L579.15314 63.947914Q579.0594 63.30729 578.60626 62.947914Q578.15314 62.58854 577.34064 62.58854Q576.3719 62.58854 575.95 62.916664Q575.54376 63.229164 575.54376 63.65104Q575.54376 63.93229 575.71564 64.15104Q575.8875 64.36979 576.2469 64.52604Q576.46564 64.604164 577.4969 64.885414Q578.98126 65.27604 579.575 65.541664Q580.16876 65.791664 580.4969 66.27604Q580.84064 66.760414 580.84064 67.479164Q580.84064 68.18229 580.41876 68.80729Q580.0125 69.416664 579.23126 69.760414Q578.46564 70.104164 577.4969 70.104164Q575.8719 70.104164 575.02814 69.43229Q574.1844 68.760414 573.95 67.43229Z" fill-rule="nonzero"/><path fill="#9e9e9e" d="M553.5125 90.55729L553.5125 91.916664L545.9344 91.916664Q545.91876 91.40104 546.10626 90.93229Q546.3875 90.166664 547.02814 89.416664Q547.66876 88.666664 548.8719 87.68229Q550.73126 86.15104 551.3875 85.260414Q552.04376 84.354164 552.04376 83.55729Q552.04376 82.729164 551.45 82.15104Q550.85626 81.572914 549.8875 81.572914Q548.8719 81.572914 548.2625 82.18229Q547.65314 82.791664 547.65314 83.86979L546.2 83.729164Q546.35626 82.104164 547.325 81.260414Q548.29376 80.416664 549.91876 80.416664Q551.575 80.416664 552.52814 81.33854Q553.4969 82.24479 553.4969 83.58854Q553.4969 84.27604 553.21564 84.947914Q552.9344 85.604164 552.27814 86.33854Q551.6219 87.072914 550.10626 88.354164Q548.84064 89.416664 548.48126 89.80729Q548.1219 90.18229 547.8875 90.55729L553.5125 90.55729ZM555.90314 91.916664L555.90314 90.30729L557.5125 90.30729L557.5125 91.916664L555.90314 91.916664ZM559.1219 88.885414L560.52814 88.697914Q560.77814 89.90104 561.35626 90.43229Q561.9344 90.947914 562.77814 90.947914Q563.7625 90.947914 564.45 90.260414Q565.1375 89.572914 565.1375 88.55729Q565.1375 87.58854 564.4969 86.96354Q563.8719 86.33854 562.8875 86.33854Q562.4969 86.33854 561.90314 86.49479L562.0594 85.260414Q562.2 85.27604 562.27814 85.27604Q563.1844 85.27604 563.90314 84.80729Q564.6219 84.33854 564.6219 83.354164Q564.6219 82.58854 564.09064 82.08854Q563.575 81.572914 562.7469 81.572914Q561.91876 81.572914 561.3719 82.08854Q560.825 82.604164 560.66876 83.635414L559.2625 83.385414Q559.52814 81.96354 560.4344 81.197914Q561.35626 80.416664 562.71564 80.416664Q563.65314 80.416664 564.4344 80.822914Q565.23126 81.21354 565.6375 81.916664Q566.0594 82.604164 566.0594 83.385414Q566.0594 84.135414 565.65314 84.74479Q565.2625 85.354164 564.48126 85.71354Q565.4969 85.947914 566.0594 86.68229Q566.6219 87.416664 566.6219 88.52604Q566.6219 90.02604 565.52814 91.072914Q564.4344 92.11979 562.7625 92.11979Q561.2625 92.11979 560.2625 91.229164Q559.2625 90.322914 559.1219 88.885414ZM568.3875 83.21354Q568.3875 81.979164 568.9969 81.11979Q569.6219 80.260414 570.79376 80.260414Q571.8719 80.260414 572.575 81.041664Q573.27814 81.80729 573.27814 83.291664Q573.27814 84.74479 572.5594 85.541664Q571.85626 86.322914 570.8094 86.322914Q569.7625 86.322914 569.075 85.55729Q568.3875 84.77604 568.3875 83.21354ZM570.825 81.229164Q570.3094 81.229164 569.95 81.68229Q569.60626 82.135414 569.60626 83.354164Q569.60626 84.447914 569.95 84.90104Q570.3094 85.354164 570.825 85.354164Q571.35626 85.354164 571.7 84.90104Q572.0594 84.447914 572.0594 83.24479Q572.0594 82.135414 571.7 81.68229Q571.35626 81.229164 570.825 81.229164ZM570.84064 92.33854L577.10626 80.260414L578.2469 80.260414L571.9969 92.33854L570.84064 92.33854ZM575.79376 89.229164Q575.79376 87.99479 576.40314 87.135414Q577.02814 86.27604 578.2 86.27604Q579.27814 86.27604 579.98126 87.05729Q580.7 87.822914 580.7 89.30729Q580.7 90.760414 579.98126 91.55729Q579.2625 92.33854 578.21564 92.33854Q577.16876 92.33854 576.48126 91.55729Q575.79376 90.77604 575.79376 89.229164ZM578.2469 87.24479Q577.71564 87.24479 577.35626 87.697914Q577.0125 88.15104 577.0125 89.36979Q577.0125 90.46354 577.35626 90.916664Q577.71564 91.36979 578.23126 91.36979Q578.77814 91.36979 579.1219 90.916664Q579.46564 90.46354 579.46564 89.260414Q579.46564 88.15104 579.10626 87.697914Q578.7625 87.24479 578.2469 87.24479Z" fill-rule="nonzero"/><path stroke="#757575" stroke-width="1.0" stroke-linecap="butt" d="M581.45 75.416664L454.76666 75.416664L310.08224 62.715088" fill-rule="nonzero"/><path fill="#9e9e9e" d="M312.08224 62.715088C312.08224 61.61052 311.18683 60.715088 310.08224 60.715088C308.9777 60.715088 308.08224 61.61052 308.08224 62.715088C308.08224 63.819656 308.9777 64.71509 310.08224 64.71509C311.18683 64.71509 312.08224 63.819656 312.08224 62.715088" fill-rule="nonzero"/><path fill="#efefef" d="M495.85626 106.90104L497.3719 107.27604Q496.90314 109.15104 495.65314 110.135414Q494.41876 111.11979 492.6375 111.11979Q490.77814 111.11979 489.6219 110.36979Q488.46564 109.604164 487.85626 108.18229Q487.2469 106.74479 487.2469 105.104164Q487.2469 103.30729 487.9344 101.979164Q488.6219 100.65104 489.8719 99.96354Q491.1375 99.260414 492.65314 99.260414Q494.3719 99.260414 495.54376 100.135414Q496.71564 101.010414 497.1844 102.604164L495.6844 102.947914Q495.29376 101.697914 494.52814 101.135414Q493.77814 100.55729 492.6219 100.55729Q491.3094 100.55729 490.41876 101.197914Q489.52814 101.822914 489.16876 102.90104Q488.8094 103.96354 488.8094 105.08854Q488.8094 106.55729 489.23126 107.65104Q489.66876 108.729164 490.5594 109.27604Q491.46564 109.80729 492.5125 109.80729Q493.77814 109.80729 494.65314 109.072914Q495.54376 108.33854 495.85626 106.90104ZM504.95 110.916664L504.95 109.697914Q503.98126 111.104164 502.3094 111.104164Q501.575 111.104164 500.9344 110.822914Q500.3094 110.541664 499.9969 110.11979Q499.6844 109.68229 499.5594 109.072914Q499.48126 108.65104 499.48126 107.760414L499.48126 102.61979L500.8875 102.61979L500.8875 107.21354Q500.8875 108.322914 500.96564 108.697914Q501.10626 109.260414 501.52814 109.572914Q501.96564 109.885414 502.59064 109.885414Q503.23126 109.885414 503.77814 109.572914Q504.34064 109.24479 504.5594 108.68229Q504.79376 108.11979 504.79376 107.05729L504.79376 102.61979L506.2 102.61979L506.2 110.916664L504.95 110.916664ZM508.48126 110.916664L508.48126 99.46354L509.8875 99.46354L509.8875 110.916664L508.48126 110.916664ZM515.575 109.65104L515.77814 110.90104Q515.1844 111.02604 514.71564 111.02604Q513.95 111.02604 513.52814 110.791664Q513.10626 110.541664 512.9344 110.15104Q512.7625 109.74479 512.7625 108.479164L512.7625 103.71354L511.73126 103.71354L511.73126 102.61979L512.7625 102.61979L512.7625 100.55729L514.16876 99.71354L514.16876 102.61979L515.575 102.61979L515.575 103.71354L514.16876 103.71354L514.16876 108.55729Q514.16876 109.166664 514.23126 109.33854Q514.3094 109.510414 514.48126 109.61979Q514.65314 109.71354 514.96564 109.71354Q515.2 109.71354 515.575 109.65104ZM521.95 110.916664L521.95 109.697914Q520.98126 111.104164 519.3094 111.104164Q518.575 111.104164 517.9344 110.822914Q517.3094 110.541664 516.9969 110.11979Q516.6844 109.68229 516.5594 109.072914Q516.48126 108.65104 516.48126 107.760414L516.48126 102.61979L517.8875 102.61979L517.8875 107.21354Q517.8875 108.322914 517.96564 108.697914Q518.10626 109.260414 518.52814 109.572914Q518.96564 109.885414 519.59064 109.885414Q520.23126 109.885414 520.77814 109.572914Q521.34064 109.24479 521.5594 108.68229Q521.79376 108.11979 521.79376 107.05729L521.79376 102.61979L523.2 102.61979L523.2 110.916664L521.95 110.916664ZM525.4969 110.916664L525.4969 102.61979L526.7625 102.61979L526.7625 103.86979Q527.2469 102.99479 527.65314 102.71354Q528.0594 102.43229 528.5594 102.43229Q529.2625 102.43229 529.9969 102.885414L529.5125 104.18229Q528.9969 103.885414 528.48126 103.885414Q528.02814 103.885414 527.65314 104.166664Q527.29376 104.43229 527.1375 104.93229Q526.90314 105.68229 526.90314 106.572914L526.90314 110.916664L525.4969 110.916664ZM535.91876 109.885414Q535.1375 110.55729 534.41876 110.83854Q533.7 111.104164 532.8719 111.104164Q531.4969 111.104164 530.7625 110.43229Q530.02814 109.760414 530.02814 108.729164Q530.02814 108.11979 530.3094 107.61979Q530.59064 107.104164 531.02814 106.80729Q531.48126 106.49479 532.04376 106.33854Q532.46564 106.229164 533.29376 106.135414Q534.9969 105.93229 535.8094 105.65104Q535.8094 105.354164 535.8094 105.27604Q535.8094 104.416664 535.41876 104.072914Q534.8719 103.58854 533.8094 103.58854Q532.825 103.58854 532.34064 103.947914Q531.8719 104.291664 531.65314 105.166664L530.27814 104.979164Q530.46564 104.104164 530.8875 103.55729Q531.325 103.010414 532.1375 102.729164Q532.95 102.43229 534.0125 102.43229Q535.075 102.43229 535.73126 102.68229Q536.40314 102.93229 536.71564 103.30729Q537.02814 103.68229 537.15314 104.260414Q537.23126 104.61979 537.23126 105.55729L537.23126 107.43229Q537.23126 109.40104 537.3094 109.916664Q537.40314 110.43229 537.66876 110.916664L536.2 110.916664Q535.98126 110.479164 535.91876 109.885414ZM535.8094 106.74479Q535.04376 107.05729 533.5125 107.27604Q532.6375 107.40104 532.27814 107.55729Q531.91876 107.71354 531.71564 108.02604Q531.52814 108.322914 531.52814 108.68229Q531.52814 109.24479 531.95 109.61979Q532.3875 109.99479 533.2 109.99479Q534.0125 109.99479 534.6375 109.65104Q535.27814 109.291664 535.575 108.666664Q535.8094 108.197914 535.8094 107.260414L535.8094 106.74479ZM539.48126 110.916664L539.48126 99.46354L540.8875 99.46354L540.8875 110.916664L539.48126 110.916664ZM546.41876 110.916664L550.825 99.46354L552.46564 99.46354L557.15314 110.916664L555.41876 110.916664L554.09064 107.447914L549.29376 107.447914L548.04376 110.916664L546.41876 110.916664ZM549.73126 106.21354L553.6219 106.21354L552.41876 103.041664Q551.8719 101.58854 551.60626 100.666664Q551.3875 101.760414 550.9969 102.854164L549.73126 106.21354ZM563.91876 107.86979L565.3094 108.05729Q565.075 109.479164 564.1375 110.291664Q563.21564 111.104164 561.85626 111.104164Q560.15314 111.104164 559.10626 109.99479Q558.075 108.86979 558.075 106.791664Q558.075 105.447914 558.5125 104.447914Q558.96564 103.43229 559.8719 102.93229Q560.79376 102.43229 561.85626 102.43229Q563.21564 102.43229 564.075 103.11979Q564.9344 103.791664 565.16876 105.05729L563.8094 105.260414Q563.60626 104.43229 563.10626 104.010414Q562.6219 103.58854 561.91876 103.58854Q560.85626 103.58854 560.1844 104.354164Q559.52814 105.104164 559.52814 106.760414Q559.52814 108.43229 560.16876 109.197914Q560.8094 109.947914 561.84064 109.947914Q562.66876 109.947914 563.21564 109.447914Q563.77814 108.93229 563.91876 107.86979ZM569.575 109.65104L569.77814 110.90104Q569.1844 111.02604 568.71564 111.02604Q567.95 111.02604 567.52814 110.791664Q567.10626 110.541664 566.9344 110.15104Q566.7625 109.74479 566.7625 108.479164L566.7625 103.71354L565.73126 103.71354L565.73126 102.61979L566.7625 102.61979L566.7625 100.55729L568.16876 99.71354L568.16876 102.61979L569.575 102.61979L569.575 103.71354L568.16876 103.71354L568.16876 108.55729Q568.16876 109.166664 568.23126 109.33854Q568.3094 109.510414 568.48126 109.61979Q568.65314 109.71354 568.96564 109.71354Q569.2 109.71354 569.575 109.65104ZM569.95 108.43229L571.34064 108.21354Q571.45 109.05729 571.98126 109.510414Q572.52814 109.947914 573.48126 109.947914Q574.45 109.947914 574.91876 109.55729Q575.3875 109.15104 575.3875 108.61979Q575.3875 108.15104 574.98126 107.86979Q574.6844 107.68229 573.54376 107.40104Q571.9969 107.010414 571.3875 106.729164Q570.79376 106.43229 570.48126 105.93229Q570.1844 105.43229 570.1844 104.822914Q570.1844 104.260414 570.4344 103.791664Q570.6844 103.322914 571.1219 103.010414Q571.45 102.760414 572.0125 102.604164Q572.59064 102.43229 573.23126 102.43229Q574.21564 102.43229 574.95 102.71354Q575.6844 102.99479 576.02814 103.479164Q576.3875 103.947914 576.52814 104.760414L575.15314 104.947914Q575.0594 104.30729 574.60626 103.947914Q574.15314 103.58854 573.34064 103.58854Q572.3719 103.58854 571.95 103.916664Q571.54376 104.229164 571.54376 104.65104Q571.54376 104.93229 571.71564 105.15104Q571.8875 105.36979 572.2469 105.52604Q572.46564 105.604164 573.4969 105.885414Q574.98126 106.27604 575.575 106.541664Q576.16876 106.791664 576.4969 107.27604Q576.84064 107.760414 576.84064 108.479164Q576.84064 109.18229 576.41876 109.80729Q576.0125 110.416664 575.23126 110.760414Q574.46564 111.104164 573.4969 111.104164Q571.8719 111.104164 571.02814 110.43229Q570.1844 109.760414 569.95 108.43229ZM578.90314 110.916664L578.90314 109.30729L580.5125 109.30729L580.5125 110.916664L578.90314 110.916664Z" fill-rule="nonzero"/><path fill="#9e9e9e" d="M553.41876 124.26042L552.0125 124.3698Q551.825 123.54167 551.48126 123.16667Q550.91876 122.57292 550.075 122.57292Q549.40314 122.57292 548.90314 122.94792Q548.23126 123.4323 547.84064 124.3698Q547.46564 125.29167 547.45 127.01042Q547.96564 126.22917 548.7 125.85417Q549.4344 125.47917 550.23126 125.47917Q551.6375 125.47917 552.6219 126.52605Q553.6219 127.5573 553.6219 129.19792Q553.6219 130.27605 553.15314 131.19792Q552.6844 132.1198 551.8719 132.6198Q551.0594 133.1198 550.02814 133.1198Q548.27814 133.1198 547.16876 131.82292Q546.0594 130.52605 546.0594 127.5573Q546.0594 124.22917 547.27814 122.72917Q548.35626 121.41667 550.16876 121.41667Q551.5125 121.41667 552.3719 122.1823Q553.2469 122.9323 553.41876 124.26042ZM547.66876 129.19792Q547.66876 129.9323 547.98126 130.60417Q548.29376 131.26042 548.84064 131.60417Q549.40314 131.94792 550.0125 131.94792Q550.90314 131.94792 551.54376 131.22917Q552.1844 130.51042 552.1844 129.27605Q552.1844 128.08855 551.54376 127.41667Q550.91876 126.72917 549.95 126.72917Q548.9969 126.72917 548.325 127.41667Q547.66876 128.08855 547.66876 129.19792ZM555.90314 132.91667L555.90314 131.3073L557.5125 131.3073L557.5125 132.91667L555.90314 132.91667ZM561.27814 126.69792Q560.40314 126.38542 559.98126 125.79167Q559.5594 125.19792 559.5594 124.3698Q559.5594 123.1198 560.45 122.27605Q561.35626 121.41667 562.85626 121.41667Q564.35626 121.41667 565.2625 122.29167Q566.1844 123.15105 566.1844 124.40105Q566.1844 125.19792 565.7625 125.79167Q565.34064 126.38542 564.4969 126.69792Q565.54376 127.04167 566.09064 127.8073Q566.65314 128.57292 566.65314 129.63542Q566.65314 131.10417 565.60626 132.1198Q564.575 133.1198 562.8719 133.1198Q561.1844 133.1198 560.1375 132.1198Q559.10626 131.10417 559.10626 129.60417Q559.10626 128.47917 559.66876 127.72917Q560.23126 126.97917 561.27814 126.69792ZM560.9969 124.32292Q560.9969 125.13542 561.5125 125.65105Q562.04376 126.16667 562.8875 126.16667Q563.7 126.16667 564.21564 125.65105Q564.73126 125.13542 564.73126 124.40105Q564.73126 123.6198 564.2 123.10417Q563.66876 122.57292 562.8719 122.57292Q562.0594 122.57292 561.52814 123.08855Q560.9969 123.60417 560.9969 124.32292ZM560.54376 129.60417Q560.54376 130.21355 560.825 130.77605Q561.1219 131.33855 561.6844 131.65105Q562.2469 131.94792 562.8875 131.94792Q563.90314 131.94792 564.5594 131.3073Q565.21564 130.65105 565.21564 129.65105Q565.21564 128.63542 564.52814 127.97917Q563.85626 127.3073 562.84064 127.3073Q561.85626 127.3073 561.2 127.96355Q560.54376 128.6198 560.54376 129.60417ZM568.3875 124.21355Q568.3875 122.97917 568.9969 122.1198Q569.6219 121.26042 570.79376 121.26042Q571.8719 121.26042 572.575 122.04167Q573.27814 122.8073 573.27814 124.29167Q573.27814 125.7448 572.5594 126.54167Q571.85626 127.32292 570.8094 127.32292Q569.7625 127.32292 569.075 126.5573Q568.3875 125.77605 568.3875 124.21355ZM570.825 122.22917Q570.3094 122.22917 569.95 122.6823Q569.60626 123.13542 569.60626 124.35417Q569.60626 125.44792 569.95 125.90105Q570.3094 126.35417 570.825 126.35417Q571.35626 126.35417 571.7 125.90105Q572.0594 125.44792 572.0594 124.2448Q572.0594 123.13542 571.7 122.6823Q571.35626 122.22917 570.825 122.22917ZM570.84064 133.33855L577.10626 121.26042L578.2469 121.26042L571.9969 133.33855L570.84064 133.33855ZM575.79376 130.22917Q575.79376 128.9948 576.40314 128.13542Q577.02814 127.27605 578.2 127.27605Q579.27814 127.27605 579.98126 128.0573Q580.7 128.82292 580.7 130.3073Q580.7 131.76042 579.98126 132.5573Q579.2625 133.33855 578.21564 133.33855Q577.16876 133.33855 576.48126 132.5573Q575.79376 131.77605 575.79376 130.22917ZM578.2469 128.2448Q577.71564 128.2448 577.35626 128.69792Q577.0125 129.15105 577.0125 130.3698Q577.0125 131.46355 577.35626 131.91667Q577.71564 132.3698 578.23126 132.3698Q578.77814 132.3698 579.1219 131.91667Q579.46564 131.46355 579.46564 130.26042Q579.46564 129.15105 579.10626 128.69792Q578.7625 128.2448 578.2469 128.2448Z" fill-rule="nonzero"/><path stroke="#757575" stroke-width="1.0" stroke-linecap="butt" d="M581.45 116.416664L454.76666 116.416664L349.3892 71.26579" fill-rule="nonzero"/><path fill="#9e9e9e" d="M351.3892 71.26579C351.3892 70.161224 350.49377 69.26579 349.3892 69.26579C348.2846 69.26579 347.3892 70.161224 347.3892 71.26579C347.3892 72.37036 348.2846 73.26579 349.3892 73.26579C350.49377 73.26579 351.3892 72.37036 351.3892 71.26579" fill-rule="nonzero"/><path fill="#efefef" d="M514.71564 151.91667L514.71564 140.46355L519.79376 140.46355Q521.325 140.46355 522.1219 140.77605Q522.91876 141.07292 523.3875 141.85417Q523.8719 142.63542 523.8719 143.58855Q523.8719 144.8073 523.075 145.65105Q522.29376 146.47917 520.6375 146.69792Q521.2469 146.9948 521.5594 147.27605Q522.21564 147.88542 522.8094 148.79167L524.8094 151.91667L522.90314 151.91667L521.3875 149.52605Q520.71564 148.4948 520.27814 147.94792Q519.85626 147.40105 519.5125 147.1823Q519.1844 146.96355 518.825 146.88542Q518.575 146.82292 517.98126 146.82292L516.23126 146.82292L516.23126 151.91667L514.71564 151.91667ZM516.23126 145.51042L519.48126 145.51042Q520.52814 145.51042 521.10626 145.3073Q521.7 145.08855 521.9969 144.6198Q522.3094 144.13542 522.3094 143.58855Q522.3094 142.77605 521.71564 142.26042Q521.1219 141.72917 519.85626 141.72917L516.23126 141.72917L516.23126 145.51042ZM532.1844 149.2448L533.6375 149.41667Q533.29376 150.69792 532.35626 151.40105Q531.4344 152.10417 529.9969 152.10417Q528.16876 152.10417 527.10626 150.97917Q526.04376 149.85417 526.04376 147.83855Q526.04376 145.7448 527.1219 144.58855Q528.2 143.4323 529.91876 143.4323Q531.575 143.4323 532.6219 144.57292Q533.6844 145.69792 533.6844 147.7448Q533.6844 147.8698 533.6844 148.1198L527.4969 148.1198Q527.575 149.4948 528.2625 150.22917Q528.96564 150.94792 529.9969 150.94792Q530.77814 150.94792 531.325 150.54167Q531.8719 150.13542 532.1844 149.2448ZM527.575 146.96355L532.2 146.96355Q532.10626 145.91667 531.66876 145.40105Q530.9969 144.58855 529.9344 144.58855Q528.96564 144.58855 528.29376 145.2448Q527.6375 145.88542 527.575 146.96355ZM535.48126 151.91667L535.48126 140.46355L536.8875 140.46355L536.8875 151.91667L535.48126 151.91667ZM539.5125 142.07292L539.5125 140.46355L540.91876 140.46355L540.91876 142.07292L539.5125 142.07292ZM539.5125 151.91667L539.5125 143.6198L540.91876 143.6198L540.91876 151.91667L539.5125 151.91667ZM543.2469 152.60417L544.6219 152.8073Q544.7 153.44792 545.09064 153.72917Q545.6219 154.1198 546.52814 154.1198Q547.4969 154.1198 548.02814 153.72917Q548.5594 153.33855 548.7469 152.63542Q548.85626 152.21355 548.85626 150.82292Q547.9344 151.91667 546.5594 151.91667Q544.84064 151.91667 543.90314 150.6823Q542.96564 149.44792 542.96564 147.71355Q542.96564 146.52605 543.3875 145.52605Q543.825 144.52605 544.6375 143.97917Q545.46564 143.4323 546.5594 143.4323Q548.02814 143.4323 548.98126 144.6198L548.98126 143.6198L550.27814 143.6198L550.27814 150.79167Q550.27814 152.72917 549.8875 153.54167Q549.4969 154.35417 548.6375 154.82292Q547.77814 155.29167 546.52814 155.29167Q545.04376 155.29167 544.1219 154.6198Q543.21564 153.94792 543.2469 152.60417ZM544.41876 147.6198Q544.41876 149.2448 545.0594 149.9948Q545.71564 150.7448 546.6844 150.7448Q547.65314 150.7448 548.3094 150.01042Q548.96564 149.26042 548.96564 147.66667Q548.96564 146.13542 548.29376 145.3698Q547.6219 144.58855 546.66876 144.58855Q545.73126 144.58855 545.075 145.35417Q544.41876 146.1198 544.41876 147.6198ZM552.5125 142.07292L552.5125 140.46355L553.91876 140.46355L553.91876 142.07292L552.5125 142.07292ZM552.5125 151.91667L552.5125 143.6198L553.91876 143.6198L553.91876 151.91667L552.5125 151.91667ZM555.98126 147.76042Q555.98126 145.46355 557.2625 144.35417Q558.34064 143.4323 559.8719 143.4323Q561.59064 143.4323 562.66876 144.5573Q563.7625 145.66667 563.7625 147.65105Q563.7625 149.2448 563.27814 150.16667Q562.79376 151.08855 561.8719 151.60417Q560.96564 152.10417 559.8719 152.10417Q558.1375 152.10417 557.0594 150.9948Q555.98126 149.8698 555.98126 147.76042ZM557.4344 147.76042Q557.4344 149.35417 558.1219 150.15105Q558.825 150.94792 559.8719 150.94792Q560.91876 150.94792 561.60626 150.15105Q562.3094 149.35417 562.3094 147.71355Q562.3094 146.1823 561.60626 145.38542Q560.91876 144.58855 559.8719 144.58855Q558.825 144.58855 558.1219 145.38542Q557.4344 146.16667 557.4344 147.76042ZM570.95 151.91667L570.95 150.69792Q569.98126 152.10417 568.3094 152.10417Q567.575 152.10417 566.9344 151.82292Q566.3094 151.54167 565.9969 151.1198Q565.6844 150.6823 565.5594 150.07292Q565.48126 149.65105 565.48126 148.76042L565.48126 143.6198L566.8875 143.6198L566.8875 148.21355Q566.8875 149.32292 566.96564 149.69792Q567.10626 150.26042 567.52814 150.57292Q567.96564 150.88542 568.59064 150.88542Q569.23126 150.88542 569.77814 150.57292Q570.34064 150.2448 570.5594 149.6823Q570.79376 149.1198 570.79376 148.0573L570.79376 143.6198L572.2 143.6198L572.2 151.91667L570.95 151.91667ZM573.95 149.4323L575.34064 149.21355Q575.45 150.0573 575.98126 150.51042Q576.52814 150.94792 577.48126 150.94792Q578.45 150.94792 578.91876 150.5573Q579.3875 150.15105 579.3875 149.6198Q579.3875 149.15105 578.98126 148.8698Q578.6844 148.6823 577.54376 148.40105Q575.9969 148.01042 575.3875 147.72917Q574.79376 147.4323 574.48126 146.9323Q574.1844 146.4323 574.1844 145.82292Q574.1844 145.26042 574.4344 144.79167Q574.6844 144.32292 575.1219 144.01042Q575.45 143.76042 576.0125 143.60417Q576.59064 143.4323 577.23126 143.4323Q578.21564 143.4323 578.95 143.71355Q579.6844 143.9948 580.02814 144.47917Q580.3875 144.94792 580.52814 145.76042L579.15314 145.94792Q579.0594 145.3073 578.60626 144.94792Q578.15314 144.58855 577.34064 144.58855Q576.3719 144.58855 575.95 144.91667Q575.54376 145.22917 575.54376 145.65105Q575.54376 145.9323 575.71564 146.15105Q575.8875 146.3698 576.2469 146.52605Q576.46564 146.60417 577.4969 146.88542Q578.98126 147.27605 579.575 147.54167Q580.16876 147.79167 580.4969 148.27605Q580.84064 148.76042 580.84064 149.47917Q580.84064 150.1823 580.41876 150.8073Q580.0125 151.41667 579.23126 151.76042Q578.46564 152.10417 577.4969 152.10417Q575.8719 152.10417 575.02814 151.4323Q574.1844 150.76042 573.95 149.4323Z" fill-rule="nonzero"/><path fill="#9e9e9e" d="M550.6219 173.91667L550.6219 171.16667L545.65314 171.16667L545.65314 169.88542L550.8875 162.46355L552.02814 162.46355L552.02814 169.88542L553.575 169.88542L553.575 171.16667L552.02814 171.16667L552.02814 173.91667L550.6219 173.91667ZM550.6219 169.88542L550.6219 164.71355L547.04376 169.88542L550.6219 169.88542ZM555.90314 173.91667L555.90314 172.3073L557.5125 172.3073L557.5125 173.91667L555.90314 173.91667ZM559.1219 170.91667L560.59064 170.79167Q560.7625 171.8698 561.35626 172.41667Q561.95 172.94792 562.79376 172.94792Q563.8094 172.94792 564.5125 172.1823Q565.21564 171.41667 565.21564 170.15105Q565.21564 168.94792 564.54376 168.26042Q563.8719 167.5573 562.77814 167.5573Q562.09064 167.5573 561.54376 167.8698Q560.9969 168.1823 560.6844 168.66667L559.3719 168.4948L560.48126 162.6198L566.16876 162.6198L566.16876 163.96355L561.60626 163.96355L560.98126 167.04167Q562.0125 166.32292 563.15314 166.32292Q564.65314 166.32292 565.6844 167.3698Q566.71564 168.40105 566.71564 170.02605Q566.71564 171.58855 565.8094 172.71355Q564.7 174.1198 562.79376 174.1198Q561.23126 174.1198 560.2469 173.2448Q559.2625 172.35417 559.1219 170.91667ZM568.3875 165.21355Q568.3875 163.97917 568.9969 163.1198Q569.6219 162.26042 570.79376 162.26042Q571.8719 162.26042 572.575 163.04167Q573.27814 163.8073 573.27814 165.29167Q573.27814 166.7448 572.5594 167.54167Q571.85626 168.32292 570.8094 168.32292Q569.7625 168.32292 569.075 167.5573Q568.3875 166.77605 568.3875 165.21355ZM570.825 163.22917Q570.3094 163.22917 569.95 163.6823Q569.60626 164.13542 569.60626 165.35417Q569.60626 166.44792 569.95 166.90105Q570.3094 167.35417 570.825 167.35417Q571.35626 167.35417 571.7 166.90105Q572.0594 166.44792 572.0594 165.2448Q572.0594 164.13542 571.7 163.6823Q571.35626 163.22917 570.825 163.22917ZM570.84064 174.33855L577.10626 162.26042L578.2469 162.26042L571.9969 174.33855L570.84064 174.33855ZM575.79376 171.22917Q575.79376 169.9948 576.40314 169.13542Q577.02814 168.27605 578.2 168.27605Q579.27814 168.27605 579.98126 169.0573Q580.7 169.82292 580.7 171.3073Q580.7 172.76042 579.98126 173.5573Q579.2625 174.33855 578.21564 174.33855Q577.16876 174.33855 576.48126 173.5573Q575.79376 172.77605 575.79376 171.22917ZM578.2469 169.2448Q577.71564 169.2448 577.35626 169.69792Q577.0125 170.15105 577.0125 171.3698Q577.0125 172.46355 577.35626 172.91667Q577.71564 173.3698 578.23126 173.3698Q578.77814 173.3698 579.1219 172.91667Q579.46564 172.46355 579.46564 171.26042Q579.46564 170.15105 579.10626 169.69792Q578.7625 169.2448 578.2469 169.2448Z" fill-rule="nonzero"/><path stroke="#757575" stroke-width="1.0" stroke-linecap="butt" d="M581.45 157.41667L454.76666 157.41667L392.55038 96.874504" fill-rule="nonzero"/><path fill="#9e9e9e" d="M394.55038 96.874504C394.55038 95.769936 393.65494 94.874504 392.55038 94.874504C391.4458 94.874504 390.55038 95.769936 390.55038 96.874504C390.55038 97.97907 391.4458 98.874504 392.55038 98.874504C393.65494 98.874504 394.55038 97.97907 394.55038 96.874504" fill-rule="nonzero"/><path fill="#efefef" d="M481.41876 290.7337L485.825 279.28058L487.46564 279.28058L492.15314 290.7337L490.41876 290.7337L489.09064 287.26495L484.29376 287.26495L483.04376 290.7337L481.41876 290.7337ZM484.73126 286.03058L488.6219 286.03058L487.41876 282.8587Q486.8719 281.40558 486.60626 280.4837Q486.3875 281.57745 485.9969 282.6712L484.73126 286.03058ZM493.4969 290.7337L493.4969 282.43683L494.7625 282.43683L494.7625 283.68683Q495.2469 282.81183 495.65314 282.53058Q496.0594 282.24933 496.5594 282.24933Q497.2625 282.24933 497.9969 282.70245L497.5125 283.99933Q496.9969 283.70245 496.48126 283.70245Q496.02814 283.70245 495.65314 283.9837Q495.29376 284.24933 495.1375 284.74933Q494.90314 285.49933 494.90314 286.38995L494.90314 290.7337L493.4969 290.7337ZM503.91876 287.68683L505.3094 287.87433Q505.075 289.2962 504.1375 290.1087Q503.21564 290.9212 501.85626 290.9212Q500.15314 290.9212 499.10626 289.81183Q498.075 288.68683 498.075 286.6087Q498.075 285.26495 498.5125 284.26495Q498.96564 283.24933 499.8719 282.74933Q500.79376 282.24933 501.85626 282.24933Q503.21564 282.24933 504.075 282.93683Q504.9344 283.6087 505.16876 284.87433L503.8094 285.07745Q503.60626 284.24933 503.10626 283.82745Q502.6219 283.40558 501.91876 283.40558Q500.85626 283.40558 500.1844 284.1712Q499.52814 284.9212 499.52814 286.57745Q499.52814 288.24933 500.16876 289.01495Q500.8094 289.76495 501.84064 289.76495Q502.66876 289.76495 503.21564 289.26495Q503.77814 288.74933 503.91876 287.68683ZM506.5125 290.7337L506.5125 279.28058L507.91876 279.28058L507.91876 283.38995Q508.90314 282.24933 510.40314 282.24933Q511.325 282.24933 511.9969 282.6087Q512.6844 282.96808 512.96564 283.6087Q513.2625 284.24933 513.2625 285.46808L513.2625 290.7337L511.85626 290.7337L511.85626 285.46808Q511.85626 284.4212 511.40314 283.93683Q510.95 283.45245 510.10626 283.45245Q509.48126 283.45245 508.9344 283.78058Q508.3875 284.1087 508.15314 284.6712Q507.91876 285.21808 507.91876 286.18683L507.91876 290.7337L506.5125 290.7337ZM515.5125 280.88995L515.5125 279.28058L516.91876 279.28058L516.91876 280.88995L515.5125 280.88995ZM515.5125 290.7337L515.5125 282.43683L516.91876 282.43683L516.91876 290.7337L515.5125 290.7337ZM522.575 289.46808L522.77814 290.71808Q522.1844 290.84308 521.71564 290.84308Q520.95 290.84308 520.52814 290.6087Q520.10626 290.3587 519.9344 289.96808Q519.7625 289.56183 519.7625 288.2962L519.7625 283.53058L518.73126 283.53058L518.73126 282.43683L519.7625 282.43683L519.7625 280.37433L521.16876 279.53058L521.16876 282.43683L522.575 282.43683L522.575 283.53058L521.16876 283.53058L521.16876 288.37433Q521.16876 288.9837 521.23126 289.15558Q521.3094 289.32745 521.48126 289.43683Q521.65314 289.53058 521.96564 289.53058Q522.2 289.53058 522.575 289.46808ZM529.1844 288.06183L530.6375 288.2337Q530.29376 289.51495 529.35626 290.21808Q528.4344 290.9212 526.9969 290.9212Q525.16876 290.9212 524.10626 289.7962Q523.04376 288.6712 523.04376 286.65558Q523.04376 284.56183 524.1219 283.40558Q525.2 282.24933 526.91876 282.24933Q528.575 282.24933 529.6219 283.38995Q530.6844 284.51495 530.6844 286.56183Q530.6844 286.68683 530.6844 286.93683L524.4969 286.93683Q524.575 288.31183 525.2625 289.0462Q525.96564 289.76495 526.9969 289.76495Q527.77814 289.76495 528.325 289.3587Q528.8719 288.95245 529.1844 288.06183ZM524.575 285.78058L529.2 285.78058Q529.10626 284.7337 528.66876 284.21808Q527.9969 283.40558 526.9344 283.40558Q525.96564 283.40558 525.29376 284.06183Q524.6375 284.70245 524.575 285.78058ZM537.91876 287.68683L539.3094 287.87433Q539.075 289.2962 538.1375 290.1087Q537.21564 290.9212 535.85626 290.9212Q534.15314 290.9212 533.10626 289.81183Q532.075 288.68683 532.075 286.6087Q532.075 285.26495 532.5125 284.26495Q532.96564 283.24933 533.8719 282.74933Q534.79376 282.24933 535.85626 282.24933Q537.21564 282.24933 538.075 282.93683Q538.9344 283.6087 539.16876 284.87433L537.8094 285.07745Q537.60626 284.24933 537.10626 283.82745Q536.6219 283.40558 535.91876 283.40558Q534.85626 283.40558 534.1844 284.1712Q533.52814 284.9212 533.52814 286.57745Q533.52814 288.24933 534.16876 289.01495Q534.8094 289.76495 535.84064 289.76495Q536.66876 289.76495 537.21564 289.26495Q537.77814 288.74933 537.91876 287.68683ZM543.575 289.46808L543.77814 290.71808Q543.1844 290.84308 542.71564 290.84308Q541.95 290.84308 541.52814 290.6087Q541.10626 290.3587 540.9344 289.96808Q540.7625 289.56183 540.7625 288.2962L540.7625 283.53058L539.73126 283.53058L539.73126 282.43683L540.7625 282.43683L540.7625 280.37433L542.16876 279.53058L542.16876 282.43683L543.575 282.43683L543.575 283.53058L542.16876 283.53058L542.16876 288.37433Q542.16876 288.9837 542.23126 289.15558Q542.3094 289.32745 542.48126 289.43683Q542.65314 289.53058 542.96564 289.53058Q543.2 289.53058 543.575 289.46808ZM549.95 290.7337L549.95 289.51495Q548.98126 290.9212 547.3094 290.9212Q546.575 290.9212 545.9344 290.63995Q545.3094 290.3587 544.9969 289.93683Q544.6844 289.49933 544.5594 288.88995Q544.48126 288.46808 544.48126 287.57745L544.48126 282.43683L545.8875 282.43683L545.8875 287.03058Q545.8875 288.13995 545.96564 288.51495Q546.10626 289.07745 546.52814 289.38995Q546.96564 289.70245 547.59064 289.70245Q548.23126 289.70245 548.77814 289.38995Q549.34064 289.06183 549.5594 288.49933Q549.79376 287.93683 549.79376 286.87433L549.79376 282.43683L551.2 282.43683L551.2 290.7337L549.95 290.7337ZM553.4969 290.7337L553.4969 282.43683L554.7625 282.43683L554.7625 283.68683Q555.2469 282.81183 555.65314 282.53058Q556.0594 282.24933 556.5594 282.24933Q557.2625 282.24933 557.9969 282.70245L557.5125 283.99933Q556.9969 283.70245 556.48126 283.70245Q556.02814 283.70245 555.65314 283.9837Q555.29376 284.24933 555.1375 284.74933Q554.90314 285.49933 554.90314 286.38995L554.90314 290.7337L553.4969 290.7337ZM564.1844 288.06183L565.6375 288.2337Q565.29376 289.51495 564.35626 290.21808Q563.4344 290.9212 561.9969 290.9212Q560.16876 290.9212 559.10626 289.7962Q558.04376 288.6712 558.04376 286.65558Q558.04376 284.56183 559.1219 283.40558Q560.2 282.24933 561.91876 282.24933Q563.575 282.24933 564.6219 283.38995Q565.6844 284.51495 565.6844 286.56183Q565.6844 286.68683 565.6844 286.93683L559.4969 286.93683Q559.575 288.31183 560.2625 289.0462Q560.96564 289.76495 561.9969 289.76495Q562.77814 289.76495 563.325 289.3587Q563.8719 288.95245 564.1844 288.06183ZM559.575 285.78058L564.2 285.78058Q564.10626 284.7337 563.66876 284.21808Q562.9969 283.40558 561.9344 283.40558Q560.96564 283.40558 560.29376 284.06183Q559.6375 284.70245 559.575 285.78058ZM578.0594 289.37433Q577.35626 290.15558 576.52814 290.5462Q575.71564 290.93683 574.7625 290.93683Q573.0125 290.93683 571.98126 289.7337Q571.1375 288.76495 571.1375 287.57745Q571.1375 286.51495 571.825 285.65558Q572.5125 284.7962 573.8719 284.15558Q573.09064 283.26495 572.825 282.71808Q572.575 282.15558 572.575 281.63995Q572.575 280.6087 573.3875 279.84308Q574.2 279.07745 575.41876 279.07745Q576.59064 279.07745 577.34064 279.7962Q578.09064 280.51495 578.09064 281.53058Q578.09064 283.15558 575.91876 284.31183L577.98126 286.93683Q578.325 286.24933 578.52814 285.34308L579.98126 285.65558Q579.60626 287.15558 578.96564 288.12433Q579.7625 289.1712 580.7625 289.87433L579.8094 290.99933Q578.96564 290.45245 578.0594 289.37433ZM575.2 283.40558Q576.10626 282.87433 576.3719 282.46808Q576.65314 282.06183 576.65314 281.56183Q576.65314 280.9837 576.27814 280.6087Q575.90314 280.2337 575.35626 280.2337Q574.77814 280.2337 574.40314 280.6087Q574.02814 280.96808 574.02814 281.49933Q574.02814 281.76495 574.15314 282.06183Q574.29376 282.3587 574.575 282.68683L575.2 283.40558ZM577.16876 288.26495L574.59064 285.07745Q573.45 285.74933 573.04376 286.34308Q572.65314 286.9212 572.65314 287.4837Q572.65314 288.18683 573.2 288.93683Q573.7625 289.68683 574.77814 289.68683Q575.41876 289.68683 576.09064 289.2962Q576.7625 288.88995 577.16876 288.26495Z" fill-rule="nonzero"/><path fill="#9e9e9e" d="M541.6219 312.7337L541.6219 309.9837L536.65314 309.9837L536.65314 308.70245L541.8875 301.28058L543.02814 301.28058L543.02814 308.70245L544.575 308.70245L544.575 309.9837L543.02814 309.9837L543.02814 312.7337L541.6219 312.7337ZM541.6219 308.70245L541.6219 303.53058L538.04376 308.70245L541.6219 308.70245ZM546.1219 309.7337L547.59064 309.6087Q547.7625 310.68683 548.35626 311.2337Q548.95 311.76495 549.79376 311.76495Q550.8094 311.76495 551.5125 310.99933Q552.21564 310.2337 552.21564 308.96808Q552.21564 307.76495 551.54376 307.07745Q550.8719 306.37433 549.77814 306.37433Q549.09064 306.37433 548.54376 306.68683Q547.9969 306.99933 547.6844 307.4837L546.3719 307.31183L547.48126 301.43683L553.16876 301.43683L553.16876 302.78058L548.60626 302.78058L547.98126 305.8587Q549.0125 305.13995 550.15314 305.13995Q551.65314 305.13995 552.6844 306.18683Q553.71564 307.21808 553.71564 308.84308Q553.71564 310.40558 552.8094 311.53058Q551.7 312.93683 549.79376 312.93683Q548.23126 312.93683 547.2469 312.06183Q546.2625 311.1712 546.1219 309.7337ZM555.90314 312.7337L555.90314 311.12433L557.5125 311.12433L557.5125 312.7337L555.90314 312.7337ZM559.1219 309.7337L560.59064 309.6087Q560.7625 310.68683 561.35626 311.2337Q561.95 311.76495 562.79376 311.76495Q563.8094 311.76495 564.5125 310.99933Q565.21564 310.2337 565.21564 308.96808Q565.21564 307.76495 564.54376 307.07745Q563.8719 306.37433 562.77814 306.37433Q562.09064 306.37433 561.54376 306.68683Q560.9969 306.99933 560.6844 307.4837L559.3719 307.31183L560.48126 301.43683L566.16876 301.43683L566.16876 302.78058L561.60626 302.78058L560.98126 305.8587Q562.0125 305.13995 563.15314 305.13995Q564.65314 305.13995 565.6844 306.18683Q566.71564 307.21808 566.71564 308.84308Q566.71564 310.40558 565.8094 311.53058Q564.7 312.93683 562.79376 312.93683Q561.23126 312.93683 560.2469 312.06183Q559.2625 311.1712 559.1219 309.7337ZM568.3875 304.03058Q568.3875 302.7962 568.9969 301.93683Q569.6219 301.07745 570.79376 301.07745Q571.8719 301.07745 572.575 301.8587Q573.27814 302.62433 573.27814 304.1087Q573.27814 305.56183 572.5594 306.3587Q571.85626 307.13995 570.8094 307.13995Q569.7625 307.13995 569.075 306.37433Q568.3875 305.59308 568.3875 304.03058ZM570.825 302.0462Q570.3094 302.0462 569.95 302.49933Q569.60626 302.95245 569.60626 304.1712Q569.60626 305.26495 569.95 305.71808Q570.3094 306.1712 570.825 306.1712Q571.35626 306.1712 571.7 305.71808Q572.0594 305.26495 572.0594 304.06183Q572.0594 302.95245 571.7 302.49933Q571.35626 302.0462 570.825 302.0462ZM570.84064 313.15558L577.10626 301.07745L578.2469 301.07745L571.9969 313.15558L570.84064 313.15558ZM575.79376 310.0462Q575.79376 308.81183 576.40314 307.95245Q577.02814 307.09308 578.2 307.09308Q579.27814 307.09308 579.98126 307.87433Q580.7 308.63995 580.7 310.12433Q580.7 311.57745 579.98126 312.37433Q579.2625 313.15558 578.21564 313.15558Q577.16876 313.15558 576.48126 312.37433Q575.79376 311.59308 575.79376 310.0462ZM578.2469 308.06183Q577.71564 308.06183 577.35626 308.51495Q577.0125 308.96808 577.0125 310.18683Q577.0125 311.28058 577.35626 311.7337Q577.71564 312.18683 578.23126 312.18683Q578.77814 312.18683 579.1219 311.7337Q579.46564 311.28058 579.46564 310.07745Q579.46564 308.96808 579.10626 308.51495Q578.7625 308.06183 578.2469 308.06183Z" fill-rule="nonzero"/><path stroke="#757575" stroke-width="1.0" stroke-linecap="butt" d="M581.45 296.2337L454.76666 296.2337L406.80884 296.2337" fill-rule="nonzero"/><path fill="#9e9e9e" d="M408.80884 296.2337C408.80884 295.12915 407.9134 294.2337 406.80884 294.2337C405.70425 294.2337 404.80884 295.12915 404.80884 296.2337C404.80884 297.3383 405.70425 298.2337 406.80884 298.2337C407.9134 298.2337 408.80884 297.3383 408.80884 296.2337" fill-rule="nonzero"/><path fill="#f3f3f3" d="M271.26562 32.534374L273.15625 33.003124Q272.5625 35.346874 271.01562 36.58125Q269.46875 37.8 267.21875 37.8Q264.90625 37.8 263.45312 36.8625Q262.01562 35.909374 261.25 34.128124Q260.5 32.33125 260.5 30.284374Q260.5 28.05 261.34375 26.39375Q262.20312 24.721874 263.78125 23.8625Q265.35938 22.9875 267.25 22.9875Q269.40625 22.9875 270.85938 24.08125Q272.32812 25.175 272.90625 27.159374L271.04688 27.596874Q270.54688 26.034374 269.59375 25.33125Q268.65625 24.6125 267.21875 24.6125Q265.5625 24.6125 264.45312 25.409374Q263.34375 26.190624 262.89062 27.534374Q262.45312 28.8625 262.45312 30.26875Q262.45312 32.096874 262.98438 33.471874Q263.51562 34.83125 264.64062 35.503124Q265.76562 36.175 267.0625 36.175Q268.65625 36.175 269.76562 35.253124Q270.875 34.33125 271.26562 32.534374ZM281.59375 36.26875Q280.60938 37.096874 279.70312 37.440624Q278.79688 37.784374 277.76562 37.784374Q276.0625 37.784374 275.14062 36.95625Q274.21875 36.1125 274.21875 34.815624Q274.21875 34.05 274.5625 33.425Q274.92188 32.8 275.48438 32.425Q276.04688 32.034374 276.75 31.83125Q277.26562 31.70625 278.3125 31.565624Q280.4375 31.315624 281.4375 30.971874Q281.45312 30.6125 281.45312 30.503124Q281.45312 29.440624 280.95312 28.9875Q280.28125 28.39375 278.95312 28.39375Q277.70312 28.39375 277.10938 28.83125Q276.53125 29.26875 276.25 30.378124L274.53125 30.14375Q274.76562 29.034374 275.29688 28.3625Q275.82812 27.675 276.84375 27.315624Q277.85938 26.940624 279.20312 26.940624Q280.53125 26.940624 281.35938 27.253124Q282.1875 27.565624 282.57812 28.05Q282.96875 28.51875 283.125 29.2375Q283.21875 29.690624 283.21875 30.8625L283.21875 33.20625Q283.21875 35.659374 283.32812 36.315624Q283.4375 36.95625 283.78125 37.55L281.9375 37.55Q281.67188 37.003124 281.59375 36.26875ZM281.4375 32.346874Q280.48438 32.7375 278.5625 33.003124Q277.48438 33.159374 277.03125 33.3625Q276.59375 33.55 276.34375 33.925Q276.09375 34.3 276.09375 34.76875Q276.09375 35.471874 276.625 35.940624Q277.15625 36.409374 278.1875 36.409374Q279.20312 36.409374 279.98438 35.971874Q280.78125 35.51875 281.15625 34.753124Q281.4375 34.14375 281.4375 32.9875L281.4375 32.346874ZM289.65625 35.971874L289.90625 37.534374Q289.17188 37.690624 288.57812 37.690624Q287.625 37.690624 287.09375 37.39375Q286.57812 37.08125 286.35938 36.596874Q286.14062 36.096874 286.14062 34.51875L286.14062 28.55L284.85938 28.55L284.85938 27.175L286.14062 27.175L286.14062 24.6125L287.89062 23.55L287.89062 27.175L289.65625 27.175L289.65625 28.55L287.89062 28.55L287.89062 34.6125Q287.89062 35.3625 287.98438 35.58125Q288.07812 35.784374 288.28125 35.925Q288.5 36.05 288.89062 36.05Q289.17188 36.05 289.65625 35.971874ZM298.92188 34.20625L300.73438 34.440624Q300.3125 36.01875 299.14062 36.909374Q297.98438 37.784374 296.17188 37.784374Q293.90625 37.784374 292.5625 36.39375Q291.23438 34.9875 291.23438 32.45625Q291.23438 29.83125 292.57812 28.39375Q293.92188 26.940624 296.07812 26.940624Q298.15625 26.940624 299.46875 28.3625Q300.79688 29.76875 300.79688 32.346874Q300.79688 32.503124 300.78125 32.815624L293.04688 32.815624Q293.14062 34.51875 294.01562 35.425Q294.89062 36.33125 296.1875 36.33125Q297.15625 36.33125 297.82812 35.83125Q298.51562 35.315624 298.92188 34.20625ZM293.14062 31.3625L298.9375 31.3625Q298.82812 30.065624 298.28125 29.409374Q297.4375 28.39375 296.09375 28.39375Q294.89062 28.39375 294.0625 29.20625Q293.23438 30.003124 293.14062 31.3625ZM302.5 38.409374L304.20312 38.659374Q304.3125 39.45625 304.79688 39.815624Q305.45312 40.3 306.59375 40.3Q307.8125 40.3 308.46875 39.815624Q309.14062 39.33125 309.375 38.45625Q309.51562 37.909374 309.5 36.190624Q308.34375 37.55 306.625 37.55Q304.48438 37.55 303.3125 36.003124Q302.14062 34.45625 302.14062 32.3Q302.14062 30.815624 302.67188 29.565624Q303.21875 28.315624 304.23438 27.628124Q305.26562 26.940624 306.64062 26.940624Q308.46875 26.940624 309.67188 28.425L309.67188 27.175L311.28125 27.175L311.28125 36.14375Q311.28125 38.565624 310.78125 39.565624Q310.29688 40.58125 309.21875 41.159374Q308.15625 41.753124 306.59375 41.753124Q304.75 41.753124 303.59375 40.925Q302.45312 40.096874 302.5 38.409374ZM303.95312 32.175Q303.95312 34.221874 304.76562 35.159374Q305.57812 36.096874 306.79688 36.096874Q308.0 36.096874 308.8125 35.159374Q309.64062 34.221874 309.64062 32.2375Q309.64062 30.33125 308.79688 29.3625Q307.95312 28.39375 306.76562 28.39375Q305.59375 28.39375 304.76562 29.346874Q303.95312 30.3 303.95312 32.175ZM313.17188 32.3625Q313.17188 29.4875 314.76562 28.096874Q316.10938 26.940624 318.03125 26.940624Q320.17188 26.940624 321.51562 28.346874Q322.875 29.753124 322.875 32.221874Q322.875 34.221874 322.28125 35.378124Q321.6875 36.51875 320.53125 37.159374Q319.39062 37.784374 318.03125 37.784374Q315.84375 37.784374 314.5 36.39375Q313.17188 34.9875 313.17188 32.3625ZM314.96875 32.3625Q314.96875 34.3625 315.82812 35.346874Q316.70312 36.33125 318.03125 36.33125Q319.34375 36.33125 320.20312 35.346874Q321.07812 34.346874 321.07812 32.3Q321.07812 30.378124 320.20312 29.39375Q319.32812 28.39375 318.03125 28.39375Q316.70312 28.39375 315.82812 29.39375Q314.96875 30.378124 314.96875 32.3625ZM324.79688 37.55L324.79688 27.175L326.375 27.175L326.375 28.753124Q326.98438 27.64375 327.5 27.3Q328.01562 26.940624 328.625 26.940624Q329.51562 26.940624 330.4375 27.503124L329.82812 29.14375Q329.1875 28.753124 328.54688 28.753124Q327.96875 28.753124 327.5 29.1125Q327.04688 29.45625 326.84375 30.065624Q326.5625 31.003124 326.5625 32.1125L326.5625 37.55L324.79688 37.55ZM331.73438 41.55L331.54688 39.89375Q332.125 40.05 332.54688 40.05Q333.14062 40.05 333.48438 39.846874Q333.84375 39.659374 334.0625 39.315624Q334.23438 39.05 334.60938 38.003124Q334.65625 37.846874 334.76562 37.565624L330.82812 27.175L332.71875 27.175L334.875 33.190624Q335.29688 34.33125 335.625 35.58125Q335.9375 34.378124 336.34375 33.221874L338.5625 27.175L340.32812 27.175L336.375 37.721874Q335.75 39.440624 335.39062 40.08125Q334.92188 40.95625 334.3125 41.346874Q333.71875 41.753124 332.875 41.753124Q332.35938 41.753124 331.73438 41.55Z" fill-rule="nonzero"/></svg>