<svg version="1.1" viewBox="0.0 0.0 600.0 371.0" fill="none" stroke="none" stroke-linecap="square" stroke-miterlimit="10" width="600" height="371" xmlns:xlink="http://www.w3.org/1999/xlink" xmlns="http://www.w3.org/2000/svg"><path fill="#ffffff" fill-opacity="0.0" d="M0 0L600.0 0L600.0 371.0L0 371.0L0 0Z" fill-rule="nonzero"/><path fill="#cf4366" d="M300.0 54.916668C365.85858 54.916668 423.87924 98.218605 442.61783 161.35512L335.65445 193.10127C330.96982 177.31715 316.46466 166.49167 300.0 166.49167Z" fill-rule="nonzero"/><path fill="#d8753e" d="M442.61783 161.35512C453.60904 198.3882 449.76416 238.2445 431.89642 272.49362L332.97412 220.88591C337.44104 212.32362 338.40225 202.35956 335.65445 193.10127Z" fill-rule="nonzero"/><path fill="#e5a345" d="M151.92076 217.96835C147.89354 176.22186 161.67482 134.71484 189.8713 103.66737C218.06781 72.619896 258.05972 54.916668 300.0 54.916668L300.0 166.49167C289.51492 166.49167 279.51694 170.91748 272.46783 178.67934C265.4187 186.44121 261.9734 196.81796 262.9802 207.2546Z" fill-rule="nonzero"/><path fill="#df8d43" d="M431.89642 272.49362C401.4343 330.8838 336.20605 362.29605 271.56198 349.7066C206.91788 337.1172 158.2447 283.5226 151.92076 217.96835L262.9802 207.2546C264.5612 223.64316 276.72946 237.0418 292.8905 240.18915C309.0515 243.33652 325.35858 235.48344 332.97412 220.88591Z" fill-rule="nonzero"/><path fill="#ffffff" d="M345.33798 125.894196L345.33798 127.40982L336.82236 127.40982Q336.80673 126.831696 337.00986 126.31607Q337.33798 125.44107 338.0411 124.59732Q338.75986 123.75357 340.11923 122.644196Q342.21298 120.925446 342.94736 119.925446Q343.69736 118.90982 343.69736 118.019196Q343.69736 117.06607 343.02548 116.425446Q342.3536 115.78482 341.27548 115.78482Q340.11923 115.78482 339.43173 116.47232Q338.75986 117.15982 338.74423 118.362946L337.11923 118.19107Q337.2911 116.37857 338.36923 115.425446Q339.46298 114.47232 341.30673 114.47232Q343.15048 114.47232 344.2286 115.50357Q345.32236 116.53482 345.32236 118.050446Q345.32236 118.81607 344.99423 119.56607Q344.68173 120.31607 343.94736 121.144196Q343.21298 121.97232 341.50986 123.40982Q340.08798 124.612946 339.68173 125.03482Q339.27548 125.456696 339.02548 125.894196L345.33798 125.894196ZM347.02548 121.050446Q347.02548 118.769196 347.49423 117.37857Q347.96298 115.987946 348.88486 115.237946Q349.82236 114.47232 351.2286 114.47232Q352.25986 114.47232 353.0411 114.894196Q353.82236 115.300446 354.32236 116.09732Q354.83798 116.87857 355.13486 118.019196Q355.43173 119.144196 355.43173 121.050446Q355.43173 123.31607 354.96298 124.72232Q354.49423 126.112946 353.55673 126.87857Q352.63486 127.62857 351.2286 127.62857Q349.3536 127.62857 348.2911 126.300446Q347.02548 124.69107 347.02548 121.050446ZM348.65048 121.050446Q348.65048 124.22232 349.38486 125.28482Q350.13486 126.331696 351.2286 126.331696Q352.30673 126.331696 353.05673 125.28482Q353.80673 124.22232 353.80673 121.050446Q353.80673 117.87857 353.05673 116.831696Q352.30673 115.78482 351.21298 115.78482Q350.11923 115.78482 349.46298 116.706696Q348.65048 117.87857 348.65048 121.050446ZM357.9161 127.40982L357.9161 125.612946L359.71298 125.612946L359.71298 127.40982L357.9161 127.40982ZM367.08798 127.40982L367.08798 124.331696L361.50986 124.331696L361.50986 122.87857L367.38486 114.519196L368.68173 114.519196L368.68173 122.87857L370.4161 122.87857L370.4161 124.331696L368.68173 124.331696L368.68173 127.40982L367.08798 127.40982ZM367.08798 122.87857L367.08798 117.06607L363.05673 122.87857L367.08798 122.87857ZM372.32236 117.612946Q372.32236 116.237946 373.00986 115.269196Q373.71298 114.300446 375.02548 114.300446Q376.24423 114.300446 377.0411 115.175446Q377.83798 116.03482 377.83798 117.72232Q377.83798 119.34732 377.02548 120.237946Q376.2286 121.112946 375.0411 121.112946Q373.88486 121.112946 373.1036 120.25357Q372.32236 119.37857 372.32236 117.612946ZM375.07236 115.394196Q374.4786 115.394196 374.08798 115.90982Q373.69736 116.40982 373.69736 117.769196Q373.69736 119.019196 374.08798 119.519196Q374.49423 120.019196 375.07236 120.019196Q375.6661 120.019196 376.05673 119.519196Q376.44736 119.00357 376.44736 117.65982Q376.44736 116.40982 376.05673 115.90982Q375.6661 115.394196 375.07236 115.394196ZM375.08798 127.87857L382.13486 114.300446L383.4161 114.300446L376.38486 127.87857L375.08798 127.87857ZM380.65048 124.37857Q380.65048 123.00357 381.33798 122.03482Q382.0411 121.06607 383.36923 121.06607Q384.58798 121.06607 385.36923 121.94107Q386.1661 122.800446 386.1661 124.487946Q386.1661 126.112946 385.36923 127.00357Q384.57236 127.87857 383.38486 127.87857Q382.21298 127.87857 381.43173 127.00357Q380.65048 126.12857 380.65048 124.37857ZM383.4161 122.15982Q382.82236 122.15982 382.43173 122.675446Q382.0411 123.175446 382.0411 124.550446Q382.0411 125.769196 382.43173 126.28482Q382.82236 126.800446 383.40048 126.800446Q384.00986 126.800446 384.40048 126.28482Q384.7911 125.769196 384.7911 124.425446Q384.7911 123.175446 384.40048 122.675446Q384.00986 122.15982 383.4161 122.15982Z" fill-rule="nonzero"/><path fill="#ffffff" d="M385.31497 220.22688L383.73685 220.22688L383.73685 210.14876Q383.15872 210.69563 382.23685 211.24251Q381.31497 211.77376 380.56497 212.05501L380.56497 210.52376Q381.8931 209.89876 382.8931 209.00813Q383.8931 208.11751 384.29935 207.28938L385.31497 207.28938L385.31497 220.22688ZM397.67435 218.71126L397.67435 220.22688L389.15872 220.22688Q389.1431 219.64876 389.34622 219.13313Q389.67435 218.25813 390.37747 217.41438Q391.09622 216.57063 392.4556 215.46126Q394.54935 213.74251 395.28372 212.74251Q396.03372 211.72688 396.03372 210.83626Q396.03372 209.88313 395.36185 209.24251Q394.68997 208.60188 393.61185 208.60188Q392.4556 208.60188 391.7681 209.28938Q391.09622 209.97688 391.0806 211.18001L389.4556 211.00813Q389.62747 209.19563 390.7056 208.24251Q391.79935 207.28938 393.6431 207.28938Q395.48685 207.28938 396.56497 208.32063Q397.65872 209.35188 397.65872 210.86751Q397.65872 211.63313 397.3306 212.38313Q397.0181 213.13313 396.28372 213.96126Q395.54935 214.78938 393.84622 216.22688Q392.42435 217.43001 392.0181 217.85188Q391.61185 218.27376 391.36185 218.71126L397.67435 218.71126ZM400.25247 220.22688L400.25247 218.43001L402.04935 218.43001L402.04935 220.22688L400.25247 220.22688ZM412.67435 218.71126L412.67435 220.22688L404.15872 220.22688Q404.1431 219.64876 404.34622 219.13313Q404.67435 218.25813 405.37747 217.41438Q406.09622 216.57063 407.4556 215.46126Q409.54935 213.74251 410.28372 212.74251Q411.03372 211.72688 411.03372 210.83626Q411.03372 209.88313 410.36185 209.24251Q409.68997 208.60188 408.61185 208.60188Q407.4556 208.60188 406.7681 209.28938Q406.09622 209.97688 406.0806 211.18001L404.4556 211.00813Q404.62747 209.19563 405.7056 208.24251Q406.79935 207.28938 408.6431 207.28938Q410.48685 207.28938 411.56497 208.32063Q412.65872 209.35188 412.65872 210.86751Q412.65872 211.63313 412.3306 212.38313Q412.0181 213.13313 411.28372 213.96126Q410.54935 214.78938 408.84622 216.22688Q407.42435 217.43001 407.0181 217.85188Q406.61185 218.27376 406.36185 218.71126L412.67435 218.71126ZM414.65872 210.43001Q414.65872 209.05501 415.34622 208.08626Q416.04935 207.11751 417.36185 207.11751Q418.5806 207.11751 419.37747 207.99251Q420.17435 208.85188 420.17435 210.53938Q420.17435 212.16438 419.36185 213.05501Q418.56497 213.93001 417.37747 213.93001Q416.22122 213.93001 415.43997 213.07063Q414.65872 212.19563 414.65872 210.43001ZM417.40872 208.21126Q416.81497 208.21126 416.42435 208.72688Q416.03372 209.22688 416.03372 210.58626Q416.03372 211.83626 416.42435 212.33626Q416.8306 212.83626 417.40872 212.83626Q418.00247 212.83626 418.3931 212.33626Q418.78372 211.82063 418.78372 210.47688Q418.78372 209.22688 418.3931 208.72688Q418.00247 208.21126 417.40872 208.21126ZM417.42435 220.69563L424.47122 207.11751L425.75247 207.11751L418.72122 220.69563L417.42435 220.69563ZM422.98685 217.19563Q422.98685 215.82063 423.67435 214.85188Q424.37747 213.88313 425.7056 213.88313Q426.92435 213.88313 427.7056 214.75813Q428.50247 215.61751 428.50247 217.30501Q428.50247 218.93001 427.7056 219.82063Q426.90872 220.69563 425.72122 220.69563Q424.54935 220.69563 423.7681 219.82063Q422.98685 218.94563 422.98685 217.19563ZM425.75247 214.97688Q425.15872 214.97688 424.7681 215.49251Q424.37747 215.99251 424.37747 217.36751Q424.37747 218.58626 424.7681 219.10188Q425.15872 219.61751 425.73685 219.61751Q426.34622 219.61751 426.73685 219.10188Q427.12747 218.58626 427.12747 217.24251Q427.12747 215.99251 426.73685 215.49251Q426.34622 214.97688 425.75247 214.97688Z" fill-rule="nonzero"/><path fill="#ffffff" d="M258.89954 320.13428L258.89954 317.05615L253.32143 317.05615L253.32143 315.60303L259.1964 307.24365L260.4933 307.24365L260.4933 315.60303L262.22766 315.60303L262.22766 317.05615L260.4933 317.05615L260.4933 320.13428L258.89954 320.13428ZM258.89954 315.60303L258.89954 309.79053L254.8683 315.60303L258.89954 315.60303ZM263.83704 313.7749Q263.83704 311.49365 264.3058 310.10303Q264.77454 308.7124 265.6964 307.9624Q266.6339 307.19678 268.04016 307.19678Q269.0714 307.19678 269.85266 307.61865Q270.6339 308.0249 271.1339 308.82178Q271.64954 309.60303 271.9464 310.74365Q272.2433 311.86865 272.2433 313.7749Q272.2433 316.04053 271.77454 317.44678Q271.3058 318.8374 270.3683 319.60303Q269.4464 320.35303 268.04016 320.35303Q266.16516 320.35303 265.10266 319.0249Q263.83704 317.41553 263.83704 313.7749ZM265.46204 313.7749Q265.46204 316.94678 266.1964 318.00928Q266.9464 319.05615 268.04016 319.05615Q269.1183 319.05615 269.8683 318.00928Q270.6183 316.94678 270.6183 313.7749Q270.6183 310.60303 269.8683 309.55615Q269.1183 308.50928 268.02454 308.50928Q266.9308 308.50928 266.27454 309.43115Q265.46204 310.60303 265.46204 313.7749ZM274.72766 320.13428L274.72766 318.3374L276.52454 318.3374L276.52454 320.13428L274.72766 320.13428ZM281.27454 313.1499Q280.29016 312.79053 279.8058 312.11865Q279.33704 311.44678 279.33704 310.5249Q279.33704 309.11865 280.33704 308.16553Q281.35266 307.19678 283.04016 307.19678Q284.72766 307.19678 285.7433 308.18115Q286.77454 309.1499 286.77454 310.55615Q286.77454 311.4624 286.3058 312.13428Q285.83704 312.79053 284.8839 313.1499Q286.0714 313.54053 286.6808 314.3999Q287.3058 315.25928 287.3058 316.44678Q287.3058 318.10303 286.1339 319.22803Q284.96204 320.35303 283.0558 320.35303Q281.14954 320.35303 279.97766 319.22803Q278.8214 318.0874 278.8214 316.3999Q278.8214 315.1499 279.4464 314.30615Q280.08704 313.44678 281.27454 313.1499ZM280.9464 310.4624Q280.9464 311.38428 281.54016 311.9624Q282.1339 312.54053 283.0714 312.54053Q283.97766 312.54053 284.5558 311.9624Q285.14954 311.38428 285.14954 310.55615Q285.14954 309.68115 284.54016 309.0874Q283.9464 308.49365 283.0558 308.49365Q282.14954 308.49365 281.54016 309.07178Q280.9464 309.6499 280.9464 310.4624ZM280.4464 316.41553Q280.4464 317.0874 280.7589 317.72803Q281.08704 318.35303 281.71204 318.7124Q282.35266 319.05615 283.08704 319.05615Q284.21204 319.05615 284.9464 318.32178Q285.6964 317.5874 285.6964 316.4624Q285.6964 315.32178 284.9308 314.5874Q284.16516 313.8374 283.02454 313.8374Q281.91516 313.8374 281.1808 314.57178Q280.4464 315.30615 280.4464 316.41553ZM289.1339 310.3374Q289.1339 308.9624 289.8214 307.99365Q290.52454 307.0249 291.83704 307.0249Q293.0558 307.0249 293.85266 307.8999Q294.64954 308.75928 294.64954 310.44678Q294.64954 312.07178 293.83704 312.9624Q293.04016 313.8374 291.85266 313.8374Q290.6964 313.8374 289.91516 312.97803Q289.1339 312.10303 289.1339 310.3374ZM291.8839 308.11865Q291.29016 308.11865 290.89954 308.63428Q290.5089 309.13428 290.5089 310.49365Q290.5089 311.74365 290.89954 312.24365Q291.3058 312.74365 291.8839 312.74365Q292.47766 312.74365 292.8683 312.24365Q293.2589 311.72803 293.2589 310.38428Q293.2589 309.13428 292.8683 308.63428Q292.47766 308.11865 291.8839 308.11865ZM291.89954 320.60303L298.9464 307.0249L300.22766 307.0249L293.1964 320.60303L291.89954 320.60303ZM297.46204 317.10303Q297.46204 315.72803 298.14954 314.75928Q298.85266 313.79053 300.1808 313.79053Q301.39954 313.79053 302.1808 314.66553Q302.97766 315.5249 302.97766 317.2124Q302.97766 318.8374 302.1808 319.72803Q301.3839 320.60303 300.1964 320.60303Q299.02454 320.60303 298.2433 319.72803Q297.46204 318.85303 297.46204 317.10303ZM300.22766 314.88428Q299.6339 314.88428 299.2433 315.3999Q298.85266 315.8999 298.85266 317.2749Q298.85266 318.49365 299.2433 319.00928Q299.6339 319.5249 300.21204 319.5249Q300.8214 319.5249 301.21204 319.00928Q301.60266 318.49365 301.60266 317.1499Q301.60266 315.8999 301.21204 315.3999Q300.8214 314.88428 300.22766 314.88428Z" fill-rule="nonzero"/><path fill="#ffffff" d="M208.3644 140.37479L208.3644 141.89041L199.84877 141.89041Q199.83315 141.31229 200.03627 140.79666Q200.3644 139.92166 201.06752 139.07791Q201.78627 138.23416 203.14565 137.12479Q205.2394 135.40604 205.97377 134.40604Q206.72377 133.39041 206.72377 132.49979Q206.72377 131.54666 206.0519 130.90604Q205.38002 130.26541 204.3019 130.26541Q203.14565 130.26541 202.45815 130.95291Q201.78627 131.64041 201.77065 132.84354L200.14565 132.67166Q200.31752 130.85916 201.39565 129.90604Q202.4894 128.95291 204.33315 128.95291Q206.1769 128.95291 207.25502 129.98416Q208.34877 131.01541 208.34877 132.53104Q208.34877 133.29666 208.02065 134.04666Q207.70815 134.79666 206.97377 135.62479Q206.2394 136.45291 204.53627 137.89041Q203.1144 139.09354 202.70815 139.51541Q202.3019 139.93729 202.0519 140.37479L208.3644 140.37479ZM218.25502 132.15604L216.69252 132.28104Q216.47377 131.35916 216.08315 130.93729Q215.44252 130.24979 214.50502 130.24979Q213.75502 130.24979 213.1769 130.67166Q212.4269 131.21854 211.9894 132.26541Q211.56752 133.31229 211.5519 135.24979Q212.13002 134.37479 212.94252 133.95291Q213.77065 133.53104 214.6769 133.53104Q216.27065 133.53104 217.38002 134.70291Q218.4894 135.85916 218.4894 137.70291Q218.4894 138.92166 217.95815 139.96854Q217.44252 140.99979 216.52065 141.56229Q215.6144 142.10916 214.45815 142.10916Q212.47377 142.10916 211.22377 140.65604Q209.97377 139.20291 209.97377 135.85916Q209.97377 132.12479 211.3644 130.42166Q212.56752 128.95291 214.59877 128.95291Q216.13002 128.95291 217.09877 129.81229Q218.06752 130.65604 218.25502 132.15604ZM211.8019 137.71854Q211.8019 138.53104 212.14565 139.28104Q212.4894 140.03104 213.1144 140.42166Q213.7394 140.81229 214.4269 140.81229Q215.4269 140.81229 216.14565 139.99979Q216.8644 139.18729 216.8644 137.79666Q216.8644 136.46854 216.14565 135.70291Q215.44252 134.92166 214.3644 134.92166Q213.28627 134.92166 212.53627 135.70291Q211.8019 136.46854 211.8019 137.71854ZM220.94252 141.89041L220.94252 140.09354L222.7394 140.09354L222.7394 141.89041L220.94252 141.89041ZM225.0519 138.51541L226.70815 138.37479Q226.89565 139.59354 227.56752 140.20291Q228.2394 140.81229 229.19252 140.81229Q230.33315 140.81229 231.1144 139.95291Q231.91127 139.09354 231.91127 137.65604Q231.91127 136.31229 231.14565 135.53104Q230.39565 134.74979 229.16127 134.74979Q228.39565 134.74979 227.77065 135.09354Q227.16127 135.43729 226.81752 135.99979L225.33315 135.79666L226.58315 129.18729L232.9894 129.18729L232.9894 130.68729L227.84877 130.68729L227.14565 134.15604Q228.31752 133.34354 229.58315 133.34354Q231.27065 133.34354 232.4269 134.51541Q233.59877 135.68729 233.59877 137.51541Q233.59877 139.26541 232.56752 140.54666Q231.33315 142.10916 229.19252 142.10916Q227.4269 142.10916 226.31752 141.12479Q225.20815 140.14041 225.0519 138.51541ZM235.34877 132.09354Q235.34877 130.71854 236.03627 129.74979Q236.7394 128.78104 238.0519 128.78104Q239.27065 128.78104 240.06752 129.65604Q240.8644 130.51541 240.8644 132.20291Q240.8644 133.82791 240.0519 134.71854Q239.25502 135.59354 238.06752 135.59354Q236.91127 135.59354 236.13002 134.73416Q235.34877 133.85916 235.34877 132.09354ZM238.09877 129.87479Q237.50502 129.87479 237.1144 130.39041Q236.72377 130.89041 236.72377 132.24979Q236.72377 133.49979 237.1144 133.99979Q237.52065 134.49979 238.09877 134.49979Q238.69252 134.49979 239.08315 133.99979Q239.47377 133.48416 239.47377 132.14041Q239.47377 130.89041 239.08315 130.39041Q238.69252 129.87479 238.09877 129.87479ZM238.1144 142.35916L245.16127 128.78104L246.44252 128.78104L239.41127 142.35916L238.1144 142.35916ZM243.6769 138.85916Q243.6769 137.48416 244.3644 136.51541Q245.06752 135.54666 246.39565 135.54666Q247.6144 135.54666 248.39565 136.42166Q249.19252 137.28104 249.19252 138.96854Q249.19252 140.59354 248.39565 141.48416Q247.59877 142.35916 246.41127 142.35916Q245.2394 142.35916 244.45815 141.48416Q243.6769 140.60916 243.6769 138.85916ZM246.44252 136.64041Q245.84877 136.64041 245.45815 137.15604Q245.06752 137.65604 245.06752 139.03104Q245.06752 140.24979 245.45815 140.76541Q245.84877 141.28104 246.4269 141.28104Q247.03627 141.28104 247.4269 140.76541Q247.81752 140.24979 247.81752 138.90604Q247.81752 137.65604 247.4269 137.15604Q247.03627 136.64041 246.44252 136.64041Z" fill-rule="nonzero"/><path stroke="#ffffff" stroke-width="1.0" stroke-linejoin="round" stroke-linecap="round" d="M335.65445 193.10127C330.96982 177.31715 316.46466 166.49167 300.0 166.49167L300.0 54.916668C365.85858 54.916668 423.87924 98.218605 442.61783 161.35512" fill-rule="nonzero"/><path stroke="#ffffff" stroke-width="1.0" stroke-linejoin="round" stroke-linecap="round" d="M332.97412 220.88591C337.44104 212.32362 338.40225 202.35956 335.65445 193.10127L442.61783 161.35512C453.60904 198.3882 449.76416 238.2445 431.89642 272.49362" fill-rule="nonzero"/><path stroke="#ffffff" stroke-width="1.0" stroke-linejoin="round" stroke-linecap="round" d="M262.9802 207.2546C264.5612 223.64316 276.72946 237.0418 292.8905 240.18915C309.0515 243.33652 325.35858 235.48344 332.97412 220.88591L431.89642 272.49362C401.4343 330.8838 336.20605 362.29605 271.56198 349.7066C206.91788 337.1172 158.2447 283.5226 151.92076 217.96835" fill-rule="nonzero"/><path stroke="#ffffff" stroke-width="1.0" stroke-linejoin="round" stroke-linecap="round" d="M300.0 166.49167C289.51492 166.49167 279.51694 170.91748 272.46783 178.67934C265.4187 186.44121 261.9734 196.81796 262.9802 207.2546L151.92076 217.96835C147.89354 176.22186 161.67482 134.71484 189.8713 103.66737C218.06781 72.619896 258.05972 54.916668 300.0 54.916668" fill-rule="nonzero"/><path fill="#efefef" d="M27.3 91.71504L28.815624 91.71504L28.815624 98.32442Q28.815624 100.05879 28.425 101.07442Q28.034374 102.09004 27.01875 102.73067Q26.003124 103.37129 24.346874 103.37129Q22.7375 103.37129 21.70625 102.80879Q20.690624 102.24629 20.253124 101.19942Q19.815624 100.15254 19.815624 98.32442L19.815624 91.71504L21.33125 91.71504L21.33125 98.32442Q21.33125 99.80879 21.596874 100.52754Q21.878124 101.23067 22.55 101.62129Q23.2375 101.99629 24.20625 101.99629Q25.878124 101.99629 26.58125 101.24629Q27.3 100.48067 27.3 98.32442L27.3 91.71504ZM31.596874 103.16817L31.596874 94.87129L32.8625 94.87129L32.8625 96.12129Q33.346874 95.24629 33.753124 94.96504Q34.159374 94.68379 34.659374 94.68379Q35.3625 94.68379 36.096874 95.13692L35.6125 96.43379Q35.096874 96.13692 34.58125 96.13692Q34.128124 96.13692 33.753124 96.41817Q33.39375 96.68379 33.2375 97.18379Q33.003124 97.93379 33.003124 98.82442L33.003124 103.16817L31.596874 103.16817ZM37.909374 103.16817L36.596874 103.16817L36.596874 91.71504L38.003124 91.71504L38.003124 95.79317Q38.89375 94.68379 40.284374 94.68379Q41.05 94.68379 41.721874 94.99629Q42.409374 95.29317 42.846874 95.85567Q43.3 96.41817 43.55 97.21504Q43.8 97.99629 43.8 98.88692Q43.8 101.02754 42.7375 102.19942Q41.690624 103.35567 40.20625 103.35567Q38.7375 103.35567 37.909374 102.12129L37.909374 103.16817ZM37.89375 98.94942Q37.89375 100.44942 38.3 101.10567Q38.95625 102.19942 40.096874 102.19942Q41.01875 102.19942 41.690624 101.40254Q42.3625 100.59004 42.3625 99.01192Q42.3625 97.38692 41.70625 96.62129Q41.065624 95.84004 40.159374 95.84004Q39.2375 95.84004 38.565624 96.63692Q37.89375 97.43379 37.89375 98.94942ZM51.01875 102.13692Q50.2375 102.80879 49.51875 103.09004Q48.8 103.35567 47.971874 103.35567Q46.596874 103.35567 45.8625 102.68379Q45.128124 102.01192 45.128124 100.98067Q45.128124 100.37129 45.409374 99.87129Q45.690624 99.35567 46.128124 99.05879Q46.58125 98.74629 47.14375 98.59004Q47.565624 98.48067 48.39375 98.38692Q50.096874 98.18379 50.909374 97.90254Q50.909374 97.60567 50.909374 97.52754Q50.909374 96.66817 50.51875 96.32442Q49.971874 95.84004 48.909374 95.84004Q47.925 95.84004 47.440624 96.19942Q46.971874 96.54317 46.753124 97.41817L45.378124 97.23067Q45.565624 96.35567 45.9875 95.80879Q46.425 95.26192 47.2375 94.98067Q48.05 94.68379 49.1125 94.68379Q50.175 94.68379 50.83125 94.93379Q51.503124 95.18379 51.815624 95.55879Q52.128124 95.93379 52.253124 96.51192Q52.33125 96.87129 52.33125 97.80879L52.33125 99.68379Q52.33125 101.65254 52.409374 102.16817Q52.503124 102.68379 52.76875 103.16817L51.3 103.16817Q51.08125 102.73067 51.01875 102.13692ZM50.909374 98.99629Q50.14375 99.30879 48.6125 99.52754Q47.7375 99.65254 47.378124 99.80879Q47.01875 99.96504 46.815624 100.27754Q46.628124 100.57442 46.628124 100.93379Q46.628124 101.49629 47.05 101.87129Q47.4875 102.24629 48.3 102.24629Q49.1125 102.24629 49.7375 101.90254Q50.378124 101.54317 50.675 100.91817Q50.909374 100.44942 50.909374 99.51192L50.909374 98.99629ZM54.6125 103.16817L54.6125 94.87129L55.878124 94.87129L55.878124 96.04317Q56.784374 94.68379 58.51875 94.68379Q59.26875 94.68379 59.89375 94.94942Q60.51875 95.21504 60.83125 95.65254Q61.14375 96.09004 61.26875 96.69942Q61.346874 97.09004 61.346874 98.05879L61.346874 103.16817L59.940624 103.16817L59.940624 98.12129Q59.940624 97.26192 59.76875 96.84004Q59.6125 96.40254 59.190624 96.15254Q58.784374 95.90254 58.221874 95.90254Q57.315624 95.90254 56.659374 96.48067Q56.01875 97.04317 56.01875 98.63692L56.01875 103.16817L54.6125 103.16817ZM63.05 100.68379L64.44063 100.46504Q64.55 101.30879 65.08125 101.76192Q65.62813 102.19942 66.58125 102.19942Q67.55 102.19942 68.01875 101.80879Q68.4875 101.40254 68.4875 100.87129Q68.4875 100.40254 68.08125 100.12129Q67.78438 99.93379 66.64375 99.65254Q65.09688 99.26192 64.4875 98.98067Q63.89375 98.68379 63.58125 98.18379Q63.284374 97.68379 63.284374 97.07442Q63.284374 96.51192 63.534374 96.04317Q63.784374 95.57442 64.22188 95.26192Q64.55 95.01192 65.1125 94.85567Q65.69063 94.68379 66.33125 94.68379Q67.31563 94.68379 68.05 94.96504Q68.78438 95.24629 69.12813 95.73067Q69.4875 96.19942 69.62813 97.01192L68.25313 97.19942Q68.15938 96.55879 67.70625 96.19942Q67.25313 95.84004 66.44063 95.84004Q65.47188 95.84004 65.05 96.16817Q64.64375 96.48067 64.64375 96.90254Q64.64375 97.18379 64.81563 97.40254Q64.9875 97.62129 65.34688 97.77754Q65.56563 97.85567 66.59688 98.13692Q68.08125 98.52754 68.675 98.79317Q69.26875 99.04317 69.59688 99.52754Q69.94063 100.01192 69.94063 100.73067Q69.94063 101.43379 69.51875 102.05879Q69.1125 102.66817 68.33125 103.01192Q67.56563 103.35567 66.59688 103.35567Q64.97188 103.35567 64.12813 102.68379Q63.284374 102.01192 63.05 100.68379ZM77.01875 100.12129L78.40938 100.30879Q78.175 101.73067 77.2375 102.54317Q76.31563 103.35567 74.95625 103.35567Q73.25313 103.35567 72.20625 102.24629Q71.175 101.12129 71.175 99.04317Q71.175 97.69942 71.6125 96.69942Q72.06563 95.68379 72.97188 95.18379Q73.89375 94.68379 74.95625 94.68379Q76.31563 94.68379 77.175 95.37129Q78.03438 96.04317 78.26875 97.30879L76.90938 97.51192Q76.70625 96.68379 76.20625 96.26192Q75.72188 95.84004 75.01875 95.84004Q73.95625 95.84004 73.28438 96.60567Q72.62813 97.35567 72.62813 99.01192Q72.62813 100.68379 73.26875 101.44942Q73.90938 102.19942 74.94063 102.19942Q75.76875 102.19942 76.31563 101.69942Q76.87813 101.18379 77.01875 100.12129ZM85.01875 102.13692Q84.2375 102.80879 83.51875 103.09004Q82.8 103.35567 81.97188 103.35567Q80.59688 103.35567 79.8625 102.68379Q79.12813 102.01192 79.12813 100.98067Q79.12813 100.37129 79.40938 99.87129Q79.69063 99.35567 80.12813 99.05879Q80.58125 98.74629 81.14375 98.59004Q81.56563 98.48067 82.39375 98.38692Q84.09688 98.18379 84.90938 97.90254Q84.90938 97.60567 84.90938 97.52754Q84.90938 96.66817 84.51875 96.32442Q83.97188 95.84004 82.90938 95.84004Q81.925 95.84004 81.44063 96.19942Q80.97188 96.54317 80.75313 97.41817L79.37813 97.23067Q79.56563 96.35567 79.9875 95.80879Q80.425 95.26192 81.2375 94.98067Q82.05 94.68379 83.1125 94.68379Q84.175 94.68379 84.83125 94.93379Q85.50313 95.18379 85.81563 95.55879Q86.12813 95.93379 86.25313 96.51192Q86.33125 96.87129 86.33125 97.80879L86.33125 99.68379Q86.33125 101.65254 86.40938 102.16817Q86.50313 102.68379 86.76875 103.16817L85.3 103.16817Q85.08125 102.73067 85.01875 102.13692ZM84.90938 98.99629Q84.14375 99.30879 82.6125 99.52754Q81.7375 99.65254 81.37813 99.80879Q81.01875 99.96504 80.81563 100.27754Q80.62813 100.57442 80.62813 100.93379Q80.62813 101.49629 81.05 101.87129Q81.4875 102.24629 82.3 102.24629Q83.1125 102.24629 83.7375 101.90254Q84.37813 101.54317 84.675 100.91817Q84.90938 100.44942 84.90938 99.51192L84.90938 98.99629ZM88.6125 106.35567L88.6125 94.87129L89.89375 94.87129L89.89375 95.94942Q90.34688 95.30879 90.90938 94.99629Q91.4875 94.68379 92.3 94.68379Q93.3625 94.68379 94.175 95.23067Q94.9875 95.77754 95.39375 96.77754Q95.81563 97.76192 95.81563 98.94942Q95.81563 100.23067 95.34688 101.24629Q94.89375 102.26192 94.01875 102.80879Q93.15938 103.35567 92.19063 103.35567Q91.4875 103.35567 90.925 103.05879Q90.37813 102.76192 90.01875 102.30879L90.01875 106.35567L88.6125 106.35567ZM89.87813 99.05879Q89.87813 100.66817 90.51875 101.43379Q91.175 102.19942 92.09688 102.19942Q93.03438 102.19942 93.70625 101.40254Q94.37813 100.60567 94.37813 98.94942Q94.37813 97.35567 93.72188 96.57442Q93.06563 95.77754 92.15938 95.77754Q91.26875 95.77754 90.56563 96.62129Q89.87813 97.46504 89.87813 99.05879ZM103.28438 100.49629L104.7375 100.66817Q104.39375 101.94942 103.45625 102.65254Q102.53438 103.35567 101.09688 103.35567Q99.26875 103.35567 98.20625 102.23067Q97.14375 101.10567 97.14375 99.09004Q97.14375 96.99629 98.22188 95.84004Q99.3 94.68379 101.01875 94.68379Q102.675 94.68379 103.72188 95.82442Q104.78438 96.94942 104.78438 98.99629Q104.78438 99.12129 104.78438 99.37129L98.59688 99.37129Q98.675 100.74629 99.3625 101.48067Q100.06563 102.19942 101.09688 102.19942Q101.87813 102.19942 102.425 101.79317Q102.97188 101.38692 103.28438 100.49629ZM98.675 98.21504L103.3 98.21504Q103.20625 97.16817 102.76875 96.65254Q102.09688 95.84004 101.03438 95.84004Q100.06563 95.84004 99.39375 96.49629Q98.7375 97.13692 98.675 98.21504Z" fill-rule="nonzero"/><path fill="#9e9e9e" d="M26.6125 123.80879L26.6125 125.16817L19.034374 125.16817Q19.01875 124.65254 19.20625 124.18379Q19.4875 123.41817 20.128124 122.66817Q20.76875 121.91817 21.971874 120.93379Q23.83125 119.40254 24.4875 118.51192Q25.14375 117.60567 25.14375 116.80879Q25.14375 115.98067 24.55 115.40254Q23.95625 114.82442 22.9875 114.82442Q21.971874 114.82442 21.3625 115.43379Q20.753124 116.04317 20.753124 117.12129L19.3 116.98067Q19.45625 115.35567 20.425 114.51192Q21.39375 113.66817 23.01875 113.66817Q24.675 113.66817 25.628124 114.59004Q26.596874 115.49629 26.596874 116.84004Q26.596874 117.52754 26.315624 118.19942Q26.034374 118.85567 25.378124 119.59004Q24.721874 120.32442 23.20625 121.60567Q21.940624 122.66817 21.58125 123.05879Q21.221874 123.43379 20.9875 123.80879L26.6125 123.80879ZM35.51875 116.51192L34.1125 116.62129Q33.925 115.79317 33.58125 115.41817Q33.01875 114.82442 32.175 114.82442Q31.503124 114.82442 31.003124 115.19942Q30.33125 115.68379 29.940624 116.62129Q29.565624 117.54317 29.55 119.26192Q30.065624 118.48067 30.8 118.10567Q31.534374 117.73067 32.33125 117.73067Q33.7375 117.73067 34.721874 118.77754Q35.721874 119.80879 35.721874 121.44942Q35.721874 122.52754 35.253124 123.44942Q34.784374 124.37129 33.971874 124.87129Q33.159374 125.37129 32.128124 125.37129Q30.378124 125.37129 29.26875 124.07442Q28.159374 122.77754 28.159374 119.80879Q28.159374 116.48067 29.378124 114.98067Q30.45625 113.66817 32.26875 113.66817Q33.6125 113.66817 34.471874 114.43379Q35.346874 115.18379 35.51875 116.51192ZM29.76875 121.44942Q29.76875 122.18379 30.08125 122.85567Q30.39375 123.51192 30.940624 123.85567Q31.503124 124.19942 32.1125 124.19942Q33.003124 124.19942 33.64375 123.48067Q34.284374 122.76192 34.284374 121.52754Q34.284374 120.34004 33.64375 119.66817Q33.01875 118.98067 32.05 118.98067Q31.096874 118.98067 30.425 119.66817Q29.76875 120.34004 29.76875 121.44942ZM38.003124 125.16817L38.003124 123.55879L39.6125 123.55879L39.6125 125.16817L38.003124 125.16817ZM41.221874 122.16817L42.690624 122.04317Q42.8625 123.12129 43.45625 123.66817Q44.05 124.19942 44.89375 124.19942Q45.909374 124.19942 46.6125 123.43379Q47.315624 122.66817 47.315624 121.40254Q47.315624 120.19942 46.64375 119.51192Q45.971874 118.80879 44.878124 118.80879Q44.190624 118.80879 43.64375 119.12129Q43.096874 119.43379 42.784374 119.91817L41.471874 119.74629L42.58125 113.87129L48.26875 113.87129L48.26875 115.21504L43.70625 115.21504L43.08125 118.29317Q44.1125 117.57442 45.253124 117.57442Q46.753124 117.57442 47.784374 118.62129Q48.815624 119.65254 48.815624 121.27754Q48.815624 122.84004 47.909374 123.96504Q46.8 125.37129 44.89375 125.37129Q43.33125 125.37129 42.346874 124.49629Q41.3625 123.60567 41.221874 122.16817ZM50.4875 116.46504Q50.4875 115.23067 51.096874 114.37129Q51.721874 113.51192 52.89375 113.51192Q53.971874 113.51192 54.675 114.29317Q55.378124 115.05879 55.378124 116.54317Q55.378124 117.99629 54.659374 118.79317Q53.95625 119.57442 52.909374 119.57442Q51.8625 119.57442 51.175 118.80879Q50.4875 118.02754 50.4875 116.46504ZM52.925 114.48067Q52.409374 114.48067 52.05 114.93379Q51.70625 115.38692 51.70625 116.60567Q51.70625 117.69942 52.05 118.15254Q52.409374 118.60567 52.925 118.60567Q53.45625 118.60567 53.8 118.15254Q54.159374 117.69942 54.159374 116.49629Q54.159374 115.38692 53.8 114.93379Q53.45625 114.48067 52.925 114.48067ZM52.940624 125.59004L59.20625 113.51192L60.346874 113.51192L54.096874 125.59004L52.940624 125.59004ZM57.89375 122.48067Q57.89375 121.24629 58.503124 120.38692Q59.128124 119.52754 60.3 119.52754Q61.378124 119.52754 62.08125 120.30879Q62.8 121.07442 62.8 122.55879Q62.8 124.01192 62.08125 124.80879Q61.3625 125.59004 60.315624 125.59004Q59.26875 125.59004 58.58125 124.80879Q57.89375 124.02754 57.89375 122.48067ZM60.346874 120.49629Q59.815624 120.49629 59.45625 120.94942Q59.1125 121.40254 59.1125 122.62129Q59.1125 123.71504 59.45625 124.16817Q59.815624 124.62129 60.33125 124.62129Q60.878124 124.62129 61.221874 124.16817Q61.565624 123.71504 61.565624 122.51192Q61.565624 121.40254 61.20625 120.94942Q60.8625 120.49629 60.346874 120.49629Z" fill-rule="nonzero"/><path stroke="#757575" stroke-width="1.0" stroke-linecap="butt" d="M18.55 108.66817L145.23334 108.66817L195.37775 108.66817" fill-rule="nonzero"/><path fill="#9e9e9e" d="M197.37775 108.66817C197.37775 107.5636 196.48232 106.66817 195.37775 106.66817C194.27318 106.66817 193.37775 107.5636 193.37775 108.66817C193.37775 109.772736 194.27318 110.66817 195.37775 110.66817C196.48232 110.66817 197.37775 109.772736 197.37775 108.66817" fill-rule="nonzero"/><path fill="#efefef" d="M19.76875 326.45L19.76875 314.9969L21.33125 314.9969L27.346874 323.98126L27.346874 314.9969L28.8 314.9969L28.8 326.45L27.2375 326.45L21.221874 317.45L21.221874 326.45L19.76875 326.45ZM37.01875 325.41876Q36.2375 326.09064 35.51875 326.3719Q34.8 326.6375 33.971874 326.6375Q32.596874 326.6375 31.8625 325.96564Q31.128124 325.29376 31.128124 324.2625Q31.128124 323.65314 31.409374 323.15314Q31.690624 322.6375 32.128124 322.34064Q32.58125 322.02814 33.14375 321.8719Q33.565624 321.7625 34.39375 321.66876Q36.096874 321.46564 36.909374 321.1844Q36.909374 320.8875 36.909374 320.8094Q36.909374 319.95 36.51875 319.60626Q35.971874 319.1219 34.909374 319.1219Q33.925 319.1219 33.440624 319.48126Q32.971874 319.825 32.753124 320.7L31.378124 320.5125Q31.565624 319.6375 31.9875 319.09064Q32.425 318.54376 33.2375 318.2625Q34.05 317.96564 35.1125 317.96564Q36.175 317.96564 36.83125 318.21564Q37.503124 318.46564 37.815624 318.84064Q38.128124 319.21564 38.253124 319.79376Q38.33125 320.15314 38.33125 321.09064L38.33125 322.96564Q38.33125 324.9344 38.409374 325.45Q38.503124 325.96564 38.76875 326.45L37.3 326.45Q37.08125 326.0125 37.01875 325.41876ZM36.909374 322.27814Q36.14375 322.59064 34.6125 322.8094Q33.7375 322.9344 33.378124 323.09064Q33.01875 323.2469 32.815624 323.5594Q32.628124 323.85626 32.628124 324.21564Q32.628124 324.77814 33.05 325.15314Q33.4875 325.52814 34.3 325.52814Q35.1125 325.52814 35.7375 325.1844Q36.378124 324.825 36.675 324.2Q36.909374 323.73126 36.909374 322.79376L36.909374 322.27814ZM43.675 325.1844L43.878124 326.4344Q43.284374 326.5594 42.815624 326.5594Q42.05 326.5594 41.628124 326.325Q41.20625 326.075 41.034374 325.6844Q40.8625 325.27814 40.8625 324.0125L40.8625 319.2469L39.83125 319.2469L39.83125 318.15314L40.8625 318.15314L40.8625 316.09064L42.26875 315.2469L42.26875 318.15314L43.675 318.15314L43.675 319.2469L42.26875 319.2469L42.26875 324.09064Q42.26875 324.7 42.33125 324.8719Q42.409374 325.04376 42.58125 325.15314Q42.753124 325.2469 43.065624 325.2469Q43.3 325.2469 43.675 325.1844ZM50.05 326.45L50.05 325.23126Q49.08125 326.6375 47.409374 326.6375Q46.675 326.6375 46.034374 326.35626Q45.409374 326.075 45.096874 325.65314Q44.784374 325.21564 44.659374 324.60626Q44.58125 324.1844 44.58125 323.29376L44.58125 318.15314L45.9875 318.15314L45.9875 322.7469Q45.9875 323.85626 46.065624 324.23126Q46.20625 324.79376 46.628124 325.10626Q47.065624 325.41876 47.690624 325.41876Q48.33125 325.41876 48.878124 325.10626Q49.440624 324.77814 49.659374 324.21564Q49.89375 323.65314 49.89375 322.59064L49.89375 318.15314L51.3 318.15314L51.3 326.45L50.05 326.45ZM53.596874 326.45L53.596874 318.15314L54.8625 318.15314L54.8625 319.40314Q55.346874 318.52814 55.753124 318.2469Q56.159374 317.96564 56.659374 317.96564Q57.3625 317.96564 58.096874 318.41876L57.6125 319.71564Q57.096874 319.41876 56.58125 319.41876Q56.128124 319.41876 55.753124 319.7Q55.39375 319.96564 55.2375 320.46564Q55.003124 321.21564 55.003124 322.10626L55.003124 326.45L53.596874 326.45ZM64.28438 323.77814L65.7375 323.95Q65.39375 325.23126 64.45625 325.9344Q63.534374 326.6375 62.096874 326.6375Q60.26875 326.6375 59.20625 325.5125Q58.14375 324.3875 58.14375 322.3719Q58.14375 320.27814 59.221874 319.1219Q60.3 317.96564 62.01875 317.96564Q63.675 317.96564 64.72188 319.10626Q65.78438 320.23126 65.78438 322.27814Q65.78438 322.40314 65.78438 322.65314L59.596874 322.65314Q59.675 324.02814 60.3625 324.7625Q61.065624 325.48126 62.096874 325.48126Q62.878124 325.48126 63.425 325.075Q63.971874 324.66876 64.28438 323.77814ZM59.675 321.4969L64.3 321.4969Q64.20625 320.45 63.76875 319.9344Q63.096874 319.1219 62.034374 319.1219Q61.065624 319.1219 60.39375 319.77814Q59.7375 320.41876 59.675 321.4969ZM67.05 323.96564L68.44063 323.7469Q68.55 324.59064 69.08125 325.04376Q69.62813 325.48126 70.58125 325.48126Q71.55 325.48126 72.01875 325.09064Q72.4875 324.6844 72.4875 324.15314Q72.4875 323.6844 72.08125 323.40314Q71.78438 323.21564 70.64375 322.9344Q69.09688 322.54376 68.4875 322.2625Q67.89375 321.96564 67.58125 321.46564Q67.28438 320.96564 67.28438 320.35626Q67.28438 319.79376 67.53438 319.325Q67.78438 318.85626 68.22188 318.54376Q68.55 318.29376 69.1125 318.1375Q69.69063 317.96564 70.33125 317.96564Q71.31563 317.96564 72.05 318.2469Q72.78438 318.52814 73.12813 319.0125Q73.4875 319.48126 73.62813 320.29376L72.25313 320.48126Q72.15938 319.84064 71.70625 319.48126Q71.25313 319.1219 70.44063 319.1219Q69.47188 319.1219 69.05 319.45Q68.64375 319.7625 68.64375 320.1844Q68.64375 320.46564 68.81563 320.6844Q68.9875 320.90314 69.34688 321.0594Q69.56563 321.1375 70.59688 321.41876Q72.08125 321.8094 72.675 322.075Q73.26875 322.325 73.59688 322.8094Q73.94063 323.29376 73.94063 324.0125Q73.94063 324.71564 73.51875 325.34064Q73.1125 325.95 72.33125 326.29376Q71.56563 326.6375 70.59688 326.6375Q68.97188 326.6375 68.12813 325.96564Q67.28438 325.29376 67.05 323.96564ZM81.01875 323.40314L82.40938 323.59064Q82.175 325.0125 81.2375 325.825Q80.31563 326.6375 78.95625 326.6375Q77.25313 326.6375 76.20625 325.52814Q75.175 324.40314 75.175 322.325Q75.175 320.98126 75.6125 319.98126Q76.06563 318.96564 76.97188 318.46564Q77.89375 317.96564 78.95625 317.96564Q80.31563 317.96564 81.175 318.65314Q82.03438 319.325 82.26875 320.59064L80.90938 320.79376Q80.70625 319.96564 80.20625 319.54376Q79.72188 319.1219 79.01875 319.1219Q77.95625 319.1219 77.28438 319.8875Q76.62813 320.6375 76.62813 322.29376Q76.62813 323.96564 77.26875 324.73126Q77.90938 325.48126 78.94063 325.48126Q79.76875 325.48126 80.31563 324.98126Q80.87813 324.46564 81.01875 323.40314ZM89.01875 325.41876Q88.2375 326.09064 87.51875 326.3719Q86.8 326.6375 85.97188 326.6375Q84.59688 326.6375 83.8625 325.96564Q83.12813 325.29376 83.12813 324.2625Q83.12813 323.65314 83.40938 323.15314Q83.69063 322.6375 84.12813 322.34064Q84.58125 322.02814 85.14375 321.8719Q85.56563 321.7625 86.39375 321.66876Q88.09688 321.46564 88.90938 321.1844Q88.90938 320.8875 88.90938 320.8094Q88.90938 319.95 88.51875 319.60626Q87.97188 319.1219 86.90938 319.1219Q85.925 319.1219 85.44063 319.48126Q84.97188 319.825 84.75313 320.7L83.37813 320.5125Q83.56563 319.6375 83.9875 319.09064Q84.425 318.54376 85.2375 318.2625Q86.05 317.96564 87.1125 317.96564Q88.175 317.96564 88.83125 318.21564Q89.50313 318.46564 89.81563 318.84064Q90.12813 319.21564 90.25313 319.79376Q90.33125 320.15314 90.33125 321.09064L90.33125 322.96564Q90.33125 324.9344 90.40938 325.45Q90.50313 325.96564 90.76875 326.45L89.3 326.45Q89.08125 326.0125 89.01875 325.41876ZM88.90938 322.27814Q88.14375 322.59064 86.6125 322.8094Q85.7375 322.9344 85.37813 323.09064Q85.01875 323.2469 84.81563 323.5594Q84.62813 323.85626 84.62813 324.21564Q84.62813 324.77814 85.05 325.15314Q85.4875 325.52814 86.3 325.52814Q87.1125 325.52814 87.7375 325.1844Q88.37813 324.825 88.675 324.2Q88.90938 323.73126 88.90938 322.79376L88.90938 322.27814ZM92.6125 329.6375L92.6125 318.15314L93.89375 318.15314L93.89375 319.23126Q94.34688 318.59064 94.90938 318.27814Q95.4875 317.96564 96.3 317.96564Q97.3625 317.96564 98.175 318.5125Q98.9875 319.0594 99.39375 320.0594Q99.81563 321.04376 99.81563 322.23126Q99.81563 323.5125 99.34688 324.52814Q98.89375 325.54376 98.01875 326.09064Q97.15938 326.6375 96.19063 326.6375Q95.4875 326.6375 94.925 326.34064Q94.37813 326.04376 94.01875 325.59064L94.01875 329.6375L92.6125 329.6375ZM93.87813 322.34064Q93.87813 323.95 94.51875 324.71564Q95.175 325.48126 96.09688 325.48126Q97.03438 325.48126 97.70625 324.6844Q98.37813 323.8875 98.37813 322.23126Q98.37813 320.6375 97.72188 319.85626Q97.06563 319.0594 96.15938 319.0594Q95.26875 319.0594 94.56563 319.90314Q93.87813 320.7469 93.87813 322.34064ZM107.28438 323.77814L108.7375 323.95Q108.39375 325.23126 107.45625 325.9344Q106.53438 326.6375 105.09688 326.6375Q103.26875 326.6375 102.20625 325.5125Q101.14375 324.3875 101.14375 322.3719Q101.14375 320.27814 102.22188 319.1219Q103.3 317.96564 105.01875 317.96564Q106.675 317.96564 107.72188 319.10626Q108.78438 320.23126 108.78438 322.27814Q108.78438 322.40314 108.78438 322.65314L102.59688 322.65314Q102.675 324.02814 103.3625 324.7625Q104.06563 325.48126 105.09688 325.48126Q105.87813 325.48126 106.425 325.075Q106.97188 324.66876 107.28438 323.77814ZM102.675 321.4969L107.3 321.4969Q107.20625 320.45 106.76875 319.9344Q106.09688 319.1219 105.03438 319.1219Q104.06563 319.1219 103.39375 319.77814Q102.7375 320.41876 102.675 321.4969Z" fill-rule="nonzero"/><path fill="#9e9e9e" d="M23.721874 348.45L23.721874 345.7L18.753124 345.7L18.753124 344.41876L23.9875 336.9969L25.128124 336.9969L25.128124 344.41876L26.675 344.41876L26.675 345.7L25.128124 345.7L25.128124 348.45L23.721874 348.45ZM23.721874 344.41876L23.721874 339.2469L20.14375 344.41876L23.721874 344.41876ZM28.221874 342.79376Q28.221874 340.7625 28.628124 339.52814Q29.05 338.29376 29.878124 337.6219Q30.70625 336.95 31.95625 336.95Q32.878124 336.95 33.565624 337.325Q34.26875 337.6844 34.721874 338.3875Q35.175 339.09064 35.425 340.09064Q35.690624 341.09064 35.690624 342.79376Q35.690624 344.8094 35.26875 346.0594Q34.8625 347.29376 34.034374 347.98126Q33.20625 348.65314 31.95625 348.65314Q30.3 348.65314 29.346874 347.45Q28.221874 346.02814 28.221874 342.79376ZM29.659374 342.79376Q29.659374 345.6219 30.315624 346.5594Q30.9875 347.48126 31.95625 347.48126Q32.925 347.48126 33.58125 346.54376Q34.2375 345.60626 34.2375 342.79376Q34.2375 339.96564 33.58125 339.04376Q32.925 338.10626 31.940624 338.10626Q30.971874 338.10626 30.39375 338.9344Q29.659374 339.98126 29.659374 342.79376ZM38.003124 348.45L38.003124 346.84064L39.6125 346.84064L39.6125 348.45L38.003124 348.45ZM43.378124 342.23126Q42.503124 341.91876 42.08125 341.325Q41.659374 340.73126 41.659374 339.90314Q41.659374 338.65314 42.55 337.8094Q43.45625 336.95 44.95625 336.95Q46.45625 336.95 47.3625 337.825Q48.284374 338.6844 48.284374 339.9344Q48.284374 340.73126 47.8625 341.325Q47.440624 341.91876 46.596874 342.23126Q47.64375 342.575 48.190624 343.34064Q48.753124 344.10626 48.753124 345.16876Q48.753124 346.6375 47.70625 347.65314Q46.675 348.65314 44.971874 348.65314Q43.284374 348.65314 42.2375 347.65314Q41.20625 346.6375 41.20625 345.1375Q41.20625 344.0125 41.76875 343.2625Q42.33125 342.5125 43.378124 342.23126ZM43.096874 339.85626Q43.096874 340.66876 43.6125 341.1844Q44.14375 341.7 44.9875 341.7Q45.8 341.7 46.315624 341.1844Q46.83125 340.66876 46.83125 339.9344Q46.83125 339.15314 46.3 338.6375Q45.76875 338.10626 44.971874 338.10626Q44.159374 338.10626 43.628124 338.6219Q43.096874 339.1375 43.096874 339.85626ZM42.64375 345.1375Q42.64375 345.7469 42.925 346.3094Q43.221874 346.8719 43.784374 347.1844Q44.346874 347.48126 44.9875 347.48126Q46.003124 347.48126 46.659374 346.84064Q47.315624 346.1844 47.315624 345.1844Q47.315624 344.16876 46.628124 343.5125Q45.95625 342.84064 44.940624 342.84064Q43.95625 342.84064 43.3 343.4969Q42.64375 344.15314 42.64375 345.1375ZM50.4875 339.7469Q50.4875 338.5125 51.096874 337.65314Q51.721874 336.79376 52.89375 336.79376Q53.971874 336.79376 54.675 337.575Q55.378124 338.34064 55.378124 339.825Q55.378124 341.27814 54.659374 342.075Q53.95625 342.85626 52.909374 342.85626Q51.8625 342.85626 51.175 342.09064Q50.4875 341.3094 50.4875 339.7469ZM52.925 337.7625Q52.409374 337.7625 52.05 338.21564Q51.70625 338.66876 51.70625 339.8875Q51.70625 340.98126 52.05 341.4344Q52.409374 341.8875 52.925 341.8875Q53.45625 341.8875 53.8 341.4344Q54.159374 340.98126 54.159374 339.77814Q54.159374 338.66876 53.8 338.21564Q53.45625 337.7625 52.925 337.7625ZM52.940624 348.8719L59.20625 336.79376L60.346874 336.79376L54.096874 348.8719L52.940624 348.8719ZM57.89375 345.7625Q57.89375 344.52814 58.503124 343.66876Q59.128124 342.8094 60.3 342.8094Q61.378124 342.8094 62.08125 343.59064Q62.8 344.35626 62.8 345.84064Q62.8 347.29376 62.08125 348.09064Q61.3625 348.8719 60.315624 348.8719Q59.26875 348.8719 58.58125 348.09064Q57.89375 347.3094 57.89375 345.7625ZM60.346874 343.77814Q59.815624 343.77814 59.45625 344.23126Q59.1125 344.6844 59.1125 345.90314Q59.1125 346.9969 59.45625 347.45Q59.815624 347.90314 60.33125 347.90314Q60.878124 347.90314 61.221874 347.45Q61.565624 346.9969 61.565624 345.79376Q61.565624 344.6844 61.20625 344.23126Q60.8625 343.77814 60.346874 343.77814Z" fill-rule="nonzero"/><path stroke="#757575" stroke-width="1.0" stroke-linecap="butt" d="M18.55 331.95L145.23334 331.95L272.98386 342.40546" fill-rule="nonzero"/><path fill="#9e9e9e" d="M274.98386 342.40546C274.98386 341.30087 274.08844 340.40546 272.98386 340.40546C271.8793 340.40546 270.98386 341.30087 270.98386 342.40546C270.98386 343.51 271.8793 344.40546 272.98386 344.40546C274.08844 344.40546 274.98386 343.51 274.98386 342.40546" fill-rule="nonzero"/><path fill="#efefef" d="M531.6844 84.92088L531.6844 73.46776L536.0125 73.46776Q537.15314 73.46776 537.7469 73.57713Q538.59064 73.71776 539.15314 74.10838Q539.73126 74.49901 540.075 75.21776Q540.4344 75.92088 540.4344 76.78026Q540.4344 78.23338 539.4969 79.24901Q538.575 80.26463 536.1375 80.26463L533.2 80.26463L533.2 84.92088L531.6844 84.92088ZM533.2 78.90526L536.16876 78.90526Q537.6375 78.90526 538.2469 78.35838Q538.8719 77.81151 538.8719 76.82713Q538.8719 76.10838 538.4969 75.59276Q538.1375 75.07713 537.54376 74.92088Q537.16876 74.81151 536.1375 74.81151L533.2 74.81151L533.2 78.90526ZM548.1844 82.24901L549.6375 82.42088Q549.29376 83.70213 548.35626 84.40526Q547.4344 85.10838 545.9969 85.10838Q544.16876 85.10838 543.10626 83.98338Q542.04376 82.85838 542.04376 80.84276Q542.04376 78.74901 543.1219 77.59276Q544.2 76.43651 545.91876 76.43651Q547.575 76.43651 548.6219 77.57713Q549.6844 78.70213 549.6844 80.74901Q549.6844 80.87401 549.6844 81.12401L543.4969 81.12401Q543.575 82.49901 544.2625 83.23338Q544.96564 83.95213 545.9969 83.95213Q546.77814 83.95213 547.325 83.54588Q547.8719 83.13963 548.1844 82.24901ZM543.575 79.96776L548.2 79.96776Q548.10626 78.92088 547.66876 78.40526Q546.9969 77.59276 545.9344 77.59276Q544.96564 77.59276 544.29376 78.24901Q543.6375 78.88963 543.575 79.96776ZM550.98126 80.76463Q550.98126 78.46776 552.2625 77.35838Q553.34064 76.43651 554.8719 76.43651Q556.59064 76.43651 557.66876 77.56151Q558.7625 78.67088 558.7625 80.65526Q558.7625 82.24901 558.27814 83.17088Q557.79376 84.09276 556.8719 84.60838Q555.96564 85.10838 554.8719 85.10838Q553.1375 85.10838 552.0594 83.99901Q550.98126 82.87401 550.98126 80.76463ZM552.4344 80.76463Q552.4344 82.35838 553.1219 83.15526Q553.825 83.95213 554.8719 83.95213Q555.91876 83.95213 556.60626 83.15526Q557.3094 82.35838 557.3094 80.71776Q557.3094 79.18651 556.60626 78.38963Q555.91876 77.59276 554.8719 77.59276Q553.825 77.59276 553.1219 78.38963Q552.4344 79.17088 552.4344 80.76463ZM560.5125 88.10838L560.5125 76.62401L561.79376 76.62401L561.79376 77.70213Q562.2469 77.06151 562.8094 76.74901Q563.3875 76.43651 564.2 76.43651Q565.2625 76.43651 566.075 76.98338Q566.8875 77.53026 567.29376 78.53026Q567.71564 79.51463 567.71564 80.70213Q567.71564 81.98338 567.2469 82.99901Q566.79376 84.01463 565.91876 84.56151Q565.0594 85.10838 564.09064 85.10838Q563.3875 85.10838 562.825 84.81151Q562.27814 84.51463 561.91876 84.06151L561.91876 88.10838L560.5125 88.10838ZM561.77814 80.81151Q561.77814 82.42088 562.41876 83.18651Q563.075 83.95213 563.9969 83.95213Q564.9344 83.95213 565.60626 83.15526Q566.27814 82.35838 566.27814 80.70213Q566.27814 79.10838 565.6219 78.32713Q564.96564 77.53026 564.0594 77.53026Q563.16876 77.53026 562.46564 78.37401Q561.77814 79.21776 561.77814 80.81151ZM569.48126 84.92088L569.48126 73.46776L570.8875 73.46776L570.8875 84.92088L569.48126 84.92088ZM579.1844 82.24901L580.6375 82.42088Q580.29376 83.70213 579.35626 84.40526Q578.4344 85.10838 576.9969 85.10838Q575.16876 85.10838 574.10626 83.98338Q573.04376 82.85838 573.04376 80.84276Q573.04376 78.74901 574.1219 77.59276Q575.2 76.43651 576.91876 76.43651Q578.575 76.43651 579.6219 77.57713Q580.6844 78.70213 580.6844 80.74901Q580.6844 80.87401 580.6844 81.12401L574.4969 81.12401Q574.575 82.49901 575.2625 83.23338Q575.96564 83.95213 576.9969 83.95213Q577.77814 83.95213 578.325 83.54588Q578.8719 83.13963 579.1844 82.24901ZM574.575 79.96776L579.2 79.96776Q579.10626 78.92088 578.66876 78.40526Q577.9969 77.59276 576.9344 77.59276Q575.96564 77.59276 575.29376 78.24901Q574.6375 78.88963 574.575 79.96776Z" fill-rule="nonzero"/><path fill="#9e9e9e" d="M544.5125 105.56151L544.5125 106.92088L536.9344 106.92088Q536.91876 106.40526 537.10626 105.93651Q537.3875 105.17088 538.02814 104.42088Q538.66876 103.67088 539.8719 102.68651Q541.73126 101.15526 542.3875 100.26463Q543.04376 99.35838 543.04376 98.56151Q543.04376 97.73338 542.45 97.15526Q541.85626 96.57713 540.8875 96.57713Q539.8719 96.57713 539.2625 97.18651Q538.65314 97.79588 538.65314 98.87401L537.2 98.73338Q537.35626 97.10838 538.325 96.26463Q539.29376 95.42088 540.91876 95.42088Q542.575 95.42088 543.52814 96.34276Q544.4969 97.24901 544.4969 98.59276Q544.4969 99.28026 544.21564 99.95213Q543.9344 100.60838 543.27814 101.34276Q542.6219 102.07713 541.10626 103.35838Q539.84064 104.42088 539.48126 104.81151Q539.1219 105.18651 538.8875 105.56151L544.5125 105.56151ZM546.1219 101.26463Q546.1219 99.23338 546.52814 97.99901Q546.95 96.76463 547.77814 96.09276Q548.60626 95.42088 549.85626 95.42088Q550.77814 95.42088 551.46564 95.79588Q552.16876 96.15526 552.6219 96.85838Q553.075 97.56151 553.325 98.56151Q553.59064 99.56151 553.59064 101.26463Q553.59064 103.28026 553.16876 104.53026Q552.7625 105.76463 551.9344 106.45213Q551.10626 107.12401 549.85626 107.12401Q548.2 107.12401 547.2469 105.92088Q546.1219 104.49901 546.1219 101.26463ZM547.5594 101.26463Q547.5594 104.09276 548.21564 105.03026Q548.8875 105.95213 549.85626 105.95213Q550.825 105.95213 551.48126 105.01463Q552.1375 104.07713 552.1375 101.26463Q552.1375 98.43651 551.48126 97.51463Q550.825 96.57713 549.84064 96.57713Q548.8719 96.57713 548.29376 97.40526Q547.5594 98.45213 547.5594 101.26463ZM555.90314 106.92088L555.90314 105.31151L557.5125 105.31151L557.5125 106.92088L555.90314 106.92088ZM563.6219 106.92088L563.6219 104.17088L558.65314 104.17088L558.65314 102.88963L563.8875 95.46776L565.02814 95.46776L565.02814 102.88963L566.575 102.88963L566.575 104.17088L565.02814 104.17088L565.02814 106.92088L563.6219 106.92088ZM563.6219 102.88963L563.6219 97.71776L560.04376 102.88963L563.6219 102.88963ZM568.3875 98.21776Q568.3875 96.98338 568.9969 96.12401Q569.6219 95.26463 570.79376 95.26463Q571.8719 95.26463 572.575 96.04588Q573.27814 96.81151 573.27814 98.29588Q573.27814 99.74901 572.5594 100.54588Q571.85626 101.32713 570.8094 101.32713Q569.7625 101.32713 569.075 100.56151Q568.3875 99.78026 568.3875 98.21776ZM570.825 96.23338Q570.3094 96.23338 569.95 96.68651Q569.60626 97.13963 569.60626 98.35838Q569.60626 99.45213 569.95 99.90526Q570.3094 100.35838 570.825 100.35838Q571.35626 100.35838 571.7 99.90526Q572.0594 99.45213 572.0594 98.24901Q572.0594 97.13963 571.7 96.68651Q571.35626 96.23338 570.825 96.23338ZM570.84064 107.34276L577.10626 95.26463L578.2469 95.26463L571.9969 107.34276L570.84064 107.34276ZM575.79376 104.23338Q575.79376 102.99901 576.40314 102.13963Q577.02814 101.28026 578.2 101.28026Q579.27814 101.28026 579.98126 102.06151Q580.7 102.82713 580.7 104.31151Q580.7 105.76463 579.98126 106.56151Q579.2625 107.34276 578.21564 107.34276Q577.16876 107.34276 576.48126 106.56151Q575.79376 105.78026 575.79376 104.23338ZM578.2469 102.24901Q577.71564 102.24901 577.35626 102.70213Q577.0125 103.15526 577.0125 104.37401Q577.0125 105.46776 577.35626 105.92088Q577.71564 106.37401 578.23126 106.37401Q578.77814 106.37401 579.1219 105.92088Q579.46564 105.46776 579.46564 104.26463Q579.46564 103.15526 579.10626 102.70213Q578.7625 102.24901 578.2469 102.24901Z" fill-rule="nonzero"/><path stroke="#757575" stroke-width="1.0" stroke-linecap="butt" d="M581.45 90.42088L454.76666 90.42088L384.52997 90.42088" fill-rule="nonzero"/><path fill="#9e9e9e" d="M386.52997 90.42088C386.52997 89.316315 385.63452 88.42088 384.52997 88.42088C383.42538 88.42088 382.52997 89.316315 382.52997 90.42088C382.52997 91.52545 383.42538 92.42088 384.52997 92.42088C385.63452 92.42088 386.52997 91.52545 386.52997 90.42088" fill-rule="nonzero"/><path fill="#efefef" d="M523.41876 211.7541L527.825 200.30098L529.46564 200.30098L534.15314 211.7541L532.41876 211.7541L531.09064 208.28535L526.29376 208.28535L525.04376 211.7541L523.41876 211.7541ZM526.73126 207.05098L530.6219 207.05098L529.41876 203.8791Q528.8719 202.42598 528.60626 201.5041Q528.3875 202.59785 527.9969 203.6916L526.73126 207.05098ZM535.5125 211.7541L535.5125 203.45723L536.77814 203.45723L536.77814 204.6291Q537.6844 203.26973 539.41876 203.26973Q540.16876 203.26973 540.79376 203.53535Q541.41876 203.80098 541.73126 204.23848Q542.04376 204.67598 542.16876 205.28535Q542.2469 205.67598 542.2469 206.64473L542.2469 211.7541L540.84064 211.7541L540.84064 206.70723Q540.84064 205.84785 540.66876 205.42598Q540.5125 204.98848 540.09064 204.73848Q539.6844 204.48848 539.1219 204.48848Q538.21564 204.48848 537.5594 205.0666Q536.91876 205.6291 536.91876 207.22285L536.91876 211.7541L535.5125 211.7541ZM544.5125 201.91035L544.5125 200.30098L545.91876 200.30098L545.91876 201.91035L544.5125 201.91035ZM544.5125 211.7541L544.5125 203.45723L545.91876 203.45723L545.91876 211.7541L544.5125 211.7541ZM548.5125 211.7541L548.5125 203.45723L549.7625 203.45723L549.7625 204.61348Q550.15314 204.0041 550.79376 203.64473Q551.45 203.26973 552.27814 203.26973Q553.2 203.26973 553.79376 203.66035Q554.3875 204.03535 554.6219 204.72285Q555.60626 203.26973 557.1844 203.26973Q558.41876 203.26973 559.075 203.95723Q559.7469 204.6291 559.7469 206.05098L559.7469 211.7541L558.35626 211.7541L558.35626 206.51973Q558.35626 205.67598 558.21564 205.3166Q558.075 204.9416 557.71564 204.72285Q557.35626 204.48848 556.8719 204.48848Q555.9969 204.48848 555.41876 205.0666Q554.84064 205.64473 554.84064 206.92598L554.84064 211.7541L553.4344 211.7541L553.4344 206.36348Q553.4344 205.42598 553.09064 204.95723Q552.7469 204.48848 551.96564 204.48848Q551.3719 204.48848 550.8719 204.80098Q550.3719 205.11348 550.1375 205.72285Q549.91876 206.3166 549.91876 207.4416L549.91876 211.7541L548.5125 211.7541ZM566.91876 210.72285Q566.1375 211.39473 565.41876 211.67598Q564.7 211.9416 563.8719 211.9416Q562.4969 211.9416 561.7625 211.26973Q561.02814 210.59785 561.02814 209.5666Q561.02814 208.95723 561.3094 208.45723Q561.59064 207.9416 562.02814 207.64473Q562.48126 207.33223 563.04376 207.17598Q563.46564 207.0666 564.29376 206.97285Q565.9969 206.76973 566.8094 206.48848Q566.8094 206.1916 566.8094 206.11348Q566.8094 205.2541 566.41876 204.91035Q565.8719 204.42598 564.8094 204.42598Q563.825 204.42598 563.34064 204.78535Q562.8719 205.1291 562.65314 206.0041L561.27814 205.8166Q561.46564 204.9416 561.8875 204.39473Q562.325 203.84785 563.1375 203.5666Q563.95 203.26973 565.0125 203.26973Q566.075 203.26973 566.73126 203.51973Q567.40314 203.76973 567.71564 204.14473Q568.02814 204.51973 568.15314 205.09785Q568.23126 205.45723 568.23126 206.39473L568.23126 208.26973Q568.23126 210.23848 568.3094 210.7541Q568.40314 211.26973 568.66876 211.7541L567.2 211.7541Q566.98126 211.3166 566.91876 210.72285ZM566.8094 207.58223Q566.04376 207.89473 564.5125 208.11348Q563.6375 208.23848 563.27814 208.39473Q562.91876 208.55098 562.71564 208.86348Q562.52814 209.16035 562.52814 209.51973Q562.52814 210.08223 562.95 210.45723Q563.3875 210.83223 564.2 210.83223Q565.0125 210.83223 565.6375 210.48848Q566.27814 210.1291 566.575 209.5041Q566.8094 209.03535 566.8094 208.09785L566.8094 207.58223ZM570.48126 211.7541L570.48126 200.30098L571.8875 200.30098L571.8875 211.7541L570.48126 211.7541ZM573.95 209.26973L575.34064 209.05098Q575.45 209.89473 575.98126 210.34785Q576.52814 210.78535 577.48126 210.78535Q578.45 210.78535 578.91876 210.39473Q579.3875 209.98848 579.3875 209.45723Q579.3875 208.98848 578.98126 208.70723Q578.6844 208.51973 577.54376 208.23848Q575.9969 207.84785 575.3875 207.5666Q574.79376 207.26973 574.48126 206.76973Q574.1844 206.26973 574.1844 205.66035Q574.1844 205.09785 574.4344 204.6291Q574.6844 204.16035 575.1219 203.84785Q575.45 203.59785 576.0125 203.4416Q576.59064 203.26973 577.23126 203.26973Q578.21564 203.26973 578.95 203.55098Q579.6844 203.83223 580.02814 204.3166Q580.3875 204.78535 580.52814 205.59785L579.15314 205.78535Q579.0594 205.14473 578.60626 204.78535Q578.15314 204.42598 577.34064 204.42598Q576.3719 204.42598 575.95 204.7541Q575.54376 205.0666 575.54376 205.48848Q575.54376 205.76973 575.71564 205.98848Q575.8875 206.20723 576.2469 206.36348Q576.46564 206.4416 577.4969 206.72285Q578.98126 207.11348 579.575 207.3791Q580.16876 207.6291 580.4969 208.11348Q580.84064 208.59785 580.84064 209.3166Q580.84064 210.01973 580.41876 210.64473Q580.0125 211.2541 579.23126 211.59785Q578.46564 211.9416 577.4969 211.9416Q575.8719 211.9416 575.02814 211.26973Q574.1844 210.59785 573.95 209.26973Z" fill-rule="nonzero"/><path fill="#9e9e9e" d="M542.41876 233.7541L541.0125 233.7541L541.0125 224.78535Q540.4969 225.26973 539.66876 225.7541Q538.85626 226.23848 538.2 226.48848L538.2 225.1291Q539.3719 224.5666 540.2469 223.78535Q541.1375 222.98848 541.5125 222.2541L542.41876 222.2541L542.41876 233.7541ZM553.5125 232.39473L553.5125 233.7541L545.9344 233.7541Q545.91876 233.23848 546.10626 232.76973Q546.3875 232.0041 547.02814 231.2541Q547.66876 230.5041 548.8719 229.51973Q550.73126 227.98848 551.3875 227.09785Q552.04376 226.1916 552.04376 225.39473Q552.04376 224.5666 551.45 223.98848Q550.85626 223.41035 549.8875 223.41035Q548.8719 223.41035 548.2625 224.01973Q547.65314 224.6291 547.65314 225.70723L546.2 225.5666Q546.35626 223.9416 547.325 223.09785Q548.29376 222.2541 549.91876 222.2541Q551.575 222.2541 552.52814 223.17598Q553.4969 224.08223 553.4969 225.42598Q553.4969 226.11348 553.21564 226.78535Q552.9344 227.4416 552.27814 228.17598Q551.6219 228.91035 550.10626 230.1916Q548.84064 231.2541 548.48126 231.64473Q548.1219 232.01973 547.8875 232.39473L553.5125 232.39473ZM555.90314 233.7541L555.90314 232.14473L557.5125 232.14473L557.5125 233.7541L555.90314 233.7541ZM566.5125 232.39473L566.5125 233.7541L558.9344 233.7541Q558.91876 233.23848 559.10626 232.76973Q559.3875 232.0041 560.02814 231.2541Q560.66876 230.5041 561.8719 229.51973Q563.73126 227.98848 564.3875 227.09785Q565.04376 226.1916 565.04376 225.39473Q565.04376 224.5666 564.45 223.98848Q563.85626 223.41035 562.8875 223.41035Q561.8719 223.41035 561.2625 224.01973Q560.65314 224.6291 560.65314 225.70723L559.2 225.5666Q559.35626 223.9416 560.325 223.09785Q561.29376 222.2541 562.91876 222.2541Q564.575 222.2541 565.52814 223.17598Q566.4969 224.08223 566.4969 225.42598Q566.4969 226.11348 566.21564 226.78535Q565.9344 227.4416 565.27814 228.17598Q564.6219 228.91035 563.10626 230.1916Q561.84064 231.2541 561.48126 231.64473Q561.1219 232.01973 560.8875 232.39473L566.5125 232.39473ZM568.3875 225.05098Q568.3875 223.8166 568.9969 222.95723Q569.6219 222.09785 570.79376 222.09785Q571.8719 222.09785 572.575 222.8791Q573.27814 223.64473 573.27814 225.1291Q573.27814 226.58223 572.5594 227.3791Q571.85626 228.16035 570.8094 228.16035Q569.7625 228.16035 569.075 227.39473Q568.3875 226.61348 568.3875 225.05098ZM570.825 223.0666Q570.3094 223.0666 569.95 223.51973Q569.60626 223.97285 569.60626 225.1916Q569.60626 226.28535 569.95 226.73848Q570.3094 227.1916 570.825 227.1916Q571.35626 227.1916 571.7 226.73848Q572.0594 226.28535 572.0594 225.08223Q572.0594 223.97285 571.7 223.51973Q571.35626 223.0666 570.825 223.0666ZM570.84064 234.17598L577.10626 222.09785L578.2469 222.09785L571.9969 234.17598L570.84064 234.17598ZM575.79376 231.0666Q575.79376 229.83223 576.40314 228.97285Q577.02814 228.11348 578.2 228.11348Q579.27814 228.11348 579.98126 228.89473Q580.7 229.66035 580.7 231.14473Q580.7 232.59785 579.98126 233.39473Q579.2625 234.17598 578.21564 234.17598Q577.16876 234.17598 576.48126 233.39473Q575.79376 232.61348 575.79376 231.0666ZM578.2469 229.08223Q577.71564 229.08223 577.35626 229.53535Q577.0125 229.98848 577.0125 231.20723Q577.0125 232.30098 577.35626 232.7541Q577.71564 233.20723 578.23126 233.20723Q578.77814 233.20723 579.1219 232.7541Q579.46564 232.30098 579.46564 231.09785Q579.46564 229.98848 579.10626 229.53535Q578.7625 229.08223 578.2469 229.08223Z" fill-rule="nonzero"/><path stroke="#757575" stroke-width="1.0" stroke-linecap="butt" d="M581.45 217.2541L454.76666 217.2541L440.67526 217.2541" fill-rule="nonzero"/><path fill="#9e9e9e" d="M442.67526 217.2541C442.67526 216.14954 441.77985 215.2541 440.67526 215.2541C439.5707 215.2541 438.67526 216.14954 438.67526 217.2541C438.67526 218.35867 439.5707 219.2541 440.67526 219.2541C441.77985 219.2541 442.67526 218.35867 442.67526 217.2541" fill-rule="nonzero"/><path fill="#f3f3f3" d="M265.98438 37.55L265.98438 23.2375L268.84375 23.2375L272.21875 33.3625Q272.6875 34.784374 272.90625 35.4875Q273.15625 34.70625 273.67188 33.190624L277.09375 23.2375L279.64062 23.2375L279.64062 37.55L277.82812 37.55L277.82812 25.565624L273.65625 37.55L271.95312 37.55L267.8125 25.3625L267.8125 37.55L265.98438 37.55ZM289.92188 34.20625L291.73438 34.440624Q291.3125 36.01875 290.14062 36.909374Q288.98438 37.784374 287.17188 37.784374Q284.90625 37.784374 283.5625 36.39375Q282.23438 34.9875 282.23438 32.45625Q282.23438 29.83125 283.57812 28.39375Q284.92188 26.940624 287.07812 26.940624Q289.15625 26.940624 290.46875 28.3625Q291.79688 29.76875 291.79688 32.346874Q291.79688 32.503124 291.78125 32.815624L284.04688 32.815624Q284.14062 34.51875 285.01562 35.425Q285.89062 36.33125 287.1875 36.33125Q288.15625 36.33125 288.82812 35.83125Q289.51562 35.315624 289.92188 34.20625ZM284.14062 31.3625L289.9375 31.3625Q289.82812 30.065624 289.28125 29.409374Q288.4375 28.39375 287.09375 28.39375Q285.89062 28.39375 285.0625 29.20625Q284.23438 30.003124 284.14062 31.3625ZM300.54688 37.55L300.54688 36.2375Q299.5625 37.784374 297.64062 37.784374Q296.40625 37.784374 295.35938 37.096874Q294.32812 36.409374 293.75 35.190624Q293.1875 33.971874 293.1875 32.378124Q293.1875 30.815624 293.70312 29.55Q294.21875 28.284374 295.25 27.6125Q296.29688 26.940624 297.5625 26.940624Q298.5 26.940624 299.23438 27.346874Q299.96875 27.7375 300.4375 28.3625L300.4375 23.2375L302.17188 23.2375L302.17188 37.55L300.54688 37.55ZM294.98438 32.378124Q294.98438 34.3625 295.82812 35.346874Q296.67188 36.33125 297.8125 36.33125Q298.96875 36.33125 299.76562 35.39375Q300.57812 34.45625 300.57812 32.51875Q300.57812 30.39375 299.75 29.39375Q298.9375 28.39375 297.73438 28.39375Q296.5625 28.39375 295.76562 29.3625Q294.98438 30.315624 294.98438 32.378124ZM304.82812 25.253124L304.82812 23.2375L306.59375 23.2375L306.59375 25.253124L304.82812 25.253124ZM304.82812 37.55L304.82812 27.175L306.59375 27.175L306.59375 37.55L304.82812 37.55ZM315.60938 37.55L315.60938 36.01875Q314.40625 37.784374 312.32812 37.784374Q311.40625 37.784374 310.60938 37.440624Q309.8125 37.08125 309.42188 36.55Q309.04688 36.01875 308.89062 35.2375Q308.78125 34.721874 308.78125 33.596874L308.78125 27.175L310.53125 27.175L310.53125 32.925Q310.53125 34.3 310.64062 34.784374Q310.8125 35.471874 311.34375 35.878124Q311.89062 36.26875 312.67188 36.26875Q313.46875 36.26875 314.15625 35.8625Q314.85938 35.45625 315.14062 34.76875Q315.4375 34.065624 315.4375 32.7375L315.4375 27.175L317.1875 27.175L317.1875 37.55L315.60938 37.55ZM319.8125 37.55L319.8125 27.175L321.39062 27.175L321.39062 28.628124Q321.875 27.878124 322.6875 27.409374Q323.5 26.940624 324.53125 26.940624Q325.6875 26.940624 326.42188 27.425Q327.15625 27.89375 327.46875 28.753124Q328.70312 26.940624 330.67188 26.940624Q332.21875 26.940624 333.04688 27.8Q333.875 28.659374 333.875 30.425L333.875 37.55L332.125 37.55L332.125 31.01875Q332.125 29.95625 331.95312 29.503124Q331.78125 29.034374 331.32812 28.753124Q330.89062 28.471874 330.28125 28.471874Q329.1875 28.471874 328.45312 29.20625Q327.73438 29.925 327.73438 31.51875L327.73438 37.55L325.98438 37.55L325.98438 30.815624Q325.98438 29.64375 325.54688 29.065624Q325.125 28.471874 324.14062 28.471874Q323.40625 28.471874 322.76562 28.8625Q322.14062 29.253124 321.85938 30.003124Q321.57812 30.753124 321.57812 32.175L321.57812 37.55L319.8125 37.55Z" fill-rule="nonzero"/></svg>