<svg version="1.1" viewBox="0.0 0.0 600.0 371.0" fill="none" stroke="none" stroke-linecap="square" stroke-miterlimit="10" width="600" height="371" xmlns:xlink="http://www.w3.org/1999/xlink" xmlns="http://www.w3.org/2000/svg"><path fill="#ffffff" fill-opacity="0.0" d="M0 0L600.0 0L600.0 371.0L0 371.0L0 0Z" fill-rule="nonzero"/><path fill="#f7d750" d="M300.0 54.916668C382.16156 54.916668 448.76666 121.521774 448.76666 203.68333L374.38333 203.68333C374.38333 162.60255 341.08078 129.3 300.0 129.3Z" fill-rule="nonzero"/><path fill="#f5ee58" d="M448.76666 203.68333C448.76666 285.8449 382.16156 352.45 300.0 352.45L300.0 278.06668C341.08078 278.06668 374.38333 244.76411 374.38333 203.68333Z" fill-rule="nonzero"/><path fill="#78a94e" d="M151.23334 203.68333C151.23334 121.521774 217.83844 54.916668 300.0 54.916668L300.0 129.3C258.91922 129.3 225.61667 162.60255 225.61667 203.68333Z" fill-rule="nonzero"/><path fill="#b3ca48" d="M300.0 352.45C217.83844 352.45 151.23334 285.8449 151.23334 203.68333L225.61667 203.68333C225.61667 244.76411 258.91922 278.06668 300.0 278.06668Z" fill-rule="nonzero"/><path fill="#ffffff" d="M362.45795 129.77226L362.45795 131.28789L353.94232 131.28789Q353.9267 130.70976 354.12982 130.19414Q354.45795 129.31914 355.16107 128.47539Q355.87982 127.63164 357.2392 126.52226Q359.33295 124.80351 360.06732 123.80351Q360.81732 122.78789 360.81732 121.89726Q360.81732 120.94414 360.14545 120.30351Q359.47357 119.66289 358.39545 119.66289Q357.2392 119.66289 356.5517 120.35039Q355.87982 121.03789 355.8642 122.24101L354.2392 122.06914Q354.41107 120.25664 355.4892 119.30351Q356.58295 118.35039 358.4267 118.35039Q360.27045 118.35039 361.34857 119.38164Q362.44232 120.41289 362.44232 121.92851Q362.44232 122.69414 362.1142 123.44414Q361.8017 124.19414 361.06732 125.02226Q360.33295 125.85039 358.62982 127.28789Q357.20795 128.49101 356.8017 128.91289Q356.39545 129.33476 356.14545 129.77226L362.45795 129.77226ZM364.14545 127.91289L365.8017 127.77226Q365.9892 128.99101 366.66107 129.60039Q367.33295 130.20976 368.28607 130.20976Q369.4267 130.20976 370.20795 129.35039Q371.00482 128.49101 371.00482 127.05351Q371.00482 125.70976 370.2392 124.92851Q369.4892 124.14726 368.25482 124.14726Q367.4892 124.14726 366.8642 124.49101Q366.25482 124.83476 365.91107 125.39726L364.4267 125.19414L365.6767 118.58476L372.08295 118.58476L372.08295 120.08476L366.94232 120.08476L366.2392 123.55351Q367.41107 122.74101 368.6767 122.74101Q370.3642 122.74101 371.52045 123.91289Q372.69232 125.08476 372.69232 126.91289Q372.69232 128.66289 371.66107 129.94414Q370.4267 131.50664 368.28607 131.50664Q366.52045 131.50664 365.41107 130.52226Q364.3017 129.53789 364.14545 127.91289ZM375.03607 131.28789L375.03607 129.49101L376.83295 129.49101L376.83295 131.28789L375.03607 131.28789ZM379.14545 124.92851Q379.14545 122.64726 379.6142 121.25664Q380.08295 119.86601 381.00482 119.11601Q381.94232 118.35039 383.34857 118.35039Q384.37982 118.35039 385.16107 118.77226Q385.94232 119.17851 386.44232 119.97539Q386.95795 120.75664 387.25482 121.89726Q387.5517 123.02226 387.5517 124.92851Q387.5517 127.19414 387.08295 128.60039Q386.6142 129.99101 385.6767 130.75664Q384.75482 131.50664 383.34857 131.50664Q381.47357 131.50664 380.41107 130.17851Q379.14545 128.56914 379.14545 124.92851ZM380.77045 124.92851Q380.77045 128.10039 381.50482 129.16289Q382.25482 130.20976 383.34857 130.20976Q384.4267 130.20976 385.1767 129.16289Q385.9267 128.10039 385.9267 124.92851Q385.9267 121.75664 385.1767 120.70976Q384.4267 119.66289 383.33295 119.66289Q382.2392 119.66289 381.58295 120.58476Q380.77045 121.75664 380.77045 124.92851ZM389.44232 121.49101Q389.44232 120.11601 390.12982 119.14726Q390.83295 118.17851 392.14545 118.17851Q393.3642 118.17851 394.16107 119.05351Q394.95795 119.91289 394.95795 121.60039Q394.95795 123.22539 394.14545 124.11601Q393.34857 124.99101 392.16107 124.99101Q391.00482 124.99101 390.22357 124.13164Q389.44232 123.25664 389.44232 121.49101ZM392.19232 119.27226Q391.59857 119.27226 391.20795 119.78789Q390.81732 120.28789 390.81732 121.64726Q390.81732 122.89726 391.20795 123.39726Q391.6142 123.89726 392.19232 123.89726Q392.78607 123.89726 393.1767 123.39726Q393.56732 122.88164 393.56732 121.53789Q393.56732 120.28789 393.1767 119.78789Q392.78607 119.27226 392.19232 119.27226ZM392.20795 131.75664L399.25482 118.17851L400.53607 118.17851L393.50482 131.75664L392.20795 131.75664ZM397.77045 128.25664Q397.77045 126.88164 398.45795 125.91289Q399.16107 124.94414 400.4892 124.94414Q401.70795 124.94414 402.4892 125.81914Q403.28607 126.67851 403.28607 128.36601Q403.28607 129.99101 402.4892 130.88164Q401.69232 131.75664 400.50482 131.75664Q399.33295 131.75664 398.5517 130.88164Q397.77045 130.00664 397.77045 128.25664ZM400.53607 126.03789Q399.94232 126.03789 399.5517 126.55351Q399.16107 127.05351 399.16107 128.42851Q399.16107 129.64726 399.5517 130.16289Q399.94232 130.67851 400.52045 130.67851Q401.12982 130.67851 401.52045 130.16289Q401.91107 129.64726 401.91107 128.30351Q401.91107 127.05351 401.52045 126.55351Q401.12982 126.03789 400.53607 126.03789Z" fill-rule="nonzero"/><path fill="#ffffff" d="M362.45795 287.56314L362.45795 289.07877L353.94232 289.07877Q353.9267 288.50064 354.12982 287.98502Q354.45795 287.11002 355.16107 286.26627Q355.87982 285.42252 357.2392 284.31314Q359.33295 282.5944 360.06732 281.5944Q360.81732 280.57877 360.81732 279.68814Q360.81732 278.73502 360.14545 278.0944Q359.47357 277.45377 358.39545 277.45377Q357.2392 277.45377 356.5517 278.14127Q355.87982 278.82877 355.8642 280.0319L354.2392 279.86002Q354.41107 278.04752 355.4892 277.0944Q356.58295 276.14127 358.4267 276.14127Q360.27045 276.14127 361.34857 277.17252Q362.44232 278.20377 362.44232 279.7194Q362.44232 280.48502 362.1142 281.23502Q361.8017 281.98502 361.06732 282.81314Q360.33295 283.64127 358.62982 285.07877Q357.20795 286.2819 356.8017 286.70377Q356.39545 287.12564 356.14545 287.56314L362.45795 287.56314ZM364.14545 285.70377L365.8017 285.56314Q365.9892 286.7819 366.66107 287.39127Q367.33295 288.00064 368.28607 288.00064Q369.4267 288.00064 370.20795 287.14127Q371.00482 286.2819 371.00482 284.8444Q371.00482 283.50064 370.2392 282.7194Q369.4892 281.93814 368.25482 281.93814Q367.4892 281.93814 366.8642 282.2819Q366.25482 282.62564 365.91107 283.18814L364.4267 282.98502L365.6767 276.37564L372.08295 276.37564L372.08295 277.87564L366.94232 277.87564L366.2392 281.3444Q367.41107 280.5319 368.6767 280.5319Q370.3642 280.5319 371.52045 281.70377Q372.69232 282.87564 372.69232 284.70377Q372.69232 286.45377 371.66107 287.73502Q370.4267 289.29752 368.28607 289.29752Q366.52045 289.29752 365.41107 288.31314Q364.3017 287.32877 364.14545 285.70377ZM375.03607 289.07877L375.03607 287.2819L376.83295 287.2819L376.83295 289.07877L375.03607 289.07877ZM379.14545 282.7194Q379.14545 280.43814 379.6142 279.04752Q380.08295 277.6569 381.00482 276.9069Q381.94232 276.14127 383.34857 276.14127Q384.37982 276.14127 385.16107 276.56314Q385.94232 276.9694 386.44232 277.76627Q386.95795 278.54752 387.25482 279.68814Q387.5517 280.81314 387.5517 282.7194Q387.5517 284.98502 387.08295 286.39127Q386.6142 287.7819 385.6767 288.54752Q384.75482 289.29752 383.34857 289.29752Q381.47357 289.29752 380.41107 287.9694Q379.14545 286.36002 379.14545 282.7194ZM380.77045 282.7194Q380.77045 285.89127 381.50482 286.95377Q382.25482 288.00064 383.34857 288.00064Q384.4267 288.00064 385.1767 286.95377Q385.9267 285.89127 385.9267 282.7194Q385.9267 279.54752 385.1767 278.50064Q384.4267 277.45377 383.33295 277.45377Q382.2392 277.45377 381.58295 278.37564Q380.77045 279.54752 380.77045 282.7194ZM389.44232 279.2819Q389.44232 277.9069 390.12982 276.93814Q390.83295 275.9694 392.14545 275.9694Q393.3642 275.9694 394.16107 276.8444Q394.95795 277.70377 394.95795 279.39127Q394.95795 281.01627 394.14545 281.9069Q393.34857 282.7819 392.16107 282.7819Q391.00482 282.7819 390.22357 281.92252Q389.44232 281.04752 389.44232 279.2819ZM392.19232 277.06314Q391.59857 277.06314 391.20795 277.57877Q390.81732 278.07877 390.81732 279.43814Q390.81732 280.68814 391.20795 281.18814Q391.6142 281.68814 392.19232 281.68814Q392.78607 281.68814 393.1767 281.18814Q393.56732 280.67252 393.56732 279.32877Q393.56732 278.07877 393.1767 277.57877Q392.78607 277.06314 392.19232 277.06314ZM392.20795 289.54752L399.25482 275.9694L400.53607 275.9694L393.50482 289.54752L392.20795 289.54752ZM397.77045 286.04752Q397.77045 284.67252 398.45795 283.70377Q399.16107 282.73502 400.4892 282.73502Q401.70795 282.73502 402.4892 283.61002Q403.28607 284.4694 403.28607 286.1569Q403.28607 287.7819 402.4892 288.67252Q401.69232 289.54752 400.50482 289.54752Q399.33295 289.54752 398.5517 288.67252Q397.77045 287.79752 397.77045 286.04752ZM400.53607 283.82877Q399.94232 283.82877 399.5517 284.3444Q399.16107 284.8444 399.16107 286.2194Q399.16107 287.43814 399.5517 287.95377Q399.94232 288.4694 400.52045 288.4694Q401.12982 288.4694 401.52045 287.95377Q401.91107 287.43814 401.91107 286.0944Q401.91107 284.8444 401.52045 284.3444Q401.12982 283.82877 400.53607 283.82877Z" fill-rule="nonzero"/><path fill="#ffffff" d="M204.66707 287.56314L204.66707 289.07877L196.15144 289.07877Q196.13582 288.50064 196.33894 287.98502Q196.66707 287.11002 197.3702 286.26627Q198.08894 285.42252 199.44832 284.31314Q201.54207 282.5944 202.27644 281.5944Q203.02644 280.57877 203.02644 279.68814Q203.02644 278.73502 202.35457 278.0944Q201.6827 277.45377 200.60457 277.45377Q199.44832 277.45377 198.76082 278.14127Q198.08894 278.82877 198.07332 280.0319L196.44832 279.86002Q196.6202 278.04752 197.69832 277.0944Q198.79207 276.14127 200.63582 276.14127Q202.47957 276.14127 203.5577 277.17252Q204.65144 278.20377 204.65144 279.7194Q204.65144 280.48502 204.32332 281.23502Q204.01082 281.98502 203.27644 282.81314Q202.54207 283.64127 200.83894 285.07877Q199.41707 286.2819 199.01082 286.70377Q198.60457 287.12564 198.35457 287.56314L204.66707 287.56314ZM206.35457 285.70377L208.01082 285.56314Q208.19832 286.7819 208.8702 287.39127Q209.54207 288.00064 210.4952 288.00064Q211.63582 288.00064 212.41707 287.14127Q213.21394 286.2819 213.21394 284.8444Q213.21394 283.50064 212.44832 282.7194Q211.69832 281.93814 210.46394 281.93814Q209.69832 281.93814 209.07332 282.2819Q208.46394 282.62564 208.1202 283.18814L206.63582 282.98502L207.88582 276.37564L214.29207 276.37564L214.29207 277.87564L209.15144 277.87564L208.44832 281.3444Q209.6202 280.5319 210.88582 280.5319Q212.57332 280.5319 213.72957 281.70377Q214.90144 282.87564 214.90144 284.70377Q214.90144 286.45377 213.8702 287.73502Q212.63582 289.29752 210.4952 289.29752Q208.72957 289.29752 207.6202 288.31314Q206.51082 287.32877 206.35457 285.70377ZM217.2452 289.07877L217.2452 287.2819L219.04207 287.2819L219.04207 289.07877L217.2452 289.07877ZM221.35457 282.7194Q221.35457 280.43814 221.82332 279.04752Q222.29207 277.6569 223.21394 276.9069Q224.15144 276.14127 225.5577 276.14127Q226.58894 276.14127 227.3702 276.56314Q228.15144 276.9694 228.65144 277.76627Q229.16707 278.54752 229.46394 279.68814Q229.76082 280.81314 229.76082 282.7194Q229.76082 284.98502 229.29207 286.39127Q228.82332 287.7819 227.88582 288.54752Q226.96394 289.29752 225.5577 289.29752Q223.6827 289.29752 222.6202 287.9694Q221.35457 286.36002 221.35457 282.7194ZM222.97957 282.7194Q222.97957 285.89127 223.71394 286.95377Q224.46394 288.00064 225.5577 288.00064Q226.63582 288.00064 227.38582 286.95377Q228.13582 285.89127 228.13582 282.7194Q228.13582 279.54752 227.38582 278.50064Q226.63582 277.45377 225.54207 277.45377Q224.44832 277.45377 223.79207 278.37564Q222.97957 279.54752 222.97957 282.7194ZM231.65144 279.2819Q231.65144 277.9069 232.33894 276.93814Q233.04207 275.9694 234.35457 275.9694Q235.57332 275.9694 236.3702 276.8444Q237.16707 277.70377 237.16707 279.39127Q237.16707 281.01627 236.35457 281.9069Q235.5577 282.7819 234.3702 282.7819Q233.21394 282.7819 232.4327 281.92252Q231.65144 281.04752 231.65144 279.2819ZM234.40144 277.06314Q233.8077 277.06314 233.41707 277.57877Q233.02644 278.07877 233.02644 279.43814Q233.02644 280.68814 233.41707 281.18814Q233.82332 281.68814 234.40144 281.68814Q234.9952 281.68814 235.38582 281.18814Q235.77644 280.67252 235.77644 279.32877Q235.77644 278.07877 235.38582 277.57877Q234.9952 277.06314 234.40144 277.06314ZM234.41707 289.54752L241.46394 275.9694L242.7452 275.9694L235.71394 289.54752L234.41707 289.54752ZM239.97957 286.04752Q239.97957 284.67252 240.66707 283.70377Q241.3702 282.73502 242.69832 282.73502Q243.91707 282.73502 244.69832 283.61002Q245.4952 284.4694 245.4952 286.1569Q245.4952 287.7819 244.69832 288.67252Q243.90144 289.54752 242.71394 289.54752Q241.54207 289.54752 240.76082 288.67252Q239.97957 287.79752 239.97957 286.04752ZM242.7452 283.82877Q242.15144 283.82877 241.76082 284.3444Q241.3702 284.8444 241.3702 286.2194Q241.3702 287.43814 241.76082 287.95377Q242.15144 288.4694 242.72957 288.4694Q243.33894 288.4694 243.72957 287.95377Q244.1202 287.43814 244.1202 286.0944Q244.1202 284.8444 243.72957 284.3444Q243.33894 283.82877 242.7452 283.82877Z" fill-rule="nonzero"/><path fill="#ffffff" d="M204.66707 129.77226L204.66707 131.28789L196.15144 131.28789Q196.13582 130.70976 196.33894 130.19414Q196.66707 129.31914 197.3702 128.47539Q198.08894 127.63164 199.44832 126.52226Q201.54207 124.80351 202.27644 123.80351Q203.02644 122.78789 203.02644 121.89726Q203.02644 120.94414 202.35457 120.30351Q201.6827 119.66289 200.60457 119.66289Q199.44832 119.66289 198.76082 120.35039Q198.08894 121.03789 198.07332 122.24101L196.44832 122.06914Q196.6202 120.25664 197.69832 119.30351Q198.79207 118.35039 200.63582 118.35039Q202.47957 118.35039 203.5577 119.38164Q204.65144 120.41289 204.65144 121.92851Q204.65144 122.69414 204.32332 123.44414Q204.01082 124.19414 203.27644 125.02226Q202.54207 125.85039 200.83894 127.28789Q199.41707 128.49101 199.01082 128.91289Q198.60457 129.33476 198.35457 129.77226L204.66707 129.77226ZM206.35457 127.91289L208.01082 127.77226Q208.19832 128.99101 208.8702 129.60039Q209.54207 130.20976 210.4952 130.20976Q211.63582 130.20976 212.41707 129.35039Q213.21394 128.49101 213.21394 127.05351Q213.21394 125.70976 212.44832 124.92851Q211.69832 124.14726 210.46394 124.14726Q209.69832 124.14726 209.07332 124.49101Q208.46394 124.83476 208.1202 125.39726L206.63582 125.19414L207.88582 118.58476L214.29207 118.58476L214.29207 120.08476L209.15144 120.08476L208.44832 123.55351Q209.6202 122.74101 210.88582 122.74101Q212.57332 122.74101 213.72957 123.91289Q214.90144 125.08476 214.90144 126.91289Q214.90144 128.66289 213.8702 129.94414Q212.63582 131.50664 210.4952 131.50664Q208.72957 131.50664 207.6202 130.52226Q206.51082 129.53789 206.35457 127.91289ZM217.2452 131.28789L217.2452 129.49101L219.04207 129.49101L219.04207 131.28789L217.2452 131.28789ZM221.35457 124.92851Q221.35457 122.64726 221.82332 121.25664Q222.29207 119.86601 223.21394 119.11601Q224.15144 118.35039 225.5577 118.35039Q226.58894 118.35039 227.3702 118.77226Q228.15144 119.17851 228.65144 119.97539Q229.16707 120.75664 229.46394 121.89726Q229.76082 123.02226 229.76082 124.92851Q229.76082 127.19414 229.29207 128.60039Q228.82332 129.99101 227.88582 130.75664Q226.96394 131.50664 225.5577 131.50664Q223.6827 131.50664 222.6202 130.17851Q221.35457 128.56914 221.35457 124.92851ZM222.97957 124.92851Q222.97957 128.10039 223.71394 129.16289Q224.46394 130.20976 225.5577 130.20976Q226.63582 130.20976 227.38582 129.16289Q228.13582 128.10039 228.13582 124.92851Q228.13582 121.75664 227.38582 120.70976Q226.63582 119.66289 225.54207 119.66289Q224.44832 119.66289 223.79207 120.58476Q222.97957 121.75664 222.97957 124.92851ZM231.65144 121.49101Q231.65144 120.11601 232.33894 119.14726Q233.04207 118.17851 234.35457 118.17851Q235.57332 118.17851 236.3702 119.05351Q237.16707 119.91289 237.16707 121.60039Q237.16707 123.22539 236.35457 124.11601Q235.5577 124.99101 234.3702 124.99101Q233.21394 124.99101 232.4327 124.13164Q231.65144 123.25664 231.65144 121.49101ZM234.40144 119.27226Q233.8077 119.27226 233.41707 119.78789Q233.02644 120.28789 233.02644 121.64726Q233.02644 122.89726 233.41707 123.39726Q233.82332 123.89726 234.40144 123.89726Q234.9952 123.89726 235.38582 123.39726Q235.77644 122.88164 235.77644 121.53789Q235.77644 120.28789 235.38582 119.78789Q234.9952 119.27226 234.40144 119.27226ZM234.41707 131.75664L241.46394 118.17851L242.7452 118.17851L235.71394 131.75664L234.41707 131.75664ZM239.97957 128.25664Q239.97957 126.88164 240.66707 125.91289Q241.3702 124.94414 242.69832 124.94414Q243.91707 124.94414 244.69832 125.81914Q245.4952 126.67851 245.4952 128.36601Q245.4952 129.99101 244.69832 130.88164Q243.90144 131.75664 242.71394 131.75664Q241.54207 131.75664 240.76082 130.88164Q239.97957 130.00664 239.97957 128.25664ZM242.7452 126.03789Q242.15144 126.03789 241.76082 126.55351Q241.3702 127.05351 241.3702 128.42851Q241.3702 129.64726 241.76082 130.16289Q242.15144 130.67851 242.72957 130.67851Q243.33894 130.67851 243.72957 130.16289Q244.1202 129.64726 244.1202 128.30351Q244.1202 127.05351 243.72957 126.55351Q243.33894 126.03789 242.7452 126.03789Z" fill-rule="nonzero"/><path stroke="#ffffff" stroke-width="1.0" stroke-linejoin="round" stroke-linecap="round" d="M374.38333 203.68333C374.38333 162.60255 341.08078 129.3 300.0 129.3L300.0 54.916668C382.16156 54.916668 448.76666 121.521774 448.76666 203.68333" fill-rule="nonzero"/><path stroke="#ffffff" stroke-width="1.0" stroke-linejoin="round" stroke-linecap="round" d="M300.0 278.06668C341.08078 278.06668 374.38333 244.76411 374.38333 203.68333L448.76666 203.68333C448.76666 285.8449 382.16156 352.45 300.0 352.45" fill-rule="nonzero"/><path stroke="#ffffff" stroke-width="1.0" stroke-linejoin="round" stroke-linecap="round" d="M225.61667 203.68333C225.61667 244.76411 258.91922 278.06668 300.0 278.06668L300.0 352.45C217.83844 352.45 151.23334 285.8449 151.23334 203.68333" fill-rule="nonzero"/><path stroke="#ffffff" stroke-width="1.0" stroke-linejoin="round" stroke-linecap="round" d="M300.0 129.3C258.91922 129.3 225.61667 162.60255 225.61667 203.68333L151.23334 203.68333C151.23334 121.521774 217.83844 54.916668 300.0 54.916668" fill-rule="nonzero"/><path fill="#efefef" d="M18.51875 98.24911L22.925 86.79598L24.565624 86.79598L29.253124 98.24911L27.51875 98.24911L26.190624 94.78036L21.39375 94.78036L20.14375 98.24911L18.51875 98.24911ZM21.83125 93.54598L25.721874 93.54598L24.51875 90.37411Q23.971874 88.92098 23.70625 87.99911Q23.4875 89.09286 23.096874 90.18661L21.83125 93.54598ZM30.596874 98.24911L30.596874 89.95223L31.8625 89.95223L31.8625 91.20223Q32.346874 90.32723 32.753124 90.04598Q33.159374 89.76473 33.659374 89.76473Q34.3625 89.76473 35.096874 90.21786L34.6125 91.51473Q34.096874 91.21786 33.58125 91.21786Q33.128124 91.21786 32.753124 91.49911Q32.39375 91.76473 32.2375 92.26473Q32.003124 93.01473 32.003124 93.90536L32.003124 98.24911L30.596874 98.24911ZM41.01875 95.20223L42.409374 95.38973Q42.175 96.81161 41.2375 97.62411Q40.315624 98.43661 38.95625 98.43661Q37.253124 98.43661 36.20625 97.32723Q35.175 96.20223 35.175 94.12411Q35.175 92.78036 35.6125 91.78036Q36.065624 90.76473 36.971874 90.26473Q37.89375 89.76473 38.95625 89.76473Q40.315624 89.76473 41.175 90.45223Q42.034374 91.12411 42.26875 92.38973L40.909374 92.59286Q40.70625 91.76473 40.20625 91.34286Q39.721874 90.92098 39.01875 90.92098Q37.95625 90.92098 37.284374 91.68661Q36.628124 92.43661 36.628124 94.09286Q36.628124 95.76473 37.26875 96.53036Q37.909374 97.28036 38.940624 97.28036Q39.76875 97.28036 40.315624 96.78036Q40.878124 96.26473 41.01875 95.20223ZM43.6125 98.24911L43.6125 86.79598L45.01875 86.79598L45.01875 90.90536Q46.003124 89.76473 47.503124 89.76473Q48.425 89.76473 49.096874 90.12411Q49.784374 90.48348 50.065624 91.12411Q50.3625 91.76473 50.3625 92.98348L50.3625 98.24911L48.95625 98.24911L48.95625 92.98348Q48.95625 91.93661 48.503124 91.45223Q48.05 90.96786 47.20625 90.96786Q46.58125 90.96786 46.034374 91.29598Q45.4875 91.62411 45.253124 92.18661Q45.01875 92.73348 45.01875 93.70223L45.01875 98.24911L43.6125 98.24911ZM52.6125 88.40536L52.6125 86.79598L54.01875 86.79598L54.01875 88.40536L52.6125 88.40536ZM52.6125 98.24911L52.6125 89.95223L54.01875 89.95223L54.01875 98.24911L52.6125 98.24911ZM59.675 96.98348L59.878124 98.23348Q59.284374 98.35848 58.815624 98.35848Q58.05 98.35848 57.628124 98.12411Q57.20625 97.87411 57.034374 97.48348Q56.8625 97.07723 56.8625 95.81161L56.8625 91.04598L55.83125 91.04598L55.83125 89.95223L56.8625 89.95223L56.8625 87.88973L58.26875 87.04598L58.26875 89.95223L59.675 89.95223L59.675 91.04598L58.26875 91.04598L58.26875 95.88973Q58.26875 96.49911 58.33125 96.67098Q58.409374 96.84286 58.58125 96.95223Q58.753124 97.04598 59.065624 97.04598Q59.3 97.04598 59.675 96.98348ZM66.28438 95.57723L67.7375 95.74911Q67.39375 97.03036 66.45625 97.73348Q65.53438 98.43661 64.09688 98.43661Q62.26875 98.43661 61.20625 97.31161Q60.14375 96.18661 60.14375 94.17098Q60.14375 92.07723 61.221874 90.92098Q62.3 89.76473 64.01875 89.76473Q65.675 89.76473 66.72188 90.90536Q67.78438 92.03036 67.78438 94.07723Q67.78438 94.20223 67.78438 94.45223L61.596874 94.45223Q61.675 95.82723 62.3625 96.56161Q63.065624 97.28036 64.09688 97.28036Q64.87813 97.28036 65.425 96.87411Q65.97188 96.46786 66.28438 95.57723ZM61.675 93.29598L66.3 93.29598Q66.20625 92.24911 65.76875 91.73348Q65.09688 90.92098 64.03438 90.92098Q63.065624 90.92098 62.39375 91.57723Q61.7375 92.21786 61.675 93.29598ZM75.01875 95.20223L76.40938 95.38973Q76.175 96.81161 75.2375 97.62411Q74.31563 98.43661 72.95625 98.43661Q71.25313 98.43661 70.20625 97.32723Q69.175 96.20223 69.175 94.12411Q69.175 92.78036 69.6125 91.78036Q70.06563 90.76473 70.97188 90.26473Q71.89375 89.76473 72.95625 89.76473Q74.31563 89.76473 75.175 90.45223Q76.03438 91.12411 76.26875 92.38973L74.90938 92.59286Q74.70625 91.76473 74.20625 91.34286Q73.72188 90.92098 73.01875 90.92098Q71.95625 90.92098 71.28438 91.68661Q70.62813 92.43661 70.62813 94.09286Q70.62813 95.76473 71.26875 96.53036Q71.90938 97.28036 72.94063 97.28036Q73.76875 97.28036 74.31563 96.78036Q74.87813 96.26473 75.01875 95.20223ZM80.675 96.98348L80.87813 98.23348Q80.28438 98.35848 79.81563 98.35848Q79.05 98.35848 78.62813 98.12411Q78.20625 97.87411 78.03438 97.48348Q77.8625 97.07723 77.8625 95.81161L77.8625 91.04598L76.83125 91.04598L76.83125 89.95223L77.8625 89.95223L77.8625 87.88973L79.26875 87.04598L79.26875 89.95223L80.675 89.95223L80.675 91.04598L79.26875 91.04598L79.26875 95.88973Q79.26875 96.49911 79.33125 96.67098Q79.40938 96.84286 79.58125 96.95223Q79.75313 97.04598 80.06563 97.04598Q80.3 97.04598 80.675 96.98348ZM87.05 98.24911L87.05 97.03036Q86.08125 98.43661 84.40938 98.43661Q83.675 98.43661 83.03438 98.15536Q82.40938 97.87411 82.09688 97.45223Q81.78438 97.01473 81.65938 96.40536Q81.58125 95.98348 81.58125 95.09286L81.58125 89.95223L82.9875 89.95223L82.9875 94.54598Q82.9875 95.65536 83.06563 96.03036Q83.20625 96.59286 83.62813 96.90536Q84.06563 97.21786 84.69063 97.21786Q85.33125 97.21786 85.87813 96.90536Q86.44063 96.57723 86.65938 96.01473Q86.89375 95.45223 86.89375 94.38973L86.89375 89.95223L88.3 89.95223L88.3 98.24911L87.05 98.24911ZM90.59688 98.24911L90.59688 89.95223L91.8625 89.95223L91.8625 91.20223Q92.34688 90.32723 92.75313 90.04598Q93.15938 89.76473 93.65938 89.76473Q94.3625 89.76473 95.09688 90.21786L94.6125 91.51473Q94.09688 91.21786 93.58125 91.21786Q93.12813 91.21786 92.75313 91.49911Q92.39375 91.76473 92.2375 92.26473Q92.00313 93.01473 92.00313 93.90536L92.00313 98.24911L90.59688 98.24911ZM101.28438 95.57723L102.7375 95.74911Q102.39375 97.03036 101.45625 97.73348Q100.53438 98.43661 99.09688 98.43661Q97.26875 98.43661 96.20625 97.31161Q95.14375 96.18661 95.14375 94.17098Q95.14375 92.07723 96.22188 90.92098Q97.3 89.76473 99.01875 89.76473Q100.675 89.76473 101.72188 90.90536Q102.78438 92.03036 102.78438 94.07723Q102.78438 94.20223 102.78438 94.45223L96.59688 94.45223Q96.675 95.82723 97.3625 96.56161Q98.06563 97.28036 99.09688 97.28036Q99.87813 97.28036 100.425 96.87411Q100.97188 96.46786 101.28438 95.57723ZM96.675 93.29598L101.3 93.29598Q101.20625 92.24911 100.76875 91.73348Q100.09688 90.92098 99.03438 90.92098Q98.06563 90.92098 97.39375 91.57723Q96.7375 92.21786 96.675 93.29598ZM115.15938 96.88973Q114.45625 97.67098 113.62813 98.06161Q112.81563 98.45223 111.8625 98.45223Q110.1125 98.45223 109.08125 97.24911Q108.2375 96.28036 108.2375 95.09286Q108.2375 94.03036 108.925 93.17098Q109.6125 92.31161 110.97188 91.67098Q110.19063 90.78036 109.925 90.23348Q109.675 89.67098 109.675 89.15536Q109.675 88.12411 110.4875 87.35848Q111.3 86.59286 112.51875 86.59286Q113.69063 86.59286 114.44063 87.31161Q115.19063 88.03036 115.19063 89.04598Q115.19063 90.67098 113.01875 91.82723L115.08125 94.45223Q115.425 93.76473 115.62813 92.85848L117.08125 93.17098Q116.70625 94.67098 116.06563 95.63973Q116.8625 96.68661 117.8625 97.38973L116.90938 98.51473Q116.06563 97.96786 115.15938 96.88973ZM112.3 90.92098Q113.20625 90.38973 113.47188 89.98348Q113.75313 89.57723 113.75313 89.07723Q113.75313 88.49911 113.37813 88.12411Q113.00313 87.74911 112.45625 87.74911Q111.87813 87.74911 111.50313 88.12411Q111.12813 88.48348 111.12813 89.01473Q111.12813 89.28036 111.25313 89.57723Q111.39375 89.87411 111.675 90.20223L112.3 90.92098ZM114.26875 95.78036L111.69063 92.59286Q110.55 93.26473 110.14375 93.85848Q109.75313 94.43661 109.75313 94.99911Q109.75313 95.70223 110.3 96.45223Q110.8625 97.20223 111.87813 97.20223Q112.51875 97.20223 113.19063 96.81161Q113.8625 96.40536 114.26875 95.78036Z" fill-rule="nonzero"/><path fill="#9e9e9e" d="M26.6125 118.88973L26.6125 120.24911L19.034374 120.24911Q19.01875 119.73348 19.20625 119.26473Q19.4875 118.49911 20.128124 117.74911Q20.76875 116.99911 21.971874 116.01473Q23.83125 114.48348 24.4875 113.59286Q25.14375 112.68661 25.14375 111.88973Q25.14375 111.06161 24.55 110.48348Q23.95625 109.90536 22.9875 109.90536Q21.971874 109.90536 21.3625 110.51473Q20.753124 111.12411 20.753124 112.20223L19.3 112.06161Q19.45625 110.43661 20.425 109.59286Q21.39375 108.74911 23.01875 108.74911Q24.675 108.74911 25.628124 109.67098Q26.596874 110.57723 26.596874 111.92098Q26.596874 112.60848 26.315624 113.28036Q26.034374 113.93661 25.378124 114.67098Q24.721874 115.40536 23.20625 116.68661Q21.940624 117.74911 21.58125 118.13973Q21.221874 118.51473 20.9875 118.88973L26.6125 118.88973ZM28.221874 117.24911L29.690624 117.12411Q29.8625 118.20223 30.45625 118.74911Q31.05 119.28036 31.89375 119.28036Q32.909374 119.28036 33.6125 118.51473Q34.315624 117.74911 34.315624 116.48348Q34.315624 115.28036 33.64375 114.59286Q32.971874 113.88973 31.878124 113.88973Q31.190624 113.88973 30.64375 114.20223Q30.096874 114.51473 29.784374 114.99911L28.471874 114.82723L29.58125 108.95223L35.26875 108.95223L35.26875 110.29598L30.70625 110.29598L30.08125 113.37411Q31.1125 112.65536 32.253124 112.65536Q33.753124 112.65536 34.784374 113.70223Q35.815624 114.73348 35.815624 116.35848Q35.815624 117.92098 34.909374 119.04598Q33.8 120.45223 31.89375 120.45223Q30.33125 120.45223 29.346874 119.57723Q28.3625 118.68661 28.221874 117.24911ZM38.003124 120.24911L38.003124 118.63973L39.6125 118.63973L39.6125 120.24911L38.003124 120.24911ZM41.221874 114.59286Q41.221874 112.56161 41.628124 111.32723Q42.05 110.09286 42.878124 109.42098Q43.70625 108.74911 44.95625 108.74911Q45.878124 108.74911 46.565624 109.12411Q47.26875 109.48348 47.721874 110.18661Q48.175 110.88973 48.425 111.88973Q48.690624 112.88973 48.690624 114.59286Q48.690624 116.60848 48.26875 117.85848Q47.8625 119.09286 47.034374 119.78036Q46.20625 120.45223 44.95625 120.45223Q43.3 120.45223 42.346874 119.24911Q41.221874 117.82723 41.221874 114.59286ZM42.659374 114.59286Q42.659374 117.42098 43.315624 118.35848Q43.9875 119.28036 44.95625 119.28036Q45.925 119.28036 46.58125 118.34286Q47.2375 117.40536 47.2375 114.59286Q47.2375 111.76473 46.58125 110.84286Q45.925 109.90536 44.940624 109.90536Q43.971874 109.90536 43.39375 110.73348Q42.659374 111.78036 42.659374 114.59286ZM50.4875 111.54598Q50.4875 110.31161 51.096874 109.45223Q51.721874 108.59286 52.89375 108.59286Q53.971874 108.59286 54.675 109.37411Q55.378124 110.13973 55.378124 111.62411Q55.378124 113.07723 54.659374 113.87411Q53.95625 114.65536 52.909374 114.65536Q51.8625 114.65536 51.175 113.88973Q50.4875 113.10848 50.4875 111.54598ZM52.925 109.56161Q52.409374 109.56161 52.05 110.01473Q51.70625 110.46786 51.70625 111.68661Q51.70625 112.78036 52.05 113.23348Q52.409374 113.68661 52.925 113.68661Q53.45625 113.68661 53.8 113.23348Q54.159374 112.78036 54.159374 111.57723Q54.159374 110.46786 53.8 110.01473Q53.45625 109.56161 52.925 109.56161ZM52.940624 120.67098L59.20625 108.59286L60.346874 108.59286L54.096874 120.67098L52.940624 120.67098ZM57.89375 117.56161Q57.89375 116.32723 58.503124 115.46786Q59.128124 114.60848 60.3 114.60848Q61.378124 114.60848 62.08125 115.38973Q62.8 116.15536 62.8 117.63973Q62.8 119.09286 62.08125 119.88973Q61.3625 120.67098 60.315624 120.67098Q59.26875 120.67098 58.58125 119.88973Q57.89375 119.10848 57.89375 117.56161ZM60.346874 115.57723Q59.815624 115.57723 59.45625 116.03036Q59.1125 116.48348 59.1125 117.70223Q59.1125 118.79598 59.45625 119.24911Q59.815624 119.70223 60.33125 119.70223Q60.878124 119.70223 61.221874 119.24911Q61.565624 118.79598 61.565624 117.59286Q61.565624 116.48348 61.20625 116.03036Q60.8625 115.57723 60.346874 115.57723Z" fill-rule="nonzero"/><path stroke="#757575" stroke-width="1.0" stroke-linecap="butt" d="M18.55 103.74911L145.23334 103.74911L200.06578 103.74911" fill-rule="nonzero"/><path fill="#9e9e9e" d="M202.06578 103.74911C202.06578 102.64454 201.17035 101.74911 200.06578 101.74911C198.96121 101.74911 198.06578 102.64454 198.06578 103.74911C198.06578 104.85368 198.96121 105.74911 200.06578 105.74911C201.17035 105.74911 202.06578 104.85368 202.06578 103.74911" fill-rule="nonzero"/><path fill="#efefef" d="M19.815624 298.11755L19.815624 286.66443L24.89375 286.66443Q26.425 286.66443 27.221874 286.97693Q28.01875 287.2738 28.4875 288.05505Q28.971874 288.8363 28.971874 289.78943Q28.971874 291.00818 28.175 291.85193Q27.39375 292.68005 25.7375 292.8988Q26.346874 293.19568 26.659374 293.47693Q27.315624 294.0863 27.909374 294.99255L29.909374 298.11755L28.003124 298.11755L26.4875 295.72693Q25.815624 294.69568 25.378124 294.1488Q24.95625 293.60193 24.6125 293.38318Q24.284374 293.16443 23.925 293.0863Q23.675 293.0238 23.08125 293.0238L21.33125 293.0238L21.33125 298.11755L19.815624 298.11755ZM21.33125 291.7113L24.58125 291.7113Q25.628124 291.7113 26.20625 291.50818Q26.8 291.28943 27.096874 290.82068Q27.409374 290.3363 27.409374 289.78943Q27.409374 288.97693 26.815624 288.4613Q26.221874 287.93005 24.95625 287.93005L21.33125 287.93005L21.33125 291.7113ZM37.284374 295.44568L38.7375 295.61755Q38.39375 296.8988 37.45625 297.60193Q36.534374 298.30505 35.096874 298.30505Q33.26875 298.30505 32.20625 297.18005Q31.14375 296.05505 31.14375 294.03943Q31.14375 291.94568 32.221874 290.78943Q33.3 289.63318 35.01875 289.63318Q36.675 289.63318 37.721874 290.7738Q38.784374 291.8988 38.784374 293.94568Q38.784374 294.07068 38.784374 294.32068L32.596874 294.32068Q32.675 295.69568 33.3625 296.43005Q34.065624 297.1488 35.096874 297.1488Q35.878124 297.1488 36.425 296.74255Q36.971874 296.3363 37.284374 295.44568ZM32.675 293.16443L37.3 293.16443Q37.20625 292.11755 36.76875 291.60193Q36.096874 290.78943 35.034374 290.78943Q34.065624 290.78943 33.39375 291.44568Q32.7375 292.0863 32.675 293.16443ZM40.58125 298.11755L40.58125 286.66443L41.9875 286.66443L41.9875 298.11755L40.58125 298.11755ZM44.6125 288.2738L44.6125 286.66443L46.01875 286.66443L46.01875 288.2738L44.6125 288.2738ZM44.6125 298.11755L44.6125 289.82068L46.01875 289.82068L46.01875 298.11755L44.6125 298.11755ZM48.346874 298.80505L49.721874 299.00818Q49.8 299.6488 50.190624 299.93005Q50.721874 300.32068 51.628124 300.32068Q52.596874 300.32068 53.128124 299.93005Q53.659374 299.53943 53.846874 298.8363Q53.95625 298.41443 53.95625 297.0238Q53.034374 298.11755 51.659374 298.11755Q49.940624 298.11755 49.003124 296.88318Q48.065624 295.6488 48.065624 293.91443Q48.065624 292.72693 48.4875 291.72693Q48.925 290.72693 49.7375 290.18005Q50.565624 289.63318 51.659374 289.63318Q53.128124 289.63318 54.08125 290.82068L54.08125 289.82068L55.378124 289.82068L55.378124 296.99255Q55.378124 298.93005 54.9875 299.74255Q54.596874 300.55505 53.7375 301.0238Q52.878124 301.49255 51.628124 301.49255Q50.14375 301.49255 49.221874 300.82068Q48.315624 300.1488 48.346874 298.80505ZM49.51875 293.82068Q49.51875 295.44568 50.159374 296.19568Q50.815624 296.94568 51.784374 296.94568Q52.753124 296.94568 53.409374 296.2113Q54.065624 295.4613 54.065624 293.86755Q54.065624 292.3363 53.39375 291.57068Q52.721874 290.78943 51.76875 290.78943Q50.83125 290.78943 50.175 291.55505Q49.51875 292.32068 49.51875 293.82068ZM57.6125 288.2738L57.6125 286.66443L59.01875 286.66443L59.01875 288.2738L57.6125 288.2738ZM57.6125 298.11755L57.6125 289.82068L59.01875 289.82068L59.01875 298.11755L57.6125 298.11755ZM61.08125 293.9613Q61.08125 291.66443 62.3625 290.55505Q63.440624 289.63318 64.97188 289.63318Q66.69063 289.63318 67.76875 290.75818Q68.8625 291.86755 68.8625 293.85193Q68.8625 295.44568 68.37813 296.36755Q67.89375 297.28943 66.97188 297.80505Q66.06563 298.30505 64.97188 298.30505Q63.2375 298.30505 62.159374 297.19568Q61.08125 296.07068 61.08125 293.9613ZM62.534374 293.9613Q62.534374 295.55505 63.221874 296.35193Q63.925 297.1488 64.97188 297.1488Q66.01875 297.1488 66.70625 296.35193Q67.40938 295.55505 67.40938 293.91443Q67.40938 292.38318 66.70625 291.5863Q66.01875 290.78943 64.97188 290.78943Q63.925 290.78943 63.221874 291.5863Q62.534374 292.36755 62.534374 293.9613ZM76.05 298.11755L76.05 296.8988Q75.08125 298.30505 73.40938 298.30505Q72.675 298.30505 72.03438 298.0238Q71.40938 297.74255 71.09688 297.32068Q70.78438 296.88318 70.65938 296.2738Q70.58125 295.85193 70.58125 294.9613L70.58125 289.82068L71.9875 289.82068L71.9875 294.41443Q71.9875 295.5238 72.06563 295.8988Q72.20625 296.4613 72.62813 296.7738Q73.06563 297.0863 73.69063 297.0863Q74.33125 297.0863 74.87813 296.7738Q75.44063 296.44568 75.65938 295.88318Q75.89375 295.32068 75.89375 294.25818L75.89375 289.82068L77.3 289.82068L77.3 298.11755L76.05 298.11755ZM79.05 295.63318L80.44063 295.41443Q80.55 296.25818 81.08125 296.7113Q81.62813 297.1488 82.58125 297.1488Q83.55 297.1488 84.01875 296.75818Q84.4875 296.35193 84.4875 295.82068Q84.4875 295.35193 84.08125 295.07068Q83.78438 294.88318 82.64375 294.60193Q81.09688 294.2113 80.4875 293.93005Q79.89375 293.63318 79.58125 293.13318Q79.28438 292.63318 79.28438 292.0238Q79.28438 291.4613 79.53438 290.99255Q79.78438 290.5238 80.22188 290.2113Q80.55 289.9613 81.1125 289.80505Q81.69063 289.63318 82.33125 289.63318Q83.31563 289.63318 84.05 289.91443Q84.78438 290.19568 85.12813 290.68005Q85.4875 291.1488 85.62813 291.9613L84.25313 292.1488Q84.15938 291.50818 83.70625 291.1488Q83.25313 290.78943 82.44063 290.78943Q81.47188 290.78943 81.05 291.11755Q80.64375 291.43005 80.64375 291.85193Q80.64375 292.13318 80.81563 292.35193Q80.9875 292.57068 81.34688 292.72693Q81.56563 292.80505 82.59688 293.0863Q84.08125 293.47693 84.675 293.74255Q85.26875 293.99255 85.59688 294.47693Q85.94063 294.9613 85.94063 295.68005Q85.94063 296.38318 85.51875 297.00818Q85.1125 297.61755 84.33125 297.9613Q83.56563 298.30505 82.59688 298.30505Q80.97188 298.30505 80.12813 297.63318Q79.28438 296.9613 79.05 295.63318Z" fill-rule="nonzero"/><path fill="#9e9e9e" d="M26.6125 318.75818L26.6125 320.11755L19.034374 320.11755Q19.01875 319.60193 19.20625 319.13318Q19.4875 318.36755 20.128124 317.61755Q20.76875 316.86755 21.971874 315.88318Q23.83125 314.35193 24.4875 313.4613Q25.14375 312.55505 25.14375 311.75818Q25.14375 310.93005 24.55 310.35193Q23.95625 309.7738 22.9875 309.7738Q21.971874 309.7738 21.3625 310.38318Q20.753124 310.99255 20.753124 312.07068L19.3 311.93005Q19.45625 310.30505 20.425 309.4613Q21.39375 308.61755 23.01875 308.61755Q24.675 308.61755 25.628124 309.53943Q26.596874 310.44568 26.596874 311.78943Q26.596874 312.47693 26.315624 313.1488Q26.034374 313.80505 25.378124 314.53943Q24.721874 315.2738 23.20625 316.55505Q21.940624 317.61755 21.58125 318.00818Q21.221874 318.38318 20.9875 318.75818L26.6125 318.75818ZM28.221874 317.11755L29.690624 316.99255Q29.8625 318.07068 30.45625 318.61755Q31.05 319.1488 31.89375 319.1488Q32.909374 319.1488 33.6125 318.38318Q34.315624 317.61755 34.315624 316.35193Q34.315624 315.1488 33.64375 314.4613Q32.971874 313.75818 31.878124 313.75818Q31.190624 313.75818 30.64375 314.07068Q30.096874 314.38318 29.784374 314.86755L28.471874 314.69568L29.58125 308.82068L35.26875 308.82068L35.26875 310.16443L30.70625 310.16443L30.08125 313.24255Q31.1125 312.5238 32.253124 312.5238Q33.753124 312.5238 34.784374 313.57068Q35.815624 314.60193 35.815624 316.22693Q35.815624 317.78943 34.909374 318.91443Q33.8 320.32068 31.89375 320.32068Q30.33125 320.32068 29.346874 319.44568Q28.3625 318.55505 28.221874 317.11755ZM38.003124 320.11755L38.003124 318.50818L39.6125 318.50818L39.6125 320.11755L38.003124 320.11755ZM41.221874 314.4613Q41.221874 312.43005 41.628124 311.19568Q42.05 309.9613 42.878124 309.28943Q43.70625 308.61755 44.95625 308.61755Q45.878124 308.61755 46.565624 308.99255Q47.26875 309.35193 47.721874 310.05505Q48.175 310.75818 48.425 311.75818Q48.690624 312.75818 48.690624 314.4613Q48.690624 316.47693 48.26875 317.72693Q47.8625 318.9613 47.034374 319.6488Q46.20625 320.32068 44.95625 320.32068Q43.3 320.32068 42.346874 319.11755Q41.221874 317.69568 41.221874 314.4613ZM42.659374 314.4613Q42.659374 317.28943 43.315624 318.22693Q43.9875 319.1488 44.95625 319.1488Q45.925 319.1488 46.58125 318.2113Q47.2375 317.2738 47.2375 314.4613Q47.2375 311.63318 46.58125 310.7113Q45.925 309.7738 44.940624 309.7738Q43.971874 309.7738 43.39375 310.60193Q42.659374 311.6488 42.659374 314.4613ZM50.4875 311.41443Q50.4875 310.18005 51.096874 309.32068Q51.721874 308.4613 52.89375 308.4613Q53.971874 308.4613 54.675 309.24255Q55.378124 310.00818 55.378124 311.49255Q55.378124 312.94568 54.659374 313.74255Q53.95625 314.5238 52.909374 314.5238Q51.8625 314.5238 51.175 313.75818Q50.4875 312.97693 50.4875 311.41443ZM52.925 309.43005Q52.409374 309.43005 52.05 309.88318Q51.70625 310.3363 51.70625 311.55505Q51.70625 312.6488 52.05 313.10193Q52.409374 313.55505 52.925 313.55505Q53.45625 313.55505 53.8 313.10193Q54.159374 312.6488 54.159374 311.44568Q54.159374 310.3363 53.8 309.88318Q53.45625 309.43005 52.925 309.43005ZM52.940624 320.53943L59.20625 308.4613L60.346874 308.4613L54.096874 320.53943L52.940624 320.53943ZM57.89375 317.43005Q57.89375 316.19568 58.503124 315.3363Q59.128124 314.47693 60.3 314.47693Q61.378124 314.47693 62.08125 315.25818Q62.8 316.0238 62.8 317.50818Q62.8 318.9613 62.08125 319.75818Q61.3625 320.53943 60.315624 320.53943Q59.26875 320.53943 58.58125 319.75818Q57.89375 318.97693 57.89375 317.43005ZM60.346874 315.44568Q59.815624 315.44568 59.45625 315.8988Q59.1125 316.35193 59.1125 317.57068Q59.1125 318.66443 59.45625 319.11755Q59.815624 319.57068 60.33125 319.57068Q60.878124 319.57068 61.221874 319.11755Q61.565624 318.66443 61.565624 317.4613Q61.565624 316.35193 61.20625 315.8988Q60.8625 315.44568 60.346874 315.44568Z" fill-rule="nonzero"/><path stroke="#757575" stroke-width="1.0" stroke-linecap="butt" d="M18.55 303.61755L145.23334 303.61755L200.06578 303.61755" fill-rule="nonzero"/><path fill="#9e9e9e" d="M202.06578 303.61755C202.06578 302.513 201.17035 301.61755 200.06578 301.61755C198.96121 301.61755 198.06578 302.513 198.06578 303.61755C198.06578 304.72214 198.96121 305.61755 200.06578 305.61755C201.17035 305.61755 202.06578 304.72214 202.06578 303.61755" fill-rule="nonzero"/><path fill="#efefef" d="M481.71564 98.24911L481.71564 86.79598L489.9969 86.79598L489.9969 88.13973L483.23126 88.13973L483.23126 91.65536L489.575 91.65536L489.575 92.99911L483.23126 92.99911L483.23126 96.88973L490.2625 96.88973L490.2625 98.24911L481.71564 98.24911ZM495.575 96.98348L495.77814 98.23348Q495.1844 98.35848 494.71564 98.35848Q493.95 98.35848 493.52814 98.12411Q493.10626 97.87411 492.9344 97.48348Q492.7625 97.07723 492.7625 95.81161L492.7625 91.04598L491.73126 91.04598L491.73126 89.95223L492.7625 89.95223L492.7625 87.88973L494.16876 87.04598L494.16876 89.95223L495.575 89.95223L495.575 91.04598L494.16876 91.04598L494.16876 95.88973Q494.16876 96.49911 494.23126 96.67098Q494.3094 96.84286 494.48126 96.95223Q494.65314 97.04598 494.96564 97.04598Q495.2 97.04598 495.575 96.98348ZM496.5125 98.24911L496.5125 86.79598L497.91876 86.79598L497.91876 90.90536Q498.90314 89.76473 500.40314 89.76473Q501.325 89.76473 501.9969 90.12411Q502.6844 90.48348 502.96564 91.12411Q503.2625 91.76473 503.2625 92.98348L503.2625 98.24911L501.85626 98.24911L501.85626 92.98348Q501.85626 91.93661 501.40314 91.45223Q500.95 90.96786 500.10626 90.96786Q499.48126 90.96786 498.9344 91.29598Q498.3875 91.62411 498.15314 92.18661Q497.91876 92.73348 497.91876 93.70223L497.91876 98.24911L496.5125 98.24911ZM505.5125 98.24911L505.5125 89.95223L506.77814 89.95223L506.77814 91.12411Q507.6844 89.76473 509.41876 89.76473Q510.16876 89.76473 510.79376 90.03036Q511.41876 90.29598 511.73126 90.73348Q512.04376 91.17098 512.16876 91.78036Q512.2469 92.17098 512.2469 93.13973L512.2469 98.24911L510.84064 98.24911L510.84064 93.20223Q510.84064 92.34286 510.66876 91.92098Q510.5125 91.48348 510.09064 91.23348Q509.6844 90.98348 509.1219 90.98348Q508.21564 90.98348 507.5594 91.56161Q506.91876 92.12411 506.91876 93.71786L506.91876 98.24911L505.5125 98.24911ZM514.5125 88.40536L514.5125 86.79598L515.91876 86.79598L515.91876 88.40536L514.5125 88.40536ZM514.5125 98.24911L514.5125 89.95223L515.91876 89.95223L515.91876 98.24911L514.5125 98.24911ZM523.91876 95.20223L525.3094 95.38973Q525.075 96.81161 524.1375 97.62411Q523.21564 98.43661 521.85626 98.43661Q520.15314 98.43661 519.10626 97.32723Q518.075 96.20223 518.075 94.12411Q518.075 92.78036 518.5125 91.78036Q518.96564 90.76473 519.8719 90.26473Q520.79376 89.76473 521.85626 89.76473Q523.21564 89.76473 524.075 90.45223Q524.9344 91.12411 525.16876 92.38973L523.8094 92.59286Q523.60626 91.76473 523.10626 91.34286Q522.6219 90.92098 521.91876 90.92098Q520.85626 90.92098 520.1844 91.68661Q519.52814 92.43661 519.52814 94.09286Q519.52814 95.76473 520.16876 96.53036Q520.8094 97.28036 521.84064 97.28036Q522.66876 97.28036 523.21564 96.78036Q523.77814 96.26473 523.91876 95.20223ZM536.04376 93.74911L536.04376 92.40536L540.90314 92.40536L540.90314 96.65536Q539.77814 97.54598 538.59064 97.99911Q537.40314 98.45223 536.15314 98.45223Q534.46564 98.45223 533.09064 97.73348Q531.71564 96.99911 531.0125 95.63973Q530.3094 94.26473 530.3094 92.57723Q530.3094 90.90536 530.9969 89.45223Q531.7 87.99911 533.0125 87.29598Q534.325 86.59286 536.04376 86.59286Q537.27814 86.59286 538.27814 86.99911Q539.29376 87.40536 539.85626 88.12411Q540.4344 88.84286 540.73126 89.99911L539.35626 90.37411Q539.10626 89.49911 538.71564 88.99911Q538.34064 88.49911 537.6219 88.20223Q536.91876 87.88973 536.04376 87.88973Q535.0125 87.88973 534.2469 88.21786Q533.4969 88.53036 533.02814 89.04598Q532.5594 89.56161 532.3094 90.17098Q531.8719 91.23348 531.8719 92.48348Q531.8719 94.01473 532.3875 95.04598Q532.91876 96.07723 533.91876 96.57723Q534.9344 97.07723 536.075 97.07723Q537.0594 97.07723 537.9969 96.70223Q538.9344 96.31161 539.41876 95.88973L539.41876 93.74911L536.04376 93.74911ZM542.4969 98.24911L542.4969 89.95223L543.7625 89.95223L543.7625 91.20223Q544.2469 90.32723 544.65314 90.04598Q545.0594 89.76473 545.5594 89.76473Q546.2625 89.76473 546.9969 90.21786L546.5125 91.51473Q545.9969 91.21786 545.48126 91.21786Q545.02814 91.21786 544.65314 91.49911Q544.29376 91.76473 544.1375 92.26473Q543.90314 93.01473 543.90314 93.90536L543.90314 98.24911L542.4969 98.24911ZM546.98126 94.09286Q546.98126 91.79598 548.2625 90.68661Q549.34064 89.76473 550.8719 89.76473Q552.59064 89.76473 553.66876 90.88973Q554.7625 91.99911 554.7625 93.98348Q554.7625 95.57723 554.27814 96.49911Q553.79376 97.42098 552.8719 97.93661Q551.96564 98.43661 550.8719 98.43661Q549.1375 98.43661 548.0594 97.32723Q546.98126 96.20223 546.98126 94.09286ZM548.4344 94.09286Q548.4344 95.68661 549.1219 96.48348Q549.825 97.28036 550.8719 97.28036Q551.91876 97.28036 552.60626 96.48348Q553.3094 95.68661 553.3094 94.04598Q553.3094 92.51473 552.60626 91.71786Q551.91876 90.92098 550.8719 90.92098Q549.825 90.92098 549.1219 91.71786Q548.4344 92.49911 548.4344 94.09286ZM561.95 98.24911L561.95 97.03036Q560.98126 98.43661 559.3094 98.43661Q558.575 98.43661 557.9344 98.15536Q557.3094 97.87411 556.9969 97.45223Q556.6844 97.01473 556.5594 96.40536Q556.48126 95.98348 556.48126 95.09286L556.48126 89.95223L557.8875 89.95223L557.8875 94.54598Q557.8875 95.65536 557.96564 96.03036Q558.10626 96.59286 558.52814 96.90536Q558.96564 97.21786 559.59064 97.21786Q560.23126 97.21786 560.77814 96.90536Q561.34064 96.57723 561.5594 96.01473Q561.79376 95.45223 561.79376 94.38973L561.79376 89.95223L563.2 89.95223L563.2 98.24911L561.95 98.24911ZM565.5125 101.43661L565.5125 89.95223L566.79376 89.95223L566.79376 91.03036Q567.2469 90.38973 567.8094 90.07723Q568.3875 89.76473 569.2 89.76473Q570.2625 89.76473 571.075 90.31161Q571.8875 90.85848 572.29376 91.85848Q572.71564 92.84286 572.71564 94.03036Q572.71564 95.31161 572.2469 96.32723Q571.79376 97.34286 570.91876 97.88973Q570.0594 98.43661 569.09064 98.43661Q568.3875 98.43661 567.825 98.13973Q567.27814 97.84286 566.91876 97.38973L566.91876 101.43661L565.5125 101.43661ZM566.77814 94.13973Q566.77814 95.74911 567.41876 96.51473Q568.075 97.28036 568.9969 97.28036Q569.9344 97.28036 570.60626 96.48348Q571.27814 95.68661 571.27814 94.03036Q571.27814 92.43661 570.6219 91.65536Q569.96564 90.85848 569.0594 90.85848Q568.16876 90.85848 567.46564 91.70223Q566.77814 92.54598 566.77814 94.13973ZM573.95 95.76473L575.34064 95.54598Q575.45 96.38973 575.98126 96.84286Q576.52814 97.28036 577.48126 97.28036Q578.45 97.28036 578.91876 96.88973Q579.3875 96.48348 579.3875 95.95223Q579.3875 95.48348 578.98126 95.20223Q578.6844 95.01473 577.54376 94.73348Q575.9969 94.34286 575.3875 94.06161Q574.79376 93.76473 574.48126 93.26473Q574.1844 92.76473 574.1844 92.15536Q574.1844 91.59286 574.4344 91.12411Q574.6844 90.65536 575.1219 90.34286Q575.45 90.09286 576.0125 89.93661Q576.59064 89.76473 577.23126 89.76473Q578.21564 89.76473 578.95 90.04598Q579.6844 90.32723 580.02814 90.81161Q580.3875 91.28036 580.52814 92.09286L579.15314 92.28036Q579.0594 91.63973 578.60626 91.28036Q578.15314 90.92098 577.34064 90.92098Q576.3719 90.92098 575.95 91.24911Q575.54376 91.56161 575.54376 91.98348Q575.54376 92.26473 575.71564 92.48348Q575.8875 92.70223 576.2469 92.85848Q576.46564 92.93661 577.4969 93.21786Q578.98126 93.60848 579.575 93.87411Q580.16876 94.12411 580.4969 94.60848Q580.84064 95.09286 580.84064 95.81161Q580.84064 96.51473 580.41876 97.13973Q580.0125 97.74911 579.23126 98.09286Q578.46564 98.43661 577.4969 98.43661Q575.8719 98.43661 575.02814 97.76473Q574.1844 97.09286 573.95 95.76473Z" fill-rule="nonzero"/><path fill="#9e9e9e" d="M544.5125 118.88973L544.5125 120.24911L536.9344 120.24911Q536.91876 119.73348 537.10626 119.26473Q537.3875 118.49911 538.02814 117.74911Q538.66876 116.99911 539.8719 116.01473Q541.73126 114.48348 542.3875 113.59286Q543.04376 112.68661 543.04376 111.88973Q543.04376 111.06161 542.45 110.48348Q541.85626 109.90536 540.8875 109.90536Q539.8719 109.90536 539.2625 110.51473Q538.65314 111.12411 538.65314 112.20223L537.2 112.06161Q537.35626 110.43661 538.325 109.59286Q539.29376 108.74911 540.91876 108.74911Q542.575 108.74911 543.52814 109.67098Q544.4969 110.57723 544.4969 111.92098Q544.4969 112.60848 544.21564 113.28036Q543.9344 113.93661 543.27814 114.67098Q542.6219 115.40536 541.10626 116.68661Q539.84064 117.74911 539.48126 118.13973Q539.1219 118.51473 538.8875 118.88973L544.5125 118.88973ZM546.1219 117.24911L547.59064 117.12411Q547.7625 118.20223 548.35626 118.74911Q548.95 119.28036 549.79376 119.28036Q550.8094 119.28036 551.5125 118.51473Q552.21564 117.74911 552.21564 116.48348Q552.21564 115.28036 551.54376 114.59286Q550.8719 113.88973 549.77814 113.88973Q549.09064 113.88973 548.54376 114.20223Q547.9969 114.51473 547.6844 114.99911L546.3719 114.82723L547.48126 108.95223L553.16876 108.95223L553.16876 110.29598L548.60626 110.29598L547.98126 113.37411Q549.0125 112.65536 550.15314 112.65536Q551.65314 112.65536 552.6844 113.70223Q553.71564 114.73348 553.71564 116.35848Q553.71564 117.92098 552.8094 119.04598Q551.7 120.45223 549.79376 120.45223Q548.23126 120.45223 547.2469 119.57723Q546.2625 118.68661 546.1219 117.24911ZM555.90314 120.24911L555.90314 118.63973L557.5125 118.63973L557.5125 120.24911L555.90314 120.24911ZM559.1219 114.59286Q559.1219 112.56161 559.52814 111.32723Q559.95 110.09286 560.77814 109.42098Q561.60626 108.74911 562.85626 108.74911Q563.77814 108.74911 564.46564 109.12411Q565.16876 109.48348 565.6219 110.18661Q566.075 110.88973 566.325 111.88973Q566.59064 112.88973 566.59064 114.59286Q566.59064 116.60848 566.16876 117.85848Q565.7625 119.09286 564.9344 119.78036Q564.10626 120.45223 562.85626 120.45223Q561.2 120.45223 560.2469 119.24911Q559.1219 117.82723 559.1219 114.59286ZM560.5594 114.59286Q560.5594 117.42098 561.21564 118.35848Q561.8875 119.28036 562.85626 119.28036Q563.825 119.28036 564.48126 118.34286Q565.1375 117.40536 565.1375 114.59286Q565.1375 111.76473 564.48126 110.84286Q563.825 109.90536 562.84064 109.90536Q561.8719 109.90536 561.29376 110.73348Q560.5594 111.78036 560.5594 114.59286ZM568.3875 111.54598Q568.3875 110.31161 568.9969 109.45223Q569.6219 108.59286 570.79376 108.59286Q571.8719 108.59286 572.575 109.37411Q573.27814 110.13973 573.27814 111.62411Q573.27814 113.07723 572.5594 113.87411Q571.85626 114.65536 570.8094 114.65536Q569.7625 114.65536 569.075 113.88973Q568.3875 113.10848 568.3875 111.54598ZM570.825 109.56161Q570.3094 109.56161 569.95 110.01473Q569.60626 110.46786 569.60626 111.68661Q569.60626 112.78036 569.95 113.23348Q570.3094 113.68661 570.825 113.68661Q571.35626 113.68661 571.7 113.23348Q572.0594 112.78036 572.0594 111.57723Q572.0594 110.46786 571.7 110.01473Q571.35626 109.56161 570.825 109.56161ZM570.84064 120.67098L577.10626 108.59286L578.2469 108.59286L571.9969 120.67098L570.84064 120.67098ZM575.79376 117.56161Q575.79376 116.32723 576.40314 115.46786Q577.02814 114.60848 578.2 114.60848Q579.27814 114.60848 579.98126 115.38973Q580.7 116.15536 580.7 117.63973Q580.7 119.09286 579.98126 119.88973Q579.2625 120.67098 578.21564 120.67098Q577.16876 120.67098 576.48126 119.88973Q575.79376 119.10848 575.79376 117.56161ZM578.2469 115.57723Q577.71564 115.57723 577.35626 116.03036Q577.0125 116.48348 577.0125 117.70223Q577.0125 118.79598 577.35626 119.24911Q577.71564 119.70223 578.23126 119.70223Q578.77814 119.70223 579.1219 119.24911Q579.46564 118.79598 579.46564 117.59286Q579.46564 116.48348 579.10626 116.03036Q578.7625 115.57723 578.2469 115.57723Z" fill-rule="nonzero"/><path stroke="#757575" stroke-width="1.0" stroke-linecap="butt" d="M581.45 103.74911L454.76666 103.74911L399.93423 103.74911" fill-rule="nonzero"/><path fill="#9e9e9e" d="M401.93423 103.74911C401.93423 102.64454 401.0388 101.74911 399.93423 101.74911C398.82965 101.74911 397.93423 102.64454 397.93423 103.74911C397.93423 104.85368 398.82965 105.74911 399.93423 105.74911C401.0388 105.74911 401.93423 104.85368 401.93423 103.74911" fill-rule="nonzero"/><path fill="#efefef" d="M495.85626 294.10193L497.3719 294.47693Q496.90314 296.35193 495.65314 297.3363Q494.41876 298.32068 492.6375 298.32068Q490.77814 298.32068 489.6219 297.57068Q488.46564 296.80505 487.85626 295.38318Q487.2469 293.94568 487.2469 292.30505Q487.2469 290.50818 487.9344 289.18005Q488.6219 287.85193 489.8719 287.16443Q491.1375 286.4613 492.65314 286.4613Q494.3719 286.4613 495.54376 287.3363Q496.71564 288.2113 497.1844 289.80505L495.6844 290.1488Q495.29376 288.8988 494.52814 288.3363Q493.77814 287.75818 492.6219 287.75818Q491.3094 287.75818 490.41876 288.3988Q489.52814 289.0238 489.16876 290.10193Q488.8094 291.16443 488.8094 292.28943Q488.8094 293.75818 489.23126 294.85193Q489.66876 295.93005 490.5594 296.47693Q491.46564 297.00818 492.5125 297.00818Q493.77814 297.00818 494.65314 296.2738Q495.54376 295.53943 495.85626 294.10193ZM504.95 298.11755L504.95 296.8988Q503.98126 298.30505 502.3094 298.30505Q501.575 298.30505 500.9344 298.0238Q500.3094 297.74255 499.9969 297.32068Q499.6844 296.88318 499.5594 296.2738Q499.48126 295.85193 499.48126 294.9613L499.48126 289.82068L500.8875 289.82068L500.8875 294.41443Q500.8875 295.5238 500.96564 295.8988Q501.10626 296.4613 501.52814 296.7738Q501.96564 297.0863 502.59064 297.0863Q503.23126 297.0863 503.77814 296.7738Q504.34064 296.44568 504.5594 295.88318Q504.79376 295.32068 504.79376 294.25818L504.79376 289.82068L506.2 289.82068L506.2 298.11755L504.95 298.11755ZM508.48126 298.11755L508.48126 286.66443L509.8875 286.66443L509.8875 298.11755L508.48126 298.11755ZM515.575 296.85193L515.77814 298.10193Q515.1844 298.22693 514.71564 298.22693Q513.95 298.22693 513.52814 297.99255Q513.10626 297.74255 512.9344 297.35193Q512.7625 296.94568 512.7625 295.68005L512.7625 290.91443L511.73126 290.91443L511.73126 289.82068L512.7625 289.82068L512.7625 287.75818L514.16876 286.91443L514.16876 289.82068L515.575 289.82068L515.575 290.91443L514.16876 290.91443L514.16876 295.75818Q514.16876 296.36755 514.23126 296.53943Q514.3094 296.7113 514.48126 296.82068Q514.65314 296.91443 514.96564 296.91443Q515.2 296.91443 515.575 296.85193ZM521.95 298.11755L521.95 296.8988Q520.98126 298.30505 519.3094 298.30505Q518.575 298.30505 517.9344 298.0238Q517.3094 297.74255 516.9969 297.32068Q516.6844 296.88318 516.5594 296.2738Q516.48126 295.85193 516.48126 294.9613L516.48126 289.82068L517.8875 289.82068L517.8875 294.41443Q517.8875 295.5238 517.96564 295.8988Q518.10626 296.4613 518.52814 296.7738Q518.96564 297.0863 519.59064 297.0863Q520.23126 297.0863 520.77814 296.7738Q521.34064 296.44568 521.5594 295.88318Q521.79376 295.32068 521.79376 294.25818L521.79376 289.82068L523.2 289.82068L523.2 298.11755L521.95 298.11755ZM525.4969 298.11755L525.4969 289.82068L526.7625 289.82068L526.7625 291.07068Q527.2469 290.19568 527.65314 289.91443Q528.0594 289.63318 528.5594 289.63318Q529.2625 289.63318 529.9969 290.0863L529.5125 291.38318Q528.9969 291.0863 528.48126 291.0863Q528.02814 291.0863 527.65314 291.36755Q527.29376 291.63318 527.1375 292.13318Q526.90314 292.88318 526.90314 293.7738L526.90314 298.11755L525.4969 298.11755ZM535.91876 297.0863Q535.1375 297.75818 534.41876 298.03943Q533.7 298.30505 532.8719 298.30505Q531.4969 298.30505 530.7625 297.63318Q530.02814 296.9613 530.02814 295.93005Q530.02814 295.32068 530.3094 294.82068Q530.59064 294.30505 531.02814 294.00818Q531.48126 293.69568 532.04376 293.53943Q532.46564 293.43005 533.29376 293.3363Q534.9969 293.13318 535.8094 292.85193Q535.8094 292.55505 535.8094 292.47693Q535.8094 291.61755 535.41876 291.2738Q534.8719 290.78943 533.8094 290.78943Q532.825 290.78943 532.34064 291.1488Q531.8719 291.49255 531.65314 292.36755L530.27814 292.18005Q530.46564 291.30505 530.8875 290.75818Q531.325 290.2113 532.1375 289.93005Q532.95 289.63318 534.0125 289.63318Q535.075 289.63318 535.73126 289.88318Q536.40314 290.13318 536.71564 290.50818Q537.02814 290.88318 537.15314 291.4613Q537.23126 291.82068 537.23126 292.75818L537.23126 294.63318Q537.23126 296.60193 537.3094 297.11755Q537.40314 297.63318 537.66876 298.11755L536.2 298.11755Q535.98126 297.68005 535.91876 297.0863ZM535.8094 293.94568Q535.04376 294.25818 533.5125 294.47693Q532.6375 294.60193 532.27814 294.75818Q531.91876 294.91443 531.71564 295.22693Q531.52814 295.5238 531.52814 295.88318Q531.52814 296.44568 531.95 296.82068Q532.3875 297.19568 533.2 297.19568Q534.0125 297.19568 534.6375 296.85193Q535.27814 296.49255 535.575 295.86755Q535.8094 295.3988 535.8094 294.4613L535.8094 293.94568ZM539.48126 298.11755L539.48126 286.66443L540.8875 286.66443L540.8875 298.11755L539.48126 298.11755ZM546.41876 298.11755L550.825 286.66443L552.46564 286.66443L557.15314 298.11755L555.41876 298.11755L554.09064 294.6488L549.29376 294.6488L548.04376 298.11755L546.41876 298.11755ZM549.73126 293.41443L553.6219 293.41443L552.41876 290.24255Q551.8719 288.78943 551.60626 287.86755Q551.3875 288.9613 550.9969 290.05505L549.73126 293.41443ZM563.91876 295.07068L565.3094 295.25818Q565.075 296.68005 564.1375 297.49255Q563.21564 298.30505 561.85626 298.30505Q560.15314 298.30505 559.10626 297.19568Q558.075 296.07068 558.075 293.99255Q558.075 292.6488 558.5125 291.6488Q558.96564 290.63318 559.8719 290.13318Q560.79376 289.63318 561.85626 289.63318Q563.21564 289.63318 564.075 290.32068Q564.9344 290.99255 565.16876 292.25818L563.8094 292.4613Q563.60626 291.63318 563.10626 291.2113Q562.6219 290.78943 561.91876 290.78943Q560.85626 290.78943 560.1844 291.55505Q559.52814 292.30505 559.52814 293.9613Q559.52814 295.63318 560.16876 296.3988Q560.8094 297.1488 561.84064 297.1488Q562.66876 297.1488 563.21564 296.6488Q563.77814 296.13318 563.91876 295.07068ZM569.575 296.85193L569.77814 298.10193Q569.1844 298.22693 568.71564 298.22693Q567.95 298.22693 567.52814 297.99255Q567.10626 297.74255 566.9344 297.35193Q566.7625 296.94568 566.7625 295.68005L566.7625 290.91443L565.73126 290.91443L565.73126 289.82068L566.7625 289.82068L566.7625 287.75818L568.16876 286.91443L568.16876 289.82068L569.575 289.82068L569.575 290.91443L568.16876 290.91443L568.16876 295.75818Q568.16876 296.36755 568.23126 296.53943Q568.3094 296.7113 568.48126 296.82068Q568.65314 296.91443 568.96564 296.91443Q569.2 296.91443 569.575 296.85193ZM569.95 295.63318L571.34064 295.41443Q571.45 296.25818 571.98126 296.7113Q572.52814 297.1488 573.48126 297.1488Q574.45 297.1488 574.91876 296.75818Q575.3875 296.35193 575.3875 295.82068Q575.3875 295.35193 574.98126 295.07068Q574.6844 294.88318 573.54376 294.60193Q571.9969 294.2113 571.3875 293.93005Q570.79376 293.63318 570.48126 293.13318Q570.1844 292.63318 570.1844 292.0238Q570.1844 291.4613 570.4344 290.99255Q570.6844 290.5238 571.1219 290.2113Q571.45 289.9613 572.0125 289.80505Q572.59064 289.63318 573.23126 289.63318Q574.21564 289.63318 574.95 289.91443Q575.6844 290.19568 576.02814 290.68005Q576.3875 291.1488 576.52814 291.9613L575.15314 292.1488Q575.0594 291.50818 574.60626 291.1488Q574.15314 290.78943 573.34064 290.78943Q572.3719 290.78943 571.95 291.11755Q571.54376 291.43005 571.54376 291.85193Q571.54376 292.13318 571.71564 292.35193Q571.8875 292.57068 572.2469 292.72693Q572.46564 292.80505 573.4969 293.0863Q574.98126 293.47693 575.575 293.74255Q576.16876 293.99255 576.4969 294.47693Q576.84064 294.9613 576.84064 295.68005Q576.84064 296.38318 576.41876 297.00818Q576.0125 297.61755 575.23126 297.9613Q574.46564 298.30505 573.4969 298.30505Q571.8719 298.30505 571.02814 297.63318Q570.1844 296.9613 569.95 295.63318ZM578.90314 298.11755L578.90314 296.50818L580.5125 296.50818L580.5125 298.11755L578.90314 298.11755Z" fill-rule="nonzero"/><path fill="#9e9e9e" d="M544.5125 318.75818L544.5125 320.11755L536.9344 320.11755Q536.91876 319.60193 537.10626 319.13318Q537.3875 318.36755 538.02814 317.61755Q538.66876 316.86755 539.8719 315.88318Q541.73126 314.35193 542.3875 313.4613Q543.04376 312.55505 543.04376 311.75818Q543.04376 310.93005 542.45 310.35193Q541.85626 309.7738 540.8875 309.7738Q539.8719 309.7738 539.2625 310.38318Q538.65314 310.99255 538.65314 312.07068L537.2 311.93005Q537.35626 310.30505 538.325 309.4613Q539.29376 308.61755 540.91876 308.61755Q542.575 308.61755 543.52814 309.53943Q544.4969 310.44568 544.4969 311.78943Q544.4969 312.47693 544.21564 313.1488Q543.9344 313.80505 543.27814 314.53943Q542.6219 315.2738 541.10626 316.55505Q539.84064 317.61755 539.48126 318.00818Q539.1219 318.38318 538.8875 318.75818L544.5125 318.75818ZM546.1219 317.11755L547.59064 316.99255Q547.7625 318.07068 548.35626 318.61755Q548.95 319.1488 549.79376 319.1488Q550.8094 319.1488 551.5125 318.38318Q552.21564 317.61755 552.21564 316.35193Q552.21564 315.1488 551.54376 314.4613Q550.8719 313.75818 549.77814 313.75818Q549.09064 313.75818 548.54376 314.07068Q547.9969 314.38318 547.6844 314.86755L546.3719 314.69568L547.48126 308.82068L553.16876 308.82068L553.16876 310.16443L548.60626 310.16443L547.98126 313.24255Q549.0125 312.5238 550.15314 312.5238Q551.65314 312.5238 552.6844 313.57068Q553.71564 314.60193 553.71564 316.22693Q553.71564 317.78943 552.8094 318.91443Q551.7 320.32068 549.79376 320.32068Q548.23126 320.32068 547.2469 319.44568Q546.2625 318.55505 546.1219 317.11755ZM555.90314 320.11755L555.90314 318.50818L557.5125 318.50818L557.5125 320.11755L555.90314 320.11755ZM559.1219 314.4613Q559.1219 312.43005 559.52814 311.19568Q559.95 309.9613 560.77814 309.28943Q561.60626 308.61755 562.85626 308.61755Q563.77814 308.61755 564.46564 308.99255Q565.16876 309.35193 565.6219 310.05505Q566.075 310.75818 566.325 311.75818Q566.59064 312.75818 566.59064 314.4613Q566.59064 316.47693 566.16876 317.72693Q565.7625 318.9613 564.9344 319.6488Q564.10626 320.32068 562.85626 320.32068Q561.2 320.32068 560.2469 319.11755Q559.1219 317.69568 559.1219 314.4613ZM560.5594 314.4613Q560.5594 317.28943 561.21564 318.22693Q561.8875 319.1488 562.85626 319.1488Q563.825 319.1488 564.48126 318.2113Q565.1375 317.2738 565.1375 314.4613Q565.1375 311.63318 564.48126 310.7113Q563.825 309.7738 562.84064 309.7738Q561.8719 309.7738 561.29376 310.60193Q560.5594 311.6488 560.5594 314.4613ZM568.3875 311.41443Q568.3875 310.18005 568.9969 309.32068Q569.6219 308.4613 570.79376 308.4613Q571.8719 308.4613 572.575 309.24255Q573.27814 310.00818 573.27814 311.49255Q573.27814 312.94568 572.5594 313.74255Q571.85626 314.5238 570.8094 314.5238Q569.7625 314.5238 569.075 313.75818Q568.3875 312.97693 568.3875 311.41443ZM570.825 309.43005Q570.3094 309.43005 569.95 309.88318Q569.60626 310.3363 569.60626 311.55505Q569.60626 312.6488 569.95 313.10193Q570.3094 313.55505 570.825 313.55505Q571.35626 313.55505 571.7 313.10193Q572.0594 312.6488 572.0594 311.44568Q572.0594 310.3363 571.7 309.88318Q571.35626 309.43005 570.825 309.43005ZM570.84064 320.53943L577.10626 308.4613L578.2469 308.4613L571.9969 320.53943L570.84064 320.53943ZM575.79376 317.43005Q575.79376 316.19568 576.40314 315.3363Q577.02814 314.47693 578.2 314.47693Q579.27814 314.47693 579.98126 315.25818Q580.7 316.0238 580.7 317.50818Q580.7 318.9613 579.98126 319.75818Q579.2625 320.53943 578.21564 320.53943Q577.16876 320.53943 576.48126 319.75818Q575.79376 318.97693 575.79376 317.43005ZM578.2469 315.44568Q577.71564 315.44568 577.35626 315.8988Q577.0125 316.35193 577.0125 317.57068Q577.0125 318.66443 577.35626 319.11755Q577.71564 319.57068 578.23126 319.57068Q578.77814 319.57068 579.1219 319.11755Q579.46564 318.66443 579.46564 317.4613Q579.46564 316.35193 579.10626 315.8988Q578.7625 315.44568 578.2469 315.44568Z" fill-rule="nonzero"/><path stroke="#757575" stroke-width="1.0" stroke-linecap="butt" d="M581.45 303.61755L454.76666 303.61755L399.93423 303.61755" fill-rule="nonzero"/><path fill="#9e9e9e" d="M401.93423 303.61755C401.93423 302.513 401.0388 301.61755 399.93423 301.61755C398.82965 301.61755 397.93423 302.513 397.93423 303.61755C397.93423 304.72214 398.82965 305.61755 399.93423 305.61755C401.0388 305.61755 401.93423 304.72214 401.93423 303.61755" fill-rule="nonzero"/><path fill="#f3f3f3" d="M271.26562 32.534374L273.15625 33.003124Q272.5625 35.346874 271.01562 36.58125Q269.46875 37.8 267.21875 37.8Q264.90625 37.8 263.45312 36.8625Q262.01562 35.909374 261.25 34.128124Q260.5 32.33125 260.5 30.284374Q260.5 28.05 261.34375 26.39375Q262.20312 24.721874 263.78125 23.8625Q265.35938 22.9875 267.25 22.9875Q269.40625 22.9875 270.85938 24.08125Q272.32812 25.175 272.90625 27.159374L271.04688 27.596874Q270.54688 26.034374 269.59375 25.33125Q268.65625 24.6125 267.21875 24.6125Q265.5625 24.6125 264.45312 25.409374Q263.34375 26.190624 262.89062 27.534374Q262.45312 28.8625 262.45312 30.26875Q262.45312 32.096874 262.98438 33.471874Q263.51562 34.83125 264.64062 35.503124Q265.76562 36.175 267.0625 36.175Q268.65625 36.175 269.76562 35.253124Q270.875 34.33125 271.26562 32.534374ZM281.59375 36.26875Q280.60938 37.096874 279.70312 37.440624Q278.79688 37.784374 277.76562 37.784374Q276.0625 37.784374 275.14062 36.95625Q274.21875 36.1125 274.21875 34.815624Q274.21875 34.05 274.5625 33.425Q274.92188 32.8 275.48438 32.425Q276.04688 32.034374 276.75 31.83125Q277.26562 31.70625 278.3125 31.565624Q280.4375 31.315624 281.4375 30.971874Q281.45312 30.6125 281.45312 30.503124Q281.45312 29.440624 280.95312 28.9875Q280.28125 28.39375 278.95312 28.39375Q277.70312 28.39375 277.10938 28.83125Q276.53125 29.26875 276.25 30.378124L274.53125 30.14375Q274.76562 29.034374 275.29688 28.3625Q275.82812 27.675 276.84375 27.315624Q277.85938 26.940624 279.20312 26.940624Q280.53125 26.940624 281.35938 27.253124Q282.1875 27.565624 282.57812 28.05Q282.96875 28.51875 283.125 29.2375Q283.21875 29.690624 283.21875 30.8625L283.21875 33.20625Q283.21875 35.659374 283.32812 36.315624Q283.4375 36.95625 283.78125 37.55L281.9375 37.55Q281.67188 37.003124 281.59375 36.26875ZM281.4375 32.346874Q280.48438 32.7375 278.5625 33.003124Q277.48438 33.159374 277.03125 33.3625Q276.59375 33.55 276.34375 33.925Q276.09375 34.3 276.09375 34.76875Q276.09375 35.471874 276.625 35.940624Q277.15625 36.409374 278.1875 36.409374Q279.20312 36.409374 279.98438 35.971874Q280.78125 35.51875 281.15625 34.753124Q281.4375 34.14375 281.4375 32.9875L281.4375 32.346874ZM289.65625 35.971874L289.90625 37.534374Q289.17188 37.690624 288.57812 37.690624Q287.625 37.690624 287.09375 37.39375Q286.57812 37.08125 286.35938 36.596874Q286.14062 36.096874 286.14062 34.51875L286.14062 28.55L284.85938 28.55L284.85938 27.175L286.14062 27.175L286.14062 24.6125L287.89062 23.55L287.89062 27.175L289.65625 27.175L289.65625 28.55L287.89062 28.55L287.89062 34.6125Q287.89062 35.3625 287.98438 35.58125Q288.07812 35.784374 288.28125 35.925Q288.5 36.05 288.89062 36.05Q289.17188 36.05 289.65625 35.971874ZM298.92188 34.20625L300.73438 34.440624Q300.3125 36.01875 299.14062 36.909374Q297.98438 37.784374 296.17188 37.784374Q293.90625 37.784374 292.5625 36.39375Q291.23438 34.9875 291.23438 32.45625Q291.23438 29.83125 292.57812 28.39375Q293.92188 26.940624 296.07812 26.940624Q298.15625 26.940624 299.46875 28.3625Q300.79688 29.76875 300.79688 32.346874Q300.79688 32.503124 300.78125 32.815624L293.04688 32.815624Q293.14062 34.51875 294.01562 35.425Q294.89062 36.33125 296.1875 36.33125Q297.15625 36.33125 297.82812 35.83125Q298.51562 35.315624 298.92188 34.20625ZM293.14062 31.3625L298.9375 31.3625Q298.82812 30.065624 298.28125 29.409374Q297.4375 28.39375 296.09375 28.39375Q294.89062 28.39375 294.0625 29.20625Q293.23438 30.003124 293.14062 31.3625ZM302.5 38.409374L304.20312 38.659374Q304.3125 39.45625 304.79688 39.815624Q305.45312 40.3 306.59375 40.3Q307.8125 40.3 308.46875 39.815624Q309.14062 39.33125 309.375 38.45625Q309.51562 37.909374 309.5 36.190624Q308.34375 37.55 306.625 37.55Q304.48438 37.55 303.3125 36.003124Q302.14062 34.45625 302.14062 32.3Q302.14062 30.815624 302.67188 29.565624Q303.21875 28.315624 304.23438 27.628124Q305.26562 26.940624 306.64062 26.940624Q308.46875 26.940624 309.67188 28.425L309.67188 27.175L311.28125 27.175L311.28125 36.14375Q311.28125 38.565624 310.78125 39.565624Q310.29688 40.58125 309.21875 41.159374Q308.15625 41.753124 306.59375 41.753124Q304.75 41.753124 303.59375 40.925Q302.45312 40.096874 302.5 38.409374ZM303.95312 32.175Q303.95312 34.221874 304.76562 35.159374Q305.57812 36.096874 306.79688 36.096874Q308.0 36.096874 308.8125 35.159374Q309.64062 34.221874 309.64062 32.2375Q309.64062 30.33125 308.79688 29.3625Q307.95312 28.39375 306.76562 28.39375Q305.59375 28.39375 304.76562 29.346874Q303.95312 30.3 303.95312 32.175ZM313.17188 32.3625Q313.17188 29.4875 314.76562 28.096874Q316.10938 26.940624 318.03125 26.940624Q320.17188 26.940624 321.51562 28.346874Q322.875 29.753124 322.875 32.221874Q322.875 34.221874 322.28125 35.378124Q321.6875 36.51875 320.53125 37.159374Q319.39062 37.784374 318.03125 37.784374Q315.84375 37.784374 314.5 36.39375Q313.17188 34.9875 313.17188 32.3625ZM314.96875 32.3625Q314.96875 34.3625 315.82812 35.346874Q316.70312 36.33125 318.03125 36.33125Q319.34375 36.33125 320.20312 35.346874Q321.07812 34.346874 321.07812 32.3Q321.07812 30.378124 320.20312 29.39375Q319.32812 28.39375 318.03125 28.39375Q316.70312 28.39375 315.82812 29.39375Q314.96875 30.378124 314.96875 32.3625ZM324.79688 37.55L324.79688 27.175L326.375 27.175L326.375 28.753124Q326.98438 27.64375 327.5 27.3Q328.01562 26.940624 328.625 26.940624Q329.51562 26.940624 330.4375 27.503124L329.82812 29.14375Q329.1875 28.753124 328.54688 28.753124Q327.96875 28.753124 327.5 29.1125Q327.04688 29.45625 326.84375 30.065624Q326.5625 31.003124 326.5625 32.1125L326.5625 37.55L324.79688 37.55ZM331.73438 41.55L331.54688 39.89375Q332.125 40.05 332.54688 40.05Q333.14062 40.05 333.48438 39.846874Q333.84375 39.659374 334.0625 39.315624Q334.23438 39.05 334.60938 38.003124Q334.65625 37.846874 334.76562 37.565624L330.82812 27.175L332.71875 27.175L334.875 33.190624Q335.29688 34.33125 335.625 35.58125Q335.9375 34.378124 336.34375 33.221874L338.5625 27.175L340.32812 27.175L336.375 37.721874Q335.75 39.440624 335.39062 40.08125Q334.92188 40.95625 334.3125 41.346874Q333.71875 41.753124 332.875 41.753124Q332.35938 41.753124 331.73438 41.55Z" fill-rule="nonzero"/></svg>