<svg version="1.1" viewBox="0.0 0.0 600.0 371.0" fill="none" stroke="none" stroke-linecap="square" stroke-miterlimit="10" width="600" height="371" xmlns:xlink="http://www.w3.org/1999/xlink" xmlns="http://www.w3.org/2000/svg"><path fill="#ffffff" fill-opacity="0.0" d="M0 0L600.0 0L600.0 371.0L0 371.0L0 0Z" fill-rule="nonzero"/><path fill="#304388" d="M300.0 54.916668C308.99393 54.916668 317.96933 55.732277 326.81595 57.353477L306.70398 167.10088C304.49234 166.69557 302.24847 166.49167 300.0 166.49167Z" fill-rule="nonzero"/><path fill="#533990" d="M326.81595 57.353477C338.6177 59.51623 350.1145 63.098778 361.05576 68.02303L315.26395 169.76826C312.52863 168.5372 309.65442 167.64156 306.70398 167.10088Z" fill-rule="nonzero"/><path fill="#cf4366" d="M361.05576 68.02303C404.19244 87.43729 435.5249 126.20942 445.4532 172.46002C455.38144 218.71062 442.72195 266.92618 411.35345 302.3339L327.83835 228.34598C335.68048 219.49405 338.84537 207.44016 336.36328 195.8775C333.88123 184.31485 326.04813 174.62183 315.26395 169.76826Z" fill-rule="nonzero"/><path fill="#e5a345" d="M182.89334 111.93612C211.09212 75.94305 254.27614 54.916668 300.0 54.916668L300.0 166.49167C288.56903 166.49167 277.77304 171.74826 270.72333 180.74654Z" fill-rule="nonzero"/><path fill="#df8d43" d="M282.06815 351.36533C228.77484 344.89435 183.10178 310.2121 162.55753 260.61386C142.01326 211.01564 149.78494 154.19586 182.89334 111.93612L270.72333 180.74654C262.44623 191.31146 260.50333 205.5164 265.63937 217.91597C270.77545 230.31552 282.1937 238.98608 295.51703 240.60384Z" fill-rule="nonzero"/><path fill="#d8753e" d="M411.35345 302.3339C378.93323 338.92877 330.60196 357.2584 282.06815 351.36533L295.51703 240.60384C307.65048 242.0771 319.7333 237.49469 327.83835 228.34598Z" fill-rule="nonzero"/><path fill="#ffffff" d="M384.3304 187.03664L384.3304 188.55226L375.8148 188.55226Q375.79916 187.97414 376.0023 187.45851Q376.3304 186.58351 377.03354 185.73976Q377.7523 184.89601 379.11166 183.78664Q381.2054 182.06789 381.9398 181.06789Q382.6898 180.05226 382.6898 179.16164Q382.6898 178.20851 382.0179 177.56789Q381.34604 176.92726 380.2679 176.92726Q379.11166 176.92726 378.42416 177.61476Q377.7523 178.30226 377.73666 179.50539L376.11166 179.33351Q376.28354 177.52101 377.36166 176.56789Q378.4554 175.61476 380.29916 175.61476Q382.1429 175.61476 383.22104 176.64601Q384.3148 177.67726 384.3148 179.19289Q384.3148 179.95851 383.98666 180.70851Q383.67416 181.45851 382.9398 182.28664Q382.2054 183.11476 380.5023 184.55226Q379.0804 185.75539 378.67416 186.17726Q378.2679 186.59914 378.0179 187.03664L384.3304 187.03664ZM386.2523 185.56789L387.7679 185.42726Q387.97104 186.50539 388.5023 186.98976Q389.04916 187.47414 389.90854 187.47414Q390.6429 187.47414 391.1898 187.14601Q391.73666 186.80226 392.0804 186.25539Q392.4398 185.69289 392.67416 184.73976Q392.90854 183.78664 392.90854 182.80226Q392.90854 182.69289 392.90854 182.48976Q392.42416 183.23976 391.59604 183.70851Q390.78354 184.17726 389.8304 184.17726Q388.23666 184.17726 387.1273 183.02101Q386.0179 181.86476 386.0179 179.95851Q386.0179 178.00539 387.17416 176.81789Q388.3304 175.61476 390.0648 175.61476Q391.3304 175.61476 392.36166 176.30226Q393.40854 176.97414 393.9398 178.22414Q394.48666 179.47414 394.48666 181.84914Q394.48666 184.31789 393.9398 185.78664Q393.40854 187.23976 392.34604 188.00539Q391.29916 188.77101 389.8773 188.77101Q388.36166 188.77101 387.3929 187.94289Q386.4398 187.09914 386.2523 185.56789ZM392.73666 179.88039Q392.73666 178.52101 392.0023 177.72414Q391.28354 176.92726 390.2679 176.92726Q389.2054 176.92726 388.42416 177.78664Q387.6429 178.64601 387.6429 180.02101Q387.6429 181.25539 388.3773 182.02101Q389.1273 182.78664 390.22104 182.78664Q391.3148 182.78664 392.0179 182.02101Q392.73666 181.25539 392.73666 179.88039ZM396.90854 188.55226L396.90854 186.75539L398.7054 186.75539L398.7054 188.55226L396.90854 188.55226ZM403.4554 181.56789Q402.47104 181.20851 401.98666 180.53664Q401.5179 179.86476 401.5179 178.94289Q401.5179 177.53664 402.5179 176.58351Q403.53354 175.61476 405.22104 175.61476Q406.90854 175.61476 407.92416 176.59914Q408.9554 177.56789 408.9554 178.97414Q408.9554 179.88039 408.48666 180.55226Q408.0179 181.20851 407.0648 181.56789Q408.2523 181.95851 408.86166 182.81789Q409.48666 183.67726 409.48666 184.86476Q409.48666 186.52101 408.3148 187.64601Q407.1429 188.77101 405.23666 188.77101Q403.3304 188.77101 402.15854 187.64601Q401.0023 186.50539 401.0023 184.81789Q401.0023 183.56789 401.6273 182.72414Q402.2679 181.86476 403.4554 181.56789ZM403.1273 178.88039Q403.1273 179.80226 403.72104 180.38039Q404.3148 180.95851 405.2523 180.95851Q406.15854 180.95851 406.73666 180.38039Q407.3304 179.80226 407.3304 178.97414Q407.3304 178.09914 406.72104 177.50539Q406.1273 176.91164 405.23666 176.91164Q404.3304 176.91164 403.72104 177.48976Q403.1273 178.06789 403.1273 178.88039ZM402.6273 184.83351Q402.6273 185.50539 402.9398 186.14601Q403.2679 186.77101 403.8929 187.13039Q404.53354 187.47414 405.2679 187.47414Q406.3929 187.47414 407.1273 186.73976Q407.8773 186.00539 407.8773 184.88039Q407.8773 183.73976 407.11166 183.00539Q406.34604 182.25539 405.2054 182.25539Q404.09604 182.25539 403.36166 182.98976Q402.6273 183.72414 402.6273 184.83351ZM411.3148 178.75539Q411.3148 177.38039 412.0023 176.41164Q412.7054 175.44289 414.0179 175.44289Q415.23666 175.44289 416.03354 176.31789Q416.8304 177.17726 416.8304 178.86476Q416.8304 180.48976 416.0179 181.38039Q415.22104 182.25539 414.03354 182.25539Q412.8773 182.25539 412.09604 181.39601Q411.3148 180.52101 411.3148 178.75539ZM414.0648 176.53664Q413.47104 176.53664 413.0804 177.05226Q412.6898 177.55226 412.6898 178.91164Q412.6898 180.16164 413.0804 180.66164Q413.48666 181.16164 414.0648 181.16164Q414.65854 181.16164 415.04916 180.66164Q415.4398 180.14601 415.4398 178.80226Q415.4398 177.55226 415.04916 177.05226Q414.65854 176.53664 414.0648 176.53664ZM414.0804 189.02101L421.1273 175.44289L422.40854 175.44289L415.3773 189.02101L414.0804 189.02101ZM419.6429 185.52101Q419.6429 184.14601 420.3304 183.17726Q421.03354 182.20851 422.36166 182.20851Q423.5804 182.20851 424.36166 183.08351Q425.15854 183.94289 425.15854 185.63039Q425.15854 187.25539 424.36166 188.14601Q423.5648 189.02101 422.3773 189.02101Q421.2054 189.02101 420.42416 188.14601Q419.6429 187.27101 419.6429 185.52101ZM422.40854 183.30226Q421.8148 183.30226 421.42416 183.81789Q421.03354 184.31789 421.03354 185.69289Q421.03354 186.91164 421.42416 187.42726Q421.8148 187.94289 422.3929 187.94289Q423.0023 187.94289 423.3929 187.42726Q423.78354 186.91164 423.78354 185.56789Q423.78354 184.31789 423.3929 183.81789Q423.0023 183.30226 422.40854 183.30226Z" fill-rule="nonzero"/><path fill="#ffffff" d="M319.47067 311.08655L317.89255 311.08655L317.89255 301.00842Q317.31442 301.5553 316.39255 302.10217Q315.47067 302.63342 314.72067 302.91467L314.72067 301.38342Q316.0488 300.75842 317.0488 299.8678Q318.0488 298.97717 318.45505 298.14905L319.47067 298.14905L319.47067 311.08655ZM323.51755 307.71155L325.1738 307.57092Q325.3613 308.78967 326.03317 309.39905Q326.70505 310.00842 327.65817 310.00842Q328.7988 310.00842 329.58005 309.14905Q330.37692 308.28967 330.37692 306.85217Q330.37692 305.50842 329.6113 304.72717Q328.8613 303.94592 327.62692 303.94592Q326.8613 303.94592 326.2363 304.28967Q325.62692 304.63342 325.28317 305.19592L323.7988 304.9928L325.0488 298.38342L331.45505 298.38342L331.45505 299.88342L326.31442 299.88342L325.6113 303.35217Q326.78317 302.53967 328.0488 302.53967Q329.7363 302.53967 330.89255 303.71155Q332.06442 304.88342 332.06442 306.71155Q332.06442 308.46155 331.03317 309.7428Q329.7988 311.3053 327.65817 311.3053Q325.89255 311.3053 324.78317 310.32092Q323.6738 309.33655 323.51755 307.71155ZM334.40817 311.08655L334.40817 309.28967L336.20505 309.28967L336.20505 311.08655L334.40817 311.08655ZM343.58005 311.08655L343.58005 308.00842L338.00192 308.00842L338.00192 306.5553L343.87692 298.19592L345.1738 298.19592L345.1738 306.5553L346.90817 306.5553L346.90817 308.00842L345.1738 308.00842L345.1738 311.08655L343.58005 311.08655ZM343.58005 306.5553L343.58005 300.7428L339.5488 306.5553L343.58005 306.5553ZM348.81442 301.28967Q348.81442 299.91467 349.50192 298.94592Q350.20505 297.97717 351.51755 297.97717Q352.7363 297.97717 353.53317 298.85217Q354.33005 299.71155 354.33005 301.39905Q354.33005 303.02405 353.51755 303.91467Q352.72067 304.78967 351.53317 304.78967Q350.37692 304.78967 349.59567 303.9303Q348.81442 303.0553 348.81442 301.28967ZM351.56442 299.07092Q350.97067 299.07092 350.58005 299.58655Q350.18942 300.08655 350.18942 301.44592Q350.18942 302.69592 350.58005 303.19592Q350.9863 303.69592 351.56442 303.69592Q352.15817 303.69592 352.5488 303.19592Q352.93942 302.6803 352.93942 301.33655Q352.93942 300.08655 352.5488 299.58655Q352.15817 299.07092 351.56442 299.07092ZM351.58005 311.5553L358.62692 297.97717L359.90817 297.97717L352.87692 311.5553L351.58005 311.5553ZM357.14255 308.0553Q357.14255 306.6803 357.83005 305.71155Q358.53317 304.7428 359.8613 304.7428Q361.08005 304.7428 361.8613 305.6178Q362.65817 306.47717 362.65817 308.16467Q362.65817 309.78967 361.8613 310.6803Q361.06442 311.5553 359.87692 311.5553Q358.70505 311.5553 357.9238 310.6803Q357.14255 309.8053 357.14255 308.0553ZM359.90817 305.83655Q359.31442 305.83655 358.9238 306.35217Q358.53317 306.85217 358.53317 308.22717Q358.53317 309.44592 358.9238 309.96155Q359.31442 310.47717 359.89255 310.47717Q360.50192 310.47717 360.89255 309.96155Q361.28317 309.44592 361.28317 308.10217Q361.28317 306.85217 360.89255 306.35217Q360.50192 305.83655 359.90817 305.83655Z" fill-rule="nonzero"/><path fill="#ffffff" d="M181.44171 245.63374L183.03546 245.43062Q183.30109 246.77437 183.95734 247.36812Q184.61359 247.96187 185.55109 247.96187Q186.67609 247.96187 187.44171 247.19624Q188.20734 246.415 188.20734 245.27437Q188.20734 244.18062 187.48859 243.4775Q186.78546 242.75874 185.69171 242.75874Q185.23859 242.75874 184.56671 242.94624L184.73859 241.55562Q184.89484 241.57124 185.00421 241.57124Q186.00421 241.57124 186.81671 241.04Q187.62921 240.50874 187.62921 239.415Q187.62921 238.54 187.03546 237.9775Q186.44171 237.39937 185.51984 237.39937Q184.59796 237.39937 183.97296 237.9775Q183.36359 238.55562 183.19171 239.7275L181.61359 239.44624Q181.89484 237.8525 182.92609 236.9775Q183.95734 236.1025 185.48859 236.1025Q186.53546 236.1025 187.42609 236.55562Q188.31671 237.00874 188.78546 237.79Q189.25421 238.57124 189.25421 239.44624Q189.25421 240.29 188.80109 240.9775Q188.36359 241.64937 187.47296 242.05562Q188.61359 242.32124 189.23859 243.165Q189.87921 243.99312 189.87921 245.2275Q189.87921 246.915 188.64484 248.1025Q187.42609 249.27437 185.55109 249.27437Q183.84796 249.27437 182.72296 248.25874Q181.61359 247.24312 181.44171 245.63374ZM191.44171 245.63374L193.03546 245.43062Q193.30109 246.77437 193.95734 247.36812Q194.61359 247.96187 195.55109 247.96187Q196.67609 247.96187 197.44171 247.19624Q198.20734 246.415 198.20734 245.27437Q198.20734 244.18062 197.48859 243.4775Q196.78546 242.75874 195.69171 242.75874Q195.23859 242.75874 194.56671 242.94624L194.73859 241.55562Q194.89484 241.57124 195.00421 241.57124Q196.00421 241.57124 196.81671 241.04Q197.62921 240.50874 197.62921 239.415Q197.62921 238.54 197.03546 237.9775Q196.44171 237.39937 195.51984 237.39937Q194.59796 237.39937 193.97296 237.9775Q193.36359 238.55562 193.19171 239.7275L191.61359 239.44624Q191.89484 237.8525 192.92609 236.9775Q193.95734 236.1025 195.48859 236.1025Q196.53546 236.1025 197.42609 236.55562Q198.31671 237.00874 198.78546 237.79Q199.25421 238.57124 199.25421 239.44624Q199.25421 240.29 198.80109 240.9775Q198.36359 241.64937 197.47296 242.05562Q198.61359 242.32124 199.23859 243.165Q199.87921 243.99312 199.87921 245.2275Q199.87921 246.915 198.64484 248.1025Q197.42609 249.27437 195.55109 249.27437Q193.84796 249.27437 192.72296 248.25874Q191.61359 247.24312 191.44171 245.63374ZM202.33234 249.04L202.33234 247.24312L204.12921 247.24312L204.12921 249.04L202.33234 249.04ZM206.55109 237.83687L206.55109 236.32124L214.87921 236.32124L214.87921 237.55562Q213.66046 238.86812 212.44171 241.04Q211.23859 243.19624 210.58234 245.49312Q210.09796 247.11812 209.97296 249.04L208.34796 249.04Q208.37921 247.52437 208.94171 245.36812Q209.51984 243.21187 210.58234 241.21187Q211.64484 239.21187 212.84796 237.83687L206.55109 237.83687ZM216.73859 239.24312Q216.73859 237.86812 217.42609 236.89937Q218.12921 235.93062 219.44171 235.93062Q220.66046 235.93062 221.45734 236.80562Q222.25421 237.665 222.25421 239.3525Q222.25421 240.9775 221.44171 241.86812Q220.64484 242.74312 219.45734 242.74312Q218.30109 242.74312 217.51984 241.88374Q216.73859 241.00874 216.73859 239.24312ZM219.48859 237.02437Q218.89484 237.02437 218.50421 237.54Q218.11359 238.04 218.11359 239.39937Q218.11359 240.64937 218.50421 241.14937Q218.91046 241.64937 219.48859 241.64937Q220.08234 241.64937 220.47296 241.14937Q220.86359 240.63374 220.86359 239.29Q220.86359 238.04 220.47296 237.54Q220.08234 237.02437 219.48859 237.02437ZM219.50421 249.50874L226.55109 235.93062L227.83234 235.93062L220.80109 249.50874L219.50421 249.50874ZM225.06671 246.00874Q225.06671 244.63374 225.75421 243.665Q226.45734 242.69624 227.78546 242.69624Q229.00421 242.69624 229.78546 243.57124Q230.58234 244.43062 230.58234 246.11812Q230.58234 247.74312 229.78546 248.63374Q228.98859 249.50874 227.80109 249.50874Q226.62921 249.50874 225.84796 248.63374Q225.06671 247.75874 225.06671 246.00874ZM227.83234 243.79Q227.23859 243.79 226.84796 244.30562Q226.45734 244.80562 226.45734 246.18062Q226.45734 247.39937 226.84796 247.915Q227.23859 248.43062 227.81671 248.43062Q228.42609 248.43062 228.81671 247.915Q229.20734 247.39937 229.20734 246.05562Q229.20734 244.80562 228.81671 244.30562Q228.42609 243.79 227.83234 243.79Z" fill-rule="nonzero"/><path fill="#ffffff" d="M234.74437 114.76625L233.16624 114.76625L233.16624 104.688126Q232.58812 105.235 231.66624 105.781876Q230.74437 106.313126 229.99437 106.594376L229.99437 105.063126Q231.3225 104.438126 232.3225 103.5475Q233.3225 102.656876 233.72874 101.82875L234.74437 101.82875L234.74437 114.76625ZM243.85374 114.76625L243.85374 111.688126L238.27562 111.688126L238.27562 110.235L244.15062 101.875626L245.4475 101.875626L245.4475 110.235L247.18187 110.235L247.18187 111.688126L245.4475 111.688126L245.4475 114.76625L243.85374 114.76625ZM243.85374 110.235L243.85374 104.4225L239.8225 110.235L243.85374 110.235ZM249.68187 114.76625L249.68187 112.969376L251.47874 112.969376L251.47874 114.76625L249.68187 114.76625ZM258.85376 114.76625L258.85376 111.688126L253.27562 111.688126L253.27562 110.235L259.15063 101.875626L260.4475 101.875626L260.4475 110.235L262.1819 110.235L262.1819 111.688126L260.4475 111.688126L260.4475 114.76625L258.85376 114.76625ZM258.85376 110.235L258.85376 104.4225L254.8225 110.235L258.85376 110.235ZM264.08813 104.969376Q264.08813 103.594376 264.77563 102.625626Q265.47876 101.656876 266.79126 101.656876Q268.01 101.656876 268.8069 102.531876Q269.60376 103.39125 269.60376 105.07875Q269.60376 106.70375 268.79126 107.594376Q267.9944 108.469376 266.8069 108.469376Q265.65063 108.469376 264.8694 107.61Q264.08813 106.735 264.08813 104.969376ZM266.83813 102.750626Q266.2444 102.750626 265.85376 103.26625Q265.46313 103.76625 265.46313 105.125626Q265.46313 106.375626 265.85376 106.875626Q266.26 107.375626 266.83813 107.375626Q267.4319 107.375626 267.8225 106.875626Q268.21313 106.36 268.21313 105.01625Q268.21313 103.76625 267.8225 103.26625Q267.4319 102.750626 266.83813 102.750626ZM266.85376 115.235L273.90063 101.656876L275.1819 101.656876L268.15063 115.235L266.85376 115.235ZM272.41626 111.735Q272.41626 110.36 273.10376 109.39125Q273.8069 108.4225 275.135 108.4225Q276.35376 108.4225 277.135 109.2975Q277.9319 110.156876 277.9319 111.844376Q277.9319 113.469376 277.135 114.36Q276.33813 115.235 275.15063 115.235Q273.97876 115.235 273.1975 114.36Q272.41626 113.485 272.41626 111.735ZM275.1819 109.51625Q274.58813 109.51625 274.1975 110.031876Q273.8069 110.531876 273.8069 111.906876Q273.8069 113.125626 274.1975 113.64125Q274.58813 114.156876 275.16626 114.156876Q275.77563 114.156876 276.16626 113.64125Q276.5569 113.125626 276.5569 111.781876Q276.5569 110.531876 276.16626 110.031876Q275.77563 109.51625 275.1819 109.51625Z" fill-rule="nonzero"/><path stroke="#ffffff" stroke-width="1.0" stroke-linejoin="round" stroke-linecap="round" d="M306.70398 167.10088C304.49234 166.69557 302.24847 166.49167 300.0 166.49167L300.0 54.916668C308.99393 54.916668 317.96933 55.732277 326.81595 57.353477" fill-rule="nonzero"/><path stroke="#ffffff" stroke-width="1.0" stroke-linejoin="round" stroke-linecap="round" d="M315.26395 169.76826C312.52863 168.5372 309.65442 167.64156 306.70398 167.10088L326.81595 57.353477C338.6177 59.51623 350.1145 63.098778 361.05576 68.02303" fill-rule="nonzero"/><path stroke="#ffffff" stroke-width="1.0" stroke-linejoin="round" stroke-linecap="round" d="M327.83835 228.34598C335.68048 219.49405 338.84537 207.44016 336.36328 195.8775C333.88123 184.31485 326.04813 174.62183 315.26395 169.76826L361.05576 68.02303C404.19244 87.43729 435.5249 126.20942 445.4532 172.46002C455.38144 218.71062 442.72195 266.92618 411.35345 302.3339" fill-rule="nonzero"/><path stroke="#ffffff" stroke-width="1.0" stroke-linejoin="round" stroke-linecap="round" d="M295.51703 240.60384C307.65048 242.0771 319.7333 237.49469 327.83835 228.34598L411.35345 302.3339C378.93323 338.92877 330.60196 357.2584 282.06815 351.36533" fill-rule="nonzero"/><path stroke="#ffffff" stroke-width="1.0" stroke-linejoin="round" stroke-linecap="round" d="M270.72333 180.74654C262.44623 191.31146 260.50333 205.5164 265.63937 217.91597C270.77545 230.31552 282.1937 238.98608 295.51703 240.60384L282.06815 351.36533C228.77484 344.89435 183.10178 310.2121 162.55753 260.61386C142.01326 211.01564 149.78494 154.19586 182.89334 111.93612" fill-rule="nonzero"/><path stroke="#ffffff" stroke-width="1.0" stroke-linejoin="round" stroke-linecap="round" d="M300.0 166.49167C288.56903 166.49167 277.77304 171.74826 270.72333 180.74654L182.89334 111.93612C211.09212 75.94305 254.27614 54.916668 300.0 54.916668" fill-rule="nonzero"/><path fill="#efefef" d="M27.3 59.66358L28.815624 59.66358L28.815624 66.27296Q28.815624 68.00733 28.425 69.02296Q28.034374 70.03858 27.01875 70.67921Q26.003124 71.31983 24.346874 71.31983Q22.7375 71.31983 21.70625 70.75733Q20.690624 70.19483 20.253124 69.14796Q19.815624 68.10108 19.815624 66.27296L19.815624 59.66358L21.33125 59.66358L21.33125 66.27296Q21.33125 67.75733 21.596874 68.47608Q21.878124 69.17921 22.55 69.56983Q23.2375 69.94483 24.20625 69.94483Q25.878124 69.94483 26.58125 69.19483Q27.3 68.42921 27.3 66.27296L27.3 59.66358ZM31.596874 71.11671L31.596874 62.81983L32.8625 62.81983L32.8625 64.06983Q33.346874 63.19483 33.753124 62.91358Q34.159374 62.63233 34.659374 62.63233Q35.3625 62.63233 36.096874 63.085457L35.6125 64.38233Q35.096874 64.08546 34.58125 64.08546Q34.128124 64.08546 33.753124 64.36671Q33.39375 64.63233 33.2375 65.13233Q33.003124 65.88233 33.003124 66.77296L33.003124 71.11671L31.596874 71.11671ZM37.909374 71.11671L36.596874 71.11671L36.596874 59.66358L38.003124 59.66358L38.003124 63.741707Q38.89375 62.63233 40.284374 62.63233Q41.05 62.63233 41.721874 62.94483Q42.409374 63.241707 42.846874 63.804207Q43.3 64.36671 43.55 65.16358Q43.8 65.94483 43.8 66.83546Q43.8 68.97608 42.7375 70.14796Q41.690624 71.30421 40.20625 71.30421Q38.7375 71.30421 37.909374 70.06983L37.909374 71.11671ZM37.89375 66.89796Q37.89375 68.39796 38.3 69.05421Q38.95625 70.14796 40.096874 70.14796Q41.01875 70.14796 41.690624 69.35108Q42.3625 68.53858 42.3625 66.96046Q42.3625 65.33546 41.70625 64.56983Q41.065624 63.78858 40.159374 63.78858Q39.2375 63.78858 38.565624 64.58546Q37.89375 65.38233 37.89375 66.89796ZM51.01875 70.08546Q50.2375 70.75733 49.51875 71.03858Q48.8 71.30421 47.971874 71.30421Q46.596874 71.30421 45.8625 70.63233Q45.128124 69.96046 45.128124 68.92921Q45.128124 68.31983 45.409374 67.81983Q45.690624 67.30421 46.128124 67.00733Q46.58125 66.69483 47.14375 66.53858Q47.565624 66.42921 48.39375 66.33546Q50.096874 66.13233 50.909374 65.85108Q50.909374 65.55421 50.909374 65.47608Q50.909374 64.61671 50.51875 64.27296Q49.971874 63.78858 48.909374 63.78858Q47.925 63.78858 47.440624 64.14796Q46.971874 64.49171 46.753124 65.36671L45.378124 65.17921Q45.565624 64.30421 45.9875 63.75733Q46.425 63.210457 47.2375 62.929207Q48.05 62.63233 49.1125 62.63233Q50.175 62.63233 50.83125 62.88233Q51.503124 63.13233 51.815624 63.50733Q52.128124 63.88233 52.253124 64.46046Q52.33125 64.81983 52.33125 65.75733L52.33125 67.63233Q52.33125 69.60108 52.409374 70.11671Q52.503124 70.63233 52.76875 71.11671L51.3 71.11671Q51.08125 70.67921 51.01875 70.08546ZM50.909374 66.94483Q50.14375 67.25733 48.6125 67.47608Q47.7375 67.60108 47.378124 67.75733Q47.01875 67.91358 46.815624 68.22608Q46.628124 68.52296 46.628124 68.88233Q46.628124 69.44483 47.05 69.81983Q47.4875 70.19483 48.3 70.19483Q49.1125 70.19483 49.7375 69.85108Q50.378124 69.49171 50.675 68.86671Q50.909374 68.39796 50.909374 67.46046L50.909374 66.94483ZM54.6125 71.11671L54.6125 62.81983L55.878124 62.81983L55.878124 63.991707Q56.784374 62.63233 58.51875 62.63233Q59.26875 62.63233 59.89375 62.897957Q60.51875 63.16358 60.83125 63.60108Q61.14375 64.03858 61.26875 64.64796Q61.346874 65.03858 61.346874 66.00733L61.346874 71.11671L59.940624 71.11671L59.940624 66.06983Q59.940624 65.21046 59.76875 64.78858Q59.6125 64.35108 59.190624 64.10108Q58.784374 63.85108 58.221874 63.85108Q57.315624 63.85108 56.659374 64.42921Q56.01875 64.99171 56.01875 66.58546L56.01875 71.11671L54.6125 71.11671ZM63.05 68.63233L64.44063 68.41358Q64.55 69.25733 65.08125 69.71046Q65.62813 70.14796 66.58125 70.14796Q67.55 70.14796 68.01875 69.75733Q68.4875 69.35108 68.4875 68.81983Q68.4875 68.35108 68.08125 68.06983Q67.78438 67.88233 66.64375 67.60108Q65.09688 67.21046 64.4875 66.92921Q63.89375 66.63233 63.58125 66.13233Q63.284374 65.63233 63.284374 65.02296Q63.284374 64.46046 63.534374 63.991707Q63.784374 63.522957 64.22188 63.210457Q64.55 62.960457 65.1125 62.804207Q65.69063 62.63233 66.33125 62.63233Q67.31563 62.63233 68.05 62.91358Q68.78438 63.19483 69.12813 63.679207Q69.4875 64.14796 69.62813 64.96046L68.25313 65.14796Q68.15938 64.50733 67.70625 64.14796Q67.25313 63.78858 66.44063 63.78858Q65.47188 63.78858 65.05 64.11671Q64.64375 64.42921 64.64375 64.85108Q64.64375 65.13233 64.81563 65.35108Q64.9875 65.56983 65.34688 65.72608Q65.56563 65.80421 66.59688 66.08546Q68.08125 66.47608 68.675 66.74171Q69.26875 66.99171 69.59688 67.47608Q69.94063 67.96046 69.94063 68.67921Q69.94063 69.38233 69.51875 70.00733Q69.1125 70.61671 68.33125 70.96046Q67.56563 71.30421 66.59688 71.30421Q64.97188 71.30421 64.12813 70.63233Q63.284374 69.96046 63.05 68.63233ZM77.01875 68.06983L78.40938 68.25733Q78.175 69.67921 77.2375 70.49171Q76.31563 71.30421 74.95625 71.30421Q73.25313 71.30421 72.20625 70.19483Q71.175 69.06983 71.175 66.99171Q71.175 65.64796 71.6125 64.64796Q72.06563 63.63233 72.97188 63.13233Q73.89375 62.63233 74.95625 62.63233Q76.31563 62.63233 77.175 63.31983Q78.03438 63.991707 78.26875 65.25733L76.90938 65.46046Q76.70625 64.63233 76.20625 64.21046Q75.72188 63.78858 75.01875 63.78858Q73.95625 63.78858 73.28438 64.55421Q72.62813 65.30421 72.62813 66.96046Q72.62813 68.63233 73.26875 69.39796Q73.90938 70.14796 74.94063 70.14796Q75.76875 70.14796 76.31563 69.64796Q76.87813 69.13233 77.01875 68.06983ZM85.01875 70.08546Q84.2375 70.75733 83.51875 71.03858Q82.8 71.30421 81.97188 71.30421Q80.59688 71.30421 79.8625 70.63233Q79.12813 69.96046 79.12813 68.92921Q79.12813 68.31983 79.40938 67.81983Q79.69063 67.30421 80.12813 67.00733Q80.58125 66.69483 81.14375 66.53858Q81.56563 66.42921 82.39375 66.33546Q84.09688 66.13233 84.90938 65.85108Q84.90938 65.55421 84.90938 65.47608Q84.90938 64.61671 84.51875 64.27296Q83.97188 63.78858 82.90938 63.78858Q81.925 63.78858 81.44063 64.14796Q80.97188 64.49171 80.75313 65.36671L79.37813 65.17921Q79.56563 64.30421 79.9875 63.75733Q80.425 63.210457 81.2375 62.929207Q82.05 62.63233 83.1125 62.63233Q84.175 62.63233 84.83125 62.88233Q85.50313 63.13233 85.81563 63.50733Q86.12813 63.88233 86.25313 64.46046Q86.33125 64.81983 86.33125 65.75733L86.33125 67.63233Q86.33125 69.60108 86.40938 70.11671Q86.50313 70.63233 86.76875 71.11671L85.3 71.11671Q85.08125 70.67921 85.01875 70.08546ZM84.90938 66.94483Q84.14375 67.25733 82.6125 67.47608Q81.7375 67.60108 81.37813 67.75733Q81.01875 67.91358 80.81563 68.22608Q80.62813 68.52296 80.62813 68.88233Q80.62813 69.44483 81.05 69.81983Q81.4875 70.19483 82.3 70.19483Q83.1125 70.19483 83.7375 69.85108Q84.37813 69.49171 84.675 68.86671Q84.90938 68.39796 84.90938 67.46046L84.90938 66.94483ZM88.6125 74.30421L88.6125 62.81983L89.89375 62.81983L89.89375 63.897957Q90.34688 63.25733 90.90938 62.94483Q91.4875 62.63233 92.3 62.63233Q93.3625 62.63233 94.175 63.179207Q94.9875 63.72608 95.39375 64.72608Q95.81563 65.71046 95.81563 66.89796Q95.81563 68.17921 95.34688 69.19483Q94.89375 70.21046 94.01875 70.75733Q93.15938 71.30421 92.19063 71.30421Q91.4875 71.30421 90.925 71.00733Q90.37813 70.71046 90.01875 70.25733L90.01875 74.30421L88.6125 74.30421ZM89.87813 67.00733Q89.87813 68.61671 90.51875 69.38233Q91.175 70.14796 92.09688 70.14796Q93.03438 70.14796 93.70625 69.35108Q94.37813 68.55421 94.37813 66.89796Q94.37813 65.30421 93.72188 64.52296Q93.06563 63.72608 92.15938 63.72608Q91.26875 63.72608 90.56563 64.56983Q89.87813 65.41358 89.87813 67.00733ZM103.28438 68.44483L104.7375 68.61671Q104.39375 69.89796 103.45625 70.60108Q102.53438 71.30421 101.09688 71.30421Q99.26875 71.30421 98.20625 70.17921Q97.14375 69.05421 97.14375 67.03858Q97.14375 64.94483 98.22188 63.78858Q99.3 62.63233 101.01875 62.63233Q102.675 62.63233 103.72188 63.772957Q104.78438 64.89796 104.78438 66.94483Q104.78438 67.06983 104.78438 67.31983L98.59688 67.31983Q98.675 68.69483 99.3625 69.42921Q100.06563 70.14796 101.09688 70.14796Q101.87813 70.14796 102.425 69.74171Q102.97188 69.33546 103.28438 68.44483ZM98.675 66.16358L103.3 66.16358Q103.20625 65.11671 102.76875 64.60108Q102.09688 63.78858 101.03438 63.78858Q100.06563 63.78858 99.39375 64.44483Q98.7375 65.08546 98.675 66.16358Z" fill-rule="nonzero"/><path fill="#9e9e9e" d="M24.51875 93.11671L23.1125 93.11671L23.1125 84.14796Q22.596874 84.63233 21.76875 85.11671Q20.95625 85.60108 20.3 85.85108L20.3 84.49171Q21.471874 83.92921 22.346874 83.14796Q23.2375 82.35108 23.6125 81.61671L24.51875 81.61671L24.51875 93.11671ZM32.721874 93.11671L32.721874 90.36671L27.753124 90.36671L27.753124 89.08546L32.9875 81.66358L34.128124 81.66358L34.128124 89.08546L35.675 89.08546L35.675 90.36671L34.128124 90.36671L34.128124 93.11671L32.721874 93.11671ZM32.721874 89.08546L32.721874 83.91358L29.14375 89.08546L32.721874 89.08546ZM38.003124 93.11671L38.003124 91.50733L39.6125 91.50733L39.6125 93.11671L38.003124 93.11671ZM45.721874 93.11671L45.721874 90.36671L40.753124 90.36671L40.753124 89.08546L45.9875 81.66358L47.128124 81.66358L47.128124 89.08546L48.675 89.08546L48.675 90.36671L47.128124 90.36671L47.128124 93.11671L45.721874 93.11671ZM45.721874 89.08546L45.721874 83.91358L42.14375 89.08546L45.721874 89.08546ZM50.4875 84.41358Q50.4875 83.17921 51.096874 82.31983Q51.721874 81.46046 52.89375 81.46046Q53.971874 81.46046 54.675 82.24171Q55.378124 83.00733 55.378124 84.49171Q55.378124 85.94483 54.659374 86.74171Q53.95625 87.52296 52.909374 87.52296Q51.8625 87.52296 51.175 86.75733Q50.4875 85.97608 50.4875 84.41358ZM52.925 82.42921Q52.409374 82.42921 52.05 82.88233Q51.70625 83.33546 51.70625 84.55421Q51.70625 85.64796 52.05 86.10108Q52.409374 86.55421 52.925 86.55421Q53.45625 86.55421 53.8 86.10108Q54.159374 85.64796 54.159374 84.44483Q54.159374 83.33546 53.8 82.88233Q53.45625 82.42921 52.925 82.42921ZM52.940624 93.53858L59.20625 81.46046L60.346874 81.46046L54.096874 93.53858L52.940624 93.53858ZM57.89375 90.42921Q57.89375 89.19483 58.503124 88.33546Q59.128124 87.47608 60.3 87.47608Q61.378124 87.47608 62.08125 88.25733Q62.8 89.02296 62.8 90.50733Q62.8 91.96046 62.08125 92.75733Q61.3625 93.53858 60.315624 93.53858Q59.26875 93.53858 58.58125 92.75733Q57.89375 91.97608 57.89375 90.42921ZM60.346874 88.44483Q59.815624 88.44483 59.45625 88.89796Q59.1125 89.35108 59.1125 90.56983Q59.1125 91.66358 59.45625 92.11671Q59.815624 92.56983 60.33125 92.56983Q60.878124 92.56983 61.221874 92.11671Q61.565624 91.66358 61.565624 90.46046Q61.565624 89.35108 61.20625 88.89796Q60.8625 88.44483 60.346874 88.44483Z" fill-rule="nonzero"/><path stroke="#757575" stroke-width="1.0" stroke-linecap="butt" d="M18.55 76.61671L145.23334 76.61671L238.13103 76.61671" fill-rule="nonzero"/><path fill="#9e9e9e" d="M240.13103 76.61671C240.13103 75.51214 239.2356 74.61671 238.13103 74.61671C237.02644 74.61671 236.13103 75.51214 236.13103 76.61671C236.13103 77.721275 237.02644 78.61671 238.13103 78.61671C239.2356 78.61671 240.13103 77.721275 240.13103 76.61671" fill-rule="nonzero"/><path fill="#efefef" d="M19.76875 252.26735L19.76875 240.81422L21.33125 240.81422L27.346874 249.7986L27.346874 240.81422L28.8 240.81422L28.8 252.26735L27.2375 252.26735L21.221874 243.26735L21.221874 252.26735L19.76875 252.26735ZM37.01875 251.2361Q36.2375 251.90797 35.51875 252.18922Q34.8 252.45485 33.971874 252.45485Q32.596874 252.45485 31.8625 251.78297Q31.128124 251.1111 31.128124 250.07985Q31.128124 249.47047 31.409374 248.97047Q31.690624 248.45485 32.128124 248.15797Q32.58125 247.84547 33.14375 247.68922Q33.565624 247.57985 34.39375 247.4861Q36.096874 247.28297 36.909374 247.00172Q36.909374 246.70485 36.909374 246.62672Q36.909374 245.76735 36.51875 245.4236Q35.971874 244.93922 34.909374 244.93922Q33.925 244.93922 33.440624 245.2986Q32.971874 245.64235 32.753124 246.51735L31.378124 246.32985Q31.565624 245.45485 31.9875 244.90797Q32.425 244.3611 33.2375 244.07985Q34.05 243.78297 35.1125 243.78297Q36.175 243.78297 36.83125 244.03297Q37.503124 244.28297 37.815624 244.65797Q38.128124 245.03297 38.253124 245.6111Q38.33125 245.97047 38.33125 246.90797L38.33125 248.78297Q38.33125 250.75172 38.409374 251.26735Q38.503124 251.78297 38.76875 252.26735L37.3 252.26735Q37.08125 251.82985 37.01875 251.2361ZM36.909374 248.09547Q36.14375 248.40797 34.6125 248.62672Q33.7375 248.75172 33.378124 248.90797Q33.01875 249.06422 32.815624 249.37672Q32.628124 249.6736 32.628124 250.03297Q32.628124 250.59547 33.05 250.97047Q33.4875 251.34547 34.3 251.34547Q35.1125 251.34547 35.7375 251.00172Q36.378124 250.64235 36.675 250.01735Q36.909374 249.5486 36.909374 248.6111L36.909374 248.09547ZM43.675 251.00172L43.878124 252.25172Q43.284374 252.37672 42.815624 252.37672Q42.05 252.37672 41.628124 252.14235Q41.20625 251.89235 41.034374 251.50172Q40.8625 251.09547 40.8625 249.82985L40.8625 245.06422L39.83125 245.06422L39.83125 243.97047L40.8625 243.97047L40.8625 241.90797L42.26875 241.06422L42.26875 243.97047L43.675 243.97047L43.675 245.06422L42.26875 245.06422L42.26875 249.90797Q42.26875 250.51735 42.33125 250.68922Q42.409374 250.8611 42.58125 250.97047Q42.753124 251.06422 43.065624 251.06422Q43.3 251.06422 43.675 251.00172ZM50.05 252.26735L50.05 251.0486Q49.08125 252.45485 47.409374 252.45485Q46.675 252.45485 46.034374 252.1736Q45.409374 251.89235 45.096874 251.47047Q44.784374 251.03297 44.659374 250.4236Q44.58125 250.00172 44.58125 249.1111L44.58125 243.97047L45.9875 243.97047L45.9875 248.56422Q45.9875 249.6736 46.065624 250.0486Q46.20625 250.6111 46.628124 250.9236Q47.065624 251.2361 47.690624 251.2361Q48.33125 251.2361 48.878124 250.9236Q49.440624 250.59547 49.659374 250.03297Q49.89375 249.47047 49.89375 248.40797L49.89375 243.97047L51.3 243.97047L51.3 252.26735L50.05 252.26735ZM53.596874 252.26735L53.596874 243.97047L54.8625 243.97047L54.8625 245.22047Q55.346874 244.34547 55.753124 244.06422Q56.159374 243.78297 56.659374 243.78297Q57.3625 243.78297 58.096874 244.2361L57.6125 245.53297Q57.096874 245.2361 56.58125 245.2361Q56.128124 245.2361 55.753124 245.51735Q55.39375 245.78297 55.2375 246.28297Q55.003124 247.03297 55.003124 247.9236L55.003124 252.26735L53.596874 252.26735ZM64.28438 249.59547L65.7375 249.76735Q65.39375 251.0486 64.45625 251.75172Q63.534374 252.45485 62.096874 252.45485Q60.26875 252.45485 59.20625 251.32985Q58.14375 250.20485 58.14375 248.18922Q58.14375 246.09547 59.221874 244.93922Q60.3 243.78297 62.01875 243.78297Q63.675 243.78297 64.72188 244.9236Q65.78438 246.0486 65.78438 248.09547Q65.78438 248.22047 65.78438 248.47047L59.596874 248.47047Q59.675 249.84547 60.3625 250.57985Q61.065624 251.2986 62.096874 251.2986Q62.878124 251.2986 63.425 250.89235Q63.971874 250.4861 64.28438 249.59547ZM59.675 247.31422L64.3 247.31422Q64.20625 246.26735 63.76875 245.75172Q63.096874 244.93922 62.034374 244.93922Q61.065624 244.93922 60.39375 245.59547Q59.7375 246.2361 59.675 247.31422ZM67.05 249.78297L68.44063 249.56422Q68.55 250.40797 69.08125 250.8611Q69.62813 251.2986 70.58125 251.2986Q71.55 251.2986 72.01875 250.90797Q72.4875 250.50172 72.4875 249.97047Q72.4875 249.50172 72.08125 249.22047Q71.78438 249.03297 70.64375 248.75172Q69.09688 248.3611 68.4875 248.07985Q67.89375 247.78297 67.58125 247.28297Q67.28438 246.78297 67.28438 246.1736Q67.28438 245.6111 67.53438 245.14235Q67.78438 244.6736 68.22188 244.3611Q68.55 244.1111 69.1125 243.95485Q69.69063 243.78297 70.33125 243.78297Q71.31563 243.78297 72.05 244.06422Q72.78438 244.34547 73.12813 244.82985Q73.4875 245.2986 73.62813 246.1111L72.25313 246.2986Q72.15938 245.65797 71.70625 245.2986Q71.25313 244.93922 70.44063 244.93922Q69.47188 244.93922 69.05 245.26735Q68.64375 245.57985 68.64375 246.00172Q68.64375 246.28297 68.81563 246.50172Q68.9875 246.72047 69.34688 246.87672Q69.56563 246.95485 70.59688 247.2361Q72.08125 247.62672 72.675 247.89235Q73.26875 248.14235 73.59688 248.62672Q73.94063 249.1111 73.94063 249.82985Q73.94063 250.53297 73.51875 251.15797Q73.1125 251.76735 72.33125 252.1111Q71.56563 252.45485 70.59688 252.45485Q68.97188 252.45485 68.12813 251.78297Q67.28438 251.1111 67.05 249.78297ZM81.01875 249.22047L82.40938 249.40797Q82.175 250.82985 81.2375 251.64235Q80.31563 252.45485 78.95625 252.45485Q77.25313 252.45485 76.20625 251.34547Q75.175 250.22047 75.175 248.14235Q75.175 246.7986 75.6125 245.7986Q76.06563 244.78297 76.97188 244.28297Q77.89375 243.78297 78.95625 243.78297Q80.31563 243.78297 81.175 244.47047Q82.03438 245.14235 82.26875 246.40797L80.90938 246.6111Q80.70625 245.78297 80.20625 245.3611Q79.72188 244.93922 79.01875 244.93922Q77.95625 244.93922 77.28438 245.70485Q76.62813 246.45485 76.62813 248.1111Q76.62813 249.78297 77.26875 250.5486Q77.90938 251.2986 78.94063 251.2986Q79.76875 251.2986 80.31563 250.7986Q80.87813 250.28297 81.01875 249.22047ZM89.01875 251.2361Q88.2375 251.90797 87.51875 252.18922Q86.8 252.45485 85.97188 252.45485Q84.59688 252.45485 83.8625 251.78297Q83.12813 251.1111 83.12813 250.07985Q83.12813 249.47047 83.40938 248.97047Q83.69063 248.45485 84.12813 248.15797Q84.58125 247.84547 85.14375 247.68922Q85.56563 247.57985 86.39375 247.4861Q88.09688 247.28297 88.90938 247.00172Q88.90938 246.70485 88.90938 246.62672Q88.90938 245.76735 88.51875 245.4236Q87.97188 244.93922 86.90938 244.93922Q85.925 244.93922 85.44063 245.2986Q84.97188 245.64235 84.75313 246.51735L83.37813 246.32985Q83.56563 245.45485 83.9875 244.90797Q84.425 244.3611 85.2375 244.07985Q86.05 243.78297 87.1125 243.78297Q88.175 243.78297 88.83125 244.03297Q89.50313 244.28297 89.81563 244.65797Q90.12813 245.03297 90.25313 245.6111Q90.33125 245.97047 90.33125 246.90797L90.33125 248.78297Q90.33125 250.75172 90.40938 251.26735Q90.50313 251.78297 90.76875 252.26735L89.3 252.26735Q89.08125 251.82985 89.01875 251.2361ZM88.90938 248.09547Q88.14375 248.40797 86.6125 248.62672Q85.7375 248.75172 85.37813 248.90797Q85.01875 249.06422 84.81563 249.37672Q84.62813 249.6736 84.62813 250.03297Q84.62813 250.59547 85.05 250.97047Q85.4875 251.34547 86.3 251.34547Q87.1125 251.34547 87.7375 251.00172Q88.37813 250.64235 88.675 250.01735Q88.90938 249.5486 88.90938 248.6111L88.90938 248.09547ZM92.6125 255.45485L92.6125 243.97047L93.89375 243.97047L93.89375 245.0486Q94.34688 244.40797 94.90938 244.09547Q95.4875 243.78297 96.3 243.78297Q97.3625 243.78297 98.175 244.32985Q98.9875 244.87672 99.39375 245.87672Q99.81563 246.8611 99.81563 248.0486Q99.81563 249.32985 99.34688 250.34547Q98.89375 251.3611 98.01875 251.90797Q97.15938 252.45485 96.19063 252.45485Q95.4875 252.45485 94.925 252.15797Q94.37813 251.8611 94.01875 251.40797L94.01875 255.45485L92.6125 255.45485ZM93.87813 248.15797Q93.87813 249.76735 94.51875 250.53297Q95.175 251.2986 96.09688 251.2986Q97.03438 251.2986 97.70625 250.50172Q98.37813 249.70485 98.37813 248.0486Q98.37813 246.45485 97.72188 245.6736Q97.06563 244.87672 96.15938 244.87672Q95.26875 244.87672 94.56563 245.72047Q93.87813 246.56422 93.87813 248.15797ZM107.28438 249.59547L108.7375 249.76735Q108.39375 251.0486 107.45625 251.75172Q106.53438 252.45485 105.09688 252.45485Q103.26875 252.45485 102.20625 251.32985Q101.14375 250.20485 101.14375 248.18922Q101.14375 246.09547 102.22188 244.93922Q103.3 243.78297 105.01875 243.78297Q106.675 243.78297 107.72188 244.9236Q108.78438 246.0486 108.78438 248.09547Q108.78438 248.22047 108.78438 248.47047L102.59688 248.47047Q102.675 249.84547 103.3625 250.57985Q104.06563 251.2986 105.09688 251.2986Q105.87813 251.2986 106.425 250.89235Q106.97188 250.4861 107.28438 249.59547ZM102.675 247.31422L107.3 247.31422Q107.20625 246.26735 106.76875 245.75172Q106.09688 244.93922 105.03438 244.93922Q104.06563 244.93922 103.39375 245.59547Q102.7375 246.2361 102.675 247.31422Z" fill-rule="nonzero"/><path fill="#9e9e9e" d="M19.221874 271.23608L20.628124 271.04858Q20.878124 272.2517 21.45625 272.78296Q22.034374 273.29858 22.878124 273.29858Q23.8625 273.29858 24.55 272.61108Q25.2375 271.92358 25.2375 270.90796Q25.2375 269.9392 24.596874 269.3142Q23.971874 268.6892 22.9875 268.6892Q22.596874 268.6892 22.003124 268.84546L22.159374 267.61108Q22.3 267.6267 22.378124 267.6267Q23.284374 267.6267 24.003124 267.15796Q24.721874 266.6892 24.721874 265.70483Q24.721874 264.9392 24.190624 264.4392Q23.675 263.92358 22.846874 263.92358Q22.01875 263.92358 21.471874 264.4392Q20.925 264.95483 20.76875 265.98608L19.3625 265.73608Q19.628124 264.3142 20.534374 263.54858Q21.45625 262.76733 22.815624 262.76733Q23.753124 262.76733 24.534374 263.17358Q25.33125 263.5642 25.7375 264.26733Q26.159374 264.95483 26.159374 265.73608Q26.159374 266.48608 25.753124 267.09546Q25.3625 267.70483 24.58125 268.0642Q25.596874 268.29858 26.159374 269.03296Q26.721874 269.76733 26.721874 270.8767Q26.721874 272.3767 25.628124 273.42358Q24.534374 274.47046 22.8625 274.47046Q21.3625 274.47046 20.3625 273.57983Q19.3625 272.67358 19.221874 271.23608ZM28.221874 271.23608L29.628124 271.04858Q29.878124 272.2517 30.45625 272.78296Q31.034374 273.29858 31.878124 273.29858Q32.8625 273.29858 33.55 272.61108Q34.2375 271.92358 34.2375 270.90796Q34.2375 269.9392 33.596874 269.3142Q32.971874 268.6892 31.9875 268.6892Q31.596874 268.6892 31.003124 268.84546L31.159374 267.61108Q31.3 267.6267 31.378124 267.6267Q32.284374 267.6267 33.003124 267.15796Q33.721874 266.6892 33.721874 265.70483Q33.721874 264.9392 33.190624 264.4392Q32.675 263.92358 31.846874 263.92358Q31.01875 263.92358 30.471874 264.4392Q29.925 264.95483 29.76875 265.98608L28.3625 265.73608Q28.628124 264.3142 29.534374 263.54858Q30.45625 262.76733 31.815624 262.76733Q32.753124 262.76733 33.534374 263.17358Q34.33125 263.5642 34.7375 264.26733Q35.159374 264.95483 35.159374 265.73608Q35.159374 266.48608 34.753124 267.09546Q34.3625 267.70483 33.58125 268.0642Q34.596874 268.29858 35.159374 269.03296Q35.721874 269.76733 35.721874 270.8767Q35.721874 272.3767 34.628124 273.42358Q33.534374 274.47046 31.8625 274.47046Q30.3625 274.47046 29.3625 273.57983Q28.3625 272.67358 28.221874 271.23608ZM38.003124 274.26733L38.003124 272.65796L39.6125 272.65796L39.6125 274.26733L38.003124 274.26733ZM41.315624 264.3142L41.315624 262.95483L48.721874 262.95483L48.721874 264.04858Q47.628124 265.22046 46.55 267.15796Q45.4875 269.07983 44.89375 271.11108Q44.471874 272.54858 44.3625 274.26733L42.909374 274.26733Q42.940624 272.90796 43.440624 271.0017Q43.95625 269.07983 44.89375 267.3142Q45.846874 265.53296 46.925 264.3142L41.315624 264.3142ZM50.4875 265.5642Q50.4875 264.32983 51.096874 263.47046Q51.721874 262.61108 52.89375 262.61108Q53.971874 262.61108 54.675 263.39233Q55.378124 264.15796 55.378124 265.64233Q55.378124 267.09546 54.659374 267.89233Q53.95625 268.67358 52.909374 268.67358Q51.8625 268.67358 51.175 267.90796Q50.4875 267.1267 50.4875 265.5642ZM52.925 263.57983Q52.409374 263.57983 52.05 264.03296Q51.70625 264.48608 51.70625 265.70483Q51.70625 266.79858 52.05 267.2517Q52.409374 267.70483 52.925 267.70483Q53.45625 267.70483 53.8 267.2517Q54.159374 266.79858 54.159374 265.59546Q54.159374 264.48608 53.8 264.03296Q53.45625 263.57983 52.925 263.57983ZM52.940624 274.6892L59.20625 262.61108L60.346874 262.61108L54.096874 274.6892L52.940624 274.6892ZM57.89375 271.57983Q57.89375 270.34546 58.503124 269.48608Q59.128124 268.6267 60.3 268.6267Q61.378124 268.6267 62.08125 269.40796Q62.8 270.17358 62.8 271.65796Q62.8 273.11108 62.08125 273.90796Q61.3625 274.6892 60.315624 274.6892Q59.26875 274.6892 58.58125 273.90796Q57.89375 273.1267 57.89375 271.57983ZM60.346874 269.59546Q59.815624 269.59546 59.45625 270.04858Q59.1125 270.5017 59.1125 271.72046Q59.1125 272.8142 59.45625 273.26733Q59.815624 273.72046 60.33125 273.72046Q60.878124 273.72046 61.221874 273.26733Q61.565624 272.8142 61.565624 271.61108Q61.565624 270.5017 61.20625 270.04858Q60.8625 269.59546 60.346874 269.59546Z" fill-rule="nonzero"/><path stroke="#757575" stroke-width="1.0" stroke-linecap="butt" d="M18.55 257.76733L145.23334 257.76733L169.42964 257.76733" fill-rule="nonzero"/><path fill="#9e9e9e" d="M171.42964 257.76733C171.42964 256.66278 170.53421 255.76735 169.42964 255.76735C168.32507 255.76735 167.42964 256.66278 167.42964 257.76733C167.42964 258.87192 168.32507 259.76733 169.42964 259.76733C170.53421 259.76733 171.42964 258.87192 171.42964 257.76733" fill-rule="nonzero"/><path fill="#efefef" d="M551.6375 69.916664L551.6375 58.46354L553.91876 58.46354L556.6375 66.572914Q557.0125 67.697914 557.1844 68.260414Q557.3719 67.635414 557.79376 66.43229L560.52814 58.46354L562.575 58.46354L562.575 69.916664L561.10626 69.916664L561.10626 60.322914L557.77814 69.916664L556.41876 69.916664L553.10626 60.166664L553.10626 69.916664L551.6375 69.916664ZM569.91876 68.885414Q569.1375 69.55729 568.41876 69.83854Q567.7 70.104164 566.8719 70.104164Q565.4969 70.104164 564.7625 69.43229Q564.02814 68.760414 564.02814 67.729164Q564.02814 67.11979 564.3094 66.61979Q564.59064 66.104164 565.02814 65.80729Q565.48126 65.49479 566.04376 65.33854Q566.46564 65.229164 567.29376 65.135414Q568.9969 64.93229 569.8094 64.65104Q569.8094 64.354164 569.8094 64.27604Q569.8094 63.416664 569.41876 63.072914Q568.8719 62.58854 567.8094 62.58854Q566.825 62.58854 566.34064 62.947914Q565.8719 63.291664 565.65314 64.166664L564.27814 63.979164Q564.46564 63.104164 564.8875 62.55729Q565.325 62.010414 566.1375 61.729164Q566.95 61.43229 568.0125 61.43229Q569.075 61.43229 569.73126 61.68229Q570.40314 61.93229 570.71564 62.30729Q571.02814 62.68229 571.15314 63.260414Q571.23126 63.61979 571.23126 64.55729L571.23126 66.43229Q571.23126 68.40104 571.3094 68.916664Q571.40314 69.43229 571.66876 69.916664L570.2 69.916664Q569.98126 69.479164 569.91876 68.885414ZM569.8094 65.74479Q569.04376 66.05729 567.5125 66.27604Q566.6375 66.40104 566.27814 66.55729Q565.91876 66.71354 565.71564 67.02604Q565.52814 67.322914 565.52814 67.68229Q565.52814 68.24479 565.95 68.61979Q566.3875 68.99479 567.2 68.99479Q568.0125 68.99479 568.6375 68.65104Q569.27814 68.291664 569.575 67.666664Q569.8094 67.197914 569.8094 66.260414L569.8094 65.74479ZM573.5125 73.104164L573.5125 61.61979L574.79376 61.61979L574.79376 62.697914Q575.2469 62.05729 575.8094 61.74479Q576.3875 61.43229 577.2 61.43229Q578.2625 61.43229 579.075 61.979164Q579.8875 62.52604 580.29376 63.52604Q580.71564 64.510414 580.71564 65.697914Q580.71564 66.979164 580.2469 67.99479Q579.79376 69.010414 578.91876 69.55729Q578.0594 70.104164 577.09064 70.104164Q576.3875 70.104164 575.825 69.80729Q575.27814 69.510414 574.91876 69.05729L574.91876 73.104164L573.5125 73.104164ZM574.77814 65.80729Q574.77814 67.416664 575.41876 68.18229Q576.075 68.947914 576.9969 68.947914Q577.9344 68.947914 578.60626 68.15104Q579.27814 67.354164 579.27814 65.697914Q579.27814 64.104164 578.6219 63.322914Q577.96564 62.52604 577.0594 62.52604Q576.16876 62.52604 575.46564 63.36979Q574.77814 64.21354 574.77814 65.80729Z" fill-rule="nonzero"/><path fill="#9e9e9e" d="M553.5125 90.55729L553.5125 91.916664L545.9344 91.916664Q545.91876 91.40104 546.10626 90.93229Q546.3875 90.166664 547.02814 89.416664Q547.66876 88.666664 548.8719 87.68229Q550.73126 86.15104 551.3875 85.260414Q552.04376 84.354164 552.04376 83.55729Q552.04376 82.729164 551.45 82.15104Q550.85626 81.572914 549.8875 81.572914Q548.8719 81.572914 548.2625 82.18229Q547.65314 82.791664 547.65314 83.86979L546.2 83.729164Q546.35626 82.104164 547.325 81.260414Q548.29376 80.416664 549.91876 80.416664Q551.575 80.416664 552.52814 81.33854Q553.4969 82.24479 553.4969 83.58854Q553.4969 84.27604 553.21564 84.947914Q552.9344 85.604164 552.27814 86.33854Q551.6219 87.072914 550.10626 88.354164Q548.84064 89.416664 548.48126 89.80729Q548.1219 90.18229 547.8875 90.55729L553.5125 90.55729ZM555.90314 91.916664L555.90314 90.30729L557.5125 90.30729L557.5125 91.916664L555.90314 91.916664ZM559.325 89.260414L560.6844 89.135414Q560.85626 90.08854 561.34064 90.52604Q561.825 90.947914 562.575 90.947914Q563.23126 90.947914 563.71564 90.65104Q564.2 90.354164 564.5125 89.86979Q564.825 89.36979 565.02814 88.52604Q565.2469 87.68229 565.2469 86.80729Q565.2469 86.71354 565.2469 86.52604Q564.825 87.197914 564.09064 87.61979Q563.35626 88.02604 562.5125 88.02604Q561.09064 88.02604 560.10626 86.99479Q559.1219 85.96354 559.1219 84.27604Q559.1219 82.541664 560.1375 81.479164Q561.16876 80.416664 562.71564 80.416664Q563.84064 80.416664 564.7625 81.02604Q565.6844 81.61979 566.16876 82.729164Q566.65314 83.83854 566.65314 85.947914Q566.65314 88.15104 566.16876 89.447914Q565.7 90.74479 564.7469 91.43229Q563.8094 92.11979 562.54376 92.11979Q561.2 92.11979 560.34064 91.36979Q559.4969 90.61979 559.325 89.260414ZM565.09064 84.21354Q565.09064 82.99479 564.4344 82.291664Q563.79376 81.572914 562.8875 81.572914Q561.95 81.572914 561.2469 82.33854Q560.5594 83.104164 560.5594 84.322914Q560.5594 85.416664 561.21564 86.104164Q561.8875 86.791664 562.85626 86.791664Q563.825 86.791664 564.45 86.104164Q565.09064 85.416664 565.09064 84.21354ZM568.3875 83.21354Q568.3875 81.979164 568.9969 81.11979Q569.6219 80.260414 570.79376 80.260414Q571.8719 80.260414 572.575 81.041664Q573.27814 81.80729 573.27814 83.291664Q573.27814 84.74479 572.5594 85.541664Q571.85626 86.322914 570.8094 86.322914Q569.7625 86.322914 569.075 85.55729Q568.3875 84.77604 568.3875 83.21354ZM570.825 81.229164Q570.3094 81.229164 569.95 81.68229Q569.60626 82.135414 569.60626 83.354164Q569.60626 84.447914 569.95 84.90104Q570.3094 85.354164 570.825 85.354164Q571.35626 85.354164 571.7 84.90104Q572.0594 84.447914 572.0594 83.24479Q572.0594 82.135414 571.7 81.68229Q571.35626 81.229164 570.825 81.229164ZM570.84064 92.33854L577.10626 80.260414L578.2469 80.260414L571.9969 92.33854L570.84064 92.33854ZM575.79376 89.229164Q575.79376 87.99479 576.40314 87.135414Q577.02814 86.27604 578.2 86.27604Q579.27814 86.27604 579.98126 87.05729Q580.7 87.822914 580.7 89.30729Q580.7 90.760414 579.98126 91.55729Q579.2625 92.33854 578.21564 92.33854Q577.16876 92.33854 576.48126 91.55729Q575.79376 90.77604 575.79376 89.229164ZM578.2469 87.24479Q577.71564 87.24479 577.35626 87.697914Q577.0125 88.15104 577.0125 89.36979Q577.0125 90.46354 577.35626 90.916664Q577.71564 91.36979 578.23126 91.36979Q578.77814 91.36979 579.1219 90.916664Q579.46564 90.46354 579.46564 89.260414Q579.46564 88.15104 579.10626 87.697914Q578.7625 87.24479 578.2469 87.24479Z" fill-rule="nonzero"/><path stroke="#757575" stroke-width="1.0" stroke-linecap="butt" d="M581.45 75.416664L454.76666 75.416664L312.79007 62.934933" fill-rule="nonzero"/><path fill="#9e9e9e" d="M314.79007 62.934933C314.79007 61.830364 313.89462 60.934933 312.79007 60.934933C311.6855 60.934933 310.79007 61.830364 310.79007 62.934933C310.79007 64.039505 311.6855 64.93493 312.79007 64.93493C313.89462 64.93493 314.79007 64.039505 314.79007 62.934933" fill-rule="nonzero"/><path fill="#efefef" d="M498.6844 110.916664L498.6844 99.46354L503.0125 99.46354Q504.15314 99.46354 504.7469 99.572914Q505.59064 99.71354 506.15314 100.104164Q506.73126 100.49479 507.075 101.21354Q507.4344 101.916664 507.4344 102.77604Q507.4344 104.229164 506.4969 105.24479Q505.575 106.260414 503.1375 106.260414L500.2 106.260414L500.2 110.916664L498.6844 110.916664ZM500.2 104.90104L503.16876 104.90104Q504.6375 104.90104 505.2469 104.354164Q505.8719 103.80729 505.8719 102.822914Q505.8719 102.104164 505.4969 101.58854Q505.1375 101.072914 504.54376 100.916664Q504.16876 100.80729 503.1375 100.80729L500.2 100.80729L500.2 104.90104ZM515.1844 108.24479L516.6375 108.416664Q516.29376 109.697914 515.35626 110.40104Q514.4344 111.104164 512.9969 111.104164Q511.16876 111.104164 510.10626 109.979164Q509.04376 108.854164 509.04376 106.83854Q509.04376 104.74479 510.1219 103.58854Q511.2 102.43229 512.91876 102.43229Q514.575 102.43229 515.6219 103.572914Q516.6844 104.697914 516.6844 106.74479Q516.6844 106.86979 516.6844 107.11979L510.4969 107.11979Q510.575 108.49479 511.2625 109.229164Q511.96564 109.947914 512.9969 109.947914Q513.77814 109.947914 514.325 109.541664Q514.8719 109.135414 515.1844 108.24479ZM510.575 105.96354L515.2 105.96354Q515.10626 104.916664 514.66876 104.40104Q513.9969 103.58854 512.9344 103.58854Q511.96564 103.58854 511.29376 104.24479Q510.6375 104.885414 510.575 105.96354ZM518.4969 110.916664L518.4969 102.61979L519.7625 102.61979L519.7625 103.86979Q520.2469 102.99479 520.65314 102.71354Q521.0594 102.43229 521.5594 102.43229Q522.2625 102.43229 522.9969 102.885414L522.5125 104.18229Q521.9969 103.885414 521.48126 103.885414Q521.02814 103.885414 520.65314 104.166664Q520.29376 104.43229 520.1375 104.93229Q519.90314 105.68229 519.90314 106.572914L519.90314 110.916664L518.4969 110.916664ZM522.95 108.43229L524.34064 108.21354Q524.45 109.05729 524.98126 109.510414Q525.52814 109.947914 526.48126 109.947914Q527.45 109.947914 527.91876 109.55729Q528.3875 109.15104 528.3875 108.61979Q528.3875 108.15104 527.98126 107.86979Q527.6844 107.68229 526.54376 107.40104Q524.9969 107.010414 524.3875 106.729164Q523.79376 106.43229 523.48126 105.93229Q523.1844 105.43229 523.1844 104.822914Q523.1844 104.260414 523.4344 103.791664Q523.6844 103.322914 524.1219 103.010414Q524.45 102.760414 525.0125 102.604164Q525.59064 102.43229 526.23126 102.43229Q527.21564 102.43229 527.95 102.71354Q528.6844 102.99479 529.02814 103.479164Q529.3875 103.947914 529.52814 104.760414L528.15314 104.947914Q528.0594 104.30729 527.60626 103.947914Q527.15314 103.58854 526.34064 103.58854Q525.3719 103.58854 524.95 103.916664Q524.54376 104.229164 524.54376 104.65104Q524.54376 104.93229 524.71564 105.15104Q524.8875 105.36979 525.2469 105.52604Q525.46564 105.604164 526.4969 105.885414Q527.98126 106.27604 528.575 106.541664Q529.16876 106.791664 529.4969 107.27604Q529.84064 107.760414 529.84064 108.479164Q529.84064 109.18229 529.41876 109.80729Q529.0125 110.416664 528.23126 110.760414Q527.46564 111.104164 526.4969 111.104164Q524.8719 111.104164 524.02814 110.43229Q523.1844 109.760414 522.95 108.43229ZM531.5125 114.104164L531.5125 102.61979L532.79376 102.61979L532.79376 103.697914Q533.2469 103.05729 533.8094 102.74479Q534.3875 102.43229 535.2 102.43229Q536.2625 102.43229 537.075 102.979164Q537.8875 103.52604 538.29376 104.52604Q538.71564 105.510414 538.71564 106.697914Q538.71564 107.979164 538.2469 108.99479Q537.79376 110.010414 536.91876 110.55729Q536.0594 111.104164 535.09064 111.104164Q534.3875 111.104164 533.825 110.80729Q533.27814 110.510414 532.91876 110.05729L532.91876 114.104164L531.5125 114.104164ZM532.77814 106.80729Q532.77814 108.416664 533.41876 109.18229Q534.075 109.947914 534.9969 109.947914Q535.9344 109.947914 536.60626 109.15104Q537.27814 108.354164 537.27814 106.697914Q537.27814 105.104164 536.6219 104.322914Q535.96564 103.52604 535.0594 103.52604Q534.16876 103.52604 533.46564 104.36979Q532.77814 105.21354 532.77814 106.80729ZM546.1844 108.24479L547.6375 108.416664Q547.29376 109.697914 546.35626 110.40104Q545.4344 111.104164 543.9969 111.104164Q542.16876 111.104164 541.10626 109.979164Q540.04376 108.854164 540.04376 106.83854Q540.04376 104.74479 541.1219 103.58854Q542.2 102.43229 543.91876 102.43229Q545.575 102.43229 546.6219 103.572914Q547.6844 104.697914 547.6844 106.74479Q547.6844 106.86979 547.6844 107.11979L541.4969 107.11979Q541.575 108.49479 542.2625 109.229164Q542.96564 109.947914 543.9969 109.947914Q544.77814 109.947914 545.325 109.541664Q545.8719 109.135414 546.1844 108.24479ZM541.575 105.96354L546.2 105.96354Q546.10626 104.916664 545.66876 104.40104Q544.9969 103.58854 543.9344 103.58854Q542.96564 103.58854 542.29376 104.24479Q541.6375 104.885414 541.575 105.96354ZM554.91876 107.86979L556.3094 108.05729Q556.075 109.479164 555.1375 110.291664Q554.21564 111.104164 552.85626 111.104164Q551.15314 111.104164 550.10626 109.99479Q549.075 108.86979 549.075 106.791664Q549.075 105.447914 549.5125 104.447914Q549.96564 103.43229 550.8719 102.93229Q551.79376 102.43229 552.85626 102.43229Q554.21564 102.43229 555.075 103.11979Q555.9344 103.791664 556.16876 105.05729L554.8094 105.260414Q554.60626 104.43229 554.10626 104.010414Q553.6219 103.58854 552.91876 103.58854Q551.85626 103.58854 551.1844 104.354164Q550.52814 105.104164 550.52814 106.760414Q550.52814 108.43229 551.16876 109.197914Q551.8094 109.947914 552.84064 109.947914Q553.66876 109.947914 554.21564 109.447914Q554.77814 108.93229 554.91876 107.86979ZM560.575 109.65104L560.77814 110.90104Q560.1844 111.02604 559.71564 111.02604Q558.95 111.02604 558.52814 110.791664Q558.10626 110.541664 557.9344 110.15104Q557.7625 109.74479 557.7625 108.479164L557.7625 103.71354L556.73126 103.71354L556.73126 102.61979L557.7625 102.61979L557.7625 100.55729L559.16876 99.71354L559.16876 102.61979L560.575 102.61979L560.575 103.71354L559.16876 103.71354L559.16876 108.55729Q559.16876 109.166664 559.23126 109.33854Q559.3094 109.510414 559.48126 109.61979Q559.65314 109.71354 559.96564 109.71354Q560.2 109.71354 560.575 109.65104ZM561.5125 101.072914L561.5125 99.46354L562.91876 99.46354L562.91876 101.072914L561.5125 101.072914ZM561.5125 110.916664L561.5125 102.61979L562.91876 102.61979L562.91876 110.916664L561.5125 110.916664ZM567.8094 110.916664L564.65314 102.61979L566.1375 102.61979L567.91876 107.58854Q568.21564 108.385414 568.45 109.260414Q568.6375 108.604164 568.98126 107.68229L570.825 102.61979L572.2625 102.61979L569.1219 110.916664L567.8094 110.916664ZM579.1844 108.24479L580.6375 108.416664Q580.29376 109.697914 579.35626 110.40104Q578.4344 111.104164 576.9969 111.104164Q575.16876 111.104164 574.10626 109.979164Q573.04376 108.854164 573.04376 106.83854Q573.04376 104.74479 574.1219 103.58854Q575.2 102.43229 576.91876 102.43229Q578.575 102.43229 579.6219 103.572914Q580.6844 104.697914 580.6844 106.74479Q580.6844 106.86979 580.6844 107.11979L574.4969 107.11979Q574.575 108.49479 575.2625 109.229164Q575.96564 109.947914 576.9969 109.947914Q577.77814 109.947914 578.325 109.541664Q578.8719 109.135414 579.1844 108.24479ZM574.575 105.96354L579.2 105.96354Q579.10626 104.916664 578.66876 104.40104Q577.9969 103.58854 576.9344 103.58854Q575.96564 103.58854 575.29376 104.24479Q574.6375 104.885414 574.575 105.96354Z" fill-rule="nonzero"/><path fill="#9e9e9e" d="M546.1219 129.88542L547.52814 129.69792Q547.77814 130.90105 548.35626 131.4323Q548.9344 131.94792 549.77814 131.94792Q550.7625 131.94792 551.45 131.26042Q552.1375 130.57292 552.1375 129.5573Q552.1375 128.58855 551.4969 127.96355Q550.8719 127.33855 549.8875 127.33855Q549.4969 127.33855 548.90314 127.4948L549.0594 126.26042Q549.2 126.27605 549.27814 126.27605Q550.1844 126.27605 550.90314 125.8073Q551.6219 125.33855 551.6219 124.35417Q551.6219 123.58855 551.09064 123.08855Q550.575 122.57292 549.7469 122.57292Q548.91876 122.57292 548.3719 123.08855Q547.825 123.60417 547.66876 124.63542L546.2625 124.38542Q546.52814 122.96355 547.4344 122.19792Q548.35626 121.41667 549.71564 121.41667Q550.65314 121.41667 551.4344 121.82292Q552.23126 122.21355 552.6375 122.91667Q553.0594 123.60417 553.0594 124.38542Q553.0594 125.13542 552.65314 125.7448Q552.2625 126.35417 551.48126 126.71355Q552.4969 126.94792 553.0594 127.6823Q553.6219 128.41667 553.6219 129.52605Q553.6219 131.02605 552.52814 132.07292Q551.4344 133.1198 549.7625 133.1198Q548.2625 133.1198 547.2625 132.22917Q546.2625 131.32292 546.1219 129.88542ZM555.90314 132.91667L555.90314 131.3073L557.5125 131.3073L557.5125 132.91667L555.90314 132.91667ZM561.27814 126.69792Q560.40314 126.38542 559.98126 125.79167Q559.5594 125.19792 559.5594 124.3698Q559.5594 123.1198 560.45 122.27605Q561.35626 121.41667 562.85626 121.41667Q564.35626 121.41667 565.2625 122.29167Q566.1844 123.15105 566.1844 124.40105Q566.1844 125.19792 565.7625 125.79167Q565.34064 126.38542 564.4969 126.69792Q565.54376 127.04167 566.09064 127.8073Q566.65314 128.57292 566.65314 129.63542Q566.65314 131.10417 565.60626 132.1198Q564.575 133.1198 562.8719 133.1198Q561.1844 133.1198 560.1375 132.1198Q559.10626 131.10417 559.10626 129.60417Q559.10626 128.47917 559.66876 127.72917Q560.23126 126.97917 561.27814 126.69792ZM560.9969 124.32292Q560.9969 125.13542 561.5125 125.65105Q562.04376 126.16667 562.8875 126.16667Q563.7 126.16667 564.21564 125.65105Q564.73126 125.13542 564.73126 124.40105Q564.73126 123.6198 564.2 123.10417Q563.66876 122.57292 562.8719 122.57292Q562.0594 122.57292 561.52814 123.08855Q560.9969 123.60417 560.9969 124.32292ZM560.54376 129.60417Q560.54376 130.21355 560.825 130.77605Q561.1219 131.33855 561.6844 131.65105Q562.2469 131.94792 562.8875 131.94792Q563.90314 131.94792 564.5594 131.3073Q565.21564 130.65105 565.21564 129.65105Q565.21564 128.63542 564.52814 127.97917Q563.85626 127.3073 562.84064 127.3073Q561.85626 127.3073 561.2 127.96355Q560.54376 128.6198 560.54376 129.60417ZM568.3875 124.21355Q568.3875 122.97917 568.9969 122.1198Q569.6219 121.26042 570.79376 121.26042Q571.8719 121.26042 572.575 122.04167Q573.27814 122.8073 573.27814 124.29167Q573.27814 125.7448 572.5594 126.54167Q571.85626 127.32292 570.8094 127.32292Q569.7625 127.32292 569.075 126.5573Q568.3875 125.77605 568.3875 124.21355ZM570.825 122.22917Q570.3094 122.22917 569.95 122.6823Q569.60626 123.13542 569.60626 124.35417Q569.60626 125.44792 569.95 125.90105Q570.3094 126.35417 570.825 126.35417Q571.35626 126.35417 571.7 125.90105Q572.0594 125.44792 572.0594 124.2448Q572.0594 123.13542 571.7 122.6823Q571.35626 122.22917 570.825 122.22917ZM570.84064 133.33855L577.10626 121.26042L578.2469 121.26042L571.9969 133.33855L570.84064 133.33855ZM575.79376 130.22917Q575.79376 128.9948 576.40314 128.13542Q577.02814 127.27605 578.2 127.27605Q579.27814 127.27605 579.98126 128.0573Q580.7 128.82292 580.7 130.3073Q580.7 131.76042 579.98126 132.5573Q579.2625 133.33855 578.21564 133.33855Q577.16876 133.33855 576.48126 132.5573Q575.79376 131.77605 575.79376 130.22917ZM578.2469 128.2448Q577.71564 128.2448 577.35626 128.69792Q577.0125 129.15105 577.0125 130.3698Q577.0125 131.46355 577.35626 131.91667Q577.71564 132.3698 578.23126 132.3698Q578.77814 132.3698 579.1219 131.91667Q579.46564 131.46355 579.46564 130.26042Q579.46564 129.15105 579.10626 128.69792Q578.7625 128.2448 578.2469 128.2448Z" fill-rule="nonzero"/><path stroke="#757575" stroke-width="1.0" stroke-linecap="butt" d="M581.45 116.416664L454.76666 116.416664L342.04562 68.75423" fill-rule="nonzero"/><path fill="#9e9e9e" d="M344.04562 68.75423C344.04562 67.64966 343.15018 66.75423 342.04562 66.75423C340.94104 66.75423 340.04562 67.64966 340.04562 68.75423C340.04562 69.858795 340.94104 70.75423 342.04562 70.75423C343.15018 70.75423 344.04562 69.858795 344.04562 68.75423" fill-rule="nonzero"/><path fill="#efefef" d="M531.6844 168.5212L531.6844 157.06807L536.0125 157.06807Q537.15314 157.06807 537.7469 157.17744Q538.59064 157.31807 539.15314 157.7087Q539.73126 158.09932 540.075 158.81807Q540.4344 159.5212 540.4344 160.38057Q540.4344 161.8337 539.4969 162.84932Q538.575 163.86494 536.1375 163.86494L533.2 163.86494L533.2 168.5212L531.6844 168.5212ZM533.2 162.50557L536.16876 162.50557Q537.6375 162.50557 538.2469 161.9587Q538.8719 161.41182 538.8719 160.42744Q538.8719 159.7087 538.4969 159.19307Q538.1375 158.67744 537.54376 158.5212Q537.16876 158.41182 536.1375 158.41182L533.2 158.41182L533.2 162.50557ZM548.1844 165.84932L549.6375 166.0212Q549.29376 167.30244 548.35626 168.00557Q547.4344 168.7087 545.9969 168.7087Q544.16876 168.7087 543.10626 167.5837Q542.04376 166.4587 542.04376 164.44307Q542.04376 162.34932 543.1219 161.19307Q544.2 160.03682 545.91876 160.03682Q547.575 160.03682 548.6219 161.17744Q549.6844 162.30244 549.6844 164.34932Q549.6844 164.47432 549.6844 164.72432L543.4969 164.72432Q543.575 166.09932 544.2625 166.8337Q544.96564 167.55244 545.9969 167.55244Q546.77814 167.55244 547.325 167.1462Q547.8719 166.73994 548.1844 165.84932ZM543.575 163.56807L548.2 163.56807Q548.10626 162.5212 547.66876 162.00557Q546.9969 161.19307 545.9344 161.19307Q544.96564 161.19307 544.29376 161.84932Q543.6375 162.48994 543.575 163.56807ZM550.98126 164.36494Q550.98126 162.06807 552.2625 160.9587Q553.34064 160.03682 554.8719 160.03682Q556.59064 160.03682 557.66876 161.16182Q558.7625 162.2712 558.7625 164.25557Q558.7625 165.84932 558.27814 166.7712Q557.79376 167.69307 556.8719 168.2087Q555.96564 168.7087 554.8719 168.7087Q553.1375 168.7087 552.0594 167.59932Q550.98126 166.47432 550.98126 164.36494ZM552.4344 164.36494Q552.4344 165.9587 553.1219 166.75557Q553.825 167.55244 554.8719 167.55244Q555.91876 167.55244 556.60626 166.75557Q557.3094 165.9587 557.3094 164.31807Q557.3094 162.78682 556.60626 161.98994Q555.91876 161.19307 554.8719 161.19307Q553.825 161.19307 553.1219 161.98994Q552.4344 162.7712 552.4344 164.36494ZM560.5125 171.7087L560.5125 160.22432L561.79376 160.22432L561.79376 161.30244Q562.2469 160.66182 562.8094 160.34932Q563.3875 160.03682 564.2 160.03682Q565.2625 160.03682 566.075 160.5837Q566.8875 161.13057 567.29376 162.13057Q567.71564 163.11494 567.71564 164.30244Q567.71564 165.5837 567.2469 166.59932Q566.79376 167.61494 565.91876 168.16182Q565.0594 168.7087 564.09064 168.7087Q563.3875 168.7087 562.825 168.41182Q562.27814 168.11494 561.91876 167.66182L561.91876 171.7087L560.5125 171.7087ZM561.77814 164.41182Q561.77814 166.0212 562.41876 166.78682Q563.075 167.55244 563.9969 167.55244Q564.9344 167.55244 565.60626 166.75557Q566.27814 165.9587 566.27814 164.30244Q566.27814 162.7087 565.6219 161.92744Q564.96564 161.13057 564.0594 161.13057Q563.16876 161.13057 562.46564 161.97432Q561.77814 162.81807 561.77814 164.41182ZM569.48126 168.5212L569.48126 157.06807L570.8875 157.06807L570.8875 168.5212L569.48126 168.5212ZM579.1844 165.84932L580.6375 166.0212Q580.29376 167.30244 579.35626 168.00557Q578.4344 168.7087 576.9969 168.7087Q575.16876 168.7087 574.10626 167.5837Q573.04376 166.4587 573.04376 164.44307Q573.04376 162.34932 574.1219 161.19307Q575.2 160.03682 576.91876 160.03682Q578.575 160.03682 579.6219 161.17744Q580.6844 162.30244 580.6844 164.34932Q580.6844 164.47432 580.6844 164.72432L574.4969 164.72432Q574.575 166.09932 575.2625 166.8337Q575.96564 167.55244 576.9969 167.55244Q577.77814 167.55244 578.325 167.1462Q578.8719 166.73994 579.1844 165.84932ZM574.575 163.56807L579.2 163.56807Q579.10626 162.5212 578.66876 162.00557Q577.9969 161.19307 576.9344 161.19307Q575.96564 161.19307 575.29376 161.84932Q574.6375 162.48994 574.575 163.56807Z" fill-rule="nonzero"/><path fill="#9e9e9e" d="M544.5125 189.16182L544.5125 190.5212L536.9344 190.5212Q536.91876 190.00557 537.10626 189.53682Q537.3875 188.7712 538.02814 188.0212Q538.66876 187.2712 539.8719 186.28682Q541.73126 184.75557 542.3875 183.86494Q543.04376 182.9587 543.04376 182.16182Q543.04376 181.3337 542.45 180.75557Q541.85626 180.17744 540.8875 180.17744Q539.8719 180.17744 539.2625 180.78682Q538.65314 181.3962 538.65314 182.47432L537.2 182.3337Q537.35626 180.7087 538.325 179.86494Q539.29376 179.0212 540.91876 179.0212Q542.575 179.0212 543.52814 179.94307Q544.4969 180.84932 544.4969 182.19307Q544.4969 182.88057 544.21564 183.55244Q543.9344 184.2087 543.27814 184.94307Q542.6219 185.67744 541.10626 186.9587Q539.84064 188.0212 539.48126 188.41182Q539.1219 188.78682 538.8875 189.16182L544.5125 189.16182ZM546.325 187.86494L547.6844 187.73994Q547.85626 188.69307 548.34064 189.13057Q548.825 189.55244 549.575 189.55244Q550.23126 189.55244 550.71564 189.25557Q551.2 188.9587 551.5125 188.47432Q551.825 187.97432 552.02814 187.13057Q552.2469 186.28682 552.2469 185.41182Q552.2469 185.31807 552.2469 185.13057Q551.825 185.80244 551.09064 186.22432Q550.35626 186.63057 549.5125 186.63057Q548.09064 186.63057 547.10626 185.59932Q546.1219 184.56807 546.1219 182.88057Q546.1219 181.1462 547.1375 180.0837Q548.16876 179.0212 549.71564 179.0212Q550.84064 179.0212 551.7625 179.63057Q552.6844 180.22432 553.16876 181.3337Q553.65314 182.44307 553.65314 184.55244Q553.65314 186.75557 553.16876 188.05244Q552.7 189.34932 551.7469 190.03682Q550.8094 190.72432 549.54376 190.72432Q548.2 190.72432 547.34064 189.97432Q546.4969 189.22432 546.325 187.86494ZM552.09064 182.81807Q552.09064 181.59932 551.4344 180.8962Q550.79376 180.17744 549.8875 180.17744Q548.95 180.17744 548.2469 180.94307Q547.5594 181.7087 547.5594 182.92744Q547.5594 184.0212 548.21564 184.7087Q548.8875 185.3962 549.85626 185.3962Q550.825 185.3962 551.45 184.7087Q552.09064 184.0212 552.09064 182.81807ZM555.90314 190.5212L555.90314 188.91182L557.5125 188.91182L557.5125 190.5212L555.90314 190.5212ZM561.27814 184.30244Q560.40314 183.98994 559.98126 183.3962Q559.5594 182.80244 559.5594 181.97432Q559.5594 180.72432 560.45 179.88057Q561.35626 179.0212 562.85626 179.0212Q564.35626 179.0212 565.2625 179.8962Q566.1844 180.75557 566.1844 182.00557Q566.1844 182.80244 565.7625 183.3962Q565.34064 183.98994 564.4969 184.30244Q565.54376 184.6462 566.09064 185.41182Q566.65314 186.17744 566.65314 187.23994Q566.65314 188.7087 565.60626 189.72432Q564.575 190.72432 562.8719 190.72432Q561.1844 190.72432 560.1375 189.72432Q559.10626 188.7087 559.10626 187.2087Q559.10626 186.0837 559.66876 185.3337Q560.23126 184.5837 561.27814 184.30244ZM560.9969 181.92744Q560.9969 182.73994 561.5125 183.25557Q562.04376 183.7712 562.8875 183.7712Q563.7 183.7712 564.21564 183.25557Q564.73126 182.73994 564.73126 182.00557Q564.73126 181.22432 564.2 180.7087Q563.66876 180.17744 562.8719 180.17744Q562.0594 180.17744 561.52814 180.69307Q560.9969 181.2087 560.9969 181.92744ZM560.54376 187.2087Q560.54376 187.81807 560.825 188.38057Q561.1219 188.94307 561.6844 189.25557Q562.2469 189.55244 562.8875 189.55244Q563.90314 189.55244 564.5594 188.91182Q565.21564 188.25557 565.21564 187.25557Q565.21564 186.23994 564.52814 185.5837Q563.85626 184.91182 562.84064 184.91182Q561.85626 184.91182 561.2 185.56807Q560.54376 186.22432 560.54376 187.2087ZM568.3875 181.81807Q568.3875 180.5837 568.9969 179.72432Q569.6219 178.86494 570.79376 178.86494Q571.8719 178.86494 572.575 179.6462Q573.27814 180.41182 573.27814 181.8962Q573.27814 183.34932 572.5594 184.1462Q571.85626 184.92744 570.8094 184.92744Q569.7625 184.92744 569.075 184.16182Q568.3875 183.38057 568.3875 181.81807ZM570.825 179.8337Q570.3094 179.8337 569.95 180.28682Q569.60626 180.73994 569.60626 181.9587Q569.60626 183.05244 569.95 183.50557Q570.3094 183.9587 570.825 183.9587Q571.35626 183.9587 571.7 183.50557Q572.0594 183.05244 572.0594 181.84932Q572.0594 180.73994 571.7 180.28682Q571.35626 179.8337 570.825 179.8337ZM570.84064 190.94307L577.10626 178.86494L578.2469 178.86494L571.9969 190.94307L570.84064 190.94307ZM575.79376 187.8337Q575.79376 186.59932 576.40314 185.73994Q577.02814 184.88057 578.2 184.88057Q579.27814 184.88057 579.98126 185.66182Q580.7 186.42744 580.7 187.91182Q580.7 189.36494 579.98126 190.16182Q579.2625 190.94307 578.21564 190.94307Q577.16876 190.94307 576.48126 190.16182Q575.79376 189.38057 575.79376 187.8337ZM578.2469 185.84932Q577.71564 185.84932 577.35626 186.30244Q577.0125 186.75557 577.0125 187.97432Q577.0125 189.06807 577.35626 189.5212Q577.71564 189.97432 578.23126 189.97432Q578.77814 189.97432 579.1219 189.5212Q579.46564 189.06807 579.46564 187.86494Q579.46564 186.75557 579.10626 186.30244Q578.7625 185.84932 578.2469 185.84932Z" fill-rule="nonzero"/><path stroke="#757575" stroke-width="1.0" stroke-linecap="butt" d="M581.45 174.0212L454.76666 174.0212L438.1805 174.0212" fill-rule="nonzero"/><path fill="#9e9e9e" d="M440.1805 174.0212C440.1805 172.91661 439.2851 172.0212 438.1805 172.0212C437.07596 172.0212 436.1805 172.91661 436.1805 174.0212C436.1805 175.12576 437.07596 176.0212 438.1805 176.0212C439.2851 176.0212 440.1805 175.12576 440.1805 174.0212" fill-rule="nonzero"/><path fill="#efefef" d="M523.41876 326.45L527.825 314.9969L529.46564 314.9969L534.15314 326.45L532.41876 326.45L531.09064 322.98126L526.29376 322.98126L525.04376 326.45L523.41876 326.45ZM526.73126 321.7469L530.6219 321.7469L529.41876 318.575Q528.8719 317.1219 528.60626 316.2Q528.3875 317.29376 527.9969 318.3875L526.73126 321.7469ZM535.5125 326.45L535.5125 318.15314L536.77814 318.15314L536.77814 319.325Q537.6844 317.96564 539.41876 317.96564Q540.16876 317.96564 540.79376 318.23126Q541.41876 318.4969 541.73126 318.9344Q542.04376 319.3719 542.16876 319.98126Q542.2469 320.3719 542.2469 321.34064L542.2469 326.45L540.84064 326.45L540.84064 321.40314Q540.84064 320.54376 540.66876 320.1219Q540.5125 319.6844 540.09064 319.4344Q539.6844 319.1844 539.1219 319.1844Q538.21564 319.1844 537.5594 319.7625Q536.91876 320.325 536.91876 321.91876L536.91876 326.45L535.5125 326.45ZM544.5125 316.60626L544.5125 314.9969L545.91876 314.9969L545.91876 316.60626L544.5125 316.60626ZM544.5125 326.45L544.5125 318.15314L545.91876 318.15314L545.91876 326.45L544.5125 326.45ZM548.5125 326.45L548.5125 318.15314L549.7625 318.15314L549.7625 319.3094Q550.15314 318.7 550.79376 318.34064Q551.45 317.96564 552.27814 317.96564Q553.2 317.96564 553.79376 318.35626Q554.3875 318.73126 554.6219 319.41876Q555.60626 317.96564 557.1844 317.96564Q558.41876 317.96564 559.075 318.65314Q559.7469 319.325 559.7469 320.7469L559.7469 326.45L558.35626 326.45L558.35626 321.21564Q558.35626 320.3719 558.21564 320.0125Q558.075 319.6375 557.71564 319.41876Q557.35626 319.1844 556.8719 319.1844Q555.9969 319.1844 555.41876 319.7625Q554.84064 320.34064 554.84064 321.6219L554.84064 326.45L553.4344 326.45L553.4344 321.0594Q553.4344 320.1219 553.09064 319.65314Q552.7469 319.1844 551.96564 319.1844Q551.3719 319.1844 550.8719 319.4969Q550.3719 319.8094 550.1375 320.41876Q549.91876 321.0125 549.91876 322.1375L549.91876 326.45L548.5125 326.45ZM566.91876 325.41876Q566.1375 326.09064 565.41876 326.3719Q564.7 326.6375 563.8719 326.6375Q562.4969 326.6375 561.7625 325.96564Q561.02814 325.29376 561.02814 324.2625Q561.02814 323.65314 561.3094 323.15314Q561.59064 322.6375 562.02814 322.34064Q562.48126 322.02814 563.04376 321.8719Q563.46564 321.7625 564.29376 321.66876Q565.9969 321.46564 566.8094 321.1844Q566.8094 320.8875 566.8094 320.8094Q566.8094 319.95 566.41876 319.60626Q565.8719 319.1219 564.8094 319.1219Q563.825 319.1219 563.34064 319.48126Q562.8719 319.825 562.65314 320.7L561.27814 320.5125Q561.46564 319.6375 561.8875 319.09064Q562.325 318.54376 563.1375 318.2625Q563.95 317.96564 565.0125 317.96564Q566.075 317.96564 566.73126 318.21564Q567.40314 318.46564 567.71564 318.84064Q568.02814 319.21564 568.15314 319.79376Q568.23126 320.15314 568.23126 321.09064L568.23126 322.96564Q568.23126 324.9344 568.3094 325.45Q568.40314 325.96564 568.66876 326.45L567.2 326.45Q566.98126 326.0125 566.91876 325.41876ZM566.8094 322.27814Q566.04376 322.59064 564.5125 322.8094Q563.6375 322.9344 563.27814 323.09064Q562.91876 323.2469 562.71564 323.5594Q562.52814 323.85626 562.52814 324.21564Q562.52814 324.77814 562.95 325.15314Q563.3875 325.52814 564.2 325.52814Q565.0125 325.52814 565.6375 325.1844Q566.27814 324.825 566.575 324.2Q566.8094 323.73126 566.8094 322.79376L566.8094 322.27814ZM570.48126 326.45L570.48126 314.9969L571.8875 314.9969L571.8875 326.45L570.48126 326.45ZM573.95 323.96564L575.34064 323.7469Q575.45 324.59064 575.98126 325.04376Q576.52814 325.48126 577.48126 325.48126Q578.45 325.48126 578.91876 325.09064Q579.3875 324.6844 579.3875 324.15314Q579.3875 323.6844 578.98126 323.40314Q578.6844 323.21564 577.54376 322.9344Q575.9969 322.54376 575.3875 322.2625Q574.79376 321.96564 574.48126 321.46564Q574.1844 320.96564 574.1844 320.35626Q574.1844 319.79376 574.4344 319.325Q574.6844 318.85626 575.1219 318.54376Q575.45 318.29376 576.0125 318.1375Q576.59064 317.96564 577.23126 317.96564Q578.21564 317.96564 578.95 318.2469Q579.6844 318.52814 580.02814 319.0125Q580.3875 319.48126 580.52814 320.29376L579.15314 320.48126Q579.0594 319.84064 578.60626 319.48126Q578.15314 319.1219 577.34064 319.1219Q576.3719 319.1219 575.95 319.45Q575.54376 319.7625 575.54376 320.1844Q575.54376 320.46564 575.71564 320.6844Q575.8875 320.90314 576.2469 321.0594Q576.46564 321.1375 577.4969 321.41876Q578.98126 321.8094 579.575 322.075Q580.16876 322.325 580.4969 322.8094Q580.84064 323.29376 580.84064 324.0125Q580.84064 324.71564 580.41876 325.34064Q580.0125 325.95 579.23126 326.29376Q578.46564 326.6375 577.4969 326.6375Q575.8719 326.6375 575.02814 325.96564Q574.1844 325.29376 573.95 323.96564Z" fill-rule="nonzero"/><path fill="#9e9e9e" d="M542.41876 348.45L541.0125 348.45L541.0125 339.48126Q540.4969 339.96564 539.66876 340.45Q538.85626 340.9344 538.2 341.1844L538.2 339.825Q539.3719 339.2625 540.2469 338.48126Q541.1375 337.6844 541.5125 336.95L542.41876 336.95L542.41876 348.45ZM546.1219 345.45L547.59064 345.325Q547.7625 346.40314 548.35626 346.95Q548.95 347.48126 549.79376 347.48126Q550.8094 347.48126 551.5125 346.71564Q552.21564 345.95 552.21564 344.6844Q552.21564 343.48126 551.54376 342.79376Q550.8719 342.09064 549.77814 342.09064Q549.09064 342.09064 548.54376 342.40314Q547.9969 342.71564 547.6844 343.2L546.3719 343.02814L547.48126 337.15314L553.16876 337.15314L553.16876 338.4969L548.60626 338.4969L547.98126 341.575Q549.0125 340.85626 550.15314 340.85626Q551.65314 340.85626 552.6844 341.90314Q553.71564 342.9344 553.71564 344.5594Q553.71564 346.1219 552.8094 347.2469Q551.7 348.65314 549.79376 348.65314Q548.23126 348.65314 547.2469 347.77814Q546.2625 346.8875 546.1219 345.45ZM555.90314 348.45L555.90314 346.84064L557.5125 346.84064L557.5125 348.45L555.90314 348.45ZM563.6219 348.45L563.6219 345.7L558.65314 345.7L558.65314 344.41876L563.8875 336.9969L565.02814 336.9969L565.02814 344.41876L566.575 344.41876L566.575 345.7L565.02814 345.7L565.02814 348.45L563.6219 348.45ZM563.6219 344.41876L563.6219 339.2469L560.04376 344.41876L563.6219 344.41876ZM568.3875 339.7469Q568.3875 338.5125 568.9969 337.65314Q569.6219 336.79376 570.79376 336.79376Q571.8719 336.79376 572.575 337.575Q573.27814 338.34064 573.27814 339.825Q573.27814 341.27814 572.5594 342.075Q571.85626 342.85626 570.8094 342.85626Q569.7625 342.85626 569.075 342.09064Q568.3875 341.3094 568.3875 339.7469ZM570.825 337.7625Q570.3094 337.7625 569.95 338.21564Q569.60626 338.66876 569.60626 339.8875Q569.60626 340.98126 569.95 341.4344Q570.3094 341.8875 570.825 341.8875Q571.35626 341.8875 571.7 341.4344Q572.0594 340.98126 572.0594 339.77814Q572.0594 338.66876 571.7 338.21564Q571.35626 337.7625 570.825 337.7625ZM570.84064 348.8719L577.10626 336.79376L578.2469 336.79376L571.9969 348.8719L570.84064 348.8719ZM575.79376 345.7625Q575.79376 344.52814 576.40314 343.66876Q577.02814 342.8094 578.2 342.8094Q579.27814 342.8094 579.98126 343.59064Q580.7 344.35626 580.7 345.84064Q580.7 347.29376 579.98126 348.09064Q579.2625 348.8719 578.21564 348.8719Q577.16876 348.8719 576.48126 348.09064Q575.79376 347.3094 575.79376 345.7625ZM578.2469 343.77814Q577.71564 343.77814 577.35626 344.23126Q577.0125 344.6844 577.0125 345.90314Q577.0125 346.9969 577.35626 347.45Q577.71564 347.90314 578.23126 347.90314Q578.77814 347.90314 579.1219 347.45Q579.46564 346.9969 579.46564 345.79376Q579.46564 344.6844 579.10626 344.23126Q578.7625 343.77814 578.2469 343.77814Z" fill-rule="nonzero"/><path stroke="#757575" stroke-width="1.0" stroke-linecap="butt" d="M581.45 331.95L454.76666 331.95L350.11572 335.8276" fill-rule="nonzero"/><path fill="#9e9e9e" d="M352.11572 335.8276C352.11572 334.72305 351.22028 333.8276 350.11572 333.8276C349.01114 333.8276 348.11572 334.72305 348.11572 335.8276C348.11572 336.9322 349.01114 337.8276 350.11572 337.8276C351.22028 337.8276 352.11572 336.9322 352.11572 335.8276" fill-rule="nonzero"/><path fill="#f3f3f3" d="M265.98438 37.55L265.98438 23.2375L268.84375 23.2375L272.21875 33.3625Q272.6875 34.784374 272.90625 35.4875Q273.15625 34.70625 273.67188 33.190624L277.09375 23.2375L279.64062 23.2375L279.64062 37.55L277.82812 37.55L277.82812 25.565624L273.65625 37.55L271.95312 37.55L267.8125 25.3625L267.8125 37.55L265.98438 37.55ZM289.92188 34.20625L291.73438 34.440624Q291.3125 36.01875 290.14062 36.909374Q288.98438 37.784374 287.17188 37.784374Q284.90625 37.784374 283.5625 36.39375Q282.23438 34.9875 282.23438 32.45625Q282.23438 29.83125 283.57812 28.39375Q284.92188 26.940624 287.07812 26.940624Q289.15625 26.940624 290.46875 28.3625Q291.79688 29.76875 291.79688 32.346874Q291.79688 32.503124 291.78125 32.815624L284.04688 32.815624Q284.14062 34.51875 285.01562 35.425Q285.89062 36.33125 287.1875 36.33125Q288.15625 36.33125 288.82812 35.83125Q289.51562 35.315624 289.92188 34.20625ZM284.14062 31.3625L289.9375 31.3625Q289.82812 30.065624 289.28125 29.409374Q288.4375 28.39375 287.09375 28.39375Q285.89062 28.39375 285.0625 29.20625Q284.23438 30.003124 284.14062 31.3625ZM300.54688 37.55L300.54688 36.2375Q299.5625 37.784374 297.64062 37.784374Q296.40625 37.784374 295.35938 37.096874Q294.32812 36.409374 293.75 35.190624Q293.1875 33.971874 293.1875 32.378124Q293.1875 30.815624 293.70312 29.55Q294.21875 28.284374 295.25 27.6125Q296.29688 26.940624 297.5625 26.940624Q298.5 26.940624 299.23438 27.346874Q299.96875 27.7375 300.4375 28.3625L300.4375 23.2375L302.17188 23.2375L302.17188 37.55L300.54688 37.55ZM294.98438 32.378124Q294.98438 34.3625 295.82812 35.346874Q296.67188 36.33125 297.8125 36.33125Q298.96875 36.33125 299.76562 35.39375Q300.57812 34.45625 300.57812 32.51875Q300.57812 30.39375 299.75 29.39375Q298.9375 28.39375 297.73438 28.39375Q296.5625 28.39375 295.76562 29.3625Q294.98438 30.315624 294.98438 32.378124ZM304.82812 25.253124L304.82812 23.2375L306.59375 23.2375L306.59375 25.253124L304.82812 25.253124ZM304.82812 37.55L304.82812 27.175L306.59375 27.175L306.59375 37.55L304.82812 37.55ZM315.60938 37.55L315.60938 36.01875Q314.40625 37.784374 312.32812 37.784374Q311.40625 37.784374 310.60938 37.440624Q309.8125 37.08125 309.42188 36.55Q309.04688 36.01875 308.89062 35.2375Q308.78125 34.721874 308.78125 33.596874L308.78125 27.175L310.53125 27.175L310.53125 32.925Q310.53125 34.3 310.64062 34.784374Q310.8125 35.471874 311.34375 35.878124Q311.89062 36.26875 312.67188 36.26875Q313.46875 36.26875 314.15625 35.8625Q314.85938 35.45625 315.14062 34.76875Q315.4375 34.065624 315.4375 32.7375L315.4375 27.175L317.1875 27.175L317.1875 37.55L315.60938 37.55ZM319.8125 37.55L319.8125 27.175L321.39062 27.175L321.39062 28.628124Q321.875 27.878124 322.6875 27.409374Q323.5 26.940624 324.53125 26.940624Q325.6875 26.940624 326.42188 27.425Q327.15625 27.89375 327.46875 28.753124Q328.70312 26.940624 330.67188 26.940624Q332.21875 26.940624 333.04688 27.8Q333.875 28.659374 333.875 30.425L333.875 37.55L332.125 37.55L332.125 31.01875Q332.125 29.95625 331.95312 29.503124Q331.78125 29.034374 331.32812 28.753124Q330.89062 28.471874 330.28125 28.471874Q329.1875 28.471874 328.45312 29.20625Q327.73438 29.925 327.73438 31.51875L327.73438 37.55L325.98438 37.55L325.98438 30.815624Q325.98438 29.64375 325.54688 29.065624Q325.125 28.471874 324.14062 28.471874Q323.40625 28.471874 322.76562 28.8625Q322.14062 29.253124 321.85938 30.003124Q321.57812 30.753124 321.57812 32.175L321.57812 37.55L319.8125 37.55Z" fill-rule="nonzero"/></svg>