<svg version="1.1" viewBox="0.0 0.0 600.0 371.0" fill="none" stroke="none" stroke-linecap="square" stroke-miterlimit="10" width="600" height="371" xmlns:xlink="http://www.w3.org/1999/xlink" xmlns="http://www.w3.org/2000/svg"><path fill="#ffffff" fill-opacity="0.0" d="M0 0L600.0 0L600.0 371.0L0 371.0L0 0Z" fill-rule="nonzero"/><path fill="#533990" d="M300.0 54.916668C342.35565 54.916668 382.70316 72.97101 410.9267 104.55318C439.15024 136.13533 452.57358 178.25058 447.83127 220.33992L336.95782 207.84747C338.1434 197.32515 334.78757 186.79634 327.7317 178.90079C320.67578 171.00525 310.58893 166.49167 300.0 166.49167Z" fill-rule="nonzero"/><path fill="#e5a345" d="M235.45256 69.6492C255.5886 59.952198 277.6507 54.916668 300.0 54.916668L300.0 166.49167C294.4127 166.49167 288.89716 167.75055 283.86313 170.1748Z" fill-rule="nonzero"/><path fill="#df8d43" d="M159.58162 154.54881C172.6129 117.30755 199.9045 86.76824 235.45256 69.6492L283.86313 170.1748C274.97614 174.45456 268.15323 182.08939 264.89542 191.3997Z" fill-rule="nonzero"/><path fill="#d8753e" d="M174.03566 282.83197C149.94878 244.49792 144.62878 197.28159 159.58162 154.54881L264.89542 191.3997C261.1572 202.0829 262.48718 213.88698 268.5089 223.47049Z" fill-rule="nonzero"/><path fill="#cf4366" d="M447.83127 220.33992C440.7527 283.164 394.7402 334.65198 333.1037 348.72012C271.4672 362.78824 207.67159 336.36322 174.03566 282.83197L268.5089 223.47049C276.9179 236.8533 292.8668 243.45956 308.2759 239.94252C323.68506 236.42549 335.18817 223.5535 336.95782 207.84747Z" fill-rule="nonzero"/><path fill="#ffffff" d="M359.27213 141.00946L359.27213 142.52509L350.7565 142.52509Q350.74088 141.94696 350.944 141.43134Q351.27213 140.55634 351.97525 139.71259Q352.694 138.86884 354.05338 137.75946Q356.14713 136.04071 356.8815 135.04071Q357.6315 134.02509 357.6315 133.13446Q357.6315 132.18134 356.95963 131.54071Q356.28775 130.90009 355.20963 130.90009Q354.05338 130.90009 353.36588 131.58759Q352.694 132.27509 352.67838 133.47821L351.05338 133.30634Q351.22525 131.49384 352.30338 130.54071Q353.39713 129.58759 355.24088 129.58759Q357.08463 129.58759 358.16275 130.61884Q359.2565 131.65009 359.2565 133.16571Q359.2565 133.93134 358.92838 134.68134Q358.61588 135.43134 357.8815 136.25946Q357.14713 137.08759 355.444 138.52509Q354.02213 139.72821 353.61588 140.15009Q353.20963 140.57196 352.95963 141.00946L359.27213 141.00946ZM369.16275 132.79071L367.60025 132.91571Q367.3815 131.99384 366.99088 131.57196Q366.35025 130.88446 365.41275 130.88446Q364.66275 130.88446 364.08463 131.30634Q363.33463 131.85321 362.89713 132.90009Q362.47525 133.94696 362.45963 135.88446Q363.03775 135.00946 363.85025 134.58759Q364.67838 134.16571 365.58463 134.16571Q367.17838 134.16571 368.28775 135.33759Q369.39713 136.49384 369.39713 138.33759Q369.39713 139.55634 368.86588 140.60321Q368.35025 141.63446 367.42838 142.19696Q366.52213 142.74384 365.36588 142.74384Q363.3815 142.74384 362.1315 141.29071Q360.8815 139.83759 360.8815 136.49384Q360.8815 132.75946 362.27213 131.05634Q363.47525 129.58759 365.5065 129.58759Q367.03775 129.58759 368.0065 130.44696Q368.97525 131.29071 369.16275 132.79071ZM362.70963 138.35321Q362.70963 139.16571 363.05338 139.91571Q363.39713 140.66571 364.02213 141.05634Q364.64713 141.44696 365.33463 141.44696Q366.33463 141.44696 367.05338 140.63446Q367.77213 139.82196 367.77213 138.43134Q367.77213 137.10321 367.05338 136.33759Q366.35025 135.55634 365.27213 135.55634Q364.194 135.55634 363.444 136.33759Q362.70963 137.10321 362.70963 138.35321ZM371.85025 142.52509L371.85025 140.72821L373.64713 140.72821L373.64713 142.52509L371.85025 142.52509ZM378.39713 135.54071Q377.41275 135.18134 376.92838 134.50946Q376.45963 133.83759 376.45963 132.91571Q376.45963 131.50946 377.45963 130.55634Q378.47525 129.58759 380.16275 129.58759Q381.85025 129.58759 382.86588 130.57196Q383.89713 131.54071 383.89713 132.94696Q383.89713 133.85321 383.42838 134.52509Q382.95963 135.18134 382.0065 135.54071Q383.194 135.93134 383.80338 136.79071Q384.42838 137.65009 384.42838 138.83759Q384.42838 140.49384 383.2565 141.61884Q382.08463 142.74384 380.17838 142.74384Q378.27213 142.74384 377.10025 141.61884Q375.944 140.47821 375.944 138.79071Q375.944 137.54071 376.569 136.69696Q377.20963 135.83759 378.39713 135.54071ZM378.069 132.85321Q378.069 133.77509 378.66275 134.35321Q379.2565 134.93134 380.194 134.93134Q381.10025 134.93134 381.67838 134.35321Q382.27213 133.77509 382.27213 132.94696Q382.27213 132.07196 381.66275 131.47821Q381.069 130.88446 380.17838 130.88446Q379.27213 130.88446 378.66275 131.46259Q378.069 132.04071 378.069 132.85321ZM377.569 138.80634Q377.569 139.47821 377.8815 140.11884Q378.20963 140.74384 378.83463 141.10321Q379.47525 141.44696 380.20963 141.44696Q381.33463 141.44696 382.069 140.71259Q382.819 139.97821 382.819 138.85321Q382.819 137.71259 382.05338 136.97821Q381.28775 136.22821 380.14713 136.22821Q379.03775 136.22821 378.30338 136.96259Q377.569 137.69696 377.569 138.80634ZM386.2565 132.72821Q386.2565 131.35321 386.944 130.38446Q387.64713 129.41571 388.95963 129.41571Q390.17838 129.41571 390.97525 130.29071Q391.77213 131.15009 391.77213 132.83759Q391.77213 134.46259 390.95963 135.35321Q390.16275 136.22821 388.97525 136.22821Q387.819 136.22821 387.03775 135.36884Q386.2565 134.49384 386.2565 132.72821ZM389.0065 130.50946Q388.41275 130.50946 388.02213 131.02509Q387.6315 131.52509 387.6315 132.88446Q387.6315 134.13446 388.02213 134.63446Q388.42838 135.13446 389.0065 135.13446Q389.60025 135.13446 389.99088 134.63446Q390.3815 134.11884 390.3815 132.77509Q390.3815 131.52509 389.99088 131.02509Q389.60025 130.50946 389.0065 130.50946ZM389.02213 142.99384L396.069 129.41571L397.35025 129.41571L390.319 142.99384L389.02213 142.99384ZM394.58463 139.49384Q394.58463 138.11884 395.27213 137.15009Q395.97525 136.18134 397.30338 136.18134Q398.52213 136.18134 399.30338 137.05634Q400.10025 137.91571 400.10025 139.60321Q400.10025 141.22821 399.30338 142.11884Q398.5065 142.99384 397.319 142.99384Q396.14713 142.99384 395.36588 142.11884Q394.58463 141.24384 394.58463 139.49384ZM397.35025 137.27509Q396.7565 137.27509 396.36588 137.79071Q395.97525 138.29071 395.97525 139.66571Q395.97525 140.88446 396.36588 141.40009Q396.7565 141.91571 397.33463 141.91571Q397.944 141.91571 398.33463 141.40009Q398.72525 140.88446 398.72525 139.54071Q398.72525 138.29071 398.33463 137.79071Q397.944 137.27509 397.35025 137.27509Z" fill-rule="nonzero"/><path fill="#ffffff" d="M299.9877 315.16006L301.58145 314.95694Q301.84708 316.3007 302.50333 316.89444Q303.15958 317.4882 304.09708 317.4882Q305.22208 317.4882 305.9877 316.72256Q306.75333 315.9413 306.75333 314.8007Q306.75333 313.70694 306.03458 313.0038Q305.33145 312.28506 304.2377 312.28506Q303.78458 312.28506 303.1127 312.47256L303.28458 311.08194Q303.44083 311.09756 303.5502 311.09756Q304.5502 311.09756 305.3627 310.5663Q306.1752 310.03506 306.1752 308.9413Q306.1752 308.0663 305.58145 307.5038Q304.9877 306.9257 304.06583 306.9257Q303.14395 306.9257 302.51895 307.5038Q301.90958 308.08194 301.7377 309.2538L300.15958 308.97256Q300.44083 307.3788 301.47208 306.5038Q302.50333 305.6288 304.03458 305.6288Q305.08145 305.6288 305.97208 306.08194Q306.8627 306.53506 307.33145 307.3163Q307.8002 308.09756 307.8002 308.97256Q307.8002 309.8163 307.34708 310.5038Q306.90958 311.1757 306.01895 311.58194Q307.15958 311.84756 307.78458 312.6913Q308.4252 313.51944 308.4252 314.7538Q308.4252 316.4413 307.19083 317.6288Q305.97208 318.8007 304.09708 318.8007Q302.39395 318.8007 301.26895 317.78506Q300.15958 316.76944 299.9877 315.16006ZM310.22208 315.58194L311.7377 315.4413Q311.94083 316.51944 312.47208 317.0038Q313.01895 317.4882 313.87833 317.4882Q314.6127 317.4882 315.15958 317.16006Q315.70645 316.8163 316.0502 316.26944Q316.40958 315.70694 316.64395 314.7538Q316.87833 313.8007 316.87833 312.8163Q316.87833 312.70694 316.87833 312.5038Q316.39395 313.2538 315.56583 313.72256Q314.75333 314.1913 313.8002 314.1913Q312.20645 314.1913 311.09708 313.03506Q309.9877 311.8788 309.9877 309.97256Q309.9877 308.01944 311.14395 306.83194Q312.3002 305.6288 314.03458 305.6288Q315.3002 305.6288 316.33145 306.3163Q317.37833 306.9882 317.90958 308.2382Q318.45645 309.4882 318.45645 311.8632Q318.45645 314.33194 317.90958 315.8007Q317.37833 317.2538 316.31583 318.01944Q315.26895 318.78506 313.84708 318.78506Q312.33145 318.78506 311.3627 317.95694Q310.40958 317.1132 310.22208 315.58194ZM316.70645 309.89444Q316.70645 308.53506 315.97208 307.7382Q315.25333 306.9413 314.2377 306.9413Q313.1752 306.9413 312.39395 307.8007Q311.6127 308.66006 311.6127 310.03506Q311.6127 311.26944 312.34708 312.03506Q313.09708 312.8007 314.19083 312.8007Q315.28458 312.8007 315.9877 312.03506Q316.70645 311.26944 316.70645 309.89444ZM320.87833 318.5663L320.87833 316.76944L322.6752 316.76944L322.6752 318.5663L320.87833 318.5663ZM324.9877 315.16006L326.58145 314.95694Q326.84708 316.3007 327.50333 316.89444Q328.15958 317.4882 329.09708 317.4882Q330.22208 317.4882 330.9877 316.72256Q331.75333 315.9413 331.75333 314.8007Q331.75333 313.70694 331.03458 313.0038Q330.33145 312.28506 329.2377 312.28506Q328.78458 312.28506 328.1127 312.47256L328.28458 311.08194Q328.44083 311.09756 328.5502 311.09756Q329.5502 311.09756 330.3627 310.5663Q331.1752 310.03506 331.1752 308.9413Q331.1752 308.0663 330.58145 307.5038Q329.9877 306.9257 329.06583 306.9257Q328.14395 306.9257 327.51895 307.5038Q326.90958 308.08194 326.7377 309.2538L325.15958 308.97256Q325.44083 307.3788 326.47208 306.5038Q327.50333 305.6288 329.03458 305.6288Q330.08145 305.6288 330.97208 306.08194Q331.8627 306.53506 332.33145 307.3163Q332.8002 308.09756 332.8002 308.97256Q332.8002 309.8163 332.34708 310.5038Q331.90958 311.1757 331.01895 311.58194Q332.15958 311.84756 332.78458 312.6913Q333.4252 313.51944 333.4252 314.7538Q333.4252 316.4413 332.19083 317.6288Q330.97208 318.8007 329.09708 318.8007Q327.39395 318.8007 326.26895 317.78506Q325.15958 316.76944 324.9877 315.16006ZM335.28458 308.76944Q335.28458 307.39444 335.97208 306.4257Q336.6752 305.45694 337.9877 305.45694Q339.20645 305.45694 340.00333 306.33194Q340.8002 307.1913 340.8002 308.8788Q340.8002 310.5038 339.9877 311.39444Q339.19083 312.26944 338.00333 312.26944Q336.84708 312.26944 336.06583 311.41006Q335.28458 310.53506 335.28458 308.76944ZM338.03458 306.5507Q337.44083 306.5507 337.0502 307.0663Q336.65958 307.5663 336.65958 308.9257Q336.65958 310.1757 337.0502 310.6757Q337.45645 311.1757 338.03458 311.1757Q338.62833 311.1757 339.01895 310.6757Q339.40958 310.16006 339.40958 308.8163Q339.40958 307.5663 339.01895 307.0663Q338.62833 306.5507 338.03458 306.5507ZM338.0502 319.03506L345.09708 305.45694L346.37833 305.45694L339.34708 319.03506L338.0502 319.03506ZM343.6127 315.53506Q343.6127 314.16006 344.3002 313.1913Q345.00333 312.22256 346.33145 312.22256Q347.5502 312.22256 348.33145 313.09756Q349.12833 313.95694 349.12833 315.64444Q349.12833 317.26944 348.33145 318.16006Q347.53458 319.03506 346.34708 319.03506Q345.1752 319.03506 344.39395 318.16006Q343.6127 317.28506 343.6127 315.53506ZM346.37833 313.3163Q345.78458 313.3163 345.39395 313.83194Q345.00333 314.33194 345.00333 315.70694Q345.00333 316.9257 345.39395 317.4413Q345.78458 317.95694 346.3627 317.95694Q346.97208 317.95694 347.3627 317.4413Q347.75333 316.9257 347.75333 315.58194Q347.75333 314.33194 347.3627 313.83194Q346.97208 313.3163 346.37833 313.3163Z" fill-rule="nonzero"/><path fill="#ffffff" d="M177.50337 221.8675L175.92525 221.8675L175.92525 211.78937Q175.34712 212.33624 174.42525 212.88312Q173.50337 213.41437 172.75337 213.69562L172.75337 212.16437Q174.0815 211.53937 175.0815 210.64874Q176.0815 209.75812 176.48775 208.93L177.50337 208.93L177.50337 221.8675ZM186.61275 221.8675L186.61275 218.78937L181.03462 218.78937L181.03462 217.33624L186.90962 208.97687L188.2065 208.97687L188.2065 217.33624L189.94087 217.33624L189.94087 218.78937L188.2065 218.78937L188.2065 221.8675L186.61275 221.8675ZM186.61275 217.33624L186.61275 211.52374L182.5815 217.33624L186.61275 217.33624ZM192.44087 221.8675L192.44087 220.07062L194.23775 220.07062L194.23775 221.8675L192.44087 221.8675ZM196.55025 218.46124L198.144 218.25812Q198.40962 219.60187 199.06587 220.19562Q199.72212 220.78937 200.65962 220.78937Q201.78462 220.78937 202.55025 220.02374Q203.31587 219.2425 203.31587 218.10187Q203.31587 217.00812 202.59712 216.305Q201.894 215.58624 200.80025 215.58624Q200.34712 215.58624 199.67525 215.77374L199.84712 214.38312Q200.00337 214.39874 200.11275 214.39874Q201.11275 214.39874 201.92525 213.8675Q202.73775 213.33624 202.73775 212.2425Q202.73775 211.3675 202.144 210.805Q201.55025 210.22687 200.62837 210.22687Q199.7065 210.22687 199.0815 210.805Q198.47212 211.38312 198.30025 212.555L196.72212 212.27374Q197.00337 210.68 198.03462 209.805Q199.06587 208.93 200.59712 208.93Q201.644 208.93 202.53462 209.38312Q203.42525 209.83624 203.894 210.6175Q204.36275 211.39874 204.36275 212.27374Q204.36275 213.1175 203.90962 213.805Q203.47212 214.47687 202.5815 214.88312Q203.72212 215.14874 204.34712 215.9925Q204.98775 216.82062 204.98775 218.055Q204.98775 219.7425 203.75337 220.93Q202.53462 222.10187 200.65962 222.10187Q198.9565 222.10187 197.8315 221.08624Q196.72212 220.07062 196.55025 218.46124ZM206.84712 212.07062Q206.84712 210.69562 207.53462 209.72687Q208.23775 208.75812 209.55025 208.75812Q210.769 208.75812 211.56587 209.63312Q212.36275 210.4925 212.36275 212.18Q212.36275 213.805 211.55025 214.69562Q210.75337 215.57062 209.56587 215.57062Q208.40962 215.57062 207.62837 214.71124Q206.84712 213.83624 206.84712 212.07062ZM209.59712 209.85187Q209.00337 209.85187 208.61275 210.3675Q208.22212 210.8675 208.22212 212.22687Q208.22212 213.47687 208.61275 213.97687Q209.019 214.47687 209.59712 214.47687Q210.19087 214.47687 210.5815 213.97687Q210.97212 213.46124 210.97212 212.1175Q210.97212 210.8675 210.5815 210.3675Q210.19087 209.85187 209.59712 209.85187ZM209.61275 222.33624L216.65962 208.75812L217.94087 208.75812L210.90962 222.33624L209.61275 222.33624ZM215.17525 218.83624Q215.17525 217.46124 215.86275 216.4925Q216.56587 215.52374 217.894 215.52374Q219.11275 215.52374 219.894 216.39874Q220.69087 217.25812 220.69087 218.94562Q220.69087 220.57062 219.894 221.46124Q219.09712 222.33624 217.90962 222.33624Q216.73775 222.33624 215.9565 221.46124Q215.17525 220.58624 215.17525 218.83624ZM217.94087 216.6175Q217.34712 216.6175 216.9565 217.13312Q216.56587 217.63312 216.56587 219.00812Q216.56587 220.22687 216.9565 220.7425Q217.34712 221.25812 217.92525 221.25812Q218.53462 221.25812 218.92525 220.7425Q219.31587 220.22687 219.31587 218.88312Q219.31587 217.63312 218.92525 217.13312Q218.53462 216.6175 217.94087 216.6175Z" fill-rule="nonzero"/><path fill="#ffffff" d="M205.49352 142.52509L203.91539 142.52509L203.91539 132.44696Q203.33727 132.99384 202.41539 133.54071Q201.49352 134.07196 200.74352 134.35321L200.74352 132.82196Q202.07164 132.19696 203.07164 131.30634Q204.07164 130.41571 204.47789 129.58759L205.49352 129.58759L205.49352 142.52509ZM217.85289 141.00946L217.85289 142.52509L209.33727 142.52509Q209.32164 141.94696 209.52477 141.43134Q209.85289 140.55634 210.55602 139.71259Q211.27477 138.86884 212.63414 137.75946Q214.72789 136.04071 215.46227 135.04071Q216.21227 134.02509 216.21227 133.13446Q216.21227 132.18134 215.54039 131.54071Q214.86852 130.90009 213.79039 130.90009Q212.63414 130.90009 211.94664 131.58759Q211.27477 132.27509 211.25914 133.47821L209.63414 133.30634Q209.80602 131.49384 210.88414 130.54071Q211.97789 129.58759 213.82164 129.58759Q215.66539 129.58759 216.74352 130.61884Q217.83727 131.65009 217.83727 133.16571Q217.83727 133.93134 217.50914 134.68134Q217.19664 135.43134 216.46227 136.25946Q215.72789 137.08759 214.02477 138.52509Q212.60289 139.72821 212.19664 140.15009Q211.79039 140.57196 211.54039 141.00946L217.85289 141.00946ZM220.43102 142.52509L220.43102 140.72821L222.22789 140.72821L222.22789 142.52509L220.43102 142.52509ZM224.54039 139.15009L226.19664 139.00946Q226.38414 140.22821 227.05602 140.83759Q227.72789 141.44696 228.68102 141.44696Q229.82164 141.44696 230.60289 140.58759Q231.39977 139.72821 231.39977 138.29071Q231.39977 136.94696 230.63414 136.16571Q229.88414 135.38446 228.64977 135.38446Q227.88414 135.38446 227.25914 135.72821Q226.64977 136.07196 226.30602 136.63446L224.82164 136.43134L226.07164 129.82196L232.47789 129.82196L232.47789 131.32196L227.33727 131.32196L226.63414 134.79071Q227.80602 133.97821 229.07164 133.97821Q230.75914 133.97821 231.91539 135.15009Q233.08727 136.32196 233.08727 138.15009Q233.08727 139.90009 232.05602 141.18134Q230.82164 142.74384 228.68102 142.74384Q226.91539 142.74384 225.80602 141.75946Q224.69664 140.77509 224.54039 139.15009ZM234.83727 132.72821Q234.83727 131.35321 235.52477 130.38446Q236.22789 129.41571 237.54039 129.41571Q238.75914 129.41571 239.55602 130.29071Q240.35289 131.15009 240.35289 132.83759Q240.35289 134.46259 239.54039 135.35321Q238.74352 136.22821 237.55602 136.22821Q236.39977 136.22821 235.61852 135.36884Q234.83727 134.49384 234.83727 132.72821ZM237.58727 130.50946Q236.99352 130.50946 236.60289 131.02509Q236.21227 131.52509 236.21227 132.88446Q236.21227 134.13446 236.60289 134.63446Q237.00914 135.13446 237.58727 135.13446Q238.18102 135.13446 238.57164 134.63446Q238.96227 134.11884 238.96227 132.77509Q238.96227 131.52509 238.57164 131.02509Q238.18102 130.50946 237.58727 130.50946ZM237.60289 142.99384L244.64977 129.41571L245.93102 129.41571L238.89977 142.99384L237.60289 142.99384ZM243.16539 139.49384Q243.16539 138.11884 243.85289 137.15009Q244.55602 136.18134 245.88414 136.18134Q247.10289 136.18134 247.88414 137.05634Q248.68102 137.91571 248.68102 139.60321Q248.68102 141.22821 247.88414 142.11884Q247.08727 142.99384 245.89977 142.99384Q244.72789 142.99384 243.94664 142.11884Q243.16539 141.24384 243.16539 139.49384ZM245.93102 137.27509Q245.33727 137.27509 244.94664 137.79071Q244.55602 138.29071 244.55602 139.66571Q244.55602 140.88446 244.94664 141.40009Q245.33727 141.91571 245.91539 141.91571Q246.52477 141.91571 246.91539 141.40009Q247.30602 140.88446 247.30602 139.54071Q247.30602 138.29071 246.91539 137.79071Q246.52477 137.27509 245.93102 137.27509Z" fill-rule="nonzero"/><path fill="#ffffff" d="M255.14076 88.49027L255.14076 86.97465L263.46887 86.97465L263.46887 88.20902Q262.25012 89.52152 261.03137 91.6934Q259.82825 93.84965 259.172 96.14652Q258.68762 97.77152 258.56262 99.6934L256.93762 99.6934Q256.96887 98.17777 257.53137 96.02152Q258.1095 93.86527 259.172 91.86527Q260.2345 89.86527 261.43762 88.49027L255.14076 88.49027ZM265.922 99.6934L265.922 97.89652L267.71887 97.89652L267.71887 99.6934L265.922 99.6934ZM275.9845 99.6934L274.40637 99.6934L274.40637 89.61527Q273.82825 90.16215 272.90637 90.70902Q271.9845 91.24027 271.2345 91.52152L271.2345 89.99027Q272.56262 89.36527 273.56262 88.47465Q274.56262 87.58402 274.96887 86.7559L275.9845 86.7559L275.9845 99.6934ZM280.32825 89.89652Q280.32825 88.52152 281.01575 87.55277Q281.71887 86.58402 283.03137 86.58402Q284.25012 86.58402 285.047 87.45902Q285.84387 88.3184 285.84387 90.0059Q285.84387 91.6309 285.03137 92.52152Q284.2345 93.39652 283.047 93.39652Q281.89075 93.39652 281.1095 92.53715Q280.32825 91.66215 280.32825 89.89652ZM283.07825 87.67777Q282.4845 87.67777 282.09387 88.1934Q281.70325 88.6934 281.70325 90.05277Q281.70325 91.30277 282.09387 91.80277Q282.50012 92.30277 283.07825 92.30277Q283.672 92.30277 284.06262 91.80277Q284.45325 91.28715 284.45325 89.9434Q284.45325 88.6934 284.06262 88.1934Q283.672 87.67777 283.07825 87.67777ZM283.09387 100.16215L290.14075 86.58402L291.422 86.58402L284.39075 100.16215L283.09387 100.16215ZM288.65637 96.66215Q288.65637 95.28715 289.34387 94.3184Q290.047 93.34965 291.37512 93.34965Q292.59387 93.34965 293.37512 94.22465Q294.172 95.08402 294.172 96.77152Q294.172 98.39652 293.37512 99.28715Q292.57825 100.16215 291.39075 100.16215Q290.21887 100.16215 289.43762 99.28715Q288.65637 98.41215 288.65637 96.66215ZM291.422 94.4434Q290.82825 94.4434 290.43762 94.95902Q290.047 95.45902 290.047 96.83402Q290.047 98.05277 290.43762 98.5684Q290.82825 99.08402 291.40637 99.08402Q292.01575 99.08402 292.40637 98.5684Q292.797 98.05277 292.797 96.70902Q292.797 95.45902 292.40637 94.95902Q292.01575 94.4434 291.422 94.4434Z" fill-rule="nonzero"/><path stroke="#ffffff" stroke-width="1.0" stroke-linejoin="round" stroke-linecap="round" d="M336.95782 207.84747C338.1434 197.32515 334.78757 186.79634 327.7317 178.90079C320.67578 171.00525 310.58893 166.49167 300.0 166.49167L300.0 54.916668C342.35565 54.916668 382.70316 72.97101 410.9267 104.55318C439.15024 136.13533 452.57358 178.25058 447.83127 220.33992" fill-rule="nonzero"/><path stroke="#ffffff" stroke-width="1.0" stroke-linejoin="round" stroke-linecap="round" d="M268.5089 223.47049C276.9179 236.8533 292.8668 243.45956 308.2759 239.94252C323.68506 236.42549 335.18817 223.5535 336.95782 207.84747L447.83127 220.33992C440.7527 283.164 394.7402 334.65198 333.1037 348.72012C271.4672 362.78824 207.67159 336.36322 174.03566 282.83197" fill-rule="nonzero"/><path stroke="#ffffff" stroke-width="1.0" stroke-linejoin="round" stroke-linecap="round" d="M264.89542 191.3997C261.1572 202.0829 262.48718 213.88698 268.5089 223.47049L174.03566 282.83197C149.94878 244.49792 144.62878 197.28159 159.58162 154.54881" fill-rule="nonzero"/><path stroke="#ffffff" stroke-width="1.0" stroke-linejoin="round" stroke-linecap="round" d="M283.86313 170.1748C274.97614 174.45456 268.15323 182.08939 264.89542 191.3997L159.58162 154.54881C172.6129 117.30755 199.9045 86.76824 235.45256 69.6492" fill-rule="nonzero"/><path stroke="#ffffff" stroke-width="1.0" stroke-linejoin="round" stroke-linecap="round" d="M300.0 166.49167C294.4127 166.49167 288.89716 167.75055 283.86313 170.1748L235.45256 69.6492C255.5886 59.952198 277.6507 54.916668 300.0 54.916668" fill-rule="nonzero"/><path fill="#efefef" d="M27.3 58.46354L28.815624 58.46354L28.815624 65.072914Q28.815624 66.80729 28.425 67.822914Q28.034374 68.83854 27.01875 69.479164Q26.003124 70.11979 24.346874 70.11979Q22.7375 70.11979 21.70625 69.55729Q20.690624 68.99479 20.253124 67.947914Q19.815624 66.90104 19.815624 65.072914L19.815624 58.46354L21.33125 58.46354L21.33125 65.072914Q21.33125 66.55729 21.596874 67.27604Q21.878124 67.979164 22.55 68.36979Q23.2375 68.74479 24.20625 68.74479Q25.878124 68.74479 26.58125 67.99479Q27.3 67.229164 27.3 65.072914L27.3 58.46354ZM31.596874 69.916664L31.596874 61.61979L32.8625 61.61979L32.8625 62.86979Q33.346874 61.99479 33.753124 61.71354Q34.159374 61.43229 34.659374 61.43229Q35.3625 61.43229 36.096874 61.885414L35.6125 63.18229Q35.096874 62.885414 34.58125 62.885414Q34.128124 62.885414 33.753124 63.166664Q33.39375 63.43229 33.2375 63.93229Q33.003124 64.68229 33.003124 65.572914L33.003124 69.916664L31.596874 69.916664ZM37.909374 69.916664L36.596874 69.916664L36.596874 58.46354L38.003124 58.46354L38.003124 62.541664Q38.89375 61.43229 40.284374 61.43229Q41.05 61.43229 41.721874 61.74479Q42.409374 62.041664 42.846874 62.604164Q43.3 63.166664 43.55 63.96354Q43.8 64.74479 43.8 65.635414Q43.8 67.77604 42.7375 68.947914Q41.690624 70.104164 40.20625 70.104164Q38.7375 70.104164 37.909374 68.86979L37.909374 69.916664ZM37.89375 65.697914Q37.89375 67.197914 38.3 67.854164Q38.95625 68.947914 40.096874 68.947914Q41.01875 68.947914 41.690624 68.15104Q42.3625 67.33854 42.3625 65.760414Q42.3625 64.135414 41.70625 63.36979Q41.065624 62.58854 40.159374 62.58854Q39.2375 62.58854 38.565624 63.385414Q37.89375 64.18229 37.89375 65.697914ZM51.01875 68.885414Q50.2375 69.55729 49.51875 69.83854Q48.8 70.104164 47.971874 70.104164Q46.596874 70.104164 45.8625 69.43229Q45.128124 68.760414 45.128124 67.729164Q45.128124 67.11979 45.409374 66.61979Q45.690624 66.104164 46.128124 65.80729Q46.58125 65.49479 47.14375 65.33854Q47.565624 65.229164 48.39375 65.135414Q50.096874 64.93229 50.909374 64.65104Q50.909374 64.354164 50.909374 64.27604Q50.909374 63.416664 50.51875 63.072914Q49.971874 62.58854 48.909374 62.58854Q47.925 62.58854 47.440624 62.947914Q46.971874 63.291664 46.753124 64.166664L45.378124 63.979164Q45.565624 63.104164 45.9875 62.55729Q46.425 62.010414 47.2375 61.729164Q48.05 61.43229 49.1125 61.43229Q50.175 61.43229 50.83125 61.68229Q51.503124 61.93229 51.815624 62.30729Q52.128124 62.68229 52.253124 63.260414Q52.33125 63.61979 52.33125 64.55729L52.33125 66.43229Q52.33125 68.40104 52.409374 68.916664Q52.503124 69.43229 52.76875 69.916664L51.3 69.916664Q51.08125 69.479164 51.01875 68.885414ZM50.909374 65.74479Q50.14375 66.05729 48.6125 66.27604Q47.7375 66.40104 47.378124 66.55729Q47.01875 66.71354 46.815624 67.02604Q46.628124 67.322914 46.628124 67.68229Q46.628124 68.24479 47.05 68.61979Q47.4875 68.99479 48.3 68.99479Q49.1125 68.99479 49.7375 68.65104Q50.378124 68.291664 50.675 67.666664Q50.909374 67.197914 50.909374 66.260414L50.909374 65.74479ZM54.6125 69.916664L54.6125 61.61979L55.878124 61.61979L55.878124 62.791664Q56.784374 61.43229 58.51875 61.43229Q59.26875 61.43229 59.89375 61.697914Q60.51875 61.96354 60.83125 62.40104Q61.14375 62.83854 61.26875 63.447914Q61.346874 63.83854 61.346874 64.80729L61.346874 69.916664L59.940624 69.916664L59.940624 64.86979Q59.940624 64.010414 59.76875 63.58854Q59.6125 63.15104 59.190624 62.90104Q58.784374 62.65104 58.221874 62.65104Q57.315624 62.65104 56.659374 63.229164Q56.01875 63.791664 56.01875 65.385414L56.01875 69.916664L54.6125 69.916664ZM63.05 67.43229L64.44063 67.21354Q64.55 68.05729 65.08125 68.510414Q65.62813 68.947914 66.58125 68.947914Q67.55 68.947914 68.01875 68.55729Q68.4875 68.15104 68.4875 67.61979Q68.4875 67.15104 68.08125 66.86979Q67.78438 66.68229 66.64375 66.40104Q65.09688 66.010414 64.4875 65.729164Q63.89375 65.43229 63.58125 64.93229Q63.284374 64.43229 63.284374 63.822914Q63.284374 63.260414 63.534374 62.791664Q63.784374 62.322914 64.22188 62.010414Q64.55 61.760414 65.1125 61.604164Q65.69063 61.43229 66.33125 61.43229Q67.31563 61.43229 68.05 61.71354Q68.78438 61.99479 69.12813 62.479164Q69.4875 62.947914 69.62813 63.760414L68.25313 63.947914Q68.15938 63.30729 67.70625 62.947914Q67.25313 62.58854 66.44063 62.58854Q65.47188 62.58854 65.05 62.916664Q64.64375 63.229164 64.64375 63.65104Q64.64375 63.93229 64.81563 64.15104Q64.9875 64.36979 65.34688 64.52604Q65.56563 64.604164 66.59688 64.885414Q68.08125 65.27604 68.675 65.541664Q69.26875 65.791664 69.59688 66.27604Q69.94063 66.760414 69.94063 67.479164Q69.94063 68.18229 69.51875 68.80729Q69.1125 69.416664 68.33125 69.760414Q67.56563 70.104164 66.59688 70.104164Q64.97188 70.104164 64.12813 69.43229Q63.284374 68.760414 63.05 67.43229ZM77.01875 66.86979L78.40938 67.05729Q78.175 68.479164 77.2375 69.291664Q76.31563 70.104164 74.95625 70.104164Q73.25313 70.104164 72.20625 68.99479Q71.175 67.86979 71.175 65.791664Q71.175 64.447914 71.6125 63.447914Q72.06563 62.43229 72.97188 61.93229Q73.89375 61.43229 74.95625 61.43229Q76.31563 61.43229 77.175 62.11979Q78.03438 62.791664 78.26875 64.05729L76.90938 64.260414Q76.70625 63.43229 76.20625 63.010414Q75.72188 62.58854 75.01875 62.58854Q73.95625 62.58854 73.28438 63.354164Q72.62813 64.104164 72.62813 65.760414Q72.62813 67.43229 73.26875 68.197914Q73.90938 68.947914 74.94063 68.947914Q75.76875 68.947914 76.31563 68.447914Q76.87813 67.93229 77.01875 66.86979ZM85.01875 68.885414Q84.2375 69.55729 83.51875 69.83854Q82.8 70.104164 81.97188 70.104164Q80.59688 70.104164 79.8625 69.43229Q79.12813 68.760414 79.12813 67.729164Q79.12813 67.11979 79.40938 66.61979Q79.69063 66.104164 80.12813 65.80729Q80.58125 65.49479 81.14375 65.33854Q81.56563 65.229164 82.39375 65.135414Q84.09688 64.93229 84.90938 64.65104Q84.90938 64.354164 84.90938 64.27604Q84.90938 63.416664 84.51875 63.072914Q83.97188 62.58854 82.90938 62.58854Q81.925 62.58854 81.44063 62.947914Q80.97188 63.291664 80.75313 64.166664L79.37813 63.979164Q79.56563 63.104164 79.9875 62.55729Q80.425 62.010414 81.2375 61.729164Q82.05 61.43229 83.1125 61.43229Q84.175 61.43229 84.83125 61.68229Q85.50313 61.93229 85.81563 62.30729Q86.12813 62.68229 86.25313 63.260414Q86.33125 63.61979 86.33125 64.55729L86.33125 66.43229Q86.33125 68.40104 86.40938 68.916664Q86.50313 69.43229 86.76875 69.916664L85.3 69.916664Q85.08125 69.479164 85.01875 68.885414ZM84.90938 65.74479Q84.14375 66.05729 82.6125 66.27604Q81.7375 66.40104 81.37813 66.55729Q81.01875 66.71354 80.81563 67.02604Q80.62813 67.322914 80.62813 67.68229Q80.62813 68.24479 81.05 68.61979Q81.4875 68.99479 82.3 68.99479Q83.1125 68.99479 83.7375 68.65104Q84.37813 68.291664 84.675 67.666664Q84.90938 67.197914 84.90938 66.260414L84.90938 65.74479ZM88.6125 73.104164L88.6125 61.61979L89.89375 61.61979L89.89375 62.697914Q90.34688 62.05729 90.90938 61.74479Q91.4875 61.43229 92.3 61.43229Q93.3625 61.43229 94.175 61.979164Q94.9875 62.52604 95.39375 63.52604Q95.81563 64.510414 95.81563 65.697914Q95.81563 66.979164 95.34688 67.99479Q94.89375 69.010414 94.01875 69.55729Q93.15938 70.104164 92.19063 70.104164Q91.4875 70.104164 90.925 69.80729Q90.37813 69.510414 90.01875 69.05729L90.01875 73.104164L88.6125 73.104164ZM89.87813 65.80729Q89.87813 67.416664 90.51875 68.18229Q91.175 68.947914 92.09688 68.947914Q93.03438 68.947914 93.70625 68.15104Q94.37813 67.354164 94.37813 65.697914Q94.37813 64.104164 93.72188 63.322914Q93.06563 62.52604 92.15938 62.52604Q91.26875 62.52604 90.56563 63.36979Q89.87813 64.21354 89.87813 65.80729ZM103.28438 67.24479L104.7375 67.416664Q104.39375 68.697914 103.45625 69.40104Q102.53438 70.104164 101.09688 70.104164Q99.26875 70.104164 98.20625 68.979164Q97.14375 67.854164 97.14375 65.83854Q97.14375 63.74479 98.22188 62.58854Q99.3 61.43229 101.01875 61.43229Q102.675 61.43229 103.72188 62.572914Q104.78438 63.697914 104.78438 65.74479Q104.78438 65.86979 104.78438 66.11979L98.59688 66.11979Q98.675 67.49479 99.3625 68.229164Q100.06563 68.947914 101.09688 68.947914Q101.87813 68.947914 102.425 68.541664Q102.97188 68.135414 103.28438 67.24479ZM98.675 64.96354L103.3 64.96354Q103.20625 63.916664 102.76875 63.40104Q102.09688 62.58854 101.03438 62.58854Q100.06563 62.58854 99.39375 63.24479Q98.7375 63.885414 98.675 64.96354Z" fill-rule="nonzero"/><path fill="#9e9e9e" d="M19.315624 81.96354L19.315624 80.604164L26.721874 80.604164L26.721874 81.697914Q25.628124 82.86979 24.55 84.80729Q23.4875 86.729164 22.89375 88.760414Q22.471874 90.197914 22.3625 91.916664L20.909374 91.916664Q20.940624 90.55729 21.440624 88.65104Q21.95625 86.729164 22.89375 84.96354Q23.846874 83.18229 24.925 81.96354L19.315624 81.96354ZM29.003124 91.916664L29.003124 90.30729L30.6125 90.30729L30.6125 91.916664L29.003124 91.916664ZM37.51875 91.916664L36.1125 91.916664L36.1125 82.947914Q35.596874 83.43229 34.76875 83.916664Q33.95625 84.40104 33.3 84.65104L33.3 83.291664Q34.471874 82.729164 35.346874 81.947914Q36.2375 81.15104 36.6125 80.416664L37.51875 80.416664L37.51875 91.916664ZM41.4875 83.21354Q41.4875 81.979164 42.096874 81.11979Q42.721874 80.260414 43.89375 80.260414Q44.971874 80.260414 45.675 81.041664Q46.378124 81.80729 46.378124 83.291664Q46.378124 84.74479 45.659374 85.541664Q44.95625 86.322914 43.909374 86.322914Q42.8625 86.322914 42.175 85.55729Q41.4875 84.77604 41.4875 83.21354ZM43.925 81.229164Q43.409374 81.229164 43.05 81.68229Q42.70625 82.135414 42.70625 83.354164Q42.70625 84.447914 43.05 84.90104Q43.409374 85.354164 43.925 85.354164Q44.45625 85.354164 44.8 84.90104Q45.159374 84.447914 45.159374 83.24479Q45.159374 82.135414 44.8 81.68229Q44.45625 81.229164 43.925 81.229164ZM43.940624 92.33854L50.20625 80.260414L51.346874 80.260414L45.096874 92.33854L43.940624 92.33854ZM48.89375 89.229164Q48.89375 87.99479 49.503124 87.135414Q50.128124 86.27604 51.3 86.27604Q52.378124 86.27604 53.08125 87.05729Q53.8 87.822914 53.8 89.30729Q53.8 90.760414 53.08125 91.55729Q52.3625 92.33854 51.315624 92.33854Q50.26875 92.33854 49.58125 91.55729Q48.89375 90.77604 48.89375 89.229164ZM51.346874 87.24479Q50.815624 87.24479 50.45625 87.697914Q50.1125 88.15104 50.1125 89.36979Q50.1125 90.46354 50.45625 90.916664Q50.815624 91.36979 51.33125 91.36979Q51.878124 91.36979 52.221874 90.916664Q52.565624 90.46354 52.565624 89.260414Q52.565624 88.15104 52.20625 87.697914Q51.8625 87.24479 51.346874 87.24479Z" fill-rule="nonzero"/><path stroke="#757575" stroke-width="1.0" stroke-linecap="butt" d="M18.55 75.416664L145.23334 75.416664L268.55148 65.8984" fill-rule="nonzero"/><path fill="#9e9e9e" d="M270.55148 65.8984C270.55148 64.79382 269.65607 63.898396 268.55148 63.898396C267.44693 63.898396 266.55148 64.79382 266.55148 65.8984C266.55148 67.00297 267.44693 67.8984 268.55148 67.8984C269.65607 67.8984 270.55148 67.00297 270.55148 65.8984" fill-rule="nonzero"/><path fill="#efefef" d="M19.76875 110.916664L19.76875 99.46354L21.33125 99.46354L27.346874 108.447914L27.346874 99.46354L28.8 99.46354L28.8 110.916664L27.2375 110.916664L21.221874 101.916664L21.221874 110.916664L19.76875 110.916664ZM37.01875 109.885414Q36.2375 110.55729 35.51875 110.83854Q34.8 111.104164 33.971874 111.104164Q32.596874 111.104164 31.8625 110.43229Q31.128124 109.760414 31.128124 108.729164Q31.128124 108.11979 31.409374 107.61979Q31.690624 107.104164 32.128124 106.80729Q32.58125 106.49479 33.14375 106.33854Q33.565624 106.229164 34.39375 106.135414Q36.096874 105.93229 36.909374 105.65104Q36.909374 105.354164 36.909374 105.27604Q36.909374 104.416664 36.51875 104.072914Q35.971874 103.58854 34.909374 103.58854Q33.925 103.58854 33.440624 103.947914Q32.971874 104.291664 32.753124 105.166664L31.378124 104.979164Q31.565624 104.104164 31.9875 103.55729Q32.425 103.010414 33.2375 102.729164Q34.05 102.43229 35.1125 102.43229Q36.175 102.43229 36.83125 102.68229Q37.503124 102.93229 37.815624 103.30729Q38.128124 103.68229 38.253124 104.260414Q38.33125 104.61979 38.33125 105.55729L38.33125 107.43229Q38.33125 109.40104 38.409374 109.916664Q38.503124 110.43229 38.76875 110.916664L37.3 110.916664Q37.08125 110.479164 37.01875 109.885414ZM36.909374 106.74479Q36.14375 107.05729 34.6125 107.27604Q33.7375 107.40104 33.378124 107.55729Q33.01875 107.71354 32.815624 108.02604Q32.628124 108.322914 32.628124 108.68229Q32.628124 109.24479 33.05 109.61979Q33.4875 109.99479 34.3 109.99479Q35.1125 109.99479 35.7375 109.65104Q36.378124 109.291664 36.675 108.666664Q36.909374 108.197914 36.909374 107.260414L36.909374 106.74479ZM43.675 109.65104L43.878124 110.90104Q43.284374 111.02604 42.815624 111.02604Q42.05 111.02604 41.628124 110.791664Q41.20625 110.541664 41.034374 110.15104Q40.8625 109.74479 40.8625 108.479164L40.8625 103.71354L39.83125 103.71354L39.83125 102.61979L40.8625 102.61979L40.8625 100.55729L42.26875 99.71354L42.26875 102.61979L43.675 102.61979L43.675 103.71354L42.26875 103.71354L42.26875 108.55729Q42.26875 109.166664 42.33125 109.33854Q42.409374 109.510414 42.58125 109.61979Q42.753124 109.71354 43.065624 109.71354Q43.3 109.71354 43.675 109.65104ZM50.05 110.916664L50.05 109.697914Q49.08125 111.104164 47.409374 111.104164Q46.675 111.104164 46.034374 110.822914Q45.409374 110.541664 45.096874 110.11979Q44.784374 109.68229 44.659374 109.072914Q44.58125 108.65104 44.58125 107.760414L44.58125 102.61979L45.9875 102.61979L45.9875 107.21354Q45.9875 108.322914 46.065624 108.697914Q46.20625 109.260414 46.628124 109.572914Q47.065624 109.885414 47.690624 109.885414Q48.33125 109.885414 48.878124 109.572914Q49.440624 109.24479 49.659374 108.68229Q49.89375 108.11979 49.89375 107.05729L49.89375 102.61979L51.3 102.61979L51.3 110.916664L50.05 110.916664ZM53.596874 110.916664L53.596874 102.61979L54.8625 102.61979L54.8625 103.86979Q55.346874 102.99479 55.753124 102.71354Q56.159374 102.43229 56.659374 102.43229Q57.3625 102.43229 58.096874 102.885414L57.6125 104.18229Q57.096874 103.885414 56.58125 103.885414Q56.128124 103.885414 55.753124 104.166664Q55.39375 104.43229 55.2375 104.93229Q55.003124 105.68229 55.003124 106.572914L55.003124 110.916664L53.596874 110.916664ZM64.28438 108.24479L65.7375 108.416664Q65.39375 109.697914 64.45625 110.40104Q63.534374 111.104164 62.096874 111.104164Q60.26875 111.104164 59.20625 109.979164Q58.14375 108.854164 58.14375 106.83854Q58.14375 104.74479 59.221874 103.58854Q60.3 102.43229 62.01875 102.43229Q63.675 102.43229 64.72188 103.572914Q65.78438 104.697914 65.78438 106.74479Q65.78438 106.86979 65.78438 107.11979L59.596874 107.11979Q59.675 108.49479 60.3625 109.229164Q61.065624 109.947914 62.096874 109.947914Q62.878124 109.947914 63.425 109.541664Q63.971874 109.135414 64.28438 108.24479ZM59.675 105.96354L64.3 105.96354Q64.20625 104.916664 63.76875 104.40104Q63.096874 103.58854 62.034374 103.58854Q61.065624 103.58854 60.39375 104.24479Q59.7375 104.885414 59.675 105.96354ZM67.05 108.43229L68.44063 108.21354Q68.55 109.05729 69.08125 109.510414Q69.62813 109.947914 70.58125 109.947914Q71.55 109.947914 72.01875 109.55729Q72.4875 109.15104 72.4875 108.61979Q72.4875 108.15104 72.08125 107.86979Q71.78438 107.68229 70.64375 107.40104Q69.09688 107.010414 68.4875 106.729164Q67.89375 106.43229 67.58125 105.93229Q67.28438 105.43229 67.28438 104.822914Q67.28438 104.260414 67.53438 103.791664Q67.78438 103.322914 68.22188 103.010414Q68.55 102.760414 69.1125 102.604164Q69.69063 102.43229 70.33125 102.43229Q71.31563 102.43229 72.05 102.71354Q72.78438 102.99479 73.12813 103.479164Q73.4875 103.947914 73.62813 104.760414L72.25313 104.947914Q72.15938 104.30729 71.70625 103.947914Q71.25313 103.58854 70.44063 103.58854Q69.47188 103.58854 69.05 103.916664Q68.64375 104.229164 68.64375 104.65104Q68.64375 104.93229 68.81563 105.15104Q68.9875 105.36979 69.34688 105.52604Q69.56563 105.604164 70.59688 105.885414Q72.08125 106.27604 72.675 106.541664Q73.26875 106.791664 73.59688 107.27604Q73.94063 107.760414 73.94063 108.479164Q73.94063 109.18229 73.51875 109.80729Q73.1125 110.416664 72.33125 110.760414Q71.56563 111.104164 70.59688 111.104164Q68.97188 111.104164 68.12813 110.43229Q67.28438 109.760414 67.05 108.43229ZM81.01875 107.86979L82.40938 108.05729Q82.175 109.479164 81.2375 110.291664Q80.31563 111.104164 78.95625 111.104164Q77.25313 111.104164 76.20625 109.99479Q75.175 108.86979 75.175 106.791664Q75.175 105.447914 75.6125 104.447914Q76.06563 103.43229 76.97188 102.93229Q77.89375 102.43229 78.95625 102.43229Q80.31563 102.43229 81.175 103.11979Q82.03438 103.791664 82.26875 105.05729L80.90938 105.260414Q80.70625 104.43229 80.20625 104.010414Q79.72188 103.58854 79.01875 103.58854Q77.95625 103.58854 77.28438 104.354164Q76.62813 105.104164 76.62813 106.760414Q76.62813 108.43229 77.26875 109.197914Q77.90938 109.947914 78.94063 109.947914Q79.76875 109.947914 80.31563 109.447914Q80.87813 108.93229 81.01875 107.86979ZM89.01875 109.885414Q88.2375 110.55729 87.51875 110.83854Q86.8 111.104164 85.97188 111.104164Q84.59688 111.104164 83.8625 110.43229Q83.12813 109.760414 83.12813 108.729164Q83.12813 108.11979 83.40938 107.61979Q83.69063 107.104164 84.12813 106.80729Q84.58125 106.49479 85.14375 106.33854Q85.56563 106.229164 86.39375 106.135414Q88.09688 105.93229 88.90938 105.65104Q88.90938 105.354164 88.90938 105.27604Q88.90938 104.416664 88.51875 104.072914Q87.97188 103.58854 86.90938 103.58854Q85.925 103.58854 85.44063 103.947914Q84.97188 104.291664 84.75313 105.166664L83.37813 104.979164Q83.56563 104.104164 83.9875 103.55729Q84.425 103.010414 85.2375 102.729164Q86.05 102.43229 87.1125 102.43229Q88.175 102.43229 88.83125 102.68229Q89.50313 102.93229 89.81563 103.30729Q90.12813 103.68229 90.25313 104.260414Q90.33125 104.61979 90.33125 105.55729L90.33125 107.43229Q90.33125 109.40104 90.40938 109.916664Q90.50313 110.43229 90.76875 110.916664L89.3 110.916664Q89.08125 110.479164 89.01875 109.885414ZM88.90938 106.74479Q88.14375 107.05729 86.6125 107.27604Q85.7375 107.40104 85.37813 107.55729Q85.01875 107.71354 84.81563 108.02604Q84.62813 108.322914 84.62813 108.68229Q84.62813 109.24479 85.05 109.61979Q85.4875 109.99479 86.3 109.99479Q87.1125 109.99479 87.7375 109.65104Q88.37813 109.291664 88.675 108.666664Q88.90938 108.197914 88.90938 107.260414L88.90938 106.74479ZM92.6125 114.104164L92.6125 102.61979L93.89375 102.61979L93.89375 103.697914Q94.34688 103.05729 94.90938 102.74479Q95.4875 102.43229 96.3 102.43229Q97.3625 102.43229 98.175 102.979164Q98.9875 103.52604 99.39375 104.52604Q99.81563 105.510414 99.81563 106.697914Q99.81563 107.979164 99.34688 108.99479Q98.89375 110.010414 98.01875 110.55729Q97.15938 111.104164 96.19063 111.104164Q95.4875 111.104164 94.925 110.80729Q94.37813 110.510414 94.01875 110.05729L94.01875 114.104164L92.6125 114.104164ZM93.87813 106.80729Q93.87813 108.416664 94.51875 109.18229Q95.175 109.947914 96.09688 109.947914Q97.03438 109.947914 97.70625 109.15104Q98.37813 108.354164 98.37813 106.697914Q98.37813 105.104164 97.72188 104.322914Q97.06563 103.52604 96.15938 103.52604Q95.26875 103.52604 94.56563 104.36979Q93.87813 105.21354 93.87813 106.80729ZM107.28438 108.24479L108.7375 108.416664Q108.39375 109.697914 107.45625 110.40104Q106.53438 111.104164 105.09688 111.104164Q103.26875 111.104164 102.20625 109.979164Q101.14375 108.854164 101.14375 106.83854Q101.14375 104.74479 102.22188 103.58854Q103.3 102.43229 105.01875 102.43229Q106.675 102.43229 107.72188 103.572914Q108.78438 104.697914 108.78438 106.74479Q108.78438 106.86979 108.78438 107.11979L102.59688 107.11979Q102.675 108.49479 103.3625 109.229164Q104.06563 109.947914 105.09688 109.947914Q105.87813 109.947914 106.425 109.541664Q106.97188 109.135414 107.28438 108.24479ZM102.675 105.96354L107.3 105.96354Q107.20625 104.916664 106.76875 104.40104Q106.09688 103.58854 105.03438 103.58854Q104.06563 103.58854 103.39375 104.24479Q102.7375 104.885414 102.675 105.96354Z" fill-rule="nonzero"/><path fill="#9e9e9e" d="M24.51875 132.91667L23.1125 132.91667L23.1125 123.94792Q22.596874 124.4323 21.76875 124.91667Q20.95625 125.40105 20.3 125.65105L20.3 124.29167Q21.471874 123.72917 22.346874 122.94792Q23.2375 122.15105 23.6125 121.41667L24.51875 121.41667L24.51875 132.91667ZM35.6125 131.5573L35.6125 132.91667L28.034374 132.91667Q28.01875 132.40105 28.20625 131.9323Q28.4875 131.16667 29.128124 130.41667Q29.76875 129.66667 30.971874 128.6823Q32.83125 127.15105 33.4875 126.26042Q34.14375 125.35417 34.14375 124.5573Q34.14375 123.72917 33.55 123.15105Q32.95625 122.57292 31.9875 122.57292Q30.971874 122.57292 30.3625 123.1823Q29.753124 123.79167 29.753124 124.8698L28.3 124.72917Q28.45625 123.10417 29.425 122.26042Q30.39375 121.41667 32.01875 121.41667Q33.675 121.41667 34.628124 122.33855Q35.596874 123.2448 35.596874 124.58855Q35.596874 125.27605 35.315624 125.94792Q35.034374 126.60417 34.378124 127.33855Q33.721874 128.07292 32.20625 129.35417Q30.940624 130.41667 30.58125 130.8073Q30.221874 131.1823 29.9875 131.5573L35.6125 131.5573ZM38.003124 132.91667L38.003124 131.3073L39.6125 131.3073L39.6125 132.91667L38.003124 132.91667ZM41.221874 129.91667L42.690624 129.79167Q42.8625 130.8698 43.45625 131.41667Q44.05 131.94792 44.89375 131.94792Q45.909374 131.94792 46.6125 131.1823Q47.315624 130.41667 47.315624 129.15105Q47.315624 127.94792 46.64375 127.26042Q45.971874 126.5573 44.878124 126.5573Q44.190624 126.5573 43.64375 126.8698Q43.096874 127.1823 42.784374 127.66667L41.471874 127.4948L42.58125 121.6198L48.26875 121.6198L48.26875 122.96355L43.70625 122.96355L43.08125 126.04167Q44.1125 125.32292 45.253124 125.32292Q46.753124 125.32292 47.784374 126.3698Q48.815624 127.40105 48.815624 129.02605Q48.815624 130.58855 47.909374 131.71355Q46.8 133.1198 44.89375 133.1198Q43.33125 133.1198 42.346874 132.2448Q41.3625 131.35417 41.221874 129.91667ZM50.4875 124.21355Q50.4875 122.97917 51.096874 122.1198Q51.721874 121.26042 52.89375 121.26042Q53.971874 121.26042 54.675 122.04167Q55.378124 122.8073 55.378124 124.29167Q55.378124 125.7448 54.659374 126.54167Q53.95625 127.32292 52.909374 127.32292Q51.8625 127.32292 51.175 126.5573Q50.4875 125.77605 50.4875 124.21355ZM52.925 122.22917Q52.409374 122.22917 52.05 122.6823Q51.70625 123.13542 51.70625 124.35417Q51.70625 125.44792 52.05 125.90105Q52.409374 126.35417 52.925 126.35417Q53.45625 126.35417 53.8 125.90105Q54.159374 125.44792 54.159374 124.2448Q54.159374 123.13542 53.8 122.6823Q53.45625 122.22917 52.925 122.22917ZM52.940624 133.33855L59.20625 121.26042L60.346874 121.26042L54.096874 133.33855L52.940624 133.33855ZM57.89375 130.22917Q57.89375 128.9948 58.503124 128.13542Q59.128124 127.27605 60.3 127.27605Q61.378124 127.27605 62.08125 128.0573Q62.8 128.82292 62.8 130.3073Q62.8 131.76042 62.08125 132.5573Q61.3625 133.33855 60.315624 133.33855Q59.26875 133.33855 58.58125 132.5573Q57.89375 131.77605 57.89375 130.22917ZM60.346874 128.2448Q59.815624 128.2448 59.45625 128.69792Q59.1125 129.15105 59.1125 130.3698Q59.1125 131.46355 59.45625 131.91667Q59.815624 132.3698 60.33125 132.3698Q60.878124 132.3698 61.221874 131.91667Q61.565624 131.46355 61.565624 130.26042Q61.565624 129.15105 61.20625 128.69792Q60.8625 128.2448 60.346874 128.2448Z" fill-rule="nonzero"/><path stroke="#757575" stroke-width="1.0" stroke-linecap="butt" d="M18.55 116.416664L145.23334 116.416664L194.61963 109.50968" fill-rule="nonzero"/><path fill="#9e9e9e" d="M196.61963 109.50968C196.61963 108.40511 195.72421 107.50968 194.61963 107.50968C193.51506 107.50968 192.61963 108.40511 192.61963 109.50968C192.61963 110.61425 193.51506 111.50968 194.61963 111.50968C195.72421 111.50968 196.61963 110.61425 196.61963 109.50968" fill-rule="nonzero"/><path fill="#efefef" d="M18.51875 214.00708L22.925 202.55396L24.565624 202.55396L29.253124 214.00708L27.51875 214.00708L26.190624 210.53833L21.39375 210.53833L20.14375 214.00708L18.51875 214.00708ZM21.83125 209.30396L25.721874 209.30396L24.51875 206.13208Q23.971874 204.67896 23.70625 203.75708Q23.4875 204.85083 23.096874 205.94458L21.83125 209.30396ZM30.6125 214.00708L30.6125 205.7102L31.878124 205.7102L31.878124 206.88208Q32.784374 205.5227 34.51875 205.5227Q35.26875 205.5227 35.89375 205.78833Q36.51875 206.05396 36.83125 206.49146Q37.14375 206.92896 37.26875 207.53833Q37.346874 207.92896 37.346874 208.8977L37.346874 214.00708L35.940624 214.00708L35.940624 208.9602Q35.940624 208.10083 35.76875 207.67896Q35.6125 207.24146 35.190624 206.99146Q34.784374 206.74146 34.221874 206.74146Q33.315624 206.74146 32.659374 207.31958Q32.01875 207.88208 32.01875 209.47583L32.01875 214.00708L30.6125 214.00708ZM39.6125 204.16333L39.6125 202.55396L41.01875 202.55396L41.01875 204.16333L39.6125 204.16333ZM39.6125 214.00708L39.6125 205.7102L41.01875 205.7102L41.01875 214.00708L39.6125 214.00708ZM43.6125 214.00708L43.6125 205.7102L44.8625 205.7102L44.8625 206.86646Q45.253124 206.25708 45.89375 205.8977Q46.55 205.5227 47.378124 205.5227Q48.3 205.5227 48.89375 205.91333Q49.4875 206.28833 49.721874 206.97583Q50.70625 205.5227 52.284374 205.5227Q53.51875 205.5227 54.175 206.2102Q54.846874 206.88208 54.846874 208.30396L54.846874 214.00708L53.45625 214.00708L53.45625 208.7727Q53.45625 207.92896 53.315624 207.56958Q53.175 207.19458 52.815624 206.97583Q52.45625 206.74146 51.971874 206.74146Q51.096874 206.74146 50.51875 207.31958Q49.940624 207.8977 49.940624 209.17896L49.940624 214.00708L48.534374 214.00708L48.534374 208.61646Q48.534374 207.67896 48.190624 207.2102Q47.846874 206.74146 47.065624 206.74146Q46.471874 206.74146 45.971874 207.05396Q45.471874 207.36646 45.2375 207.97583Q45.01875 208.56958 45.01875 209.69458L45.01875 214.00708L43.6125 214.00708ZM62.01875 212.97583Q61.2375 213.6477 60.51875 213.92896Q59.8 214.19458 58.971874 214.19458Q57.596874 214.19458 56.8625 213.5227Q56.128124 212.85083 56.128124 211.81958Q56.128124 211.2102 56.409374 210.7102Q56.690624 210.19458 57.128124 209.8977Q57.58125 209.5852 58.14375 209.42896Q58.565624 209.31958 59.39375 209.22583Q61.096874 209.0227 61.909374 208.74146Q61.909374 208.44458 61.909374 208.36646Q61.909374 207.50708 61.51875 207.16333Q60.971874 206.67896 59.909374 206.67896Q58.925 206.67896 58.440624 207.03833Q57.971874 207.38208 57.753124 208.25708L56.378124 208.06958Q56.565624 207.19458 56.9875 206.6477Q57.425 206.10083 58.2375 205.81958Q59.05 205.5227 60.1125 205.5227Q61.175 205.5227 61.83125 205.7727Q62.503124 206.0227 62.815624 206.3977Q63.128124 206.7727 63.253124 207.35083Q63.33125 207.7102 63.33125 208.6477L63.33125 210.5227Q63.33125 212.49146 63.409374 213.00708Q63.503124 213.5227 63.76875 214.00708L62.3 214.00708Q62.08125 213.56958 62.01875 212.97583ZM61.909374 209.8352Q61.14375 210.1477 59.6125 210.36646Q58.7375 210.49146 58.378124 210.6477Q58.01875 210.80396 57.815624 211.11646Q57.628124 211.41333 57.628124 211.7727Q57.628124 212.3352 58.05 212.7102Q58.4875 213.0852 59.3 213.0852Q60.1125 213.0852 60.7375 212.74146Q61.378124 212.38208 61.675 211.75708Q61.909374 211.28833 61.909374 210.35083L61.909374 209.8352ZM65.58125 214.00708L65.58125 202.55396L66.9875 202.55396L66.9875 214.00708L65.58125 214.00708ZM69.05 211.5227L70.44063 211.30396Q70.55 212.1477 71.08125 212.60083Q71.62813 213.03833 72.58125 213.03833Q73.55 213.03833 74.01875 212.6477Q74.4875 212.24146 74.4875 211.7102Q74.4875 211.24146 74.08125 210.9602Q73.78438 210.7727 72.64375 210.49146Q71.09688 210.10083 70.4875 209.81958Q69.89375 209.5227 69.58125 209.0227Q69.28438 208.5227 69.28438 207.91333Q69.28438 207.35083 69.53438 206.88208Q69.78438 206.41333 70.22188 206.10083Q70.55 205.85083 71.1125 205.69458Q71.69063 205.5227 72.33125 205.5227Q73.31563 205.5227 74.05 205.80396Q74.78438 206.0852 75.12813 206.56958Q75.4875 207.03833 75.62813 207.85083L74.25313 208.03833Q74.15938 207.3977 73.70625 207.03833Q73.25313 206.67896 72.44063 206.67896Q71.47188 206.67896 71.05 207.00708Q70.64375 207.31958 70.64375 207.74146Q70.64375 208.0227 70.81563 208.24146Q70.9875 208.4602 71.34688 208.61646Q71.56563 208.69458 72.59688 208.97583Q74.08125 209.36646 74.675 209.63208Q75.26875 209.88208 75.59688 210.36646Q75.94063 210.85083 75.94063 211.56958Q75.94063 212.2727 75.51875 212.8977Q75.1125 213.50708 74.33125 213.85083Q73.56563 214.19458 72.59688 214.19458Q70.97188 214.19458 70.12813 213.5227Q69.28438 212.85083 69.05 211.5227Z" fill-rule="nonzero"/><path fill="#9e9e9e" d="M24.51875 236.00708L23.1125 236.00708L23.1125 227.03833Q22.596874 227.5227 21.76875 228.00708Q20.95625 228.49146 20.3 228.74146L20.3 227.38208Q21.471874 226.81958 22.346874 226.03833Q23.2375 225.24146 23.6125 224.50708L24.51875 224.50708L24.51875 236.00708ZM32.721874 236.00708L32.721874 233.25708L27.753124 233.25708L27.753124 231.97583L32.9875 224.55396L34.128124 224.55396L34.128124 231.97583L35.675 231.97583L35.675 233.25708L34.128124 233.25708L34.128124 236.00708L32.721874 236.00708ZM32.721874 231.97583L32.721874 226.80396L29.14375 231.97583L32.721874 231.97583ZM38.003124 236.00708L38.003124 234.3977L39.6125 234.3977L39.6125 236.00708L38.003124 236.00708ZM41.221874 232.97583L42.628124 232.78833Q42.878124 233.99146 43.45625 234.5227Q44.034374 235.03833 44.878124 235.03833Q45.8625 235.03833 46.55 234.35083Q47.2375 233.66333 47.2375 232.6477Q47.2375 231.67896 46.596874 231.05396Q45.971874 230.42896 44.9875 230.42896Q44.596874 230.42896 44.003124 230.5852L44.159374 229.35083Q44.3 229.36646 44.378124 229.36646Q45.284374 229.36646 46.003124 228.8977Q46.721874 228.42896 46.721874 227.44458Q46.721874 226.67896 46.190624 226.17896Q45.675 225.66333 44.846874 225.66333Q44.01875 225.66333 43.471874 226.17896Q42.925 226.69458 42.76875 227.72583L41.3625 227.47583Q41.628124 226.05396 42.534374 225.28833Q43.45625 224.50708 44.815624 224.50708Q45.753124 224.50708 46.534374 224.91333Q47.33125 225.30396 47.7375 226.00708Q48.159374 226.69458 48.159374 227.47583Q48.159374 228.22583 47.753124 228.8352Q47.3625 229.44458 46.58125 229.80396Q47.596874 230.03833 48.159374 230.7727Q48.721874 231.50708 48.721874 232.61646Q48.721874 234.11646 47.628124 235.16333Q46.534374 236.2102 44.8625 236.2102Q43.3625 236.2102 42.3625 235.31958Q41.3625 234.41333 41.221874 232.97583ZM50.4875 227.30396Q50.4875 226.06958 51.096874 225.2102Q51.721874 224.35083 52.89375 224.35083Q53.971874 224.35083 54.675 225.13208Q55.378124 225.8977 55.378124 227.38208Q55.378124 228.8352 54.659374 229.63208Q53.95625 230.41333 52.909374 230.41333Q51.8625 230.41333 51.175 229.6477Q50.4875 228.86646 50.4875 227.30396ZM52.925 225.31958Q52.409374 225.31958 52.05 225.7727Q51.70625 226.22583 51.70625 227.44458Q51.70625 228.53833 52.05 228.99146Q52.409374 229.44458 52.925 229.44458Q53.45625 229.44458 53.8 228.99146Q54.159374 228.53833 54.159374 227.3352Q54.159374 226.22583 53.8 225.7727Q53.45625 225.31958 52.925 225.31958ZM52.940624 236.42896L59.20625 224.35083L60.346874 224.35083L54.096874 236.42896L52.940624 236.42896ZM57.89375 233.31958Q57.89375 232.0852 58.503124 231.22583Q59.128124 230.36646 60.3 230.36646Q61.378124 230.36646 62.08125 231.1477Q62.8 231.91333 62.8 233.3977Q62.8 234.85083 62.08125 235.6477Q61.3625 236.42896 60.315624 236.42896Q59.26875 236.42896 58.58125 235.6477Q57.89375 234.86646 57.89375 233.31958ZM60.346874 231.3352Q59.815624 231.3352 59.45625 231.78833Q59.1125 232.24146 59.1125 233.4602Q59.1125 234.55396 59.45625 235.00708Q59.815624 235.4602 60.33125 235.4602Q60.878124 235.4602 61.221874 235.00708Q61.565624 234.55396 61.565624 233.35083Q61.565624 232.24146 61.20625 231.78833Q60.8625 231.3352 60.346874 231.3352Z" fill-rule="nonzero"/><path stroke="#757575" stroke-width="1.0" stroke-linecap="butt" d="M18.55 219.50708L145.23334 219.50708L159.5603 219.50708" fill-rule="nonzero"/><path fill="#9e9e9e" d="M161.5603 219.50708C161.5603 218.40251 160.66489 217.50708 159.5603 217.50708C158.45573 217.50708 157.5603 218.40251 157.5603 219.50708C157.5603 220.61165 158.45573 221.50708 159.5603 221.50708C160.66489 221.50708 161.5603 220.61165 161.5603 219.50708" fill-rule="nonzero"/><path fill="#efefef" d="M498.6844 104.00968L498.6844 92.55656L503.0125 92.55656Q504.15314 92.55656 504.7469 92.66593Q505.59064 92.80656 506.15314 93.19718Q506.73126 93.58781 507.075 94.30656Q507.4344 95.00968 507.4344 95.86906Q507.4344 97.32218 506.4969 98.33781Q505.575 99.35343 503.1375 99.35343L500.2 99.35343L500.2 104.00968L498.6844 104.00968ZM500.2 97.99406L503.16876 97.99406Q504.6375 97.99406 505.2469 97.44718Q505.8719 96.90031 505.8719 95.91593Q505.8719 95.19718 505.4969 94.68156Q505.1375 94.16593 504.54376 94.00968Q504.16876 93.90031 503.1375 93.90031L500.2 93.90031L500.2 97.99406ZM515.1844 101.33781L516.6375 101.50968Q516.29376 102.79093 515.35626 103.49406Q514.4344 104.19718 512.9969 104.19718Q511.16876 104.19718 510.10626 103.07218Q509.04376 101.94718 509.04376 99.93156Q509.04376 97.83781 510.1219 96.68156Q511.2 95.52531 512.91876 95.52531Q514.575 95.52531 515.6219 96.66593Q516.6844 97.79093 516.6844 99.83781Q516.6844 99.96281 516.6844 100.21281L510.4969 100.21281Q510.575 101.58781 511.2625 102.32218Q511.96564 103.04093 512.9969 103.04093Q513.77814 103.04093 514.325 102.63468Q514.8719 102.22843 515.1844 101.33781ZM510.575 99.05656L515.2 99.05656Q515.10626 98.00968 514.66876 97.49406Q513.9969 96.68156 512.9344 96.68156Q511.96564 96.68156 511.29376 97.33781Q510.6375 97.97843 510.575 99.05656ZM518.4969 104.00968L518.4969 95.71281L519.7625 95.71281L519.7625 96.96281Q520.2469 96.08781 520.65314 95.80656Q521.0594 95.52531 521.5594 95.52531Q522.2625 95.52531 522.9969 95.97843L522.5125 97.27531Q521.9969 96.97843 521.48126 96.97843Q521.02814 96.97843 520.65314 97.25968Q520.29376 97.52531 520.1375 98.02531Q519.90314 98.77531 519.90314 99.66593L519.90314 104.00968L518.4969 104.00968ZM522.95 101.52531L524.34064 101.30656Q524.45 102.15031 524.98126 102.60343Q525.52814 103.04093 526.48126 103.04093Q527.45 103.04093 527.91876 102.65031Q528.3875 102.24406 528.3875 101.71281Q528.3875 101.24406 527.98126 100.96281Q527.6844 100.77531 526.54376 100.49406Q524.9969 100.10343 524.3875 99.82218Q523.79376 99.52531 523.48126 99.02531Q523.1844 98.52531 523.1844 97.91593Q523.1844 97.35343 523.4344 96.88468Q523.6844 96.41593 524.1219 96.10343Q524.45 95.85343 525.0125 95.69718Q525.59064 95.52531 526.23126 95.52531Q527.21564 95.52531 527.95 95.80656Q528.6844 96.08781 529.02814 96.57218Q529.3875 97.04093 529.52814 97.85343L528.15314 98.04093Q528.0594 97.40031 527.60626 97.04093Q527.15314 96.68156 526.34064 96.68156Q525.3719 96.68156 524.95 97.00968Q524.54376 97.32218 524.54376 97.74406Q524.54376 98.02531 524.71564 98.24406Q524.8875 98.46281 525.2469 98.61906Q525.46564 98.69718 526.4969 98.97843Q527.98126 99.36906 528.575 99.63468Q529.16876 99.88468 529.4969 100.36906Q529.84064 100.85343 529.84064 101.57218Q529.84064 102.27531 529.41876 102.90031Q529.0125 103.50968 528.23126 103.85343Q527.46564 104.19718 526.4969 104.19718Q524.8719 104.19718 524.02814 103.52531Q523.1844 102.85343 522.95 101.52531ZM531.5125 107.19718L531.5125 95.71281L532.79376 95.71281L532.79376 96.79093Q533.2469 96.15031 533.8094 95.83781Q534.3875 95.52531 535.2 95.52531Q536.2625 95.52531 537.075 96.07218Q537.8875 96.61906 538.29376 97.61906Q538.71564 98.60343 538.71564 99.79093Q538.71564 101.07218 538.2469 102.08781Q537.79376 103.10343 536.91876 103.65031Q536.0594 104.19718 535.09064 104.19718Q534.3875 104.19718 533.825 103.90031Q533.27814 103.60343 532.91876 103.15031L532.91876 107.19718L531.5125 107.19718ZM532.77814 99.90031Q532.77814 101.50968 533.41876 102.27531Q534.075 103.04093 534.9969 103.04093Q535.9344 103.04093 536.60626 102.24406Q537.27814 101.44718 537.27814 99.79093Q537.27814 98.19718 536.6219 97.41593Q535.96564 96.61906 535.0594 96.61906Q534.16876 96.61906 533.46564 97.46281Q532.77814 98.30656 532.77814 99.90031ZM546.1844 101.33781L547.6375 101.50968Q547.29376 102.79093 546.35626 103.49406Q545.4344 104.19718 543.9969 104.19718Q542.16876 104.19718 541.10626 103.07218Q540.04376 101.94718 540.04376 99.93156Q540.04376 97.83781 541.1219 96.68156Q542.2 95.52531 543.91876 95.52531Q545.575 95.52531 546.6219 96.66593Q547.6844 97.79093 547.6844 99.83781Q547.6844 99.96281 547.6844 100.21281L541.4969 100.21281Q541.575 101.58781 542.2625 102.32218Q542.96564 103.04093 543.9969 103.04093Q544.77814 103.04093 545.325 102.63468Q545.8719 102.22843 546.1844 101.33781ZM541.575 99.05656L546.2 99.05656Q546.10626 98.00968 545.66876 97.49406Q544.9969 96.68156 543.9344 96.68156Q542.96564 96.68156 542.29376 97.33781Q541.6375 97.97843 541.575 99.05656ZM554.91876 100.96281L556.3094 101.15031Q556.075 102.57218 555.1375 103.38468Q554.21564 104.19718 552.85626 104.19718Q551.15314 104.19718 550.10626 103.08781Q549.075 101.96281 549.075 99.88468Q549.075 98.54093 549.5125 97.54093Q549.96564 96.52531 550.8719 96.02531Q551.79376 95.52531 552.85626 95.52531Q554.21564 95.52531 555.075 96.21281Q555.9344 96.88468 556.16876 98.15031L554.8094 98.35343Q554.60626 97.52531 554.10626 97.10343Q553.6219 96.68156 552.91876 96.68156Q551.85626 96.68156 551.1844 97.44718Q550.52814 98.19718 550.52814 99.85343Q550.52814 101.52531 551.16876 102.29093Q551.8094 103.04093 552.84064 103.04093Q553.66876 103.04093 554.21564 102.54093Q554.77814 102.02531 554.91876 100.96281ZM560.575 102.74406L560.77814 103.99406Q560.1844 104.11906 559.71564 104.11906Q558.95 104.11906 558.52814 103.88468Q558.10626 103.63468 557.9344 103.24406Q557.7625 102.83781 557.7625 101.57218L557.7625 96.80656L556.73126 96.80656L556.73126 95.71281L557.7625 95.71281L557.7625 93.65031L559.16876 92.80656L559.16876 95.71281L560.575 95.71281L560.575 96.80656L559.16876 96.80656L559.16876 101.65031Q559.16876 102.25968 559.23126 102.43156Q559.3094 102.60343 559.48126 102.71281Q559.65314 102.80656 559.96564 102.80656Q560.2 102.80656 560.575 102.74406ZM561.5125 94.16593L561.5125 92.55656L562.91876 92.55656L562.91876 94.16593L561.5125 94.16593ZM561.5125 104.00968L561.5125 95.71281L562.91876 95.71281L562.91876 104.00968L561.5125 104.00968ZM567.8094 104.00968L564.65314 95.71281L566.1375 95.71281L567.91876 100.68156Q568.21564 101.47843 568.45 102.35343Q568.6375 101.69718 568.98126 100.77531L570.825 95.71281L572.2625 95.71281L569.1219 104.00968L567.8094 104.00968ZM579.1844 101.33781L580.6375 101.50968Q580.29376 102.79093 579.35626 103.49406Q578.4344 104.19718 576.9969 104.19718Q575.16876 104.19718 574.10626 103.07218Q573.04376 101.94718 573.04376 99.93156Q573.04376 97.83781 574.1219 96.68156Q575.2 95.52531 576.91876 95.52531Q578.575 95.52531 579.6219 96.66593Q580.6844 97.79093 580.6844 99.83781Q580.6844 99.96281 580.6844 100.21281L574.4969 100.21281Q574.575 101.58781 575.2625 102.32218Q575.96564 103.04093 576.9969 103.04093Q577.77814 103.04093 578.325 102.63468Q578.8719 102.22843 579.1844 101.33781ZM574.575 99.05656L579.2 99.05656Q579.10626 98.00968 578.66876 97.49406Q577.9969 96.68156 576.9344 96.68156Q575.96564 96.68156 575.29376 97.33781Q574.6375 97.97843 574.575 99.05656Z" fill-rule="nonzero"/><path fill="#9e9e9e" d="M544.5125 124.65031L544.5125 126.00968L536.9344 126.00968Q536.91876 125.49406 537.10626 125.02531Q537.3875 124.25968 538.02814 123.50968Q538.66876 122.75968 539.8719 121.77531Q541.73126 120.24406 542.3875 119.35343Q543.04376 118.44718 543.04376 117.65031Q543.04376 116.82218 542.45 116.24406Q541.85626 115.66593 540.8875 115.66593Q539.8719 115.66593 539.2625 116.27531Q538.65314 116.88468 538.65314 117.96281L537.2 117.82218Q537.35626 116.19718 538.325 115.35343Q539.29376 114.50968 540.91876 114.50968Q542.575 114.50968 543.52814 115.43156Q544.4969 116.33781 544.4969 117.68156Q544.4969 118.36906 544.21564 119.04093Q543.9344 119.69718 543.27814 120.43156Q542.6219 121.16593 541.10626 122.44718Q539.84064 123.50968 539.48126 123.90031Q539.1219 124.27531 538.8875 124.65031L544.5125 124.65031ZM553.41876 117.35343L552.0125 117.46281Q551.825 116.63468 551.48126 116.25968Q550.91876 115.66593 550.075 115.66593Q549.40314 115.66593 548.90314 116.04093Q548.23126 116.52531 547.84064 117.46281Q547.46564 118.38468 547.45 120.10343Q547.96564 119.32218 548.7 118.94718Q549.4344 118.57218 550.23126 118.57218Q551.6375 118.57218 552.6219 119.61906Q553.6219 120.65031 553.6219 122.29093Q553.6219 123.36906 553.15314 124.29093Q552.6844 125.21281 551.8719 125.71281Q551.0594 126.21281 550.02814 126.21281Q548.27814 126.21281 547.16876 124.91593Q546.0594 123.61906 546.0594 120.65031Q546.0594 117.32218 547.27814 115.82218Q548.35626 114.50968 550.16876 114.50968Q551.5125 114.50968 552.3719 115.27531Q553.2469 116.02531 553.41876 117.35343ZM547.66876 122.29093Q547.66876 123.02531 547.98126 123.69718Q548.29376 124.35343 548.84064 124.69718Q549.40314 125.04093 550.0125 125.04093Q550.90314 125.04093 551.54376 124.32218Q552.1844 123.60343 552.1844 122.36906Q552.1844 121.18156 551.54376 120.50968Q550.91876 119.82218 549.95 119.82218Q548.9969 119.82218 548.325 120.50968Q547.66876 121.18156 547.66876 122.29093ZM555.90314 126.00968L555.90314 124.40031L557.5125 124.40031L557.5125 126.00968L555.90314 126.00968ZM561.27814 119.79093Q560.40314 119.47843 559.98126 118.88468Q559.5594 118.29093 559.5594 117.46281Q559.5594 116.21281 560.45 115.36906Q561.35626 114.50968 562.85626 114.50968Q564.35626 114.50968 565.2625 115.38468Q566.1844 116.24406 566.1844 117.49406Q566.1844 118.29093 565.7625 118.88468Q565.34064 119.47843 564.4969 119.79093Q565.54376 120.13468 566.09064 120.90031Q566.65314 121.66593 566.65314 122.72843Q566.65314 124.19718 565.60626 125.21281Q564.575 126.21281 562.8719 126.21281Q561.1844 126.21281 560.1375 125.21281Q559.10626 124.19718 559.10626 122.69718Q559.10626 121.57218 559.66876 120.82218Q560.23126 120.07218 561.27814 119.79093ZM560.9969 117.41593Q560.9969 118.22843 561.5125 118.74406Q562.04376 119.25968 562.8875 119.25968Q563.7 119.25968 564.21564 118.74406Q564.73126 118.22843 564.73126 117.49406Q564.73126 116.71281 564.2 116.19718Q563.66876 115.66593 562.8719 115.66593Q562.0594 115.66593 561.52814 116.18156Q560.9969 116.69718 560.9969 117.41593ZM560.54376 122.69718Q560.54376 123.30656 560.825 123.86906Q561.1219 124.43156 561.6844 124.74406Q562.2469 125.04093 562.8875 125.04093Q563.90314 125.04093 564.5594 124.40031Q565.21564 123.74406 565.21564 122.74406Q565.21564 121.72843 564.52814 121.07218Q563.85626 120.40031 562.84064 120.40031Q561.85626 120.40031 561.2 121.05656Q560.54376 121.71281 560.54376 122.69718ZM568.3875 117.30656Q568.3875 116.07218 568.9969 115.21281Q569.6219 114.35343 570.79376 114.35343Q571.8719 114.35343 572.575 115.13468Q573.27814 115.90031 573.27814 117.38468Q573.27814 118.83781 572.5594 119.63468Q571.85626 120.41593 570.8094 120.41593Q569.7625 120.41593 569.075 119.65031Q568.3875 118.86906 568.3875 117.30656ZM570.825 115.32218Q570.3094 115.32218 569.95 115.77531Q569.60626 116.22843 569.60626 117.44718Q569.60626 118.54093 569.95 118.99406Q570.3094 119.44718 570.825 119.44718Q571.35626 119.44718 571.7 118.99406Q572.0594 118.54093 572.0594 117.33781Q572.0594 116.22843 571.7 115.77531Q571.35626 115.32218 570.825 115.32218ZM570.84064 126.43156L577.10626 114.35343L578.2469 114.35343L571.9969 126.43156L570.84064 126.43156ZM575.79376 123.32218Q575.79376 122.08781 576.40314 121.22843Q577.02814 120.36906 578.2 120.36906Q579.27814 120.36906 579.98126 121.15031Q580.7 121.91593 580.7 123.40031Q580.7 124.85343 579.98126 125.65031Q579.2625 126.43156 578.21564 126.43156Q577.16876 126.43156 576.48126 125.65031Q575.79376 124.86906 575.79376 123.32218ZM578.2469 121.33781Q577.71564 121.33781 577.35626 121.79093Q577.0125 122.24406 577.0125 123.46281Q577.0125 124.55656 577.35626 125.00968Q577.71564 125.46281 578.23126 125.46281Q578.77814 125.46281 579.1219 125.00968Q579.46564 124.55656 579.46564 123.35343Q579.46564 122.24406 579.10626 121.79093Q578.7625 121.33781 578.2469 121.33781Z" fill-rule="nonzero"/><path stroke="#757575" stroke-width="1.0" stroke-linecap="butt" d="M581.45 109.50968L454.76666 109.50968L405.38037 109.50968" fill-rule="nonzero"/><path fill="#9e9e9e" d="M407.38037 109.50968C407.38037 108.40511 406.48492 107.50968 405.38037 107.50968C404.2758 107.50968 403.38037 108.40511 403.38037 109.50968C403.38037 110.61425 404.2758 111.50968 405.38037 111.50968C406.48492 111.50968 407.38037 110.61425 407.38037 109.50968" fill-rule="nonzero"/><path fill="#efefef" d="M531.6844 326.45L531.6844 314.9969L536.0125 314.9969Q537.15314 314.9969 537.7469 315.10626Q538.59064 315.2469 539.15314 315.6375Q539.73126 316.02814 540.075 316.7469Q540.4344 317.45 540.4344 318.3094Q540.4344 319.7625 539.4969 320.77814Q538.575 321.79376 536.1375 321.79376L533.2 321.79376L533.2 326.45L531.6844 326.45ZM533.2 320.4344L536.16876 320.4344Q537.6375 320.4344 538.2469 319.8875Q538.8719 319.34064 538.8719 318.35626Q538.8719 317.6375 538.4969 317.1219Q538.1375 316.60626 537.54376 316.45Q537.16876 316.34064 536.1375 316.34064L533.2 316.34064L533.2 320.4344ZM548.1844 323.77814L549.6375 323.95Q549.29376 325.23126 548.35626 325.9344Q547.4344 326.6375 545.9969 326.6375Q544.16876 326.6375 543.10626 325.5125Q542.04376 324.3875 542.04376 322.3719Q542.04376 320.27814 543.1219 319.1219Q544.2 317.96564 545.91876 317.96564Q547.575 317.96564 548.6219 319.10626Q549.6844 320.23126 549.6844 322.27814Q549.6844 322.40314 549.6844 322.65314L543.4969 322.65314Q543.575 324.02814 544.2625 324.7625Q544.96564 325.48126 545.9969 325.48126Q546.77814 325.48126 547.325 325.075Q547.8719 324.66876 548.1844 323.77814ZM543.575 321.4969L548.2 321.4969Q548.10626 320.45 547.66876 319.9344Q546.9969 319.1219 545.9344 319.1219Q544.96564 319.1219 544.29376 319.77814Q543.6375 320.41876 543.575 321.4969ZM550.98126 322.29376Q550.98126 319.9969 552.2625 318.8875Q553.34064 317.96564 554.8719 317.96564Q556.59064 317.96564 557.66876 319.09064Q558.7625 320.2 558.7625 322.1844Q558.7625 323.77814 558.27814 324.7Q557.79376 325.6219 556.8719 326.1375Q555.96564 326.6375 554.8719 326.6375Q553.1375 326.6375 552.0594 325.52814Q550.98126 324.40314 550.98126 322.29376ZM552.4344 322.29376Q552.4344 323.8875 553.1219 324.6844Q553.825 325.48126 554.8719 325.48126Q555.91876 325.48126 556.60626 324.6844Q557.3094 323.8875 557.3094 322.2469Q557.3094 320.71564 556.60626 319.91876Q555.91876 319.1219 554.8719 319.1219Q553.825 319.1219 553.1219 319.91876Q552.4344 320.7 552.4344 322.29376ZM560.5125 329.6375L560.5125 318.15314L561.79376 318.15314L561.79376 319.23126Q562.2469 318.59064 562.8094 318.27814Q563.3875 317.96564 564.2 317.96564Q565.2625 317.96564 566.075 318.5125Q566.8875 319.0594 567.29376 320.0594Q567.71564 321.04376 567.71564 322.23126Q567.71564 323.5125 567.2469 324.52814Q566.79376 325.54376 565.91876 326.09064Q565.0594 326.6375 564.09064 326.6375Q563.3875 326.6375 562.825 326.34064Q562.27814 326.04376 561.91876 325.59064L561.91876 329.6375L560.5125 329.6375ZM561.77814 322.34064Q561.77814 323.95 562.41876 324.71564Q563.075 325.48126 563.9969 325.48126Q564.9344 325.48126 565.60626 324.6844Q566.27814 323.8875 566.27814 322.23126Q566.27814 320.6375 565.6219 319.85626Q564.96564 319.0594 564.0594 319.0594Q563.16876 319.0594 562.46564 319.90314Q561.77814 320.7469 561.77814 322.34064ZM569.48126 326.45L569.48126 314.9969L570.8875 314.9969L570.8875 326.45L569.48126 326.45ZM579.1844 323.77814L580.6375 323.95Q580.29376 325.23126 579.35626 325.9344Q578.4344 326.6375 576.9969 326.6375Q575.16876 326.6375 574.10626 325.5125Q573.04376 324.3875 573.04376 322.3719Q573.04376 320.27814 574.1219 319.1219Q575.2 317.96564 576.91876 317.96564Q578.575 317.96564 579.6219 319.10626Q580.6844 320.23126 580.6844 322.27814Q580.6844 322.40314 580.6844 322.65314L574.4969 322.65314Q574.575 324.02814 575.2625 324.7625Q575.96564 325.48126 576.9969 325.48126Q577.77814 325.48126 578.325 325.075Q578.8719 324.66876 579.1844 323.77814ZM574.575 321.4969L579.2 321.4969Q579.10626 320.45 578.66876 319.9344Q577.9969 319.1219 576.9344 319.1219Q575.96564 319.1219 575.29376 319.77814Q574.6375 320.41876 574.575 321.4969Z" fill-rule="nonzero"/><path fill="#9e9e9e" d="M537.1219 345.41876L538.52814 345.23126Q538.77814 346.4344 539.35626 346.96564Q539.9344 347.48126 540.77814 347.48126Q541.7625 347.48126 542.45 346.79376Q543.1375 346.10626 543.1375 345.09064Q543.1375 344.1219 542.4969 343.4969Q541.8719 342.8719 540.8875 342.8719Q540.4969 342.8719 539.90314 343.02814L540.0594 341.79376Q540.2 341.8094 540.27814 341.8094Q541.1844 341.8094 541.90314 341.34064Q542.6219 340.8719 542.6219 339.8875Q542.6219 339.1219 542.09064 338.6219Q541.575 338.10626 540.7469 338.10626Q539.91876 338.10626 539.3719 338.6219Q538.825 339.1375 538.66876 340.16876L537.2625 339.91876Q537.52814 338.4969 538.4344 337.73126Q539.35626 336.95 540.71564 336.95Q541.65314 336.95 542.4344 337.35626Q543.23126 337.7469 543.6375 338.45Q544.0594 339.1375 544.0594 339.91876Q544.0594 340.66876 543.65314 341.27814Q543.2625 341.8875 542.48126 342.2469Q543.4969 342.48126 544.0594 343.21564Q544.6219 343.95 544.6219 345.0594Q544.6219 346.5594 543.52814 347.60626Q542.4344 348.65314 540.7625 348.65314Q539.2625 348.65314 538.2625 347.7625Q537.2625 346.85626 537.1219 345.41876ZM546.325 345.79376L547.6844 345.66876Q547.85626 346.6219 548.34064 347.0594Q548.825 347.48126 549.575 347.48126Q550.23126 347.48126 550.71564 347.1844Q551.2 346.8875 551.5125 346.40314Q551.825 345.90314 552.02814 345.0594Q552.2469 344.21564 552.2469 343.34064Q552.2469 343.2469 552.2469 343.0594Q551.825 343.73126 551.09064 344.15314Q550.35626 344.5594 549.5125 344.5594Q548.09064 344.5594 547.10626 343.52814Q546.1219 342.4969 546.1219 340.8094Q546.1219 339.075 547.1375 338.0125Q548.16876 336.95 549.71564 336.95Q550.84064 336.95 551.7625 337.5594Q552.6844 338.15314 553.16876 339.2625Q553.65314 340.3719 553.65314 342.48126Q553.65314 344.6844 553.16876 345.98126Q552.7 347.27814 551.7469 347.96564Q550.8094 348.65314 549.54376 348.65314Q548.2 348.65314 547.34064 347.90314Q546.4969 347.15314 546.325 345.79376ZM552.09064 340.7469Q552.09064 339.52814 551.4344 338.825Q550.79376 338.10626 549.8875 338.10626Q548.95 338.10626 548.2469 338.8719Q547.5594 339.6375 547.5594 340.85626Q547.5594 341.95 548.21564 342.6375Q548.8875 343.325 549.85626 343.325Q550.825 343.325 551.45 342.6375Q552.09064 341.95 552.09064 340.7469ZM555.90314 348.45L555.90314 346.84064L557.5125 346.84064L557.5125 348.45L555.90314 348.45ZM559.1219 345.41876L560.52814 345.23126Q560.77814 346.4344 561.35626 346.96564Q561.9344 347.48126 562.77814 347.48126Q563.7625 347.48126 564.45 346.79376Q565.1375 346.10626 565.1375 345.09064Q565.1375 344.1219 564.4969 343.4969Q563.8719 342.8719 562.8875 342.8719Q562.4969 342.8719 561.90314 343.02814L562.0594 341.79376Q562.2 341.8094 562.27814 341.8094Q563.1844 341.8094 563.90314 341.34064Q564.6219 340.8719 564.6219 339.8875Q564.6219 339.1219 564.09064 338.6219Q563.575 338.10626 562.7469 338.10626Q561.91876 338.10626 561.3719 338.6219Q560.825 339.1375 560.66876 340.16876L559.2625 339.91876Q559.52814 338.4969 560.4344 337.73126Q561.35626 336.95 562.71564 336.95Q563.65314 336.95 564.4344 337.35626Q565.23126 337.7469 565.6375 338.45Q566.0594 339.1375 566.0594 339.91876Q566.0594 340.66876 565.65314 341.27814Q565.2625 341.8875 564.48126 342.2469Q565.4969 342.48126 566.0594 343.21564Q566.6219 343.95 566.6219 345.0594Q566.6219 346.5594 565.52814 347.60626Q564.4344 348.65314 562.7625 348.65314Q561.2625 348.65314 560.2625 347.7625Q559.2625 346.85626 559.1219 345.41876ZM568.3875 339.7469Q568.3875 338.5125 568.9969 337.65314Q569.6219 336.79376 570.79376 336.79376Q571.8719 336.79376 572.575 337.575Q573.27814 338.34064 573.27814 339.825Q573.27814 341.27814 572.5594 342.075Q571.85626 342.85626 570.8094 342.85626Q569.7625 342.85626 569.075 342.09064Q568.3875 341.3094 568.3875 339.7469ZM570.825 337.7625Q570.3094 337.7625 569.95 338.21564Q569.60626 338.66876 569.60626 339.8875Q569.60626 340.98126 569.95 341.4344Q570.3094 341.8875 570.825 341.8875Q571.35626 341.8875 571.7 341.4344Q572.0594 340.98126 572.0594 339.77814Q572.0594 338.66876 571.7 338.21564Q571.35626 337.7625 570.825 337.7625ZM570.84064 348.8719L577.10626 336.79376L578.2469 336.79376L571.9969 348.8719L570.84064 348.8719ZM575.79376 345.7625Q575.79376 344.52814 576.40314 343.66876Q577.02814 342.8094 578.2 342.8094Q579.27814 342.8094 579.98126 343.59064Q580.7 344.35626 580.7 345.84064Q580.7 347.29376 579.98126 348.09064Q579.2625 348.8719 578.21564 348.8719Q577.16876 348.8719 576.48126 348.09064Q575.79376 347.3094 575.79376 345.7625ZM578.2469 343.77814Q577.71564 343.77814 577.35626 344.23126Q577.0125 344.6844 577.0125 345.90314Q577.0125 346.9969 577.35626 347.45Q577.71564 347.90314 578.23126 347.90314Q578.77814 347.90314 579.1219 347.45Q579.46564 346.9969 579.46564 345.79376Q579.46564 344.6844 579.10626 344.23126Q578.7625 343.77814 578.2469 343.77814Z" fill-rule="nonzero"/><path stroke="#757575" stroke-width="1.0" stroke-linecap="butt" d="M581.45 331.95L454.76666 331.95L331.44852 341.46826" fill-rule="nonzero"/><path fill="#9e9e9e" d="M333.44852 341.46826C333.44852 340.3637 332.55307 339.46826 331.44852 339.46826C330.34393 339.46826 329.44852 340.3637 329.44852 341.46826C329.44852 342.57285 330.34393 343.46826 331.44852 343.46826C332.55307 343.46826 333.44852 342.57285 333.44852 341.46826" fill-rule="nonzero"/><path fill="#f3f3f3" d="M265.98438 37.55L265.98438 23.2375L268.84375 23.2375L272.21875 33.3625Q272.6875 34.784374 272.90625 35.4875Q273.15625 34.70625 273.67188 33.190624L277.09375 23.2375L279.64062 23.2375L279.64062 37.55L277.82812 37.55L277.82812 25.565624L273.65625 37.55L271.95312 37.55L267.8125 25.3625L267.8125 37.55L265.98438 37.55ZM289.92188 34.20625L291.73438 34.440624Q291.3125 36.01875 290.14062 36.909374Q288.98438 37.784374 287.17188 37.784374Q284.90625 37.784374 283.5625 36.39375Q282.23438 34.9875 282.23438 32.45625Q282.23438 29.83125 283.57812 28.39375Q284.92188 26.940624 287.07812 26.940624Q289.15625 26.940624 290.46875 28.3625Q291.79688 29.76875 291.79688 32.346874Q291.79688 32.503124 291.78125 32.815624L284.04688 32.815624Q284.14062 34.51875 285.01562 35.425Q285.89062 36.33125 287.1875 36.33125Q288.15625 36.33125 288.82812 35.83125Q289.51562 35.315624 289.92188 34.20625ZM284.14062 31.3625L289.9375 31.3625Q289.82812 30.065624 289.28125 29.409374Q288.4375 28.39375 287.09375 28.39375Q285.89062 28.39375 285.0625 29.20625Q284.23438 30.003124 284.14062 31.3625ZM300.54688 37.55L300.54688 36.2375Q299.5625 37.784374 297.64062 37.784374Q296.40625 37.784374 295.35938 37.096874Q294.32812 36.409374 293.75 35.190624Q293.1875 33.971874 293.1875 32.378124Q293.1875 30.815624 293.70312 29.55Q294.21875 28.284374 295.25 27.6125Q296.29688 26.940624 297.5625 26.940624Q298.5 26.940624 299.23438 27.346874Q299.96875 27.7375 300.4375 28.3625L300.4375 23.2375L302.17188 23.2375L302.17188 37.55L300.54688 37.55ZM294.98438 32.378124Q294.98438 34.3625 295.82812 35.346874Q296.67188 36.33125 297.8125 36.33125Q298.96875 36.33125 299.76562 35.39375Q300.57812 34.45625 300.57812 32.51875Q300.57812 30.39375 299.75 29.39375Q298.9375 28.39375 297.73438 28.39375Q296.5625 28.39375 295.76562 29.3625Q294.98438 30.315624 294.98438 32.378124ZM304.82812 25.253124L304.82812 23.2375L306.59375 23.2375L306.59375 25.253124L304.82812 25.253124ZM304.82812 37.55L304.82812 27.175L306.59375 27.175L306.59375 37.55L304.82812 37.55ZM315.60938 37.55L315.60938 36.01875Q314.40625 37.784374 312.32812 37.784374Q311.40625 37.784374 310.60938 37.440624Q309.8125 37.08125 309.42188 36.55Q309.04688 36.01875 308.89062 35.2375Q308.78125 34.721874 308.78125 33.596874L308.78125 27.175L310.53125 27.175L310.53125 32.925Q310.53125 34.3 310.64062 34.784374Q310.8125 35.471874 311.34375 35.878124Q311.89062 36.26875 312.67188 36.26875Q313.46875 36.26875 314.15625 35.8625Q314.85938 35.45625 315.14062 34.76875Q315.4375 34.065624 315.4375 32.7375L315.4375 27.175L317.1875 27.175L317.1875 37.55L315.60938 37.55ZM319.8125 37.55L319.8125 27.175L321.39062 27.175L321.39062 28.628124Q321.875 27.878124 322.6875 27.409374Q323.5 26.940624 324.53125 26.940624Q325.6875 26.940624 326.42188 27.425Q327.15625 27.89375 327.46875 28.753124Q328.70312 26.940624 330.67188 26.940624Q332.21875 26.940624 333.04688 27.8Q333.875 28.659374 333.875 30.425L333.875 37.55L332.125 37.55L332.125 31.01875Q332.125 29.95625 331.95312 29.503124Q331.78125 29.034374 331.32812 28.753124Q330.89062 28.471874 330.28125 28.471874Q329.1875 28.471874 328.45312 29.20625Q327.73438 29.925 327.73438 31.51875L327.73438 37.55L325.98438 37.55L325.98438 30.815624Q325.98438 29.64375 325.54688 29.065624Q325.125 28.471874 324.14062 28.471874Q323.40625 28.471874 322.76562 28.8625Q322.14062 29.253124 321.85938 30.003124Q321.57812 30.753124 321.57812 32.175L321.57812 37.55L319.8125 37.55Z" fill-rule="nonzero"/></svg>