<svg version="1.1" viewBox="0.0 0.0 600.0 371.0" fill="none" stroke="none" stroke-linecap="square" stroke-miterlimit="10" width="600" height="371" xmlns:xlink="http://www.w3.org/1999/xlink" xmlns="http://www.w3.org/2000/svg"><path fill="#ffffff" fill-opacity="0.0" d="M0 0L600.0 0L600.0 371.0L0 371.0L0 0Z" fill-rule="nonzero"/><path fill="#304388" d="M300.0 54.916668C303.0549 54.916668 306.1091 55.010765 309.1582 55.19883L302.28955 166.56221C301.52728 166.5152 300.76373 166.49167 300.0 166.49167Z" fill-rule="nonzero"/><path fill="#e5a345" d="M175.98775 285.85684C145.72389 240.18407 143.01413 181.5731 168.93475 133.30278C194.85536 85.032455 245.21037 54.916668 300.0 54.916668L300.0 166.49167C286.30258 166.49167 273.71384 174.02061 267.23367 186.0882C260.75354 198.15578 261.43097 212.80852 268.99695 224.2267Z" fill-rule="nonzero"/><path fill="#df8d43" d="M263.71378 347.9568C227.7546 338.9127 196.46893 316.76605 175.98775 285.85684L268.99695 224.2267C274.11725 231.95401 281.93866 237.49068 290.92844 239.7517Z" fill-rule="nonzero"/><path fill="#cf4366" d="M309.1582 55.19883C365.4882 58.67314 415.00168 93.72302 437.00003 145.69618C458.9984 197.66936 449.69308 257.6151 412.97415 300.47366C376.2552 343.3322 318.44623 361.72256 263.71378 347.9568L290.92844 239.7517C304.61154 243.19315 319.06378 238.59555 328.24353 227.8809C337.42328 217.16628 339.7496 202.17984 334.25 189.18655C328.75043 176.19325 316.37204 167.43079 302.28955 166.56221Z" fill-rule="nonzero"/><path fill="#ffffff" d="M377.7939 222.72609L379.45016 222.58546Q379.63766 223.80421 380.30954 224.41359Q380.9814 225.02296 381.93454 225.02296Q383.07516 225.02296 383.8564 224.16359Q384.6533 223.30421 384.6533 221.86671Q384.6533 220.52296 383.88766 219.74171Q383.13766 218.96046 381.9033 218.96046Q381.13766 218.96046 380.51266 219.30421Q379.9033 219.64796 379.55954 220.21046L378.07516 220.00734L379.32516 213.39796L385.7314 213.39796L385.7314 214.89796L380.5908 214.89796L379.88766 218.36671Q381.05954 217.55421 382.32516 217.55421Q384.01266 217.55421 385.1689 218.72609Q386.3408 219.89796 386.3408 221.72609Q386.3408 223.47609 385.30954 224.75734Q384.07516 226.31984 381.93454 226.31984Q380.1689 226.31984 379.05954 225.33546Q377.95016 224.35109 377.7939 222.72609ZM396.1064 224.58546L396.1064 226.10109L387.5908 226.10109Q387.57516 225.52296 387.7783 225.00734Q388.1064 224.13234 388.80954 223.28859Q389.5283 222.44484 390.88766 221.33546Q392.9814 219.61671 393.7158 218.61671Q394.4658 217.60109 394.4658 216.71046Q394.4658 215.75734 393.7939 215.11671Q393.12204 214.47609 392.0439 214.47609Q390.88766 214.47609 390.20016 215.16359Q389.5283 215.85109 389.51266 217.05421L387.88766 216.88234Q388.05954 215.06984 389.13766 214.11671Q390.2314 213.16359 392.07516 213.16359Q393.9189 213.16359 394.99704 214.19484Q396.0908 215.22609 396.0908 216.74171Q396.0908 217.50734 395.76266 218.25734Q395.45016 219.00734 394.7158 219.83546Q393.9814 220.66359 392.2783 222.10109Q390.8564 223.30421 390.45016 223.72609Q390.0439 224.14796 389.7939 224.58546L396.1064 224.58546ZM398.68454 226.10109L398.68454 224.30421L400.4814 224.30421L400.4814 226.10109L398.68454 226.10109ZM403.0283 223.11671L404.5439 222.97609Q404.74704 224.05421 405.2783 224.53859Q405.82516 225.02296 406.68454 225.02296Q407.4189 225.02296 407.9658 224.69484Q408.51266 224.35109 408.8564 223.80421Q409.2158 223.24171 409.45016 222.28859Q409.68454 221.33546 409.68454 220.35109Q409.68454 220.24171 409.68454 220.03859Q409.20016 220.78859 408.37204 221.25734Q407.55954 221.72609 406.6064 221.72609Q405.01266 221.72609 403.9033 220.56984Q402.7939 219.41359 402.7939 217.50734Q402.7939 215.55421 403.95016 214.36671Q405.1064 213.16359 406.8408 213.16359Q408.1064 213.16359 409.13766 213.85109Q410.18454 214.52296 410.7158 215.77296Q411.26266 217.02296 411.26266 219.39796Q411.26266 221.86671 410.7158 223.33546Q410.18454 224.78859 409.12204 225.55421Q408.07516 226.31984 406.6533 226.31984Q405.13766 226.31984 404.1689 225.49171Q403.2158 224.64796 403.0283 223.11671ZM409.51266 217.42921Q409.51266 216.06984 408.7783 215.27296Q408.05954 214.47609 407.0439 214.47609Q405.9814 214.47609 405.20016 215.33546Q404.4189 216.19484 404.4189 217.56984Q404.4189 218.80421 405.1533 219.56984Q405.9033 220.33546 406.99704 220.33546Q408.0908 220.33546 408.7939 219.56984Q409.51266 218.80421 409.51266 217.42921ZM413.0908 216.30421Q413.0908 214.92921 413.7783 213.96046Q414.4814 212.99171 415.7939 212.99171Q417.01266 212.99171 417.80954 213.86671Q418.6064 214.72609 418.6064 216.41359Q418.6064 218.03859 417.7939 218.92921Q416.99704 219.80421 415.80954 219.80421Q414.6533 219.80421 413.87204 218.94484Q413.0908 218.06984 413.0908 216.30421ZM415.8408 214.08546Q415.24704 214.08546 414.8564 214.60109Q414.4658 215.10109 414.4658 216.46046Q414.4658 217.71046 414.8564 218.21046Q415.26266 218.71046 415.8408 218.71046Q416.43454 218.71046 416.82516 218.21046Q417.2158 217.69484 417.2158 216.35109Q417.2158 215.10109 416.82516 214.60109Q416.43454 214.08546 415.8408 214.08546ZM415.8564 226.56984L422.9033 212.99171L424.18454 212.99171L417.1533 226.56984L415.8564 226.56984ZM421.4189 223.06984Q421.4189 221.69484 422.1064 220.72609Q422.80954 219.75734 424.13766 219.75734Q425.3564 219.75734 426.13766 220.63234Q426.93454 221.49171 426.93454 223.17921Q426.93454 224.80421 426.13766 225.69484Q425.3408 226.56984 424.1533 226.56984Q422.9814 226.56984 422.20016 225.69484Q421.4189 224.81984 421.4189 223.06984ZM424.18454 220.85109Q423.5908 220.85109 423.20016 221.36671Q422.80954 221.86671 422.80954 223.24171Q422.80954 224.46046 423.20016 224.97609Q423.5908 225.49171 424.1689 225.49171Q424.7783 225.49171 425.1689 224.97609Q425.55954 224.46046 425.55954 223.11671Q425.55954 221.86671 425.1689 221.36671Q424.7783 220.85109 424.18454 220.85109Z" fill-rule="nonzero"/><path fill="#ffffff" d="M221.34766 294.73865L219.76953 294.73865L219.76953 284.66052Q219.1914 285.2074 218.26953 285.75427Q217.34766 286.28552 216.59766 286.56677L216.59766 285.03552Q217.92578 284.41052 218.92578 283.5199Q219.92578 282.62927 220.33203 281.80115L221.34766 281.80115L221.34766 294.73865ZM231.34766 294.73865L229.76953 294.73865L229.76953 284.66052Q229.1914 285.2074 228.26953 285.75427Q227.34766 286.28552 226.59766 286.56677L226.59766 285.03552Q227.92578 284.41052 228.92578 283.5199Q229.92578 282.62927 230.33203 281.80115L231.34766 281.80115L231.34766 294.73865ZM236.28516 294.73865L236.28516 292.94177L238.08203 292.94177L238.08203 294.73865L236.28516 294.73865ZM242.83203 287.75427Q241.84766 287.3949 241.36328 286.72302Q240.89453 286.05115 240.89453 285.12927Q240.89453 283.72302 241.89453 282.7699Q242.91016 281.80115 244.59766 281.80115Q246.28516 281.80115 247.30078 282.78552Q248.33203 283.75427 248.33203 285.16052Q248.33203 286.06677 247.86328 286.73865Q247.39453 287.3949 246.4414 287.75427Q247.6289 288.1449 248.23828 289.00427Q248.86328 289.86365 248.86328 291.05115Q248.86328 292.7074 247.6914 293.8324Q246.51953 294.9574 244.61328 294.9574Q242.70703 294.9574 241.53516 293.8324Q240.3789 292.69177 240.3789 291.00427Q240.3789 289.75427 241.0039 288.91052Q241.64453 288.05115 242.83203 287.75427ZM242.5039 285.06677Q242.5039 285.98865 243.09766 286.56677Q243.6914 287.1449 244.6289 287.1449Q245.53516 287.1449 246.11328 286.56677Q246.70703 285.98865 246.70703 285.16052Q246.70703 284.28552 246.09766 283.69177Q245.5039 283.09802 244.61328 283.09802Q243.70703 283.09802 243.09766 283.67615Q242.5039 284.25427 242.5039 285.06677ZM242.0039 291.0199Q242.0039 291.69177 242.3164 292.3324Q242.64453 292.9574 243.26953 293.31677Q243.91016 293.66052 244.64453 293.66052Q245.76953 293.66052 246.5039 292.92615Q247.2539 292.19177 247.2539 291.06677Q247.2539 289.92615 246.48828 289.19177Q245.72266 288.44177 244.58203 288.44177Q243.47266 288.44177 242.73828 289.17615Q242.0039 289.91052 242.0039 291.0199ZM250.6914 284.94177Q250.6914 283.56677 251.3789 282.59802Q252.08203 281.62927 253.39453 281.62927Q254.61328 281.62927 255.41016 282.50427Q256.20703 283.36365 256.20703 285.05115Q256.20703 286.67615 255.39453 287.56677Q254.59766 288.44177 253.41016 288.44177Q252.2539 288.44177 251.47266 287.5824Q250.6914 286.7074 250.6914 284.94177ZM253.4414 282.72302Q252.84766 282.72302 252.45703 283.23865Q252.0664 283.73865 252.0664 285.09802Q252.0664 286.34802 252.45703 286.84802Q252.86328 287.34802 253.4414 287.34802Q254.03516 287.34802 254.42578 286.84802Q254.8164 286.3324 254.8164 284.98865Q254.8164 283.73865 254.42578 283.23865Q254.03516 282.72302 253.4414 282.72302ZM253.45703 295.2074L260.5039 281.62927L261.78516 281.62927L254.7539 295.2074L253.45703 295.2074ZM259.01953 291.7074Q259.01953 290.3324 259.70703 289.36365Q260.41016 288.3949 261.73828 288.3949Q262.95703 288.3949 263.73828 289.2699Q264.53516 290.12927 264.53516 291.81677Q264.53516 293.44177 263.73828 294.3324Q262.9414 295.2074 261.7539 295.2074Q260.58203 295.2074 259.80078 294.3324Q259.01953 293.4574 259.01953 291.7074ZM261.78516 289.48865Q261.1914 289.48865 260.80078 290.00427Q260.41016 290.50427 260.41016 291.87927Q260.41016 293.09802 260.80078 293.61365Q261.1914 294.12927 261.76953 294.12927Q262.3789 294.12927 262.76953 293.61365Q263.16016 293.09802 263.16016 291.75427Q263.16016 290.50427 262.76953 290.00427Q262.3789 289.48865 261.78516 289.48865Z" fill-rule="nonzero"/><path fill="#ffffff" d="M186.13281 158.92216L187.72656 158.71904Q187.99219 160.06279 188.64844 160.65654Q189.30469 161.25029 190.24219 161.25029Q191.36719 161.25029 192.13281 160.48466Q192.89844 159.70341 192.89844 158.56279Q192.89844 157.46904 192.17969 156.76591Q191.47656 156.04716 190.38281 156.04716Q189.92969 156.04716 189.25781 156.23466L189.42969 154.84404Q189.58594 154.85966 189.69531 154.85966Q190.69531 154.85966 191.50781 154.32841Q192.32031 153.79716 192.32031 152.70341Q192.32031 151.82841 191.72656 151.26591Q191.13281 150.68779 190.21094 150.68779Q189.28906 150.68779 188.66406 151.26591Q188.05469 151.84404 187.88281 153.01591L186.30469 152.73466Q186.58594 151.14091 187.61719 150.26591Q188.64844 149.39091 190.17969 149.39091Q191.22656 149.39091 192.11719 149.84404Q193.00781 150.29716 193.47656 151.07841Q193.94531 151.85966 193.94531 152.73466Q193.94531 153.57841 193.49219 154.26591Q193.05469 154.93779 192.16406 155.34404Q193.30469 155.60966 193.92969 156.45341Q194.57031 157.28154 194.57031 158.51591Q194.57031 160.20341 193.33594 161.39091Q192.11719 162.56279 190.24219 162.56279Q188.53906 162.56279 187.41406 161.54716Q186.30469 160.53154 186.13281 158.92216ZM201.19531 162.32841L201.19531 159.25029L195.61719 159.25029L195.61719 157.79716L201.49219 149.43779L202.78906 149.43779L202.78906 157.79716L204.52344 157.79716L204.52344 159.25029L202.78906 159.25029L202.78906 162.32841L201.19531 162.32841ZM201.19531 157.79716L201.19531 151.98466L197.16406 157.79716L201.19531 157.79716ZM207.02344 162.32841L207.02344 160.53154L208.82031 160.53154L208.82031 162.32841L207.02344 162.32841ZM211.13281 158.92216L212.72656 158.71904Q212.99219 160.06279 213.64844 160.65654Q214.30469 161.25029 215.24219 161.25029Q216.36719 161.25029 217.13281 160.48466Q217.89844 159.70341 217.89844 158.56279Q217.89844 157.46904 217.17969 156.76591Q216.47656 156.04716 215.38281 156.04716Q214.92969 156.04716 214.25781 156.23466L214.42969 154.84404Q214.58594 154.85966 214.69531 154.85966Q215.69531 154.85966 216.50781 154.32841Q217.32031 153.79716 217.32031 152.70341Q217.32031 151.82841 216.72656 151.26591Q216.13281 150.68779 215.21094 150.68779Q214.28906 150.68779 213.66406 151.26591Q213.05469 151.84404 212.88281 153.01591L211.30469 152.73466Q211.58594 151.14091 212.61719 150.26591Q213.64844 149.39091 215.17969 149.39091Q216.22656 149.39091 217.11719 149.84404Q218.00781 150.29716 218.47656 151.07841Q218.94531 151.85966 218.94531 152.73466Q218.94531 153.57841 218.49219 154.26591Q218.05469 154.93779 217.16406 155.34404Q218.30469 155.60966 218.92969 156.45341Q219.57031 157.28154 219.57031 158.51591Q219.57031 160.20341 218.33594 161.39091Q217.11719 162.56279 215.24219 162.56279Q213.53906 162.56279 212.41406 161.54716Q211.30469 160.53154 211.13281 158.92216ZM221.42969 152.53154Q221.42969 151.15654 222.11719 150.18779Q222.82031 149.21904 224.13281 149.21904Q225.35156 149.21904 226.14844 150.09404Q226.94531 150.95341 226.94531 152.64091Q226.94531 154.26591 226.13281 155.15654Q225.33594 156.03154 224.14844 156.03154Q222.99219 156.03154 222.21094 155.17216Q221.42969 154.29716 221.42969 152.53154ZM224.17969 150.31279Q223.58594 150.31279 223.19531 150.82841Q222.80469 151.32841 222.80469 152.68779Q222.80469 153.93779 223.19531 154.43779Q223.60156 154.93779 224.17969 154.93779Q224.77344 154.93779 225.16406 154.43779Q225.55469 153.92216 225.55469 152.57841Q225.55469 151.32841 225.16406 150.82841Q224.77344 150.31279 224.17969 150.31279ZM224.19531 162.79716L231.24219 149.21904L232.52344 149.21904L225.49219 162.79716L224.19531 162.79716ZM229.75781 159.29716Q229.75781 157.92216 230.44531 156.95341Q231.14844 155.98466 232.47656 155.98466Q233.69531 155.98466 234.47656 156.85966Q235.27344 157.71904 235.27344 159.40654Q235.27344 161.03154 234.47656 161.92216Q233.67969 162.79716 232.49219 162.79716Q231.32031 162.79716 230.53906 161.92216Q229.75781 161.04716 229.75781 159.29716ZM232.52344 157.07841Q231.92969 157.07841 231.53906 157.59404Q231.14844 158.09404 231.14844 159.46904Q231.14844 160.68779 231.53906 161.20341Q231.92969 161.71904 232.50781 161.71904Q233.11719 161.71904 233.50781 161.20341Q233.89844 160.68779 233.89844 159.34404Q233.89844 158.09404 233.50781 157.59404Q233.11719 157.07841 232.52344 157.07841Z" fill-rule="nonzero"/><path stroke="#ffffff" stroke-width="1.0" stroke-linejoin="round" stroke-linecap="round" d="M302.28955 166.56221C301.52728 166.5152 300.76373 166.49167 300.0 166.49167L300.0 54.916668C303.0549 54.916668 306.1091 55.010765 309.1582 55.19883" fill-rule="nonzero"/><path stroke="#ffffff" stroke-width="1.0" stroke-linejoin="round" stroke-linecap="round" d="M290.92844 239.7517C304.61154 243.19315 319.06378 238.59555 328.24353 227.8809C337.42328 217.16628 339.7496 202.17984 334.25 189.18655C328.75043 176.19325 316.37204 167.43079 302.28955 166.56221L309.1582 55.19883C365.4882 58.67314 415.00168 93.72302 437.00003 145.69618C458.9984 197.66936 449.69308 257.6151 412.97415 300.47366C376.2552 343.3322 318.44623 361.72256 263.71378 347.9568" fill-rule="nonzero"/><path stroke="#ffffff" stroke-width="1.0" stroke-linejoin="round" stroke-linecap="round" d="M268.99695 224.2267C274.11725 231.95401 281.93866 237.49068 290.92844 239.7517L263.71378 347.9568C227.7546 338.9127 196.46893 316.76605 175.98775 285.85684" fill-rule="nonzero"/><path stroke="#ffffff" stroke-width="1.0" stroke-linejoin="round" stroke-linecap="round" d="M300.0 166.49167C286.30258 166.49167 273.71384 174.02061 267.23367 186.0882C260.75354 198.15578 261.43097 212.80852 268.99695 224.2267L175.98775 285.85684C145.72389 240.18407 143.01413 181.5731 168.93475 133.30278C194.85536 85.032455 245.21037 54.916668 300.0 54.916668" fill-rule="nonzero"/><path fill="#efefef" d="M27.3 119.86868L28.815624 119.86868L28.815624 126.47806Q28.815624 128.21243 28.425 129.22806Q28.034374 130.24368 27.01875 130.88431Q26.003124 131.52493 24.346874 131.52493Q22.7375 131.52493 21.70625 130.96243Q20.690624 130.39993 20.253124 129.35306Q19.815624 128.30618 19.815624 126.47806L19.815624 119.86868L21.33125 119.86868L21.33125 126.47806Q21.33125 127.96243 21.596874 128.68118Q21.878124 129.38431 22.55 129.77493Q23.2375 130.14993 24.20625 130.14993Q25.878124 130.14993 26.58125 129.39993Q27.3 128.63431 27.3 126.47806L27.3 119.86868ZM31.596874 131.32181L31.596874 123.02493L32.8625 123.02493L32.8625 124.27493Q33.346874 123.39993 33.753124 123.11868Q34.159374 122.83743 34.659374 122.83743Q35.3625 122.83743 36.096874 123.29056L35.6125 124.58743Q35.096874 124.29056 34.58125 124.29056Q34.128124 124.29056 33.753124 124.57181Q33.39375 124.83743 33.2375 125.33743Q33.003124 126.08743 33.003124 126.97806L33.003124 131.32181L31.596874 131.32181ZM37.909374 131.32181L36.596874 131.32181L36.596874 119.86868L38.003124 119.86868L38.003124 123.94681Q38.89375 122.83743 40.284374 122.83743Q41.05 122.83743 41.721874 123.14993Q42.409374 123.44681 42.846874 124.00931Q43.3 124.57181 43.55 125.36868Q43.8 126.14993 43.8 127.04056Q43.8 129.18118 42.7375 130.35306Q41.690624 131.50931 40.20625 131.50931Q38.7375 131.50931 37.909374 130.27493L37.909374 131.32181ZM37.89375 127.10306Q37.89375 128.60306 38.3 129.25931Q38.95625 130.35306 40.096874 130.35306Q41.01875 130.35306 41.690624 129.55618Q42.3625 128.74368 42.3625 127.16556Q42.3625 125.54056 41.70625 124.77493Q41.065624 123.99368 40.159374 123.99368Q39.2375 123.99368 38.565624 124.79056Q37.89375 125.58743 37.89375 127.10306ZM51.01875 130.29056Q50.2375 130.96243 49.51875 131.24368Q48.8 131.50931 47.971874 131.50931Q46.596874 131.50931 45.8625 130.83743Q45.128124 130.16556 45.128124 129.13431Q45.128124 128.52493 45.409374 128.02493Q45.690624 127.50931 46.128124 127.21243Q46.58125 126.89993 47.14375 126.74368Q47.565624 126.63431 48.39375 126.54056Q50.096874 126.33743 50.909374 126.05618Q50.909374 125.75931 50.909374 125.68118Q50.909374 124.82181 50.51875 124.47806Q49.971874 123.99368 48.909374 123.99368Q47.925 123.99368 47.440624 124.35306Q46.971874 124.69681 46.753124 125.57181L45.378124 125.38431Q45.565624 124.50931 45.9875 123.96243Q46.425 123.41556 47.2375 123.13431Q48.05 122.83743 49.1125 122.83743Q50.175 122.83743 50.83125 123.08743Q51.503124 123.33743 51.815624 123.71243Q52.128124 124.08743 52.253124 124.66556Q52.33125 125.02493 52.33125 125.96243L52.33125 127.83743Q52.33125 129.80618 52.409374 130.32181Q52.503124 130.83743 52.76875 131.32181L51.3 131.32181Q51.08125 130.88431 51.01875 130.29056ZM50.909374 127.14993Q50.14375 127.46243 48.6125 127.68118Q47.7375 127.80618 47.378124 127.96243Q47.01875 128.11868 46.815624 128.43118Q46.628124 128.72806 46.628124 129.08743Q46.628124 129.64993 47.05 130.02493Q47.4875 130.39993 48.3 130.39993Q49.1125 130.39993 49.7375 130.05618Q50.378124 129.69681 50.675 129.07181Q50.909374 128.60306 50.909374 127.66556L50.909374 127.14993ZM54.6125 131.32181L54.6125 123.02493L55.878124 123.02493L55.878124 124.19681Q56.784374 122.83743 58.51875 122.83743Q59.26875 122.83743 59.89375 123.10306Q60.51875 123.36868 60.83125 123.80618Q61.14375 124.24368 61.26875 124.85306Q61.346874 125.24368 61.346874 126.21243L61.346874 131.32181L59.940624 131.32181L59.940624 126.27493Q59.940624 125.41556 59.76875 124.99368Q59.6125 124.55618 59.190624 124.30618Q58.784374 124.05618 58.221874 124.05618Q57.315624 124.05618 56.659374 124.63431Q56.01875 125.19681 56.01875 126.79056L56.01875 131.32181L54.6125 131.32181ZM63.05 128.83743L64.44063 128.61868Q64.55 129.46243 65.08125 129.91556Q65.62813 130.35306 66.58125 130.35306Q67.55 130.35306 68.01875 129.96243Q68.4875 129.55618 68.4875 129.02493Q68.4875 128.55618 68.08125 128.27493Q67.78438 128.08743 66.64375 127.80618Q65.09688 127.41556 64.4875 127.13431Q63.89375 126.83743 63.58125 126.33743Q63.284374 125.83743 63.284374 125.22806Q63.284374 124.66556 63.534374 124.19681Q63.784374 123.72806 64.22188 123.41556Q64.55 123.16556 65.1125 123.00931Q65.69063 122.83743 66.33125 122.83743Q67.31563 122.83743 68.05 123.11868Q68.78438 123.39993 69.12813 123.88431Q69.4875 124.35306 69.62813 125.16556L68.25313 125.35306Q68.15938 124.71243 67.70625 124.35306Q67.25313 123.99368 66.44063 123.99368Q65.47188 123.99368 65.05 124.32181Q64.64375 124.63431 64.64375 125.05618Q64.64375 125.33743 64.81563 125.55618Q64.9875 125.77493 65.34688 125.93118Q65.56563 126.00931 66.59688 126.29056Q68.08125 126.68118 68.675 126.94681Q69.26875 127.19681 69.59688 127.68118Q69.94063 128.16556 69.94063 128.88431Q69.94063 129.58743 69.51875 130.21243Q69.1125 130.82181 68.33125 131.16556Q67.56563 131.50931 66.59688 131.50931Q64.97188 131.50931 64.12813 130.83743Q63.284374 130.16556 63.05 128.83743ZM77.01875 128.27493L78.40938 128.46243Q78.175 129.88431 77.2375 130.69681Q76.31563 131.50931 74.95625 131.50931Q73.25313 131.50931 72.20625 130.39993Q71.175 129.27493 71.175 127.19681Q71.175 125.85306 71.6125 124.85306Q72.06563 123.83743 72.97188 123.33743Q73.89375 122.83743 74.95625 122.83743Q76.31563 122.83743 77.175 123.52493Q78.03438 124.19681 78.26875 125.46243L76.90938 125.66556Q76.70625 124.83743 76.20625 124.41556Q75.72188 123.99368 75.01875 123.99368Q73.95625 123.99368 73.28438 124.75931Q72.62813 125.50931 72.62813 127.16556Q72.62813 128.83743 73.26875 129.60306Q73.90938 130.35306 74.94063 130.35306Q75.76875 130.35306 76.31563 129.85306Q76.87813 129.33743 77.01875 128.27493ZM85.01875 130.29056Q84.2375 130.96243 83.51875 131.24368Q82.8 131.50931 81.97188 131.50931Q80.59688 131.50931 79.8625 130.83743Q79.12813 130.16556 79.12813 129.13431Q79.12813 128.52493 79.40938 128.02493Q79.69063 127.50931 80.12813 127.21243Q80.58125 126.89993 81.14375 126.74368Q81.56563 126.63431 82.39375 126.54056Q84.09688 126.33743 84.90938 126.05618Q84.90938 125.75931 84.90938 125.68118Q84.90938 124.82181 84.51875 124.47806Q83.97188 123.99368 82.90938 123.99368Q81.925 123.99368 81.44063 124.35306Q80.97188 124.69681 80.75313 125.57181L79.37813 125.38431Q79.56563 124.50931 79.9875 123.96243Q80.425 123.41556 81.2375 123.13431Q82.05 122.83743 83.1125 122.83743Q84.175 122.83743 84.83125 123.08743Q85.50313 123.33743 85.81563 123.71243Q86.12813 124.08743 86.25313 124.66556Q86.33125 125.02493 86.33125 125.96243L86.33125 127.83743Q86.33125 129.80618 86.40938 130.32181Q86.50313 130.83743 86.76875 131.32181L85.3 131.32181Q85.08125 130.88431 85.01875 130.29056ZM84.90938 127.14993Q84.14375 127.46243 82.6125 127.68118Q81.7375 127.80618 81.37813 127.96243Q81.01875 128.11868 80.81563 128.43118Q80.62813 128.72806 80.62813 129.08743Q80.62813 129.64993 81.05 130.02493Q81.4875 130.39993 82.3 130.39993Q83.1125 130.39993 83.7375 130.05618Q84.37813 129.69681 84.675 129.07181Q84.90938 128.60306 84.90938 127.66556L84.90938 127.14993ZM88.6125 134.50931L88.6125 123.02493L89.89375 123.02493L89.89375 124.10306Q90.34688 123.46243 90.90938 123.14993Q91.4875 122.83743 92.3 122.83743Q93.3625 122.83743 94.175 123.38431Q94.9875 123.93118 95.39375 124.93118Q95.81563 125.91556 95.81563 127.10306Q95.81563 128.38431 95.34688 129.39993Q94.89375 130.41556 94.01875 130.96243Q93.15938 131.50931 92.19063 131.50931Q91.4875 131.50931 90.925 131.21243Q90.37813 130.91556 90.01875 130.46243L90.01875 134.50931L88.6125 134.50931ZM89.87813 127.21243Q89.87813 128.82181 90.51875 129.58743Q91.175 130.35306 92.09688 130.35306Q93.03438 130.35306 93.70625 129.55618Q94.37813 128.75931 94.37813 127.10306Q94.37813 125.50931 93.72188 124.72806Q93.06563 123.93118 92.15938 123.93118Q91.26875 123.93118 90.56563 124.77493Q89.87813 125.61868 89.87813 127.21243ZM103.28438 128.64993L104.7375 128.82181Q104.39375 130.10306 103.45625 130.80618Q102.53438 131.50931 101.09688 131.50931Q99.26875 131.50931 98.20625 130.38431Q97.14375 129.25931 97.14375 127.24368Q97.14375 125.14993 98.22188 123.99368Q99.3 122.83743 101.01875 122.83743Q102.675 122.83743 103.72188 123.97806Q104.78438 125.10306 104.78438 127.14993Q104.78438 127.27493 104.78438 127.52493L98.59688 127.52493Q98.675 128.89993 99.3625 129.63431Q100.06563 130.35306 101.09688 130.35306Q101.87813 130.35306 102.425 129.94681Q102.97188 129.54056 103.28438 128.64993ZM98.675 126.36868L103.3 126.36868Q103.20625 125.32181 102.76875 124.80618Q102.09688 123.99368 101.03438 123.99368Q100.06563 123.99368 99.39375 124.64993Q98.7375 125.29056 98.675 126.36868Z" fill-rule="nonzero"/><path fill="#9e9e9e" d="M19.221874 150.29056L20.628124 150.10306Q20.878124 151.30618 21.45625 151.83743Q22.034374 152.35306 22.878124 152.35306Q23.8625 152.35306 24.55 151.66556Q25.2375 150.97806 25.2375 149.96243Q25.2375 148.99368 24.596874 148.36868Q23.971874 147.74368 22.9875 147.74368Q22.596874 147.74368 22.003124 147.89993L22.159374 146.66556Q22.3 146.68118 22.378124 146.68118Q23.284374 146.68118 24.003124 146.21243Q24.721874 145.74368 24.721874 144.75931Q24.721874 143.99368 24.190624 143.49368Q23.675 142.97806 22.846874 142.97806Q22.01875 142.97806 21.471874 143.49368Q20.925 144.00931 20.76875 145.04056L19.3625 144.79056Q19.628124 143.36868 20.534374 142.60306Q21.45625 141.82181 22.815624 141.82181Q23.753124 141.82181 24.534374 142.22806Q25.33125 142.61868 25.7375 143.32181Q26.159374 144.00931 26.159374 144.79056Q26.159374 145.54056 25.753124 146.14993Q25.3625 146.75931 24.58125 147.11868Q25.596874 147.35306 26.159374 148.08743Q26.721874 148.82181 26.721874 149.93118Q26.721874 151.43118 25.628124 152.47806Q24.534374 153.52493 22.8625 153.52493Q21.3625 153.52493 20.3625 152.63431Q19.3625 151.72806 19.221874 150.29056ZM32.721874 153.32181L32.721874 150.57181L27.753124 150.57181L27.753124 149.29056L32.9875 141.86868L34.128124 141.86868L34.128124 149.29056L35.675 149.29056L35.675 150.57181L34.128124 150.57181L34.128124 153.32181L32.721874 153.32181ZM32.721874 149.29056L32.721874 144.11868L29.14375 149.29056L32.721874 149.29056ZM38.003124 153.32181L38.003124 151.71243L39.6125 151.71243L39.6125 153.32181L38.003124 153.32181ZM41.221874 150.29056L42.628124 150.10306Q42.878124 151.30618 43.45625 151.83743Q44.034374 152.35306 44.878124 152.35306Q45.8625 152.35306 46.55 151.66556Q47.2375 150.97806 47.2375 149.96243Q47.2375 148.99368 46.596874 148.36868Q45.971874 147.74368 44.9875 147.74368Q44.596874 147.74368 44.003124 147.89993L44.159374 146.66556Q44.3 146.68118 44.378124 146.68118Q45.284374 146.68118 46.003124 146.21243Q46.721874 145.74368 46.721874 144.75931Q46.721874 143.99368 46.190624 143.49368Q45.675 142.97806 44.846874 142.97806Q44.01875 142.97806 43.471874 143.49368Q42.925 144.00931 42.76875 145.04056L41.3625 144.79056Q41.628124 143.36868 42.534374 142.60306Q43.45625 141.82181 44.815624 141.82181Q45.753124 141.82181 46.534374 142.22806Q47.33125 142.61868 47.7375 143.32181Q48.159374 144.00931 48.159374 144.79056Q48.159374 145.54056 47.753124 146.14993Q47.3625 146.75931 46.58125 147.11868Q47.596874 147.35306 48.159374 148.08743Q48.721874 148.82181 48.721874 149.93118Q48.721874 151.43118 47.628124 152.47806Q46.534374 153.52493 44.8625 153.52493Q43.3625 153.52493 42.3625 152.63431Q41.3625 151.72806 41.221874 150.29056ZM50.4875 144.61868Q50.4875 143.38431 51.096874 142.52493Q51.721874 141.66556 52.89375 141.66556Q53.971874 141.66556 54.675 142.44681Q55.378124 143.21243 55.378124 144.69681Q55.378124 146.14993 54.659374 146.94681Q53.95625 147.72806 52.909374 147.72806Q51.8625 147.72806 51.175 146.96243Q50.4875 146.18118 50.4875 144.61868ZM52.925 142.63431Q52.409374 142.63431 52.05 143.08743Q51.70625 143.54056 51.70625 144.75931Q51.70625 145.85306 52.05 146.30618Q52.409374 146.75931 52.925 146.75931Q53.45625 146.75931 53.8 146.30618Q54.159374 145.85306 54.159374 144.64993Q54.159374 143.54056 53.8 143.08743Q53.45625 142.63431 52.925 142.63431ZM52.940624 153.74368L59.20625 141.66556L60.346874 141.66556L54.096874 153.74368L52.940624 153.74368ZM57.89375 150.63431Q57.89375 149.39993 58.503124 148.54056Q59.128124 147.68118 60.3 147.68118Q61.378124 147.68118 62.08125 148.46243Q62.8 149.22806 62.8 150.71243Q62.8 152.16556 62.08125 152.96243Q61.3625 153.74368 60.315624 153.74368Q59.26875 153.74368 58.58125 152.96243Q57.89375 152.18118 57.89375 150.63431ZM60.346874 148.64993Q59.815624 148.64993 59.45625 149.10306Q59.1125 149.55618 59.1125 150.77493Q59.1125 151.86868 59.45625 152.32181Q59.815624 152.77493 60.33125 152.77493Q60.878124 152.77493 61.221874 152.32181Q61.565624 151.86868 61.565624 150.66556Q61.565624 149.55618 61.20625 149.10306Q60.8625 148.64993 60.346874 148.64993Z" fill-rule="nonzero"/><path stroke="#757575" stroke-width="1.0" stroke-linecap="butt" d="M18.55 136.82181L145.23334 136.82181L175.48802 136.82181" fill-rule="nonzero"/><path fill="#9e9e9e" d="M177.48802 136.82181C177.48802 135.71724 176.59259 134.82181 175.48802 134.82181C174.38344 134.82181 173.48802 135.71724 173.48802 136.82181C173.48802 137.92638 174.38344 138.82181 175.48802 138.82181C176.59259 138.82181 177.48802 137.92638 177.48802 136.82181" fill-rule="nonzero"/><path fill="#efefef" d="M19.76875 313.5351L19.76875 302.08197L21.33125 302.08197L27.346874 311.06635L27.346874 302.08197L28.8 302.08197L28.8 313.5351L27.2375 313.5351L21.221874 304.5351L21.221874 313.5351L19.76875 313.5351ZM37.01875 312.50385Q36.2375 313.17572 35.51875 313.45697Q34.8 313.7226 33.971874 313.7226Q32.596874 313.7226 31.8625 313.05072Q31.128124 312.37885 31.128124 311.3476Q31.128124 310.73822 31.409374 310.23822Q31.690624 309.7226 32.128124 309.42572Q32.58125 309.11322 33.14375 308.95697Q33.565624 308.8476 34.39375 308.75385Q36.096874 308.55072 36.909374 308.26947Q36.909374 307.9726 36.909374 307.89447Q36.909374 307.0351 36.51875 306.69135Q35.971874 306.20697 34.909374 306.20697Q33.925 306.20697 33.440624 306.56635Q32.971874 306.9101 32.753124 307.7851L31.378124 307.5976Q31.565624 306.7226 31.9875 306.17572Q32.425 305.62885 33.2375 305.3476Q34.05 305.05072 35.1125 305.05072Q36.175 305.05072 36.83125 305.30072Q37.503124 305.55072 37.815624 305.92572Q38.128124 306.30072 38.253124 306.87885Q38.33125 307.23822 38.33125 308.17572L38.33125 310.05072Q38.33125 312.01947 38.409374 312.5351Q38.503124 313.05072 38.76875 313.5351L37.3 313.5351Q37.08125 313.0976 37.01875 312.50385ZM36.909374 309.36322Q36.14375 309.67572 34.6125 309.89447Q33.7375 310.01947 33.378124 310.17572Q33.01875 310.33197 32.815624 310.64447Q32.628124 310.94135 32.628124 311.30072Q32.628124 311.86322 33.05 312.23822Q33.4875 312.61322 34.3 312.61322Q35.1125 312.61322 35.7375 312.26947Q36.378124 311.9101 36.675 311.2851Q36.909374 310.81635 36.909374 309.87885L36.909374 309.36322ZM43.675 312.26947L43.878124 313.51947Q43.284374 313.64447 42.815624 313.64447Q42.05 313.64447 41.628124 313.4101Q41.20625 313.1601 41.034374 312.76947Q40.8625 312.36322 40.8625 311.0976L40.8625 306.33197L39.83125 306.33197L39.83125 305.23822L40.8625 305.23822L40.8625 303.17572L42.26875 302.33197L42.26875 305.23822L43.675 305.23822L43.675 306.33197L42.26875 306.33197L42.26875 311.17572Q42.26875 311.7851 42.33125 311.95697Q42.409374 312.12885 42.58125 312.23822Q42.753124 312.33197 43.065624 312.33197Q43.3 312.33197 43.675 312.26947ZM50.05 313.5351L50.05 312.31635Q49.08125 313.7226 47.409374 313.7226Q46.675 313.7226 46.034374 313.44135Q45.409374 313.1601 45.096874 312.73822Q44.784374 312.30072 44.659374 311.69135Q44.58125 311.26947 44.58125 310.37885L44.58125 305.23822L45.9875 305.23822L45.9875 309.83197Q45.9875 310.94135 46.065624 311.31635Q46.20625 311.87885 46.628124 312.19135Q47.065624 312.50385 47.690624 312.50385Q48.33125 312.50385 48.878124 312.19135Q49.440624 311.86322 49.659374 311.30072Q49.89375 310.73822 49.89375 309.67572L49.89375 305.23822L51.3 305.23822L51.3 313.5351L50.05 313.5351ZM53.596874 313.5351L53.596874 305.23822L54.8625 305.23822L54.8625 306.48822Q55.346874 305.61322 55.753124 305.33197Q56.159374 305.05072 56.659374 305.05072Q57.3625 305.05072 58.096874 305.50385L57.6125 306.80072Q57.096874 306.50385 56.58125 306.50385Q56.128124 306.50385 55.753124 306.7851Q55.39375 307.05072 55.2375 307.55072Q55.003124 308.30072 55.003124 309.19135L55.003124 313.5351L53.596874 313.5351ZM64.28438 310.86322L65.7375 311.0351Q65.39375 312.31635 64.45625 313.01947Q63.534374 313.7226 62.096874 313.7226Q60.26875 313.7226 59.20625 312.5976Q58.14375 311.4726 58.14375 309.45697Q58.14375 307.36322 59.221874 306.20697Q60.3 305.05072 62.01875 305.05072Q63.675 305.05072 64.72188 306.19135Q65.78438 307.31635 65.78438 309.36322Q65.78438 309.48822 65.78438 309.73822L59.596874 309.73822Q59.675 311.11322 60.3625 311.8476Q61.065624 312.56635 62.096874 312.56635Q62.878124 312.56635 63.425 312.1601Q63.971874 311.75385 64.28438 310.86322ZM59.675 308.58197L64.3 308.58197Q64.20625 307.5351 63.76875 307.01947Q63.096874 306.20697 62.034374 306.20697Q61.065624 306.20697 60.39375 306.86322Q59.7375 307.50385 59.675 308.58197ZM67.05 311.05072L68.44063 310.83197Q68.55 311.67572 69.08125 312.12885Q69.62813 312.56635 70.58125 312.56635Q71.55 312.56635 72.01875 312.17572Q72.4875 311.76947 72.4875 311.23822Q72.4875 310.76947 72.08125 310.48822Q71.78438 310.30072 70.64375 310.01947Q69.09688 309.62885 68.4875 309.3476Q67.89375 309.05072 67.58125 308.55072Q67.28438 308.05072 67.28438 307.44135Q67.28438 306.87885 67.53438 306.4101Q67.78438 305.94135 68.22188 305.62885Q68.55 305.37885 69.1125 305.2226Q69.69063 305.05072 70.33125 305.05072Q71.31563 305.05072 72.05 305.33197Q72.78438 305.61322 73.12813 306.0976Q73.4875 306.56635 73.62813 307.37885L72.25313 307.56635Q72.15938 306.92572 71.70625 306.56635Q71.25313 306.20697 70.44063 306.20697Q69.47188 306.20697 69.05 306.5351Q68.64375 306.8476 68.64375 307.26947Q68.64375 307.55072 68.81563 307.76947Q68.9875 307.98822 69.34688 308.14447Q69.56563 308.2226 70.59688 308.50385Q72.08125 308.89447 72.675 309.1601Q73.26875 309.4101 73.59688 309.89447Q73.94063 310.37885 73.94063 311.0976Q73.94063 311.80072 73.51875 312.42572Q73.1125 313.0351 72.33125 313.37885Q71.56563 313.7226 70.59688 313.7226Q68.97188 313.7226 68.12813 313.05072Q67.28438 312.37885 67.05 311.05072ZM81.01875 310.48822L82.40938 310.67572Q82.175 312.0976 81.2375 312.9101Q80.31563 313.7226 78.95625 313.7226Q77.25313 313.7226 76.20625 312.61322Q75.175 311.48822 75.175 309.4101Q75.175 308.06635 75.6125 307.06635Q76.06563 306.05072 76.97188 305.55072Q77.89375 305.05072 78.95625 305.05072Q80.31563 305.05072 81.175 305.73822Q82.03438 306.4101 82.26875 307.67572L80.90938 307.87885Q80.70625 307.05072 80.20625 306.62885Q79.72188 306.20697 79.01875 306.20697Q77.95625 306.20697 77.28438 306.9726Q76.62813 307.7226 76.62813 309.37885Q76.62813 311.05072 77.26875 311.81635Q77.90938 312.56635 78.94063 312.56635Q79.76875 312.56635 80.31563 312.06635Q80.87813 311.55072 81.01875 310.48822ZM89.01875 312.50385Q88.2375 313.17572 87.51875 313.45697Q86.8 313.7226 85.97188 313.7226Q84.59688 313.7226 83.8625 313.05072Q83.12813 312.37885 83.12813 311.3476Q83.12813 310.73822 83.40938 310.23822Q83.69063 309.7226 84.12813 309.42572Q84.58125 309.11322 85.14375 308.95697Q85.56563 308.8476 86.39375 308.75385Q88.09688 308.55072 88.90938 308.26947Q88.90938 307.9726 88.90938 307.89447Q88.90938 307.0351 88.51875 306.69135Q87.97188 306.20697 86.90938 306.20697Q85.925 306.20697 85.44063 306.56635Q84.97188 306.9101 84.75313 307.7851L83.37813 307.5976Q83.56563 306.7226 83.9875 306.17572Q84.425 305.62885 85.2375 305.3476Q86.05 305.05072 87.1125 305.05072Q88.175 305.05072 88.83125 305.30072Q89.50313 305.55072 89.81563 305.92572Q90.12813 306.30072 90.25313 306.87885Q90.33125 307.23822 90.33125 308.17572L90.33125 310.05072Q90.33125 312.01947 90.40938 312.5351Q90.50313 313.05072 90.76875 313.5351L89.3 313.5351Q89.08125 313.0976 89.01875 312.50385ZM88.90938 309.36322Q88.14375 309.67572 86.6125 309.89447Q85.7375 310.01947 85.37813 310.17572Q85.01875 310.33197 84.81563 310.64447Q84.62813 310.94135 84.62813 311.30072Q84.62813 311.86322 85.05 312.23822Q85.4875 312.61322 86.3 312.61322Q87.1125 312.61322 87.7375 312.26947Q88.37813 311.9101 88.675 311.2851Q88.90938 310.81635 88.90938 309.87885L88.90938 309.36322ZM92.6125 316.7226L92.6125 305.23822L93.89375 305.23822L93.89375 306.31635Q94.34688 305.67572 94.90938 305.36322Q95.4875 305.05072 96.3 305.05072Q97.3625 305.05072 98.175 305.5976Q98.9875 306.14447 99.39375 307.14447Q99.81563 308.12885 99.81563 309.31635Q99.81563 310.5976 99.34688 311.61322Q98.89375 312.62885 98.01875 313.17572Q97.15938 313.7226 96.19063 313.7226Q95.4875 313.7226 94.925 313.42572Q94.37813 313.12885 94.01875 312.67572L94.01875 316.7226L92.6125 316.7226ZM93.87813 309.42572Q93.87813 311.0351 94.51875 311.80072Q95.175 312.56635 96.09688 312.56635Q97.03438 312.56635 97.70625 311.76947Q98.37813 310.9726 98.37813 309.31635Q98.37813 307.7226 97.72188 306.94135Q97.06563 306.14447 96.15938 306.14447Q95.26875 306.14447 94.56563 306.98822Q93.87813 307.83197 93.87813 309.42572ZM107.28438 310.86322L108.7375 311.0351Q108.39375 312.31635 107.45625 313.01947Q106.53438 313.7226 105.09688 313.7226Q103.26875 313.7226 102.20625 312.5976Q101.14375 311.4726 101.14375 309.45697Q101.14375 307.36322 102.22188 306.20697Q103.3 305.05072 105.01875 305.05072Q106.675 305.05072 107.72188 306.19135Q108.78438 307.31635 108.78438 309.36322Q108.78438 309.48822 108.78438 309.73822L102.59688 309.73822Q102.675 311.11322 103.3625 311.8476Q104.06563 312.56635 105.09688 312.56635Q105.87813 312.56635 106.425 312.1601Q106.97188 311.75385 107.28438 310.86322ZM102.675 308.58197L107.3 308.58197Q107.20625 307.5351 106.76875 307.01947Q106.09688 306.20697 105.03438 306.20697Q104.06563 306.20697 103.39375 306.86322Q102.7375 307.50385 102.675 308.58197Z" fill-rule="nonzero"/><path fill="#9e9e9e" d="M24.51875 335.5351L23.1125 335.5351L23.1125 326.56635Q22.596874 327.05072 21.76875 327.5351Q20.95625 328.01947 20.3 328.26947L20.3 326.9101Q21.471874 326.3476 22.346874 325.56635Q23.2375 324.76947 23.6125 324.0351L24.51875 324.0351L24.51875 335.5351ZM33.51875 335.5351L32.1125 335.5351L32.1125 326.56635Q31.596874 327.05072 30.76875 327.5351Q29.95625 328.01947 29.3 328.26947L29.3 326.9101Q30.471874 326.3476 31.346874 325.56635Q32.2375 324.76947 32.6125 324.0351L33.51875 324.0351L33.51875 335.5351ZM38.003124 335.5351L38.003124 333.92572L39.6125 333.92572L39.6125 335.5351L38.003124 335.5351ZM43.378124 329.31635Q42.503124 329.00385 42.08125 328.4101Q41.659374 327.81635 41.659374 326.98822Q41.659374 325.73822 42.55 324.89447Q43.45625 324.0351 44.95625 324.0351Q46.45625 324.0351 47.3625 324.9101Q48.284374 325.76947 48.284374 327.01947Q48.284374 327.81635 47.8625 328.4101Q47.440624 329.00385 46.596874 329.31635Q47.64375 329.6601 48.190624 330.42572Q48.753124 331.19135 48.753124 332.25385Q48.753124 333.7226 47.70625 334.73822Q46.675 335.73822 44.971874 335.73822Q43.284374 335.73822 42.2375 334.73822Q41.20625 333.7226 41.20625 332.2226Q41.20625 331.0976 41.76875 330.3476Q42.33125 329.5976 43.378124 329.31635ZM43.096874 326.94135Q43.096874 327.75385 43.6125 328.26947Q44.14375 328.7851 44.9875 328.7851Q45.8 328.7851 46.315624 328.26947Q46.83125 327.75385 46.83125 327.01947Q46.83125 326.23822 46.3 325.7226Q45.76875 325.19135 44.971874 325.19135Q44.159374 325.19135 43.628124 325.70697Q43.096874 326.2226 43.096874 326.94135ZM42.64375 332.2226Q42.64375 332.83197 42.925 333.39447Q43.221874 333.95697 43.784374 334.26947Q44.346874 334.56635 44.9875 334.56635Q46.003124 334.56635 46.659374 333.92572Q47.315624 333.26947 47.315624 332.26947Q47.315624 331.25385 46.628124 330.5976Q45.95625 329.92572 44.940624 329.92572Q43.95625 329.92572 43.3 330.58197Q42.64375 331.23822 42.64375 332.2226ZM50.4875 326.83197Q50.4875 325.5976 51.096874 324.73822Q51.721874 323.87885 52.89375 323.87885Q53.971874 323.87885 54.675 324.6601Q55.378124 325.42572 55.378124 326.9101Q55.378124 328.36322 54.659374 329.1601Q53.95625 329.94135 52.909374 329.94135Q51.8625 329.94135 51.175 329.17572Q50.4875 328.39447 50.4875 326.83197ZM52.925 324.8476Q52.409374 324.8476 52.05 325.30072Q51.70625 325.75385 51.70625 326.9726Q51.70625 328.06635 52.05 328.51947Q52.409374 328.9726 52.925 328.9726Q53.45625 328.9726 53.8 328.51947Q54.159374 328.06635 54.159374 326.86322Q54.159374 325.75385 53.8 325.30072Q53.45625 324.8476 52.925 324.8476ZM52.940624 335.95697L59.20625 323.87885L60.346874 323.87885L54.096874 335.95697L52.940624 335.95697ZM57.89375 332.8476Q57.89375 331.61322 58.503124 330.75385Q59.128124 329.89447 60.3 329.89447Q61.378124 329.89447 62.08125 330.67572Q62.8 331.44135 62.8 332.92572Q62.8 334.37885 62.08125 335.17572Q61.3625 335.95697 60.315624 335.95697Q59.26875 335.95697 58.58125 335.17572Q57.89375 334.39447 57.89375 332.8476ZM60.346874 330.86322Q59.815624 330.86322 59.45625 331.31635Q59.1125 331.76947 59.1125 332.98822Q59.1125 334.08197 59.45625 334.5351Q59.815624 334.98822 60.33125 334.98822Q60.878124 334.98822 61.221874 334.5351Q61.565624 334.08197 61.565624 332.87885Q61.565624 331.76947 61.20625 331.31635Q60.8625 330.86322 60.346874 330.86322Z" fill-rule="nonzero"/><path stroke="#757575" stroke-width="1.0" stroke-linecap="butt" d="M18.55 319.0351L145.23334 319.0351L218.3442 319.0351" fill-rule="nonzero"/><path fill="#9e9e9e" d="M220.3442 319.0351C220.3442 317.9305 219.44876 317.0351 218.3442 317.0351C217.23962 317.0351 216.3442 317.9305 216.3442 319.0351C216.3442 320.13965 217.23962 321.0351 218.3442 321.0351C219.44876 321.0351 220.3442 320.13965 220.3442 319.0351" fill-rule="nonzero"/><path fill="#efefef" d="M551.6375 69.916664L551.6375 58.46354L553.91876 58.46354L556.6375 66.572914Q557.0125 67.697914 557.1844 68.260414Q557.3719 67.635414 557.79376 66.43229L560.52814 58.46354L562.575 58.46354L562.575 69.916664L561.10626 69.916664L561.10626 60.322914L557.77814 69.916664L556.41876 69.916664L553.10626 60.166664L553.10626 69.916664L551.6375 69.916664ZM569.91876 68.885414Q569.1375 69.55729 568.41876 69.83854Q567.7 70.104164 566.8719 70.104164Q565.4969 70.104164 564.7625 69.43229Q564.02814 68.760414 564.02814 67.729164Q564.02814 67.11979 564.3094 66.61979Q564.59064 66.104164 565.02814 65.80729Q565.48126 65.49479 566.04376 65.33854Q566.46564 65.229164 567.29376 65.135414Q568.9969 64.93229 569.8094 64.65104Q569.8094 64.354164 569.8094 64.27604Q569.8094 63.416664 569.41876 63.072914Q568.8719 62.58854 567.8094 62.58854Q566.825 62.58854 566.34064 62.947914Q565.8719 63.291664 565.65314 64.166664L564.27814 63.979164Q564.46564 63.104164 564.8875 62.55729Q565.325 62.010414 566.1375 61.729164Q566.95 61.43229 568.0125 61.43229Q569.075 61.43229 569.73126 61.68229Q570.40314 61.93229 570.71564 62.30729Q571.02814 62.68229 571.15314 63.260414Q571.23126 63.61979 571.23126 64.55729L571.23126 66.43229Q571.23126 68.40104 571.3094 68.916664Q571.40314 69.43229 571.66876 69.916664L570.2 69.916664Q569.98126 69.479164 569.91876 68.885414ZM569.8094 65.74479Q569.04376 66.05729 567.5125 66.27604Q566.6375 66.40104 566.27814 66.55729Q565.91876 66.71354 565.71564 67.02604Q565.52814 67.322914 565.52814 67.68229Q565.52814 68.24479 565.95 68.61979Q566.3875 68.99479 567.2 68.99479Q568.0125 68.99479 568.6375 68.65104Q569.27814 68.291664 569.575 67.666664Q569.8094 67.197914 569.8094 66.260414L569.8094 65.74479ZM573.5125 73.104164L573.5125 61.61979L574.79376 61.61979L574.79376 62.697914Q575.2469 62.05729 575.8094 61.74479Q576.3875 61.43229 577.2 61.43229Q578.2625 61.43229 579.075 61.979164Q579.8875 62.52604 580.29376 63.52604Q580.71564 64.510414 580.71564 65.697914Q580.71564 66.979164 580.2469 67.99479Q579.79376 69.010414 578.91876 69.55729Q578.0594 70.104164 577.09064 70.104164Q576.3875 70.104164 575.825 69.80729Q575.27814 69.510414 574.91876 69.05729L574.91876 73.104164L573.5125 73.104164ZM574.77814 65.80729Q574.77814 67.416664 575.41876 68.18229Q576.075 68.947914 576.9969 68.947914Q577.9344 68.947914 578.60626 68.15104Q579.27814 67.354164 579.27814 65.697914Q579.27814 64.104164 578.6219 63.322914Q577.96564 62.52604 577.0594 62.52604Q576.16876 62.52604 575.46564 63.36979Q574.77814 64.21354 574.77814 65.80729Z" fill-rule="nonzero"/><path fill="#9e9e9e" d="M551.41876 91.916664L550.0125 91.916664L550.0125 82.947914Q549.4969 83.43229 548.66876 83.916664Q547.85626 84.40104 547.2 84.65104L547.2 83.291664Q548.3719 82.729164 549.2469 81.947914Q550.1375 81.15104 550.5125 80.416664L551.41876 80.416664L551.41876 91.916664ZM555.90314 91.916664L555.90314 90.30729L557.5125 90.30729L557.5125 91.916664L555.90314 91.916664ZM559.1219 86.260414Q559.1219 84.229164 559.52814 82.99479Q559.95 81.760414 560.77814 81.08854Q561.60626 80.416664 562.85626 80.416664Q563.77814 80.416664 564.46564 80.791664Q565.16876 81.15104 565.6219 81.854164Q566.075 82.55729 566.325 83.55729Q566.59064 84.55729 566.59064 86.260414Q566.59064 88.27604 566.16876 89.52604Q565.7625 90.760414 564.9344 91.447914Q564.10626 92.11979 562.85626 92.11979Q561.2 92.11979 560.2469 90.916664Q559.1219 89.49479 559.1219 86.260414ZM560.5594 86.260414Q560.5594 89.08854 561.21564 90.02604Q561.8875 90.947914 562.85626 90.947914Q563.825 90.947914 564.48126 90.010414Q565.1375 89.072914 565.1375 86.260414Q565.1375 83.43229 564.48126 82.510414Q563.825 81.572914 562.84064 81.572914Q561.8719 81.572914 561.29376 82.40104Q560.5594 83.447914 560.5594 86.260414ZM568.3875 83.21354Q568.3875 81.979164 568.9969 81.11979Q569.6219 80.260414 570.79376 80.260414Q571.8719 80.260414 572.575 81.041664Q573.27814 81.80729 573.27814 83.291664Q573.27814 84.74479 572.5594 85.541664Q571.85626 86.322914 570.8094 86.322914Q569.7625 86.322914 569.075 85.55729Q568.3875 84.77604 568.3875 83.21354ZM570.825 81.229164Q570.3094 81.229164 569.95 81.68229Q569.60626 82.135414 569.60626 83.354164Q569.60626 84.447914 569.95 84.90104Q570.3094 85.354164 570.825 85.354164Q571.35626 85.354164 571.7 84.90104Q572.0594 84.447914 572.0594 83.24479Q572.0594 82.135414 571.7 81.68229Q571.35626 81.229164 570.825 81.229164ZM570.84064 92.33854L577.10626 80.260414L578.2469 80.260414L571.9969 92.33854L570.84064 92.33854ZM575.79376 89.229164Q575.79376 87.99479 576.40314 87.135414Q577.02814 86.27604 578.2 86.27604Q579.27814 86.27604 579.98126 87.05729Q580.7 87.822914 580.7 89.30729Q580.7 90.760414 579.98126 91.55729Q579.2625 92.33854 578.21564 92.33854Q577.16876 92.33854 576.48126 91.55729Q575.79376 90.77604 575.79376 89.229164ZM578.2469 87.24479Q577.71564 87.24479 577.35626 87.697914Q577.0125 88.15104 577.0125 89.36979Q577.0125 90.46354 577.35626 90.916664Q577.71564 91.36979 578.23126 91.36979Q578.77814 91.36979 579.1219 90.916664Q579.46564 90.46354 579.46564 89.260414Q579.46564 88.15104 579.10626 87.697914Q578.7625 87.24479 578.2469 87.24479Z" fill-rule="nonzero"/><path stroke="#757575" stroke-width="1.0" stroke-linecap="butt" d="M581.45 75.416664L454.76666 75.416664L304.3522 62.422028" fill-rule="nonzero"/><path fill="#9e9e9e" d="M306.3522 62.422028C306.3522 61.31746 305.4568 60.422028 304.3522 60.422028C303.24765 60.422028 302.3522 61.31746 302.3522 62.422028C302.3522 63.5266 303.24765 64.42203 304.3522 64.42203C305.4568 64.42203 306.3522 63.5266 306.3522 62.422028" fill-rule="nonzero"/><path fill="#efefef" d="M531.6844 219.86192L531.6844 208.4088L536.0125 208.4088Q537.15314 208.4088 537.7469 208.51817Q538.59064 208.6588 539.15314 209.04942Q539.73126 209.44005 540.075 210.1588Q540.4344 210.86192 540.4344 211.7213Q540.4344 213.17442 539.4969 214.19005Q538.575 215.20567 536.1375 215.20567L533.2 215.20567L533.2 219.86192L531.6844 219.86192ZM533.2 213.8463L536.16876 213.8463Q537.6375 213.8463 538.2469 213.29942Q538.8719 212.75255 538.8719 211.76817Q538.8719 211.04942 538.4969 210.5338Q538.1375 210.01817 537.54376 209.86192Q537.16876 209.75255 536.1375 209.75255L533.2 209.75255L533.2 213.8463ZM548.1844 217.19005L549.6375 217.36192Q549.29376 218.64317 548.35626 219.3463Q547.4344 220.04942 545.9969 220.04942Q544.16876 220.04942 543.10626 218.92442Q542.04376 217.79942 542.04376 215.7838Q542.04376 213.69005 543.1219 212.5338Q544.2 211.37755 545.91876 211.37755Q547.575 211.37755 548.6219 212.51817Q549.6844 213.64317 549.6844 215.69005Q549.6844 215.81505 549.6844 216.06505L543.4969 216.06505Q543.575 217.44005 544.2625 218.17442Q544.96564 218.89317 545.9969 218.89317Q546.77814 218.89317 547.325 218.48692Q547.8719 218.08067 548.1844 217.19005ZM543.575 214.9088L548.2 214.9088Q548.10626 213.86192 547.66876 213.3463Q546.9969 212.5338 545.9344 212.5338Q544.96564 212.5338 544.29376 213.19005Q543.6375 213.83067 543.575 214.9088ZM550.98126 215.70567Q550.98126 213.4088 552.2625 212.29942Q553.34064 211.37755 554.8719 211.37755Q556.59064 211.37755 557.66876 212.50255Q558.7625 213.61192 558.7625 215.5963Q558.7625 217.19005 558.27814 218.11192Q557.79376 219.0338 556.8719 219.54942Q555.96564 220.04942 554.8719 220.04942Q553.1375 220.04942 552.0594 218.94005Q550.98126 217.81505 550.98126 215.70567ZM552.4344 215.70567Q552.4344 217.29942 553.1219 218.0963Q553.825 218.89317 554.8719 218.89317Q555.91876 218.89317 556.60626 218.0963Q557.3094 217.29942 557.3094 215.6588Q557.3094 214.12755 556.60626 213.33067Q555.91876 212.5338 554.8719 212.5338Q553.825 212.5338 553.1219 213.33067Q552.4344 214.11192 552.4344 215.70567ZM560.5125 223.04942L560.5125 211.56505L561.79376 211.56505L561.79376 212.64317Q562.2469 212.00255 562.8094 211.69005Q563.3875 211.37755 564.2 211.37755Q565.2625 211.37755 566.075 211.92442Q566.8875 212.4713 567.29376 213.4713Q567.71564 214.45567 567.71564 215.64317Q567.71564 216.92442 567.2469 217.94005Q566.79376 218.95567 565.91876 219.50255Q565.0594 220.04942 564.09064 220.04942Q563.3875 220.04942 562.825 219.75255Q562.27814 219.45567 561.91876 219.00255L561.91876 223.04942L560.5125 223.04942ZM561.77814 215.75255Q561.77814 217.36192 562.41876 218.12755Q563.075 218.89317 563.9969 218.89317Q564.9344 218.89317 565.60626 218.0963Q566.27814 217.29942 566.27814 215.64317Q566.27814 214.04942 565.6219 213.26817Q564.96564 212.4713 564.0594 212.4713Q563.16876 212.4713 562.46564 213.31505Q561.77814 214.1588 561.77814 215.75255ZM569.48126 219.86192L569.48126 208.4088L570.8875 208.4088L570.8875 219.86192L569.48126 219.86192ZM579.1844 217.19005L580.6375 217.36192Q580.29376 218.64317 579.35626 219.3463Q578.4344 220.04942 576.9969 220.04942Q575.16876 220.04942 574.10626 218.92442Q573.04376 217.79942 573.04376 215.7838Q573.04376 213.69005 574.1219 212.5338Q575.2 211.37755 576.91876 211.37755Q578.575 211.37755 579.6219 212.51817Q580.6844 213.64317 580.6844 215.69005Q580.6844 215.81505 580.6844 216.06505L574.4969 216.06505Q574.575 217.44005 575.2625 218.17442Q575.96564 218.89317 576.9969 218.89317Q577.77814 218.89317 578.325 218.48692Q578.8719 218.08067 579.1844 217.19005ZM574.575 214.9088L579.2 214.9088Q579.10626 213.86192 578.66876 213.3463Q577.9969 212.5338 576.9344 212.5338Q575.96564 212.5338 575.29376 213.19005Q574.6375 213.83067 574.575 214.9088Z" fill-rule="nonzero"/><path fill="#9e9e9e" d="M537.1219 238.86192L538.59064 238.73692Q538.7625 239.81505 539.35626 240.36192Q539.95 240.89317 540.79376 240.89317Q541.8094 240.89317 542.5125 240.12755Q543.21564 239.36192 543.21564 238.0963Q543.21564 236.89317 542.54376 236.20567Q541.8719 235.50255 540.77814 235.50255Q540.09064 235.50255 539.54376 235.81505Q538.9969 236.12755 538.6844 236.61192L537.3719 236.44005L538.48126 230.56505L544.16876 230.56505L544.16876 231.9088L539.60626 231.9088L538.98126 234.98692Q540.0125 234.26817 541.15314 234.26817Q542.65314 234.26817 543.6844 235.31505Q544.71564 236.3463 544.71564 237.9713Q544.71564 239.5338 543.8094 240.6588Q542.7 242.06505 540.79376 242.06505Q539.23126 242.06505 538.2469 241.19005Q537.2625 240.29942 537.1219 238.86192ZM553.5125 240.50255L553.5125 241.86192L545.9344 241.86192Q545.91876 241.3463 546.10626 240.87755Q546.3875 240.11192 547.02814 239.36192Q547.66876 238.61192 548.8719 237.62755Q550.73126 236.0963 551.3875 235.20567Q552.04376 234.29942 552.04376 233.50255Q552.04376 232.67442 551.45 232.0963Q550.85626 231.51817 549.8875 231.51817Q548.8719 231.51817 548.2625 232.12755Q547.65314 232.73692 547.65314 233.81505L546.2 233.67442Q546.35626 232.04942 547.325 231.20567Q548.29376 230.36192 549.91876 230.36192Q551.575 230.36192 552.52814 231.2838Q553.4969 232.19005 553.4969 233.5338Q553.4969 234.2213 553.21564 234.89317Q552.9344 235.54942 552.27814 236.2838Q551.6219 237.01817 550.10626 238.29942Q548.84064 239.36192 548.48126 239.75255Q548.1219 240.12755 547.8875 240.50255L553.5125 240.50255ZM555.90314 241.86192L555.90314 240.25255L557.5125 240.25255L557.5125 241.86192L555.90314 241.86192ZM559.325 239.20567L560.6844 239.08067Q560.85626 240.0338 561.34064 240.4713Q561.825 240.89317 562.575 240.89317Q563.23126 240.89317 563.71564 240.5963Q564.2 240.29942 564.5125 239.81505Q564.825 239.31505 565.02814 238.4713Q565.2469 237.62755 565.2469 236.75255Q565.2469 236.6588 565.2469 236.4713Q564.825 237.14317 564.09064 237.56505Q563.35626 237.9713 562.5125 237.9713Q561.09064 237.9713 560.10626 236.94005Q559.1219 235.9088 559.1219 234.2213Q559.1219 232.48692 560.1375 231.42442Q561.16876 230.36192 562.71564 230.36192Q563.84064 230.36192 564.7625 230.9713Q565.6844 231.56505 566.16876 232.67442Q566.65314 233.7838 566.65314 235.89317Q566.65314 238.0963 566.16876 239.39317Q565.7 240.69005 564.7469 241.37755Q563.8094 242.06505 562.54376 242.06505Q561.2 242.06505 560.34064 241.31505Q559.4969 240.56505 559.325 239.20567ZM565.09064 234.1588Q565.09064 232.94005 564.4344 232.23692Q563.79376 231.51817 562.8875 231.51817Q561.95 231.51817 561.2469 232.2838Q560.5594 233.04942 560.5594 234.26817Q560.5594 235.36192 561.21564 236.04942Q561.8875 236.73692 562.85626 236.73692Q563.825 236.73692 564.45 236.04942Q565.09064 235.36192 565.09064 234.1588ZM568.3875 233.1588Q568.3875 231.92442 568.9969 231.06505Q569.6219 230.20567 570.79376 230.20567Q571.8719 230.20567 572.575 230.98692Q573.27814 231.75255 573.27814 233.23692Q573.27814 234.69005 572.5594 235.48692Q571.85626 236.26817 570.8094 236.26817Q569.7625 236.26817 569.075 235.50255Q568.3875 234.7213 568.3875 233.1588ZM570.825 231.17442Q570.3094 231.17442 569.95 231.62755Q569.60626 232.08067 569.60626 233.29942Q569.60626 234.39317 569.95 234.8463Q570.3094 235.29942 570.825 235.29942Q571.35626 235.29942 571.7 234.8463Q572.0594 234.39317 572.0594 233.19005Q572.0594 232.08067 571.7 231.62755Q571.35626 231.17442 570.825 231.17442ZM570.84064 242.2838L577.10626 230.20567L578.2469 230.20567L571.9969 242.2838L570.84064 242.2838ZM575.79376 239.17442Q575.79376 237.94005 576.40314 237.08067Q577.02814 236.2213 578.2 236.2213Q579.27814 236.2213 579.98126 237.00255Q580.7 237.76817 580.7 239.25255Q580.7 240.70567 579.98126 241.50255Q579.2625 242.2838 578.21564 242.2838Q577.16876 242.2838 576.48126 241.50255Q575.79376 240.7213 575.79376 239.17442ZM578.2469 237.19005Q577.71564 237.19005 577.35626 237.64317Q577.0125 238.0963 577.0125 239.31505Q577.0125 240.4088 577.35626 240.86192Q577.71564 241.31505 578.23126 241.31505Q578.77814 241.31505 579.1219 240.86192Q579.46564 240.4088 579.46564 239.20567Q579.46564 238.0963 579.10626 237.64317Q578.7625 237.19005 578.2469 237.19005Z" fill-rule="nonzero"/><path stroke="#757575" stroke-width="1.0" stroke-linecap="butt" d="M581.45 225.36192L454.76666 225.36192L439.6558 225.36192" fill-rule="nonzero"/><path fill="#9e9e9e" d="M441.6558 225.36192C441.6558 224.25735 440.76035 223.36192 439.6558 223.36192C438.5512 223.36192 437.6558 224.25735 437.6558 225.36192C437.6558 226.46649 438.5512 227.36192 439.6558 227.36192C440.76035 227.36192 441.6558 226.46649 441.6558 225.36192" fill-rule="nonzero"/><path fill="#f3f3f3" d="M265.98438 37.55L265.98438 23.2375L268.84375 23.2375L272.21875 33.3625Q272.6875 34.784374 272.90625 35.4875Q273.15625 34.70625 273.67188 33.190624L277.09375 23.2375L279.64062 23.2375L279.64062 37.55L277.82812 37.55L277.82812 25.565624L273.65625 37.55L271.95312 37.55L267.8125 25.3625L267.8125 37.55L265.98438 37.55ZM289.92188 34.20625L291.73438 34.440624Q291.3125 36.01875 290.14062 36.909374Q288.98438 37.784374 287.17188 37.784374Q284.90625 37.784374 283.5625 36.39375Q282.23438 34.9875 282.23438 32.45625Q282.23438 29.83125 283.57812 28.39375Q284.92188 26.940624 287.07812 26.940624Q289.15625 26.940624 290.46875 28.3625Q291.79688 29.76875 291.79688 32.346874Q291.79688 32.503124 291.78125 32.815624L284.04688 32.815624Q284.14062 34.51875 285.01562 35.425Q285.89062 36.33125 287.1875 36.33125Q288.15625 36.33125 288.82812 35.83125Q289.51562 35.315624 289.92188 34.20625ZM284.14062 31.3625L289.9375 31.3625Q289.82812 30.065624 289.28125 29.409374Q288.4375 28.39375 287.09375 28.39375Q285.89062 28.39375 285.0625 29.20625Q284.23438 30.003124 284.14062 31.3625ZM300.54688 37.55L300.54688 36.2375Q299.5625 37.784374 297.64062 37.784374Q296.40625 37.784374 295.35938 37.096874Q294.32812 36.409374 293.75 35.190624Q293.1875 33.971874 293.1875 32.378124Q293.1875 30.815624 293.70312 29.55Q294.21875 28.284374 295.25 27.6125Q296.29688 26.940624 297.5625 26.940624Q298.5 26.940624 299.23438 27.346874Q299.96875 27.7375 300.4375 28.3625L300.4375 23.2375L302.17188 23.2375L302.17188 37.55L300.54688 37.55ZM294.98438 32.378124Q294.98438 34.3625 295.82812 35.346874Q296.67188 36.33125 297.8125 36.33125Q298.96875 36.33125 299.76562 35.39375Q300.57812 34.45625 300.57812 32.51875Q300.57812 30.39375 299.75 29.39375Q298.9375 28.39375 297.73438 28.39375Q296.5625 28.39375 295.76562 29.3625Q294.98438 30.315624 294.98438 32.378124ZM304.82812 25.253124L304.82812 23.2375L306.59375 23.2375L306.59375 25.253124L304.82812 25.253124ZM304.82812 37.55L304.82812 27.175L306.59375 27.175L306.59375 37.55L304.82812 37.55ZM315.60938 37.55L315.60938 36.01875Q314.40625 37.784374 312.32812 37.784374Q311.40625 37.784374 310.60938 37.440624Q309.8125 37.08125 309.42188 36.55Q309.04688 36.01875 308.89062 35.2375Q308.78125 34.721874 308.78125 33.596874L308.78125 27.175L310.53125 27.175L310.53125 32.925Q310.53125 34.3 310.64062 34.784374Q310.8125 35.471874 311.34375 35.878124Q311.89062 36.26875 312.67188 36.26875Q313.46875 36.26875 314.15625 35.8625Q314.85938 35.45625 315.14062 34.76875Q315.4375 34.065624 315.4375 32.7375L315.4375 27.175L317.1875 27.175L317.1875 37.55L315.60938 37.55ZM319.8125 37.55L319.8125 27.175L321.39062 27.175L321.39062 28.628124Q321.875 27.878124 322.6875 27.409374Q323.5 26.940624 324.53125 26.940624Q325.6875 26.940624 326.42188 27.425Q327.15625 27.89375 327.46875 28.753124Q328.70312 26.940624 330.67188 26.940624Q332.21875 26.940624 333.04688 27.8Q333.875 28.659374 333.875 30.425L333.875 37.55L332.125 37.55L332.125 31.01875Q332.125 29.95625 331.95312 29.503124Q331.78125 29.034374 331.32812 28.753124Q330.89062 28.471874 330.28125 28.471874Q329.1875 28.471874 328.45312 29.20625Q327.73438 29.925 327.73438 31.51875L327.73438 37.55L325.98438 37.55L325.98438 30.815624Q325.98438 29.64375 325.54688 29.065624Q325.125 28.471874 324.14062 28.471874Q323.40625 28.471874 322.76562 28.8625Q322.14062 29.253124 321.85938 30.003124Q321.57812 30.753124 321.57812 32.175L321.57812 37.55L319.8125 37.55Z" fill-rule="nonzero"/></svg>