<svg version="1.1" viewBox="0.0 0.0 600.0 371.0" fill="none" stroke="none" stroke-linecap="square" stroke-miterlimit="10" width="600" height="371" xmlns:xlink="http://www.w3.org/1999/xlink" xmlns="http://www.w3.org/2000/svg"><path fill="#ffffff" fill-opacity="0.0" d="M0 0L600.0 0L600.0 371.0L0 371.0L0 0Z" fill-rule="nonzero"/><path fill="#f7d750" d="M300.0 54.916668C308.42603 54.916668 316.83685 55.63253 325.1417 57.05654L312.57083 130.36993C308.41843 129.65793 304.213 129.3 300.0 129.3Z" fill-rule="nonzero"/><path fill="#4571b0" d="M262.51407 347.64975C190.07335 328.78763 142.93022 259.0371 152.43828 184.78732C161.94633 110.53751 225.1439 54.916668 300.0 54.916668L300.0 129.3C262.57196 129.3 230.97318 157.11043 226.21915 194.23532C221.4651 231.36023 245.03668 266.23547 281.25702 275.66653Z" fill-rule="nonzero"/><path fill="#f5ee58" d="M325.1417 57.05654C379.01187 66.29351 423.47888 104.32637 440.956 156.11311C458.43314 207.89987 446.1056 265.0999 408.8489 305.09064C371.59222 345.08133 315.40683 361.42194 262.51407 347.64975L281.25702 275.66653C307.7034 282.55264 335.7961 274.38232 354.42444 254.38698C373.0528 234.39162 379.21658 205.7916 370.478 179.89822C361.73944 154.00485 339.50592 134.98842 312.57083 130.36993Z" fill-rule="nonzero"/><path fill="#ffffff" d="M384.32074 230.31488L385.977 230.17426Q386.1645 231.393 386.83636 232.00238Q387.50824 232.61176 388.46136 232.61176Q389.602 232.61176 390.38324 231.75238Q391.1801 230.893 391.1801 229.4555Q391.1801 228.11176 390.4145 227.3305Q389.6645 226.54926 388.4301 226.54926Q387.6645 226.54926 387.0395 226.893Q386.4301 227.23676 386.08636 227.79926L384.602 227.59613L385.852 220.98676L392.25824 220.98676L392.25824 222.48676L387.1176 222.48676L386.4145 225.9555Q387.58636 225.143 388.852 225.143Q390.5395 225.143 391.69574 226.31488Q392.8676 227.48676 392.8676 229.31488Q392.8676 231.06488 391.83636 232.34613Q390.602 233.90863 388.46136 233.90863Q386.69574 233.90863 385.58636 232.92426Q384.477 231.93988 384.32074 230.31488ZM400.27386 233.68988L398.69574 233.68988L398.69574 223.61176Q398.1176 224.15863 397.19574 224.7055Q396.27386 225.23676 395.52386 225.518L395.52386 223.98676Q396.852 223.36176 397.852 222.47113Q398.852 221.5805 399.25824 220.75238L400.27386 220.75238L400.27386 233.68988ZM405.21136 233.68988L405.21136 231.893L407.00824 231.893L407.00824 233.68988L405.21136 233.68988ZM414.38324 233.68988L414.38324 230.61176L408.8051 230.61176L408.8051 229.15863L414.6801 220.79926L415.977 220.79926L415.977 229.15863L417.71136 229.15863L417.71136 230.61176L415.977 230.61176L415.977 233.68988L414.38324 233.68988ZM414.38324 229.15863L414.38324 223.34613L410.352 229.15863L414.38324 229.15863ZM419.6176 223.893Q419.6176 222.518 420.3051 221.54926Q421.00824 220.5805 422.32074 220.5805Q423.5395 220.5805 424.33636 221.4555Q425.13324 222.31488 425.13324 224.00238Q425.13324 225.62738 424.32074 226.518Q423.52386 227.393 422.33636 227.393Q421.1801 227.393 420.39886 226.53363Q419.6176 225.65863 419.6176 223.893ZM422.3676 221.67426Q421.77386 221.67426 421.38324 222.18988Q420.9926 222.68988 420.9926 224.04926Q420.9926 225.29926 421.38324 225.79926Q421.7895 226.29926 422.3676 226.29926Q422.96136 226.29926 423.352 225.79926Q423.7426 225.28363 423.7426 223.93988Q423.7426 222.68988 423.352 222.18988Q422.96136 221.67426 422.3676 221.67426ZM422.38324 234.15863L429.4301 220.5805L430.71136 220.5805L423.6801 234.15863L422.38324 234.15863ZM427.94574 230.65863Q427.94574 229.28363 428.63324 228.31488Q429.33636 227.34613 430.6645 227.34613Q431.88324 227.34613 432.6645 228.22113Q433.46136 229.0805 433.46136 230.768Q433.46136 232.393 432.6645 233.28363Q431.8676 234.15863 430.6801 234.15863Q429.50824 234.15863 428.727 233.28363Q427.94574 232.40863 427.94574 230.65863ZM430.71136 228.43988Q430.1176 228.43988 429.727 228.9555Q429.33636 229.4555 429.33636 230.8305Q429.33636 232.04926 429.727 232.56488Q430.1176 233.0805 430.69574 233.0805Q431.3051 233.0805 431.69574 232.56488Q432.08636 232.04926 432.08636 230.7055Q432.08636 229.4555 431.69574 228.9555Q431.3051 228.43988 430.71136 228.43988Z" fill-rule="nonzero"/><path fill="#ffffff" d="M169.6412 196.01132L169.6412 192.9332L164.06308 192.9332L164.06308 191.48007L169.93808 183.1207L171.23495 183.1207L171.23495 191.48007L172.96933 191.48007L172.96933 192.9332L171.23495 192.9332L171.23495 196.01132L169.6412 196.01132ZM169.6412 191.48007L169.6412 185.66757L165.60995 191.48007L169.6412 191.48007ZM174.5787 192.63632L176.23495 192.4957Q176.42245 193.71445 177.09433 194.32382Q177.7662 194.9332 178.71933 194.9332Q179.85995 194.9332 180.6412 194.07382Q181.43808 193.21445 181.43808 191.77695Q181.43808 190.4332 180.67245 189.65195Q179.92245 188.8707 178.68808 188.8707Q177.92245 188.8707 177.29745 189.21445Q176.68808 189.5582 176.34433 190.1207L174.85995 189.91757L176.10995 183.3082L182.5162 183.3082L182.5162 184.8082L177.37558 184.8082L176.67245 188.27695Q177.84433 187.46445 179.10995 187.46445Q180.79745 187.46445 181.9537 188.63632Q183.12558 189.8082 183.12558 191.63632Q183.12558 193.38632 182.09433 194.66757Q180.85995 196.23007 178.71933 196.23007Q176.9537 196.23007 175.84433 195.2457Q174.73495 194.26132 174.5787 192.63632ZM185.46933 196.01132L185.46933 194.21445L187.2662 194.21445L187.2662 196.01132L185.46933 196.01132ZM189.81308 193.02695L191.3287 192.88632Q191.53183 193.96445 192.06308 194.44882Q192.60995 194.9332 193.46933 194.9332Q194.2037 194.9332 194.75058 194.60507Q195.29745 194.26132 195.6412 193.71445Q196.00058 193.15195 196.23495 192.19882Q196.46933 191.2457 196.46933 190.26132Q196.46933 190.15195 196.46933 189.94882Q195.98495 190.69882 195.15683 191.16757Q194.34433 191.63632 193.3912 191.63632Q191.79745 191.63632 190.68808 190.48007Q189.5787 189.32382 189.5787 187.41757Q189.5787 185.46445 190.73495 184.27695Q191.8912 183.07382 193.62558 183.07382Q194.8912 183.07382 195.92245 183.76132Q196.96933 184.4332 197.50058 185.6832Q198.04745 186.9332 198.04745 189.3082Q198.04745 191.77695 197.50058 193.2457Q196.96933 194.69882 195.90683 195.46445Q194.85995 196.23007 193.43808 196.23007Q191.92245 196.23007 190.9537 195.40195Q190.00058 194.5582 189.81308 193.02695ZM196.29745 187.33945Q196.29745 185.98007 195.56308 185.1832Q194.84433 184.38632 193.8287 184.38632Q192.7662 184.38632 191.98495 185.2457Q191.2037 186.10507 191.2037 187.48007Q191.2037 188.71445 191.93808 189.48007Q192.68808 190.2457 193.78183 190.2457Q194.87558 190.2457 195.5787 189.48007Q196.29745 188.71445 196.29745 187.33945ZM199.87558 186.21445Q199.87558 184.83945 200.56308 183.8707Q201.2662 182.90195 202.5787 182.90195Q203.79745 182.90195 204.59433 183.77695Q205.3912 184.63632 205.3912 186.32382Q205.3912 187.94882 204.5787 188.83945Q203.78183 189.71445 202.59433 189.71445Q201.43808 189.71445 200.65683 188.85507Q199.87558 187.98007 199.87558 186.21445ZM202.62558 183.9957Q202.03183 183.9957 201.6412 184.51132Q201.25058 185.01132 201.25058 186.3707Q201.25058 187.6207 201.6412 188.1207Q202.04745 188.6207 202.62558 188.6207Q203.21933 188.6207 203.60995 188.1207Q204.00058 187.60507 204.00058 186.26132Q204.00058 185.01132 203.60995 184.51132Q203.21933 183.9957 202.62558 183.9957ZM202.6412 196.48007L209.68808 182.90195L210.96933 182.90195L203.93808 196.48007L202.6412 196.48007ZM208.2037 192.98007Q208.2037 191.60507 208.8912 190.63632Q209.59433 189.66757 210.92245 189.66757Q212.1412 189.66757 212.92245 190.54257Q213.71933 191.40195 213.71933 193.08945Q213.71933 194.71445 212.92245 195.60507Q212.12558 196.48007 210.93808 196.48007Q209.7662 196.48007 208.98495 195.60507Q208.2037 194.73007 208.2037 192.98007ZM210.96933 190.76132Q210.37558 190.76132 209.98495 191.27695Q209.59433 191.77695 209.59433 193.15195Q209.59433 194.3707 209.98495 194.88632Q210.37558 195.40195 210.9537 195.40195Q211.56308 195.40195 211.9537 194.88632Q212.34433 194.3707 212.34433 193.02695Q212.34433 191.77695 211.9537 191.27695Q211.56308 190.76132 210.96933 190.76132Z" fill-rule="nonzero"/><path stroke="#ffffff" stroke-width="1.0" stroke-linejoin="round" stroke-linecap="round" d="M312.57083 130.36993C308.41843 129.65793 304.213 129.3 300.0 129.3L300.0 54.916668C308.42603 54.916668 316.83685 55.63253 325.1417 57.05654" fill-rule="nonzero"/><path stroke="#ffffff" stroke-width="1.0" stroke-linejoin="round" stroke-linecap="round" d="M281.25702 275.66653C307.7034 282.55264 335.7961 274.38232 354.42444 254.38698C373.0528 234.39162 379.21658 205.7916 370.478 179.89822C361.73944 154.00485 339.50592 134.98842 312.57083 130.36993L325.1417 57.05654C379.01187 66.29351 423.47888 104.32637 440.956 156.11311C458.43314 207.89987 446.1056 265.0999 408.8489 305.09064C371.59222 345.08133 315.40683 361.42194 262.51407 347.64975" fill-rule="nonzero"/><path stroke="#ffffff" stroke-width="1.0" stroke-linejoin="round" stroke-linecap="round" d="M300.0 129.3C262.57196 129.3 230.97318 157.11043 226.21915 194.23532C221.4651 231.36023 245.03668 266.23547 281.25702 275.66653L262.51407 347.64975C190.07335 328.78763 142.93022 259.0371 152.43828 184.78732C161.94633 110.53751 225.1439 54.916668 300.0 54.916668" fill-rule="nonzero"/><path fill="#efefef" d="M19.7375 180.23212L19.7375 168.77899L22.01875 168.77899L24.7375 176.88837Q25.1125 178.01337 25.284374 178.57587Q25.471874 177.95087 25.89375 176.74774L28.628124 168.77899L30.675 168.77899L30.675 180.23212L29.20625 180.23212L29.20625 170.63837L25.878124 180.23212L24.51875 180.23212L21.20625 170.48212L21.20625 180.23212L19.7375 180.23212ZM32.6125 170.38837L32.6125 168.77899L34.01875 168.77899L34.01875 170.38837L32.6125 170.38837ZM32.6125 180.23212L32.6125 171.93524L34.01875 171.93524L34.01875 180.23212L32.6125 180.23212ZM36.58125 180.23212L36.58125 168.77899L37.9875 168.77899L37.9875 180.23212L36.58125 180.23212ZM40.6125 170.38837L40.6125 168.77899L42.01875 168.77899L42.01875 170.38837L40.6125 170.38837ZM40.6125 180.23212L40.6125 171.93524L42.01875 171.93524L42.01875 180.23212L40.6125 180.23212ZM47.675 178.96649L47.878124 180.21649Q47.284374 180.34149 46.815624 180.34149Q46.05 180.34149 45.628124 180.10712Q45.20625 179.85712 45.034374 179.46649Q44.8625 179.06024 44.8625 177.79462L44.8625 173.02899L43.83125 173.02899L43.83125 171.93524L44.8625 171.93524L44.8625 169.87274L46.26875 169.02899L46.26875 171.93524L47.675 171.93524L47.675 173.02899L46.26875 173.02899L46.26875 177.87274Q46.26875 178.48212 46.33125 178.65399Q46.409374 178.82587 46.58125 178.93524Q46.753124 179.02899 47.065624 179.02899Q47.3 179.02899 47.675 178.96649ZM54.01875 179.20087Q53.2375 179.87274 52.51875 180.15399Q51.8 180.41962 50.971874 180.41962Q49.596874 180.41962 48.8625 179.74774Q48.128124 179.07587 48.128124 178.04462Q48.128124 177.43524 48.409374 176.93524Q48.690624 176.41962 49.128124 176.12274Q49.58125 175.81024 50.14375 175.65399Q50.565624 175.54462 51.39375 175.45087Q53.096874 175.24774 53.909374 174.96649Q53.909374 174.66962 53.909374 174.59149Q53.909374 173.73212 53.51875 173.38837Q52.971874 172.90399 51.909374 172.90399Q50.925 172.90399 50.440624 173.26337Q49.971874 173.60712 49.753124 174.48212L48.378124 174.29462Q48.565624 173.41962 48.9875 172.87274Q49.425 172.32587 50.2375 172.04462Q51.05 171.74774 52.1125 171.74774Q53.175 171.74774 53.83125 171.99774Q54.503124 172.24774 54.815624 172.62274Q55.128124 172.99774 55.253124 173.57587Q55.33125 173.93524 55.33125 174.87274L55.33125 176.74774Q55.33125 178.71649 55.409374 179.23212Q55.503124 179.74774 55.76875 180.23212L54.3 180.23212Q54.08125 179.79462 54.01875 179.20087ZM53.909374 176.06024Q53.14375 176.37274 51.6125 176.59149Q50.7375 176.71649 50.378124 176.87274Q50.01875 177.02899 49.815624 177.34149Q49.628124 177.63837 49.628124 177.99774Q49.628124 178.56024 50.05 178.93524Q50.4875 179.31024 51.3 179.31024Q52.1125 179.31024 52.7375 178.96649Q53.378124 178.60712 53.675 177.98212Q53.909374 177.51337 53.909374 176.57587L53.909374 176.06024ZM57.596874 180.23212L57.596874 171.93524L58.8625 171.93524L58.8625 173.18524Q59.346874 172.31024 59.753124 172.02899Q60.159374 171.74774 60.659374 171.74774Q61.3625 171.74774 62.096874 172.20087L61.6125 173.49774Q61.096874 173.20087 60.58125 173.20087Q60.128124 173.20087 59.753124 173.48212Q59.39375 173.74774 59.2375 174.24774Q59.003124 174.99774 59.003124 175.88837L59.003124 180.23212L57.596874 180.23212ZM62.55 183.43524L62.39375 182.10712Q62.846874 182.23212 63.190624 182.23212Q63.659374 182.23212 63.940624 182.07587Q64.22188 181.91962 64.40938 181.63837Q64.53438 181.43524 64.83125 180.59149Q64.87813 180.48212 64.95625 180.24774L61.815624 171.93524L63.33125 171.93524L65.05 176.73212Q65.39375 177.65399 65.65938 178.65399Q65.89375 177.68524 66.2375 176.76337L68.00313 171.93524L69.40938 171.93524L66.25313 180.37274Q65.75313 181.74774 65.47188 182.26337Q65.09688 182.95087 64.6125 183.27899Q64.12813 183.60712 63.45625 183.60712Q63.05 183.60712 62.55 183.43524Z" fill-rule="nonzero"/><path fill="#9e9e9e" d="M23.721874 202.23212L23.721874 199.48212L18.753124 199.48212L18.753124 198.20087L23.9875 190.77899L25.128124 190.77899L25.128124 198.20087L26.675 198.20087L26.675 199.48212L25.128124 199.48212L25.128124 202.23212L23.721874 202.23212ZM23.721874 198.20087L23.721874 193.02899L20.14375 198.20087L23.721874 198.20087ZM28.221874 199.23212L29.690624 199.10712Q29.8625 200.18524 30.45625 200.73212Q31.05 201.26337 31.89375 201.26337Q32.909374 201.26337 33.6125 200.49774Q34.315624 199.73212 34.315624 198.46649Q34.315624 197.26337 33.64375 196.57587Q32.971874 195.87274 31.878124 195.87274Q31.190624 195.87274 30.64375 196.18524Q30.096874 196.49774 29.784374 196.98212L28.471874 196.81024L29.58125 190.93524L35.26875 190.93524L35.26875 192.27899L30.70625 192.27899L30.08125 195.35712Q31.1125 194.63837 32.253124 194.63837Q33.753124 194.63837 34.784374 195.68524Q35.815624 196.71649 35.815624 198.34149Q35.815624 199.90399 34.909374 201.02899Q33.8 202.43524 31.89375 202.43524Q30.33125 202.43524 29.346874 201.56024Q28.3625 200.66962 28.221874 199.23212ZM38.003124 202.23212L38.003124 200.62274L39.6125 200.62274L39.6125 202.23212L38.003124 202.23212ZM41.425 199.57587L42.784374 199.45087Q42.95625 200.40399 43.440624 200.84149Q43.925 201.26337 44.675 201.26337Q45.33125 201.26337 45.815624 200.96649Q46.3 200.66962 46.6125 200.18524Q46.925 199.68524 47.128124 198.84149Q47.346874 197.99774 47.346874 197.12274Q47.346874 197.02899 47.346874 196.84149Q46.925 197.51337 46.190624 197.93524Q45.45625 198.34149 44.6125 198.34149Q43.190624 198.34149 42.20625 197.31024Q41.221874 196.27899 41.221874 194.59149Q41.221874 192.85712 42.2375 191.79462Q43.26875 190.73212 44.815624 190.73212Q45.940624 190.73212 46.8625 191.34149Q47.784374 191.93524 48.26875 193.04462Q48.753124 194.15399 48.753124 196.26337Q48.753124 198.46649 48.26875 199.76337Q47.8 201.06024 46.846874 201.74774Q45.909374 202.43524 44.64375 202.43524Q43.3 202.43524 42.440624 201.68524Q41.596874 200.93524 41.425 199.57587ZM47.190624 194.52899Q47.190624 193.31024 46.534374 192.60712Q45.89375 191.88837 44.9875 191.88837Q44.05 191.88837 43.346874 192.65399Q42.659374 193.41962 42.659374 194.63837Q42.659374 195.73212 43.315624 196.41962Q43.9875 197.10712 44.95625 197.10712Q45.925 197.10712 46.55 196.41962Q47.190624 195.73212 47.190624 194.52899ZM50.4875 193.52899Q50.4875 192.29462 51.096874 191.43524Q51.721874 190.57587 52.89375 190.57587Q53.971874 190.57587 54.675 191.35712Q55.378124 192.12274 55.378124 193.60712Q55.378124 195.06024 54.659374 195.85712Q53.95625 196.63837 52.909374 196.63837Q51.8625 196.63837 51.175 195.87274Q50.4875 195.09149 50.4875 193.52899ZM52.925 191.54462Q52.409374 191.54462 52.05 191.99774Q51.70625 192.45087 51.70625 193.66962Q51.70625 194.76337 52.05 195.21649Q52.409374 195.66962 52.925 195.66962Q53.45625 195.66962 53.8 195.21649Q54.159374 194.76337 54.159374 193.56024Q54.159374 192.45087 53.8 191.99774Q53.45625 191.54462 52.925 191.54462ZM52.940624 202.65399L59.20625 190.57587L60.346874 190.57587L54.096874 202.65399L52.940624 202.65399ZM57.89375 199.54462Q57.89375 198.31024 58.503124 197.45087Q59.128124 196.59149 60.3 196.59149Q61.378124 196.59149 62.08125 197.37274Q62.8 198.13837 62.8 199.62274Q62.8 201.07587 62.08125 201.87274Q61.3625 202.65399 60.315624 202.65399Q59.26875 202.65399 58.58125 201.87274Q57.89375 201.09149 57.89375 199.54462ZM60.346874 197.56024Q59.815624 197.56024 59.45625 198.01337Q59.1125 198.46649 59.1125 199.68524Q59.1125 200.77899 59.45625 201.23212Q59.815624 201.68524 60.33125 201.68524Q60.878124 201.68524 61.221874 201.23212Q61.565624 200.77899 61.565624 199.57587Q61.565624 198.46649 61.20625 198.01337Q60.8625 197.56024 60.346874 197.56024Z" fill-rule="nonzero"/><path stroke="#757575" stroke-width="1.0" stroke-linecap="butt" d="M18.55 185.73212L145.23334 185.73212L159.81636 185.73212" fill-rule="nonzero"/><path fill="#9e9e9e" d="M161.81636 185.73212C161.81636 184.62755 160.92093 183.73212 159.81636 183.73212C158.71179 183.73212 157.81636 184.62755 157.81636 185.73212C157.81636 186.83669 158.71179 187.73212 159.81636 187.73212C160.92093 187.73212 161.81636 186.83669 161.81636 185.73212" fill-rule="nonzero"/><path fill="#efefef" d="M481.71564 69.916664L481.71564 58.46354L489.9969 58.46354L489.9969 59.80729L483.23126 59.80729L483.23126 63.322914L489.575 63.322914L489.575 64.666664L483.23126 64.666664L483.23126 68.55729L490.2625 68.55729L490.2625 69.916664L481.71564 69.916664ZM495.575 68.65104L495.77814 69.90104Q495.1844 70.02604 494.71564 70.02604Q493.95 70.02604 493.52814 69.791664Q493.10626 69.541664 492.9344 69.15104Q492.7625 68.74479 492.7625 67.479164L492.7625 62.71354L491.73126 62.71354L491.73126 61.61979L492.7625 61.61979L492.7625 59.55729L494.16876 58.71354L494.16876 61.61979L495.575 61.61979L495.575 62.71354L494.16876 62.71354L494.16876 67.55729Q494.16876 68.166664 494.23126 68.33854Q494.3094 68.510414 494.48126 68.61979Q494.65314 68.71354 494.96564 68.71354Q495.2 68.71354 495.575 68.65104ZM496.5125 69.916664L496.5125 58.46354L497.91876 58.46354L497.91876 62.572914Q498.90314 61.43229 500.40314 61.43229Q501.325 61.43229 501.9969 61.791664Q502.6844 62.15104 502.96564 62.791664Q503.2625 63.43229 503.2625 64.65104L503.2625 69.916664L501.85626 69.916664L501.85626 64.65104Q501.85626 63.604164 501.40314 63.11979Q500.95 62.635414 500.10626 62.635414Q499.48126 62.635414 498.9344 62.96354Q498.3875 63.291664 498.15314 63.854164Q497.91876 64.40104 497.91876 65.36979L497.91876 69.916664L496.5125 69.916664ZM505.5125 69.916664L505.5125 61.61979L506.77814 61.61979L506.77814 62.791664Q507.6844 61.43229 509.41876 61.43229Q510.16876 61.43229 510.79376 61.697914Q511.41876 61.96354 511.73126 62.40104Q512.04376 62.83854 512.16876 63.447914Q512.2469 63.83854 512.2469 64.80729L512.2469 69.916664L510.84064 69.916664L510.84064 64.86979Q510.84064 64.010414 510.66876 63.58854Q510.5125 63.15104 510.09064 62.90104Q509.6844 62.65104 509.1219 62.65104Q508.21564 62.65104 507.5594 63.229164Q506.91876 63.791664 506.91876 65.385414L506.91876 69.916664L505.5125 69.916664ZM514.5125 60.072914L514.5125 58.46354L515.91876 58.46354L515.91876 60.072914L514.5125 60.072914ZM514.5125 69.916664L514.5125 61.61979L515.91876 61.61979L515.91876 69.916664L514.5125 69.916664ZM523.91876 66.86979L525.3094 67.05729Q525.075 68.479164 524.1375 69.291664Q523.21564 70.104164 521.85626 70.104164Q520.15314 70.104164 519.10626 68.99479Q518.075 67.86979 518.075 65.791664Q518.075 64.447914 518.5125 63.447914Q518.96564 62.43229 519.8719 61.93229Q520.79376 61.43229 521.85626 61.43229Q523.21564 61.43229 524.075 62.11979Q524.9344 62.791664 525.16876 64.05729L523.8094 64.260414Q523.60626 63.43229 523.10626 63.010414Q522.6219 62.58854 521.91876 62.58854Q520.85626 62.58854 520.1844 63.354164Q519.52814 64.104164 519.52814 65.760414Q519.52814 67.43229 520.16876 68.197914Q520.8094 68.947914 521.84064 68.947914Q522.66876 68.947914 523.21564 68.447914Q523.77814 67.93229 523.91876 66.86979ZM536.04376 65.416664L536.04376 64.072914L540.90314 64.072914L540.90314 68.322914Q539.77814 69.21354 538.59064 69.666664Q537.40314 70.11979 536.15314 70.11979Q534.46564 70.11979 533.09064 69.40104Q531.71564 68.666664 531.0125 67.30729Q530.3094 65.93229 530.3094 64.24479Q530.3094 62.572914 530.9969 61.11979Q531.7 59.666664 533.0125 58.96354Q534.325 58.260414 536.04376 58.260414Q537.27814 58.260414 538.27814 58.666664Q539.29376 59.072914 539.85626 59.791664Q540.4344 60.510414 540.73126 61.666664L539.35626 62.041664Q539.10626 61.166664 538.71564 60.666664Q538.34064 60.166664 537.6219 59.86979Q536.91876 59.55729 536.04376 59.55729Q535.0125 59.55729 534.2469 59.885414Q533.4969 60.197914 533.02814 60.71354Q532.5594 61.229164 532.3094 61.83854Q531.8719 62.90104 531.8719 64.15104Q531.8719 65.68229 532.3875 66.71354Q532.91876 67.74479 533.91876 68.24479Q534.9344 68.74479 536.075 68.74479Q537.0594 68.74479 537.9969 68.36979Q538.9344 67.979164 539.41876 67.55729L539.41876 65.416664L536.04376 65.416664ZM542.4969 69.916664L542.4969 61.61979L543.7625 61.61979L543.7625 62.86979Q544.2469 61.99479 544.65314 61.71354Q545.0594 61.43229 545.5594 61.43229Q546.2625 61.43229 546.9969 61.885414L546.5125 63.18229Q545.9969 62.885414 545.48126 62.885414Q545.02814 62.885414 544.65314 63.166664Q544.29376 63.43229 544.1375 63.93229Q543.90314 64.68229 543.90314 65.572914L543.90314 69.916664L542.4969 69.916664ZM546.98126 65.760414Q546.98126 63.46354 548.2625 62.354164Q549.34064 61.43229 550.8719 61.43229Q552.59064 61.43229 553.66876 62.55729Q554.7625 63.666664 554.7625 65.65104Q554.7625 67.24479 554.27814 68.166664Q553.79376 69.08854 552.8719 69.604164Q551.96564 70.104164 550.8719 70.104164Q549.1375 70.104164 548.0594 68.99479Q546.98126 67.86979 546.98126 65.760414ZM548.4344 65.760414Q548.4344 67.354164 549.1219 68.15104Q549.825 68.947914 550.8719 68.947914Q551.91876 68.947914 552.60626 68.15104Q553.3094 67.354164 553.3094 65.71354Q553.3094 64.18229 552.60626 63.385414Q551.91876 62.58854 550.8719 62.58854Q549.825 62.58854 549.1219 63.385414Q548.4344 64.166664 548.4344 65.760414ZM561.95 69.916664L561.95 68.697914Q560.98126 70.104164 559.3094 70.104164Q558.575 70.104164 557.9344 69.822914Q557.3094 69.541664 556.9969 69.11979Q556.6844 68.68229 556.5594 68.072914Q556.48126 67.65104 556.48126 66.760414L556.48126 61.61979L557.8875 61.61979L557.8875 66.21354Q557.8875 67.322914 557.96564 67.697914Q558.10626 68.260414 558.52814 68.572914Q558.96564 68.885414 559.59064 68.885414Q560.23126 68.885414 560.77814 68.572914Q561.34064 68.24479 561.5594 67.68229Q561.79376 67.11979 561.79376 66.05729L561.79376 61.61979L563.2 61.61979L563.2 69.916664L561.95 69.916664ZM565.5125 73.104164L565.5125 61.61979L566.79376 61.61979L566.79376 62.697914Q567.2469 62.05729 567.8094 61.74479Q568.3875 61.43229 569.2 61.43229Q570.2625 61.43229 571.075 61.979164Q571.8875 62.52604 572.29376 63.52604Q572.71564 64.510414 572.71564 65.697914Q572.71564 66.979164 572.2469 67.99479Q571.79376 69.010414 570.91876 69.55729Q570.0594 70.104164 569.09064 70.104164Q568.3875 70.104164 567.825 69.80729Q567.27814 69.510414 566.91876 69.05729L566.91876 73.104164L565.5125 73.104164ZM566.77814 65.80729Q566.77814 67.416664 567.41876 68.18229Q568.075 68.947914 568.9969 68.947914Q569.9344 68.947914 570.60626 68.15104Q571.27814 67.354164 571.27814 65.697914Q571.27814 64.104164 570.6219 63.322914Q569.96564 62.52604 569.0594 62.52604Q568.16876 62.52604 567.46564 63.36979Q566.77814 64.21354 566.77814 65.80729ZM573.95 67.43229L575.34064 67.21354Q575.45 68.05729 575.98126 68.510414Q576.52814 68.947914 577.48126 68.947914Q578.45 68.947914 578.91876 68.55729Q579.3875 68.15104 579.3875 67.61979Q579.3875 67.15104 578.98126 66.86979Q578.6844 66.68229 577.54376 66.40104Q575.9969 66.010414 575.3875 65.729164Q574.79376 65.43229 574.48126 64.93229Q574.1844 64.43229 574.1844 63.822914Q574.1844 63.260414 574.4344 62.791664Q574.6844 62.322914 575.1219 62.010414Q575.45 61.760414 576.0125 61.604164Q576.59064 61.43229 577.23126 61.43229Q578.21564 61.43229 578.95 61.71354Q579.6844 61.99479 580.02814 62.479164Q580.3875 62.947914 580.52814 63.760414L579.15314 63.947914Q579.0594 63.30729 578.60626 62.947914Q578.15314 62.58854 577.34064 62.58854Q576.3719 62.58854 575.95 62.916664Q575.54376 63.229164 575.54376 63.65104Q575.54376 63.93229 575.71564 64.15104Q575.8875 64.36979 576.2469 64.52604Q576.46564 64.604164 577.4969 64.885414Q578.98126 65.27604 579.575 65.541664Q580.16876 65.791664 580.4969 66.27604Q580.84064 66.760414 580.84064 67.479164Q580.84064 68.18229 580.41876 68.80729Q580.0125 69.416664 579.23126 69.760414Q578.46564 70.104164 577.4969 70.104164Q575.8719 70.104164 575.02814 69.43229Q574.1844 68.760414 573.95 67.43229Z" fill-rule="nonzero"/><path fill="#9e9e9e" d="M553.5125 90.55729L553.5125 91.916664L545.9344 91.916664Q545.91876 91.40104 546.10626 90.93229Q546.3875 90.166664 547.02814 89.416664Q547.66876 88.666664 548.8719 87.68229Q550.73126 86.15104 551.3875 85.260414Q552.04376 84.354164 552.04376 83.55729Q552.04376 82.729164 551.45 82.15104Q550.85626 81.572914 549.8875 81.572914Q548.8719 81.572914 548.2625 82.18229Q547.65314 82.791664 547.65314 83.86979L546.2 83.729164Q546.35626 82.104164 547.325 81.260414Q548.29376 80.416664 549.91876 80.416664Q551.575 80.416664 552.52814 81.33854Q553.4969 82.24479 553.4969 83.58854Q553.4969 84.27604 553.21564 84.947914Q552.9344 85.604164 552.27814 86.33854Q551.6219 87.072914 550.10626 88.354164Q548.84064 89.416664 548.48126 89.80729Q548.1219 90.18229 547.8875 90.55729L553.5125 90.55729ZM555.90314 91.916664L555.90314 90.30729L557.5125 90.30729L557.5125 91.916664L555.90314 91.916664ZM559.21564 81.96354L559.21564 80.604164L566.6219 80.604164L566.6219 81.697914Q565.52814 82.86979 564.45 84.80729Q563.3875 86.729164 562.79376 88.760414Q562.3719 90.197914 562.2625 91.916664L560.8094 91.916664Q560.84064 90.55729 561.34064 88.65104Q561.85626 86.729164 562.79376 84.96354Q563.7469 83.18229 564.825 81.96354L559.21564 81.96354ZM568.3875 83.21354Q568.3875 81.979164 568.9969 81.11979Q569.6219 80.260414 570.79376 80.260414Q571.8719 80.260414 572.575 81.041664Q573.27814 81.80729 573.27814 83.291664Q573.27814 84.74479 572.5594 85.541664Q571.85626 86.322914 570.8094 86.322914Q569.7625 86.322914 569.075 85.55729Q568.3875 84.77604 568.3875 83.21354ZM570.825 81.229164Q570.3094 81.229164 569.95 81.68229Q569.60626 82.135414 569.60626 83.354164Q569.60626 84.447914 569.95 84.90104Q570.3094 85.354164 570.825 85.354164Q571.35626 85.354164 571.7 84.90104Q572.0594 84.447914 572.0594 83.24479Q572.0594 82.135414 571.7 81.68229Q571.35626 81.229164 570.825 81.229164ZM570.84064 92.33854L577.10626 80.260414L578.2469 80.260414L571.9969 92.33854L570.84064 92.33854ZM575.79376 89.229164Q575.79376 87.99479 576.40314 87.135414Q577.02814 86.27604 578.2 86.27604Q579.27814 86.27604 579.98126 87.05729Q580.7 87.822914 580.7 89.30729Q580.7 90.760414 579.98126 91.55729Q579.2625 92.33854 578.21564 92.33854Q577.16876 92.33854 576.48126 91.55729Q575.79376 90.77604 575.79376 89.229164ZM578.2469 87.24479Q577.71564 87.24479 577.35626 87.697914Q577.0125 88.15104 577.0125 89.36979Q577.0125 90.46354 577.35626 90.916664Q577.71564 91.36979 578.23126 91.36979Q578.77814 91.36979 579.1219 90.916664Q579.46564 90.46354 579.46564 89.260414Q579.46564 88.15104 579.10626 87.697914Q578.7625 87.24479 578.2469 87.24479Z" fill-rule="nonzero"/><path stroke="#757575" stroke-width="1.0" stroke-linecap="butt" d="M581.45 75.416664L454.76666 75.416664L311.98547 62.864136" fill-rule="nonzero"/><path fill="#9e9e9e" d="M313.98547 62.864136C313.98547 61.759567 313.09006 60.864136 311.98547 60.864136C310.88092 60.864136 309.98547 61.759567 309.98547 62.864136C309.98547 63.968708 310.88092 64.864136 311.98547 64.864136C313.09006 64.864136 313.98547 63.968708 313.98547 62.864136" fill-rule="nonzero"/><path fill="#efefef" d="M495.85626 223.94266L497.3719 224.31766Q496.90314 226.19266 495.65314 227.17703Q494.41876 228.1614 492.6375 228.1614Q490.77814 228.1614 489.6219 227.4114Q488.46564 226.64578 487.85626 225.2239Q487.2469 223.7864 487.2469 222.14578Q487.2469 220.3489 487.9344 219.02078Q488.6219 217.69266 489.8719 217.00516Q491.1375 216.30203 492.65314 216.30203Q494.3719 216.30203 495.54376 217.17703Q496.71564 218.05203 497.1844 219.64578L495.6844 219.98953Q495.29376 218.73953 494.52814 218.17703Q493.77814 217.5989 492.6219 217.5989Q491.3094 217.5989 490.41876 218.23953Q489.52814 218.86453 489.16876 219.94266Q488.8094 221.00516 488.8094 222.13016Q488.8094 223.5989 489.23126 224.69266Q489.66876 225.77078 490.5594 226.31766Q491.46564 226.8489 492.5125 226.8489Q493.77814 226.8489 494.65314 226.11453Q495.54376 225.38016 495.85626 223.94266ZM504.95 227.95828L504.95 226.73953Q503.98126 228.14578 502.3094 228.14578Q501.575 228.14578 500.9344 227.86453Q500.3094 227.58328 499.9969 227.1614Q499.6844 226.7239 499.5594 226.11453Q499.48126 225.69266 499.48126 224.80203L499.48126 219.6614L500.8875 219.6614L500.8875 224.25516Q500.8875 225.36453 500.96564 225.73953Q501.10626 226.30203 501.52814 226.61453Q501.96564 226.92703 502.59064 226.92703Q503.23126 226.92703 503.77814 226.61453Q504.34064 226.2864 504.5594 225.7239Q504.79376 225.1614 504.79376 224.0989L504.79376 219.6614L506.2 219.6614L506.2 227.95828L504.95 227.95828ZM508.48126 227.95828L508.48126 216.50516L509.8875 216.50516L509.8875 227.95828L508.48126 227.95828ZM515.575 226.69266L515.77814 227.94266Q515.1844 228.06766 514.71564 228.06766Q513.95 228.06766 513.52814 227.83328Q513.10626 227.58328 512.9344 227.19266Q512.7625 226.7864 512.7625 225.52078L512.7625 220.75516L511.73126 220.75516L511.73126 219.6614L512.7625 219.6614L512.7625 217.5989L514.16876 216.75516L514.16876 219.6614L515.575 219.6614L515.575 220.75516L514.16876 220.75516L514.16876 225.5989Q514.16876 226.20828 514.23126 226.38016Q514.3094 226.55203 514.48126 226.6614Q514.65314 226.75516 514.96564 226.75516Q515.2 226.75516 515.575 226.69266ZM521.95 227.95828L521.95 226.73953Q520.98126 228.14578 519.3094 228.14578Q518.575 228.14578 517.9344 227.86453Q517.3094 227.58328 516.9969 227.1614Q516.6844 226.7239 516.5594 226.11453Q516.48126 225.69266 516.48126 224.80203L516.48126 219.6614L517.8875 219.6614L517.8875 224.25516Q517.8875 225.36453 517.96564 225.73953Q518.10626 226.30203 518.52814 226.61453Q518.96564 226.92703 519.59064 226.92703Q520.23126 226.92703 520.77814 226.61453Q521.34064 226.2864 521.5594 225.7239Q521.79376 225.1614 521.79376 224.0989L521.79376 219.6614L523.2 219.6614L523.2 227.95828L521.95 227.95828ZM525.4969 227.95828L525.4969 219.6614L526.7625 219.6614L526.7625 220.9114Q527.2469 220.0364 527.65314 219.75516Q528.0594 219.4739 528.5594 219.4739Q529.2625 219.4739 529.9969 219.92703L529.5125 221.2239Q528.9969 220.92703 528.48126 220.92703Q528.02814 220.92703 527.65314 221.20828Q527.29376 221.4739 527.1375 221.9739Q526.90314 222.7239 526.90314 223.61453L526.90314 227.95828L525.4969 227.95828ZM535.91876 226.92703Q535.1375 227.5989 534.41876 227.88016Q533.7 228.14578 532.8719 228.14578Q531.4969 228.14578 530.7625 227.4739Q530.02814 226.80203 530.02814 225.77078Q530.02814 225.1614 530.3094 224.6614Q530.59064 224.14578 531.02814 223.8489Q531.48126 223.5364 532.04376 223.38016Q532.46564 223.27078 533.29376 223.17703Q534.9969 222.9739 535.8094 222.69266Q535.8094 222.39578 535.8094 222.31766Q535.8094 221.45828 535.41876 221.11453Q534.8719 220.63016 533.8094 220.63016Q532.825 220.63016 532.34064 220.98953Q531.8719 221.33328 531.65314 222.20828L530.27814 222.02078Q530.46564 221.14578 530.8875 220.5989Q531.325 220.05203 532.1375 219.77078Q532.95 219.4739 534.0125 219.4739Q535.075 219.4739 535.73126 219.7239Q536.40314 219.9739 536.71564 220.3489Q537.02814 220.7239 537.15314 221.30203Q537.23126 221.6614 537.23126 222.5989L537.23126 224.4739Q537.23126 226.44266 537.3094 226.95828Q537.40314 227.4739 537.66876 227.95828L536.2 227.95828Q535.98126 227.52078 535.91876 226.92703ZM535.8094 223.7864Q535.04376 224.0989 533.5125 224.31766Q532.6375 224.44266 532.27814 224.5989Q531.91876 224.75516 531.71564 225.06766Q531.52814 225.36453 531.52814 225.7239Q531.52814 226.2864 531.95 226.6614Q532.3875 227.0364 533.2 227.0364Q534.0125 227.0364 534.6375 226.69266Q535.27814 226.33328 535.575 225.70828Q535.8094 225.23953 535.8094 224.30203L535.8094 223.7864ZM539.48126 227.95828L539.48126 216.50516L540.8875 216.50516L540.8875 227.95828L539.48126 227.95828ZM546.41876 227.95828L550.825 216.50516L552.46564 216.50516L557.15314 227.95828L555.41876 227.95828L554.09064 224.48953L549.29376 224.48953L548.04376 227.95828L546.41876 227.95828ZM549.73126 223.25516L553.6219 223.25516L552.41876 220.08328Q551.8719 218.63016 551.60626 217.70828Q551.3875 218.80203 550.9969 219.89578L549.73126 223.25516ZM563.91876 224.9114L565.3094 225.0989Q565.075 226.52078 564.1375 227.33328Q563.21564 228.14578 561.85626 228.14578Q560.15314 228.14578 559.10626 227.0364Q558.075 225.9114 558.075 223.83328Q558.075 222.48953 558.5125 221.48953Q558.96564 220.4739 559.8719 219.9739Q560.79376 219.4739 561.85626 219.4739Q563.21564 219.4739 564.075 220.1614Q564.9344 220.83328 565.16876 222.0989L563.8094 222.30203Q563.60626 221.4739 563.10626 221.05203Q562.6219 220.63016 561.91876 220.63016Q560.85626 220.63016 560.1844 221.39578Q559.52814 222.14578 559.52814 223.80203Q559.52814 225.4739 560.16876 226.23953Q560.8094 226.98953 561.84064 226.98953Q562.66876 226.98953 563.21564 226.48953Q563.77814 225.9739 563.91876 224.9114ZM569.575 226.69266L569.77814 227.94266Q569.1844 228.06766 568.71564 228.06766Q567.95 228.06766 567.52814 227.83328Q567.10626 227.58328 566.9344 227.19266Q566.7625 226.7864 566.7625 225.52078L566.7625 220.75516L565.73126 220.75516L565.73126 219.6614L566.7625 219.6614L566.7625 217.5989L568.16876 216.75516L568.16876 219.6614L569.575 219.6614L569.575 220.75516L568.16876 220.75516L568.16876 225.5989Q568.16876 226.20828 568.23126 226.38016Q568.3094 226.55203 568.48126 226.6614Q568.65314 226.75516 568.96564 226.75516Q569.2 226.75516 569.575 226.69266ZM569.95 225.4739L571.34064 225.25516Q571.45 226.0989 571.98126 226.55203Q572.52814 226.98953 573.48126 226.98953Q574.45 226.98953 574.91876 226.5989Q575.3875 226.19266 575.3875 225.6614Q575.3875 225.19266 574.98126 224.9114Q574.6844 224.7239 573.54376 224.44266Q571.9969 224.05203 571.3875 223.77078Q570.79376 223.4739 570.48126 222.9739Q570.1844 222.4739 570.1844 221.86453Q570.1844 221.30203 570.4344 220.83328Q570.6844 220.36453 571.1219 220.05203Q571.45 219.80203 572.0125 219.64578Q572.59064 219.4739 573.23126 219.4739Q574.21564 219.4739 574.95 219.75516Q575.6844 220.0364 576.02814 220.52078Q576.3875 220.98953 576.52814 221.80203L575.15314 221.98953Q575.0594 221.3489 574.60626 220.98953Q574.15314 220.63016 573.34064 220.63016Q572.3719 220.63016 571.95 220.95828Q571.54376 221.27078 571.54376 221.69266Q571.54376 221.9739 571.71564 222.19266Q571.8875 222.4114 572.2469 222.56766Q572.46564 222.64578 573.4969 222.92703Q574.98126 223.31766 575.575 223.58328Q576.16876 223.83328 576.4969 224.31766Q576.84064 224.80203 576.84064 225.52078Q576.84064 226.2239 576.41876 226.8489Q576.0125 227.45828 575.23126 227.80203Q574.46564 228.14578 573.4969 228.14578Q571.8719 228.14578 571.02814 227.4739Q570.1844 226.80203 569.95 225.4739ZM578.90314 227.95828L578.90314 226.3489L580.5125 226.3489L580.5125 227.95828L578.90314 227.95828Z" fill-rule="nonzero"/><path fill="#9e9e9e" d="M537.1219 246.95828L538.59064 246.83328Q538.7625 247.9114 539.35626 248.45828Q539.95 248.98953 540.79376 248.98953Q541.8094 248.98953 542.5125 248.2239Q543.21564 247.45828 543.21564 246.19266Q543.21564 244.98953 542.54376 244.30203Q541.8719 243.5989 540.77814 243.5989Q540.09064 243.5989 539.54376 243.9114Q538.9969 244.2239 538.6844 244.70828L537.3719 244.5364L538.48126 238.6614L544.16876 238.6614L544.16876 240.00516L539.60626 240.00516L538.98126 243.08328Q540.0125 242.36453 541.15314 242.36453Q542.65314 242.36453 543.6844 243.4114Q544.71564 244.44266 544.71564 246.06766Q544.71564 247.63016 543.8094 248.75516Q542.7 250.1614 540.79376 250.1614Q539.23126 250.1614 538.2469 249.2864Q537.2625 248.39578 537.1219 246.95828ZM551.41876 249.95828L550.0125 249.95828L550.0125 240.98953Q549.4969 241.4739 548.66876 241.95828Q547.85626 242.44266 547.2 242.69266L547.2 241.33328Q548.3719 240.77078 549.2469 239.98953Q550.1375 239.19266 550.5125 238.45828L551.41876 238.45828L551.41876 249.95828ZM555.90314 249.95828L555.90314 248.3489L557.5125 248.3489L557.5125 249.95828L555.90314 249.95828ZM563.6219 249.95828L563.6219 247.20828L558.65314 247.20828L558.65314 245.92703L563.8875 238.50516L565.02814 238.50516L565.02814 245.92703L566.575 245.92703L566.575 247.20828L565.02814 247.20828L565.02814 249.95828L563.6219 249.95828ZM563.6219 245.92703L563.6219 240.75516L560.04376 245.92703L563.6219 245.92703ZM568.3875 241.25516Q568.3875 240.02078 568.9969 239.1614Q569.6219 238.30203 570.79376 238.30203Q571.8719 238.30203 572.575 239.08328Q573.27814 239.8489 573.27814 241.33328Q573.27814 242.7864 572.5594 243.58328Q571.85626 244.36453 570.8094 244.36453Q569.7625 244.36453 569.075 243.5989Q568.3875 242.81766 568.3875 241.25516ZM570.825 239.27078Q570.3094 239.27078 569.95 239.7239Q569.60626 240.17703 569.60626 241.39578Q569.60626 242.48953 569.95 242.94266Q570.3094 243.39578 570.825 243.39578Q571.35626 243.39578 571.7 242.94266Q572.0594 242.48953 572.0594 241.2864Q572.0594 240.17703 571.7 239.7239Q571.35626 239.27078 570.825 239.27078ZM570.84064 250.38016L577.10626 238.30203L578.2469 238.30203L571.9969 250.38016L570.84064 250.38016ZM575.79376 247.27078Q575.79376 246.0364 576.40314 245.17703Q577.02814 244.31766 578.2 244.31766Q579.27814 244.31766 579.98126 245.0989Q580.7 245.86453 580.7 247.3489Q580.7 248.80203 579.98126 249.5989Q579.2625 250.38016 578.21564 250.38016Q577.16876 250.38016 576.48126 249.5989Q575.79376 248.81766 575.79376 247.27078ZM578.2469 245.2864Q577.71564 245.2864 577.35626 245.73953Q577.0125 246.19266 577.0125 247.4114Q577.0125 248.50516 577.35626 248.95828Q577.71564 249.4114 578.23126 249.4114Q578.77814 249.4114 579.1219 248.95828Q579.46564 248.50516 579.46564 247.30203Q579.46564 246.19266 579.10626 245.73953Q578.7625 245.2864 578.2469 245.2864Z" fill-rule="nonzero"/><path stroke="#757575" stroke-width="1.0" stroke-linecap="butt" d="M581.45 233.45828L454.76666 233.45828L438.15625 233.45828" fill-rule="nonzero"/><path fill="#9e9e9e" d="M440.15625 233.45828C440.15625 232.35371 439.26083 231.45828 438.15625 231.45828C437.0517 231.45828 436.15625 232.35371 436.15625 233.45828C436.15625 234.56285 437.0517 235.45828 438.15625 235.45828C439.26083 235.45828 440.15625 234.56285 440.15625 233.45828" fill-rule="nonzero"/><path fill="#f3f3f3" d="M271.26562 32.534374L273.15625 33.003124Q272.5625 35.346874 271.01562 36.58125Q269.46875 37.8 267.21875 37.8Q264.90625 37.8 263.45312 36.8625Q262.01562 35.909374 261.25 34.128124Q260.5 32.33125 260.5 30.284374Q260.5 28.05 261.34375 26.39375Q262.20312 24.721874 263.78125 23.8625Q265.35938 22.9875 267.25 22.9875Q269.40625 22.9875 270.85938 24.08125Q272.32812 25.175 272.90625 27.159374L271.04688 27.596874Q270.54688 26.034374 269.59375 25.33125Q268.65625 24.6125 267.21875 24.6125Q265.5625 24.6125 264.45312 25.409374Q263.34375 26.190624 262.89062 27.534374Q262.45312 28.8625 262.45312 30.26875Q262.45312 32.096874 262.98438 33.471874Q263.51562 34.83125 264.64062 35.503124Q265.76562 36.175 267.0625 36.175Q268.65625 36.175 269.76562 35.253124Q270.875 34.33125 271.26562 32.534374ZM281.59375 36.26875Q280.60938 37.096874 279.70312 37.440624Q278.79688 37.784374 277.76562 37.784374Q276.0625 37.784374 275.14062 36.95625Q274.21875 36.1125 274.21875 34.815624Q274.21875 34.05 274.5625 33.425Q274.92188 32.8 275.48438 32.425Q276.04688 32.034374 276.75 31.83125Q277.26562 31.70625 278.3125 31.565624Q280.4375 31.315624 281.4375 30.971874Q281.45312 30.6125 281.45312 30.503124Q281.45312 29.440624 280.95312 28.9875Q280.28125 28.39375 278.95312 28.39375Q277.70312 28.39375 277.10938 28.83125Q276.53125 29.26875 276.25 30.378124L274.53125 30.14375Q274.76562 29.034374 275.29688 28.3625Q275.82812 27.675 276.84375 27.315624Q277.85938 26.940624 279.20312 26.940624Q280.53125 26.940624 281.35938 27.253124Q282.1875 27.565624 282.57812 28.05Q282.96875 28.51875 283.125 29.2375Q283.21875 29.690624 283.21875 30.8625L283.21875 33.20625Q283.21875 35.659374 283.32812 36.315624Q283.4375 36.95625 283.78125 37.55L281.9375 37.55Q281.67188 37.003124 281.59375 36.26875ZM281.4375 32.346874Q280.48438 32.7375 278.5625 33.003124Q277.48438 33.159374 277.03125 33.3625Q276.59375 33.55 276.34375 33.925Q276.09375 34.3 276.09375 34.76875Q276.09375 35.471874 276.625 35.940624Q277.15625 36.409374 278.1875 36.409374Q279.20312 36.409374 279.98438 35.971874Q280.78125 35.51875 281.15625 34.753124Q281.4375 34.14375 281.4375 32.9875L281.4375 32.346874ZM289.65625 35.971874L289.90625 37.534374Q289.17188 37.690624 288.57812 37.690624Q287.625 37.690624 287.09375 37.39375Q286.57812 37.08125 286.35938 36.596874Q286.14062 36.096874 286.14062 34.51875L286.14062 28.55L284.85938 28.55L284.85938 27.175L286.14062 27.175L286.14062 24.6125L287.89062 23.55L287.89062 27.175L289.65625 27.175L289.65625 28.55L287.89062 28.55L287.89062 34.6125Q287.89062 35.3625 287.98438 35.58125Q288.07812 35.784374 288.28125 35.925Q288.5 36.05 288.89062 36.05Q289.17188 36.05 289.65625 35.971874ZM298.92188 34.20625L300.73438 34.440624Q300.3125 36.01875 299.14062 36.909374Q297.98438 37.784374 296.17188 37.784374Q293.90625 37.784374 292.5625 36.39375Q291.23438 34.9875 291.23438 32.45625Q291.23438 29.83125 292.57812 28.39375Q293.92188 26.940624 296.07812 26.940624Q298.15625 26.940624 299.46875 28.3625Q300.79688 29.76875 300.79688 32.346874Q300.79688 32.503124 300.78125 32.815624L293.04688 32.815624Q293.14062 34.51875 294.01562 35.425Q294.89062 36.33125 296.1875 36.33125Q297.15625 36.33125 297.82812 35.83125Q298.51562 35.315624 298.92188 34.20625ZM293.14062 31.3625L298.9375 31.3625Q298.82812 30.065624 298.28125 29.409374Q297.4375 28.39375 296.09375 28.39375Q294.89062 28.39375 294.0625 29.20625Q293.23438 30.003124 293.14062 31.3625ZM302.5 38.409374L304.20312 38.659374Q304.3125 39.45625 304.79688 39.815624Q305.45312 40.3 306.59375 40.3Q307.8125 40.3 308.46875 39.815624Q309.14062 39.33125 309.375 38.45625Q309.51562 37.909374 309.5 36.190624Q308.34375 37.55 306.625 37.55Q304.48438 37.55 303.3125 36.003124Q302.14062 34.45625 302.14062 32.3Q302.14062 30.815624 302.67188 29.565624Q303.21875 28.315624 304.23438 27.628124Q305.26562 26.940624 306.64062 26.940624Q308.46875 26.940624 309.67188 28.425L309.67188 27.175L311.28125 27.175L311.28125 36.14375Q311.28125 38.565624 310.78125 39.565624Q310.29688 40.58125 309.21875 41.159374Q308.15625 41.753124 306.59375 41.753124Q304.75 41.753124 303.59375 40.925Q302.45312 40.096874 302.5 38.409374ZM303.95312 32.175Q303.95312 34.221874 304.76562 35.159374Q305.57812 36.096874 306.79688 36.096874Q308.0 36.096874 308.8125 35.159374Q309.64062 34.221874 309.64062 32.2375Q309.64062 30.33125 308.79688 29.3625Q307.95312 28.39375 306.76562 28.39375Q305.59375 28.39375 304.76562 29.346874Q303.95312 30.3 303.95312 32.175ZM313.17188 32.3625Q313.17188 29.4875 314.76562 28.096874Q316.10938 26.940624 318.03125 26.940624Q320.17188 26.940624 321.51562 28.346874Q322.875 29.753124 322.875 32.221874Q322.875 34.221874 322.28125 35.378124Q321.6875 36.51875 320.53125 37.159374Q319.39062 37.784374 318.03125 37.784374Q315.84375 37.784374 314.5 36.39375Q313.17188 34.9875 313.17188 32.3625ZM314.96875 32.3625Q314.96875 34.3625 315.82812 35.346874Q316.70312 36.33125 318.03125 36.33125Q319.34375 36.33125 320.20312 35.346874Q321.07812 34.346874 321.07812 32.3Q321.07812 30.378124 320.20312 29.39375Q319.32812 28.39375 318.03125 28.39375Q316.70312 28.39375 315.82812 29.39375Q314.96875 30.378124 314.96875 32.3625ZM324.79688 37.55L324.79688 27.175L326.375 27.175L326.375 28.753124Q326.98438 27.64375 327.5 27.3Q328.01562 26.940624 328.625 26.940624Q329.51562 26.940624 330.4375 27.503124L329.82812 29.14375Q329.1875 28.753124 328.54688 28.753124Q327.96875 28.753124 327.5 29.1125Q327.04688 29.45625 326.84375 30.065624Q326.5625 31.003124 326.5625 32.1125L326.5625 37.55L324.79688 37.55ZM331.73438 41.55L331.54688 39.89375Q332.125 40.05 332.54688 40.05Q333.14062 40.05 333.48438 39.846874Q333.84375 39.659374 334.0625 39.315624Q334.23438 39.05 334.60938 38.003124Q334.65625 37.846874 334.76562 37.565624L330.82812 27.175L332.71875 27.175L334.875 33.190624Q335.29688 34.33125 335.625 35.58125Q335.9375 34.378124 336.34375 33.221874L338.5625 27.175L340.32812 27.175L336.375 37.721874Q335.75 39.440624 335.39062 40.08125Q334.92188 40.95625 334.3125 41.346874Q333.71875 41.753124 332.875 41.753124Q332.35938 41.753124 331.73438 41.55Z" fill-rule="nonzero"/></svg>