<svg version="1.1" viewBox="0.0 0.0 600.0 371.0" fill="none" stroke="none" stroke-linecap="square" stroke-miterlimit="10" width="600" height="371" xmlns:xlink="http://www.w3.org/1999/xlink" xmlns="http://www.w3.org/2000/svg"><path fill="#ffffff" fill-opacity="0.0" d="M0 0L600.0 0L600.0 371.0L0 371.0L0 0Z" fill-rule="nonzero"/><path fill="#4285f4" d="M300.0 54.916668C353.1492 54.916668 402.2611 83.27143 428.83572 129.3L364.41785 166.49167C351.13055 143.47739 326.57462 129.3 300.0 129.3Z" fill-rule="nonzero"/><path fill="#4571b0" d="M428.83572 129.3C455.4103 175.32857 455.4103 232.0381 428.83572 278.06668L364.41785 240.875C377.70517 217.86072 377.70517 189.50595 364.41785 166.49167Z" fill-rule="nonzero"/><path fill="#d8753e" d="M171.16429 129.3C197.73889 83.27143 246.85078 54.916668 300.0 54.916668L300.0 129.3C273.42538 129.3 248.86945 143.47739 235.58214 166.49167Z" fill-rule="nonzero"/><path fill="#8c4595" d="M171.16429 278.06668C144.58968 232.0381 144.58968 175.32857 171.16429 129.3L235.58214 166.49167C222.29485 189.50595 222.29485 217.86072 235.58214 240.875Z" fill-rule="nonzero"/><path fill="#78a94e" d="M428.83572 278.06668C402.2611 324.09525 353.1492 352.45 300.0 352.45C246.85078 352.45 197.73889 324.09525 171.16429 278.06668L235.58214 240.875C248.86945 263.88928 273.42538 278.06668 300.0 278.06668C326.57462 278.06668 351.13055 263.88928 364.41785 240.875Z" fill-rule="nonzero"/><path fill="#ffffff" d="M336.99063 113.55655L335.4125 113.55655L335.4125 103.478424Q334.83438 104.0253 333.9125 104.572174Q332.99063 105.103424 332.24063 105.384674L332.24063 103.853424Q333.56876 103.228424 334.56876 102.3378Q335.56876 101.447174 335.975 100.61905L336.99063 100.61905L336.99063 113.55655ZM349.24063 103.822174L347.67813 103.947174Q347.45938 103.0253 347.06876 102.603424Q346.42813 101.915924 345.49063 101.915924Q344.74063 101.915924 344.1625 102.3378Q343.4125 102.884674 342.975 103.93155Q342.55313 104.978424 342.5375 106.915924Q343.11563 106.040924 343.92813 105.61905Q344.75626 105.197174 345.6625 105.197174Q347.25626 105.197174 348.36563 106.36905Q349.475 107.5253 349.475 109.36905Q349.475 110.5878 348.94376 111.634674Q348.42813 112.665924 347.50626 113.228424Q346.6 113.7753 345.44376 113.7753Q343.45938 113.7753 342.20938 112.322174Q340.95938 110.86905 340.95938 107.5253Q340.95938 103.790924 342.35 102.0878Q343.55313 100.61905 345.58438 100.61905Q347.11563 100.61905 348.08438 101.478424Q349.05313 102.322174 349.24063 103.822174ZM342.7875 109.384674Q342.7875 110.197174 343.13126 110.947174Q343.475 111.697174 344.1 112.0878Q344.725 112.478424 345.4125 112.478424Q346.4125 112.478424 347.13126 111.665924Q347.85 110.853424 347.85 109.4628Q347.85 108.134674 347.13126 107.36905Q346.42813 106.5878 345.35 106.5878Q344.27188 106.5878 343.52188 107.36905Q342.7875 108.134674 342.7875 109.384674ZM351.92813 113.55655L351.92813 111.759674L353.725 111.759674L353.725 113.55655L351.92813 113.55655ZM356.14688 102.353424L356.14688 100.8378L364.475 100.8378L364.475 102.072174Q363.25626 103.384674 362.0375 105.55655Q360.83438 107.7128 360.17813 110.009674Q359.69376 111.634674 359.56876 113.55655L357.94376 113.55655Q357.975 112.040924 358.5375 109.884674Q359.11563 107.728424 360.17813 105.728424Q361.24063 103.728424 362.44376 102.353424L356.14688 102.353424ZM366.33438 103.759674Q366.33438 102.384674 367.02188 101.415924Q367.725 100.447174 369.0375 100.447174Q370.25626 100.447174 371.05313 101.322174Q371.85 102.18155 371.85 103.86905Q371.85 105.49405 371.0375 106.384674Q370.24063 107.259674 369.05313 107.259674Q367.89688 107.259674 367.11563 106.4003Q366.33438 105.5253 366.33438 103.759674ZM369.08438 101.540924Q368.49063 101.540924 368.1 102.05655Q367.70938 102.55655 367.70938 103.915924Q367.70938 105.165924 368.1 105.665924Q368.50626 106.165924 369.08438 106.165924Q369.67813 106.165924 370.06876 105.665924Q370.45938 105.1503 370.45938 103.80655Q370.45938 102.55655 370.06876 102.05655Q369.67813 101.540924 369.08438 101.540924ZM369.1 114.0253L376.14688 100.447174L377.42813 100.447174L370.39688 114.0253L369.1 114.0253ZM374.6625 110.5253Q374.6625 109.1503 375.35 108.18155Q376.05313 107.2128 377.38126 107.2128Q378.6 107.2128 379.38126 108.0878Q380.17813 108.947174 380.17813 110.634674Q380.17813 112.259674 379.38126 113.1503Q378.58438 114.0253 377.39688 114.0253Q376.225 114.0253 375.44376 113.1503Q374.6625 112.2753 374.6625 110.5253ZM377.42813 108.30655Q376.83438 108.30655 376.44376 108.822174Q376.05313 109.322174 376.05313 110.697174Q376.05313 111.915924 376.44376 112.43155Q376.83438 112.947174 377.4125 112.947174Q378.02188 112.947174 378.4125 112.43155Q378.80313 111.915924 378.80313 110.572174Q378.80313 109.322174 378.4125 108.822174Q378.02188 108.30655 377.42813 108.30655Z" fill-rule="nonzero"/><path fill="#ffffff" d="M392.77814 210.18333L391.2 210.18333L391.2 200.10521Q390.6219 200.65208 389.7 201.19896Q388.77814 201.73021 388.02814 202.01146L388.02814 200.48021Q389.35626 199.85521 390.35626 198.96458Q391.35626 198.07396 391.7625 197.24583L392.77814 197.24583L392.77814 210.18333ZM405.02814 200.44896L403.46564 200.57396Q403.2469 199.65208 402.85626 199.23021Q402.21564 198.54271 401.27814 198.54271Q400.52814 198.54271 399.95 198.96458Q399.2 199.51146 398.7625 200.55833Q398.34064 201.60521 398.325 203.54271Q398.90314 202.66771 399.71564 202.24583Q400.54376 201.82396 401.45 201.82396Q403.04376 201.82396 404.15314 202.99583Q405.2625 204.15208 405.2625 205.99583Q405.2625 207.21458 404.73126 208.26146Q404.21564 209.29271 403.29376 209.85521Q402.3875 210.40208 401.23126 210.40208Q399.2469 210.40208 397.9969 208.94896Q396.7469 207.49583 396.7469 204.15208Q396.7469 200.41771 398.1375 198.71458Q399.34064 197.24583 401.3719 197.24583Q402.90314 197.24583 403.8719 198.10521Q404.84064 198.94896 405.02814 200.44896ZM398.575 206.01146Q398.575 206.82396 398.91876 207.57396Q399.2625 208.32396 399.8875 208.71458Q400.5125 209.10521 401.2 209.10521Q402.2 209.10521 402.91876 208.29271Q403.6375 207.48021 403.6375 206.08958Q403.6375 204.76146 402.91876 203.99583Q402.21564 203.21458 401.1375 203.21458Q400.0594 203.21458 399.3094 203.99583Q398.575 204.76146 398.575 206.01146ZM407.71564 210.18333L407.71564 208.38646L409.5125 208.38646L409.5125 210.18333L407.71564 210.18333ZM411.9344 198.98021L411.9344 197.46458L420.2625 197.46458L420.2625 198.69896Q419.04376 200.01146 417.825 202.18333Q416.6219 204.33958 415.96564 206.63646Q415.48126 208.26146 415.35626 210.18333L413.73126 210.18333Q413.7625 208.66771 414.325 206.51146Q414.90314 204.35521 415.96564 202.35521Q417.02814 200.35521 418.23126 198.98021L411.9344 198.98021ZM422.1219 200.38646Q422.1219 199.01146 422.8094 198.04271Q423.5125 197.07396 424.825 197.07396Q426.04376 197.07396 426.84064 197.94896Q427.6375 198.80833 427.6375 200.49583Q427.6375 202.12083 426.825 203.01146Q426.02814 203.88646 424.84064 203.88646Q423.6844 203.88646 422.90314 203.02708Q422.1219 202.15208 422.1219 200.38646ZM424.8719 198.16771Q424.27814 198.16771 423.8875 198.68333Q423.4969 199.18333 423.4969 200.54271Q423.4969 201.79271 423.8875 202.29271Q424.29376 202.79271 424.8719 202.79271Q425.46564 202.79271 425.85626 202.29271Q426.2469 201.77708 426.2469 200.43333Q426.2469 199.18333 425.85626 198.68333Q425.46564 198.16771 424.8719 198.16771ZM424.8875 210.65208L431.9344 197.07396L433.21564 197.07396L426.1844 210.65208L424.8875 210.65208ZM430.45 207.15208Q430.45 205.77708 431.1375 204.80833Q431.84064 203.83958 433.16876 203.83958Q434.3875 203.83958 435.16876 204.71458Q435.96564 205.57396 435.96564 207.26146Q435.96564 208.88646 435.16876 209.77708Q434.3719 210.65208 433.1844 210.65208Q432.0125 210.65208 431.23126 209.77708Q430.45 208.90208 430.45 207.15208ZM433.21564 204.93333Q432.6219 204.93333 432.23126 205.44896Q431.84064 205.94896 431.84064 207.32396Q431.84064 208.54271 432.23126 209.05833Q432.6219 209.57396 433.2 209.57396Q433.8094 209.57396 434.2 209.05833Q434.59064 208.54271 434.59064 207.19896Q434.59064 205.94896 434.2 205.44896Q433.8094 204.93333 433.21564 204.93333Z" fill-rule="nonzero"/><path fill="#ffffff" d="M275.25 324.58298L276.84375 324.37985Q277.10938 325.7236 277.76562 326.31735Q278.42188 326.9111 279.35938 326.9111Q280.48438 326.9111 281.25 326.14548Q282.01562 325.36423 282.01562 324.2236Q282.01562 323.12985 281.29688 322.42673Q280.59375 321.70798 279.5 321.70798Q279.04688 321.70798 278.375 321.89548L278.54688 320.50485Q278.70312 320.52048 278.8125 320.52048Q279.8125 320.52048 280.625 319.98923Q281.4375 319.45798 281.4375 318.36423Q281.4375 317.48923 280.84375 316.92673Q280.25 316.3486 279.32812 316.3486Q278.40625 316.3486 277.78125 316.92673Q277.17188 317.50485 277.0 318.67673L275.42188 318.39548Q275.70312 316.80173 276.73438 315.92673Q277.76562 315.05173 279.29688 315.05173Q280.34375 315.05173 281.23438 315.50485Q282.125 315.95798 282.59375 316.73923Q283.0625 317.52048 283.0625 318.39548Q283.0625 319.23923 282.60938 319.92673Q282.17188 320.5986 281.28125 321.00485Q282.42188 321.27048 283.04688 322.11423Q283.6875 322.94235 283.6875 324.17673Q283.6875 325.86423 282.45312 327.05173Q281.23438 328.2236 279.35938 328.2236Q277.65625 328.2236 276.53125 327.20798Q275.42188 326.19235 275.25 324.58298ZM285.25 324.58298L286.84375 324.37985Q287.10938 325.7236 287.76562 326.31735Q288.42188 326.9111 289.35938 326.9111Q290.48438 326.9111 291.25 326.14548Q292.01562 325.36423 292.01562 324.2236Q292.01562 323.12985 291.29688 322.42673Q290.59375 321.70798 289.5 321.70798Q289.04688 321.70798 288.375 321.89548L288.54688 320.50485Q288.70312 320.52048 288.8125 320.52048Q289.8125 320.52048 290.625 319.98923Q291.4375 319.45798 291.4375 318.36423Q291.4375 317.48923 290.84375 316.92673Q290.25 316.3486 289.32812 316.3486Q288.40625 316.3486 287.78125 316.92673Q287.17188 317.50485 287.0 318.67673L285.42188 318.39548Q285.70312 316.80173 286.73438 315.92673Q287.76562 315.05173 289.29688 315.05173Q290.34375 315.05173 291.23438 315.50485Q292.125 315.95798 292.59375 316.73923Q293.0625 317.52048 293.0625 318.39548Q293.0625 319.23923 292.60938 319.92673Q292.17188 320.5986 291.28125 321.00485Q292.42188 321.27048 293.04688 322.11423Q293.6875 322.94235 293.6875 324.17673Q293.6875 325.86423 292.45312 327.05173Q291.23438 328.2236 289.35938 328.2236Q287.65625 328.2236 286.53125 327.20798Q285.42188 326.19235 285.25 324.58298ZM296.14062 327.98923L296.14062 326.19235L297.9375 326.19235L297.9375 327.98923L296.14062 327.98923ZM300.25 324.58298L301.84375 324.37985Q302.10938 325.7236 302.76562 326.31735Q303.42188 326.9111 304.35938 326.9111Q305.48438 326.9111 306.25 326.14548Q307.01562 325.36423 307.01562 324.2236Q307.01562 323.12985 306.29688 322.42673Q305.59375 321.70798 304.5 321.70798Q304.04688 321.70798 303.375 321.89548L303.54688 320.50485Q303.70312 320.52048 303.8125 320.52048Q304.8125 320.52048 305.625 319.98923Q306.4375 319.45798 306.4375 318.36423Q306.4375 317.48923 305.84375 316.92673Q305.25 316.3486 304.32812 316.3486Q303.40625 316.3486 302.78125 316.92673Q302.17188 317.50485 302.0 318.67673L300.42188 318.39548Q300.70312 316.80173 301.73438 315.92673Q302.76562 315.05173 304.29688 315.05173Q305.34375 315.05173 306.23438 315.50485Q307.125 315.95798 307.59375 316.73923Q308.0625 317.52048 308.0625 318.39548Q308.0625 319.23923 307.60938 319.92673Q307.17188 320.5986 306.28125 321.00485Q307.42188 321.27048 308.04688 322.11423Q308.6875 322.94235 308.6875 324.17673Q308.6875 325.86423 307.45312 327.05173Q306.23438 328.2236 304.35938 328.2236Q302.65625 328.2236 301.53125 327.20798Q300.42188 326.19235 300.25 324.58298ZM310.54688 318.19235Q310.54688 316.81735 311.23438 315.8486Q311.9375 314.87985 313.25 314.87985Q314.46875 314.87985 315.26562 315.75485Q316.0625 316.61423 316.0625 318.30173Q316.0625 319.92673 315.25 320.81735Q314.45312 321.69235 313.26562 321.69235Q312.10938 321.69235 311.32812 320.83298Q310.54688 319.95798 310.54688 318.19235ZM313.29688 315.9736Q312.70312 315.9736 312.3125 316.48923Q311.92188 316.98923 311.92188 318.3486Q311.92188 319.5986 312.3125 320.0986Q312.71875 320.5986 313.29688 320.5986Q313.89062 320.5986 314.28125 320.0986Q314.67188 319.58298 314.67188 318.23923Q314.67188 316.98923 314.28125 316.48923Q313.89062 315.9736 313.29688 315.9736ZM313.3125 328.45798L320.35938 314.87985L321.64062 314.87985L314.60938 328.45798L313.3125 328.45798ZM318.875 324.95798Q318.875 323.58298 319.5625 322.61423Q320.26562 321.64548 321.59375 321.64548Q322.8125 321.64548 323.59375 322.52048Q324.39062 323.37985 324.39062 325.06735Q324.39062 326.69235 323.59375 327.58298Q322.79688 328.45798 321.60938 328.45798Q320.4375 328.45798 319.65625 327.58298Q318.875 326.70798 318.875 324.95798ZM321.64062 322.73923Q321.04688 322.73923 320.65625 323.25485Q320.26562 323.75485 320.26562 325.12985Q320.26562 326.3486 320.65625 326.86423Q321.04688 327.37985 321.625 327.37985Q322.23438 327.37985 322.625 326.86423Q323.01562 326.3486 323.01562 325.00485Q323.01562 323.75485 322.625 323.25485Q322.23438 322.73923 321.64062 322.73923Z" fill-rule="nonzero"/><path fill="#ffffff" d="M169.62813 210.18333L168.05 210.18333L168.05 200.10521Q167.47188 200.65208 166.55 201.19896Q165.62813 201.73021 164.87813 202.01146L164.87813 200.48021Q166.20625 199.85521 167.20625 198.96458Q168.20625 198.07396 168.6125 197.24583L169.62813 197.24583L169.62813 210.18333ZM181.87813 200.44896L180.31563 200.57396Q180.09688 199.65208 179.70625 199.23021Q179.06563 198.54271 178.12813 198.54271Q177.37813 198.54271 176.8 198.96458Q176.05 199.51146 175.6125 200.55833Q175.19063 201.60521 175.175 203.54271Q175.75313 202.66771 176.56563 202.24583Q177.39375 201.82396 178.3 201.82396Q179.89375 201.82396 181.00313 202.99583Q182.1125 204.15208 182.1125 205.99583Q182.1125 207.21458 181.58125 208.26146Q181.06563 209.29271 180.14375 209.85521Q179.2375 210.40208 178.08125 210.40208Q176.09688 210.40208 174.84688 208.94896Q173.59688 207.49583 173.59688 204.15208Q173.59688 200.41771 174.9875 198.71458Q176.19063 197.24583 178.22188 197.24583Q179.75313 197.24583 180.72188 198.10521Q181.69063 198.94896 181.87813 200.44896ZM175.425 206.01146Q175.425 206.82396 175.76875 207.57396Q176.1125 208.32396 176.7375 208.71458Q177.3625 209.10521 178.05 209.10521Q179.05 209.10521 179.76875 208.29271Q180.4875 207.48021 180.4875 206.08958Q180.4875 204.76146 179.76875 203.99583Q179.06563 203.21458 177.9875 203.21458Q176.90938 203.21458 176.15938 203.99583Q175.425 204.76146 175.425 206.01146ZM184.56563 210.18333L184.56563 208.38646L186.3625 208.38646L186.3625 210.18333L184.56563 210.18333ZM188.78438 198.98021L188.78438 197.46458L197.1125 197.46458L197.1125 198.69896Q195.89375 200.01146 194.675 202.18333Q193.47188 204.33958 192.81563 206.63646Q192.33125 208.26146 192.20625 210.18333L190.58125 210.18333Q190.6125 208.66771 191.175 206.51146Q191.75313 204.35521 192.81563 202.35521Q193.87813 200.35521 195.08125 198.98021L188.78438 198.98021ZM198.97188 200.38646Q198.97188 199.01146 199.65938 198.04271Q200.3625 197.07396 201.675 197.07396Q202.89375 197.07396 203.69063 197.94896Q204.4875 198.80833 204.4875 200.49583Q204.4875 202.12083 203.675 203.01146Q202.87813 203.88646 201.69063 203.88646Q200.53438 203.88646 199.75313 203.02708Q198.97188 202.15208 198.97188 200.38646ZM201.72188 198.16771Q201.12813 198.16771 200.7375 198.68333Q200.34688 199.18333 200.34688 200.54271Q200.34688 201.79271 200.7375 202.29271Q201.14375 202.79271 201.72188 202.79271Q202.31563 202.79271 202.70625 202.29271Q203.09688 201.77708 203.09688 200.43333Q203.09688 199.18333 202.70625 198.68333Q202.31563 198.16771 201.72188 198.16771ZM201.7375 210.65208L208.78438 197.07396L210.06563 197.07396L203.03438 210.65208L201.7375 210.65208ZM207.3 207.15208Q207.3 205.77708 207.9875 204.80833Q208.69063 203.83958 210.01875 203.83958Q211.2375 203.83958 212.01875 204.71458Q212.81563 205.57396 212.81563 207.26146Q212.81563 208.88646 212.01875 209.77708Q211.22188 210.65208 210.03438 210.65208Q208.8625 210.65208 208.08125 209.77708Q207.3 208.90208 207.3 207.15208ZM210.06563 204.93333Q209.47188 204.93333 209.08125 205.44896Q208.69063 205.94896 208.69063 207.32396Q208.69063 208.54271 209.08125 209.05833Q209.47188 209.57396 210.05 209.57396Q210.65938 209.57396 211.05 209.05833Q211.44063 208.54271 211.44063 207.19896Q211.44063 205.94896 211.05 205.44896Q210.65938 204.93333 210.06563 204.93333Z" fill-rule="nonzero"/><path fill="#ffffff" d="M225.41562 113.55655L223.8375 113.55655L223.8375 103.478424Q223.25937 104.0253 222.3375 104.572174Q221.41562 105.103424 220.66562 105.384674L220.66562 103.853424Q221.99374 103.228424 222.99374 102.3378Q223.99374 101.447174 224.4 100.61905L225.41562 100.61905L225.41562 113.55655ZM237.66562 103.822174L236.10312 103.947174Q235.88437 103.0253 235.49374 102.603424Q234.85312 101.915924 233.91562 101.915924Q233.16562 101.915924 232.5875 102.3378Q231.8375 102.884674 231.4 103.93155Q230.97812 104.978424 230.9625 106.915924Q231.54062 106.040924 232.35312 105.61905Q233.18124 105.197174 234.0875 105.197174Q235.68124 105.197174 236.79062 106.36905Q237.9 107.5253 237.9 109.36905Q237.9 110.5878 237.36874 111.634674Q236.85312 112.665924 235.93124 113.228424Q235.025 113.7753 233.86874 113.7753Q231.88437 113.7753 230.63437 112.322174Q229.38437 110.86905 229.38437 107.5253Q229.38437 103.790924 230.775 102.0878Q231.97812 100.61905 234.00937 100.61905Q235.54062 100.61905 236.50937 101.478424Q237.47812 102.322174 237.66562 103.822174ZM231.2125 109.384674Q231.2125 110.197174 231.55624 110.947174Q231.9 111.697174 232.525 112.0878Q233.15 112.478424 233.8375 112.478424Q234.8375 112.478424 235.55624 111.665924Q236.275 110.853424 236.275 109.4628Q236.275 108.134674 235.55624 107.36905Q234.85312 106.5878 233.775 106.5878Q232.69687 106.5878 231.94687 107.36905Q231.2125 108.134674 231.2125 109.384674ZM240.35312 113.55655L240.35312 111.759674L242.15 111.759674L242.15 113.55655L240.35312 113.55655ZM244.57187 102.353424L244.57187 100.8378L252.9 100.8378L252.9 102.072174Q251.68124 103.384674 250.4625 105.55655Q249.25937 107.7128 248.60312 110.009674Q248.11874 111.634674 247.99374 113.55655L246.36874 113.55655Q246.4 112.040924 246.9625 109.884674Q247.54062 107.728424 248.60312 105.728424Q249.66562 103.728424 250.86874 102.353424L244.57187 102.353424ZM254.75937 103.759674Q254.75937 102.384674 255.44687 101.415924Q256.15 100.447174 257.4625 100.447174Q258.68124 100.447174 259.47812 101.322174Q260.275 102.18155 260.275 103.86905Q260.275 105.49405 259.4625 106.384674Q258.66562 107.259674 257.47812 107.259674Q256.32187 107.259674 255.54062 106.4003Q254.75937 105.5253 254.75937 103.759674ZM257.50937 101.540924Q256.91562 101.540924 256.525 102.05655Q256.13437 102.55655 256.13437 103.915924Q256.13437 105.165924 256.525 105.665924Q256.93124 106.165924 257.50937 106.165924Q258.10312 106.165924 258.49374 105.665924Q258.88437 105.1503 258.88437 103.80655Q258.88437 102.55655 258.49374 102.05655Q258.10312 101.540924 257.50937 101.540924ZM257.525 114.0253L264.57187 100.447174L265.85312 100.447174L258.82187 114.0253L257.525 114.0253ZM263.0875 110.5253Q263.0875 109.1503 263.775 108.18155Q264.47812 107.2128 265.80624 107.2128Q267.025 107.2128 267.80624 108.0878Q268.60312 108.947174 268.60312 110.634674Q268.60312 112.259674 267.80624 113.1503Q267.00937 114.0253 265.82187 114.0253Q264.65 114.0253 263.86874 113.1503Q263.0875 112.2753 263.0875 110.5253ZM265.85312 108.30655Q265.25937 108.30655 264.86874 108.822174Q264.47812 109.322174 264.47812 110.697174Q264.47812 111.915924 264.86874 112.43155Q265.25937 112.947174 265.8375 112.947174Q266.44687 112.947174 266.8375 112.43155Q267.22812 111.915924 267.22812 110.572174Q267.22812 109.322174 266.8375 108.822174Q266.44687 108.30655 265.85312 108.30655Z" fill-rule="nonzero"/><path stroke="#ffffff" stroke-width="1.0" stroke-linejoin="round" stroke-linecap="round" d="M364.41785 166.49167C351.13055 143.47739 326.57462 129.3 300.0 129.3L300.0 54.916668C353.1492 54.916668 402.2611 83.27143 428.83572 129.3" fill-rule="nonzero"/><path stroke="#ffffff" stroke-width="1.0" stroke-linejoin="round" stroke-linecap="round" d="M364.41785 240.875C377.70517 217.86072 377.70517 189.50595 364.41785 166.49167L428.83572 129.3C455.4103 175.32857 455.4103 232.0381 428.83572 278.06668" fill-rule="nonzero"/><path stroke="#ffffff" stroke-width="1.0" stroke-linejoin="round" stroke-linecap="round" d="M235.58214 240.875C248.86945 263.88928 273.42538 278.06668 300.0 278.06668C326.57462 278.06668 351.13055 263.88928 364.41785 240.875L428.83572 278.06668C402.2611 324.09525 353.1492 352.45 300.0 352.45C246.85078 352.45 197.73889 324.09525 171.16429 278.06668" fill-rule="nonzero"/><path stroke="#ffffff" stroke-width="1.0" stroke-linejoin="round" stroke-linecap="round" d="M235.58214 166.49167C222.29485 189.50595 222.29485 217.86072 235.58214 240.875L171.16429 278.06668C144.58968 232.0381 144.58968 175.32857 171.16429 129.3" fill-rule="nonzero"/><path stroke="#ffffff" stroke-width="1.0" stroke-linejoin="round" stroke-linecap="round" d="M300.0 129.3C273.42538 129.3 248.86945 143.47739 235.58214 166.49167L171.16429 129.3C197.73889 83.27143 246.85078 54.916668 300.0 54.916668" fill-rule="nonzero"/><path fill="#efefef" d="M18.51875 75.789406L22.925 64.33628L24.565624 64.33628L29.253124 75.789406L27.51875 75.789406L26.190624 72.320656L21.39375 72.320656L20.14375 75.789406L18.51875 75.789406ZM21.83125 71.08628L25.721874 71.08628L24.51875 67.914406Q23.971874 66.46128 23.70625 65.539406Q23.4875 66.633156 23.096874 67.726906L21.83125 71.08628ZM30.596874 75.789406L30.596874 67.49253L31.8625 67.49253L31.8625 68.74253Q32.346874 67.86753 32.753124 67.58628Q33.159374 67.30503 33.659374 67.30503Q34.3625 67.30503 35.096874 67.758156L34.6125 69.05503Q34.096874 68.758156 33.58125 68.758156Q33.128124 68.758156 32.753124 69.039406Q32.39375 69.30503 32.2375 69.80503Q32.003124 70.55503 32.003124 71.445656L32.003124 75.789406L30.596874 75.789406ZM38.675 74.52378L38.878124 75.77378Q38.284374 75.89878 37.815624 75.89878Q37.05 75.89878 36.628124 75.664406Q36.20625 75.414406 36.034374 75.02378Q35.8625 74.61753 35.8625 73.351906L35.8625 68.58628L34.83125 68.58628L34.83125 67.49253L35.8625 67.49253L35.8625 65.43003L37.26875 64.58628L37.26875 67.49253L38.675 67.49253L38.675 68.58628L37.26875 68.58628L37.26875 73.43003Q37.26875 74.039406 37.33125 74.21128Q37.409374 74.383156 37.58125 74.49253Q37.753124 74.58628 38.065624 74.58628Q38.3 74.58628 38.675 74.52378ZM39.05 73.30503L40.440624 73.08628Q40.55 73.93003 41.08125 74.383156Q41.628124 74.820656 42.58125 74.820656Q43.55 74.820656 44.01875 74.43003Q44.4875 74.02378 44.4875 73.49253Q44.4875 73.02378 44.08125 72.74253Q43.784374 72.55503 42.64375 72.27378Q41.096874 71.883156 40.4875 71.601906Q39.89375 71.30503 39.58125 70.80503Q39.284374 70.30503 39.284374 69.695656Q39.284374 69.133156 39.534374 68.664406Q39.784374 68.195656 40.221874 67.883156Q40.55 67.633156 41.1125 67.476906Q41.690624 67.30503 42.33125 67.30503Q43.315624 67.30503 44.05 67.58628Q44.784374 67.86753 45.128124 68.351906Q45.4875 68.820656 45.628124 69.633156L44.253124 69.820656Q44.159374 69.18003 43.70625 68.820656Q43.253124 68.46128 42.440624 68.46128Q41.471874 68.46128 41.05 68.789406Q40.64375 69.101906 40.64375 69.52378Q40.64375 69.80503 40.815624 70.02378Q40.9875 70.24253 41.346874 70.39878Q41.565624 70.476906 42.596874 70.758156Q44.08125 71.14878 44.675 71.414406Q45.26875 71.664406 45.596874 72.14878Q45.940624 72.633156 45.940624 73.351906Q45.940624 74.05503 45.51875 74.68003Q45.1125 75.289406 44.33125 75.633156Q43.565624 75.976906 42.596874 75.976906Q40.971874 75.976906 40.128124 75.30503Q39.284374 74.633156 39.05 73.30503ZM58.159374 74.43003Q57.45625 75.21128 56.628124 75.601906Q55.815624 75.99253 54.8625 75.99253Q53.1125 75.99253 52.08125 74.789406Q51.2375 73.820656 51.2375 72.633156Q51.2375 71.570656 51.925 70.71128Q52.6125 69.851906 53.971874 69.21128Q53.190624 68.320656 52.925 67.77378Q52.675 67.21128 52.675 66.695656Q52.675 65.664406 53.4875 64.89878Q54.3 64.133156 55.51875 64.133156Q56.690624 64.133156 57.440624 64.851906Q58.190624 65.570656 58.190624 66.58628Q58.190624 68.21128 56.01875 69.36753L58.08125 71.99253Q58.425 71.30503 58.628124 70.39878L60.08125 70.71128Q59.70625 72.21128 59.065624 73.18003Q59.8625 74.226906 60.8625 74.93003L59.909374 76.05503Q59.065624 75.508156 58.159374 74.43003ZM55.3 68.46128Q56.20625 67.93003 56.471874 67.52378Q56.753124 67.11753 56.753124 66.61753Q56.753124 66.039406 56.378124 65.664406Q56.003124 65.289406 55.45625 65.289406Q54.878124 65.289406 54.503124 65.664406Q54.128124 66.02378 54.128124 66.55503Q54.128124 66.820656 54.253124 67.11753Q54.39375 67.414406 54.675 67.74253L55.3 68.46128ZM57.26875 73.320656L54.690624 70.133156Q53.55 70.80503 53.14375 71.39878Q52.753124 71.976906 52.753124 72.539406Q52.753124 73.24253 53.3 73.99253Q53.8625 74.74253 54.878124 74.74253Q55.51875 74.74253 56.190624 74.351906Q56.8625 73.945656 57.26875 73.320656ZM65.51875 75.789406L69.925 64.33628L71.56563 64.33628L76.25313 75.789406L74.51875 75.789406L73.19063 72.320656L68.39375 72.320656L67.14375 75.789406L65.51875 75.789406ZM68.83125 71.08628L72.72188 71.08628L71.51875 67.914406Q70.97188 66.46128 70.70625 65.539406Q70.4875 66.633156 70.09688 67.726906L68.83125 71.08628ZM77.6125 75.789406L77.6125 67.49253L78.87813 67.49253L78.87813 68.664406Q79.78438 67.30503 81.51875 67.30503Q82.26875 67.30503 82.89375 67.570656Q83.51875 67.83628 83.83125 68.27378Q84.14375 68.71128 84.26875 69.320656Q84.34688 69.71128 84.34688 70.68003L84.34688 75.789406L82.94063 75.789406L82.94063 70.74253Q82.94063 69.883156 82.76875 69.46128Q82.6125 69.02378 82.19063 68.77378Q81.78438 68.52378 81.22188 68.52378Q80.31563 68.52378 79.65938 69.101906Q79.01875 69.664406 79.01875 71.258156L79.01875 75.789406L77.6125 75.789406ZM89.675 74.52378L89.87813 75.77378Q89.28438 75.89878 88.81563 75.89878Q88.05 75.89878 87.62813 75.664406Q87.20625 75.414406 87.03438 75.02378Q86.8625 74.61753 86.8625 73.351906L86.8625 68.58628L85.83125 68.58628L85.83125 67.49253L86.8625 67.49253L86.8625 65.43003L88.26875 64.58628L88.26875 67.49253L89.675 67.49253L89.675 68.58628L88.26875 68.58628L88.26875 73.43003Q88.26875 74.039406 88.33125 74.21128Q88.40938 74.383156 88.58125 74.49253Q88.75313 74.58628 89.06563 74.58628Q89.3 74.58628 89.675 74.52378ZM90.6125 65.945656L90.6125 64.33628L92.01875 64.33628L92.01875 65.945656L90.6125 65.945656ZM90.6125 75.789406L90.6125 67.49253L92.01875 67.49253L92.01875 75.789406L90.6125 75.789406ZM99.89375 78.976906L99.89375 74.89878Q99.56563 75.36753 98.97188 75.68003Q98.39375 75.976906 97.72188 75.976906Q96.25313 75.976906 95.175 74.80503Q94.1125 73.61753 94.1125 71.55503Q94.1125 70.30503 94.55 69.320656Q94.9875 68.320656 95.8 67.820656Q96.62813 67.30503 97.6125 67.30503Q99.15938 67.30503 100.03438 68.601906L100.03438 67.49253L101.3 67.49253L101.3 78.976906L99.89375 78.976906ZM95.56563 71.61753Q95.56563 73.21128 96.2375 74.02378Q96.90938 74.820656 97.84688 74.820656Q98.7375 74.820656 99.37813 74.05503Q100.03438 73.289406 100.03438 71.74253Q100.03438 70.08628 99.34688 69.258156Q98.675 68.414406 97.75313 68.414406Q96.83125 68.414406 96.19063 69.195656Q95.56563 69.96128 95.56563 71.61753ZM109.05 75.789406L109.05 74.570656Q108.08125 75.976906 106.40938 75.976906Q105.675 75.976906 105.03438 75.695656Q104.40938 75.414406 104.09688 74.99253Q103.78438 74.55503 103.65938 73.945656Q103.58125 73.52378 103.58125 72.633156L103.58125 67.49253L104.9875 67.49253L104.9875 72.08628Q104.9875 73.195656 105.06563 73.570656Q105.20625 74.133156 105.62813 74.445656Q106.06563 74.758156 106.69063 74.758156Q107.33125 74.758156 107.87813 74.445656Q108.44063 74.11753 108.65938 73.55503Q108.89375 72.99253 108.89375 71.93003L108.89375 67.49253L110.3 67.49253L110.3 75.789406L109.05 75.789406ZM112.6125 65.945656L112.6125 64.33628L114.01875 64.33628L114.01875 65.945656L112.6125 65.945656ZM112.6125 75.789406L112.6125 67.49253L114.01875 67.49253L114.01875 75.789406L112.6125 75.789406ZM119.675 74.52378L119.87813 75.77378Q119.28438 75.89878 118.81563 75.89878Q118.05 75.89878 117.62813 75.664406Q117.20625 75.414406 117.03438 75.02378Q116.8625 74.61753 116.8625 73.351906L116.8625 68.58628L115.83125 68.58628L115.83125 67.49253L116.8625 67.49253L116.8625 65.43003L118.26875 64.58628L118.26875 67.49253L119.675 67.49253L119.675 68.58628L118.26875 68.58628L118.26875 73.43003Q118.26875 74.039406 118.33125 74.21128Q118.40938 74.383156 118.58125 74.49253Q118.75313 74.58628 119.06563 74.58628Q119.3 74.58628 119.675 74.52378ZM120.6125 65.945656L120.6125 64.33628L122.01875 64.33628L122.01875 65.945656L120.6125 65.945656ZM120.6125 75.789406L120.6125 67.49253L122.01875 67.49253L122.01875 75.789406L120.6125 75.789406ZM130.28438 73.11753L131.7375 73.289406Q131.39375 74.570656 130.45625 75.27378Q129.53438 75.976906 128.09688 75.976906Q126.26875 75.976906 125.20625 74.851906Q124.14375 73.726906 124.14375 71.71128Q124.14375 69.61753 125.22188 68.46128Q126.3 67.30503 128.01875 67.30503Q129.675 67.30503 130.72188 68.445656Q131.78438 69.570656 131.78438 71.61753Q131.78438 71.74253 131.78438 71.99253L125.59688 71.99253Q125.675 73.36753 126.3625 74.101906Q127.06563 74.820656 128.09688 74.820656Q128.87813 74.820656 129.425 74.414406Q129.97188 74.008156 130.28438 73.11753ZM125.675 70.83628L130.3 70.83628Q130.20625 69.789406 129.76875 69.27378Q129.09688 68.46128 128.03438 68.46128Q127.06563 68.46128 126.39375 69.11753Q125.7375 69.758156 125.675 70.83628ZM133.05 73.30503L134.44063 73.08628Q134.55 73.93003 135.08125 74.383156Q135.62813 74.820656 136.58125 74.820656Q137.55 74.820656 138.01875 74.43003Q138.4875 74.02378 138.4875 73.49253Q138.4875 73.02378 138.08125 72.74253Q137.78438 72.55503 136.64375 72.27378Q135.09688 71.883156 134.4875 71.601906Q133.89375 71.30503 133.58125 70.80503Q133.28438 70.30503 133.28438 69.695656Q133.28438 69.133156 133.53438 68.664406Q133.78438 68.195656 134.22188 67.883156Q134.55 67.633156 135.1125 67.476906Q135.69063 67.30503 136.33125 67.30503Q137.31563 67.30503 138.05 67.58628Q138.78438 67.86753 139.12813 68.351906Q139.4875 68.820656 139.62813 69.633156L138.25313 69.820656Q138.15938 69.18003 137.70625 68.820656Q137.25313 68.46128 136.44063 68.46128Q135.47188 68.46128 135.05 68.789406Q134.64375 69.101906 134.64375 69.52378Q134.64375 69.80503 134.81563 70.02378Q134.9875 70.24253 135.34688 70.39878Q135.56563 70.476906 136.59688 70.758156Q138.08125 71.14878 138.675 71.414406Q139.26875 71.664406 139.59688 72.14878Q139.94063 72.633156 139.94063 73.351906Q139.94063 74.05503 139.51875 74.68003Q139.1125 75.289406 138.33125 75.633156Q137.56563 75.976906 136.59688 75.976906Q134.97188 75.976906 134.12813 75.30503Q133.28438 74.633156 133.05 73.30503Z" fill-rule="nonzero"/><path fill="#9e9e9e" d="M24.51875 97.789406L23.1125 97.789406L23.1125 88.820656Q22.596874 89.30503 21.76875 89.789406Q20.95625 90.27378 20.3 90.52378L20.3 89.164406Q21.471874 88.601906 22.346874 87.820656Q23.2375 87.02378 23.6125 86.289406L24.51875 86.289406L24.51875 97.789406ZM35.51875 89.133156L34.1125 89.24253Q33.925 88.414406 33.58125 88.039406Q33.01875 87.445656 32.175 87.445656Q31.503124 87.445656 31.003124 87.820656Q30.33125 88.30503 29.940624 89.24253Q29.565624 90.164406 29.55 91.883156Q30.065624 91.101906 30.8 90.726906Q31.534374 90.351906 32.33125 90.351906Q33.7375 90.351906 34.721874 91.39878Q35.721874 92.43003 35.721874 94.070656Q35.721874 95.14878 35.253124 96.070656Q34.784374 96.99253 33.971874 97.49253Q33.159374 97.99253 32.128124 97.99253Q30.378124 97.99253 29.26875 96.695656Q28.159374 95.39878 28.159374 92.43003Q28.159374 89.101906 29.378124 87.601906Q30.45625 86.289406 32.26875 86.289406Q33.6125 86.289406 34.471874 87.05503Q35.346874 87.80503 35.51875 89.133156ZM29.76875 94.070656Q29.76875 94.80503 30.08125 95.476906Q30.39375 96.133156 30.940624 96.476906Q31.503124 96.820656 32.1125 96.820656Q33.003124 96.820656 33.64375 96.101906Q34.284374 95.383156 34.284374 94.14878Q34.284374 92.96128 33.64375 92.289406Q33.01875 91.601906 32.05 91.601906Q31.096874 91.601906 30.425 92.289406Q29.76875 92.96128 29.76875 94.070656ZM38.003124 97.789406L38.003124 96.18003L39.6125 96.18003L39.6125 97.789406L38.003124 97.789406ZM41.315624 87.83628L41.315624 86.476906L48.721874 86.476906L48.721874 87.570656Q47.628124 88.74253 46.55 90.68003Q45.4875 92.601906 44.89375 94.633156Q44.471874 96.070656 44.3625 97.789406L42.909374 97.789406Q42.940624 96.43003 43.440624 94.52378Q43.95625 92.601906 44.89375 90.83628Q45.846874 89.05503 46.925 87.83628L41.315624 87.83628ZM50.4875 89.08628Q50.4875 87.851906 51.096874 86.99253Q51.721874 86.133156 52.89375 86.133156Q53.971874 86.133156 54.675 86.914406Q55.378124 87.68003 55.378124 89.164406Q55.378124 90.61753 54.659374 91.414406Q53.95625 92.195656 52.909374 92.195656Q51.8625 92.195656 51.175 91.43003Q50.4875 90.64878 50.4875 89.08628ZM52.925 87.101906Q52.409374 87.101906 52.05 87.55503Q51.70625 88.008156 51.70625 89.226906Q51.70625 90.320656 52.05 90.77378Q52.409374 91.226906 52.925 91.226906Q53.45625 91.226906 53.8 90.77378Q54.159374 90.320656 54.159374 89.11753Q54.159374 88.008156 53.8 87.55503Q53.45625 87.101906 52.925 87.101906ZM52.940624 98.21128L59.20625 86.133156L60.346874 86.133156L54.096874 98.21128L52.940624 98.21128ZM57.89375 95.101906Q57.89375 93.86753 58.503124 93.008156Q59.128124 92.14878 60.3 92.14878Q61.378124 92.14878 62.08125 92.93003Q62.8 93.695656 62.8 95.18003Q62.8 96.633156 62.08125 97.43003Q61.3625 98.21128 60.315624 98.21128Q59.26875 98.21128 58.58125 97.43003Q57.89375 96.64878 57.89375 95.101906ZM60.346874 93.11753Q59.815624 93.11753 59.45625 93.570656Q59.1125 94.02378 59.1125 95.24253Q59.1125 96.33628 59.45625 96.789406Q59.815624 97.24253 60.33125 97.24253Q60.878124 97.24253 61.221874 96.789406Q61.565624 96.33628 61.565624 95.133156Q61.565624 94.02378 61.20625 93.570656Q60.8625 93.11753 60.346874 93.11753Z" fill-rule="nonzero"/><path stroke="#757575" stroke-width="1.0" stroke-linecap="butt" d="M18.55 81.289406L145.23334 81.289406L229.33583 81.289406" fill-rule="nonzero"/><path fill="#9e9e9e" d="M231.33583 81.289406C231.33583 80.18484 230.4404 79.289406 229.33583 79.289406C228.23126 79.289406 227.33583 80.18484 227.33583 81.289406C227.33583 82.393974 228.23126 83.289406 229.33583 83.289406C230.4404 83.289406 231.33583 82.393974 231.33583 81.289406" fill-rule="nonzero"/><path fill="#efefef" d="M19.76875 198.18333L19.76875 186.73021L21.33125 186.73021L27.346874 195.71458L27.346874 186.73021L28.8 186.73021L28.8 198.18333L27.2375 198.18333L21.221874 189.18333L21.221874 198.18333L19.76875 198.18333ZM37.01875 197.15208Q36.2375 197.82396 35.51875 198.10521Q34.8 198.37083 33.971874 198.37083Q32.596874 198.37083 31.8625 197.69896Q31.128124 197.02708 31.128124 195.99583Q31.128124 195.38646 31.409374 194.88646Q31.690624 194.37083 32.128124 194.07396Q32.58125 193.76146 33.14375 193.60521Q33.565624 193.49583 34.39375 193.40208Q36.096874 193.19896 36.909374 192.91771Q36.909374 192.62083 36.909374 192.54271Q36.909374 191.68333 36.51875 191.33958Q35.971874 190.85521 34.909374 190.85521Q33.925 190.85521 33.440624 191.21458Q32.971874 191.55833 32.753124 192.43333L31.378124 192.24583Q31.565624 191.37083 31.9875 190.82396Q32.425 190.27708 33.2375 189.99583Q34.05 189.69896 35.1125 189.69896Q36.175 189.69896 36.83125 189.94896Q37.503124 190.19896 37.815624 190.57396Q38.128124 190.94896 38.253124 191.52708Q38.33125 191.88646 38.33125 192.82396L38.33125 194.69896Q38.33125 196.66771 38.409374 197.18333Q38.503124 197.69896 38.76875 198.18333L37.3 198.18333Q37.08125 197.74583 37.01875 197.15208ZM36.909374 194.01146Q36.14375 194.32396 34.6125 194.54271Q33.7375 194.66771 33.378124 194.82396Q33.01875 194.98021 32.815624 195.29271Q32.628124 195.58958 32.628124 195.94896Q32.628124 196.51146 33.05 196.88646Q33.4875 197.26146 34.3 197.26146Q35.1125 197.26146 35.7375 196.91771Q36.378124 196.55833 36.675 195.93333Q36.909374 195.46458 36.909374 194.52708L36.909374 194.01146ZM43.675 196.91771L43.878124 198.16771Q43.284374 198.29271 42.815624 198.29271Q42.05 198.29271 41.628124 198.05833Q41.20625 197.80833 41.034374 197.41771Q40.8625 197.01146 40.8625 195.74583L40.8625 190.98021L39.83125 190.98021L39.83125 189.88646L40.8625 189.88646L40.8625 187.82396L42.26875 186.98021L42.26875 189.88646L43.675 189.88646L43.675 190.98021L42.26875 190.98021L42.26875 195.82396Q42.26875 196.43333 42.33125 196.60521Q42.409374 196.77708 42.58125 196.88646Q42.753124 196.98021 43.065624 196.98021Q43.3 196.98021 43.675 196.91771ZM50.05 198.18333L50.05 196.96458Q49.08125 198.37083 47.409374 198.37083Q46.675 198.37083 46.034374 198.08958Q45.409374 197.80833 45.096874 197.38646Q44.784374 196.94896 44.659374 196.33958Q44.58125 195.91771 44.58125 195.02708L44.58125 189.88646L45.9875 189.88646L45.9875 194.48021Q45.9875 195.58958 46.065624 195.96458Q46.20625 196.52708 46.628124 196.83958Q47.065624 197.15208 47.690624 197.15208Q48.33125 197.15208 48.878124 196.83958Q49.440624 196.51146 49.659374 195.94896Q49.89375 195.38646 49.89375 194.32396L49.89375 189.88646L51.3 189.88646L51.3 198.18333L50.05 198.18333ZM53.596874 198.18333L53.596874 189.88646L54.8625 189.88646L54.8625 191.13646Q55.346874 190.26146 55.753124 189.98021Q56.159374 189.69896 56.659374 189.69896Q57.3625 189.69896 58.096874 190.15208L57.6125 191.44896Q57.096874 191.15208 56.58125 191.15208Q56.128124 191.15208 55.753124 191.43333Q55.39375 191.69896 55.2375 192.19896Q55.003124 192.94896 55.003124 193.83958L55.003124 198.18333L53.596874 198.18333ZM64.01875 197.15208Q63.2375 197.82396 62.51875 198.10521Q61.8 198.37083 60.971874 198.37083Q59.596874 198.37083 58.8625 197.69896Q58.128124 197.02708 58.128124 195.99583Q58.128124 195.38646 58.409374 194.88646Q58.690624 194.37083 59.128124 194.07396Q59.58125 193.76146 60.14375 193.60521Q60.565624 193.49583 61.39375 193.40208Q63.096874 193.19896 63.909374 192.91771Q63.909374 192.62083 63.909374 192.54271Q63.909374 191.68333 63.51875 191.33958Q62.971874 190.85521 61.909374 190.85521Q60.925 190.85521 60.440624 191.21458Q59.971874 191.55833 59.753124 192.43333L58.378124 192.24583Q58.565624 191.37083 58.9875 190.82396Q59.425 190.27708 60.2375 189.99583Q61.05 189.69896 62.1125 189.69896Q63.175 189.69896 63.83125 189.94896Q64.50313 190.19896 64.81563 190.57396Q65.12813 190.94896 65.25313 191.52708Q65.33125 191.88646 65.33125 192.82396L65.33125 194.69896Q65.33125 196.66771 65.40938 197.18333Q65.50313 197.69896 65.76875 198.18333L64.3 198.18333Q64.08125 197.74583 64.01875 197.15208ZM63.909374 194.01146Q63.14375 194.32396 61.6125 194.54271Q60.7375 194.66771 60.378124 194.82396Q60.01875 194.98021 59.815624 195.29271Q59.628124 195.58958 59.628124 195.94896Q59.628124 196.51146 60.05 196.88646Q60.4875 197.26146 61.3 197.26146Q62.1125 197.26146 62.7375 196.91771Q63.378124 196.55833 63.675 195.93333Q63.909374 195.46458 63.909374 194.52708L63.909374 194.01146ZM67.58125 198.18333L67.58125 186.73021L68.9875 186.73021L68.9875 198.18333L67.58125 198.18333Z" fill-rule="nonzero"/><path fill="#9e9e9e" d="M24.51875 220.18333L23.1125 220.18333L23.1125 211.21458Q22.596874 211.69896 21.76875 212.18333Q20.95625 212.66771 20.3 212.91771L20.3 211.55833Q21.471874 210.99583 22.346874 210.21458Q23.2375 209.41771 23.6125 208.68333L24.51875 208.68333L24.51875 220.18333ZM35.51875 211.52708L34.1125 211.63646Q33.925 210.80833 33.58125 210.43333Q33.01875 209.83958 32.175 209.83958Q31.503124 209.83958 31.003124 210.21458Q30.33125 210.69896 29.940624 211.63646Q29.565624 212.55833 29.55 214.27708Q30.065624 213.49583 30.8 213.12083Q31.534374 212.74583 32.33125 212.74583Q33.7375 212.74583 34.721874 213.79271Q35.721874 214.82396 35.721874 216.46458Q35.721874 217.54271 35.253124 218.46458Q34.784374 219.38646 33.971874 219.88646Q33.159374 220.38646 32.128124 220.38646Q30.378124 220.38646 29.26875 219.08958Q28.159374 217.79271 28.159374 214.82396Q28.159374 211.49583 29.378124 209.99583Q30.45625 208.68333 32.26875 208.68333Q33.6125 208.68333 34.471874 209.44896Q35.346874 210.19896 35.51875 211.52708ZM29.76875 216.46458Q29.76875 217.19896 30.08125 217.87083Q30.39375 218.52708 30.940624 218.87083Q31.503124 219.21458 32.1125 219.21458Q33.003124 219.21458 33.64375 218.49583Q34.284374 217.77708 34.284374 216.54271Q34.284374 215.35521 33.64375 214.68333Q33.01875 213.99583 32.05 213.99583Q31.096874 213.99583 30.425 214.68333Q29.76875 215.35521 29.76875 216.46458ZM38.003124 220.18333L38.003124 218.57396L39.6125 218.57396L39.6125 220.18333L38.003124 220.18333ZM41.315624 210.23021L41.315624 208.87083L48.721874 208.87083L48.721874 209.96458Q47.628124 211.13646 46.55 213.07396Q45.4875 214.99583 44.89375 217.02708Q44.471874 218.46458 44.3625 220.18333L42.909374 220.18333Q42.940624 218.82396 43.440624 216.91771Q43.95625 214.99583 44.89375 213.23021Q45.846874 211.44896 46.925 210.23021L41.315624 210.23021ZM50.4875 211.48021Q50.4875 210.24583 51.096874 209.38646Q51.721874 208.52708 52.89375 208.52708Q53.971874 208.52708 54.675 209.30833Q55.378124 210.07396 55.378124 211.55833Q55.378124 213.01146 54.659374 213.80833Q53.95625 214.58958 52.909374 214.58958Q51.8625 214.58958 51.175 213.82396Q50.4875 213.04271 50.4875 211.48021ZM52.925 209.49583Q52.409374 209.49583 52.05 209.94896Q51.70625 210.40208 51.70625 211.62083Q51.70625 212.71458 52.05 213.16771Q52.409374 213.62083 52.925 213.62083Q53.45625 213.62083 53.8 213.16771Q54.159374 212.71458 54.159374 211.51146Q54.159374 210.40208 53.8 209.94896Q53.45625 209.49583 52.925 209.49583ZM52.940624 220.60521L59.20625 208.52708L60.346874 208.52708L54.096874 220.60521L52.940624 220.60521ZM57.89375 217.49583Q57.89375 216.26146 58.503124 215.40208Q59.128124 214.54271 60.3 214.54271Q61.378124 214.54271 62.08125 215.32396Q62.8 216.08958 62.8 217.57396Q62.8 219.02708 62.08125 219.82396Q61.3625 220.60521 60.315624 220.60521Q59.26875 220.60521 58.58125 219.82396Q57.89375 219.04271 57.89375 217.49583ZM60.346874 215.51146Q59.815624 215.51146 59.45625 215.96458Q59.1125 216.41771 59.1125 217.63646Q59.1125 218.73021 59.45625 219.18333Q59.815624 219.63646 60.33125 219.63646Q60.878124 219.63646 61.221874 219.18333Q61.565624 218.73021 61.565624 217.52708Q61.565624 216.41771 61.20625 215.96458Q60.8625 215.51146 60.346874 215.51146Z" fill-rule="nonzero"/><path stroke="#757575" stroke-width="1.0" stroke-linecap="butt" d="M18.55 203.68333L145.23334 203.68333L158.67166 203.68333" fill-rule="nonzero"/><path fill="#9e9e9e" d="M160.67166 203.68333C160.67166 202.57877 159.77623 201.68333 158.67166 201.68333C157.5671 201.68333 156.67166 202.57877 156.67166 203.68333C156.67166 204.7879 157.5671 205.68333 158.67166 205.68333C159.77623 205.68333 160.67166 204.7879 160.67166 203.68333" fill-rule="nonzero"/><path fill="#efefef" d="M509.6375 75.789406L509.6375 64.33628L511.91876 64.33628L514.6375 72.445656Q515.0125 73.570656 515.1844 74.133156Q515.3719 73.508156 515.79376 72.30503L518.52814 64.33628L520.575 64.33628L520.575 75.789406L519.10626 75.789406L519.10626 66.195656L515.77814 75.789406L514.41876 75.789406L511.10626 66.039406L511.10626 75.789406L509.6375 75.789406ZM522.45 78.99253L522.29376 77.664406Q522.7469 77.789406 523.09064 77.789406Q523.5594 77.789406 523.84064 77.633156Q524.1219 77.476906 524.3094 77.195656Q524.4344 76.99253 524.73126 76.14878Q524.77814 76.039406 524.85626 75.80503L521.71564 67.49253L523.23126 67.49253L524.95 72.289406Q525.29376 73.21128 525.5594 74.21128Q525.79376 73.24253 526.1375 72.320656L527.90314 67.49253L529.3094 67.49253L526.15314 75.93003Q525.65314 77.30503 525.3719 77.820656Q524.9969 78.508156 524.5125 78.83628Q524.02814 79.164406 523.35626 79.164406Q522.95 79.164406 522.45 78.99253ZM533.575 74.52378L533.77814 75.77378Q533.1844 75.89878 532.71564 75.89878Q531.95 75.89878 531.52814 75.664406Q531.10626 75.414406 530.9344 75.02378Q530.7625 74.61753 530.7625 73.351906L530.7625 68.58628L529.73126 68.58628L529.73126 67.49253L530.7625 67.49253L530.7625 65.43003L532.16876 64.58628L532.16876 67.49253L533.575 67.49253L533.575 68.58628L532.16876 68.58628L532.16876 73.43003Q532.16876 74.039406 532.23126 74.21128Q532.3094 74.383156 532.48126 74.49253Q532.65314 74.58628 532.96564 74.58628Q533.2 74.58628 533.575 74.52378ZM534.5125 75.789406L534.5125 64.33628L535.91876 64.33628L535.91876 68.445656Q536.90314 67.30503 538.40314 67.30503Q539.325 67.30503 539.9969 67.664406Q540.6844 68.02378 540.96564 68.664406Q541.2625 69.30503 541.2625 70.52378L541.2625 75.789406L539.85626 75.789406L539.85626 70.52378Q539.85626 69.476906 539.40314 68.99253Q538.95 68.508156 538.10626 68.508156Q537.48126 68.508156 536.9344 68.83628Q536.3875 69.164406 536.15314 69.726906Q535.91876 70.27378 535.91876 71.24253L535.91876 75.789406L534.5125 75.789406ZM542.98126 71.633156Q542.98126 69.33628 544.2625 68.226906Q545.34064 67.30503 546.8719 67.30503Q548.59064 67.30503 549.66876 68.43003Q550.7625 69.539406 550.7625 71.52378Q550.7625 73.11753 550.27814 74.039406Q549.79376 74.96128 548.8719 75.476906Q547.96564 75.976906 546.8719 75.976906Q545.1375 75.976906 544.0594 74.86753Q542.98126 73.74253 542.98126 71.633156ZM544.4344 71.633156Q544.4344 73.226906 545.1219 74.02378Q545.825 74.820656 546.8719 74.820656Q547.91876 74.820656 548.60626 74.02378Q549.3094 73.226906 549.3094 71.58628Q549.3094 70.05503 548.60626 69.258156Q547.91876 68.46128 546.8719 68.46128Q545.825 68.46128 545.1219 69.258156Q544.4344 70.039406 544.4344 71.633156ZM552.48126 75.789406L552.48126 64.33628L553.8875 64.33628L553.8875 75.789406L552.48126 75.789406ZM555.98126 71.633156Q555.98126 69.33628 557.2625 68.226906Q558.34064 67.30503 559.8719 67.30503Q561.59064 67.30503 562.66876 68.43003Q563.7625 69.539406 563.7625 71.52378Q563.7625 73.11753 563.27814 74.039406Q562.79376 74.96128 561.8719 75.476906Q560.96564 75.976906 559.8719 75.976906Q558.1375 75.976906 557.0594 74.86753Q555.98126 73.74253 555.98126 71.633156ZM557.4344 71.633156Q557.4344 73.226906 558.1219 74.02378Q558.825 74.820656 559.8719 74.820656Q560.91876 74.820656 561.60626 74.02378Q562.3094 73.226906 562.3094 71.58628Q562.3094 70.05503 561.60626 69.258156Q560.91876 68.46128 559.8719 68.46128Q558.825 68.46128 558.1219 69.258156Q557.4344 70.039406 557.4344 71.633156ZM565.2469 76.476906L566.6219 76.68003Q566.7 77.320656 567.09064 77.601906Q567.6219 77.99253 568.52814 77.99253Q569.4969 77.99253 570.02814 77.601906Q570.5594 77.21128 570.7469 76.508156Q570.85626 76.08628 570.85626 74.695656Q569.9344 75.789406 568.5594 75.789406Q566.84064 75.789406 565.90314 74.55503Q564.96564 73.320656 564.96564 71.58628Q564.96564 70.39878 565.3875 69.39878Q565.825 68.39878 566.6375 67.851906Q567.46564 67.30503 568.5594 67.30503Q570.02814 67.30503 570.98126 68.49253L570.98126 67.49253L572.27814 67.49253L572.27814 74.664406Q572.27814 76.601906 571.8875 77.414406Q571.4969 78.226906 570.6375 78.695656Q569.77814 79.164406 568.52814 79.164406Q567.04376 79.164406 566.1219 78.49253Q565.21564 77.820656 565.2469 76.476906ZM566.41876 71.49253Q566.41876 73.11753 567.0594 73.86753Q567.71564 74.61753 568.6844 74.61753Q569.65314 74.61753 570.3094 73.883156Q570.96564 73.133156 570.96564 71.539406Q570.96564 70.008156 570.29376 69.24253Q569.6219 68.46128 568.66876 68.46128Q567.73126 68.46128 567.075 69.226906Q566.41876 69.99253 566.41876 71.49253ZM574.45 78.99253L574.29376 77.664406Q574.7469 77.789406 575.09064 77.789406Q575.5594 77.789406 575.84064 77.633156Q576.1219 77.476906 576.3094 77.195656Q576.4344 76.99253 576.73126 76.14878Q576.77814 76.039406 576.85626 75.80503L573.71564 67.49253L575.23126 67.49253L576.95 72.289406Q577.29376 73.21128 577.5594 74.21128Q577.79376 73.24253 578.1375 72.320656L579.90314 67.49253L581.3094 67.49253L578.15314 75.93003Q577.65314 77.30503 577.3719 77.820656Q576.9969 78.508156 576.5125 78.83628Q576.02814 79.164406 575.35626 79.164406Q574.95 79.164406 574.45 78.99253Z" fill-rule="nonzero"/><path fill="#9e9e9e" d="M542.41876 97.789406L541.0125 97.789406L541.0125 88.820656Q540.4969 89.30503 539.66876 89.789406Q538.85626 90.27378 538.2 90.52378L538.2 89.164406Q539.3719 88.601906 540.2469 87.820656Q541.1375 87.02378 541.5125 86.289406L542.41876 86.289406L542.41876 97.789406ZM553.41876 89.133156L552.0125 89.24253Q551.825 88.414406 551.48126 88.039406Q550.91876 87.445656 550.075 87.445656Q549.40314 87.445656 548.90314 87.820656Q548.23126 88.30503 547.84064 89.24253Q547.46564 90.164406 547.45 91.883156Q547.96564 91.101906 548.7 90.726906Q549.4344 90.351906 550.23126 90.351906Q551.6375 90.351906 552.6219 91.39878Q553.6219 92.43003 553.6219 94.070656Q553.6219 95.14878 553.15314 96.070656Q552.6844 96.99253 551.8719 97.49253Q551.0594 97.99253 550.02814 97.99253Q548.27814 97.99253 547.16876 96.695656Q546.0594 95.39878 546.0594 92.43003Q546.0594 89.101906 547.27814 87.601906Q548.35626 86.289406 550.16876 86.289406Q551.5125 86.289406 552.3719 87.05503Q553.2469 87.80503 553.41876 89.133156ZM547.66876 94.070656Q547.66876 94.80503 547.98126 95.476906Q548.29376 96.133156 548.84064 96.476906Q549.40314 96.820656 550.0125 96.820656Q550.90314 96.820656 551.54376 96.101906Q552.1844 95.383156 552.1844 94.14878Q552.1844 92.96128 551.54376 92.289406Q550.91876 91.601906 549.95 91.601906Q548.9969 91.601906 548.325 92.289406Q547.66876 92.96128 547.66876 94.070656ZM555.90314 97.789406L555.90314 96.18003L557.5125 96.18003L557.5125 97.789406L555.90314 97.789406ZM559.21564 87.83628L559.21564 86.476906L566.6219 86.476906L566.6219 87.570656Q565.52814 88.74253 564.45 90.68003Q563.3875 92.601906 562.79376 94.633156Q562.3719 96.070656 562.2625 97.789406L560.8094 97.789406Q560.84064 96.43003 561.34064 94.52378Q561.85626 92.601906 562.79376 90.83628Q563.7469 89.05503 564.825 87.83628L559.21564 87.83628ZM568.3875 89.08628Q568.3875 87.851906 568.9969 86.99253Q569.6219 86.133156 570.79376 86.133156Q571.8719 86.133156 572.575 86.914406Q573.27814 87.68003 573.27814 89.164406Q573.27814 90.61753 572.5594 91.414406Q571.85626 92.195656 570.8094 92.195656Q569.7625 92.195656 569.075 91.43003Q568.3875 90.64878 568.3875 89.08628ZM570.825 87.101906Q570.3094 87.101906 569.95 87.55503Q569.60626 88.008156 569.60626 89.226906Q569.60626 90.320656 569.95 90.77378Q570.3094 91.226906 570.825 91.226906Q571.35626 91.226906 571.7 90.77378Q572.0594 90.320656 572.0594 89.11753Q572.0594 88.008156 571.7 87.55503Q571.35626 87.101906 570.825 87.101906ZM570.84064 98.21128L577.10626 86.133156L578.2469 86.133156L571.9969 98.21128L570.84064 98.21128ZM575.79376 95.101906Q575.79376 93.86753 576.40314 93.008156Q577.02814 92.14878 578.2 92.14878Q579.27814 92.14878 579.98126 92.93003Q580.7 93.695656 580.7 95.18003Q580.7 96.633156 579.98126 97.43003Q579.2625 98.21128 578.21564 98.21128Q577.16876 98.21128 576.48126 97.43003Q575.79376 96.64878 575.79376 95.101906ZM578.2469 93.11753Q577.71564 93.11753 577.35626 93.570656Q577.0125 94.02378 577.0125 95.24253Q577.0125 96.33628 577.35626 96.789406Q577.71564 97.24253 578.23126 97.24253Q578.77814 97.24253 579.1219 96.789406Q579.46564 96.33628 579.46564 95.133156Q579.46564 94.02378 579.10626 93.570656Q578.7625 93.11753 578.2469 93.11753Z" fill-rule="nonzero"/><path stroke="#757575" stroke-width="1.0" stroke-linecap="butt" d="M581.45 81.289406L454.76666 81.289406L370.66415 81.289406" fill-rule="nonzero"/><path fill="#9e9e9e" d="M372.66415 81.289406C372.66415 80.18484 371.76874 79.289406 370.66415 79.289406C369.5596 79.289406 368.66415 80.18484 368.66415 81.289406C368.66415 82.393974 369.5596 83.289406 370.66415 83.289406C371.76874 83.289406 372.66415 82.393974 372.66415 81.289406" fill-rule="nonzero"/><path fill="#efefef" d="M531.6375 198.18333L531.6375 186.73021L533.91876 186.73021L536.6375 194.83958Q537.0125 195.96458 537.1844 196.52708Q537.3719 195.90208 537.79376 194.69896L540.52814 186.73021L542.575 186.73021L542.575 198.18333L541.10626 198.18333L541.10626 188.58958L537.77814 198.18333L536.41876 198.18333L533.10626 188.43333L533.10626 198.18333L531.6375 198.18333ZM544.5125 188.33958L544.5125 186.73021L545.91876 186.73021L545.91876 188.33958L544.5125 188.33958ZM544.5125 198.18333L544.5125 189.88646L545.91876 189.88646L545.91876 198.18333L544.5125 198.18333ZM548.48126 198.18333L548.48126 186.73021L549.8875 186.73021L549.8875 198.18333L548.48126 198.18333ZM552.5125 188.33958L552.5125 186.73021L553.91876 186.73021L553.91876 188.33958L552.5125 188.33958ZM552.5125 198.18333L552.5125 189.88646L553.91876 189.88646L553.91876 198.18333L552.5125 198.18333ZM559.575 196.91771L559.77814 198.16771Q559.1844 198.29271 558.71564 198.29271Q557.95 198.29271 557.52814 198.05833Q557.10626 197.80833 556.9344 197.41771Q556.7625 197.01146 556.7625 195.74583L556.7625 190.98021L555.73126 190.98021L555.73126 189.88646L556.7625 189.88646L556.7625 187.82396L558.16876 186.98021L558.16876 189.88646L559.575 189.88646L559.575 190.98021L558.16876 190.98021L558.16876 195.82396Q558.16876 196.43333 558.23126 196.60521Q558.3094 196.77708 558.48126 196.88646Q558.65314 196.98021 558.96564 196.98021Q559.2 196.98021 559.575 196.91771ZM565.91876 197.15208Q565.1375 197.82396 564.41876 198.10521Q563.7 198.37083 562.8719 198.37083Q561.4969 198.37083 560.7625 197.69896Q560.02814 197.02708 560.02814 195.99583Q560.02814 195.38646 560.3094 194.88646Q560.59064 194.37083 561.02814 194.07396Q561.48126 193.76146 562.04376 193.60521Q562.46564 193.49583 563.29376 193.40208Q564.9969 193.19896 565.8094 192.91771Q565.8094 192.62083 565.8094 192.54271Q565.8094 191.68333 565.41876 191.33958Q564.8719 190.85521 563.8094 190.85521Q562.825 190.85521 562.34064 191.21458Q561.8719 191.55833 561.65314 192.43333L560.27814 192.24583Q560.46564 191.37083 560.8875 190.82396Q561.325 190.27708 562.1375 189.99583Q562.95 189.69896 564.0125 189.69896Q565.075 189.69896 565.73126 189.94896Q566.40314 190.19896 566.71564 190.57396Q567.02814 190.94896 567.15314 191.52708Q567.23126 191.88646 567.23126 192.82396L567.23126 194.69896Q567.23126 196.66771 567.3094 197.18333Q567.40314 197.69896 567.66876 198.18333L566.2 198.18333Q565.98126 197.74583 565.91876 197.15208ZM565.8094 194.01146Q565.04376 194.32396 563.5125 194.54271Q562.6375 194.66771 562.27814 194.82396Q561.91876 194.98021 561.71564 195.29271Q561.52814 195.58958 561.52814 195.94896Q561.52814 196.51146 561.95 196.88646Q562.3875 197.26146 563.2 197.26146Q564.0125 197.26146 564.6375 196.91771Q565.27814 196.55833 565.575 195.93333Q565.8094 195.46458 565.8094 194.52708L565.8094 194.01146ZM569.4969 198.18333L569.4969 189.88646L570.7625 189.88646L570.7625 191.13646Q571.2469 190.26146 571.65314 189.98021Q572.0594 189.69896 572.5594 189.69896Q573.2625 189.69896 573.9969 190.15208L573.5125 191.44896Q572.9969 191.15208 572.48126 191.15208Q572.02814 191.15208 571.65314 191.43333Q571.29376 191.69896 571.1375 192.19896Q570.90314 192.94896 570.90314 193.83958L570.90314 198.18333L569.4969 198.18333ZM574.45 201.38646L574.29376 200.05833Q574.7469 200.18333 575.09064 200.18333Q575.5594 200.18333 575.84064 200.02708Q576.1219 199.87083 576.3094 199.58958Q576.4344 199.38646 576.73126 198.54271Q576.77814 198.43333 576.85626 198.19896L573.71564 189.88646L575.23126 189.88646L576.95 194.68333Q577.29376 195.60521 577.5594 196.60521Q577.79376 195.63646 578.1375 194.71458L579.90314 189.88646L581.3094 189.88646L578.15314 198.32396Q577.65314 199.69896 577.3719 200.21458Q576.9969 200.90208 576.5125 201.23021Q576.02814 201.55833 575.35626 201.55833Q574.95 201.55833 574.45 201.38646Z" fill-rule="nonzero"/><path fill="#9e9e9e" d="M542.41876 220.18333L541.0125 220.18333L541.0125 211.21458Q540.4969 211.69896 539.66876 212.18333Q538.85626 212.66771 538.2 212.91771L538.2 211.55833Q539.3719 210.99583 540.2469 210.21458Q541.1375 209.41771 541.5125 208.68333L542.41876 208.68333L542.41876 220.18333ZM553.41876 211.52708L552.0125 211.63646Q551.825 210.80833 551.48126 210.43333Q550.91876 209.83958 550.075 209.83958Q549.40314 209.83958 548.90314 210.21458Q548.23126 210.69896 547.84064 211.63646Q547.46564 212.55833 547.45 214.27708Q547.96564 213.49583 548.7 213.12083Q549.4344 212.74583 550.23126 212.74583Q551.6375 212.74583 552.6219 213.79271Q553.6219 214.82396 553.6219 216.46458Q553.6219 217.54271 553.15314 218.46458Q552.6844 219.38646 551.8719 219.88646Q551.0594 220.38646 550.02814 220.38646Q548.27814 220.38646 547.16876 219.08958Q546.0594 217.79271 546.0594 214.82396Q546.0594 211.49583 547.27814 209.99583Q548.35626 208.68333 550.16876 208.68333Q551.5125 208.68333 552.3719 209.44896Q553.2469 210.19896 553.41876 211.52708ZM547.66876 216.46458Q547.66876 217.19896 547.98126 217.87083Q548.29376 218.52708 548.84064 218.87083Q549.40314 219.21458 550.0125 219.21458Q550.90314 219.21458 551.54376 218.49583Q552.1844 217.77708 552.1844 216.54271Q552.1844 215.35521 551.54376 214.68333Q550.91876 213.99583 549.95 213.99583Q548.9969 213.99583 548.325 214.68333Q547.66876 215.35521 547.66876 216.46458ZM555.90314 220.18333L555.90314 218.57396L557.5125 218.57396L557.5125 220.18333L555.90314 220.18333ZM559.21564 210.23021L559.21564 208.87083L566.6219 208.87083L566.6219 209.96458Q565.52814 211.13646 564.45 213.07396Q563.3875 214.99583 562.79376 217.02708Q562.3719 218.46458 562.2625 220.18333L560.8094 220.18333Q560.84064 218.82396 561.34064 216.91771Q561.85626 214.99583 562.79376 213.23021Q563.7469 211.44896 564.825 210.23021L559.21564 210.23021ZM568.3875 211.48021Q568.3875 210.24583 568.9969 209.38646Q569.6219 208.52708 570.79376 208.52708Q571.8719 208.52708 572.575 209.30833Q573.27814 210.07396 573.27814 211.55833Q573.27814 213.01146 572.5594 213.80833Q571.85626 214.58958 570.8094 214.58958Q569.7625 214.58958 569.075 213.82396Q568.3875 213.04271 568.3875 211.48021ZM570.825 209.49583Q570.3094 209.49583 569.95 209.94896Q569.60626 210.40208 569.60626 211.62083Q569.60626 212.71458 569.95 213.16771Q570.3094 213.62083 570.825 213.62083Q571.35626 213.62083 571.7 213.16771Q572.0594 212.71458 572.0594 211.51146Q572.0594 210.40208 571.7 209.94896Q571.35626 209.49583 570.825 209.49583ZM570.84064 220.60521L577.10626 208.52708L578.2469 208.52708L571.9969 220.60521L570.84064 220.60521ZM575.79376 217.49583Q575.79376 216.26146 576.40314 215.40208Q577.02814 214.54271 578.2 214.54271Q579.27814 214.54271 579.98126 215.32396Q580.7 216.08958 580.7 217.57396Q580.7 219.02708 579.98126 219.82396Q579.2625 220.60521 578.21564 220.60521Q577.16876 220.60521 576.48126 219.82396Q575.79376 219.04271 575.79376 217.49583ZM578.2469 215.51146Q577.71564 215.51146 577.35626 215.96458Q577.0125 216.41771 577.0125 217.63646Q577.0125 218.73021 577.35626 219.18333Q577.71564 219.63646 578.23126 219.63646Q578.77814 219.63646 579.1219 219.18333Q579.46564 218.73021 579.46564 217.52708Q579.46564 216.41771 579.10626 215.96458Q578.7625 215.51146 578.2469 215.51146Z" fill-rule="nonzero"/><path stroke="#757575" stroke-width="1.0" stroke-linecap="butt" d="M581.45 203.68333L454.76666 203.68333L441.32834 203.68333" fill-rule="nonzero"/><path fill="#9e9e9e" d="M443.32834 203.68333C443.32834 202.57877 442.4329 201.68333 441.32834 201.68333C440.22375 201.68333 439.32834 202.57877 439.32834 203.68333C439.32834 204.7879 440.22375 205.68333 441.32834 205.68333C442.4329 205.68333 443.32834 204.7879 443.32834 203.68333" fill-rule="nonzero"/><path fill="#efefef" d="M481.41876 326.45L485.825 314.9969L487.46564 314.9969L492.15314 326.45L490.41876 326.45L489.09064 322.98126L484.29376 322.98126L483.04376 326.45L481.41876 326.45ZM484.73126 321.7469L488.6219 321.7469L487.41876 318.575Q486.8719 317.1219 486.60626 316.2Q486.3875 317.29376 485.9969 318.3875L484.73126 321.7469ZM493.4969 326.45L493.4969 318.15314L494.7625 318.15314L494.7625 319.40314Q495.2469 318.52814 495.65314 318.2469Q496.0594 317.96564 496.5594 317.96564Q497.2625 317.96564 497.9969 318.41876L497.5125 319.71564Q496.9969 319.41876 496.48126 319.41876Q496.02814 319.41876 495.65314 319.7Q495.29376 319.96564 495.1375 320.46564Q494.90314 321.21564 494.90314 322.10626L494.90314 326.45L493.4969 326.45ZM503.91876 323.40314L505.3094 323.59064Q505.075 325.0125 504.1375 325.825Q503.21564 326.6375 501.85626 326.6375Q500.15314 326.6375 499.10626 325.52814Q498.075 324.40314 498.075 322.325Q498.075 320.98126 498.5125 319.98126Q498.96564 318.96564 499.8719 318.46564Q500.79376 317.96564 501.85626 317.96564Q503.21564 317.96564 504.075 318.65314Q504.9344 319.325 505.16876 320.59064L503.8094 320.79376Q503.60626 319.96564 503.10626 319.54376Q502.6219 319.1219 501.91876 319.1219Q500.85626 319.1219 500.1844 319.8875Q499.52814 320.6375 499.52814 322.29376Q499.52814 323.96564 500.16876 324.73126Q500.8094 325.48126 501.84064 325.48126Q502.66876 325.48126 503.21564 324.98126Q503.77814 324.46564 503.91876 323.40314ZM506.5125 326.45L506.5125 314.9969L507.91876 314.9969L507.91876 319.10626Q508.90314 317.96564 510.40314 317.96564Q511.325 317.96564 511.9969 318.325Q512.6844 318.6844 512.96564 319.325Q513.2625 319.96564 513.2625 321.1844L513.2625 326.45L511.85626 326.45L511.85626 321.1844Q511.85626 320.1375 511.40314 319.65314Q510.95 319.16876 510.10626 319.16876Q509.48126 319.16876 508.9344 319.4969Q508.3875 319.825 508.15314 320.3875Q507.91876 320.9344 507.91876 321.90314L507.91876 326.45L506.5125 326.45ZM515.5125 316.60626L515.5125 314.9969L516.91876 314.9969L516.91876 316.60626L515.5125 316.60626ZM515.5125 326.45L515.5125 318.15314L516.91876 318.15314L516.91876 326.45L515.5125 326.45ZM522.575 325.1844L522.77814 326.4344Q522.1844 326.5594 521.71564 326.5594Q520.95 326.5594 520.52814 326.325Q520.10626 326.075 519.9344 325.6844Q519.7625 325.27814 519.7625 324.0125L519.7625 319.2469L518.73126 319.2469L518.73126 318.15314L519.7625 318.15314L519.7625 316.09064L521.16876 315.2469L521.16876 318.15314L522.575 318.15314L522.575 319.2469L521.16876 319.2469L521.16876 324.09064Q521.16876 324.7 521.23126 324.8719Q521.3094 325.04376 521.48126 325.15314Q521.65314 325.2469 521.96564 325.2469Q522.2 325.2469 522.575 325.1844ZM529.1844 323.77814L530.6375 323.95Q530.29376 325.23126 529.35626 325.9344Q528.4344 326.6375 526.9969 326.6375Q525.16876 326.6375 524.10626 325.5125Q523.04376 324.3875 523.04376 322.3719Q523.04376 320.27814 524.1219 319.1219Q525.2 317.96564 526.91876 317.96564Q528.575 317.96564 529.6219 319.10626Q530.6844 320.23126 530.6844 322.27814Q530.6844 322.40314 530.6844 322.65314L524.4969 322.65314Q524.575 324.02814 525.2625 324.7625Q525.96564 325.48126 526.9969 325.48126Q527.77814 325.48126 528.325 325.075Q528.8719 324.66876 529.1844 323.77814ZM524.575 321.4969L529.2 321.4969Q529.10626 320.45 528.66876 319.9344Q527.9969 319.1219 526.9344 319.1219Q525.96564 319.1219 525.29376 319.77814Q524.6375 320.41876 524.575 321.4969ZM537.91876 323.40314L539.3094 323.59064Q539.075 325.0125 538.1375 325.825Q537.21564 326.6375 535.85626 326.6375Q534.15314 326.6375 533.10626 325.52814Q532.075 324.40314 532.075 322.325Q532.075 320.98126 532.5125 319.98126Q532.96564 318.96564 533.8719 318.46564Q534.79376 317.96564 535.85626 317.96564Q537.21564 317.96564 538.075 318.65314Q538.9344 319.325 539.16876 320.59064L537.8094 320.79376Q537.60626 319.96564 537.10626 319.54376Q536.6219 319.1219 535.91876 319.1219Q534.85626 319.1219 534.1844 319.8875Q533.52814 320.6375 533.52814 322.29376Q533.52814 323.96564 534.16876 324.73126Q534.8094 325.48126 535.84064 325.48126Q536.66876 325.48126 537.21564 324.98126Q537.77814 324.46564 537.91876 323.40314ZM543.575 325.1844L543.77814 326.4344Q543.1844 326.5594 542.71564 326.5594Q541.95 326.5594 541.52814 326.325Q541.10626 326.075 540.9344 325.6844Q540.7625 325.27814 540.7625 324.0125L540.7625 319.2469L539.73126 319.2469L539.73126 318.15314L540.7625 318.15314L540.7625 316.09064L542.16876 315.2469L542.16876 318.15314L543.575 318.15314L543.575 319.2469L542.16876 319.2469L542.16876 324.09064Q542.16876 324.7 542.23126 324.8719Q542.3094 325.04376 542.48126 325.15314Q542.65314 325.2469 542.96564 325.2469Q543.2 325.2469 543.575 325.1844ZM549.95 326.45L549.95 325.23126Q548.98126 326.6375 547.3094 326.6375Q546.575 326.6375 545.9344 326.35626Q545.3094 326.075 544.9969 325.65314Q544.6844 325.21564 544.5594 324.60626Q544.48126 324.1844 544.48126 323.29376L544.48126 318.15314L545.8875 318.15314L545.8875 322.7469Q545.8875 323.85626 545.96564 324.23126Q546.10626 324.79376 546.52814 325.10626Q546.96564 325.41876 547.59064 325.41876Q548.23126 325.41876 548.77814 325.10626Q549.34064 324.77814 549.5594 324.21564Q549.79376 323.65314 549.79376 322.59064L549.79376 318.15314L551.2 318.15314L551.2 326.45L549.95 326.45ZM553.4969 326.45L553.4969 318.15314L554.7625 318.15314L554.7625 319.40314Q555.2469 318.52814 555.65314 318.2469Q556.0594 317.96564 556.5594 317.96564Q557.2625 317.96564 557.9969 318.41876L557.5125 319.71564Q556.9969 319.41876 556.48126 319.41876Q556.02814 319.41876 555.65314 319.7Q555.29376 319.96564 555.1375 320.46564Q554.90314 321.21564 554.90314 322.10626L554.90314 326.45L553.4969 326.45ZM564.1844 323.77814L565.6375 323.95Q565.29376 325.23126 564.35626 325.9344Q563.4344 326.6375 561.9969 326.6375Q560.16876 326.6375 559.10626 325.5125Q558.04376 324.3875 558.04376 322.3719Q558.04376 320.27814 559.1219 319.1219Q560.2 317.96564 561.91876 317.96564Q563.575 317.96564 564.6219 319.10626Q565.6844 320.23126 565.6844 322.27814Q565.6844 322.40314 565.6844 322.65314L559.4969 322.65314Q559.575 324.02814 560.2625 324.7625Q560.96564 325.48126 561.9969 325.48126Q562.77814 325.48126 563.325 325.075Q563.8719 324.66876 564.1844 323.77814ZM559.575 321.4969L564.2 321.4969Q564.10626 320.45 563.66876 319.9344Q562.9969 319.1219 561.9344 319.1219Q560.96564 319.1219 560.29376 319.77814Q559.6375 320.41876 559.575 321.4969ZM578.0594 325.09064Q577.35626 325.8719 576.52814 326.2625Q575.71564 326.65314 574.7625 326.65314Q573.0125 326.65314 571.98126 325.45Q571.1375 324.48126 571.1375 323.29376Q571.1375 322.23126 571.825 321.3719Q572.5125 320.5125 573.8719 319.8719Q573.09064 318.98126 572.825 318.4344Q572.575 317.8719 572.575 317.35626Q572.575 316.325 573.3875 315.5594Q574.2 314.79376 575.41876 314.79376Q576.59064 314.79376 577.34064 315.5125Q578.09064 316.23126 578.09064 317.2469Q578.09064 318.8719 575.91876 320.02814L577.98126 322.65314Q578.325 321.96564 578.52814 321.0594L579.98126 321.3719Q579.60626 322.8719 578.96564 323.84064Q579.7625 324.8875 580.7625 325.59064L579.8094 326.71564Q578.96564 326.16876 578.0594 325.09064ZM575.2 319.1219Q576.10626 318.59064 576.3719 318.1844Q576.65314 317.77814 576.65314 317.27814Q576.65314 316.7 576.27814 316.325Q575.90314 315.95 575.35626 315.95Q574.77814 315.95 574.40314 316.325Q574.02814 316.6844 574.02814 317.21564Q574.02814 317.48126 574.15314 317.77814Q574.29376 318.075 574.575 318.40314L575.2 319.1219ZM577.16876 323.98126L574.59064 320.79376Q573.45 321.46564 573.04376 322.0594Q572.65314 322.6375 572.65314 323.2Q572.65314 323.90314 573.2 324.65314Q573.7625 325.40314 574.77814 325.40314Q575.41876 325.40314 576.09064 325.0125Q576.7625 324.60626 577.16876 323.98126Z" fill-rule="nonzero"/><path fill="#9e9e9e" d="M537.1219 345.41876L538.52814 345.23126Q538.77814 346.4344 539.35626 346.96564Q539.9344 347.48126 540.77814 347.48126Q541.7625 347.48126 542.45 346.79376Q543.1375 346.10626 543.1375 345.09064Q543.1375 344.1219 542.4969 343.4969Q541.8719 342.8719 540.8875 342.8719Q540.4969 342.8719 539.90314 343.02814L540.0594 341.79376Q540.2 341.8094 540.27814 341.8094Q541.1844 341.8094 541.90314 341.34064Q542.6219 340.8719 542.6219 339.8875Q542.6219 339.1219 542.09064 338.6219Q541.575 338.10626 540.7469 338.10626Q539.91876 338.10626 539.3719 338.6219Q538.825 339.1375 538.66876 340.16876L537.2625 339.91876Q537.52814 338.4969 538.4344 337.73126Q539.35626 336.95 540.71564 336.95Q541.65314 336.95 542.4344 337.35626Q543.23126 337.7469 543.6375 338.45Q544.0594 339.1375 544.0594 339.91876Q544.0594 340.66876 543.65314 341.27814Q543.2625 341.8875 542.48126 342.2469Q543.4969 342.48126 544.0594 343.21564Q544.6219 343.95 544.6219 345.0594Q544.6219 346.5594 543.52814 347.60626Q542.4344 348.65314 540.7625 348.65314Q539.2625 348.65314 538.2625 347.7625Q537.2625 346.85626 537.1219 345.41876ZM546.1219 345.41876L547.52814 345.23126Q547.77814 346.4344 548.35626 346.96564Q548.9344 347.48126 549.77814 347.48126Q550.7625 347.48126 551.45 346.79376Q552.1375 346.10626 552.1375 345.09064Q552.1375 344.1219 551.4969 343.4969Q550.8719 342.8719 549.8875 342.8719Q549.4969 342.8719 548.90314 343.02814L549.0594 341.79376Q549.2 341.8094 549.27814 341.8094Q550.1844 341.8094 550.90314 341.34064Q551.6219 340.8719 551.6219 339.8875Q551.6219 339.1219 551.09064 338.6219Q550.575 338.10626 549.7469 338.10626Q548.91876 338.10626 548.3719 338.6219Q547.825 339.1375 547.66876 340.16876L546.2625 339.91876Q546.52814 338.4969 547.4344 337.73126Q548.35626 336.95 549.71564 336.95Q550.65314 336.95 551.4344 337.35626Q552.23126 337.7469 552.6375 338.45Q553.0594 339.1375 553.0594 339.91876Q553.0594 340.66876 552.65314 341.27814Q552.2625 341.8875 551.48126 342.2469Q552.4969 342.48126 553.0594 343.21564Q553.6219 343.95 553.6219 345.0594Q553.6219 346.5594 552.52814 347.60626Q551.4344 348.65314 549.7625 348.65314Q548.2625 348.65314 547.2625 347.7625Q546.2625 346.85626 546.1219 345.41876ZM555.90314 348.45L555.90314 346.84064L557.5125 346.84064L557.5125 348.45L555.90314 348.45ZM559.1219 345.41876L560.52814 345.23126Q560.77814 346.4344 561.35626 346.96564Q561.9344 347.48126 562.77814 347.48126Q563.7625 347.48126 564.45 346.79376Q565.1375 346.10626 565.1375 345.09064Q565.1375 344.1219 564.4969 343.4969Q563.8719 342.8719 562.8875 342.8719Q562.4969 342.8719 561.90314 343.02814L562.0594 341.79376Q562.2 341.8094 562.27814 341.8094Q563.1844 341.8094 563.90314 341.34064Q564.6219 340.8719 564.6219 339.8875Q564.6219 339.1219 564.09064 338.6219Q563.575 338.10626 562.7469 338.10626Q561.91876 338.10626 561.3719 338.6219Q560.825 339.1375 560.66876 340.16876L559.2625 339.91876Q559.52814 338.4969 560.4344 337.73126Q561.35626 336.95 562.71564 336.95Q563.65314 336.95 564.4344 337.35626Q565.23126 337.7469 565.6375 338.45Q566.0594 339.1375 566.0594 339.91876Q566.0594 340.66876 565.65314 341.27814Q565.2625 341.8875 564.48126 342.2469Q565.4969 342.48126 566.0594 343.21564Q566.6219 343.95 566.6219 345.0594Q566.6219 346.5594 565.52814 347.60626Q564.4344 348.65314 562.7625 348.65314Q561.2625 348.65314 560.2625 347.7625Q559.2625 346.85626 559.1219 345.41876ZM568.3875 339.7469Q568.3875 338.5125 568.9969 337.65314Q569.6219 336.79376 570.79376 336.79376Q571.8719 336.79376 572.575 337.575Q573.27814 338.34064 573.27814 339.825Q573.27814 341.27814 572.5594 342.075Q571.85626 342.85626 570.8094 342.85626Q569.7625 342.85626 569.075 342.09064Q568.3875 341.3094 568.3875 339.7469ZM570.825 337.7625Q570.3094 337.7625 569.95 338.21564Q569.60626 338.66876 569.60626 339.8875Q569.60626 340.98126 569.95 341.4344Q570.3094 341.8875 570.825 341.8875Q571.35626 341.8875 571.7 341.4344Q572.0594 340.98126 572.0594 339.77814Q572.0594 338.66876 571.7 338.21564Q571.35626 337.7625 570.825 337.7625ZM570.84064 348.8719L577.10626 336.79376L578.2469 336.79376L571.9969 348.8719L570.84064 348.8719ZM575.79376 345.7625Q575.79376 344.52814 576.40314 343.66876Q577.02814 342.8094 578.2 342.8094Q579.27814 342.8094 579.98126 343.59064Q580.7 344.35626 580.7 345.84064Q580.7 347.29376 579.98126 348.09064Q579.2625 348.8719 578.21564 348.8719Q577.16876 348.8719 576.48126 348.09064Q575.79376 347.3094 575.79376 345.7625ZM578.2469 343.77814Q577.71564 343.77814 577.35626 344.23126Q577.0125 344.6844 577.0125 345.90314Q577.0125 346.9969 577.35626 347.45Q577.71564 347.90314 578.23126 347.90314Q578.77814 347.90314 579.1219 347.45Q579.46564 346.9969 579.46564 345.79376Q579.46564 344.6844 579.10626 344.23126Q578.7625 343.77814 578.2469 343.77814Z" fill-rule="nonzero"/><path stroke="#757575" stroke-width="1.0" stroke-linecap="butt" d="M581.45 331.95L454.76666 331.95L300.0 345.01166" fill-rule="nonzero"/><path fill="#9e9e9e" d="M302.0 345.01166C302.0 343.9071 301.10458 343.01166 300.0 343.01166C298.89542 343.01166 298.0 343.9071 298.0 345.01166C298.0 346.11624 298.89542 347.01166 300.0 347.01166C301.10458 347.01166 302.0 346.11624 302.0 345.01166" fill-rule="nonzero"/><path fill="#f3f3f3" d="M271.26562 32.534374L273.15625 33.003124Q272.5625 35.346874 271.01562 36.58125Q269.46875 37.8 267.21875 37.8Q264.90625 37.8 263.45312 36.8625Q262.01562 35.909374 261.25 34.128124Q260.5 32.33125 260.5 30.284374Q260.5 28.05 261.34375 26.39375Q262.20312 24.721874 263.78125 23.8625Q265.35938 22.9875 267.25 22.9875Q269.40625 22.9875 270.85938 24.08125Q272.32812 25.175 272.90625 27.159374L271.04688 27.596874Q270.54688 26.034374 269.59375 25.33125Q268.65625 24.6125 267.21875 24.6125Q265.5625 24.6125 264.45312 25.409374Q263.34375 26.190624 262.89062 27.534374Q262.45312 28.8625 262.45312 30.26875Q262.45312 32.096874 262.98438 33.471874Q263.51562 34.83125 264.64062 35.503124Q265.76562 36.175 267.0625 36.175Q268.65625 36.175 269.76562 35.253124Q270.875 34.33125 271.26562 32.534374ZM281.59375 36.26875Q280.60938 37.096874 279.70312 37.440624Q278.79688 37.784374 277.76562 37.784374Q276.0625 37.784374 275.14062 36.95625Q274.21875 36.1125 274.21875 34.815624Q274.21875 34.05 274.5625 33.425Q274.92188 32.8 275.48438 32.425Q276.04688 32.034374 276.75 31.83125Q277.26562 31.70625 278.3125 31.565624Q280.4375 31.315624 281.4375 30.971874Q281.45312 30.6125 281.45312 30.503124Q281.45312 29.440624 280.95312 28.9875Q280.28125 28.39375 278.95312 28.39375Q277.70312 28.39375 277.10938 28.83125Q276.53125 29.26875 276.25 30.378124L274.53125 30.14375Q274.76562 29.034374 275.29688 28.3625Q275.82812 27.675 276.84375 27.315624Q277.85938 26.940624 279.20312 26.940624Q280.53125 26.940624 281.35938 27.253124Q282.1875 27.565624 282.57812 28.05Q282.96875 28.51875 283.125 29.2375Q283.21875 29.690624 283.21875 30.8625L283.21875 33.20625Q283.21875 35.659374 283.32812 36.315624Q283.4375 36.95625 283.78125 37.55L281.9375 37.55Q281.67188 37.003124 281.59375 36.26875ZM281.4375 32.346874Q280.48438 32.7375 278.5625 33.003124Q277.48438 33.159374 277.03125 33.3625Q276.59375 33.55 276.34375 33.925Q276.09375 34.3 276.09375 34.76875Q276.09375 35.471874 276.625 35.940624Q277.15625 36.409374 278.1875 36.409374Q279.20312 36.409374 279.98438 35.971874Q280.78125 35.51875 281.15625 34.753124Q281.4375 34.14375 281.4375 32.9875L281.4375 32.346874ZM289.65625 35.971874L289.90625 37.534374Q289.17188 37.690624 288.57812 37.690624Q287.625 37.690624 287.09375 37.39375Q286.57812 37.08125 286.35938 36.596874Q286.14062 36.096874 286.14062 34.51875L286.14062 28.55L284.85938 28.55L284.85938 27.175L286.14062 27.175L286.14062 24.6125L287.89062 23.55L287.89062 27.175L289.65625 27.175L289.65625 28.55L287.89062 28.55L287.89062 34.6125Q287.89062 35.3625 287.98438 35.58125Q288.07812 35.784374 288.28125 35.925Q288.5 36.05 288.89062 36.05Q289.17188 36.05 289.65625 35.971874ZM298.92188 34.20625L300.73438 34.440624Q300.3125 36.01875 299.14062 36.909374Q297.98438 37.784374 296.17188 37.784374Q293.90625 37.784374 292.5625 36.39375Q291.23438 34.9875 291.23438 32.45625Q291.23438 29.83125 292.57812 28.39375Q293.92188 26.940624 296.07812 26.940624Q298.15625 26.940624 299.46875 28.3625Q300.79688 29.76875 300.79688 32.346874Q300.79688 32.503124 300.78125 32.815624L293.04688 32.815624Q293.14062 34.51875 294.01562 35.425Q294.89062 36.33125 296.1875 36.33125Q297.15625 36.33125 297.82812 35.83125Q298.51562 35.315624 298.92188 34.20625ZM293.14062 31.3625L298.9375 31.3625Q298.82812 30.065624 298.28125 29.409374Q297.4375 28.39375 296.09375 28.39375Q294.89062 28.39375 294.0625 29.20625Q293.23438 30.003124 293.14062 31.3625ZM302.5 38.409374L304.20312 38.659374Q304.3125 39.45625 304.79688 39.815624Q305.45312 40.3 306.59375 40.3Q307.8125 40.3 308.46875 39.815624Q309.14062 39.33125 309.375 38.45625Q309.51562 37.909374 309.5 36.190624Q308.34375 37.55 306.625 37.55Q304.48438 37.55 303.3125 36.003124Q302.14062 34.45625 302.14062 32.3Q302.14062 30.815624 302.67188 29.565624Q303.21875 28.315624 304.23438 27.628124Q305.26562 26.940624 306.64062 26.940624Q308.46875 26.940624 309.67188 28.425L309.67188 27.175L311.28125 27.175L311.28125 36.14375Q311.28125 38.565624 310.78125 39.565624Q310.29688 40.58125 309.21875 41.159374Q308.15625 41.753124 306.59375 41.753124Q304.75 41.753124 303.59375 40.925Q302.45312 40.096874 302.5 38.409374ZM303.95312 32.175Q303.95312 34.221874 304.76562 35.159374Q305.57812 36.096874 306.79688 36.096874Q308.0 36.096874 308.8125 35.159374Q309.64062 34.221874 309.64062 32.2375Q309.64062 30.33125 308.79688 29.3625Q307.95312 28.39375 306.76562 28.39375Q305.59375 28.39375 304.76562 29.346874Q303.95312 30.3 303.95312 32.175ZM313.17188 32.3625Q313.17188 29.4875 314.76562 28.096874Q316.10938 26.940624 318.03125 26.940624Q320.17188 26.940624 321.51562 28.346874Q322.875 29.753124 322.875 32.221874Q322.875 34.221874 322.28125 35.378124Q321.6875 36.51875 320.53125 37.159374Q319.39062 37.784374 318.03125 37.784374Q315.84375 37.784374 314.5 36.39375Q313.17188 34.9875 313.17188 32.3625ZM314.96875 32.3625Q314.96875 34.3625 315.82812 35.346874Q316.70312 36.33125 318.03125 36.33125Q319.34375 36.33125 320.20312 35.346874Q321.07812 34.346874 321.07812 32.3Q321.07812 30.378124 320.20312 29.39375Q319.32812 28.39375 318.03125 28.39375Q316.70312 28.39375 315.82812 29.39375Q314.96875 30.378124 314.96875 32.3625ZM324.79688 37.55L324.79688 27.175L326.375 27.175L326.375 28.753124Q326.98438 27.64375 327.5 27.3Q328.01562 26.940624 328.625 26.940624Q329.51562 26.940624 330.4375 27.503124L329.82812 29.14375Q329.1875 28.753124 328.54688 28.753124Q327.96875 28.753124 327.5 29.1125Q327.04688 29.45625 326.84375 30.065624Q326.5625 31.003124 326.5625 32.1125L326.5625 37.55L324.79688 37.55ZM331.73438 41.55L331.54688 39.89375Q332.125 40.05 332.54688 40.05Q333.14062 40.05 333.48438 39.846874Q333.84375 39.659374 334.0625 39.315624Q334.23438 39.05 334.60938 38.003124Q334.65625 37.846874 334.76562 37.565624L330.82812 27.175L332.71875 27.175L334.875 33.190624Q335.29688 34.33125 335.625 35.58125Q335.9375 34.378124 336.34375 33.221874L338.5625 27.175L340.32812 27.175L336.375 37.721874Q335.75 39.440624 335.39062 40.08125Q334.92188 40.95625 334.3125 41.346874Q333.71875 41.753124 332.875 41.753124Q332.35938 41.753124 331.73438 41.55Z" fill-rule="nonzero"/></svg>