<svg version="1.1" viewBox="0.0 0.0 600.0 371.0" fill="none" stroke="none" stroke-linecap="square" stroke-miterlimit="10" width="600" height="371" xmlns:xlink="http://www.w3.org/1999/xlink" xmlns="http://www.w3.org/2000/svg"><path fill="#ffffff" fill-opacity="0.0" d="M0 0L600.0 0L600.0 371.0L0 371.0L0 0Z" fill-rule="nonzero"/><path fill="#304388" d="M300.0 54.916668C364.44962 54.916668 421.5695 96.416664 441.4855 157.7119L335.37137 192.19048C330.39236 176.86667 316.1124 166.49167 300.0 166.49167Z" fill-rule="nonzero"/><path fill="#b5428d" d="M441.4855 157.7119C461.40155 219.00714 439.5837 286.15555 387.44284 324.0381L321.86072 233.77202C334.89594 224.30139 340.35037 207.51428 335.37137 192.19048Z" fill-rule="nonzero"/><path fill="#df8d43" d="M387.44284 324.0381C335.302 361.92062 264.698 361.92062 212.55714 324.0381C160.4163 286.15555 138.59846 219.00714 158.5145 157.7119C178.43053 96.416664 235.55037 54.916668 300.0 54.916668L300.0 166.49167C283.8876 166.49167 269.60764 176.86667 264.62863 192.19048C259.64963 207.51428 265.10406 224.30139 278.13928 233.77202C291.1745 243.24266 308.8255 243.24266 321.86072 233.77202Z" fill-rule="nonzero"/><path fill="#ffffff" d="M344.36365 124.982124L344.36365 126.49775L335.84802 126.49775Q335.8324 125.919624 336.03552 125.404Q336.36365 124.529 337.06677 123.68525Q337.78552 122.8415 339.1449 121.732124Q341.23865 120.013374 341.97302 119.013374Q342.72302 117.99775 342.72302 117.107124Q342.72302 116.154 342.05115 115.513374Q341.37927 114.87275 340.30115 114.87275Q339.1449 114.87275 338.4574 115.56025Q337.78552 116.24775 337.7699 117.450874L336.1449 117.279Q336.31677 115.4665 337.3949 114.513374Q338.48865 113.56025 340.3324 113.56025Q342.17615 113.56025 343.25427 114.5915Q344.34802 115.62275 344.34802 117.138374Q344.34802 117.904 344.0199 118.654Q343.7074 119.404 342.97302 120.232124Q342.23865 121.06025 340.53552 122.49775Q339.11365 123.700874 338.7074 124.12275Q338.30115 124.544624 338.05115 124.982124L344.36365 124.982124ZM346.05115 120.138374Q346.05115 117.857124 346.5199 116.4665Q346.98865 115.075874 347.91052 114.325874Q348.84802 113.56025 350.25427 113.56025Q351.28552 113.56025 352.06677 113.982124Q352.84802 114.388374 353.34802 115.18525Q353.86365 115.9665 354.16052 117.107124Q354.4574 118.232124 354.4574 120.138374Q354.4574 122.404 353.98865 123.81025Q353.5199 125.200874 352.5824 125.9665Q351.66052 126.7165 350.25427 126.7165Q348.37927 126.7165 347.31677 125.388374Q346.05115 123.779 346.05115 120.138374ZM347.67615 120.138374Q347.67615 123.31025 348.41052 124.37275Q349.16052 125.419624 350.25427 125.419624Q351.3324 125.419624 352.0824 124.37275Q352.8324 123.31025 352.8324 120.138374Q352.8324 116.9665 352.0824 115.919624Q351.3324 114.87275 350.23865 114.87275Q349.1449 114.87275 348.48865 115.794624Q347.67615 116.9665 347.67615 120.138374ZM356.94177 126.49775L356.94177 124.700874L358.73865 124.700874L358.73865 126.49775L356.94177 126.49775ZM361.05115 120.138374Q361.05115 117.857124 361.5199 116.4665Q361.98865 115.075874 362.91052 114.325874Q363.84802 113.56025 365.25427 113.56025Q366.28552 113.56025 367.06677 113.982124Q367.84802 114.388374 368.34802 115.18525Q368.86365 115.9665 369.16052 117.107124Q369.4574 118.232124 369.4574 120.138374Q369.4574 122.404 368.98865 123.81025Q368.5199 125.200874 367.5824 125.9665Q366.66052 126.7165 365.25427 126.7165Q363.37927 126.7165 362.31677 125.388374Q361.05115 123.779 361.05115 120.138374ZM362.67615 120.138374Q362.67615 123.31025 363.41052 124.37275Q364.16052 125.419624 365.25427 125.419624Q366.3324 125.419624 367.0824 124.37275Q367.8324 123.31025 367.8324 120.138374Q367.8324 116.9665 367.0824 115.919624Q366.3324 114.87275 365.23865 114.87275Q364.1449 114.87275 363.48865 115.794624Q362.67615 116.9665 362.67615 120.138374ZM371.34802 116.700874Q371.34802 115.325874 372.03552 114.357124Q372.73865 113.388374 374.05115 113.388374Q375.2699 113.388374 376.06677 114.263374Q376.86365 115.12275 376.86365 116.81025Q376.86365 118.43525 376.05115 119.325874Q375.25427 120.200874 374.06677 120.200874Q372.91052 120.200874 372.12927 119.3415Q371.34802 118.4665 371.34802 116.700874ZM374.09802 114.482124Q373.50427 114.482124 373.11365 114.99775Q372.72302 115.49775 372.72302 116.857124Q372.72302 118.107124 373.11365 118.607124Q373.5199 119.107124 374.09802 119.107124Q374.69177 119.107124 375.0824 118.607124Q375.47302 118.0915 375.47302 116.74775Q375.47302 115.49775 375.0824 114.99775Q374.69177 114.482124 374.09802 114.482124ZM374.11365 126.9665L381.16052 113.388374L382.44177 113.388374L375.41052 126.9665L374.11365 126.9665ZM379.67615 123.4665Q379.67615 122.0915 380.36365 121.12275Q381.06677 120.154 382.3949 120.154Q383.61365 120.154 384.3949 121.029Q385.19177 121.888374 385.19177 123.575874Q385.19177 125.200874 384.3949 126.0915Q383.59802 126.9665 382.41052 126.9665Q381.23865 126.9665 380.4574 126.0915Q379.67615 125.2165 379.67615 123.4665ZM382.44177 121.24775Q381.84802 121.24775 381.4574 121.763374Q381.06677 122.263374 381.06677 123.638374Q381.06677 124.857124 381.4574 125.37275Q381.84802 125.888374 382.42615 125.888374Q383.03552 125.888374 383.42615 125.37275Q383.81677 124.857124 383.81677 123.513374Q383.81677 122.263374 383.42615 121.763374Q383.03552 121.24775 382.44177 121.24775Z" fill-rule="nonzero"/><path fill="#ffffff" d="M380.63388 240.20811L380.63388 241.72374L372.11826 241.72374Q372.10263 241.14561 372.30576 240.62999Q372.63388 239.75499 373.337 238.91124Q374.05576 238.06749 375.41513 236.95811Q377.50888 235.23936 378.24326 234.23936Q378.99326 233.22374 378.99326 232.33311Q378.99326 231.37999 378.32138 230.73936Q377.6495 230.09874 376.57138 230.09874Q375.41513 230.09874 374.72763 230.78624Q374.05576 231.47374 374.04013 232.67686L372.41513 232.50499Q372.587 230.69249 373.66513 229.73936Q374.75888 228.78624 376.60263 228.78624Q378.44638 228.78624 379.5245 229.81749Q380.61826 230.84874 380.61826 232.36436Q380.61826 233.12999 380.29013 233.87999Q379.97763 234.62999 379.24326 235.45811Q378.50888 236.28624 376.80576 237.72374Q375.38388 238.92686 374.97763 239.34874Q374.57138 239.77061 374.32138 240.20811L380.63388 240.20811ZM382.32138 235.36436Q382.32138 233.08311 382.79013 231.69249Q383.25888 230.30186 384.18076 229.55186Q385.11826 228.78624 386.5245 228.78624Q387.55576 228.78624 388.337 229.20811Q389.11826 229.61436 389.61826 230.41124Q390.13388 231.19249 390.43076 232.33311Q390.72763 233.45811 390.72763 235.36436Q390.72763 237.62999 390.25888 239.03624Q389.79013 240.42686 388.85263 241.19249Q387.93076 241.94249 386.5245 241.94249Q384.6495 241.94249 383.587 240.61436Q382.32138 239.00499 382.32138 235.36436ZM383.94638 235.36436Q383.94638 238.53624 384.68076 239.59874Q385.43076 240.64561 386.5245 240.64561Q387.60263 240.64561 388.35263 239.59874Q389.10263 238.53624 389.10263 235.36436Q389.10263 232.19249 388.35263 231.14561Q387.60263 230.09874 386.50888 230.09874Q385.41513 230.09874 384.75888 231.02061Q383.94638 232.19249 383.94638 235.36436ZM393.212 241.72374L393.212 239.92686L395.00888 239.92686L395.00888 241.72374L393.212 241.72374ZM397.32138 235.36436Q397.32138 233.08311 397.79013 231.69249Q398.25888 230.30186 399.18076 229.55186Q400.11826 228.78624 401.5245 228.78624Q402.55576 228.78624 403.337 229.20811Q404.11826 229.61436 404.61826 230.41124Q405.13388 231.19249 405.43076 232.33311Q405.72763 233.45811 405.72763 235.36436Q405.72763 237.62999 405.25888 239.03624Q404.79013 240.42686 403.85263 241.19249Q402.93076 241.94249 401.5245 241.94249Q399.6495 241.94249 398.587 240.61436Q397.32138 239.00499 397.32138 235.36436ZM398.94638 235.36436Q398.94638 238.53624 399.68076 239.59874Q400.43076 240.64561 401.5245 240.64561Q402.60263 240.64561 403.35263 239.59874Q404.10263 238.53624 404.10263 235.36436Q404.10263 232.19249 403.35263 231.14561Q402.60263 230.09874 401.50888 230.09874Q400.41513 230.09874 399.75888 231.02061Q398.94638 232.19249 398.94638 235.36436ZM407.61826 231.92686Q407.61826 230.55186 408.30576 229.58311Q409.00888 228.61436 410.32138 228.61436Q411.54013 228.61436 412.337 229.48936Q413.13388 230.34874 413.13388 232.03624Q413.13388 233.66124 412.32138 234.55186Q411.5245 235.42686 410.337 235.42686Q409.18076 235.42686 408.3995 234.56749Q407.61826 233.69249 407.61826 231.92686ZM410.36826 229.70811Q409.7745 229.70811 409.38388 230.22374Q408.99326 230.72374 408.99326 232.08311Q408.99326 233.33311 409.38388 233.83311Q409.79013 234.33311 410.36826 234.33311Q410.962 234.33311 411.35263 233.83311Q411.74326 233.31749 411.74326 231.97374Q411.74326 230.72374 411.35263 230.22374Q410.962 229.70811 410.36826 229.70811ZM410.38388 242.19249L417.43076 228.61436L418.712 228.61436L411.68076 242.19249L410.38388 242.19249ZM415.94638 238.69249Q415.94638 237.31749 416.63388 236.34874Q417.337 235.37999 418.66513 235.37999Q419.88388 235.37999 420.66513 236.25499Q421.462 237.11436 421.462 238.80186Q421.462 240.42686 420.66513 241.31749Q419.86826 242.19249 418.68076 242.19249Q417.50888 242.19249 416.72763 241.31749Q415.94638 240.44249 415.94638 238.69249ZM418.712 236.47374Q418.11826 236.47374 417.72763 236.98936Q417.337 237.48936 417.337 238.86436Q417.337 240.08311 417.72763 240.59874Q418.11826 241.11436 418.69638 241.11436Q419.30576 241.11436 419.69638 240.59874Q420.087 240.08311 420.087 238.73936Q420.087 237.48936 419.69638 236.98936Q419.30576 236.47374 418.712 236.47374Z" fill-rule="nonzero"/><path fill="#ffffff" d="M186.38173 231.98936L184.81923 232.11436Q184.60048 231.19249 184.20985 230.77061Q183.56923 230.08311 182.63173 230.08311Q181.88173 230.08311 181.3036 230.50499Q180.5536 231.05186 180.1161 232.09874Q179.69423 233.14561 179.6786 235.08311Q180.25673 234.20811 181.06923 233.78624Q181.89735 233.36436 182.8036 233.36436Q184.39735 233.36436 185.50673 234.53624Q186.6161 235.69249 186.6161 237.53624Q186.6161 238.75499 186.08485 239.80186Q185.56923 240.83311 184.64735 241.39561Q183.7411 241.94249 182.58485 241.94249Q180.60048 241.94249 179.35048 240.48936Q178.10048 239.03624 178.10048 235.69249Q178.10048 231.95811 179.4911 230.25499Q180.69423 228.78624 182.72548 228.78624Q184.25673 228.78624 185.22548 229.64561Q186.19423 230.48936 186.38173 231.98936ZM179.9286 237.55186Q179.9286 238.36436 180.27235 239.11436Q180.6161 239.86436 181.2411 240.25499Q181.8661 240.64561 182.5536 240.64561Q183.5536 240.64561 184.27235 239.83311Q184.9911 239.02061 184.9911 237.62999Q184.9911 236.30186 184.27235 235.53624Q183.56923 234.75499 182.4911 234.75499Q181.41298 234.75499 180.66298 235.53624Q179.9286 236.30186 179.9286 237.55186ZM188.1786 235.36436Q188.1786 233.08311 188.64735 231.69249Q189.1161 230.30186 190.03798 229.55186Q190.97548 228.78624 192.38173 228.78624Q193.41298 228.78624 194.19423 229.20811Q194.97548 229.61436 195.47548 230.41124Q195.9911 231.19249 196.28798 232.33311Q196.58485 233.45811 196.58485 235.36436Q196.58485 237.62999 196.1161 239.03624Q195.64735 240.42686 194.70985 241.19249Q193.78798 241.94249 192.38173 241.94249Q190.50673 241.94249 189.44423 240.61436Q188.1786 239.00499 188.1786 235.36436ZM189.8036 235.36436Q189.8036 238.53624 190.53798 239.59874Q191.28798 240.64561 192.38173 240.64561Q193.45985 240.64561 194.20985 239.59874Q194.95985 238.53624 194.95985 235.36436Q194.95985 232.19249 194.20985 231.14561Q193.45985 230.09874 192.3661 230.09874Q191.27235 230.09874 190.6161 231.02061Q189.8036 232.19249 189.8036 235.36436ZM199.06923 241.72374L199.06923 239.92686L200.8661 239.92686L200.8661 241.72374L199.06923 241.72374ZM203.1786 235.36436Q203.1786 233.08311 203.64735 231.69249Q204.1161 230.30186 205.03798 229.55186Q205.97548 228.78624 207.38173 228.78624Q208.41298 228.78624 209.19423 229.20811Q209.97548 229.61436 210.47548 230.41124Q210.9911 231.19249 211.28798 232.33311Q211.58485 233.45811 211.58485 235.36436Q211.58485 237.62999 211.1161 239.03624Q210.64735 240.42686 209.70985 241.19249Q208.78798 241.94249 207.38173 241.94249Q205.50673 241.94249 204.44423 240.61436Q203.1786 239.00499 203.1786 235.36436ZM204.8036 235.36436Q204.8036 238.53624 205.53798 239.59874Q206.28798 240.64561 207.38173 240.64561Q208.45985 240.64561 209.20985 239.59874Q209.95985 238.53624 209.95985 235.36436Q209.95985 232.19249 209.20985 231.14561Q208.45985 230.09874 207.3661 230.09874Q206.27235 230.09874 205.6161 231.02061Q204.8036 232.19249 204.8036 235.36436ZM213.47548 231.92686Q213.47548 230.55186 214.16298 229.58311Q214.8661 228.61436 216.1786 228.61436Q217.39735 228.61436 218.19423 229.48936Q218.9911 230.34874 218.9911 232.03624Q218.9911 233.66124 218.1786 234.55186Q217.38173 235.42686 216.19423 235.42686Q215.03798 235.42686 214.25673 234.56749Q213.47548 233.69249 213.47548 231.92686ZM216.22548 229.70811Q215.63173 229.70811 215.2411 230.22374Q214.85048 230.72374 214.85048 232.08311Q214.85048 233.33311 215.2411 233.83311Q215.64735 234.33311 216.22548 234.33311Q216.81923 234.33311 217.20985 233.83311Q217.60048 233.31749 217.60048 231.97374Q217.60048 230.72374 217.20985 230.22374Q216.81923 229.70811 216.22548 229.70811ZM216.2411 242.19249L223.28798 228.61436L224.56923 228.61436L217.53798 242.19249L216.2411 242.19249ZM221.8036 238.69249Q221.8036 237.31749 222.4911 236.34874Q223.19423 235.37999 224.52235 235.37999Q225.7411 235.37999 226.52235 236.25499Q227.31923 237.11436 227.31923 238.80186Q227.31923 240.42686 226.52235 241.31749Q225.72548 242.19249 224.53798 242.19249Q223.3661 242.19249 222.58485 241.31749Q221.8036 240.44249 221.8036 238.69249ZM224.56923 236.47374Q223.97548 236.47374 223.58485 236.98936Q223.19423 237.48936 223.19423 238.86436Q223.19423 240.08311 223.58485 240.59874Q223.97548 241.11436 224.5536 241.11436Q225.16298 241.11436 225.5536 240.59874Q225.94423 240.08311 225.94423 238.73936Q225.94423 237.48936 225.5536 236.98936Q225.16298 236.47374 224.56923 236.47374Z" fill-rule="nonzero"/><path stroke="#ffffff" stroke-width="1.0" stroke-linejoin="round" stroke-linecap="round" d="M335.37137 192.19048C330.39236 176.86667 316.1124 166.49167 300.0 166.49167L300.0 54.916668C364.44962 54.916668 421.5695 96.416664 441.4855 157.7119" fill-rule="nonzero"/><path stroke="#ffffff" stroke-width="1.0" stroke-linejoin="round" stroke-linecap="round" d="M321.86072 233.77202C334.89594 224.30139 340.35037 207.51428 335.37137 192.19048L441.4855 157.7119C461.40155 219.00714 439.5837 286.15555 387.44284 324.0381" fill-rule="nonzero"/><path stroke="#ffffff" stroke-width="1.0" stroke-linejoin="round" stroke-linecap="round" d="M300.0 166.49167C283.8876 166.49167 269.60764 176.86667 264.62863 192.19048C259.64963 207.51428 265.10406 224.30139 278.13928 233.77202C291.1745 243.24266 308.8255 243.24266 321.86072 233.77202L387.44284 324.0381C335.302 361.92062 264.698 361.92062 212.55714 324.0381C160.4163 286.15555 138.59846 219.00714 158.5145 157.7119C178.43053 96.416664 235.55037 54.916668 300.0 54.916668" fill-rule="nonzero"/><path fill="#efefef" d="M19.76875 241.85619L19.76875 230.40306L21.33125 230.40306L27.346874 239.38744L27.346874 230.40306L28.8 230.40306L28.8 241.85619L27.2375 241.85619L21.221874 232.85619L21.221874 241.85619L19.76875 241.85619ZM37.01875 240.82494Q36.2375 241.49681 35.51875 241.77806Q34.8 242.04369 33.971874 242.04369Q32.596874 242.04369 31.8625 241.37181Q31.128124 240.69994 31.128124 239.66869Q31.128124 239.05931 31.409374 238.55931Q31.690624 238.04369 32.128124 237.74681Q32.58125 237.43431 33.14375 237.27806Q33.565624 237.16869 34.39375 237.07494Q36.096874 236.87181 36.909374 236.59056Q36.909374 236.29369 36.909374 236.21556Q36.909374 235.35619 36.51875 235.01244Q35.971874 234.52806 34.909374 234.52806Q33.925 234.52806 33.440624 234.88744Q32.971874 235.23119 32.753124 236.10619L31.378124 235.91869Q31.565624 235.04369 31.9875 234.49681Q32.425 233.94994 33.2375 233.66869Q34.05 233.37181 35.1125 233.37181Q36.175 233.37181 36.83125 233.62181Q37.503124 233.87181 37.815624 234.24681Q38.128124 234.62181 38.253124 235.19994Q38.33125 235.55931 38.33125 236.49681L38.33125 238.37181Q38.33125 240.34056 38.409374 240.85619Q38.503124 241.37181 38.76875 241.85619L37.3 241.85619Q37.08125 241.41869 37.01875 240.82494ZM36.909374 237.68431Q36.14375 237.99681 34.6125 238.21556Q33.7375 238.34056 33.378124 238.49681Q33.01875 238.65306 32.815624 238.96556Q32.628124 239.26244 32.628124 239.62181Q32.628124 240.18431 33.05 240.55931Q33.4875 240.93431 34.3 240.93431Q35.1125 240.93431 35.7375 240.59056Q36.378124 240.23119 36.675 239.60619Q36.909374 239.13744 36.909374 238.19994L36.909374 237.68431ZM43.675 240.59056L43.878124 241.84056Q43.284374 241.96556 42.815624 241.96556Q42.05 241.96556 41.628124 241.73119Q41.20625 241.48119 41.034374 241.09056Q40.8625 240.68431 40.8625 239.41869L40.8625 234.65306L39.83125 234.65306L39.83125 233.55931L40.8625 233.55931L40.8625 231.49681L42.26875 230.65306L42.26875 233.55931L43.675 233.55931L43.675 234.65306L42.26875 234.65306L42.26875 239.49681Q42.26875 240.10619 42.33125 240.27806Q42.409374 240.44994 42.58125 240.55931Q42.753124 240.65306 43.065624 240.65306Q43.3 240.65306 43.675 240.59056ZM50.05 241.85619L50.05 240.63744Q49.08125 242.04369 47.409374 242.04369Q46.675 242.04369 46.034374 241.76244Q45.409374 241.48119 45.096874 241.05931Q44.784374 240.62181 44.659374 240.01244Q44.58125 239.59056 44.58125 238.69994L44.58125 233.55931L45.9875 233.55931L45.9875 238.15306Q45.9875 239.26244 46.065624 239.63744Q46.20625 240.19994 46.628124 240.51244Q47.065624 240.82494 47.690624 240.82494Q48.33125 240.82494 48.878124 240.51244Q49.440624 240.18431 49.659374 239.62181Q49.89375 239.05931 49.89375 237.99681L49.89375 233.55931L51.3 233.55931L51.3 241.85619L50.05 241.85619ZM53.596874 241.85619L53.596874 233.55931L54.8625 233.55931L54.8625 234.80931Q55.346874 233.93431 55.753124 233.65306Q56.159374 233.37181 56.659374 233.37181Q57.3625 233.37181 58.096874 233.82494L57.6125 235.12181Q57.096874 234.82494 56.58125 234.82494Q56.128124 234.82494 55.753124 235.10619Q55.39375 235.37181 55.2375 235.87181Q55.003124 236.62181 55.003124 237.51244L55.003124 241.85619L53.596874 241.85619ZM64.28438 239.18431L65.7375 239.35619Q65.39375 240.63744 64.45625 241.34056Q63.534374 242.04369 62.096874 242.04369Q60.26875 242.04369 59.20625 240.91869Q58.14375 239.79369 58.14375 237.77806Q58.14375 235.68431 59.221874 234.52806Q60.3 233.37181 62.01875 233.37181Q63.675 233.37181 64.72188 234.51244Q65.78438 235.63744 65.78438 237.68431Q65.78438 237.80931 65.78438 238.05931L59.596874 238.05931Q59.675 239.43431 60.3625 240.16869Q61.065624 240.88744 62.096874 240.88744Q62.878124 240.88744 63.425 240.48119Q63.971874 240.07494 64.28438 239.18431ZM59.675 236.90306L64.3 236.90306Q64.20625 235.85619 63.76875 235.34056Q63.096874 234.52806 62.034374 234.52806Q61.065624 234.52806 60.39375 235.18431Q59.7375 235.82494 59.675 236.90306ZM67.05 239.37181L68.44063 239.15306Q68.55 239.99681 69.08125 240.44994Q69.62813 240.88744 70.58125 240.88744Q71.55 240.88744 72.01875 240.49681Q72.4875 240.09056 72.4875 239.55931Q72.4875 239.09056 72.08125 238.80931Q71.78438 238.62181 70.64375 238.34056Q69.09688 237.94994 68.4875 237.66869Q67.89375 237.37181 67.58125 236.87181Q67.28438 236.37181 67.28438 235.76244Q67.28438 235.19994 67.53438 234.73119Q67.78438 234.26244 68.22188 233.94994Q68.55 233.69994 69.1125 233.54369Q69.69063 233.37181 70.33125 233.37181Q71.31563 233.37181 72.05 233.65306Q72.78438 233.93431 73.12813 234.41869Q73.4875 234.88744 73.62813 235.69994L72.25313 235.88744Q72.15938 235.24681 71.70625 234.88744Q71.25313 234.52806 70.44063 234.52806Q69.47188 234.52806 69.05 234.85619Q68.64375 235.16869 68.64375 235.59056Q68.64375 235.87181 68.81563 236.09056Q68.9875 236.30931 69.34688 236.46556Q69.56563 236.54369 70.59688 236.82494Q72.08125 237.21556 72.675 237.48119Q73.26875 237.73119 73.59688 238.21556Q73.94063 238.69994 73.94063 239.41869Q73.94063 240.12181 73.51875 240.74681Q73.1125 241.35619 72.33125 241.69994Q71.56563 242.04369 70.59688 242.04369Q68.97188 242.04369 68.12813 241.37181Q67.28438 240.69994 67.05 239.37181ZM81.01875 238.80931L82.40938 238.99681Q82.175 240.41869 81.2375 241.23119Q80.31563 242.04369 78.95625 242.04369Q77.25313 242.04369 76.20625 240.93431Q75.175 239.80931 75.175 237.73119Q75.175 236.38744 75.6125 235.38744Q76.06563 234.37181 76.97188 233.87181Q77.89375 233.37181 78.95625 233.37181Q80.31563 233.37181 81.175 234.05931Q82.03438 234.73119 82.26875 235.99681L80.90938 236.19994Q80.70625 235.37181 80.20625 234.94994Q79.72188 234.52806 79.01875 234.52806Q77.95625 234.52806 77.28438 235.29369Q76.62813 236.04369 76.62813 237.69994Q76.62813 239.37181 77.26875 240.13744Q77.90938 240.88744 78.94063 240.88744Q79.76875 240.88744 80.31563 240.38744Q80.87813 239.87181 81.01875 238.80931ZM89.01875 240.82494Q88.2375 241.49681 87.51875 241.77806Q86.8 242.04369 85.97188 242.04369Q84.59688 242.04369 83.8625 241.37181Q83.12813 240.69994 83.12813 239.66869Q83.12813 239.05931 83.40938 238.55931Q83.69063 238.04369 84.12813 237.74681Q84.58125 237.43431 85.14375 237.27806Q85.56563 237.16869 86.39375 237.07494Q88.09688 236.87181 88.90938 236.59056Q88.90938 236.29369 88.90938 236.21556Q88.90938 235.35619 88.51875 235.01244Q87.97188 234.52806 86.90938 234.52806Q85.925 234.52806 85.44063 234.88744Q84.97188 235.23119 84.75313 236.10619L83.37813 235.91869Q83.56563 235.04369 83.9875 234.49681Q84.425 233.94994 85.2375 233.66869Q86.05 233.37181 87.1125 233.37181Q88.175 233.37181 88.83125 233.62181Q89.50313 233.87181 89.81563 234.24681Q90.12813 234.62181 90.25313 235.19994Q90.33125 235.55931 90.33125 236.49681L90.33125 238.37181Q90.33125 240.34056 90.40938 240.85619Q90.50313 241.37181 90.76875 241.85619L89.3 241.85619Q89.08125 241.41869 89.01875 240.82494ZM88.90938 237.68431Q88.14375 237.99681 86.6125 238.21556Q85.7375 238.34056 85.37813 238.49681Q85.01875 238.65306 84.81563 238.96556Q84.62813 239.26244 84.62813 239.62181Q84.62813 240.18431 85.05 240.55931Q85.4875 240.93431 86.3 240.93431Q87.1125 240.93431 87.7375 240.59056Q88.37813 240.23119 88.675 239.60619Q88.90938 239.13744 88.90938 238.19994L88.90938 237.68431ZM92.6125 245.04369L92.6125 233.55931L93.89375 233.55931L93.89375 234.63744Q94.34688 233.99681 94.90938 233.68431Q95.4875 233.37181 96.3 233.37181Q97.3625 233.37181 98.175 233.91869Q98.9875 234.46556 99.39375 235.46556Q99.81563 236.44994 99.81563 237.63744Q99.81563 238.91869 99.34688 239.93431Q98.89375 240.94994 98.01875 241.49681Q97.15938 242.04369 96.19063 242.04369Q95.4875 242.04369 94.925 241.74681Q94.37813 241.44994 94.01875 240.99681L94.01875 245.04369L92.6125 245.04369ZM93.87813 237.74681Q93.87813 239.35619 94.51875 240.12181Q95.175 240.88744 96.09688 240.88744Q97.03438 240.88744 97.70625 240.09056Q98.37813 239.29369 98.37813 237.63744Q98.37813 236.04369 97.72188 235.26244Q97.06563 234.46556 96.15938 234.46556Q95.26875 234.46556 94.56563 235.30931Q93.87813 236.15306 93.87813 237.74681ZM107.28438 239.18431L108.7375 239.35619Q108.39375 240.63744 107.45625 241.34056Q106.53438 242.04369 105.09688 242.04369Q103.26875 242.04369 102.20625 240.91869Q101.14375 239.79369 101.14375 237.77806Q101.14375 235.68431 102.22188 234.52806Q103.3 233.37181 105.01875 233.37181Q106.675 233.37181 107.72188 234.51244Q108.78438 235.63744 108.78438 237.68431Q108.78438 237.80931 108.78438 238.05931L102.59688 238.05931Q102.675 239.43431 103.3625 240.16869Q104.06563 240.88744 105.09688 240.88744Q105.87813 240.88744 106.425 240.48119Q106.97188 240.07494 107.28438 239.18431ZM102.675 236.90306L107.3 236.90306Q107.20625 235.85619 106.76875 235.34056Q106.09688 234.52806 105.03438 234.52806Q104.06563 234.52806 103.39375 235.18431Q102.7375 235.82494 102.675 236.90306Z" fill-rule="nonzero"/><path fill="#9e9e9e" d="M26.51875 255.19995L25.1125 255.30933Q24.925 254.4812 24.58125 254.1062Q24.01875 253.51245 23.175 253.51245Q22.503124 253.51245 22.003124 253.88745Q21.33125 254.37183 20.940624 255.30933Q20.565624 256.2312 20.55 257.94995Q21.065624 257.1687 21.8 256.7937Q22.534374 256.4187 23.33125 256.4187Q24.7375 256.4187 25.721874 257.46558Q26.721874 258.49683 26.721874 260.13745Q26.721874 261.21558 26.253124 262.13745Q25.784374 263.05933 24.971874 263.55933Q24.159374 264.05933 23.128124 264.05933Q21.378124 264.05933 20.26875 262.76245Q19.159374 261.46558 19.159374 258.49683Q19.159374 255.1687 20.378124 253.6687Q21.45625 252.3562 23.26875 252.3562Q24.6125 252.3562 25.471874 253.12183Q26.346874 253.87183 26.51875 255.19995ZM20.76875 260.13745Q20.76875 260.87183 21.08125 261.5437Q21.39375 262.19995 21.940624 262.5437Q22.503124 262.88745 23.1125 262.88745Q24.003124 262.88745 24.64375 262.1687Q25.284374 261.44995 25.284374 260.21558Q25.284374 259.02808 24.64375 258.3562Q24.01875 257.6687 23.05 257.6687Q22.096874 257.6687 21.425 258.3562Q20.76875 259.02808 20.76875 260.13745ZM28.221874 258.19995Q28.221874 256.1687 28.628124 254.93433Q29.05 253.69995 29.878124 253.02808Q30.70625 252.3562 31.95625 252.3562Q32.878124 252.3562 33.565624 252.7312Q34.26875 253.09058 34.721874 253.7937Q35.175 254.49683 35.425 255.49683Q35.690624 256.49683 35.690624 258.19995Q35.690624 260.21558 35.26875 261.46558Q34.8625 262.69995 34.034374 263.38745Q33.20625 264.05933 31.95625 264.05933Q30.3 264.05933 29.346874 262.8562Q28.221874 261.43433 28.221874 258.19995ZM29.659374 258.19995Q29.659374 261.02808 30.315624 261.96558Q30.9875 262.88745 31.95625 262.88745Q32.925 262.88745 33.58125 261.94995Q34.2375 261.01245 34.2375 258.19995Q34.2375 255.37183 33.58125 254.44995Q32.925 253.51245 31.940624 253.51245Q30.971874 253.51245 30.39375 254.34058Q29.659374 255.38745 29.659374 258.19995ZM38.003124 263.8562L38.003124 262.24683L39.6125 262.24683L39.6125 263.8562L38.003124 263.8562ZM41.221874 258.19995Q41.221874 256.1687 41.628124 254.93433Q42.05 253.69995 42.878124 253.02808Q43.70625 252.3562 44.95625 252.3562Q45.878124 252.3562 46.565624 252.7312Q47.26875 253.09058 47.721874 253.7937Q48.175 254.49683 48.425 255.49683Q48.690624 256.49683 48.690624 258.19995Q48.690624 260.21558 48.26875 261.46558Q47.8625 262.69995 47.034374 263.38745Q46.20625 264.05933 44.95625 264.05933Q43.3 264.05933 42.346874 262.8562Q41.221874 261.43433 41.221874 258.19995ZM42.659374 258.19995Q42.659374 261.02808 43.315624 261.96558Q43.9875 262.88745 44.95625 262.88745Q45.925 262.88745 46.58125 261.94995Q47.2375 261.01245 47.2375 258.19995Q47.2375 255.37183 46.58125 254.44995Q45.925 253.51245 44.940624 253.51245Q43.971874 253.51245 43.39375 254.34058Q42.659374 255.38745 42.659374 258.19995ZM50.4875 255.15308Q50.4875 253.9187 51.096874 253.05933Q51.721874 252.19995 52.89375 252.19995Q53.971874 252.19995 54.675 252.9812Q55.378124 253.74683 55.378124 255.2312Q55.378124 256.68433 54.659374 257.4812Q53.95625 258.26245 52.909374 258.26245Q51.8625 258.26245 51.175 257.49683Q50.4875 256.71558 50.4875 255.15308ZM52.925 253.1687Q52.409374 253.1687 52.05 253.62183Q51.70625 254.07495 51.70625 255.2937Q51.70625 256.38745 52.05 256.84058Q52.409374 257.2937 52.925 257.2937Q53.45625 257.2937 53.8 256.84058Q54.159374 256.38745 54.159374 255.18433Q54.159374 254.07495 53.8 253.62183Q53.45625 253.1687 52.925 253.1687ZM52.940624 264.27808L59.20625 252.19995L60.346874 252.19995L54.096874 264.27808L52.940624 264.27808ZM57.89375 261.1687Q57.89375 259.93433 58.503124 259.07495Q59.128124 258.21558 60.3 258.21558Q61.378124 258.21558 62.08125 258.99683Q62.8 259.76245 62.8 261.24683Q62.8 262.69995 62.08125 263.49683Q61.3625 264.27808 60.315624 264.27808Q59.26875 264.27808 58.58125 263.49683Q57.89375 262.71558 57.89375 261.1687ZM60.346874 259.18433Q59.815624 259.18433 59.45625 259.63745Q59.1125 260.09058 59.1125 261.30933Q59.1125 262.40308 59.45625 262.8562Q59.815624 263.30933 60.33125 263.30933Q60.878124 263.30933 61.221874 262.8562Q61.565624 262.40308 61.565624 261.19995Q61.565624 260.09058 61.20625 259.63745Q60.8625 259.18433 60.346874 259.18433Z" fill-rule="nonzero"/><path stroke="#757575" stroke-width="1.0" stroke-linecap="butt" d="M18.55 247.35619L145.23334 247.35619L165.58876 247.35619" fill-rule="nonzero"/><path fill="#9e9e9e" d="M167.58876 247.35619C167.58876 246.25162 166.69334 245.35619 165.58876 245.35619C164.48419 245.35619 163.58876 246.25162 163.58876 247.35619C163.58876 248.46075 164.48419 249.35619 165.58876 249.35619C166.69334 249.35619 167.58876 248.46075 167.58876 247.35619" fill-rule="nonzero"/><path fill="#efefef" d="M551.6375 83.84631L551.6375 72.39319L553.91876 72.39319L556.6375 80.50256Q557.0125 81.62756 557.1844 82.19006Q557.3719 81.56506 557.79376 80.36194L560.52814 72.39319L562.575 72.39319L562.575 83.84631L561.10626 83.84631L561.10626 74.25256L557.77814 83.84631L556.41876 83.84631L553.10626 74.09631L553.10626 83.84631L551.6375 83.84631ZM569.91876 82.81506Q569.1375 83.48694 568.41876 83.76819Q567.7 84.03381 566.8719 84.03381Q565.4969 84.03381 564.7625 83.36194Q564.02814 82.69006 564.02814 81.65881Q564.02814 81.04944 564.3094 80.54944Q564.59064 80.03381 565.02814 79.73694Q565.48126 79.42444 566.04376 79.26819Q566.46564 79.15881 567.29376 79.06506Q568.9969 78.86194 569.8094 78.58069Q569.8094 78.28381 569.8094 78.20569Q569.8094 77.34631 569.41876 77.00256Q568.8719 76.51819 567.8094 76.51819Q566.825 76.51819 566.34064 76.87756Q565.8719 77.22131 565.65314 78.09631L564.27814 77.90881Q564.46564 77.03381 564.8875 76.48694Q565.325 75.94006 566.1375 75.65881Q566.95 75.36194 568.0125 75.36194Q569.075 75.36194 569.73126 75.61194Q570.40314 75.86194 570.71564 76.23694Q571.02814 76.61194 571.15314 77.19006Q571.23126 77.54944 571.23126 78.48694L571.23126 80.36194Q571.23126 82.33069 571.3094 82.84631Q571.40314 83.36194 571.66876 83.84631L570.2 83.84631Q569.98126 83.40881 569.91876 82.81506ZM569.8094 79.67444Q569.04376 79.98694 567.5125 80.20569Q566.6375 80.33069 566.27814 80.48694Q565.91876 80.64319 565.71564 80.95569Q565.52814 81.25256 565.52814 81.61194Q565.52814 82.17444 565.95 82.54944Q566.3875 82.92444 567.2 82.92444Q568.0125 82.92444 568.6375 82.58069Q569.27814 82.22131 569.575 81.59631Q569.8094 81.12756 569.8094 80.19006L569.8094 79.67444ZM573.5125 87.03381L573.5125 75.54944L574.79376 75.54944L574.79376 76.62756Q575.2469 75.98694 575.8094 75.67444Q576.3875 75.36194 577.2 75.36194Q578.2625 75.36194 579.075 75.90881Q579.8875 76.45569 580.29376 77.45569Q580.71564 78.44006 580.71564 79.62756Q580.71564 80.90881 580.2469 81.92444Q579.79376 82.94006 578.91876 83.48694Q578.0594 84.03381 577.09064 84.03381Q576.3875 84.03381 575.825 83.73694Q575.27814 83.44006 574.91876 82.98694L574.91876 87.03381L573.5125 87.03381ZM574.77814 79.73694Q574.77814 81.34631 575.41876 82.11194Q576.075 82.87756 576.9969 82.87756Q577.9344 82.87756 578.60626 82.08069Q579.27814 81.28381 579.27814 79.62756Q579.27814 78.03381 578.6219 77.25256Q577.96564 76.45569 577.0594 76.45569Q576.16876 76.45569 575.46564 77.29944Q574.77814 78.14319 574.77814 79.73694Z" fill-rule="nonzero"/><path fill="#9e9e9e" d="M544.5125 104.48694L544.5125 105.84631L536.9344 105.84631Q536.91876 105.33069 537.10626 104.86194Q537.3875 104.09631 538.02814 103.34631Q538.66876 102.59631 539.8719 101.61194Q541.73126 100.08069 542.3875 99.19006Q543.04376 98.28381 543.04376 97.48694Q543.04376 96.65881 542.45 96.08069Q541.85626 95.50256 540.8875 95.50256Q539.8719 95.50256 539.2625 96.11194Q538.65314 96.72131 538.65314 97.79944L537.2 97.65881Q537.35626 96.03381 538.325 95.19006Q539.29376 94.34631 540.91876 94.34631Q542.575 94.34631 543.52814 95.26819Q544.4969 96.17444 544.4969 97.51819Q544.4969 98.20569 544.21564 98.87756Q543.9344 99.53381 543.27814 100.26819Q542.6219 101.00256 541.10626 102.28381Q539.84064 103.34631 539.48126 103.73694Q539.1219 104.11194 538.8875 104.48694L544.5125 104.48694ZM546.1219 100.19006Q546.1219 98.15881 546.52814 96.92444Q546.95 95.69006 547.77814 95.01819Q548.60626 94.34631 549.85626 94.34631Q550.77814 94.34631 551.46564 94.72131Q552.16876 95.08069 552.6219 95.78381Q553.075 96.48694 553.325 97.48694Q553.59064 98.48694 553.59064 100.19006Q553.59064 102.20569 553.16876 103.45569Q552.7625 104.69006 551.9344 105.37756Q551.10626 106.04944 549.85626 106.04944Q548.2 106.04944 547.2469 104.84631Q546.1219 103.42444 546.1219 100.19006ZM547.5594 100.19006Q547.5594 103.01819 548.21564 103.95569Q548.8875 104.87756 549.85626 104.87756Q550.825 104.87756 551.48126 103.94006Q552.1375 103.00256 552.1375 100.19006Q552.1375 97.36194 551.48126 96.44006Q550.825 95.50256 549.84064 95.50256Q548.8719 95.50256 548.29376 96.33069Q547.5594 97.37756 547.5594 100.19006ZM555.90314 105.84631L555.90314 104.23694L557.5125 104.23694L557.5125 105.84631L555.90314 105.84631ZM559.1219 100.19006Q559.1219 98.15881 559.52814 96.92444Q559.95 95.69006 560.77814 95.01819Q561.60626 94.34631 562.85626 94.34631Q563.77814 94.34631 564.46564 94.72131Q565.16876 95.08069 565.6219 95.78381Q566.075 96.48694 566.325 97.48694Q566.59064 98.48694 566.59064 100.19006Q566.59064 102.20569 566.16876 103.45569Q565.7625 104.69006 564.9344 105.37756Q564.10626 106.04944 562.85626 106.04944Q561.2 106.04944 560.2469 104.84631Q559.1219 103.42444 559.1219 100.19006ZM560.5594 100.19006Q560.5594 103.01819 561.21564 103.95569Q561.8875 104.87756 562.85626 104.87756Q563.825 104.87756 564.48126 103.94006Q565.1375 103.00256 565.1375 100.19006Q565.1375 97.36194 564.48126 96.44006Q563.825 95.50256 562.84064 95.50256Q561.8719 95.50256 561.29376 96.33069Q560.5594 97.37756 560.5594 100.19006ZM568.3875 97.14319Q568.3875 95.90881 568.9969 95.04944Q569.6219 94.19006 570.79376 94.19006Q571.8719 94.19006 572.575 94.97131Q573.27814 95.73694 573.27814 97.22131Q573.27814 98.67444 572.5594 99.47131Q571.85626 100.25256 570.8094 100.25256Q569.7625 100.25256 569.075 99.48694Q568.3875 98.70569 568.3875 97.14319ZM570.825 95.15881Q570.3094 95.15881 569.95 95.61194Q569.60626 96.06506 569.60626 97.28381Q569.60626 98.37756 569.95 98.83069Q570.3094 99.28381 570.825 99.28381Q571.35626 99.28381 571.7 98.83069Q572.0594 98.37756 572.0594 97.17444Q572.0594 96.06506 571.7 95.61194Q571.35626 95.15881 570.825 95.15881ZM570.84064 106.26819L577.10626 94.19006L578.2469 94.19006L571.9969 106.26819L570.84064 106.26819ZM575.79376 103.15881Q575.79376 101.92444 576.40314 101.06506Q577.02814 100.20569 578.2 100.20569Q579.27814 100.20569 579.98126 100.98694Q580.7 101.75256 580.7 103.23694Q580.7 104.69006 579.98126 105.48694Q579.2625 106.26819 578.21564 106.26819Q577.16876 106.26819 576.48126 105.48694Q575.79376 104.70569 575.79376 103.15881ZM578.2469 101.17444Q577.71564 101.17444 577.35626 101.62756Q577.0125 102.08069 577.0125 103.29944Q577.0125 104.39319 577.35626 104.84631Q577.71564 105.29944 578.23126 105.29944Q578.77814 105.29944 579.1219 104.84631Q579.46564 104.39319 579.46564 103.19006Q579.46564 102.08069 579.10626 101.62756Q578.7625 101.17444 578.2469 101.17444Z" fill-rule="nonzero"/><path stroke="#757575" stroke-width="1.0" stroke-linecap="butt" d="M581.45 89.34631L454.76666 89.34631L383.0707 89.34631" fill-rule="nonzero"/><path fill="#9e9e9e" d="M385.0707 89.34631C385.0707 88.24174 384.1753 87.34631 383.0707 87.34631C381.96613 87.34631 381.0707 88.24174 381.0707 89.34631C381.0707 90.45088 381.96613 91.34631 383.0707 91.34631C384.1753 91.34631 385.0707 90.45088 385.0707 89.34631" fill-rule="nonzero"/><path fill="#efefef" d="M532.6844 241.85619L532.6844 230.40306L536.6375 230.40306Q537.96564 230.40306 538.66876 230.55931Q539.65314 230.79369 540.35626 231.38744Q541.2625 232.15306 541.7 233.34056Q542.15314 234.52806 542.15314 236.05931Q542.15314 237.37181 541.84064 238.38744Q541.54376 239.38744 541.0594 240.04369Q540.59064 240.69994 540.02814 241.09056Q539.46564 241.46556 538.65314 241.66869Q537.85626 241.85619 536.825 241.85619L532.6844 241.85619ZM534.2 240.49681L536.65314 240.49681Q537.77814 240.49681 538.41876 240.29369Q539.075 240.07494 539.45 239.69994Q539.9969 239.15306 540.29376 238.24681Q540.59064 237.34056 540.59064 236.04369Q540.59064 234.24681 539.9969 233.27806Q539.41876 232.30931 538.575 231.98119Q537.96564 231.74681 536.60626 231.74681L534.2 231.74681L534.2 240.49681ZM550.1844 239.18431L551.6375 239.35619Q551.29376 240.63744 550.35626 241.34056Q549.4344 242.04369 547.9969 242.04369Q546.16876 242.04369 545.10626 240.91869Q544.04376 239.79369 544.04376 237.77806Q544.04376 235.68431 545.1219 234.52806Q546.2 233.37181 547.91876 233.37181Q549.575 233.37181 550.6219 234.51244Q551.6844 235.63744 551.6844 237.68431Q551.6844 237.80931 551.6844 238.05931L545.4969 238.05931Q545.575 239.43431 546.2625 240.16869Q546.96564 240.88744 547.9969 240.88744Q548.77814 240.88744 549.325 240.48119Q549.8719 240.07494 550.1844 239.18431ZM545.575 236.90306L550.2 236.90306Q550.10626 235.85619 549.66876 235.34056Q548.9969 234.52806 547.9344 234.52806Q546.96564 234.52806 546.29376 235.18431Q545.6375 235.82494 545.575 236.90306ZM556.575 240.59056L556.77814 241.84056Q556.1844 241.96556 555.71564 241.96556Q554.95 241.96556 554.52814 241.73119Q554.10626 241.48119 553.9344 241.09056Q553.7625 240.68431 553.7625 239.41869L553.7625 234.65306L552.73126 234.65306L552.73126 233.55931L553.7625 233.55931L553.7625 231.49681L555.16876 230.65306L555.16876 233.55931L556.575 233.55931L556.575 234.65306L555.16876 234.65306L555.16876 239.49681Q555.16876 240.10619 555.23126 240.27806Q555.3094 240.44994 555.48126 240.55931Q555.65314 240.65306 555.96564 240.65306Q556.2 240.65306 556.575 240.59056ZM562.91876 240.82494Q562.1375 241.49681 561.41876 241.77806Q560.7 242.04369 559.8719 242.04369Q558.4969 242.04369 557.7625 241.37181Q557.02814 240.69994 557.02814 239.66869Q557.02814 239.05931 557.3094 238.55931Q557.59064 238.04369 558.02814 237.74681Q558.48126 237.43431 559.04376 237.27806Q559.46564 237.16869 560.29376 237.07494Q561.9969 236.87181 562.8094 236.59056Q562.8094 236.29369 562.8094 236.21556Q562.8094 235.35619 562.41876 235.01244Q561.8719 234.52806 560.8094 234.52806Q559.825 234.52806 559.34064 234.88744Q558.8719 235.23119 558.65314 236.10619L557.27814 235.91869Q557.46564 235.04369 557.8875 234.49681Q558.325 233.94994 559.1375 233.66869Q559.95 233.37181 561.0125 233.37181Q562.075 233.37181 562.73126 233.62181Q563.40314 233.87181 563.71564 234.24681Q564.02814 234.62181 564.15314 235.19994Q564.23126 235.55931 564.23126 236.49681L564.23126 238.37181Q564.23126 240.34056 564.3094 240.85619Q564.40314 241.37181 564.66876 241.85619L563.2 241.85619Q562.98126 241.41869 562.91876 240.82494ZM562.8094 237.68431Q562.04376 237.99681 560.5125 238.21556Q559.6375 238.34056 559.27814 238.49681Q558.91876 238.65306 558.71564 238.96556Q558.52814 239.26244 558.52814 239.62181Q558.52814 240.18431 558.95 240.55931Q559.3875 240.93431 560.2 240.93431Q561.0125 240.93431 561.6375 240.59056Q562.27814 240.23119 562.575 239.60619Q562.8094 239.13744 562.8094 238.19994L562.8094 237.68431ZM566.5125 232.01244L566.5125 230.40306L567.91876 230.40306L567.91876 232.01244L566.5125 232.01244ZM566.5125 241.85619L566.5125 233.55931L567.91876 233.55931L567.91876 241.85619L566.5125 241.85619ZM570.48126 241.85619L570.48126 230.40306L571.8875 230.40306L571.8875 241.85619L570.48126 241.85619ZM573.95 239.37181L575.34064 239.15306Q575.45 239.99681 575.98126 240.44994Q576.52814 240.88744 577.48126 240.88744Q578.45 240.88744 578.91876 240.49681Q579.3875 240.09056 579.3875 239.55931Q579.3875 239.09056 578.98126 238.80931Q578.6844 238.62181 577.54376 238.34056Q575.9969 237.94994 575.3875 237.66869Q574.79376 237.37181 574.48126 236.87181Q574.1844 236.37181 574.1844 235.76244Q574.1844 235.19994 574.4344 234.73119Q574.6844 234.26244 575.1219 233.94994Q575.45 233.69994 576.0125 233.54369Q576.59064 233.37181 577.23126 233.37181Q578.21564 233.37181 578.95 233.65306Q579.6844 233.93431 580.02814 234.41869Q580.3875 234.88744 580.52814 235.69994L579.15314 235.88744Q579.0594 235.24681 578.60626 234.88744Q578.15314 234.52806 577.34064 234.52806Q576.3719 234.52806 575.95 234.85619Q575.54376 235.16869 575.54376 235.59056Q575.54376 235.87181 575.71564 236.09056Q575.8875 236.30931 576.2469 236.46556Q576.46564 236.54369 577.4969 236.82494Q578.98126 237.21556 579.575 237.48119Q580.16876 237.73119 580.4969 238.21556Q580.84064 238.69994 580.84064 239.41869Q580.84064 240.12181 580.41876 240.74681Q580.0125 241.35619 579.23126 241.69994Q578.46564 242.04369 577.4969 242.04369Q575.8719 242.04369 575.02814 241.37181Q574.1844 240.69994 573.95 239.37181Z" fill-rule="nonzero"/><path fill="#9e9e9e" d="M544.5125 262.49683L544.5125 263.8562L536.9344 263.8562Q536.91876 263.34058 537.10626 262.87183Q537.3875 262.1062 538.02814 261.3562Q538.66876 260.6062 539.8719 259.62183Q541.73126 258.09058 542.3875 257.19995Q543.04376 256.2937 543.04376 255.49683Q543.04376 254.6687 542.45 254.09058Q541.85626 253.51245 540.8875 253.51245Q539.8719 253.51245 539.2625 254.12183Q538.65314 254.7312 538.65314 255.80933L537.2 255.6687Q537.35626 254.0437 538.325 253.19995Q539.29376 252.3562 540.91876 252.3562Q542.575 252.3562 543.52814 253.27808Q544.4969 254.18433 544.4969 255.52808Q544.4969 256.21558 544.21564 256.88745Q543.9344 257.5437 543.27814 258.27808Q542.6219 259.01245 541.10626 260.2937Q539.84064 261.3562 539.48126 261.74683Q539.1219 262.12183 538.8875 262.49683L544.5125 262.49683ZM546.1219 258.19995Q546.1219 256.1687 546.52814 254.93433Q546.95 253.69995 547.77814 253.02808Q548.60626 252.3562 549.85626 252.3562Q550.77814 252.3562 551.46564 252.7312Q552.16876 253.09058 552.6219 253.7937Q553.075 254.49683 553.325 255.49683Q553.59064 256.49683 553.59064 258.19995Q553.59064 260.21558 553.16876 261.46558Q552.7625 262.69995 551.9344 263.38745Q551.10626 264.05933 549.85626 264.05933Q548.2 264.05933 547.2469 262.8562Q546.1219 261.43433 546.1219 258.19995ZM547.5594 258.19995Q547.5594 261.02808 548.21564 261.96558Q548.8875 262.88745 549.85626 262.88745Q550.825 262.88745 551.48126 261.94995Q552.1375 261.01245 552.1375 258.19995Q552.1375 255.37183 551.48126 254.44995Q550.825 253.51245 549.84064 253.51245Q548.8719 253.51245 548.29376 254.34058Q547.5594 255.38745 547.5594 258.19995ZM555.90314 263.8562L555.90314 262.24683L557.5125 262.24683L557.5125 263.8562L555.90314 263.8562ZM559.1219 258.19995Q559.1219 256.1687 559.52814 254.93433Q559.95 253.69995 560.77814 253.02808Q561.60626 252.3562 562.85626 252.3562Q563.77814 252.3562 564.46564 252.7312Q565.16876 253.09058 565.6219 253.7937Q566.075 254.49683 566.325 255.49683Q566.59064 256.49683 566.59064 258.19995Q566.59064 260.21558 566.16876 261.46558Q565.7625 262.69995 564.9344 263.38745Q564.10626 264.05933 562.85626 264.05933Q561.2 264.05933 560.2469 262.8562Q559.1219 261.43433 559.1219 258.19995ZM560.5594 258.19995Q560.5594 261.02808 561.21564 261.96558Q561.8875 262.88745 562.85626 262.88745Q563.825 262.88745 564.48126 261.94995Q565.1375 261.01245 565.1375 258.19995Q565.1375 255.37183 564.48126 254.44995Q563.825 253.51245 562.84064 253.51245Q561.8719 253.51245 561.29376 254.34058Q560.5594 255.38745 560.5594 258.19995ZM568.3875 255.15308Q568.3875 253.9187 568.9969 253.05933Q569.6219 252.19995 570.79376 252.19995Q571.8719 252.19995 572.575 252.9812Q573.27814 253.74683 573.27814 255.2312Q573.27814 256.68433 572.5594 257.4812Q571.85626 258.26245 570.8094 258.26245Q569.7625 258.26245 569.075 257.49683Q568.3875 256.71558 568.3875 255.15308ZM570.825 253.1687Q570.3094 253.1687 569.95 253.62183Q569.60626 254.07495 569.60626 255.2937Q569.60626 256.38745 569.95 256.84058Q570.3094 257.2937 570.825 257.2937Q571.35626 257.2937 571.7 256.84058Q572.0594 256.38745 572.0594 255.18433Q572.0594 254.07495 571.7 253.62183Q571.35626 253.1687 570.825 253.1687ZM570.84064 264.27808L577.10626 252.19995L578.2469 252.19995L571.9969 264.27808L570.84064 264.27808ZM575.79376 261.1687Q575.79376 259.93433 576.40314 259.07495Q577.02814 258.21558 578.2 258.21558Q579.27814 258.21558 579.98126 258.99683Q580.7 259.76245 580.7 261.24683Q580.7 262.69995 579.98126 263.49683Q579.2625 264.27808 578.21564 264.27808Q577.16876 264.27808 576.48126 263.49683Q575.79376 262.71558 575.79376 261.1687ZM578.2469 259.18433Q577.71564 259.18433 577.35626 259.63745Q577.0125 260.09058 577.0125 261.30933Q577.0125 262.40308 577.35626 262.8562Q577.71564 263.30933 578.23126 263.30933Q578.77814 263.30933 579.1219 262.8562Q579.46564 262.40308 579.46564 261.19995Q579.46564 260.09058 579.10626 259.63745Q578.7625 259.18433 578.2469 259.18433Z" fill-rule="nonzero"/><path stroke="#757575" stroke-width="1.0" stroke-linecap="butt" d="M581.45 247.35619L454.76666 247.35619L434.41122 247.35619" fill-rule="nonzero"/><path fill="#9e9e9e" d="M436.41122 247.35619C436.41122 246.25162 435.5158 245.35619 434.41122 245.35619C433.30667 245.35619 432.41122 246.25162 432.41122 247.35619C432.41122 248.46075 433.30667 249.35619 434.41122 249.35619C435.5158 249.35619 436.41122 248.46075 436.41122 247.35619" fill-rule="nonzero"/><path fill="#f3f3f3" d="M265.98438 37.55L265.98438 23.2375L268.84375 23.2375L272.21875 33.3625Q272.6875 34.784374 272.90625 35.4875Q273.15625 34.70625 273.67188 33.190624L277.09375 23.2375L279.64062 23.2375L279.64062 37.55L277.82812 37.55L277.82812 25.565624L273.65625 37.55L271.95312 37.55L267.8125 25.3625L267.8125 37.55L265.98438 37.55ZM289.92188 34.20625L291.73438 34.440624Q291.3125 36.01875 290.14062 36.909374Q288.98438 37.784374 287.17188 37.784374Q284.90625 37.784374 283.5625 36.39375Q282.23438 34.9875 282.23438 32.45625Q282.23438 29.83125 283.57812 28.39375Q284.92188 26.940624 287.07812 26.940624Q289.15625 26.940624 290.46875 28.3625Q291.79688 29.76875 291.79688 32.346874Q291.79688 32.503124 291.78125 32.815624L284.04688 32.815624Q284.14062 34.51875 285.01562 35.425Q285.89062 36.33125 287.1875 36.33125Q288.15625 36.33125 288.82812 35.83125Q289.51562 35.315624 289.92188 34.20625ZM284.14062 31.3625L289.9375 31.3625Q289.82812 30.065624 289.28125 29.409374Q288.4375 28.39375 287.09375 28.39375Q285.89062 28.39375 285.0625 29.20625Q284.23438 30.003124 284.14062 31.3625ZM300.54688 37.55L300.54688 36.2375Q299.5625 37.784374 297.64062 37.784374Q296.40625 37.784374 295.35938 37.096874Q294.32812 36.409374 293.75 35.190624Q293.1875 33.971874 293.1875 32.378124Q293.1875 30.815624 293.70312 29.55Q294.21875 28.284374 295.25 27.6125Q296.29688 26.940624 297.5625 26.940624Q298.5 26.940624 299.23438 27.346874Q299.96875 27.7375 300.4375 28.3625L300.4375 23.2375L302.17188 23.2375L302.17188 37.55L300.54688 37.55ZM294.98438 32.378124Q294.98438 34.3625 295.82812 35.346874Q296.67188 36.33125 297.8125 36.33125Q298.96875 36.33125 299.76562 35.39375Q300.57812 34.45625 300.57812 32.51875Q300.57812 30.39375 299.75 29.39375Q298.9375 28.39375 297.73438 28.39375Q296.5625 28.39375 295.76562 29.3625Q294.98438 30.315624 294.98438 32.378124ZM304.82812 25.253124L304.82812 23.2375L306.59375 23.2375L306.59375 25.253124L304.82812 25.253124ZM304.82812 37.55L304.82812 27.175L306.59375 27.175L306.59375 37.55L304.82812 37.55ZM315.60938 37.55L315.60938 36.01875Q314.40625 37.784374 312.32812 37.784374Q311.40625 37.784374 310.60938 37.440624Q309.8125 37.08125 309.42188 36.55Q309.04688 36.01875 308.89062 35.2375Q308.78125 34.721874 308.78125 33.596874L308.78125 27.175L310.53125 27.175L310.53125 32.925Q310.53125 34.3 310.64062 34.784374Q310.8125 35.471874 311.34375 35.878124Q311.89062 36.26875 312.67188 36.26875Q313.46875 36.26875 314.15625 35.8625Q314.85938 35.45625 315.14062 34.76875Q315.4375 34.065624 315.4375 32.7375L315.4375 27.175L317.1875 27.175L317.1875 37.55L315.60938 37.55ZM319.8125 37.55L319.8125 27.175L321.39062 27.175L321.39062 28.628124Q321.875 27.878124 322.6875 27.409374Q323.5 26.940624 324.53125 26.940624Q325.6875 26.940624 326.42188 27.425Q327.15625 27.89375 327.46875 28.753124Q328.70312 26.940624 330.67188 26.940624Q332.21875 26.940624 333.04688 27.8Q333.875 28.659374 333.875 30.425L333.875 37.55L332.125 37.55L332.125 31.01875Q332.125 29.95625 331.95312 29.503124Q331.78125 29.034374 331.32812 28.753124Q330.89062 28.471874 330.28125 28.471874Q329.1875 28.471874 328.45312 29.20625Q327.73438 29.925 327.73438 31.51875L327.73438 37.55L325.98438 37.55L325.98438 30.815624Q325.98438 29.64375 325.54688 29.065624Q325.125 28.471874 324.14062 28.471874Q323.40625 28.471874 322.76562 28.8625Q322.14062 29.253124 321.85938 30.003124Q321.57812 30.753124 321.57812 32.175L321.57812 37.55L319.8125 37.55Z" fill-rule="nonzero"/></svg>