<svg version="1.1" viewBox="0.0 0.0 600.0 371.0" fill="none" stroke="none" stroke-linecap="square" stroke-miterlimit="10" width="600" height="371" xmlns:xlink="http://www.w3.org/1999/xlink" xmlns="http://www.w3.org/2000/svg"><path fill="#ffffff" fill-opacity="0.0" d="M0 0L600.0 0L600.0 371.0L0 371.0L0 0Z" fill-rule="nonzero"/><path fill="#d0473d" d="M153.49344 177.85027C166.03006 106.751564 227.80449 54.916668 300.0 54.916668L300.0 129.3C263.90225 129.3 233.01503 155.21745 226.74672 190.7668Z" fill-rule="nonzero"/><path fill="#8c4595" d="M171.16429 278.06668C153.67657 247.77705 147.42001 212.29436 153.49344 177.85027L226.74672 190.7668C223.71 207.98885 226.83829 225.7302 235.58214 240.875Z" fill-rule="nonzero"/><path fill="#78a94e" d="M300.0 54.916668C372.19553 54.916668 433.96994 106.751564 446.50656 177.85027C459.04318 248.94897 418.72278 318.78595 350.8812 343.47827C283.0396 368.1706 207.26204 340.5898 171.16429 278.06668L235.58214 240.875C253.63103 272.13657 291.5198 285.92697 325.4406 273.5808C359.3614 261.23465 379.5216 226.31616 373.2533 190.7668C366.985 155.21745 336.09775 129.3 300.0 129.3Z" fill-rule="nonzero"/><path fill="#ffffff" d="M380.0799 256.23645L378.5174 256.36145Q378.29865 255.43958 377.90802 255.0177Q377.2674 254.3302 376.3299 254.3302Q375.5799 254.3302 375.00177 254.75208Q374.25177 255.29895 373.81427 256.34583Q373.3924 257.3927 373.37677 259.3302Q373.9549 258.4552 374.7674 258.03333Q375.59552 257.61145 376.50177 257.61145Q378.09552 257.61145 379.2049 258.78333Q380.31427 259.93958 380.31427 261.78333Q380.31427 263.00208 379.78302 264.04895Q379.2674 265.0802 378.34552 265.6427Q377.43927 266.18958 376.28302 266.18958Q374.29865 266.18958 373.04865 264.73645Q371.79865 263.28333 371.79865 259.93958Q371.79865 256.2052 373.18927 254.50208Q374.3924 253.03333 376.42365 253.03333Q377.9549 253.03333 378.92365 253.8927Q379.8924 254.73645 380.0799 256.23645ZM373.62677 261.79895Q373.62677 262.61145 373.97052 263.36145Q374.31427 264.11145 374.93927 264.50208Q375.56427 264.8927 376.25177 264.8927Q377.25177 264.8927 377.97052 264.0802Q378.68927 263.2677 378.68927 261.87708Q378.68927 260.54895 377.97052 259.78333Q377.2674 259.00208 376.18927 259.00208Q375.11115 259.00208 374.36115 259.78333Q373.62677 260.54895 373.62677 261.79895ZM390.0799 256.23645L388.5174 256.36145Q388.29865 255.43958 387.90802 255.0177Q387.2674 254.3302 386.3299 254.3302Q385.5799 254.3302 385.00177 254.75208Q384.25177 255.29895 383.81427 256.34583Q383.3924 257.3927 383.37677 259.3302Q383.9549 258.4552 384.7674 258.03333Q385.59552 257.61145 386.50177 257.61145Q388.09552 257.61145 389.2049 258.78333Q390.31427 259.93958 390.31427 261.78333Q390.31427 263.00208 389.78302 264.04895Q389.2674 265.0802 388.34552 265.6427Q387.43927 266.18958 386.28302 266.18958Q384.29865 266.18958 383.04865 264.73645Q381.79865 263.28333 381.79865 259.93958Q381.79865 256.2052 383.18927 254.50208Q384.3924 253.03333 386.42365 253.03333Q387.9549 253.03333 388.92365 253.8927Q389.8924 254.73645 390.0799 256.23645ZM383.62677 261.79895Q383.62677 262.61145 383.97052 263.36145Q384.31427 264.11145 384.93927 264.50208Q385.56427 264.8927 386.25177 264.8927Q387.25177 264.8927 387.97052 264.0802Q388.68927 263.2677 388.68927 261.87708Q388.68927 260.54895 387.97052 259.78333Q387.2674 259.00208 386.18927 259.00208Q385.11115 259.00208 384.36115 259.78333Q383.62677 260.54895 383.62677 261.79895ZM392.7674 265.97083L392.7674 264.17395L394.56427 264.17395L394.56427 265.97083L392.7674 265.97083ZM396.98615 254.7677L396.98615 253.25208L405.31427 253.25208L405.31427 254.48645Q404.09552 255.79895 402.87677 257.97083Q401.67365 260.12708 401.0174 262.42395Q400.53302 264.04895 400.40802 265.97083L398.78302 265.97083Q398.81427 264.4552 399.37677 262.29895Q399.9549 260.1427 401.0174 258.1427Q402.0799 256.1427 403.28302 254.7677L396.98615 254.7677ZM407.17365 256.17395Q407.17365 254.79895 407.86115 253.8302Q408.56427 252.86145 409.87677 252.86145Q411.09552 252.86145 411.8924 253.73645Q412.68927 254.59583 412.68927 256.28333Q412.68927 257.90833 411.87677 258.79895Q411.0799 259.67395 409.8924 259.67395Q408.73615 259.67395 407.9549 258.81458Q407.17365 257.93958 407.17365 256.17395ZM409.92365 253.9552Q409.3299 253.9552 408.93927 254.47083Q408.54865 254.97083 408.54865 256.3302Q408.54865 257.5802 408.93927 258.0802Q409.34552 258.5802 409.92365 258.5802Q410.5174 258.5802 410.90802 258.0802Q411.29865 257.56458 411.29865 256.22083Q411.29865 254.97083 410.90802 254.47083Q410.5174 253.9552 409.92365 253.9552ZM409.93927 266.43958L416.98615 252.86145L418.2674 252.86145L411.23615 266.43958L409.93927 266.43958ZM415.50177 262.93958Q415.50177 261.56458 416.18927 260.59583Q416.8924 259.62708 418.22052 259.62708Q419.43927 259.62708 420.22052 260.50208Q421.0174 261.36145 421.0174 263.04895Q421.0174 264.67395 420.22052 265.56458Q419.42365 266.43958 418.23615 266.43958Q417.06427 266.43958 416.28302 265.56458Q415.50177 264.68958 415.50177 262.93958ZM418.2674 260.72083Q417.67365 260.72083 417.28302 261.23645Q416.8924 261.73645 416.8924 263.11145Q416.8924 264.3302 417.28302 264.84583Q417.67365 265.36145 418.25177 265.36145Q418.86115 265.36145 419.25177 264.84583Q419.6424 264.3302 419.6424 262.98645Q419.6424 261.73645 419.25177 261.23645Q418.86115 260.72083 418.2674 260.72083Z" fill-rule="nonzero"/><path fill="#ffffff" d="M171.3232 229.55814L169.74507 229.55814L169.74507 219.48001Q169.16695 220.02689 168.24507 220.57376Q167.3232 221.10501 166.5732 221.38626L166.5732 219.85501Q167.90132 219.23001 168.90132 218.33939Q169.90132 217.44876 170.30757 216.62064L171.3232 216.62064L171.3232 229.55814ZM181.3232 229.55814L179.74507 229.55814L179.74507 219.48001Q179.16695 220.02689 178.24507 220.57376Q177.3232 221.10501 176.5732 221.38626L176.5732 219.85501Q177.90132 219.23001 178.90132 218.33939Q179.90132 217.44876 180.30757 216.62064L181.3232 216.62064L181.3232 229.55814ZM186.2607 229.55814L186.2607 227.76126L188.05757 227.76126L188.05757 229.55814L186.2607 229.55814ZM196.3232 229.55814L194.74507 229.55814L194.74507 219.48001Q194.16695 220.02689 193.24507 220.57376Q192.3232 221.10501 191.5732 221.38626L191.5732 219.85501Q192.90132 219.23001 193.90132 218.33939Q194.90132 217.44876 195.30757 216.62064L196.3232 216.62064L196.3232 229.55814ZM200.66695 219.76126Q200.66695 218.38626 201.35445 217.41751Q202.05757 216.44876 203.37007 216.44876Q204.58882 216.44876 205.3857 217.32376Q206.18257 218.18314 206.18257 219.87064Q206.18257 221.49564 205.37007 222.38626Q204.5732 223.26126 203.3857 223.26126Q202.22945 223.26126 201.4482 222.40189Q200.66695 221.52689 200.66695 219.76126ZM203.41695 217.54251Q202.8232 217.54251 202.43257 218.05814Q202.04195 218.55814 202.04195 219.91751Q202.04195 221.16751 202.43257 221.66751Q202.83882 222.16751 203.41695 222.16751Q204.0107 222.16751 204.40132 221.66751Q204.79195 221.15189 204.79195 219.80814Q204.79195 218.55814 204.40132 218.05814Q204.0107 217.54251 203.41695 217.54251ZM203.43257 230.02689L210.47945 216.44876L211.7607 216.44876L204.72945 230.02689L203.43257 230.02689ZM208.99507 226.52689Q208.99507 225.15189 209.68257 224.18314Q210.3857 223.21439 211.71382 223.21439Q212.93257 223.21439 213.71382 224.08939Q214.5107 224.94876 214.5107 226.63626Q214.5107 228.26126 213.71382 229.15189Q212.91695 230.02689 211.72945 230.02689Q210.55757 230.02689 209.77632 229.15189Q208.99507 228.27689 208.99507 226.52689ZM211.7607 224.30814Q211.16695 224.30814 210.77632 224.82376Q210.3857 225.32376 210.3857 226.69876Q210.3857 227.91751 210.77632 228.43314Q211.16695 228.94876 211.74507 228.94876Q212.35445 228.94876 212.74507 228.43314Q213.1357 227.91751 213.1357 226.57376Q213.1357 225.32376 212.74507 224.82376Q212.35445 224.30814 211.7607 224.30814Z" fill-rule="nonzero"/><path fill="#ffffff" d="M211.84348 123.1963L211.84348 124.71192L203.32785 124.71192Q203.31223 124.1338 203.51535 123.61817Q203.84348 122.74317 204.5466 121.89942Q205.26535 121.05567 206.62473 119.9463Q208.71848 118.22755 209.45285 117.22755Q210.20285 116.21192 210.20285 115.3213Q210.20285 114.36817 209.53098 113.72755Q208.8591 113.08692 207.78098 113.08692Q206.62473 113.08692 205.93723 113.77442Q205.26535 114.46192 205.24973 115.66505L203.62473 115.49317Q203.7966 113.68067 204.87473 112.72755Q205.96848 111.77442 207.81223 111.77442Q209.65598 111.77442 210.7341 112.80567Q211.82785 113.83692 211.82785 115.35255Q211.82785 116.11817 211.49973 116.86817Q211.18723 117.61817 210.45285 118.4463Q209.71848 119.27442 208.01535 120.71192Q206.59348 121.91505 206.18723 122.33692Q205.78098 122.7588 205.53098 123.1963L211.84348 123.1963ZM221.84348 123.1963L221.84348 124.71192L213.32785 124.71192Q213.31223 124.1338 213.51535 123.61817Q213.84348 122.74317 214.5466 121.89942Q215.26535 121.05567 216.62473 119.9463Q218.71848 118.22755 219.45285 117.22755Q220.20285 116.21192 220.20285 115.3213Q220.20285 114.36817 219.53098 113.72755Q218.8591 113.08692 217.78098 113.08692Q216.62473 113.08692 215.93723 113.77442Q215.26535 114.46192 215.24973 115.66505L213.62473 115.49317Q213.7966 113.68067 214.87473 112.72755Q215.96848 111.77442 217.81223 111.77442Q219.65598 111.77442 220.7341 112.80567Q221.82785 113.83692 221.82785 115.35255Q221.82785 116.11817 221.49973 116.86817Q221.18723 117.61817 220.45285 118.4463Q219.71848 119.27442 218.01535 120.71192Q216.59348 121.91505 216.18723 122.33692Q215.78098 122.7588 215.53098 123.1963L221.84348 123.1963ZM224.4216 124.71192L224.4216 122.91505L226.21848 122.91505L226.21848 124.71192L224.4216 124.71192ZM236.84348 123.1963L236.84348 124.71192L228.32785 124.71192Q228.31223 124.1338 228.51535 123.61817Q228.84348 122.74317 229.5466 121.89942Q230.26535 121.05567 231.62473 119.9463Q233.71848 118.22755 234.45285 117.22755Q235.20285 116.21192 235.20285 115.3213Q235.20285 114.36817 234.53098 113.72755Q233.8591 113.08692 232.78098 113.08692Q231.62473 113.08692 230.93723 113.77442Q230.26535 114.46192 230.24973 115.66505L228.62473 115.49317Q228.7966 113.68067 229.87473 112.72755Q230.96848 111.77442 232.81223 111.77442Q234.65598 111.77442 235.7341 112.80567Q236.82785 113.83692 236.82785 115.35255Q236.82785 116.11817 236.49973 116.86817Q236.18723 117.61817 235.45285 118.4463Q234.71848 119.27442 233.01535 120.71192Q231.59348 121.91505 231.18723 122.33692Q230.78098 122.7588 230.53098 123.1963L236.84348 123.1963ZM238.82785 114.91505Q238.82785 113.54005 239.51535 112.5713Q240.21848 111.60255 241.53098 111.60255Q242.74973 111.60255 243.5466 112.47755Q244.34348 113.33692 244.34348 115.02442Q244.34348 116.64942 243.53098 117.54005Q242.7341 118.41505 241.5466 118.41505Q240.39035 118.41505 239.6091 117.55567Q238.82785 116.68067 238.82785 114.91505ZM241.57785 112.6963Q240.9841 112.6963 240.59348 113.21192Q240.20285 113.71192 240.20285 115.0713Q240.20285 116.3213 240.59348 116.8213Q240.99973 117.3213 241.57785 117.3213Q242.1716 117.3213 242.56223 116.8213Q242.95285 116.30567 242.95285 114.96192Q242.95285 113.71192 242.56223 113.21192Q242.1716 112.6963 241.57785 112.6963ZM241.59348 125.18067L248.64035 111.60255L249.9216 111.60255L242.89035 125.18067L241.59348 125.18067ZM247.15598 121.68067Q247.15598 120.30567 247.84348 119.33692Q248.5466 118.36817 249.87473 118.36817Q251.09348 118.36817 251.87473 119.24317Q252.6716 120.10255 252.6716 121.79005Q252.6716 123.41505 251.87473 124.30567Q251.07785 125.18067 249.89035 125.18067Q248.71848 125.18067 247.93723 124.30567Q247.15598 123.43067 247.15598 121.68067ZM249.9216 119.46192Q249.32785 119.46192 248.93723 119.97755Q248.5466 120.47755 248.5466 121.85255Q248.5466 123.0713 248.93723 123.58692Q249.32785 124.10255 249.90598 124.10255Q250.51535 124.10255 250.90598 123.58692Q251.2966 123.0713 251.2966 121.72755Q251.2966 120.47755 250.90598 119.97755Q250.51535 119.46192 249.9216 119.46192Z" fill-rule="nonzero"/><path stroke="#ffffff" stroke-width="1.0" stroke-linejoin="round" stroke-linecap="round" d="M235.58214 240.875C253.63103 272.13657 291.5198 285.92697 325.4406 273.5808C359.3614 261.23465 379.5216 226.31616 373.2533 190.7668C366.985 155.21745 336.09775 129.3 300.0 129.3L300.0 54.916668C372.19553 54.916668 433.96994 106.751564 446.50656 177.85027C459.04318 248.94897 418.72278 318.78595 350.8812 343.47827C283.0396 368.1706 207.26204 340.5898 171.16429 278.06668" fill-rule="nonzero"/><path stroke="#ffffff" stroke-width="1.0" stroke-linejoin="round" stroke-linecap="round" d="M226.74672 190.7668C223.71 207.98885 226.83829 225.7302 235.58214 240.875L171.16429 278.06668C153.67657 247.77705 147.42001 212.29436 153.49344 177.85027" fill-rule="nonzero"/><path stroke="#ffffff" stroke-width="1.0" stroke-linejoin="round" stroke-linecap="round" d="M300.0 129.3C263.90225 129.3 233.01503 155.21745 226.74672 190.7668L153.49344 177.85027C166.03006 106.751564 227.80449 54.916668 300.0 54.916668" fill-rule="nonzero"/><path fill="#efefef" d="M19.76875 89.91955L19.76875 78.46642L21.33125 78.46642L27.346874 87.4508L27.346874 78.46642L28.8 78.46642L28.8 89.91955L27.2375 89.91955L21.221874 80.91955L21.221874 89.91955L19.76875 89.91955ZM37.01875 88.8883Q36.2375 89.56017 35.51875 89.84142Q34.8 90.10705 33.971874 90.10705Q32.596874 90.10705 31.8625 89.43517Q31.128124 88.7633 31.128124 87.73205Q31.128124 87.12267 31.409374 86.62267Q31.690624 86.10705 32.128124 85.81017Q32.58125 85.49767 33.14375 85.34142Q33.565624 85.23205 34.39375 85.1383Q36.096874 84.93517 36.909374 84.65392Q36.909374 84.35705 36.909374 84.27892Q36.909374 83.41955 36.51875 83.0758Q35.971874 82.59142 34.909374 82.59142Q33.925 82.59142 33.440624 82.9508Q32.971874 83.29455 32.753124 84.16955L31.378124 83.98205Q31.565624 83.10705 31.9875 82.56017Q32.425 82.0133 33.2375 81.73205Q34.05 81.43517 35.1125 81.43517Q36.175 81.43517 36.83125 81.68517Q37.503124 81.93517 37.815624 82.31017Q38.128124 82.68517 38.253124 83.2633Q38.33125 83.62267 38.33125 84.56017L38.33125 86.43517Q38.33125 88.40392 38.409374 88.91955Q38.503124 89.43517 38.76875 89.91955L37.3 89.91955Q37.08125 89.48205 37.01875 88.8883ZM36.909374 85.74767Q36.14375 86.06017 34.6125 86.27892Q33.7375 86.40392 33.378124 86.56017Q33.01875 86.71642 32.815624 87.02892Q32.628124 87.3258 32.628124 87.68517Q32.628124 88.24767 33.05 88.62267Q33.4875 88.99767 34.3 88.99767Q35.1125 88.99767 35.7375 88.65392Q36.378124 88.29455 36.675 87.66955Q36.909374 87.2008 36.909374 86.2633L36.909374 85.74767ZM42.909374 89.91955L39.753124 81.62267L41.2375 81.62267L43.01875 86.59142Q43.315624 87.3883 43.55 88.2633Q43.7375 87.60705 44.08125 86.68517L45.925 81.62267L47.3625 81.62267L44.221874 89.91955L42.909374 89.91955ZM54.01875 88.8883Q53.2375 89.56017 52.51875 89.84142Q51.8 90.10705 50.971874 90.10705Q49.596874 90.10705 48.8625 89.43517Q48.128124 88.7633 48.128124 87.73205Q48.128124 87.12267 48.409374 86.62267Q48.690624 86.10705 49.128124 85.81017Q49.58125 85.49767 50.14375 85.34142Q50.565624 85.23205 51.39375 85.1383Q53.096874 84.93517 53.909374 84.65392Q53.909374 84.35705 53.909374 84.27892Q53.909374 83.41955 53.51875 83.0758Q52.971874 82.59142 51.909374 82.59142Q50.925 82.59142 50.440624 82.9508Q49.971874 83.29455 49.753124 84.16955L48.378124 83.98205Q48.565624 83.10705 48.9875 82.56017Q49.425 82.0133 50.2375 81.73205Q51.05 81.43517 52.1125 81.43517Q53.175 81.43517 53.83125 81.68517Q54.503124 81.93517 54.815624 82.31017Q55.128124 82.68517 55.253124 83.2633Q55.33125 83.62267 55.33125 84.56017L55.33125 86.43517Q55.33125 88.40392 55.409374 88.91955Q55.503124 89.43517 55.76875 89.91955L54.3 89.91955Q54.08125 89.48205 54.01875 88.8883ZM53.909374 85.74767Q53.14375 86.06017 51.6125 86.27892Q50.7375 86.40392 50.378124 86.56017Q50.01875 86.71642 49.815624 87.02892Q49.628124 87.3258 49.628124 87.68517Q49.628124 88.24767 50.05 88.62267Q50.4875 88.99767 51.3 88.99767Q52.1125 88.99767 52.7375 88.65392Q53.378124 88.29455 53.675 87.66955Q53.909374 87.2008 53.909374 86.2633L53.909374 85.74767ZM57.58125 89.91955L57.58125 78.46642L58.9875 78.46642L58.9875 89.91955L57.58125 89.91955ZM65.26875 86.23205L66.70625 86.10705Q66.8 86.96642 67.175 87.52892Q67.55 88.0758 68.33125 88.41955Q69.1125 88.74767 70.08125 88.74767Q70.95625 88.74767 71.6125 88.49767Q72.28438 88.23205 72.59688 87.79455Q72.925 87.34142 72.925 86.81017Q72.925 86.2633 72.6125 85.87267Q72.3 85.46642 71.58125 85.18517Q71.12813 85.0133 69.55 84.6383Q67.97188 84.24767 67.33125 83.91955Q66.51875 83.48205 66.1125 82.85705Q65.70625 82.21642 65.70625 81.41955Q65.70625 80.56017 66.19063 79.81017Q66.69063 79.04455 67.62813 78.65392Q68.58125 78.2633 69.7375 78.2633Q71.01875 78.2633 71.9875 78.68517Q72.95625 79.09142 73.47188 79.8883Q74.00313 80.68517 74.05 81.68517L72.59688 81.79455Q72.47188 80.71642 71.8 80.16955Q71.12813 79.60705 69.8 79.60705Q68.425 79.60705 67.8 80.10705Q67.175 80.60705 67.175 81.3258Q67.175 81.93517 67.6125 82.34142Q68.05 82.73205 69.89375 83.15392Q71.75313 83.5758 72.44063 83.8883Q73.44063 84.34142 73.90938 85.06017Q74.39375 85.7633 74.39375 86.68517Q74.39375 87.59142 73.8625 88.40392Q73.34688 89.21642 72.3625 89.66955Q71.37813 90.12267 70.15938 90.12267Q68.59688 90.12267 67.55 89.66955Q66.50313 89.2008 65.89375 88.29455Q65.3 87.3883 65.26875 86.23205ZM79.675 88.65392L79.87813 89.90392Q79.28438 90.02892 78.81563 90.02892Q78.05 90.02892 77.62813 89.79455Q77.20625 89.54455 77.03438 89.15392Q76.8625 88.74767 76.8625 87.48205L76.8625 82.71642L75.83125 82.71642L75.83125 81.62267L76.8625 81.62267L76.8625 79.56017L78.26875 78.71642L78.26875 81.62267L79.675 81.62267L79.675 82.71642L78.26875 82.71642L78.26875 87.56017Q78.26875 88.16955 78.33125 88.34142Q78.40938 88.5133 78.58125 88.62267Q78.75313 88.71642 79.06563 88.71642Q79.3 88.71642 79.675 88.65392ZM80.59688 89.91955L80.59688 81.62267L81.8625 81.62267L81.8625 82.87267Q82.34688 81.99767 82.75313 81.71642Q83.15938 81.43517 83.65938 81.43517Q84.3625 81.43517 85.09688 81.8883L84.6125 83.18517Q84.09688 82.8883 83.58125 82.8883Q83.12813 82.8883 82.75313 83.16955Q82.39375 83.43517 82.2375 83.93517Q82.00313 84.68517 82.00313 85.5758L82.00313 89.91955L80.59688 89.91955ZM91.05 89.91955L91.05 88.7008Q90.08125 90.10705 88.40938 90.10705Q87.675 90.10705 87.03438 89.8258Q86.40938 89.54455 86.09688 89.12267Q85.78438 88.68517 85.65938 88.0758Q85.58125 87.65392 85.58125 86.7633L85.58125 81.62267L86.9875 81.62267L86.9875 86.21642Q86.9875 87.3258 87.06563 87.7008Q87.20625 88.2633 87.62813 88.5758Q88.06563 88.8883 88.69063 88.8883Q89.33125 88.8883 89.87813 88.5758Q90.44063 88.24767 90.65938 87.68517Q90.89375 87.12267 90.89375 86.06017L90.89375 81.62267L92.3 81.62267L92.3 89.91955L91.05 89.91955ZM100.01875 86.87267L101.40938 87.06017Q101.175 88.48205 100.2375 89.29455Q99.31563 90.10705 97.95625 90.10705Q96.25313 90.10705 95.20625 88.99767Q94.175 87.87267 94.175 85.79455Q94.175 84.4508 94.6125 83.4508Q95.06563 82.43517 95.97188 81.93517Q96.89375 81.43517 97.95625 81.43517Q99.31563 81.43517 100.175 82.12267Q101.03438 82.79455 101.26875 84.06017L99.90938 84.2633Q99.70625 83.43517 99.20625 83.0133Q98.72188 82.59142 98.01875 82.59142Q96.95625 82.59142 96.28438 83.35705Q95.62813 84.10705 95.62813 85.7633Q95.62813 87.43517 96.26875 88.2008Q96.90938 88.9508 97.94063 88.9508Q98.76875 88.9508 99.31563 88.4508Q99.87813 87.93517 100.01875 86.87267ZM105.675 88.65392L105.87813 89.90392Q105.28438 90.02892 104.81563 90.02892Q104.05 90.02892 103.62813 89.79455Q103.20625 89.54455 103.03438 89.15392Q102.8625 88.74767 102.8625 87.48205L102.8625 82.71642L101.83125 82.71642L101.83125 81.62267L102.8625 81.62267L102.8625 79.56017L104.26875 78.71642L104.26875 81.62267L105.675 81.62267L105.675 82.71642L104.26875 82.71642L104.26875 87.56017Q104.26875 88.16955 104.33125 88.34142Q104.40938 88.5133 104.58125 88.62267Q104.75313 88.71642 105.06563 88.71642Q105.3 88.71642 105.675 88.65392ZM112.05 89.91955L112.05 88.7008Q111.08125 90.10705 109.40938 90.10705Q108.675 90.10705 108.03438 89.8258Q107.40938 89.54455 107.09688 89.12267Q106.78438 88.68517 106.65938 88.0758Q106.58125 87.65392 106.58125 86.7633L106.58125 81.62267L107.9875 81.62267L107.9875 86.21642Q107.9875 87.3258 108.06563 87.7008Q108.20625 88.2633 108.62813 88.5758Q109.06563 88.8883 109.69063 88.8883Q110.33125 88.8883 110.87813 88.5758Q111.44063 88.24767 111.65938 87.68517Q111.89375 87.12267 111.89375 86.06017L111.89375 81.62267L113.3 81.62267L113.3 89.91955L112.05 89.91955ZM115.59688 89.91955L115.59688 81.62267L116.8625 81.62267L116.8625 82.87267Q117.34688 81.99767 117.75313 81.71642Q118.15938 81.43517 118.65938 81.43517Q119.3625 81.43517 120.09688 81.8883L119.6125 83.18517Q119.09688 82.8883 118.58125 82.8883Q118.12813 82.8883 117.75313 83.16955Q117.39375 83.43517 117.2375 83.93517Q117.00313 84.68517 117.00313 85.5758L117.00313 89.91955L115.59688 89.91955ZM126.28438 87.24767L127.7375 87.41955Q127.39375 88.7008 126.45625 89.40392Q125.53438 90.10705 124.09688 90.10705Q122.26875 90.10705 121.20625 88.98205Q120.14375 87.85705 120.14375 85.84142Q120.14375 83.74767 121.22188 82.59142Q122.3 81.43517 124.01875 81.43517Q125.675 81.43517 126.72188 82.5758Q127.78438 83.7008 127.78438 85.74767Q127.78438 85.87267 127.78438 86.12267L121.59688 86.12267Q121.675 87.49767 122.3625 88.23205Q123.06563 88.9508 124.09688 88.9508Q124.87813 88.9508 125.425 88.54455Q125.97188 88.1383 126.28438 87.24767ZM121.675 84.96642L126.3 84.96642Q126.20625 83.91955 125.76875 83.40392Q125.09688 82.59142 124.03438 82.59142Q123.06563 82.59142 122.39375 83.24767Q121.7375 83.8883 121.675 84.96642ZM129.05 87.43517L130.44063 87.21642Q130.55 88.06017 131.08125 88.5133Q131.62813 88.9508 132.58125 88.9508Q133.55 88.9508 134.01875 88.56017Q134.4875 88.15392 134.4875 87.62267Q134.4875 87.15392 134.08125 86.87267Q133.78438 86.68517 132.64375 86.40392Q131.09688 86.0133 130.4875 85.73205Q129.89375 85.43517 129.58125 84.93517Q129.28438 84.43517 129.28438 83.8258Q129.28438 83.2633 129.53438 82.79455Q129.78438 82.3258 130.22188 82.0133Q130.55 81.7633 131.1125 81.60705Q131.69063 81.43517 132.33125 81.43517Q133.31563 81.43517 134.05 81.71642Q134.78438 81.99767 135.12813 82.48205Q135.4875 82.9508 135.62813 83.7633L134.25313 83.9508Q134.15938 83.31017 133.70625 82.9508Q133.25313 82.59142 132.44063 82.59142Q131.47188 82.59142 131.05 82.91955Q130.64375 83.23205 130.64375 83.65392Q130.64375 83.93517 130.81563 84.15392Q130.9875 84.37267 131.34688 84.52892Q131.56563 84.60705 132.59688 84.8883Q134.08125 85.27892 134.675 85.54455Q135.26875 85.79455 135.59688 86.27892Q135.94063 86.7633 135.94063 87.48205Q135.94063 88.18517 135.51875 88.81017Q135.1125 89.41955 134.33125 89.7633Q133.56563 90.10705 132.59688 90.10705Q130.97188 90.10705 130.12813 89.43517Q129.28438 88.7633 129.05 87.43517Z" fill-rule="nonzero"/><path fill="#9e9e9e" d="M26.6125 110.56017L26.6125 111.91955L19.034374 111.91955Q19.01875 111.40392 19.20625 110.93517Q19.4875 110.16955 20.128124 109.41955Q20.76875 108.66955 21.971874 107.68517Q23.83125 106.15392 24.4875 105.2633Q25.14375 104.35705 25.14375 103.56017Q25.14375 102.73205 24.55 102.15392Q23.95625 101.5758 22.9875 101.5758Q21.971874 101.5758 21.3625 102.18517Q20.753124 102.79455 20.753124 103.87267L19.3 103.73205Q19.45625 102.10705 20.425 101.2633Q21.39375 100.41955 23.01875 100.41955Q24.675 100.41955 25.628124 101.34142Q26.596874 102.24767 26.596874 103.59142Q26.596874 104.27892 26.315624 104.9508Q26.034374 105.60705 25.378124 106.34142Q24.721874 107.0758 23.20625 108.35705Q21.940624 109.41955 21.58125 109.81017Q21.221874 110.18517 20.9875 110.56017L26.6125 110.56017ZM35.6125 110.56017L35.6125 111.91955L28.034374 111.91955Q28.01875 111.40392 28.20625 110.93517Q28.4875 110.16955 29.128124 109.41955Q29.76875 108.66955 30.971874 107.68517Q32.83125 106.15392 33.4875 105.2633Q34.14375 104.35705 34.14375 103.56017Q34.14375 102.73205 33.55 102.15392Q32.95625 101.5758 31.9875 101.5758Q30.971874 101.5758 30.3625 102.18517Q29.753124 102.79455 29.753124 103.87267L28.3 103.73205Q28.45625 102.10705 29.425 101.2633Q30.39375 100.41955 32.01875 100.41955Q33.675 100.41955 34.628124 101.34142Q35.596874 102.24767 35.596874 103.59142Q35.596874 104.27892 35.315624 104.9508Q35.034374 105.60705 34.378124 106.34142Q33.721874 107.0758 32.20625 108.35705Q30.940624 109.41955 30.58125 109.81017Q30.221874 110.18517 29.9875 110.56017L35.6125 110.56017ZM38.003124 111.91955L38.003124 110.31017L39.6125 110.31017L39.6125 111.91955L38.003124 111.91955ZM48.6125 110.56017L48.6125 111.91955L41.034374 111.91955Q41.01875 111.40392 41.20625 110.93517Q41.4875 110.16955 42.128124 109.41955Q42.76875 108.66955 43.971874 107.68517Q45.83125 106.15392 46.4875 105.2633Q47.14375 104.35705 47.14375 103.56017Q47.14375 102.73205 46.55 102.15392Q45.95625 101.5758 44.9875 101.5758Q43.971874 101.5758 43.3625 102.18517Q42.753124 102.79455 42.753124 103.87267L41.3 103.73205Q41.45625 102.10705 42.425 101.2633Q43.39375 100.41955 45.01875 100.41955Q46.675 100.41955 47.628124 101.34142Q48.596874 102.24767 48.596874 103.59142Q48.596874 104.27892 48.315624 104.9508Q48.034374 105.60705 47.378124 106.34142Q46.721874 107.0758 45.20625 108.35705Q43.940624 109.41955 43.58125 109.81017Q43.221874 110.18517 42.9875 110.56017L48.6125 110.56017ZM50.4875 103.21642Q50.4875 101.98205 51.096874 101.12267Q51.721874 100.2633 52.89375 100.2633Q53.971874 100.2633 54.675 101.04455Q55.378124 101.81017 55.378124 103.29455Q55.378124 104.74767 54.659374 105.54455Q53.95625 106.3258 52.909374 106.3258Q51.8625 106.3258 51.175 105.56017Q50.4875 104.77892 50.4875 103.21642ZM52.925 101.23205Q52.409374 101.23205 52.05 101.68517Q51.70625 102.1383 51.70625 103.35705Q51.70625 104.4508 52.05 104.90392Q52.409374 105.35705 52.925 105.35705Q53.45625 105.35705 53.8 104.90392Q54.159374 104.4508 54.159374 103.24767Q54.159374 102.1383 53.8 101.68517Q53.45625 101.23205 52.925 101.23205ZM52.940624 112.34142L59.20625 100.2633L60.346874 100.2633L54.096874 112.34142L52.940624 112.34142ZM57.89375 109.23205Q57.89375 107.99767 58.503124 107.1383Q59.128124 106.27892 60.3 106.27892Q61.378124 106.27892 62.08125 107.06017Q62.8 107.8258 62.8 109.31017Q62.8 110.7633 62.08125 111.56017Q61.3625 112.34142 60.315624 112.34142Q59.26875 112.34142 58.58125 111.56017Q57.89375 110.77892 57.89375 109.23205ZM60.346874 107.24767Q59.815624 107.24767 59.45625 107.7008Q59.1125 108.15392 59.1125 109.37267Q59.1125 110.46642 59.45625 110.91955Q59.815624 111.37267 60.33125 111.37267Q60.878124 111.37267 61.221874 110.91955Q61.565624 110.46642 61.565624 109.2633Q61.565624 108.15392 61.20625 107.7008Q60.8625 107.24767 60.346874 107.24767Z" fill-rule="nonzero"/><path stroke="#757575" stroke-width="1.0" stroke-linecap="butt" d="M18.55 95.41955L145.23334 95.41955L209.1559 95.41955" fill-rule="nonzero"/><path fill="#9e9e9e" d="M211.1559 95.41955C211.1559 94.31498 210.26047 93.41955 209.1559 93.41955C208.05133 93.41955 207.1559 94.31498 207.1559 95.41955C207.1559 96.52412 208.05133 97.41955 209.1559 97.41955C210.26047 97.41955 211.1559 96.52412 211.1559 95.41955" fill-rule="nonzero"/><path fill="#efefef" d="M19.76875 222.72475L19.76875 211.27162L21.33125 211.27162L27.346874 220.256L27.346874 211.27162L28.8 211.27162L28.8 222.72475L27.2375 222.72475L21.221874 213.72475L21.221874 222.72475L19.76875 222.72475ZM37.01875 221.6935Q36.2375 222.36537 35.51875 222.64662Q34.8 222.91225 33.971874 222.91225Q32.596874 222.91225 31.8625 222.24037Q31.128124 221.5685 31.128124 220.53725Q31.128124 219.92787 31.409374 219.42787Q31.690624 218.91225 32.128124 218.61537Q32.58125 218.30287 33.14375 218.14662Q33.565624 218.03725 34.39375 217.9435Q36.096874 217.74037 36.909374 217.45912Q36.909374 217.16225 36.909374 217.08412Q36.909374 216.22475 36.51875 215.881Q35.971874 215.39662 34.909374 215.39662Q33.925 215.39662 33.440624 215.756Q32.971874 216.09975 32.753124 216.97475L31.378124 216.78725Q31.565624 215.91225 31.9875 215.36537Q32.425 214.8185 33.2375 214.53725Q34.05 214.24037 35.1125 214.24037Q36.175 214.24037 36.83125 214.49037Q37.503124 214.74037 37.815624 215.11537Q38.128124 215.49037 38.253124 216.0685Q38.33125 216.42787 38.33125 217.36537L38.33125 219.24037Q38.33125 221.20912 38.409374 221.72475Q38.503124 222.24037 38.76875 222.72475L37.3 222.72475Q37.08125 222.28725 37.01875 221.6935ZM36.909374 218.55287Q36.14375 218.86537 34.6125 219.08412Q33.7375 219.20912 33.378124 219.36537Q33.01875 219.52162 32.815624 219.83412Q32.628124 220.131 32.628124 220.49037Q32.628124 221.05287 33.05 221.42787Q33.4875 221.80287 34.3 221.80287Q35.1125 221.80287 35.7375 221.45912Q36.378124 221.09975 36.675 220.47475Q36.909374 220.006 36.909374 219.0685L36.909374 218.55287ZM43.675 221.45912L43.878124 222.70912Q43.284374 222.83412 42.815624 222.83412Q42.05 222.83412 41.628124 222.59975Q41.20625 222.34975 41.034374 221.95912Q40.8625 221.55287 40.8625 220.28725L40.8625 215.52162L39.83125 215.52162L39.83125 214.42787L40.8625 214.42787L40.8625 212.36537L42.26875 211.52162L42.26875 214.42787L43.675 214.42787L43.675 215.52162L42.26875 215.52162L42.26875 220.36537Q42.26875 220.97475 42.33125 221.14662Q42.409374 221.3185 42.58125 221.42787Q42.753124 221.52162 43.065624 221.52162Q43.3 221.52162 43.675 221.45912ZM50.05 222.72475L50.05 221.506Q49.08125 222.91225 47.409374 222.91225Q46.675 222.91225 46.034374 222.631Q45.409374 222.34975 45.096874 221.92787Q44.784374 221.49037 44.659374 220.881Q44.58125 220.45912 44.58125 219.5685L44.58125 214.42787L45.9875 214.42787L45.9875 219.02162Q45.9875 220.131 46.065624 220.506Q46.20625 221.0685 46.628124 221.381Q47.065624 221.6935 47.690624 221.6935Q48.33125 221.6935 48.878124 221.381Q49.440624 221.05287 49.659374 220.49037Q49.89375 219.92787 49.89375 218.86537L49.89375 214.42787L51.3 214.42787L51.3 222.72475L50.05 222.72475ZM53.596874 222.72475L53.596874 214.42787L54.8625 214.42787L54.8625 215.67787Q55.346874 214.80287 55.753124 214.52162Q56.159374 214.24037 56.659374 214.24037Q57.3625 214.24037 58.096874 214.6935L57.6125 215.99037Q57.096874 215.6935 56.58125 215.6935Q56.128124 215.6935 55.753124 215.97475Q55.39375 216.24037 55.2375 216.74037Q55.003124 217.49037 55.003124 218.381L55.003124 222.72475L53.596874 222.72475ZM64.01875 221.6935Q63.2375 222.36537 62.51875 222.64662Q61.8 222.91225 60.971874 222.91225Q59.596874 222.91225 58.8625 222.24037Q58.128124 221.5685 58.128124 220.53725Q58.128124 219.92787 58.409374 219.42787Q58.690624 218.91225 59.128124 218.61537Q59.58125 218.30287 60.14375 218.14662Q60.565624 218.03725 61.39375 217.9435Q63.096874 217.74037 63.909374 217.45912Q63.909374 217.16225 63.909374 217.08412Q63.909374 216.22475 63.51875 215.881Q62.971874 215.39662 61.909374 215.39662Q60.925 215.39662 60.440624 215.756Q59.971874 216.09975 59.753124 216.97475L58.378124 216.78725Q58.565624 215.91225 58.9875 215.36537Q59.425 214.8185 60.2375 214.53725Q61.05 214.24037 62.1125 214.24037Q63.175 214.24037 63.83125 214.49037Q64.50313 214.74037 64.81563 215.11537Q65.12813 215.49037 65.25313 216.0685Q65.33125 216.42787 65.33125 217.36537L65.33125 219.24037Q65.33125 221.20912 65.40938 221.72475Q65.50313 222.24037 65.76875 222.72475L64.3 222.72475Q64.08125 222.28725 64.01875 221.6935ZM63.909374 218.55287Q63.14375 218.86537 61.6125 219.08412Q60.7375 219.20912 60.378124 219.36537Q60.01875 219.52162 59.815624 219.83412Q59.628124 220.131 59.628124 220.49037Q59.628124 221.05287 60.05 221.42787Q60.4875 221.80287 61.3 221.80287Q62.1125 221.80287 62.7375 221.45912Q63.378124 221.09975 63.675 220.47475Q63.909374 220.006 63.909374 219.0685L63.909374 218.55287ZM67.58125 222.72475L67.58125 211.27162L68.9875 211.27162L68.9875 222.72475L67.58125 222.72475Z" fill-rule="nonzero"/><path fill="#9e9e9e" d="M24.51875 244.72475L23.1125 244.72475L23.1125 235.756Q22.596874 236.24037 21.76875 236.72475Q20.95625 237.20912 20.3 237.45912L20.3 236.09975Q21.471874 235.53725 22.346874 234.756Q23.2375 233.95912 23.6125 233.22475L24.51875 233.22475L24.51875 244.72475ZM33.51875 244.72475L32.1125 244.72475L32.1125 235.756Q31.596874 236.24037 30.76875 236.72475Q29.95625 237.20912 29.3 237.45912L29.3 236.09975Q30.471874 235.53725 31.346874 234.756Q32.2375 233.95912 32.6125 233.22475L33.51875 233.22475L33.51875 244.72475ZM38.003124 244.72475L38.003124 243.11537L39.6125 243.11537L39.6125 244.72475L38.003124 244.72475ZM46.51875 244.72475L45.1125 244.72475L45.1125 235.756Q44.596874 236.24037 43.76875 236.72475Q42.95625 237.20912 42.3 237.45912L42.3 236.09975Q43.471874 235.53725 44.346874 234.756Q45.2375 233.95912 45.6125 233.22475L46.51875 233.22475L46.51875 244.72475ZM50.4875 236.02162Q50.4875 234.78725 51.096874 233.92787Q51.721874 233.0685 52.89375 233.0685Q53.971874 233.0685 54.675 233.84975Q55.378124 234.61537 55.378124 236.09975Q55.378124 237.55287 54.659374 238.34975Q53.95625 239.131 52.909374 239.131Q51.8625 239.131 51.175 238.36537Q50.4875 237.58412 50.4875 236.02162ZM52.925 234.03725Q52.409374 234.03725 52.05 234.49037Q51.70625 234.9435 51.70625 236.16225Q51.70625 237.256 52.05 237.70912Q52.409374 238.16225 52.925 238.16225Q53.45625 238.16225 53.8 237.70912Q54.159374 237.256 54.159374 236.05287Q54.159374 234.9435 53.8 234.49037Q53.45625 234.03725 52.925 234.03725ZM52.940624 245.14662L59.20625 233.0685L60.346874 233.0685L54.096874 245.14662L52.940624 245.14662ZM57.89375 242.03725Q57.89375 240.80287 58.503124 239.9435Q59.128124 239.08412 60.3 239.08412Q61.378124 239.08412 62.08125 239.86537Q62.8 240.631 62.8 242.11537Q62.8 243.5685 62.08125 244.36537Q61.3625 245.14662 60.315624 245.14662Q59.26875 245.14662 58.58125 244.36537Q57.89375 243.58412 57.89375 242.03725ZM60.346874 240.05287Q59.815624 240.05287 59.45625 240.506Q59.1125 240.95912 59.1125 242.17787Q59.1125 243.27162 59.45625 243.72475Q59.815624 244.17787 60.33125 244.17787Q60.878124 244.17787 61.221874 243.72475Q61.565624 243.27162 61.565624 242.0685Q61.565624 240.95912 61.20625 240.506Q60.8625 240.05287 60.346874 240.05287Z" fill-rule="nonzero"/><path stroke="#757575" stroke-width="1.0" stroke-linecap="butt" d="M18.55 228.22475L145.23334 228.22475L160.81876 228.22475" fill-rule="nonzero"/><path fill="#9e9e9e" d="M162.81876 228.22475C162.81876 227.12018 161.92332 226.22475 160.81876 226.22475C159.71419 226.22475 158.81876 227.12018 158.81876 228.22475C158.81876 229.32932 159.71419 230.22475 160.81876 230.22475C161.92332 230.22475 162.81876 229.32932 162.81876 228.22475" fill-rule="nonzero"/><path fill="#efefef" d="M481.41876 268.8475L485.825 257.39438L487.46564 257.39438L492.15314 268.8475L490.41876 268.8475L489.09064 265.37875L484.29376 265.37875L483.04376 268.8475L481.41876 268.8475ZM484.73126 264.14438L488.6219 264.14438L487.41876 260.9725Q486.8719 259.51938 486.60626 258.5975Q486.3875 259.69125 485.9969 260.785L484.73126 264.14438ZM493.4969 268.8475L493.4969 260.55063L494.7625 260.55063L494.7625 261.80063Q495.2469 260.92563 495.65314 260.64438Q496.0594 260.36313 496.5594 260.36313Q497.2625 260.36313 497.9969 260.81625L497.5125 262.11313Q496.9969 261.81625 496.48126 261.81625Q496.02814 261.81625 495.65314 262.0975Q495.29376 262.36313 495.1375 262.86313Q494.90314 263.61313 494.90314 264.50375L494.90314 268.8475L493.4969 268.8475ZM503.91876 265.80063L505.3094 265.98813Q505.075 267.41 504.1375 268.2225Q503.21564 269.035 501.85626 269.035Q500.15314 269.035 499.10626 267.92563Q498.075 266.80063 498.075 264.7225Q498.075 263.37875 498.5125 262.37875Q498.96564 261.36313 499.8719 260.86313Q500.79376 260.36313 501.85626 260.36313Q503.21564 260.36313 504.075 261.05063Q504.9344 261.7225 505.16876 262.98813L503.8094 263.19125Q503.60626 262.36313 503.10626 261.94125Q502.6219 261.51938 501.91876 261.51938Q500.85626 261.51938 500.1844 262.285Q499.52814 263.035 499.52814 264.69125Q499.52814 266.36313 500.16876 267.12875Q500.8094 267.87875 501.84064 267.87875Q502.66876 267.87875 503.21564 267.37875Q503.77814 266.86313 503.91876 265.80063ZM506.5125 268.8475L506.5125 257.39438L507.91876 257.39438L507.91876 261.50375Q508.90314 260.36313 510.40314 260.36313Q511.325 260.36313 511.9969 260.7225Q512.6844 261.08188 512.96564 261.7225Q513.2625 262.36313 513.2625 263.58188L513.2625 268.8475L511.85626 268.8475L511.85626 263.58188Q511.85626 262.535 511.40314 262.05063Q510.95 261.56625 510.10626 261.56625Q509.48126 261.56625 508.9344 261.89438Q508.3875 262.2225 508.15314 262.785Q507.91876 263.33188 507.91876 264.30063L507.91876 268.8475L506.5125 268.8475ZM515.5125 259.00375L515.5125 257.39438L516.91876 257.39438L516.91876 259.00375L515.5125 259.00375ZM515.5125 268.8475L515.5125 260.55063L516.91876 260.55063L516.91876 268.8475L515.5125 268.8475ZM522.575 267.58188L522.77814 268.83188Q522.1844 268.95688 521.71564 268.95688Q520.95 268.95688 520.52814 268.7225Q520.10626 268.4725 519.9344 268.08188Q519.7625 267.67563 519.7625 266.41L519.7625 261.64438L518.73126 261.64438L518.73126 260.55063L519.7625 260.55063L519.7625 258.48813L521.16876 257.64438L521.16876 260.55063L522.575 260.55063L522.575 261.64438L521.16876 261.64438L521.16876 266.48813Q521.16876 267.0975 521.23126 267.26938Q521.3094 267.44125 521.48126 267.55063Q521.65314 267.64438 521.96564 267.64438Q522.2 267.64438 522.575 267.58188ZM529.1844 266.17563L530.6375 266.3475Q530.29376 267.62875 529.35626 268.33188Q528.4344 269.035 526.9969 269.035Q525.16876 269.035 524.10626 267.91Q523.04376 266.785 523.04376 264.76938Q523.04376 262.67563 524.1219 261.51938Q525.2 260.36313 526.91876 260.36313Q528.575 260.36313 529.6219 261.50375Q530.6844 262.62875 530.6844 264.67563Q530.6844 264.80063 530.6844 265.05063L524.4969 265.05063Q524.575 266.42563 525.2625 267.16Q525.96564 267.87875 526.9969 267.87875Q527.77814 267.87875 528.325 267.4725Q528.8719 267.06625 529.1844 266.17563ZM524.575 263.89438L529.2 263.89438Q529.10626 262.8475 528.66876 262.33188Q527.9969 261.51938 526.9344 261.51938Q525.96564 261.51938 525.29376 262.17563Q524.6375 262.81625 524.575 263.89438ZM537.91876 265.80063L539.3094 265.98813Q539.075 267.41 538.1375 268.2225Q537.21564 269.035 535.85626 269.035Q534.15314 269.035 533.10626 267.92563Q532.075 266.80063 532.075 264.7225Q532.075 263.37875 532.5125 262.37875Q532.96564 261.36313 533.8719 260.86313Q534.79376 260.36313 535.85626 260.36313Q537.21564 260.36313 538.075 261.05063Q538.9344 261.7225 539.16876 262.98813L537.8094 263.19125Q537.60626 262.36313 537.10626 261.94125Q536.6219 261.51938 535.91876 261.51938Q534.85626 261.51938 534.1844 262.285Q533.52814 263.035 533.52814 264.69125Q533.52814 266.36313 534.16876 267.12875Q534.8094 267.87875 535.84064 267.87875Q536.66876 267.87875 537.21564 267.37875Q537.77814 266.86313 537.91876 265.80063ZM543.575 267.58188L543.77814 268.83188Q543.1844 268.95688 542.71564 268.95688Q541.95 268.95688 541.52814 268.7225Q541.10626 268.4725 540.9344 268.08188Q540.7625 267.67563 540.7625 266.41L540.7625 261.64438L539.73126 261.64438L539.73126 260.55063L540.7625 260.55063L540.7625 258.48813L542.16876 257.64438L542.16876 260.55063L543.575 260.55063L543.575 261.64438L542.16876 261.64438L542.16876 266.48813Q542.16876 267.0975 542.23126 267.26938Q542.3094 267.44125 542.48126 267.55063Q542.65314 267.64438 542.96564 267.64438Q543.2 267.64438 543.575 267.58188ZM549.95 268.8475L549.95 267.62875Q548.98126 269.035 547.3094 269.035Q546.575 269.035 545.9344 268.75375Q545.3094 268.4725 544.9969 268.05063Q544.6844 267.61313 544.5594 267.00375Q544.48126 266.58188 544.48126 265.69125L544.48126 260.55063L545.8875 260.55063L545.8875 265.14438Q545.8875 266.25375 545.96564 266.62875Q546.10626 267.19125 546.52814 267.50375Q546.96564 267.81625 547.59064 267.81625Q548.23126 267.81625 548.77814 267.50375Q549.34064 267.17563 549.5594 266.61313Q549.79376 266.05063 549.79376 264.98813L549.79376 260.55063L551.2 260.55063L551.2 268.8475L549.95 268.8475ZM553.4969 268.8475L553.4969 260.55063L554.7625 260.55063L554.7625 261.80063Q555.2469 260.92563 555.65314 260.64438Q556.0594 260.36313 556.5594 260.36313Q557.2625 260.36313 557.9969 260.81625L557.5125 262.11313Q556.9969 261.81625 556.48126 261.81625Q556.02814 261.81625 555.65314 262.0975Q555.29376 262.36313 555.1375 262.86313Q554.90314 263.61313 554.90314 264.50375L554.90314 268.8475L553.4969 268.8475ZM564.1844 266.17563L565.6375 266.3475Q565.29376 267.62875 564.35626 268.33188Q563.4344 269.035 561.9969 269.035Q560.16876 269.035 559.10626 267.91Q558.04376 266.785 558.04376 264.76938Q558.04376 262.67563 559.1219 261.51938Q560.2 260.36313 561.91876 260.36313Q563.575 260.36313 564.6219 261.50375Q565.6844 262.62875 565.6844 264.67563Q565.6844 264.80063 565.6844 265.05063L559.4969 265.05063Q559.575 266.42563 560.2625 267.16Q560.96564 267.87875 561.9969 267.87875Q562.77814 267.87875 563.325 267.4725Q563.8719 267.06625 564.1844 266.17563ZM559.575 263.89438L564.2 263.89438Q564.10626 262.8475 563.66876 262.33188Q562.9969 261.51938 561.9344 261.51938Q560.96564 261.51938 560.29376 262.17563Q559.6375 262.81625 559.575 263.89438ZM578.0594 267.48813Q577.35626 268.26938 576.52814 268.66Q575.71564 269.05063 574.7625 269.05063Q573.0125 269.05063 571.98126 267.8475Q571.1375 266.87875 571.1375 265.69125Q571.1375 264.62875 571.825 263.76938Q572.5125 262.91 573.8719 262.26938Q573.09064 261.37875 572.825 260.83188Q572.575 260.26938 572.575 259.75375Q572.575 258.7225 573.3875 257.95688Q574.2 257.19125 575.41876 257.19125Q576.59064 257.19125 577.34064 257.91Q578.09064 258.62875 578.09064 259.64438Q578.09064 261.26938 575.91876 262.42563L577.98126 265.05063Q578.325 264.36313 578.52814 263.45688L579.98126 263.76938Q579.60626 265.26938 578.96564 266.23813Q579.7625 267.285 580.7625 267.98813L579.8094 269.11313Q578.96564 268.56625 578.0594 267.48813ZM575.2 261.51938Q576.10626 260.98813 576.3719 260.58188Q576.65314 260.17563 576.65314 259.67563Q576.65314 259.0975 576.27814 258.7225Q575.90314 258.3475 575.35626 258.3475Q574.77814 258.3475 574.40314 258.7225Q574.02814 259.08188 574.02814 259.61313Q574.02814 259.87875 574.15314 260.17563Q574.29376 260.4725 574.575 260.80063L575.2 261.51938ZM577.16876 266.37875L574.59064 263.19125Q573.45 263.86313 573.04376 264.45688Q572.65314 265.035 572.65314 265.5975Q572.65314 266.30063 573.2 267.05063Q573.7625 267.80063 574.77814 267.80063Q575.41876 267.80063 576.09064 267.41Q576.7625 267.00375 577.16876 266.37875Z" fill-rule="nonzero"/><path fill="#9e9e9e" d="M544.41876 282.19125L543.0125 282.30063Q542.825 281.4725 542.48126 281.0975Q541.91876 280.50375 541.075 280.50375Q540.40314 280.50375 539.90314 280.87875Q539.23126 281.36313 538.84064 282.30063Q538.46564 283.2225 538.45 284.94125Q538.96564 284.16 539.7 283.785Q540.4344 283.41 541.23126 283.41Q542.6375 283.41 543.6219 284.45688Q544.6219 285.48813 544.6219 287.12875Q544.6219 288.20688 544.15314 289.12875Q543.6844 290.05063 542.8719 290.55063Q542.0594 291.05063 541.02814 291.05063Q539.27814 291.05063 538.16876 289.75375Q537.0594 288.45688 537.0594 285.48813Q537.0594 282.16 538.27814 280.66Q539.35626 279.3475 541.16876 279.3475Q542.5125 279.3475 543.3719 280.11313Q544.2469 280.86313 544.41876 282.19125ZM538.66876 287.12875Q538.66876 287.86313 538.98126 288.535Q539.29376 289.19125 539.84064 289.535Q540.40314 289.87875 541.0125 289.87875Q541.90314 289.87875 542.54376 289.16Q543.1844 288.44125 543.1844 287.20688Q543.1844 286.01938 542.54376 285.3475Q541.91876 284.66 540.95 284.66Q539.9969 284.66 539.325 285.3475Q538.66876 286.01938 538.66876 287.12875ZM553.41876 282.19125L552.0125 282.30063Q551.825 281.4725 551.48126 281.0975Q550.91876 280.50375 550.075 280.50375Q549.40314 280.50375 548.90314 280.87875Q548.23126 281.36313 547.84064 282.30063Q547.46564 283.2225 547.45 284.94125Q547.96564 284.16 548.7 283.785Q549.4344 283.41 550.23126 283.41Q551.6375 283.41 552.6219 284.45688Q553.6219 285.48813 553.6219 287.12875Q553.6219 288.20688 553.15314 289.12875Q552.6844 290.05063 551.8719 290.55063Q551.0594 291.05063 550.02814 291.05063Q548.27814 291.05063 547.16876 289.75375Q546.0594 288.45688 546.0594 285.48813Q546.0594 282.16 547.27814 280.66Q548.35626 279.3475 550.16876 279.3475Q551.5125 279.3475 552.3719 280.11313Q553.2469 280.86313 553.41876 282.19125ZM547.66876 287.12875Q547.66876 287.86313 547.98126 288.535Q548.29376 289.19125 548.84064 289.535Q549.40314 289.87875 550.0125 289.87875Q550.90314 289.87875 551.54376 289.16Q552.1844 288.44125 552.1844 287.20688Q552.1844 286.01938 551.54376 285.3475Q550.91876 284.66 549.95 284.66Q548.9969 284.66 548.325 285.3475Q547.66876 286.01938 547.66876 287.12875ZM555.90314 290.8475L555.90314 289.23813L557.5125 289.23813L557.5125 290.8475L555.90314 290.8475ZM559.21564 280.89438L559.21564 279.535L566.6219 279.535L566.6219 280.62875Q565.52814 281.80063 564.45 283.73813Q563.3875 285.66 562.79376 287.69125Q562.3719 289.12875 562.2625 290.8475L560.8094 290.8475Q560.84064 289.48813 561.34064 287.58188Q561.85626 285.66 562.79376 283.89438Q563.7469 282.11313 564.825 280.89438L559.21564 280.89438ZM568.3875 282.14438Q568.3875 280.91 568.9969 280.05063Q569.6219 279.19125 570.79376 279.19125Q571.8719 279.19125 572.575 279.9725Q573.27814 280.73813 573.27814 282.2225Q573.27814 283.67563 572.5594 284.4725Q571.85626 285.25375 570.8094 285.25375Q569.7625 285.25375 569.075 284.48813Q568.3875 283.70688 568.3875 282.14438ZM570.825 280.16Q570.3094 280.16 569.95 280.61313Q569.60626 281.06625 569.60626 282.285Q569.60626 283.37875 569.95 283.83188Q570.3094 284.285 570.825 284.285Q571.35626 284.285 571.7 283.83188Q572.0594 283.37875 572.0594 282.17563Q572.0594 281.06625 571.7 280.61313Q571.35626 280.16 570.825 280.16ZM570.84064 291.26938L577.10626 279.19125L578.2469 279.19125L571.9969 291.26938L570.84064 291.26938ZM575.79376 288.16Q575.79376 286.92563 576.40314 286.06625Q577.02814 285.20688 578.2 285.20688Q579.27814 285.20688 579.98126 285.98813Q580.7 286.75375 580.7 288.23813Q580.7 289.69125 579.98126 290.48813Q579.2625 291.26938 578.21564 291.26938Q577.16876 291.26938 576.48126 290.48813Q575.79376 289.70688 575.79376 288.16ZM578.2469 286.17563Q577.71564 286.17563 577.35626 286.62875Q577.0125 287.08188 577.0125 288.30063Q577.0125 289.39438 577.35626 289.8475Q577.71564 290.30063 578.23126 290.30063Q578.77814 290.30063 579.1219 289.8475Q579.46564 289.39438 579.46564 288.19125Q579.46564 287.08188 579.10626 286.62875Q578.7625 286.17563 578.2469 286.17563Z" fill-rule="nonzero"/><path stroke="#757575" stroke-width="1.0" stroke-linecap="butt" d="M581.45 274.3475L454.76666 274.3475L422.39392 274.3475" fill-rule="nonzero"/><path fill="#9e9e9e" d="M424.39392 274.3475C424.39392 273.24292 423.4985 272.3475 422.39392 272.3475C421.28937 272.3475 420.39392 273.24292 420.39392 274.3475C420.39392 275.45206 421.28937 276.3475 422.39392 276.3475C423.4985 276.3475 424.39392 275.45206 424.39392 274.3475" fill-rule="nonzero"/><path fill="#f3f3f3" d="M271.26562 32.534374L273.15625 33.003124Q272.5625 35.346874 271.01562 36.58125Q269.46875 37.8 267.21875 37.8Q264.90625 37.8 263.45312 36.8625Q262.01562 35.909374 261.25 34.128124Q260.5 32.33125 260.5 30.284374Q260.5 28.05 261.34375 26.39375Q262.20312 24.721874 263.78125 23.8625Q265.35938 22.9875 267.25 22.9875Q269.40625 22.9875 270.85938 24.08125Q272.32812 25.175 272.90625 27.159374L271.04688 27.596874Q270.54688 26.034374 269.59375 25.33125Q268.65625 24.6125 267.21875 24.6125Q265.5625 24.6125 264.45312 25.409374Q263.34375 26.190624 262.89062 27.534374Q262.45312 28.8625 262.45312 30.26875Q262.45312 32.096874 262.98438 33.471874Q263.51562 34.83125 264.64062 35.503124Q265.76562 36.175 267.0625 36.175Q268.65625 36.175 269.76562 35.253124Q270.875 34.33125 271.26562 32.534374ZM281.59375 36.26875Q280.60938 37.096874 279.70312 37.440624Q278.79688 37.784374 277.76562 37.784374Q276.0625 37.784374 275.14062 36.95625Q274.21875 36.1125 274.21875 34.815624Q274.21875 34.05 274.5625 33.425Q274.92188 32.8 275.48438 32.425Q276.04688 32.034374 276.75 31.83125Q277.26562 31.70625 278.3125 31.565624Q280.4375 31.315624 281.4375 30.971874Q281.45312 30.6125 281.45312 30.503124Q281.45312 29.440624 280.95312 28.9875Q280.28125 28.39375 278.95312 28.39375Q277.70312 28.39375 277.10938 28.83125Q276.53125 29.26875 276.25 30.378124L274.53125 30.14375Q274.76562 29.034374 275.29688 28.3625Q275.82812 27.675 276.84375 27.315624Q277.85938 26.940624 279.20312 26.940624Q280.53125 26.940624 281.35938 27.253124Q282.1875 27.565624 282.57812 28.05Q282.96875 28.51875 283.125 29.2375Q283.21875 29.690624 283.21875 30.8625L283.21875 33.20625Q283.21875 35.659374 283.32812 36.315624Q283.4375 36.95625 283.78125 37.55L281.9375 37.55Q281.67188 37.003124 281.59375 36.26875ZM281.4375 32.346874Q280.48438 32.7375 278.5625 33.003124Q277.48438 33.159374 277.03125 33.3625Q276.59375 33.55 276.34375 33.925Q276.09375 34.3 276.09375 34.76875Q276.09375 35.471874 276.625 35.940624Q277.15625 36.409374 278.1875 36.409374Q279.20312 36.409374 279.98438 35.971874Q280.78125 35.51875 281.15625 34.753124Q281.4375 34.14375 281.4375 32.9875L281.4375 32.346874ZM289.65625 35.971874L289.90625 37.534374Q289.17188 37.690624 288.57812 37.690624Q287.625 37.690624 287.09375 37.39375Q286.57812 37.08125 286.35938 36.596874Q286.14062 36.096874 286.14062 34.51875L286.14062 28.55L284.85938 28.55L284.85938 27.175L286.14062 27.175L286.14062 24.6125L287.89062 23.55L287.89062 27.175L289.65625 27.175L289.65625 28.55L287.89062 28.55L287.89062 34.6125Q287.89062 35.3625 287.98438 35.58125Q288.07812 35.784374 288.28125 35.925Q288.5 36.05 288.89062 36.05Q289.17188 36.05 289.65625 35.971874ZM298.92188 34.20625L300.73438 34.440624Q300.3125 36.01875 299.14062 36.909374Q297.98438 37.784374 296.17188 37.784374Q293.90625 37.784374 292.5625 36.39375Q291.23438 34.9875 291.23438 32.45625Q291.23438 29.83125 292.57812 28.39375Q293.92188 26.940624 296.07812 26.940624Q298.15625 26.940624 299.46875 28.3625Q300.79688 29.76875 300.79688 32.346874Q300.79688 32.503124 300.78125 32.815624L293.04688 32.815624Q293.14062 34.51875 294.01562 35.425Q294.89062 36.33125 296.1875 36.33125Q297.15625 36.33125 297.82812 35.83125Q298.51562 35.315624 298.92188 34.20625ZM293.14062 31.3625L298.9375 31.3625Q298.82812 30.065624 298.28125 29.409374Q297.4375 28.39375 296.09375 28.39375Q294.89062 28.39375 294.0625 29.20625Q293.23438 30.003124 293.14062 31.3625ZM302.5 38.409374L304.20312 38.659374Q304.3125 39.45625 304.79688 39.815624Q305.45312 40.3 306.59375 40.3Q307.8125 40.3 308.46875 39.815624Q309.14062 39.33125 309.375 38.45625Q309.51562 37.909374 309.5 36.190624Q308.34375 37.55 306.625 37.55Q304.48438 37.55 303.3125 36.003124Q302.14062 34.45625 302.14062 32.3Q302.14062 30.815624 302.67188 29.565624Q303.21875 28.315624 304.23438 27.628124Q305.26562 26.940624 306.64062 26.940624Q308.46875 26.940624 309.67188 28.425L309.67188 27.175L311.28125 27.175L311.28125 36.14375Q311.28125 38.565624 310.78125 39.565624Q310.29688 40.58125 309.21875 41.159374Q308.15625 41.753124 306.59375 41.753124Q304.75 41.753124 303.59375 40.925Q302.45312 40.096874 302.5 38.409374ZM303.95312 32.175Q303.95312 34.221874 304.76562 35.159374Q305.57812 36.096874 306.79688 36.096874Q308.0 36.096874 308.8125 35.159374Q309.64062 34.221874 309.64062 32.2375Q309.64062 30.33125 308.79688 29.3625Q307.95312 28.39375 306.76562 28.39375Q305.59375 28.39375 304.76562 29.346874Q303.95312 30.3 303.95312 32.175ZM313.17188 32.3625Q313.17188 29.4875 314.76562 28.096874Q316.10938 26.940624 318.03125 26.940624Q320.17188 26.940624 321.51562 28.346874Q322.875 29.753124 322.875 32.221874Q322.875 34.221874 322.28125 35.378124Q321.6875 36.51875 320.53125 37.159374Q319.39062 37.784374 318.03125 37.784374Q315.84375 37.784374 314.5 36.39375Q313.17188 34.9875 313.17188 32.3625ZM314.96875 32.3625Q314.96875 34.3625 315.82812 35.346874Q316.70312 36.33125 318.03125 36.33125Q319.34375 36.33125 320.20312 35.346874Q321.07812 34.346874 321.07812 32.3Q321.07812 30.378124 320.20312 29.39375Q319.32812 28.39375 318.03125 28.39375Q316.70312 28.39375 315.82812 29.39375Q314.96875 30.378124 314.96875 32.3625ZM324.79688 37.55L324.79688 27.175L326.375 27.175L326.375 28.753124Q326.98438 27.64375 327.5 27.3Q328.01562 26.940624 328.625 26.940624Q329.51562 26.940624 330.4375 27.503124L329.82812 29.14375Q329.1875 28.753124 328.54688 28.753124Q327.96875 28.753124 327.5 29.1125Q327.04688 29.45625 326.84375 30.065624Q326.5625 31.003124 326.5625 32.1125L326.5625 37.55L324.79688 37.55ZM331.73438 41.55L331.54688 39.89375Q332.125 40.05 332.54688 40.05Q333.14062 40.05 333.48438 39.846874Q333.84375 39.659374 334.0625 39.315624Q334.23438 39.05 334.60938 38.003124Q334.65625 37.846874 334.76562 37.565624L330.82812 27.175L332.71875 27.175L334.875 33.190624Q335.29688 34.33125 335.625 35.58125Q335.9375 34.378124 336.34375 33.221874L338.5625 27.175L340.32812 27.175L336.375 37.721874Q335.75 39.440624 335.39062 40.08125Q334.92188 40.95625 334.3125 41.346874Q333.71875 41.753124 332.875 41.753124Q332.35938 41.753124 331.73438 41.55Z" fill-rule="nonzero"/></svg>