<svg version="1.1" viewBox="0.0 0.0 600.0 371.0" fill="none" stroke="none" stroke-linecap="square" stroke-miterlimit="10" width="600" height="371" xmlns:xlink="http://www.w3.org/1999/xlink" xmlns="http://www.w3.org/2000/svg"><path fill="#ffffff" fill-opacity="0.0" d="M0 0L600.0 0L600.0 371.0L0 371.0L0 0Z" fill-rule="nonzero"/><path fill="#304388" d="M300.0 54.916668C316.43622 54.916668 332.75882 57.640427 348.30444 62.977257L312.0761 168.50682C308.1897 167.1726 304.10904 166.49167 300.0 166.49167Z" fill-rule="nonzero"/><path fill="#313d89" d="M348.30444 62.977257C387.64175 76.48176 419.52972 105.83671 436.23654 143.92444C452.94336 182.01218 452.94336 225.35449 436.23654 263.44223L334.05914 218.62306C338.23584 209.10112 338.23584 198.26555 334.05914 188.7436C329.88242 179.22168 321.91043 171.88293 312.0761 168.50682Z" fill-rule="nonzero"/><path fill="#e5a345" d="M155.78555 167.16327C172.50203 101.151436 231.90445 54.916668 300.0 54.916668L300.0 166.49167C282.9761 166.49167 268.12552 178.05035 263.94638 194.55331Z" fill-rule="nonzero"/><path fill="#df8d43" d="M229.19489 334.5197C169.30664 302.1098 139.06909 233.17513 155.78555 167.16327L263.94638 194.55331C259.76727 211.05627 267.32666 228.28995 282.29874 236.39243Z" fill-rule="nonzero"/><path fill="#b5428d" d="M436.23654 263.44223C419.52972 301.52997 387.64175 330.88492 348.30444 344.3894C308.96716 357.89392 265.7729 354.31473 229.19489 334.5197L282.29874 236.39243C291.44324 241.34119 302.2418 242.23598 312.0761 238.85985C321.91043 235.48372 329.88242 228.14499 334.05914 218.62306Z" fill-rule="nonzero"/><path fill="#ffffff" d="M376.45065 167.92319L376.45065 169.43881L367.93503 169.43881Q367.9194 168.86069 368.12253 168.34506Q368.45065 167.47006 369.15378 166.62631Q369.87253 165.78256 371.2319 164.67319Q373.32565 162.95444 374.06003 161.95444Q374.81003 160.93881 374.81003 160.04819Q374.81003 159.09506 374.13815 158.45444Q373.46628 157.81381 372.38815 157.81381Q371.2319 157.81381 370.5444 158.50131Q369.87253 159.18881 369.8569 160.39194L368.2319 160.22006Q368.40378 158.40756 369.4819 157.45444Q370.57565 156.50131 372.4194 156.50131Q374.26315 156.50131 375.34128 157.53256Q376.43503 158.56381 376.43503 160.07944Q376.43503 160.84506 376.1069 161.59506Q375.7944 162.34506 375.06003 163.17319Q374.32565 164.00131 372.62253 165.43881Q371.20065 166.64194 370.7944 167.06381Q370.38815 167.48569 370.13815 167.92319L376.45065 167.92319ZM386.34128 159.70444L384.77878 159.82944Q384.56003 158.90756 384.1694 158.48569Q383.52878 157.79819 382.59128 157.79819Q381.84128 157.79819 381.26315 158.22006Q380.51315 158.76694 380.07565 159.81381Q379.65378 160.86069 379.63815 162.79819Q380.21628 161.92319 381.02878 161.50131Q381.8569 161.07944 382.76315 161.07944Q384.3569 161.07944 385.46628 162.25131Q386.57565 163.40756 386.57565 165.25131Q386.57565 166.47006 386.0444 167.51694Q385.52878 168.54819 384.6069 169.11069Q383.70065 169.65756 382.5444 169.65756Q380.56003 169.65756 379.31003 168.20444Q378.06003 166.75131 378.06003 163.40756Q378.06003 159.67319 379.45065 157.97006Q380.65378 156.50131 382.68503 156.50131Q384.21628 156.50131 385.18503 157.36069Q386.15378 158.20444 386.34128 159.70444ZM379.88815 165.26694Q379.88815 166.07944 380.2319 166.82944Q380.57565 167.57944 381.20065 167.97006Q381.82565 168.36069 382.51315 168.36069Q383.51315 168.36069 384.2319 167.54819Q384.95065 166.73569 384.95065 165.34506Q384.95065 164.01694 384.2319 163.25131Q383.52878 162.47006 382.45065 162.47006Q381.37253 162.47006 380.62253 163.25131Q379.88815 164.01694 379.88815 165.26694ZM389.02878 169.43881L389.02878 167.64194L390.82565 167.64194L390.82565 169.43881L389.02878 169.43881ZM393.13815 166.03256L394.7319 165.82944Q394.99753 167.17319 395.65378 167.76694Q396.31003 168.36069 397.24753 168.36069Q398.37253 168.36069 399.13815 167.59506Q399.90378 166.81381 399.90378 165.67319Q399.90378 164.57944 399.18503 163.87631Q398.4819 163.15756 397.38815 163.15756Q396.93503 163.15756 396.26315 163.34506L396.43503 161.95444Q396.59128 161.97006 396.70065 161.97006Q397.70065 161.97006 398.51315 161.43881Q399.32565 160.90756 399.32565 159.81381Q399.32565 158.93881 398.7319 158.37631Q398.13815 157.79819 397.21628 157.79819Q396.2944 157.79819 395.6694 158.37631Q395.06003 158.95444 394.88815 160.12631L393.31003 159.84506Q393.59128 158.25131 394.62253 157.37631Q395.65378 156.50131 397.18503 156.50131Q398.2319 156.50131 399.12253 156.95444Q400.01315 157.40756 400.4819 158.18881Q400.95065 158.97006 400.95065 159.84506Q400.95065 160.68881 400.49753 161.37631Q400.06003 162.04819 399.1694 162.45444Q400.31003 162.72006 400.93503 163.56381Q401.57565 164.39194 401.57565 165.62631Q401.57565 167.31381 400.34128 168.50131Q399.12253 169.67319 397.24753 169.67319Q395.5444 169.67319 394.4194 168.65756Q393.31003 167.64194 393.13815 166.03256ZM403.43503 159.64194Q403.43503 158.26694 404.12253 157.29819Q404.82565 156.32944 406.13815 156.32944Q407.3569 156.32944 408.15378 157.20444Q408.95065 158.06381 408.95065 159.75131Q408.95065 161.37631 408.13815 162.26694Q407.34128 163.14194 406.15378 163.14194Q404.99753 163.14194 404.21628 162.28256Q403.43503 161.40756 403.43503 159.64194ZM406.18503 157.42319Q405.59128 157.42319 405.20065 157.93881Q404.81003 158.43881 404.81003 159.79819Q404.81003 161.04819 405.20065 161.54819Q405.6069 162.04819 406.18503 162.04819Q406.77878 162.04819 407.1694 161.54819Q407.56003 161.03256 407.56003 159.68881Q407.56003 158.43881 407.1694 157.93881Q406.77878 157.42319 406.18503 157.42319ZM406.20065 169.90756L413.24753 156.32944L414.52878 156.32944L407.49753 169.90756L406.20065 169.90756ZM411.76315 166.40756Q411.76315 165.03256 412.45065 164.06381Q413.15378 163.09506 414.4819 163.09506Q415.70065 163.09506 416.4819 163.97006Q417.27878 164.82944 417.27878 166.51694Q417.27878 168.14194 416.4819 169.03256Q415.68503 169.90756 414.49753 169.90756Q413.32565 169.90756 412.5444 169.03256Q411.76315 168.15756 411.76315 166.40756ZM414.52878 164.18881Q413.93503 164.18881 413.5444 164.70444Q413.15378 165.20444 413.15378 166.57944Q413.15378 167.79819 413.5444 168.31381Q413.93503 168.82944 414.51315 168.82944Q415.12253 168.82944 415.51315 168.31381Q415.90378 167.79819 415.90378 166.45444Q415.90378 165.20444 415.51315 164.70444Q415.12253 164.18881 414.52878 164.18881Z" fill-rule="nonzero"/><path fill="#ffffff" d="M318.82776 311.39188L318.82776 312.9075L310.31213 312.9075Q310.2965 312.32938 310.49963 311.81375Q310.82776 310.93875 311.53088 310.095Q312.24963 309.25125 313.609 308.14188Q315.70276 306.42313 316.43713 305.42313Q317.18713 304.4075 317.18713 303.51688Q317.18713 302.56375 316.51526 301.92313Q315.84338 301.2825 314.76526 301.2825Q313.609 301.2825 312.9215 301.97Q312.24963 302.6575 312.234 303.86063L310.609 303.68875Q310.78088 301.87625 311.859 300.92313Q312.95276 299.97 314.7965 299.97Q316.64026 299.97 317.71838 301.00125Q318.81213 302.0325 318.81213 303.54813Q318.81213 304.31375 318.484 305.06375Q318.1715 305.81375 317.43713 306.64188Q316.70276 307.47 314.99963 308.9075Q313.57776 310.11063 313.1715 310.5325Q312.76526 310.95438 312.51526 311.39188L318.82776 311.39188ZM328.71838 303.17313L327.15588 303.29813Q326.93713 302.37625 326.5465 301.95438Q325.90588 301.26688 324.96838 301.26688Q324.21838 301.26688 323.64026 301.68875Q322.89026 302.23563 322.45276 303.2825Q322.03088 304.32938 322.01526 306.26688Q322.59338 305.39188 323.40588 304.97Q324.234 304.54813 325.14026 304.54813Q326.734 304.54813 327.84338 305.72Q328.95276 306.87625 328.95276 308.72Q328.95276 309.93875 328.4215 310.98563Q327.90588 312.01688 326.984 312.57938Q326.07776 313.12625 324.9215 313.12625Q322.93713 313.12625 321.68713 311.67313Q320.43713 310.22 320.43713 306.87625Q320.43713 303.14188 321.82776 301.43875Q323.03088 299.97 325.06213 299.97Q326.59338 299.97 327.56213 300.82938Q328.53088 301.67313 328.71838 303.17313ZM322.26526 308.73563Q322.26526 309.54813 322.609 310.29813Q322.95276 311.04813 323.57776 311.43875Q324.20276 311.82938 324.89026 311.82938Q325.89026 311.82938 326.609 311.01688Q327.32776 310.20438 327.32776 308.81375Q327.32776 307.48563 326.609 306.72Q325.90588 305.93875 324.82776 305.93875Q323.74963 305.93875 322.99963 306.72Q322.26526 307.48563 322.26526 308.73563ZM331.40588 312.9075L331.40588 311.11063L333.20276 311.11063L333.20276 312.9075L331.40588 312.9075ZM335.51526 309.50125L337.109 309.29813Q337.37463 310.64188 338.03088 311.23563Q338.68713 311.82938 339.62463 311.82938Q340.74963 311.82938 341.51526 311.06375Q342.28088 310.2825 342.28088 309.14188Q342.28088 308.04813 341.56213 307.345Q340.859 306.62625 339.76526 306.62625Q339.31213 306.62625 338.64026 306.81375L338.81213 305.42313Q338.96838 305.43875 339.07776 305.43875Q340.07776 305.43875 340.89026 304.9075Q341.70276 304.37625 341.70276 303.2825Q341.70276 302.4075 341.109 301.845Q340.51526 301.26688 339.59338 301.26688Q338.6715 301.26688 338.0465 301.845Q337.43713 302.42313 337.26526 303.595L335.68713 303.31375Q335.96838 301.72 336.99963 300.845Q338.03088 299.97 339.56213 299.97Q340.609 299.97 341.49963 300.42313Q342.39026 300.87625 342.859 301.6575Q343.32776 302.43875 343.32776 303.31375Q343.32776 304.1575 342.87463 304.845Q342.43713 305.51688 341.5465 305.92313Q342.68713 306.18875 343.31213 307.0325Q343.95276 307.86063 343.95276 309.095Q343.95276 310.7825 342.71838 311.97Q341.49963 313.14188 339.62463 313.14188Q337.9215 313.14188 336.7965 312.12625Q335.68713 311.11063 335.51526 309.50125ZM345.81213 303.11063Q345.81213 301.73563 346.49963 300.76688Q347.20276 299.79813 348.51526 299.79813Q349.734 299.79813 350.53088 300.67313Q351.32776 301.5325 351.32776 303.22Q351.32776 304.845 350.51526 305.73563Q349.71838 306.61063 348.53088 306.61063Q347.37463 306.61063 346.59338 305.75125Q345.81213 304.87625 345.81213 303.11063ZM348.56213 300.89188Q347.96838 300.89188 347.57776 301.4075Q347.18713 301.9075 347.18713 303.26688Q347.18713 304.51688 347.57776 305.01688Q347.984 305.51688 348.56213 305.51688Q349.15588 305.51688 349.5465 305.01688Q349.93713 304.50125 349.93713 303.1575Q349.93713 301.9075 349.5465 301.4075Q349.15588 300.89188 348.56213 300.89188ZM348.57776 313.37625L355.62463 299.79813L356.90588 299.79813L349.87463 313.37625L348.57776 313.37625ZM354.14026 309.87625Q354.14026 308.50125 354.82776 307.5325Q355.53088 306.56375 356.859 306.56375Q358.07776 306.56375 358.859 307.43875Q359.65588 308.29813 359.65588 309.98563Q359.65588 311.61063 358.859 312.50125Q358.06213 313.37625 356.87463 313.37625Q355.70276 313.37625 354.9215 312.50125Q354.14026 311.62625 354.14026 309.87625ZM356.90588 307.6575Q356.31213 307.6575 355.9215 308.17313Q355.53088 308.67313 355.53088 310.04813Q355.53088 311.26688 355.9215 311.7825Q356.31213 312.29813 356.89026 312.29813Q357.49963 312.29813 357.89026 311.7825Q358.28088 311.26688 358.28088 309.92313Q358.28088 308.67313 357.89026 308.17313Q357.49963 307.6575 356.90588 307.6575Z" fill-rule="nonzero"/><path fill="#ffffff" d="M190.67436 249.41223L190.67436 250.92786L182.15874 250.92786Q182.14311 250.34973 182.34624 249.8341Q182.67436 248.9591 183.37749 248.11536Q184.09624 247.2716 185.45561 246.16223Q187.54936 244.44348 188.28374 243.44348Q189.03374 242.42786 189.03374 241.53723Q189.03374 240.5841 188.36186 239.94348Q187.68999 239.30286 186.61186 239.30286Q185.45561 239.30286 184.76811 239.99036Q184.09624 240.67786 184.08061 241.88098L182.45561 241.7091Q182.62749 239.8966 183.70561 238.94348Q184.79936 237.99036 186.64311 237.99036Q188.48686 237.99036 189.56499 239.0216Q190.65874 240.05286 190.65874 241.56848Q190.65874 242.3341 190.33061 243.0841Q190.01811 243.8341 189.28374 244.66223Q188.54936 245.49036 186.84624 246.92786Q185.42436 248.13098 185.01811 248.55286Q184.61186 248.97473 184.36186 249.41223L190.67436 249.41223ZM198.31499 250.92786L196.73686 250.92786L196.73686 240.84973Q196.15874 241.3966 195.23686 241.94348Q194.31499 242.47473 193.56499 242.75598L193.56499 241.22473Q194.89311 240.59973 195.89311 239.7091Q196.89311 238.81848 197.29936 237.99036L198.31499 237.99036L198.31499 250.92786ZM203.25249 250.92786L203.25249 249.13098L205.04936 249.13098L205.04936 250.92786L203.25249 250.92786ZM213.31499 250.92786L211.73686 250.92786L211.73686 240.84973Q211.15874 241.3966 210.23686 241.94348Q209.31499 242.47473 208.56499 242.75598L208.56499 241.22473Q209.89311 240.59973 210.89311 239.7091Q211.89311 238.81848 212.29936 237.99036L213.31499 237.99036L213.31499 250.92786ZM217.65874 241.13098Q217.65874 239.75598 218.34624 238.78723Q219.04936 237.81848 220.36186 237.81848Q221.58061 237.81848 222.37749 238.69348Q223.17436 239.55286 223.17436 241.24036Q223.17436 242.86536 222.36186 243.75598Q221.56499 244.63098 220.37749 244.63098Q219.22124 244.63098 218.43999 243.7716Q217.65874 242.8966 217.65874 241.13098ZM220.40874 238.91223Q219.81499 238.91223 219.42436 239.42786Q219.03374 239.92786 219.03374 241.28723Q219.03374 242.53723 219.42436 243.03723Q219.83061 243.53723 220.40874 243.53723Q221.00249 243.53723 221.39311 243.03723Q221.78374 242.5216 221.78374 241.17786Q221.78374 239.92786 221.39311 239.42786Q221.00249 238.91223 220.40874 238.91223ZM220.42436 251.3966L227.47124 237.81848L228.75249 237.81848L221.72124 251.3966L220.42436 251.3966ZM225.98686 247.8966Q225.98686 246.5216 226.67436 245.55286Q227.37749 244.5841 228.70561 244.5841Q229.92436 244.5841 230.70561 245.4591Q231.50249 246.31848 231.50249 248.00598Q231.50249 249.63098 230.70561 250.5216Q229.90874 251.3966 228.72124 251.3966Q227.54936 251.3966 226.76811 250.5216Q225.98686 249.6466 225.98686 247.8966ZM228.75249 245.67786Q228.15874 245.67786 227.76811 246.19348Q227.37749 246.69348 227.37749 248.06848Q227.37749 249.28723 227.76811 249.80286Q228.15874 250.31848 228.73686 250.31848Q229.34624 250.31848 229.73686 249.80286Q230.12749 249.28723 230.12749 247.94348Q230.12749 246.69348 229.73686 246.19348Q229.34624 245.67786 228.75249 245.67786Z" fill-rule="nonzero"/><path fill="#ffffff" d="M220.2691 127.34836L220.2691 128.86398L211.75348 128.86398Q211.73785 128.28586 211.94098 127.77023Q212.2691 126.89523 212.97223 126.05148Q213.69098 125.20773 215.05035 124.09836Q217.1441 122.37961 217.87848 121.37961Q218.62848 120.36398 218.62848 119.47336Q218.62848 118.52023 217.9566 117.87961Q217.28473 117.23898 216.2066 117.23898Q215.05035 117.23898 214.36285 117.92648Q213.69098 118.61398 213.67535 119.81711L212.05035 119.64523Q212.22223 117.83273 213.30035 116.87961Q214.3941 115.92648 216.23785 115.92648Q218.0816 115.92648 219.15973 116.95773Q220.25348 117.98898 220.25348 119.50461Q220.25348 120.27023 219.92535 121.02023Q219.61285 121.77023 218.87848 122.59836Q218.1441 123.42648 216.44098 124.86398Q215.0191 126.06711 214.61285 126.48898Q214.2066 126.91086 213.9566 127.34836L220.2691 127.34836ZM227.90973 128.86398L226.3316 128.86398L226.3316 118.78586Q225.75348 119.33273 224.8316 119.87961Q223.90973 120.41086 223.15973 120.69211L223.15973 119.16086Q224.48785 118.53586 225.48785 117.64523Q226.48785 116.75461 226.8941 115.92648L227.90973 115.92648L227.90973 128.86398ZM232.84723 128.86398L232.84723 127.06711L234.6441 127.06711L234.6441 128.86398L232.84723 128.86398ZM242.90973 128.86398L241.3316 128.86398L241.3316 118.78586Q240.75348 119.33273 239.8316 119.87961Q238.90973 120.41086 238.15973 120.69211L238.15973 119.16086Q239.48785 118.53586 240.48785 117.64523Q241.48785 116.75461 241.8941 115.92648L242.90973 115.92648L242.90973 128.86398ZM247.25348 119.06711Q247.25348 117.69211 247.94098 116.72336Q248.6441 115.75461 249.9566 115.75461Q251.17535 115.75461 251.97223 116.62961Q252.7691 117.48898 252.7691 119.17648Q252.7691 120.80148 251.9566 121.69211Q251.15973 122.56711 249.97223 122.56711Q248.81598 122.56711 248.03473 121.70773Q247.25348 120.83273 247.25348 119.06711ZM250.00348 116.84836Q249.40973 116.84836 249.0191 117.36398Q248.62848 117.86398 248.62848 119.22336Q248.62848 120.47336 249.0191 120.97336Q249.42535 121.47336 250.00348 121.47336Q250.59723 121.47336 250.98785 120.97336Q251.37848 120.45773 251.37848 119.11398Q251.37848 117.86398 250.98785 117.36398Q250.59723 116.84836 250.00348 116.84836ZM250.0191 129.33273L257.06598 115.75461L258.34723 115.75461L251.31598 129.33273L250.0191 129.33273ZM255.5816 125.83273Q255.5816 124.45773 256.2691 123.48898Q256.97223 122.52023 258.30035 122.52023Q259.5191 122.52023 260.30035 123.39523Q261.09723 124.25461 261.09723 125.94211Q261.09723 127.56711 260.30035 128.45773Q259.50348 129.33273 258.31598 129.33273Q257.1441 129.33273 256.36285 128.45773Q255.5816 127.58273 255.5816 125.83273ZM258.34723 123.61398Q257.75348 123.61398 257.36285 124.12961Q256.97223 124.62961 256.97223 126.00461Q256.97223 127.22336 257.36285 127.73898Q257.75348 128.25461 258.3316 128.25461Q258.94098 128.25461 259.3316 127.73898Q259.72223 127.22336 259.72223 125.87961Q259.72223 124.62961 259.3316 124.12961Q258.94098 123.61398 258.34723 123.61398Z" fill-rule="nonzero"/><path stroke="#ffffff" stroke-width="1.0" stroke-linejoin="round" stroke-linecap="round" d="M312.0761 168.50682C308.1897 167.1726 304.10904 166.49167 300.0 166.49167L300.0 54.916668C316.43622 54.916668 332.75882 57.640427 348.30444 62.977257" fill-rule="nonzero"/><path stroke="#ffffff" stroke-width="1.0" stroke-linejoin="round" stroke-linecap="round" d="M334.05914 218.62306C338.23584 209.10112 338.23584 198.26555 334.05914 188.7436C329.88242 179.22168 321.91043 171.88293 312.0761 168.50682L348.30444 62.977257C387.64175 76.48176 419.52972 105.83671 436.23654 143.92444C452.94336 182.01218 452.94336 225.35449 436.23654 263.44223" fill-rule="nonzero"/><path stroke="#ffffff" stroke-width="1.0" stroke-linejoin="round" stroke-linecap="round" d="M282.29874 236.39243C291.44324 241.34119 302.2418 242.23598 312.0761 238.85985C321.91043 235.48372 329.88242 228.14499 334.05914 218.62306L436.23654 263.44223C419.52972 301.52997 387.64175 330.88492 348.30444 344.3894C308.96716 357.89392 265.7729 354.31473 229.19489 334.5197" fill-rule="nonzero"/><path stroke="#ffffff" stroke-width="1.0" stroke-linejoin="round" stroke-linecap="round" d="M263.94638 194.55331C259.76727 211.05627 267.32666 228.28995 282.29874 236.39243L229.19489 334.5197C169.30664 302.1098 139.06909 233.17513 155.78555 167.16327" fill-rule="nonzero"/><path stroke="#ffffff" stroke-width="1.0" stroke-linejoin="round" stroke-linecap="round" d="M300.0 166.49167C282.9761 166.49167 268.12552 178.05035 263.94638 194.55331L155.78555 167.16327C172.50203 101.151436 231.90445 54.916668 300.0 54.916668" fill-rule="nonzero"/><path fill="#efefef" d="M27.3 75.20229L28.815624 75.20229L28.815624 81.81167Q28.815624 83.54604 28.425 84.56167Q28.034374 85.57729 27.01875 86.21792Q26.003124 86.85854 24.346874 86.85854Q22.7375 86.85854 21.70625 86.29604Q20.690624 85.73354 20.253124 84.68667Q19.815624 83.63979 19.815624 81.81167L19.815624 75.20229L21.33125 75.20229L21.33125 81.81167Q21.33125 83.29604 21.596874 84.01479Q21.878124 84.71792 22.55 85.10854Q23.2375 85.48354 24.20625 85.48354Q25.878124 85.48354 26.58125 84.73354Q27.3 83.96792 27.3 81.81167L27.3 75.20229ZM31.596874 86.65542L31.596874 78.35854L32.8625 78.35854L32.8625 79.60854Q33.346874 78.73354 33.753124 78.45229Q34.159374 78.17104 34.659374 78.17104Q35.3625 78.17104 36.096874 78.62417L35.6125 79.92104Q35.096874 79.62417 34.58125 79.62417Q34.128124 79.62417 33.753124 79.90542Q33.39375 80.17104 33.2375 80.67104Q33.003124 81.42104 33.003124 82.31167L33.003124 86.65542L31.596874 86.65542ZM37.909374 86.65542L36.596874 86.65542L36.596874 75.20229L38.003124 75.20229L38.003124 79.28042Q38.89375 78.17104 40.284374 78.17104Q41.05 78.17104 41.721874 78.48354Q42.409374 78.78042 42.846874 79.34292Q43.3 79.90542 43.55 80.70229Q43.8 81.48354 43.8 82.37417Q43.8 84.51479 42.7375 85.68667Q41.690624 86.84292 40.20625 86.84292Q38.7375 86.84292 37.909374 85.60854L37.909374 86.65542ZM37.89375 82.43667Q37.89375 83.93667 38.3 84.59292Q38.95625 85.68667 40.096874 85.68667Q41.01875 85.68667 41.690624 84.88979Q42.3625 84.07729 42.3625 82.49917Q42.3625 80.87417 41.70625 80.10854Q41.065624 79.32729 40.159374 79.32729Q39.2375 79.32729 38.565624 80.12417Q37.89375 80.92104 37.89375 82.43667ZM51.01875 85.62417Q50.2375 86.29604 49.51875 86.57729Q48.8 86.84292 47.971874 86.84292Q46.596874 86.84292 45.8625 86.17104Q45.128124 85.49917 45.128124 84.46792Q45.128124 83.85854 45.409374 83.35854Q45.690624 82.84292 46.128124 82.54604Q46.58125 82.23354 47.14375 82.07729Q47.565624 81.96792 48.39375 81.87417Q50.096874 81.67104 50.909374 81.38979Q50.909374 81.09292 50.909374 81.01479Q50.909374 80.15542 50.51875 79.81167Q49.971874 79.32729 48.909374 79.32729Q47.925 79.32729 47.440624 79.68667Q46.971874 80.03042 46.753124 80.90542L45.378124 80.71792Q45.565624 79.84292 45.9875 79.29604Q46.425 78.74917 47.2375 78.46792Q48.05 78.17104 49.1125 78.17104Q50.175 78.17104 50.83125 78.42104Q51.503124 78.67104 51.815624 79.04604Q52.128124 79.42104 52.253124 79.99917Q52.33125 80.35854 52.33125 81.29604L52.33125 83.17104Q52.33125 85.13979 52.409374 85.65542Q52.503124 86.17104 52.76875 86.65542L51.3 86.65542Q51.08125 86.21792 51.01875 85.62417ZM50.909374 82.48354Q50.14375 82.79604 48.6125 83.01479Q47.7375 83.13979 47.378124 83.29604Q47.01875 83.45229 46.815624 83.76479Q46.628124 84.06167 46.628124 84.42104Q46.628124 84.98354 47.05 85.35854Q47.4875 85.73354 48.3 85.73354Q49.1125 85.73354 49.7375 85.38979Q50.378124 85.03042 50.675 84.40542Q50.909374 83.93667 50.909374 82.99917L50.909374 82.48354ZM54.6125 86.65542L54.6125 78.35854L55.878124 78.35854L55.878124 79.53042Q56.784374 78.17104 58.51875 78.17104Q59.26875 78.17104 59.89375 78.43667Q60.51875 78.70229 60.83125 79.13979Q61.14375 79.57729 61.26875 80.18667Q61.346874 80.57729 61.346874 81.54604L61.346874 86.65542L59.940624 86.65542L59.940624 81.60854Q59.940624 80.74917 59.76875 80.32729Q59.6125 79.88979 59.190624 79.63979Q58.784374 79.38979 58.221874 79.38979Q57.315624 79.38979 56.659374 79.96792Q56.01875 80.53042 56.01875 82.12417L56.01875 86.65542L54.6125 86.65542ZM63.05 84.17104L64.44063 83.95229Q64.55 84.79604 65.08125 85.24917Q65.62813 85.68667 66.58125 85.68667Q67.55 85.68667 68.01875 85.29604Q68.4875 84.88979 68.4875 84.35854Q68.4875 83.88979 68.08125 83.60854Q67.78438 83.42104 66.64375 83.13979Q65.09688 82.74917 64.4875 82.46792Q63.89375 82.17104 63.58125 81.67104Q63.284374 81.17104 63.284374 80.56167Q63.284374 79.99917 63.534374 79.53042Q63.784374 79.06167 64.22188 78.74917Q64.55 78.49917 65.1125 78.34292Q65.69063 78.17104 66.33125 78.17104Q67.31563 78.17104 68.05 78.45229Q68.78438 78.73354 69.12813 79.21792Q69.4875 79.68667 69.62813 80.49917L68.25313 80.68667Q68.15938 80.04604 67.70625 79.68667Q67.25313 79.32729 66.44063 79.32729Q65.47188 79.32729 65.05 79.65542Q64.64375 79.96792 64.64375 80.38979Q64.64375 80.67104 64.81563 80.88979Q64.9875 81.10854 65.34688 81.26479Q65.56563 81.34292 66.59688 81.62417Q68.08125 82.01479 68.675 82.28042Q69.26875 82.53042 69.59688 83.01479Q69.94063 83.49917 69.94063 84.21792Q69.94063 84.92104 69.51875 85.54604Q69.1125 86.15542 68.33125 86.49917Q67.56563 86.84292 66.59688 86.84292Q64.97188 86.84292 64.12813 86.17104Q63.284374 85.49917 63.05 84.17104ZM77.01875 83.60854L78.40938 83.79604Q78.175 85.21792 77.2375 86.03042Q76.31563 86.84292 74.95625 86.84292Q73.25313 86.84292 72.20625 85.73354Q71.175 84.60854 71.175 82.53042Q71.175 81.18667 71.6125 80.18667Q72.06563 79.17104 72.97188 78.67104Q73.89375 78.17104 74.95625 78.17104Q76.31563 78.17104 77.175 78.85854Q78.03438 79.53042 78.26875 80.79604L76.90938 80.99917Q76.70625 80.17104 76.20625 79.74917Q75.72188 79.32729 75.01875 79.32729Q73.95625 79.32729 73.28438 80.09292Q72.62813 80.84292 72.62813 82.49917Q72.62813 84.17104 73.26875 84.93667Q73.90938 85.68667 74.94063 85.68667Q75.76875 85.68667 76.31563 85.18667Q76.87813 84.67104 77.01875 83.60854ZM85.01875 85.62417Q84.2375 86.29604 83.51875 86.57729Q82.8 86.84292 81.97188 86.84292Q80.59688 86.84292 79.8625 86.17104Q79.12813 85.49917 79.12813 84.46792Q79.12813 83.85854 79.40938 83.35854Q79.69063 82.84292 80.12813 82.54604Q80.58125 82.23354 81.14375 82.07729Q81.56563 81.96792 82.39375 81.87417Q84.09688 81.67104 84.90938 81.38979Q84.90938 81.09292 84.90938 81.01479Q84.90938 80.15542 84.51875 79.81167Q83.97188 79.32729 82.90938 79.32729Q81.925 79.32729 81.44063 79.68667Q80.97188 80.03042 80.75313 80.90542L79.37813 80.71792Q79.56563 79.84292 79.9875 79.29604Q80.425 78.74917 81.2375 78.46792Q82.05 78.17104 83.1125 78.17104Q84.175 78.17104 84.83125 78.42104Q85.50313 78.67104 85.81563 79.04604Q86.12813 79.42104 86.25313 79.99917Q86.33125 80.35854 86.33125 81.29604L86.33125 83.17104Q86.33125 85.13979 86.40938 85.65542Q86.50313 86.17104 86.76875 86.65542L85.3 86.65542Q85.08125 86.21792 85.01875 85.62417ZM84.90938 82.48354Q84.14375 82.79604 82.6125 83.01479Q81.7375 83.13979 81.37813 83.29604Q81.01875 83.45229 80.81563 83.76479Q80.62813 84.06167 80.62813 84.42104Q80.62813 84.98354 81.05 85.35854Q81.4875 85.73354 82.3 85.73354Q83.1125 85.73354 83.7375 85.38979Q84.37813 85.03042 84.675 84.40542Q84.90938 83.93667 84.90938 82.99917L84.90938 82.48354ZM88.6125 89.84292L88.6125 78.35854L89.89375 78.35854L89.89375 79.43667Q90.34688 78.79604 90.90938 78.48354Q91.4875 78.17104 92.3 78.17104Q93.3625 78.17104 94.175 78.71792Q94.9875 79.26479 95.39375 80.26479Q95.81563 81.24917 95.81563 82.43667Q95.81563 83.71792 95.34688 84.73354Q94.89375 85.74917 94.01875 86.29604Q93.15938 86.84292 92.19063 86.84292Q91.4875 86.84292 90.925 86.54604Q90.37813 86.24917 90.01875 85.79604L90.01875 89.84292L88.6125 89.84292ZM89.87813 82.54604Q89.87813 84.15542 90.51875 84.92104Q91.175 85.68667 92.09688 85.68667Q93.03438 85.68667 93.70625 84.88979Q94.37813 84.09292 94.37813 82.43667Q94.37813 80.84292 93.72188 80.06167Q93.06563 79.26479 92.15938 79.26479Q91.26875 79.26479 90.56563 80.10854Q89.87813 80.95229 89.87813 82.54604ZM103.28438 83.98354L104.7375 84.15542Q104.39375 85.43667 103.45625 86.13979Q102.53438 86.84292 101.09688 86.84292Q99.26875 86.84292 98.20625 85.71792Q97.14375 84.59292 97.14375 82.57729Q97.14375 80.48354 98.22188 79.32729Q99.3 78.17104 101.01875 78.17104Q102.675 78.17104 103.72188 79.31167Q104.78438 80.43667 104.78438 82.48354Q104.78438 82.60854 104.78438 82.85854L98.59688 82.85854Q98.675 84.23354 99.3625 84.96792Q100.06563 85.68667 101.09688 85.68667Q101.87813 85.68667 102.425 85.28042Q102.97188 84.87417 103.28438 83.98354ZM98.675 81.70229L103.3 81.70229Q103.20625 80.65542 102.76875 80.13979Q102.09688 79.32729 101.03438 79.32729Q100.06563 79.32729 99.39375 79.98354Q98.7375 80.62417 98.675 81.70229Z" fill-rule="nonzero"/><path fill="#9e9e9e" d="M26.6125 107.29604L26.6125 108.65542L19.034374 108.65542Q19.01875 108.13979 19.20625 107.67104Q19.4875 106.90542 20.128124 106.15542Q20.76875 105.40542 21.971874 104.42104Q23.83125 102.88979 24.4875 101.99917Q25.14375 101.09292 25.14375 100.29604Q25.14375 99.46792 24.55 98.88979Q23.95625 98.31167 22.9875 98.31167Q21.971874 98.31167 21.3625 98.92104Q20.753124 99.53042 20.753124 100.60854L19.3 100.46792Q19.45625 98.84292 20.425 97.99917Q21.39375 97.15542 23.01875 97.15542Q24.675 97.15542 25.628124 98.07729Q26.596874 98.98354 26.596874 100.32729Q26.596874 101.01479 26.315624 101.68667Q26.034374 102.34292 25.378124 103.07729Q24.721874 103.81167 23.20625 105.09292Q21.940624 106.15542 21.58125 106.54604Q21.221874 106.92104 20.9875 107.29604L26.6125 107.29604ZM33.51875 108.65542L32.1125 108.65542L32.1125 99.68667Q31.596874 100.17104 30.76875 100.65542Q29.95625 101.13979 29.3 101.38979L29.3 100.03042Q30.471874 99.46792 31.346874 98.68667Q32.2375 97.88979 32.6125 97.15542L33.51875 97.15542L33.51875 108.65542ZM38.003124 108.65542L38.003124 107.04604L39.6125 107.04604L39.6125 108.65542L38.003124 108.65542ZM46.51875 108.65542L45.1125 108.65542L45.1125 99.68667Q44.596874 100.17104 43.76875 100.65542Q42.95625 101.13979 42.3 101.38979L42.3 100.03042Q43.471874 99.46792 44.346874 98.68667Q45.2375 97.88979 45.6125 97.15542L46.51875 97.15542L46.51875 108.65542ZM50.4875 99.95229Q50.4875 98.71792 51.096874 97.85854Q51.721874 96.99917 52.89375 96.99917Q53.971874 96.99917 54.675 97.78042Q55.378124 98.54604 55.378124 100.03042Q55.378124 101.48354 54.659374 102.28042Q53.95625 103.06167 52.909374 103.06167Q51.8625 103.06167 51.175 102.29604Q50.4875 101.51479 50.4875 99.95229ZM52.925 97.96792Q52.409374 97.96792 52.05 98.42104Q51.70625 98.87417 51.70625 100.09292Q51.70625 101.18667 52.05 101.63979Q52.409374 102.09292 52.925 102.09292Q53.45625 102.09292 53.8 101.63979Q54.159374 101.18667 54.159374 99.98354Q54.159374 98.87417 53.8 98.42104Q53.45625 97.96792 52.925 97.96792ZM52.940624 109.07729L59.20625 96.99917L60.346874 96.99917L54.096874 109.07729L52.940624 109.07729ZM57.89375 105.96792Q57.89375 104.73354 58.503124 103.87417Q59.128124 103.01479 60.3 103.01479Q61.378124 103.01479 62.08125 103.79604Q62.8 104.56167 62.8 106.04604Q62.8 107.49917 62.08125 108.29604Q61.3625 109.07729 60.315624 109.07729Q59.26875 109.07729 58.58125 108.29604Q57.89375 107.51479 57.89375 105.96792ZM60.346874 103.98354Q59.815624 103.98354 59.45625 104.43667Q59.1125 104.88979 59.1125 106.10854Q59.1125 107.20229 59.45625 107.65542Q59.815624 108.10854 60.33125 108.10854Q60.878124 108.10854 61.221874 107.65542Q61.565624 107.20229 61.565624 105.99917Q61.565624 104.88979 61.20625 104.43667Q60.8625 103.98354 60.346874 103.98354Z" fill-rule="nonzero"/><path stroke="#757575" stroke-width="1.0" stroke-linecap="butt" d="M18.55 92.15542L145.23334 92.15542L213.19434 92.15542" fill-rule="nonzero"/><path fill="#9e9e9e" d="M215.19434 92.15542C215.19434 91.05085 214.2989 90.15542 213.19434 90.15542C212.08977 90.15542 211.19434 91.05085 211.19434 92.15542C211.19434 93.25999 212.08977 94.15542 213.19434 94.15542C214.2989 94.15542 215.19434 93.25999 215.19434 92.15542" fill-rule="nonzero"/><path fill="#efefef" d="M19.76875 254.95428L19.76875 243.50116L21.33125 243.50116L27.346874 252.48553L27.346874 243.50116L28.8 243.50116L28.8 254.95428L27.2375 254.95428L21.221874 245.95428L21.221874 254.95428L19.76875 254.95428ZM37.01875 253.92303Q36.2375 254.59491 35.51875 254.87616Q34.8 255.14178 33.971874 255.14178Q32.596874 255.14178 31.8625 254.46991Q31.128124 253.79803 31.128124 252.76678Q31.128124 252.15741 31.409374 251.65741Q31.690624 251.14178 32.128124 250.84491Q32.58125 250.53241 33.14375 250.37616Q33.565624 250.26678 34.39375 250.17303Q36.096874 249.96991 36.909374 249.68866Q36.909374 249.39178 36.909374 249.31366Q36.909374 248.45428 36.51875 248.11053Q35.971874 247.62616 34.909374 247.62616Q33.925 247.62616 33.440624 247.98553Q32.971874 248.32928 32.753124 249.20428L31.378124 249.01678Q31.565624 248.14178 31.9875 247.59491Q32.425 247.04803 33.2375 246.76678Q34.05 246.46991 35.1125 246.46991Q36.175 246.46991 36.83125 246.71991Q37.503124 246.96991 37.815624 247.34491Q38.128124 247.71991 38.253124 248.29803Q38.33125 248.65741 38.33125 249.59491L38.33125 251.46991Q38.33125 253.43866 38.409374 253.95428Q38.503124 254.46991 38.76875 254.95428L37.3 254.95428Q37.08125 254.51678 37.01875 253.92303ZM36.909374 250.78241Q36.14375 251.09491 34.6125 251.31366Q33.7375 251.43866 33.378124 251.59491Q33.01875 251.75116 32.815624 252.06366Q32.628124 252.36053 32.628124 252.71991Q32.628124 253.28241 33.05 253.65741Q33.4875 254.03241 34.3 254.03241Q35.1125 254.03241 35.7375 253.68866Q36.378124 253.32928 36.675 252.70428Q36.909374 252.23553 36.909374 251.29803L36.909374 250.78241ZM43.675 253.68866L43.878124 254.93866Q43.284374 255.06366 42.815624 255.06366Q42.05 255.06366 41.628124 254.82928Q41.20625 254.57928 41.034374 254.18866Q40.8625 253.78241 40.8625 252.51678L40.8625 247.75116L39.83125 247.75116L39.83125 246.65741L40.8625 246.65741L40.8625 244.59491L42.26875 243.75116L42.26875 246.65741L43.675 246.65741L43.675 247.75116L42.26875 247.75116L42.26875 252.59491Q42.26875 253.20428 42.33125 253.37616Q42.409374 253.54803 42.58125 253.65741Q42.753124 253.75116 43.065624 253.75116Q43.3 253.75116 43.675 253.68866ZM50.05 254.95428L50.05 253.73553Q49.08125 255.14178 47.409374 255.14178Q46.675 255.14178 46.034374 254.86053Q45.409374 254.57928 45.096874 254.15741Q44.784374 253.71991 44.659374 253.11053Q44.58125 252.68866 44.58125 251.79803L44.58125 246.65741L45.9875 246.65741L45.9875 251.25116Q45.9875 252.36053 46.065624 252.73553Q46.20625 253.29803 46.628124 253.61053Q47.065624 253.92303 47.690624 253.92303Q48.33125 253.92303 48.878124 253.61053Q49.440624 253.28241 49.659374 252.71991Q49.89375 252.15741 49.89375 251.09491L49.89375 246.65741L51.3 246.65741L51.3 254.95428L50.05 254.95428ZM53.596874 254.95428L53.596874 246.65741L54.8625 246.65741L54.8625 247.90741Q55.346874 247.03241 55.753124 246.75116Q56.159374 246.46991 56.659374 246.46991Q57.3625 246.46991 58.096874 246.92303L57.6125 248.21991Q57.096874 247.92303 56.58125 247.92303Q56.128124 247.92303 55.753124 248.20428Q55.39375 248.46991 55.2375 248.96991Q55.003124 249.71991 55.003124 250.61053L55.003124 254.95428L53.596874 254.95428ZM64.28438 252.28241L65.7375 252.45428Q65.39375 253.73553 64.45625 254.43866Q63.534374 255.14178 62.096874 255.14178Q60.26875 255.14178 59.20625 254.01678Q58.14375 252.89178 58.14375 250.87616Q58.14375 248.78241 59.221874 247.62616Q60.3 246.46991 62.01875 246.46991Q63.675 246.46991 64.72188 247.61053Q65.78438 248.73553 65.78438 250.78241Q65.78438 250.90741 65.78438 251.15741L59.596874 251.15741Q59.675 252.53241 60.3625 253.26678Q61.065624 253.98553 62.096874 253.98553Q62.878124 253.98553 63.425 253.57928Q63.971874 253.17303 64.28438 252.28241ZM59.675 250.00116L64.3 250.00116Q64.20625 248.95428 63.76875 248.43866Q63.096874 247.62616 62.034374 247.62616Q61.065624 247.62616 60.39375 248.28241Q59.7375 248.92303 59.675 250.00116ZM67.05 252.46991L68.44063 252.25116Q68.55 253.09491 69.08125 253.54803Q69.62813 253.98553 70.58125 253.98553Q71.55 253.98553 72.01875 253.59491Q72.4875 253.18866 72.4875 252.65741Q72.4875 252.18866 72.08125 251.90741Q71.78438 251.71991 70.64375 251.43866Q69.09688 251.04803 68.4875 250.76678Q67.89375 250.46991 67.58125 249.96991Q67.28438 249.46991 67.28438 248.86053Q67.28438 248.29803 67.53438 247.82928Q67.78438 247.36053 68.22188 247.04803Q68.55 246.79803 69.1125 246.64178Q69.69063 246.46991 70.33125 246.46991Q71.31563 246.46991 72.05 246.75116Q72.78438 247.03241 73.12813 247.51678Q73.4875 247.98553 73.62813 248.79803L72.25313 248.98553Q72.15938 248.34491 71.70625 247.98553Q71.25313 247.62616 70.44063 247.62616Q69.47188 247.62616 69.05 247.95428Q68.64375 248.26678 68.64375 248.68866Q68.64375 248.96991 68.81563 249.18866Q68.9875 249.40741 69.34688 249.56366Q69.56563 249.64178 70.59688 249.92303Q72.08125 250.31366 72.675 250.57928Q73.26875 250.82928 73.59688 251.31366Q73.94063 251.79803 73.94063 252.51678Q73.94063 253.21991 73.51875 253.84491Q73.1125 254.45428 72.33125 254.79803Q71.56563 255.14178 70.59688 255.14178Q68.97188 255.14178 68.12813 254.46991Q67.28438 253.79803 67.05 252.46991ZM81.01875 251.90741L82.40938 252.09491Q82.175 253.51678 81.2375 254.32928Q80.31563 255.14178 78.95625 255.14178Q77.25313 255.14178 76.20625 254.03241Q75.175 252.90741 75.175 250.82928Q75.175 249.48553 75.6125 248.48553Q76.06563 247.46991 76.97188 246.96991Q77.89375 246.46991 78.95625 246.46991Q80.31563 246.46991 81.175 247.15741Q82.03438 247.82928 82.26875 249.09491L80.90938 249.29803Q80.70625 248.46991 80.20625 248.04803Q79.72188 247.62616 79.01875 247.62616Q77.95625 247.62616 77.28438 248.39178Q76.62813 249.14178 76.62813 250.79803Q76.62813 252.46991 77.26875 253.23553Q77.90938 253.98553 78.94063 253.98553Q79.76875 253.98553 80.31563 253.48553Q80.87813 252.96991 81.01875 251.90741ZM89.01875 253.92303Q88.2375 254.59491 87.51875 254.87616Q86.8 255.14178 85.97188 255.14178Q84.59688 255.14178 83.8625 254.46991Q83.12813 253.79803 83.12813 252.76678Q83.12813 252.15741 83.40938 251.65741Q83.69063 251.14178 84.12813 250.84491Q84.58125 250.53241 85.14375 250.37616Q85.56563 250.26678 86.39375 250.17303Q88.09688 249.96991 88.90938 249.68866Q88.90938 249.39178 88.90938 249.31366Q88.90938 248.45428 88.51875 248.11053Q87.97188 247.62616 86.90938 247.62616Q85.925 247.62616 85.44063 247.98553Q84.97188 248.32928 84.75313 249.20428L83.37813 249.01678Q83.56563 248.14178 83.9875 247.59491Q84.425 247.04803 85.2375 246.76678Q86.05 246.46991 87.1125 246.46991Q88.175 246.46991 88.83125 246.71991Q89.50313 246.96991 89.81563 247.34491Q90.12813 247.71991 90.25313 248.29803Q90.33125 248.65741 90.33125 249.59491L90.33125 251.46991Q90.33125 253.43866 90.40938 253.95428Q90.50313 254.46991 90.76875 254.95428L89.3 254.95428Q89.08125 254.51678 89.01875 253.92303ZM88.90938 250.78241Q88.14375 251.09491 86.6125 251.31366Q85.7375 251.43866 85.37813 251.59491Q85.01875 251.75116 84.81563 252.06366Q84.62813 252.36053 84.62813 252.71991Q84.62813 253.28241 85.05 253.65741Q85.4875 254.03241 86.3 254.03241Q87.1125 254.03241 87.7375 253.68866Q88.37813 253.32928 88.675 252.70428Q88.90938 252.23553 88.90938 251.29803L88.90938 250.78241ZM92.6125 258.14178L92.6125 246.65741L93.89375 246.65741L93.89375 247.73553Q94.34688 247.09491 94.90938 246.78241Q95.4875 246.46991 96.3 246.46991Q97.3625 246.46991 98.175 247.01678Q98.9875 247.56366 99.39375 248.56366Q99.81563 249.54803 99.81563 250.73553Q99.81563 252.01678 99.34688 253.03241Q98.89375 254.04803 98.01875 254.59491Q97.15938 255.14178 96.19063 255.14178Q95.4875 255.14178 94.925 254.84491Q94.37813 254.54803 94.01875 254.09491L94.01875 258.14178L92.6125 258.14178ZM93.87813 250.84491Q93.87813 252.45428 94.51875 253.21991Q95.175 253.98553 96.09688 253.98553Q97.03438 253.98553 97.70625 253.18866Q98.37813 252.39178 98.37813 250.73553Q98.37813 249.14178 97.72188 248.36053Q97.06563 247.56366 96.15938 247.56366Q95.26875 247.56366 94.56563 248.40741Q93.87813 249.25116 93.87813 250.84491ZM107.28438 252.28241L108.7375 252.45428Q108.39375 253.73553 107.45625 254.43866Q106.53438 255.14178 105.09688 255.14178Q103.26875 255.14178 102.20625 254.01678Q101.14375 252.89178 101.14375 250.87616Q101.14375 248.78241 102.22188 247.62616Q103.3 246.46991 105.01875 246.46991Q106.675 246.46991 107.72188 247.61053Q108.78438 248.73553 108.78438 250.78241Q108.78438 250.90741 108.78438 251.15741L102.59688 251.15741Q102.675 252.53241 103.3625 253.26678Q104.06563 253.98553 105.09688 253.98553Q105.87813 253.98553 106.425 253.57928Q106.97188 253.17303 107.28438 252.28241ZM102.675 250.00116L107.3 250.00116Q107.20625 248.95428 106.76875 248.43866Q106.09688 247.62616 105.03438 247.62616Q104.06563 247.62616 103.39375 248.28241Q102.7375 248.92303 102.675 250.00116Z" fill-rule="nonzero"/><path fill="#9e9e9e" d="M26.6125 275.5949L26.6125 276.95428L19.034374 276.95428Q19.01875 276.43866 19.20625 275.9699Q19.4875 275.20428 20.128124 274.45428Q20.76875 273.70428 21.971874 272.7199Q23.83125 271.18866 24.4875 270.29803Q25.14375 269.39178 25.14375 268.5949Q25.14375 267.76678 24.55 267.18866Q23.95625 266.61053 22.9875 266.61053Q21.971874 266.61053 21.3625 267.2199Q20.753124 267.82928 20.753124 268.9074L19.3 268.76678Q19.45625 267.14178 20.425 266.29803Q21.39375 265.45428 23.01875 265.45428Q24.675 265.45428 25.628124 266.37616Q26.596874 267.2824 26.596874 268.62616Q26.596874 269.31366 26.315624 269.98553Q26.034374 270.64178 25.378124 271.37616Q24.721874 272.11053 23.20625 273.39178Q21.940624 274.45428 21.58125 274.8449Q21.221874 275.2199 20.9875 275.5949L26.6125 275.5949ZM33.51875 276.95428L32.1125 276.95428L32.1125 267.98553Q31.596874 268.4699 30.76875 268.95428Q29.95625 269.43866 29.3 269.68866L29.3 268.32928Q30.471874 267.76678 31.346874 266.98553Q32.2375 266.18866 32.6125 265.45428L33.51875 265.45428L33.51875 276.95428ZM38.003124 276.95428L38.003124 275.3449L39.6125 275.3449L39.6125 276.95428L38.003124 276.95428ZM46.51875 276.95428L45.1125 276.95428L45.1125 267.98553Q44.596874 268.4699 43.76875 268.95428Q42.95625 269.43866 42.3 269.68866L42.3 268.32928Q43.471874 267.76678 44.346874 266.98553Q45.2375 266.18866 45.6125 265.45428L46.51875 265.45428L46.51875 276.95428ZM50.4875 268.25116Q50.4875 267.01678 51.096874 266.1574Q51.721874 265.29803 52.89375 265.29803Q53.971874 265.29803 54.675 266.07928Q55.378124 266.8449 55.378124 268.32928Q55.378124 269.7824 54.659374 270.57928Q53.95625 271.36053 52.909374 271.36053Q51.8625 271.36053 51.175 270.5949Q50.4875 269.81366 50.4875 268.25116ZM52.925 266.26678Q52.409374 266.26678 52.05 266.7199Q51.70625 267.17303 51.70625 268.39178Q51.70625 269.48553 52.05 269.93866Q52.409374 270.39178 52.925 270.39178Q53.45625 270.39178 53.8 269.93866Q54.159374 269.48553 54.159374 268.2824Q54.159374 267.17303 53.8 266.7199Q53.45625 266.26678 52.925 266.26678ZM52.940624 277.37616L59.20625 265.29803L60.346874 265.29803L54.096874 277.37616L52.940624 277.37616ZM57.89375 274.26678Q57.89375 273.0324 58.503124 272.17303Q59.128124 271.31366 60.3 271.31366Q61.378124 271.31366 62.08125 272.0949Q62.8 272.86053 62.8 274.3449Q62.8 275.79803 62.08125 276.5949Q61.3625 277.37616 60.315624 277.37616Q59.26875 277.37616 58.58125 276.5949Q57.89375 275.81366 57.89375 274.26678ZM60.346874 272.2824Q59.815624 272.2824 59.45625 272.73553Q59.1125 273.18866 59.1125 274.4074Q59.1125 275.50116 59.45625 275.95428Q59.815624 276.4074 60.33125 276.4074Q60.878124 276.4074 61.221874 275.95428Q61.565624 275.50116 61.565624 274.29803Q61.565624 273.18866 61.20625 272.73553Q60.8625 272.2824 60.346874 272.2824Z" fill-rule="nonzero"/><path stroke="#757575" stroke-width="1.0" stroke-linecap="butt" d="M18.55 260.45428L145.23334 260.45428L170.57529 260.45428" fill-rule="nonzero"/><path fill="#9e9e9e" d="M172.57529 260.45428C172.57529 259.3497 171.67986 258.45428 170.57529 258.45428C169.47072 258.45428 168.57529 259.3497 168.57529 260.45428C168.57529 261.55884 169.47072 262.45428 170.57529 262.45428C171.67986 262.45428 172.57529 261.55884 172.57529 260.45428" fill-rule="nonzero"/><path fill="#efefef" d="M551.6375 69.916664L551.6375 58.46354L553.91876 58.46354L556.6375 66.572914Q557.0125 67.697914 557.1844 68.260414Q557.3719 67.635414 557.79376 66.43229L560.52814 58.46354L562.575 58.46354L562.575 69.916664L561.10626 69.916664L561.10626 60.322914L557.77814 69.916664L556.41876 69.916664L553.10626 60.166664L553.10626 69.916664L551.6375 69.916664ZM569.91876 68.885414Q569.1375 69.55729 568.41876 69.83854Q567.7 70.104164 566.8719 70.104164Q565.4969 70.104164 564.7625 69.43229Q564.02814 68.760414 564.02814 67.729164Q564.02814 67.11979 564.3094 66.61979Q564.59064 66.104164 565.02814 65.80729Q565.48126 65.49479 566.04376 65.33854Q566.46564 65.229164 567.29376 65.135414Q568.9969 64.93229 569.8094 64.65104Q569.8094 64.354164 569.8094 64.27604Q569.8094 63.416664 569.41876 63.072914Q568.8719 62.58854 567.8094 62.58854Q566.825 62.58854 566.34064 62.947914Q565.8719 63.291664 565.65314 64.166664L564.27814 63.979164Q564.46564 63.104164 564.8875 62.55729Q565.325 62.010414 566.1375 61.729164Q566.95 61.43229 568.0125 61.43229Q569.075 61.43229 569.73126 61.68229Q570.40314 61.93229 570.71564 62.30729Q571.02814 62.68229 571.15314 63.260414Q571.23126 63.61979 571.23126 64.55729L571.23126 66.43229Q571.23126 68.40104 571.3094 68.916664Q571.40314 69.43229 571.66876 69.916664L570.2 69.916664Q569.98126 69.479164 569.91876 68.885414ZM569.8094 65.74479Q569.04376 66.05729 567.5125 66.27604Q566.6375 66.40104 566.27814 66.55729Q565.91876 66.71354 565.71564 67.02604Q565.52814 67.322914 565.52814 67.68229Q565.52814 68.24479 565.95 68.61979Q566.3875 68.99479 567.2 68.99479Q568.0125 68.99479 568.6375 68.65104Q569.27814 68.291664 569.575 67.666664Q569.8094 67.197914 569.8094 66.260414L569.8094 65.74479ZM573.5125 73.104164L573.5125 61.61979L574.79376 61.61979L574.79376 62.697914Q575.2469 62.05729 575.8094 61.74479Q576.3875 61.43229 577.2 61.43229Q578.2625 61.43229 579.075 61.979164Q579.8875 62.52604 580.29376 63.52604Q580.71564 64.510414 580.71564 65.697914Q580.71564 66.979164 580.2469 67.99479Q579.79376 69.010414 578.91876 69.55729Q578.0594 70.104164 577.09064 70.104164Q576.3875 70.104164 575.825 69.80729Q575.27814 69.510414 574.91876 69.05729L574.91876 73.104164L573.5125 73.104164ZM574.77814 65.80729Q574.77814 67.416664 575.41876 68.18229Q576.075 68.947914 576.9969 68.947914Q577.9344 68.947914 578.60626 68.15104Q579.27814 67.354164 579.27814 65.697914Q579.27814 64.104164 578.6219 63.322914Q577.96564 62.52604 577.0594 62.52604Q576.16876 62.52604 575.46564 63.36979Q574.77814 64.21354 574.77814 65.80729Z" fill-rule="nonzero"/><path fill="#9e9e9e" d="M546.1219 88.916664L547.59064 88.791664Q547.7625 89.86979 548.35626 90.416664Q548.95 90.947914 549.79376 90.947914Q550.8094 90.947914 551.5125 90.18229Q552.21564 89.416664 552.21564 88.15104Q552.21564 86.947914 551.54376 86.260414Q550.8719 85.55729 549.77814 85.55729Q549.09064 85.55729 548.54376 85.86979Q547.9969 86.18229 547.6844 86.666664L546.3719 86.49479L547.48126 80.61979L553.16876 80.61979L553.16876 81.96354L548.60626 81.96354L547.98126 85.041664Q549.0125 84.322914 550.15314 84.322914Q551.65314 84.322914 552.6844 85.36979Q553.71564 86.40104 553.71564 88.02604Q553.71564 89.58854 552.8094 90.71354Q551.7 92.11979 549.79376 92.11979Q548.23126 92.11979 547.2469 91.24479Q546.2625 90.354164 546.1219 88.916664ZM555.90314 91.916664L555.90314 90.30729L557.5125 90.30729L557.5125 91.916664L555.90314 91.916664ZM559.1219 88.885414L560.52814 88.697914Q560.77814 89.90104 561.35626 90.43229Q561.9344 90.947914 562.77814 90.947914Q563.7625 90.947914 564.45 90.260414Q565.1375 89.572914 565.1375 88.55729Q565.1375 87.58854 564.4969 86.96354Q563.8719 86.33854 562.8875 86.33854Q562.4969 86.33854 561.90314 86.49479L562.0594 85.260414Q562.2 85.27604 562.27814 85.27604Q563.1844 85.27604 563.90314 84.80729Q564.6219 84.33854 564.6219 83.354164Q564.6219 82.58854 564.09064 82.08854Q563.575 81.572914 562.7469 81.572914Q561.91876 81.572914 561.3719 82.08854Q560.825 82.604164 560.66876 83.635414L559.2625 83.385414Q559.52814 81.96354 560.4344 81.197914Q561.35626 80.416664 562.71564 80.416664Q563.65314 80.416664 564.4344 80.822914Q565.23126 81.21354 565.6375 81.916664Q566.0594 82.604164 566.0594 83.385414Q566.0594 84.135414 565.65314 84.74479Q565.2625 85.354164 564.48126 85.71354Q565.4969 85.947914 566.0594 86.68229Q566.6219 87.416664 566.6219 88.52604Q566.6219 90.02604 565.52814 91.072914Q564.4344 92.11979 562.7625 92.11979Q561.2625 92.11979 560.2625 91.229164Q559.2625 90.322914 559.1219 88.885414ZM568.3875 83.21354Q568.3875 81.979164 568.9969 81.11979Q569.6219 80.260414 570.79376 80.260414Q571.8719 80.260414 572.575 81.041664Q573.27814 81.80729 573.27814 83.291664Q573.27814 84.74479 572.5594 85.541664Q571.85626 86.322914 570.8094 86.322914Q569.7625 86.322914 569.075 85.55729Q568.3875 84.77604 568.3875 83.21354ZM570.825 81.229164Q570.3094 81.229164 569.95 81.68229Q569.60626 82.135414 569.60626 83.354164Q569.60626 84.447914 569.95 84.90104Q570.3094 85.354164 570.825 85.354164Q571.35626 85.354164 571.7 84.90104Q572.0594 84.447914 572.0594 83.24479Q572.0594 82.135414 571.7 81.68229Q571.35626 81.229164 570.825 81.229164ZM570.84064 92.33854L577.10626 80.260414L578.2469 80.260414L571.9969 92.33854L570.84064 92.33854ZM575.79376 89.229164Q575.79376 87.99479 576.40314 87.135414Q577.02814 86.27604 578.2 86.27604Q579.27814 86.27604 579.98126 87.05729Q580.7 87.822914 580.7 89.30729Q580.7 90.760414 579.98126 91.55729Q579.2625 92.33854 578.21564 92.33854Q577.16876 92.33854 576.48126 91.55729Q575.79376 90.77604 575.79376 89.229164ZM578.2469 87.24479Q577.71564 87.24479 577.35626 87.697914Q577.0125 88.15104 577.0125 89.36979Q577.0125 90.46354 577.35626 90.916664Q577.71564 91.36979 578.23126 91.36979Q578.77814 91.36979 579.1219 90.916664Q579.46564 90.46354 579.46564 89.260414Q579.46564 88.15104 579.10626 87.697914Q578.7625 87.24479 578.2469 87.24479Z" fill-rule="nonzero"/><path stroke="#757575" stroke-width="1.0" stroke-linecap="butt" d="M581.45 75.416664L454.76666 75.416664L323.26187 64.28253" fill-rule="nonzero"/><path fill="#9e9e9e" d="M325.26187 64.28253C325.26187 63.177963 324.36646 62.282536 323.26187 62.282536C322.15732 62.282536 321.26187 63.177963 321.26187 64.28253C321.26187 65.3871 322.15732 66.28253 323.26187 66.28253C324.36646 66.28253 325.26187 65.3871 325.26187 64.28253" fill-rule="nonzero"/><path fill="#efefef" d="M490.23126 135.83426Q490.23126 132.97488 491.7625 131.36551Q493.29376 129.75613 495.71564 129.75613Q497.29376 129.75613 498.5594 130.52176Q499.84064 131.27176 500.5125 132.63113Q501.1844 133.97488 501.1844 135.69363Q501.1844 137.44363 500.48126 138.81863Q499.77814 140.19363 498.48126 140.91238Q497.2 141.61551 495.7 141.61551Q494.09064 141.61551 492.8094 140.83426Q491.54376 140.03738 490.8875 138.69363Q490.23126 137.33426 490.23126 135.83426ZM491.79376 135.84988Q491.79376 137.92801 492.90314 139.11551Q494.0125 140.30301 495.7 140.30301Q497.40314 140.30301 498.5125 139.09988Q499.6219 137.89676 499.6219 135.69363Q499.6219 134.28738 499.1375 133.25613Q498.66876 132.20926 497.7625 131.63113Q496.85626 131.05301 495.71564 131.05301Q494.10626 131.05301 492.95 132.16238Q491.79376 133.27176 491.79376 135.84988ZM502.4969 141.41238L502.4969 133.11551L503.7625 133.11551L503.7625 134.36551Q504.2469 133.49051 504.65314 133.20926Q505.0594 132.92801 505.5594 132.92801Q506.2625 132.92801 506.9969 133.38113L506.5125 134.67801Q505.9969 134.38113 505.48126 134.38113Q505.02814 134.38113 504.65314 134.66238Q504.29376 134.92801 504.1375 135.42801Q503.90314 136.17801 503.90314 137.06863L503.90314 141.41238L502.4969 141.41238ZM510.575 140.14676L510.77814 141.39676Q510.1844 141.52176 509.71564 141.52176Q508.95 141.52176 508.52814 141.28738Q508.10626 141.03738 507.9344 140.64676Q507.7625 140.24051 507.7625 138.97488L507.7625 134.20926L506.73126 134.20926L506.73126 133.11551L507.7625 133.11551L507.7625 131.05301L509.16876 130.20926L509.16876 133.11551L510.575 133.11551L510.575 134.20926L509.16876 134.20926L509.16876 139.05301Q509.16876 139.66238 509.23126 139.83426Q509.3094 140.00613 509.48126 140.11551Q509.65314 140.20926 509.96564 140.20926Q510.2 140.20926 510.575 140.14676ZM511.5125 141.41238L511.5125 129.95926L512.91876 129.95926L512.91876 134.06863Q513.90314 132.92801 515.40314 132.92801Q516.325 132.92801 516.9969 133.28738Q517.6844 133.64676 517.96564 134.28738Q518.2625 134.92801 518.2625 136.14676L518.2625 141.41238L516.85626 141.41238L516.85626 136.14676Q516.85626 135.09988 516.40314 134.61551Q515.95 134.13113 515.10626 134.13113Q514.48126 134.13113 513.9344 134.45926Q513.3875 134.78738 513.15314 135.34988Q512.91876 135.89676 512.91876 136.86551L512.91876 141.41238L511.5125 141.41238ZM519.98126 137.25613Q519.98126 134.95926 521.2625 133.84988Q522.34064 132.92801 523.8719 132.92801Q525.59064 132.92801 526.66876 134.05301Q527.7625 135.16238 527.7625 137.14676Q527.7625 138.74051 527.27814 139.66238Q526.79376 140.58426 525.8719 141.09988Q524.96564 141.59988 523.8719 141.59988Q522.1375 141.59988 521.0594 140.49051Q519.98126 139.36551 519.98126 137.25613ZM521.4344 137.25613Q521.4344 138.84988 522.1219 139.64676Q522.825 140.44363 523.8719 140.44363Q524.91876 140.44363 525.60626 139.64676Q526.3094 138.84988 526.3094 137.20926Q526.3094 135.67801 525.60626 134.88113Q524.91876 134.08426 523.8719 134.08426Q522.825 134.08426 522.1219 134.88113Q521.4344 135.66238 521.4344 137.25613ZM529.2469 142.09988L530.6219 142.30301Q530.7 142.94363 531.09064 143.22488Q531.6219 143.61551 532.52814 143.61551Q533.4969 143.61551 534.02814 143.22488Q534.5594 142.83426 534.7469 142.13113Q534.85626 141.70926 534.85626 140.31863Q533.9344 141.41238 532.5594 141.41238Q530.84064 141.41238 529.90314 140.17801Q528.96564 138.94363 528.96564 137.20926Q528.96564 136.02176 529.3875 135.02176Q529.825 134.02176 530.6375 133.47488Q531.46564 132.92801 532.5594 132.92801Q534.02814 132.92801 534.98126 134.11551L534.98126 133.11551L536.27814 133.11551L536.27814 140.28738Q536.27814 142.22488 535.8875 143.03738Q535.4969 143.84988 534.6375 144.31863Q533.77814 144.78738 532.52814 144.78738Q531.04376 144.78738 530.1219 144.11551Q529.21564 143.44363 529.2469 142.09988ZM530.41876 137.11551Q530.41876 138.74051 531.0594 139.49051Q531.71564 140.24051 532.6844 140.24051Q533.65314 140.24051 534.3094 139.50613Q534.96564 138.75613 534.96564 137.16238Q534.96564 135.63113 534.29376 134.86551Q533.6219 134.08426 532.66876 134.08426Q531.73126 134.08426 531.075 134.84988Q530.41876 135.61551 530.41876 137.11551ZM538.4969 141.41238L538.4969 133.11551L539.7625 133.11551L539.7625 134.36551Q540.2469 133.49051 540.65314 133.20926Q541.0594 132.92801 541.5594 132.92801Q542.2625 132.92801 542.9969 133.38113L542.5125 134.67801Q541.9969 134.38113 541.48126 134.38113Q541.02814 134.38113 540.65314 134.66238Q540.29376 134.92801 540.1375 135.42801Q539.90314 136.17801 539.90314 137.06863L539.90314 141.41238L538.4969 141.41238ZM548.91876 140.38113Q548.1375 141.05301 547.41876 141.33426Q546.7 141.59988 545.8719 141.59988Q544.4969 141.59988 543.7625 140.92801Q543.02814 140.25613 543.02814 139.22488Q543.02814 138.61551 543.3094 138.11551Q543.59064 137.59988 544.02814 137.30301Q544.48126 136.99051 545.04376 136.83426Q545.46564 136.72488 546.29376 136.63113Q547.9969 136.42801 548.8094 136.14676Q548.8094 135.84988 548.8094 135.77176Q548.8094 134.91238 548.41876 134.56863Q547.8719 134.08426 546.8094 134.08426Q545.825 134.08426 545.34064 134.44363Q544.8719 134.78738 544.65314 135.66238L543.27814 135.47488Q543.46564 134.59988 543.8875 134.05301Q544.325 133.50613 545.1375 133.22488Q545.95 132.92801 547.0125 132.92801Q548.075 132.92801 548.73126 133.17801Q549.40314 133.42801 549.71564 133.80301Q550.02814 134.17801 550.15314 134.75613Q550.23126 135.11551 550.23126 136.05301L550.23126 137.92801Q550.23126 139.89676 550.3094 140.41238Q550.40314 140.92801 550.66876 141.41238L549.2 141.41238Q548.98126 140.97488 548.91876 140.38113ZM548.8094 137.24051Q548.04376 137.55301 546.5125 137.77176Q545.6375 137.89676 545.27814 138.05301Q544.91876 138.20926 544.71564 138.52176Q544.52814 138.81863 544.52814 139.17801Q544.52814 139.74051 544.95 140.11551Q545.3875 140.49051 546.2 140.49051Q547.0125 140.49051 547.6375 140.14676Q548.27814 139.78738 548.575 139.16238Q548.8094 138.69363 548.8094 137.75613L548.8094 137.24051ZM552.5125 144.59988L552.5125 133.11551L553.79376 133.11551L553.79376 134.19363Q554.2469 133.55301 554.8094 133.24051Q555.3875 132.92801 556.2 132.92801Q557.2625 132.92801 558.075 133.47488Q558.8875 134.02176 559.29376 135.02176Q559.71564 136.00613 559.71564 137.19363Q559.71564 138.47488 559.2469 139.49051Q558.79376 140.50613 557.91876 141.05301Q557.0594 141.59988 556.09064 141.59988Q555.3875 141.59988 554.825 141.30301Q554.27814 141.00613 553.91876 140.55301L553.91876 144.59988L552.5125 144.59988ZM553.77814 137.30301Q553.77814 138.91238 554.41876 139.67801Q555.075 140.44363 555.9969 140.44363Q556.9344 140.44363 557.60626 139.64676Q558.27814 138.84988 558.27814 137.19363Q558.27814 135.59988 557.6219 134.81863Q556.96564 134.02176 556.0594 134.02176Q555.16876 134.02176 554.46564 134.86551Q553.77814 135.70926 553.77814 137.30301ZM561.5125 141.41238L561.5125 129.95926L562.91876 129.95926L562.91876 134.06863Q563.90314 132.92801 565.40314 132.92801Q566.325 132.92801 566.9969 133.28738Q567.6844 133.64676 567.96564 134.28738Q568.2625 134.92801 568.2625 136.14676L568.2625 141.41238L566.85626 141.41238L566.85626 136.14676Q566.85626 135.09988 566.40314 134.61551Q565.95 134.13113 565.10626 134.13113Q564.48126 134.13113 563.9344 134.45926Q563.3875 134.78738 563.15314 135.34988Q562.91876 135.89676 562.91876 136.86551L562.91876 141.41238L561.5125 141.41238ZM570.5125 131.56863L570.5125 129.95926L571.91876 129.95926L571.91876 131.56863L570.5125 131.56863ZM570.5125 141.41238L570.5125 133.11551L571.91876 133.11551L571.91876 141.41238L570.5125 141.41238ZM579.91876 138.36551L581.3094 138.55301Q581.075 139.97488 580.1375 140.78738Q579.21564 141.59988 577.85626 141.59988Q576.15314 141.59988 575.10626 140.49051Q574.075 139.36551 574.075 137.28738Q574.075 135.94363 574.5125 134.94363Q574.96564 133.92801 575.8719 133.42801Q576.79376 132.92801 577.85626 132.92801Q579.21564 132.92801 580.075 133.61551Q580.9344 134.28738 581.16876 135.55301L579.8094 135.75613Q579.60626 134.92801 579.10626 134.50613Q578.6219 134.08426 577.91876 134.08426Q576.85626 134.08426 576.1844 134.84988Q575.52814 135.59988 575.52814 137.25613Q575.52814 138.92801 576.16876 139.69363Q576.8094 140.44363 577.84064 140.44363Q578.66876 140.44363 579.21564 139.94363Q579.77814 139.42801 579.91876 138.36551Z" fill-rule="nonzero"/><path fill="#9e9e9e" d="M544.5125 162.05301L544.5125 163.41238L536.9344 163.41238Q536.91876 162.89676 537.10626 162.42801Q537.3875 161.66238 538.02814 160.91238Q538.66876 160.16238 539.8719 159.17801Q541.73126 157.64676 542.3875 156.75613Q543.04376 155.84988 543.04376 155.05301Q543.04376 154.22488 542.45 153.64676Q541.85626 153.06863 540.8875 153.06863Q539.8719 153.06863 539.2625 153.67801Q538.65314 154.28738 538.65314 155.36551L537.2 155.22488Q537.35626 153.59988 538.325 152.75613Q539.29376 151.91238 540.91876 151.91238Q542.575 151.91238 543.52814 152.83426Q544.4969 153.74051 544.4969 155.08426Q544.4969 155.77176 544.21564 156.44363Q543.9344 157.09988 543.27814 157.83426Q542.6219 158.56863 541.10626 159.84988Q539.84064 160.91238 539.48126 161.30301Q539.1219 161.67801 538.8875 162.05301L544.5125 162.05301ZM553.41876 154.75613L552.0125 154.86551Q551.825 154.03738 551.48126 153.66238Q550.91876 153.06863 550.075 153.06863Q549.40314 153.06863 548.90314 153.44363Q548.23126 153.92801 547.84064 154.86551Q547.46564 155.78738 547.45 157.50613Q547.96564 156.72488 548.7 156.34988Q549.4344 155.97488 550.23126 155.97488Q551.6375 155.97488 552.6219 157.02176Q553.6219 158.05301 553.6219 159.69363Q553.6219 160.77176 553.15314 161.69363Q552.6844 162.61551 551.8719 163.11551Q551.0594 163.61551 550.02814 163.61551Q548.27814 163.61551 547.16876 162.31863Q546.0594 161.02176 546.0594 158.05301Q546.0594 154.72488 547.27814 153.22488Q548.35626 151.91238 550.16876 151.91238Q551.5125 151.91238 552.3719 152.67801Q553.2469 153.42801 553.41876 154.75613ZM547.66876 159.69363Q547.66876 160.42801 547.98126 161.09988Q548.29376 161.75613 548.84064 162.09988Q549.40314 162.44363 550.0125 162.44363Q550.90314 162.44363 551.54376 161.72488Q552.1844 161.00613 552.1844 159.77176Q552.1844 158.58426 551.54376 157.91238Q550.91876 157.22488 549.95 157.22488Q548.9969 157.22488 548.325 157.91238Q547.66876 158.58426 547.66876 159.69363ZM555.90314 163.41238L555.90314 161.80301L557.5125 161.80301L557.5125 163.41238L555.90314 163.41238ZM559.1219 160.38113L560.52814 160.19363Q560.77814 161.39676 561.35626 161.92801Q561.9344 162.44363 562.77814 162.44363Q563.7625 162.44363 564.45 161.75613Q565.1375 161.06863 565.1375 160.05301Q565.1375 159.08426 564.4969 158.45926Q563.8719 157.83426 562.8875 157.83426Q562.4969 157.83426 561.90314 157.99051L562.0594 156.75613Q562.2 156.77176 562.27814 156.77176Q563.1844 156.77176 563.90314 156.30301Q564.6219 155.83426 564.6219 154.84988Q564.6219 154.08426 564.09064 153.58426Q563.575 153.06863 562.7469 153.06863Q561.91876 153.06863 561.3719 153.58426Q560.825 154.09988 560.66876 155.13113L559.2625 154.88113Q559.52814 153.45926 560.4344 152.69363Q561.35626 151.91238 562.71564 151.91238Q563.65314 151.91238 564.4344 152.31863Q565.23126 152.70926 565.6375 153.41238Q566.0594 154.09988 566.0594 154.88113Q566.0594 155.63113 565.65314 156.24051Q565.2625 156.84988 564.48126 157.20926Q565.4969 157.44363 566.0594 158.17801Q566.6219 158.91238 566.6219 160.02176Q566.6219 161.52176 565.52814 162.56863Q564.4344 163.61551 562.7625 163.61551Q561.2625 163.61551 560.2625 162.72488Q559.2625 161.81863 559.1219 160.38113ZM568.3875 154.70926Q568.3875 153.47488 568.9969 152.61551Q569.6219 151.75613 570.79376 151.75613Q571.8719 151.75613 572.575 152.53738Q573.27814 153.30301 573.27814 154.78738Q573.27814 156.24051 572.5594 157.03738Q571.85626 157.81863 570.8094 157.81863Q569.7625 157.81863 569.075 157.05301Q568.3875 156.27176 568.3875 154.70926ZM570.825 152.72488Q570.3094 152.72488 569.95 153.17801Q569.60626 153.63113 569.60626 154.84988Q569.60626 155.94363 569.95 156.39676Q570.3094 156.84988 570.825 156.84988Q571.35626 156.84988 571.7 156.39676Q572.0594 155.94363 572.0594 154.74051Q572.0594 153.63113 571.7 153.17801Q571.35626 152.72488 570.825 152.72488ZM570.84064 163.83426L577.10626 151.75613L578.2469 151.75613L571.9969 163.83426L570.84064 163.83426ZM575.79376 160.72488Q575.79376 159.49051 576.40314 158.63113Q577.02814 157.77176 578.2 157.77176Q579.27814 157.77176 579.98126 158.55301Q580.7 159.31863 580.7 160.80301Q580.7 162.25613 579.98126 163.05301Q579.2625 163.83426 578.21564 163.83426Q577.16876 163.83426 576.48126 163.05301Q575.79376 162.27176 575.79376 160.72488ZM578.2469 158.74051Q577.71564 158.74051 577.35626 159.19363Q577.0125 159.64676 577.0125 160.86551Q577.0125 161.95926 577.35626 162.41238Q577.71564 162.86551 578.23126 162.86551Q578.77814 162.86551 579.1219 162.41238Q579.46564 161.95926 579.46564 160.75613Q579.46564 159.64676 579.10626 159.19363Q578.7625 158.74051 578.2469 158.74051Z" fill-rule="nonzero"/><path stroke="#757575" stroke-width="1.0" stroke-linecap="butt" d="M581.45 146.91238L454.76666 146.91238L429.4247 146.91238" fill-rule="nonzero"/><path fill="#9e9e9e" d="M431.4247 146.91238C431.4247 145.80782 430.5293 144.91238 429.4247 144.91238C428.32016 144.91238 427.4247 145.80782 427.4247 146.91238C427.4247 148.01695 428.32016 148.91238 429.4247 148.91238C430.5293 148.91238 431.4247 148.01695 431.4247 146.91238" fill-rule="nonzero"/><path fill="#efefef" d="M532.6844 326.45L532.6844 314.9969L536.6375 314.9969Q537.96564 314.9969 538.66876 315.15314Q539.65314 315.3875 540.35626 315.98126Q541.2625 316.7469 541.7 317.9344Q542.15314 319.1219 542.15314 320.65314Q542.15314 321.96564 541.84064 322.98126Q541.54376 323.98126 541.0594 324.6375Q540.59064 325.29376 540.02814 325.6844Q539.46564 326.0594 538.65314 326.2625Q537.85626 326.45 536.825 326.45L532.6844 326.45ZM534.2 325.09064L536.65314 325.09064Q537.77814 325.09064 538.41876 324.8875Q539.075 324.66876 539.45 324.29376Q539.9969 323.7469 540.29376 322.84064Q540.59064 321.9344 540.59064 320.6375Q540.59064 318.84064 539.9969 317.8719Q539.41876 316.90314 538.575 316.575Q537.96564 316.34064 536.60626 316.34064L534.2 316.34064L534.2 325.09064ZM550.1844 323.77814L551.6375 323.95Q551.29376 325.23126 550.35626 325.9344Q549.4344 326.6375 547.9969 326.6375Q546.16876 326.6375 545.10626 325.5125Q544.04376 324.3875 544.04376 322.3719Q544.04376 320.27814 545.1219 319.1219Q546.2 317.96564 547.91876 317.96564Q549.575 317.96564 550.6219 319.10626Q551.6844 320.23126 551.6844 322.27814Q551.6844 322.40314 551.6844 322.65314L545.4969 322.65314Q545.575 324.02814 546.2625 324.7625Q546.96564 325.48126 547.9969 325.48126Q548.77814 325.48126 549.325 325.075Q549.8719 324.66876 550.1844 323.77814ZM545.575 321.4969L550.2 321.4969Q550.10626 320.45 549.66876 319.9344Q548.9969 319.1219 547.9344 319.1219Q546.96564 319.1219 546.29376 319.77814Q545.6375 320.41876 545.575 321.4969ZM556.575 325.1844L556.77814 326.4344Q556.1844 326.5594 555.71564 326.5594Q554.95 326.5594 554.52814 326.325Q554.10626 326.075 553.9344 325.6844Q553.7625 325.27814 553.7625 324.0125L553.7625 319.2469L552.73126 319.2469L552.73126 318.15314L553.7625 318.15314L553.7625 316.09064L555.16876 315.2469L555.16876 318.15314L556.575 318.15314L556.575 319.2469L555.16876 319.2469L555.16876 324.09064Q555.16876 324.7 555.23126 324.8719Q555.3094 325.04376 555.48126 325.15314Q555.65314 325.2469 555.96564 325.2469Q556.2 325.2469 556.575 325.1844ZM562.91876 325.41876Q562.1375 326.09064 561.41876 326.3719Q560.7 326.6375 559.8719 326.6375Q558.4969 326.6375 557.7625 325.96564Q557.02814 325.29376 557.02814 324.2625Q557.02814 323.65314 557.3094 323.15314Q557.59064 322.6375 558.02814 322.34064Q558.48126 322.02814 559.04376 321.8719Q559.46564 321.7625 560.29376 321.66876Q561.9969 321.46564 562.8094 321.1844Q562.8094 320.8875 562.8094 320.8094Q562.8094 319.95 562.41876 319.60626Q561.8719 319.1219 560.8094 319.1219Q559.825 319.1219 559.34064 319.48126Q558.8719 319.825 558.65314 320.7L557.27814 320.5125Q557.46564 319.6375 557.8875 319.09064Q558.325 318.54376 559.1375 318.2625Q559.95 317.96564 561.0125 317.96564Q562.075 317.96564 562.73126 318.21564Q563.40314 318.46564 563.71564 318.84064Q564.02814 319.21564 564.15314 319.79376Q564.23126 320.15314 564.23126 321.09064L564.23126 322.96564Q564.23126 324.9344 564.3094 325.45Q564.40314 325.96564 564.66876 326.45L563.2 326.45Q562.98126 326.0125 562.91876 325.41876ZM562.8094 322.27814Q562.04376 322.59064 560.5125 322.8094Q559.6375 322.9344 559.27814 323.09064Q558.91876 323.2469 558.71564 323.5594Q558.52814 323.85626 558.52814 324.21564Q558.52814 324.77814 558.95 325.15314Q559.3875 325.52814 560.2 325.52814Q561.0125 325.52814 561.6375 325.1844Q562.27814 324.825 562.575 324.2Q562.8094 323.73126 562.8094 322.79376L562.8094 322.27814ZM566.5125 316.60626L566.5125 314.9969L567.91876 314.9969L567.91876 316.60626L566.5125 316.60626ZM566.5125 326.45L566.5125 318.15314L567.91876 318.15314L567.91876 326.45L566.5125 326.45ZM570.48126 326.45L570.48126 314.9969L571.8875 314.9969L571.8875 326.45L570.48126 326.45ZM573.95 323.96564L575.34064 323.7469Q575.45 324.59064 575.98126 325.04376Q576.52814 325.48126 577.48126 325.48126Q578.45 325.48126 578.91876 325.09064Q579.3875 324.6844 579.3875 324.15314Q579.3875 323.6844 578.98126 323.40314Q578.6844 323.21564 577.54376 322.9344Q575.9969 322.54376 575.3875 322.2625Q574.79376 321.96564 574.48126 321.46564Q574.1844 320.96564 574.1844 320.35626Q574.1844 319.79376 574.4344 319.325Q574.6844 318.85626 575.1219 318.54376Q575.45 318.29376 576.0125 318.1375Q576.59064 317.96564 577.23126 317.96564Q578.21564 317.96564 578.95 318.2469Q579.6844 318.52814 580.02814 319.0125Q580.3875 319.48126 580.52814 320.29376L579.15314 320.48126Q579.0594 319.84064 578.60626 319.48126Q578.15314 319.1219 577.34064 319.1219Q576.3719 319.1219 575.95 319.45Q575.54376 319.7625 575.54376 320.1844Q575.54376 320.46564 575.71564 320.6844Q575.8875 320.90314 576.2469 321.0594Q576.46564 321.1375 577.4969 321.41876Q578.98126 321.8094 579.575 322.075Q580.16876 322.325 580.4969 322.8094Q580.84064 323.29376 580.84064 324.0125Q580.84064 324.71564 580.41876 325.34064Q580.0125 325.95 579.23126 326.29376Q578.46564 326.6375 577.4969 326.6375Q575.8719 326.6375 575.02814 325.96564Q574.1844 325.29376 573.95 323.96564Z" fill-rule="nonzero"/><path fill="#9e9e9e" d="M544.5125 347.09064L544.5125 348.45L536.9344 348.45Q536.91876 347.9344 537.10626 347.46564Q537.3875 346.7 538.02814 345.95Q538.66876 345.2 539.8719 344.21564Q541.73126 342.6844 542.3875 341.79376Q543.04376 340.8875 543.04376 340.09064Q543.04376 339.2625 542.45 338.6844Q541.85626 338.10626 540.8875 338.10626Q539.8719 338.10626 539.2625 338.71564Q538.65314 339.325 538.65314 340.40314L537.2 340.2625Q537.35626 338.6375 538.325 337.79376Q539.29376 336.95 540.91876 336.95Q542.575 336.95 543.52814 337.8719Q544.4969 338.77814 544.4969 340.1219Q544.4969 340.8094 544.21564 341.48126Q543.9344 342.1375 543.27814 342.8719Q542.6219 343.60626 541.10626 344.8875Q539.84064 345.95 539.48126 346.34064Q539.1219 346.71564 538.8875 347.09064L544.5125 347.09064ZM553.41876 339.79376L552.0125 339.90314Q551.825 339.075 551.48126 338.7Q550.91876 338.10626 550.075 338.10626Q549.40314 338.10626 548.90314 338.48126Q548.23126 338.96564 547.84064 339.90314Q547.46564 340.825 547.45 342.54376Q547.96564 341.7625 548.7 341.3875Q549.4344 341.0125 550.23126 341.0125Q551.6375 341.0125 552.6219 342.0594Q553.6219 343.09064 553.6219 344.73126Q553.6219 345.8094 553.15314 346.73126Q552.6844 347.65314 551.8719 348.15314Q551.0594 348.65314 550.02814 348.65314Q548.27814 348.65314 547.16876 347.35626Q546.0594 346.0594 546.0594 343.09064Q546.0594 339.7625 547.27814 338.2625Q548.35626 336.95 550.16876 336.95Q551.5125 336.95 552.3719 337.71564Q553.2469 338.46564 553.41876 339.79376ZM547.66876 344.73126Q547.66876 345.46564 547.98126 346.1375Q548.29376 346.79376 548.84064 347.1375Q549.40314 347.48126 550.0125 347.48126Q550.90314 347.48126 551.54376 346.7625Q552.1844 346.04376 552.1844 344.8094Q552.1844 343.6219 551.54376 342.95Q550.91876 342.2625 549.95 342.2625Q548.9969 342.2625 548.325 342.95Q547.66876 343.6219 547.66876 344.73126ZM555.90314 348.45L555.90314 346.84064L557.5125 346.84064L557.5125 348.45L555.90314 348.45ZM559.1219 345.41876L560.52814 345.23126Q560.77814 346.4344 561.35626 346.96564Q561.9344 347.48126 562.77814 347.48126Q563.7625 347.48126 564.45 346.79376Q565.1375 346.10626 565.1375 345.09064Q565.1375 344.1219 564.4969 343.4969Q563.8719 342.8719 562.8875 342.8719Q562.4969 342.8719 561.90314 343.02814L562.0594 341.79376Q562.2 341.8094 562.27814 341.8094Q563.1844 341.8094 563.90314 341.34064Q564.6219 340.8719 564.6219 339.8875Q564.6219 339.1219 564.09064 338.6219Q563.575 338.10626 562.7469 338.10626Q561.91876 338.10626 561.3719 338.6219Q560.825 339.1375 560.66876 340.16876L559.2625 339.91876Q559.52814 338.4969 560.4344 337.73126Q561.35626 336.95 562.71564 336.95Q563.65314 336.95 564.4344 337.35626Q565.23126 337.7469 565.6375 338.45Q566.0594 339.1375 566.0594 339.91876Q566.0594 340.66876 565.65314 341.27814Q565.2625 341.8875 564.48126 342.2469Q565.4969 342.48126 566.0594 343.21564Q566.6219 343.95 566.6219 345.0594Q566.6219 346.5594 565.52814 347.60626Q564.4344 348.65314 562.7625 348.65314Q561.2625 348.65314 560.2625 347.7625Q559.2625 346.85626 559.1219 345.41876ZM568.3875 339.7469Q568.3875 338.5125 568.9969 337.65314Q569.6219 336.79376 570.79376 336.79376Q571.8719 336.79376 572.575 337.575Q573.27814 338.34064 573.27814 339.825Q573.27814 341.27814 572.5594 342.075Q571.85626 342.85626 570.8094 342.85626Q569.7625 342.85626 569.075 342.09064Q568.3875 341.3094 568.3875 339.7469ZM570.825 337.7625Q570.3094 337.7625 569.95 338.21564Q569.60626 338.66876 569.60626 339.8875Q569.60626 340.98126 569.95 341.4344Q570.3094 341.8875 570.825 341.8875Q571.35626 341.8875 571.7 341.4344Q572.0594 340.98126 572.0594 339.77814Q572.0594 338.66876 571.7 338.21564Q571.35626 337.7625 570.825 337.7625ZM570.84064 348.8719L577.10626 336.79376L578.2469 336.79376L571.9969 348.8719L570.84064 348.8719ZM575.79376 345.7625Q575.79376 344.52814 576.40314 343.66876Q577.02814 342.8094 578.2 342.8094Q579.27814 342.8094 579.98126 343.59064Q580.7 344.35626 580.7 345.84064Q580.7 347.29376 579.98126 348.09064Q579.2625 348.8719 578.21564 348.8719Q577.16876 348.8719 576.48126 348.09064Q575.79376 347.3094 575.79376 345.7625ZM578.2469 343.77814Q577.71564 343.77814 577.35626 344.23126Q577.0125 344.6844 577.0125 345.90314Q577.0125 346.9969 577.35626 347.45Q577.71564 347.90314 578.23126 347.90314Q578.77814 347.90314 579.1219 347.45Q579.46564 346.9969 579.46564 345.79376Q579.46564 344.6844 579.10626 344.23126Q578.7625 343.77814 578.2469 343.77814Z" fill-rule="nonzero"/><path stroke="#757575" stroke-width="1.0" stroke-linecap="butt" d="M581.45 331.95L454.76666 331.95L345.88922 337.3541" fill-rule="nonzero"/><path fill="#9e9e9e" d="M347.88922 337.3541C347.88922 336.24954 346.9938 335.3541 345.88922 335.3541C344.78467 335.3541 343.88922 336.24954 343.88922 337.3541C343.88922 338.45868 344.78467 339.3541 345.88922 339.3541C346.9938 339.3541 347.88922 338.45868 347.88922 337.3541" fill-rule="nonzero"/><path fill="#f3f3f3" d="M265.98438 37.55L265.98438 23.2375L268.84375 23.2375L272.21875 33.3625Q272.6875 34.784374 272.90625 35.4875Q273.15625 34.70625 273.67188 33.190624L277.09375 23.2375L279.64062 23.2375L279.64062 37.55L277.82812 37.55L277.82812 25.565624L273.65625 37.55L271.95312 37.55L267.8125 25.3625L267.8125 37.55L265.98438 37.55ZM289.92188 34.20625L291.73438 34.440624Q291.3125 36.01875 290.14062 36.909374Q288.98438 37.784374 287.17188 37.784374Q284.90625 37.784374 283.5625 36.39375Q282.23438 34.9875 282.23438 32.45625Q282.23438 29.83125 283.57812 28.39375Q284.92188 26.940624 287.07812 26.940624Q289.15625 26.940624 290.46875 28.3625Q291.79688 29.76875 291.79688 32.346874Q291.79688 32.503124 291.78125 32.815624L284.04688 32.815624Q284.14062 34.51875 285.01562 35.425Q285.89062 36.33125 287.1875 36.33125Q288.15625 36.33125 288.82812 35.83125Q289.51562 35.315624 289.92188 34.20625ZM284.14062 31.3625L289.9375 31.3625Q289.82812 30.065624 289.28125 29.409374Q288.4375 28.39375 287.09375 28.39375Q285.89062 28.39375 285.0625 29.20625Q284.23438 30.003124 284.14062 31.3625ZM300.54688 37.55L300.54688 36.2375Q299.5625 37.784374 297.64062 37.784374Q296.40625 37.784374 295.35938 37.096874Q294.32812 36.409374 293.75 35.190624Q293.1875 33.971874 293.1875 32.378124Q293.1875 30.815624 293.70312 29.55Q294.21875 28.284374 295.25 27.6125Q296.29688 26.940624 297.5625 26.940624Q298.5 26.940624 299.23438 27.346874Q299.96875 27.7375 300.4375 28.3625L300.4375 23.2375L302.17188 23.2375L302.17188 37.55L300.54688 37.55ZM294.98438 32.378124Q294.98438 34.3625 295.82812 35.346874Q296.67188 36.33125 297.8125 36.33125Q298.96875 36.33125 299.76562 35.39375Q300.57812 34.45625 300.57812 32.51875Q300.57812 30.39375 299.75 29.39375Q298.9375 28.39375 297.73438 28.39375Q296.5625 28.39375 295.76562 29.3625Q294.98438 30.315624 294.98438 32.378124ZM304.82812 25.253124L304.82812 23.2375L306.59375 23.2375L306.59375 25.253124L304.82812 25.253124ZM304.82812 37.55L304.82812 27.175L306.59375 27.175L306.59375 37.55L304.82812 37.55ZM315.60938 37.55L315.60938 36.01875Q314.40625 37.784374 312.32812 37.784374Q311.40625 37.784374 310.60938 37.440624Q309.8125 37.08125 309.42188 36.55Q309.04688 36.01875 308.89062 35.2375Q308.78125 34.721874 308.78125 33.596874L308.78125 27.175L310.53125 27.175L310.53125 32.925Q310.53125 34.3 310.64062 34.784374Q310.8125 35.471874 311.34375 35.878124Q311.89062 36.26875 312.67188 36.26875Q313.46875 36.26875 314.15625 35.8625Q314.85938 35.45625 315.14062 34.76875Q315.4375 34.065624 315.4375 32.7375L315.4375 27.175L317.1875 27.175L317.1875 37.55L315.60938 37.55ZM319.8125 37.55L319.8125 27.175L321.39062 27.175L321.39062 28.628124Q321.875 27.878124 322.6875 27.409374Q323.5 26.940624 324.53125 26.940624Q325.6875 26.940624 326.42188 27.425Q327.15625 27.89375 327.46875 28.753124Q328.70312 26.940624 330.67188 26.940624Q332.21875 26.940624 333.04688 27.8Q333.875 28.659374 333.875 30.425L333.875 37.55L332.125 37.55L332.125 31.01875Q332.125 29.95625 331.95312 29.503124Q331.78125 29.034374 331.32812 28.753124Q330.89062 28.471874 330.28125 28.471874Q329.1875 28.471874 328.45312 29.20625Q327.73438 29.925 327.73438 31.51875L327.73438 37.55L325.98438 37.55L325.98438 30.815624Q325.98438 29.64375 325.54688 29.065624Q325.125 28.471874 324.14062 28.471874Q323.40625 28.471874 322.76562 28.8625Q322.14062 29.253124 321.85938 30.003124Q321.57812 30.753124 321.57812 32.175L321.57812 37.55L319.8125 37.55Z" fill-rule="nonzero"/></svg>