<svg version="1.1" viewBox="0.0 0.0 600.0 371.0" fill="none" stroke="none" stroke-linecap="square" stroke-miterlimit="10" width="600" height="371" xmlns:xlink="http://www.w3.org/1999/xlink" xmlns="http://www.w3.org/2000/svg"><path fill="#ffffff" fill-opacity="0.0" d="M0 0L600.0 0L600.0 371.0L0 371.0L0 0Z" fill-rule="nonzero"/><path fill="#f5ee58" d="M300.0 54.916668C341.21875 54.916668 380.59003 72.01803 408.72403 102.14217L354.36203 152.91275C340.295 137.85068 320.60938 129.3 300.0 129.3Z" fill-rule="nonzero"/><path fill="#b3ca48" d="M408.72403 102.14217C417.98483 112.05808 425.8456 123.19426 432.08774 135.241L366.04385 169.46216C362.92282 163.4388 358.99243 157.87071 354.36203 152.91275Z" fill-rule="nonzero"/><path fill="#313d89" d="M432.08774 135.241C438.32983 147.28772 442.8946 160.13176 445.6551 173.41586L372.82755 188.54959C371.4473 181.90755 369.16492 175.48553 366.04385 169.46216Z" fill-rule="nonzero"/><path fill="#e5a345" d="M259.86322 60.43334C272.92798 56.772766 286.4321 54.916668 300.0 54.916668L300.0 129.3C293.21606 129.3 286.464 130.22804 279.9316 132.05833Z" fill-rule="nonzero"/><path fill="#d0473d" d="M222.70323 76.5742C234.2959 69.52455 246.79848 64.09391 259.86322 60.43334L279.9316 132.05833C273.39923 133.88863 267.14795 136.60394 261.35162 140.12877Z" fill-rule="nonzero"/><path fill="#8c4595" d="M240.7312 340.1338C189.75569 317.992 155.37282 269.2826 151.58014 213.83553C147.78746 158.38847 175.21748 105.45093 222.70323 76.5742L261.35162 140.12877C237.60875 154.56712 223.89372 181.0359 225.79007 208.75943C227.68642 236.48296 244.87785 260.83768 270.3656 271.90857Z" fill-rule="nonzero"/><path fill="#78a94e" d="M445.6551 173.41586C456.96246 227.83005 436.99628 284.00958 393.88486 319.0833C350.77344 354.15704 291.7067 362.27557 240.7312 340.1338L270.3656 271.90857C295.85336 282.97946 325.38672 278.9202 346.9424 261.38333C368.49814 243.84645 378.48123 215.75668 372.82755 188.54959Z" fill-rule="nonzero"/><path fill="#ffffff" d="M325.65472 107.84548L324.0766 107.84548L324.0766 97.76736Q323.49847 98.31423 322.5766 98.86111Q321.65472 99.39236 320.90472 99.67361L320.90472 98.14236Q322.23285 97.51736 323.23285 96.62673Q324.23285 95.73611 324.6391 94.90798L325.65472 94.90798L325.65472 107.84548ZM329.7016 104.43923L331.29535 104.23611Q331.56097 105.57986 332.21722 106.17361Q332.87347 106.76736 333.81097 106.76736Q334.93597 106.76736 335.7016 106.00173Q336.46722 105.22048 336.46722 104.07986Q336.46722 102.98611 335.74847 102.28298Q335.04535 101.56423 333.9516 101.56423Q333.49847 101.56423 332.8266 101.75173L332.99847 100.36111Q333.15472 100.37673 333.2641 100.37673Q334.2641 100.37673 335.0766 99.84548Q335.8891 99.31423 335.8891 98.22048Q335.8891 97.34548 335.29535 96.78298Q334.7016 96.20486 333.77972 96.20486Q332.85785 96.20486 332.23285 96.78298Q331.62347 97.36111 331.4516 98.53298L329.87347 98.25173Q330.15472 96.65798 331.18597 95.78298Q332.21722 94.90798 333.74847 94.90798Q334.79535 94.90798 335.68597 95.36111Q336.5766 95.81423 337.04535 96.59548Q337.5141 97.37673 337.5141 98.25173Q337.5141 99.09548 337.06097 99.78298Q336.62347 100.45486 335.73285 100.86111Q336.87347 101.12673 337.49847 101.97048Q338.1391 102.79861 338.1391 104.03298Q338.1391 105.72048 336.90472 106.90798Q335.68597 108.07986 333.81097 108.07986Q332.10785 108.07986 330.98285 107.06423Q329.87347 106.04861 329.7016 104.43923ZM340.59222 107.84548L340.59222 106.04861L342.3891 106.04861L342.3891 107.84548L340.59222 107.84548ZM344.7016 101.48611Q344.7016 99.20486 345.17035 97.81423Q345.6391 96.42361 346.56097 95.67361Q347.49847 94.90798 348.90472 94.90798Q349.93597 94.90798 350.71722 95.32986Q351.49847 95.73611 351.99847 96.53298Q352.5141 97.31423 352.81097 98.45486Q353.10785 99.57986 353.10785 101.48611Q353.10785 103.75173 352.6391 105.15798Q352.17035 106.54861 351.23285 107.31423Q350.31097 108.06423 348.90472 108.06423Q347.02972 108.06423 345.96722 106.73611Q344.7016 105.12673 344.7016 101.48611ZM346.3266 101.48611Q346.3266 104.65798 347.06097 105.72048Q347.81097 106.76736 348.90472 106.76736Q349.98285 106.76736 350.73285 105.72048Q351.48285 104.65798 351.48285 101.48611Q351.48285 98.31423 350.73285 97.26736Q349.98285 96.22048 348.8891 96.22048Q347.79535 96.22048 347.1391 97.14236Q346.3266 98.31423 346.3266 101.48611ZM354.99847 98.04861Q354.99847 96.67361 355.68597 95.70486Q356.3891 94.73611 357.7016 94.73611Q358.92035 94.73611 359.71722 95.61111Q360.5141 96.47048 360.5141 98.15798Q360.5141 99.78298 359.7016 100.67361Q358.90472 101.54861 357.71722 101.54861Q356.56097 101.54861 355.77972 100.68923Q354.99847 99.81423 354.99847 98.04861ZM357.74847 95.82986Q357.15472 95.82986 356.7641 96.34548Q356.37347 96.84548 356.37347 98.20486Q356.37347 99.45486 356.7641 99.95486Q357.17035 100.45486 357.74847 100.45486Q358.34222 100.45486 358.73285 99.95486Q359.12347 99.43923 359.12347 98.09548Q359.12347 96.84548 358.73285 96.34548Q358.34222 95.82986 357.74847 95.82986ZM357.7641 108.31423L364.81097 94.73611L366.09222 94.73611L359.06097 108.31423L357.7641 108.31423ZM363.3266 104.81423Q363.3266 103.43923 364.0141 102.47048Q364.71722 101.50173 366.04535 101.50173Q367.2641 101.50173 368.04535 102.37673Q368.84222 103.23611 368.84222 104.92361Q368.84222 106.54861 368.04535 107.43923Q367.24847 108.31423 366.06097 108.31423Q364.8891 108.31423 364.10785 107.43923Q363.3266 106.56423 363.3266 104.81423ZM366.09222 102.59548Q365.49847 102.59548 365.10785 103.11111Q364.71722 103.61111 364.71722 104.98611Q364.71722 106.20486 365.10785 106.72048Q365.49847 107.23611 366.0766 107.23611Q366.68597 107.23611 367.0766 106.72048Q367.46722 106.20486 367.46722 104.86111Q367.46722 103.61111 367.0766 103.11111Q366.68597 102.59548 366.09222 102.59548Z" fill-rule="nonzero"/><path fill="#ffffff" d="M345.66364 293.32706L347.2574 293.12393Q347.523 294.46768 348.17926 295.06143Q348.8355 295.65518 349.773 295.65518Q350.898 295.65518 351.66364 294.88956Q352.42926 294.1083 352.42926 292.96768Q352.42926 291.87393 351.7105 291.1708Q351.0074 290.45206 349.91364 290.45206Q349.4605 290.45206 348.78864 290.63956L348.9605 289.24893Q349.11676 289.26456 349.22614 289.26456Q350.22614 289.26456 351.03864 288.7333Q351.85114 288.20206 351.85114 287.1083Q351.85114 286.2333 351.2574 285.6708Q350.66364 285.09268 349.74176 285.09268Q348.8199 285.09268 348.1949 285.6708Q347.5855 286.24893 347.41364 287.4208L345.8355 287.13956Q346.11676 285.5458 347.148 284.6708Q348.17926 283.7958 349.7105 283.7958Q350.7574 283.7958 351.648 284.24893Q352.53864 284.70206 353.0074 285.4833Q353.47614 286.26456 353.47614 287.13956Q353.47614 287.9833 353.023 288.6708Q352.5855 289.34268 351.6949 289.74893Q352.8355 290.01456 353.4605 290.8583Q354.10114 291.68643 354.10114 292.9208Q354.10114 294.6083 352.86676 295.7958Q351.648 296.96768 349.773 296.96768Q348.0699 296.96768 346.9449 295.95206Q345.8355 294.93643 345.66364 293.32706ZM360.72614 296.7333L360.72614 293.65518L355.148 293.65518L355.148 292.20206L361.023 283.84268L362.3199 283.84268L362.3199 292.20206L364.05426 292.20206L364.05426 293.65518L362.3199 293.65518L362.3199 296.7333L360.72614 296.7333ZM360.72614 292.20206L360.72614 286.38956L356.6949 292.20206L360.72614 292.20206ZM366.55426 296.7333L366.55426 294.93643L368.35114 294.93643L368.35114 296.7333L366.55426 296.7333ZM373.10114 289.74893Q372.11676 289.38956 371.6324 288.71768Q371.16364 288.0458 371.16364 287.12393Q371.16364 285.71768 372.16364 284.76456Q373.17926 283.7958 374.86676 283.7958Q376.55426 283.7958 377.5699 284.78018Q378.60114 285.74893 378.60114 287.15518Q378.60114 288.06143 378.1324 288.7333Q377.66364 289.38956 376.7105 289.74893Q377.898 290.13956 378.5074 290.99893Q379.1324 291.8583 379.1324 293.0458Q379.1324 294.70206 377.9605 295.82706Q376.78864 296.95206 374.8824 296.95206Q372.97614 296.95206 371.80426 295.82706Q370.648 294.68643 370.648 292.99893Q370.648 291.74893 371.273 290.90518Q371.91364 290.0458 373.10114 289.74893ZM372.773 287.06143Q372.773 287.9833 373.36676 288.56143Q373.9605 289.13956 374.898 289.13956Q375.80426 289.13956 376.3824 288.56143Q376.97614 287.9833 376.97614 287.15518Q376.97614 286.28018 376.36676 285.68643Q375.773 285.09268 374.8824 285.09268Q373.97614 285.09268 373.36676 285.6708Q372.773 286.24893 372.773 287.06143ZM372.273 293.01456Q372.273 293.68643 372.5855 294.32706Q372.91364 294.95206 373.53864 295.31143Q374.17926 295.65518 374.91364 295.65518Q376.03864 295.65518 376.773 294.9208Q377.523 294.18643 377.523 293.06143Q377.523 291.9208 376.7574 291.18643Q375.99176 290.43643 374.85114 290.43643Q373.74176 290.43643 373.0074 291.1708Q372.273 291.90518 372.273 293.01456ZM380.9605 286.93643Q380.9605 285.56143 381.648 284.59268Q382.35114 283.62393 383.66364 283.62393Q384.8824 283.62393 385.67926 284.49893Q386.47614 285.3583 386.47614 287.0458Q386.47614 288.6708 385.66364 289.56143Q384.86676 290.43643 383.67926 290.43643Q382.523 290.43643 381.74176 289.57706Q380.9605 288.70206 380.9605 286.93643ZM383.7105 284.71768Q383.11676 284.71768 382.72614 285.2333Q382.3355 285.7333 382.3355 287.09268Q382.3355 288.34268 382.72614 288.84268Q383.1324 289.34268 383.7105 289.34268Q384.30426 289.34268 384.6949 288.84268Q385.0855 288.32706 385.0855 286.9833Q385.0855 285.7333 384.6949 285.2333Q384.30426 284.71768 383.7105 284.71768ZM383.72614 297.20206L390.773 283.62393L392.05426 283.62393L385.023 297.20206L383.72614 297.20206ZM389.28864 293.70206Q389.28864 292.32706 389.97614 291.3583Q390.67926 290.38956 392.0074 290.38956Q393.22614 290.38956 394.0074 291.26456Q394.80426 292.12393 394.80426 293.81143Q394.80426 295.43643 394.0074 296.32706Q393.2105 297.20206 392.023 297.20206Q390.85114 297.20206 390.0699 296.32706Q389.28864 295.45206 389.28864 293.70206ZM392.05426 291.4833Q391.4605 291.4833 391.0699 291.99893Q390.67926 292.49893 390.67926 293.87393Q390.67926 295.09268 391.0699 295.6083Q391.4605 296.12393 392.03864 296.12393Q392.648 296.12393 393.03864 295.6083Q393.42926 295.09268 393.42926 293.74893Q393.42926 292.49893 393.03864 291.99893Q392.648 291.4833 392.05426 291.4833Z" fill-rule="nonzero"/><path fill="#ffffff" d="M163.9351 214.39124L165.52885 214.18811Q165.79448 215.53186 166.45073 216.12561Q167.10698 216.71936 168.04448 216.71936Q169.16948 216.71936 169.9351 215.95374Q170.70073 215.17249 170.70073 214.03186Q170.70073 212.93811 169.98198 212.23499Q169.27885 211.51624 168.1851 211.51624Q167.73198 211.51624 167.0601 211.70374L167.23198 210.31311Q167.38823 210.32874 167.4976 210.32874Q168.4976 210.32874 169.3101 209.79749Q170.1226 209.26624 170.1226 208.17249Q170.1226 207.29749 169.52885 206.73499Q168.9351 206.15686 168.01323 206.15686Q167.09135 206.15686 166.46635 206.73499Q165.85698 207.31311 165.6851 208.48499L164.10698 208.20374Q164.38823 206.60999 165.41948 205.73499Q166.45073 204.85999 167.98198 204.85999Q169.02885 204.85999 169.91948 205.31311Q170.8101 205.76624 171.27885 206.54749Q171.7476 207.32874 171.7476 208.20374Q171.7476 209.04749 171.29448 209.73499Q170.85698 210.40686 169.96635 210.81311Q171.10698 211.07874 171.73198 211.92249Q172.3726 212.75061 172.3726 213.98499Q172.3726 215.67249 171.13823 216.85999Q169.91948 218.03186 168.04448 218.03186Q166.34135 218.03186 165.21635 217.01624Q164.10698 216.00061 163.9351 214.39124ZM178.9976 217.79749L178.9976 214.71936L173.41948 214.71936L173.41948 213.26624L179.29448 204.90686L180.59135 204.90686L180.59135 213.26624L182.32573 213.26624L182.32573 214.71936L180.59135 214.71936L180.59135 217.79749L178.9976 217.79749ZM178.9976 213.26624L178.9976 207.45374L174.96635 213.26624L178.9976 213.26624ZM184.82573 217.79749L184.82573 216.00061L186.6226 216.00061L186.6226 217.79749L184.82573 217.79749ZM191.3726 210.81311Q190.38823 210.45374 189.90385 209.78186Q189.4351 209.10999 189.4351 208.18811Q189.4351 206.78186 190.4351 205.82874Q191.45073 204.85999 193.13823 204.85999Q194.82573 204.85999 195.84135 205.84436Q196.8726 206.81311 196.8726 208.21936Q196.8726 209.12561 196.40385 209.79749Q195.9351 210.45374 194.98198 210.81311Q196.16948 211.20374 196.77885 212.06311Q197.40385 212.92249 197.40385 214.10999Q197.40385 215.76624 196.23198 216.89124Q195.0601 218.01624 193.15385 218.01624Q191.2476 218.01624 190.07573 216.89124Q188.91948 215.75061 188.91948 214.06311Q188.91948 212.81311 189.54448 211.96936Q190.1851 211.10999 191.3726 210.81311ZM191.04448 208.12561Q191.04448 209.04749 191.63823 209.62561Q192.23198 210.20374 193.16948 210.20374Q194.07573 210.20374 194.65385 209.62561Q195.2476 209.04749 195.2476 208.21936Q195.2476 207.34436 194.63823 206.75061Q194.04448 206.15686 193.15385 206.15686Q192.2476 206.15686 191.63823 206.73499Q191.04448 207.31311 191.04448 208.12561ZM190.54448 214.07874Q190.54448 214.75061 190.85698 215.39124Q191.1851 216.01624 191.8101 216.37561Q192.45073 216.71936 193.1851 216.71936Q194.3101 216.71936 195.04448 215.98499Q195.79448 215.25061 195.79448 214.12561Q195.79448 212.98499 195.02885 212.25061Q194.26323 211.50061 193.1226 211.50061Q192.01323 211.50061 191.27885 212.23499Q190.54448 212.96936 190.54448 214.07874ZM199.23198 208.00061Q199.23198 206.62561 199.91948 205.65686Q200.6226 204.68811 201.9351 204.68811Q203.15385 204.68811 203.95073 205.56311Q204.7476 206.42249 204.7476 208.10999Q204.7476 209.73499 203.9351 210.62561Q203.13823 211.50061 201.95073 211.50061Q200.79448 211.50061 200.01323 210.64124Q199.23198 209.76624 199.23198 208.00061ZM201.98198 205.78186Q201.38823 205.78186 200.9976 206.29749Q200.60698 206.79749 200.60698 208.15686Q200.60698 209.40686 200.9976 209.90686Q201.40385 210.40686 201.98198 210.40686Q202.57573 210.40686 202.96635 209.90686Q203.35698 209.39124 203.35698 208.04749Q203.35698 206.79749 202.96635 206.29749Q202.57573 205.78186 201.98198 205.78186ZM201.9976 218.26624L209.04448 204.68811L210.32573 204.68811L203.29448 218.26624L201.9976 218.26624ZM207.5601 214.76624Q207.5601 213.39124 208.2476 212.42249Q208.95073 211.45374 210.27885 211.45374Q211.4976 211.45374 212.27885 212.32874Q213.07573 213.18811 213.07573 214.87561Q213.07573 216.50061 212.27885 217.39124Q211.48198 218.26624 210.29448 218.26624Q209.1226 218.26624 208.34135 217.39124Q207.5601 216.51624 207.5601 214.76624ZM210.32573 212.54749Q209.73198 212.54749 209.34135 213.06311Q208.95073 213.56311 208.95073 214.93811Q208.95073 216.15686 209.34135 216.67249Q209.73198 217.18811 210.3101 217.18811Q210.91948 217.18811 211.3101 216.67249Q211.70073 216.15686 211.70073 214.81311Q211.70073 213.56311 211.3101 213.06311Q210.91948 212.54749 210.32573 212.54749Z" fill-rule="nonzero"/><path stroke="#ffffff" stroke-width="1.0" stroke-linejoin="round" stroke-linecap="round" d="M354.36203 152.91275C340.295 137.85068 320.60938 129.3 300.0 129.3L300.0 54.916668C341.21875 54.916668 380.59003 72.01803 408.72403 102.14217" fill-rule="nonzero"/><path stroke="#ffffff" stroke-width="1.0" stroke-linejoin="round" stroke-linecap="round" d="M366.04385 169.46216C362.92282 163.4388 358.99243 157.87071 354.36203 152.91275L408.72403 102.14217C417.98483 112.05808 425.8456 123.19426 432.08774 135.241" fill-rule="nonzero"/><path stroke="#ffffff" stroke-width="1.0" stroke-linejoin="round" stroke-linecap="round" d="M372.82755 188.54959C371.4473 181.90755 369.16492 175.48553 366.04385 169.46216L432.08774 135.241C438.32983 147.28772 442.8946 160.13176 445.6551 173.41586" fill-rule="nonzero"/><path stroke="#ffffff" stroke-width="1.0" stroke-linejoin="round" stroke-linecap="round" d="M270.3656 271.90857C295.85336 282.97946 325.38672 278.9202 346.9424 261.38333C368.49814 243.84645 378.48123 215.75668 372.82755 188.54959L445.6551 173.41586C456.96246 227.83005 436.99628 284.00958 393.88486 319.0833C350.77344 354.15704 291.7067 362.27557 240.7312 340.1338" fill-rule="nonzero"/><path stroke="#ffffff" stroke-width="1.0" stroke-linejoin="round" stroke-linecap="round" d="M261.35162 140.12877C237.60875 154.56712 223.89372 181.0359 225.79007 208.75943C227.68642 236.48296 244.87785 260.83768 270.3656 271.90857L240.7312 340.1338C189.75569 317.992 155.37282 269.2826 151.58014 213.83553C147.78746 158.38847 175.21748 105.45093 222.70323 76.5742" fill-rule="nonzero"/><path stroke="#ffffff" stroke-width="1.0" stroke-linejoin="round" stroke-linecap="round" d="M279.9316 132.05833C273.39923 133.88863 267.14795 136.60394 261.35162 140.12877L222.70323 76.5742C234.2959 69.52455 246.79848 64.09391 259.86322 60.43334" fill-rule="nonzero"/><path stroke="#ffffff" stroke-width="1.0" stroke-linejoin="round" stroke-linecap="round" d="M300.0 129.3C293.21606 129.3 286.464 130.22804 279.9316 132.05833L259.86322 60.43334C272.92798 56.772766 286.4321 54.916668 300.0 54.916668" fill-rule="nonzero"/><path fill="#efefef" d="M22.70625 69.916664L22.70625 59.80729L18.925 59.80729L18.925 58.46354L28.003124 58.46354L28.003124 59.80729L24.221874 59.80729L24.221874 69.916664L22.70625 69.916664ZM35.284374 67.24479L36.7375 67.416664Q36.39375 68.697914 35.45625 69.40104Q34.534374 70.104164 33.096874 70.104164Q31.26875 70.104164 30.20625 68.979164Q29.14375 67.854164 29.14375 65.83854Q29.14375 63.74479 30.221874 62.58854Q31.3 61.43229 33.01875 61.43229Q34.675 61.43229 35.721874 62.572914Q36.784374 63.697914 36.784374 65.74479Q36.784374 65.86979 36.784374 66.11979L30.596874 66.11979Q30.675 67.49479 31.3625 68.229164Q32.065624 68.947914 33.096874 68.947914Q33.878124 68.947914 34.425 68.541664Q34.971874 68.135414 35.284374 67.24479ZM30.675 64.96354L35.3 64.96354Q35.20625 63.916664 34.76875 63.40104Q34.096874 62.58854 33.034374 62.58854Q32.065624 62.58854 31.39375 63.24479Q30.7375 63.885414 30.675 64.96354ZM37.675 69.916664L40.70625 65.604164L37.89375 61.61979L39.659374 61.61979L40.925 63.55729Q41.284374 64.11979 41.503124 64.49479Q41.846874 63.979164 42.14375 63.572914L43.534374 61.61979L45.221874 61.61979L42.346874 65.52604L45.440624 69.916664L43.70625 69.916664L42.003124 67.33854L41.55 66.635414L39.378124 69.916664L37.675 69.916664ZM49.675 68.65104L49.878124 69.90104Q49.284374 70.02604 48.815624 70.02604Q48.05 70.02604 47.628124 69.791664Q47.20625 69.541664 47.034374 69.15104Q46.8625 68.74479 46.8625 67.479164L46.8625 62.71354L45.83125 62.71354L45.83125 61.61979L46.8625 61.61979L46.8625 59.55729L48.26875 58.71354L48.26875 61.61979L49.675 61.61979L49.675 62.71354L48.26875 62.71354L48.26875 67.55729Q48.26875 68.166664 48.33125 68.33854Q48.409374 68.510414 48.58125 68.61979Q48.753124 68.71354 49.065624 68.71354Q49.3 68.71354 49.675 68.65104Z" fill-rule="nonzero"/><path fill="#9e9e9e" d="M23.721874 91.916664L23.721874 89.166664L18.753124 89.166664L18.753124 87.885414L23.9875 80.46354L25.128124 80.46354L25.128124 87.885414L26.675 87.885414L26.675 89.166664L25.128124 89.166664L25.128124 91.916664L23.721874 91.916664ZM23.721874 87.885414L23.721874 82.71354L20.14375 87.885414L23.721874 87.885414ZM29.003124 91.916664L29.003124 90.30729L30.6125 90.30729L30.6125 91.916664L29.003124 91.916664ZM32.221874 88.885414L33.628124 88.697914Q33.878124 89.90104 34.45625 90.43229Q35.034374 90.947914 35.878124 90.947914Q36.8625 90.947914 37.55 90.260414Q38.2375 89.572914 38.2375 88.55729Q38.2375 87.58854 37.596874 86.96354Q36.971874 86.33854 35.9875 86.33854Q35.596874 86.33854 35.003124 86.49479L35.159374 85.260414Q35.3 85.27604 35.378124 85.27604Q36.284374 85.27604 37.003124 84.80729Q37.721874 84.33854 37.721874 83.354164Q37.721874 82.58854 37.190624 82.08854Q36.675 81.572914 35.846874 81.572914Q35.01875 81.572914 34.471874 82.08854Q33.925 82.604164 33.76875 83.635414L32.3625 83.385414Q32.628124 81.96354 33.534374 81.197914Q34.45625 80.416664 35.815624 80.416664Q36.753124 80.416664 37.534374 80.822914Q38.33125 81.21354 38.7375 81.916664Q39.159374 82.604164 39.159374 83.385414Q39.159374 84.135414 38.753124 84.74479Q38.3625 85.354164 37.58125 85.71354Q38.596874 85.947914 39.159374 86.68229Q39.721874 87.416664 39.721874 88.52604Q39.721874 90.02604 38.628124 91.072914Q37.534374 92.11979 35.8625 92.11979Q34.3625 92.11979 33.3625 91.229164Q32.3625 90.322914 32.221874 88.885414ZM41.4875 83.21354Q41.4875 81.979164 42.096874 81.11979Q42.721874 80.260414 43.89375 80.260414Q44.971874 80.260414 45.675 81.041664Q46.378124 81.80729 46.378124 83.291664Q46.378124 84.74479 45.659374 85.541664Q44.95625 86.322914 43.909374 86.322914Q42.8625 86.322914 42.175 85.55729Q41.4875 84.77604 41.4875 83.21354ZM43.925 81.229164Q43.409374 81.229164 43.05 81.68229Q42.70625 82.135414 42.70625 83.354164Q42.70625 84.447914 43.05 84.90104Q43.409374 85.354164 43.925 85.354164Q44.45625 85.354164 44.8 84.90104Q45.159374 84.447914 45.159374 83.24479Q45.159374 82.135414 44.8 81.68229Q44.45625 81.229164 43.925 81.229164ZM43.940624 92.33854L50.20625 80.260414L51.346874 80.260414L45.096874 92.33854L43.940624 92.33854ZM48.89375 89.229164Q48.89375 87.99479 49.503124 87.135414Q50.128124 86.27604 51.3 86.27604Q52.378124 86.27604 53.08125 87.05729Q53.8 87.822914 53.8 89.30729Q53.8 90.760414 53.08125 91.55729Q52.3625 92.33854 51.315624 92.33854Q50.26875 92.33854 49.58125 91.55729Q48.89375 90.77604 48.89375 89.229164ZM51.346874 87.24479Q50.815624 87.24479 50.45625 87.697914Q50.1125 88.15104 50.1125 89.36979Q50.1125 90.46354 50.45625 90.916664Q50.815624 91.36979 51.33125 91.36979Q51.878124 91.36979 52.221874 90.916664Q52.565624 90.46354 52.565624 89.260414Q52.565624 88.15104 52.20625 87.697914Q51.8625 87.24479 51.346874 87.24479Z" fill-rule="nonzero"/><path stroke="#757575" stroke-width="1.0" stroke-linecap="butt" d="M18.55 75.416664L145.23334 75.416664L280.7558 63.67134" fill-rule="nonzero"/><path fill="#9e9e9e" d="M282.7558 63.67134C282.7558 62.56677 281.86035 61.67134 280.7558 61.67134C279.6512 61.67134 278.7558 62.56677 278.7558 63.67134C278.7558 64.77591 279.6512 65.67134 280.7558 65.67134C281.86035 65.67134 282.7558 64.77591 282.7558 63.67134" fill-rule="nonzero"/><path fill="#efefef" d="M19.76875 110.916664L19.76875 99.46354L21.33125 99.46354L27.346874 108.447914L27.346874 99.46354L28.8 99.46354L28.8 110.916664L27.2375 110.916664L21.221874 101.916664L21.221874 110.916664L19.76875 110.916664ZM37.01875 109.885414Q36.2375 110.55729 35.51875 110.83854Q34.8 111.104164 33.971874 111.104164Q32.596874 111.104164 31.8625 110.43229Q31.128124 109.760414 31.128124 108.729164Q31.128124 108.11979 31.409374 107.61979Q31.690624 107.104164 32.128124 106.80729Q32.58125 106.49479 33.14375 106.33854Q33.565624 106.229164 34.39375 106.135414Q36.096874 105.93229 36.909374 105.65104Q36.909374 105.354164 36.909374 105.27604Q36.909374 104.416664 36.51875 104.072914Q35.971874 103.58854 34.909374 103.58854Q33.925 103.58854 33.440624 103.947914Q32.971874 104.291664 32.753124 105.166664L31.378124 104.979164Q31.565624 104.104164 31.9875 103.55729Q32.425 103.010414 33.2375 102.729164Q34.05 102.43229 35.1125 102.43229Q36.175 102.43229 36.83125 102.68229Q37.503124 102.93229 37.815624 103.30729Q38.128124 103.68229 38.253124 104.260414Q38.33125 104.61979 38.33125 105.55729L38.33125 107.43229Q38.33125 109.40104 38.409374 109.916664Q38.503124 110.43229 38.76875 110.916664L37.3 110.916664Q37.08125 110.479164 37.01875 109.885414ZM36.909374 106.74479Q36.14375 107.05729 34.6125 107.27604Q33.7375 107.40104 33.378124 107.55729Q33.01875 107.71354 32.815624 108.02604Q32.628124 108.322914 32.628124 108.68229Q32.628124 109.24479 33.05 109.61979Q33.4875 109.99479 34.3 109.99479Q35.1125 109.99479 35.7375 109.65104Q36.378124 109.291664 36.675 108.666664Q36.909374 108.197914 36.909374 107.260414L36.909374 106.74479ZM42.909374 110.916664L39.753124 102.61979L41.2375 102.61979L43.01875 107.58854Q43.315624 108.385414 43.55 109.260414Q43.7375 108.604164 44.08125 107.68229L45.925 102.61979L47.3625 102.61979L44.221874 110.916664L42.909374 110.916664ZM54.01875 109.885414Q53.2375 110.55729 52.51875 110.83854Q51.8 111.104164 50.971874 111.104164Q49.596874 111.104164 48.8625 110.43229Q48.128124 109.760414 48.128124 108.729164Q48.128124 108.11979 48.409374 107.61979Q48.690624 107.104164 49.128124 106.80729Q49.58125 106.49479 50.14375 106.33854Q50.565624 106.229164 51.39375 106.135414Q53.096874 105.93229 53.909374 105.65104Q53.909374 105.354164 53.909374 105.27604Q53.909374 104.416664 53.51875 104.072914Q52.971874 103.58854 51.909374 103.58854Q50.925 103.58854 50.440624 103.947914Q49.971874 104.291664 49.753124 105.166664L48.378124 104.979164Q48.565624 104.104164 48.9875 103.55729Q49.425 103.010414 50.2375 102.729164Q51.05 102.43229 52.1125 102.43229Q53.175 102.43229 53.83125 102.68229Q54.503124 102.93229 54.815624 103.30729Q55.128124 103.68229 55.253124 104.260414Q55.33125 104.61979 55.33125 105.55729L55.33125 107.43229Q55.33125 109.40104 55.409374 109.916664Q55.503124 110.43229 55.76875 110.916664L54.3 110.916664Q54.08125 110.479164 54.01875 109.885414ZM53.909374 106.74479Q53.14375 107.05729 51.6125 107.27604Q50.7375 107.40104 50.378124 107.55729Q50.01875 107.71354 49.815624 108.02604Q49.628124 108.322914 49.628124 108.68229Q49.628124 109.24479 50.05 109.61979Q50.4875 109.99479 51.3 109.99479Q52.1125 109.99479 52.7375 109.65104Q53.378124 109.291664 53.675 108.666664Q53.909374 108.197914 53.909374 107.260414L53.909374 106.74479ZM57.58125 110.916664L57.58125 99.46354L58.9875 99.46354L58.9875 110.916664L57.58125 110.916664ZM65.26875 107.229164L66.70625 107.104164Q66.8 107.96354 67.175 108.52604Q67.55 109.072914 68.33125 109.416664Q69.1125 109.74479 70.08125 109.74479Q70.95625 109.74479 71.6125 109.49479Q72.28438 109.229164 72.59688 108.791664Q72.925 108.33854 72.925 107.80729Q72.925 107.260414 72.6125 106.86979Q72.3 106.46354 71.58125 106.18229Q71.12813 106.010414 69.55 105.635414Q67.97188 105.24479 67.33125 104.916664Q66.51875 104.479164 66.1125 103.854164Q65.70625 103.21354 65.70625 102.416664Q65.70625 101.55729 66.19063 100.80729Q66.69063 100.041664 67.62813 99.65104Q68.58125 99.260414 69.7375 99.260414Q71.01875 99.260414 71.9875 99.68229Q72.95625 100.08854 73.47188 100.885414Q74.00313 101.68229 74.05 102.68229L72.59688 102.791664Q72.47188 101.71354 71.8 101.166664Q71.12813 100.604164 69.8 100.604164Q68.425 100.604164 67.8 101.104164Q67.175 101.604164 67.175 102.322914Q67.175 102.93229 67.6125 103.33854Q68.05 103.729164 69.89375 104.15104Q71.75313 104.572914 72.44063 104.885414Q73.44063 105.33854 73.90938 106.05729Q74.39375 106.760414 74.39375 107.68229Q74.39375 108.58854 73.8625 109.40104Q73.34688 110.21354 72.3625 110.666664Q71.37813 111.11979 70.15938 111.11979Q68.59688 111.11979 67.55 110.666664Q66.50313 110.197914 65.89375 109.291664Q65.3 108.385414 65.26875 107.229164ZM79.675 109.65104L79.87813 110.90104Q79.28438 111.02604 78.81563 111.02604Q78.05 111.02604 77.62813 110.791664Q77.20625 110.541664 77.03438 110.15104Q76.8625 109.74479 76.8625 108.479164L76.8625 103.71354L75.83125 103.71354L75.83125 102.61979L76.8625 102.61979L76.8625 100.55729L78.26875 99.71354L78.26875 102.61979L79.675 102.61979L79.675 103.71354L78.26875 103.71354L78.26875 108.55729Q78.26875 109.166664 78.33125 109.33854Q78.40938 109.510414 78.58125 109.61979Q78.75313 109.71354 79.06563 109.71354Q79.3 109.71354 79.675 109.65104ZM80.59688 110.916664L80.59688 102.61979L81.8625 102.61979L81.8625 103.86979Q82.34688 102.99479 82.75313 102.71354Q83.15938 102.43229 83.65938 102.43229Q84.3625 102.43229 85.09688 102.885414L84.6125 104.18229Q84.09688 103.885414 83.58125 103.885414Q83.12813 103.885414 82.75313 104.166664Q82.39375 104.43229 82.2375 104.93229Q82.00313 105.68229 82.00313 106.572914L82.00313 110.916664L80.59688 110.916664ZM91.05 110.916664L91.05 109.697914Q90.08125 111.104164 88.40938 111.104164Q87.675 111.104164 87.03438 110.822914Q86.40938 110.541664 86.09688 110.11979Q85.78438 109.68229 85.65938 109.072914Q85.58125 108.65104 85.58125 107.760414L85.58125 102.61979L86.9875 102.61979L86.9875 107.21354Q86.9875 108.322914 87.06563 108.697914Q87.20625 109.260414 87.62813 109.572914Q88.06563 109.885414 88.69063 109.885414Q89.33125 109.885414 89.87813 109.572914Q90.44063 109.24479 90.65938 108.68229Q90.89375 108.11979 90.89375 107.05729L90.89375 102.61979L92.3 102.61979L92.3 110.916664L91.05 110.916664ZM100.01875 107.86979L101.40938 108.05729Q101.175 109.479164 100.2375 110.291664Q99.31563 111.104164 97.95625 111.104164Q96.25313 111.104164 95.20625 109.99479Q94.175 108.86979 94.175 106.791664Q94.175 105.447914 94.6125 104.447914Q95.06563 103.43229 95.97188 102.93229Q96.89375 102.43229 97.95625 102.43229Q99.31563 102.43229 100.175 103.11979Q101.03438 103.791664 101.26875 105.05729L99.90938 105.260414Q99.70625 104.43229 99.20625 104.010414Q98.72188 103.58854 98.01875 103.58854Q96.95625 103.58854 96.28438 104.354164Q95.62813 105.104164 95.62813 106.760414Q95.62813 108.43229 96.26875 109.197914Q96.90938 109.947914 97.94063 109.947914Q98.76875 109.947914 99.31563 109.447914Q99.87813 108.93229 100.01875 107.86979ZM105.675 109.65104L105.87813 110.90104Q105.28438 111.02604 104.81563 111.02604Q104.05 111.02604 103.62813 110.791664Q103.20625 110.541664 103.03438 110.15104Q102.8625 109.74479 102.8625 108.479164L102.8625 103.71354L101.83125 103.71354L101.83125 102.61979L102.8625 102.61979L102.8625 100.55729L104.26875 99.71354L104.26875 102.61979L105.675 102.61979L105.675 103.71354L104.26875 103.71354L104.26875 108.55729Q104.26875 109.166664 104.33125 109.33854Q104.40938 109.510414 104.58125 109.61979Q104.75313 109.71354 105.06563 109.71354Q105.3 109.71354 105.675 109.65104ZM112.05 110.916664L112.05 109.697914Q111.08125 111.104164 109.40938 111.104164Q108.675 111.104164 108.03438 110.822914Q107.40938 110.541664 107.09688 110.11979Q106.78438 109.68229 106.65938 109.072914Q106.58125 108.65104 106.58125 107.760414L106.58125 102.61979L107.9875 102.61979L107.9875 107.21354Q107.9875 108.322914 108.06563 108.697914Q108.20625 109.260414 108.62813 109.572914Q109.06563 109.885414 109.69063 109.885414Q110.33125 109.885414 110.87813 109.572914Q111.44063 109.24479 111.65938 108.68229Q111.89375 108.11979 111.89375 107.05729L111.89375 102.61979L113.3 102.61979L113.3 110.916664L112.05 110.916664ZM115.59688 110.916664L115.59688 102.61979L116.8625 102.61979L116.8625 103.86979Q117.34688 102.99479 117.75313 102.71354Q118.15938 102.43229 118.65938 102.43229Q119.3625 102.43229 120.09688 102.885414L119.6125 104.18229Q119.09688 103.885414 118.58125 103.885414Q118.12813 103.885414 117.75313 104.166664Q117.39375 104.43229 117.2375 104.93229Q117.00313 105.68229 117.00313 106.572914L117.00313 110.916664L115.59688 110.916664ZM126.28438 108.24479L127.7375 108.416664Q127.39375 109.697914 126.45625 110.40104Q125.53438 111.104164 124.09688 111.104164Q122.26875 111.104164 121.20625 109.979164Q120.14375 108.854164 120.14375 106.83854Q120.14375 104.74479 121.22188 103.58854Q122.3 102.43229 124.01875 102.43229Q125.675 102.43229 126.72188 103.572914Q127.78438 104.697914 127.78438 106.74479Q127.78438 106.86979 127.78438 107.11979L121.59688 107.11979Q121.675 108.49479 122.3625 109.229164Q123.06563 109.947914 124.09688 109.947914Q124.87813 109.947914 125.425 109.541664Q125.97188 109.135414 126.28438 108.24479ZM121.675 105.96354L126.3 105.96354Q126.20625 104.916664 125.76875 104.40104Q125.09688 103.58854 124.03438 103.58854Q123.06563 103.58854 122.39375 104.24479Q121.7375 104.885414 121.675 105.96354ZM129.05 108.43229L130.44063 108.21354Q130.55 109.05729 131.08125 109.510414Q131.62813 109.947914 132.58125 109.947914Q133.55 109.947914 134.01875 109.55729Q134.4875 109.15104 134.4875 108.61979Q134.4875 108.15104 134.08125 107.86979Q133.78438 107.68229 132.64375 107.40104Q131.09688 107.010414 130.4875 106.729164Q129.89375 106.43229 129.58125 105.93229Q129.28438 105.43229 129.28438 104.822914Q129.28438 104.260414 129.53438 103.791664Q129.78438 103.322914 130.22188 103.010414Q130.55 102.760414 131.1125 102.604164Q131.69063 102.43229 132.33125 102.43229Q133.31563 102.43229 134.05 102.71354Q134.78438 102.99479 135.12813 103.479164Q135.4875 103.947914 135.62813 104.760414L134.25313 104.947914Q134.15938 104.30729 133.70625 103.947914Q133.25313 103.58854 132.44063 103.58854Q131.47188 103.58854 131.05 103.916664Q130.64375 104.229164 130.64375 104.65104Q130.64375 104.93229 130.81563 105.15104Q130.9875 105.36979 131.34688 105.52604Q131.56563 105.604164 132.59688 105.885414Q134.08125 106.27604 134.675 106.541664Q135.26875 106.791664 135.59688 107.27604Q135.94063 107.760414 135.94063 108.479164Q135.94063 109.18229 135.51875 109.80729Q135.1125 110.416664 134.33125 110.760414Q133.56563 111.104164 132.59688 111.104164Q130.97188 111.104164 130.12813 110.43229Q129.28438 109.760414 129.05 108.43229Z" fill-rule="nonzero"/><path fill="#9e9e9e" d="M23.721874 132.91667L23.721874 130.16667L18.753124 130.16667L18.753124 128.88542L23.9875 121.46355L25.128124 121.46355L25.128124 128.88542L26.675 128.88542L26.675 130.16667L25.128124 130.16667L25.128124 132.91667L23.721874 132.91667ZM23.721874 128.88542L23.721874 123.71355L20.14375 128.88542L23.721874 128.88542ZM29.003124 132.91667L29.003124 131.3073L30.6125 131.3073L30.6125 132.91667L29.003124 132.91667ZM32.221874 129.88542L33.628124 129.69792Q33.878124 130.90105 34.45625 131.4323Q35.034374 131.94792 35.878124 131.94792Q36.8625 131.94792 37.55 131.26042Q38.2375 130.57292 38.2375 129.5573Q38.2375 128.58855 37.596874 127.96355Q36.971874 127.33855 35.9875 127.33855Q35.596874 127.33855 35.003124 127.4948L35.159374 126.26042Q35.3 126.27605 35.378124 126.27605Q36.284374 126.27605 37.003124 125.8073Q37.721874 125.33855 37.721874 124.35417Q37.721874 123.58855 37.190624 123.08855Q36.675 122.57292 35.846874 122.57292Q35.01875 122.57292 34.471874 123.08855Q33.925 123.60417 33.76875 124.63542L32.3625 124.38542Q32.628124 122.96355 33.534374 122.19792Q34.45625 121.41667 35.815624 121.41667Q36.753124 121.41667 37.534374 121.82292Q38.33125 122.21355 38.7375 122.91667Q39.159374 123.60417 39.159374 124.38542Q39.159374 125.13542 38.753124 125.7448Q38.3625 126.35417 37.58125 126.71355Q38.596874 126.94792 39.159374 127.6823Q39.721874 128.41667 39.721874 129.52605Q39.721874 131.02605 38.628124 132.07292Q37.534374 133.1198 35.8625 133.1198Q34.3625 133.1198 33.3625 132.22917Q32.3625 131.32292 32.221874 129.88542ZM41.4875 124.21355Q41.4875 122.97917 42.096874 122.1198Q42.721874 121.26042 43.89375 121.26042Q44.971874 121.26042 45.675 122.04167Q46.378124 122.8073 46.378124 124.29167Q46.378124 125.7448 45.659374 126.54167Q44.95625 127.32292 43.909374 127.32292Q42.8625 127.32292 42.175 126.5573Q41.4875 125.77605 41.4875 124.21355ZM43.925 122.22917Q43.409374 122.22917 43.05 122.6823Q42.70625 123.13542 42.70625 124.35417Q42.70625 125.44792 43.05 125.90105Q43.409374 126.35417 43.925 126.35417Q44.45625 126.35417 44.8 125.90105Q45.159374 125.44792 45.159374 124.2448Q45.159374 123.13542 44.8 122.6823Q44.45625 122.22917 43.925 122.22917ZM43.940624 133.33855L50.20625 121.26042L51.346874 121.26042L45.096874 133.33855L43.940624 133.33855ZM48.89375 130.22917Q48.89375 128.9948 49.503124 128.13542Q50.128124 127.27605 51.3 127.27605Q52.378124 127.27605 53.08125 128.0573Q53.8 128.82292 53.8 130.3073Q53.8 131.76042 53.08125 132.5573Q52.3625 133.33855 51.315624 133.33855Q50.26875 133.33855 49.58125 132.5573Q48.89375 131.77605 48.89375 130.22917ZM51.346874 128.2448Q50.815624 128.2448 50.45625 128.69792Q50.1125 129.15105 50.1125 130.3698Q50.1125 131.46355 50.45625 131.91667Q50.815624 132.3698 51.33125 132.3698Q51.878124 132.3698 52.221874 131.91667Q52.565624 131.46355 52.565624 130.26042Q52.565624 129.15105 52.20625 128.69792Q51.8625 128.2448 51.346874 128.2448Z" fill-rule="nonzero"/><path stroke="#757575" stroke-width="1.0" stroke-linecap="butt" d="M18.55 116.416664L145.23334 116.416664L243.69464 74.05539" fill-rule="nonzero"/><path fill="#9e9e9e" d="M245.69464 74.05539C245.69464 72.95082 244.79921 72.05539 243.69464 72.05539C242.59007 72.05539 241.69464 72.95082 241.69464 74.05539C241.69464 75.15996 242.59007 76.05539 243.69464 76.05539C244.79921 76.05539 245.69464 75.15996 245.69464 74.05539" fill-rule="nonzero"/><path fill="#efefef" d="M19.76875 207.82793L19.76875 196.3748L21.33125 196.3748L27.346874 205.35918L27.346874 196.3748L28.8 196.3748L28.8 207.82793L27.2375 207.82793L21.221874 198.82793L21.221874 207.82793L19.76875 207.82793ZM37.01875 206.79668Q36.2375 207.46855 35.51875 207.7498Q34.8 208.01543 33.971874 208.01543Q32.596874 208.01543 31.8625 207.34355Q31.128124 206.67168 31.128124 205.64043Q31.128124 205.03105 31.409374 204.53105Q31.690624 204.01543 32.128124 203.71855Q32.58125 203.40605 33.14375 203.2498Q33.565624 203.14043 34.39375 203.04668Q36.096874 202.84355 36.909374 202.5623Q36.909374 202.26543 36.909374 202.1873Q36.909374 201.32793 36.51875 200.98418Q35.971874 200.4998 34.909374 200.4998Q33.925 200.4998 33.440624 200.85918Q32.971874 201.20293 32.753124 202.07793L31.378124 201.89043Q31.565624 201.01543 31.9875 200.46855Q32.425 199.92168 33.2375 199.64043Q34.05 199.34355 35.1125 199.34355Q36.175 199.34355 36.83125 199.59355Q37.503124 199.84355 37.815624 200.21855Q38.128124 200.59355 38.253124 201.17168Q38.33125 201.53105 38.33125 202.46855L38.33125 204.34355Q38.33125 206.3123 38.409374 206.82793Q38.503124 207.34355 38.76875 207.82793L37.3 207.82793Q37.08125 207.39043 37.01875 206.79668ZM36.909374 203.65605Q36.14375 203.96855 34.6125 204.1873Q33.7375 204.3123 33.378124 204.46855Q33.01875 204.6248 32.815624 204.9373Q32.628124 205.23418 32.628124 205.59355Q32.628124 206.15605 33.05 206.53105Q33.4875 206.90605 34.3 206.90605Q35.1125 206.90605 35.7375 206.5623Q36.378124 206.20293 36.675 205.57793Q36.909374 205.10918 36.909374 204.17168L36.909374 203.65605ZM43.675 206.5623L43.878124 207.8123Q43.284374 207.9373 42.815624 207.9373Q42.05 207.9373 41.628124 207.70293Q41.20625 207.45293 41.034374 207.0623Q40.8625 206.65605 40.8625 205.39043L40.8625 200.6248L39.83125 200.6248L39.83125 199.53105L40.8625 199.53105L40.8625 197.46855L42.26875 196.6248L42.26875 199.53105L43.675 199.53105L43.675 200.6248L42.26875 200.6248L42.26875 205.46855Q42.26875 206.07793 42.33125 206.2498Q42.409374 206.42168 42.58125 206.53105Q42.753124 206.6248 43.065624 206.6248Q43.3 206.6248 43.675 206.5623ZM50.05 207.82793L50.05 206.60918Q49.08125 208.01543 47.409374 208.01543Q46.675 208.01543 46.034374 207.73418Q45.409374 207.45293 45.096874 207.03105Q44.784374 206.59355 44.659374 205.98418Q44.58125 205.5623 44.58125 204.67168L44.58125 199.53105L45.9875 199.53105L45.9875 204.1248Q45.9875 205.23418 46.065624 205.60918Q46.20625 206.17168 46.628124 206.48418Q47.065624 206.79668 47.690624 206.79668Q48.33125 206.79668 48.878124 206.48418Q49.440624 206.15605 49.659374 205.59355Q49.89375 205.03105 49.89375 203.96855L49.89375 199.53105L51.3 199.53105L51.3 207.82793L50.05 207.82793ZM53.596874 207.82793L53.596874 199.53105L54.8625 199.53105L54.8625 200.78105Q55.346874 199.90605 55.753124 199.6248Q56.159374 199.34355 56.659374 199.34355Q57.3625 199.34355 58.096874 199.79668L57.6125 201.09355Q57.096874 200.79668 56.58125 200.79668Q56.128124 200.79668 55.753124 201.07793Q55.39375 201.34355 55.2375 201.84355Q55.003124 202.59355 55.003124 203.48418L55.003124 207.82793L53.596874 207.82793ZM64.01875 206.79668Q63.2375 207.46855 62.51875 207.7498Q61.8 208.01543 60.971874 208.01543Q59.596874 208.01543 58.8625 207.34355Q58.128124 206.67168 58.128124 205.64043Q58.128124 205.03105 58.409374 204.53105Q58.690624 204.01543 59.128124 203.71855Q59.58125 203.40605 60.14375 203.2498Q60.565624 203.14043 61.39375 203.04668Q63.096874 202.84355 63.909374 202.5623Q63.909374 202.26543 63.909374 202.1873Q63.909374 201.32793 63.51875 200.98418Q62.971874 200.4998 61.909374 200.4998Q60.925 200.4998 60.440624 200.85918Q59.971874 201.20293 59.753124 202.07793L58.378124 201.89043Q58.565624 201.01543 58.9875 200.46855Q59.425 199.92168 60.2375 199.64043Q61.05 199.34355 62.1125 199.34355Q63.175 199.34355 63.83125 199.59355Q64.50313 199.84355 64.81563 200.21855Q65.12813 200.59355 65.25313 201.17168Q65.33125 201.53105 65.33125 202.46855L65.33125 204.34355Q65.33125 206.3123 65.40938 206.82793Q65.50313 207.34355 65.76875 207.82793L64.3 207.82793Q64.08125 207.39043 64.01875 206.79668ZM63.909374 203.65605Q63.14375 203.96855 61.6125 204.1873Q60.7375 204.3123 60.378124 204.46855Q60.01875 204.6248 59.815624 204.9373Q59.628124 205.23418 59.628124 205.59355Q59.628124 206.15605 60.05 206.53105Q60.4875 206.90605 61.3 206.90605Q62.1125 206.90605 62.7375 206.5623Q63.378124 206.20293 63.675 205.57793Q63.909374 205.10918 63.909374 204.17168L63.909374 203.65605ZM67.58125 207.82793L67.58125 196.3748L68.9875 196.3748L68.9875 207.82793L67.58125 207.82793Z" fill-rule="nonzero"/><path fill="#9e9e9e" d="M19.221874 226.79668L20.628124 226.60918Q20.878124 227.8123 21.45625 228.34355Q22.034374 228.85918 22.878124 228.85918Q23.8625 228.85918 24.55 228.17168Q25.2375 227.48418 25.2375 226.46855Q25.2375 225.4998 24.596874 224.8748Q23.971874 224.2498 22.9875 224.2498Q22.596874 224.2498 22.003124 224.40605L22.159374 223.17168Q22.3 223.1873 22.378124 223.1873Q23.284374 223.1873 24.003124 222.71855Q24.721874 222.2498 24.721874 221.26543Q24.721874 220.4998 24.190624 219.9998Q23.675 219.48418 22.846874 219.48418Q22.01875 219.48418 21.471874 219.9998Q20.925 220.51543 20.76875 221.54668L19.3625 221.29668Q19.628124 219.8748 20.534374 219.10918Q21.45625 218.32793 22.815624 218.32793Q23.753124 218.32793 24.534374 218.73418Q25.33125 219.1248 25.7375 219.82793Q26.159374 220.51543 26.159374 221.29668Q26.159374 222.04668 25.753124 222.65605Q25.3625 223.26543 24.58125 223.6248Q25.596874 223.85918 26.159374 224.59355Q26.721874 225.32793 26.721874 226.4373Q26.721874 227.9373 25.628124 228.98418Q24.534374 230.03105 22.8625 230.03105Q21.3625 230.03105 20.3625 229.14043Q19.3625 228.23418 19.221874 226.79668ZM32.721874 229.82793L32.721874 227.07793L27.753124 227.07793L27.753124 225.79668L32.9875 218.3748L34.128124 218.3748L34.128124 225.79668L35.675 225.79668L35.675 227.07793L34.128124 227.07793L34.128124 229.82793L32.721874 229.82793ZM32.721874 225.79668L32.721874 220.6248L29.14375 225.79668L32.721874 225.79668ZM38.003124 229.82793L38.003124 228.21855L39.6125 228.21855L39.6125 229.82793L38.003124 229.82793ZM43.378124 223.60918Q42.503124 223.29668 42.08125 222.70293Q41.659374 222.10918 41.659374 221.28105Q41.659374 220.03105 42.55 219.1873Q43.45625 218.32793 44.95625 218.32793Q46.45625 218.32793 47.3625 219.20293Q48.284374 220.0623 48.284374 221.3123Q48.284374 222.10918 47.8625 222.70293Q47.440624 223.29668 46.596874 223.60918Q47.64375 223.95293 48.190624 224.71855Q48.753124 225.48418 48.753124 226.54668Q48.753124 228.01543 47.70625 229.03105Q46.675 230.03105 44.971874 230.03105Q43.284374 230.03105 42.2375 229.03105Q41.20625 228.01543 41.20625 226.51543Q41.20625 225.39043 41.76875 224.64043Q42.33125 223.89043 43.378124 223.60918ZM43.096874 221.23418Q43.096874 222.04668 43.6125 222.5623Q44.14375 223.07793 44.9875 223.07793Q45.8 223.07793 46.315624 222.5623Q46.83125 222.04668 46.83125 221.3123Q46.83125 220.53105 46.3 220.01543Q45.76875 219.48418 44.971874 219.48418Q44.159374 219.48418 43.628124 219.9998Q43.096874 220.51543 43.096874 221.23418ZM42.64375 226.51543Q42.64375 227.1248 42.925 227.6873Q43.221874 228.2498 43.784374 228.5623Q44.346874 228.85918 44.9875 228.85918Q46.003124 228.85918 46.659374 228.21855Q47.315624 227.5623 47.315624 226.5623Q47.315624 225.54668 46.628124 224.89043Q45.95625 224.21855 44.940624 224.21855Q43.95625 224.21855 43.3 224.8748Q42.64375 225.53105 42.64375 226.51543ZM50.4875 221.1248Q50.4875 219.89043 51.096874 219.03105Q51.721874 218.17168 52.89375 218.17168Q53.971874 218.17168 54.675 218.95293Q55.378124 219.71855 55.378124 221.20293Q55.378124 222.65605 54.659374 223.45293Q53.95625 224.23418 52.909374 224.23418Q51.8625 224.23418 51.175 223.46855Q50.4875 222.6873 50.4875 221.1248ZM52.925 219.14043Q52.409374 219.14043 52.05 219.59355Q51.70625 220.04668 51.70625 221.26543Q51.70625 222.35918 52.05 222.8123Q52.409374 223.26543 52.925 223.26543Q53.45625 223.26543 53.8 222.8123Q54.159374 222.35918 54.159374 221.15605Q54.159374 220.04668 53.8 219.59355Q53.45625 219.14043 52.925 219.14043ZM52.940624 230.2498L59.20625 218.17168L60.346874 218.17168L54.096874 230.2498L52.940624 230.2498ZM57.89375 227.14043Q57.89375 225.90605 58.503124 225.04668Q59.128124 224.1873 60.3 224.1873Q61.378124 224.1873 62.08125 224.96855Q62.8 225.73418 62.8 227.21855Q62.8 228.67168 62.08125 229.46855Q61.3625 230.2498 60.315624 230.2498Q59.26875 230.2498 58.58125 229.46855Q57.89375 228.6873 57.89375 227.14043ZM60.346874 225.15605Q59.815624 225.15605 59.45625 225.60918Q59.1125 226.0623 59.1125 227.28105Q59.1125 228.3748 59.45625 228.82793Q59.815624 229.28105 60.33125 229.28105Q60.878124 229.28105 61.221874 228.82793Q61.565624 228.3748 61.565624 227.17168Q61.565624 226.0623 61.20625 225.60918Q60.8625 225.15605 60.346874 225.15605Z" fill-rule="nonzero"/><path stroke="#757575" stroke-width="1.0" stroke-linecap="butt" d="M18.55 213.32793L145.23334 213.32793L159.00113 213.32793" fill-rule="nonzero"/><path fill="#9e9e9e" d="M161.00113 213.32793C161.00113 212.22334 160.1057 211.32793 159.00113 211.32793C157.89656 211.32793 157.00113 212.22334 157.00113 213.32793C157.00113 214.4325 157.89656 215.32793 159.00113 215.32793C160.1057 215.32793 161.00113 214.4325 161.00113 213.32793" fill-rule="nonzero"/><path fill="#efefef" d="M495.85626 65.90104L497.3719 66.27604Q496.90314 68.15104 495.65314 69.135414Q494.41876 70.11979 492.6375 70.11979Q490.77814 70.11979 489.6219 69.36979Q488.46564 68.604164 487.85626 67.18229Q487.2469 65.74479 487.2469 64.104164Q487.2469 62.30729 487.9344 60.979164Q488.6219 59.65104 489.8719 58.96354Q491.1375 58.260414 492.65314 58.260414Q494.3719 58.260414 495.54376 59.135414Q496.71564 60.010414 497.1844 61.604164L495.6844 61.947914Q495.29376 60.697914 494.52814 60.135414Q493.77814 59.55729 492.6219 59.55729Q491.3094 59.55729 490.41876 60.197914Q489.52814 60.822914 489.16876 61.90104Q488.8094 62.96354 488.8094 64.08854Q488.8094 65.55729 489.23126 66.65104Q489.66876 67.729164 490.5594 68.27604Q491.46564 68.80729 492.5125 68.80729Q493.77814 68.80729 494.65314 68.072914Q495.54376 67.33854 495.85626 65.90104ZM504.95 69.916664L504.95 68.697914Q503.98126 70.104164 502.3094 70.104164Q501.575 70.104164 500.9344 69.822914Q500.3094 69.541664 499.9969 69.11979Q499.6844 68.68229 499.5594 68.072914Q499.48126 67.65104 499.48126 66.760414L499.48126 61.61979L500.8875 61.61979L500.8875 66.21354Q500.8875 67.322914 500.96564 67.697914Q501.10626 68.260414 501.52814 68.572914Q501.96564 68.885414 502.59064 68.885414Q503.23126 68.885414 503.77814 68.572914Q504.34064 68.24479 504.5594 67.68229Q504.79376 67.11979 504.79376 66.05729L504.79376 61.61979L506.2 61.61979L506.2 69.916664L504.95 69.916664ZM508.48126 69.916664L508.48126 58.46354L509.8875 58.46354L509.8875 69.916664L508.48126 69.916664ZM515.575 68.65104L515.77814 69.90104Q515.1844 70.02604 514.71564 70.02604Q513.95 70.02604 513.52814 69.791664Q513.10626 69.541664 512.9344 69.15104Q512.7625 68.74479 512.7625 67.479164L512.7625 62.71354L511.73126 62.71354L511.73126 61.61979L512.7625 61.61979L512.7625 59.55729L514.16876 58.71354L514.16876 61.61979L515.575 61.61979L515.575 62.71354L514.16876 62.71354L514.16876 67.55729Q514.16876 68.166664 514.23126 68.33854Q514.3094 68.510414 514.48126 68.61979Q514.65314 68.71354 514.96564 68.71354Q515.2 68.71354 515.575 68.65104ZM521.95 69.916664L521.95 68.697914Q520.98126 70.104164 519.3094 70.104164Q518.575 70.104164 517.9344 69.822914Q517.3094 69.541664 516.9969 69.11979Q516.6844 68.68229 516.5594 68.072914Q516.48126 67.65104 516.48126 66.760414L516.48126 61.61979L517.8875 61.61979L517.8875 66.21354Q517.8875 67.322914 517.96564 67.697914Q518.10626 68.260414 518.52814 68.572914Q518.96564 68.885414 519.59064 68.885414Q520.23126 68.885414 520.77814 68.572914Q521.34064 68.24479 521.5594 67.68229Q521.79376 67.11979 521.79376 66.05729L521.79376 61.61979L523.2 61.61979L523.2 69.916664L521.95 69.916664ZM525.4969 69.916664L525.4969 61.61979L526.7625 61.61979L526.7625 62.86979Q527.2469 61.99479 527.65314 61.71354Q528.0594 61.43229 528.5594 61.43229Q529.2625 61.43229 529.9969 61.885414L529.5125 63.18229Q528.9969 62.885414 528.48126 62.885414Q528.02814 62.885414 527.65314 63.166664Q527.29376 63.43229 527.1375 63.93229Q526.90314 64.68229 526.90314 65.572914L526.90314 69.916664L525.4969 69.916664ZM535.91876 68.885414Q535.1375 69.55729 534.41876 69.83854Q533.7 70.104164 532.8719 70.104164Q531.4969 70.104164 530.7625 69.43229Q530.02814 68.760414 530.02814 67.729164Q530.02814 67.11979 530.3094 66.61979Q530.59064 66.104164 531.02814 65.80729Q531.48126 65.49479 532.04376 65.33854Q532.46564 65.229164 533.29376 65.135414Q534.9969 64.93229 535.8094 64.65104Q535.8094 64.354164 535.8094 64.27604Q535.8094 63.416664 535.41876 63.072914Q534.8719 62.58854 533.8094 62.58854Q532.825 62.58854 532.34064 62.947914Q531.8719 63.291664 531.65314 64.166664L530.27814 63.979164Q530.46564 63.104164 530.8875 62.55729Q531.325 62.010414 532.1375 61.729164Q532.95 61.43229 534.0125 61.43229Q535.075 61.43229 535.73126 61.68229Q536.40314 61.93229 536.71564 62.30729Q537.02814 62.68229 537.15314 63.260414Q537.23126 63.61979 537.23126 64.55729L537.23126 66.43229Q537.23126 68.40104 537.3094 68.916664Q537.40314 69.43229 537.66876 69.916664L536.2 69.916664Q535.98126 69.479164 535.91876 68.885414ZM535.8094 65.74479Q535.04376 66.05729 533.5125 66.27604Q532.6375 66.40104 532.27814 66.55729Q531.91876 66.71354 531.71564 67.02604Q531.52814 67.322914 531.52814 67.68229Q531.52814 68.24479 531.95 68.61979Q532.3875 68.99479 533.2 68.99479Q534.0125 68.99479 534.6375 68.65104Q535.27814 68.291664 535.575 67.666664Q535.8094 67.197914 535.8094 66.260414L535.8094 65.74479ZM539.48126 69.916664L539.48126 58.46354L540.8875 58.46354L540.8875 69.916664L539.48126 69.916664ZM546.41876 69.916664L550.825 58.46354L552.46564 58.46354L557.15314 69.916664L555.41876 69.916664L554.09064 66.447914L549.29376 66.447914L548.04376 69.916664L546.41876 69.916664ZM549.73126 65.21354L553.6219 65.21354L552.41876 62.041664Q551.8719 60.58854 551.60626 59.666664Q551.3875 60.760414 550.9969 61.854164L549.73126 65.21354ZM563.91876 66.86979L565.3094 67.05729Q565.075 68.479164 564.1375 69.291664Q563.21564 70.104164 561.85626 70.104164Q560.15314 70.104164 559.10626 68.99479Q558.075 67.86979 558.075 65.791664Q558.075 64.447914 558.5125 63.447914Q558.96564 62.43229 559.8719 61.93229Q560.79376 61.43229 561.85626 61.43229Q563.21564 61.43229 564.075 62.11979Q564.9344 62.791664 565.16876 64.05729L563.8094 64.260414Q563.60626 63.43229 563.10626 63.010414Q562.6219 62.58854 561.91876 62.58854Q560.85626 62.58854 560.1844 63.354164Q559.52814 64.104164 559.52814 65.760414Q559.52814 67.43229 560.16876 68.197914Q560.8094 68.947914 561.84064 68.947914Q562.66876 68.947914 563.21564 68.447914Q563.77814 67.93229 563.91876 66.86979ZM569.575 68.65104L569.77814 69.90104Q569.1844 70.02604 568.71564 70.02604Q567.95 70.02604 567.52814 69.791664Q567.10626 69.541664 566.9344 69.15104Q566.7625 68.74479 566.7625 67.479164L566.7625 62.71354L565.73126 62.71354L565.73126 61.61979L566.7625 61.61979L566.7625 59.55729L568.16876 58.71354L568.16876 61.61979L569.575 61.61979L569.575 62.71354L568.16876 62.71354L568.16876 67.55729Q568.16876 68.166664 568.23126 68.33854Q568.3094 68.510414 568.48126 68.61979Q568.65314 68.71354 568.96564 68.71354Q569.2 68.71354 569.575 68.65104ZM569.95 67.43229L571.34064 67.21354Q571.45 68.05729 571.98126 68.510414Q572.52814 68.947914 573.48126 68.947914Q574.45 68.947914 574.91876 68.55729Q575.3875 68.15104 575.3875 67.61979Q575.3875 67.15104 574.98126 66.86979Q574.6844 66.68229 573.54376 66.40104Q571.9969 66.010414 571.3875 65.729164Q570.79376 65.43229 570.48126 64.93229Q570.1844 64.43229 570.1844 63.822914Q570.1844 63.260414 570.4344 62.791664Q570.6844 62.322914 571.1219 62.010414Q571.45 61.760414 572.0125 61.604164Q572.59064 61.43229 573.23126 61.43229Q574.21564 61.43229 574.95 61.71354Q575.6844 61.99479 576.02814 62.479164Q576.3875 62.947914 576.52814 63.760414L575.15314 63.947914Q575.0594 63.30729 574.60626 62.947914Q574.15314 62.58854 573.34064 62.58854Q572.3719 62.58854 571.95 62.916664Q571.54376 63.229164 571.54376 63.65104Q571.54376 63.93229 571.71564 64.15104Q571.8875 64.36979 572.2469 64.52604Q572.46564 64.604164 573.4969 64.885414Q574.98126 65.27604 575.575 65.541664Q576.16876 65.791664 576.4969 66.27604Q576.84064 66.760414 576.84064 67.479164Q576.84064 68.18229 576.41876 68.80729Q576.0125 69.416664 575.23126 69.760414Q574.46564 70.104164 573.4969 70.104164Q571.8719 70.104164 571.02814 69.43229Q570.1844 68.760414 569.95 67.43229ZM578.90314 69.916664L578.90314 68.30729L580.5125 68.30729L580.5125 69.916664L578.90314 69.916664Z" fill-rule="nonzero"/><path fill="#9e9e9e" d="M542.41876 91.916664L541.0125 91.916664L541.0125 82.947914Q540.4969 83.43229 539.66876 83.916664Q538.85626 84.40104 538.2 84.65104L538.2 83.291664Q539.3719 82.729164 540.2469 81.947914Q541.1375 81.15104 541.5125 80.416664L542.41876 80.416664L542.41876 91.916664ZM546.1219 88.885414L547.52814 88.697914Q547.77814 89.90104 548.35626 90.43229Q548.9344 90.947914 549.77814 90.947914Q550.7625 90.947914 551.45 90.260414Q552.1375 89.572914 552.1375 88.55729Q552.1375 87.58854 551.4969 86.96354Q550.8719 86.33854 549.8875 86.33854Q549.4969 86.33854 548.90314 86.49479L549.0594 85.260414Q549.2 85.27604 549.27814 85.27604Q550.1844 85.27604 550.90314 84.80729Q551.6219 84.33854 551.6219 83.354164Q551.6219 82.58854 551.09064 82.08854Q550.575 81.572914 549.7469 81.572914Q548.91876 81.572914 548.3719 82.08854Q547.825 82.604164 547.66876 83.635414L546.2625 83.385414Q546.52814 81.96354 547.4344 81.197914Q548.35626 80.416664 549.71564 80.416664Q550.65314 80.416664 551.4344 80.822914Q552.23126 81.21354 552.6375 81.916664Q553.0594 82.604164 553.0594 83.385414Q553.0594 84.135414 552.65314 84.74479Q552.2625 85.354164 551.48126 85.71354Q552.4969 85.947914 553.0594 86.68229Q553.6219 87.416664 553.6219 88.52604Q553.6219 90.02604 552.52814 91.072914Q551.4344 92.11979 549.7625 92.11979Q548.2625 92.11979 547.2625 91.229164Q546.2625 90.322914 546.1219 88.885414ZM555.90314 91.916664L555.90314 90.30729L557.5125 90.30729L557.5125 91.916664L555.90314 91.916664ZM559.1219 86.260414Q559.1219 84.229164 559.52814 82.99479Q559.95 81.760414 560.77814 81.08854Q561.60626 80.416664 562.85626 80.416664Q563.77814 80.416664 564.46564 80.791664Q565.16876 81.15104 565.6219 81.854164Q566.075 82.55729 566.325 83.55729Q566.59064 84.55729 566.59064 86.260414Q566.59064 88.27604 566.16876 89.52604Q565.7625 90.760414 564.9344 91.447914Q564.10626 92.11979 562.85626 92.11979Q561.2 92.11979 560.2469 90.916664Q559.1219 89.49479 559.1219 86.260414ZM560.5594 86.260414Q560.5594 89.08854 561.21564 90.02604Q561.8875 90.947914 562.85626 90.947914Q563.825 90.947914 564.48126 90.010414Q565.1375 89.072914 565.1375 86.260414Q565.1375 83.43229 564.48126 82.510414Q563.825 81.572914 562.84064 81.572914Q561.8719 81.572914 561.29376 82.40104Q560.5594 83.447914 560.5594 86.260414ZM568.3875 83.21354Q568.3875 81.979164 568.9969 81.11979Q569.6219 80.260414 570.79376 80.260414Q571.8719 80.260414 572.575 81.041664Q573.27814 81.80729 573.27814 83.291664Q573.27814 84.74479 572.5594 85.541664Q571.85626 86.322914 570.8094 86.322914Q569.7625 86.322914 569.075 85.55729Q568.3875 84.77604 568.3875 83.21354ZM570.825 81.229164Q570.3094 81.229164 569.95 81.68229Q569.60626 82.135414 569.60626 83.354164Q569.60626 84.447914 569.95 84.90104Q570.3094 85.354164 570.825 85.354164Q571.35626 85.354164 571.7 84.90104Q572.0594 84.447914 572.0594 83.24479Q572.0594 82.135414 571.7 81.68229Q571.35626 81.229164 570.825 81.229164ZM570.84064 92.33854L577.10626 80.260414L578.2469 80.260414L571.9969 92.33854L570.84064 92.33854ZM575.79376 89.229164Q575.79376 87.99479 576.40314 87.135414Q577.02814 86.27604 578.2 86.27604Q579.27814 86.27604 579.98126 87.05729Q580.7 87.822914 580.7 89.30729Q580.7 90.760414 579.98126 91.55729Q579.2625 92.33854 578.21564 92.33854Q577.16876 92.33854 576.48126 91.55729Q575.79376 90.77604 575.79376 89.229164ZM578.2469 87.24479Q577.71564 87.24479 577.35626 87.697914Q577.0125 88.15104 577.0125 89.36979Q577.0125 90.46354 577.35626 90.916664Q577.71564 91.36979 578.23126 91.36979Q578.77814 91.36979 579.1219 90.916664Q579.46564 90.46354 579.46564 89.260414Q579.46564 88.15104 579.10626 87.697914Q578.7625 87.24479 578.2469 87.24479Z" fill-rule="nonzero"/><path stroke="#757575" stroke-width="1.0" stroke-linecap="butt" d="M581.45 75.416664L454.76666 75.416664L356.30536 74.05539" fill-rule="nonzero"/><path fill="#9e9e9e" d="M358.30536 74.05539C358.30536 72.95082 357.40994 72.05539 356.30536 72.05539C355.2008 72.05539 354.30536 72.95082 354.30536 74.05539C354.30536 75.15996 355.2008 76.05539 356.30536 76.05539C357.40994 76.05539 358.30536 75.15996 358.30536 74.05539" fill-rule="nonzero"/><path fill="#efefef" d="M514.71564 113.26871L514.71564 101.81558L519.79376 101.81558Q521.325 101.81558 522.1219 102.12808Q522.91876 102.42496 523.3875 103.20621Q523.8719 103.98746 523.8719 104.94058Q523.8719 106.15933 523.075 107.00308Q522.29376 107.83121 520.6375 108.04996Q521.2469 108.34683 521.5594 108.62808Q522.21564 109.23746 522.8094 110.14371L524.8094 113.26871L522.90314 113.26871L521.3875 110.87808Q520.71564 109.84683 520.27814 109.29996Q519.85626 108.75308 519.5125 108.53433Q519.1844 108.31558 518.825 108.23746Q518.575 108.17496 517.98126 108.17496L516.23126 108.17496L516.23126 113.26871L514.71564 113.26871ZM516.23126 106.86246L519.48126 106.86246Q520.52814 106.86246 521.10626 106.65933Q521.7 106.44058 521.9969 105.97183Q522.3094 105.48746 522.3094 104.94058Q522.3094 104.12808 521.71564 103.61246Q521.1219 103.08121 519.85626 103.08121L516.23126 103.08121L516.23126 106.86246ZM532.1844 110.59683L533.6375 110.76871Q533.29376 112.04996 532.35626 112.75308Q531.4344 113.45621 529.9969 113.45621Q528.16876 113.45621 527.10626 112.33121Q526.04376 111.20621 526.04376 109.19058Q526.04376 107.09683 527.1219 105.94058Q528.2 104.78433 529.91876 104.78433Q531.575 104.78433 532.6219 105.92496Q533.6844 107.04996 533.6844 109.09683Q533.6844 109.22183 533.6844 109.47183L527.4969 109.47183Q527.575 110.84683 528.2625 111.58121Q528.96564 112.29996 529.9969 112.29996Q530.77814 112.29996 531.325 111.89371Q531.8719 111.48746 532.1844 110.59683ZM527.575 108.31558L532.2 108.31558Q532.10626 107.26871 531.66876 106.75308Q530.9969 105.94058 529.9344 105.94058Q528.96564 105.94058 528.29376 106.59683Q527.6375 107.23746 527.575 108.31558ZM535.48126 113.26871L535.48126 101.81558L536.8875 101.81558L536.8875 113.26871L535.48126 113.26871ZM539.5125 103.42496L539.5125 101.81558L540.91876 101.81558L540.91876 103.42496L539.5125 103.42496ZM539.5125 113.26871L539.5125 104.97183L540.91876 104.97183L540.91876 113.26871L539.5125 113.26871ZM543.2469 113.95621L544.6219 114.15933Q544.7 114.79996 545.09064 115.08121Q545.6219 115.47183 546.52814 115.47183Q547.4969 115.47183 548.02814 115.08121Q548.5594 114.69058 548.7469 113.98746Q548.85626 113.56558 548.85626 112.17496Q547.9344 113.26871 546.5594 113.26871Q544.84064 113.26871 543.90314 112.03433Q542.96564 110.79996 542.96564 109.06558Q542.96564 107.87808 543.3875 106.87808Q543.825 105.87808 544.6375 105.33121Q545.46564 104.78433 546.5594 104.78433Q548.02814 104.78433 548.98126 105.97183L548.98126 104.97183L550.27814 104.97183L550.27814 112.14371Q550.27814 114.08121 549.8875 114.89371Q549.4969 115.70621 548.6375 116.17496Q547.77814 116.64371 546.52814 116.64371Q545.04376 116.64371 544.1219 115.97183Q543.21564 115.29996 543.2469 113.95621ZM544.41876 108.97183Q544.41876 110.59683 545.0594 111.34683Q545.71564 112.09683 546.6844 112.09683Q547.65314 112.09683 548.3094 111.36246Q548.96564 110.61246 548.96564 109.01871Q548.96564 107.48746 548.29376 106.72183Q547.6219 105.94058 546.66876 105.94058Q545.73126 105.94058 545.075 106.70621Q544.41876 107.47183 544.41876 108.97183ZM552.5125 103.42496L552.5125 101.81558L553.91876 101.81558L553.91876 103.42496L552.5125 103.42496ZM552.5125 113.26871L552.5125 104.97183L553.91876 104.97183L553.91876 113.26871L552.5125 113.26871ZM555.98126 109.11246Q555.98126 106.81558 557.2625 105.70621Q558.34064 104.78433 559.8719 104.78433Q561.59064 104.78433 562.66876 105.90933Q563.7625 107.01871 563.7625 109.00308Q563.7625 110.59683 563.27814 111.51871Q562.79376 112.44058 561.8719 112.95621Q560.96564 113.45621 559.8719 113.45621Q558.1375 113.45621 557.0594 112.34683Q555.98126 111.22183 555.98126 109.11246ZM557.4344 109.11246Q557.4344 110.70621 558.1219 111.50308Q558.825 112.29996 559.8719 112.29996Q560.91876 112.29996 561.60626 111.50308Q562.3094 110.70621 562.3094 109.06558Q562.3094 107.53433 561.60626 106.73746Q560.91876 105.94058 559.8719 105.94058Q558.825 105.94058 558.1219 106.73746Q557.4344 107.51871 557.4344 109.11246ZM570.95 113.26871L570.95 112.04996Q569.98126 113.45621 568.3094 113.45621Q567.575 113.45621 566.9344 113.17496Q566.3094 112.89371 565.9969 112.47183Q565.6844 112.03433 565.5594 111.42496Q565.48126 111.00308 565.48126 110.11246L565.48126 104.97183L566.8875 104.97183L566.8875 109.56558Q566.8875 110.67496 566.96564 111.04996Q567.10626 111.61246 567.52814 111.92496Q567.96564 112.23746 568.59064 112.23746Q569.23126 112.23746 569.77814 111.92496Q570.34064 111.59683 570.5594 111.03433Q570.79376 110.47183 570.79376 109.40933L570.79376 104.97183L572.2 104.97183L572.2 113.26871L570.95 113.26871ZM573.95 110.78433L575.34064 110.56558Q575.45 111.40933 575.98126 111.86246Q576.52814 112.29996 577.48126 112.29996Q578.45 112.29996 578.91876 111.90933Q579.3875 111.50308 579.3875 110.97183Q579.3875 110.50308 578.98126 110.22183Q578.6844 110.03433 577.54376 109.75308Q575.9969 109.36246 575.3875 109.08121Q574.79376 108.78433 574.48126 108.28433Q574.1844 107.78433 574.1844 107.17496Q574.1844 106.61246 574.4344 106.14371Q574.6844 105.67496 575.1219 105.36246Q575.45 105.11246 576.0125 104.95621Q576.59064 104.78433 577.23126 104.78433Q578.21564 104.78433 578.95 105.06558Q579.6844 105.34683 580.02814 105.83121Q580.3875 106.29996 580.52814 107.11246L579.15314 107.29996Q579.0594 106.65933 578.60626 106.29996Q578.15314 105.94058 577.34064 105.94058Q576.3719 105.94058 575.95 106.26871Q575.54376 106.58121 575.54376 107.00308Q575.54376 107.28433 575.71564 107.50308Q575.8875 107.72183 576.2469 107.87808Q576.46564 107.95621 577.4969 108.23746Q578.98126 108.62808 579.575 108.89371Q580.16876 109.14371 580.4969 109.62808Q580.84064 110.11246 580.84064 110.83121Q580.84064 111.53433 580.41876 112.15933Q580.0125 112.76871 579.23126 113.11246Q578.46564 113.45621 577.4969 113.45621Q575.8719 113.45621 575.02814 112.78433Q574.1844 112.11246 573.95 110.78433Z" fill-rule="nonzero"/><path fill="#9e9e9e" d="M550.6219 135.2687L550.6219 132.5187L545.65314 132.5187L545.65314 131.23746L550.8875 123.81558L552.02814 123.81558L552.02814 131.23746L553.575 131.23746L553.575 132.5187L552.02814 132.5187L552.02814 135.2687L550.6219 135.2687ZM550.6219 131.23746L550.6219 126.06558L547.04376 131.23746L550.6219 131.23746ZM555.90314 135.2687L555.90314 133.65933L557.5125 133.65933L557.5125 135.2687L555.90314 135.2687ZM559.1219 132.23746L560.52814 132.04996Q560.77814 133.25308 561.35626 133.78433Q561.9344 134.29996 562.77814 134.29996Q563.7625 134.29996 564.45 133.61246Q565.1375 132.92496 565.1375 131.90933Q565.1375 130.94058 564.4969 130.31558Q563.8719 129.69058 562.8875 129.69058Q562.4969 129.69058 561.90314 129.84683L562.0594 128.61246Q562.2 128.62808 562.27814 128.62808Q563.1844 128.62808 563.90314 128.15933Q564.6219 127.69058 564.6219 126.70621Q564.6219 125.94058 564.09064 125.44058Q563.575 124.92496 562.7469 124.92496Q561.91876 124.92496 561.3719 125.44058Q560.825 125.95621 560.66876 126.98746L559.2625 126.73746Q559.52814 125.31558 560.4344 124.54996Q561.35626 123.76871 562.71564 123.76871Q563.65314 123.76871 564.4344 124.17496Q565.23126 124.56558 565.6375 125.26871Q566.0594 125.95621 566.0594 126.73746Q566.0594 127.48746 565.65314 128.09683Q565.2625 128.7062 564.48126 129.06558Q565.4969 129.29996 566.0594 130.03433Q566.6219 130.7687 566.6219 131.87808Q566.6219 133.37808 565.52814 134.42496Q564.4344 135.47183 562.7625 135.47183Q561.2625 135.47183 560.2625 134.5812Q559.2625 133.67496 559.1219 132.23746ZM568.3875 126.56558Q568.3875 125.33121 568.9969 124.47183Q569.6219 123.61246 570.79376 123.61246Q571.8719 123.61246 572.575 124.39371Q573.27814 125.15933 573.27814 126.64371Q573.27814 128.09683 572.5594 128.8937Q571.85626 129.67496 570.8094 129.67496Q569.7625 129.67496 569.075 128.90933Q568.3875 128.12808 568.3875 126.56558ZM570.825 124.58121Q570.3094 124.58121 569.95 125.03433Q569.60626 125.48746 569.60626 126.70621Q569.60626 127.79996 569.95 128.25308Q570.3094 128.7062 570.825 128.7062Q571.35626 128.7062 571.7 128.25308Q572.0594 127.79996 572.0594 126.59683Q572.0594 125.48746 571.7 125.03433Q571.35626 124.58121 570.825 124.58121ZM570.84064 135.69058L577.10626 123.61246L578.2469 123.61246L571.9969 135.69058L570.84064 135.69058ZM575.79376 132.5812Q575.79376 131.34683 576.40314 130.48746Q577.02814 129.62808 578.2 129.62808Q579.27814 129.62808 579.98126 130.40933Q580.7 131.17496 580.7 132.65933Q580.7 134.11246 579.98126 134.90933Q579.2625 135.69058 578.21564 135.69058Q577.16876 135.69058 576.48126 134.90933Q575.79376 134.12808 575.79376 132.5812ZM578.2469 130.59683Q577.71564 130.59683 577.35626 131.04996Q577.0125 131.50308 577.0125 132.72183Q577.0125 133.81558 577.35626 134.2687Q577.71564 134.72183 578.23126 134.72183Q578.77814 134.72183 579.1219 134.2687Q579.46564 133.81558 579.46564 132.61246Q579.46564 131.50308 579.10626 131.04996Q578.7625 130.59683 578.2469 130.59683Z" fill-rule="nonzero"/><path stroke="#757575" stroke-width="1.0" stroke-linecap="butt" d="M581.45 118.76871L454.76666 118.76871L415.461 122.18207" fill-rule="nonzero"/><path fill="#9e9e9e" d="M417.461 122.18207C417.461 121.07749 416.56555 120.18207 415.461 120.18207C414.3564 120.18207 413.461 121.07749 413.461 122.18207C413.461 123.28664 414.3564 124.18207 415.461 124.18207C416.56555 124.18207 417.461 123.28664 417.461 122.18207" fill-rule="nonzero"/><path fill="#efefef" d="M456.71564 154.2687L456.71564 142.81558L464.9969 142.81558L464.9969 144.15933L458.23126 144.15933L458.23126 147.67496L464.575 147.67496L464.575 149.0187L458.23126 149.0187L458.23126 152.90933L465.2625 152.90933L465.2625 154.2687L456.71564 154.2687ZM472.91876 151.22183L474.3094 151.40933Q474.075 152.8312 473.1375 153.6437Q472.21564 154.4562 470.85626 154.4562Q469.15314 154.4562 468.10626 153.34683Q467.075 152.22183 467.075 150.1437Q467.075 148.79996 467.5125 147.79996Q467.96564 146.78433 468.8719 146.28433Q469.79376 145.78433 470.85626 145.78433Q472.21564 145.78433 473.075 146.47183Q473.9344 147.1437 474.16876 148.40933L472.8094 148.61246Q472.60626 147.78433 472.10626 147.36246Q471.6219 146.94058 470.91876 146.94058Q469.85626 146.94058 469.1844 147.7062Q468.52814 148.4562 468.52814 150.11246Q468.52814 151.78433 469.16876 152.54996Q469.8094 153.29996 470.84064 153.29996Q471.66876 153.29996 472.21564 152.79996Q472.77814 152.28433 472.91876 151.22183ZM474.98126 150.11246Q474.98126 147.81558 476.2625 146.7062Q477.34064 145.78433 478.8719 145.78433Q480.59064 145.78433 481.66876 146.90933Q482.7625 148.0187 482.7625 150.00308Q482.7625 151.59683 482.27814 152.5187Q481.79376 153.44058 480.8719 153.9562Q479.96564 154.4562 478.8719 154.4562Q477.1375 154.4562 476.0594 153.34683Q474.98126 152.22183 474.98126 150.11246ZM476.4344 150.11246Q476.4344 151.7062 477.1219 152.50308Q477.825 153.29996 478.8719 153.29996Q479.91876 153.29996 480.60626 152.50308Q481.3094 151.7062 481.3094 150.06558Q481.3094 148.53433 480.60626 147.73746Q479.91876 146.94058 478.8719 146.94058Q477.825 146.94058 477.1219 147.73746Q476.4344 148.5187 476.4344 150.11246ZM484.5125 154.2687L484.5125 145.97183L485.77814 145.97183L485.77814 147.1437Q486.6844 145.78433 488.41876 145.78433Q489.16876 145.78433 489.79376 146.04996Q490.41876 146.31558 490.73126 146.75308Q491.04376 147.19058 491.16876 147.79996Q491.2469 148.19058 491.2469 149.15933L491.2469 154.2687L489.84064 154.2687L489.84064 149.22183Q489.84064 148.36246 489.66876 147.94058Q489.5125 147.50308 489.09064 147.25308Q488.6844 147.00308 488.1219 147.00308Q487.21564 147.00308 486.5594 147.5812Q485.91876 148.1437 485.91876 149.73746L485.91876 154.2687L484.5125 154.2687ZM492.98126 150.11246Q492.98126 147.81558 494.2625 146.7062Q495.34064 145.78433 496.8719 145.78433Q498.59064 145.78433 499.66876 146.90933Q500.7625 148.0187 500.7625 150.00308Q500.7625 151.59683 500.27814 152.5187Q499.79376 153.44058 498.8719 153.9562Q497.96564 154.4562 496.8719 154.4562Q495.1375 154.4562 494.0594 153.34683Q492.98126 152.22183 492.98126 150.11246ZM494.4344 150.11246Q494.4344 151.7062 495.1219 152.50308Q495.825 153.29996 496.8719 153.29996Q497.91876 153.29996 498.60626 152.50308Q499.3094 151.7062 499.3094 150.06558Q499.3094 148.53433 498.60626 147.73746Q497.91876 146.94058 496.8719 146.94058Q495.825 146.94058 495.1219 147.73746Q494.4344 148.5187 494.4344 150.11246ZM502.5125 154.2687L502.5125 145.97183L503.7625 145.97183L503.7625 147.12808Q504.15314 146.5187 504.79376 146.15933Q505.45 145.78433 506.27814 145.78433Q507.2 145.78433 507.79376 146.17496Q508.3875 146.54996 508.6219 147.23746Q509.60626 145.78433 511.1844 145.78433Q512.41876 145.78433 513.075 146.47183Q513.7469 147.1437 513.7469 148.56558L513.7469 154.2687L512.35626 154.2687L512.35626 149.03433Q512.35626 148.19058 512.21564 147.8312Q512.075 147.4562 511.71564 147.23746Q511.35626 147.00308 510.8719 147.00308Q509.9969 147.00308 509.41876 147.5812Q508.84064 148.15933 508.84064 149.44058L508.84064 154.2687L507.4344 154.2687L507.4344 148.87808Q507.4344 147.94058 507.09064 147.47183Q506.7469 147.00308 505.96564 147.00308Q505.3719 147.00308 504.8719 147.31558Q504.3719 147.62808 504.1375 148.23746Q503.91876 148.8312 503.91876 149.9562L503.91876 154.2687L502.5125 154.2687ZM515.5125 144.42496L515.5125 142.81558L516.91876 142.81558L516.91876 144.42496L515.5125 144.42496ZM515.5125 154.2687L515.5125 145.97183L516.91876 145.97183L516.91876 154.2687L515.5125 154.2687ZM524.91876 151.22183L526.3094 151.40933Q526.075 152.8312 525.1375 153.6437Q524.21564 154.4562 522.85626 154.4562Q521.15314 154.4562 520.10626 153.34683Q519.075 152.22183 519.075 150.1437Q519.075 148.79996 519.5125 147.79996Q519.96564 146.78433 520.8719 146.28433Q521.79376 145.78433 522.85626 145.78433Q524.21564 145.78433 525.075 146.47183Q525.9344 147.1437 526.16876 148.40933L524.8094 148.61246Q524.60626 147.78433 524.10626 147.36246Q523.6219 146.94058 522.91876 146.94058Q521.85626 146.94058 521.1844 147.7062Q520.52814 148.4562 520.52814 150.11246Q520.52814 151.78433 521.16876 152.54996Q521.8094 153.29996 522.84064 153.29996Q523.66876 153.29996 524.21564 152.79996Q524.77814 152.28433 524.91876 151.22183ZM530.41876 154.2687L534.825 142.81558L536.46564 142.81558L541.15314 154.2687L539.41876 154.2687L538.09064 150.79996L533.29376 150.79996L532.04376 154.2687L530.41876 154.2687ZM533.73126 149.56558L537.6219 149.56558L536.41876 146.3937Q535.8719 144.94058 535.60626 144.0187Q535.3875 145.11246 534.9969 146.2062L533.73126 149.56558ZM547.91876 151.22183L549.3094 151.40933Q549.075 152.8312 548.1375 153.6437Q547.21564 154.4562 545.85626 154.4562Q544.15314 154.4562 543.10626 153.34683Q542.075 152.22183 542.075 150.1437Q542.075 148.79996 542.5125 147.79996Q542.96564 146.78433 543.8719 146.28433Q544.79376 145.78433 545.85626 145.78433Q547.21564 145.78433 548.075 146.47183Q548.9344 147.1437 549.16876 148.40933L547.8094 148.61246Q547.60626 147.78433 547.10626 147.36246Q546.6219 146.94058 545.91876 146.94058Q544.85626 146.94058 544.1844 147.7062Q543.52814 148.4562 543.52814 150.11246Q543.52814 151.78433 544.16876 152.54996Q544.8094 153.29996 545.84064 153.29996Q546.66876 153.29996 547.21564 152.79996Q547.77814 152.28433 547.91876 151.22183ZM553.575 153.00308L553.77814 154.25308Q553.1844 154.37808 552.71564 154.37808Q551.95 154.37808 551.52814 154.1437Q551.10626 153.8937 550.9344 153.50308Q550.7625 153.09683 550.7625 151.8312L550.7625 147.06558L549.73126 147.06558L549.73126 145.97183L550.7625 145.97183L550.7625 143.90933L552.16876 143.06558L552.16876 145.97183L553.575 145.97183L553.575 147.06558L552.16876 147.06558L552.16876 151.90933Q552.16876 152.5187 552.23126 152.69058Q552.3094 152.86246 552.48126 152.97183Q552.65314 153.06558 552.96564 153.06558Q553.2 153.06558 553.575 153.00308ZM554.5125 144.42496L554.5125 142.81558L555.91876 142.81558L555.91876 144.42496L554.5125 144.42496ZM554.5125 154.2687L554.5125 145.97183L555.91876 145.97183L555.91876 154.2687L554.5125 154.2687ZM560.8094 154.2687L557.65314 145.97183L559.1375 145.97183L560.91876 150.94058Q561.21564 151.73746 561.45 152.61246Q561.6375 151.9562 561.98126 151.03433L563.825 145.97183L565.2625 145.97183L562.1219 154.2687L560.8094 154.2687ZM566.5125 144.42496L566.5125 142.81558L567.91876 142.81558L567.91876 144.42496L566.5125 144.42496ZM566.5125 154.2687L566.5125 145.97183L567.91876 145.97183L567.91876 154.2687L566.5125 154.2687ZM573.575 153.00308L573.77814 154.25308Q573.1844 154.37808 572.71564 154.37808Q571.95 154.37808 571.52814 154.1437Q571.10626 153.8937 570.9344 153.50308Q570.7625 153.09683 570.7625 151.8312L570.7625 147.06558L569.73126 147.06558L569.73126 145.97183L570.7625 145.97183L570.7625 143.90933L572.16876 143.06558L572.16876 145.97183L573.575 145.97183L573.575 147.06558L572.16876 147.06558L572.16876 151.90933Q572.16876 152.5187 572.23126 152.69058Q572.3094 152.86246 572.48126 152.97183Q572.65314 153.06558 572.96564 153.06558Q573.2 153.06558 573.575 153.00308ZM574.45 157.47183L574.29376 156.1437Q574.7469 156.2687 575.09064 156.2687Q575.5594 156.2687 575.84064 156.11246Q576.1219 155.9562 576.3094 155.67496Q576.4344 155.47183 576.73126 154.62808Q576.77814 154.5187 576.85626 154.28433L573.71564 145.97183L575.23126 145.97183L576.95 150.7687Q577.29376 151.69058 577.5594 152.69058Q577.79376 151.72183 578.1375 150.79996L579.90314 145.97183L581.3094 145.97183L578.15314 154.40933Q577.65314 155.78433 577.3719 156.29996Q576.9969 156.98746 576.5125 157.31558Q576.02814 157.6437 575.35626 157.6437Q574.95 157.6437 574.45 157.47183Z" fill-rule="nonzero"/><path fill="#9e9e9e" d="M550.6219 176.2687L550.6219 173.5187L545.65314 173.5187L545.65314 172.23746L550.8875 164.81558L552.02814 164.81558L552.02814 172.23746L553.575 172.23746L553.575 173.5187L552.02814 173.5187L552.02814 176.2687L550.6219 176.2687ZM550.6219 172.23746L550.6219 167.06558L547.04376 172.23746L550.6219 172.23746ZM555.90314 176.2687L555.90314 174.65933L557.5125 174.65933L557.5125 176.2687L555.90314 176.2687ZM559.1219 173.23746L560.52814 173.04996Q560.77814 174.25308 561.35626 174.78433Q561.9344 175.29996 562.77814 175.29996Q563.7625 175.29996 564.45 174.61246Q565.1375 173.92496 565.1375 172.90933Q565.1375 171.94058 564.4969 171.31558Q563.8719 170.69058 562.8875 170.69058Q562.4969 170.69058 561.90314 170.84683L562.0594 169.61246Q562.2 169.62808 562.27814 169.62808Q563.1844 169.62808 563.90314 169.15933Q564.6219 168.69058 564.6219 167.7062Q564.6219 166.94058 564.09064 166.44058Q563.575 165.92496 562.7469 165.92496Q561.91876 165.92496 561.3719 166.44058Q560.825 166.9562 560.66876 167.98746L559.2625 167.73746Q559.52814 166.31558 560.4344 165.54996Q561.35626 164.7687 562.71564 164.7687Q563.65314 164.7687 564.4344 165.17496Q565.23126 165.56558 565.6375 166.2687Q566.0594 166.9562 566.0594 167.73746Q566.0594 168.48746 565.65314 169.09683Q565.2625 169.7062 564.48126 170.06558Q565.4969 170.29996 566.0594 171.03433Q566.6219 171.7687 566.6219 172.87808Q566.6219 174.37808 565.52814 175.42496Q564.4344 176.47183 562.7625 176.47183Q561.2625 176.47183 560.2625 175.5812Q559.2625 174.67496 559.1219 173.23746ZM568.3875 167.56558Q568.3875 166.3312 568.9969 165.47183Q569.6219 164.61246 570.79376 164.61246Q571.8719 164.61246 572.575 165.3937Q573.27814 166.15933 573.27814 167.6437Q573.27814 169.09683 572.5594 169.8937Q571.85626 170.67496 570.8094 170.67496Q569.7625 170.67496 569.075 169.90933Q568.3875 169.12808 568.3875 167.56558ZM570.825 165.5812Q570.3094 165.5812 569.95 166.03433Q569.60626 166.48746 569.60626 167.7062Q569.60626 168.79996 569.95 169.25308Q570.3094 169.7062 570.825 169.7062Q571.35626 169.7062 571.7 169.25308Q572.0594 168.79996 572.0594 167.59683Q572.0594 166.48746 571.7 166.03433Q571.35626 165.5812 570.825 165.5812ZM570.84064 176.69058L577.10626 164.61246L578.2469 164.61246L571.9969 176.69058L570.84064 176.69058ZM575.79376 173.5812Q575.79376 172.34683 576.40314 171.48746Q577.02814 170.62808 578.2 170.62808Q579.27814 170.62808 579.98126 171.40933Q580.7 172.17496 580.7 173.65933Q580.7 175.11246 579.98126 175.90933Q579.2625 176.69058 578.21564 176.69058Q577.16876 176.69058 576.48126 175.90933Q575.79376 175.12808 575.79376 173.5812ZM578.2469 171.59683Q577.71564 171.59683 577.35626 172.04996Q577.0125 172.50308 577.0125 173.72183Q577.0125 174.81558 577.35626 175.2687Q577.71564 175.72183 578.23126 175.72183Q578.77814 175.72183 579.1219 175.2687Q579.46564 174.81558 579.46564 173.61246Q579.46564 172.50308 579.10626 172.04996Q578.7625 171.59683 578.2469 171.59683Z" fill-rule="nonzero"/><path stroke="#757575" stroke-width="1.0" stroke-linecap="butt" d="M581.45 159.7687L454.76666 159.7687L433.16815 156.35536" fill-rule="nonzero"/><path fill="#9e9e9e" d="M435.16815 156.35536C435.16815 155.2508 434.27274 154.35536 433.16815 154.35536C432.0636 154.35536 431.16815 155.2508 431.16815 156.35536C431.16815 157.45993 432.0636 158.35536 433.16815 158.35536C434.27274 158.35536 435.16815 157.45993 435.16815 156.35536" fill-rule="nonzero"/><path fill="#efefef" d="M481.41876 307.81332L485.825 296.3602L487.46564 296.3602L492.15314 307.81332L490.41876 307.81332L489.09064 304.34457L484.29376 304.34457L483.04376 307.81332L481.41876 307.81332ZM484.73126 303.1102L488.6219 303.1102L487.41876 299.93832Q486.8719 298.4852 486.60626 297.56332Q486.3875 298.65707 485.9969 299.75082L484.73126 303.1102ZM493.4969 307.81332L493.4969 299.51645L494.7625 299.51645L494.7625 300.76645Q495.2469 299.89145 495.65314 299.6102Q496.0594 299.32895 496.5594 299.32895Q497.2625 299.32895 497.9969 299.78207L497.5125 301.07895Q496.9969 300.78207 496.48126 300.78207Q496.02814 300.78207 495.65314 301.06332Q495.29376 301.32895 495.1375 301.82895Q494.90314 302.57895 494.90314 303.46957L494.90314 307.81332L493.4969 307.81332ZM503.91876 304.76645L505.3094 304.95395Q505.075 306.37582 504.1375 307.18832Q503.21564 308.00082 501.85626 308.00082Q500.15314 308.00082 499.10626 306.89145Q498.075 305.76645 498.075 303.68832Q498.075 302.34457 498.5125 301.34457Q498.96564 300.32895 499.8719 299.82895Q500.79376 299.32895 501.85626 299.32895Q503.21564 299.32895 504.075 300.01645Q504.9344 300.68832 505.16876 301.95395L503.8094 302.15707Q503.60626 301.32895 503.10626 300.90707Q502.6219 300.4852 501.91876 300.4852Q500.85626 300.4852 500.1844 301.25082Q499.52814 302.00082 499.52814 303.65707Q499.52814 305.32895 500.16876 306.09457Q500.8094 306.84457 501.84064 306.84457Q502.66876 306.84457 503.21564 306.34457Q503.77814 305.82895 503.91876 304.76645ZM506.5125 307.81332L506.5125 296.3602L507.91876 296.3602L507.91876 300.46957Q508.90314 299.32895 510.40314 299.32895Q511.325 299.32895 511.9969 299.68832Q512.6844 300.0477 512.96564 300.68832Q513.2625 301.32895 513.2625 302.5477L513.2625 307.81332L511.85626 307.81332L511.85626 302.5477Q511.85626 301.50082 511.40314 301.01645Q510.95 300.53207 510.10626 300.53207Q509.48126 300.53207 508.9344 300.8602Q508.3875 301.18832 508.15314 301.75082Q507.91876 302.2977 507.91876 303.26645L507.91876 307.81332L506.5125 307.81332ZM515.5125 297.96957L515.5125 296.3602L516.91876 296.3602L516.91876 297.96957L515.5125 297.96957ZM515.5125 307.81332L515.5125 299.51645L516.91876 299.51645L516.91876 307.81332L515.5125 307.81332ZM522.575 306.5477L522.77814 307.7977Q522.1844 307.9227 521.71564 307.9227Q520.95 307.9227 520.52814 307.68832Q520.10626 307.43832 519.9344 307.0477Q519.7625 306.64145 519.7625 305.37582L519.7625 300.6102L518.73126 300.6102L518.73126 299.51645L519.7625 299.51645L519.7625 297.45395L521.16876 296.6102L521.16876 299.51645L522.575 299.51645L522.575 300.6102L521.16876 300.6102L521.16876 305.45395Q521.16876 306.06332 521.23126 306.2352Q521.3094 306.40707 521.48126 306.51645Q521.65314 306.6102 521.96564 306.6102Q522.2 306.6102 522.575 306.5477ZM529.1844 305.14145L530.6375 305.31332Q530.29376 306.59457 529.35626 307.2977Q528.4344 308.00082 526.9969 308.00082Q525.16876 308.00082 524.10626 306.87582Q523.04376 305.75082 523.04376 303.7352Q523.04376 301.64145 524.1219 300.4852Q525.2 299.32895 526.91876 299.32895Q528.575 299.32895 529.6219 300.46957Q530.6844 301.59457 530.6844 303.64145Q530.6844 303.76645 530.6844 304.01645L524.4969 304.01645Q524.575 305.39145 525.2625 306.12582Q525.96564 306.84457 526.9969 306.84457Q527.77814 306.84457 528.325 306.43832Q528.8719 306.03207 529.1844 305.14145ZM524.575 302.8602L529.2 302.8602Q529.10626 301.81332 528.66876 301.2977Q527.9969 300.4852 526.9344 300.4852Q525.96564 300.4852 525.29376 301.14145Q524.6375 301.78207 524.575 302.8602ZM537.91876 304.76645L539.3094 304.95395Q539.075 306.37582 538.1375 307.18832Q537.21564 308.00082 535.85626 308.00082Q534.15314 308.00082 533.10626 306.89145Q532.075 305.76645 532.075 303.68832Q532.075 302.34457 532.5125 301.34457Q532.96564 300.32895 533.8719 299.82895Q534.79376 299.32895 535.85626 299.32895Q537.21564 299.32895 538.075 300.01645Q538.9344 300.68832 539.16876 301.95395L537.8094 302.15707Q537.60626 301.32895 537.10626 300.90707Q536.6219 300.4852 535.91876 300.4852Q534.85626 300.4852 534.1844 301.25082Q533.52814 302.00082 533.52814 303.65707Q533.52814 305.32895 534.16876 306.09457Q534.8094 306.84457 535.84064 306.84457Q536.66876 306.84457 537.21564 306.34457Q537.77814 305.82895 537.91876 304.76645ZM543.575 306.5477L543.77814 307.7977Q543.1844 307.9227 542.71564 307.9227Q541.95 307.9227 541.52814 307.68832Q541.10626 307.43832 540.9344 307.0477Q540.7625 306.64145 540.7625 305.37582L540.7625 300.6102L539.73126 300.6102L539.73126 299.51645L540.7625 299.51645L540.7625 297.45395L542.16876 296.6102L542.16876 299.51645L543.575 299.51645L543.575 300.6102L542.16876 300.6102L542.16876 305.45395Q542.16876 306.06332 542.23126 306.2352Q542.3094 306.40707 542.48126 306.51645Q542.65314 306.6102 542.96564 306.6102Q543.2 306.6102 543.575 306.5477ZM549.95 307.81332L549.95 306.59457Q548.98126 308.00082 547.3094 308.00082Q546.575 308.00082 545.9344 307.71957Q545.3094 307.43832 544.9969 307.01645Q544.6844 306.57895 544.5594 305.96957Q544.48126 305.5477 544.48126 304.65707L544.48126 299.51645L545.8875 299.51645L545.8875 304.1102Q545.8875 305.21957 545.96564 305.59457Q546.10626 306.15707 546.52814 306.46957Q546.96564 306.78207 547.59064 306.78207Q548.23126 306.78207 548.77814 306.46957Q549.34064 306.14145 549.5594 305.57895Q549.79376 305.01645 549.79376 303.95395L549.79376 299.51645L551.2 299.51645L551.2 307.81332L549.95 307.81332ZM553.4969 307.81332L553.4969 299.51645L554.7625 299.51645L554.7625 300.76645Q555.2469 299.89145 555.65314 299.6102Q556.0594 299.32895 556.5594 299.32895Q557.2625 299.32895 557.9969 299.78207L557.5125 301.07895Q556.9969 300.78207 556.48126 300.78207Q556.02814 300.78207 555.65314 301.06332Q555.29376 301.32895 555.1375 301.82895Q554.90314 302.57895 554.90314 303.46957L554.90314 307.81332L553.4969 307.81332ZM564.1844 305.14145L565.6375 305.31332Q565.29376 306.59457 564.35626 307.2977Q563.4344 308.00082 561.9969 308.00082Q560.16876 308.00082 559.10626 306.87582Q558.04376 305.75082 558.04376 303.7352Q558.04376 301.64145 559.1219 300.4852Q560.2 299.32895 561.91876 299.32895Q563.575 299.32895 564.6219 300.46957Q565.6844 301.59457 565.6844 303.64145Q565.6844 303.76645 565.6844 304.01645L559.4969 304.01645Q559.575 305.39145 560.2625 306.12582Q560.96564 306.84457 561.9969 306.84457Q562.77814 306.84457 563.325 306.43832Q563.8719 306.03207 564.1844 305.14145ZM559.575 302.8602L564.2 302.8602Q564.10626 301.81332 563.66876 301.2977Q562.9969 300.4852 561.9344 300.4852Q560.96564 300.4852 560.29376 301.14145Q559.6375 301.78207 559.575 302.8602ZM578.0594 306.45395Q577.35626 307.2352 576.52814 307.62582Q575.71564 308.01645 574.7625 308.01645Q573.0125 308.01645 571.98126 306.81332Q571.1375 305.84457 571.1375 304.65707Q571.1375 303.59457 571.825 302.7352Q572.5125 301.87582 573.8719 301.2352Q573.09064 300.34457 572.825 299.7977Q572.575 299.2352 572.575 298.71957Q572.575 297.68832 573.3875 296.9227Q574.2 296.15707 575.41876 296.15707Q576.59064 296.15707 577.34064 296.87582Q578.09064 297.59457 578.09064 298.6102Q578.09064 300.2352 575.91876 301.39145L577.98126 304.01645Q578.325 303.32895 578.52814 302.4227L579.98126 302.7352Q579.60626 304.2352 578.96564 305.20395Q579.7625 306.25082 580.7625 306.95395L579.8094 308.07895Q578.96564 307.53207 578.0594 306.45395ZM575.2 300.4852Q576.10626 299.95395 576.3719 299.5477Q576.65314 299.14145 576.65314 298.64145Q576.65314 298.06332 576.27814 297.68832Q575.90314 297.31332 575.35626 297.31332Q574.77814 297.31332 574.40314 297.68832Q574.02814 298.0477 574.02814 298.57895Q574.02814 298.84457 574.15314 299.14145Q574.29376 299.43832 574.575 299.76645L575.2 300.4852ZM577.16876 305.34457L574.59064 302.15707Q573.45 302.82895 573.04376 303.4227Q572.65314 304.00082 572.65314 304.56332Q572.65314 305.26645 573.2 306.01645Q573.7625 306.76645 574.77814 306.76645Q575.41876 306.76645 576.09064 306.37582Q576.7625 305.96957 577.16876 305.34457Z" fill-rule="nonzero"/><path fill="#9e9e9e" d="M537.1219 326.78207L538.52814 326.59457Q538.77814 327.7977 539.35626 328.32895Q539.9344 328.84457 540.77814 328.84457Q541.7625 328.84457 542.45 328.15707Q543.1375 327.46957 543.1375 326.45395Q543.1375 325.4852 542.4969 324.8602Q541.8719 324.2352 540.8875 324.2352Q540.4969 324.2352 539.90314 324.39145L540.0594 323.15707Q540.2 323.1727 540.27814 323.1727Q541.1844 323.1727 541.90314 322.70395Q542.6219 322.2352 542.6219 321.25082Q542.6219 320.4852 542.09064 319.9852Q541.575 319.46957 540.7469 319.46957Q539.91876 319.46957 539.3719 319.9852Q538.825 320.50082 538.66876 321.53207L537.2625 321.28207Q537.52814 319.8602 538.4344 319.09457Q539.35626 318.31332 540.71564 318.31332Q541.65314 318.31332 542.4344 318.71957Q543.23126 319.1102 543.6375 319.81332Q544.0594 320.50082 544.0594 321.28207Q544.0594 322.03207 543.65314 322.64145Q543.2625 323.25082 542.48126 323.6102Q543.4969 323.84457 544.0594 324.57895Q544.6219 325.31332 544.6219 326.4227Q544.6219 327.9227 543.52814 328.96957Q542.4344 330.01645 540.7625 330.01645Q539.2625 330.01645 538.2625 329.12582Q537.2625 328.21957 537.1219 326.78207ZM550.6219 329.81332L550.6219 327.06332L545.65314 327.06332L545.65314 325.78207L550.8875 318.3602L552.02814 318.3602L552.02814 325.78207L553.575 325.78207L553.575 327.06332L552.02814 327.06332L552.02814 329.81332L550.6219 329.81332ZM550.6219 325.78207L550.6219 320.6102L547.04376 325.78207L550.6219 325.78207ZM555.90314 329.81332L555.90314 328.20395L557.5125 328.20395L557.5125 329.81332L555.90314 329.81332ZM561.27814 323.59457Q560.40314 323.28207 559.98126 322.68832Q559.5594 322.09457 559.5594 321.26645Q559.5594 320.01645 560.45 319.1727Q561.35626 318.31332 562.85626 318.31332Q564.35626 318.31332 565.2625 319.18832Q566.1844 320.0477 566.1844 321.2977Q566.1844 322.09457 565.7625 322.68832Q565.34064 323.28207 564.4969 323.59457Q565.54376 323.93832 566.09064 324.70395Q566.65314 325.46957 566.65314 326.53207Q566.65314 328.00082 565.60626 329.01645Q564.575 330.01645 562.8719 330.01645Q561.1844 330.01645 560.1375 329.01645Q559.10626 328.00082 559.10626 326.50082Q559.10626 325.37582 559.66876 324.62582Q560.23126 323.87582 561.27814 323.59457ZM560.9969 321.21957Q560.9969 322.03207 561.5125 322.5477Q562.04376 323.06332 562.8875 323.06332Q563.7 323.06332 564.21564 322.5477Q564.73126 322.03207 564.73126 321.2977Q564.73126 320.51645 564.2 320.00082Q563.66876 319.46957 562.8719 319.46957Q562.0594 319.46957 561.52814 319.9852Q560.9969 320.50082 560.9969 321.21957ZM560.54376 326.50082Q560.54376 327.1102 560.825 327.6727Q561.1219 328.2352 561.6844 328.5477Q562.2469 328.84457 562.8875 328.84457Q563.90314 328.84457 564.5594 328.20395Q565.21564 327.5477 565.21564 326.5477Q565.21564 325.53207 564.52814 324.87582Q563.85626 324.20395 562.84064 324.20395Q561.85626 324.20395 561.2 324.8602Q560.54376 325.51645 560.54376 326.50082ZM568.3875 321.1102Q568.3875 319.87582 568.9969 319.01645Q569.6219 318.15707 570.79376 318.15707Q571.8719 318.15707 572.575 318.93832Q573.27814 319.70395 573.27814 321.18832Q573.27814 322.64145 572.5594 323.43832Q571.85626 324.21957 570.8094 324.21957Q569.7625 324.21957 569.075 323.45395Q568.3875 322.6727 568.3875 321.1102ZM570.825 319.12582Q570.3094 319.12582 569.95 319.57895Q569.60626 320.03207 569.60626 321.25082Q569.60626 322.34457 569.95 322.7977Q570.3094 323.25082 570.825 323.25082Q571.35626 323.25082 571.7 322.7977Q572.0594 322.34457 572.0594 321.14145Q572.0594 320.03207 571.7 319.57895Q571.35626 319.12582 570.825 319.12582ZM570.84064 330.2352L577.10626 318.15707L578.2469 318.15707L571.9969 330.2352L570.84064 330.2352ZM575.79376 327.12582Q575.79376 325.89145 576.40314 325.03207Q577.02814 324.1727 578.2 324.1727Q579.27814 324.1727 579.98126 324.95395Q580.7 325.71957 580.7 327.20395Q580.7 328.65707 579.98126 329.45395Q579.2625 330.2352 578.21564 330.2352Q577.16876 330.2352 576.48126 329.45395Q575.79376 328.6727 575.79376 327.12582ZM578.2469 325.14145Q577.71564 325.14145 577.35626 325.59457Q577.0125 326.0477 577.0125 327.26645Q577.0125 328.3602 577.35626 328.81332Q577.71564 329.26645 578.23126 329.26645Q578.77814 329.26645 579.1219 328.81332Q579.46564 328.3602 579.46564 327.15707Q579.46564 326.0477 579.10626 325.59457Q578.7625 325.14145 578.2469 325.14145Z" fill-rule="nonzero"/><path stroke="#757575" stroke-width="1.0" stroke-linecap="butt" d="M581.45 313.31332L454.76666 313.31332L389.1906 313.31332" fill-rule="nonzero"/><path fill="#9e9e9e" d="M391.1906 313.31332C391.1906 312.20874 390.29517 311.31332 389.1906 311.31332C388.08603 311.31332 387.1906 312.20874 387.1906 313.31332C387.1906 314.41788 388.08603 315.31332 389.1906 315.31332C390.29517 315.31332 391.1906 314.41788 391.1906 313.31332" fill-rule="nonzero"/><path fill="#f3f3f3" d="M271.26562 32.534374L273.15625 33.003124Q272.5625 35.346874 271.01562 36.58125Q269.46875 37.8 267.21875 37.8Q264.90625 37.8 263.45312 36.8625Q262.01562 35.909374 261.25 34.128124Q260.5 32.33125 260.5 30.284374Q260.5 28.05 261.34375 26.39375Q262.20312 24.721874 263.78125 23.8625Q265.35938 22.9875 267.25 22.9875Q269.40625 22.9875 270.85938 24.08125Q272.32812 25.175 272.90625 27.159374L271.04688 27.596874Q270.54688 26.034374 269.59375 25.33125Q268.65625 24.6125 267.21875 24.6125Q265.5625 24.6125 264.45312 25.409374Q263.34375 26.190624 262.89062 27.534374Q262.45312 28.8625 262.45312 30.26875Q262.45312 32.096874 262.98438 33.471874Q263.51562 34.83125 264.64062 35.503124Q265.76562 36.175 267.0625 36.175Q268.65625 36.175 269.76562 35.253124Q270.875 34.33125 271.26562 32.534374ZM281.59375 36.26875Q280.60938 37.096874 279.70312 37.440624Q278.79688 37.784374 277.76562 37.784374Q276.0625 37.784374 275.14062 36.95625Q274.21875 36.1125 274.21875 34.815624Q274.21875 34.05 274.5625 33.425Q274.92188 32.8 275.48438 32.425Q276.04688 32.034374 276.75 31.83125Q277.26562 31.70625 278.3125 31.565624Q280.4375 31.315624 281.4375 30.971874Q281.45312 30.6125 281.45312 30.503124Q281.45312 29.440624 280.95312 28.9875Q280.28125 28.39375 278.95312 28.39375Q277.70312 28.39375 277.10938 28.83125Q276.53125 29.26875 276.25 30.378124L274.53125 30.14375Q274.76562 29.034374 275.29688 28.3625Q275.82812 27.675 276.84375 27.315624Q277.85938 26.940624 279.20312 26.940624Q280.53125 26.940624 281.35938 27.253124Q282.1875 27.565624 282.57812 28.05Q282.96875 28.51875 283.125 29.2375Q283.21875 29.690624 283.21875 30.8625L283.21875 33.20625Q283.21875 35.659374 283.32812 36.315624Q283.4375 36.95625 283.78125 37.55L281.9375 37.55Q281.67188 37.003124 281.59375 36.26875ZM281.4375 32.346874Q280.48438 32.7375 278.5625 33.003124Q277.48438 33.159374 277.03125 33.3625Q276.59375 33.55 276.34375 33.925Q276.09375 34.3 276.09375 34.76875Q276.09375 35.471874 276.625 35.940624Q277.15625 36.409374 278.1875 36.409374Q279.20312 36.409374 279.98438 35.971874Q280.78125 35.51875 281.15625 34.753124Q281.4375 34.14375 281.4375 32.9875L281.4375 32.346874ZM289.65625 35.971874L289.90625 37.534374Q289.17188 37.690624 288.57812 37.690624Q287.625 37.690624 287.09375 37.39375Q286.57812 37.08125 286.35938 36.596874Q286.14062 36.096874 286.14062 34.51875L286.14062 28.55L284.85938 28.55L284.85938 27.175L286.14062 27.175L286.14062 24.6125L287.89062 23.55L287.89062 27.175L289.65625 27.175L289.65625 28.55L287.89062 28.55L287.89062 34.6125Q287.89062 35.3625 287.98438 35.58125Q288.07812 35.784374 288.28125 35.925Q288.5 36.05 288.89062 36.05Q289.17188 36.05 289.65625 35.971874ZM298.92188 34.20625L300.73438 34.440624Q300.3125 36.01875 299.14062 36.909374Q297.98438 37.784374 296.17188 37.784374Q293.90625 37.784374 292.5625 36.39375Q291.23438 34.9875 291.23438 32.45625Q291.23438 29.83125 292.57812 28.39375Q293.92188 26.940624 296.07812 26.940624Q298.15625 26.940624 299.46875 28.3625Q300.79688 29.76875 300.79688 32.346874Q300.79688 32.503124 300.78125 32.815624L293.04688 32.815624Q293.14062 34.51875 294.01562 35.425Q294.89062 36.33125 296.1875 36.33125Q297.15625 36.33125 297.82812 35.83125Q298.51562 35.315624 298.92188 34.20625ZM293.14062 31.3625L298.9375 31.3625Q298.82812 30.065624 298.28125 29.409374Q297.4375 28.39375 296.09375 28.39375Q294.89062 28.39375 294.0625 29.20625Q293.23438 30.003124 293.14062 31.3625ZM302.5 38.409374L304.20312 38.659374Q304.3125 39.45625 304.79688 39.815624Q305.45312 40.3 306.59375 40.3Q307.8125 40.3 308.46875 39.815624Q309.14062 39.33125 309.375 38.45625Q309.51562 37.909374 309.5 36.190624Q308.34375 37.55 306.625 37.55Q304.48438 37.55 303.3125 36.003124Q302.14062 34.45625 302.14062 32.3Q302.14062 30.815624 302.67188 29.565624Q303.21875 28.315624 304.23438 27.628124Q305.26562 26.940624 306.64062 26.940624Q308.46875 26.940624 309.67188 28.425L309.67188 27.175L311.28125 27.175L311.28125 36.14375Q311.28125 38.565624 310.78125 39.565624Q310.29688 40.58125 309.21875 41.159374Q308.15625 41.753124 306.59375 41.753124Q304.75 41.753124 303.59375 40.925Q302.45312 40.096874 302.5 38.409374ZM303.95312 32.175Q303.95312 34.221874 304.76562 35.159374Q305.57812 36.096874 306.79688 36.096874Q308.0 36.096874 308.8125 35.159374Q309.64062 34.221874 309.64062 32.2375Q309.64062 30.33125 308.79688 29.3625Q307.95312 28.39375 306.76562 28.39375Q305.59375 28.39375 304.76562 29.346874Q303.95312 30.3 303.95312 32.175ZM313.17188 32.3625Q313.17188 29.4875 314.76562 28.096874Q316.10938 26.940624 318.03125 26.940624Q320.17188 26.940624 321.51562 28.346874Q322.875 29.753124 322.875 32.221874Q322.875 34.221874 322.28125 35.378124Q321.6875 36.51875 320.53125 37.159374Q319.39062 37.784374 318.03125 37.784374Q315.84375 37.784374 314.5 36.39375Q313.17188 34.9875 313.17188 32.3625ZM314.96875 32.3625Q314.96875 34.3625 315.82812 35.346874Q316.70312 36.33125 318.03125 36.33125Q319.34375 36.33125 320.20312 35.346874Q321.07812 34.346874 321.07812 32.3Q321.07812 30.378124 320.20312 29.39375Q319.32812 28.39375 318.03125 28.39375Q316.70312 28.39375 315.82812 29.39375Q314.96875 30.378124 314.96875 32.3625ZM324.79688 37.55L324.79688 27.175L326.375 27.175L326.375 28.753124Q326.98438 27.64375 327.5 27.3Q328.01562 26.940624 328.625 26.940624Q329.51562 26.940624 330.4375 27.503124L329.82812 29.14375Q329.1875 28.753124 328.54688 28.753124Q327.96875 28.753124 327.5 29.1125Q327.04688 29.45625 326.84375 30.065624Q326.5625 31.003124 326.5625 32.1125L326.5625 37.55L324.79688 37.55ZM331.73438 41.55L331.54688 39.89375Q332.125 40.05 332.54688 40.05Q333.14062 40.05 333.48438 39.846874Q333.84375 39.659374 334.0625 39.315624Q334.23438 39.05 334.60938 38.003124Q334.65625 37.846874 334.76562 37.565624L330.82812 27.175L332.71875 27.175L334.875 33.190624Q335.29688 34.33125 335.625 35.58125Q335.9375 34.378124 336.34375 33.221874L338.5625 27.175L340.32812 27.175L336.375 37.721874Q335.75 39.440624 335.39062 40.08125Q334.92188 40.95625 334.3125 41.346874Q333.71875 41.753124 332.875 41.753124Q332.35938 41.753124 331.73438 41.55Z" fill-rule="nonzero"/></svg>