<svg version="1.1" viewBox="0.0 0.0 600.0 371.0" fill="none" stroke="none" stroke-linecap="square" stroke-miterlimit="10" width="600" height="371" xmlns:xlink="http://www.w3.org/1999/xlink" xmlns="http://www.w3.org/2000/svg"><path fill="#ffffff" fill-opacity="0.0" d="M0 0L600.0 0L600.0 371.0L0 371.0L0 0Z" fill-rule="nonzero"/><path fill="#304388" d="M300.0 54.916668C314.8647 54.916668 329.64545 57.14451 343.84973 61.52595L310.96243 168.14398C307.41138 167.04863 303.7162 166.49167 300.0 166.49167Z" fill-rule="nonzero"/><path fill="#cf4366" d="M343.84973 61.52595C387.11172 74.87051 421.94278 107.18898 438.48297 149.33276L334.62076 190.09569C330.4857 179.55975 321.77792 171.48013 310.96243 168.14398Z" fill-rule="nonzero"/><path fill="#f7d750" d="M256.15027 61.52595C270.35455 57.14451 285.1353 54.916668 300.0 54.916668L300.0 166.49167C296.2838 166.49167 292.58862 167.04863 289.03757 168.14398Z" fill-rule="nonzero"/><path fill="#e5a345" d="M235.45256 337.71747C180.32715 311.17047 147.07698 253.57948 151.64932 192.56598C156.22165 131.55249 197.68393 79.560425 256.15027 61.52595L289.03757 168.14398C274.421 172.6526 264.05542 185.65062 262.91232 200.90399C261.76926 216.15738 270.0818 230.55511 283.86313 237.19186Z" fill-rule="nonzero"/><path fill="#df8d43" d="M438.48297 149.33276C460.8362 206.28789 446.0385 271.12094 401.18704 312.73703C356.33554 354.35312 290.57797 364.26447 235.45256 337.71747L283.86313 237.19186C297.6445 243.82861 314.0839 241.35077 325.29675 230.94675C336.5096 220.54274 340.20905 204.33447 334.62076 190.09569Z" fill-rule="nonzero"/><path fill="#ffffff" d="M350.70908 135.27374L349.13095 135.27374L349.13095 125.19562Q348.55283 125.74249 347.63095 126.28937Q346.70908 126.82062 345.95908 127.10187L345.95908 125.57062Q347.2872 124.94562 348.2872 124.05499Q349.2872 123.16437 349.69345 122.33624L350.70908 122.33624L350.70908 135.27374ZM359.81845 135.27374L359.81845 132.19562L354.24033 132.19562L354.24033 130.7425L360.11533 122.38312L361.4122 122.38312L361.4122 130.7425L363.14658 130.7425L363.14658 132.19562L361.4122 132.19562L361.4122 135.27374L359.81845 135.27374ZM359.81845 130.7425L359.81845 124.92999L355.7872 130.7425L359.81845 130.7425ZM365.64658 135.27374L365.64658 133.47687L367.44345 133.47687L367.44345 135.27374L365.64658 135.27374ZM369.75595 131.8675L371.3497 131.66437Q371.61533 133.00812 372.27158 133.60187Q372.92783 134.19562 373.86533 134.19562Q374.99033 134.19562 375.75595 133.43Q376.52158 132.64874 376.52158 131.50812Q376.52158 130.41437 375.80283 129.71124Q375.0997 128.9925 374.00595 128.9925Q373.55283 128.9925 372.88095 129.18L373.05283 127.78937Q373.20908 127.80499 373.31845 127.80499Q374.31845 127.80499 375.13095 127.27374Q375.94345 126.74249 375.94345 125.64874Q375.94345 124.77374 375.3497 124.21124Q374.75595 123.63312 373.83408 123.63312Q372.9122 123.63312 372.2872 124.21124Q371.67783 124.78937 371.50595 125.96124L369.92783 125.67999Q370.20908 124.08624 371.24033 123.21124Q372.27158 122.33624 373.80283 122.33624Q374.8497 122.33624 375.74033 122.78937Q376.63095 123.24249 377.0997 124.02374Q377.56845 124.80499 377.56845 125.67999Q377.56845 126.52374 377.11533 127.21124Q376.67783 127.88312 375.7872 128.28937Q376.92783 128.555 377.55283 129.39874Q378.19345 130.22687 378.19345 131.46124Q378.19345 133.14874 376.95908 134.33624Q375.74033 135.50812 373.86533 135.50812Q372.1622 135.50812 371.0372 134.4925Q369.92783 133.47687 369.75595 131.8675ZM380.05283 125.47687Q380.05283 124.10187 380.74033 123.13312Q381.44345 122.16437 382.75595 122.16437Q383.9747 122.16437 384.77158 123.03937Q385.56845 123.89874 385.56845 125.58624Q385.56845 127.21124 384.75595 128.10187Q383.95908 128.97687 382.77158 128.97687Q381.61533 128.97687 380.83408 128.1175Q380.05283 127.24249 380.05283 125.47687ZM382.80283 123.25812Q382.20908 123.25812 381.81845 123.77374Q381.42783 124.27374 381.42783 125.63312Q381.42783 126.88312 381.81845 127.38312Q382.2247 127.88312 382.80283 127.88312Q383.39658 127.88312 383.7872 127.38312Q384.17783 126.86749 384.17783 125.52374Q384.17783 124.27374 383.7872 123.77374Q383.39658 123.25812 382.80283 123.25812ZM382.81845 135.7425L389.86533 122.16437L391.14658 122.16437L384.11533 135.7425L382.81845 135.7425ZM388.38095 132.2425Q388.38095 130.8675 389.06845 129.89874Q389.77158 128.93 391.0997 128.93Q392.31845 128.93 393.0997 129.805Q393.89658 130.66437 393.89658 132.35187Q393.89658 133.97687 393.0997 134.8675Q392.30283 135.7425 391.11533 135.7425Q389.94345 135.7425 389.1622 134.8675Q388.38095 133.9925 388.38095 132.2425ZM391.14658 130.02374Q390.55283 130.02374 390.1622 130.53937Q389.77158 131.03937 389.77158 132.41437Q389.77158 133.63312 390.1622 134.14874Q390.55283 134.66437 391.13095 134.66437Q391.74033 134.66437 392.13095 134.14874Q392.52158 133.63312 392.52158 132.28937Q392.52158 131.03937 392.13095 130.53937Q391.74033 130.02374 391.14658 130.02374Z" fill-rule="nonzero"/><path fill="#ffffff" d="M344.75595 281.68668L346.3497 281.48355Q346.61533 282.8273 347.27158 283.42105Q347.92783 284.0148 348.86533 284.0148Q349.99033 284.0148 350.75595 283.24918Q351.52158 282.46793 351.52158 281.3273Q351.52158 280.23355 350.80283 279.53043Q350.0997 278.81168 349.00595 278.81168Q348.55283 278.81168 347.88095 278.99918L348.05283 277.60855Q348.20908 277.62418 348.31845 277.62418Q349.31845 277.62418 350.13095 277.09293Q350.94345 276.56168 350.94345 275.46793Q350.94345 274.59293 350.3497 274.03043Q349.75595 273.4523 348.83408 273.4523Q347.9122 273.4523 347.2872 274.03043Q346.67783 274.60855 346.50595 275.78043L344.92783 275.49918Q345.20908 273.90543 346.24033 273.03043Q347.27158 272.15543 348.80283 272.15543Q349.8497 272.15543 350.74033 272.60855Q351.63095 273.06168 352.0997 273.84293Q352.56845 274.62418 352.56845 275.49918Q352.56845 276.34293 352.11533 277.03043Q351.67783 277.7023 350.7872 278.10855Q351.92783 278.37418 352.55283 279.21793Q353.19345 280.04605 353.19345 281.28043Q353.19345 282.96793 351.95908 284.15543Q350.74033 285.3273 348.86533 285.3273Q347.1622 285.3273 346.0372 284.31168Q344.92783 283.29605 344.75595 281.68668ZM357.19345 278.10855Q356.20908 277.74918 355.7247 277.0773Q355.25595 276.40543 355.25595 275.48355Q355.25595 274.0773 356.25595 273.12418Q357.27158 272.15543 358.95908 272.15543Q360.64658 272.15543 361.6622 273.1398Q362.69345 274.10855 362.69345 275.5148Q362.69345 276.42105 362.2247 277.09293Q361.75595 277.74918 360.80283 278.10855Q361.99033 278.49918 362.5997 279.35855Q363.2247 280.21793 363.2247 281.40543Q363.2247 283.06168 362.05283 284.18668Q360.88095 285.31168 358.9747 285.31168Q357.06845 285.31168 355.89658 284.18668Q354.74033 283.04605 354.74033 281.35855Q354.74033 280.10855 355.36533 279.2648Q356.00595 278.40543 357.19345 278.10855ZM356.86533 275.42105Q356.86533 276.34293 357.45908 276.92105Q358.05283 277.49918 358.99033 277.49918Q359.89658 277.49918 360.4747 276.92105Q361.06845 276.34293 361.06845 275.5148Q361.06845 274.6398 360.45908 274.04605Q359.86533 273.4523 358.9747 273.4523Q358.06845 273.4523 357.45908 274.03043Q356.86533 274.60855 356.86533 275.42105ZM356.36533 281.37418Q356.36533 282.04605 356.67783 282.68668Q357.00595 283.31168 357.63095 283.67105Q358.27158 284.0148 359.00595 284.0148Q360.13095 284.0148 360.86533 283.28043Q361.61533 282.54605 361.61533 281.42105Q361.61533 280.28043 360.8497 279.54605Q360.08408 278.79605 358.94345 278.79605Q357.83408 278.79605 357.0997 279.53043Q356.36533 280.2648 356.36533 281.37418ZM365.64658 285.09293L365.64658 283.29605L367.44345 283.29605L367.44345 285.09293L365.64658 285.09293ZM375.70908 285.09293L374.13095 285.09293L374.13095 275.0148Q373.55283 275.56168 372.63095 276.10855Q371.70908 276.6398 370.95908 276.92105L370.95908 275.3898Q372.2872 274.7648 373.2872 273.87418Q374.2872 272.98355 374.69345 272.15543L375.70908 272.15543L375.70908 285.09293ZM380.05283 275.29605Q380.05283 273.92105 380.74033 272.9523Q381.44345 271.98355 382.75595 271.98355Q383.9747 271.98355 384.77158 272.85855Q385.56845 273.71793 385.56845 275.40543Q385.56845 277.03043 384.75595 277.92105Q383.95908 278.79605 382.77158 278.79605Q381.61533 278.79605 380.83408 277.93668Q380.05283 277.06168 380.05283 275.29605ZM382.80283 273.0773Q382.20908 273.0773 381.81845 273.59293Q381.42783 274.09293 381.42783 275.4523Q381.42783 276.7023 381.81845 277.2023Q382.2247 277.7023 382.80283 277.7023Q383.39658 277.7023 383.7872 277.2023Q384.17783 276.68668 384.17783 275.34293Q384.17783 274.09293 383.7872 273.59293Q383.39658 273.0773 382.80283 273.0773ZM382.81845 285.56168L389.86533 271.98355L391.14658 271.98355L384.11533 285.56168L382.81845 285.56168ZM388.38095 282.06168Q388.38095 280.68668 389.06845 279.71793Q389.77158 278.74918 391.0997 278.74918Q392.31845 278.74918 393.0997 279.62418Q393.89658 280.48355 393.89658 282.17105Q393.89658 283.79605 393.0997 284.68668Q392.30283 285.56168 391.11533 285.56168Q389.94345 285.56168 389.1622 284.68668Q388.38095 283.81168 388.38095 282.06168ZM391.14658 279.84293Q390.55283 279.84293 390.1622 280.35855Q389.77158 280.85855 389.77158 282.23355Q389.77158 283.4523 390.1622 283.96793Q390.55283 284.48355 391.13095 284.48355Q391.74033 284.48355 392.13095 283.96793Q392.52158 283.4523 392.52158 282.10855Q392.52158 280.85855 392.13095 280.35855Q391.74033 279.84293 391.14658 279.84293Z" fill-rule="nonzero"/><path fill="#ffffff" d="M170.616 198.93585L172.20975 198.73273Q172.47537 200.07648 173.13162 200.67023Q173.78787 201.26398 174.72537 201.26398Q175.85037 201.26398 176.616 200.49835Q177.38162 199.7171 177.38162 198.57648Q177.38162 197.48273 176.66287 196.7796Q175.95975 196.06085 174.866 196.06085Q174.41287 196.06085 173.741 196.24835L173.91287 194.85773Q174.06912 194.87335 174.1785 194.87335Q175.1785 194.87335 175.991 194.3421Q176.8035 193.81085 176.8035 192.7171Q176.8035 191.8421 176.20975 191.2796Q175.616 190.70148 174.69412 190.70148Q173.77225 190.70148 173.14725 191.2796Q172.53787 191.85773 172.366 193.0296L170.78787 192.74835Q171.06912 191.1546 172.10037 190.2796Q173.13162 189.4046 174.66287 189.4046Q175.70975 189.4046 176.60037 189.85773Q177.491 190.31085 177.95975 191.0921Q178.4285 191.87335 178.4285 192.74835Q178.4285 193.5921 177.97537 194.2796Q177.53787 194.95148 176.64725 195.35773Q177.78787 195.62335 178.41287 196.4671Q179.0535 197.29523 179.0535 198.5296Q179.0535 200.2171 177.81912 201.4046Q176.60037 202.57648 174.72537 202.57648Q173.02225 202.57648 171.89725 201.56085Q170.78787 200.54523 170.616 198.93585ZM183.0535 195.35773Q182.06912 194.99835 181.58475 194.32648Q181.116 193.6546 181.116 192.73273Q181.116 191.32648 182.116 190.37335Q183.13162 189.4046 184.81912 189.4046Q186.50662 189.4046 187.52225 190.38898Q188.5535 191.35773 188.5535 192.76398Q188.5535 193.67023 188.08475 194.3421Q187.616 194.99835 186.66287 195.35773Q187.85037 195.74835 188.45975 196.60773Q189.08475 197.4671 189.08475 198.6546Q189.08475 200.31085 187.91287 201.43585Q186.741 202.56085 184.83475 202.56085Q182.9285 202.56085 181.75662 201.43585Q180.60037 200.29523 180.60037 198.60773Q180.60037 197.35773 181.22537 196.51398Q181.866 195.6546 183.0535 195.35773ZM182.72537 192.67023Q182.72537 193.5921 183.31912 194.17023Q183.91287 194.74835 184.85037 194.74835Q185.75662 194.74835 186.33475 194.17023Q186.9285 193.5921 186.9285 192.76398Q186.9285 191.88898 186.31912 191.29523Q185.72537 190.70148 184.83475 190.70148Q183.9285 190.70148 183.31912 191.2796Q182.72537 191.85773 182.72537 192.67023ZM182.22537 198.62335Q182.22537 199.29523 182.53787 199.93585Q182.866 200.56085 183.491 200.92023Q184.13162 201.26398 184.866 201.26398Q185.991 201.26398 186.72537 200.5296Q187.47537 199.79523 187.47537 198.67023Q187.47537 197.5296 186.70975 196.79523Q185.94412 196.04523 184.8035 196.04523Q183.69412 196.04523 182.95975 196.7796Q182.22537 197.51398 182.22537 198.62335ZM191.50662 202.3421L191.50662 200.54523L193.3035 200.54523L193.3035 202.3421L191.50662 202.3421ZM201.56912 202.3421L199.991 202.3421L199.991 192.26398Q199.41287 192.81085 198.491 193.35773Q197.56912 193.88898 196.81912 194.17023L196.81912 192.63898Q198.14725 192.01398 199.14725 191.12335Q200.14725 190.23273 200.5535 189.4046L201.56912 189.4046L201.56912 202.3421ZM205.91287 192.54523Q205.91287 191.17023 206.60037 190.20148Q207.3035 189.23273 208.616 189.23273Q209.83475 189.23273 210.63162 190.10773Q211.4285 190.9671 211.4285 192.6546Q211.4285 194.2796 210.616 195.17023Q209.81912 196.04523 208.63162 196.04523Q207.47537 196.04523 206.69412 195.18585Q205.91287 194.31085 205.91287 192.54523ZM208.66287 190.32648Q208.06912 190.32648 207.6785 190.8421Q207.28787 191.3421 207.28787 192.70148Q207.28787 193.95148 207.6785 194.45148Q208.08475 194.95148 208.66287 194.95148Q209.25662 194.95148 209.64725 194.45148Q210.03787 193.93585 210.03787 192.5921Q210.03787 191.3421 209.64725 190.8421Q209.25662 190.32648 208.66287 190.32648ZM208.6785 202.81085L215.72537 189.23273L217.00662 189.23273L209.97537 202.81085L208.6785 202.81085ZM214.241 199.31085Q214.241 197.93585 214.9285 196.9671Q215.63162 195.99835 216.95975 195.99835Q218.1785 195.99835 218.95975 196.87335Q219.75662 197.73273 219.75662 199.42023Q219.75662 201.04523 218.95975 201.93585Q218.16287 202.81085 216.97537 202.81085Q215.8035 202.81085 215.02225 201.93585Q214.241 201.06085 214.241 199.31085ZM217.00662 197.0921Q216.41287 197.0921 216.02225 197.60773Q215.63162 198.10773 215.63162 199.48273Q215.63162 200.70148 216.02225 201.2171Q216.41287 201.73273 216.991 201.73273Q217.60037 201.73273 217.991 201.2171Q218.38162 200.70148 218.38162 199.35773Q218.38162 198.10773 217.991 197.60773Q217.60037 197.0921 217.00662 197.0921Z" fill-rule="nonzero"/><path stroke="#ffffff" stroke-width="1.0" stroke-linejoin="round" stroke-linecap="round" d="M310.96243 168.14398C307.41138 167.04863 303.7162 166.49167 300.0 166.49167L300.0 54.916668C314.8647 54.916668 329.64545 57.14451 343.84973 61.52595" fill-rule="nonzero"/><path stroke="#ffffff" stroke-width="1.0" stroke-linejoin="round" stroke-linecap="round" d="M334.62076 190.09569C330.4857 179.55975 321.77792 171.48013 310.96243 168.14398L343.84973 61.52595C387.11172 74.87051 421.94278 107.18898 438.48297 149.33276" fill-rule="nonzero"/><path stroke="#ffffff" stroke-width="1.0" stroke-linejoin="round" stroke-linecap="round" d="M283.86313 237.19186C297.6445 243.82861 314.0839 241.35077 325.29675 230.94675C336.5096 220.54274 340.20905 204.33447 334.62076 190.09569L438.48297 149.33276C460.8362 206.28789 446.0385 271.12094 401.18704 312.73703C356.33554 354.35312 290.57797 364.26447 235.45256 337.71747" fill-rule="nonzero"/><path stroke="#ffffff" stroke-width="1.0" stroke-linejoin="round" stroke-linecap="round" d="M289.03757 168.14398C274.421 172.6526 264.05542 185.65062 262.91232 200.90399C261.76926 216.15738 270.0818 230.55511 283.86313 237.19186L235.45256 337.71747C180.32715 311.17047 147.07698 253.57948 151.64932 192.56598C156.22165 131.55249 197.68393 79.560425 256.15027 61.52595" fill-rule="nonzero"/><path stroke="#ffffff" stroke-width="1.0" stroke-linejoin="round" stroke-linecap="round" d="M300.0 166.49167C296.2838 166.49167 292.58862 167.04863 289.03757 168.14398L256.15027 61.52595C270.35455 57.14451 285.1353 54.916668 300.0 54.916668" fill-rule="nonzero"/><path fill="#efefef" d="M19.784374 69.916664L19.784374 58.46354L24.1125 58.46354Q25.253124 58.46354 25.846874 58.572914Q26.690624 58.71354 27.253124 59.104164Q27.83125 59.49479 28.175 60.21354Q28.534374 60.916664 28.534374 61.77604Q28.534374 63.229164 27.596874 64.24479Q26.675 65.260414 24.2375 65.260414L21.3 65.260414L21.3 69.916664L19.784374 69.916664ZM21.3 63.90104L24.26875 63.90104Q25.7375 63.90104 26.346874 63.354164Q26.971874 62.80729 26.971874 61.822914Q26.971874 61.104164 26.596874 60.58854Q26.2375 60.072914 25.64375 59.916664Q25.26875 59.80729 24.2375 59.80729L21.3 59.80729L21.3 63.90104ZM36.01875 68.885414Q35.2375 69.55729 34.51875 69.83854Q33.8 70.104164 32.971874 70.104164Q31.596874 70.104164 30.8625 69.43229Q30.128124 68.760414 30.128124 67.729164Q30.128124 67.11979 30.409374 66.61979Q30.690624 66.104164 31.128124 65.80729Q31.58125 65.49479 32.14375 65.33854Q32.565624 65.229164 33.39375 65.135414Q35.096874 64.93229 35.909374 64.65104Q35.909374 64.354164 35.909374 64.27604Q35.909374 63.416664 35.51875 63.072914Q34.971874 62.58854 33.909374 62.58854Q32.925 62.58854 32.440624 62.947914Q31.971874 63.291664 31.753124 64.166664L30.378124 63.979164Q30.565624 63.104164 30.9875 62.55729Q31.425 62.010414 32.2375 61.729164Q33.05 61.43229 34.1125 61.43229Q35.175 61.43229 35.83125 61.68229Q36.503124 61.93229 36.815624 62.30729Q37.128124 62.68229 37.253124 63.260414Q37.33125 63.61979 37.33125 64.55729L37.33125 66.43229Q37.33125 68.40104 37.409374 68.916664Q37.503124 69.43229 37.76875 69.916664L36.3 69.916664Q36.08125 69.479164 36.01875 68.885414ZM35.909374 65.74479Q35.14375 66.05729 33.6125 66.27604Q32.7375 66.40104 32.378124 66.55729Q32.01875 66.71354 31.815624 67.02604Q31.628124 67.322914 31.628124 67.68229Q31.628124 68.24479 32.05 68.61979Q32.4875 68.99479 33.3 68.99479Q34.1125 68.99479 34.7375 68.65104Q35.378124 68.291664 35.675 67.666664Q35.909374 67.197914 35.909374 66.260414L35.909374 65.74479ZM39.346874 70.604164L40.721874 70.80729Q40.8 71.447914 41.190624 71.729164Q41.721874 72.11979 42.628124 72.11979Q43.596874 72.11979 44.128124 71.729164Q44.659374 71.33854 44.846874 70.635414Q44.95625 70.21354 44.95625 68.822914Q44.034374 69.916664 42.659374 69.916664Q40.940624 69.916664 40.003124 68.68229Q39.065624 67.447914 39.065624 65.71354Q39.065624 64.52604 39.4875 63.52604Q39.925 62.52604 40.7375 61.979164Q41.565624 61.43229 42.659374 61.43229Q44.128124 61.43229 45.08125 62.61979L45.08125 61.61979L46.378124 61.61979L46.378124 68.791664Q46.378124 70.729164 45.9875 71.541664Q45.596874 72.354164 44.7375 72.822914Q43.878124 73.291664 42.628124 73.291664Q41.14375 73.291664 40.221874 72.61979Q39.315624 71.947914 39.346874 70.604164ZM40.51875 65.61979Q40.51875 67.24479 41.159374 67.99479Q41.815624 68.74479 42.784374 68.74479Q43.753124 68.74479 44.409374 68.010414Q45.065624 67.260414 45.065624 65.666664Q45.065624 64.135414 44.39375 63.36979Q43.721874 62.58854 42.76875 62.58854Q41.83125 62.58854 41.175 63.354164Q40.51875 64.11979 40.51875 65.61979ZM54.284374 67.24479L55.7375 67.416664Q55.39375 68.697914 54.45625 69.40104Q53.534374 70.104164 52.096874 70.104164Q50.26875 70.104164 49.20625 68.979164Q48.14375 67.854164 48.14375 65.83854Q48.14375 63.74479 49.221874 62.58854Q50.3 61.43229 52.01875 61.43229Q53.675 61.43229 54.721874 62.572914Q55.784374 63.697914 55.784374 65.74479Q55.784374 65.86979 55.784374 66.11979L49.596874 66.11979Q49.675 67.49479 50.3625 68.229164Q51.065624 68.947914 52.096874 68.947914Q52.878124 68.947914 53.425 68.541664Q53.971874 68.135414 54.284374 67.24479ZM49.675 64.96354L54.3 64.96354Q54.20625 63.916664 53.76875 63.40104Q53.096874 62.58854 52.034374 62.58854Q51.065624 62.58854 50.39375 63.24479Q49.7375 63.885414 49.675 64.96354Z" fill-rule="nonzero"/><path fill="#9e9e9e" d="M23.721874 91.916664L23.721874 89.166664L18.753124 89.166664L18.753124 87.885414L23.9875 80.46354L25.128124 80.46354L25.128124 87.885414L26.675 87.885414L26.675 89.166664L25.128124 89.166664L25.128124 91.916664L23.721874 91.916664ZM23.721874 87.885414L23.721874 82.71354L20.14375 87.885414L23.721874 87.885414ZM29.003124 91.916664L29.003124 90.30729L30.6125 90.30729L30.6125 91.916664L29.003124 91.916664ZM34.378124 85.697914Q33.503124 85.385414 33.08125 84.791664Q32.659374 84.197914 32.659374 83.36979Q32.659374 82.11979 33.55 81.27604Q34.45625 80.416664 35.95625 80.416664Q37.45625 80.416664 38.3625 81.291664Q39.284374 82.15104 39.284374 83.40104Q39.284374 84.197914 38.8625 84.791664Q38.440624 85.385414 37.596874 85.697914Q38.64375 86.041664 39.190624 86.80729Q39.753124 87.572914 39.753124 88.635414Q39.753124 90.104164 38.70625 91.11979Q37.675 92.11979 35.971874 92.11979Q34.284374 92.11979 33.2375 91.11979Q32.20625 90.104164 32.20625 88.604164Q32.20625 87.479164 32.76875 86.729164Q33.33125 85.979164 34.378124 85.697914ZM34.096874 83.322914Q34.096874 84.135414 34.6125 84.65104Q35.14375 85.166664 35.9875 85.166664Q36.8 85.166664 37.315624 84.65104Q37.83125 84.135414 37.83125 83.40104Q37.83125 82.61979 37.3 82.104164Q36.76875 81.572914 35.971874 81.572914Q35.159374 81.572914 34.628124 82.08854Q34.096874 82.604164 34.096874 83.322914ZM33.64375 88.604164Q33.64375 89.21354 33.925 89.77604Q34.221874 90.33854 34.784374 90.65104Q35.346874 90.947914 35.9875 90.947914Q37.003124 90.947914 37.659374 90.30729Q38.315624 89.65104 38.315624 88.65104Q38.315624 87.635414 37.628124 86.979164Q36.95625 86.30729 35.940624 86.30729Q34.95625 86.30729 34.3 86.96354Q33.64375 87.61979 33.64375 88.604164ZM41.4875 83.21354Q41.4875 81.979164 42.096874 81.11979Q42.721874 80.260414 43.89375 80.260414Q44.971874 80.260414 45.675 81.041664Q46.378124 81.80729 46.378124 83.291664Q46.378124 84.74479 45.659374 85.541664Q44.95625 86.322914 43.909374 86.322914Q42.8625 86.322914 42.175 85.55729Q41.4875 84.77604 41.4875 83.21354ZM43.925 81.229164Q43.409374 81.229164 43.05 81.68229Q42.70625 82.135414 42.70625 83.354164Q42.70625 84.447914 43.05 84.90104Q43.409374 85.354164 43.925 85.354164Q44.45625 85.354164 44.8 84.90104Q45.159374 84.447914 45.159374 83.24479Q45.159374 82.135414 44.8 81.68229Q44.45625 81.229164 43.925 81.229164ZM43.940624 92.33854L50.20625 80.260414L51.346874 80.260414L45.096874 92.33854L43.940624 92.33854ZM48.89375 89.229164Q48.89375 87.99479 49.503124 87.135414Q50.128124 86.27604 51.3 86.27604Q52.378124 86.27604 53.08125 87.05729Q53.8 87.822914 53.8 89.30729Q53.8 90.760414 53.08125 91.55729Q52.3625 92.33854 51.315624 92.33854Q50.26875 92.33854 49.58125 91.55729Q48.89375 90.77604 48.89375 89.229164ZM51.346874 87.24479Q50.815624 87.24479 50.45625 87.697914Q50.1125 88.15104 50.1125 89.36979Q50.1125 90.46354 50.45625 90.916664Q50.815624 91.36979 51.33125 91.36979Q51.878124 91.36979 52.221874 90.916664Q52.565624 90.46354 52.565624 89.260414Q52.565624 88.15104 52.20625 87.697914Q51.8625 87.24479 51.346874 87.24479Z" fill-rule="nonzero"/><path stroke="#757575" stroke-width="1.0" stroke-linecap="butt" d="M18.55 75.416664L145.23334 75.416664L278.9361 63.93352" fill-rule="nonzero"/><path fill="#9e9e9e" d="M280.9361 63.93352C280.9361 62.828953 280.04068 61.93352 278.9361 61.93352C277.83154 61.93352 276.9361 62.828953 276.9361 63.93352C276.9361 65.03809 277.83154 65.93352 278.9361 65.93352C280.04068 65.93352 280.9361 65.03809 280.9361 63.93352" fill-rule="nonzero"/><path fill="#efefef" d="M27.3 176.16873L28.815624 176.16873L28.815624 182.7781Q28.815624 184.51248 28.425 185.5281Q28.034374 186.54373 27.01875 187.18436Q26.003124 187.82498 24.346874 187.82498Q22.7375 187.82498 21.70625 187.26248Q20.690624 186.69998 20.253124 185.6531Q19.815624 184.60623 19.815624 182.7781L19.815624 176.16873L21.33125 176.16873L21.33125 182.7781Q21.33125 184.26248 21.596874 184.98123Q21.878124 185.68436 22.55 186.07498Q23.2375 186.44998 24.20625 186.44998Q25.878124 186.44998 26.58125 185.69998Q27.3 184.93436 27.3 182.7781L27.3 176.16873ZM31.596874 187.62186L31.596874 179.32498L32.8625 179.32498L32.8625 180.57498Q33.346874 179.69998 33.753124 179.41873Q34.159374 179.13748 34.659374 179.13748Q35.3625 179.13748 36.096874 179.5906L35.6125 180.88748Q35.096874 180.5906 34.58125 180.5906Q34.128124 180.5906 33.753124 180.87186Q33.39375 181.13748 33.2375 181.63748Q33.003124 182.38748 33.003124 183.2781L33.003124 187.62186L31.596874 187.62186ZM37.909374 187.62186L36.596874 187.62186L36.596874 176.16873L38.003124 176.16873L38.003124 180.24686Q38.89375 179.13748 40.284374 179.13748Q41.05 179.13748 41.721874 179.44998Q42.409374 179.74686 42.846874 180.30936Q43.3 180.87186 43.55 181.66873Q43.8 182.44998 43.8 183.3406Q43.8 185.48123 42.7375 186.6531Q41.690624 187.80936 40.20625 187.80936Q38.7375 187.80936 37.909374 186.57498L37.909374 187.62186ZM37.89375 183.4031Q37.89375 184.9031 38.3 185.55936Q38.95625 186.6531 40.096874 186.6531Q41.01875 186.6531 41.690624 185.85623Q42.3625 185.04373 42.3625 183.4656Q42.3625 181.8406 41.70625 181.07498Q41.065624 180.29373 40.159374 180.29373Q39.2375 180.29373 38.565624 181.0906Q37.89375 181.88748 37.89375 183.4031ZM51.01875 186.5906Q50.2375 187.26248 49.51875 187.54373Q48.8 187.80936 47.971874 187.80936Q46.596874 187.80936 45.8625 187.13748Q45.128124 186.4656 45.128124 185.43436Q45.128124 184.82498 45.409374 184.32498Q45.690624 183.80936 46.128124 183.51248Q46.58125 183.19998 47.14375 183.04373Q47.565624 182.93436 48.39375 182.8406Q50.096874 182.63748 50.909374 182.35623Q50.909374 182.05936 50.909374 181.98123Q50.909374 181.12186 50.51875 180.7781Q49.971874 180.29373 48.909374 180.29373Q47.925 180.29373 47.440624 180.6531Q46.971874 180.99686 46.753124 181.87186L45.378124 181.68436Q45.565624 180.80936 45.9875 180.26248Q46.425 179.7156 47.2375 179.43436Q48.05 179.13748 49.1125 179.13748Q50.175 179.13748 50.83125 179.38748Q51.503124 179.63748 51.815624 180.01248Q52.128124 180.38748 52.253124 180.9656Q52.33125 181.32498 52.33125 182.26248L52.33125 184.13748Q52.33125 186.10623 52.409374 186.62186Q52.503124 187.13748 52.76875 187.62186L51.3 187.62186Q51.08125 187.18436 51.01875 186.5906ZM50.909374 183.44998Q50.14375 183.76248 48.6125 183.98123Q47.7375 184.10623 47.378124 184.26248Q47.01875 184.41873 46.815624 184.73123Q46.628124 185.0281 46.628124 185.38748Q46.628124 185.94998 47.05 186.32498Q47.4875 186.69998 48.3 186.69998Q49.1125 186.69998 49.7375 186.35623Q50.378124 185.99686 50.675 185.37186Q50.909374 184.9031 50.909374 183.9656L50.909374 183.44998ZM54.6125 187.62186L54.6125 179.32498L55.878124 179.32498L55.878124 180.49686Q56.784374 179.13748 58.51875 179.13748Q59.26875 179.13748 59.89375 179.4031Q60.51875 179.66873 60.83125 180.10623Q61.14375 180.54373 61.26875 181.1531Q61.346874 181.54373 61.346874 182.51248L61.346874 187.62186L59.940624 187.62186L59.940624 182.57498Q59.940624 181.7156 59.76875 181.29373Q59.6125 180.85623 59.190624 180.60623Q58.784374 180.35623 58.221874 180.35623Q57.315624 180.35623 56.659374 180.93436Q56.01875 181.49686 56.01875 183.0906L56.01875 187.62186L54.6125 187.62186ZM63.05 185.13748L64.44063 184.91873Q64.55 185.76248 65.08125 186.2156Q65.62813 186.6531 66.58125 186.6531Q67.55 186.6531 68.01875 186.26248Q68.4875 185.85623 68.4875 185.32498Q68.4875 184.85623 68.08125 184.57498Q67.78438 184.38748 66.64375 184.10623Q65.09688 183.7156 64.4875 183.43436Q63.89375 183.13748 63.58125 182.63748Q63.284374 182.13748 63.284374 181.5281Q63.284374 180.9656 63.534374 180.49686Q63.784374 180.0281 64.22188 179.7156Q64.55 179.4656 65.1125 179.30936Q65.69063 179.13748 66.33125 179.13748Q67.31563 179.13748 68.05 179.41873Q68.78438 179.69998 69.12813 180.18436Q69.4875 180.6531 69.62813 181.4656L68.25313 181.6531Q68.15938 181.01248 67.70625 180.6531Q67.25313 180.29373 66.44063 180.29373Q65.47188 180.29373 65.05 180.62186Q64.64375 180.93436 64.64375 181.35623Q64.64375 181.63748 64.81563 181.85623Q64.9875 182.07498 65.34688 182.23123Q65.56563 182.30936 66.59688 182.5906Q68.08125 182.98123 68.675 183.24686Q69.26875 183.49686 69.59688 183.98123Q69.94063 184.4656 69.94063 185.18436Q69.94063 185.88748 69.51875 186.51248Q69.1125 187.12186 68.33125 187.4656Q67.56563 187.80936 66.59688 187.80936Q64.97188 187.80936 64.12813 187.13748Q63.284374 186.4656 63.05 185.13748ZM77.01875 184.57498L78.40938 184.76248Q78.175 186.18436 77.2375 186.99686Q76.31563 187.80936 74.95625 187.80936Q73.25313 187.80936 72.20625 186.69998Q71.175 185.57498 71.175 183.49686Q71.175 182.1531 71.6125 181.1531Q72.06563 180.13748 72.97188 179.63748Q73.89375 179.13748 74.95625 179.13748Q76.31563 179.13748 77.175 179.82498Q78.03438 180.49686 78.26875 181.76248L76.90938 181.9656Q76.70625 181.13748 76.20625 180.7156Q75.72188 180.29373 75.01875 180.29373Q73.95625 180.29373 73.28438 181.05936Q72.62813 181.80936 72.62813 183.4656Q72.62813 185.13748 73.26875 185.9031Q73.90938 186.6531 74.94063 186.6531Q75.76875 186.6531 76.31563 186.1531Q76.87813 185.63748 77.01875 184.57498ZM85.01875 186.5906Q84.2375 187.26248 83.51875 187.54373Q82.8 187.80936 81.97188 187.80936Q80.59688 187.80936 79.8625 187.13748Q79.12813 186.4656 79.12813 185.43436Q79.12813 184.82498 79.40938 184.32498Q79.69063 183.80936 80.12813 183.51248Q80.58125 183.19998 81.14375 183.04373Q81.56563 182.93436 82.39375 182.8406Q84.09688 182.63748 84.90938 182.35623Q84.90938 182.05936 84.90938 181.98123Q84.90938 181.12186 84.51875 180.7781Q83.97188 180.29373 82.90938 180.29373Q81.925 180.29373 81.44063 180.6531Q80.97188 180.99686 80.75313 181.87186L79.37813 181.68436Q79.56563 180.80936 79.9875 180.26248Q80.425 179.7156 81.2375 179.43436Q82.05 179.13748 83.1125 179.13748Q84.175 179.13748 84.83125 179.38748Q85.50313 179.63748 85.81563 180.01248Q86.12813 180.38748 86.25313 180.9656Q86.33125 181.32498 86.33125 182.26248L86.33125 184.13748Q86.33125 186.10623 86.40938 186.62186Q86.50313 187.13748 86.76875 187.62186L85.3 187.62186Q85.08125 187.18436 85.01875 186.5906ZM84.90938 183.44998Q84.14375 183.76248 82.6125 183.98123Q81.7375 184.10623 81.37813 184.26248Q81.01875 184.41873 80.81563 184.73123Q80.62813 185.0281 80.62813 185.38748Q80.62813 185.94998 81.05 186.32498Q81.4875 186.69998 82.3 186.69998Q83.1125 186.69998 83.7375 186.35623Q84.37813 185.99686 84.675 185.37186Q84.90938 184.9031 84.90938 183.9656L84.90938 183.44998ZM88.6125 190.80936L88.6125 179.32498L89.89375 179.32498L89.89375 180.4031Q90.34688 179.76248 90.90938 179.44998Q91.4875 179.13748 92.3 179.13748Q93.3625 179.13748 94.175 179.68436Q94.9875 180.23123 95.39375 181.23123Q95.81563 182.2156 95.81563 183.4031Q95.81563 184.68436 95.34688 185.69998Q94.89375 186.7156 94.01875 187.26248Q93.15938 187.80936 92.19063 187.80936Q91.4875 187.80936 90.925 187.51248Q90.37813 187.2156 90.01875 186.76248L90.01875 190.80936L88.6125 190.80936ZM89.87813 183.51248Q89.87813 185.12186 90.51875 185.88748Q91.175 186.6531 92.09688 186.6531Q93.03438 186.6531 93.70625 185.85623Q94.37813 185.05936 94.37813 183.4031Q94.37813 181.80936 93.72188 181.0281Q93.06563 180.23123 92.15938 180.23123Q91.26875 180.23123 90.56563 181.07498Q89.87813 181.91873 89.87813 183.51248ZM103.28438 184.94998L104.7375 185.12186Q104.39375 186.4031 103.45625 187.10623Q102.53438 187.80936 101.09688 187.80936Q99.26875 187.80936 98.20625 186.68436Q97.14375 185.55936 97.14375 183.54373Q97.14375 181.44998 98.22188 180.29373Q99.3 179.13748 101.01875 179.13748Q102.675 179.13748 103.72188 180.2781Q104.78438 181.4031 104.78438 183.44998Q104.78438 183.57498 104.78438 183.82498L98.59688 183.82498Q98.675 185.19998 99.3625 185.93436Q100.06563 186.6531 101.09688 186.6531Q101.87813 186.6531 102.425 186.24686Q102.97188 185.8406 103.28438 184.94998ZM98.675 182.66873L103.3 182.66873Q103.20625 181.62186 102.76875 181.10623Q102.09688 180.29373 101.03438 180.29373Q100.06563 180.29373 99.39375 180.94998Q98.7375 181.5906 98.675 182.66873Z" fill-rule="nonzero"/><path fill="#9e9e9e" d="M19.221874 206.5906L20.628124 206.4031Q20.878124 207.60623 21.45625 208.13748Q22.034374 208.6531 22.878124 208.6531Q23.8625 208.6531 24.55 207.9656Q25.2375 207.2781 25.2375 206.26248Q25.2375 205.29373 24.596874 204.66873Q23.971874 204.04373 22.9875 204.04373Q22.596874 204.04373 22.003124 204.19998L22.159374 202.9656Q22.3 202.98123 22.378124 202.98123Q23.284374 202.98123 24.003124 202.51248Q24.721874 202.04373 24.721874 201.05936Q24.721874 200.29373 24.190624 199.79373Q23.675 199.2781 22.846874 199.2781Q22.01875 199.2781 21.471874 199.79373Q20.925 200.30936 20.76875 201.3406L19.3625 201.0906Q19.628124 199.66873 20.534374 198.9031Q21.45625 198.12186 22.815624 198.12186Q23.753124 198.12186 24.534374 198.5281Q25.33125 198.91873 25.7375 199.62186Q26.159374 200.30936 26.159374 201.0906Q26.159374 201.8406 25.753124 202.44998Q25.3625 203.05936 24.58125 203.41873Q25.596874 203.6531 26.159374 204.38748Q26.721874 205.12186 26.721874 206.23123Q26.721874 207.73123 25.628124 208.7781Q24.534374 209.82498 22.8625 209.82498Q21.3625 209.82498 20.3625 208.93436Q19.3625 208.0281 19.221874 206.5906ZM30.378124 203.4031Q29.503124 203.0906 29.08125 202.49686Q28.659374 201.9031 28.659374 201.07498Q28.659374 199.82498 29.55 198.98123Q30.45625 198.12186 31.95625 198.12186Q33.45625 198.12186 34.3625 198.99686Q35.284374 199.85623 35.284374 201.10623Q35.284374 201.9031 34.8625 202.49686Q34.440624 203.0906 33.596874 203.4031Q34.64375 203.74686 35.190624 204.51248Q35.753124 205.2781 35.753124 206.3406Q35.753124 207.80936 34.70625 208.82498Q33.675 209.82498 31.971874 209.82498Q30.284374 209.82498 29.2375 208.82498Q28.20625 207.80936 28.20625 206.30936Q28.20625 205.18436 28.76875 204.43436Q29.33125 203.68436 30.378124 203.4031ZM30.096874 201.0281Q30.096874 201.8406 30.6125 202.35623Q31.14375 202.87186 31.9875 202.87186Q32.8 202.87186 33.315624 202.35623Q33.83125 201.8406 33.83125 201.10623Q33.83125 200.32498 33.3 199.80936Q32.76875 199.2781 31.971874 199.2781Q31.159374 199.2781 30.628124 199.79373Q30.096874 200.30936 30.096874 201.0281ZM29.64375 206.30936Q29.64375 206.91873 29.925 207.48123Q30.221874 208.04373 30.784374 208.35623Q31.346874 208.6531 31.9875 208.6531Q33.003124 208.6531 33.659374 208.01248Q34.315624 207.35623 34.315624 206.35623Q34.315624 205.3406 33.628124 204.68436Q32.95625 204.01248 31.940624 204.01248Q30.95625 204.01248 30.3 204.66873Q29.64375 205.32498 29.64375 206.30936ZM38.003124 209.62186L38.003124 208.01248L39.6125 208.01248L39.6125 209.62186L38.003124 209.62186ZM46.51875 209.62186L45.1125 209.62186L45.1125 200.6531Q44.596874 201.13748 43.76875 201.62186Q42.95625 202.10623 42.3 202.35623L42.3 200.99686Q43.471874 200.43436 44.346874 199.6531Q45.2375 198.85623 45.6125 198.12186L46.51875 198.12186L46.51875 209.62186ZM50.4875 200.91873Q50.4875 199.68436 51.096874 198.82498Q51.721874 197.9656 52.89375 197.9656Q53.971874 197.9656 54.675 198.74686Q55.378124 199.51248 55.378124 200.99686Q55.378124 202.44998 54.659374 203.24686Q53.95625 204.0281 52.909374 204.0281Q51.8625 204.0281 51.175 203.26248Q50.4875 202.48123 50.4875 200.91873ZM52.925 198.93436Q52.409374 198.93436 52.05 199.38748Q51.70625 199.8406 51.70625 201.05936Q51.70625 202.1531 52.05 202.60623Q52.409374 203.05936 52.925 203.05936Q53.45625 203.05936 53.8 202.60623Q54.159374 202.1531 54.159374 200.94998Q54.159374 199.8406 53.8 199.38748Q53.45625 198.93436 52.925 198.93436ZM52.940624 210.04373L59.20625 197.9656L60.346874 197.9656L54.096874 210.04373L52.940624 210.04373ZM57.89375 206.93436Q57.89375 205.69998 58.503124 204.8406Q59.128124 203.98123 60.3 203.98123Q61.378124 203.98123 62.08125 204.76248Q62.8 205.5281 62.8 207.01248Q62.8 208.4656 62.08125 209.26248Q61.3625 210.04373 60.315624 210.04373Q59.26875 210.04373 58.58125 209.26248Q57.89375 208.48123 57.89375 206.93436ZM60.346874 204.94998Q59.815624 204.94998 59.45625 205.4031Q59.1125 205.85623 59.1125 207.07498Q59.1125 208.16873 59.45625 208.62186Q59.815624 209.07498 60.33125 209.07498Q60.878124 209.07498 61.221874 208.62186Q61.565624 208.16873 61.565624 206.9656Q61.565624 205.85623 61.20625 205.4031Q60.8625 204.94998 60.346874 204.94998Z" fill-rule="nonzero"/><path stroke="#757575" stroke-width="1.0" stroke-linecap="butt" d="M18.55 193.12186L145.23334 193.12186L159.06685 193.12186" fill-rule="nonzero"/><path fill="#9e9e9e" d="M161.06685 193.12186C161.06685 192.01729 160.17142 191.12186 159.06685 191.12186C157.96228 191.12186 157.06685 192.01729 157.06685 193.12186C157.06685 194.22643 157.96228 195.12186 159.06685 195.12186C160.17142 195.12186 161.06685 194.22643 161.06685 193.12186" fill-rule="nonzero"/><path fill="#efefef" d="M551.6375 69.916664L551.6375 58.46354L553.91876 58.46354L556.6375 66.572914Q557.0125 67.697914 557.1844 68.260414Q557.3719 67.635414 557.79376 66.43229L560.52814 58.46354L562.575 58.46354L562.575 69.916664L561.10626 69.916664L561.10626 60.322914L557.77814 69.916664L556.41876 69.916664L553.10626 60.166664L553.10626 69.916664L551.6375 69.916664ZM569.91876 68.885414Q569.1375 69.55729 568.41876 69.83854Q567.7 70.104164 566.8719 70.104164Q565.4969 70.104164 564.7625 69.43229Q564.02814 68.760414 564.02814 67.729164Q564.02814 67.11979 564.3094 66.61979Q564.59064 66.104164 565.02814 65.80729Q565.48126 65.49479 566.04376 65.33854Q566.46564 65.229164 567.29376 65.135414Q568.9969 64.93229 569.8094 64.65104Q569.8094 64.354164 569.8094 64.27604Q569.8094 63.416664 569.41876 63.072914Q568.8719 62.58854 567.8094 62.58854Q566.825 62.58854 566.34064 62.947914Q565.8719 63.291664 565.65314 64.166664L564.27814 63.979164Q564.46564 63.104164 564.8875 62.55729Q565.325 62.010414 566.1375 61.729164Q566.95 61.43229 568.0125 61.43229Q569.075 61.43229 569.73126 61.68229Q570.40314 61.93229 570.71564 62.30729Q571.02814 62.68229 571.15314 63.260414Q571.23126 63.61979 571.23126 64.55729L571.23126 66.43229Q571.23126 68.40104 571.3094 68.916664Q571.40314 69.43229 571.66876 69.916664L570.2 69.916664Q569.98126 69.479164 569.91876 68.885414ZM569.8094 65.74479Q569.04376 66.05729 567.5125 66.27604Q566.6375 66.40104 566.27814 66.55729Q565.91876 66.71354 565.71564 67.02604Q565.52814 67.322914 565.52814 67.68229Q565.52814 68.24479 565.95 68.61979Q566.3875 68.99479 567.2 68.99479Q568.0125 68.99479 568.6375 68.65104Q569.27814 68.291664 569.575 67.666664Q569.8094 67.197914 569.8094 66.260414L569.8094 65.74479ZM573.5125 73.104164L573.5125 61.61979L574.79376 61.61979L574.79376 62.697914Q575.2469 62.05729 575.8094 61.74479Q576.3875 61.43229 577.2 61.43229Q578.2625 61.43229 579.075 61.979164Q579.8875 62.52604 580.29376 63.52604Q580.71564 64.510414 580.71564 65.697914Q580.71564 66.979164 580.2469 67.99479Q579.79376 69.010414 578.91876 69.55729Q578.0594 70.104164 577.09064 70.104164Q576.3875 70.104164 575.825 69.80729Q575.27814 69.510414 574.91876 69.05729L574.91876 73.104164L573.5125 73.104164ZM574.77814 65.80729Q574.77814 67.416664 575.41876 68.18229Q576.075 68.947914 576.9969 68.947914Q577.9344 68.947914 578.60626 68.15104Q579.27814 67.354164 579.27814 65.697914Q579.27814 64.104164 578.6219 63.322914Q577.96564 62.52604 577.0594 62.52604Q576.16876 62.52604 575.46564 63.36979Q574.77814 64.21354 574.77814 65.80729Z" fill-rule="nonzero"/><path fill="#9e9e9e" d="M550.6219 91.916664L550.6219 89.166664L545.65314 89.166664L545.65314 87.885414L550.8875 80.46354L552.02814 80.46354L552.02814 87.885414L553.575 87.885414L553.575 89.166664L552.02814 89.166664L552.02814 91.916664L550.6219 91.916664ZM550.6219 87.885414L550.6219 82.71354L547.04376 87.885414L550.6219 87.885414ZM555.90314 91.916664L555.90314 90.30729L557.5125 90.30729L557.5125 91.916664L555.90314 91.916664ZM561.27814 85.697914Q560.40314 85.385414 559.98126 84.791664Q559.5594 84.197914 559.5594 83.36979Q559.5594 82.11979 560.45 81.27604Q561.35626 80.416664 562.85626 80.416664Q564.35626 80.416664 565.2625 81.291664Q566.1844 82.15104 566.1844 83.40104Q566.1844 84.197914 565.7625 84.791664Q565.34064 85.385414 564.4969 85.697914Q565.54376 86.041664 566.09064 86.80729Q566.65314 87.572914 566.65314 88.635414Q566.65314 90.104164 565.60626 91.11979Q564.575 92.11979 562.8719 92.11979Q561.1844 92.11979 560.1375 91.11979Q559.10626 90.104164 559.10626 88.604164Q559.10626 87.479164 559.66876 86.729164Q560.23126 85.979164 561.27814 85.697914ZM560.9969 83.322914Q560.9969 84.135414 561.5125 84.65104Q562.04376 85.166664 562.8875 85.166664Q563.7 85.166664 564.21564 84.65104Q564.73126 84.135414 564.73126 83.40104Q564.73126 82.61979 564.2 82.104164Q563.66876 81.572914 562.8719 81.572914Q562.0594 81.572914 561.52814 82.08854Q560.9969 82.604164 560.9969 83.322914ZM560.54376 88.604164Q560.54376 89.21354 560.825 89.77604Q561.1219 90.33854 561.6844 90.65104Q562.2469 90.947914 562.8875 90.947914Q563.90314 90.947914 564.5594 90.30729Q565.21564 89.65104 565.21564 88.65104Q565.21564 87.635414 564.52814 86.979164Q563.85626 86.30729 562.84064 86.30729Q561.85626 86.30729 561.2 86.96354Q560.54376 87.61979 560.54376 88.604164ZM568.3875 83.21354Q568.3875 81.979164 568.9969 81.11979Q569.6219 80.260414 570.79376 80.260414Q571.8719 80.260414 572.575 81.041664Q573.27814 81.80729 573.27814 83.291664Q573.27814 84.74479 572.5594 85.541664Q571.85626 86.322914 570.8094 86.322914Q569.7625 86.322914 569.075 85.55729Q568.3875 84.77604 568.3875 83.21354ZM570.825 81.229164Q570.3094 81.229164 569.95 81.68229Q569.60626 82.135414 569.60626 83.354164Q569.60626 84.447914 569.95 84.90104Q570.3094 85.354164 570.825 85.354164Q571.35626 85.354164 571.7 84.90104Q572.0594 84.447914 572.0594 83.24479Q572.0594 82.135414 571.7 81.68229Q571.35626 81.229164 570.825 81.229164ZM570.84064 92.33854L577.10626 80.260414L578.2469 80.260414L571.9969 92.33854L570.84064 92.33854ZM575.79376 89.229164Q575.79376 87.99479 576.40314 87.135414Q577.02814 86.27604 578.2 86.27604Q579.27814 86.27604 579.98126 87.05729Q580.7 87.822914 580.7 89.30729Q580.7 90.760414 579.98126 91.55729Q579.2625 92.33854 578.21564 92.33854Q577.16876 92.33854 576.48126 91.55729Q575.79376 90.77604 575.79376 89.229164ZM578.2469 87.24479Q577.71564 87.24479 577.35626 87.697914Q577.0125 88.15104 577.0125 89.36979Q577.0125 90.46354 577.35626 90.916664Q577.71564 91.36979 578.23126 91.36979Q578.77814 91.36979 579.1219 90.916664Q579.46564 90.46354 579.46564 89.260414Q579.46564 88.15104 579.10626 87.697914Q578.7625 87.24479 578.2469 87.24479Z" fill-rule="nonzero"/><path stroke="#757575" stroke-width="1.0" stroke-linecap="butt" d="M581.45 75.416664L454.76666 75.416664L321.0639 63.93352" fill-rule="nonzero"/><path fill="#9e9e9e" d="M323.0639 63.93352C323.0639 62.828953 322.16846 61.93352 321.0639 61.93352C319.95932 61.93352 319.0639 62.828953 319.0639 63.93352C319.0639 65.03809 319.95932 65.93352 321.0639 65.93352C322.16846 65.93352 323.0639 65.03809 323.0639 63.93352" fill-rule="nonzero"/><path fill="#efefef" d="M531.6844 110.916664L531.6844 99.46354L536.0125 99.46354Q537.15314 99.46354 537.7469 99.572914Q538.59064 99.71354 539.15314 100.104164Q539.73126 100.49479 540.075 101.21354Q540.4344 101.916664 540.4344 102.77604Q540.4344 104.229164 539.4969 105.24479Q538.575 106.260414 536.1375 106.260414L533.2 106.260414L533.2 110.916664L531.6844 110.916664ZM533.2 104.90104L536.16876 104.90104Q537.6375 104.90104 538.2469 104.354164Q538.8719 103.80729 538.8719 102.822914Q538.8719 102.104164 538.4969 101.58854Q538.1375 101.072914 537.54376 100.916664Q537.16876 100.80729 536.1375 100.80729L533.2 100.80729L533.2 104.90104ZM548.1844 108.24479L549.6375 108.416664Q549.29376 109.697914 548.35626 110.40104Q547.4344 111.104164 545.9969 111.104164Q544.16876 111.104164 543.10626 109.979164Q542.04376 108.854164 542.04376 106.83854Q542.04376 104.74479 543.1219 103.58854Q544.2 102.43229 545.91876 102.43229Q547.575 102.43229 548.6219 103.572914Q549.6844 104.697914 549.6844 106.74479Q549.6844 106.86979 549.6844 107.11979L543.4969 107.11979Q543.575 108.49479 544.2625 109.229164Q544.96564 109.947914 545.9969 109.947914Q546.77814 109.947914 547.325 109.541664Q547.8719 109.135414 548.1844 108.24479ZM543.575 105.96354L548.2 105.96354Q548.10626 104.916664 547.66876 104.40104Q546.9969 103.58854 545.9344 103.58854Q544.96564 103.58854 544.29376 104.24479Q543.6375 104.885414 543.575 105.96354ZM550.98126 106.760414Q550.98126 104.46354 552.2625 103.354164Q553.34064 102.43229 554.8719 102.43229Q556.59064 102.43229 557.66876 103.55729Q558.7625 104.666664 558.7625 106.65104Q558.7625 108.24479 558.27814 109.166664Q557.79376 110.08854 556.8719 110.604164Q555.96564 111.104164 554.8719 111.104164Q553.1375 111.104164 552.0594 109.99479Q550.98126 108.86979 550.98126 106.760414ZM552.4344 106.760414Q552.4344 108.354164 553.1219 109.15104Q553.825 109.947914 554.8719 109.947914Q555.91876 109.947914 556.60626 109.15104Q557.3094 108.354164 557.3094 106.71354Q557.3094 105.18229 556.60626 104.385414Q555.91876 103.58854 554.8719 103.58854Q553.825 103.58854 553.1219 104.385414Q552.4344 105.166664 552.4344 106.760414ZM560.5125 114.104164L560.5125 102.61979L561.79376 102.61979L561.79376 103.697914Q562.2469 103.05729 562.8094 102.74479Q563.3875 102.43229 564.2 102.43229Q565.2625 102.43229 566.075 102.979164Q566.8875 103.52604 567.29376 104.52604Q567.71564 105.510414 567.71564 106.697914Q567.71564 107.979164 567.2469 108.99479Q566.79376 110.010414 565.91876 110.55729Q565.0594 111.104164 564.09064 111.104164Q563.3875 111.104164 562.825 110.80729Q562.27814 110.510414 561.91876 110.05729L561.91876 114.104164L560.5125 114.104164ZM561.77814 106.80729Q561.77814 108.416664 562.41876 109.18229Q563.075 109.947914 563.9969 109.947914Q564.9344 109.947914 565.60626 109.15104Q566.27814 108.354164 566.27814 106.697914Q566.27814 105.104164 565.6219 104.322914Q564.96564 103.52604 564.0594 103.52604Q563.16876 103.52604 562.46564 104.36979Q561.77814 105.21354 561.77814 106.80729ZM569.48126 110.916664L569.48126 99.46354L570.8875 99.46354L570.8875 110.916664L569.48126 110.916664ZM579.1844 108.24479L580.6375 108.416664Q580.29376 109.697914 579.35626 110.40104Q578.4344 111.104164 576.9969 111.104164Q575.16876 111.104164 574.10626 109.979164Q573.04376 108.854164 573.04376 106.83854Q573.04376 104.74479 574.1219 103.58854Q575.2 102.43229 576.91876 102.43229Q578.575 102.43229 579.6219 103.572914Q580.6844 104.697914 580.6844 106.74479Q580.6844 106.86979 580.6844 107.11979L574.4969 107.11979Q574.575 108.49479 575.2625 109.229164Q575.96564 109.947914 576.9969 109.947914Q577.77814 109.947914 578.325 109.541664Q578.8719 109.135414 579.1844 108.24479ZM574.575 105.96354L579.2 105.96354Q579.10626 104.916664 578.66876 104.40104Q577.9969 103.58854 576.9344 103.58854Q575.96564 103.58854 575.29376 104.24479Q574.6375 104.885414 574.575 105.96354Z" fill-rule="nonzero"/><path fill="#9e9e9e" d="M542.41876 132.91667L541.0125 132.91667L541.0125 123.94792Q540.4969 124.4323 539.66876 124.91667Q538.85626 125.40105 538.2 125.65105L538.2 124.29167Q539.3719 123.72917 540.2469 122.94792Q541.1375 122.15105 541.5125 121.41667L542.41876 121.41667L542.41876 132.91667ZM550.6219 132.91667L550.6219 130.16667L545.65314 130.16667L545.65314 128.88542L550.8875 121.46355L552.02814 121.46355L552.02814 128.88542L553.575 128.88542L553.575 130.16667L552.02814 130.16667L552.02814 132.91667L550.6219 132.91667ZM550.6219 128.88542L550.6219 123.71355L547.04376 128.88542L550.6219 128.88542ZM555.90314 132.91667L555.90314 131.3073L557.5125 131.3073L557.5125 132.91667L555.90314 132.91667ZM559.1219 129.88542L560.52814 129.69792Q560.77814 130.90105 561.35626 131.4323Q561.9344 131.94792 562.77814 131.94792Q563.7625 131.94792 564.45 131.26042Q565.1375 130.57292 565.1375 129.5573Q565.1375 128.58855 564.4969 127.96355Q563.8719 127.33855 562.8875 127.33855Q562.4969 127.33855 561.90314 127.4948L562.0594 126.26042Q562.2 126.27605 562.27814 126.27605Q563.1844 126.27605 563.90314 125.8073Q564.6219 125.33855 564.6219 124.35417Q564.6219 123.58855 564.09064 123.08855Q563.575 122.57292 562.7469 122.57292Q561.91876 122.57292 561.3719 123.08855Q560.825 123.60417 560.66876 124.63542L559.2625 124.38542Q559.52814 122.96355 560.4344 122.19792Q561.35626 121.41667 562.71564 121.41667Q563.65314 121.41667 564.4344 121.82292Q565.23126 122.21355 565.6375 122.91667Q566.0594 123.60417 566.0594 124.38542Q566.0594 125.13542 565.65314 125.7448Q565.2625 126.35417 564.48126 126.71355Q565.4969 126.94792 566.0594 127.6823Q566.6219 128.41667 566.6219 129.52605Q566.6219 131.02605 565.52814 132.07292Q564.4344 133.1198 562.7625 133.1198Q561.2625 133.1198 560.2625 132.22917Q559.2625 131.32292 559.1219 129.88542ZM568.3875 124.21355Q568.3875 122.97917 568.9969 122.1198Q569.6219 121.26042 570.79376 121.26042Q571.8719 121.26042 572.575 122.04167Q573.27814 122.8073 573.27814 124.29167Q573.27814 125.7448 572.5594 126.54167Q571.85626 127.32292 570.8094 127.32292Q569.7625 127.32292 569.075 126.5573Q568.3875 125.77605 568.3875 124.21355ZM570.825 122.22917Q570.3094 122.22917 569.95 122.6823Q569.60626 123.13542 569.60626 124.35417Q569.60626 125.44792 569.95 125.90105Q570.3094 126.35417 570.825 126.35417Q571.35626 126.35417 571.7 125.90105Q572.0594 125.44792 572.0594 124.2448Q572.0594 123.13542 571.7 122.6823Q571.35626 122.22917 570.825 122.22917ZM570.84064 133.33855L577.10626 121.26042L578.2469 121.26042L571.9969 133.33855L570.84064 133.33855ZM575.79376 130.22917Q575.79376 128.9948 576.40314 128.13542Q577.02814 127.27605 578.2 127.27605Q579.27814 127.27605 579.98126 128.0573Q580.7 128.82292 580.7 130.3073Q580.7 131.76042 579.98126 132.5573Q579.2625 133.33855 578.21564 133.33855Q577.16876 133.33855 576.48126 132.5573Q575.79376 131.77605 575.79376 130.22917ZM578.2469 128.2448Q577.71564 128.2448 577.35626 128.69792Q577.0125 129.15105 577.0125 130.3698Q577.0125 131.46355 577.35626 131.91667Q577.71564 132.3698 578.23126 132.3698Q578.77814 132.3698 579.1219 131.91667Q579.46564 131.46355 579.46564 130.26042Q579.46564 129.15105 579.10626 128.69792Q578.7625 128.2448 578.2469 128.2448Z" fill-rule="nonzero"/><path stroke="#757575" stroke-width="1.0" stroke-linecap="butt" d="M581.45 116.416664L454.76666 116.416664L396.1277 100.08234" fill-rule="nonzero"/><path fill="#9e9e9e" d="M398.1277 100.08234C398.1277 98.97777 397.23224 98.08234 396.1277 98.08234C395.0231 98.08234 394.1277 98.97777 394.1277 100.08234C394.1277 101.186905 395.0231 102.08234 396.1277 102.08234C397.23224 102.08234 398.1277 101.186905 398.1277 100.08234" fill-rule="nonzero"/><path fill="#efefef" d="M491.66876 301.78433L491.66876 290.3312L493.23126 290.3312L499.2469 299.31558L499.2469 290.3312L500.7 290.3312L500.7 301.78433L499.1375 301.78433L493.1219 292.78433L493.1219 301.78433L491.66876 301.78433ZM508.91876 300.75308Q508.1375 301.42496 507.41876 301.7062Q506.7 301.97183 505.8719 301.97183Q504.4969 301.97183 503.7625 301.29996Q503.02814 300.62808 503.02814 299.59683Q503.02814 298.98746 503.3094 298.48746Q503.59064 297.97183 504.02814 297.67496Q504.48126 297.36246 505.04376 297.2062Q505.46564 297.09683 506.29376 297.00308Q507.9969 296.79996 508.8094 296.5187Q508.8094 296.22183 508.8094 296.1437Q508.8094 295.28433 508.41876 294.94058Q507.8719 294.4562 506.8094 294.4562Q505.825 294.4562 505.34064 294.81558Q504.8719 295.15933 504.65314 296.03433L503.27814 295.84683Q503.46564 294.97183 503.8875 294.42496Q504.325 293.87808 505.1375 293.59683Q505.95 293.29996 507.0125 293.29996Q508.075 293.29996 508.73126 293.54996Q509.40314 293.79996 509.71564 294.17496Q510.02814 294.54996 510.15314 295.12808Q510.23126 295.48746 510.23126 296.42496L510.23126 298.29996Q510.23126 300.2687 510.3094 300.78433Q510.40314 301.29996 510.66876 301.78433L509.2 301.78433Q508.98126 301.34683 508.91876 300.75308ZM508.8094 297.61246Q508.04376 297.92496 506.5125 298.1437Q505.6375 298.2687 505.27814 298.42496Q504.91876 298.5812 504.71564 298.8937Q504.52814 299.19058 504.52814 299.54996Q504.52814 300.11246 504.95 300.48746Q505.3875 300.86246 506.2 300.86246Q507.0125 300.86246 507.6375 300.5187Q508.27814 300.15933 508.575 299.53433Q508.8094 299.06558 508.8094 298.12808L508.8094 297.61246ZM515.575 300.5187L515.77814 301.7687Q515.1844 301.8937 514.71564 301.8937Q513.95 301.8937 513.52814 301.65933Q513.10626 301.40933 512.9344 301.0187Q512.7625 300.61246 512.7625 299.34683L512.7625 294.5812L511.73126 294.5812L511.73126 293.48746L512.7625 293.48746L512.7625 291.42496L514.16876 290.5812L514.16876 293.48746L515.575 293.48746L515.575 294.5812L514.16876 294.5812L514.16876 299.42496Q514.16876 300.03433 514.23126 300.2062Q514.3094 300.37808 514.48126 300.48746Q514.65314 300.5812 514.96564 300.5812Q515.2 300.5812 515.575 300.5187ZM521.95 301.78433L521.95 300.56558Q520.98126 301.97183 519.3094 301.97183Q518.575 301.97183 517.9344 301.69058Q517.3094 301.40933 516.9969 300.98746Q516.6844 300.54996 516.5594 299.94058Q516.48126 299.5187 516.48126 298.62808L516.48126 293.48746L517.8875 293.48746L517.8875 298.0812Q517.8875 299.19058 517.96564 299.56558Q518.10626 300.12808 518.52814 300.44058Q518.96564 300.75308 519.59064 300.75308Q520.23126 300.75308 520.77814 300.44058Q521.34064 300.11246 521.5594 299.54996Q521.79376 298.98746 521.79376 297.92496L521.79376 293.48746L523.2 293.48746L523.2 301.78433L521.95 301.78433ZM525.4969 301.78433L525.4969 293.48746L526.7625 293.48746L526.7625 294.73746Q527.2469 293.86246 527.65314 293.5812Q528.0594 293.29996 528.5594 293.29996Q529.2625 293.29996 529.9969 293.75308L529.5125 295.04996Q528.9969 294.75308 528.48126 294.75308Q528.02814 294.75308 527.65314 295.03433Q527.29376 295.29996 527.1375 295.79996Q526.90314 296.54996 526.90314 297.44058L526.90314 301.78433L525.4969 301.78433ZM536.1844 299.11246L537.6375 299.28433Q537.29376 300.56558 536.35626 301.2687Q535.4344 301.97183 533.9969 301.97183Q532.16876 301.97183 531.10626 300.84683Q530.04376 299.72183 530.04376 297.7062Q530.04376 295.61246 531.1219 294.4562Q532.2 293.29996 533.91876 293.29996Q535.575 293.29996 536.6219 294.44058Q537.6844 295.56558 537.6844 297.61246Q537.6844 297.73746 537.6844 297.98746L531.4969 297.98746Q531.575 299.36246 532.2625 300.09683Q532.96564 300.81558 533.9969 300.81558Q534.77814 300.81558 535.325 300.40933Q535.8719 300.00308 536.1844 299.11246ZM531.575 296.8312L536.2 296.8312Q536.10626 295.78433 535.66876 295.2687Q534.9969 294.4562 533.9344 294.4562Q532.96564 294.4562 532.29376 295.11246Q531.6375 295.75308 531.575 296.8312ZM538.95 299.29996L540.34064 299.0812Q540.45 299.92496 540.98126 300.37808Q541.52814 300.81558 542.48126 300.81558Q543.45 300.81558 543.91876 300.42496Q544.3875 300.0187 544.3875 299.48746Q544.3875 299.0187 543.98126 298.73746Q543.6844 298.54996 542.54376 298.2687Q540.9969 297.87808 540.3875 297.59683Q539.79376 297.29996 539.48126 296.79996Q539.1844 296.29996 539.1844 295.69058Q539.1844 295.12808 539.4344 294.65933Q539.6844 294.19058 540.1219 293.87808Q540.45 293.62808 541.0125 293.47183Q541.59064 293.29996 542.23126 293.29996Q543.21564 293.29996 543.95 293.5812Q544.6844 293.86246 545.02814 294.34683Q545.3875 294.81558 545.52814 295.62808L544.15314 295.81558Q544.0594 295.17496 543.60626 294.81558Q543.15314 294.4562 542.34064 294.4562Q541.3719 294.4562 540.95 294.78433Q540.54376 295.09683 540.54376 295.5187Q540.54376 295.79996 540.71564 296.0187Q540.8875 296.23746 541.2469 296.3937Q541.46564 296.47183 542.4969 296.75308Q543.98126 297.1437 544.575 297.40933Q545.16876 297.65933 545.4969 298.1437Q545.84064 298.62808 545.84064 299.34683Q545.84064 300.04996 545.41876 300.67496Q545.0125 301.28433 544.23126 301.62808Q543.46564 301.97183 542.4969 301.97183Q540.8719 301.97183 540.02814 301.29996Q539.1844 300.62808 538.95 299.29996ZM552.91876 298.73746L554.3094 298.92496Q554.075 300.34683 553.1375 301.15933Q552.21564 301.97183 550.85626 301.97183Q549.15314 301.97183 548.10626 300.86246Q547.075 299.73746 547.075 297.65933Q547.075 296.31558 547.5125 295.31558Q547.96564 294.29996 548.8719 293.79996Q549.79376 293.29996 550.85626 293.29996Q552.21564 293.29996 553.075 293.98746Q553.9344 294.65933 554.16876 295.92496L552.8094 296.12808Q552.60626 295.29996 552.10626 294.87808Q551.6219 294.4562 550.91876 294.4562Q549.85626 294.4562 549.1844 295.22183Q548.52814 295.97183 548.52814 297.62808Q548.52814 299.29996 549.16876 300.06558Q549.8094 300.81558 550.84064 300.81558Q551.66876 300.81558 552.21564 300.31558Q552.77814 299.79996 552.91876 298.73746ZM560.91876 300.75308Q560.1375 301.42496 559.41876 301.7062Q558.7 301.97183 557.8719 301.97183Q556.4969 301.97183 555.7625 301.29996Q555.02814 300.62808 555.02814 299.59683Q555.02814 298.98746 555.3094 298.48746Q555.59064 297.97183 556.02814 297.67496Q556.48126 297.36246 557.04376 297.2062Q557.46564 297.09683 558.29376 297.00308Q559.9969 296.79996 560.8094 296.5187Q560.8094 296.22183 560.8094 296.1437Q560.8094 295.28433 560.41876 294.94058Q559.8719 294.4562 558.8094 294.4562Q557.825 294.4562 557.34064 294.81558Q556.8719 295.15933 556.65314 296.03433L555.27814 295.84683Q555.46564 294.97183 555.8875 294.42496Q556.325 293.87808 557.1375 293.59683Q557.95 293.29996 559.0125 293.29996Q560.075 293.29996 560.73126 293.54996Q561.40314 293.79996 561.71564 294.17496Q562.02814 294.54996 562.15314 295.12808Q562.23126 295.48746 562.23126 296.42496L562.23126 298.29996Q562.23126 300.2687 562.3094 300.78433Q562.40314 301.29996 562.66876 301.78433L561.2 301.78433Q560.98126 301.34683 560.91876 300.75308ZM560.8094 297.61246Q560.04376 297.92496 558.5125 298.1437Q557.6375 298.2687 557.27814 298.42496Q556.91876 298.5812 556.71564 298.8937Q556.52814 299.19058 556.52814 299.54996Q556.52814 300.11246 556.95 300.48746Q557.3875 300.86246 558.2 300.86246Q559.0125 300.86246 559.6375 300.5187Q560.27814 300.15933 560.575 299.53433Q560.8094 299.06558 560.8094 298.12808L560.8094 297.61246ZM564.5125 304.97183L564.5125 293.48746L565.79376 293.48746L565.79376 294.56558Q566.2469 293.92496 566.8094 293.61246Q567.3875 293.29996 568.2 293.29996Q569.2625 293.29996 570.075 293.84683Q570.8875 294.3937 571.29376 295.3937Q571.71564 296.37808 571.71564 297.56558Q571.71564 298.84683 571.2469 299.86246Q570.79376 300.87808 569.91876 301.42496Q569.0594 301.97183 568.09064 301.97183Q567.3875 301.97183 566.825 301.67496Q566.27814 301.37808 565.91876 300.92496L565.91876 304.97183L564.5125 304.97183ZM565.77814 297.67496Q565.77814 299.28433 566.41876 300.04996Q567.075 300.81558 567.9969 300.81558Q568.9344 300.81558 569.60626 300.0187Q570.27814 299.22183 570.27814 297.56558Q570.27814 295.97183 569.6219 295.19058Q568.96564 294.3937 568.0594 294.3937Q567.16876 294.3937 566.46564 295.23746Q565.77814 296.0812 565.77814 297.67496ZM579.1844 299.11246L580.6375 299.28433Q580.29376 300.56558 579.35626 301.2687Q578.4344 301.97183 576.9969 301.97183Q575.16876 301.97183 574.10626 300.84683Q573.04376 299.72183 573.04376 297.7062Q573.04376 295.61246 574.1219 294.4562Q575.2 293.29996 576.91876 293.29996Q578.575 293.29996 579.6219 294.44058Q580.6844 295.56558 580.6844 297.61246Q580.6844 297.73746 580.6844 297.98746L574.4969 297.98746Q574.575 299.36246 575.2625 300.09683Q575.96564 300.81558 576.9969 300.81558Q577.77814 300.81558 578.325 300.40933Q578.8719 300.00308 579.1844 299.11246ZM574.575 296.8312L579.2 296.8312Q579.10626 295.78433 578.66876 295.2687Q577.9969 294.4562 576.9344 294.4562Q575.96564 294.4562 575.29376 295.11246Q574.6375 295.75308 574.575 296.8312Z" fill-rule="nonzero"/><path fill="#9e9e9e" d="M537.1219 320.75308L538.52814 320.56558Q538.77814 321.7687 539.35626 322.29996Q539.9344 322.81558 540.77814 322.81558Q541.7625 322.81558 542.45 322.12808Q543.1375 321.44058 543.1375 320.42496Q543.1375 319.4562 542.4969 318.8312Q541.8719 318.2062 540.8875 318.2062Q540.4969 318.2062 539.90314 318.36246L540.0594 317.12808Q540.2 317.1437 540.27814 317.1437Q541.1844 317.1437 541.90314 316.67496Q542.6219 316.2062 542.6219 315.22183Q542.6219 314.4562 542.09064 313.9562Q541.575 313.44058 540.7469 313.44058Q539.91876 313.44058 539.3719 313.9562Q538.825 314.47183 538.66876 315.50308L537.2625 315.25308Q537.52814 313.8312 538.4344 313.06558Q539.35626 312.28433 540.71564 312.28433Q541.65314 312.28433 542.4344 312.69058Q543.23126 313.0812 543.6375 313.78433Q544.0594 314.47183 544.0594 315.25308Q544.0594 316.00308 543.65314 316.61246Q543.2625 317.22183 542.48126 317.5812Q543.4969 317.81558 544.0594 318.54996Q544.6219 319.28433 544.6219 320.3937Q544.6219 321.8937 543.52814 322.94058Q542.4344 323.98746 540.7625 323.98746Q539.2625 323.98746 538.2625 323.09683Q537.2625 322.19058 537.1219 320.75308ZM548.27814 317.56558Q547.40314 317.25308 546.98126 316.65933Q546.5594 316.06558 546.5594 315.23746Q546.5594 313.98746 547.45 313.1437Q548.35626 312.28433 549.85626 312.28433Q551.35626 312.28433 552.2625 313.15933Q553.1844 314.0187 553.1844 315.2687Q553.1844 316.06558 552.7625 316.65933Q552.34064 317.25308 551.4969 317.56558Q552.54376 317.90933 553.09064 318.67496Q553.65314 319.44058 553.65314 320.50308Q553.65314 321.97183 552.60626 322.98746Q551.575 323.98746 549.8719 323.98746Q548.1844 323.98746 547.1375 322.98746Q546.10626 321.97183 546.10626 320.47183Q546.10626 319.34683 546.66876 318.59683Q547.23126 317.84683 548.27814 317.56558ZM547.9969 315.19058Q547.9969 316.00308 548.5125 316.5187Q549.04376 317.03433 549.8875 317.03433Q550.7 317.03433 551.21564 316.5187Q551.73126 316.00308 551.73126 315.2687Q551.73126 314.48746 551.2 313.97183Q550.66876 313.44058 549.8719 313.44058Q549.0594 313.44058 548.52814 313.9562Q547.9969 314.47183 547.9969 315.19058ZM547.54376 320.47183Q547.54376 321.0812 547.825 321.6437Q548.1219 322.2062 548.6844 322.5187Q549.2469 322.81558 549.8875 322.81558Q550.90314 322.81558 551.5594 322.17496Q552.21564 321.5187 552.21564 320.5187Q552.21564 319.50308 551.52814 318.84683Q550.85626 318.17496 549.84064 318.17496Q548.85626 318.17496 548.2 318.8312Q547.54376 319.48746 547.54376 320.47183ZM555.90314 323.78433L555.90314 322.17496L557.5125 322.17496L557.5125 323.78433L555.90314 323.78433ZM564.41876 323.78433L563.0125 323.78433L563.0125 314.81558Q562.4969 315.29996 561.66876 315.78433Q560.85626 316.2687 560.2 316.5187L560.2 315.15933Q561.3719 314.59683 562.2469 313.81558Q563.1375 313.0187 563.5125 312.28433L564.41876 312.28433L564.41876 323.78433ZM568.3875 315.0812Q568.3875 313.84683 568.9969 312.98746Q569.6219 312.12808 570.79376 312.12808Q571.8719 312.12808 572.575 312.90933Q573.27814 313.67496 573.27814 315.15933Q573.27814 316.61246 572.5594 317.40933Q571.85626 318.19058 570.8094 318.19058Q569.7625 318.19058 569.075 317.42496Q568.3875 316.6437 568.3875 315.0812ZM570.825 313.09683Q570.3094 313.09683 569.95 313.54996Q569.60626 314.00308 569.60626 315.22183Q569.60626 316.31558 569.95 316.7687Q570.3094 317.22183 570.825 317.22183Q571.35626 317.22183 571.7 316.7687Q572.0594 316.31558 572.0594 315.11246Q572.0594 314.00308 571.7 313.54996Q571.35626 313.09683 570.825 313.09683ZM570.84064 324.2062L577.10626 312.12808L578.2469 312.12808L571.9969 324.2062L570.84064 324.2062ZM575.79376 321.09683Q575.79376 319.86246 576.40314 319.00308Q577.02814 318.1437 578.2 318.1437Q579.27814 318.1437 579.98126 318.92496Q580.7 319.69058 580.7 321.17496Q580.7 322.62808 579.98126 323.42496Q579.2625 324.2062 578.21564 324.2062Q577.16876 324.2062 576.48126 323.42496Q575.79376 322.6437 575.79376 321.09683ZM578.2469 319.11246Q577.71564 319.11246 577.35626 319.56558Q577.0125 320.0187 577.0125 321.23746Q577.0125 322.3312 577.35626 322.78433Q577.71564 323.23746 578.23126 323.23746Q578.77814 323.23746 579.1219 322.78433Q579.46564 322.3312 579.46564 321.12808Q579.46564 320.0187 579.10626 319.56558Q578.7625 319.11246 578.2469 319.11246Z" fill-rule="nonzero"/><path stroke="#757575" stroke-width="1.0" stroke-linecap="butt" d="M581.45 307.28433L454.76666 307.28433L396.1277 307.28433" fill-rule="nonzero"/><path fill="#9e9e9e" d="M398.1277 307.28433C398.1277 306.17975 397.23224 305.28433 396.1277 305.28433C395.0231 305.28433 394.1277 306.17975 394.1277 307.28433C394.1277 308.38892 395.0231 309.28433 396.1277 309.28433C397.23224 309.28433 398.1277 308.38892 398.1277 307.28433" fill-rule="nonzero"/><path fill="#f3f3f3" d="M265.98438 37.55L265.98438 23.2375L268.84375 23.2375L272.21875 33.3625Q272.6875 34.784374 272.90625 35.4875Q273.15625 34.70625 273.67188 33.190624L277.09375 23.2375L279.64062 23.2375L279.64062 37.55L277.82812 37.55L277.82812 25.565624L273.65625 37.55L271.95312 37.55L267.8125 25.3625L267.8125 37.55L265.98438 37.55ZM289.92188 34.20625L291.73438 34.440624Q291.3125 36.01875 290.14062 36.909374Q288.98438 37.784374 287.17188 37.784374Q284.90625 37.784374 283.5625 36.39375Q282.23438 34.9875 282.23438 32.45625Q282.23438 29.83125 283.57812 28.39375Q284.92188 26.940624 287.07812 26.940624Q289.15625 26.940624 290.46875 28.3625Q291.79688 29.76875 291.79688 32.346874Q291.79688 32.503124 291.78125 32.815624L284.04688 32.815624Q284.14062 34.51875 285.01562 35.425Q285.89062 36.33125 287.1875 36.33125Q288.15625 36.33125 288.82812 35.83125Q289.51562 35.315624 289.92188 34.20625ZM284.14062 31.3625L289.9375 31.3625Q289.82812 30.065624 289.28125 29.409374Q288.4375 28.39375 287.09375 28.39375Q285.89062 28.39375 285.0625 29.20625Q284.23438 30.003124 284.14062 31.3625ZM300.54688 37.55L300.54688 36.2375Q299.5625 37.784374 297.64062 37.784374Q296.40625 37.784374 295.35938 37.096874Q294.32812 36.409374 293.75 35.190624Q293.1875 33.971874 293.1875 32.378124Q293.1875 30.815624 293.70312 29.55Q294.21875 28.284374 295.25 27.6125Q296.29688 26.940624 297.5625 26.940624Q298.5 26.940624 299.23438 27.346874Q299.96875 27.7375 300.4375 28.3625L300.4375 23.2375L302.17188 23.2375L302.17188 37.55L300.54688 37.55ZM294.98438 32.378124Q294.98438 34.3625 295.82812 35.346874Q296.67188 36.33125 297.8125 36.33125Q298.96875 36.33125 299.76562 35.39375Q300.57812 34.45625 300.57812 32.51875Q300.57812 30.39375 299.75 29.39375Q298.9375 28.39375 297.73438 28.39375Q296.5625 28.39375 295.76562 29.3625Q294.98438 30.315624 294.98438 32.378124ZM304.82812 25.253124L304.82812 23.2375L306.59375 23.2375L306.59375 25.253124L304.82812 25.253124ZM304.82812 37.55L304.82812 27.175L306.59375 27.175L306.59375 37.55L304.82812 37.55ZM315.60938 37.55L315.60938 36.01875Q314.40625 37.784374 312.32812 37.784374Q311.40625 37.784374 310.60938 37.440624Q309.8125 37.08125 309.42188 36.55Q309.04688 36.01875 308.89062 35.2375Q308.78125 34.721874 308.78125 33.596874L308.78125 27.175L310.53125 27.175L310.53125 32.925Q310.53125 34.3 310.64062 34.784374Q310.8125 35.471874 311.34375 35.878124Q311.89062 36.26875 312.67188 36.26875Q313.46875 36.26875 314.15625 35.8625Q314.85938 35.45625 315.14062 34.76875Q315.4375 34.065624 315.4375 32.7375L315.4375 27.175L317.1875 27.175L317.1875 37.55L315.60938 37.55ZM319.8125 37.55L319.8125 27.175L321.39062 27.175L321.39062 28.628124Q321.875 27.878124 322.6875 27.409374Q323.5 26.940624 324.53125 26.940624Q325.6875 26.940624 326.42188 27.425Q327.15625 27.89375 327.46875 28.753124Q328.70312 26.940624 330.67188 26.940624Q332.21875 26.940624 333.04688 27.8Q333.875 28.659374 333.875 30.425L333.875 37.55L332.125 37.55L332.125 31.01875Q332.125 29.95625 331.95312 29.503124Q331.78125 29.034374 331.32812 28.753124Q330.89062 28.471874 330.28125 28.471874Q329.1875 28.471874 328.45312 29.20625Q327.73438 29.925 327.73438 31.51875L327.73438 37.55L325.98438 37.55L325.98438 30.815624Q325.98438 29.64375 325.54688 29.065624Q325.125 28.471874 324.14062 28.471874Q323.40625 28.471874 322.76562 28.8625Q322.14062 29.253124 321.85938 30.003124Q321.57812 30.753124 321.57812 32.175L321.57812 37.55L319.8125 37.55Z" fill-rule="nonzero"/></svg>