<svg version="1.1" viewBox="0.0 0.0 600.0 371.0" fill="none" stroke="none" stroke-linecap="square" stroke-miterlimit="10" width="600" height="371" xmlns:xlink="http://www.w3.org/1999/xlink" xmlns="http://www.w3.org/2000/svg"><path fill="#ffffff" fill-opacity="0.0" d="M0 0L600.0 0L600.0 371.0L0 371.0L0 0Z" fill-rule="nonzero"/><path fill="#f5ee58" d="M300.0 54.916668C382.16156 54.916668 448.76666 121.521774 448.76666 203.68333C448.76666 285.8449 382.16156 352.45 300.0 352.45L300.0 278.06668C341.08078 278.06668 374.38333 244.76411 374.38333 203.68333C374.38333 162.60255 341.08078 129.3 300.0 129.3Z" fill-rule="nonzero"/><path fill="#78a94e" d="M151.23334 203.68333C151.23334 121.521774 217.83844 54.916668 300.0 54.916668L300.0 129.3C258.91922 129.3 225.61667 162.60255 225.61667 203.68333Z" fill-rule="nonzero"/><path fill="#b3ca48" d="M300.0 352.45C217.83844 352.45 151.23334 285.8449 151.23334 203.68333L225.61667 203.68333C225.61667 244.76411 258.91922 278.06668 300.0 278.06668Z" fill-rule="nonzero"/><path fill="#ffffff" d="M386.825 206.80833L388.48126 206.66771Q388.66876 207.88646 389.34064 208.49583Q390.0125 209.10521 390.96564 209.10521Q392.10626 209.10521 392.8875 208.24583Q393.6844 207.38646 393.6844 205.94896Q393.6844 204.60521 392.91876 203.82396Q392.16876 203.04271 390.9344 203.04271Q390.16876 203.04271 389.54376 203.38646Q388.9344 203.73021 388.59064 204.29271L387.10626 204.08958L388.35626 197.48021L394.7625 197.48021L394.7625 198.98021L389.6219 198.98021L388.91876 202.44896Q390.09064 201.63646 391.35626 201.63646Q393.04376 201.63646 394.2 202.80833Q395.3719 203.98021 395.3719 205.80833Q395.3719 207.55833 394.34064 208.83958Q393.10626 210.40208 390.96564 210.40208Q389.2 210.40208 388.09064 209.41771Q386.98126 208.43333 386.825 206.80833ZM396.825 203.82396Q396.825 201.54271 397.29376 200.15208Q397.7625 198.76146 398.6844 198.01146Q399.6219 197.24583 401.02814 197.24583Q402.0594 197.24583 402.84064 197.66771Q403.6219 198.07396 404.1219 198.87083Q404.6375 199.65208 404.9344 200.79271Q405.23126 201.91771 405.23126 203.82396Q405.23126 206.08958 404.7625 207.49583Q404.29376 208.88646 403.35626 209.65208Q402.4344 210.40208 401.02814 210.40208Q399.15314 210.40208 398.09064 209.07396Q396.825 207.46458 396.825 203.82396ZM398.45 203.82396Q398.45 206.99583 399.1844 208.05833Q399.9344 209.10521 401.02814 209.10521Q402.10626 209.10521 402.85626 208.05833Q403.60626 206.99583 403.60626 203.82396Q403.60626 200.65208 402.85626 199.60521Q402.10626 198.55833 401.0125 198.55833Q399.91876 198.55833 399.2625 199.48021Q398.45 200.65208 398.45 203.82396ZM407.71564 210.18333L407.71564 208.38646L409.5125 208.38646L409.5125 210.18333L407.71564 210.18333ZM411.825 203.82396Q411.825 201.54271 412.29376 200.15208Q412.7625 198.76146 413.6844 198.01146Q414.6219 197.24583 416.02814 197.24583Q417.0594 197.24583 417.84064 197.66771Q418.6219 198.07396 419.1219 198.87083Q419.6375 199.65208 419.9344 200.79271Q420.23126 201.91771 420.23126 203.82396Q420.23126 206.08958 419.7625 207.49583Q419.29376 208.88646 418.35626 209.65208Q417.4344 210.40208 416.02814 210.40208Q414.15314 210.40208 413.09064 209.07396Q411.825 207.46458 411.825 203.82396ZM413.45 203.82396Q413.45 206.99583 414.1844 208.05833Q414.9344 209.10521 416.02814 209.10521Q417.10626 209.10521 417.85626 208.05833Q418.60626 206.99583 418.60626 203.82396Q418.60626 200.65208 417.85626 199.60521Q417.10626 198.55833 416.0125 198.55833Q414.91876 198.55833 414.2625 199.48021Q413.45 200.65208 413.45 203.82396ZM422.1219 200.38646Q422.1219 199.01146 422.8094 198.04271Q423.5125 197.07396 424.825 197.07396Q426.04376 197.07396 426.84064 197.94896Q427.6375 198.80833 427.6375 200.49583Q427.6375 202.12083 426.825 203.01146Q426.02814 203.88646 424.84064 203.88646Q423.6844 203.88646 422.90314 203.02708Q422.1219 202.15208 422.1219 200.38646ZM424.8719 198.16771Q424.27814 198.16771 423.8875 198.68333Q423.4969 199.18333 423.4969 200.54271Q423.4969 201.79271 423.8875 202.29271Q424.29376 202.79271 424.8719 202.79271Q425.46564 202.79271 425.85626 202.29271Q426.2469 201.77708 426.2469 200.43333Q426.2469 199.18333 425.85626 198.68333Q425.46564 198.16771 424.8719 198.16771ZM424.8875 210.65208L431.9344 197.07396L433.21564 197.07396L426.1844 210.65208L424.8875 210.65208ZM430.45 207.15208Q430.45 205.77708 431.1375 204.80833Q431.84064 203.83958 433.16876 203.83958Q434.3875 203.83958 435.16876 204.71458Q435.96564 205.57396 435.96564 207.26146Q435.96564 208.88646 435.16876 209.77708Q434.3719 210.65208 433.1844 210.65208Q432.0125 210.65208 431.23126 209.77708Q430.45 208.90208 430.45 207.15208ZM433.21564 204.93333Q432.6219 204.93333 432.23126 205.44896Q431.84064 205.94896 431.84064 207.32396Q431.84064 208.54271 432.23126 209.05833Q432.6219 209.57396 433.2 209.57396Q433.8094 209.57396 434.2 209.05833Q434.59064 208.54271 434.59064 207.19896Q434.59064 205.94896 434.2 205.44896Q433.8094 204.93333 433.21564 204.93333Z" fill-rule="nonzero"/><path fill="#ffffff" d="M204.66707 287.56314L204.66707 289.07877L196.15144 289.07877Q196.13582 288.50064 196.33894 287.98502Q196.66707 287.11002 197.3702 286.26627Q198.08894 285.42252 199.44832 284.31314Q201.54207 282.5944 202.27644 281.5944Q203.02644 280.57877 203.02644 279.68814Q203.02644 278.73502 202.35457 278.0944Q201.6827 277.45377 200.60457 277.45377Q199.44832 277.45377 198.76082 278.14127Q198.08894 278.82877 198.07332 280.0319L196.44832 279.86002Q196.6202 278.04752 197.69832 277.0944Q198.79207 276.14127 200.63582 276.14127Q202.47957 276.14127 203.5577 277.17252Q204.65144 278.20377 204.65144 279.7194Q204.65144 280.48502 204.32332 281.23502Q204.01082 281.98502 203.27644 282.81314Q202.54207 283.64127 200.83894 285.07877Q199.41707 286.2819 199.01082 286.70377Q198.60457 287.12564 198.35457 287.56314L204.66707 287.56314ZM206.35457 285.70377L208.01082 285.56314Q208.19832 286.7819 208.8702 287.39127Q209.54207 288.00064 210.4952 288.00064Q211.63582 288.00064 212.41707 287.14127Q213.21394 286.2819 213.21394 284.8444Q213.21394 283.50064 212.44832 282.7194Q211.69832 281.93814 210.46394 281.93814Q209.69832 281.93814 209.07332 282.2819Q208.46394 282.62564 208.1202 283.18814L206.63582 282.98502L207.88582 276.37564L214.29207 276.37564L214.29207 277.87564L209.15144 277.87564L208.44832 281.3444Q209.6202 280.5319 210.88582 280.5319Q212.57332 280.5319 213.72957 281.70377Q214.90144 282.87564 214.90144 284.70377Q214.90144 286.45377 213.8702 287.73502Q212.63582 289.29752 210.4952 289.29752Q208.72957 289.29752 207.6202 288.31314Q206.51082 287.32877 206.35457 285.70377ZM217.2452 289.07877L217.2452 287.2819L219.04207 287.2819L219.04207 289.07877L217.2452 289.07877ZM221.35457 282.7194Q221.35457 280.43814 221.82332 279.04752Q222.29207 277.6569 223.21394 276.9069Q224.15144 276.14127 225.5577 276.14127Q226.58894 276.14127 227.3702 276.56314Q228.15144 276.9694 228.65144 277.76627Q229.16707 278.54752 229.46394 279.68814Q229.76082 280.81314 229.76082 282.7194Q229.76082 284.98502 229.29207 286.39127Q228.82332 287.7819 227.88582 288.54752Q226.96394 289.29752 225.5577 289.29752Q223.6827 289.29752 222.6202 287.9694Q221.35457 286.36002 221.35457 282.7194ZM222.97957 282.7194Q222.97957 285.89127 223.71394 286.95377Q224.46394 288.00064 225.5577 288.00064Q226.63582 288.00064 227.38582 286.95377Q228.13582 285.89127 228.13582 282.7194Q228.13582 279.54752 227.38582 278.50064Q226.63582 277.45377 225.54207 277.45377Q224.44832 277.45377 223.79207 278.37564Q222.97957 279.54752 222.97957 282.7194ZM231.65144 279.2819Q231.65144 277.9069 232.33894 276.93814Q233.04207 275.9694 234.35457 275.9694Q235.57332 275.9694 236.3702 276.8444Q237.16707 277.70377 237.16707 279.39127Q237.16707 281.01627 236.35457 281.9069Q235.5577 282.7819 234.3702 282.7819Q233.21394 282.7819 232.4327 281.92252Q231.65144 281.04752 231.65144 279.2819ZM234.40144 277.06314Q233.8077 277.06314 233.41707 277.57877Q233.02644 278.07877 233.02644 279.43814Q233.02644 280.68814 233.41707 281.18814Q233.82332 281.68814 234.40144 281.68814Q234.9952 281.68814 235.38582 281.18814Q235.77644 280.67252 235.77644 279.32877Q235.77644 278.07877 235.38582 277.57877Q234.9952 277.06314 234.40144 277.06314ZM234.41707 289.54752L241.46394 275.9694L242.7452 275.9694L235.71394 289.54752L234.41707 289.54752ZM239.97957 286.04752Q239.97957 284.67252 240.66707 283.70377Q241.3702 282.73502 242.69832 282.73502Q243.91707 282.73502 244.69832 283.61002Q245.4952 284.4694 245.4952 286.1569Q245.4952 287.7819 244.69832 288.67252Q243.90144 289.54752 242.71394 289.54752Q241.54207 289.54752 240.76082 288.67252Q239.97957 287.79752 239.97957 286.04752ZM242.7452 283.82877Q242.15144 283.82877 241.76082 284.3444Q241.3702 284.8444 241.3702 286.2194Q241.3702 287.43814 241.76082 287.95377Q242.15144 288.4694 242.72957 288.4694Q243.33894 288.4694 243.72957 287.95377Q244.1202 287.43814 244.1202 286.0944Q244.1202 284.8444 243.72957 284.3444Q243.33894 283.82877 242.7452 283.82877Z" fill-rule="nonzero"/><path fill="#ffffff" d="M204.66707 129.77226L204.66707 131.28789L196.15144 131.28789Q196.13582 130.70976 196.33894 130.19414Q196.66707 129.31914 197.3702 128.47539Q198.08894 127.63164 199.44832 126.52226Q201.54207 124.80351 202.27644 123.80351Q203.02644 122.78789 203.02644 121.89726Q203.02644 120.94414 202.35457 120.30351Q201.6827 119.66289 200.60457 119.66289Q199.44832 119.66289 198.76082 120.35039Q198.08894 121.03789 198.07332 122.24101L196.44832 122.06914Q196.6202 120.25664 197.69832 119.30351Q198.79207 118.35039 200.63582 118.35039Q202.47957 118.35039 203.5577 119.38164Q204.65144 120.41289 204.65144 121.92851Q204.65144 122.69414 204.32332 123.44414Q204.01082 124.19414 203.27644 125.02226Q202.54207 125.85039 200.83894 127.28789Q199.41707 128.49101 199.01082 128.91289Q198.60457 129.33476 198.35457 129.77226L204.66707 129.77226ZM206.35457 127.91289L208.01082 127.77226Q208.19832 128.99101 208.8702 129.60039Q209.54207 130.20976 210.4952 130.20976Q211.63582 130.20976 212.41707 129.35039Q213.21394 128.49101 213.21394 127.05351Q213.21394 125.70976 212.44832 124.92851Q211.69832 124.14726 210.46394 124.14726Q209.69832 124.14726 209.07332 124.49101Q208.46394 124.83476 208.1202 125.39726L206.63582 125.19414L207.88582 118.58476L214.29207 118.58476L214.29207 120.08476L209.15144 120.08476L208.44832 123.55351Q209.6202 122.74101 210.88582 122.74101Q212.57332 122.74101 213.72957 123.91289Q214.90144 125.08476 214.90144 126.91289Q214.90144 128.66289 213.8702 129.94414Q212.63582 131.50664 210.4952 131.50664Q208.72957 131.50664 207.6202 130.52226Q206.51082 129.53789 206.35457 127.91289ZM217.2452 131.28789L217.2452 129.49101L219.04207 129.49101L219.04207 131.28789L217.2452 131.28789ZM221.35457 124.92851Q221.35457 122.64726 221.82332 121.25664Q222.29207 119.86601 223.21394 119.11601Q224.15144 118.35039 225.5577 118.35039Q226.58894 118.35039 227.3702 118.77226Q228.15144 119.17851 228.65144 119.97539Q229.16707 120.75664 229.46394 121.89726Q229.76082 123.02226 229.76082 124.92851Q229.76082 127.19414 229.29207 128.60039Q228.82332 129.99101 227.88582 130.75664Q226.96394 131.50664 225.5577 131.50664Q223.6827 131.50664 222.6202 130.17851Q221.35457 128.56914 221.35457 124.92851ZM222.97957 124.92851Q222.97957 128.10039 223.71394 129.16289Q224.46394 130.20976 225.5577 130.20976Q226.63582 130.20976 227.38582 129.16289Q228.13582 128.10039 228.13582 124.92851Q228.13582 121.75664 227.38582 120.70976Q226.63582 119.66289 225.54207 119.66289Q224.44832 119.66289 223.79207 120.58476Q222.97957 121.75664 222.97957 124.92851ZM231.65144 121.49101Q231.65144 120.11601 232.33894 119.14726Q233.04207 118.17851 234.35457 118.17851Q235.57332 118.17851 236.3702 119.05351Q237.16707 119.91289 237.16707 121.60039Q237.16707 123.22539 236.35457 124.11601Q235.5577 124.99101 234.3702 124.99101Q233.21394 124.99101 232.4327 124.13164Q231.65144 123.25664 231.65144 121.49101ZM234.40144 119.27226Q233.8077 119.27226 233.41707 119.78789Q233.02644 120.28789 233.02644 121.64726Q233.02644 122.89726 233.41707 123.39726Q233.82332 123.89726 234.40144 123.89726Q234.9952 123.89726 235.38582 123.39726Q235.77644 122.88164 235.77644 121.53789Q235.77644 120.28789 235.38582 119.78789Q234.9952 119.27226 234.40144 119.27226ZM234.41707 131.75664L241.46394 118.17851L242.7452 118.17851L235.71394 131.75664L234.41707 131.75664ZM239.97957 128.25664Q239.97957 126.88164 240.66707 125.91289Q241.3702 124.94414 242.69832 124.94414Q243.91707 124.94414 244.69832 125.81914Q245.4952 126.67851 245.4952 128.36601Q245.4952 129.99101 244.69832 130.88164Q243.90144 131.75664 242.71394 131.75664Q241.54207 131.75664 240.76082 130.88164Q239.97957 130.00664 239.97957 128.25664ZM242.7452 126.03789Q242.15144 126.03789 241.76082 126.55351Q241.3702 127.05351 241.3702 128.42851Q241.3702 129.64726 241.76082 130.16289Q242.15144 130.67851 242.72957 130.67851Q243.33894 130.67851 243.72957 130.16289Q244.1202 129.64726 244.1202 128.30351Q244.1202 127.05351 243.72957 126.55351Q243.33894 126.03789 242.7452 126.03789Z" fill-rule="nonzero"/><path stroke="#ffffff" stroke-width="1.0" stroke-linejoin="round" stroke-linecap="round" d="M300.0 278.06668C341.08078 278.06668 374.38333 244.76411 374.38333 203.68333C374.38333 162.60255 341.08078 129.3 300.0 129.3L300.0 54.916668C382.16156 54.916668 448.76666 121.521774 448.76666 203.68333C448.76666 285.8449 382.16156 352.45 300.0 352.45" fill-rule="nonzero"/><path stroke="#ffffff" stroke-width="1.0" stroke-linejoin="round" stroke-linecap="round" d="M225.61667 203.68333C225.61667 244.76411 258.91922 278.06668 300.0 278.06668L300.0 352.45C217.83844 352.45 151.23334 285.8449 151.23334 203.68333" fill-rule="nonzero"/><path stroke="#ffffff" stroke-width="1.0" stroke-linejoin="round" stroke-linecap="round" d="M300.0 129.3C258.91922 129.3 225.61667 162.60255 225.61667 203.68333L151.23334 203.68333C151.23334 121.521774 217.83844 54.916668 300.0 54.916668" fill-rule="nonzero"/><path fill="#efefef" d="M18.51875 98.24911L22.925 86.79598L24.565624 86.79598L29.253124 98.24911L27.51875 98.24911L26.190624 94.78036L21.39375 94.78036L20.14375 98.24911L18.51875 98.24911ZM21.83125 93.54598L25.721874 93.54598L24.51875 90.37411Q23.971874 88.92098 23.70625 87.99911Q23.4875 89.09286 23.096874 90.18661L21.83125 93.54598ZM30.596874 98.24911L30.596874 89.95223L31.8625 89.95223L31.8625 91.20223Q32.346874 90.32723 32.753124 90.04598Q33.159374 89.76473 33.659374 89.76473Q34.3625 89.76473 35.096874 90.21786L34.6125 91.51473Q34.096874 91.21786 33.58125 91.21786Q33.128124 91.21786 32.753124 91.49911Q32.39375 91.76473 32.2375 92.26473Q32.003124 93.01473 32.003124 93.90536L32.003124 98.24911L30.596874 98.24911ZM41.01875 95.20223L42.409374 95.38973Q42.175 96.81161 41.2375 97.62411Q40.315624 98.43661 38.95625 98.43661Q37.253124 98.43661 36.20625 97.32723Q35.175 96.20223 35.175 94.12411Q35.175 92.78036 35.6125 91.78036Q36.065624 90.76473 36.971874 90.26473Q37.89375 89.76473 38.95625 89.76473Q40.315624 89.76473 41.175 90.45223Q42.034374 91.12411 42.26875 92.38973L40.909374 92.59286Q40.70625 91.76473 40.20625 91.34286Q39.721874 90.92098 39.01875 90.92098Q37.95625 90.92098 37.284374 91.68661Q36.628124 92.43661 36.628124 94.09286Q36.628124 95.76473 37.26875 96.53036Q37.909374 97.28036 38.940624 97.28036Q39.76875 97.28036 40.315624 96.78036Q40.878124 96.26473 41.01875 95.20223ZM43.6125 98.24911L43.6125 86.79598L45.01875 86.79598L45.01875 90.90536Q46.003124 89.76473 47.503124 89.76473Q48.425 89.76473 49.096874 90.12411Q49.784374 90.48348 50.065624 91.12411Q50.3625 91.76473 50.3625 92.98348L50.3625 98.24911L48.95625 98.24911L48.95625 92.98348Q48.95625 91.93661 48.503124 91.45223Q48.05 90.96786 47.20625 90.96786Q46.58125 90.96786 46.034374 91.29598Q45.4875 91.62411 45.253124 92.18661Q45.01875 92.73348 45.01875 93.70223L45.01875 98.24911L43.6125 98.24911ZM52.6125 88.40536L52.6125 86.79598L54.01875 86.79598L54.01875 88.40536L52.6125 88.40536ZM52.6125 98.24911L52.6125 89.95223L54.01875 89.95223L54.01875 98.24911L52.6125 98.24911ZM59.675 96.98348L59.878124 98.23348Q59.284374 98.35848 58.815624 98.35848Q58.05 98.35848 57.628124 98.12411Q57.20625 97.87411 57.034374 97.48348Q56.8625 97.07723 56.8625 95.81161L56.8625 91.04598L55.83125 91.04598L55.83125 89.95223L56.8625 89.95223L56.8625 87.88973L58.26875 87.04598L58.26875 89.95223L59.675 89.95223L59.675 91.04598L58.26875 91.04598L58.26875 95.88973Q58.26875 96.49911 58.33125 96.67098Q58.409374 96.84286 58.58125 96.95223Q58.753124 97.04598 59.065624 97.04598Q59.3 97.04598 59.675 96.98348ZM66.28438 95.57723L67.7375 95.74911Q67.39375 97.03036 66.45625 97.73348Q65.53438 98.43661 64.09688 98.43661Q62.26875 98.43661 61.20625 97.31161Q60.14375 96.18661 60.14375 94.17098Q60.14375 92.07723 61.221874 90.92098Q62.3 89.76473 64.01875 89.76473Q65.675 89.76473 66.72188 90.90536Q67.78438 92.03036 67.78438 94.07723Q67.78438 94.20223 67.78438 94.45223L61.596874 94.45223Q61.675 95.82723 62.3625 96.56161Q63.065624 97.28036 64.09688 97.28036Q64.87813 97.28036 65.425 96.87411Q65.97188 96.46786 66.28438 95.57723ZM61.675 93.29598L66.3 93.29598Q66.20625 92.24911 65.76875 91.73348Q65.09688 90.92098 64.03438 90.92098Q63.065624 90.92098 62.39375 91.57723Q61.7375 92.21786 61.675 93.29598ZM75.01875 95.20223L76.40938 95.38973Q76.175 96.81161 75.2375 97.62411Q74.31563 98.43661 72.95625 98.43661Q71.25313 98.43661 70.20625 97.32723Q69.175 96.20223 69.175 94.12411Q69.175 92.78036 69.6125 91.78036Q70.06563 90.76473 70.97188 90.26473Q71.89375 89.76473 72.95625 89.76473Q74.31563 89.76473 75.175 90.45223Q76.03438 91.12411 76.26875 92.38973L74.90938 92.59286Q74.70625 91.76473 74.20625 91.34286Q73.72188 90.92098 73.01875 90.92098Q71.95625 90.92098 71.28438 91.68661Q70.62813 92.43661 70.62813 94.09286Q70.62813 95.76473 71.26875 96.53036Q71.90938 97.28036 72.94063 97.28036Q73.76875 97.28036 74.31563 96.78036Q74.87813 96.26473 75.01875 95.20223ZM80.675 96.98348L80.87813 98.23348Q80.28438 98.35848 79.81563 98.35848Q79.05 98.35848 78.62813 98.12411Q78.20625 97.87411 78.03438 97.48348Q77.8625 97.07723 77.8625 95.81161L77.8625 91.04598L76.83125 91.04598L76.83125 89.95223L77.8625 89.95223L77.8625 87.88973L79.26875 87.04598L79.26875 89.95223L80.675 89.95223L80.675 91.04598L79.26875 91.04598L79.26875 95.88973Q79.26875 96.49911 79.33125 96.67098Q79.40938 96.84286 79.58125 96.95223Q79.75313 97.04598 80.06563 97.04598Q80.3 97.04598 80.675 96.98348ZM87.05 98.24911L87.05 97.03036Q86.08125 98.43661 84.40938 98.43661Q83.675 98.43661 83.03438 98.15536Q82.40938 97.87411 82.09688 97.45223Q81.78438 97.01473 81.65938 96.40536Q81.58125 95.98348 81.58125 95.09286L81.58125 89.95223L82.9875 89.95223L82.9875 94.54598Q82.9875 95.65536 83.06563 96.03036Q83.20625 96.59286 83.62813 96.90536Q84.06563 97.21786 84.69063 97.21786Q85.33125 97.21786 85.87813 96.90536Q86.44063 96.57723 86.65938 96.01473Q86.89375 95.45223 86.89375 94.38973L86.89375 89.95223L88.3 89.95223L88.3 98.24911L87.05 98.24911ZM90.59688 98.24911L90.59688 89.95223L91.8625 89.95223L91.8625 91.20223Q92.34688 90.32723 92.75313 90.04598Q93.15938 89.76473 93.65938 89.76473Q94.3625 89.76473 95.09688 90.21786L94.6125 91.51473Q94.09688 91.21786 93.58125 91.21786Q93.12813 91.21786 92.75313 91.49911Q92.39375 91.76473 92.2375 92.26473Q92.00313 93.01473 92.00313 93.90536L92.00313 98.24911L90.59688 98.24911ZM101.28438 95.57723L102.7375 95.74911Q102.39375 97.03036 101.45625 97.73348Q100.53438 98.43661 99.09688 98.43661Q97.26875 98.43661 96.20625 97.31161Q95.14375 96.18661 95.14375 94.17098Q95.14375 92.07723 96.22188 90.92098Q97.3 89.76473 99.01875 89.76473Q100.675 89.76473 101.72188 90.90536Q102.78438 92.03036 102.78438 94.07723Q102.78438 94.20223 102.78438 94.45223L96.59688 94.45223Q96.675 95.82723 97.3625 96.56161Q98.06563 97.28036 99.09688 97.28036Q99.87813 97.28036 100.425 96.87411Q100.97188 96.46786 101.28438 95.57723ZM96.675 93.29598L101.3 93.29598Q101.20625 92.24911 100.76875 91.73348Q100.09688 90.92098 99.03438 90.92098Q98.06563 90.92098 97.39375 91.57723Q96.7375 92.21786 96.675 93.29598ZM115.15938 96.88973Q114.45625 97.67098 113.62813 98.06161Q112.81563 98.45223 111.8625 98.45223Q110.1125 98.45223 109.08125 97.24911Q108.2375 96.28036 108.2375 95.09286Q108.2375 94.03036 108.925 93.17098Q109.6125 92.31161 110.97188 91.67098Q110.19063 90.78036 109.925 90.23348Q109.675 89.67098 109.675 89.15536Q109.675 88.12411 110.4875 87.35848Q111.3 86.59286 112.51875 86.59286Q113.69063 86.59286 114.44063 87.31161Q115.19063 88.03036 115.19063 89.04598Q115.19063 90.67098 113.01875 91.82723L115.08125 94.45223Q115.425 93.76473 115.62813 92.85848L117.08125 93.17098Q116.70625 94.67098 116.06563 95.63973Q116.8625 96.68661 117.8625 97.38973L116.90938 98.51473Q116.06563 97.96786 115.15938 96.88973ZM112.3 90.92098Q113.20625 90.38973 113.47188 89.98348Q113.75313 89.57723 113.75313 89.07723Q113.75313 88.49911 113.37813 88.12411Q113.00313 87.74911 112.45625 87.74911Q111.87813 87.74911 111.50313 88.12411Q111.12813 88.48348 111.12813 89.01473Q111.12813 89.28036 111.25313 89.57723Q111.39375 89.87411 111.675 90.20223L112.3 90.92098ZM114.26875 95.78036L111.69063 92.59286Q110.55 93.26473 110.14375 93.85848Q109.75313 94.43661 109.75313 94.99911Q109.75313 95.70223 110.3 96.45223Q110.8625 97.20223 111.87813 97.20223Q112.51875 97.20223 113.19063 96.81161Q113.8625 96.40536 114.26875 95.78036Z" fill-rule="nonzero"/><path fill="#9e9e9e" d="M26.6125 118.88973L26.6125 120.24911L19.034374 120.24911Q19.01875 119.73348 19.20625 119.26473Q19.4875 118.49911 20.128124 117.74911Q20.76875 116.99911 21.971874 116.01473Q23.83125 114.48348 24.4875 113.59286Q25.14375 112.68661 25.14375 111.88973Q25.14375 111.06161 24.55 110.48348Q23.95625 109.90536 22.9875 109.90536Q21.971874 109.90536 21.3625 110.51473Q20.753124 111.12411 20.753124 112.20223L19.3 112.06161Q19.45625 110.43661 20.425 109.59286Q21.39375 108.74911 23.01875 108.74911Q24.675 108.74911 25.628124 109.67098Q26.596874 110.57723 26.596874 111.92098Q26.596874 112.60848 26.315624 113.28036Q26.034374 113.93661 25.378124 114.67098Q24.721874 115.40536 23.20625 116.68661Q21.940624 117.74911 21.58125 118.13973Q21.221874 118.51473 20.9875 118.88973L26.6125 118.88973ZM28.221874 117.24911L29.690624 117.12411Q29.8625 118.20223 30.45625 118.74911Q31.05 119.28036 31.89375 119.28036Q32.909374 119.28036 33.6125 118.51473Q34.315624 117.74911 34.315624 116.48348Q34.315624 115.28036 33.64375 114.59286Q32.971874 113.88973 31.878124 113.88973Q31.190624 113.88973 30.64375 114.20223Q30.096874 114.51473 29.784374 114.99911L28.471874 114.82723L29.58125 108.95223L35.26875 108.95223L35.26875 110.29598L30.70625 110.29598L30.08125 113.37411Q31.1125 112.65536 32.253124 112.65536Q33.753124 112.65536 34.784374 113.70223Q35.815624 114.73348 35.815624 116.35848Q35.815624 117.92098 34.909374 119.04598Q33.8 120.45223 31.89375 120.45223Q30.33125 120.45223 29.346874 119.57723Q28.3625 118.68661 28.221874 117.24911ZM38.003124 120.24911L38.003124 118.63973L39.6125 118.63973L39.6125 120.24911L38.003124 120.24911ZM41.221874 114.59286Q41.221874 112.56161 41.628124 111.32723Q42.05 110.09286 42.878124 109.42098Q43.70625 108.74911 44.95625 108.74911Q45.878124 108.74911 46.565624 109.12411Q47.26875 109.48348 47.721874 110.18661Q48.175 110.88973 48.425 111.88973Q48.690624 112.88973 48.690624 114.59286Q48.690624 116.60848 48.26875 117.85848Q47.8625 119.09286 47.034374 119.78036Q46.20625 120.45223 44.95625 120.45223Q43.3 120.45223 42.346874 119.24911Q41.221874 117.82723 41.221874 114.59286ZM42.659374 114.59286Q42.659374 117.42098 43.315624 118.35848Q43.9875 119.28036 44.95625 119.28036Q45.925 119.28036 46.58125 118.34286Q47.2375 117.40536 47.2375 114.59286Q47.2375 111.76473 46.58125 110.84286Q45.925 109.90536 44.940624 109.90536Q43.971874 109.90536 43.39375 110.73348Q42.659374 111.78036 42.659374 114.59286ZM50.4875 111.54598Q50.4875 110.31161 51.096874 109.45223Q51.721874 108.59286 52.89375 108.59286Q53.971874 108.59286 54.675 109.37411Q55.378124 110.13973 55.378124 111.62411Q55.378124 113.07723 54.659374 113.87411Q53.95625 114.65536 52.909374 114.65536Q51.8625 114.65536 51.175 113.88973Q50.4875 113.10848 50.4875 111.54598ZM52.925 109.56161Q52.409374 109.56161 52.05 110.01473Q51.70625 110.46786 51.70625 111.68661Q51.70625 112.78036 52.05 113.23348Q52.409374 113.68661 52.925 113.68661Q53.45625 113.68661 53.8 113.23348Q54.159374 112.78036 54.159374 111.57723Q54.159374 110.46786 53.8 110.01473Q53.45625 109.56161 52.925 109.56161ZM52.940624 120.67098L59.20625 108.59286L60.346874 108.59286L54.096874 120.67098L52.940624 120.67098ZM57.89375 117.56161Q57.89375 116.32723 58.503124 115.46786Q59.128124 114.60848 60.3 114.60848Q61.378124 114.60848 62.08125 115.38973Q62.8 116.15536 62.8 117.63973Q62.8 119.09286 62.08125 119.88973Q61.3625 120.67098 60.315624 120.67098Q59.26875 120.67098 58.58125 119.88973Q57.89375 119.10848 57.89375 117.56161ZM60.346874 115.57723Q59.815624 115.57723 59.45625 116.03036Q59.1125 116.48348 59.1125 117.70223Q59.1125 118.79598 59.45625 119.24911Q59.815624 119.70223 60.33125 119.70223Q60.878124 119.70223 61.221874 119.24911Q61.565624 118.79598 61.565624 117.59286Q61.565624 116.48348 61.20625 116.03036Q60.8625 115.57723 60.346874 115.57723Z" fill-rule="nonzero"/><path stroke="#757575" stroke-width="1.0" stroke-linecap="butt" d="M18.55 103.74911L145.23334 103.74911L200.06578 103.74911" fill-rule="nonzero"/><path fill="#9e9e9e" d="M202.06578 103.74911C202.06578 102.64454 201.17035 101.74911 200.06578 101.74911C198.96121 101.74911 198.06578 102.64454 198.06578 103.74911C198.06578 104.85368 198.96121 105.74911 200.06578 105.74911C201.17035 105.74911 202.06578 104.85368 202.06578 103.74911" fill-rule="nonzero"/><path fill="#efefef" d="M19.815624 298.11755L19.815624 286.66443L24.89375 286.66443Q26.425 286.66443 27.221874 286.97693Q28.01875 287.2738 28.4875 288.05505Q28.971874 288.8363 28.971874 289.78943Q28.971874 291.00818 28.175 291.85193Q27.39375 292.68005 25.7375 292.8988Q26.346874 293.19568 26.659374 293.47693Q27.315624 294.0863 27.909374 294.99255L29.909374 298.11755L28.003124 298.11755L26.4875 295.72693Q25.815624 294.69568 25.378124 294.1488Q24.95625 293.60193 24.6125 293.38318Q24.284374 293.16443 23.925 293.0863Q23.675 293.0238 23.08125 293.0238L21.33125 293.0238L21.33125 298.11755L19.815624 298.11755ZM21.33125 291.7113L24.58125 291.7113Q25.628124 291.7113 26.20625 291.50818Q26.8 291.28943 27.096874 290.82068Q27.409374 290.3363 27.409374 289.78943Q27.409374 288.97693 26.815624 288.4613Q26.221874 287.93005 24.95625 287.93005L21.33125 287.93005L21.33125 291.7113ZM37.284374 295.44568L38.7375 295.61755Q38.39375 296.8988 37.45625 297.60193Q36.534374 298.30505 35.096874 298.30505Q33.26875 298.30505 32.20625 297.18005Q31.14375 296.05505 31.14375 294.03943Q31.14375 291.94568 32.221874 290.78943Q33.3 289.63318 35.01875 289.63318Q36.675 289.63318 37.721874 290.7738Q38.784374 291.8988 38.784374 293.94568Q38.784374 294.07068 38.784374 294.32068L32.596874 294.32068Q32.675 295.69568 33.3625 296.43005Q34.065624 297.1488 35.096874 297.1488Q35.878124 297.1488 36.425 296.74255Q36.971874 296.3363 37.284374 295.44568ZM32.675 293.16443L37.3 293.16443Q37.20625 292.11755 36.76875 291.60193Q36.096874 290.78943 35.034374 290.78943Q34.065624 290.78943 33.39375 291.44568Q32.7375 292.0863 32.675 293.16443ZM40.58125 298.11755L40.58125 286.66443L41.9875 286.66443L41.9875 298.11755L40.58125 298.11755ZM44.6125 288.2738L44.6125 286.66443L46.01875 286.66443L46.01875 288.2738L44.6125 288.2738ZM44.6125 298.11755L44.6125 289.82068L46.01875 289.82068L46.01875 298.11755L44.6125 298.11755ZM48.346874 298.80505L49.721874 299.00818Q49.8 299.6488 50.190624 299.93005Q50.721874 300.32068 51.628124 300.32068Q52.596874 300.32068 53.128124 299.93005Q53.659374 299.53943 53.846874 298.8363Q53.95625 298.41443 53.95625 297.0238Q53.034374 298.11755 51.659374 298.11755Q49.940624 298.11755 49.003124 296.88318Q48.065624 295.6488 48.065624 293.91443Q48.065624 292.72693 48.4875 291.72693Q48.925 290.72693 49.7375 290.18005Q50.565624 289.63318 51.659374 289.63318Q53.128124 289.63318 54.08125 290.82068L54.08125 289.82068L55.378124 289.82068L55.378124 296.99255Q55.378124 298.93005 54.9875 299.74255Q54.596874 300.55505 53.7375 301.0238Q52.878124 301.49255 51.628124 301.49255Q50.14375 301.49255 49.221874 300.82068Q48.315624 300.1488 48.346874 298.80505ZM49.51875 293.82068Q49.51875 295.44568 50.159374 296.19568Q50.815624 296.94568 51.784374 296.94568Q52.753124 296.94568 53.409374 296.2113Q54.065624 295.4613 54.065624 293.86755Q54.065624 292.3363 53.39375 291.57068Q52.721874 290.78943 51.76875 290.78943Q50.83125 290.78943 50.175 291.55505Q49.51875 292.32068 49.51875 293.82068ZM57.6125 288.2738L57.6125 286.66443L59.01875 286.66443L59.01875 288.2738L57.6125 288.2738ZM57.6125 298.11755L57.6125 289.82068L59.01875 289.82068L59.01875 298.11755L57.6125 298.11755ZM61.08125 293.9613Q61.08125 291.66443 62.3625 290.55505Q63.440624 289.63318 64.97188 289.63318Q66.69063 289.63318 67.76875 290.75818Q68.8625 291.86755 68.8625 293.85193Q68.8625 295.44568 68.37813 296.36755Q67.89375 297.28943 66.97188 297.80505Q66.06563 298.30505 64.97188 298.30505Q63.2375 298.30505 62.159374 297.19568Q61.08125 296.07068 61.08125 293.9613ZM62.534374 293.9613Q62.534374 295.55505 63.221874 296.35193Q63.925 297.1488 64.97188 297.1488Q66.01875 297.1488 66.70625 296.35193Q67.40938 295.55505 67.40938 293.91443Q67.40938 292.38318 66.70625 291.5863Q66.01875 290.78943 64.97188 290.78943Q63.925 290.78943 63.221874 291.5863Q62.534374 292.36755 62.534374 293.9613ZM76.05 298.11755L76.05 296.8988Q75.08125 298.30505 73.40938 298.30505Q72.675 298.30505 72.03438 298.0238Q71.40938 297.74255 71.09688 297.32068Q70.78438 296.88318 70.65938 296.2738Q70.58125 295.85193 70.58125 294.9613L70.58125 289.82068L71.9875 289.82068L71.9875 294.41443Q71.9875 295.5238 72.06563 295.8988Q72.20625 296.4613 72.62813 296.7738Q73.06563 297.0863 73.69063 297.0863Q74.33125 297.0863 74.87813 296.7738Q75.44063 296.44568 75.65938 295.88318Q75.89375 295.32068 75.89375 294.25818L75.89375 289.82068L77.3 289.82068L77.3 298.11755L76.05 298.11755ZM79.05 295.63318L80.44063 295.41443Q80.55 296.25818 81.08125 296.7113Q81.62813 297.1488 82.58125 297.1488Q83.55 297.1488 84.01875 296.75818Q84.4875 296.35193 84.4875 295.82068Q84.4875 295.35193 84.08125 295.07068Q83.78438 294.88318 82.64375 294.60193Q81.09688 294.2113 80.4875 293.93005Q79.89375 293.63318 79.58125 293.13318Q79.28438 292.63318 79.28438 292.0238Q79.28438 291.4613 79.53438 290.99255Q79.78438 290.5238 80.22188 290.2113Q80.55 289.9613 81.1125 289.80505Q81.69063 289.63318 82.33125 289.63318Q83.31563 289.63318 84.05 289.91443Q84.78438 290.19568 85.12813 290.68005Q85.4875 291.1488 85.62813 291.9613L84.25313 292.1488Q84.15938 291.50818 83.70625 291.1488Q83.25313 290.78943 82.44063 290.78943Q81.47188 290.78943 81.05 291.11755Q80.64375 291.43005 80.64375 291.85193Q80.64375 292.13318 80.81563 292.35193Q80.9875 292.57068 81.34688 292.72693Q81.56563 292.80505 82.59688 293.0863Q84.08125 293.47693 84.675 293.74255Q85.26875 293.99255 85.59688 294.47693Q85.94063 294.9613 85.94063 295.68005Q85.94063 296.38318 85.51875 297.00818Q85.1125 297.61755 84.33125 297.9613Q83.56563 298.30505 82.59688 298.30505Q80.97188 298.30505 80.12813 297.63318Q79.28438 296.9613 79.05 295.63318Z" fill-rule="nonzero"/><path fill="#9e9e9e" d="M26.6125 318.75818L26.6125 320.11755L19.034374 320.11755Q19.01875 319.60193 19.20625 319.13318Q19.4875 318.36755 20.128124 317.61755Q20.76875 316.86755 21.971874 315.88318Q23.83125 314.35193 24.4875 313.4613Q25.14375 312.55505 25.14375 311.75818Q25.14375 310.93005 24.55 310.35193Q23.95625 309.7738 22.9875 309.7738Q21.971874 309.7738 21.3625 310.38318Q20.753124 310.99255 20.753124 312.07068L19.3 311.93005Q19.45625 310.30505 20.425 309.4613Q21.39375 308.61755 23.01875 308.61755Q24.675 308.61755 25.628124 309.53943Q26.596874 310.44568 26.596874 311.78943Q26.596874 312.47693 26.315624 313.1488Q26.034374 313.80505 25.378124 314.53943Q24.721874 315.2738 23.20625 316.55505Q21.940624 317.61755 21.58125 318.00818Q21.221874 318.38318 20.9875 318.75818L26.6125 318.75818ZM28.221874 317.11755L29.690624 316.99255Q29.8625 318.07068 30.45625 318.61755Q31.05 319.1488 31.89375 319.1488Q32.909374 319.1488 33.6125 318.38318Q34.315624 317.61755 34.315624 316.35193Q34.315624 315.1488 33.64375 314.4613Q32.971874 313.75818 31.878124 313.75818Q31.190624 313.75818 30.64375 314.07068Q30.096874 314.38318 29.784374 314.86755L28.471874 314.69568L29.58125 308.82068L35.26875 308.82068L35.26875 310.16443L30.70625 310.16443L30.08125 313.24255Q31.1125 312.5238 32.253124 312.5238Q33.753124 312.5238 34.784374 313.57068Q35.815624 314.60193 35.815624 316.22693Q35.815624 317.78943 34.909374 318.91443Q33.8 320.32068 31.89375 320.32068Q30.33125 320.32068 29.346874 319.44568Q28.3625 318.55505 28.221874 317.11755ZM38.003124 320.11755L38.003124 318.50818L39.6125 318.50818L39.6125 320.11755L38.003124 320.11755ZM41.221874 314.4613Q41.221874 312.43005 41.628124 311.19568Q42.05 309.9613 42.878124 309.28943Q43.70625 308.61755 44.95625 308.61755Q45.878124 308.61755 46.565624 308.99255Q47.26875 309.35193 47.721874 310.05505Q48.175 310.75818 48.425 311.75818Q48.690624 312.75818 48.690624 314.4613Q48.690624 316.47693 48.26875 317.72693Q47.8625 318.9613 47.034374 319.6488Q46.20625 320.32068 44.95625 320.32068Q43.3 320.32068 42.346874 319.11755Q41.221874 317.69568 41.221874 314.4613ZM42.659374 314.4613Q42.659374 317.28943 43.315624 318.22693Q43.9875 319.1488 44.95625 319.1488Q45.925 319.1488 46.58125 318.2113Q47.2375 317.2738 47.2375 314.4613Q47.2375 311.63318 46.58125 310.7113Q45.925 309.7738 44.940624 309.7738Q43.971874 309.7738 43.39375 310.60193Q42.659374 311.6488 42.659374 314.4613ZM50.4875 311.41443Q50.4875 310.18005 51.096874 309.32068Q51.721874 308.4613 52.89375 308.4613Q53.971874 308.4613 54.675 309.24255Q55.378124 310.00818 55.378124 311.49255Q55.378124 312.94568 54.659374 313.74255Q53.95625 314.5238 52.909374 314.5238Q51.8625 314.5238 51.175 313.75818Q50.4875 312.97693 50.4875 311.41443ZM52.925 309.43005Q52.409374 309.43005 52.05 309.88318Q51.70625 310.3363 51.70625 311.55505Q51.70625 312.6488 52.05 313.10193Q52.409374 313.55505 52.925 313.55505Q53.45625 313.55505 53.8 313.10193Q54.159374 312.6488 54.159374 311.44568Q54.159374 310.3363 53.8 309.88318Q53.45625 309.43005 52.925 309.43005ZM52.940624 320.53943L59.20625 308.4613L60.346874 308.4613L54.096874 320.53943L52.940624 320.53943ZM57.89375 317.43005Q57.89375 316.19568 58.503124 315.3363Q59.128124 314.47693 60.3 314.47693Q61.378124 314.47693 62.08125 315.25818Q62.8 316.0238 62.8 317.50818Q62.8 318.9613 62.08125 319.75818Q61.3625 320.53943 60.315624 320.53943Q59.26875 320.53943 58.58125 319.75818Q57.89375 318.97693 57.89375 317.43005ZM60.346874 315.44568Q59.815624 315.44568 59.45625 315.8988Q59.1125 316.35193 59.1125 317.57068Q59.1125 318.66443 59.45625 319.11755Q59.815624 319.57068 60.33125 319.57068Q60.878124 319.57068 61.221874 319.11755Q61.565624 318.66443 61.565624 317.4613Q61.565624 316.35193 61.20625 315.8988Q60.8625 315.44568 60.346874 315.44568Z" fill-rule="nonzero"/><path stroke="#757575" stroke-width="1.0" stroke-linecap="butt" d="M18.55 303.61755L145.23334 303.61755L200.06578 303.61755" fill-rule="nonzero"/><path fill="#9e9e9e" d="M202.06578 303.61755C202.06578 302.513 201.17035 301.61755 200.06578 301.61755C198.96121 301.61755 198.06578 302.513 198.06578 303.61755C198.06578 304.72214 198.96121 305.61755 200.06578 305.61755C201.17035 305.61755 202.06578 304.72214 202.06578 303.61755" fill-rule="nonzero"/><path fill="#efefef" d="M495.85626 194.16771L497.3719 194.54271Q496.90314 196.41771 495.65314 197.40208Q494.41876 198.38646 492.6375 198.38646Q490.77814 198.38646 489.6219 197.63646Q488.46564 196.87083 487.85626 195.44896Q487.2469 194.01146 487.2469 192.37083Q487.2469 190.57396 487.9344 189.24583Q488.6219 187.91771 489.8719 187.23021Q491.1375 186.52708 492.65314 186.52708Q494.3719 186.52708 495.54376 187.40208Q496.71564 188.27708 497.1844 189.87083L495.6844 190.21458Q495.29376 188.96458 494.52814 188.40208Q493.77814 187.82396 492.6219 187.82396Q491.3094 187.82396 490.41876 188.46458Q489.52814 189.08958 489.16876 190.16771Q488.8094 191.23021 488.8094 192.35521Q488.8094 193.82396 489.23126 194.91771Q489.66876 195.99583 490.5594 196.54271Q491.46564 197.07396 492.5125 197.07396Q493.77814 197.07396 494.65314 196.33958Q495.54376 195.60521 495.85626 194.16771ZM504.95 198.18333L504.95 196.96458Q503.98126 198.37083 502.3094 198.37083Q501.575 198.37083 500.9344 198.08958Q500.3094 197.80833 499.9969 197.38646Q499.6844 196.94896 499.5594 196.33958Q499.48126 195.91771 499.48126 195.02708L499.48126 189.88646L500.8875 189.88646L500.8875 194.48021Q500.8875 195.58958 500.96564 195.96458Q501.10626 196.52708 501.52814 196.83958Q501.96564 197.15208 502.59064 197.15208Q503.23126 197.15208 503.77814 196.83958Q504.34064 196.51146 504.5594 195.94896Q504.79376 195.38646 504.79376 194.32396L504.79376 189.88646L506.2 189.88646L506.2 198.18333L504.95 198.18333ZM508.48126 198.18333L508.48126 186.73021L509.8875 186.73021L509.8875 198.18333L508.48126 198.18333ZM515.575 196.91771L515.77814 198.16771Q515.1844 198.29271 514.71564 198.29271Q513.95 198.29271 513.52814 198.05833Q513.10626 197.80833 512.9344 197.41771Q512.7625 197.01146 512.7625 195.74583L512.7625 190.98021L511.73126 190.98021L511.73126 189.88646L512.7625 189.88646L512.7625 187.82396L514.16876 186.98021L514.16876 189.88646L515.575 189.88646L515.575 190.98021L514.16876 190.98021L514.16876 195.82396Q514.16876 196.43333 514.23126 196.60521Q514.3094 196.77708 514.48126 196.88646Q514.65314 196.98021 514.96564 196.98021Q515.2 196.98021 515.575 196.91771ZM521.95 198.18333L521.95 196.96458Q520.98126 198.37083 519.3094 198.37083Q518.575 198.37083 517.9344 198.08958Q517.3094 197.80833 516.9969 197.38646Q516.6844 196.94896 516.5594 196.33958Q516.48126 195.91771 516.48126 195.02708L516.48126 189.88646L517.8875 189.88646L517.8875 194.48021Q517.8875 195.58958 517.96564 195.96458Q518.10626 196.52708 518.52814 196.83958Q518.96564 197.15208 519.59064 197.15208Q520.23126 197.15208 520.77814 196.83958Q521.34064 196.51146 521.5594 195.94896Q521.79376 195.38646 521.79376 194.32396L521.79376 189.88646L523.2 189.88646L523.2 198.18333L521.95 198.18333ZM525.4969 198.18333L525.4969 189.88646L526.7625 189.88646L526.7625 191.13646Q527.2469 190.26146 527.65314 189.98021Q528.0594 189.69896 528.5594 189.69896Q529.2625 189.69896 529.9969 190.15208L529.5125 191.44896Q528.9969 191.15208 528.48126 191.15208Q528.02814 191.15208 527.65314 191.43333Q527.29376 191.69896 527.1375 192.19896Q526.90314 192.94896 526.90314 193.83958L526.90314 198.18333L525.4969 198.18333ZM535.91876 197.15208Q535.1375 197.82396 534.41876 198.10521Q533.7 198.37083 532.8719 198.37083Q531.4969 198.37083 530.7625 197.69896Q530.02814 197.02708 530.02814 195.99583Q530.02814 195.38646 530.3094 194.88646Q530.59064 194.37083 531.02814 194.07396Q531.48126 193.76146 532.04376 193.60521Q532.46564 193.49583 533.29376 193.40208Q534.9969 193.19896 535.8094 192.91771Q535.8094 192.62083 535.8094 192.54271Q535.8094 191.68333 535.41876 191.33958Q534.8719 190.85521 533.8094 190.85521Q532.825 190.85521 532.34064 191.21458Q531.8719 191.55833 531.65314 192.43333L530.27814 192.24583Q530.46564 191.37083 530.8875 190.82396Q531.325 190.27708 532.1375 189.99583Q532.95 189.69896 534.0125 189.69896Q535.075 189.69896 535.73126 189.94896Q536.40314 190.19896 536.71564 190.57396Q537.02814 190.94896 537.15314 191.52708Q537.23126 191.88646 537.23126 192.82396L537.23126 194.69896Q537.23126 196.66771 537.3094 197.18333Q537.40314 197.69896 537.66876 198.18333L536.2 198.18333Q535.98126 197.74583 535.91876 197.15208ZM535.8094 194.01146Q535.04376 194.32396 533.5125 194.54271Q532.6375 194.66771 532.27814 194.82396Q531.91876 194.98021 531.71564 195.29271Q531.52814 195.58958 531.52814 195.94896Q531.52814 196.51146 531.95 196.88646Q532.3875 197.26146 533.2 197.26146Q534.0125 197.26146 534.6375 196.91771Q535.27814 196.55833 535.575 195.93333Q535.8094 195.46458 535.8094 194.52708L535.8094 194.01146ZM539.48126 198.18333L539.48126 186.73021L540.8875 186.73021L540.8875 198.18333L539.48126 198.18333ZM546.41876 198.18333L550.825 186.73021L552.46564 186.73021L557.15314 198.18333L555.41876 198.18333L554.09064 194.71458L549.29376 194.71458L548.04376 198.18333L546.41876 198.18333ZM549.73126 193.48021L553.6219 193.48021L552.41876 190.30833Q551.8719 188.85521 551.60626 187.93333Q551.3875 189.02708 550.9969 190.12083L549.73126 193.48021ZM563.91876 195.13646L565.3094 195.32396Q565.075 196.74583 564.1375 197.55833Q563.21564 198.37083 561.85626 198.37083Q560.15314 198.37083 559.10626 197.26146Q558.075 196.13646 558.075 194.05833Q558.075 192.71458 558.5125 191.71458Q558.96564 190.69896 559.8719 190.19896Q560.79376 189.69896 561.85626 189.69896Q563.21564 189.69896 564.075 190.38646Q564.9344 191.05833 565.16876 192.32396L563.8094 192.52708Q563.60626 191.69896 563.10626 191.27708Q562.6219 190.85521 561.91876 190.85521Q560.85626 190.85521 560.1844 191.62083Q559.52814 192.37083 559.52814 194.02708Q559.52814 195.69896 560.16876 196.46458Q560.8094 197.21458 561.84064 197.21458Q562.66876 197.21458 563.21564 196.71458Q563.77814 196.19896 563.91876 195.13646ZM569.575 196.91771L569.77814 198.16771Q569.1844 198.29271 568.71564 198.29271Q567.95 198.29271 567.52814 198.05833Q567.10626 197.80833 566.9344 197.41771Q566.7625 197.01146 566.7625 195.74583L566.7625 190.98021L565.73126 190.98021L565.73126 189.88646L566.7625 189.88646L566.7625 187.82396L568.16876 186.98021L568.16876 189.88646L569.575 189.88646L569.575 190.98021L568.16876 190.98021L568.16876 195.82396Q568.16876 196.43333 568.23126 196.60521Q568.3094 196.77708 568.48126 196.88646Q568.65314 196.98021 568.96564 196.98021Q569.2 196.98021 569.575 196.91771ZM569.95 195.69896L571.34064 195.48021Q571.45 196.32396 571.98126 196.77708Q572.52814 197.21458 573.48126 197.21458Q574.45 197.21458 574.91876 196.82396Q575.3875 196.41771 575.3875 195.88646Q575.3875 195.41771 574.98126 195.13646Q574.6844 194.94896 573.54376 194.66771Q571.9969 194.27708 571.3875 193.99583Q570.79376 193.69896 570.48126 193.19896Q570.1844 192.69896 570.1844 192.08958Q570.1844 191.52708 570.4344 191.05833Q570.6844 190.58958 571.1219 190.27708Q571.45 190.02708 572.0125 189.87083Q572.59064 189.69896 573.23126 189.69896Q574.21564 189.69896 574.95 189.98021Q575.6844 190.26146 576.02814 190.74583Q576.3875 191.21458 576.52814 192.02708L575.15314 192.21458Q575.0594 191.57396 574.60626 191.21458Q574.15314 190.85521 573.34064 190.85521Q572.3719 190.85521 571.95 191.18333Q571.54376 191.49583 571.54376 191.91771Q571.54376 192.19896 571.71564 192.41771Q571.8875 192.63646 572.2469 192.79271Q572.46564 192.87083 573.4969 193.15208Q574.98126 193.54271 575.575 193.80833Q576.16876 194.05833 576.4969 194.54271Q576.84064 195.02708 576.84064 195.74583Q576.84064 196.44896 576.41876 197.07396Q576.0125 197.68333 575.23126 198.02708Q574.46564 198.37083 573.4969 198.37083Q571.8719 198.37083 571.02814 197.69896Q570.1844 197.02708 569.95 195.69896ZM578.90314 198.18333L578.90314 196.57396L580.5125 196.57396L580.5125 198.18333L578.90314 198.18333Z" fill-rule="nonzero"/><path fill="#9e9e9e" d="M537.1219 217.18333L538.59064 217.05833Q538.7625 218.13646 539.35626 218.68333Q539.95 219.21458 540.79376 219.21458Q541.8094 219.21458 542.5125 218.44896Q543.21564 217.68333 543.21564 216.41771Q543.21564 215.21458 542.54376 214.52708Q541.8719 213.82396 540.77814 213.82396Q540.09064 213.82396 539.54376 214.13646Q538.9969 214.44896 538.6844 214.93333L537.3719 214.76146L538.48126 208.88646L544.16876 208.88646L544.16876 210.23021L539.60626 210.23021L538.98126 213.30833Q540.0125 212.58958 541.15314 212.58958Q542.65314 212.58958 543.6844 213.63646Q544.71564 214.66771 544.71564 216.29271Q544.71564 217.85521 543.8094 218.98021Q542.7 220.38646 540.79376 220.38646Q539.23126 220.38646 538.2469 219.51146Q537.2625 218.62083 537.1219 217.18333ZM546.1219 214.52708Q546.1219 212.49583 546.52814 211.26146Q546.95 210.02708 547.77814 209.35521Q548.60626 208.68333 549.85626 208.68333Q550.77814 208.68333 551.46564 209.05833Q552.16876 209.41771 552.6219 210.12083Q553.075 210.82396 553.325 211.82396Q553.59064 212.82396 553.59064 214.52708Q553.59064 216.54271 553.16876 217.79271Q552.7625 219.02708 551.9344 219.71458Q551.10626 220.38646 549.85626 220.38646Q548.2 220.38646 547.2469 219.18333Q546.1219 217.76146 546.1219 214.52708ZM547.5594 214.52708Q547.5594 217.35521 548.21564 218.29271Q548.8875 219.21458 549.85626 219.21458Q550.825 219.21458 551.48126 218.27708Q552.1375 217.33958 552.1375 214.52708Q552.1375 211.69896 551.48126 210.77708Q550.825 209.83958 549.84064 209.83958Q548.8719 209.83958 548.29376 210.66771Q547.5594 211.71458 547.5594 214.52708ZM555.90314 220.18333L555.90314 218.57396L557.5125 218.57396L557.5125 220.18333L555.90314 220.18333ZM559.1219 214.52708Q559.1219 212.49583 559.52814 211.26146Q559.95 210.02708 560.77814 209.35521Q561.60626 208.68333 562.85626 208.68333Q563.77814 208.68333 564.46564 209.05833Q565.16876 209.41771 565.6219 210.12083Q566.075 210.82396 566.325 211.82396Q566.59064 212.82396 566.59064 214.52708Q566.59064 216.54271 566.16876 217.79271Q565.7625 219.02708 564.9344 219.71458Q564.10626 220.38646 562.85626 220.38646Q561.2 220.38646 560.2469 219.18333Q559.1219 217.76146 559.1219 214.52708ZM560.5594 214.52708Q560.5594 217.35521 561.21564 218.29271Q561.8875 219.21458 562.85626 219.21458Q563.825 219.21458 564.48126 218.27708Q565.1375 217.33958 565.1375 214.52708Q565.1375 211.69896 564.48126 210.77708Q563.825 209.83958 562.84064 209.83958Q561.8719 209.83958 561.29376 210.66771Q560.5594 211.71458 560.5594 214.52708ZM568.3875 211.48021Q568.3875 210.24583 568.9969 209.38646Q569.6219 208.52708 570.79376 208.52708Q571.8719 208.52708 572.575 209.30833Q573.27814 210.07396 573.27814 211.55833Q573.27814 213.01146 572.5594 213.80833Q571.85626 214.58958 570.8094 214.58958Q569.7625 214.58958 569.075 213.82396Q568.3875 213.04271 568.3875 211.48021ZM570.825 209.49583Q570.3094 209.49583 569.95 209.94896Q569.60626 210.40208 569.60626 211.62083Q569.60626 212.71458 569.95 213.16771Q570.3094 213.62083 570.825 213.62083Q571.35626 213.62083 571.7 213.16771Q572.0594 212.71458 572.0594 211.51146Q572.0594 210.40208 571.7 209.94896Q571.35626 209.49583 570.825 209.49583ZM570.84064 220.60521L577.10626 208.52708L578.2469 208.52708L571.9969 220.60521L570.84064 220.60521ZM575.79376 217.49583Q575.79376 216.26146 576.40314 215.40208Q577.02814 214.54271 578.2 214.54271Q579.27814 214.54271 579.98126 215.32396Q580.7 216.08958 580.7 217.57396Q580.7 219.02708 579.98126 219.82396Q579.2625 220.60521 578.21564 220.60521Q577.16876 220.60521 576.48126 219.82396Q575.79376 219.04271 575.79376 217.49583ZM578.2469 215.51146Q577.71564 215.51146 577.35626 215.96458Q577.0125 216.41771 577.0125 217.63646Q577.0125 218.73021 577.35626 219.18333Q577.71564 219.63646 578.23126 219.63646Q578.77814 219.63646 579.1219 219.18333Q579.46564 218.73021 579.46564 217.52708Q579.46564 216.41771 579.10626 215.96458Q578.7625 215.51146 578.2469 215.51146Z" fill-rule="nonzero"/><path stroke="#757575" stroke-width="1.0" stroke-linecap="butt" d="M581.45 203.68333L454.76666 203.68333L441.32834 203.68333" fill-rule="nonzero"/><path fill="#9e9e9e" d="M443.32834 203.68333C443.32834 202.57877 442.4329 201.68333 441.32834 201.68333C440.22375 201.68333 439.32834 202.57877 439.32834 203.68333C439.32834 204.7879 440.22375 205.68333 441.32834 205.68333C442.4329 205.68333 443.32834 204.7879 443.32834 203.68333" fill-rule="nonzero"/><path fill="#f3f3f3" d="M271.26562 32.534374L273.15625 33.003124Q272.5625 35.346874 271.01562 36.58125Q269.46875 37.8 267.21875 37.8Q264.90625 37.8 263.45312 36.8625Q262.01562 35.909374 261.25 34.128124Q260.5 32.33125 260.5 30.284374Q260.5 28.05 261.34375 26.39375Q262.20312 24.721874 263.78125 23.8625Q265.35938 22.9875 267.25 22.9875Q269.40625 22.9875 270.85938 24.08125Q272.32812 25.175 272.90625 27.159374L271.04688 27.596874Q270.54688 26.034374 269.59375 25.33125Q268.65625 24.6125 267.21875 24.6125Q265.5625 24.6125 264.45312 25.409374Q263.34375 26.190624 262.89062 27.534374Q262.45312 28.8625 262.45312 30.26875Q262.45312 32.096874 262.98438 33.471874Q263.51562 34.83125 264.64062 35.503124Q265.76562 36.175 267.0625 36.175Q268.65625 36.175 269.76562 35.253124Q270.875 34.33125 271.26562 32.534374ZM281.59375 36.26875Q280.60938 37.096874 279.70312 37.440624Q278.79688 37.784374 277.76562 37.784374Q276.0625 37.784374 275.14062 36.95625Q274.21875 36.1125 274.21875 34.815624Q274.21875 34.05 274.5625 33.425Q274.92188 32.8 275.48438 32.425Q276.04688 32.034374 276.75 31.83125Q277.26562 31.70625 278.3125 31.565624Q280.4375 31.315624 281.4375 30.971874Q281.45312 30.6125 281.45312 30.503124Q281.45312 29.440624 280.95312 28.9875Q280.28125 28.39375 278.95312 28.39375Q277.70312 28.39375 277.10938 28.83125Q276.53125 29.26875 276.25 30.378124L274.53125 30.14375Q274.76562 29.034374 275.29688 28.3625Q275.82812 27.675 276.84375 27.315624Q277.85938 26.940624 279.20312 26.940624Q280.53125 26.940624 281.35938 27.253124Q282.1875 27.565624 282.57812 28.05Q282.96875 28.51875 283.125 29.2375Q283.21875 29.690624 283.21875 30.8625L283.21875 33.20625Q283.21875 35.659374 283.32812 36.315624Q283.4375 36.95625 283.78125 37.55L281.9375 37.55Q281.67188 37.003124 281.59375 36.26875ZM281.4375 32.346874Q280.48438 32.7375 278.5625 33.003124Q277.48438 33.159374 277.03125 33.3625Q276.59375 33.55 276.34375 33.925Q276.09375 34.3 276.09375 34.76875Q276.09375 35.471874 276.625 35.940624Q277.15625 36.409374 278.1875 36.409374Q279.20312 36.409374 279.98438 35.971874Q280.78125 35.51875 281.15625 34.753124Q281.4375 34.14375 281.4375 32.9875L281.4375 32.346874ZM289.65625 35.971874L289.90625 37.534374Q289.17188 37.690624 288.57812 37.690624Q287.625 37.690624 287.09375 37.39375Q286.57812 37.08125 286.35938 36.596874Q286.14062 36.096874 286.14062 34.51875L286.14062 28.55L284.85938 28.55L284.85938 27.175L286.14062 27.175L286.14062 24.6125L287.89062 23.55L287.89062 27.175L289.65625 27.175L289.65625 28.55L287.89062 28.55L287.89062 34.6125Q287.89062 35.3625 287.98438 35.58125Q288.07812 35.784374 288.28125 35.925Q288.5 36.05 288.89062 36.05Q289.17188 36.05 289.65625 35.971874ZM298.92188 34.20625L300.73438 34.440624Q300.3125 36.01875 299.14062 36.909374Q297.98438 37.784374 296.17188 37.784374Q293.90625 37.784374 292.5625 36.39375Q291.23438 34.9875 291.23438 32.45625Q291.23438 29.83125 292.57812 28.39375Q293.92188 26.940624 296.07812 26.940624Q298.15625 26.940624 299.46875 28.3625Q300.79688 29.76875 300.79688 32.346874Q300.79688 32.503124 300.78125 32.815624L293.04688 32.815624Q293.14062 34.51875 294.01562 35.425Q294.89062 36.33125 296.1875 36.33125Q297.15625 36.33125 297.82812 35.83125Q298.51562 35.315624 298.92188 34.20625ZM293.14062 31.3625L298.9375 31.3625Q298.82812 30.065624 298.28125 29.409374Q297.4375 28.39375 296.09375 28.39375Q294.89062 28.39375 294.0625 29.20625Q293.23438 30.003124 293.14062 31.3625ZM302.5 38.409374L304.20312 38.659374Q304.3125 39.45625 304.79688 39.815624Q305.45312 40.3 306.59375 40.3Q307.8125 40.3 308.46875 39.815624Q309.14062 39.33125 309.375 38.45625Q309.51562 37.909374 309.5 36.190624Q308.34375 37.55 306.625 37.55Q304.48438 37.55 303.3125 36.003124Q302.14062 34.45625 302.14062 32.3Q302.14062 30.815624 302.67188 29.565624Q303.21875 28.315624 304.23438 27.628124Q305.26562 26.940624 306.64062 26.940624Q308.46875 26.940624 309.67188 28.425L309.67188 27.175L311.28125 27.175L311.28125 36.14375Q311.28125 38.565624 310.78125 39.565624Q310.29688 40.58125 309.21875 41.159374Q308.15625 41.753124 306.59375 41.753124Q304.75 41.753124 303.59375 40.925Q302.45312 40.096874 302.5 38.409374ZM303.95312 32.175Q303.95312 34.221874 304.76562 35.159374Q305.57812 36.096874 306.79688 36.096874Q308.0 36.096874 308.8125 35.159374Q309.64062 34.221874 309.64062 32.2375Q309.64062 30.33125 308.79688 29.3625Q307.95312 28.39375 306.76562 28.39375Q305.59375 28.39375 304.76562 29.346874Q303.95312 30.3 303.95312 32.175ZM313.17188 32.3625Q313.17188 29.4875 314.76562 28.096874Q316.10938 26.940624 318.03125 26.940624Q320.17188 26.940624 321.51562 28.346874Q322.875 29.753124 322.875 32.221874Q322.875 34.221874 322.28125 35.378124Q321.6875 36.51875 320.53125 37.159374Q319.39062 37.784374 318.03125 37.784374Q315.84375 37.784374 314.5 36.39375Q313.17188 34.9875 313.17188 32.3625ZM314.96875 32.3625Q314.96875 34.3625 315.82812 35.346874Q316.70312 36.33125 318.03125 36.33125Q319.34375 36.33125 320.20312 35.346874Q321.07812 34.346874 321.07812 32.3Q321.07812 30.378124 320.20312 29.39375Q319.32812 28.39375 318.03125 28.39375Q316.70312 28.39375 315.82812 29.39375Q314.96875 30.378124 314.96875 32.3625ZM324.79688 37.55L324.79688 27.175L326.375 27.175L326.375 28.753124Q326.98438 27.64375 327.5 27.3Q328.01562 26.940624 328.625 26.940624Q329.51562 26.940624 330.4375 27.503124L329.82812 29.14375Q329.1875 28.753124 328.54688 28.753124Q327.96875 28.753124 327.5 29.1125Q327.04688 29.45625 326.84375 30.065624Q326.5625 31.003124 326.5625 32.1125L326.5625 37.55L324.79688 37.55ZM331.73438 41.55L331.54688 39.89375Q332.125 40.05 332.54688 40.05Q333.14062 40.05 333.48438 39.846874Q333.84375 39.659374 334.0625 39.315624Q334.23438 39.05 334.60938 38.003124Q334.65625 37.846874 334.76562 37.565624L330.82812 27.175L332.71875 27.175L334.875 33.190624Q335.29688 34.33125 335.625 35.58125Q335.9375 34.378124 336.34375 33.221874L338.5625 27.175L340.32812 27.175L336.375 37.721874Q335.75 39.440624 335.39062 40.08125Q334.92188 40.95625 334.3125 41.346874Q333.71875 41.753124 332.875 41.753124Q332.35938 41.753124 331.73438 41.55Z" fill-rule="nonzero"/></svg>