<svg version="1.1" viewBox="0.0 0.0 600.0 371.0" fill="none" stroke="none" stroke-linecap="square" stroke-miterlimit="10" width="600" height="371" xmlns:xlink="http://www.w3.org/1999/xlink" xmlns="http://www.w3.org/2000/svg"><path fill="#ffffff" fill-opacity="0.0" d="M0 0L600.0 0L600.0 371.0L0 371.0L0 0Z" fill-rule="nonzero"/><path fill="#f7d750" d="M300.0 54.916668C353.1492 54.916668 402.2611 83.27143 428.83572 129.3C455.4103 175.32857 455.4103 232.0381 428.83572 278.06668L364.41785 240.875C377.70517 217.86072 377.70517 189.50595 364.41785 166.49167C351.13055 143.47739 326.57462 129.3 300.0 129.3Z" fill-rule="nonzero"/><path fill="#78a94e" d="M171.16429 129.3C197.73889 83.27143 246.85078 54.916668 300.0 54.916668L300.0 129.3C273.42538 129.3 248.86945 143.47739 235.58214 166.49167Z" fill-rule="nonzero"/><path fill="#f5ee58" d="M428.83572 278.06668C387.75494 349.22067 296.77066 373.59982 225.61667 332.51904C154.46266 291.43826 130.08351 200.454 171.16429 129.3L235.58214 166.49167C215.04175 202.06866 227.23134 247.5608 262.80832 268.1012C298.38535 288.64157 343.87747 276.452 364.41785 240.875Z" fill-rule="nonzero"/><path fill="#ffffff" d="M371.87677 150.98958L373.47052 150.78645Q373.73615 152.1302 374.3924 152.72395Q375.04865 153.3177 375.98615 153.3177Q377.11115 153.3177 377.87677 152.55208Q378.6424 151.77083 378.6424 150.6302Q378.6424 149.53645 377.92365 148.83333Q377.22052 148.11458 376.12677 148.11458Q375.67365 148.11458 375.00177 148.30208L375.17365 146.91145Q375.3299 146.92708 375.43927 146.92708Q376.43927 146.92708 377.25177 146.39583Q378.06427 145.86458 378.06427 144.77083Q378.06427 143.89583 377.47052 143.33333Q376.87677 142.7552 375.9549 142.7552Q375.03302 142.7552 374.40802 143.33333Q373.79865 143.91145 373.62677 145.08333L372.04865 144.80208Q372.3299 143.20833 373.36115 142.33333Q374.3924 141.45833 375.92365 141.45833Q376.97052 141.45833 377.86115 141.91145Q378.75177 142.36458 379.22052 143.14583Q379.68927 143.92708 379.68927 144.80208Q379.68927 145.64583 379.23615 146.33333Q378.79865 147.0052 377.90802 147.41145Q379.04865 147.67708 379.67365 148.52083Q380.31427 149.34895 380.31427 150.58333Q380.31427 152.27083 379.0799 153.45833Q377.86115 154.6302 375.98615 154.6302Q374.28302 154.6302 373.15802 153.61458Q372.04865 152.59895 371.87677 150.98958ZM381.87677 150.98958L383.47052 150.78645Q383.73615 152.1302 384.3924 152.72395Q385.04865 153.3177 385.98615 153.3177Q387.11115 153.3177 387.87677 152.55208Q388.6424 151.77083 388.6424 150.6302Q388.6424 149.53645 387.92365 148.83333Q387.22052 148.11458 386.12677 148.11458Q385.67365 148.11458 385.00177 148.30208L385.17365 146.91145Q385.3299 146.92708 385.43927 146.92708Q386.43927 146.92708 387.25177 146.39583Q388.06427 145.86458 388.06427 144.77083Q388.06427 143.89583 387.47052 143.33333Q386.87677 142.7552 385.9549 142.7552Q385.03302 142.7552 384.40802 143.33333Q383.79865 143.91145 383.62677 145.08333L382.04865 144.80208Q382.3299 143.20833 383.36115 142.33333Q384.3924 141.45833 385.92365 141.45833Q386.97052 141.45833 387.86115 141.91145Q388.75177 142.36458 389.22052 143.14583Q389.68927 143.92708 389.68927 144.80208Q389.68927 145.64583 389.23615 146.33333Q388.79865 147.0052 387.90802 147.41145Q389.04865 147.67708 389.67365 148.52083Q390.31427 149.34895 390.31427 150.58333Q390.31427 152.27083 389.0799 153.45833Q387.86115 154.6302 385.98615 154.6302Q384.28302 154.6302 383.15802 153.61458Q382.04865 152.59895 381.87677 150.98958ZM392.7674 154.39583L392.7674 152.59895L394.56427 152.59895L394.56427 154.39583L392.7674 154.39583ZM396.87677 150.98958L398.47052 150.78645Q398.73615 152.1302 399.3924 152.72395Q400.04865 153.3177 400.98615 153.3177Q402.11115 153.3177 402.87677 152.55208Q403.6424 151.77083 403.6424 150.6302Q403.6424 149.53645 402.92365 148.83333Q402.22052 148.11458 401.12677 148.11458Q400.67365 148.11458 400.00177 148.30208L400.17365 146.91145Q400.3299 146.92708 400.43927 146.92708Q401.43927 146.92708 402.25177 146.39583Q403.06427 145.86458 403.06427 144.77083Q403.06427 143.89583 402.47052 143.33333Q401.87677 142.7552 400.9549 142.7552Q400.03302 142.7552 399.40802 143.33333Q398.79865 143.91145 398.62677 145.08333L397.04865 144.80208Q397.3299 143.20833 398.36115 142.33333Q399.3924 141.45833 400.92365 141.45833Q401.97052 141.45833 402.86115 141.91145Q403.75177 142.36458 404.22052 143.14583Q404.68927 143.92708 404.68927 144.80208Q404.68927 145.64583 404.23615 146.33333Q403.79865 147.0052 402.90802 147.41145Q404.04865 147.67708 404.67365 148.52083Q405.31427 149.34895 405.31427 150.58333Q405.31427 152.27083 404.0799 153.45833Q402.86115 154.6302 400.98615 154.6302Q399.28302 154.6302 398.15802 153.61458Q397.04865 152.59895 396.87677 150.98958ZM407.17365 144.59895Q407.17365 143.22395 407.86115 142.2552Q408.56427 141.28645 409.87677 141.28645Q411.09552 141.28645 411.8924 142.16145Q412.68927 143.02083 412.68927 144.70833Q412.68927 146.33333 411.87677 147.22395Q411.0799 148.09895 409.8924 148.09895Q408.73615 148.09895 407.9549 147.23958Q407.17365 146.36458 407.17365 144.59895ZM409.92365 142.3802Q409.3299 142.3802 408.93927 142.89583Q408.54865 143.39583 408.54865 144.7552Q408.54865 146.0052 408.93927 146.5052Q409.34552 147.0052 409.92365 147.0052Q410.5174 147.0052 410.90802 146.5052Q411.29865 145.98958 411.29865 144.64583Q411.29865 143.39583 410.90802 142.89583Q410.5174 142.3802 409.92365 142.3802ZM409.93927 154.86458L416.98615 141.28645L418.2674 141.28645L411.23615 154.86458L409.93927 154.86458ZM415.50177 151.36458Q415.50177 149.98958 416.18927 149.02083Q416.8924 148.05208 418.22052 148.05208Q419.43927 148.05208 420.22052 148.92708Q421.0174 149.78645 421.0174 151.47395Q421.0174 153.09895 420.22052 153.98958Q419.42365 154.86458 418.23615 154.86458Q417.06427 154.86458 416.28302 153.98958Q415.50177 153.11458 415.50177 151.36458ZM418.2674 149.14583Q417.67365 149.14583 417.28302 149.66145Q416.8924 150.16145 416.8924 151.53645Q416.8924 152.7552 417.28302 153.27083Q417.67365 153.78645 418.25177 153.78645Q418.86115 153.78645 419.25177 153.27083Q419.6424 152.7552 419.6424 151.41145Q419.6424 150.16145 419.25177 149.66145Q418.86115 149.14583 418.2674 149.14583Z" fill-rule="nonzero"/><path fill="#ffffff" d="M219.4625 303.43512L221.11874 303.2945Q221.30624 304.51324 221.97812 305.12262Q222.65 305.732 223.60312 305.732Q224.74374 305.732 225.525 304.87262Q226.32187 304.01324 226.32187 302.57574Q226.32187 301.232 225.55624 300.45074Q224.80624 299.6695 223.57187 299.6695Q222.80624 299.6695 222.18124 300.01324Q221.57187 300.357 221.22812 300.9195L219.74374 300.71637L220.99374 294.107L227.4 294.107L227.4 295.607L222.25937 295.607L221.55624 299.07574Q222.72812 298.26324 223.99374 298.26324Q225.68124 298.26324 226.8375 299.43512Q228.00937 300.607 228.00937 302.43512Q228.00937 304.18512 226.97812 305.46637Q225.74374 307.02887 223.60312 307.02887Q221.8375 307.02887 220.72812 306.0445Q219.61874 305.06012 219.4625 303.43512ZM229.4625 300.45074Q229.4625 298.1695 229.93124 296.77887Q230.4 295.38824 231.32187 294.63824Q232.25937 293.87262 233.66562 293.87262Q234.69687 293.87262 235.47812 294.2945Q236.25937 294.70074 236.75937 295.49762Q237.275 296.27887 237.57187 297.4195Q237.86874 298.5445 237.86874 300.45074Q237.86874 302.71637 237.4 304.12262Q236.93124 305.51324 235.99374 306.27887Q235.07187 307.02887 233.66562 307.02887Q231.79062 307.02887 230.72812 305.70074Q229.4625 304.09137 229.4625 300.45074ZM231.0875 300.45074Q231.0875 303.62262 231.82187 304.68512Q232.57187 305.732 233.66562 305.732Q234.74374 305.732 235.49374 304.68512Q236.24374 303.62262 236.24374 300.45074Q236.24374 297.27887 235.49374 296.232Q234.74374 295.18512 233.65 295.18512Q232.55624 295.18512 231.9 296.107Q231.0875 297.27887 231.0875 300.45074ZM240.35312 306.81012L240.35312 305.01324L242.15 305.01324L242.15 306.81012L240.35312 306.81012ZM244.4625 300.45074Q244.4625 298.1695 244.93124 296.77887Q245.4 295.38824 246.32187 294.63824Q247.25937 293.87262 248.66562 293.87262Q249.69687 293.87262 250.47812 294.2945Q251.25937 294.70074 251.75937 295.49762Q252.275 296.27887 252.57187 297.4195Q252.86874 298.5445 252.86874 300.45074Q252.86874 302.71637 252.4 304.12262Q251.93124 305.51324 250.99374 306.27887Q250.07187 307.02887 248.66562 307.02887Q246.79062 307.02887 245.72812 305.70074Q244.4625 304.09137 244.4625 300.45074ZM246.0875 300.45074Q246.0875 303.62262 246.82187 304.68512Q247.57187 305.732 248.66562 305.732Q249.74374 305.732 250.49374 304.68512Q251.24374 303.62262 251.24374 300.45074Q251.24374 297.27887 250.49374 296.232Q249.74374 295.18512 248.65 295.18512Q247.55624 295.18512 246.9 296.107Q246.0875 297.27887 246.0875 300.45074ZM254.75937 297.01324Q254.75937 295.63824 255.44687 294.6695Q256.15 293.70074 257.4625 293.70074Q258.68124 293.70074 259.47812 294.57574Q260.275 295.43512 260.275 297.12262Q260.275 298.74762 259.4625 299.63824Q258.66562 300.51324 257.47812 300.51324Q256.32187 300.51324 255.54062 299.65387Q254.75937 298.77887 254.75937 297.01324ZM257.50937 294.7945Q256.91562 294.7945 256.525 295.31012Q256.13437 295.81012 256.13437 297.1695Q256.13437 298.4195 256.525 298.9195Q256.93124 299.4195 257.50937 299.4195Q258.10312 299.4195 258.49374 298.9195Q258.88437 298.40387 258.88437 297.06012Q258.88437 295.81012 258.49374 295.31012Q258.10312 294.7945 257.50937 294.7945ZM257.525 307.27887L264.57187 293.70074L265.85312 293.70074L258.82187 307.27887L257.525 307.27887ZM263.0875 303.77887Q263.0875 302.40387 263.775 301.43512Q264.47812 300.46637 265.80624 300.46637Q267.025 300.46637 267.80624 301.34137Q268.60312 302.20074 268.60312 303.88824Q268.60312 305.51324 267.80624 306.40387Q267.00937 307.27887 265.82187 307.27887Q264.65 307.27887 263.86874 306.40387Q263.0875 305.52887 263.0875 303.77887ZM265.85312 301.56012Q265.25937 301.56012 264.86874 302.07574Q264.47812 302.57574 264.47812 303.95074Q264.47812 305.1695 264.86874 305.68512Q265.25937 306.20074 265.8375 306.20074Q266.44687 306.20074 266.8375 305.68512Q267.22812 305.1695 267.22812 303.82574Q267.22812 302.57574 266.8375 302.07574Q266.44687 301.56012 265.85312 301.56012Z" fill-rule="nonzero"/><path fill="#ffffff" d="M225.41562 113.55655L223.8375 113.55655L223.8375 103.478424Q223.25937 104.0253 222.3375 104.572174Q221.41562 105.103424 220.66562 105.384674L220.66562 103.853424Q221.99374 103.228424 222.99374 102.3378Q223.99374 101.447174 224.4 100.61905L225.41562 100.61905L225.41562 113.55655ZM237.66562 103.822174L236.10312 103.947174Q235.88437 103.0253 235.49374 102.603424Q234.85312 101.915924 233.91562 101.915924Q233.16562 101.915924 232.5875 102.3378Q231.8375 102.884674 231.4 103.93155Q230.97812 104.978424 230.9625 106.915924Q231.54062 106.040924 232.35312 105.61905Q233.18124 105.197174 234.0875 105.197174Q235.68124 105.197174 236.79062 106.36905Q237.9 107.5253 237.9 109.36905Q237.9 110.5878 237.36874 111.634674Q236.85312 112.665924 235.93124 113.228424Q235.025 113.7753 233.86874 113.7753Q231.88437 113.7753 230.63437 112.322174Q229.38437 110.86905 229.38437 107.5253Q229.38437 103.790924 230.775 102.0878Q231.97812 100.61905 234.00937 100.61905Q235.54062 100.61905 236.50937 101.478424Q237.47812 102.322174 237.66562 103.822174ZM231.2125 109.384674Q231.2125 110.197174 231.55624 110.947174Q231.9 111.697174 232.525 112.0878Q233.15 112.478424 233.8375 112.478424Q234.8375 112.478424 235.55624 111.665924Q236.275 110.853424 236.275 109.4628Q236.275 108.134674 235.55624 107.36905Q234.85312 106.5878 233.775 106.5878Q232.69687 106.5878 231.94687 107.36905Q231.2125 108.134674 231.2125 109.384674ZM240.35312 113.55655L240.35312 111.759674L242.15 111.759674L242.15 113.55655L240.35312 113.55655ZM244.57187 102.353424L244.57187 100.8378L252.9 100.8378L252.9 102.072174Q251.68124 103.384674 250.4625 105.55655Q249.25937 107.7128 248.60312 110.009674Q248.11874 111.634674 247.99374 113.55655L246.36874 113.55655Q246.4 112.040924 246.9625 109.884674Q247.54062 107.728424 248.60312 105.728424Q249.66562 103.728424 250.86874 102.353424L244.57187 102.353424ZM254.75937 103.759674Q254.75937 102.384674 255.44687 101.415924Q256.15 100.447174 257.4625 100.447174Q258.68124 100.447174 259.47812 101.322174Q260.275 102.18155 260.275 103.86905Q260.275 105.49405 259.4625 106.384674Q258.66562 107.259674 257.47812 107.259674Q256.32187 107.259674 255.54062 106.4003Q254.75937 105.5253 254.75937 103.759674ZM257.50937 101.540924Q256.91562 101.540924 256.525 102.05655Q256.13437 102.55655 256.13437 103.915924Q256.13437 105.165924 256.525 105.665924Q256.93124 106.165924 257.50937 106.165924Q258.10312 106.165924 258.49374 105.665924Q258.88437 105.1503 258.88437 103.80655Q258.88437 102.55655 258.49374 102.05655Q258.10312 101.540924 257.50937 101.540924ZM257.525 114.0253L264.57187 100.447174L265.85312 100.447174L258.82187 114.0253L257.525 114.0253ZM263.0875 110.5253Q263.0875 109.1503 263.775 108.18155Q264.47812 107.2128 265.80624 107.2128Q267.025 107.2128 267.80624 108.0878Q268.60312 108.947174 268.60312 110.634674Q268.60312 112.259674 267.80624 113.1503Q267.00937 114.0253 265.82187 114.0253Q264.65 114.0253 263.86874 113.1503Q263.0875 112.2753 263.0875 110.5253ZM265.85312 108.30655Q265.25937 108.30655 264.86874 108.822174Q264.47812 109.322174 264.47812 110.697174Q264.47812 111.915924 264.86874 112.43155Q265.25937 112.947174 265.8375 112.947174Q266.44687 112.947174 266.8375 112.43155Q267.22812 111.915924 267.22812 110.572174Q267.22812 109.322174 266.8375 108.822174Q266.44687 108.30655 265.85312 108.30655Z" fill-rule="nonzero"/><path stroke="#ffffff" stroke-width="1.0" stroke-linejoin="round" stroke-linecap="round" d="M364.41785 240.875C377.70517 217.86072 377.70517 189.50595 364.41785 166.49167C351.13055 143.47739 326.57462 129.3 300.0 129.3L300.0 54.916668C353.1492 54.916668 402.2611 83.27143 428.83572 129.3C455.4103 175.32857 455.4103 232.0381 428.83572 278.06668" fill-rule="nonzero"/><path stroke="#ffffff" stroke-width="1.0" stroke-linejoin="round" stroke-linecap="round" d="M235.58214 166.49167C215.04175 202.06866 227.23134 247.5608 262.80832 268.1012C298.38535 288.64157 343.87747 276.452 364.41785 240.875L428.83572 278.06668C387.75494 349.22067 296.77066 373.59982 225.61667 332.51904C154.46266 291.43826 130.08351 200.454 171.16429 129.3" fill-rule="nonzero"/><path stroke="#ffffff" stroke-width="1.0" stroke-linejoin="round" stroke-linecap="round" d="M300.0 129.3C273.42538 129.3 248.86945 143.47739 235.58214 166.49167L171.16429 129.3C197.73889 83.27143 246.85078 54.916668 300.0 54.916668" fill-rule="nonzero"/><path fill="#efefef" d="M18.51875 75.789406L22.925 64.33628L24.565624 64.33628L29.253124 75.789406L27.51875 75.789406L26.190624 72.320656L21.39375 72.320656L20.14375 75.789406L18.51875 75.789406ZM21.83125 71.08628L25.721874 71.08628L24.51875 67.914406Q23.971874 66.46128 23.70625 65.539406Q23.4875 66.633156 23.096874 67.726906L21.83125 71.08628ZM30.596874 75.789406L30.596874 67.49253L31.8625 67.49253L31.8625 68.74253Q32.346874 67.86753 32.753124 67.58628Q33.159374 67.30503 33.659374 67.30503Q34.3625 67.30503 35.096874 67.758156L34.6125 69.05503Q34.096874 68.758156 33.58125 68.758156Q33.128124 68.758156 32.753124 69.039406Q32.39375 69.30503 32.2375 69.80503Q32.003124 70.55503 32.003124 71.445656L32.003124 75.789406L30.596874 75.789406ZM41.01875 72.74253L42.409374 72.93003Q42.175 74.351906 41.2375 75.164406Q40.315624 75.976906 38.95625 75.976906Q37.253124 75.976906 36.20625 74.86753Q35.175 73.74253 35.175 71.664406Q35.175 70.320656 35.6125 69.320656Q36.065624 68.30503 36.971874 67.80503Q37.89375 67.30503 38.95625 67.30503Q40.315624 67.30503 41.175 67.99253Q42.034374 68.664406 42.26875 69.93003L40.909374 70.133156Q40.70625 69.30503 40.20625 68.883156Q39.721874 68.46128 39.01875 68.46128Q37.95625 68.46128 37.284374 69.226906Q36.628124 69.976906 36.628124 71.633156Q36.628124 73.30503 37.26875 74.070656Q37.909374 74.820656 38.940624 74.820656Q39.76875 74.820656 40.315624 74.320656Q40.878124 73.80503 41.01875 72.74253ZM43.6125 75.789406L43.6125 64.33628L45.01875 64.33628L45.01875 68.445656Q46.003124 67.30503 47.503124 67.30503Q48.425 67.30503 49.096874 67.664406Q49.784374 68.02378 50.065624 68.664406Q50.3625 69.30503 50.3625 70.52378L50.3625 75.789406L48.95625 75.789406L48.95625 70.52378Q48.95625 69.476906 48.503124 68.99253Q48.05 68.508156 47.20625 68.508156Q46.58125 68.508156 46.034374 68.83628Q45.4875 69.164406 45.253124 69.726906Q45.01875 70.27378 45.01875 71.24253L45.01875 75.789406L43.6125 75.789406ZM52.6125 65.945656L52.6125 64.33628L54.01875 64.33628L54.01875 65.945656L52.6125 65.945656ZM52.6125 75.789406L52.6125 67.49253L54.01875 67.49253L54.01875 75.789406L52.6125 75.789406ZM59.675 74.52378L59.878124 75.77378Q59.284374 75.89878 58.815624 75.89878Q58.05 75.89878 57.628124 75.664406Q57.20625 75.414406 57.034374 75.02378Q56.8625 74.61753 56.8625 73.351906L56.8625 68.58628L55.83125 68.58628L55.83125 67.49253L56.8625 67.49253L56.8625 65.43003L58.26875 64.58628L58.26875 67.49253L59.675 67.49253L59.675 68.58628L58.26875 68.58628L58.26875 73.43003Q58.26875 74.039406 58.33125 74.21128Q58.409374 74.383156 58.58125 74.49253Q58.753124 74.58628 59.065624 74.58628Q59.3 74.58628 59.675 74.52378ZM66.28438 73.11753L67.7375 73.289406Q67.39375 74.570656 66.45625 75.27378Q65.53438 75.976906 64.09688 75.976906Q62.26875 75.976906 61.20625 74.851906Q60.14375 73.726906 60.14375 71.71128Q60.14375 69.61753 61.221874 68.46128Q62.3 67.30503 64.01875 67.30503Q65.675 67.30503 66.72188 68.445656Q67.78438 69.570656 67.78438 71.61753Q67.78438 71.74253 67.78438 71.99253L61.596874 71.99253Q61.675 73.36753 62.3625 74.101906Q63.065624 74.820656 64.09688 74.820656Q64.87813 74.820656 65.425 74.414406Q65.97188 74.008156 66.28438 73.11753ZM61.675 70.83628L66.3 70.83628Q66.20625 69.789406 65.76875 69.27378Q65.09688 68.46128 64.03438 68.46128Q63.065624 68.46128 62.39375 69.11753Q61.7375 69.758156 61.675 70.83628ZM75.01875 72.74253L76.40938 72.93003Q76.175 74.351906 75.2375 75.164406Q74.31563 75.976906 72.95625 75.976906Q71.25313 75.976906 70.20625 74.86753Q69.175 73.74253 69.175 71.664406Q69.175 70.320656 69.6125 69.320656Q70.06563 68.30503 70.97188 67.80503Q71.89375 67.30503 72.95625 67.30503Q74.31563 67.30503 75.175 67.99253Q76.03438 68.664406 76.26875 69.93003L74.90938 70.133156Q74.70625 69.30503 74.20625 68.883156Q73.72188 68.46128 73.01875 68.46128Q71.95625 68.46128 71.28438 69.226906Q70.62813 69.976906 70.62813 71.633156Q70.62813 73.30503 71.26875 74.070656Q71.90938 74.820656 72.94063 74.820656Q73.76875 74.820656 74.31563 74.320656Q74.87813 73.80503 75.01875 72.74253ZM80.675 74.52378L80.87813 75.77378Q80.28438 75.89878 79.81563 75.89878Q79.05 75.89878 78.62813 75.664406Q78.20625 75.414406 78.03438 75.02378Q77.8625 74.61753 77.8625 73.351906L77.8625 68.58628L76.83125 68.58628L76.83125 67.49253L77.8625 67.49253L77.8625 65.43003L79.26875 64.58628L79.26875 67.49253L80.675 67.49253L80.675 68.58628L79.26875 68.58628L79.26875 73.43003Q79.26875 74.039406 79.33125 74.21128Q79.40938 74.383156 79.58125 74.49253Q79.75313 74.58628 80.06563 74.58628Q80.3 74.58628 80.675 74.52378ZM87.05 75.789406L87.05 74.570656Q86.08125 75.976906 84.40938 75.976906Q83.675 75.976906 83.03438 75.695656Q82.40938 75.414406 82.09688 74.99253Q81.78438 74.55503 81.65938 73.945656Q81.58125 73.52378 81.58125 72.633156L81.58125 67.49253L82.9875 67.49253L82.9875 72.08628Q82.9875 73.195656 83.06563 73.570656Q83.20625 74.133156 83.62813 74.445656Q84.06563 74.758156 84.69063 74.758156Q85.33125 74.758156 85.87813 74.445656Q86.44063 74.11753 86.65938 73.55503Q86.89375 72.99253 86.89375 71.93003L86.89375 67.49253L88.3 67.49253L88.3 75.789406L87.05 75.789406ZM90.59688 75.789406L90.59688 67.49253L91.8625 67.49253L91.8625 68.74253Q92.34688 67.86753 92.75313 67.58628Q93.15938 67.30503 93.65938 67.30503Q94.3625 67.30503 95.09688 67.758156L94.6125 69.05503Q94.09688 68.758156 93.58125 68.758156Q93.12813 68.758156 92.75313 69.039406Q92.39375 69.30503 92.2375 69.80503Q92.00313 70.55503 92.00313 71.445656L92.00313 75.789406L90.59688 75.789406ZM101.28438 73.11753L102.7375 73.289406Q102.39375 74.570656 101.45625 75.27378Q100.53438 75.976906 99.09688 75.976906Q97.26875 75.976906 96.20625 74.851906Q95.14375 73.726906 95.14375 71.71128Q95.14375 69.61753 96.22188 68.46128Q97.3 67.30503 99.01875 67.30503Q100.675 67.30503 101.72188 68.445656Q102.78438 69.570656 102.78438 71.61753Q102.78438 71.74253 102.78438 71.99253L96.59688 71.99253Q96.675 73.36753 97.3625 74.101906Q98.06563 74.820656 99.09688 74.820656Q99.87813 74.820656 100.425 74.414406Q100.97188 74.008156 101.28438 73.11753ZM96.675 70.83628L101.3 70.83628Q101.20625 69.789406 100.76875 69.27378Q100.09688 68.46128 99.03438 68.46128Q98.06563 68.46128 97.39375 69.11753Q96.7375 69.758156 96.675 70.83628ZM115.15938 74.43003Q114.45625 75.21128 113.62813 75.601906Q112.81563 75.99253 111.8625 75.99253Q110.1125 75.99253 109.08125 74.789406Q108.2375 73.820656 108.2375 72.633156Q108.2375 71.570656 108.925 70.71128Q109.6125 69.851906 110.97188 69.21128Q110.19063 68.320656 109.925 67.77378Q109.675 67.21128 109.675 66.695656Q109.675 65.664406 110.4875 64.89878Q111.3 64.133156 112.51875 64.133156Q113.69063 64.133156 114.44063 64.851906Q115.19063 65.570656 115.19063 66.58628Q115.19063 68.21128 113.01875 69.36753L115.08125 71.99253Q115.425 71.30503 115.62813 70.39878L117.08125 70.71128Q116.70625 72.21128 116.06563 73.18003Q116.8625 74.226906 117.8625 74.93003L116.90938 76.05503Q116.06563 75.508156 115.15938 74.43003ZM112.3 68.46128Q113.20625 67.93003 113.47188 67.52378Q113.75313 67.11753 113.75313 66.61753Q113.75313 66.039406 113.37813 65.664406Q113.00313 65.289406 112.45625 65.289406Q111.87813 65.289406 111.50313 65.664406Q111.12813 66.02378 111.12813 66.55503Q111.12813 66.820656 111.25313 67.11753Q111.39375 67.414406 111.675 67.74253L112.3 68.46128ZM114.26875 73.320656L111.69063 70.133156Q110.55 70.80503 110.14375 71.39878Q109.75313 71.976906 109.75313 72.539406Q109.75313 73.24253 110.3 73.99253Q110.8625 74.74253 111.87813 74.74253Q112.51875 74.74253 113.19063 74.351906Q113.8625 73.945656 114.26875 73.320656Z" fill-rule="nonzero"/><path fill="#9e9e9e" d="M24.51875 97.789406L23.1125 97.789406L23.1125 88.820656Q22.596874 89.30503 21.76875 89.789406Q20.95625 90.27378 20.3 90.52378L20.3 89.164406Q21.471874 88.601906 22.346874 87.820656Q23.2375 87.02378 23.6125 86.289406L24.51875 86.289406L24.51875 97.789406ZM35.51875 89.133156L34.1125 89.24253Q33.925 88.414406 33.58125 88.039406Q33.01875 87.445656 32.175 87.445656Q31.503124 87.445656 31.003124 87.820656Q30.33125 88.30503 29.940624 89.24253Q29.565624 90.164406 29.55 91.883156Q30.065624 91.101906 30.8 90.726906Q31.534374 90.351906 32.33125 90.351906Q33.7375 90.351906 34.721874 91.39878Q35.721874 92.43003 35.721874 94.070656Q35.721874 95.14878 35.253124 96.070656Q34.784374 96.99253 33.971874 97.49253Q33.159374 97.99253 32.128124 97.99253Q30.378124 97.99253 29.26875 96.695656Q28.159374 95.39878 28.159374 92.43003Q28.159374 89.101906 29.378124 87.601906Q30.45625 86.289406 32.26875 86.289406Q33.6125 86.289406 34.471874 87.05503Q35.346874 87.80503 35.51875 89.133156ZM29.76875 94.070656Q29.76875 94.80503 30.08125 95.476906Q30.39375 96.133156 30.940624 96.476906Q31.503124 96.820656 32.1125 96.820656Q33.003124 96.820656 33.64375 96.101906Q34.284374 95.383156 34.284374 94.14878Q34.284374 92.96128 33.64375 92.289406Q33.01875 91.601906 32.05 91.601906Q31.096874 91.601906 30.425 92.289406Q29.76875 92.96128 29.76875 94.070656ZM38.003124 97.789406L38.003124 96.18003L39.6125 96.18003L39.6125 97.789406L38.003124 97.789406ZM41.315624 87.83628L41.315624 86.476906L48.721874 86.476906L48.721874 87.570656Q47.628124 88.74253 46.55 90.68003Q45.4875 92.601906 44.89375 94.633156Q44.471874 96.070656 44.3625 97.789406L42.909374 97.789406Q42.940624 96.43003 43.440624 94.52378Q43.95625 92.601906 44.89375 90.83628Q45.846874 89.05503 46.925 87.83628L41.315624 87.83628ZM50.4875 89.08628Q50.4875 87.851906 51.096874 86.99253Q51.721874 86.133156 52.89375 86.133156Q53.971874 86.133156 54.675 86.914406Q55.378124 87.68003 55.378124 89.164406Q55.378124 90.61753 54.659374 91.414406Q53.95625 92.195656 52.909374 92.195656Q51.8625 92.195656 51.175 91.43003Q50.4875 90.64878 50.4875 89.08628ZM52.925 87.101906Q52.409374 87.101906 52.05 87.55503Q51.70625 88.008156 51.70625 89.226906Q51.70625 90.320656 52.05 90.77378Q52.409374 91.226906 52.925 91.226906Q53.45625 91.226906 53.8 90.77378Q54.159374 90.320656 54.159374 89.11753Q54.159374 88.008156 53.8 87.55503Q53.45625 87.101906 52.925 87.101906ZM52.940624 98.21128L59.20625 86.133156L60.346874 86.133156L54.096874 98.21128L52.940624 98.21128ZM57.89375 95.101906Q57.89375 93.86753 58.503124 93.008156Q59.128124 92.14878 60.3 92.14878Q61.378124 92.14878 62.08125 92.93003Q62.8 93.695656 62.8 95.18003Q62.8 96.633156 62.08125 97.43003Q61.3625 98.21128 60.315624 98.21128Q59.26875 98.21128 58.58125 97.43003Q57.89375 96.64878 57.89375 95.101906ZM60.346874 93.11753Q59.815624 93.11753 59.45625 93.570656Q59.1125 94.02378 59.1125 95.24253Q59.1125 96.33628 59.45625 96.789406Q59.815624 97.24253 60.33125 97.24253Q60.878124 97.24253 61.221874 96.789406Q61.565624 96.33628 61.565624 95.133156Q61.565624 94.02378 61.20625 93.570656Q60.8625 93.11753 60.346874 93.11753Z" fill-rule="nonzero"/><path stroke="#757575" stroke-width="1.0" stroke-linecap="butt" d="M18.55 81.289406L145.23334 81.289406L229.33583 81.289406" fill-rule="nonzero"/><path fill="#9e9e9e" d="M231.33583 81.289406C231.33583 80.18484 230.4404 79.289406 229.33583 79.289406C228.23126 79.289406 227.33583 80.18484 227.33583 81.289406C227.33583 82.393974 228.23126 83.289406 229.33583 83.289406C230.4404 83.289406 231.33583 82.393974 231.33583 81.289406" fill-rule="nonzero"/><path fill="#efefef" d="M27.95625 316.56165L29.471874 316.93665Q29.003124 318.81165 27.753124 319.79602Q26.51875 320.7804 24.7375 320.7804Q22.878124 320.7804 21.721874 320.0304Q20.565624 319.26477 19.95625 317.8429Q19.346874 316.4054 19.346874 314.76477Q19.346874 312.9679 20.034374 311.63977Q20.721874 310.31165 21.971874 309.62415Q23.2375 308.92102 24.753124 308.92102Q26.471874 308.92102 27.64375 309.79602Q28.815624 310.67102 29.284374 312.26477L27.784374 312.60852Q27.39375 311.35852 26.628124 310.79602Q25.878124 310.2179 24.721874 310.2179Q23.409374 310.2179 22.51875 310.85852Q21.628124 311.48352 21.26875 312.56165Q20.909374 313.62415 20.909374 314.74915Q20.909374 316.2179 21.33125 317.31165Q21.76875 318.38977 22.659374 318.93665Q23.565624 319.4679 24.6125 319.4679Q25.878124 319.4679 26.753124 318.73352Q27.64375 317.99915 27.95625 316.56165ZM37.05 320.57727L37.05 319.35852Q36.08125 320.76477 34.409374 320.76477Q33.675 320.76477 33.034374 320.48352Q32.409374 320.20227 32.096874 319.7804Q31.784374 319.3429 31.659374 318.73352Q31.58125 318.31165 31.58125 317.42102L31.58125 312.2804L32.9875 312.2804L32.9875 316.87415Q32.9875 317.98352 33.065624 318.35852Q33.20625 318.92102 33.628124 319.23352Q34.065624 319.54602 34.690624 319.54602Q35.33125 319.54602 35.878124 319.23352Q36.440624 318.9054 36.659374 318.3429Q36.89375 317.7804 36.89375 316.7179L36.89375 312.2804L38.3 312.2804L38.3 320.57727L37.05 320.57727ZM40.58125 320.57727L40.58125 309.12415L41.9875 309.12415L41.9875 320.57727L40.58125 320.57727ZM47.675 319.31165L47.878124 320.56165Q47.284374 320.68665 46.815624 320.68665Q46.05 320.68665 45.628124 320.45227Q45.20625 320.20227 45.034374 319.81165Q44.8625 319.4054 44.8625 318.13977L44.8625 313.37415L43.83125 313.37415L43.83125 312.2804L44.8625 312.2804L44.8625 310.2179L46.26875 309.37415L46.26875 312.2804L47.675 312.2804L47.675 313.37415L46.26875 313.37415L46.26875 318.2179Q46.26875 318.82727 46.33125 318.99915Q46.409374 319.17102 46.58125 319.2804Q46.753124 319.37415 47.065624 319.37415Q47.3 319.37415 47.675 319.31165ZM54.05 320.57727L54.05 319.35852Q53.08125 320.76477 51.409374 320.76477Q50.675 320.76477 50.034374 320.48352Q49.409374 320.20227 49.096874 319.7804Q48.784374 319.3429 48.659374 318.73352Q48.58125 318.31165 48.58125 317.42102L48.58125 312.2804L49.9875 312.2804L49.9875 316.87415Q49.9875 317.98352 50.065624 318.35852Q50.20625 318.92102 50.628124 319.23352Q51.065624 319.54602 51.690624 319.54602Q52.33125 319.54602 52.878124 319.23352Q53.440624 318.9054 53.659374 318.3429Q53.89375 317.7804 53.89375 316.7179L53.89375 312.2804L55.3 312.2804L55.3 320.57727L54.05 320.57727ZM57.596874 320.57727L57.596874 312.2804L58.8625 312.2804L58.8625 313.5304Q59.346874 312.6554 59.753124 312.37415Q60.159374 312.0929 60.659374 312.0929Q61.3625 312.0929 62.096874 312.54602L61.6125 313.8429Q61.096874 313.54602 60.58125 313.54602Q60.128124 313.54602 59.753124 313.82727Q59.39375 314.0929 59.2375 314.5929Q59.003124 315.3429 59.003124 316.23352L59.003124 320.57727L57.596874 320.57727ZM68.01875 319.54602Q67.2375 320.2179 66.51875 320.49915Q65.8 320.76477 64.97188 320.76477Q63.596874 320.76477 62.8625 320.0929Q62.128124 319.42102 62.128124 318.38977Q62.128124 317.7804 62.409374 317.2804Q62.690624 316.76477 63.128124 316.4679Q63.58125 316.1554 64.14375 315.99915Q64.56563 315.88977 65.39375 315.79602Q67.09688 315.5929 67.90938 315.31165Q67.90938 315.01477 67.90938 314.93665Q67.90938 314.07727 67.51875 313.73352Q66.97188 313.24915 65.90938 313.24915Q64.925 313.24915 64.44063 313.60852Q63.971874 313.95227 63.753124 314.82727L62.378124 314.63977Q62.565624 313.76477 62.9875 313.2179Q63.425 312.67102 64.2375 312.38977Q65.05 312.0929 66.1125 312.0929Q67.175 312.0929 67.83125 312.3429Q68.50313 312.5929 68.81563 312.9679Q69.12813 313.3429 69.25313 313.92102Q69.33125 314.2804 69.33125 315.2179L69.33125 317.0929Q69.33125 319.06165 69.40938 319.57727Q69.50313 320.0929 69.76875 320.57727L68.3 320.57727Q68.08125 320.13977 68.01875 319.54602ZM67.90938 316.4054Q67.14375 316.7179 65.6125 316.93665Q64.7375 317.06165 64.37813 317.2179Q64.01875 317.37415 63.815624 317.68665Q63.628124 317.98352 63.628124 318.3429Q63.628124 318.9054 64.05 319.2804Q64.4875 319.6554 65.3 319.6554Q66.1125 319.6554 66.7375 319.31165Q67.37813 318.95227 67.675 318.32727Q67.90938 317.85852 67.90938 316.92102L67.90938 316.4054ZM71.58125 320.57727L71.58125 309.12415L72.9875 309.12415L72.9875 320.57727L71.58125 320.57727ZM78.51875 320.57727L82.925 309.12415L84.56563 309.12415L89.25313 320.57727L87.51875 320.57727L86.19063 317.10852L81.39375 317.10852L80.14375 320.57727L78.51875 320.57727ZM81.83125 315.87415L85.72188 315.87415L84.51875 312.70227Q83.97188 311.24915 83.70625 310.32727Q83.4875 311.42102 83.09688 312.51477L81.83125 315.87415ZM96.01875 317.5304L97.40938 317.7179Q97.175 319.13977 96.2375 319.95227Q95.31563 320.76477 93.95625 320.76477Q92.25313 320.76477 91.20625 319.6554Q90.175 318.5304 90.175 316.45227Q90.175 315.10852 90.6125 314.10852Q91.06563 313.0929 91.97188 312.5929Q92.89375 312.0929 93.95625 312.0929Q95.31563 312.0929 96.175 312.7804Q97.03438 313.45227 97.26875 314.7179L95.90938 314.92102Q95.70625 314.0929 95.20625 313.67102Q94.72188 313.24915 94.01875 313.24915Q92.95625 313.24915 92.28438 314.01477Q91.62813 314.76477 91.62813 316.42102Q91.62813 318.0929 92.26875 318.85852Q92.90938 319.60852 93.94063 319.60852Q94.76875 319.60852 95.31563 319.10852Q95.87813 318.5929 96.01875 317.5304ZM101.675 319.31165L101.87813 320.56165Q101.28438 320.68665 100.81563 320.68665Q100.05 320.68665 99.62813 320.45227Q99.20625 320.20227 99.03438 319.81165Q98.8625 319.4054 98.8625 318.13977L98.8625 313.37415L97.83125 313.37415L97.83125 312.2804L98.8625 312.2804L98.8625 310.2179L100.26875 309.37415L100.26875 312.2804L101.675 312.2804L101.675 313.37415L100.26875 313.37415L100.26875 318.2179Q100.26875 318.82727 100.33125 318.99915Q100.40938 319.17102 100.58125 319.2804Q100.75313 319.37415 101.06563 319.37415Q101.3 319.37415 101.675 319.31165ZM102.05 318.0929L103.44063 317.87415Q103.55 318.7179 104.08125 319.17102Q104.62813 319.60852 105.58125 319.60852Q106.55 319.60852 107.01875 319.2179Q107.4875 318.81165 107.4875 318.2804Q107.4875 317.81165 107.08125 317.5304Q106.78438 317.3429 105.64375 317.06165Q104.09688 316.67102 103.4875 316.38977Q102.89375 316.0929 102.58125 315.5929Q102.28438 315.0929 102.28438 314.48352Q102.28438 313.92102 102.53438 313.45227Q102.78438 312.98352 103.22188 312.67102Q103.55 312.42102 104.1125 312.26477Q104.69063 312.0929 105.33125 312.0929Q106.31563 312.0929 107.05 312.37415Q107.78438 312.6554 108.12813 313.13977Q108.4875 313.60852 108.62813 314.42102L107.25313 314.60852Q107.15938 313.9679 106.70625 313.60852Q106.25313 313.24915 105.44063 313.24915Q104.47188 313.24915 104.05 313.57727Q103.64375 313.88977 103.64375 314.31165Q103.64375 314.5929 103.81563 314.81165Q103.9875 315.0304 104.34688 315.18665Q104.56563 315.26477 105.59688 315.54602Q107.08125 315.93665 107.675 316.20227Q108.26875 316.45227 108.59688 316.93665Q108.94063 317.42102 108.94063 318.13977Q108.94063 318.8429 108.51875 319.4679Q108.1125 320.07727 107.33125 320.42102Q106.56563 320.76477 105.59688 320.76477Q103.97188 320.76477 103.12813 320.0929Q102.28438 319.42102 102.05 318.0929ZM111.00313 320.57727L111.00313 318.9679L112.6125 318.9679L112.6125 320.57727L111.00313 320.57727Z" fill-rule="nonzero"/><path fill="#9e9e9e" d="M19.221874 339.57727L20.690624 339.45227Q20.8625 340.5304 21.45625 341.07727Q22.05 341.60852 22.89375 341.60852Q23.909374 341.60852 24.6125 340.8429Q25.315624 340.07727 25.315624 338.81165Q25.315624 337.60852 24.64375 336.92102Q23.971874 336.2179 22.878124 336.2179Q22.190624 336.2179 21.64375 336.5304Q21.096874 336.8429 20.784374 337.32727L19.471874 337.1554L20.58125 331.2804L26.26875 331.2804L26.26875 332.62415L21.70625 332.62415L21.08125 335.70227Q22.1125 334.98352 23.253124 334.98352Q24.753124 334.98352 25.784374 336.0304Q26.815624 337.06165 26.815624 338.68665Q26.815624 340.24915 25.909374 341.37415Q24.8 342.7804 22.89375 342.7804Q21.33125 342.7804 20.346874 341.9054Q19.3625 341.01477 19.221874 339.57727ZM28.221874 336.92102Q28.221874 334.88977 28.628124 333.6554Q29.05 332.42102 29.878124 331.74915Q30.70625 331.07727 31.95625 331.07727Q32.878124 331.07727 33.565624 331.45227Q34.26875 331.81165 34.721874 332.51477Q35.175 333.2179 35.425 334.2179Q35.690624 335.2179 35.690624 336.92102Q35.690624 338.93665 35.26875 340.18665Q34.8625 341.42102 34.034374 342.10852Q33.20625 342.7804 31.95625 342.7804Q30.3 342.7804 29.346874 341.57727Q28.221874 340.1554 28.221874 336.92102ZM29.659374 336.92102Q29.659374 339.74915 30.315624 340.68665Q30.9875 341.60852 31.95625 341.60852Q32.925 341.60852 33.58125 340.67102Q34.2375 339.73352 34.2375 336.92102Q34.2375 334.0929 33.58125 333.17102Q32.925 332.23352 31.940624 332.23352Q30.971874 332.23352 30.39375 333.06165Q29.659374 334.10852 29.659374 336.92102ZM38.003124 342.57727L38.003124 340.9679L39.6125 340.9679L39.6125 342.57727L38.003124 342.57727ZM41.221874 336.92102Q41.221874 334.88977 41.628124 333.6554Q42.05 332.42102 42.878124 331.74915Q43.70625 331.07727 44.95625 331.07727Q45.878124 331.07727 46.565624 331.45227Q47.26875 331.81165 47.721874 332.51477Q48.175 333.2179 48.425 334.2179Q48.690624 335.2179 48.690624 336.92102Q48.690624 338.93665 48.26875 340.18665Q47.8625 341.42102 47.034374 342.10852Q46.20625 342.7804 44.95625 342.7804Q43.3 342.7804 42.346874 341.57727Q41.221874 340.1554 41.221874 336.92102ZM42.659374 336.92102Q42.659374 339.74915 43.315624 340.68665Q43.9875 341.60852 44.95625 341.60852Q45.925 341.60852 46.58125 340.67102Q47.2375 339.73352 47.2375 336.92102Q47.2375 334.0929 46.58125 333.17102Q45.925 332.23352 44.940624 332.23352Q43.971874 332.23352 43.39375 333.06165Q42.659374 334.10852 42.659374 336.92102ZM50.4875 333.87415Q50.4875 332.63977 51.096874 331.7804Q51.721874 330.92102 52.89375 330.92102Q53.971874 330.92102 54.675 331.70227Q55.378124 332.4679 55.378124 333.95227Q55.378124 335.4054 54.659374 336.20227Q53.95625 336.98352 52.909374 336.98352Q51.8625 336.98352 51.175 336.2179Q50.4875 335.43665 50.4875 333.87415ZM52.925 331.88977Q52.409374 331.88977 52.05 332.3429Q51.70625 332.79602 51.70625 334.01477Q51.70625 335.10852 52.05 335.56165Q52.409374 336.01477 52.925 336.01477Q53.45625 336.01477 53.8 335.56165Q54.159374 335.10852 54.159374 333.9054Q54.159374 332.79602 53.8 332.3429Q53.45625 331.88977 52.925 331.88977ZM52.940624 342.99915L59.20625 330.92102L60.346874 330.92102L54.096874 342.99915L52.940624 342.99915ZM57.89375 339.88977Q57.89375 338.6554 58.503124 337.79602Q59.128124 336.93665 60.3 336.93665Q61.378124 336.93665 62.08125 337.7179Q62.8 338.48352 62.8 339.9679Q62.8 341.42102 62.08125 342.2179Q61.3625 342.99915 60.315624 342.99915Q59.26875 342.99915 58.58125 342.2179Q57.89375 341.43665 57.89375 339.88977ZM60.346874 337.9054Q59.815624 337.9054 59.45625 338.35852Q59.1125 338.81165 59.1125 340.0304Q59.1125 341.12415 59.45625 341.57727Q59.815624 342.0304 60.33125 342.0304Q60.878124 342.0304 61.221874 341.57727Q61.565624 341.12415 61.565624 339.92102Q61.565624 338.81165 61.20625 338.35852Q60.8625 337.9054 60.346874 337.9054Z" fill-rule="nonzero"/><path stroke="#757575" stroke-width="1.0" stroke-linecap="butt" d="M18.55 326.07727L145.23334 326.07727L229.33583 326.07727" fill-rule="nonzero"/><path fill="#9e9e9e" d="M231.33583 326.07727C231.33583 324.9727 230.4404 324.07727 229.33583 324.07727C228.23126 324.07727 227.33583 324.9727 227.33583 326.07727C227.33583 327.18182 228.23126 328.07727 229.33583 328.07727C230.4404 328.07727 231.33583 327.18182 231.33583 326.07727" fill-rule="nonzero"/><path fill="#efefef" d="M481.71564 127.519165L481.71564 116.06604L489.9969 116.06604L489.9969 117.40979L483.23126 117.40979L483.23126 120.925415L489.575 120.925415L489.575 122.269165L483.23126 122.269165L483.23126 126.15979L490.2625 126.15979L490.2625 127.519165L481.71564 127.519165ZM495.575 126.25354L495.77814 127.50354Q495.1844 127.62854 494.71564 127.62854Q493.95 127.62854 493.52814 127.394165Q493.10626 127.144165 492.9344 126.75354Q492.7625 126.34729 492.7625 125.081665L492.7625 120.31604L491.73126 120.31604L491.73126 119.22229L492.7625 119.22229L492.7625 117.15979L494.16876 116.31604L494.16876 119.22229L495.575 119.22229L495.575 120.31604L494.16876 120.31604L494.16876 125.15979Q494.16876 125.769165 494.23126 125.94104Q494.3094 126.112915 494.48126 126.22229Q494.65314 126.31604 494.96564 126.31604Q495.2 126.31604 495.575 126.25354ZM496.5125 127.519165L496.5125 116.06604L497.91876 116.06604L497.91876 120.175415Q498.90314 119.03479 500.40314 119.03479Q501.325 119.03479 501.9969 119.394165Q502.6844 119.75354 502.96564 120.394165Q503.2625 121.03479 503.2625 122.25354L503.2625 127.519165L501.85626 127.519165L501.85626 122.25354Q501.85626 121.206665 501.40314 120.72229Q500.95 120.237915 500.10626 120.237915Q499.48126 120.237915 498.9344 120.56604Q498.3875 120.894165 498.15314 121.456665Q497.91876 122.00354 497.91876 122.97229L497.91876 127.519165L496.5125 127.519165ZM505.5125 127.519165L505.5125 119.22229L506.77814 119.22229L506.77814 120.394165Q507.6844 119.03479 509.41876 119.03479Q510.16876 119.03479 510.79376 119.300415Q511.41876 119.56604 511.73126 120.00354Q512.04376 120.44104 512.16876 121.050415Q512.2469 121.44104 512.2469 122.40979L512.2469 127.519165L510.84064 127.519165L510.84064 122.47229Q510.84064 121.612915 510.66876 121.19104Q510.5125 120.75354 510.09064 120.50354Q509.6844 120.25354 509.1219 120.25354Q508.21564 120.25354 507.5594 120.831665Q506.91876 121.394165 506.91876 122.987915L506.91876 127.519165L505.5125 127.519165ZM514.5125 117.675415L514.5125 116.06604L515.91876 116.06604L515.91876 117.675415L514.5125 117.675415ZM514.5125 127.519165L514.5125 119.22229L515.91876 119.22229L515.91876 127.519165L514.5125 127.519165ZM523.91876 124.47229L525.3094 124.65979Q525.075 126.081665 524.1375 126.894165Q523.21564 127.706665 521.85626 127.706665Q520.15314 127.706665 519.10626 126.59729Q518.075 125.47229 518.075 123.394165Q518.075 122.050415 518.5125 121.050415Q518.96564 120.03479 519.8719 119.53479Q520.79376 119.03479 521.85626 119.03479Q523.21564 119.03479 524.075 119.72229Q524.9344 120.394165 525.16876 121.65979L523.8094 121.862915Q523.60626 121.03479 523.10626 120.612915Q522.6219 120.19104 521.91876 120.19104Q520.85626 120.19104 520.1844 120.956665Q519.52814 121.706665 519.52814 123.362915Q519.52814 125.03479 520.16876 125.800415Q520.8094 126.550415 521.84064 126.550415Q522.66876 126.550415 523.21564 126.050415Q523.77814 125.53479 523.91876 124.47229ZM536.04376 123.019165L536.04376 121.675415L540.90314 121.675415L540.90314 125.925415Q539.77814 126.81604 538.59064 127.269165Q537.40314 127.72229 536.15314 127.72229Q534.46564 127.72229 533.09064 127.00354Q531.71564 126.269165 531.0125 124.90979Q530.3094 123.53479 530.3094 121.84729Q530.3094 120.175415 530.9969 118.72229Q531.7 117.269165 533.0125 116.56604Q534.325 115.862915 536.04376 115.862915Q537.27814 115.862915 538.27814 116.269165Q539.29376 116.675415 539.85626 117.394165Q540.4344 118.112915 540.73126 119.269165L539.35626 119.644165Q539.10626 118.769165 538.71564 118.269165Q538.34064 117.769165 537.6219 117.47229Q536.91876 117.15979 536.04376 117.15979Q535.0125 117.15979 534.2469 117.487915Q533.4969 117.800415 533.02814 118.31604Q532.5594 118.831665 532.3094 119.44104Q531.8719 120.50354 531.8719 121.75354Q531.8719 123.28479 532.3875 124.31604Q532.91876 125.34729 533.91876 125.84729Q534.9344 126.34729 536.075 126.34729Q537.0594 126.34729 537.9969 125.97229Q538.9344 125.581665 539.41876 125.15979L539.41876 123.019165L536.04376 123.019165ZM542.4969 127.519165L542.4969 119.22229L543.7625 119.22229L543.7625 120.47229Q544.2469 119.59729 544.65314 119.31604Q545.0594 119.03479 545.5594 119.03479Q546.2625 119.03479 546.9969 119.487915L546.5125 120.78479Q545.9969 120.487915 545.48126 120.487915Q545.02814 120.487915 544.65314 120.769165Q544.29376 121.03479 544.1375 121.53479Q543.90314 122.28479 543.90314 123.175415L543.90314 127.519165L542.4969 127.519165ZM546.98126 123.362915Q546.98126 121.06604 548.2625 119.956665Q549.34064 119.03479 550.8719 119.03479Q552.59064 119.03479 553.66876 120.15979Q554.7625 121.269165 554.7625 123.25354Q554.7625 124.84729 554.27814 125.769165Q553.79376 126.69104 552.8719 127.206665Q551.96564 127.706665 550.8719 127.706665Q549.1375 127.706665 548.0594 126.59729Q546.98126 125.47229 546.98126 123.362915ZM548.4344 123.362915Q548.4344 124.956665 549.1219 125.75354Q549.825 126.550415 550.8719 126.550415Q551.91876 126.550415 552.60626 125.75354Q553.3094 124.956665 553.3094 123.31604Q553.3094 121.78479 552.60626 120.987915Q551.91876 120.19104 550.8719 120.19104Q549.825 120.19104 549.1219 120.987915Q548.4344 121.769165 548.4344 123.362915ZM561.95 127.519165L561.95 126.300415Q560.98126 127.706665 559.3094 127.706665Q558.575 127.706665 557.9344 127.425415Q557.3094 127.144165 556.9969 126.72229Q556.6844 126.28479 556.5594 125.675415Q556.48126 125.25354 556.48126 124.362915L556.48126 119.22229L557.8875 119.22229L557.8875 123.81604Q557.8875 124.925415 557.96564 125.300415Q558.10626 125.862915 558.52814 126.175415Q558.96564 126.487915 559.59064 126.487915Q560.23126 126.487915 560.77814 126.175415Q561.34064 125.84729 561.5594 125.28479Q561.79376 124.72229 561.79376 123.65979L561.79376 119.22229L563.2 119.22229L563.2 127.519165L561.95 127.519165ZM565.5125 130.70667L565.5125 119.22229L566.79376 119.22229L566.79376 120.300415Q567.2469 119.65979 567.8094 119.34729Q568.3875 119.03479 569.2 119.03479Q570.2625 119.03479 571.075 119.581665Q571.8875 120.12854 572.29376 121.12854Q572.71564 122.112915 572.71564 123.300415Q572.71564 124.581665 572.2469 125.59729Q571.79376 126.612915 570.91876 127.15979Q570.0594 127.706665 569.09064 127.706665Q568.3875 127.706665 567.825 127.40979Q567.27814 127.112915 566.91876 126.65979L566.91876 130.70667L565.5125 130.70667ZM566.77814 123.40979Q566.77814 125.019165 567.41876 125.78479Q568.075 126.550415 568.9969 126.550415Q569.9344 126.550415 570.60626 125.75354Q571.27814 124.956665 571.27814 123.300415Q571.27814 121.706665 570.6219 120.925415Q569.96564 120.12854 569.0594 120.12854Q568.16876 120.12854 567.46564 120.97229Q566.77814 121.81604 566.77814 123.40979ZM573.95 125.03479L575.34064 124.81604Q575.45 125.65979 575.98126 126.112915Q576.52814 126.550415 577.48126 126.550415Q578.45 126.550415 578.91876 126.15979Q579.3875 125.75354 579.3875 125.22229Q579.3875 124.75354 578.98126 124.47229Q578.6844 124.28479 577.54376 124.00354Q575.9969 123.612915 575.3875 123.331665Q574.79376 123.03479 574.48126 122.53479Q574.1844 122.03479 574.1844 121.425415Q574.1844 120.862915 574.4344 120.394165Q574.6844 119.925415 575.1219 119.612915Q575.45 119.362915 576.0125 119.206665Q576.59064 119.03479 577.23126 119.03479Q578.21564 119.03479 578.95 119.31604Q579.6844 119.59729 580.02814 120.081665Q580.3875 120.550415 580.52814 121.362915L579.15314 121.550415Q579.0594 120.90979 578.60626 120.550415Q578.15314 120.19104 577.34064 120.19104Q576.3719 120.19104 575.95 120.519165Q575.54376 120.831665 575.54376 121.25354Q575.54376 121.53479 575.71564 121.75354Q575.8875 121.97229 576.2469 122.12854Q576.46564 122.206665 577.4969 122.487915Q578.98126 122.87854 579.575 123.144165Q580.16876 123.394165 580.4969 123.87854Q580.84064 124.362915 580.84064 125.081665Q580.84064 125.78479 580.41876 126.40979Q580.0125 127.019165 579.23126 127.362915Q578.46564 127.706665 577.4969 127.706665Q575.8719 127.706665 575.02814 127.03479Q574.1844 126.362915 573.95 125.03479Z" fill-rule="nonzero"/><path fill="#9e9e9e" d="M537.1219 146.48792L538.52814 146.30042Q538.77814 147.50354 539.35626 148.03479Q539.9344 148.55042 540.77814 148.55042Q541.7625 148.55042 542.45 147.86292Q543.1375 147.17542 543.1375 146.15979Q543.1375 145.19104 542.4969 144.56604Q541.8719 143.94104 540.8875 143.94104Q540.4969 143.94104 539.90314 144.09729L540.0594 142.86292Q540.2 142.87854 540.27814 142.87854Q541.1844 142.87854 541.90314 142.40979Q542.6219 141.94104 542.6219 140.95667Q542.6219 140.19104 542.09064 139.69104Q541.575 139.17542 540.7469 139.17542Q539.91876 139.17542 539.3719 139.69104Q538.825 140.20667 538.66876 141.23792L537.2625 140.98792Q537.52814 139.56604 538.4344 138.80042Q539.35626 138.01917 540.71564 138.01917Q541.65314 138.01917 542.4344 138.42542Q543.23126 138.81604 543.6375 139.51917Q544.0594 140.20667 544.0594 140.98792Q544.0594 141.73792 543.65314 142.34729Q543.2625 142.95667 542.48126 143.31604Q543.4969 143.55042 544.0594 144.28479Q544.6219 145.01917 544.6219 146.12854Q544.6219 147.62854 543.52814 148.67542Q542.4344 149.72229 540.7625 149.72229Q539.2625 149.72229 538.2625 148.83167Q537.2625 147.92542 537.1219 146.48792ZM546.1219 146.48792L547.52814 146.30042Q547.77814 147.50354 548.35626 148.03479Q548.9344 148.55042 549.77814 148.55042Q550.7625 148.55042 551.45 147.86292Q552.1375 147.17542 552.1375 146.15979Q552.1375 145.19104 551.4969 144.56604Q550.8719 143.94104 549.8875 143.94104Q549.4969 143.94104 548.90314 144.09729L549.0594 142.86292Q549.2 142.87854 549.27814 142.87854Q550.1844 142.87854 550.90314 142.40979Q551.6219 141.94104 551.6219 140.95667Q551.6219 140.19104 551.09064 139.69104Q550.575 139.17542 549.7469 139.17542Q548.91876 139.17542 548.3719 139.69104Q547.825 140.20667 547.66876 141.23792L546.2625 140.98792Q546.52814 139.56604 547.4344 138.80042Q548.35626 138.01917 549.71564 138.01917Q550.65314 138.01917 551.4344 138.42542Q552.23126 138.81604 552.6375 139.51917Q553.0594 140.20667 553.0594 140.98792Q553.0594 141.73792 552.65314 142.34729Q552.2625 142.95667 551.48126 143.31604Q552.4969 143.55042 553.0594 144.28479Q553.6219 145.01917 553.6219 146.12854Q553.6219 147.62854 552.52814 148.67542Q551.4344 149.72229 549.7625 149.72229Q548.2625 149.72229 547.2625 148.83167Q546.2625 147.92542 546.1219 146.48792ZM555.90314 149.51917L555.90314 147.90979L557.5125 147.90979L557.5125 149.51917L555.90314 149.51917ZM559.1219 146.48792L560.52814 146.30042Q560.77814 147.50354 561.35626 148.03479Q561.9344 148.55042 562.77814 148.55042Q563.7625 148.55042 564.45 147.86292Q565.1375 147.17542 565.1375 146.15979Q565.1375 145.19104 564.4969 144.56604Q563.8719 143.94104 562.8875 143.94104Q562.4969 143.94104 561.90314 144.09729L562.0594 142.86292Q562.2 142.87854 562.27814 142.87854Q563.1844 142.87854 563.90314 142.40979Q564.6219 141.94104 564.6219 140.95667Q564.6219 140.19104 564.09064 139.69104Q563.575 139.17542 562.7469 139.17542Q561.91876 139.17542 561.3719 139.69104Q560.825 140.20667 560.66876 141.23792L559.2625 140.98792Q559.52814 139.56604 560.4344 138.80042Q561.35626 138.01917 562.71564 138.01917Q563.65314 138.01917 564.4344 138.42542Q565.23126 138.81604 565.6375 139.51917Q566.0594 140.20667 566.0594 140.98792Q566.0594 141.73792 565.65314 142.34729Q565.2625 142.95667 564.48126 143.31604Q565.4969 143.55042 566.0594 144.28479Q566.6219 145.01917 566.6219 146.12854Q566.6219 147.62854 565.52814 148.67542Q564.4344 149.72229 562.7625 149.72229Q561.2625 149.72229 560.2625 148.83167Q559.2625 147.92542 559.1219 146.48792ZM568.3875 140.81604Q568.3875 139.58167 568.9969 138.72229Q569.6219 137.86292 570.79376 137.86292Q571.8719 137.86292 572.575 138.64417Q573.27814 139.40979 573.27814 140.89417Q573.27814 142.34729 572.5594 143.14417Q571.85626 143.92542 570.8094 143.92542Q569.7625 143.92542 569.075 143.15979Q568.3875 142.37854 568.3875 140.81604ZM570.825 138.83167Q570.3094 138.83167 569.95 139.28479Q569.60626 139.73792 569.60626 140.95667Q569.60626 142.05042 569.95 142.50354Q570.3094 142.95667 570.825 142.95667Q571.35626 142.95667 571.7 142.50354Q572.0594 142.05042 572.0594 140.84729Q572.0594 139.73792 571.7 139.28479Q571.35626 138.83167 570.825 138.83167ZM570.84064 149.94104L577.10626 137.86292L578.2469 137.86292L571.9969 149.94104L570.84064 149.94104ZM575.79376 146.83167Q575.79376 145.59729 576.40314 144.73792Q577.02814 143.87854 578.2 143.87854Q579.27814 143.87854 579.98126 144.65979Q580.7 145.42542 580.7 146.90979Q580.7 148.36292 579.98126 149.15979Q579.2625 149.94104 578.21564 149.94104Q577.16876 149.94104 576.48126 149.15979Q575.79376 148.37854 575.79376 146.83167ZM578.2469 144.84729Q577.71564 144.84729 577.35626 145.30042Q577.0125 145.75354 577.0125 146.97229Q577.0125 148.06604 577.35626 148.51917Q577.71564 148.97229 578.23126 148.97229Q578.77814 148.97229 579.1219 148.51917Q579.46564 148.06604 579.46564 146.86292Q579.46564 145.75354 579.10626 145.30042Q578.7625 144.84729 578.2469 144.84729Z" fill-rule="nonzero"/><path stroke="#757575" stroke-width="1.0" stroke-linecap="butt" d="M581.45 133.01917L454.76666 133.01917L422.39392 133.01917" fill-rule="nonzero"/><path fill="#9e9e9e" d="M424.39392 133.01917C424.39392 131.9146 423.4985 131.01917 422.39392 131.01917C421.28937 131.01917 420.39392 131.9146 420.39392 133.01917C420.39392 134.12373 421.28937 135.01917 422.39392 135.01917C423.4985 135.01917 424.39392 134.12373 424.39392 133.01917" fill-rule="nonzero"/><path fill="#f3f3f3" d="M271.26562 32.534374L273.15625 33.003124Q272.5625 35.346874 271.01562 36.58125Q269.46875 37.8 267.21875 37.8Q264.90625 37.8 263.45312 36.8625Q262.01562 35.909374 261.25 34.128124Q260.5 32.33125 260.5 30.284374Q260.5 28.05 261.34375 26.39375Q262.20312 24.721874 263.78125 23.8625Q265.35938 22.9875 267.25 22.9875Q269.40625 22.9875 270.85938 24.08125Q272.32812 25.175 272.90625 27.159374L271.04688 27.596874Q270.54688 26.034374 269.59375 25.33125Q268.65625 24.6125 267.21875 24.6125Q265.5625 24.6125 264.45312 25.409374Q263.34375 26.190624 262.89062 27.534374Q262.45312 28.8625 262.45312 30.26875Q262.45312 32.096874 262.98438 33.471874Q263.51562 34.83125 264.64062 35.503124Q265.76562 36.175 267.0625 36.175Q268.65625 36.175 269.76562 35.253124Q270.875 34.33125 271.26562 32.534374ZM281.59375 36.26875Q280.60938 37.096874 279.70312 37.440624Q278.79688 37.784374 277.76562 37.784374Q276.0625 37.784374 275.14062 36.95625Q274.21875 36.1125 274.21875 34.815624Q274.21875 34.05 274.5625 33.425Q274.92188 32.8 275.48438 32.425Q276.04688 32.034374 276.75 31.83125Q277.26562 31.70625 278.3125 31.565624Q280.4375 31.315624 281.4375 30.971874Q281.45312 30.6125 281.45312 30.503124Q281.45312 29.440624 280.95312 28.9875Q280.28125 28.39375 278.95312 28.39375Q277.70312 28.39375 277.10938 28.83125Q276.53125 29.26875 276.25 30.378124L274.53125 30.14375Q274.76562 29.034374 275.29688 28.3625Q275.82812 27.675 276.84375 27.315624Q277.85938 26.940624 279.20312 26.940624Q280.53125 26.940624 281.35938 27.253124Q282.1875 27.565624 282.57812 28.05Q282.96875 28.51875 283.125 29.2375Q283.21875 29.690624 283.21875 30.8625L283.21875 33.20625Q283.21875 35.659374 283.32812 36.315624Q283.4375 36.95625 283.78125 37.55L281.9375 37.55Q281.67188 37.003124 281.59375 36.26875ZM281.4375 32.346874Q280.48438 32.7375 278.5625 33.003124Q277.48438 33.159374 277.03125 33.3625Q276.59375 33.55 276.34375 33.925Q276.09375 34.3 276.09375 34.76875Q276.09375 35.471874 276.625 35.940624Q277.15625 36.409374 278.1875 36.409374Q279.20312 36.409374 279.98438 35.971874Q280.78125 35.51875 281.15625 34.753124Q281.4375 34.14375 281.4375 32.9875L281.4375 32.346874ZM289.65625 35.971874L289.90625 37.534374Q289.17188 37.690624 288.57812 37.690624Q287.625 37.690624 287.09375 37.39375Q286.57812 37.08125 286.35938 36.596874Q286.14062 36.096874 286.14062 34.51875L286.14062 28.55L284.85938 28.55L284.85938 27.175L286.14062 27.175L286.14062 24.6125L287.89062 23.55L287.89062 27.175L289.65625 27.175L289.65625 28.55L287.89062 28.55L287.89062 34.6125Q287.89062 35.3625 287.98438 35.58125Q288.07812 35.784374 288.28125 35.925Q288.5 36.05 288.89062 36.05Q289.17188 36.05 289.65625 35.971874ZM298.92188 34.20625L300.73438 34.440624Q300.3125 36.01875 299.14062 36.909374Q297.98438 37.784374 296.17188 37.784374Q293.90625 37.784374 292.5625 36.39375Q291.23438 34.9875 291.23438 32.45625Q291.23438 29.83125 292.57812 28.39375Q293.92188 26.940624 296.07812 26.940624Q298.15625 26.940624 299.46875 28.3625Q300.79688 29.76875 300.79688 32.346874Q300.79688 32.503124 300.78125 32.815624L293.04688 32.815624Q293.14062 34.51875 294.01562 35.425Q294.89062 36.33125 296.1875 36.33125Q297.15625 36.33125 297.82812 35.83125Q298.51562 35.315624 298.92188 34.20625ZM293.14062 31.3625L298.9375 31.3625Q298.82812 30.065624 298.28125 29.409374Q297.4375 28.39375 296.09375 28.39375Q294.89062 28.39375 294.0625 29.20625Q293.23438 30.003124 293.14062 31.3625ZM302.5 38.409374L304.20312 38.659374Q304.3125 39.45625 304.79688 39.815624Q305.45312 40.3 306.59375 40.3Q307.8125 40.3 308.46875 39.815624Q309.14062 39.33125 309.375 38.45625Q309.51562 37.909374 309.5 36.190624Q308.34375 37.55 306.625 37.55Q304.48438 37.55 303.3125 36.003124Q302.14062 34.45625 302.14062 32.3Q302.14062 30.815624 302.67188 29.565624Q303.21875 28.315624 304.23438 27.628124Q305.26562 26.940624 306.64062 26.940624Q308.46875 26.940624 309.67188 28.425L309.67188 27.175L311.28125 27.175L311.28125 36.14375Q311.28125 38.565624 310.78125 39.565624Q310.29688 40.58125 309.21875 41.159374Q308.15625 41.753124 306.59375 41.753124Q304.75 41.753124 303.59375 40.925Q302.45312 40.096874 302.5 38.409374ZM303.95312 32.175Q303.95312 34.221874 304.76562 35.159374Q305.57812 36.096874 306.79688 36.096874Q308.0 36.096874 308.8125 35.159374Q309.64062 34.221874 309.64062 32.2375Q309.64062 30.33125 308.79688 29.3625Q307.95312 28.39375 306.76562 28.39375Q305.59375 28.39375 304.76562 29.346874Q303.95312 30.3 303.95312 32.175ZM313.17188 32.3625Q313.17188 29.4875 314.76562 28.096874Q316.10938 26.940624 318.03125 26.940624Q320.17188 26.940624 321.51562 28.346874Q322.875 29.753124 322.875 32.221874Q322.875 34.221874 322.28125 35.378124Q321.6875 36.51875 320.53125 37.159374Q319.39062 37.784374 318.03125 37.784374Q315.84375 37.784374 314.5 36.39375Q313.17188 34.9875 313.17188 32.3625ZM314.96875 32.3625Q314.96875 34.3625 315.82812 35.346874Q316.70312 36.33125 318.03125 36.33125Q319.34375 36.33125 320.20312 35.346874Q321.07812 34.346874 321.07812 32.3Q321.07812 30.378124 320.20312 29.39375Q319.32812 28.39375 318.03125 28.39375Q316.70312 28.39375 315.82812 29.39375Q314.96875 30.378124 314.96875 32.3625ZM324.79688 37.55L324.79688 27.175L326.375 27.175L326.375 28.753124Q326.98438 27.64375 327.5 27.3Q328.01562 26.940624 328.625 26.940624Q329.51562 26.940624 330.4375 27.503124L329.82812 29.14375Q329.1875 28.753124 328.54688 28.753124Q327.96875 28.753124 327.5 29.1125Q327.04688 29.45625 326.84375 30.065624Q326.5625 31.003124 326.5625 32.1125L326.5625 37.55L324.79688 37.55ZM331.73438 41.55L331.54688 39.89375Q332.125 40.05 332.54688 40.05Q333.14062 40.05 333.48438 39.846874Q333.84375 39.659374 334.0625 39.315624Q334.23438 39.05 334.60938 38.003124Q334.65625 37.846874 334.76562 37.565624L330.82812 27.175L332.71875 27.175L334.875 33.190624Q335.29688 34.33125 335.625 35.58125Q335.9375 34.378124 336.34375 33.221874L338.5625 27.175L340.32812 27.175L336.375 37.721874Q335.75 39.440624 335.39062 40.08125Q334.92188 40.95625 334.3125 41.346874Q333.71875 41.753124 332.875 41.753124Q332.35938 41.753124 331.73438 41.55Z" fill-rule="nonzero"/></svg>