<svg version="1.1" viewBox="0.0 0.0 600.0 371.0" fill="none" stroke="none" stroke-linecap="square" stroke-miterlimit="10" width="600" height="371" xmlns:xlink="http://www.w3.org/1999/xlink" xmlns="http://www.w3.org/2000/svg"><path fill="#ffffff" fill-opacity="0.0" d="M0 0L600.0 0L600.0 371.0L0 371.0L0 0Z" fill-rule="nonzero"/><path fill="#f7d750" d="M300.0 54.916668C331.41644 54.916668 362.02643 64.86246 387.44284 83.328575L343.72144 143.50595C331.0132 134.27289 315.70822 129.3 300.0 129.3Z" fill-rule="nonzero"/><path fill="#f5ee58" d="M387.44284 83.328575C425.96902 111.319466 448.76666 156.06238 448.76666 203.68333C448.76666 251.30429 425.96902 296.0472 387.44284 324.0381L343.72144 263.86072C362.9845 249.86526 374.38333 227.4938 374.38333 203.68333C374.38333 179.87285 362.9845 157.5014 343.72144 143.50595Z" fill-rule="nonzero"/><path fill="#313d89" d="M387.44284 324.0381C362.02643 342.5042 331.41644 352.45 300.0 352.45L300.0 278.06668C315.70822 278.06668 331.0132 273.09378 343.72144 263.86072Z" fill-rule="nonzero"/><path fill="#78a94e" d="M212.55714 83.328575C237.97357 64.86246 268.58356 54.916668 300.0 54.916668L300.0 129.3C284.29178 129.3 268.9868 134.27289 256.27856 143.50595Z" fill-rule="nonzero"/><path fill="#2d4d98" d="M158.5145 249.65475C138.59846 188.35953 160.4163 121.21111 212.55714 83.328575L256.27856 143.50595C230.20815 162.44722 219.29922 196.02142 229.25725 226.66905Z" fill-rule="nonzero"/><path fill="#4571b0" d="M300.0 352.45C235.55037 352.45 178.43053 310.95 158.5145 249.65475L229.25725 226.66905C239.21526 257.31668 267.77518 278.06668 300.0 278.06668Z" fill-rule="nonzero"/><path fill="#ffffff" d="M315.6817 104.06921L314.10358 104.06921L314.10358 93.99108Q313.52545 94.53796 312.60358 95.08483Q311.6817 95.61608 310.9317 95.89733L310.9317 94.36608Q312.25983 93.74108 313.25983 92.85046Q314.25983 91.95983 314.66608 91.13171L315.6817 91.13171L315.6817 104.06921ZM319.72858 97.70983Q319.72858 95.42858 320.19733 94.03796Q320.66608 92.64733 321.58795 91.89733Q322.52545 91.13171 323.9317 91.13171Q324.96295 91.13171 325.7442 91.55358Q326.52545 91.95983 327.02545 92.75671Q327.54108 93.53796 327.83795 94.67858Q328.13483 95.80358 328.13483 97.70983Q328.13483 99.97546 327.66608 101.38171Q327.19733 102.77233 326.25983 103.53796Q325.33795 104.28796 323.9317 104.28796Q322.0567 104.28796 320.9942 102.95983Q319.72858 101.35046 319.72858 97.70983ZM321.35358 97.70983Q321.35358 100.88171 322.08795 101.94421Q322.83795 102.99108 323.9317 102.99108Q325.00983 102.99108 325.75983 101.94421Q326.50983 100.88171 326.50983 97.70983Q326.50983 94.53796 325.75983 93.49108Q325.00983 92.44421 323.91608 92.44421Q322.82233 92.44421 322.16608 93.36608Q321.35358 94.53796 321.35358 97.70983ZM330.6192 104.06921L330.6192 102.27233L332.41608 102.27233L332.41608 104.06921L330.6192 104.06921ZM334.72858 97.70983Q334.72858 95.42858 335.19733 94.03796Q335.66608 92.64733 336.58795 91.89733Q337.52545 91.13171 338.9317 91.13171Q339.96295 91.13171 340.7442 91.55358Q341.52545 91.95983 342.02545 92.75671Q342.54108 93.53796 342.83795 94.67858Q343.13483 95.80358 343.13483 97.70983Q343.13483 99.97546 342.66608 101.38171Q342.19733 102.77233 341.25983 103.53796Q340.33795 104.28796 338.9317 104.28796Q337.0567 104.28796 335.9942 102.95983Q334.72858 101.35046 334.72858 97.70983ZM336.35358 97.70983Q336.35358 100.88171 337.08795 101.94421Q337.83795 102.99108 338.9317 102.99108Q340.00983 102.99108 340.75983 101.94421Q341.50983 100.88171 341.50983 97.70983Q341.50983 94.53796 340.75983 93.49108Q340.00983 92.44421 338.91608 92.44421Q337.82233 92.44421 337.16608 93.36608Q336.35358 94.53796 336.35358 97.70983ZM345.02545 94.27233Q345.02545 92.89733 345.71295 91.92858Q346.41608 90.95983 347.72858 90.95983Q348.94733 90.95983 349.7442 91.83483Q350.54108 92.69421 350.54108 94.38171Q350.54108 96.00671 349.72858 96.89733Q348.9317 97.77233 347.7442 97.77233Q346.58795 97.77233 345.8067 96.91296Q345.02545 96.03796 345.02545 94.27233ZM347.77545 92.05358Q347.1817 92.05358 346.79108 92.56921Q346.40045 93.06921 346.40045 94.42858Q346.40045 95.67858 346.79108 96.17858Q347.19733 96.67858 347.77545 96.67858Q348.3692 96.67858 348.75983 96.17858Q349.15045 95.66296 349.15045 94.31921Q349.15045 93.06921 348.75983 92.56921Q348.3692 92.05358 347.77545 92.05358ZM347.79108 104.53796L354.83795 90.95983L356.1192 90.95983L349.08795 104.53796L347.79108 104.53796ZM353.35358 101.03796Q353.35358 99.66296 354.04108 98.69421Q354.7442 97.72546 356.07233 97.72546Q357.29108 97.72546 358.07233 98.60046Q358.8692 99.45983 358.8692 101.14733Q358.8692 102.77233 358.07233 103.66296Q357.27545 104.53796 356.08795 104.53796Q354.91608 104.53796 354.13483 103.66296Q353.35358 102.78796 353.35358 101.03796ZM356.1192 98.81921Q355.52545 98.81921 355.13483 99.33483Q354.7442 99.83483 354.7442 101.20983Q354.7442 102.42858 355.13483 102.94421Q355.52545 103.45983 356.10358 103.45983Q356.71295 103.45983 357.10358 102.94421Q357.4942 102.42858 357.4942 101.08483Q357.4942 99.83483 357.10358 99.33483Q356.71295 98.81921 356.1192 98.81921Z" fill-rule="nonzero"/><path fill="#ffffff" d="M386.825 206.77708L388.41876 206.57396Q388.6844 207.91771 389.34064 208.51146Q389.9969 209.10521 390.9344 209.10521Q392.0594 209.10521 392.825 208.33958Q393.59064 207.55833 393.59064 206.41771Q393.59064 205.32396 392.8719 204.62083Q392.16876 203.90208 391.075 203.90208Q390.6219 203.90208 389.95 204.08958L390.1219 202.69896Q390.27814 202.71458 390.3875 202.71458Q391.3875 202.71458 392.2 202.18333Q393.0125 201.65208 393.0125 200.55833Q393.0125 199.68333 392.41876 199.12083Q391.825 198.54271 390.90314 198.54271Q389.98126 198.54271 389.35626 199.12083Q388.7469 199.69896 388.575 200.87083L386.9969 200.58958Q387.27814 198.99583 388.3094 198.12083Q389.34064 197.24583 390.8719 197.24583Q391.91876 197.24583 392.8094 197.69896Q393.7 198.15208 394.16876 198.93333Q394.6375 199.71458 394.6375 200.58958Q394.6375 201.43333 394.1844 202.12083Q393.7469 202.79271 392.85626 203.19896Q393.9969 203.46458 394.6219 204.30833Q395.2625 205.13646 395.2625 206.37083Q395.2625 208.05833 394.02814 209.24583Q392.8094 210.41771 390.9344 210.41771Q389.23126 210.41771 388.10626 209.40208Q386.9969 208.38646 386.825 206.77708ZM396.825 203.82396Q396.825 201.54271 397.29376 200.15208Q397.7625 198.76146 398.6844 198.01146Q399.6219 197.24583 401.02814 197.24583Q402.0594 197.24583 402.84064 197.66771Q403.6219 198.07396 404.1219 198.87083Q404.6375 199.65208 404.9344 200.79271Q405.23126 201.91771 405.23126 203.82396Q405.23126 206.08958 404.7625 207.49583Q404.29376 208.88646 403.35626 209.65208Q402.4344 210.40208 401.02814 210.40208Q399.15314 210.40208 398.09064 209.07396Q396.825 207.46458 396.825 203.82396ZM398.45 203.82396Q398.45 206.99583 399.1844 208.05833Q399.9344 209.10521 401.02814 209.10521Q402.10626 209.10521 402.85626 208.05833Q403.60626 206.99583 403.60626 203.82396Q403.60626 200.65208 402.85626 199.60521Q402.10626 198.55833 401.0125 198.55833Q399.91876 198.55833 399.2625 199.48021Q398.45 200.65208 398.45 203.82396ZM407.71564 210.18333L407.71564 208.38646L409.5125 208.38646L409.5125 210.18333L407.71564 210.18333ZM411.825 203.82396Q411.825 201.54271 412.29376 200.15208Q412.7625 198.76146 413.6844 198.01146Q414.6219 197.24583 416.02814 197.24583Q417.0594 197.24583 417.84064 197.66771Q418.6219 198.07396 419.1219 198.87083Q419.6375 199.65208 419.9344 200.79271Q420.23126 201.91771 420.23126 203.82396Q420.23126 206.08958 419.7625 207.49583Q419.29376 208.88646 418.35626 209.65208Q417.4344 210.40208 416.02814 210.40208Q414.15314 210.40208 413.09064 209.07396Q411.825 207.46458 411.825 203.82396ZM413.45 203.82396Q413.45 206.99583 414.1844 208.05833Q414.9344 209.10521 416.02814 209.10521Q417.10626 209.10521 417.85626 208.05833Q418.60626 206.99583 418.60626 203.82396Q418.60626 200.65208 417.85626 199.60521Q417.10626 198.55833 416.0125 198.55833Q414.91876 198.55833 414.2625 199.48021Q413.45 200.65208 413.45 203.82396ZM422.1219 200.38646Q422.1219 199.01146 422.8094 198.04271Q423.5125 197.07396 424.825 197.07396Q426.04376 197.07396 426.84064 197.94896Q427.6375 198.80833 427.6375 200.49583Q427.6375 202.12083 426.825 203.01146Q426.02814 203.88646 424.84064 203.88646Q423.6844 203.88646 422.90314 203.02708Q422.1219 202.15208 422.1219 200.38646ZM424.8719 198.16771Q424.27814 198.16771 423.8875 198.68333Q423.4969 199.18333 423.4969 200.54271Q423.4969 201.79271 423.8875 202.29271Q424.29376 202.79271 424.8719 202.79271Q425.46564 202.79271 425.85626 202.29271Q426.2469 201.77708 426.2469 200.43333Q426.2469 199.18333 425.85626 198.68333Q425.46564 198.16771 424.8719 198.16771ZM424.8875 210.65208L431.9344 197.07396L433.21564 197.07396L426.1844 210.65208L424.8875 210.65208ZM430.45 207.15208Q430.45 205.77708 431.1375 204.80833Q431.84064 203.83958 433.16876 203.83958Q434.3875 203.83958 435.16876 204.71458Q435.96564 205.57396 435.96564 207.26146Q435.96564 208.88646 435.16876 209.77708Q434.3719 210.65208 433.1844 210.65208Q432.0125 210.65208 431.23126 209.77708Q430.45 208.90208 430.45 207.15208ZM433.21564 204.93333Q432.6219 204.93333 432.23126 205.44896Q431.84064 205.94896 431.84064 207.32396Q431.84064 208.54271 432.23126 209.05833Q432.6219 209.57396 433.2 209.57396Q433.8094 209.57396 434.2 209.05833Q434.59064 208.54271 434.59064 207.19896Q434.59064 205.94896 434.2 205.44896Q433.8094 204.93333 433.21564 204.93333Z" fill-rule="nonzero"/><path fill="#ffffff" d="M315.6817 316.29745L314.10358 316.29745L314.10358 306.21933Q313.52545 306.7662 312.60358 307.31308Q311.6817 307.84433 310.9317 308.12558L310.9317 306.59433Q312.25983 305.96933 313.25983 305.0787Q314.25983 304.18808 314.66608 303.35995L315.6817 303.35995L315.6817 316.29745ZM319.72858 309.93808Q319.72858 307.65683 320.19733 306.2662Q320.66608 304.87558 321.58795 304.12558Q322.52545 303.35995 323.9317 303.35995Q324.96295 303.35995 325.7442 303.78183Q326.52545 304.18808 327.02545 304.98495Q327.54108 305.7662 327.83795 306.90683Q328.13483 308.03183 328.13483 309.93808Q328.13483 312.2037 327.66608 313.60995Q327.19733 315.00058 326.25983 315.7662Q325.33795 316.5162 323.9317 316.5162Q322.0567 316.5162 320.9942 315.18808Q319.72858 313.5787 319.72858 309.93808ZM321.35358 309.93808Q321.35358 313.10995 322.08795 314.17245Q322.83795 315.21933 323.9317 315.21933Q325.00983 315.21933 325.75983 314.17245Q326.50983 313.10995 326.50983 309.93808Q326.50983 306.7662 325.75983 305.71933Q325.00983 304.67245 323.91608 304.67245Q322.82233 304.67245 322.16608 305.59433Q321.35358 306.7662 321.35358 309.93808ZM330.6192 316.29745L330.6192 314.50058L332.41608 314.50058L332.41608 316.29745L330.6192 316.29745ZM334.72858 309.93808Q334.72858 307.65683 335.19733 306.2662Q335.66608 304.87558 336.58795 304.12558Q337.52545 303.35995 338.9317 303.35995Q339.96295 303.35995 340.7442 303.78183Q341.52545 304.18808 342.02545 304.98495Q342.54108 305.7662 342.83795 306.90683Q343.13483 308.03183 343.13483 309.93808Q343.13483 312.2037 342.66608 313.60995Q342.19733 315.00058 341.25983 315.7662Q340.33795 316.5162 338.9317 316.5162Q337.0567 316.5162 335.9942 315.18808Q334.72858 313.5787 334.72858 309.93808ZM336.35358 309.93808Q336.35358 313.10995 337.08795 314.17245Q337.83795 315.21933 338.9317 315.21933Q340.00983 315.21933 340.75983 314.17245Q341.50983 313.10995 341.50983 309.93808Q341.50983 306.7662 340.75983 305.71933Q340.00983 304.67245 338.91608 304.67245Q337.82233 304.67245 337.16608 305.59433Q336.35358 306.7662 336.35358 309.93808ZM345.02545 306.50058Q345.02545 305.12558 345.71295 304.15683Q346.41608 303.18808 347.72858 303.18808Q348.94733 303.18808 349.7442 304.06308Q350.54108 304.92245 350.54108 306.60995Q350.54108 308.23495 349.72858 309.12558Q348.9317 310.00058 347.7442 310.00058Q346.58795 310.00058 345.8067 309.1412Q345.02545 308.2662 345.02545 306.50058ZM347.77545 304.28183Q347.1817 304.28183 346.79108 304.79745Q346.40045 305.29745 346.40045 306.65683Q346.40045 307.90683 346.79108 308.40683Q347.19733 308.90683 347.77545 308.90683Q348.3692 308.90683 348.75983 308.40683Q349.15045 307.8912 349.15045 306.54745Q349.15045 305.29745 348.75983 304.79745Q348.3692 304.28183 347.77545 304.28183ZM347.79108 316.7662L354.83795 303.18808L356.1192 303.18808L349.08795 316.7662L347.79108 316.7662ZM353.35358 313.2662Q353.35358 311.8912 354.04108 310.92245Q354.7442 309.9537 356.07233 309.9537Q357.29108 309.9537 358.07233 310.8287Q358.8692 311.68808 358.8692 313.37558Q358.8692 315.00058 358.07233 315.8912Q357.27545 316.7662 356.08795 316.7662Q354.91608 316.7662 354.13483 315.8912Q353.35358 315.0162 353.35358 313.2662ZM356.1192 311.04745Q355.52545 311.04745 355.13483 311.56308Q354.7442 312.06308 354.7442 313.43808Q354.7442 314.65683 355.13483 315.17245Q355.52545 315.68808 356.10358 315.68808Q356.71295 315.68808 357.10358 315.17245Q357.4942 314.65683 357.4942 313.31308Q357.4942 312.06308 357.10358 311.56308Q356.71295 311.04745 356.1192 311.04745Z" fill-rule="nonzero"/><path fill="#ffffff" d="M217.98036 298.93378L217.98036 300.4494L209.46474 300.4494Q209.44911 299.87128 209.65224 299.35565Q209.98036 298.48065 210.68349 297.6369Q211.40224 296.79315 212.76161 295.68378Q214.85536 293.96503 215.58974 292.96503Q216.33974 291.9494 216.33974 291.05878Q216.33974 290.10565 215.66786 289.46503Q214.99599 288.8244 213.91786 288.8244Q212.76161 288.8244 212.07411 289.5119Q211.40224 290.1994 211.38661 291.40253L209.76161 291.23065Q209.93349 289.41815 211.01161 288.46503Q212.10536 287.5119 213.94911 287.5119Q215.79286 287.5119 216.87099 288.54315Q217.96474 289.5744 217.96474 291.09003Q217.96474 291.85565 217.63661 292.60565Q217.32411 293.35565 216.58974 294.18378Q215.85536 295.0119 214.15224 296.4494Q212.73036 297.65253 212.32411 298.0744Q211.91786 298.49628 211.66786 298.93378L217.98036 298.93378ZM219.66786 294.09003Q219.66786 291.80878 220.13661 290.41815Q220.60536 289.02753 221.52724 288.27753Q222.46474 287.5119 223.87099 287.5119Q224.90224 287.5119 225.68349 287.93378Q226.46474 288.34003 226.96474 289.1369Q227.48036 289.91815 227.77724 291.05878Q228.07411 292.18378 228.07411 294.09003Q228.07411 296.35565 227.60536 297.7619Q227.13661 299.15253 226.19911 299.91815Q225.27724 300.66815 223.87099 300.66815Q221.99599 300.66815 220.93349 299.34003Q219.66786 297.73065 219.66786 294.09003ZM221.29286 294.09003Q221.29286 297.2619 222.02724 298.3244Q222.77724 299.37128 223.87099 299.37128Q224.94911 299.37128 225.69911 298.3244Q226.44911 297.2619 226.44911 294.09003Q226.44911 290.91815 225.69911 289.87128Q224.94911 288.8244 223.85536 288.8244Q222.76161 288.8244 222.10536 289.74628Q221.29286 290.91815 221.29286 294.09003ZM230.55849 300.4494L230.55849 298.65253L232.35536 298.65253L232.35536 300.4494L230.55849 300.4494ZM234.66786 294.09003Q234.66786 291.80878 235.13661 290.41815Q235.60536 289.02753 236.52724 288.27753Q237.46474 287.5119 238.87099 287.5119Q239.90224 287.5119 240.68349 287.93378Q241.46474 288.34003 241.96474 289.1369Q242.48036 289.91815 242.77724 291.05878Q243.07411 292.18378 243.07411 294.09003Q243.07411 296.35565 242.60536 297.7619Q242.13661 299.15253 241.19911 299.91815Q240.27724 300.66815 238.87099 300.66815Q236.99599 300.66815 235.93349 299.34003Q234.66786 297.73065 234.66786 294.09003ZM236.29286 294.09003Q236.29286 297.2619 237.02724 298.3244Q237.77724 299.37128 238.87099 299.37128Q239.94911 299.37128 240.69911 298.3244Q241.44911 297.2619 241.44911 294.09003Q241.44911 290.91815 240.69911 289.87128Q239.94911 288.8244 238.85536 288.8244Q237.76161 288.8244 237.10536 289.74628Q236.29286 290.91815 236.29286 294.09003ZM244.96474 290.65253Q244.96474 289.27753 245.65224 288.30878Q246.35536 287.34003 247.66786 287.34003Q248.88661 287.34003 249.68349 288.21503Q250.48036 289.0744 250.48036 290.7619Q250.48036 292.3869 249.66786 293.27753Q248.87099 294.15253 247.68349 294.15253Q246.52724 294.15253 245.74599 293.29315Q244.96474 292.41815 244.96474 290.65253ZM247.71474 288.43378Q247.12099 288.43378 246.73036 288.9494Q246.33974 289.4494 246.33974 290.80878Q246.33974 292.05878 246.73036 292.55878Q247.13661 293.05878 247.71474 293.05878Q248.30849 293.05878 248.69911 292.55878Q249.08974 292.04315 249.08974 290.6994Q249.08974 289.4494 248.69911 288.9494Q248.30849 288.43378 247.71474 288.43378ZM247.73036 300.91815L254.77724 287.34003L256.05847 287.34003L249.02724 300.91815L247.73036 300.91815ZM253.29286 297.41815Q253.29286 296.04315 253.98036 295.0744Q254.68349 294.10565 256.0116 294.10565Q257.23035 294.10565 258.0116 294.98065Q258.80847 295.84003 258.80847 297.52753Q258.80847 299.15253 258.0116 300.04315Q257.21472 300.91815 256.02722 300.91815Q254.85536 300.91815 254.07411 300.04315Q253.29286 299.16815 253.29286 297.41815ZM256.05847 295.1994Q255.46474 295.1994 255.07411 295.71503Q254.68349 296.21503 254.68349 297.59003Q254.68349 298.80878 255.07411 299.3244Q255.46474 299.84003 256.04285 299.84003Q256.65222 299.84003 257.04285 299.3244Q257.43347 298.80878 257.43347 297.46503Q257.43347 296.21503 257.04285 295.71503Q256.65222 295.1994 256.05847 295.1994Z" fill-rule="nonzero"/><path fill="#ffffff" d="M177.44836 174.18913L177.44836 175.70476L168.93274 175.70476Q168.91711 175.12663 169.12024 174.61101Q169.44836 173.73601 170.15149 172.89226Q170.87024 172.04851 172.22961 170.93913Q174.32336 169.22038 175.05774 168.22038Q175.80774 167.20476 175.80774 166.31413Q175.80774 165.36101 175.13586 164.72038Q174.46399 164.07976 173.38586 164.07976Q172.22961 164.07976 171.54211 164.76726Q170.87024 165.45476 170.85461 166.65788L169.22961 166.48601Q169.40149 164.67351 170.47961 163.72038Q171.57336 162.76726 173.41711 162.76726Q175.26086 162.76726 176.33899 163.79851Q177.43274 164.82976 177.43274 166.34538Q177.43274 167.11101 177.10461 167.86101Q176.79211 168.61101 176.05774 169.43913Q175.32336 170.26726 173.62024 171.70476Q172.19836 172.90788 171.79211 173.32976Q171.38586 173.75163 171.13586 174.18913L177.44836 174.18913ZM179.13586 169.34538Q179.13586 167.06413 179.60461 165.67351Q180.07336 164.28288 180.99524 163.53288Q181.93274 162.76726 183.33899 162.76726Q184.37024 162.76726 185.15149 163.18913Q185.93274 163.59538 186.43274 164.39226Q186.94836 165.17351 187.24524 166.31413Q187.54211 167.43913 187.54211 169.34538Q187.54211 171.61101 187.07336 173.01726Q186.60461 174.40788 185.66711 175.17351Q184.74524 175.92351 183.33899 175.92351Q181.46399 175.92351 180.40149 174.59538Q179.13586 172.98601 179.13586 169.34538ZM180.76086 169.34538Q180.76086 172.51726 181.49524 173.57976Q182.24524 174.62663 183.33899 174.62663Q184.41711 174.62663 185.16711 173.57976Q185.91711 172.51726 185.91711 169.34538Q185.91711 166.17351 185.16711 165.12663Q184.41711 164.07976 183.32336 164.07976Q182.22961 164.07976 181.57336 165.00163Q180.76086 166.17351 180.76086 169.34538ZM190.02649 175.70476L190.02649 173.90788L191.82336 173.90788L191.82336 175.70476L190.02649 175.70476ZM194.13586 169.34538Q194.13586 167.06413 194.60461 165.67351Q195.07336 164.28288 195.99524 163.53288Q196.93274 162.76726 198.33899 162.76726Q199.37024 162.76726 200.15149 163.18913Q200.93274 163.59538 201.43274 164.39226Q201.94836 165.17351 202.24524 166.31413Q202.54211 167.43913 202.54211 169.34538Q202.54211 171.61101 202.07336 173.01726Q201.60461 174.40788 200.66711 175.17351Q199.74524 175.92351 198.33899 175.92351Q196.46399 175.92351 195.40149 174.59538Q194.13586 172.98601 194.13586 169.34538ZM195.76086 169.34538Q195.76086 172.51726 196.49524 173.57976Q197.24524 174.62663 198.33899 174.62663Q199.41711 174.62663 200.16711 173.57976Q200.91711 172.51726 200.91711 169.34538Q200.91711 166.17351 200.16711 165.12663Q199.41711 164.07976 198.32336 164.07976Q197.22961 164.07976 196.57336 165.00163Q195.76086 166.17351 195.76086 169.34538ZM204.43274 165.90788Q204.43274 164.53288 205.12024 163.56413Q205.82336 162.59538 207.13586 162.59538Q208.35461 162.59538 209.15149 163.47038Q209.94836 164.32976 209.94836 166.01726Q209.94836 167.64226 209.13586 168.53288Q208.33899 169.40788 207.15149 169.40788Q205.99524 169.40788 205.21399 168.54851Q204.43274 167.67351 204.43274 165.90788ZM207.18274 163.68913Q206.58899 163.68913 206.19836 164.20476Q205.80774 164.70476 205.80774 166.06413Q205.80774 167.31413 206.19836 167.81413Q206.60461 168.31413 207.18274 168.31413Q207.77649 168.31413 208.16711 167.81413Q208.55774 167.29851 208.55774 165.95476Q208.55774 164.70476 208.16711 164.20476Q207.77649 163.68913 207.18274 163.68913ZM207.19836 176.17351L214.24524 162.59538L215.52649 162.59538L208.49524 176.17351L207.19836 176.17351ZM212.76086 172.67351Q212.76086 171.29851 213.44836 170.32976Q214.15149 169.36101 215.47961 169.36101Q216.69836 169.36101 217.47961 170.23601Q218.27649 171.09538 218.27649 172.78288Q218.27649 174.40788 217.47961 175.29851Q216.68274 176.17351 215.49524 176.17351Q214.32336 176.17351 213.54211 175.29851Q212.76086 174.42351 212.76086 172.67351ZM215.52649 170.45476Q214.93274 170.45476 214.54211 170.97038Q214.15149 171.47038 214.15149 172.84538Q214.15149 174.06413 214.54211 174.57976Q214.93274 175.09538 215.51086 175.09538Q216.12024 175.09538 216.51086 174.57976Q216.90149 174.06413 216.90149 172.72038Q216.90149 171.47038 216.51086 170.97038Q216.12024 170.45476 215.52649 170.45476Z" fill-rule="nonzero"/><path fill="#ffffff" d="M246.72455 104.06921L245.14642 104.06921L245.14642 93.99108Q244.5683 94.53796 243.64642 95.08483Q242.72455 95.61608 241.97455 95.89733L241.97455 94.36608Q243.30267 93.74108 244.30267 92.85046Q245.30267 91.95983 245.70892 91.13171L246.72455 91.13171L246.72455 104.06921ZM250.77142 97.70983Q250.77142 95.42858 251.24017 94.03796Q251.70892 92.64733 252.6308 91.89733Q253.5683 91.13171 254.97455 91.13171Q256.0058 91.13171 256.78705 91.55358Q257.5683 91.95983 258.0683 92.75671Q258.58392 93.53796 258.8808 94.67858Q259.17767 95.80358 259.17767 97.70983Q259.17767 99.97546 258.70892 101.38171Q258.24017 102.77233 257.30267 103.53796Q256.3808 104.28796 254.97455 104.28796Q253.09955 104.28796 252.03705 102.95983Q250.77142 101.35046 250.77142 97.70983ZM252.39642 97.70983Q252.39642 100.88171 253.1308 101.94421Q253.8808 102.99108 254.97455 102.99108Q256.05267 102.99108 256.80267 101.94421Q257.55267 100.88171 257.55267 97.70983Q257.55267 94.53796 256.80267 93.49108Q256.05267 92.44421 254.95892 92.44421Q253.86517 92.44421 253.20892 93.36608Q252.39642 94.53796 252.39642 97.70983ZM261.66205 104.06921L261.66205 102.27233L263.45892 102.27233L263.45892 104.06921L261.66205 104.06921ZM265.77142 97.70983Q265.77142 95.42858 266.24017 94.03796Q266.70892 92.64733 267.6308 91.89733Q268.5683 91.13171 269.97455 91.13171Q271.0058 91.13171 271.78705 91.55358Q272.5683 91.95983 273.0683 92.75671Q273.58392 93.53796 273.8808 94.67858Q274.17767 95.80358 274.17767 97.70983Q274.17767 99.97546 273.70892 101.38171Q273.24017 102.77233 272.30267 103.53796Q271.3808 104.28796 269.97455 104.28796Q268.09955 104.28796 267.03705 102.95983Q265.77142 101.35046 265.77142 97.70983ZM267.39642 97.70983Q267.39642 100.88171 268.1308 101.94421Q268.8808 102.99108 269.97455 102.99108Q271.05267 102.99108 271.80267 101.94421Q272.55267 100.88171 272.55267 97.70983Q272.55267 94.53796 271.80267 93.49108Q271.05267 92.44421 269.95892 92.44421Q268.86517 92.44421 268.20892 93.36608Q267.39642 94.53796 267.39642 97.70983ZM276.0683 94.27233Q276.0683 92.89733 276.7558 91.92858Q277.45892 90.95983 278.77142 90.95983Q279.99017 90.95983 280.78705 91.83483Q281.58392 92.69421 281.58392 94.38171Q281.58392 96.00671 280.77142 96.89733Q279.97455 97.77233 278.78705 97.77233Q277.6308 97.77233 276.84955 96.91296Q276.0683 96.03796 276.0683 94.27233ZM278.8183 92.05358Q278.22455 92.05358 277.83392 92.56921Q277.4433 93.06921 277.4433 94.42858Q277.4433 95.67858 277.83392 96.17858Q278.24017 96.67858 278.8183 96.67858Q279.41205 96.67858 279.80267 96.17858Q280.1933 95.66296 280.1933 94.31921Q280.1933 93.06921 279.80267 92.56921Q279.41205 92.05358 278.8183 92.05358ZM278.83392 104.53796L285.8808 90.95983L287.16205 90.95983L280.1308 104.53796L278.83392 104.53796ZM284.39642 101.03796Q284.39642 99.66296 285.08392 98.69421Q285.78705 97.72546 287.11517 97.72546Q288.33392 97.72546 289.11517 98.60046Q289.91205 99.45983 289.91205 101.14733Q289.91205 102.77233 289.11517 103.66296Q288.3183 104.53796 287.1308 104.53796Q285.95892 104.53796 285.17767 103.66296Q284.39642 102.78796 284.39642 101.03796ZM287.16205 98.81921Q286.5683 98.81921 286.17767 99.33483Q285.78705 99.83483 285.78705 101.20983Q285.78705 102.42858 286.17767 102.94421Q286.5683 103.45983 287.14642 103.45983Q287.7558 103.45983 288.14642 102.94421Q288.53705 102.42858 288.53705 101.08483Q288.53705 99.83483 288.14642 99.33483Q287.7558 98.81921 287.16205 98.81921Z" fill-rule="nonzero"/><path stroke="#ffffff" stroke-width="1.0" stroke-linejoin="round" stroke-linecap="round" d="M343.72144 143.50595C331.0132 134.27289 315.70822 129.3 300.0 129.3L300.0 54.916668C331.41644 54.916668 362.02643 64.86246 387.44284 83.328575" fill-rule="nonzero"/><path stroke="#ffffff" stroke-width="1.0" stroke-linejoin="round" stroke-linecap="round" d="M343.72144 263.86072C362.9845 249.86526 374.38333 227.4938 374.38333 203.68333C374.38333 179.87285 362.9845 157.5014 343.72144 143.50595L387.44284 83.328575C425.96902 111.319466 448.76666 156.06238 448.76666 203.68333C448.76666 251.30429 425.96902 296.0472 387.44284 324.0381" fill-rule="nonzero"/><path stroke="#ffffff" stroke-width="1.0" stroke-linejoin="round" stroke-linecap="round" d="M300.0 278.06668C315.70822 278.06668 331.0132 273.09378 343.72144 263.86072L387.44284 324.0381C362.02643 342.5042 331.41644 352.45 300.0 352.45" fill-rule="nonzero"/><path stroke="#ffffff" stroke-width="1.0" stroke-linejoin="round" stroke-linecap="round" d="M229.25725 226.66905C239.21526 257.31668 267.77518 278.06668 300.0 278.06668L300.0 352.45C235.55037 352.45 178.43053 310.95 158.5145 249.65475" fill-rule="nonzero"/><path stroke="#ffffff" stroke-width="1.0" stroke-linejoin="round" stroke-linecap="round" d="M256.27856 143.50595C230.20815 162.44722 219.29922 196.02142 229.25725 226.66905L158.5145 249.65475C138.59846 188.35953 160.4163 121.21111 212.55714 83.328575" fill-rule="nonzero"/><path stroke="#ffffff" stroke-width="1.0" stroke-linejoin="round" stroke-linecap="round" d="M300.0 129.3C284.29178 129.3 268.9868 134.27289 256.27856 143.50595L212.55714 83.328575C237.97357 64.86246 268.58356 54.916668 300.0 54.916668" fill-rule="nonzero"/><path fill="#efefef" d="M18.51875 69.916664L22.925 58.46354L24.565624 58.46354L29.253124 69.916664L27.51875 69.916664L26.190624 66.447914L21.39375 66.447914L20.14375 69.916664L18.51875 69.916664ZM21.83125 65.21354L25.721874 65.21354L24.51875 62.041664Q23.971874 60.58854 23.70625 59.666664Q23.4875 60.760414 23.096874 61.854164L21.83125 65.21354ZM30.596874 69.916664L30.596874 61.61979L31.8625 61.61979L31.8625 62.86979Q32.346874 61.99479 32.753124 61.71354Q33.159374 61.43229 33.659374 61.43229Q34.3625 61.43229 35.096874 61.885414L34.6125 63.18229Q34.096874 62.885414 33.58125 62.885414Q33.128124 62.885414 32.753124 63.166664Q32.39375 63.43229 32.2375 63.93229Q32.003124 64.68229 32.003124 65.572914L32.003124 69.916664L30.596874 69.916664ZM41.01875 66.86979L42.409374 67.05729Q42.175 68.479164 41.2375 69.291664Q40.315624 70.104164 38.95625 70.104164Q37.253124 70.104164 36.20625 68.99479Q35.175 67.86979 35.175 65.791664Q35.175 64.447914 35.6125 63.447914Q36.065624 62.43229 36.971874 61.93229Q37.89375 61.43229 38.95625 61.43229Q40.315624 61.43229 41.175 62.11979Q42.034374 62.791664 42.26875 64.05729L40.909374 64.260414Q40.70625 63.43229 40.20625 63.010414Q39.721874 62.58854 39.01875 62.58854Q37.95625 62.58854 37.284374 63.354164Q36.628124 64.104164 36.628124 65.760414Q36.628124 67.43229 37.26875 68.197914Q37.909374 68.947914 38.940624 68.947914Q39.76875 68.947914 40.315624 68.447914Q40.878124 67.93229 41.01875 66.86979ZM43.6125 69.916664L43.6125 58.46354L45.01875 58.46354L45.01875 62.572914Q46.003124 61.43229 47.503124 61.43229Q48.425 61.43229 49.096874 61.791664Q49.784374 62.15104 50.065624 62.791664Q50.3625 63.43229 50.3625 64.65104L50.3625 69.916664L48.95625 69.916664L48.95625 64.65104Q48.95625 63.604164 48.503124 63.11979Q48.05 62.635414 47.20625 62.635414Q46.58125 62.635414 46.034374 62.96354Q45.4875 63.291664 45.253124 63.854164Q45.01875 64.40104 45.01875 65.36979L45.01875 69.916664L43.6125 69.916664ZM52.6125 60.072914L52.6125 58.46354L54.01875 58.46354L54.01875 60.072914L52.6125 60.072914ZM52.6125 69.916664L52.6125 61.61979L54.01875 61.61979L54.01875 69.916664L52.6125 69.916664ZM59.675 68.65104L59.878124 69.90104Q59.284374 70.02604 58.815624 70.02604Q58.05 70.02604 57.628124 69.791664Q57.20625 69.541664 57.034374 69.15104Q56.8625 68.74479 56.8625 67.479164L56.8625 62.71354L55.83125 62.71354L55.83125 61.61979L56.8625 61.61979L56.8625 59.55729L58.26875 58.71354L58.26875 61.61979L59.675 61.61979L59.675 62.71354L58.26875 62.71354L58.26875 67.55729Q58.26875 68.166664 58.33125 68.33854Q58.409374 68.510414 58.58125 68.61979Q58.753124 68.71354 59.065624 68.71354Q59.3 68.71354 59.675 68.65104ZM66.28438 67.24479L67.7375 67.416664Q67.39375 68.697914 66.45625 69.40104Q65.53438 70.104164 64.09688 70.104164Q62.26875 70.104164 61.20625 68.979164Q60.14375 67.854164 60.14375 65.83854Q60.14375 63.74479 61.221874 62.58854Q62.3 61.43229 64.01875 61.43229Q65.675 61.43229 66.72188 62.572914Q67.78438 63.697914 67.78438 65.74479Q67.78438 65.86979 67.78438 66.11979L61.596874 66.11979Q61.675 67.49479 62.3625 68.229164Q63.065624 68.947914 64.09688 68.947914Q64.87813 68.947914 65.425 68.541664Q65.97188 68.135414 66.28438 67.24479ZM61.675 64.96354L66.3 64.96354Q66.20625 63.916664 65.76875 63.40104Q65.09688 62.58854 64.03438 62.58854Q63.065624 62.58854 62.39375 63.24479Q61.7375 63.885414 61.675 64.96354ZM75.01875 66.86979L76.40938 67.05729Q76.175 68.479164 75.2375 69.291664Q74.31563 70.104164 72.95625 70.104164Q71.25313 70.104164 70.20625 68.99479Q69.175 67.86979 69.175 65.791664Q69.175 64.447914 69.6125 63.447914Q70.06563 62.43229 70.97188 61.93229Q71.89375 61.43229 72.95625 61.43229Q74.31563 61.43229 75.175 62.11979Q76.03438 62.791664 76.26875 64.05729L74.90938 64.260414Q74.70625 63.43229 74.20625 63.010414Q73.72188 62.58854 73.01875 62.58854Q71.95625 62.58854 71.28438 63.354164Q70.62813 64.104164 70.62813 65.760414Q70.62813 67.43229 71.26875 68.197914Q71.90938 68.947914 72.94063 68.947914Q73.76875 68.947914 74.31563 68.447914Q74.87813 67.93229 75.01875 66.86979ZM80.675 68.65104L80.87813 69.90104Q80.28438 70.02604 79.81563 70.02604Q79.05 70.02604 78.62813 69.791664Q78.20625 69.541664 78.03438 69.15104Q77.8625 68.74479 77.8625 67.479164L77.8625 62.71354L76.83125 62.71354L76.83125 61.61979L77.8625 61.61979L77.8625 59.55729L79.26875 58.71354L79.26875 61.61979L80.675 61.61979L80.675 62.71354L79.26875 62.71354L79.26875 67.55729Q79.26875 68.166664 79.33125 68.33854Q79.40938 68.510414 79.58125 68.61979Q79.75313 68.71354 80.06563 68.71354Q80.3 68.71354 80.675 68.65104ZM87.05 69.916664L87.05 68.697914Q86.08125 70.104164 84.40938 70.104164Q83.675 70.104164 83.03438 69.822914Q82.40938 69.541664 82.09688 69.11979Q81.78438 68.68229 81.65938 68.072914Q81.58125 67.65104 81.58125 66.760414L81.58125 61.61979L82.9875 61.61979L82.9875 66.21354Q82.9875 67.322914 83.06563 67.697914Q83.20625 68.260414 83.62813 68.572914Q84.06563 68.885414 84.69063 68.885414Q85.33125 68.885414 85.87813 68.572914Q86.44063 68.24479 86.65938 67.68229Q86.89375 67.11979 86.89375 66.05729L86.89375 61.61979L88.3 61.61979L88.3 69.916664L87.05 69.916664ZM90.59688 69.916664L90.59688 61.61979L91.8625 61.61979L91.8625 62.86979Q92.34688 61.99479 92.75313 61.71354Q93.15938 61.43229 93.65938 61.43229Q94.3625 61.43229 95.09688 61.885414L94.6125 63.18229Q94.09688 62.885414 93.58125 62.885414Q93.12813 62.885414 92.75313 63.166664Q92.39375 63.43229 92.2375 63.93229Q92.00313 64.68229 92.00313 65.572914L92.00313 69.916664L90.59688 69.916664ZM101.28438 67.24479L102.7375 67.416664Q102.39375 68.697914 101.45625 69.40104Q100.53438 70.104164 99.09688 70.104164Q97.26875 70.104164 96.20625 68.979164Q95.14375 67.854164 95.14375 65.83854Q95.14375 63.74479 96.22188 62.58854Q97.3 61.43229 99.01875 61.43229Q100.675 61.43229 101.72188 62.572914Q102.78438 63.697914 102.78438 65.74479Q102.78438 65.86979 102.78438 66.11979L96.59688 66.11979Q96.675 67.49479 97.3625 68.229164Q98.06563 68.947914 99.09688 68.947914Q99.87813 68.947914 100.425 68.541664Q100.97188 68.135414 101.28438 67.24479ZM96.675 64.96354L101.3 64.96354Q101.20625 63.916664 100.76875 63.40104Q100.09688 62.58854 99.03438 62.58854Q98.06563 62.58854 97.39375 63.24479Q96.7375 63.885414 96.675 64.96354ZM115.15938 68.55729Q114.45625 69.33854 113.62813 69.729164Q112.81563 70.11979 111.8625 70.11979Q110.1125 70.11979 109.08125 68.916664Q108.2375 67.947914 108.2375 66.760414Q108.2375 65.697914 108.925 64.83854Q109.6125 63.979164 110.97188 63.33854Q110.19063 62.447914 109.925 61.90104Q109.675 61.33854 109.675 60.822914Q109.675 59.791664 110.4875 59.02604Q111.3 58.260414 112.51875 58.260414Q113.69063 58.260414 114.44063 58.979164Q115.19063 59.697914 115.19063 60.71354Q115.19063 62.33854 113.01875 63.49479L115.08125 66.11979Q115.425 65.43229 115.62813 64.52604L117.08125 64.83854Q116.70625 66.33854 116.06563 67.30729Q116.8625 68.354164 117.8625 69.05729L116.90938 70.18229Q116.06563 69.635414 115.15938 68.55729ZM112.3 62.58854Q113.20625 62.05729 113.47188 61.65104Q113.75313 61.24479 113.75313 60.74479Q113.75313 60.166664 113.37813 59.791664Q113.00313 59.416664 112.45625 59.416664Q111.87813 59.416664 111.50313 59.791664Q111.12813 60.15104 111.12813 60.68229Q111.12813 60.947914 111.25313 61.24479Q111.39375 61.541664 111.675 61.86979L112.3 62.58854ZM114.26875 67.447914L111.69063 64.260414Q110.55 64.93229 110.14375 65.52604Q109.75313 66.104164 109.75313 66.666664Q109.75313 67.36979 110.3 68.11979Q110.8625 68.86979 111.87813 68.86979Q112.51875 68.86979 113.19063 68.479164Q113.8625 68.072914 114.26875 67.447914Z" fill-rule="nonzero"/><path fill="#9e9e9e" d="M24.51875 91.916664L23.1125 91.916664L23.1125 82.947914Q22.596874 83.43229 21.76875 83.916664Q20.95625 84.40104 20.3 84.65104L20.3 83.291664Q21.471874 82.729164 22.346874 81.947914Q23.2375 81.15104 23.6125 80.416664L24.51875 80.416664L24.51875 91.916664ZM28.221874 86.260414Q28.221874 84.229164 28.628124 82.99479Q29.05 81.760414 29.878124 81.08854Q30.70625 80.416664 31.95625 80.416664Q32.878124 80.416664 33.565624 80.791664Q34.26875 81.15104 34.721874 81.854164Q35.175 82.55729 35.425 83.55729Q35.690624 84.55729 35.690624 86.260414Q35.690624 88.27604 35.26875 89.52604Q34.8625 90.760414 34.034374 91.447914Q33.20625 92.11979 31.95625 92.11979Q30.3 92.11979 29.346874 90.916664Q28.221874 89.49479 28.221874 86.260414ZM29.659374 86.260414Q29.659374 89.08854 30.315624 90.02604Q30.9875 90.947914 31.95625 90.947914Q32.925 90.947914 33.58125 90.010414Q34.2375 89.072914 34.2375 86.260414Q34.2375 83.43229 33.58125 82.510414Q32.925 81.572914 31.940624 81.572914Q30.971874 81.572914 30.39375 82.40104Q29.659374 83.447914 29.659374 86.260414ZM38.003124 91.916664L38.003124 90.30729L39.6125 90.30729L39.6125 91.916664L38.003124 91.916664ZM41.221874 86.260414Q41.221874 84.229164 41.628124 82.99479Q42.05 81.760414 42.878124 81.08854Q43.70625 80.416664 44.95625 80.416664Q45.878124 80.416664 46.565624 80.791664Q47.26875 81.15104 47.721874 81.854164Q48.175 82.55729 48.425 83.55729Q48.690624 84.55729 48.690624 86.260414Q48.690624 88.27604 48.26875 89.52604Q47.8625 90.760414 47.034374 91.447914Q46.20625 92.11979 44.95625 92.11979Q43.3 92.11979 42.346874 90.916664Q41.221874 89.49479 41.221874 86.260414ZM42.659374 86.260414Q42.659374 89.08854 43.315624 90.02604Q43.9875 90.947914 44.95625 90.947914Q45.925 90.947914 46.58125 90.010414Q47.2375 89.072914 47.2375 86.260414Q47.2375 83.43229 46.58125 82.510414Q45.925 81.572914 44.940624 81.572914Q43.971874 81.572914 43.39375 82.40104Q42.659374 83.447914 42.659374 86.260414ZM50.4875 83.21354Q50.4875 81.979164 51.096874 81.11979Q51.721874 80.260414 52.89375 80.260414Q53.971874 80.260414 54.675 81.041664Q55.378124 81.80729 55.378124 83.291664Q55.378124 84.74479 54.659374 85.541664Q53.95625 86.322914 52.909374 86.322914Q51.8625 86.322914 51.175 85.55729Q50.4875 84.77604 50.4875 83.21354ZM52.925 81.229164Q52.409374 81.229164 52.05 81.68229Q51.70625 82.135414 51.70625 83.354164Q51.70625 84.447914 52.05 84.90104Q52.409374 85.354164 52.925 85.354164Q53.45625 85.354164 53.8 84.90104Q54.159374 84.447914 54.159374 83.24479Q54.159374 82.135414 53.8 81.68229Q53.45625 81.229164 52.925 81.229164ZM52.940624 92.33854L59.20625 80.260414L60.346874 80.260414L54.096874 92.33854L52.940624 92.33854ZM57.89375 89.229164Q57.89375 87.99479 58.503124 87.135414Q59.128124 86.27604 60.3 86.27604Q61.378124 86.27604 62.08125 87.05729Q62.8 87.822914 62.8 89.30729Q62.8 90.760414 62.08125 91.55729Q61.3625 92.33854 60.315624 92.33854Q59.26875 92.33854 58.58125 91.55729Q57.89375 90.77604 57.89375 89.229164ZM60.346874 87.24479Q59.815624 87.24479 59.45625 87.697914Q59.1125 88.15104 59.1125 89.36979Q59.1125 90.46354 59.45625 90.916664Q59.815624 91.36979 60.33125 91.36979Q60.878124 91.36979 61.221874 90.916664Q61.565624 90.46354 61.565624 89.260414Q61.565624 88.15104 61.20625 87.697914Q60.8625 87.24479 60.346874 87.24479Z" fill-rule="nonzero"/><path stroke="#757575" stroke-width="1.0" stroke-linecap="butt" d="M18.55 75.416664L145.23334 75.416664L256.32715 69.2721" fill-rule="nonzero"/><path fill="#9e9e9e" d="M258.32715 69.2721C258.32715 68.167534 257.4317 67.2721 256.32715 67.2721C255.22258 67.2721 254.32715 68.167534 254.32715 69.2721C254.32715 70.37667 255.22258 71.2721 256.32715 71.2721C257.4317 71.2721 258.32715 70.37667 258.32715 69.2721" fill-rule="nonzero"/><path fill="#efefef" d="M19.784374 154.51048L19.784374 143.05736L23.7375 143.05736Q25.065624 143.05736 25.76875 143.21361Q26.753124 143.44798 27.45625 144.04173Q28.3625 144.80736 28.8 145.99486Q29.253124 147.18236 29.253124 148.71361Q29.253124 150.02611 28.940624 151.04173Q28.64375 152.04173 28.159374 152.69798Q27.690624 153.35423 27.128124 153.74486Q26.565624 154.11986 25.753124 154.32298Q24.95625 154.51048 23.925 154.51048L19.784374 154.51048ZM21.3 153.15111L23.753124 153.15111Q24.878124 153.15111 25.51875 152.94798Q26.175 152.72923 26.55 152.35423Q27.096874 151.80736 27.39375 150.90111Q27.690624 149.99486 27.690624 148.69798Q27.690624 146.90111 27.096874 145.93236Q26.51875 144.96361 25.675 144.63548Q25.065624 144.40111 23.70625 144.40111L21.3 144.40111L21.3 153.15111ZM31.6125 144.66673L31.6125 143.05736L33.01875 143.05736L33.01875 144.66673L31.6125 144.66673ZM31.6125 154.51048L31.6125 146.21361L33.01875 146.21361L33.01875 154.51048L31.6125 154.51048ZM35.6125 157.69798L35.6125 146.21361L36.89375 146.21361L36.89375 147.29173Q37.346874 146.65111 37.909374 146.33861Q38.4875 146.02611 39.3 146.02611Q40.3625 146.02611 41.175 146.57298Q41.9875 147.11986 42.39375 148.11986Q42.815624 149.10423 42.815624 150.29173Q42.815624 151.57298 42.346874 152.58861Q41.89375 153.60423 41.01875 154.15111Q40.159374 154.69798 39.190624 154.69798Q38.4875 154.69798 37.925 154.40111Q37.378124 154.10423 37.01875 153.65111L37.01875 157.69798L35.6125 157.69798ZM36.878124 150.40111Q36.878124 152.01048 37.51875 152.77611Q38.175 153.54173 39.096874 153.54173Q40.034374 153.54173 40.70625 152.74486Q41.378124 151.94798 41.378124 150.29173Q41.378124 148.69798 40.721874 147.91673Q40.065624 147.11986 39.159374 147.11986Q38.26875 147.11986 37.565624 147.96361Q36.878124 148.80736 36.878124 150.40111ZM44.58125 154.51048L44.58125 143.05736L45.9875 143.05736L45.9875 154.51048L44.58125 154.51048ZM48.08125 150.35423Q48.08125 148.05736 49.3625 146.94798Q50.440624 146.02611 51.971874 146.02611Q53.690624 146.02611 54.76875 147.15111Q55.8625 148.26048 55.8625 150.24486Q55.8625 151.83861 55.378124 152.76048Q54.89375 153.68236 53.971874 154.19798Q53.065624 154.69798 51.971874 154.69798Q50.2375 154.69798 49.159374 153.58861Q48.08125 152.46361 48.08125 150.35423ZM49.534374 150.35423Q49.534374 151.94798 50.221874 152.74486Q50.925 153.54173 51.971874 153.54173Q53.01875 153.54173 53.70625 152.74486Q54.409374 151.94798 54.409374 150.30736Q54.409374 148.77611 53.70625 147.97923Q53.01875 147.18236 51.971874 147.18236Q50.925 147.18236 50.221874 147.97923Q49.534374 148.76048 49.534374 150.35423ZM57.6125 154.51048L57.6125 146.21361L58.8625 146.21361L58.8625 147.36986Q59.253124 146.76048 59.89375 146.40111Q60.55 146.02611 61.378124 146.02611Q62.3 146.02611 62.89375 146.41673Q63.4875 146.79173 63.721874 147.47923Q64.70625 146.02611 66.28438 146.02611Q67.51875 146.02611 68.175 146.71361Q68.84688 147.38548 68.84688 148.80736L68.84688 154.51048L67.45625 154.51048L67.45625 149.27611Q67.45625 148.43236 67.31563 148.07298Q67.175 147.69798 66.81563 147.47923Q66.45625 147.24486 65.97188 147.24486Q65.09688 147.24486 64.51875 147.82298Q63.940624 148.40111 63.940624 149.68236L63.940624 154.51048L62.534374 154.51048L62.534374 149.11986Q62.534374 148.18236 62.190624 147.71361Q61.846874 147.24486 61.065624 147.24486Q60.471874 147.24486 59.971874 147.55736Q59.471874 147.86986 59.2375 148.47923Q59.01875 149.07298 59.01875 150.19798L59.01875 154.51048L57.6125 154.51048ZM76.01875 153.47923Q75.2375 154.15111 74.51875 154.43236Q73.8 154.69798 72.97188 154.69798Q71.59688 154.69798 70.8625 154.02611Q70.12813 153.35423 70.12813 152.32298Q70.12813 151.71361 70.40938 151.21361Q70.69063 150.69798 71.12813 150.40111Q71.58125 150.08861 72.14375 149.93236Q72.56563 149.82298 73.39375 149.72923Q75.09688 149.52611 75.90938 149.24486Q75.90938 148.94798 75.90938 148.86986Q75.90938 148.01048 75.51875 147.66673Q74.97188 147.18236 73.90938 147.18236Q72.925 147.18236 72.44063 147.54173Q71.97188 147.88548 71.75313 148.76048L70.37813 148.57298Q70.56563 147.69798 70.9875 147.15111Q71.425 146.60423 72.2375 146.32298Q73.05 146.02611 74.1125 146.02611Q75.175 146.02611 75.83125 146.27611Q76.50313 146.52611 76.81563 146.90111Q77.12813 147.27611 77.25313 147.85423Q77.33125 148.21361 77.33125 149.15111L77.33125 151.02611Q77.33125 152.99486 77.40938 153.51048Q77.50313 154.02611 77.76875 154.51048L76.3 154.51048Q76.08125 154.07298 76.01875 153.47923ZM75.90938 150.33861Q75.14375 150.65111 73.6125 150.86986Q72.7375 150.99486 72.37813 151.15111Q72.01875 151.30736 71.81563 151.61986Q71.62813 151.91673 71.62813 152.27611Q71.62813 152.83861 72.05 153.21361Q72.4875 153.58861 73.3 153.58861Q74.1125 153.58861 74.7375 153.24486Q75.37813 152.88548 75.675 152.26048Q75.90938 151.79173 75.90938 150.85423L75.90938 150.33861ZM82.675 153.24486L82.87813 154.49486Q82.28438 154.61986 81.81563 154.61986Q81.05 154.61986 80.62813 154.38548Q80.20625 154.13548 80.03438 153.74486Q79.8625 153.33861 79.8625 152.07298L79.8625 147.30736L78.83125 147.30736L78.83125 146.21361L79.8625 146.21361L79.8625 144.15111L81.26875 143.30736L81.26875 146.21361L82.675 146.21361L82.675 147.30736L81.26875 147.30736L81.26875 152.15111Q81.26875 152.76048 81.33125 152.93236Q81.40938 153.10423 81.58125 153.21361Q81.75313 153.30736 82.06563 153.30736Q82.3 153.30736 82.675 153.24486ZM83.6125 144.66673L83.6125 143.05736L85.01875 143.05736L85.01875 144.66673L83.6125 144.66673ZM83.6125 154.51048L83.6125 146.21361L85.01875 146.21361L85.01875 154.51048L83.6125 154.51048ZM93.01875 151.46361L94.40938 151.65111Q94.175 153.07298 93.2375 153.88548Q92.31563 154.69798 90.95625 154.69798Q89.25313 154.69798 88.20625 153.58861Q87.175 152.46361 87.175 150.38548Q87.175 149.04173 87.6125 148.04173Q88.06563 147.02611 88.97188 146.52611Q89.89375 146.02611 90.95625 146.02611Q92.31563 146.02611 93.175 146.71361Q94.03438 147.38548 94.26875 148.65111L92.90938 148.85423Q92.70625 148.02611 92.20625 147.60423Q91.72188 147.18236 91.01875 147.18236Q89.95625 147.18236 89.28438 147.94798Q88.62813 148.69798 88.62813 150.35423Q88.62813 152.02611 89.26875 152.79173Q89.90938 153.54173 90.94063 153.54173Q91.76875 153.54173 92.31563 153.04173Q92.87813 152.52611 93.01875 151.46361Z" fill-rule="nonzero"/><path fill="#9e9e9e" d="M26.6125 175.15111L26.6125 176.51048L19.034374 176.51048Q19.01875 175.99486 19.20625 175.52611Q19.4875 174.76048 20.128124 174.01048Q20.76875 173.26048 21.971874 172.27611Q23.83125 170.74486 24.4875 169.85423Q25.14375 168.94798 25.14375 168.15111Q25.14375 167.32298 24.55 166.74486Q23.95625 166.16673 22.9875 166.16673Q21.971874 166.16673 21.3625 166.77611Q20.753124 167.38548 20.753124 168.46361L19.3 168.32298Q19.45625 166.69798 20.425 165.85423Q21.39375 165.01048 23.01875 165.01048Q24.675 165.01048 25.628124 165.93236Q26.596874 166.83861 26.596874 168.18236Q26.596874 168.86986 26.315624 169.54173Q26.034374 170.19798 25.378124 170.93236Q24.721874 171.66673 23.20625 172.94798Q21.940624 174.01048 21.58125 174.40111Q21.221874 174.77611 20.9875 175.15111L26.6125 175.15111ZM28.221874 170.85423Q28.221874 168.82298 28.628124 167.58861Q29.05 166.35423 29.878124 165.68236Q30.70625 165.01048 31.95625 165.01048Q32.878124 165.01048 33.565624 165.38548Q34.26875 165.74486 34.721874 166.44798Q35.175 167.15111 35.425 168.15111Q35.690624 169.15111 35.690624 170.85423Q35.690624 172.86986 35.26875 174.11986Q34.8625 175.35423 34.034374 176.04173Q33.20625 176.71361 31.95625 176.71361Q30.3 176.71361 29.346874 175.51048Q28.221874 174.08861 28.221874 170.85423ZM29.659374 170.85423Q29.659374 173.68236 30.315624 174.61986Q30.9875 175.54173 31.95625 175.54173Q32.925 175.54173 33.58125 174.60423Q34.2375 173.66673 34.2375 170.85423Q34.2375 168.02611 33.58125 167.10423Q32.925 166.16673 31.940624 166.16673Q30.971874 166.16673 30.39375 166.99486Q29.659374 168.04173 29.659374 170.85423ZM38.003124 176.51048L38.003124 174.90111L39.6125 174.90111L39.6125 176.51048L38.003124 176.51048ZM41.221874 170.85423Q41.221874 168.82298 41.628124 167.58861Q42.05 166.35423 42.878124 165.68236Q43.70625 165.01048 44.95625 165.01048Q45.878124 165.01048 46.565624 165.38548Q47.26875 165.74486 47.721874 166.44798Q48.175 167.15111 48.425 168.15111Q48.690624 169.15111 48.690624 170.85423Q48.690624 172.86986 48.26875 174.11986Q47.8625 175.35423 47.034374 176.04173Q46.20625 176.71361 44.95625 176.71361Q43.3 176.71361 42.346874 175.51048Q41.221874 174.08861 41.221874 170.85423ZM42.659374 170.85423Q42.659374 173.68236 43.315624 174.61986Q43.9875 175.54173 44.95625 175.54173Q45.925 175.54173 46.58125 174.60423Q47.2375 173.66673 47.2375 170.85423Q47.2375 168.02611 46.58125 167.10423Q45.925 166.16673 44.940624 166.16673Q43.971874 166.16673 43.39375 166.99486Q42.659374 168.04173 42.659374 170.85423ZM50.4875 167.80736Q50.4875 166.57298 51.096874 165.71361Q51.721874 164.85423 52.89375 164.85423Q53.971874 164.85423 54.675 165.63548Q55.378124 166.40111 55.378124 167.88548Q55.378124 169.33861 54.659374 170.13548Q53.95625 170.91673 52.909374 170.91673Q51.8625 170.91673 51.175 170.15111Q50.4875 169.36986 50.4875 167.80736ZM52.925 165.82298Q52.409374 165.82298 52.05 166.27611Q51.70625 166.72923 51.70625 167.94798Q51.70625 169.04173 52.05 169.49486Q52.409374 169.94798 52.925 169.94798Q53.45625 169.94798 53.8 169.49486Q54.159374 169.04173 54.159374 167.83861Q54.159374 166.72923 53.8 166.27611Q53.45625 165.82298 52.925 165.82298ZM52.940624 176.93236L59.20625 164.85423L60.346874 164.85423L54.096874 176.93236L52.940624 176.93236ZM57.89375 173.82298Q57.89375 172.58861 58.503124 171.72923Q59.128124 170.86986 60.3 170.86986Q61.378124 170.86986 62.08125 171.65111Q62.8 172.41673 62.8 173.90111Q62.8 175.35423 62.08125 176.15111Q61.3625 176.93236 60.315624 176.93236Q59.26875 176.93236 58.58125 176.15111Q57.89375 175.36986 57.89375 173.82298ZM60.346874 171.83861Q59.815624 171.83861 59.45625 172.29173Q59.1125 172.74486 59.1125 173.96361Q59.1125 175.05736 59.45625 175.51048Q59.815624 175.96361 60.33125 175.96361Q60.878124 175.96361 61.221874 175.51048Q61.565624 175.05736 61.565624 173.85423Q61.565624 172.74486 61.20625 172.29173Q60.8625 171.83861 60.346874 171.83861Z" fill-rule="nonzero"/><path stroke="#757575" stroke-width="1.0" stroke-linecap="butt" d="M18.55 160.01048L145.23334 160.01048L165.58876 160.01048" fill-rule="nonzero"/><path fill="#9e9e9e" d="M167.58876 160.01048C167.58876 158.90591 166.69334 158.01048 165.58876 158.01048C164.48419 158.01048 163.58876 158.90591 163.58876 160.01048C163.58876 161.11505 164.48419 162.01048 165.58876 162.01048C166.69334 162.01048 167.58876 161.11505 167.58876 160.01048" fill-rule="nonzero"/><path fill="#efefef" d="M19.7375 312.52036L19.7375 301.06723L22.01875 301.06723L24.7375 309.1766Q25.1125 310.3016 25.284374 310.8641Q25.471874 310.2391 25.89375 309.03598L28.628124 301.06723L30.675 301.06723L30.675 312.52036L29.20625 312.52036L29.20625 302.9266L25.878124 312.52036L24.51875 312.52036L21.20625 302.77036L21.20625 312.52036L19.7375 312.52036ZM32.6125 302.6766L32.6125 301.06723L34.01875 301.06723L34.01875 302.6766L32.6125 302.6766ZM32.6125 312.52036L32.6125 304.22348L34.01875 304.22348L34.01875 312.52036L32.6125 312.52036ZM36.58125 312.52036L36.58125 301.06723L37.9875 301.06723L37.9875 312.52036L36.58125 312.52036ZM40.6125 302.6766L40.6125 301.06723L42.01875 301.06723L42.01875 302.6766L40.6125 302.6766ZM40.6125 312.52036L40.6125 304.22348L42.01875 304.22348L42.01875 312.52036L40.6125 312.52036ZM47.675 311.25473L47.878124 312.50473Q47.284374 312.62973 46.815624 312.62973Q46.05 312.62973 45.628124 312.39536Q45.20625 312.14536 45.034374 311.75473Q44.8625 311.34848 44.8625 310.08286L44.8625 305.31723L43.83125 305.31723L43.83125 304.22348L44.8625 304.22348L44.8625 302.16098L46.26875 301.31723L46.26875 304.22348L47.675 304.22348L47.675 305.31723L46.26875 305.31723L46.26875 310.16098Q46.26875 310.77036 46.33125 310.94223Q46.409374 311.1141 46.58125 311.22348Q46.753124 311.31723 47.065624 311.31723Q47.3 311.31723 47.675 311.25473ZM54.01875 311.4891Q53.2375 312.16098 52.51875 312.44223Q51.8 312.70786 50.971874 312.70786Q49.596874 312.70786 48.8625 312.03598Q48.128124 311.3641 48.128124 310.33286Q48.128124 309.72348 48.409374 309.22348Q48.690624 308.70786 49.128124 308.41098Q49.58125 308.09848 50.14375 307.94223Q50.565624 307.83286 51.39375 307.7391Q53.096874 307.53598 53.909374 307.25473Q53.909374 306.95786 53.909374 306.87973Q53.909374 306.02036 53.51875 305.6766Q52.971874 305.19223 51.909374 305.19223Q50.925 305.19223 50.440624 305.5516Q49.971874 305.89536 49.753124 306.77036L48.378124 306.58286Q48.565624 305.70786 48.9875 305.16098Q49.425 304.6141 50.2375 304.33286Q51.05 304.03598 52.1125 304.03598Q53.175 304.03598 53.83125 304.28598Q54.503124 304.53598 54.815624 304.91098Q55.128124 305.28598 55.253124 305.8641Q55.33125 306.22348 55.33125 307.16098L55.33125 309.03598Q55.33125 311.00473 55.409374 311.52036Q55.503124 312.03598 55.76875 312.52036L54.3 312.52036Q54.08125 312.08286 54.01875 311.4891ZM53.909374 308.34848Q53.14375 308.66098 51.6125 308.87973Q50.7375 309.00473 50.378124 309.16098Q50.01875 309.31723 49.815624 309.62973Q49.628124 309.9266 49.628124 310.28598Q49.628124 310.84848 50.05 311.22348Q50.4875 311.59848 51.3 311.59848Q52.1125 311.59848 52.7375 311.25473Q53.378124 310.89536 53.675 310.27036Q53.909374 309.8016 53.909374 308.8641L53.909374 308.34848ZM57.596874 312.52036L57.596874 304.22348L58.8625 304.22348L58.8625 305.47348Q59.346874 304.59848 59.753124 304.31723Q60.159374 304.03598 60.659374 304.03598Q61.3625 304.03598 62.096874 304.4891L61.6125 305.78598Q61.096874 305.4891 60.58125 305.4891Q60.128124 305.4891 59.753124 305.77036Q59.39375 306.03598 59.2375 306.53598Q59.003124 307.28598 59.003124 308.1766L59.003124 312.52036L57.596874 312.52036ZM62.55 315.72348L62.39375 314.39536Q62.846874 314.52036 63.190624 314.52036Q63.659374 314.52036 63.940624 314.3641Q64.22188 314.20786 64.40938 313.9266Q64.53438 313.72348 64.83125 312.87973Q64.87813 312.77036 64.95625 312.53598L61.815624 304.22348L63.33125 304.22348L65.05 309.02036Q65.39375 309.94223 65.65938 310.94223Q65.89375 309.97348 66.2375 309.0516L68.00313 304.22348L69.40938 304.22348L66.25313 312.66098Q65.75313 314.03598 65.47188 314.5516Q65.09688 315.2391 64.6125 315.56723Q64.12813 315.89536 63.45625 315.89536Q63.05 315.89536 62.55 315.72348Z" fill-rule="nonzero"/><path fill="#9e9e9e" d="M26.6125 333.16098L26.6125 334.52036L19.034374 334.52036Q19.01875 334.00473 19.20625 333.53598Q19.4875 332.77036 20.128124 332.02036Q20.76875 331.27036 21.971874 330.28598Q23.83125 328.75473 24.4875 327.8641Q25.14375 326.95786 25.14375 326.16098Q25.14375 325.33286 24.55 324.75473Q23.95625 324.1766 22.9875 324.1766Q21.971874 324.1766 21.3625 324.78598Q20.753124 325.39536 20.753124 326.47348L19.3 326.33286Q19.45625 324.70786 20.425 323.8641Q21.39375 323.02036 23.01875 323.02036Q24.675 323.02036 25.628124 323.94223Q26.596874 324.84848 26.596874 326.19223Q26.596874 326.87973 26.315624 327.5516Q26.034374 328.20786 25.378124 328.94223Q24.721874 329.6766 23.20625 330.95786Q21.940624 332.02036 21.58125 332.41098Q21.221874 332.78598 20.9875 333.16098L26.6125 333.16098ZM28.221874 328.8641Q28.221874 326.83286 28.628124 325.59848Q29.05 324.3641 29.878124 323.69223Q30.70625 323.02036 31.95625 323.02036Q32.878124 323.02036 33.565624 323.39536Q34.26875 323.75473 34.721874 324.45786Q35.175 325.16098 35.425 326.16098Q35.690624 327.16098 35.690624 328.8641Q35.690624 330.87973 35.26875 332.12973Q34.8625 333.3641 34.034374 334.0516Q33.20625 334.72348 31.95625 334.72348Q30.3 334.72348 29.346874 333.52036Q28.221874 332.09848 28.221874 328.8641ZM29.659374 328.8641Q29.659374 331.69223 30.315624 332.62973Q30.9875 333.5516 31.95625 333.5516Q32.925 333.5516 33.58125 332.6141Q34.2375 331.6766 34.2375 328.8641Q34.2375 326.03598 33.58125 325.1141Q32.925 324.1766 31.940624 324.1766Q30.971874 324.1766 30.39375 325.00473Q29.659374 326.0516 29.659374 328.8641ZM38.003124 334.52036L38.003124 332.91098L39.6125 332.91098L39.6125 334.52036L38.003124 334.52036ZM41.221874 328.8641Q41.221874 326.83286 41.628124 325.59848Q42.05 324.3641 42.878124 323.69223Q43.70625 323.02036 44.95625 323.02036Q45.878124 323.02036 46.565624 323.39536Q47.26875 323.75473 47.721874 324.45786Q48.175 325.16098 48.425 326.16098Q48.690624 327.16098 48.690624 328.8641Q48.690624 330.87973 48.26875 332.12973Q47.8625 333.3641 47.034374 334.0516Q46.20625 334.72348 44.95625 334.72348Q43.3 334.72348 42.346874 333.52036Q41.221874 332.09848 41.221874 328.8641ZM42.659374 328.8641Q42.659374 331.69223 43.315624 332.62973Q43.9875 333.5516 44.95625 333.5516Q45.925 333.5516 46.58125 332.6141Q47.2375 331.6766 47.2375 328.8641Q47.2375 326.03598 46.58125 325.1141Q45.925 324.1766 44.940624 324.1766Q43.971874 324.1766 43.39375 325.00473Q42.659374 326.0516 42.659374 328.8641ZM50.4875 325.81723Q50.4875 324.58286 51.096874 323.72348Q51.721874 322.8641 52.89375 322.8641Q53.971874 322.8641 54.675 323.64536Q55.378124 324.41098 55.378124 325.89536Q55.378124 327.34848 54.659374 328.14536Q53.95625 328.9266 52.909374 328.9266Q51.8625 328.9266 51.175 328.16098Q50.4875 327.37973 50.4875 325.81723ZM52.925 323.83286Q52.409374 323.83286 52.05 324.28598Q51.70625 324.7391 51.70625 325.95786Q51.70625 327.0516 52.05 327.50473Q52.409374 327.95786 52.925 327.95786Q53.45625 327.95786 53.8 327.50473Q54.159374 327.0516 54.159374 325.84848Q54.159374 324.7391 53.8 324.28598Q53.45625 323.83286 52.925 323.83286ZM52.940624 334.94223L59.20625 322.8641L60.346874 322.8641L54.096874 334.94223L52.940624 334.94223ZM57.89375 331.83286Q57.89375 330.59848 58.503124 329.7391Q59.128124 328.87973 60.3 328.87973Q61.378124 328.87973 62.08125 329.66098Q62.8 330.4266 62.8 331.91098Q62.8 333.3641 62.08125 334.16098Q61.3625 334.94223 60.315624 334.94223Q59.26875 334.94223 58.58125 334.16098Q57.89375 333.37973 57.89375 331.83286ZM60.346874 329.84848Q59.815624 329.84848 59.45625 330.3016Q59.1125 330.75473 59.1125 331.97348Q59.1125 333.06723 59.45625 333.52036Q59.815624 333.97348 60.33125 333.97348Q60.878124 333.97348 61.221874 333.52036Q61.565624 333.06723 61.565624 331.8641Q61.565624 330.75473 61.20625 330.3016Q60.8625 329.84848 60.346874 329.84848Z" fill-rule="nonzero"/><path stroke="#757575" stroke-width="1.0" stroke-linecap="butt" d="M18.55 318.02036L145.23334 318.02036L216.92929 318.02036" fill-rule="nonzero"/><path fill="#9e9e9e" d="M218.92929 318.02036C218.92929 316.9158 218.03386 316.02036 216.92929 316.02036C215.82472 316.02036 214.92929 316.9158 214.92929 318.02036C214.92929 319.12494 215.82472 320.02036 216.92929 320.02036C218.03386 320.02036 218.92929 319.12494 218.92929 318.02036" fill-rule="nonzero"/><path fill="#efefef" d="M481.71564 69.916664L481.71564 58.46354L489.9969 58.46354L489.9969 59.80729L483.23126 59.80729L483.23126 63.322914L489.575 63.322914L489.575 64.666664L483.23126 64.666664L483.23126 68.55729L490.2625 68.55729L490.2625 69.916664L481.71564 69.916664ZM495.575 68.65104L495.77814 69.90104Q495.1844 70.02604 494.71564 70.02604Q493.95 70.02604 493.52814 69.791664Q493.10626 69.541664 492.9344 69.15104Q492.7625 68.74479 492.7625 67.479164L492.7625 62.71354L491.73126 62.71354L491.73126 61.61979L492.7625 61.61979L492.7625 59.55729L494.16876 58.71354L494.16876 61.61979L495.575 61.61979L495.575 62.71354L494.16876 62.71354L494.16876 67.55729Q494.16876 68.166664 494.23126 68.33854Q494.3094 68.510414 494.48126 68.61979Q494.65314 68.71354 494.96564 68.71354Q495.2 68.71354 495.575 68.65104ZM496.5125 69.916664L496.5125 58.46354L497.91876 58.46354L497.91876 62.572914Q498.90314 61.43229 500.40314 61.43229Q501.325 61.43229 501.9969 61.791664Q502.6844 62.15104 502.96564 62.791664Q503.2625 63.43229 503.2625 64.65104L503.2625 69.916664L501.85626 69.916664L501.85626 64.65104Q501.85626 63.604164 501.40314 63.11979Q500.95 62.635414 500.10626 62.635414Q499.48126 62.635414 498.9344 62.96354Q498.3875 63.291664 498.15314 63.854164Q497.91876 64.40104 497.91876 65.36979L497.91876 69.916664L496.5125 69.916664ZM505.5125 69.916664L505.5125 61.61979L506.77814 61.61979L506.77814 62.791664Q507.6844 61.43229 509.41876 61.43229Q510.16876 61.43229 510.79376 61.697914Q511.41876 61.96354 511.73126 62.40104Q512.04376 62.83854 512.16876 63.447914Q512.2469 63.83854 512.2469 64.80729L512.2469 69.916664L510.84064 69.916664L510.84064 64.86979Q510.84064 64.010414 510.66876 63.58854Q510.5125 63.15104 510.09064 62.90104Q509.6844 62.65104 509.1219 62.65104Q508.21564 62.65104 507.5594 63.229164Q506.91876 63.791664 506.91876 65.385414L506.91876 69.916664L505.5125 69.916664ZM514.5125 60.072914L514.5125 58.46354L515.91876 58.46354L515.91876 60.072914L514.5125 60.072914ZM514.5125 69.916664L514.5125 61.61979L515.91876 61.61979L515.91876 69.916664L514.5125 69.916664ZM523.91876 66.86979L525.3094 67.05729Q525.075 68.479164 524.1375 69.291664Q523.21564 70.104164 521.85626 70.104164Q520.15314 70.104164 519.10626 68.99479Q518.075 67.86979 518.075 65.791664Q518.075 64.447914 518.5125 63.447914Q518.96564 62.43229 519.8719 61.93229Q520.79376 61.43229 521.85626 61.43229Q523.21564 61.43229 524.075 62.11979Q524.9344 62.791664 525.16876 64.05729L523.8094 64.260414Q523.60626 63.43229 523.10626 63.010414Q522.6219 62.58854 521.91876 62.58854Q520.85626 62.58854 520.1844 63.354164Q519.52814 64.104164 519.52814 65.760414Q519.52814 67.43229 520.16876 68.197914Q520.8094 68.947914 521.84064 68.947914Q522.66876 68.947914 523.21564 68.447914Q523.77814 67.93229 523.91876 66.86979ZM536.04376 65.416664L536.04376 64.072914L540.90314 64.072914L540.90314 68.322914Q539.77814 69.21354 538.59064 69.666664Q537.40314 70.11979 536.15314 70.11979Q534.46564 70.11979 533.09064 69.40104Q531.71564 68.666664 531.0125 67.30729Q530.3094 65.93229 530.3094 64.24479Q530.3094 62.572914 530.9969 61.11979Q531.7 59.666664 533.0125 58.96354Q534.325 58.260414 536.04376 58.260414Q537.27814 58.260414 538.27814 58.666664Q539.29376 59.072914 539.85626 59.791664Q540.4344 60.510414 540.73126 61.666664L539.35626 62.041664Q539.10626 61.166664 538.71564 60.666664Q538.34064 60.166664 537.6219 59.86979Q536.91876 59.55729 536.04376 59.55729Q535.0125 59.55729 534.2469 59.885414Q533.4969 60.197914 533.02814 60.71354Q532.5594 61.229164 532.3094 61.83854Q531.8719 62.90104 531.8719 64.15104Q531.8719 65.68229 532.3875 66.71354Q532.91876 67.74479 533.91876 68.24479Q534.9344 68.74479 536.075 68.74479Q537.0594 68.74479 537.9969 68.36979Q538.9344 67.979164 539.41876 67.55729L539.41876 65.416664L536.04376 65.416664ZM542.4969 69.916664L542.4969 61.61979L543.7625 61.61979L543.7625 62.86979Q544.2469 61.99479 544.65314 61.71354Q545.0594 61.43229 545.5594 61.43229Q546.2625 61.43229 546.9969 61.885414L546.5125 63.18229Q545.9969 62.885414 545.48126 62.885414Q545.02814 62.885414 544.65314 63.166664Q544.29376 63.43229 544.1375 63.93229Q543.90314 64.68229 543.90314 65.572914L543.90314 69.916664L542.4969 69.916664ZM546.98126 65.760414Q546.98126 63.46354 548.2625 62.354164Q549.34064 61.43229 550.8719 61.43229Q552.59064 61.43229 553.66876 62.55729Q554.7625 63.666664 554.7625 65.65104Q554.7625 67.24479 554.27814 68.166664Q553.79376 69.08854 552.8719 69.604164Q551.96564 70.104164 550.8719 70.104164Q549.1375 70.104164 548.0594 68.99479Q546.98126 67.86979 546.98126 65.760414ZM548.4344 65.760414Q548.4344 67.354164 549.1219 68.15104Q549.825 68.947914 550.8719 68.947914Q551.91876 68.947914 552.60626 68.15104Q553.3094 67.354164 553.3094 65.71354Q553.3094 64.18229 552.60626 63.385414Q551.91876 62.58854 550.8719 62.58854Q549.825 62.58854 549.1219 63.385414Q548.4344 64.166664 548.4344 65.760414ZM561.95 69.916664L561.95 68.697914Q560.98126 70.104164 559.3094 70.104164Q558.575 70.104164 557.9344 69.822914Q557.3094 69.541664 556.9969 69.11979Q556.6844 68.68229 556.5594 68.072914Q556.48126 67.65104 556.48126 66.760414L556.48126 61.61979L557.8875 61.61979L557.8875 66.21354Q557.8875 67.322914 557.96564 67.697914Q558.10626 68.260414 558.52814 68.572914Q558.96564 68.885414 559.59064 68.885414Q560.23126 68.885414 560.77814 68.572914Q561.34064 68.24479 561.5594 67.68229Q561.79376 67.11979 561.79376 66.05729L561.79376 61.61979L563.2 61.61979L563.2 69.916664L561.95 69.916664ZM565.5125 73.104164L565.5125 61.61979L566.79376 61.61979L566.79376 62.697914Q567.2469 62.05729 567.8094 61.74479Q568.3875 61.43229 569.2 61.43229Q570.2625 61.43229 571.075 61.979164Q571.8875 62.52604 572.29376 63.52604Q572.71564 64.510414 572.71564 65.697914Q572.71564 66.979164 572.2469 67.99479Q571.79376 69.010414 570.91876 69.55729Q570.0594 70.104164 569.09064 70.104164Q568.3875 70.104164 567.825 69.80729Q567.27814 69.510414 566.91876 69.05729L566.91876 73.104164L565.5125 73.104164ZM566.77814 65.80729Q566.77814 67.416664 567.41876 68.18229Q568.075 68.947914 568.9969 68.947914Q569.9344 68.947914 570.60626 68.15104Q571.27814 67.354164 571.27814 65.697914Q571.27814 64.104164 570.6219 63.322914Q569.96564 62.52604 569.0594 62.52604Q568.16876 62.52604 567.46564 63.36979Q566.77814 64.21354 566.77814 65.80729ZM573.95 67.43229L575.34064 67.21354Q575.45 68.05729 575.98126 68.510414Q576.52814 68.947914 577.48126 68.947914Q578.45 68.947914 578.91876 68.55729Q579.3875 68.15104 579.3875 67.61979Q579.3875 67.15104 578.98126 66.86979Q578.6844 66.68229 577.54376 66.40104Q575.9969 66.010414 575.3875 65.729164Q574.79376 65.43229 574.48126 64.93229Q574.1844 64.43229 574.1844 63.822914Q574.1844 63.260414 574.4344 62.791664Q574.6844 62.322914 575.1219 62.010414Q575.45 61.760414 576.0125 61.604164Q576.59064 61.43229 577.23126 61.43229Q578.21564 61.43229 578.95 61.71354Q579.6844 61.99479 580.02814 62.479164Q580.3875 62.947914 580.52814 63.760414L579.15314 63.947914Q579.0594 63.30729 578.60626 62.947914Q578.15314 62.58854 577.34064 62.58854Q576.3719 62.58854 575.95 62.916664Q575.54376 63.229164 575.54376 63.65104Q575.54376 63.93229 575.71564 64.15104Q575.8875 64.36979 576.2469 64.52604Q576.46564 64.604164 577.4969 64.885414Q578.98126 65.27604 579.575 65.541664Q580.16876 65.791664 580.4969 66.27604Q580.84064 66.760414 580.84064 67.479164Q580.84064 68.18229 580.41876 68.80729Q580.0125 69.416664 579.23126 69.760414Q578.46564 70.104164 577.4969 70.104164Q575.8719 70.104164 575.02814 69.43229Q574.1844 68.760414 573.95 67.43229Z" fill-rule="nonzero"/><path fill="#9e9e9e" d="M542.41876 91.916664L541.0125 91.916664L541.0125 82.947914Q540.4969 83.43229 539.66876 83.916664Q538.85626 84.40104 538.2 84.65104L538.2 83.291664Q539.3719 82.729164 540.2469 81.947914Q541.1375 81.15104 541.5125 80.416664L542.41876 80.416664L542.41876 91.916664ZM546.1219 86.260414Q546.1219 84.229164 546.52814 82.99479Q546.95 81.760414 547.77814 81.08854Q548.60626 80.416664 549.85626 80.416664Q550.77814 80.416664 551.46564 80.791664Q552.16876 81.15104 552.6219 81.854164Q553.075 82.55729 553.325 83.55729Q553.59064 84.55729 553.59064 86.260414Q553.59064 88.27604 553.16876 89.52604Q552.7625 90.760414 551.9344 91.447914Q551.10626 92.11979 549.85626 92.11979Q548.2 92.11979 547.2469 90.916664Q546.1219 89.49479 546.1219 86.260414ZM547.5594 86.260414Q547.5594 89.08854 548.21564 90.02604Q548.8875 90.947914 549.85626 90.947914Q550.825 90.947914 551.48126 90.010414Q552.1375 89.072914 552.1375 86.260414Q552.1375 83.43229 551.48126 82.510414Q550.825 81.572914 549.84064 81.572914Q548.8719 81.572914 548.29376 82.40104Q547.5594 83.447914 547.5594 86.260414ZM555.90314 91.916664L555.90314 90.30729L557.5125 90.30729L557.5125 91.916664L555.90314 91.916664ZM559.1219 86.260414Q559.1219 84.229164 559.52814 82.99479Q559.95 81.760414 560.77814 81.08854Q561.60626 80.416664 562.85626 80.416664Q563.77814 80.416664 564.46564 80.791664Q565.16876 81.15104 565.6219 81.854164Q566.075 82.55729 566.325 83.55729Q566.59064 84.55729 566.59064 86.260414Q566.59064 88.27604 566.16876 89.52604Q565.7625 90.760414 564.9344 91.447914Q564.10626 92.11979 562.85626 92.11979Q561.2 92.11979 560.2469 90.916664Q559.1219 89.49479 559.1219 86.260414ZM560.5594 86.260414Q560.5594 89.08854 561.21564 90.02604Q561.8875 90.947914 562.85626 90.947914Q563.825 90.947914 564.48126 90.010414Q565.1375 89.072914 565.1375 86.260414Q565.1375 83.43229 564.48126 82.510414Q563.825 81.572914 562.84064 81.572914Q561.8719 81.572914 561.29376 82.40104Q560.5594 83.447914 560.5594 86.260414ZM568.3875 83.21354Q568.3875 81.979164 568.9969 81.11979Q569.6219 80.260414 570.79376 80.260414Q571.8719 80.260414 572.575 81.041664Q573.27814 81.80729 573.27814 83.291664Q573.27814 84.74479 572.5594 85.541664Q571.85626 86.322914 570.8094 86.322914Q569.7625 86.322914 569.075 85.55729Q568.3875 84.77604 568.3875 83.21354ZM570.825 81.229164Q570.3094 81.229164 569.95 81.68229Q569.60626 82.135414 569.60626 83.354164Q569.60626 84.447914 569.95 84.90104Q570.3094 85.354164 570.825 85.354164Q571.35626 85.354164 571.7 84.90104Q572.0594 84.447914 572.0594 83.24479Q572.0594 82.135414 571.7 81.68229Q571.35626 81.229164 570.825 81.229164ZM570.84064 92.33854L577.10626 80.260414L578.2469 80.260414L571.9969 92.33854L570.84064 92.33854ZM575.79376 89.229164Q575.79376 87.99479 576.40314 87.135414Q577.02814 86.27604 578.2 86.27604Q579.27814 86.27604 579.98126 87.05729Q580.7 87.822914 580.7 89.30729Q580.7 90.760414 579.98126 91.55729Q579.2625 92.33854 578.21564 92.33854Q577.16876 92.33854 576.48126 91.55729Q575.79376 90.77604 575.79376 89.229164ZM578.2469 87.24479Q577.71564 87.24479 577.35626 87.697914Q577.0125 88.15104 577.0125 89.36979Q577.0125 90.46354 577.35626 90.916664Q577.71564 91.36979 578.23126 91.36979Q578.77814 91.36979 579.1219 90.916664Q579.46564 90.46354 579.46564 89.260414Q579.46564 88.15104 579.10626 87.697914Q578.7625 87.24479 578.2469 87.24479Z" fill-rule="nonzero"/><path stroke="#757575" stroke-width="1.0" stroke-linecap="butt" d="M581.45 75.416664L454.76666 75.416664L343.67285 69.2721" fill-rule="nonzero"/><path fill="#9e9e9e" d="M345.67285 69.2721C345.67285 68.167534 344.77744 67.2721 343.67285 67.2721C342.5683 67.2721 341.67285 68.167534 341.67285 69.2721C341.67285 70.37667 342.5683 71.2721 343.67285 71.2721C344.77744 71.2721 345.67285 70.37667 345.67285 69.2721" fill-rule="nonzero"/><path fill="#efefef" d="M495.85626 194.16771L497.3719 194.54271Q496.90314 196.41771 495.65314 197.40208Q494.41876 198.38646 492.6375 198.38646Q490.77814 198.38646 489.6219 197.63646Q488.46564 196.87083 487.85626 195.44896Q487.2469 194.01146 487.2469 192.37083Q487.2469 190.57396 487.9344 189.24583Q488.6219 187.91771 489.8719 187.23021Q491.1375 186.52708 492.65314 186.52708Q494.3719 186.52708 495.54376 187.40208Q496.71564 188.27708 497.1844 189.87083L495.6844 190.21458Q495.29376 188.96458 494.52814 188.40208Q493.77814 187.82396 492.6219 187.82396Q491.3094 187.82396 490.41876 188.46458Q489.52814 189.08958 489.16876 190.16771Q488.8094 191.23021 488.8094 192.35521Q488.8094 193.82396 489.23126 194.91771Q489.66876 195.99583 490.5594 196.54271Q491.46564 197.07396 492.5125 197.07396Q493.77814 197.07396 494.65314 196.33958Q495.54376 195.60521 495.85626 194.16771ZM504.95 198.18333L504.95 196.96458Q503.98126 198.37083 502.3094 198.37083Q501.575 198.37083 500.9344 198.08958Q500.3094 197.80833 499.9969 197.38646Q499.6844 196.94896 499.5594 196.33958Q499.48126 195.91771 499.48126 195.02708L499.48126 189.88646L500.8875 189.88646L500.8875 194.48021Q500.8875 195.58958 500.96564 195.96458Q501.10626 196.52708 501.52814 196.83958Q501.96564 197.15208 502.59064 197.15208Q503.23126 197.15208 503.77814 196.83958Q504.34064 196.51146 504.5594 195.94896Q504.79376 195.38646 504.79376 194.32396L504.79376 189.88646L506.2 189.88646L506.2 198.18333L504.95 198.18333ZM508.48126 198.18333L508.48126 186.73021L509.8875 186.73021L509.8875 198.18333L508.48126 198.18333ZM515.575 196.91771L515.77814 198.16771Q515.1844 198.29271 514.71564 198.29271Q513.95 198.29271 513.52814 198.05833Q513.10626 197.80833 512.9344 197.41771Q512.7625 197.01146 512.7625 195.74583L512.7625 190.98021L511.73126 190.98021L511.73126 189.88646L512.7625 189.88646L512.7625 187.82396L514.16876 186.98021L514.16876 189.88646L515.575 189.88646L515.575 190.98021L514.16876 190.98021L514.16876 195.82396Q514.16876 196.43333 514.23126 196.60521Q514.3094 196.77708 514.48126 196.88646Q514.65314 196.98021 514.96564 196.98021Q515.2 196.98021 515.575 196.91771ZM521.95 198.18333L521.95 196.96458Q520.98126 198.37083 519.3094 198.37083Q518.575 198.37083 517.9344 198.08958Q517.3094 197.80833 516.9969 197.38646Q516.6844 196.94896 516.5594 196.33958Q516.48126 195.91771 516.48126 195.02708L516.48126 189.88646L517.8875 189.88646L517.8875 194.48021Q517.8875 195.58958 517.96564 195.96458Q518.10626 196.52708 518.52814 196.83958Q518.96564 197.15208 519.59064 197.15208Q520.23126 197.15208 520.77814 196.83958Q521.34064 196.51146 521.5594 195.94896Q521.79376 195.38646 521.79376 194.32396L521.79376 189.88646L523.2 189.88646L523.2 198.18333L521.95 198.18333ZM525.4969 198.18333L525.4969 189.88646L526.7625 189.88646L526.7625 191.13646Q527.2469 190.26146 527.65314 189.98021Q528.0594 189.69896 528.5594 189.69896Q529.2625 189.69896 529.9969 190.15208L529.5125 191.44896Q528.9969 191.15208 528.48126 191.15208Q528.02814 191.15208 527.65314 191.43333Q527.29376 191.69896 527.1375 192.19896Q526.90314 192.94896 526.90314 193.83958L526.90314 198.18333L525.4969 198.18333ZM535.91876 197.15208Q535.1375 197.82396 534.41876 198.10521Q533.7 198.37083 532.8719 198.37083Q531.4969 198.37083 530.7625 197.69896Q530.02814 197.02708 530.02814 195.99583Q530.02814 195.38646 530.3094 194.88646Q530.59064 194.37083 531.02814 194.07396Q531.48126 193.76146 532.04376 193.60521Q532.46564 193.49583 533.29376 193.40208Q534.9969 193.19896 535.8094 192.91771Q535.8094 192.62083 535.8094 192.54271Q535.8094 191.68333 535.41876 191.33958Q534.8719 190.85521 533.8094 190.85521Q532.825 190.85521 532.34064 191.21458Q531.8719 191.55833 531.65314 192.43333L530.27814 192.24583Q530.46564 191.37083 530.8875 190.82396Q531.325 190.27708 532.1375 189.99583Q532.95 189.69896 534.0125 189.69896Q535.075 189.69896 535.73126 189.94896Q536.40314 190.19896 536.71564 190.57396Q537.02814 190.94896 537.15314 191.52708Q537.23126 191.88646 537.23126 192.82396L537.23126 194.69896Q537.23126 196.66771 537.3094 197.18333Q537.40314 197.69896 537.66876 198.18333L536.2 198.18333Q535.98126 197.74583 535.91876 197.15208ZM535.8094 194.01146Q535.04376 194.32396 533.5125 194.54271Q532.6375 194.66771 532.27814 194.82396Q531.91876 194.98021 531.71564 195.29271Q531.52814 195.58958 531.52814 195.94896Q531.52814 196.51146 531.95 196.88646Q532.3875 197.26146 533.2 197.26146Q534.0125 197.26146 534.6375 196.91771Q535.27814 196.55833 535.575 195.93333Q535.8094 195.46458 535.8094 194.52708L535.8094 194.01146ZM539.48126 198.18333L539.48126 186.73021L540.8875 186.73021L540.8875 198.18333L539.48126 198.18333ZM546.41876 198.18333L550.825 186.73021L552.46564 186.73021L557.15314 198.18333L555.41876 198.18333L554.09064 194.71458L549.29376 194.71458L548.04376 198.18333L546.41876 198.18333ZM549.73126 193.48021L553.6219 193.48021L552.41876 190.30833Q551.8719 188.85521 551.60626 187.93333Q551.3875 189.02708 550.9969 190.12083L549.73126 193.48021ZM563.91876 195.13646L565.3094 195.32396Q565.075 196.74583 564.1375 197.55833Q563.21564 198.37083 561.85626 198.37083Q560.15314 198.37083 559.10626 197.26146Q558.075 196.13646 558.075 194.05833Q558.075 192.71458 558.5125 191.71458Q558.96564 190.69896 559.8719 190.19896Q560.79376 189.69896 561.85626 189.69896Q563.21564 189.69896 564.075 190.38646Q564.9344 191.05833 565.16876 192.32396L563.8094 192.52708Q563.60626 191.69896 563.10626 191.27708Q562.6219 190.85521 561.91876 190.85521Q560.85626 190.85521 560.1844 191.62083Q559.52814 192.37083 559.52814 194.02708Q559.52814 195.69896 560.16876 196.46458Q560.8094 197.21458 561.84064 197.21458Q562.66876 197.21458 563.21564 196.71458Q563.77814 196.19896 563.91876 195.13646ZM569.575 196.91771L569.77814 198.16771Q569.1844 198.29271 568.71564 198.29271Q567.95 198.29271 567.52814 198.05833Q567.10626 197.80833 566.9344 197.41771Q566.7625 197.01146 566.7625 195.74583L566.7625 190.98021L565.73126 190.98021L565.73126 189.88646L566.7625 189.88646L566.7625 187.82396L568.16876 186.98021L568.16876 189.88646L569.575 189.88646L569.575 190.98021L568.16876 190.98021L568.16876 195.82396Q568.16876 196.43333 568.23126 196.60521Q568.3094 196.77708 568.48126 196.88646Q568.65314 196.98021 568.96564 196.98021Q569.2 196.98021 569.575 196.91771ZM569.95 195.69896L571.34064 195.48021Q571.45 196.32396 571.98126 196.77708Q572.52814 197.21458 573.48126 197.21458Q574.45 197.21458 574.91876 196.82396Q575.3875 196.41771 575.3875 195.88646Q575.3875 195.41771 574.98126 195.13646Q574.6844 194.94896 573.54376 194.66771Q571.9969 194.27708 571.3875 193.99583Q570.79376 193.69896 570.48126 193.19896Q570.1844 192.69896 570.1844 192.08958Q570.1844 191.52708 570.4344 191.05833Q570.6844 190.58958 571.1219 190.27708Q571.45 190.02708 572.0125 189.87083Q572.59064 189.69896 573.23126 189.69896Q574.21564 189.69896 574.95 189.98021Q575.6844 190.26146 576.02814 190.74583Q576.3875 191.21458 576.52814 192.02708L575.15314 192.21458Q575.0594 191.57396 574.60626 191.21458Q574.15314 190.85521 573.34064 190.85521Q572.3719 190.85521 571.95 191.18333Q571.54376 191.49583 571.54376 191.91771Q571.54376 192.19896 571.71564 192.41771Q571.8875 192.63646 572.2469 192.79271Q572.46564 192.87083 573.4969 193.15208Q574.98126 193.54271 575.575 193.80833Q576.16876 194.05833 576.4969 194.54271Q576.84064 195.02708 576.84064 195.74583Q576.84064 196.44896 576.41876 197.07396Q576.0125 197.68333 575.23126 198.02708Q574.46564 198.37083 573.4969 198.37083Q571.8719 198.37083 571.02814 197.69896Q570.1844 197.02708 569.95 195.69896ZM578.90314 198.18333L578.90314 196.57396L580.5125 196.57396L580.5125 198.18333L578.90314 198.18333Z" fill-rule="nonzero"/><path fill="#9e9e9e" d="M537.1219 217.15208L538.52814 216.96458Q538.77814 218.16771 539.35626 218.69896Q539.9344 219.21458 540.77814 219.21458Q541.7625 219.21458 542.45 218.52708Q543.1375 217.83958 543.1375 216.82396Q543.1375 215.85521 542.4969 215.23021Q541.8719 214.60521 540.8875 214.60521Q540.4969 214.60521 539.90314 214.76146L540.0594 213.52708Q540.2 213.54271 540.27814 213.54271Q541.1844 213.54271 541.90314 213.07396Q542.6219 212.60521 542.6219 211.62083Q542.6219 210.85521 542.09064 210.35521Q541.575 209.83958 540.7469 209.83958Q539.91876 209.83958 539.3719 210.35521Q538.825 210.87083 538.66876 211.90208L537.2625 211.65208Q537.52814 210.23021 538.4344 209.46458Q539.35626 208.68333 540.71564 208.68333Q541.65314 208.68333 542.4344 209.08958Q543.23126 209.48021 543.6375 210.18333Q544.0594 210.87083 544.0594 211.65208Q544.0594 212.40208 543.65314 213.01146Q543.2625 213.62083 542.48126 213.98021Q543.4969 214.21458 544.0594 214.94896Q544.6219 215.68333 544.6219 216.79271Q544.6219 218.29271 543.52814 219.33958Q542.4344 220.38646 540.7625 220.38646Q539.2625 220.38646 538.2625 219.49583Q537.2625 218.58958 537.1219 217.15208ZM546.1219 214.52708Q546.1219 212.49583 546.52814 211.26146Q546.95 210.02708 547.77814 209.35521Q548.60626 208.68333 549.85626 208.68333Q550.77814 208.68333 551.46564 209.05833Q552.16876 209.41771 552.6219 210.12083Q553.075 210.82396 553.325 211.82396Q553.59064 212.82396 553.59064 214.52708Q553.59064 216.54271 553.16876 217.79271Q552.7625 219.02708 551.9344 219.71458Q551.10626 220.38646 549.85626 220.38646Q548.2 220.38646 547.2469 219.18333Q546.1219 217.76146 546.1219 214.52708ZM547.5594 214.52708Q547.5594 217.35521 548.21564 218.29271Q548.8875 219.21458 549.85626 219.21458Q550.825 219.21458 551.48126 218.27708Q552.1375 217.33958 552.1375 214.52708Q552.1375 211.69896 551.48126 210.77708Q550.825 209.83958 549.84064 209.83958Q548.8719 209.83958 548.29376 210.66771Q547.5594 211.71458 547.5594 214.52708ZM555.90314 220.18333L555.90314 218.57396L557.5125 218.57396L557.5125 220.18333L555.90314 220.18333ZM559.1219 214.52708Q559.1219 212.49583 559.52814 211.26146Q559.95 210.02708 560.77814 209.35521Q561.60626 208.68333 562.85626 208.68333Q563.77814 208.68333 564.46564 209.05833Q565.16876 209.41771 565.6219 210.12083Q566.075 210.82396 566.325 211.82396Q566.59064 212.82396 566.59064 214.52708Q566.59064 216.54271 566.16876 217.79271Q565.7625 219.02708 564.9344 219.71458Q564.10626 220.38646 562.85626 220.38646Q561.2 220.38646 560.2469 219.18333Q559.1219 217.76146 559.1219 214.52708ZM560.5594 214.52708Q560.5594 217.35521 561.21564 218.29271Q561.8875 219.21458 562.85626 219.21458Q563.825 219.21458 564.48126 218.27708Q565.1375 217.33958 565.1375 214.52708Q565.1375 211.69896 564.48126 210.77708Q563.825 209.83958 562.84064 209.83958Q561.8719 209.83958 561.29376 210.66771Q560.5594 211.71458 560.5594 214.52708ZM568.3875 211.48021Q568.3875 210.24583 568.9969 209.38646Q569.6219 208.52708 570.79376 208.52708Q571.8719 208.52708 572.575 209.30833Q573.27814 210.07396 573.27814 211.55833Q573.27814 213.01146 572.5594 213.80833Q571.85626 214.58958 570.8094 214.58958Q569.7625 214.58958 569.075 213.82396Q568.3875 213.04271 568.3875 211.48021ZM570.825 209.49583Q570.3094 209.49583 569.95 209.94896Q569.60626 210.40208 569.60626 211.62083Q569.60626 212.71458 569.95 213.16771Q570.3094 213.62083 570.825 213.62083Q571.35626 213.62083 571.7 213.16771Q572.0594 212.71458 572.0594 211.51146Q572.0594 210.40208 571.7 209.94896Q571.35626 209.49583 570.825 209.49583ZM570.84064 220.60521L577.10626 208.52708L578.2469 208.52708L571.9969 220.60521L570.84064 220.60521ZM575.79376 217.49583Q575.79376 216.26146 576.40314 215.40208Q577.02814 214.54271 578.2 214.54271Q579.27814 214.54271 579.98126 215.32396Q580.7 216.08958 580.7 217.57396Q580.7 219.02708 579.98126 219.82396Q579.2625 220.60521 578.21564 220.60521Q577.16876 220.60521 576.48126 219.82396Q575.79376 219.04271 575.79376 217.49583ZM578.2469 215.51146Q577.71564 215.51146 577.35626 215.96458Q577.0125 216.41771 577.0125 217.63646Q577.0125 218.73021 577.35626 219.18333Q577.71564 219.63646 578.23126 219.63646Q578.77814 219.63646 579.1219 219.18333Q579.46564 218.73021 579.46564 217.52708Q579.46564 216.41771 579.10626 215.96458Q578.7625 215.51146 578.2469 215.51146Z" fill-rule="nonzero"/><path stroke="#757575" stroke-width="1.0" stroke-linecap="butt" d="M581.45 203.68333L454.76666 203.68333L441.32834 203.68333" fill-rule="nonzero"/><path fill="#9e9e9e" d="M443.32834 203.68333C443.32834 202.57877 442.4329 201.68333 441.32834 201.68333C440.22375 201.68333 439.32834 202.57877 439.32834 203.68333C439.32834 204.7879 440.22375 205.68333 441.32834 205.68333C442.4329 205.68333 443.32834 204.7879 443.32834 203.68333" fill-rule="nonzero"/><path fill="#efefef" d="M456.71564 326.45L456.71564 314.9969L464.9969 314.9969L464.9969 316.34064L458.23126 316.34064L458.23126 319.85626L464.575 319.85626L464.575 321.2L458.23126 321.2L458.23126 325.09064L465.2625 325.09064L465.2625 326.45L456.71564 326.45ZM472.91876 323.40314L474.3094 323.59064Q474.075 325.0125 473.1375 325.825Q472.21564 326.6375 470.85626 326.6375Q469.15314 326.6375 468.10626 325.52814Q467.075 324.40314 467.075 322.325Q467.075 320.98126 467.5125 319.98126Q467.96564 318.96564 468.8719 318.46564Q469.79376 317.96564 470.85626 317.96564Q472.21564 317.96564 473.075 318.65314Q473.9344 319.325 474.16876 320.59064L472.8094 320.79376Q472.60626 319.96564 472.10626 319.54376Q471.6219 319.1219 470.91876 319.1219Q469.85626 319.1219 469.1844 319.8875Q468.52814 320.6375 468.52814 322.29376Q468.52814 323.96564 469.16876 324.73126Q469.8094 325.48126 470.84064 325.48126Q471.66876 325.48126 472.21564 324.98126Q472.77814 324.46564 472.91876 323.40314ZM474.98126 322.29376Q474.98126 319.9969 476.2625 318.8875Q477.34064 317.96564 478.8719 317.96564Q480.59064 317.96564 481.66876 319.09064Q482.7625 320.2 482.7625 322.1844Q482.7625 323.77814 482.27814 324.7Q481.79376 325.6219 480.8719 326.1375Q479.96564 326.6375 478.8719 326.6375Q477.1375 326.6375 476.0594 325.52814Q474.98126 324.40314 474.98126 322.29376ZM476.4344 322.29376Q476.4344 323.8875 477.1219 324.6844Q477.825 325.48126 478.8719 325.48126Q479.91876 325.48126 480.60626 324.6844Q481.3094 323.8875 481.3094 322.2469Q481.3094 320.71564 480.60626 319.91876Q479.91876 319.1219 478.8719 319.1219Q477.825 319.1219 477.1219 319.91876Q476.4344 320.7 476.4344 322.29376ZM484.5125 326.45L484.5125 318.15314L485.77814 318.15314L485.77814 319.325Q486.6844 317.96564 488.41876 317.96564Q489.16876 317.96564 489.79376 318.23126Q490.41876 318.4969 490.73126 318.9344Q491.04376 319.3719 491.16876 319.98126Q491.2469 320.3719 491.2469 321.34064L491.2469 326.45L489.84064 326.45L489.84064 321.40314Q489.84064 320.54376 489.66876 320.1219Q489.5125 319.6844 489.09064 319.4344Q488.6844 319.1844 488.1219 319.1844Q487.21564 319.1844 486.5594 319.7625Q485.91876 320.325 485.91876 321.91876L485.91876 326.45L484.5125 326.45ZM492.98126 322.29376Q492.98126 319.9969 494.2625 318.8875Q495.34064 317.96564 496.8719 317.96564Q498.59064 317.96564 499.66876 319.09064Q500.7625 320.2 500.7625 322.1844Q500.7625 323.77814 500.27814 324.7Q499.79376 325.6219 498.8719 326.1375Q497.96564 326.6375 496.8719 326.6375Q495.1375 326.6375 494.0594 325.52814Q492.98126 324.40314 492.98126 322.29376ZM494.4344 322.29376Q494.4344 323.8875 495.1219 324.6844Q495.825 325.48126 496.8719 325.48126Q497.91876 325.48126 498.60626 324.6844Q499.3094 323.8875 499.3094 322.2469Q499.3094 320.71564 498.60626 319.91876Q497.91876 319.1219 496.8719 319.1219Q495.825 319.1219 495.1219 319.91876Q494.4344 320.7 494.4344 322.29376ZM502.5125 326.45L502.5125 318.15314L503.7625 318.15314L503.7625 319.3094Q504.15314 318.7 504.79376 318.34064Q505.45 317.96564 506.27814 317.96564Q507.2 317.96564 507.79376 318.35626Q508.3875 318.73126 508.6219 319.41876Q509.60626 317.96564 511.1844 317.96564Q512.41876 317.96564 513.075 318.65314Q513.7469 319.325 513.7469 320.7469L513.7469 326.45L512.35626 326.45L512.35626 321.21564Q512.35626 320.3719 512.21564 320.0125Q512.075 319.6375 511.71564 319.41876Q511.35626 319.1844 510.8719 319.1844Q509.9969 319.1844 509.41876 319.7625Q508.84064 320.34064 508.84064 321.6219L508.84064 326.45L507.4344 326.45L507.4344 321.0594Q507.4344 320.1219 507.09064 319.65314Q506.7469 319.1844 505.96564 319.1844Q505.3719 319.1844 504.8719 319.4969Q504.3719 319.8094 504.1375 320.41876Q503.91876 321.0125 503.91876 322.1375L503.91876 326.45L502.5125 326.45ZM515.5125 316.60626L515.5125 314.9969L516.91876 314.9969L516.91876 316.60626L515.5125 316.60626ZM515.5125 326.45L515.5125 318.15314L516.91876 318.15314L516.91876 326.45L515.5125 326.45ZM524.91876 323.40314L526.3094 323.59064Q526.075 325.0125 525.1375 325.825Q524.21564 326.6375 522.85626 326.6375Q521.15314 326.6375 520.10626 325.52814Q519.075 324.40314 519.075 322.325Q519.075 320.98126 519.5125 319.98126Q519.96564 318.96564 520.8719 318.46564Q521.79376 317.96564 522.85626 317.96564Q524.21564 317.96564 525.075 318.65314Q525.9344 319.325 526.16876 320.59064L524.8094 320.79376Q524.60626 319.96564 524.10626 319.54376Q523.6219 319.1219 522.91876 319.1219Q521.85626 319.1219 521.1844 319.8875Q520.52814 320.6375 520.52814 322.29376Q520.52814 323.96564 521.16876 324.73126Q521.8094 325.48126 522.84064 325.48126Q523.66876 325.48126 524.21564 324.98126Q524.77814 324.46564 524.91876 323.40314ZM530.41876 326.45L534.825 314.9969L536.46564 314.9969L541.15314 326.45L539.41876 326.45L538.09064 322.98126L533.29376 322.98126L532.04376 326.45L530.41876 326.45ZM533.73126 321.7469L537.6219 321.7469L536.41876 318.575Q535.8719 317.1219 535.60626 316.2Q535.3875 317.29376 534.9969 318.3875L533.73126 321.7469ZM547.91876 323.40314L549.3094 323.59064Q549.075 325.0125 548.1375 325.825Q547.21564 326.6375 545.85626 326.6375Q544.15314 326.6375 543.10626 325.52814Q542.075 324.40314 542.075 322.325Q542.075 320.98126 542.5125 319.98126Q542.96564 318.96564 543.8719 318.46564Q544.79376 317.96564 545.85626 317.96564Q547.21564 317.96564 548.075 318.65314Q548.9344 319.325 549.16876 320.59064L547.8094 320.79376Q547.60626 319.96564 547.10626 319.54376Q546.6219 319.1219 545.91876 319.1219Q544.85626 319.1219 544.1844 319.8875Q543.52814 320.6375 543.52814 322.29376Q543.52814 323.96564 544.16876 324.73126Q544.8094 325.48126 545.84064 325.48126Q546.66876 325.48126 547.21564 324.98126Q547.77814 324.46564 547.91876 323.40314ZM553.575 325.1844L553.77814 326.4344Q553.1844 326.5594 552.71564 326.5594Q551.95 326.5594 551.52814 326.325Q551.10626 326.075 550.9344 325.6844Q550.7625 325.27814 550.7625 324.0125L550.7625 319.2469L549.73126 319.2469L549.73126 318.15314L550.7625 318.15314L550.7625 316.09064L552.16876 315.2469L552.16876 318.15314L553.575 318.15314L553.575 319.2469L552.16876 319.2469L552.16876 324.09064Q552.16876 324.7 552.23126 324.8719Q552.3094 325.04376 552.48126 325.15314Q552.65314 325.2469 552.96564 325.2469Q553.2 325.2469 553.575 325.1844ZM554.5125 316.60626L554.5125 314.9969L555.91876 314.9969L555.91876 316.60626L554.5125 316.60626ZM554.5125 326.45L554.5125 318.15314L555.91876 318.15314L555.91876 326.45L554.5125 326.45ZM560.8094 326.45L557.65314 318.15314L559.1375 318.15314L560.91876 323.1219Q561.21564 323.91876 561.45 324.79376Q561.6375 324.1375 561.98126 323.21564L563.825 318.15314L565.2625 318.15314L562.1219 326.45L560.8094 326.45ZM566.5125 316.60626L566.5125 314.9969L567.91876 314.9969L567.91876 316.60626L566.5125 316.60626ZM566.5125 326.45L566.5125 318.15314L567.91876 318.15314L567.91876 326.45L566.5125 326.45ZM573.575 325.1844L573.77814 326.4344Q573.1844 326.5594 572.71564 326.5594Q571.95 326.5594 571.52814 326.325Q571.10626 326.075 570.9344 325.6844Q570.7625 325.27814 570.7625 324.0125L570.7625 319.2469L569.73126 319.2469L569.73126 318.15314L570.7625 318.15314L570.7625 316.09064L572.16876 315.2469L572.16876 318.15314L573.575 318.15314L573.575 319.2469L572.16876 319.2469L572.16876 324.09064Q572.16876 324.7 572.23126 324.8719Q572.3094 325.04376 572.48126 325.15314Q572.65314 325.2469 572.96564 325.2469Q573.2 325.2469 573.575 325.1844ZM574.45 329.65314L574.29376 328.325Q574.7469 328.45 575.09064 328.45Q575.5594 328.45 575.84064 328.29376Q576.1219 328.1375 576.3094 327.85626Q576.4344 327.65314 576.73126 326.8094Q576.77814 326.7 576.85626 326.46564L573.71564 318.15314L575.23126 318.15314L576.95 322.95Q577.29376 323.8719 577.5594 324.8719Q577.79376 323.90314 578.1375 322.98126L579.90314 318.15314L581.3094 318.15314L578.15314 326.59064Q577.65314 327.96564 577.3719 328.48126Q576.9969 329.16876 576.5125 329.4969Q576.02814 329.825 575.35626 329.825Q574.95 329.825 574.45 329.65314Z" fill-rule="nonzero"/><path fill="#9e9e9e" d="M542.41876 348.45L541.0125 348.45L541.0125 339.48126Q540.4969 339.96564 539.66876 340.45Q538.85626 340.9344 538.2 341.1844L538.2 339.825Q539.3719 339.2625 540.2469 338.48126Q541.1375 337.6844 541.5125 336.95L542.41876 336.95L542.41876 348.45ZM546.1219 342.79376Q546.1219 340.7625 546.52814 339.52814Q546.95 338.29376 547.77814 337.6219Q548.60626 336.95 549.85626 336.95Q550.77814 336.95 551.46564 337.325Q552.16876 337.6844 552.6219 338.3875Q553.075 339.09064 553.325 340.09064Q553.59064 341.09064 553.59064 342.79376Q553.59064 344.8094 553.16876 346.0594Q552.7625 347.29376 551.9344 347.98126Q551.10626 348.65314 549.85626 348.65314Q548.2 348.65314 547.2469 347.45Q546.1219 346.02814 546.1219 342.79376ZM547.5594 342.79376Q547.5594 345.6219 548.21564 346.5594Q548.8875 347.48126 549.85626 347.48126Q550.825 347.48126 551.48126 346.54376Q552.1375 345.60626 552.1375 342.79376Q552.1375 339.96564 551.48126 339.04376Q550.825 338.10626 549.84064 338.10626Q548.8719 338.10626 548.29376 338.9344Q547.5594 339.98126 547.5594 342.79376ZM555.90314 348.45L555.90314 346.84064L557.5125 346.84064L557.5125 348.45L555.90314 348.45ZM559.1219 342.79376Q559.1219 340.7625 559.52814 339.52814Q559.95 338.29376 560.77814 337.6219Q561.60626 336.95 562.85626 336.95Q563.77814 336.95 564.46564 337.325Q565.16876 337.6844 565.6219 338.3875Q566.075 339.09064 566.325 340.09064Q566.59064 341.09064 566.59064 342.79376Q566.59064 344.8094 566.16876 346.0594Q565.7625 347.29376 564.9344 347.98126Q564.10626 348.65314 562.85626 348.65314Q561.2 348.65314 560.2469 347.45Q559.1219 346.02814 559.1219 342.79376ZM560.5594 342.79376Q560.5594 345.6219 561.21564 346.5594Q561.8875 347.48126 562.85626 347.48126Q563.825 347.48126 564.48126 346.54376Q565.1375 345.60626 565.1375 342.79376Q565.1375 339.96564 564.48126 339.04376Q563.825 338.10626 562.84064 338.10626Q561.8719 338.10626 561.29376 338.9344Q560.5594 339.98126 560.5594 342.79376ZM568.3875 339.7469Q568.3875 338.5125 568.9969 337.65314Q569.6219 336.79376 570.79376 336.79376Q571.8719 336.79376 572.575 337.575Q573.27814 338.34064 573.27814 339.825Q573.27814 341.27814 572.5594 342.075Q571.85626 342.85626 570.8094 342.85626Q569.7625 342.85626 569.075 342.09064Q568.3875 341.3094 568.3875 339.7469ZM570.825 337.7625Q570.3094 337.7625 569.95 338.21564Q569.60626 338.66876 569.60626 339.8875Q569.60626 340.98126 569.95 341.4344Q570.3094 341.8875 570.825 341.8875Q571.35626 341.8875 571.7 341.4344Q572.0594 340.98126 572.0594 339.77814Q572.0594 338.66876 571.7 338.21564Q571.35626 337.7625 570.825 337.7625ZM570.84064 348.8719L577.10626 336.79376L578.2469 336.79376L571.9969 348.8719L570.84064 348.8719ZM575.79376 345.7625Q575.79376 344.52814 576.40314 343.66876Q577.02814 342.8094 578.2 342.8094Q579.27814 342.8094 579.98126 343.59064Q580.7 344.35626 580.7 345.84064Q580.7 347.29376 579.98126 348.09064Q579.2625 348.8719 578.21564 348.8719Q577.16876 348.8719 576.48126 348.09064Q575.79376 347.3094 575.79376 345.7625ZM578.2469 343.77814Q577.71564 343.77814 577.35626 344.23126Q577.0125 344.6844 577.0125 345.90314Q577.0125 346.9969 577.35626 347.45Q577.71564 347.90314 578.23126 347.90314Q578.77814 347.90314 579.1219 347.45Q579.46564 346.9969 579.46564 345.79376Q579.46564 344.6844 579.10626 344.23126Q578.7625 343.77814 578.2469 343.77814Z" fill-rule="nonzero"/><path stroke="#757575" stroke-width="1.0" stroke-linecap="butt" d="M581.45 331.95L454.76666 331.95L343.67285 338.09457" fill-rule="nonzero"/><path fill="#9e9e9e" d="M345.67285 338.09457C345.67285 336.99 344.77744 336.09457 343.67285 336.09457C342.5683 336.09457 341.67285 336.99 341.67285 338.09457C341.67285 339.19913 342.5683 340.09457 343.67285 340.09457C344.77744 340.09457 345.67285 339.19913 345.67285 338.09457" fill-rule="nonzero"/><path fill="#f3f3f3" d="M271.26562 32.534374L273.15625 33.003124Q272.5625 35.346874 271.01562 36.58125Q269.46875 37.8 267.21875 37.8Q264.90625 37.8 263.45312 36.8625Q262.01562 35.909374 261.25 34.128124Q260.5 32.33125 260.5 30.284374Q260.5 28.05 261.34375 26.39375Q262.20312 24.721874 263.78125 23.8625Q265.35938 22.9875 267.25 22.9875Q269.40625 22.9875 270.85938 24.08125Q272.32812 25.175 272.90625 27.159374L271.04688 27.596874Q270.54688 26.034374 269.59375 25.33125Q268.65625 24.6125 267.21875 24.6125Q265.5625 24.6125 264.45312 25.409374Q263.34375 26.190624 262.89062 27.534374Q262.45312 28.8625 262.45312 30.26875Q262.45312 32.096874 262.98438 33.471874Q263.51562 34.83125 264.64062 35.503124Q265.76562 36.175 267.0625 36.175Q268.65625 36.175 269.76562 35.253124Q270.875 34.33125 271.26562 32.534374ZM281.59375 36.26875Q280.60938 37.096874 279.70312 37.440624Q278.79688 37.784374 277.76562 37.784374Q276.0625 37.784374 275.14062 36.95625Q274.21875 36.1125 274.21875 34.815624Q274.21875 34.05 274.5625 33.425Q274.92188 32.8 275.48438 32.425Q276.04688 32.034374 276.75 31.83125Q277.26562 31.70625 278.3125 31.565624Q280.4375 31.315624 281.4375 30.971874Q281.45312 30.6125 281.45312 30.503124Q281.45312 29.440624 280.95312 28.9875Q280.28125 28.39375 278.95312 28.39375Q277.70312 28.39375 277.10938 28.83125Q276.53125 29.26875 276.25 30.378124L274.53125 30.14375Q274.76562 29.034374 275.29688 28.3625Q275.82812 27.675 276.84375 27.315624Q277.85938 26.940624 279.20312 26.940624Q280.53125 26.940624 281.35938 27.253124Q282.1875 27.565624 282.57812 28.05Q282.96875 28.51875 283.125 29.2375Q283.21875 29.690624 283.21875 30.8625L283.21875 33.20625Q283.21875 35.659374 283.32812 36.315624Q283.4375 36.95625 283.78125 37.55L281.9375 37.55Q281.67188 37.003124 281.59375 36.26875ZM281.4375 32.346874Q280.48438 32.7375 278.5625 33.003124Q277.48438 33.159374 277.03125 33.3625Q276.59375 33.55 276.34375 33.925Q276.09375 34.3 276.09375 34.76875Q276.09375 35.471874 276.625 35.940624Q277.15625 36.409374 278.1875 36.409374Q279.20312 36.409374 279.98438 35.971874Q280.78125 35.51875 281.15625 34.753124Q281.4375 34.14375 281.4375 32.9875L281.4375 32.346874ZM289.65625 35.971874L289.90625 37.534374Q289.17188 37.690624 288.57812 37.690624Q287.625 37.690624 287.09375 37.39375Q286.57812 37.08125 286.35938 36.596874Q286.14062 36.096874 286.14062 34.51875L286.14062 28.55L284.85938 28.55L284.85938 27.175L286.14062 27.175L286.14062 24.6125L287.89062 23.55L287.89062 27.175L289.65625 27.175L289.65625 28.55L287.89062 28.55L287.89062 34.6125Q287.89062 35.3625 287.98438 35.58125Q288.07812 35.784374 288.28125 35.925Q288.5 36.05 288.89062 36.05Q289.17188 36.05 289.65625 35.971874ZM298.92188 34.20625L300.73438 34.440624Q300.3125 36.01875 299.14062 36.909374Q297.98438 37.784374 296.17188 37.784374Q293.90625 37.784374 292.5625 36.39375Q291.23438 34.9875 291.23438 32.45625Q291.23438 29.83125 292.57812 28.39375Q293.92188 26.940624 296.07812 26.940624Q298.15625 26.940624 299.46875 28.3625Q300.79688 29.76875 300.79688 32.346874Q300.79688 32.503124 300.78125 32.815624L293.04688 32.815624Q293.14062 34.51875 294.01562 35.425Q294.89062 36.33125 296.1875 36.33125Q297.15625 36.33125 297.82812 35.83125Q298.51562 35.315624 298.92188 34.20625ZM293.14062 31.3625L298.9375 31.3625Q298.82812 30.065624 298.28125 29.409374Q297.4375 28.39375 296.09375 28.39375Q294.89062 28.39375 294.0625 29.20625Q293.23438 30.003124 293.14062 31.3625ZM302.5 38.409374L304.20312 38.659374Q304.3125 39.45625 304.79688 39.815624Q305.45312 40.3 306.59375 40.3Q307.8125 40.3 308.46875 39.815624Q309.14062 39.33125 309.375 38.45625Q309.51562 37.909374 309.5 36.190624Q308.34375 37.55 306.625 37.55Q304.48438 37.55 303.3125 36.003124Q302.14062 34.45625 302.14062 32.3Q302.14062 30.815624 302.67188 29.565624Q303.21875 28.315624 304.23438 27.628124Q305.26562 26.940624 306.64062 26.940624Q308.46875 26.940624 309.67188 28.425L309.67188 27.175L311.28125 27.175L311.28125 36.14375Q311.28125 38.565624 310.78125 39.565624Q310.29688 40.58125 309.21875 41.159374Q308.15625 41.753124 306.59375 41.753124Q304.75 41.753124 303.59375 40.925Q302.45312 40.096874 302.5 38.409374ZM303.95312 32.175Q303.95312 34.221874 304.76562 35.159374Q305.57812 36.096874 306.79688 36.096874Q308.0 36.096874 308.8125 35.159374Q309.64062 34.221874 309.64062 32.2375Q309.64062 30.33125 308.79688 29.3625Q307.95312 28.39375 306.76562 28.39375Q305.59375 28.39375 304.76562 29.346874Q303.95312 30.3 303.95312 32.175ZM313.17188 32.3625Q313.17188 29.4875 314.76562 28.096874Q316.10938 26.940624 318.03125 26.940624Q320.17188 26.940624 321.51562 28.346874Q322.875 29.753124 322.875 32.221874Q322.875 34.221874 322.28125 35.378124Q321.6875 36.51875 320.53125 37.159374Q319.39062 37.784374 318.03125 37.784374Q315.84375 37.784374 314.5 36.39375Q313.17188 34.9875 313.17188 32.3625ZM314.96875 32.3625Q314.96875 34.3625 315.82812 35.346874Q316.70312 36.33125 318.03125 36.33125Q319.34375 36.33125 320.20312 35.346874Q321.07812 34.346874 321.07812 32.3Q321.07812 30.378124 320.20312 29.39375Q319.32812 28.39375 318.03125 28.39375Q316.70312 28.39375 315.82812 29.39375Q314.96875 30.378124 314.96875 32.3625ZM324.79688 37.55L324.79688 27.175L326.375 27.175L326.375 28.753124Q326.98438 27.64375 327.5 27.3Q328.01562 26.940624 328.625 26.940624Q329.51562 26.940624 330.4375 27.503124L329.82812 29.14375Q329.1875 28.753124 328.54688 28.753124Q327.96875 28.753124 327.5 29.1125Q327.04688 29.45625 326.84375 30.065624Q326.5625 31.003124 326.5625 32.1125L326.5625 37.55L324.79688 37.55ZM331.73438 41.55L331.54688 39.89375Q332.125 40.05 332.54688 40.05Q333.14062 40.05 333.48438 39.846874Q333.84375 39.659374 334.0625 39.315624Q334.23438 39.05 334.60938 38.003124Q334.65625 37.846874 334.76562 37.565624L330.82812 27.175L332.71875 27.175L334.875 33.190624Q335.29688 34.33125 335.625 35.58125Q335.9375 34.378124 336.34375 33.221874L338.5625 27.175L340.32812 27.175L336.375 37.721874Q335.75 39.440624 335.39062 40.08125Q334.92188 40.95625 334.3125 41.346874Q333.71875 41.753124 332.875 41.753124Q332.35938 41.753124 331.73438 41.55Z" fill-rule="nonzero"/></svg>