<svg version="1.1" viewBox="0.0 0.0 600.0 371.0" fill="none" stroke="none" stroke-linecap="square" stroke-miterlimit="10" width="600" height="371" xmlns:xlink="http://www.w3.org/1999/xlink" xmlns="http://www.w3.org/2000/svg"><path fill="#ffffff" fill-opacity="0.0" d="M0 0L600.0 0L600.0 371.0L0 371.0L0 0Z" fill-rule="nonzero"/><path fill="#313d89" d="M300.0 54.916668C326.114 54.916668 351.76794 61.79062 374.38333 74.84762L318.59583 171.47441C312.942 168.21016 306.5285 166.49167 300.0 166.49167Z" fill-rule="nonzero"/><path fill="#533990" d="M374.38333 74.84762C445.53732 115.9284 469.9165 206.91267 428.83572 278.06668L332.20892 222.27916C342.47913 204.49066 336.38434 181.7446 318.59583 171.47441Z" fill-rule="nonzero"/><path fill="#b5428d" d="M428.83572 278.06668C415.77872 300.68207 396.99872 319.46204 374.38333 332.51904L318.59583 235.89226C324.2497 232.628 328.94467 227.93301 332.20892 222.27916Z" fill-rule="nonzero"/><path fill="#e5a345" d="M151.23334 203.68333C151.23334 121.521774 217.83844 54.916668 300.0 54.916668L300.0 166.49167C279.4596 166.49167 262.80832 183.14294 262.80832 203.68333Z" fill-rule="nonzero"/><path fill="#df8d43" d="M171.16429 278.06668C158.10728 255.45128 151.23334 229.79733 151.23334 203.68333L262.80832 203.68333C262.80832 210.21184 264.52682 216.62532 267.79108 222.27916Z" fill-rule="nonzero"/><path fill="#cf4366" d="M374.38333 332.51904C303.22934 373.59982 212.24507 349.22067 171.16429 278.06668L267.79108 222.27916C278.06128 240.06767 300.80734 246.16246 318.59583 235.89226Z" fill-rule="nonzero"/><path fill="#ffffff" d="M311.8086 94.51758Q310.82422 94.1582 310.33984 93.48633Q309.8711 92.81445 309.8711 91.89258Q309.8711 90.48633 310.8711 89.5332Q311.88672 88.56445 313.57422 88.56445Q315.26172 88.56445 316.27734 89.54883Q317.3086 90.51758 317.3086 91.92383Q317.3086 92.83008 316.83984 93.50195Q316.3711 94.1582 315.41797 94.51758Q316.60547 94.9082 317.21484 95.76758Q317.83984 96.62695 317.83984 97.81445Q317.83984 99.4707 316.66797 100.5957Q315.4961 101.7207 313.58984 101.7207Q311.6836 101.7207 310.51172 100.5957Q309.35547 99.45508 309.35547 97.76758Q309.35547 96.51758 309.98047 95.67383Q310.6211 94.81445 311.8086 94.51758ZM311.48047 91.83008Q311.48047 92.75195 312.07422 93.33008Q312.66797 93.9082 313.60547 93.9082Q314.51172 93.9082 315.08984 93.33008Q315.6836 92.75195 315.6836 91.92383Q315.6836 91.04883 315.07422 90.45508Q314.48047 89.86133 313.58984 89.86133Q312.6836 89.86133 312.07422 90.43945Q311.48047 91.01758 311.48047 91.83008ZM310.98047 97.7832Q310.98047 98.45508 311.29297 99.0957Q311.6211 99.7207 312.2461 100.08008Q312.88672 100.42383 313.6211 100.42383Q314.7461 100.42383 315.48047 99.68945Q316.23047 98.95508 316.23047 97.83008Q316.23047 96.68945 315.46484 95.95508Q314.69922 95.20508 313.5586 95.20508Q312.44922 95.20508 311.71484 95.93945Q310.98047 96.67383 310.98047 97.7832ZM320.26172 101.50195L320.26172 99.70508L322.0586 99.70508L322.0586 101.50195L320.26172 101.50195ZM324.3711 98.0957L325.96484 97.89258Q326.23047 99.23633 326.88672 99.83008Q327.54297 100.42383 328.48047 100.42383Q329.60547 100.42383 330.3711 99.6582Q331.13672 98.87695 331.13672 97.73633Q331.13672 96.64258 330.41797 95.93945Q329.71484 95.2207 328.6211 95.2207Q328.16797 95.2207 327.4961 95.4082L327.66797 94.01758Q327.82422 94.0332 327.9336 94.0332Q328.9336 94.0332 329.7461 93.50195Q330.5586 92.9707 330.5586 91.87695Q330.5586 91.00195 329.96484 90.43945Q329.3711 89.86133 328.44922 89.86133Q327.52734 89.86133 326.90234 90.43945Q326.29297 91.01758 326.1211 92.18945L324.54297 91.9082Q324.82422 90.31445 325.85547 89.43945Q326.88672 88.56445 328.41797 88.56445Q329.46484 88.56445 330.35547 89.01758Q331.2461 89.4707 331.71484 90.25195Q332.1836 91.0332 332.1836 91.9082Q332.1836 92.75195 331.73047 93.43945Q331.29297 94.11133 330.40234 94.51758Q331.54297 94.7832 332.16797 95.62695Q332.8086 96.45508 332.8086 97.68945Q332.8086 99.37695 331.57422 100.56445Q330.35547 101.73633 328.48047 101.73633Q326.77734 101.73633 325.65234 100.7207Q324.54297 99.70508 324.3711 98.0957ZM334.66797 91.70508Q334.66797 90.33008 335.35547 89.36133Q336.0586 88.39258 337.3711 88.39258Q338.58984 88.39258 339.38672 89.26758Q340.1836 90.12695 340.1836 91.81445Q340.1836 93.43945 339.3711 94.33008Q338.57422 95.20508 337.38672 95.20508Q336.23047 95.20508 335.44922 94.3457Q334.66797 93.4707 334.66797 91.70508ZM337.41797 89.48633Q336.82422 89.48633 336.4336 90.00195Q336.04297 90.50195 336.04297 91.86133Q336.04297 93.11133 336.4336 93.61133Q336.83984 94.11133 337.41797 94.11133Q338.01172 94.11133 338.40234 93.61133Q338.79297 93.0957 338.79297 91.75195Q338.79297 90.50195 338.40234 90.00195Q338.01172 89.48633 337.41797 89.48633ZM337.4336 101.9707L344.48047 88.39258L345.76172 88.39258L338.73047 101.9707L337.4336 101.9707ZM342.9961 98.4707Q342.9961 97.0957 343.6836 96.12695Q344.38672 95.1582 345.71484 95.1582Q346.9336 95.1582 347.71484 96.0332Q348.51172 96.89258 348.51172 98.58008Q348.51172 100.20508 347.71484 101.0957Q346.91797 101.9707 345.73047 101.9707Q344.5586 101.9707 343.77734 101.0957Q342.9961 100.2207 342.9961 98.4707ZM345.76172 96.25195Q345.16797 96.25195 344.77734 96.76758Q344.38672 97.26758 344.38672 98.64258Q344.38672 99.86133 344.77734 100.37695Q345.16797 100.89258 345.7461 100.89258Q346.35547 100.89258 346.7461 100.37695Q347.13672 99.86133 347.13672 98.51758Q347.13672 97.26758 346.7461 96.76758Q346.35547 96.25195 345.76172 96.25195Z" fill-rule="nonzero"/><path fill="#ffffff" d="M382.6006 182.13054L382.6006 183.64616L374.08496 183.64616Q374.06934 183.06804 374.27246 182.55241Q374.6006 181.67741 375.3037 180.83366Q376.02246 179.98991 377.38184 178.88054Q379.4756 177.16179 380.20996 176.16179Q380.95996 175.14616 380.95996 174.25554Q380.95996 173.30241 380.2881 172.66179Q379.6162 172.02116 378.5381 172.02116Q377.38184 172.02116 376.69434 172.70866Q376.02246 173.39616 376.00684 174.59929L374.38184 174.42741Q374.5537 172.61491 375.63184 171.66179Q376.7256 170.70866 378.56934 170.70866Q380.4131 170.70866 381.4912 171.73991Q382.58496 172.77116 382.58496 174.28679Q382.58496 175.05241 382.25684 175.80241Q381.94434 176.55241 381.20996 177.38054Q380.4756 178.20866 378.77246 179.64616Q377.3506 180.84929 376.94434 181.27116Q376.5381 181.69304 376.2881 182.13054L382.6006 182.13054ZM384.2881 180.27116L385.94434 180.13054Q386.13184 181.34929 386.8037 181.95866Q387.4756 182.56804 388.4287 182.56804Q389.56934 182.56804 390.3506 181.70866Q391.14746 180.84929 391.14746 179.41179Q391.14746 178.06804 390.38184 177.28679Q389.63184 176.50554 388.39746 176.50554Q387.63184 176.50554 387.00684 176.84929Q386.39746 177.19304 386.0537 177.75554L384.56934 177.55241L385.81934 170.94304L392.2256 170.94304L392.2256 172.44304L387.08496 172.44304L386.38184 175.91179Q387.5537 175.09929 388.81934 175.09929Q390.50684 175.09929 391.6631 176.27116Q392.83496 177.44304 392.83496 179.27116Q392.83496 181.02116 391.8037 182.30241Q390.56934 183.86491 388.4287 183.86491Q386.6631 183.86491 385.5537 182.88054Q384.44434 181.89616 384.2881 180.27116ZM395.1787 183.64616L395.1787 181.84929L396.9756 181.84929L396.9756 183.64616L395.1787 183.64616ZM399.2881 177.28679Q399.2881 175.00554 399.75684 173.61491Q400.2256 172.22429 401.14746 171.47429Q402.08496 170.70866 403.4912 170.70866Q404.52246 170.70866 405.3037 171.13054Q406.08496 171.53679 406.58496 172.33366Q407.1006 173.11491 407.39746 174.25554Q407.69434 175.38054 407.69434 177.28679Q407.69434 179.55241 407.2256 180.95866Q406.75684 182.34929 405.81934 183.11491Q404.89746 183.86491 403.4912 183.86491Q401.6162 183.86491 400.5537 182.53679Q399.2881 180.92741 399.2881 177.28679ZM400.9131 177.28679Q400.9131 180.45866 401.64746 181.52116Q402.39746 182.56804 403.4912 182.56804Q404.56934 182.56804 405.31934 181.52116Q406.06934 180.45866 406.06934 177.28679Q406.06934 174.11491 405.31934 173.06804Q404.56934 172.02116 403.4756 172.02116Q402.38184 172.02116 401.7256 172.94304Q400.9131 174.11491 400.9131 177.28679ZM409.58496 173.84929Q409.58496 172.47429 410.27246 171.50554Q410.9756 170.53679 412.2881 170.53679Q413.50684 170.53679 414.3037 171.41179Q415.1006 172.27116 415.1006 173.95866Q415.1006 175.58366 414.2881 176.47429Q413.4912 177.34929 412.3037 177.34929Q411.14746 177.34929 410.3662 176.48991Q409.58496 175.61491 409.58496 173.84929ZM412.33496 171.63054Q411.7412 171.63054 411.3506 172.14616Q410.95996 172.64616 410.95996 174.00554Q410.95996 175.25554 411.3506 175.75554Q411.75684 176.25554 412.33496 176.25554Q412.9287 176.25554 413.31934 175.75554Q413.70996 175.23991 413.70996 173.89616Q413.70996 172.64616 413.31934 172.14616Q412.9287 171.63054 412.33496 171.63054ZM412.3506 184.11491L419.39746 170.53679L420.6787 170.53679L413.64746 184.11491L412.3506 184.11491ZM417.9131 180.61491Q417.9131 179.23991 418.6006 178.27116Q419.3037 177.30241 420.63184 177.30241Q421.8506 177.30241 422.63184 178.17741Q423.4287 179.03679 423.4287 180.72429Q423.4287 182.34929 422.63184 183.23991Q421.83496 184.11491 420.64746 184.11491Q419.4756 184.11491 418.69434 183.23991Q417.9131 182.36491 417.9131 180.61491ZM420.6787 178.39616Q420.08496 178.39616 419.69434 178.91179Q419.3037 179.41179 419.3037 180.78679Q419.3037 182.00554 419.69434 182.52116Q420.08496 183.03679 420.6631 183.03679Q421.27246 183.03679 421.6631 182.52116Q422.0537 182.00554 422.0537 180.66179Q422.0537 179.41179 421.6631 178.91179Q421.27246 178.39616 420.6787 178.39616Z" fill-rule="nonzero"/><path fill="#ffffff" d="M357.38586 277.8973Q356.4015 277.53793 355.9171 276.86606Q355.44836 276.19418 355.44836 275.2723Q355.44836 273.86606 356.44836 272.91293Q357.464 271.94418 359.1515 271.94418Q360.839 271.94418 361.8546 272.92856Q362.88586 273.8973 362.88586 275.30356Q362.88586 276.2098 362.4171 276.88168Q361.94836 277.53793 360.99524 277.8973Q362.18274 278.28793 362.7921 279.1473Q363.4171 280.00668 363.4171 281.19418Q363.4171 282.85043 362.24524 283.97543Q361.07336 285.10043 359.1671 285.10043Q357.26086 285.10043 356.089 283.97543Q354.93274 282.8348 354.93274 281.1473Q354.93274 279.8973 355.55774 279.05356Q356.19836 278.19418 357.38586 277.8973ZM357.05774 275.2098Q357.05774 276.13168 357.6515 276.7098Q358.24524 277.28793 359.18274 277.28793Q360.089 277.28793 360.6671 276.7098Q361.26086 276.13168 361.26086 275.30356Q361.26086 274.42856 360.6515 273.8348Q360.05774 273.24106 359.1671 273.24106Q358.26086 273.24106 357.6515 273.81918Q357.05774 274.3973 357.05774 275.2098ZM356.55774 281.16293Q356.55774 281.8348 356.87024 282.47543Q357.19836 283.10043 357.82336 283.4598Q358.464 283.80356 359.19836 283.80356Q360.32336 283.80356 361.05774 283.06918Q361.80774 282.3348 361.80774 281.2098Q361.80774 280.06918 361.0421 279.3348Q360.2765 278.5848 359.13586 278.5848Q358.0265 278.5848 357.2921 279.31918Q356.55774 280.05356 356.55774 281.16293ZM365.839 284.88168L365.839 283.0848L367.63586 283.0848L367.63586 284.88168L365.839 284.88168ZM369.94836 281.47543L371.5421 281.2723Q371.80774 282.61606 372.464 283.2098Q373.12024 283.80356 374.05774 283.80356Q375.18274 283.80356 375.94836 283.03793Q376.714 282.25668 376.714 281.11606Q376.714 280.0223 375.99524 279.31918Q375.2921 278.60043 374.19836 278.60043Q373.74524 278.60043 373.07336 278.78793L373.24524 277.3973Q373.4015 277.41293 373.51086 277.41293Q374.51086 277.41293 375.32336 276.88168Q376.13586 276.35043 376.13586 275.25668Q376.13586 274.38168 375.5421 273.81918Q374.94836 273.24106 374.0265 273.24106Q373.1046 273.24106 372.4796 273.81918Q371.87024 274.3973 371.69836 275.56918L370.12024 275.28793Q370.4015 273.69418 371.43274 272.81918Q372.464 271.94418 373.99524 271.94418Q375.0421 271.94418 375.93274 272.3973Q376.82336 272.85043 377.2921 273.63168Q377.76086 274.41293 377.76086 275.28793Q377.76086 276.13168 377.30774 276.81918Q376.87024 277.49106 375.9796 277.8973Q377.12024 278.16293 377.74524 279.00668Q378.38586 279.8348 378.38586 281.06918Q378.38586 282.75668 377.1515 283.94418Q375.93274 285.11606 374.05774 285.11606Q372.3546 285.11606 371.2296 284.10043Q370.12024 283.0848 369.94836 281.47543ZM380.24524 275.0848Q380.24524 273.7098 380.93274 272.74106Q381.63586 271.7723 382.94836 271.7723Q384.1671 271.7723 384.964 272.6473Q385.76086 273.50668 385.76086 275.19418Q385.76086 276.81918 384.94836 277.7098Q384.1515 278.5848 382.964 278.5848Q381.80774 278.5848 381.0265 277.72543Q380.24524 276.85043 380.24524 275.0848ZM382.99524 272.86606Q382.4015 272.86606 382.01086 273.38168Q381.62024 273.88168 381.62024 275.24106Q381.62024 276.49106 382.01086 276.99106Q382.4171 277.49106 382.99524 277.49106Q383.589 277.49106 383.9796 276.99106Q384.37024 276.47543 384.37024 275.13168Q384.37024 273.88168 383.9796 273.38168Q383.589 272.86606 382.99524 272.86606ZM383.01086 285.35043L390.05774 271.7723L391.339 271.7723L384.30774 285.35043L383.01086 285.35043ZM388.57336 281.85043Q388.57336 280.47543 389.26086 279.50668Q389.964 278.53793 391.2921 278.53793Q392.51086 278.53793 393.2921 279.41293Q394.089 280.2723 394.089 281.9598Q394.089 283.5848 393.2921 284.47543Q392.49524 285.35043 391.30774 285.35043Q390.13586 285.35043 389.3546 284.47543Q388.57336 283.60043 388.57336 281.85043ZM391.339 279.63168Q390.74524 279.63168 390.3546 280.1473Q389.964 280.6473 389.964 282.0223Q389.964 283.24106 390.3546 283.75668Q390.74524 284.2723 391.32336 284.2723Q391.93274 284.2723 392.32336 283.75668Q392.714 283.24106 392.714 281.8973Q392.714 280.6473 392.32336 280.1473Q391.93274 279.63168 391.339 279.63168Z" fill-rule="nonzero"/><path fill="#ffffff" d="M255.0339 315.13788L255.0339 316.6535L246.51828 316.6535Q246.50266 316.07538 246.70578 315.55975Q247.0339 314.68475 247.73703 313.841Q248.45578 312.99725 249.81516 311.88788Q251.9089 310.16913 252.64328 309.16913Q253.39328 308.1535 253.39328 307.26288Q253.39328 306.30975 252.7214 305.66913Q252.04953 305.0285 250.9714 305.0285Q249.81516 305.0285 249.12766 305.716Q248.45578 306.4035 248.44016 307.60663L246.81516 307.43475Q246.98703 305.62225 248.06516 304.66913Q249.1589 303.716 251.00266 303.716Q252.8464 303.716 253.92453 304.74725Q255.01828 305.7785 255.01828 307.29413Q255.01828 308.05975 254.69016 308.80975Q254.37766 309.55975 253.64328 310.38788Q252.9089 311.216 251.20578 312.6535Q249.7839 313.85663 249.37766 314.2785Q248.9714 314.70038 248.7214 315.13788L255.0339 315.13788ZM256.7214 313.2785L258.37766 313.13788Q258.56516 314.35663 259.23703 314.966Q259.9089 315.57538 260.86203 315.57538Q262.00266 315.57538 262.7839 314.716Q263.58078 313.85663 263.58078 312.41913Q263.58078 311.07538 262.81516 310.29413Q262.06516 309.51288 260.83078 309.51288Q260.06516 309.51288 259.44016 309.85663Q258.83078 310.20038 258.48703 310.76288L257.00266 310.55975L258.25266 303.95038L264.6589 303.95038L264.6589 305.45038L259.51828 305.45038L258.81516 308.91913Q259.98703 308.10663 261.25266 308.10663Q262.94016 308.10663 264.0964 309.2785Q265.26828 310.45038 265.26828 312.2785Q265.26828 314.0285 264.23703 315.30975Q263.00266 316.87225 260.86203 316.87225Q259.0964 316.87225 257.98703 315.88788Q256.87766 314.9035 256.7214 313.2785ZM267.61203 316.6535L267.61203 314.85663L269.4089 314.85663L269.4089 316.6535L267.61203 316.6535ZM271.7214 310.29413Q271.7214 308.01288 272.19016 306.62225Q272.6589 305.23163 273.58078 304.48163Q274.51828 303.716 275.92453 303.716Q276.95578 303.716 277.73703 304.13788Q278.51828 304.54413 279.01828 305.341Q279.5339 306.12225 279.83078 307.26288Q280.12766 308.38788 280.12766 310.29413Q280.12766 312.55975 279.6589 313.966Q279.19016 315.35663 278.25266 316.12225Q277.33078 316.87225 275.92453 316.87225Q274.04953 316.87225 272.98703 315.54413Q271.7214 313.93475 271.7214 310.29413ZM273.3464 310.29413Q273.3464 313.466 274.08078 314.5285Q274.83078 315.57538 275.92453 315.57538Q277.00266 315.57538 277.75266 314.5285Q278.50266 313.466 278.50266 310.29413Q278.50266 307.12225 277.75266 306.07538Q277.00266 305.0285 275.9089 305.0285Q274.81516 305.0285 274.1589 305.95038Q273.3464 307.12225 273.3464 310.29413ZM282.01828 306.85663Q282.01828 305.48163 282.70578 304.51288Q283.4089 303.54413 284.7214 303.54413Q285.94016 303.54413 286.73703 304.41913Q287.5339 305.2785 287.5339 306.966Q287.5339 308.591 286.7214 309.48163Q285.92453 310.35663 284.73703 310.35663Q283.58078 310.35663 282.79953 309.49725Q282.01828 308.62225 282.01828 306.85663ZM284.76828 304.63788Q284.17453 304.63788 283.7839 305.1535Q283.39328 305.6535 283.39328 307.01288Q283.39328 308.26288 283.7839 308.76288Q284.19016 309.26288 284.76828 309.26288Q285.36203 309.26288 285.75266 308.76288Q286.14328 308.24725 286.14328 306.9035Q286.14328 305.6535 285.75266 305.1535Q285.36203 304.63788 284.76828 304.63788ZM284.7839 317.12225L291.83078 303.54413L293.11203 303.54413L286.08078 317.12225L284.7839 317.12225ZM290.3464 313.62225Q290.3464 312.24725 291.0339 311.2785Q291.73703 310.30975 293.06516 310.30975Q294.2839 310.30975 295.06516 311.18475Q295.86203 312.04413 295.86203 313.73163Q295.86203 315.35663 295.06516 316.24725Q294.26828 317.12225 293.08078 317.12225Q291.9089 317.12225 291.12766 316.24725Q290.3464 315.37225 290.3464 313.62225ZM293.11203 311.4035Q292.51828 311.4035 292.12766 311.91913Q291.73703 312.41913 291.73703 313.79413Q291.73703 315.01288 292.12766 315.5285Q292.51828 316.04413 293.0964 316.04413Q293.70578 316.04413 294.0964 315.5285Q294.48703 315.01288 294.48703 313.66913Q294.48703 312.41913 294.0964 311.91913Q293.70578 311.4035 293.11203 311.4035Z" fill-rule="nonzero"/><path fill="#ffffff" d="M179.10855 230.95285Q178.12418 230.59348 177.6398 229.9216Q177.17105 229.24973 177.17105 228.32785Q177.17105 226.9216 178.17105 225.96848Q179.18668 224.99973 180.87418 224.99973Q182.56168 224.99973 183.5773 225.9841Q184.60855 226.95285 184.60855 228.3591Q184.60855 229.26535 184.1398 229.93723Q183.67105 230.59348 182.71793 230.95285Q183.90543 231.34348 184.5148 232.20285Q185.1398 233.06223 185.1398 234.24973Q185.1398 235.90598 183.96793 237.03098Q182.79605 238.15598 180.8898 238.15598Q178.98355 238.15598 177.81168 237.03098Q176.65543 235.89035 176.65543 234.20285Q176.65543 232.95285 177.28043 232.1091Q177.92105 231.24973 179.10855 230.95285ZM178.78043 228.26535Q178.78043 229.18723 179.37418 229.76535Q179.96793 230.34348 180.90543 230.34348Q181.81168 230.34348 182.3898 229.76535Q182.98355 229.18723 182.98355 228.3591Q182.98355 227.4841 182.37418 226.89035Q181.78043 226.2966 180.8898 226.2966Q179.98355 226.2966 179.37418 226.87473Q178.78043 227.45285 178.78043 228.26535ZM178.28043 234.21848Q178.28043 234.89035 178.59293 235.53098Q178.92105 236.15598 179.54605 236.51535Q180.18668 236.8591 180.92105 236.8591Q182.04605 236.8591 182.78043 236.12473Q183.53043 235.39035 183.53043 234.26535Q183.53043 233.12473 182.7648 232.39035Q181.99918 231.64035 180.85855 231.64035Q179.74918 231.64035 179.0148 232.37473Q178.28043 233.1091 178.28043 234.21848ZM187.56168 237.93723L187.56168 236.14035L189.35855 236.14035L189.35855 237.93723L187.56168 237.93723ZM191.67105 234.53098L193.2648 234.32785Q193.53043 235.6716 194.18668 236.26535Q194.84293 236.8591 195.78043 236.8591Q196.90543 236.8591 197.67105 236.09348Q198.43668 235.31223 198.43668 234.1716Q198.43668 233.07785 197.71793 232.37473Q197.0148 231.65598 195.92105 231.65598Q195.46793 231.65598 194.79605 231.84348L194.96793 230.45285Q195.12418 230.46848 195.23355 230.46848Q196.23355 230.46848 197.04605 229.93723Q197.85855 229.40598 197.85855 228.31223Q197.85855 227.43723 197.2648 226.87473Q196.67105 226.2966 195.74918 226.2966Q194.8273 226.2966 194.2023 226.87473Q193.59293 227.45285 193.42105 228.62473L191.84293 228.34348Q192.12418 226.74973 193.15543 225.87473Q194.18668 224.99973 195.71793 224.99973Q196.7648 224.99973 197.65543 225.45285Q198.54605 225.90598 199.0148 226.68723Q199.48355 227.46848 199.48355 228.34348Q199.48355 229.18723 199.03043 229.87473Q198.59293 230.5466 197.7023 230.95285Q198.84293 231.21848 199.46793 232.06223Q200.10855 232.89035 200.10855 234.12473Q200.10855 235.81223 198.87418 236.99973Q197.65543 238.1716 195.78043 238.1716Q194.0773 238.1716 192.9523 237.15598Q191.84293 236.14035 191.67105 234.53098ZM201.96793 228.14035Q201.96793 226.76535 202.65543 225.7966Q203.35855 224.82785 204.67105 224.82785Q205.8898 224.82785 206.68668 225.70285Q207.48355 226.56223 207.48355 228.24973Q207.48355 229.87473 206.67105 230.76535Q205.87418 231.64035 204.68668 231.64035Q203.53043 231.64035 202.74918 230.78098Q201.96793 229.90598 201.96793 228.14035ZM204.71793 225.9216Q204.12418 225.9216 203.73355 226.43723Q203.34293 226.93723 203.34293 228.2966Q203.34293 229.5466 203.73355 230.0466Q204.1398 230.5466 204.71793 230.5466Q205.31168 230.5466 205.7023 230.0466Q206.09293 229.53098 206.09293 228.18723Q206.09293 226.93723 205.7023 226.43723Q205.31168 225.9216 204.71793 225.9216ZM204.73355 238.40598L211.78043 224.82785L213.06168 224.82785L206.03043 238.40598L204.73355 238.40598ZM210.29605 234.90598Q210.29605 233.53098 210.98355 232.56223Q211.68668 231.59348 213.0148 231.59348Q214.23355 231.59348 215.0148 232.46848Q215.81168 233.32785 215.81168 235.01535Q215.81168 236.64035 215.0148 237.53098Q214.21793 238.40598 213.03043 238.40598Q211.85855 238.40598 211.0773 237.53098Q210.29605 236.65598 210.29605 234.90598ZM213.06168 232.68723Q212.46793 232.68723 212.0773 233.20285Q211.68668 233.70285 211.68668 235.07785Q211.68668 236.2966 212.0773 236.81223Q212.46793 237.32785 213.04605 237.32785Q213.65543 237.32785 214.04605 236.81223Q214.43668 236.2966 214.43668 234.95285Q214.43668 233.70285 214.04605 233.20285Q213.65543 232.68723 213.06168 232.68723Z" fill-rule="nonzero"/><path fill="#ffffff" d="M211.51295 136.61816L211.51295 138.13379L202.99733 138.13379Q202.9817 137.55566 203.18483 137.04004Q203.51295 136.16504 204.21608 135.32129Q204.93483 134.47754 206.2942 133.36816Q208.38795 131.64941 209.12233 130.64941Q209.87233 129.63379 209.87233 128.74316Q209.87233 127.79004 209.20045 127.149414Q208.52858 126.50879 207.45045 126.50879Q206.2942 126.50879 205.6067 127.19629Q204.93483 127.88379 204.9192 129.08691L203.2942 128.91504Q203.46608 127.10254 204.5442 126.149414Q205.63795 125.19629 207.4817 125.19629Q209.32545 125.19629 210.40358 126.22754Q211.49733 127.25879 211.49733 128.77441Q211.49733 129.54004 211.1692 130.29004Q210.8567 131.04004 210.12233 131.86816Q209.38795 132.69629 207.68483 134.13379Q206.26295 135.33691 205.8567 135.75879Q205.45045 136.18066 205.20045 136.61816L211.51295 136.61816ZM213.20045 134.75879L214.8567 134.61816Q215.0442 135.83691 215.71608 136.44629Q216.38795 137.05566 217.34108 137.05566Q218.4817 137.05566 219.26295 136.19629Q220.05983 135.33691 220.05983 133.89941Q220.05983 132.55566 219.2942 131.77441Q218.5442 130.99316 217.30983 130.99316Q216.5442 130.99316 215.9192 131.33691Q215.30983 131.68066 214.96608 132.24316L213.4817 132.04004L214.7317 125.430664L221.13795 125.430664L221.13795 126.930664L215.99733 126.930664L215.2942 130.39941Q216.46608 129.58691 217.7317 129.58691Q219.4192 129.58691 220.57545 130.75879Q221.74733 131.93066 221.74733 133.75879Q221.74733 135.50879 220.71608 136.79004Q219.4817 138.35254 217.34108 138.35254Q215.57545 138.35254 214.46608 137.36816Q213.3567 136.38379 213.20045 134.75879ZM224.09108 138.13379L224.09108 136.33691L225.88795 136.33691L225.88795 138.13379L224.09108 138.13379ZM228.20045 131.77441Q228.20045 129.49316 228.6692 128.10254Q229.13795 126.711914 230.05983 125.961914Q230.99733 125.19629 232.40358 125.19629Q233.43483 125.19629 234.21608 125.618164Q234.99733 126.024414 235.49733 126.82129Q236.01295 127.60254 236.30983 128.74316Q236.6067 129.86816 236.6067 131.77441Q236.6067 134.04004 236.13795 135.44629Q235.6692 136.83691 234.7317 137.60254Q233.80983 138.35254 232.40358 138.35254Q230.52858 138.35254 229.46608 137.02441Q228.20045 135.41504 228.20045 131.77441ZM229.82545 131.77441Q229.82545 134.94629 230.55983 136.00879Q231.30983 137.05566 232.40358 137.05566Q233.4817 137.05566 234.2317 136.00879Q234.9817 134.94629 234.9817 131.77441Q234.9817 128.60254 234.2317 127.555664Q233.4817 126.50879 232.38795 126.50879Q231.2942 126.50879 230.63795 127.430664Q229.82545 128.60254 229.82545 131.77441ZM238.49733 128.33691Q238.49733 126.961914 239.18483 125.993164Q239.88795 125.024414 241.20045 125.024414Q242.4192 125.024414 243.21608 125.899414Q244.01295 126.75879 244.01295 128.44629Q244.01295 130.07129 243.20045 130.96191Q242.40358 131.83691 241.21608 131.83691Q240.05983 131.83691 239.27858 130.97754Q238.49733 130.10254 238.49733 128.33691ZM241.24733 126.118164Q240.65358 126.118164 240.26295 126.63379Q239.87233 127.13379 239.87233 128.49316Q239.87233 129.74316 240.26295 130.24316Q240.6692 130.74316 241.24733 130.74316Q241.84108 130.74316 242.2317 130.24316Q242.62233 129.72754 242.62233 128.38379Q242.62233 127.13379 242.2317 126.63379Q241.84108 126.118164 241.24733 126.118164ZM241.26295 138.60254L248.30983 125.024414L249.59108 125.024414L242.55983 138.60254L241.26295 138.60254ZM246.82545 135.10254Q246.82545 133.72754 247.51295 132.75879Q248.21608 131.79004 249.5442 131.79004Q250.76295 131.79004 251.5442 132.66504Q252.34108 133.52441 252.34108 135.21191Q252.34108 136.83691 251.5442 137.72754Q250.74733 138.60254 249.55983 138.60254Q248.38795 138.60254 247.6067 137.72754Q246.82545 136.85254 246.82545 135.10254ZM249.59108 132.88379Q248.99733 132.88379 248.6067 133.39941Q248.21608 133.89941 248.21608 135.27441Q248.21608 136.49316 248.6067 137.00879Q248.99733 137.52441 249.57545 137.52441Q250.18483 137.52441 250.57545 137.00879Q250.96608 136.49316 250.96608 135.14941Q250.96608 133.89941 250.57545 133.39941Q250.18483 132.88379 249.59108 132.88379Z" fill-rule="nonzero"/><path stroke="#ffffff" stroke-width="1.0" stroke-linejoin="round" stroke-linecap="round" d="M318.59583 171.47441C312.942 168.21016 306.5285 166.49167 300.0 166.49167L300.0 54.916668C326.114 54.916668 351.76794 61.79062 374.38333 74.84762" fill-rule="nonzero"/><path stroke="#ffffff" stroke-width="1.0" stroke-linejoin="round" stroke-linecap="round" d="M332.20892 222.27916C342.47913 204.49066 336.38434 181.7446 318.59583 171.47441L374.38333 74.84762C445.53732 115.9284 469.9165 206.91267 428.83572 278.06668" fill-rule="nonzero"/><path stroke="#ffffff" stroke-width="1.0" stroke-linejoin="round" stroke-linecap="round" d="M318.59583 235.89226C324.2497 232.628 328.94467 227.93301 332.20892 222.27916L428.83572 278.06668C415.77872 300.68207 396.99872 319.46204 374.38333 332.51904" fill-rule="nonzero"/><path stroke="#ffffff" stroke-width="1.0" stroke-linejoin="round" stroke-linecap="round" d="M267.79108 222.27916C278.06128 240.06767 300.80734 246.16246 318.59583 235.89226L374.38333 332.51904C303.22934 373.59982 212.24507 349.22067 171.16429 278.06668" fill-rule="nonzero"/><path stroke="#ffffff" stroke-width="1.0" stroke-linejoin="round" stroke-linecap="round" d="M262.80832 203.68333C262.80832 210.21184 264.52682 216.62532 267.79108 222.27916L171.16429 278.06668C158.10728 255.45128 151.23334 229.79733 151.23334 203.68333" fill-rule="nonzero"/><path stroke="#ffffff" stroke-width="1.0" stroke-linejoin="round" stroke-linecap="round" d="M300.0 166.49167C279.4596 166.49167 262.80832 183.14294 262.80832 203.68333L151.23334 203.68333C151.23334 121.521774 217.83844 54.916668 300.0 54.916668" fill-rule="nonzero"/><path fill="#efefef" d="M27.3 86.79598L28.815624 86.79598L28.815624 93.40536Q28.815624 95.13973 28.425 96.15536Q28.034374 97.17098 27.01875 97.81161Q26.003124 98.45223 24.346874 98.45223Q22.7375 98.45223 21.70625 97.88973Q20.690624 97.32723 20.253124 96.28036Q19.815624 95.23348 19.815624 93.40536L19.815624 86.79598L21.33125 86.79598L21.33125 93.40536Q21.33125 94.88973 21.596874 95.60848Q21.878124 96.31161 22.55 96.70223Q23.2375 97.07723 24.20625 97.07723Q25.878124 97.07723 26.58125 96.32723Q27.3 95.56161 27.3 93.40536L27.3 86.79598ZM31.596874 98.24911L31.596874 89.95223L32.8625 89.95223L32.8625 91.20223Q33.346874 90.32723 33.753124 90.04598Q34.159374 89.76473 34.659374 89.76473Q35.3625 89.76473 36.096874 90.21786L35.6125 91.51473Q35.096874 91.21786 34.58125 91.21786Q34.128124 91.21786 33.753124 91.49911Q33.39375 91.76473 33.2375 92.26473Q33.003124 93.01473 33.003124 93.90536L33.003124 98.24911L31.596874 98.24911ZM37.909374 98.24911L36.596874 98.24911L36.596874 86.79598L38.003124 86.79598L38.003124 90.87411Q38.89375 89.76473 40.284374 89.76473Q41.05 89.76473 41.721874 90.07723Q42.409374 90.37411 42.846874 90.93661Q43.3 91.49911 43.55 92.29598Q43.8 93.07723 43.8 93.96786Q43.8 96.10848 42.7375 97.28036Q41.690624 98.43661 40.20625 98.43661Q38.7375 98.43661 37.909374 97.20223L37.909374 98.24911ZM37.89375 94.03036Q37.89375 95.53036 38.3 96.18661Q38.95625 97.28036 40.096874 97.28036Q41.01875 97.28036 41.690624 96.48348Q42.3625 95.67098 42.3625 94.09286Q42.3625 92.46786 41.70625 91.70223Q41.065624 90.92098 40.159374 90.92098Q39.2375 90.92098 38.565624 91.71786Q37.89375 92.51473 37.89375 94.03036ZM51.01875 97.21786Q50.2375 97.88973 49.51875 98.17098Q48.8 98.43661 47.971874 98.43661Q46.596874 98.43661 45.8625 97.76473Q45.128124 97.09286 45.128124 96.06161Q45.128124 95.45223 45.409374 94.95223Q45.690624 94.43661 46.128124 94.13973Q46.58125 93.82723 47.14375 93.67098Q47.565624 93.56161 48.39375 93.46786Q50.096874 93.26473 50.909374 92.98348Q50.909374 92.68661 50.909374 92.60848Q50.909374 91.74911 50.51875 91.40536Q49.971874 90.92098 48.909374 90.92098Q47.925 90.92098 47.440624 91.28036Q46.971874 91.62411 46.753124 92.49911L45.378124 92.31161Q45.565624 91.43661 45.9875 90.88973Q46.425 90.34286 47.2375 90.06161Q48.05 89.76473 49.1125 89.76473Q50.175 89.76473 50.83125 90.01473Q51.503124 90.26473 51.815624 90.63973Q52.128124 91.01473 52.253124 91.59286Q52.33125 91.95223 52.33125 92.88973L52.33125 94.76473Q52.33125 96.73348 52.409374 97.24911Q52.503124 97.76473 52.76875 98.24911L51.3 98.24911Q51.08125 97.81161 51.01875 97.21786ZM50.909374 94.07723Q50.14375 94.38973 48.6125 94.60848Q47.7375 94.73348 47.378124 94.88973Q47.01875 95.04598 46.815624 95.35848Q46.628124 95.65536 46.628124 96.01473Q46.628124 96.57723 47.05 96.95223Q47.4875 97.32723 48.3 97.32723Q49.1125 97.32723 49.7375 96.98348Q50.378124 96.62411 50.675 95.99911Q50.909374 95.53036 50.909374 94.59286L50.909374 94.07723ZM54.6125 98.24911L54.6125 89.95223L55.878124 89.95223L55.878124 91.12411Q56.784374 89.76473 58.51875 89.76473Q59.26875 89.76473 59.89375 90.03036Q60.51875 90.29598 60.83125 90.73348Q61.14375 91.17098 61.26875 91.78036Q61.346874 92.17098 61.346874 93.13973L61.346874 98.24911L59.940624 98.24911L59.940624 93.20223Q59.940624 92.34286 59.76875 91.92098Q59.6125 91.48348 59.190624 91.23348Q58.784374 90.98348 58.221874 90.98348Q57.315624 90.98348 56.659374 91.56161Q56.01875 92.12411 56.01875 93.71786L56.01875 98.24911L54.6125 98.24911ZM63.05 95.76473L64.44063 95.54598Q64.55 96.38973 65.08125 96.84286Q65.62813 97.28036 66.58125 97.28036Q67.55 97.28036 68.01875 96.88973Q68.4875 96.48348 68.4875 95.95223Q68.4875 95.48348 68.08125 95.20223Q67.78438 95.01473 66.64375 94.73348Q65.09688 94.34286 64.4875 94.06161Q63.89375 93.76473 63.58125 93.26473Q63.284374 92.76473 63.284374 92.15536Q63.284374 91.59286 63.534374 91.12411Q63.784374 90.65536 64.22188 90.34286Q64.55 90.09286 65.1125 89.93661Q65.69063 89.76473 66.33125 89.76473Q67.31563 89.76473 68.05 90.04598Q68.78438 90.32723 69.12813 90.81161Q69.4875 91.28036 69.62813 92.09286L68.25313 92.28036Q68.15938 91.63973 67.70625 91.28036Q67.25313 90.92098 66.44063 90.92098Q65.47188 90.92098 65.05 91.24911Q64.64375 91.56161 64.64375 91.98348Q64.64375 92.26473 64.81563 92.48348Q64.9875 92.70223 65.34688 92.85848Q65.56563 92.93661 66.59688 93.21786Q68.08125 93.60848 68.675 93.87411Q69.26875 94.12411 69.59688 94.60848Q69.94063 95.09286 69.94063 95.81161Q69.94063 96.51473 69.51875 97.13973Q69.1125 97.74911 68.33125 98.09286Q67.56563 98.43661 66.59688 98.43661Q64.97188 98.43661 64.12813 97.76473Q63.284374 97.09286 63.05 95.76473ZM77.01875 95.20223L78.40938 95.38973Q78.175 96.81161 77.2375 97.62411Q76.31563 98.43661 74.95625 98.43661Q73.25313 98.43661 72.20625 97.32723Q71.175 96.20223 71.175 94.12411Q71.175 92.78036 71.6125 91.78036Q72.06563 90.76473 72.97188 90.26473Q73.89375 89.76473 74.95625 89.76473Q76.31563 89.76473 77.175 90.45223Q78.03438 91.12411 78.26875 92.38973L76.90938 92.59286Q76.70625 91.76473 76.20625 91.34286Q75.72188 90.92098 75.01875 90.92098Q73.95625 90.92098 73.28438 91.68661Q72.62813 92.43661 72.62813 94.09286Q72.62813 95.76473 73.26875 96.53036Q73.90938 97.28036 74.94063 97.28036Q75.76875 97.28036 76.31563 96.78036Q76.87813 96.26473 77.01875 95.20223ZM85.01875 97.21786Q84.2375 97.88973 83.51875 98.17098Q82.8 98.43661 81.97188 98.43661Q80.59688 98.43661 79.8625 97.76473Q79.12813 97.09286 79.12813 96.06161Q79.12813 95.45223 79.40938 94.95223Q79.69063 94.43661 80.12813 94.13973Q80.58125 93.82723 81.14375 93.67098Q81.56563 93.56161 82.39375 93.46786Q84.09688 93.26473 84.90938 92.98348Q84.90938 92.68661 84.90938 92.60848Q84.90938 91.74911 84.51875 91.40536Q83.97188 90.92098 82.90938 90.92098Q81.925 90.92098 81.44063 91.28036Q80.97188 91.62411 80.75313 92.49911L79.37813 92.31161Q79.56563 91.43661 79.9875 90.88973Q80.425 90.34286 81.2375 90.06161Q82.05 89.76473 83.1125 89.76473Q84.175 89.76473 84.83125 90.01473Q85.50313 90.26473 85.81563 90.63973Q86.12813 91.01473 86.25313 91.59286Q86.33125 91.95223 86.33125 92.88973L86.33125 94.76473Q86.33125 96.73348 86.40938 97.24911Q86.50313 97.76473 86.76875 98.24911L85.3 98.24911Q85.08125 97.81161 85.01875 97.21786ZM84.90938 94.07723Q84.14375 94.38973 82.6125 94.60848Q81.7375 94.73348 81.37813 94.88973Q81.01875 95.04598 80.81563 95.35848Q80.62813 95.65536 80.62813 96.01473Q80.62813 96.57723 81.05 96.95223Q81.4875 97.32723 82.3 97.32723Q83.1125 97.32723 83.7375 96.98348Q84.37813 96.62411 84.675 95.99911Q84.90938 95.53036 84.90938 94.59286L84.90938 94.07723ZM88.6125 101.43661L88.6125 89.95223L89.89375 89.95223L89.89375 91.03036Q90.34688 90.38973 90.90938 90.07723Q91.4875 89.76473 92.3 89.76473Q93.3625 89.76473 94.175 90.31161Q94.9875 90.85848 95.39375 91.85848Q95.81563 92.84286 95.81563 94.03036Q95.81563 95.31161 95.34688 96.32723Q94.89375 97.34286 94.01875 97.88973Q93.15938 98.43661 92.19063 98.43661Q91.4875 98.43661 90.925 98.13973Q90.37813 97.84286 90.01875 97.38973L90.01875 101.43661L88.6125 101.43661ZM89.87813 94.13973Q89.87813 95.74911 90.51875 96.51473Q91.175 97.28036 92.09688 97.28036Q93.03438 97.28036 93.70625 96.48348Q94.37813 95.68661 94.37813 94.03036Q94.37813 92.43661 93.72188 91.65536Q93.06563 90.85848 92.15938 90.85848Q91.26875 90.85848 90.56563 91.70223Q89.87813 92.54598 89.87813 94.13973ZM103.28438 95.57723L104.7375 95.74911Q104.39375 97.03036 103.45625 97.73348Q102.53438 98.43661 101.09688 98.43661Q99.26875 98.43661 98.20625 97.31161Q97.14375 96.18661 97.14375 94.17098Q97.14375 92.07723 98.22188 90.92098Q99.3 89.76473 101.01875 89.76473Q102.675 89.76473 103.72188 90.90536Q104.78438 92.03036 104.78438 94.07723Q104.78438 94.20223 104.78438 94.45223L98.59688 94.45223Q98.675 95.82723 99.3625 96.56161Q100.06563 97.28036 101.09688 97.28036Q101.87813 97.28036 102.425 96.87411Q102.97188 96.46786 103.28438 95.57723ZM98.675 93.29598L103.3 93.29598Q103.20625 92.24911 102.76875 91.73348Q102.09688 90.92098 101.03438 90.92098Q100.06563 90.92098 99.39375 91.57723Q98.7375 92.21786 98.675 93.29598Z" fill-rule="nonzero"/><path fill="#9e9e9e" d="M26.6125 118.88973L26.6125 120.24911L19.034374 120.24911Q19.01875 119.73348 19.20625 119.26473Q19.4875 118.49911 20.128124 117.74911Q20.76875 116.99911 21.971874 116.01473Q23.83125 114.48348 24.4875 113.59286Q25.14375 112.68661 25.14375 111.88973Q25.14375 111.06161 24.55 110.48348Q23.95625 109.90536 22.9875 109.90536Q21.971874 109.90536 21.3625 110.51473Q20.753124 111.12411 20.753124 112.20223L19.3 112.06161Q19.45625 110.43661 20.425 109.59286Q21.39375 108.74911 23.01875 108.74911Q24.675 108.74911 25.628124 109.67098Q26.596874 110.57723 26.596874 111.92098Q26.596874 112.60848 26.315624 113.28036Q26.034374 113.93661 25.378124 114.67098Q24.721874 115.40536 23.20625 116.68661Q21.940624 117.74911 21.58125 118.13973Q21.221874 118.51473 20.9875 118.88973L26.6125 118.88973ZM28.221874 117.24911L29.690624 117.12411Q29.8625 118.20223 30.45625 118.74911Q31.05 119.28036 31.89375 119.28036Q32.909374 119.28036 33.6125 118.51473Q34.315624 117.74911 34.315624 116.48348Q34.315624 115.28036 33.64375 114.59286Q32.971874 113.88973 31.878124 113.88973Q31.190624 113.88973 30.64375 114.20223Q30.096874 114.51473 29.784374 114.99911L28.471874 114.82723L29.58125 108.95223L35.26875 108.95223L35.26875 110.29598L30.70625 110.29598L30.08125 113.37411Q31.1125 112.65536 32.253124 112.65536Q33.753124 112.65536 34.784374 113.70223Q35.815624 114.73348 35.815624 116.35848Q35.815624 117.92098 34.909374 119.04598Q33.8 120.45223 31.89375 120.45223Q30.33125 120.45223 29.346874 119.57723Q28.3625 118.68661 28.221874 117.24911ZM38.003124 120.24911L38.003124 118.63973L39.6125 118.63973L39.6125 120.24911L38.003124 120.24911ZM41.221874 114.59286Q41.221874 112.56161 41.628124 111.32723Q42.05 110.09286 42.878124 109.42098Q43.70625 108.74911 44.95625 108.74911Q45.878124 108.74911 46.565624 109.12411Q47.26875 109.48348 47.721874 110.18661Q48.175 110.88973 48.425 111.88973Q48.690624 112.88973 48.690624 114.59286Q48.690624 116.60848 48.26875 117.85848Q47.8625 119.09286 47.034374 119.78036Q46.20625 120.45223 44.95625 120.45223Q43.3 120.45223 42.346874 119.24911Q41.221874 117.82723 41.221874 114.59286ZM42.659374 114.59286Q42.659374 117.42098 43.315624 118.35848Q43.9875 119.28036 44.95625 119.28036Q45.925 119.28036 46.58125 118.34286Q47.2375 117.40536 47.2375 114.59286Q47.2375 111.76473 46.58125 110.84286Q45.925 109.90536 44.940624 109.90536Q43.971874 109.90536 43.39375 110.73348Q42.659374 111.78036 42.659374 114.59286ZM50.4875 111.54598Q50.4875 110.31161 51.096874 109.45223Q51.721874 108.59286 52.89375 108.59286Q53.971874 108.59286 54.675 109.37411Q55.378124 110.13973 55.378124 111.62411Q55.378124 113.07723 54.659374 113.87411Q53.95625 114.65536 52.909374 114.65536Q51.8625 114.65536 51.175 113.88973Q50.4875 113.10848 50.4875 111.54598ZM52.925 109.56161Q52.409374 109.56161 52.05 110.01473Q51.70625 110.46786 51.70625 111.68661Q51.70625 112.78036 52.05 113.23348Q52.409374 113.68661 52.925 113.68661Q53.45625 113.68661 53.8 113.23348Q54.159374 112.78036 54.159374 111.57723Q54.159374 110.46786 53.8 110.01473Q53.45625 109.56161 52.925 109.56161ZM52.940624 120.67098L59.20625 108.59286L60.346874 108.59286L54.096874 120.67098L52.940624 120.67098ZM57.89375 117.56161Q57.89375 116.32723 58.503124 115.46786Q59.128124 114.60848 60.3 114.60848Q61.378124 114.60848 62.08125 115.38973Q62.8 116.15536 62.8 117.63973Q62.8 119.09286 62.08125 119.88973Q61.3625 120.67098 60.315624 120.67098Q59.26875 120.67098 58.58125 119.88973Q57.89375 119.10848 57.89375 117.56161ZM60.346874 115.57723Q59.815624 115.57723 59.45625 116.03036Q59.1125 116.48348 59.1125 117.70223Q59.1125 118.79598 59.45625 119.24911Q59.815624 119.70223 60.33125 119.70223Q60.878124 119.70223 61.221874 119.24911Q61.565624 118.79598 61.565624 117.59286Q61.565624 116.48348 61.20625 116.03036Q60.8625 115.57723 60.346874 115.57723Z" fill-rule="nonzero"/><path stroke="#757575" stroke-width="1.0" stroke-linecap="butt" d="M18.55 103.74911L145.23334 103.74911L200.06578 103.74911" fill-rule="nonzero"/><path fill="#9e9e9e" d="M202.06578 103.74911C202.06578 102.64454 201.17035 101.74911 200.06578 101.74911C198.96121 101.74911 198.06578 102.64454 198.06578 103.74911C198.06578 104.85368 198.96121 105.74911 200.06578 105.74911C201.17035 105.74911 202.06578 104.85368 202.06578 103.74911" fill-rule="nonzero"/><path fill="#efefef" d="M19.76875 234.7618L19.76875 223.30867L21.33125 223.30867L27.346874 232.29305L27.346874 223.30867L28.8 223.30867L28.8 234.7618L27.2375 234.7618L21.221874 225.7618L21.221874 234.7618L19.76875 234.7618ZM37.01875 233.73055Q36.2375 234.40242 35.51875 234.68367Q34.8 234.9493 33.971874 234.9493Q32.596874 234.9493 31.8625 234.27742Q31.128124 233.60555 31.128124 232.5743Q31.128124 231.96492 31.409374 231.46492Q31.690624 230.9493 32.128124 230.65242Q32.58125 230.33992 33.14375 230.18367Q33.565624 230.0743 34.39375 229.98055Q36.096874 229.77742 36.909374 229.49617Q36.909374 229.1993 36.909374 229.12117Q36.909374 228.2618 36.51875 227.91805Q35.971874 227.43367 34.909374 227.43367Q33.925 227.43367 33.440624 227.79305Q32.971874 228.1368 32.753124 229.0118L31.378124 228.8243Q31.565624 227.9493 31.9875 227.40242Q32.425 226.85555 33.2375 226.5743Q34.05 226.27742 35.1125 226.27742Q36.175 226.27742 36.83125 226.52742Q37.503124 226.77742 37.815624 227.15242Q38.128124 227.52742 38.253124 228.10555Q38.33125 228.46492 38.33125 229.40242L38.33125 231.27742Q38.33125 233.24617 38.409374 233.7618Q38.503124 234.27742 38.76875 234.7618L37.3 234.7618Q37.08125 234.3243 37.01875 233.73055ZM36.909374 230.58992Q36.14375 230.90242 34.6125 231.12117Q33.7375 231.24617 33.378124 231.40242Q33.01875 231.55867 32.815624 231.87117Q32.628124 232.16805 32.628124 232.52742Q32.628124 233.08992 33.05 233.46492Q33.4875 233.83992 34.3 233.83992Q35.1125 233.83992 35.7375 233.49617Q36.378124 233.1368 36.675 232.5118Q36.909374 232.04305 36.909374 231.10555L36.909374 230.58992ZM43.675 233.49617L43.878124 234.74617Q43.284374 234.87117 42.815624 234.87117Q42.05 234.87117 41.628124 234.6368Q41.20625 234.3868 41.034374 233.99617Q40.8625 233.58992 40.8625 232.3243L40.8625 227.55867L39.83125 227.55867L39.83125 226.46492L40.8625 226.46492L40.8625 224.40242L42.26875 223.55867L42.26875 226.46492L43.675 226.46492L43.675 227.55867L42.26875 227.55867L42.26875 232.40242Q42.26875 233.0118 42.33125 233.18367Q42.409374 233.35555 42.58125 233.46492Q42.753124 233.55867 43.065624 233.55867Q43.3 233.55867 43.675 233.49617ZM50.05 234.7618L50.05 233.54305Q49.08125 234.9493 47.409374 234.9493Q46.675 234.9493 46.034374 234.66805Q45.409374 234.3868 45.096874 233.96492Q44.784374 233.52742 44.659374 232.91805Q44.58125 232.49617 44.58125 231.60555L44.58125 226.46492L45.9875 226.46492L45.9875 231.05867Q45.9875 232.16805 46.065624 232.54305Q46.20625 233.10555 46.628124 233.41805Q47.065624 233.73055 47.690624 233.73055Q48.33125 233.73055 48.878124 233.41805Q49.440624 233.08992 49.659374 232.52742Q49.89375 231.96492 49.89375 230.90242L49.89375 226.46492L51.3 226.46492L51.3 234.7618L50.05 234.7618ZM53.596874 234.7618L53.596874 226.46492L54.8625 226.46492L54.8625 227.71492Q55.346874 226.83992 55.753124 226.55867Q56.159374 226.27742 56.659374 226.27742Q57.3625 226.27742 58.096874 226.73055L57.6125 228.02742Q57.096874 227.73055 56.58125 227.73055Q56.128124 227.73055 55.753124 228.0118Q55.39375 228.27742 55.2375 228.77742Q55.003124 229.52742 55.003124 230.41805L55.003124 234.7618L53.596874 234.7618ZM64.28438 232.08992L65.7375 232.2618Q65.39375 233.54305 64.45625 234.24617Q63.534374 234.9493 62.096874 234.9493Q60.26875 234.9493 59.20625 233.8243Q58.14375 232.6993 58.14375 230.68367Q58.14375 228.58992 59.221874 227.43367Q60.3 226.27742 62.01875 226.27742Q63.675 226.27742 64.72188 227.41805Q65.78438 228.54305 65.78438 230.58992Q65.78438 230.71492 65.78438 230.96492L59.596874 230.96492Q59.675 232.33992 60.3625 233.0743Q61.065624 233.79305 62.096874 233.79305Q62.878124 233.79305 63.425 233.3868Q63.971874 232.98055 64.28438 232.08992ZM59.675 229.80867L64.3 229.80867Q64.20625 228.7618 63.76875 228.24617Q63.096874 227.43367 62.034374 227.43367Q61.065624 227.43367 60.39375 228.08992Q59.7375 228.73055 59.675 229.80867ZM67.05 232.27742L68.44063 232.05867Q68.55 232.90242 69.08125 233.35555Q69.62813 233.79305 70.58125 233.79305Q71.55 233.79305 72.01875 233.40242Q72.4875 232.99617 72.4875 232.46492Q72.4875 231.99617 72.08125 231.71492Q71.78438 231.52742 70.64375 231.24617Q69.09688 230.85555 68.4875 230.5743Q67.89375 230.27742 67.58125 229.77742Q67.28438 229.27742 67.28438 228.66805Q67.28438 228.10555 67.53438 227.6368Q67.78438 227.16805 68.22188 226.85555Q68.55 226.60555 69.1125 226.4493Q69.69063 226.27742 70.33125 226.27742Q71.31563 226.27742 72.05 226.55867Q72.78438 226.83992 73.12813 227.3243Q73.4875 227.79305 73.62813 228.60555L72.25313 228.79305Q72.15938 228.15242 71.70625 227.79305Q71.25313 227.43367 70.44063 227.43367Q69.47188 227.43367 69.05 227.7618Q68.64375 228.0743 68.64375 228.49617Q68.64375 228.77742 68.81563 228.99617Q68.9875 229.21492 69.34688 229.37117Q69.56563 229.4493 70.59688 229.73055Q72.08125 230.12117 72.675 230.3868Q73.26875 230.6368 73.59688 231.12117Q73.94063 231.60555 73.94063 232.3243Q73.94063 233.02742 73.51875 233.65242Q73.1125 234.2618 72.33125 234.60555Q71.56563 234.9493 70.59688 234.9493Q68.97188 234.9493 68.12813 234.27742Q67.28438 233.60555 67.05 232.27742ZM81.01875 231.71492L82.40938 231.90242Q82.175 233.3243 81.2375 234.1368Q80.31563 234.9493 78.95625 234.9493Q77.25313 234.9493 76.20625 233.83992Q75.175 232.71492 75.175 230.6368Q75.175 229.29305 75.6125 228.29305Q76.06563 227.27742 76.97188 226.77742Q77.89375 226.27742 78.95625 226.27742Q80.31563 226.27742 81.175 226.96492Q82.03438 227.6368 82.26875 228.90242L80.90938 229.10555Q80.70625 228.27742 80.20625 227.85555Q79.72188 227.43367 79.01875 227.43367Q77.95625 227.43367 77.28438 228.1993Q76.62813 228.9493 76.62813 230.60555Q76.62813 232.27742 77.26875 233.04305Q77.90938 233.79305 78.94063 233.79305Q79.76875 233.79305 80.31563 233.29305Q80.87813 232.77742 81.01875 231.71492ZM89.01875 233.73055Q88.2375 234.40242 87.51875 234.68367Q86.8 234.9493 85.97188 234.9493Q84.59688 234.9493 83.8625 234.27742Q83.12813 233.60555 83.12813 232.5743Q83.12813 231.96492 83.40938 231.46492Q83.69063 230.9493 84.12813 230.65242Q84.58125 230.33992 85.14375 230.18367Q85.56563 230.0743 86.39375 229.98055Q88.09688 229.77742 88.90938 229.49617Q88.90938 229.1993 88.90938 229.12117Q88.90938 228.2618 88.51875 227.91805Q87.97188 227.43367 86.90938 227.43367Q85.925 227.43367 85.44063 227.79305Q84.97188 228.1368 84.75313 229.0118L83.37813 228.8243Q83.56563 227.9493 83.9875 227.40242Q84.425 226.85555 85.2375 226.5743Q86.05 226.27742 87.1125 226.27742Q88.175 226.27742 88.83125 226.52742Q89.50313 226.77742 89.81563 227.15242Q90.12813 227.52742 90.25313 228.10555Q90.33125 228.46492 90.33125 229.40242L90.33125 231.27742Q90.33125 233.24617 90.40938 233.7618Q90.50313 234.27742 90.76875 234.7618L89.3 234.7618Q89.08125 234.3243 89.01875 233.73055ZM88.90938 230.58992Q88.14375 230.90242 86.6125 231.12117Q85.7375 231.24617 85.37813 231.40242Q85.01875 231.55867 84.81563 231.87117Q84.62813 232.16805 84.62813 232.52742Q84.62813 233.08992 85.05 233.46492Q85.4875 233.83992 86.3 233.83992Q87.1125 233.83992 87.7375 233.49617Q88.37813 233.1368 88.675 232.5118Q88.90938 232.04305 88.90938 231.10555L88.90938 230.58992ZM92.6125 237.9493L92.6125 226.46492L93.89375 226.46492L93.89375 227.54305Q94.34688 226.90242 94.90938 226.58992Q95.4875 226.27742 96.3 226.27742Q97.3625 226.27742 98.175 226.8243Q98.9875 227.37117 99.39375 228.37117Q99.81563 229.35555 99.81563 230.54305Q99.81563 231.8243 99.34688 232.83992Q98.89375 233.85555 98.01875 234.40242Q97.15938 234.9493 96.19063 234.9493Q95.4875 234.9493 94.925 234.65242Q94.37813 234.35555 94.01875 233.90242L94.01875 237.9493L92.6125 237.9493ZM93.87813 230.65242Q93.87813 232.2618 94.51875 233.02742Q95.175 233.79305 96.09688 233.79305Q97.03438 233.79305 97.70625 232.99617Q98.37813 232.1993 98.37813 230.54305Q98.37813 228.9493 97.72188 228.16805Q97.06563 227.37117 96.15938 227.37117Q95.26875 227.37117 94.56563 228.21492Q93.87813 229.05867 93.87813 230.65242ZM107.28438 232.08992L108.7375 232.2618Q108.39375 233.54305 107.45625 234.24617Q106.53438 234.9493 105.09688 234.9493Q103.26875 234.9493 102.20625 233.8243Q101.14375 232.6993 101.14375 230.68367Q101.14375 228.58992 102.22188 227.43367Q103.3 226.27742 105.01875 226.27742Q106.675 226.27742 107.72188 227.41805Q108.78438 228.54305 108.78438 230.58992Q108.78438 230.71492 108.78438 230.96492L102.59688 230.96492Q102.675 232.33992 103.3625 233.0743Q104.06563 233.79305 105.09688 233.79305Q105.87813 233.79305 106.425 233.3868Q106.97188 232.98055 107.28438 232.08992ZM102.675 229.80867L107.3 229.80867Q107.20625 228.7618 106.76875 228.24617Q106.09688 227.43367 105.03438 227.43367Q104.06563 227.43367 103.39375 228.08992Q102.7375 228.73055 102.675 229.80867Z" fill-rule="nonzero"/><path fill="#9e9e9e" d="M21.378124 250.54306Q20.503124 250.23056 20.08125 249.63681Q19.659374 249.04306 19.659374 248.21494Q19.659374 246.96494 20.55 246.12119Q21.45625 245.26181 22.95625 245.26181Q24.45625 245.26181 25.3625 246.13681Q26.284374 246.99619 26.284374 248.24619Q26.284374 249.04306 25.8625 249.63681Q25.440624 250.23056 24.596874 250.54306Q25.64375 250.88681 26.190624 251.65244Q26.753124 252.41806 26.753124 253.48056Q26.753124 254.94931 25.70625 255.96494Q24.675 256.96494 22.971874 256.96494Q21.284374 256.96494 20.2375 255.96494Q19.20625 254.94931 19.20625 253.44931Q19.20625 252.32431 19.76875 251.57431Q20.33125 250.82431 21.378124 250.54306ZM21.096874 248.16806Q21.096874 248.98056 21.6125 249.49619Q22.14375 250.01181 22.9875 250.01181Q23.8 250.01181 24.315624 249.49619Q24.83125 248.98056 24.83125 248.24619Q24.83125 247.46494 24.3 246.94931Q23.76875 246.41806 22.971874 246.41806Q22.159374 246.41806 21.628124 246.93369Q21.096874 247.44931 21.096874 248.16806ZM20.64375 253.44931Q20.64375 254.05869 20.925 254.62119Q21.221874 255.18369 21.784374 255.49619Q22.346874 255.79306 22.9875 255.79306Q24.003124 255.79306 24.659374 255.15244Q25.315624 254.49619 25.315624 253.49619Q25.315624 252.48056 24.628124 251.82431Q23.95625 251.15244 22.940624 251.15244Q21.95625 251.15244 21.3 251.80869Q20.64375 252.46494 20.64375 253.44931ZM29.003124 256.7618L29.003124 255.15244L30.6125 255.15244L30.6125 256.7618L29.003124 256.7618ZM32.221874 253.73056L33.628124 253.54306Q33.878124 254.74619 34.45625 255.27744Q35.034374 255.79306 35.878124 255.79306Q36.8625 255.79306 37.55 255.10556Q38.2375 254.41806 38.2375 253.40244Q38.2375 252.43369 37.596874 251.80869Q36.971874 251.18369 35.9875 251.18369Q35.596874 251.18369 35.003124 251.33994L35.159374 250.10556Q35.3 250.12119 35.378124 250.12119Q36.284374 250.12119 37.003124 249.65244Q37.721874 249.18369 37.721874 248.19931Q37.721874 247.43369 37.190624 246.93369Q36.675 246.41806 35.846874 246.41806Q35.01875 246.41806 34.471874 246.93369Q33.925 247.44931 33.76875 248.48056L32.3625 248.23056Q32.628124 246.80869 33.534374 246.04306Q34.45625 245.26181 35.815624 245.26181Q36.753124 245.26181 37.534374 245.66806Q38.33125 246.05869 38.7375 246.76181Q39.159374 247.44931 39.159374 248.23056Q39.159374 248.98056 38.753124 249.58994Q38.3625 250.19931 37.58125 250.55869Q38.596874 250.79306 39.159374 251.52744Q39.721874 252.26181 39.721874 253.37119Q39.721874 254.87119 38.628124 255.91806Q37.534374 256.96494 35.8625 256.96494Q34.3625 256.96494 33.3625 256.0743Q32.3625 255.16806 32.221874 253.73056ZM41.4875 248.05869Q41.4875 246.82431 42.096874 245.96494Q42.721874 245.10556 43.89375 245.10556Q44.971874 245.10556 45.675 245.88681Q46.378124 246.65244 46.378124 248.13681Q46.378124 249.58994 45.659374 250.38681Q44.95625 251.16806 43.909374 251.16806Q42.8625 251.16806 42.175 250.40244Q41.4875 249.62119 41.4875 248.05869ZM43.925 246.07431Q43.409374 246.07431 43.05 246.52744Q42.70625 246.98056 42.70625 248.19931Q42.70625 249.29306 43.05 249.74619Q43.409374 250.19931 43.925 250.19931Q44.45625 250.19931 44.8 249.74619Q45.159374 249.29306 45.159374 248.08994Q45.159374 246.98056 44.8 246.52744Q44.45625 246.07431 43.925 246.07431ZM43.940624 257.1837L50.20625 245.10556L51.346874 245.10556L45.096874 257.1837L43.940624 257.1837ZM48.89375 254.07431Q48.89375 252.83994 49.503124 251.98056Q50.128124 251.12119 51.3 251.12119Q52.378124 251.12119 53.08125 251.90244Q53.8 252.66806 53.8 254.15244Q53.8 255.60556 53.08125 256.40244Q52.3625 257.1837 51.315624 257.1837Q50.26875 257.1837 49.58125 256.40244Q48.89375 255.62119 48.89375 254.07431ZM51.346874 252.08994Q50.815624 252.08994 50.45625 252.54306Q50.1125 252.99619 50.1125 254.21494Q50.1125 255.30869 50.45625 255.76181Q50.815624 256.21494 51.33125 256.21494Q51.878124 256.21494 52.221874 255.76181Q52.565624 255.30869 52.565624 254.10556Q52.565624 252.99619 52.20625 252.54306Q51.8625 252.08994 51.346874 252.08994Z" fill-rule="nonzero"/><path stroke="#757575" stroke-width="1.0" stroke-linecap="butt" d="M18.55 240.2618L145.23334 240.2618L163.48732 240.2618" fill-rule="nonzero"/><path fill="#9e9e9e" d="M165.48732 240.2618C165.48732 239.15723 164.59189 238.2618 163.48732 238.2618C162.38274 238.2618 161.48732 239.15723 161.48732 240.2618C161.48732 241.36636 162.38274 242.2618 163.48732 242.2618C164.59189 242.2618 165.48732 241.36636 165.48732 240.2618" fill-rule="nonzero"/><path fill="#efefef" d="M19.784374 326.45L19.784374 314.9969L24.1125 314.9969Q25.253124 314.9969 25.846874 315.10626Q26.690624 315.2469 27.253124 315.6375Q27.83125 316.02814 28.175 316.7469Q28.534374 317.45 28.534374 318.3094Q28.534374 319.7625 27.596874 320.77814Q26.675 321.79376 24.2375 321.79376L21.3 321.79376L21.3 326.45L19.784374 326.45ZM21.3 320.4344L24.26875 320.4344Q25.7375 320.4344 26.346874 319.8875Q26.971874 319.34064 26.971874 318.35626Q26.971874 317.6375 26.596874 317.1219Q26.2375 316.60626 25.64375 316.45Q25.26875 316.34064 24.2375 316.34064L21.3 316.34064L21.3 320.4344ZM36.284374 323.77814L37.7375 323.95Q37.39375 325.23126 36.45625 325.9344Q35.534374 326.6375 34.096874 326.6375Q32.26875 326.6375 31.20625 325.5125Q30.14375 324.3875 30.14375 322.3719Q30.14375 320.27814 31.221874 319.1219Q32.3 317.96564 34.01875 317.96564Q35.675 317.96564 36.721874 319.10626Q37.784374 320.23126 37.784374 322.27814Q37.784374 322.40314 37.784374 322.65314L31.596874 322.65314Q31.675 324.02814 32.3625 324.7625Q33.065624 325.48126 34.096874 325.48126Q34.878124 325.48126 35.425 325.075Q35.971874 324.66876 36.284374 323.77814ZM31.675 321.4969L36.3 321.4969Q36.20625 320.45 35.76875 319.9344Q35.096874 319.1219 34.034374 319.1219Q33.065624 319.1219 32.39375 319.77814Q31.7375 320.41876 31.675 321.4969ZM39.08125 322.29376Q39.08125 319.9969 40.3625 318.8875Q41.440624 317.96564 42.971874 317.96564Q44.690624 317.96564 45.76875 319.09064Q46.8625 320.2 46.8625 322.1844Q46.8625 323.77814 46.378124 324.7Q45.89375 325.6219 44.971874 326.1375Q44.065624 326.6375 42.971874 326.6375Q41.2375 326.6375 40.159374 325.52814Q39.08125 324.40314 39.08125 322.29376ZM40.534374 322.29376Q40.534374 323.8875 41.221874 324.6844Q41.925 325.48126 42.971874 325.48126Q44.01875 325.48126 44.70625 324.6844Q45.409374 323.8875 45.409374 322.2469Q45.409374 320.71564 44.70625 319.91876Q44.01875 319.1219 42.971874 319.1219Q41.925 319.1219 41.221874 319.91876Q40.534374 320.7 40.534374 322.29376ZM48.6125 329.6375L48.6125 318.15314L49.89375 318.15314L49.89375 319.23126Q50.346874 318.59064 50.909374 318.27814Q51.4875 317.96564 52.3 317.96564Q53.3625 317.96564 54.175 318.5125Q54.9875 319.0594 55.39375 320.0594Q55.815624 321.04376 55.815624 322.23126Q55.815624 323.5125 55.346874 324.52814Q54.89375 325.54376 54.01875 326.09064Q53.159374 326.6375 52.190624 326.6375Q51.4875 326.6375 50.925 326.34064Q50.378124 326.04376 50.01875 325.59064L50.01875 329.6375L48.6125 329.6375ZM49.878124 322.34064Q49.878124 323.95 50.51875 324.71564Q51.175 325.48126 52.096874 325.48126Q53.034374 325.48126 53.70625 324.6844Q54.378124 323.8875 54.378124 322.23126Q54.378124 320.6375 53.721874 319.85626Q53.065624 319.0594 52.159374 319.0594Q51.26875 319.0594 50.565624 319.90314Q49.878124 320.7469 49.878124 322.34064ZM57.58125 326.45L57.58125 314.9969L58.9875 314.9969L58.9875 326.45L57.58125 326.45ZM67.28438 323.77814L68.7375 323.95Q68.39375 325.23126 67.45625 325.9344Q66.53438 326.6375 65.09688 326.6375Q63.26875 326.6375 62.20625 325.5125Q61.14375 324.3875 61.14375 322.3719Q61.14375 320.27814 62.221874 319.1219Q63.3 317.96564 65.01875 317.96564Q66.675 317.96564 67.72188 319.10626Q68.78438 320.23126 68.78438 322.27814Q68.78438 322.40314 68.78438 322.65314L62.596874 322.65314Q62.675 324.02814 63.3625 324.7625Q64.06563 325.48126 65.09688 325.48126Q65.87813 325.48126 66.425 325.075Q66.97188 324.66876 67.28438 323.77814ZM62.675 321.4969L67.3 321.4969Q67.20625 320.45 66.76875 319.9344Q66.09688 319.1219 65.03438 319.1219Q64.06563 319.1219 63.39375 319.77814Q62.7375 320.41876 62.675 321.4969Z" fill-rule="nonzero"/><path fill="#9e9e9e" d="M26.6125 347.09064L26.6125 348.45L19.034374 348.45Q19.01875 347.9344 19.20625 347.46564Q19.4875 346.7 20.128124 345.95Q20.76875 345.2 21.971874 344.21564Q23.83125 342.6844 24.4875 341.79376Q25.14375 340.8875 25.14375 340.09064Q25.14375 339.2625 24.55 338.6844Q23.95625 338.10626 22.9875 338.10626Q21.971874 338.10626 21.3625 338.71564Q20.753124 339.325 20.753124 340.40314L19.3 340.2625Q19.45625 338.6375 20.425 337.79376Q21.39375 336.95 23.01875 336.95Q24.675 336.95 25.628124 337.8719Q26.596874 338.77814 26.596874 340.1219Q26.596874 340.8094 26.315624 341.48126Q26.034374 342.1375 25.378124 342.8719Q24.721874 343.60626 23.20625 344.8875Q21.940624 345.95 21.58125 346.34064Q21.221874 346.71564 20.9875 347.09064L26.6125 347.09064ZM28.221874 345.45L29.690624 345.325Q29.8625 346.40314 30.45625 346.95Q31.05 347.48126 31.89375 347.48126Q32.909374 347.48126 33.6125 346.71564Q34.315624 345.95 34.315624 344.6844Q34.315624 343.48126 33.64375 342.79376Q32.971874 342.09064 31.878124 342.09064Q31.190624 342.09064 30.64375 342.40314Q30.096874 342.71564 29.784374 343.2L28.471874 343.02814L29.58125 337.15314L35.26875 337.15314L35.26875 338.4969L30.70625 338.4969L30.08125 341.575Q31.1125 340.85626 32.253124 340.85626Q33.753124 340.85626 34.784374 341.90314Q35.815624 342.9344 35.815624 344.5594Q35.815624 346.1219 34.909374 347.2469Q33.8 348.65314 31.89375 348.65314Q30.33125 348.65314 29.346874 347.77814Q28.3625 346.8875 28.221874 345.45ZM38.003124 348.45L38.003124 346.84064L39.6125 346.84064L39.6125 348.45L38.003124 348.45ZM41.221874 342.79376Q41.221874 340.7625 41.628124 339.52814Q42.05 338.29376 42.878124 337.6219Q43.70625 336.95 44.95625 336.95Q45.878124 336.95 46.565624 337.325Q47.26875 337.6844 47.721874 338.3875Q48.175 339.09064 48.425 340.09064Q48.690624 341.09064 48.690624 342.79376Q48.690624 344.8094 48.26875 346.0594Q47.8625 347.29376 47.034374 347.98126Q46.20625 348.65314 44.95625 348.65314Q43.3 348.65314 42.346874 347.45Q41.221874 346.02814 41.221874 342.79376ZM42.659374 342.79376Q42.659374 345.6219 43.315624 346.5594Q43.9875 347.48126 44.95625 347.48126Q45.925 347.48126 46.58125 346.54376Q47.2375 345.60626 47.2375 342.79376Q47.2375 339.96564 46.58125 339.04376Q45.925 338.10626 44.940624 338.10626Q43.971874 338.10626 43.39375 338.9344Q42.659374 339.98126 42.659374 342.79376ZM50.4875 339.7469Q50.4875 338.5125 51.096874 337.65314Q51.721874 336.79376 52.89375 336.79376Q53.971874 336.79376 54.675 337.575Q55.378124 338.34064 55.378124 339.825Q55.378124 341.27814 54.659374 342.075Q53.95625 342.85626 52.909374 342.85626Q51.8625 342.85626 51.175 342.09064Q50.4875 341.3094 50.4875 339.7469ZM52.925 337.7625Q52.409374 337.7625 52.05 338.21564Q51.70625 338.66876 51.70625 339.8875Q51.70625 340.98126 52.05 341.4344Q52.409374 341.8875 52.925 341.8875Q53.45625 341.8875 53.8 341.4344Q54.159374 340.98126 54.159374 339.77814Q54.159374 338.66876 53.8 338.21564Q53.45625 337.7625 52.925 337.7625ZM52.940624 348.8719L59.20625 336.79376L60.346874 336.79376L54.096874 348.8719L52.940624 348.8719ZM57.89375 345.7625Q57.89375 344.52814 58.503124 343.66876Q59.128124 342.8094 60.3 342.8094Q61.378124 342.8094 62.08125 343.59064Q62.8 344.35626 62.8 345.84064Q62.8 347.29376 62.08125 348.09064Q61.3625 348.8719 60.315624 348.8719Q59.26875 348.8719 58.58125 348.09064Q57.89375 347.3094 57.89375 345.7625ZM60.346874 343.77814Q59.815624 343.77814 59.45625 344.23126Q59.1125 344.6844 59.1125 345.90314Q59.1125 346.9969 59.45625 347.45Q59.815624 347.90314 60.33125 347.90314Q60.878124 347.90314 61.221874 347.45Q61.565624 346.9969 61.565624 345.79376Q61.565624 344.6844 61.20625 344.23126Q60.8625 343.77814 60.346874 343.77814Z" fill-rule="nonzero"/><path stroke="#757575" stroke-width="1.0" stroke-linecap="butt" d="M18.55 331.95L145.23334 331.95L263.42154 340.196" fill-rule="nonzero"/><path fill="#9e9e9e" d="M265.42154 340.196C265.42154 339.09146 264.5261 338.196 263.42154 338.196C262.31696 338.196 261.42154 339.09146 261.42154 340.196C261.42154 341.3006 262.31696 342.196 263.42154 342.196C264.5261 342.196 265.42154 341.3006 265.42154 340.196" fill-rule="nonzero"/><path fill="#efefef" d="M490.23126 64.33854Q490.23126 61.479164 491.7625 59.86979Q493.29376 58.260414 495.71564 58.260414Q497.29376 58.260414 498.5594 59.02604Q499.84064 59.77604 500.5125 61.135414Q501.1844 62.479164 501.1844 64.197914Q501.1844 65.947914 500.48126 67.322914Q499.77814 68.697914 498.48126 69.416664Q497.2 70.11979 495.7 70.11979Q494.09064 70.11979 492.8094 69.33854Q491.54376 68.541664 490.8875 67.197914Q490.23126 65.83854 490.23126 64.33854ZM491.79376 64.354164Q491.79376 66.43229 492.90314 67.61979Q494.0125 68.80729 495.7 68.80729Q497.40314 68.80729 498.5125 67.604164Q499.6219 66.40104 499.6219 64.197914Q499.6219 62.791664 499.1375 61.760414Q498.66876 60.71354 497.7625 60.135414Q496.85626 59.55729 495.71564 59.55729Q494.10626 59.55729 492.95 60.666664Q491.79376 61.77604 491.79376 64.354164ZM502.4969 69.916664L502.4969 61.61979L503.7625 61.61979L503.7625 62.86979Q504.2469 61.99479 504.65314 61.71354Q505.0594 61.43229 505.5594 61.43229Q506.2625 61.43229 506.9969 61.885414L506.5125 63.18229Q505.9969 62.885414 505.48126 62.885414Q505.02814 62.885414 504.65314 63.166664Q504.29376 63.43229 504.1375 63.93229Q503.90314 64.68229 503.90314 65.572914L503.90314 69.916664L502.4969 69.916664ZM510.575 68.65104L510.77814 69.90104Q510.1844 70.02604 509.71564 70.02604Q508.95 70.02604 508.52814 69.791664Q508.10626 69.541664 507.9344 69.15104Q507.7625 68.74479 507.7625 67.479164L507.7625 62.71354L506.73126 62.71354L506.73126 61.61979L507.7625 61.61979L507.7625 59.55729L509.16876 58.71354L509.16876 61.61979L510.575 61.61979L510.575 62.71354L509.16876 62.71354L509.16876 67.55729Q509.16876 68.166664 509.23126 68.33854Q509.3094 68.510414 509.48126 68.61979Q509.65314 68.71354 509.96564 68.71354Q510.2 68.71354 510.575 68.65104ZM511.5125 69.916664L511.5125 58.46354L512.91876 58.46354L512.91876 62.572914Q513.90314 61.43229 515.40314 61.43229Q516.325 61.43229 516.9969 61.791664Q517.6844 62.15104 517.96564 62.791664Q518.2625 63.43229 518.2625 64.65104L518.2625 69.916664L516.85626 69.916664L516.85626 64.65104Q516.85626 63.604164 516.40314 63.11979Q515.95 62.635414 515.10626 62.635414Q514.48126 62.635414 513.9344 62.96354Q513.3875 63.291664 513.15314 63.854164Q512.91876 64.40104 512.91876 65.36979L512.91876 69.916664L511.5125 69.916664ZM519.98126 65.760414Q519.98126 63.46354 521.2625 62.354164Q522.34064 61.43229 523.8719 61.43229Q525.59064 61.43229 526.66876 62.55729Q527.7625 63.666664 527.7625 65.65104Q527.7625 67.24479 527.27814 68.166664Q526.79376 69.08854 525.8719 69.604164Q524.96564 70.104164 523.8719 70.104164Q522.1375 70.104164 521.0594 68.99479Q519.98126 67.86979 519.98126 65.760414ZM521.4344 65.760414Q521.4344 67.354164 522.1219 68.15104Q522.825 68.947914 523.8719 68.947914Q524.91876 68.947914 525.60626 68.15104Q526.3094 67.354164 526.3094 65.71354Q526.3094 64.18229 525.60626 63.385414Q524.91876 62.58854 523.8719 62.58854Q522.825 62.58854 522.1219 63.385414Q521.4344 64.166664 521.4344 65.760414ZM529.2469 70.604164L530.6219 70.80729Q530.7 71.447914 531.09064 71.729164Q531.6219 72.11979 532.52814 72.11979Q533.4969 72.11979 534.02814 71.729164Q534.5594 71.33854 534.7469 70.635414Q534.85626 70.21354 534.85626 68.822914Q533.9344 69.916664 532.5594 69.916664Q530.84064 69.916664 529.90314 68.68229Q528.96564 67.447914 528.96564 65.71354Q528.96564 64.52604 529.3875 63.52604Q529.825 62.52604 530.6375 61.979164Q531.46564 61.43229 532.5594 61.43229Q534.02814 61.43229 534.98126 62.61979L534.98126 61.61979L536.27814 61.61979L536.27814 68.791664Q536.27814 70.729164 535.8875 71.541664Q535.4969 72.354164 534.6375 72.822914Q533.77814 73.291664 532.52814 73.291664Q531.04376 73.291664 530.1219 72.61979Q529.21564 71.947914 529.2469 70.604164ZM530.41876 65.61979Q530.41876 67.24479 531.0594 67.99479Q531.71564 68.74479 532.6844 68.74479Q533.65314 68.74479 534.3094 68.010414Q534.96564 67.260414 534.96564 65.666664Q534.96564 64.135414 534.29376 63.36979Q533.6219 62.58854 532.66876 62.58854Q531.73126 62.58854 531.075 63.354164Q530.41876 64.11979 530.41876 65.61979ZM538.4969 69.916664L538.4969 61.61979L539.7625 61.61979L539.7625 62.86979Q540.2469 61.99479 540.65314 61.71354Q541.0594 61.43229 541.5594 61.43229Q542.2625 61.43229 542.9969 61.885414L542.5125 63.18229Q541.9969 62.885414 541.48126 62.885414Q541.02814 62.885414 540.65314 63.166664Q540.29376 63.43229 540.1375 63.93229Q539.90314 64.68229 539.90314 65.572914L539.90314 69.916664L538.4969 69.916664ZM548.91876 68.885414Q548.1375 69.55729 547.41876 69.83854Q546.7 70.104164 545.8719 70.104164Q544.4969 70.104164 543.7625 69.43229Q543.02814 68.760414 543.02814 67.729164Q543.02814 67.11979 543.3094 66.61979Q543.59064 66.104164 544.02814 65.80729Q544.48126 65.49479 545.04376 65.33854Q545.46564 65.229164 546.29376 65.135414Q547.9969 64.93229 548.8094 64.65104Q548.8094 64.354164 548.8094 64.27604Q548.8094 63.416664 548.41876 63.072914Q547.8719 62.58854 546.8094 62.58854Q545.825 62.58854 545.34064 62.947914Q544.8719 63.291664 544.65314 64.166664L543.27814 63.979164Q543.46564 63.104164 543.8875 62.55729Q544.325 62.010414 545.1375 61.729164Q545.95 61.43229 547.0125 61.43229Q548.075 61.43229 548.73126 61.68229Q549.40314 61.93229 549.71564 62.30729Q550.02814 62.68229 550.15314 63.260414Q550.23126 63.61979 550.23126 64.55729L550.23126 66.43229Q550.23126 68.40104 550.3094 68.916664Q550.40314 69.43229 550.66876 69.916664L549.2 69.916664Q548.98126 69.479164 548.91876 68.885414ZM548.8094 65.74479Q548.04376 66.05729 546.5125 66.27604Q545.6375 66.40104 545.27814 66.55729Q544.91876 66.71354 544.71564 67.02604Q544.52814 67.322914 544.52814 67.68229Q544.52814 68.24479 544.95 68.61979Q545.3875 68.99479 546.2 68.99479Q547.0125 68.99479 547.6375 68.65104Q548.27814 68.291664 548.575 67.666664Q548.8094 67.197914 548.8094 66.260414L548.8094 65.74479ZM552.5125 73.104164L552.5125 61.61979L553.79376 61.61979L553.79376 62.697914Q554.2469 62.05729 554.8094 61.74479Q555.3875 61.43229 556.2 61.43229Q557.2625 61.43229 558.075 61.979164Q558.8875 62.52604 559.29376 63.52604Q559.71564 64.510414 559.71564 65.697914Q559.71564 66.979164 559.2469 67.99479Q558.79376 69.010414 557.91876 69.55729Q557.0594 70.104164 556.09064 70.104164Q555.3875 70.104164 554.825 69.80729Q554.27814 69.510414 553.91876 69.05729L553.91876 73.104164L552.5125 73.104164ZM553.77814 65.80729Q553.77814 67.416664 554.41876 68.18229Q555.075 68.947914 555.9969 68.947914Q556.9344 68.947914 557.60626 68.15104Q558.27814 67.354164 558.27814 65.697914Q558.27814 64.104164 557.6219 63.322914Q556.96564 62.52604 556.0594 62.52604Q555.16876 62.52604 554.46564 63.36979Q553.77814 64.21354 553.77814 65.80729ZM561.5125 69.916664L561.5125 58.46354L562.91876 58.46354L562.91876 62.572914Q563.90314 61.43229 565.40314 61.43229Q566.325 61.43229 566.9969 61.791664Q567.6844 62.15104 567.96564 62.791664Q568.2625 63.43229 568.2625 64.65104L568.2625 69.916664L566.85626 69.916664L566.85626 64.65104Q566.85626 63.604164 566.40314 63.11979Q565.95 62.635414 565.10626 62.635414Q564.48126 62.635414 563.9344 62.96354Q563.3875 63.291664 563.15314 63.854164Q562.91876 64.40104 562.91876 65.36979L562.91876 69.916664L561.5125 69.916664ZM570.5125 60.072914L570.5125 58.46354L571.91876 58.46354L571.91876 60.072914L570.5125 60.072914ZM570.5125 69.916664L570.5125 61.61979L571.91876 61.61979L571.91876 69.916664L570.5125 69.916664ZM579.91876 66.86979L581.3094 67.05729Q581.075 68.479164 580.1375 69.291664Q579.21564 70.104164 577.85626 70.104164Q576.15314 70.104164 575.10626 68.99479Q574.075 67.86979 574.075 65.791664Q574.075 64.447914 574.5125 63.447914Q574.96564 62.43229 575.8719 61.93229Q576.79376 61.43229 577.85626 61.43229Q579.21564 61.43229 580.075 62.11979Q580.9344 62.791664 581.16876 64.05729L579.8094 64.260414Q579.60626 63.43229 579.10626 63.010414Q578.6219 62.58854 577.91876 62.58854Q576.85626 62.58854 576.1844 63.354164Q575.52814 64.104164 575.52814 65.760414Q575.52814 67.43229 576.16876 68.197914Q576.8094 68.947914 577.84064 68.947914Q578.66876 68.947914 579.21564 68.447914Q579.77814 67.93229 579.91876 66.86979Z" fill-rule="nonzero"/><path fill="#9e9e9e" d="M548.27814 85.697914Q547.40314 85.385414 546.98126 84.791664Q546.5594 84.197914 546.5594 83.36979Q546.5594 82.11979 547.45 81.27604Q548.35626 80.416664 549.85626 80.416664Q551.35626 80.416664 552.2625 81.291664Q553.1844 82.15104 553.1844 83.40104Q553.1844 84.197914 552.7625 84.791664Q552.34064 85.385414 551.4969 85.697914Q552.54376 86.041664 553.09064 86.80729Q553.65314 87.572914 553.65314 88.635414Q553.65314 90.104164 552.60626 91.11979Q551.575 92.11979 549.8719 92.11979Q548.1844 92.11979 547.1375 91.11979Q546.10626 90.104164 546.10626 88.604164Q546.10626 87.479164 546.66876 86.729164Q547.23126 85.979164 548.27814 85.697914ZM547.9969 83.322914Q547.9969 84.135414 548.5125 84.65104Q549.04376 85.166664 549.8875 85.166664Q550.7 85.166664 551.21564 84.65104Q551.73126 84.135414 551.73126 83.40104Q551.73126 82.61979 551.2 82.104164Q550.66876 81.572914 549.8719 81.572914Q549.0594 81.572914 548.52814 82.08854Q547.9969 82.604164 547.9969 83.322914ZM547.54376 88.604164Q547.54376 89.21354 547.825 89.77604Q548.1219 90.33854 548.6844 90.65104Q549.2469 90.947914 549.8875 90.947914Q550.90314 90.947914 551.5594 90.30729Q552.21564 89.65104 552.21564 88.65104Q552.21564 87.635414 551.52814 86.979164Q550.85626 86.30729 549.84064 86.30729Q548.85626 86.30729 548.2 86.96354Q547.54376 87.61979 547.54376 88.604164ZM555.90314 91.916664L555.90314 90.30729L557.5125 90.30729L557.5125 91.916664L555.90314 91.916664ZM559.1219 88.885414L560.52814 88.697914Q560.77814 89.90104 561.35626 90.43229Q561.9344 90.947914 562.77814 90.947914Q563.7625 90.947914 564.45 90.260414Q565.1375 89.572914 565.1375 88.55729Q565.1375 87.58854 564.4969 86.96354Q563.8719 86.33854 562.8875 86.33854Q562.4969 86.33854 561.90314 86.49479L562.0594 85.260414Q562.2 85.27604 562.27814 85.27604Q563.1844 85.27604 563.90314 84.80729Q564.6219 84.33854 564.6219 83.354164Q564.6219 82.58854 564.09064 82.08854Q563.575 81.572914 562.7469 81.572914Q561.91876 81.572914 561.3719 82.08854Q560.825 82.604164 560.66876 83.635414L559.2625 83.385414Q559.52814 81.96354 560.4344 81.197914Q561.35626 80.416664 562.71564 80.416664Q563.65314 80.416664 564.4344 80.822914Q565.23126 81.21354 565.6375 81.916664Q566.0594 82.604164 566.0594 83.385414Q566.0594 84.135414 565.65314 84.74479Q565.2625 85.354164 564.48126 85.71354Q565.4969 85.947914 566.0594 86.68229Q566.6219 87.416664 566.6219 88.52604Q566.6219 90.02604 565.52814 91.072914Q564.4344 92.11979 562.7625 92.11979Q561.2625 92.11979 560.2625 91.229164Q559.2625 90.322914 559.1219 88.885414ZM568.3875 83.21354Q568.3875 81.979164 568.9969 81.11979Q569.6219 80.260414 570.79376 80.260414Q571.8719 80.260414 572.575 81.041664Q573.27814 81.80729 573.27814 83.291664Q573.27814 84.74479 572.5594 85.541664Q571.85626 86.322914 570.8094 86.322914Q569.7625 86.322914 569.075 85.55729Q568.3875 84.77604 568.3875 83.21354ZM570.825 81.229164Q570.3094 81.229164 569.95 81.68229Q569.60626 82.135414 569.60626 83.354164Q569.60626 84.447914 569.95 84.90104Q570.3094 85.354164 570.825 85.354164Q571.35626 85.354164 571.7 84.90104Q572.0594 84.447914 572.0594 83.24479Q572.0594 82.135414 571.7 81.68229Q571.35626 81.229164 570.825 81.229164ZM570.84064 92.33854L577.10626 80.260414L578.2469 80.260414L571.9969 92.33854L570.84064 92.33854ZM575.79376 89.229164Q575.79376 87.99479 576.40314 87.135414Q577.02814 86.27604 578.2 86.27604Q579.27814 86.27604 579.98126 87.05729Q580.7 87.822914 580.7 89.30729Q580.7 90.760414 579.98126 91.55729Q579.2625 92.33854 578.21564 92.33854Q577.16876 92.33854 576.48126 91.55729Q575.79376 90.77604 575.79376 89.229164ZM578.2469 87.24479Q577.71564 87.24479 577.35626 87.697914Q577.0125 88.15104 577.0125 89.36979Q577.0125 90.46354 577.35626 90.916664Q577.71564 91.36979 578.23126 91.36979Q578.77814 91.36979 579.1219 90.916664Q579.46564 90.46354 579.46564 89.260414Q579.46564 88.15104 579.10626 87.697914Q578.7625 87.24479 578.2469 87.24479Z" fill-rule="nonzero"/><path stroke="#757575" stroke-width="1.0" stroke-linecap="butt" d="M581.45 75.416664L454.76666 75.416664L336.57846 67.17065" fill-rule="nonzero"/><path fill="#9e9e9e" d="M338.57846 67.17065C338.57846 66.06608 337.68304 65.17065 336.57846 65.17065C335.4739 65.17065 334.57846 66.06608 334.57846 67.17065C334.57846 68.275215 335.4739 69.17065 336.57846 69.17065C337.68304 69.17065 338.57846 68.275215 338.57846 67.17065" fill-rule="nonzero"/><path fill="#efefef" d="M498.6844 161.60487L498.6844 150.15175L503.0125 150.15175Q504.15314 150.15175 504.7469 150.26112Q505.59064 150.40175 506.15314 150.79237Q506.73126 151.183 507.075 151.90175Q507.4344 152.60487 507.4344 153.46425Q507.4344 154.91737 506.4969 155.933Q505.575 156.94862 503.1375 156.94862L500.2 156.94862L500.2 161.60487L498.6844 161.60487ZM500.2 155.58925L503.16876 155.58925Q504.6375 155.58925 505.2469 155.04237Q505.8719 154.4955 505.8719 153.51112Q505.8719 152.79237 505.4969 152.27675Q505.1375 151.76112 504.54376 151.60487Q504.16876 151.4955 503.1375 151.4955L500.2 151.4955L500.2 155.58925ZM515.1844 158.933L516.6375 159.10487Q516.29376 160.38612 515.35626 161.08925Q514.4344 161.79237 512.9969 161.79237Q511.16876 161.79237 510.10626 160.66737Q509.04376 159.54237 509.04376 157.52675Q509.04376 155.433 510.1219 154.27675Q511.2 153.1205 512.91876 153.1205Q514.575 153.1205 515.6219 154.26112Q516.6844 155.38612 516.6844 157.433Q516.6844 157.558 516.6844 157.808L510.4969 157.808Q510.575 159.183 511.2625 159.91737Q511.96564 160.63612 512.9969 160.63612Q513.77814 160.63612 514.325 160.22987Q514.8719 159.82362 515.1844 158.933ZM510.575 156.65175L515.2 156.65175Q515.10626 155.60487 514.66876 155.08925Q513.9969 154.27675 512.9344 154.27675Q511.96564 154.27675 511.29376 154.933Q510.6375 155.57362 510.575 156.65175ZM518.4969 161.60487L518.4969 153.308L519.7625 153.308L519.7625 154.558Q520.2469 153.683 520.65314 153.40175Q521.0594 153.1205 521.5594 153.1205Q522.2625 153.1205 522.9969 153.57362L522.5125 154.8705Q521.9969 154.57362 521.48126 154.57362Q521.02814 154.57362 520.65314 154.85487Q520.29376 155.1205 520.1375 155.6205Q519.90314 156.3705 519.90314 157.26112L519.90314 161.60487L518.4969 161.60487ZM522.95 159.1205L524.34064 158.90175Q524.45 159.7455 524.98126 160.19862Q525.52814 160.63612 526.48126 160.63612Q527.45 160.63612 527.91876 160.2455Q528.3875 159.83925 528.3875 159.308Q528.3875 158.83925 527.98126 158.558Q527.6844 158.3705 526.54376 158.08925Q524.9969 157.69862 524.3875 157.41737Q523.79376 157.1205 523.48126 156.6205Q523.1844 156.1205 523.1844 155.51112Q523.1844 154.94862 523.4344 154.47987Q523.6844 154.01112 524.1219 153.69862Q524.45 153.44862 525.0125 153.29237Q525.59064 153.1205 526.23126 153.1205Q527.21564 153.1205 527.95 153.40175Q528.6844 153.683 529.02814 154.16737Q529.3875 154.63612 529.52814 155.44862L528.15314 155.63612Q528.0594 154.9955 527.60626 154.63612Q527.15314 154.27675 526.34064 154.27675Q525.3719 154.27675 524.95 154.60487Q524.54376 154.91737 524.54376 155.33925Q524.54376 155.6205 524.71564 155.83925Q524.8875 156.058 525.2469 156.21425Q525.46564 156.29237 526.4969 156.57362Q527.98126 156.96425 528.575 157.22987Q529.16876 157.47987 529.4969 157.96425Q529.84064 158.44862 529.84064 159.16737Q529.84064 159.8705 529.41876 160.4955Q529.0125 161.10487 528.23126 161.44862Q527.46564 161.79237 526.4969 161.79237Q524.8719 161.79237 524.02814 161.1205Q523.1844 160.44862 522.95 159.1205ZM531.5125 164.79237L531.5125 153.308L532.79376 153.308L532.79376 154.38612Q533.2469 153.7455 533.8094 153.433Q534.3875 153.1205 535.2 153.1205Q536.2625 153.1205 537.075 153.66737Q537.8875 154.21425 538.29376 155.21425Q538.71564 156.19862 538.71564 157.38612Q538.71564 158.66737 538.2469 159.683Q537.79376 160.69862 536.91876 161.2455Q536.0594 161.79237 535.09064 161.79237Q534.3875 161.79237 533.825 161.4955Q533.27814 161.19862 532.91876 160.7455L532.91876 164.79237L531.5125 164.79237ZM532.77814 157.4955Q532.77814 159.10487 533.41876 159.8705Q534.075 160.63612 534.9969 160.63612Q535.9344 160.63612 536.60626 159.83925Q537.27814 159.04237 537.27814 157.38612Q537.27814 155.79237 536.6219 155.01112Q535.96564 154.21425 535.0594 154.21425Q534.16876 154.21425 533.46564 155.058Q532.77814 155.90175 532.77814 157.4955ZM546.1844 158.933L547.6375 159.10487Q547.29376 160.38612 546.35626 161.08925Q545.4344 161.79237 543.9969 161.79237Q542.16876 161.79237 541.10626 160.66737Q540.04376 159.54237 540.04376 157.52675Q540.04376 155.433 541.1219 154.27675Q542.2 153.1205 543.91876 153.1205Q545.575 153.1205 546.6219 154.26112Q547.6844 155.38612 547.6844 157.433Q547.6844 157.558 547.6844 157.808L541.4969 157.808Q541.575 159.183 542.2625 159.91737Q542.96564 160.63612 543.9969 160.63612Q544.77814 160.63612 545.325 160.22987Q545.8719 159.82362 546.1844 158.933ZM541.575 156.65175L546.2 156.65175Q546.10626 155.60487 545.66876 155.08925Q544.9969 154.27675 543.9344 154.27675Q542.96564 154.27675 542.29376 154.933Q541.6375 155.57362 541.575 156.65175ZM554.91876 158.558L556.3094 158.7455Q556.075 160.16737 555.1375 160.97987Q554.21564 161.79237 552.85626 161.79237Q551.15314 161.79237 550.10626 160.683Q549.075 159.558 549.075 157.47987Q549.075 156.13612 549.5125 155.13612Q549.96564 154.1205 550.8719 153.6205Q551.79376 153.1205 552.85626 153.1205Q554.21564 153.1205 555.075 153.808Q555.9344 154.47987 556.16876 155.7455L554.8094 155.94862Q554.60626 155.1205 554.10626 154.69862Q553.6219 154.27675 552.91876 154.27675Q551.85626 154.27675 551.1844 155.04237Q550.52814 155.79237 550.52814 157.44862Q550.52814 159.1205 551.16876 159.88612Q551.8094 160.63612 552.84064 160.63612Q553.66876 160.63612 554.21564 160.13612Q554.77814 159.6205 554.91876 158.558ZM560.575 160.33925L560.77814 161.58925Q560.1844 161.71425 559.71564 161.71425Q558.95 161.71425 558.52814 161.47987Q558.10626 161.22987 557.9344 160.83925Q557.7625 160.433 557.7625 159.16737L557.7625 154.40175L556.73126 154.40175L556.73126 153.308L557.7625 153.308L557.7625 151.2455L559.16876 150.40175L559.16876 153.308L560.575 153.308L560.575 154.40175L559.16876 154.40175L559.16876 159.2455Q559.16876 159.85487 559.23126 160.02675Q559.3094 160.19862 559.48126 160.308Q559.65314 160.40175 559.96564 160.40175Q560.2 160.40175 560.575 160.33925ZM561.5125 151.76112L561.5125 150.15175L562.91876 150.15175L562.91876 151.76112L561.5125 151.76112ZM561.5125 161.60487L561.5125 153.308L562.91876 153.308L562.91876 161.60487L561.5125 161.60487ZM567.8094 161.60487L564.65314 153.308L566.1375 153.308L567.91876 158.27675Q568.21564 159.07362 568.45 159.94862Q568.6375 159.29237 568.98126 158.3705L570.825 153.308L572.2625 153.308L569.1219 161.60487L567.8094 161.60487ZM579.1844 158.933L580.6375 159.10487Q580.29376 160.38612 579.35626 161.08925Q578.4344 161.79237 576.9969 161.79237Q575.16876 161.79237 574.10626 160.66737Q573.04376 159.54237 573.04376 157.52675Q573.04376 155.433 574.1219 154.27675Q575.2 153.1205 576.91876 153.1205Q578.575 153.1205 579.6219 154.26112Q580.6844 155.38612 580.6844 157.433Q580.6844 157.558 580.6844 157.808L574.4969 157.808Q574.575 159.183 575.2625 159.91737Q575.96564 160.63612 576.9969 160.63612Q577.77814 160.63612 578.325 160.22987Q578.8719 159.82362 579.1844 158.933ZM574.575 156.65175L579.2 156.65175Q579.10626 155.60487 578.66876 155.08925Q577.9969 154.27675 576.9344 154.27675Q575.96564 154.27675 575.29376 154.933Q574.6375 155.57362 574.575 156.65175Z" fill-rule="nonzero"/><path fill="#9e9e9e" d="M544.5125 182.2455L544.5125 183.60487L536.9344 183.60487Q536.91876 183.08925 537.10626 182.6205Q537.3875 181.85487 538.02814 181.10487Q538.66876 180.35487 539.8719 179.3705Q541.73126 177.83925 542.3875 176.94862Q543.04376 176.04237 543.04376 175.2455Q543.04376 174.41737 542.45 173.83925Q541.85626 173.26112 540.8875 173.26112Q539.8719 173.26112 539.2625 173.8705Q538.65314 174.47987 538.65314 175.558L537.2 175.41737Q537.35626 173.79237 538.325 172.94862Q539.29376 172.10487 540.91876 172.10487Q542.575 172.10487 543.52814 173.02675Q544.4969 173.933 544.4969 175.27675Q544.4969 175.96425 544.21564 176.63612Q543.9344 177.29237 543.27814 178.02675Q542.6219 178.76112 541.10626 180.04237Q539.84064 181.10487 539.48126 181.4955Q539.1219 181.8705 538.8875 182.2455L544.5125 182.2455ZM546.1219 180.60487L547.59064 180.47987Q547.7625 181.558 548.35626 182.10487Q548.95 182.63612 549.79376 182.63612Q550.8094 182.63612 551.5125 181.8705Q552.21564 181.10487 552.21564 179.83925Q552.21564 178.63612 551.54376 177.94862Q550.8719 177.2455 549.77814 177.2455Q549.09064 177.2455 548.54376 177.558Q547.9969 177.8705 547.6844 178.35487L546.3719 178.183L547.48126 172.308L553.16876 172.308L553.16876 173.65175L548.60626 173.65175L547.98126 176.72987Q549.0125 176.01112 550.15314 176.01112Q551.65314 176.01112 552.6844 177.058Q553.71564 178.08925 553.71564 179.71425Q553.71564 181.27675 552.8094 182.40175Q551.7 183.808 549.79376 183.808Q548.23126 183.808 547.2469 182.933Q546.2625 182.04237 546.1219 180.60487ZM555.90314 183.60487L555.90314 181.9955L557.5125 181.9955L557.5125 183.60487L555.90314 183.60487ZM559.1219 177.94862Q559.1219 175.91737 559.52814 174.683Q559.95 173.44862 560.77814 172.77675Q561.60626 172.10487 562.85626 172.10487Q563.77814 172.10487 564.46564 172.47987Q565.16876 172.83925 565.6219 173.54237Q566.075 174.2455 566.325 175.2455Q566.59064 176.2455 566.59064 177.94862Q566.59064 179.96425 566.16876 181.21425Q565.7625 182.44862 564.9344 183.13612Q564.10626 183.808 562.85626 183.808Q561.2 183.808 560.2469 182.60487Q559.1219 181.183 559.1219 177.94862ZM560.5594 177.94862Q560.5594 180.77675 561.21564 181.71425Q561.8875 182.63612 562.85626 182.63612Q563.825 182.63612 564.48126 181.69862Q565.1375 180.76112 565.1375 177.94862Q565.1375 175.1205 564.48126 174.19862Q563.825 173.26112 562.84064 173.26112Q561.8719 173.26112 561.29376 174.08925Q560.5594 175.13612 560.5594 177.94862ZM568.3875 174.90175Q568.3875 173.66737 568.9969 172.808Q569.6219 171.94862 570.79376 171.94862Q571.8719 171.94862 572.575 172.72987Q573.27814 173.4955 573.27814 174.97987Q573.27814 176.433 572.5594 177.22987Q571.85626 178.01112 570.8094 178.01112Q569.7625 178.01112 569.075 177.2455Q568.3875 176.46425 568.3875 174.90175ZM570.825 172.91737Q570.3094 172.91737 569.95 173.3705Q569.60626 173.82362 569.60626 175.04237Q569.60626 176.13612 569.95 176.58925Q570.3094 177.04237 570.825 177.04237Q571.35626 177.04237 571.7 176.58925Q572.0594 176.13612 572.0594 174.933Q572.0594 173.82362 571.7 173.3705Q571.35626 172.91737 570.825 172.91737ZM570.84064 184.02675L577.10626 171.94862L578.2469 171.94862L571.9969 184.02675L570.84064 184.02675ZM575.79376 180.91737Q575.79376 179.683 576.40314 178.82362Q577.02814 177.96425 578.2 177.96425Q579.27814 177.96425 579.98126 178.7455Q580.7 179.51112 580.7 180.9955Q580.7 182.44862 579.98126 183.2455Q579.2625 184.02675 578.21564 184.02675Q577.16876 184.02675 576.48126 183.2455Q575.79376 182.46425 575.79376 180.91737ZM578.2469 178.933Q577.71564 178.933 577.35626 179.38612Q577.0125 179.83925 577.0125 181.058Q577.0125 182.15175 577.35626 182.60487Q577.71564 183.058 578.23126 183.058Q578.77814 183.058 579.1219 182.60487Q579.46564 182.15175 579.46564 180.94862Q579.46564 179.83925 579.10626 179.38612Q578.7625 178.933 578.2469 178.933Z" fill-rule="nonzero"/><path stroke="#757575" stroke-width="1.0" stroke-linecap="butt" d="M581.45 167.10487L454.76666 167.10487L436.5127 167.10487" fill-rule="nonzero"/><path fill="#9e9e9e" d="M438.5127 167.10487C438.5127 166.0003 437.61725 165.10487 436.5127 165.10487C435.4081 165.10487 434.5127 166.0003 434.5127 167.10487C434.5127 168.20944 435.4081 169.10487 436.5127 169.10487C437.61725 169.10487 438.5127 168.20944 438.5127 167.10487" fill-rule="nonzero"/><path fill="#efefef" d="M532.6844 298.11755L532.6844 286.66443L536.6375 286.66443Q537.96564 286.66443 538.66876 286.82068Q539.65314 287.05505 540.35626 287.6488Q541.2625 288.41443 541.7 289.60193Q542.15314 290.78943 542.15314 292.32068Q542.15314 293.63318 541.84064 294.6488Q541.54376 295.6488 541.0594 296.30505Q540.59064 296.9613 540.02814 297.35193Q539.46564 297.72693 538.65314 297.93005Q537.85626 298.11755 536.825 298.11755L532.6844 298.11755ZM534.2 296.75818L536.65314 296.75818Q537.77814 296.75818 538.41876 296.55505Q539.075 296.3363 539.45 295.9613Q539.9969 295.41443 540.29376 294.50818Q540.59064 293.60193 540.59064 292.30505Q540.59064 290.50818 539.9969 289.53943Q539.41876 288.57068 538.575 288.24255Q537.96564 288.00818 536.60626 288.00818L534.2 288.00818L534.2 296.75818ZM550.1844 295.44568L551.6375 295.61755Q551.29376 296.8988 550.35626 297.60193Q549.4344 298.30505 547.9969 298.30505Q546.16876 298.30505 545.10626 297.18005Q544.04376 296.05505 544.04376 294.03943Q544.04376 291.94568 545.1219 290.78943Q546.2 289.63318 547.91876 289.63318Q549.575 289.63318 550.6219 290.7738Q551.6844 291.8988 551.6844 293.94568Q551.6844 294.07068 551.6844 294.32068L545.4969 294.32068Q545.575 295.69568 546.2625 296.43005Q546.96564 297.1488 547.9969 297.1488Q548.77814 297.1488 549.325 296.74255Q549.8719 296.3363 550.1844 295.44568ZM545.575 293.16443L550.2 293.16443Q550.10626 292.11755 549.66876 291.60193Q548.9969 290.78943 547.9344 290.78943Q546.96564 290.78943 546.29376 291.44568Q545.6375 292.0863 545.575 293.16443ZM556.575 296.85193L556.77814 298.10193Q556.1844 298.22693 555.71564 298.22693Q554.95 298.22693 554.52814 297.99255Q554.10626 297.74255 553.9344 297.35193Q553.7625 296.94568 553.7625 295.68005L553.7625 290.91443L552.73126 290.91443L552.73126 289.82068L553.7625 289.82068L553.7625 287.75818L555.16876 286.91443L555.16876 289.82068L556.575 289.82068L556.575 290.91443L555.16876 290.91443L555.16876 295.75818Q555.16876 296.36755 555.23126 296.53943Q555.3094 296.7113 555.48126 296.82068Q555.65314 296.91443 555.96564 296.91443Q556.2 296.91443 556.575 296.85193ZM562.91876 297.0863Q562.1375 297.75818 561.41876 298.03943Q560.7 298.30505 559.8719 298.30505Q558.4969 298.30505 557.7625 297.63318Q557.02814 296.9613 557.02814 295.93005Q557.02814 295.32068 557.3094 294.82068Q557.59064 294.30505 558.02814 294.00818Q558.48126 293.69568 559.04376 293.53943Q559.46564 293.43005 560.29376 293.3363Q561.9969 293.13318 562.8094 292.85193Q562.8094 292.55505 562.8094 292.47693Q562.8094 291.61755 562.41876 291.2738Q561.8719 290.78943 560.8094 290.78943Q559.825 290.78943 559.34064 291.1488Q558.8719 291.49255 558.65314 292.36755L557.27814 292.18005Q557.46564 291.30505 557.8875 290.75818Q558.325 290.2113 559.1375 289.93005Q559.95 289.63318 561.0125 289.63318Q562.075 289.63318 562.73126 289.88318Q563.40314 290.13318 563.71564 290.50818Q564.02814 290.88318 564.15314 291.4613Q564.23126 291.82068 564.23126 292.75818L564.23126 294.63318Q564.23126 296.60193 564.3094 297.11755Q564.40314 297.63318 564.66876 298.11755L563.2 298.11755Q562.98126 297.68005 562.91876 297.0863ZM562.8094 293.94568Q562.04376 294.25818 560.5125 294.47693Q559.6375 294.60193 559.27814 294.75818Q558.91876 294.91443 558.71564 295.22693Q558.52814 295.5238 558.52814 295.88318Q558.52814 296.44568 558.95 296.82068Q559.3875 297.19568 560.2 297.19568Q561.0125 297.19568 561.6375 296.85193Q562.27814 296.49255 562.575 295.86755Q562.8094 295.3988 562.8094 294.4613L562.8094 293.94568ZM566.5125 288.2738L566.5125 286.66443L567.91876 286.66443L567.91876 288.2738L566.5125 288.2738ZM566.5125 298.11755L566.5125 289.82068L567.91876 289.82068L567.91876 298.11755L566.5125 298.11755ZM570.48126 298.11755L570.48126 286.66443L571.8875 286.66443L571.8875 298.11755L570.48126 298.11755ZM573.95 295.63318L575.34064 295.41443Q575.45 296.25818 575.98126 296.7113Q576.52814 297.1488 577.48126 297.1488Q578.45 297.1488 578.91876 296.75818Q579.3875 296.35193 579.3875 295.82068Q579.3875 295.35193 578.98126 295.07068Q578.6844 294.88318 577.54376 294.60193Q575.9969 294.2113 575.3875 293.93005Q574.79376 293.63318 574.48126 293.13318Q574.1844 292.63318 574.1844 292.0238Q574.1844 291.4613 574.4344 290.99255Q574.6844 290.5238 575.1219 290.2113Q575.45 289.9613 576.0125 289.80505Q576.59064 289.63318 577.23126 289.63318Q578.21564 289.63318 578.95 289.91443Q579.6844 290.19568 580.02814 290.68005Q580.3875 291.1488 580.52814 291.9613L579.15314 292.1488Q579.0594 291.50818 578.60626 291.1488Q578.15314 290.78943 577.34064 290.78943Q576.3719 290.78943 575.95 291.11755Q575.54376 291.43005 575.54376 291.85193Q575.54376 292.13318 575.71564 292.35193Q575.8875 292.57068 576.2469 292.72693Q576.46564 292.80505 577.4969 293.0863Q578.98126 293.47693 579.575 293.74255Q580.16876 293.99255 580.4969 294.47693Q580.84064 294.9613 580.84064 295.68005Q580.84064 296.38318 580.41876 297.00818Q580.0125 297.61755 579.23126 297.9613Q578.46564 298.30505 577.4969 298.30505Q575.8719 298.30505 575.02814 297.63318Q574.1844 296.9613 573.95 295.63318Z" fill-rule="nonzero"/><path fill="#9e9e9e" d="M548.27814 313.8988Q547.40314 313.5863 546.98126 312.99255Q546.5594 312.3988 546.5594 311.57068Q546.5594 310.32068 547.45 309.47693Q548.35626 308.61755 549.85626 308.61755Q551.35626 308.61755 552.2625 309.49255Q553.1844 310.35193 553.1844 311.60193Q553.1844 312.3988 552.7625 312.99255Q552.34064 313.5863 551.4969 313.8988Q552.54376 314.24255 553.09064 315.00818Q553.65314 315.7738 553.65314 316.8363Q553.65314 318.30505 552.60626 319.32068Q551.575 320.32068 549.8719 320.32068Q548.1844 320.32068 547.1375 319.32068Q546.10626 318.30505 546.10626 316.80505Q546.10626 315.68005 546.66876 314.93005Q547.23126 314.18005 548.27814 313.8988ZM547.9969 311.5238Q547.9969 312.3363 548.5125 312.85193Q549.04376 313.36755 549.8875 313.36755Q550.7 313.36755 551.21564 312.85193Q551.73126 312.3363 551.73126 311.60193Q551.73126 310.82068 551.2 310.30505Q550.66876 309.7738 549.8719 309.7738Q549.0594 309.7738 548.52814 310.28943Q547.9969 310.80505 547.9969 311.5238ZM547.54376 316.80505Q547.54376 317.41443 547.825 317.97693Q548.1219 318.53943 548.6844 318.85193Q549.2469 319.1488 549.8875 319.1488Q550.90314 319.1488 551.5594 318.50818Q552.21564 317.85193 552.21564 316.85193Q552.21564 315.8363 551.52814 315.18005Q550.85626 314.50818 549.84064 314.50818Q548.85626 314.50818 548.2 315.16443Q547.54376 315.82068 547.54376 316.80505ZM555.90314 320.11755L555.90314 318.50818L557.5125 318.50818L557.5125 320.11755L555.90314 320.11755ZM559.1219 317.0863L560.52814 316.8988Q560.77814 318.10193 561.35626 318.63318Q561.9344 319.1488 562.77814 319.1488Q563.7625 319.1488 564.45 318.4613Q565.1375 317.7738 565.1375 316.75818Q565.1375 315.78943 564.4969 315.16443Q563.8719 314.53943 562.8875 314.53943Q562.4969 314.53943 561.90314 314.69568L562.0594 313.4613Q562.2 313.47693 562.27814 313.47693Q563.1844 313.47693 563.90314 313.00818Q564.6219 312.53943 564.6219 311.55505Q564.6219 310.78943 564.09064 310.28943Q563.575 309.7738 562.7469 309.7738Q561.91876 309.7738 561.3719 310.28943Q560.825 310.80505 560.66876 311.8363L559.2625 311.5863Q559.52814 310.16443 560.4344 309.3988Q561.35626 308.61755 562.71564 308.61755Q563.65314 308.61755 564.4344 309.0238Q565.23126 309.41443 565.6375 310.11755Q566.0594 310.80505 566.0594 311.5863Q566.0594 312.3363 565.65314 312.94568Q565.2625 313.55505 564.48126 313.91443Q565.4969 314.1488 566.0594 314.88318Q566.6219 315.61755 566.6219 316.72693Q566.6219 318.22693 565.52814 319.2738Q564.4344 320.32068 562.7625 320.32068Q561.2625 320.32068 560.2625 319.43005Q559.2625 318.5238 559.1219 317.0863ZM568.3875 311.41443Q568.3875 310.18005 568.9969 309.32068Q569.6219 308.4613 570.79376 308.4613Q571.8719 308.4613 572.575 309.24255Q573.27814 310.00818 573.27814 311.49255Q573.27814 312.94568 572.5594 313.74255Q571.85626 314.5238 570.8094 314.5238Q569.7625 314.5238 569.075 313.75818Q568.3875 312.97693 568.3875 311.41443ZM570.825 309.43005Q570.3094 309.43005 569.95 309.88318Q569.60626 310.3363 569.60626 311.55505Q569.60626 312.6488 569.95 313.10193Q570.3094 313.55505 570.825 313.55505Q571.35626 313.55505 571.7 313.10193Q572.0594 312.6488 572.0594 311.44568Q572.0594 310.3363 571.7 309.88318Q571.35626 309.43005 570.825 309.43005ZM570.84064 320.53943L577.10626 308.4613L578.2469 308.4613L571.9969 320.53943L570.84064 320.53943ZM575.79376 317.43005Q575.79376 316.19568 576.40314 315.3363Q577.02814 314.47693 578.2 314.47693Q579.27814 314.47693 579.98126 315.25818Q580.7 316.0238 580.7 317.50818Q580.7 318.9613 579.98126 319.75818Q579.2625 320.53943 578.21564 320.53943Q577.16876 320.53943 576.48126 319.75818Q575.79376 318.97693 575.79376 317.43005ZM578.2469 315.44568Q577.71564 315.44568 577.35626 315.8988Q577.0125 316.35193 577.0125 317.57068Q577.0125 318.66443 577.35626 319.11755Q577.71564 319.57068 578.23126 319.57068Q578.77814 319.57068 579.1219 319.11755Q579.46564 318.66443 579.46564 317.4613Q579.46564 316.35193 579.10626 315.8988Q578.7625 315.44568 578.2469 315.44568Z" fill-rule="nonzero"/><path stroke="#757575" stroke-width="1.0" stroke-linecap="butt" d="M581.45 303.61755L454.76666 303.61755L399.93423 303.61755" fill-rule="nonzero"/><path fill="#9e9e9e" d="M401.93423 303.61755C401.93423 302.513 401.0388 301.61755 399.93423 301.61755C398.82965 301.61755 397.93423 302.513 397.93423 303.61755C397.93423 304.72214 398.82965 305.61755 399.93423 305.61755C401.0388 305.61755 401.93423 304.72214 401.93423 303.61755" fill-rule="nonzero"/><path fill="#f3f3f3" d="M265.98438 37.55L265.98438 23.2375L268.84375 23.2375L272.21875 33.3625Q272.6875 34.784374 272.90625 35.4875Q273.15625 34.70625 273.67188 33.190624L277.09375 23.2375L279.64062 23.2375L279.64062 37.55L277.82812 37.55L277.82812 25.565624L273.65625 37.55L271.95312 37.55L267.8125 25.3625L267.8125 37.55L265.98438 37.55ZM289.92188 34.20625L291.73438 34.440624Q291.3125 36.01875 290.14062 36.909374Q288.98438 37.784374 287.17188 37.784374Q284.90625 37.784374 283.5625 36.39375Q282.23438 34.9875 282.23438 32.45625Q282.23438 29.83125 283.57812 28.39375Q284.92188 26.940624 287.07812 26.940624Q289.15625 26.940624 290.46875 28.3625Q291.79688 29.76875 291.79688 32.346874Q291.79688 32.503124 291.78125 32.815624L284.04688 32.815624Q284.14062 34.51875 285.01562 35.425Q285.89062 36.33125 287.1875 36.33125Q288.15625 36.33125 288.82812 35.83125Q289.51562 35.315624 289.92188 34.20625ZM284.14062 31.3625L289.9375 31.3625Q289.82812 30.065624 289.28125 29.409374Q288.4375 28.39375 287.09375 28.39375Q285.89062 28.39375 285.0625 29.20625Q284.23438 30.003124 284.14062 31.3625ZM300.54688 37.55L300.54688 36.2375Q299.5625 37.784374 297.64062 37.784374Q296.40625 37.784374 295.35938 37.096874Q294.32812 36.409374 293.75 35.190624Q293.1875 33.971874 293.1875 32.378124Q293.1875 30.815624 293.70312 29.55Q294.21875 28.284374 295.25 27.6125Q296.29688 26.940624 297.5625 26.940624Q298.5 26.940624 299.23438 27.346874Q299.96875 27.7375 300.4375 28.3625L300.4375 23.2375L302.17188 23.2375L302.17188 37.55L300.54688 37.55ZM294.98438 32.378124Q294.98438 34.3625 295.82812 35.346874Q296.67188 36.33125 297.8125 36.33125Q298.96875 36.33125 299.76562 35.39375Q300.57812 34.45625 300.57812 32.51875Q300.57812 30.39375 299.75 29.39375Q298.9375 28.39375 297.73438 28.39375Q296.5625 28.39375 295.76562 29.3625Q294.98438 30.315624 294.98438 32.378124ZM304.82812 25.253124L304.82812 23.2375L306.59375 23.2375L306.59375 25.253124L304.82812 25.253124ZM304.82812 37.55L304.82812 27.175L306.59375 27.175L306.59375 37.55L304.82812 37.55ZM315.60938 37.55L315.60938 36.01875Q314.40625 37.784374 312.32812 37.784374Q311.40625 37.784374 310.60938 37.440624Q309.8125 37.08125 309.42188 36.55Q309.04688 36.01875 308.89062 35.2375Q308.78125 34.721874 308.78125 33.596874L308.78125 27.175L310.53125 27.175L310.53125 32.925Q310.53125 34.3 310.64062 34.784374Q310.8125 35.471874 311.34375 35.878124Q311.89062 36.26875 312.67188 36.26875Q313.46875 36.26875 314.15625 35.8625Q314.85938 35.45625 315.14062 34.76875Q315.4375 34.065624 315.4375 32.7375L315.4375 27.175L317.1875 27.175L317.1875 37.55L315.60938 37.55ZM319.8125 37.55L319.8125 27.175L321.39062 27.175L321.39062 28.628124Q321.875 27.878124 322.6875 27.409374Q323.5 26.940624 324.53125 26.940624Q325.6875 26.940624 326.42188 27.425Q327.15625 27.89375 327.46875 28.753124Q328.70312 26.940624 330.67188 26.940624Q332.21875 26.940624 333.04688 27.8Q333.875 28.659374 333.875 30.425L333.875 37.55L332.125 37.55L332.125 31.01875Q332.125 29.95625 331.95312 29.503124Q331.78125 29.034374 331.32812 28.753124Q330.89062 28.471874 330.28125 28.471874Q329.1875 28.471874 328.45312 29.20625Q327.73438 29.925 327.73438 31.51875L327.73438 37.55L325.98438 37.55L325.98438 30.815624Q325.98438 29.64375 325.54688 29.065624Q325.125 28.471874 324.14062 28.471874Q323.40625 28.471874 322.76562 28.8625Q322.14062 29.253124 321.85938 30.003124Q321.57812 30.753124 321.57812 32.175L321.57812 37.55L319.8125 37.55Z" fill-rule="nonzero"/></svg>