<svg version="1.1" viewBox="0.0 0.0 600.0 371.0" fill="none" stroke="none" stroke-linecap="square" stroke-miterlimit="10" width="600" height="371" xmlns:xlink="http://www.w3.org/1999/xlink" xmlns="http://www.w3.org/2000/svg"><path fill="#ffffff" fill-opacity="0.0" d="M0 0L600.0 0L600.0 371.0L0 371.0L0 0Z" fill-rule="nonzero"/><path fill="#304388" d="M300.0 54.916668C307.60315 54.916668 315.1951 55.499535 322.70914 56.66015L305.67728 166.92754C303.79877 166.63739 301.9008 166.49167 300.0 166.49167Z" fill-rule="nonzero"/><path fill="#313d89" d="M322.70914 56.66015C326.46475 57.240242 330.1968 57.964027 333.897 58.82991L308.47424 167.46997C307.5492 167.25351 306.61618 167.07256 305.67728 166.92754Z" fill-rule="nonzero"/><path fill="#533990" d="M333.897 58.82991C383.01343 70.32359 422.95956 105.92347 440.01025 153.39769L335.00256 191.11192C330.7399 179.24336 320.75336 170.3434 308.47424 167.46997Z" fill-rule="nonzero"/><path fill="#f7d750" d="M288.61203 55.353176C292.40103 55.06228 296.19983 54.916668 300.0 54.916668L300.0 166.49167C299.04996 166.49167 298.10025 166.52808 297.153 166.6008Z" fill-rule="nonzero"/><path fill="#e5a345" d="M188.93776 302.66162C151.30838 260.43817 140.87627 200.52936 162.01855 148.07181C183.16084 95.61427 232.22012 59.68264 288.61203 55.353176L297.153 166.6008C283.05502 167.68317 270.79022 176.66606 265.50464 189.78046C260.21906 202.89484 262.8271 217.87204 272.23444 228.4279Z" fill-rule="nonzero"/><path fill="#df8d43" d="M244.38847 341.6648C223.14943 333.10468 204.17317 319.75708 188.93776 302.66162L272.23444 228.4279C276.0433 232.70177 280.78735 236.03867 286.0971 238.1787Z" fill-rule="nonzero"/><path fill="#d8753e" d="M288.61203 352.0135C273.42804 350.84775 258.5131 347.3575 244.38847 341.6648L286.0971 238.1787C289.62827 239.60188 293.35703 240.47444 297.153 240.76587Z" fill-rule="nonzero"/><path fill="#cf4366" d="M440.01025 153.39769C457.06094 200.87192 448.8931 253.75226 418.31308 293.86948C387.73306 333.98666 338.90732 355.87488 288.61203 352.0135L297.153 240.76587C309.72684 241.73122 321.93326 236.25917 329.57828 226.22987C337.22327 216.20056 339.26523 202.98048 335.00256 191.11192Z" fill-rule="nonzero"/><path fill="#ffffff" d="M349.30978 133.76173L347.73166 133.76173L347.73166 123.68361Q347.15353 124.230484 346.23166 124.77736Q345.30978 125.30861 344.55978 125.58986L344.55978 124.05861Q345.8879 123.43361 346.8879 122.542984Q347.8879 121.65236 348.29416 120.824234L349.30978 120.824234L349.30978 133.76173ZM353.35666 130.38673L355.0129 130.24611Q355.2004 131.46486 355.87228 132.07423Q356.54416 132.68361 357.49728 132.68361Q358.6379 132.68361 359.41916 131.82423Q360.21603 130.96486 360.21603 129.52736Q360.21603 128.18361 359.4504 127.40236Q358.7004 126.62111 357.46603 126.62111Q356.7004 126.62111 356.0754 126.96486Q355.46603 127.30861 355.12228 127.87111L353.6379 127.667984L354.8879 121.05861L361.29416 121.05861L361.29416 122.55861L356.15353 122.55861L355.4504 126.02736Q356.62228 125.21486 357.8879 125.21486Q359.5754 125.21486 360.73166 126.386734Q361.90353 127.55861 361.90353 129.38673Q361.90353 131.13673 360.87228 132.41798Q359.6379 133.98048 357.49728 133.98048Q355.73166 133.98048 354.62228 132.99611Q353.5129 132.01173 353.35666 130.38673ZM364.24728 133.76173L364.24728 131.96486L366.04416 131.96486L366.04416 133.76173L364.24728 133.76173ZM368.59103 130.77736L370.10666 130.63673Q370.30978 131.71486 370.84103 132.19923Q371.3879 132.68361 372.24728 132.68361Q372.98166 132.68361 373.52853 132.35548Q374.0754 132.01173 374.41916 131.46486Q374.77853 130.90236 375.0129 129.94923Q375.24728 128.99611 375.24728 128.01173Q375.24728 127.90236 375.24728 127.699234Q374.7629 128.44923 373.93478 128.91798Q373.12228 129.38673 372.16916 129.38673Q370.5754 129.38673 369.46603 128.23048Q368.35666 127.074234 368.35666 125.167984Q368.35666 123.21486 369.5129 122.02736Q370.66916 120.824234 372.40353 120.824234Q373.66916 120.824234 374.7004 121.511734Q375.74728 122.18361 376.27853 123.43361Q376.8254 124.68361 376.8254 127.05861Q376.8254 129.52736 376.27853 130.99611Q375.74728 132.44923 374.68478 133.21486Q373.6379 133.98048 372.21603 133.98048Q370.7004 133.98048 369.73166 133.15236Q368.77853 132.30861 368.59103 130.77736ZM375.0754 125.08986Q375.0754 123.730484 374.34103 122.93361Q373.62228 122.136734 372.60666 122.136734Q371.54416 122.136734 370.7629 122.99611Q369.98166 123.855484 369.98166 125.230484Q369.98166 126.46486 370.71603 127.230484Q371.46603 127.99611 372.55978 127.99611Q373.65353 127.99611 374.35666 127.230484Q375.0754 126.46486 375.0754 125.08986ZM378.65353 123.96486Q378.65353 122.58986 379.34103 121.62111Q380.04416 120.65236 381.35666 120.65236Q382.5754 120.65236 383.37228 121.52736Q384.16916 122.386734 384.16916 124.074234Q384.16916 125.699234 383.35666 126.58986Q382.55978 127.46486 381.37228 127.46486Q380.21603 127.46486 379.43478 126.605484Q378.65353 125.730484 378.65353 123.96486ZM381.40353 121.74611Q380.80978 121.74611 380.41916 122.261734Q380.02853 122.761734 380.02853 124.12111Q380.02853 125.37111 380.41916 125.87111Q380.8254 126.37111 381.40353 126.37111Q381.99728 126.37111 382.3879 125.87111Q382.77853 125.355484 382.77853 124.011734Q382.77853 122.761734 382.3879 122.261734Q381.99728 121.74611 381.40353 121.74611ZM381.41916 134.23048L388.46603 120.65236L389.74728 120.65236L382.71603 134.23048L381.41916 134.23048ZM386.98166 130.73048Q386.98166 129.35548 387.66916 128.38673Q388.37228 127.417984 389.7004 127.417984Q390.91916 127.417984 391.7004 128.29298Q392.49728 129.15236 392.49728 130.83986Q392.49728 132.46486 391.7004 133.35548Q390.90353 134.23048 389.71603 134.23048Q388.54416 134.23048 387.7629 133.35548Q386.98166 132.48048 386.98166 130.73048ZM389.74728 128.51173Q389.15353 128.51173 388.7629 129.02736Q388.37228 129.52736 388.37228 130.90236Q388.37228 132.12111 388.7629 132.63673Q389.15353 133.15236 389.73166 133.15236Q390.34103 133.15236 390.73166 132.63673Q391.12228 132.12111 391.12228 130.77736Q391.12228 129.52736 390.73166 129.02736Q390.34103 128.51173 389.74728 128.51173Z" fill-rule="nonzero"/><path fill="#ffffff" d="M355.7411 268.13278L357.33484 267.92966Q357.60046 269.2734 358.2567 269.86716Q358.91296 270.4609 359.85046 270.4609Q360.97546 270.4609 361.7411 269.69528Q362.5067 268.91403 362.5067 267.7734Q362.5067 266.67966 361.78796 265.97653Q361.08484 265.25778 359.9911 265.25778Q359.53796 265.25778 358.8661 265.44528L359.03796 264.05466Q359.1942 264.07028 359.3036 264.07028Q360.3036 264.07028 361.1161 263.53903Q361.9286 263.00778 361.9286 261.91403Q361.9286 261.03903 361.33484 260.47653Q360.7411 259.8984 359.8192 259.8984Q358.89734 259.8984 358.27234 260.47653Q357.66296 261.05466 357.4911 262.22653L355.91296 261.94528Q356.1942 260.35153 357.22546 259.47653Q358.2567 258.60153 359.78796 258.60153Q360.83484 258.60153 361.72546 259.05466Q362.6161 259.50778 363.08484 260.28903Q363.5536 261.07028 363.5536 261.94528Q363.5536 262.78903 363.10046 263.47653Q362.66296 264.1484 361.77234 264.55466Q362.91296 264.82028 363.53796 265.66403Q364.1786 266.49216 364.1786 267.72653Q364.1786 269.41403 362.9442 270.60153Q361.72546 271.7734 359.85046 271.7734Q358.14734 271.7734 357.02234 270.75778Q355.91296 269.74216 355.7411 268.13278ZM371.6942 271.53903L370.1161 271.53903L370.1161 261.4609Q369.53796 262.00778 368.6161 262.55466Q367.6942 263.0859 366.9442 263.36716L366.9442 261.8359Q368.27234 261.2109 369.27234 260.32028Q370.27234 259.42966 370.6786 258.60153L371.6942 258.60153L371.6942 271.53903ZM376.6317 271.53903L376.6317 269.74216L378.4286 269.74216L378.4286 271.53903L376.6317 271.53903ZM380.85046 260.3359L380.85046 258.82028L389.1786 258.82028L389.1786 260.05466Q387.95984 261.36716 386.7411 263.53903Q385.53796 265.69528 384.8817 267.99216Q384.39734 269.61716 384.27234 271.53903L382.64734 271.53903Q382.6786 270.0234 383.2411 267.86716Q383.8192 265.7109 384.8817 263.7109Q385.9442 261.7109 387.14734 260.3359L380.85046 260.3359ZM391.03796 261.74216Q391.03796 260.36716 391.72546 259.3984Q392.4286 258.42966 393.7411 258.42966Q394.95984 258.42966 395.7567 259.30466Q396.5536 260.16403 396.5536 261.85153Q396.5536 263.47653 395.7411 264.36716Q394.9442 265.24216 393.7567 265.24216Q392.60046 265.24216 391.8192 264.38278Q391.03796 263.50778 391.03796 261.74216ZM393.78796 259.5234Q393.1942 259.5234 392.8036 260.03903Q392.41296 260.53903 392.41296 261.8984Q392.41296 263.1484 392.8036 263.6484Q393.20984 264.1484 393.78796 264.1484Q394.3817 264.1484 394.77234 263.6484Q395.16296 263.13278 395.16296 261.78903Q395.16296 260.53903 394.77234 260.03903Q394.3817 259.5234 393.78796 259.5234ZM393.8036 272.00778L400.85046 258.42966L402.1317 258.42966L395.10046 272.00778L393.8036 272.00778ZM399.3661 268.50778Q399.3661 267.13278 400.0536 266.16403Q400.7567 265.19528 402.08484 265.19528Q403.3036 265.19528 404.08484 266.07028Q404.8817 266.92966 404.8817 268.61716Q404.8817 270.24216 404.08484 271.13278Q403.28796 272.00778 402.10046 272.00778Q400.9286 272.00778 400.14734 271.13278Q399.3661 270.25778 399.3661 268.50778ZM402.1317 266.28903Q401.53796 266.28903 401.14734 266.80466Q400.7567 267.30466 400.7567 268.67966Q400.7567 269.8984 401.14734 270.41403Q401.53796 270.92966 402.1161 270.92966Q402.72546 270.92966 403.1161 270.41403Q403.5067 269.8984 403.5067 268.55466Q403.5067 267.30466 403.1161 266.80466Q402.72546 266.28903 402.1317 266.28903Z" fill-rule="nonzero"/><path fill="#ffffff" d="M218.82034 286.47012L218.82034 284.9545L227.14847 284.9545L227.14847 286.18887Q225.92972 287.50137 224.71097 289.67325Q223.50784 291.8295 222.8516 294.12637Q222.36722 295.75137 222.24222 297.67325L220.61722 297.67325Q220.64847 296.15762 221.21097 294.00137Q221.7891 291.84512 222.8516 289.84512Q223.9141 287.84512 225.11722 286.47012L218.82034 286.47012ZM229.6016 297.67325L229.6016 295.87637L231.39847 295.87637L231.39847 297.67325L229.6016 297.67325ZM233.71097 294.267L235.30472 294.06387Q235.57034 295.40762 236.2266 296.00137Q236.88284 296.59512 237.82034 296.59512Q238.94534 296.59512 239.71097 295.8295Q240.4766 295.04825 240.4766 293.90762Q240.4766 292.81387 239.75784 292.11075Q239.05472 291.392 237.96097 291.392Q237.50784 291.392 236.83597 291.5795L237.00784 290.18887Q237.1641 290.2045 237.27347 290.2045Q238.27347 290.2045 239.08597 289.67325Q239.89847 289.142 239.89847 288.04825Q239.89847 287.17325 239.30472 286.61075Q238.71097 286.03262 237.7891 286.03262Q236.86722 286.03262 236.24222 286.61075Q235.63284 287.18887 235.46097 288.36075L233.88284 288.0795Q234.1641 286.48575 235.19534 285.61075Q236.2266 284.73575 237.75784 284.73575Q238.80472 284.73575 239.69534 285.18887Q240.58597 285.642 241.05472 286.42325Q241.52347 287.2045 241.52347 288.0795Q241.52347 288.92325 241.07034 289.61075Q240.63284 290.28262 239.74222 290.68887Q240.88284 290.9545 241.50784 291.79825Q242.14847 292.62637 242.14847 293.86075Q242.14847 295.54825 240.9141 296.73575Q239.69534 297.90762 237.82034 297.90762Q236.11722 297.90762 234.99222 296.892Q233.88284 295.87637 233.71097 294.267ZM244.00784 287.87637Q244.00784 286.50137 244.69534 285.53262Q245.39847 284.56387 246.71097 284.56387Q247.92972 284.56387 248.7266 285.43887Q249.52347 286.29825 249.52347 287.98575Q249.52347 289.61075 248.71097 290.50137Q247.9141 291.37637 246.7266 291.37637Q245.57034 291.37637 244.7891 290.517Q244.00784 289.642 244.00784 287.87637ZM246.75784 285.65762Q246.1641 285.65762 245.77347 286.17325Q245.38284 286.67325 245.38284 288.03262Q245.38284 289.28262 245.77347 289.78262Q246.17972 290.28262 246.75784 290.28262Q247.3516 290.28262 247.74222 289.78262Q248.13284 289.267 248.13284 287.92325Q248.13284 286.67325 247.74222 286.17325Q247.3516 285.65762 246.75784 285.65762ZM246.77347 298.142L253.82034 284.56387L255.1016 284.56387L248.07034 298.142L246.77347 298.142ZM252.33597 294.642Q252.33597 293.267 253.02347 292.29825Q253.7266 291.3295 255.05472 291.3295Q256.27347 291.3295 257.05472 292.2045Q257.8516 293.06387 257.8516 294.75137Q257.8516 296.37637 257.05472 297.267Q256.25784 298.142 255.07034 298.142Q253.89847 298.142 253.11722 297.267Q252.33597 296.392 252.33597 294.642ZM255.1016 292.42325Q254.50784 292.42325 254.11722 292.93887Q253.7266 293.43887 253.7266 294.81387Q253.7266 296.03262 254.11722 296.54825Q254.50784 297.06387 255.08597 297.06387Q255.69534 297.06387 256.08597 296.54825Q256.4766 296.03262 256.4766 294.68887Q256.4766 293.43887 256.08597 292.93887Q255.69534 292.42325 255.1016 292.42325Z" fill-rule="nonzero"/><path fill="#ffffff" d="M181.02394 168.80057L182.61769 168.59744Q182.88332 169.9412 183.53957 170.53494Q184.19582 171.1287 185.13332 171.1287Q186.25832 171.1287 187.02394 170.36307Q187.78957 169.58182 187.78957 168.4412Q187.78957 167.34744 187.07082 166.64432Q186.36769 165.92557 185.27394 165.92557Q184.82082 165.92557 184.14894 166.11307L184.32082 164.72244Q184.47707 164.73807 184.58644 164.73807Q185.58644 164.73807 186.39894 164.20682Q187.21144 163.67557 187.21144 162.58182Q187.21144 161.70682 186.61769 161.14432Q186.02394 160.5662 185.10207 160.5662Q184.18019 160.5662 183.55519 161.14432Q182.94582 161.72244 182.77394 162.89432L181.19582 162.61307Q181.47707 161.01932 182.50832 160.14432Q183.53957 159.26932 185.07082 159.26932Q186.11769 159.26932 187.00832 159.72244Q187.89894 160.17557 188.36769 160.95682Q188.83644 161.73807 188.83644 162.61307Q188.83644 163.45682 188.38332 164.14432Q187.94582 164.8162 187.05519 165.22244Q188.19582 165.48807 188.82082 166.33182Q189.46144 167.15994 189.46144 168.39432Q189.46144 170.08182 188.22707 171.26932Q187.00832 172.4412 185.13332 172.4412Q183.43019 172.4412 182.30519 171.42557Q181.19582 170.40994 181.02394 168.80057ZM191.02394 168.83182L192.68019 168.6912Q192.86769 169.90994 193.53957 170.51932Q194.21144 171.1287 195.16457 171.1287Q196.30519 171.1287 197.08644 170.26932Q197.88332 169.40994 197.88332 167.97244Q197.88332 166.6287 197.11769 165.84744Q196.36769 165.0662 195.13332 165.0662Q194.36769 165.0662 193.74269 165.40994Q193.13332 165.7537 192.78957 166.3162L191.30519 166.11307L192.55519 159.5037L198.96144 159.5037L198.96144 161.0037L193.82082 161.0037L193.11769 164.47244Q194.28957 163.65994 195.55519 163.65994Q197.24269 163.65994 198.39894 164.83182Q199.57082 166.0037 199.57082 167.83182Q199.57082 169.58182 198.53957 170.86307Q197.30519 172.42557 195.16457 172.42557Q193.39894 172.42557 192.28957 171.4412Q191.18019 170.45682 191.02394 168.83182ZM201.91457 172.20682L201.91457 170.40994L203.71144 170.40994L203.71144 172.20682L201.91457 172.20682ZM211.08644 172.20682L211.08644 169.1287L205.50832 169.1287L205.50832 167.67557L211.38332 159.3162L212.68019 159.3162L212.68019 167.67557L214.41457 167.67557L214.41457 169.1287L212.68019 169.1287L212.68019 172.20682L211.08644 172.20682ZM211.08644 167.67557L211.08644 161.86307L207.05519 167.67557L211.08644 167.67557ZM216.32082 162.40994Q216.32082 161.03494 217.00832 160.0662Q217.71144 159.09744 219.02394 159.09744Q220.24269 159.09744 221.03957 159.97244Q221.83644 160.83182 221.83644 162.51932Q221.83644 164.14432 221.02394 165.03494Q220.22707 165.90994 219.03957 165.90994Q217.88332 165.90994 217.10207 165.05057Q216.32082 164.17557 216.32082 162.40994ZM219.07082 160.1912Q218.47707 160.1912 218.08644 160.70682Q217.69582 161.20682 217.69582 162.5662Q217.69582 163.8162 218.08644 164.3162Q218.49269 164.8162 219.07082 164.8162Q219.66457 164.8162 220.05519 164.3162Q220.44582 163.80057 220.44582 162.45682Q220.44582 161.20682 220.05519 160.70682Q219.66457 160.1912 219.07082 160.1912ZM219.08644 172.67557L226.13332 159.09744L227.41457 159.09744L220.38332 172.67557L219.08644 172.67557ZM224.64894 169.17557Q224.64894 167.80057 225.33644 166.83182Q226.03957 165.86307 227.36769 165.86307Q228.58644 165.86307 229.36769 166.73807Q230.16457 167.59744 230.16457 169.28494Q230.16457 170.90994 229.36769 171.80057Q228.57082 172.67557 227.38332 172.67557Q226.21144 172.67557 225.43019 171.80057Q224.64894 170.92557 224.64894 169.17557ZM227.41457 166.95682Q226.82082 166.95682 226.43019 167.47244Q226.03957 167.97244 226.03957 169.34744Q226.03957 170.5662 226.43019 171.08182Q226.82082 171.59744 227.39894 171.59744Q228.00832 171.59744 228.39894 171.08182Q228.78957 170.5662 228.78957 169.22244Q228.78957 167.97244 228.39894 167.47244Q228.00832 166.95682 227.41457 166.95682Z" fill-rule="nonzero"/><path stroke="#ffffff" stroke-width="1.0" stroke-linejoin="round" stroke-linecap="round" d="M305.67728 166.92754C303.79877 166.63739 301.9008 166.49167 300.0 166.49167L300.0 54.916668C307.60315 54.916668 315.1951 55.499535 322.70914 56.66015" fill-rule="nonzero"/><path stroke="#ffffff" stroke-width="1.0" stroke-linejoin="round" stroke-linecap="round" d="M308.47424 167.46997C307.5492 167.25351 306.61618 167.07256 305.67728 166.92754L322.70914 56.66015C326.46475 57.240242 330.1968 57.964027 333.897 58.82991" fill-rule="nonzero"/><path stroke="#ffffff" stroke-width="1.0" stroke-linejoin="round" stroke-linecap="round" d="M335.00256 191.11192C330.7399 179.24336 320.75336 170.3434 308.47424 167.46997L333.897 58.82991C383.01343 70.32359 422.95956 105.92347 440.01025 153.39769" fill-rule="nonzero"/><path stroke="#ffffff" stroke-width="1.0" stroke-linejoin="round" stroke-linecap="round" d="M297.153 240.76587C309.72684 241.73122 321.93326 236.25917 329.57828 226.22987C337.22327 216.20056 339.26523 202.98048 335.00256 191.11192L440.01025 153.39769C457.06094 200.87192 448.8931 253.75226 418.31308 293.86948C387.73306 333.98666 338.90732 355.87488 288.61203 352.0135" fill-rule="nonzero"/><path stroke="#ffffff" stroke-width="1.0" stroke-linejoin="round" stroke-linecap="round" d="M286.0971 238.1787C289.62827 239.60188 293.35703 240.47444 297.153 240.76587L288.61203 352.0135C273.42804 350.84775 258.5131 347.3575 244.38847 341.6648" fill-rule="nonzero"/><path stroke="#ffffff" stroke-width="1.0" stroke-linejoin="round" stroke-linecap="round" d="M272.23444 228.4279C276.0433 232.70177 280.78735 236.03867 286.0971 238.1787L244.38847 341.6648C223.14943 333.10468 204.17317 319.75708 188.93776 302.66162" fill-rule="nonzero"/><path stroke="#ffffff" stroke-width="1.0" stroke-linejoin="round" stroke-linecap="round" d="M297.153 166.6008C283.05502 167.68317 270.79022 176.66606 265.50464 189.78046C260.21906 202.89484 262.8271 217.87204 272.23444 228.4279L188.93776 302.66162C151.30838 260.43817 140.87627 200.52936 162.01855 148.07181C183.16084 95.61427 232.22012 59.68264 288.61203 55.353176" fill-rule="nonzero"/><path stroke="#ffffff" stroke-width="1.0" stroke-linejoin="round" stroke-linecap="round" d="M300.0 166.49167C299.04996 166.49167 298.10025 166.52808 297.153 166.6008L288.61203 55.353176C292.40103 55.06228 296.19983 54.916668 300.0 54.916668" fill-rule="nonzero"/><path fill="#efefef" d="M19.784374 69.916664L19.784374 58.46354L24.1125 58.46354Q25.253124 58.46354 25.846874 58.572914Q26.690624 58.71354 27.253124 59.104164Q27.83125 59.49479 28.175 60.21354Q28.534374 60.916664 28.534374 61.77604Q28.534374 63.229164 27.596874 64.24479Q26.675 65.260414 24.2375 65.260414L21.3 65.260414L21.3 69.916664L19.784374 69.916664ZM21.3 63.90104L24.26875 63.90104Q25.7375 63.90104 26.346874 63.354164Q26.971874 62.80729 26.971874 61.822914Q26.971874 61.104164 26.596874 60.58854Q26.2375 60.072914 25.64375 59.916664Q25.26875 59.80729 24.2375 59.80729L21.3 59.80729L21.3 63.90104ZM36.01875 68.885414Q35.2375 69.55729 34.51875 69.83854Q33.8 70.104164 32.971874 70.104164Q31.596874 70.104164 30.8625 69.43229Q30.128124 68.760414 30.128124 67.729164Q30.128124 67.11979 30.409374 66.61979Q30.690624 66.104164 31.128124 65.80729Q31.58125 65.49479 32.14375 65.33854Q32.565624 65.229164 33.39375 65.135414Q35.096874 64.93229 35.909374 64.65104Q35.909374 64.354164 35.909374 64.27604Q35.909374 63.416664 35.51875 63.072914Q34.971874 62.58854 33.909374 62.58854Q32.925 62.58854 32.440624 62.947914Q31.971874 63.291664 31.753124 64.166664L30.378124 63.979164Q30.565624 63.104164 30.9875 62.55729Q31.425 62.010414 32.2375 61.729164Q33.05 61.43229 34.1125 61.43229Q35.175 61.43229 35.83125 61.68229Q36.503124 61.93229 36.815624 62.30729Q37.128124 62.68229 37.253124 63.260414Q37.33125 63.61979 37.33125 64.55729L37.33125 66.43229Q37.33125 68.40104 37.409374 68.916664Q37.503124 69.43229 37.76875 69.916664L36.3 69.916664Q36.08125 69.479164 36.01875 68.885414ZM35.909374 65.74479Q35.14375 66.05729 33.6125 66.27604Q32.7375 66.40104 32.378124 66.55729Q32.01875 66.71354 31.815624 67.02604Q31.628124 67.322914 31.628124 67.68229Q31.628124 68.24479 32.05 68.61979Q32.4875 68.99479 33.3 68.99479Q34.1125 68.99479 34.7375 68.65104Q35.378124 68.291664 35.675 67.666664Q35.909374 67.197914 35.909374 66.260414L35.909374 65.74479ZM39.346874 70.604164L40.721874 70.80729Q40.8 71.447914 41.190624 71.729164Q41.721874 72.11979 42.628124 72.11979Q43.596874 72.11979 44.128124 71.729164Q44.659374 71.33854 44.846874 70.635414Q44.95625 70.21354 44.95625 68.822914Q44.034374 69.916664 42.659374 69.916664Q40.940624 69.916664 40.003124 68.68229Q39.065624 67.447914 39.065624 65.71354Q39.065624 64.52604 39.4875 63.52604Q39.925 62.52604 40.7375 61.979164Q41.565624 61.43229 42.659374 61.43229Q44.128124 61.43229 45.08125 62.61979L45.08125 61.61979L46.378124 61.61979L46.378124 68.791664Q46.378124 70.729164 45.9875 71.541664Q45.596874 72.354164 44.7375 72.822914Q43.878124 73.291664 42.628124 73.291664Q41.14375 73.291664 40.221874 72.61979Q39.315624 71.947914 39.346874 70.604164ZM40.51875 65.61979Q40.51875 67.24479 41.159374 67.99479Q41.815624 68.74479 42.784374 68.74479Q43.753124 68.74479 44.409374 68.010414Q45.065624 67.260414 45.065624 65.666664Q45.065624 64.135414 44.39375 63.36979Q43.721874 62.58854 42.76875 62.58854Q41.83125 62.58854 41.175 63.354164Q40.51875 64.11979 40.51875 65.61979ZM54.284374 67.24479L55.7375 67.416664Q55.39375 68.697914 54.45625 69.40104Q53.534374 70.104164 52.096874 70.104164Q50.26875 70.104164 49.20625 68.979164Q48.14375 67.854164 48.14375 65.83854Q48.14375 63.74479 49.221874 62.58854Q50.3 61.43229 52.01875 61.43229Q53.675 61.43229 54.721874 62.572914Q55.784374 63.697914 55.784374 65.74479Q55.784374 65.86979 55.784374 66.11979L49.596874 66.11979Q49.675 67.49479 50.3625 68.229164Q51.065624 68.947914 52.096874 68.947914Q52.878124 68.947914 53.425 68.541664Q53.971874 68.135414 54.284374 67.24479ZM49.675 64.96354L54.3 64.96354Q54.20625 63.916664 53.76875 63.40104Q53.096874 62.58854 52.034374 62.58854Q51.065624 62.58854 50.39375 63.24479Q49.7375 63.885414 49.675 64.96354Z" fill-rule="nonzero"/><path fill="#9e9e9e" d="M24.51875 91.916664L23.1125 91.916664L23.1125 82.947914Q22.596874 83.43229 21.76875 83.916664Q20.95625 84.40104 20.3 84.65104L20.3 83.291664Q21.471874 82.729164 22.346874 81.947914Q23.2375 81.15104 23.6125 80.416664L24.51875 80.416664L24.51875 91.916664ZM29.003124 91.916664L29.003124 90.30729L30.6125 90.30729L30.6125 91.916664L29.003124 91.916664ZM39.6125 90.55729L39.6125 91.916664L32.034374 91.916664Q32.01875 91.40104 32.20625 90.93229Q32.4875 90.166664 33.128124 89.416664Q33.76875 88.666664 34.971874 87.68229Q36.83125 86.15104 37.4875 85.260414Q38.14375 84.354164 38.14375 83.55729Q38.14375 82.729164 37.55 82.15104Q36.95625 81.572914 35.9875 81.572914Q34.971874 81.572914 34.3625 82.18229Q33.753124 82.791664 33.753124 83.86979L32.3 83.729164Q32.45625 82.104164 33.425 81.260414Q34.39375 80.416664 36.01875 80.416664Q37.675 80.416664 38.628124 81.33854Q39.596874 82.24479 39.596874 83.58854Q39.596874 84.27604 39.315624 84.947914Q39.034374 85.604164 38.378124 86.33854Q37.721874 87.072914 36.20625 88.354164Q34.940624 89.416664 34.58125 89.80729Q34.221874 90.18229 33.9875 90.55729L39.6125 90.55729ZM41.4875 83.21354Q41.4875 81.979164 42.096874 81.11979Q42.721874 80.260414 43.89375 80.260414Q44.971874 80.260414 45.675 81.041664Q46.378124 81.80729 46.378124 83.291664Q46.378124 84.74479 45.659374 85.541664Q44.95625 86.322914 43.909374 86.322914Q42.8625 86.322914 42.175 85.55729Q41.4875 84.77604 41.4875 83.21354ZM43.925 81.229164Q43.409374 81.229164 43.05 81.68229Q42.70625 82.135414 42.70625 83.354164Q42.70625 84.447914 43.05 84.90104Q43.409374 85.354164 43.925 85.354164Q44.45625 85.354164 44.8 84.90104Q45.159374 84.447914 45.159374 83.24479Q45.159374 82.135414 44.8 81.68229Q44.45625 81.229164 43.925 81.229164ZM43.940624 92.33854L50.20625 80.260414L51.346874 80.260414L45.096874 92.33854L43.940624 92.33854ZM48.89375 89.229164Q48.89375 87.99479 49.503124 87.135414Q50.128124 86.27604 51.3 86.27604Q52.378124 86.27604 53.08125 87.05729Q53.8 87.822914 53.8 89.30729Q53.8 90.760414 53.08125 91.55729Q52.3625 92.33854 51.315624 92.33854Q50.26875 92.33854 49.58125 91.55729Q48.89375 90.77604 48.89375 89.229164ZM51.346874 87.24479Q50.815624 87.24479 50.45625 87.697914Q50.1125 88.15104 50.1125 89.36979Q50.1125 90.46354 50.45625 90.916664Q50.815624 91.36979 51.33125 91.36979Q51.878124 91.36979 52.221874 90.916664Q52.565624 90.46354 52.565624 89.260414Q52.565624 88.15104 52.20625 87.697914Q51.8625 87.24479 51.346874 87.24479Z" fill-rule="nonzero"/><path stroke="#757575" stroke-width="1.0" stroke-linecap="butt" d="M18.55 75.416664L145.23334 75.416664L294.58673 62.45871" fill-rule="nonzero"/><path fill="#9e9e9e" d="M296.58673 62.45871C296.58673 61.35414 295.6913 60.45871 294.58673 60.45871C293.48218 60.45871 292.58673 61.35414 292.58673 62.45871C292.58673 63.56328 293.48218 64.45871 294.58673 64.45871C295.6913 64.45871 296.58673 63.56328 296.58673 62.45871" fill-rule="nonzero"/><path fill="#efefef" d="M27.3 133.89926L28.815624 133.89926L28.815624 140.50864Q28.815624 142.24301 28.425 143.25864Q28.034374 144.27426 27.01875 144.91489Q26.003124 145.55551 24.346874 145.55551Q22.7375 145.55551 21.70625 144.99301Q20.690624 144.43051 20.253124 143.38364Q19.815624 142.33676 19.815624 140.50864L19.815624 133.89926L21.33125 133.89926L21.33125 140.50864Q21.33125 141.99301 21.596874 142.71176Q21.878124 143.41489 22.55 143.80551Q23.2375 144.18051 24.20625 144.18051Q25.878124 144.18051 26.58125 143.43051Q27.3 142.66489 27.3 140.50864L27.3 133.89926ZM31.596874 145.35239L31.596874 137.05551L32.8625 137.05551L32.8625 138.30551Q33.346874 137.43051 33.753124 137.14926Q34.159374 136.86801 34.659374 136.86801Q35.3625 136.86801 36.096874 137.32114L35.6125 138.61801Q35.096874 138.32114 34.58125 138.32114Q34.128124 138.32114 33.753124 138.60239Q33.39375 138.86801 33.2375 139.36801Q33.003124 140.11801 33.003124 141.00864L33.003124 145.35239L31.596874 145.35239ZM37.909374 145.35239L36.596874 145.35239L36.596874 133.89926L38.003124 133.89926L38.003124 137.97739Q38.89375 136.86801 40.284374 136.86801Q41.05 136.86801 41.721874 137.18051Q42.409374 137.47739 42.846874 138.03989Q43.3 138.60239 43.55 139.39926Q43.8 140.18051 43.8 141.07114Q43.8 143.21176 42.7375 144.38364Q41.690624 145.53989 40.20625 145.53989Q38.7375 145.53989 37.909374 144.30551L37.909374 145.35239ZM37.89375 141.13364Q37.89375 142.63364 38.3 143.28989Q38.95625 144.38364 40.096874 144.38364Q41.01875 144.38364 41.690624 143.58676Q42.3625 142.77426 42.3625 141.19614Q42.3625 139.57114 41.70625 138.80551Q41.065624 138.02426 40.159374 138.02426Q39.2375 138.02426 38.565624 138.82114Q37.89375 139.61801 37.89375 141.13364ZM51.01875 144.32114Q50.2375 144.99301 49.51875 145.27426Q48.8 145.53989 47.971874 145.53989Q46.596874 145.53989 45.8625 144.86801Q45.128124 144.19614 45.128124 143.16489Q45.128124 142.55551 45.409374 142.05551Q45.690624 141.53989 46.128124 141.24301Q46.58125 140.93051 47.14375 140.77426Q47.565624 140.66489 48.39375 140.57114Q50.096874 140.36801 50.909374 140.08676Q50.909374 139.78989 50.909374 139.71176Q50.909374 138.85239 50.51875 138.50864Q49.971874 138.02426 48.909374 138.02426Q47.925 138.02426 47.440624 138.38364Q46.971874 138.72739 46.753124 139.60239L45.378124 139.41489Q45.565624 138.53989 45.9875 137.99301Q46.425 137.44614 47.2375 137.16489Q48.05 136.86801 49.1125 136.86801Q50.175 136.86801 50.83125 137.11801Q51.503124 137.36801 51.815624 137.74301Q52.128124 138.11801 52.253124 138.69614Q52.33125 139.05551 52.33125 139.99301L52.33125 141.86801Q52.33125 143.83676 52.409374 144.35239Q52.503124 144.86801 52.76875 145.35239L51.3 145.35239Q51.08125 144.91489 51.01875 144.32114ZM50.909374 141.18051Q50.14375 141.49301 48.6125 141.71176Q47.7375 141.83676 47.378124 141.99301Q47.01875 142.14926 46.815624 142.46176Q46.628124 142.75864 46.628124 143.11801Q46.628124 143.68051 47.05 144.05551Q47.4875 144.43051 48.3 144.43051Q49.1125 144.43051 49.7375 144.08676Q50.378124 143.72739 50.675 143.10239Q50.909374 142.63364 50.909374 141.69614L50.909374 141.18051ZM54.6125 145.35239L54.6125 137.05551L55.878124 137.05551L55.878124 138.22739Q56.784374 136.86801 58.51875 136.86801Q59.26875 136.86801 59.89375 137.13364Q60.51875 137.39926 60.83125 137.83676Q61.14375 138.27426 61.26875 138.88364Q61.346874 139.27426 61.346874 140.24301L61.346874 145.35239L59.940624 145.35239L59.940624 140.30551Q59.940624 139.44614 59.76875 139.02426Q59.6125 138.58676 59.190624 138.33676Q58.784374 138.08676 58.221874 138.08676Q57.315624 138.08676 56.659374 138.66489Q56.01875 139.22739 56.01875 140.82114L56.01875 145.35239L54.6125 145.35239ZM63.05 142.86801L64.44063 142.64926Q64.55 143.49301 65.08125 143.94614Q65.62813 144.38364 66.58125 144.38364Q67.55 144.38364 68.01875 143.99301Q68.4875 143.58676 68.4875 143.05551Q68.4875 142.58676 68.08125 142.30551Q67.78438 142.11801 66.64375 141.83676Q65.09688 141.44614 64.4875 141.16489Q63.89375 140.86801 63.58125 140.36801Q63.284374 139.86801 63.284374 139.25864Q63.284374 138.69614 63.534374 138.22739Q63.784374 137.75864 64.22188 137.44614Q64.55 137.19614 65.1125 137.03989Q65.69063 136.86801 66.33125 136.86801Q67.31563 136.86801 68.05 137.14926Q68.78438 137.43051 69.12813 137.91489Q69.4875 138.38364 69.62813 139.19614L68.25313 139.38364Q68.15938 138.74301 67.70625 138.38364Q67.25313 138.02426 66.44063 138.02426Q65.47188 138.02426 65.05 138.35239Q64.64375 138.66489 64.64375 139.08676Q64.64375 139.36801 64.81563 139.58676Q64.9875 139.80551 65.34688 139.96176Q65.56563 140.03989 66.59688 140.32114Q68.08125 140.71176 68.675 140.97739Q69.26875 141.22739 69.59688 141.71176Q69.94063 142.19614 69.94063 142.91489Q69.94063 143.61801 69.51875 144.24301Q69.1125 144.85239 68.33125 145.19614Q67.56563 145.53989 66.59688 145.53989Q64.97188 145.53989 64.12813 144.86801Q63.284374 144.19614 63.05 142.86801ZM77.01875 142.30551L78.40938 142.49301Q78.175 143.91489 77.2375 144.72739Q76.31563 145.53989 74.95625 145.53989Q73.25313 145.53989 72.20625 144.43051Q71.175 143.30551 71.175 141.22739Q71.175 139.88364 71.6125 138.88364Q72.06563 137.86801 72.97188 137.36801Q73.89375 136.86801 74.95625 136.86801Q76.31563 136.86801 77.175 137.55551Q78.03438 138.22739 78.26875 139.49301L76.90938 139.69614Q76.70625 138.86801 76.20625 138.44614Q75.72188 138.02426 75.01875 138.02426Q73.95625 138.02426 73.28438 138.78989Q72.62813 139.53989 72.62813 141.19614Q72.62813 142.86801 73.26875 143.63364Q73.90938 144.38364 74.94063 144.38364Q75.76875 144.38364 76.31563 143.88364Q76.87813 143.36801 77.01875 142.30551ZM85.01875 144.32114Q84.2375 144.99301 83.51875 145.27426Q82.8 145.53989 81.97188 145.53989Q80.59688 145.53989 79.8625 144.86801Q79.12813 144.19614 79.12813 143.16489Q79.12813 142.55551 79.40938 142.05551Q79.69063 141.53989 80.12813 141.24301Q80.58125 140.93051 81.14375 140.77426Q81.56563 140.66489 82.39375 140.57114Q84.09688 140.36801 84.90938 140.08676Q84.90938 139.78989 84.90938 139.71176Q84.90938 138.85239 84.51875 138.50864Q83.97188 138.02426 82.90938 138.02426Q81.925 138.02426 81.44063 138.38364Q80.97188 138.72739 80.75313 139.60239L79.37813 139.41489Q79.56563 138.53989 79.9875 137.99301Q80.425 137.44614 81.2375 137.16489Q82.05 136.86801 83.1125 136.86801Q84.175 136.86801 84.83125 137.11801Q85.50313 137.36801 85.81563 137.74301Q86.12813 138.11801 86.25313 138.69614Q86.33125 139.05551 86.33125 139.99301L86.33125 141.86801Q86.33125 143.83676 86.40938 144.35239Q86.50313 144.86801 86.76875 145.35239L85.3 145.35239Q85.08125 144.91489 85.01875 144.32114ZM84.90938 141.18051Q84.14375 141.49301 82.6125 141.71176Q81.7375 141.83676 81.37813 141.99301Q81.01875 142.14926 80.81563 142.46176Q80.62813 142.75864 80.62813 143.11801Q80.62813 143.68051 81.05 144.05551Q81.4875 144.43051 82.3 144.43051Q83.1125 144.43051 83.7375 144.08676Q84.37813 143.72739 84.675 143.10239Q84.90938 142.63364 84.90938 141.69614L84.90938 141.18051ZM88.6125 148.53989L88.6125 137.05551L89.89375 137.05551L89.89375 138.13364Q90.34688 137.49301 90.90938 137.18051Q91.4875 136.86801 92.3 136.86801Q93.3625 136.86801 94.175 137.41489Q94.9875 137.96176 95.39375 138.96176Q95.81563 139.94614 95.81563 141.13364Q95.81563 142.41489 95.34688 143.43051Q94.89375 144.44614 94.01875 144.99301Q93.15938 145.53989 92.19063 145.53989Q91.4875 145.53989 90.925 145.24301Q90.37813 144.94614 90.01875 144.49301L90.01875 148.53989L88.6125 148.53989ZM89.87813 141.24301Q89.87813 142.85239 90.51875 143.61801Q91.175 144.38364 92.09688 144.38364Q93.03438 144.38364 93.70625 143.58676Q94.37813 142.78989 94.37813 141.13364Q94.37813 139.53989 93.72188 138.75864Q93.06563 137.96176 92.15938 137.96176Q91.26875 137.96176 90.56563 138.80551Q89.87813 139.64926 89.87813 141.24301ZM103.28438 142.68051L104.7375 142.85239Q104.39375 144.13364 103.45625 144.83676Q102.53438 145.53989 101.09688 145.53989Q99.26875 145.53989 98.20625 144.41489Q97.14375 143.28989 97.14375 141.27426Q97.14375 139.18051 98.22188 138.02426Q99.3 136.86801 101.01875 136.86801Q102.675 136.86801 103.72188 138.00864Q104.78438 139.13364 104.78438 141.18051Q104.78438 141.30551 104.78438 141.55551L98.59688 141.55551Q98.675 142.93051 99.3625 143.66489Q100.06563 144.38364 101.09688 144.38364Q101.87813 144.38364 102.425 143.97739Q102.97188 143.57114 103.28438 142.68051ZM98.675 140.39926L103.3 140.39926Q103.20625 139.35239 102.76875 138.83676Q102.09688 138.02426 101.03438 138.02426Q100.06563 138.02426 99.39375 138.68051Q98.7375 139.32114 98.675 140.39926Z" fill-rule="nonzero"/><path fill="#9e9e9e" d="M19.221874 164.32114L20.628124 164.13364Q20.878124 165.33676 21.45625 165.86801Q22.034374 166.38364 22.878124 166.38364Q23.8625 166.38364 24.55 165.69614Q25.2375 165.00864 25.2375 163.99301Q25.2375 163.02426 24.596874 162.39926Q23.971874 161.77426 22.9875 161.77426Q22.596874 161.77426 22.003124 161.93051L22.159374 160.69614Q22.3 160.71176 22.378124 160.71176Q23.284374 160.71176 24.003124 160.24301Q24.721874 159.77426 24.721874 158.78989Q24.721874 158.02426 24.190624 157.52426Q23.675 157.00864 22.846874 157.00864Q22.01875 157.00864 21.471874 157.52426Q20.925 158.03989 20.76875 159.07114L19.3625 158.82114Q19.628124 157.39926 20.534374 156.63364Q21.45625 155.85239 22.815624 155.85239Q23.753124 155.85239 24.534374 156.25864Q25.33125 156.64926 25.7375 157.35239Q26.159374 158.03989 26.159374 158.82114Q26.159374 159.57114 25.753124 160.18051Q25.3625 160.78989 24.58125 161.14926Q25.596874 161.38364 26.159374 162.11801Q26.721874 162.85239 26.721874 163.96176Q26.721874 165.46176 25.628124 166.50864Q24.534374 167.55551 22.8625 167.55551Q21.3625 167.55551 20.3625 166.66489Q19.3625 165.75864 19.221874 164.32114ZM28.221874 164.35239L29.690624 164.22739Q29.8625 165.30551 30.45625 165.85239Q31.05 166.38364 31.89375 166.38364Q32.909374 166.38364 33.6125 165.61801Q34.315624 164.85239 34.315624 163.58676Q34.315624 162.38364 33.64375 161.69614Q32.971874 160.99301 31.878124 160.99301Q31.190624 160.99301 30.64375 161.30551Q30.096874 161.61801 29.784374 162.10239L28.471874 161.93051L29.58125 156.05551L35.26875 156.05551L35.26875 157.39926L30.70625 157.39926L30.08125 160.47739Q31.1125 159.75864 32.253124 159.75864Q33.753124 159.75864 34.784374 160.80551Q35.815624 161.83676 35.815624 163.46176Q35.815624 165.02426 34.909374 166.14926Q33.8 167.55551 31.89375 167.55551Q30.33125 167.55551 29.346874 166.68051Q28.3625 165.78989 28.221874 164.35239ZM38.003124 167.35239L38.003124 165.74301L39.6125 165.74301L39.6125 167.35239L38.003124 167.35239ZM45.721874 167.35239L45.721874 164.60239L40.753124 164.60239L40.753124 163.32114L45.9875 155.89926L47.128124 155.89926L47.128124 163.32114L48.675 163.32114L48.675 164.60239L47.128124 164.60239L47.128124 167.35239L45.721874 167.35239ZM45.721874 163.32114L45.721874 158.14926L42.14375 163.32114L45.721874 163.32114ZM50.4875 158.64926Q50.4875 157.41489 51.096874 156.55551Q51.721874 155.69614 52.89375 155.69614Q53.971874 155.69614 54.675 156.47739Q55.378124 157.24301 55.378124 158.72739Q55.378124 160.18051 54.659374 160.97739Q53.95625 161.75864 52.909374 161.75864Q51.8625 161.75864 51.175 160.99301Q50.4875 160.21176 50.4875 158.64926ZM52.925 156.66489Q52.409374 156.66489 52.05 157.11801Q51.70625 157.57114 51.70625 158.78989Q51.70625 159.88364 52.05 160.33676Q52.409374 160.78989 52.925 160.78989Q53.45625 160.78989 53.8 160.33676Q54.159374 159.88364 54.159374 158.68051Q54.159374 157.57114 53.8 157.11801Q53.45625 156.66489 52.925 156.66489ZM52.940624 167.77426L59.20625 155.69614L60.346874 155.69614L54.096874 167.77426L52.940624 167.77426ZM57.89375 164.66489Q57.89375 163.43051 58.503124 162.57114Q59.128124 161.71176 60.3 161.71176Q61.378124 161.71176 62.08125 162.49301Q62.8 163.25864 62.8 164.74301Q62.8 166.19614 62.08125 166.99301Q61.3625 167.77426 60.315624 167.77426Q59.26875 167.77426 58.58125 166.99301Q57.89375 166.21176 57.89375 164.66489ZM60.346874 162.68051Q59.815624 162.68051 59.45625 163.13364Q59.1125 163.58676 59.1125 164.80551Q59.1125 165.89926 59.45625 166.35239Q59.815624 166.80551 60.33125 166.80551Q60.878124 166.80551 61.221874 166.35239Q61.565624 165.89926 61.565624 164.69614Q61.565624 163.58676 61.20625 163.13364Q60.8625 162.68051 60.346874 162.68051Z" fill-rule="nonzero"/><path stroke="#757575" stroke-width="1.0" stroke-linecap="butt" d="M18.55 150.85239L145.23334 150.85239L168.91762 150.85239" fill-rule="nonzero"/><path fill="#9e9e9e" d="M170.91762 150.85239C170.91762 149.74782 170.0222 148.85239 168.91762 148.85239C167.81305 148.85239 166.91762 149.74782 166.91762 150.85239C166.91762 151.95695 167.81305 152.85239 168.91762 152.85239C170.0222 152.85239 170.91762 151.95695 170.91762 150.85239" fill-rule="nonzero"/><path fill="#efefef" d="M19.76875 285.45L19.76875 273.9969L21.33125 273.9969L27.346874 282.98126L27.346874 273.9969L28.8 273.9969L28.8 285.45L27.2375 285.45L21.221874 276.45L21.221874 285.45L19.76875 285.45ZM37.01875 284.41876Q36.2375 285.09064 35.51875 285.3719Q34.8 285.6375 33.971874 285.6375Q32.596874 285.6375 31.8625 284.96564Q31.128124 284.29376 31.128124 283.2625Q31.128124 282.65314 31.409374 282.15314Q31.690624 281.6375 32.128124 281.34064Q32.58125 281.02814 33.14375 280.8719Q33.565624 280.7625 34.39375 280.66876Q36.096874 280.46564 36.909374 280.1844Q36.909374 279.8875 36.909374 279.8094Q36.909374 278.95 36.51875 278.60626Q35.971874 278.1219 34.909374 278.1219Q33.925 278.1219 33.440624 278.48126Q32.971874 278.825 32.753124 279.7L31.378124 279.5125Q31.565624 278.6375 31.9875 278.09064Q32.425 277.54376 33.2375 277.2625Q34.05 276.96564 35.1125 276.96564Q36.175 276.96564 36.83125 277.21564Q37.503124 277.46564 37.815624 277.84064Q38.128124 278.21564 38.253124 278.79376Q38.33125 279.15314 38.33125 280.09064L38.33125 281.96564Q38.33125 283.9344 38.409374 284.45Q38.503124 284.96564 38.76875 285.45L37.3 285.45Q37.08125 285.0125 37.01875 284.41876ZM36.909374 281.27814Q36.14375 281.59064 34.6125 281.8094Q33.7375 281.9344 33.378124 282.09064Q33.01875 282.2469 32.815624 282.5594Q32.628124 282.85626 32.628124 283.21564Q32.628124 283.77814 33.05 284.15314Q33.4875 284.52814 34.3 284.52814Q35.1125 284.52814 35.7375 284.1844Q36.378124 283.825 36.675 283.2Q36.909374 282.73126 36.909374 281.79376L36.909374 281.27814ZM43.675 284.1844L43.878124 285.4344Q43.284374 285.5594 42.815624 285.5594Q42.05 285.5594 41.628124 285.325Q41.20625 285.075 41.034374 284.6844Q40.8625 284.27814 40.8625 283.0125L40.8625 278.2469L39.83125 278.2469L39.83125 277.15314L40.8625 277.15314L40.8625 275.09064L42.26875 274.2469L42.26875 277.15314L43.675 277.15314L43.675 278.2469L42.26875 278.2469L42.26875 283.09064Q42.26875 283.7 42.33125 283.8719Q42.409374 284.04376 42.58125 284.15314Q42.753124 284.2469 43.065624 284.2469Q43.3 284.2469 43.675 284.1844ZM50.05 285.45L50.05 284.23126Q49.08125 285.6375 47.409374 285.6375Q46.675 285.6375 46.034374 285.35626Q45.409374 285.075 45.096874 284.65314Q44.784374 284.21564 44.659374 283.60626Q44.58125 283.1844 44.58125 282.29376L44.58125 277.15314L45.9875 277.15314L45.9875 281.7469Q45.9875 282.85626 46.065624 283.23126Q46.20625 283.79376 46.628124 284.10626Q47.065624 284.41876 47.690624 284.41876Q48.33125 284.41876 48.878124 284.10626Q49.440624 283.77814 49.659374 283.21564Q49.89375 282.65314 49.89375 281.59064L49.89375 277.15314L51.3 277.15314L51.3 285.45L50.05 285.45ZM53.596874 285.45L53.596874 277.15314L54.8625 277.15314L54.8625 278.40314Q55.346874 277.52814 55.753124 277.2469Q56.159374 276.96564 56.659374 276.96564Q57.3625 276.96564 58.096874 277.41876L57.6125 278.71564Q57.096874 278.41876 56.58125 278.41876Q56.128124 278.41876 55.753124 278.7Q55.39375 278.96564 55.2375 279.46564Q55.003124 280.21564 55.003124 281.10626L55.003124 285.45L53.596874 285.45ZM64.28438 282.77814L65.7375 282.95Q65.39375 284.23126 64.45625 284.9344Q63.534374 285.6375 62.096874 285.6375Q60.26875 285.6375 59.20625 284.5125Q58.14375 283.3875 58.14375 281.3719Q58.14375 279.27814 59.221874 278.1219Q60.3 276.96564 62.01875 276.96564Q63.675 276.96564 64.72188 278.10626Q65.78438 279.23126 65.78438 281.27814Q65.78438 281.40314 65.78438 281.65314L59.596874 281.65314Q59.675 283.02814 60.3625 283.7625Q61.065624 284.48126 62.096874 284.48126Q62.878124 284.48126 63.425 284.075Q63.971874 283.66876 64.28438 282.77814ZM59.675 280.4969L64.3 280.4969Q64.20625 279.45 63.76875 278.9344Q63.096874 278.1219 62.034374 278.1219Q61.065624 278.1219 60.39375 278.77814Q59.7375 279.41876 59.675 280.4969ZM67.05 282.96564L68.44063 282.7469Q68.55 283.59064 69.08125 284.04376Q69.62813 284.48126 70.58125 284.48126Q71.55 284.48126 72.01875 284.09064Q72.4875 283.6844 72.4875 283.15314Q72.4875 282.6844 72.08125 282.40314Q71.78438 282.21564 70.64375 281.9344Q69.09688 281.54376 68.4875 281.2625Q67.89375 280.96564 67.58125 280.46564Q67.28438 279.96564 67.28438 279.35626Q67.28438 278.79376 67.53438 278.325Q67.78438 277.85626 68.22188 277.54376Q68.55 277.29376 69.1125 277.1375Q69.69063 276.96564 70.33125 276.96564Q71.31563 276.96564 72.05 277.2469Q72.78438 277.52814 73.12813 278.0125Q73.4875 278.48126 73.62813 279.29376L72.25313 279.48126Q72.15938 278.84064 71.70625 278.48126Q71.25313 278.1219 70.44063 278.1219Q69.47188 278.1219 69.05 278.45Q68.64375 278.7625 68.64375 279.1844Q68.64375 279.46564 68.81563 279.6844Q68.9875 279.90314 69.34688 280.0594Q69.56563 280.1375 70.59688 280.41876Q72.08125 280.8094 72.675 281.075Q73.26875 281.325 73.59688 281.8094Q73.94063 282.29376 73.94063 283.0125Q73.94063 283.71564 73.51875 284.34064Q73.1125 284.95 72.33125 285.29376Q71.56563 285.6375 70.59688 285.6375Q68.97188 285.6375 68.12813 284.96564Q67.28438 284.29376 67.05 282.96564ZM81.01875 282.40314L82.40938 282.59064Q82.175 284.0125 81.2375 284.825Q80.31563 285.6375 78.95625 285.6375Q77.25313 285.6375 76.20625 284.52814Q75.175 283.40314 75.175 281.325Q75.175 279.98126 75.6125 278.98126Q76.06563 277.96564 76.97188 277.46564Q77.89375 276.96564 78.95625 276.96564Q80.31563 276.96564 81.175 277.65314Q82.03438 278.325 82.26875 279.59064L80.90938 279.79376Q80.70625 278.96564 80.20625 278.54376Q79.72188 278.1219 79.01875 278.1219Q77.95625 278.1219 77.28438 278.8875Q76.62813 279.6375 76.62813 281.29376Q76.62813 282.96564 77.26875 283.73126Q77.90938 284.48126 78.94063 284.48126Q79.76875 284.48126 80.31563 283.98126Q80.87813 283.46564 81.01875 282.40314ZM89.01875 284.41876Q88.2375 285.09064 87.51875 285.3719Q86.8 285.6375 85.97188 285.6375Q84.59688 285.6375 83.8625 284.96564Q83.12813 284.29376 83.12813 283.2625Q83.12813 282.65314 83.40938 282.15314Q83.69063 281.6375 84.12813 281.34064Q84.58125 281.02814 85.14375 280.8719Q85.56563 280.7625 86.39375 280.66876Q88.09688 280.46564 88.90938 280.1844Q88.90938 279.8875 88.90938 279.8094Q88.90938 278.95 88.51875 278.60626Q87.97188 278.1219 86.90938 278.1219Q85.925 278.1219 85.44063 278.48126Q84.97188 278.825 84.75313 279.7L83.37813 279.5125Q83.56563 278.6375 83.9875 278.09064Q84.425 277.54376 85.2375 277.2625Q86.05 276.96564 87.1125 276.96564Q88.175 276.96564 88.83125 277.21564Q89.50313 277.46564 89.81563 277.84064Q90.12813 278.21564 90.25313 278.79376Q90.33125 279.15314 90.33125 280.09064L90.33125 281.96564Q90.33125 283.9344 90.40938 284.45Q90.50313 284.96564 90.76875 285.45L89.3 285.45Q89.08125 285.0125 89.01875 284.41876ZM88.90938 281.27814Q88.14375 281.59064 86.6125 281.8094Q85.7375 281.9344 85.37813 282.09064Q85.01875 282.2469 84.81563 282.5594Q84.62813 282.85626 84.62813 283.21564Q84.62813 283.77814 85.05 284.15314Q85.4875 284.52814 86.3 284.52814Q87.1125 284.52814 87.7375 284.1844Q88.37813 283.825 88.675 283.2Q88.90938 282.73126 88.90938 281.79376L88.90938 281.27814ZM92.6125 288.6375L92.6125 277.15314L93.89375 277.15314L93.89375 278.23126Q94.34688 277.59064 94.90938 277.27814Q95.4875 276.96564 96.3 276.96564Q97.3625 276.96564 98.175 277.5125Q98.9875 278.0594 99.39375 279.0594Q99.81563 280.04376 99.81563 281.23126Q99.81563 282.5125 99.34688 283.52814Q98.89375 284.54376 98.01875 285.09064Q97.15938 285.6375 96.19063 285.6375Q95.4875 285.6375 94.925 285.34064Q94.37813 285.04376 94.01875 284.59064L94.01875 288.6375L92.6125 288.6375ZM93.87813 281.34064Q93.87813 282.95 94.51875 283.71564Q95.175 284.48126 96.09688 284.48126Q97.03438 284.48126 97.70625 283.6844Q98.37813 282.8875 98.37813 281.23126Q98.37813 279.6375 97.72188 278.85626Q97.06563 278.0594 96.15938 278.0594Q95.26875 278.0594 94.56563 278.90314Q93.87813 279.7469 93.87813 281.34064ZM107.28438 282.77814L108.7375 282.95Q108.39375 284.23126 107.45625 284.9344Q106.53438 285.6375 105.09688 285.6375Q103.26875 285.6375 102.20625 284.5125Q101.14375 283.3875 101.14375 281.3719Q101.14375 279.27814 102.22188 278.1219Q103.3 276.96564 105.01875 276.96564Q106.675 276.96564 107.72188 278.10626Q108.78438 279.23126 108.78438 281.27814Q108.78438 281.40314 108.78438 281.65314L102.59688 281.65314Q102.675 283.02814 103.3625 283.7625Q104.06563 284.48126 105.09688 284.48126Q105.87813 284.48126 106.425 284.075Q106.97188 283.66876 107.28438 282.77814ZM102.675 280.4969L107.3 280.4969Q107.20625 279.45 106.76875 278.9344Q106.09688 278.1219 105.03438 278.1219Q104.06563 278.1219 103.39375 278.77814Q102.7375 279.41876 102.675 280.4969Z" fill-rule="nonzero"/><path fill="#9e9e9e" d="M19.315624 297.4969L19.315624 296.1375L26.721874 296.1375L26.721874 297.23126Q25.628124 298.40314 24.55 300.34064Q23.4875 302.2625 22.89375 304.29376Q22.471874 305.73126 22.3625 307.45L20.909374 307.45Q20.940624 306.09064 21.440624 304.1844Q21.95625 302.2625 22.89375 300.4969Q23.846874 298.71564 24.925 297.4969L19.315624 297.4969ZM29.003124 307.45L29.003124 305.84064L30.6125 305.84064L30.6125 307.45L29.003124 307.45ZM32.221874 304.41876L33.628124 304.23126Q33.878124 305.4344 34.45625 305.96564Q35.034374 306.48126 35.878124 306.48126Q36.8625 306.48126 37.55 305.79376Q38.2375 305.10626 38.2375 304.09064Q38.2375 303.1219 37.596874 302.4969Q36.971874 301.8719 35.9875 301.8719Q35.596874 301.8719 35.003124 302.02814L35.159374 300.79376Q35.3 300.8094 35.378124 300.8094Q36.284374 300.8094 37.003124 300.34064Q37.721874 299.8719 37.721874 298.8875Q37.721874 298.1219 37.190624 297.6219Q36.675 297.10626 35.846874 297.10626Q35.01875 297.10626 34.471874 297.6219Q33.925 298.1375 33.76875 299.16876L32.3625 298.91876Q32.628124 297.4969 33.534374 296.73126Q34.45625 295.95 35.815624 295.95Q36.753124 295.95 37.534374 296.35626Q38.33125 296.7469 38.7375 297.45Q39.159374 298.1375 39.159374 298.91876Q39.159374 299.66876 38.753124 300.27814Q38.3625 300.8875 37.58125 301.2469Q38.596874 301.48126 39.159374 302.21564Q39.721874 302.95 39.721874 304.0594Q39.721874 305.5594 38.628124 306.60626Q37.534374 307.65314 35.8625 307.65314Q34.3625 307.65314 33.3625 306.7625Q32.3625 305.85626 32.221874 304.41876ZM41.4875 298.7469Q41.4875 297.5125 42.096874 296.65314Q42.721874 295.79376 43.89375 295.79376Q44.971874 295.79376 45.675 296.575Q46.378124 297.34064 46.378124 298.825Q46.378124 300.27814 45.659374 301.075Q44.95625 301.85626 43.909374 301.85626Q42.8625 301.85626 42.175 301.09064Q41.4875 300.3094 41.4875 298.7469ZM43.925 296.7625Q43.409374 296.7625 43.05 297.21564Q42.70625 297.66876 42.70625 298.8875Q42.70625 299.98126 43.05 300.4344Q43.409374 300.8875 43.925 300.8875Q44.45625 300.8875 44.8 300.4344Q45.159374 299.98126 45.159374 298.77814Q45.159374 297.66876 44.8 297.21564Q44.45625 296.7625 43.925 296.7625ZM43.940624 307.8719L50.20625 295.79376L51.346874 295.79376L45.096874 307.8719L43.940624 307.8719ZM48.89375 304.7625Q48.89375 303.52814 49.503124 302.66876Q50.128124 301.8094 51.3 301.8094Q52.378124 301.8094 53.08125 302.59064Q53.8 303.35626 53.8 304.84064Q53.8 306.29376 53.08125 307.09064Q52.3625 307.8719 51.315624 307.8719Q50.26875 307.8719 49.58125 307.09064Q48.89375 306.3094 48.89375 304.7625ZM51.346874 302.77814Q50.815624 302.77814 50.45625 303.23126Q50.1125 303.6844 50.1125 304.90314Q50.1125 305.9969 50.45625 306.45Q50.815624 306.90314 51.33125 306.90314Q51.878124 306.90314 52.221874 306.45Q52.565624 305.9969 52.565624 304.79376Q52.565624 303.6844 52.20625 303.23126Q51.8625 302.77814 51.346874 302.77814Z" fill-rule="nonzero"/><path stroke="#757575" stroke-width="1.0" stroke-linecap="butt" d="M18.55 290.95L145.23334 290.95L218.69118 319.27994" fill-rule="nonzero"/><path fill="#9e9e9e" d="M220.69118 319.27994C220.69118 318.17535 219.79575 317.27994 218.69118 317.27994C217.58661 317.27994 216.69118 318.17535 216.69118 319.27994C216.69118 320.3845 217.58661 321.27994 218.69118 321.27994C219.79575 321.27994 220.69118 320.3845 220.69118 319.27994" fill-rule="nonzero"/><path fill="#efefef" d="M18.51875 326.45L22.925 314.9969L24.565624 314.9969L29.253124 326.45L27.51875 326.45L26.190624 322.98126L21.39375 322.98126L20.14375 326.45L18.51875 326.45ZM21.83125 321.7469L25.721874 321.7469L24.51875 318.575Q23.971874 317.1219 23.70625 316.2Q23.4875 317.29376 23.096874 318.3875L21.83125 321.7469ZM30.6125 326.45L30.6125 318.15314L31.878124 318.15314L31.878124 319.325Q32.784374 317.96564 34.51875 317.96564Q35.26875 317.96564 35.89375 318.23126Q36.51875 318.4969 36.83125 318.9344Q37.14375 319.3719 37.26875 319.98126Q37.346874 320.3719 37.346874 321.34064L37.346874 326.45L35.940624 326.45L35.940624 321.40314Q35.940624 320.54376 35.76875 320.1219Q35.6125 319.6844 35.190624 319.4344Q34.784374 319.1844 34.221874 319.1844Q33.315624 319.1844 32.659374 319.7625Q32.01875 320.325 32.01875 321.91876L32.01875 326.45L30.6125 326.45ZM39.6125 316.60626L39.6125 314.9969L41.01875 314.9969L41.01875 316.60626L39.6125 316.60626ZM39.6125 326.45L39.6125 318.15314L41.01875 318.15314L41.01875 326.45L39.6125 326.45ZM43.6125 326.45L43.6125 318.15314L44.8625 318.15314L44.8625 319.3094Q45.253124 318.7 45.89375 318.34064Q46.55 317.96564 47.378124 317.96564Q48.3 317.96564 48.89375 318.35626Q49.4875 318.73126 49.721874 319.41876Q50.70625 317.96564 52.284374 317.96564Q53.51875 317.96564 54.175 318.65314Q54.846874 319.325 54.846874 320.7469L54.846874 326.45L53.45625 326.45L53.45625 321.21564Q53.45625 320.3719 53.315624 320.0125Q53.175 319.6375 52.815624 319.41876Q52.45625 319.1844 51.971874 319.1844Q51.096874 319.1844 50.51875 319.7625Q49.940624 320.34064 49.940624 321.6219L49.940624 326.45L48.534374 326.45L48.534374 321.0594Q48.534374 320.1219 48.190624 319.65314Q47.846874 319.1844 47.065624 319.1844Q46.471874 319.1844 45.971874 319.4969Q45.471874 319.8094 45.2375 320.41876Q45.01875 321.0125 45.01875 322.1375L45.01875 326.45L43.6125 326.45ZM62.01875 325.41876Q61.2375 326.09064 60.51875 326.3719Q59.8 326.6375 58.971874 326.6375Q57.596874 326.6375 56.8625 325.96564Q56.128124 325.29376 56.128124 324.2625Q56.128124 323.65314 56.409374 323.15314Q56.690624 322.6375 57.128124 322.34064Q57.58125 322.02814 58.14375 321.8719Q58.565624 321.7625 59.39375 321.66876Q61.096874 321.46564 61.909374 321.1844Q61.909374 320.8875 61.909374 320.8094Q61.909374 319.95 61.51875 319.60626Q60.971874 319.1219 59.909374 319.1219Q58.925 319.1219 58.440624 319.48126Q57.971874 319.825 57.753124 320.7L56.378124 320.5125Q56.565624 319.6375 56.9875 319.09064Q57.425 318.54376 58.2375 318.2625Q59.05 317.96564 60.1125 317.96564Q61.175 317.96564 61.83125 318.21564Q62.503124 318.46564 62.815624 318.84064Q63.128124 319.21564 63.253124 319.79376Q63.33125 320.15314 63.33125 321.09064L63.33125 322.96564Q63.33125 324.9344 63.409374 325.45Q63.503124 325.96564 63.76875 326.45L62.3 326.45Q62.08125 326.0125 62.01875 325.41876ZM61.909374 322.27814Q61.14375 322.59064 59.6125 322.8094Q58.7375 322.9344 58.378124 323.09064Q58.01875 323.2469 57.815624 323.5594Q57.628124 323.85626 57.628124 324.21564Q57.628124 324.77814 58.05 325.15314Q58.4875 325.52814 59.3 325.52814Q60.1125 325.52814 60.7375 325.1844Q61.378124 324.825 61.675 324.2Q61.909374 323.73126 61.909374 322.79376L61.909374 322.27814ZM65.58125 326.45L65.58125 314.9969L66.9875 314.9969L66.9875 326.45L65.58125 326.45ZM69.05 323.96564L70.44063 323.7469Q70.55 324.59064 71.08125 325.04376Q71.62813 325.48126 72.58125 325.48126Q73.55 325.48126 74.01875 325.09064Q74.4875 324.6844 74.4875 324.15314Q74.4875 323.6844 74.08125 323.40314Q73.78438 323.21564 72.64375 322.9344Q71.09688 322.54376 70.4875 322.2625Q69.89375 321.96564 69.58125 321.46564Q69.28438 320.96564 69.28438 320.35626Q69.28438 319.79376 69.53438 319.325Q69.78438 318.85626 70.22188 318.54376Q70.55 318.29376 71.1125 318.1375Q71.69063 317.96564 72.33125 317.96564Q73.31563 317.96564 74.05 318.2469Q74.78438 318.52814 75.12813 319.0125Q75.4875 319.48126 75.62813 320.29376L74.25313 320.48126Q74.15938 319.84064 73.70625 319.48126Q73.25313 319.1219 72.44063 319.1219Q71.47188 319.1219 71.05 319.45Q70.64375 319.7625 70.64375 320.1844Q70.64375 320.46564 70.81563 320.6844Q70.9875 320.90314 71.34688 321.0594Q71.56563 321.1375 72.59688 321.41876Q74.08125 321.8094 74.675 322.075Q75.26875 322.325 75.59688 322.8094Q75.94063 323.29376 75.94063 324.0125Q75.94063 324.71564 75.51875 325.34064Q75.1125 325.95 74.33125 326.29376Q73.56563 326.6375 72.59688 326.6375Q70.97188 326.6375 70.12813 325.96564Q69.28438 325.29376 69.05 323.96564Z" fill-rule="nonzero"/><path fill="#9e9e9e" d="M23.721874 348.45L23.721874 345.7L18.753124 345.7L18.753124 344.41876L23.9875 336.9969L25.128124 336.9969L25.128124 344.41876L26.675 344.41876L26.675 345.7L25.128124 345.7L25.128124 348.45L23.721874 348.45ZM23.721874 344.41876L23.721874 339.2469L20.14375 344.41876L23.721874 344.41876ZM29.003124 348.45L29.003124 346.84064L30.6125 346.84064L30.6125 348.45L29.003124 348.45ZM32.425 345.79376L33.784374 345.66876Q33.95625 346.6219 34.440624 347.0594Q34.925 347.48126 35.675 347.48126Q36.33125 347.48126 36.815624 347.1844Q37.3 346.8875 37.6125 346.40314Q37.925 345.90314 38.128124 345.0594Q38.346874 344.21564 38.346874 343.34064Q38.346874 343.2469 38.346874 343.0594Q37.925 343.73126 37.190624 344.15314Q36.45625 344.5594 35.6125 344.5594Q34.190624 344.5594 33.20625 343.52814Q32.221874 342.4969 32.221874 340.8094Q32.221874 339.075 33.2375 338.0125Q34.26875 336.95 35.815624 336.95Q36.940624 336.95 37.8625 337.5594Q38.784374 338.15314 39.26875 339.2625Q39.753124 340.3719 39.753124 342.48126Q39.753124 344.6844 39.26875 345.98126Q38.8 347.27814 37.846874 347.96564Q36.909374 348.65314 35.64375 348.65314Q34.3 348.65314 33.440624 347.90314Q32.596874 347.15314 32.425 345.79376ZM38.190624 340.7469Q38.190624 339.52814 37.534374 338.825Q36.89375 338.10626 35.9875 338.10626Q35.05 338.10626 34.346874 338.8719Q33.659374 339.6375 33.659374 340.85626Q33.659374 341.95 34.315624 342.6375Q34.9875 343.325 35.95625 343.325Q36.925 343.325 37.55 342.6375Q38.190624 341.95 38.190624 340.7469ZM41.4875 339.7469Q41.4875 338.5125 42.096874 337.65314Q42.721874 336.79376 43.89375 336.79376Q44.971874 336.79376 45.675 337.575Q46.378124 338.34064 46.378124 339.825Q46.378124 341.27814 45.659374 342.075Q44.95625 342.85626 43.909374 342.85626Q42.8625 342.85626 42.175 342.09064Q41.4875 341.3094 41.4875 339.7469ZM43.925 337.7625Q43.409374 337.7625 43.05 338.21564Q42.70625 338.66876 42.70625 339.8875Q42.70625 340.98126 43.05 341.4344Q43.409374 341.8875 43.925 341.8875Q44.45625 341.8875 44.8 341.4344Q45.159374 340.98126 45.159374 339.77814Q45.159374 338.66876 44.8 338.21564Q44.45625 337.7625 43.925 337.7625ZM43.940624 348.8719L50.20625 336.79376L51.346874 336.79376L45.096874 348.8719L43.940624 348.8719ZM48.89375 345.7625Q48.89375 344.52814 49.503124 343.66876Q50.128124 342.8094 51.3 342.8094Q52.378124 342.8094 53.08125 343.59064Q53.8 344.35626 53.8 345.84064Q53.8 347.29376 53.08125 348.09064Q52.3625 348.8719 51.315624 348.8719Q50.26875 348.8719 49.58125 348.09064Q48.89375 347.3094 48.89375 345.7625ZM51.346874 343.77814Q50.815624 343.77814 50.45625 344.23126Q50.1125 344.6844 50.1125 345.90314Q50.1125 346.9969 50.45625 347.45Q50.815624 347.90314 51.33125 347.90314Q51.878124 347.90314 52.221874 347.45Q52.565624 346.9969 52.565624 345.79376Q52.565624 344.6844 52.20625 344.23126Q51.8625 343.77814 51.346874 343.77814Z" fill-rule="nonzero"/><path stroke="#757575" stroke-width="1.0" stroke-linecap="butt" d="M18.55 331.95L145.23334 331.95L267.79785 341.2941" fill-rule="nonzero"/><path fill="#9e9e9e" d="M269.79785 341.2941C269.79785 340.1895 268.9024 339.2941 267.79785 339.2941C266.69327 339.2941 265.79785 340.1895 265.79785 341.2941C265.79785 342.39865 266.69327 343.2941 267.79785 343.2941C268.9024 343.2941 269.79785 342.39865 269.79785 341.2941" fill-rule="nonzero"/><path fill="#efefef" d="M551.6375 69.916664L551.6375 58.46354L553.91876 58.46354L556.6375 66.572914Q557.0125 67.697914 557.1844 68.260414Q557.3719 67.635414 557.79376 66.43229L560.52814 58.46354L562.575 58.46354L562.575 69.916664L561.10626 69.916664L561.10626 60.322914L557.77814 69.916664L556.41876 69.916664L553.10626 60.166664L553.10626 69.916664L551.6375 69.916664ZM569.91876 68.885414Q569.1375 69.55729 568.41876 69.83854Q567.7 70.104164 566.8719 70.104164Q565.4969 70.104164 564.7625 69.43229Q564.02814 68.760414 564.02814 67.729164Q564.02814 67.11979 564.3094 66.61979Q564.59064 66.104164 565.02814 65.80729Q565.48126 65.49479 566.04376 65.33854Q566.46564 65.229164 567.29376 65.135414Q568.9969 64.93229 569.8094 64.65104Q569.8094 64.354164 569.8094 64.27604Q569.8094 63.416664 569.41876 63.072914Q568.8719 62.58854 567.8094 62.58854Q566.825 62.58854 566.34064 62.947914Q565.8719 63.291664 565.65314 64.166664L564.27814 63.979164Q564.46564 63.104164 564.8875 62.55729Q565.325 62.010414 566.1375 61.729164Q566.95 61.43229 568.0125 61.43229Q569.075 61.43229 569.73126 61.68229Q570.40314 61.93229 570.71564 62.30729Q571.02814 62.68229 571.15314 63.260414Q571.23126 63.61979 571.23126 64.55729L571.23126 66.43229Q571.23126 68.40104 571.3094 68.916664Q571.40314 69.43229 571.66876 69.916664L570.2 69.916664Q569.98126 69.479164 569.91876 68.885414ZM569.8094 65.74479Q569.04376 66.05729 567.5125 66.27604Q566.6375 66.40104 566.27814 66.55729Q565.91876 66.71354 565.71564 67.02604Q565.52814 67.322914 565.52814 67.68229Q565.52814 68.24479 565.95 68.61979Q566.3875 68.99479 567.2 68.99479Q568.0125 68.99479 568.6375 68.65104Q569.27814 68.291664 569.575 67.666664Q569.8094 67.197914 569.8094 66.260414L569.8094 65.74479ZM573.5125 73.104164L573.5125 61.61979L574.79376 61.61979L574.79376 62.697914Q575.2469 62.05729 575.8094 61.74479Q576.3875 61.43229 577.2 61.43229Q578.2625 61.43229 579.075 61.979164Q579.8875 62.52604 580.29376 63.52604Q580.71564 64.510414 580.71564 65.697914Q580.71564 66.979164 580.2469 67.99479Q579.79376 69.010414 578.91876 69.55729Q578.0594 70.104164 577.09064 70.104164Q576.3875 70.104164 575.825 69.80729Q575.27814 69.510414 574.91876 69.05729L574.91876 73.104164L573.5125 73.104164ZM574.77814 65.80729Q574.77814 67.416664 575.41876 68.18229Q576.075 68.947914 576.9969 68.947914Q577.9344 68.947914 578.60626 68.15104Q579.27814 67.354164 579.27814 65.697914Q579.27814 64.104164 578.6219 63.322914Q577.96564 62.52604 577.0594 62.52604Q576.16876 62.52604 575.46564 63.36979Q574.77814 64.21354 574.77814 65.80729Z" fill-rule="nonzero"/><path fill="#9e9e9e" d="M553.5125 90.55729L553.5125 91.916664L545.9344 91.916664Q545.91876 91.40104 546.10626 90.93229Q546.3875 90.166664 547.02814 89.416664Q547.66876 88.666664 548.8719 87.68229Q550.73126 86.15104 551.3875 85.260414Q552.04376 84.354164 552.04376 83.55729Q552.04376 82.729164 551.45 82.15104Q550.85626 81.572914 549.8875 81.572914Q548.8719 81.572914 548.2625 82.18229Q547.65314 82.791664 547.65314 83.86979L546.2 83.729164Q546.35626 82.104164 547.325 81.260414Q548.29376 80.416664 549.91876 80.416664Q551.575 80.416664 552.52814 81.33854Q553.4969 82.24479 553.4969 83.58854Q553.4969 84.27604 553.21564 84.947914Q552.9344 85.604164 552.27814 86.33854Q551.6219 87.072914 550.10626 88.354164Q548.84064 89.416664 548.48126 89.80729Q548.1219 90.18229 547.8875 90.55729L553.5125 90.55729ZM555.90314 91.916664L555.90314 90.30729L557.5125 90.30729L557.5125 91.916664L555.90314 91.916664ZM563.6219 91.916664L563.6219 89.166664L558.65314 89.166664L558.65314 87.885414L563.8875 80.46354L565.02814 80.46354L565.02814 87.885414L566.575 87.885414L566.575 89.166664L565.02814 89.166664L565.02814 91.916664L563.6219 91.916664ZM563.6219 87.885414L563.6219 82.71354L560.04376 87.885414L563.6219 87.885414ZM568.3875 83.21354Q568.3875 81.979164 568.9969 81.11979Q569.6219 80.260414 570.79376 80.260414Q571.8719 80.260414 572.575 81.041664Q573.27814 81.80729 573.27814 83.291664Q573.27814 84.74479 572.5594 85.541664Q571.85626 86.322914 570.8094 86.322914Q569.7625 86.322914 569.075 85.55729Q568.3875 84.77604 568.3875 83.21354ZM570.825 81.229164Q570.3094 81.229164 569.95 81.68229Q569.60626 82.135414 569.60626 83.354164Q569.60626 84.447914 569.95 84.90104Q570.3094 85.354164 570.825 85.354164Q571.35626 85.354164 571.7 84.90104Q572.0594 84.447914 572.0594 83.24479Q572.0594 82.135414 571.7 81.68229Q571.35626 81.229164 570.825 81.229164ZM570.84064 92.33854L577.10626 80.260414L578.2469 80.260414L571.9969 92.33854L570.84064 92.33854ZM575.79376 89.229164Q575.79376 87.99479 576.40314 87.135414Q577.02814 86.27604 578.2 86.27604Q579.27814 86.27604 579.98126 87.05729Q580.7 87.822914 580.7 89.30729Q580.7 90.760414 579.98126 91.55729Q579.2625 92.33854 578.21564 92.33854Q577.16876 92.33854 576.48126 91.55729Q575.79376 90.77604 575.79376 89.229164ZM578.2469 87.24479Q577.71564 87.24479 577.35626 87.697914Q577.0125 88.15104 577.0125 89.36979Q577.0125 90.46354 577.35626 90.916664Q577.71564 91.36979 578.23126 91.36979Q578.77814 91.36979 579.1219 90.916664Q579.46564 90.46354 579.46564 89.260414Q579.46564 88.15104 579.10626 87.697914Q578.7625 87.24479 578.2469 87.24479Z" fill-rule="nonzero"/><path stroke="#757575" stroke-width="1.0" stroke-linecap="butt" d="M581.45 75.416664L454.76666 75.416664L310.81857 62.769684" fill-rule="nonzero"/><path fill="#9e9e9e" d="M312.81857 62.769684C312.81857 61.665115 311.92316 60.769684 310.81857 60.769684C309.71402 60.769684 308.81857 61.665115 308.81857 62.769684C308.81857 63.874256 309.71402 64.769684 310.81857 64.769684C311.92316 64.769684 312.81857 63.874256 312.81857 62.769684" fill-rule="nonzero"/><path fill="#efefef" d="M498.6844 110.916664L498.6844 99.46354L503.0125 99.46354Q504.15314 99.46354 504.7469 99.572914Q505.59064 99.71354 506.15314 100.104164Q506.73126 100.49479 507.075 101.21354Q507.4344 101.916664 507.4344 102.77604Q507.4344 104.229164 506.4969 105.24479Q505.575 106.260414 503.1375 106.260414L500.2 106.260414L500.2 110.916664L498.6844 110.916664ZM500.2 104.90104L503.16876 104.90104Q504.6375 104.90104 505.2469 104.354164Q505.8719 103.80729 505.8719 102.822914Q505.8719 102.104164 505.4969 101.58854Q505.1375 101.072914 504.54376 100.916664Q504.16876 100.80729 503.1375 100.80729L500.2 100.80729L500.2 104.90104ZM515.1844 108.24479L516.6375 108.416664Q516.29376 109.697914 515.35626 110.40104Q514.4344 111.104164 512.9969 111.104164Q511.16876 111.104164 510.10626 109.979164Q509.04376 108.854164 509.04376 106.83854Q509.04376 104.74479 510.1219 103.58854Q511.2 102.43229 512.91876 102.43229Q514.575 102.43229 515.6219 103.572914Q516.6844 104.697914 516.6844 106.74479Q516.6844 106.86979 516.6844 107.11979L510.4969 107.11979Q510.575 108.49479 511.2625 109.229164Q511.96564 109.947914 512.9969 109.947914Q513.77814 109.947914 514.325 109.541664Q514.8719 109.135414 515.1844 108.24479ZM510.575 105.96354L515.2 105.96354Q515.10626 104.916664 514.66876 104.40104Q513.9969 103.58854 512.9344 103.58854Q511.96564 103.58854 511.29376 104.24479Q510.6375 104.885414 510.575 105.96354ZM518.4969 110.916664L518.4969 102.61979L519.7625 102.61979L519.7625 103.86979Q520.2469 102.99479 520.65314 102.71354Q521.0594 102.43229 521.5594 102.43229Q522.2625 102.43229 522.9969 102.885414L522.5125 104.18229Q521.9969 103.885414 521.48126 103.885414Q521.02814 103.885414 520.65314 104.166664Q520.29376 104.43229 520.1375 104.93229Q519.90314 105.68229 519.90314 106.572914L519.90314 110.916664L518.4969 110.916664ZM522.95 108.43229L524.34064 108.21354Q524.45 109.05729 524.98126 109.510414Q525.52814 109.947914 526.48126 109.947914Q527.45 109.947914 527.91876 109.55729Q528.3875 109.15104 528.3875 108.61979Q528.3875 108.15104 527.98126 107.86979Q527.6844 107.68229 526.54376 107.40104Q524.9969 107.010414 524.3875 106.729164Q523.79376 106.43229 523.48126 105.93229Q523.1844 105.43229 523.1844 104.822914Q523.1844 104.260414 523.4344 103.791664Q523.6844 103.322914 524.1219 103.010414Q524.45 102.760414 525.0125 102.604164Q525.59064 102.43229 526.23126 102.43229Q527.21564 102.43229 527.95 102.71354Q528.6844 102.99479 529.02814 103.479164Q529.3875 103.947914 529.52814 104.760414L528.15314 104.947914Q528.0594 104.30729 527.60626 103.947914Q527.15314 103.58854 526.34064 103.58854Q525.3719 103.58854 524.95 103.916664Q524.54376 104.229164 524.54376 104.65104Q524.54376 104.93229 524.71564 105.15104Q524.8875 105.36979 525.2469 105.52604Q525.46564 105.604164 526.4969 105.885414Q527.98126 106.27604 528.575 106.541664Q529.16876 106.791664 529.4969 107.27604Q529.84064 107.760414 529.84064 108.479164Q529.84064 109.18229 529.41876 109.80729Q529.0125 110.416664 528.23126 110.760414Q527.46564 111.104164 526.4969 111.104164Q524.8719 111.104164 524.02814 110.43229Q523.1844 109.760414 522.95 108.43229ZM531.5125 114.104164L531.5125 102.61979L532.79376 102.61979L532.79376 103.697914Q533.2469 103.05729 533.8094 102.74479Q534.3875 102.43229 535.2 102.43229Q536.2625 102.43229 537.075 102.979164Q537.8875 103.52604 538.29376 104.52604Q538.71564 105.510414 538.71564 106.697914Q538.71564 107.979164 538.2469 108.99479Q537.79376 110.010414 536.91876 110.55729Q536.0594 111.104164 535.09064 111.104164Q534.3875 111.104164 533.825 110.80729Q533.27814 110.510414 532.91876 110.05729L532.91876 114.104164L531.5125 114.104164ZM532.77814 106.80729Q532.77814 108.416664 533.41876 109.18229Q534.075 109.947914 534.9969 109.947914Q535.9344 109.947914 536.60626 109.15104Q537.27814 108.354164 537.27814 106.697914Q537.27814 105.104164 536.6219 104.322914Q535.96564 103.52604 535.0594 103.52604Q534.16876 103.52604 533.46564 104.36979Q532.77814 105.21354 532.77814 106.80729ZM546.1844 108.24479L547.6375 108.416664Q547.29376 109.697914 546.35626 110.40104Q545.4344 111.104164 543.9969 111.104164Q542.16876 111.104164 541.10626 109.979164Q540.04376 108.854164 540.04376 106.83854Q540.04376 104.74479 541.1219 103.58854Q542.2 102.43229 543.91876 102.43229Q545.575 102.43229 546.6219 103.572914Q547.6844 104.697914 547.6844 106.74479Q547.6844 106.86979 547.6844 107.11979L541.4969 107.11979Q541.575 108.49479 542.2625 109.229164Q542.96564 109.947914 543.9969 109.947914Q544.77814 109.947914 545.325 109.541664Q545.8719 109.135414 546.1844 108.24479ZM541.575 105.96354L546.2 105.96354Q546.10626 104.916664 545.66876 104.40104Q544.9969 103.58854 543.9344 103.58854Q542.96564 103.58854 542.29376 104.24479Q541.6375 104.885414 541.575 105.96354ZM554.91876 107.86979L556.3094 108.05729Q556.075 109.479164 555.1375 110.291664Q554.21564 111.104164 552.85626 111.104164Q551.15314 111.104164 550.10626 109.99479Q549.075 108.86979 549.075 106.791664Q549.075 105.447914 549.5125 104.447914Q549.96564 103.43229 550.8719 102.93229Q551.79376 102.43229 552.85626 102.43229Q554.21564 102.43229 555.075 103.11979Q555.9344 103.791664 556.16876 105.05729L554.8094 105.260414Q554.60626 104.43229 554.10626 104.010414Q553.6219 103.58854 552.91876 103.58854Q551.85626 103.58854 551.1844 104.354164Q550.52814 105.104164 550.52814 106.760414Q550.52814 108.43229 551.16876 109.197914Q551.8094 109.947914 552.84064 109.947914Q553.66876 109.947914 554.21564 109.447914Q554.77814 108.93229 554.91876 107.86979ZM560.575 109.65104L560.77814 110.90104Q560.1844 111.02604 559.71564 111.02604Q558.95 111.02604 558.52814 110.791664Q558.10626 110.541664 557.9344 110.15104Q557.7625 109.74479 557.7625 108.479164L557.7625 103.71354L556.73126 103.71354L556.73126 102.61979L557.7625 102.61979L557.7625 100.55729L559.16876 99.71354L559.16876 102.61979L560.575 102.61979L560.575 103.71354L559.16876 103.71354L559.16876 108.55729Q559.16876 109.166664 559.23126 109.33854Q559.3094 109.510414 559.48126 109.61979Q559.65314 109.71354 559.96564 109.71354Q560.2 109.71354 560.575 109.65104ZM561.5125 101.072914L561.5125 99.46354L562.91876 99.46354L562.91876 101.072914L561.5125 101.072914ZM561.5125 110.916664L561.5125 102.61979L562.91876 102.61979L562.91876 110.916664L561.5125 110.916664ZM567.8094 110.916664L564.65314 102.61979L566.1375 102.61979L567.91876 107.58854Q568.21564 108.385414 568.45 109.260414Q568.6375 108.604164 568.98126 107.68229L570.825 102.61979L572.2625 102.61979L569.1219 110.916664L567.8094 110.916664ZM579.1844 108.24479L580.6375 108.416664Q580.29376 109.697914 579.35626 110.40104Q578.4344 111.104164 576.9969 111.104164Q575.16876 111.104164 574.10626 109.979164Q573.04376 108.854164 573.04376 106.83854Q573.04376 104.74479 574.1219 103.58854Q575.2 102.43229 576.91876 102.43229Q578.575 102.43229 579.6219 103.572914Q580.6844 104.697914 580.6844 106.74479Q580.6844 106.86979 580.6844 107.11979L574.4969 107.11979Q574.575 108.49479 575.2625 109.229164Q575.96564 109.947914 576.9969 109.947914Q577.77814 109.947914 578.325 109.541664Q578.8719 109.135414 579.1844 108.24479ZM574.575 105.96354L579.2 105.96354Q579.10626 104.916664 578.66876 104.40104Q577.9969 103.58854 576.9344 103.58854Q575.96564 103.58854 575.29376 104.24479Q574.6375 104.885414 574.575 105.96354Z" fill-rule="nonzero"/><path fill="#9e9e9e" d="M542.41876 132.91667L541.0125 132.91667L541.0125 123.94792Q540.4969 124.4323 539.66876 124.91667Q538.85626 125.40105 538.2 125.65105L538.2 124.29167Q539.3719 123.72917 540.2469 122.94792Q541.1375 122.15105 541.5125 121.41667L542.41876 121.41667L542.41876 132.91667ZM546.1219 129.91667L547.59064 129.79167Q547.7625 130.8698 548.35626 131.41667Q548.95 131.94792 549.79376 131.94792Q550.8094 131.94792 551.5125 131.1823Q552.21564 130.41667 552.21564 129.15105Q552.21564 127.94792 551.54376 127.26042Q550.8719 126.5573 549.77814 126.5573Q549.09064 126.5573 548.54376 126.8698Q547.9969 127.1823 547.6844 127.66667L546.3719 127.4948L547.48126 121.6198L553.16876 121.6198L553.16876 122.96355L548.60626 122.96355L547.98126 126.04167Q549.0125 125.32292 550.15314 125.32292Q551.65314 125.32292 552.6844 126.3698Q553.71564 127.40105 553.71564 129.02605Q553.71564 130.58855 552.8094 131.71355Q551.7 133.1198 549.79376 133.1198Q548.23126 133.1198 547.2469 132.2448Q546.2625 131.35417 546.1219 129.91667ZM555.90314 132.91667L555.90314 131.3073L557.5125 131.3073L557.5125 132.91667L555.90314 132.91667ZM559.325 130.26042L560.6844 130.13542Q560.85626 131.08855 561.34064 131.52605Q561.825 131.94792 562.575 131.94792Q563.23126 131.94792 563.71564 131.65105Q564.2 131.35417 564.5125 130.8698Q564.825 130.3698 565.02814 129.52605Q565.2469 128.6823 565.2469 127.8073Q565.2469 127.71355 565.2469 127.52605Q564.825 128.19792 564.09064 128.6198Q563.35626 129.02605 562.5125 129.02605Q561.09064 129.02605 560.10626 127.9948Q559.1219 126.96355 559.1219 125.27605Q559.1219 123.54167 560.1375 122.47917Q561.16876 121.41667 562.71564 121.41667Q563.84064 121.41667 564.7625 122.02605Q565.6844 122.6198 566.16876 123.72917Q566.65314 124.83855 566.65314 126.94792Q566.65314 129.15105 566.16876 130.44792Q565.7 131.7448 564.7469 132.4323Q563.8094 133.1198 562.54376 133.1198Q561.2 133.1198 560.34064 132.3698Q559.4969 131.6198 559.325 130.26042ZM565.09064 125.21355Q565.09064 123.9948 564.4344 123.29167Q563.79376 122.57292 562.8875 122.57292Q561.95 122.57292 561.2469 123.33855Q560.5594 124.10417 560.5594 125.32292Q560.5594 126.41667 561.21564 127.10417Q561.8875 127.79167 562.85626 127.79167Q563.825 127.79167 564.45 127.10417Q565.09064 126.41667 565.09064 125.21355ZM568.3875 124.21355Q568.3875 122.97917 568.9969 122.1198Q569.6219 121.26042 570.79376 121.26042Q571.8719 121.26042 572.575 122.04167Q573.27814 122.8073 573.27814 124.29167Q573.27814 125.7448 572.5594 126.54167Q571.85626 127.32292 570.8094 127.32292Q569.7625 127.32292 569.075 126.5573Q568.3875 125.77605 568.3875 124.21355ZM570.825 122.22917Q570.3094 122.22917 569.95 122.6823Q569.60626 123.13542 569.60626 124.35417Q569.60626 125.44792 569.95 125.90105Q570.3094 126.35417 570.825 126.35417Q571.35626 126.35417 571.7 125.90105Q572.0594 125.44792 572.0594 124.2448Q572.0594 123.13542 571.7 122.6823Q571.35626 122.22917 570.825 122.22917ZM570.84064 133.33855L577.10626 121.26042L578.2469 121.26042L571.9969 133.33855L570.84064 133.33855ZM575.79376 130.22917Q575.79376 128.9948 576.40314 128.13542Q577.02814 127.27605 578.2 127.27605Q579.27814 127.27605 579.98126 128.0573Q580.7 128.82292 580.7 130.3073Q580.7 131.76042 579.98126 132.5573Q579.2625 133.33855 578.21564 133.33855Q577.16876 133.33855 576.48126 132.5573Q575.79376 131.77605 575.79376 130.22917ZM578.2469 128.2448Q577.71564 128.2448 577.35626 128.69792Q577.0125 129.15105 577.0125 130.3698Q577.0125 131.46355 577.35626 131.91667Q577.71564 132.3698 578.23126 132.3698Q578.77814 132.3698 579.1219 131.91667Q579.46564 131.46355 579.46564 130.26042Q579.46564 129.15105 579.10626 128.69792Q578.7625 128.2448 578.2469 128.2448Z" fill-rule="nonzero"/><path stroke="#757575" stroke-width="1.0" stroke-linecap="butt" d="M581.45 116.416664L454.76666 116.416664L394.02936 98.17421" fill-rule="nonzero"/><path fill="#9e9e9e" d="M396.02936 98.17421C396.02936 97.06964 395.13394 96.17421 394.02936 96.17421C392.9248 96.17421 392.02936 97.06964 392.02936 98.17421C392.02936 99.27878 392.9248 100.17421 394.02936 100.17421C395.13394 100.17421 396.02936 99.27878 396.02936 98.17421" fill-rule="nonzero"/><path fill="#efefef" d="M531.6844 283.86017L531.6844 272.40704L536.0125 272.40704Q537.15314 272.40704 537.7469 272.51642Q538.59064 272.65704 539.15314 273.04767Q539.73126 273.4383 540.075 274.15704Q540.4344 274.86017 540.4344 275.71954Q540.4344 277.17267 539.4969 278.1883Q538.575 279.20392 536.1375 279.20392L533.2 279.20392L533.2 283.86017L531.6844 283.86017ZM533.2 277.84454L536.16876 277.84454Q537.6375 277.84454 538.2469 277.29767Q538.8719 276.7508 538.8719 275.76642Q538.8719 275.04767 538.4969 274.53204Q538.1375 274.01642 537.54376 273.86017Q537.16876 273.7508 536.1375 273.7508L533.2 273.7508L533.2 277.84454ZM548.1844 281.1883L549.6375 281.36017Q549.29376 282.64142 548.35626 283.34454Q547.4344 284.04767 545.9969 284.04767Q544.16876 284.04767 543.10626 282.92267Q542.04376 281.79767 542.04376 279.78204Q542.04376 277.6883 543.1219 276.53204Q544.2 275.3758 545.91876 275.3758Q547.575 275.3758 548.6219 276.51642Q549.6844 277.64142 549.6844 279.6883Q549.6844 279.8133 549.6844 280.0633L543.4969 280.0633Q543.575 281.4383 544.2625 282.17267Q544.96564 282.89142 545.9969 282.89142Q546.77814 282.89142 547.325 282.48517Q547.8719 282.07892 548.1844 281.1883ZM543.575 278.90704L548.2 278.90704Q548.10626 277.86017 547.66876 277.34454Q546.9969 276.53204 545.9344 276.53204Q544.96564 276.53204 544.29376 277.1883Q543.6375 277.82892 543.575 278.90704ZM550.98126 279.70392Q550.98126 277.40704 552.2625 276.29767Q553.34064 275.3758 554.8719 275.3758Q556.59064 275.3758 557.66876 276.5008Q558.7625 277.61017 558.7625 279.59454Q558.7625 281.1883 558.27814 282.11017Q557.79376 283.03204 556.8719 283.54767Q555.96564 284.04767 554.8719 284.04767Q553.1375 284.04767 552.0594 282.9383Q550.98126 281.8133 550.98126 279.70392ZM552.4344 279.70392Q552.4344 281.29767 553.1219 282.09454Q553.825 282.89142 554.8719 282.89142Q555.91876 282.89142 556.60626 282.09454Q557.3094 281.29767 557.3094 279.65704Q557.3094 278.1258 556.60626 277.32892Q555.91876 276.53204 554.8719 276.53204Q553.825 276.53204 553.1219 277.32892Q552.4344 278.11017 552.4344 279.70392ZM560.5125 287.04767L560.5125 275.5633L561.79376 275.5633L561.79376 276.64142Q562.2469 276.0008 562.8094 275.6883Q563.3875 275.3758 564.2 275.3758Q565.2625 275.3758 566.075 275.92267Q566.8875 276.46954 567.29376 277.46954Q567.71564 278.45392 567.71564 279.64142Q567.71564 280.92267 567.2469 281.9383Q566.79376 282.95392 565.91876 283.5008Q565.0594 284.04767 564.09064 284.04767Q563.3875 284.04767 562.825 283.7508Q562.27814 283.45392 561.91876 283.0008L561.91876 287.04767L560.5125 287.04767ZM561.77814 279.7508Q561.77814 281.36017 562.41876 282.1258Q563.075 282.89142 563.9969 282.89142Q564.9344 282.89142 565.60626 282.09454Q566.27814 281.29767 566.27814 279.64142Q566.27814 278.04767 565.6219 277.26642Q564.96564 276.46954 564.0594 276.46954Q563.16876 276.46954 562.46564 277.3133Q561.77814 278.15704 561.77814 279.7508ZM569.48126 283.86017L569.48126 272.40704L570.8875 272.40704L570.8875 283.86017L569.48126 283.86017ZM579.1844 281.1883L580.6375 281.36017Q580.29376 282.64142 579.35626 283.34454Q578.4344 284.04767 576.9969 284.04767Q575.16876 284.04767 574.10626 282.92267Q573.04376 281.79767 573.04376 279.78204Q573.04376 277.6883 574.1219 276.53204Q575.2 275.3758 576.91876 275.3758Q578.575 275.3758 579.6219 276.51642Q580.6844 277.64142 580.6844 279.6883Q580.6844 279.8133 580.6844 280.0633L574.4969 280.0633Q574.575 281.4383 575.2625 282.17267Q575.96564 282.89142 576.9969 282.89142Q577.77814 282.89142 578.325 282.48517Q578.8719 282.07892 579.1844 281.1883ZM574.575 278.90704L579.2 278.90704Q579.10626 277.86017 578.66876 277.34454Q577.9969 276.53204 576.9344 276.53204Q575.96564 276.53204 575.29376 277.1883Q574.6375 277.82892 574.575 278.90704Z" fill-rule="nonzero"/><path fill="#9e9e9e" d="M537.1219 302.82892L538.52814 302.64142Q538.77814 303.84454 539.35626 304.3758Q539.9344 304.89142 540.77814 304.89142Q541.7625 304.89142 542.45 304.20392Q543.1375 303.51642 543.1375 302.5008Q543.1375 301.53204 542.4969 300.90704Q541.8719 300.28204 540.8875 300.28204Q540.4969 300.28204 539.90314 300.4383L540.0594 299.20392Q540.2 299.21954 540.27814 299.21954Q541.1844 299.21954 541.90314 298.7508Q542.6219 298.28204 542.6219 297.29767Q542.6219 296.53204 542.09064 296.03204Q541.575 295.51642 540.7469 295.51642Q539.91876 295.51642 539.3719 296.03204Q538.825 296.54767 538.66876 297.57892L537.2625 297.32892Q537.52814 295.90704 538.4344 295.14142Q539.35626 294.36017 540.71564 294.36017Q541.65314 294.36017 542.4344 294.76642Q543.23126 295.15704 543.6375 295.86017Q544.0594 296.54767 544.0594 297.32892Q544.0594 298.07892 543.65314 298.6883Q543.2625 299.29767 542.48126 299.65704Q543.4969 299.89142 544.0594 300.6258Q544.6219 301.36017 544.6219 302.46954Q544.6219 303.96954 543.52814 305.01642Q542.4344 306.0633 540.7625 306.0633Q539.2625 306.0633 538.2625 305.17267Q537.2625 304.26642 537.1219 302.82892ZM551.41876 305.86017L550.0125 305.86017L550.0125 296.89142Q549.4969 297.3758 548.66876 297.86017Q547.85626 298.34454 547.2 298.59454L547.2 297.23517Q548.3719 296.67267 549.2469 295.89142Q550.1375 295.09454 550.5125 294.36017L551.41876 294.36017L551.41876 305.86017ZM555.90314 305.86017L555.90314 304.2508L557.5125 304.2508L557.5125 305.86017L555.90314 305.86017ZM559.21564 295.90704L559.21564 294.54767L566.6219 294.54767L566.6219 295.64142Q565.52814 296.8133 564.45 298.7508Q563.3875 300.67267 562.79376 302.70392Q562.3719 304.14142 562.2625 305.86017L560.8094 305.86017Q560.84064 304.5008 561.34064 302.59454Q561.85626 300.67267 562.79376 298.90704Q563.7469 297.1258 564.825 295.90704L559.21564 295.90704ZM568.3875 297.15704Q568.3875 295.92267 568.9969 295.0633Q569.6219 294.20392 570.79376 294.20392Q571.8719 294.20392 572.575 294.98517Q573.27814 295.7508 573.27814 297.23517Q573.27814 298.6883 572.5594 299.48517Q571.85626 300.26642 570.8094 300.26642Q569.7625 300.26642 569.075 299.5008Q568.3875 298.71954 568.3875 297.15704ZM570.825 295.17267Q570.3094 295.17267 569.95 295.6258Q569.60626 296.07892 569.60626 297.29767Q569.60626 298.39142 569.95 298.84454Q570.3094 299.29767 570.825 299.29767Q571.35626 299.29767 571.7 298.84454Q572.0594 298.39142 572.0594 297.1883Q572.0594 296.07892 571.7 295.6258Q571.35626 295.17267 570.825 295.17267ZM570.84064 306.28204L577.10626 294.20392L578.2469 294.20392L571.9969 306.28204L570.84064 306.28204ZM575.79376 303.17267Q575.79376 301.9383 576.40314 301.07892Q577.02814 300.21954 578.2 300.21954Q579.27814 300.21954 579.98126 301.0008Q580.7 301.76642 580.7 303.2508Q580.7 304.70392 579.98126 305.5008Q579.2625 306.28204 578.21564 306.28204Q577.16876 306.28204 576.48126 305.5008Q575.79376 304.71954 575.79376 303.17267ZM578.2469 301.1883Q577.71564 301.1883 577.35626 301.64142Q577.0125 302.09454 577.0125 303.3133Q577.0125 304.40704 577.35626 304.86017Q577.71564 305.3133 578.23126 305.3133Q578.77814 305.3133 579.1219 304.86017Q579.46564 304.40704 579.46564 303.20392Q579.46564 302.09454 579.10626 301.64142Q578.7625 301.1883 578.2469 301.1883Z" fill-rule="nonzero"/><path stroke="#757575" stroke-width="1.0" stroke-linecap="butt" d="M581.45 289.36017L454.76666 289.36017L412.39743 289.36017" fill-rule="nonzero"/><path fill="#9e9e9e" d="M414.39743 289.36017C414.39743 288.25558 413.50198 287.36017 412.39743 287.36017C411.29285 287.36017 410.39743 288.25558 410.39743 289.36017C410.39743 290.46472 411.29285 291.36017 412.39743 291.36017C413.50198 291.36017 414.39743 290.46472 414.39743 289.36017" fill-rule="nonzero"/><path fill="#f3f3f3" d="M265.98438 37.55L265.98438 23.2375L268.84375 23.2375L272.21875 33.3625Q272.6875 34.784374 272.90625 35.4875Q273.15625 34.70625 273.67188 33.190624L277.09375 23.2375L279.64062 23.2375L279.64062 37.55L277.82812 37.55L277.82812 25.565624L273.65625 37.55L271.95312 37.55L267.8125 25.3625L267.8125 37.55L265.98438 37.55ZM289.92188 34.20625L291.73438 34.440624Q291.3125 36.01875 290.14062 36.909374Q288.98438 37.784374 287.17188 37.784374Q284.90625 37.784374 283.5625 36.39375Q282.23438 34.9875 282.23438 32.45625Q282.23438 29.83125 283.57812 28.39375Q284.92188 26.940624 287.07812 26.940624Q289.15625 26.940624 290.46875 28.3625Q291.79688 29.76875 291.79688 32.346874Q291.79688 32.503124 291.78125 32.815624L284.04688 32.815624Q284.14062 34.51875 285.01562 35.425Q285.89062 36.33125 287.1875 36.33125Q288.15625 36.33125 288.82812 35.83125Q289.51562 35.315624 289.92188 34.20625ZM284.14062 31.3625L289.9375 31.3625Q289.82812 30.065624 289.28125 29.409374Q288.4375 28.39375 287.09375 28.39375Q285.89062 28.39375 285.0625 29.20625Q284.23438 30.003124 284.14062 31.3625ZM300.54688 37.55L300.54688 36.2375Q299.5625 37.784374 297.64062 37.784374Q296.40625 37.784374 295.35938 37.096874Q294.32812 36.409374 293.75 35.190624Q293.1875 33.971874 293.1875 32.378124Q293.1875 30.815624 293.70312 29.55Q294.21875 28.284374 295.25 27.6125Q296.29688 26.940624 297.5625 26.940624Q298.5 26.940624 299.23438 27.346874Q299.96875 27.7375 300.4375 28.3625L300.4375 23.2375L302.17188 23.2375L302.17188 37.55L300.54688 37.55ZM294.98438 32.378124Q294.98438 34.3625 295.82812 35.346874Q296.67188 36.33125 297.8125 36.33125Q298.96875 36.33125 299.76562 35.39375Q300.57812 34.45625 300.57812 32.51875Q300.57812 30.39375 299.75 29.39375Q298.9375 28.39375 297.73438 28.39375Q296.5625 28.39375 295.76562 29.3625Q294.98438 30.315624 294.98438 32.378124ZM304.82812 25.253124L304.82812 23.2375L306.59375 23.2375L306.59375 25.253124L304.82812 25.253124ZM304.82812 37.55L304.82812 27.175L306.59375 27.175L306.59375 37.55L304.82812 37.55ZM315.60938 37.55L315.60938 36.01875Q314.40625 37.784374 312.32812 37.784374Q311.40625 37.784374 310.60938 37.440624Q309.8125 37.08125 309.42188 36.55Q309.04688 36.01875 308.89062 35.2375Q308.78125 34.721874 308.78125 33.596874L308.78125 27.175L310.53125 27.175L310.53125 32.925Q310.53125 34.3 310.64062 34.784374Q310.8125 35.471874 311.34375 35.878124Q311.89062 36.26875 312.67188 36.26875Q313.46875 36.26875 314.15625 35.8625Q314.85938 35.45625 315.14062 34.76875Q315.4375 34.065624 315.4375 32.7375L315.4375 27.175L317.1875 27.175L317.1875 37.55L315.60938 37.55ZM319.8125 37.55L319.8125 27.175L321.39062 27.175L321.39062 28.628124Q321.875 27.878124 322.6875 27.409374Q323.5 26.940624 324.53125 26.940624Q325.6875 26.940624 326.42188 27.425Q327.15625 27.89375 327.46875 28.753124Q328.70312 26.940624 330.67188 26.940624Q332.21875 26.940624 333.04688 27.8Q333.875 28.659374 333.875 30.425L333.875 37.55L332.125 37.55L332.125 31.01875Q332.125 29.95625 331.95312 29.503124Q331.78125 29.034374 331.32812 28.753124Q330.89062 28.471874 330.28125 28.471874Q329.1875 28.471874 328.45312 29.20625Q327.73438 29.925 327.73438 31.51875L327.73438 37.55L325.98438 37.55L325.98438 30.815624Q325.98438 29.64375 325.54688 29.065624Q325.125 28.471874 324.14062 28.471874Q323.40625 28.471874 322.76562 28.8625Q322.14062 29.253124 321.85938 30.003124Q321.57812 30.753124 321.57812 32.175L321.57812 37.55L319.8125 37.55Z" fill-rule="nonzero"/></svg>