<svg version="1.1" viewBox="0.0 0.0 600.0 371.0" fill="none" stroke="none" stroke-linecap="square" stroke-miterlimit="10" width="600" height="371" xmlns:xlink="http://www.w3.org/1999/xlink" xmlns="http://www.w3.org/2000/svg"><path fill="#ffffff" fill-opacity="0.0" d="M0 0L600.0 0L600.0 371.0L0 371.0L0 0Z" fill-rule="nonzero"/><path fill="#f5ee58" d="M300.0 54.916668C364.44962 54.916668 421.5695 96.416664 441.4855 157.7119L370.74277 180.69762C360.78473 150.05 332.22482 129.3 300.0 129.3Z" fill-rule="nonzero"/><path fill="#313d89" d="M441.4855 157.7119C461.40155 219.00714 439.5837 286.15555 387.44284 324.0381L343.72144 263.86072C369.79184 244.91945 380.70078 211.34525 370.74277 180.69762Z" fill-rule="nonzero"/><path fill="#78a94e" d="M158.5145 157.7119C178.43053 96.416664 235.55037 54.916668 300.0 54.916668L300.0 129.3C267.77518 129.3 239.21526 150.05 229.25725 180.69762Z" fill-rule="nonzero"/><path fill="#2d4d98" d="M212.55714 324.0381C160.4163 286.15555 138.59846 219.00714 158.5145 157.7119L229.25725 180.69762C219.29922 211.34525 230.20815 244.91945 256.27856 263.86072Z" fill-rule="nonzero"/><path fill="#4571b0" d="M387.44284 324.0381C335.302 361.92062 264.698 361.92062 212.55714 324.0381L256.27856 263.86072C282.349 282.80197 317.651 282.80197 343.72144 263.86072Z" fill-rule="nonzero"/><path fill="#ffffff" d="M349.14465 118.401634L349.14465 119.91726L340.62903 119.91726Q340.6134 119.339134 340.81653 118.82351Q341.14465 117.94851 341.84778 117.10476Q342.56653 116.26101 343.9259 115.151634Q346.01965 113.432884 346.75403 112.432884Q347.50403 111.41726 347.50403 110.526634Q347.50403 109.57351 346.83215 108.932884Q346.16028 108.29226 345.08215 108.29226Q343.9259 108.29226 343.2384 108.97976Q342.56653 109.66726 342.5509 110.870384L340.9259 110.69851Q341.09778 108.88601 342.1759 107.932884Q343.26965 106.97976 345.1134 106.97976Q346.95715 106.97976 348.03528 108.01101Q349.12903 109.04226 349.12903 110.557884Q349.12903 111.32351 348.8009 112.07351Q348.4884 112.82351 347.75403 113.651634Q347.01965 114.47976 345.31653 115.91726Q343.89465 117.120384 343.4884 117.54226Q343.08215 117.964134 342.83215 118.401634L349.14465 118.401634ZM350.83215 113.557884Q350.83215 111.276634 351.3009 109.88601Q351.76965 108.495384 352.69153 107.745384Q353.62903 106.97976 355.03528 106.97976Q356.06653 106.97976 356.84778 107.401634Q357.62903 107.807884 358.12903 108.60476Q358.64465 109.38601 358.94153 110.526634Q359.2384 111.651634 359.2384 113.557884Q359.2384 115.82351 358.76965 117.22976Q358.3009 118.620384 357.3634 119.38601Q356.44153 120.13601 355.03528 120.13601Q353.16028 120.13601 352.09778 118.807884Q350.83215 117.19851 350.83215 113.557884ZM352.45715 113.557884Q352.45715 116.72976 353.19153 117.79226Q353.94153 118.839134 355.03528 118.839134Q356.1134 118.839134 356.8634 117.79226Q357.6134 116.72976 357.6134 113.557884Q357.6134 110.38601 356.8634 109.339134Q356.1134 108.29226 355.01965 108.29226Q353.9259 108.29226 353.26965 109.214134Q352.45715 110.38601 352.45715 113.557884ZM361.72278 119.91726L361.72278 118.120384L363.51965 118.120384L363.51965 119.91726L361.72278 119.91726ZM365.83215 113.557884Q365.83215 111.276634 366.3009 109.88601Q366.76965 108.495384 367.69153 107.745384Q368.62903 106.97976 370.03528 106.97976Q371.06653 106.97976 371.84778 107.401634Q372.62903 107.807884 373.12903 108.60476Q373.64465 109.38601 373.94153 110.526634Q374.2384 111.651634 374.2384 113.557884Q374.2384 115.82351 373.76965 117.22976Q373.3009 118.620384 372.3634 119.38601Q371.44153 120.13601 370.03528 120.13601Q368.16028 120.13601 367.09778 118.807884Q365.83215 117.19851 365.83215 113.557884ZM367.45715 113.557884Q367.45715 116.72976 368.19153 117.79226Q368.94153 118.839134 370.03528 118.839134Q371.1134 118.839134 371.8634 117.79226Q372.6134 116.72976 372.6134 113.557884Q372.6134 110.38601 371.8634 109.339134Q371.1134 108.29226 370.01965 108.29226Q368.9259 108.29226 368.26965 109.214134Q367.45715 110.38601 367.45715 113.557884ZM376.12903 110.120384Q376.12903 108.745384 376.81653 107.776634Q377.51965 106.807884 378.83215 106.807884Q380.0509 106.807884 380.84778 107.682884Q381.64465 108.54226 381.64465 110.22976Q381.64465 111.85476 380.83215 112.745384Q380.03528 113.620384 378.84778 113.620384Q377.69153 113.620384 376.91028 112.76101Q376.12903 111.88601 376.12903 110.120384ZM378.87903 107.901634Q378.28528 107.901634 377.89465 108.41726Q377.50403 108.91726 377.50403 110.276634Q377.50403 111.526634 377.89465 112.026634Q378.3009 112.526634 378.87903 112.526634Q379.47278 112.526634 379.8634 112.026634Q380.25403 111.51101 380.25403 110.16726Q380.25403 108.91726 379.8634 108.41726Q379.47278 107.901634 378.87903 107.901634ZM378.89465 120.38601L385.94153 106.807884L387.22278 106.807884L380.19153 120.38601L378.89465 120.38601ZM384.45715 116.88601Q384.45715 115.51101 385.14465 114.54226Q385.84778 113.57351 387.1759 113.57351Q388.39465 113.57351 389.1759 114.44851Q389.97278 115.307884 389.97278 116.995384Q389.97278 118.620384 389.1759 119.51101Q388.37903 120.38601 387.19153 120.38601Q386.01965 120.38601 385.2384 119.51101Q384.45715 118.63601 384.45715 116.88601ZM387.22278 114.66726Q386.62903 114.66726 386.2384 115.182884Q385.84778 115.682884 385.84778 117.057884Q385.84778 118.276634 386.2384 118.79226Q386.62903 119.307884 387.20715 119.307884Q387.81653 119.307884 388.20715 118.79226Q388.59778 118.276634 388.59778 116.932884Q388.59778 115.682884 388.20715 115.182884Q387.81653 114.66726 387.22278 114.66726Z" fill-rule="nonzero"/><path fill="#ffffff" d="M389.67664 243.14629L389.67664 244.66191L381.161 244.66191Q381.1454 244.08379 381.3485 243.56816Q381.67664 242.69316 382.37976 241.84941Q383.0985 241.00566 384.4579 239.89629Q386.55164 238.17754 387.286 237.17754Q388.036 236.16191 388.036 235.27129Q388.036 234.31816 387.36414 233.67754Q386.69226 233.03691 385.61414 233.03691Q384.4579 233.03691 383.7704 233.72441Q383.0985 234.41191 383.0829 235.61504L381.4579 235.44316Q381.62976 233.63066 382.7079 232.67754Q383.80164 231.72441 385.6454 231.72441Q387.48914 231.72441 388.56726 232.75566Q389.661 233.78691 389.661 235.30254Q389.661 236.06816 389.3329 236.81816Q389.0204 237.56816 388.286 238.39629Q387.55164 239.22441 385.8485 240.66191Q384.42664 241.86504 384.0204 242.28691Q383.61414 242.70879 383.36414 243.14629L389.67664 243.14629ZM391.36414 238.30254Q391.36414 236.02129 391.8329 234.63066Q392.30164 233.24004 393.2235 232.49004Q394.161 231.72441 395.56726 231.72441Q396.5985 231.72441 397.37976 232.14629Q398.161 232.55254 398.661 233.34941Q399.17664 234.13066 399.4735 235.27129Q399.7704 236.39629 399.7704 238.30254Q399.7704 240.56816 399.30164 241.97441Q398.8329 243.36504 397.8954 244.13066Q396.9735 244.88066 395.56726 244.88066Q393.69226 244.88066 392.62976 243.55254Q391.36414 241.94316 391.36414 238.30254ZM392.98914 238.30254Q392.98914 241.47441 393.7235 242.53691Q394.4735 243.58379 395.56726 243.58379Q396.6454 243.58379 397.3954 242.53691Q398.1454 241.47441 398.1454 238.30254Q398.1454 235.13066 397.3954 234.08379Q396.6454 233.03691 395.55164 233.03691Q394.4579 233.03691 393.80164 233.95879Q392.98914 235.13066 392.98914 238.30254ZM402.25476 244.66191L402.25476 242.86504L404.05164 242.86504L404.05164 244.66191L402.25476 244.66191ZM406.36414 238.30254Q406.36414 236.02129 406.8329 234.63066Q407.30164 233.24004 408.2235 232.49004Q409.161 231.72441 410.56726 231.72441Q411.5985 231.72441 412.37976 232.14629Q413.161 232.55254 413.661 233.34941Q414.17664 234.13066 414.4735 235.27129Q414.7704 236.39629 414.7704 238.30254Q414.7704 240.56816 414.30164 241.97441Q413.8329 243.36504 412.8954 244.13066Q411.9735 244.88066 410.56726 244.88066Q408.69226 244.88066 407.62976 243.55254Q406.36414 241.94316 406.36414 238.30254ZM407.98914 238.30254Q407.98914 241.47441 408.7235 242.53691Q409.4735 243.58379 410.56726 243.58379Q411.6454 243.58379 412.3954 242.53691Q413.1454 241.47441 413.1454 238.30254Q413.1454 235.13066 412.3954 234.08379Q411.6454 233.03691 410.55164 233.03691Q409.4579 233.03691 408.80164 233.95879Q407.98914 235.13066 407.98914 238.30254ZM416.661 234.86504Q416.661 233.49004 417.3485 232.52129Q418.05164 231.55254 419.36414 231.55254Q420.5829 231.55254 421.37976 232.42754Q422.17664 233.28691 422.17664 234.97441Q422.17664 236.59941 421.36414 237.49004Q420.56726 238.36504 419.37976 238.36504Q418.2235 238.36504 417.44226 237.50566Q416.661 236.63066 416.661 234.86504ZM419.411 232.64629Q418.81726 232.64629 418.42664 233.16191Q418.036 233.66191 418.036 235.02129Q418.036 236.27129 418.42664 236.77129Q418.8329 237.27129 419.411 237.27129Q420.00476 237.27129 420.3954 236.77129Q420.786 236.25566 420.786 234.91191Q420.786 233.66191 420.3954 233.16191Q420.00476 232.64629 419.411 232.64629ZM419.42664 245.13066L426.4735 231.55254L427.75476 231.55254L420.7235 245.13066L419.42664 245.13066ZM424.98914 241.63066Q424.98914 240.25566 425.67664 239.28691Q426.37976 238.31816 427.7079 238.31816Q428.92664 238.31816 429.7079 239.19316Q430.50476 240.05254 430.50476 241.74004Q430.50476 243.36504 429.7079 244.25566Q428.911 245.13066 427.7235 245.13066Q426.55164 245.13066 425.7704 244.25566Q424.98914 243.38066 424.98914 241.63066ZM427.75476 239.41191Q427.161 239.41191 426.7704 239.92754Q426.37976 240.42754 426.37976 241.80254Q426.37976 243.02129 426.7704 243.53691Q427.161 244.05254 427.73914 244.05254Q428.3485 244.05254 428.73914 243.53691Q429.12976 243.02129 429.12976 241.67754Q429.12976 240.42754 428.73914 239.92754Q428.3485 239.41191 427.75476 239.41191Z" fill-rule="nonzero"/><path fill="#ffffff" d="M283.5625 326.4736L283.5625 327.98923L275.04688 327.98923Q275.03125 327.4111 275.23438 326.89548Q275.5625 326.02048 276.26562 325.17673Q276.98438 324.33298 278.34375 323.2236Q280.4375 321.50485 281.17188 320.50485Q281.92188 319.48923 281.92188 318.5986Q281.92188 317.64548 281.25 317.00485Q280.57812 316.36423 279.5 316.36423Q278.34375 316.36423 277.65625 317.05173Q276.98438 317.73923 276.96875 318.94235L275.34375 318.77048Q275.51562 316.95798 276.59375 316.00485Q277.6875 315.05173 279.53125 315.05173Q281.375 315.05173 282.45312 316.08298Q283.54688 317.11423 283.54688 318.62985Q283.54688 319.39548 283.21875 320.14548Q282.90625 320.89548 282.17188 321.7236Q281.4375 322.55173 279.73438 323.98923Q278.3125 325.19235 277.90625 325.61423Q277.5 326.0361 277.25 326.4736L283.5625 326.4736ZM285.25 321.62985Q285.25 319.3486 285.71875 317.95798Q286.1875 316.56735 287.10938 315.81735Q288.04688 315.05173 289.45312 315.05173Q290.48438 315.05173 291.26562 315.4736Q292.04688 315.87985 292.54688 316.67673Q293.0625 317.45798 293.35938 318.5986Q293.65625 319.7236 293.65625 321.62985Q293.65625 323.89548 293.1875 325.30173Q292.71875 326.69235 291.78125 327.45798Q290.85938 328.20798 289.45312 328.20798Q287.57812 328.20798 286.51562 326.87985Q285.25 325.27048 285.25 321.62985ZM286.875 321.62985Q286.875 324.80173 287.60938 325.86423Q288.35938 326.9111 289.45312 326.9111Q290.53125 326.9111 291.28125 325.86423Q292.03125 324.80173 292.03125 321.62985Q292.03125 318.45798 291.28125 317.4111Q290.53125 316.36423 289.4375 316.36423Q288.34375 316.36423 287.6875 317.2861Q286.875 318.45798 286.875 321.62985ZM296.14062 327.98923L296.14062 326.19235L297.9375 326.19235L297.9375 327.98923L296.14062 327.98923ZM300.25 321.62985Q300.25 319.3486 300.71875 317.95798Q301.1875 316.56735 302.10938 315.81735Q303.04688 315.05173 304.45312 315.05173Q305.48438 315.05173 306.26562 315.4736Q307.04688 315.87985 307.54688 316.67673Q308.0625 317.45798 308.35938 318.5986Q308.65625 319.7236 308.65625 321.62985Q308.65625 323.89548 308.1875 325.30173Q307.71875 326.69235 306.78125 327.45798Q305.85938 328.20798 304.45312 328.20798Q302.57812 328.20798 301.51562 326.87985Q300.25 325.27048 300.25 321.62985ZM301.875 321.62985Q301.875 324.80173 302.60938 325.86423Q303.35938 326.9111 304.45312 326.9111Q305.53125 326.9111 306.28125 325.86423Q307.03125 324.80173 307.03125 321.62985Q307.03125 318.45798 306.28125 317.4111Q305.53125 316.36423 304.4375 316.36423Q303.34375 316.36423 302.6875 317.2861Q301.875 318.45798 301.875 321.62985ZM310.54688 318.19235Q310.54688 316.81735 311.23438 315.8486Q311.9375 314.87985 313.25 314.87985Q314.46875 314.87985 315.26562 315.75485Q316.0625 316.61423 316.0625 318.30173Q316.0625 319.92673 315.25 320.81735Q314.45312 321.69235 313.26562 321.69235Q312.10938 321.69235 311.32812 320.83298Q310.54688 319.95798 310.54688 318.19235ZM313.29688 315.9736Q312.70312 315.9736 312.3125 316.48923Q311.92188 316.98923 311.92188 318.3486Q311.92188 319.5986 312.3125 320.0986Q312.71875 320.5986 313.29688 320.5986Q313.89062 320.5986 314.28125 320.0986Q314.67188 319.58298 314.67188 318.23923Q314.67188 316.98923 314.28125 316.48923Q313.89062 315.9736 313.29688 315.9736ZM313.3125 328.45798L320.35938 314.87985L321.64062 314.87985L314.60938 328.45798L313.3125 328.45798ZM318.875 324.95798Q318.875 323.58298 319.5625 322.61423Q320.26562 321.64548 321.59375 321.64548Q322.8125 321.64548 323.59375 322.52048Q324.39062 323.37985 324.39062 325.06735Q324.39062 326.69235 323.59375 327.58298Q322.79688 328.45798 321.60938 328.45798Q320.4375 328.45798 319.65625 327.58298Q318.875 326.70798 318.875 324.95798ZM321.64062 322.73923Q321.04688 322.73923 320.65625 323.25485Q320.26562 323.75485 320.26562 325.12985Q320.26562 326.3486 320.65625 326.86423Q321.04688 327.37985 321.625 327.37985Q322.23438 327.37985 322.625 326.86423Q323.01562 326.3486 323.01562 325.00485Q323.01562 323.75485 322.625 323.25485Q322.23438 322.73923 321.64062 322.73923Z" fill-rule="nonzero"/><path fill="#ffffff" d="M177.44836 243.14629L177.44836 244.66191L168.93274 244.66191Q168.91711 244.08379 169.12024 243.56816Q169.44836 242.69316 170.15149 241.84941Q170.87024 241.00566 172.22961 239.89629Q174.32336 238.17754 175.05774 237.17754Q175.80774 236.16191 175.80774 235.27129Q175.80774 234.31816 175.13586 233.67754Q174.46399 233.03691 173.38586 233.03691Q172.22961 233.03691 171.54211 233.72441Q170.87024 234.41191 170.85461 235.61504L169.22961 235.44316Q169.40149 233.63066 170.47961 232.67754Q171.57336 231.72441 173.41711 231.72441Q175.26086 231.72441 176.33899 232.75566Q177.43274 233.78691 177.43274 235.30254Q177.43274 236.06816 177.10461 236.81816Q176.79211 237.56816 176.05774 238.39629Q175.32336 239.22441 173.62024 240.66191Q172.19836 241.86504 171.79211 242.28691Q171.38586 242.70879 171.13586 243.14629L177.44836 243.14629ZM179.13586 238.30254Q179.13586 236.02129 179.60461 234.63066Q180.07336 233.24004 180.99524 232.49004Q181.93274 231.72441 183.33899 231.72441Q184.37024 231.72441 185.15149 232.14629Q185.93274 232.55254 186.43274 233.34941Q186.94836 234.13066 187.24524 235.27129Q187.54211 236.39629 187.54211 238.30254Q187.54211 240.56816 187.07336 241.97441Q186.60461 243.36504 185.66711 244.13066Q184.74524 244.88066 183.33899 244.88066Q181.46399 244.88066 180.40149 243.55254Q179.13586 241.94316 179.13586 238.30254ZM180.76086 238.30254Q180.76086 241.47441 181.49524 242.53691Q182.24524 243.58379 183.33899 243.58379Q184.41711 243.58379 185.16711 242.53691Q185.91711 241.47441 185.91711 238.30254Q185.91711 235.13066 185.16711 234.08379Q184.41711 233.03691 183.32336 233.03691Q182.22961 233.03691 181.57336 233.95879Q180.76086 235.13066 180.76086 238.30254ZM190.02649 244.66191L190.02649 242.86504L191.82336 242.86504L191.82336 244.66191L190.02649 244.66191ZM194.13586 238.30254Q194.13586 236.02129 194.60461 234.63066Q195.07336 233.24004 195.99524 232.49004Q196.93274 231.72441 198.33899 231.72441Q199.37024 231.72441 200.15149 232.14629Q200.93274 232.55254 201.43274 233.34941Q201.94836 234.13066 202.24524 235.27129Q202.54211 236.39629 202.54211 238.30254Q202.54211 240.56816 202.07336 241.97441Q201.60461 243.36504 200.66711 244.13066Q199.74524 244.88066 198.33899 244.88066Q196.46399 244.88066 195.40149 243.55254Q194.13586 241.94316 194.13586 238.30254ZM195.76086 238.30254Q195.76086 241.47441 196.49524 242.53691Q197.24524 243.58379 198.33899 243.58379Q199.41711 243.58379 200.16711 242.53691Q200.91711 241.47441 200.91711 238.30254Q200.91711 235.13066 200.16711 234.08379Q199.41711 233.03691 198.32336 233.03691Q197.22961 233.03691 196.57336 233.95879Q195.76086 235.13066 195.76086 238.30254ZM204.43274 234.86504Q204.43274 233.49004 205.12024 232.52129Q205.82336 231.55254 207.13586 231.55254Q208.35461 231.55254 209.15149 232.42754Q209.94836 233.28691 209.94836 234.97441Q209.94836 236.59941 209.13586 237.49004Q208.33899 238.36504 207.15149 238.36504Q205.99524 238.36504 205.21399 237.50566Q204.43274 236.63066 204.43274 234.86504ZM207.18274 232.64629Q206.58899 232.64629 206.19836 233.16191Q205.80774 233.66191 205.80774 235.02129Q205.80774 236.27129 206.19836 236.77129Q206.60461 237.27129 207.18274 237.27129Q207.77649 237.27129 208.16711 236.77129Q208.55774 236.25566 208.55774 234.91191Q208.55774 233.66191 208.16711 233.16191Q207.77649 232.64629 207.18274 232.64629ZM207.19836 245.13066L214.24524 231.55254L215.52649 231.55254L208.49524 245.13066L207.19836 245.13066ZM212.76086 241.63066Q212.76086 240.25566 213.44836 239.28691Q214.15149 238.31816 215.47961 238.31816Q216.69836 238.31816 217.47961 239.19316Q218.27649 240.05254 218.27649 241.74004Q218.27649 243.36504 217.47961 244.25566Q216.68274 245.13066 215.49524 245.13066Q214.32336 245.13066 213.54211 244.25566Q212.76086 243.38066 212.76086 241.63066ZM215.52649 239.41191Q214.93274 239.41191 214.54211 239.92754Q214.15149 240.42754 214.15149 241.80254Q214.15149 243.02129 214.54211 243.53691Q214.93274 244.05254 215.51086 244.05254Q216.12024 244.05254 216.51086 243.53691Q216.90149 243.02129 216.90149 241.67754Q216.90149 240.42754 216.51086 239.92754Q216.12024 239.41191 215.52649 239.41191Z" fill-rule="nonzero"/><path fill="#ffffff" d="M217.98036 118.401634L217.98036 119.91726L209.46474 119.91726Q209.44911 119.339134 209.65224 118.82351Q209.98036 117.94851 210.68349 117.10476Q211.40224 116.26101 212.76161 115.151634Q214.85536 113.432884 215.58974 112.432884Q216.33974 111.41726 216.33974 110.526634Q216.33974 109.57351 215.66786 108.932884Q214.99599 108.29226 213.91786 108.29226Q212.76161 108.29226 212.07411 108.97976Q211.40224 109.66726 211.38661 110.870384L209.76161 110.69851Q209.93349 108.88601 211.01161 107.932884Q212.10536 106.97976 213.94911 106.97976Q215.79286 106.97976 216.87099 108.01101Q217.96474 109.04226 217.96474 110.557884Q217.96474 111.32351 217.63661 112.07351Q217.32411 112.82351 216.58974 113.651634Q215.85536 114.47976 214.15224 115.91726Q212.73036 117.120384 212.32411 117.54226Q211.91786 117.964134 211.66786 118.401634L217.98036 118.401634ZM219.66786 113.557884Q219.66786 111.276634 220.13661 109.88601Q220.60536 108.495384 221.52724 107.745384Q222.46474 106.97976 223.87099 106.97976Q224.90224 106.97976 225.68349 107.401634Q226.46474 107.807884 226.96474 108.60476Q227.48036 109.38601 227.77724 110.526634Q228.07411 111.651634 228.07411 113.557884Q228.07411 115.82351 227.60536 117.22976Q227.13661 118.620384 226.19911 119.38601Q225.27724 120.13601 223.87099 120.13601Q221.99599 120.13601 220.93349 118.807884Q219.66786 117.19851 219.66786 113.557884ZM221.29286 113.557884Q221.29286 116.72976 222.02724 117.79226Q222.77724 118.839134 223.87099 118.839134Q224.94911 118.839134 225.69911 117.79226Q226.44911 116.72976 226.44911 113.557884Q226.44911 110.38601 225.69911 109.339134Q224.94911 108.29226 223.85536 108.29226Q222.76161 108.29226 222.10536 109.214134Q221.29286 110.38601 221.29286 113.557884ZM230.55849 119.91726L230.55849 118.120384L232.35536 118.120384L232.35536 119.91726L230.55849 119.91726ZM234.66786 113.557884Q234.66786 111.276634 235.13661 109.88601Q235.60536 108.495384 236.52724 107.745384Q237.46474 106.97976 238.87099 106.97976Q239.90224 106.97976 240.68349 107.401634Q241.46474 107.807884 241.96474 108.60476Q242.48036 109.38601 242.77724 110.526634Q243.07411 111.651634 243.07411 113.557884Q243.07411 115.82351 242.60536 117.22976Q242.13661 118.620384 241.19911 119.38601Q240.27724 120.13601 238.87099 120.13601Q236.99599 120.13601 235.93349 118.807884Q234.66786 117.19851 234.66786 113.557884ZM236.29286 113.557884Q236.29286 116.72976 237.02724 117.79226Q237.77724 118.839134 238.87099 118.839134Q239.94911 118.839134 240.69911 117.79226Q241.44911 116.72976 241.44911 113.557884Q241.44911 110.38601 240.69911 109.339134Q239.94911 108.29226 238.85536 108.29226Q237.76161 108.29226 237.10536 109.214134Q236.29286 110.38601 236.29286 113.557884ZM244.96474 110.120384Q244.96474 108.745384 245.65224 107.776634Q246.35536 106.807884 247.66786 106.807884Q248.88661 106.807884 249.68349 107.682884Q250.48036 108.54226 250.48036 110.22976Q250.48036 111.85476 249.66786 112.745384Q248.87099 113.620384 247.68349 113.620384Q246.52724 113.620384 245.74599 112.76101Q244.96474 111.88601 244.96474 110.120384ZM247.71474 107.901634Q247.12099 107.901634 246.73036 108.41726Q246.33974 108.91726 246.33974 110.276634Q246.33974 111.526634 246.73036 112.026634Q247.13661 112.526634 247.71474 112.526634Q248.30849 112.526634 248.69911 112.026634Q249.08974 111.51101 249.08974 110.16726Q249.08974 108.91726 248.69911 108.41726Q248.30849 107.901634 247.71474 107.901634ZM247.73036 120.38601L254.77724 106.807884L256.05847 106.807884L249.02724 120.38601L247.73036 120.38601ZM253.29286 116.88601Q253.29286 115.51101 253.98036 114.54226Q254.68349 113.57351 256.0116 113.57351Q257.23035 113.57351 258.0116 114.44851Q258.80847 115.307884 258.80847 116.995384Q258.80847 118.620384 258.0116 119.51101Q257.21472 120.38601 256.02722 120.38601Q254.85536 120.38601 254.07411 119.51101Q253.29286 118.63601 253.29286 116.88601ZM256.05847 114.66726Q255.46474 114.66726 255.07411 115.182884Q254.68349 115.682884 254.68349 117.057884Q254.68349 118.276634 255.07411 118.79226Q255.46474 119.307884 256.04285 119.307884Q256.65222 119.307884 257.04285 118.79226Q257.43347 118.276634 257.43347 116.932884Q257.43347 115.682884 257.04285 115.182884Q256.65222 114.66726 256.05847 114.66726Z" fill-rule="nonzero"/><path stroke="#ffffff" stroke-width="1.0" stroke-linejoin="round" stroke-linecap="round" d="M370.74277 180.69762C360.78473 150.05 332.22482 129.3 300.0 129.3L300.0 54.916668C364.44962 54.916668 421.5695 96.416664 441.4855 157.7119" fill-rule="nonzero"/><path stroke="#ffffff" stroke-width="1.0" stroke-linejoin="round" stroke-linecap="round" d="M343.72144 263.86072C369.79184 244.91945 380.70078 211.34525 370.74277 180.69762L441.4855 157.7119C461.40155 219.00714 439.5837 286.15555 387.44284 324.0381" fill-rule="nonzero"/><path stroke="#ffffff" stroke-width="1.0" stroke-linejoin="round" stroke-linecap="round" d="M256.27856 263.86072C282.349 282.80197 317.651 282.80197 343.72144 263.86072L387.44284 324.0381C335.302 361.92062 264.698 361.92062 212.55714 324.0381" fill-rule="nonzero"/><path stroke="#ffffff" stroke-width="1.0" stroke-linejoin="round" stroke-linecap="round" d="M229.25725 180.69762C219.29922 211.34525 230.20815 244.91945 256.27856 263.86072L212.55714 324.0381C160.4163 286.15555 138.59846 219.00714 158.5145 157.7119" fill-rule="nonzero"/><path stroke="#ffffff" stroke-width="1.0" stroke-linejoin="round" stroke-linecap="round" d="M300.0 129.3C267.77518 129.3 239.21526 150.05 229.25725 180.69762L158.5145 157.7119C178.43053 96.416664 235.55037 54.916668 300.0 54.916668" fill-rule="nonzero"/><path fill="#efefef" d="M18.51875 83.84631L22.925 72.39319L24.565624 72.39319L29.253124 83.84631L27.51875 83.84631L26.190624 80.37756L21.39375 80.37756L20.14375 83.84631L18.51875 83.84631ZM21.83125 79.14319L25.721874 79.14319L24.51875 75.97131Q23.971874 74.51819 23.70625 73.59631Q23.4875 74.69006 23.096874 75.78381L21.83125 79.14319ZM30.596874 83.84631L30.596874 75.54944L31.8625 75.54944L31.8625 76.79944Q32.346874 75.92444 32.753124 75.64319Q33.159374 75.36194 33.659374 75.36194Q34.3625 75.36194 35.096874 75.81506L34.6125 77.11194Q34.096874 76.81506 33.58125 76.81506Q33.128124 76.81506 32.753124 77.09631Q32.39375 77.36194 32.2375 77.86194Q32.003124 78.61194 32.003124 79.50256L32.003124 83.84631L30.596874 83.84631ZM41.01875 80.79944L42.409374 80.98694Q42.175 82.40881 41.2375 83.22131Q40.315624 84.03381 38.95625 84.03381Q37.253124 84.03381 36.20625 82.92444Q35.175 81.79944 35.175 79.72131Q35.175 78.37756 35.6125 77.37756Q36.065624 76.36194 36.971874 75.86194Q37.89375 75.36194 38.95625 75.36194Q40.315624 75.36194 41.175 76.04944Q42.034374 76.72131 42.26875 77.98694L40.909374 78.19006Q40.70625 77.36194 40.20625 76.94006Q39.721874 76.51819 39.01875 76.51819Q37.95625 76.51819 37.284374 77.28381Q36.628124 78.03381 36.628124 79.69006Q36.628124 81.36194 37.26875 82.12756Q37.909374 82.87756 38.940624 82.87756Q39.76875 82.87756 40.315624 82.37756Q40.878124 81.86194 41.01875 80.79944ZM43.6125 83.84631L43.6125 72.39319L45.01875 72.39319L45.01875 76.50256Q46.003124 75.36194 47.503124 75.36194Q48.425 75.36194 49.096874 75.72131Q49.784374 76.08069 50.065624 76.72131Q50.3625 77.36194 50.3625 78.58069L50.3625 83.84631L48.95625 83.84631L48.95625 78.58069Q48.95625 77.53381 48.503124 77.04944Q48.05 76.56506 47.20625 76.56506Q46.58125 76.56506 46.034374 76.89319Q45.4875 77.22131 45.253124 77.78381Q45.01875 78.33069 45.01875 79.29944L45.01875 83.84631L43.6125 83.84631ZM52.6125 74.00256L52.6125 72.39319L54.01875 72.39319L54.01875 74.00256L52.6125 74.00256ZM52.6125 83.84631L52.6125 75.54944L54.01875 75.54944L54.01875 83.84631L52.6125 83.84631ZM59.675 82.58069L59.878124 83.83069Q59.284374 83.95569 58.815624 83.95569Q58.05 83.95569 57.628124 83.72131Q57.20625 83.47131 57.034374 83.08069Q56.8625 82.67444 56.8625 81.40881L56.8625 76.64319L55.83125 76.64319L55.83125 75.54944L56.8625 75.54944L56.8625 73.48694L58.26875 72.64319L58.26875 75.54944L59.675 75.54944L59.675 76.64319L58.26875 76.64319L58.26875 81.48694Q58.26875 82.09631 58.33125 82.26819Q58.409374 82.44006 58.58125 82.54944Q58.753124 82.64319 59.065624 82.64319Q59.3 82.64319 59.675 82.58069ZM66.28438 81.17444L67.7375 81.34631Q67.39375 82.62756 66.45625 83.33069Q65.53438 84.03381 64.09688 84.03381Q62.26875 84.03381 61.20625 82.90881Q60.14375 81.78381 60.14375 79.76819Q60.14375 77.67444 61.221874 76.51819Q62.3 75.36194 64.01875 75.36194Q65.675 75.36194 66.72188 76.50256Q67.78438 77.62756 67.78438 79.67444Q67.78438 79.79944 67.78438 80.04944L61.596874 80.04944Q61.675 81.42444 62.3625 82.15881Q63.065624 82.87756 64.09688 82.87756Q64.87813 82.87756 65.425 82.47131Q65.97188 82.06506 66.28438 81.17444ZM61.675 78.89319L66.3 78.89319Q66.20625 77.84631 65.76875 77.33069Q65.09688 76.51819 64.03438 76.51819Q63.065624 76.51819 62.39375 77.17444Q61.7375 77.81506 61.675 78.89319ZM75.01875 80.79944L76.40938 80.98694Q76.175 82.40881 75.2375 83.22131Q74.31563 84.03381 72.95625 84.03381Q71.25313 84.03381 70.20625 82.92444Q69.175 81.79944 69.175 79.72131Q69.175 78.37756 69.6125 77.37756Q70.06563 76.36194 70.97188 75.86194Q71.89375 75.36194 72.95625 75.36194Q74.31563 75.36194 75.175 76.04944Q76.03438 76.72131 76.26875 77.98694L74.90938 78.19006Q74.70625 77.36194 74.20625 76.94006Q73.72188 76.51819 73.01875 76.51819Q71.95625 76.51819 71.28438 77.28381Q70.62813 78.03381 70.62813 79.69006Q70.62813 81.36194 71.26875 82.12756Q71.90938 82.87756 72.94063 82.87756Q73.76875 82.87756 74.31563 82.37756Q74.87813 81.86194 75.01875 80.79944ZM80.675 82.58069L80.87813 83.83069Q80.28438 83.95569 79.81563 83.95569Q79.05 83.95569 78.62813 83.72131Q78.20625 83.47131 78.03438 83.08069Q77.8625 82.67444 77.8625 81.40881L77.8625 76.64319L76.83125 76.64319L76.83125 75.54944L77.8625 75.54944L77.8625 73.48694L79.26875 72.64319L79.26875 75.54944L80.675 75.54944L80.675 76.64319L79.26875 76.64319L79.26875 81.48694Q79.26875 82.09631 79.33125 82.26819Q79.40938 82.44006 79.58125 82.54944Q79.75313 82.64319 80.06563 82.64319Q80.3 82.64319 80.675 82.58069ZM87.05 83.84631L87.05 82.62756Q86.08125 84.03381 84.40938 84.03381Q83.675 84.03381 83.03438 83.75256Q82.40938 83.47131 82.09688 83.04944Q81.78438 82.61194 81.65938 82.00256Q81.58125 81.58069 81.58125 80.69006L81.58125 75.54944L82.9875 75.54944L82.9875 80.14319Q82.9875 81.25256 83.06563 81.62756Q83.20625 82.19006 83.62813 82.50256Q84.06563 82.81506 84.69063 82.81506Q85.33125 82.81506 85.87813 82.50256Q86.44063 82.17444 86.65938 81.61194Q86.89375 81.04944 86.89375 79.98694L86.89375 75.54944L88.3 75.54944L88.3 83.84631L87.05 83.84631ZM90.59688 83.84631L90.59688 75.54944L91.8625 75.54944L91.8625 76.79944Q92.34688 75.92444 92.75313 75.64319Q93.15938 75.36194 93.65938 75.36194Q94.3625 75.36194 95.09688 75.81506L94.6125 77.11194Q94.09688 76.81506 93.58125 76.81506Q93.12813 76.81506 92.75313 77.09631Q92.39375 77.36194 92.2375 77.86194Q92.00313 78.61194 92.00313 79.50256L92.00313 83.84631L90.59688 83.84631ZM101.28438 81.17444L102.7375 81.34631Q102.39375 82.62756 101.45625 83.33069Q100.53438 84.03381 99.09688 84.03381Q97.26875 84.03381 96.20625 82.90881Q95.14375 81.78381 95.14375 79.76819Q95.14375 77.67444 96.22188 76.51819Q97.3 75.36194 99.01875 75.36194Q100.675 75.36194 101.72188 76.50256Q102.78438 77.62756 102.78438 79.67444Q102.78438 79.79944 102.78438 80.04944L96.59688 80.04944Q96.675 81.42444 97.3625 82.15881Q98.06563 82.87756 99.09688 82.87756Q99.87813 82.87756 100.425 82.47131Q100.97188 82.06506 101.28438 81.17444ZM96.675 78.89319L101.3 78.89319Q101.20625 77.84631 100.76875 77.33069Q100.09688 76.51819 99.03438 76.51819Q98.06563 76.51819 97.39375 77.17444Q96.7375 77.81506 96.675 78.89319ZM115.15938 82.48694Q114.45625 83.26819 113.62813 83.65881Q112.81563 84.04944 111.8625 84.04944Q110.1125 84.04944 109.08125 82.84631Q108.2375 81.87756 108.2375 80.69006Q108.2375 79.62756 108.925 78.76819Q109.6125 77.90881 110.97188 77.26819Q110.19063 76.37756 109.925 75.83069Q109.675 75.26819 109.675 74.75256Q109.675 73.72131 110.4875 72.95569Q111.3 72.19006 112.51875 72.19006Q113.69063 72.19006 114.44063 72.90881Q115.19063 73.62756 115.19063 74.64319Q115.19063 76.26819 113.01875 77.42444L115.08125 80.04944Q115.425 79.36194 115.62813 78.45569L117.08125 78.76819Q116.70625 80.26819 116.06563 81.23694Q116.8625 82.28381 117.8625 82.98694L116.90938 84.11194Q116.06563 83.56506 115.15938 82.48694ZM112.3 76.51819Q113.20625 75.98694 113.47188 75.58069Q113.75313 75.17444 113.75313 74.67444Q113.75313 74.09631 113.37813 73.72131Q113.00313 73.34631 112.45625 73.34631Q111.87813 73.34631 111.50313 73.72131Q111.12813 74.08069 111.12813 74.61194Q111.12813 74.87756 111.25313 75.17444Q111.39375 75.47131 111.675 75.79944L112.3 76.51819ZM114.26875 81.37756L111.69063 78.19006Q110.55 78.86194 110.14375 79.45569Q109.75313 80.03381 109.75313 80.59631Q109.75313 81.29944 110.3 82.04944Q110.8625 82.79944 111.87813 82.79944Q112.51875 82.79944 113.19063 82.40881Q113.8625 82.00256 114.26875 81.37756Z" fill-rule="nonzero"/><path fill="#9e9e9e" d="M26.6125 104.48694L26.6125 105.84631L19.034374 105.84631Q19.01875 105.33069 19.20625 104.86194Q19.4875 104.09631 20.128124 103.34631Q20.76875 102.59631 21.971874 101.61194Q23.83125 100.08069 24.4875 99.19006Q25.14375 98.28381 25.14375 97.48694Q25.14375 96.65881 24.55 96.08069Q23.95625 95.50256 22.9875 95.50256Q21.971874 95.50256 21.3625 96.11194Q20.753124 96.72131 20.753124 97.79944L19.3 97.65881Q19.45625 96.03381 20.425 95.19006Q21.39375 94.34631 23.01875 94.34631Q24.675 94.34631 25.628124 95.26819Q26.596874 96.17444 26.596874 97.51819Q26.596874 98.20569 26.315624 98.87756Q26.034374 99.53381 25.378124 100.26819Q24.721874 101.00256 23.20625 102.28381Q21.940624 103.34631 21.58125 103.73694Q21.221874 104.11194 20.9875 104.48694L26.6125 104.48694ZM28.221874 100.19006Q28.221874 98.15881 28.628124 96.92444Q29.05 95.69006 29.878124 95.01819Q30.70625 94.34631 31.95625 94.34631Q32.878124 94.34631 33.565624 94.72131Q34.26875 95.08069 34.721874 95.78381Q35.175 96.48694 35.425 97.48694Q35.690624 98.48694 35.690624 100.19006Q35.690624 102.20569 35.26875 103.45569Q34.8625 104.69006 34.034374 105.37756Q33.20625 106.04944 31.95625 106.04944Q30.3 106.04944 29.346874 104.84631Q28.221874 103.42444 28.221874 100.19006ZM29.659374 100.19006Q29.659374 103.01819 30.315624 103.95569Q30.9875 104.87756 31.95625 104.87756Q32.925 104.87756 33.58125 103.94006Q34.2375 103.00256 34.2375 100.19006Q34.2375 97.36194 33.58125 96.44006Q32.925 95.50256 31.940624 95.50256Q30.971874 95.50256 30.39375 96.33069Q29.659374 97.37756 29.659374 100.19006ZM38.003124 105.84631L38.003124 104.23694L39.6125 104.23694L39.6125 105.84631L38.003124 105.84631ZM41.221874 100.19006Q41.221874 98.15881 41.628124 96.92444Q42.05 95.69006 42.878124 95.01819Q43.70625 94.34631 44.95625 94.34631Q45.878124 94.34631 46.565624 94.72131Q47.26875 95.08069 47.721874 95.78381Q48.175 96.48694 48.425 97.48694Q48.690624 98.48694 48.690624 100.19006Q48.690624 102.20569 48.26875 103.45569Q47.8625 104.69006 47.034374 105.37756Q46.20625 106.04944 44.95625 106.04944Q43.3 106.04944 42.346874 104.84631Q41.221874 103.42444 41.221874 100.19006ZM42.659374 100.19006Q42.659374 103.01819 43.315624 103.95569Q43.9875 104.87756 44.95625 104.87756Q45.925 104.87756 46.58125 103.94006Q47.2375 103.00256 47.2375 100.19006Q47.2375 97.36194 46.58125 96.44006Q45.925 95.50256 44.940624 95.50256Q43.971874 95.50256 43.39375 96.33069Q42.659374 97.37756 42.659374 100.19006ZM50.4875 97.14319Q50.4875 95.90881 51.096874 95.04944Q51.721874 94.19006 52.89375 94.19006Q53.971874 94.19006 54.675 94.97131Q55.378124 95.73694 55.378124 97.22131Q55.378124 98.67444 54.659374 99.47131Q53.95625 100.25256 52.909374 100.25256Q51.8625 100.25256 51.175 99.48694Q50.4875 98.70569 50.4875 97.14319ZM52.925 95.15881Q52.409374 95.15881 52.05 95.61194Q51.70625 96.06506 51.70625 97.28381Q51.70625 98.37756 52.05 98.83069Q52.409374 99.28381 52.925 99.28381Q53.45625 99.28381 53.8 98.83069Q54.159374 98.37756 54.159374 97.17444Q54.159374 96.06506 53.8 95.61194Q53.45625 95.15881 52.925 95.15881ZM52.940624 106.26819L59.20625 94.19006L60.346874 94.19006L54.096874 106.26819L52.940624 106.26819ZM57.89375 103.15881Q57.89375 101.92444 58.503124 101.06506Q59.128124 100.20569 60.3 100.20569Q61.378124 100.20569 62.08125 100.98694Q62.8 101.75256 62.8 103.23694Q62.8 104.69006 62.08125 105.48694Q61.3625 106.26819 60.315624 106.26819Q59.26875 106.26819 58.58125 105.48694Q57.89375 104.70569 57.89375 103.15881ZM60.346874 101.17444Q59.815624 101.17444 59.45625 101.62756Q59.1125 102.08069 59.1125 103.29944Q59.1125 104.39319 59.45625 104.84631Q59.815624 105.29944 60.33125 105.29944Q60.878124 105.29944 61.221874 104.84631Q61.565624 104.39319 61.565624 103.19006Q61.565624 102.08069 61.20625 101.62756Q60.8625 101.17444 60.346874 101.17444Z" fill-rule="nonzero"/><path stroke="#757575" stroke-width="1.0" stroke-linecap="butt" d="M18.55 89.34631L145.23334 89.34631L216.92929 89.34631" fill-rule="nonzero"/><path fill="#9e9e9e" d="M218.92929 89.34631C218.92929 88.24174 218.03386 87.34631 216.92929 87.34631C215.82472 87.34631 214.92929 88.24174 214.92929 89.34631C214.92929 90.45088 215.82472 91.34631 216.92929 91.34631C218.03386 91.34631 218.92929 90.45088 218.92929 89.34631" fill-rule="nonzero"/><path fill="#efefef" d="M19.784374 241.85619L19.784374 230.40306L23.7375 230.40306Q25.065624 230.40306 25.76875 230.55931Q26.753124 230.79369 27.45625 231.38744Q28.3625 232.15306 28.8 233.34056Q29.253124 234.52806 29.253124 236.05931Q29.253124 237.37181 28.940624 238.38744Q28.64375 239.38744 28.159374 240.04369Q27.690624 240.69994 27.128124 241.09056Q26.565624 241.46556 25.753124 241.66869Q24.95625 241.85619 23.925 241.85619L19.784374 241.85619ZM21.3 240.49681L23.753124 240.49681Q24.878124 240.49681 25.51875 240.29369Q26.175 240.07494 26.55 239.69994Q27.096874 239.15306 27.39375 238.24681Q27.690624 237.34056 27.690624 236.04369Q27.690624 234.24681 27.096874 233.27806Q26.51875 232.30931 25.675 231.98119Q25.065624 231.74681 23.70625 231.74681L21.3 231.74681L21.3 240.49681ZM31.6125 232.01244L31.6125 230.40306L33.01875 230.40306L33.01875 232.01244L31.6125 232.01244ZM31.6125 241.85619L31.6125 233.55931L33.01875 233.55931L33.01875 241.85619L31.6125 241.85619ZM35.6125 245.04369L35.6125 233.55931L36.89375 233.55931L36.89375 234.63744Q37.346874 233.99681 37.909374 233.68431Q38.4875 233.37181 39.3 233.37181Q40.3625 233.37181 41.175 233.91869Q41.9875 234.46556 42.39375 235.46556Q42.815624 236.44994 42.815624 237.63744Q42.815624 238.91869 42.346874 239.93431Q41.89375 240.94994 41.01875 241.49681Q40.159374 242.04369 39.190624 242.04369Q38.4875 242.04369 37.925 241.74681Q37.378124 241.44994 37.01875 240.99681L37.01875 245.04369L35.6125 245.04369ZM36.878124 237.74681Q36.878124 239.35619 37.51875 240.12181Q38.175 240.88744 39.096874 240.88744Q40.034374 240.88744 40.70625 240.09056Q41.378124 239.29369 41.378124 237.63744Q41.378124 236.04369 40.721874 235.26244Q40.065624 234.46556 39.159374 234.46556Q38.26875 234.46556 37.565624 235.30931Q36.878124 236.15306 36.878124 237.74681ZM44.58125 241.85619L44.58125 230.40306L45.9875 230.40306L45.9875 241.85619L44.58125 241.85619ZM48.08125 237.69994Q48.08125 235.40306 49.3625 234.29369Q50.440624 233.37181 51.971874 233.37181Q53.690624 233.37181 54.76875 234.49681Q55.8625 235.60619 55.8625 237.59056Q55.8625 239.18431 55.378124 240.10619Q54.89375 241.02806 53.971874 241.54369Q53.065624 242.04369 51.971874 242.04369Q50.2375 242.04369 49.159374 240.93431Q48.08125 239.80931 48.08125 237.69994ZM49.534374 237.69994Q49.534374 239.29369 50.221874 240.09056Q50.925 240.88744 51.971874 240.88744Q53.01875 240.88744 53.70625 240.09056Q54.409374 239.29369 54.409374 237.65306Q54.409374 236.12181 53.70625 235.32494Q53.01875 234.52806 51.971874 234.52806Q50.925 234.52806 50.221874 235.32494Q49.534374 236.10619 49.534374 237.69994ZM57.6125 241.85619L57.6125 233.55931L58.8625 233.55931L58.8625 234.71556Q59.253124 234.10619 59.89375 233.74681Q60.55 233.37181 61.378124 233.37181Q62.3 233.37181 62.89375 233.76244Q63.4875 234.13744 63.721874 234.82494Q64.70625 233.37181 66.28438 233.37181Q67.51875 233.37181 68.175 234.05931Q68.84688 234.73119 68.84688 236.15306L68.84688 241.85619L67.45625 241.85619L67.45625 236.62181Q67.45625 235.77806 67.31563 235.41869Q67.175 235.04369 66.81563 234.82494Q66.45625 234.59056 65.97188 234.59056Q65.09688 234.59056 64.51875 235.16869Q63.940624 235.74681 63.940624 237.02806L63.940624 241.85619L62.534374 241.85619L62.534374 236.46556Q62.534374 235.52806 62.190624 235.05931Q61.846874 234.59056 61.065624 234.59056Q60.471874 234.59056 59.971874 234.90306Q59.471874 235.21556 59.2375 235.82494Q59.01875 236.41869 59.01875 237.54369L59.01875 241.85619L57.6125 241.85619ZM76.01875 240.82494Q75.2375 241.49681 74.51875 241.77806Q73.8 242.04369 72.97188 242.04369Q71.59688 242.04369 70.8625 241.37181Q70.12813 240.69994 70.12813 239.66869Q70.12813 239.05931 70.40938 238.55931Q70.69063 238.04369 71.12813 237.74681Q71.58125 237.43431 72.14375 237.27806Q72.56563 237.16869 73.39375 237.07494Q75.09688 236.87181 75.90938 236.59056Q75.90938 236.29369 75.90938 236.21556Q75.90938 235.35619 75.51875 235.01244Q74.97188 234.52806 73.90938 234.52806Q72.925 234.52806 72.44063 234.88744Q71.97188 235.23119 71.75313 236.10619L70.37813 235.91869Q70.56563 235.04369 70.9875 234.49681Q71.425 233.94994 72.2375 233.66869Q73.05 233.37181 74.1125 233.37181Q75.175 233.37181 75.83125 233.62181Q76.50313 233.87181 76.81563 234.24681Q77.12813 234.62181 77.25313 235.19994Q77.33125 235.55931 77.33125 236.49681L77.33125 238.37181Q77.33125 240.34056 77.40938 240.85619Q77.50313 241.37181 77.76875 241.85619L76.3 241.85619Q76.08125 241.41869 76.01875 240.82494ZM75.90938 237.68431Q75.14375 237.99681 73.6125 238.21556Q72.7375 238.34056 72.37813 238.49681Q72.01875 238.65306 71.81563 238.96556Q71.62813 239.26244 71.62813 239.62181Q71.62813 240.18431 72.05 240.55931Q72.4875 240.93431 73.3 240.93431Q74.1125 240.93431 74.7375 240.59056Q75.37813 240.23119 75.675 239.60619Q75.90938 239.13744 75.90938 238.19994L75.90938 237.68431ZM82.675 240.59056L82.87813 241.84056Q82.28438 241.96556 81.81563 241.96556Q81.05 241.96556 80.62813 241.73119Q80.20625 241.48119 80.03438 241.09056Q79.8625 240.68431 79.8625 239.41869L79.8625 234.65306L78.83125 234.65306L78.83125 233.55931L79.8625 233.55931L79.8625 231.49681L81.26875 230.65306L81.26875 233.55931L82.675 233.55931L82.675 234.65306L81.26875 234.65306L81.26875 239.49681Q81.26875 240.10619 81.33125 240.27806Q81.40938 240.44994 81.58125 240.55931Q81.75313 240.65306 82.06563 240.65306Q82.3 240.65306 82.675 240.59056ZM83.6125 232.01244L83.6125 230.40306L85.01875 230.40306L85.01875 232.01244L83.6125 232.01244ZM83.6125 241.85619L83.6125 233.55931L85.01875 233.55931L85.01875 241.85619L83.6125 241.85619ZM93.01875 238.80931L94.40938 238.99681Q94.175 240.41869 93.2375 241.23119Q92.31563 242.04369 90.95625 242.04369Q89.25313 242.04369 88.20625 240.93431Q87.175 239.80931 87.175 237.73119Q87.175 236.38744 87.6125 235.38744Q88.06563 234.37181 88.97188 233.87181Q89.89375 233.37181 90.95625 233.37181Q92.31563 233.37181 93.175 234.05931Q94.03438 234.73119 94.26875 235.99681L92.90938 236.19994Q92.70625 235.37181 92.20625 234.94994Q91.72188 234.52806 91.01875 234.52806Q89.95625 234.52806 89.28438 235.29369Q88.62813 236.04369 88.62813 237.69994Q88.62813 239.37181 89.26875 240.13744Q89.90938 240.88744 90.94063 240.88744Q91.76875 240.88744 92.31563 240.38744Q92.87813 239.87181 93.01875 238.80931Z" fill-rule="nonzero"/><path fill="#9e9e9e" d="M26.6125 262.49683L26.6125 263.8562L19.034374 263.8562Q19.01875 263.34058 19.20625 262.87183Q19.4875 262.1062 20.128124 261.3562Q20.76875 260.6062 21.971874 259.62183Q23.83125 258.09058 24.4875 257.19995Q25.14375 256.2937 25.14375 255.49683Q25.14375 254.6687 24.55 254.09058Q23.95625 253.51245 22.9875 253.51245Q21.971874 253.51245 21.3625 254.12183Q20.753124 254.7312 20.753124 255.80933L19.3 255.6687Q19.45625 254.0437 20.425 253.19995Q21.39375 252.3562 23.01875 252.3562Q24.675 252.3562 25.628124 253.27808Q26.596874 254.18433 26.596874 255.52808Q26.596874 256.21558 26.315624 256.88745Q26.034374 257.5437 25.378124 258.27808Q24.721874 259.01245 23.20625 260.2937Q21.940624 261.3562 21.58125 261.74683Q21.221874 262.12183 20.9875 262.49683L26.6125 262.49683ZM28.221874 258.19995Q28.221874 256.1687 28.628124 254.93433Q29.05 253.69995 29.878124 253.02808Q30.70625 252.3562 31.95625 252.3562Q32.878124 252.3562 33.565624 252.7312Q34.26875 253.09058 34.721874 253.7937Q35.175 254.49683 35.425 255.49683Q35.690624 256.49683 35.690624 258.19995Q35.690624 260.21558 35.26875 261.46558Q34.8625 262.69995 34.034374 263.38745Q33.20625 264.05933 31.95625 264.05933Q30.3 264.05933 29.346874 262.8562Q28.221874 261.43433 28.221874 258.19995ZM29.659374 258.19995Q29.659374 261.02808 30.315624 261.96558Q30.9875 262.88745 31.95625 262.88745Q32.925 262.88745 33.58125 261.94995Q34.2375 261.01245 34.2375 258.19995Q34.2375 255.37183 33.58125 254.44995Q32.925 253.51245 31.940624 253.51245Q30.971874 253.51245 30.39375 254.34058Q29.659374 255.38745 29.659374 258.19995ZM38.003124 263.8562L38.003124 262.24683L39.6125 262.24683L39.6125 263.8562L38.003124 263.8562ZM41.221874 258.19995Q41.221874 256.1687 41.628124 254.93433Q42.05 253.69995 42.878124 253.02808Q43.70625 252.3562 44.95625 252.3562Q45.878124 252.3562 46.565624 252.7312Q47.26875 253.09058 47.721874 253.7937Q48.175 254.49683 48.425 255.49683Q48.690624 256.49683 48.690624 258.19995Q48.690624 260.21558 48.26875 261.46558Q47.8625 262.69995 47.034374 263.38745Q46.20625 264.05933 44.95625 264.05933Q43.3 264.05933 42.346874 262.8562Q41.221874 261.43433 41.221874 258.19995ZM42.659374 258.19995Q42.659374 261.02808 43.315624 261.96558Q43.9875 262.88745 44.95625 262.88745Q45.925 262.88745 46.58125 261.94995Q47.2375 261.01245 47.2375 258.19995Q47.2375 255.37183 46.58125 254.44995Q45.925 253.51245 44.940624 253.51245Q43.971874 253.51245 43.39375 254.34058Q42.659374 255.38745 42.659374 258.19995ZM50.4875 255.15308Q50.4875 253.9187 51.096874 253.05933Q51.721874 252.19995 52.89375 252.19995Q53.971874 252.19995 54.675 252.9812Q55.378124 253.74683 55.378124 255.2312Q55.378124 256.68433 54.659374 257.4812Q53.95625 258.26245 52.909374 258.26245Q51.8625 258.26245 51.175 257.49683Q50.4875 256.71558 50.4875 255.15308ZM52.925 253.1687Q52.409374 253.1687 52.05 253.62183Q51.70625 254.07495 51.70625 255.2937Q51.70625 256.38745 52.05 256.84058Q52.409374 257.2937 52.925 257.2937Q53.45625 257.2937 53.8 256.84058Q54.159374 256.38745 54.159374 255.18433Q54.159374 254.07495 53.8 253.62183Q53.45625 253.1687 52.925 253.1687ZM52.940624 264.27808L59.20625 252.19995L60.346874 252.19995L54.096874 264.27808L52.940624 264.27808ZM57.89375 261.1687Q57.89375 259.93433 58.503124 259.07495Q59.128124 258.21558 60.3 258.21558Q61.378124 258.21558 62.08125 258.99683Q62.8 259.76245 62.8 261.24683Q62.8 262.69995 62.08125 263.49683Q61.3625 264.27808 60.315624 264.27808Q59.26875 264.27808 58.58125 263.49683Q57.89375 262.71558 57.89375 261.1687ZM60.346874 259.18433Q59.815624 259.18433 59.45625 259.63745Q59.1125 260.09058 59.1125 261.30933Q59.1125 262.40308 59.45625 262.8562Q59.815624 263.30933 60.33125 263.30933Q60.878124 263.30933 61.221874 262.8562Q61.565624 262.40308 61.565624 261.19995Q61.565624 260.09058 61.20625 259.63745Q60.8625 259.18433 60.346874 259.18433Z" fill-rule="nonzero"/><path stroke="#757575" stroke-width="1.0" stroke-linecap="butt" d="M18.55 247.35619L145.23334 247.35619L165.58876 247.35619" fill-rule="nonzero"/><path fill="#9e9e9e" d="M167.58876 247.35619C167.58876 246.25162 166.69334 245.35619 165.58876 245.35619C164.48419 245.35619 163.58876 246.25162 163.58876 247.35619C163.58876 248.46075 164.48419 249.35619 165.58876 249.35619C166.69334 249.35619 167.58876 248.46075 167.58876 247.35619" fill-rule="nonzero"/><path fill="#efefef" d="M495.85626 79.83069L497.3719 80.20569Q496.90314 82.08069 495.65314 83.06506Q494.41876 84.04944 492.6375 84.04944Q490.77814 84.04944 489.6219 83.29944Q488.46564 82.53381 487.85626 81.11194Q487.2469 79.67444 487.2469 78.03381Q487.2469 76.23694 487.9344 74.90881Q488.6219 73.58069 489.8719 72.89319Q491.1375 72.19006 492.65314 72.19006Q494.3719 72.19006 495.54376 73.06506Q496.71564 73.94006 497.1844 75.53381L495.6844 75.87756Q495.29376 74.62756 494.52814 74.06506Q493.77814 73.48694 492.6219 73.48694Q491.3094 73.48694 490.41876 74.12756Q489.52814 74.75256 489.16876 75.83069Q488.8094 76.89319 488.8094 78.01819Q488.8094 79.48694 489.23126 80.58069Q489.66876 81.65881 490.5594 82.20569Q491.46564 82.73694 492.5125 82.73694Q493.77814 82.73694 494.65314 82.00256Q495.54376 81.26819 495.85626 79.83069ZM504.95 83.84631L504.95 82.62756Q503.98126 84.03381 502.3094 84.03381Q501.575 84.03381 500.9344 83.75256Q500.3094 83.47131 499.9969 83.04944Q499.6844 82.61194 499.5594 82.00256Q499.48126 81.58069 499.48126 80.69006L499.48126 75.54944L500.8875 75.54944L500.8875 80.14319Q500.8875 81.25256 500.96564 81.62756Q501.10626 82.19006 501.52814 82.50256Q501.96564 82.81506 502.59064 82.81506Q503.23126 82.81506 503.77814 82.50256Q504.34064 82.17444 504.5594 81.61194Q504.79376 81.04944 504.79376 79.98694L504.79376 75.54944L506.2 75.54944L506.2 83.84631L504.95 83.84631ZM508.48126 83.84631L508.48126 72.39319L509.8875 72.39319L509.8875 83.84631L508.48126 83.84631ZM515.575 82.58069L515.77814 83.83069Q515.1844 83.95569 514.71564 83.95569Q513.95 83.95569 513.52814 83.72131Q513.10626 83.47131 512.9344 83.08069Q512.7625 82.67444 512.7625 81.40881L512.7625 76.64319L511.73126 76.64319L511.73126 75.54944L512.7625 75.54944L512.7625 73.48694L514.16876 72.64319L514.16876 75.54944L515.575 75.54944L515.575 76.64319L514.16876 76.64319L514.16876 81.48694Q514.16876 82.09631 514.23126 82.26819Q514.3094 82.44006 514.48126 82.54944Q514.65314 82.64319 514.96564 82.64319Q515.2 82.64319 515.575 82.58069ZM521.95 83.84631L521.95 82.62756Q520.98126 84.03381 519.3094 84.03381Q518.575 84.03381 517.9344 83.75256Q517.3094 83.47131 516.9969 83.04944Q516.6844 82.61194 516.5594 82.00256Q516.48126 81.58069 516.48126 80.69006L516.48126 75.54944L517.8875 75.54944L517.8875 80.14319Q517.8875 81.25256 517.96564 81.62756Q518.10626 82.19006 518.52814 82.50256Q518.96564 82.81506 519.59064 82.81506Q520.23126 82.81506 520.77814 82.50256Q521.34064 82.17444 521.5594 81.61194Q521.79376 81.04944 521.79376 79.98694L521.79376 75.54944L523.2 75.54944L523.2 83.84631L521.95 83.84631ZM525.4969 83.84631L525.4969 75.54944L526.7625 75.54944L526.7625 76.79944Q527.2469 75.92444 527.65314 75.64319Q528.0594 75.36194 528.5594 75.36194Q529.2625 75.36194 529.9969 75.81506L529.5125 77.11194Q528.9969 76.81506 528.48126 76.81506Q528.02814 76.81506 527.65314 77.09631Q527.29376 77.36194 527.1375 77.86194Q526.90314 78.61194 526.90314 79.50256L526.90314 83.84631L525.4969 83.84631ZM535.91876 82.81506Q535.1375 83.48694 534.41876 83.76819Q533.7 84.03381 532.8719 84.03381Q531.4969 84.03381 530.7625 83.36194Q530.02814 82.69006 530.02814 81.65881Q530.02814 81.04944 530.3094 80.54944Q530.59064 80.03381 531.02814 79.73694Q531.48126 79.42444 532.04376 79.26819Q532.46564 79.15881 533.29376 79.06506Q534.9969 78.86194 535.8094 78.58069Q535.8094 78.28381 535.8094 78.20569Q535.8094 77.34631 535.41876 77.00256Q534.8719 76.51819 533.8094 76.51819Q532.825 76.51819 532.34064 76.87756Q531.8719 77.22131 531.65314 78.09631L530.27814 77.90881Q530.46564 77.03381 530.8875 76.48694Q531.325 75.94006 532.1375 75.65881Q532.95 75.36194 534.0125 75.36194Q535.075 75.36194 535.73126 75.61194Q536.40314 75.86194 536.71564 76.23694Q537.02814 76.61194 537.15314 77.19006Q537.23126 77.54944 537.23126 78.48694L537.23126 80.36194Q537.23126 82.33069 537.3094 82.84631Q537.40314 83.36194 537.66876 83.84631L536.2 83.84631Q535.98126 83.40881 535.91876 82.81506ZM535.8094 79.67444Q535.04376 79.98694 533.5125 80.20569Q532.6375 80.33069 532.27814 80.48694Q531.91876 80.64319 531.71564 80.95569Q531.52814 81.25256 531.52814 81.61194Q531.52814 82.17444 531.95 82.54944Q532.3875 82.92444 533.2 82.92444Q534.0125 82.92444 534.6375 82.58069Q535.27814 82.22131 535.575 81.59631Q535.8094 81.12756 535.8094 80.19006L535.8094 79.67444ZM539.48126 83.84631L539.48126 72.39319L540.8875 72.39319L540.8875 83.84631L539.48126 83.84631ZM546.41876 83.84631L550.825 72.39319L552.46564 72.39319L557.15314 83.84631L555.41876 83.84631L554.09064 80.37756L549.29376 80.37756L548.04376 83.84631L546.41876 83.84631ZM549.73126 79.14319L553.6219 79.14319L552.41876 75.97131Q551.8719 74.51819 551.60626 73.59631Q551.3875 74.69006 550.9969 75.78381L549.73126 79.14319ZM563.91876 80.79944L565.3094 80.98694Q565.075 82.40881 564.1375 83.22131Q563.21564 84.03381 561.85626 84.03381Q560.15314 84.03381 559.10626 82.92444Q558.075 81.79944 558.075 79.72131Q558.075 78.37756 558.5125 77.37756Q558.96564 76.36194 559.8719 75.86194Q560.79376 75.36194 561.85626 75.36194Q563.21564 75.36194 564.075 76.04944Q564.9344 76.72131 565.16876 77.98694L563.8094 78.19006Q563.60626 77.36194 563.10626 76.94006Q562.6219 76.51819 561.91876 76.51819Q560.85626 76.51819 560.1844 77.28381Q559.52814 78.03381 559.52814 79.69006Q559.52814 81.36194 560.16876 82.12756Q560.8094 82.87756 561.84064 82.87756Q562.66876 82.87756 563.21564 82.37756Q563.77814 81.86194 563.91876 80.79944ZM569.575 82.58069L569.77814 83.83069Q569.1844 83.95569 568.71564 83.95569Q567.95 83.95569 567.52814 83.72131Q567.10626 83.47131 566.9344 83.08069Q566.7625 82.67444 566.7625 81.40881L566.7625 76.64319L565.73126 76.64319L565.73126 75.54944L566.7625 75.54944L566.7625 73.48694L568.16876 72.64319L568.16876 75.54944L569.575 75.54944L569.575 76.64319L568.16876 76.64319L568.16876 81.48694Q568.16876 82.09631 568.23126 82.26819Q568.3094 82.44006 568.48126 82.54944Q568.65314 82.64319 568.96564 82.64319Q569.2 82.64319 569.575 82.58069ZM569.95 81.36194L571.34064 81.14319Q571.45 81.98694 571.98126 82.44006Q572.52814 82.87756 573.48126 82.87756Q574.45 82.87756 574.91876 82.48694Q575.3875 82.08069 575.3875 81.54944Q575.3875 81.08069 574.98126 80.79944Q574.6844 80.61194 573.54376 80.33069Q571.9969 79.94006 571.3875 79.65881Q570.79376 79.36194 570.48126 78.86194Q570.1844 78.36194 570.1844 77.75256Q570.1844 77.19006 570.4344 76.72131Q570.6844 76.25256 571.1219 75.94006Q571.45 75.69006 572.0125 75.53381Q572.59064 75.36194 573.23126 75.36194Q574.21564 75.36194 574.95 75.64319Q575.6844 75.92444 576.02814 76.40881Q576.3875 76.87756 576.52814 77.69006L575.15314 77.87756Q575.0594 77.23694 574.60626 76.87756Q574.15314 76.51819 573.34064 76.51819Q572.3719 76.51819 571.95 76.84631Q571.54376 77.15881 571.54376 77.58069Q571.54376 77.86194 571.71564 78.08069Q571.8875 78.29944 572.2469 78.45569Q572.46564 78.53381 573.4969 78.81506Q574.98126 79.20569 575.575 79.47131Q576.16876 79.72131 576.4969 80.20569Q576.84064 80.69006 576.84064 81.40881Q576.84064 82.11194 576.41876 82.73694Q576.0125 83.34631 575.23126 83.69006Q574.46564 84.03381 573.4969 84.03381Q571.8719 84.03381 571.02814 83.36194Q570.1844 82.69006 569.95 81.36194ZM578.90314 83.84631L578.90314 82.23694L580.5125 82.23694L580.5125 83.84631L578.90314 83.84631Z" fill-rule="nonzero"/><path fill="#9e9e9e" d="M544.5125 104.48694L544.5125 105.84631L536.9344 105.84631Q536.91876 105.33069 537.10626 104.86194Q537.3875 104.09631 538.02814 103.34631Q538.66876 102.59631 539.8719 101.61194Q541.73126 100.08069 542.3875 99.19006Q543.04376 98.28381 543.04376 97.48694Q543.04376 96.65881 542.45 96.08069Q541.85626 95.50256 540.8875 95.50256Q539.8719 95.50256 539.2625 96.11194Q538.65314 96.72131 538.65314 97.79944L537.2 97.65881Q537.35626 96.03381 538.325 95.19006Q539.29376 94.34631 540.91876 94.34631Q542.575 94.34631 543.52814 95.26819Q544.4969 96.17444 544.4969 97.51819Q544.4969 98.20569 544.21564 98.87756Q543.9344 99.53381 543.27814 100.26819Q542.6219 101.00256 541.10626 102.28381Q539.84064 103.34631 539.48126 103.73694Q539.1219 104.11194 538.8875 104.48694L544.5125 104.48694ZM546.1219 100.19006Q546.1219 98.15881 546.52814 96.92444Q546.95 95.69006 547.77814 95.01819Q548.60626 94.34631 549.85626 94.34631Q550.77814 94.34631 551.46564 94.72131Q552.16876 95.08069 552.6219 95.78381Q553.075 96.48694 553.325 97.48694Q553.59064 98.48694 553.59064 100.19006Q553.59064 102.20569 553.16876 103.45569Q552.7625 104.69006 551.9344 105.37756Q551.10626 106.04944 549.85626 106.04944Q548.2 106.04944 547.2469 104.84631Q546.1219 103.42444 546.1219 100.19006ZM547.5594 100.19006Q547.5594 103.01819 548.21564 103.95569Q548.8875 104.87756 549.85626 104.87756Q550.825 104.87756 551.48126 103.94006Q552.1375 103.00256 552.1375 100.19006Q552.1375 97.36194 551.48126 96.44006Q550.825 95.50256 549.84064 95.50256Q548.8719 95.50256 548.29376 96.33069Q547.5594 97.37756 547.5594 100.19006ZM555.90314 105.84631L555.90314 104.23694L557.5125 104.23694L557.5125 105.84631L555.90314 105.84631ZM559.1219 100.19006Q559.1219 98.15881 559.52814 96.92444Q559.95 95.69006 560.77814 95.01819Q561.60626 94.34631 562.85626 94.34631Q563.77814 94.34631 564.46564 94.72131Q565.16876 95.08069 565.6219 95.78381Q566.075 96.48694 566.325 97.48694Q566.59064 98.48694 566.59064 100.19006Q566.59064 102.20569 566.16876 103.45569Q565.7625 104.69006 564.9344 105.37756Q564.10626 106.04944 562.85626 106.04944Q561.2 106.04944 560.2469 104.84631Q559.1219 103.42444 559.1219 100.19006ZM560.5594 100.19006Q560.5594 103.01819 561.21564 103.95569Q561.8875 104.87756 562.85626 104.87756Q563.825 104.87756 564.48126 103.94006Q565.1375 103.00256 565.1375 100.19006Q565.1375 97.36194 564.48126 96.44006Q563.825 95.50256 562.84064 95.50256Q561.8719 95.50256 561.29376 96.33069Q560.5594 97.37756 560.5594 100.19006ZM568.3875 97.14319Q568.3875 95.90881 568.9969 95.04944Q569.6219 94.19006 570.79376 94.19006Q571.8719 94.19006 572.575 94.97131Q573.27814 95.73694 573.27814 97.22131Q573.27814 98.67444 572.5594 99.47131Q571.85626 100.25256 570.8094 100.25256Q569.7625 100.25256 569.075 99.48694Q568.3875 98.70569 568.3875 97.14319ZM570.825 95.15881Q570.3094 95.15881 569.95 95.61194Q569.60626 96.06506 569.60626 97.28381Q569.60626 98.37756 569.95 98.83069Q570.3094 99.28381 570.825 99.28381Q571.35626 99.28381 571.7 98.83069Q572.0594 98.37756 572.0594 97.17444Q572.0594 96.06506 571.7 95.61194Q571.35626 95.15881 570.825 95.15881ZM570.84064 106.26819L577.10626 94.19006L578.2469 94.19006L571.9969 106.26819L570.84064 106.26819ZM575.79376 103.15881Q575.79376 101.92444 576.40314 101.06506Q577.02814 100.20569 578.2 100.20569Q579.27814 100.20569 579.98126 100.98694Q580.7 101.75256 580.7 103.23694Q580.7 104.69006 579.98126 105.48694Q579.2625 106.26819 578.21564 106.26819Q577.16876 106.26819 576.48126 105.48694Q575.79376 104.70569 575.79376 103.15881ZM578.2469 101.17444Q577.71564 101.17444 577.35626 101.62756Q577.0125 102.08069 577.0125 103.29944Q577.0125 104.39319 577.35626 104.84631Q577.71564 105.29944 578.23126 105.29944Q578.77814 105.29944 579.1219 104.84631Q579.46564 104.39319 579.46564 103.19006Q579.46564 102.08069 579.10626 101.62756Q578.7625 101.17444 578.2469 101.17444Z" fill-rule="nonzero"/><path stroke="#757575" stroke-width="1.0" stroke-linecap="butt" d="M581.45 89.34631L454.76666 89.34631L383.0707 89.34631" fill-rule="nonzero"/><path fill="#9e9e9e" d="M385.0707 89.34631C385.0707 88.24174 384.1753 87.34631 383.0707 87.34631C381.96613 87.34631 381.0707 88.24174 381.0707 89.34631C381.0707 90.45088 381.96613 91.34631 383.0707 91.34631C384.1753 91.34631 385.0707 90.45088 385.0707 89.34631" fill-rule="nonzero"/><path fill="#efefef" d="M456.71564 241.85619L456.71564 230.40306L464.9969 230.40306L464.9969 231.74681L458.23126 231.74681L458.23126 235.26244L464.575 235.26244L464.575 236.60619L458.23126 236.60619L458.23126 240.49681L465.2625 240.49681L465.2625 241.85619L456.71564 241.85619ZM472.91876 238.80931L474.3094 238.99681Q474.075 240.41869 473.1375 241.23119Q472.21564 242.04369 470.85626 242.04369Q469.15314 242.04369 468.10626 240.93431Q467.075 239.80931 467.075 237.73119Q467.075 236.38744 467.5125 235.38744Q467.96564 234.37181 468.8719 233.87181Q469.79376 233.37181 470.85626 233.37181Q472.21564 233.37181 473.075 234.05931Q473.9344 234.73119 474.16876 235.99681L472.8094 236.19994Q472.60626 235.37181 472.10626 234.94994Q471.6219 234.52806 470.91876 234.52806Q469.85626 234.52806 469.1844 235.29369Q468.52814 236.04369 468.52814 237.69994Q468.52814 239.37181 469.16876 240.13744Q469.8094 240.88744 470.84064 240.88744Q471.66876 240.88744 472.21564 240.38744Q472.77814 239.87181 472.91876 238.80931ZM474.98126 237.69994Q474.98126 235.40306 476.2625 234.29369Q477.34064 233.37181 478.8719 233.37181Q480.59064 233.37181 481.66876 234.49681Q482.7625 235.60619 482.7625 237.59056Q482.7625 239.18431 482.27814 240.10619Q481.79376 241.02806 480.8719 241.54369Q479.96564 242.04369 478.8719 242.04369Q477.1375 242.04369 476.0594 240.93431Q474.98126 239.80931 474.98126 237.69994ZM476.4344 237.69994Q476.4344 239.29369 477.1219 240.09056Q477.825 240.88744 478.8719 240.88744Q479.91876 240.88744 480.60626 240.09056Q481.3094 239.29369 481.3094 237.65306Q481.3094 236.12181 480.60626 235.32494Q479.91876 234.52806 478.8719 234.52806Q477.825 234.52806 477.1219 235.32494Q476.4344 236.10619 476.4344 237.69994ZM484.5125 241.85619L484.5125 233.55931L485.77814 233.55931L485.77814 234.73119Q486.6844 233.37181 488.41876 233.37181Q489.16876 233.37181 489.79376 233.63744Q490.41876 233.90306 490.73126 234.34056Q491.04376 234.77806 491.16876 235.38744Q491.2469 235.77806 491.2469 236.74681L491.2469 241.85619L489.84064 241.85619L489.84064 236.80931Q489.84064 235.94994 489.66876 235.52806Q489.5125 235.09056 489.09064 234.84056Q488.6844 234.59056 488.1219 234.59056Q487.21564 234.59056 486.5594 235.16869Q485.91876 235.73119 485.91876 237.32494L485.91876 241.85619L484.5125 241.85619ZM492.98126 237.69994Q492.98126 235.40306 494.2625 234.29369Q495.34064 233.37181 496.8719 233.37181Q498.59064 233.37181 499.66876 234.49681Q500.7625 235.60619 500.7625 237.59056Q500.7625 239.18431 500.27814 240.10619Q499.79376 241.02806 498.8719 241.54369Q497.96564 242.04369 496.8719 242.04369Q495.1375 242.04369 494.0594 240.93431Q492.98126 239.80931 492.98126 237.69994ZM494.4344 237.69994Q494.4344 239.29369 495.1219 240.09056Q495.825 240.88744 496.8719 240.88744Q497.91876 240.88744 498.60626 240.09056Q499.3094 239.29369 499.3094 237.65306Q499.3094 236.12181 498.60626 235.32494Q497.91876 234.52806 496.8719 234.52806Q495.825 234.52806 495.1219 235.32494Q494.4344 236.10619 494.4344 237.69994ZM502.5125 241.85619L502.5125 233.55931L503.7625 233.55931L503.7625 234.71556Q504.15314 234.10619 504.79376 233.74681Q505.45 233.37181 506.27814 233.37181Q507.2 233.37181 507.79376 233.76244Q508.3875 234.13744 508.6219 234.82494Q509.60626 233.37181 511.1844 233.37181Q512.41876 233.37181 513.075 234.05931Q513.7469 234.73119 513.7469 236.15306L513.7469 241.85619L512.35626 241.85619L512.35626 236.62181Q512.35626 235.77806 512.21564 235.41869Q512.075 235.04369 511.71564 234.82494Q511.35626 234.59056 510.8719 234.59056Q509.9969 234.59056 509.41876 235.16869Q508.84064 235.74681 508.84064 237.02806L508.84064 241.85619L507.4344 241.85619L507.4344 236.46556Q507.4344 235.52806 507.09064 235.05931Q506.7469 234.59056 505.96564 234.59056Q505.3719 234.59056 504.8719 234.90306Q504.3719 235.21556 504.1375 235.82494Q503.91876 236.41869 503.91876 237.54369L503.91876 241.85619L502.5125 241.85619ZM515.5125 232.01244L515.5125 230.40306L516.91876 230.40306L516.91876 232.01244L515.5125 232.01244ZM515.5125 241.85619L515.5125 233.55931L516.91876 233.55931L516.91876 241.85619L515.5125 241.85619ZM524.91876 238.80931L526.3094 238.99681Q526.075 240.41869 525.1375 241.23119Q524.21564 242.04369 522.85626 242.04369Q521.15314 242.04369 520.10626 240.93431Q519.075 239.80931 519.075 237.73119Q519.075 236.38744 519.5125 235.38744Q519.96564 234.37181 520.8719 233.87181Q521.79376 233.37181 522.85626 233.37181Q524.21564 233.37181 525.075 234.05931Q525.9344 234.73119 526.16876 235.99681L524.8094 236.19994Q524.60626 235.37181 524.10626 234.94994Q523.6219 234.52806 522.91876 234.52806Q521.85626 234.52806 521.1844 235.29369Q520.52814 236.04369 520.52814 237.69994Q520.52814 239.37181 521.16876 240.13744Q521.8094 240.88744 522.84064 240.88744Q523.66876 240.88744 524.21564 240.38744Q524.77814 239.87181 524.91876 238.80931ZM530.41876 241.85619L534.825 230.40306L536.46564 230.40306L541.15314 241.85619L539.41876 241.85619L538.09064 238.38744L533.29376 238.38744L532.04376 241.85619L530.41876 241.85619ZM533.73126 237.15306L537.6219 237.15306L536.41876 233.98119Q535.8719 232.52806 535.60626 231.60619Q535.3875 232.69994 534.9969 233.79369L533.73126 237.15306ZM547.91876 238.80931L549.3094 238.99681Q549.075 240.41869 548.1375 241.23119Q547.21564 242.04369 545.85626 242.04369Q544.15314 242.04369 543.10626 240.93431Q542.075 239.80931 542.075 237.73119Q542.075 236.38744 542.5125 235.38744Q542.96564 234.37181 543.8719 233.87181Q544.79376 233.37181 545.85626 233.37181Q547.21564 233.37181 548.075 234.05931Q548.9344 234.73119 549.16876 235.99681L547.8094 236.19994Q547.60626 235.37181 547.10626 234.94994Q546.6219 234.52806 545.91876 234.52806Q544.85626 234.52806 544.1844 235.29369Q543.52814 236.04369 543.52814 237.69994Q543.52814 239.37181 544.16876 240.13744Q544.8094 240.88744 545.84064 240.88744Q546.66876 240.88744 547.21564 240.38744Q547.77814 239.87181 547.91876 238.80931ZM553.575 240.59056L553.77814 241.84056Q553.1844 241.96556 552.71564 241.96556Q551.95 241.96556 551.52814 241.73119Q551.10626 241.48119 550.9344 241.09056Q550.7625 240.68431 550.7625 239.41869L550.7625 234.65306L549.73126 234.65306L549.73126 233.55931L550.7625 233.55931L550.7625 231.49681L552.16876 230.65306L552.16876 233.55931L553.575 233.55931L553.575 234.65306L552.16876 234.65306L552.16876 239.49681Q552.16876 240.10619 552.23126 240.27806Q552.3094 240.44994 552.48126 240.55931Q552.65314 240.65306 552.96564 240.65306Q553.2 240.65306 553.575 240.59056ZM554.5125 232.01244L554.5125 230.40306L555.91876 230.40306L555.91876 232.01244L554.5125 232.01244ZM554.5125 241.85619L554.5125 233.55931L555.91876 233.55931L555.91876 241.85619L554.5125 241.85619ZM560.8094 241.85619L557.65314 233.55931L559.1375 233.55931L560.91876 238.52806Q561.21564 239.32494 561.45 240.19994Q561.6375 239.54369 561.98126 238.62181L563.825 233.55931L565.2625 233.55931L562.1219 241.85619L560.8094 241.85619ZM566.5125 232.01244L566.5125 230.40306L567.91876 230.40306L567.91876 232.01244L566.5125 232.01244ZM566.5125 241.85619L566.5125 233.55931L567.91876 233.55931L567.91876 241.85619L566.5125 241.85619ZM573.575 240.59056L573.77814 241.84056Q573.1844 241.96556 572.71564 241.96556Q571.95 241.96556 571.52814 241.73119Q571.10626 241.48119 570.9344 241.09056Q570.7625 240.68431 570.7625 239.41869L570.7625 234.65306L569.73126 234.65306L569.73126 233.55931L570.7625 233.55931L570.7625 231.49681L572.16876 230.65306L572.16876 233.55931L573.575 233.55931L573.575 234.65306L572.16876 234.65306L572.16876 239.49681Q572.16876 240.10619 572.23126 240.27806Q572.3094 240.44994 572.48126 240.55931Q572.65314 240.65306 572.96564 240.65306Q573.2 240.65306 573.575 240.59056ZM574.45 245.05931L574.29376 243.73119Q574.7469 243.85619 575.09064 243.85619Q575.5594 243.85619 575.84064 243.69994Q576.1219 243.54369 576.3094 243.26244Q576.4344 243.05931 576.73126 242.21556Q576.77814 242.10619 576.85626 241.87181L573.71564 233.55931L575.23126 233.55931L576.95 238.35619Q577.29376 239.27806 577.5594 240.27806Q577.79376 239.30931 578.1375 238.38744L579.90314 233.55931L581.3094 233.55931L578.15314 241.99681Q577.65314 243.37181 577.3719 243.88744Q576.9969 244.57494 576.5125 244.90306Q576.02814 245.23119 575.35626 245.23119Q574.95 245.23119 574.45 245.05931Z" fill-rule="nonzero"/><path fill="#9e9e9e" d="M544.5125 262.49683L544.5125 263.8562L536.9344 263.8562Q536.91876 263.34058 537.10626 262.87183Q537.3875 262.1062 538.02814 261.3562Q538.66876 260.6062 539.8719 259.62183Q541.73126 258.09058 542.3875 257.19995Q543.04376 256.2937 543.04376 255.49683Q543.04376 254.6687 542.45 254.09058Q541.85626 253.51245 540.8875 253.51245Q539.8719 253.51245 539.2625 254.12183Q538.65314 254.7312 538.65314 255.80933L537.2 255.6687Q537.35626 254.0437 538.325 253.19995Q539.29376 252.3562 540.91876 252.3562Q542.575 252.3562 543.52814 253.27808Q544.4969 254.18433 544.4969 255.52808Q544.4969 256.21558 544.21564 256.88745Q543.9344 257.5437 543.27814 258.27808Q542.6219 259.01245 541.10626 260.2937Q539.84064 261.3562 539.48126 261.74683Q539.1219 262.12183 538.8875 262.49683L544.5125 262.49683ZM546.1219 258.19995Q546.1219 256.1687 546.52814 254.93433Q546.95 253.69995 547.77814 253.02808Q548.60626 252.3562 549.85626 252.3562Q550.77814 252.3562 551.46564 252.7312Q552.16876 253.09058 552.6219 253.7937Q553.075 254.49683 553.325 255.49683Q553.59064 256.49683 553.59064 258.19995Q553.59064 260.21558 553.16876 261.46558Q552.7625 262.69995 551.9344 263.38745Q551.10626 264.05933 549.85626 264.05933Q548.2 264.05933 547.2469 262.8562Q546.1219 261.43433 546.1219 258.19995ZM547.5594 258.19995Q547.5594 261.02808 548.21564 261.96558Q548.8875 262.88745 549.85626 262.88745Q550.825 262.88745 551.48126 261.94995Q552.1375 261.01245 552.1375 258.19995Q552.1375 255.37183 551.48126 254.44995Q550.825 253.51245 549.84064 253.51245Q548.8719 253.51245 548.29376 254.34058Q547.5594 255.38745 547.5594 258.19995ZM555.90314 263.8562L555.90314 262.24683L557.5125 262.24683L557.5125 263.8562L555.90314 263.8562ZM559.1219 258.19995Q559.1219 256.1687 559.52814 254.93433Q559.95 253.69995 560.77814 253.02808Q561.60626 252.3562 562.85626 252.3562Q563.77814 252.3562 564.46564 252.7312Q565.16876 253.09058 565.6219 253.7937Q566.075 254.49683 566.325 255.49683Q566.59064 256.49683 566.59064 258.19995Q566.59064 260.21558 566.16876 261.46558Q565.7625 262.69995 564.9344 263.38745Q564.10626 264.05933 562.85626 264.05933Q561.2 264.05933 560.2469 262.8562Q559.1219 261.43433 559.1219 258.19995ZM560.5594 258.19995Q560.5594 261.02808 561.21564 261.96558Q561.8875 262.88745 562.85626 262.88745Q563.825 262.88745 564.48126 261.94995Q565.1375 261.01245 565.1375 258.19995Q565.1375 255.37183 564.48126 254.44995Q563.825 253.51245 562.84064 253.51245Q561.8719 253.51245 561.29376 254.34058Q560.5594 255.38745 560.5594 258.19995ZM568.3875 255.15308Q568.3875 253.9187 568.9969 253.05933Q569.6219 252.19995 570.79376 252.19995Q571.8719 252.19995 572.575 252.9812Q573.27814 253.74683 573.27814 255.2312Q573.27814 256.68433 572.5594 257.4812Q571.85626 258.26245 570.8094 258.26245Q569.7625 258.26245 569.075 257.49683Q568.3875 256.71558 568.3875 255.15308ZM570.825 253.1687Q570.3094 253.1687 569.95 253.62183Q569.60626 254.07495 569.60626 255.2937Q569.60626 256.38745 569.95 256.84058Q570.3094 257.2937 570.825 257.2937Q571.35626 257.2937 571.7 256.84058Q572.0594 256.38745 572.0594 255.18433Q572.0594 254.07495 571.7 253.62183Q571.35626 253.1687 570.825 253.1687ZM570.84064 264.27808L577.10626 252.19995L578.2469 252.19995L571.9969 264.27808L570.84064 264.27808ZM575.79376 261.1687Q575.79376 259.93433 576.40314 259.07495Q577.02814 258.21558 578.2 258.21558Q579.27814 258.21558 579.98126 258.99683Q580.7 259.76245 580.7 261.24683Q580.7 262.69995 579.98126 263.49683Q579.2625 264.27808 578.21564 264.27808Q577.16876 264.27808 576.48126 263.49683Q575.79376 262.71558 575.79376 261.1687ZM578.2469 259.18433Q577.71564 259.18433 577.35626 259.63745Q577.0125 260.09058 577.0125 261.30933Q577.0125 262.40308 577.35626 262.8562Q577.71564 263.30933 578.23126 263.30933Q578.77814 263.30933 579.1219 262.8562Q579.46564 262.40308 579.46564 261.19995Q579.46564 260.09058 579.10626 259.63745Q578.7625 259.18433 578.2469 259.18433Z" fill-rule="nonzero"/><path stroke="#757575" stroke-width="1.0" stroke-linecap="butt" d="M581.45 247.35619L454.76666 247.35619L434.41122 247.35619" fill-rule="nonzero"/><path fill="#9e9e9e" d="M436.41122 247.35619C436.41122 246.25162 435.5158 245.35619 434.41122 245.35619C433.30667 245.35619 432.41122 246.25162 432.41122 247.35619C432.41122 248.46075 433.30667 249.35619 434.41122 249.35619C435.5158 249.35619 436.41122 248.46075 436.41122 247.35619" fill-rule="nonzero"/><path fill="#efefef" d="M531.6375 326.45L531.6375 314.9969L533.91876 314.9969L536.6375 323.10626Q537.0125 324.23126 537.1844 324.79376Q537.3719 324.16876 537.79376 322.96564L540.52814 314.9969L542.575 314.9969L542.575 326.45L541.10626 326.45L541.10626 316.85626L537.77814 326.45L536.41876 326.45L533.10626 316.7L533.10626 326.45L531.6375 326.45ZM544.5125 316.60626L544.5125 314.9969L545.91876 314.9969L545.91876 316.60626L544.5125 316.60626ZM544.5125 326.45L544.5125 318.15314L545.91876 318.15314L545.91876 326.45L544.5125 326.45ZM548.48126 326.45L548.48126 314.9969L549.8875 314.9969L549.8875 326.45L548.48126 326.45ZM552.5125 316.60626L552.5125 314.9969L553.91876 314.9969L553.91876 316.60626L552.5125 316.60626ZM552.5125 326.45L552.5125 318.15314L553.91876 318.15314L553.91876 326.45L552.5125 326.45ZM559.575 325.1844L559.77814 326.4344Q559.1844 326.5594 558.71564 326.5594Q557.95 326.5594 557.52814 326.325Q557.10626 326.075 556.9344 325.6844Q556.7625 325.27814 556.7625 324.0125L556.7625 319.2469L555.73126 319.2469L555.73126 318.15314L556.7625 318.15314L556.7625 316.09064L558.16876 315.2469L558.16876 318.15314L559.575 318.15314L559.575 319.2469L558.16876 319.2469L558.16876 324.09064Q558.16876 324.7 558.23126 324.8719Q558.3094 325.04376 558.48126 325.15314Q558.65314 325.2469 558.96564 325.2469Q559.2 325.2469 559.575 325.1844ZM565.91876 325.41876Q565.1375 326.09064 564.41876 326.3719Q563.7 326.6375 562.8719 326.6375Q561.4969 326.6375 560.7625 325.96564Q560.02814 325.29376 560.02814 324.2625Q560.02814 323.65314 560.3094 323.15314Q560.59064 322.6375 561.02814 322.34064Q561.48126 322.02814 562.04376 321.8719Q562.46564 321.7625 563.29376 321.66876Q564.9969 321.46564 565.8094 321.1844Q565.8094 320.8875 565.8094 320.8094Q565.8094 319.95 565.41876 319.60626Q564.8719 319.1219 563.8094 319.1219Q562.825 319.1219 562.34064 319.48126Q561.8719 319.825 561.65314 320.7L560.27814 320.5125Q560.46564 319.6375 560.8875 319.09064Q561.325 318.54376 562.1375 318.2625Q562.95 317.96564 564.0125 317.96564Q565.075 317.96564 565.73126 318.21564Q566.40314 318.46564 566.71564 318.84064Q567.02814 319.21564 567.15314 319.79376Q567.23126 320.15314 567.23126 321.09064L567.23126 322.96564Q567.23126 324.9344 567.3094 325.45Q567.40314 325.96564 567.66876 326.45L566.2 326.45Q565.98126 326.0125 565.91876 325.41876ZM565.8094 322.27814Q565.04376 322.59064 563.5125 322.8094Q562.6375 322.9344 562.27814 323.09064Q561.91876 323.2469 561.71564 323.5594Q561.52814 323.85626 561.52814 324.21564Q561.52814 324.77814 561.95 325.15314Q562.3875 325.52814 563.2 325.52814Q564.0125 325.52814 564.6375 325.1844Q565.27814 324.825 565.575 324.2Q565.8094 323.73126 565.8094 322.79376L565.8094 322.27814ZM569.4969 326.45L569.4969 318.15314L570.7625 318.15314L570.7625 319.40314Q571.2469 318.52814 571.65314 318.2469Q572.0594 317.96564 572.5594 317.96564Q573.2625 317.96564 573.9969 318.41876L573.5125 319.71564Q572.9969 319.41876 572.48126 319.41876Q572.02814 319.41876 571.65314 319.7Q571.29376 319.96564 571.1375 320.46564Q570.90314 321.21564 570.90314 322.10626L570.90314 326.45L569.4969 326.45ZM574.45 329.65314L574.29376 328.325Q574.7469 328.45 575.09064 328.45Q575.5594 328.45 575.84064 328.29376Q576.1219 328.1375 576.3094 327.85626Q576.4344 327.65314 576.73126 326.8094Q576.77814 326.7 576.85626 326.46564L573.71564 318.15314L575.23126 318.15314L576.95 322.95Q577.29376 323.8719 577.5594 324.8719Q577.79376 323.90314 578.1375 322.98126L579.90314 318.15314L581.3094 318.15314L578.15314 326.59064Q577.65314 327.96564 577.3719 328.48126Q576.9969 329.16876 576.5125 329.4969Q576.02814 329.825 575.35626 329.825Q574.95 329.825 574.45 329.65314Z" fill-rule="nonzero"/><path fill="#9e9e9e" d="M544.5125 347.09064L544.5125 348.45L536.9344 348.45Q536.91876 347.9344 537.10626 347.46564Q537.3875 346.7 538.02814 345.95Q538.66876 345.2 539.8719 344.21564Q541.73126 342.6844 542.3875 341.79376Q543.04376 340.8875 543.04376 340.09064Q543.04376 339.2625 542.45 338.6844Q541.85626 338.10626 540.8875 338.10626Q539.8719 338.10626 539.2625 338.71564Q538.65314 339.325 538.65314 340.40314L537.2 340.2625Q537.35626 338.6375 538.325 337.79376Q539.29376 336.95 540.91876 336.95Q542.575 336.95 543.52814 337.8719Q544.4969 338.77814 544.4969 340.1219Q544.4969 340.8094 544.21564 341.48126Q543.9344 342.1375 543.27814 342.8719Q542.6219 343.60626 541.10626 344.8875Q539.84064 345.95 539.48126 346.34064Q539.1219 346.71564 538.8875 347.09064L544.5125 347.09064ZM546.1219 342.79376Q546.1219 340.7625 546.52814 339.52814Q546.95 338.29376 547.77814 337.6219Q548.60626 336.95 549.85626 336.95Q550.77814 336.95 551.46564 337.325Q552.16876 337.6844 552.6219 338.3875Q553.075 339.09064 553.325 340.09064Q553.59064 341.09064 553.59064 342.79376Q553.59064 344.8094 553.16876 346.0594Q552.7625 347.29376 551.9344 347.98126Q551.10626 348.65314 549.85626 348.65314Q548.2 348.65314 547.2469 347.45Q546.1219 346.02814 546.1219 342.79376ZM547.5594 342.79376Q547.5594 345.6219 548.21564 346.5594Q548.8875 347.48126 549.85626 347.48126Q550.825 347.48126 551.48126 346.54376Q552.1375 345.60626 552.1375 342.79376Q552.1375 339.96564 551.48126 339.04376Q550.825 338.10626 549.84064 338.10626Q548.8719 338.10626 548.29376 338.9344Q547.5594 339.98126 547.5594 342.79376ZM555.90314 348.45L555.90314 346.84064L557.5125 346.84064L557.5125 348.45L555.90314 348.45ZM559.1219 342.79376Q559.1219 340.7625 559.52814 339.52814Q559.95 338.29376 560.77814 337.6219Q561.60626 336.95 562.85626 336.95Q563.77814 336.95 564.46564 337.325Q565.16876 337.6844 565.6219 338.3875Q566.075 339.09064 566.325 340.09064Q566.59064 341.09064 566.59064 342.79376Q566.59064 344.8094 566.16876 346.0594Q565.7625 347.29376 564.9344 347.98126Q564.10626 348.65314 562.85626 348.65314Q561.2 348.65314 560.2469 347.45Q559.1219 346.02814 559.1219 342.79376ZM560.5594 342.79376Q560.5594 345.6219 561.21564 346.5594Q561.8875 347.48126 562.85626 347.48126Q563.825 347.48126 564.48126 346.54376Q565.1375 345.60626 565.1375 342.79376Q565.1375 339.96564 564.48126 339.04376Q563.825 338.10626 562.84064 338.10626Q561.8719 338.10626 561.29376 338.9344Q560.5594 339.98126 560.5594 342.79376ZM568.3875 339.7469Q568.3875 338.5125 568.9969 337.65314Q569.6219 336.79376 570.79376 336.79376Q571.8719 336.79376 572.575 337.575Q573.27814 338.34064 573.27814 339.825Q573.27814 341.27814 572.5594 342.075Q571.85626 342.85626 570.8094 342.85626Q569.7625 342.85626 569.075 342.09064Q568.3875 341.3094 568.3875 339.7469ZM570.825 337.7625Q570.3094 337.7625 569.95 338.21564Q569.60626 338.66876 569.60626 339.8875Q569.60626 340.98126 569.95 341.4344Q570.3094 341.8875 570.825 341.8875Q571.35626 341.8875 571.7 341.4344Q572.0594 340.98126 572.0594 339.77814Q572.0594 338.66876 571.7 338.21564Q571.35626 337.7625 570.825 337.7625ZM570.84064 348.8719L577.10626 336.79376L578.2469 336.79376L571.9969 348.8719L570.84064 348.8719ZM575.79376 345.7625Q575.79376 344.52814 576.40314 343.66876Q577.02814 342.8094 578.2 342.8094Q579.27814 342.8094 579.98126 343.59064Q580.7 344.35626 580.7 345.84064Q580.7 347.29376 579.98126 348.09064Q579.2625 348.8719 578.21564 348.8719Q577.16876 348.8719 576.48126 348.09064Q575.79376 347.3094 575.79376 345.7625ZM578.2469 343.77814Q577.71564 343.77814 577.35626 344.23126Q577.0125 344.6844 577.0125 345.90314Q577.0125 346.9969 577.35626 347.45Q577.71564 347.90314 578.23126 347.90314Q578.77814 347.90314 579.1219 347.45Q579.46564 346.9969 579.46564 345.79376Q579.46564 344.6844 579.10626 344.23126Q578.7625 343.77814 578.2469 343.77814Z" fill-rule="nonzero"/><path stroke="#757575" stroke-width="1.0" stroke-linecap="butt" d="M581.45 331.95L454.76666 331.95L300.0 345.01166" fill-rule="nonzero"/><path fill="#9e9e9e" d="M302.0 345.01166C302.0 343.9071 301.10458 343.01166 300.0 343.01166C298.89542 343.01166 298.0 343.9071 298.0 345.01166C298.0 346.11624 298.89542 347.01166 300.0 347.01166C301.10458 347.01166 302.0 346.11624 302.0 345.01166" fill-rule="nonzero"/><path fill="#f3f3f3" d="M271.26562 32.534374L273.15625 33.003124Q272.5625 35.346874 271.01562 36.58125Q269.46875 37.8 267.21875 37.8Q264.90625 37.8 263.45312 36.8625Q262.01562 35.909374 261.25 34.128124Q260.5 32.33125 260.5 30.284374Q260.5 28.05 261.34375 26.39375Q262.20312 24.721874 263.78125 23.8625Q265.35938 22.9875 267.25 22.9875Q269.40625 22.9875 270.85938 24.08125Q272.32812 25.175 272.90625 27.159374L271.04688 27.596874Q270.54688 26.034374 269.59375 25.33125Q268.65625 24.6125 267.21875 24.6125Q265.5625 24.6125 264.45312 25.409374Q263.34375 26.190624 262.89062 27.534374Q262.45312 28.8625 262.45312 30.26875Q262.45312 32.096874 262.98438 33.471874Q263.51562 34.83125 264.64062 35.503124Q265.76562 36.175 267.0625 36.175Q268.65625 36.175 269.76562 35.253124Q270.875 34.33125 271.26562 32.534374ZM281.59375 36.26875Q280.60938 37.096874 279.70312 37.440624Q278.79688 37.784374 277.76562 37.784374Q276.0625 37.784374 275.14062 36.95625Q274.21875 36.1125 274.21875 34.815624Q274.21875 34.05 274.5625 33.425Q274.92188 32.8 275.48438 32.425Q276.04688 32.034374 276.75 31.83125Q277.26562 31.70625 278.3125 31.565624Q280.4375 31.315624 281.4375 30.971874Q281.45312 30.6125 281.45312 30.503124Q281.45312 29.440624 280.95312 28.9875Q280.28125 28.39375 278.95312 28.39375Q277.70312 28.39375 277.10938 28.83125Q276.53125 29.26875 276.25 30.378124L274.53125 30.14375Q274.76562 29.034374 275.29688 28.3625Q275.82812 27.675 276.84375 27.315624Q277.85938 26.940624 279.20312 26.940624Q280.53125 26.940624 281.35938 27.253124Q282.1875 27.565624 282.57812 28.05Q282.96875 28.51875 283.125 29.2375Q283.21875 29.690624 283.21875 30.8625L283.21875 33.20625Q283.21875 35.659374 283.32812 36.315624Q283.4375 36.95625 283.78125 37.55L281.9375 37.55Q281.67188 37.003124 281.59375 36.26875ZM281.4375 32.346874Q280.48438 32.7375 278.5625 33.003124Q277.48438 33.159374 277.03125 33.3625Q276.59375 33.55 276.34375 33.925Q276.09375 34.3 276.09375 34.76875Q276.09375 35.471874 276.625 35.940624Q277.15625 36.409374 278.1875 36.409374Q279.20312 36.409374 279.98438 35.971874Q280.78125 35.51875 281.15625 34.753124Q281.4375 34.14375 281.4375 32.9875L281.4375 32.346874ZM289.65625 35.971874L289.90625 37.534374Q289.17188 37.690624 288.57812 37.690624Q287.625 37.690624 287.09375 37.39375Q286.57812 37.08125 286.35938 36.596874Q286.14062 36.096874 286.14062 34.51875L286.14062 28.55L284.85938 28.55L284.85938 27.175L286.14062 27.175L286.14062 24.6125L287.89062 23.55L287.89062 27.175L289.65625 27.175L289.65625 28.55L287.89062 28.55L287.89062 34.6125Q287.89062 35.3625 287.98438 35.58125Q288.07812 35.784374 288.28125 35.925Q288.5 36.05 288.89062 36.05Q289.17188 36.05 289.65625 35.971874ZM298.92188 34.20625L300.73438 34.440624Q300.3125 36.01875 299.14062 36.909374Q297.98438 37.784374 296.17188 37.784374Q293.90625 37.784374 292.5625 36.39375Q291.23438 34.9875 291.23438 32.45625Q291.23438 29.83125 292.57812 28.39375Q293.92188 26.940624 296.07812 26.940624Q298.15625 26.940624 299.46875 28.3625Q300.79688 29.76875 300.79688 32.346874Q300.79688 32.503124 300.78125 32.815624L293.04688 32.815624Q293.14062 34.51875 294.01562 35.425Q294.89062 36.33125 296.1875 36.33125Q297.15625 36.33125 297.82812 35.83125Q298.51562 35.315624 298.92188 34.20625ZM293.14062 31.3625L298.9375 31.3625Q298.82812 30.065624 298.28125 29.409374Q297.4375 28.39375 296.09375 28.39375Q294.89062 28.39375 294.0625 29.20625Q293.23438 30.003124 293.14062 31.3625ZM302.5 38.409374L304.20312 38.659374Q304.3125 39.45625 304.79688 39.815624Q305.45312 40.3 306.59375 40.3Q307.8125 40.3 308.46875 39.815624Q309.14062 39.33125 309.375 38.45625Q309.51562 37.909374 309.5 36.190624Q308.34375 37.55 306.625 37.55Q304.48438 37.55 303.3125 36.003124Q302.14062 34.45625 302.14062 32.3Q302.14062 30.815624 302.67188 29.565624Q303.21875 28.315624 304.23438 27.628124Q305.26562 26.940624 306.64062 26.940624Q308.46875 26.940624 309.67188 28.425L309.67188 27.175L311.28125 27.175L311.28125 36.14375Q311.28125 38.565624 310.78125 39.565624Q310.29688 40.58125 309.21875 41.159374Q308.15625 41.753124 306.59375 41.753124Q304.75 41.753124 303.59375 40.925Q302.45312 40.096874 302.5 38.409374ZM303.95312 32.175Q303.95312 34.221874 304.76562 35.159374Q305.57812 36.096874 306.79688 36.096874Q308.0 36.096874 308.8125 35.159374Q309.64062 34.221874 309.64062 32.2375Q309.64062 30.33125 308.79688 29.3625Q307.95312 28.39375 306.76562 28.39375Q305.59375 28.39375 304.76562 29.346874Q303.95312 30.3 303.95312 32.175ZM313.17188 32.3625Q313.17188 29.4875 314.76562 28.096874Q316.10938 26.940624 318.03125 26.940624Q320.17188 26.940624 321.51562 28.346874Q322.875 29.753124 322.875 32.221874Q322.875 34.221874 322.28125 35.378124Q321.6875 36.51875 320.53125 37.159374Q319.39062 37.784374 318.03125 37.784374Q315.84375 37.784374 314.5 36.39375Q313.17188 34.9875 313.17188 32.3625ZM314.96875 32.3625Q314.96875 34.3625 315.82812 35.346874Q316.70312 36.33125 318.03125 36.33125Q319.34375 36.33125 320.20312 35.346874Q321.07812 34.346874 321.07812 32.3Q321.07812 30.378124 320.20312 29.39375Q319.32812 28.39375 318.03125 28.39375Q316.70312 28.39375 315.82812 29.39375Q314.96875 30.378124 314.96875 32.3625ZM324.79688 37.55L324.79688 27.175L326.375 27.175L326.375 28.753124Q326.98438 27.64375 327.5 27.3Q328.01562 26.940624 328.625 26.940624Q329.51562 26.940624 330.4375 27.503124L329.82812 29.14375Q329.1875 28.753124 328.54688 28.753124Q327.96875 28.753124 327.5 29.1125Q327.04688 29.45625 326.84375 30.065624Q326.5625 31.003124 326.5625 32.1125L326.5625 37.55L324.79688 37.55ZM331.73438 41.55L331.54688 39.89375Q332.125 40.05 332.54688 40.05Q333.14062 40.05 333.48438 39.846874Q333.84375 39.659374 334.0625 39.315624Q334.23438 39.05 334.60938 38.003124Q334.65625 37.846874 334.76562 37.565624L330.82812 27.175L332.71875 27.175L334.875 33.190624Q335.29688 34.33125 335.625 35.58125Q335.9375 34.378124 336.34375 33.221874L338.5625 27.175L340.32812 27.175L336.375 37.721874Q335.75 39.440624 335.39062 40.08125Q334.92188 40.95625 334.3125 41.346874Q333.71875 41.753124 332.875 41.753124Q332.35938 41.753124 331.73438 41.55Z" fill-rule="nonzero"/></svg>