<svg version="1.1" viewBox="0.0 0.0 600.0 371.0" fill="none" stroke="none" stroke-linecap="square" stroke-miterlimit="10" width="600" height="371" xmlns:xlink="http://www.w3.org/1999/xlink" xmlns="http://www.w3.org/2000/svg"><path fill="#ffffff" fill-opacity="0.0" d="M0 0L600.0 0L600.0 371.0L0 371.0L0 0Z" fill-rule="nonzero"/><path fill="#8c4595" d="M158.5145 157.7119C178.43053 96.416664 235.55037 54.916668 300.0 54.916668L300.0 129.3C267.77518 129.3 239.21526 150.05 229.25725 180.69762Z" fill-rule="nonzero"/><path fill="#78a94e" d="M212.55714 324.0381C160.4163 286.15555 138.59846 219.00714 158.5145 157.7119L229.25725 180.69762C219.29922 211.34525 230.20815 244.91945 256.27856 263.86072Z" fill-rule="nonzero"/><path fill="#f5ee58" d="M300.0 54.916668C364.44962 54.916668 421.5695 96.416664 441.4855 157.7119C461.40155 219.00714 439.5837 286.15555 387.44284 324.0381C335.302 361.92062 264.698 361.92062 212.55714 324.0381L256.27856 263.86072C282.349 282.80197 317.651 282.80197 343.72144 263.86072C369.79184 244.91945 380.70078 211.34525 370.74277 180.69762C360.78473 150.05 332.22482 129.3 300.0 129.3Z" fill-rule="nonzero"/><path fill="#ffffff" d="M389.56726 234.92754L388.00476 235.05254Q387.786 234.13066 387.3954 233.70879Q386.75476 233.02129 385.81726 233.02129Q385.06726 233.02129 384.48914 233.44316Q383.73914 233.99004 383.30164 235.03691Q382.87976 236.08379 382.86414 238.02129Q383.44226 237.14629 384.25476 236.72441Q385.0829 236.30254 385.98914 236.30254Q387.5829 236.30254 388.69226 237.47441Q389.80164 238.63066 389.80164 240.47441Q389.80164 241.69316 389.2704 242.74004Q388.75476 243.77129 387.8329 244.33379Q386.92664 244.88066 385.7704 244.88066Q383.786 244.88066 382.536 243.42754Q381.286 241.97441 381.286 238.63066Q381.286 234.89629 382.67664 233.19316Q383.87976 231.72441 385.911 231.72441Q387.44226 231.72441 388.411 232.58379Q389.37976 233.42754 389.56726 234.92754ZM383.11414 240.49004Q383.11414 241.30254 383.4579 242.05254Q383.80164 242.80254 384.42664 243.19316Q385.05164 243.58379 385.73914 243.58379Q386.73914 243.58379 387.4579 242.77129Q388.17664 241.95879 388.17664 240.56816Q388.17664 239.24004 387.4579 238.47441Q386.75476 237.69316 385.67664 237.69316Q384.5985 237.69316 383.8485 238.47441Q383.11414 239.24004 383.11414 240.49004ZM391.36414 238.30254Q391.36414 236.02129 391.8329 234.63066Q392.30164 233.24004 393.2235 232.49004Q394.161 231.72441 395.56726 231.72441Q396.5985 231.72441 397.37976 232.14629Q398.161 232.55254 398.661 233.34941Q399.17664 234.13066 399.4735 235.27129Q399.7704 236.39629 399.7704 238.30254Q399.7704 240.56816 399.30164 241.97441Q398.8329 243.36504 397.8954 244.13066Q396.9735 244.88066 395.56726 244.88066Q393.69226 244.88066 392.62976 243.55254Q391.36414 241.94316 391.36414 238.30254ZM392.98914 238.30254Q392.98914 241.47441 393.7235 242.53691Q394.4735 243.58379 395.56726 243.58379Q396.6454 243.58379 397.3954 242.53691Q398.1454 241.47441 398.1454 238.30254Q398.1454 235.13066 397.3954 234.08379Q396.6454 233.03691 395.55164 233.03691Q394.4579 233.03691 393.80164 233.95879Q392.98914 235.13066 392.98914 238.30254ZM402.25476 244.66191L402.25476 242.86504L404.05164 242.86504L404.05164 244.66191L402.25476 244.66191ZM406.36414 238.30254Q406.36414 236.02129 406.8329 234.63066Q407.30164 233.24004 408.2235 232.49004Q409.161 231.72441 410.56726 231.72441Q411.5985 231.72441 412.37976 232.14629Q413.161 232.55254 413.661 233.34941Q414.17664 234.13066 414.4735 235.27129Q414.7704 236.39629 414.7704 238.30254Q414.7704 240.56816 414.30164 241.97441Q413.8329 243.36504 412.8954 244.13066Q411.9735 244.88066 410.56726 244.88066Q408.69226 244.88066 407.62976 243.55254Q406.36414 241.94316 406.36414 238.30254ZM407.98914 238.30254Q407.98914 241.47441 408.7235 242.53691Q409.4735 243.58379 410.56726 243.58379Q411.6454 243.58379 412.3954 242.53691Q413.1454 241.47441 413.1454 238.30254Q413.1454 235.13066 412.3954 234.08379Q411.6454 233.03691 410.55164 233.03691Q409.4579 233.03691 408.80164 233.95879Q407.98914 235.13066 407.98914 238.30254ZM416.661 234.86504Q416.661 233.49004 417.3485 232.52129Q418.05164 231.55254 419.36414 231.55254Q420.5829 231.55254 421.37976 232.42754Q422.17664 233.28691 422.17664 234.97441Q422.17664 236.59941 421.36414 237.49004Q420.56726 238.36504 419.37976 238.36504Q418.2235 238.36504 417.44226 237.50566Q416.661 236.63066 416.661 234.86504ZM419.411 232.64629Q418.81726 232.64629 418.42664 233.16191Q418.036 233.66191 418.036 235.02129Q418.036 236.27129 418.42664 236.77129Q418.8329 237.27129 419.411 237.27129Q420.00476 237.27129 420.3954 236.77129Q420.786 236.25566 420.786 234.91191Q420.786 233.66191 420.3954 233.16191Q420.00476 232.64629 419.411 232.64629ZM419.42664 245.13066L426.4735 231.55254L427.75476 231.55254L420.7235 245.13066L419.42664 245.13066ZM424.98914 241.63066Q424.98914 240.25566 425.67664 239.28691Q426.37976 238.31816 427.7079 238.31816Q428.92664 238.31816 429.7079 239.19316Q430.50476 240.05254 430.50476 241.74004Q430.50476 243.36504 429.7079 244.25566Q428.911 245.13066 427.7235 245.13066Q426.55164 245.13066 425.7704 244.25566Q424.98914 243.38066 424.98914 241.63066ZM427.75476 239.41191Q427.161 239.41191 426.7704 239.92754Q426.37976 240.42754 426.37976 241.80254Q426.37976 243.02129 426.7704 243.53691Q427.161 244.05254 427.73914 244.05254Q428.3485 244.05254 428.73914 243.53691Q429.12976 243.02129 429.12976 241.67754Q429.12976 240.42754 428.73914 239.92754Q428.3485 239.41191 427.75476 239.41191Z" fill-rule="nonzero"/><path fill="#ffffff" d="M177.44836 243.14629L177.44836 244.66191L168.93274 244.66191Q168.91711 244.08379 169.12024 243.56816Q169.44836 242.69316 170.15149 241.84941Q170.87024 241.00566 172.22961 239.89629Q174.32336 238.17754 175.05774 237.17754Q175.80774 236.16191 175.80774 235.27129Q175.80774 234.31816 175.13586 233.67754Q174.46399 233.03691 173.38586 233.03691Q172.22961 233.03691 171.54211 233.72441Q170.87024 234.41191 170.85461 235.61504L169.22961 235.44316Q169.40149 233.63066 170.47961 232.67754Q171.57336 231.72441 173.41711 231.72441Q175.26086 231.72441 176.33899 232.75566Q177.43274 233.78691 177.43274 235.30254Q177.43274 236.06816 177.10461 236.81816Q176.79211 237.56816 176.05774 238.39629Q175.32336 239.22441 173.62024 240.66191Q172.19836 241.86504 171.79211 242.28691Q171.38586 242.70879 171.13586 243.14629L177.44836 243.14629ZM179.13586 238.30254Q179.13586 236.02129 179.60461 234.63066Q180.07336 233.24004 180.99524 232.49004Q181.93274 231.72441 183.33899 231.72441Q184.37024 231.72441 185.15149 232.14629Q185.93274 232.55254 186.43274 233.34941Q186.94836 234.13066 187.24524 235.27129Q187.54211 236.39629 187.54211 238.30254Q187.54211 240.56816 187.07336 241.97441Q186.60461 243.36504 185.66711 244.13066Q184.74524 244.88066 183.33899 244.88066Q181.46399 244.88066 180.40149 243.55254Q179.13586 241.94316 179.13586 238.30254ZM180.76086 238.30254Q180.76086 241.47441 181.49524 242.53691Q182.24524 243.58379 183.33899 243.58379Q184.41711 243.58379 185.16711 242.53691Q185.91711 241.47441 185.91711 238.30254Q185.91711 235.13066 185.16711 234.08379Q184.41711 233.03691 183.32336 233.03691Q182.22961 233.03691 181.57336 233.95879Q180.76086 235.13066 180.76086 238.30254ZM190.02649 244.66191L190.02649 242.86504L191.82336 242.86504L191.82336 244.66191L190.02649 244.66191ZM194.13586 238.30254Q194.13586 236.02129 194.60461 234.63066Q195.07336 233.24004 195.99524 232.49004Q196.93274 231.72441 198.33899 231.72441Q199.37024 231.72441 200.15149 232.14629Q200.93274 232.55254 201.43274 233.34941Q201.94836 234.13066 202.24524 235.27129Q202.54211 236.39629 202.54211 238.30254Q202.54211 240.56816 202.07336 241.97441Q201.60461 243.36504 200.66711 244.13066Q199.74524 244.88066 198.33899 244.88066Q196.46399 244.88066 195.40149 243.55254Q194.13586 241.94316 194.13586 238.30254ZM195.76086 238.30254Q195.76086 241.47441 196.49524 242.53691Q197.24524 243.58379 198.33899 243.58379Q199.41711 243.58379 200.16711 242.53691Q200.91711 241.47441 200.91711 238.30254Q200.91711 235.13066 200.16711 234.08379Q199.41711 233.03691 198.32336 233.03691Q197.22961 233.03691 196.57336 233.95879Q195.76086 235.13066 195.76086 238.30254ZM204.43274 234.86504Q204.43274 233.49004 205.12024 232.52129Q205.82336 231.55254 207.13586 231.55254Q208.35461 231.55254 209.15149 232.42754Q209.94836 233.28691 209.94836 234.97441Q209.94836 236.59941 209.13586 237.49004Q208.33899 238.36504 207.15149 238.36504Q205.99524 238.36504 205.21399 237.50566Q204.43274 236.63066 204.43274 234.86504ZM207.18274 232.64629Q206.58899 232.64629 206.19836 233.16191Q205.80774 233.66191 205.80774 235.02129Q205.80774 236.27129 206.19836 236.77129Q206.60461 237.27129 207.18274 237.27129Q207.77649 237.27129 208.16711 236.77129Q208.55774 236.25566 208.55774 234.91191Q208.55774 233.66191 208.16711 233.16191Q207.77649 232.64629 207.18274 232.64629ZM207.19836 245.13066L214.24524 231.55254L215.52649 231.55254L208.49524 245.13066L207.19836 245.13066ZM212.76086 241.63066Q212.76086 240.25566 213.44836 239.28691Q214.15149 238.31816 215.47961 238.31816Q216.69836 238.31816 217.47961 239.19316Q218.27649 240.05254 218.27649 241.74004Q218.27649 243.36504 217.47961 244.25566Q216.68274 245.13066 215.49524 245.13066Q214.32336 245.13066 213.54211 244.25566Q212.76086 243.38066 212.76086 241.63066ZM215.52649 239.41191Q214.93274 239.41191 214.54211 239.92754Q214.15149 240.42754 214.15149 241.80254Q214.15149 243.02129 214.54211 243.53691Q214.93274 244.05254 215.51086 244.05254Q216.12024 244.05254 216.51086 243.53691Q216.90149 243.02129 216.90149 241.67754Q216.90149 240.42754 216.51086 239.92754Q216.12024 239.41191 215.52649 239.41191Z" fill-rule="nonzero"/><path fill="#ffffff" d="M217.98036 118.401634L217.98036 119.91726L209.46474 119.91726Q209.44911 119.339134 209.65224 118.82351Q209.98036 117.94851 210.68349 117.10476Q211.40224 116.26101 212.76161 115.151634Q214.85536 113.432884 215.58974 112.432884Q216.33974 111.41726 216.33974 110.526634Q216.33974 109.57351 215.66786 108.932884Q214.99599 108.29226 213.91786 108.29226Q212.76161 108.29226 212.07411 108.97976Q211.40224 109.66726 211.38661 110.870384L209.76161 110.69851Q209.93349 108.88601 211.01161 107.932884Q212.10536 106.97976 213.94911 106.97976Q215.79286 106.97976 216.87099 108.01101Q217.96474 109.04226 217.96474 110.557884Q217.96474 111.32351 217.63661 112.07351Q217.32411 112.82351 216.58974 113.651634Q215.85536 114.47976 214.15224 115.91726Q212.73036 117.120384 212.32411 117.54226Q211.91786 117.964134 211.66786 118.401634L217.98036 118.401634ZM219.66786 113.557884Q219.66786 111.276634 220.13661 109.88601Q220.60536 108.495384 221.52724 107.745384Q222.46474 106.97976 223.87099 106.97976Q224.90224 106.97976 225.68349 107.401634Q226.46474 107.807884 226.96474 108.60476Q227.48036 109.38601 227.77724 110.526634Q228.07411 111.651634 228.07411 113.557884Q228.07411 115.82351 227.60536 117.22976Q227.13661 118.620384 226.19911 119.38601Q225.27724 120.13601 223.87099 120.13601Q221.99599 120.13601 220.93349 118.807884Q219.66786 117.19851 219.66786 113.557884ZM221.29286 113.557884Q221.29286 116.72976 222.02724 117.79226Q222.77724 118.839134 223.87099 118.839134Q224.94911 118.839134 225.69911 117.79226Q226.44911 116.72976 226.44911 113.557884Q226.44911 110.38601 225.69911 109.339134Q224.94911 108.29226 223.85536 108.29226Q222.76161 108.29226 222.10536 109.214134Q221.29286 110.38601 221.29286 113.557884ZM230.55849 119.91726L230.55849 118.120384L232.35536 118.120384L232.35536 119.91726L230.55849 119.91726ZM234.66786 113.557884Q234.66786 111.276634 235.13661 109.88601Q235.60536 108.495384 236.52724 107.745384Q237.46474 106.97976 238.87099 106.97976Q239.90224 106.97976 240.68349 107.401634Q241.46474 107.807884 241.96474 108.60476Q242.48036 109.38601 242.77724 110.526634Q243.07411 111.651634 243.07411 113.557884Q243.07411 115.82351 242.60536 117.22976Q242.13661 118.620384 241.19911 119.38601Q240.27724 120.13601 238.87099 120.13601Q236.99599 120.13601 235.93349 118.807884Q234.66786 117.19851 234.66786 113.557884ZM236.29286 113.557884Q236.29286 116.72976 237.02724 117.79226Q237.77724 118.839134 238.87099 118.839134Q239.94911 118.839134 240.69911 117.79226Q241.44911 116.72976 241.44911 113.557884Q241.44911 110.38601 240.69911 109.339134Q239.94911 108.29226 238.85536 108.29226Q237.76161 108.29226 237.10536 109.214134Q236.29286 110.38601 236.29286 113.557884ZM244.96474 110.120384Q244.96474 108.745384 245.65224 107.776634Q246.35536 106.807884 247.66786 106.807884Q248.88661 106.807884 249.68349 107.682884Q250.48036 108.54226 250.48036 110.22976Q250.48036 111.85476 249.66786 112.745384Q248.87099 113.620384 247.68349 113.620384Q246.52724 113.620384 245.74599 112.76101Q244.96474 111.88601 244.96474 110.120384ZM247.71474 107.901634Q247.12099 107.901634 246.73036 108.41726Q246.33974 108.91726 246.33974 110.276634Q246.33974 111.526634 246.73036 112.026634Q247.13661 112.526634 247.71474 112.526634Q248.30849 112.526634 248.69911 112.026634Q249.08974 111.51101 249.08974 110.16726Q249.08974 108.91726 248.69911 108.41726Q248.30849 107.901634 247.71474 107.901634ZM247.73036 120.38601L254.77724 106.807884L256.05847 106.807884L249.02724 120.38601L247.73036 120.38601ZM253.29286 116.88601Q253.29286 115.51101 253.98036 114.54226Q254.68349 113.57351 256.0116 113.57351Q257.23035 113.57351 258.0116 114.44851Q258.80847 115.307884 258.80847 116.995384Q258.80847 118.620384 258.0116 119.51101Q257.21472 120.38601 256.02722 120.38601Q254.85536 120.38601 254.07411 119.51101Q253.29286 118.63601 253.29286 116.88601ZM256.05847 114.66726Q255.46474 114.66726 255.07411 115.182884Q254.68349 115.682884 254.68349 117.057884Q254.68349 118.276634 255.07411 118.79226Q255.46474 119.307884 256.04285 119.307884Q256.65222 119.307884 257.04285 118.79226Q257.43347 118.276634 257.43347 116.932884Q257.43347 115.682884 257.04285 115.182884Q256.65222 114.66726 256.05847 114.66726Z" fill-rule="nonzero"/><path stroke="#ffffff" stroke-width="1.0" stroke-linejoin="round" stroke-linecap="round" d="M256.27856 263.86072C282.349 282.80197 317.651 282.80197 343.72144 263.86072C369.79184 244.91945 380.70078 211.34525 370.74277 180.69762C360.78473 150.05 332.22482 129.3 300.0 129.3L300.0 54.916668C364.44962 54.916668 421.5695 96.416664 441.4855 157.7119C461.40155 219.00714 439.5837 286.15555 387.44284 324.0381C335.302 361.92062 264.698 361.92062 212.55714 324.0381" fill-rule="nonzero"/><path stroke="#ffffff" stroke-width="1.0" stroke-linejoin="round" stroke-linecap="round" d="M229.25725 180.69762C219.29922 211.34525 230.20815 244.91945 256.27856 263.86072L212.55714 324.0381C160.4163 286.15555 138.59846 219.00714 158.5145 157.7119" fill-rule="nonzero"/><path stroke="#ffffff" stroke-width="1.0" stroke-linejoin="round" stroke-linecap="round" d="M300.0 129.3C267.77518 129.3 239.21526 150.05 229.25725 180.69762L158.5145 157.7119C178.43053 96.416664 235.55037 54.916668 300.0 54.916668" fill-rule="nonzero"/><path fill="#efefef" d="M19.76875 83.84631L19.76875 72.39319L21.33125 72.39319L27.346874 81.37756L27.346874 72.39319L28.8 72.39319L28.8 83.84631L27.2375 83.84631L21.221874 74.84631L21.221874 83.84631L19.76875 83.84631ZM37.01875 82.81506Q36.2375 83.48694 35.51875 83.76819Q34.8 84.03381 33.971874 84.03381Q32.596874 84.03381 31.8625 83.36194Q31.128124 82.69006 31.128124 81.65881Q31.128124 81.04944 31.409374 80.54944Q31.690624 80.03381 32.128124 79.73694Q32.58125 79.42444 33.14375 79.26819Q33.565624 79.15881 34.39375 79.06506Q36.096874 78.86194 36.909374 78.58069Q36.909374 78.28381 36.909374 78.20569Q36.909374 77.34631 36.51875 77.00256Q35.971874 76.51819 34.909374 76.51819Q33.925 76.51819 33.440624 76.87756Q32.971874 77.22131 32.753124 78.09631L31.378124 77.90881Q31.565624 77.03381 31.9875 76.48694Q32.425 75.94006 33.2375 75.65881Q34.05 75.36194 35.1125 75.36194Q36.175 75.36194 36.83125 75.61194Q37.503124 75.86194 37.815624 76.23694Q38.128124 76.61194 38.253124 77.19006Q38.33125 77.54944 38.33125 78.48694L38.33125 80.36194Q38.33125 82.33069 38.409374 82.84631Q38.503124 83.36194 38.76875 83.84631L37.3 83.84631Q37.08125 83.40881 37.01875 82.81506ZM36.909374 79.67444Q36.14375 79.98694 34.6125 80.20569Q33.7375 80.33069 33.378124 80.48694Q33.01875 80.64319 32.815624 80.95569Q32.628124 81.25256 32.628124 81.61194Q32.628124 82.17444 33.05 82.54944Q33.4875 82.92444 34.3 82.92444Q35.1125 82.92444 35.7375 82.58069Q36.378124 82.22131 36.675 81.59631Q36.909374 81.12756 36.909374 80.19006L36.909374 79.67444ZM43.675 82.58069L43.878124 83.83069Q43.284374 83.95569 42.815624 83.95569Q42.05 83.95569 41.628124 83.72131Q41.20625 83.47131 41.034374 83.08069Q40.8625 82.67444 40.8625 81.40881L40.8625 76.64319L39.83125 76.64319L39.83125 75.54944L40.8625 75.54944L40.8625 73.48694L42.26875 72.64319L42.26875 75.54944L43.675 75.54944L43.675 76.64319L42.26875 76.64319L42.26875 81.48694Q42.26875 82.09631 42.33125 82.26819Q42.409374 82.44006 42.58125 82.54944Q42.753124 82.64319 43.065624 82.64319Q43.3 82.64319 43.675 82.58069ZM50.05 83.84631L50.05 82.62756Q49.08125 84.03381 47.409374 84.03381Q46.675 84.03381 46.034374 83.75256Q45.409374 83.47131 45.096874 83.04944Q44.784374 82.61194 44.659374 82.00256Q44.58125 81.58069 44.58125 80.69006L44.58125 75.54944L45.9875 75.54944L45.9875 80.14319Q45.9875 81.25256 46.065624 81.62756Q46.20625 82.19006 46.628124 82.50256Q47.065624 82.81506 47.690624 82.81506Q48.33125 82.81506 48.878124 82.50256Q49.440624 82.17444 49.659374 81.61194Q49.89375 81.04944 49.89375 79.98694L49.89375 75.54944L51.3 75.54944L51.3 83.84631L50.05 83.84631ZM53.596874 83.84631L53.596874 75.54944L54.8625 75.54944L54.8625 76.79944Q55.346874 75.92444 55.753124 75.64319Q56.159374 75.36194 56.659374 75.36194Q57.3625 75.36194 58.096874 75.81506L57.6125 77.11194Q57.096874 76.81506 56.58125 76.81506Q56.128124 76.81506 55.753124 77.09631Q55.39375 77.36194 55.2375 77.86194Q55.003124 78.61194 55.003124 79.50256L55.003124 83.84631L53.596874 83.84631ZM64.01875 82.81506Q63.2375 83.48694 62.51875 83.76819Q61.8 84.03381 60.971874 84.03381Q59.596874 84.03381 58.8625 83.36194Q58.128124 82.69006 58.128124 81.65881Q58.128124 81.04944 58.409374 80.54944Q58.690624 80.03381 59.128124 79.73694Q59.58125 79.42444 60.14375 79.26819Q60.565624 79.15881 61.39375 79.06506Q63.096874 78.86194 63.909374 78.58069Q63.909374 78.28381 63.909374 78.20569Q63.909374 77.34631 63.51875 77.00256Q62.971874 76.51819 61.909374 76.51819Q60.925 76.51819 60.440624 76.87756Q59.971874 77.22131 59.753124 78.09631L58.378124 77.90881Q58.565624 77.03381 58.9875 76.48694Q59.425 75.94006 60.2375 75.65881Q61.05 75.36194 62.1125 75.36194Q63.175 75.36194 63.83125 75.61194Q64.50313 75.86194 64.81563 76.23694Q65.12813 76.61194 65.25313 77.19006Q65.33125 77.54944 65.33125 78.48694L65.33125 80.36194Q65.33125 82.33069 65.40938 82.84631Q65.50313 83.36194 65.76875 83.84631L64.3 83.84631Q64.08125 83.40881 64.01875 82.81506ZM63.909374 79.67444Q63.14375 79.98694 61.6125 80.20569Q60.7375 80.33069 60.378124 80.48694Q60.01875 80.64319 59.815624 80.95569Q59.628124 81.25256 59.628124 81.61194Q59.628124 82.17444 60.05 82.54944Q60.4875 82.92444 61.3 82.92444Q62.1125 82.92444 62.7375 82.58069Q63.378124 82.22131 63.675 81.59631Q63.909374 81.12756 63.909374 80.19006L63.909374 79.67444ZM67.58125 83.84631L67.58125 72.39319L68.9875 72.39319L68.9875 83.84631L67.58125 83.84631Z" fill-rule="nonzero"/><path fill="#9e9e9e" d="M26.6125 104.48694L26.6125 105.84631L19.034374 105.84631Q19.01875 105.33069 19.20625 104.86194Q19.4875 104.09631 20.128124 103.34631Q20.76875 102.59631 21.971874 101.61194Q23.83125 100.08069 24.4875 99.19006Q25.14375 98.28381 25.14375 97.48694Q25.14375 96.65881 24.55 96.08069Q23.95625 95.50256 22.9875 95.50256Q21.971874 95.50256 21.3625 96.11194Q20.753124 96.72131 20.753124 97.79944L19.3 97.65881Q19.45625 96.03381 20.425 95.19006Q21.39375 94.34631 23.01875 94.34631Q24.675 94.34631 25.628124 95.26819Q26.596874 96.17444 26.596874 97.51819Q26.596874 98.20569 26.315624 98.87756Q26.034374 99.53381 25.378124 100.26819Q24.721874 101.00256 23.20625 102.28381Q21.940624 103.34631 21.58125 103.73694Q21.221874 104.11194 20.9875 104.48694L26.6125 104.48694ZM28.221874 100.19006Q28.221874 98.15881 28.628124 96.92444Q29.05 95.69006 29.878124 95.01819Q30.70625 94.34631 31.95625 94.34631Q32.878124 94.34631 33.565624 94.72131Q34.26875 95.08069 34.721874 95.78381Q35.175 96.48694 35.425 97.48694Q35.690624 98.48694 35.690624 100.19006Q35.690624 102.20569 35.26875 103.45569Q34.8625 104.69006 34.034374 105.37756Q33.20625 106.04944 31.95625 106.04944Q30.3 106.04944 29.346874 104.84631Q28.221874 103.42444 28.221874 100.19006ZM29.659374 100.19006Q29.659374 103.01819 30.315624 103.95569Q30.9875 104.87756 31.95625 104.87756Q32.925 104.87756 33.58125 103.94006Q34.2375 103.00256 34.2375 100.19006Q34.2375 97.36194 33.58125 96.44006Q32.925 95.50256 31.940624 95.50256Q30.971874 95.50256 30.39375 96.33069Q29.659374 97.37756 29.659374 100.19006ZM38.003124 105.84631L38.003124 104.23694L39.6125 104.23694L39.6125 105.84631L38.003124 105.84631ZM41.221874 100.19006Q41.221874 98.15881 41.628124 96.92444Q42.05 95.69006 42.878124 95.01819Q43.70625 94.34631 44.95625 94.34631Q45.878124 94.34631 46.565624 94.72131Q47.26875 95.08069 47.721874 95.78381Q48.175 96.48694 48.425 97.48694Q48.690624 98.48694 48.690624 100.19006Q48.690624 102.20569 48.26875 103.45569Q47.8625 104.69006 47.034374 105.37756Q46.20625 106.04944 44.95625 106.04944Q43.3 106.04944 42.346874 104.84631Q41.221874 103.42444 41.221874 100.19006ZM42.659374 100.19006Q42.659374 103.01819 43.315624 103.95569Q43.9875 104.87756 44.95625 104.87756Q45.925 104.87756 46.58125 103.94006Q47.2375 103.00256 47.2375 100.19006Q47.2375 97.36194 46.58125 96.44006Q45.925 95.50256 44.940624 95.50256Q43.971874 95.50256 43.39375 96.33069Q42.659374 97.37756 42.659374 100.19006ZM50.4875 97.14319Q50.4875 95.90881 51.096874 95.04944Q51.721874 94.19006 52.89375 94.19006Q53.971874 94.19006 54.675 94.97131Q55.378124 95.73694 55.378124 97.22131Q55.378124 98.67444 54.659374 99.47131Q53.95625 100.25256 52.909374 100.25256Q51.8625 100.25256 51.175 99.48694Q50.4875 98.70569 50.4875 97.14319ZM52.925 95.15881Q52.409374 95.15881 52.05 95.61194Q51.70625 96.06506 51.70625 97.28381Q51.70625 98.37756 52.05 98.83069Q52.409374 99.28381 52.925 99.28381Q53.45625 99.28381 53.8 98.83069Q54.159374 98.37756 54.159374 97.17444Q54.159374 96.06506 53.8 95.61194Q53.45625 95.15881 52.925 95.15881ZM52.940624 106.26819L59.20625 94.19006L60.346874 94.19006L54.096874 106.26819L52.940624 106.26819ZM57.89375 103.15881Q57.89375 101.92444 58.503124 101.06506Q59.128124 100.20569 60.3 100.20569Q61.378124 100.20569 62.08125 100.98694Q62.8 101.75256 62.8 103.23694Q62.8 104.69006 62.08125 105.48694Q61.3625 106.26819 60.315624 106.26819Q59.26875 106.26819 58.58125 105.48694Q57.89375 104.70569 57.89375 103.15881ZM60.346874 101.17444Q59.815624 101.17444 59.45625 101.62756Q59.1125 102.08069 59.1125 103.29944Q59.1125 104.39319 59.45625 104.84631Q59.815624 105.29944 60.33125 105.29944Q60.878124 105.29944 61.221874 104.84631Q61.565624 104.39319 61.565624 103.19006Q61.565624 102.08069 61.20625 101.62756Q60.8625 101.17444 60.346874 101.17444Z" fill-rule="nonzero"/><path stroke="#757575" stroke-width="1.0" stroke-linecap="butt" d="M18.55 89.34631L145.23334 89.34631L216.92929 89.34631" fill-rule="nonzero"/><path fill="#9e9e9e" d="M218.92929 89.34631C218.92929 88.24174 218.03386 87.34631 216.92929 87.34631C215.82472 87.34631 214.92929 88.24174 214.92929 89.34631C214.92929 90.45088 215.82472 91.34631 216.92929 91.34631C218.03386 91.34631 218.92929 90.45088 218.92929 89.34631" fill-rule="nonzero"/><path fill="#efefef" d="M18.51875 241.85619L22.925 230.40306L24.565624 230.40306L29.253124 241.85619L27.51875 241.85619L26.190624 238.38744L21.39375 238.38744L20.14375 241.85619L18.51875 241.85619ZM21.83125 237.15306L25.721874 237.15306L24.51875 233.98119Q23.971874 232.52806 23.70625 231.60619Q23.4875 232.69994 23.096874 233.79369L21.83125 237.15306ZM30.596874 241.85619L30.596874 233.55931L31.8625 233.55931L31.8625 234.80931Q32.346874 233.93431 32.753124 233.65306Q33.159374 233.37181 33.659374 233.37181Q34.3625 233.37181 35.096874 233.82494L34.6125 235.12181Q34.096874 234.82494 33.58125 234.82494Q33.128124 234.82494 32.753124 235.10619Q32.39375 235.37181 32.2375 235.87181Q32.003124 236.62181 32.003124 237.51244L32.003124 241.85619L30.596874 241.85619ZM41.01875 238.80931L42.409374 238.99681Q42.175 240.41869 41.2375 241.23119Q40.315624 242.04369 38.95625 242.04369Q37.253124 242.04369 36.20625 240.93431Q35.175 239.80931 35.175 237.73119Q35.175 236.38744 35.6125 235.38744Q36.065624 234.37181 36.971874 233.87181Q37.89375 233.37181 38.95625 233.37181Q40.315624 233.37181 41.175 234.05931Q42.034374 234.73119 42.26875 235.99681L40.909374 236.19994Q40.70625 235.37181 40.20625 234.94994Q39.721874 234.52806 39.01875 234.52806Q37.95625 234.52806 37.284374 235.29369Q36.628124 236.04369 36.628124 237.69994Q36.628124 239.37181 37.26875 240.13744Q37.909374 240.88744 38.940624 240.88744Q39.76875 240.88744 40.315624 240.38744Q40.878124 239.87181 41.01875 238.80931ZM43.6125 241.85619L43.6125 230.40306L45.01875 230.40306L45.01875 234.51244Q46.003124 233.37181 47.503124 233.37181Q48.425 233.37181 49.096874 233.73119Q49.784374 234.09056 50.065624 234.73119Q50.3625 235.37181 50.3625 236.59056L50.3625 241.85619L48.95625 241.85619L48.95625 236.59056Q48.95625 235.54369 48.503124 235.05931Q48.05 234.57494 47.20625 234.57494Q46.58125 234.57494 46.034374 234.90306Q45.4875 235.23119 45.253124 235.79369Q45.01875 236.34056 45.01875 237.30931L45.01875 241.85619L43.6125 241.85619ZM52.6125 232.01244L52.6125 230.40306L54.01875 230.40306L54.01875 232.01244L52.6125 232.01244ZM52.6125 241.85619L52.6125 233.55931L54.01875 233.55931L54.01875 241.85619L52.6125 241.85619ZM59.675 240.59056L59.878124 241.84056Q59.284374 241.96556 58.815624 241.96556Q58.05 241.96556 57.628124 241.73119Q57.20625 241.48119 57.034374 241.09056Q56.8625 240.68431 56.8625 239.41869L56.8625 234.65306L55.83125 234.65306L55.83125 233.55931L56.8625 233.55931L56.8625 231.49681L58.26875 230.65306L58.26875 233.55931L59.675 233.55931L59.675 234.65306L58.26875 234.65306L58.26875 239.49681Q58.26875 240.10619 58.33125 240.27806Q58.409374 240.44994 58.58125 240.55931Q58.753124 240.65306 59.065624 240.65306Q59.3 240.65306 59.675 240.59056ZM66.28438 239.18431L67.7375 239.35619Q67.39375 240.63744 66.45625 241.34056Q65.53438 242.04369 64.09688 242.04369Q62.26875 242.04369 61.20625 240.91869Q60.14375 239.79369 60.14375 237.77806Q60.14375 235.68431 61.221874 234.52806Q62.3 233.37181 64.01875 233.37181Q65.675 233.37181 66.72188 234.51244Q67.78438 235.63744 67.78438 237.68431Q67.78438 237.80931 67.78438 238.05931L61.596874 238.05931Q61.675 239.43431 62.3625 240.16869Q63.065624 240.88744 64.09688 240.88744Q64.87813 240.88744 65.425 240.48119Q65.97188 240.07494 66.28438 239.18431ZM61.675 236.90306L66.3 236.90306Q66.20625 235.85619 65.76875 235.34056Q65.09688 234.52806 64.03438 234.52806Q63.065624 234.52806 62.39375 235.18431Q61.7375 235.82494 61.675 236.90306ZM75.01875 238.80931L76.40938 238.99681Q76.175 240.41869 75.2375 241.23119Q74.31563 242.04369 72.95625 242.04369Q71.25313 242.04369 70.20625 240.93431Q69.175 239.80931 69.175 237.73119Q69.175 236.38744 69.6125 235.38744Q70.06563 234.37181 70.97188 233.87181Q71.89375 233.37181 72.95625 233.37181Q74.31563 233.37181 75.175 234.05931Q76.03438 234.73119 76.26875 235.99681L74.90938 236.19994Q74.70625 235.37181 74.20625 234.94994Q73.72188 234.52806 73.01875 234.52806Q71.95625 234.52806 71.28438 235.29369Q70.62813 236.04369 70.62813 237.69994Q70.62813 239.37181 71.26875 240.13744Q71.90938 240.88744 72.94063 240.88744Q73.76875 240.88744 74.31563 240.38744Q74.87813 239.87181 75.01875 238.80931ZM80.675 240.59056L80.87813 241.84056Q80.28438 241.96556 79.81563 241.96556Q79.05 241.96556 78.62813 241.73119Q78.20625 241.48119 78.03438 241.09056Q77.8625 240.68431 77.8625 239.41869L77.8625 234.65306L76.83125 234.65306L76.83125 233.55931L77.8625 233.55931L77.8625 231.49681L79.26875 230.65306L79.26875 233.55931L80.675 233.55931L80.675 234.65306L79.26875 234.65306L79.26875 239.49681Q79.26875 240.10619 79.33125 240.27806Q79.40938 240.44994 79.58125 240.55931Q79.75313 240.65306 80.06563 240.65306Q80.3 240.65306 80.675 240.59056ZM87.05 241.85619L87.05 240.63744Q86.08125 242.04369 84.40938 242.04369Q83.675 242.04369 83.03438 241.76244Q82.40938 241.48119 82.09688 241.05931Q81.78438 240.62181 81.65938 240.01244Q81.58125 239.59056 81.58125 238.69994L81.58125 233.55931L82.9875 233.55931L82.9875 238.15306Q82.9875 239.26244 83.06563 239.63744Q83.20625 240.19994 83.62813 240.51244Q84.06563 240.82494 84.69063 240.82494Q85.33125 240.82494 85.87813 240.51244Q86.44063 240.18431 86.65938 239.62181Q86.89375 239.05931 86.89375 237.99681L86.89375 233.55931L88.3 233.55931L88.3 241.85619L87.05 241.85619ZM90.59688 241.85619L90.59688 233.55931L91.8625 233.55931L91.8625 234.80931Q92.34688 233.93431 92.75313 233.65306Q93.15938 233.37181 93.65938 233.37181Q94.3625 233.37181 95.09688 233.82494L94.6125 235.12181Q94.09688 234.82494 93.58125 234.82494Q93.12813 234.82494 92.75313 235.10619Q92.39375 235.37181 92.2375 235.87181Q92.00313 236.62181 92.00313 237.51244L92.00313 241.85619L90.59688 241.85619ZM101.28438 239.18431L102.7375 239.35619Q102.39375 240.63744 101.45625 241.34056Q100.53438 242.04369 99.09688 242.04369Q97.26875 242.04369 96.20625 240.91869Q95.14375 239.79369 95.14375 237.77806Q95.14375 235.68431 96.22188 234.52806Q97.3 233.37181 99.01875 233.37181Q100.675 233.37181 101.72188 234.51244Q102.78438 235.63744 102.78438 237.68431Q102.78438 237.80931 102.78438 238.05931L96.59688 238.05931Q96.675 239.43431 97.3625 240.16869Q98.06563 240.88744 99.09688 240.88744Q99.87813 240.88744 100.425 240.48119Q100.97188 240.07494 101.28438 239.18431ZM96.675 236.90306L101.3 236.90306Q101.20625 235.85619 100.76875 235.34056Q100.09688 234.52806 99.03438 234.52806Q98.06563 234.52806 97.39375 235.18431Q96.7375 235.82494 96.675 236.90306ZM115.15938 240.49681Q114.45625 241.27806 113.62813 241.66869Q112.81563 242.05931 111.8625 242.05931Q110.1125 242.05931 109.08125 240.85619Q108.2375 239.88744 108.2375 238.69994Q108.2375 237.63744 108.925 236.77806Q109.6125 235.91869 110.97188 235.27806Q110.19063 234.38744 109.925 233.84056Q109.675 233.27806 109.675 232.76244Q109.675 231.73119 110.4875 230.96556Q111.3 230.19994 112.51875 230.19994Q113.69063 230.19994 114.44063 230.91869Q115.19063 231.63744 115.19063 232.65306Q115.19063 234.27806 113.01875 235.43431L115.08125 238.05931Q115.425 237.37181 115.62813 236.46556L117.08125 236.77806Q116.70625 238.27806 116.06563 239.24681Q116.8625 240.29369 117.8625 240.99681L116.90938 242.12181Q116.06563 241.57494 115.15938 240.49681ZM112.3 234.52806Q113.20625 233.99681 113.47188 233.59056Q113.75313 233.18431 113.75313 232.68431Q113.75313 232.10619 113.37813 231.73119Q113.00313 231.35619 112.45625 231.35619Q111.87813 231.35619 111.50313 231.73119Q111.12813 232.09056 111.12813 232.62181Q111.12813 232.88744 111.25313 233.18431Q111.39375 233.48119 111.675 233.80931L112.3 234.52806ZM114.26875 239.38744L111.69063 236.19994Q110.55 236.87181 110.14375 237.46556Q109.75313 238.04369 109.75313 238.60619Q109.75313 239.30931 110.3 240.05931Q110.8625 240.80931 111.87813 240.80931Q112.51875 240.80931 113.19063 240.41869Q113.8625 240.01244 114.26875 239.38744Z" fill-rule="nonzero"/><path fill="#9e9e9e" d="M26.6125 262.49683L26.6125 263.8562L19.034374 263.8562Q19.01875 263.34058 19.20625 262.87183Q19.4875 262.1062 20.128124 261.3562Q20.76875 260.6062 21.971874 259.62183Q23.83125 258.09058 24.4875 257.19995Q25.14375 256.2937 25.14375 255.49683Q25.14375 254.6687 24.55 254.09058Q23.95625 253.51245 22.9875 253.51245Q21.971874 253.51245 21.3625 254.12183Q20.753124 254.7312 20.753124 255.80933L19.3 255.6687Q19.45625 254.0437 20.425 253.19995Q21.39375 252.3562 23.01875 252.3562Q24.675 252.3562 25.628124 253.27808Q26.596874 254.18433 26.596874 255.52808Q26.596874 256.21558 26.315624 256.88745Q26.034374 257.5437 25.378124 258.27808Q24.721874 259.01245 23.20625 260.2937Q21.940624 261.3562 21.58125 261.74683Q21.221874 262.12183 20.9875 262.49683L26.6125 262.49683ZM28.221874 258.19995Q28.221874 256.1687 28.628124 254.93433Q29.05 253.69995 29.878124 253.02808Q30.70625 252.3562 31.95625 252.3562Q32.878124 252.3562 33.565624 252.7312Q34.26875 253.09058 34.721874 253.7937Q35.175 254.49683 35.425 255.49683Q35.690624 256.49683 35.690624 258.19995Q35.690624 260.21558 35.26875 261.46558Q34.8625 262.69995 34.034374 263.38745Q33.20625 264.05933 31.95625 264.05933Q30.3 264.05933 29.346874 262.8562Q28.221874 261.43433 28.221874 258.19995ZM29.659374 258.19995Q29.659374 261.02808 30.315624 261.96558Q30.9875 262.88745 31.95625 262.88745Q32.925 262.88745 33.58125 261.94995Q34.2375 261.01245 34.2375 258.19995Q34.2375 255.37183 33.58125 254.44995Q32.925 253.51245 31.940624 253.51245Q30.971874 253.51245 30.39375 254.34058Q29.659374 255.38745 29.659374 258.19995ZM38.003124 263.8562L38.003124 262.24683L39.6125 262.24683L39.6125 263.8562L38.003124 263.8562ZM41.221874 258.19995Q41.221874 256.1687 41.628124 254.93433Q42.05 253.69995 42.878124 253.02808Q43.70625 252.3562 44.95625 252.3562Q45.878124 252.3562 46.565624 252.7312Q47.26875 253.09058 47.721874 253.7937Q48.175 254.49683 48.425 255.49683Q48.690624 256.49683 48.690624 258.19995Q48.690624 260.21558 48.26875 261.46558Q47.8625 262.69995 47.034374 263.38745Q46.20625 264.05933 44.95625 264.05933Q43.3 264.05933 42.346874 262.8562Q41.221874 261.43433 41.221874 258.19995ZM42.659374 258.19995Q42.659374 261.02808 43.315624 261.96558Q43.9875 262.88745 44.95625 262.88745Q45.925 262.88745 46.58125 261.94995Q47.2375 261.01245 47.2375 258.19995Q47.2375 255.37183 46.58125 254.44995Q45.925 253.51245 44.940624 253.51245Q43.971874 253.51245 43.39375 254.34058Q42.659374 255.38745 42.659374 258.19995ZM50.4875 255.15308Q50.4875 253.9187 51.096874 253.05933Q51.721874 252.19995 52.89375 252.19995Q53.971874 252.19995 54.675 252.9812Q55.378124 253.74683 55.378124 255.2312Q55.378124 256.68433 54.659374 257.4812Q53.95625 258.26245 52.909374 258.26245Q51.8625 258.26245 51.175 257.49683Q50.4875 256.71558 50.4875 255.15308ZM52.925 253.1687Q52.409374 253.1687 52.05 253.62183Q51.70625 254.07495 51.70625 255.2937Q51.70625 256.38745 52.05 256.84058Q52.409374 257.2937 52.925 257.2937Q53.45625 257.2937 53.8 256.84058Q54.159374 256.38745 54.159374 255.18433Q54.159374 254.07495 53.8 253.62183Q53.45625 253.1687 52.925 253.1687ZM52.940624 264.27808L59.20625 252.19995L60.346874 252.19995L54.096874 264.27808L52.940624 264.27808ZM57.89375 261.1687Q57.89375 259.93433 58.503124 259.07495Q59.128124 258.21558 60.3 258.21558Q61.378124 258.21558 62.08125 258.99683Q62.8 259.76245 62.8 261.24683Q62.8 262.69995 62.08125 263.49683Q61.3625 264.27808 60.315624 264.27808Q59.26875 264.27808 58.58125 263.49683Q57.89375 262.71558 57.89375 261.1687ZM60.346874 259.18433Q59.815624 259.18433 59.45625 259.63745Q59.1125 260.09058 59.1125 261.30933Q59.1125 262.40308 59.45625 262.8562Q59.815624 263.30933 60.33125 263.30933Q60.878124 263.30933 61.221874 262.8562Q61.565624 262.40308 61.565624 261.19995Q61.565624 260.09058 61.20625 259.63745Q60.8625 259.18433 60.346874 259.18433Z" fill-rule="nonzero"/><path stroke="#757575" stroke-width="1.0" stroke-linecap="butt" d="M18.55 247.35619L145.23334 247.35619L165.58876 247.35619" fill-rule="nonzero"/><path fill="#9e9e9e" d="M167.58876 247.35619C167.58876 246.25162 166.69334 245.35619 165.58876 245.35619C164.48419 245.35619 163.58876 246.25162 163.58876 247.35619C163.58876 248.46075 164.48419 249.35619 165.58876 249.35619C166.69334 249.35619 167.58876 248.46075 167.58876 247.35619" fill-rule="nonzero"/><path fill="#efefef" d="M495.85626 237.84056L497.3719 238.21556Q496.90314 240.09056 495.65314 241.07494Q494.41876 242.05931 492.6375 242.05931Q490.77814 242.05931 489.6219 241.30931Q488.46564 240.54369 487.85626 239.12181Q487.2469 237.68431 487.2469 236.04369Q487.2469 234.24681 487.9344 232.91869Q488.6219 231.59056 489.8719 230.90306Q491.1375 230.19994 492.65314 230.19994Q494.3719 230.19994 495.54376 231.07494Q496.71564 231.94994 497.1844 233.54369L495.6844 233.88744Q495.29376 232.63744 494.52814 232.07494Q493.77814 231.49681 492.6219 231.49681Q491.3094 231.49681 490.41876 232.13744Q489.52814 232.76244 489.16876 233.84056Q488.8094 234.90306 488.8094 236.02806Q488.8094 237.49681 489.23126 238.59056Q489.66876 239.66869 490.5594 240.21556Q491.46564 240.74681 492.5125 240.74681Q493.77814 240.74681 494.65314 240.01244Q495.54376 239.27806 495.85626 237.84056ZM504.95 241.85619L504.95 240.63744Q503.98126 242.04369 502.3094 242.04369Q501.575 242.04369 500.9344 241.76244Q500.3094 241.48119 499.9969 241.05931Q499.6844 240.62181 499.5594 240.01244Q499.48126 239.59056 499.48126 238.69994L499.48126 233.55931L500.8875 233.55931L500.8875 238.15306Q500.8875 239.26244 500.96564 239.63744Q501.10626 240.19994 501.52814 240.51244Q501.96564 240.82494 502.59064 240.82494Q503.23126 240.82494 503.77814 240.51244Q504.34064 240.18431 504.5594 239.62181Q504.79376 239.05931 504.79376 237.99681L504.79376 233.55931L506.2 233.55931L506.2 241.85619L504.95 241.85619ZM508.48126 241.85619L508.48126 230.40306L509.8875 230.40306L509.8875 241.85619L508.48126 241.85619ZM515.575 240.59056L515.77814 241.84056Q515.1844 241.96556 514.71564 241.96556Q513.95 241.96556 513.52814 241.73119Q513.10626 241.48119 512.9344 241.09056Q512.7625 240.68431 512.7625 239.41869L512.7625 234.65306L511.73126 234.65306L511.73126 233.55931L512.7625 233.55931L512.7625 231.49681L514.16876 230.65306L514.16876 233.55931L515.575 233.55931L515.575 234.65306L514.16876 234.65306L514.16876 239.49681Q514.16876 240.10619 514.23126 240.27806Q514.3094 240.44994 514.48126 240.55931Q514.65314 240.65306 514.96564 240.65306Q515.2 240.65306 515.575 240.59056ZM521.95 241.85619L521.95 240.63744Q520.98126 242.04369 519.3094 242.04369Q518.575 242.04369 517.9344 241.76244Q517.3094 241.48119 516.9969 241.05931Q516.6844 240.62181 516.5594 240.01244Q516.48126 239.59056 516.48126 238.69994L516.48126 233.55931L517.8875 233.55931L517.8875 238.15306Q517.8875 239.26244 517.96564 239.63744Q518.10626 240.19994 518.52814 240.51244Q518.96564 240.82494 519.59064 240.82494Q520.23126 240.82494 520.77814 240.51244Q521.34064 240.18431 521.5594 239.62181Q521.79376 239.05931 521.79376 237.99681L521.79376 233.55931L523.2 233.55931L523.2 241.85619L521.95 241.85619ZM525.4969 241.85619L525.4969 233.55931L526.7625 233.55931L526.7625 234.80931Q527.2469 233.93431 527.65314 233.65306Q528.0594 233.37181 528.5594 233.37181Q529.2625 233.37181 529.9969 233.82494L529.5125 235.12181Q528.9969 234.82494 528.48126 234.82494Q528.02814 234.82494 527.65314 235.10619Q527.29376 235.37181 527.1375 235.87181Q526.90314 236.62181 526.90314 237.51244L526.90314 241.85619L525.4969 241.85619ZM535.91876 240.82494Q535.1375 241.49681 534.41876 241.77806Q533.7 242.04369 532.8719 242.04369Q531.4969 242.04369 530.7625 241.37181Q530.02814 240.69994 530.02814 239.66869Q530.02814 239.05931 530.3094 238.55931Q530.59064 238.04369 531.02814 237.74681Q531.48126 237.43431 532.04376 237.27806Q532.46564 237.16869 533.29376 237.07494Q534.9969 236.87181 535.8094 236.59056Q535.8094 236.29369 535.8094 236.21556Q535.8094 235.35619 535.41876 235.01244Q534.8719 234.52806 533.8094 234.52806Q532.825 234.52806 532.34064 234.88744Q531.8719 235.23119 531.65314 236.10619L530.27814 235.91869Q530.46564 235.04369 530.8875 234.49681Q531.325 233.94994 532.1375 233.66869Q532.95 233.37181 534.0125 233.37181Q535.075 233.37181 535.73126 233.62181Q536.40314 233.87181 536.71564 234.24681Q537.02814 234.62181 537.15314 235.19994Q537.23126 235.55931 537.23126 236.49681L537.23126 238.37181Q537.23126 240.34056 537.3094 240.85619Q537.40314 241.37181 537.66876 241.85619L536.2 241.85619Q535.98126 241.41869 535.91876 240.82494ZM535.8094 237.68431Q535.04376 237.99681 533.5125 238.21556Q532.6375 238.34056 532.27814 238.49681Q531.91876 238.65306 531.71564 238.96556Q531.52814 239.26244 531.52814 239.62181Q531.52814 240.18431 531.95 240.55931Q532.3875 240.93431 533.2 240.93431Q534.0125 240.93431 534.6375 240.59056Q535.27814 240.23119 535.575 239.60619Q535.8094 239.13744 535.8094 238.19994L535.8094 237.68431ZM539.48126 241.85619L539.48126 230.40306L540.8875 230.40306L540.8875 241.85619L539.48126 241.85619ZM546.41876 241.85619L550.825 230.40306L552.46564 230.40306L557.15314 241.85619L555.41876 241.85619L554.09064 238.38744L549.29376 238.38744L548.04376 241.85619L546.41876 241.85619ZM549.73126 237.15306L553.6219 237.15306L552.41876 233.98119Q551.8719 232.52806 551.60626 231.60619Q551.3875 232.69994 550.9969 233.79369L549.73126 237.15306ZM563.91876 238.80931L565.3094 238.99681Q565.075 240.41869 564.1375 241.23119Q563.21564 242.04369 561.85626 242.04369Q560.15314 242.04369 559.10626 240.93431Q558.075 239.80931 558.075 237.73119Q558.075 236.38744 558.5125 235.38744Q558.96564 234.37181 559.8719 233.87181Q560.79376 233.37181 561.85626 233.37181Q563.21564 233.37181 564.075 234.05931Q564.9344 234.73119 565.16876 235.99681L563.8094 236.19994Q563.60626 235.37181 563.10626 234.94994Q562.6219 234.52806 561.91876 234.52806Q560.85626 234.52806 560.1844 235.29369Q559.52814 236.04369 559.52814 237.69994Q559.52814 239.37181 560.16876 240.13744Q560.8094 240.88744 561.84064 240.88744Q562.66876 240.88744 563.21564 240.38744Q563.77814 239.87181 563.91876 238.80931ZM569.575 240.59056L569.77814 241.84056Q569.1844 241.96556 568.71564 241.96556Q567.95 241.96556 567.52814 241.73119Q567.10626 241.48119 566.9344 241.09056Q566.7625 240.68431 566.7625 239.41869L566.7625 234.65306L565.73126 234.65306L565.73126 233.55931L566.7625 233.55931L566.7625 231.49681L568.16876 230.65306L568.16876 233.55931L569.575 233.55931L569.575 234.65306L568.16876 234.65306L568.16876 239.49681Q568.16876 240.10619 568.23126 240.27806Q568.3094 240.44994 568.48126 240.55931Q568.65314 240.65306 568.96564 240.65306Q569.2 240.65306 569.575 240.59056ZM569.95 239.37181L571.34064 239.15306Q571.45 239.99681 571.98126 240.44994Q572.52814 240.88744 573.48126 240.88744Q574.45 240.88744 574.91876 240.49681Q575.3875 240.09056 575.3875 239.55931Q575.3875 239.09056 574.98126 238.80931Q574.6844 238.62181 573.54376 238.34056Q571.9969 237.94994 571.3875 237.66869Q570.79376 237.37181 570.48126 236.87181Q570.1844 236.37181 570.1844 235.76244Q570.1844 235.19994 570.4344 234.73119Q570.6844 234.26244 571.1219 233.94994Q571.45 233.69994 572.0125 233.54369Q572.59064 233.37181 573.23126 233.37181Q574.21564 233.37181 574.95 233.65306Q575.6844 233.93431 576.02814 234.41869Q576.3875 234.88744 576.52814 235.69994L575.15314 235.88744Q575.0594 235.24681 574.60626 234.88744Q574.15314 234.52806 573.34064 234.52806Q572.3719 234.52806 571.95 234.85619Q571.54376 235.16869 571.54376 235.59056Q571.54376 235.87181 571.71564 236.09056Q571.8875 236.30931 572.2469 236.46556Q572.46564 236.54369 573.4969 236.82494Q574.98126 237.21556 575.575 237.48119Q576.16876 237.73119 576.4969 238.21556Q576.84064 238.69994 576.84064 239.41869Q576.84064 240.12181 576.41876 240.74681Q576.0125 241.35619 575.23126 241.69994Q574.46564 242.04369 573.4969 242.04369Q571.8719 242.04369 571.02814 241.37181Q570.1844 240.69994 569.95 239.37181ZM578.90314 241.85619L578.90314 240.24681L580.5125 240.24681L580.5125 241.85619L578.90314 241.85619Z" fill-rule="nonzero"/><path fill="#9e9e9e" d="M544.41876 255.19995L543.0125 255.30933Q542.825 254.4812 542.48126 254.1062Q541.91876 253.51245 541.075 253.51245Q540.40314 253.51245 539.90314 253.88745Q539.23126 254.37183 538.84064 255.30933Q538.46564 256.2312 538.45 257.94995Q538.96564 257.1687 539.7 256.7937Q540.4344 256.4187 541.23126 256.4187Q542.6375 256.4187 543.6219 257.46558Q544.6219 258.49683 544.6219 260.13745Q544.6219 261.21558 544.15314 262.13745Q543.6844 263.05933 542.8719 263.55933Q542.0594 264.05933 541.02814 264.05933Q539.27814 264.05933 538.16876 262.76245Q537.0594 261.46558 537.0594 258.49683Q537.0594 255.1687 538.27814 253.6687Q539.35626 252.3562 541.16876 252.3562Q542.5125 252.3562 543.3719 253.12183Q544.2469 253.87183 544.41876 255.19995ZM538.66876 260.13745Q538.66876 260.87183 538.98126 261.5437Q539.29376 262.19995 539.84064 262.5437Q540.40314 262.88745 541.0125 262.88745Q541.90314 262.88745 542.54376 262.1687Q543.1844 261.44995 543.1844 260.21558Q543.1844 259.02808 542.54376 258.3562Q541.91876 257.6687 540.95 257.6687Q539.9969 257.6687 539.325 258.3562Q538.66876 259.02808 538.66876 260.13745ZM546.1219 258.19995Q546.1219 256.1687 546.52814 254.93433Q546.95 253.69995 547.77814 253.02808Q548.60626 252.3562 549.85626 252.3562Q550.77814 252.3562 551.46564 252.7312Q552.16876 253.09058 552.6219 253.7937Q553.075 254.49683 553.325 255.49683Q553.59064 256.49683 553.59064 258.19995Q553.59064 260.21558 553.16876 261.46558Q552.7625 262.69995 551.9344 263.38745Q551.10626 264.05933 549.85626 264.05933Q548.2 264.05933 547.2469 262.8562Q546.1219 261.43433 546.1219 258.19995ZM547.5594 258.19995Q547.5594 261.02808 548.21564 261.96558Q548.8875 262.88745 549.85626 262.88745Q550.825 262.88745 551.48126 261.94995Q552.1375 261.01245 552.1375 258.19995Q552.1375 255.37183 551.48126 254.44995Q550.825 253.51245 549.84064 253.51245Q548.8719 253.51245 548.29376 254.34058Q547.5594 255.38745 547.5594 258.19995ZM555.90314 263.8562L555.90314 262.24683L557.5125 262.24683L557.5125 263.8562L555.90314 263.8562ZM559.1219 258.19995Q559.1219 256.1687 559.52814 254.93433Q559.95 253.69995 560.77814 253.02808Q561.60626 252.3562 562.85626 252.3562Q563.77814 252.3562 564.46564 252.7312Q565.16876 253.09058 565.6219 253.7937Q566.075 254.49683 566.325 255.49683Q566.59064 256.49683 566.59064 258.19995Q566.59064 260.21558 566.16876 261.46558Q565.7625 262.69995 564.9344 263.38745Q564.10626 264.05933 562.85626 264.05933Q561.2 264.05933 560.2469 262.8562Q559.1219 261.43433 559.1219 258.19995ZM560.5594 258.19995Q560.5594 261.02808 561.21564 261.96558Q561.8875 262.88745 562.85626 262.88745Q563.825 262.88745 564.48126 261.94995Q565.1375 261.01245 565.1375 258.19995Q565.1375 255.37183 564.48126 254.44995Q563.825 253.51245 562.84064 253.51245Q561.8719 253.51245 561.29376 254.34058Q560.5594 255.38745 560.5594 258.19995ZM568.3875 255.15308Q568.3875 253.9187 568.9969 253.05933Q569.6219 252.19995 570.79376 252.19995Q571.8719 252.19995 572.575 252.9812Q573.27814 253.74683 573.27814 255.2312Q573.27814 256.68433 572.5594 257.4812Q571.85626 258.26245 570.8094 258.26245Q569.7625 258.26245 569.075 257.49683Q568.3875 256.71558 568.3875 255.15308ZM570.825 253.1687Q570.3094 253.1687 569.95 253.62183Q569.60626 254.07495 569.60626 255.2937Q569.60626 256.38745 569.95 256.84058Q570.3094 257.2937 570.825 257.2937Q571.35626 257.2937 571.7 256.84058Q572.0594 256.38745 572.0594 255.18433Q572.0594 254.07495 571.7 253.62183Q571.35626 253.1687 570.825 253.1687ZM570.84064 264.27808L577.10626 252.19995L578.2469 252.19995L571.9969 264.27808L570.84064 264.27808ZM575.79376 261.1687Q575.79376 259.93433 576.40314 259.07495Q577.02814 258.21558 578.2 258.21558Q579.27814 258.21558 579.98126 258.99683Q580.7 259.76245 580.7 261.24683Q580.7 262.69995 579.98126 263.49683Q579.2625 264.27808 578.21564 264.27808Q577.16876 264.27808 576.48126 263.49683Q575.79376 262.71558 575.79376 261.1687ZM578.2469 259.18433Q577.71564 259.18433 577.35626 259.63745Q577.0125 260.09058 577.0125 261.30933Q577.0125 262.40308 577.35626 262.8562Q577.71564 263.30933 578.23126 263.30933Q578.77814 263.30933 579.1219 262.8562Q579.46564 262.40308 579.46564 261.19995Q579.46564 260.09058 579.10626 259.63745Q578.7625 259.18433 578.2469 259.18433Z" fill-rule="nonzero"/><path stroke="#757575" stroke-width="1.0" stroke-linecap="butt" d="M581.45 247.35619L454.76666 247.35619L434.41122 247.35619" fill-rule="nonzero"/><path fill="#9e9e9e" d="M436.41122 247.35619C436.41122 246.25162 435.5158 245.35619 434.41122 245.35619C433.30667 245.35619 432.41122 246.25162 432.41122 247.35619C432.41122 248.46075 433.30667 249.35619 434.41122 249.35619C435.5158 249.35619 436.41122 248.46075 436.41122 247.35619" fill-rule="nonzero"/><path fill="#f3f3f3" d="M271.26562 32.534374L273.15625 33.003124Q272.5625 35.346874 271.01562 36.58125Q269.46875 37.8 267.21875 37.8Q264.90625 37.8 263.45312 36.8625Q262.01562 35.909374 261.25 34.128124Q260.5 32.33125 260.5 30.284374Q260.5 28.05 261.34375 26.39375Q262.20312 24.721874 263.78125 23.8625Q265.35938 22.9875 267.25 22.9875Q269.40625 22.9875 270.85938 24.08125Q272.32812 25.175 272.90625 27.159374L271.04688 27.596874Q270.54688 26.034374 269.59375 25.33125Q268.65625 24.6125 267.21875 24.6125Q265.5625 24.6125 264.45312 25.409374Q263.34375 26.190624 262.89062 27.534374Q262.45312 28.8625 262.45312 30.26875Q262.45312 32.096874 262.98438 33.471874Q263.51562 34.83125 264.64062 35.503124Q265.76562 36.175 267.0625 36.175Q268.65625 36.175 269.76562 35.253124Q270.875 34.33125 271.26562 32.534374ZM281.59375 36.26875Q280.60938 37.096874 279.70312 37.440624Q278.79688 37.784374 277.76562 37.784374Q276.0625 37.784374 275.14062 36.95625Q274.21875 36.1125 274.21875 34.815624Q274.21875 34.05 274.5625 33.425Q274.92188 32.8 275.48438 32.425Q276.04688 32.034374 276.75 31.83125Q277.26562 31.70625 278.3125 31.565624Q280.4375 31.315624 281.4375 30.971874Q281.45312 30.6125 281.45312 30.503124Q281.45312 29.440624 280.95312 28.9875Q280.28125 28.39375 278.95312 28.39375Q277.70312 28.39375 277.10938 28.83125Q276.53125 29.26875 276.25 30.378124L274.53125 30.14375Q274.76562 29.034374 275.29688 28.3625Q275.82812 27.675 276.84375 27.315624Q277.85938 26.940624 279.20312 26.940624Q280.53125 26.940624 281.35938 27.253124Q282.1875 27.565624 282.57812 28.05Q282.96875 28.51875 283.125 29.2375Q283.21875 29.690624 283.21875 30.8625L283.21875 33.20625Q283.21875 35.659374 283.32812 36.315624Q283.4375 36.95625 283.78125 37.55L281.9375 37.55Q281.67188 37.003124 281.59375 36.26875ZM281.4375 32.346874Q280.48438 32.7375 278.5625 33.003124Q277.48438 33.159374 277.03125 33.3625Q276.59375 33.55 276.34375 33.925Q276.09375 34.3 276.09375 34.76875Q276.09375 35.471874 276.625 35.940624Q277.15625 36.409374 278.1875 36.409374Q279.20312 36.409374 279.98438 35.971874Q280.78125 35.51875 281.15625 34.753124Q281.4375 34.14375 281.4375 32.9875L281.4375 32.346874ZM289.65625 35.971874L289.90625 37.534374Q289.17188 37.690624 288.57812 37.690624Q287.625 37.690624 287.09375 37.39375Q286.57812 37.08125 286.35938 36.596874Q286.14062 36.096874 286.14062 34.51875L286.14062 28.55L284.85938 28.55L284.85938 27.175L286.14062 27.175L286.14062 24.6125L287.89062 23.55L287.89062 27.175L289.65625 27.175L289.65625 28.55L287.89062 28.55L287.89062 34.6125Q287.89062 35.3625 287.98438 35.58125Q288.07812 35.784374 288.28125 35.925Q288.5 36.05 288.89062 36.05Q289.17188 36.05 289.65625 35.971874ZM298.92188 34.20625L300.73438 34.440624Q300.3125 36.01875 299.14062 36.909374Q297.98438 37.784374 296.17188 37.784374Q293.90625 37.784374 292.5625 36.39375Q291.23438 34.9875 291.23438 32.45625Q291.23438 29.83125 292.57812 28.39375Q293.92188 26.940624 296.07812 26.940624Q298.15625 26.940624 299.46875 28.3625Q300.79688 29.76875 300.79688 32.346874Q300.79688 32.503124 300.78125 32.815624L293.04688 32.815624Q293.14062 34.51875 294.01562 35.425Q294.89062 36.33125 296.1875 36.33125Q297.15625 36.33125 297.82812 35.83125Q298.51562 35.315624 298.92188 34.20625ZM293.14062 31.3625L298.9375 31.3625Q298.82812 30.065624 298.28125 29.409374Q297.4375 28.39375 296.09375 28.39375Q294.89062 28.39375 294.0625 29.20625Q293.23438 30.003124 293.14062 31.3625ZM302.5 38.409374L304.20312 38.659374Q304.3125 39.45625 304.79688 39.815624Q305.45312 40.3 306.59375 40.3Q307.8125 40.3 308.46875 39.815624Q309.14062 39.33125 309.375 38.45625Q309.51562 37.909374 309.5 36.190624Q308.34375 37.55 306.625 37.55Q304.48438 37.55 303.3125 36.003124Q302.14062 34.45625 302.14062 32.3Q302.14062 30.815624 302.67188 29.565624Q303.21875 28.315624 304.23438 27.628124Q305.26562 26.940624 306.64062 26.940624Q308.46875 26.940624 309.67188 28.425L309.67188 27.175L311.28125 27.175L311.28125 36.14375Q311.28125 38.565624 310.78125 39.565624Q310.29688 40.58125 309.21875 41.159374Q308.15625 41.753124 306.59375 41.753124Q304.75 41.753124 303.59375 40.925Q302.45312 40.096874 302.5 38.409374ZM303.95312 32.175Q303.95312 34.221874 304.76562 35.159374Q305.57812 36.096874 306.79688 36.096874Q308.0 36.096874 308.8125 35.159374Q309.64062 34.221874 309.64062 32.2375Q309.64062 30.33125 308.79688 29.3625Q307.95312 28.39375 306.76562 28.39375Q305.59375 28.39375 304.76562 29.346874Q303.95312 30.3 303.95312 32.175ZM313.17188 32.3625Q313.17188 29.4875 314.76562 28.096874Q316.10938 26.940624 318.03125 26.940624Q320.17188 26.940624 321.51562 28.346874Q322.875 29.753124 322.875 32.221874Q322.875 34.221874 322.28125 35.378124Q321.6875 36.51875 320.53125 37.159374Q319.39062 37.784374 318.03125 37.784374Q315.84375 37.784374 314.5 36.39375Q313.17188 34.9875 313.17188 32.3625ZM314.96875 32.3625Q314.96875 34.3625 315.82812 35.346874Q316.70312 36.33125 318.03125 36.33125Q319.34375 36.33125 320.20312 35.346874Q321.07812 34.346874 321.07812 32.3Q321.07812 30.378124 320.20312 29.39375Q319.32812 28.39375 318.03125 28.39375Q316.70312 28.39375 315.82812 29.39375Q314.96875 30.378124 314.96875 32.3625ZM324.79688 37.55L324.79688 27.175L326.375 27.175L326.375 28.753124Q326.98438 27.64375 327.5 27.3Q328.01562 26.940624 328.625 26.940624Q329.51562 26.940624 330.4375 27.503124L329.82812 29.14375Q329.1875 28.753124 328.54688 28.753124Q327.96875 28.753124 327.5 29.1125Q327.04688 29.45625 326.84375 30.065624Q326.5625 31.003124 326.5625 32.1125L326.5625 37.55L324.79688 37.55ZM331.73438 41.55L331.54688 39.89375Q332.125 40.05 332.54688 40.05Q333.14062 40.05 333.48438 39.846874Q333.84375 39.659374 334.0625 39.315624Q334.23438 39.05 334.60938 38.003124Q334.65625 37.846874 334.76562 37.565624L330.82812 27.175L332.71875 27.175L334.875 33.190624Q335.29688 34.33125 335.625 35.58125Q335.9375 34.378124 336.34375 33.221874L338.5625 27.175L340.32812 27.175L336.375 37.721874Q335.75 39.440624 335.39062 40.08125Q334.92188 40.95625 334.3125 41.346874Q333.71875 41.753124 332.875 41.753124Q332.35938 41.753124 331.73438 41.55Z" fill-rule="nonzero"/></svg>