<svg version="1.1" viewBox="0.0 0.0 600.0 371.0" fill="none" stroke="none" stroke-linecap="square" stroke-miterlimit="10" width="600" height="371" xmlns:xlink="http://www.w3.org/1999/xlink" xmlns="http://www.w3.org/2000/svg"><path fill="#ffffff" fill-opacity="0.0" d="M0 0L600.0 0L600.0 371.0L0 371.0L0 0Z" fill-rule="nonzero"/><path fill="#e5a345" d="M151.23334 203.68333C151.23334 121.521774 217.83844 54.916668 300.0 54.916668L300.0 166.49167C279.4596 166.49167 262.80832 183.14294 262.80832 203.68333Z" fill-rule="nonzero"/><path fill="#cf4366" d="M300.0 54.916668C382.16156 54.916668 448.76666 121.521774 448.76666 203.68333C448.76666 285.8449 382.16156 352.45 300.0 352.45C217.83844 352.45 151.23334 285.8449 151.23334 203.68333L262.80832 203.68333C262.80832 224.22372 279.4596 240.875 300.0 240.875C320.5404 240.875 337.19168 224.22372 337.19168 203.68333C337.19168 183.14294 320.5404 166.49167 300.0 166.49167Z" fill-rule="nonzero"/><path fill="#ffffff" d="M347.40894 271.02975L347.40894 269.51413L355.73706 269.51413L355.73706 270.7485Q354.5183 272.061 353.29956 274.23288Q352.09644 276.38913 351.4402 278.686Q350.9558 280.311 350.8308 282.23288L349.2058 282.23288Q349.23706 280.71725 349.79956 278.561Q350.3777 276.40475 351.4402 274.40475Q352.5027 272.40475 353.7058 271.02975L347.40894 271.02975ZM357.29956 278.85788L358.9558 278.71725Q359.1433 279.936 359.8152 280.54538Q360.48706 281.15475 361.4402 281.15475Q362.5808 281.15475 363.36206 280.29538Q364.15894 279.436 364.15894 277.9985Q364.15894 276.65475 363.3933 275.8735Q362.6433 275.09225 361.40894 275.09225Q360.6433 275.09225 360.0183 275.436Q359.40894 275.77975 359.0652 276.34225L357.5808 276.13913L358.8308 269.52975L365.23706 269.52975L365.23706 271.02975L360.09644 271.02975L359.3933 274.4985Q360.5652 273.686 361.8308 273.686Q363.5183 273.686 364.67456 274.85788Q365.84644 276.02975 365.84644 277.85788Q365.84644 279.60788 364.8152 280.88913Q363.5808 282.45163 361.4402 282.45163Q359.67456 282.45163 358.5652 281.46725Q357.4558 280.48288 357.29956 278.85788ZM368.1902 282.23288L368.1902 280.436L369.98706 280.436L369.98706 282.23288L368.1902 282.23288ZM372.29956 275.8735Q372.29956 273.59225 372.7683 272.20163Q373.23706 270.811 374.15894 270.061Q375.09644 269.29538 376.5027 269.29538Q377.53394 269.29538 378.3152 269.71725Q379.09644 270.1235 379.59644 270.92038Q380.11206 271.70163 380.40894 272.84225Q380.7058 273.96725 380.7058 275.8735Q380.7058 278.13913 380.23706 279.54538Q379.7683 280.936 378.8308 281.70163Q377.90894 282.45163 376.5027 282.45163Q374.6277 282.45163 373.5652 281.1235Q372.29956 279.51413 372.29956 275.8735ZM373.92456 275.8735Q373.92456 279.04538 374.65894 280.10788Q375.40894 281.15475 376.5027 281.15475Q377.5808 281.15475 378.3308 280.10788Q379.0808 279.04538 379.0808 275.8735Q379.0808 272.70163 378.3308 271.65475Q377.5808 270.60788 376.48706 270.60788Q375.3933 270.60788 374.73706 271.52975Q373.92456 272.70163 373.92456 275.8735ZM382.59644 272.436Q382.59644 271.061 383.28394 270.09225Q383.98706 269.1235 385.29956 269.1235Q386.5183 269.1235 387.3152 269.9985Q388.11206 270.85788 388.11206 272.54538Q388.11206 274.17038 387.29956 275.061Q386.5027 275.936 385.3152 275.936Q384.15894 275.936 383.3777 275.07663Q382.59644 274.20163 382.59644 272.436ZM385.34644 270.21725Q384.7527 270.21725 384.36206 270.73288Q383.97144 271.23288 383.97144 272.59225Q383.97144 273.84225 384.36206 274.34225Q384.7683 274.84225 385.34644 274.84225Q385.9402 274.84225 386.3308 274.34225Q386.72144 273.82663 386.72144 272.48288Q386.72144 271.23288 386.3308 270.73288Q385.9402 270.21725 385.34644 270.21725ZM385.36206 282.70163L392.40894 269.1235L393.6902 269.1235L386.65894 282.70163L385.36206 282.70163ZM390.92456 279.20163Q390.92456 277.82663 391.61206 276.85788Q392.3152 275.88913 393.6433 275.88913Q394.86206 275.88913 395.6433 276.76413Q396.4402 277.6235 396.4402 279.311Q396.4402 280.936 395.6433 281.82663Q394.84644 282.70163 393.65894 282.70163Q392.48706 282.70163 391.7058 281.82663Q390.92456 280.95163 390.92456 279.20163ZM393.6902 276.98288Q393.09644 276.98288 392.7058 277.4985Q392.3152 277.9985 392.3152 279.3735Q392.3152 280.59225 392.7058 281.10788Q393.09644 281.6235 393.67456 281.6235Q394.28394 281.6235 394.67456 281.10788Q395.0652 280.59225 395.0652 279.2485Q395.0652 277.9985 394.67456 277.4985Q394.28394 276.98288 393.6902 276.98288Z" fill-rule="nonzero"/><path fill="#ffffff" d="M211.51295 136.61816L211.51295 138.13379L202.99733 138.13379Q202.9817 137.55566 203.18483 137.04004Q203.51295 136.16504 204.21608 135.32129Q204.93483 134.47754 206.2942 133.36816Q208.38795 131.64941 209.12233 130.64941Q209.87233 129.63379 209.87233 128.74316Q209.87233 127.79004 209.20045 127.149414Q208.52858 126.50879 207.45045 126.50879Q206.2942 126.50879 205.6067 127.19629Q204.93483 127.88379 204.9192 129.08691L203.2942 128.91504Q203.46608 127.10254 204.5442 126.149414Q205.63795 125.19629 207.4817 125.19629Q209.32545 125.19629 210.40358 126.22754Q211.49733 127.25879 211.49733 128.77441Q211.49733 129.54004 211.1692 130.29004Q210.8567 131.04004 210.12233 131.86816Q209.38795 132.69629 207.68483 134.13379Q206.26295 135.33691 205.8567 135.75879Q205.45045 136.18066 205.20045 136.61816L211.51295 136.61816ZM213.20045 134.75879L214.8567 134.61816Q215.0442 135.83691 215.71608 136.44629Q216.38795 137.05566 217.34108 137.05566Q218.4817 137.05566 219.26295 136.19629Q220.05983 135.33691 220.05983 133.89941Q220.05983 132.55566 219.2942 131.77441Q218.5442 130.99316 217.30983 130.99316Q216.5442 130.99316 215.9192 131.33691Q215.30983 131.68066 214.96608 132.24316L213.4817 132.04004L214.7317 125.430664L221.13795 125.430664L221.13795 126.930664L215.99733 126.930664L215.2942 130.39941Q216.46608 129.58691 217.7317 129.58691Q219.4192 129.58691 220.57545 130.75879Q221.74733 131.93066 221.74733 133.75879Q221.74733 135.50879 220.71608 136.79004Q219.4817 138.35254 217.34108 138.35254Q215.57545 138.35254 214.46608 137.36816Q213.3567 136.38379 213.20045 134.75879ZM224.09108 138.13379L224.09108 136.33691L225.88795 136.33691L225.88795 138.13379L224.09108 138.13379ZM228.20045 131.77441Q228.20045 129.49316 228.6692 128.10254Q229.13795 126.711914 230.05983 125.961914Q230.99733 125.19629 232.40358 125.19629Q233.43483 125.19629 234.21608 125.618164Q234.99733 126.024414 235.49733 126.82129Q236.01295 127.60254 236.30983 128.74316Q236.6067 129.86816 236.6067 131.77441Q236.6067 134.04004 236.13795 135.44629Q235.6692 136.83691 234.7317 137.60254Q233.80983 138.35254 232.40358 138.35254Q230.52858 138.35254 229.46608 137.02441Q228.20045 135.41504 228.20045 131.77441ZM229.82545 131.77441Q229.82545 134.94629 230.55983 136.00879Q231.30983 137.05566 232.40358 137.05566Q233.4817 137.05566 234.2317 136.00879Q234.9817 134.94629 234.9817 131.77441Q234.9817 128.60254 234.2317 127.555664Q233.4817 126.50879 232.38795 126.50879Q231.2942 126.50879 230.63795 127.430664Q229.82545 128.60254 229.82545 131.77441ZM238.49733 128.33691Q238.49733 126.961914 239.18483 125.993164Q239.88795 125.024414 241.20045 125.024414Q242.4192 125.024414 243.21608 125.899414Q244.01295 126.75879 244.01295 128.44629Q244.01295 130.07129 243.20045 130.96191Q242.40358 131.83691 241.21608 131.83691Q240.05983 131.83691 239.27858 130.97754Q238.49733 130.10254 238.49733 128.33691ZM241.24733 126.118164Q240.65358 126.118164 240.26295 126.63379Q239.87233 127.13379 239.87233 128.49316Q239.87233 129.74316 240.26295 130.24316Q240.6692 130.74316 241.24733 130.74316Q241.84108 130.74316 242.2317 130.24316Q242.62233 129.72754 242.62233 128.38379Q242.62233 127.13379 242.2317 126.63379Q241.84108 126.118164 241.24733 126.118164ZM241.26295 138.60254L248.30983 125.024414L249.59108 125.024414L242.55983 138.60254L241.26295 138.60254ZM246.82545 135.10254Q246.82545 133.72754 247.51295 132.75879Q248.21608 131.79004 249.5442 131.79004Q250.76295 131.79004 251.5442 132.66504Q252.34108 133.52441 252.34108 135.21191Q252.34108 136.83691 251.5442 137.72754Q250.74733 138.60254 249.55983 138.60254Q248.38795 138.60254 247.6067 137.72754Q246.82545 136.85254 246.82545 135.10254ZM249.59108 132.88379Q248.99733 132.88379 248.6067 133.39941Q248.21608 133.89941 248.21608 135.27441Q248.21608 136.49316 248.6067 137.00879Q248.99733 137.52441 249.57545 137.52441Q250.18483 137.52441 250.57545 137.00879Q250.96608 136.49316 250.96608 135.14941Q250.96608 133.89941 250.57545 133.39941Q250.18483 132.88379 249.59108 132.88379Z" fill-rule="nonzero"/><path stroke="#ffffff" stroke-width="1.0" stroke-linejoin="round" stroke-linecap="round" d="M262.80832 203.68333C262.80832 224.22372 279.4596 240.875 300.0 240.875C320.5404 240.875 337.19168 224.22372 337.19168 203.68333C337.19168 183.14294 320.5404 166.49167 300.0 166.49167L300.0 54.916668C382.16156 54.916668 448.76666 121.521774 448.76666 203.68333C448.76666 285.8449 382.16156 352.45 300.0 352.45C217.83844 352.45 151.23334 285.8449 151.23334 203.68333" fill-rule="nonzero"/><path stroke="#ffffff" stroke-width="1.0" stroke-linejoin="round" stroke-linecap="round" d="M300.0 166.49167C279.4596 166.49167 262.80832 183.14294 262.80832 203.68333L151.23334 203.68333C151.23334 121.521774 217.83844 54.916668 300.0 54.916668" fill-rule="nonzero"/><path fill="#efefef" d="M27.3 86.79598L28.815624 86.79598L28.815624 93.40536Q28.815624 95.13973 28.425 96.15536Q28.034374 97.17098 27.01875 97.81161Q26.003124 98.45223 24.346874 98.45223Q22.7375 98.45223 21.70625 97.88973Q20.690624 97.32723 20.253124 96.28036Q19.815624 95.23348 19.815624 93.40536L19.815624 86.79598L21.33125 86.79598L21.33125 93.40536Q21.33125 94.88973 21.596874 95.60848Q21.878124 96.31161 22.55 96.70223Q23.2375 97.07723 24.20625 97.07723Q25.878124 97.07723 26.58125 96.32723Q27.3 95.56161 27.3 93.40536L27.3 86.79598ZM31.596874 98.24911L31.596874 89.95223L32.8625 89.95223L32.8625 91.20223Q33.346874 90.32723 33.753124 90.04598Q34.159374 89.76473 34.659374 89.76473Q35.3625 89.76473 36.096874 90.21786L35.6125 91.51473Q35.096874 91.21786 34.58125 91.21786Q34.128124 91.21786 33.753124 91.49911Q33.39375 91.76473 33.2375 92.26473Q33.003124 93.01473 33.003124 93.90536L33.003124 98.24911L31.596874 98.24911ZM37.909374 98.24911L36.596874 98.24911L36.596874 86.79598L38.003124 86.79598L38.003124 90.87411Q38.89375 89.76473 40.284374 89.76473Q41.05 89.76473 41.721874 90.07723Q42.409374 90.37411 42.846874 90.93661Q43.3 91.49911 43.55 92.29598Q43.8 93.07723 43.8 93.96786Q43.8 96.10848 42.7375 97.28036Q41.690624 98.43661 40.20625 98.43661Q38.7375 98.43661 37.909374 97.20223L37.909374 98.24911ZM37.89375 94.03036Q37.89375 95.53036 38.3 96.18661Q38.95625 97.28036 40.096874 97.28036Q41.01875 97.28036 41.690624 96.48348Q42.3625 95.67098 42.3625 94.09286Q42.3625 92.46786 41.70625 91.70223Q41.065624 90.92098 40.159374 90.92098Q39.2375 90.92098 38.565624 91.71786Q37.89375 92.51473 37.89375 94.03036ZM51.01875 97.21786Q50.2375 97.88973 49.51875 98.17098Q48.8 98.43661 47.971874 98.43661Q46.596874 98.43661 45.8625 97.76473Q45.128124 97.09286 45.128124 96.06161Q45.128124 95.45223 45.409374 94.95223Q45.690624 94.43661 46.128124 94.13973Q46.58125 93.82723 47.14375 93.67098Q47.565624 93.56161 48.39375 93.46786Q50.096874 93.26473 50.909374 92.98348Q50.909374 92.68661 50.909374 92.60848Q50.909374 91.74911 50.51875 91.40536Q49.971874 90.92098 48.909374 90.92098Q47.925 90.92098 47.440624 91.28036Q46.971874 91.62411 46.753124 92.49911L45.378124 92.31161Q45.565624 91.43661 45.9875 90.88973Q46.425 90.34286 47.2375 90.06161Q48.05 89.76473 49.1125 89.76473Q50.175 89.76473 50.83125 90.01473Q51.503124 90.26473 51.815624 90.63973Q52.128124 91.01473 52.253124 91.59286Q52.33125 91.95223 52.33125 92.88973L52.33125 94.76473Q52.33125 96.73348 52.409374 97.24911Q52.503124 97.76473 52.76875 98.24911L51.3 98.24911Q51.08125 97.81161 51.01875 97.21786ZM50.909374 94.07723Q50.14375 94.38973 48.6125 94.60848Q47.7375 94.73348 47.378124 94.88973Q47.01875 95.04598 46.815624 95.35848Q46.628124 95.65536 46.628124 96.01473Q46.628124 96.57723 47.05 96.95223Q47.4875 97.32723 48.3 97.32723Q49.1125 97.32723 49.7375 96.98348Q50.378124 96.62411 50.675 95.99911Q50.909374 95.53036 50.909374 94.59286L50.909374 94.07723ZM54.6125 98.24911L54.6125 89.95223L55.878124 89.95223L55.878124 91.12411Q56.784374 89.76473 58.51875 89.76473Q59.26875 89.76473 59.89375 90.03036Q60.51875 90.29598 60.83125 90.73348Q61.14375 91.17098 61.26875 91.78036Q61.346874 92.17098 61.346874 93.13973L61.346874 98.24911L59.940624 98.24911L59.940624 93.20223Q59.940624 92.34286 59.76875 91.92098Q59.6125 91.48348 59.190624 91.23348Q58.784374 90.98348 58.221874 90.98348Q57.315624 90.98348 56.659374 91.56161Q56.01875 92.12411 56.01875 93.71786L56.01875 98.24911L54.6125 98.24911ZM63.05 95.76473L64.44063 95.54598Q64.55 96.38973 65.08125 96.84286Q65.62813 97.28036 66.58125 97.28036Q67.55 97.28036 68.01875 96.88973Q68.4875 96.48348 68.4875 95.95223Q68.4875 95.48348 68.08125 95.20223Q67.78438 95.01473 66.64375 94.73348Q65.09688 94.34286 64.4875 94.06161Q63.89375 93.76473 63.58125 93.26473Q63.284374 92.76473 63.284374 92.15536Q63.284374 91.59286 63.534374 91.12411Q63.784374 90.65536 64.22188 90.34286Q64.55 90.09286 65.1125 89.93661Q65.69063 89.76473 66.33125 89.76473Q67.31563 89.76473 68.05 90.04598Q68.78438 90.32723 69.12813 90.81161Q69.4875 91.28036 69.62813 92.09286L68.25313 92.28036Q68.15938 91.63973 67.70625 91.28036Q67.25313 90.92098 66.44063 90.92098Q65.47188 90.92098 65.05 91.24911Q64.64375 91.56161 64.64375 91.98348Q64.64375 92.26473 64.81563 92.48348Q64.9875 92.70223 65.34688 92.85848Q65.56563 92.93661 66.59688 93.21786Q68.08125 93.60848 68.675 93.87411Q69.26875 94.12411 69.59688 94.60848Q69.94063 95.09286 69.94063 95.81161Q69.94063 96.51473 69.51875 97.13973Q69.1125 97.74911 68.33125 98.09286Q67.56563 98.43661 66.59688 98.43661Q64.97188 98.43661 64.12813 97.76473Q63.284374 97.09286 63.05 95.76473ZM77.01875 95.20223L78.40938 95.38973Q78.175 96.81161 77.2375 97.62411Q76.31563 98.43661 74.95625 98.43661Q73.25313 98.43661 72.20625 97.32723Q71.175 96.20223 71.175 94.12411Q71.175 92.78036 71.6125 91.78036Q72.06563 90.76473 72.97188 90.26473Q73.89375 89.76473 74.95625 89.76473Q76.31563 89.76473 77.175 90.45223Q78.03438 91.12411 78.26875 92.38973L76.90938 92.59286Q76.70625 91.76473 76.20625 91.34286Q75.72188 90.92098 75.01875 90.92098Q73.95625 90.92098 73.28438 91.68661Q72.62813 92.43661 72.62813 94.09286Q72.62813 95.76473 73.26875 96.53036Q73.90938 97.28036 74.94063 97.28036Q75.76875 97.28036 76.31563 96.78036Q76.87813 96.26473 77.01875 95.20223ZM85.01875 97.21786Q84.2375 97.88973 83.51875 98.17098Q82.8 98.43661 81.97188 98.43661Q80.59688 98.43661 79.8625 97.76473Q79.12813 97.09286 79.12813 96.06161Q79.12813 95.45223 79.40938 94.95223Q79.69063 94.43661 80.12813 94.13973Q80.58125 93.82723 81.14375 93.67098Q81.56563 93.56161 82.39375 93.46786Q84.09688 93.26473 84.90938 92.98348Q84.90938 92.68661 84.90938 92.60848Q84.90938 91.74911 84.51875 91.40536Q83.97188 90.92098 82.90938 90.92098Q81.925 90.92098 81.44063 91.28036Q80.97188 91.62411 80.75313 92.49911L79.37813 92.31161Q79.56563 91.43661 79.9875 90.88973Q80.425 90.34286 81.2375 90.06161Q82.05 89.76473 83.1125 89.76473Q84.175 89.76473 84.83125 90.01473Q85.50313 90.26473 85.81563 90.63973Q86.12813 91.01473 86.25313 91.59286Q86.33125 91.95223 86.33125 92.88973L86.33125 94.76473Q86.33125 96.73348 86.40938 97.24911Q86.50313 97.76473 86.76875 98.24911L85.3 98.24911Q85.08125 97.81161 85.01875 97.21786ZM84.90938 94.07723Q84.14375 94.38973 82.6125 94.60848Q81.7375 94.73348 81.37813 94.88973Q81.01875 95.04598 80.81563 95.35848Q80.62813 95.65536 80.62813 96.01473Q80.62813 96.57723 81.05 96.95223Q81.4875 97.32723 82.3 97.32723Q83.1125 97.32723 83.7375 96.98348Q84.37813 96.62411 84.675 95.99911Q84.90938 95.53036 84.90938 94.59286L84.90938 94.07723ZM88.6125 101.43661L88.6125 89.95223L89.89375 89.95223L89.89375 91.03036Q90.34688 90.38973 90.90938 90.07723Q91.4875 89.76473 92.3 89.76473Q93.3625 89.76473 94.175 90.31161Q94.9875 90.85848 95.39375 91.85848Q95.81563 92.84286 95.81563 94.03036Q95.81563 95.31161 95.34688 96.32723Q94.89375 97.34286 94.01875 97.88973Q93.15938 98.43661 92.19063 98.43661Q91.4875 98.43661 90.925 98.13973Q90.37813 97.84286 90.01875 97.38973L90.01875 101.43661L88.6125 101.43661ZM89.87813 94.13973Q89.87813 95.74911 90.51875 96.51473Q91.175 97.28036 92.09688 97.28036Q93.03438 97.28036 93.70625 96.48348Q94.37813 95.68661 94.37813 94.03036Q94.37813 92.43661 93.72188 91.65536Q93.06563 90.85848 92.15938 90.85848Q91.26875 90.85848 90.56563 91.70223Q89.87813 92.54598 89.87813 94.13973ZM103.28438 95.57723L104.7375 95.74911Q104.39375 97.03036 103.45625 97.73348Q102.53438 98.43661 101.09688 98.43661Q99.26875 98.43661 98.20625 97.31161Q97.14375 96.18661 97.14375 94.17098Q97.14375 92.07723 98.22188 90.92098Q99.3 89.76473 101.01875 89.76473Q102.675 89.76473 103.72188 90.90536Q104.78438 92.03036 104.78438 94.07723Q104.78438 94.20223 104.78438 94.45223L98.59688 94.45223Q98.675 95.82723 99.3625 96.56161Q100.06563 97.28036 101.09688 97.28036Q101.87813 97.28036 102.425 96.87411Q102.97188 96.46786 103.28438 95.57723ZM98.675 93.29598L103.3 93.29598Q103.20625 92.24911 102.76875 91.73348Q102.09688 90.92098 101.03438 90.92098Q100.06563 90.92098 99.39375 91.57723Q98.7375 92.21786 98.675 93.29598Z" fill-rule="nonzero"/><path fill="#9e9e9e" d="M26.6125 118.88973L26.6125 120.24911L19.034374 120.24911Q19.01875 119.73348 19.20625 119.26473Q19.4875 118.49911 20.128124 117.74911Q20.76875 116.99911 21.971874 116.01473Q23.83125 114.48348 24.4875 113.59286Q25.14375 112.68661 25.14375 111.88973Q25.14375 111.06161 24.55 110.48348Q23.95625 109.90536 22.9875 109.90536Q21.971874 109.90536 21.3625 110.51473Q20.753124 111.12411 20.753124 112.20223L19.3 112.06161Q19.45625 110.43661 20.425 109.59286Q21.39375 108.74911 23.01875 108.74911Q24.675 108.74911 25.628124 109.67098Q26.596874 110.57723 26.596874 111.92098Q26.596874 112.60848 26.315624 113.28036Q26.034374 113.93661 25.378124 114.67098Q24.721874 115.40536 23.20625 116.68661Q21.940624 117.74911 21.58125 118.13973Q21.221874 118.51473 20.9875 118.88973L26.6125 118.88973ZM28.221874 117.24911L29.690624 117.12411Q29.8625 118.20223 30.45625 118.74911Q31.05 119.28036 31.89375 119.28036Q32.909374 119.28036 33.6125 118.51473Q34.315624 117.74911 34.315624 116.48348Q34.315624 115.28036 33.64375 114.59286Q32.971874 113.88973 31.878124 113.88973Q31.190624 113.88973 30.64375 114.20223Q30.096874 114.51473 29.784374 114.99911L28.471874 114.82723L29.58125 108.95223L35.26875 108.95223L35.26875 110.29598L30.70625 110.29598L30.08125 113.37411Q31.1125 112.65536 32.253124 112.65536Q33.753124 112.65536 34.784374 113.70223Q35.815624 114.73348 35.815624 116.35848Q35.815624 117.92098 34.909374 119.04598Q33.8 120.45223 31.89375 120.45223Q30.33125 120.45223 29.346874 119.57723Q28.3625 118.68661 28.221874 117.24911ZM38.003124 120.24911L38.003124 118.63973L39.6125 118.63973L39.6125 120.24911L38.003124 120.24911ZM41.221874 114.59286Q41.221874 112.56161 41.628124 111.32723Q42.05 110.09286 42.878124 109.42098Q43.70625 108.74911 44.95625 108.74911Q45.878124 108.74911 46.565624 109.12411Q47.26875 109.48348 47.721874 110.18661Q48.175 110.88973 48.425 111.88973Q48.690624 112.88973 48.690624 114.59286Q48.690624 116.60848 48.26875 117.85848Q47.8625 119.09286 47.034374 119.78036Q46.20625 120.45223 44.95625 120.45223Q43.3 120.45223 42.346874 119.24911Q41.221874 117.82723 41.221874 114.59286ZM42.659374 114.59286Q42.659374 117.42098 43.315624 118.35848Q43.9875 119.28036 44.95625 119.28036Q45.925 119.28036 46.58125 118.34286Q47.2375 117.40536 47.2375 114.59286Q47.2375 111.76473 46.58125 110.84286Q45.925 109.90536 44.940624 109.90536Q43.971874 109.90536 43.39375 110.73348Q42.659374 111.78036 42.659374 114.59286ZM50.4875 111.54598Q50.4875 110.31161 51.096874 109.45223Q51.721874 108.59286 52.89375 108.59286Q53.971874 108.59286 54.675 109.37411Q55.378124 110.13973 55.378124 111.62411Q55.378124 113.07723 54.659374 113.87411Q53.95625 114.65536 52.909374 114.65536Q51.8625 114.65536 51.175 113.88973Q50.4875 113.10848 50.4875 111.54598ZM52.925 109.56161Q52.409374 109.56161 52.05 110.01473Q51.70625 110.46786 51.70625 111.68661Q51.70625 112.78036 52.05 113.23348Q52.409374 113.68661 52.925 113.68661Q53.45625 113.68661 53.8 113.23348Q54.159374 112.78036 54.159374 111.57723Q54.159374 110.46786 53.8 110.01473Q53.45625 109.56161 52.925 109.56161ZM52.940624 120.67098L59.20625 108.59286L60.346874 108.59286L54.096874 120.67098L52.940624 120.67098ZM57.89375 117.56161Q57.89375 116.32723 58.503124 115.46786Q59.128124 114.60848 60.3 114.60848Q61.378124 114.60848 62.08125 115.38973Q62.8 116.15536 62.8 117.63973Q62.8 119.09286 62.08125 119.88973Q61.3625 120.67098 60.315624 120.67098Q59.26875 120.67098 58.58125 119.88973Q57.89375 119.10848 57.89375 117.56161ZM60.346874 115.57723Q59.815624 115.57723 59.45625 116.03036Q59.1125 116.48348 59.1125 117.70223Q59.1125 118.79598 59.45625 119.24911Q59.815624 119.70223 60.33125 119.70223Q60.878124 119.70223 61.221874 119.24911Q61.565624 118.79598 61.565624 117.59286Q61.565624 116.48348 61.20625 116.03036Q60.8625 115.57723 60.346874 115.57723Z" fill-rule="nonzero"/><path stroke="#757575" stroke-width="1.0" stroke-linecap="butt" d="M18.55 103.74911L145.23334 103.74911L200.06578 103.74911" fill-rule="nonzero"/><path fill="#9e9e9e" d="M202.06578 103.74911C202.06578 102.64454 201.17035 101.74911 200.06578 101.74911C198.96121 101.74911 198.06578 102.64454 198.06578 103.74911C198.06578 104.85368 198.96121 105.74911 200.06578 105.74911C201.17035 105.74911 202.06578 104.85368 202.06578 103.74911" fill-rule="nonzero"/><path fill="#efefef" d="M531.6844 298.11755L531.6844 286.66443L536.0125 286.66443Q537.15314 286.66443 537.7469 286.7738Q538.59064 286.91443 539.15314 287.30505Q539.73126 287.69568 540.075 288.41443Q540.4344 289.11755 540.4344 289.97693Q540.4344 291.43005 539.4969 292.44568Q538.575 293.4613 536.1375 293.4613L533.2 293.4613L533.2 298.11755L531.6844 298.11755ZM533.2 292.10193L536.16876 292.10193Q537.6375 292.10193 538.2469 291.55505Q538.8719 291.00818 538.8719 290.0238Q538.8719 289.30505 538.4969 288.78943Q538.1375 288.2738 537.54376 288.11755Q537.16876 288.00818 536.1375 288.00818L533.2 288.00818L533.2 292.10193ZM548.1844 295.44568L549.6375 295.61755Q549.29376 296.8988 548.35626 297.60193Q547.4344 298.30505 545.9969 298.30505Q544.16876 298.30505 543.10626 297.18005Q542.04376 296.05505 542.04376 294.03943Q542.04376 291.94568 543.1219 290.78943Q544.2 289.63318 545.91876 289.63318Q547.575 289.63318 548.6219 290.7738Q549.6844 291.8988 549.6844 293.94568Q549.6844 294.07068 549.6844 294.32068L543.4969 294.32068Q543.575 295.69568 544.2625 296.43005Q544.96564 297.1488 545.9969 297.1488Q546.77814 297.1488 547.325 296.74255Q547.8719 296.3363 548.1844 295.44568ZM543.575 293.16443L548.2 293.16443Q548.10626 292.11755 547.66876 291.60193Q546.9969 290.78943 545.9344 290.78943Q544.96564 290.78943 544.29376 291.44568Q543.6375 292.0863 543.575 293.16443ZM550.98126 293.9613Q550.98126 291.66443 552.2625 290.55505Q553.34064 289.63318 554.8719 289.63318Q556.59064 289.63318 557.66876 290.75818Q558.7625 291.86755 558.7625 293.85193Q558.7625 295.44568 558.27814 296.36755Q557.79376 297.28943 556.8719 297.80505Q555.96564 298.30505 554.8719 298.30505Q553.1375 298.30505 552.0594 297.19568Q550.98126 296.07068 550.98126 293.9613ZM552.4344 293.9613Q552.4344 295.55505 553.1219 296.35193Q553.825 297.1488 554.8719 297.1488Q555.91876 297.1488 556.60626 296.35193Q557.3094 295.55505 557.3094 293.91443Q557.3094 292.38318 556.60626 291.5863Q555.91876 290.78943 554.8719 290.78943Q553.825 290.78943 553.1219 291.5863Q552.4344 292.36755 552.4344 293.9613ZM560.5125 301.30505L560.5125 289.82068L561.79376 289.82068L561.79376 290.8988Q562.2469 290.25818 562.8094 289.94568Q563.3875 289.63318 564.2 289.63318Q565.2625 289.63318 566.075 290.18005Q566.8875 290.72693 567.29376 291.72693Q567.71564 292.7113 567.71564 293.8988Q567.71564 295.18005 567.2469 296.19568Q566.79376 297.2113 565.91876 297.75818Q565.0594 298.30505 564.09064 298.30505Q563.3875 298.30505 562.825 298.00818Q562.27814 297.7113 561.91876 297.25818L561.91876 301.30505L560.5125 301.30505ZM561.77814 294.00818Q561.77814 295.61755 562.41876 296.38318Q563.075 297.1488 563.9969 297.1488Q564.9344 297.1488 565.60626 296.35193Q566.27814 295.55505 566.27814 293.8988Q566.27814 292.30505 565.6219 291.5238Q564.96564 290.72693 564.0594 290.72693Q563.16876 290.72693 562.46564 291.57068Q561.77814 292.41443 561.77814 294.00818ZM569.48126 298.11755L569.48126 286.66443L570.8875 286.66443L570.8875 298.11755L569.48126 298.11755ZM579.1844 295.44568L580.6375 295.61755Q580.29376 296.8988 579.35626 297.60193Q578.4344 298.30505 576.9969 298.30505Q575.16876 298.30505 574.10626 297.18005Q573.04376 296.05505 573.04376 294.03943Q573.04376 291.94568 574.1219 290.78943Q575.2 289.63318 576.91876 289.63318Q578.575 289.63318 579.6219 290.7738Q580.6844 291.8988 580.6844 293.94568Q580.6844 294.07068 580.6844 294.32068L574.4969 294.32068Q574.575 295.69568 575.2625 296.43005Q575.96564 297.1488 576.9969 297.1488Q577.77814 297.1488 578.325 296.74255Q578.8719 296.3363 579.1844 295.44568ZM574.575 293.16443L579.2 293.16443Q579.10626 292.11755 578.66876 291.60193Q577.9969 290.78943 576.9344 290.78943Q575.96564 290.78943 575.29376 291.44568Q574.6375 292.0863 574.575 293.16443Z" fill-rule="nonzero"/><path fill="#9e9e9e" d="M537.21564 310.16443L537.21564 308.80505L544.6219 308.80505L544.6219 309.8988Q543.52814 311.07068 542.45 313.00818Q541.3875 314.93005 540.79376 316.9613Q540.3719 318.3988 540.2625 320.11755L538.8094 320.11755Q538.84064 318.75818 539.34064 316.85193Q539.85626 314.93005 540.79376 313.16443Q541.7469 311.38318 542.825 310.16443L537.21564 310.16443ZM546.1219 317.11755L547.59064 316.99255Q547.7625 318.07068 548.35626 318.61755Q548.95 319.1488 549.79376 319.1488Q550.8094 319.1488 551.5125 318.38318Q552.21564 317.61755 552.21564 316.35193Q552.21564 315.1488 551.54376 314.4613Q550.8719 313.75818 549.77814 313.75818Q549.09064 313.75818 548.54376 314.07068Q547.9969 314.38318 547.6844 314.86755L546.3719 314.69568L547.48126 308.82068L553.16876 308.82068L553.16876 310.16443L548.60626 310.16443L547.98126 313.24255Q549.0125 312.5238 550.15314 312.5238Q551.65314 312.5238 552.6844 313.57068Q553.71564 314.60193 553.71564 316.22693Q553.71564 317.78943 552.8094 318.91443Q551.7 320.32068 549.79376 320.32068Q548.23126 320.32068 547.2469 319.44568Q546.2625 318.55505 546.1219 317.11755ZM555.90314 320.11755L555.90314 318.50818L557.5125 318.50818L557.5125 320.11755L555.90314 320.11755ZM559.1219 314.4613Q559.1219 312.43005 559.52814 311.19568Q559.95 309.9613 560.77814 309.28943Q561.60626 308.61755 562.85626 308.61755Q563.77814 308.61755 564.46564 308.99255Q565.16876 309.35193 565.6219 310.05505Q566.075 310.75818 566.325 311.75818Q566.59064 312.75818 566.59064 314.4613Q566.59064 316.47693 566.16876 317.72693Q565.7625 318.9613 564.9344 319.6488Q564.10626 320.32068 562.85626 320.32068Q561.2 320.32068 560.2469 319.11755Q559.1219 317.69568 559.1219 314.4613ZM560.5594 314.4613Q560.5594 317.28943 561.21564 318.22693Q561.8875 319.1488 562.85626 319.1488Q563.825 319.1488 564.48126 318.2113Q565.1375 317.2738 565.1375 314.4613Q565.1375 311.63318 564.48126 310.7113Q563.825 309.7738 562.84064 309.7738Q561.8719 309.7738 561.29376 310.60193Q560.5594 311.6488 560.5594 314.4613ZM568.3875 311.41443Q568.3875 310.18005 568.9969 309.32068Q569.6219 308.4613 570.79376 308.4613Q571.8719 308.4613 572.575 309.24255Q573.27814 310.00818 573.27814 311.49255Q573.27814 312.94568 572.5594 313.74255Q571.85626 314.5238 570.8094 314.5238Q569.7625 314.5238 569.075 313.75818Q568.3875 312.97693 568.3875 311.41443ZM570.825 309.43005Q570.3094 309.43005 569.95 309.88318Q569.60626 310.3363 569.60626 311.55505Q569.60626 312.6488 569.95 313.10193Q570.3094 313.55505 570.825 313.55505Q571.35626 313.55505 571.7 313.10193Q572.0594 312.6488 572.0594 311.44568Q572.0594 310.3363 571.7 309.88318Q571.35626 309.43005 570.825 309.43005ZM570.84064 320.53943L577.10626 308.4613L578.2469 308.4613L571.9969 320.53943L570.84064 320.53943ZM575.79376 317.43005Q575.79376 316.19568 576.40314 315.3363Q577.02814 314.47693 578.2 314.47693Q579.27814 314.47693 579.98126 315.25818Q580.7 316.0238 580.7 317.50818Q580.7 318.9613 579.98126 319.75818Q579.2625 320.53943 578.21564 320.53943Q577.16876 320.53943 576.48126 319.75818Q575.79376 318.97693 575.79376 317.43005ZM578.2469 315.44568Q577.71564 315.44568 577.35626 315.8988Q577.0125 316.35193 577.0125 317.57068Q577.0125 318.66443 577.35626 319.11755Q577.71564 319.57068 578.23126 319.57068Q578.77814 319.57068 579.1219 319.11755Q579.46564 318.66443 579.46564 317.4613Q579.46564 316.35193 579.10626 315.8988Q578.7625 315.44568 578.2469 315.44568Z" fill-rule="nonzero"/><path stroke="#757575" stroke-width="1.0" stroke-linecap="butt" d="M581.45 303.61755L454.76666 303.61755L399.93423 303.61755" fill-rule="nonzero"/><path fill="#9e9e9e" d="M401.93423 303.61755C401.93423 302.513 401.0388 301.61755 399.93423 301.61755C398.82965 301.61755 397.93423 302.513 397.93423 303.61755C397.93423 304.72214 398.82965 305.61755 399.93423 305.61755C401.0388 305.61755 401.93423 304.72214 401.93423 303.61755" fill-rule="nonzero"/><path fill="#f3f3f3" d="M265.98438 37.55L265.98438 23.2375L268.84375 23.2375L272.21875 33.3625Q272.6875 34.784374 272.90625 35.4875Q273.15625 34.70625 273.67188 33.190624L277.09375 23.2375L279.64062 23.2375L279.64062 37.55L277.82812 37.55L277.82812 25.565624L273.65625 37.55L271.95312 37.55L267.8125 25.3625L267.8125 37.55L265.98438 37.55ZM289.92188 34.20625L291.73438 34.440624Q291.3125 36.01875 290.14062 36.909374Q288.98438 37.784374 287.17188 37.784374Q284.90625 37.784374 283.5625 36.39375Q282.23438 34.9875 282.23438 32.45625Q282.23438 29.83125 283.57812 28.39375Q284.92188 26.940624 287.07812 26.940624Q289.15625 26.940624 290.46875 28.3625Q291.79688 29.76875 291.79688 32.346874Q291.79688 32.503124 291.78125 32.815624L284.04688 32.815624Q284.14062 34.51875 285.01562 35.425Q285.89062 36.33125 287.1875 36.33125Q288.15625 36.33125 288.82812 35.83125Q289.51562 35.315624 289.92188 34.20625ZM284.14062 31.3625L289.9375 31.3625Q289.82812 30.065624 289.28125 29.409374Q288.4375 28.39375 287.09375 28.39375Q285.89062 28.39375 285.0625 29.20625Q284.23438 30.003124 284.14062 31.3625ZM300.54688 37.55L300.54688 36.2375Q299.5625 37.784374 297.64062 37.784374Q296.40625 37.784374 295.35938 37.096874Q294.32812 36.409374 293.75 35.190624Q293.1875 33.971874 293.1875 32.378124Q293.1875 30.815624 293.70312 29.55Q294.21875 28.284374 295.25 27.6125Q296.29688 26.940624 297.5625 26.940624Q298.5 26.940624 299.23438 27.346874Q299.96875 27.7375 300.4375 28.3625L300.4375 23.2375L302.17188 23.2375L302.17188 37.55L300.54688 37.55ZM294.98438 32.378124Q294.98438 34.3625 295.82812 35.346874Q296.67188 36.33125 297.8125 36.33125Q298.96875 36.33125 299.76562 35.39375Q300.57812 34.45625 300.57812 32.51875Q300.57812 30.39375 299.75 29.39375Q298.9375 28.39375 297.73438 28.39375Q296.5625 28.39375 295.76562 29.3625Q294.98438 30.315624 294.98438 32.378124ZM304.82812 25.253124L304.82812 23.2375L306.59375 23.2375L306.59375 25.253124L304.82812 25.253124ZM304.82812 37.55L304.82812 27.175L306.59375 27.175L306.59375 37.55L304.82812 37.55ZM315.60938 37.55L315.60938 36.01875Q314.40625 37.784374 312.32812 37.784374Q311.40625 37.784374 310.60938 37.440624Q309.8125 37.08125 309.42188 36.55Q309.04688 36.01875 308.89062 35.2375Q308.78125 34.721874 308.78125 33.596874L308.78125 27.175L310.53125 27.175L310.53125 32.925Q310.53125 34.3 310.64062 34.784374Q310.8125 35.471874 311.34375 35.878124Q311.89062 36.26875 312.67188 36.26875Q313.46875 36.26875 314.15625 35.8625Q314.85938 35.45625 315.14062 34.76875Q315.4375 34.065624 315.4375 32.7375L315.4375 27.175L317.1875 27.175L317.1875 37.55L315.60938 37.55ZM319.8125 37.55L319.8125 27.175L321.39062 27.175L321.39062 28.628124Q321.875 27.878124 322.6875 27.409374Q323.5 26.940624 324.53125 26.940624Q325.6875 26.940624 326.42188 27.425Q327.15625 27.89375 327.46875 28.753124Q328.70312 26.940624 330.67188 26.940624Q332.21875 26.940624 333.04688 27.8Q333.875 28.659374 333.875 30.425L333.875 37.55L332.125 37.55L332.125 31.01875Q332.125 29.95625 331.95312 29.503124Q331.78125 29.034374 331.32812 28.753124Q330.89062 28.471874 330.28125 28.471874Q329.1875 28.471874 328.45312 29.20625Q327.73438 29.925 327.73438 31.51875L327.73438 37.55L325.98438 37.55L325.98438 30.815624Q325.98438 29.64375 325.54688 29.065624Q325.125 28.471874 324.14062 28.471874Q323.40625 28.471874 322.76562 28.8625Q322.14062 29.253124 321.85938 30.003124Q321.57812 30.753124 321.57812 32.175L321.57812 37.55L319.8125 37.55Z" fill-rule="nonzero"/></svg>