<svg version="1.1" viewBox="0.0 0.0 600.0 371.0" fill="none" stroke="none" stroke-linecap="square" stroke-miterlimit="10" width="600" height="371" xmlns:xlink="http://www.w3.org/1999/xlink" xmlns="http://www.w3.org/2000/svg"><path fill="#ffffff" fill-opacity="0.0" d="M0 0L600.0 0L600.0 371.0L0 371.0L0 0Z" fill-rule="nonzero"/><path fill="#304388" d="M300.0 54.916668C329.89728 54.916668 359.10095 63.9248 383.80325 80.76655L320.9508 172.95413C314.77524 168.7437 307.47433 166.49167 300.0 166.49167Z" fill-rule="nonzero"/><path fill="#533990" d="M383.80325 80.76655C421.20984 106.269936 444.9674 147.41922 448.35068 192.56598L337.08768 200.90399C336.24185 189.61731 330.30246 179.32999 320.9508 172.95413Z" fill-rule="nonzero"/><path fill="#b5428d" d="M448.35068 192.56598C449.46152 207.38911 448.34448 222.29503 445.03677 236.78703L336.2592 211.95926C337.08612 208.33626 337.3654 204.60977 337.08768 200.90399Z" fill-rule="nonzero"/><path fill="#df8d43" d="M151.64932 192.56598C157.46696 114.934845 222.15118 54.916668 300.0 54.916668L300.0 166.49167C280.53778 166.49167 264.36673 181.49622 262.91232 200.90399Z" fill-rule="nonzero"/><path fill="#cf4366" d="M445.03677 236.78703C427.71378 312.68402 354.8068 362.39117 277.82748 350.7884C200.84816 339.18564 145.83167 270.1971 151.64932 192.56598L262.91232 200.90399C261.45792 220.31178 275.21204 237.55891 294.45688 240.4596C313.7017 243.36029 331.92844 230.9335 336.2592 211.95926Z" fill-rule="nonzero"/><path fill="#ffffff" d="M313.421 100.421104L314.9366 100.28048Q315.13974 101.358604 315.671 101.84298Q316.21786 102.327354 317.07724 102.327354Q317.8116 102.327354 318.3585 101.99923Q318.90536 101.65548 319.2491 101.108604Q319.6085 100.546104 319.84286 99.59298Q320.07724 98.639854 320.07724 97.65548Q320.07724 97.546104 320.07724 97.34298Q319.59286 98.09298 318.76474 98.56173Q317.95224 99.03048 316.9991 99.03048Q315.40536 99.03048 314.296 97.87423Q313.1866 96.71798 313.1866 94.81173Q313.1866 92.858604 314.34286 91.671104Q315.4991 90.46798 317.2335 90.46798Q318.4991 90.46798 319.53036 91.15548Q320.57724 91.827354 321.1085 93.077354Q321.65536 94.327354 321.65536 96.702354Q321.65536 99.171104 321.1085 100.639854Q320.57724 102.09298 319.51474 102.858604Q318.46786 103.62423 317.046 103.62423Q315.53036 103.62423 314.5616 102.796104Q313.6085 101.952354 313.421 100.421104ZM319.90536 94.733604Q319.90536 93.37423 319.171 92.577354Q318.45224 91.78048 317.4366 91.78048Q316.3741 91.78048 315.59286 92.639854Q314.8116 93.49923 314.8116 94.87423Q314.8116 96.108604 315.546 96.87423Q316.296 97.639854 317.38974 97.639854Q318.4835 97.639854 319.1866 96.87423Q319.90536 96.108604 319.90536 94.733604ZM324.07724 103.40548L324.07724 101.608604L325.8741 101.608604L325.8741 103.40548L324.07724 103.40548ZM328.1866 100.03048L329.84286 99.889854Q330.03036 101.108604 330.70224 101.71798Q331.3741 102.327354 332.32724 102.327354Q333.46786 102.327354 334.2491 101.46798Q335.046 100.608604 335.046 99.171104Q335.046 97.827354 334.28036 97.046104Q333.53036 96.264854 332.296 96.264854Q331.53036 96.264854 330.90536 96.608604Q330.296 96.952354 329.95224 97.514854L328.46786 97.31173L329.71786 90.702354L336.1241 90.702354L336.1241 92.202354L330.9835 92.202354L330.28036 95.671104Q331.45224 94.858604 332.71786 94.858604Q334.40536 94.858604 335.5616 96.03048Q336.7335 97.202354 336.7335 99.03048Q336.7335 100.78048 335.70224 102.06173Q334.46786 103.62423 332.32724 103.62423Q330.5616 103.62423 329.45224 102.639854Q328.34286 101.65548 328.1866 100.03048ZM338.4835 93.608604Q338.4835 92.233604 339.171 91.264854Q339.8741 90.296104 341.1866 90.296104Q342.40536 90.296104 343.20224 91.171104Q343.9991 92.03048 343.9991 93.71798Q343.9991 95.34298 343.1866 96.233604Q342.38974 97.108604 341.20224 97.108604Q340.046 97.108604 339.26474 96.24923Q338.4835 95.37423 338.4835 93.608604ZM341.2335 91.389854Q340.63974 91.389854 340.2491 91.90548Q339.8585 92.40548 339.8585 93.764854Q339.8585 95.014854 340.2491 95.514854Q340.65536 96.014854 341.2335 96.014854Q341.82724 96.014854 342.21786 95.514854Q342.6085 94.99923 342.6085 93.65548Q342.6085 92.40548 342.21786 91.90548Q341.82724 91.389854 341.2335 91.389854ZM341.2491 103.87423L348.296 90.296104L349.57724 90.296104L342.546 103.87423L341.2491 103.87423ZM346.8116 100.37423Q346.8116 98.99923 347.4991 98.03048Q348.20224 97.06173 349.53036 97.06173Q350.7491 97.06173 351.53036 97.93673Q352.32724 98.796104 352.32724 100.483604Q352.32724 102.108604 351.53036 102.99923Q350.7335 103.87423 349.546 103.87423Q348.3741 103.87423 347.59286 102.99923Q346.8116 102.12423 346.8116 100.37423ZM349.57724 98.15548Q348.9835 98.15548 348.59286 98.671104Q348.20224 99.171104 348.20224 100.546104Q348.20224 101.764854 348.59286 102.28048Q348.9835 102.796104 349.5616 102.796104Q350.171 102.796104 350.5616 102.28048Q350.95224 101.764854 350.95224 100.421104Q350.95224 99.171104 350.5616 98.671104Q350.171 98.15548 349.57724 98.15548Z" fill-rule="nonzero"/><path fill="#ffffff" d="M368.7586 159.63315L367.18048 159.63315L367.18048 149.55502Q366.60236 150.1019 365.68048 150.64877Q364.7586 151.18002 364.0086 151.46127L364.0086 149.93002Q365.33673 149.30502 366.33673 148.4144Q367.33673 147.52377 367.74298 146.69565L368.7586 146.69565L368.7586 159.63315ZM377.86798 159.63315L377.86798 156.55502L372.28986 156.55502L372.28986 155.1019L378.16486 146.74252L379.46173 146.74252L379.46173 155.1019L381.1961 155.1019L381.1961 156.55502L379.46173 156.55502L379.46173 159.63315L377.86798 159.63315ZM377.86798 155.1019L377.86798 149.2894L373.83673 155.1019L377.86798 155.1019ZM383.6961 159.63315L383.6961 157.83627L385.49298 157.83627L385.49298 159.63315L383.6961 159.63315ZM387.80548 156.2269L389.39923 156.02377Q389.66486 157.36752 390.3211 157.96127Q390.97736 158.55502 391.91486 158.55502Q393.03986 158.55502 393.80548 157.7894Q394.5711 157.00815 394.5711 155.86752Q394.5711 154.77377 393.85236 154.07065Q393.14923 153.3519 392.05548 153.3519Q391.60236 153.3519 390.93048 153.5394L391.10236 152.14877Q391.2586 152.1644 391.36798 152.1644Q392.36798 152.1644 393.18048 151.63315Q393.99298 151.1019 393.99298 150.00815Q393.99298 149.13315 393.39923 148.57065Q392.80548 147.99252 391.8836 147.99252Q390.96173 147.99252 390.33673 148.57065Q389.72736 149.14877 389.55548 150.32065L387.97736 150.0394Q388.2586 148.44565 389.28986 147.57065Q390.3211 146.69565 391.85236 146.69565Q392.89923 146.69565 393.78986 147.14877Q394.68048 147.6019 395.14923 148.38315Q395.61798 149.1644 395.61798 150.0394Q395.61798 150.88315 395.16486 151.57065Q394.72736 152.24252 393.83673 152.64877Q394.97736 152.9144 395.60236 153.75815Q396.24298 154.58627 396.24298 155.82065Q396.24298 157.50815 395.0086 158.69565Q393.78986 159.86752 391.91486 159.86752Q390.21173 159.86752 389.08673 158.8519Q387.97736 157.83627 387.80548 156.2269ZM398.10236 149.83627Q398.10236 148.46127 398.78986 147.49252Q399.49298 146.52377 400.80548 146.52377Q402.02423 146.52377 402.8211 147.39877Q403.61798 148.25815 403.61798 149.94565Q403.61798 151.57065 402.80548 152.46127Q402.0086 153.33627 400.8211 153.33627Q399.66486 153.33627 398.8836 152.4769Q398.10236 151.6019 398.10236 149.83627ZM400.85236 147.61752Q400.2586 147.61752 399.86798 148.13315Q399.47736 148.63315 399.47736 149.99252Q399.47736 151.24252 399.86798 151.74252Q400.27423 152.24252 400.85236 152.24252Q401.4461 152.24252 401.83673 151.74252Q402.22736 151.2269 402.22736 149.88315Q402.22736 148.63315 401.83673 148.13315Q401.4461 147.61752 400.85236 147.61752ZM400.86798 160.1019L407.91486 146.52377L409.1961 146.52377L402.16486 160.1019L400.86798 160.1019ZM406.43048 156.6019Q406.43048 155.2269 407.11798 154.25815Q407.8211 153.2894 409.14923 153.2894Q410.36798 153.2894 411.14923 154.1644Q411.9461 155.02377 411.9461 156.71127Q411.9461 158.33627 411.14923 159.2269Q410.35236 160.1019 409.16486 160.1019Q407.99298 160.1019 407.21173 159.2269Q406.43048 158.3519 406.43048 156.6019ZM409.1961 154.38315Q408.60236 154.38315 408.21173 154.89877Q407.8211 155.39877 407.8211 156.77377Q407.8211 157.99252 408.21173 158.50815Q408.60236 159.02377 409.18048 159.02377Q409.78986 159.02377 410.18048 158.50815Q410.5711 157.99252 410.5711 156.64877Q410.5711 155.39877 410.18048 154.89877Q409.78986 154.38315 409.1961 154.38315Z" fill-rule="nonzero"/><path fill="#ffffff" d="M394.86163 218.3929L394.86163 215.31477L389.2835 215.31477L389.2835 213.86165L395.1585 205.50227L396.45538 205.50227L396.45538 213.86165L398.18976 213.86165L398.18976 215.31477L396.45538 215.31477L396.45538 218.3929L394.86163 218.3929ZM394.86163 213.86165L394.86163 208.04915L390.83038 213.86165L394.86163 213.86165ZM400.68976 218.3929L400.68976 216.59602L402.48663 216.59602L402.48663 218.3929L400.68976 218.3929ZM407.23663 211.40852Q406.25226 211.04915 405.76788 210.37727Q405.29913 209.7054 405.29913 208.78352Q405.29913 207.37727 406.29913 206.42415Q407.31476 205.4554 409.00226 205.4554Q410.68976 205.4554 411.70538 206.43977Q412.73663 207.40852 412.73663 208.81477Q412.73663 209.72102 412.26788 210.3929Q411.79913 211.04915 410.846 211.40852Q412.0335 211.79915 412.64288 212.65852Q413.26788 213.5179 413.26788 214.7054Q413.26788 216.36165 412.096 217.48665Q410.92413 218.61165 409.01788 218.61165Q407.11163 218.61165 405.93976 217.48665Q404.7835 216.34602 404.7835 214.65852Q404.7835 213.40852 405.4085 212.56477Q406.04913 211.7054 407.23663 211.40852ZM406.9085 208.72102Q406.9085 209.6429 407.50226 210.22102Q408.096 210.79915 409.0335 210.79915Q409.93976 210.79915 410.51788 210.22102Q411.11163 209.6429 411.11163 208.81477Q411.11163 207.93977 410.50226 207.34602Q409.9085 206.75227 409.01788 206.75227Q408.11163 206.75227 407.50226 207.3304Q406.9085 207.90852 406.9085 208.72102ZM406.4085 214.67415Q406.4085 215.34602 406.721 215.98665Q407.04913 216.61165 407.67413 216.97102Q408.31476 217.31477 409.04913 217.31477Q410.17413 217.31477 410.9085 216.5804Q411.6585 215.84602 411.6585 214.72102Q411.6585 213.5804 410.89288 212.84602Q410.12726 212.09602 408.98663 212.09602Q407.87726 212.09602 407.14288 212.8304Q406.4085 213.56477 406.4085 214.67415ZM415.096 208.59602Q415.096 207.22102 415.7835 206.25227Q416.48663 205.28352 417.79913 205.28352Q419.01788 205.28352 419.81476 206.15852Q420.61163 207.0179 420.61163 208.7054Q420.61163 210.3304 419.79913 211.22102Q419.00226 212.09602 417.81476 212.09602Q416.6585 212.09602 415.87726 211.23665Q415.096 210.36165 415.096 208.59602ZM417.846 206.37727Q417.25226 206.37727 416.86163 206.8929Q416.471 207.3929 416.471 208.75227Q416.471 210.00227 416.86163 210.50227Q417.26788 211.00227 417.846 211.00227Q418.43976 211.00227 418.83038 210.50227Q419.221 209.98665 419.221 208.6429Q419.221 207.3929 418.83038 206.8929Q418.43976 206.37727 417.846 206.37727ZM417.86163 218.86165L424.9085 205.28352L426.18976 205.28352L419.1585 218.86165L417.86163 218.86165ZM423.42413 215.36165Q423.42413 213.98665 424.11163 213.0179Q424.81476 212.04915 426.14288 212.04915Q427.36163 212.04915 428.14288 212.92415Q428.93976 213.78352 428.93976 215.47102Q428.93976 217.09602 428.14288 217.98665Q427.346 218.86165 426.1585 218.86165Q424.98663 218.86165 424.20538 217.98665Q423.42413 217.11165 423.42413 215.36165ZM426.18976 213.1429Q425.596 213.1429 425.20538 213.65852Q424.81476 214.15852 424.81476 215.53352Q424.81476 216.75227 425.20538 217.2679Q425.596 217.78352 426.17413 217.78352Q426.7835 217.78352 427.17413 217.2679Q427.56476 216.75227 427.56476 215.40852Q427.56476 214.15852 427.17413 213.65852Q426.7835 213.1429 426.18976 213.1429Z" fill-rule="nonzero"/><path fill="#ffffff" d="M263.4412 322.11722L263.4412 319.0391L257.86307 319.0391L257.86307 317.58597L263.73807 309.2266L265.03494 309.2266L265.03494 317.58597L266.76932 317.58597L266.76932 319.0391L265.03494 319.0391L265.03494 322.11722L263.4412 322.11722ZM263.4412 317.58597L263.4412 311.77347L259.40994 317.58597L263.4412 317.58597ZM268.48807 310.9141L268.48807 309.39847L276.8162 309.39847L276.8162 310.63284Q275.59744 311.94534 274.3787 314.11722Q273.17557 316.27347 272.51932 318.57034Q272.03494 320.19534 271.90994 322.11722L270.28494 322.11722Q270.3162 320.6016 270.8787 318.44534Q271.45682 316.2891 272.51932 314.2891Q273.58182 312.2891 274.78494 310.9141L268.48807 310.9141ZM279.26932 322.11722L279.26932 320.32034L281.0662 320.32034L281.0662 322.11722L279.26932 322.11722ZM291.58182 312.38284L290.01932 312.50784Q289.80057 311.58597 289.40994 311.1641Q288.76932 310.4766 287.83182 310.4766Q287.08182 310.4766 286.5037 310.89847Q285.7537 311.44534 285.3162 312.49222Q284.89432 313.5391 284.8787 315.4766Q285.45682 314.6016 286.26932 314.17972Q287.09744 313.75784 288.0037 313.75784Q289.59744 313.75784 290.70682 314.92972Q291.8162 316.08597 291.8162 317.92972Q291.8162 319.14847 291.28494 320.19534Q290.76932 321.2266 289.84744 321.7891Q288.9412 322.33597 287.78494 322.33597Q285.80057 322.33597 284.55057 320.88284Q283.30057 319.42972 283.30057 316.08597Q283.30057 312.3516 284.6912 310.64847Q285.89432 309.17972 287.92557 309.17972Q289.45682 309.17972 290.42557 310.0391Q291.39432 310.88284 291.58182 312.38284ZM285.1287 317.94534Q285.1287 318.75784 285.47244 319.50784Q285.8162 320.25784 286.4412 320.64847Q287.0662 321.0391 287.7537 321.0391Q288.7537 321.0391 289.47244 320.2266Q290.1912 319.4141 290.1912 318.02347Q290.1912 316.69534 289.47244 315.92972Q288.76932 315.14847 287.6912 315.14847Q286.61307 315.14847 285.86307 315.92972Q285.1287 316.69534 285.1287 317.94534ZM293.67557 312.32034Q293.67557 310.94534 294.36307 309.9766Q295.0662 309.00784 296.3787 309.00784Q297.59744 309.00784 298.39432 309.88284Q299.1912 310.74222 299.1912 312.42972Q299.1912 314.05472 298.3787 314.94534Q297.58182 315.82034 296.39432 315.82034Q295.23807 315.82034 294.45682 314.96097Q293.67557 314.08597 293.67557 312.32034ZM296.42557 310.1016Q295.83182 310.1016 295.4412 310.61722Q295.05057 311.11722 295.05057 312.4766Q295.05057 313.7266 295.4412 314.2266Q295.84744 314.7266 296.42557 314.7266Q297.01932 314.7266 297.40994 314.2266Q297.80057 313.71097 297.80057 312.36722Q297.80057 311.11722 297.40994 310.61722Q297.01932 310.1016 296.42557 310.1016ZM296.4412 322.58597L303.48807 309.00784L304.76932 309.00784L297.73807 322.58597L296.4412 322.58597ZM302.0037 319.08597Q302.0037 317.71097 302.6912 316.74222Q303.39432 315.77347 304.72244 315.77347Q305.9412 315.77347 306.72244 316.64847Q307.51932 317.50784 307.51932 319.19534Q307.51932 320.82034 306.72244 321.71097Q305.92557 322.58597 304.73807 322.58597Q303.5662 322.58597 302.78494 321.71097Q302.0037 320.83597 302.0037 319.08597ZM304.76932 316.86722Q304.17557 316.86722 303.78494 317.38284Q303.39432 317.88284 303.39432 319.25784Q303.39432 320.4766 303.78494 320.99222Q304.17557 321.50784 304.7537 321.50784Q305.36307 321.50784 305.7537 320.99222Q306.14432 320.4766 306.14432 319.13284Q306.14432 317.88284 305.7537 317.38284Q305.36307 316.86722 304.76932 316.86722Z" fill-rule="nonzero"/><path fill="#ffffff" d="M214.05656 133.75812L214.05656 135.27374L205.54094 135.27374Q205.52531 134.69562 205.72844 134.18Q206.05656 133.305 206.75969 132.46124Q207.47844 131.6175 208.83781 130.50812Q210.93156 128.78937 211.66594 127.78937Q212.41594 126.77374 212.41594 125.88312Q212.41594 124.92999 211.74406 124.28937Q211.07219 123.64874 209.99406 123.64874Q208.83781 123.64874 208.15031 124.33624Q207.47844 125.02374 207.46281 126.22687L205.83781 126.05499Q206.00969 124.24249 207.08781 123.28937Q208.18156 122.33624 210.02531 122.33624Q211.86906 122.33624 212.94719 123.36749Q214.04094 124.39874 214.04094 125.91437Q214.04094 126.67999 213.71281 127.42999Q213.40031 128.18 212.66594 129.00812Q211.93156 129.83624 210.22844 131.27374Q208.80656 132.47687 208.40031 132.89874Q207.99406 133.32062 207.74406 133.75812L214.05656 133.75812ZM215.74406 131.8675L217.33781 131.66437Q217.60344 133.00812 218.25969 133.60187Q218.91594 134.19562 219.85344 134.19562Q220.97844 134.19562 221.74406 133.43Q222.50969 132.64874 222.50969 131.50812Q222.50969 130.41437 221.79094 129.71124Q221.08781 128.9925 219.99406 128.9925Q219.54094 128.9925 218.86906 129.18L219.04094 127.78937Q219.19719 127.80499 219.30656 127.80499Q220.30656 127.80499 221.11906 127.27374Q221.93156 126.74249 221.93156 125.64874Q221.93156 124.77374 221.33781 124.21124Q220.74406 123.63312 219.82219 123.63312Q218.90031 123.63312 218.27531 124.21124Q217.66594 124.78937 217.49406 125.96124L215.91594 125.67999Q216.19719 124.08624 217.22844 123.21124Q218.25969 122.33624 219.79094 122.33624Q220.83781 122.33624 221.72844 122.78937Q222.61906 123.24249 223.08781 124.02374Q223.55656 124.80499 223.55656 125.67999Q223.55656 126.52374 223.10344 127.21124Q222.66594 127.88312 221.77531 128.28937Q222.91594 128.555 223.54094 129.39874Q224.18156 130.22687 224.18156 131.46124Q224.18156 133.14874 222.94719 134.33624Q221.72844 135.50812 219.85344 135.50812Q218.15031 135.50812 217.02531 134.4925Q215.91594 133.47687 215.74406 131.8675ZM226.63469 135.27374L226.63469 133.47687L228.43156 133.47687L228.43156 135.27374L226.63469 135.27374ZM233.18156 128.28937Q232.19719 127.92999 231.71281 127.25812Q231.24406 126.58624 231.24406 125.66437Q231.24406 124.25812 232.24406 123.30499Q233.25969 122.33624 234.94719 122.33624Q236.63469 122.33624 237.65031 123.32062Q238.68156 124.28937 238.68156 125.69562Q238.68156 126.60187 238.21281 127.27374Q237.74406 127.92999 236.79094 128.28937Q237.97844 128.68 238.58781 129.53937Q239.21281 130.39874 239.21281 131.58624Q239.21281 133.2425 238.04094 134.3675Q236.86906 135.4925 234.96281 135.4925Q233.05656 135.4925 231.88469 134.3675Q230.72844 133.22687 230.72844 131.53937Q230.72844 130.28937 231.35344 129.44562Q231.99406 128.58624 233.18156 128.28937ZM232.85344 125.60187Q232.85344 126.52374 233.44719 127.10187Q234.04094 127.67999 234.97844 127.67999Q235.88469 127.67999 236.46281 127.10187Q237.05656 126.52374 237.05656 125.69562Q237.05656 124.82062 236.44719 124.22687Q235.85344 123.63312 234.96281 123.63312Q234.05656 123.63312 233.44719 124.21124Q232.85344 124.78937 232.85344 125.60187ZM232.35344 131.555Q232.35344 132.22687 232.66594 132.8675Q232.99406 133.4925 233.61906 133.85187Q234.25969 134.19562 234.99406 134.19562Q236.11906 134.19562 236.85344 133.46124Q237.60344 132.72687 237.60344 131.60187Q237.60344 130.46124 236.83781 129.72687Q236.07219 128.97687 234.93156 128.97687Q233.82219 128.97687 233.08781 129.71124Q232.35344 130.44562 232.35344 131.555ZM241.04094 125.47687Q241.04094 124.10187 241.72844 123.13312Q242.43156 122.16437 243.74406 122.16437Q244.96281 122.16437 245.75969 123.03937Q246.55656 123.89874 246.55656 125.58624Q246.55656 127.21124 245.74406 128.10187Q244.94719 128.97687 243.75969 128.97687Q242.60344 128.97687 241.82219 128.1175Q241.04094 127.24249 241.04094 125.47687ZM243.79094 123.25812Q243.19719 123.25812 242.80656 123.77374Q242.41594 124.27374 242.41594 125.63312Q242.41594 126.88312 242.80656 127.38312Q243.21281 127.88312 243.79094 127.88312Q244.38469 127.88312 244.77531 127.38312Q245.16594 126.86749 245.16594 125.52374Q245.16594 124.27374 244.77531 123.77374Q244.38469 123.25812 243.79094 123.25812ZM243.80656 135.7425L250.85344 122.16437L252.13469 122.16437L245.10344 135.7425L243.80656 135.7425ZM249.36906 132.2425Q249.36906 130.8675 250.05656 129.89874Q250.75969 128.93 252.08781 128.93Q253.30656 128.93 254.08781 129.805Q254.88469 130.66437 254.88469 132.35187Q254.88469 133.97687 254.08781 134.8675Q253.29094 135.7425 252.10344 135.7425Q250.93156 135.7425 250.15031 134.8675Q249.36906 133.9925 249.36906 132.2425ZM252.13469 130.02374Q251.54094 130.02374 251.15031 130.53937Q250.75969 131.03937 250.75969 132.41437Q250.75969 133.63312 251.15031 134.14874Q251.54094 134.66437 252.11906 134.66437Q252.72844 134.66437 253.11906 134.14874Q253.50969 133.63312 253.50969 132.28937Q253.50969 131.03937 253.11906 130.53937Q252.72844 130.02374 252.13469 130.02374Z" fill-rule="nonzero"/><path stroke="#ffffff" stroke-width="1.0" stroke-linejoin="round" stroke-linecap="round" d="M320.9508 172.95413C314.77524 168.7437 307.47433 166.49167 300.0 166.49167L300.0 54.916668C329.89728 54.916668 359.10095 63.9248 383.80325 80.76655" fill-rule="nonzero"/><path stroke="#ffffff" stroke-width="1.0" stroke-linejoin="round" stroke-linecap="round" d="M337.08768 200.90399C336.24185 189.61731 330.30246 179.32999 320.9508 172.95413L383.80325 80.76655C421.20984 106.269936 444.9674 147.41922 448.35068 192.56598" fill-rule="nonzero"/><path stroke="#ffffff" stroke-width="1.0" stroke-linejoin="round" stroke-linecap="round" d="M336.2592 211.95926C337.08612 208.33626 337.3654 204.60977 337.08768 200.90399L448.35068 192.56598C449.46152 207.38911 448.34448 222.29503 445.03677 236.78703" fill-rule="nonzero"/><path stroke="#ffffff" stroke-width="1.0" stroke-linejoin="round" stroke-linecap="round" d="M262.91232 200.90399C261.45792 220.31178 275.21204 237.55891 294.45688 240.4596C313.7017 243.36029 331.92844 230.9335 336.2592 211.95926L445.03677 236.78703C427.71378 312.68402 354.8068 362.39117 277.82748 350.7884C200.84816 339.18564 145.83167 270.1971 151.64932 192.56598" fill-rule="nonzero"/><path stroke="#ffffff" stroke-width="1.0" stroke-linejoin="round" stroke-linecap="round" d="M300.0 166.49167C280.53778 166.49167 264.36673 181.49622 262.91232 200.90399L151.64932 192.56598C157.46696 114.934845 222.15118 54.916668 300.0 54.916668" fill-rule="nonzero"/><path fill="#efefef" d="M19.76875 94.58234L19.76875 83.12921L21.33125 83.12921L27.346874 92.11359L27.346874 83.12921L28.8 83.12921L28.8 94.58234L27.2375 94.58234L21.221874 85.58234L21.221874 94.58234L19.76875 94.58234ZM37.01875 93.55109Q36.2375 94.22296 35.51875 94.50421Q34.8 94.76984 33.971874 94.76984Q32.596874 94.76984 31.8625 94.09796Q31.128124 93.42609 31.128124 92.39484Q31.128124 91.78546 31.409374 91.28546Q31.690624 90.76984 32.128124 90.47296Q32.58125 90.16046 33.14375 90.00421Q33.565624 89.89484 34.39375 89.80109Q36.096874 89.59796 36.909374 89.31671Q36.909374 89.01984 36.909374 88.94171Q36.909374 88.08234 36.51875 87.73859Q35.971874 87.25421 34.909374 87.25421Q33.925 87.25421 33.440624 87.61359Q32.971874 87.95734 32.753124 88.83234L31.378124 88.64484Q31.565624 87.76984 31.9875 87.22296Q32.425 86.67609 33.2375 86.39484Q34.05 86.09796 35.1125 86.09796Q36.175 86.09796 36.83125 86.34796Q37.503124 86.59796 37.815624 86.97296Q38.128124 87.34796 38.253124 87.92609Q38.33125 88.28546 38.33125 89.22296L38.33125 91.09796Q38.33125 93.06671 38.409374 93.58234Q38.503124 94.09796 38.76875 94.58234L37.3 94.58234Q37.08125 94.14484 37.01875 93.55109ZM36.909374 90.41046Q36.14375 90.72296 34.6125 90.94171Q33.7375 91.06671 33.378124 91.22296Q33.01875 91.37921 32.815624 91.69171Q32.628124 91.98859 32.628124 92.34796Q32.628124 92.91046 33.05 93.28546Q33.4875 93.66046 34.3 93.66046Q35.1125 93.66046 35.7375 93.31671Q36.378124 92.95734 36.675 92.33234Q36.909374 91.86359 36.909374 90.92609L36.909374 90.41046ZM43.675 93.31671L43.878124 94.56671Q43.284374 94.69171 42.815624 94.69171Q42.05 94.69171 41.628124 94.45734Q41.20625 94.20734 41.034374 93.81671Q40.8625 93.41046 40.8625 92.14484L40.8625 87.37921L39.83125 87.37921L39.83125 86.28546L40.8625 86.28546L40.8625 84.22296L42.26875 83.37921L42.26875 86.28546L43.675 86.28546L43.675 87.37921L42.26875 87.37921L42.26875 92.22296Q42.26875 92.83234 42.33125 93.00421Q42.409374 93.17609 42.58125 93.28546Q42.753124 93.37921 43.065624 93.37921Q43.3 93.37921 43.675 93.31671ZM50.05 94.58234L50.05 93.36359Q49.08125 94.76984 47.409374 94.76984Q46.675 94.76984 46.034374 94.48859Q45.409374 94.20734 45.096874 93.78546Q44.784374 93.34796 44.659374 92.73859Q44.58125 92.31671 44.58125 91.42609L44.58125 86.28546L45.9875 86.28546L45.9875 90.87921Q45.9875 91.98859 46.065624 92.36359Q46.20625 92.92609 46.628124 93.23859Q47.065624 93.55109 47.690624 93.55109Q48.33125 93.55109 48.878124 93.23859Q49.440624 92.91046 49.659374 92.34796Q49.89375 91.78546 49.89375 90.72296L49.89375 86.28546L51.3 86.28546L51.3 94.58234L50.05 94.58234ZM53.596874 94.58234L53.596874 86.28546L54.8625 86.28546L54.8625 87.53546Q55.346874 86.66046 55.753124 86.37921Q56.159374 86.09796 56.659374 86.09796Q57.3625 86.09796 58.096874 86.55109L57.6125 87.84796Q57.096874 87.55109 56.58125 87.55109Q56.128124 87.55109 55.753124 87.83234Q55.39375 88.09796 55.2375 88.59796Q55.003124 89.34796 55.003124 90.23859L55.003124 94.58234L53.596874 94.58234ZM64.28438 91.91046L65.7375 92.08234Q65.39375 93.36359 64.45625 94.06671Q63.534374 94.76984 62.096874 94.76984Q60.26875 94.76984 59.20625 93.64484Q58.14375 92.51984 58.14375 90.50421Q58.14375 88.41046 59.221874 87.25421Q60.3 86.09796 62.01875 86.09796Q63.675 86.09796 64.72188 87.23859Q65.78438 88.36359 65.78438 90.41046Q65.78438 90.53546 65.78438 90.78546L59.596874 90.78546Q59.675 92.16046 60.3625 92.89484Q61.065624 93.61359 62.096874 93.61359Q62.878124 93.61359 63.425 93.20734Q63.971874 92.80109 64.28438 91.91046ZM59.675 89.62921L64.3 89.62921Q64.20625 88.58234 63.76875 88.06671Q63.096874 87.25421 62.034374 87.25421Q61.065624 87.25421 60.39375 87.91046Q59.7375 88.55109 59.675 89.62921ZM67.05 92.09796L68.44063 91.87921Q68.55 92.72296 69.08125 93.17609Q69.62813 93.61359 70.58125 93.61359Q71.55 93.61359 72.01875 93.22296Q72.4875 92.81671 72.4875 92.28546Q72.4875 91.81671 72.08125 91.53546Q71.78438 91.34796 70.64375 91.06671Q69.09688 90.67609 68.4875 90.39484Q67.89375 90.09796 67.58125 89.59796Q67.28438 89.09796 67.28438 88.48859Q67.28438 87.92609 67.53438 87.45734Q67.78438 86.98859 68.22188 86.67609Q68.55 86.42609 69.1125 86.26984Q69.69063 86.09796 70.33125 86.09796Q71.31563 86.09796 72.05 86.37921Q72.78438 86.66046 73.12813 87.14484Q73.4875 87.61359 73.62813 88.42609L72.25313 88.61359Q72.15938 87.97296 71.70625 87.61359Q71.25313 87.25421 70.44063 87.25421Q69.47188 87.25421 69.05 87.58234Q68.64375 87.89484 68.64375 88.31671Q68.64375 88.59796 68.81563 88.81671Q68.9875 89.03546 69.34688 89.19171Q69.56563 89.26984 70.59688 89.55109Q72.08125 89.94171 72.675 90.20734Q73.26875 90.45734 73.59688 90.94171Q73.94063 91.42609 73.94063 92.14484Q73.94063 92.84796 73.51875 93.47296Q73.1125 94.08234 72.33125 94.42609Q71.56563 94.76984 70.59688 94.76984Q68.97188 94.76984 68.12813 94.09796Q67.28438 93.42609 67.05 92.09796ZM81.01875 91.53546L82.40938 91.72296Q82.175 93.14484 81.2375 93.95734Q80.31563 94.76984 78.95625 94.76984Q77.25313 94.76984 76.20625 93.66046Q75.175 92.53546 75.175 90.45734Q75.175 89.11359 75.6125 88.11359Q76.06563 87.09796 76.97188 86.59796Q77.89375 86.09796 78.95625 86.09796Q80.31563 86.09796 81.175 86.78546Q82.03438 87.45734 82.26875 88.72296L80.90938 88.92609Q80.70625 88.09796 80.20625 87.67609Q79.72188 87.25421 79.01875 87.25421Q77.95625 87.25421 77.28438 88.01984Q76.62813 88.76984 76.62813 90.42609Q76.62813 92.09796 77.26875 92.86359Q77.90938 93.61359 78.94063 93.61359Q79.76875 93.61359 80.31563 93.11359Q80.87813 92.59796 81.01875 91.53546ZM89.01875 93.55109Q88.2375 94.22296 87.51875 94.50421Q86.8 94.76984 85.97188 94.76984Q84.59688 94.76984 83.8625 94.09796Q83.12813 93.42609 83.12813 92.39484Q83.12813 91.78546 83.40938 91.28546Q83.69063 90.76984 84.12813 90.47296Q84.58125 90.16046 85.14375 90.00421Q85.56563 89.89484 86.39375 89.80109Q88.09688 89.59796 88.90938 89.31671Q88.90938 89.01984 88.90938 88.94171Q88.90938 88.08234 88.51875 87.73859Q87.97188 87.25421 86.90938 87.25421Q85.925 87.25421 85.44063 87.61359Q84.97188 87.95734 84.75313 88.83234L83.37813 88.64484Q83.56563 87.76984 83.9875 87.22296Q84.425 86.67609 85.2375 86.39484Q86.05 86.09796 87.1125 86.09796Q88.175 86.09796 88.83125 86.34796Q89.50313 86.59796 89.81563 86.97296Q90.12813 87.34796 90.25313 87.92609Q90.33125 88.28546 90.33125 89.22296L90.33125 91.09796Q90.33125 93.06671 90.40938 93.58234Q90.50313 94.09796 90.76875 94.58234L89.3 94.58234Q89.08125 94.14484 89.01875 93.55109ZM88.90938 90.41046Q88.14375 90.72296 86.6125 90.94171Q85.7375 91.06671 85.37813 91.22296Q85.01875 91.37921 84.81563 91.69171Q84.62813 91.98859 84.62813 92.34796Q84.62813 92.91046 85.05 93.28546Q85.4875 93.66046 86.3 93.66046Q87.1125 93.66046 87.7375 93.31671Q88.37813 92.95734 88.675 92.33234Q88.90938 91.86359 88.90938 90.92609L88.90938 90.41046ZM92.6125 97.76984L92.6125 86.28546L93.89375 86.28546L93.89375 87.36359Q94.34688 86.72296 94.90938 86.41046Q95.4875 86.09796 96.3 86.09796Q97.3625 86.09796 98.175 86.64484Q98.9875 87.19171 99.39375 88.19171Q99.81563 89.17609 99.81563 90.36359Q99.81563 91.64484 99.34688 92.66046Q98.89375 93.67609 98.01875 94.22296Q97.15938 94.76984 96.19063 94.76984Q95.4875 94.76984 94.925 94.47296Q94.37813 94.17609 94.01875 93.72296L94.01875 97.76984L92.6125 97.76984ZM93.87813 90.47296Q93.87813 92.08234 94.51875 92.84796Q95.175 93.61359 96.09688 93.61359Q97.03438 93.61359 97.70625 92.81671Q98.37813 92.01984 98.37813 90.36359Q98.37813 88.76984 97.72188 87.98859Q97.06563 87.19171 96.15938 87.19171Q95.26875 87.19171 94.56563 88.03546Q93.87813 88.87921 93.87813 90.47296ZM107.28438 91.91046L108.7375 92.08234Q108.39375 93.36359 107.45625 94.06671Q106.53438 94.76984 105.09688 94.76984Q103.26875 94.76984 102.20625 93.64484Q101.14375 92.51984 101.14375 90.50421Q101.14375 88.41046 102.22188 87.25421Q103.3 86.09796 105.01875 86.09796Q106.675 86.09796 107.72188 87.23859Q108.78438 88.36359 108.78438 90.41046Q108.78438 90.53546 108.78438 90.78546L102.59688 90.78546Q102.675 92.16046 103.3625 92.89484Q104.06563 93.61359 105.09688 93.61359Q105.87813 93.61359 106.425 93.20734Q106.97188 92.80109 107.28438 91.91046ZM102.675 89.62921L107.3 89.62921Q107.20625 88.58234 106.76875 88.06671Q106.09688 87.25421 105.03438 87.25421Q104.06563 87.25421 103.39375 87.91046Q102.7375 88.55109 102.675 89.62921Z" fill-rule="nonzero"/><path fill="#9e9e9e" d="M26.6125 115.22296L26.6125 116.58234L19.034374 116.58234Q19.01875 116.06671 19.20625 115.59796Q19.4875 114.83234 20.128124 114.08234Q20.76875 113.33234 21.971874 112.34796Q23.83125 110.81671 24.4875 109.92609Q25.14375 109.01984 25.14375 108.22296Q25.14375 107.39484 24.55 106.81671Q23.95625 106.23859 22.9875 106.23859Q21.971874 106.23859 21.3625 106.84796Q20.753124 107.45734 20.753124 108.53546L19.3 108.39484Q19.45625 106.76984 20.425 105.92609Q21.39375 105.08234 23.01875 105.08234Q24.675 105.08234 25.628124 106.00421Q26.596874 106.91046 26.596874 108.25421Q26.596874 108.94171 26.315624 109.61359Q26.034374 110.26984 25.378124 111.00421Q24.721874 111.73859 23.20625 113.01984Q21.940624 114.08234 21.58125 114.47296Q21.221874 114.84796 20.9875 115.22296L26.6125 115.22296ZM28.221874 113.55109L29.628124 113.36359Q29.878124 114.56671 30.45625 115.09796Q31.034374 115.61359 31.878124 115.61359Q32.8625 115.61359 33.55 114.92609Q34.2375 114.23859 34.2375 113.22296Q34.2375 112.25421 33.596874 111.62921Q32.971874 111.00421 31.9875 111.00421Q31.596874 111.00421 31.003124 111.16046L31.159374 109.92609Q31.3 109.94171 31.378124 109.94171Q32.284374 109.94171 33.003124 109.47296Q33.721874 109.00421 33.721874 108.01984Q33.721874 107.25421 33.190624 106.75421Q32.675 106.23859 31.846874 106.23859Q31.01875 106.23859 30.471874 106.75421Q29.925 107.26984 29.76875 108.30109L28.3625 108.05109Q28.628124 106.62921 29.534374 105.86359Q30.45625 105.08234 31.815624 105.08234Q32.753124 105.08234 33.534374 105.48859Q34.33125 105.87921 34.7375 106.58234Q35.159374 107.26984 35.159374 108.05109Q35.159374 108.80109 34.753124 109.41046Q34.3625 110.01984 33.58125 110.37921Q34.596874 110.61359 35.159374 111.34796Q35.721874 112.08234 35.721874 113.19171Q35.721874 114.69171 34.628124 115.73859Q33.534374 116.78546 31.8625 116.78546Q30.3625 116.78546 29.3625 115.89484Q28.3625 114.98859 28.221874 113.55109ZM38.003124 116.58234L38.003124 114.97296L39.6125 114.97296L39.6125 116.58234L38.003124 116.58234ZM43.378124 110.36359Q42.503124 110.05109 42.08125 109.45734Q41.659374 108.86359 41.659374 108.03546Q41.659374 106.78546 42.55 105.94171Q43.45625 105.08234 44.95625 105.08234Q46.45625 105.08234 47.3625 105.95734Q48.284374 106.81671 48.284374 108.06671Q48.284374 108.86359 47.8625 109.45734Q47.440624 110.05109 46.596874 110.36359Q47.64375 110.70734 48.190624 111.47296Q48.753124 112.23859 48.753124 113.30109Q48.753124 114.76984 47.70625 115.78546Q46.675 116.78546 44.971874 116.78546Q43.284374 116.78546 42.2375 115.78546Q41.20625 114.76984 41.20625 113.26984Q41.20625 112.14484 41.76875 111.39484Q42.33125 110.64484 43.378124 110.36359ZM43.096874 107.98859Q43.096874 108.80109 43.6125 109.31671Q44.14375 109.83234 44.9875 109.83234Q45.8 109.83234 46.315624 109.31671Q46.83125 108.80109 46.83125 108.06671Q46.83125 107.28546 46.3 106.76984Q45.76875 106.23859 44.971874 106.23859Q44.159374 106.23859 43.628124 106.75421Q43.096874 107.26984 43.096874 107.98859ZM42.64375 113.26984Q42.64375 113.87921 42.925 114.44171Q43.221874 115.00421 43.784374 115.31671Q44.346874 115.61359 44.9875 115.61359Q46.003124 115.61359 46.659374 114.97296Q47.315624 114.31671 47.315624 113.31671Q47.315624 112.30109 46.628124 111.64484Q45.95625 110.97296 44.940624 110.97296Q43.95625 110.97296 43.3 111.62921Q42.64375 112.28546 42.64375 113.26984ZM50.4875 107.87921Q50.4875 106.64484 51.096874 105.78546Q51.721874 104.92609 52.89375 104.92609Q53.971874 104.92609 54.675 105.70734Q55.378124 106.47296 55.378124 107.95734Q55.378124 109.41046 54.659374 110.20734Q53.95625 110.98859 52.909374 110.98859Q51.8625 110.98859 51.175 110.22296Q50.4875 109.44171 50.4875 107.87921ZM52.925 105.89484Q52.409374 105.89484 52.05 106.34796Q51.70625 106.80109 51.70625 108.01984Q51.70625 109.11359 52.05 109.56671Q52.409374 110.01984 52.925 110.01984Q53.45625 110.01984 53.8 109.56671Q54.159374 109.11359 54.159374 107.91046Q54.159374 106.80109 53.8 106.34796Q53.45625 105.89484 52.925 105.89484ZM52.940624 117.00421L59.20625 104.92609L60.346874 104.92609L54.096874 117.00421L52.940624 117.00421ZM57.89375 113.89484Q57.89375 112.66046 58.503124 111.80109Q59.128124 110.94171 60.3 110.94171Q61.378124 110.94171 62.08125 111.72296Q62.8 112.48859 62.8 113.97296Q62.8 115.42609 62.08125 116.22296Q61.3625 117.00421 60.315624 117.00421Q59.26875 117.00421 58.58125 116.22296Q57.89375 115.44171 57.89375 113.89484ZM60.346874 111.91046Q59.815624 111.91046 59.45625 112.36359Q59.1125 112.81671 59.1125 114.03546Q59.1125 115.12921 59.45625 115.58234Q59.815624 116.03546 60.33125 116.03546Q60.878124 116.03546 61.221874 115.58234Q61.565624 115.12921 61.565624 113.92609Q61.565624 112.81671 61.20625 112.36359Q60.8625 111.91046 60.346874 111.91046Z" fill-rule="nonzero"/><path stroke="#757575" stroke-width="1.0" stroke-linecap="butt" d="M18.55 100.08234L145.23334 100.08234L203.87231 100.08234" fill-rule="nonzero"/><path fill="#9e9e9e" d="M205.87231 100.08234C205.87231 98.97777 204.97688 98.08234 203.87231 98.08234C202.76775 98.08234 201.87231 98.97777 201.87231 100.08234C201.87231 101.186905 202.76775 102.08234 203.87231 102.08234C204.97688 102.08234 205.87231 101.186905 205.87231 100.08234" fill-rule="nonzero"/><path fill="#efefef" d="M19.784374 326.45L19.784374 314.9969L24.1125 314.9969Q25.253124 314.9969 25.846874 315.10626Q26.690624 315.2469 27.253124 315.6375Q27.83125 316.02814 28.175 316.7469Q28.534374 317.45 28.534374 318.3094Q28.534374 319.7625 27.596874 320.77814Q26.675 321.79376 24.2375 321.79376L21.3 321.79376L21.3 326.45L19.784374 326.45ZM21.3 320.4344L24.26875 320.4344Q25.7375 320.4344 26.346874 319.8875Q26.971874 319.34064 26.971874 318.35626Q26.971874 317.6375 26.596874 317.1219Q26.2375 316.60626 25.64375 316.45Q25.26875 316.34064 24.2375 316.34064L21.3 316.34064L21.3 320.4344ZM36.284374 323.77814L37.7375 323.95Q37.39375 325.23126 36.45625 325.9344Q35.534374 326.6375 34.096874 326.6375Q32.26875 326.6375 31.20625 325.5125Q30.14375 324.3875 30.14375 322.3719Q30.14375 320.27814 31.221874 319.1219Q32.3 317.96564 34.01875 317.96564Q35.675 317.96564 36.721874 319.10626Q37.784374 320.23126 37.784374 322.27814Q37.784374 322.40314 37.784374 322.65314L31.596874 322.65314Q31.675 324.02814 32.3625 324.7625Q33.065624 325.48126 34.096874 325.48126Q34.878124 325.48126 35.425 325.075Q35.971874 324.66876 36.284374 323.77814ZM31.675 321.4969L36.3 321.4969Q36.20625 320.45 35.76875 319.9344Q35.096874 319.1219 34.034374 319.1219Q33.065624 319.1219 32.39375 319.77814Q31.7375 320.41876 31.675 321.4969ZM39.08125 322.29376Q39.08125 319.9969 40.3625 318.8875Q41.440624 317.96564 42.971874 317.96564Q44.690624 317.96564 45.76875 319.09064Q46.8625 320.2 46.8625 322.1844Q46.8625 323.77814 46.378124 324.7Q45.89375 325.6219 44.971874 326.1375Q44.065624 326.6375 42.971874 326.6375Q41.2375 326.6375 40.159374 325.52814Q39.08125 324.40314 39.08125 322.29376ZM40.534374 322.29376Q40.534374 323.8875 41.221874 324.6844Q41.925 325.48126 42.971874 325.48126Q44.01875 325.48126 44.70625 324.6844Q45.409374 323.8875 45.409374 322.2469Q45.409374 320.71564 44.70625 319.91876Q44.01875 319.1219 42.971874 319.1219Q41.925 319.1219 41.221874 319.91876Q40.534374 320.7 40.534374 322.29376ZM48.6125 329.6375L48.6125 318.15314L49.89375 318.15314L49.89375 319.23126Q50.346874 318.59064 50.909374 318.27814Q51.4875 317.96564 52.3 317.96564Q53.3625 317.96564 54.175 318.5125Q54.9875 319.0594 55.39375 320.0594Q55.815624 321.04376 55.815624 322.23126Q55.815624 323.5125 55.346874 324.52814Q54.89375 325.54376 54.01875 326.09064Q53.159374 326.6375 52.190624 326.6375Q51.4875 326.6375 50.925 326.34064Q50.378124 326.04376 50.01875 325.59064L50.01875 329.6375L48.6125 329.6375ZM49.878124 322.34064Q49.878124 323.95 50.51875 324.71564Q51.175 325.48126 52.096874 325.48126Q53.034374 325.48126 53.70625 324.6844Q54.378124 323.8875 54.378124 322.23126Q54.378124 320.6375 53.721874 319.85626Q53.065624 319.0594 52.159374 319.0594Q51.26875 319.0594 50.565624 319.90314Q49.878124 320.7469 49.878124 322.34064ZM57.58125 326.45L57.58125 314.9969L58.9875 314.9969L58.9875 326.45L57.58125 326.45ZM67.28438 323.77814L68.7375 323.95Q68.39375 325.23126 67.45625 325.9344Q66.53438 326.6375 65.09688 326.6375Q63.26875 326.6375 62.20625 325.5125Q61.14375 324.3875 61.14375 322.3719Q61.14375 320.27814 62.221874 319.1219Q63.3 317.96564 65.01875 317.96564Q66.675 317.96564 67.72188 319.10626Q68.78438 320.23126 68.78438 322.27814Q68.78438 322.40314 68.78438 322.65314L62.596874 322.65314Q62.675 324.02814 63.3625 324.7625Q64.06563 325.48126 65.09688 325.48126Q65.87813 325.48126 66.425 325.075Q66.97188 324.66876 67.28438 323.77814ZM62.675 321.4969L67.3 321.4969Q67.20625 320.45 66.76875 319.9344Q66.09688 319.1219 65.03438 319.1219Q64.06563 319.1219 63.39375 319.77814Q62.7375 320.41876 62.675 321.4969Z" fill-rule="nonzero"/><path fill="#9e9e9e" d="M23.721874 348.45L23.721874 345.7L18.753124 345.7L18.753124 344.41876L23.9875 336.9969L25.128124 336.9969L25.128124 344.41876L26.675 344.41876L26.675 345.7L25.128124 345.7L25.128124 348.45L23.721874 348.45ZM23.721874 344.41876L23.721874 339.2469L20.14375 344.41876L23.721874 344.41876ZM28.315624 338.4969L28.315624 337.1375L35.721874 337.1375L35.721874 338.23126Q34.628124 339.40314 33.55 341.34064Q32.4875 343.2625 31.89375 345.29376Q31.471874 346.73126 31.3625 348.45L29.909374 348.45Q29.940624 347.09064 30.440624 345.1844Q30.95625 343.2625 31.89375 341.4969Q32.846874 339.71564 33.925 338.4969L28.315624 338.4969ZM38.003124 348.45L38.003124 346.84064L39.6125 346.84064L39.6125 348.45L38.003124 348.45ZM48.51875 339.79376L47.1125 339.90314Q46.925 339.075 46.58125 338.7Q46.01875 338.10626 45.175 338.10626Q44.503124 338.10626 44.003124 338.48126Q43.33125 338.96564 42.940624 339.90314Q42.565624 340.825 42.55 342.54376Q43.065624 341.7625 43.8 341.3875Q44.534374 341.0125 45.33125 341.0125Q46.7375 341.0125 47.721874 342.0594Q48.721874 343.09064 48.721874 344.73126Q48.721874 345.8094 48.253124 346.73126Q47.784374 347.65314 46.971874 348.15314Q46.159374 348.65314 45.128124 348.65314Q43.378124 348.65314 42.26875 347.35626Q41.159374 346.0594 41.159374 343.09064Q41.159374 339.7625 42.378124 338.2625Q43.45625 336.95 45.26875 336.95Q46.6125 336.95 47.471874 337.71564Q48.346874 338.46564 48.51875 339.79376ZM42.76875 344.73126Q42.76875 345.46564 43.08125 346.1375Q43.39375 346.79376 43.940624 347.1375Q44.503124 347.48126 45.1125 347.48126Q46.003124 347.48126 46.64375 346.7625Q47.284374 346.04376 47.284374 344.8094Q47.284374 343.6219 46.64375 342.95Q46.01875 342.2625 45.05 342.2625Q44.096874 342.2625 43.425 342.95Q42.76875 343.6219 42.76875 344.73126ZM50.4875 339.7469Q50.4875 338.5125 51.096874 337.65314Q51.721874 336.79376 52.89375 336.79376Q53.971874 336.79376 54.675 337.575Q55.378124 338.34064 55.378124 339.825Q55.378124 341.27814 54.659374 342.075Q53.95625 342.85626 52.909374 342.85626Q51.8625 342.85626 51.175 342.09064Q50.4875 341.3094 50.4875 339.7469ZM52.925 337.7625Q52.409374 337.7625 52.05 338.21564Q51.70625 338.66876 51.70625 339.8875Q51.70625 340.98126 52.05 341.4344Q52.409374 341.8875 52.925 341.8875Q53.45625 341.8875 53.8 341.4344Q54.159374 340.98126 54.159374 339.77814Q54.159374 338.66876 53.8 338.21564Q53.45625 337.7625 52.925 337.7625ZM52.940624 348.8719L59.20625 336.79376L60.346874 336.79376L54.096874 348.8719L52.940624 348.8719ZM57.89375 345.7625Q57.89375 344.52814 58.503124 343.66876Q59.128124 342.8094 60.3 342.8094Q61.378124 342.8094 62.08125 343.59064Q62.8 344.35626 62.8 345.84064Q62.8 347.29376 62.08125 348.09064Q61.3625 348.8719 60.315624 348.8719Q59.26875 348.8719 58.58125 348.09064Q57.89375 347.3094 57.89375 345.7625ZM60.346874 343.77814Q59.815624 343.77814 59.45625 344.23126Q59.1125 344.6844 59.1125 345.90314Q59.1125 346.9969 59.45625 347.45Q59.815624 347.90314 60.33125 347.90314Q60.878124 347.90314 61.221874 347.45Q61.565624 346.9969 61.565624 345.79376Q61.565624 344.6844 61.20625 344.23126Q60.8625 343.77814 60.346874 343.77814Z" fill-rule="nonzero"/><path stroke="#757575" stroke-width="1.0" stroke-linecap="butt" d="M18.55 331.95L145.23334 331.95L278.9361 343.43314" fill-rule="nonzero"/><path fill="#9e9e9e" d="M280.9361 343.43314C280.9361 342.32858 280.04068 341.43314 278.9361 341.43314C277.83154 341.43314 276.9361 342.32858 276.9361 343.43314C276.9361 344.53772 277.83154 345.43314 278.9361 345.43314C280.04068 345.43314 280.9361 344.53772 280.9361 343.43314" fill-rule="nonzero"/><path fill="#efefef" d="M551.6375 69.916664L551.6375 58.46354L553.91876 58.46354L556.6375 66.572914Q557.0125 67.697914 557.1844 68.260414Q557.3719 67.635414 557.79376 66.43229L560.52814 58.46354L562.575 58.46354L562.575 69.916664L561.10626 69.916664L561.10626 60.322914L557.77814 69.916664L556.41876 69.916664L553.10626 60.166664L553.10626 69.916664L551.6375 69.916664ZM569.91876 68.885414Q569.1375 69.55729 568.41876 69.83854Q567.7 70.104164 566.8719 70.104164Q565.4969 70.104164 564.7625 69.43229Q564.02814 68.760414 564.02814 67.729164Q564.02814 67.11979 564.3094 66.61979Q564.59064 66.104164 565.02814 65.80729Q565.48126 65.49479 566.04376 65.33854Q566.46564 65.229164 567.29376 65.135414Q568.9969 64.93229 569.8094 64.65104Q569.8094 64.354164 569.8094 64.27604Q569.8094 63.416664 569.41876 63.072914Q568.8719 62.58854 567.8094 62.58854Q566.825 62.58854 566.34064 62.947914Q565.8719 63.291664 565.65314 64.166664L564.27814 63.979164Q564.46564 63.104164 564.8875 62.55729Q565.325 62.010414 566.1375 61.729164Q566.95 61.43229 568.0125 61.43229Q569.075 61.43229 569.73126 61.68229Q570.40314 61.93229 570.71564 62.30729Q571.02814 62.68229 571.15314 63.260414Q571.23126 63.61979 571.23126 64.55729L571.23126 66.43229Q571.23126 68.40104 571.3094 68.916664Q571.40314 69.43229 571.66876 69.916664L570.2 69.916664Q569.98126 69.479164 569.91876 68.885414ZM569.8094 65.74479Q569.04376 66.05729 567.5125 66.27604Q566.6375 66.40104 566.27814 66.55729Q565.91876 66.71354 565.71564 67.02604Q565.52814 67.322914 565.52814 67.68229Q565.52814 68.24479 565.95 68.61979Q566.3875 68.99479 567.2 68.99479Q568.0125 68.99479 568.6375 68.65104Q569.27814 68.291664 569.575 67.666664Q569.8094 67.197914 569.8094 66.260414L569.8094 65.74479ZM573.5125 73.104164L573.5125 61.61979L574.79376 61.61979L574.79376 62.697914Q575.2469 62.05729 575.8094 61.74479Q576.3875 61.43229 577.2 61.43229Q578.2625 61.43229 579.075 61.979164Q579.8875 62.52604 580.29376 63.52604Q580.71564 64.510414 580.71564 65.697914Q580.71564 66.979164 580.2469 67.99479Q579.79376 69.010414 578.91876 69.55729Q578.0594 70.104164 577.09064 70.104164Q576.3875 70.104164 575.825 69.80729Q575.27814 69.510414 574.91876 69.05729L574.91876 73.104164L573.5125 73.104164ZM574.77814 65.80729Q574.77814 67.416664 575.41876 68.18229Q576.075 68.947914 576.9969 68.947914Q577.9344 68.947914 578.60626 68.15104Q579.27814 67.354164 579.27814 65.697914Q579.27814 64.104164 578.6219 63.322914Q577.96564 62.52604 577.0594 62.52604Q576.16876 62.52604 575.46564 63.36979Q574.77814 64.21354 574.77814 65.80729Z" fill-rule="nonzero"/><path fill="#9e9e9e" d="M546.325 89.260414L547.6844 89.135414Q547.85626 90.08854 548.34064 90.52604Q548.825 90.947914 549.575 90.947914Q550.23126 90.947914 550.71564 90.65104Q551.2 90.354164 551.5125 89.86979Q551.825 89.36979 552.02814 88.52604Q552.2469 87.68229 552.2469 86.80729Q552.2469 86.71354 552.2469 86.52604Q551.825 87.197914 551.09064 87.61979Q550.35626 88.02604 549.5125 88.02604Q548.09064 88.02604 547.10626 86.99479Q546.1219 85.96354 546.1219 84.27604Q546.1219 82.541664 547.1375 81.479164Q548.16876 80.416664 549.71564 80.416664Q550.84064 80.416664 551.7625 81.02604Q552.6844 81.61979 553.16876 82.729164Q553.65314 83.83854 553.65314 85.947914Q553.65314 88.15104 553.16876 89.447914Q552.7 90.74479 551.7469 91.43229Q550.8094 92.11979 549.54376 92.11979Q548.2 92.11979 547.34064 91.36979Q546.4969 90.61979 546.325 89.260414ZM552.09064 84.21354Q552.09064 82.99479 551.4344 82.291664Q550.79376 81.572914 549.8875 81.572914Q548.95 81.572914 548.2469 82.33854Q547.5594 83.104164 547.5594 84.322914Q547.5594 85.416664 548.21564 86.104164Q548.8875 86.791664 549.85626 86.791664Q550.825 86.791664 551.45 86.104164Q552.09064 85.416664 552.09064 84.21354ZM555.90314 91.916664L555.90314 90.30729L557.5125 90.30729L557.5125 91.916664L555.90314 91.916664ZM559.1219 88.916664L560.59064 88.791664Q560.7625 89.86979 561.35626 90.416664Q561.95 90.947914 562.79376 90.947914Q563.8094 90.947914 564.5125 90.18229Q565.21564 89.416664 565.21564 88.15104Q565.21564 86.947914 564.54376 86.260414Q563.8719 85.55729 562.77814 85.55729Q562.09064 85.55729 561.54376 85.86979Q560.9969 86.18229 560.6844 86.666664L559.3719 86.49479L560.48126 80.61979L566.16876 80.61979L566.16876 81.96354L561.60626 81.96354L560.98126 85.041664Q562.0125 84.322914 563.15314 84.322914Q564.65314 84.322914 565.6844 85.36979Q566.71564 86.40104 566.71564 88.02604Q566.71564 89.58854 565.8094 90.71354Q564.7 92.11979 562.79376 92.11979Q561.23126 92.11979 560.2469 91.24479Q559.2625 90.354164 559.1219 88.916664ZM568.3875 83.21354Q568.3875 81.979164 568.9969 81.11979Q569.6219 80.260414 570.79376 80.260414Q571.8719 80.260414 572.575 81.041664Q573.27814 81.80729 573.27814 83.291664Q573.27814 84.74479 572.5594 85.541664Q571.85626 86.322914 570.8094 86.322914Q569.7625 86.322914 569.075 85.55729Q568.3875 84.77604 568.3875 83.21354ZM570.825 81.229164Q570.3094 81.229164 569.95 81.68229Q569.60626 82.135414 569.60626 83.354164Q569.60626 84.447914 569.95 84.90104Q570.3094 85.354164 570.825 85.354164Q571.35626 85.354164 571.7 84.90104Q572.0594 84.447914 572.0594 83.24479Q572.0594 82.135414 571.7 81.68229Q571.35626 81.229164 570.825 81.229164ZM570.84064 92.33854L577.10626 80.260414L578.2469 80.260414L571.9969 92.33854L570.84064 92.33854ZM575.79376 89.229164Q575.79376 87.99479 576.40314 87.135414Q577.02814 86.27604 578.2 86.27604Q579.27814 86.27604 579.98126 87.05729Q580.7 87.822914 580.7 89.30729Q580.7 90.760414 579.98126 91.55729Q579.2625 92.33854 578.21564 92.33854Q577.16876 92.33854 576.48126 91.55729Q575.79376 90.77604 575.79376 89.229164ZM578.2469 87.24479Q577.71564 87.24479 577.35626 87.697914Q577.0125 88.15104 577.0125 89.36979Q577.0125 90.46354 577.35626 90.916664Q577.71564 91.36979 578.23126 91.36979Q578.77814 91.36979 579.1219 90.916664Q579.46564 90.46354 579.46564 89.260414Q579.46564 88.15104 579.10626 87.697914Q578.7625 87.24479 578.2469 87.24479Z" fill-rule="nonzero"/><path stroke="#757575" stroke-width="1.0" stroke-linecap="butt" d="M581.45 75.416664L454.76666 75.416664L341.65726 68.63382" fill-rule="nonzero"/><path fill="#9e9e9e" d="M343.65726 68.63382C343.65726 67.52925 342.76184 66.63382 341.65726 66.63382C340.55267 66.63382 339.65726 67.52925 339.65726 68.63382C339.65726 69.73839 340.55267 70.63382 341.65726 70.63382C342.76184 70.63382 343.65726 69.73839 343.65726 68.63382" fill-rule="nonzero"/><path fill="#efefef" d="M498.6844 127.519165L498.6844 116.06604L503.0125 116.06604Q504.15314 116.06604 504.7469 116.175415Q505.59064 116.31604 506.15314 116.706665Q506.73126 117.09729 507.075 117.81604Q507.4344 118.519165 507.4344 119.37854Q507.4344 120.831665 506.4969 121.84729Q505.575 122.862915 503.1375 122.862915L500.2 122.862915L500.2 127.519165L498.6844 127.519165ZM500.2 121.50354L503.16876 121.50354Q504.6375 121.50354 505.2469 120.956665Q505.8719 120.40979 505.8719 119.425415Q505.8719 118.706665 505.4969 118.19104Q505.1375 117.675415 504.54376 117.519165Q504.16876 117.40979 503.1375 117.40979L500.2 117.40979L500.2 121.50354ZM515.1844 124.84729L516.6375 125.019165Q516.29376 126.300415 515.35626 127.00354Q514.4344 127.706665 512.9969 127.706665Q511.16876 127.706665 510.10626 126.581665Q509.04376 125.456665 509.04376 123.44104Q509.04376 121.34729 510.1219 120.19104Q511.2 119.03479 512.91876 119.03479Q514.575 119.03479 515.6219 120.175415Q516.6844 121.300415 516.6844 123.34729Q516.6844 123.47229 516.6844 123.72229L510.4969 123.72229Q510.575 125.09729 511.2625 125.831665Q511.96564 126.550415 512.9969 126.550415Q513.77814 126.550415 514.325 126.144165Q514.8719 125.737915 515.1844 124.84729ZM510.575 122.56604L515.2 122.56604Q515.10626 121.519165 514.66876 121.00354Q513.9969 120.19104 512.9344 120.19104Q511.96564 120.19104 511.29376 120.84729Q510.6375 121.487915 510.575 122.56604ZM518.4969 127.519165L518.4969 119.22229L519.7625 119.22229L519.7625 120.47229Q520.2469 119.59729 520.65314 119.31604Q521.0594 119.03479 521.5594 119.03479Q522.2625 119.03479 522.9969 119.487915L522.5125 120.78479Q521.9969 120.487915 521.48126 120.487915Q521.02814 120.487915 520.65314 120.769165Q520.29376 121.03479 520.1375 121.53479Q519.90314 122.28479 519.90314 123.175415L519.90314 127.519165L518.4969 127.519165ZM522.95 125.03479L524.34064 124.81604Q524.45 125.65979 524.98126 126.112915Q525.52814 126.550415 526.48126 126.550415Q527.45 126.550415 527.91876 126.15979Q528.3875 125.75354 528.3875 125.22229Q528.3875 124.75354 527.98126 124.47229Q527.6844 124.28479 526.54376 124.00354Q524.9969 123.612915 524.3875 123.331665Q523.79376 123.03479 523.48126 122.53479Q523.1844 122.03479 523.1844 121.425415Q523.1844 120.862915 523.4344 120.394165Q523.6844 119.925415 524.1219 119.612915Q524.45 119.362915 525.0125 119.206665Q525.59064 119.03479 526.23126 119.03479Q527.21564 119.03479 527.95 119.31604Q528.6844 119.59729 529.02814 120.081665Q529.3875 120.550415 529.52814 121.362915L528.15314 121.550415Q528.0594 120.90979 527.60626 120.550415Q527.15314 120.19104 526.34064 120.19104Q525.3719 120.19104 524.95 120.519165Q524.54376 120.831665 524.54376 121.25354Q524.54376 121.53479 524.71564 121.75354Q524.8875 121.97229 525.2469 122.12854Q525.46564 122.206665 526.4969 122.487915Q527.98126 122.87854 528.575 123.144165Q529.16876 123.394165 529.4969 123.87854Q529.84064 124.362915 529.84064 125.081665Q529.84064 125.78479 529.41876 126.40979Q529.0125 127.019165 528.23126 127.362915Q527.46564 127.706665 526.4969 127.706665Q524.8719 127.706665 524.02814 127.03479Q523.1844 126.362915 522.95 125.03479ZM531.5125 130.70667L531.5125 119.22229L532.79376 119.22229L532.79376 120.300415Q533.2469 119.65979 533.8094 119.34729Q534.3875 119.03479 535.2 119.03479Q536.2625 119.03479 537.075 119.581665Q537.8875 120.12854 538.29376 121.12854Q538.71564 122.112915 538.71564 123.300415Q538.71564 124.581665 538.2469 125.59729Q537.79376 126.612915 536.91876 127.15979Q536.0594 127.706665 535.09064 127.706665Q534.3875 127.706665 533.825 127.40979Q533.27814 127.112915 532.91876 126.65979L532.91876 130.70667L531.5125 130.70667ZM532.77814 123.40979Q532.77814 125.019165 533.41876 125.78479Q534.075 126.550415 534.9969 126.550415Q535.9344 126.550415 536.60626 125.75354Q537.27814 124.956665 537.27814 123.300415Q537.27814 121.706665 536.6219 120.925415Q535.96564 120.12854 535.0594 120.12854Q534.16876 120.12854 533.46564 120.97229Q532.77814 121.81604 532.77814 123.40979ZM546.1844 124.84729L547.6375 125.019165Q547.29376 126.300415 546.35626 127.00354Q545.4344 127.706665 543.9969 127.706665Q542.16876 127.706665 541.10626 126.581665Q540.04376 125.456665 540.04376 123.44104Q540.04376 121.34729 541.1219 120.19104Q542.2 119.03479 543.91876 119.03479Q545.575 119.03479 546.6219 120.175415Q547.6844 121.300415 547.6844 123.34729Q547.6844 123.47229 547.6844 123.72229L541.4969 123.72229Q541.575 125.09729 542.2625 125.831665Q542.96564 126.550415 543.9969 126.550415Q544.77814 126.550415 545.325 126.144165Q545.8719 125.737915 546.1844 124.84729ZM541.575 122.56604L546.2 122.56604Q546.10626 121.519165 545.66876 121.00354Q544.9969 120.19104 543.9344 120.19104Q542.96564 120.19104 542.29376 120.84729Q541.6375 121.487915 541.575 122.56604ZM554.91876 124.47229L556.3094 124.65979Q556.075 126.081665 555.1375 126.894165Q554.21564 127.706665 552.85626 127.706665Q551.15314 127.706665 550.10626 126.59729Q549.075 125.47229 549.075 123.394165Q549.075 122.050415 549.5125 121.050415Q549.96564 120.03479 550.8719 119.53479Q551.79376 119.03479 552.85626 119.03479Q554.21564 119.03479 555.075 119.72229Q555.9344 120.394165 556.16876 121.65979L554.8094 121.862915Q554.60626 121.03479 554.10626 120.612915Q553.6219 120.19104 552.91876 120.19104Q551.85626 120.19104 551.1844 120.956665Q550.52814 121.706665 550.52814 123.362915Q550.52814 125.03479 551.16876 125.800415Q551.8094 126.550415 552.84064 126.550415Q553.66876 126.550415 554.21564 126.050415Q554.77814 125.53479 554.91876 124.47229ZM560.575 126.25354L560.77814 127.50354Q560.1844 127.62854 559.71564 127.62854Q558.95 127.62854 558.52814 127.394165Q558.10626 127.144165 557.9344 126.75354Q557.7625 126.34729 557.7625 125.081665L557.7625 120.31604L556.73126 120.31604L556.73126 119.22229L557.7625 119.22229L557.7625 117.15979L559.16876 116.31604L559.16876 119.22229L560.575 119.22229L560.575 120.31604L559.16876 120.31604L559.16876 125.15979Q559.16876 125.769165 559.23126 125.94104Q559.3094 126.112915 559.48126 126.22229Q559.65314 126.31604 559.96564 126.31604Q560.2 126.31604 560.575 126.25354ZM561.5125 117.675415L561.5125 116.06604L562.91876 116.06604L562.91876 117.675415L561.5125 117.675415ZM561.5125 127.519165L561.5125 119.22229L562.91876 119.22229L562.91876 127.519165L561.5125 127.519165ZM567.8094 127.519165L564.65314 119.22229L566.1375 119.22229L567.91876 124.19104Q568.21564 124.987915 568.45 125.862915Q568.6375 125.206665 568.98126 124.28479L570.825 119.22229L572.2625 119.22229L569.1219 127.519165L567.8094 127.519165ZM579.1844 124.84729L580.6375 125.019165Q580.29376 126.300415 579.35626 127.00354Q578.4344 127.706665 576.9969 127.706665Q575.16876 127.706665 574.10626 126.581665Q573.04376 125.456665 573.04376 123.44104Q573.04376 121.34729 574.1219 120.19104Q575.2 119.03479 576.91876 119.03479Q578.575 119.03479 579.6219 120.175415Q580.6844 121.300415 580.6844 123.34729Q580.6844 123.47229 580.6844 123.72229L574.4969 123.72229Q574.575 125.09729 575.2625 125.831665Q575.96564 126.550415 576.9969 126.550415Q577.77814 126.550415 578.325 126.144165Q578.8719 125.737915 579.1844 124.84729ZM574.575 122.56604L579.2 122.56604Q579.10626 121.519165 578.66876 121.00354Q577.9969 120.19104 576.9344 120.19104Q575.96564 120.19104 575.29376 120.84729Q574.6375 121.487915 574.575 122.56604Z" fill-rule="nonzero"/><path fill="#9e9e9e" d="M542.41876 149.51917L541.0125 149.51917L541.0125 140.55042Q540.4969 141.03479 539.66876 141.51917Q538.85626 142.00354 538.2 142.25354L538.2 140.89417Q539.3719 140.33167 540.2469 139.55042Q541.1375 138.75354 541.5125 138.01917L542.41876 138.01917L542.41876 149.51917ZM550.6219 149.51917L550.6219 146.76917L545.65314 146.76917L545.65314 145.48792L550.8875 138.06604L552.02814 138.06604L552.02814 145.48792L553.575 145.48792L553.575 146.76917L552.02814 146.76917L552.02814 149.51917L550.6219 149.51917ZM550.6219 145.48792L550.6219 140.31604L547.04376 145.48792L550.6219 145.48792ZM555.90314 149.51917L555.90314 147.90979L557.5125 147.90979L557.5125 149.51917L555.90314 149.51917ZM559.1219 146.48792L560.52814 146.30042Q560.77814 147.50354 561.35626 148.03479Q561.9344 148.55042 562.77814 148.55042Q563.7625 148.55042 564.45 147.86292Q565.1375 147.17542 565.1375 146.15979Q565.1375 145.19104 564.4969 144.56604Q563.8719 143.94104 562.8875 143.94104Q562.4969 143.94104 561.90314 144.09729L562.0594 142.86292Q562.2 142.87854 562.27814 142.87854Q563.1844 142.87854 563.90314 142.40979Q564.6219 141.94104 564.6219 140.95667Q564.6219 140.19104 564.09064 139.69104Q563.575 139.17542 562.7469 139.17542Q561.91876 139.17542 561.3719 139.69104Q560.825 140.20667 560.66876 141.23792L559.2625 140.98792Q559.52814 139.56604 560.4344 138.80042Q561.35626 138.01917 562.71564 138.01917Q563.65314 138.01917 564.4344 138.42542Q565.23126 138.81604 565.6375 139.51917Q566.0594 140.20667 566.0594 140.98792Q566.0594 141.73792 565.65314 142.34729Q565.2625 142.95667 564.48126 143.31604Q565.4969 143.55042 566.0594 144.28479Q566.6219 145.01917 566.6219 146.12854Q566.6219 147.62854 565.52814 148.67542Q564.4344 149.72229 562.7625 149.72229Q561.2625 149.72229 560.2625 148.83167Q559.2625 147.92542 559.1219 146.48792ZM568.3875 140.81604Q568.3875 139.58167 568.9969 138.72229Q569.6219 137.86292 570.79376 137.86292Q571.8719 137.86292 572.575 138.64417Q573.27814 139.40979 573.27814 140.89417Q573.27814 142.34729 572.5594 143.14417Q571.85626 143.92542 570.8094 143.92542Q569.7625 143.92542 569.075 143.15979Q568.3875 142.37854 568.3875 140.81604ZM570.825 138.83167Q570.3094 138.83167 569.95 139.28479Q569.60626 139.73792 569.60626 140.95667Q569.60626 142.05042 569.95 142.50354Q570.3094 142.95667 570.825 142.95667Q571.35626 142.95667 571.7 142.50354Q572.0594 142.05042 572.0594 140.84729Q572.0594 139.73792 571.7 139.28479Q571.35626 138.83167 570.825 138.83167ZM570.84064 149.94104L577.10626 137.86292L578.2469 137.86292L571.9969 149.94104L570.84064 149.94104ZM575.79376 146.83167Q575.79376 145.59729 576.40314 144.73792Q577.02814 143.87854 578.2 143.87854Q579.27814 143.87854 579.98126 144.65979Q580.7 145.42542 580.7 146.90979Q580.7 148.36292 579.98126 149.15979Q579.2625 149.94104 578.21564 149.94104Q577.16876 149.94104 576.48126 149.15979Q575.79376 148.37854 575.79376 146.83167ZM578.2469 144.84729Q577.71564 144.84729 577.35626 145.30042Q577.0125 145.75354 577.0125 146.97229Q577.0125 148.06604 577.35626 148.51917Q577.71564 148.97229 578.23126 148.97229Q578.77814 148.97229 579.1219 148.51917Q579.46564 148.06604 579.46564 146.86292Q579.46564 145.75354 579.10626 145.30042Q578.7625 144.84729 578.2469 144.84729Z" fill-rule="nonzero"/><path stroke="#757575" stroke-width="1.0" stroke-linecap="butt" d="M581.45 133.01917L454.76666 133.01917L422.39392 133.01917" fill-rule="nonzero"/><path fill="#9e9e9e" d="M424.39392 133.01917C424.39392 131.9146 423.4985 131.01917 422.39392 131.01917C421.28937 131.01917 420.39392 131.9146 420.39392 133.01917C420.39392 134.12373 421.28937 135.01917 422.39392 135.01917C423.4985 135.01917 424.39392 134.12373 424.39392 133.01917" fill-rule="nonzero"/><path fill="#efefef" d="M532.6844 208.74481L532.6844 197.29169L536.6375 197.29169Q537.96564 197.29169 538.66876 197.44794Q539.65314 197.68231 540.35626 198.27606Q541.2625 199.04169 541.7 200.22919Q542.15314 201.41669 542.15314 202.94794Q542.15314 204.26044 541.84064 205.27606Q541.54376 206.27606 541.0594 206.93231Q540.59064 207.58856 540.02814 207.97919Q539.46564 208.35419 538.65314 208.55731Q537.85626 208.74481 536.825 208.74481L532.6844 208.74481ZM534.2 207.38544L536.65314 207.38544Q537.77814 207.38544 538.41876 207.18231Q539.075 206.96356 539.45 206.58856Q539.9969 206.04169 540.29376 205.13544Q540.59064 204.22919 540.59064 202.93231Q540.59064 201.13544 539.9969 200.16669Q539.41876 199.19794 538.575 198.86981Q537.96564 198.63544 536.60626 198.63544L534.2 198.63544L534.2 207.38544ZM550.1844 206.07294L551.6375 206.24481Q551.29376 207.52606 550.35626 208.22919Q549.4344 208.93231 547.9969 208.93231Q546.16876 208.93231 545.10626 207.80731Q544.04376 206.68231 544.04376 204.66669Q544.04376 202.57294 545.1219 201.41669Q546.2 200.26044 547.91876 200.26044Q549.575 200.26044 550.6219 201.40106Q551.6844 202.52606 551.6844 204.57294Q551.6844 204.69794 551.6844 204.94794L545.4969 204.94794Q545.575 206.32294 546.2625 207.05731Q546.96564 207.77606 547.9969 207.77606Q548.77814 207.77606 549.325 207.36981Q549.8719 206.96356 550.1844 206.07294ZM545.575 203.79169L550.2 203.79169Q550.10626 202.74481 549.66876 202.22919Q548.9969 201.41669 547.9344 201.41669Q546.96564 201.41669 546.29376 202.07294Q545.6375 202.71356 545.575 203.79169ZM556.575 207.47919L556.77814 208.72919Q556.1844 208.85419 555.71564 208.85419Q554.95 208.85419 554.52814 208.61981Q554.10626 208.36981 553.9344 207.97919Q553.7625 207.57294 553.7625 206.30731L553.7625 201.54169L552.73126 201.54169L552.73126 200.44794L553.7625 200.44794L553.7625 198.38544L555.16876 197.54169L555.16876 200.44794L556.575 200.44794L556.575 201.54169L555.16876 201.54169L555.16876 206.38544Q555.16876 206.99481 555.23126 207.16669Q555.3094 207.33856 555.48126 207.44794Q555.65314 207.54169 555.96564 207.54169Q556.2 207.54169 556.575 207.47919ZM562.91876 207.71356Q562.1375 208.38544 561.41876 208.66669Q560.7 208.93231 559.8719 208.93231Q558.4969 208.93231 557.7625 208.26044Q557.02814 207.58856 557.02814 206.55731Q557.02814 205.94794 557.3094 205.44794Q557.59064 204.93231 558.02814 204.63544Q558.48126 204.32294 559.04376 204.16669Q559.46564 204.05731 560.29376 203.96356Q561.9969 203.76044 562.8094 203.47919Q562.8094 203.18231 562.8094 203.10419Q562.8094 202.24481 562.41876 201.90106Q561.8719 201.41669 560.8094 201.41669Q559.825 201.41669 559.34064 201.77606Q558.8719 202.11981 558.65314 202.99481L557.27814 202.80731Q557.46564 201.93231 557.8875 201.38544Q558.325 200.83856 559.1375 200.55731Q559.95 200.26044 561.0125 200.26044Q562.075 200.26044 562.73126 200.51044Q563.40314 200.76044 563.71564 201.13544Q564.02814 201.51044 564.15314 202.08856Q564.23126 202.44794 564.23126 203.38544L564.23126 205.26044Q564.23126 207.22919 564.3094 207.74481Q564.40314 208.26044 564.66876 208.74481L563.2 208.74481Q562.98126 208.30731 562.91876 207.71356ZM562.8094 204.57294Q562.04376 204.88544 560.5125 205.10419Q559.6375 205.22919 559.27814 205.38544Q558.91876 205.54169 558.71564 205.85419Q558.52814 206.15106 558.52814 206.51044Q558.52814 207.07294 558.95 207.44794Q559.3875 207.82294 560.2 207.82294Q561.0125 207.82294 561.6375 207.47919Q562.27814 207.11981 562.575 206.49481Q562.8094 206.02606 562.8094 205.08856L562.8094 204.57294ZM566.5125 198.90106L566.5125 197.29169L567.91876 197.29169L567.91876 198.90106L566.5125 198.90106ZM566.5125 208.74481L566.5125 200.44794L567.91876 200.44794L567.91876 208.74481L566.5125 208.74481ZM570.48126 208.74481L570.48126 197.29169L571.8875 197.29169L571.8875 208.74481L570.48126 208.74481ZM573.95 206.26044L575.34064 206.04169Q575.45 206.88544 575.98126 207.33856Q576.52814 207.77606 577.48126 207.77606Q578.45 207.77606 578.91876 207.38544Q579.3875 206.97919 579.3875 206.44794Q579.3875 205.97919 578.98126 205.69794Q578.6844 205.51044 577.54376 205.22919Q575.9969 204.83856 575.3875 204.55731Q574.79376 204.26044 574.48126 203.76044Q574.1844 203.26044 574.1844 202.65106Q574.1844 202.08856 574.4344 201.61981Q574.6844 201.15106 575.1219 200.83856Q575.45 200.58856 576.0125 200.43231Q576.59064 200.26044 577.23126 200.26044Q578.21564 200.26044 578.95 200.54169Q579.6844 200.82294 580.02814 201.30731Q580.3875 201.77606 580.52814 202.58856L579.15314 202.77606Q579.0594 202.13544 578.60626 201.77606Q578.15314 201.41669 577.34064 201.41669Q576.3719 201.41669 575.95 201.74481Q575.54376 202.05731 575.54376 202.47919Q575.54376 202.76044 575.71564 202.97919Q575.8875 203.19794 576.2469 203.35419Q576.46564 203.43231 577.4969 203.71356Q578.98126 204.10419 579.575 204.36981Q580.16876 204.61981 580.4969 205.10419Q580.84064 205.58856 580.84064 206.30731Q580.84064 207.01044 580.41876 207.63544Q580.0125 208.24481 579.23126 208.58856Q578.46564 208.93231 577.4969 208.93231Q575.8719 208.93231 575.02814 208.26044Q574.1844 207.58856 573.95 206.26044Z" fill-rule="nonzero"/><path fill="#9e9e9e" d="M550.6219 230.74481L550.6219 227.99481L545.65314 227.99481L545.65314 226.71356L550.8875 219.29169L552.02814 219.29169L552.02814 226.71356L553.575 226.71356L553.575 227.99481L552.02814 227.99481L552.02814 230.74481L550.6219 230.74481ZM550.6219 226.71356L550.6219 221.54169L547.04376 226.71356L550.6219 226.71356ZM555.90314 230.74481L555.90314 229.13544L557.5125 229.13544L557.5125 230.74481L555.90314 230.74481ZM561.27814 224.52606Q560.40314 224.21356 559.98126 223.61981Q559.5594 223.02606 559.5594 222.19794Q559.5594 220.94794 560.45 220.10419Q561.35626 219.24481 562.85626 219.24481Q564.35626 219.24481 565.2625 220.11981Q566.1844 220.97919 566.1844 222.22919Q566.1844 223.02606 565.7625 223.61981Q565.34064 224.21356 564.4969 224.52606Q565.54376 224.86981 566.09064 225.63544Q566.65314 226.40106 566.65314 227.46356Q566.65314 228.93231 565.60626 229.94794Q564.575 230.94794 562.8719 230.94794Q561.1844 230.94794 560.1375 229.94794Q559.10626 228.93231 559.10626 227.43231Q559.10626 226.30731 559.66876 225.55731Q560.23126 224.80731 561.27814 224.52606ZM560.9969 222.15106Q560.9969 222.96356 561.5125 223.47919Q562.04376 223.99481 562.8875 223.99481Q563.7 223.99481 564.21564 223.47919Q564.73126 222.96356 564.73126 222.22919Q564.73126 221.44794 564.2 220.93231Q563.66876 220.40106 562.8719 220.40106Q562.0594 220.40106 561.52814 220.91669Q560.9969 221.43231 560.9969 222.15106ZM560.54376 227.43231Q560.54376 228.04169 560.825 228.60419Q561.1219 229.16669 561.6844 229.47919Q562.2469 229.77606 562.8875 229.77606Q563.90314 229.77606 564.5594 229.13544Q565.21564 228.47919 565.21564 227.47919Q565.21564 226.46356 564.52814 225.80731Q563.85626 225.13544 562.84064 225.13544Q561.85626 225.13544 561.2 225.79169Q560.54376 226.44794 560.54376 227.43231ZM568.3875 222.04169Q568.3875 220.80731 568.9969 219.94794Q569.6219 219.08856 570.79376 219.08856Q571.8719 219.08856 572.575 219.86981Q573.27814 220.63544 573.27814 222.11981Q573.27814 223.57294 572.5594 224.36981Q571.85626 225.15106 570.8094 225.15106Q569.7625 225.15106 569.075 224.38544Q568.3875 223.60419 568.3875 222.04169ZM570.825 220.05731Q570.3094 220.05731 569.95 220.51044Q569.60626 220.96356 569.60626 222.18231Q569.60626 223.27606 569.95 223.72919Q570.3094 224.18231 570.825 224.18231Q571.35626 224.18231 571.7 223.72919Q572.0594 223.27606 572.0594 222.07294Q572.0594 220.96356 571.7 220.51044Q571.35626 220.05731 570.825 220.05731ZM570.84064 231.16669L577.10626 219.08856L578.2469 219.08856L571.9969 231.16669L570.84064 231.16669ZM575.79376 228.05731Q575.79376 226.82294 576.40314 225.96356Q577.02814 225.10419 578.2 225.10419Q579.27814 225.10419 579.98126 225.88544Q580.7 226.65106 580.7 228.13544Q580.7 229.58856 579.98126 230.38544Q579.2625 231.16669 578.21564 231.16669Q577.16876 231.16669 576.48126 230.38544Q575.79376 229.60419 575.79376 228.05731ZM578.2469 226.07294Q577.71564 226.07294 577.35626 226.52606Q577.0125 226.97919 577.0125 228.19794Q577.0125 229.29169 577.35626 229.74481Q577.71564 230.19794 578.23126 230.19794Q578.77814 230.19794 579.1219 229.74481Q579.46564 229.29169 579.46564 228.08856Q579.46564 226.97919 579.10626 226.52606Q578.7625 226.07294 578.2469 226.07294Z" fill-rule="nonzero"/><path stroke="#757575" stroke-width="1.0" stroke-linecap="butt" d="M581.45 214.24481L454.76666 214.24481L440.93314 214.24481" fill-rule="nonzero"/><path fill="#9e9e9e" d="M442.93314 214.24481C442.93314 213.14024 442.03772 212.24481 440.93314 212.24481C439.82858 212.24481 438.93314 213.14024 438.93314 214.24481C438.93314 215.34938 439.82858 216.24481 440.93314 216.24481C442.03772 216.24481 442.93314 215.34938 442.93314 214.24481" fill-rule="nonzero"/><path fill="#f3f3f3" d="M265.98438 37.55L265.98438 23.2375L268.84375 23.2375L272.21875 33.3625Q272.6875 34.784374 272.90625 35.4875Q273.15625 34.70625 273.67188 33.190624L277.09375 23.2375L279.64062 23.2375L279.64062 37.55L277.82812 37.55L277.82812 25.565624L273.65625 37.55L271.95312 37.55L267.8125 25.3625L267.8125 37.55L265.98438 37.55ZM289.92188 34.20625L291.73438 34.440624Q291.3125 36.01875 290.14062 36.909374Q288.98438 37.784374 287.17188 37.784374Q284.90625 37.784374 283.5625 36.39375Q282.23438 34.9875 282.23438 32.45625Q282.23438 29.83125 283.57812 28.39375Q284.92188 26.940624 287.07812 26.940624Q289.15625 26.940624 290.46875 28.3625Q291.79688 29.76875 291.79688 32.346874Q291.79688 32.503124 291.78125 32.815624L284.04688 32.815624Q284.14062 34.51875 285.01562 35.425Q285.89062 36.33125 287.1875 36.33125Q288.15625 36.33125 288.82812 35.83125Q289.51562 35.315624 289.92188 34.20625ZM284.14062 31.3625L289.9375 31.3625Q289.82812 30.065624 289.28125 29.409374Q288.4375 28.39375 287.09375 28.39375Q285.89062 28.39375 285.0625 29.20625Q284.23438 30.003124 284.14062 31.3625ZM300.54688 37.55L300.54688 36.2375Q299.5625 37.784374 297.64062 37.784374Q296.40625 37.784374 295.35938 37.096874Q294.32812 36.409374 293.75 35.190624Q293.1875 33.971874 293.1875 32.378124Q293.1875 30.815624 293.70312 29.55Q294.21875 28.284374 295.25 27.6125Q296.29688 26.940624 297.5625 26.940624Q298.5 26.940624 299.23438 27.346874Q299.96875 27.7375 300.4375 28.3625L300.4375 23.2375L302.17188 23.2375L302.17188 37.55L300.54688 37.55ZM294.98438 32.378124Q294.98438 34.3625 295.82812 35.346874Q296.67188 36.33125 297.8125 36.33125Q298.96875 36.33125 299.76562 35.39375Q300.57812 34.45625 300.57812 32.51875Q300.57812 30.39375 299.75 29.39375Q298.9375 28.39375 297.73438 28.39375Q296.5625 28.39375 295.76562 29.3625Q294.98438 30.315624 294.98438 32.378124ZM304.82812 25.253124L304.82812 23.2375L306.59375 23.2375L306.59375 25.253124L304.82812 25.253124ZM304.82812 37.55L304.82812 27.175L306.59375 27.175L306.59375 37.55L304.82812 37.55ZM315.60938 37.55L315.60938 36.01875Q314.40625 37.784374 312.32812 37.784374Q311.40625 37.784374 310.60938 37.440624Q309.8125 37.08125 309.42188 36.55Q309.04688 36.01875 308.89062 35.2375Q308.78125 34.721874 308.78125 33.596874L308.78125 27.175L310.53125 27.175L310.53125 32.925Q310.53125 34.3 310.64062 34.784374Q310.8125 35.471874 311.34375 35.878124Q311.89062 36.26875 312.67188 36.26875Q313.46875 36.26875 314.15625 35.8625Q314.85938 35.45625 315.14062 34.76875Q315.4375 34.065624 315.4375 32.7375L315.4375 27.175L317.1875 27.175L317.1875 37.55L315.60938 37.55ZM319.8125 37.55L319.8125 27.175L321.39062 27.175L321.39062 28.628124Q321.875 27.878124 322.6875 27.409374Q323.5 26.940624 324.53125 26.940624Q325.6875 26.940624 326.42188 27.425Q327.15625 27.89375 327.46875 28.753124Q328.70312 26.940624 330.67188 26.940624Q332.21875 26.940624 333.04688 27.8Q333.875 28.659374 333.875 30.425L333.875 37.55L332.125 37.55L332.125 31.01875Q332.125 29.95625 331.95312 29.503124Q331.78125 29.034374 331.32812 28.753124Q330.89062 28.471874 330.28125 28.471874Q329.1875 28.471874 328.45312 29.20625Q327.73438 29.925 327.73438 31.51875L327.73438 37.55L325.98438 37.55L325.98438 30.815624Q325.98438 29.64375 325.54688 29.065624Q325.125 28.471874 324.14062 28.471874Q323.40625 28.471874 322.76562 28.8625Q322.14062 29.253124 321.85938 30.003124Q321.57812 30.753124 321.57812 32.175L321.57812 37.55L319.8125 37.55Z" fill-rule="nonzero"/></svg>