<svg version="1.1" viewBox="0.0 0.0 600.0 371.0" fill="none" stroke="none" stroke-linecap="square" stroke-miterlimit="10" width="600" height="371" xmlns:xlink="http://www.w3.org/1999/xlink" xmlns="http://www.w3.org/2000/svg"><path fill="#ffffff" fill-opacity="0.0" d="M0 0L600.0 0L600.0 371.0L0 371.0L0 0Z" fill-rule="nonzero"/><path fill="#f7d750" d="M300.0 54.916668C345.27335 54.916668 388.08298 75.53269 416.31046 110.92883C444.53793 146.32497 455.11105 192.64877 445.03677 236.78703L372.5184 220.23518C377.5555 198.16605 372.26898 175.00415 358.15524 157.30608C344.0415 139.60802 322.6367 129.3 300.0 129.3Z" fill-rule="nonzero"/><path fill="#78a94e" d="M154.96323 236.78703C144.88895 192.64877 155.46205 146.32497 183.68953 110.92883C211.91702 75.53269 254.72664 54.916668 300.0 54.916668L300.0 129.3C277.3633 129.3 255.95851 139.60802 241.84477 157.30608C227.73103 175.00415 222.44447 198.16605 227.48161 220.23518Z" fill-rule="nonzero"/><path fill="#313d89" d="M235.45256 337.71747C194.66267 318.0741 165.03749 280.9253 154.96323 236.78703L227.48161 220.23518C232.51875 242.30432 247.33133 260.87872 267.7263 270.7004Z" fill-rule="nonzero"/><path fill="#f5ee58" d="M445.03677 236.78703C434.9625 280.9253 405.33734 318.0741 364.54742 337.71747C323.75754 357.36084 276.24246 357.36084 235.45256 337.71747L267.7263 270.7004C288.12122 280.5221 311.87878 280.5221 332.2737 270.7004C352.66867 260.87872 367.48126 242.30432 372.5184 220.23518Z" fill-rule="nonzero"/><path fill="#ffffff" d="M370.79535 139.10184L370.79535 140.61746L362.27972 140.61746Q362.2641 140.03934 362.46722 139.52371Q362.79535 138.64871 363.49847 137.80496Q364.21722 136.96121 365.5766 135.85184Q367.67035 134.13309 368.40472 133.13309Q369.15472 132.11746 369.15472 131.22684Q369.15472 130.27371 368.48285 129.63309Q367.81097 128.99246 366.73285 128.99246Q365.5766 128.99246 364.8891 129.67996Q364.21722 130.36746 364.2016 131.57059L362.5766 131.39871Q362.74847 129.58621 363.8266 128.63309Q364.92035 127.67996 366.7641 127.67996Q368.60785 127.67996 369.68597 128.71121Q370.77972 129.74246 370.77972 131.25809Q370.77972 132.02371 370.4516 132.77371Q370.1391 133.52371 369.40472 134.35184Q368.67035 135.17996 366.96722 136.61746Q365.54535 137.82059 365.1391 138.24246Q364.73285 138.66434 364.48285 139.10184L370.79535 139.10184ZM374.92035 133.63309Q373.93597 133.27371 373.4516 132.60184Q372.98285 131.92996 372.98285 131.00809Q372.98285 129.60184 373.98285 128.64871Q374.99847 127.67996 376.68597 127.67996Q378.37347 127.67996 379.3891 128.66434Q380.42035 129.63309 380.42035 131.03934Q380.42035 131.94559 379.9516 132.61746Q379.48285 133.27371 378.52972 133.63309Q379.71722 134.02371 380.3266 134.88309Q380.9516 135.74246 380.9516 136.92996Q380.9516 138.58621 379.77972 139.71121Q378.60785 140.83621 376.7016 140.83621Q374.79535 140.83621 373.62347 139.71121Q372.46722 138.57059 372.46722 136.88309Q372.46722 135.63309 373.09222 134.78934Q373.73285 133.92996 374.92035 133.63309ZM374.59222 130.94559Q374.59222 131.86746 375.18597 132.44559Q375.77972 133.02371 376.71722 133.02371Q377.62347 133.02371 378.2016 132.44559Q378.79535 131.86746 378.79535 131.03934Q378.79535 130.16434 378.18597 129.57059Q377.59222 128.97684 376.7016 128.97684Q375.79535 128.97684 375.18597 129.55496Q374.59222 130.13309 374.59222 130.94559ZM374.09222 136.89871Q374.09222 137.57059 374.40472 138.21121Q374.73285 138.83621 375.35785 139.19559Q375.99847 139.53934 376.73285 139.53934Q377.85785 139.53934 378.59222 138.80496Q379.34222 138.07059 379.34222 136.94559Q379.34222 135.80496 378.5766 135.07059Q377.81097 134.32059 376.67035 134.32059Q375.56097 134.32059 374.8266 135.05496Q374.09222 135.78934 374.09222 136.89871ZM383.37347 140.61746L383.37347 138.82059L385.17035 138.82059L385.17035 140.61746L383.37347 140.61746ZM395.68597 130.88309L394.12347 131.00809Q393.90472 130.08621 393.5141 129.66434Q392.87347 128.97684 391.93597 128.97684Q391.18597 128.97684 390.60785 129.39871Q389.85785 129.94559 389.42035 130.99246Q388.99847 132.03934 388.98285 133.97684Q389.56097 133.10184 390.37347 132.67996Q391.2016 132.25809 392.10785 132.25809Q393.7016 132.25809 394.81097 133.42996Q395.92035 134.58621 395.92035 136.42996Q395.92035 137.64871 395.3891 138.69559Q394.87347 139.72684 393.9516 140.28934Q393.04535 140.83621 391.8891 140.83621Q389.90472 140.83621 388.65472 139.38309Q387.40472 137.92996 387.40472 134.58621Q387.40472 130.85184 388.79535 129.14871Q389.99847 127.67996 392.02972 127.67996Q393.56097 127.67996 394.52972 128.53934Q395.49847 129.38309 395.68597 130.88309ZM389.23285 136.44559Q389.23285 137.25809 389.5766 138.00809Q389.92035 138.75809 390.54535 139.14871Q391.17035 139.53934 391.85785 139.53934Q392.85785 139.53934 393.5766 138.72684Q394.29535 137.91434 394.29535 136.52371Q394.29535 135.19559 393.5766 134.42996Q392.87347 133.64871 391.79535 133.64871Q390.71722 133.64871 389.96722 134.42996Q389.23285 135.19559 389.23285 136.44559ZM397.77972 130.82059Q397.77972 129.44559 398.46722 128.47684Q399.17035 127.50809 400.48285 127.50809Q401.7016 127.50809 402.49847 128.38309Q403.29535 129.24246 403.29535 130.92996Q403.29535 132.55496 402.48285 133.44559Q401.68597 134.32059 400.49847 134.32059Q399.34222 134.32059 398.56097 133.46121Q397.77972 132.58621 397.77972 130.82059ZM400.52972 128.60184Q399.93597 128.60184 399.54535 129.11746Q399.15472 129.61746 399.15472 130.97684Q399.15472 132.22684 399.54535 132.72684Q399.9516 133.22684 400.52972 133.22684Q401.12347 133.22684 401.5141 132.72684Q401.90472 132.21121 401.90472 130.86746Q401.90472 129.61746 401.5141 129.11746Q401.12347 128.60184 400.52972 128.60184ZM400.54535 141.08621L407.59222 127.50809L408.87347 127.50809L401.84222 141.08621L400.54535 141.08621ZM406.10785 137.58621Q406.10785 136.21121 406.79535 135.24246Q407.49847 134.27371 408.8266 134.27371Q410.04535 134.27371 410.8266 135.14871Q411.62347 136.00809 411.62347 137.69559Q411.62347 139.32059 410.8266 140.21121Q410.02972 141.08621 408.84222 141.08621Q407.67035 141.08621 406.8891 140.21121Q406.10785 139.33621 406.10785 137.58621ZM408.87347 135.36746Q408.27972 135.36746 407.8891 135.88309Q407.49847 136.38309 407.49847 137.75809Q407.49847 138.97684 407.8891 139.49246Q408.27972 140.00809 408.85785 140.00809Q409.46722 140.00809 409.85785 139.49246Q410.24847 138.97684 410.24847 137.63309Q410.24847 136.38309 409.85785 135.88309Q409.46722 135.36746 408.87347 135.36746Z" fill-rule="nonzero"/><path fill="#ffffff" d="M331.97308 309.1933L331.97308 310.70892L323.45746 310.70892Q323.44183 310.1308 323.64496 309.61517Q323.97308 308.74017 324.6762 307.89642Q325.39496 307.05267 326.75433 305.9433Q328.84808 304.22455 329.58246 303.22455Q330.33246 302.20892 330.33246 301.3183Q330.33246 300.36517 329.66058 299.72455Q328.9887 299.08392 327.91058 299.08392Q326.75433 299.08392 326.06683 299.77142Q325.39496 300.45892 325.37933 301.66205L323.75433 301.49017Q323.9262 299.67767 325.00433 298.72455Q326.09808 297.77142 327.94183 297.77142Q329.78558 297.77142 330.8637 298.80267Q331.95746 299.83392 331.95746 301.34955Q331.95746 302.11517 331.62933 302.86517Q331.31683 303.61517 330.58246 304.4433Q329.84808 305.27142 328.14496 306.70892Q326.72308 307.91205 326.31683 308.33392Q325.91058 308.7558 325.66058 309.1933L331.97308 309.1933ZM336.09808 303.72455Q335.1137 303.36517 334.62933 302.6933Q334.16058 302.02142 334.16058 301.09955Q334.16058 299.6933 335.16058 298.74017Q336.1762 297.77142 337.8637 297.77142Q339.5512 297.77142 340.56683 298.7558Q341.59808 299.72455 341.59808 301.1308Q341.59808 302.03705 341.12933 302.70892Q340.66058 303.36517 339.70746 303.72455Q340.89496 304.11517 341.50433 304.97455Q342.12933 305.83392 342.12933 307.02142Q342.12933 308.67767 340.95746 309.80267Q339.78558 310.92767 337.87933 310.92767Q335.97308 310.92767 334.8012 309.80267Q333.64496 308.66205 333.64496 306.97455Q333.64496 305.72455 334.26996 304.8808Q334.91058 304.02142 336.09808 303.72455ZM335.76996 301.03705Q335.76996 301.95892 336.3637 302.53705Q336.95746 303.11517 337.89496 303.11517Q338.8012 303.11517 339.37933 302.53705Q339.97308 301.95892 339.97308 301.1308Q339.97308 300.2558 339.3637 299.66205Q338.76996 299.0683 337.87933 299.0683Q336.97308 299.0683 336.3637 299.64642Q335.76996 300.22455 335.76996 301.03705ZM335.26996 306.99017Q335.26996 307.66205 335.58246 308.30267Q335.91058 308.92767 336.53558 309.28705Q337.1762 309.6308 337.91058 309.6308Q339.03558 309.6308 339.76996 308.89642Q340.51996 308.16205 340.51996 307.03705Q340.51996 305.89642 339.75433 305.16205Q338.9887 304.41205 337.84808 304.41205Q336.7387 304.41205 336.00433 305.14642Q335.26996 305.8808 335.26996 306.99017ZM344.5512 310.70892L344.5512 308.91205L346.34808 308.91205L346.34808 310.70892L344.5512 310.70892ZM356.8637 300.97455L355.3012 301.09955Q355.08246 300.17767 354.69183 299.7558Q354.0512 299.0683 353.1137 299.0683Q352.3637 299.0683 351.78558 299.49017Q351.03558 300.03705 350.59808 301.08392Q350.1762 302.1308 350.16058 304.0683Q350.7387 303.1933 351.5512 302.77142Q352.37933 302.34955 353.28558 302.34955Q354.87933 302.34955 355.9887 303.52142Q357.09808 304.67767 357.09808 306.52142Q357.09808 307.74017 356.56683 308.78705Q356.0512 309.8183 355.12933 310.3808Q354.22308 310.92767 353.06683 310.92767Q351.08246 310.92767 349.83246 309.47455Q348.58246 308.02142 348.58246 304.67767Q348.58246 300.9433 349.97308 299.24017Q351.1762 297.77142 353.20746 297.77142Q354.7387 297.77142 355.70746 298.6308Q356.6762 299.47455 356.8637 300.97455ZM350.41058 306.53705Q350.41058 307.34955 350.75433 308.09955Q351.09808 308.84955 351.72308 309.24017Q352.34808 309.6308 353.03558 309.6308Q354.03558 309.6308 354.75433 308.8183Q355.47308 308.0058 355.47308 306.61517Q355.47308 305.28705 354.75433 304.52142Q354.0512 303.74017 352.97308 303.74017Q351.89496 303.74017 351.14496 304.52142Q350.41058 305.28705 350.41058 306.53705ZM358.95746 300.91205Q358.95746 299.53705 359.64496 298.5683Q360.34808 297.59955 361.66058 297.59955Q362.87933 297.59955 363.6762 298.47455Q364.47308 299.33392 364.47308 301.02142Q364.47308 302.64642 363.66058 303.53705Q362.8637 304.41205 361.6762 304.41205Q360.51996 304.41205 359.7387 303.55267Q358.95746 302.67767 358.95746 300.91205ZM361.70746 298.6933Q361.1137 298.6933 360.72308 299.20892Q360.33246 299.70892 360.33246 301.0683Q360.33246 302.3183 360.72308 302.8183Q361.12933 303.3183 361.70746 303.3183Q362.3012 303.3183 362.69183 302.8183Q363.08246 302.30267 363.08246 300.95892Q363.08246 299.70892 362.69183 299.20892Q362.3012 298.6933 361.70746 298.6933ZM361.72308 311.17767L368.76996 297.59955L370.0512 297.59955L363.01996 311.17767L361.72308 311.17767ZM367.28558 307.67767Q367.28558 306.30267 367.97308 305.33392Q368.6762 304.36517 370.00433 304.36517Q371.22308 304.36517 372.00433 305.24017Q372.8012 306.09955 372.8012 307.78705Q372.8012 309.41205 372.00433 310.30267Q371.20746 311.17767 370.01996 311.17767Q368.84808 311.17767 368.06683 310.30267Q367.28558 309.42767 367.28558 307.67767ZM370.0512 305.45892Q369.45746 305.45892 369.06683 305.97455Q368.6762 306.47455 368.6762 307.84955Q368.6762 309.0683 369.06683 309.58392Q369.45746 310.09955 370.03558 310.09955Q370.64496 310.09955 371.03558 309.58392Q371.4262 309.0683 371.4262 307.72455Q371.4262 306.47455 371.03558 305.97455Q370.64496 305.45892 370.0512 305.45892Z" fill-rule="nonzero"/><path fill="#ffffff" d="M193.97028 279.7492L192.39215 279.7492L192.39215 269.67108Q191.81403 270.21796 190.89215 270.76483Q189.97028 271.29608 189.22028 271.57733L189.22028 270.04608Q190.5484 269.42108 191.5484 268.53046Q192.5484 267.63983 192.95465 266.8117L193.97028 266.8117L193.97028 279.7492ZM203.07965 279.7492L203.07965 276.67108L197.50153 276.67108L197.50153 275.21796L203.37653 266.85858L204.6734 266.85858L204.6734 275.21796L206.40778 275.21796L206.40778 276.67108L204.6734 276.67108L204.6734 279.7492L203.07965 279.7492ZM203.07965 275.21796L203.07965 269.40546L199.0484 275.21796L203.07965 275.21796ZM208.90778 279.7492L208.90778 277.95233L210.70465 277.95233L210.70465 279.7492L208.90778 279.7492ZM213.01715 276.34296L214.6109 276.13983Q214.87653 277.48358 215.53278 278.07733Q216.18903 278.67108 217.12653 278.67108Q218.25153 278.67108 219.01715 277.90546Q219.78278 277.1242 219.78278 275.98358Q219.78278 274.88983 219.06403 274.1867Q218.3609 273.46796 217.26715 273.46796Q216.81403 273.46796 216.14215 273.65546L216.31403 272.26483Q216.47028 272.28046 216.57965 272.28046Q217.57965 272.28046 218.39215 271.7492Q219.20465 271.21796 219.20465 270.1242Q219.20465 269.2492 218.6109 268.6867Q218.01715 268.10858 217.09528 268.10858Q216.1734 268.10858 215.5484 268.6867Q214.93903 269.26483 214.76715 270.4367L213.18903 270.15546Q213.47028 268.5617 214.50153 267.6867Q215.53278 266.8117 217.06403 266.8117Q218.1109 266.8117 219.00153 267.26483Q219.89215 267.71796 220.3609 268.4992Q220.82965 269.28046 220.82965 270.15546Q220.82965 270.9992 220.37653 271.6867Q219.93903 272.35858 219.0484 272.76483Q220.18903 273.03046 220.81403 273.8742Q221.45465 274.70233 221.45465 275.9367Q221.45465 277.6242 220.22028 278.8117Q219.00153 279.98358 217.12653 279.98358Q215.4234 279.98358 214.2984 278.96796Q213.18903 277.95233 213.01715 276.34296ZM223.31403 269.95233Q223.31403 268.57733 224.00153 267.60858Q224.70465 266.63983 226.01715 266.63983Q227.2359 266.63983 228.03278 267.51483Q228.82965 268.3742 228.82965 270.0617Q228.82965 271.6867 228.01715 272.57733Q227.22028 273.45233 226.03278 273.45233Q224.87653 273.45233 224.09528 272.59296Q223.31403 271.71796 223.31403 269.95233ZM226.06403 267.73358Q225.47028 267.73358 225.07965 268.2492Q224.68903 268.7492 224.68903 270.10858Q224.68903 271.35858 225.07965 271.85858Q225.4859 272.35858 226.06403 272.35858Q226.65778 272.35858 227.0484 271.85858Q227.43903 271.34296 227.43903 269.9992Q227.43903 268.7492 227.0484 268.2492Q226.65778 267.73358 226.06403 267.73358ZM226.07965 280.21796L233.12653 266.63983L234.40778 266.63983L227.37653 280.21796L226.07965 280.21796ZM231.64215 276.71796Q231.64215 275.34296 232.32965 274.3742Q233.03278 273.40546 234.3609 273.40546Q235.57965 273.40546 236.3609 274.28046Q237.15778 275.13983 237.15778 276.82733Q237.15778 278.45233 236.3609 279.34296Q235.56403 280.21796 234.37653 280.21796Q233.20465 280.21796 232.4234 279.34296Q231.64215 278.46796 231.64215 276.71796ZM234.40778 274.4992Q233.81403 274.4992 233.4234 275.01483Q233.03278 275.51483 233.03278 276.88983Q233.03278 278.10858 233.4234 278.6242Q233.81403 279.13983 234.39215 279.13983Q235.00153 279.13983 235.39215 278.6242Q235.78278 278.10858 235.78278 276.76483Q235.78278 275.51483 235.39215 275.01483Q235.00153 274.4992 234.40778 274.4992Z" fill-rule="nonzero"/><path fill="#ffffff" d="M196.32965 139.10184L196.32965 140.61746L187.81403 140.61746Q187.7984 140.03934 188.00153 139.52371Q188.32965 138.64871 189.03278 137.80496Q189.75153 136.96121 191.1109 135.85184Q193.20465 134.13309 193.93903 133.13309Q194.68903 132.11746 194.68903 131.22684Q194.68903 130.27371 194.01715 129.63309Q193.34528 128.99246 192.26715 128.99246Q191.1109 128.99246 190.4234 129.67996Q189.75153 130.36746 189.7359 131.57059L188.1109 131.39871Q188.28278 129.58621 189.3609 128.63309Q190.45465 127.67996 192.2984 127.67996Q194.14215 127.67996 195.22028 128.71121Q196.31403 129.74246 196.31403 131.25809Q196.31403 132.02371 195.9859 132.77371Q195.6734 133.52371 194.93903 134.35184Q194.20465 135.17996 192.50153 136.61746Q191.07965 137.82059 190.6734 138.24246Q190.26715 138.66434 190.01715 139.10184L196.32965 139.10184ZM200.45465 133.63309Q199.47028 133.27371 198.9859 132.60184Q198.51715 131.92996 198.51715 131.00809Q198.51715 129.60184 199.51715 128.64871Q200.53278 127.67996 202.22028 127.67996Q203.90778 127.67996 204.9234 128.66434Q205.95465 129.63309 205.95465 131.03934Q205.95465 131.94559 205.4859 132.61746Q205.01715 133.27371 204.06403 133.63309Q205.25153 134.02371 205.8609 134.88309Q206.4859 135.74246 206.4859 136.92996Q206.4859 138.58621 205.31403 139.71121Q204.14215 140.83621 202.2359 140.83621Q200.32965 140.83621 199.15778 139.71121Q198.00153 138.57059 198.00153 136.88309Q198.00153 135.63309 198.62653 134.78934Q199.26715 133.92996 200.45465 133.63309ZM200.12653 130.94559Q200.12653 131.86746 200.72028 132.44559Q201.31403 133.02371 202.25153 133.02371Q203.15778 133.02371 203.7359 132.44559Q204.32965 131.86746 204.32965 131.03934Q204.32965 130.16434 203.72028 129.57059Q203.12653 128.97684 202.2359 128.97684Q201.32965 128.97684 200.72028 129.55496Q200.12653 130.13309 200.12653 130.94559ZM199.62653 136.89871Q199.62653 137.57059 199.93903 138.21121Q200.26715 138.83621 200.89215 139.19559Q201.53278 139.53934 202.26715 139.53934Q203.39215 139.53934 204.12653 138.80496Q204.87653 138.07059 204.87653 136.94559Q204.87653 135.80496 204.1109 135.07059Q203.34528 134.32059 202.20465 134.32059Q201.09528 134.32059 200.3609 135.05496Q199.62653 135.78934 199.62653 136.89871ZM208.90778 140.61746L208.90778 138.82059L210.70465 138.82059L210.70465 140.61746L208.90778 140.61746ZM221.22028 130.88309L219.65778 131.00809Q219.43903 130.08621 219.0484 129.66434Q218.40778 128.97684 217.47028 128.97684Q216.72028 128.97684 216.14215 129.39871Q215.39215 129.94559 214.95465 130.99246Q214.53278 132.03934 214.51715 133.97684Q215.09528 133.10184 215.90778 132.67996Q216.7359 132.25809 217.64215 132.25809Q219.2359 132.25809 220.34528 133.42996Q221.45465 134.58621 221.45465 136.42996Q221.45465 137.64871 220.9234 138.69559Q220.40778 139.72684 219.4859 140.28934Q218.57965 140.83621 217.4234 140.83621Q215.43903 140.83621 214.18903 139.38309Q212.93903 137.92996 212.93903 134.58621Q212.93903 130.85184 214.32965 129.14871Q215.53278 127.67996 217.56403 127.67996Q219.09528 127.67996 220.06403 128.53934Q221.03278 129.38309 221.22028 130.88309ZM214.76715 136.44559Q214.76715 137.25809 215.1109 138.00809Q215.45465 138.75809 216.07965 139.14871Q216.70465 139.53934 217.39215 139.53934Q218.39215 139.53934 219.1109 138.72684Q219.82965 137.91434 219.82965 136.52371Q219.82965 135.19559 219.1109 134.42996Q218.40778 133.64871 217.32965 133.64871Q216.25153 133.64871 215.50153 134.42996Q214.76715 135.19559 214.76715 136.44559ZM223.31403 130.82059Q223.31403 129.44559 224.00153 128.47684Q224.70465 127.50809 226.01715 127.50809Q227.2359 127.50809 228.03278 128.38309Q228.82965 129.24246 228.82965 130.92996Q228.82965 132.55496 228.01715 133.44559Q227.22028 134.32059 226.03278 134.32059Q224.87653 134.32059 224.09528 133.46121Q223.31403 132.58621 223.31403 130.82059ZM226.06403 128.60184Q225.47028 128.60184 225.07965 129.11746Q224.68903 129.61746 224.68903 130.97684Q224.68903 132.22684 225.07965 132.72684Q225.4859 133.22684 226.06403 133.22684Q226.65778 133.22684 227.0484 132.72684Q227.43903 132.21121 227.43903 130.86746Q227.43903 129.61746 227.0484 129.11746Q226.65778 128.60184 226.06403 128.60184ZM226.07965 141.08621L233.12653 127.50809L234.40778 127.50809L227.37653 141.08621L226.07965 141.08621ZM231.64215 137.58621Q231.64215 136.21121 232.32965 135.24246Q233.03278 134.27371 234.3609 134.27371Q235.57965 134.27371 236.3609 135.14871Q237.15778 136.00809 237.15778 137.69559Q237.15778 139.32059 236.3609 140.21121Q235.56403 141.08621 234.37653 141.08621Q233.20465 141.08621 232.4234 140.21121Q231.64215 139.33621 231.64215 137.58621ZM234.40778 135.36746Q233.81403 135.36746 233.4234 135.88309Q233.03278 136.38309 233.03278 137.75809Q233.03278 138.97684 233.4234 139.49246Q233.81403 140.00809 234.39215 140.00809Q235.00153 140.00809 235.39215 139.49246Q235.78278 138.97684 235.78278 137.63309Q235.78278 136.38309 235.39215 135.88309Q235.00153 135.36746 234.40778 135.36746Z" fill-rule="nonzero"/><path stroke="#ffffff" stroke-width="1.0" stroke-linejoin="round" stroke-linecap="round" d="M372.5184 220.23518C377.5555 198.16605 372.26898 175.00415 358.15524 157.30608C344.0415 139.60802 322.6367 129.3 300.0 129.3L300.0 54.916668C345.27335 54.916668 388.08298 75.53269 416.31046 110.92883C444.53793 146.32497 455.11105 192.64877 445.03677 236.78703" fill-rule="nonzero"/><path stroke="#ffffff" stroke-width="1.0" stroke-linejoin="round" stroke-linecap="round" d="M267.7263 270.7004C288.12122 280.5221 311.87878 280.5221 332.2737 270.7004C352.66867 260.87872 367.48126 242.30432 372.5184 220.23518L445.03677 236.78703C434.9625 280.9253 405.33734 318.0741 364.54742 337.71747C323.75754 357.36084 276.24246 357.36084 235.45256 337.71747" fill-rule="nonzero"/><path stroke="#ffffff" stroke-width="1.0" stroke-linejoin="round" stroke-linecap="round" d="M227.48161 220.23518C232.51875 242.30432 247.33133 260.87872 267.7263 270.7004L235.45256 337.71747C194.66267 318.0741 165.03749 280.9253 154.96323 236.78703" fill-rule="nonzero"/><path stroke="#ffffff" stroke-width="1.0" stroke-linejoin="round" stroke-linecap="round" d="M300.0 129.3C277.3633 129.3 255.95851 139.60802 241.84477 157.30608C227.73103 175.00415 222.44447 198.16605 227.48161 220.23518L154.96323 236.78703C144.88895 192.64877 155.46205 146.32497 183.68953 110.92883C211.91702 75.53269 254.72664 54.916668 300.0 54.916668" fill-rule="nonzero"/><path fill="#efefef" d="M18.51875 110.06656L22.925 98.613434L24.565624 98.613434L29.253124 110.06656L27.51875 110.06656L26.190624 106.59781L21.39375 106.59781L20.14375 110.06656L18.51875 110.06656ZM21.83125 105.363434L25.721874 105.363434L24.51875 102.19156Q23.971874 100.738434 23.70625 99.81656Q23.4875 100.91031 23.096874 102.00406L21.83125 105.363434ZM30.596874 110.06656L30.596874 101.769684L31.8625 101.769684L31.8625 103.019684Q32.346874 102.144684 32.753124 101.863434Q33.159374 101.582184 33.659374 101.582184Q34.3625 101.582184 35.096874 102.03531L34.6125 103.332184Q34.096874 103.03531 33.58125 103.03531Q33.128124 103.03531 32.753124 103.31656Q32.39375 103.582184 32.2375 104.082184Q32.003124 104.832184 32.003124 105.72281L32.003124 110.06656L30.596874 110.06656ZM41.01875 107.019684L42.409374 107.207184Q42.175 108.62906 41.2375 109.44156Q40.315624 110.25406 38.95625 110.25406Q37.253124 110.25406 36.20625 109.144684Q35.175 108.019684 35.175 105.94156Q35.175 104.59781 35.6125 103.59781Q36.065624 102.582184 36.971874 102.082184Q37.89375 101.582184 38.95625 101.582184Q40.315624 101.582184 41.175 102.269684Q42.034374 102.94156 42.26875 104.207184L40.909374 104.41031Q40.70625 103.582184 40.20625 103.16031Q39.721874 102.738434 39.01875 102.738434Q37.95625 102.738434 37.284374 103.50406Q36.628124 104.25406 36.628124 105.91031Q36.628124 107.582184 37.26875 108.34781Q37.909374 109.09781 38.940624 109.09781Q39.76875 109.09781 40.315624 108.59781Q40.878124 108.082184 41.01875 107.019684ZM43.6125 110.06656L43.6125 98.613434L45.01875 98.613434L45.01875 102.72281Q46.003124 101.582184 47.503124 101.582184Q48.425 101.582184 49.096874 101.94156Q49.784374 102.300934 50.065624 102.94156Q50.3625 103.582184 50.3625 104.800934L50.3625 110.06656L48.95625 110.06656L48.95625 104.800934Q48.95625 103.75406 48.503124 103.269684Q48.05 102.78531 47.20625 102.78531Q46.58125 102.78531 46.034374 103.113434Q45.4875 103.44156 45.253124 104.00406Q45.01875 104.550934 45.01875 105.519684L45.01875 110.06656L43.6125 110.06656ZM52.6125 100.22281L52.6125 98.613434L54.01875 98.613434L54.01875 100.22281L52.6125 100.22281ZM52.6125 110.06656L52.6125 101.769684L54.01875 101.769684L54.01875 110.06656L52.6125 110.06656ZM59.675 108.800934L59.878124 110.050934Q59.284374 110.175934 58.815624 110.175934Q58.05 110.175934 57.628124 109.94156Q57.20625 109.69156 57.034374 109.300934Q56.8625 108.894684 56.8625 107.62906L56.8625 102.863434L55.83125 102.863434L55.83125 101.769684L56.8625 101.769684L56.8625 99.707184L58.26875 98.863434L58.26875 101.769684L59.675 101.769684L59.675 102.863434L58.26875 102.863434L58.26875 107.707184Q58.26875 108.31656 58.33125 108.488434Q58.409374 108.66031 58.58125 108.769684Q58.753124 108.863434 59.065624 108.863434Q59.3 108.863434 59.675 108.800934ZM66.28438 107.394684L67.7375 107.56656Q67.39375 108.84781 66.45625 109.550934Q65.53438 110.25406 64.09688 110.25406Q62.26875 110.25406 61.20625 109.12906Q60.14375 108.00406 60.14375 105.988434Q60.14375 103.894684 61.221874 102.738434Q62.3 101.582184 64.01875 101.582184Q65.675 101.582184 66.72188 102.72281Q67.78438 103.84781 67.78438 105.894684Q67.78438 106.019684 67.78438 106.269684L61.596874 106.269684Q61.675 107.644684 62.3625 108.37906Q63.065624 109.09781 64.09688 109.09781Q64.87813 109.09781 65.425 108.69156Q65.97188 108.28531 66.28438 107.394684ZM61.675 105.113434L66.3 105.113434Q66.20625 104.06656 65.76875 103.550934Q65.09688 102.738434 64.03438 102.738434Q63.065624 102.738434 62.39375 103.394684Q61.7375 104.03531 61.675 105.113434ZM75.01875 107.019684L76.40938 107.207184Q76.175 108.62906 75.2375 109.44156Q74.31563 110.25406 72.95625 110.25406Q71.25313 110.25406 70.20625 109.144684Q69.175 108.019684 69.175 105.94156Q69.175 104.59781 69.6125 103.59781Q70.06563 102.582184 70.97188 102.082184Q71.89375 101.582184 72.95625 101.582184Q74.31563 101.582184 75.175 102.269684Q76.03438 102.94156 76.26875 104.207184L74.90938 104.41031Q74.70625 103.582184 74.20625 103.16031Q73.72188 102.738434 73.01875 102.738434Q71.95625 102.738434 71.28438 103.50406Q70.62813 104.25406 70.62813 105.91031Q70.62813 107.582184 71.26875 108.34781Q71.90938 109.09781 72.94063 109.09781Q73.76875 109.09781 74.31563 108.59781Q74.87813 108.082184 75.01875 107.019684ZM80.675 108.800934L80.87813 110.050934Q80.28438 110.175934 79.81563 110.175934Q79.05 110.175934 78.62813 109.94156Q78.20625 109.69156 78.03438 109.300934Q77.8625 108.894684 77.8625 107.62906L77.8625 102.863434L76.83125 102.863434L76.83125 101.769684L77.8625 101.769684L77.8625 99.707184L79.26875 98.863434L79.26875 101.769684L80.675 101.769684L80.675 102.863434L79.26875 102.863434L79.26875 107.707184Q79.26875 108.31656 79.33125 108.488434Q79.40938 108.66031 79.58125 108.769684Q79.75313 108.863434 80.06563 108.863434Q80.3 108.863434 80.675 108.800934ZM87.05 110.06656L87.05 108.84781Q86.08125 110.25406 84.40938 110.25406Q83.675 110.25406 83.03438 109.97281Q82.40938 109.69156 82.09688 109.269684Q81.78438 108.832184 81.65938 108.22281Q81.58125 107.800934 81.58125 106.91031L81.58125 101.769684L82.9875 101.769684L82.9875 106.363434Q82.9875 107.47281 83.06563 107.84781Q83.20625 108.41031 83.62813 108.72281Q84.06563 109.03531 84.69063 109.03531Q85.33125 109.03531 85.87813 108.72281Q86.44063 108.394684 86.65938 107.832184Q86.89375 107.269684 86.89375 106.207184L86.89375 101.769684L88.3 101.769684L88.3 110.06656L87.05 110.06656ZM90.59688 110.06656L90.59688 101.769684L91.8625 101.769684L91.8625 103.019684Q92.34688 102.144684 92.75313 101.863434Q93.15938 101.582184 93.65938 101.582184Q94.3625 101.582184 95.09688 102.03531L94.6125 103.332184Q94.09688 103.03531 93.58125 103.03531Q93.12813 103.03531 92.75313 103.31656Q92.39375 103.582184 92.2375 104.082184Q92.00313 104.832184 92.00313 105.72281L92.00313 110.06656L90.59688 110.06656ZM101.28438 107.394684L102.7375 107.56656Q102.39375 108.84781 101.45625 109.550934Q100.53438 110.25406 99.09688 110.25406Q97.26875 110.25406 96.20625 109.12906Q95.14375 108.00406 95.14375 105.988434Q95.14375 103.894684 96.22188 102.738434Q97.3 101.582184 99.01875 101.582184Q100.675 101.582184 101.72188 102.72281Q102.78438 103.84781 102.78438 105.894684Q102.78438 106.019684 102.78438 106.269684L96.59688 106.269684Q96.675 107.644684 97.3625 108.37906Q98.06563 109.09781 99.09688 109.09781Q99.87813 109.09781 100.425 108.69156Q100.97188 108.28531 101.28438 107.394684ZM96.675 105.113434L101.3 105.113434Q101.20625 104.06656 100.76875 103.550934Q100.09688 102.738434 99.03438 102.738434Q98.06563 102.738434 97.39375 103.394684Q96.7375 104.03531 96.675 105.113434ZM115.15938 108.707184Q114.45625 109.488434 113.62813 109.87906Q112.81563 110.269684 111.8625 110.269684Q110.1125 110.269684 109.08125 109.06656Q108.2375 108.09781 108.2375 106.91031Q108.2375 105.84781 108.925 104.988434Q109.6125 104.12906 110.97188 103.488434Q110.19063 102.59781 109.925 102.050934Q109.675 101.488434 109.675 100.97281Q109.675 99.94156 110.4875 99.175934Q111.3 98.41031 112.51875 98.41031Q113.69063 98.41031 114.44063 99.12906Q115.19063 99.84781 115.19063 100.863434Q115.19063 102.488434 113.01875 103.644684L115.08125 106.269684Q115.425 105.582184 115.62813 104.675934L117.08125 104.988434Q116.70625 106.488434 116.06563 107.457184Q116.8625 108.50406 117.8625 109.207184L116.90938 110.332184Q116.06563 109.78531 115.15938 108.707184ZM112.3 102.738434Q113.20625 102.207184 113.47188 101.800934Q113.75313 101.394684 113.75313 100.894684Q113.75313 100.31656 113.37813 99.94156Q113.00313 99.56656 112.45625 99.56656Q111.87813 99.56656 111.50313 99.94156Q111.12813 100.300934 111.12813 100.832184Q111.12813 101.09781 111.25313 101.394684Q111.39375 101.69156 111.675 102.019684L112.3 102.738434ZM114.26875 107.59781L111.69063 104.41031Q110.55 105.082184 110.14375 105.675934Q109.75313 106.25406 109.75313 106.81656Q109.75313 107.519684 110.3 108.269684Q110.8625 109.019684 111.87813 109.019684Q112.51875 109.019684 113.19063 108.62906Q113.8625 108.22281 114.26875 107.59781Z" fill-rule="nonzero"/><path fill="#9e9e9e" d="M26.6125 130.70718L26.6125 132.06656L19.034374 132.06656Q19.01875 131.55093 19.20625 131.08218Q19.4875 130.31656 20.128124 129.56656Q20.76875 128.81656 21.971874 127.832184Q23.83125 126.300934 24.4875 125.41031Q25.14375 124.50406 25.14375 123.707184Q25.14375 122.87906 24.55 122.300934Q23.95625 121.72281 22.9875 121.72281Q21.971874 121.72281 21.3625 122.332184Q20.753124 122.94156 20.753124 124.019684L19.3 123.87906Q19.45625 122.25406 20.425 121.41031Q21.39375 120.56656 23.01875 120.56656Q24.675 120.56656 25.628124 121.488434Q26.596874 122.394684 26.596874 123.738434Q26.596874 124.425934 26.315624 125.09781Q26.034374 125.75406 25.378124 126.488434Q24.721874 127.22281 23.20625 128.50406Q21.940624 129.56656 21.58125 129.95718Q21.221874 130.33218 20.9875 130.70718L26.6125 130.70718ZM30.378124 125.84781Q29.503124 125.53531 29.08125 124.94156Q28.659374 124.34781 28.659374 123.519684Q28.659374 122.269684 29.55 121.425934Q30.45625 120.56656 31.95625 120.56656Q33.45625 120.56656 34.3625 121.44156Q35.284374 122.300934 35.284374 123.550934Q35.284374 124.34781 34.8625 124.94156Q34.440624 125.53531 33.596874 125.84781Q34.64375 126.19156 35.190624 126.957184Q35.753124 127.72281 35.753124 128.78531Q35.753124 130.25406 34.70625 131.26968Q33.675 132.26968 31.971874 132.26968Q30.284374 132.26968 29.2375 131.26968Q28.20625 130.25406 28.20625 128.75406Q28.20625 127.62906 28.76875 126.87906Q29.33125 126.12906 30.378124 125.84781ZM30.096874 123.47281Q30.096874 124.28531 30.6125 124.800934Q31.14375 125.31656 31.9875 125.31656Q32.8 125.31656 33.315624 124.800934Q33.83125 124.28531 33.83125 123.550934Q33.83125 122.769684 33.3 122.25406Q32.76875 121.72281 31.971874 121.72281Q31.159374 121.72281 30.628124 122.238434Q30.096874 122.75406 30.096874 123.47281ZM29.64375 128.75406Q29.64375 129.36343 29.925 129.92593Q30.221874 130.48843 30.784374 130.80093Q31.346874 131.09781 31.9875 131.09781Q33.003124 131.09781 33.659374 130.45718Q34.315624 129.80093 34.315624 128.80093Q34.315624 127.78531 33.628124 127.12906Q32.95625 126.457184 31.940624 126.457184Q30.95625 126.457184 30.3 127.113434Q29.64375 127.769684 29.64375 128.75406ZM38.003124 132.06656L38.003124 130.45718L39.6125 130.45718L39.6125 132.06656L38.003124 132.06656ZM48.51875 123.41031L47.1125 123.519684Q46.925 122.69156 46.58125 122.31656Q46.01875 121.72281 45.175 121.72281Q44.503124 121.72281 44.003124 122.09781Q43.33125 122.582184 42.940624 123.519684Q42.565624 124.44156 42.55 126.16031Q43.065624 125.37906 43.8 125.00406Q44.534374 124.62906 45.33125 124.62906Q46.7375 124.62906 47.721874 125.675934Q48.721874 126.707184 48.721874 128.34781Q48.721874 129.42593 48.253124 130.34781Q47.784374 131.26968 46.971874 131.76968Q46.159374 132.26968 45.128124 132.26968Q43.378124 132.26968 42.26875 130.97281Q41.159374 129.67593 41.159374 126.707184Q41.159374 123.37906 42.378124 121.87906Q43.45625 120.56656 45.26875 120.56656Q46.6125 120.56656 47.471874 121.332184Q48.346874 122.082184 48.51875 123.41031ZM42.76875 128.34781Q42.76875 129.08218 43.08125 129.75406Q43.39375 130.41031 43.940624 130.75406Q44.503124 131.09781 45.1125 131.09781Q46.003124 131.09781 46.64375 130.37906Q47.284374 129.66031 47.284374 128.42593Q47.284374 127.238434 46.64375 126.56656Q46.01875 125.87906 45.05 125.87906Q44.096874 125.87906 43.425 126.56656Q42.76875 127.238434 42.76875 128.34781ZM50.4875 123.363434Q50.4875 122.12906 51.096874 121.269684Q51.721874 120.41031 52.89375 120.41031Q53.971874 120.41031 54.675 121.19156Q55.378124 121.957184 55.378124 123.44156Q55.378124 124.894684 54.659374 125.69156Q53.95625 126.47281 52.909374 126.47281Q51.8625 126.47281 51.175 125.707184Q50.4875 124.925934 50.4875 123.363434ZM52.925 121.37906Q52.409374 121.37906 52.05 121.832184Q51.70625 122.28531 51.70625 123.50406Q51.70625 124.59781 52.05 125.050934Q52.409374 125.50406 52.925 125.50406Q53.45625 125.50406 53.8 125.050934Q54.159374 124.59781 54.159374 123.394684Q54.159374 122.28531 53.8 121.832184Q53.45625 121.37906 52.925 121.37906ZM52.940624 132.48843L59.20625 120.41031L60.346874 120.41031L54.096874 132.48843L52.940624 132.48843ZM57.89375 129.37906Q57.89375 128.14468 58.503124 127.28531Q59.128124 126.425934 60.3 126.425934Q61.378124 126.425934 62.08125 127.207184Q62.8 127.97281 62.8 129.45718Q62.8 130.91031 62.08125 131.70718Q61.3625 132.48843 60.315624 132.48843Q59.26875 132.48843 58.58125 131.70718Q57.89375 130.92593 57.89375 129.37906ZM60.346874 127.394684Q59.815624 127.394684 59.45625 127.84781Q59.1125 128.30093 59.1125 129.51968Q59.1125 130.61343 59.45625 131.06656Q59.815624 131.51968 60.33125 131.51968Q60.878124 131.51968 61.221874 131.06656Q61.565624 130.61343 61.565624 129.41031Q61.565624 128.30093 61.20625 127.84781Q60.8625 127.394684 60.346874 127.394684Z" fill-rule="nonzero"/><path stroke="#757575" stroke-width="1.0" stroke-linecap="butt" d="M18.55 115.56656L145.23334 115.56656L189.50507 115.56656" fill-rule="nonzero"/><path fill="#9e9e9e" d="M191.50507 115.56656C191.50507 114.46199 190.60963 113.56656 189.50507 113.56656C188.4005 113.56656 187.50507 114.46199 187.50507 115.56656C187.50507 116.67113 188.4005 117.56656 189.50507 117.56656C190.60963 117.56656 191.50507 116.67113 191.50507 115.56656" fill-rule="nonzero"/><path fill="#efefef" d="M19.815624 286.3001L19.815624 274.847L28.096874 274.847L28.096874 276.19073L21.33125 276.19073L21.33125 279.70636L27.675 279.70636L27.675 281.0501L21.33125 281.0501L21.33125 284.94073L28.3625 284.94073L28.3625 286.3001L19.815624 286.3001ZM36.01875 283.25323L37.409374 283.44073Q37.175 284.8626 36.2375 285.6751Q35.315624 286.4876 33.95625 286.4876Q32.253124 286.4876 31.20625 285.37823Q30.175 284.25323 30.175 282.1751Q30.175 280.83136 30.6125 279.83136Q31.065624 278.81573 31.971874 278.31573Q32.89375 277.81573 33.95625 277.81573Q35.315624 277.81573 36.175 278.50323Q37.034374 279.1751 37.26875 280.44073L35.909374 280.64386Q35.70625 279.81573 35.20625 279.39386Q34.721874 278.972 34.01875 278.972Q32.95625 278.972 32.284374 279.7376Q31.628124 280.4876 31.628124 282.14386Q31.628124 283.81573 32.26875 284.58136Q32.909374 285.33136 33.940624 285.33136Q34.76875 285.33136 35.315624 284.83136Q35.878124 284.31573 36.01875 283.25323ZM38.08125 282.14386Q38.08125 279.847 39.3625 278.7376Q40.440624 277.81573 41.971874 277.81573Q43.690624 277.81573 44.76875 278.94073Q45.8625 280.0501 45.8625 282.0345Q45.8625 283.62823 45.378124 284.5501Q44.89375 285.472 43.971874 285.9876Q43.065624 286.4876 41.971874 286.4876Q40.2375 286.4876 39.159374 285.37823Q38.08125 284.25323 38.08125 282.14386ZM39.534374 282.14386Q39.534374 283.7376 40.221874 284.5345Q40.925 285.33136 41.971874 285.33136Q43.01875 285.33136 43.70625 284.5345Q44.409374 283.7376 44.409374 282.097Q44.409374 280.56573 43.70625 279.76886Q43.01875 278.972 41.971874 278.972Q40.925 278.972 40.221874 279.76886Q39.534374 280.5501 39.534374 282.14386ZM47.6125 286.3001L47.6125 278.00323L48.878124 278.00323L48.878124 279.1751Q49.784374 277.81573 51.51875 277.81573Q52.26875 277.81573 52.89375 278.08136Q53.51875 278.347 53.83125 278.7845Q54.14375 279.222 54.26875 279.83136Q54.346874 280.222 54.346874 281.19073L54.346874 286.3001L52.940624 286.3001L52.940624 281.25323Q52.940624 280.39386 52.76875 279.972Q52.6125 279.5345 52.190624 279.2845Q51.784374 279.0345 51.221874 279.0345Q50.315624 279.0345 49.659374 279.6126Q49.01875 280.1751 49.01875 281.76886L49.01875 286.3001L47.6125 286.3001ZM56.08125 282.14386Q56.08125 279.847 57.3625 278.7376Q58.440624 277.81573 59.971874 277.81573Q61.690624 277.81573 62.76875 278.94073Q63.8625 280.0501 63.8625 282.0345Q63.8625 283.62823 63.378124 284.5501Q62.89375 285.472 61.971874 285.9876Q61.065624 286.4876 59.971874 286.4876Q58.2375 286.4876 57.159374 285.37823Q56.08125 284.25323 56.08125 282.14386ZM57.534374 282.14386Q57.534374 283.7376 58.221874 284.5345Q58.925 285.33136 59.971874 285.33136Q61.01875 285.33136 61.70625 284.5345Q62.409374 283.7376 62.409374 282.097Q62.409374 280.56573 61.70625 279.76886Q61.01875 278.972 59.971874 278.972Q58.925 278.972 58.221874 279.76886Q57.534374 280.5501 57.534374 282.14386ZM65.6125 286.3001L65.6125 278.00323L66.8625 278.00323L66.8625 279.1595Q67.25313 278.5501 67.89375 278.19073Q68.55 277.81573 69.37813 277.81573Q70.3 277.81573 70.89375 278.20636Q71.4875 278.58136 71.72188 279.26886Q72.70625 277.81573 74.28438 277.81573Q75.51875 277.81573 76.175 278.50323Q76.84688 279.1751 76.84688 280.597L76.84688 286.3001L75.45625 286.3001L75.45625 281.06573Q75.45625 280.222 75.31563 279.8626Q75.175 279.4876 74.81563 279.26886Q74.45625 279.0345 73.97188 279.0345Q73.09688 279.0345 72.51875 279.6126Q71.94063 280.19073 71.94063 281.472L71.94063 286.3001L70.53438 286.3001L70.53438 280.9095Q70.53438 279.972 70.19063 279.50323Q69.84688 279.0345 69.06563 279.0345Q68.47188 279.0345 67.97188 279.347Q67.47188 279.6595 67.2375 280.26886Q67.01875 280.8626 67.01875 281.9876L67.01875 286.3001L65.6125 286.3001ZM78.6125 276.45636L78.6125 274.847L80.01875 274.847L80.01875 276.45636L78.6125 276.45636ZM78.6125 286.3001L78.6125 278.00323L80.01875 278.00323L80.01875 286.3001L78.6125 286.3001ZM88.01875 283.25323L89.40938 283.44073Q89.175 284.8626 88.2375 285.6751Q87.31563 286.4876 85.95625 286.4876Q84.25313 286.4876 83.20625 285.37823Q82.175 284.25323 82.175 282.1751Q82.175 280.83136 82.6125 279.83136Q83.06563 278.81573 83.97188 278.31573Q84.89375 277.81573 85.95625 277.81573Q87.31563 277.81573 88.175 278.50323Q89.03438 279.1751 89.26875 280.44073L87.90938 280.64386Q87.70625 279.81573 87.20625 279.39386Q86.72188 278.972 86.01875 278.972Q84.95625 278.972 84.28438 279.7376Q83.62813 280.4876 83.62813 282.14386Q83.62813 283.81573 84.26875 284.58136Q84.90938 285.33136 85.94063 285.33136Q86.76875 285.33136 87.31563 284.83136Q87.87813 284.31573 88.01875 283.25323ZM93.51875 286.3001L97.925 274.847L99.56563 274.847L104.25313 286.3001L102.51875 286.3001L101.19063 282.83136L96.39375 282.83136L95.14375 286.3001L93.51875 286.3001ZM96.83125 281.597L100.72188 281.597L99.51875 278.4251Q98.97188 276.972 98.70625 276.0501Q98.4875 277.14386 98.09688 278.2376L96.83125 281.597ZM111.01875 283.25323L112.40938 283.44073Q112.175 284.8626 111.2375 285.6751Q110.31563 286.4876 108.95625 286.4876Q107.25313 286.4876 106.20625 285.37823Q105.175 284.25323 105.175 282.1751Q105.175 280.83136 105.6125 279.83136Q106.06563 278.81573 106.97188 278.31573Q107.89375 277.81573 108.95625 277.81573Q110.31563 277.81573 111.175 278.50323Q112.03438 279.1751 112.26875 280.44073L110.90938 280.64386Q110.70625 279.81573 110.20625 279.39386Q109.72188 278.972 109.01875 278.972Q107.95625 278.972 107.28438 279.7376Q106.62813 280.4876 106.62813 282.14386Q106.62813 283.81573 107.26875 284.58136Q107.90938 285.33136 108.94063 285.33136Q109.76875 285.33136 110.31563 284.83136Q110.87813 284.31573 111.01875 283.25323ZM116.675 285.0345L116.87813 286.2845Q116.28438 286.4095 115.81563 286.4095Q115.05 286.4095 114.62813 286.1751Q114.20625 285.9251 114.03438 285.5345Q113.8625 285.12823 113.8625 283.8626L113.8625 279.097L112.83125 279.097L112.83125 278.00323L113.8625 278.00323L113.8625 275.94073L115.26875 275.097L115.26875 278.00323L116.675 278.00323L116.675 279.097L115.26875 279.097L115.26875 283.94073Q115.26875 284.5501 115.33125 284.722Q115.40938 284.89386 115.58125 285.00323Q115.75313 285.097 116.06563 285.097Q116.3 285.097 116.675 285.0345ZM117.6125 276.45636L117.6125 274.847L119.01875 274.847L119.01875 276.45636L117.6125 276.45636ZM117.6125 286.3001L117.6125 278.00323L119.01875 278.00323L119.01875 286.3001L117.6125 286.3001ZM123.90938 286.3001L120.75313 278.00323L122.2375 278.00323L124.01875 282.972Q124.31563 283.76886 124.55 284.64386Q124.7375 283.9876 125.08125 283.06573L126.925 278.00323L128.3625 278.00323L125.22188 286.3001L123.90938 286.3001ZM129.6125 276.45636L129.6125 274.847L131.01875 274.847L131.01875 276.45636L129.6125 276.45636ZM129.6125 286.3001L129.6125 278.00323L131.01875 278.00323L131.01875 286.3001L129.6125 286.3001ZM136.675 285.0345L136.87813 286.2845Q136.28438 286.4095 135.81563 286.4095Q135.05 286.4095 134.62813 286.1751Q134.20625 285.9251 134.03438 285.5345Q133.8625 285.12823 133.8625 283.8626L133.8625 279.097L132.83125 279.097L132.83125 278.00323L133.8625 278.00323L133.8625 275.94073L135.26875 275.097L135.26875 278.00323L136.675 278.00323L136.675 279.097L135.26875 279.097L135.26875 283.94073Q135.26875 284.5501 135.33125 284.722Q135.40938 284.89386 135.58125 285.00323Q135.75313 285.097 136.06563 285.097Q136.3 285.097 136.675 285.0345ZM137.55 289.50323L137.39375 288.1751Q137.84688 288.3001 138.19063 288.3001Q138.65938 288.3001 138.94063 288.14386Q139.22188 287.9876 139.40938 287.70636Q139.53438 287.50323 139.83125 286.6595Q139.87813 286.5501 139.95625 286.31573L136.81563 278.00323L138.33125 278.00323L140.05 282.8001Q140.39375 283.722 140.65938 284.722Q140.89375 283.75323 141.2375 282.83136L143.00313 278.00323L144.40938 278.00323L141.25313 286.44073Q140.75313 287.81573 140.47188 288.33136Q140.09688 289.01886 139.6125 289.347Q139.12813 289.6751 138.45625 289.6751Q138.05 289.6751 137.55 289.50323Z" fill-rule="nonzero"/><path fill="#9e9e9e" d="M24.51875 308.3001L23.1125 308.3001L23.1125 299.33136Q22.596874 299.81573 21.76875 300.3001Q20.95625 300.7845 20.3 301.0345L20.3 299.6751Q21.471874 299.1126 22.346874 298.33136Q23.2375 297.5345 23.6125 296.8001L24.51875 296.8001L24.51875 308.3001ZM32.721874 308.3001L32.721874 305.5501L27.753124 305.5501L27.753124 304.26886L32.9875 296.847L34.128124 296.847L34.128124 304.26886L35.675 304.26886L35.675 305.5501L34.128124 305.5501L34.128124 308.3001L32.721874 308.3001ZM32.721874 304.26886L32.721874 299.097L29.14375 304.26886L32.721874 304.26886ZM38.003124 308.3001L38.003124 306.69073L39.6125 306.69073L39.6125 308.3001L38.003124 308.3001ZM41.221874 305.26886L42.628124 305.08136Q42.878124 306.2845 43.45625 306.81573Q44.034374 307.33136 44.878124 307.33136Q45.8625 307.33136 46.55 306.64386Q47.2375 305.95636 47.2375 304.94073Q47.2375 303.972 46.596874 303.347Q45.971874 302.722 44.9875 302.722Q44.596874 302.722 44.003124 302.87823L44.159374 301.64386Q44.3 301.6595 44.378124 301.6595Q45.284374 301.6595 46.003124 301.19073Q46.721874 300.722 46.721874 299.7376Q46.721874 298.972 46.190624 298.472Q45.675 297.95636 44.846874 297.95636Q44.01875 297.95636 43.471874 298.472Q42.925 298.9876 42.76875 300.01886L41.3625 299.76886Q41.628124 298.347 42.534374 297.58136Q43.45625 296.8001 44.815624 296.8001Q45.753124 296.8001 46.534374 297.20636Q47.33125 297.597 47.7375 298.3001Q48.159374 298.9876 48.159374 299.76886Q48.159374 300.51886 47.753124 301.12823Q47.3625 301.7376 46.58125 302.097Q47.596874 302.33136 48.159374 303.06573Q48.721874 303.8001 48.721874 304.9095Q48.721874 306.4095 47.628124 307.45636Q46.534374 308.50323 44.8625 308.50323Q43.3625 308.50323 42.3625 307.6126Q41.3625 306.70636 41.221874 305.26886ZM50.4875 299.597Q50.4875 298.3626 51.096874 297.50323Q51.721874 296.64386 52.89375 296.64386Q53.971874 296.64386 54.675 297.4251Q55.378124 298.19073 55.378124 299.6751Q55.378124 301.12823 54.659374 301.9251Q53.95625 302.70636 52.909374 302.70636Q51.8625 302.70636 51.175 301.94073Q50.4875 301.1595 50.4875 299.597ZM52.925 297.6126Q52.409374 297.6126 52.05 298.06573Q51.70625 298.51886 51.70625 299.7376Q51.70625 300.83136 52.05 301.2845Q52.409374 301.7376 52.925 301.7376Q53.45625 301.7376 53.8 301.2845Q54.159374 300.83136 54.159374 299.62823Q54.159374 298.51886 53.8 298.06573Q53.45625 297.6126 52.925 297.6126ZM52.940624 308.722L59.20625 296.64386L60.346874 296.64386L54.096874 308.722L52.940624 308.722ZM57.89375 305.6126Q57.89375 304.37823 58.503124 303.51886Q59.128124 302.6595 60.3 302.6595Q61.378124 302.6595 62.08125 303.44073Q62.8 304.20636 62.8 305.69073Q62.8 307.14386 62.08125 307.94073Q61.3625 308.722 60.315624 308.722Q59.26875 308.722 58.58125 307.94073Q57.89375 307.1595 57.89375 305.6126ZM60.346874 303.62823Q59.815624 303.62823 59.45625 304.08136Q59.1125 304.5345 59.1125 305.75323Q59.1125 306.847 59.45625 307.3001Q59.815624 307.75323 60.33125 307.75323Q60.878124 307.75323 61.221874 307.3001Q61.565624 306.847 61.565624 305.64386Q61.565624 304.5345 61.20625 304.08136Q60.8625 303.62823 60.346874 303.62823Z" fill-rule="nonzero"/><path stroke="#757575" stroke-width="1.0" stroke-linecap="butt" d="M18.55 291.8001L145.23334 291.8001L189.50507 291.8001" fill-rule="nonzero"/><path fill="#9e9e9e" d="M191.50507 291.8001C191.50507 290.69553 190.60963 289.8001 189.50507 289.8001C188.4005 289.8001 187.50507 290.69553 187.50507 291.8001C187.50507 292.90466 188.4005 293.8001 189.50507 293.8001C190.60963 293.8001 191.50507 292.90466 191.50507 291.8001" fill-rule="nonzero"/><path fill="#efefef" d="M481.71564 110.06656L481.71564 98.613434L489.9969 98.613434L489.9969 99.957184L483.23126 99.957184L483.23126 103.47281L489.575 103.47281L489.575 104.81656L483.23126 104.81656L483.23126 108.707184L490.2625 108.707184L490.2625 110.06656L481.71564 110.06656ZM495.575 108.800934L495.77814 110.050934Q495.1844 110.175934 494.71564 110.175934Q493.95 110.175934 493.52814 109.94156Q493.10626 109.69156 492.9344 109.300934Q492.7625 108.894684 492.7625 107.62906L492.7625 102.863434L491.73126 102.863434L491.73126 101.769684L492.7625 101.769684L492.7625 99.707184L494.16876 98.863434L494.16876 101.769684L495.575 101.769684L495.575 102.863434L494.16876 102.863434L494.16876 107.707184Q494.16876 108.31656 494.23126 108.488434Q494.3094 108.66031 494.48126 108.769684Q494.65314 108.863434 494.96564 108.863434Q495.2 108.863434 495.575 108.800934ZM496.5125 110.06656L496.5125 98.613434L497.91876 98.613434L497.91876 102.72281Q498.90314 101.582184 500.40314 101.582184Q501.325 101.582184 501.9969 101.94156Q502.6844 102.300934 502.96564 102.94156Q503.2625 103.582184 503.2625 104.800934L503.2625 110.06656L501.85626 110.06656L501.85626 104.800934Q501.85626 103.75406 501.40314 103.269684Q500.95 102.78531 500.10626 102.78531Q499.48126 102.78531 498.9344 103.113434Q498.3875 103.44156 498.15314 104.00406Q497.91876 104.550934 497.91876 105.519684L497.91876 110.06656L496.5125 110.06656ZM505.5125 110.06656L505.5125 101.769684L506.77814 101.769684L506.77814 102.94156Q507.6844 101.582184 509.41876 101.582184Q510.16876 101.582184 510.79376 101.84781Q511.41876 102.113434 511.73126 102.550934Q512.04376 102.988434 512.16876 103.59781Q512.2469 103.988434 512.2469 104.957184L512.2469 110.06656L510.84064 110.06656L510.84064 105.019684Q510.84064 104.16031 510.66876 103.738434Q510.5125 103.300934 510.09064 103.050934Q509.6844 102.800934 509.1219 102.800934Q508.21564 102.800934 507.5594 103.37906Q506.91876 103.94156 506.91876 105.53531L506.91876 110.06656L505.5125 110.06656ZM514.5125 100.22281L514.5125 98.613434L515.91876 98.613434L515.91876 100.22281L514.5125 100.22281ZM514.5125 110.06656L514.5125 101.769684L515.91876 101.769684L515.91876 110.06656L514.5125 110.06656ZM523.91876 107.019684L525.3094 107.207184Q525.075 108.62906 524.1375 109.44156Q523.21564 110.25406 521.85626 110.25406Q520.15314 110.25406 519.10626 109.144684Q518.075 108.019684 518.075 105.94156Q518.075 104.59781 518.5125 103.59781Q518.96564 102.582184 519.8719 102.082184Q520.79376 101.582184 521.85626 101.582184Q523.21564 101.582184 524.075 102.269684Q524.9344 102.94156 525.16876 104.207184L523.8094 104.41031Q523.60626 103.582184 523.10626 103.16031Q522.6219 102.738434 521.91876 102.738434Q520.85626 102.738434 520.1844 103.50406Q519.52814 104.25406 519.52814 105.91031Q519.52814 107.582184 520.16876 108.34781Q520.8094 109.09781 521.84064 109.09781Q522.66876 109.09781 523.21564 108.59781Q523.77814 108.082184 523.91876 107.019684ZM536.04376 105.56656L536.04376 104.22281L540.90314 104.22281L540.90314 108.47281Q539.77814 109.363434 538.59064 109.81656Q537.40314 110.269684 536.15314 110.269684Q534.46564 110.269684 533.09064 109.550934Q531.71564 108.81656 531.0125 107.457184Q530.3094 106.082184 530.3094 104.394684Q530.3094 102.72281 530.9969 101.269684Q531.7 99.81656 533.0125 99.113434Q534.325 98.41031 536.04376 98.41031Q537.27814 98.41031 538.27814 98.81656Q539.29376 99.22281 539.85626 99.94156Q540.4344 100.66031 540.73126 101.81656L539.35626 102.19156Q539.10626 101.31656 538.71564 100.81656Q538.34064 100.31656 537.6219 100.019684Q536.91876 99.707184 536.04376 99.707184Q535.0125 99.707184 534.2469 100.03531Q533.4969 100.34781 533.02814 100.863434Q532.5594 101.37906 532.3094 101.988434Q531.8719 103.050934 531.8719 104.300934Q531.8719 105.832184 532.3875 106.863434Q532.91876 107.894684 533.91876 108.394684Q534.9344 108.894684 536.075 108.894684Q537.0594 108.894684 537.9969 108.519684Q538.9344 108.12906 539.41876 107.707184L539.41876 105.56656L536.04376 105.56656ZM542.4969 110.06656L542.4969 101.769684L543.7625 101.769684L543.7625 103.019684Q544.2469 102.144684 544.65314 101.863434Q545.0594 101.582184 545.5594 101.582184Q546.2625 101.582184 546.9969 102.03531L546.5125 103.332184Q545.9969 103.03531 545.48126 103.03531Q545.02814 103.03531 544.65314 103.31656Q544.29376 103.582184 544.1375 104.082184Q543.90314 104.832184 543.90314 105.72281L543.90314 110.06656L542.4969 110.06656ZM546.98126 105.91031Q546.98126 103.613434 548.2625 102.50406Q549.34064 101.582184 550.8719 101.582184Q552.59064 101.582184 553.66876 102.707184Q554.7625 103.81656 554.7625 105.800934Q554.7625 107.394684 554.27814 108.31656Q553.79376 109.238434 552.8719 109.75406Q551.96564 110.25406 550.8719 110.25406Q549.1375 110.25406 548.0594 109.144684Q546.98126 108.019684 546.98126 105.91031ZM548.4344 105.91031Q548.4344 107.50406 549.1219 108.300934Q549.825 109.09781 550.8719 109.09781Q551.91876 109.09781 552.60626 108.300934Q553.3094 107.50406 553.3094 105.863434Q553.3094 104.332184 552.60626 103.53531Q551.91876 102.738434 550.8719 102.738434Q549.825 102.738434 549.1219 103.53531Q548.4344 104.31656 548.4344 105.91031ZM561.95 110.06656L561.95 108.84781Q560.98126 110.25406 559.3094 110.25406Q558.575 110.25406 557.9344 109.97281Q557.3094 109.69156 556.9969 109.269684Q556.6844 108.832184 556.5594 108.22281Q556.48126 107.800934 556.48126 106.91031L556.48126 101.769684L557.8875 101.769684L557.8875 106.363434Q557.8875 107.47281 557.96564 107.84781Q558.10626 108.41031 558.52814 108.72281Q558.96564 109.03531 559.59064 109.03531Q560.23126 109.03531 560.77814 108.72281Q561.34064 108.394684 561.5594 107.832184Q561.79376 107.269684 561.79376 106.207184L561.79376 101.769684L563.2 101.769684L563.2 110.06656L561.95 110.06656ZM565.5125 113.25406L565.5125 101.769684L566.79376 101.769684L566.79376 102.84781Q567.2469 102.207184 567.8094 101.894684Q568.3875 101.582184 569.2 101.582184Q570.2625 101.582184 571.075 102.12906Q571.8875 102.675934 572.29376 103.675934Q572.71564 104.66031 572.71564 105.84781Q572.71564 107.12906 572.2469 108.144684Q571.79376 109.16031 570.91876 109.707184Q570.0594 110.25406 569.09064 110.25406Q568.3875 110.25406 567.825 109.957184Q567.27814 109.66031 566.91876 109.207184L566.91876 113.25406L565.5125 113.25406ZM566.77814 105.957184Q566.77814 107.56656 567.41876 108.332184Q568.075 109.09781 568.9969 109.09781Q569.9344 109.09781 570.60626 108.300934Q571.27814 107.50406 571.27814 105.84781Q571.27814 104.25406 570.6219 103.47281Q569.96564 102.675934 569.0594 102.675934Q568.16876 102.675934 567.46564 103.519684Q566.77814 104.363434 566.77814 105.957184ZM573.95 107.582184L575.34064 107.363434Q575.45 108.207184 575.98126 108.66031Q576.52814 109.09781 577.48126 109.09781Q578.45 109.09781 578.91876 108.707184Q579.3875 108.300934 579.3875 107.769684Q579.3875 107.300934 578.98126 107.019684Q578.6844 106.832184 577.54376 106.550934Q575.9969 106.16031 575.3875 105.87906Q574.79376 105.582184 574.48126 105.082184Q574.1844 104.582184 574.1844 103.97281Q574.1844 103.41031 574.4344 102.94156Q574.6844 102.47281 575.1219 102.16031Q575.45 101.91031 576.0125 101.75406Q576.59064 101.582184 577.23126 101.582184Q578.21564 101.582184 578.95 101.863434Q579.6844 102.144684 580.02814 102.62906Q580.3875 103.09781 580.52814 103.91031L579.15314 104.09781Q579.0594 103.457184 578.60626 103.09781Q578.15314 102.738434 577.34064 102.738434Q576.3719 102.738434 575.95 103.06656Q575.54376 103.37906 575.54376 103.800934Q575.54376 104.082184 575.71564 104.300934Q575.8875 104.519684 576.2469 104.675934Q576.46564 104.75406 577.4969 105.03531Q578.98126 105.425934 579.575 105.69156Q580.16876 105.94156 580.4969 106.425934Q580.84064 106.91031 580.84064 107.62906Q580.84064 108.332184 580.41876 108.957184Q580.0125 109.56656 579.23126 109.91031Q578.46564 110.25406 577.4969 110.25406Q575.8719 110.25406 575.02814 109.582184Q574.1844 108.91031 573.95 107.582184Z" fill-rule="nonzero"/><path fill="#9e9e9e" d="M544.5125 130.70718L544.5125 132.06656L536.9344 132.06656Q536.91876 131.55093 537.10626 131.08218Q537.3875 130.31656 538.02814 129.56656Q538.66876 128.81656 539.8719 127.832184Q541.73126 126.300934 542.3875 125.41031Q543.04376 124.50406 543.04376 123.707184Q543.04376 122.87906 542.45 122.300934Q541.85626 121.72281 540.8875 121.72281Q539.8719 121.72281 539.2625 122.332184Q538.65314 122.94156 538.65314 124.019684L537.2 123.87906Q537.35626 122.25406 538.325 121.41031Q539.29376 120.56656 540.91876 120.56656Q542.575 120.56656 543.52814 121.488434Q544.4969 122.394684 544.4969 123.738434Q544.4969 124.425934 544.21564 125.09781Q543.9344 125.75406 543.27814 126.488434Q542.6219 127.22281 541.10626 128.50406Q539.84064 129.56656 539.48126 129.95718Q539.1219 130.33218 538.8875 130.70718L544.5125 130.70718ZM548.27814 125.84781Q547.40314 125.53531 546.98126 124.94156Q546.5594 124.34781 546.5594 123.519684Q546.5594 122.269684 547.45 121.425934Q548.35626 120.56656 549.85626 120.56656Q551.35626 120.56656 552.2625 121.44156Q553.1844 122.300934 553.1844 123.550934Q553.1844 124.34781 552.7625 124.94156Q552.34064 125.53531 551.4969 125.84781Q552.54376 126.19156 553.09064 126.957184Q553.65314 127.72281 553.65314 128.78531Q553.65314 130.25406 552.60626 131.26968Q551.575 132.26968 549.8719 132.26968Q548.1844 132.26968 547.1375 131.26968Q546.10626 130.25406 546.10626 128.75406Q546.10626 127.62906 546.66876 126.87906Q547.23126 126.12906 548.27814 125.84781ZM547.9969 123.47281Q547.9969 124.28531 548.5125 124.800934Q549.04376 125.31656 549.8875 125.31656Q550.7 125.31656 551.21564 124.800934Q551.73126 124.28531 551.73126 123.550934Q551.73126 122.769684 551.2 122.25406Q550.66876 121.72281 549.8719 121.72281Q549.0594 121.72281 548.52814 122.238434Q547.9969 122.75406 547.9969 123.47281ZM547.54376 128.75406Q547.54376 129.36343 547.825 129.92593Q548.1219 130.48843 548.6844 130.80093Q549.2469 131.09781 549.8875 131.09781Q550.90314 131.09781 551.5594 130.45718Q552.21564 129.80093 552.21564 128.80093Q552.21564 127.78531 551.52814 127.12906Q550.85626 126.457184 549.84064 126.457184Q548.85626 126.457184 548.2 127.113434Q547.54376 127.769684 547.54376 128.75406ZM555.90314 132.06656L555.90314 130.45718L557.5125 130.45718L557.5125 132.06656L555.90314 132.06656ZM566.41876 123.41031L565.0125 123.519684Q564.825 122.69156 564.48126 122.31656Q563.91876 121.72281 563.075 121.72281Q562.40314 121.72281 561.90314 122.09781Q561.23126 122.582184 560.84064 123.519684Q560.46564 124.44156 560.45 126.16031Q560.96564 125.37906 561.7 125.00406Q562.4344 124.62906 563.23126 124.62906Q564.6375 124.62906 565.6219 125.675934Q566.6219 126.707184 566.6219 128.34781Q566.6219 129.42593 566.15314 130.34781Q565.6844 131.26968 564.8719 131.76968Q564.0594 132.26968 563.02814 132.26968Q561.27814 132.26968 560.16876 130.97281Q559.0594 129.67593 559.0594 126.707184Q559.0594 123.37906 560.27814 121.87906Q561.35626 120.56656 563.16876 120.56656Q564.5125 120.56656 565.3719 121.332184Q566.2469 122.082184 566.41876 123.41031ZM560.66876 128.34781Q560.66876 129.08218 560.98126 129.75406Q561.29376 130.41031 561.84064 130.75406Q562.40314 131.09781 563.0125 131.09781Q563.90314 131.09781 564.54376 130.37906Q565.1844 129.66031 565.1844 128.42593Q565.1844 127.238434 564.54376 126.56656Q563.91876 125.87906 562.95 125.87906Q561.9969 125.87906 561.325 126.56656Q560.66876 127.238434 560.66876 128.34781ZM568.3875 123.363434Q568.3875 122.12906 568.9969 121.269684Q569.6219 120.41031 570.79376 120.41031Q571.8719 120.41031 572.575 121.19156Q573.27814 121.957184 573.27814 123.44156Q573.27814 124.894684 572.5594 125.69156Q571.85626 126.47281 570.8094 126.47281Q569.7625 126.47281 569.075 125.707184Q568.3875 124.925934 568.3875 123.363434ZM570.825 121.37906Q570.3094 121.37906 569.95 121.832184Q569.60626 122.28531 569.60626 123.50406Q569.60626 124.59781 569.95 125.050934Q570.3094 125.50406 570.825 125.50406Q571.35626 125.50406 571.7 125.050934Q572.0594 124.59781 572.0594 123.394684Q572.0594 122.28531 571.7 121.832184Q571.35626 121.37906 570.825 121.37906ZM570.84064 132.48843L577.10626 120.41031L578.2469 120.41031L571.9969 132.48843L570.84064 132.48843ZM575.79376 129.37906Q575.79376 128.14468 576.40314 127.28531Q577.02814 126.425934 578.2 126.425934Q579.27814 126.425934 579.98126 127.207184Q580.7 127.97281 580.7 129.45718Q580.7 130.91031 579.98126 131.70718Q579.2625 132.48843 578.21564 132.48843Q577.16876 132.48843 576.48126 131.70718Q575.79376 130.92593 575.79376 129.37906ZM578.2469 127.394684Q577.71564 127.394684 577.35626 127.84781Q577.0125 128.30093 577.0125 129.51968Q577.0125 130.61343 577.35626 131.06656Q577.71564 131.51968 578.23126 131.51968Q578.77814 131.51968 579.1219 131.06656Q579.46564 130.61343 579.46564 129.41031Q579.46564 128.30093 579.10626 127.84781Q578.7625 127.394684 578.2469 127.394684Z" fill-rule="nonzero"/><path stroke="#757575" stroke-width="1.0" stroke-linecap="butt" d="M581.45 115.56656L454.76666 115.56656L410.49493 115.56656" fill-rule="nonzero"/><path fill="#9e9e9e" d="M412.49493 115.56656C412.49493 114.46199 411.59952 113.56656 410.49493 113.56656C409.39038 113.56656 408.49493 114.46199 408.49493 115.56656C408.49493 116.67113 409.39038 117.56656 410.49493 117.56656C411.59952 117.56656 412.49493 116.67113 412.49493 115.56656" fill-rule="nonzero"/><path fill="#efefef" d="M495.85626 321.50012L497.3719 321.87512Q496.90314 323.75012 495.65314 324.7345Q494.41876 325.71887 492.6375 325.71887Q490.77814 325.71887 489.6219 324.96887Q488.46564 324.20325 487.85626 322.78137Q487.2469 321.34387 487.2469 319.70325Q487.2469 317.90637 487.9344 316.57825Q488.6219 315.25012 489.8719 314.56262Q491.1375 313.8595 492.65314 313.8595Q494.3719 313.8595 495.54376 314.7345Q496.71564 315.6095 497.1844 317.20325L495.6844 317.547Q495.29376 316.297 494.52814 315.7345Q493.77814 315.15637 492.6219 315.15637Q491.3094 315.15637 490.41876 315.797Q489.52814 316.422 489.16876 317.50012Q488.8094 318.56262 488.8094 319.68762Q488.8094 321.15637 489.23126 322.25012Q489.66876 323.32825 490.5594 323.87512Q491.46564 324.40637 492.5125 324.40637Q493.77814 324.40637 494.65314 323.672Q495.54376 322.93762 495.85626 321.50012ZM504.95 325.51575L504.95 324.297Q503.98126 325.70325 502.3094 325.70325Q501.575 325.70325 500.9344 325.422Q500.3094 325.14075 499.9969 324.71887Q499.6844 324.28137 499.5594 323.672Q499.48126 323.25012 499.48126 322.3595L499.48126 317.21887L500.8875 317.21887L500.8875 321.81262Q500.8875 322.922 500.96564 323.297Q501.10626 323.8595 501.52814 324.172Q501.96564 324.4845 502.59064 324.4845Q503.23126 324.4845 503.77814 324.172Q504.34064 323.84387 504.5594 323.28137Q504.79376 322.71887 504.79376 321.65637L504.79376 317.21887L506.2 317.21887L506.2 325.51575L504.95 325.51575ZM508.48126 325.51575L508.48126 314.06262L509.8875 314.06262L509.8875 325.51575L508.48126 325.51575ZM515.575 324.25012L515.77814 325.50012Q515.1844 325.62512 514.71564 325.62512Q513.95 325.62512 513.52814 325.39075Q513.10626 325.14075 512.9344 324.75012Q512.7625 324.34387 512.7625 323.07825L512.7625 318.31262L511.73126 318.31262L511.73126 317.21887L512.7625 317.21887L512.7625 315.15637L514.16876 314.31262L514.16876 317.21887L515.575 317.21887L515.575 318.31262L514.16876 318.31262L514.16876 323.15637Q514.16876 323.76575 514.23126 323.93762Q514.3094 324.1095 514.48126 324.21887Q514.65314 324.31262 514.96564 324.31262Q515.2 324.31262 515.575 324.25012ZM521.95 325.51575L521.95 324.297Q520.98126 325.70325 519.3094 325.70325Q518.575 325.70325 517.9344 325.422Q517.3094 325.14075 516.9969 324.71887Q516.6844 324.28137 516.5594 323.672Q516.48126 323.25012 516.48126 322.3595L516.48126 317.21887L517.8875 317.21887L517.8875 321.81262Q517.8875 322.922 517.96564 323.297Q518.10626 323.8595 518.52814 324.172Q518.96564 324.4845 519.59064 324.4845Q520.23126 324.4845 520.77814 324.172Q521.34064 323.84387 521.5594 323.28137Q521.79376 322.71887 521.79376 321.65637L521.79376 317.21887L523.2 317.21887L523.2 325.51575L521.95 325.51575ZM525.4969 325.51575L525.4969 317.21887L526.7625 317.21887L526.7625 318.46887Q527.2469 317.59387 527.65314 317.31262Q528.0594 317.03137 528.5594 317.03137Q529.2625 317.03137 529.9969 317.4845L529.5125 318.78137Q528.9969 318.4845 528.48126 318.4845Q528.02814 318.4845 527.65314 318.76575Q527.29376 319.03137 527.1375 319.53137Q526.90314 320.28137 526.90314 321.172L526.90314 325.51575L525.4969 325.51575ZM535.91876 324.4845Q535.1375 325.15637 534.41876 325.43762Q533.7 325.70325 532.8719 325.70325Q531.4969 325.70325 530.7625 325.03137Q530.02814 324.3595 530.02814 323.32825Q530.02814 322.71887 530.3094 322.21887Q530.59064 321.70325 531.02814 321.40637Q531.48126 321.09387 532.04376 320.93762Q532.46564 320.82825 533.29376 320.7345Q534.9969 320.53137 535.8094 320.25012Q535.8094 319.95325 535.8094 319.87512Q535.8094 319.01575 535.41876 318.672Q534.8719 318.18762 533.8094 318.18762Q532.825 318.18762 532.34064 318.547Q531.8719 318.89075 531.65314 319.76575L530.27814 319.57825Q530.46564 318.70325 530.8875 318.15637Q531.325 317.6095 532.1375 317.32825Q532.95 317.03137 534.0125 317.03137Q535.075 317.03137 535.73126 317.28137Q536.40314 317.53137 536.71564 317.90637Q537.02814 318.28137 537.15314 318.8595Q537.23126 319.21887 537.23126 320.15637L537.23126 322.03137Q537.23126 324.00012 537.3094 324.51575Q537.40314 325.03137 537.66876 325.51575L536.2 325.51575Q535.98126 325.07825 535.91876 324.4845ZM535.8094 321.34387Q535.04376 321.65637 533.5125 321.87512Q532.6375 322.00012 532.27814 322.15637Q531.91876 322.31262 531.71564 322.62512Q531.52814 322.922 531.52814 323.28137Q531.52814 323.84387 531.95 324.21887Q532.3875 324.59387 533.2 324.59387Q534.0125 324.59387 534.6375 324.25012Q535.27814 323.89075 535.575 323.26575Q535.8094 322.797 535.8094 321.8595L535.8094 321.34387ZM539.48126 325.51575L539.48126 314.06262L540.8875 314.06262L540.8875 325.51575L539.48126 325.51575ZM546.41876 325.51575L550.825 314.06262L552.46564 314.06262L557.15314 325.51575L555.41876 325.51575L554.09064 322.047L549.29376 322.047L548.04376 325.51575L546.41876 325.51575ZM549.73126 320.81262L553.6219 320.81262L552.41876 317.64075Q551.8719 316.18762 551.60626 315.26575Q551.3875 316.3595 550.9969 317.45325L549.73126 320.81262ZM563.91876 322.46887L565.3094 322.65637Q565.075 324.07825 564.1375 324.89075Q563.21564 325.70325 561.85626 325.70325Q560.15314 325.70325 559.10626 324.59387Q558.075 323.46887 558.075 321.39075Q558.075 320.047 558.5125 319.047Q558.96564 318.03137 559.8719 317.53137Q560.79376 317.03137 561.85626 317.03137Q563.21564 317.03137 564.075 317.71887Q564.9344 318.39075 565.16876 319.65637L563.8094 319.8595Q563.60626 319.03137 563.10626 318.6095Q562.6219 318.18762 561.91876 318.18762Q560.85626 318.18762 560.1844 318.95325Q559.52814 319.70325 559.52814 321.3595Q559.52814 323.03137 560.16876 323.797Q560.8094 324.547 561.84064 324.547Q562.66876 324.547 563.21564 324.047Q563.77814 323.53137 563.91876 322.46887ZM569.575 324.25012L569.77814 325.50012Q569.1844 325.62512 568.71564 325.62512Q567.95 325.62512 567.52814 325.39075Q567.10626 325.14075 566.9344 324.75012Q566.7625 324.34387 566.7625 323.07825L566.7625 318.31262L565.73126 318.31262L565.73126 317.21887L566.7625 317.21887L566.7625 315.15637L568.16876 314.31262L568.16876 317.21887L569.575 317.21887L569.575 318.31262L568.16876 318.31262L568.16876 323.15637Q568.16876 323.76575 568.23126 323.93762Q568.3094 324.1095 568.48126 324.21887Q568.65314 324.31262 568.96564 324.31262Q569.2 324.31262 569.575 324.25012ZM569.95 323.03137L571.34064 322.81262Q571.45 323.65637 571.98126 324.1095Q572.52814 324.547 573.48126 324.547Q574.45 324.547 574.91876 324.15637Q575.3875 323.75012 575.3875 323.21887Q575.3875 322.75012 574.98126 322.46887Q574.6844 322.28137 573.54376 322.00012Q571.9969 321.6095 571.3875 321.32825Q570.79376 321.03137 570.48126 320.53137Q570.1844 320.03137 570.1844 319.422Q570.1844 318.8595 570.4344 318.39075Q570.6844 317.922 571.1219 317.6095Q571.45 317.3595 572.0125 317.20325Q572.59064 317.03137 573.23126 317.03137Q574.21564 317.03137 574.95 317.31262Q575.6844 317.59387 576.02814 318.07825Q576.3875 318.547 576.52814 319.3595L575.15314 319.547Q575.0594 318.90637 574.60626 318.547Q574.15314 318.18762 573.34064 318.18762Q572.3719 318.18762 571.95 318.51575Q571.54376 318.82825 571.54376 319.25012Q571.54376 319.53137 571.71564 319.75012Q571.8875 319.96887 572.2469 320.12512Q572.46564 320.20325 573.4969 320.4845Q574.98126 320.87512 575.575 321.14075Q576.16876 321.39075 576.4969 321.87512Q576.84064 322.3595 576.84064 323.07825Q576.84064 323.78137 576.41876 324.40637Q576.0125 325.01575 575.23126 325.3595Q574.46564 325.70325 573.4969 325.70325Q571.8719 325.70325 571.02814 325.03137Q570.1844 324.3595 569.95 323.03137ZM578.90314 325.51575L578.90314 323.90637L580.5125 323.90637L580.5125 325.51575L578.90314 325.51575Z" fill-rule="nonzero"/><path fill="#9e9e9e" d="M544.5125 346.15637L544.5125 347.51575L536.9344 347.51575Q536.91876 347.00012 537.10626 346.53137Q537.3875 345.76575 538.02814 345.01575Q538.66876 344.26575 539.8719 343.28137Q541.73126 341.75012 542.3875 340.8595Q543.04376 339.95325 543.04376 339.15637Q543.04376 338.32825 542.45 337.75012Q541.85626 337.172 540.8875 337.172Q539.8719 337.172 539.2625 337.78137Q538.65314 338.39075 538.65314 339.46887L537.2 339.32825Q537.35626 337.70325 538.325 336.8595Q539.29376 336.01575 540.91876 336.01575Q542.575 336.01575 543.52814 336.93762Q544.4969 337.84387 544.4969 339.18762Q544.4969 339.87512 544.21564 340.547Q543.9344 341.20325 543.27814 341.93762Q542.6219 342.672 541.10626 343.95325Q539.84064 345.01575 539.48126 345.40637Q539.1219 345.78137 538.8875 346.15637L544.5125 346.15637ZM548.27814 341.297Q547.40314 340.9845 546.98126 340.39075Q546.5594 339.797 546.5594 338.96887Q546.5594 337.71887 547.45 336.87512Q548.35626 336.01575 549.85626 336.01575Q551.35626 336.01575 552.2625 336.89075Q553.1844 337.75012 553.1844 339.00012Q553.1844 339.797 552.7625 340.39075Q552.34064 340.9845 551.4969 341.297Q552.54376 341.64075 553.09064 342.40637Q553.65314 343.172 553.65314 344.2345Q553.65314 345.70325 552.60626 346.71887Q551.575 347.71887 549.8719 347.71887Q548.1844 347.71887 547.1375 346.71887Q546.10626 345.70325 546.10626 344.20325Q546.10626 343.07825 546.66876 342.32825Q547.23126 341.57825 548.27814 341.297ZM547.9969 338.922Q547.9969 339.7345 548.5125 340.25012Q549.04376 340.76575 549.8875 340.76575Q550.7 340.76575 551.21564 340.25012Q551.73126 339.7345 551.73126 339.00012Q551.73126 338.21887 551.2 337.70325Q550.66876 337.172 549.8719 337.172Q549.0594 337.172 548.52814 337.68762Q547.9969 338.20325 547.9969 338.922ZM547.54376 344.20325Q547.54376 344.81262 547.825 345.37512Q548.1219 345.93762 548.6844 346.25012Q549.2469 346.547 549.8875 346.547Q550.90314 346.547 551.5594 345.90637Q552.21564 345.25012 552.21564 344.25012Q552.21564 343.2345 551.52814 342.57825Q550.85626 341.90637 549.84064 341.90637Q548.85626 341.90637 548.2 342.56262Q547.54376 343.21887 547.54376 344.20325ZM555.90314 347.51575L555.90314 345.90637L557.5125 345.90637L557.5125 347.51575L555.90314 347.51575ZM566.41876 338.8595L565.0125 338.96887Q564.825 338.14075 564.48126 337.76575Q563.91876 337.172 563.075 337.172Q562.40314 337.172 561.90314 337.547Q561.23126 338.03137 560.84064 338.96887Q560.46564 339.89075 560.45 341.6095Q560.96564 340.82825 561.7 340.45325Q562.4344 340.07825 563.23126 340.07825Q564.6375 340.07825 565.6219 341.12512Q566.6219 342.15637 566.6219 343.797Q566.6219 344.87512 566.15314 345.797Q565.6844 346.71887 564.8719 347.21887Q564.0594 347.71887 563.02814 347.71887Q561.27814 347.71887 560.16876 346.422Q559.0594 345.12512 559.0594 342.15637Q559.0594 338.82825 560.27814 337.32825Q561.35626 336.01575 563.16876 336.01575Q564.5125 336.01575 565.3719 336.78137Q566.2469 337.53137 566.41876 338.8595ZM560.66876 343.797Q560.66876 344.53137 560.98126 345.20325Q561.29376 345.8595 561.84064 346.20325Q562.40314 346.547 563.0125 346.547Q563.90314 346.547 564.54376 345.82825Q565.1844 345.1095 565.1844 343.87512Q565.1844 342.68762 564.54376 342.01575Q563.91876 341.32825 562.95 341.32825Q561.9969 341.32825 561.325 342.01575Q560.66876 342.68762 560.66876 343.797ZM568.3875 338.81262Q568.3875 337.57825 568.9969 336.71887Q569.6219 335.8595 570.79376 335.8595Q571.8719 335.8595 572.575 336.64075Q573.27814 337.40637 573.27814 338.89075Q573.27814 340.34387 572.5594 341.14075Q571.85626 341.922 570.8094 341.922Q569.7625 341.922 569.075 341.15637Q568.3875 340.37512 568.3875 338.81262ZM570.825 336.82825Q570.3094 336.82825 569.95 337.28137Q569.60626 337.7345 569.60626 338.95325Q569.60626 340.047 569.95 340.50012Q570.3094 340.95325 570.825 340.95325Q571.35626 340.95325 571.7 340.50012Q572.0594 340.047 572.0594 338.84387Q572.0594 337.7345 571.7 337.28137Q571.35626 336.82825 570.825 336.82825ZM570.84064 347.93762L577.10626 335.8595L578.2469 335.8595L571.9969 347.93762L570.84064 347.93762ZM575.79376 344.82825Q575.79376 343.59387 576.40314 342.7345Q577.02814 341.87512 578.2 341.87512Q579.27814 341.87512 579.98126 342.65637Q580.7 343.422 580.7 344.90637Q580.7 346.3595 579.98126 347.15637Q579.2625 347.93762 578.21564 347.93762Q577.16876 347.93762 576.48126 347.15637Q575.79376 346.37512 575.79376 344.82825ZM578.2469 342.84387Q577.71564 342.84387 577.35626 343.297Q577.0125 343.75012 577.0125 344.96887Q577.0125 346.06262 577.35626 346.51575Q577.71564 346.96887 578.23126 346.96887Q578.77814 346.96887 579.1219 346.51575Q579.46564 346.06262 579.46564 344.8595Q579.46564 343.75012 579.10626 343.297Q578.7625 342.84387 578.2469 342.84387Z" fill-rule="nonzero"/><path stroke="#757575" stroke-width="1.0" stroke-linecap="butt" d="M581.45 331.01575L454.76666 331.01575L361.32007 331.01575" fill-rule="nonzero"/><path fill="#9e9e9e" d="M363.32007 331.01575C363.32007 329.9112 362.42462 329.01575 361.32007 329.01575C360.21548 329.01575 359.32007 329.9112 359.32007 331.01575C359.32007 332.12033 360.21548 333.01575 361.32007 333.01575C362.42462 333.01575 363.32007 332.12033 363.32007 331.01575" fill-rule="nonzero"/><path fill="#f3f3f3" d="M271.26562 32.534374L273.15625 33.003124Q272.5625 35.346874 271.01562 36.58125Q269.46875 37.8 267.21875 37.8Q264.90625 37.8 263.45312 36.8625Q262.01562 35.909374 261.25 34.128124Q260.5 32.33125 260.5 30.284374Q260.5 28.05 261.34375 26.39375Q262.20312 24.721874 263.78125 23.8625Q265.35938 22.9875 267.25 22.9875Q269.40625 22.9875 270.85938 24.08125Q272.32812 25.175 272.90625 27.159374L271.04688 27.596874Q270.54688 26.034374 269.59375 25.33125Q268.65625 24.6125 267.21875 24.6125Q265.5625 24.6125 264.45312 25.409374Q263.34375 26.190624 262.89062 27.534374Q262.45312 28.8625 262.45312 30.26875Q262.45312 32.096874 262.98438 33.471874Q263.51562 34.83125 264.64062 35.503124Q265.76562 36.175 267.0625 36.175Q268.65625 36.175 269.76562 35.253124Q270.875 34.33125 271.26562 32.534374ZM281.59375 36.26875Q280.60938 37.096874 279.70312 37.440624Q278.79688 37.784374 277.76562 37.784374Q276.0625 37.784374 275.14062 36.95625Q274.21875 36.1125 274.21875 34.815624Q274.21875 34.05 274.5625 33.425Q274.92188 32.8 275.48438 32.425Q276.04688 32.034374 276.75 31.83125Q277.26562 31.70625 278.3125 31.565624Q280.4375 31.315624 281.4375 30.971874Q281.45312 30.6125 281.45312 30.503124Q281.45312 29.440624 280.95312 28.9875Q280.28125 28.39375 278.95312 28.39375Q277.70312 28.39375 277.10938 28.83125Q276.53125 29.26875 276.25 30.378124L274.53125 30.14375Q274.76562 29.034374 275.29688 28.3625Q275.82812 27.675 276.84375 27.315624Q277.85938 26.940624 279.20312 26.940624Q280.53125 26.940624 281.35938 27.253124Q282.1875 27.565624 282.57812 28.05Q282.96875 28.51875 283.125 29.2375Q283.21875 29.690624 283.21875 30.8625L283.21875 33.20625Q283.21875 35.659374 283.32812 36.315624Q283.4375 36.95625 283.78125 37.55L281.9375 37.55Q281.67188 37.003124 281.59375 36.26875ZM281.4375 32.346874Q280.48438 32.7375 278.5625 33.003124Q277.48438 33.159374 277.03125 33.3625Q276.59375 33.55 276.34375 33.925Q276.09375 34.3 276.09375 34.76875Q276.09375 35.471874 276.625 35.940624Q277.15625 36.409374 278.1875 36.409374Q279.20312 36.409374 279.98438 35.971874Q280.78125 35.51875 281.15625 34.753124Q281.4375 34.14375 281.4375 32.9875L281.4375 32.346874ZM289.65625 35.971874L289.90625 37.534374Q289.17188 37.690624 288.57812 37.690624Q287.625 37.690624 287.09375 37.39375Q286.57812 37.08125 286.35938 36.596874Q286.14062 36.096874 286.14062 34.51875L286.14062 28.55L284.85938 28.55L284.85938 27.175L286.14062 27.175L286.14062 24.6125L287.89062 23.55L287.89062 27.175L289.65625 27.175L289.65625 28.55L287.89062 28.55L287.89062 34.6125Q287.89062 35.3625 287.98438 35.58125Q288.07812 35.784374 288.28125 35.925Q288.5 36.05 288.89062 36.05Q289.17188 36.05 289.65625 35.971874ZM298.92188 34.20625L300.73438 34.440624Q300.3125 36.01875 299.14062 36.909374Q297.98438 37.784374 296.17188 37.784374Q293.90625 37.784374 292.5625 36.39375Q291.23438 34.9875 291.23438 32.45625Q291.23438 29.83125 292.57812 28.39375Q293.92188 26.940624 296.07812 26.940624Q298.15625 26.940624 299.46875 28.3625Q300.79688 29.76875 300.79688 32.346874Q300.79688 32.503124 300.78125 32.815624L293.04688 32.815624Q293.14062 34.51875 294.01562 35.425Q294.89062 36.33125 296.1875 36.33125Q297.15625 36.33125 297.82812 35.83125Q298.51562 35.315624 298.92188 34.20625ZM293.14062 31.3625L298.9375 31.3625Q298.82812 30.065624 298.28125 29.409374Q297.4375 28.39375 296.09375 28.39375Q294.89062 28.39375 294.0625 29.20625Q293.23438 30.003124 293.14062 31.3625ZM302.5 38.409374L304.20312 38.659374Q304.3125 39.45625 304.79688 39.815624Q305.45312 40.3 306.59375 40.3Q307.8125 40.3 308.46875 39.815624Q309.14062 39.33125 309.375 38.45625Q309.51562 37.909374 309.5 36.190624Q308.34375 37.55 306.625 37.55Q304.48438 37.55 303.3125 36.003124Q302.14062 34.45625 302.14062 32.3Q302.14062 30.815624 302.67188 29.565624Q303.21875 28.315624 304.23438 27.628124Q305.26562 26.940624 306.64062 26.940624Q308.46875 26.940624 309.67188 28.425L309.67188 27.175L311.28125 27.175L311.28125 36.14375Q311.28125 38.565624 310.78125 39.565624Q310.29688 40.58125 309.21875 41.159374Q308.15625 41.753124 306.59375 41.753124Q304.75 41.753124 303.59375 40.925Q302.45312 40.096874 302.5 38.409374ZM303.95312 32.175Q303.95312 34.221874 304.76562 35.159374Q305.57812 36.096874 306.79688 36.096874Q308.0 36.096874 308.8125 35.159374Q309.64062 34.221874 309.64062 32.2375Q309.64062 30.33125 308.79688 29.3625Q307.95312 28.39375 306.76562 28.39375Q305.59375 28.39375 304.76562 29.346874Q303.95312 30.3 303.95312 32.175ZM313.17188 32.3625Q313.17188 29.4875 314.76562 28.096874Q316.10938 26.940624 318.03125 26.940624Q320.17188 26.940624 321.51562 28.346874Q322.875 29.753124 322.875 32.221874Q322.875 34.221874 322.28125 35.378124Q321.6875 36.51875 320.53125 37.159374Q319.39062 37.784374 318.03125 37.784374Q315.84375 37.784374 314.5 36.39375Q313.17188 34.9875 313.17188 32.3625ZM314.96875 32.3625Q314.96875 34.3625 315.82812 35.346874Q316.70312 36.33125 318.03125 36.33125Q319.34375 36.33125 320.20312 35.346874Q321.07812 34.346874 321.07812 32.3Q321.07812 30.378124 320.20312 29.39375Q319.32812 28.39375 318.03125 28.39375Q316.70312 28.39375 315.82812 29.39375Q314.96875 30.378124 314.96875 32.3625ZM324.79688 37.55L324.79688 27.175L326.375 27.175L326.375 28.753124Q326.98438 27.64375 327.5 27.3Q328.01562 26.940624 328.625 26.940624Q329.51562 26.940624 330.4375 27.503124L329.82812 29.14375Q329.1875 28.753124 328.54688 28.753124Q327.96875 28.753124 327.5 29.1125Q327.04688 29.45625 326.84375 30.065624Q326.5625 31.003124 326.5625 32.1125L326.5625 37.55L324.79688 37.55ZM331.73438 41.55L331.54688 39.89375Q332.125 40.05 332.54688 40.05Q333.14062 40.05 333.48438 39.846874Q333.84375 39.659374 334.0625 39.315624Q334.23438 39.05 334.60938 38.003124Q334.65625 37.846874 334.76562 37.565624L330.82812 27.175L332.71875 27.175L334.875 33.190624Q335.29688 34.33125 335.625 35.58125Q335.9375 34.378124 336.34375 33.221874L338.5625 27.175L340.32812 27.175L336.375 37.721874Q335.75 39.440624 335.39062 40.08125Q334.92188 40.95625 334.3125 41.346874Q333.71875 41.753124 332.875 41.753124Q332.35938 41.753124 331.73438 41.55Z" fill-rule="nonzero"/></svg>