<svg version="1.1" viewBox="0.0 0.0 600.0 371.0" fill="none" stroke="none" stroke-linecap="square" stroke-miterlimit="10" width="600" height="371" xmlns:xlink="http://www.w3.org/1999/xlink" xmlns="http://www.w3.org/2000/svg"><path fill="#ffffff" fill-opacity="0.0" d="M0 0L600.0 0L600.0 371.0L0 371.0L0 0Z" fill-rule="nonzero"/><path fill="#533990" d="M300.0 54.916668C353.1492 54.916668 402.2611 83.27143 428.83572 129.3C455.4103 175.32857 455.4103 232.0381 428.83572 278.06668L332.20892 222.27916C338.85257 210.77202 338.85257 196.59464 332.20892 185.0875C325.56528 173.58035 313.2873 166.49167 300.0 166.49167Z" fill-rule="nonzero"/><path fill="#f7d750" d="M171.16429 278.06668C144.58968 232.0381 144.58968 175.32857 171.16429 129.3C197.73889 83.27143 246.85078 54.916668 300.0 54.916668L300.0 166.49167C286.7127 166.49167 274.43472 173.58035 267.79108 185.0875C261.14743 196.59464 261.14743 210.77202 267.79108 222.27916Z" fill-rule="nonzero"/><path fill="#cf4366" d="M428.83572 278.06668C402.2611 324.09525 353.1492 352.45 300.0 352.45C246.85078 352.45 197.73889 324.09525 171.16429 278.06668L267.79108 222.27916C274.43472 233.78632 286.7127 240.875 300.0 240.875C313.2873 240.875 325.56528 233.78632 332.20892 222.27916Z" fill-rule="nonzero"/><path fill="#ffffff" d="M362.80548 156.2269L364.39923 156.02377Q364.66486 157.36752 365.3211 157.96127Q365.97736 158.55502 366.91486 158.55502Q368.03986 158.55502 368.80548 157.7894Q369.5711 157.00815 369.5711 155.86752Q369.5711 154.77377 368.85236 154.07065Q368.14923 153.3519 367.05548 153.3519Q366.60236 153.3519 365.93048 153.5394L366.10236 152.14877Q366.2586 152.1644 366.36798 152.1644Q367.36798 152.1644 368.18048 151.63315Q368.99298 151.1019 368.99298 150.00815Q368.99298 149.13315 368.39923 148.57065Q367.80548 147.99252 366.8836 147.99252Q365.96173 147.99252 365.33673 148.57065Q364.72736 149.14877 364.55548 150.32065L362.97736 150.0394Q363.2586 148.44565 364.28986 147.57065Q365.3211 146.69565 366.85236 146.69565Q367.89923 146.69565 368.78986 147.14877Q369.68048 147.6019 370.14923 148.38315Q370.61798 149.1644 370.61798 150.0394Q370.61798 150.88315 370.16486 151.57065Q369.72736 152.24252 368.83673 152.64877Q369.97736 152.9144 370.60236 153.75815Q371.24298 154.58627 371.24298 155.82065Q371.24298 157.50815 370.0086 158.69565Q368.78986 159.86752 366.91486 159.86752Q365.21173 159.86752 364.08673 158.8519Q362.97736 157.83627 362.80548 156.2269ZM372.80548 156.2269L374.39923 156.02377Q374.66486 157.36752 375.3211 157.96127Q375.97736 158.55502 376.91486 158.55502Q378.03986 158.55502 378.80548 157.7894Q379.5711 157.00815 379.5711 155.86752Q379.5711 154.77377 378.85236 154.07065Q378.14923 153.3519 377.05548 153.3519Q376.60236 153.3519 375.93048 153.5394L376.10236 152.14877Q376.2586 152.1644 376.36798 152.1644Q377.36798 152.1644 378.18048 151.63315Q378.99298 151.1019 378.99298 150.00815Q378.99298 149.13315 378.39923 148.57065Q377.80548 147.99252 376.8836 147.99252Q375.96173 147.99252 375.33673 148.57065Q374.72736 149.14877 374.55548 150.32065L372.97736 150.0394Q373.2586 148.44565 374.28986 147.57065Q375.3211 146.69565 376.85236 146.69565Q377.89923 146.69565 378.78986 147.14877Q379.68048 147.6019 380.14923 148.38315Q380.61798 149.1644 380.61798 150.0394Q380.61798 150.88315 380.16486 151.57065Q379.72736 152.24252 378.83673 152.64877Q379.97736 152.9144 380.60236 153.75815Q381.24298 154.58627 381.24298 155.82065Q381.24298 157.50815 380.0086 158.69565Q378.78986 159.86752 376.91486 159.86752Q375.21173 159.86752 374.08673 158.8519Q372.97736 157.83627 372.80548 156.2269ZM383.6961 159.63315L383.6961 157.83627L385.49298 157.83627L385.49298 159.63315L383.6961 159.63315ZM387.80548 156.2269L389.39923 156.02377Q389.66486 157.36752 390.3211 157.96127Q390.97736 158.55502 391.91486 158.55502Q393.03986 158.55502 393.80548 157.7894Q394.5711 157.00815 394.5711 155.86752Q394.5711 154.77377 393.85236 154.07065Q393.14923 153.3519 392.05548 153.3519Q391.60236 153.3519 390.93048 153.5394L391.10236 152.14877Q391.2586 152.1644 391.36798 152.1644Q392.36798 152.1644 393.18048 151.63315Q393.99298 151.1019 393.99298 150.00815Q393.99298 149.13315 393.39923 148.57065Q392.80548 147.99252 391.8836 147.99252Q390.96173 147.99252 390.33673 148.57065Q389.72736 149.14877 389.55548 150.32065L387.97736 150.0394Q388.2586 148.44565 389.28986 147.57065Q390.3211 146.69565 391.85236 146.69565Q392.89923 146.69565 393.78986 147.14877Q394.68048 147.6019 395.14923 148.38315Q395.61798 149.1644 395.61798 150.0394Q395.61798 150.88315 395.16486 151.57065Q394.72736 152.24252 393.83673 152.64877Q394.97736 152.9144 395.60236 153.75815Q396.24298 154.58627 396.24298 155.82065Q396.24298 157.50815 395.0086 158.69565Q393.78986 159.86752 391.91486 159.86752Q390.21173 159.86752 389.08673 158.8519Q387.97736 157.83627 387.80548 156.2269ZM398.10236 149.83627Q398.10236 148.46127 398.78986 147.49252Q399.49298 146.52377 400.80548 146.52377Q402.02423 146.52377 402.8211 147.39877Q403.61798 148.25815 403.61798 149.94565Q403.61798 151.57065 402.80548 152.46127Q402.0086 153.33627 400.8211 153.33627Q399.66486 153.33627 398.8836 152.4769Q398.10236 151.6019 398.10236 149.83627ZM400.85236 147.61752Q400.2586 147.61752 399.86798 148.13315Q399.47736 148.63315 399.47736 149.99252Q399.47736 151.24252 399.86798 151.74252Q400.27423 152.24252 400.85236 152.24252Q401.4461 152.24252 401.83673 151.74252Q402.22736 151.2269 402.22736 149.88315Q402.22736 148.63315 401.83673 148.13315Q401.4461 147.61752 400.85236 147.61752ZM400.86798 160.1019L407.91486 146.52377L409.1961 146.52377L402.16486 160.1019L400.86798 160.1019ZM406.43048 156.6019Q406.43048 155.2269 407.11798 154.25815Q407.8211 153.2894 409.14923 153.2894Q410.36798 153.2894 411.14923 154.1644Q411.9461 155.02377 411.9461 156.71127Q411.9461 158.33627 411.14923 159.2269Q410.35236 160.1019 409.16486 160.1019Q407.99298 160.1019 407.21173 159.2269Q406.43048 158.3519 406.43048 156.6019ZM409.1961 154.38315Q408.60236 154.38315 408.21173 154.89877Q407.8211 155.39877 407.8211 156.77377Q407.8211 157.99252 408.21173 158.50815Q408.60236 159.02377 409.18048 159.02377Q409.78986 159.02377 410.18048 158.50815Q410.5711 157.99252 410.5711 156.64877Q410.5711 155.39877 410.18048 154.89877Q409.78986 154.38315 409.1961 154.38315Z" fill-rule="nonzero"/><path fill="#ffffff" d="M275.25 324.58298L276.84375 324.37985Q277.10938 325.7236 277.76562 326.31735Q278.42188 326.9111 279.35938 326.9111Q280.48438 326.9111 281.25 326.14548Q282.01562 325.36423 282.01562 324.2236Q282.01562 323.12985 281.29688 322.42673Q280.59375 321.70798 279.5 321.70798Q279.04688 321.70798 278.375 321.89548L278.54688 320.50485Q278.70312 320.52048 278.8125 320.52048Q279.8125 320.52048 280.625 319.98923Q281.4375 319.45798 281.4375 318.36423Q281.4375 317.48923 280.84375 316.92673Q280.25 316.3486 279.32812 316.3486Q278.40625 316.3486 277.78125 316.92673Q277.17188 317.50485 277.0 318.67673L275.42188 318.39548Q275.70312 316.80173 276.73438 315.92673Q277.76562 315.05173 279.29688 315.05173Q280.34375 315.05173 281.23438 315.50485Q282.125 315.95798 282.59375 316.73923Q283.0625 317.52048 283.0625 318.39548Q283.0625 319.23923 282.60938 319.92673Q282.17188 320.5986 281.28125 321.00485Q282.42188 321.27048 283.04688 322.11423Q283.6875 322.94235 283.6875 324.17673Q283.6875 325.86423 282.45312 327.05173Q281.23438 328.2236 279.35938 328.2236Q277.65625 328.2236 276.53125 327.20798Q275.42188 326.19235 275.25 324.58298ZM285.25 324.58298L286.84375 324.37985Q287.10938 325.7236 287.76562 326.31735Q288.42188 326.9111 289.35938 326.9111Q290.48438 326.9111 291.25 326.14548Q292.01562 325.36423 292.01562 324.2236Q292.01562 323.12985 291.29688 322.42673Q290.59375 321.70798 289.5 321.70798Q289.04688 321.70798 288.375 321.89548L288.54688 320.50485Q288.70312 320.52048 288.8125 320.52048Q289.8125 320.52048 290.625 319.98923Q291.4375 319.45798 291.4375 318.36423Q291.4375 317.48923 290.84375 316.92673Q290.25 316.3486 289.32812 316.3486Q288.40625 316.3486 287.78125 316.92673Q287.17188 317.50485 287.0 318.67673L285.42188 318.39548Q285.70312 316.80173 286.73438 315.92673Q287.76562 315.05173 289.29688 315.05173Q290.34375 315.05173 291.23438 315.50485Q292.125 315.95798 292.59375 316.73923Q293.0625 317.52048 293.0625 318.39548Q293.0625 319.23923 292.60938 319.92673Q292.17188 320.5986 291.28125 321.00485Q292.42188 321.27048 293.04688 322.11423Q293.6875 322.94235 293.6875 324.17673Q293.6875 325.86423 292.45312 327.05173Q291.23438 328.2236 289.35938 328.2236Q287.65625 328.2236 286.53125 327.20798Q285.42188 326.19235 285.25 324.58298ZM296.14062 327.98923L296.14062 326.19235L297.9375 326.19235L297.9375 327.98923L296.14062 327.98923ZM300.25 324.58298L301.84375 324.37985Q302.10938 325.7236 302.76562 326.31735Q303.42188 326.9111 304.35938 326.9111Q305.48438 326.9111 306.25 326.14548Q307.01562 325.36423 307.01562 324.2236Q307.01562 323.12985 306.29688 322.42673Q305.59375 321.70798 304.5 321.70798Q304.04688 321.70798 303.375 321.89548L303.54688 320.50485Q303.70312 320.52048 303.8125 320.52048Q304.8125 320.52048 305.625 319.98923Q306.4375 319.45798 306.4375 318.36423Q306.4375 317.48923 305.84375 316.92673Q305.25 316.3486 304.32812 316.3486Q303.40625 316.3486 302.78125 316.92673Q302.17188 317.50485 302.0 318.67673L300.42188 318.39548Q300.70312 316.80173 301.73438 315.92673Q302.76562 315.05173 304.29688 315.05173Q305.34375 315.05173 306.23438 315.50485Q307.125 315.95798 307.59375 316.73923Q308.0625 317.52048 308.0625 318.39548Q308.0625 319.23923 307.60938 319.92673Q307.17188 320.5986 306.28125 321.00485Q307.42188 321.27048 308.04688 322.11423Q308.6875 322.94235 308.6875 324.17673Q308.6875 325.86423 307.45312 327.05173Q306.23438 328.2236 304.35938 328.2236Q302.65625 328.2236 301.53125 327.20798Q300.42188 326.19235 300.25 324.58298ZM310.54688 318.19235Q310.54688 316.81735 311.23438 315.8486Q311.9375 314.87985 313.25 314.87985Q314.46875 314.87985 315.26562 315.75485Q316.0625 316.61423 316.0625 318.30173Q316.0625 319.92673 315.25 320.81735Q314.45312 321.69235 313.26562 321.69235Q312.10938 321.69235 311.32812 320.83298Q310.54688 319.95798 310.54688 318.19235ZM313.29688 315.9736Q312.70312 315.9736 312.3125 316.48923Q311.92188 316.98923 311.92188 318.3486Q311.92188 319.5986 312.3125 320.0986Q312.71875 320.5986 313.29688 320.5986Q313.89062 320.5986 314.28125 320.0986Q314.67188 319.58298 314.67188 318.23923Q314.67188 316.98923 314.28125 316.48923Q313.89062 315.9736 313.29688 315.9736ZM313.3125 328.45798L320.35938 314.87985L321.64062 314.87985L314.60938 328.45798L313.3125 328.45798ZM318.875 324.95798Q318.875 323.58298 319.5625 322.61423Q320.26562 321.64548 321.59375 321.64548Q322.8125 321.64548 323.59375 322.52048Q324.39062 323.37985 324.39062 325.06735Q324.39062 326.69235 323.59375 327.58298Q322.79688 328.45798 321.60938 328.45798Q320.4375 328.45798 319.65625 327.58298Q318.875 326.70798 318.875 324.95798ZM321.64062 322.73923Q321.04688 322.73923 320.65625 323.25485Q320.26562 323.75485 320.26562 325.12985Q320.26562 326.3486 320.65625 326.86423Q321.04688 327.37985 321.625 327.37985Q322.23438 327.37985 322.625 326.86423Q323.01562 326.3486 323.01562 325.00485Q323.01562 323.75485 322.625 323.25485Q322.23438 322.73923 321.64062 322.73923Z" fill-rule="nonzero"/><path fill="#ffffff" d="M187.69452 156.2269L189.28827 156.02377Q189.5539 157.36752 190.21014 157.96127Q190.8664 158.55502 191.8039 158.55502Q192.9289 158.55502 193.69452 157.7894Q194.46014 157.00815 194.46014 155.86752Q194.46014 154.77377 193.7414 154.07065Q193.03827 153.3519 191.94452 153.3519Q191.4914 153.3519 190.81952 153.5394L190.9914 152.14877Q191.14764 152.1644 191.25702 152.1644Q192.25702 152.1644 193.06952 151.63315Q193.88202 151.1019 193.88202 150.00815Q193.88202 149.13315 193.28827 148.57065Q192.69452 147.99252 191.77264 147.99252Q190.85077 147.99252 190.22577 148.57065Q189.6164 149.14877 189.44452 150.32065L187.8664 150.0394Q188.14764 148.44565 189.1789 147.57065Q190.21014 146.69565 191.7414 146.69565Q192.78827 146.69565 193.6789 147.14877Q194.56952 147.6019 195.03827 148.38315Q195.50702 149.1644 195.50702 150.0394Q195.50702 150.88315 195.0539 151.57065Q194.6164 152.24252 193.72577 152.64877Q194.8664 152.9144 195.4914 153.75815Q196.13202 154.58627 196.13202 155.82065Q196.13202 157.50815 194.89764 158.69565Q193.6789 159.86752 191.8039 159.86752Q190.10077 159.86752 188.97577 158.8519Q187.8664 157.83627 187.69452 156.2269ZM197.69452 156.2269L199.28827 156.02377Q199.5539 157.36752 200.21014 157.96127Q200.8664 158.55502 201.8039 158.55502Q202.9289 158.55502 203.69452 157.7894Q204.46014 157.00815 204.46014 155.86752Q204.46014 154.77377 203.7414 154.07065Q203.03827 153.3519 201.94452 153.3519Q201.4914 153.3519 200.81952 153.5394L200.9914 152.14877Q201.14764 152.1644 201.25702 152.1644Q202.25702 152.1644 203.06952 151.63315Q203.88202 151.1019 203.88202 150.00815Q203.88202 149.13315 203.28827 148.57065Q202.69452 147.99252 201.77264 147.99252Q200.85077 147.99252 200.22577 148.57065Q199.6164 149.14877 199.44452 150.32065L197.8664 150.0394Q198.14764 148.44565 199.1789 147.57065Q200.21014 146.69565 201.7414 146.69565Q202.78827 146.69565 203.6789 147.14877Q204.56952 147.6019 205.03827 148.38315Q205.50702 149.1644 205.50702 150.0394Q205.50702 150.88315 205.0539 151.57065Q204.6164 152.24252 203.72577 152.64877Q204.8664 152.9144 205.4914 153.75815Q206.13202 154.58627 206.13202 155.82065Q206.13202 157.50815 204.89764 158.69565Q203.6789 159.86752 201.8039 159.86752Q200.10077 159.86752 198.97577 158.8519Q197.8664 157.83627 197.69452 156.2269ZM208.58514 159.63315L208.58514 157.83627L210.38202 157.83627L210.38202 159.63315L208.58514 159.63315ZM212.69452 156.2269L214.28827 156.02377Q214.5539 157.36752 215.21014 157.96127Q215.8664 158.55502 216.8039 158.55502Q217.9289 158.55502 218.69452 157.7894Q219.46014 157.00815 219.46014 155.86752Q219.46014 154.77377 218.7414 154.07065Q218.03827 153.3519 216.94452 153.3519Q216.4914 153.3519 215.81952 153.5394L215.9914 152.14877Q216.14764 152.1644 216.25702 152.1644Q217.25702 152.1644 218.06952 151.63315Q218.88202 151.1019 218.88202 150.00815Q218.88202 149.13315 218.28827 148.57065Q217.69452 147.99252 216.77264 147.99252Q215.85077 147.99252 215.22577 148.57065Q214.6164 149.14877 214.44452 150.32065L212.8664 150.0394Q213.14764 148.44565 214.1789 147.57065Q215.21014 146.69565 216.7414 146.69565Q217.78827 146.69565 218.6789 147.14877Q219.56952 147.6019 220.03827 148.38315Q220.50702 149.1644 220.50702 150.0394Q220.50702 150.88315 220.0539 151.57065Q219.6164 152.24252 218.72577 152.64877Q219.8664 152.9144 220.4914 153.75815Q221.13202 154.58627 221.13202 155.82065Q221.13202 157.50815 219.89764 158.69565Q218.6789 159.86752 216.8039 159.86752Q215.10077 159.86752 213.97577 158.8519Q212.8664 157.83627 212.69452 156.2269ZM222.9914 149.83627Q222.9914 148.46127 223.6789 147.49252Q224.38202 146.52377 225.69452 146.52377Q226.91327 146.52377 227.71014 147.39877Q228.50702 148.25815 228.50702 149.94565Q228.50702 151.57065 227.69452 152.46127Q226.89764 153.33627 225.71014 153.33627Q224.5539 153.33627 223.77264 152.4769Q222.9914 151.6019 222.9914 149.83627ZM225.7414 147.61752Q225.14764 147.61752 224.75702 148.13315Q224.3664 148.63315 224.3664 149.99252Q224.3664 151.24252 224.75702 151.74252Q225.16327 152.24252 225.7414 152.24252Q226.33514 152.24252 226.72577 151.74252Q227.1164 151.2269 227.1164 149.88315Q227.1164 148.63315 226.72577 148.13315Q226.33514 147.61752 225.7414 147.61752ZM225.75702 160.1019L232.8039 146.52377L234.08514 146.52377L227.0539 160.1019L225.75702 160.1019ZM231.31952 156.6019Q231.31952 155.2269 232.00702 154.25815Q232.71014 153.2894 234.03827 153.2894Q235.25702 153.2894 236.03827 154.1644Q236.83514 155.02377 236.83514 156.71127Q236.83514 158.33627 236.03827 159.2269Q235.2414 160.1019 234.0539 160.1019Q232.88202 160.1019 232.10077 159.2269Q231.31952 158.3519 231.31952 156.6019ZM234.08514 154.38315Q233.4914 154.38315 233.10077 154.89877Q232.71014 155.39877 232.71014 156.77377Q232.71014 157.99252 233.10077 158.50815Q233.4914 159.02377 234.06952 159.02377Q234.6789 159.02377 235.06952 158.50815Q235.46014 157.99252 235.46014 156.64877Q235.46014 155.39877 235.06952 154.89877Q234.6789 154.38315 234.08514 154.38315Z" fill-rule="nonzero"/><path stroke="#ffffff" stroke-width="1.0" stroke-linejoin="round" stroke-linecap="round" d="M332.20892 222.27916C338.85257 210.77202 338.85257 196.59464 332.20892 185.0875C325.56528 173.58035 313.2873 166.49167 300.0 166.49167L300.0 54.916668C353.1492 54.916668 402.2611 83.27143 428.83572 129.3C455.4103 175.32857 455.4103 232.0381 428.83572 278.06668" fill-rule="nonzero"/><path stroke="#ffffff" stroke-width="1.0" stroke-linejoin="round" stroke-linecap="round" d="M267.79108 222.27916C274.43472 233.78632 286.7127 240.875 300.0 240.875C313.2873 240.875 325.56528 233.78632 332.20892 222.27916L428.83572 278.06668C402.2611 324.09525 353.1492 352.45 300.0 352.45C246.85078 352.45 197.73889 324.09525 171.16429 278.06668" fill-rule="nonzero"/><path stroke="#ffffff" stroke-width="1.0" stroke-linejoin="round" stroke-linecap="round" d="M300.0 166.49167C286.7127 166.49167 274.43472 173.58035 267.79108 185.0875C261.14743 196.59464 261.14743 210.77202 267.79108 222.27916L171.16429 278.06668C144.58968 232.0381 144.58968 175.32857 171.16429 129.3C197.73889 83.27143 246.85078 54.916668 300.0 54.916668" fill-rule="nonzero"/><path fill="#efefef" d="M19.784374 127.519165L19.784374 116.06604L24.1125 116.06604Q25.253124 116.06604 25.846874 116.175415Q26.690624 116.31604 27.253124 116.706665Q27.83125 117.09729 28.175 117.81604Q28.534374 118.519165 28.534374 119.37854Q28.534374 120.831665 27.596874 121.84729Q26.675 122.862915 24.2375 122.862915L21.3 122.862915L21.3 127.519165L19.784374 127.519165ZM21.3 121.50354L24.26875 121.50354Q25.7375 121.50354 26.346874 120.956665Q26.971874 120.40979 26.971874 119.425415Q26.971874 118.706665 26.596874 118.19104Q26.2375 117.675415 25.64375 117.519165Q25.26875 117.40979 24.2375 117.40979L21.3 117.40979L21.3 121.50354ZM36.01875 126.487915Q35.2375 127.15979 34.51875 127.44104Q33.8 127.706665 32.971874 127.706665Q31.596874 127.706665 30.8625 127.03479Q30.128124 126.362915 30.128124 125.331665Q30.128124 124.72229 30.409374 124.22229Q30.690624 123.706665 31.128124 123.40979Q31.58125 123.09729 32.14375 122.94104Q32.565624 122.831665 33.39375 122.737915Q35.096874 122.53479 35.909374 122.25354Q35.909374 121.956665 35.909374 121.87854Q35.909374 121.019165 35.51875 120.675415Q34.971874 120.19104 33.909374 120.19104Q32.925 120.19104 32.440624 120.550415Q31.971874 120.894165 31.753124 121.769165L30.378124 121.581665Q30.565624 120.706665 30.9875 120.15979Q31.425 119.612915 32.2375 119.331665Q33.05 119.03479 34.1125 119.03479Q35.175 119.03479 35.83125 119.28479Q36.503124 119.53479 36.815624 119.90979Q37.128124 120.28479 37.253124 120.862915Q37.33125 121.22229 37.33125 122.15979L37.33125 124.03479Q37.33125 126.00354 37.409374 126.519165Q37.503124 127.03479 37.76875 127.519165L36.3 127.519165Q36.08125 127.081665 36.01875 126.487915ZM35.909374 123.34729Q35.14375 123.65979 33.6125 123.87854Q32.7375 124.00354 32.378124 124.15979Q32.01875 124.31604 31.815624 124.62854Q31.628124 124.925415 31.628124 125.28479Q31.628124 125.84729 32.05 126.22229Q32.4875 126.59729 33.3 126.59729Q34.1125 126.59729 34.7375 126.25354Q35.378124 125.894165 35.675 125.269165Q35.909374 124.800415 35.909374 123.862915L35.909374 123.34729ZM39.346874 128.20667L40.721874 128.40979Q40.8 129.05042 41.190624 129.33167Q41.721874 129.72229 42.628124 129.72229Q43.596874 129.72229 44.128124 129.33167Q44.659374 128.94104 44.846874 128.23792Q44.95625 127.81604 44.95625 126.425415Q44.034374 127.519165 42.659374 127.519165Q40.940624 127.519165 40.003124 126.28479Q39.065624 125.050415 39.065624 123.31604Q39.065624 122.12854 39.4875 121.12854Q39.925 120.12854 40.7375 119.581665Q41.565624 119.03479 42.659374 119.03479Q44.128124 119.03479 45.08125 120.22229L45.08125 119.22229L46.378124 119.22229L46.378124 126.394165Q46.378124 128.33167 45.9875 129.14417Q45.596874 129.95667 44.7375 130.42542Q43.878124 130.89417 42.628124 130.89417Q41.14375 130.89417 40.221874 130.22229Q39.315624 129.55042 39.346874 128.20667ZM40.51875 123.22229Q40.51875 124.84729 41.159374 125.59729Q41.815624 126.34729 42.784374 126.34729Q43.753124 126.34729 44.409374 125.612915Q45.065624 124.862915 45.065624 123.269165Q45.065624 121.737915 44.39375 120.97229Q43.721874 120.19104 42.76875 120.19104Q41.83125 120.19104 41.175 120.956665Q40.51875 121.72229 40.51875 123.22229ZM54.284374 124.84729L55.7375 125.019165Q55.39375 126.300415 54.45625 127.00354Q53.534374 127.706665 52.096874 127.706665Q50.26875 127.706665 49.20625 126.581665Q48.14375 125.456665 48.14375 123.44104Q48.14375 121.34729 49.221874 120.19104Q50.3 119.03479 52.01875 119.03479Q53.675 119.03479 54.721874 120.175415Q55.784374 121.300415 55.784374 123.34729Q55.784374 123.47229 55.784374 123.72229L49.596874 123.72229Q49.675 125.09729 50.3625 125.831665Q51.065624 126.550415 52.096874 126.550415Q52.878124 126.550415 53.425 126.144165Q53.971874 125.737915 54.284374 124.84729ZM49.675 122.56604L54.3 122.56604Q54.20625 121.519165 53.76875 121.00354Q53.096874 120.19104 52.034374 120.19104Q51.065624 120.19104 50.39375 120.84729Q49.7375 121.487915 49.675 122.56604Z" fill-rule="nonzero"/><path fill="#9e9e9e" d="M19.221874 146.48792L20.628124 146.30042Q20.878124 147.50354 21.45625 148.03479Q22.034374 148.55042 22.878124 148.55042Q23.8625 148.55042 24.55 147.86292Q25.2375 147.17542 25.2375 146.15979Q25.2375 145.19104 24.596874 144.56604Q23.971874 143.94104 22.9875 143.94104Q22.596874 143.94104 22.003124 144.09729L22.159374 142.86292Q22.3 142.87854 22.378124 142.87854Q23.284374 142.87854 24.003124 142.40979Q24.721874 141.94104 24.721874 140.95667Q24.721874 140.19104 24.190624 139.69104Q23.675 139.17542 22.846874 139.17542Q22.01875 139.17542 21.471874 139.69104Q20.925 140.20667 20.76875 141.23792L19.3625 140.98792Q19.628124 139.56604 20.534374 138.80042Q21.45625 138.01917 22.815624 138.01917Q23.753124 138.01917 24.534374 138.42542Q25.33125 138.81604 25.7375 139.51917Q26.159374 140.20667 26.159374 140.98792Q26.159374 141.73792 25.753124 142.34729Q25.3625 142.95667 24.58125 143.31604Q25.596874 143.55042 26.159374 144.28479Q26.721874 145.01917 26.721874 146.12854Q26.721874 147.62854 25.628124 148.67542Q24.534374 149.72229 22.8625 149.72229Q21.3625 149.72229 20.3625 148.83167Q19.3625 147.92542 19.221874 146.48792ZM28.221874 146.48792L29.628124 146.30042Q29.878124 147.50354 30.45625 148.03479Q31.034374 148.55042 31.878124 148.55042Q32.8625 148.55042 33.55 147.86292Q34.2375 147.17542 34.2375 146.15979Q34.2375 145.19104 33.596874 144.56604Q32.971874 143.94104 31.9875 143.94104Q31.596874 143.94104 31.003124 144.09729L31.159374 142.86292Q31.3 142.87854 31.378124 142.87854Q32.284374 142.87854 33.003124 142.40979Q33.721874 141.94104 33.721874 140.95667Q33.721874 140.19104 33.190624 139.69104Q32.675 139.17542 31.846874 139.17542Q31.01875 139.17542 30.471874 139.69104Q29.925 140.20667 29.76875 141.23792L28.3625 140.98792Q28.628124 139.56604 29.534374 138.80042Q30.45625 138.01917 31.815624 138.01917Q32.753124 138.01917 33.534374 138.42542Q34.33125 138.81604 34.7375 139.51917Q35.159374 140.20667 35.159374 140.98792Q35.159374 141.73792 34.753124 142.34729Q34.3625 142.95667 33.58125 143.31604Q34.596874 143.55042 35.159374 144.28479Q35.721874 145.01917 35.721874 146.12854Q35.721874 147.62854 34.628124 148.67542Q33.534374 149.72229 31.8625 149.72229Q30.3625 149.72229 29.3625 148.83167Q28.3625 147.92542 28.221874 146.48792ZM38.003124 149.51917L38.003124 147.90979L39.6125 147.90979L39.6125 149.51917L38.003124 149.51917ZM41.221874 146.48792L42.628124 146.30042Q42.878124 147.50354 43.45625 148.03479Q44.034374 148.55042 44.878124 148.55042Q45.8625 148.55042 46.55 147.86292Q47.2375 147.17542 47.2375 146.15979Q47.2375 145.19104 46.596874 144.56604Q45.971874 143.94104 44.9875 143.94104Q44.596874 143.94104 44.003124 144.09729L44.159374 142.86292Q44.3 142.87854 44.378124 142.87854Q45.284374 142.87854 46.003124 142.40979Q46.721874 141.94104 46.721874 140.95667Q46.721874 140.19104 46.190624 139.69104Q45.675 139.17542 44.846874 139.17542Q44.01875 139.17542 43.471874 139.69104Q42.925 140.20667 42.76875 141.23792L41.3625 140.98792Q41.628124 139.56604 42.534374 138.80042Q43.45625 138.01917 44.815624 138.01917Q45.753124 138.01917 46.534374 138.42542Q47.33125 138.81604 47.7375 139.51917Q48.159374 140.20667 48.159374 140.98792Q48.159374 141.73792 47.753124 142.34729Q47.3625 142.95667 46.58125 143.31604Q47.596874 143.55042 48.159374 144.28479Q48.721874 145.01917 48.721874 146.12854Q48.721874 147.62854 47.628124 148.67542Q46.534374 149.72229 44.8625 149.72229Q43.3625 149.72229 42.3625 148.83167Q41.3625 147.92542 41.221874 146.48792ZM50.4875 140.81604Q50.4875 139.58167 51.096874 138.72229Q51.721874 137.86292 52.89375 137.86292Q53.971874 137.86292 54.675 138.64417Q55.378124 139.40979 55.378124 140.89417Q55.378124 142.34729 54.659374 143.14417Q53.95625 143.92542 52.909374 143.92542Q51.8625 143.92542 51.175 143.15979Q50.4875 142.37854 50.4875 140.81604ZM52.925 138.83167Q52.409374 138.83167 52.05 139.28479Q51.70625 139.73792 51.70625 140.95667Q51.70625 142.05042 52.05 142.50354Q52.409374 142.95667 52.925 142.95667Q53.45625 142.95667 53.8 142.50354Q54.159374 142.05042 54.159374 140.84729Q54.159374 139.73792 53.8 139.28479Q53.45625 138.83167 52.925 138.83167ZM52.940624 149.94104L59.20625 137.86292L60.346874 137.86292L54.096874 149.94104L52.940624 149.94104ZM57.89375 146.83167Q57.89375 145.59729 58.503124 144.73792Q59.128124 143.87854 60.3 143.87854Q61.378124 143.87854 62.08125 144.65979Q62.8 145.42542 62.8 146.90979Q62.8 148.36292 62.08125 149.15979Q61.3625 149.94104 60.315624 149.94104Q59.26875 149.94104 58.58125 149.15979Q57.89375 148.37854 57.89375 146.83167ZM60.346874 144.84729Q59.815624 144.84729 59.45625 145.30042Q59.1125 145.75354 59.1125 146.97229Q59.1125 148.06604 59.45625 148.51917Q59.815624 148.97229 60.33125 148.97229Q60.878124 148.97229 61.221874 148.51917Q61.565624 148.06604 61.565624 146.86292Q61.565624 145.75354 61.20625 145.30042Q60.8625 144.84729 60.346874 144.84729Z" fill-rule="nonzero"/><path stroke="#757575" stroke-width="1.0" stroke-linecap="butt" d="M18.55 133.01917L145.23334 133.01917L177.60608 133.01917" fill-rule="nonzero"/><path fill="#9e9e9e" d="M179.60608 133.01917C179.60608 131.9146 178.71065 131.01917 177.60608 131.01917C176.50151 131.01917 175.60608 131.9146 175.60608 133.01917C175.60608 134.12373 176.50151 135.01917 177.60608 135.01917C178.71065 135.01917 179.60608 134.12373 179.60608 133.01917" fill-rule="nonzero"/><path fill="#efefef" d="M498.6844 127.519165L498.6844 116.06604L503.0125 116.06604Q504.15314 116.06604 504.7469 116.175415Q505.59064 116.31604 506.15314 116.706665Q506.73126 117.09729 507.075 117.81604Q507.4344 118.519165 507.4344 119.37854Q507.4344 120.831665 506.4969 121.84729Q505.575 122.862915 503.1375 122.862915L500.2 122.862915L500.2 127.519165L498.6844 127.519165ZM500.2 121.50354L503.16876 121.50354Q504.6375 121.50354 505.2469 120.956665Q505.8719 120.40979 505.8719 119.425415Q505.8719 118.706665 505.4969 118.19104Q505.1375 117.675415 504.54376 117.519165Q504.16876 117.40979 503.1375 117.40979L500.2 117.40979L500.2 121.50354ZM515.1844 124.84729L516.6375 125.019165Q516.29376 126.300415 515.35626 127.00354Q514.4344 127.706665 512.9969 127.706665Q511.16876 127.706665 510.10626 126.581665Q509.04376 125.456665 509.04376 123.44104Q509.04376 121.34729 510.1219 120.19104Q511.2 119.03479 512.91876 119.03479Q514.575 119.03479 515.6219 120.175415Q516.6844 121.300415 516.6844 123.34729Q516.6844 123.47229 516.6844 123.72229L510.4969 123.72229Q510.575 125.09729 511.2625 125.831665Q511.96564 126.550415 512.9969 126.550415Q513.77814 126.550415 514.325 126.144165Q514.8719 125.737915 515.1844 124.84729ZM510.575 122.56604L515.2 122.56604Q515.10626 121.519165 514.66876 121.00354Q513.9969 120.19104 512.9344 120.19104Q511.96564 120.19104 511.29376 120.84729Q510.6375 121.487915 510.575 122.56604ZM518.4969 127.519165L518.4969 119.22229L519.7625 119.22229L519.7625 120.47229Q520.2469 119.59729 520.65314 119.31604Q521.0594 119.03479 521.5594 119.03479Q522.2625 119.03479 522.9969 119.487915L522.5125 120.78479Q521.9969 120.487915 521.48126 120.487915Q521.02814 120.487915 520.65314 120.769165Q520.29376 121.03479 520.1375 121.53479Q519.90314 122.28479 519.90314 123.175415L519.90314 127.519165L518.4969 127.519165ZM522.95 125.03479L524.34064 124.81604Q524.45 125.65979 524.98126 126.112915Q525.52814 126.550415 526.48126 126.550415Q527.45 126.550415 527.91876 126.15979Q528.3875 125.75354 528.3875 125.22229Q528.3875 124.75354 527.98126 124.47229Q527.6844 124.28479 526.54376 124.00354Q524.9969 123.612915 524.3875 123.331665Q523.79376 123.03479 523.48126 122.53479Q523.1844 122.03479 523.1844 121.425415Q523.1844 120.862915 523.4344 120.394165Q523.6844 119.925415 524.1219 119.612915Q524.45 119.362915 525.0125 119.206665Q525.59064 119.03479 526.23126 119.03479Q527.21564 119.03479 527.95 119.31604Q528.6844 119.59729 529.02814 120.081665Q529.3875 120.550415 529.52814 121.362915L528.15314 121.550415Q528.0594 120.90979 527.60626 120.550415Q527.15314 120.19104 526.34064 120.19104Q525.3719 120.19104 524.95 120.519165Q524.54376 120.831665 524.54376 121.25354Q524.54376 121.53479 524.71564 121.75354Q524.8875 121.97229 525.2469 122.12854Q525.46564 122.206665 526.4969 122.487915Q527.98126 122.87854 528.575 123.144165Q529.16876 123.394165 529.4969 123.87854Q529.84064 124.362915 529.84064 125.081665Q529.84064 125.78479 529.41876 126.40979Q529.0125 127.019165 528.23126 127.362915Q527.46564 127.706665 526.4969 127.706665Q524.8719 127.706665 524.02814 127.03479Q523.1844 126.362915 522.95 125.03479ZM531.5125 130.70667L531.5125 119.22229L532.79376 119.22229L532.79376 120.300415Q533.2469 119.65979 533.8094 119.34729Q534.3875 119.03479 535.2 119.03479Q536.2625 119.03479 537.075 119.581665Q537.8875 120.12854 538.29376 121.12854Q538.71564 122.112915 538.71564 123.300415Q538.71564 124.581665 538.2469 125.59729Q537.79376 126.612915 536.91876 127.15979Q536.0594 127.706665 535.09064 127.706665Q534.3875 127.706665 533.825 127.40979Q533.27814 127.112915 532.91876 126.65979L532.91876 130.70667L531.5125 130.70667ZM532.77814 123.40979Q532.77814 125.019165 533.41876 125.78479Q534.075 126.550415 534.9969 126.550415Q535.9344 126.550415 536.60626 125.75354Q537.27814 124.956665 537.27814 123.300415Q537.27814 121.706665 536.6219 120.925415Q535.96564 120.12854 535.0594 120.12854Q534.16876 120.12854 533.46564 120.97229Q532.77814 121.81604 532.77814 123.40979ZM546.1844 124.84729L547.6375 125.019165Q547.29376 126.300415 546.35626 127.00354Q545.4344 127.706665 543.9969 127.706665Q542.16876 127.706665 541.10626 126.581665Q540.04376 125.456665 540.04376 123.44104Q540.04376 121.34729 541.1219 120.19104Q542.2 119.03479 543.91876 119.03479Q545.575 119.03479 546.6219 120.175415Q547.6844 121.300415 547.6844 123.34729Q547.6844 123.47229 547.6844 123.72229L541.4969 123.72229Q541.575 125.09729 542.2625 125.831665Q542.96564 126.550415 543.9969 126.550415Q544.77814 126.550415 545.325 126.144165Q545.8719 125.737915 546.1844 124.84729ZM541.575 122.56604L546.2 122.56604Q546.10626 121.519165 545.66876 121.00354Q544.9969 120.19104 543.9344 120.19104Q542.96564 120.19104 542.29376 120.84729Q541.6375 121.487915 541.575 122.56604ZM554.91876 124.47229L556.3094 124.65979Q556.075 126.081665 555.1375 126.894165Q554.21564 127.706665 552.85626 127.706665Q551.15314 127.706665 550.10626 126.59729Q549.075 125.47229 549.075 123.394165Q549.075 122.050415 549.5125 121.050415Q549.96564 120.03479 550.8719 119.53479Q551.79376 119.03479 552.85626 119.03479Q554.21564 119.03479 555.075 119.72229Q555.9344 120.394165 556.16876 121.65979L554.8094 121.862915Q554.60626 121.03479 554.10626 120.612915Q553.6219 120.19104 552.91876 120.19104Q551.85626 120.19104 551.1844 120.956665Q550.52814 121.706665 550.52814 123.362915Q550.52814 125.03479 551.16876 125.800415Q551.8094 126.550415 552.84064 126.550415Q553.66876 126.550415 554.21564 126.050415Q554.77814 125.53479 554.91876 124.47229ZM560.575 126.25354L560.77814 127.50354Q560.1844 127.62854 559.71564 127.62854Q558.95 127.62854 558.52814 127.394165Q558.10626 127.144165 557.9344 126.75354Q557.7625 126.34729 557.7625 125.081665L557.7625 120.31604L556.73126 120.31604L556.73126 119.22229L557.7625 119.22229L557.7625 117.15979L559.16876 116.31604L559.16876 119.22229L560.575 119.22229L560.575 120.31604L559.16876 120.31604L559.16876 125.15979Q559.16876 125.769165 559.23126 125.94104Q559.3094 126.112915 559.48126 126.22229Q559.65314 126.31604 559.96564 126.31604Q560.2 126.31604 560.575 126.25354ZM561.5125 117.675415L561.5125 116.06604L562.91876 116.06604L562.91876 117.675415L561.5125 117.675415ZM561.5125 127.519165L561.5125 119.22229L562.91876 119.22229L562.91876 127.519165L561.5125 127.519165ZM567.8094 127.519165L564.65314 119.22229L566.1375 119.22229L567.91876 124.19104Q568.21564 124.987915 568.45 125.862915Q568.6375 125.206665 568.98126 124.28479L570.825 119.22229L572.2625 119.22229L569.1219 127.519165L567.8094 127.519165ZM579.1844 124.84729L580.6375 125.019165Q580.29376 126.300415 579.35626 127.00354Q578.4344 127.706665 576.9969 127.706665Q575.16876 127.706665 574.10626 126.581665Q573.04376 125.456665 573.04376 123.44104Q573.04376 121.34729 574.1219 120.19104Q575.2 119.03479 576.91876 119.03479Q578.575 119.03479 579.6219 120.175415Q580.6844 121.300415 580.6844 123.34729Q580.6844 123.47229 580.6844 123.72229L574.4969 123.72229Q574.575 125.09729 575.2625 125.831665Q575.96564 126.550415 576.9969 126.550415Q577.77814 126.550415 578.325 126.144165Q578.8719 125.737915 579.1844 124.84729ZM574.575 122.56604L579.2 122.56604Q579.10626 121.519165 578.66876 121.00354Q577.9969 120.19104 576.9344 120.19104Q575.96564 120.19104 575.29376 120.84729Q574.6375 121.487915 574.575 122.56604Z" fill-rule="nonzero"/><path fill="#9e9e9e" d="M537.1219 146.48792L538.52814 146.30042Q538.77814 147.50354 539.35626 148.03479Q539.9344 148.55042 540.77814 148.55042Q541.7625 148.55042 542.45 147.86292Q543.1375 147.17542 543.1375 146.15979Q543.1375 145.19104 542.4969 144.56604Q541.8719 143.94104 540.8875 143.94104Q540.4969 143.94104 539.90314 144.09729L540.0594 142.86292Q540.2 142.87854 540.27814 142.87854Q541.1844 142.87854 541.90314 142.40979Q542.6219 141.94104 542.6219 140.95667Q542.6219 140.19104 542.09064 139.69104Q541.575 139.17542 540.7469 139.17542Q539.91876 139.17542 539.3719 139.69104Q538.825 140.20667 538.66876 141.23792L537.2625 140.98792Q537.52814 139.56604 538.4344 138.80042Q539.35626 138.01917 540.71564 138.01917Q541.65314 138.01917 542.4344 138.42542Q543.23126 138.81604 543.6375 139.51917Q544.0594 140.20667 544.0594 140.98792Q544.0594 141.73792 543.65314 142.34729Q543.2625 142.95667 542.48126 143.31604Q543.4969 143.55042 544.0594 144.28479Q544.6219 145.01917 544.6219 146.12854Q544.6219 147.62854 543.52814 148.67542Q542.4344 149.72229 540.7625 149.72229Q539.2625 149.72229 538.2625 148.83167Q537.2625 147.92542 537.1219 146.48792ZM546.1219 146.48792L547.52814 146.30042Q547.77814 147.50354 548.35626 148.03479Q548.9344 148.55042 549.77814 148.55042Q550.7625 148.55042 551.45 147.86292Q552.1375 147.17542 552.1375 146.15979Q552.1375 145.19104 551.4969 144.56604Q550.8719 143.94104 549.8875 143.94104Q549.4969 143.94104 548.90314 144.09729L549.0594 142.86292Q549.2 142.87854 549.27814 142.87854Q550.1844 142.87854 550.90314 142.40979Q551.6219 141.94104 551.6219 140.95667Q551.6219 140.19104 551.09064 139.69104Q550.575 139.17542 549.7469 139.17542Q548.91876 139.17542 548.3719 139.69104Q547.825 140.20667 547.66876 141.23792L546.2625 140.98792Q546.52814 139.56604 547.4344 138.80042Q548.35626 138.01917 549.71564 138.01917Q550.65314 138.01917 551.4344 138.42542Q552.23126 138.81604 552.6375 139.51917Q553.0594 140.20667 553.0594 140.98792Q553.0594 141.73792 552.65314 142.34729Q552.2625 142.95667 551.48126 143.31604Q552.4969 143.55042 553.0594 144.28479Q553.6219 145.01917 553.6219 146.12854Q553.6219 147.62854 552.52814 148.67542Q551.4344 149.72229 549.7625 149.72229Q548.2625 149.72229 547.2625 148.83167Q546.2625 147.92542 546.1219 146.48792ZM555.90314 149.51917L555.90314 147.90979L557.5125 147.90979L557.5125 149.51917L555.90314 149.51917ZM559.1219 146.48792L560.52814 146.30042Q560.77814 147.50354 561.35626 148.03479Q561.9344 148.55042 562.77814 148.55042Q563.7625 148.55042 564.45 147.86292Q565.1375 147.17542 565.1375 146.15979Q565.1375 145.19104 564.4969 144.56604Q563.8719 143.94104 562.8875 143.94104Q562.4969 143.94104 561.90314 144.09729L562.0594 142.86292Q562.2 142.87854 562.27814 142.87854Q563.1844 142.87854 563.90314 142.40979Q564.6219 141.94104 564.6219 140.95667Q564.6219 140.19104 564.09064 139.69104Q563.575 139.17542 562.7469 139.17542Q561.91876 139.17542 561.3719 139.69104Q560.825 140.20667 560.66876 141.23792L559.2625 140.98792Q559.52814 139.56604 560.4344 138.80042Q561.35626 138.01917 562.71564 138.01917Q563.65314 138.01917 564.4344 138.42542Q565.23126 138.81604 565.6375 139.51917Q566.0594 140.20667 566.0594 140.98792Q566.0594 141.73792 565.65314 142.34729Q565.2625 142.95667 564.48126 143.31604Q565.4969 143.55042 566.0594 144.28479Q566.6219 145.01917 566.6219 146.12854Q566.6219 147.62854 565.52814 148.67542Q564.4344 149.72229 562.7625 149.72229Q561.2625 149.72229 560.2625 148.83167Q559.2625 147.92542 559.1219 146.48792ZM568.3875 140.81604Q568.3875 139.58167 568.9969 138.72229Q569.6219 137.86292 570.79376 137.86292Q571.8719 137.86292 572.575 138.64417Q573.27814 139.40979 573.27814 140.89417Q573.27814 142.34729 572.5594 143.14417Q571.85626 143.92542 570.8094 143.92542Q569.7625 143.92542 569.075 143.15979Q568.3875 142.37854 568.3875 140.81604ZM570.825 138.83167Q570.3094 138.83167 569.95 139.28479Q569.60626 139.73792 569.60626 140.95667Q569.60626 142.05042 569.95 142.50354Q570.3094 142.95667 570.825 142.95667Q571.35626 142.95667 571.7 142.50354Q572.0594 142.05042 572.0594 140.84729Q572.0594 139.73792 571.7 139.28479Q571.35626 138.83167 570.825 138.83167ZM570.84064 149.94104L577.10626 137.86292L578.2469 137.86292L571.9969 149.94104L570.84064 149.94104ZM575.79376 146.83167Q575.79376 145.59729 576.40314 144.73792Q577.02814 143.87854 578.2 143.87854Q579.27814 143.87854 579.98126 144.65979Q580.7 145.42542 580.7 146.90979Q580.7 148.36292 579.98126 149.15979Q579.2625 149.94104 578.21564 149.94104Q577.16876 149.94104 576.48126 149.15979Q575.79376 148.37854 575.79376 146.83167ZM578.2469 144.84729Q577.71564 144.84729 577.35626 145.30042Q577.0125 145.75354 577.0125 146.97229Q577.0125 148.06604 577.35626 148.51917Q577.71564 148.97229 578.23126 148.97229Q578.77814 148.97229 579.1219 148.51917Q579.46564 148.06604 579.46564 146.86292Q579.46564 145.75354 579.10626 145.30042Q578.7625 144.84729 578.2469 144.84729Z" fill-rule="nonzero"/><path stroke="#757575" stroke-width="1.0" stroke-linecap="butt" d="M581.45 133.01917L454.76666 133.01917L422.39392 133.01917" fill-rule="nonzero"/><path fill="#9e9e9e" d="M424.39392 133.01917C424.39392 131.9146 423.4985 131.01917 422.39392 131.01917C421.28937 131.01917 420.39392 131.9146 420.39392 133.01917C420.39392 134.12373 421.28937 135.01917 422.39392 135.01917C423.4985 135.01917 424.39392 134.12373 424.39392 133.01917" fill-rule="nonzero"/><path fill="#efefef" d="M531.6844 326.45L531.6844 314.9969L536.0125 314.9969Q537.15314 314.9969 537.7469 315.10626Q538.59064 315.2469 539.15314 315.6375Q539.73126 316.02814 540.075 316.7469Q540.4344 317.45 540.4344 318.3094Q540.4344 319.7625 539.4969 320.77814Q538.575 321.79376 536.1375 321.79376L533.2 321.79376L533.2 326.45L531.6844 326.45ZM533.2 320.4344L536.16876 320.4344Q537.6375 320.4344 538.2469 319.8875Q538.8719 319.34064 538.8719 318.35626Q538.8719 317.6375 538.4969 317.1219Q538.1375 316.60626 537.54376 316.45Q537.16876 316.34064 536.1375 316.34064L533.2 316.34064L533.2 320.4344ZM548.1844 323.77814L549.6375 323.95Q549.29376 325.23126 548.35626 325.9344Q547.4344 326.6375 545.9969 326.6375Q544.16876 326.6375 543.10626 325.5125Q542.04376 324.3875 542.04376 322.3719Q542.04376 320.27814 543.1219 319.1219Q544.2 317.96564 545.91876 317.96564Q547.575 317.96564 548.6219 319.10626Q549.6844 320.23126 549.6844 322.27814Q549.6844 322.40314 549.6844 322.65314L543.4969 322.65314Q543.575 324.02814 544.2625 324.7625Q544.96564 325.48126 545.9969 325.48126Q546.77814 325.48126 547.325 325.075Q547.8719 324.66876 548.1844 323.77814ZM543.575 321.4969L548.2 321.4969Q548.10626 320.45 547.66876 319.9344Q546.9969 319.1219 545.9344 319.1219Q544.96564 319.1219 544.29376 319.77814Q543.6375 320.41876 543.575 321.4969ZM550.98126 322.29376Q550.98126 319.9969 552.2625 318.8875Q553.34064 317.96564 554.8719 317.96564Q556.59064 317.96564 557.66876 319.09064Q558.7625 320.2 558.7625 322.1844Q558.7625 323.77814 558.27814 324.7Q557.79376 325.6219 556.8719 326.1375Q555.96564 326.6375 554.8719 326.6375Q553.1375 326.6375 552.0594 325.52814Q550.98126 324.40314 550.98126 322.29376ZM552.4344 322.29376Q552.4344 323.8875 553.1219 324.6844Q553.825 325.48126 554.8719 325.48126Q555.91876 325.48126 556.60626 324.6844Q557.3094 323.8875 557.3094 322.2469Q557.3094 320.71564 556.60626 319.91876Q555.91876 319.1219 554.8719 319.1219Q553.825 319.1219 553.1219 319.91876Q552.4344 320.7 552.4344 322.29376ZM560.5125 329.6375L560.5125 318.15314L561.79376 318.15314L561.79376 319.23126Q562.2469 318.59064 562.8094 318.27814Q563.3875 317.96564 564.2 317.96564Q565.2625 317.96564 566.075 318.5125Q566.8875 319.0594 567.29376 320.0594Q567.71564 321.04376 567.71564 322.23126Q567.71564 323.5125 567.2469 324.52814Q566.79376 325.54376 565.91876 326.09064Q565.0594 326.6375 564.09064 326.6375Q563.3875 326.6375 562.825 326.34064Q562.27814 326.04376 561.91876 325.59064L561.91876 329.6375L560.5125 329.6375ZM561.77814 322.34064Q561.77814 323.95 562.41876 324.71564Q563.075 325.48126 563.9969 325.48126Q564.9344 325.48126 565.60626 324.6844Q566.27814 323.8875 566.27814 322.23126Q566.27814 320.6375 565.6219 319.85626Q564.96564 319.0594 564.0594 319.0594Q563.16876 319.0594 562.46564 319.90314Q561.77814 320.7469 561.77814 322.34064ZM569.48126 326.45L569.48126 314.9969L570.8875 314.9969L570.8875 326.45L569.48126 326.45ZM579.1844 323.77814L580.6375 323.95Q580.29376 325.23126 579.35626 325.9344Q578.4344 326.6375 576.9969 326.6375Q575.16876 326.6375 574.10626 325.5125Q573.04376 324.3875 573.04376 322.3719Q573.04376 320.27814 574.1219 319.1219Q575.2 317.96564 576.91876 317.96564Q578.575 317.96564 579.6219 319.10626Q580.6844 320.23126 580.6844 322.27814Q580.6844 322.40314 580.6844 322.65314L574.4969 322.65314Q574.575 324.02814 575.2625 324.7625Q575.96564 325.48126 576.9969 325.48126Q577.77814 325.48126 578.325 325.075Q578.8719 324.66876 579.1844 323.77814ZM574.575 321.4969L579.2 321.4969Q579.10626 320.45 578.66876 319.9344Q577.9969 319.1219 576.9344 319.1219Q575.96564 319.1219 575.29376 319.77814Q574.6375 320.41876 574.575 321.4969Z" fill-rule="nonzero"/><path fill="#9e9e9e" d="M537.1219 345.41876L538.52814 345.23126Q538.77814 346.4344 539.35626 346.96564Q539.9344 347.48126 540.77814 347.48126Q541.7625 347.48126 542.45 346.79376Q543.1375 346.10626 543.1375 345.09064Q543.1375 344.1219 542.4969 343.4969Q541.8719 342.8719 540.8875 342.8719Q540.4969 342.8719 539.90314 343.02814L540.0594 341.79376Q540.2 341.8094 540.27814 341.8094Q541.1844 341.8094 541.90314 341.34064Q542.6219 340.8719 542.6219 339.8875Q542.6219 339.1219 542.09064 338.6219Q541.575 338.10626 540.7469 338.10626Q539.91876 338.10626 539.3719 338.6219Q538.825 339.1375 538.66876 340.16876L537.2625 339.91876Q537.52814 338.4969 538.4344 337.73126Q539.35626 336.95 540.71564 336.95Q541.65314 336.95 542.4344 337.35626Q543.23126 337.7469 543.6375 338.45Q544.0594 339.1375 544.0594 339.91876Q544.0594 340.66876 543.65314 341.27814Q543.2625 341.8875 542.48126 342.2469Q543.4969 342.48126 544.0594 343.21564Q544.6219 343.95 544.6219 345.0594Q544.6219 346.5594 543.52814 347.60626Q542.4344 348.65314 540.7625 348.65314Q539.2625 348.65314 538.2625 347.7625Q537.2625 346.85626 537.1219 345.41876ZM546.1219 345.41876L547.52814 345.23126Q547.77814 346.4344 548.35626 346.96564Q548.9344 347.48126 549.77814 347.48126Q550.7625 347.48126 551.45 346.79376Q552.1375 346.10626 552.1375 345.09064Q552.1375 344.1219 551.4969 343.4969Q550.8719 342.8719 549.8875 342.8719Q549.4969 342.8719 548.90314 343.02814L549.0594 341.79376Q549.2 341.8094 549.27814 341.8094Q550.1844 341.8094 550.90314 341.34064Q551.6219 340.8719 551.6219 339.8875Q551.6219 339.1219 551.09064 338.6219Q550.575 338.10626 549.7469 338.10626Q548.91876 338.10626 548.3719 338.6219Q547.825 339.1375 547.66876 340.16876L546.2625 339.91876Q546.52814 338.4969 547.4344 337.73126Q548.35626 336.95 549.71564 336.95Q550.65314 336.95 551.4344 337.35626Q552.23126 337.7469 552.6375 338.45Q553.0594 339.1375 553.0594 339.91876Q553.0594 340.66876 552.65314 341.27814Q552.2625 341.8875 551.48126 342.2469Q552.4969 342.48126 553.0594 343.21564Q553.6219 343.95 553.6219 345.0594Q553.6219 346.5594 552.52814 347.60626Q551.4344 348.65314 549.7625 348.65314Q548.2625 348.65314 547.2625 347.7625Q546.2625 346.85626 546.1219 345.41876ZM555.90314 348.45L555.90314 346.84064L557.5125 346.84064L557.5125 348.45L555.90314 348.45ZM559.1219 345.41876L560.52814 345.23126Q560.77814 346.4344 561.35626 346.96564Q561.9344 347.48126 562.77814 347.48126Q563.7625 347.48126 564.45 346.79376Q565.1375 346.10626 565.1375 345.09064Q565.1375 344.1219 564.4969 343.4969Q563.8719 342.8719 562.8875 342.8719Q562.4969 342.8719 561.90314 343.02814L562.0594 341.79376Q562.2 341.8094 562.27814 341.8094Q563.1844 341.8094 563.90314 341.34064Q564.6219 340.8719 564.6219 339.8875Q564.6219 339.1219 564.09064 338.6219Q563.575 338.10626 562.7469 338.10626Q561.91876 338.10626 561.3719 338.6219Q560.825 339.1375 560.66876 340.16876L559.2625 339.91876Q559.52814 338.4969 560.4344 337.73126Q561.35626 336.95 562.71564 336.95Q563.65314 336.95 564.4344 337.35626Q565.23126 337.7469 565.6375 338.45Q566.0594 339.1375 566.0594 339.91876Q566.0594 340.66876 565.65314 341.27814Q565.2625 341.8875 564.48126 342.2469Q565.4969 342.48126 566.0594 343.21564Q566.6219 343.95 566.6219 345.0594Q566.6219 346.5594 565.52814 347.60626Q564.4344 348.65314 562.7625 348.65314Q561.2625 348.65314 560.2625 347.7625Q559.2625 346.85626 559.1219 345.41876ZM568.3875 339.7469Q568.3875 338.5125 568.9969 337.65314Q569.6219 336.79376 570.79376 336.79376Q571.8719 336.79376 572.575 337.575Q573.27814 338.34064 573.27814 339.825Q573.27814 341.27814 572.5594 342.075Q571.85626 342.85626 570.8094 342.85626Q569.7625 342.85626 569.075 342.09064Q568.3875 341.3094 568.3875 339.7469ZM570.825 337.7625Q570.3094 337.7625 569.95 338.21564Q569.60626 338.66876 569.60626 339.8875Q569.60626 340.98126 569.95 341.4344Q570.3094 341.8875 570.825 341.8875Q571.35626 341.8875 571.7 341.4344Q572.0594 340.98126 572.0594 339.77814Q572.0594 338.66876 571.7 338.21564Q571.35626 337.7625 570.825 337.7625ZM570.84064 348.8719L577.10626 336.79376L578.2469 336.79376L571.9969 348.8719L570.84064 348.8719ZM575.79376 345.7625Q575.79376 344.52814 576.40314 343.66876Q577.02814 342.8094 578.2 342.8094Q579.27814 342.8094 579.98126 343.59064Q580.7 344.35626 580.7 345.84064Q580.7 347.29376 579.98126 348.09064Q579.2625 348.8719 578.21564 348.8719Q577.16876 348.8719 576.48126 348.09064Q575.79376 347.3094 575.79376 345.7625ZM578.2469 343.77814Q577.71564 343.77814 577.35626 344.23126Q577.0125 344.6844 577.0125 345.90314Q577.0125 346.9969 577.35626 347.45Q577.71564 347.90314 578.23126 347.90314Q578.77814 347.90314 579.1219 347.45Q579.46564 346.9969 579.46564 345.79376Q579.46564 344.6844 579.10626 344.23126Q578.7625 343.77814 578.2469 343.77814Z" fill-rule="nonzero"/><path stroke="#757575" stroke-width="1.0" stroke-linecap="butt" d="M581.45 331.95L454.76666 331.95L300.0 345.01166" fill-rule="nonzero"/><path fill="#9e9e9e" d="M302.0 345.01166C302.0 343.9071 301.10458 343.01166 300.0 343.01166C298.89542 343.01166 298.0 343.9071 298.0 345.01166C298.0 346.11624 298.89542 347.01166 300.0 347.01166C301.10458 347.01166 302.0 346.11624 302.0 345.01166" fill-rule="nonzero"/><path fill="#f3f3f3" d="M265.98438 37.55L265.98438 23.2375L268.84375 23.2375L272.21875 33.3625Q272.6875 34.784374 272.90625 35.4875Q273.15625 34.70625 273.67188 33.190624L277.09375 23.2375L279.64062 23.2375L279.64062 37.55L277.82812 37.55L277.82812 25.565624L273.65625 37.55L271.95312 37.55L267.8125 25.3625L267.8125 37.55L265.98438 37.55ZM289.92188 34.20625L291.73438 34.440624Q291.3125 36.01875 290.14062 36.909374Q288.98438 37.784374 287.17188 37.784374Q284.90625 37.784374 283.5625 36.39375Q282.23438 34.9875 282.23438 32.45625Q282.23438 29.83125 283.57812 28.39375Q284.92188 26.940624 287.07812 26.940624Q289.15625 26.940624 290.46875 28.3625Q291.79688 29.76875 291.79688 32.346874Q291.79688 32.503124 291.78125 32.815624L284.04688 32.815624Q284.14062 34.51875 285.01562 35.425Q285.89062 36.33125 287.1875 36.33125Q288.15625 36.33125 288.82812 35.83125Q289.51562 35.315624 289.92188 34.20625ZM284.14062 31.3625L289.9375 31.3625Q289.82812 30.065624 289.28125 29.409374Q288.4375 28.39375 287.09375 28.39375Q285.89062 28.39375 285.0625 29.20625Q284.23438 30.003124 284.14062 31.3625ZM300.54688 37.55L300.54688 36.2375Q299.5625 37.784374 297.64062 37.784374Q296.40625 37.784374 295.35938 37.096874Q294.32812 36.409374 293.75 35.190624Q293.1875 33.971874 293.1875 32.378124Q293.1875 30.815624 293.70312 29.55Q294.21875 28.284374 295.25 27.6125Q296.29688 26.940624 297.5625 26.940624Q298.5 26.940624 299.23438 27.346874Q299.96875 27.7375 300.4375 28.3625L300.4375 23.2375L302.17188 23.2375L302.17188 37.55L300.54688 37.55ZM294.98438 32.378124Q294.98438 34.3625 295.82812 35.346874Q296.67188 36.33125 297.8125 36.33125Q298.96875 36.33125 299.76562 35.39375Q300.57812 34.45625 300.57812 32.51875Q300.57812 30.39375 299.75 29.39375Q298.9375 28.39375 297.73438 28.39375Q296.5625 28.39375 295.76562 29.3625Q294.98438 30.315624 294.98438 32.378124ZM304.82812 25.253124L304.82812 23.2375L306.59375 23.2375L306.59375 25.253124L304.82812 25.253124ZM304.82812 37.55L304.82812 27.175L306.59375 27.175L306.59375 37.55L304.82812 37.55ZM315.60938 37.55L315.60938 36.01875Q314.40625 37.784374 312.32812 37.784374Q311.40625 37.784374 310.60938 37.440624Q309.8125 37.08125 309.42188 36.55Q309.04688 36.01875 308.89062 35.2375Q308.78125 34.721874 308.78125 33.596874L308.78125 27.175L310.53125 27.175L310.53125 32.925Q310.53125 34.3 310.64062 34.784374Q310.8125 35.471874 311.34375 35.878124Q311.89062 36.26875 312.67188 36.26875Q313.46875 36.26875 314.15625 35.8625Q314.85938 35.45625 315.14062 34.76875Q315.4375 34.065624 315.4375 32.7375L315.4375 27.175L317.1875 27.175L317.1875 37.55L315.60938 37.55ZM319.8125 37.55L319.8125 27.175L321.39062 27.175L321.39062 28.628124Q321.875 27.878124 322.6875 27.409374Q323.5 26.940624 324.53125 26.940624Q325.6875 26.940624 326.42188 27.425Q327.15625 27.89375 327.46875 28.753124Q328.70312 26.940624 330.67188 26.940624Q332.21875 26.940624 333.04688 27.8Q333.875 28.659374 333.875 30.425L333.875 37.55L332.125 37.55L332.125 31.01875Q332.125 29.95625 331.95312 29.503124Q331.78125 29.034374 331.32812 28.753124Q330.89062 28.471874 330.28125 28.471874Q329.1875 28.471874 328.45312 29.20625Q327.73438 29.925 327.73438 31.51875L327.73438 37.55L325.98438 37.55L325.98438 30.815624Q325.98438 29.64375 325.54688 29.065624Q325.125 28.471874 324.14062 28.471874Q323.40625 28.471874 322.76562 28.8625Q322.14062 29.253124 321.85938 30.003124Q321.57812 30.753124 321.57812 32.175L321.57812 37.55L319.8125 37.55Z" fill-rule="nonzero"/></svg>