<svg version="1.1" viewBox="0.0 0.0 600.0 371.0" fill="none" stroke="none" stroke-linecap="square" stroke-miterlimit="10" width="600" height="371" xmlns:xlink="http://www.w3.org/1999/xlink" xmlns="http://www.w3.org/2000/svg"><path fill="#ffffff" fill-opacity="0.0" d="M0 0L600.0 0L600.0 371.0L0 371.0L0 0Z" fill-rule="nonzero"/><path fill="#cf4366" d="M300.0 54.916668C364.44962 54.916668 421.5695 96.416664 441.4855 157.7119C461.40155 219.00714 439.5837 286.15555 387.44284 324.0381L321.86072 233.77202C334.89594 224.30139 340.35037 207.51428 335.37137 192.19048C330.39236 176.86667 316.1124 166.49167 300.0 166.49167Z" fill-rule="nonzero"/><path fill="#e5a345" d="M152.0483 219.23369C147.64119 177.30287 161.2331 135.47131 189.44482 104.139C217.65656 72.8067 257.83823 54.916668 300.0 54.916668L300.0 166.49167C289.45956 166.49167 279.41415 170.96417 272.3612 178.79726C265.30826 186.63033 261.9103 197.08823 263.0121 207.57092Z" fill-rule="nonzero"/><path fill="#df8d43" d="M387.44284 324.0381C344.44424 355.2784 288.04538 361.20618 239.49115 339.58844C190.93692 317.9707 157.6039 272.09174 152.0483 219.23369L263.0121 207.57092C264.40097 220.78543 272.73422 232.25517 284.87277 237.6596C297.01135 243.06404 311.11105 241.5821 321.86072 233.77202Z" fill-rule="nonzero"/><path fill="#ffffff" d="M377.38388 178.64293L377.38388 175.5648L371.80576 175.5648L371.80576 174.11168L377.68076 165.7523L378.97763 165.7523L378.97763 174.11168L380.712 174.11168L380.712 175.5648L378.97763 175.5648L378.97763 178.64293L377.38388 178.64293ZM377.38388 174.11168L377.38388 168.29918L373.35263 174.11168L377.38388 174.11168ZM382.32138 172.28355Q382.32138 170.0023 382.79013 168.61168Q383.25888 167.22105 384.18076 166.47105Q385.11826 165.70543 386.5245 165.70543Q387.55576 165.70543 388.337 166.1273Q389.11826 166.53355 389.61826 167.33043Q390.13388 168.11168 390.43076 169.2523Q390.72763 170.3773 390.72763 172.28355Q390.72763 174.54918 390.25888 175.95543Q389.79013 177.34605 388.85263 178.11168Q387.93076 178.86168 386.5245 178.86168Q384.6495 178.86168 383.587 177.53355Q382.32138 175.92418 382.32138 172.28355ZM383.94638 172.28355Q383.94638 175.45543 384.68076 176.51793Q385.43076 177.5648 386.5245 177.5648Q387.60263 177.5648 388.35263 176.51793Q389.10263 175.45543 389.10263 172.28355Q389.10263 169.11168 388.35263 168.0648Q387.60263 167.01793 386.50888 167.01793Q385.41513 167.01793 384.75888 167.9398Q383.94638 169.11168 383.94638 172.28355ZM393.212 178.64293L393.212 176.84605L395.00888 176.84605L395.00888 178.64293L393.212 178.64293ZM397.32138 172.28355Q397.32138 170.0023 397.79013 168.61168Q398.25888 167.22105 399.18076 166.47105Q400.11826 165.70543 401.5245 165.70543Q402.55576 165.70543 403.337 166.1273Q404.11826 166.53355 404.61826 167.33043Q405.13388 168.11168 405.43076 169.2523Q405.72763 170.3773 405.72763 172.28355Q405.72763 174.54918 405.25888 175.95543Q404.79013 177.34605 403.85263 178.11168Q402.93076 178.86168 401.5245 178.86168Q399.6495 178.86168 398.587 177.53355Q397.32138 175.92418 397.32138 172.28355ZM398.94638 172.28355Q398.94638 175.45543 399.68076 176.51793Q400.43076 177.5648 401.5245 177.5648Q402.60263 177.5648 403.35263 176.51793Q404.10263 175.45543 404.10263 172.28355Q404.10263 169.11168 403.35263 168.0648Q402.60263 167.01793 401.50888 167.01793Q400.41513 167.01793 399.75888 167.9398Q398.94638 169.11168 398.94638 172.28355ZM407.61826 168.84605Q407.61826 167.47105 408.30576 166.5023Q409.00888 165.53355 410.32138 165.53355Q411.54013 165.53355 412.337 166.40855Q413.13388 167.26793 413.13388 168.95543Q413.13388 170.58043 412.32138 171.47105Q411.5245 172.34605 410.337 172.34605Q409.18076 172.34605 408.3995 171.48668Q407.61826 170.61168 407.61826 168.84605ZM410.36826 166.6273Q409.7745 166.6273 409.38388 167.14293Q408.99326 167.64293 408.99326 169.0023Q408.99326 170.2523 409.38388 170.7523Q409.79013 171.2523 410.36826 171.2523Q410.962 171.2523 411.35263 170.7523Q411.74326 170.23668 411.74326 168.89293Q411.74326 167.64293 411.35263 167.14293Q410.962 166.6273 410.36826 166.6273ZM410.38388 179.11168L417.43076 165.53355L418.712 165.53355L411.68076 179.11168L410.38388 179.11168ZM415.94638 175.61168Q415.94638 174.23668 416.63388 173.26793Q417.337 172.29918 418.66513 172.29918Q419.88388 172.29918 420.66513 173.17418Q421.462 174.03355 421.462 175.72105Q421.462 177.34605 420.66513 178.23668Q419.86826 179.11168 418.68076 179.11168Q417.50888 179.11168 416.72763 178.23668Q415.94638 177.36168 415.94638 175.61168ZM418.712 173.39293Q418.11826 173.39293 417.72763 173.90855Q417.337 174.40855 417.337 175.78355Q417.337 177.0023 417.72763 177.51793Q418.11826 178.03355 418.69638 178.03355Q419.30576 178.03355 419.69638 177.51793Q420.087 177.0023 420.087 175.65855Q420.087 174.40855 419.69638 173.90855Q419.30576 173.39293 418.712 173.39293Z" fill-rule="nonzero"/><path fill="#ffffff" d="M231.82259 304.31665L233.41634 304.11353Q233.68196 305.45728 234.33821 306.05103Q234.99446 306.64478 235.93196 306.64478Q237.05696 306.64478 237.82259 305.87915Q238.58821 305.0979 238.58821 303.95728Q238.58821 302.86353 237.86946 302.1604Q237.16634 301.44165 236.07259 301.44165Q235.61946 301.44165 234.94759 301.62915L235.11946 300.23853Q235.27571 300.25415 235.38509 300.25415Q236.38509 300.25415 237.19759 299.7229Q238.01009 299.19165 238.01009 298.0979Q238.01009 297.2229 237.41634 296.6604Q236.82259 296.08228 235.90071 296.08228Q234.97884 296.08228 234.35384 296.6604Q233.74446 297.23853 233.57259 298.4104L231.99446 298.12915Q232.27571 296.5354 233.30696 295.6604Q234.33821 294.7854 235.86946 294.7854Q236.91634 294.7854 237.80696 295.23853Q238.69759 295.69165 239.16634 296.4729Q239.63509 297.25415 239.63509 298.12915Q239.63509 298.9729 239.18196 299.6604Q238.74446 300.33228 237.85384 300.73853Q238.99446 301.00415 239.61946 301.8479Q240.26009 302.67603 240.26009 303.9104Q240.26009 305.5979 239.02571 306.7854Q237.80696 307.95728 235.93196 307.95728Q234.22884 307.95728 233.10384 306.94165Q231.99446 305.92603 231.82259 304.31665ZM241.82259 304.31665L243.41634 304.11353Q243.68196 305.45728 244.33821 306.05103Q244.99446 306.64478 245.93196 306.64478Q247.05696 306.64478 247.82259 305.87915Q248.58821 305.0979 248.58821 303.95728Q248.58821 302.86353 247.86946 302.1604Q247.16634 301.44165 246.07259 301.44165Q245.61946 301.44165 244.94759 301.62915L245.11946 300.23853Q245.27571 300.25415 245.38509 300.25415Q246.38509 300.25415 247.19759 299.7229Q248.01009 299.19165 248.01009 298.0979Q248.01009 297.2229 247.41634 296.6604Q246.82259 296.08228 245.90071 296.08228Q244.97884 296.08228 244.35384 296.6604Q243.74446 297.23853 243.57259 298.4104L241.99446 298.12915Q242.27571 296.5354 243.30696 295.6604Q244.33821 294.7854 245.86946 294.7854Q246.91634 294.7854 247.80696 295.23853Q248.69759 295.69165 249.16634 296.4729Q249.63509 297.25415 249.63509 298.12915Q249.63509 298.9729 249.18196 299.6604Q248.74446 300.33228 247.85384 300.73853Q248.99446 301.00415 249.61946 301.8479Q250.26009 302.67603 250.26009 303.9104Q250.26009 305.5979 249.02571 306.7854Q247.80696 307.95728 245.93196 307.95728Q244.22884 307.95728 243.10384 306.94165Q241.99446 305.92603 241.82259 304.31665ZM252.71321 307.7229L252.71321 305.92603L254.51009 305.92603L254.51009 307.7229L252.71321 307.7229ZM256.82257 304.31665L258.41632 304.11353Q258.68195 305.45728 259.3382 306.05103Q259.99445 306.64478 260.93195 306.64478Q262.05695 306.64478 262.82257 305.87915Q263.5882 305.0979 263.5882 303.95728Q263.5882 302.86353 262.86945 302.1604Q262.16632 301.44165 261.07257 301.44165Q260.61945 301.44165 259.94757 301.62915L260.11945 300.23853Q260.2757 300.25415 260.38507 300.25415Q261.38507 300.25415 262.19757 299.7229Q263.01007 299.19165 263.01007 298.0979Q263.01007 297.2229 262.41632 296.6604Q261.82257 296.08228 260.9007 296.08228Q259.97882 296.08228 259.35382 296.6604Q258.74445 297.23853 258.57257 298.4104L256.99445 298.12915Q257.2757 296.5354 258.30695 295.6604Q259.3382 294.7854 260.86945 294.7854Q261.91632 294.7854 262.80695 295.23853Q263.69757 295.69165 264.16632 296.4729Q264.63507 297.25415 264.63507 298.12915Q264.63507 298.9729 264.18195 299.6604Q263.74445 300.33228 262.85382 300.73853Q263.99445 301.00415 264.61945 301.8479Q265.26007 302.67603 265.26007 303.9104Q265.26007 305.5979 264.0257 306.7854Q262.80695 307.95728 260.93195 307.95728Q259.22882 307.95728 258.10382 306.94165Q256.99445 305.92603 256.82257 304.31665ZM267.11945 297.92603Q267.11945 296.55103 267.80695 295.58228Q268.51007 294.61353 269.82257 294.61353Q271.04132 294.61353 271.8382 295.48853Q272.63507 296.3479 272.63507 298.0354Q272.63507 299.6604 271.82257 300.55103Q271.0257 301.42603 269.8382 301.42603Q268.68195 301.42603 267.9007 300.56665Q267.11945 299.69165 267.11945 297.92603ZM269.86945 295.70728Q269.2757 295.70728 268.88507 296.2229Q268.49445 296.7229 268.49445 298.08228Q268.49445 299.33228 268.88507 299.83228Q269.29132 300.33228 269.86945 300.33228Q270.4632 300.33228 270.85382 299.83228Q271.24445 299.31665 271.24445 297.9729Q271.24445 296.7229 270.85382 296.2229Q270.4632 295.70728 269.86945 295.70728ZM269.88507 308.19165L276.93195 294.61353L278.2132 294.61353L271.18195 308.19165L269.88507 308.19165ZM275.44757 304.69165Q275.44757 303.31665 276.13507 302.3479Q276.8382 301.37915 278.16632 301.37915Q279.38507 301.37915 280.16632 302.25415Q280.9632 303.11353 280.9632 304.80103Q280.9632 306.42603 280.16632 307.31665Q279.36945 308.19165 278.18195 308.19165Q277.01007 308.19165 276.22882 307.31665Q275.44757 306.44165 275.44757 304.69165ZM278.2132 302.4729Q277.61945 302.4729 277.22882 302.98853Q276.8382 303.48853 276.8382 304.86353Q276.8382 306.08228 277.22882 306.5979Q277.61945 307.11353 278.19757 307.11353Q278.80695 307.11353 279.19757 306.5979Q279.5882 306.08228 279.5882 304.73853Q279.5882 303.48853 279.19757 302.98853Q278.80695 302.4729 278.2132 302.4729Z" fill-rule="nonzero"/><path fill="#ffffff" d="M208.09113 140.71297L208.09113 142.22859L199.5755 142.22859Q199.55988 141.65047 199.763 141.13484Q200.09113 140.25984 200.79425 139.41609Q201.513 138.57234 202.87238 137.46297Q204.96613 135.74422 205.7005 134.74422Q206.4505 133.72859 206.4505 132.83797Q206.4505 131.88484 205.77863 131.24422Q205.10675 130.60359 204.02863 130.60359Q202.87238 130.60359 202.18488 131.29109Q201.513 131.97859 201.49738 133.18172L199.87238 133.00984Q200.04425 131.19734 201.12238 130.24422Q202.21613 129.29109 204.05988 129.29109Q205.90363 129.29109 206.98175 130.32234Q208.0755 131.35359 208.0755 132.86922Q208.0755 133.63484 207.74738 134.38484Q207.43488 135.13484 206.7005 135.96297Q205.96613 136.79109 204.263 138.22859Q202.84113 139.43172 202.43488 139.85359Q202.02863 140.27547 201.77863 140.71297L208.09113 140.71297ZM217.98175 132.49422L216.41925 132.61922Q216.2005 131.69734 215.80988 131.27547Q215.16925 130.58797 214.23175 130.58797Q213.48175 130.58797 212.90363 131.00984Q212.15363 131.55672 211.71613 132.60359Q211.29425 133.65047 211.27863 135.58797Q211.85675 134.71297 212.66925 134.29109Q213.49738 133.86922 214.40363 133.86922Q215.99738 133.86922 217.10675 135.04109Q218.21613 136.19734 218.21613 138.04109Q218.21613 139.25984 217.68488 140.30672Q217.16925 141.33797 216.24738 141.90047Q215.34113 142.44734 214.18488 142.44734Q212.2005 142.44734 210.9505 140.99422Q209.7005 139.54109 209.7005 136.19734Q209.7005 132.46297 211.09113 130.75984Q212.29425 129.29109 214.3255 129.29109Q215.85675 129.29109 216.8255 130.15047Q217.79425 130.99422 217.98175 132.49422ZM211.52863 138.05672Q211.52863 138.86922 211.87238 139.61922Q212.21613 140.36922 212.84113 140.75984Q213.46613 141.15047 214.15363 141.15047Q215.15363 141.15047 215.87238 140.33797Q216.59113 139.52547 216.59113 138.13484Q216.59113 136.80672 215.87238 136.04109Q215.16925 135.25984 214.09113 135.25984Q213.013 135.25984 212.263 136.04109Q211.52863 136.80672 211.52863 138.05672ZM220.66925 142.22859L220.66925 140.43172L222.46613 140.43172L222.46613 142.22859L220.66925 142.22859ZM224.888 131.02547L224.888 129.50984L233.21613 129.50984L233.21613 130.74422Q231.99738 132.05672 230.77863 134.22859Q229.5755 136.38484 228.91925 138.68172Q228.43488 140.30672 228.30988 142.22859L226.68488 142.22859Q226.71613 140.71297 227.27863 138.55672Q227.85675 136.40047 228.91925 134.40047Q229.98175 132.40047 231.18488 131.02547L224.888 131.02547ZM235.0755 132.43172Q235.0755 131.05672 235.763 130.08797Q236.46613 129.11922 237.77863 129.11922Q238.99738 129.11922 239.79425 129.99422Q240.59113 130.85359 240.59113 132.54109Q240.59113 134.16609 239.77863 135.05672Q238.98175 135.93172 237.79425 135.93172Q236.638 135.93172 235.85675 135.07234Q235.0755 134.19734 235.0755 132.43172ZM237.8255 130.21297Q237.23175 130.21297 236.84113 130.72859Q236.4505 131.22859 236.4505 132.58797Q236.4505 133.83797 236.84113 134.33797Q237.24738 134.83797 237.8255 134.83797Q238.41925 134.83797 238.80988 134.33797Q239.2005 133.82234 239.2005 132.47859Q239.2005 131.22859 238.80988 130.72859Q238.41925 130.21297 237.8255 130.21297ZM237.84113 142.69734L244.888 129.11922L246.16925 129.11922L239.138 142.69734L237.84113 142.69734ZM243.40363 139.19734Q243.40363 137.82234 244.09113 136.85359Q244.79425 135.88484 246.12238 135.88484Q247.34113 135.88484 248.12238 136.75984Q248.91925 137.61922 248.91925 139.30672Q248.91925 140.93172 248.12238 141.82234Q247.3255 142.69734 246.138 142.69734Q244.96613 142.69734 244.18488 141.82234Q243.40363 140.94734 243.40363 139.19734ZM246.16925 136.97859Q245.5755 136.97859 245.18488 137.49422Q244.79425 137.99422 244.79425 139.36922Q244.79425 140.58797 245.18488 141.10359Q245.5755 141.61922 246.15363 141.61922Q246.763 141.61922 247.15363 141.10359Q247.54425 140.58797 247.54425 139.24422Q247.54425 137.99422 247.15363 137.49422Q246.763 136.97859 246.16925 136.97859Z" fill-rule="nonzero"/><path stroke="#ffffff" stroke-width="1.0" stroke-linejoin="round" stroke-linecap="round" d="M321.86072 233.77202C334.89594 224.30139 340.35037 207.51428 335.37137 192.19048C330.39236 176.86667 316.1124 166.49167 300.0 166.49167L300.0 54.916668C364.44962 54.916668 421.5695 96.416664 441.4855 157.7119C461.40155 219.00714 439.5837 286.15555 387.44284 324.0381" fill-rule="nonzero"/><path stroke="#ffffff" stroke-width="1.0" stroke-linejoin="round" stroke-linecap="round" d="M263.0121 207.57092C264.40097 220.78543 272.73422 232.25517 284.87277 237.6596C297.01135 243.06404 311.11105 241.5821 321.86072 233.77202L387.44284 324.0381C344.44424 355.2784 288.04538 361.20618 239.49115 339.58844C190.93692 317.9707 157.6039 272.09174 152.0483 219.23369" fill-rule="nonzero"/><path stroke="#ffffff" stroke-width="1.0" stroke-linejoin="round" stroke-linecap="round" d="M300.0 166.49167C289.45956 166.49167 279.41415 170.96417 272.3612 178.79726C265.30826 186.63033 261.9103 197.08823 263.0121 207.57092L152.0483 219.23369C147.64119 177.30287 161.2331 135.47131 189.44482 104.139C217.65656 72.8067 257.83823 54.916668 300.0 54.916668" fill-rule="nonzero"/><path fill="#efefef" d="M27.3 92.16309L28.815624 92.16309L28.815624 98.77247Q28.815624 100.50684 28.425 101.52247Q28.034374 102.53809 27.01875 103.17872Q26.003124 103.81934 24.346874 103.81934Q22.7375 103.81934 21.70625 103.25684Q20.690624 102.69434 20.253124 101.64747Q19.815624 100.60059 19.815624 98.77247L19.815624 92.16309L21.33125 92.16309L21.33125 98.77247Q21.33125 100.25684 21.596874 100.97559Q21.878124 101.67872 22.55 102.06934Q23.2375 102.44434 24.20625 102.44434Q25.878124 102.44434 26.58125 101.69434Q27.3 100.92872 27.3 98.77247L27.3 92.16309ZM31.596874 103.61622L31.596874 95.31934L32.8625 95.31934L32.8625 96.56934Q33.346874 95.69434 33.753124 95.41309Q34.159374 95.13184 34.659374 95.13184Q35.3625 95.13184 36.096874 95.58497L35.6125 96.88184Q35.096874 96.58497 34.58125 96.58497Q34.128124 96.58497 33.753124 96.86622Q33.39375 97.13184 33.2375 97.63184Q33.003124 98.38184 33.003124 99.27247L33.003124 103.61622L31.596874 103.61622ZM37.909374 103.61622L36.596874 103.61622L36.596874 92.16309L38.003124 92.16309L38.003124 96.24122Q38.89375 95.13184 40.284374 95.13184Q41.05 95.13184 41.721874 95.44434Q42.409374 95.74122 42.846874 96.30372Q43.3 96.86622 43.55 97.66309Q43.8 98.44434 43.8 99.33497Q43.8 101.47559 42.7375 102.64747Q41.690624 103.80372 40.20625 103.80372Q38.7375 103.80372 37.909374 102.56934L37.909374 103.61622ZM37.89375 99.39747Q37.89375 100.89747 38.3 101.55372Q38.95625 102.64747 40.096874 102.64747Q41.01875 102.64747 41.690624 101.85059Q42.3625 101.03809 42.3625 99.45997Q42.3625 97.83497 41.70625 97.06934Q41.065624 96.28809 40.159374 96.28809Q39.2375 96.28809 38.565624 97.08497Q37.89375 97.88184 37.89375 99.39747ZM51.01875 102.58497Q50.2375 103.25684 49.51875 103.53809Q48.8 103.80372 47.971874 103.80372Q46.596874 103.80372 45.8625 103.13184Q45.128124 102.45997 45.128124 101.42872Q45.128124 100.81934 45.409374 100.31934Q45.690624 99.80372 46.128124 99.50684Q46.58125 99.19434 47.14375 99.03809Q47.565624 98.92872 48.39375 98.83497Q50.096874 98.63184 50.909374 98.35059Q50.909374 98.05372 50.909374 97.97559Q50.909374 97.11622 50.51875 96.77247Q49.971874 96.28809 48.909374 96.28809Q47.925 96.28809 47.440624 96.64747Q46.971874 96.99122 46.753124 97.86622L45.378124 97.67872Q45.565624 96.80372 45.9875 96.25684Q46.425 95.70997 47.2375 95.42872Q48.05 95.13184 49.1125 95.13184Q50.175 95.13184 50.83125 95.38184Q51.503124 95.63184 51.815624 96.00684Q52.128124 96.38184 52.253124 96.95997Q52.33125 97.31934 52.33125 98.25684L52.33125 100.13184Q52.33125 102.10059 52.409374 102.61622Q52.503124 103.13184 52.76875 103.61622L51.3 103.61622Q51.08125 103.17872 51.01875 102.58497ZM50.909374 99.44434Q50.14375 99.75684 48.6125 99.97559Q47.7375 100.10059 47.378124 100.25684Q47.01875 100.41309 46.815624 100.72559Q46.628124 101.02247 46.628124 101.38184Q46.628124 101.94434 47.05 102.31934Q47.4875 102.69434 48.3 102.69434Q49.1125 102.69434 49.7375 102.35059Q50.378124 101.99122 50.675 101.36622Q50.909374 100.89747 50.909374 99.95997L50.909374 99.44434ZM54.6125 103.61622L54.6125 95.31934L55.878124 95.31934L55.878124 96.49122Q56.784374 95.13184 58.51875 95.13184Q59.26875 95.13184 59.89375 95.39747Q60.51875 95.66309 60.83125 96.10059Q61.14375 96.53809 61.26875 97.14747Q61.346874 97.53809 61.346874 98.50684L61.346874 103.61622L59.940624 103.61622L59.940624 98.56934Q59.940624 97.70997 59.76875 97.28809Q59.6125 96.85059 59.190624 96.60059Q58.784374 96.35059 58.221874 96.35059Q57.315624 96.35059 56.659374 96.92872Q56.01875 97.49122 56.01875 99.08497L56.01875 103.61622L54.6125 103.61622ZM63.05 101.13184L64.44063 100.91309Q64.55 101.75684 65.08125 102.20997Q65.62813 102.64747 66.58125 102.64747Q67.55 102.64747 68.01875 102.25684Q68.4875 101.85059 68.4875 101.31934Q68.4875 100.85059 68.08125 100.56934Q67.78438 100.38184 66.64375 100.10059Q65.09688 99.70997 64.4875 99.42872Q63.89375 99.13184 63.58125 98.63184Q63.284374 98.13184 63.284374 97.52247Q63.284374 96.95997 63.534374 96.49122Q63.784374 96.02247 64.22188 95.70997Q64.55 95.45997 65.1125 95.30372Q65.69063 95.13184 66.33125 95.13184Q67.31563 95.13184 68.05 95.41309Q68.78438 95.69434 69.12813 96.17872Q69.4875 96.64747 69.62813 97.45997L68.25313 97.64747Q68.15938 97.00684 67.70625 96.64747Q67.25313 96.28809 66.44063 96.28809Q65.47188 96.28809 65.05 96.61622Q64.64375 96.92872 64.64375 97.35059Q64.64375 97.63184 64.81563 97.85059Q64.9875 98.06934 65.34688 98.22559Q65.56563 98.30372 66.59688 98.58497Q68.08125 98.97559 68.675 99.24122Q69.26875 99.49122 69.59688 99.97559Q69.94063 100.45997 69.94063 101.17872Q69.94063 101.88184 69.51875 102.50684Q69.1125 103.11622 68.33125 103.45997Q67.56563 103.80372 66.59688 103.80372Q64.97188 103.80372 64.12813 103.13184Q63.284374 102.45997 63.05 101.13184ZM77.01875 100.56934L78.40938 100.75684Q78.175 102.17872 77.2375 102.99122Q76.31563 103.80372 74.95625 103.80372Q73.25313 103.80372 72.20625 102.69434Q71.175 101.56934 71.175 99.49122Q71.175 98.14747 71.6125 97.14747Q72.06563 96.13184 72.97188 95.63184Q73.89375 95.13184 74.95625 95.13184Q76.31563 95.13184 77.175 95.81934Q78.03438 96.49122 78.26875 97.75684L76.90938 97.95997Q76.70625 97.13184 76.20625 96.70997Q75.72188 96.28809 75.01875 96.28809Q73.95625 96.28809 73.28438 97.05372Q72.62813 97.80372 72.62813 99.45997Q72.62813 101.13184 73.26875 101.89747Q73.90938 102.64747 74.94063 102.64747Q75.76875 102.64747 76.31563 102.14747Q76.87813 101.63184 77.01875 100.56934ZM85.01875 102.58497Q84.2375 103.25684 83.51875 103.53809Q82.8 103.80372 81.97188 103.80372Q80.59688 103.80372 79.8625 103.13184Q79.12813 102.45997 79.12813 101.42872Q79.12813 100.81934 79.40938 100.31934Q79.69063 99.80372 80.12813 99.50684Q80.58125 99.19434 81.14375 99.03809Q81.56563 98.92872 82.39375 98.83497Q84.09688 98.63184 84.90938 98.35059Q84.90938 98.05372 84.90938 97.97559Q84.90938 97.11622 84.51875 96.77247Q83.97188 96.28809 82.90938 96.28809Q81.925 96.28809 81.44063 96.64747Q80.97188 96.99122 80.75313 97.86622L79.37813 97.67872Q79.56563 96.80372 79.9875 96.25684Q80.425 95.70997 81.2375 95.42872Q82.05 95.13184 83.1125 95.13184Q84.175 95.13184 84.83125 95.38184Q85.50313 95.63184 85.81563 96.00684Q86.12813 96.38184 86.25313 96.95997Q86.33125 97.31934 86.33125 98.25684L86.33125 100.13184Q86.33125 102.10059 86.40938 102.61622Q86.50313 103.13184 86.76875 103.61622L85.3 103.61622Q85.08125 103.17872 85.01875 102.58497ZM84.90938 99.44434Q84.14375 99.75684 82.6125 99.97559Q81.7375 100.10059 81.37813 100.25684Q81.01875 100.41309 80.81563 100.72559Q80.62813 101.02247 80.62813 101.38184Q80.62813 101.94434 81.05 102.31934Q81.4875 102.69434 82.3 102.69434Q83.1125 102.69434 83.7375 102.35059Q84.37813 101.99122 84.675 101.36622Q84.90938 100.89747 84.90938 99.95997L84.90938 99.44434ZM88.6125 106.80372L88.6125 95.31934L89.89375 95.31934L89.89375 96.39747Q90.34688 95.75684 90.90938 95.44434Q91.4875 95.13184 92.3 95.13184Q93.3625 95.13184 94.175 95.67872Q94.9875 96.22559 95.39375 97.22559Q95.81563 98.20997 95.81563 99.39747Q95.81563 100.67872 95.34688 101.69434Q94.89375 102.70997 94.01875 103.25684Q93.15938 103.80372 92.19063 103.80372Q91.4875 103.80372 90.925 103.50684Q90.37813 103.20997 90.01875 102.75684L90.01875 106.80372L88.6125 106.80372ZM89.87813 99.50684Q89.87813 101.11622 90.51875 101.88184Q91.175 102.64747 92.09688 102.64747Q93.03438 102.64747 93.70625 101.85059Q94.37813 101.05372 94.37813 99.39747Q94.37813 97.80372 93.72188 97.02247Q93.06563 96.22559 92.15938 96.22559Q91.26875 96.22559 90.56563 97.06934Q89.87813 97.91309 89.87813 99.50684ZM103.28438 100.94434L104.7375 101.11622Q104.39375 102.39747 103.45625 103.10059Q102.53438 103.80372 101.09688 103.80372Q99.26875 103.80372 98.20625 102.67872Q97.14375 101.55372 97.14375 99.53809Q97.14375 97.44434 98.22188 96.28809Q99.3 95.13184 101.01875 95.13184Q102.675 95.13184 103.72188 96.27247Q104.78438 97.39747 104.78438 99.44434Q104.78438 99.56934 104.78438 99.81934L98.59688 99.81934Q98.675 101.19434 99.3625 101.92872Q100.06563 102.64747 101.09688 102.64747Q101.87813 102.64747 102.425 102.24122Q102.97188 101.83497 103.28438 100.94434ZM98.675 98.66309L103.3 98.66309Q103.20625 97.61622 102.76875 97.10059Q102.09688 96.28809 101.03438 96.28809Q100.06563 96.28809 99.39375 96.94434Q98.7375 97.58497 98.675 98.66309Z" fill-rule="nonzero"/><path fill="#9e9e9e" d="M26.6125 124.25684L26.6125 125.61622L19.034374 125.61622Q19.01875 125.10059 19.20625 124.63184Q19.4875 123.86622 20.128124 123.11622Q20.76875 122.36622 21.971874 121.38184Q23.83125 119.85059 24.4875 118.95997Q25.14375 118.05372 25.14375 117.25684Q25.14375 116.42872 24.55 115.85059Q23.95625 115.27247 22.9875 115.27247Q21.971874 115.27247 21.3625 115.88184Q20.753124 116.49122 20.753124 117.56934L19.3 117.42872Q19.45625 115.80372 20.425 114.95997Q21.39375 114.11622 23.01875 114.11622Q24.675 114.11622 25.628124 115.03809Q26.596874 115.94434 26.596874 117.28809Q26.596874 117.97559 26.315624 118.64747Q26.034374 119.30372 25.378124 120.03809Q24.721874 120.77247 23.20625 122.05372Q21.940624 123.11622 21.58125 123.50684Q21.221874 123.88184 20.9875 124.25684L26.6125 124.25684ZM35.51875 116.95997L34.1125 117.06934Q33.925 116.24122 33.58125 115.86622Q33.01875 115.27247 32.175 115.27247Q31.503124 115.27247 31.003124 115.64747Q30.33125 116.13184 29.940624 117.06934Q29.565624 117.99122 29.55 119.70997Q30.065624 118.92872 30.8 118.55372Q31.534374 118.17872 32.33125 118.17872Q33.7375 118.17872 34.721874 119.22559Q35.721874 120.25684 35.721874 121.89747Q35.721874 122.97559 35.253124 123.89747Q34.784374 124.81934 33.971874 125.31934Q33.159374 125.81934 32.128124 125.81934Q30.378124 125.81934 29.26875 124.52247Q28.159374 123.22559 28.159374 120.25684Q28.159374 116.92872 29.378124 115.42872Q30.45625 114.11622 32.26875 114.11622Q33.6125 114.11622 34.471874 114.88184Q35.346874 115.63184 35.51875 116.95997ZM29.76875 121.89747Q29.76875 122.63184 30.08125 123.30372Q30.39375 123.95997 30.940624 124.30372Q31.503124 124.64747 32.1125 124.64747Q33.003124 124.64747 33.64375 123.92872Q34.284374 123.20997 34.284374 121.97559Q34.284374 120.78809 33.64375 120.11622Q33.01875 119.42872 32.05 119.42872Q31.096874 119.42872 30.425 120.11622Q29.76875 120.78809 29.76875 121.89747ZM38.003124 125.61622L38.003124 124.00684L39.6125 124.00684L39.6125 125.61622L38.003124 125.61622ZM41.315624 115.66309L41.315624 114.30372L48.721874 114.30372L48.721874 115.39747Q47.628124 116.56934 46.55 118.50684Q45.4875 120.42872 44.89375 122.45997Q44.471874 123.89747 44.3625 125.61622L42.909374 125.61622Q42.940624 124.25684 43.440624 122.35059Q43.95625 120.42872 44.89375 118.66309Q45.846874 116.88184 46.925 115.66309L41.315624 115.66309ZM50.4875 116.91309Q50.4875 115.67872 51.096874 114.81934Q51.721874 113.95997 52.89375 113.95997Q53.971874 113.95997 54.675 114.74122Q55.378124 115.50684 55.378124 116.99122Q55.378124 118.44434 54.659374 119.24122Q53.95625 120.02247 52.909374 120.02247Q51.8625 120.02247 51.175 119.25684Q50.4875 118.47559 50.4875 116.91309ZM52.925 114.92872Q52.409374 114.92872 52.05 115.38184Q51.70625 115.83497 51.70625 117.05372Q51.70625 118.14747 52.05 118.60059Q52.409374 119.05372 52.925 119.05372Q53.45625 119.05372 53.8 118.60059Q54.159374 118.14747 54.159374 116.94434Q54.159374 115.83497 53.8 115.38184Q53.45625 114.92872 52.925 114.92872ZM52.940624 126.03809L59.20625 113.95997L60.346874 113.95997L54.096874 126.03809L52.940624 126.03809ZM57.89375 122.92872Q57.89375 121.69434 58.503124 120.83497Q59.128124 119.97559 60.3 119.97559Q61.378124 119.97559 62.08125 120.75684Q62.8 121.52247 62.8 123.00684Q62.8 124.45997 62.08125 125.25684Q61.3625 126.03809 60.315624 126.03809Q59.26875 126.03809 58.58125 125.25684Q57.89375 124.47559 57.89375 122.92872ZM60.346874 120.94434Q59.815624 120.94434 59.45625 121.39747Q59.1125 121.85059 59.1125 123.06934Q59.1125 124.16309 59.45625 124.61622Q59.815624 125.06934 60.33125 125.06934Q60.878124 125.06934 61.221874 124.61622Q61.565624 124.16309 61.565624 122.95997Q61.565624 121.85059 61.20625 121.39747Q60.8625 120.94434 60.346874 120.94434Z" fill-rule="nonzero"/><path stroke="#757575" stroke-width="1.0" stroke-linecap="butt" d="M18.55 109.11622L145.23334 109.11622L194.97258 109.11622" fill-rule="nonzero"/><path fill="#9e9e9e" d="M196.97258 109.11622C196.97258 108.01165 196.07715 107.11622 194.97258 107.11622C193.86801 107.11622 192.97258 108.01165 192.97258 109.11622C192.97258 110.22079 193.86801 111.11622 194.97258 111.11622C196.07715 111.11622 196.97258 110.22079 196.97258 109.11622" fill-rule="nonzero"/><path fill="#efefef" d="M19.76875 326.45L19.76875 314.9969L21.33125 314.9969L27.346874 323.98126L27.346874 314.9969L28.8 314.9969L28.8 326.45L27.2375 326.45L21.221874 317.45L21.221874 326.45L19.76875 326.45ZM37.01875 325.41876Q36.2375 326.09064 35.51875 326.3719Q34.8 326.6375 33.971874 326.6375Q32.596874 326.6375 31.8625 325.96564Q31.128124 325.29376 31.128124 324.2625Q31.128124 323.65314 31.409374 323.15314Q31.690624 322.6375 32.128124 322.34064Q32.58125 322.02814 33.14375 321.8719Q33.565624 321.7625 34.39375 321.66876Q36.096874 321.46564 36.909374 321.1844Q36.909374 320.8875 36.909374 320.8094Q36.909374 319.95 36.51875 319.60626Q35.971874 319.1219 34.909374 319.1219Q33.925 319.1219 33.440624 319.48126Q32.971874 319.825 32.753124 320.7L31.378124 320.5125Q31.565624 319.6375 31.9875 319.09064Q32.425 318.54376 33.2375 318.2625Q34.05 317.96564 35.1125 317.96564Q36.175 317.96564 36.83125 318.21564Q37.503124 318.46564 37.815624 318.84064Q38.128124 319.21564 38.253124 319.79376Q38.33125 320.15314 38.33125 321.09064L38.33125 322.96564Q38.33125 324.9344 38.409374 325.45Q38.503124 325.96564 38.76875 326.45L37.3 326.45Q37.08125 326.0125 37.01875 325.41876ZM36.909374 322.27814Q36.14375 322.59064 34.6125 322.8094Q33.7375 322.9344 33.378124 323.09064Q33.01875 323.2469 32.815624 323.5594Q32.628124 323.85626 32.628124 324.21564Q32.628124 324.77814 33.05 325.15314Q33.4875 325.52814 34.3 325.52814Q35.1125 325.52814 35.7375 325.1844Q36.378124 324.825 36.675 324.2Q36.909374 323.73126 36.909374 322.79376L36.909374 322.27814ZM43.675 325.1844L43.878124 326.4344Q43.284374 326.5594 42.815624 326.5594Q42.05 326.5594 41.628124 326.325Q41.20625 326.075 41.034374 325.6844Q40.8625 325.27814 40.8625 324.0125L40.8625 319.2469L39.83125 319.2469L39.83125 318.15314L40.8625 318.15314L40.8625 316.09064L42.26875 315.2469L42.26875 318.15314L43.675 318.15314L43.675 319.2469L42.26875 319.2469L42.26875 324.09064Q42.26875 324.7 42.33125 324.8719Q42.409374 325.04376 42.58125 325.15314Q42.753124 325.2469 43.065624 325.2469Q43.3 325.2469 43.675 325.1844ZM50.05 326.45L50.05 325.23126Q49.08125 326.6375 47.409374 326.6375Q46.675 326.6375 46.034374 326.35626Q45.409374 326.075 45.096874 325.65314Q44.784374 325.21564 44.659374 324.60626Q44.58125 324.1844 44.58125 323.29376L44.58125 318.15314L45.9875 318.15314L45.9875 322.7469Q45.9875 323.85626 46.065624 324.23126Q46.20625 324.79376 46.628124 325.10626Q47.065624 325.41876 47.690624 325.41876Q48.33125 325.41876 48.878124 325.10626Q49.440624 324.77814 49.659374 324.21564Q49.89375 323.65314 49.89375 322.59064L49.89375 318.15314L51.3 318.15314L51.3 326.45L50.05 326.45ZM53.596874 326.45L53.596874 318.15314L54.8625 318.15314L54.8625 319.40314Q55.346874 318.52814 55.753124 318.2469Q56.159374 317.96564 56.659374 317.96564Q57.3625 317.96564 58.096874 318.41876L57.6125 319.71564Q57.096874 319.41876 56.58125 319.41876Q56.128124 319.41876 55.753124 319.7Q55.39375 319.96564 55.2375 320.46564Q55.003124 321.21564 55.003124 322.10626L55.003124 326.45L53.596874 326.45ZM64.28438 323.77814L65.7375 323.95Q65.39375 325.23126 64.45625 325.9344Q63.534374 326.6375 62.096874 326.6375Q60.26875 326.6375 59.20625 325.5125Q58.14375 324.3875 58.14375 322.3719Q58.14375 320.27814 59.221874 319.1219Q60.3 317.96564 62.01875 317.96564Q63.675 317.96564 64.72188 319.10626Q65.78438 320.23126 65.78438 322.27814Q65.78438 322.40314 65.78438 322.65314L59.596874 322.65314Q59.675 324.02814 60.3625 324.7625Q61.065624 325.48126 62.096874 325.48126Q62.878124 325.48126 63.425 325.075Q63.971874 324.66876 64.28438 323.77814ZM59.675 321.4969L64.3 321.4969Q64.20625 320.45 63.76875 319.9344Q63.096874 319.1219 62.034374 319.1219Q61.065624 319.1219 60.39375 319.77814Q59.7375 320.41876 59.675 321.4969ZM67.05 323.96564L68.44063 323.7469Q68.55 324.59064 69.08125 325.04376Q69.62813 325.48126 70.58125 325.48126Q71.55 325.48126 72.01875 325.09064Q72.4875 324.6844 72.4875 324.15314Q72.4875 323.6844 72.08125 323.40314Q71.78438 323.21564 70.64375 322.9344Q69.09688 322.54376 68.4875 322.2625Q67.89375 321.96564 67.58125 321.46564Q67.28438 320.96564 67.28438 320.35626Q67.28438 319.79376 67.53438 319.325Q67.78438 318.85626 68.22188 318.54376Q68.55 318.29376 69.1125 318.1375Q69.69063 317.96564 70.33125 317.96564Q71.31563 317.96564 72.05 318.2469Q72.78438 318.52814 73.12813 319.0125Q73.4875 319.48126 73.62813 320.29376L72.25313 320.48126Q72.15938 319.84064 71.70625 319.48126Q71.25313 319.1219 70.44063 319.1219Q69.47188 319.1219 69.05 319.45Q68.64375 319.7625 68.64375 320.1844Q68.64375 320.46564 68.81563 320.6844Q68.9875 320.90314 69.34688 321.0594Q69.56563 321.1375 70.59688 321.41876Q72.08125 321.8094 72.675 322.075Q73.26875 322.325 73.59688 322.8094Q73.94063 323.29376 73.94063 324.0125Q73.94063 324.71564 73.51875 325.34064Q73.1125 325.95 72.33125 326.29376Q71.56563 326.6375 70.59688 326.6375Q68.97188 326.6375 68.12813 325.96564Q67.28438 325.29376 67.05 323.96564ZM81.01875 323.40314L82.40938 323.59064Q82.175 325.0125 81.2375 325.825Q80.31563 326.6375 78.95625 326.6375Q77.25313 326.6375 76.20625 325.52814Q75.175 324.40314 75.175 322.325Q75.175 320.98126 75.6125 319.98126Q76.06563 318.96564 76.97188 318.46564Q77.89375 317.96564 78.95625 317.96564Q80.31563 317.96564 81.175 318.65314Q82.03438 319.325 82.26875 320.59064L80.90938 320.79376Q80.70625 319.96564 80.20625 319.54376Q79.72188 319.1219 79.01875 319.1219Q77.95625 319.1219 77.28438 319.8875Q76.62813 320.6375 76.62813 322.29376Q76.62813 323.96564 77.26875 324.73126Q77.90938 325.48126 78.94063 325.48126Q79.76875 325.48126 80.31563 324.98126Q80.87813 324.46564 81.01875 323.40314ZM89.01875 325.41876Q88.2375 326.09064 87.51875 326.3719Q86.8 326.6375 85.97188 326.6375Q84.59688 326.6375 83.8625 325.96564Q83.12813 325.29376 83.12813 324.2625Q83.12813 323.65314 83.40938 323.15314Q83.69063 322.6375 84.12813 322.34064Q84.58125 322.02814 85.14375 321.8719Q85.56563 321.7625 86.39375 321.66876Q88.09688 321.46564 88.90938 321.1844Q88.90938 320.8875 88.90938 320.8094Q88.90938 319.95 88.51875 319.60626Q87.97188 319.1219 86.90938 319.1219Q85.925 319.1219 85.44063 319.48126Q84.97188 319.825 84.75313 320.7L83.37813 320.5125Q83.56563 319.6375 83.9875 319.09064Q84.425 318.54376 85.2375 318.2625Q86.05 317.96564 87.1125 317.96564Q88.175 317.96564 88.83125 318.21564Q89.50313 318.46564 89.81563 318.84064Q90.12813 319.21564 90.25313 319.79376Q90.33125 320.15314 90.33125 321.09064L90.33125 322.96564Q90.33125 324.9344 90.40938 325.45Q90.50313 325.96564 90.76875 326.45L89.3 326.45Q89.08125 326.0125 89.01875 325.41876ZM88.90938 322.27814Q88.14375 322.59064 86.6125 322.8094Q85.7375 322.9344 85.37813 323.09064Q85.01875 323.2469 84.81563 323.5594Q84.62813 323.85626 84.62813 324.21564Q84.62813 324.77814 85.05 325.15314Q85.4875 325.52814 86.3 325.52814Q87.1125 325.52814 87.7375 325.1844Q88.37813 324.825 88.675 324.2Q88.90938 323.73126 88.90938 322.79376L88.90938 322.27814ZM92.6125 329.6375L92.6125 318.15314L93.89375 318.15314L93.89375 319.23126Q94.34688 318.59064 94.90938 318.27814Q95.4875 317.96564 96.3 317.96564Q97.3625 317.96564 98.175 318.5125Q98.9875 319.0594 99.39375 320.0594Q99.81563 321.04376 99.81563 322.23126Q99.81563 323.5125 99.34688 324.52814Q98.89375 325.54376 98.01875 326.09064Q97.15938 326.6375 96.19063 326.6375Q95.4875 326.6375 94.925 326.34064Q94.37813 326.04376 94.01875 325.59064L94.01875 329.6375L92.6125 329.6375ZM93.87813 322.34064Q93.87813 323.95 94.51875 324.71564Q95.175 325.48126 96.09688 325.48126Q97.03438 325.48126 97.70625 324.6844Q98.37813 323.8875 98.37813 322.23126Q98.37813 320.6375 97.72188 319.85626Q97.06563 319.0594 96.15938 319.0594Q95.26875 319.0594 94.56563 319.90314Q93.87813 320.7469 93.87813 322.34064ZM107.28438 323.77814L108.7375 323.95Q108.39375 325.23126 107.45625 325.9344Q106.53438 326.6375 105.09688 326.6375Q103.26875 326.6375 102.20625 325.5125Q101.14375 324.3875 101.14375 322.3719Q101.14375 320.27814 102.22188 319.1219Q103.3 317.96564 105.01875 317.96564Q106.675 317.96564 107.72188 319.10626Q108.78438 320.23126 108.78438 322.27814Q108.78438 322.40314 108.78438 322.65314L102.59688 322.65314Q102.675 324.02814 103.3625 324.7625Q104.06563 325.48126 105.09688 325.48126Q105.87813 325.48126 106.425 325.075Q106.97188 324.66876 107.28438 323.77814ZM102.675 321.4969L107.3 321.4969Q107.20625 320.45 106.76875 319.9344Q106.09688 319.1219 105.03438 319.1219Q104.06563 319.1219 103.39375 319.77814Q102.7375 320.41876 102.675 321.4969Z" fill-rule="nonzero"/><path fill="#9e9e9e" d="M19.221874 345.41876L20.628124 345.23126Q20.878124 346.4344 21.45625 346.96564Q22.034374 347.48126 22.878124 347.48126Q23.8625 347.48126 24.55 346.79376Q25.2375 346.10626 25.2375 345.09064Q25.2375 344.1219 24.596874 343.4969Q23.971874 342.8719 22.9875 342.8719Q22.596874 342.8719 22.003124 343.02814L22.159374 341.79376Q22.3 341.8094 22.378124 341.8094Q23.284374 341.8094 24.003124 341.34064Q24.721874 340.8719 24.721874 339.8875Q24.721874 339.1219 24.190624 338.6219Q23.675 338.10626 22.846874 338.10626Q22.01875 338.10626 21.471874 338.6219Q20.925 339.1375 20.76875 340.16876L19.3625 339.91876Q19.628124 338.4969 20.534374 337.73126Q21.45625 336.95 22.815624 336.95Q23.753124 336.95 24.534374 337.35626Q25.33125 337.7469 25.7375 338.45Q26.159374 339.1375 26.159374 339.91876Q26.159374 340.66876 25.753124 341.27814Q25.3625 341.8875 24.58125 342.2469Q25.596874 342.48126 26.159374 343.21564Q26.721874 343.95 26.721874 345.0594Q26.721874 346.5594 25.628124 347.60626Q24.534374 348.65314 22.8625 348.65314Q21.3625 348.65314 20.3625 347.7625Q19.3625 346.85626 19.221874 345.41876ZM28.221874 345.41876L29.628124 345.23126Q29.878124 346.4344 30.45625 346.96564Q31.034374 347.48126 31.878124 347.48126Q32.8625 347.48126 33.55 346.79376Q34.2375 346.10626 34.2375 345.09064Q34.2375 344.1219 33.596874 343.4969Q32.971874 342.8719 31.9875 342.8719Q31.596874 342.8719 31.003124 343.02814L31.159374 341.79376Q31.3 341.8094 31.378124 341.8094Q32.284374 341.8094 33.003124 341.34064Q33.721874 340.8719 33.721874 339.8875Q33.721874 339.1219 33.190624 338.6219Q32.675 338.10626 31.846874 338.10626Q31.01875 338.10626 30.471874 338.6219Q29.925 339.1375 29.76875 340.16876L28.3625 339.91876Q28.628124 338.4969 29.534374 337.73126Q30.45625 336.95 31.815624 336.95Q32.753124 336.95 33.534374 337.35626Q34.33125 337.7469 34.7375 338.45Q35.159374 339.1375 35.159374 339.91876Q35.159374 340.66876 34.753124 341.27814Q34.3625 341.8875 33.58125 342.2469Q34.596874 342.48126 35.159374 343.21564Q35.721874 343.95 35.721874 345.0594Q35.721874 346.5594 34.628124 347.60626Q33.534374 348.65314 31.8625 348.65314Q30.3625 348.65314 29.3625 347.7625Q28.3625 346.85626 28.221874 345.41876ZM38.003124 348.45L38.003124 346.84064L39.6125 346.84064L39.6125 348.45L38.003124 348.45ZM41.221874 345.41876L42.628124 345.23126Q42.878124 346.4344 43.45625 346.96564Q44.034374 347.48126 44.878124 347.48126Q45.8625 347.48126 46.55 346.79376Q47.2375 346.10626 47.2375 345.09064Q47.2375 344.1219 46.596874 343.4969Q45.971874 342.8719 44.9875 342.8719Q44.596874 342.8719 44.003124 343.02814L44.159374 341.79376Q44.3 341.8094 44.378124 341.8094Q45.284374 341.8094 46.003124 341.34064Q46.721874 340.8719 46.721874 339.8875Q46.721874 339.1219 46.190624 338.6219Q45.675 338.10626 44.846874 338.10626Q44.01875 338.10626 43.471874 338.6219Q42.925 339.1375 42.76875 340.16876L41.3625 339.91876Q41.628124 338.4969 42.534374 337.73126Q43.45625 336.95 44.815624 336.95Q45.753124 336.95 46.534374 337.35626Q47.33125 337.7469 47.7375 338.45Q48.159374 339.1375 48.159374 339.91876Q48.159374 340.66876 47.753124 341.27814Q47.3625 341.8875 46.58125 342.2469Q47.596874 342.48126 48.159374 343.21564Q48.721874 343.95 48.721874 345.0594Q48.721874 346.5594 47.628124 347.60626Q46.534374 348.65314 44.8625 348.65314Q43.3625 348.65314 42.3625 347.7625Q41.3625 346.85626 41.221874 345.41876ZM50.4875 339.7469Q50.4875 338.5125 51.096874 337.65314Q51.721874 336.79376 52.89375 336.79376Q53.971874 336.79376 54.675 337.575Q55.378124 338.34064 55.378124 339.825Q55.378124 341.27814 54.659374 342.075Q53.95625 342.85626 52.909374 342.85626Q51.8625 342.85626 51.175 342.09064Q50.4875 341.3094 50.4875 339.7469ZM52.925 337.7625Q52.409374 337.7625 52.05 338.21564Q51.70625 338.66876 51.70625 339.8875Q51.70625 340.98126 52.05 341.4344Q52.409374 341.8875 52.925 341.8875Q53.45625 341.8875 53.8 341.4344Q54.159374 340.98126 54.159374 339.77814Q54.159374 338.66876 53.8 338.21564Q53.45625 337.7625 52.925 337.7625ZM52.940624 348.8719L59.20625 336.79376L60.346874 336.79376L54.096874 348.8719L52.940624 348.8719ZM57.89375 345.7625Q57.89375 344.52814 58.503124 343.66876Q59.128124 342.8094 60.3 342.8094Q61.378124 342.8094 62.08125 343.59064Q62.8 344.35626 62.8 345.84064Q62.8 347.29376 62.08125 348.09064Q61.3625 348.8719 60.315624 348.8719Q59.26875 348.8719 58.58125 348.09064Q57.89375 347.3094 57.89375 345.7625ZM60.346874 343.77814Q59.815624 343.77814 59.45625 344.23126Q59.1125 344.6844 59.1125 345.90314Q59.1125 346.9969 59.45625 347.45Q59.815624 347.90314 60.33125 347.90314Q60.878124 347.90314 61.221874 347.45Q61.565624 346.9969 61.565624 345.79376Q61.565624 344.6844 61.20625 344.23126Q60.8625 343.77814 60.346874 343.77814Z" fill-rule="nonzero"/><path stroke="#757575" stroke-width="1.0" stroke-linecap="butt" d="M18.55 331.95L145.23334 331.95L242.51659 332.79318" fill-rule="nonzero"/><path fill="#9e9e9e" d="M244.51659 332.79318C244.51659 331.68863 243.62115 330.79318 242.51659 330.79318C241.41202 330.79318 240.51659 331.68863 240.51659 332.79318C240.51659 333.89777 241.41202 334.79318 242.51659 334.79318C243.62115 334.79318 244.51659 333.89777 244.51659 332.79318" fill-rule="nonzero"/><path fill="#efefef" d="M531.6844 154.51048L531.6844 143.05736L536.0125 143.05736Q537.15314 143.05736 537.7469 143.16673Q538.59064 143.30736 539.15314 143.69798Q539.73126 144.08861 540.075 144.80736Q540.4344 145.51048 540.4344 146.36986Q540.4344 147.82298 539.4969 148.83861Q538.575 149.85423 536.1375 149.85423L533.2 149.85423L533.2 154.51048L531.6844 154.51048ZM533.2 148.49486L536.16876 148.49486Q537.6375 148.49486 538.2469 147.94798Q538.8719 147.40111 538.8719 146.41673Q538.8719 145.69798 538.4969 145.18236Q538.1375 144.66673 537.54376 144.51048Q537.16876 144.40111 536.1375 144.40111L533.2 144.40111L533.2 148.49486ZM548.1844 151.83861L549.6375 152.01048Q549.29376 153.29173 548.35626 153.99486Q547.4344 154.69798 545.9969 154.69798Q544.16876 154.69798 543.10626 153.57298Q542.04376 152.44798 542.04376 150.43236Q542.04376 148.33861 543.1219 147.18236Q544.2 146.02611 545.91876 146.02611Q547.575 146.02611 548.6219 147.16673Q549.6844 148.29173 549.6844 150.33861Q549.6844 150.46361 549.6844 150.71361L543.4969 150.71361Q543.575 152.08861 544.2625 152.82298Q544.96564 153.54173 545.9969 153.54173Q546.77814 153.54173 547.325 153.13548Q547.8719 152.72923 548.1844 151.83861ZM543.575 149.55736L548.2 149.55736Q548.10626 148.51048 547.66876 147.99486Q546.9969 147.18236 545.9344 147.18236Q544.96564 147.18236 544.29376 147.83861Q543.6375 148.47923 543.575 149.55736ZM550.98126 150.35423Q550.98126 148.05736 552.2625 146.94798Q553.34064 146.02611 554.8719 146.02611Q556.59064 146.02611 557.66876 147.15111Q558.7625 148.26048 558.7625 150.24486Q558.7625 151.83861 558.27814 152.76048Q557.79376 153.68236 556.8719 154.19798Q555.96564 154.69798 554.8719 154.69798Q553.1375 154.69798 552.0594 153.58861Q550.98126 152.46361 550.98126 150.35423ZM552.4344 150.35423Q552.4344 151.94798 553.1219 152.74486Q553.825 153.54173 554.8719 153.54173Q555.91876 153.54173 556.60626 152.74486Q557.3094 151.94798 557.3094 150.30736Q557.3094 148.77611 556.60626 147.97923Q555.91876 147.18236 554.8719 147.18236Q553.825 147.18236 553.1219 147.97923Q552.4344 148.76048 552.4344 150.35423ZM560.5125 157.69798L560.5125 146.21361L561.79376 146.21361L561.79376 147.29173Q562.2469 146.65111 562.8094 146.33861Q563.3875 146.02611 564.2 146.02611Q565.2625 146.02611 566.075 146.57298Q566.8875 147.11986 567.29376 148.11986Q567.71564 149.10423 567.71564 150.29173Q567.71564 151.57298 567.2469 152.58861Q566.79376 153.60423 565.91876 154.15111Q565.0594 154.69798 564.09064 154.69798Q563.3875 154.69798 562.825 154.40111Q562.27814 154.10423 561.91876 153.65111L561.91876 157.69798L560.5125 157.69798ZM561.77814 150.40111Q561.77814 152.01048 562.41876 152.77611Q563.075 153.54173 563.9969 153.54173Q564.9344 153.54173 565.60626 152.74486Q566.27814 151.94798 566.27814 150.29173Q566.27814 148.69798 565.6219 147.91673Q564.96564 147.11986 564.0594 147.11986Q563.16876 147.11986 562.46564 147.96361Q561.77814 148.80736 561.77814 150.40111ZM569.48126 154.51048L569.48126 143.05736L570.8875 143.05736L570.8875 154.51048L569.48126 154.51048ZM579.1844 151.83861L580.6375 152.01048Q580.29376 153.29173 579.35626 153.99486Q578.4344 154.69798 576.9969 154.69798Q575.16876 154.69798 574.10626 153.57298Q573.04376 152.44798 573.04376 150.43236Q573.04376 148.33861 574.1219 147.18236Q575.2 146.02611 576.91876 146.02611Q578.575 146.02611 579.6219 147.16673Q580.6844 148.29173 580.6844 150.33861Q580.6844 150.46361 580.6844 150.71361L574.4969 150.71361Q574.575 152.08861 575.2625 152.82298Q575.96564 153.54173 576.9969 153.54173Q577.77814 153.54173 578.325 153.13548Q578.8719 152.72923 579.1844 151.83861ZM574.575 149.55736L579.2 149.55736Q579.10626 148.51048 578.66876 147.99486Q577.9969 147.18236 576.9344 147.18236Q575.96564 147.18236 575.29376 147.83861Q574.6375 148.47923 574.575 149.55736Z" fill-rule="nonzero"/><path fill="#9e9e9e" d="M541.6219 176.51048L541.6219 173.76048L536.65314 173.76048L536.65314 172.47923L541.8875 165.05736L543.02814 165.05736L543.02814 172.47923L544.575 172.47923L544.575 173.76048L543.02814 173.76048L543.02814 176.51048L541.6219 176.51048ZM541.6219 172.47923L541.6219 167.30736L538.04376 172.47923L541.6219 172.47923ZM546.1219 170.85423Q546.1219 168.82298 546.52814 167.58861Q546.95 166.35423 547.77814 165.68236Q548.60626 165.01048 549.85626 165.01048Q550.77814 165.01048 551.46564 165.38548Q552.16876 165.74486 552.6219 166.44798Q553.075 167.15111 553.325 168.15111Q553.59064 169.15111 553.59064 170.85423Q553.59064 172.86986 553.16876 174.11986Q552.7625 175.35423 551.9344 176.04173Q551.10626 176.71361 549.85626 176.71361Q548.2 176.71361 547.2469 175.51048Q546.1219 174.08861 546.1219 170.85423ZM547.5594 170.85423Q547.5594 173.68236 548.21564 174.61986Q548.8875 175.54173 549.85626 175.54173Q550.825 175.54173 551.48126 174.60423Q552.1375 173.66673 552.1375 170.85423Q552.1375 168.02611 551.48126 167.10423Q550.825 166.16673 549.84064 166.16673Q548.8719 166.16673 548.29376 166.99486Q547.5594 168.04173 547.5594 170.85423ZM555.90314 176.51048L555.90314 174.90111L557.5125 174.90111L557.5125 176.51048L555.90314 176.51048ZM559.1219 170.85423Q559.1219 168.82298 559.52814 167.58861Q559.95 166.35423 560.77814 165.68236Q561.60626 165.01048 562.85626 165.01048Q563.77814 165.01048 564.46564 165.38548Q565.16876 165.74486 565.6219 166.44798Q566.075 167.15111 566.325 168.15111Q566.59064 169.15111 566.59064 170.85423Q566.59064 172.86986 566.16876 174.11986Q565.7625 175.35423 564.9344 176.04173Q564.10626 176.71361 562.85626 176.71361Q561.2 176.71361 560.2469 175.51048Q559.1219 174.08861 559.1219 170.85423ZM560.5594 170.85423Q560.5594 173.68236 561.21564 174.61986Q561.8875 175.54173 562.85626 175.54173Q563.825 175.54173 564.48126 174.60423Q565.1375 173.66673 565.1375 170.85423Q565.1375 168.02611 564.48126 167.10423Q563.825 166.16673 562.84064 166.16673Q561.8719 166.16673 561.29376 166.99486Q560.5594 168.04173 560.5594 170.85423ZM568.3875 167.80736Q568.3875 166.57298 568.9969 165.71361Q569.6219 164.85423 570.79376 164.85423Q571.8719 164.85423 572.575 165.63548Q573.27814 166.40111 573.27814 167.88548Q573.27814 169.33861 572.5594 170.13548Q571.85626 170.91673 570.8094 170.91673Q569.7625 170.91673 569.075 170.15111Q568.3875 169.36986 568.3875 167.80736ZM570.825 165.82298Q570.3094 165.82298 569.95 166.27611Q569.60626 166.72923 569.60626 167.94798Q569.60626 169.04173 569.95 169.49486Q570.3094 169.94798 570.825 169.94798Q571.35626 169.94798 571.7 169.49486Q572.0594 169.04173 572.0594 167.83861Q572.0594 166.72923 571.7 166.27611Q571.35626 165.82298 570.825 165.82298ZM570.84064 176.93236L577.10626 164.85423L578.2469 164.85423L571.9969 176.93236L570.84064 176.93236ZM575.79376 173.82298Q575.79376 172.58861 576.40314 171.72923Q577.02814 170.86986 578.2 170.86986Q579.27814 170.86986 579.98126 171.65111Q580.7 172.41673 580.7 173.90111Q580.7 175.35423 579.98126 176.15111Q579.2625 176.93236 578.21564 176.93236Q577.16876 176.93236 576.48126 176.15111Q575.79376 175.36986 575.79376 173.82298ZM578.2469 171.83861Q577.71564 171.83861 577.35626 172.29173Q577.0125 172.74486 577.0125 173.96361Q577.0125 175.05736 577.35626 175.51048Q577.71564 175.96361 578.23126 175.96361Q578.77814 175.96361 579.1219 175.51048Q579.46564 175.05736 579.46564 173.85423Q579.46564 172.74486 579.10626 172.29173Q578.7625 171.83861 578.2469 171.83861Z" fill-rule="nonzero"/><path stroke="#757575" stroke-width="1.0" stroke-linecap="butt" d="M581.45 160.01048L454.76666 160.01048L434.41122 160.01048" fill-rule="nonzero"/><path fill="#9e9e9e" d="M436.41122 160.01048C436.41122 158.90591 435.5158 158.01048 434.41122 158.01048C433.30667 158.01048 432.41122 158.90591 432.41122 160.01048C432.41122 161.11505 433.30667 162.01048 434.41122 162.01048C435.5158 162.01048 436.41122 161.11505 436.41122 160.01048" fill-rule="nonzero"/><path fill="#f3f3f3" d="M265.98438 37.55L265.98438 23.2375L268.84375 23.2375L272.21875 33.3625Q272.6875 34.784374 272.90625 35.4875Q273.15625 34.70625 273.67188 33.190624L277.09375 23.2375L279.64062 23.2375L279.64062 37.55L277.82812 37.55L277.82812 25.565624L273.65625 37.55L271.95312 37.55L267.8125 25.3625L267.8125 37.55L265.98438 37.55ZM289.92188 34.20625L291.73438 34.440624Q291.3125 36.01875 290.14062 36.909374Q288.98438 37.784374 287.17188 37.784374Q284.90625 37.784374 283.5625 36.39375Q282.23438 34.9875 282.23438 32.45625Q282.23438 29.83125 283.57812 28.39375Q284.92188 26.940624 287.07812 26.940624Q289.15625 26.940624 290.46875 28.3625Q291.79688 29.76875 291.79688 32.346874Q291.79688 32.503124 291.78125 32.815624L284.04688 32.815624Q284.14062 34.51875 285.01562 35.425Q285.89062 36.33125 287.1875 36.33125Q288.15625 36.33125 288.82812 35.83125Q289.51562 35.315624 289.92188 34.20625ZM284.14062 31.3625L289.9375 31.3625Q289.82812 30.065624 289.28125 29.409374Q288.4375 28.39375 287.09375 28.39375Q285.89062 28.39375 285.0625 29.20625Q284.23438 30.003124 284.14062 31.3625ZM300.54688 37.55L300.54688 36.2375Q299.5625 37.784374 297.64062 37.784374Q296.40625 37.784374 295.35938 37.096874Q294.32812 36.409374 293.75 35.190624Q293.1875 33.971874 293.1875 32.378124Q293.1875 30.815624 293.70312 29.55Q294.21875 28.284374 295.25 27.6125Q296.29688 26.940624 297.5625 26.940624Q298.5 26.940624 299.23438 27.346874Q299.96875 27.7375 300.4375 28.3625L300.4375 23.2375L302.17188 23.2375L302.17188 37.55L300.54688 37.55ZM294.98438 32.378124Q294.98438 34.3625 295.82812 35.346874Q296.67188 36.33125 297.8125 36.33125Q298.96875 36.33125 299.76562 35.39375Q300.57812 34.45625 300.57812 32.51875Q300.57812 30.39375 299.75 29.39375Q298.9375 28.39375 297.73438 28.39375Q296.5625 28.39375 295.76562 29.3625Q294.98438 30.315624 294.98438 32.378124ZM304.82812 25.253124L304.82812 23.2375L306.59375 23.2375L306.59375 25.253124L304.82812 25.253124ZM304.82812 37.55L304.82812 27.175L306.59375 27.175L306.59375 37.55L304.82812 37.55ZM315.60938 37.55L315.60938 36.01875Q314.40625 37.784374 312.32812 37.784374Q311.40625 37.784374 310.60938 37.440624Q309.8125 37.08125 309.42188 36.55Q309.04688 36.01875 308.89062 35.2375Q308.78125 34.721874 308.78125 33.596874L308.78125 27.175L310.53125 27.175L310.53125 32.925Q310.53125 34.3 310.64062 34.784374Q310.8125 35.471874 311.34375 35.878124Q311.89062 36.26875 312.67188 36.26875Q313.46875 36.26875 314.15625 35.8625Q314.85938 35.45625 315.14062 34.76875Q315.4375 34.065624 315.4375 32.7375L315.4375 27.175L317.1875 27.175L317.1875 37.55L315.60938 37.55ZM319.8125 37.55L319.8125 27.175L321.39062 27.175L321.39062 28.628124Q321.875 27.878124 322.6875 27.409374Q323.5 26.940624 324.53125 26.940624Q325.6875 26.940624 326.42188 27.425Q327.15625 27.89375 327.46875 28.753124Q328.70312 26.940624 330.67188 26.940624Q332.21875 26.940624 333.04688 27.8Q333.875 28.659374 333.875 30.425L333.875 37.55L332.125 37.55L332.125 31.01875Q332.125 29.95625 331.95312 29.503124Q331.78125 29.034374 331.32812 28.753124Q330.89062 28.471874 330.28125 28.471874Q329.1875 28.471874 328.45312 29.20625Q327.73438 29.925 327.73438 31.51875L327.73438 37.55L325.98438 37.55L325.98438 30.815624Q325.98438 29.64375 325.54688 29.065624Q325.125 28.471874 324.14062 28.471874Q323.40625 28.471874 322.76562 28.8625Q322.14062 29.253124 321.85938 30.003124Q321.57812 30.753124 321.57812 32.175L321.57812 37.55L319.8125 37.55Z" fill-rule="nonzero"/></svg>