<svg version="1.1" viewBox="0.0 0.0 600.0 371.0" fill="none" stroke="none" stroke-linecap="square" stroke-miterlimit="10" width="600" height="371" xmlns:xlink="http://www.w3.org/1999/xlink" xmlns="http://www.w3.org/2000/svg"><path fill="#ffffff" fill-opacity="0.0" d="M0 0L600.0 0L600.0 371.0L0 371.0L0 0Z" fill-rule="nonzero"/><path fill="#f7d750" d="M300.0 54.916668C373.46283 54.916668 435.92682 108.540245 447.05115 181.15593L373.52557 192.41963C367.9634 156.11179 336.7314 129.3 300.0 129.3Z" fill-rule="nonzero"/><path fill="#f5ee58" d="M447.05115 181.15593C458.17545 253.7716 414.62903 323.63538 344.53525 345.62744L322.26764 274.6554C357.3145 263.65936 379.08774 228.72748 373.52557 192.41963Z" fill-rule="nonzero"/><path fill="#8c4595" d="M260.28418 60.316055C273.21863 56.732944 286.57846 54.916668 300.0 54.916668L300.0 129.3C293.2892 129.3 286.6093 130.20815 280.1421 131.9997Z" fill-rule="nonzero"/><path fill="#78a94e" d="M166.43661 269.1993C146.94151 229.45586 146.1584 183.09494 164.30006 142.71573C182.44173 102.336525 217.62347 72.13399 260.28418 60.316055L280.1421 131.9997C258.81174 137.90866 241.22087 153.00993 232.15004 173.19952C223.0792 193.38913 223.47076 216.5696 233.2183 236.44131Z" fill-rule="nonzero"/><path fill="#b3ca48" d="M344.53525 345.62744C274.4415 367.6195 198.78922 335.15457 166.43661 269.1993L233.2183 236.44131C249.3946 269.41895 287.22073 285.65143 322.26764 274.6554Z" fill-rule="nonzero"/><path fill="#ffffff" d="M356.23938 124.00927L356.23938 125.524895L347.72375 125.524895Q347.70813 124.94677 347.91125 124.431145Q348.23938 123.556145 348.9425 122.712395Q349.66125 121.868645 351.02063 120.75927Q353.11438 119.04052 353.84875 118.04052Q354.59875 117.024895 354.59875 116.13427Q354.59875 115.181145 353.92688 114.54052Q353.255 113.899895 352.17688 113.899895Q351.02063 113.899895 350.33313 114.587395Q349.66125 115.274895 349.64563 116.47802L348.02063 116.306145Q348.1925 114.493645 349.27063 113.54052Q350.36438 112.587395 352.20813 112.587395Q354.05188 112.587395 355.13 113.618645Q356.22375 114.649895 356.22375 116.16552Q356.22375 116.931145 355.89563 117.681145Q355.58313 118.431145 354.84875 119.25927Q354.11438 120.087395 352.41125 121.524895Q350.98938 122.72802 350.58313 123.149895Q350.17688 123.57177 349.92688 124.00927L356.23938 124.00927ZM366.23938 124.00927L366.23938 125.524895L357.72375 125.524895Q357.70813 124.94677 357.91125 124.431145Q358.23938 123.556145 358.9425 122.712395Q359.66125 121.868645 361.02063 120.75927Q363.11438 119.04052 363.84875 118.04052Q364.59875 117.024895 364.59875 116.13427Q364.59875 115.181145 363.92688 114.54052Q363.255 113.899895 362.17688 113.899895Q361.02063 113.899895 360.33313 114.587395Q359.66125 115.274895 359.64563 116.47802L358.02063 116.306145Q358.1925 114.493645 359.27063 113.54052Q360.36438 112.587395 362.20813 112.587395Q364.05188 112.587395 365.13 113.618645Q366.22375 114.649895 366.22375 116.16552Q366.22375 116.931145 365.89563 117.681145Q365.58313 118.431145 364.84875 119.25927Q364.11438 120.087395 362.41125 121.524895Q360.98938 122.72802 360.58313 123.149895Q360.17688 123.57177 359.92688 124.00927L366.23938 124.00927ZM368.8175 125.524895L368.8175 123.72802L370.61438 123.72802L370.61438 125.524895L368.8175 125.524895ZM381.13 115.79052L379.5675 115.91552Q379.34875 114.993645 378.95813 114.57177Q378.3175 113.88427 377.38 113.88427Q376.63 113.88427 376.05188 114.306145Q375.30188 114.85302 374.86438 115.899895Q374.4425 116.94677 374.42688 118.88427Q375.005 118.00927 375.8175 117.587395Q376.64563 117.16552 377.55188 117.16552Q379.14563 117.16552 380.255 118.337395Q381.36438 119.493645 381.36438 121.337395Q381.36438 122.556145 380.83313 123.60302Q380.3175 124.63427 379.39563 125.19677Q378.48938 125.743645 377.33313 125.743645Q375.34875 125.743645 374.09875 124.29052Q372.84875 122.837395 372.84875 119.493645Q372.84875 115.75927 374.23938 114.056145Q375.4425 112.587395 377.47375 112.587395Q379.005 112.587395 379.97375 113.44677Q380.9425 114.29052 381.13 115.79052ZM374.67688 121.35302Q374.67688 122.16552 375.02063 122.91552Q375.36438 123.66552 375.98938 124.056145Q376.61438 124.44677 377.30188 124.44677Q378.30188 124.44677 379.02063 123.63427Q379.73938 122.82177 379.73938 121.431145Q379.73938 120.10302 379.02063 119.337395Q378.3175 118.556145 377.23938 118.556145Q376.16125 118.556145 375.41125 119.337395Q374.67688 120.10302 374.67688 121.35302ZM383.22375 115.72802Q383.22375 114.35302 383.91125 113.38427Q384.61438 112.41552 385.92688 112.41552Q387.14563 112.41552 387.9425 113.29052Q388.73938 114.149895 388.73938 115.837395Q388.73938 117.462395 387.92688 118.35302Q387.13 119.22802 385.9425 119.22802Q384.78625 119.22802 384.005 118.368645Q383.22375 117.493645 383.22375 115.72802ZM385.97375 113.50927Q385.38 113.50927 384.98938 114.024895Q384.59875 114.524895 384.59875 115.88427Q384.59875 117.13427 384.98938 117.63427Q385.39563 118.13427 385.97375 118.13427Q386.5675 118.13427 386.95813 117.63427Q387.34875 117.118645 387.34875 115.774895Q387.34875 114.524895 386.95813 114.024895Q386.5675 113.50927 385.97375 113.50927ZM385.98938 125.993645L393.03625 112.41552L394.3175 112.41552L387.28625 125.993645L385.98938 125.993645ZM391.55188 122.493645Q391.55188 121.118645 392.23938 120.149895Q392.9425 119.181145 394.27063 119.181145Q395.48938 119.181145 396.27063 120.056145Q397.0675 120.91552 397.0675 122.60302Q397.0675 124.22802 396.27063 125.118645Q395.47375 125.993645 394.28625 125.993645Q393.11438 125.993645 392.33313 125.118645Q391.55188 124.243645 391.55188 122.493645ZM394.3175 120.274895Q393.72375 120.274895 393.33313 120.79052Q392.9425 121.29052 392.9425 122.66552Q392.9425 123.88427 393.33313 124.399895Q393.72375 124.91552 394.30188 124.91552Q394.91125 124.91552 395.30188 124.399895Q395.6925 123.88427 395.6925 122.54052Q395.6925 121.29052 395.30188 120.79052Q394.91125 120.274895 394.3175 120.274895Z" fill-rule="nonzero"/><path fill="#ffffff" d="M378.24997 267.68686L378.24997 269.20248L369.73434 269.20248Q369.71872 268.62436 369.92184 268.10873Q370.24997 267.23373 370.9531 266.38998Q371.67184 265.54623 373.03122 264.43686Q375.12497 262.7181 375.85934 261.7181Q376.60934 260.70248 376.60934 259.81186Q376.60934 258.85873 375.93747 258.2181Q375.2656 257.57748 374.18747 257.57748Q373.03122 257.57748 372.34372 258.26498Q371.67184 258.95248 371.65622 260.1556L370.03122 259.98373Q370.2031 258.17123 371.28122 257.2181Q372.37497 256.26498 374.21872 256.26498Q376.06247 256.26498 377.1406 257.29623Q378.23434 258.32748 378.23434 259.8431Q378.23434 260.60873 377.90622 261.35873Q377.59372 262.10873 376.85934 262.93686Q376.12497 263.76498 374.42184 265.20248Q372.99997 266.4056 372.59372 266.82748Q372.18747 267.24936 371.93747 267.68686L378.24997 267.68686ZM388.24997 267.68686L388.24997 269.20248L379.73434 269.20248Q379.71872 268.62436 379.92184 268.10873Q380.24997 267.23373 380.9531 266.38998Q381.67184 265.54623 383.03122 264.43686Q385.12497 262.7181 385.85934 261.7181Q386.60934 260.70248 386.60934 259.81186Q386.60934 258.85873 385.93747 258.2181Q385.2656 257.57748 384.18747 257.57748Q383.03122 257.57748 382.34372 258.26498Q381.67184 258.95248 381.65622 260.1556L380.03122 259.98373Q380.2031 258.17123 381.28122 257.2181Q382.37497 256.26498 384.21872 256.26498Q386.06247 256.26498 387.1406 257.29623Q388.23434 258.32748 388.23434 259.8431Q388.23434 260.60873 387.90622 261.35873Q387.59372 262.10873 386.85934 262.93686Q386.12497 263.76498 384.42184 265.20248Q382.99997 266.4056 382.59372 266.82748Q382.18747 267.24936 381.93747 267.68686L388.24997 267.68686ZM390.8281 269.20248L390.8281 267.4056L392.62497 267.4056L392.62497 269.20248L390.8281 269.20248ZM403.1406 259.4681L401.5781 259.5931Q401.35934 258.67123 400.96872 258.24936Q400.3281 257.56186 399.3906 257.56186Q398.6406 257.56186 398.06247 257.98373Q397.31247 258.5306 396.87497 259.57748Q396.4531 260.62436 396.43747 262.56186Q397.0156 261.68686 397.8281 261.26498Q398.65622 260.8431 399.56247 260.8431Q401.15622 260.8431 402.2656 262.01498Q403.37497 263.17123 403.37497 265.01498Q403.37497 266.23373 402.84372 267.2806Q402.3281 268.31186 401.40622 268.87436Q400.49997 269.42123 399.34372 269.42123Q397.35934 269.42123 396.10934 267.9681Q394.85934 266.51498 394.85934 263.17123Q394.85934 259.43686 396.24997 257.73373Q397.4531 256.26498 399.48434 256.26498Q401.0156 256.26498 401.98434 257.12436Q402.9531 257.9681 403.1406 259.4681ZM396.68747 265.0306Q396.68747 265.8431 397.03122 266.5931Q397.37497 267.3431 397.99997 267.73373Q398.62497 268.12436 399.31247 268.12436Q400.31247 268.12436 401.03122 267.31186Q401.74997 266.49936 401.74997 265.10873Q401.74997 263.7806 401.03122 263.01498Q400.3281 262.23373 399.24997 262.23373Q398.17184 262.23373 397.42184 263.01498Q396.68747 263.7806 396.68747 265.0306ZM405.23434 259.4056Q405.23434 258.0306 405.92184 257.06186Q406.62497 256.0931 407.93747 256.0931Q409.15622 256.0931 409.9531 256.9681Q410.74997 257.82748 410.74997 259.51498Q410.74997 261.13998 409.93747 262.0306Q409.1406 262.9056 407.9531 262.9056Q406.79684 262.9056 406.0156 262.04623Q405.23434 261.17123 405.23434 259.4056ZM407.98434 257.18686Q407.3906 257.18686 406.99997 257.70248Q406.60934 258.20248 406.60934 259.56186Q406.60934 260.81186 406.99997 261.31186Q407.40622 261.81186 407.98434 261.81186Q408.5781 261.81186 408.96872 261.31186Q409.35934 260.79623 409.35934 259.45248Q409.35934 258.20248 408.96872 257.70248Q408.5781 257.18686 407.98434 257.18686ZM407.99997 269.67123L415.04684 256.0931L416.3281 256.0931L409.29684 269.67123L407.99997 269.67123ZM413.56247 266.17123Q413.56247 264.79623 414.24997 263.82748Q414.9531 262.85873 416.28122 262.85873Q417.49997 262.85873 418.28122 263.73373Q419.0781 264.5931 419.0781 266.2806Q419.0781 267.9056 418.28122 268.79623Q417.48434 269.67123 416.29684 269.67123Q415.12497 269.67123 414.34372 268.79623Q413.56247 267.92123 413.56247 266.17123ZM416.3281 263.95248Q415.73434 263.95248 415.34372 264.4681Q414.9531 264.9681 414.9531 266.3431Q414.9531 267.56186 415.34372 268.07748Q415.73434 268.5931 416.31247 268.5931Q416.92184 268.5931 417.31247 268.07748Q417.7031 267.56186 417.7031 266.2181Q417.7031 264.9681 417.31247 264.4681Q416.92184 263.95248 416.3281 263.95248Z" fill-rule="nonzero"/><path fill="#ffffff" d="M239.56224 311.20044L239.56224 312.71606L231.04662 312.71606Q231.03099 312.13794 231.23412 311.6223Q231.56224 310.7473 232.26537 309.90356Q232.98412 309.0598 234.34349 307.95044Q236.43724 306.2317 237.17162 305.2317Q237.92162 304.21606 237.92162 303.32544Q237.92162 302.3723 237.24974 301.7317Q236.57787 301.09106 235.49974 301.09106Q234.34349 301.09106 233.65599 301.77856Q232.98412 302.46606 232.96849 303.6692L231.34349 303.4973Q231.51537 301.6848 232.59349 300.7317Q233.68724 299.77856 235.53099 299.77856Q237.37474 299.77856 238.45287 300.8098Q239.54662 301.84106 239.54662 303.3567Q239.54662 304.1223 239.21849 304.8723Q238.90599 305.6223 238.17162 306.45044Q237.43724 307.27856 235.73412 308.71606Q234.31224 309.9192 233.90599 310.34106Q233.49974 310.76294 233.24974 311.20044L239.56224 311.20044ZM249.56224 311.20044L249.56224 312.71606L241.04662 312.71606Q241.03099 312.13794 241.23412 311.6223Q241.56224 310.7473 242.26537 309.90356Q242.98412 309.0598 244.34349 307.95044Q246.43724 306.2317 247.17162 305.2317Q247.92162 304.21606 247.92162 303.32544Q247.92162 302.3723 247.24974 301.7317Q246.57787 301.09106 245.49974 301.09106Q244.34349 301.09106 243.65599 301.77856Q242.98412 302.46606 242.96849 303.6692L241.34349 303.4973Q241.51537 301.6848 242.59349 300.7317Q243.68724 299.77856 245.53099 299.77856Q247.37474 299.77856 248.45287 300.8098Q249.54662 301.84106 249.54662 303.3567Q249.54662 304.1223 249.21849 304.8723Q248.90599 305.6223 248.17162 306.45044Q247.43724 307.27856 245.73412 308.71606Q244.31224 309.9192 243.90599 310.34106Q243.49974 310.76294 243.24974 311.20044L249.56224 311.20044ZM252.14037 312.71606L252.14037 310.9192L253.93724 310.9192L253.93724 312.71606L252.14037 312.71606ZM264.45288 302.9817L262.89038 303.1067Q262.67163 302.1848 262.281 301.76294Q261.64038 301.07544 260.70288 301.07544Q259.95288 301.07544 259.37476 301.4973Q258.62476 302.0442 258.18726 303.09106Q257.76538 304.13794 257.74976 306.07544Q258.32788 305.20044 259.14038 304.77856Q259.9685 304.3567 260.87476 304.3567Q262.4685 304.3567 263.57788 305.52856Q264.68726 306.6848 264.68726 308.52856Q264.68726 309.7473 264.156 310.7942Q263.64038 311.82544 262.7185 312.38794Q261.81226 312.9348 260.656 312.9348Q258.67163 312.9348 257.42163 311.4817Q256.17163 310.02856 256.17163 306.6848Q256.17163 302.95044 257.56226 301.2473Q258.76538 299.77856 260.79663 299.77856Q262.32788 299.77856 263.29663 300.63794Q264.26538 301.4817 264.45288 302.9817ZM257.99976 308.5442Q257.99976 309.3567 258.3435 310.1067Q258.68726 310.8567 259.31226 311.2473Q259.93726 311.63794 260.62476 311.63794Q261.62476 311.63794 262.3435 310.82544Q263.06226 310.01294 263.06226 308.6223Q263.06226 307.2942 262.3435 306.52856Q261.64038 305.7473 260.56226 305.7473Q259.48413 305.7473 258.73413 306.52856Q257.99976 307.2942 257.99976 308.5442ZM266.54663 302.9192Q266.54663 301.5442 267.23413 300.57544Q267.93726 299.6067 269.24976 299.6067Q270.4685 299.6067 271.26538 300.4817Q272.06226 301.34106 272.06226 303.02856Q272.06226 304.65356 271.24976 305.5442Q270.45288 306.4192 269.26538 306.4192Q268.10913 306.4192 267.32788 305.5598Q266.54663 304.6848 266.54663 302.9192ZM269.29663 300.70044Q268.70288 300.70044 268.31226 301.21606Q267.92163 301.71606 267.92163 303.07544Q267.92163 304.32544 268.31226 304.82544Q268.7185 305.32544 269.29663 305.32544Q269.89038 305.32544 270.281 304.82544Q270.67163 304.3098 270.67163 302.96606Q270.67163 301.71606 270.281 301.21606Q269.89038 300.70044 269.29663 300.70044ZM269.31226 313.1848L276.35913 299.6067L277.64038 299.6067L270.60913 313.1848L269.31226 313.1848ZM274.87476 309.6848Q274.87476 308.3098 275.56226 307.34106Q276.26538 306.3723 277.5935 306.3723Q278.81226 306.3723 279.5935 307.2473Q280.39038 308.1067 280.39038 309.7942Q280.39038 311.4192 279.5935 312.3098Q278.79663 313.1848 277.60913 313.1848Q276.43726 313.1848 275.656 312.3098Q274.87476 311.4348 274.87476 309.6848ZM277.64038 307.46606Q277.04663 307.46606 276.656 307.9817Q276.26538 308.4817 276.26538 309.8567Q276.26538 311.07544 276.656 311.59106Q277.04663 312.1067 277.62476 312.1067Q278.23413 312.1067 278.62476 311.59106Q279.01538 311.07544 279.01538 309.7317Q279.01538 308.4817 278.62476 307.9817Q278.23413 307.46606 277.64038 307.46606Z" fill-rule="nonzero"/><path fill="#ffffff" d="M181.78755 162.942L181.78755 164.45763L173.27193 164.45763Q173.2563 163.8795 173.45943 163.36388Q173.78755 162.48888 174.49068 161.64513Q175.20943 160.80138 176.5688 159.692Q178.66255 157.97325 179.39693 156.97325Q180.14693 155.95763 180.14693 155.067Q180.14693 154.11388 179.47505 153.47325Q178.80318 152.83263 177.72505 152.83263Q176.5688 152.83263 175.8813 153.52013Q175.20943 154.20763 175.1938 155.41075L173.5688 155.23888Q173.74068 153.42638 174.8188 152.47325Q175.91255 151.52013 177.7563 151.52013Q179.60005 151.52013 180.67818 152.55138Q181.77193 153.58263 181.77193 155.09825Q181.77193 155.86388 181.4438 156.61388Q181.1313 157.36388 180.39693 158.192Q179.66255 159.02013 177.95943 160.45763Q176.53755 161.66075 176.1313 162.08263Q175.72505 162.5045 175.47505 162.942L181.78755 162.942ZM185.91255 157.47325Q184.92818 157.11388 184.4438 156.442Q183.97505 155.77013 183.97505 154.84825Q183.97505 153.442 184.97505 152.48888Q185.99068 151.52013 187.67818 151.52013Q189.36568 151.52013 190.3813 152.5045Q191.41255 153.47325 191.41255 154.8795Q191.41255 155.78575 190.9438 156.45763Q190.47505 157.11388 189.52193 157.47325Q190.70943 157.86388 191.3188 158.72325Q191.9438 159.58263 191.9438 160.77013Q191.9438 162.42638 190.77193 163.55138Q189.60005 164.67638 187.6938 164.67638Q185.78755 164.67638 184.61568 163.55138Q183.45943 162.41075 183.45943 160.72325Q183.45943 159.47325 184.08443 158.6295Q184.72505 157.77013 185.91255 157.47325ZM185.58443 154.78575Q185.58443 155.70763 186.17818 156.28575Q186.77193 156.86388 187.70943 156.86388Q188.61568 156.86388 189.1938 156.28575Q189.78755 155.70763 189.78755 154.8795Q189.78755 154.0045 189.17818 153.41075Q188.58443 152.817 187.6938 152.817Q186.78755 152.817 186.17818 153.39513Q185.58443 153.97325 185.58443 154.78575ZM185.08443 160.73888Q185.08443 161.41075 185.39693 162.05138Q185.72505 162.67638 186.35005 163.03575Q186.99068 163.3795 187.72505 163.3795Q188.85005 163.3795 189.58443 162.64513Q190.33443 161.91075 190.33443 160.78575Q190.33443 159.64513 189.5688 158.91075Q188.80318 158.16075 187.66255 158.16075Q186.55318 158.16075 185.8188 158.89513Q185.08443 159.6295 185.08443 160.73888ZM194.36568 164.45763L194.36568 162.66075L196.16255 162.66075L196.16255 164.45763L194.36568 164.45763ZM198.47505 158.09825Q198.47505 155.817 198.9438 154.42638Q199.41255 153.03575 200.33443 152.28575Q201.27193 151.52013 202.67818 151.52013Q203.70943 151.52013 204.49068 151.942Q205.27193 152.34825 205.77193 153.14513Q206.28755 153.92638 206.58443 155.067Q206.8813 156.192 206.8813 158.09825Q206.8813 160.36388 206.41255 161.77013Q205.9438 163.16075 205.0063 163.92638Q204.08443 164.67638 202.67818 164.67638Q200.80318 164.67638 199.74068 163.34825Q198.47505 161.73888 198.47505 158.09825ZM200.10005 158.09825Q200.10005 161.27013 200.83443 162.33263Q201.58443 163.3795 202.67818 163.3795Q203.7563 163.3795 204.5063 162.33263Q205.2563 161.27013 205.2563 158.09825Q205.2563 154.92638 204.5063 153.8795Q203.7563 152.83263 202.66255 152.83263Q201.5688 152.83263 200.91255 153.7545Q200.10005 154.92638 200.10005 158.09825ZM208.77193 154.66075Q208.77193 153.28575 209.45943 152.317Q210.16255 151.34825 211.47505 151.34825Q212.6938 151.34825 213.49068 152.22325Q214.28755 153.08263 214.28755 154.77013Q214.28755 156.39513 213.47505 157.28575Q212.67818 158.16075 211.49068 158.16075Q210.33443 158.16075 209.55318 157.30138Q208.77193 156.42638 208.77193 154.66075ZM211.52193 152.442Q210.92818 152.442 210.53755 152.95763Q210.14693 153.45763 210.14693 154.817Q210.14693 156.067 210.53755 156.567Q210.9438 157.067 211.52193 157.067Q212.11568 157.067 212.5063 156.567Q212.89693 156.05138 212.89693 154.70763Q212.89693 153.45763 212.5063 152.95763Q212.11568 152.442 211.52193 152.442ZM211.53755 164.92638L218.58443 151.34825L219.86568 151.34825L212.83443 164.92638L211.53755 164.92638ZM217.10005 161.42638Q217.10005 160.05138 217.78755 159.08263Q218.49068 158.11388 219.8188 158.11388Q221.03755 158.11388 221.8188 158.98888Q222.61568 159.84825 222.61568 161.53575Q222.61568 163.16075 221.8188 164.05138Q221.02193 164.92638 219.83443 164.92638Q218.66255 164.92638 217.8813 164.05138Q217.10005 163.17638 217.10005 161.42638ZM219.86568 159.20763Q219.27193 159.20763 218.8813 159.72325Q218.49068 160.22325 218.49068 161.59825Q218.49068 162.817 218.8813 163.33263Q219.27193 163.84825 219.85005 163.84825Q220.45943 163.84825 220.85005 163.33263Q221.24068 162.817 221.24068 161.47325Q221.24068 160.22325 220.85005 159.72325Q220.45943 159.20763 219.86568 159.20763Z" fill-rule="nonzero"/><path stroke="#ffffff" stroke-width="1.0" stroke-linejoin="round" stroke-linecap="round" d="M373.52557 192.41963C367.9634 156.11179 336.7314 129.3 300.0 129.3L300.0 54.916668C373.46283 54.916668 435.92682 108.540245 447.05115 181.15593" fill-rule="nonzero"/><path stroke="#ffffff" stroke-width="1.0" stroke-linejoin="round" stroke-linecap="round" d="M322.26764 274.6554C357.3145 263.65936 379.08774 228.72748 373.52557 192.41963L447.05115 181.15593C458.17545 253.7716 414.62903 323.63538 344.53525 345.62744" fill-rule="nonzero"/><path stroke="#ffffff" stroke-width="1.0" stroke-linejoin="round" stroke-linecap="round" d="M233.2183 236.44131C249.3946 269.41895 287.22073 285.65143 322.26764 274.6554L344.53525 345.62744C274.4415 367.6195 198.78922 335.15457 166.43661 269.1993" fill-rule="nonzero"/><path stroke="#ffffff" stroke-width="1.0" stroke-linejoin="round" stroke-linecap="round" d="M280.1421 131.9997C258.81174 137.90866 241.22087 153.00993 232.15004 173.19952C223.0792 193.38913 223.47076 216.5696 233.2183 236.44131L166.43661 269.1993C146.94151 229.45586 146.1584 183.09494 164.30006 142.71573C182.44173 102.336525 217.62347 72.13399 260.28418 60.316055" fill-rule="nonzero"/><path stroke="#ffffff" stroke-width="1.0" stroke-linejoin="round" stroke-linecap="round" d="M300.0 129.3C293.2892 129.3 286.6093 130.20815 280.1421 131.9997L260.28418 60.316055C273.21863 56.732944 286.57846 54.916668 300.0 54.916668" fill-rule="nonzero"/><path fill="#efefef" d="M19.76875 69.916664L19.76875 58.46354L21.33125 58.46354L27.346874 67.447914L27.346874 58.46354L28.8 58.46354L28.8 69.916664L27.2375 69.916664L21.221874 60.916664L21.221874 69.916664L19.76875 69.916664ZM37.01875 68.885414Q36.2375 69.55729 35.51875 69.83854Q34.8 70.104164 33.971874 70.104164Q32.596874 70.104164 31.8625 69.43229Q31.128124 68.760414 31.128124 67.729164Q31.128124 67.11979 31.409374 66.61979Q31.690624 66.104164 32.128124 65.80729Q32.58125 65.49479 33.14375 65.33854Q33.565624 65.229164 34.39375 65.135414Q36.096874 64.93229 36.909374 64.65104Q36.909374 64.354164 36.909374 64.27604Q36.909374 63.416664 36.51875 63.072914Q35.971874 62.58854 34.909374 62.58854Q33.925 62.58854 33.440624 62.947914Q32.971874 63.291664 32.753124 64.166664L31.378124 63.979164Q31.565624 63.104164 31.9875 62.55729Q32.425 62.010414 33.2375 61.729164Q34.05 61.43229 35.1125 61.43229Q36.175 61.43229 36.83125 61.68229Q37.503124 61.93229 37.815624 62.30729Q38.128124 62.68229 38.253124 63.260414Q38.33125 63.61979 38.33125 64.55729L38.33125 66.43229Q38.33125 68.40104 38.409374 68.916664Q38.503124 69.43229 38.76875 69.916664L37.3 69.916664Q37.08125 69.479164 37.01875 68.885414ZM36.909374 65.74479Q36.14375 66.05729 34.6125 66.27604Q33.7375 66.40104 33.378124 66.55729Q33.01875 66.71354 32.815624 67.02604Q32.628124 67.322914 32.628124 67.68229Q32.628124 68.24479 33.05 68.61979Q33.4875 68.99479 34.3 68.99479Q35.1125 68.99479 35.7375 68.65104Q36.378124 68.291664 36.675 67.666664Q36.909374 67.197914 36.909374 66.260414L36.909374 65.74479ZM43.675 68.65104L43.878124 69.90104Q43.284374 70.02604 42.815624 70.02604Q42.05 70.02604 41.628124 69.791664Q41.20625 69.541664 41.034374 69.15104Q40.8625 68.74479 40.8625 67.479164L40.8625 62.71354L39.83125 62.71354L39.83125 61.61979L40.8625 61.61979L40.8625 59.55729L42.26875 58.71354L42.26875 61.61979L43.675 61.61979L43.675 62.71354L42.26875 62.71354L42.26875 67.55729Q42.26875 68.166664 42.33125 68.33854Q42.409374 68.510414 42.58125 68.61979Q42.753124 68.71354 43.065624 68.71354Q43.3 68.71354 43.675 68.65104ZM50.05 69.916664L50.05 68.697914Q49.08125 70.104164 47.409374 70.104164Q46.675 70.104164 46.034374 69.822914Q45.409374 69.541664 45.096874 69.11979Q44.784374 68.68229 44.659374 68.072914Q44.58125 67.65104 44.58125 66.760414L44.58125 61.61979L45.9875 61.61979L45.9875 66.21354Q45.9875 67.322914 46.065624 67.697914Q46.20625 68.260414 46.628124 68.572914Q47.065624 68.885414 47.690624 68.885414Q48.33125 68.885414 48.878124 68.572914Q49.440624 68.24479 49.659374 67.68229Q49.89375 67.11979 49.89375 66.05729L49.89375 61.61979L51.3 61.61979L51.3 69.916664L50.05 69.916664ZM53.596874 69.916664L53.596874 61.61979L54.8625 61.61979L54.8625 62.86979Q55.346874 61.99479 55.753124 61.71354Q56.159374 61.43229 56.659374 61.43229Q57.3625 61.43229 58.096874 61.885414L57.6125 63.18229Q57.096874 62.885414 56.58125 62.885414Q56.128124 62.885414 55.753124 63.166664Q55.39375 63.43229 55.2375 63.93229Q55.003124 64.68229 55.003124 65.572914L55.003124 69.916664L53.596874 69.916664ZM64.01875 68.885414Q63.2375 69.55729 62.51875 69.83854Q61.8 70.104164 60.971874 70.104164Q59.596874 70.104164 58.8625 69.43229Q58.128124 68.760414 58.128124 67.729164Q58.128124 67.11979 58.409374 66.61979Q58.690624 66.104164 59.128124 65.80729Q59.58125 65.49479 60.14375 65.33854Q60.565624 65.229164 61.39375 65.135414Q63.096874 64.93229 63.909374 64.65104Q63.909374 64.354164 63.909374 64.27604Q63.909374 63.416664 63.51875 63.072914Q62.971874 62.58854 61.909374 62.58854Q60.925 62.58854 60.440624 62.947914Q59.971874 63.291664 59.753124 64.166664L58.378124 63.979164Q58.565624 63.104164 58.9875 62.55729Q59.425 62.010414 60.2375 61.729164Q61.05 61.43229 62.1125 61.43229Q63.175 61.43229 63.83125 61.68229Q64.50313 61.93229 64.81563 62.30729Q65.12813 62.68229 65.25313 63.260414Q65.33125 63.61979 65.33125 64.55729L65.33125 66.43229Q65.33125 68.40104 65.40938 68.916664Q65.50313 69.43229 65.76875 69.916664L64.3 69.916664Q64.08125 69.479164 64.01875 68.885414ZM63.909374 65.74479Q63.14375 66.05729 61.6125 66.27604Q60.7375 66.40104 60.378124 66.55729Q60.01875 66.71354 59.815624 67.02604Q59.628124 67.322914 59.628124 67.68229Q59.628124 68.24479 60.05 68.61979Q60.4875 68.99479 61.3 68.99479Q62.1125 68.99479 62.7375 68.65104Q63.378124 68.291664 63.675 67.666664Q63.909374 67.197914 63.909374 66.260414L63.909374 65.74479ZM67.58125 69.916664L67.58125 58.46354L68.9875 58.46354L68.9875 69.916664L67.58125 69.916664Z" fill-rule="nonzero"/><path fill="#9e9e9e" d="M23.721874 91.916664L23.721874 89.166664L18.753124 89.166664L18.753124 87.885414L23.9875 80.46354L25.128124 80.46354L25.128124 87.885414L26.675 87.885414L26.675 89.166664L25.128124 89.166664L25.128124 91.916664L23.721874 91.916664ZM23.721874 87.885414L23.721874 82.71354L20.14375 87.885414L23.721874 87.885414ZM29.003124 91.916664L29.003124 90.30729L30.6125 90.30729L30.6125 91.916664L29.003124 91.916664ZM32.221874 88.885414L33.628124 88.697914Q33.878124 89.90104 34.45625 90.43229Q35.034374 90.947914 35.878124 90.947914Q36.8625 90.947914 37.55 90.260414Q38.2375 89.572914 38.2375 88.55729Q38.2375 87.58854 37.596874 86.96354Q36.971874 86.33854 35.9875 86.33854Q35.596874 86.33854 35.003124 86.49479L35.159374 85.260414Q35.3 85.27604 35.378124 85.27604Q36.284374 85.27604 37.003124 84.80729Q37.721874 84.33854 37.721874 83.354164Q37.721874 82.58854 37.190624 82.08854Q36.675 81.572914 35.846874 81.572914Q35.01875 81.572914 34.471874 82.08854Q33.925 82.604164 33.76875 83.635414L32.3625 83.385414Q32.628124 81.96354 33.534374 81.197914Q34.45625 80.416664 35.815624 80.416664Q36.753124 80.416664 37.534374 80.822914Q38.33125 81.21354 38.7375 81.916664Q39.159374 82.604164 39.159374 83.385414Q39.159374 84.135414 38.753124 84.74479Q38.3625 85.354164 37.58125 85.71354Q38.596874 85.947914 39.159374 86.68229Q39.721874 87.416664 39.721874 88.52604Q39.721874 90.02604 38.628124 91.072914Q37.534374 92.11979 35.8625 92.11979Q34.3625 92.11979 33.3625 91.229164Q32.3625 90.322914 32.221874 88.885414ZM41.4875 83.21354Q41.4875 81.979164 42.096874 81.11979Q42.721874 80.260414 43.89375 80.260414Q44.971874 80.260414 45.675 81.041664Q46.378124 81.80729 46.378124 83.291664Q46.378124 84.74479 45.659374 85.541664Q44.95625 86.322914 43.909374 86.322914Q42.8625 86.322914 42.175 85.55729Q41.4875 84.77604 41.4875 83.21354ZM43.925 81.229164Q43.409374 81.229164 43.05 81.68229Q42.70625 82.135414 42.70625 83.354164Q42.70625 84.447914 43.05 84.90104Q43.409374 85.354164 43.925 85.354164Q44.45625 85.354164 44.8 84.90104Q45.159374 84.447914 45.159374 83.24479Q45.159374 82.135414 44.8 81.68229Q44.45625 81.229164 43.925 81.229164ZM43.940624 92.33854L50.20625 80.260414L51.346874 80.260414L45.096874 92.33854L43.940624 92.33854ZM48.89375 89.229164Q48.89375 87.99479 49.503124 87.135414Q50.128124 86.27604 51.3 86.27604Q52.378124 86.27604 53.08125 87.05729Q53.8 87.822914 53.8 89.30729Q53.8 90.760414 53.08125 91.55729Q52.3625 92.33854 51.315624 92.33854Q50.26875 92.33854 49.58125 91.55729Q48.89375 90.77604 48.89375 89.229164ZM51.346874 87.24479Q50.815624 87.24479 50.45625 87.697914Q50.1125 88.15104 50.1125 89.36979Q50.1125 90.46354 50.45625 90.916664Q50.815624 91.36979 51.33125 91.36979Q51.878124 91.36979 52.221874 90.916664Q52.565624 90.46354 52.565624 89.260414Q52.565624 88.15104 52.20625 87.697914Q51.8625 87.24479 51.346874 87.24479Z" fill-rule="nonzero"/><path stroke="#757575" stroke-width="1.0" stroke-linecap="butt" d="M18.55 75.416664L145.23334 75.416664L280.96146 63.643227" fill-rule="nonzero"/><path fill="#9e9e9e" d="M282.96146 63.643227C282.96146 62.53866 282.066 61.643227 280.96146 61.643227C279.85687 61.643227 278.96146 62.53866 278.96146 63.643227C278.96146 64.747795 279.85687 65.64323 280.96146 65.64323C282.066 65.64323 282.96146 64.747795 282.96146 63.643227" fill-rule="nonzero"/><path fill="#efefef" d="M18.51875 140.26411L22.925 128.81099L24.565624 128.81099L29.253124 140.26411L27.51875 140.26411L26.190624 136.79536L21.39375 136.79536L20.14375 140.26411L18.51875 140.26411ZM21.83125 135.56099L25.721874 135.56099L24.51875 132.38911Q23.971874 130.93599 23.70625 130.01411Q23.4875 131.10786 23.096874 132.20161L21.83125 135.56099ZM30.596874 140.26411L30.596874 131.96724L31.8625 131.96724L31.8625 133.21724Q32.346874 132.34224 32.753124 132.06099Q33.159374 131.77974 33.659374 131.77974Q34.3625 131.77974 35.096874 132.23286L34.6125 133.52974Q34.096874 133.23286 33.58125 133.23286Q33.128124 133.23286 32.753124 133.51411Q32.39375 133.77974 32.2375 134.27974Q32.003124 135.02974 32.003124 135.92036L32.003124 140.26411L30.596874 140.26411ZM41.01875 137.21724L42.409374 137.40474Q42.175 138.82661 41.2375 139.63911Q40.315624 140.45161 38.95625 140.45161Q37.253124 140.45161 36.20625 139.34224Q35.175 138.21724 35.175 136.13911Q35.175 134.79536 35.6125 133.79536Q36.065624 132.77974 36.971874 132.27974Q37.89375 131.77974 38.95625 131.77974Q40.315624 131.77974 41.175 132.46724Q42.034374 133.13911 42.26875 134.40474L40.909374 134.60786Q40.70625 133.77974 40.20625 133.35786Q39.721874 132.93599 39.01875 132.93599Q37.95625 132.93599 37.284374 133.70161Q36.628124 134.45161 36.628124 136.10786Q36.628124 137.77974 37.26875 138.54536Q37.909374 139.29536 38.940624 139.29536Q39.76875 139.29536 40.315624 138.79536Q40.878124 138.27974 41.01875 137.21724ZM43.6125 140.26411L43.6125 128.81099L45.01875 128.81099L45.01875 132.92036Q46.003124 131.77974 47.503124 131.77974Q48.425 131.77974 49.096874 132.13911Q49.784374 132.49849 50.065624 133.13911Q50.3625 133.77974 50.3625 134.99849L50.3625 140.26411L48.95625 140.26411L48.95625 134.99849Q48.95625 133.95161 48.503124 133.46724Q48.05 132.98286 47.20625 132.98286Q46.58125 132.98286 46.034374 133.31099Q45.4875 133.63911 45.253124 134.20161Q45.01875 134.74849 45.01875 135.71724L45.01875 140.26411L43.6125 140.26411ZM52.6125 130.42036L52.6125 128.81099L54.01875 128.81099L54.01875 130.42036L52.6125 130.42036ZM52.6125 140.26411L52.6125 131.96724L54.01875 131.96724L54.01875 140.26411L52.6125 140.26411ZM59.675 138.99849L59.878124 140.24849Q59.284374 140.37349 58.815624 140.37349Q58.05 140.37349 57.628124 140.13911Q57.20625 139.88911 57.034374 139.49849Q56.8625 139.09224 56.8625 137.82661L56.8625 133.06099L55.83125 133.06099L55.83125 131.96724L56.8625 131.96724L56.8625 129.90474L58.26875 129.06099L58.26875 131.96724L59.675 131.96724L59.675 133.06099L58.26875 133.06099L58.26875 137.90474Q58.26875 138.51411 58.33125 138.68599Q58.409374 138.85786 58.58125 138.96724Q58.753124 139.06099 59.065624 139.06099Q59.3 139.06099 59.675 138.99849ZM66.28438 137.59224L67.7375 137.76411Q67.39375 139.04536 66.45625 139.74849Q65.53438 140.45161 64.09688 140.45161Q62.26875 140.45161 61.20625 139.32661Q60.14375 138.20161 60.14375 136.18599Q60.14375 134.09224 61.221874 132.93599Q62.3 131.77974 64.01875 131.77974Q65.675 131.77974 66.72188 132.92036Q67.78438 134.04536 67.78438 136.09224Q67.78438 136.21724 67.78438 136.46724L61.596874 136.46724Q61.675 137.84224 62.3625 138.57661Q63.065624 139.29536 64.09688 139.29536Q64.87813 139.29536 65.425 138.88911Q65.97188 138.48286 66.28438 137.59224ZM61.675 135.31099L66.3 135.31099Q66.20625 134.26411 65.76875 133.74849Q65.09688 132.93599 64.03438 132.93599Q63.065624 132.93599 62.39375 133.59224Q61.7375 134.23286 61.675 135.31099ZM75.01875 137.21724L76.40938 137.40474Q76.175 138.82661 75.2375 139.63911Q74.31563 140.45161 72.95625 140.45161Q71.25313 140.45161 70.20625 139.34224Q69.175 138.21724 69.175 136.13911Q69.175 134.79536 69.6125 133.79536Q70.06563 132.77974 70.97188 132.27974Q71.89375 131.77974 72.95625 131.77974Q74.31563 131.77974 75.175 132.46724Q76.03438 133.13911 76.26875 134.40474L74.90938 134.60786Q74.70625 133.77974 74.20625 133.35786Q73.72188 132.93599 73.01875 132.93599Q71.95625 132.93599 71.28438 133.70161Q70.62813 134.45161 70.62813 136.10786Q70.62813 137.77974 71.26875 138.54536Q71.90938 139.29536 72.94063 139.29536Q73.76875 139.29536 74.31563 138.79536Q74.87813 138.27974 75.01875 137.21724ZM80.675 138.99849L80.87813 140.24849Q80.28438 140.37349 79.81563 140.37349Q79.05 140.37349 78.62813 140.13911Q78.20625 139.88911 78.03438 139.49849Q77.8625 139.09224 77.8625 137.82661L77.8625 133.06099L76.83125 133.06099L76.83125 131.96724L77.8625 131.96724L77.8625 129.90474L79.26875 129.06099L79.26875 131.96724L80.675 131.96724L80.675 133.06099L79.26875 133.06099L79.26875 137.90474Q79.26875 138.51411 79.33125 138.68599Q79.40938 138.85786 79.58125 138.96724Q79.75313 139.06099 80.06563 139.06099Q80.3 139.06099 80.675 138.99849ZM87.05 140.26411L87.05 139.04536Q86.08125 140.45161 84.40938 140.45161Q83.675 140.45161 83.03438 140.17036Q82.40938 139.88911 82.09688 139.46724Q81.78438 139.02974 81.65938 138.42036Q81.58125 137.99849 81.58125 137.10786L81.58125 131.96724L82.9875 131.96724L82.9875 136.56099Q82.9875 137.67036 83.06563 138.04536Q83.20625 138.60786 83.62813 138.92036Q84.06563 139.23286 84.69063 139.23286Q85.33125 139.23286 85.87813 138.92036Q86.44063 138.59224 86.65938 138.02974Q86.89375 137.46724 86.89375 136.40474L86.89375 131.96724L88.3 131.96724L88.3 140.26411L87.05 140.26411ZM90.59688 140.26411L90.59688 131.96724L91.8625 131.96724L91.8625 133.21724Q92.34688 132.34224 92.75313 132.06099Q93.15938 131.77974 93.65938 131.77974Q94.3625 131.77974 95.09688 132.23286L94.6125 133.52974Q94.09688 133.23286 93.58125 133.23286Q93.12813 133.23286 92.75313 133.51411Q92.39375 133.77974 92.2375 134.27974Q92.00313 135.02974 92.00313 135.92036L92.00313 140.26411L90.59688 140.26411ZM101.28438 137.59224L102.7375 137.76411Q102.39375 139.04536 101.45625 139.74849Q100.53438 140.45161 99.09688 140.45161Q97.26875 140.45161 96.20625 139.32661Q95.14375 138.20161 95.14375 136.18599Q95.14375 134.09224 96.22188 132.93599Q97.3 131.77974 99.01875 131.77974Q100.675 131.77974 101.72188 132.92036Q102.78438 134.04536 102.78438 136.09224Q102.78438 136.21724 102.78438 136.46724L96.59688 136.46724Q96.675 137.84224 97.3625 138.57661Q98.06563 139.29536 99.09688 139.29536Q99.87813 139.29536 100.425 138.88911Q100.97188 138.48286 101.28438 137.59224ZM96.675 135.31099L101.3 135.31099Q101.20625 134.26411 100.76875 133.74849Q100.09688 132.93599 99.03438 132.93599Q98.06563 132.93599 97.39375 133.59224Q96.7375 134.23286 96.675 135.31099ZM115.15938 138.90474Q114.45625 139.68599 113.62813 140.07661Q112.81563 140.46724 111.8625 140.46724Q110.1125 140.46724 109.08125 139.26411Q108.2375 138.29536 108.2375 137.10786Q108.2375 136.04536 108.925 135.18599Q109.6125 134.32661 110.97188 133.68599Q110.19063 132.79536 109.925 132.24849Q109.675 131.68599 109.675 131.17036Q109.675 130.13911 110.4875 129.37349Q111.3 128.60786 112.51875 128.60786Q113.69063 128.60786 114.44063 129.32661Q115.19063 130.04536 115.19063 131.06099Q115.19063 132.68599 113.01875 133.84224L115.08125 136.46724Q115.425 135.77974 115.62813 134.87349L117.08125 135.18599Q116.70625 136.68599 116.06563 137.65474Q116.8625 138.70161 117.8625 139.40474L116.90938 140.52974Q116.06563 139.98286 115.15938 138.90474ZM112.3 132.93599Q113.20625 132.40474 113.47188 131.99849Q113.75313 131.59224 113.75313 131.09224Q113.75313 130.51411 113.37813 130.13911Q113.00313 129.76411 112.45625 129.76411Q111.87813 129.76411 111.50313 130.13911Q111.12813 130.49849 111.12813 131.02974Q111.12813 131.29536 111.25313 131.59224Q111.39375 131.88911 111.675 132.21724L112.3 132.93599ZM114.26875 137.79536L111.69063 134.60786Q110.55 135.27974 110.14375 135.87349Q109.75313 136.45161 109.75313 137.01411Q109.75313 137.71724 110.3 138.46724Q110.8625 139.21724 111.87813 139.21724Q112.51875 139.21724 113.19063 138.82661Q113.8625 138.42036 114.26875 137.79536Z" fill-rule="nonzero"/><path fill="#9e9e9e" d="M26.6125 160.90474L26.6125 162.26411L19.034374 162.26411Q19.01875 161.74849 19.20625 161.27974Q19.4875 160.51411 20.128124 159.76411Q20.76875 159.01411 21.971874 158.02974Q23.83125 156.49849 24.4875 155.60786Q25.14375 154.70161 25.14375 153.90474Q25.14375 153.07661 24.55 152.49849Q23.95625 151.92036 22.9875 151.92036Q21.971874 151.92036 21.3625 152.52974Q20.753124 153.13911 20.753124 154.21724L19.3 154.07661Q19.45625 152.45161 20.425 151.60786Q21.39375 150.76411 23.01875 150.76411Q24.675 150.76411 25.628124 151.68599Q26.596874 152.59224 26.596874 153.93599Q26.596874 154.62349 26.315624 155.29536Q26.034374 155.95161 25.378124 156.68599Q24.721874 157.42036 23.20625 158.70161Q21.940624 159.76411 21.58125 160.15474Q21.221874 160.52974 20.9875 160.90474L26.6125 160.90474ZM30.378124 156.04536Q29.503124 155.73286 29.08125 155.13911Q28.659374 154.54536 28.659374 153.71724Q28.659374 152.46724 29.55 151.62349Q30.45625 150.76411 31.95625 150.76411Q33.45625 150.76411 34.3625 151.63911Q35.284374 152.49849 35.284374 153.74849Q35.284374 154.54536 34.8625 155.13911Q34.440624 155.73286 33.596874 156.04536Q34.64375 156.38911 35.190624 157.15474Q35.753124 157.92036 35.753124 158.98286Q35.753124 160.45161 34.70625 161.46724Q33.675 162.46724 31.971874 162.46724Q30.284374 162.46724 29.2375 161.46724Q28.20625 160.45161 28.20625 158.95161Q28.20625 157.82661 28.76875 157.07661Q29.33125 156.32661 30.378124 156.04536ZM30.096874 153.67036Q30.096874 154.48286 30.6125 154.99849Q31.14375 155.51411 31.9875 155.51411Q32.8 155.51411 33.315624 154.99849Q33.83125 154.48286 33.83125 153.74849Q33.83125 152.96724 33.3 152.45161Q32.76875 151.92036 31.971874 151.92036Q31.159374 151.92036 30.628124 152.43599Q30.096874 152.95161 30.096874 153.67036ZM29.64375 158.95161Q29.64375 159.56099 29.925 160.12349Q30.221874 160.68599 30.784374 160.99849Q31.346874 161.29536 31.9875 161.29536Q33.003124 161.29536 33.659374 160.65474Q34.315624 159.99849 34.315624 158.99849Q34.315624 157.98286 33.628124 157.32661Q32.95625 156.65474 31.940624 156.65474Q30.95625 156.65474 30.3 157.31099Q29.64375 157.96724 29.64375 158.95161ZM38.003124 162.26411L38.003124 160.65474L39.6125 160.65474L39.6125 162.26411L38.003124 162.26411ZM41.221874 156.60786Q41.221874 154.57661 41.628124 153.34224Q42.05 152.10786 42.878124 151.43599Q43.70625 150.76411 44.95625 150.76411Q45.878124 150.76411 46.565624 151.13911Q47.26875 151.49849 47.721874 152.20161Q48.175 152.90474 48.425 153.90474Q48.690624 154.90474 48.690624 156.60786Q48.690624 158.62349 48.26875 159.87349Q47.8625 161.10786 47.034374 161.79536Q46.20625 162.46724 44.95625 162.46724Q43.3 162.46724 42.346874 161.26411Q41.221874 159.84224 41.221874 156.60786ZM42.659374 156.60786Q42.659374 159.43599 43.315624 160.37349Q43.9875 161.29536 44.95625 161.29536Q45.925 161.29536 46.58125 160.35786Q47.2375 159.42036 47.2375 156.60786Q47.2375 153.77974 46.58125 152.85786Q45.925 151.92036 44.940624 151.92036Q43.971874 151.92036 43.39375 152.74849Q42.659374 153.79536 42.659374 156.60786ZM50.4875 153.56099Q50.4875 152.32661 51.096874 151.46724Q51.721874 150.60786 52.89375 150.60786Q53.971874 150.60786 54.675 151.38911Q55.378124 152.15474 55.378124 153.63911Q55.378124 155.09224 54.659374 155.88911Q53.95625 156.67036 52.909374 156.67036Q51.8625 156.67036 51.175 155.90474Q50.4875 155.12349 50.4875 153.56099ZM52.925 151.57661Q52.409374 151.57661 52.05 152.02974Q51.70625 152.48286 51.70625 153.70161Q51.70625 154.79536 52.05 155.24849Q52.409374 155.70161 52.925 155.70161Q53.45625 155.70161 53.8 155.24849Q54.159374 154.79536 54.159374 153.59224Q54.159374 152.48286 53.8 152.02974Q53.45625 151.57661 52.925 151.57661ZM52.940624 162.68599L59.20625 150.60786L60.346874 150.60786L54.096874 162.68599L52.940624 162.68599ZM57.89375 159.57661Q57.89375 158.34224 58.503124 157.48286Q59.128124 156.62349 60.3 156.62349Q61.378124 156.62349 62.08125 157.40474Q62.8 158.17036 62.8 159.65474Q62.8 161.10786 62.08125 161.90474Q61.3625 162.68599 60.315624 162.68599Q59.26875 162.68599 58.58125 161.90474Q57.89375 161.12349 57.89375 159.57661ZM60.346874 157.59224Q59.815624 157.59224 59.45625 158.04536Q59.1125 158.49849 59.1125 159.71724Q59.1125 160.81099 59.45625 161.26411Q59.815624 161.71724 60.33125 161.71724Q60.878124 161.71724 61.221874 161.26411Q61.565624 160.81099 61.565624 159.60786Q61.565624 158.49849 61.20625 158.04536Q60.8625 157.59224 60.346874 157.59224Z" fill-rule="nonzero"/><path stroke="#757575" stroke-width="1.0" stroke-linecap="butt" d="M18.55 145.76411L145.23334 145.76411L171.08507 145.76411" fill-rule="nonzero"/><path fill="#9e9e9e" d="M173.08507 145.76411C173.08507 144.65955 172.18964 143.76411 171.08507 143.76411C169.9805 143.76411 169.08507 144.65955 169.08507 145.76411C169.08507 146.86868 169.9805 147.76411 171.08507 147.76411C172.18964 147.76411 173.08507 146.86868 173.08507 145.76411" fill-rule="nonzero"/><path fill="#efefef" d="M19.815624 326.45L19.815624 314.9969L24.89375 314.9969Q26.425 314.9969 27.221874 315.3094Q28.01875 315.60626 28.4875 316.3875Q28.971874 317.16876 28.971874 318.1219Q28.971874 319.34064 28.175 320.1844Q27.39375 321.0125 25.7375 321.23126Q26.346874 321.52814 26.659374 321.8094Q27.315624 322.41876 27.909374 323.325L29.909374 326.45L28.003124 326.45L26.4875 324.0594Q25.815624 323.02814 25.378124 322.48126Q24.95625 321.9344 24.6125 321.71564Q24.284374 321.4969 23.925 321.41876Q23.675 321.35626 23.08125 321.35626L21.33125 321.35626L21.33125 326.45L19.815624 326.45ZM21.33125 320.04376L24.58125 320.04376Q25.628124 320.04376 26.20625 319.84064Q26.8 319.6219 27.096874 319.15314Q27.409374 318.66876 27.409374 318.1219Q27.409374 317.3094 26.815624 316.79376Q26.221874 316.2625 24.95625 316.2625L21.33125 316.2625L21.33125 320.04376ZM37.284374 323.77814L38.7375 323.95Q38.39375 325.23126 37.45625 325.9344Q36.534374 326.6375 35.096874 326.6375Q33.26875 326.6375 32.20625 325.5125Q31.14375 324.3875 31.14375 322.3719Q31.14375 320.27814 32.221874 319.1219Q33.3 317.96564 35.01875 317.96564Q36.675 317.96564 37.721874 319.10626Q38.784374 320.23126 38.784374 322.27814Q38.784374 322.40314 38.784374 322.65314L32.596874 322.65314Q32.675 324.02814 33.3625 324.7625Q34.065624 325.48126 35.096874 325.48126Q35.878124 325.48126 36.425 325.075Q36.971874 324.66876 37.284374 323.77814ZM32.675 321.4969L37.3 321.4969Q37.20625 320.45 36.76875 319.9344Q36.096874 319.1219 35.034374 319.1219Q34.065624 319.1219 33.39375 319.77814Q32.7375 320.41876 32.675 321.4969ZM40.58125 326.45L40.58125 314.9969L41.9875 314.9969L41.9875 326.45L40.58125 326.45ZM44.6125 316.60626L44.6125 314.9969L46.01875 314.9969L46.01875 316.60626L44.6125 316.60626ZM44.6125 326.45L44.6125 318.15314L46.01875 318.15314L46.01875 326.45L44.6125 326.45ZM48.346874 327.1375L49.721874 327.34064Q49.8 327.98126 50.190624 328.2625Q50.721874 328.65314 51.628124 328.65314Q52.596874 328.65314 53.128124 328.2625Q53.659374 327.8719 53.846874 327.16876Q53.95625 326.7469 53.95625 325.35626Q53.034374 326.45 51.659374 326.45Q49.940624 326.45 49.003124 325.21564Q48.065624 323.98126 48.065624 322.2469Q48.065624 321.0594 48.4875 320.0594Q48.925 319.0594 49.7375 318.5125Q50.565624 317.96564 51.659374 317.96564Q53.128124 317.96564 54.08125 319.15314L54.08125 318.15314L55.378124 318.15314L55.378124 325.325Q55.378124 327.2625 54.9875 328.075Q54.596874 328.8875 53.7375 329.35626Q52.878124 329.825 51.628124 329.825Q50.14375 329.825 49.221874 329.15314Q48.315624 328.48126 48.346874 327.1375ZM49.51875 322.15314Q49.51875 323.77814 50.159374 324.52814Q50.815624 325.27814 51.784374 325.27814Q52.753124 325.27814 53.409374 324.54376Q54.065624 323.79376 54.065624 322.2Q54.065624 320.66876 53.39375 319.90314Q52.721874 319.1219 51.76875 319.1219Q50.83125 319.1219 50.175 319.8875Q49.51875 320.65314 49.51875 322.15314ZM57.6125 316.60626L57.6125 314.9969L59.01875 314.9969L59.01875 316.60626L57.6125 316.60626ZM57.6125 326.45L57.6125 318.15314L59.01875 318.15314L59.01875 326.45L57.6125 326.45ZM61.08125 322.29376Q61.08125 319.9969 62.3625 318.8875Q63.440624 317.96564 64.97188 317.96564Q66.69063 317.96564 67.76875 319.09064Q68.8625 320.2 68.8625 322.1844Q68.8625 323.77814 68.37813 324.7Q67.89375 325.6219 66.97188 326.1375Q66.06563 326.6375 64.97188 326.6375Q63.2375 326.6375 62.159374 325.52814Q61.08125 324.40314 61.08125 322.29376ZM62.534374 322.29376Q62.534374 323.8875 63.221874 324.6844Q63.925 325.48126 64.97188 325.48126Q66.01875 325.48126 66.70625 324.6844Q67.40938 323.8875 67.40938 322.2469Q67.40938 320.71564 66.70625 319.91876Q66.01875 319.1219 64.97188 319.1219Q63.925 319.1219 63.221874 319.91876Q62.534374 320.7 62.534374 322.29376ZM76.05 326.45L76.05 325.23126Q75.08125 326.6375 73.40938 326.6375Q72.675 326.6375 72.03438 326.35626Q71.40938 326.075 71.09688 325.65314Q70.78438 325.21564 70.65938 324.60626Q70.58125 324.1844 70.58125 323.29376L70.58125 318.15314L71.9875 318.15314L71.9875 322.7469Q71.9875 323.85626 72.06563 324.23126Q72.20625 324.79376 72.62813 325.10626Q73.06563 325.41876 73.69063 325.41876Q74.33125 325.41876 74.87813 325.10626Q75.44063 324.77814 75.65938 324.21564Q75.89375 323.65314 75.89375 322.59064L75.89375 318.15314L77.3 318.15314L77.3 326.45L76.05 326.45ZM79.05 323.96564L80.44063 323.7469Q80.55 324.59064 81.08125 325.04376Q81.62813 325.48126 82.58125 325.48126Q83.55 325.48126 84.01875 325.09064Q84.4875 324.6844 84.4875 324.15314Q84.4875 323.6844 84.08125 323.40314Q83.78438 323.21564 82.64375 322.9344Q81.09688 322.54376 80.4875 322.2625Q79.89375 321.96564 79.58125 321.46564Q79.28438 320.96564 79.28438 320.35626Q79.28438 319.79376 79.53438 319.325Q79.78438 318.85626 80.22188 318.54376Q80.55 318.29376 81.1125 318.1375Q81.69063 317.96564 82.33125 317.96564Q83.31563 317.96564 84.05 318.2469Q84.78438 318.52814 85.12813 319.0125Q85.4875 319.48126 85.62813 320.29376L84.25313 320.48126Q84.15938 319.84064 83.70625 319.48126Q83.25313 319.1219 82.44063 319.1219Q81.47188 319.1219 81.05 319.45Q80.64375 319.7625 80.64375 320.1844Q80.64375 320.46564 80.81563 320.6844Q80.9875 320.90314 81.34688 321.0594Q81.56563 321.1375 82.59688 321.41876Q84.08125 321.8094 84.675 322.075Q85.26875 322.325 85.59688 322.8094Q85.94063 323.29376 85.94063 324.0125Q85.94063 324.71564 85.51875 325.34064Q85.1125 325.95 84.33125 326.29376Q83.56563 326.6375 82.59688 326.6375Q80.97188 326.6375 80.12813 325.96564Q79.28438 325.29376 79.05 323.96564Z" fill-rule="nonzero"/><path fill="#9e9e9e" d="M26.6125 347.09064L26.6125 348.45L19.034374 348.45Q19.01875 347.9344 19.20625 347.46564Q19.4875 346.7 20.128124 345.95Q20.76875 345.2 21.971874 344.21564Q23.83125 342.6844 24.4875 341.79376Q25.14375 340.8875 25.14375 340.09064Q25.14375 339.2625 24.55 338.6844Q23.95625 338.10626 22.9875 338.10626Q21.971874 338.10626 21.3625 338.71564Q20.753124 339.325 20.753124 340.40314L19.3 340.2625Q19.45625 338.6375 20.425 337.79376Q21.39375 336.95 23.01875 336.95Q24.675 336.95 25.628124 337.8719Q26.596874 338.77814 26.596874 340.1219Q26.596874 340.8094 26.315624 341.48126Q26.034374 342.1375 25.378124 342.8719Q24.721874 343.60626 23.20625 344.8875Q21.940624 345.95 21.58125 346.34064Q21.221874 346.71564 20.9875 347.09064L26.6125 347.09064ZM35.6125 347.09064L35.6125 348.45L28.034374 348.45Q28.01875 347.9344 28.20625 347.46564Q28.4875 346.7 29.128124 345.95Q29.76875 345.2 30.971874 344.21564Q32.83125 342.6844 33.4875 341.79376Q34.14375 340.8875 34.14375 340.09064Q34.14375 339.2625 33.55 338.6844Q32.95625 338.10626 31.9875 338.10626Q30.971874 338.10626 30.3625 338.71564Q29.753124 339.325 29.753124 340.40314L28.3 340.2625Q28.45625 338.6375 29.425 337.79376Q30.39375 336.95 32.01875 336.95Q33.675 336.95 34.628124 337.8719Q35.596874 338.77814 35.596874 340.1219Q35.596874 340.8094 35.315624 341.48126Q35.034374 342.1375 34.378124 342.8719Q33.721874 343.60626 32.20625 344.8875Q30.940624 345.95 30.58125 346.34064Q30.221874 346.71564 29.9875 347.09064L35.6125 347.09064ZM38.003124 348.45L38.003124 346.84064L39.6125 346.84064L39.6125 348.45L38.003124 348.45ZM48.51875 339.79376L47.1125 339.90314Q46.925 339.075 46.58125 338.7Q46.01875 338.10626 45.175 338.10626Q44.503124 338.10626 44.003124 338.48126Q43.33125 338.96564 42.940624 339.90314Q42.565624 340.825 42.55 342.54376Q43.065624 341.7625 43.8 341.3875Q44.534374 341.0125 45.33125 341.0125Q46.7375 341.0125 47.721874 342.0594Q48.721874 343.09064 48.721874 344.73126Q48.721874 345.8094 48.253124 346.73126Q47.784374 347.65314 46.971874 348.15314Q46.159374 348.65314 45.128124 348.65314Q43.378124 348.65314 42.26875 347.35626Q41.159374 346.0594 41.159374 343.09064Q41.159374 339.7625 42.378124 338.2625Q43.45625 336.95 45.26875 336.95Q46.6125 336.95 47.471874 337.71564Q48.346874 338.46564 48.51875 339.79376ZM42.76875 344.73126Q42.76875 345.46564 43.08125 346.1375Q43.39375 346.79376 43.940624 347.1375Q44.503124 347.48126 45.1125 347.48126Q46.003124 347.48126 46.64375 346.7625Q47.284374 346.04376 47.284374 344.8094Q47.284374 343.6219 46.64375 342.95Q46.01875 342.2625 45.05 342.2625Q44.096874 342.2625 43.425 342.95Q42.76875 343.6219 42.76875 344.73126ZM50.4875 339.7469Q50.4875 338.5125 51.096874 337.65314Q51.721874 336.79376 52.89375 336.79376Q53.971874 336.79376 54.675 337.575Q55.378124 338.34064 55.378124 339.825Q55.378124 341.27814 54.659374 342.075Q53.95625 342.85626 52.909374 342.85626Q51.8625 342.85626 51.175 342.09064Q50.4875 341.3094 50.4875 339.7469ZM52.925 337.7625Q52.409374 337.7625 52.05 338.21564Q51.70625 338.66876 51.70625 339.8875Q51.70625 340.98126 52.05 341.4344Q52.409374 341.8875 52.925 341.8875Q53.45625 341.8875 53.8 341.4344Q54.159374 340.98126 54.159374 339.77814Q54.159374 338.66876 53.8 338.21564Q53.45625 337.7625 52.925 337.7625ZM52.940624 348.8719L59.20625 336.79376L60.346874 336.79376L54.096874 348.8719L52.940624 348.8719ZM57.89375 345.7625Q57.89375 344.52814 58.503124 343.66876Q59.128124 342.8094 60.3 342.8094Q61.378124 342.8094 62.08125 343.59064Q62.8 344.35626 62.8 345.84064Q62.8 347.29376 62.08125 348.09064Q61.3625 348.8719 60.315624 348.8719Q59.26875 348.8719 58.58125 348.09064Q57.89375 347.3094 57.89375 345.7625ZM60.346874 343.77814Q59.815624 343.77814 59.45625 344.23126Q59.1125 344.6844 59.1125 345.90314Q59.1125 346.9969 59.45625 347.45Q59.815624 347.90314 60.33125 347.90314Q60.878124 347.90314 61.221874 347.45Q61.565624 346.9969 61.565624 345.79376Q61.565624 344.6844 61.20625 344.23126Q60.8625 343.77814 60.346874 343.77814Z" fill-rule="nonzero"/><path stroke="#757575" stroke-width="1.0" stroke-linecap="butt" d="M18.55 331.95L145.23334 331.95L244.26634 333.5581" fill-rule="nonzero"/><path fill="#9e9e9e" d="M246.26634 333.5581C246.26634 332.45355 245.37091 331.5581 244.26634 331.5581C243.16177 331.5581 242.26634 332.45355 242.26634 333.5581C242.26634 334.6627 243.16177 335.5581 244.26634 335.5581C245.37091 335.5581 246.26634 334.6627 246.26634 333.5581" fill-rule="nonzero"/><path fill="#efefef" d="M481.71564 90.94931L481.71564 79.496185L489.9969 79.496185L489.9969 80.839935L483.23126 80.839935L483.23126 84.35556L489.575 84.35556L489.575 85.69931L483.23126 85.69931L483.23126 89.589935L490.2625 89.589935L490.2625 90.94931L481.71564 90.94931ZM495.575 89.683685L495.77814 90.933685Q495.1844 91.058685 494.71564 91.058685Q493.95 91.058685 493.52814 90.82431Q493.10626 90.57431 492.9344 90.183685Q492.7625 89.777435 492.7625 88.51181L492.7625 83.746185L491.73126 83.746185L491.73126 82.652435L492.7625 82.652435L492.7625 80.589935L494.16876 79.746185L494.16876 82.652435L495.575 82.652435L495.575 83.746185L494.16876 83.746185L494.16876 88.589935Q494.16876 89.19931 494.23126 89.371185Q494.3094 89.54306 494.48126 89.652435Q494.65314 89.746185 494.96564 89.746185Q495.2 89.746185 495.575 89.683685ZM496.5125 90.94931L496.5125 79.496185L497.91876 79.496185L497.91876 83.60556Q498.90314 82.464935 500.40314 82.464935Q501.325 82.464935 501.9969 82.82431Q502.6844 83.183685 502.96564 83.82431Q503.2625 84.464935 503.2625 85.683685L503.2625 90.94931L501.85626 90.94931L501.85626 85.683685Q501.85626 84.63681 501.40314 84.152435Q500.95 83.66806 500.10626 83.66806Q499.48126 83.66806 498.9344 83.996185Q498.3875 84.32431 498.15314 84.88681Q497.91876 85.433685 497.91876 86.402435L497.91876 90.94931L496.5125 90.94931ZM505.5125 90.94931L505.5125 82.652435L506.77814 82.652435L506.77814 83.82431Q507.6844 82.464935 509.41876 82.464935Q510.16876 82.464935 510.79376 82.73056Q511.41876 82.996185 511.73126 83.433685Q512.04376 83.871185 512.16876 84.48056Q512.2469 84.871185 512.2469 85.839935L512.2469 90.94931L510.84064 90.94931L510.84064 85.902435Q510.84064 85.04306 510.66876 84.621185Q510.5125 84.183685 510.09064 83.933685Q509.6844 83.683685 509.1219 83.683685Q508.21564 83.683685 507.5594 84.26181Q506.91876 84.82431 506.91876 86.41806L506.91876 90.94931L505.5125 90.94931ZM514.5125 81.10556L514.5125 79.496185L515.91876 79.496185L515.91876 81.10556L514.5125 81.10556ZM514.5125 90.94931L514.5125 82.652435L515.91876 82.652435L515.91876 90.94931L514.5125 90.94931ZM523.91876 87.902435L525.3094 88.089935Q525.075 89.51181 524.1375 90.32431Q523.21564 91.13681 521.85626 91.13681Q520.15314 91.13681 519.10626 90.027435Q518.075 88.902435 518.075 86.82431Q518.075 85.48056 518.5125 84.48056Q518.96564 83.464935 519.8719 82.964935Q520.79376 82.464935 521.85626 82.464935Q523.21564 82.464935 524.075 83.152435Q524.9344 83.82431 525.16876 85.089935L523.8094 85.29306Q523.60626 84.464935 523.10626 84.04306Q522.6219 83.621185 521.91876 83.621185Q520.85626 83.621185 520.1844 84.38681Q519.52814 85.13681 519.52814 86.79306Q519.52814 88.464935 520.16876 89.23056Q520.8094 89.98056 521.84064 89.98056Q522.66876 89.98056 523.21564 89.48056Q523.77814 88.964935 523.91876 87.902435ZM536.04376 86.44931L536.04376 85.10556L540.90314 85.10556L540.90314 89.35556Q539.77814 90.246185 538.59064 90.69931Q537.40314 91.152435 536.15314 91.152435Q534.46564 91.152435 533.09064 90.433685Q531.71564 89.69931 531.0125 88.339935Q530.3094 86.964935 530.3094 85.277435Q530.3094 83.60556 530.9969 82.152435Q531.7 80.69931 533.0125 79.996185Q534.325 79.29306 536.04376 79.29306Q537.27814 79.29306 538.27814 79.69931Q539.29376 80.10556 539.85626 80.82431Q540.4344 81.54306 540.73126 82.69931L539.35626 83.07431Q539.10626 82.19931 538.71564 81.69931Q538.34064 81.19931 537.6219 80.902435Q536.91876 80.589935 536.04376 80.589935Q535.0125 80.589935 534.2469 80.91806Q533.4969 81.23056 533.02814 81.746185Q532.5594 82.26181 532.3094 82.871185Q531.8719 83.933685 531.8719 85.183685Q531.8719 86.714935 532.3875 87.746185Q532.91876 88.777435 533.91876 89.277435Q534.9344 89.777435 536.075 89.777435Q537.0594 89.777435 537.9969 89.402435Q538.9344 89.01181 539.41876 88.589935L539.41876 86.44931L536.04376 86.44931ZM542.4969 90.94931L542.4969 82.652435L543.7625 82.652435L543.7625 83.902435Q544.2469 83.027435 544.65314 82.746185Q545.0594 82.464935 545.5594 82.464935Q546.2625 82.464935 546.9969 82.91806L546.5125 84.214935Q545.9969 83.91806 545.48126 83.91806Q545.02814 83.91806 544.65314 84.19931Q544.29376 84.464935 544.1375 84.964935Q543.90314 85.714935 543.90314 86.60556L543.90314 90.94931L542.4969 90.94931ZM546.98126 86.79306Q546.98126 84.496185 548.2625 83.38681Q549.34064 82.464935 550.8719 82.464935Q552.59064 82.464935 553.66876 83.589935Q554.7625 84.69931 554.7625 86.683685Q554.7625 88.277435 554.27814 89.19931Q553.79376 90.121185 552.8719 90.63681Q551.96564 91.13681 550.8719 91.13681Q549.1375 91.13681 548.0594 90.027435Q546.98126 88.902435 546.98126 86.79306ZM548.4344 86.79306Q548.4344 88.38681 549.1219 89.183685Q549.825 89.98056 550.8719 89.98056Q551.91876 89.98056 552.60626 89.183685Q553.3094 88.38681 553.3094 86.746185Q553.3094 85.214935 552.60626 84.41806Q551.91876 83.621185 550.8719 83.621185Q549.825 83.621185 549.1219 84.41806Q548.4344 85.19931 548.4344 86.79306ZM561.95 90.94931L561.95 89.73056Q560.98126 91.13681 559.3094 91.13681Q558.575 91.13681 557.9344 90.85556Q557.3094 90.57431 556.9969 90.152435Q556.6844 89.714935 556.5594 89.10556Q556.48126 88.683685 556.48126 87.79306L556.48126 82.652435L557.8875 82.652435L557.8875 87.246185Q557.8875 88.35556 557.96564 88.73056Q558.10626 89.29306 558.52814 89.60556Q558.96564 89.91806 559.59064 89.91806Q560.23126 89.91806 560.77814 89.60556Q561.34064 89.277435 561.5594 88.714935Q561.79376 88.152435 561.79376 87.089935L561.79376 82.652435L563.2 82.652435L563.2 90.94931L561.95 90.94931ZM565.5125 94.13681L565.5125 82.652435L566.79376 82.652435L566.79376 83.73056Q567.2469 83.089935 567.8094 82.777435Q568.3875 82.464935 569.2 82.464935Q570.2625 82.464935 571.075 83.01181Q571.8875 83.558685 572.29376 84.558685Q572.71564 85.54306 572.71564 86.73056Q572.71564 88.01181 572.2469 89.027435Q571.79376 90.04306 570.91876 90.589935Q570.0594 91.13681 569.09064 91.13681Q568.3875 91.13681 567.825 90.839935Q567.27814 90.54306 566.91876 90.089935L566.91876 94.13681L565.5125 94.13681ZM566.77814 86.839935Q566.77814 88.44931 567.41876 89.214935Q568.075 89.98056 568.9969 89.98056Q569.9344 89.98056 570.60626 89.183685Q571.27814 88.38681 571.27814 86.73056Q571.27814 85.13681 570.6219 84.35556Q569.96564 83.558685 569.0594 83.558685Q568.16876 83.558685 567.46564 84.402435Q566.77814 85.246185 566.77814 86.839935ZM573.95 88.464935L575.34064 88.246185Q575.45 89.089935 575.98126 89.54306Q576.52814 89.98056 577.48126 89.98056Q578.45 89.98056 578.91876 89.589935Q579.3875 89.183685 579.3875 88.652435Q579.3875 88.183685 578.98126 87.902435Q578.6844 87.714935 577.54376 87.433685Q575.9969 87.04306 575.3875 86.76181Q574.79376 86.464935 574.48126 85.964935Q574.1844 85.464935 574.1844 84.85556Q574.1844 84.29306 574.4344 83.82431Q574.6844 83.35556 575.1219 83.04306Q575.45 82.79306 576.0125 82.63681Q576.59064 82.464935 577.23126 82.464935Q578.21564 82.464935 578.95 82.746185Q579.6844 83.027435 580.02814 83.51181Q580.3875 83.98056 580.52814 84.79306L579.15314 84.98056Q579.0594 84.339935 578.60626 83.98056Q578.15314 83.621185 577.34064 83.621185Q576.3719 83.621185 575.95 83.94931Q575.54376 84.26181 575.54376 84.683685Q575.54376 84.964935 575.71564 85.183685Q575.8875 85.402435 576.2469 85.558685Q576.46564 85.63681 577.4969 85.91806Q578.98126 86.308685 579.575 86.57431Q580.16876 86.82431 580.4969 87.308685Q580.84064 87.79306 580.84064 88.51181Q580.84064 89.214935 580.41876 89.839935Q580.0125 90.44931 579.23126 90.79306Q578.46564 91.13681 577.4969 91.13681Q575.8719 91.13681 575.02814 90.464935Q574.1844 89.79306 573.95 88.464935Z" fill-rule="nonzero"/><path fill="#9e9e9e" d="M544.5125 111.589935L544.5125 112.94931L536.9344 112.94931Q536.91876 112.433685 537.10626 111.964935Q537.3875 111.19931 538.02814 110.44931Q538.66876 109.69931 539.8719 108.714935Q541.73126 107.183685 542.3875 106.29306Q543.04376 105.38681 543.04376 104.589935Q543.04376 103.76181 542.45 103.183685Q541.85626 102.60556 540.8875 102.60556Q539.8719 102.60556 539.2625 103.214935Q538.65314 103.82431 538.65314 104.902435L537.2 104.76181Q537.35626 103.13681 538.325 102.29306Q539.29376 101.44931 540.91876 101.44931Q542.575 101.44931 543.52814 102.371185Q544.4969 103.277435 544.4969 104.621185Q544.4969 105.308685 544.21564 105.98056Q543.9344 106.63681 543.27814 107.371185Q542.6219 108.10556 541.10626 109.38681Q539.84064 110.44931 539.48126 110.839935Q539.1219 111.214935 538.8875 111.589935L544.5125 111.589935ZM553.5125 111.589935L553.5125 112.94931L545.9344 112.94931Q545.91876 112.433685 546.10626 111.964935Q546.3875 111.19931 547.02814 110.44931Q547.66876 109.69931 548.8719 108.714935Q550.73126 107.183685 551.3875 106.29306Q552.04376 105.38681 552.04376 104.589935Q552.04376 103.76181 551.45 103.183685Q550.85626 102.60556 549.8875 102.60556Q548.8719 102.60556 548.2625 103.214935Q547.65314 103.82431 547.65314 104.902435L546.2 104.76181Q546.35626 103.13681 547.325 102.29306Q548.29376 101.44931 549.91876 101.44931Q551.575 101.44931 552.52814 102.371185Q553.4969 103.277435 553.4969 104.621185Q553.4969 105.308685 553.21564 105.98056Q552.9344 106.63681 552.27814 107.371185Q551.6219 108.10556 550.10626 109.38681Q548.84064 110.44931 548.48126 110.839935Q548.1219 111.214935 547.8875 111.589935L553.5125 111.589935ZM555.90314 112.94931L555.90314 111.339935L557.5125 111.339935L557.5125 112.94931L555.90314 112.94931ZM566.41876 104.29306L565.0125 104.402435Q564.825 103.57431 564.48126 103.19931Q563.91876 102.60556 563.075 102.60556Q562.40314 102.60556 561.90314 102.98056Q561.23126 103.464935 560.84064 104.402435Q560.46564 105.32431 560.45 107.04306Q560.96564 106.26181 561.7 105.88681Q562.4344 105.51181 563.23126 105.51181Q564.6375 105.51181 565.6219 106.558685Q566.6219 107.589935 566.6219 109.23056Q566.6219 110.308685 566.15314 111.23056Q565.6844 112.152435 564.8719 112.652435Q564.0594 113.152435 563.02814 113.152435Q561.27814 113.152435 560.16876 111.85556Q559.0594 110.558685 559.0594 107.589935Q559.0594 104.26181 560.27814 102.76181Q561.35626 101.44931 563.16876 101.44931Q564.5125 101.44931 565.3719 102.214935Q566.2469 102.964935 566.41876 104.29306ZM560.66876 109.23056Q560.66876 109.964935 560.98126 110.63681Q561.29376 111.29306 561.84064 111.63681Q562.40314 111.98056 563.0125 111.98056Q563.90314 111.98056 564.54376 111.26181Q565.1844 110.54306 565.1844 109.308685Q565.1844 108.121185 564.54376 107.44931Q563.91876 106.76181 562.95 106.76181Q561.9969 106.76181 561.325 107.44931Q560.66876 108.121185 560.66876 109.23056ZM568.3875 104.246185Q568.3875 103.01181 568.9969 102.152435Q569.6219 101.29306 570.79376 101.29306Q571.8719 101.29306 572.575 102.07431Q573.27814 102.839935 573.27814 104.32431Q573.27814 105.777435 572.5594 106.57431Q571.85626 107.35556 570.8094 107.35556Q569.7625 107.35556 569.075 106.589935Q568.3875 105.808685 568.3875 104.246185ZM570.825 102.26181Q570.3094 102.26181 569.95 102.714935Q569.60626 103.16806 569.60626 104.38681Q569.60626 105.48056 569.95 105.933685Q570.3094 106.38681 570.825 106.38681Q571.35626 106.38681 571.7 105.933685Q572.0594 105.48056 572.0594 104.277435Q572.0594 103.16806 571.7 102.714935Q571.35626 102.26181 570.825 102.26181ZM570.84064 113.371185L577.10626 101.29306L578.2469 101.29306L571.9969 113.371185L570.84064 113.371185ZM575.79376 110.26181Q575.79376 109.027435 576.40314 108.16806Q577.02814 107.308685 578.2 107.308685Q579.27814 107.308685 579.98126 108.089935Q580.7 108.85556 580.7 110.339935Q580.7 111.79306 579.98126 112.589935Q579.2625 113.371185 578.21564 113.371185Q577.16876 113.371185 576.48126 112.589935Q575.79376 111.808685 575.79376 110.26181ZM578.2469 108.277435Q577.71564 108.277435 577.35626 108.73056Q577.0125 109.183685 577.0125 110.402435Q577.0125 111.496185 577.35626 111.94931Q577.71564 112.402435 578.23126 112.402435Q578.77814 112.402435 579.1219 111.94931Q579.46564 111.496185 579.46564 110.29306Q579.46564 109.183685 579.10626 108.73056Q578.7625 108.277435 578.2469 108.277435Z" fill-rule="nonzero"/><path stroke="#757575" stroke-width="1.0" stroke-linecap="butt" d="M581.45 96.44931L454.76666 96.44931L392.05737 96.44931" fill-rule="nonzero"/><path fill="#9e9e9e" d="M394.05737 96.44931C394.05737 95.34474 393.16196 94.44931 392.05737 94.44931C390.95282 94.44931 390.05737 95.34474 390.05737 96.44931C390.05737 97.55388 390.95282 98.44931 392.05737 98.44931C393.16196 98.44931 394.05737 97.55388 394.05737 96.44931" fill-rule="nonzero"/><path fill="#efefef" d="M495.85626 268.92532L497.3719 269.30032Q496.90314 271.17532 495.65314 272.1597Q494.41876 273.14407 492.6375 273.14407Q490.77814 273.14407 489.6219 272.39407Q488.46564 271.62845 487.85626 270.20657Q487.2469 268.76907 487.2469 267.12845Q487.2469 265.33157 487.9344 264.00345Q488.6219 262.67532 489.8719 261.98782Q491.1375 261.2847 492.65314 261.2847Q494.3719 261.2847 495.54376 262.1597Q496.71564 263.0347 497.1844 264.62845L495.6844 264.9722Q495.29376 263.7222 494.52814 263.1597Q493.77814 262.58157 492.6219 262.58157Q491.3094 262.58157 490.41876 263.2222Q489.52814 263.8472 489.16876 264.92532Q488.8094 265.98782 488.8094 267.11282Q488.8094 268.58157 489.23126 269.67532Q489.66876 270.75345 490.5594 271.30032Q491.46564 271.83157 492.5125 271.83157Q493.77814 271.83157 494.65314 271.0972Q495.54376 270.36282 495.85626 268.92532ZM504.95 272.94095L504.95 271.7222Q503.98126 273.12845 502.3094 273.12845Q501.575 273.12845 500.9344 272.8472Q500.3094 272.56595 499.9969 272.14407Q499.6844 271.70657 499.5594 271.0972Q499.48126 270.67532 499.48126 269.7847L499.48126 264.64407L500.8875 264.64407L500.8875 269.23782Q500.8875 270.3472 500.96564 270.7222Q501.10626 271.2847 501.52814 271.5972Q501.96564 271.9097 502.59064 271.9097Q503.23126 271.9097 503.77814 271.5972Q504.34064 271.26907 504.5594 270.70657Q504.79376 270.14407 504.79376 269.08157L504.79376 264.64407L506.2 264.64407L506.2 272.94095L504.95 272.94095ZM508.48126 272.94095L508.48126 261.48782L509.8875 261.48782L509.8875 272.94095L508.48126 272.94095ZM515.575 271.67532L515.77814 272.92532Q515.1844 273.05032 514.71564 273.05032Q513.95 273.05032 513.52814 272.81595Q513.10626 272.56595 512.9344 272.17532Q512.7625 271.76907 512.7625 270.50345L512.7625 265.73782L511.73126 265.73782L511.73126 264.64407L512.7625 264.64407L512.7625 262.58157L514.16876 261.73782L514.16876 264.64407L515.575 264.64407L515.575 265.73782L514.16876 265.73782L514.16876 270.58157Q514.16876 271.19095 514.23126 271.36282Q514.3094 271.5347 514.48126 271.64407Q514.65314 271.73782 514.96564 271.73782Q515.2 271.73782 515.575 271.67532ZM521.95 272.94095L521.95 271.7222Q520.98126 273.12845 519.3094 273.12845Q518.575 273.12845 517.9344 272.8472Q517.3094 272.56595 516.9969 272.14407Q516.6844 271.70657 516.5594 271.0972Q516.48126 270.67532 516.48126 269.7847L516.48126 264.64407L517.8875 264.64407L517.8875 269.23782Q517.8875 270.3472 517.96564 270.7222Q518.10626 271.2847 518.52814 271.5972Q518.96564 271.9097 519.59064 271.9097Q520.23126 271.9097 520.77814 271.5972Q521.34064 271.26907 521.5594 270.70657Q521.79376 270.14407 521.79376 269.08157L521.79376 264.64407L523.2 264.64407L523.2 272.94095L521.95 272.94095ZM525.4969 272.94095L525.4969 264.64407L526.7625 264.64407L526.7625 265.89407Q527.2469 265.01907 527.65314 264.73782Q528.0594 264.45657 528.5594 264.45657Q529.2625 264.45657 529.9969 264.9097L529.5125 266.20657Q528.9969 265.9097 528.48126 265.9097Q528.02814 265.9097 527.65314 266.19095Q527.29376 266.45657 527.1375 266.95657Q526.90314 267.70657 526.90314 268.5972L526.90314 272.94095L525.4969 272.94095ZM535.91876 271.9097Q535.1375 272.58157 534.41876 272.86282Q533.7 273.12845 532.8719 273.12845Q531.4969 273.12845 530.7625 272.45657Q530.02814 271.7847 530.02814 270.75345Q530.02814 270.14407 530.3094 269.64407Q530.59064 269.12845 531.02814 268.83157Q531.48126 268.51907 532.04376 268.36282Q532.46564 268.25345 533.29376 268.1597Q534.9969 267.95657 535.8094 267.67532Q535.8094 267.37845 535.8094 267.30032Q535.8094 266.44095 535.41876 266.0972Q534.8719 265.61282 533.8094 265.61282Q532.825 265.61282 532.34064 265.9722Q531.8719 266.31595 531.65314 267.19095L530.27814 267.00345Q530.46564 266.12845 530.8875 265.58157Q531.325 265.0347 532.1375 264.75345Q532.95 264.45657 534.0125 264.45657Q535.075 264.45657 535.73126 264.70657Q536.40314 264.95657 536.71564 265.33157Q537.02814 265.70657 537.15314 266.2847Q537.23126 266.64407 537.23126 267.58157L537.23126 269.45657Q537.23126 271.42532 537.3094 271.94095Q537.40314 272.45657 537.66876 272.94095L536.2 272.94095Q535.98126 272.50345 535.91876 271.9097ZM535.8094 268.76907Q535.04376 269.08157 533.5125 269.30032Q532.6375 269.42532 532.27814 269.58157Q531.91876 269.73782 531.71564 270.05032Q531.52814 270.3472 531.52814 270.70657Q531.52814 271.26907 531.95 271.64407Q532.3875 272.01907 533.2 272.01907Q534.0125 272.01907 534.6375 271.67532Q535.27814 271.31595 535.575 270.69095Q535.8094 270.2222 535.8094 269.2847L535.8094 268.76907ZM539.48126 272.94095L539.48126 261.48782L540.8875 261.48782L540.8875 272.94095L539.48126 272.94095ZM546.41876 272.94095L550.825 261.48782L552.46564 261.48782L557.15314 272.94095L555.41876 272.94095L554.09064 269.4722L549.29376 269.4722L548.04376 272.94095L546.41876 272.94095ZM549.73126 268.23782L553.6219 268.23782L552.41876 265.06595Q551.8719 263.61282 551.60626 262.69095Q551.3875 263.7847 550.9969 264.87845L549.73126 268.23782ZM563.91876 269.89407L565.3094 270.08157Q565.075 271.50345 564.1375 272.31595Q563.21564 273.12845 561.85626 273.12845Q560.15314 273.12845 559.10626 272.01907Q558.075 270.89407 558.075 268.81595Q558.075 267.4722 558.5125 266.4722Q558.96564 265.45657 559.8719 264.95657Q560.79376 264.45657 561.85626 264.45657Q563.21564 264.45657 564.075 265.14407Q564.9344 265.81595 565.16876 267.08157L563.8094 267.2847Q563.60626 266.45657 563.10626 266.0347Q562.6219 265.61282 561.91876 265.61282Q560.85626 265.61282 560.1844 266.37845Q559.52814 267.12845 559.52814 268.7847Q559.52814 270.45657 560.16876 271.2222Q560.8094 271.9722 561.84064 271.9722Q562.66876 271.9722 563.21564 271.4722Q563.77814 270.95657 563.91876 269.89407ZM569.575 271.67532L569.77814 272.92532Q569.1844 273.05032 568.71564 273.05032Q567.95 273.05032 567.52814 272.81595Q567.10626 272.56595 566.9344 272.17532Q566.7625 271.76907 566.7625 270.50345L566.7625 265.73782L565.73126 265.73782L565.73126 264.64407L566.7625 264.64407L566.7625 262.58157L568.16876 261.73782L568.16876 264.64407L569.575 264.64407L569.575 265.73782L568.16876 265.73782L568.16876 270.58157Q568.16876 271.19095 568.23126 271.36282Q568.3094 271.5347 568.48126 271.64407Q568.65314 271.73782 568.96564 271.73782Q569.2 271.73782 569.575 271.67532ZM569.95 270.45657L571.34064 270.23782Q571.45 271.08157 571.98126 271.5347Q572.52814 271.9722 573.48126 271.9722Q574.45 271.9722 574.91876 271.58157Q575.3875 271.17532 575.3875 270.64407Q575.3875 270.17532 574.98126 269.89407Q574.6844 269.70657 573.54376 269.42532Q571.9969 269.0347 571.3875 268.75345Q570.79376 268.45657 570.48126 267.95657Q570.1844 267.45657 570.1844 266.8472Q570.1844 266.2847 570.4344 265.81595Q570.6844 265.3472 571.1219 265.0347Q571.45 264.7847 572.0125 264.62845Q572.59064 264.45657 573.23126 264.45657Q574.21564 264.45657 574.95 264.73782Q575.6844 265.01907 576.02814 265.50345Q576.3875 265.9722 576.52814 266.7847L575.15314 266.9722Q575.0594 266.33157 574.60626 265.9722Q574.15314 265.61282 573.34064 265.61282Q572.3719 265.61282 571.95 265.94095Q571.54376 266.25345 571.54376 266.67532Q571.54376 266.95657 571.71564 267.17532Q571.8875 267.39407 572.2469 267.55032Q572.46564 267.62845 573.4969 267.9097Q574.98126 268.30032 575.575 268.56595Q576.16876 268.81595 576.4969 269.30032Q576.84064 269.7847 576.84064 270.50345Q576.84064 271.20657 576.41876 271.83157Q576.0125 272.44095 575.23126 272.7847Q574.46564 273.12845 573.4969 273.12845Q571.8719 273.12845 571.02814 272.45657Q570.1844 271.7847 569.95 270.45657ZM578.90314 272.94095L578.90314 271.33157L580.5125 271.33157L580.5125 272.94095L578.90314 272.94095Z" fill-rule="nonzero"/><path fill="#9e9e9e" d="M544.5125 293.58157L544.5125 294.94095L536.9344 294.94095Q536.91876 294.42532 537.10626 293.95657Q537.3875 293.19095 538.02814 292.44095Q538.66876 291.69095 539.8719 290.70657Q541.73126 289.17532 542.3875 288.2847Q543.04376 287.37845 543.04376 286.58157Q543.04376 285.75345 542.45 285.17532Q541.85626 284.5972 540.8875 284.5972Q539.8719 284.5972 539.2625 285.20657Q538.65314 285.81595 538.65314 286.89407L537.2 286.75345Q537.35626 285.12845 538.325 284.2847Q539.29376 283.44095 540.91876 283.44095Q542.575 283.44095 543.52814 284.36282Q544.4969 285.26907 544.4969 286.61282Q544.4969 287.30032 544.21564 287.9722Q543.9344 288.62845 543.27814 289.36282Q542.6219 290.0972 541.10626 291.37845Q539.84064 292.44095 539.48126 292.83157Q539.1219 293.20657 538.8875 293.58157L544.5125 293.58157ZM553.5125 293.58157L553.5125 294.94095L545.9344 294.94095Q545.91876 294.42532 546.10626 293.95657Q546.3875 293.19095 547.02814 292.44095Q547.66876 291.69095 548.8719 290.70657Q550.73126 289.17532 551.3875 288.2847Q552.04376 287.37845 552.04376 286.58157Q552.04376 285.75345 551.45 285.17532Q550.85626 284.5972 549.8875 284.5972Q548.8719 284.5972 548.2625 285.20657Q547.65314 285.81595 547.65314 286.89407L546.2 286.75345Q546.35626 285.12845 547.325 284.2847Q548.29376 283.44095 549.91876 283.44095Q551.575 283.44095 552.52814 284.36282Q553.4969 285.26907 553.4969 286.61282Q553.4969 287.30032 553.21564 287.9722Q552.9344 288.62845 552.27814 289.36282Q551.6219 290.0972 550.10626 291.37845Q548.84064 292.44095 548.48126 292.83157Q548.1219 293.20657 547.8875 293.58157L553.5125 293.58157ZM555.90314 294.94095L555.90314 293.33157L557.5125 293.33157L557.5125 294.94095L555.90314 294.94095ZM566.41876 286.2847L565.0125 286.39407Q564.825 285.56595 564.48126 285.19095Q563.91876 284.5972 563.075 284.5972Q562.40314 284.5972 561.90314 284.9722Q561.23126 285.45657 560.84064 286.39407Q560.46564 287.31595 560.45 289.0347Q560.96564 288.25345 561.7 287.87845Q562.4344 287.50345 563.23126 287.50345Q564.6375 287.50345 565.6219 288.55032Q566.6219 289.58157 566.6219 291.2222Q566.6219 292.30032 566.15314 293.2222Q565.6844 294.14407 564.8719 294.64407Q564.0594 295.14407 563.02814 295.14407Q561.27814 295.14407 560.16876 293.8472Q559.0594 292.55032 559.0594 289.58157Q559.0594 286.25345 560.27814 284.75345Q561.35626 283.44095 563.16876 283.44095Q564.5125 283.44095 565.3719 284.20657Q566.2469 284.95657 566.41876 286.2847ZM560.66876 291.2222Q560.66876 291.95657 560.98126 292.62845Q561.29376 293.2847 561.84064 293.62845Q562.40314 293.9722 563.0125 293.9722Q563.90314 293.9722 564.54376 293.25345Q565.1844 292.5347 565.1844 291.30032Q565.1844 290.11282 564.54376 289.44095Q563.91876 288.75345 562.95 288.75345Q561.9969 288.75345 561.325 289.44095Q560.66876 290.11282 560.66876 291.2222ZM568.3875 286.23782Q568.3875 285.00345 568.9969 284.14407Q569.6219 283.2847 570.79376 283.2847Q571.8719 283.2847 572.575 284.06595Q573.27814 284.83157 573.27814 286.31595Q573.27814 287.76907 572.5594 288.56595Q571.85626 289.3472 570.8094 289.3472Q569.7625 289.3472 569.075 288.58157Q568.3875 287.80032 568.3875 286.23782ZM570.825 284.25345Q570.3094 284.25345 569.95 284.70657Q569.60626 285.1597 569.60626 286.37845Q569.60626 287.4722 569.95 287.92532Q570.3094 288.37845 570.825 288.37845Q571.35626 288.37845 571.7 287.92532Q572.0594 287.4722 572.0594 286.26907Q572.0594 285.1597 571.7 284.70657Q571.35626 284.25345 570.825 284.25345ZM570.84064 295.36282L577.10626 283.2847L578.2469 283.2847L571.9969 295.36282L570.84064 295.36282ZM575.79376 292.25345Q575.79376 291.01907 576.40314 290.1597Q577.02814 289.30032 578.2 289.30032Q579.27814 289.30032 579.98126 290.08157Q580.7 290.8472 580.7 292.33157Q580.7 293.7847 579.98126 294.58157Q579.2625 295.36282 578.21564 295.36282Q577.16876 295.36282 576.48126 294.58157Q575.79376 293.80032 575.79376 292.25345ZM578.2469 290.26907Q577.71564 290.26907 577.35626 290.7222Q577.0125 291.17532 577.0125 292.39407Q577.0125 293.48782 577.35626 293.94095Q577.71564 294.39407 578.23126 294.39407Q578.77814 294.39407 579.1219 293.94095Q579.46564 293.48782 579.46564 292.2847Q579.46564 291.17532 579.10626 290.7222Q578.7625 290.26907 578.2469 290.26907Z" fill-rule="nonzero"/><path stroke="#757575" stroke-width="1.0" stroke-linecap="butt" d="M581.45 278.44095L454.76666 278.44095L419.93747 278.44095" fill-rule="nonzero"/><path fill="#9e9e9e" d="M421.93747 278.44095C421.93747 277.33636 421.04205 276.44095 419.93747 276.44095C418.83292 276.44095 417.93747 277.33636 417.93747 278.44095C417.93747 279.5455 418.83292 280.44095 419.93747 280.44095C421.04205 280.44095 421.93747 279.5455 421.93747 278.44095" fill-rule="nonzero"/><path fill="#f3f3f3" d="M271.26562 32.534374L273.15625 33.003124Q272.5625 35.346874 271.01562 36.58125Q269.46875 37.8 267.21875 37.8Q264.90625 37.8 263.45312 36.8625Q262.01562 35.909374 261.25 34.128124Q260.5 32.33125 260.5 30.284374Q260.5 28.05 261.34375 26.39375Q262.20312 24.721874 263.78125 23.8625Q265.35938 22.9875 267.25 22.9875Q269.40625 22.9875 270.85938 24.08125Q272.32812 25.175 272.90625 27.159374L271.04688 27.596874Q270.54688 26.034374 269.59375 25.33125Q268.65625 24.6125 267.21875 24.6125Q265.5625 24.6125 264.45312 25.409374Q263.34375 26.190624 262.89062 27.534374Q262.45312 28.8625 262.45312 30.26875Q262.45312 32.096874 262.98438 33.471874Q263.51562 34.83125 264.64062 35.503124Q265.76562 36.175 267.0625 36.175Q268.65625 36.175 269.76562 35.253124Q270.875 34.33125 271.26562 32.534374ZM281.59375 36.26875Q280.60938 37.096874 279.70312 37.440624Q278.79688 37.784374 277.76562 37.784374Q276.0625 37.784374 275.14062 36.95625Q274.21875 36.1125 274.21875 34.815624Q274.21875 34.05 274.5625 33.425Q274.92188 32.8 275.48438 32.425Q276.04688 32.034374 276.75 31.83125Q277.26562 31.70625 278.3125 31.565624Q280.4375 31.315624 281.4375 30.971874Q281.45312 30.6125 281.45312 30.503124Q281.45312 29.440624 280.95312 28.9875Q280.28125 28.39375 278.95312 28.39375Q277.70312 28.39375 277.10938 28.83125Q276.53125 29.26875 276.25 30.378124L274.53125 30.14375Q274.76562 29.034374 275.29688 28.3625Q275.82812 27.675 276.84375 27.315624Q277.85938 26.940624 279.20312 26.940624Q280.53125 26.940624 281.35938 27.253124Q282.1875 27.565624 282.57812 28.05Q282.96875 28.51875 283.125 29.2375Q283.21875 29.690624 283.21875 30.8625L283.21875 33.20625Q283.21875 35.659374 283.32812 36.315624Q283.4375 36.95625 283.78125 37.55L281.9375 37.55Q281.67188 37.003124 281.59375 36.26875ZM281.4375 32.346874Q280.48438 32.7375 278.5625 33.003124Q277.48438 33.159374 277.03125 33.3625Q276.59375 33.55 276.34375 33.925Q276.09375 34.3 276.09375 34.76875Q276.09375 35.471874 276.625 35.940624Q277.15625 36.409374 278.1875 36.409374Q279.20312 36.409374 279.98438 35.971874Q280.78125 35.51875 281.15625 34.753124Q281.4375 34.14375 281.4375 32.9875L281.4375 32.346874ZM289.65625 35.971874L289.90625 37.534374Q289.17188 37.690624 288.57812 37.690624Q287.625 37.690624 287.09375 37.39375Q286.57812 37.08125 286.35938 36.596874Q286.14062 36.096874 286.14062 34.51875L286.14062 28.55L284.85938 28.55L284.85938 27.175L286.14062 27.175L286.14062 24.6125L287.89062 23.55L287.89062 27.175L289.65625 27.175L289.65625 28.55L287.89062 28.55L287.89062 34.6125Q287.89062 35.3625 287.98438 35.58125Q288.07812 35.784374 288.28125 35.925Q288.5 36.05 288.89062 36.05Q289.17188 36.05 289.65625 35.971874ZM298.92188 34.20625L300.73438 34.440624Q300.3125 36.01875 299.14062 36.909374Q297.98438 37.784374 296.17188 37.784374Q293.90625 37.784374 292.5625 36.39375Q291.23438 34.9875 291.23438 32.45625Q291.23438 29.83125 292.57812 28.39375Q293.92188 26.940624 296.07812 26.940624Q298.15625 26.940624 299.46875 28.3625Q300.79688 29.76875 300.79688 32.346874Q300.79688 32.503124 300.78125 32.815624L293.04688 32.815624Q293.14062 34.51875 294.01562 35.425Q294.89062 36.33125 296.1875 36.33125Q297.15625 36.33125 297.82812 35.83125Q298.51562 35.315624 298.92188 34.20625ZM293.14062 31.3625L298.9375 31.3625Q298.82812 30.065624 298.28125 29.409374Q297.4375 28.39375 296.09375 28.39375Q294.89062 28.39375 294.0625 29.20625Q293.23438 30.003124 293.14062 31.3625ZM302.5 38.409374L304.20312 38.659374Q304.3125 39.45625 304.79688 39.815624Q305.45312 40.3 306.59375 40.3Q307.8125 40.3 308.46875 39.815624Q309.14062 39.33125 309.375 38.45625Q309.51562 37.909374 309.5 36.190624Q308.34375 37.55 306.625 37.55Q304.48438 37.55 303.3125 36.003124Q302.14062 34.45625 302.14062 32.3Q302.14062 30.815624 302.67188 29.565624Q303.21875 28.315624 304.23438 27.628124Q305.26562 26.940624 306.64062 26.940624Q308.46875 26.940624 309.67188 28.425L309.67188 27.175L311.28125 27.175L311.28125 36.14375Q311.28125 38.565624 310.78125 39.565624Q310.29688 40.58125 309.21875 41.159374Q308.15625 41.753124 306.59375 41.753124Q304.75 41.753124 303.59375 40.925Q302.45312 40.096874 302.5 38.409374ZM303.95312 32.175Q303.95312 34.221874 304.76562 35.159374Q305.57812 36.096874 306.79688 36.096874Q308.0 36.096874 308.8125 35.159374Q309.64062 34.221874 309.64062 32.2375Q309.64062 30.33125 308.79688 29.3625Q307.95312 28.39375 306.76562 28.39375Q305.59375 28.39375 304.76562 29.346874Q303.95312 30.3 303.95312 32.175ZM313.17188 32.3625Q313.17188 29.4875 314.76562 28.096874Q316.10938 26.940624 318.03125 26.940624Q320.17188 26.940624 321.51562 28.346874Q322.875 29.753124 322.875 32.221874Q322.875 34.221874 322.28125 35.378124Q321.6875 36.51875 320.53125 37.159374Q319.39062 37.784374 318.03125 37.784374Q315.84375 37.784374 314.5 36.39375Q313.17188 34.9875 313.17188 32.3625ZM314.96875 32.3625Q314.96875 34.3625 315.82812 35.346874Q316.70312 36.33125 318.03125 36.33125Q319.34375 36.33125 320.20312 35.346874Q321.07812 34.346874 321.07812 32.3Q321.07812 30.378124 320.20312 29.39375Q319.32812 28.39375 318.03125 28.39375Q316.70312 28.39375 315.82812 29.39375Q314.96875 30.378124 314.96875 32.3625ZM324.79688 37.55L324.79688 27.175L326.375 27.175L326.375 28.753124Q326.98438 27.64375 327.5 27.3Q328.01562 26.940624 328.625 26.940624Q329.51562 26.940624 330.4375 27.503124L329.82812 29.14375Q329.1875 28.753124 328.54688 28.753124Q327.96875 28.753124 327.5 29.1125Q327.04688 29.45625 326.84375 30.065624Q326.5625 31.003124 326.5625 32.1125L326.5625 37.55L324.79688 37.55ZM331.73438 41.55L331.54688 39.89375Q332.125 40.05 332.54688 40.05Q333.14062 40.05 333.48438 39.846874Q333.84375 39.659374 334.0625 39.315624Q334.23438 39.05 334.60938 38.003124Q334.65625 37.846874 334.76562 37.565624L330.82812 27.175L332.71875 27.175L334.875 33.190624Q335.29688 34.33125 335.625 35.58125Q335.9375 34.378124 336.34375 33.221874L338.5625 27.175L340.32812 27.175L336.375 37.721874Q335.75 39.440624 335.39062 40.08125Q334.92188 40.95625 334.3125 41.346874Q333.71875 41.753124 332.875 41.753124Q332.35938 41.753124 331.73438 41.55Z" fill-rule="nonzero"/></svg>