<svg version="1.1" viewBox="0.0 0.0 600.0 371.0" fill="none" stroke="none" stroke-linecap="square" stroke-miterlimit="10" width="600" height="371" xmlns:xlink="http://www.w3.org/1999/xlink" xmlns="http://www.w3.org/2000/svg"><path fill="#ffffff" fill-opacity="0.0" d="M0 0L600.0 0L600.0 371.0L0 371.0L0 0Z" fill-rule="nonzero"/><path fill="#313d89" d="M300.0 54.916668C311.1394 54.916668 322.2436 56.167805 333.1037 58.646557L308.2759 167.42413C305.56088 166.80446 302.78485 166.49167 300.0 166.49167Z" fill-rule="nonzero"/><path fill="#e5a345" d="M154.96323 170.57964C170.40787 102.91222 230.59239 54.916668 300.0 54.916668L300.0 166.49167C282.6481 166.49167 267.60196 178.49055 263.7408 195.40741Z" fill-rule="nonzero"/><path fill="#533990" d="M333.1037 58.646557C413.2053 76.92922 463.31946 156.68542 445.03677 236.78703C426.75412 316.88864 346.9979 367.00278 266.8963 348.72012C186.79471 330.43744 136.68056 250.68123 154.96323 170.57964L263.7408 195.40741C259.17014 215.43282 271.69867 235.37186 291.7241 239.94252C311.74948 244.5132 331.68854 231.98466 336.2592 211.95926C340.82986 191.93385 328.30133 171.99481 308.2759 167.42413Z" fill-rule="nonzero"/><path fill="#ffffff" d="M330.87833 287.3381L330.87833 285.82248L339.20645 285.82248L339.20645 287.05685Q337.9877 288.36935 336.76895 290.54123Q335.56583 292.69748 334.90958 294.99435Q334.4252 296.61935 334.3002 298.54123L332.6752 298.54123Q332.70645 297.0256 333.26895 294.86935Q333.84708 292.7131 334.90958 290.7131Q335.97208 288.7131 337.1752 287.3381L330.87833 287.3381ZM340.76895 295.16623L342.4252 295.0256Q342.6127 296.24435 343.28458 296.85373Q343.95645 297.4631 344.90958 297.4631Q346.0502 297.4631 346.83145 296.60373Q347.62833 295.74435 347.62833 294.30685Q347.62833 292.9631 346.8627 292.18185Q346.1127 291.4006 344.87833 291.4006Q344.1127 291.4006 343.4877 291.74435Q342.87833 292.0881 342.53458 292.6506L341.0502 292.44748L342.3002 285.8381L348.70645 285.8381L348.70645 287.3381L343.56583 287.3381L342.8627 290.80685Q344.03458 289.99435 345.3002 289.99435Q346.9877 289.99435 348.14395 291.16623Q349.31583 292.3381 349.31583 294.16623Q349.31583 295.91623 348.28458 297.19748Q347.0502 298.75998 344.90958 298.75998Q343.14395 298.75998 342.03458 297.7756Q340.9252 296.79123 340.76895 295.16623ZM351.65958 298.54123L351.65958 296.74435L353.45645 296.74435L353.45645 298.54123L351.65958 298.54123ZM355.76895 292.18185Q355.76895 289.9006 356.2377 288.50998Q356.70645 287.11935 357.62833 286.36935Q358.56583 285.60373 359.97208 285.60373Q361.00333 285.60373 361.78458 286.0256Q362.56583 286.43185 363.06583 287.22873Q363.58145 288.00998 363.87833 289.1506Q364.1752 290.2756 364.1752 292.18185Q364.1752 294.44748 363.70645 295.85373Q363.2377 297.24435 362.3002 298.00998Q361.37833 298.75998 359.97208 298.75998Q358.09708 298.75998 357.03458 297.43185Q355.76895 295.82248 355.76895 292.18185ZM357.39395 292.18185Q357.39395 295.35373 358.12833 296.41623Q358.87833 297.4631 359.97208 297.4631Q361.0502 297.4631 361.8002 296.41623Q362.5502 295.35373 362.5502 292.18185Q362.5502 289.00998 361.8002 287.9631Q361.0502 286.91623 359.95645 286.91623Q358.8627 286.91623 358.20645 287.8381Q357.39395 289.00998 357.39395 292.18185ZM366.06583 288.74435Q366.06583 287.36935 366.75333 286.4006Q367.45645 285.43185 368.76895 285.43185Q369.9877 285.43185 370.78458 286.30685Q371.58145 287.16623 371.58145 288.85373Q371.58145 290.47873 370.76895 291.36935Q369.97208 292.24435 368.78458 292.24435Q367.62833 292.24435 366.84708 291.38498Q366.06583 290.50998 366.06583 288.74435ZM368.81583 286.5256Q368.22208 286.5256 367.83145 287.04123Q367.44083 287.54123 367.44083 288.9006Q367.44083 290.1506 367.83145 290.6506Q368.2377 291.1506 368.81583 291.1506Q369.40958 291.1506 369.8002 290.6506Q370.19083 290.13498 370.19083 288.79123Q370.19083 287.54123 369.8002 287.04123Q369.40958 286.5256 368.81583 286.5256ZM368.83145 299.00998L375.87833 285.43185L377.15958 285.43185L370.12833 299.00998L368.83145 299.00998ZM374.39395 295.50998Q374.39395 294.13498 375.08145 293.16623Q375.78458 292.19748 377.1127 292.19748Q378.33145 292.19748 379.1127 293.07248Q379.90958 293.93185 379.90958 295.61935Q379.90958 297.24435 379.1127 298.13498Q378.31583 299.00998 377.12833 299.00998Q375.95645 299.00998 375.1752 298.13498Q374.39395 297.25998 374.39395 295.50998ZM377.15958 293.29123Q376.56583 293.29123 376.1752 293.80685Q375.78458 294.30685 375.78458 295.68185Q375.78458 296.9006 376.1752 297.41623Q376.56583 297.93185 377.14395 297.93185Q377.75333 297.93185 378.14395 297.41623Q378.53458 296.9006 378.53458 295.55685Q378.53458 294.30685 378.14395 293.80685Q377.75333 293.29123 377.15958 293.29123Z" fill-rule="nonzero"/><path fill="#ffffff" d="M219.39522 128.20448L219.39522 129.72011L210.8796 129.72011Q210.86397 129.14198 211.0671 128.62636Q211.39522 127.75136 212.09834 126.90761Q212.8171 126.06386 214.17647 124.95448Q216.27022 123.23573 217.0046 122.23573Q217.7546 121.22011 217.7546 120.32948Q217.7546 119.37636 217.08272 118.73573Q216.41084 118.09511 215.33272 118.09511Q214.17647 118.09511 213.48897 118.78261Q212.8171 119.47011 212.80147 120.67323L211.17647 120.50136Q211.34834 118.68886 212.42647 117.73573Q213.52022 116.78261 215.36397 116.78261Q217.20772 116.78261 218.28584 117.81386Q219.3796 118.84511 219.3796 120.36073Q219.3796 121.12636 219.05147 121.87636Q218.73897 122.62636 218.0046 123.45448Q217.27022 124.28261 215.5671 125.72011Q214.14522 126.92323 213.73897 127.34511Q213.33272 127.76698 213.08272 128.20448L219.39522 128.20448ZM227.03584 129.72011L225.45772 129.72011L225.45772 119.64198Q224.8796 120.18886 223.95772 120.73573Q223.03584 121.26698 222.28584 121.54823L222.28584 120.01698Q223.61397 119.39198 224.61397 118.50136Q225.61397 117.61073 226.02022 116.78261L227.03584 116.78261L227.03584 129.72011ZM231.97334 129.72011L231.97334 127.92323L233.77022 127.92323L233.77022 129.72011L231.97334 129.72011ZM241.14522 129.72011L241.14522 126.64198L235.5671 126.64198L235.5671 125.18886L241.4421 116.82948L242.73897 116.82948L242.73897 125.18886L244.47334 125.18886L244.47334 126.64198L242.73897 126.64198L242.73897 129.72011L241.14522 129.72011ZM241.14522 125.18886L241.14522 119.37636L237.11397 125.18886L241.14522 125.18886ZM246.3796 119.92323Q246.3796 118.54823 247.0671 117.57948Q247.77022 116.61073 249.08272 116.61073Q250.30147 116.61073 251.09834 117.48573Q251.89522 118.34511 251.89522 120.03261Q251.89522 121.65761 251.08272 122.54823Q250.28584 123.42323 249.09834 123.42323Q247.9421 123.42323 247.16084 122.56386Q246.3796 121.68886 246.3796 119.92323ZM249.1296 117.70448Q248.53584 117.70448 248.14522 118.22011Q247.7546 118.72011 247.7546 120.07948Q247.7546 121.32948 248.14522 121.82948Q248.55147 122.32948 249.1296 122.32948Q249.72334 122.32948 250.11397 121.82948Q250.5046 121.31386 250.5046 119.97011Q250.5046 118.72011 250.11397 118.22011Q249.72334 117.70448 249.1296 117.70448ZM249.14522 130.18886L256.19208 116.61073L257.47333 116.61073L250.4421 130.18886L249.14522 130.18886ZM254.70772 126.68886Q254.70772 125.31386 255.39522 124.34511Q256.09833 123.37636 257.42645 123.37636Q258.6452 123.37636 259.42645 124.25136Q260.22333 125.11073 260.22333 126.79823Q260.22333 128.42323 259.42645 129.31386Q258.62958 130.18886 257.44208 130.18886Q256.2702 130.18886 255.48897 129.31386Q254.70772 128.43886 254.70772 126.68886ZM257.47333 124.47011Q256.87958 124.47011 256.48895 124.98573Q256.09833 125.48573 256.09833 126.86073Q256.09833 128.07948 256.48895 128.59511Q256.87958 129.11073 257.4577 129.11073Q258.06708 129.11073 258.4577 128.59511Q258.84833 128.07948 258.84833 126.73573Q258.84833 125.48573 258.4577 124.98573Q258.06708 124.47011 257.47333 124.47011Z" fill-rule="nonzero"/><path stroke="#ffffff" stroke-width="1.0" stroke-linejoin="round" stroke-linecap="round" d="M308.2759 167.42413C305.56088 166.80446 302.78485 166.49167 300.0 166.49167L300.0 54.916668C311.1394 54.916668 322.2436 56.167805 333.1037 58.646557" fill-rule="nonzero"/><path stroke="#ffffff" stroke-width="1.0" stroke-linejoin="round" stroke-linecap="round" d="M263.7408 195.40741C259.17014 215.43282 271.69867 235.37186 291.7241 239.94252C311.74948 244.5132 331.68854 231.98466 336.2592 211.95926C340.82986 191.93385 328.30133 171.99481 308.2759 167.42413L333.1037 58.646557C413.2053 76.92922 463.31946 156.68542 445.03677 236.78703C426.75412 316.88864 346.9979 367.00278 266.8963 348.72012C186.79471 330.43744 136.68056 250.68123 154.96323 170.57964" fill-rule="nonzero"/><path stroke="#ffffff" stroke-width="1.0" stroke-linejoin="round" stroke-linecap="round" d="M300.0 166.49167C282.6481 166.49167 267.60196 178.49055 263.7408 195.40741L154.96323 170.57964C170.40787 102.91222 230.59239 54.916668 300.0 54.916668" fill-rule="nonzero"/><path fill="#efefef" d="M27.3 76.23527L28.815624 76.23527L28.815624 82.84464Q28.815624 84.57902 28.425 85.59464Q28.034374 86.61027 27.01875 87.25089Q26.003124 87.89152 24.346874 87.89152Q22.7375 87.89152 21.70625 87.32902Q20.690624 86.76652 20.253124 85.71964Q19.815624 84.67277 19.815624 82.84464L19.815624 76.23527L21.33125 76.23527L21.33125 82.84464Q21.33125 84.32902 21.596874 85.04777Q21.878124 85.75089 22.55 86.14152Q23.2375 86.51652 24.20625 86.51652Q25.878124 86.51652 26.58125 85.76652Q27.3 85.00089 27.3 82.84464L27.3 76.23527ZM31.596874 87.68839L31.596874 79.39152L32.8625 79.39152L32.8625 80.64152Q33.346874 79.76652 33.753124 79.48527Q34.159374 79.20402 34.659374 79.20402Q35.3625 79.20402 36.096874 79.65714L35.6125 80.95402Q35.096874 80.65714 34.58125 80.65714Q34.128124 80.65714 33.753124 80.93839Q33.39375 81.20402 33.2375 81.70402Q33.003124 82.45402 33.003124 83.34464L33.003124 87.68839L31.596874 87.68839ZM37.909374 87.68839L36.596874 87.68839L36.596874 76.23527L38.003124 76.23527L38.003124 80.31339Q38.89375 79.20402 40.284374 79.20402Q41.05 79.20402 41.721874 79.51652Q42.409374 79.81339 42.846874 80.37589Q43.3 80.93839 43.55 81.73527Q43.8 82.51652 43.8 83.40714Q43.8 85.54777 42.7375 86.71964Q41.690624 87.87589 40.20625 87.87589Q38.7375 87.87589 37.909374 86.64152L37.909374 87.68839ZM37.89375 83.46964Q37.89375 84.96964 38.3 85.62589Q38.95625 86.71964 40.096874 86.71964Q41.01875 86.71964 41.690624 85.92277Q42.3625 85.11027 42.3625 83.53214Q42.3625 81.90714 41.70625 81.14152Q41.065624 80.36027 40.159374 80.36027Q39.2375 80.36027 38.565624 81.15714Q37.89375 81.95402 37.89375 83.46964ZM51.01875 86.65714Q50.2375 87.32902 49.51875 87.61027Q48.8 87.87589 47.971874 87.87589Q46.596874 87.87589 45.8625 87.20402Q45.128124 86.53214 45.128124 85.50089Q45.128124 84.89152 45.409374 84.39152Q45.690624 83.87589 46.128124 83.57902Q46.58125 83.26652 47.14375 83.11027Q47.565624 83.00089 48.39375 82.90714Q50.096874 82.70402 50.909374 82.42277Q50.909374 82.12589 50.909374 82.04777Q50.909374 81.18839 50.51875 80.84464Q49.971874 80.36027 48.909374 80.36027Q47.925 80.36027 47.440624 80.71964Q46.971874 81.06339 46.753124 81.93839L45.378124 81.75089Q45.565624 80.87589 45.9875 80.32902Q46.425 79.78214 47.2375 79.50089Q48.05 79.20402 49.1125 79.20402Q50.175 79.20402 50.83125 79.45402Q51.503124 79.70402 51.815624 80.07902Q52.128124 80.45402 52.253124 81.03214Q52.33125 81.39152 52.33125 82.32902L52.33125 84.20402Q52.33125 86.17277 52.409374 86.68839Q52.503124 87.20402 52.76875 87.68839L51.3 87.68839Q51.08125 87.25089 51.01875 86.65714ZM50.909374 83.51652Q50.14375 83.82902 48.6125 84.04777Q47.7375 84.17277 47.378124 84.32902Q47.01875 84.48527 46.815624 84.79777Q46.628124 85.09464 46.628124 85.45402Q46.628124 86.01652 47.05 86.39152Q47.4875 86.76652 48.3 86.76652Q49.1125 86.76652 49.7375 86.42277Q50.378124 86.06339 50.675 85.43839Q50.909374 84.96964 50.909374 84.03214L50.909374 83.51652ZM54.6125 87.68839L54.6125 79.39152L55.878124 79.39152L55.878124 80.56339Q56.784374 79.20402 58.51875 79.20402Q59.26875 79.20402 59.89375 79.46964Q60.51875 79.73527 60.83125 80.17277Q61.14375 80.61027 61.26875 81.21964Q61.346874 81.61027 61.346874 82.57902L61.346874 87.68839L59.940624 87.68839L59.940624 82.64152Q59.940624 81.78214 59.76875 81.36027Q59.6125 80.92277 59.190624 80.67277Q58.784374 80.42277 58.221874 80.42277Q57.315624 80.42277 56.659374 81.00089Q56.01875 81.56339 56.01875 83.15714L56.01875 87.68839L54.6125 87.68839ZM63.05 85.20402L64.44063 84.98527Q64.55 85.82902 65.08125 86.28214Q65.62813 86.71964 66.58125 86.71964Q67.55 86.71964 68.01875 86.32902Q68.4875 85.92277 68.4875 85.39152Q68.4875 84.92277 68.08125 84.64152Q67.78438 84.45402 66.64375 84.17277Q65.09688 83.78214 64.4875 83.50089Q63.89375 83.20402 63.58125 82.70402Q63.284374 82.20402 63.284374 81.59464Q63.284374 81.03214 63.534374 80.56339Q63.784374 80.09464 64.22188 79.78214Q64.55 79.53214 65.1125 79.37589Q65.69063 79.20402 66.33125 79.20402Q67.31563 79.20402 68.05 79.48527Q68.78438 79.76652 69.12813 80.25089Q69.4875 80.71964 69.62813 81.53214L68.25313 81.71964Q68.15938 81.07902 67.70625 80.71964Q67.25313 80.36027 66.44063 80.36027Q65.47188 80.36027 65.05 80.68839Q64.64375 81.00089 64.64375 81.42277Q64.64375 81.70402 64.81563 81.92277Q64.9875 82.14152 65.34688 82.29777Q65.56563 82.37589 66.59688 82.65714Q68.08125 83.04777 68.675 83.31339Q69.26875 83.56339 69.59688 84.04777Q69.94063 84.53214 69.94063 85.25089Q69.94063 85.95402 69.51875 86.57902Q69.1125 87.18839 68.33125 87.53214Q67.56563 87.87589 66.59688 87.87589Q64.97188 87.87589 64.12813 87.20402Q63.284374 86.53214 63.05 85.20402ZM77.01875 84.64152L78.40938 84.82902Q78.175 86.25089 77.2375 87.06339Q76.31563 87.87589 74.95625 87.87589Q73.25313 87.87589 72.20625 86.76652Q71.175 85.64152 71.175 83.56339Q71.175 82.21964 71.6125 81.21964Q72.06563 80.20402 72.97188 79.70402Q73.89375 79.20402 74.95625 79.20402Q76.31563 79.20402 77.175 79.89152Q78.03438 80.56339 78.26875 81.82902L76.90938 82.03214Q76.70625 81.20402 76.20625 80.78214Q75.72188 80.36027 75.01875 80.36027Q73.95625 80.36027 73.28438 81.12589Q72.62813 81.87589 72.62813 83.53214Q72.62813 85.20402 73.26875 85.96964Q73.90938 86.71964 74.94063 86.71964Q75.76875 86.71964 76.31563 86.21964Q76.87813 85.70402 77.01875 84.64152ZM85.01875 86.65714Q84.2375 87.32902 83.51875 87.61027Q82.8 87.87589 81.97188 87.87589Q80.59688 87.87589 79.8625 87.20402Q79.12813 86.53214 79.12813 85.50089Q79.12813 84.89152 79.40938 84.39152Q79.69063 83.87589 80.12813 83.57902Q80.58125 83.26652 81.14375 83.11027Q81.56563 83.00089 82.39375 82.90714Q84.09688 82.70402 84.90938 82.42277Q84.90938 82.12589 84.90938 82.04777Q84.90938 81.18839 84.51875 80.84464Q83.97188 80.36027 82.90938 80.36027Q81.925 80.36027 81.44063 80.71964Q80.97188 81.06339 80.75313 81.93839L79.37813 81.75089Q79.56563 80.87589 79.9875 80.32902Q80.425 79.78214 81.2375 79.50089Q82.05 79.20402 83.1125 79.20402Q84.175 79.20402 84.83125 79.45402Q85.50313 79.70402 85.81563 80.07902Q86.12813 80.45402 86.25313 81.03214Q86.33125 81.39152 86.33125 82.32902L86.33125 84.20402Q86.33125 86.17277 86.40938 86.68839Q86.50313 87.20402 86.76875 87.68839L85.3 87.68839Q85.08125 87.25089 85.01875 86.65714ZM84.90938 83.51652Q84.14375 83.82902 82.6125 84.04777Q81.7375 84.17277 81.37813 84.32902Q81.01875 84.48527 80.81563 84.79777Q80.62813 85.09464 80.62813 85.45402Q80.62813 86.01652 81.05 86.39152Q81.4875 86.76652 82.3 86.76652Q83.1125 86.76652 83.7375 86.42277Q84.37813 86.06339 84.675 85.43839Q84.90938 84.96964 84.90938 84.03214L84.90938 83.51652ZM88.6125 90.87589L88.6125 79.39152L89.89375 79.39152L89.89375 80.46964Q90.34688 79.82902 90.90938 79.51652Q91.4875 79.20402 92.3 79.20402Q93.3625 79.20402 94.175 79.75089Q94.9875 80.29777 95.39375 81.29777Q95.81563 82.28214 95.81563 83.46964Q95.81563 84.75089 95.34688 85.76652Q94.89375 86.78214 94.01875 87.32902Q93.15938 87.87589 92.19063 87.87589Q91.4875 87.87589 90.925 87.57902Q90.37813 87.28214 90.01875 86.82902L90.01875 90.87589L88.6125 90.87589ZM89.87813 83.57902Q89.87813 85.18839 90.51875 85.95402Q91.175 86.71964 92.09688 86.71964Q93.03438 86.71964 93.70625 85.92277Q94.37813 85.12589 94.37813 83.46964Q94.37813 81.87589 93.72188 81.09464Q93.06563 80.29777 92.15938 80.29777Q91.26875 80.29777 90.56563 81.14152Q89.87813 81.98527 89.87813 83.57902ZM103.28438 85.01652L104.7375 85.18839Q104.39375 86.46964 103.45625 87.17277Q102.53438 87.87589 101.09688 87.87589Q99.26875 87.87589 98.20625 86.75089Q97.14375 85.62589 97.14375 83.61027Q97.14375 81.51652 98.22188 80.36027Q99.3 79.20402 101.01875 79.20402Q102.675 79.20402 103.72188 80.34464Q104.78438 81.46964 104.78438 83.51652Q104.78438 83.64152 104.78438 83.89152L98.59688 83.89152Q98.675 85.26652 99.3625 86.00089Q100.06563 86.71964 101.09688 86.71964Q101.87813 86.71964 102.425 86.31339Q102.97188 85.90714 103.28438 85.01652ZM98.675 82.73527L103.3 82.73527Q103.20625 81.68839 102.76875 81.17277Q102.09688 80.36027 101.03438 80.36027Q100.06563 80.36027 99.39375 81.01652Q98.7375 81.65714 98.675 82.73527Z" fill-rule="nonzero"/><path fill="#9e9e9e" d="M26.6125 108.32902L26.6125 109.68839L19.034374 109.68839Q19.01875 109.17277 19.20625 108.70402Q19.4875 107.93839 20.128124 107.18839Q20.76875 106.43839 21.971874 105.45402Q23.83125 103.92277 24.4875 103.03214Q25.14375 102.12589 25.14375 101.32902Q25.14375 100.50089 24.55 99.92277Q23.95625 99.34464 22.9875 99.34464Q21.971874 99.34464 21.3625 99.95402Q20.753124 100.56339 20.753124 101.64152L19.3 101.50089Q19.45625 99.87589 20.425 99.03214Q21.39375 98.18839 23.01875 98.18839Q24.675 98.18839 25.628124 99.11027Q26.596874 100.01652 26.596874 101.36027Q26.596874 102.04777 26.315624 102.71964Q26.034374 103.37589 25.378124 104.11027Q24.721874 104.84464 23.20625 106.12589Q21.940624 107.18839 21.58125 107.57902Q21.221874 107.95402 20.9875 108.32902L26.6125 108.32902ZM33.51875 109.68839L32.1125 109.68839L32.1125 100.71964Q31.596874 101.20402 30.76875 101.68839Q29.95625 102.17277 29.3 102.42277L29.3 101.06339Q30.471874 100.50089 31.346874 99.71964Q32.2375 98.92277 32.6125 98.18839L33.51875 98.18839L33.51875 109.68839ZM38.003124 109.68839L38.003124 108.07902L39.6125 108.07902L39.6125 109.68839L38.003124 109.68839ZM45.721874 109.68839L45.721874 106.93839L40.753124 106.93839L40.753124 105.65714L45.9875 98.23527L47.128124 98.23527L47.128124 105.65714L48.675 105.65714L48.675 106.93839L47.128124 106.93839L47.128124 109.68839L45.721874 109.68839ZM45.721874 105.65714L45.721874 100.48527L42.14375 105.65714L45.721874 105.65714ZM50.4875 100.98527Q50.4875 99.75089 51.096874 98.89152Q51.721874 98.03214 52.89375 98.03214Q53.971874 98.03214 54.675 98.81339Q55.378124 99.57902 55.378124 101.06339Q55.378124 102.51652 54.659374 103.31339Q53.95625 104.09464 52.909374 104.09464Q51.8625 104.09464 51.175 103.32902Q50.4875 102.54777 50.4875 100.98527ZM52.925 99.00089Q52.409374 99.00089 52.05 99.45402Q51.70625 99.90714 51.70625 101.12589Q51.70625 102.21964 52.05 102.67277Q52.409374 103.12589 52.925 103.12589Q53.45625 103.12589 53.8 102.67277Q54.159374 102.21964 54.159374 101.01652Q54.159374 99.90714 53.8 99.45402Q53.45625 99.00089 52.925 99.00089ZM52.940624 110.11027L59.20625 98.03214L60.346874 98.03214L54.096874 110.11027L52.940624 110.11027ZM57.89375 107.00089Q57.89375 105.76652 58.503124 104.90714Q59.128124 104.04777 60.3 104.04777Q61.378124 104.04777 62.08125 104.82902Q62.8 105.59464 62.8 107.07902Q62.8 108.53214 62.08125 109.32902Q61.3625 110.11027 60.315624 110.11027Q59.26875 110.11027 58.58125 109.32902Q57.89375 108.54777 57.89375 107.00089ZM60.346874 105.01652Q59.815624 105.01652 59.45625 105.46964Q59.1125 105.92277 59.1125 107.14152Q59.1125 108.23527 59.45625 108.68839Q59.815624 109.14152 60.33125 109.14152Q60.878124 109.14152 61.221874 108.68839Q61.565624 108.23527 61.565624 107.03214Q61.565624 105.92277 61.20625 105.46964Q60.8625 105.01652 60.346874 105.01652Z" fill-rule="nonzero"/><path stroke="#757575" stroke-width="1.0" stroke-linecap="butt" d="M18.55 93.18839L145.23334 93.18839L211.88322 93.18839" fill-rule="nonzero"/><path fill="#9e9e9e" d="M213.88322 93.18839C213.88322 92.083824 212.9878 91.18839 211.88322 91.18839C210.77866 91.18839 209.88322 92.083824 209.88322 93.18839C209.88322 94.29296 210.77866 95.18839 211.88322 95.18839C212.9878 95.18839 213.88322 94.29296 213.88322 93.18839" fill-rule="nonzero"/><path fill="#efefef" d="M490.23126 64.33854Q490.23126 61.479164 491.7625 59.86979Q493.29376 58.260414 495.71564 58.260414Q497.29376 58.260414 498.5594 59.02604Q499.84064 59.77604 500.5125 61.135414Q501.1844 62.479164 501.1844 64.197914Q501.1844 65.947914 500.48126 67.322914Q499.77814 68.697914 498.48126 69.416664Q497.2 70.11979 495.7 70.11979Q494.09064 70.11979 492.8094 69.33854Q491.54376 68.541664 490.8875 67.197914Q490.23126 65.83854 490.23126 64.33854ZM491.79376 64.354164Q491.79376 66.43229 492.90314 67.61979Q494.0125 68.80729 495.7 68.80729Q497.40314 68.80729 498.5125 67.604164Q499.6219 66.40104 499.6219 64.197914Q499.6219 62.791664 499.1375 61.760414Q498.66876 60.71354 497.7625 60.135414Q496.85626 59.55729 495.71564 59.55729Q494.10626 59.55729 492.95 60.666664Q491.79376 61.77604 491.79376 64.354164ZM502.4969 69.916664L502.4969 61.61979L503.7625 61.61979L503.7625 62.86979Q504.2469 61.99479 504.65314 61.71354Q505.0594 61.43229 505.5594 61.43229Q506.2625 61.43229 506.9969 61.885414L506.5125 63.18229Q505.9969 62.885414 505.48126 62.885414Q505.02814 62.885414 504.65314 63.166664Q504.29376 63.43229 504.1375 63.93229Q503.90314 64.68229 503.90314 65.572914L503.90314 69.916664L502.4969 69.916664ZM510.575 68.65104L510.77814 69.90104Q510.1844 70.02604 509.71564 70.02604Q508.95 70.02604 508.52814 69.791664Q508.10626 69.541664 507.9344 69.15104Q507.7625 68.74479 507.7625 67.479164L507.7625 62.71354L506.73126 62.71354L506.73126 61.61979L507.7625 61.61979L507.7625 59.55729L509.16876 58.71354L509.16876 61.61979L510.575 61.61979L510.575 62.71354L509.16876 62.71354L509.16876 67.55729Q509.16876 68.166664 509.23126 68.33854Q509.3094 68.510414 509.48126 68.61979Q509.65314 68.71354 509.96564 68.71354Q510.2 68.71354 510.575 68.65104ZM511.5125 69.916664L511.5125 58.46354L512.91876 58.46354L512.91876 62.572914Q513.90314 61.43229 515.40314 61.43229Q516.325 61.43229 516.9969 61.791664Q517.6844 62.15104 517.96564 62.791664Q518.2625 63.43229 518.2625 64.65104L518.2625 69.916664L516.85626 69.916664L516.85626 64.65104Q516.85626 63.604164 516.40314 63.11979Q515.95 62.635414 515.10626 62.635414Q514.48126 62.635414 513.9344 62.96354Q513.3875 63.291664 513.15314 63.854164Q512.91876 64.40104 512.91876 65.36979L512.91876 69.916664L511.5125 69.916664ZM519.98126 65.760414Q519.98126 63.46354 521.2625 62.354164Q522.34064 61.43229 523.8719 61.43229Q525.59064 61.43229 526.66876 62.55729Q527.7625 63.666664 527.7625 65.65104Q527.7625 67.24479 527.27814 68.166664Q526.79376 69.08854 525.8719 69.604164Q524.96564 70.104164 523.8719 70.104164Q522.1375 70.104164 521.0594 68.99479Q519.98126 67.86979 519.98126 65.760414ZM521.4344 65.760414Q521.4344 67.354164 522.1219 68.15104Q522.825 68.947914 523.8719 68.947914Q524.91876 68.947914 525.60626 68.15104Q526.3094 67.354164 526.3094 65.71354Q526.3094 64.18229 525.60626 63.385414Q524.91876 62.58854 523.8719 62.58854Q522.825 62.58854 522.1219 63.385414Q521.4344 64.166664 521.4344 65.760414ZM529.2469 70.604164L530.6219 70.80729Q530.7 71.447914 531.09064 71.729164Q531.6219 72.11979 532.52814 72.11979Q533.4969 72.11979 534.02814 71.729164Q534.5594 71.33854 534.7469 70.635414Q534.85626 70.21354 534.85626 68.822914Q533.9344 69.916664 532.5594 69.916664Q530.84064 69.916664 529.90314 68.68229Q528.96564 67.447914 528.96564 65.71354Q528.96564 64.52604 529.3875 63.52604Q529.825 62.52604 530.6375 61.979164Q531.46564 61.43229 532.5594 61.43229Q534.02814 61.43229 534.98126 62.61979L534.98126 61.61979L536.27814 61.61979L536.27814 68.791664Q536.27814 70.729164 535.8875 71.541664Q535.4969 72.354164 534.6375 72.822914Q533.77814 73.291664 532.52814 73.291664Q531.04376 73.291664 530.1219 72.61979Q529.21564 71.947914 529.2469 70.604164ZM530.41876 65.61979Q530.41876 67.24479 531.0594 67.99479Q531.71564 68.74479 532.6844 68.74479Q533.65314 68.74479 534.3094 68.010414Q534.96564 67.260414 534.96564 65.666664Q534.96564 64.135414 534.29376 63.36979Q533.6219 62.58854 532.66876 62.58854Q531.73126 62.58854 531.075 63.354164Q530.41876 64.11979 530.41876 65.61979ZM538.4969 69.916664L538.4969 61.61979L539.7625 61.61979L539.7625 62.86979Q540.2469 61.99479 540.65314 61.71354Q541.0594 61.43229 541.5594 61.43229Q542.2625 61.43229 542.9969 61.885414L542.5125 63.18229Q541.9969 62.885414 541.48126 62.885414Q541.02814 62.885414 540.65314 63.166664Q540.29376 63.43229 540.1375 63.93229Q539.90314 64.68229 539.90314 65.572914L539.90314 69.916664L538.4969 69.916664ZM548.91876 68.885414Q548.1375 69.55729 547.41876 69.83854Q546.7 70.104164 545.8719 70.104164Q544.4969 70.104164 543.7625 69.43229Q543.02814 68.760414 543.02814 67.729164Q543.02814 67.11979 543.3094 66.61979Q543.59064 66.104164 544.02814 65.80729Q544.48126 65.49479 545.04376 65.33854Q545.46564 65.229164 546.29376 65.135414Q547.9969 64.93229 548.8094 64.65104Q548.8094 64.354164 548.8094 64.27604Q548.8094 63.416664 548.41876 63.072914Q547.8719 62.58854 546.8094 62.58854Q545.825 62.58854 545.34064 62.947914Q544.8719 63.291664 544.65314 64.166664L543.27814 63.979164Q543.46564 63.104164 543.8875 62.55729Q544.325 62.010414 545.1375 61.729164Q545.95 61.43229 547.0125 61.43229Q548.075 61.43229 548.73126 61.68229Q549.40314 61.93229 549.71564 62.30729Q550.02814 62.68229 550.15314 63.260414Q550.23126 63.61979 550.23126 64.55729L550.23126 66.43229Q550.23126 68.40104 550.3094 68.916664Q550.40314 69.43229 550.66876 69.916664L549.2 69.916664Q548.98126 69.479164 548.91876 68.885414ZM548.8094 65.74479Q548.04376 66.05729 546.5125 66.27604Q545.6375 66.40104 545.27814 66.55729Q544.91876 66.71354 544.71564 67.02604Q544.52814 67.322914 544.52814 67.68229Q544.52814 68.24479 544.95 68.61979Q545.3875 68.99479 546.2 68.99479Q547.0125 68.99479 547.6375 68.65104Q548.27814 68.291664 548.575 67.666664Q548.8094 67.197914 548.8094 66.260414L548.8094 65.74479ZM552.5125 73.104164L552.5125 61.61979L553.79376 61.61979L553.79376 62.697914Q554.2469 62.05729 554.8094 61.74479Q555.3875 61.43229 556.2 61.43229Q557.2625 61.43229 558.075 61.979164Q558.8875 62.52604 559.29376 63.52604Q559.71564 64.510414 559.71564 65.697914Q559.71564 66.979164 559.2469 67.99479Q558.79376 69.010414 557.91876 69.55729Q557.0594 70.104164 556.09064 70.104164Q555.3875 70.104164 554.825 69.80729Q554.27814 69.510414 553.91876 69.05729L553.91876 73.104164L552.5125 73.104164ZM553.77814 65.80729Q553.77814 67.416664 554.41876 68.18229Q555.075 68.947914 555.9969 68.947914Q556.9344 68.947914 557.60626 68.15104Q558.27814 67.354164 558.27814 65.697914Q558.27814 64.104164 557.6219 63.322914Q556.96564 62.52604 556.0594 62.52604Q555.16876 62.52604 554.46564 63.36979Q553.77814 64.21354 553.77814 65.80729ZM561.5125 69.916664L561.5125 58.46354L562.91876 58.46354L562.91876 62.572914Q563.90314 61.43229 565.40314 61.43229Q566.325 61.43229 566.9969 61.791664Q567.6844 62.15104 567.96564 62.791664Q568.2625 63.43229 568.2625 64.65104L568.2625 69.916664L566.85626 69.916664L566.85626 64.65104Q566.85626 63.604164 566.40314 63.11979Q565.95 62.635414 565.10626 62.635414Q564.48126 62.635414 563.9344 62.96354Q563.3875 63.291664 563.15314 63.854164Q562.91876 64.40104 562.91876 65.36979L562.91876 69.916664L561.5125 69.916664ZM570.5125 60.072914L570.5125 58.46354L571.91876 58.46354L571.91876 60.072914L570.5125 60.072914ZM570.5125 69.916664L570.5125 61.61979L571.91876 61.61979L571.91876 69.916664L570.5125 69.916664ZM579.91876 66.86979L581.3094 67.05729Q581.075 68.479164 580.1375 69.291664Q579.21564 70.104164 577.85626 70.104164Q576.15314 70.104164 575.10626 68.99479Q574.075 67.86979 574.075 65.791664Q574.075 64.447914 574.5125 63.447914Q574.96564 62.43229 575.8719 61.93229Q576.79376 61.43229 577.85626 61.43229Q579.21564 61.43229 580.075 62.11979Q580.9344 62.791664 581.16876 64.05729L579.8094 64.260414Q579.60626 63.43229 579.10626 63.010414Q578.6219 62.58854 577.91876 62.58854Q576.85626 62.58854 576.1844 63.354164Q575.52814 64.104164 575.52814 65.760414Q575.52814 67.43229 576.16876 68.197914Q576.8094 68.947914 577.84064 68.947914Q578.66876 68.947914 579.21564 68.447914Q579.77814 67.93229 579.91876 66.86979Z" fill-rule="nonzero"/><path fill="#9e9e9e" d="M546.1219 88.885414L547.52814 88.697914Q547.77814 89.90104 548.35626 90.43229Q548.9344 90.947914 549.77814 90.947914Q550.7625 90.947914 551.45 90.260414Q552.1375 89.572914 552.1375 88.55729Q552.1375 87.58854 551.4969 86.96354Q550.8719 86.33854 549.8875 86.33854Q549.4969 86.33854 548.90314 86.49479L549.0594 85.260414Q549.2 85.27604 549.27814 85.27604Q550.1844 85.27604 550.90314 84.80729Q551.6219 84.33854 551.6219 83.354164Q551.6219 82.58854 551.09064 82.08854Q550.575 81.572914 549.7469 81.572914Q548.91876 81.572914 548.3719 82.08854Q547.825 82.604164 547.66876 83.635414L546.2625 83.385414Q546.52814 81.96354 547.4344 81.197914Q548.35626 80.416664 549.71564 80.416664Q550.65314 80.416664 551.4344 80.822914Q552.23126 81.21354 552.6375 81.916664Q553.0594 82.604164 553.0594 83.385414Q553.0594 84.135414 552.65314 84.74479Q552.2625 85.354164 551.48126 85.71354Q552.4969 85.947914 553.0594 86.68229Q553.6219 87.416664 553.6219 88.52604Q553.6219 90.02604 552.52814 91.072914Q551.4344 92.11979 549.7625 92.11979Q548.2625 92.11979 547.2625 91.229164Q546.2625 90.322914 546.1219 88.885414ZM555.90314 91.916664L555.90314 90.30729L557.5125 90.30729L557.5125 91.916664L555.90314 91.916664ZM566.41876 83.260414L565.0125 83.36979Q564.825 82.541664 564.48126 82.166664Q563.91876 81.572914 563.075 81.572914Q562.40314 81.572914 561.90314 81.947914Q561.23126 82.43229 560.84064 83.36979Q560.46564 84.291664 560.45 86.010414Q560.96564 85.229164 561.7 84.854164Q562.4344 84.479164 563.23126 84.479164Q564.6375 84.479164 565.6219 85.52604Q566.6219 86.55729 566.6219 88.197914Q566.6219 89.27604 566.15314 90.197914Q565.6844 91.11979 564.8719 91.61979Q564.0594 92.11979 563.02814 92.11979Q561.27814 92.11979 560.16876 90.822914Q559.0594 89.52604 559.0594 86.55729Q559.0594 83.229164 560.27814 81.729164Q561.35626 80.416664 563.16876 80.416664Q564.5125 80.416664 565.3719 81.18229Q566.2469 81.93229 566.41876 83.260414ZM560.66876 88.197914Q560.66876 88.93229 560.98126 89.604164Q561.29376 90.260414 561.84064 90.604164Q562.40314 90.947914 563.0125 90.947914Q563.90314 90.947914 564.54376 90.229164Q565.1844 89.510414 565.1844 88.27604Q565.1844 87.08854 564.54376 86.416664Q563.91876 85.729164 562.95 85.729164Q561.9969 85.729164 561.325 86.416664Q560.66876 87.08854 560.66876 88.197914ZM568.3875 83.21354Q568.3875 81.979164 568.9969 81.11979Q569.6219 80.260414 570.79376 80.260414Q571.8719 80.260414 572.575 81.041664Q573.27814 81.80729 573.27814 83.291664Q573.27814 84.74479 572.5594 85.541664Q571.85626 86.322914 570.8094 86.322914Q569.7625 86.322914 569.075 85.55729Q568.3875 84.77604 568.3875 83.21354ZM570.825 81.229164Q570.3094 81.229164 569.95 81.68229Q569.60626 82.135414 569.60626 83.354164Q569.60626 84.447914 569.95 84.90104Q570.3094 85.354164 570.825 85.354164Q571.35626 85.354164 571.7 84.90104Q572.0594 84.447914 572.0594 83.24479Q572.0594 82.135414 571.7 81.68229Q571.35626 81.229164 570.825 81.229164ZM570.84064 92.33854L577.10626 80.260414L578.2469 80.260414L571.9969 92.33854L570.84064 92.33854ZM575.79376 89.229164Q575.79376 87.99479 576.40314 87.135414Q577.02814 86.27604 578.2 86.27604Q579.27814 86.27604 579.98126 87.05729Q580.7 87.822914 580.7 89.30729Q580.7 90.760414 579.98126 91.55729Q579.2625 92.33854 578.21564 92.33854Q577.16876 92.33854 576.48126 91.55729Q575.79376 90.77604 575.79376 89.229164ZM578.2469 87.24479Q577.71564 87.24479 577.35626 87.697914Q577.0125 88.15104 577.0125 89.36979Q577.0125 90.46354 577.35626 90.916664Q577.71564 91.36979 578.23126 91.36979Q578.77814 91.36979 579.1219 90.916664Q579.46564 90.46354 579.46564 89.260414Q579.46564 88.15104 579.10626 87.697914Q578.7625 87.24479 578.2469 87.24479Z" fill-rule="nonzero"/><path stroke="#757575" stroke-width="1.0" stroke-linecap="butt" d="M581.45 75.416664L454.76666 75.416664L315.82376 63.243645" fill-rule="nonzero"/><path fill="#9e9e9e" d="M317.82376 63.243645C317.82376 62.139072 316.9283 61.243645 315.82376 61.243645C314.71918 61.243645 313.82376 62.139072 313.82376 63.243645C313.82376 64.34821 314.71918 65.243645 315.82376 65.243645C316.9283 65.243645 317.82376 64.34821 317.82376 63.243645" fill-rule="nonzero"/><path fill="#efefef" d="M498.6844 317.84946L498.6844 306.39633L503.0125 306.39633Q504.15314 306.39633 504.7469 306.5057Q505.59064 306.64633 506.15314 307.03696Q506.73126 307.42758 507.075 308.14633Q507.4344 308.84946 507.4344 309.70883Q507.4344 311.16196 506.4969 312.17758Q505.575 313.1932 503.1375 313.1932L500.2 313.1932L500.2 317.84946L498.6844 317.84946ZM500.2 311.83383L503.16876 311.83383Q504.6375 311.83383 505.2469 311.28696Q505.8719 310.74008 505.8719 309.7557Q505.8719 309.03696 505.4969 308.52133Q505.1375 308.0057 504.54376 307.84946Q504.16876 307.74008 503.1375 307.74008L500.2 307.74008L500.2 311.83383ZM515.1844 315.17758L516.6375 315.34946Q516.29376 316.6307 515.35626 317.33383Q514.4344 318.03696 512.9969 318.03696Q511.16876 318.03696 510.10626 316.91196Q509.04376 315.78696 509.04376 313.77133Q509.04376 311.67758 510.1219 310.52133Q511.2 309.36508 512.91876 309.36508Q514.575 309.36508 515.6219 310.5057Q516.6844 311.6307 516.6844 313.67758Q516.6844 313.80258 516.6844 314.05258L510.4969 314.05258Q510.575 315.42758 511.2625 316.16196Q511.96564 316.8807 512.9969 316.8807Q513.77814 316.8807 514.325 316.47446Q514.8719 316.0682 515.1844 315.17758ZM510.575 312.89633L515.2 312.89633Q515.10626 311.84946 514.66876 311.33383Q513.9969 310.52133 512.9344 310.52133Q511.96564 310.52133 511.29376 311.17758Q510.6375 311.8182 510.575 312.89633ZM518.4969 317.84946L518.4969 309.55258L519.7625 309.55258L519.7625 310.80258Q520.2469 309.92758 520.65314 309.64633Q521.0594 309.36508 521.5594 309.36508Q522.2625 309.36508 522.9969 309.8182L522.5125 311.11508Q521.9969 310.8182 521.48126 310.8182Q521.02814 310.8182 520.65314 311.09946Q520.29376 311.36508 520.1375 311.86508Q519.90314 312.61508 519.90314 313.5057L519.90314 317.84946L518.4969 317.84946ZM522.95 315.36508L524.34064 315.14633Q524.45 315.99008 524.98126 316.4432Q525.52814 316.8807 526.48126 316.8807Q527.45 316.8807 527.91876 316.49008Q528.3875 316.08383 528.3875 315.55258Q528.3875 315.08383 527.98126 314.80258Q527.6844 314.61508 526.54376 314.33383Q524.9969 313.9432 524.3875 313.66196Q523.79376 313.36508 523.48126 312.86508Q523.1844 312.36508 523.1844 311.7557Q523.1844 311.1932 523.4344 310.72446Q523.6844 310.2557 524.1219 309.9432Q524.45 309.6932 525.0125 309.53696Q525.59064 309.36508 526.23126 309.36508Q527.21564 309.36508 527.95 309.64633Q528.6844 309.92758 529.02814 310.41196Q529.3875 310.8807 529.52814 311.6932L528.15314 311.8807Q528.0594 311.24008 527.60626 310.8807Q527.15314 310.52133 526.34064 310.52133Q525.3719 310.52133 524.95 310.84946Q524.54376 311.16196 524.54376 311.58383Q524.54376 311.86508 524.71564 312.08383Q524.8875 312.30258 525.2469 312.45883Q525.46564 312.53696 526.4969 312.8182Q527.98126 313.20883 528.575 313.47446Q529.16876 313.72446 529.4969 314.20883Q529.84064 314.6932 529.84064 315.41196Q529.84064 316.11508 529.41876 316.74008Q529.0125 317.34946 528.23126 317.6932Q527.46564 318.03696 526.4969 318.03696Q524.8719 318.03696 524.02814 317.36508Q523.1844 316.6932 522.95 315.36508ZM531.5125 321.03696L531.5125 309.55258L532.79376 309.55258L532.79376 310.6307Q533.2469 309.99008 533.8094 309.67758Q534.3875 309.36508 535.2 309.36508Q536.2625 309.36508 537.075 309.91196Q537.8875 310.45883 538.29376 311.45883Q538.71564 312.4432 538.71564 313.6307Q538.71564 314.91196 538.2469 315.92758Q537.79376 316.9432 536.91876 317.49008Q536.0594 318.03696 535.09064 318.03696Q534.3875 318.03696 533.825 317.74008Q533.27814 317.4432 532.91876 316.99008L532.91876 321.03696L531.5125 321.03696ZM532.77814 313.74008Q532.77814 315.34946 533.41876 316.11508Q534.075 316.8807 534.9969 316.8807Q535.9344 316.8807 536.60626 316.08383Q537.27814 315.28696 537.27814 313.6307Q537.27814 312.03696 536.6219 311.2557Q535.96564 310.45883 535.0594 310.45883Q534.16876 310.45883 533.46564 311.30258Q532.77814 312.14633 532.77814 313.74008ZM546.1844 315.17758L547.6375 315.34946Q547.29376 316.6307 546.35626 317.33383Q545.4344 318.03696 543.9969 318.03696Q542.16876 318.03696 541.10626 316.91196Q540.04376 315.78696 540.04376 313.77133Q540.04376 311.67758 541.1219 310.52133Q542.2 309.36508 543.91876 309.36508Q545.575 309.36508 546.6219 310.5057Q547.6844 311.6307 547.6844 313.67758Q547.6844 313.80258 547.6844 314.05258L541.4969 314.05258Q541.575 315.42758 542.2625 316.16196Q542.96564 316.8807 543.9969 316.8807Q544.77814 316.8807 545.325 316.47446Q545.8719 316.0682 546.1844 315.17758ZM541.575 312.89633L546.2 312.89633Q546.10626 311.84946 545.66876 311.33383Q544.9969 310.52133 543.9344 310.52133Q542.96564 310.52133 542.29376 311.17758Q541.6375 311.8182 541.575 312.89633ZM554.91876 314.80258L556.3094 314.99008Q556.075 316.41196 555.1375 317.22446Q554.21564 318.03696 552.85626 318.03696Q551.15314 318.03696 550.10626 316.92758Q549.075 315.80258 549.075 313.72446Q549.075 312.3807 549.5125 311.3807Q549.96564 310.36508 550.8719 309.86508Q551.79376 309.36508 552.85626 309.36508Q554.21564 309.36508 555.075 310.05258Q555.9344 310.72446 556.16876 311.99008L554.8094 312.1932Q554.60626 311.36508 554.10626 310.9432Q553.6219 310.52133 552.91876 310.52133Q551.85626 310.52133 551.1844 311.28696Q550.52814 312.03696 550.52814 313.6932Q550.52814 315.36508 551.16876 316.1307Q551.8094 316.8807 552.84064 316.8807Q553.66876 316.8807 554.21564 316.3807Q554.77814 315.86508 554.91876 314.80258ZM560.575 316.58383L560.77814 317.83383Q560.1844 317.95883 559.71564 317.95883Q558.95 317.95883 558.52814 317.72446Q558.10626 317.47446 557.9344 317.08383Q557.7625 316.67758 557.7625 315.41196L557.7625 310.64633L556.73126 310.64633L556.73126 309.55258L557.7625 309.55258L557.7625 307.49008L559.16876 306.64633L559.16876 309.55258L560.575 309.55258L560.575 310.64633L559.16876 310.64633L559.16876 315.49008Q559.16876 316.09946 559.23126 316.27133Q559.3094 316.4432 559.48126 316.55258Q559.65314 316.64633 559.96564 316.64633Q560.2 316.64633 560.575 316.58383ZM561.5125 308.0057L561.5125 306.39633L562.91876 306.39633L562.91876 308.0057L561.5125 308.0057ZM561.5125 317.84946L561.5125 309.55258L562.91876 309.55258L562.91876 317.84946L561.5125 317.84946ZM567.8094 317.84946L564.65314 309.55258L566.1375 309.55258L567.91876 314.52133Q568.21564 315.3182 568.45 316.1932Q568.6375 315.53696 568.98126 314.61508L570.825 309.55258L572.2625 309.55258L569.1219 317.84946L567.8094 317.84946ZM579.1844 315.17758L580.6375 315.34946Q580.29376 316.6307 579.35626 317.33383Q578.4344 318.03696 576.9969 318.03696Q575.16876 318.03696 574.10626 316.91196Q573.04376 315.78696 573.04376 313.77133Q573.04376 311.67758 574.1219 310.52133Q575.2 309.36508 576.91876 309.36508Q578.575 309.36508 579.6219 310.5057Q580.6844 311.6307 580.6844 313.67758Q580.6844 313.80258 580.6844 314.05258L574.4969 314.05258Q574.575 315.42758 575.2625 316.16196Q575.96564 316.8807 576.9969 316.8807Q577.77814 316.8807 578.325 316.47446Q578.8719 316.0682 579.1844 315.17758ZM574.575 312.89633L579.2 312.89633Q579.10626 311.84946 578.66876 311.33383Q577.9969 310.52133 576.9344 310.52133Q575.96564 310.52133 575.29376 311.17758Q574.6375 311.8182 574.575 312.89633Z" fill-rule="nonzero"/><path fill="#9e9e9e" d="M537.21564 329.89633L537.21564 328.53696L544.6219 328.53696L544.6219 329.6307Q543.52814 330.80258 542.45 332.74008Q541.3875 334.66196 540.79376 336.6932Q540.3719 338.1307 540.2625 339.84946L538.8094 339.84946Q538.84064 338.49008 539.34064 336.58383Q539.85626 334.66196 540.79376 332.89633Q541.7469 331.11508 542.825 329.89633L537.21564 329.89633ZM546.1219 336.84946L547.59064 336.72446Q547.7625 337.80258 548.35626 338.34946Q548.95 338.8807 549.79376 338.8807Q550.8094 338.8807 551.5125 338.11508Q552.21564 337.34946 552.21564 336.08383Q552.21564 334.8807 551.54376 334.1932Q550.8719 333.49008 549.77814 333.49008Q549.09064 333.49008 548.54376 333.80258Q547.9969 334.11508 547.6844 334.59946L546.3719 334.42758L547.48126 328.55258L553.16876 328.55258L553.16876 329.89633L548.60626 329.89633L547.98126 332.97446Q549.0125 332.2557 550.15314 332.2557Q551.65314 332.2557 552.6844 333.30258Q553.71564 334.33383 553.71564 335.95883Q553.71564 337.52133 552.8094 338.64633Q551.7 340.05258 549.79376 340.05258Q548.23126 340.05258 547.2469 339.17758Q546.2625 338.28696 546.1219 336.84946ZM555.90314 339.84946L555.90314 338.24008L557.5125 338.24008L557.5125 339.84946L555.90314 339.84946ZM559.1219 334.1932Q559.1219 332.16196 559.52814 330.92758Q559.95 329.6932 560.77814 329.02133Q561.60626 328.34946 562.85626 328.34946Q563.77814 328.34946 564.46564 328.72446Q565.16876 329.08383 565.6219 329.78696Q566.075 330.49008 566.325 331.49008Q566.59064 332.49008 566.59064 334.1932Q566.59064 336.20883 566.16876 337.45883Q565.7625 338.6932 564.9344 339.3807Q564.10626 340.05258 562.85626 340.05258Q561.2 340.05258 560.2469 338.84946Q559.1219 337.42758 559.1219 334.1932ZM560.5594 334.1932Q560.5594 337.02133 561.21564 337.95883Q561.8875 338.8807 562.85626 338.8807Q563.825 338.8807 564.48126 337.9432Q565.1375 337.0057 565.1375 334.1932Q565.1375 331.36508 564.48126 330.4432Q563.825 329.5057 562.84064 329.5057Q561.8719 329.5057 561.29376 330.33383Q560.5594 331.3807 560.5594 334.1932ZM568.3875 331.14633Q568.3875 329.91196 568.9969 329.05258Q569.6219 328.1932 570.79376 328.1932Q571.8719 328.1932 572.575 328.97446Q573.27814 329.74008 573.27814 331.22446Q573.27814 332.67758 572.5594 333.47446Q571.85626 334.2557 570.8094 334.2557Q569.7625 334.2557 569.075 333.49008Q568.3875 332.70883 568.3875 331.14633ZM570.825 329.16196Q570.3094 329.16196 569.95 329.61508Q569.60626 330.0682 569.60626 331.28696Q569.60626 332.3807 569.95 332.83383Q570.3094 333.28696 570.825 333.28696Q571.35626 333.28696 571.7 332.83383Q572.0594 332.3807 572.0594 331.17758Q572.0594 330.0682 571.7 329.61508Q571.35626 329.16196 570.825 329.16196ZM570.84064 340.27133L577.10626 328.1932L578.2469 328.1932L571.9969 340.27133L570.84064 340.27133ZM575.79376 337.16196Q575.79376 335.92758 576.40314 335.0682Q577.02814 334.20883 578.2 334.20883Q579.27814 334.20883 579.98126 334.99008Q580.7 335.7557 580.7 337.24008Q580.7 338.6932 579.98126 339.49008Q579.2625 340.27133 578.21564 340.27133Q577.16876 340.27133 576.48126 339.49008Q575.79376 338.70883 575.79376 337.16196ZM578.2469 335.17758Q577.71564 335.17758 577.35626 335.6307Q577.0125 336.08383 577.0125 337.30258Q577.0125 338.39633 577.35626 338.84946Q577.71564 339.30258 578.23126 339.30258Q578.77814 339.30258 579.1219 338.84946Q579.46564 338.39633 579.46564 337.1932Q579.46564 336.08383 579.10626 335.6307Q578.7625 335.17758 578.2469 335.17758Z" fill-rule="nonzero"/><path stroke="#757575" stroke-width="1.0" stroke-linecap="butt" d="M581.45 323.34946L454.76666 323.34946L375.1912 323.34946" fill-rule="nonzero"/><path fill="#9e9e9e" d="M377.1912 323.34946C377.1912 322.24487 376.29578 321.34946 375.1912 321.34946C374.08664 321.34946 373.1912 322.24487 373.1912 323.34946C373.1912 324.454 374.08664 325.34946 375.1912 325.34946C376.29578 325.34946 377.1912 324.454 377.1912 323.34946" fill-rule="nonzero"/><path fill="#f3f3f3" d="M265.98438 37.55L265.98438 23.2375L268.84375 23.2375L272.21875 33.3625Q272.6875 34.784374 272.90625 35.4875Q273.15625 34.70625 273.67188 33.190624L277.09375 23.2375L279.64062 23.2375L279.64062 37.55L277.82812 37.55L277.82812 25.565624L273.65625 37.55L271.95312 37.55L267.8125 25.3625L267.8125 37.55L265.98438 37.55ZM289.92188 34.20625L291.73438 34.440624Q291.3125 36.01875 290.14062 36.909374Q288.98438 37.784374 287.17188 37.784374Q284.90625 37.784374 283.5625 36.39375Q282.23438 34.9875 282.23438 32.45625Q282.23438 29.83125 283.57812 28.39375Q284.92188 26.940624 287.07812 26.940624Q289.15625 26.940624 290.46875 28.3625Q291.79688 29.76875 291.79688 32.346874Q291.79688 32.503124 291.78125 32.815624L284.04688 32.815624Q284.14062 34.51875 285.01562 35.425Q285.89062 36.33125 287.1875 36.33125Q288.15625 36.33125 288.82812 35.83125Q289.51562 35.315624 289.92188 34.20625ZM284.14062 31.3625L289.9375 31.3625Q289.82812 30.065624 289.28125 29.409374Q288.4375 28.39375 287.09375 28.39375Q285.89062 28.39375 285.0625 29.20625Q284.23438 30.003124 284.14062 31.3625ZM300.54688 37.55L300.54688 36.2375Q299.5625 37.784374 297.64062 37.784374Q296.40625 37.784374 295.35938 37.096874Q294.32812 36.409374 293.75 35.190624Q293.1875 33.971874 293.1875 32.378124Q293.1875 30.815624 293.70312 29.55Q294.21875 28.284374 295.25 27.6125Q296.29688 26.940624 297.5625 26.940624Q298.5 26.940624 299.23438 27.346874Q299.96875 27.7375 300.4375 28.3625L300.4375 23.2375L302.17188 23.2375L302.17188 37.55L300.54688 37.55ZM294.98438 32.378124Q294.98438 34.3625 295.82812 35.346874Q296.67188 36.33125 297.8125 36.33125Q298.96875 36.33125 299.76562 35.39375Q300.57812 34.45625 300.57812 32.51875Q300.57812 30.39375 299.75 29.39375Q298.9375 28.39375 297.73438 28.39375Q296.5625 28.39375 295.76562 29.3625Q294.98438 30.315624 294.98438 32.378124ZM304.82812 25.253124L304.82812 23.2375L306.59375 23.2375L306.59375 25.253124L304.82812 25.253124ZM304.82812 37.55L304.82812 27.175L306.59375 27.175L306.59375 37.55L304.82812 37.55ZM315.60938 37.55L315.60938 36.01875Q314.40625 37.784374 312.32812 37.784374Q311.40625 37.784374 310.60938 37.440624Q309.8125 37.08125 309.42188 36.55Q309.04688 36.01875 308.89062 35.2375Q308.78125 34.721874 308.78125 33.596874L308.78125 27.175L310.53125 27.175L310.53125 32.925Q310.53125 34.3 310.64062 34.784374Q310.8125 35.471874 311.34375 35.878124Q311.89062 36.26875 312.67188 36.26875Q313.46875 36.26875 314.15625 35.8625Q314.85938 35.45625 315.14062 34.76875Q315.4375 34.065624 315.4375 32.7375L315.4375 27.175L317.1875 27.175L317.1875 37.55L315.60938 37.55ZM319.8125 37.55L319.8125 27.175L321.39062 27.175L321.39062 28.628124Q321.875 27.878124 322.6875 27.409374Q323.5 26.940624 324.53125 26.940624Q325.6875 26.940624 326.42188 27.425Q327.15625 27.89375 327.46875 28.753124Q328.70312 26.940624 330.67188 26.940624Q332.21875 26.940624 333.04688 27.8Q333.875 28.659374 333.875 30.425L333.875 37.55L332.125 37.55L332.125 31.01875Q332.125 29.95625 331.95312 29.503124Q331.78125 29.034374 331.32812 28.753124Q330.89062 28.471874 330.28125 28.471874Q329.1875 28.471874 328.45312 29.20625Q327.73438 29.925 327.73438 31.51875L327.73438 37.55L325.98438 37.55L325.98438 30.815624Q325.98438 29.64375 325.54688 29.065624Q325.125 28.471874 324.14062 28.471874Q323.40625 28.471874 322.76562 28.8625Q322.14062 29.253124 321.85938 30.003124Q321.57812 30.753124 321.57812 32.175L321.57812 37.55L319.8125 37.55Z" fill-rule="nonzero"/></svg>