<svg version="1.1" viewBox="0.0 0.0 600.0 371.0" fill="none" stroke="none" stroke-linecap="square" stroke-miterlimit="10" width="600" height="371" xmlns:xlink="http://www.w3.org/1999/xlink" xmlns="http://www.w3.org/2000/svg"><path fill="#ffffff" fill-opacity="0.0" d="M0 0L600.0 0L600.0 371.0L0 371.0L0 0Z" fill-rule="nonzero"/><path fill="#f7d750" d="M300.0 54.916668C341.45047 54.916668 381.02148 72.210205 409.17767 102.630104C437.3339 133.05 451.52194 173.83762 448.32297 215.16447L374.1615 209.4239C375.76096 188.76047 368.66693 168.36667 354.58884 153.15672C340.51074 137.94676 320.72525 129.3 300.0 129.3Z" fill-rule="nonzero"/><path fill="#8c4595" d="M213.80145 82.43429C238.98016 64.534195 269.10693 54.916668 300.0 54.916668L300.0 129.3C284.55347 129.3 269.49008 134.10876 256.90073 143.0588Z" fill-rule="nonzero"/><path fill="#78a94e" d="M196.16917 310.2229C164.57022 279.42734 148.27179 236.19385 151.67703 192.2022C155.08226 148.21054 177.83975 108.00023 213.80145 82.43429L256.90073 143.0588C238.91988 155.84178 227.54112 175.94695 225.83852 197.94276C224.1359 219.9386 232.28511 241.55534 248.0846 256.95312Z" fill-rule="nonzero"/><path fill="#2d4d98" d="M207.674 320.33423C203.66798 317.16357 199.82796 313.78867 196.16917 310.2229L248.0846 256.95312C249.91397 258.736 251.83398 260.42346 253.837 262.0088Z" fill-rule="nonzero"/><path fill="#4571b0" d="M220.1575 329.209C215.8467 326.46707 211.68001 323.50488 207.674 320.33423L253.837 262.0088C255.84001 263.59412 257.92334 265.0752 260.07874 266.44617Z" fill-rule="nonzero"/><path fill="#313d89" d="M277.1062 350.6779C256.84668 347.52252 237.4581 340.21332 220.1575 329.209L260.07874 266.44617C268.72903 271.94833 278.42334 275.60294 288.5531 277.1806Z" fill-rule="nonzero"/><path fill="#b3ca48" d="M292.34167 352.25275C287.2395 351.98975 282.1543 351.46408 277.1062 350.6779L288.5531 277.1806C291.07715 277.5737 293.61975 277.83655 296.17084 277.96805Z" fill-rule="nonzero"/><path fill="#f5ee58" d="M448.32297 215.16447C442.09726 295.59335 372.9042 356.40552 292.34167 352.25275L296.17084 277.96805C336.4521 280.04443 371.04865 249.63834 374.1615 209.4239Z" fill-rule="nonzero"/><path fill="#ffffff" d="M365.44577 132.87779L365.44577 134.39342L356.93015 134.39342Q356.91452 133.81529 357.11765 133.29967Q357.44577 132.42467 358.1489 131.58092Q358.86765 130.73717 360.22702 129.62779Q362.32077 127.90904 363.05515 126.90904Q363.80515 125.89342 363.80515 125.00279Q363.80515 124.04967 363.13327 123.40904Q362.4614 122.76842 361.38327 122.76842Q360.22702 122.76842 359.53952 123.45592Q358.86765 124.14342 358.85202 125.34654L357.22702 125.17467Q357.3989 123.36217 358.47702 122.40904Q359.57077 121.45592 361.41452 121.45592Q363.25827 121.45592 364.3364 122.48717Q365.43015 123.51842 365.43015 125.03404Q365.43015 125.79967 365.10202 126.54967Q364.78952 127.29967 364.05515 128.12779Q363.32077 128.95592 361.61765 130.39342Q360.19577 131.59654 359.78952 132.01842Q359.38327 132.44029 359.13327 132.87779L365.44577 132.87779ZM375.3364 124.65904L373.7739 124.78404Q373.55515 123.86217 373.16452 123.44029Q372.5239 122.75279 371.5864 122.75279Q370.8364 122.75279 370.25827 123.17467Q369.50827 123.72154 369.07077 124.76842Q368.6489 125.81529 368.63327 127.75279Q369.2114 126.87779 370.0239 126.45592Q370.85202 126.03404 371.75827 126.03404Q373.35202 126.03404 374.4614 127.20592Q375.57077 128.36217 375.57077 130.20592Q375.57077 131.42467 375.03952 132.47154Q374.5239 133.50279 373.60202 134.06529Q372.69577 134.61217 371.53952 134.61217Q369.55515 134.61217 368.30515 133.15904Q367.05515 131.70592 367.05515 128.36217Q367.05515 124.62779 368.44577 122.92467Q369.6489 121.45592 371.68015 121.45592Q373.2114 121.45592 374.18015 122.31529Q375.1489 123.15904 375.3364 124.65904ZM368.88327 130.22154Q368.88327 131.03404 369.22702 131.78404Q369.57077 132.53404 370.19577 132.92467Q370.82077 133.31529 371.50827 133.31529Q372.50827 133.31529 373.22702 132.50279Q373.94577 131.69029 373.94577 130.29967Q373.94577 128.97154 373.22702 128.20592Q372.5239 127.42467 371.44577 127.42467Q370.36765 127.42467 369.61765 128.20592Q368.88327 128.97154 368.88327 130.22154ZM378.0239 134.39342L378.0239 132.59654L379.82077 132.59654L379.82077 134.39342L378.0239 134.39342ZM390.44577 132.87779L390.44577 134.39342L381.93015 134.39342Q381.91452 133.81529 382.11765 133.29967Q382.44577 132.42467 383.1489 131.58092Q383.86765 130.73717 385.22702 129.62779Q387.32077 127.90904 388.05515 126.90904Q388.80515 125.89342 388.80515 125.00279Q388.80515 124.04967 388.13327 123.40904Q387.4614 122.76842 386.38327 122.76842Q385.22702 122.76842 384.53952 123.45592Q383.86765 124.14342 383.85202 125.34654L382.22702 125.17467Q382.3989 123.36217 383.47702 122.40904Q384.57077 121.45592 386.41452 121.45592Q388.25827 121.45592 389.3364 122.48717Q390.43015 123.51842 390.43015 125.03404Q390.43015 125.79967 390.10202 126.54967Q389.78952 127.29967 389.05515 128.12779Q388.32077 128.95592 386.61765 130.39342Q385.19577 131.59654 384.78952 132.01842Q384.38327 132.44029 384.13327 132.87779L390.44577 132.87779ZM392.43015 124.59654Q392.43015 123.22154 393.11765 122.25279Q393.82077 121.28404 395.13327 121.28404Q396.35202 121.28404 397.1489 122.15904Q397.94577 123.01842 397.94577 124.70592Q397.94577 126.33092 397.13327 127.22154Q396.3364 128.09654 395.1489 128.09654Q393.99265 128.09654 393.2114 127.23717Q392.43015 126.36217 392.43015 124.59654ZM395.18015 122.37779Q394.5864 122.37779 394.19577 122.89342Q393.80515 123.39342 393.80515 124.75279Q393.80515 126.00279 394.19577 126.50279Q394.60202 127.00279 395.18015 127.00279Q395.7739 127.00279 396.16452 126.50279Q396.55515 125.98717 396.55515 124.64342Q396.55515 123.39342 396.16452 122.89342Q395.7739 122.37779 395.18015 122.37779ZM395.19577 134.86217L402.24265 121.28404L403.5239 121.28404L396.49265 134.86217L395.19577 134.86217ZM400.75827 131.36217Q400.75827 129.98717 401.44577 129.01842Q402.1489 128.04967 403.47702 128.04967Q404.69577 128.04967 405.47702 128.92467Q406.2739 129.78404 406.2739 131.47154Q406.2739 133.09654 405.47702 133.98717Q404.68015 134.86217 403.49265 134.86217Q402.32077 134.86217 401.53952 133.98717Q400.75827 133.11217 400.75827 131.36217ZM403.5239 129.14342Q402.93015 129.14342 402.53952 129.65904Q402.1489 130.15904 402.1489 131.53404Q402.1489 132.75279 402.53952 133.26842Q402.93015 133.78404 403.50827 133.78404Q404.11765 133.78404 404.50827 133.26842Q404.8989 132.75279 404.8989 131.40904Q404.8989 130.15904 404.50827 129.65904Q404.11765 129.14342 403.5239 129.14342Z" fill-rule="nonzero"/><path fill="#ffffff" d="M357.21896 292.47525L357.21896 293.99088L348.70334 293.99088Q348.6877 293.41275 348.89084 292.89713Q349.21896 292.02213 349.9221 291.17838Q350.64084 290.33463 352.0002 289.22525Q354.09396 287.5065 354.82834 286.5065Q355.57834 285.49088 355.57834 284.60025Q355.57834 283.64713 354.90646 283.0065Q354.2346 282.36588 353.15646 282.36588Q352.0002 282.36588 351.3127 283.05338Q350.64084 283.74088 350.6252 284.944L349.0002 284.77213Q349.1721 282.95963 350.2502 282.0065Q351.34396 281.05338 353.1877 281.05338Q355.03146 281.05338 356.1096 282.08463Q357.20334 283.11588 357.20334 284.6315Q357.20334 285.39713 356.8752 286.14713Q356.5627 286.89713 355.82834 287.72525Q355.09396 288.55338 353.39084 289.99088Q351.96896 291.194 351.5627 291.61588Q351.15646 292.03775 350.90646 292.47525L357.21896 292.47525ZM363.96896 293.99088L363.96896 290.91275L358.39084 290.91275L358.39084 289.45963L364.26584 281.10025L365.5627 281.10025L365.5627 289.45963L367.2971 289.45963L367.2971 290.91275L365.5627 290.91275L365.5627 293.99088L363.96896 293.99088ZM363.96896 289.45963L363.96896 283.64713L359.9377 289.45963L363.96896 289.45963ZM369.7971 293.99088L369.7971 292.194L371.59396 292.194L371.59396 293.99088L369.7971 293.99088ZM382.1096 284.2565L380.5471 284.3815Q380.32834 283.45963 379.9377 283.03775Q379.2971 282.35025 378.3596 282.35025Q377.6096 282.35025 377.03146 282.77213Q376.28146 283.319 375.84396 284.36588Q375.4221 285.41275 375.40646 287.35025Q375.9846 286.47525 376.7971 286.05338Q377.6252 285.6315 378.53146 285.6315Q380.1252 285.6315 381.2346 286.80338Q382.34396 287.95963 382.34396 289.80338Q382.34396 291.02213 381.8127 292.069Q381.2971 293.10025 380.3752 293.66275Q379.46896 294.20963 378.3127 294.20963Q376.32834 294.20963 375.07834 292.7565Q373.82834 291.30338 373.82834 287.95963Q373.82834 284.22525 375.21896 282.52213Q376.4221 281.05338 378.45334 281.05338Q379.9846 281.05338 380.95334 281.91275Q381.9221 282.7565 382.1096 284.2565ZM375.65646 289.819Q375.65646 290.6315 376.0002 291.3815Q376.34396 292.1315 376.96896 292.52213Q377.59396 292.91275 378.28146 292.91275Q379.28146 292.91275 380.0002 292.10025Q380.71896 291.28775 380.71896 289.89713Q380.71896 288.569 380.0002 287.80338Q379.2971 287.02213 378.21896 287.02213Q377.14084 287.02213 376.39084 287.80338Q375.65646 288.569 375.65646 289.819ZM384.20334 284.194Q384.20334 282.819 384.89084 281.85025Q385.59396 280.8815 386.90646 280.8815Q388.1252 280.8815 388.9221 281.7565Q389.71896 282.61588 389.71896 284.30338Q389.71896 285.92838 388.90646 286.819Q388.1096 287.694 386.9221 287.694Q385.76584 287.694 384.9846 286.83463Q384.20334 285.95963 384.20334 284.194ZM386.95334 281.97525Q386.3596 281.97525 385.96896 282.49088Q385.57834 282.99088 385.57834 284.35025Q385.57834 285.60025 385.96896 286.10025Q386.3752 286.60025 386.95334 286.60025Q387.5471 286.60025 387.9377 286.10025Q388.32834 285.58463 388.32834 284.24088Q388.32834 282.99088 387.9377 282.49088Q387.5471 281.97525 386.95334 281.97525ZM386.96896 294.45963L394.01584 280.8815L395.2971 280.8815L388.26584 294.45963L386.96896 294.45963ZM392.53146 290.95963Q392.53146 289.58463 393.21896 288.61588Q393.9221 287.64713 395.2502 287.64713Q396.46896 287.64713 397.2502 288.52213Q398.0471 289.3815 398.0471 291.069Q398.0471 292.694 397.2502 293.58463Q396.45334 294.45963 395.26584 294.45963Q394.09396 294.45963 393.3127 293.58463Q392.53146 292.70963 392.53146 290.95963ZM395.2971 288.74088Q394.70334 288.74088 394.3127 289.2565Q393.9221 289.7565 393.9221 291.1315Q393.9221 292.35025 394.3127 292.86588Q394.70334 293.3815 395.28146 293.3815Q395.89084 293.3815 396.28146 292.86588Q396.6721 292.35025 396.6721 291.0065Q396.6721 289.7565 396.28146 289.2565Q395.89084 288.74088 395.2971 288.74088Z" fill-rule="nonzero"/><path fill="#ffffff" d="M172.32027 200.05685L172.32027 201.57248L163.80464 201.57248Q163.78902 200.99435 163.99214 200.47873Q164.32027 199.60373 165.02339 198.75998Q165.74214 197.91623 167.10152 196.80685Q169.19527 195.0881 169.92964 194.0881Q170.67964 193.07248 170.67964 192.18185Q170.67964 191.22873 170.00777 190.5881Q169.33589 189.94748 168.25777 189.94748Q167.10152 189.94748 166.41402 190.63498Q165.74214 191.32248 165.72652 192.5256L164.10152 192.35373Q164.27339 190.54123 165.35152 189.5881Q166.44527 188.63498 168.28902 188.63498Q170.13277 188.63498 171.21089 189.66623Q172.30464 190.69748 172.30464 192.2131Q172.30464 192.97873 171.97652 193.72873Q171.66402 194.47873 170.92964 195.30685Q170.19527 196.13498 168.49214 197.57248Q167.07027 198.7756 166.66402 199.19748Q166.25777 199.61935 166.00777 200.05685L172.32027 200.05685ZM174.11714 190.36935L174.11714 188.85373L182.44527 188.85373L182.44527 190.0881Q181.22652 191.4006 180.00777 193.57248Q178.80464 195.72873 178.14839 198.0256Q177.66402 199.6506 177.53902 201.57248L175.91402 201.57248Q175.94527 200.05685 176.50777 197.9006Q177.08589 195.74435 178.14839 193.74435Q179.21089 191.74435 180.41402 190.36935L174.11714 190.36935ZM184.89839 201.57248L184.89839 199.7756L186.69527 199.7756L186.69527 201.57248L184.89839 201.57248ZM189.24214 198.5881L190.75777 198.44748Q190.96089 199.5256 191.49214 200.00998Q192.03902 200.49435 192.89839 200.49435Q193.63277 200.49435 194.17964 200.16623Q194.72652 199.82248 195.07027 199.2756Q195.42964 198.7131 195.66402 197.75998Q195.89839 196.80685 195.89839 195.82248Q195.89839 195.7131 195.89839 195.50998Q195.41402 196.25998 194.58589 196.72873Q193.77339 197.19748 192.82027 197.19748Q191.22652 197.19748 190.11714 196.04123Q189.00777 194.88498 189.00777 192.97873Q189.00777 191.0256 190.16402 189.8381Q191.32027 188.63498 193.05464 188.63498Q194.32027 188.63498 195.35152 189.32248Q196.39839 189.99435 196.92964 191.24435Q197.47652 192.49435 197.47652 194.86935Q197.47652 197.3381 196.92964 198.80685Q196.39839 200.25998 195.33589 201.0256Q194.28902 201.79123 192.86714 201.79123Q191.35152 201.79123 190.38277 200.9631Q189.42964 200.11935 189.24214 198.5881ZM195.72652 192.9006Q195.72652 191.54123 194.99214 190.74435Q194.27339 189.94748 193.25777 189.94748Q192.19527 189.94748 191.41402 190.80685Q190.63277 191.66623 190.63277 193.04123Q190.63277 194.2756 191.36714 195.04123Q192.11714 195.80685 193.21089 195.80685Q194.30464 195.80685 195.00777 195.04123Q195.72652 194.2756 195.72652 192.9006ZM199.30464 191.7756Q199.30464 190.4006 199.99214 189.43185Q200.69527 188.4631 202.00777 188.4631Q203.22652 188.4631 204.02339 189.3381Q204.82027 190.19748 204.82027 191.88498Q204.82027 193.50998 204.00777 194.4006Q203.21089 195.2756 202.02339 195.2756Q200.86714 195.2756 200.08589 194.41623Q199.30464 193.54123 199.30464 191.7756ZM202.05464 189.55685Q201.46089 189.55685 201.07027 190.07248Q200.67964 190.57248 200.67964 191.93185Q200.67964 193.18185 201.07027 193.68185Q201.47652 194.18185 202.05464 194.18185Q202.64839 194.18185 203.03902 193.68185Q203.42964 193.16623 203.42964 191.82248Q203.42964 190.57248 203.03902 190.07248Q202.64839 189.55685 202.05464 189.55685ZM202.07027 202.04123L209.11714 188.4631L210.39839 188.4631L203.36714 202.04123L202.07027 202.04123ZM207.63277 198.54123Q207.63277 197.16623 208.32027 196.19748Q209.02339 195.22873 210.35152 195.22873Q211.57027 195.22873 212.35152 196.10373Q213.14839 196.9631 213.14839 198.6506Q213.14839 200.2756 212.35152 201.16623Q211.55464 202.04123 210.36714 202.04123Q209.19527 202.04123 208.41402 201.16623Q207.63277 200.29123 207.63277 198.54123ZM210.39839 196.32248Q209.80464 196.32248 209.41402 196.8381Q209.02339 197.3381 209.02339 198.7131Q209.02339 199.93185 209.41402 200.44748Q209.80464 200.9631 210.38277 200.9631Q210.99214 200.9631 211.38277 200.44748Q211.77339 199.93185 211.77339 198.5881Q211.77339 197.3381 211.38277 196.8381Q210.99214 196.32248 210.39839 196.32248Z" fill-rule="nonzero"/><path fill="#ffffff" d="M246.55276 100.90867L248.06839 100.76804Q248.27151 101.84617 248.80276 102.33054Q249.34964 102.81492 250.20901 102.81492Q250.94339 102.81492 251.49026 102.48679Q252.03714 102.14304 252.38089 101.59617Q252.74026 101.03367 252.97464 100.08054Q253.20901 99.12742 253.20901 98.14304Q253.20901 98.03367 253.20901 97.83054Q252.72464 98.58054 251.89651 99.04929Q251.08401 99.51804 250.13089 99.51804Q248.53714 99.51804 247.42776 98.36179Q246.31839 97.20554 246.31839 95.29929Q246.31839 93.34617 247.47464 92.15867Q248.63089 90.95554 250.36526 90.95554Q251.63089 90.95554 252.66214 91.64304Q253.70901 92.31492 254.24026 93.56492Q254.78714 94.81492 254.78714 97.18992Q254.78714 99.65867 254.24026 101.12742Q253.70901 102.58054 252.64651 103.34617Q251.59964 104.11179 250.17776 104.11179Q248.66214 104.11179 247.69339 103.28367Q246.74026 102.43992 246.55276 100.90867ZM253.03714 95.22117Q253.03714 93.86179 252.30276 93.06492Q251.58401 92.26804 250.56839 92.26804Q249.50589 92.26804 248.72464 93.12742Q247.94339 93.98679 247.94339 95.36179Q247.94339 96.59617 248.67776 97.36179Q249.42776 98.12742 250.52151 98.12742Q251.61526 98.12742 252.31839 97.36179Q253.03714 96.59617 253.03714 95.22117ZM257.209 103.89304L257.209 102.09617L259.0059 102.09617L259.0059 103.89304L257.209 103.89304ZM263.7559 96.90867Q262.7715 96.54929 262.28714 95.87742Q261.8184 95.20554 261.8184 94.28367Q261.8184 92.87742 262.8184 91.92429Q263.834 90.95554 265.5215 90.95554Q267.209 90.95554 268.22464 91.93992Q269.2559 92.90867 269.2559 94.31492Q269.2559 95.22117 268.78714 95.89304Q268.3184 96.54929 267.36526 96.90867Q268.55276 97.29929 269.16214 98.15867Q269.78714 99.01804 269.78714 100.20554Q269.78714 101.86179 268.61526 102.98679Q267.4434 104.11179 265.53714 104.11179Q263.6309 104.11179 262.459 102.98679Q261.30276 101.84617 261.30276 100.15867Q261.30276 98.90867 261.92776 98.06492Q262.5684 97.20554 263.7559 96.90867ZM263.42776 94.22117Q263.42776 95.14304 264.0215 95.72117Q264.61526 96.29929 265.55276 96.29929Q266.459 96.29929 267.03714 95.72117Q267.6309 95.14304 267.6309 94.31492Q267.6309 93.43992 267.0215 92.84617Q266.42776 92.25242 265.53714 92.25242Q264.6309 92.25242 264.0215 92.83054Q263.42776 93.40867 263.42776 94.22117ZM262.92776 100.17429Q262.92776 100.84617 263.24026 101.48679Q263.5684 102.11179 264.1934 102.47117Q264.834 102.81492 265.5684 102.81492Q266.6934 102.81492 267.42776 102.08054Q268.17776 101.34617 268.17776 100.22117Q268.17776 99.08054 267.41214 98.34617Q266.6465 97.59617 265.5059 97.59617Q264.3965 97.59617 263.66214 98.33054Q262.92776 99.06492 262.92776 100.17429ZM271.61526 94.09617Q271.61526 92.72117 272.30276 91.75242Q273.0059 90.78367 274.3184 90.78367Q275.53714 90.78367 276.334 91.65867Q277.1309 92.51804 277.1309 94.20554Q277.1309 95.83054 276.3184 96.72117Q275.5215 97.59617 274.334 97.59617Q273.17776 97.59617 272.3965 96.73679Q271.61526 95.86179 271.61526 94.09617ZM274.36526 91.87742Q273.7715 91.87742 273.3809 92.39304Q272.99026 92.89304 272.99026 94.25242Q272.99026 95.50242 273.3809 96.00242Q273.78714 96.50242 274.36526 96.50242Q274.959 96.50242 275.34964 96.00242Q275.74026 95.48679 275.74026 94.14304Q275.74026 92.89304 275.34964 92.39304Q274.959 91.87742 274.36526 91.87742ZM274.3809 104.36179L281.42776 90.78367L282.709 90.78367L275.67776 104.36179L274.3809 104.36179ZM279.9434 100.86179Q279.9434 99.48679 280.6309 98.51804Q281.334 97.54929 282.66214 97.54929Q283.8809 97.54929 284.66214 98.42429Q285.459 99.28367 285.459 100.97117Q285.459 102.59617 284.66214 103.48679Q283.86526 104.36179 282.67776 104.36179Q281.5059 104.36179 280.72464 103.48679Q279.9434 102.61179 279.9434 100.86179ZM282.709 98.64304Q282.11526 98.64304 281.72464 99.15867Q281.334 99.65867 281.334 101.03367Q281.334 102.25242 281.72464 102.76804Q282.11526 103.28367 282.6934 103.28367Q283.30276 103.28367 283.6934 102.76804Q284.084 102.25242 284.084 100.90867Q284.084 99.65867 283.6934 99.15867Q283.30276 98.64304 282.709 98.64304Z" fill-rule="nonzero"/><path stroke="#ffffff" stroke-width="1.0" stroke-linejoin="round" stroke-linecap="round" d="M374.1615 209.4239C375.76096 188.76047 368.66693 168.36667 354.58884 153.15672C340.51074 137.94676 320.72525 129.3 300.0 129.3L300.0 54.916668C341.45047 54.916668 381.02148 72.210205 409.17767 102.630104C437.3339 133.05 451.52194 173.83762 448.32297 215.16447" fill-rule="nonzero"/><path stroke="#ffffff" stroke-width="1.0" stroke-linejoin="round" stroke-linecap="round" d="M296.17084 277.96805C336.4521 280.04443 371.04865 249.63834 374.1615 209.4239L448.32297 215.16447C442.09726 295.59335 372.9042 356.40552 292.34167 352.25275" fill-rule="nonzero"/><path stroke="#ffffff" stroke-width="1.0" stroke-linejoin="round" stroke-linecap="round" d="M288.5531 277.1806C291.07715 277.5737 293.61975 277.83655 296.17084 277.96805L292.34167 352.25275C287.2395 351.98975 282.1543 351.46408 277.1062 350.6779" fill-rule="nonzero"/><path stroke="#ffffff" stroke-width="1.0" stroke-linejoin="round" stroke-linecap="round" d="M260.07874 266.44617C268.72903 271.94833 278.42334 275.60294 288.5531 277.1806L277.1062 350.6779C256.84668 347.52252 237.4581 340.21332 220.1575 329.209" fill-rule="nonzero"/><path stroke="#ffffff" stroke-width="1.0" stroke-linejoin="round" stroke-linecap="round" d="M253.837 262.0088C255.84001 263.59412 257.92334 265.0752 260.07874 266.44617L220.1575 329.209C215.8467 326.46707 211.68001 323.50488 207.674 320.33423" fill-rule="nonzero"/><path stroke="#ffffff" stroke-width="1.0" stroke-linejoin="round" stroke-linecap="round" d="M248.0846 256.95312C249.91397 258.736 251.83398 260.42346 253.837 262.0088L207.674 320.33423C203.66798 317.16357 199.82796 313.78867 196.16917 310.2229" fill-rule="nonzero"/><path stroke="#ffffff" stroke-width="1.0" stroke-linejoin="round" stroke-linecap="round" d="M256.90073 143.0588C238.91988 155.84178 227.54112 175.94695 225.83852 197.94276C224.1359 219.9386 232.28511 241.55534 248.0846 256.95312L196.16917 310.2229C164.57022 279.42734 148.27179 236.19385 151.67703 192.2022C155.08226 148.21054 177.83975 108.00023 213.80145 82.43429" fill-rule="nonzero"/><path stroke="#ffffff" stroke-width="1.0" stroke-linejoin="round" stroke-linecap="round" d="M300.0 129.3C284.55347 129.3 269.49008 134.10876 256.90073 143.0588L213.80145 82.43429C238.98016 64.534195 269.10693 54.916668 300.0 54.916668" fill-rule="nonzero"/><path fill="#efefef" d="M19.76875 69.916664L19.76875 58.46354L21.33125 58.46354L27.346874 67.447914L27.346874 58.46354L28.8 58.46354L28.8 69.916664L27.2375 69.916664L21.221874 60.916664L21.221874 69.916664L19.76875 69.916664ZM37.01875 68.885414Q36.2375 69.55729 35.51875 69.83854Q34.8 70.104164 33.971874 70.104164Q32.596874 70.104164 31.8625 69.43229Q31.128124 68.760414 31.128124 67.729164Q31.128124 67.11979 31.409374 66.61979Q31.690624 66.104164 32.128124 65.80729Q32.58125 65.49479 33.14375 65.33854Q33.565624 65.229164 34.39375 65.135414Q36.096874 64.93229 36.909374 64.65104Q36.909374 64.354164 36.909374 64.27604Q36.909374 63.416664 36.51875 63.072914Q35.971874 62.58854 34.909374 62.58854Q33.925 62.58854 33.440624 62.947914Q32.971874 63.291664 32.753124 64.166664L31.378124 63.979164Q31.565624 63.104164 31.9875 62.55729Q32.425 62.010414 33.2375 61.729164Q34.05 61.43229 35.1125 61.43229Q36.175 61.43229 36.83125 61.68229Q37.503124 61.93229 37.815624 62.30729Q38.128124 62.68229 38.253124 63.260414Q38.33125 63.61979 38.33125 64.55729L38.33125 66.43229Q38.33125 68.40104 38.409374 68.916664Q38.503124 69.43229 38.76875 69.916664L37.3 69.916664Q37.08125 69.479164 37.01875 68.885414ZM36.909374 65.74479Q36.14375 66.05729 34.6125 66.27604Q33.7375 66.40104 33.378124 66.55729Q33.01875 66.71354 32.815624 67.02604Q32.628124 67.322914 32.628124 67.68229Q32.628124 68.24479 33.05 68.61979Q33.4875 68.99479 34.3 68.99479Q35.1125 68.99479 35.7375 68.65104Q36.378124 68.291664 36.675 67.666664Q36.909374 67.197914 36.909374 66.260414L36.909374 65.74479ZM43.675 68.65104L43.878124 69.90104Q43.284374 70.02604 42.815624 70.02604Q42.05 70.02604 41.628124 69.791664Q41.20625 69.541664 41.034374 69.15104Q40.8625 68.74479 40.8625 67.479164L40.8625 62.71354L39.83125 62.71354L39.83125 61.61979L40.8625 61.61979L40.8625 59.55729L42.26875 58.71354L42.26875 61.61979L43.675 61.61979L43.675 62.71354L42.26875 62.71354L42.26875 67.55729Q42.26875 68.166664 42.33125 68.33854Q42.409374 68.510414 42.58125 68.61979Q42.753124 68.71354 43.065624 68.71354Q43.3 68.71354 43.675 68.65104ZM50.05 69.916664L50.05 68.697914Q49.08125 70.104164 47.409374 70.104164Q46.675 70.104164 46.034374 69.822914Q45.409374 69.541664 45.096874 69.11979Q44.784374 68.68229 44.659374 68.072914Q44.58125 67.65104 44.58125 66.760414L44.58125 61.61979L45.9875 61.61979L45.9875 66.21354Q45.9875 67.322914 46.065624 67.697914Q46.20625 68.260414 46.628124 68.572914Q47.065624 68.885414 47.690624 68.885414Q48.33125 68.885414 48.878124 68.572914Q49.440624 68.24479 49.659374 67.68229Q49.89375 67.11979 49.89375 66.05729L49.89375 61.61979L51.3 61.61979L51.3 69.916664L50.05 69.916664ZM53.596874 69.916664L53.596874 61.61979L54.8625 61.61979L54.8625 62.86979Q55.346874 61.99479 55.753124 61.71354Q56.159374 61.43229 56.659374 61.43229Q57.3625 61.43229 58.096874 61.885414L57.6125 63.18229Q57.096874 62.885414 56.58125 62.885414Q56.128124 62.885414 55.753124 63.166664Q55.39375 63.43229 55.2375 63.93229Q55.003124 64.68229 55.003124 65.572914L55.003124 69.916664L53.596874 69.916664ZM64.01875 68.885414Q63.2375 69.55729 62.51875 69.83854Q61.8 70.104164 60.971874 70.104164Q59.596874 70.104164 58.8625 69.43229Q58.128124 68.760414 58.128124 67.729164Q58.128124 67.11979 58.409374 66.61979Q58.690624 66.104164 59.128124 65.80729Q59.58125 65.49479 60.14375 65.33854Q60.565624 65.229164 61.39375 65.135414Q63.096874 64.93229 63.909374 64.65104Q63.909374 64.354164 63.909374 64.27604Q63.909374 63.416664 63.51875 63.072914Q62.971874 62.58854 61.909374 62.58854Q60.925 62.58854 60.440624 62.947914Q59.971874 63.291664 59.753124 64.166664L58.378124 63.979164Q58.565624 63.104164 58.9875 62.55729Q59.425 62.010414 60.2375 61.729164Q61.05 61.43229 62.1125 61.43229Q63.175 61.43229 63.83125 61.68229Q64.50313 61.93229 64.81563 62.30729Q65.12813 62.68229 65.25313 63.260414Q65.33125 63.61979 65.33125 64.55729L65.33125 66.43229Q65.33125 68.40104 65.40938 68.916664Q65.50313 69.43229 65.76875 69.916664L64.3 69.916664Q64.08125 69.479164 64.01875 68.885414ZM63.909374 65.74479Q63.14375 66.05729 61.6125 66.27604Q60.7375 66.40104 60.378124 66.55729Q60.01875 66.71354 59.815624 67.02604Q59.628124 67.322914 59.628124 67.68229Q59.628124 68.24479 60.05 68.61979Q60.4875 68.99479 61.3 68.99479Q62.1125 68.99479 62.7375 68.65104Q63.378124 68.291664 63.675 67.666664Q63.909374 67.197914 63.909374 66.260414L63.909374 65.74479ZM67.58125 69.916664L67.58125 58.46354L68.9875 58.46354L68.9875 69.916664L67.58125 69.916664Z" fill-rule="nonzero"/><path fill="#9e9e9e" d="M19.425 89.260414L20.784374 89.135414Q20.95625 90.08854 21.440624 90.52604Q21.925 90.947914 22.675 90.947914Q23.33125 90.947914 23.815624 90.65104Q24.3 90.354164 24.6125 89.86979Q24.925 89.36979 25.128124 88.52604Q25.346874 87.68229 25.346874 86.80729Q25.346874 86.71354 25.346874 86.52604Q24.925 87.197914 24.190624 87.61979Q23.45625 88.02604 22.6125 88.02604Q21.190624 88.02604 20.20625 86.99479Q19.221874 85.96354 19.221874 84.27604Q19.221874 82.541664 20.2375 81.479164Q21.26875 80.416664 22.815624 80.416664Q23.940624 80.416664 24.8625 81.02604Q25.784374 81.61979 26.26875 82.729164Q26.753124 83.83854 26.753124 85.947914Q26.753124 88.15104 26.26875 89.447914Q25.8 90.74479 24.846874 91.43229Q23.909374 92.11979 22.64375 92.11979Q21.3 92.11979 20.440624 91.36979Q19.596874 90.61979 19.425 89.260414ZM25.190624 84.21354Q25.190624 82.99479 24.534374 82.291664Q23.89375 81.572914 22.9875 81.572914Q22.05 81.572914 21.346874 82.33854Q20.659374 83.104164 20.659374 84.322914Q20.659374 85.416664 21.315624 86.104164Q21.9875 86.791664 22.95625 86.791664Q23.925 86.791664 24.55 86.104164Q25.190624 85.416664 25.190624 84.21354ZM29.003124 91.916664L29.003124 90.30729L30.6125 90.30729L30.6125 91.916664L29.003124 91.916664ZM34.378124 85.697914Q33.503124 85.385414 33.08125 84.791664Q32.659374 84.197914 32.659374 83.36979Q32.659374 82.11979 33.55 81.27604Q34.45625 80.416664 35.95625 80.416664Q37.45625 80.416664 38.3625 81.291664Q39.284374 82.15104 39.284374 83.40104Q39.284374 84.197914 38.8625 84.791664Q38.440624 85.385414 37.596874 85.697914Q38.64375 86.041664 39.190624 86.80729Q39.753124 87.572914 39.753124 88.635414Q39.753124 90.104164 38.70625 91.11979Q37.675 92.11979 35.971874 92.11979Q34.284374 92.11979 33.2375 91.11979Q32.20625 90.104164 32.20625 88.604164Q32.20625 87.479164 32.76875 86.729164Q33.33125 85.979164 34.378124 85.697914ZM34.096874 83.322914Q34.096874 84.135414 34.6125 84.65104Q35.14375 85.166664 35.9875 85.166664Q36.8 85.166664 37.315624 84.65104Q37.83125 84.135414 37.83125 83.40104Q37.83125 82.61979 37.3 82.104164Q36.76875 81.572914 35.971874 81.572914Q35.159374 81.572914 34.628124 82.08854Q34.096874 82.604164 34.096874 83.322914ZM33.64375 88.604164Q33.64375 89.21354 33.925 89.77604Q34.221874 90.33854 34.784374 90.65104Q35.346874 90.947914 35.9875 90.947914Q37.003124 90.947914 37.659374 90.30729Q38.315624 89.65104 38.315624 88.65104Q38.315624 87.635414 37.628124 86.979164Q36.95625 86.30729 35.940624 86.30729Q34.95625 86.30729 34.3 86.96354Q33.64375 87.61979 33.64375 88.604164ZM41.4875 83.21354Q41.4875 81.979164 42.096874 81.11979Q42.721874 80.260414 43.89375 80.260414Q44.971874 80.260414 45.675 81.041664Q46.378124 81.80729 46.378124 83.291664Q46.378124 84.74479 45.659374 85.541664Q44.95625 86.322914 43.909374 86.322914Q42.8625 86.322914 42.175 85.55729Q41.4875 84.77604 41.4875 83.21354ZM43.925 81.229164Q43.409374 81.229164 43.05 81.68229Q42.70625 82.135414 42.70625 83.354164Q42.70625 84.447914 43.05 84.90104Q43.409374 85.354164 43.925 85.354164Q44.45625 85.354164 44.8 84.90104Q45.159374 84.447914 45.159374 83.24479Q45.159374 82.135414 44.8 81.68229Q44.45625 81.229164 43.925 81.229164ZM43.940624 92.33854L50.20625 80.260414L51.346874 80.260414L45.096874 92.33854L43.940624 92.33854ZM48.89375 89.229164Q48.89375 87.99479 49.503124 87.135414Q50.128124 86.27604 51.3 86.27604Q52.378124 86.27604 53.08125 87.05729Q53.8 87.822914 53.8 89.30729Q53.8 90.760414 53.08125 91.55729Q52.3625 92.33854 51.315624 92.33854Q50.26875 92.33854 49.58125 91.55729Q48.89375 90.77604 48.89375 89.229164ZM51.346874 87.24479Q50.815624 87.24479 50.45625 87.697914Q50.1125 88.15104 50.1125 89.36979Q50.1125 90.46354 50.45625 90.916664Q50.815624 91.36979 51.33125 91.36979Q51.878124 91.36979 52.221874 90.916664Q52.565624 90.46354 52.565624 89.260414Q52.565624 88.15104 52.20625 87.697914Q51.8625 87.24479 51.346874 87.24479Z" fill-rule="nonzero"/><path stroke="#757575" stroke-width="1.0" stroke-linecap="butt" d="M18.55 75.416664L145.23334 75.416664L257.01996 69.048965" fill-rule="nonzero"/><path fill="#9e9e9e" d="M259.01996 69.048965C259.01996 67.9444 258.12454 67.048965 257.01996 67.048965C255.91539 67.048965 255.01996 67.9444 255.01996 69.048965C255.01996 70.153534 255.91539 71.048965 257.01996 71.048965C258.12454 71.048965 259.01996 70.153534 259.01996 69.048965" fill-rule="nonzero"/><path fill="#efefef" d="M18.51875 187.27626L22.925 175.82314L24.565624 175.82314L29.253124 187.27626L27.51875 187.27626L26.190624 183.80751L21.39375 183.80751L20.14375 187.27626L18.51875 187.27626ZM21.83125 182.57314L25.721874 182.57314L24.51875 179.40126Q23.971874 177.94814 23.70625 177.02626Q23.4875 178.12001 23.096874 179.21376L21.83125 182.57314ZM30.596874 187.27626L30.596874 178.97939L31.8625 178.97939L31.8625 180.22939Q32.346874 179.35439 32.753124 179.07314Q33.159374 178.79189 33.659374 178.79189Q34.3625 178.79189 35.096874 179.24501L34.6125 180.54189Q34.096874 180.24501 33.58125 180.24501Q33.128124 180.24501 32.753124 180.52626Q32.39375 180.79189 32.2375 181.29189Q32.003124 182.04189 32.003124 182.93251L32.003124 187.27626L30.596874 187.27626ZM41.01875 184.22939L42.409374 184.41689Q42.175 185.83876 41.2375 186.65126Q40.315624 187.46376 38.95625 187.46376Q37.253124 187.46376 36.20625 186.35439Q35.175 185.22939 35.175 183.15126Q35.175 181.80751 35.6125 180.80751Q36.065624 179.79189 36.971874 179.29189Q37.89375 178.79189 38.95625 178.79189Q40.315624 178.79189 41.175 179.47939Q42.034374 180.15126 42.26875 181.41689L40.909374 181.62001Q40.70625 180.79189 40.20625 180.37001Q39.721874 179.94814 39.01875 179.94814Q37.95625 179.94814 37.284374 180.71376Q36.628124 181.46376 36.628124 183.12001Q36.628124 184.79189 37.26875 185.55751Q37.909374 186.30751 38.940624 186.30751Q39.76875 186.30751 40.315624 185.80751Q40.878124 185.29189 41.01875 184.22939ZM43.6125 187.27626L43.6125 175.82314L45.01875 175.82314L45.01875 179.93251Q46.003124 178.79189 47.503124 178.79189Q48.425 178.79189 49.096874 179.15126Q49.784374 179.51064 50.065624 180.15126Q50.3625 180.79189 50.3625 182.01064L50.3625 187.27626L48.95625 187.27626L48.95625 182.01064Q48.95625 180.96376 48.503124 180.47939Q48.05 179.99501 47.20625 179.99501Q46.58125 179.99501 46.034374 180.32314Q45.4875 180.65126 45.253124 181.21376Q45.01875 181.76064 45.01875 182.72939L45.01875 187.27626L43.6125 187.27626ZM52.6125 177.43251L52.6125 175.82314L54.01875 175.82314L54.01875 177.43251L52.6125 177.43251ZM52.6125 187.27626L52.6125 178.97939L54.01875 178.97939L54.01875 187.27626L52.6125 187.27626ZM59.675 186.01064L59.878124 187.26064Q59.284374 187.38564 58.815624 187.38564Q58.05 187.38564 57.628124 187.15126Q57.20625 186.90126 57.034374 186.51064Q56.8625 186.10439 56.8625 184.83876L56.8625 180.07314L55.83125 180.07314L55.83125 178.97939L56.8625 178.97939L56.8625 176.91689L58.26875 176.07314L58.26875 178.97939L59.675 178.97939L59.675 180.07314L58.26875 180.07314L58.26875 184.91689Q58.26875 185.52626 58.33125 185.69814Q58.409374 185.87001 58.58125 185.97939Q58.753124 186.07314 59.065624 186.07314Q59.3 186.07314 59.675 186.01064ZM66.28438 184.60439L67.7375 184.77626Q67.39375 186.05751 66.45625 186.76064Q65.53438 187.46376 64.09688 187.46376Q62.26875 187.46376 61.20625 186.33876Q60.14375 185.21376 60.14375 183.19814Q60.14375 181.10439 61.221874 179.94814Q62.3 178.79189 64.01875 178.79189Q65.675 178.79189 66.72188 179.93251Q67.78438 181.05751 67.78438 183.10439Q67.78438 183.22939 67.78438 183.47939L61.596874 183.47939Q61.675 184.85439 62.3625 185.58876Q63.065624 186.30751 64.09688 186.30751Q64.87813 186.30751 65.425 185.90126Q65.97188 185.49501 66.28438 184.60439ZM61.675 182.32314L66.3 182.32314Q66.20625 181.27626 65.76875 180.76064Q65.09688 179.94814 64.03438 179.94814Q63.065624 179.94814 62.39375 180.60439Q61.7375 181.24501 61.675 182.32314ZM75.01875 184.22939L76.40938 184.41689Q76.175 185.83876 75.2375 186.65126Q74.31563 187.46376 72.95625 187.46376Q71.25313 187.46376 70.20625 186.35439Q69.175 185.22939 69.175 183.15126Q69.175 181.80751 69.6125 180.80751Q70.06563 179.79189 70.97188 179.29189Q71.89375 178.79189 72.95625 178.79189Q74.31563 178.79189 75.175 179.47939Q76.03438 180.15126 76.26875 181.41689L74.90938 181.62001Q74.70625 180.79189 74.20625 180.37001Q73.72188 179.94814 73.01875 179.94814Q71.95625 179.94814 71.28438 180.71376Q70.62813 181.46376 70.62813 183.12001Q70.62813 184.79189 71.26875 185.55751Q71.90938 186.30751 72.94063 186.30751Q73.76875 186.30751 74.31563 185.80751Q74.87813 185.29189 75.01875 184.22939ZM80.675 186.01064L80.87813 187.26064Q80.28438 187.38564 79.81563 187.38564Q79.05 187.38564 78.62813 187.15126Q78.20625 186.90126 78.03438 186.51064Q77.8625 186.10439 77.8625 184.83876L77.8625 180.07314L76.83125 180.07314L76.83125 178.97939L77.8625 178.97939L77.8625 176.91689L79.26875 176.07314L79.26875 178.97939L80.675 178.97939L80.675 180.07314L79.26875 180.07314L79.26875 184.91689Q79.26875 185.52626 79.33125 185.69814Q79.40938 185.87001 79.58125 185.97939Q79.75313 186.07314 80.06563 186.07314Q80.3 186.07314 80.675 186.01064ZM87.05 187.27626L87.05 186.05751Q86.08125 187.46376 84.40938 187.46376Q83.675 187.46376 83.03438 187.18251Q82.40938 186.90126 82.09688 186.47939Q81.78438 186.04189 81.65938 185.43251Q81.58125 185.01064 81.58125 184.12001L81.58125 178.97939L82.9875 178.97939L82.9875 183.57314Q82.9875 184.68251 83.06563 185.05751Q83.20625 185.62001 83.62813 185.93251Q84.06563 186.24501 84.69063 186.24501Q85.33125 186.24501 85.87813 185.93251Q86.44063 185.60439 86.65938 185.04189Q86.89375 184.47939 86.89375 183.41689L86.89375 178.97939L88.3 178.97939L88.3 187.27626L87.05 187.27626ZM90.59688 187.27626L90.59688 178.97939L91.8625 178.97939L91.8625 180.22939Q92.34688 179.35439 92.75313 179.07314Q93.15938 178.79189 93.65938 178.79189Q94.3625 178.79189 95.09688 179.24501L94.6125 180.54189Q94.09688 180.24501 93.58125 180.24501Q93.12813 180.24501 92.75313 180.52626Q92.39375 180.79189 92.2375 181.29189Q92.00313 182.04189 92.00313 182.93251L92.00313 187.27626L90.59688 187.27626ZM101.28438 184.60439L102.7375 184.77626Q102.39375 186.05751 101.45625 186.76064Q100.53438 187.46376 99.09688 187.46376Q97.26875 187.46376 96.20625 186.33876Q95.14375 185.21376 95.14375 183.19814Q95.14375 181.10439 96.22188 179.94814Q97.3 178.79189 99.01875 178.79189Q100.675 178.79189 101.72188 179.93251Q102.78438 181.05751 102.78438 183.10439Q102.78438 183.22939 102.78438 183.47939L96.59688 183.47939Q96.675 184.85439 97.3625 185.58876Q98.06563 186.30751 99.09688 186.30751Q99.87813 186.30751 100.425 185.90126Q100.97188 185.49501 101.28438 184.60439ZM96.675 182.32314L101.3 182.32314Q101.20625 181.27626 100.76875 180.76064Q100.09688 179.94814 99.03438 179.94814Q98.06563 179.94814 97.39375 180.60439Q96.7375 181.24501 96.675 182.32314ZM115.15938 185.91689Q114.45625 186.69814 113.62813 187.08876Q112.81563 187.47939 111.8625 187.47939Q110.1125 187.47939 109.08125 186.27626Q108.2375 185.30751 108.2375 184.12001Q108.2375 183.05751 108.925 182.19814Q109.6125 181.33876 110.97188 180.69814Q110.19063 179.80751 109.925 179.26064Q109.675 178.69814 109.675 178.18251Q109.675 177.15126 110.4875 176.38564Q111.3 175.62001 112.51875 175.62001Q113.69063 175.62001 114.44063 176.33876Q115.19063 177.05751 115.19063 178.07314Q115.19063 179.69814 113.01875 180.85439L115.08125 183.47939Q115.425 182.79189 115.62813 181.88564L117.08125 182.19814Q116.70625 183.69814 116.06563 184.66689Q116.8625 185.71376 117.8625 186.41689L116.90938 187.54189Q116.06563 186.99501 115.15938 185.91689ZM112.3 179.94814Q113.20625 179.41689 113.47188 179.01064Q113.75313 178.60439 113.75313 178.10439Q113.75313 177.52626 113.37813 177.15126Q113.00313 176.77626 112.45625 176.77626Q111.87813 176.77626 111.50313 177.15126Q111.12813 177.51064 111.12813 178.04189Q111.12813 178.30751 111.25313 178.60439Q111.39375 178.90126 111.675 179.22939L112.3 179.94814ZM114.26875 184.80751L111.69063 181.62001Q110.55 182.29189 110.14375 182.88564Q109.75313 183.46376 109.75313 184.02626Q109.75313 184.72939 110.3 185.47939Q110.8625 186.22939 111.87813 186.22939Q112.51875 186.22939 113.19063 185.83876Q113.8625 185.43251 114.26875 184.80751Z" fill-rule="nonzero"/><path fill="#9e9e9e" d="M26.6125 207.91689L26.6125 209.27626L19.034374 209.27626Q19.01875 208.76064 19.20625 208.29189Q19.4875 207.52626 20.128124 206.77626Q20.76875 206.02626 21.971874 205.04189Q23.83125 203.51064 24.4875 202.62001Q25.14375 201.71376 25.14375 200.91689Q25.14375 200.08876 24.55 199.51064Q23.95625 198.93251 22.9875 198.93251Q21.971874 198.93251 21.3625 199.54189Q20.753124 200.15126 20.753124 201.22939L19.3 201.08876Q19.45625 199.46376 20.425 198.62001Q21.39375 197.77626 23.01875 197.77626Q24.675 197.77626 25.628124 198.69814Q26.596874 199.60439 26.596874 200.94814Q26.596874 201.63564 26.315624 202.30751Q26.034374 202.96376 25.378124 203.69814Q24.721874 204.43251 23.20625 205.71376Q21.940624 206.77626 21.58125 207.16689Q21.221874 207.54189 20.9875 207.91689L26.6125 207.91689ZM28.315624 199.32314L28.315624 197.96376L35.721874 197.96376L35.721874 199.05751Q34.628124 200.22939 33.55 202.16689Q32.4875 204.08876 31.89375 206.12001Q31.471874 207.55751 31.3625 209.27626L29.909374 209.27626Q29.940624 207.91689 30.440624 206.01064Q30.95625 204.08876 31.89375 202.32314Q32.846874 200.54189 33.925 199.32314L28.315624 199.32314ZM38.003124 209.27626L38.003124 207.66689L39.6125 207.66689L39.6125 209.27626L38.003124 209.27626ZM41.425 206.62001L42.784374 206.49501Q42.95625 207.44814 43.440624 207.88564Q43.925 208.30751 44.675 208.30751Q45.33125 208.30751 45.815624 208.01064Q46.3 207.71376 46.6125 207.22939Q46.925 206.72939 47.128124 205.88564Q47.346874 205.04189 47.346874 204.16689Q47.346874 204.07314 47.346874 203.88564Q46.925 204.55751 46.190624 204.97939Q45.45625 205.38564 44.6125 205.38564Q43.190624 205.38564 42.20625 204.35439Q41.221874 203.32314 41.221874 201.63564Q41.221874 199.90126 42.2375 198.83876Q43.26875 197.77626 44.815624 197.77626Q45.940624 197.77626 46.8625 198.38564Q47.784374 198.97939 48.26875 200.08876Q48.753124 201.19814 48.753124 203.30751Q48.753124 205.51064 48.26875 206.80751Q47.8 208.10439 46.846874 208.79189Q45.909374 209.47939 44.64375 209.47939Q43.3 209.47939 42.440624 208.72939Q41.596874 207.97939 41.425 206.62001ZM47.190624 201.57314Q47.190624 200.35439 46.534374 199.65126Q45.89375 198.93251 44.9875 198.93251Q44.05 198.93251 43.346874 199.69814Q42.659374 200.46376 42.659374 201.68251Q42.659374 202.77626 43.315624 203.46376Q43.9875 204.15126 44.95625 204.15126Q45.925 204.15126 46.55 203.46376Q47.190624 202.77626 47.190624 201.57314ZM50.4875 200.57314Q50.4875 199.33876 51.096874 198.47939Q51.721874 197.62001 52.89375 197.62001Q53.971874 197.62001 54.675 198.40126Q55.378124 199.16689 55.378124 200.65126Q55.378124 202.10439 54.659374 202.90126Q53.95625 203.68251 52.909374 203.68251Q51.8625 203.68251 51.175 202.91689Q50.4875 202.13564 50.4875 200.57314ZM52.925 198.58876Q52.409374 198.58876 52.05 199.04189Q51.70625 199.49501 51.70625 200.71376Q51.70625 201.80751 52.05 202.26064Q52.409374 202.71376 52.925 202.71376Q53.45625 202.71376 53.8 202.26064Q54.159374 201.80751 54.159374 200.60439Q54.159374 199.49501 53.8 199.04189Q53.45625 198.58876 52.925 198.58876ZM52.940624 209.69814L59.20625 197.62001L60.346874 197.62001L54.096874 209.69814L52.940624 209.69814ZM57.89375 206.58876Q57.89375 205.35439 58.503124 204.49501Q59.128124 203.63564 60.3 203.63564Q61.378124 203.63564 62.08125 204.41689Q62.8 205.18251 62.8 206.66689Q62.8 208.12001 62.08125 208.91689Q61.3625 209.69814 60.315624 209.69814Q59.26875 209.69814 58.58125 208.91689Q57.89375 208.13564 57.89375 206.58876ZM60.346874 204.60439Q59.815624 204.60439 59.45625 205.05751Q59.1125 205.51064 59.1125 206.72939Q59.1125 207.82314 59.45625 208.27626Q59.815624 208.72939 60.33125 208.72939Q60.878124 208.72939 61.221874 208.27626Q61.565624 207.82314 61.565624 206.62001Q61.565624 205.51064 61.20625 205.05751Q60.8625 204.60439 60.346874 204.60439Z" fill-rule="nonzero"/><path stroke="#757575" stroke-width="1.0" stroke-linecap="butt" d="M18.55 192.77626L145.23334 192.77626L159.09317 192.77626" fill-rule="nonzero"/><path fill="#9e9e9e" d="M161.09317 192.77626C161.09317 191.67169 160.19774 190.77626 159.09317 190.77626C157.9886 190.77626 157.09317 191.67169 157.09317 192.77626C157.09317 193.88083 157.9886 194.77626 159.09317 194.77626C160.19774 194.77626 161.09317 193.88083 161.09317 192.77626" fill-rule="nonzero"/><path fill="#efefef" d="M19.784374 244.45L19.784374 232.99687L23.7375 232.99687Q25.065624 232.99687 25.76875 233.15312Q26.753124 233.3875 27.45625 233.98125Q28.3625 234.74687 28.8 235.93437Q29.253124 237.12187 29.253124 238.65312Q29.253124 239.96562 28.940624 240.98125Q28.64375 241.98125 28.159374 242.6375Q27.690624 243.29375 27.128124 243.68437Q26.565624 244.05937 25.753124 244.2625Q24.95625 244.45 23.925 244.45L19.784374 244.45ZM21.3 243.09062L23.753124 243.09062Q24.878124 243.09062 25.51875 242.8875Q26.175 242.66875 26.55 242.29375Q27.096874 241.74687 27.39375 240.84062Q27.690624 239.93437 27.690624 238.6375Q27.690624 236.84062 27.096874 235.87187Q26.51875 234.90312 25.675 234.575Q25.065624 234.34062 23.70625 234.34062L21.3 234.34062L21.3 243.09062ZM31.6125 234.60625L31.6125 232.99687L33.01875 232.99687L33.01875 234.60625L31.6125 234.60625ZM31.6125 244.45L31.6125 236.15312L33.01875 236.15312L33.01875 244.45L31.6125 244.45ZM35.6125 247.6375L35.6125 236.15312L36.89375 236.15312L36.89375 237.23125Q37.346874 236.59062 37.909374 236.27812Q38.4875 235.96562 39.3 235.96562Q40.3625 235.96562 41.175 236.5125Q41.9875 237.05937 42.39375 238.05937Q42.815624 239.04375 42.815624 240.23125Q42.815624 241.5125 42.346874 242.52812Q41.89375 243.54375 41.01875 244.09062Q40.159374 244.6375 39.190624 244.6375Q38.4875 244.6375 37.925 244.34062Q37.378124 244.04375 37.01875 243.59062L37.01875 247.6375L35.6125 247.6375ZM36.878124 240.34062Q36.878124 241.95 37.51875 242.71562Q38.175 243.48125 39.096874 243.48125Q40.034374 243.48125 40.70625 242.68437Q41.378124 241.8875 41.378124 240.23125Q41.378124 238.6375 40.721874 237.85625Q40.065624 237.05937 39.159374 237.05937Q38.26875 237.05937 37.565624 237.90312Q36.878124 238.74687 36.878124 240.34062ZM44.58125 244.45L44.58125 232.99687L45.9875 232.99687L45.9875 244.45L44.58125 244.45ZM48.08125 240.29375Q48.08125 237.99687 49.3625 236.8875Q50.440624 235.96562 51.971874 235.96562Q53.690624 235.96562 54.76875 237.09062Q55.8625 238.2 55.8625 240.18437Q55.8625 241.77812 55.378124 242.7Q54.89375 243.62187 53.971874 244.1375Q53.065624 244.6375 51.971874 244.6375Q50.2375 244.6375 49.159374 243.52812Q48.08125 242.40312 48.08125 240.29375ZM49.534374 240.29375Q49.534374 241.8875 50.221874 242.68437Q50.925 243.48125 51.971874 243.48125Q53.01875 243.48125 53.70625 242.68437Q54.409374 241.8875 54.409374 240.24687Q54.409374 238.71562 53.70625 237.91875Q53.01875 237.12187 51.971874 237.12187Q50.925 237.12187 50.221874 237.91875Q49.534374 238.7 49.534374 240.29375ZM57.6125 244.45L57.6125 236.15312L58.8625 236.15312L58.8625 237.30937Q59.253124 236.7 59.89375 236.34062Q60.55 235.96562 61.378124 235.96562Q62.3 235.96562 62.89375 236.35625Q63.4875 236.73125 63.721874 237.41875Q64.70625 235.96562 66.28438 235.96562Q67.51875 235.96562 68.175 236.65312Q68.84688 237.325 68.84688 238.74687L68.84688 244.45L67.45625 244.45L67.45625 239.21562Q67.45625 238.37187 67.31563 238.0125Q67.175 237.6375 66.81563 237.41875Q66.45625 237.18437 65.97188 237.18437Q65.09688 237.18437 64.51875 237.7625Q63.940624 238.34062 63.940624 239.62187L63.940624 244.45L62.534374 244.45L62.534374 239.05937Q62.534374 238.12187 62.190624 237.65312Q61.846874 237.18437 61.065624 237.18437Q60.471874 237.18437 59.971874 237.49687Q59.471874 237.80937 59.2375 238.41875Q59.01875 239.0125 59.01875 240.1375L59.01875 244.45L57.6125 244.45ZM76.01875 243.41875Q75.2375 244.09062 74.51875 244.37187Q73.8 244.6375 72.97188 244.6375Q71.59688 244.6375 70.8625 243.96562Q70.12813 243.29375 70.12813 242.2625Q70.12813 241.65312 70.40938 241.15312Q70.69063 240.6375 71.12813 240.34062Q71.58125 240.02812 72.14375 239.87187Q72.56563 239.7625 73.39375 239.66875Q75.09688 239.46562 75.90938 239.18437Q75.90938 238.8875 75.90938 238.80937Q75.90938 237.95 75.51875 237.60625Q74.97188 237.12187 73.90938 237.12187Q72.925 237.12187 72.44063 237.48125Q71.97188 237.825 71.75313 238.7L70.37813 238.5125Q70.56563 237.6375 70.9875 237.09062Q71.425 236.54375 72.2375 236.2625Q73.05 235.96562 74.1125 235.96562Q75.175 235.96562 75.83125 236.21562Q76.50313 236.46562 76.81563 236.84062Q77.12813 237.21562 77.25313 237.79375Q77.33125 238.15312 77.33125 239.09062L77.33125 240.96562Q77.33125 242.93437 77.40938 243.45Q77.50313 243.96562 77.76875 244.45L76.3 244.45Q76.08125 244.0125 76.01875 243.41875ZM75.90938 240.27812Q75.14375 240.59062 73.6125 240.80937Q72.7375 240.93437 72.37813 241.09062Q72.01875 241.24687 71.81563 241.55937Q71.62813 241.85625 71.62813 242.21562Q71.62813 242.77812 72.05 243.15312Q72.4875 243.52812 73.3 243.52812Q74.1125 243.52812 74.7375 243.18437Q75.37813 242.825 75.675 242.2Q75.90938 241.73125 75.90938 240.79375L75.90938 240.27812ZM82.675 243.18437L82.87813 244.43437Q82.28438 244.55937 81.81563 244.55937Q81.05 244.55937 80.62813 244.325Q80.20625 244.075 80.03438 243.68437Q79.8625 243.27812 79.8625 242.0125L79.8625 237.24687L78.83125 237.24687L78.83125 236.15312L79.8625 236.15312L79.8625 234.09062L81.26875 233.24687L81.26875 236.15312L82.675 236.15312L82.675 237.24687L81.26875 237.24687L81.26875 242.09062Q81.26875 242.7 81.33125 242.87187Q81.40938 243.04375 81.58125 243.15312Q81.75313 243.24687 82.06563 243.24687Q82.3 243.24687 82.675 243.18437ZM83.6125 234.60625L83.6125 232.99687L85.01875 232.99687L85.01875 234.60625L83.6125 234.60625ZM83.6125 244.45L83.6125 236.15312L85.01875 236.15312L85.01875 244.45L83.6125 244.45ZM93.01875 241.40312L94.40938 241.59062Q94.175 243.0125 93.2375 243.825Q92.31563 244.6375 90.95625 244.6375Q89.25313 244.6375 88.20625 243.52812Q87.175 242.40312 87.175 240.325Q87.175 238.98125 87.6125 237.98125Q88.06563 236.96562 88.97188 236.46562Q89.89375 235.96562 90.95625 235.96562Q92.31563 235.96562 93.175 236.65312Q94.03438 237.325 94.26875 238.59062L92.90938 238.79375Q92.70625 237.96562 92.20625 237.54375Q91.72188 237.12187 91.01875 237.12187Q89.95625 237.12187 89.28438 237.8875Q88.62813 238.6375 88.62813 240.29375Q88.62813 241.96562 89.26875 242.73125Q89.90938 243.48125 90.94063 243.48125Q91.76875 243.48125 92.31563 242.98125Q92.87813 242.46562 93.01875 241.40312Z" fill-rule="nonzero"/><path fill="#9e9e9e" d="M24.51875 266.45L23.1125 266.45L23.1125 257.48126Q22.596874 257.96564 21.76875 258.45Q20.95625 258.9344 20.3 259.1844L20.3 257.825Q21.471874 257.2625 22.346874 256.48126Q23.2375 255.68439 23.6125 254.95001L24.51875 254.95001L24.51875 266.45ZM29.003124 266.45L29.003124 264.84064L30.6125 264.84064L30.6125 266.45L29.003124 266.45ZM39.51875 257.79376L38.1125 257.90314Q37.925 257.075 37.58125 256.7Q37.01875 256.10626 36.175 256.10626Q35.503124 256.10626 35.003124 256.48126Q34.33125 256.96564 33.940624 257.90314Q33.565624 258.825 33.55 260.54376Q34.065624 259.7625 34.8 259.3875Q35.534374 259.0125 36.33125 259.0125Q37.7375 259.0125 38.721874 260.0594Q39.721874 261.09064 39.721874 262.73126Q39.721874 263.8094 39.253124 264.73126Q38.784374 265.65314 37.971874 266.15314Q37.159374 266.65314 36.128124 266.65314Q34.378124 266.65314 33.26875 265.35626Q32.159374 264.0594 32.159374 261.09064Q32.159374 257.7625 33.378124 256.2625Q34.45625 254.95001 36.26875 254.95001Q37.6125 254.95001 38.471874 255.71564Q39.346874 256.46564 39.51875 257.79376ZM33.76875 262.73126Q33.76875 263.46564 34.08125 264.1375Q34.39375 264.79376 34.940624 265.1375Q35.503124 265.48126 36.1125 265.48126Q37.003124 265.48126 37.64375 264.7625Q38.284374 264.04376 38.284374 262.8094Q38.284374 261.6219 37.64375 260.95Q37.01875 260.2625 36.05 260.2625Q35.096874 260.2625 34.425 260.95Q33.76875 261.6219 33.76875 262.73126ZM41.4875 257.7469Q41.4875 256.5125 42.096874 255.65314Q42.721874 254.79376 43.89375 254.79376Q44.971874 254.79376 45.675 255.57501Q46.378124 256.34064 46.378124 257.825Q46.378124 259.27814 45.659374 260.075Q44.95625 260.85626 43.909374 260.85626Q42.8625 260.85626 42.175 260.09064Q41.4875 259.3094 41.4875 257.7469ZM43.925 255.76251Q43.409374 255.76251 43.05 256.21564Q42.70625 256.66876 42.70625 257.8875Q42.70625 258.98126 43.05 259.4344Q43.409374 259.8875 43.925 259.8875Q44.45625 259.8875 44.8 259.4344Q45.159374 258.98126 45.159374 257.77814Q45.159374 256.66876 44.8 256.21564Q44.45625 255.76251 43.925 255.76251ZM43.940624 266.8719L50.20625 254.79376L51.346874 254.79376L45.096874 266.8719L43.940624 266.8719ZM48.89375 263.7625Q48.89375 262.52814 49.503124 261.66876Q50.128124 260.8094 51.3 260.8094Q52.378124 260.8094 53.08125 261.59064Q53.8 262.35626 53.8 263.84064Q53.8 265.29376 53.08125 266.09064Q52.3625 266.8719 51.315624 266.8719Q50.26875 266.8719 49.58125 266.09064Q48.89375 265.3094 48.89375 263.7625ZM51.346874 261.77814Q50.815624 261.77814 50.45625 262.23126Q50.1125 262.6844 50.1125 263.90314Q50.1125 264.9969 50.45625 265.45Q50.815624 265.90314 51.33125 265.90314Q51.878124 265.90314 52.221874 265.45Q52.565624 264.9969 52.565624 263.79376Q52.565624 262.6844 52.20625 262.23126Q51.8625 261.77814 51.346874 261.77814Z" fill-rule="nonzero"/><path stroke="#757575" stroke-width="1.0" stroke-linecap="butt" d="M18.55 249.95L145.23334 249.95L206.7018 309.83957" fill-rule="nonzero"/><path fill="#9e9e9e" d="M208.7018 309.83957C208.7018 308.735 207.80637 307.83957 206.7018 307.83957C205.59723 307.83957 204.7018 308.735 204.7018 309.83957C204.7018 310.94412 205.59723 311.83957 206.7018 311.83957C207.80637 311.83957 208.7018 310.94412 208.7018 309.83957" fill-rule="nonzero"/><path fill="#efefef" d="M19.7375 285.45L19.7375 273.9969L22.01875 273.9969L24.7375 282.10626Q25.1125 283.23126 25.284374 283.79376Q25.471874 283.16876 25.89375 281.96564L28.628124 273.9969L30.675 273.9969L30.675 285.45L29.20625 285.45L29.20625 275.85626L25.878124 285.45L24.51875 285.45L21.20625 275.7L21.20625 285.45L19.7375 285.45ZM32.6125 275.60626L32.6125 273.9969L34.01875 273.9969L34.01875 275.60626L32.6125 275.60626ZM32.6125 285.45L32.6125 277.15314L34.01875 277.15314L34.01875 285.45L32.6125 285.45ZM36.58125 285.45L36.58125 273.9969L37.9875 273.9969L37.9875 285.45L36.58125 285.45ZM40.6125 275.60626L40.6125 273.9969L42.01875 273.9969L42.01875 275.60626L40.6125 275.60626ZM40.6125 285.45L40.6125 277.15314L42.01875 277.15314L42.01875 285.45L40.6125 285.45ZM47.675 284.1844L47.878124 285.4344Q47.284374 285.5594 46.815624 285.5594Q46.05 285.5594 45.628124 285.325Q45.20625 285.075 45.034374 284.6844Q44.8625 284.27814 44.8625 283.0125L44.8625 278.2469L43.83125 278.2469L43.83125 277.15314L44.8625 277.15314L44.8625 275.09064L46.26875 274.2469L46.26875 277.15314L47.675 277.15314L47.675 278.2469L46.26875 278.2469L46.26875 283.09064Q46.26875 283.7 46.33125 283.8719Q46.409374 284.04376 46.58125 284.15314Q46.753124 284.2469 47.065624 284.2469Q47.3 284.2469 47.675 284.1844ZM54.01875 284.41876Q53.2375 285.09064 52.51875 285.3719Q51.8 285.6375 50.971874 285.6375Q49.596874 285.6375 48.8625 284.96564Q48.128124 284.29376 48.128124 283.2625Q48.128124 282.65314 48.409374 282.15314Q48.690624 281.6375 49.128124 281.34064Q49.58125 281.02814 50.14375 280.8719Q50.565624 280.7625 51.39375 280.66876Q53.096874 280.46564 53.909374 280.1844Q53.909374 279.8875 53.909374 279.8094Q53.909374 278.95 53.51875 278.60626Q52.971874 278.1219 51.909374 278.1219Q50.925 278.1219 50.440624 278.48126Q49.971874 278.825 49.753124 279.7L48.378124 279.5125Q48.565624 278.6375 48.9875 278.09064Q49.425 277.54376 50.2375 277.2625Q51.05 276.96564 52.1125 276.96564Q53.175 276.96564 53.83125 277.21564Q54.503124 277.46564 54.815624 277.84064Q55.128124 278.21564 55.253124 278.79376Q55.33125 279.15314 55.33125 280.09064L55.33125 281.96564Q55.33125 283.9344 55.409374 284.45Q55.503124 284.96564 55.76875 285.45L54.3 285.45Q54.08125 285.0125 54.01875 284.41876ZM53.909374 281.27814Q53.14375 281.59064 51.6125 281.8094Q50.7375 281.9344 50.378124 282.09064Q50.01875 282.2469 49.815624 282.5594Q49.628124 282.85626 49.628124 283.21564Q49.628124 283.77814 50.05 284.15314Q50.4875 284.52814 51.3 284.52814Q52.1125 284.52814 52.7375 284.1844Q53.378124 283.825 53.675 283.2Q53.909374 282.73126 53.909374 281.79376L53.909374 281.27814ZM57.596874 285.45L57.596874 277.15314L58.8625 277.15314L58.8625 278.40314Q59.346874 277.52814 59.753124 277.2469Q60.159374 276.96564 60.659374 276.96564Q61.3625 276.96564 62.096874 277.41876L61.6125 278.71564Q61.096874 278.41876 60.58125 278.41876Q60.128124 278.41876 59.753124 278.7Q59.39375 278.96564 59.2375 279.46564Q59.003124 280.21564 59.003124 281.10626L59.003124 285.45L57.596874 285.45ZM62.55 288.65314L62.39375 287.325Q62.846874 287.45 63.190624 287.45Q63.659374 287.45 63.940624 287.29376Q64.22188 287.1375 64.40938 286.85626Q64.53438 286.65314 64.83125 285.8094Q64.87813 285.7 64.95625 285.46564L61.815624 277.15314L63.33125 277.15314L65.05 281.95Q65.39375 282.8719 65.65938 283.8719Q65.89375 282.90314 66.2375 281.98126L68.00313 277.15314L69.40938 277.15314L66.25313 285.59064Q65.75313 286.96564 65.47188 287.48126Q65.09688 288.16876 64.6125 288.4969Q64.12813 288.825 63.45625 288.825Q63.05 288.825 62.55 288.65314Z" fill-rule="nonzero"/><path fill="#9e9e9e" d="M24.51875 307.45L23.1125 307.45L23.1125 298.48126Q22.596874 298.96564 21.76875 299.45Q20.95625 299.9344 20.3 300.1844L20.3 298.825Q21.471874 298.2625 22.346874 297.48126Q23.2375 296.6844 23.6125 295.95L24.51875 295.95L24.51875 307.45ZM29.003124 307.45L29.003124 305.84064L30.6125 305.84064L30.6125 307.45L29.003124 307.45ZM39.51875 298.79376L38.1125 298.90314Q37.925 298.075 37.58125 297.7Q37.01875 297.10626 36.175 297.10626Q35.503124 297.10626 35.003124 297.48126Q34.33125 297.96564 33.940624 298.90314Q33.565624 299.825 33.55 301.54376Q34.065624 300.7625 34.8 300.3875Q35.534374 300.0125 36.33125 300.0125Q37.7375 300.0125 38.721874 301.0594Q39.721874 302.09064 39.721874 303.73126Q39.721874 304.8094 39.253124 305.73126Q38.784374 306.65314 37.971874 307.15314Q37.159374 307.65314 36.128124 307.65314Q34.378124 307.65314 33.26875 306.35626Q32.159374 305.0594 32.159374 302.09064Q32.159374 298.7625 33.378124 297.2625Q34.45625 295.95 36.26875 295.95Q37.6125 295.95 38.471874 296.71564Q39.346874 297.46564 39.51875 298.79376ZM33.76875 303.73126Q33.76875 304.46564 34.08125 305.1375Q34.39375 305.79376 34.940624 306.1375Q35.503124 306.48126 36.1125 306.48126Q37.003124 306.48126 37.64375 305.7625Q38.284374 305.04376 38.284374 303.8094Q38.284374 302.6219 37.64375 301.95Q37.01875 301.2625 36.05 301.2625Q35.096874 301.2625 34.425 301.95Q33.76875 302.6219 33.76875 303.73126ZM41.4875 298.7469Q41.4875 297.5125 42.096874 296.65314Q42.721874 295.79376 43.89375 295.79376Q44.971874 295.79376 45.675 296.575Q46.378124 297.34064 46.378124 298.825Q46.378124 300.27814 45.659374 301.075Q44.95625 301.85626 43.909374 301.85626Q42.8625 301.85626 42.175 301.09064Q41.4875 300.3094 41.4875 298.7469ZM43.925 296.7625Q43.409374 296.7625 43.05 297.21564Q42.70625 297.66876 42.70625 298.8875Q42.70625 299.98126 43.05 300.4344Q43.409374 300.8875 43.925 300.8875Q44.45625 300.8875 44.8 300.4344Q45.159374 299.98126 45.159374 298.77814Q45.159374 297.66876 44.8 297.21564Q44.45625 296.7625 43.925 296.7625ZM43.940624 307.8719L50.20625 295.79376L51.346874 295.79376L45.096874 307.8719L43.940624 307.8719ZM48.89375 304.7625Q48.89375 303.52814 49.503124 302.66876Q50.128124 301.8094 51.3 301.8094Q52.378124 301.8094 53.08125 302.59064Q53.8 303.35626 53.8 304.84064Q53.8 306.29376 53.08125 307.09064Q52.3625 307.8719 51.315624 307.8719Q50.26875 307.8719 49.58125 307.09064Q48.89375 306.3094 48.89375 304.7625ZM51.346874 302.77814Q50.815624 302.77814 50.45625 303.23126Q50.1125 303.6844 50.1125 304.90314Q50.1125 305.9969 50.45625 306.45Q50.815624 306.90314 51.33125 306.90314Q51.878124 306.90314 52.221874 306.45Q52.565624 305.9969 52.565624 304.79376Q52.565624 303.6844 52.20625 303.23126Q51.8625 302.77814 51.346874 302.77814Z" fill-rule="nonzero"/><path stroke="#757575" stroke-width="1.0" stroke-linecap="butt" d="M18.55 290.95L145.23334 290.95L218.11139 318.86993" fill-rule="nonzero"/><path fill="#9e9e9e" d="M220.11139 318.86993C220.11139 317.76535 219.21596 316.86993 218.11139 316.86993C217.0068 316.86993 216.11139 317.76535 216.11139 318.86993C216.11139 319.9745 217.0068 320.86993 218.11139 320.86993C219.21596 320.86993 220.11139 319.9745 220.11139 318.86993" fill-rule="nonzero"/><path fill="#efefef" d="M19.815624 326.45L19.815624 314.9969L28.096874 314.9969L28.096874 316.34064L21.33125 316.34064L21.33125 319.85626L27.675 319.85626L27.675 321.2L21.33125 321.2L21.33125 325.09064L28.3625 325.09064L28.3625 326.45L19.815624 326.45ZM36.01875 323.40314L37.409374 323.59064Q37.175 325.0125 36.2375 325.825Q35.315624 326.6375 33.95625 326.6375Q32.253124 326.6375 31.20625 325.52814Q30.175 324.40314 30.175 322.325Q30.175 320.98126 30.6125 319.98126Q31.065624 318.96564 31.971874 318.46564Q32.89375 317.96564 33.95625 317.96564Q35.315624 317.96564 36.175 318.65314Q37.034374 319.325 37.26875 320.59064L35.909374 320.79376Q35.70625 319.96564 35.20625 319.54376Q34.721874 319.1219 34.01875 319.1219Q32.95625 319.1219 32.284374 319.8875Q31.628124 320.6375 31.628124 322.29376Q31.628124 323.96564 32.26875 324.73126Q32.909374 325.48126 33.940624 325.48126Q34.76875 325.48126 35.315624 324.98126Q35.878124 324.46564 36.01875 323.40314ZM38.08125 322.29376Q38.08125 319.9969 39.3625 318.8875Q40.440624 317.96564 41.971874 317.96564Q43.690624 317.96564 44.76875 319.09064Q45.8625 320.2 45.8625 322.1844Q45.8625 323.77814 45.378124 324.7Q44.89375 325.6219 43.971874 326.1375Q43.065624 326.6375 41.971874 326.6375Q40.2375 326.6375 39.159374 325.52814Q38.08125 324.40314 38.08125 322.29376ZM39.534374 322.29376Q39.534374 323.8875 40.221874 324.6844Q40.925 325.48126 41.971874 325.48126Q43.01875 325.48126 43.70625 324.6844Q44.409374 323.8875 44.409374 322.2469Q44.409374 320.71564 43.70625 319.91876Q43.01875 319.1219 41.971874 319.1219Q40.925 319.1219 40.221874 319.91876Q39.534374 320.7 39.534374 322.29376ZM47.6125 326.45L47.6125 318.15314L48.878124 318.15314L48.878124 319.325Q49.784374 317.96564 51.51875 317.96564Q52.26875 317.96564 52.89375 318.23126Q53.51875 318.4969 53.83125 318.9344Q54.14375 319.3719 54.26875 319.98126Q54.346874 320.3719 54.346874 321.34064L54.346874 326.45L52.940624 326.45L52.940624 321.40314Q52.940624 320.54376 52.76875 320.1219Q52.6125 319.6844 52.190624 319.4344Q51.784374 319.1844 51.221874 319.1844Q50.315624 319.1844 49.659374 319.7625Q49.01875 320.325 49.01875 321.91876L49.01875 326.45L47.6125 326.45ZM56.08125 322.29376Q56.08125 319.9969 57.3625 318.8875Q58.440624 317.96564 59.971874 317.96564Q61.690624 317.96564 62.76875 319.09064Q63.8625 320.2 63.8625 322.1844Q63.8625 323.77814 63.378124 324.7Q62.89375 325.6219 61.971874 326.1375Q61.065624 326.6375 59.971874 326.6375Q58.2375 326.6375 57.159374 325.52814Q56.08125 324.40314 56.08125 322.29376ZM57.534374 322.29376Q57.534374 323.8875 58.221874 324.6844Q58.925 325.48126 59.971874 325.48126Q61.01875 325.48126 61.70625 324.6844Q62.409374 323.8875 62.409374 322.2469Q62.409374 320.71564 61.70625 319.91876Q61.01875 319.1219 59.971874 319.1219Q58.925 319.1219 58.221874 319.91876Q57.534374 320.7 57.534374 322.29376ZM65.6125 326.45L65.6125 318.15314L66.8625 318.15314L66.8625 319.3094Q67.25313 318.7 67.89375 318.34064Q68.55 317.96564 69.37813 317.96564Q70.3 317.96564 70.89375 318.35626Q71.4875 318.73126 71.72188 319.41876Q72.70625 317.96564 74.28438 317.96564Q75.51875 317.96564 76.175 318.65314Q76.84688 319.325 76.84688 320.7469L76.84688 326.45L75.45625 326.45L75.45625 321.21564Q75.45625 320.3719 75.31563 320.0125Q75.175 319.6375 74.81563 319.41876Q74.45625 319.1844 73.97188 319.1844Q73.09688 319.1844 72.51875 319.7625Q71.94063 320.34064 71.94063 321.6219L71.94063 326.45L70.53438 326.45L70.53438 321.0594Q70.53438 320.1219 70.19063 319.65314Q69.84688 319.1844 69.06563 319.1844Q68.47188 319.1844 67.97188 319.4969Q67.47188 319.8094 67.2375 320.41876Q67.01875 321.0125 67.01875 322.1375L67.01875 326.45L65.6125 326.45ZM78.6125 316.60626L78.6125 314.9969L80.01875 314.9969L80.01875 316.60626L78.6125 316.60626ZM78.6125 326.45L78.6125 318.15314L80.01875 318.15314L80.01875 326.45L78.6125 326.45ZM88.01875 323.40314L89.40938 323.59064Q89.175 325.0125 88.2375 325.825Q87.31563 326.6375 85.95625 326.6375Q84.25313 326.6375 83.20625 325.52814Q82.175 324.40314 82.175 322.325Q82.175 320.98126 82.6125 319.98126Q83.06563 318.96564 83.97188 318.46564Q84.89375 317.96564 85.95625 317.96564Q87.31563 317.96564 88.175 318.65314Q89.03438 319.325 89.26875 320.59064L87.90938 320.79376Q87.70625 319.96564 87.20625 319.54376Q86.72188 319.1219 86.01875 319.1219Q84.95625 319.1219 84.28438 319.8875Q83.62813 320.6375 83.62813 322.29376Q83.62813 323.96564 84.26875 324.73126Q84.90938 325.48126 85.94063 325.48126Q86.76875 325.48126 87.31563 324.98126Q87.87813 324.46564 88.01875 323.40314ZM93.51875 326.45L97.925 314.9969L99.56563 314.9969L104.25313 326.45L102.51875 326.45L101.19063 322.98126L96.39375 322.98126L95.14375 326.45L93.51875 326.45ZM96.83125 321.7469L100.72188 321.7469L99.51875 318.575Q98.97188 317.1219 98.70625 316.2Q98.4875 317.29376 98.09688 318.3875L96.83125 321.7469ZM111.01875 323.40314L112.40938 323.59064Q112.175 325.0125 111.2375 325.825Q110.31563 326.6375 108.95625 326.6375Q107.25313 326.6375 106.20625 325.52814Q105.175 324.40314 105.175 322.325Q105.175 320.98126 105.6125 319.98126Q106.06563 318.96564 106.97188 318.46564Q107.89375 317.96564 108.95625 317.96564Q110.31563 317.96564 111.175 318.65314Q112.03438 319.325 112.26875 320.59064L110.90938 320.79376Q110.70625 319.96564 110.20625 319.54376Q109.72188 319.1219 109.01875 319.1219Q107.95625 319.1219 107.28438 319.8875Q106.62813 320.6375 106.62813 322.29376Q106.62813 323.96564 107.26875 324.73126Q107.90938 325.48126 108.94063 325.48126Q109.76875 325.48126 110.31563 324.98126Q110.87813 324.46564 111.01875 323.40314ZM116.675 325.1844L116.87813 326.4344Q116.28438 326.5594 115.81563 326.5594Q115.05 326.5594 114.62813 326.325Q114.20625 326.075 114.03438 325.6844Q113.8625 325.27814 113.8625 324.0125L113.8625 319.2469L112.83125 319.2469L112.83125 318.15314L113.8625 318.15314L113.8625 316.09064L115.26875 315.2469L115.26875 318.15314L116.675 318.15314L116.675 319.2469L115.26875 319.2469L115.26875 324.09064Q115.26875 324.7 115.33125 324.8719Q115.40938 325.04376 115.58125 325.15314Q115.75313 325.2469 116.06563 325.2469Q116.3 325.2469 116.675 325.1844ZM117.6125 316.60626L117.6125 314.9969L119.01875 314.9969L119.01875 316.60626L117.6125 316.60626ZM117.6125 326.45L117.6125 318.15314L119.01875 318.15314L119.01875 326.45L117.6125 326.45ZM123.90938 326.45L120.75313 318.15314L122.2375 318.15314L124.01875 323.1219Q124.31563 323.91876 124.55 324.79376Q124.7375 324.1375 125.08125 323.21564L126.925 318.15314L128.3625 318.15314L125.22188 326.45L123.90938 326.45ZM129.6125 316.60626L129.6125 314.9969L131.01875 314.9969L131.01875 316.60626L129.6125 316.60626ZM129.6125 326.45L129.6125 318.15314L131.01875 318.15314L131.01875 326.45L129.6125 326.45ZM136.675 325.1844L136.87813 326.4344Q136.28438 326.5594 135.81563 326.5594Q135.05 326.5594 134.62813 326.325Q134.20625 326.075 134.03438 325.6844Q133.8625 325.27814 133.8625 324.0125L133.8625 319.2469L132.83125 319.2469L132.83125 318.15314L133.8625 318.15314L133.8625 316.09064L135.26875 315.2469L135.26875 318.15314L136.675 318.15314L136.675 319.2469L135.26875 319.2469L135.26875 324.09064Q135.26875 324.7 135.33125 324.8719Q135.40938 325.04376 135.58125 325.15314Q135.75313 325.2469 136.06563 325.2469Q136.3 325.2469 136.675 325.1844ZM137.55 329.65314L137.39375 328.325Q137.84688 328.45 138.19063 328.45Q138.65938 328.45 138.94063 328.29376Q139.22188 328.1375 139.40938 327.85626Q139.53438 327.65314 139.83125 326.8094Q139.87813 326.7 139.95625 326.46564L136.81563 318.15314L138.33125 318.15314L140.05 322.95Q140.39375 323.8719 140.65938 324.8719Q140.89375 323.90314 141.2375 322.98126L143.00313 318.15314L144.40938 318.15314L141.25313 326.59064Q140.75313 327.96564 140.47188 328.48126Q140.09688 329.16876 139.6125 329.4969Q139.12813 329.825 138.45625 329.825Q138.05 329.825 137.55 329.65314Z" fill-rule="nonzero"/><path fill="#9e9e9e" d="M26.51875 339.79376L25.1125 339.90314Q24.925 339.075 24.58125 338.7Q24.01875 338.10626 23.175 338.10626Q22.503124 338.10626 22.003124 338.48126Q21.33125 338.96564 20.940624 339.90314Q20.565624 340.825 20.55 342.54376Q21.065624 341.7625 21.8 341.3875Q22.534374 341.0125 23.33125 341.0125Q24.7375 341.0125 25.721874 342.0594Q26.721874 343.09064 26.721874 344.73126Q26.721874 345.8094 26.253124 346.73126Q25.784374 347.65314 24.971874 348.15314Q24.159374 348.65314 23.128124 348.65314Q21.378124 348.65314 20.26875 347.35626Q19.159374 346.0594 19.159374 343.09064Q19.159374 339.7625 20.378124 338.2625Q21.45625 336.95 23.26875 336.95Q24.6125 336.95 25.471874 337.71564Q26.346874 338.46564 26.51875 339.79376ZM20.76875 344.73126Q20.76875 345.46564 21.08125 346.1375Q21.39375 346.79376 21.940624 347.1375Q22.503124 347.48126 23.1125 347.48126Q24.003124 347.48126 24.64375 346.7625Q25.284374 346.04376 25.284374 344.8094Q25.284374 343.6219 24.64375 342.95Q24.01875 342.2625 23.05 342.2625Q22.096874 342.2625 21.425 342.95Q20.76875 343.6219 20.76875 344.73126ZM29.003124 348.45L29.003124 346.84064L30.6125 346.84064L30.6125 348.45L29.003124 348.45ZM39.51875 339.79376L38.1125 339.90314Q37.925 339.075 37.58125 338.7Q37.01875 338.10626 36.175 338.10626Q35.503124 338.10626 35.003124 338.48126Q34.33125 338.96564 33.940624 339.90314Q33.565624 340.825 33.55 342.54376Q34.065624 341.7625 34.8 341.3875Q35.534374 341.0125 36.33125 341.0125Q37.7375 341.0125 38.721874 342.0594Q39.721874 343.09064 39.721874 344.73126Q39.721874 345.8094 39.253124 346.73126Q38.784374 347.65314 37.971874 348.15314Q37.159374 348.65314 36.128124 348.65314Q34.378124 348.65314 33.26875 347.35626Q32.159374 346.0594 32.159374 343.09064Q32.159374 339.7625 33.378124 338.2625Q34.45625 336.95 36.26875 336.95Q37.6125 336.95 38.471874 337.71564Q39.346874 338.46564 39.51875 339.79376ZM33.76875 344.73126Q33.76875 345.46564 34.08125 346.1375Q34.39375 346.79376 34.940624 347.1375Q35.503124 347.48126 36.1125 347.48126Q37.003124 347.48126 37.64375 346.7625Q38.284374 346.04376 38.284374 344.8094Q38.284374 343.6219 37.64375 342.95Q37.01875 342.2625 36.05 342.2625Q35.096874 342.2625 34.425 342.95Q33.76875 343.6219 33.76875 344.73126ZM41.4875 339.7469Q41.4875 338.5125 42.096874 337.65314Q42.721874 336.79376 43.89375 336.79376Q44.971874 336.79376 45.675 337.575Q46.378124 338.34064 46.378124 339.825Q46.378124 341.27814 45.659374 342.075Q44.95625 342.85626 43.909374 342.85626Q42.8625 342.85626 42.175 342.09064Q41.4875 341.3094 41.4875 339.7469ZM43.925 337.7625Q43.409374 337.7625 43.05 338.21564Q42.70625 338.66876 42.70625 339.8875Q42.70625 340.98126 43.05 341.4344Q43.409374 341.8875 43.925 341.8875Q44.45625 341.8875 44.8 341.4344Q45.159374 340.98126 45.159374 339.77814Q45.159374 338.66876 44.8 338.21564Q44.45625 337.7625 43.925 337.7625ZM43.940624 348.8719L50.20625 336.79376L51.346874 336.79376L45.096874 348.8719L43.940624 348.8719ZM48.89375 345.7625Q48.89375 344.52814 49.503124 343.66876Q50.128124 342.8094 51.3 342.8094Q52.378124 342.8094 53.08125 343.59064Q53.8 344.35626 53.8 345.84064Q53.8 347.29376 53.08125 348.09064Q52.3625 348.8719 51.315624 348.8719Q50.26875 348.8719 49.58125 348.09064Q48.89375 347.3094 48.89375 345.7625ZM51.346874 343.77814Q50.815624 343.77814 50.45625 344.23126Q50.1125 344.6844 50.1125 345.90314Q50.1125 346.9969 50.45625 347.45Q50.815624 347.90314 51.33125 347.90314Q51.878124 347.90314 52.221874 347.45Q52.565624 346.9969 52.565624 345.79376Q52.565624 344.6844 52.20625 344.23126Q51.8625 343.77814 51.346874 343.77814Z" fill-rule="nonzero"/><path stroke="#757575" stroke-width="1.0" stroke-linecap="butt" d="M18.55 331.95L145.23334 331.95L250.14613 335.92664" fill-rule="nonzero"/><path fill="#9e9e9e" d="M252.14613 335.92664C252.14613 334.82205 251.2507 333.92664 250.14613 333.92664C249.04156 333.92664 248.14613 334.82205 248.14613 335.92664C248.14613 337.0312 249.04156 337.92664 250.14613 337.92664C251.2507 337.92664 252.14613 337.0312 252.14613 335.92664" fill-rule="nonzero"/><path fill="#efefef" d="M481.71564 102.18276L481.71564 90.72964L489.9969 90.72964L489.9969 92.07339L483.23126 92.07339L483.23126 95.58901L489.575 95.58901L489.575 96.93276L483.23126 96.93276L483.23126 100.82339L490.2625 100.82339L490.2625 102.18276L481.71564 102.18276ZM495.575 100.91714L495.77814 102.16714Q495.1844 102.29214 494.71564 102.29214Q493.95 102.29214 493.52814 102.05776Q493.10626 101.80776 492.9344 101.41714Q492.7625 101.01089 492.7625 99.74526L492.7625 94.97964L491.73126 94.97964L491.73126 93.88589L492.7625 93.88589L492.7625 91.82339L494.16876 90.97964L494.16876 93.88589L495.575 93.88589L495.575 94.97964L494.16876 94.97964L494.16876 99.82339Q494.16876 100.43276 494.23126 100.60464Q494.3094 100.77651 494.48126 100.88589Q494.65314 100.97964 494.96564 100.97964Q495.2 100.97964 495.575 100.91714ZM496.5125 102.18276L496.5125 90.72964L497.91876 90.72964L497.91876 94.83901Q498.90314 93.69839 500.40314 93.69839Q501.325 93.69839 501.9969 94.05776Q502.6844 94.41714 502.96564 95.05776Q503.2625 95.69839 503.2625 96.91714L503.2625 102.18276L501.85626 102.18276L501.85626 96.91714Q501.85626 95.87026 501.40314 95.38589Q500.95 94.90151 500.10626 94.90151Q499.48126 94.90151 498.9344 95.22964Q498.3875 95.55776 498.15314 96.12026Q497.91876 96.66714 497.91876 97.63589L497.91876 102.18276L496.5125 102.18276ZM505.5125 102.18276L505.5125 93.88589L506.77814 93.88589L506.77814 95.05776Q507.6844 93.69839 509.41876 93.69839Q510.16876 93.69839 510.79376 93.96401Q511.41876 94.22964 511.73126 94.66714Q512.04376 95.10464 512.16876 95.71401Q512.2469 96.10464 512.2469 97.07339L512.2469 102.18276L510.84064 102.18276L510.84064 97.13589Q510.84064 96.27651 510.66876 95.85464Q510.5125 95.41714 510.09064 95.16714Q509.6844 94.91714 509.1219 94.91714Q508.21564 94.91714 507.5594 95.49526Q506.91876 96.05776 506.91876 97.65151L506.91876 102.18276L505.5125 102.18276ZM514.5125 92.33901L514.5125 90.72964L515.91876 90.72964L515.91876 92.33901L514.5125 92.33901ZM514.5125 102.18276L514.5125 93.88589L515.91876 93.88589L515.91876 102.18276L514.5125 102.18276ZM523.91876 99.13589L525.3094 99.32339Q525.075 100.74526 524.1375 101.55776Q523.21564 102.37026 521.85626 102.37026Q520.15314 102.37026 519.10626 101.26089Q518.075 100.13589 518.075 98.05776Q518.075 96.71401 518.5125 95.71401Q518.96564 94.69839 519.8719 94.19839Q520.79376 93.69839 521.85626 93.69839Q523.21564 93.69839 524.075 94.38589Q524.9344 95.05776 525.16876 96.32339L523.8094 96.52651Q523.60626 95.69839 523.10626 95.27651Q522.6219 94.85464 521.91876 94.85464Q520.85626 94.85464 520.1844 95.62026Q519.52814 96.37026 519.52814 98.02651Q519.52814 99.69839 520.16876 100.46401Q520.8094 101.21401 521.84064 101.21401Q522.66876 101.21401 523.21564 100.71401Q523.77814 100.19839 523.91876 99.13589ZM536.04376 97.68276L536.04376 96.33901L540.90314 96.33901L540.90314 100.58901Q539.77814 101.47964 538.59064 101.93276Q537.40314 102.38589 536.15314 102.38589Q534.46564 102.38589 533.09064 101.66714Q531.71564 100.93276 531.0125 99.57339Q530.3094 98.19839 530.3094 96.51089Q530.3094 94.83901 530.9969 93.38589Q531.7 91.93276 533.0125 91.22964Q534.325 90.52651 536.04376 90.52651Q537.27814 90.52651 538.27814 90.93276Q539.29376 91.33901 539.85626 92.05776Q540.4344 92.77651 540.73126 93.93276L539.35626 94.30776Q539.10626 93.43276 538.71564 92.93276Q538.34064 92.43276 537.6219 92.13589Q536.91876 91.82339 536.04376 91.82339Q535.0125 91.82339 534.2469 92.15151Q533.4969 92.46401 533.02814 92.97964Q532.5594 93.49526 532.3094 94.10464Q531.8719 95.16714 531.8719 96.41714Q531.8719 97.94839 532.3875 98.97964Q532.91876 100.01089 533.91876 100.51089Q534.9344 101.01089 536.075 101.01089Q537.0594 101.01089 537.9969 100.63589Q538.9344 100.24526 539.41876 99.82339L539.41876 97.68276L536.04376 97.68276ZM542.4969 102.18276L542.4969 93.88589L543.7625 93.88589L543.7625 95.13589Q544.2469 94.26089 544.65314 93.97964Q545.0594 93.69839 545.5594 93.69839Q546.2625 93.69839 546.9969 94.15151L546.5125 95.44839Q545.9969 95.15151 545.48126 95.15151Q545.02814 95.15151 544.65314 95.43276Q544.29376 95.69839 544.1375 96.19839Q543.90314 96.94839 543.90314 97.83901L543.90314 102.18276L542.4969 102.18276ZM546.98126 98.02651Q546.98126 95.72964 548.2625 94.62026Q549.34064 93.69839 550.8719 93.69839Q552.59064 93.69839 553.66876 94.82339Q554.7625 95.93276 554.7625 97.91714Q554.7625 99.51089 554.27814 100.43276Q553.79376 101.35464 552.8719 101.87026Q551.96564 102.37026 550.8719 102.37026Q549.1375 102.37026 548.0594 101.26089Q546.98126 100.13589 546.98126 98.02651ZM548.4344 98.02651Q548.4344 99.62026 549.1219 100.41714Q549.825 101.21401 550.8719 101.21401Q551.91876 101.21401 552.60626 100.41714Q553.3094 99.62026 553.3094 97.97964Q553.3094 96.44839 552.60626 95.65151Q551.91876 94.85464 550.8719 94.85464Q549.825 94.85464 549.1219 95.65151Q548.4344 96.43276 548.4344 98.02651ZM561.95 102.18276L561.95 100.96401Q560.98126 102.37026 559.3094 102.37026Q558.575 102.37026 557.9344 102.08901Q557.3094 101.80776 556.9969 101.38589Q556.6844 100.94839 556.5594 100.33901Q556.48126 99.91714 556.48126 99.02651L556.48126 93.88589L557.8875 93.88589L557.8875 98.47964Q557.8875 99.58901 557.96564 99.96401Q558.10626 100.52651 558.52814 100.83901Q558.96564 101.15151 559.59064 101.15151Q560.23126 101.15151 560.77814 100.83901Q561.34064 100.51089 561.5594 99.94839Q561.79376 99.38589 561.79376 98.32339L561.79376 93.88589L563.2 93.88589L563.2 102.18276L561.95 102.18276ZM565.5125 105.37026L565.5125 93.88589L566.79376 93.88589L566.79376 94.96401Q567.2469 94.32339 567.8094 94.01089Q568.3875 93.69839 569.2 93.69839Q570.2625 93.69839 571.075 94.24526Q571.8875 94.79214 572.29376 95.79214Q572.71564 96.77651 572.71564 97.96401Q572.71564 99.24526 572.2469 100.26089Q571.79376 101.27651 570.91876 101.82339Q570.0594 102.37026 569.09064 102.37026Q568.3875 102.37026 567.825 102.07339Q567.27814 101.77651 566.91876 101.32339L566.91876 105.37026L565.5125 105.37026ZM566.77814 98.07339Q566.77814 99.68276 567.41876 100.44839Q568.075 101.21401 568.9969 101.21401Q569.9344 101.21401 570.60626 100.41714Q571.27814 99.62026 571.27814 97.96401Q571.27814 96.37026 570.6219 95.58901Q569.96564 94.79214 569.0594 94.79214Q568.16876 94.79214 567.46564 95.63589Q566.77814 96.47964 566.77814 98.07339ZM573.95 99.69839L575.34064 99.47964Q575.45 100.32339 575.98126 100.77651Q576.52814 101.21401 577.48126 101.21401Q578.45 101.21401 578.91876 100.82339Q579.3875 100.41714 579.3875 99.88589Q579.3875 99.41714 578.98126 99.13589Q578.6844 98.94839 577.54376 98.66714Q575.9969 98.27651 575.3875 97.99526Q574.79376 97.69839 574.48126 97.19839Q574.1844 96.69839 574.1844 96.08901Q574.1844 95.52651 574.4344 95.05776Q574.6844 94.58901 575.1219 94.27651Q575.45 94.02651 576.0125 93.87026Q576.59064 93.69839 577.23126 93.69839Q578.21564 93.69839 578.95 93.97964Q579.6844 94.26089 580.02814 94.74526Q580.3875 95.21401 580.52814 96.02651L579.15314 96.21401Q579.0594 95.57339 578.60626 95.21401Q578.15314 94.85464 577.34064 94.85464Q576.3719 94.85464 575.95 95.18276Q575.54376 95.49526 575.54376 95.91714Q575.54376 96.19839 575.71564 96.41714Q575.8875 96.63589 576.2469 96.79214Q576.46564 96.87026 577.4969 97.15151Q578.98126 97.54214 579.575 97.80776Q580.16876 98.05776 580.4969 98.54214Q580.84064 99.02651 580.84064 99.74526Q580.84064 100.44839 580.41876 101.07339Q580.0125 101.68276 579.23126 102.02651Q578.46564 102.37026 577.4969 102.37026Q575.8719 102.37026 575.02814 101.69839Q574.1844 101.02651 573.95 99.69839Z" fill-rule="nonzero"/><path fill="#9e9e9e" d="M544.5125 122.82339L544.5125 124.18276L536.9344 124.18276Q536.91876 123.66714 537.10626 123.19839Q537.3875 122.43276 538.02814 121.68276Q538.66876 120.93276 539.8719 119.94839Q541.73126 118.41714 542.3875 117.52651Q543.04376 116.62026 543.04376 115.82339Q543.04376 114.99526 542.45 114.41714Q541.85626 113.83901 540.8875 113.83901Q539.8719 113.83901 539.2625 114.44839Q538.65314 115.05776 538.65314 116.13589L537.2 115.99526Q537.35626 114.37026 538.325 113.52651Q539.29376 112.68276 540.91876 112.68276Q542.575 112.68276 543.52814 113.60464Q544.4969 114.51089 544.4969 115.85464Q544.4969 116.54214 544.21564 117.21401Q543.9344 117.87026 543.27814 118.60464Q542.6219 119.33901 541.10626 120.62026Q539.84064 121.68276 539.48126 122.07339Q539.1219 122.44839 538.8875 122.82339L544.5125 122.82339ZM553.41876 115.52651L552.0125 115.63589Q551.825 114.80776 551.48126 114.43276Q550.91876 113.83901 550.075 113.83901Q549.40314 113.83901 548.90314 114.21401Q548.23126 114.69839 547.84064 115.63589Q547.46564 116.55776 547.45 118.27651Q547.96564 117.49526 548.7 117.12026Q549.4344 116.74526 550.23126 116.74526Q551.6375 116.74526 552.6219 117.79214Q553.6219 118.82339 553.6219 120.46401Q553.6219 121.54214 553.15314 122.46401Q552.6844 123.38589 551.8719 123.88589Q551.0594 124.38589 550.02814 124.38589Q548.27814 124.38589 547.16876 123.08901Q546.0594 121.79214 546.0594 118.82339Q546.0594 115.49526 547.27814 113.99526Q548.35626 112.68276 550.16876 112.68276Q551.5125 112.68276 552.3719 113.44839Q553.2469 114.19839 553.41876 115.52651ZM547.66876 120.46401Q547.66876 121.19839 547.98126 121.87026Q548.29376 122.52651 548.84064 122.87026Q549.40314 123.21401 550.0125 123.21401Q550.90314 123.21401 551.54376 122.49526Q552.1844 121.77651 552.1844 120.54214Q552.1844 119.35464 551.54376 118.68276Q550.91876 117.99526 549.95 117.99526Q548.9969 117.99526 548.325 118.68276Q547.66876 119.35464 547.66876 120.46401ZM555.90314 124.18276L555.90314 122.57339L557.5125 122.57339L557.5125 124.18276L555.90314 124.18276ZM566.5125 122.82339L566.5125 124.18276L558.9344 124.18276Q558.91876 123.66714 559.10626 123.19839Q559.3875 122.43276 560.02814 121.68276Q560.66876 120.93276 561.8719 119.94839Q563.73126 118.41714 564.3875 117.52651Q565.04376 116.62026 565.04376 115.82339Q565.04376 114.99526 564.45 114.41714Q563.85626 113.83901 562.8875 113.83901Q561.8719 113.83901 561.2625 114.44839Q560.65314 115.05776 560.65314 116.13589L559.2 115.99526Q559.35626 114.37026 560.325 113.52651Q561.29376 112.68276 562.91876 112.68276Q564.575 112.68276 565.52814 113.60464Q566.4969 114.51089 566.4969 115.85464Q566.4969 116.54214 566.21564 117.21401Q565.9344 117.87026 565.27814 118.60464Q564.6219 119.33901 563.10626 120.62026Q561.84064 121.68276 561.48126 122.07339Q561.1219 122.44839 560.8875 122.82339L566.5125 122.82339ZM568.3875 115.47964Q568.3875 114.24526 568.9969 113.38589Q569.6219 112.52651 570.79376 112.52651Q571.8719 112.52651 572.575 113.30776Q573.27814 114.07339 573.27814 115.55776Q573.27814 117.01089 572.5594 117.80776Q571.85626 118.58901 570.8094 118.58901Q569.7625 118.58901 569.075 117.82339Q568.3875 117.04214 568.3875 115.47964ZM570.825 113.49526Q570.3094 113.49526 569.95 113.94839Q569.60626 114.40151 569.60626 115.62026Q569.60626 116.71401 569.95 117.16714Q570.3094 117.62026 570.825 117.62026Q571.35626 117.62026 571.7 117.16714Q572.0594 116.71401 572.0594 115.51089Q572.0594 114.40151 571.7 113.94839Q571.35626 113.49526 570.825 113.49526ZM570.84064 124.60464L577.10626 112.52651L578.2469 112.52651L571.9969 124.60464L570.84064 124.60464ZM575.79376 121.49526Q575.79376 120.26089 576.40314 119.40151Q577.02814 118.54214 578.2 118.54214Q579.27814 118.54214 579.98126 119.32339Q580.7 120.08901 580.7 121.57339Q580.7 123.02651 579.98126 123.82339Q579.2625 124.60464 578.21564 124.60464Q577.16876 124.60464 576.48126 123.82339Q575.79376 123.04214 575.79376 121.49526ZM578.2469 119.51089Q577.71564 119.51089 577.35626 119.96401Q577.0125 120.41714 577.0125 121.63589Q577.0125 122.72964 577.35626 123.18276Q577.71564 123.63589 578.23126 123.63589Q578.77814 123.63589 579.1219 123.18276Q579.46564 122.72964 579.46564 121.52651Q579.46564 120.41714 579.10626 119.96401Q578.7625 119.51089 578.2469 119.51089Z" fill-rule="nonzero"/><path stroke="#757575" stroke-width="1.0" stroke-linecap="butt" d="M581.45 107.68276L454.76666 107.68276L403.71878 107.68276" fill-rule="nonzero"/><path fill="#9e9e9e" d="M405.71878 107.68276C405.71878 106.57819 404.82336 105.68276 403.71878 105.68276C402.61423 105.68276 401.71878 106.57819 401.71878 107.68276C401.71878 108.78733 402.61423 109.68276 403.71878 109.68276C404.82336 109.68276 405.71878 108.78733 405.71878 107.68276" fill-rule="nonzero"/><path fill="#efefef" d="M495.85626 300.32394L497.3719 300.69894Q496.90314 302.57394 495.65314 303.55832Q494.41876 304.5427 492.6375 304.5427Q490.77814 304.5427 489.6219 303.7927Q488.46564 303.02707 487.85626 301.6052Q487.2469 300.1677 487.2469 298.52707Q487.2469 296.7302 487.9344 295.40207Q488.6219 294.07394 489.8719 293.38644Q491.1375 292.68332 492.65314 292.68332Q494.3719 292.68332 495.54376 293.55832Q496.71564 294.43332 497.1844 296.02707L495.6844 296.37082Q495.29376 295.12082 494.52814 294.55832Q493.77814 293.9802 492.6219 293.9802Q491.3094 293.9802 490.41876 294.62082Q489.52814 295.24582 489.16876 296.32394Q488.8094 297.38644 488.8094 298.51144Q488.8094 299.9802 489.23126 301.07394Q489.66876 302.15207 490.5594 302.69894Q491.46564 303.2302 492.5125 303.2302Q493.77814 303.2302 494.65314 302.49582Q495.54376 301.76144 495.85626 300.32394ZM504.95 304.33957L504.95 303.12082Q503.98126 304.52707 502.3094 304.52707Q501.575 304.52707 500.9344 304.24582Q500.3094 303.96457 499.9969 303.5427Q499.6844 303.1052 499.5594 302.49582Q499.48126 302.07394 499.48126 301.18332L499.48126 296.0427L500.8875 296.0427L500.8875 300.63644Q500.8875 301.74582 500.96564 302.12082Q501.10626 302.68332 501.52814 302.99582Q501.96564 303.30832 502.59064 303.30832Q503.23126 303.30832 503.77814 302.99582Q504.34064 302.6677 504.5594 302.1052Q504.79376 301.5427 504.79376 300.4802L504.79376 296.0427L506.2 296.0427L506.2 304.33957L504.95 304.33957ZM508.48126 304.33957L508.48126 292.88644L509.8875 292.88644L509.8875 304.33957L508.48126 304.33957ZM515.575 303.07394L515.77814 304.32394Q515.1844 304.44894 514.71564 304.44894Q513.95 304.44894 513.52814 304.21457Q513.10626 303.96457 512.9344 303.57394Q512.7625 303.1677 512.7625 301.90207L512.7625 297.13644L511.73126 297.13644L511.73126 296.0427L512.7625 296.0427L512.7625 293.9802L514.16876 293.13644L514.16876 296.0427L515.575 296.0427L515.575 297.13644L514.16876 297.13644L514.16876 301.9802Q514.16876 302.58957 514.23126 302.76144Q514.3094 302.93332 514.48126 303.0427Q514.65314 303.13644 514.96564 303.13644Q515.2 303.13644 515.575 303.07394ZM521.95 304.33957L521.95 303.12082Q520.98126 304.52707 519.3094 304.52707Q518.575 304.52707 517.9344 304.24582Q517.3094 303.96457 516.9969 303.5427Q516.6844 303.1052 516.5594 302.49582Q516.48126 302.07394 516.48126 301.18332L516.48126 296.0427L517.8875 296.0427L517.8875 300.63644Q517.8875 301.74582 517.96564 302.12082Q518.10626 302.68332 518.52814 302.99582Q518.96564 303.30832 519.59064 303.30832Q520.23126 303.30832 520.77814 302.99582Q521.34064 302.6677 521.5594 302.1052Q521.79376 301.5427 521.79376 300.4802L521.79376 296.0427L523.2 296.0427L523.2 304.33957L521.95 304.33957ZM525.4969 304.33957L525.4969 296.0427L526.7625 296.0427L526.7625 297.2927Q527.2469 296.4177 527.65314 296.13644Q528.0594 295.8552 528.5594 295.8552Q529.2625 295.8552 529.9969 296.30832L529.5125 297.6052Q528.9969 297.30832 528.48126 297.30832Q528.02814 297.30832 527.65314 297.58957Q527.29376 297.8552 527.1375 298.3552Q526.90314 299.1052 526.90314 299.99582L526.90314 304.33957L525.4969 304.33957ZM535.91876 303.30832Q535.1375 303.9802 534.41876 304.26144Q533.7 304.52707 532.8719 304.52707Q531.4969 304.52707 530.7625 303.8552Q530.02814 303.18332 530.02814 302.15207Q530.02814 301.5427 530.3094 301.0427Q530.59064 300.52707 531.02814 300.2302Q531.48126 299.9177 532.04376 299.76144Q532.46564 299.65207 533.29376 299.55832Q534.9969 299.3552 535.8094 299.07394Q535.8094 298.77707 535.8094 298.69894Q535.8094 297.83957 535.41876 297.49582Q534.8719 297.01144 533.8094 297.01144Q532.825 297.01144 532.34064 297.37082Q531.8719 297.71457 531.65314 298.58957L530.27814 298.40207Q530.46564 297.52707 530.8875 296.9802Q531.325 296.43332 532.1375 296.15207Q532.95 295.8552 534.0125 295.8552Q535.075 295.8552 535.73126 296.1052Q536.40314 296.3552 536.71564 296.7302Q537.02814 297.1052 537.15314 297.68332Q537.23126 298.0427 537.23126 298.9802L537.23126 300.8552Q537.23126 302.82394 537.3094 303.33957Q537.40314 303.8552 537.66876 304.33957L536.2 304.33957Q535.98126 303.90207 535.91876 303.30832ZM535.8094 300.1677Q535.04376 300.4802 533.5125 300.69894Q532.6375 300.82394 532.27814 300.9802Q531.91876 301.13644 531.71564 301.44894Q531.52814 301.74582 531.52814 302.1052Q531.52814 302.6677 531.95 303.0427Q532.3875 303.4177 533.2 303.4177Q534.0125 303.4177 534.6375 303.07394Q535.27814 302.71457 535.575 302.08957Q535.8094 301.62082 535.8094 300.68332L535.8094 300.1677ZM539.48126 304.33957L539.48126 292.88644L540.8875 292.88644L540.8875 304.33957L539.48126 304.33957ZM546.41876 304.33957L550.825 292.88644L552.46564 292.88644L557.15314 304.33957L555.41876 304.33957L554.09064 300.87082L549.29376 300.87082L548.04376 304.33957L546.41876 304.33957ZM549.73126 299.63644L553.6219 299.63644L552.41876 296.46457Q551.8719 295.01144 551.60626 294.08957Q551.3875 295.18332 550.9969 296.27707L549.73126 299.63644ZM563.91876 301.2927L565.3094 301.4802Q565.075 302.90207 564.1375 303.71457Q563.21564 304.52707 561.85626 304.52707Q560.15314 304.52707 559.10626 303.4177Q558.075 302.2927 558.075 300.21457Q558.075 298.87082 558.5125 297.87082Q558.96564 296.8552 559.8719 296.3552Q560.79376 295.8552 561.85626 295.8552Q563.21564 295.8552 564.075 296.5427Q564.9344 297.21457 565.16876 298.4802L563.8094 298.68332Q563.60626 297.8552 563.10626 297.43332Q562.6219 297.01144 561.91876 297.01144Q560.85626 297.01144 560.1844 297.77707Q559.52814 298.52707 559.52814 300.18332Q559.52814 301.8552 560.16876 302.62082Q560.8094 303.37082 561.84064 303.37082Q562.66876 303.37082 563.21564 302.87082Q563.77814 302.3552 563.91876 301.2927ZM569.575 303.07394L569.77814 304.32394Q569.1844 304.44894 568.71564 304.44894Q567.95 304.44894 567.52814 304.21457Q567.10626 303.96457 566.9344 303.57394Q566.7625 303.1677 566.7625 301.90207L566.7625 297.13644L565.73126 297.13644L565.73126 296.0427L566.7625 296.0427L566.7625 293.9802L568.16876 293.13644L568.16876 296.0427L569.575 296.0427L569.575 297.13644L568.16876 297.13644L568.16876 301.9802Q568.16876 302.58957 568.23126 302.76144Q568.3094 302.93332 568.48126 303.0427Q568.65314 303.13644 568.96564 303.13644Q569.2 303.13644 569.575 303.07394ZM569.95 301.8552L571.34064 301.63644Q571.45 302.4802 571.98126 302.93332Q572.52814 303.37082 573.48126 303.37082Q574.45 303.37082 574.91876 302.9802Q575.3875 302.57394 575.3875 302.0427Q575.3875 301.57394 574.98126 301.2927Q574.6844 301.1052 573.54376 300.82394Q571.9969 300.43332 571.3875 300.15207Q570.79376 299.8552 570.48126 299.3552Q570.1844 298.8552 570.1844 298.24582Q570.1844 297.68332 570.4344 297.21457Q570.6844 296.74582 571.1219 296.43332Q571.45 296.18332 572.0125 296.02707Q572.59064 295.8552 573.23126 295.8552Q574.21564 295.8552 574.95 296.13644Q575.6844 296.4177 576.02814 296.90207Q576.3875 297.37082 576.52814 298.18332L575.15314 298.37082Q575.0594 297.7302 574.60626 297.37082Q574.15314 297.01144 573.34064 297.01144Q572.3719 297.01144 571.95 297.33957Q571.54376 297.65207 571.54376 298.07394Q571.54376 298.3552 571.71564 298.57394Q571.8875 298.7927 572.2469 298.94894Q572.46564 299.02707 573.4969 299.30832Q574.98126 299.69894 575.575 299.96457Q576.16876 300.21457 576.4969 300.69894Q576.84064 301.18332 576.84064 301.90207Q576.84064 302.6052 576.41876 303.2302Q576.0125 303.83957 575.23126 304.18332Q574.46564 304.52707 573.4969 304.52707Q571.8719 304.52707 571.02814 303.8552Q570.1844 303.18332 569.95 301.8552ZM578.90314 304.33957L578.90314 302.7302L580.5125 302.7302L580.5125 304.33957L578.90314 304.33957Z" fill-rule="nonzero"/><path fill="#9e9e9e" d="M544.5125 324.9802L544.5125 326.33957L536.9344 326.33957Q536.91876 325.82394 537.10626 325.3552Q537.3875 324.58957 538.02814 323.83957Q538.66876 323.08957 539.8719 322.1052Q541.73126 320.57394 542.3875 319.68332Q543.04376 318.77707 543.04376 317.9802Q543.04376 317.15207 542.45 316.57394Q541.85626 315.99582 540.8875 315.99582Q539.8719 315.99582 539.2625 316.6052Q538.65314 317.21457 538.65314 318.2927L537.2 318.15207Q537.35626 316.52707 538.325 315.68332Q539.29376 314.83957 540.91876 314.83957Q542.575 314.83957 543.52814 315.76144Q544.4969 316.6677 544.4969 318.01144Q544.4969 318.69894 544.21564 319.37082Q543.9344 320.02707 543.27814 320.76144Q542.6219 321.49582 541.10626 322.77707Q539.84064 323.83957 539.48126 324.2302Q539.1219 324.6052 538.8875 324.9802L544.5125 324.9802ZM550.6219 326.33957L550.6219 323.58957L545.65314 323.58957L545.65314 322.30832L550.8875 314.88644L552.02814 314.88644L552.02814 322.30832L553.575 322.30832L553.575 323.58957L552.02814 323.58957L552.02814 326.33957L550.6219 326.33957ZM550.6219 322.30832L550.6219 317.13644L547.04376 322.30832L550.6219 322.30832ZM555.90314 326.33957L555.90314 324.7302L557.5125 324.7302L557.5125 326.33957L555.90314 326.33957ZM566.41876 317.68332L565.0125 317.7927Q564.825 316.96457 564.48126 316.58957Q563.91876 315.99582 563.075 315.99582Q562.40314 315.99582 561.90314 316.37082Q561.23126 316.8552 560.84064 317.7927Q560.46564 318.71457 560.45 320.43332Q560.96564 319.65207 561.7 319.27707Q562.4344 318.90207 563.23126 318.90207Q564.6375 318.90207 565.6219 319.94894Q566.6219 320.9802 566.6219 322.62082Q566.6219 323.69894 566.15314 324.62082Q565.6844 325.5427 564.8719 326.0427Q564.0594 326.5427 563.02814 326.5427Q561.27814 326.5427 560.16876 325.24582Q559.0594 323.94894 559.0594 320.9802Q559.0594 317.65207 560.27814 316.15207Q561.35626 314.83957 563.16876 314.83957Q564.5125 314.83957 565.3719 315.6052Q566.2469 316.3552 566.41876 317.68332ZM560.66876 322.62082Q560.66876 323.3552 560.98126 324.02707Q561.29376 324.68332 561.84064 325.02707Q562.40314 325.37082 563.0125 325.37082Q563.90314 325.37082 564.54376 324.65207Q565.1844 323.93332 565.1844 322.69894Q565.1844 321.51144 564.54376 320.83957Q563.91876 320.15207 562.95 320.15207Q561.9969 320.15207 561.325 320.83957Q560.66876 321.51144 560.66876 322.62082ZM568.3875 317.63644Q568.3875 316.40207 568.9969 315.5427Q569.6219 314.68332 570.79376 314.68332Q571.8719 314.68332 572.575 315.46457Q573.27814 316.2302 573.27814 317.71457Q573.27814 319.1677 572.5594 319.96457Q571.85626 320.74582 570.8094 320.74582Q569.7625 320.74582 569.075 319.9802Q568.3875 319.19894 568.3875 317.63644ZM570.825 315.65207Q570.3094 315.65207 569.95 316.1052Q569.60626 316.55832 569.60626 317.77707Q569.60626 318.87082 569.95 319.32394Q570.3094 319.77707 570.825 319.77707Q571.35626 319.77707 571.7 319.32394Q572.0594 318.87082 572.0594 317.6677Q572.0594 316.55832 571.7 316.1052Q571.35626 315.65207 570.825 315.65207ZM570.84064 326.76144L577.10626 314.68332L578.2469 314.68332L571.9969 326.76144L570.84064 326.76144ZM575.79376 323.65207Q575.79376 322.4177 576.40314 321.55832Q577.02814 320.69894 578.2 320.69894Q579.27814 320.69894 579.98126 321.4802Q580.7 322.24582 580.7 323.7302Q580.7 325.18332 579.98126 325.9802Q579.2625 326.76144 578.21564 326.76144Q577.16876 326.76144 576.48126 325.9802Q575.79376 325.19894 575.79376 323.65207ZM578.2469 321.6677Q577.71564 321.6677 577.35626 322.12082Q577.0125 322.57394 577.0125 323.7927Q577.0125 324.88644 577.35626 325.33957Q577.71564 325.7927 578.23126 325.7927Q578.77814 325.7927 579.1219 325.33957Q579.46564 324.88644 579.46564 323.68332Q579.46564 322.57394 579.10626 322.12082Q578.7625 321.6677 578.2469 321.6677Z" fill-rule="nonzero"/><path stroke="#757575" stroke-width="1.0" stroke-linecap="butt" d="M581.45 309.83957L454.76666 309.83957L393.2982 309.83957" fill-rule="nonzero"/><path fill="#9e9e9e" d="M395.2982 309.83957C395.2982 308.735 394.40277 307.83957 393.2982 307.83957C392.19363 307.83957 391.2982 308.735 391.2982 309.83957C391.2982 310.94412 392.19363 311.83957 393.2982 311.83957C394.40277 311.83957 395.2982 310.94412 395.2982 309.83957" fill-rule="nonzero"/><path fill="#f3f3f3" d="M271.26562 32.534374L273.15625 33.003124Q272.5625 35.346874 271.01562 36.58125Q269.46875 37.8 267.21875 37.8Q264.90625 37.8 263.45312 36.8625Q262.01562 35.909374 261.25 34.128124Q260.5 32.33125 260.5 30.284374Q260.5 28.05 261.34375 26.39375Q262.20312 24.721874 263.78125 23.8625Q265.35938 22.9875 267.25 22.9875Q269.40625 22.9875 270.85938 24.08125Q272.32812 25.175 272.90625 27.159374L271.04688 27.596874Q270.54688 26.034374 269.59375 25.33125Q268.65625 24.6125 267.21875 24.6125Q265.5625 24.6125 264.45312 25.409374Q263.34375 26.190624 262.89062 27.534374Q262.45312 28.8625 262.45312 30.26875Q262.45312 32.096874 262.98438 33.471874Q263.51562 34.83125 264.64062 35.503124Q265.76562 36.175 267.0625 36.175Q268.65625 36.175 269.76562 35.253124Q270.875 34.33125 271.26562 32.534374ZM281.59375 36.26875Q280.60938 37.096874 279.70312 37.440624Q278.79688 37.784374 277.76562 37.784374Q276.0625 37.784374 275.14062 36.95625Q274.21875 36.1125 274.21875 34.815624Q274.21875 34.05 274.5625 33.425Q274.92188 32.8 275.48438 32.425Q276.04688 32.034374 276.75 31.83125Q277.26562 31.70625 278.3125 31.565624Q280.4375 31.315624 281.4375 30.971874Q281.45312 30.6125 281.45312 30.503124Q281.45312 29.440624 280.95312 28.9875Q280.28125 28.39375 278.95312 28.39375Q277.70312 28.39375 277.10938 28.83125Q276.53125 29.26875 276.25 30.378124L274.53125 30.14375Q274.76562 29.034374 275.29688 28.3625Q275.82812 27.675 276.84375 27.315624Q277.85938 26.940624 279.20312 26.940624Q280.53125 26.940624 281.35938 27.253124Q282.1875 27.565624 282.57812 28.05Q282.96875 28.51875 283.125 29.2375Q283.21875 29.690624 283.21875 30.8625L283.21875 33.20625Q283.21875 35.659374 283.32812 36.315624Q283.4375 36.95625 283.78125 37.55L281.9375 37.55Q281.67188 37.003124 281.59375 36.26875ZM281.4375 32.346874Q280.48438 32.7375 278.5625 33.003124Q277.48438 33.159374 277.03125 33.3625Q276.59375 33.55 276.34375 33.925Q276.09375 34.3 276.09375 34.76875Q276.09375 35.471874 276.625 35.940624Q277.15625 36.409374 278.1875 36.409374Q279.20312 36.409374 279.98438 35.971874Q280.78125 35.51875 281.15625 34.753124Q281.4375 34.14375 281.4375 32.9875L281.4375 32.346874ZM289.65625 35.971874L289.90625 37.534374Q289.17188 37.690624 288.57812 37.690624Q287.625 37.690624 287.09375 37.39375Q286.57812 37.08125 286.35938 36.596874Q286.14062 36.096874 286.14062 34.51875L286.14062 28.55L284.85938 28.55L284.85938 27.175L286.14062 27.175L286.14062 24.6125L287.89062 23.55L287.89062 27.175L289.65625 27.175L289.65625 28.55L287.89062 28.55L287.89062 34.6125Q287.89062 35.3625 287.98438 35.58125Q288.07812 35.784374 288.28125 35.925Q288.5 36.05 288.89062 36.05Q289.17188 36.05 289.65625 35.971874ZM298.92188 34.20625L300.73438 34.440624Q300.3125 36.01875 299.14062 36.909374Q297.98438 37.784374 296.17188 37.784374Q293.90625 37.784374 292.5625 36.39375Q291.23438 34.9875 291.23438 32.45625Q291.23438 29.83125 292.57812 28.39375Q293.92188 26.940624 296.07812 26.940624Q298.15625 26.940624 299.46875 28.3625Q300.79688 29.76875 300.79688 32.346874Q300.79688 32.503124 300.78125 32.815624L293.04688 32.815624Q293.14062 34.51875 294.01562 35.425Q294.89062 36.33125 296.1875 36.33125Q297.15625 36.33125 297.82812 35.83125Q298.51562 35.315624 298.92188 34.20625ZM293.14062 31.3625L298.9375 31.3625Q298.82812 30.065624 298.28125 29.409374Q297.4375 28.39375 296.09375 28.39375Q294.89062 28.39375 294.0625 29.20625Q293.23438 30.003124 293.14062 31.3625ZM302.5 38.409374L304.20312 38.659374Q304.3125 39.45625 304.79688 39.815624Q305.45312 40.3 306.59375 40.3Q307.8125 40.3 308.46875 39.815624Q309.14062 39.33125 309.375 38.45625Q309.51562 37.909374 309.5 36.190624Q308.34375 37.55 306.625 37.55Q304.48438 37.55 303.3125 36.003124Q302.14062 34.45625 302.14062 32.3Q302.14062 30.815624 302.67188 29.565624Q303.21875 28.315624 304.23438 27.628124Q305.26562 26.940624 306.64062 26.940624Q308.46875 26.940624 309.67188 28.425L309.67188 27.175L311.28125 27.175L311.28125 36.14375Q311.28125 38.565624 310.78125 39.565624Q310.29688 40.58125 309.21875 41.159374Q308.15625 41.753124 306.59375 41.753124Q304.75 41.753124 303.59375 40.925Q302.45312 40.096874 302.5 38.409374ZM303.95312 32.175Q303.95312 34.221874 304.76562 35.159374Q305.57812 36.096874 306.79688 36.096874Q308.0 36.096874 308.8125 35.159374Q309.64062 34.221874 309.64062 32.2375Q309.64062 30.33125 308.79688 29.3625Q307.95312 28.39375 306.76562 28.39375Q305.59375 28.39375 304.76562 29.346874Q303.95312 30.3 303.95312 32.175ZM313.17188 32.3625Q313.17188 29.4875 314.76562 28.096874Q316.10938 26.940624 318.03125 26.940624Q320.17188 26.940624 321.51562 28.346874Q322.875 29.753124 322.875 32.221874Q322.875 34.221874 322.28125 35.378124Q321.6875 36.51875 320.53125 37.159374Q319.39062 37.784374 318.03125 37.784374Q315.84375 37.784374 314.5 36.39375Q313.17188 34.9875 313.17188 32.3625ZM314.96875 32.3625Q314.96875 34.3625 315.82812 35.346874Q316.70312 36.33125 318.03125 36.33125Q319.34375 36.33125 320.20312 35.346874Q321.07812 34.346874 321.07812 32.3Q321.07812 30.378124 320.20312 29.39375Q319.32812 28.39375 318.03125 28.39375Q316.70312 28.39375 315.82812 29.39375Q314.96875 30.378124 314.96875 32.3625ZM324.79688 37.55L324.79688 27.175L326.375 27.175L326.375 28.753124Q326.98438 27.64375 327.5 27.3Q328.01562 26.940624 328.625 26.940624Q329.51562 26.940624 330.4375 27.503124L329.82812 29.14375Q329.1875 28.753124 328.54688 28.753124Q327.96875 28.753124 327.5 29.1125Q327.04688 29.45625 326.84375 30.065624Q326.5625 31.003124 326.5625 32.1125L326.5625 37.55L324.79688 37.55ZM331.73438 41.55L331.54688 39.89375Q332.125 40.05 332.54688 40.05Q333.14062 40.05 333.48438 39.846874Q333.84375 39.659374 334.0625 39.315624Q334.23438 39.05 334.60938 38.003124Q334.65625 37.846874 334.76562 37.565624L330.82812 27.175L332.71875 27.175L334.875 33.190624Q335.29688 34.33125 335.625 35.58125Q335.9375 34.378124 336.34375 33.221874L338.5625 27.175L340.32812 27.175L336.375 37.721874Q335.75 39.440624 335.39062 40.08125Q334.92188 40.95625 334.3125 41.346874Q333.71875 41.753124 332.875 41.753124Q332.35938 41.753124 331.73438 41.55Z" fill-rule="nonzero"/></svg>