<svg version="1.1" viewBox="0.0 0.0 600.0 371.0" fill="none" stroke="none" stroke-linecap="square" stroke-miterlimit="10" width="600" height="371" xmlns:xlink="http://www.w3.org/1999/xlink" xmlns="http://www.w3.org/2000/svg"><path fill="#ffffff" fill-opacity="0.0" d="M0 0L600.0 0L600.0 371.0L0 371.0L0 0Z" fill-rule="nonzero"/><path fill="#2d4d98" d="M209.97025 85.25122C235.8582 65.57172 267.48126 54.916668 300.0 54.916668L300.0 129.3C283.74063 129.3 267.9291 134.62752 254.98512 144.46727Z" fill-rule="nonzero"/><path fill="#4571b0" d="M156.65588 163.88403C165.35556 132.5506 184.0823 104.930725 209.97025 85.25122L254.98512 144.46727C242.04115 154.30704 232.67778 168.11697 228.32794 183.78368Z" fill-rule="nonzero"/><path fill="#313d89" d="M197.69324 311.68726C157.71039 273.81348 141.92226 216.94977 156.65588 163.88403L228.32794 183.78368C220.96112 210.31654 228.8552 238.74841 248.84662 257.6853Z" fill-rule="nonzero"/><path fill="#b3ca48" d="M223.30276 331.15512C214.08768 325.6106 205.50098 319.08313 197.69324 311.68726L248.84662 257.6853C252.75049 261.38324 257.04385 264.64697 261.6514 267.41922Z" fill-rule="nonzero"/><path fill="#f5ee58" d="M300.0 54.916668C362.86954 54.916668 418.95193 94.43801 440.09863 153.6444C461.24533 212.85077 442.89053 278.9588 394.24673 318.78793C345.60297 358.6171 277.17297 363.56775 223.30276 331.15512L261.6514 267.41922C288.5865 283.62555 322.80148 281.1502 347.12338 261.23563C371.44525 241.32106 380.62268 208.26706 370.04932 178.66386C359.47595 149.06067 331.43475 129.3 300.0 129.3Z" fill-rule="nonzero"/><path fill="#ffffff" d="M382.7581 236.6578L384.41434 236.51718Q384.60184 237.73593 385.2737 238.3453Q385.9456 238.95468 386.8987 238.95468Q388.03934 238.95468 388.8206 238.0953Q389.61746 237.23593 389.61746 235.79843Q389.61746 234.45468 388.85184 233.67343Q388.10184 232.89218 386.86746 232.89218Q386.10184 232.89218 385.47684 233.23593Q384.86746 233.57968 384.5237 234.14218L383.03934 233.93906L384.28934 227.32968L390.6956 227.32968L390.6956 228.82968L385.55496 228.82968L384.85184 232.29843Q386.0237 231.48593 387.28934 231.48593Q388.97684 231.48593 390.1331 232.6578Q391.30496 233.82968 391.30496 235.6578Q391.30496 237.4078 390.2737 238.68906Q389.03934 240.25156 386.8987 240.25156Q385.1331 240.25156 384.0237 239.26718Q382.91434 238.2828 382.7581 236.6578ZM395.1956 233.04843Q394.2112 232.68906 393.72684 232.01718Q393.2581 231.3453 393.2581 230.42343Q393.2581 229.01718 394.2581 228.06406Q395.2737 227.0953 396.9612 227.0953Q398.6487 227.0953 399.66434 228.07968Q400.6956 229.04843 400.6956 230.45468Q400.6956 231.36093 400.22684 232.0328Q399.7581 232.68906 398.80496 233.04843Q399.99246 233.43906 400.60184 234.29843Q401.22684 235.1578 401.22684 236.3453Q401.22684 238.00156 400.05496 239.12656Q398.8831 240.25156 396.97684 240.25156Q395.0706 240.25156 393.8987 239.12656Q392.74246 237.98593 392.74246 236.29843Q392.74246 235.04843 393.36746 234.20468Q394.0081 233.3453 395.1956 233.04843ZM394.86746 230.36093Q394.86746 231.2828 395.4612 231.86093Q396.05496 232.43906 396.99246 232.43906Q397.8987 232.43906 398.47684 231.86093Q399.0706 231.2828 399.0706 230.45468Q399.0706 229.57968 398.4612 228.98593Q397.86746 228.39218 396.97684 228.39218Q396.0706 228.39218 395.4612 228.9703Q394.86746 229.54843 394.86746 230.36093ZM394.36746 236.31406Q394.36746 236.98593 394.67996 237.62656Q395.0081 238.25156 395.6331 238.61093Q396.2737 238.95468 397.0081 238.95468Q398.1331 238.95468 398.86746 238.2203Q399.61746 237.48593 399.61746 236.36093Q399.61746 235.2203 398.85184 234.48593Q398.0862 233.73593 396.9456 233.73593Q395.8362 233.73593 395.10184 234.4703Q394.36746 235.20468 394.36746 236.31406ZM403.6487 240.0328L403.6487 238.23593L405.4456 238.23593L405.4456 240.0328L403.6487 240.0328ZM415.9612 230.29843L414.3987 230.42343Q414.17996 229.50156 413.78934 229.07968Q413.1487 228.39218 412.2112 228.39218Q411.4612 228.39218 410.8831 228.81406Q410.1331 229.36093 409.6956 230.4078Q409.2737 231.45468 409.2581 233.39218Q409.8362 232.51718 410.6487 232.0953Q411.47684 231.67343 412.3831 231.67343Q413.97684 231.67343 415.0862 232.8453Q416.1956 234.00156 416.1956 235.8453Q416.1956 237.06406 415.66434 238.11093Q415.1487 239.14218 414.22684 239.70468Q413.3206 240.25156 412.16434 240.25156Q410.17996 240.25156 408.92996 238.79843Q407.67996 237.3453 407.67996 234.00156Q407.67996 230.26718 409.0706 228.56406Q410.2737 227.0953 412.30496 227.0953Q413.8362 227.0953 414.80496 227.95468Q415.7737 228.79843 415.9612 230.29843ZM409.5081 235.86093Q409.5081 236.67343 409.85184 237.42343Q410.1956 238.17343 410.8206 238.56406Q411.4456 238.95468 412.1331 238.95468Q413.1331 238.95468 413.85184 238.14218Q414.5706 237.32968 414.5706 235.93906Q414.5706 234.61093 413.85184 233.8453Q413.1487 233.06406 412.0706 233.06406Q410.99246 233.06406 410.24246 233.8453Q409.5081 234.61093 409.5081 235.86093ZM418.05496 230.23593Q418.05496 228.86093 418.74246 227.89218Q419.4456 226.92343 420.7581 226.92343Q421.97684 226.92343 422.7737 227.79843Q423.5706 228.6578 423.5706 230.3453Q423.5706 231.9703 422.7581 232.86093Q421.9612 233.73593 420.7737 233.73593Q419.61746 233.73593 418.8362 232.87656Q418.05496 232.00156 418.05496 230.23593ZM420.80496 228.01718Q420.2112 228.01718 419.8206 228.5328Q419.42996 229.0328 419.42996 230.39218Q419.42996 231.64218 419.8206 232.14218Q420.22684 232.64218 420.80496 232.64218Q421.3987 232.64218 421.78934 232.14218Q422.17996 231.62656 422.17996 230.2828Q422.17996 229.0328 421.78934 228.5328Q421.3987 228.01718 420.80496 228.01718ZM420.8206 240.50156L427.86746 226.92343L429.1487 226.92343L422.11746 240.50156L420.8206 240.50156ZM426.3831 237.00156Q426.3831 235.62656 427.0706 234.6578Q427.7737 233.68906 429.10184 233.68906Q430.3206 233.68906 431.10184 234.56406Q431.8987 235.42343 431.8987 237.11093Q431.8987 238.73593 431.10184 239.62656Q430.30496 240.50156 429.11746 240.50156Q427.9456 240.50156 427.16434 239.62656Q426.3831 238.75156 426.3831 237.00156ZM429.1487 234.7828Q428.55496 234.7828 428.16434 235.29843Q427.7737 235.79843 427.7737 237.17343Q427.7737 238.39218 428.16434 238.9078Q428.55496 239.42343 429.1331 239.42343Q429.74246 239.42343 430.1331 238.9078Q430.5237 238.39218 430.5237 237.04843Q430.5237 235.79843 430.1331 235.29843Q429.74246 234.7828 429.1487 234.7828Z" fill-rule="nonzero"/><path fill="#ffffff" d="M173.69504 240.0328L172.11691 240.0328L172.11691 229.95468Q171.53879 230.50156 170.61691 231.04843Q169.69504 231.57968 168.94504 231.86093L168.94504 230.32968Q170.27316 229.70468 171.27316 228.81406Q172.27316 227.92343 172.67941 227.0953L173.69504 227.0953L173.69504 240.0328ZM177.85129 228.82968L177.85129 227.31406L186.17941 227.31406L186.17941 228.54843Q184.96066 229.86093 183.74191 232.0328Q182.53879 234.18906 181.88254 236.48593Q181.39816 238.11093 181.27316 240.0328L179.64816 240.0328Q179.67941 238.51718 180.24191 236.36093Q180.82004 234.20468 181.88254 232.20468Q182.94504 230.20468 184.14816 228.82968L177.85129 228.82968ZM188.63254 240.0328L188.63254 238.23593L190.42941 238.23593L190.42941 240.0328L188.63254 240.0328ZM201.05441 238.51718L201.05441 240.0328L192.53879 240.0328Q192.52316 239.45468 192.72629 238.93906Q193.05441 238.06406 193.75754 237.2203Q194.47629 236.37656 195.83566 235.26718Q197.92941 233.54843 198.66379 232.54843Q199.41379 231.5328 199.41379 230.64218Q199.41379 229.68906 198.74191 229.04843Q198.07004 228.4078 196.99191 228.4078Q195.83566 228.4078 195.14816 229.0953Q194.47629 229.7828 194.46066 230.98593L192.83566 230.81406Q193.00754 229.00156 194.08566 228.04843Q195.17941 227.0953 197.02316 227.0953Q198.86691 227.0953 199.94504 228.12656Q201.03879 229.1578 201.03879 230.67343Q201.03879 231.43906 200.71066 232.18906Q200.39816 232.93906 199.66379 233.76718Q198.92941 234.5953 197.22629 236.0328Q195.80441 237.23593 195.39816 237.6578Q194.99191 238.07968 194.74191 238.51718L201.05441 238.51718ZM203.03879 230.23593Q203.03879 228.86093 203.72629 227.89218Q204.42941 226.92343 205.74191 226.92343Q206.96066 226.92343 207.75754 227.79843Q208.55441 228.6578 208.55441 230.3453Q208.55441 231.9703 207.74191 232.86093Q206.94504 233.73593 205.75754 233.73593Q204.60129 233.73593 203.82004 232.87656Q203.03879 232.00156 203.03879 230.23593ZM205.78879 228.01718Q205.19504 228.01718 204.80441 228.5328Q204.41379 229.0328 204.41379 230.39218Q204.41379 231.64218 204.80441 232.14218Q205.21066 232.64218 205.78879 232.64218Q206.38254 232.64218 206.77316 232.14218Q207.16379 231.62656 207.16379 230.2828Q207.16379 229.0328 206.77316 228.5328Q206.38254 228.01718 205.78879 228.01718ZM205.80441 240.50156L212.85129 226.92343L214.13254 226.92343L207.10129 240.50156L205.80441 240.50156ZM211.36691 237.00156Q211.36691 235.62656 212.05441 234.6578Q212.75754 233.68906 214.08566 233.68906Q215.30441 233.68906 216.08566 234.56406Q216.88254 235.42343 216.88254 237.11093Q216.88254 238.73593 216.08566 239.62656Q215.28879 240.50156 214.10129 240.50156Q212.92941 240.50156 212.14816 239.62656Q211.36691 238.75156 211.36691 237.00156ZM214.13254 234.7828Q213.53879 234.7828 213.14816 235.29843Q212.75754 235.79843 212.75754 237.17343Q212.75754 238.39218 213.14816 238.9078Q213.53879 239.42343 214.11691 239.42343Q214.72629 239.42343 215.11691 238.9078Q215.50754 238.39218 215.50754 237.04843Q215.50754 235.79843 215.11691 235.29843Q214.72629 234.7828 214.13254 234.7828Z" fill-rule="nonzero"/><path fill="#ffffff" d="M188.85373 147.5689L187.2756 147.5689L187.2756 137.49077Q186.69748 138.03764 185.7756 138.58452Q184.85373 139.11577 184.10373 139.39702L184.10373 137.86577Q185.43185 137.24077 186.43185 136.35014Q187.43185 135.45952 187.8381 134.6314L188.85373 134.6314L188.85373 147.5689ZM192.9006 141.20952Q192.9006 138.92827 193.36935 137.53764Q193.8381 136.14702 194.75998 135.39702Q195.69748 134.6314 197.10373 134.6314Q198.13498 134.6314 198.91623 135.05327Q199.69748 135.45952 200.19748 136.2564Q200.7131 137.03764 201.00998 138.17827Q201.30685 139.30327 201.30685 141.20952Q201.30685 143.47514 200.8381 144.8814Q200.36935 146.27202 199.43185 147.03764Q198.50998 147.78764 197.10373 147.78764Q195.22873 147.78764 194.16623 146.45952Q192.9006 144.85014 192.9006 141.20952ZM194.5256 141.20952Q194.5256 144.3814 195.25998 145.4439Q196.00998 146.49077 197.10373 146.49077Q198.18185 146.49077 198.93185 145.4439Q199.68185 144.3814 199.68185 141.20952Q199.68185 138.03764 198.93185 136.99077Q198.18185 135.9439 197.0881 135.9439Q195.99435 135.9439 195.3381 136.86577Q194.5256 138.03764 194.5256 141.20952ZM203.79123 147.5689L203.79123 145.77202L205.5881 145.77202L205.5881 147.5689L203.79123 147.5689ZM207.9006 144.16264L209.49435 143.95952Q209.75998 145.30327 210.41623 145.89702Q211.07248 146.49077 212.00998 146.49077Q213.13498 146.49077 213.9006 145.72514Q214.66623 144.9439 214.66623 143.80327Q214.66623 142.70952 213.94748 142.0064Q213.24435 141.28764 212.1506 141.28764Q211.69748 141.28764 211.0256 141.47514L211.19748 140.08452Q211.35373 140.10014 211.4631 140.10014Q212.4631 140.10014 213.2756 139.5689Q214.0881 139.03764 214.0881 137.9439Q214.0881 137.0689 213.49435 136.5064Q212.9006 135.92827 211.97873 135.92827Q211.05685 135.92827 210.43185 136.5064Q209.82248 137.08452 209.6506 138.2564L208.07248 137.97514Q208.35373 136.3814 209.38498 135.5064Q210.41623 134.6314 211.94748 134.6314Q212.99435 134.6314 213.88498 135.08452Q214.7756 135.53764 215.24435 136.3189Q215.7131 137.10014 215.7131 137.97514Q215.7131 138.8189 215.25998 139.5064Q214.82248 140.17827 213.93185 140.58452Q215.07248 140.85014 215.69748 141.6939Q216.3381 142.52202 216.3381 143.7564Q216.3381 145.4439 215.10373 146.6314Q213.88498 147.80327 212.00998 147.80327Q210.30685 147.80327 209.18185 146.78764Q208.07248 145.77202 207.9006 144.16264ZM218.19748 137.77202Q218.19748 136.39702 218.88498 135.42827Q219.5881 134.45952 220.9006 134.45952Q222.11935 134.45952 222.91623 135.33452Q223.7131 136.1939 223.7131 137.8814Q223.7131 139.5064 222.9006 140.39702Q222.10373 141.27202 220.91623 141.27202Q219.75998 141.27202 218.97873 140.41264Q218.19748 139.53764 218.19748 137.77202ZM220.94748 135.55327Q220.35373 135.55327 219.9631 136.0689Q219.57248 136.5689 219.57248 137.92827Q219.57248 139.17827 219.9631 139.67827Q220.36935 140.17827 220.94748 140.17827Q221.54123 140.17827 221.93185 139.67827Q222.32248 139.16264 222.32248 137.8189Q222.32248 136.5689 221.93185 136.0689Q221.54123 135.55327 220.94748 135.55327ZM220.9631 148.03764L228.00998 134.45952L229.29123 134.45952L222.25998 148.03764L220.9631 148.03764ZM226.5256 144.53764Q226.5256 143.16264 227.2131 142.1939Q227.91623 141.22514 229.24435 141.22514Q230.4631 141.22514 231.24435 142.10014Q232.04123 142.95952 232.04123 144.64702Q232.04123 146.27202 231.24435 147.16264Q230.44748 148.03764 229.25998 148.03764Q228.0881 148.03764 227.30685 147.16264Q226.5256 146.28764 226.5256 144.53764ZM229.29123 142.3189Q228.69748 142.3189 228.30685 142.83452Q227.91623 143.33452 227.91623 144.70952Q227.91623 145.92827 228.30685 146.4439Q228.69748 146.95952 229.2756 146.95952Q229.88498 146.95952 230.2756 146.4439Q230.66623 145.92827 230.66623 144.58452Q230.66623 143.33452 230.2756 142.83452Q229.88498 142.3189 229.29123 142.3189Z" fill-rule="nonzero"/><path fill="#ffffff" d="M245.57706 104.44893L243.99893 104.44893L243.99893 94.370804Q243.4208 94.91768 242.49893 95.464554Q241.57706 95.995804 240.82706 96.277054L240.82706 94.745804Q242.15518 94.120804 243.15518 93.23018Q244.15518 92.339554 244.56143 91.51143L245.57706 91.51143L245.57706 104.44893ZM249.62393 98.089554Q249.62393 95.808304 250.09268 94.41768Q250.56143 93.027054 251.4833 92.277054Q252.4208 91.51143 253.82706 91.51143Q254.8583 91.51143 255.63956 91.933304Q256.4208 92.339554 256.9208 93.13643Q257.43643 93.91768 257.7333 95.058304Q258.03018 96.183304 258.03018 98.089554Q258.03018 100.35518 257.56143 101.76143Q257.09268 103.152054 256.15518 103.91768Q255.2333 104.66768 253.82706 104.66768Q251.95206 104.66768 250.88956 103.339554Q249.62393 101.73018 249.62393 98.089554ZM251.24893 98.089554Q251.24893 101.26143 251.9833 102.32393Q252.7333 103.370804 253.82706 103.370804Q254.90518 103.370804 255.65518 102.32393Q256.40518 101.26143 256.40518 98.089554Q256.40518 94.91768 255.65518 93.870804Q254.90518 92.82393 253.81143 92.82393Q252.71768 92.82393 252.06143 93.745804Q251.24893 94.91768 251.24893 98.089554ZM260.51456 104.44893L260.51456 102.652054L262.31143 102.652054L262.31143 104.44893L260.51456 104.44893ZM264.62393 101.04268L266.21768 100.839554Q266.4833 102.183304 267.13956 102.777054Q267.7958 103.370804 268.7333 103.370804Q269.8583 103.370804 270.62393 102.60518Q271.38956 101.82393 271.38956 100.683304Q271.38956 99.589554 270.6708 98.88643Q269.96768 98.16768 268.87393 98.16768Q268.4208 98.16768 267.74893 98.35518L267.9208 96.964554Q268.07706 96.98018 268.18643 96.98018Q269.18643 96.98018 269.99893 96.44893Q270.81143 95.91768 270.81143 94.82393Q270.81143 93.94893 270.21768 93.38643Q269.62393 92.808304 268.70206 92.808304Q267.78018 92.808304 267.15518 93.38643Q266.5458 93.964554 266.37393 95.13643L264.7958 94.85518Q265.07706 93.26143 266.1083 92.38643Q267.13956 91.51143 268.6708 91.51143Q269.71768 91.51143 270.6083 91.964554Q271.49893 92.41768 271.96768 93.19893Q272.43643 93.98018 272.43643 94.85518Q272.43643 95.69893 271.9833 96.38643Q271.5458 97.058304 270.65518 97.464554Q271.7958 97.73018 272.4208 98.57393Q273.06143 99.402054 273.06143 100.63643Q273.06143 102.32393 271.82706 103.51143Q270.6083 104.683304 268.7333 104.683304Q267.03018 104.683304 265.90518 103.66768Q264.7958 102.652054 264.62393 101.04268ZM274.9208 94.652054Q274.9208 93.277054 275.6083 92.308304Q276.31143 91.339554 277.62393 91.339554Q278.84268 91.339554 279.63956 92.214554Q280.43643 93.07393 280.43643 94.76143Q280.43643 96.38643 279.62393 97.277054Q278.82706 98.152054 277.63956 98.152054Q276.4833 98.152054 275.70206 97.29268Q274.9208 96.41768 274.9208 94.652054ZM277.6708 92.433304Q277.07706 92.433304 276.68643 92.94893Q276.2958 93.44893 276.2958 94.808304Q276.2958 96.058304 276.68643 96.558304Q277.09268 97.058304 277.6708 97.058304Q278.26456 97.058304 278.65518 96.558304Q279.0458 96.04268 279.0458 94.69893Q279.0458 93.44893 278.65518 92.94893Q278.26456 92.433304 277.6708 92.433304ZM277.68643 104.91768L284.7333 91.339554L286.01456 91.339554L278.9833 104.91768L277.68643 104.91768ZM283.24893 101.41768Q283.24893 100.04268 283.93643 99.07393Q284.63956 98.10518 285.96768 98.10518Q287.18643 98.10518 287.96768 98.98018Q288.76456 99.839554 288.76456 101.527054Q288.76456 103.152054 287.96768 104.04268Q287.1708 104.91768 285.9833 104.91768Q284.81143 104.91768 284.03018 104.04268Q283.24893 103.16768 283.24893 101.41768ZM286.01456 99.19893Q285.4208 99.19893 285.03018 99.714554Q284.63956 100.214554 284.63956 101.589554Q284.63956 102.808304 285.03018 103.32393Q285.4208 103.839554 285.99893 103.839554Q286.6083 103.839554 286.99893 103.32393Q287.38956 102.808304 287.38956 101.464554Q287.38956 100.214554 286.99893 99.714554Q286.6083 99.19893 286.01456 99.19893Z" fill-rule="nonzero"/><path stroke="#ffffff" stroke-width="1.0" stroke-linejoin="round" stroke-linecap="round" d="M261.6514 267.41922C288.5865 283.62555 322.80148 281.1502 347.12338 261.23563C371.44525 241.32106 380.62268 208.26706 370.04932 178.66386C359.47595 149.06067 331.43475 129.3 300.0 129.3L300.0 54.916668C362.86954 54.916668 418.95193 94.43801 440.09863 153.6444C461.24533 212.85077 442.89053 278.9588 394.24673 318.78793C345.60297 358.6171 277.17297 363.56775 223.30276 331.15512" fill-rule="nonzero"/><path stroke="#ffffff" stroke-width="1.0" stroke-linejoin="round" stroke-linecap="round" d="M248.84662 257.6853C252.75049 261.38324 257.04385 264.64697 261.6514 267.41922L223.30276 331.15512C214.08768 325.6106 205.50098 319.08313 197.69324 311.68726" fill-rule="nonzero"/><path stroke="#ffffff" stroke-width="1.0" stroke-linejoin="round" stroke-linecap="round" d="M228.32794 183.78368C220.96112 210.31654 228.8552 238.74841 248.84662 257.6853L197.69324 311.68726C157.71039 273.81348 141.92226 216.94977 156.65588 163.88403" fill-rule="nonzero"/><path stroke="#ffffff" stroke-width="1.0" stroke-linejoin="round" stroke-linecap="round" d="M254.98512 144.46727C242.04115 154.30704 232.67778 168.11697 228.32794 183.78368L156.65588 163.88403C165.35556 132.5506 184.0823 104.930725 209.97025 85.25122" fill-rule="nonzero"/><path stroke="#ffffff" stroke-width="1.0" stroke-linejoin="round" stroke-linecap="round" d="M300.0 129.3C283.74063 129.3 267.9291 134.62752 254.98512 144.46727L209.97025 85.25122C235.8582 65.57172 267.48126 54.916668 300.0 54.916668" fill-rule="nonzero"/><path fill="#efefef" d="M19.784374 69.916664L19.784374 58.46354L23.7375 58.46354Q25.065624 58.46354 25.76875 58.61979Q26.753124 58.854164 27.45625 59.447914Q28.3625 60.21354 28.8 61.40104Q29.253124 62.58854 29.253124 64.11979Q29.253124 65.43229 28.940624 66.447914Q28.64375 67.447914 28.159374 68.104164Q27.690624 68.760414 27.128124 69.15104Q26.565624 69.52604 25.753124 69.729164Q24.95625 69.916664 23.925 69.916664L19.784374 69.916664ZM21.3 68.55729L23.753124 68.55729Q24.878124 68.55729 25.51875 68.354164Q26.175 68.135414 26.55 67.760414Q27.096874 67.21354 27.39375 66.30729Q27.690624 65.40104 27.690624 64.104164Q27.690624 62.30729 27.096874 61.33854Q26.51875 60.36979 25.675 60.041664Q25.065624 59.80729 23.70625 59.80729L21.3 59.80729L21.3 68.55729ZM31.6125 60.072914L31.6125 58.46354L33.01875 58.46354L33.01875 60.072914L31.6125 60.072914ZM31.6125 69.916664L31.6125 61.61979L33.01875 61.61979L33.01875 69.916664L31.6125 69.916664ZM35.6125 73.104164L35.6125 61.61979L36.89375 61.61979L36.89375 62.697914Q37.346874 62.05729 37.909374 61.74479Q38.4875 61.43229 39.3 61.43229Q40.3625 61.43229 41.175 61.979164Q41.9875 62.52604 42.39375 63.52604Q42.815624 64.510414 42.815624 65.697914Q42.815624 66.979164 42.346874 67.99479Q41.89375 69.010414 41.01875 69.55729Q40.159374 70.104164 39.190624 70.104164Q38.4875 70.104164 37.925 69.80729Q37.378124 69.510414 37.01875 69.05729L37.01875 73.104164L35.6125 73.104164ZM36.878124 65.80729Q36.878124 67.416664 37.51875 68.18229Q38.175 68.947914 39.096874 68.947914Q40.034374 68.947914 40.70625 68.15104Q41.378124 67.354164 41.378124 65.697914Q41.378124 64.104164 40.721874 63.322914Q40.065624 62.52604 39.159374 62.52604Q38.26875 62.52604 37.565624 63.36979Q36.878124 64.21354 36.878124 65.80729ZM44.58125 69.916664L44.58125 58.46354L45.9875 58.46354L45.9875 69.916664L44.58125 69.916664ZM48.08125 65.760414Q48.08125 63.46354 49.3625 62.354164Q50.440624 61.43229 51.971874 61.43229Q53.690624 61.43229 54.76875 62.55729Q55.8625 63.666664 55.8625 65.65104Q55.8625 67.24479 55.378124 68.166664Q54.89375 69.08854 53.971874 69.604164Q53.065624 70.104164 51.971874 70.104164Q50.2375 70.104164 49.159374 68.99479Q48.08125 67.86979 48.08125 65.760414ZM49.534374 65.760414Q49.534374 67.354164 50.221874 68.15104Q50.925 68.947914 51.971874 68.947914Q53.01875 68.947914 53.70625 68.15104Q54.409374 67.354164 54.409374 65.71354Q54.409374 64.18229 53.70625 63.385414Q53.01875 62.58854 51.971874 62.58854Q50.925 62.58854 50.221874 63.385414Q49.534374 64.166664 49.534374 65.760414ZM57.6125 69.916664L57.6125 61.61979L58.8625 61.61979L58.8625 62.77604Q59.253124 62.166664 59.89375 61.80729Q60.55 61.43229 61.378124 61.43229Q62.3 61.43229 62.89375 61.822914Q63.4875 62.197914 63.721874 62.885414Q64.70625 61.43229 66.28438 61.43229Q67.51875 61.43229 68.175 62.11979Q68.84688 62.791664 68.84688 64.21354L68.84688 69.916664L67.45625 69.916664L67.45625 64.68229Q67.45625 63.83854 67.31563 63.479164Q67.175 63.104164 66.81563 62.885414Q66.45625 62.65104 65.97188 62.65104Q65.09688 62.65104 64.51875 63.229164Q63.940624 63.80729 63.940624 65.08854L63.940624 69.916664L62.534374 69.916664L62.534374 64.52604Q62.534374 63.58854 62.190624 63.11979Q61.846874 62.65104 61.065624 62.65104Q60.471874 62.65104 59.971874 62.96354Q59.471874 63.27604 59.2375 63.885414Q59.01875 64.479164 59.01875 65.604164L59.01875 69.916664L57.6125 69.916664ZM76.01875 68.885414Q75.2375 69.55729 74.51875 69.83854Q73.8 70.104164 72.97188 70.104164Q71.59688 70.104164 70.8625 69.43229Q70.12813 68.760414 70.12813 67.729164Q70.12813 67.11979 70.40938 66.61979Q70.69063 66.104164 71.12813 65.80729Q71.58125 65.49479 72.14375 65.33854Q72.56563 65.229164 73.39375 65.135414Q75.09688 64.93229 75.90938 64.65104Q75.90938 64.354164 75.90938 64.27604Q75.90938 63.416664 75.51875 63.072914Q74.97188 62.58854 73.90938 62.58854Q72.925 62.58854 72.44063 62.947914Q71.97188 63.291664 71.75313 64.166664L70.37813 63.979164Q70.56563 63.104164 70.9875 62.55729Q71.425 62.010414 72.2375 61.729164Q73.05 61.43229 74.1125 61.43229Q75.175 61.43229 75.83125 61.68229Q76.50313 61.93229 76.81563 62.30729Q77.12813 62.68229 77.25313 63.260414Q77.33125 63.61979 77.33125 64.55729L77.33125 66.43229Q77.33125 68.40104 77.40938 68.916664Q77.50313 69.43229 77.76875 69.916664L76.3 69.916664Q76.08125 69.479164 76.01875 68.885414ZM75.90938 65.74479Q75.14375 66.05729 73.6125 66.27604Q72.7375 66.40104 72.37813 66.55729Q72.01875 66.71354 71.81563 67.02604Q71.62813 67.322914 71.62813 67.68229Q71.62813 68.24479 72.05 68.61979Q72.4875 68.99479 73.3 68.99479Q74.1125 68.99479 74.7375 68.65104Q75.37813 68.291664 75.675 67.666664Q75.90938 67.197914 75.90938 66.260414L75.90938 65.74479ZM82.675 68.65104L82.87813 69.90104Q82.28438 70.02604 81.81563 70.02604Q81.05 70.02604 80.62813 69.791664Q80.20625 69.541664 80.03438 69.15104Q79.8625 68.74479 79.8625 67.479164L79.8625 62.71354L78.83125 62.71354L78.83125 61.61979L79.8625 61.61979L79.8625 59.55729L81.26875 58.71354L81.26875 61.61979L82.675 61.61979L82.675 62.71354L81.26875 62.71354L81.26875 67.55729Q81.26875 68.166664 81.33125 68.33854Q81.40938 68.510414 81.58125 68.61979Q81.75313 68.71354 82.06563 68.71354Q82.3 68.71354 82.675 68.65104ZM83.6125 60.072914L83.6125 58.46354L85.01875 58.46354L85.01875 60.072914L83.6125 60.072914ZM83.6125 69.916664L83.6125 61.61979L85.01875 61.61979L85.01875 69.916664L83.6125 69.916664ZM93.01875 66.86979L94.40938 67.05729Q94.175 68.479164 93.2375 69.291664Q92.31563 70.104164 90.95625 70.104164Q89.25313 70.104164 88.20625 68.99479Q87.175 67.86979 87.175 65.791664Q87.175 64.447914 87.6125 63.447914Q88.06563 62.43229 88.97188 61.93229Q89.89375 61.43229 90.95625 61.43229Q92.31563 61.43229 93.175 62.11979Q94.03438 62.791664 94.26875 64.05729L92.90938 64.260414Q92.70625 63.43229 92.20625 63.010414Q91.72188 62.58854 91.01875 62.58854Q89.95625 62.58854 89.28438 63.354164Q88.62813 64.104164 88.62813 65.760414Q88.62813 67.43229 89.26875 68.197914Q89.90938 68.947914 90.94063 68.947914Q91.76875 68.947914 92.31563 68.447914Q92.87813 67.93229 93.01875 66.86979Z" fill-rule="nonzero"/><path fill="#9e9e9e" d="M24.51875 91.916664L23.1125 91.916664L23.1125 82.947914Q22.596874 83.43229 21.76875 83.916664Q20.95625 84.40104 20.3 84.65104L20.3 83.291664Q21.471874 82.729164 22.346874 81.947914Q23.2375 81.15104 23.6125 80.416664L24.51875 80.416664L24.51875 91.916664ZM28.221874 86.260414Q28.221874 84.229164 28.628124 82.99479Q29.05 81.760414 29.878124 81.08854Q30.70625 80.416664 31.95625 80.416664Q32.878124 80.416664 33.565624 80.791664Q34.26875 81.15104 34.721874 81.854164Q35.175 82.55729 35.425 83.55729Q35.690624 84.55729 35.690624 86.260414Q35.690624 88.27604 35.26875 89.52604Q34.8625 90.760414 34.034374 91.447914Q33.20625 92.11979 31.95625 92.11979Q30.3 92.11979 29.346874 90.916664Q28.221874 89.49479 28.221874 86.260414ZM29.659374 86.260414Q29.659374 89.08854 30.315624 90.02604Q30.9875 90.947914 31.95625 90.947914Q32.925 90.947914 33.58125 90.010414Q34.2375 89.072914 34.2375 86.260414Q34.2375 83.43229 33.58125 82.510414Q32.925 81.572914 31.940624 81.572914Q30.971874 81.572914 30.39375 82.40104Q29.659374 83.447914 29.659374 86.260414ZM38.003124 91.916664L38.003124 90.30729L39.6125 90.30729L39.6125 91.916664L38.003124 91.916664ZM41.221874 88.885414L42.628124 88.697914Q42.878124 89.90104 43.45625 90.43229Q44.034374 90.947914 44.878124 90.947914Q45.8625 90.947914 46.55 90.260414Q47.2375 89.572914 47.2375 88.55729Q47.2375 87.58854 46.596874 86.96354Q45.971874 86.33854 44.9875 86.33854Q44.596874 86.33854 44.003124 86.49479L44.159374 85.260414Q44.3 85.27604 44.378124 85.27604Q45.284374 85.27604 46.003124 84.80729Q46.721874 84.33854 46.721874 83.354164Q46.721874 82.58854 46.190624 82.08854Q45.675 81.572914 44.846874 81.572914Q44.01875 81.572914 43.471874 82.08854Q42.925 82.604164 42.76875 83.635414L41.3625 83.385414Q41.628124 81.96354 42.534374 81.197914Q43.45625 80.416664 44.815624 80.416664Q45.753124 80.416664 46.534374 80.822914Q47.33125 81.21354 47.7375 81.916664Q48.159374 82.604164 48.159374 83.385414Q48.159374 84.135414 47.753124 84.74479Q47.3625 85.354164 46.58125 85.71354Q47.596874 85.947914 48.159374 86.68229Q48.721874 87.416664 48.721874 88.52604Q48.721874 90.02604 47.628124 91.072914Q46.534374 92.11979 44.8625 92.11979Q43.3625 92.11979 42.3625 91.229164Q41.3625 90.322914 41.221874 88.885414ZM50.4875 83.21354Q50.4875 81.979164 51.096874 81.11979Q51.721874 80.260414 52.89375 80.260414Q53.971874 80.260414 54.675 81.041664Q55.378124 81.80729 55.378124 83.291664Q55.378124 84.74479 54.659374 85.541664Q53.95625 86.322914 52.909374 86.322914Q51.8625 86.322914 51.175 85.55729Q50.4875 84.77604 50.4875 83.21354ZM52.925 81.229164Q52.409374 81.229164 52.05 81.68229Q51.70625 82.135414 51.70625 83.354164Q51.70625 84.447914 52.05 84.90104Q52.409374 85.354164 52.925 85.354164Q53.45625 85.354164 53.8 84.90104Q54.159374 84.447914 54.159374 83.24479Q54.159374 82.135414 53.8 81.68229Q53.45625 81.229164 52.925 81.229164ZM52.940624 92.33854L59.20625 80.260414L60.346874 80.260414L54.096874 92.33854L52.940624 92.33854ZM57.89375 89.229164Q57.89375 87.99479 58.503124 87.135414Q59.128124 86.27604 60.3 86.27604Q61.378124 86.27604 62.08125 87.05729Q62.8 87.822914 62.8 89.30729Q62.8 90.760414 62.08125 91.55729Q61.3625 92.33854 60.315624 92.33854Q59.26875 92.33854 58.58125 91.55729Q57.89375 90.77604 57.89375 89.229164ZM60.346874 87.24479Q59.815624 87.24479 59.45625 87.697914Q59.1125 88.15104 59.1125 89.36979Q59.1125 90.46354 59.45625 90.916664Q59.815624 91.36979 60.33125 91.36979Q60.878124 91.36979 61.221874 90.916664Q61.565624 90.46354 61.565624 89.260414Q61.565624 88.15104 61.20625 87.697914Q60.8625 87.24479 60.346874 87.24479Z" fill-rule="nonzero"/><path stroke="#757575" stroke-width="1.0" stroke-linecap="butt" d="M18.55 75.416664L145.23334 75.416664L254.87364 69.75309" fill-rule="nonzero"/><path fill="#9e9e9e" d="M256.87366 69.75309C256.87366 68.64852 255.97821 67.75309 254.87364 67.75309C253.76907 67.75309 252.87364 68.64852 252.87364 69.75309C252.87364 70.85766 253.76907 71.75309 254.87364 71.75309C255.97821 71.75309 256.87366 70.85766 256.87366 69.75309" fill-rule="nonzero"/><path fill="#efefef" d="M19.7375 118.871704L19.7375 107.41858L22.01875 107.41858L24.7375 115.527954Q25.1125 116.652954 25.284374 117.215454Q25.471874 116.590454 25.89375 115.38733L28.628124 107.41858L30.675 107.41858L30.675 118.871704L29.20625 118.871704L29.20625 109.277954L25.878124 118.871704L24.51875 118.871704L21.20625 109.121704L21.20625 118.871704L19.7375 118.871704ZM32.6125 109.027954L32.6125 107.41858L34.01875 107.41858L34.01875 109.027954L32.6125 109.027954ZM32.6125 118.871704L32.6125 110.57483L34.01875 110.57483L34.01875 118.871704L32.6125 118.871704ZM36.58125 118.871704L36.58125 107.41858L37.9875 107.41858L37.9875 118.871704L36.58125 118.871704ZM40.6125 109.027954L40.6125 107.41858L42.01875 107.41858L42.01875 109.027954L40.6125 109.027954ZM40.6125 118.871704L40.6125 110.57483L42.01875 110.57483L42.01875 118.871704L40.6125 118.871704ZM47.675 117.60608L47.878124 118.85608Q47.284374 118.98108 46.815624 118.98108Q46.05 118.98108 45.628124 118.746704Q45.20625 118.496704 45.034374 118.10608Q44.8625 117.69983 44.8625 116.434204L44.8625 111.66858L43.83125 111.66858L43.83125 110.57483L44.8625 110.57483L44.8625 108.51233L46.26875 107.66858L46.26875 110.57483L47.675 110.57483L47.675 111.66858L46.26875 111.66858L46.26875 116.51233Q46.26875 117.121704 46.33125 117.29358Q46.409374 117.465454 46.58125 117.57483Q46.753124 117.66858 47.065624 117.66858Q47.3 117.66858 47.675 117.60608ZM54.01875 117.840454Q53.2375 118.51233 52.51875 118.79358Q51.8 119.059204 50.971874 119.059204Q49.596874 119.059204 48.8625 118.38733Q48.128124 117.715454 48.128124 116.684204Q48.128124 116.07483 48.409374 115.57483Q48.690624 115.059204 49.128124 114.76233Q49.58125 114.44983 50.14375 114.29358Q50.565624 114.184204 51.39375 114.090454Q53.096874 113.88733 53.909374 113.60608Q53.909374 113.309204 53.909374 113.23108Q53.909374 112.371704 53.51875 112.027954Q52.971874 111.54358 51.909374 111.54358Q50.925 111.54358 50.440624 111.902954Q49.971874 112.246704 49.753124 113.121704L48.378124 112.934204Q48.565624 112.059204 48.9875 111.51233Q49.425 110.965454 50.2375 110.684204Q51.05 110.38733 52.1125 110.38733Q53.175 110.38733 53.83125 110.63733Q54.503124 110.88733 54.815624 111.26233Q55.128124 111.63733 55.253124 112.215454Q55.33125 112.57483 55.33125 113.51233L55.33125 115.38733Q55.33125 117.35608 55.409374 117.871704Q55.503124 118.38733 55.76875 118.871704L54.3 118.871704Q54.08125 118.434204 54.01875 117.840454ZM53.909374 114.69983Q53.14375 115.01233 51.6125 115.23108Q50.7375 115.35608 50.378124 115.51233Q50.01875 115.66858 49.815624 115.98108Q49.628124 116.277954 49.628124 116.63733Q49.628124 117.19983 50.05 117.57483Q50.4875 117.94983 51.3 117.94983Q52.1125 117.94983 52.7375 117.60608Q53.378124 117.246704 53.675 116.621704Q53.909374 116.152954 53.909374 115.215454L53.909374 114.69983ZM57.596874 118.871704L57.596874 110.57483L58.8625 110.57483L58.8625 111.82483Q59.346874 110.94983 59.753124 110.66858Q60.159374 110.38733 60.659374 110.38733Q61.3625 110.38733 62.096874 110.840454L61.6125 112.13733Q61.096874 111.840454 60.58125 111.840454Q60.128124 111.840454 59.753124 112.121704Q59.39375 112.38733 59.2375 112.88733Q59.003124 113.63733 59.003124 114.527954L59.003124 118.871704L57.596874 118.871704ZM62.55 122.07483L62.39375 120.746704Q62.846874 120.871704 63.190624 120.871704Q63.659374 120.871704 63.940624 120.715454Q64.22188 120.559204 64.40938 120.277954Q64.53438 120.07483 64.83125 119.23108Q64.87813 119.121704 64.95625 118.88733L61.815624 110.57483L63.33125 110.57483L65.05 115.371704Q65.39375 116.29358 65.65938 117.29358Q65.89375 116.32483 66.2375 115.402954L68.00313 110.57483L69.40938 110.57483L66.25313 119.01233Q65.75313 120.38733 65.47188 120.902954Q65.09688 121.590454 64.6125 121.91858Q64.12813 122.246704 63.45625 122.246704Q63.05 122.246704 62.55 122.07483Z" fill-rule="nonzero"/><path fill="#9e9e9e" d="M24.51875 140.8717L23.1125 140.8717L23.1125 131.90295Q22.596874 132.38733 21.76875 132.8717Q20.95625 133.35608 20.3 133.60608L20.3 132.2467Q21.471874 131.6842 22.346874 130.90295Q23.2375 130.10608 23.6125 129.3717L24.51875 129.3717L24.51875 140.8717ZM28.221874 135.21545Q28.221874 133.1842 28.628124 131.94983Q29.05 130.71545 29.878124 130.04358Q30.70625 129.3717 31.95625 129.3717Q32.878124 129.3717 33.565624 129.7467Q34.26875 130.10608 34.721874 130.8092Q35.175 131.51233 35.425 132.51233Q35.690624 133.51233 35.690624 135.21545Q35.690624 137.23108 35.26875 138.48108Q34.8625 139.71545 34.034374 140.40295Q33.20625 141.07483 31.95625 141.07483Q30.3 141.07483 29.346874 139.8717Q28.221874 138.44983 28.221874 135.21545ZM29.659374 135.21545Q29.659374 138.04358 30.315624 138.98108Q30.9875 139.90295 31.95625 139.90295Q32.925 139.90295 33.58125 138.96545Q34.2375 138.02795 34.2375 135.21545Q34.2375 132.38733 33.58125 131.46545Q32.925 130.52795 31.940624 130.52795Q30.971874 130.52795 30.39375 131.35608Q29.659374 132.40295 29.659374 135.21545ZM38.003124 140.8717L38.003124 139.26233L39.6125 139.26233L39.6125 140.8717L38.003124 140.8717ZM41.221874 137.84045L42.628124 137.65295Q42.878124 138.85608 43.45625 139.38733Q44.034374 139.90295 44.878124 139.90295Q45.8625 139.90295 46.55 139.21545Q47.2375 138.52795 47.2375 137.51233Q47.2375 136.54358 46.596874 135.91858Q45.971874 135.29358 44.9875 135.29358Q44.596874 135.29358 44.003124 135.44983L44.159374 134.21545Q44.3 134.23108 44.378124 134.23108Q45.284374 134.23108 46.003124 133.76233Q46.721874 133.29358 46.721874 132.3092Q46.721874 131.54358 46.190624 131.04358Q45.675 130.52795 44.846874 130.52795Q44.01875 130.52795 43.471874 131.04358Q42.925 131.5592 42.76875 132.59045L41.3625 132.34045Q41.628124 130.91858 42.534374 130.15295Q43.45625 129.3717 44.815624 129.3717Q45.753124 129.3717 46.534374 129.77795Q47.33125 130.16858 47.7375 130.8717Q48.159374 131.5592 48.159374 132.34045Q48.159374 133.09045 47.753124 133.69983Q47.3625 134.3092 46.58125 134.66858Q47.596874 134.90295 48.159374 135.63733Q48.721874 136.3717 48.721874 137.48108Q48.721874 138.98108 47.628124 140.02795Q46.534374 141.07483 44.8625 141.07483Q43.3625 141.07483 42.3625 140.1842Q41.3625 139.27795 41.221874 137.84045ZM50.4875 132.16858Q50.4875 130.9342 51.096874 130.07483Q51.721874 129.21545 52.89375 129.21545Q53.971874 129.21545 54.675 129.9967Q55.378124 130.76233 55.378124 132.2467Q55.378124 133.69983 54.659374 134.4967Q53.95625 135.27795 52.909374 135.27795Q51.8625 135.27795 51.175 134.51233Q50.4875 133.73108 50.4875 132.16858ZM52.925 130.1842Q52.409374 130.1842 52.05 130.63733Q51.70625 131.09045 51.70625 132.3092Q51.70625 133.40295 52.05 133.85608Q52.409374 134.3092 52.925 134.3092Q53.45625 134.3092 53.8 133.85608Q54.159374 133.40295 54.159374 132.19983Q54.159374 131.09045 53.8 130.63733Q53.45625 130.1842 52.925 130.1842ZM52.940624 141.29358L59.20625 129.21545L60.346874 129.21545L54.096874 141.29358L52.940624 141.29358ZM57.89375 138.1842Q57.89375 136.94983 58.503124 136.09045Q59.128124 135.23108 60.3 135.23108Q61.378124 135.23108 62.08125 136.01233Q62.8 136.77795 62.8 138.26233Q62.8 139.71545 62.08125 140.51233Q61.3625 141.29358 60.315624 141.29358Q59.26875 141.29358 58.58125 140.51233Q57.89375 139.73108 57.89375 138.1842ZM60.346874 136.19983Q59.815624 136.19983 59.45625 136.65295Q59.1125 137.10608 59.1125 138.32483Q59.1125 139.41858 59.45625 139.8717Q59.815624 140.32483 60.33125 140.32483Q60.878124 140.32483 61.221874 139.8717Q61.565624 139.41858 61.565624 138.21545Q61.565624 137.10608 61.20625 136.65295Q60.8625 136.19983 60.346874 136.19983Z" fill-rule="nonzero"/><path stroke="#757575" stroke-width="1.0" stroke-linecap="butt" d="M18.55 124.371704L145.23334 124.371704L183.0241 124.371704" fill-rule="nonzero"/><path fill="#9e9e9e" d="M185.0241 124.371704C185.0241 123.26713 184.12866 122.371704 183.0241 122.371704C181.91953 122.371704 181.0241 123.26713 181.0241 124.371704C181.0241 125.47627 181.91953 126.371704 183.0241 126.371704C184.12866 126.371704 185.0241 125.47627 185.0241 124.371704" fill-rule="nonzero"/><path fill="#efefef" d="M19.815624 235.99266L19.815624 224.53954L28.096874 224.53954L28.096874 225.88329L21.33125 225.88329L21.33125 229.39891L27.675 229.39891L27.675 230.74266L21.33125 230.74266L21.33125 234.63329L28.3625 234.63329L28.3625 235.99266L19.815624 235.99266ZM36.01875 232.94579L37.409374 233.13329Q37.175 234.55516 36.2375 235.36766Q35.315624 236.18016 33.95625 236.18016Q32.253124 236.18016 31.20625 235.07079Q30.175 233.94579 30.175 231.86766Q30.175 230.52391 30.6125 229.52391Q31.065624 228.50829 31.971874 228.00829Q32.89375 227.50829 33.95625 227.50829Q35.315624 227.50829 36.175 228.19579Q37.034374 228.86766 37.26875 230.13329L35.909374 230.33641Q35.70625 229.50829 35.20625 229.08641Q34.721874 228.66454 34.01875 228.66454Q32.95625 228.66454 32.284374 229.43016Q31.628124 230.18016 31.628124 231.83641Q31.628124 233.50829 32.26875 234.27391Q32.909374 235.02391 33.940624 235.02391Q34.76875 235.02391 35.315624 234.52391Q35.878124 234.00829 36.01875 232.94579ZM38.08125 231.83641Q38.08125 229.53954 39.3625 228.43016Q40.440624 227.50829 41.971874 227.50829Q43.690624 227.50829 44.76875 228.63329Q45.8625 229.74266 45.8625 231.72704Q45.8625 233.32079 45.378124 234.24266Q44.89375 235.16454 43.971874 235.68016Q43.065624 236.18016 41.971874 236.18016Q40.2375 236.18016 39.159374 235.07079Q38.08125 233.94579 38.08125 231.83641ZM39.534374 231.83641Q39.534374 233.43016 40.221874 234.22704Q40.925 235.02391 41.971874 235.02391Q43.01875 235.02391 43.70625 234.22704Q44.409374 233.43016 44.409374 231.78954Q44.409374 230.25829 43.70625 229.46141Q43.01875 228.66454 41.971874 228.66454Q40.925 228.66454 40.221874 229.46141Q39.534374 230.24266 39.534374 231.83641ZM47.6125 235.99266L47.6125 227.69579L48.878124 227.69579L48.878124 228.86766Q49.784374 227.50829 51.51875 227.50829Q52.26875 227.50829 52.89375 227.77391Q53.51875 228.03954 53.83125 228.47704Q54.14375 228.91454 54.26875 229.52391Q54.346874 229.91454 54.346874 230.88329L54.346874 235.99266L52.940624 235.99266L52.940624 230.94579Q52.940624 230.08641 52.76875 229.66454Q52.6125 229.22704 52.190624 228.97704Q51.784374 228.72704 51.221874 228.72704Q50.315624 228.72704 49.659374 229.30516Q49.01875 229.86766 49.01875 231.46141L49.01875 235.99266L47.6125 235.99266ZM56.08125 231.83641Q56.08125 229.53954 57.3625 228.43016Q58.440624 227.50829 59.971874 227.50829Q61.690624 227.50829 62.76875 228.63329Q63.8625 229.74266 63.8625 231.72704Q63.8625 233.32079 63.378124 234.24266Q62.89375 235.16454 61.971874 235.68016Q61.065624 236.18016 59.971874 236.18016Q58.2375 236.18016 57.159374 235.07079Q56.08125 233.94579 56.08125 231.83641ZM57.534374 231.83641Q57.534374 233.43016 58.221874 234.22704Q58.925 235.02391 59.971874 235.02391Q61.01875 235.02391 61.70625 234.22704Q62.409374 233.43016 62.409374 231.78954Q62.409374 230.25829 61.70625 229.46141Q61.01875 228.66454 59.971874 228.66454Q58.925 228.66454 58.221874 229.46141Q57.534374 230.24266 57.534374 231.83641ZM65.6125 235.99266L65.6125 227.69579L66.8625 227.69579L66.8625 228.85204Q67.25313 228.24266 67.89375 227.88329Q68.55 227.50829 69.37813 227.50829Q70.3 227.50829 70.89375 227.89891Q71.4875 228.27391 71.72188 228.96141Q72.70625 227.50829 74.28438 227.50829Q75.51875 227.50829 76.175 228.19579Q76.84688 228.86766 76.84688 230.28954L76.84688 235.99266L75.45625 235.99266L75.45625 230.75829Q75.45625 229.91454 75.31563 229.55516Q75.175 229.18016 74.81563 228.96141Q74.45625 228.72704 73.97188 228.72704Q73.09688 228.72704 72.51875 229.30516Q71.94063 229.88329 71.94063 231.16454L71.94063 235.99266L70.53438 235.99266L70.53438 230.60204Q70.53438 229.66454 70.19063 229.19579Q69.84688 228.72704 69.06563 228.72704Q68.47188 228.72704 67.97188 229.03954Q67.47188 229.35204 67.2375 229.96141Q67.01875 230.55516 67.01875 231.68016L67.01875 235.99266L65.6125 235.99266ZM78.6125 226.14891L78.6125 224.53954L80.01875 224.53954L80.01875 226.14891L78.6125 226.14891ZM78.6125 235.99266L78.6125 227.69579L80.01875 227.69579L80.01875 235.99266L78.6125 235.99266ZM88.01875 232.94579L89.40938 233.13329Q89.175 234.55516 88.2375 235.36766Q87.31563 236.18016 85.95625 236.18016Q84.25313 236.18016 83.20625 235.07079Q82.175 233.94579 82.175 231.86766Q82.175 230.52391 82.6125 229.52391Q83.06563 228.50829 83.97188 228.00829Q84.89375 227.50829 85.95625 227.50829Q87.31563 227.50829 88.175 228.19579Q89.03438 228.86766 89.26875 230.13329L87.90938 230.33641Q87.70625 229.50829 87.20625 229.08641Q86.72188 228.66454 86.01875 228.66454Q84.95625 228.66454 84.28438 229.43016Q83.62813 230.18016 83.62813 231.83641Q83.62813 233.50829 84.26875 234.27391Q84.90938 235.02391 85.94063 235.02391Q86.76875 235.02391 87.31563 234.52391Q87.87813 234.00829 88.01875 232.94579ZM93.51875 235.99266L97.925 224.53954L99.56563 224.53954L104.25313 235.99266L102.51875 235.99266L101.19063 232.52391L96.39375 232.52391L95.14375 235.99266L93.51875 235.99266ZM96.83125 231.28954L100.72188 231.28954L99.51875 228.11766Q98.97188 226.66454 98.70625 225.74266Q98.4875 226.83641 98.09688 227.93016L96.83125 231.28954ZM111.01875 232.94579L112.40938 233.13329Q112.175 234.55516 111.2375 235.36766Q110.31563 236.18016 108.95625 236.18016Q107.25313 236.18016 106.20625 235.07079Q105.175 233.94579 105.175 231.86766Q105.175 230.52391 105.6125 229.52391Q106.06563 228.50829 106.97188 228.00829Q107.89375 227.50829 108.95625 227.50829Q110.31563 227.50829 111.175 228.19579Q112.03438 228.86766 112.26875 230.13329L110.90938 230.33641Q110.70625 229.50829 110.20625 229.08641Q109.72188 228.66454 109.01875 228.66454Q107.95625 228.66454 107.28438 229.43016Q106.62813 230.18016 106.62813 231.83641Q106.62813 233.50829 107.26875 234.27391Q107.90938 235.02391 108.94063 235.02391Q109.76875 235.02391 110.31563 234.52391Q110.87813 234.00829 111.01875 232.94579ZM116.675 234.72704L116.87813 235.97704Q116.28438 236.10204 115.81563 236.10204Q115.05 236.10204 114.62813 235.86766Q114.20625 235.61766 114.03438 235.22704Q113.8625 234.82079 113.8625 233.55516L113.8625 228.78954L112.83125 228.78954L112.83125 227.69579L113.8625 227.69579L113.8625 225.63329L115.26875 224.78954L115.26875 227.69579L116.675 227.69579L116.675 228.78954L115.26875 228.78954L115.26875 233.63329Q115.26875 234.24266 115.33125 234.41454Q115.40938 234.58641 115.58125 234.69579Q115.75313 234.78954 116.06563 234.78954Q116.3 234.78954 116.675 234.72704ZM117.6125 226.14891L117.6125 224.53954L119.01875 224.53954L119.01875 226.14891L117.6125 226.14891ZM117.6125 235.99266L117.6125 227.69579L119.01875 227.69579L119.01875 235.99266L117.6125 235.99266ZM123.90938 235.99266L120.75313 227.69579L122.2375 227.69579L124.01875 232.66454Q124.31563 233.46141 124.55 234.33641Q124.7375 233.68016 125.08125 232.75829L126.925 227.69579L128.3625 227.69579L125.22188 235.99266L123.90938 235.99266ZM129.6125 226.14891L129.6125 224.53954L131.01875 224.53954L131.01875 226.14891L129.6125 226.14891ZM129.6125 235.99266L129.6125 227.69579L131.01875 227.69579L131.01875 235.99266L129.6125 235.99266ZM136.675 234.72704L136.87813 235.97704Q136.28438 236.10204 135.81563 236.10204Q135.05 236.10204 134.62813 235.86766Q134.20625 235.61766 134.03438 235.22704Q133.8625 234.82079 133.8625 233.55516L133.8625 228.78954L132.83125 228.78954L132.83125 227.69579L133.8625 227.69579L133.8625 225.63329L135.26875 224.78954L135.26875 227.69579L136.675 227.69579L136.675 228.78954L135.26875 228.78954L135.26875 233.63329Q135.26875 234.24266 135.33125 234.41454Q135.40938 234.58641 135.58125 234.69579Q135.75313 234.78954 136.06563 234.78954Q136.3 234.78954 136.675 234.72704ZM137.55 239.19579L137.39375 237.86766Q137.84688 237.99266 138.19063 237.99266Q138.65938 237.99266 138.94063 237.83641Q139.22188 237.68016 139.40938 237.39891Q139.53438 237.19579 139.83125 236.35204Q139.87813 236.24266 139.95625 236.00829L136.81563 227.69579L138.33125 227.69579L140.05 232.49266Q140.39375 233.41454 140.65938 234.41454Q140.89375 233.44579 141.2375 232.52391L143.00313 227.69579L144.40938 227.69579L141.25313 236.13329Q140.75313 237.50829 140.47188 238.02391Q140.09688 238.71141 139.6125 239.03954Q139.12813 239.36766 138.45625 239.36766Q138.05 239.36766 137.55 239.19579Z" fill-rule="nonzero"/><path fill="#9e9e9e" d="M24.51875 257.99268L23.1125 257.99268L23.1125 249.02393Q22.596874 249.5083 21.76875 249.99268Q20.95625 250.47705 20.3 250.72705L20.3 249.36768Q21.471874 248.80518 22.346874 248.02393Q23.2375 247.22705 23.6125 246.49268L24.51875 246.49268L24.51875 257.99268ZM28.315624 248.03955L28.315624 246.68018L35.721874 246.68018L35.721874 247.77393Q34.628124 248.9458 33.55 250.8833Q32.4875 252.80518 31.89375 254.83643Q31.471874 256.27393 31.3625 257.99268L29.909374 257.99268Q29.940624 256.6333 30.440624 254.72705Q30.95625 252.80518 31.89375 251.03955Q32.846874 249.2583 33.925 248.03955L28.315624 248.03955ZM38.003124 257.99268L38.003124 256.3833L39.6125 256.3833L39.6125 257.99268L38.003124 257.99268ZM48.6125 256.6333L48.6125 257.99268L41.034374 257.99268Q41.01875 257.47705 41.20625 257.0083Q41.4875 256.24268 42.128124 255.49268Q42.76875 254.74268 43.971874 253.7583Q45.83125 252.22705 46.4875 251.33643Q47.14375 250.43018 47.14375 249.6333Q47.14375 248.80518 46.55 248.22705Q45.95625 247.64893 44.9875 247.64893Q43.971874 247.64893 43.3625 248.2583Q42.753124 248.86768 42.753124 249.9458L41.3 249.80518Q41.45625 248.18018 42.425 247.33643Q43.39375 246.49268 45.01875 246.49268Q46.675 246.49268 47.628124 247.41455Q48.596874 248.3208 48.596874 249.66455Q48.596874 250.35205 48.315624 251.02393Q48.034374 251.68018 47.378124 252.41455Q46.721874 253.14893 45.20625 254.43018Q43.940624 255.49268 43.58125 255.8833Q43.221874 256.2583 42.9875 256.6333L48.6125 256.6333ZM50.4875 249.28955Q50.4875 248.05518 51.096874 247.1958Q51.721874 246.33643 52.89375 246.33643Q53.971874 246.33643 54.675 247.11768Q55.378124 247.8833 55.378124 249.36768Q55.378124 250.8208 54.659374 251.61768Q53.95625 252.39893 52.909374 252.39893Q51.8625 252.39893 51.175 251.6333Q50.4875 250.85205 50.4875 249.28955ZM52.925 247.30518Q52.409374 247.30518 52.05 247.7583Q51.70625 248.21143 51.70625 249.43018Q51.70625 250.52393 52.05 250.97705Q52.409374 251.43018 52.925 251.43018Q53.45625 251.43018 53.8 250.97705Q54.159374 250.52393 54.159374 249.3208Q54.159374 248.21143 53.8 247.7583Q53.45625 247.30518 52.925 247.30518ZM52.940624 258.41455L59.20625 246.33643L60.346874 246.33643L54.096874 258.41455L52.940624 258.41455ZM57.89375 255.30518Q57.89375 254.0708 58.503124 253.21143Q59.128124 252.35205 60.3 252.35205Q61.378124 252.35205 62.08125 253.1333Q62.8 253.89893 62.8 255.3833Q62.8 256.83643 62.08125 257.6333Q61.3625 258.41455 60.315624 258.41455Q59.26875 258.41455 58.58125 257.6333Q57.89375 256.85205 57.89375 255.30518ZM60.346874 253.3208Q59.815624 253.3208 59.45625 253.77393Q59.1125 254.22705 59.1125 255.4458Q59.1125 256.53955 59.45625 256.99268Q59.815624 257.4458 60.33125 257.4458Q60.878124 257.4458 61.221874 256.99268Q61.565624 256.53955 61.565624 255.33643Q61.565624 254.22705 61.20625 253.77393Q60.8625 253.3208 60.346874 253.3208Z" fill-rule="nonzero"/><path stroke="#757575" stroke-width="1.0" stroke-linecap="butt" d="M18.55 241.49266L145.23334 241.49266L163.82309 241.49266" fill-rule="nonzero"/><path fill="#9e9e9e" d="M165.82309 241.49266C165.82309 240.38809 164.92766 239.49266 163.82309 239.49266C162.71852 239.49266 161.82309 240.38809 161.82309 241.49266C161.82309 242.59724 162.71852 243.49266 163.82309 243.49266C164.92766 243.49266 165.82309 242.59724 165.82309 241.49266" fill-rule="nonzero"/><path fill="#efefef" d="M19.815624 310.69385L19.815624 299.24072L24.89375 299.24072Q26.425 299.24072 27.221874 299.55322Q28.01875 299.8501 28.4875 300.63135Q28.971874 301.4126 28.971874 302.36572Q28.971874 303.58447 28.175 304.42822Q27.39375 305.25635 25.7375 305.4751Q26.346874 305.77197 26.659374 306.05322Q27.315624 306.6626 27.909374 307.56885L29.909374 310.69385L28.003124 310.69385L26.4875 308.30322Q25.815624 307.27197 25.378124 306.7251Q24.95625 306.17822 24.6125 305.95947Q24.284374 305.74072 23.925 305.6626Q23.675 305.6001 23.08125 305.6001L21.33125 305.6001L21.33125 310.69385L19.815624 310.69385ZM21.33125 304.2876L24.58125 304.2876Q25.628124 304.2876 26.20625 304.08447Q26.8 303.86572 27.096874 303.39697Q27.409374 302.9126 27.409374 302.36572Q27.409374 301.55322 26.815624 301.0376Q26.221874 300.50635 24.95625 300.50635L21.33125 300.50635L21.33125 304.2876ZM37.284374 308.02197L38.7375 308.19385Q38.39375 309.4751 37.45625 310.17822Q36.534374 310.88135 35.096874 310.88135Q33.26875 310.88135 32.20625 309.75635Q31.14375 308.63135 31.14375 306.61572Q31.14375 304.52197 32.221874 303.36572Q33.3 302.20947 35.01875 302.20947Q36.675 302.20947 37.721874 303.3501Q38.784374 304.4751 38.784374 306.52197Q38.784374 306.64697 38.784374 306.89697L32.596874 306.89697Q32.675 308.27197 33.3625 309.00635Q34.065624 309.7251 35.096874 309.7251Q35.878124 309.7251 36.425 309.31885Q36.971874 308.9126 37.284374 308.02197ZM32.675 305.74072L37.3 305.74072Q37.20625 304.69385 36.76875 304.17822Q36.096874 303.36572 35.034374 303.36572Q34.065624 303.36572 33.39375 304.02197Q32.7375 304.6626 32.675 305.74072ZM40.58125 310.69385L40.58125 299.24072L41.9875 299.24072L41.9875 310.69385L40.58125 310.69385ZM44.6125 300.8501L44.6125 299.24072L46.01875 299.24072L46.01875 300.8501L44.6125 300.8501ZM44.6125 310.69385L44.6125 302.39697L46.01875 302.39697L46.01875 310.69385L44.6125 310.69385ZM48.346874 311.38135L49.721874 311.58447Q49.8 312.2251 50.190624 312.50635Q50.721874 312.89697 51.628124 312.89697Q52.596874 312.89697 53.128124 312.50635Q53.659374 312.11572 53.846874 311.4126Q53.95625 310.99072 53.95625 309.6001Q53.034374 310.69385 51.659374 310.69385Q49.940624 310.69385 49.003124 309.45947Q48.065624 308.2251 48.065624 306.49072Q48.065624 305.30322 48.4875 304.30322Q48.925 303.30322 49.7375 302.75635Q50.565624 302.20947 51.659374 302.20947Q53.128124 302.20947 54.08125 303.39697L54.08125 302.39697L55.378124 302.39697L55.378124 309.56885Q55.378124 311.50635 54.9875 312.31885Q54.596874 313.13135 53.7375 313.6001Q52.878124 314.06885 51.628124 314.06885Q50.14375 314.06885 49.221874 313.39697Q48.315624 312.7251 48.346874 311.38135ZM49.51875 306.39697Q49.51875 308.02197 50.159374 308.77197Q50.815624 309.52197 51.784374 309.52197Q52.753124 309.52197 53.409374 308.7876Q54.065624 308.0376 54.065624 306.44385Q54.065624 304.9126 53.39375 304.14697Q52.721874 303.36572 51.76875 303.36572Q50.83125 303.36572 50.175 304.13135Q49.51875 304.89697 49.51875 306.39697ZM57.6125 300.8501L57.6125 299.24072L59.01875 299.24072L59.01875 300.8501L57.6125 300.8501ZM57.6125 310.69385L57.6125 302.39697L59.01875 302.39697L59.01875 310.69385L57.6125 310.69385ZM61.08125 306.5376Q61.08125 304.24072 62.3625 303.13135Q63.440624 302.20947 64.97188 302.20947Q66.69063 302.20947 67.76875 303.33447Q68.8625 304.44385 68.8625 306.42822Q68.8625 308.02197 68.37813 308.94385Q67.89375 309.86572 66.97188 310.38135Q66.06563 310.88135 64.97188 310.88135Q63.2375 310.88135 62.159374 309.77197Q61.08125 308.64697 61.08125 306.5376ZM62.534374 306.5376Q62.534374 308.13135 63.221874 308.92822Q63.925 309.7251 64.97188 309.7251Q66.01875 309.7251 66.70625 308.92822Q67.40938 308.13135 67.40938 306.49072Q67.40938 304.95947 66.70625 304.1626Q66.01875 303.36572 64.97188 303.36572Q63.925 303.36572 63.221874 304.1626Q62.534374 304.94385 62.534374 306.5376ZM76.05 310.69385L76.05 309.4751Q75.08125 310.88135 73.40938 310.88135Q72.675 310.88135 72.03438 310.6001Q71.40938 310.31885 71.09688 309.89697Q70.78438 309.45947 70.65938 308.8501Q70.58125 308.42822 70.58125 307.5376L70.58125 302.39697L71.9875 302.39697L71.9875 306.99072Q71.9875 308.1001 72.06563 308.4751Q72.20625 309.0376 72.62813 309.3501Q73.06563 309.6626 73.69063 309.6626Q74.33125 309.6626 74.87813 309.3501Q75.44063 309.02197 75.65938 308.45947Q75.89375 307.89697 75.89375 306.83447L75.89375 302.39697L77.3 302.39697L77.3 310.69385L76.05 310.69385ZM79.05 308.20947L80.44063 307.99072Q80.55 308.83447 81.08125 309.2876Q81.62813 309.7251 82.58125 309.7251Q83.55 309.7251 84.01875 309.33447Q84.4875 308.92822 84.4875 308.39697Q84.4875 307.92822 84.08125 307.64697Q83.78438 307.45947 82.64375 307.17822Q81.09688 306.7876 80.4875 306.50635Q79.89375 306.20947 79.58125 305.70947Q79.28438 305.20947 79.28438 304.6001Q79.28438 304.0376 79.53438 303.56885Q79.78438 303.1001 80.22188 302.7876Q80.55 302.5376 81.1125 302.38135Q81.69063 302.20947 82.33125 302.20947Q83.31563 302.20947 84.05 302.49072Q84.78438 302.77197 85.12813 303.25635Q85.4875 303.7251 85.62813 304.5376L84.25313 304.7251Q84.15938 304.08447 83.70625 303.7251Q83.25313 303.36572 82.44063 303.36572Q81.47188 303.36572 81.05 303.69385Q80.64375 304.00635 80.64375 304.42822Q80.64375 304.70947 80.81563 304.92822Q80.9875 305.14697 81.34688 305.30322Q81.56563 305.38135 82.59688 305.6626Q84.08125 306.05322 84.675 306.31885Q85.26875 306.56885 85.59688 307.05322Q85.94063 307.5376 85.94063 308.25635Q85.94063 308.95947 85.51875 309.58447Q85.1125 310.19385 84.33125 310.5376Q83.56563 310.88135 82.59688 310.88135Q80.97188 310.88135 80.12813 310.20947Q79.28438 309.5376 79.05 308.20947Z" fill-rule="nonzero"/><path fill="#9e9e9e" d="M19.221874 329.6626L20.628124 329.4751Q20.878124 330.67822 21.45625 331.20947Q22.034374 331.7251 22.878124 331.7251Q23.8625 331.7251 24.55 331.0376Q25.2375 330.3501 25.2375 329.33447Q25.2375 328.36572 24.596874 327.74072Q23.971874 327.11572 22.9875 327.11572Q22.596874 327.11572 22.003124 327.27197L22.159374 326.0376Q22.3 326.05322 22.378124 326.05322Q23.284374 326.05322 24.003124 325.58447Q24.721874 325.11572 24.721874 324.13135Q24.721874 323.36572 24.190624 322.86572Q23.675 322.3501 22.846874 322.3501Q22.01875 322.3501 21.471874 322.86572Q20.925 323.38135 20.76875 324.4126L19.3625 324.1626Q19.628124 322.74072 20.534374 321.9751Q21.45625 321.19385 22.815624 321.19385Q23.753124 321.19385 24.534374 321.6001Q25.33125 321.99072 25.7375 322.69385Q26.159374 323.38135 26.159374 324.1626Q26.159374 324.9126 25.753124 325.52197Q25.3625 326.13135 24.58125 326.49072Q25.596874 326.7251 26.159374 327.45947Q26.721874 328.19385 26.721874 329.30322Q26.721874 330.80322 25.628124 331.8501Q24.534374 332.89697 22.8625 332.89697Q21.3625 332.89697 20.3625 332.00635Q19.3625 331.1001 19.221874 329.6626ZM29.003124 332.69385L29.003124 331.08447L30.6125 331.08447L30.6125 332.69385L29.003124 332.69385ZM36.721874 332.69385L36.721874 329.94385L31.753124 329.94385L31.753124 328.6626L36.9875 321.24072L38.128124 321.24072L38.128124 328.6626L39.675 328.6626L39.675 329.94385L38.128124 329.94385L38.128124 332.69385L36.721874 332.69385ZM36.721874 328.6626L36.721874 323.49072L33.14375 328.6626L36.721874 328.6626ZM41.4875 323.99072Q41.4875 322.75635 42.096874 321.89697Q42.721874 321.0376 43.89375 321.0376Q44.971874 321.0376 45.675 321.81885Q46.378124 322.58447 46.378124 324.06885Q46.378124 325.52197 45.659374 326.31885Q44.95625 327.1001 43.909374 327.1001Q42.8625 327.1001 42.175 326.33447Q41.4875 325.55322 41.4875 323.99072ZM43.925 322.00635Q43.409374 322.00635 43.05 322.45947Q42.70625 322.9126 42.70625 324.13135Q42.70625 325.2251 43.05 325.67822Q43.409374 326.13135 43.925 326.13135Q44.45625 326.13135 44.8 325.67822Q45.159374 325.2251 45.159374 324.02197Q45.159374 322.9126 44.8 322.45947Q44.45625 322.00635 43.925 322.00635ZM43.940624 333.11572L50.20625 321.0376L51.346874 321.0376L45.096874 333.11572L43.940624 333.11572ZM48.89375 330.00635Q48.89375 328.77197 49.503124 327.9126Q50.128124 327.05322 51.3 327.05322Q52.378124 327.05322 53.08125 327.83447Q53.8 328.6001 53.8 330.08447Q53.8 331.5376 53.08125 332.33447Q52.3625 333.11572 51.315624 333.11572Q50.26875 333.11572 49.58125 332.33447Q48.89375 331.55322 48.89375 330.00635ZM51.346874 328.02197Q50.815624 328.02197 50.45625 328.4751Q50.1125 328.92822 50.1125 330.14697Q50.1125 331.24072 50.45625 331.69385Q50.815624 332.14697 51.33125 332.14697Q51.878124 332.14697 52.221874 331.69385Q52.565624 331.24072 52.565624 330.0376Q52.565624 328.92822 52.20625 328.4751Q51.8625 328.02197 51.346874 328.02197Z" fill-rule="nonzero"/><path stroke="#757575" stroke-width="1.0" stroke-linecap="butt" d="M18.55 316.19385L145.23334 316.19385L214.47174 316.19385" fill-rule="nonzero"/><path fill="#9e9e9e" d="M216.47174 316.19385C216.47174 315.08926 215.57631 314.19385 214.47174 314.19385C213.36717 314.19385 212.47174 315.08926 212.47174 316.19385C212.47174 317.2984 213.36717 318.19385 214.47174 318.19385C215.57631 318.19385 216.47174 317.2984 216.47174 316.19385" fill-rule="nonzero"/><path fill="#efefef" d="M495.85626 231.97704L497.3719 232.35204Q496.90314 234.22704 495.65314 235.21141Q494.41876 236.19579 492.6375 236.19579Q490.77814 236.19579 489.6219 235.44579Q488.46564 234.68016 487.85626 233.25829Q487.2469 231.82079 487.2469 230.18016Q487.2469 228.38329 487.9344 227.05516Q488.6219 225.72704 489.8719 225.03954Q491.1375 224.33641 492.65314 224.33641Q494.3719 224.33641 495.54376 225.21141Q496.71564 226.08641 497.1844 227.68016L495.6844 228.02391Q495.29376 226.77391 494.52814 226.21141Q493.77814 225.63329 492.6219 225.63329Q491.3094 225.63329 490.41876 226.27391Q489.52814 226.89891 489.16876 227.97704Q488.8094 229.03954 488.8094 230.16454Q488.8094 231.63329 489.23126 232.72704Q489.66876 233.80516 490.5594 234.35204Q491.46564 234.88329 492.5125 234.88329Q493.77814 234.88329 494.65314 234.14891Q495.54376 233.41454 495.85626 231.97704ZM504.95 235.99266L504.95 234.77391Q503.98126 236.18016 502.3094 236.18016Q501.575 236.18016 500.9344 235.89891Q500.3094 235.61766 499.9969 235.19579Q499.6844 234.75829 499.5594 234.14891Q499.48126 233.72704 499.48126 232.83641L499.48126 227.69579L500.8875 227.69579L500.8875 232.28954Q500.8875 233.39891 500.96564 233.77391Q501.10626 234.33641 501.52814 234.64891Q501.96564 234.96141 502.59064 234.96141Q503.23126 234.96141 503.77814 234.64891Q504.34064 234.32079 504.5594 233.75829Q504.79376 233.19579 504.79376 232.13329L504.79376 227.69579L506.2 227.69579L506.2 235.99266L504.95 235.99266ZM508.48126 235.99266L508.48126 224.53954L509.8875 224.53954L509.8875 235.99266L508.48126 235.99266ZM515.575 234.72704L515.77814 235.97704Q515.1844 236.10204 514.71564 236.10204Q513.95 236.10204 513.52814 235.86766Q513.10626 235.61766 512.9344 235.22704Q512.7625 234.82079 512.7625 233.55516L512.7625 228.78954L511.73126 228.78954L511.73126 227.69579L512.7625 227.69579L512.7625 225.63329L514.16876 224.78954L514.16876 227.69579L515.575 227.69579L515.575 228.78954L514.16876 228.78954L514.16876 233.63329Q514.16876 234.24266 514.23126 234.41454Q514.3094 234.58641 514.48126 234.69579Q514.65314 234.78954 514.96564 234.78954Q515.2 234.78954 515.575 234.72704ZM521.95 235.99266L521.95 234.77391Q520.98126 236.18016 519.3094 236.18016Q518.575 236.18016 517.9344 235.89891Q517.3094 235.61766 516.9969 235.19579Q516.6844 234.75829 516.5594 234.14891Q516.48126 233.72704 516.48126 232.83641L516.48126 227.69579L517.8875 227.69579L517.8875 232.28954Q517.8875 233.39891 517.96564 233.77391Q518.10626 234.33641 518.52814 234.64891Q518.96564 234.96141 519.59064 234.96141Q520.23126 234.96141 520.77814 234.64891Q521.34064 234.32079 521.5594 233.75829Q521.79376 233.19579 521.79376 232.13329L521.79376 227.69579L523.2 227.69579L523.2 235.99266L521.95 235.99266ZM525.4969 235.99266L525.4969 227.69579L526.7625 227.69579L526.7625 228.94579Q527.2469 228.07079 527.65314 227.78954Q528.0594 227.50829 528.5594 227.50829Q529.2625 227.50829 529.9969 227.96141L529.5125 229.25829Q528.9969 228.96141 528.48126 228.96141Q528.02814 228.96141 527.65314 229.24266Q527.29376 229.50829 527.1375 230.00829Q526.90314 230.75829 526.90314 231.64891L526.90314 235.99266L525.4969 235.99266ZM535.91876 234.96141Q535.1375 235.63329 534.41876 235.91454Q533.7 236.18016 532.8719 236.18016Q531.4969 236.18016 530.7625 235.50829Q530.02814 234.83641 530.02814 233.80516Q530.02814 233.19579 530.3094 232.69579Q530.59064 232.18016 531.02814 231.88329Q531.48126 231.57079 532.04376 231.41454Q532.46564 231.30516 533.29376 231.21141Q534.9969 231.00829 535.8094 230.72704Q535.8094 230.43016 535.8094 230.35204Q535.8094 229.49266 535.41876 229.14891Q534.8719 228.66454 533.8094 228.66454Q532.825 228.66454 532.34064 229.02391Q531.8719 229.36766 531.65314 230.24266L530.27814 230.05516Q530.46564 229.18016 530.8875 228.63329Q531.325 228.08641 532.1375 227.80516Q532.95 227.50829 534.0125 227.50829Q535.075 227.50829 535.73126 227.75829Q536.40314 228.00829 536.71564 228.38329Q537.02814 228.75829 537.15314 229.33641Q537.23126 229.69579 537.23126 230.63329L537.23126 232.50829Q537.23126 234.47704 537.3094 234.99266Q537.40314 235.50829 537.66876 235.99266L536.2 235.99266Q535.98126 235.55516 535.91876 234.96141ZM535.8094 231.82079Q535.04376 232.13329 533.5125 232.35204Q532.6375 232.47704 532.27814 232.63329Q531.91876 232.78954 531.71564 233.10204Q531.52814 233.39891 531.52814 233.75829Q531.52814 234.32079 531.95 234.69579Q532.3875 235.07079 533.2 235.07079Q534.0125 235.07079 534.6375 234.72704Q535.27814 234.36766 535.575 233.74266Q535.8094 233.27391 535.8094 232.33641L535.8094 231.82079ZM539.48126 235.99266L539.48126 224.53954L540.8875 224.53954L540.8875 235.99266L539.48126 235.99266ZM546.41876 235.99266L550.825 224.53954L552.46564 224.53954L557.15314 235.99266L555.41876 235.99266L554.09064 232.52391L549.29376 232.52391L548.04376 235.99266L546.41876 235.99266ZM549.73126 231.28954L553.6219 231.28954L552.41876 228.11766Q551.8719 226.66454 551.60626 225.74266Q551.3875 226.83641 550.9969 227.93016L549.73126 231.28954ZM563.91876 232.94579L565.3094 233.13329Q565.075 234.55516 564.1375 235.36766Q563.21564 236.18016 561.85626 236.18016Q560.15314 236.18016 559.10626 235.07079Q558.075 233.94579 558.075 231.86766Q558.075 230.52391 558.5125 229.52391Q558.96564 228.50829 559.8719 228.00829Q560.79376 227.50829 561.85626 227.50829Q563.21564 227.50829 564.075 228.19579Q564.9344 228.86766 565.16876 230.13329L563.8094 230.33641Q563.60626 229.50829 563.10626 229.08641Q562.6219 228.66454 561.91876 228.66454Q560.85626 228.66454 560.1844 229.43016Q559.52814 230.18016 559.52814 231.83641Q559.52814 233.50829 560.16876 234.27391Q560.8094 235.02391 561.84064 235.02391Q562.66876 235.02391 563.21564 234.52391Q563.77814 234.00829 563.91876 232.94579ZM569.575 234.72704L569.77814 235.97704Q569.1844 236.10204 568.71564 236.10204Q567.95 236.10204 567.52814 235.86766Q567.10626 235.61766 566.9344 235.22704Q566.7625 234.82079 566.7625 233.55516L566.7625 228.78954L565.73126 228.78954L565.73126 227.69579L566.7625 227.69579L566.7625 225.63329L568.16876 224.78954L568.16876 227.69579L569.575 227.69579L569.575 228.78954L568.16876 228.78954L568.16876 233.63329Q568.16876 234.24266 568.23126 234.41454Q568.3094 234.58641 568.48126 234.69579Q568.65314 234.78954 568.96564 234.78954Q569.2 234.78954 569.575 234.72704ZM569.95 233.50829L571.34064 233.28954Q571.45 234.13329 571.98126 234.58641Q572.52814 235.02391 573.48126 235.02391Q574.45 235.02391 574.91876 234.63329Q575.3875 234.22704 575.3875 233.69579Q575.3875 233.22704 574.98126 232.94579Q574.6844 232.75829 573.54376 232.47704Q571.9969 232.08641 571.3875 231.80516Q570.79376 231.50829 570.48126 231.00829Q570.1844 230.50829 570.1844 229.89891Q570.1844 229.33641 570.4344 228.86766Q570.6844 228.39891 571.1219 228.08641Q571.45 227.83641 572.0125 227.68016Q572.59064 227.50829 573.23126 227.50829Q574.21564 227.50829 574.95 227.78954Q575.6844 228.07079 576.02814 228.55516Q576.3875 229.02391 576.52814 229.83641L575.15314 230.02391Q575.0594 229.38329 574.60626 229.02391Q574.15314 228.66454 573.34064 228.66454Q572.3719 228.66454 571.95 228.99266Q571.54376 229.30516 571.54376 229.72704Q571.54376 230.00829 571.71564 230.22704Q571.8875 230.44579 572.2469 230.60204Q572.46564 230.68016 573.4969 230.96141Q574.98126 231.35204 575.575 231.61766Q576.16876 231.86766 576.4969 232.35204Q576.84064 232.83641 576.84064 233.55516Q576.84064 234.25829 576.41876 234.88329Q576.0125 235.49266 575.23126 235.83641Q574.46564 236.18016 573.4969 236.18016Q571.8719 236.18016 571.02814 235.50829Q570.1844 234.83641 569.95 233.50829ZM578.90314 235.99266L578.90314 234.38329L580.5125 234.38329L580.5125 235.99266L578.90314 235.99266Z" fill-rule="nonzero"/><path fill="#9e9e9e" d="M537.1219 254.99268L538.59064 254.86768Q538.7625 255.9458 539.35626 256.49268Q539.95 257.02393 540.79376 257.02393Q541.8094 257.02393 542.5125 256.2583Q543.21564 255.49268 543.21564 254.22705Q543.21564 253.02393 542.54376 252.33643Q541.8719 251.6333 540.77814 251.6333Q540.09064 251.6333 539.54376 251.9458Q538.9969 252.2583 538.6844 252.74268L537.3719 252.5708L538.48126 246.6958L544.16876 246.6958L544.16876 248.03955L539.60626 248.03955L538.98126 251.11768Q540.0125 250.39893 541.15314 250.39893Q542.65314 250.39893 543.6844 251.4458Q544.71564 252.47705 544.71564 254.10205Q544.71564 255.66455 543.8094 256.78955Q542.7 258.1958 540.79376 258.1958Q539.23126 258.1958 538.2469 257.3208Q537.2625 256.43018 537.1219 254.99268ZM548.27814 251.77393Q547.40314 251.46143 546.98126 250.86768Q546.5594 250.27393 546.5594 249.4458Q546.5594 248.1958 547.45 247.35205Q548.35626 246.49268 549.85626 246.49268Q551.35626 246.49268 552.2625 247.36768Q553.1844 248.22705 553.1844 249.47705Q553.1844 250.27393 552.7625 250.86768Q552.34064 251.46143 551.4969 251.77393Q552.54376 252.11768 553.09064 252.8833Q553.65314 253.64893 553.65314 254.71143Q553.65314 256.18018 552.60626 257.1958Q551.575 258.1958 549.8719 258.1958Q548.1844 258.1958 547.1375 257.1958Q546.10626 256.18018 546.10626 254.68018Q546.10626 253.55518 546.66876 252.80518Q547.23126 252.05518 548.27814 251.77393ZM547.9969 249.39893Q547.9969 250.21143 548.5125 250.72705Q549.04376 251.24268 549.8875 251.24268Q550.7 251.24268 551.21564 250.72705Q551.73126 250.21143 551.73126 249.47705Q551.73126 248.6958 551.2 248.18018Q550.66876 247.64893 549.8719 247.64893Q549.0594 247.64893 548.52814 248.16455Q547.9969 248.68018 547.9969 249.39893ZM547.54376 254.68018Q547.54376 255.28955 547.825 255.85205Q548.1219 256.41455 548.6844 256.72705Q549.2469 257.02393 549.8875 257.02393Q550.90314 257.02393 551.5594 256.3833Q552.21564 255.72705 552.21564 254.72705Q552.21564 253.71143 551.52814 253.05518Q550.85626 252.3833 549.84064 252.3833Q548.85626 252.3833 548.2 253.03955Q547.54376 253.6958 547.54376 254.68018ZM555.90314 257.99268L555.90314 256.3833L557.5125 256.3833L557.5125 257.99268L555.90314 257.99268ZM566.41876 249.33643L565.0125 249.4458Q564.825 248.61768 564.48126 248.24268Q563.91876 247.64893 563.075 247.64893Q562.40314 247.64893 561.90314 248.02393Q561.23126 248.5083 560.84064 249.4458Q560.46564 250.36768 560.45 252.08643Q560.96564 251.30518 561.7 250.93018Q562.4344 250.55518 563.23126 250.55518Q564.6375 250.55518 565.6219 251.60205Q566.6219 252.6333 566.6219 254.27393Q566.6219 255.35205 566.15314 256.27393Q565.6844 257.1958 564.8719 257.6958Q564.0594 258.1958 563.02814 258.1958Q561.27814 258.1958 560.16876 256.89893Q559.0594 255.60205 559.0594 252.6333Q559.0594 249.30518 560.27814 247.80518Q561.35626 246.49268 563.16876 246.49268Q564.5125 246.49268 565.3719 247.2583Q566.2469 248.0083 566.41876 249.33643ZM560.66876 254.27393Q560.66876 255.0083 560.98126 255.68018Q561.29376 256.33643 561.84064 256.68018Q562.40314 257.02393 563.0125 257.02393Q563.90314 257.02393 564.54376 256.30518Q565.1844 255.58643 565.1844 254.35205Q565.1844 253.16455 564.54376 252.49268Q563.91876 251.80518 562.95 251.80518Q561.9969 251.80518 561.325 252.49268Q560.66876 253.16455 560.66876 254.27393ZM568.3875 249.28955Q568.3875 248.05518 568.9969 247.1958Q569.6219 246.33643 570.79376 246.33643Q571.8719 246.33643 572.575 247.11768Q573.27814 247.8833 573.27814 249.36768Q573.27814 250.8208 572.5594 251.61768Q571.85626 252.39893 570.8094 252.39893Q569.7625 252.39893 569.075 251.6333Q568.3875 250.85205 568.3875 249.28955ZM570.825 247.30518Q570.3094 247.30518 569.95 247.7583Q569.60626 248.21143 569.60626 249.43018Q569.60626 250.52393 569.95 250.97705Q570.3094 251.43018 570.825 251.43018Q571.35626 251.43018 571.7 250.97705Q572.0594 250.52393 572.0594 249.3208Q572.0594 248.21143 571.7 247.7583Q571.35626 247.30518 570.825 247.30518ZM570.84064 258.41455L577.10626 246.33643L578.2469 246.33643L571.9969 258.41455L570.84064 258.41455ZM575.79376 255.30518Q575.79376 254.0708 576.40314 253.21143Q577.02814 252.35205 578.2 252.35205Q579.27814 252.35205 579.98126 253.1333Q580.7 253.89893 580.7 255.3833Q580.7 256.83643 579.98126 257.6333Q579.2625 258.41455 578.21564 258.41455Q577.16876 258.41455 576.48126 257.6333Q575.79376 256.85205 575.79376 255.30518ZM578.2469 253.3208Q577.71564 253.3208 577.35626 253.77393Q577.0125 254.22705 577.0125 255.4458Q577.0125 256.53955 577.35626 256.99268Q577.71564 257.4458 578.23126 257.4458Q578.77814 257.4458 579.1219 256.99268Q579.46564 256.53955 579.46564 255.33643Q579.46564 254.22705 579.10626 253.77393Q578.7625 253.3208 578.2469 253.3208Z" fill-rule="nonzero"/><path stroke="#757575" stroke-width="1.0" stroke-linecap="butt" d="M581.45 241.49266L454.76666 241.49266L436.1769 241.49266" fill-rule="nonzero"/><path fill="#9e9e9e" d="M438.1769 241.49266C438.1769 240.38809 437.2815 239.49266 436.1769 239.49266C435.07236 239.49266 434.1769 240.38809 434.1769 241.49266C434.1769 242.59724 435.07236 243.49266 436.1769 243.49266C437.2815 243.49266 438.1769 242.59724 438.1769 241.49266" fill-rule="nonzero"/><path fill="#f3f3f3" d="M271.26562 32.534374L273.15625 33.003124Q272.5625 35.346874 271.01562 36.58125Q269.46875 37.8 267.21875 37.8Q264.90625 37.8 263.45312 36.8625Q262.01562 35.909374 261.25 34.128124Q260.5 32.33125 260.5 30.284374Q260.5 28.05 261.34375 26.39375Q262.20312 24.721874 263.78125 23.8625Q265.35938 22.9875 267.25 22.9875Q269.40625 22.9875 270.85938 24.08125Q272.32812 25.175 272.90625 27.159374L271.04688 27.596874Q270.54688 26.034374 269.59375 25.33125Q268.65625 24.6125 267.21875 24.6125Q265.5625 24.6125 264.45312 25.409374Q263.34375 26.190624 262.89062 27.534374Q262.45312 28.8625 262.45312 30.26875Q262.45312 32.096874 262.98438 33.471874Q263.51562 34.83125 264.64062 35.503124Q265.76562 36.175 267.0625 36.175Q268.65625 36.175 269.76562 35.253124Q270.875 34.33125 271.26562 32.534374ZM281.59375 36.26875Q280.60938 37.096874 279.70312 37.440624Q278.79688 37.784374 277.76562 37.784374Q276.0625 37.784374 275.14062 36.95625Q274.21875 36.1125 274.21875 34.815624Q274.21875 34.05 274.5625 33.425Q274.92188 32.8 275.48438 32.425Q276.04688 32.034374 276.75 31.83125Q277.26562 31.70625 278.3125 31.565624Q280.4375 31.315624 281.4375 30.971874Q281.45312 30.6125 281.45312 30.503124Q281.45312 29.440624 280.95312 28.9875Q280.28125 28.39375 278.95312 28.39375Q277.70312 28.39375 277.10938 28.83125Q276.53125 29.26875 276.25 30.378124L274.53125 30.14375Q274.76562 29.034374 275.29688 28.3625Q275.82812 27.675 276.84375 27.315624Q277.85938 26.940624 279.20312 26.940624Q280.53125 26.940624 281.35938 27.253124Q282.1875 27.565624 282.57812 28.05Q282.96875 28.51875 283.125 29.2375Q283.21875 29.690624 283.21875 30.8625L283.21875 33.20625Q283.21875 35.659374 283.32812 36.315624Q283.4375 36.95625 283.78125 37.55L281.9375 37.55Q281.67188 37.003124 281.59375 36.26875ZM281.4375 32.346874Q280.48438 32.7375 278.5625 33.003124Q277.48438 33.159374 277.03125 33.3625Q276.59375 33.55 276.34375 33.925Q276.09375 34.3 276.09375 34.76875Q276.09375 35.471874 276.625 35.940624Q277.15625 36.409374 278.1875 36.409374Q279.20312 36.409374 279.98438 35.971874Q280.78125 35.51875 281.15625 34.753124Q281.4375 34.14375 281.4375 32.9875L281.4375 32.346874ZM289.65625 35.971874L289.90625 37.534374Q289.17188 37.690624 288.57812 37.690624Q287.625 37.690624 287.09375 37.39375Q286.57812 37.08125 286.35938 36.596874Q286.14062 36.096874 286.14062 34.51875L286.14062 28.55L284.85938 28.55L284.85938 27.175L286.14062 27.175L286.14062 24.6125L287.89062 23.55L287.89062 27.175L289.65625 27.175L289.65625 28.55L287.89062 28.55L287.89062 34.6125Q287.89062 35.3625 287.98438 35.58125Q288.07812 35.784374 288.28125 35.925Q288.5 36.05 288.89062 36.05Q289.17188 36.05 289.65625 35.971874ZM298.92188 34.20625L300.73438 34.440624Q300.3125 36.01875 299.14062 36.909374Q297.98438 37.784374 296.17188 37.784374Q293.90625 37.784374 292.5625 36.39375Q291.23438 34.9875 291.23438 32.45625Q291.23438 29.83125 292.57812 28.39375Q293.92188 26.940624 296.07812 26.940624Q298.15625 26.940624 299.46875 28.3625Q300.79688 29.76875 300.79688 32.346874Q300.79688 32.503124 300.78125 32.815624L293.04688 32.815624Q293.14062 34.51875 294.01562 35.425Q294.89062 36.33125 296.1875 36.33125Q297.15625 36.33125 297.82812 35.83125Q298.51562 35.315624 298.92188 34.20625ZM293.14062 31.3625L298.9375 31.3625Q298.82812 30.065624 298.28125 29.409374Q297.4375 28.39375 296.09375 28.39375Q294.89062 28.39375 294.0625 29.20625Q293.23438 30.003124 293.14062 31.3625ZM302.5 38.409374L304.20312 38.659374Q304.3125 39.45625 304.79688 39.815624Q305.45312 40.3 306.59375 40.3Q307.8125 40.3 308.46875 39.815624Q309.14062 39.33125 309.375 38.45625Q309.51562 37.909374 309.5 36.190624Q308.34375 37.55 306.625 37.55Q304.48438 37.55 303.3125 36.003124Q302.14062 34.45625 302.14062 32.3Q302.14062 30.815624 302.67188 29.565624Q303.21875 28.315624 304.23438 27.628124Q305.26562 26.940624 306.64062 26.940624Q308.46875 26.940624 309.67188 28.425L309.67188 27.175L311.28125 27.175L311.28125 36.14375Q311.28125 38.565624 310.78125 39.565624Q310.29688 40.58125 309.21875 41.159374Q308.15625 41.753124 306.59375 41.753124Q304.75 41.753124 303.59375 40.925Q302.45312 40.096874 302.5 38.409374ZM303.95312 32.175Q303.95312 34.221874 304.76562 35.159374Q305.57812 36.096874 306.79688 36.096874Q308.0 36.096874 308.8125 35.159374Q309.64062 34.221874 309.64062 32.2375Q309.64062 30.33125 308.79688 29.3625Q307.95312 28.39375 306.76562 28.39375Q305.59375 28.39375 304.76562 29.346874Q303.95312 30.3 303.95312 32.175ZM313.17188 32.3625Q313.17188 29.4875 314.76562 28.096874Q316.10938 26.940624 318.03125 26.940624Q320.17188 26.940624 321.51562 28.346874Q322.875 29.753124 322.875 32.221874Q322.875 34.221874 322.28125 35.378124Q321.6875 36.51875 320.53125 37.159374Q319.39062 37.784374 318.03125 37.784374Q315.84375 37.784374 314.5 36.39375Q313.17188 34.9875 313.17188 32.3625ZM314.96875 32.3625Q314.96875 34.3625 315.82812 35.346874Q316.70312 36.33125 318.03125 36.33125Q319.34375 36.33125 320.20312 35.346874Q321.07812 34.346874 321.07812 32.3Q321.07812 30.378124 320.20312 29.39375Q319.32812 28.39375 318.03125 28.39375Q316.70312 28.39375 315.82812 29.39375Q314.96875 30.378124 314.96875 32.3625ZM324.79688 37.55L324.79688 27.175L326.375 27.175L326.375 28.753124Q326.98438 27.64375 327.5 27.3Q328.01562 26.940624 328.625 26.940624Q329.51562 26.940624 330.4375 27.503124L329.82812 29.14375Q329.1875 28.753124 328.54688 28.753124Q327.96875 28.753124 327.5 29.1125Q327.04688 29.45625 326.84375 30.065624Q326.5625 31.003124 326.5625 32.1125L326.5625 37.55L324.79688 37.55ZM331.73438 41.55L331.54688 39.89375Q332.125 40.05 332.54688 40.05Q333.14062 40.05 333.48438 39.846874Q333.84375 39.659374 334.0625 39.315624Q334.23438 39.05 334.60938 38.003124Q334.65625 37.846874 334.76562 37.565624L330.82812 27.175L332.71875 27.175L334.875 33.190624Q335.29688 34.33125 335.625 35.58125Q335.9375 34.378124 336.34375 33.221874L338.5625 27.175L340.32812 27.175L336.375 37.721874Q335.75 39.440624 335.39062 40.08125Q334.92188 40.95625 334.3125 41.346874Q333.71875 41.753124 332.875 41.753124Q332.35938 41.753124 331.73438 41.55Z" fill-rule="nonzero"/></svg>