<svg version="1.1" viewBox="0.0 0.0 600.0 371.0" fill="none" stroke="none" stroke-linecap="square" stroke-miterlimit="10" width="600" height="371" xmlns:xlink="http://www.w3.org/1999/xlink" xmlns="http://www.w3.org/2000/svg"><path fill="#ffffff" fill-opacity="0.0" d="M0 0L600.0 0L600.0 371.0L0 371.0L0 0Z" fill-rule="nonzero"/><path fill="#f7d750" d="M300.0 54.916668C345.27335 54.916668 388.08298 75.53269 416.31046 110.92883L358.15524 157.30608C344.0415 139.60802 322.6367 129.3 300.0 129.3Z" fill-rule="nonzero"/><path fill="#f5ee58" d="M416.31046 110.92883C444.53793 146.32497 455.11105 192.64877 445.03677 236.78703L372.5184 220.23518C377.5555 198.16605 372.26898 175.00415 358.15524 157.30608Z" fill-rule="nonzero"/><path fill="#b3ca48" d="M445.03677 236.78703C434.9625 280.9253 405.33734 318.0741 364.54742 337.71747L332.2737 270.7004C352.66867 260.87872 367.48126 242.30432 372.5184 220.23518Z" fill-rule="nonzero"/><path fill="#78a94e" d="M364.54742 337.71747C309.42203 364.26447 243.66444 354.35312 198.81297 312.73703C153.96149 271.12094 139.16377 206.28789 161.51701 149.33276C183.87025 92.37764 238.81541 54.916668 300.0 54.916668L300.0 129.3C269.4077 129.3 241.93513 148.03049 230.75851 176.50806C219.5819 204.98561 226.98074 237.40213 249.40648 258.21017C271.8322 279.01822 304.71103 283.9739 332.2737 270.7004Z" fill-rule="nonzero"/><path fill="#ffffff" d="M329.6137 109.65773L328.03558 109.65773L328.03558 99.579605Q327.45746 100.12648 326.53558 100.673355Q325.6137 101.204605 324.8637 101.485855L324.8637 99.954605Q326.19183 99.329605 327.19183 98.43898Q328.19183 97.548355 328.59808 96.72023L329.6137 96.72023L329.6137 109.65773ZM338.72308 109.65773L338.72308 106.579605L333.14496 106.579605L333.14496 105.12648L339.01996 96.767105L340.31683 96.767105L340.31683 105.12648L342.0512 105.12648L342.0512 106.579605L340.31683 106.579605L340.31683 109.65773L338.72308 109.65773ZM338.72308 105.12648L338.72308 99.31398L334.69183 105.12648L338.72308 105.12648ZM344.5512 109.65773L344.5512 107.860855L346.34808 107.860855L346.34808 109.65773L344.5512 109.65773ZM348.66058 106.25148L350.25433 106.048355Q350.51996 107.392105 351.1762 107.985855Q351.83246 108.579605 352.76996 108.579605Q353.89496 108.579605 354.66058 107.81398Q355.4262 107.03273 355.4262 105.892105Q355.4262 104.798355 354.70746 104.09523Q354.00433 103.37648 352.91058 103.37648Q352.45746 103.37648 351.78558 103.56398L351.95746 102.173355Q352.1137 102.18898 352.22308 102.18898Q353.22308 102.18898 354.03558 101.65773Q354.84808 101.12648 354.84808 100.03273Q354.84808 99.15773 354.25433 98.59523Q353.66058 98.017105 352.7387 98.017105Q351.81683 98.017105 351.19183 98.59523Q350.58246 99.173355 350.41058 100.34523L348.83246 100.06398Q349.1137 98.47023 350.14496 97.59523Q351.1762 96.72023 352.70746 96.72023Q353.75433 96.72023 354.64496 97.173355Q355.53558 97.62648 356.00433 98.40773Q356.47308 99.18898 356.47308 100.06398Q356.47308 100.90773 356.01996 101.59523Q355.58246 102.267105 354.69183 102.673355Q355.83246 102.93898 356.45746 103.78273Q357.09808 104.610855 357.09808 105.84523Q357.09808 107.53273 355.8637 108.72023Q354.64496 109.892105 352.76996 109.892105Q351.06683 109.892105 349.94183 108.87648Q348.83246 107.860855 348.66058 106.25148ZM358.95746 99.860855Q358.95746 98.485855 359.64496 97.517105Q360.34808 96.548355 361.66058 96.548355Q362.87933 96.548355 363.6762 97.423355Q364.47308 98.28273 364.47308 99.97023Q364.47308 101.59523 363.66058 102.485855Q362.8637 103.360855 361.6762 103.360855Q360.51996 103.360855 359.7387 102.50148Q358.95746 101.62648 358.95746 99.860855ZM361.70746 97.642105Q361.1137 97.642105 360.72308 98.15773Q360.33246 98.65773 360.33246 100.017105Q360.33246 101.267105 360.72308 101.767105Q361.12933 102.267105 361.70746 102.267105Q362.3012 102.267105 362.69183 101.767105Q363.08246 101.25148 363.08246 99.90773Q363.08246 98.65773 362.69183 98.15773Q362.3012 97.642105 361.70746 97.642105ZM361.72308 110.12648L368.76996 96.548355L370.0512 96.548355L363.01996 110.12648L361.72308 110.12648ZM367.28558 106.62648Q367.28558 105.25148 367.97308 104.28273Q368.6762 103.31398 370.00433 103.31398Q371.22308 103.31398 372.00433 104.18898Q372.8012 105.048355 372.8012 106.735855Q372.8012 108.360855 372.00433 109.25148Q371.20746 110.12648 370.01996 110.12648Q368.84808 110.12648 368.06683 109.25148Q367.28558 108.37648 367.28558 106.62648ZM370.0512 104.40773Q369.45746 104.40773 369.06683 104.923355Q368.6762 105.423355 368.6762 106.798355Q368.6762 108.017105 369.06683 108.53273Q369.45746 109.048355 370.03558 109.048355Q370.64496 109.048355 371.03558 108.53273Q371.4262 108.017105 371.4262 106.673355Q371.4262 105.423355 371.03558 104.923355Q370.64496 104.40773 370.0512 104.40773Z" fill-rule="nonzero"/><path fill="#ffffff" d="M389.9807 185.35556L388.4026 185.35556L388.4026 175.27744Q387.82446 175.82431 386.9026 176.37119Q385.9807 176.90244 385.2307 177.18369L385.2307 175.65244Q386.55884 175.02744 387.55884 174.13681Q388.55884 173.24619 388.9651 172.41806L389.9807 172.41806L389.9807 185.35556ZM399.0901 185.35556L399.0901 182.27744L393.51196 182.27744L393.51196 180.82431L399.38696 172.46494L400.68384 172.46494L400.68384 180.82431L402.4182 180.82431L402.4182 182.27744L400.68384 182.27744L400.68384 185.35556L399.0901 185.35556ZM399.0901 180.82431L399.0901 175.01181L395.05884 180.82431L399.0901 180.82431ZM404.9182 185.35556L404.9182 183.55869L406.7151 183.55869L406.7151 185.35556L404.9182 185.35556ZM409.0276 181.94931L410.62134 181.74619Q410.88696 183.08994 411.5432 183.68369Q412.19946 184.27744 413.13696 184.27744Q414.26196 184.27744 415.0276 183.51181Q415.7932 182.73056 415.7932 181.58994Q415.7932 180.49619 415.07446 179.79306Q414.37134 179.07431 413.2776 179.07431Q412.82446 179.07431 412.1526 179.26181L412.32446 177.87119Q412.4807 177.88681 412.5901 177.88681Q413.5901 177.88681 414.4026 177.35556Q415.2151 176.82431 415.2151 175.73056Q415.2151 174.85556 414.62134 174.29306Q414.0276 173.71494 413.1057 173.71494Q412.18384 173.71494 411.55884 174.29306Q410.94946 174.87119 410.7776 176.04306L409.19946 175.76181Q409.4807 174.16806 410.51196 173.29306Q411.5432 172.41806 413.07446 172.41806Q414.12134 172.41806 415.01196 172.87119Q415.9026 173.32431 416.37134 174.10556Q416.8401 174.88681 416.8401 175.76181Q416.8401 176.60556 416.38696 177.29306Q415.94946 177.96494 415.05884 178.37119Q416.19946 178.63681 416.82446 179.48056Q417.4651 180.30869 417.4651 181.54306Q417.4651 183.23056 416.2307 184.41806Q415.01196 185.58994 413.13696 185.58994Q411.43384 185.58994 410.30884 184.57431Q409.19946 183.55869 409.0276 181.94931ZM419.32446 175.55869Q419.32446 174.18369 420.01196 173.21494Q420.7151 172.24619 422.0276 172.24619Q423.24634 172.24619 424.0432 173.12119Q424.8401 173.98056 424.8401 175.66806Q424.8401 177.29306 424.0276 178.18369Q423.2307 179.05869 422.0432 179.05869Q420.88696 179.05869 420.1057 178.19931Q419.32446 177.32431 419.32446 175.55869ZM422.07446 173.33994Q421.4807 173.33994 421.0901 173.85556Q420.69946 174.35556 420.69946 175.71494Q420.69946 176.96494 421.0901 177.46494Q421.49634 177.96494 422.07446 177.96494Q422.6682 177.96494 423.05884 177.46494Q423.44946 176.94931 423.44946 175.60556Q423.44946 174.35556 423.05884 173.85556Q422.6682 173.33994 422.07446 173.33994ZM422.0901 185.82431L429.13696 172.24619L430.4182 172.24619L423.38696 185.82431L422.0901 185.82431ZM427.6526 182.32431Q427.6526 180.94931 428.3401 179.98056Q429.0432 179.01181 430.37134 179.01181Q431.5901 179.01181 432.37134 179.88681Q433.1682 180.74619 433.1682 182.43369Q433.1682 184.05869 432.37134 184.94931Q431.57446 185.82431 430.38696 185.82431Q429.2151 185.82431 428.43384 184.94931Q427.6526 184.07431 427.6526 182.32431ZM430.4182 180.10556Q429.82446 180.10556 429.43384 180.62119Q429.0432 181.12119 429.0432 182.49619Q429.0432 183.71494 429.43384 184.23056Q429.82446 184.74619 430.4026 184.74619Q431.01196 184.74619 431.4026 184.23056Q431.7932 183.71494 431.7932 182.37119Q431.7932 181.12119 431.4026 180.62119Q431.01196 180.10556 430.4182 180.10556Z" fill-rule="nonzero"/><path fill="#ffffff" d="M368.43597 279.7492L366.85785 279.7492L366.85785 269.67108Q366.27972 270.21796 365.35785 270.76483Q364.43597 271.29608 363.68597 271.57733L363.68597 270.04608Q365.0141 269.42108 366.0141 268.53046Q367.0141 267.63983 367.42035 266.8117L368.43597 266.8117L368.43597 279.7492ZM377.54535 279.7492L377.54535 276.67108L371.96722 276.67108L371.96722 275.21796L377.84222 266.85858L379.1391 266.85858L379.1391 275.21796L380.87347 275.21796L380.87347 276.67108L379.1391 276.67108L379.1391 279.7492L377.54535 279.7492ZM377.54535 275.21796L377.54535 269.40546L373.5141 275.21796L377.54535 275.21796ZM383.37347 279.7492L383.37347 277.95233L385.17035 277.95233L385.17035 279.7492L383.37347 279.7492ZM387.48285 276.34296L389.0766 276.13983Q389.34222 277.48358 389.99847 278.07733Q390.65472 278.67108 391.59222 278.67108Q392.71722 278.67108 393.48285 277.90546Q394.24847 277.1242 394.24847 275.98358Q394.24847 274.88983 393.52972 274.1867Q392.8266 273.46796 391.73285 273.46796Q391.27972 273.46796 390.60785 273.65546L390.77972 272.26483Q390.93597 272.28046 391.04535 272.28046Q392.04535 272.28046 392.85785 271.7492Q393.67035 271.21796 393.67035 270.1242Q393.67035 269.2492 393.0766 268.6867Q392.48285 268.10858 391.56097 268.10858Q390.6391 268.10858 390.0141 268.6867Q389.40472 269.26483 389.23285 270.4367L387.65472 270.15546Q387.93597 268.5617 388.96722 267.6867Q389.99847 266.8117 391.52972 266.8117Q392.5766 266.8117 393.46722 267.26483Q394.35785 267.71796 394.8266 268.4992Q395.29535 269.28046 395.29535 270.15546Q395.29535 270.9992 394.84222 271.6867Q394.40472 272.35858 393.5141 272.76483Q394.65472 273.03046 395.27972 273.8742Q395.92035 274.70233 395.92035 275.9367Q395.92035 277.6242 394.68597 278.8117Q393.46722 279.98358 391.59222 279.98358Q389.8891 279.98358 388.7641 278.96796Q387.65472 277.95233 387.48285 276.34296ZM397.77972 269.95233Q397.77972 268.57733 398.46722 267.60858Q399.17035 266.63983 400.48285 266.63983Q401.7016 266.63983 402.49847 267.51483Q403.29535 268.3742 403.29535 270.0617Q403.29535 271.6867 402.48285 272.57733Q401.68597 273.45233 400.49847 273.45233Q399.34222 273.45233 398.56097 272.59296Q397.77972 271.71796 397.77972 269.95233ZM400.52972 267.73358Q399.93597 267.73358 399.54535 268.2492Q399.15472 268.7492 399.15472 270.10858Q399.15472 271.35858 399.54535 271.85858Q399.9516 272.35858 400.52972 272.35858Q401.12347 272.35858 401.5141 271.85858Q401.90472 271.34296 401.90472 269.9992Q401.90472 268.7492 401.5141 268.2492Q401.12347 267.73358 400.52972 267.73358ZM400.54535 280.21796L407.59222 266.63983L408.87347 266.63983L401.84222 280.21796L400.54535 280.21796ZM406.10785 276.71796Q406.10785 275.34296 406.79535 274.3742Q407.49847 273.40546 408.8266 273.40546Q410.04535 273.40546 410.8266 274.28046Q411.62347 275.13983 411.62347 276.82733Q411.62347 278.45233 410.8266 279.34296Q410.02972 280.21796 408.84222 280.21796Q407.67035 280.21796 406.8891 279.34296Q406.10785 278.46796 406.10785 276.71796ZM408.87347 274.4992Q408.27972 274.4992 407.8891 275.01483Q407.49847 275.51483 407.49847 276.88983Q407.49847 278.10858 407.8891 278.6242Q408.27972 279.13983 408.85785 279.13983Q409.46722 279.13983 409.85785 278.6242Q410.24847 278.10858 410.24847 276.76483Q410.24847 275.51483 409.85785 275.01483Q409.46722 274.4992 408.87347 274.4992Z" fill-rule="nonzero"/><path fill="#ffffff" d="M166.47241 231.63611L168.12866 231.49548Q168.31616 232.71423 168.98804 233.32361Q169.65991 233.93298 170.61304 233.93298Q171.75366 233.93298 172.53491 233.07361Q173.33179 232.21423 173.33179 230.77673Q173.33179 229.43298 172.56616 228.65173Q171.81616 227.87048 170.58179 227.87048Q169.81616 227.87048 169.19116 228.21423Q168.58179 228.55798 168.23804 229.12048L166.75366 228.91736L168.00366 222.30798L174.40991 222.30798L174.40991 223.80798L169.26929 223.80798L168.56616 227.27673Q169.73804 226.46423 171.00366 226.46423Q172.69116 226.46423 173.84741 227.63611Q175.01929 228.80798 175.01929 230.63611Q175.01929 232.38611 173.98804 233.66736Q172.75366 235.22986 170.61304 235.22986Q168.84741 235.22986 167.73804 234.24548Q166.62866 233.26111 166.47241 231.63611ZM176.58179 223.80798L176.58179 222.29236L184.90991 222.29236L184.90991 223.52673Q183.69116 224.83923 182.47241 227.01111Q181.26929 229.16736 180.61304 231.46423Q180.12866 233.08923 180.00366 235.01111L178.37866 235.01111Q178.40991 233.49548 178.97241 231.33923Q179.55054 229.18298 180.61304 227.18298Q181.67554 225.18298 182.87866 223.80798L176.58179 223.80798ZM187.36304 235.01111L187.36304 233.21423L189.15991 233.21423L189.15991 235.01111L187.36304 235.01111ZM197.42554 235.01111L195.84741 235.01111L195.84741 224.93298Q195.26929 225.47986 194.34741 226.02673Q193.42554 226.55798 192.67554 226.83923L192.67554 225.30798Q194.00366 224.68298 195.00366 223.79236Q196.00366 222.90173 196.40991 222.07361L197.42554 222.07361L197.42554 235.01111ZM201.76929 225.21423Q201.76929 223.83923 202.45679 222.87048Q203.15991 221.90173 204.47241 221.90173Q205.69116 221.90173 206.48804 222.77673Q207.28491 223.63611 207.28491 225.32361Q207.28491 226.94861 206.47241 227.83923Q205.67554 228.71423 204.48804 228.71423Q203.33179 228.71423 202.55054 227.85486Q201.76929 226.97986 201.76929 225.21423ZM204.51929 222.99548Q203.92554 222.99548 203.53491 223.51111Q203.14429 224.01111 203.14429 225.37048Q203.14429 226.62048 203.53491 227.12048Q203.94116 227.62048 204.51929 227.62048Q205.11304 227.62048 205.50366 227.12048Q205.89429 226.60486 205.89429 225.26111Q205.89429 224.01111 205.50366 223.51111Q205.11304 222.99548 204.51929 222.99548ZM204.53491 235.47986L211.58179 221.90173L212.86304 221.90173L205.83179 235.47986L204.53491 235.47986ZM210.09741 231.97986Q210.09741 230.60486 210.78491 229.63611Q211.48804 228.66736 212.81616 228.66736Q214.03491 228.66736 214.81616 229.54236Q215.61304 230.40173 215.61304 232.08923Q215.61304 233.71423 214.81616 234.60486Q214.01929 235.47986 212.83179 235.47986Q211.65991 235.47986 210.87866 234.60486Q210.09741 233.72986 210.09741 231.97986ZM212.86304 229.76111Q212.26929 229.76111 211.87866 230.27673Q211.48804 230.77673 211.48804 232.15173Q211.48804 233.37048 211.87866 233.88611Q212.26929 234.40173 212.84741 234.40173Q213.45679 234.40173 213.84741 233.88611Q214.23804 233.37048 214.23804 232.02673Q214.23804 230.77673 213.84741 230.27673Q213.45679 229.76111 212.86304 229.76111Z" fill-rule="nonzero"/><path stroke="#ffffff" stroke-width="1.0" stroke-linejoin="round" stroke-linecap="round" d="M358.15524 157.30608C344.0415 139.60802 322.6367 129.3 300.0 129.3L300.0 54.916668C345.27335 54.916668 388.08298 75.53269 416.31046 110.92883" fill-rule="nonzero"/><path stroke="#ffffff" stroke-width="1.0" stroke-linejoin="round" stroke-linecap="round" d="M372.5184 220.23518C377.5555 198.16605 372.26898 175.00415 358.15524 157.30608L416.31046 110.92883C444.53793 146.32497 455.11105 192.64877 445.03677 236.78703" fill-rule="nonzero"/><path stroke="#ffffff" stroke-width="1.0" stroke-linejoin="round" stroke-linecap="round" d="M332.2737 270.7004C352.66867 260.87872 367.48126 242.30432 372.5184 220.23518L445.03677 236.78703C434.9625 280.9253 405.33734 318.0741 364.54742 337.71747" fill-rule="nonzero"/><path stroke="#ffffff" stroke-width="1.0" stroke-linejoin="round" stroke-linecap="round" d="M300.0 129.3C269.4077 129.3 241.93513 148.03049 230.75851 176.50806C219.5819 204.98561 226.98074 237.40213 249.40648 258.21017C271.8322 279.01822 304.71103 283.9739 332.2737 270.7004L364.54742 337.71747C309.42203 364.26447 243.66444 354.35312 198.81297 312.73703C153.96149 271.12094 139.16377 206.28789 161.51701 149.33276C183.87025 92.37764 238.81541 54.916668 300.0 54.916668" fill-rule="nonzero"/><path fill="#efefef" d="M18.51875 229.63185L22.925 218.17873L24.565624 218.17873L29.253124 229.63185L27.51875 229.63185L26.190624 226.1631L21.39375 226.1631L20.14375 229.63185L18.51875 229.63185ZM21.83125 224.92873L25.721874 224.92873L24.51875 221.75685Q23.971874 220.30373 23.70625 219.38185Q23.4875 220.4756 23.096874 221.56935L21.83125 224.92873ZM30.596874 229.63185L30.596874 221.33498L31.8625 221.33498L31.8625 222.58498Q32.346874 221.70998 32.753124 221.42873Q33.159374 221.14748 33.659374 221.14748Q34.3625 221.14748 35.096874 221.6006L34.6125 222.89748Q34.096874 222.6006 33.58125 222.6006Q33.128124 222.6006 32.753124 222.88185Q32.39375 223.14748 32.2375 223.64748Q32.003124 224.39748 32.003124 225.2881L32.003124 229.63185L30.596874 229.63185ZM41.01875 226.58498L42.409374 226.77248Q42.175 228.19435 41.2375 229.00685Q40.315624 229.81935 38.95625 229.81935Q37.253124 229.81935 36.20625 228.70998Q35.175 227.58498 35.175 225.50685Q35.175 224.1631 35.6125 223.1631Q36.065624 222.14748 36.971874 221.64748Q37.89375 221.14748 38.95625 221.14748Q40.315624 221.14748 41.175 221.83498Q42.034374 222.50685 42.26875 223.77248L40.909374 223.9756Q40.70625 223.14748 40.20625 222.7256Q39.721874 222.30373 39.01875 222.30373Q37.95625 222.30373 37.284374 223.06935Q36.628124 223.81935 36.628124 225.4756Q36.628124 227.14748 37.26875 227.9131Q37.909374 228.6631 38.940624 228.6631Q39.76875 228.6631 40.315624 228.1631Q40.878124 227.64748 41.01875 226.58498ZM43.6125 229.63185L43.6125 218.17873L45.01875 218.17873L45.01875 222.2881Q46.003124 221.14748 47.503124 221.14748Q48.425 221.14748 49.096874 221.50685Q49.784374 221.86623 50.065624 222.50685Q50.3625 223.14748 50.3625 224.36623L50.3625 229.63185L48.95625 229.63185L48.95625 224.36623Q48.95625 223.31935 48.503124 222.83498Q48.05 222.3506 47.20625 222.3506Q46.58125 222.3506 46.034374 222.67873Q45.4875 223.00685 45.253124 223.56935Q45.01875 224.11623 45.01875 225.08498L45.01875 229.63185L43.6125 229.63185ZM52.6125 219.7881L52.6125 218.17873L54.01875 218.17873L54.01875 219.7881L52.6125 219.7881ZM52.6125 229.63185L52.6125 221.33498L54.01875 221.33498L54.01875 229.63185L52.6125 229.63185ZM59.675 228.36623L59.878124 229.61623Q59.284374 229.74123 58.815624 229.74123Q58.05 229.74123 57.628124 229.50685Q57.20625 229.25685 57.034374 228.86623Q56.8625 228.45998 56.8625 227.19435L56.8625 222.42873L55.83125 222.42873L55.83125 221.33498L56.8625 221.33498L56.8625 219.27248L58.26875 218.42873L58.26875 221.33498L59.675 221.33498L59.675 222.42873L58.26875 222.42873L58.26875 227.27248Q58.26875 227.88185 58.33125 228.05373Q58.409374 228.2256 58.58125 228.33498Q58.753124 228.42873 59.065624 228.42873Q59.3 228.42873 59.675 228.36623ZM66.28438 226.95998L67.7375 227.13185Q67.39375 228.4131 66.45625 229.11623Q65.53438 229.81935 64.09688 229.81935Q62.26875 229.81935 61.20625 228.69435Q60.14375 227.56935 60.14375 225.55373Q60.14375 223.45998 61.221874 222.30373Q62.3 221.14748 64.01875 221.14748Q65.675 221.14748 66.72188 222.2881Q67.78438 223.4131 67.78438 225.45998Q67.78438 225.58498 67.78438 225.83498L61.596874 225.83498Q61.675 227.20998 62.3625 227.94435Q63.065624 228.6631 64.09688 228.6631Q64.87813 228.6631 65.425 228.25685Q65.97188 227.8506 66.28438 226.95998ZM61.675 224.67873L66.3 224.67873Q66.20625 223.63185 65.76875 223.11623Q65.09688 222.30373 64.03438 222.30373Q63.065624 222.30373 62.39375 222.95998Q61.7375 223.6006 61.675 224.67873ZM75.01875 226.58498L76.40938 226.77248Q76.175 228.19435 75.2375 229.00685Q74.31563 229.81935 72.95625 229.81935Q71.25313 229.81935 70.20625 228.70998Q69.175 227.58498 69.175 225.50685Q69.175 224.1631 69.6125 223.1631Q70.06563 222.14748 70.97188 221.64748Q71.89375 221.14748 72.95625 221.14748Q74.31563 221.14748 75.175 221.83498Q76.03438 222.50685 76.26875 223.77248L74.90938 223.9756Q74.70625 223.14748 74.20625 222.7256Q73.72188 222.30373 73.01875 222.30373Q71.95625 222.30373 71.28438 223.06935Q70.62813 223.81935 70.62813 225.4756Q70.62813 227.14748 71.26875 227.9131Q71.90938 228.6631 72.94063 228.6631Q73.76875 228.6631 74.31563 228.1631Q74.87813 227.64748 75.01875 226.58498ZM80.675 228.36623L80.87813 229.61623Q80.28438 229.74123 79.81563 229.74123Q79.05 229.74123 78.62813 229.50685Q78.20625 229.25685 78.03438 228.86623Q77.8625 228.45998 77.8625 227.19435L77.8625 222.42873L76.83125 222.42873L76.83125 221.33498L77.8625 221.33498L77.8625 219.27248L79.26875 218.42873L79.26875 221.33498L80.675 221.33498L80.675 222.42873L79.26875 222.42873L79.26875 227.27248Q79.26875 227.88185 79.33125 228.05373Q79.40938 228.2256 79.58125 228.33498Q79.75313 228.42873 80.06563 228.42873Q80.3 228.42873 80.675 228.36623ZM87.05 229.63185L87.05 228.4131Q86.08125 229.81935 84.40938 229.81935Q83.675 229.81935 83.03438 229.5381Q82.40938 229.25685 82.09688 228.83498Q81.78438 228.39748 81.65938 227.7881Q81.58125 227.36623 81.58125 226.4756L81.58125 221.33498L82.9875 221.33498L82.9875 225.92873Q82.9875 227.0381 83.06563 227.4131Q83.20625 227.9756 83.62813 228.2881Q84.06563 228.6006 84.69063 228.6006Q85.33125 228.6006 85.87813 228.2881Q86.44063 227.95998 86.65938 227.39748Q86.89375 226.83498 86.89375 225.77248L86.89375 221.33498L88.3 221.33498L88.3 229.63185L87.05 229.63185ZM90.59688 229.63185L90.59688 221.33498L91.8625 221.33498L91.8625 222.58498Q92.34688 221.70998 92.75313 221.42873Q93.15938 221.14748 93.65938 221.14748Q94.3625 221.14748 95.09688 221.6006L94.6125 222.89748Q94.09688 222.6006 93.58125 222.6006Q93.12813 222.6006 92.75313 222.88185Q92.39375 223.14748 92.2375 223.64748Q92.00313 224.39748 92.00313 225.2881L92.00313 229.63185L90.59688 229.63185ZM101.28438 226.95998L102.7375 227.13185Q102.39375 228.4131 101.45625 229.11623Q100.53438 229.81935 99.09688 229.81935Q97.26875 229.81935 96.20625 228.69435Q95.14375 227.56935 95.14375 225.55373Q95.14375 223.45998 96.22188 222.30373Q97.3 221.14748 99.01875 221.14748Q100.675 221.14748 101.72188 222.2881Q102.78438 223.4131 102.78438 225.45998Q102.78438 225.58498 102.78438 225.83498L96.59688 225.83498Q96.675 227.20998 97.3625 227.94435Q98.06563 228.6631 99.09688 228.6631Q99.87813 228.6631 100.425 228.25685Q100.97188 227.8506 101.28438 226.95998ZM96.675 224.67873L101.3 224.67873Q101.20625 223.63185 100.76875 223.11623Q100.09688 222.30373 99.03438 222.30373Q98.06563 222.30373 97.39375 222.95998Q96.7375 223.6006 96.675 224.67873ZM115.15938 228.27248Q114.45625 229.05373 113.62813 229.44435Q112.81563 229.83498 111.8625 229.83498Q110.1125 229.83498 109.08125 228.63185Q108.2375 227.6631 108.2375 226.4756Q108.2375 225.4131 108.925 224.55373Q109.6125 223.69435 110.97188 223.05373Q110.19063 222.1631 109.925 221.61623Q109.675 221.05373 109.675 220.5381Q109.675 219.50685 110.4875 218.74123Q111.3 217.9756 112.51875 217.9756Q113.69063 217.9756 114.44063 218.69435Q115.19063 219.4131 115.19063 220.42873Q115.19063 222.05373 113.01875 223.20998L115.08125 225.83498Q115.425 225.14748 115.62813 224.24123L117.08125 224.55373Q116.70625 226.05373 116.06563 227.02248Q116.8625 228.06935 117.8625 228.77248L116.90938 229.89748Q116.06563 229.3506 115.15938 228.27248ZM112.3 222.30373Q113.20625 221.77248 113.47188 221.36623Q113.75313 220.95998 113.75313 220.45998Q113.75313 219.88185 113.37813 219.50685Q113.00313 219.13185 112.45625 219.13185Q111.87813 219.13185 111.50313 219.50685Q111.12813 219.86623 111.12813 220.39748Q111.12813 220.6631 111.25313 220.95998Q111.39375 221.25685 111.675 221.58498L112.3 222.30373ZM114.26875 227.1631L111.69063 223.9756Q110.55 224.64748 110.14375 225.24123Q109.75313 225.81935 109.75313 226.38185Q109.75313 227.08498 110.3 227.83498Q110.8625 228.58498 111.87813 228.58498Q112.51875 228.58498 113.19063 228.19435Q113.8625 227.7881 114.26875 227.1631Z" fill-rule="nonzero"/><path fill="#9e9e9e" d="M19.221874 248.63185L20.690624 248.50685Q20.8625 249.58498 21.45625 250.13185Q22.05 250.6631 22.89375 250.6631Q23.909374 250.6631 24.6125 249.89748Q25.315624 249.13185 25.315624 247.86623Q25.315624 246.6631 24.64375 245.9756Q23.971874 245.27248 22.878124 245.27248Q22.190624 245.27248 21.64375 245.58498Q21.096874 245.89748 20.784374 246.38185L19.471874 246.20998L20.58125 240.33498L26.26875 240.33498L26.26875 241.67873L21.70625 241.67873L21.08125 244.75685Q22.1125 244.0381 23.253124 244.0381Q24.753124 244.0381 25.784374 245.08498Q26.815624 246.11623 26.815624 247.74123Q26.815624 249.30373 25.909374 250.42873Q24.8 251.83498 22.89375 251.83498Q21.33125 251.83498 20.346874 250.95998Q19.3625 250.06935 19.221874 248.63185ZM28.315624 241.67873L28.315624 240.31935L35.721874 240.31935L35.721874 241.4131Q34.628124 242.58498 33.55 244.52248Q32.4875 246.44435 31.89375 248.4756Q31.471874 249.9131 31.3625 251.63185L29.909374 251.63185Q29.940624 250.27248 30.440624 248.36623Q30.95625 246.44435 31.89375 244.67873Q32.846874 242.89748 33.925 241.67873L28.315624 241.67873ZM38.003124 251.63185L38.003124 250.02248L39.6125 250.02248L39.6125 251.63185L38.003124 251.63185ZM46.51875 251.63185L45.1125 251.63185L45.1125 242.6631Q44.596874 243.14748 43.76875 243.63185Q42.95625 244.11623 42.3 244.36623L42.3 243.00685Q43.471874 242.44435 44.346874 241.6631Q45.2375 240.86623 45.6125 240.13185L46.51875 240.13185L46.51875 251.63185ZM50.4875 242.92873Q50.4875 241.69435 51.096874 240.83498Q51.721874 239.9756 52.89375 239.9756Q53.971874 239.9756 54.675 240.75685Q55.378124 241.52248 55.378124 243.00685Q55.378124 244.45998 54.659374 245.25685Q53.95625 246.0381 52.909374 246.0381Q51.8625 246.0381 51.175 245.27248Q50.4875 244.49123 50.4875 242.92873ZM52.925 240.94435Q52.409374 240.94435 52.05 241.39748Q51.70625 241.8506 51.70625 243.06935Q51.70625 244.1631 52.05 244.61623Q52.409374 245.06935 52.925 245.06935Q53.45625 245.06935 53.8 244.61623Q54.159374 244.1631 54.159374 242.95998Q54.159374 241.8506 53.8 241.39748Q53.45625 240.94435 52.925 240.94435ZM52.940624 252.05373L59.20625 239.9756L60.346874 239.9756L54.096874 252.05373L52.940624 252.05373ZM57.89375 248.94435Q57.89375 247.70998 58.503124 246.8506Q59.128124 245.99123 60.3 245.99123Q61.378124 245.99123 62.08125 246.77248Q62.8 247.5381 62.8 249.02248Q62.8 250.4756 62.08125 251.27248Q61.3625 252.05373 60.315624 252.05373Q59.26875 252.05373 58.58125 251.27248Q57.89375 250.49123 57.89375 248.94435ZM60.346874 246.95998Q59.815624 246.95998 59.45625 247.4131Q59.1125 247.86623 59.1125 249.08498Q59.1125 250.17873 59.45625 250.63185Q59.815624 251.08498 60.33125 251.08498Q60.878124 251.08498 61.221874 250.63185Q61.565624 250.17873 61.565624 248.9756Q61.565624 247.86623 61.20625 247.4131Q60.8625 246.95998 60.346874 246.95998Z" fill-rule="nonzero"/><path stroke="#757575" stroke-width="1.0" stroke-linecap="butt" d="M18.55 235.13185L145.23334 235.13185L162.21506 235.13185" fill-rule="nonzero"/><path fill="#9e9e9e" d="M164.21506 235.13185C164.21506 234.02728 163.31963 233.13185 162.21506 233.13185C161.11049 233.13185 160.21506 234.02728 160.21506 235.13185C160.21506 236.23642 161.11049 237.13185 162.21506 237.13185C163.31963 237.13185 164.21506 236.23642 164.21506 235.13185" fill-rule="nonzero"/><path fill="#efefef" d="M481.71564 70.85091L481.71564 59.39778L489.9969 59.39778L489.9969 60.74153L483.23126 60.74153L483.23126 64.25716L489.575 64.25716L489.575 65.60091L483.23126 65.60091L483.23126 69.49153L490.2625 69.49153L490.2625 70.85091L481.71564 70.85091ZM495.575 69.58528L495.77814 70.83528Q495.1844 70.96028 494.71564 70.96028Q493.95 70.96028 493.52814 70.72591Q493.10626 70.47591 492.9344 70.08528Q492.7625 69.67903 492.7625 68.41341L492.7625 63.64778L491.73126 63.64778L491.73126 62.55403L492.7625 62.55403L492.7625 60.49153L494.16876 59.64778L494.16876 62.55403L495.575 62.55403L495.575 63.64778L494.16876 63.64778L494.16876 68.49153Q494.16876 69.10091 494.23126 69.27278Q494.3094 69.44466 494.48126 69.55403Q494.65314 69.64778 494.96564 69.64778Q495.2 69.64778 495.575 69.58528ZM496.5125 70.85091L496.5125 59.39778L497.91876 59.39778L497.91876 63.507156Q498.90314 62.36653 500.40314 62.36653Q501.325 62.36653 501.9969 62.725906Q502.6844 63.08528 502.96564 63.725906Q503.2625 64.36653 503.2625 65.58528L503.2625 70.85091L501.85626 70.85091L501.85626 65.58528Q501.85626 64.53841 501.40314 64.05403Q500.95 63.569656 500.10626 63.569656Q499.48126 63.569656 498.9344 63.89778Q498.3875 64.22591 498.15314 64.78841Q497.91876 65.33528 497.91876 66.30403L497.91876 70.85091L496.5125 70.85091ZM505.5125 70.85091L505.5125 62.55403L506.77814 62.55403L506.77814 63.725906Q507.6844 62.36653 509.41876 62.36653Q510.16876 62.36653 510.79376 62.632156Q511.41876 62.89778 511.73126 63.33528Q512.04376 63.77278 512.16876 64.38216Q512.2469 64.77278 512.2469 65.74153L512.2469 70.85091L510.84064 70.85091L510.84064 65.80403Q510.84064 64.94466 510.66876 64.52278Q510.5125 64.08528 510.09064 63.83528Q509.6844 63.58528 509.1219 63.58528Q508.21564 63.58528 507.5594 64.16341Q506.91876 64.72591 506.91876 66.31966L506.91876 70.85091L505.5125 70.85091ZM514.5125 61.007156L514.5125 59.39778L515.91876 59.39778L515.91876 61.007156L514.5125 61.007156ZM514.5125 70.85091L514.5125 62.55403L515.91876 62.55403L515.91876 70.85091L514.5125 70.85091ZM523.91876 67.80403L525.3094 67.99153Q525.075 69.41341 524.1375 70.22591Q523.21564 71.03841 521.85626 71.03841Q520.15314 71.03841 519.10626 69.92903Q518.075 68.80403 518.075 66.72591Q518.075 65.38216 518.5125 64.38216Q518.96564 63.36653 519.8719 62.86653Q520.79376 62.36653 521.85626 62.36653Q523.21564 62.36653 524.075 63.05403Q524.9344 63.725906 525.16876 64.99153L523.8094 65.19466Q523.60626 64.36653 523.10626 63.944656Q522.6219 63.52278 521.91876 63.52278Q520.85626 63.52278 520.1844 64.28841Q519.52814 65.03841 519.52814 66.69466Q519.52814 68.36653 520.16876 69.13216Q520.8094 69.88216 521.84064 69.88216Q522.66876 69.88216 523.21564 69.38216Q523.77814 68.86653 523.91876 67.80403ZM536.04376 66.35091L536.04376 65.00716L540.90314 65.00716L540.90314 69.25716Q539.77814 70.14778 538.59064 70.60091Q537.40314 71.05403 536.15314 71.05403Q534.46564 71.05403 533.09064 70.33528Q531.71564 69.60091 531.0125 68.24153Q530.3094 66.86653 530.3094 65.17903Q530.3094 63.507156 530.9969 62.05403Q531.7 60.600906 533.0125 59.89778Q534.325 59.194656 536.04376 59.194656Q537.27814 59.194656 538.27814 59.600906Q539.29376 60.007156 539.85626 60.725906Q540.4344 61.444656 540.73126 62.600906L539.35626 62.975906Q539.10626 62.100906 538.71564 61.600906Q538.34064 61.100906 537.6219 60.80403Q536.91876 60.49153 536.04376 60.49153Q535.0125 60.49153 534.2469 60.819656Q533.4969 61.132156 533.02814 61.64778Q532.5594 62.163406 532.3094 62.77278Q531.8719 63.83528 531.8719 65.08528Q531.8719 66.61653 532.3875 67.64778Q532.91876 68.67903 533.91876 69.17903Q534.9344 69.67903 536.075 69.67903Q537.0594 69.67903 537.9969 69.30403Q538.9344 68.91341 539.41876 68.49153L539.41876 66.35091L536.04376 66.35091ZM542.4969 70.85091L542.4969 62.55403L543.7625 62.55403L543.7625 63.80403Q544.2469 62.92903 544.65314 62.64778Q545.0594 62.36653 545.5594 62.36653Q546.2625 62.36653 546.9969 62.819656L546.5125 64.11653Q545.9969 63.819656 545.48126 63.819656Q545.02814 63.819656 544.65314 64.10091Q544.29376 64.36653 544.1375 64.86653Q543.90314 65.61653 543.90314 66.50716L543.90314 70.85091L542.4969 70.85091ZM546.98126 66.69466Q546.98126 64.39778 548.2625 63.288406Q549.34064 62.36653 550.8719 62.36653Q552.59064 62.36653 553.66876 63.49153Q554.7625 64.60091 554.7625 66.58528Q554.7625 68.17903 554.27814 69.10091Q553.79376 70.02278 552.8719 70.53841Q551.96564 71.03841 550.8719 71.03841Q549.1375 71.03841 548.0594 69.92903Q546.98126 68.80403 546.98126 66.69466ZM548.4344 66.69466Q548.4344 68.28841 549.1219 69.08528Q549.825 69.88216 550.8719 69.88216Q551.91876 69.88216 552.60626 69.08528Q553.3094 68.28841 553.3094 66.64778Q553.3094 65.11653 552.60626 64.31966Q551.91876 63.52278 550.8719 63.52278Q549.825 63.52278 549.1219 64.31966Q548.4344 65.10091 548.4344 66.69466ZM561.95 70.85091L561.95 69.63216Q560.98126 71.03841 559.3094 71.03841Q558.575 71.03841 557.9344 70.75716Q557.3094 70.47591 556.9969 70.05403Q556.6844 69.61653 556.5594 69.00716Q556.48126 68.58528 556.48126 67.69466L556.48126 62.55403L557.8875 62.55403L557.8875 67.14778Q557.8875 68.25716 557.96564 68.63216Q558.10626 69.19466 558.52814 69.50716Q558.96564 69.81966 559.59064 69.81966Q560.23126 69.81966 560.77814 69.50716Q561.34064 69.17903 561.5594 68.61653Q561.79376 68.05403 561.79376 66.99153L561.79376 62.55403L563.2 62.55403L563.2 70.85091L561.95 70.85091ZM565.5125 74.03841L565.5125 62.55403L566.79376 62.55403L566.79376 63.632156Q567.2469 62.99153 567.8094 62.67903Q568.3875 62.36653 569.2 62.36653Q570.2625 62.36653 571.075 62.913406Q571.8875 63.46028 572.29376 64.46028Q572.71564 65.44466 572.71564 66.63216Q572.71564 67.91341 572.2469 68.92903Q571.79376 69.94466 570.91876 70.49153Q570.0594 71.03841 569.09064 71.03841Q568.3875 71.03841 567.825 70.74153Q567.27814 70.44466 566.91876 69.99153L566.91876 74.03841L565.5125 74.03841ZM566.77814 66.74153Q566.77814 68.35091 567.41876 69.11653Q568.075 69.88216 568.9969 69.88216Q569.9344 69.88216 570.60626 69.08528Q571.27814 68.28841 571.27814 66.63216Q571.27814 65.03841 570.6219 64.25716Q569.96564 63.46028 569.0594 63.46028Q568.16876 63.46028 567.46564 64.30403Q566.77814 65.14778 566.77814 66.74153ZM573.95 68.36653L575.34064 68.14778Q575.45 68.99153 575.98126 69.44466Q576.52814 69.88216 577.48126 69.88216Q578.45 69.88216 578.91876 69.49153Q579.3875 69.08528 579.3875 68.55403Q579.3875 68.08528 578.98126 67.80403Q578.6844 67.61653 577.54376 67.33528Q575.9969 66.94466 575.3875 66.66341Q574.79376 66.36653 574.48126 65.86653Q574.1844 65.36653 574.1844 64.75716Q574.1844 64.19466 574.4344 63.725906Q574.6844 63.257156 575.1219 62.944656Q575.45 62.694656 576.0125 62.538406Q576.59064 62.36653 577.23126 62.36653Q578.21564 62.36653 578.95 62.64778Q579.6844 62.92903 580.02814 63.413406Q580.3875 63.882156 580.52814 64.69466L579.15314 64.88216Q579.0594 64.24153 578.60626 63.882156Q578.15314 63.52278 577.34064 63.52278Q576.3719 63.52278 575.95 63.850906Q575.54376 64.16341 575.54376 64.58528Q575.54376 64.86653 575.71564 65.08528Q575.8875 65.30403 576.2469 65.46028Q576.46564 65.53841 577.4969 65.81966Q578.98126 66.21028 579.575 66.47591Q580.16876 66.72591 580.4969 67.21028Q580.84064 67.69466 580.84064 68.41341Q580.84064 69.11653 580.41876 69.74153Q580.0125 70.35091 579.23126 70.69466Q578.46564 71.03841 577.4969 71.03841Q575.8719 71.03841 575.02814 70.36653Q574.1844 69.69466 573.95 68.36653Z" fill-rule="nonzero"/><path fill="#9e9e9e" d="M542.41876 92.85091L541.0125 92.85091L541.0125 83.88216Q540.4969 84.36653 539.66876 84.85091Q538.85626 85.33528 538.2 85.58528L538.2 84.22591Q539.3719 83.66341 540.2469 82.88216Q541.1375 82.08528 541.5125 81.35091L542.41876 81.35091L542.41876 92.85091ZM550.6219 92.85091L550.6219 90.10091L545.65314 90.10091L545.65314 88.81966L550.8875 81.39778L552.02814 81.39778L552.02814 88.81966L553.575 88.81966L553.575 90.10091L552.02814 90.10091L552.02814 92.85091L550.6219 92.85091ZM550.6219 88.81966L550.6219 83.64778L547.04376 88.81966L550.6219 88.81966ZM555.90314 92.85091L555.90314 91.24153L557.5125 91.24153L557.5125 92.85091L555.90314 92.85091ZM559.1219 89.81966L560.52814 89.63216Q560.77814 90.83528 561.35626 91.36653Q561.9344 91.88216 562.77814 91.88216Q563.7625 91.88216 564.45 91.19466Q565.1375 90.50716 565.1375 89.49153Q565.1375 88.52278 564.4969 87.89778Q563.8719 87.27278 562.8875 87.27278Q562.4969 87.27278 561.90314 87.42903L562.0594 86.19466Q562.2 86.21028 562.27814 86.21028Q563.1844 86.21028 563.90314 85.74153Q564.6219 85.27278 564.6219 84.28841Q564.6219 83.52278 564.09064 83.02278Q563.575 82.50716 562.7469 82.50716Q561.91876 82.50716 561.3719 83.02278Q560.825 83.53841 560.66876 84.56966L559.2625 84.31966Q559.52814 82.89778 560.4344 82.13216Q561.35626 81.35091 562.71564 81.35091Q563.65314 81.35091 564.4344 81.75716Q565.23126 82.14778 565.6375 82.85091Q566.0594 83.53841 566.0594 84.31966Q566.0594 85.06966 565.65314 85.67903Q565.2625 86.28841 564.48126 86.64778Q565.4969 86.88216 566.0594 87.61653Q566.6219 88.35091 566.6219 89.46028Q566.6219 90.96028 565.52814 92.00716Q564.4344 93.05403 562.7625 93.05403Q561.2625 93.05403 560.2625 92.16341Q559.2625 91.25716 559.1219 89.81966ZM568.3875 84.14778Q568.3875 82.91341 568.9969 82.05403Q569.6219 81.19466 570.79376 81.19466Q571.8719 81.19466 572.575 81.97591Q573.27814 82.74153 573.27814 84.22591Q573.27814 85.67903 572.5594 86.47591Q571.85626 87.25716 570.8094 87.25716Q569.7625 87.25716 569.075 86.49153Q568.3875 85.71028 568.3875 84.14778ZM570.825 82.16341Q570.3094 82.16341 569.95 82.61653Q569.60626 83.06966 569.60626 84.28841Q569.60626 85.38216 569.95 85.83528Q570.3094 86.28841 570.825 86.28841Q571.35626 86.28841 571.7 85.83528Q572.0594 85.38216 572.0594 84.17903Q572.0594 83.06966 571.7 82.61653Q571.35626 82.16341 570.825 82.16341ZM570.84064 93.27278L577.10626 81.19466L578.2469 81.19466L571.9969 93.27278L570.84064 93.27278ZM575.79376 90.16341Q575.79376 88.92903 576.40314 88.06966Q577.02814 87.21028 578.2 87.21028Q579.27814 87.21028 579.98126 87.99153Q580.7 88.75716 580.7 90.24153Q580.7 91.69466 579.98126 92.49153Q579.2625 93.27278 578.21564 93.27278Q577.16876 93.27278 576.48126 92.49153Q575.79376 91.71028 575.79376 90.16341ZM578.2469 88.17903Q577.71564 88.17903 577.35626 88.63216Q577.0125 89.08528 577.0125 90.30403Q577.0125 91.39778 577.35626 91.85091Q577.71564 92.30403 578.23126 92.30403Q578.77814 92.30403 579.1219 91.85091Q579.46564 91.39778 579.46564 90.19466Q579.46564 89.08528 579.10626 88.63216Q578.7625 88.17903 578.2469 88.17903Z" fill-rule="nonzero"/><path stroke="#757575" stroke-width="1.0" stroke-linecap="butt" d="M581.45 76.35091L454.76666 76.35091L361.32007 76.35091" fill-rule="nonzero"/><path fill="#9e9e9e" d="M363.32007 76.35091C363.32007 75.24634 362.42462 74.35091 361.32007 74.35091C360.21548 74.35091 359.32007 75.24634 359.32007 76.35091C359.32007 77.455475 360.21548 78.35091 361.32007 78.35091C362.42462 78.35091 363.32007 77.455475 363.32007 76.35091" fill-rule="nonzero"/><path fill="#efefef" d="M495.85626 162.7192L497.3719 163.0942Q496.90314 164.9692 495.65314 165.95357Q494.41876 166.93794 492.6375 166.93794Q490.77814 166.93794 489.6219 166.18794Q488.46564 165.42232 487.85626 164.00044Q487.2469 162.56294 487.2469 160.92232Q487.2469 159.12544 487.9344 157.79732Q488.6219 156.4692 489.8719 155.7817Q491.1375 155.07857 492.65314 155.07857Q494.3719 155.07857 495.54376 155.95357Q496.71564 156.82857 497.1844 158.42232L495.6844 158.76607Q495.29376 157.51607 494.52814 156.95357Q493.77814 156.37544 492.6219 156.37544Q491.3094 156.37544 490.41876 157.01607Q489.52814 157.64107 489.16876 158.7192Q488.8094 159.7817 488.8094 160.9067Q488.8094 162.37544 489.23126 163.4692Q489.66876 164.54732 490.5594 165.0942Q491.46564 165.62544 492.5125 165.62544Q493.77814 165.62544 494.65314 164.89107Q495.54376 164.1567 495.85626 162.7192ZM504.95 166.73482L504.95 165.51607Q503.98126 166.92232 502.3094 166.92232Q501.575 166.92232 500.9344 166.64107Q500.3094 166.35982 499.9969 165.93794Q499.6844 165.50044 499.5594 164.89107Q499.48126 164.4692 499.48126 163.57857L499.48126 158.43794L500.8875 158.43794L500.8875 163.0317Q500.8875 164.14107 500.96564 164.51607Q501.10626 165.07857 501.52814 165.39107Q501.96564 165.70357 502.59064 165.70357Q503.23126 165.70357 503.77814 165.39107Q504.34064 165.06294 504.5594 164.50044Q504.79376 163.93794 504.79376 162.87544L504.79376 158.43794L506.2 158.43794L506.2 166.73482L504.95 166.73482ZM508.48126 166.73482L508.48126 155.2817L509.8875 155.2817L509.8875 166.73482L508.48126 166.73482ZM515.575 165.4692L515.77814 166.7192Q515.1844 166.8442 514.71564 166.8442Q513.95 166.8442 513.52814 166.60982Q513.10626 166.35982 512.9344 165.9692Q512.7625 165.56294 512.7625 164.29732L512.7625 159.5317L511.73126 159.5317L511.73126 158.43794L512.7625 158.43794L512.7625 156.37544L514.16876 155.5317L514.16876 158.43794L515.575 158.43794L515.575 159.5317L514.16876 159.5317L514.16876 164.37544Q514.16876 164.98482 514.23126 165.1567Q514.3094 165.32857 514.48126 165.43794Q514.65314 165.5317 514.96564 165.5317Q515.2 165.5317 515.575 165.4692ZM521.95 166.73482L521.95 165.51607Q520.98126 166.92232 519.3094 166.92232Q518.575 166.92232 517.9344 166.64107Q517.3094 166.35982 516.9969 165.93794Q516.6844 165.50044 516.5594 164.89107Q516.48126 164.4692 516.48126 163.57857L516.48126 158.43794L517.8875 158.43794L517.8875 163.0317Q517.8875 164.14107 517.96564 164.51607Q518.10626 165.07857 518.52814 165.39107Q518.96564 165.70357 519.59064 165.70357Q520.23126 165.70357 520.77814 165.39107Q521.34064 165.06294 521.5594 164.50044Q521.79376 163.93794 521.79376 162.87544L521.79376 158.43794L523.2 158.43794L523.2 166.73482L521.95 166.73482ZM525.4969 166.73482L525.4969 158.43794L526.7625 158.43794L526.7625 159.68794Q527.2469 158.81294 527.65314 158.5317Q528.0594 158.25044 528.5594 158.25044Q529.2625 158.25044 529.9969 158.70357L529.5125 160.00044Q528.9969 159.70357 528.48126 159.70357Q528.02814 159.70357 527.65314 159.98482Q527.29376 160.25044 527.1375 160.75044Q526.90314 161.50044 526.90314 162.39107L526.90314 166.73482L525.4969 166.73482ZM535.91876 165.70357Q535.1375 166.37544 534.41876 166.6567Q533.7 166.92232 532.8719 166.92232Q531.4969 166.92232 530.7625 166.25044Q530.02814 165.57857 530.02814 164.54732Q530.02814 163.93794 530.3094 163.43794Q530.59064 162.92232 531.02814 162.62544Q531.48126 162.31294 532.04376 162.1567Q532.46564 162.04732 533.29376 161.95357Q534.9969 161.75044 535.8094 161.4692Q535.8094 161.17232 535.8094 161.0942Q535.8094 160.23482 535.41876 159.89107Q534.8719 159.4067 533.8094 159.4067Q532.825 159.4067 532.34064 159.76607Q531.8719 160.10982 531.65314 160.98482L530.27814 160.79732Q530.46564 159.92232 530.8875 159.37544Q531.325 158.82857 532.1375 158.54732Q532.95 158.25044 534.0125 158.25044Q535.075 158.25044 535.73126 158.50044Q536.40314 158.75044 536.71564 159.12544Q537.02814 159.50044 537.15314 160.07857Q537.23126 160.43794 537.23126 161.37544L537.23126 163.25044Q537.23126 165.2192 537.3094 165.73482Q537.40314 166.25044 537.66876 166.73482L536.2 166.73482Q535.98126 166.29732 535.91876 165.70357ZM535.8094 162.56294Q535.04376 162.87544 533.5125 163.0942Q532.6375 163.2192 532.27814 163.37544Q531.91876 163.5317 531.71564 163.8442Q531.52814 164.14107 531.52814 164.50044Q531.52814 165.06294 531.95 165.43794Q532.3875 165.81294 533.2 165.81294Q534.0125 165.81294 534.6375 165.4692Q535.27814 165.10982 535.575 164.48482Q535.8094 164.01607 535.8094 163.07857L535.8094 162.56294ZM539.48126 166.73482L539.48126 155.2817L540.8875 155.2817L540.8875 166.73482L539.48126 166.73482ZM546.41876 166.73482L550.825 155.2817L552.46564 155.2817L557.15314 166.73482L555.41876 166.73482L554.09064 163.26607L549.29376 163.26607L548.04376 166.73482L546.41876 166.73482ZM549.73126 162.0317L553.6219 162.0317L552.41876 158.85982Q551.8719 157.4067 551.60626 156.48482Q551.3875 157.57857 550.9969 158.67232L549.73126 162.0317ZM563.91876 163.68794L565.3094 163.87544Q565.075 165.29732 564.1375 166.10982Q563.21564 166.92232 561.85626 166.92232Q560.15314 166.92232 559.10626 165.81294Q558.075 164.68794 558.075 162.60982Q558.075 161.26607 558.5125 160.26607Q558.96564 159.25044 559.8719 158.75044Q560.79376 158.25044 561.85626 158.25044Q563.21564 158.25044 564.075 158.93794Q564.9344 159.60982 565.16876 160.87544L563.8094 161.07857Q563.60626 160.25044 563.10626 159.82857Q562.6219 159.4067 561.91876 159.4067Q560.85626 159.4067 560.1844 160.17232Q559.52814 160.92232 559.52814 162.57857Q559.52814 164.25044 560.16876 165.01607Q560.8094 165.76607 561.84064 165.76607Q562.66876 165.76607 563.21564 165.26607Q563.77814 164.75044 563.91876 163.68794ZM569.575 165.4692L569.77814 166.7192Q569.1844 166.8442 568.71564 166.8442Q567.95 166.8442 567.52814 166.60982Q567.10626 166.35982 566.9344 165.9692Q566.7625 165.56294 566.7625 164.29732L566.7625 159.5317L565.73126 159.5317L565.73126 158.43794L566.7625 158.43794L566.7625 156.37544L568.16876 155.5317L568.16876 158.43794L569.575 158.43794L569.575 159.5317L568.16876 159.5317L568.16876 164.37544Q568.16876 164.98482 568.23126 165.1567Q568.3094 165.32857 568.48126 165.43794Q568.65314 165.5317 568.96564 165.5317Q569.2 165.5317 569.575 165.4692ZM569.95 164.25044L571.34064 164.0317Q571.45 164.87544 571.98126 165.32857Q572.52814 165.76607 573.48126 165.76607Q574.45 165.76607 574.91876 165.37544Q575.3875 164.9692 575.3875 164.43794Q575.3875 163.9692 574.98126 163.68794Q574.6844 163.50044 573.54376 163.2192Q571.9969 162.82857 571.3875 162.54732Q570.79376 162.25044 570.48126 161.75044Q570.1844 161.25044 570.1844 160.64107Q570.1844 160.07857 570.4344 159.60982Q570.6844 159.14107 571.1219 158.82857Q571.45 158.57857 572.0125 158.42232Q572.59064 158.25044 573.23126 158.25044Q574.21564 158.25044 574.95 158.5317Q575.6844 158.81294 576.02814 159.29732Q576.3875 159.76607 576.52814 160.57857L575.15314 160.76607Q575.0594 160.12544 574.60626 159.76607Q574.15314 159.4067 573.34064 159.4067Q572.3719 159.4067 571.95 159.73482Q571.54376 160.04732 571.54376 160.4692Q571.54376 160.75044 571.71564 160.9692Q571.8875 161.18794 572.2469 161.3442Q572.46564 161.42232 573.4969 161.70357Q574.98126 162.0942 575.575 162.35982Q576.16876 162.60982 576.4969 163.0942Q576.84064 163.57857 576.84064 164.29732Q576.84064 165.00044 576.41876 165.62544Q576.0125 166.23482 575.23126 166.57857Q574.46564 166.92232 573.4969 166.92232Q571.8719 166.92232 571.02814 166.25044Q570.1844 165.57857 569.95 164.25044ZM578.90314 166.73482L578.90314 165.12544L580.5125 165.12544L580.5125 166.73482L578.90314 166.73482Z" fill-rule="nonzero"/><path fill="#9e9e9e" d="M542.41876 188.73482L541.0125 188.73482L541.0125 179.76607Q540.4969 180.25044 539.66876 180.73482Q538.85626 181.2192 538.2 181.4692L538.2 180.10982Q539.3719 179.54732 540.2469 178.76607Q541.1375 177.9692 541.5125 177.23482L542.41876 177.23482L542.41876 188.73482ZM550.6219 188.73482L550.6219 185.98482L545.65314 185.98482L545.65314 184.70357L550.8875 177.2817L552.02814 177.2817L552.02814 184.70357L553.575 184.70357L553.575 185.98482L552.02814 185.98482L552.02814 188.73482L550.6219 188.73482ZM550.6219 184.70357L550.6219 179.5317L547.04376 184.70357L550.6219 184.70357ZM555.90314 188.73482L555.90314 187.12544L557.5125 187.12544L557.5125 188.73482L555.90314 188.73482ZM559.1219 185.70357L560.52814 185.51607Q560.77814 186.7192 561.35626 187.25044Q561.9344 187.76607 562.77814 187.76607Q563.7625 187.76607 564.45 187.07857Q565.1375 186.39107 565.1375 185.37544Q565.1375 184.4067 564.4969 183.7817Q563.8719 183.1567 562.8875 183.1567Q562.4969 183.1567 561.90314 183.31294L562.0594 182.07857Q562.2 182.0942 562.27814 182.0942Q563.1844 182.0942 563.90314 181.62544Q564.6219 181.1567 564.6219 180.17232Q564.6219 179.4067 564.09064 178.9067Q563.575 178.39107 562.7469 178.39107Q561.91876 178.39107 561.3719 178.9067Q560.825 179.42232 560.66876 180.45357L559.2625 180.20357Q559.52814 178.7817 560.4344 178.01607Q561.35626 177.23482 562.71564 177.23482Q563.65314 177.23482 564.4344 177.64107Q565.23126 178.0317 565.6375 178.73482Q566.0594 179.42232 566.0594 180.20357Q566.0594 180.95357 565.65314 181.56294Q565.2625 182.17232 564.48126 182.5317Q565.4969 182.76607 566.0594 183.50044Q566.6219 184.23482 566.6219 185.3442Q566.6219 186.8442 565.52814 187.89107Q564.4344 188.93794 562.7625 188.93794Q561.2625 188.93794 560.2625 188.04732Q559.2625 187.14107 559.1219 185.70357ZM568.3875 180.0317Q568.3875 178.79732 568.9969 177.93794Q569.6219 177.07857 570.79376 177.07857Q571.8719 177.07857 572.575 177.85982Q573.27814 178.62544 573.27814 180.10982Q573.27814 181.56294 572.5594 182.35982Q571.85626 183.14107 570.8094 183.14107Q569.7625 183.14107 569.075 182.37544Q568.3875 181.5942 568.3875 180.0317ZM570.825 178.04732Q570.3094 178.04732 569.95 178.50044Q569.60626 178.95357 569.60626 180.17232Q569.60626 181.26607 569.95 181.7192Q570.3094 182.17232 570.825 182.17232Q571.35626 182.17232 571.7 181.7192Q572.0594 181.26607 572.0594 180.06294Q572.0594 178.95357 571.7 178.50044Q571.35626 178.04732 570.825 178.04732ZM570.84064 189.1567L577.10626 177.07857L578.2469 177.07857L571.9969 189.1567L570.84064 189.1567ZM575.79376 186.04732Q575.79376 184.81294 576.40314 183.95357Q577.02814 183.0942 578.2 183.0942Q579.27814 183.0942 579.98126 183.87544Q580.7 184.64107 580.7 186.12544Q580.7 187.57857 579.98126 188.37544Q579.2625 189.1567 578.21564 189.1567Q577.16876 189.1567 576.48126 188.37544Q575.79376 187.5942 575.79376 186.04732ZM578.2469 184.06294Q577.71564 184.06294 577.35626 184.51607Q577.0125 184.9692 577.0125 186.18794Q577.0125 187.2817 577.35626 187.73482Q577.71564 188.18794 578.23126 188.18794Q578.77814 188.18794 579.1219 187.73482Q579.46564 187.2817 579.46564 186.07857Q579.46564 184.9692 579.10626 184.51607Q578.7625 184.06294 578.2469 184.06294Z" fill-rule="nonzero"/><path stroke="#757575" stroke-width="1.0" stroke-linecap="butt" d="M581.45 172.23482L454.76666 172.23482L437.78494 172.23482" fill-rule="nonzero"/><path fill="#9e9e9e" d="M439.78494 172.23482C439.78494 171.13025 438.8895 170.23482 437.78494 170.23482C436.68036 170.23482 435.78494 171.13025 435.78494 172.23482C435.78494 173.33939 436.68036 174.23482 437.78494 174.23482C438.8895 174.23482 439.78494 173.33939 439.78494 172.23482" fill-rule="nonzero"/><path fill="#efefef" d="M514.71564 286.3001L514.71564 274.847L519.79376 274.847Q521.325 274.847 522.1219 275.1595Q522.91876 275.45636 523.3875 276.2376Q523.8719 277.01886 523.8719 277.972Q523.8719 279.19073 523.075 280.0345Q522.29376 280.8626 520.6375 281.08136Q521.2469 281.37823 521.5594 281.6595Q522.21564 282.26886 522.8094 283.1751L524.8094 286.3001L522.90314 286.3001L521.3875 283.9095Q520.71564 282.87823 520.27814 282.33136Q519.85626 281.7845 519.5125 281.56573Q519.1844 281.347 518.825 281.26886Q518.575 281.20636 517.98126 281.20636L516.23126 281.20636L516.23126 286.3001L514.71564 286.3001ZM516.23126 279.89386L519.48126 279.89386Q520.52814 279.89386 521.10626 279.69073Q521.7 279.472 521.9969 279.00323Q522.3094 278.51886 522.3094 277.972Q522.3094 277.1595 521.71564 276.64386Q521.1219 276.1126 519.85626 276.1126L516.23126 276.1126L516.23126 279.89386ZM532.1844 283.62823L533.6375 283.8001Q533.29376 285.08136 532.35626 285.7845Q531.4344 286.4876 529.9969 286.4876Q528.16876 286.4876 527.10626 285.3626Q526.04376 284.2376 526.04376 282.222Q526.04376 280.12823 527.1219 278.972Q528.2 277.81573 529.91876 277.81573Q531.575 277.81573 532.6219 278.95636Q533.6844 280.08136 533.6844 282.12823Q533.6844 282.25323 533.6844 282.50323L527.4969 282.50323Q527.575 283.87823 528.2625 284.6126Q528.96564 285.33136 529.9969 285.33136Q530.77814 285.33136 531.325 284.9251Q531.8719 284.51886 532.1844 283.62823ZM527.575 281.347L532.2 281.347Q532.10626 280.3001 531.66876 279.7845Q530.9969 278.972 529.9344 278.972Q528.96564 278.972 528.29376 279.62823Q527.6375 280.26886 527.575 281.347ZM535.48126 286.3001L535.48126 274.847L536.8875 274.847L536.8875 286.3001L535.48126 286.3001ZM539.5125 276.45636L539.5125 274.847L540.91876 274.847L540.91876 276.45636L539.5125 276.45636ZM539.5125 286.3001L539.5125 278.00323L540.91876 278.00323L540.91876 286.3001L539.5125 286.3001ZM543.2469 286.9876L544.6219 287.19073Q544.7 287.83136 545.09064 288.1126Q545.6219 288.50323 546.52814 288.50323Q547.4969 288.50323 548.02814 288.1126Q548.5594 287.722 548.7469 287.01886Q548.85626 286.597 548.85626 285.20636Q547.9344 286.3001 546.5594 286.3001Q544.84064 286.3001 543.90314 285.06573Q542.96564 283.83136 542.96564 282.097Q542.96564 280.9095 543.3875 279.9095Q543.825 278.9095 544.6375 278.3626Q545.46564 277.81573 546.5594 277.81573Q548.02814 277.81573 548.98126 279.00323L548.98126 278.00323L550.27814 278.00323L550.27814 285.1751Q550.27814 287.1126 549.8875 287.9251Q549.4969 288.7376 548.6375 289.20636Q547.77814 289.6751 546.52814 289.6751Q545.04376 289.6751 544.1219 289.00323Q543.21564 288.33136 543.2469 286.9876ZM544.41876 282.00323Q544.41876 283.62823 545.0594 284.37823Q545.71564 285.12823 546.6844 285.12823Q547.65314 285.12823 548.3094 284.39386Q548.96564 283.64386 548.96564 282.0501Q548.96564 280.51886 548.29376 279.75323Q547.6219 278.972 546.66876 278.972Q545.73126 278.972 545.075 279.7376Q544.41876 280.50323 544.41876 282.00323ZM552.5125 276.45636L552.5125 274.847L553.91876 274.847L553.91876 276.45636L552.5125 276.45636ZM552.5125 286.3001L552.5125 278.00323L553.91876 278.00323L553.91876 286.3001L552.5125 286.3001ZM555.98126 282.14386Q555.98126 279.847 557.2625 278.7376Q558.34064 277.81573 559.8719 277.81573Q561.59064 277.81573 562.66876 278.94073Q563.7625 280.0501 563.7625 282.0345Q563.7625 283.62823 563.27814 284.5501Q562.79376 285.472 561.8719 285.9876Q560.96564 286.4876 559.8719 286.4876Q558.1375 286.4876 557.0594 285.37823Q555.98126 284.25323 555.98126 282.14386ZM557.4344 282.14386Q557.4344 283.7376 558.1219 284.5345Q558.825 285.33136 559.8719 285.33136Q560.91876 285.33136 561.60626 284.5345Q562.3094 283.7376 562.3094 282.097Q562.3094 280.56573 561.60626 279.76886Q560.91876 278.972 559.8719 278.972Q558.825 278.972 558.1219 279.76886Q557.4344 280.5501 557.4344 282.14386ZM570.95 286.3001L570.95 285.08136Q569.98126 286.4876 568.3094 286.4876Q567.575 286.4876 566.9344 286.20636Q566.3094 285.9251 565.9969 285.50323Q565.6844 285.06573 565.5594 284.45636Q565.48126 284.0345 565.48126 283.14386L565.48126 278.00323L566.8875 278.00323L566.8875 282.597Q566.8875 283.70636 566.96564 284.08136Q567.10626 284.64386 567.52814 284.95636Q567.96564 285.26886 568.59064 285.26886Q569.23126 285.26886 569.77814 284.95636Q570.34064 284.62823 570.5594 284.06573Q570.79376 283.50323 570.79376 282.44073L570.79376 278.00323L572.2 278.00323L572.2 286.3001L570.95 286.3001ZM573.95 283.81573L575.34064 283.597Q575.45 284.44073 575.98126 284.89386Q576.52814 285.33136 577.48126 285.33136Q578.45 285.33136 578.91876 284.94073Q579.3875 284.5345 579.3875 284.00323Q579.3875 283.5345 578.98126 283.25323Q578.6844 283.06573 577.54376 282.7845Q575.9969 282.39386 575.3875 282.1126Q574.79376 281.81573 574.48126 281.31573Q574.1844 280.81573 574.1844 280.20636Q574.1844 279.64386 574.4344 279.1751Q574.6844 278.70636 575.1219 278.39386Q575.45 278.14386 576.0125 277.9876Q576.59064 277.81573 577.23126 277.81573Q578.21564 277.81573 578.95 278.097Q579.6844 278.37823 580.02814 278.8626Q580.3875 279.33136 580.52814 280.14386L579.15314 280.33136Q579.0594 279.69073 578.60626 279.33136Q578.15314 278.972 577.34064 278.972Q576.3719 278.972 575.95 279.3001Q575.54376 279.6126 575.54376 280.0345Q575.54376 280.31573 575.71564 280.5345Q575.8875 280.75323 576.2469 280.9095Q576.46564 280.9876 577.4969 281.26886Q578.98126 281.6595 579.575 281.9251Q580.16876 282.1751 580.4969 282.6595Q580.84064 283.14386 580.84064 283.8626Q580.84064 284.56573 580.41876 285.19073Q580.0125 285.8001 579.23126 286.14386Q578.46564 286.4876 577.4969 286.4876Q575.8719 286.4876 575.02814 285.81573Q574.1844 285.14386 573.95 283.81573Z" fill-rule="nonzero"/><path fill="#9e9e9e" d="M542.41876 308.3001L541.0125 308.3001L541.0125 299.33136Q540.4969 299.81573 539.66876 300.3001Q538.85626 300.7845 538.2 301.0345L538.2 299.6751Q539.3719 299.1126 540.2469 298.33136Q541.1375 297.5345 541.5125 296.8001L542.41876 296.8001L542.41876 308.3001ZM550.6219 308.3001L550.6219 305.5501L545.65314 305.5501L545.65314 304.26886L550.8875 296.847L552.02814 296.847L552.02814 304.26886L553.575 304.26886L553.575 305.5501L552.02814 305.5501L552.02814 308.3001L550.6219 308.3001ZM550.6219 304.26886L550.6219 299.097L547.04376 304.26886L550.6219 304.26886ZM555.90314 308.3001L555.90314 306.69073L557.5125 306.69073L557.5125 308.3001L555.90314 308.3001ZM559.1219 305.26886L560.52814 305.08136Q560.77814 306.2845 561.35626 306.81573Q561.9344 307.33136 562.77814 307.33136Q563.7625 307.33136 564.45 306.64386Q565.1375 305.95636 565.1375 304.94073Q565.1375 303.972 564.4969 303.347Q563.8719 302.722 562.8875 302.722Q562.4969 302.722 561.90314 302.87823L562.0594 301.64386Q562.2 301.6595 562.27814 301.6595Q563.1844 301.6595 563.90314 301.19073Q564.6219 300.722 564.6219 299.7376Q564.6219 298.972 564.09064 298.472Q563.575 297.95636 562.7469 297.95636Q561.91876 297.95636 561.3719 298.472Q560.825 298.9876 560.66876 300.01886L559.2625 299.76886Q559.52814 298.347 560.4344 297.58136Q561.35626 296.8001 562.71564 296.8001Q563.65314 296.8001 564.4344 297.20636Q565.23126 297.597 565.6375 298.3001Q566.0594 298.9876 566.0594 299.76886Q566.0594 300.51886 565.65314 301.12823Q565.2625 301.7376 564.48126 302.097Q565.4969 302.33136 566.0594 303.06573Q566.6219 303.8001 566.6219 304.9095Q566.6219 306.4095 565.52814 307.45636Q564.4344 308.50323 562.7625 308.50323Q561.2625 308.50323 560.2625 307.6126Q559.2625 306.70636 559.1219 305.26886ZM568.3875 299.597Q568.3875 298.3626 568.9969 297.50323Q569.6219 296.64386 570.79376 296.64386Q571.8719 296.64386 572.575 297.4251Q573.27814 298.19073 573.27814 299.6751Q573.27814 301.12823 572.5594 301.9251Q571.85626 302.70636 570.8094 302.70636Q569.7625 302.70636 569.075 301.94073Q568.3875 301.1595 568.3875 299.597ZM570.825 297.6126Q570.3094 297.6126 569.95 298.06573Q569.60626 298.51886 569.60626 299.7376Q569.60626 300.83136 569.95 301.2845Q570.3094 301.7376 570.825 301.7376Q571.35626 301.7376 571.7 301.2845Q572.0594 300.83136 572.0594 299.62823Q572.0594 298.51886 571.7 298.06573Q571.35626 297.6126 570.825 297.6126ZM570.84064 308.722L577.10626 296.64386L578.2469 296.64386L571.9969 308.722L570.84064 308.722ZM575.79376 305.6126Q575.79376 304.37823 576.40314 303.51886Q577.02814 302.6595 578.2 302.6595Q579.27814 302.6595 579.98126 303.44073Q580.7 304.20636 580.7 305.69073Q580.7 307.14386 579.98126 307.94073Q579.2625 308.722 578.21564 308.722Q577.16876 308.722 576.48126 307.94073Q575.79376 307.1595 575.79376 305.6126ZM578.2469 303.62823Q577.71564 303.62823 577.35626 304.08136Q577.0125 304.5345 577.0125 305.75323Q577.0125 306.847 577.35626 307.3001Q577.71564 307.75323 578.23126 307.75323Q578.77814 307.75323 579.1219 307.3001Q579.46564 306.847 579.46564 305.64386Q579.46564 304.5345 579.10626 304.08136Q578.7625 303.62823 578.2469 303.62823Z" fill-rule="nonzero"/><path stroke="#757575" stroke-width="1.0" stroke-linecap="butt" d="M581.45 291.8001L454.76666 291.8001L410.49493 291.8001" fill-rule="nonzero"/><path fill="#9e9e9e" d="M412.49493 291.8001C412.49493 290.69553 411.59952 289.8001 410.49493 289.8001C409.39038 289.8001 408.49493 290.69553 408.49493 291.8001C408.49493 292.90466 409.39038 293.8001 410.49493 293.8001C411.59952 293.8001 412.49493 292.90466 412.49493 291.8001" fill-rule="nonzero"/><path fill="#f3f3f3" d="M271.26562 32.534374L273.15625 33.003124Q272.5625 35.346874 271.01562 36.58125Q269.46875 37.8 267.21875 37.8Q264.90625 37.8 263.45312 36.8625Q262.01562 35.909374 261.25 34.128124Q260.5 32.33125 260.5 30.284374Q260.5 28.05 261.34375 26.39375Q262.20312 24.721874 263.78125 23.8625Q265.35938 22.9875 267.25 22.9875Q269.40625 22.9875 270.85938 24.08125Q272.32812 25.175 272.90625 27.159374L271.04688 27.596874Q270.54688 26.034374 269.59375 25.33125Q268.65625 24.6125 267.21875 24.6125Q265.5625 24.6125 264.45312 25.409374Q263.34375 26.190624 262.89062 27.534374Q262.45312 28.8625 262.45312 30.26875Q262.45312 32.096874 262.98438 33.471874Q263.51562 34.83125 264.64062 35.503124Q265.76562 36.175 267.0625 36.175Q268.65625 36.175 269.76562 35.253124Q270.875 34.33125 271.26562 32.534374ZM281.59375 36.26875Q280.60938 37.096874 279.70312 37.440624Q278.79688 37.784374 277.76562 37.784374Q276.0625 37.784374 275.14062 36.95625Q274.21875 36.1125 274.21875 34.815624Q274.21875 34.05 274.5625 33.425Q274.92188 32.8 275.48438 32.425Q276.04688 32.034374 276.75 31.83125Q277.26562 31.70625 278.3125 31.565624Q280.4375 31.315624 281.4375 30.971874Q281.45312 30.6125 281.45312 30.503124Q281.45312 29.440624 280.95312 28.9875Q280.28125 28.39375 278.95312 28.39375Q277.70312 28.39375 277.10938 28.83125Q276.53125 29.26875 276.25 30.378124L274.53125 30.14375Q274.76562 29.034374 275.29688 28.3625Q275.82812 27.675 276.84375 27.315624Q277.85938 26.940624 279.20312 26.940624Q280.53125 26.940624 281.35938 27.253124Q282.1875 27.565624 282.57812 28.05Q282.96875 28.51875 283.125 29.2375Q283.21875 29.690624 283.21875 30.8625L283.21875 33.20625Q283.21875 35.659374 283.32812 36.315624Q283.4375 36.95625 283.78125 37.55L281.9375 37.55Q281.67188 37.003124 281.59375 36.26875ZM281.4375 32.346874Q280.48438 32.7375 278.5625 33.003124Q277.48438 33.159374 277.03125 33.3625Q276.59375 33.55 276.34375 33.925Q276.09375 34.3 276.09375 34.76875Q276.09375 35.471874 276.625 35.940624Q277.15625 36.409374 278.1875 36.409374Q279.20312 36.409374 279.98438 35.971874Q280.78125 35.51875 281.15625 34.753124Q281.4375 34.14375 281.4375 32.9875L281.4375 32.346874ZM289.65625 35.971874L289.90625 37.534374Q289.17188 37.690624 288.57812 37.690624Q287.625 37.690624 287.09375 37.39375Q286.57812 37.08125 286.35938 36.596874Q286.14062 36.096874 286.14062 34.51875L286.14062 28.55L284.85938 28.55L284.85938 27.175L286.14062 27.175L286.14062 24.6125L287.89062 23.55L287.89062 27.175L289.65625 27.175L289.65625 28.55L287.89062 28.55L287.89062 34.6125Q287.89062 35.3625 287.98438 35.58125Q288.07812 35.784374 288.28125 35.925Q288.5 36.05 288.89062 36.05Q289.17188 36.05 289.65625 35.971874ZM298.92188 34.20625L300.73438 34.440624Q300.3125 36.01875 299.14062 36.909374Q297.98438 37.784374 296.17188 37.784374Q293.90625 37.784374 292.5625 36.39375Q291.23438 34.9875 291.23438 32.45625Q291.23438 29.83125 292.57812 28.39375Q293.92188 26.940624 296.07812 26.940624Q298.15625 26.940624 299.46875 28.3625Q300.79688 29.76875 300.79688 32.346874Q300.79688 32.503124 300.78125 32.815624L293.04688 32.815624Q293.14062 34.51875 294.01562 35.425Q294.89062 36.33125 296.1875 36.33125Q297.15625 36.33125 297.82812 35.83125Q298.51562 35.315624 298.92188 34.20625ZM293.14062 31.3625L298.9375 31.3625Q298.82812 30.065624 298.28125 29.409374Q297.4375 28.39375 296.09375 28.39375Q294.89062 28.39375 294.0625 29.20625Q293.23438 30.003124 293.14062 31.3625ZM302.5 38.409374L304.20312 38.659374Q304.3125 39.45625 304.79688 39.815624Q305.45312 40.3 306.59375 40.3Q307.8125 40.3 308.46875 39.815624Q309.14062 39.33125 309.375 38.45625Q309.51562 37.909374 309.5 36.190624Q308.34375 37.55 306.625 37.55Q304.48438 37.55 303.3125 36.003124Q302.14062 34.45625 302.14062 32.3Q302.14062 30.815624 302.67188 29.565624Q303.21875 28.315624 304.23438 27.628124Q305.26562 26.940624 306.64062 26.940624Q308.46875 26.940624 309.67188 28.425L309.67188 27.175L311.28125 27.175L311.28125 36.14375Q311.28125 38.565624 310.78125 39.565624Q310.29688 40.58125 309.21875 41.159374Q308.15625 41.753124 306.59375 41.753124Q304.75 41.753124 303.59375 40.925Q302.45312 40.096874 302.5 38.409374ZM303.95312 32.175Q303.95312 34.221874 304.76562 35.159374Q305.57812 36.096874 306.79688 36.096874Q308.0 36.096874 308.8125 35.159374Q309.64062 34.221874 309.64062 32.2375Q309.64062 30.33125 308.79688 29.3625Q307.95312 28.39375 306.76562 28.39375Q305.59375 28.39375 304.76562 29.346874Q303.95312 30.3 303.95312 32.175ZM313.17188 32.3625Q313.17188 29.4875 314.76562 28.096874Q316.10938 26.940624 318.03125 26.940624Q320.17188 26.940624 321.51562 28.346874Q322.875 29.753124 322.875 32.221874Q322.875 34.221874 322.28125 35.378124Q321.6875 36.51875 320.53125 37.159374Q319.39062 37.784374 318.03125 37.784374Q315.84375 37.784374 314.5 36.39375Q313.17188 34.9875 313.17188 32.3625ZM314.96875 32.3625Q314.96875 34.3625 315.82812 35.346874Q316.70312 36.33125 318.03125 36.33125Q319.34375 36.33125 320.20312 35.346874Q321.07812 34.346874 321.07812 32.3Q321.07812 30.378124 320.20312 29.39375Q319.32812 28.39375 318.03125 28.39375Q316.70312 28.39375 315.82812 29.39375Q314.96875 30.378124 314.96875 32.3625ZM324.79688 37.55L324.79688 27.175L326.375 27.175L326.375 28.753124Q326.98438 27.64375 327.5 27.3Q328.01562 26.940624 328.625 26.940624Q329.51562 26.940624 330.4375 27.503124L329.82812 29.14375Q329.1875 28.753124 328.54688 28.753124Q327.96875 28.753124 327.5 29.1125Q327.04688 29.45625 326.84375 30.065624Q326.5625 31.003124 326.5625 32.1125L326.5625 37.55L324.79688 37.55ZM331.73438 41.55L331.54688 39.89375Q332.125 40.05 332.54688 40.05Q333.14062 40.05 333.48438 39.846874Q333.84375 39.659374 334.0625 39.315624Q334.23438 39.05 334.60938 38.003124Q334.65625 37.846874 334.76562 37.565624L330.82812 27.175L332.71875 27.175L334.875 33.190624Q335.29688 34.33125 335.625 35.58125Q335.9375 34.378124 336.34375 33.221874L338.5625 27.175L340.32812 27.175L336.375 37.721874Q335.75 39.440624 335.39062 40.08125Q334.92188 40.95625 334.3125 41.346874Q333.71875 41.753124 332.875 41.753124Q332.35938 41.753124 331.73438 41.55Z" fill-rule="nonzero"/></svg>