<svg version="1.1" viewBox="0.0 0.0 600.0 371.0" fill="none" stroke="none" stroke-linecap="square" stroke-miterlimit="10" width="600" height="371" xmlns:xlink="http://www.w3.org/1999/xlink" xmlns="http://www.w3.org/2000/svg"><path fill="#ffffff" fill-opacity="0.0" d="M0 0L600.0 0L600.0 371.0L0 371.0L0 0Z" fill-rule="nonzero"/><path fill="#313d89" d="M300.0 54.916668C353.1492 54.916668 402.2611 83.27143 428.83572 129.3L332.20892 185.0875C325.56528 173.58035 313.2873 166.49167 300.0 166.49167Z" fill-rule="nonzero"/><path fill="#e5a345" d="M171.16429 129.3C197.73889 83.27143 246.85078 54.916668 300.0 54.916668L300.0 166.49167C286.7127 166.49167 274.43472 173.58035 267.79108 185.0875Z" fill-rule="nonzero"/><path fill="#b5428d" d="M171.16429 278.06668C144.58968 232.0381 144.58968 175.32857 171.16429 129.3L267.79108 185.0875C261.14743 196.59464 261.14743 210.77202 267.79108 222.27916Z" fill-rule="nonzero"/><path fill="#533990" d="M428.83572 129.3C469.9165 200.454 445.53732 291.43826 374.38333 332.51904C303.22934 373.59982 212.24507 349.22067 171.16429 278.06668L267.79108 222.27916C278.06128 240.06767 300.80734 246.16246 318.59583 235.89226C336.38434 225.62207 342.47913 202.876 332.20892 185.0875Z" fill-rule="nonzero"/><path fill="#ffffff" d="M333.66504 119.316635L332.0869 119.316635L332.0869 109.23851Q331.5088 109.785385 330.5869 110.33226Q329.66504 110.86351 328.91504 111.14476L328.91504 109.61351Q330.24316 108.98851 331.24316 108.097885Q332.24316 107.20726 332.6494 106.379135L333.66504 106.379135L333.66504 119.316635ZM345.91504 109.58226L344.35254 109.70726Q344.1338 108.785385 343.74316 108.36351Q343.10254 107.67601 342.16504 107.67601Q341.41504 107.67601 340.8369 108.097885Q340.0869 108.64476 339.6494 109.691635Q339.22754 110.73851 339.2119 112.67601Q339.79004 111.80101 340.60254 111.379135Q341.43066 110.95726 342.3369 110.95726Q343.93066 110.95726 345.04004 112.129135Q346.1494 113.285385 346.1494 115.129135Q346.1494 116.347885 345.61816 117.39476Q345.10254 118.42601 344.18066 118.98851Q343.2744 119.535385 342.11816 119.535385Q340.1338 119.535385 338.8838 118.08226Q337.6338 116.629135 337.6338 113.285385Q337.6338 109.55101 339.0244 107.847885Q340.22754 106.379135 342.2588 106.379135Q343.79004 106.379135 344.7588 107.23851Q345.72754 108.08226 345.91504 109.58226ZM339.4619 115.14476Q339.4619 115.95726 339.80566 116.70726Q340.1494 117.45726 340.7744 117.847885Q341.3994 118.23851 342.0869 118.23851Q343.0869 118.23851 343.80566 117.42601Q344.5244 116.61351 344.5244 115.222885Q344.5244 113.89476 343.80566 113.129135Q343.10254 112.347885 342.0244 112.347885Q340.9463 112.347885 340.1963 113.129135Q339.4619 113.89476 339.4619 115.14476ZM348.60254 119.316635L348.60254 117.51976L350.3994 117.51976L350.3994 119.316635L348.60254 119.316635ZM352.8213 108.11351L352.8213 106.597885L361.1494 106.597885L361.1494 107.83226Q359.93066 109.14476 358.7119 111.316635Q357.5088 113.472885 356.85254 115.76976Q356.36816 117.39476 356.24316 119.316635L354.61816 119.316635Q354.6494 117.80101 355.2119 115.64476Q355.79004 113.48851 356.85254 111.48851Q357.91504 109.48851 359.11816 108.11351L352.8213 108.11351ZM363.0088 109.51976Q363.0088 108.14476 363.6963 107.17601Q364.3994 106.20726 365.7119 106.20726Q366.93066 106.20726 367.72754 107.08226Q368.5244 107.941635 368.5244 109.629135Q368.5244 111.254135 367.7119 112.14476Q366.91504 113.01976 365.72754 113.01976Q364.5713 113.01976 363.79004 112.160385Q363.0088 111.285385 363.0088 109.51976ZM365.7588 107.30101Q365.16504 107.30101 364.7744 107.816635Q364.3838 108.316635 364.3838 109.67601Q364.3838 110.92601 364.7744 111.42601Q365.18066 111.92601 365.7588 111.92601Q366.35254 111.92601 366.74316 111.42601Q367.1338 110.910385 367.1338 109.566635Q367.1338 108.316635 366.74316 107.816635Q366.35254 107.30101 365.7588 107.30101ZM365.7744 119.785385L372.8213 106.20726L374.10254 106.20726L367.0713 119.785385L365.7744 119.785385ZM371.3369 116.285385Q371.3369 114.910385 372.0244 113.941635Q372.72754 112.972885 374.05566 112.972885Q375.2744 112.972885 376.05566 113.847885Q376.85254 114.70726 376.85254 116.39476Q376.85254 118.01976 376.05566 118.910385Q375.2588 119.785385 374.0713 119.785385Q372.8994 119.785385 372.11816 118.910385Q371.3369 118.035385 371.3369 116.285385ZM374.10254 114.066635Q373.5088 114.066635 373.11816 114.58226Q372.72754 115.08226 372.72754 116.45726Q372.72754 117.67601 373.11816 118.191635Q373.5088 118.70726 374.0869 118.70726Q374.6963 118.70726 375.0869 118.191635Q375.47754 117.67601 375.47754 116.33226Q375.47754 115.08226 375.0869 114.58226Q374.6963 114.066635 374.10254 114.066635Z" fill-rule="nonzero"/><path fill="#ffffff" d="M327.7119 297.67502L329.36816 297.5344Q329.55566 298.75314 330.22754 299.36252Q330.8994 299.9719 331.85254 299.9719Q332.99316 299.9719 333.7744 299.11252Q334.5713 298.25314 334.5713 296.81564Q334.5713 295.4719 333.80566 294.69064Q333.05566 293.9094 331.8213 293.9094Q331.05566 293.9094 330.43066 294.25314Q329.8213 294.5969 329.47754 295.1594L327.99316 294.95627L329.24316 288.3469L335.6494 288.3469L335.6494 289.8469L330.5088 289.8469L329.80566 293.31564Q330.97754 292.50314 332.24316 292.50314Q333.93066 292.50314 335.0869 293.67502Q336.2588 294.8469 336.2588 296.67502Q336.2588 298.42502 335.22754 299.70627Q333.99316 301.26877 331.85254 301.26877Q330.0869 301.26877 328.97754 300.2844Q327.86816 299.30002 327.7119 297.67502ZM337.7119 294.69064Q337.7119 292.4094 338.18066 291.01877Q338.6494 289.62814 339.5713 288.87814Q340.5088 288.11252 341.91504 288.11252Q342.9463 288.11252 343.72754 288.5344Q344.5088 288.94064 345.0088 289.73752Q345.5244 290.51877 345.8213 291.6594Q346.11816 292.7844 346.11816 294.69064Q346.11816 296.95627 345.6494 298.36252Q345.18066 299.75314 344.24316 300.51877Q343.3213 301.26877 341.91504 301.26877Q340.04004 301.26877 338.97754 299.94064Q337.7119 298.33127 337.7119 294.69064ZM339.3369 294.69064Q339.3369 297.86252 340.0713 298.92502Q340.8213 299.9719 341.91504 299.9719Q342.99316 299.9719 343.74316 298.92502Q344.49316 297.86252 344.49316 294.69064Q344.49316 291.51877 343.74316 290.4719Q342.99316 289.42502 341.8994 289.42502Q340.80566 289.42502 340.1494 290.3469Q339.3369 291.51877 339.3369 294.69064ZM348.60254 301.05002L348.60254 299.25314L350.3994 299.25314L350.3994 301.05002L348.60254 301.05002ZM352.7119 294.69064Q352.7119 292.4094 353.18066 291.01877Q353.6494 289.62814 354.5713 288.87814Q355.5088 288.11252 356.91504 288.11252Q357.9463 288.11252 358.72754 288.5344Q359.5088 288.94064 360.0088 289.73752Q360.5244 290.51877 360.8213 291.6594Q361.11816 292.7844 361.11816 294.69064Q361.11816 296.95627 360.6494 298.36252Q360.18066 299.75314 359.24316 300.51877Q358.3213 301.26877 356.91504 301.26877Q355.04004 301.26877 353.97754 299.94064Q352.7119 298.33127 352.7119 294.69064ZM354.3369 294.69064Q354.3369 297.86252 355.0713 298.92502Q355.8213 299.9719 356.91504 299.9719Q357.99316 299.9719 358.74316 298.92502Q359.49316 297.86252 359.49316 294.69064Q359.49316 291.51877 358.74316 290.4719Q357.99316 289.42502 356.8994 289.42502Q355.80566 289.42502 355.1494 290.3469Q354.3369 291.51877 354.3369 294.69064ZM363.0088 291.25314Q363.0088 289.87814 363.6963 288.9094Q364.3994 287.94064 365.7119 287.94064Q366.93066 287.94064 367.72754 288.81564Q368.5244 289.67502 368.5244 291.36252Q368.5244 292.98752 367.7119 293.87814Q366.91504 294.75314 365.72754 294.75314Q364.5713 294.75314 363.79004 293.89377Q363.0088 293.01877 363.0088 291.25314ZM365.7588 289.0344Q365.16504 289.0344 364.7744 289.55002Q364.3838 290.05002 364.3838 291.4094Q364.3838 292.6594 364.7744 293.1594Q365.18066 293.6594 365.7588 293.6594Q366.35254 293.6594 366.74316 293.1594Q367.1338 292.64377 367.1338 291.30002Q367.1338 290.05002 366.74316 289.55002Q366.35254 289.0344 365.7588 289.0344ZM365.7744 301.51877L372.8213 287.94064L374.10254 287.94064L367.0713 301.51877L365.7744 301.51877ZM371.3369 298.01877Q371.3369 296.64377 372.0244 295.67502Q372.72754 294.70627 374.05566 294.70627Q375.2744 294.70627 376.05566 295.58127Q376.85254 296.44064 376.85254 298.12814Q376.85254 299.75314 376.05566 300.64377Q375.2588 301.51877 374.0713 301.51877Q372.8994 301.51877 372.11816 300.64377Q371.3369 299.76877 371.3369 298.01877ZM374.10254 295.80002Q373.5088 295.80002 373.11816 296.31564Q372.72754 296.81564 372.72754 298.19064Q372.72754 299.4094 373.11816 299.92502Q373.5088 300.44064 374.0869 300.44064Q374.6963 300.44064 375.0869 299.92502Q375.47754 299.4094 375.47754 298.06564Q375.47754 296.81564 375.0869 296.31564Q374.6963 295.80002 374.10254 295.80002Z" fill-rule="nonzero"/><path fill="#ffffff" d="M174.99348 210.18333L173.41536 210.18333L173.41536 200.10521Q172.83723 200.65208 171.91536 201.19896Q170.99348 201.73021 170.24348 202.01146L170.24348 200.48021Q171.57161 199.85521 172.57161 198.96458Q173.57161 198.07396 173.97786 197.24583L174.99348 197.24583L174.99348 210.18333ZM187.24348 200.44896L185.68098 200.57396Q185.46223 199.65208 185.07161 199.23021Q184.43098 198.54271 183.49348 198.54271Q182.74348 198.54271 182.16536 198.96458Q181.41536 199.51146 180.97786 200.55833Q180.55598 201.60521 180.54036 203.54271Q181.11848 202.66771 181.93098 202.24583Q182.75911 201.82396 183.66536 201.82396Q185.25911 201.82396 186.36848 202.99583Q187.47786 204.15208 187.47786 205.99583Q187.47786 207.21458 186.94661 208.26146Q186.43098 209.29271 185.50911 209.85521Q184.60286 210.40208 183.44661 210.40208Q181.46223 210.40208 180.21223 208.94896Q178.96223 207.49583 178.96223 204.15208Q178.96223 200.41771 180.35286 198.71458Q181.55598 197.24583 183.58723 197.24583Q185.11848 197.24583 186.08723 198.10521Q187.05598 198.94896 187.24348 200.44896ZM180.79036 206.01146Q180.79036 206.82396 181.13411 207.57396Q181.47786 208.32396 182.10286 208.71458Q182.72786 209.10521 183.41536 209.10521Q184.41536 209.10521 185.13411 208.29271Q185.85286 207.48021 185.85286 206.08958Q185.85286 204.76146 185.13411 203.99583Q184.43098 203.21458 183.35286 203.21458Q182.27473 203.21458 181.52473 203.99583Q180.79036 204.76146 180.79036 206.01146ZM189.93098 210.18333L189.93098 208.38646L191.72786 208.38646L191.72786 210.18333L189.93098 210.18333ZM194.14973 198.98021L194.14973 197.46458L202.47786 197.46458L202.47786 198.69896Q201.25911 200.01146 200.04036 202.18333Q198.83723 204.33958 198.18098 206.63646Q197.69661 208.26146 197.57161 210.18333L195.94661 210.18333Q195.97786 208.66771 196.54036 206.51146Q197.11848 204.35521 198.18098 202.35521Q199.24348 200.35521 200.44661 198.98021L194.14973 198.98021ZM204.33723 200.38646Q204.33723 199.01146 205.02473 198.04271Q205.72786 197.07396 207.04036 197.07396Q208.25911 197.07396 209.05598 197.94896Q209.85286 198.80833 209.85286 200.49583Q209.85286 202.12083 209.04036 203.01146Q208.24348 203.88646 207.05598 203.88646Q205.89973 203.88646 205.11848 203.02708Q204.33723 202.15208 204.33723 200.38646ZM207.08723 198.16771Q206.49348 198.16771 206.10286 198.68333Q205.71223 199.18333 205.71223 200.54271Q205.71223 201.79271 206.10286 202.29271Q206.50911 202.79271 207.08723 202.79271Q207.68098 202.79271 208.07161 202.29271Q208.46223 201.77708 208.46223 200.43333Q208.46223 199.18333 208.07161 198.68333Q207.68098 198.16771 207.08723 198.16771ZM207.10286 210.65208L214.14973 197.07396L215.43098 197.07396L208.39973 210.65208L207.10286 210.65208ZM212.66536 207.15208Q212.66536 205.77708 213.35286 204.80833Q214.05598 203.83958 215.38411 203.83958Q216.60286 203.83958 217.38411 204.71458Q218.18098 205.57396 218.18098 207.26146Q218.18098 208.88646 217.38411 209.77708Q216.58723 210.65208 215.39973 210.65208Q214.22786 210.65208 213.44661 209.77708Q212.66536 208.90208 212.66536 207.15208ZM215.43098 204.93333Q214.83723 204.93333 214.44661 205.44896Q214.05598 205.94896 214.05598 207.32396Q214.05598 208.54271 214.44661 209.05833Q214.83723 209.57396 215.41536 209.57396Q216.02473 209.57396 216.41536 209.05833Q216.80598 208.54271 216.80598 207.19896Q216.80598 205.94896 216.41536 205.44896Q216.02473 204.93333 215.43098 204.93333Z" fill-rule="nonzero"/><path fill="#ffffff" d="M228.74121 119.316635L227.16309 119.316635L227.16309 109.23851Q226.58496 109.785385 225.66309 110.33226Q224.74121 110.86351 223.99121 111.14476L223.99121 109.61351Q225.31934 108.98851 226.31934 108.097885Q227.31934 107.20726 227.72559 106.379135L228.74121 106.379135L228.74121 119.316635ZM240.99121 109.58226L239.42871 109.70726Q239.20996 108.785385 238.81934 108.36351Q238.17871 107.67601 237.24121 107.67601Q236.49121 107.67601 235.91309 108.097885Q235.16309 108.64476 234.72559 109.691635Q234.30371 110.73851 234.28809 112.67601Q234.86621 111.80101 235.67871 111.379135Q236.50684 110.95726 237.41309 110.95726Q239.00684 110.95726 240.11621 112.129135Q241.22559 113.285385 241.22559 115.129135Q241.22559 116.347885 240.69434 117.39476Q240.17871 118.42601 239.25684 118.98851Q238.35059 119.535385 237.19434 119.535385Q235.20996 119.535385 233.95996 118.08226Q232.70996 116.629135 232.70996 113.285385Q232.70996 109.55101 234.10059 107.847885Q235.30371 106.379135 237.33496 106.379135Q238.86621 106.379135 239.83496 107.23851Q240.80371 108.08226 240.99121 109.58226ZM234.53809 115.14476Q234.53809 115.95726 234.88184 116.70726Q235.22559 117.45726 235.85059 117.847885Q236.47559 118.23851 237.16309 118.23851Q238.16309 118.23851 238.88184 117.42601Q239.60059 116.61351 239.60059 115.222885Q239.60059 113.89476 238.88184 113.129135Q238.17871 112.347885 237.10059 112.347885Q236.02246 112.347885 235.27246 113.129135Q234.53809 113.89476 234.53809 115.14476ZM243.67871 119.316635L243.67871 117.51976L245.47559 117.51976L245.47559 119.316635L243.67871 119.316635ZM247.89746 108.11351L247.89746 106.597885L256.2256 106.597885L256.2256 107.83226Q255.00684 109.14476 253.78809 111.316635Q252.58496 113.472885 251.92871 115.76976Q251.44434 117.39476 251.31934 119.316635L249.69434 119.316635Q249.72559 117.80101 250.28809 115.64476Q250.86621 113.48851 251.92871 111.48851Q252.99121 109.48851 254.19434 108.11351L247.89746 108.11351ZM258.08496 109.51976Q258.08496 108.14476 258.77246 107.17601Q259.4756 106.20726 260.7881 106.20726Q262.00684 106.20726 262.8037 107.08226Q263.6006 107.941635 263.6006 109.629135Q263.6006 111.254135 262.7881 112.14476Q261.9912 113.01976 260.8037 113.01976Q259.64746 113.01976 258.8662 112.160385Q258.08496 111.285385 258.08496 109.51976ZM260.83496 107.30101Q260.2412 107.30101 259.8506 107.816635Q259.45996 108.316635 259.45996 109.67601Q259.45996 110.92601 259.8506 111.42601Q260.25684 111.92601 260.83496 111.92601Q261.4287 111.92601 261.81934 111.42601Q262.20996 110.910385 262.20996 109.566635Q262.20996 108.316635 261.81934 107.816635Q261.4287 107.30101 260.83496 107.30101ZM260.8506 119.785385L267.89746 106.20726L269.1787 106.20726L262.14746 119.785385L260.8506 119.785385ZM266.4131 116.285385Q266.4131 114.910385 267.1006 113.941635Q267.8037 112.972885 269.13184 112.972885Q270.3506 112.972885 271.13184 113.847885Q271.9287 114.70726 271.9287 116.39476Q271.9287 118.01976 271.13184 118.910385Q270.33496 119.785385 269.14746 119.785385Q267.9756 119.785385 267.19434 118.910385Q266.4131 118.035385 266.4131 116.285385ZM269.1787 114.066635Q268.58496 114.066635 268.19434 114.58226Q267.8037 115.08226 267.8037 116.45726Q267.8037 117.67601 268.19434 118.191635Q268.58496 118.70726 269.1631 118.70726Q269.77246 118.70726 270.1631 118.191635Q270.5537 117.67601 270.5537 116.33226Q270.5537 115.08226 270.1631 114.58226Q269.77246 114.066635 269.1787 114.066635Z" fill-rule="nonzero"/><path stroke="#ffffff" stroke-width="1.0" stroke-linejoin="round" stroke-linecap="round" d="M332.20892 185.0875C325.56528 173.58035 313.2873 166.49167 300.0 166.49167L300.0 54.916668C353.1492 54.916668 402.2611 83.27143 428.83572 129.3" fill-rule="nonzero"/><path stroke="#ffffff" stroke-width="1.0" stroke-linejoin="round" stroke-linecap="round" d="M267.79108 222.27916C278.06128 240.06767 300.80734 246.16246 318.59583 235.89226C336.38434 225.62207 342.47913 202.876 332.20892 185.0875L428.83572 129.3C469.9165 200.454 445.53732 291.43826 374.38333 332.51904C303.22934 373.59982 212.24507 349.22067 171.16429 278.06668" fill-rule="nonzero"/><path stroke="#ffffff" stroke-width="1.0" stroke-linejoin="round" stroke-linecap="round" d="M267.79108 185.0875C261.14743 196.59464 261.14743 210.77202 267.79108 222.27916L171.16429 278.06668C144.58968 232.0381 144.58968 175.32857 171.16429 129.3" fill-rule="nonzero"/><path stroke="#ffffff" stroke-width="1.0" stroke-linejoin="round" stroke-linecap="round" d="M300.0 166.49167C286.7127 166.49167 274.43472 173.58035 267.79108 185.0875L171.16429 129.3C197.73889 83.27143 246.85078 54.916668 300.0 54.916668" fill-rule="nonzero"/><path fill="#efefef" d="M27.3 64.33628L28.815624 64.33628L28.815624 70.945656Q28.815624 72.68003 28.425 73.695656Q28.034374 74.71128 27.01875 75.351906Q26.003124 75.99253 24.346874 75.99253Q22.7375 75.99253 21.70625 75.43003Q20.690624 74.86753 20.253124 73.820656Q19.815624 72.77378 19.815624 70.945656L19.815624 64.33628L21.33125 64.33628L21.33125 70.945656Q21.33125 72.43003 21.596874 73.14878Q21.878124 73.851906 22.55 74.24253Q23.2375 74.61753 24.20625 74.61753Q25.878124 74.61753 26.58125 73.86753Q27.3 73.101906 27.3 70.945656L27.3 64.33628ZM31.596874 75.789406L31.596874 67.49253L32.8625 67.49253L32.8625 68.74253Q33.346874 67.86753 33.753124 67.58628Q34.159374 67.30503 34.659374 67.30503Q35.3625 67.30503 36.096874 67.758156L35.6125 69.05503Q35.096874 68.758156 34.58125 68.758156Q34.128124 68.758156 33.753124 69.039406Q33.39375 69.30503 33.2375 69.80503Q33.003124 70.55503 33.003124 71.445656L33.003124 75.789406L31.596874 75.789406ZM37.909374 75.789406L36.596874 75.789406L36.596874 64.33628L38.003124 64.33628L38.003124 68.414406Q38.89375 67.30503 40.284374 67.30503Q41.05 67.30503 41.721874 67.61753Q42.409374 67.914406 42.846874 68.476906Q43.3 69.039406 43.55 69.83628Q43.8 70.61753 43.8 71.508156Q43.8 73.64878 42.7375 74.820656Q41.690624 75.976906 40.20625 75.976906Q38.7375 75.976906 37.909374 74.74253L37.909374 75.789406ZM37.89375 71.570656Q37.89375 73.070656 38.3 73.726906Q38.95625 74.820656 40.096874 74.820656Q41.01875 74.820656 41.690624 74.02378Q42.3625 73.21128 42.3625 71.633156Q42.3625 70.008156 41.70625 69.24253Q41.065624 68.46128 40.159374 68.46128Q39.2375 68.46128 38.565624 69.258156Q37.89375 70.05503 37.89375 71.570656ZM51.01875 74.758156Q50.2375 75.43003 49.51875 75.71128Q48.8 75.976906 47.971874 75.976906Q46.596874 75.976906 45.8625 75.30503Q45.128124 74.633156 45.128124 73.601906Q45.128124 72.99253 45.409374 72.49253Q45.690624 71.976906 46.128124 71.68003Q46.58125 71.36753 47.14375 71.21128Q47.565624 71.101906 48.39375 71.008156Q50.096874 70.80503 50.909374 70.52378Q50.909374 70.226906 50.909374 70.14878Q50.909374 69.289406 50.51875 68.945656Q49.971874 68.46128 48.909374 68.46128Q47.925 68.46128 47.440624 68.820656Q46.971874 69.164406 46.753124 70.039406L45.378124 69.851906Q45.565624 68.976906 45.9875 68.43003Q46.425 67.883156 47.2375 67.601906Q48.05 67.30503 49.1125 67.30503Q50.175 67.30503 50.83125 67.55503Q51.503124 67.80503 51.815624 68.18003Q52.128124 68.55503 52.253124 69.133156Q52.33125 69.49253 52.33125 70.43003L52.33125 72.30503Q52.33125 74.27378 52.409374 74.789406Q52.503124 75.30503 52.76875 75.789406L51.3 75.789406Q51.08125 75.351906 51.01875 74.758156ZM50.909374 71.61753Q50.14375 71.93003 48.6125 72.14878Q47.7375 72.27378 47.378124 72.43003Q47.01875 72.58628 46.815624 72.89878Q46.628124 73.195656 46.628124 73.55503Q46.628124 74.11753 47.05 74.49253Q47.4875 74.86753 48.3 74.86753Q49.1125 74.86753 49.7375 74.52378Q50.378124 74.164406 50.675 73.539406Q50.909374 73.070656 50.909374 72.133156L50.909374 71.61753ZM54.6125 75.789406L54.6125 67.49253L55.878124 67.49253L55.878124 68.664406Q56.784374 67.30503 58.51875 67.30503Q59.26875 67.30503 59.89375 67.570656Q60.51875 67.83628 60.83125 68.27378Q61.14375 68.71128 61.26875 69.320656Q61.346874 69.71128 61.346874 70.68003L61.346874 75.789406L59.940624 75.789406L59.940624 70.74253Q59.940624 69.883156 59.76875 69.46128Q59.6125 69.02378 59.190624 68.77378Q58.784374 68.52378 58.221874 68.52378Q57.315624 68.52378 56.659374 69.101906Q56.01875 69.664406 56.01875 71.258156L56.01875 75.789406L54.6125 75.789406ZM63.05 73.30503L64.44063 73.08628Q64.55 73.93003 65.08125 74.383156Q65.62813 74.820656 66.58125 74.820656Q67.55 74.820656 68.01875 74.43003Q68.4875 74.02378 68.4875 73.49253Q68.4875 73.02378 68.08125 72.74253Q67.78438 72.55503 66.64375 72.27378Q65.09688 71.883156 64.4875 71.601906Q63.89375 71.30503 63.58125 70.80503Q63.284374 70.30503 63.284374 69.695656Q63.284374 69.133156 63.534374 68.664406Q63.784374 68.195656 64.22188 67.883156Q64.55 67.633156 65.1125 67.476906Q65.69063 67.30503 66.33125 67.30503Q67.31563 67.30503 68.05 67.58628Q68.78438 67.86753 69.12813 68.351906Q69.4875 68.820656 69.62813 69.633156L68.25313 69.820656Q68.15938 69.18003 67.70625 68.820656Q67.25313 68.46128 66.44063 68.46128Q65.47188 68.46128 65.05 68.789406Q64.64375 69.101906 64.64375 69.52378Q64.64375 69.80503 64.81563 70.02378Q64.9875 70.24253 65.34688 70.39878Q65.56563 70.476906 66.59688 70.758156Q68.08125 71.14878 68.675 71.414406Q69.26875 71.664406 69.59688 72.14878Q69.94063 72.633156 69.94063 73.351906Q69.94063 74.05503 69.51875 74.68003Q69.1125 75.289406 68.33125 75.633156Q67.56563 75.976906 66.59688 75.976906Q64.97188 75.976906 64.12813 75.30503Q63.284374 74.633156 63.05 73.30503ZM77.01875 72.74253L78.40938 72.93003Q78.175 74.351906 77.2375 75.164406Q76.31563 75.976906 74.95625 75.976906Q73.25313 75.976906 72.20625 74.86753Q71.175 73.74253 71.175 71.664406Q71.175 70.320656 71.6125 69.320656Q72.06563 68.30503 72.97188 67.80503Q73.89375 67.30503 74.95625 67.30503Q76.31563 67.30503 77.175 67.99253Q78.03438 68.664406 78.26875 69.93003L76.90938 70.133156Q76.70625 69.30503 76.20625 68.883156Q75.72188 68.46128 75.01875 68.46128Q73.95625 68.46128 73.28438 69.226906Q72.62813 69.976906 72.62813 71.633156Q72.62813 73.30503 73.26875 74.070656Q73.90938 74.820656 74.94063 74.820656Q75.76875 74.820656 76.31563 74.320656Q76.87813 73.80503 77.01875 72.74253ZM85.01875 74.758156Q84.2375 75.43003 83.51875 75.71128Q82.8 75.976906 81.97188 75.976906Q80.59688 75.976906 79.8625 75.30503Q79.12813 74.633156 79.12813 73.601906Q79.12813 72.99253 79.40938 72.49253Q79.69063 71.976906 80.12813 71.68003Q80.58125 71.36753 81.14375 71.21128Q81.56563 71.101906 82.39375 71.008156Q84.09688 70.80503 84.90938 70.52378Q84.90938 70.226906 84.90938 70.14878Q84.90938 69.289406 84.51875 68.945656Q83.97188 68.46128 82.90938 68.46128Q81.925 68.46128 81.44063 68.820656Q80.97188 69.164406 80.75313 70.039406L79.37813 69.851906Q79.56563 68.976906 79.9875 68.43003Q80.425 67.883156 81.2375 67.601906Q82.05 67.30503 83.1125 67.30503Q84.175 67.30503 84.83125 67.55503Q85.50313 67.80503 85.81563 68.18003Q86.12813 68.55503 86.25313 69.133156Q86.33125 69.49253 86.33125 70.43003L86.33125 72.30503Q86.33125 74.27378 86.40938 74.789406Q86.50313 75.30503 86.76875 75.789406L85.3 75.789406Q85.08125 75.351906 85.01875 74.758156ZM84.90938 71.61753Q84.14375 71.93003 82.6125 72.14878Q81.7375 72.27378 81.37813 72.43003Q81.01875 72.58628 80.81563 72.89878Q80.62813 73.195656 80.62813 73.55503Q80.62813 74.11753 81.05 74.49253Q81.4875 74.86753 82.3 74.86753Q83.1125 74.86753 83.7375 74.52378Q84.37813 74.164406 84.675 73.539406Q84.90938 73.070656 84.90938 72.133156L84.90938 71.61753ZM88.6125 78.976906L88.6125 67.49253L89.89375 67.49253L89.89375 68.570656Q90.34688 67.93003 90.90938 67.61753Q91.4875 67.30503 92.3 67.30503Q93.3625 67.30503 94.175 67.851906Q94.9875 68.39878 95.39375 69.39878Q95.81563 70.383156 95.81563 71.570656Q95.81563 72.851906 95.34688 73.86753Q94.89375 74.883156 94.01875 75.43003Q93.15938 75.976906 92.19063 75.976906Q91.4875 75.976906 90.925 75.68003Q90.37813 75.383156 90.01875 74.93003L90.01875 78.976906L88.6125 78.976906ZM89.87813 71.68003Q89.87813 73.289406 90.51875 74.05503Q91.175 74.820656 92.09688 74.820656Q93.03438 74.820656 93.70625 74.02378Q94.37813 73.226906 94.37813 71.570656Q94.37813 69.976906 93.72188 69.195656Q93.06563 68.39878 92.15938 68.39878Q91.26875 68.39878 90.56563 69.24253Q89.87813 70.08628 89.87813 71.68003ZM103.28438 73.11753L104.7375 73.289406Q104.39375 74.570656 103.45625 75.27378Q102.53438 75.976906 101.09688 75.976906Q99.26875 75.976906 98.20625 74.851906Q97.14375 73.726906 97.14375 71.71128Q97.14375 69.61753 98.22188 68.46128Q99.3 67.30503 101.01875 67.30503Q102.675 67.30503 103.72188 68.445656Q104.78438 69.570656 104.78438 71.61753Q104.78438 71.74253 104.78438 71.99253L98.59688 71.99253Q98.675 73.36753 99.3625 74.101906Q100.06563 74.820656 101.09688 74.820656Q101.87813 74.820656 102.425 74.414406Q102.97188 74.008156 103.28438 73.11753ZM98.675 70.83628L103.3 70.83628Q103.20625 69.789406 102.76875 69.27378Q102.09688 68.46128 101.03438 68.46128Q100.06563 68.46128 99.39375 69.11753Q98.7375 69.758156 98.675 70.83628Z" fill-rule="nonzero"/><path fill="#9e9e9e" d="M24.51875 97.789406L23.1125 97.789406L23.1125 88.820656Q22.596874 89.30503 21.76875 89.789406Q20.95625 90.27378 20.3 90.52378L20.3 89.164406Q21.471874 88.601906 22.346874 87.820656Q23.2375 87.02378 23.6125 86.289406L24.51875 86.289406L24.51875 97.789406ZM35.51875 89.133156L34.1125 89.24253Q33.925 88.414406 33.58125 88.039406Q33.01875 87.445656 32.175 87.445656Q31.503124 87.445656 31.003124 87.820656Q30.33125 88.30503 29.940624 89.24253Q29.565624 90.164406 29.55 91.883156Q30.065624 91.101906 30.8 90.726906Q31.534374 90.351906 32.33125 90.351906Q33.7375 90.351906 34.721874 91.39878Q35.721874 92.43003 35.721874 94.070656Q35.721874 95.14878 35.253124 96.070656Q34.784374 96.99253 33.971874 97.49253Q33.159374 97.99253 32.128124 97.99253Q30.378124 97.99253 29.26875 96.695656Q28.159374 95.39878 28.159374 92.43003Q28.159374 89.101906 29.378124 87.601906Q30.45625 86.289406 32.26875 86.289406Q33.6125 86.289406 34.471874 87.05503Q35.346874 87.80503 35.51875 89.133156ZM29.76875 94.070656Q29.76875 94.80503 30.08125 95.476906Q30.39375 96.133156 30.940624 96.476906Q31.503124 96.820656 32.1125 96.820656Q33.003124 96.820656 33.64375 96.101906Q34.284374 95.383156 34.284374 94.14878Q34.284374 92.96128 33.64375 92.289406Q33.01875 91.601906 32.05 91.601906Q31.096874 91.601906 30.425 92.289406Q29.76875 92.96128 29.76875 94.070656ZM38.003124 97.789406L38.003124 96.18003L39.6125 96.18003L39.6125 97.789406L38.003124 97.789406ZM41.315624 87.83628L41.315624 86.476906L48.721874 86.476906L48.721874 87.570656Q47.628124 88.74253 46.55 90.68003Q45.4875 92.601906 44.89375 94.633156Q44.471874 96.070656 44.3625 97.789406L42.909374 97.789406Q42.940624 96.43003 43.440624 94.52378Q43.95625 92.601906 44.89375 90.83628Q45.846874 89.05503 46.925 87.83628L41.315624 87.83628ZM50.4875 89.08628Q50.4875 87.851906 51.096874 86.99253Q51.721874 86.133156 52.89375 86.133156Q53.971874 86.133156 54.675 86.914406Q55.378124 87.68003 55.378124 89.164406Q55.378124 90.61753 54.659374 91.414406Q53.95625 92.195656 52.909374 92.195656Q51.8625 92.195656 51.175 91.43003Q50.4875 90.64878 50.4875 89.08628ZM52.925 87.101906Q52.409374 87.101906 52.05 87.55503Q51.70625 88.008156 51.70625 89.226906Q51.70625 90.320656 52.05 90.77378Q52.409374 91.226906 52.925 91.226906Q53.45625 91.226906 53.8 90.77378Q54.159374 90.320656 54.159374 89.11753Q54.159374 88.008156 53.8 87.55503Q53.45625 87.101906 52.925 87.101906ZM52.940624 98.21128L59.20625 86.133156L60.346874 86.133156L54.096874 98.21128L52.940624 98.21128ZM57.89375 95.101906Q57.89375 93.86753 58.503124 93.008156Q59.128124 92.14878 60.3 92.14878Q61.378124 92.14878 62.08125 92.93003Q62.8 93.695656 62.8 95.18003Q62.8 96.633156 62.08125 97.43003Q61.3625 98.21128 60.315624 98.21128Q59.26875 98.21128 58.58125 97.43003Q57.89375 96.64878 57.89375 95.101906ZM60.346874 93.11753Q59.815624 93.11753 59.45625 93.570656Q59.1125 94.02378 59.1125 95.24253Q59.1125 96.33628 59.45625 96.789406Q59.815624 97.24253 60.33125 97.24253Q60.878124 97.24253 61.221874 96.789406Q61.565624 96.33628 61.565624 95.133156Q61.565624 94.02378 61.20625 93.570656Q60.8625 93.11753 60.346874 93.11753Z" fill-rule="nonzero"/><path stroke="#757575" stroke-width="1.0" stroke-linecap="butt" d="M18.55 81.289406L145.23334 81.289406L229.33583 81.289406" fill-rule="nonzero"/><path fill="#9e9e9e" d="M231.33583 81.289406C231.33583 80.18484 230.4404 79.289406 229.33583 79.289406C228.23126 79.289406 227.33583 80.18484 227.33583 81.289406C227.33583 82.393974 228.23126 83.289406 229.33583 83.289406C230.4404 83.289406 231.33583 82.393974 231.33583 81.289406" fill-rule="nonzero"/><path fill="#efefef" d="M19.784374 198.18333L19.784374 186.73021L23.7375 186.73021Q25.065624 186.73021 25.76875 186.88646Q26.753124 187.12083 27.45625 187.71458Q28.3625 188.48021 28.8 189.66771Q29.253124 190.85521 29.253124 192.38646Q29.253124 193.69896 28.940624 194.71458Q28.64375 195.71458 28.159374 196.37083Q27.690624 197.02708 27.128124 197.41771Q26.565624 197.79271 25.753124 197.99583Q24.95625 198.18333 23.925 198.18333L19.784374 198.18333ZM21.3 196.82396L23.753124 196.82396Q24.878124 196.82396 25.51875 196.62083Q26.175 196.40208 26.55 196.02708Q27.096874 195.48021 27.39375 194.57396Q27.690624 193.66771 27.690624 192.37083Q27.690624 190.57396 27.096874 189.60521Q26.51875 188.63646 25.675 188.30833Q25.065624 188.07396 23.70625 188.07396L21.3 188.07396L21.3 196.82396ZM37.284374 195.51146L38.7375 195.68333Q38.39375 196.96458 37.45625 197.66771Q36.534374 198.37083 35.096874 198.37083Q33.26875 198.37083 32.20625 197.24583Q31.14375 196.12083 31.14375 194.10521Q31.14375 192.01146 32.221874 190.85521Q33.3 189.69896 35.01875 189.69896Q36.675 189.69896 37.721874 190.83958Q38.784374 191.96458 38.784374 194.01146Q38.784374 194.13646 38.784374 194.38646L32.596874 194.38646Q32.675 195.76146 33.3625 196.49583Q34.065624 197.21458 35.096874 197.21458Q35.878124 197.21458 36.425 196.80833Q36.971874 196.40208 37.284374 195.51146ZM32.675 193.23021L37.3 193.23021Q37.20625 192.18333 36.76875 191.66771Q36.096874 190.85521 35.034374 190.85521Q34.065624 190.85521 33.39375 191.51146Q32.7375 192.15208 32.675 193.23021ZM43.675 196.91771L43.878124 198.16771Q43.284374 198.29271 42.815624 198.29271Q42.05 198.29271 41.628124 198.05833Q41.20625 197.80833 41.034374 197.41771Q40.8625 197.01146 40.8625 195.74583L40.8625 190.98021L39.83125 190.98021L39.83125 189.88646L40.8625 189.88646L40.8625 187.82396L42.26875 186.98021L42.26875 189.88646L43.675 189.88646L43.675 190.98021L42.26875 190.98021L42.26875 195.82396Q42.26875 196.43333 42.33125 196.60521Q42.409374 196.77708 42.58125 196.88646Q42.753124 196.98021 43.065624 196.98021Q43.3 196.98021 43.675 196.91771ZM50.01875 197.15208Q49.2375 197.82396 48.51875 198.10521Q47.8 198.37083 46.971874 198.37083Q45.596874 198.37083 44.8625 197.69896Q44.128124 197.02708 44.128124 195.99583Q44.128124 195.38646 44.409374 194.88646Q44.690624 194.37083 45.128124 194.07396Q45.58125 193.76146 46.14375 193.60521Q46.565624 193.49583 47.39375 193.40208Q49.096874 193.19896 49.909374 192.91771Q49.909374 192.62083 49.909374 192.54271Q49.909374 191.68333 49.51875 191.33958Q48.971874 190.85521 47.909374 190.85521Q46.925 190.85521 46.440624 191.21458Q45.971874 191.55833 45.753124 192.43333L44.378124 192.24583Q44.565624 191.37083 44.9875 190.82396Q45.425 190.27708 46.2375 189.99583Q47.05 189.69896 48.1125 189.69896Q49.175 189.69896 49.83125 189.94896Q50.503124 190.19896 50.815624 190.57396Q51.128124 190.94896 51.253124 191.52708Q51.33125 191.88646 51.33125 192.82396L51.33125 194.69896Q51.33125 196.66771 51.409374 197.18333Q51.503124 197.69896 51.76875 198.18333L50.3 198.18333Q50.08125 197.74583 50.01875 197.15208ZM49.909374 194.01146Q49.14375 194.32396 47.6125 194.54271Q46.7375 194.66771 46.378124 194.82396Q46.01875 194.98021 45.815624 195.29271Q45.628124 195.58958 45.628124 195.94896Q45.628124 196.51146 46.05 196.88646Q46.4875 197.26146 47.3 197.26146Q48.1125 197.26146 48.7375 196.91771Q49.378124 196.55833 49.675 195.93333Q49.909374 195.46458 49.909374 194.52708L49.909374 194.01146ZM53.6125 188.33958L53.6125 186.73021L55.01875 186.73021L55.01875 188.33958L53.6125 188.33958ZM53.6125 198.18333L53.6125 189.88646L55.01875 189.88646L55.01875 198.18333L53.6125 198.18333ZM57.58125 198.18333L57.58125 186.73021L58.9875 186.73021L58.9875 198.18333L57.58125 198.18333ZM61.05 195.69896L62.440624 195.48021Q62.55 196.32396 63.08125 196.77708Q63.628124 197.21458 64.58125 197.21458Q65.55 197.21458 66.01875 196.82396Q66.4875 196.41771 66.4875 195.88646Q66.4875 195.41771 66.08125 195.13646Q65.78438 194.94896 64.64375 194.66771Q63.096874 194.27708 62.4875 193.99583Q61.89375 193.69896 61.58125 193.19896Q61.284374 192.69896 61.284374 192.08958Q61.284374 191.52708 61.534374 191.05833Q61.784374 190.58958 62.221874 190.27708Q62.55 190.02708 63.1125 189.87083Q63.690624 189.69896 64.33125 189.69896Q65.31563 189.69896 66.05 189.98021Q66.78438 190.26146 67.12813 190.74583Q67.4875 191.21458 67.62813 192.02708L66.25313 192.21458Q66.15938 191.57396 65.70625 191.21458Q65.25313 190.85521 64.44063 190.85521Q63.471874 190.85521 63.05 191.18333Q62.64375 191.49583 62.64375 191.91771Q62.64375 192.19896 62.815624 192.41771Q62.9875 192.63646 63.346874 192.79271Q63.565624 192.87083 64.59688 193.15208Q66.08125 193.54271 66.675 193.80833Q67.26875 194.05833 67.59688 194.54271Q67.94063 195.02708 67.94063 195.74583Q67.94063 196.44896 67.51875 197.07396Q67.1125 197.68333 66.33125 198.02708Q65.56563 198.37083 64.59688 198.37083Q62.971874 198.37083 62.128124 197.69896Q61.284374 197.02708 61.05 195.69896Z" fill-rule="nonzero"/><path fill="#9e9e9e" d="M24.51875 220.18333L23.1125 220.18333L23.1125 211.21458Q22.596874 211.69896 21.76875 212.18333Q20.95625 212.66771 20.3 212.91771L20.3 211.55833Q21.471874 210.99583 22.346874 210.21458Q23.2375 209.41771 23.6125 208.68333L24.51875 208.68333L24.51875 220.18333ZM35.51875 211.52708L34.1125 211.63646Q33.925 210.80833 33.58125 210.43333Q33.01875 209.83958 32.175 209.83958Q31.503124 209.83958 31.003124 210.21458Q30.33125 210.69896 29.940624 211.63646Q29.565624 212.55833 29.55 214.27708Q30.065624 213.49583 30.8 213.12083Q31.534374 212.74583 32.33125 212.74583Q33.7375 212.74583 34.721874 213.79271Q35.721874 214.82396 35.721874 216.46458Q35.721874 217.54271 35.253124 218.46458Q34.784374 219.38646 33.971874 219.88646Q33.159374 220.38646 32.128124 220.38646Q30.378124 220.38646 29.26875 219.08958Q28.159374 217.79271 28.159374 214.82396Q28.159374 211.49583 29.378124 209.99583Q30.45625 208.68333 32.26875 208.68333Q33.6125 208.68333 34.471874 209.44896Q35.346874 210.19896 35.51875 211.52708ZM29.76875 216.46458Q29.76875 217.19896 30.08125 217.87083Q30.39375 218.52708 30.940624 218.87083Q31.503124 219.21458 32.1125 219.21458Q33.003124 219.21458 33.64375 218.49583Q34.284374 217.77708 34.284374 216.54271Q34.284374 215.35521 33.64375 214.68333Q33.01875 213.99583 32.05 213.99583Q31.096874 213.99583 30.425 214.68333Q29.76875 215.35521 29.76875 216.46458ZM38.003124 220.18333L38.003124 218.57396L39.6125 218.57396L39.6125 220.18333L38.003124 220.18333ZM41.315624 210.23021L41.315624 208.87083L48.721874 208.87083L48.721874 209.96458Q47.628124 211.13646 46.55 213.07396Q45.4875 214.99583 44.89375 217.02708Q44.471874 218.46458 44.3625 220.18333L42.909374 220.18333Q42.940624 218.82396 43.440624 216.91771Q43.95625 214.99583 44.89375 213.23021Q45.846874 211.44896 46.925 210.23021L41.315624 210.23021ZM50.4875 211.48021Q50.4875 210.24583 51.096874 209.38646Q51.721874 208.52708 52.89375 208.52708Q53.971874 208.52708 54.675 209.30833Q55.378124 210.07396 55.378124 211.55833Q55.378124 213.01146 54.659374 213.80833Q53.95625 214.58958 52.909374 214.58958Q51.8625 214.58958 51.175 213.82396Q50.4875 213.04271 50.4875 211.48021ZM52.925 209.49583Q52.409374 209.49583 52.05 209.94896Q51.70625 210.40208 51.70625 211.62083Q51.70625 212.71458 52.05 213.16771Q52.409374 213.62083 52.925 213.62083Q53.45625 213.62083 53.8 213.16771Q54.159374 212.71458 54.159374 211.51146Q54.159374 210.40208 53.8 209.94896Q53.45625 209.49583 52.925 209.49583ZM52.940624 220.60521L59.20625 208.52708L60.346874 208.52708L54.096874 220.60521L52.940624 220.60521ZM57.89375 217.49583Q57.89375 216.26146 58.503124 215.40208Q59.128124 214.54271 60.3 214.54271Q61.378124 214.54271 62.08125 215.32396Q62.8 216.08958 62.8 217.57396Q62.8 219.02708 62.08125 219.82396Q61.3625 220.60521 60.315624 220.60521Q59.26875 220.60521 58.58125 219.82396Q57.89375 219.04271 57.89375 217.49583ZM60.346874 215.51146Q59.815624 215.51146 59.45625 215.96458Q59.1125 216.41771 59.1125 217.63646Q59.1125 218.73021 59.45625 219.18333Q59.815624 219.63646 60.33125 219.63646Q60.878124 219.63646 61.221874 219.18333Q61.565624 218.73021 61.565624 217.52708Q61.565624 216.41771 61.20625 215.96458Q60.8625 215.51146 60.346874 215.51146Z" fill-rule="nonzero"/><path stroke="#757575" stroke-width="1.0" stroke-linecap="butt" d="M18.55 203.68333L145.23334 203.68333L158.67166 203.68333" fill-rule="nonzero"/><path fill="#9e9e9e" d="M160.67166 203.68333C160.67166 202.57877 159.77623 201.68333 158.67166 201.68333C157.5671 201.68333 156.67166 202.57877 156.67166 203.68333C156.67166 204.7879 157.5671 205.68333 158.67166 205.68333C159.77623 205.68333 160.67166 204.7879 160.67166 203.68333" fill-rule="nonzero"/><path fill="#efefef" d="M490.23126 70.21128Q490.23126 67.351906 491.7625 65.74253Q493.29376 64.133156 495.71564 64.133156Q497.29376 64.133156 498.5594 64.89878Q499.84064 65.64878 500.5125 67.008156Q501.1844 68.351906 501.1844 70.070656Q501.1844 71.820656 500.48126 73.195656Q499.77814 74.570656 498.48126 75.289406Q497.2 75.99253 495.7 75.99253Q494.09064 75.99253 492.8094 75.21128Q491.54376 74.414406 490.8875 73.070656Q490.23126 71.71128 490.23126 70.21128ZM491.79376 70.226906Q491.79376 72.30503 492.90314 73.49253Q494.0125 74.68003 495.7 74.68003Q497.40314 74.68003 498.5125 73.476906Q499.6219 72.27378 499.6219 70.070656Q499.6219 68.664406 499.1375 67.633156Q498.66876 66.58628 497.7625 66.008156Q496.85626 65.43003 495.71564 65.43003Q494.10626 65.43003 492.95 66.539406Q491.79376 67.64878 491.79376 70.226906ZM502.4969 75.789406L502.4969 67.49253L503.7625 67.49253L503.7625 68.74253Q504.2469 67.86753 504.65314 67.58628Q505.0594 67.30503 505.5594 67.30503Q506.2625 67.30503 506.9969 67.758156L506.5125 69.05503Q505.9969 68.758156 505.48126 68.758156Q505.02814 68.758156 504.65314 69.039406Q504.29376 69.30503 504.1375 69.80503Q503.90314 70.55503 503.90314 71.445656L503.90314 75.789406L502.4969 75.789406ZM510.575 74.52378L510.77814 75.77378Q510.1844 75.89878 509.71564 75.89878Q508.95 75.89878 508.52814 75.664406Q508.10626 75.414406 507.9344 75.02378Q507.7625 74.61753 507.7625 73.351906L507.7625 68.58628L506.73126 68.58628L506.73126 67.49253L507.7625 67.49253L507.7625 65.43003L509.16876 64.58628L509.16876 67.49253L510.575 67.49253L510.575 68.58628L509.16876 68.58628L509.16876 73.43003Q509.16876 74.039406 509.23126 74.21128Q509.3094 74.383156 509.48126 74.49253Q509.65314 74.58628 509.96564 74.58628Q510.2 74.58628 510.575 74.52378ZM511.5125 75.789406L511.5125 64.33628L512.91876 64.33628L512.91876 68.445656Q513.90314 67.30503 515.40314 67.30503Q516.325 67.30503 516.9969 67.664406Q517.6844 68.02378 517.96564 68.664406Q518.2625 69.30503 518.2625 70.52378L518.2625 75.789406L516.85626 75.789406L516.85626 70.52378Q516.85626 69.476906 516.40314 68.99253Q515.95 68.508156 515.10626 68.508156Q514.48126 68.508156 513.9344 68.83628Q513.3875 69.164406 513.15314 69.726906Q512.91876 70.27378 512.91876 71.24253L512.91876 75.789406L511.5125 75.789406ZM519.98126 71.633156Q519.98126 69.33628 521.2625 68.226906Q522.34064 67.30503 523.8719 67.30503Q525.59064 67.30503 526.66876 68.43003Q527.7625 69.539406 527.7625 71.52378Q527.7625 73.11753 527.27814 74.039406Q526.79376 74.96128 525.8719 75.476906Q524.96564 75.976906 523.8719 75.976906Q522.1375 75.976906 521.0594 74.86753Q519.98126 73.74253 519.98126 71.633156ZM521.4344 71.633156Q521.4344 73.226906 522.1219 74.02378Q522.825 74.820656 523.8719 74.820656Q524.91876 74.820656 525.60626 74.02378Q526.3094 73.226906 526.3094 71.58628Q526.3094 70.05503 525.60626 69.258156Q524.91876 68.46128 523.8719 68.46128Q522.825 68.46128 522.1219 69.258156Q521.4344 70.039406 521.4344 71.633156ZM529.2469 76.476906L530.6219 76.68003Q530.7 77.320656 531.09064 77.601906Q531.6219 77.99253 532.52814 77.99253Q533.4969 77.99253 534.02814 77.601906Q534.5594 77.21128 534.7469 76.508156Q534.85626 76.08628 534.85626 74.695656Q533.9344 75.789406 532.5594 75.789406Q530.84064 75.789406 529.90314 74.55503Q528.96564 73.320656 528.96564 71.58628Q528.96564 70.39878 529.3875 69.39878Q529.825 68.39878 530.6375 67.851906Q531.46564 67.30503 532.5594 67.30503Q534.02814 67.30503 534.98126 68.49253L534.98126 67.49253L536.27814 67.49253L536.27814 74.664406Q536.27814 76.601906 535.8875 77.414406Q535.4969 78.226906 534.6375 78.695656Q533.77814 79.164406 532.52814 79.164406Q531.04376 79.164406 530.1219 78.49253Q529.21564 77.820656 529.2469 76.476906ZM530.41876 71.49253Q530.41876 73.11753 531.0594 73.86753Q531.71564 74.61753 532.6844 74.61753Q533.65314 74.61753 534.3094 73.883156Q534.96564 73.133156 534.96564 71.539406Q534.96564 70.008156 534.29376 69.24253Q533.6219 68.46128 532.66876 68.46128Q531.73126 68.46128 531.075 69.226906Q530.41876 69.99253 530.41876 71.49253ZM538.4969 75.789406L538.4969 67.49253L539.7625 67.49253L539.7625 68.74253Q540.2469 67.86753 540.65314 67.58628Q541.0594 67.30503 541.5594 67.30503Q542.2625 67.30503 542.9969 67.758156L542.5125 69.05503Q541.9969 68.758156 541.48126 68.758156Q541.02814 68.758156 540.65314 69.039406Q540.29376 69.30503 540.1375 69.80503Q539.90314 70.55503 539.90314 71.445656L539.90314 75.789406L538.4969 75.789406ZM548.91876 74.758156Q548.1375 75.43003 547.41876 75.71128Q546.7 75.976906 545.8719 75.976906Q544.4969 75.976906 543.7625 75.30503Q543.02814 74.633156 543.02814 73.601906Q543.02814 72.99253 543.3094 72.49253Q543.59064 71.976906 544.02814 71.68003Q544.48126 71.36753 545.04376 71.21128Q545.46564 71.101906 546.29376 71.008156Q547.9969 70.80503 548.8094 70.52378Q548.8094 70.226906 548.8094 70.14878Q548.8094 69.289406 548.41876 68.945656Q547.8719 68.46128 546.8094 68.46128Q545.825 68.46128 545.34064 68.820656Q544.8719 69.164406 544.65314 70.039406L543.27814 69.851906Q543.46564 68.976906 543.8875 68.43003Q544.325 67.883156 545.1375 67.601906Q545.95 67.30503 547.0125 67.30503Q548.075 67.30503 548.73126 67.55503Q549.40314 67.80503 549.71564 68.18003Q550.02814 68.55503 550.15314 69.133156Q550.23126 69.49253 550.23126 70.43003L550.23126 72.30503Q550.23126 74.27378 550.3094 74.789406Q550.40314 75.30503 550.66876 75.789406L549.2 75.789406Q548.98126 75.351906 548.91876 74.758156ZM548.8094 71.61753Q548.04376 71.93003 546.5125 72.14878Q545.6375 72.27378 545.27814 72.43003Q544.91876 72.58628 544.71564 72.89878Q544.52814 73.195656 544.52814 73.55503Q544.52814 74.11753 544.95 74.49253Q545.3875 74.86753 546.2 74.86753Q547.0125 74.86753 547.6375 74.52378Q548.27814 74.164406 548.575 73.539406Q548.8094 73.070656 548.8094 72.133156L548.8094 71.61753ZM552.5125 78.976906L552.5125 67.49253L553.79376 67.49253L553.79376 68.570656Q554.2469 67.93003 554.8094 67.61753Q555.3875 67.30503 556.2 67.30503Q557.2625 67.30503 558.075 67.851906Q558.8875 68.39878 559.29376 69.39878Q559.71564 70.383156 559.71564 71.570656Q559.71564 72.851906 559.2469 73.86753Q558.79376 74.883156 557.91876 75.43003Q557.0594 75.976906 556.09064 75.976906Q555.3875 75.976906 554.825 75.68003Q554.27814 75.383156 553.91876 74.93003L553.91876 78.976906L552.5125 78.976906ZM553.77814 71.68003Q553.77814 73.289406 554.41876 74.05503Q555.075 74.820656 555.9969 74.820656Q556.9344 74.820656 557.60626 74.02378Q558.27814 73.226906 558.27814 71.570656Q558.27814 69.976906 557.6219 69.195656Q556.96564 68.39878 556.0594 68.39878Q555.16876 68.39878 554.46564 69.24253Q553.77814 70.08628 553.77814 71.68003ZM561.5125 75.789406L561.5125 64.33628L562.91876 64.33628L562.91876 68.445656Q563.90314 67.30503 565.40314 67.30503Q566.325 67.30503 566.9969 67.664406Q567.6844 68.02378 567.96564 68.664406Q568.2625 69.30503 568.2625 70.52378L568.2625 75.789406L566.85626 75.789406L566.85626 70.52378Q566.85626 69.476906 566.40314 68.99253Q565.95 68.508156 565.10626 68.508156Q564.48126 68.508156 563.9344 68.83628Q563.3875 69.164406 563.15314 69.726906Q562.91876 70.27378 562.91876 71.24253L562.91876 75.789406L561.5125 75.789406ZM570.5125 65.945656L570.5125 64.33628L571.91876 64.33628L571.91876 65.945656L570.5125 65.945656ZM570.5125 75.789406L570.5125 67.49253L571.91876 67.49253L571.91876 75.789406L570.5125 75.789406ZM579.91876 72.74253L581.3094 72.93003Q581.075 74.351906 580.1375 75.164406Q579.21564 75.976906 577.85626 75.976906Q576.15314 75.976906 575.10626 74.86753Q574.075 73.74253 574.075 71.664406Q574.075 70.320656 574.5125 69.320656Q574.96564 68.30503 575.8719 67.80503Q576.79376 67.30503 577.85626 67.30503Q579.21564 67.30503 580.075 67.99253Q580.9344 68.664406 581.16876 69.93003L579.8094 70.133156Q579.60626 69.30503 579.10626 68.883156Q578.6219 68.46128 577.91876 68.46128Q576.85626 68.46128 576.1844 69.226906Q575.52814 69.976906 575.52814 71.633156Q575.52814 73.30503 576.16876 74.070656Q576.8094 74.820656 577.84064 74.820656Q578.66876 74.820656 579.21564 74.320656Q579.77814 73.80503 579.91876 72.74253Z" fill-rule="nonzero"/><path fill="#9e9e9e" d="M542.41876 97.789406L541.0125 97.789406L541.0125 88.820656Q540.4969 89.30503 539.66876 89.789406Q538.85626 90.27378 538.2 90.52378L538.2 89.164406Q539.3719 88.601906 540.2469 87.820656Q541.1375 87.02378 541.5125 86.289406L542.41876 86.289406L542.41876 97.789406ZM553.41876 89.133156L552.0125 89.24253Q551.825 88.414406 551.48126 88.039406Q550.91876 87.445656 550.075 87.445656Q549.40314 87.445656 548.90314 87.820656Q548.23126 88.30503 547.84064 89.24253Q547.46564 90.164406 547.45 91.883156Q547.96564 91.101906 548.7 90.726906Q549.4344 90.351906 550.23126 90.351906Q551.6375 90.351906 552.6219 91.39878Q553.6219 92.43003 553.6219 94.070656Q553.6219 95.14878 553.15314 96.070656Q552.6844 96.99253 551.8719 97.49253Q551.0594 97.99253 550.02814 97.99253Q548.27814 97.99253 547.16876 96.695656Q546.0594 95.39878 546.0594 92.43003Q546.0594 89.101906 547.27814 87.601906Q548.35626 86.289406 550.16876 86.289406Q551.5125 86.289406 552.3719 87.05503Q553.2469 87.80503 553.41876 89.133156ZM547.66876 94.070656Q547.66876 94.80503 547.98126 95.476906Q548.29376 96.133156 548.84064 96.476906Q549.40314 96.820656 550.0125 96.820656Q550.90314 96.820656 551.54376 96.101906Q552.1844 95.383156 552.1844 94.14878Q552.1844 92.96128 551.54376 92.289406Q550.91876 91.601906 549.95 91.601906Q548.9969 91.601906 548.325 92.289406Q547.66876 92.96128 547.66876 94.070656ZM555.90314 97.789406L555.90314 96.18003L557.5125 96.18003L557.5125 97.789406L555.90314 97.789406ZM559.21564 87.83628L559.21564 86.476906L566.6219 86.476906L566.6219 87.570656Q565.52814 88.74253 564.45 90.68003Q563.3875 92.601906 562.79376 94.633156Q562.3719 96.070656 562.2625 97.789406L560.8094 97.789406Q560.84064 96.43003 561.34064 94.52378Q561.85626 92.601906 562.79376 90.83628Q563.7469 89.05503 564.825 87.83628L559.21564 87.83628ZM568.3875 89.08628Q568.3875 87.851906 568.9969 86.99253Q569.6219 86.133156 570.79376 86.133156Q571.8719 86.133156 572.575 86.914406Q573.27814 87.68003 573.27814 89.164406Q573.27814 90.61753 572.5594 91.414406Q571.85626 92.195656 570.8094 92.195656Q569.7625 92.195656 569.075 91.43003Q568.3875 90.64878 568.3875 89.08628ZM570.825 87.101906Q570.3094 87.101906 569.95 87.55503Q569.60626 88.008156 569.60626 89.226906Q569.60626 90.320656 569.95 90.77378Q570.3094 91.226906 570.825 91.226906Q571.35626 91.226906 571.7 90.77378Q572.0594 90.320656 572.0594 89.11753Q572.0594 88.008156 571.7 87.55503Q571.35626 87.101906 570.825 87.101906ZM570.84064 98.21128L577.10626 86.133156L578.2469 86.133156L571.9969 98.21128L570.84064 98.21128ZM575.79376 95.101906Q575.79376 93.86753 576.40314 93.008156Q577.02814 92.14878 578.2 92.14878Q579.27814 92.14878 579.98126 92.93003Q580.7 93.695656 580.7 95.18003Q580.7 96.633156 579.98126 97.43003Q579.2625 98.21128 578.21564 98.21128Q577.16876 98.21128 576.48126 97.43003Q575.79376 96.64878 575.79376 95.101906ZM578.2469 93.11753Q577.71564 93.11753 577.35626 93.570656Q577.0125 94.02378 577.0125 95.24253Q577.0125 96.33628 577.35626 96.789406Q577.71564 97.24253 578.23126 97.24253Q578.77814 97.24253 579.1219 96.789406Q579.46564 96.33628 579.46564 95.133156Q579.46564 94.02378 579.10626 93.570656Q578.7625 93.11753 578.2469 93.11753Z" fill-rule="nonzero"/><path stroke="#757575" stroke-width="1.0" stroke-linecap="butt" d="M581.45 81.289406L454.76666 81.289406L370.66415 81.289406" fill-rule="nonzero"/><path fill="#9e9e9e" d="M372.66415 81.289406C372.66415 80.18484 371.76874 79.289406 370.66415 79.289406C369.5596 79.289406 368.66415 80.18484 368.66415 81.289406C368.66415 82.393974 369.5596 83.289406 370.66415 83.289406C371.76874 83.289406 372.66415 82.393974 372.66415 81.289406" fill-rule="nonzero"/><path fill="#efefef" d="M498.6844 320.57727L498.6844 309.12415L503.0125 309.12415Q504.15314 309.12415 504.7469 309.23352Q505.59064 309.37415 506.15314 309.76477Q506.73126 310.1554 507.075 310.87415Q507.4344 311.57727 507.4344 312.43665Q507.4344 313.88977 506.4969 314.9054Q505.575 315.92102 503.1375 315.92102L500.2 315.92102L500.2 320.57727L498.6844 320.57727ZM500.2 314.56165L503.16876 314.56165Q504.6375 314.56165 505.2469 314.01477Q505.8719 313.4679 505.8719 312.48352Q505.8719 311.76477 505.4969 311.24915Q505.1375 310.73352 504.54376 310.57727Q504.16876 310.4679 503.1375 310.4679L500.2 310.4679L500.2 314.56165ZM515.1844 317.9054L516.6375 318.07727Q516.29376 319.35852 515.35626 320.06165Q514.4344 320.76477 512.9969 320.76477Q511.16876 320.76477 510.10626 319.63977Q509.04376 318.51477 509.04376 316.49915Q509.04376 314.4054 510.1219 313.24915Q511.2 312.0929 512.91876 312.0929Q514.575 312.0929 515.6219 313.23352Q516.6844 314.35852 516.6844 316.4054Q516.6844 316.5304 516.6844 316.7804L510.4969 316.7804Q510.575 318.1554 511.2625 318.88977Q511.96564 319.60852 512.9969 319.60852Q513.77814 319.60852 514.325 319.20227Q514.8719 318.79602 515.1844 317.9054ZM510.575 315.62415L515.2 315.62415Q515.10626 314.57727 514.66876 314.06165Q513.9969 313.24915 512.9344 313.24915Q511.96564 313.24915 511.29376 313.9054Q510.6375 314.54602 510.575 315.62415ZM518.4969 320.57727L518.4969 312.2804L519.7625 312.2804L519.7625 313.5304Q520.2469 312.6554 520.65314 312.37415Q521.0594 312.0929 521.5594 312.0929Q522.2625 312.0929 522.9969 312.54602L522.5125 313.8429Q521.9969 313.54602 521.48126 313.54602Q521.02814 313.54602 520.65314 313.82727Q520.29376 314.0929 520.1375 314.5929Q519.90314 315.3429 519.90314 316.23352L519.90314 320.57727L518.4969 320.57727ZM522.95 318.0929L524.34064 317.87415Q524.45 318.7179 524.98126 319.17102Q525.52814 319.60852 526.48126 319.60852Q527.45 319.60852 527.91876 319.2179Q528.3875 318.81165 528.3875 318.2804Q528.3875 317.81165 527.98126 317.5304Q527.6844 317.3429 526.54376 317.06165Q524.9969 316.67102 524.3875 316.38977Q523.79376 316.0929 523.48126 315.5929Q523.1844 315.0929 523.1844 314.48352Q523.1844 313.92102 523.4344 313.45227Q523.6844 312.98352 524.1219 312.67102Q524.45 312.42102 525.0125 312.26477Q525.59064 312.0929 526.23126 312.0929Q527.21564 312.0929 527.95 312.37415Q528.6844 312.6554 529.02814 313.13977Q529.3875 313.60852 529.52814 314.42102L528.15314 314.60852Q528.0594 313.9679 527.60626 313.60852Q527.15314 313.24915 526.34064 313.24915Q525.3719 313.24915 524.95 313.57727Q524.54376 313.88977 524.54376 314.31165Q524.54376 314.5929 524.71564 314.81165Q524.8875 315.0304 525.2469 315.18665Q525.46564 315.26477 526.4969 315.54602Q527.98126 315.93665 528.575 316.20227Q529.16876 316.45227 529.4969 316.93665Q529.84064 317.42102 529.84064 318.13977Q529.84064 318.8429 529.41876 319.4679Q529.0125 320.07727 528.23126 320.42102Q527.46564 320.76477 526.4969 320.76477Q524.8719 320.76477 524.02814 320.0929Q523.1844 319.42102 522.95 318.0929ZM531.5125 323.76477L531.5125 312.2804L532.79376 312.2804L532.79376 313.35852Q533.2469 312.7179 533.8094 312.4054Q534.3875 312.0929 535.2 312.0929Q536.2625 312.0929 537.075 312.63977Q537.8875 313.18665 538.29376 314.18665Q538.71564 315.17102 538.71564 316.35852Q538.71564 317.63977 538.2469 318.6554Q537.79376 319.67102 536.91876 320.2179Q536.0594 320.76477 535.09064 320.76477Q534.3875 320.76477 533.825 320.4679Q533.27814 320.17102 532.91876 319.7179L532.91876 323.76477L531.5125 323.76477ZM532.77814 316.4679Q532.77814 318.07727 533.41876 318.8429Q534.075 319.60852 534.9969 319.60852Q535.9344 319.60852 536.60626 318.81165Q537.27814 318.01477 537.27814 316.35852Q537.27814 314.76477 536.6219 313.98352Q535.96564 313.18665 535.0594 313.18665Q534.16876 313.18665 533.46564 314.0304Q532.77814 314.87415 532.77814 316.4679ZM546.1844 317.9054L547.6375 318.07727Q547.29376 319.35852 546.35626 320.06165Q545.4344 320.76477 543.9969 320.76477Q542.16876 320.76477 541.10626 319.63977Q540.04376 318.51477 540.04376 316.49915Q540.04376 314.4054 541.1219 313.24915Q542.2 312.0929 543.91876 312.0929Q545.575 312.0929 546.6219 313.23352Q547.6844 314.35852 547.6844 316.4054Q547.6844 316.5304 547.6844 316.7804L541.4969 316.7804Q541.575 318.1554 542.2625 318.88977Q542.96564 319.60852 543.9969 319.60852Q544.77814 319.60852 545.325 319.20227Q545.8719 318.79602 546.1844 317.9054ZM541.575 315.62415L546.2 315.62415Q546.10626 314.57727 545.66876 314.06165Q544.9969 313.24915 543.9344 313.24915Q542.96564 313.24915 542.29376 313.9054Q541.6375 314.54602 541.575 315.62415ZM554.91876 317.5304L556.3094 317.7179Q556.075 319.13977 555.1375 319.95227Q554.21564 320.76477 552.85626 320.76477Q551.15314 320.76477 550.10626 319.6554Q549.075 318.5304 549.075 316.45227Q549.075 315.10852 549.5125 314.10852Q549.96564 313.0929 550.8719 312.5929Q551.79376 312.0929 552.85626 312.0929Q554.21564 312.0929 555.075 312.7804Q555.9344 313.45227 556.16876 314.7179L554.8094 314.92102Q554.60626 314.0929 554.10626 313.67102Q553.6219 313.24915 552.91876 313.24915Q551.85626 313.24915 551.1844 314.01477Q550.52814 314.76477 550.52814 316.42102Q550.52814 318.0929 551.16876 318.85852Q551.8094 319.60852 552.84064 319.60852Q553.66876 319.60852 554.21564 319.10852Q554.77814 318.5929 554.91876 317.5304ZM560.575 319.31165L560.77814 320.56165Q560.1844 320.68665 559.71564 320.68665Q558.95 320.68665 558.52814 320.45227Q558.10626 320.20227 557.9344 319.81165Q557.7625 319.4054 557.7625 318.13977L557.7625 313.37415L556.73126 313.37415L556.73126 312.2804L557.7625 312.2804L557.7625 310.2179L559.16876 309.37415L559.16876 312.2804L560.575 312.2804L560.575 313.37415L559.16876 313.37415L559.16876 318.2179Q559.16876 318.82727 559.23126 318.99915Q559.3094 319.17102 559.48126 319.2804Q559.65314 319.37415 559.96564 319.37415Q560.2 319.37415 560.575 319.31165ZM561.5125 310.73352L561.5125 309.12415L562.91876 309.12415L562.91876 310.73352L561.5125 310.73352ZM561.5125 320.57727L561.5125 312.2804L562.91876 312.2804L562.91876 320.57727L561.5125 320.57727ZM567.8094 320.57727L564.65314 312.2804L566.1375 312.2804L567.91876 317.24915Q568.21564 318.04602 568.45 318.92102Q568.6375 318.26477 568.98126 317.3429L570.825 312.2804L572.2625 312.2804L569.1219 320.57727L567.8094 320.57727ZM579.1844 317.9054L580.6375 318.07727Q580.29376 319.35852 579.35626 320.06165Q578.4344 320.76477 576.9969 320.76477Q575.16876 320.76477 574.10626 319.63977Q573.04376 318.51477 573.04376 316.49915Q573.04376 314.4054 574.1219 313.24915Q575.2 312.0929 576.91876 312.0929Q578.575 312.0929 579.6219 313.23352Q580.6844 314.35852 580.6844 316.4054Q580.6844 316.5304 580.6844 316.7804L574.4969 316.7804Q574.575 318.1554 575.2625 318.88977Q575.96564 319.60852 576.9969 319.60852Q577.77814 319.60852 578.325 319.20227Q578.8719 318.79602 579.1844 317.9054ZM574.575 315.62415L579.2 315.62415Q579.10626 314.57727 578.66876 314.06165Q577.9969 313.24915 576.9344 313.24915Q575.96564 313.24915 575.29376 313.9054Q574.6375 314.54602 574.575 315.62415Z" fill-rule="nonzero"/><path fill="#9e9e9e" d="M537.1219 339.57727L538.59064 339.45227Q538.7625 340.5304 539.35626 341.07727Q539.95 341.60852 540.79376 341.60852Q541.8094 341.60852 542.5125 340.8429Q543.21564 340.07727 543.21564 338.81165Q543.21564 337.60852 542.54376 336.92102Q541.8719 336.2179 540.77814 336.2179Q540.09064 336.2179 539.54376 336.5304Q538.9969 336.8429 538.6844 337.32727L537.3719 337.1554L538.48126 331.2804L544.16876 331.2804L544.16876 332.62415L539.60626 332.62415L538.98126 335.70227Q540.0125 334.98352 541.15314 334.98352Q542.65314 334.98352 543.6844 336.0304Q544.71564 337.06165 544.71564 338.68665Q544.71564 340.24915 543.8094 341.37415Q542.7 342.7804 540.79376 342.7804Q539.23126 342.7804 538.2469 341.9054Q537.2625 341.01477 537.1219 339.57727ZM546.1219 336.92102Q546.1219 334.88977 546.52814 333.6554Q546.95 332.42102 547.77814 331.74915Q548.60626 331.07727 549.85626 331.07727Q550.77814 331.07727 551.46564 331.45227Q552.16876 331.81165 552.6219 332.51477Q553.075 333.2179 553.325 334.2179Q553.59064 335.2179 553.59064 336.92102Q553.59064 338.93665 553.16876 340.18665Q552.7625 341.42102 551.9344 342.10852Q551.10626 342.7804 549.85626 342.7804Q548.2 342.7804 547.2469 341.57727Q546.1219 340.1554 546.1219 336.92102ZM547.5594 336.92102Q547.5594 339.74915 548.21564 340.68665Q548.8875 341.60852 549.85626 341.60852Q550.825 341.60852 551.48126 340.67102Q552.1375 339.73352 552.1375 336.92102Q552.1375 334.0929 551.48126 333.17102Q550.825 332.23352 549.84064 332.23352Q548.8719 332.23352 548.29376 333.06165Q547.5594 334.10852 547.5594 336.92102ZM555.90314 342.57727L555.90314 340.9679L557.5125 340.9679L557.5125 342.57727L555.90314 342.57727ZM559.1219 336.92102Q559.1219 334.88977 559.52814 333.6554Q559.95 332.42102 560.77814 331.74915Q561.60626 331.07727 562.85626 331.07727Q563.77814 331.07727 564.46564 331.45227Q565.16876 331.81165 565.6219 332.51477Q566.075 333.2179 566.325 334.2179Q566.59064 335.2179 566.59064 336.92102Q566.59064 338.93665 566.16876 340.18665Q565.7625 341.42102 564.9344 342.10852Q564.10626 342.7804 562.85626 342.7804Q561.2 342.7804 560.2469 341.57727Q559.1219 340.1554 559.1219 336.92102ZM560.5594 336.92102Q560.5594 339.74915 561.21564 340.68665Q561.8875 341.60852 562.85626 341.60852Q563.825 341.60852 564.48126 340.67102Q565.1375 339.73352 565.1375 336.92102Q565.1375 334.0929 564.48126 333.17102Q563.825 332.23352 562.84064 332.23352Q561.8719 332.23352 561.29376 333.06165Q560.5594 334.10852 560.5594 336.92102ZM568.3875 333.87415Q568.3875 332.63977 568.9969 331.7804Q569.6219 330.92102 570.79376 330.92102Q571.8719 330.92102 572.575 331.70227Q573.27814 332.4679 573.27814 333.95227Q573.27814 335.4054 572.5594 336.20227Q571.85626 336.98352 570.8094 336.98352Q569.7625 336.98352 569.075 336.2179Q568.3875 335.43665 568.3875 333.87415ZM570.825 331.88977Q570.3094 331.88977 569.95 332.3429Q569.60626 332.79602 569.60626 334.01477Q569.60626 335.10852 569.95 335.56165Q570.3094 336.01477 570.825 336.01477Q571.35626 336.01477 571.7 335.56165Q572.0594 335.10852 572.0594 333.9054Q572.0594 332.79602 571.7 332.3429Q571.35626 331.88977 570.825 331.88977ZM570.84064 342.99915L577.10626 330.92102L578.2469 330.92102L571.9969 342.99915L570.84064 342.99915ZM575.79376 339.88977Q575.79376 338.6554 576.40314 337.79602Q577.02814 336.93665 578.2 336.93665Q579.27814 336.93665 579.98126 337.7179Q580.7 338.48352 580.7 339.9679Q580.7 341.42102 579.98126 342.2179Q579.2625 342.99915 578.21564 342.99915Q577.16876 342.99915 576.48126 342.2179Q575.79376 341.43665 575.79376 339.88977ZM578.2469 337.9054Q577.71564 337.9054 577.35626 338.35852Q577.0125 338.81165 577.0125 340.0304Q577.0125 341.12415 577.35626 341.57727Q577.71564 342.0304 578.23126 342.0304Q578.77814 342.0304 579.1219 341.57727Q579.46564 341.12415 579.46564 339.92102Q579.46564 338.81165 579.10626 338.35852Q578.7625 337.9054 578.2469 337.9054Z" fill-rule="nonzero"/><path stroke="#757575" stroke-width="1.0" stroke-linecap="butt" d="M581.45 326.07727L454.76666 326.07727L370.66415 326.07727" fill-rule="nonzero"/><path fill="#9e9e9e" d="M372.66415 326.07727C372.66415 324.9727 371.76874 324.07727 370.66415 324.07727C369.5596 324.07727 368.66415 324.9727 368.66415 326.07727C368.66415 327.18182 369.5596 328.07727 370.66415 328.07727C371.76874 328.07727 372.66415 327.18182 372.66415 326.07727" fill-rule="nonzero"/><path fill="#f3f3f3" d="M265.98438 37.55L265.98438 23.2375L268.84375 23.2375L272.21875 33.3625Q272.6875 34.784374 272.90625 35.4875Q273.15625 34.70625 273.67188 33.190624L277.09375 23.2375L279.64062 23.2375L279.64062 37.55L277.82812 37.55L277.82812 25.565624L273.65625 37.55L271.95312 37.55L267.8125 25.3625L267.8125 37.55L265.98438 37.55ZM289.92188 34.20625L291.73438 34.440624Q291.3125 36.01875 290.14062 36.909374Q288.98438 37.784374 287.17188 37.784374Q284.90625 37.784374 283.5625 36.39375Q282.23438 34.9875 282.23438 32.45625Q282.23438 29.83125 283.57812 28.39375Q284.92188 26.940624 287.07812 26.940624Q289.15625 26.940624 290.46875 28.3625Q291.79688 29.76875 291.79688 32.346874Q291.79688 32.503124 291.78125 32.815624L284.04688 32.815624Q284.14062 34.51875 285.01562 35.425Q285.89062 36.33125 287.1875 36.33125Q288.15625 36.33125 288.82812 35.83125Q289.51562 35.315624 289.92188 34.20625ZM284.14062 31.3625L289.9375 31.3625Q289.82812 30.065624 289.28125 29.409374Q288.4375 28.39375 287.09375 28.39375Q285.89062 28.39375 285.0625 29.20625Q284.23438 30.003124 284.14062 31.3625ZM300.54688 37.55L300.54688 36.2375Q299.5625 37.784374 297.64062 37.784374Q296.40625 37.784374 295.35938 37.096874Q294.32812 36.409374 293.75 35.190624Q293.1875 33.971874 293.1875 32.378124Q293.1875 30.815624 293.70312 29.55Q294.21875 28.284374 295.25 27.6125Q296.29688 26.940624 297.5625 26.940624Q298.5 26.940624 299.23438 27.346874Q299.96875 27.7375 300.4375 28.3625L300.4375 23.2375L302.17188 23.2375L302.17188 37.55L300.54688 37.55ZM294.98438 32.378124Q294.98438 34.3625 295.82812 35.346874Q296.67188 36.33125 297.8125 36.33125Q298.96875 36.33125 299.76562 35.39375Q300.57812 34.45625 300.57812 32.51875Q300.57812 30.39375 299.75 29.39375Q298.9375 28.39375 297.73438 28.39375Q296.5625 28.39375 295.76562 29.3625Q294.98438 30.315624 294.98438 32.378124ZM304.82812 25.253124L304.82812 23.2375L306.59375 23.2375L306.59375 25.253124L304.82812 25.253124ZM304.82812 37.55L304.82812 27.175L306.59375 27.175L306.59375 37.55L304.82812 37.55ZM315.60938 37.55L315.60938 36.01875Q314.40625 37.784374 312.32812 37.784374Q311.40625 37.784374 310.60938 37.440624Q309.8125 37.08125 309.42188 36.55Q309.04688 36.01875 308.89062 35.2375Q308.78125 34.721874 308.78125 33.596874L308.78125 27.175L310.53125 27.175L310.53125 32.925Q310.53125 34.3 310.64062 34.784374Q310.8125 35.471874 311.34375 35.878124Q311.89062 36.26875 312.67188 36.26875Q313.46875 36.26875 314.15625 35.8625Q314.85938 35.45625 315.14062 34.76875Q315.4375 34.065624 315.4375 32.7375L315.4375 27.175L317.1875 27.175L317.1875 37.55L315.60938 37.55ZM319.8125 37.55L319.8125 27.175L321.39062 27.175L321.39062 28.628124Q321.875 27.878124 322.6875 27.409374Q323.5 26.940624 324.53125 26.940624Q325.6875 26.940624 326.42188 27.425Q327.15625 27.89375 327.46875 28.753124Q328.70312 26.940624 330.67188 26.940624Q332.21875 26.940624 333.04688 27.8Q333.875 28.659374 333.875 30.425L333.875 37.55L332.125 37.55L332.125 31.01875Q332.125 29.95625 331.95312 29.503124Q331.78125 29.034374 331.32812 28.753124Q330.89062 28.471874 330.28125 28.471874Q329.1875 28.471874 328.45312 29.20625Q327.73438 29.925 327.73438 31.51875L327.73438 37.55L325.98438 37.55L325.98438 30.815624Q325.98438 29.64375 325.54688 29.065624Q325.125 28.471874 324.14062 28.471874Q323.40625 28.471874 322.76562 28.8625Q322.14062 29.253124 321.85938 30.003124Q321.57812 30.753124 321.57812 32.175L321.57812 37.55L319.8125 37.55Z" fill-rule="nonzero"/></svg>