<svg version="1.1" viewBox="0.0 0.0 600.0 371.0" fill="none" stroke="none" stroke-linecap="square" stroke-miterlimit="10" width="600" height="371" xmlns:xlink="http://www.w3.org/1999/xlink" xmlns="http://www.w3.org/2000/svg"><path fill="#ffffff" fill-opacity="0.0" d="M0 0L600.0 0L600.0 371.0L0 371.0L0 0Z" fill-rule="nonzero"/><path fill="#78b2c0" d="M300.0 54.916668C382.16156 54.916668 448.76666 121.521774 448.76666 203.68333C448.76666 285.8449 382.16156 352.45 300.0 352.45L300.0 278.06668C341.08078 278.06668 374.38333 244.76411 374.38333 203.68333C374.38333 162.60255 341.08078 129.3 300.0 129.3Z" fill-rule="nonzero"/><path fill="#78a94e" d="M300.0 352.45C217.83844 352.45 151.23334 285.8449 151.23334 203.68333C151.23334 121.521774 217.83844 54.916668 300.0 54.916668L300.0 129.3C258.91922 129.3 225.61667 162.60255 225.61667 203.68333C225.61667 244.76411 258.91922 278.06668 300.0 278.06668Z" fill-rule="nonzero"/><path fill="#ffffff" d="M386.825 206.80833L388.48126 206.66771Q388.66876 207.88646 389.34064 208.49583Q390.0125 209.10521 390.96564 209.10521Q392.10626 209.10521 392.8875 208.24583Q393.6844 207.38646 393.6844 205.94896Q393.6844 204.60521 392.91876 203.82396Q392.16876 203.04271 390.9344 203.04271Q390.16876 203.04271 389.54376 203.38646Q388.9344 203.73021 388.59064 204.29271L387.10626 204.08958L388.35626 197.48021L394.7625 197.48021L394.7625 198.98021L389.6219 198.98021L388.91876 202.44896Q390.09064 201.63646 391.35626 201.63646Q393.04376 201.63646 394.2 202.80833Q395.3719 203.98021 395.3719 205.80833Q395.3719 207.55833 394.34064 208.83958Q393.10626 210.40208 390.96564 210.40208Q389.2 210.40208 388.09064 209.41771Q386.98126 208.43333 386.825 206.80833ZM396.825 203.82396Q396.825 201.54271 397.29376 200.15208Q397.7625 198.76146 398.6844 198.01146Q399.6219 197.24583 401.02814 197.24583Q402.0594 197.24583 402.84064 197.66771Q403.6219 198.07396 404.1219 198.87083Q404.6375 199.65208 404.9344 200.79271Q405.23126 201.91771 405.23126 203.82396Q405.23126 206.08958 404.7625 207.49583Q404.29376 208.88646 403.35626 209.65208Q402.4344 210.40208 401.02814 210.40208Q399.15314 210.40208 398.09064 209.07396Q396.825 207.46458 396.825 203.82396ZM398.45 203.82396Q398.45 206.99583 399.1844 208.05833Q399.9344 209.10521 401.02814 209.10521Q402.10626 209.10521 402.85626 208.05833Q403.60626 206.99583 403.60626 203.82396Q403.60626 200.65208 402.85626 199.60521Q402.10626 198.55833 401.0125 198.55833Q399.91876 198.55833 399.2625 199.48021Q398.45 200.65208 398.45 203.82396ZM407.71564 210.18333L407.71564 208.38646L409.5125 208.38646L409.5125 210.18333L407.71564 210.18333ZM411.825 203.82396Q411.825 201.54271 412.29376 200.15208Q412.7625 198.76146 413.6844 198.01146Q414.6219 197.24583 416.02814 197.24583Q417.0594 197.24583 417.84064 197.66771Q418.6219 198.07396 419.1219 198.87083Q419.6375 199.65208 419.9344 200.79271Q420.23126 201.91771 420.23126 203.82396Q420.23126 206.08958 419.7625 207.49583Q419.29376 208.88646 418.35626 209.65208Q417.4344 210.40208 416.02814 210.40208Q414.15314 210.40208 413.09064 209.07396Q411.825 207.46458 411.825 203.82396ZM413.45 203.82396Q413.45 206.99583 414.1844 208.05833Q414.9344 209.10521 416.02814 209.10521Q417.10626 209.10521 417.85626 208.05833Q418.60626 206.99583 418.60626 203.82396Q418.60626 200.65208 417.85626 199.60521Q417.10626 198.55833 416.0125 198.55833Q414.91876 198.55833 414.2625 199.48021Q413.45 200.65208 413.45 203.82396ZM422.1219 200.38646Q422.1219 199.01146 422.8094 198.04271Q423.5125 197.07396 424.825 197.07396Q426.04376 197.07396 426.84064 197.94896Q427.6375 198.80833 427.6375 200.49583Q427.6375 202.12083 426.825 203.01146Q426.02814 203.88646 424.84064 203.88646Q423.6844 203.88646 422.90314 203.02708Q422.1219 202.15208 422.1219 200.38646ZM424.8719 198.16771Q424.27814 198.16771 423.8875 198.68333Q423.4969 199.18333 423.4969 200.54271Q423.4969 201.79271 423.8875 202.29271Q424.29376 202.79271 424.8719 202.79271Q425.46564 202.79271 425.85626 202.29271Q426.2469 201.77708 426.2469 200.43333Q426.2469 199.18333 425.85626 198.68333Q425.46564 198.16771 424.8719 198.16771ZM424.8875 210.65208L431.9344 197.07396L433.21564 197.07396L426.1844 210.65208L424.8875 210.65208ZM430.45 207.15208Q430.45 205.77708 431.1375 204.80833Q431.84064 203.83958 433.16876 203.83958Q434.3875 203.83958 435.16876 204.71458Q435.96564 205.57396 435.96564 207.26146Q435.96564 208.88646 435.16876 209.77708Q434.3719 210.65208 433.1844 210.65208Q432.0125 210.65208 431.23126 209.77708Q430.45 208.90208 430.45 207.15208ZM433.21564 204.93333Q432.6219 204.93333 432.23126 205.44896Q431.84064 205.94896 431.84064 207.32396Q431.84064 208.54271 432.23126 209.05833Q432.6219 209.57396 433.2 209.57396Q433.8094 209.57396 434.2 209.05833Q434.59064 208.54271 434.59064 207.19896Q434.59064 205.94896 434.2 205.44896Q433.8094 204.93333 433.21564 204.93333Z" fill-rule="nonzero"/><path fill="#ffffff" d="M163.675 206.80833L165.33125 206.66771Q165.51875 207.88646 166.19063 208.49583Q166.8625 209.10521 167.81563 209.10521Q168.95625 209.10521 169.7375 208.24583Q170.53438 207.38646 170.53438 205.94896Q170.53438 204.60521 169.76875 203.82396Q169.01875 203.04271 167.78438 203.04271Q167.01875 203.04271 166.39375 203.38646Q165.78438 203.73021 165.44063 204.29271L163.95625 204.08958L165.20625 197.48021L171.6125 197.48021L171.6125 198.98021L166.47188 198.98021L165.76875 202.44896Q166.94063 201.63646 168.20625 201.63646Q169.89375 201.63646 171.05 202.80833Q172.22188 203.98021 172.22188 205.80833Q172.22188 207.55833 171.19063 208.83958Q169.95625 210.40208 167.81563 210.40208Q166.05 210.40208 164.94063 209.41771Q163.83125 208.43333 163.675 206.80833ZM173.675 203.82396Q173.675 201.54271 174.14375 200.15208Q174.6125 198.76146 175.53438 198.01146Q176.47188 197.24583 177.87813 197.24583Q178.90938 197.24583 179.69063 197.66771Q180.47188 198.07396 180.97188 198.87083Q181.4875 199.65208 181.78438 200.79271Q182.08125 201.91771 182.08125 203.82396Q182.08125 206.08958 181.6125 207.49583Q181.14375 208.88646 180.20625 209.65208Q179.28438 210.40208 177.87813 210.40208Q176.00313 210.40208 174.94063 209.07396Q173.675 207.46458 173.675 203.82396ZM175.3 203.82396Q175.3 206.99583 176.03438 208.05833Q176.78438 209.10521 177.87813 209.10521Q178.95625 209.10521 179.70625 208.05833Q180.45625 206.99583 180.45625 203.82396Q180.45625 200.65208 179.70625 199.60521Q178.95625 198.55833 177.8625 198.55833Q176.76875 198.55833 176.1125 199.48021Q175.3 200.65208 175.3 203.82396ZM184.56563 210.18333L184.56563 208.38646L186.3625 208.38646L186.3625 210.18333L184.56563 210.18333ZM188.675 203.82396Q188.675 201.54271 189.14375 200.15208Q189.6125 198.76146 190.53438 198.01146Q191.47188 197.24583 192.87813 197.24583Q193.90938 197.24583 194.69063 197.66771Q195.47188 198.07396 195.97188 198.87083Q196.4875 199.65208 196.78438 200.79271Q197.08125 201.91771 197.08125 203.82396Q197.08125 206.08958 196.6125 207.49583Q196.14375 208.88646 195.20625 209.65208Q194.28438 210.40208 192.87813 210.40208Q191.00313 210.40208 189.94063 209.07396Q188.675 207.46458 188.675 203.82396ZM190.3 203.82396Q190.3 206.99583 191.03438 208.05833Q191.78438 209.10521 192.87813 209.10521Q193.95625 209.10521 194.70625 208.05833Q195.45625 206.99583 195.45625 203.82396Q195.45625 200.65208 194.70625 199.60521Q193.95625 198.55833 192.8625 198.55833Q191.76875 198.55833 191.1125 199.48021Q190.3 200.65208 190.3 203.82396ZM198.97188 200.38646Q198.97188 199.01146 199.65938 198.04271Q200.3625 197.07396 201.675 197.07396Q202.89375 197.07396 203.69063 197.94896Q204.4875 198.80833 204.4875 200.49583Q204.4875 202.12083 203.675 203.01146Q202.87813 203.88646 201.69063 203.88646Q200.53438 203.88646 199.75313 203.02708Q198.97188 202.15208 198.97188 200.38646ZM201.72188 198.16771Q201.12813 198.16771 200.7375 198.68333Q200.34688 199.18333 200.34688 200.54271Q200.34688 201.79271 200.7375 202.29271Q201.14375 202.79271 201.72188 202.79271Q202.31563 202.79271 202.70625 202.29271Q203.09688 201.77708 203.09688 200.43333Q203.09688 199.18333 202.70625 198.68333Q202.31563 198.16771 201.72188 198.16771ZM201.7375 210.65208L208.78438 197.07396L210.06563 197.07396L203.03438 210.65208L201.7375 210.65208ZM207.3 207.15208Q207.3 205.77708 207.9875 204.80833Q208.69063 203.83958 210.01875 203.83958Q211.2375 203.83958 212.01875 204.71458Q212.81563 205.57396 212.81563 207.26146Q212.81563 208.88646 212.01875 209.77708Q211.22188 210.65208 210.03438 210.65208Q208.8625 210.65208 208.08125 209.77708Q207.3 208.90208 207.3 207.15208ZM210.06563 204.93333Q209.47188 204.93333 209.08125 205.44896Q208.69063 205.94896 208.69063 207.32396Q208.69063 208.54271 209.08125 209.05833Q209.47188 209.57396 210.05 209.57396Q210.65938 209.57396 211.05 209.05833Q211.44063 208.54271 211.44063 207.19896Q211.44063 205.94896 211.05 205.44896Q210.65938 204.93333 210.06563 204.93333Z" fill-rule="nonzero"/><path stroke="#ffffff" stroke-width="1.0" stroke-linejoin="round" stroke-linecap="round" d="M300.0 278.06668C341.08078 278.06668 374.38333 244.76411 374.38333 203.68333C374.38333 162.60255 341.08078 129.3 300.0 129.3L300.0 54.916668C382.16156 54.916668 448.76666 121.521774 448.76666 203.68333C448.76666 285.8449 382.16156 352.45 300.0 352.45" fill-rule="nonzero"/><path stroke="#ffffff" stroke-width="1.0" stroke-linejoin="round" stroke-linecap="round" d="M300.0 129.3C258.91922 129.3 225.61667 162.60255 225.61667 203.68333C225.61667 244.76411 258.91922 278.06668 300.0 278.06668L300.0 352.45C217.83844 352.45 151.23334 285.8449 151.23334 203.68333C151.23334 121.521774 217.83844 54.916668 300.0 54.916668" fill-rule="nonzero"/><path fill="#efefef" d="M18.51875 198.18333L22.925 186.73021L24.565624 186.73021L29.253124 198.18333L27.51875 198.18333L26.190624 194.71458L21.39375 194.71458L20.14375 198.18333L18.51875 198.18333ZM21.83125 193.48021L25.721874 193.48021L24.51875 190.30833Q23.971874 188.85521 23.70625 187.93333Q23.4875 189.02708 23.096874 190.12083L21.83125 193.48021ZM30.596874 198.18333L30.596874 189.88646L31.8625 189.88646L31.8625 191.13646Q32.346874 190.26146 32.753124 189.98021Q33.159374 189.69896 33.659374 189.69896Q34.3625 189.69896 35.096874 190.15208L34.6125 191.44896Q34.096874 191.15208 33.58125 191.15208Q33.128124 191.15208 32.753124 191.43333Q32.39375 191.69896 32.2375 192.19896Q32.003124 192.94896 32.003124 193.83958L32.003124 198.18333L30.596874 198.18333ZM41.01875 195.13646L42.409374 195.32396Q42.175 196.74583 41.2375 197.55833Q40.315624 198.37083 38.95625 198.37083Q37.253124 198.37083 36.20625 197.26146Q35.175 196.13646 35.175 194.05833Q35.175 192.71458 35.6125 191.71458Q36.065624 190.69896 36.971874 190.19896Q37.89375 189.69896 38.95625 189.69896Q40.315624 189.69896 41.175 190.38646Q42.034374 191.05833 42.26875 192.32396L40.909374 192.52708Q40.70625 191.69896 40.20625 191.27708Q39.721874 190.85521 39.01875 190.85521Q37.95625 190.85521 37.284374 191.62083Q36.628124 192.37083 36.628124 194.02708Q36.628124 195.69896 37.26875 196.46458Q37.909374 197.21458 38.940624 197.21458Q39.76875 197.21458 40.315624 196.71458Q40.878124 196.19896 41.01875 195.13646ZM43.6125 198.18333L43.6125 186.73021L45.01875 186.73021L45.01875 190.83958Q46.003124 189.69896 47.503124 189.69896Q48.425 189.69896 49.096874 190.05833Q49.784374 190.41771 50.065624 191.05833Q50.3625 191.69896 50.3625 192.91771L50.3625 198.18333L48.95625 198.18333L48.95625 192.91771Q48.95625 191.87083 48.503124 191.38646Q48.05 190.90208 47.20625 190.90208Q46.58125 190.90208 46.034374 191.23021Q45.4875 191.55833 45.253124 192.12083Q45.01875 192.66771 45.01875 193.63646L45.01875 198.18333L43.6125 198.18333ZM52.6125 188.33958L52.6125 186.73021L54.01875 186.73021L54.01875 188.33958L52.6125 188.33958ZM52.6125 198.18333L52.6125 189.88646L54.01875 189.88646L54.01875 198.18333L52.6125 198.18333ZM59.675 196.91771L59.878124 198.16771Q59.284374 198.29271 58.815624 198.29271Q58.05 198.29271 57.628124 198.05833Q57.20625 197.80833 57.034374 197.41771Q56.8625 197.01146 56.8625 195.74583L56.8625 190.98021L55.83125 190.98021L55.83125 189.88646L56.8625 189.88646L56.8625 187.82396L58.26875 186.98021L58.26875 189.88646L59.675 189.88646L59.675 190.98021L58.26875 190.98021L58.26875 195.82396Q58.26875 196.43333 58.33125 196.60521Q58.409374 196.77708 58.58125 196.88646Q58.753124 196.98021 59.065624 196.98021Q59.3 196.98021 59.675 196.91771ZM66.28438 195.51146L67.7375 195.68333Q67.39375 196.96458 66.45625 197.66771Q65.53438 198.37083 64.09688 198.37083Q62.26875 198.37083 61.20625 197.24583Q60.14375 196.12083 60.14375 194.10521Q60.14375 192.01146 61.221874 190.85521Q62.3 189.69896 64.01875 189.69896Q65.675 189.69896 66.72188 190.83958Q67.78438 191.96458 67.78438 194.01146Q67.78438 194.13646 67.78438 194.38646L61.596874 194.38646Q61.675 195.76146 62.3625 196.49583Q63.065624 197.21458 64.09688 197.21458Q64.87813 197.21458 65.425 196.80833Q65.97188 196.40208 66.28438 195.51146ZM61.675 193.23021L66.3 193.23021Q66.20625 192.18333 65.76875 191.66771Q65.09688 190.85521 64.03438 190.85521Q63.065624 190.85521 62.39375 191.51146Q61.7375 192.15208 61.675 193.23021ZM75.01875 195.13646L76.40938 195.32396Q76.175 196.74583 75.2375 197.55833Q74.31563 198.37083 72.95625 198.37083Q71.25313 198.37083 70.20625 197.26146Q69.175 196.13646 69.175 194.05833Q69.175 192.71458 69.6125 191.71458Q70.06563 190.69896 70.97188 190.19896Q71.89375 189.69896 72.95625 189.69896Q74.31563 189.69896 75.175 190.38646Q76.03438 191.05833 76.26875 192.32396L74.90938 192.52708Q74.70625 191.69896 74.20625 191.27708Q73.72188 190.85521 73.01875 190.85521Q71.95625 190.85521 71.28438 191.62083Q70.62813 192.37083 70.62813 194.02708Q70.62813 195.69896 71.26875 196.46458Q71.90938 197.21458 72.94063 197.21458Q73.76875 197.21458 74.31563 196.71458Q74.87813 196.19896 75.01875 195.13646ZM80.675 196.91771L80.87813 198.16771Q80.28438 198.29271 79.81563 198.29271Q79.05 198.29271 78.62813 198.05833Q78.20625 197.80833 78.03438 197.41771Q77.8625 197.01146 77.8625 195.74583L77.8625 190.98021L76.83125 190.98021L76.83125 189.88646L77.8625 189.88646L77.8625 187.82396L79.26875 186.98021L79.26875 189.88646L80.675 189.88646L80.675 190.98021L79.26875 190.98021L79.26875 195.82396Q79.26875 196.43333 79.33125 196.60521Q79.40938 196.77708 79.58125 196.88646Q79.75313 196.98021 80.06563 196.98021Q80.3 196.98021 80.675 196.91771ZM87.05 198.18333L87.05 196.96458Q86.08125 198.37083 84.40938 198.37083Q83.675 198.37083 83.03438 198.08958Q82.40938 197.80833 82.09688 197.38646Q81.78438 196.94896 81.65938 196.33958Q81.58125 195.91771 81.58125 195.02708L81.58125 189.88646L82.9875 189.88646L82.9875 194.48021Q82.9875 195.58958 83.06563 195.96458Q83.20625 196.52708 83.62813 196.83958Q84.06563 197.15208 84.69063 197.15208Q85.33125 197.15208 85.87813 196.83958Q86.44063 196.51146 86.65938 195.94896Q86.89375 195.38646 86.89375 194.32396L86.89375 189.88646L88.3 189.88646L88.3 198.18333L87.05 198.18333ZM90.59688 198.18333L90.59688 189.88646L91.8625 189.88646L91.8625 191.13646Q92.34688 190.26146 92.75313 189.98021Q93.15938 189.69896 93.65938 189.69896Q94.3625 189.69896 95.09688 190.15208L94.6125 191.44896Q94.09688 191.15208 93.58125 191.15208Q93.12813 191.15208 92.75313 191.43333Q92.39375 191.69896 92.2375 192.19896Q92.00313 192.94896 92.00313 193.83958L92.00313 198.18333L90.59688 198.18333ZM101.28438 195.51146L102.7375 195.68333Q102.39375 196.96458 101.45625 197.66771Q100.53438 198.37083 99.09688 198.37083Q97.26875 198.37083 96.20625 197.24583Q95.14375 196.12083 95.14375 194.10521Q95.14375 192.01146 96.22188 190.85521Q97.3 189.69896 99.01875 189.69896Q100.675 189.69896 101.72188 190.83958Q102.78438 191.96458 102.78438 194.01146Q102.78438 194.13646 102.78438 194.38646L96.59688 194.38646Q96.675 195.76146 97.3625 196.49583Q98.06563 197.21458 99.09688 197.21458Q99.87813 197.21458 100.425 196.80833Q100.97188 196.40208 101.28438 195.51146ZM96.675 193.23021L101.3 193.23021Q101.20625 192.18333 100.76875 191.66771Q100.09688 190.85521 99.03438 190.85521Q98.06563 190.85521 97.39375 191.51146Q96.7375 192.15208 96.675 193.23021ZM115.15938 196.82396Q114.45625 197.60521 113.62813 197.99583Q112.81563 198.38646 111.8625 198.38646Q110.1125 198.38646 109.08125 197.18333Q108.2375 196.21458 108.2375 195.02708Q108.2375 193.96458 108.925 193.10521Q109.6125 192.24583 110.97188 191.60521Q110.19063 190.71458 109.925 190.16771Q109.675 189.60521 109.675 189.08958Q109.675 188.05833 110.4875 187.29271Q111.3 186.52708 112.51875 186.52708Q113.69063 186.52708 114.44063 187.24583Q115.19063 187.96458 115.19063 188.98021Q115.19063 190.60521 113.01875 191.76146L115.08125 194.38646Q115.425 193.69896 115.62813 192.79271L117.08125 193.10521Q116.70625 194.60521 116.06563 195.57396Q116.8625 196.62083 117.8625 197.32396L116.90938 198.44896Q116.06563 197.90208 115.15938 196.82396ZM112.3 190.85521Q113.20625 190.32396 113.47188 189.91771Q113.75313 189.51146 113.75313 189.01146Q113.75313 188.43333 113.37813 188.05833Q113.00313 187.68333 112.45625 187.68333Q111.87813 187.68333 111.50313 188.05833Q111.12813 188.41771 111.12813 188.94896Q111.12813 189.21458 111.25313 189.51146Q111.39375 189.80833 111.675 190.13646L112.3 190.85521ZM114.26875 195.71458L111.69063 192.52708Q110.55 193.19896 110.14375 193.79271Q109.75313 194.37083 109.75313 194.93333Q109.75313 195.63646 110.3 196.38646Q110.8625 197.13646 111.87813 197.13646Q112.51875 197.13646 113.19063 196.74583Q113.8625 196.33958 114.26875 195.71458Z" fill-rule="nonzero"/><path fill="#9e9e9e" d="M19.221874 217.18333L20.690624 217.05833Q20.8625 218.13646 21.45625 218.68333Q22.05 219.21458 22.89375 219.21458Q23.909374 219.21458 24.6125 218.44896Q25.315624 217.68333 25.315624 216.41771Q25.315624 215.21458 24.64375 214.52708Q23.971874 213.82396 22.878124 213.82396Q22.190624 213.82396 21.64375 214.13646Q21.096874 214.44896 20.784374 214.93333L19.471874 214.76146L20.58125 208.88646L26.26875 208.88646L26.26875 210.23021L21.70625 210.23021L21.08125 213.30833Q22.1125 212.58958 23.253124 212.58958Q24.753124 212.58958 25.784374 213.63646Q26.815624 214.66771 26.815624 216.29271Q26.815624 217.85521 25.909374 218.98021Q24.8 220.38646 22.89375 220.38646Q21.33125 220.38646 20.346874 219.51146Q19.3625 218.62083 19.221874 217.18333ZM28.221874 214.52708Q28.221874 212.49583 28.628124 211.26146Q29.05 210.02708 29.878124 209.35521Q30.70625 208.68333 31.95625 208.68333Q32.878124 208.68333 33.565624 209.05833Q34.26875 209.41771 34.721874 210.12083Q35.175 210.82396 35.425 211.82396Q35.690624 212.82396 35.690624 214.52708Q35.690624 216.54271 35.26875 217.79271Q34.8625 219.02708 34.034374 219.71458Q33.20625 220.38646 31.95625 220.38646Q30.3 220.38646 29.346874 219.18333Q28.221874 217.76146 28.221874 214.52708ZM29.659374 214.52708Q29.659374 217.35521 30.315624 218.29271Q30.9875 219.21458 31.95625 219.21458Q32.925 219.21458 33.58125 218.27708Q34.2375 217.33958 34.2375 214.52708Q34.2375 211.69896 33.58125 210.77708Q32.925 209.83958 31.940624 209.83958Q30.971874 209.83958 30.39375 210.66771Q29.659374 211.71458 29.659374 214.52708ZM38.003124 220.18333L38.003124 218.57396L39.6125 218.57396L39.6125 220.18333L38.003124 220.18333ZM41.221874 214.52708Q41.221874 212.49583 41.628124 211.26146Q42.05 210.02708 42.878124 209.35521Q43.70625 208.68333 44.95625 208.68333Q45.878124 208.68333 46.565624 209.05833Q47.26875 209.41771 47.721874 210.12083Q48.175 210.82396 48.425 211.82396Q48.690624 212.82396 48.690624 214.52708Q48.690624 216.54271 48.26875 217.79271Q47.8625 219.02708 47.034374 219.71458Q46.20625 220.38646 44.95625 220.38646Q43.3 220.38646 42.346874 219.18333Q41.221874 217.76146 41.221874 214.52708ZM42.659374 214.52708Q42.659374 217.35521 43.315624 218.29271Q43.9875 219.21458 44.95625 219.21458Q45.925 219.21458 46.58125 218.27708Q47.2375 217.33958 47.2375 214.52708Q47.2375 211.69896 46.58125 210.77708Q45.925 209.83958 44.940624 209.83958Q43.971874 209.83958 43.39375 210.66771Q42.659374 211.71458 42.659374 214.52708ZM50.4875 211.48021Q50.4875 210.24583 51.096874 209.38646Q51.721874 208.52708 52.89375 208.52708Q53.971874 208.52708 54.675 209.30833Q55.378124 210.07396 55.378124 211.55833Q55.378124 213.01146 54.659374 213.80833Q53.95625 214.58958 52.909374 214.58958Q51.8625 214.58958 51.175 213.82396Q50.4875 213.04271 50.4875 211.48021ZM52.925 209.49583Q52.409374 209.49583 52.05 209.94896Q51.70625 210.40208 51.70625 211.62083Q51.70625 212.71458 52.05 213.16771Q52.409374 213.62083 52.925 213.62083Q53.45625 213.62083 53.8 213.16771Q54.159374 212.71458 54.159374 211.51146Q54.159374 210.40208 53.8 209.94896Q53.45625 209.49583 52.925 209.49583ZM52.940624 220.60521L59.20625 208.52708L60.346874 208.52708L54.096874 220.60521L52.940624 220.60521ZM57.89375 217.49583Q57.89375 216.26146 58.503124 215.40208Q59.128124 214.54271 60.3 214.54271Q61.378124 214.54271 62.08125 215.32396Q62.8 216.08958 62.8 217.57396Q62.8 219.02708 62.08125 219.82396Q61.3625 220.60521 60.315624 220.60521Q59.26875 220.60521 58.58125 219.82396Q57.89375 219.04271 57.89375 217.49583ZM60.346874 215.51146Q59.815624 215.51146 59.45625 215.96458Q59.1125 216.41771 59.1125 217.63646Q59.1125 218.73021 59.45625 219.18333Q59.815624 219.63646 60.33125 219.63646Q60.878124 219.63646 61.221874 219.18333Q61.565624 218.73021 61.565624 217.52708Q61.565624 216.41771 61.20625 215.96458Q60.8625 215.51146 60.346874 215.51146Z" fill-rule="nonzero"/><path stroke="#757575" stroke-width="1.0" stroke-linecap="butt" d="M18.55 203.68333L145.23334 203.68333L158.67166 203.68333" fill-rule="nonzero"/><path fill="#9e9e9e" d="M160.67166 203.68333C160.67166 202.57877 159.77623 201.68333 158.67166 201.68333C157.5671 201.68333 156.67166 202.57877 156.67166 203.68333C156.67166 204.7879 157.5671 205.68333 158.67166 205.68333C159.77623 205.68333 160.67166 204.7879 160.67166 203.68333" fill-rule="nonzero"/><path fill="#efefef" d="M504.73126 198.18333L504.73126 186.73021L506.2469 186.73021L506.2469 191.43333L512.2 191.43333L512.2 186.73021L513.71564 186.73021L513.71564 198.18333L512.2 198.18333L512.2 192.77708L506.2469 192.77708L506.2469 198.18333L504.73126 198.18333ZM522.1844 195.51146L523.6375 195.68333Q523.29376 196.96458 522.35626 197.66771Q521.4344 198.37083 519.9969 198.37083Q518.16876 198.37083 517.10626 197.24583Q516.04376 196.12083 516.04376 194.10521Q516.04376 192.01146 517.1219 190.85521Q518.2 189.69896 519.91876 189.69896Q521.575 189.69896 522.6219 190.83958Q523.6844 191.96458 523.6844 194.01146Q523.6844 194.13646 523.6844 194.38646L517.4969 194.38646Q517.575 195.76146 518.2625 196.49583Q518.96564 197.21458 519.9969 197.21458Q520.77814 197.21458 521.325 196.80833Q521.8719 196.40208 522.1844 195.51146ZM517.575 193.23021L522.2 193.23021Q522.10626 192.18333 521.66876 191.66771Q520.9969 190.85521 519.9344 190.85521Q518.96564 190.85521 518.29376 191.51146Q517.6375 192.15208 517.575 193.23021ZM530.91876 197.15208Q530.1375 197.82396 529.41876 198.10521Q528.7 198.37083 527.8719 198.37083Q526.4969 198.37083 525.7625 197.69896Q525.02814 197.02708 525.02814 195.99583Q525.02814 195.38646 525.3094 194.88646Q525.59064 194.37083 526.02814 194.07396Q526.48126 193.76146 527.04376 193.60521Q527.46564 193.49583 528.29376 193.40208Q529.9969 193.19896 530.8094 192.91771Q530.8094 192.62083 530.8094 192.54271Q530.8094 191.68333 530.41876 191.33958Q529.8719 190.85521 528.8094 190.85521Q527.825 190.85521 527.34064 191.21458Q526.8719 191.55833 526.65314 192.43333L525.27814 192.24583Q525.46564 191.37083 525.8875 190.82396Q526.325 190.27708 527.1375 189.99583Q527.95 189.69896 529.0125 189.69896Q530.075 189.69896 530.73126 189.94896Q531.40314 190.19896 531.71564 190.57396Q532.02814 190.94896 532.15314 191.52708Q532.23126 191.88646 532.23126 192.82396L532.23126 194.69896Q532.23126 196.66771 532.3094 197.18333Q532.40314 197.69896 532.66876 198.18333L531.2 198.18333Q530.98126 197.74583 530.91876 197.15208ZM530.8094 194.01146Q530.04376 194.32396 528.5125 194.54271Q527.6375 194.66771 527.27814 194.82396Q526.91876 194.98021 526.71564 195.29271Q526.52814 195.58958 526.52814 195.94896Q526.52814 196.51146 526.95 196.88646Q527.3875 197.26146 528.2 197.26146Q529.0125 197.26146 529.6375 196.91771Q530.27814 196.55833 530.575 195.93333Q530.8094 195.46458 530.8094 194.52708L530.8094 194.01146ZM534.48126 198.18333L534.48126 186.73021L535.8875 186.73021L535.8875 198.18333L534.48126 198.18333ZM541.575 196.91771L541.77814 198.16771Q541.1844 198.29271 540.71564 198.29271Q539.95 198.29271 539.52814 198.05833Q539.10626 197.80833 538.9344 197.41771Q538.7625 197.01146 538.7625 195.74583L538.7625 190.98021L537.73126 190.98021L537.73126 189.88646L538.7625 189.88646L538.7625 187.82396L540.16876 186.98021L540.16876 189.88646L541.575 189.88646L541.575 190.98021L540.16876 190.98021L540.16876 195.82396Q540.16876 196.43333 540.23126 196.60521Q540.3094 196.77708 540.48126 196.88646Q540.65314 196.98021 540.96564 196.98021Q541.2 196.98021 541.575 196.91771ZM542.5125 198.18333L542.5125 186.73021L543.91876 186.73021L543.91876 190.83958Q544.90314 189.69896 546.40314 189.69896Q547.325 189.69896 547.9969 190.05833Q548.6844 190.41771 548.96564 191.05833Q549.2625 191.69896 549.2625 192.91771L549.2625 198.18333L547.85626 198.18333L547.85626 192.91771Q547.85626 191.87083 547.40314 191.38646Q546.95 190.90208 546.10626 190.90208Q545.48126 190.90208 544.9344 191.23021Q544.3875 191.55833 544.15314 192.12083Q543.91876 192.66771 543.91876 193.63646L543.91876 198.18333L542.5125 198.18333ZM556.91876 195.13646L558.3094 195.32396Q558.075 196.74583 557.1375 197.55833Q556.21564 198.37083 554.85626 198.37083Q553.15314 198.37083 552.10626 197.26146Q551.075 196.13646 551.075 194.05833Q551.075 192.71458 551.5125 191.71458Q551.96564 190.69896 552.8719 190.19896Q553.79376 189.69896 554.85626 189.69896Q556.21564 189.69896 557.075 190.38646Q557.9344 191.05833 558.16876 192.32396L556.8094 192.52708Q556.60626 191.69896 556.10626 191.27708Q555.6219 190.85521 554.91876 190.85521Q553.85626 190.85521 553.1844 191.62083Q552.52814 192.37083 552.52814 194.02708Q552.52814 195.69896 553.16876 196.46458Q553.8094 197.21458 554.84064 197.21458Q555.66876 197.21458 556.21564 196.71458Q556.77814 196.19896 556.91876 195.13646ZM564.91876 197.15208Q564.1375 197.82396 563.41876 198.10521Q562.7 198.37083 561.8719 198.37083Q560.4969 198.37083 559.7625 197.69896Q559.02814 197.02708 559.02814 195.99583Q559.02814 195.38646 559.3094 194.88646Q559.59064 194.37083 560.02814 194.07396Q560.48126 193.76146 561.04376 193.60521Q561.46564 193.49583 562.29376 193.40208Q563.9969 193.19896 564.8094 192.91771Q564.8094 192.62083 564.8094 192.54271Q564.8094 191.68333 564.41876 191.33958Q563.8719 190.85521 562.8094 190.85521Q561.825 190.85521 561.34064 191.21458Q560.8719 191.55833 560.65314 192.43333L559.27814 192.24583Q559.46564 191.37083 559.8875 190.82396Q560.325 190.27708 561.1375 189.99583Q561.95 189.69896 563.0125 189.69896Q564.075 189.69896 564.73126 189.94896Q565.40314 190.19896 565.71564 190.57396Q566.02814 190.94896 566.15314 191.52708Q566.23126 191.88646 566.23126 192.82396L566.23126 194.69896Q566.23126 196.66771 566.3094 197.18333Q566.40314 197.69896 566.66876 198.18333L565.2 198.18333Q564.98126 197.74583 564.91876 197.15208ZM564.8094 194.01146Q564.04376 194.32396 562.5125 194.54271Q561.6375 194.66771 561.27814 194.82396Q560.91876 194.98021 560.71564 195.29271Q560.52814 195.58958 560.52814 195.94896Q560.52814 196.51146 560.95 196.88646Q561.3875 197.26146 562.2 197.26146Q563.0125 197.26146 563.6375 196.91771Q564.27814 196.55833 564.575 195.93333Q564.8094 195.46458 564.8094 194.52708L564.8094 194.01146ZM568.4969 198.18333L568.4969 189.88646L569.7625 189.88646L569.7625 191.13646Q570.2469 190.26146 570.65314 189.98021Q571.0594 189.69896 571.5594 189.69896Q572.2625 189.69896 572.9969 190.15208L572.5125 191.44896Q571.9969 191.15208 571.48126 191.15208Q571.02814 191.15208 570.65314 191.43333Q570.29376 191.69896 570.1375 192.19896Q569.90314 192.94896 569.90314 193.83958L569.90314 198.18333L568.4969 198.18333ZM579.1844 195.51146L580.6375 195.68333Q580.29376 196.96458 579.35626 197.66771Q578.4344 198.37083 576.9969 198.37083Q575.16876 198.37083 574.10626 197.24583Q573.04376 196.12083 573.04376 194.10521Q573.04376 192.01146 574.1219 190.85521Q575.2 189.69896 576.91876 189.69896Q578.575 189.69896 579.6219 190.83958Q580.6844 191.96458 580.6844 194.01146Q580.6844 194.13646 580.6844 194.38646L574.4969 194.38646Q574.575 195.76146 575.2625 196.49583Q575.96564 197.21458 576.9969 197.21458Q577.77814 197.21458 578.325 196.80833Q578.8719 196.40208 579.1844 195.51146ZM574.575 193.23021L579.2 193.23021Q579.10626 192.18333 578.66876 191.66771Q577.9969 190.85521 576.9344 190.85521Q575.96564 190.85521 575.29376 191.51146Q574.6375 192.15208 574.575 193.23021Z" fill-rule="nonzero"/><path fill="#9e9e9e" d="M537.1219 217.18333L538.59064 217.05833Q538.7625 218.13646 539.35626 218.68333Q539.95 219.21458 540.79376 219.21458Q541.8094 219.21458 542.5125 218.44896Q543.21564 217.68333 543.21564 216.41771Q543.21564 215.21458 542.54376 214.52708Q541.8719 213.82396 540.77814 213.82396Q540.09064 213.82396 539.54376 214.13646Q538.9969 214.44896 538.6844 214.93333L537.3719 214.76146L538.48126 208.88646L544.16876 208.88646L544.16876 210.23021L539.60626 210.23021L538.98126 213.30833Q540.0125 212.58958 541.15314 212.58958Q542.65314 212.58958 543.6844 213.63646Q544.71564 214.66771 544.71564 216.29271Q544.71564 217.85521 543.8094 218.98021Q542.7 220.38646 540.79376 220.38646Q539.23126 220.38646 538.2469 219.51146Q537.2625 218.62083 537.1219 217.18333ZM546.1219 214.52708Q546.1219 212.49583 546.52814 211.26146Q546.95 210.02708 547.77814 209.35521Q548.60626 208.68333 549.85626 208.68333Q550.77814 208.68333 551.46564 209.05833Q552.16876 209.41771 552.6219 210.12083Q553.075 210.82396 553.325 211.82396Q553.59064 212.82396 553.59064 214.52708Q553.59064 216.54271 553.16876 217.79271Q552.7625 219.02708 551.9344 219.71458Q551.10626 220.38646 549.85626 220.38646Q548.2 220.38646 547.2469 219.18333Q546.1219 217.76146 546.1219 214.52708ZM547.5594 214.52708Q547.5594 217.35521 548.21564 218.29271Q548.8875 219.21458 549.85626 219.21458Q550.825 219.21458 551.48126 218.27708Q552.1375 217.33958 552.1375 214.52708Q552.1375 211.69896 551.48126 210.77708Q550.825 209.83958 549.84064 209.83958Q548.8719 209.83958 548.29376 210.66771Q547.5594 211.71458 547.5594 214.52708ZM555.90314 220.18333L555.90314 218.57396L557.5125 218.57396L557.5125 220.18333L555.90314 220.18333ZM559.1219 214.52708Q559.1219 212.49583 559.52814 211.26146Q559.95 210.02708 560.77814 209.35521Q561.60626 208.68333 562.85626 208.68333Q563.77814 208.68333 564.46564 209.05833Q565.16876 209.41771 565.6219 210.12083Q566.075 210.82396 566.325 211.82396Q566.59064 212.82396 566.59064 214.52708Q566.59064 216.54271 566.16876 217.79271Q565.7625 219.02708 564.9344 219.71458Q564.10626 220.38646 562.85626 220.38646Q561.2 220.38646 560.2469 219.18333Q559.1219 217.76146 559.1219 214.52708ZM560.5594 214.52708Q560.5594 217.35521 561.21564 218.29271Q561.8875 219.21458 562.85626 219.21458Q563.825 219.21458 564.48126 218.27708Q565.1375 217.33958 565.1375 214.52708Q565.1375 211.69896 564.48126 210.77708Q563.825 209.83958 562.84064 209.83958Q561.8719 209.83958 561.29376 210.66771Q560.5594 211.71458 560.5594 214.52708ZM568.3875 211.48021Q568.3875 210.24583 568.9969 209.38646Q569.6219 208.52708 570.79376 208.52708Q571.8719 208.52708 572.575 209.30833Q573.27814 210.07396 573.27814 211.55833Q573.27814 213.01146 572.5594 213.80833Q571.85626 214.58958 570.8094 214.58958Q569.7625 214.58958 569.075 213.82396Q568.3875 213.04271 568.3875 211.48021ZM570.825 209.49583Q570.3094 209.49583 569.95 209.94896Q569.60626 210.40208 569.60626 211.62083Q569.60626 212.71458 569.95 213.16771Q570.3094 213.62083 570.825 213.62083Q571.35626 213.62083 571.7 213.16771Q572.0594 212.71458 572.0594 211.51146Q572.0594 210.40208 571.7 209.94896Q571.35626 209.49583 570.825 209.49583ZM570.84064 220.60521L577.10626 208.52708L578.2469 208.52708L571.9969 220.60521L570.84064 220.60521ZM575.79376 217.49583Q575.79376 216.26146 576.40314 215.40208Q577.02814 214.54271 578.2 214.54271Q579.27814 214.54271 579.98126 215.32396Q580.7 216.08958 580.7 217.57396Q580.7 219.02708 579.98126 219.82396Q579.2625 220.60521 578.21564 220.60521Q577.16876 220.60521 576.48126 219.82396Q575.79376 219.04271 575.79376 217.49583ZM578.2469 215.51146Q577.71564 215.51146 577.35626 215.96458Q577.0125 216.41771 577.0125 217.63646Q577.0125 218.73021 577.35626 219.18333Q577.71564 219.63646 578.23126 219.63646Q578.77814 219.63646 579.1219 219.18333Q579.46564 218.73021 579.46564 217.52708Q579.46564 216.41771 579.10626 215.96458Q578.7625 215.51146 578.2469 215.51146Z" fill-rule="nonzero"/><path stroke="#757575" stroke-width="1.0" stroke-linecap="butt" d="M581.45 203.68333L454.76666 203.68333L441.32834 203.68333" fill-rule="nonzero"/><path fill="#9e9e9e" d="M443.32834 203.68333C443.32834 202.57877 442.4329 201.68333 441.32834 201.68333C440.22375 201.68333 439.32834 202.57877 439.32834 203.68333C439.32834 204.7879 440.22375 205.68333 441.32834 205.68333C442.4329 205.68333 443.32834 204.7879 443.32834 203.68333" fill-rule="nonzero"/><path fill="#f3f3f3" d="M271.26562 32.534374L273.15625 33.003124Q272.5625 35.346874 271.01562 36.58125Q269.46875 37.8 267.21875 37.8Q264.90625 37.8 263.45312 36.8625Q262.01562 35.909374 261.25 34.128124Q260.5 32.33125 260.5 30.284374Q260.5 28.05 261.34375 26.39375Q262.20312 24.721874 263.78125 23.8625Q265.35938 22.9875 267.25 22.9875Q269.40625 22.9875 270.85938 24.08125Q272.32812 25.175 272.90625 27.159374L271.04688 27.596874Q270.54688 26.034374 269.59375 25.33125Q268.65625 24.6125 267.21875 24.6125Q265.5625 24.6125 264.45312 25.409374Q263.34375 26.190624 262.89062 27.534374Q262.45312 28.8625 262.45312 30.26875Q262.45312 32.096874 262.98438 33.471874Q263.51562 34.83125 264.64062 35.503124Q265.76562 36.175 267.0625 36.175Q268.65625 36.175 269.76562 35.253124Q270.875 34.33125 271.26562 32.534374ZM281.59375 36.26875Q280.60938 37.096874 279.70312 37.440624Q278.79688 37.784374 277.76562 37.784374Q276.0625 37.784374 275.14062 36.95625Q274.21875 36.1125 274.21875 34.815624Q274.21875 34.05 274.5625 33.425Q274.92188 32.8 275.48438 32.425Q276.04688 32.034374 276.75 31.83125Q277.26562 31.70625 278.3125 31.565624Q280.4375 31.315624 281.4375 30.971874Q281.45312 30.6125 281.45312 30.503124Q281.45312 29.440624 280.95312 28.9875Q280.28125 28.39375 278.95312 28.39375Q277.70312 28.39375 277.10938 28.83125Q276.53125 29.26875 276.25 30.378124L274.53125 30.14375Q274.76562 29.034374 275.29688 28.3625Q275.82812 27.675 276.84375 27.315624Q277.85938 26.940624 279.20312 26.940624Q280.53125 26.940624 281.35938 27.253124Q282.1875 27.565624 282.57812 28.05Q282.96875 28.51875 283.125 29.2375Q283.21875 29.690624 283.21875 30.8625L283.21875 33.20625Q283.21875 35.659374 283.32812 36.315624Q283.4375 36.95625 283.78125 37.55L281.9375 37.55Q281.67188 37.003124 281.59375 36.26875ZM281.4375 32.346874Q280.48438 32.7375 278.5625 33.003124Q277.48438 33.159374 277.03125 33.3625Q276.59375 33.55 276.34375 33.925Q276.09375 34.3 276.09375 34.76875Q276.09375 35.471874 276.625 35.940624Q277.15625 36.409374 278.1875 36.409374Q279.20312 36.409374 279.98438 35.971874Q280.78125 35.51875 281.15625 34.753124Q281.4375 34.14375 281.4375 32.9875L281.4375 32.346874ZM289.65625 35.971874L289.90625 37.534374Q289.17188 37.690624 288.57812 37.690624Q287.625 37.690624 287.09375 37.39375Q286.57812 37.08125 286.35938 36.596874Q286.14062 36.096874 286.14062 34.51875L286.14062 28.55L284.85938 28.55L284.85938 27.175L286.14062 27.175L286.14062 24.6125L287.89062 23.55L287.89062 27.175L289.65625 27.175L289.65625 28.55L287.89062 28.55L287.89062 34.6125Q287.89062 35.3625 287.98438 35.58125Q288.07812 35.784374 288.28125 35.925Q288.5 36.05 288.89062 36.05Q289.17188 36.05 289.65625 35.971874ZM298.92188 34.20625L300.73438 34.440624Q300.3125 36.01875 299.14062 36.909374Q297.98438 37.784374 296.17188 37.784374Q293.90625 37.784374 292.5625 36.39375Q291.23438 34.9875 291.23438 32.45625Q291.23438 29.83125 292.57812 28.39375Q293.92188 26.940624 296.07812 26.940624Q298.15625 26.940624 299.46875 28.3625Q300.79688 29.76875 300.79688 32.346874Q300.79688 32.503124 300.78125 32.815624L293.04688 32.815624Q293.14062 34.51875 294.01562 35.425Q294.89062 36.33125 296.1875 36.33125Q297.15625 36.33125 297.82812 35.83125Q298.51562 35.315624 298.92188 34.20625ZM293.14062 31.3625L298.9375 31.3625Q298.82812 30.065624 298.28125 29.409374Q297.4375 28.39375 296.09375 28.39375Q294.89062 28.39375 294.0625 29.20625Q293.23438 30.003124 293.14062 31.3625ZM302.5 38.409374L304.20312 38.659374Q304.3125 39.45625 304.79688 39.815624Q305.45312 40.3 306.59375 40.3Q307.8125 40.3 308.46875 39.815624Q309.14062 39.33125 309.375 38.45625Q309.51562 37.909374 309.5 36.190624Q308.34375 37.55 306.625 37.55Q304.48438 37.55 303.3125 36.003124Q302.14062 34.45625 302.14062 32.3Q302.14062 30.815624 302.67188 29.565624Q303.21875 28.315624 304.23438 27.628124Q305.26562 26.940624 306.64062 26.940624Q308.46875 26.940624 309.67188 28.425L309.67188 27.175L311.28125 27.175L311.28125 36.14375Q311.28125 38.565624 310.78125 39.565624Q310.29688 40.58125 309.21875 41.159374Q308.15625 41.753124 306.59375 41.753124Q304.75 41.753124 303.59375 40.925Q302.45312 40.096874 302.5 38.409374ZM303.95312 32.175Q303.95312 34.221874 304.76562 35.159374Q305.57812 36.096874 306.79688 36.096874Q308.0 36.096874 308.8125 35.159374Q309.64062 34.221874 309.64062 32.2375Q309.64062 30.33125 308.79688 29.3625Q307.95312 28.39375 306.76562 28.39375Q305.59375 28.39375 304.76562 29.346874Q303.95312 30.3 303.95312 32.175ZM313.17188 32.3625Q313.17188 29.4875 314.76562 28.096874Q316.10938 26.940624 318.03125 26.940624Q320.17188 26.940624 321.51562 28.346874Q322.875 29.753124 322.875 32.221874Q322.875 34.221874 322.28125 35.378124Q321.6875 36.51875 320.53125 37.159374Q319.39062 37.784374 318.03125 37.784374Q315.84375 37.784374 314.5 36.39375Q313.17188 34.9875 313.17188 32.3625ZM314.96875 32.3625Q314.96875 34.3625 315.82812 35.346874Q316.70312 36.33125 318.03125 36.33125Q319.34375 36.33125 320.20312 35.346874Q321.07812 34.346874 321.07812 32.3Q321.07812 30.378124 320.20312 29.39375Q319.32812 28.39375 318.03125 28.39375Q316.70312 28.39375 315.82812 29.39375Q314.96875 30.378124 314.96875 32.3625ZM324.79688 37.55L324.79688 27.175L326.375 27.175L326.375 28.753124Q326.98438 27.64375 327.5 27.3Q328.01562 26.940624 328.625 26.940624Q329.51562 26.940624 330.4375 27.503124L329.82812 29.14375Q329.1875 28.753124 328.54688 28.753124Q327.96875 28.753124 327.5 29.1125Q327.04688 29.45625 326.84375 30.065624Q326.5625 31.003124 326.5625 32.1125L326.5625 37.55L324.79688 37.55ZM331.73438 41.55L331.54688 39.89375Q332.125 40.05 332.54688 40.05Q333.14062 40.05 333.48438 39.846874Q333.84375 39.659374 334.0625 39.315624Q334.23438 39.05 334.60938 38.003124Q334.65625 37.846874 334.76562 37.565624L330.82812 27.175L332.71875 27.175L334.875 33.190624Q335.29688 34.33125 335.625 35.58125Q335.9375 34.378124 336.34375 33.221874L338.5625 27.175L340.32812 27.175L336.375 37.721874Q335.75 39.440624 335.39062 40.08125Q334.92188 40.95625 334.3125 41.346874Q333.71875 41.753124 332.875 41.753124Q332.35938 41.753124 331.73438 41.55Z" fill-rule="nonzero"/></svg>