<svg version="1.1" viewBox="0.0 0.0 600.0 371.0" fill="none" stroke="none" stroke-linecap="square" stroke-miterlimit="10" width="600" height="371" xmlns:xlink="http://www.w3.org/1999/xlink" xmlns="http://www.w3.org/2000/svg"><path fill="#ffffff" fill-opacity="0.0" d="M0 0L600.0 0L600.0 371.0L0 371.0L0 0Z" fill-rule="nonzero"/><path fill="#b3ca48" d="M300.0 54.916668C382.16156 54.916668 448.76666 121.521774 448.76666 203.68333L374.38333 203.68333C374.38333 162.60255 341.08078 129.3 300.0 129.3Z" fill-rule="nonzero"/><path fill="#78a94e" d="M448.76666 203.68333C448.76666 285.8449 382.16156 352.45 300.0 352.45C217.83844 352.45 151.23334 285.8449 151.23334 203.68333C151.23334 121.521774 217.83844 54.916668 300.0 54.916668L300.0 129.3C258.91922 129.3 225.61667 162.60255 225.61667 203.68333C225.61667 244.76411 258.91922 278.06668 300.0 278.06668C341.08078 278.06668 374.38333 244.76411 374.38333 203.68333Z" fill-rule="nonzero"/><path fill="#ffffff" d="M362.45795 129.77226L362.45795 131.28789L353.94232 131.28789Q353.9267 130.70976 354.12982 130.19414Q354.45795 129.31914 355.16107 128.47539Q355.87982 127.63164 357.2392 126.52226Q359.33295 124.80351 360.06732 123.80351Q360.81732 122.78789 360.81732 121.89726Q360.81732 120.94414 360.14545 120.30351Q359.47357 119.66289 358.39545 119.66289Q357.2392 119.66289 356.5517 120.35039Q355.87982 121.03789 355.8642 122.24101L354.2392 122.06914Q354.41107 120.25664 355.4892 119.30351Q356.58295 118.35039 358.4267 118.35039Q360.27045 118.35039 361.34857 119.38164Q362.44232 120.41289 362.44232 121.92851Q362.44232 122.69414 362.1142 123.44414Q361.8017 124.19414 361.06732 125.02226Q360.33295 125.85039 358.62982 127.28789Q357.20795 128.49101 356.8017 128.91289Q356.39545 129.33476 356.14545 129.77226L362.45795 129.77226ZM364.14545 127.91289L365.8017 127.77226Q365.9892 128.99101 366.66107 129.60039Q367.33295 130.20976 368.28607 130.20976Q369.4267 130.20976 370.20795 129.35039Q371.00482 128.49101 371.00482 127.05351Q371.00482 125.70976 370.2392 124.92851Q369.4892 124.14726 368.25482 124.14726Q367.4892 124.14726 366.8642 124.49101Q366.25482 124.83476 365.91107 125.39726L364.4267 125.19414L365.6767 118.58476L372.08295 118.58476L372.08295 120.08476L366.94232 120.08476L366.2392 123.55351Q367.41107 122.74101 368.6767 122.74101Q370.3642 122.74101 371.52045 123.91289Q372.69232 125.08476 372.69232 126.91289Q372.69232 128.66289 371.66107 129.94414Q370.4267 131.50664 368.28607 131.50664Q366.52045 131.50664 365.41107 130.52226Q364.3017 129.53789 364.14545 127.91289ZM375.03607 131.28789L375.03607 129.49101L376.83295 129.49101L376.83295 131.28789L375.03607 131.28789ZM379.14545 124.92851Q379.14545 122.64726 379.6142 121.25664Q380.08295 119.86601 381.00482 119.11601Q381.94232 118.35039 383.34857 118.35039Q384.37982 118.35039 385.16107 118.77226Q385.94232 119.17851 386.44232 119.97539Q386.95795 120.75664 387.25482 121.89726Q387.5517 123.02226 387.5517 124.92851Q387.5517 127.19414 387.08295 128.60039Q386.6142 129.99101 385.6767 130.75664Q384.75482 131.50664 383.34857 131.50664Q381.47357 131.50664 380.41107 130.17851Q379.14545 128.56914 379.14545 124.92851ZM380.77045 124.92851Q380.77045 128.10039 381.50482 129.16289Q382.25482 130.20976 383.34857 130.20976Q384.4267 130.20976 385.1767 129.16289Q385.9267 128.10039 385.9267 124.92851Q385.9267 121.75664 385.1767 120.70976Q384.4267 119.66289 383.33295 119.66289Q382.2392 119.66289 381.58295 120.58476Q380.77045 121.75664 380.77045 124.92851ZM389.44232 121.49101Q389.44232 120.11601 390.12982 119.14726Q390.83295 118.17851 392.14545 118.17851Q393.3642 118.17851 394.16107 119.05351Q394.95795 119.91289 394.95795 121.60039Q394.95795 123.22539 394.14545 124.11601Q393.34857 124.99101 392.16107 124.99101Q391.00482 124.99101 390.22357 124.13164Q389.44232 123.25664 389.44232 121.49101ZM392.19232 119.27226Q391.59857 119.27226 391.20795 119.78789Q390.81732 120.28789 390.81732 121.64726Q390.81732 122.89726 391.20795 123.39726Q391.6142 123.89726 392.19232 123.89726Q392.78607 123.89726 393.1767 123.39726Q393.56732 122.88164 393.56732 121.53789Q393.56732 120.28789 393.1767 119.78789Q392.78607 119.27226 392.19232 119.27226ZM392.20795 131.75664L399.25482 118.17851L400.53607 118.17851L393.50482 131.75664L392.20795 131.75664ZM397.77045 128.25664Q397.77045 126.88164 398.45795 125.91289Q399.16107 124.94414 400.4892 124.94414Q401.70795 124.94414 402.4892 125.81914Q403.28607 126.67851 403.28607 128.36601Q403.28607 129.99101 402.4892 130.88164Q401.69232 131.75664 400.50482 131.75664Q399.33295 131.75664 398.5517 130.88164Q397.77045 130.00664 397.77045 128.25664ZM400.53607 126.03789Q399.94232 126.03789 399.5517 126.55351Q399.16107 127.05351 399.16107 128.42851Q399.16107 129.64726 399.5517 130.16289Q399.94232 130.67851 400.52045 130.67851Q401.12982 130.67851 401.52045 130.16289Q401.91107 129.64726 401.91107 128.30351Q401.91107 127.05351 401.52045 126.55351Q401.12982 126.03789 400.53607 126.03789Z" fill-rule="nonzero"/><path fill="#ffffff" d="M196.46394 277.87564L196.46394 276.36002L204.79207 276.36002L204.79207 277.5944Q203.57332 278.9069 202.35457 281.07877Q201.15144 283.23502 200.4952 285.5319Q200.01082 287.1569 199.88582 289.07877L198.26082 289.07877Q198.29207 287.56314 198.85457 285.4069Q199.4327 283.25064 200.4952 281.25064Q201.5577 279.25064 202.76082 277.87564L196.46394 277.87564ZM206.35457 285.70377L208.01082 285.56314Q208.19832 286.7819 208.8702 287.39127Q209.54207 288.00064 210.4952 288.00064Q211.63582 288.00064 212.41707 287.14127Q213.21394 286.2819 213.21394 284.8444Q213.21394 283.50064 212.44832 282.7194Q211.69832 281.93814 210.46394 281.93814Q209.69832 281.93814 209.07332 282.2819Q208.46394 282.62564 208.1202 283.18814L206.63582 282.98502L207.88582 276.37564L214.29207 276.37564L214.29207 277.87564L209.15144 277.87564L208.44832 281.3444Q209.6202 280.5319 210.88582 280.5319Q212.57332 280.5319 213.72957 281.70377Q214.90144 282.87564 214.90144 284.70377Q214.90144 286.45377 213.8702 287.73502Q212.63582 289.29752 210.4952 289.29752Q208.72957 289.29752 207.6202 288.31314Q206.51082 287.32877 206.35457 285.70377ZM217.2452 289.07877L217.2452 287.2819L219.04207 287.2819L219.04207 289.07877L217.2452 289.07877ZM221.35457 282.7194Q221.35457 280.43814 221.82332 279.04752Q222.29207 277.6569 223.21394 276.9069Q224.15144 276.14127 225.5577 276.14127Q226.58894 276.14127 227.3702 276.56314Q228.15144 276.9694 228.65144 277.76627Q229.16707 278.54752 229.46394 279.68814Q229.76082 280.81314 229.76082 282.7194Q229.76082 284.98502 229.29207 286.39127Q228.82332 287.7819 227.88582 288.54752Q226.96394 289.29752 225.5577 289.29752Q223.6827 289.29752 222.6202 287.9694Q221.35457 286.36002 221.35457 282.7194ZM222.97957 282.7194Q222.97957 285.89127 223.71394 286.95377Q224.46394 288.00064 225.5577 288.00064Q226.63582 288.00064 227.38582 286.95377Q228.13582 285.89127 228.13582 282.7194Q228.13582 279.54752 227.38582 278.50064Q226.63582 277.45377 225.54207 277.45377Q224.44832 277.45377 223.79207 278.37564Q222.97957 279.54752 222.97957 282.7194ZM231.65144 279.2819Q231.65144 277.9069 232.33894 276.93814Q233.04207 275.9694 234.35457 275.9694Q235.57332 275.9694 236.3702 276.8444Q237.16707 277.70377 237.16707 279.39127Q237.16707 281.01627 236.35457 281.9069Q235.5577 282.7819 234.3702 282.7819Q233.21394 282.7819 232.4327 281.92252Q231.65144 281.04752 231.65144 279.2819ZM234.40144 277.06314Q233.8077 277.06314 233.41707 277.57877Q233.02644 278.07877 233.02644 279.43814Q233.02644 280.68814 233.41707 281.18814Q233.82332 281.68814 234.40144 281.68814Q234.9952 281.68814 235.38582 281.18814Q235.77644 280.67252 235.77644 279.32877Q235.77644 278.07877 235.38582 277.57877Q234.9952 277.06314 234.40144 277.06314ZM234.41707 289.54752L241.46394 275.9694L242.7452 275.9694L235.71394 289.54752L234.41707 289.54752ZM239.97957 286.04752Q239.97957 284.67252 240.66707 283.70377Q241.3702 282.73502 242.69832 282.73502Q243.91707 282.73502 244.69832 283.61002Q245.4952 284.4694 245.4952 286.1569Q245.4952 287.7819 244.69832 288.67252Q243.90144 289.54752 242.71394 289.54752Q241.54207 289.54752 240.76082 288.67252Q239.97957 287.79752 239.97957 286.04752ZM242.7452 283.82877Q242.15144 283.82877 241.76082 284.3444Q241.3702 284.8444 241.3702 286.2194Q241.3702 287.43814 241.76082 287.95377Q242.15144 288.4694 242.72957 288.4694Q243.33894 288.4694 243.72957 287.95377Q244.1202 287.43814 244.1202 286.0944Q244.1202 284.8444 243.72957 284.3444Q243.33894 283.82877 242.7452 283.82877Z" fill-rule="nonzero"/><path stroke="#ffffff" stroke-width="1.0" stroke-linejoin="round" stroke-linecap="round" d="M374.38333 203.68333C374.38333 162.60255 341.08078 129.3 300.0 129.3L300.0 54.916668C382.16156 54.916668 448.76666 121.521774 448.76666 203.68333" fill-rule="nonzero"/><path stroke="#ffffff" stroke-width="1.0" stroke-linejoin="round" stroke-linecap="round" d="M300.0 129.3C258.91922 129.3 225.61667 162.60255 225.61667 203.68333C225.61667 244.76411 258.91922 278.06668 300.0 278.06668C341.08078 278.06668 374.38333 244.76411 374.38333 203.68333L448.76666 203.68333C448.76666 285.8449 382.16156 352.45 300.0 352.45C217.83844 352.45 151.23334 285.8449 151.23334 203.68333C151.23334 121.521774 217.83844 54.916668 300.0 54.916668" fill-rule="nonzero"/><path fill="#efefef" d="M18.51875 298.11755L22.925 286.66443L24.565624 286.66443L29.253124 298.11755L27.51875 298.11755L26.190624 294.6488L21.39375 294.6488L20.14375 298.11755L18.51875 298.11755ZM21.83125 293.41443L25.721874 293.41443L24.51875 290.24255Q23.971874 288.78943 23.70625 287.86755Q23.4875 288.9613 23.096874 290.05505L21.83125 293.41443ZM30.596874 298.11755L30.596874 289.82068L31.8625 289.82068L31.8625 291.07068Q32.346874 290.19568 32.753124 289.91443Q33.159374 289.63318 33.659374 289.63318Q34.3625 289.63318 35.096874 290.0863L34.6125 291.38318Q34.096874 291.0863 33.58125 291.0863Q33.128124 291.0863 32.753124 291.36755Q32.39375 291.63318 32.2375 292.13318Q32.003124 292.88318 32.003124 293.7738L32.003124 298.11755L30.596874 298.11755ZM41.01875 295.07068L42.409374 295.25818Q42.175 296.68005 41.2375 297.49255Q40.315624 298.30505 38.95625 298.30505Q37.253124 298.30505 36.20625 297.19568Q35.175 296.07068 35.175 293.99255Q35.175 292.6488 35.6125 291.6488Q36.065624 290.63318 36.971874 290.13318Q37.89375 289.63318 38.95625 289.63318Q40.315624 289.63318 41.175 290.32068Q42.034374 290.99255 42.26875 292.25818L40.909374 292.4613Q40.70625 291.63318 40.20625 291.2113Q39.721874 290.78943 39.01875 290.78943Q37.95625 290.78943 37.284374 291.55505Q36.628124 292.30505 36.628124 293.9613Q36.628124 295.63318 37.26875 296.3988Q37.909374 297.1488 38.940624 297.1488Q39.76875 297.1488 40.315624 296.6488Q40.878124 296.13318 41.01875 295.07068ZM43.6125 298.11755L43.6125 286.66443L45.01875 286.66443L45.01875 290.7738Q46.003124 289.63318 47.503124 289.63318Q48.425 289.63318 49.096874 289.99255Q49.784374 290.35193 50.065624 290.99255Q50.3625 291.63318 50.3625 292.85193L50.3625 298.11755L48.95625 298.11755L48.95625 292.85193Q48.95625 291.80505 48.503124 291.32068Q48.05 290.8363 47.20625 290.8363Q46.58125 290.8363 46.034374 291.16443Q45.4875 291.49255 45.253124 292.05505Q45.01875 292.60193 45.01875 293.57068L45.01875 298.11755L43.6125 298.11755ZM52.6125 288.2738L52.6125 286.66443L54.01875 286.66443L54.01875 288.2738L52.6125 288.2738ZM52.6125 298.11755L52.6125 289.82068L54.01875 289.82068L54.01875 298.11755L52.6125 298.11755ZM59.675 296.85193L59.878124 298.10193Q59.284374 298.22693 58.815624 298.22693Q58.05 298.22693 57.628124 297.99255Q57.20625 297.74255 57.034374 297.35193Q56.8625 296.94568 56.8625 295.68005L56.8625 290.91443L55.83125 290.91443L55.83125 289.82068L56.8625 289.82068L56.8625 287.75818L58.26875 286.91443L58.26875 289.82068L59.675 289.82068L59.675 290.91443L58.26875 290.91443L58.26875 295.75818Q58.26875 296.36755 58.33125 296.53943Q58.409374 296.7113 58.58125 296.82068Q58.753124 296.91443 59.065624 296.91443Q59.3 296.91443 59.675 296.85193ZM66.28438 295.44568L67.7375 295.61755Q67.39375 296.8988 66.45625 297.60193Q65.53438 298.30505 64.09688 298.30505Q62.26875 298.30505 61.20625 297.18005Q60.14375 296.05505 60.14375 294.03943Q60.14375 291.94568 61.221874 290.78943Q62.3 289.63318 64.01875 289.63318Q65.675 289.63318 66.72188 290.7738Q67.78438 291.8988 67.78438 293.94568Q67.78438 294.07068 67.78438 294.32068L61.596874 294.32068Q61.675 295.69568 62.3625 296.43005Q63.065624 297.1488 64.09688 297.1488Q64.87813 297.1488 65.425 296.74255Q65.97188 296.3363 66.28438 295.44568ZM61.675 293.16443L66.3 293.16443Q66.20625 292.11755 65.76875 291.60193Q65.09688 290.78943 64.03438 290.78943Q63.065624 290.78943 62.39375 291.44568Q61.7375 292.0863 61.675 293.16443ZM75.01875 295.07068L76.40938 295.25818Q76.175 296.68005 75.2375 297.49255Q74.31563 298.30505 72.95625 298.30505Q71.25313 298.30505 70.20625 297.19568Q69.175 296.07068 69.175 293.99255Q69.175 292.6488 69.6125 291.6488Q70.06563 290.63318 70.97188 290.13318Q71.89375 289.63318 72.95625 289.63318Q74.31563 289.63318 75.175 290.32068Q76.03438 290.99255 76.26875 292.25818L74.90938 292.4613Q74.70625 291.63318 74.20625 291.2113Q73.72188 290.78943 73.01875 290.78943Q71.95625 290.78943 71.28438 291.55505Q70.62813 292.30505 70.62813 293.9613Q70.62813 295.63318 71.26875 296.3988Q71.90938 297.1488 72.94063 297.1488Q73.76875 297.1488 74.31563 296.6488Q74.87813 296.13318 75.01875 295.07068ZM80.675 296.85193L80.87813 298.10193Q80.28438 298.22693 79.81563 298.22693Q79.05 298.22693 78.62813 297.99255Q78.20625 297.74255 78.03438 297.35193Q77.8625 296.94568 77.8625 295.68005L77.8625 290.91443L76.83125 290.91443L76.83125 289.82068L77.8625 289.82068L77.8625 287.75818L79.26875 286.91443L79.26875 289.82068L80.675 289.82068L80.675 290.91443L79.26875 290.91443L79.26875 295.75818Q79.26875 296.36755 79.33125 296.53943Q79.40938 296.7113 79.58125 296.82068Q79.75313 296.91443 80.06563 296.91443Q80.3 296.91443 80.675 296.85193ZM87.05 298.11755L87.05 296.8988Q86.08125 298.30505 84.40938 298.30505Q83.675 298.30505 83.03438 298.0238Q82.40938 297.74255 82.09688 297.32068Q81.78438 296.88318 81.65938 296.2738Q81.58125 295.85193 81.58125 294.9613L81.58125 289.82068L82.9875 289.82068L82.9875 294.41443Q82.9875 295.5238 83.06563 295.8988Q83.20625 296.4613 83.62813 296.7738Q84.06563 297.0863 84.69063 297.0863Q85.33125 297.0863 85.87813 296.7738Q86.44063 296.44568 86.65938 295.88318Q86.89375 295.32068 86.89375 294.25818L86.89375 289.82068L88.3 289.82068L88.3 298.11755L87.05 298.11755ZM90.59688 298.11755L90.59688 289.82068L91.8625 289.82068L91.8625 291.07068Q92.34688 290.19568 92.75313 289.91443Q93.15938 289.63318 93.65938 289.63318Q94.3625 289.63318 95.09688 290.0863L94.6125 291.38318Q94.09688 291.0863 93.58125 291.0863Q93.12813 291.0863 92.75313 291.36755Q92.39375 291.63318 92.2375 292.13318Q92.00313 292.88318 92.00313 293.7738L92.00313 298.11755L90.59688 298.11755ZM101.28438 295.44568L102.7375 295.61755Q102.39375 296.8988 101.45625 297.60193Q100.53438 298.30505 99.09688 298.30505Q97.26875 298.30505 96.20625 297.18005Q95.14375 296.05505 95.14375 294.03943Q95.14375 291.94568 96.22188 290.78943Q97.3 289.63318 99.01875 289.63318Q100.675 289.63318 101.72188 290.7738Q102.78438 291.8988 102.78438 293.94568Q102.78438 294.07068 102.78438 294.32068L96.59688 294.32068Q96.675 295.69568 97.3625 296.43005Q98.06563 297.1488 99.09688 297.1488Q99.87813 297.1488 100.425 296.74255Q100.97188 296.3363 101.28438 295.44568ZM96.675 293.16443L101.3 293.16443Q101.20625 292.11755 100.76875 291.60193Q100.09688 290.78943 99.03438 290.78943Q98.06563 290.78943 97.39375 291.44568Q96.7375 292.0863 96.675 293.16443ZM115.15938 296.75818Q114.45625 297.53943 113.62813 297.93005Q112.81563 298.32068 111.8625 298.32068Q110.1125 298.32068 109.08125 297.11755Q108.2375 296.1488 108.2375 294.9613Q108.2375 293.8988 108.925 293.03943Q109.6125 292.18005 110.97188 291.53943Q110.19063 290.6488 109.925 290.10193Q109.675 289.53943 109.675 289.0238Q109.675 287.99255 110.4875 287.22693Q111.3 286.4613 112.51875 286.4613Q113.69063 286.4613 114.44063 287.18005Q115.19063 287.8988 115.19063 288.91443Q115.19063 290.53943 113.01875 291.69568L115.08125 294.32068Q115.425 293.63318 115.62813 292.72693L117.08125 293.03943Q116.70625 294.53943 116.06563 295.50818Q116.8625 296.55505 117.8625 297.25818L116.90938 298.38318Q116.06563 297.8363 115.15938 296.75818ZM112.3 290.78943Q113.20625 290.25818 113.47188 289.85193Q113.75313 289.44568 113.75313 288.94568Q113.75313 288.36755 113.37813 287.99255Q113.00313 287.61755 112.45625 287.61755Q111.87813 287.61755 111.50313 287.99255Q111.12813 288.35193 111.12813 288.88318Q111.12813 289.1488 111.25313 289.44568Q111.39375 289.74255 111.675 290.07068L112.3 290.78943ZM114.26875 295.6488L111.69063 292.4613Q110.55 293.13318 110.14375 293.72693Q109.75313 294.30505 109.75313 294.86755Q109.75313 295.57068 110.3 296.32068Q110.8625 297.07068 111.87813 297.07068Q112.51875 297.07068 113.19063 296.68005Q113.8625 296.2738 114.26875 295.6488Z" fill-rule="nonzero"/><path fill="#9e9e9e" d="M19.315624 310.16443L19.315624 308.80505L26.721874 308.80505L26.721874 309.8988Q25.628124 311.07068 24.55 313.00818Q23.4875 314.93005 22.89375 316.9613Q22.471874 318.3988 22.3625 320.11755L20.909374 320.11755Q20.940624 318.75818 21.440624 316.85193Q21.95625 314.93005 22.89375 313.16443Q23.846874 311.38318 24.925 310.16443L19.315624 310.16443ZM28.221874 317.11755L29.690624 316.99255Q29.8625 318.07068 30.45625 318.61755Q31.05 319.1488 31.89375 319.1488Q32.909374 319.1488 33.6125 318.38318Q34.315624 317.61755 34.315624 316.35193Q34.315624 315.1488 33.64375 314.4613Q32.971874 313.75818 31.878124 313.75818Q31.190624 313.75818 30.64375 314.07068Q30.096874 314.38318 29.784374 314.86755L28.471874 314.69568L29.58125 308.82068L35.26875 308.82068L35.26875 310.16443L30.70625 310.16443L30.08125 313.24255Q31.1125 312.5238 32.253124 312.5238Q33.753124 312.5238 34.784374 313.57068Q35.815624 314.60193 35.815624 316.22693Q35.815624 317.78943 34.909374 318.91443Q33.8 320.32068 31.89375 320.32068Q30.33125 320.32068 29.346874 319.44568Q28.3625 318.55505 28.221874 317.11755ZM38.003124 320.11755L38.003124 318.50818L39.6125 318.50818L39.6125 320.11755L38.003124 320.11755ZM41.221874 314.4613Q41.221874 312.43005 41.628124 311.19568Q42.05 309.9613 42.878124 309.28943Q43.70625 308.61755 44.95625 308.61755Q45.878124 308.61755 46.565624 308.99255Q47.26875 309.35193 47.721874 310.05505Q48.175 310.75818 48.425 311.75818Q48.690624 312.75818 48.690624 314.4613Q48.690624 316.47693 48.26875 317.72693Q47.8625 318.9613 47.034374 319.6488Q46.20625 320.32068 44.95625 320.32068Q43.3 320.32068 42.346874 319.11755Q41.221874 317.69568 41.221874 314.4613ZM42.659374 314.4613Q42.659374 317.28943 43.315624 318.22693Q43.9875 319.1488 44.95625 319.1488Q45.925 319.1488 46.58125 318.2113Q47.2375 317.2738 47.2375 314.4613Q47.2375 311.63318 46.58125 310.7113Q45.925 309.7738 44.940624 309.7738Q43.971874 309.7738 43.39375 310.60193Q42.659374 311.6488 42.659374 314.4613ZM50.4875 311.41443Q50.4875 310.18005 51.096874 309.32068Q51.721874 308.4613 52.89375 308.4613Q53.971874 308.4613 54.675 309.24255Q55.378124 310.00818 55.378124 311.49255Q55.378124 312.94568 54.659374 313.74255Q53.95625 314.5238 52.909374 314.5238Q51.8625 314.5238 51.175 313.75818Q50.4875 312.97693 50.4875 311.41443ZM52.925 309.43005Q52.409374 309.43005 52.05 309.88318Q51.70625 310.3363 51.70625 311.55505Q51.70625 312.6488 52.05 313.10193Q52.409374 313.55505 52.925 313.55505Q53.45625 313.55505 53.8 313.10193Q54.159374 312.6488 54.159374 311.44568Q54.159374 310.3363 53.8 309.88318Q53.45625 309.43005 52.925 309.43005ZM52.940624 320.53943L59.20625 308.4613L60.346874 308.4613L54.096874 320.53943L52.940624 320.53943ZM57.89375 317.43005Q57.89375 316.19568 58.503124 315.3363Q59.128124 314.47693 60.3 314.47693Q61.378124 314.47693 62.08125 315.25818Q62.8 316.0238 62.8 317.50818Q62.8 318.9613 62.08125 319.75818Q61.3625 320.53943 60.315624 320.53943Q59.26875 320.53943 58.58125 319.75818Q57.89375 318.97693 57.89375 317.43005ZM60.346874 315.44568Q59.815624 315.44568 59.45625 315.8988Q59.1125 316.35193 59.1125 317.57068Q59.1125 318.66443 59.45625 319.11755Q59.815624 319.57068 60.33125 319.57068Q60.878124 319.57068 61.221874 319.11755Q61.565624 318.66443 61.565624 317.4613Q61.565624 316.35193 61.20625 315.8988Q60.8625 315.44568 60.346874 315.44568Z" fill-rule="nonzero"/><path stroke="#757575" stroke-width="1.0" stroke-linecap="butt" d="M18.55 303.61755L145.23334 303.61755L200.06578 303.61755" fill-rule="nonzero"/><path fill="#9e9e9e" d="M202.06578 303.61755C202.06578 302.513 201.17035 301.61755 200.06578 301.61755C198.96121 301.61755 198.06578 302.513 198.06578 303.61755C198.06578 304.72214 198.96121 305.61755 200.06578 305.61755C201.17035 305.61755 202.06578 304.72214 202.06578 303.61755" fill-rule="nonzero"/><path fill="#efefef" d="M514.71564 98.24911L514.71564 86.79598L519.79376 86.79598Q521.325 86.79598 522.1219 87.10848Q522.91876 87.40536 523.3875 88.18661Q523.8719 88.96786 523.8719 89.92098Q523.8719 91.13973 523.075 91.98348Q522.29376 92.81161 520.6375 93.03036Q521.2469 93.32723 521.5594 93.60848Q522.21564 94.21786 522.8094 95.12411L524.8094 98.24911L522.90314 98.24911L521.3875 95.85848Q520.71564 94.82723 520.27814 94.28036Q519.85626 93.73348 519.5125 93.51473Q519.1844 93.29598 518.825 93.21786Q518.575 93.15536 517.98126 93.15536L516.23126 93.15536L516.23126 98.24911L514.71564 98.24911ZM516.23126 91.84286L519.48126 91.84286Q520.52814 91.84286 521.10626 91.63973Q521.7 91.42098 521.9969 90.95223Q522.3094 90.46786 522.3094 89.92098Q522.3094 89.10848 521.71564 88.59286Q521.1219 88.06161 519.85626 88.06161L516.23126 88.06161L516.23126 91.84286ZM532.1844 95.57723L533.6375 95.74911Q533.29376 97.03036 532.35626 97.73348Q531.4344 98.43661 529.9969 98.43661Q528.16876 98.43661 527.10626 97.31161Q526.04376 96.18661 526.04376 94.17098Q526.04376 92.07723 527.1219 90.92098Q528.2 89.76473 529.91876 89.76473Q531.575 89.76473 532.6219 90.90536Q533.6844 92.03036 533.6844 94.07723Q533.6844 94.20223 533.6844 94.45223L527.4969 94.45223Q527.575 95.82723 528.2625 96.56161Q528.96564 97.28036 529.9969 97.28036Q530.77814 97.28036 531.325 96.87411Q531.8719 96.46786 532.1844 95.57723ZM527.575 93.29598L532.2 93.29598Q532.10626 92.24911 531.66876 91.73348Q530.9969 90.92098 529.9344 90.92098Q528.96564 90.92098 528.29376 91.57723Q527.6375 92.21786 527.575 93.29598ZM535.48126 98.24911L535.48126 86.79598L536.8875 86.79598L536.8875 98.24911L535.48126 98.24911ZM539.5125 88.40536L539.5125 86.79598L540.91876 86.79598L540.91876 88.40536L539.5125 88.40536ZM539.5125 98.24911L539.5125 89.95223L540.91876 89.95223L540.91876 98.24911L539.5125 98.24911ZM543.2469 98.93661L544.6219 99.13973Q544.7 99.78036 545.09064 100.06161Q545.6219 100.45223 546.52814 100.45223Q547.4969 100.45223 548.02814 100.06161Q548.5594 99.67098 548.7469 98.96786Q548.85626 98.54598 548.85626 97.15536Q547.9344 98.24911 546.5594 98.24911Q544.84064 98.24911 543.90314 97.01473Q542.96564 95.78036 542.96564 94.04598Q542.96564 92.85848 543.3875 91.85848Q543.825 90.85848 544.6375 90.31161Q545.46564 89.76473 546.5594 89.76473Q548.02814 89.76473 548.98126 90.95223L548.98126 89.95223L550.27814 89.95223L550.27814 97.12411Q550.27814 99.06161 549.8875 99.87411Q549.4969 100.68661 548.6375 101.15536Q547.77814 101.62411 546.52814 101.62411Q545.04376 101.62411 544.1219 100.95223Q543.21564 100.28036 543.2469 98.93661ZM544.41876 93.95223Q544.41876 95.57723 545.0594 96.32723Q545.71564 97.07723 546.6844 97.07723Q547.65314 97.07723 548.3094 96.34286Q548.96564 95.59286 548.96564 93.99911Q548.96564 92.46786 548.29376 91.70223Q547.6219 90.92098 546.66876 90.92098Q545.73126 90.92098 545.075 91.68661Q544.41876 92.45223 544.41876 93.95223ZM552.5125 88.40536L552.5125 86.79598L553.91876 86.79598L553.91876 88.40536L552.5125 88.40536ZM552.5125 98.24911L552.5125 89.95223L553.91876 89.95223L553.91876 98.24911L552.5125 98.24911ZM555.98126 94.09286Q555.98126 91.79598 557.2625 90.68661Q558.34064 89.76473 559.8719 89.76473Q561.59064 89.76473 562.66876 90.88973Q563.7625 91.99911 563.7625 93.98348Q563.7625 95.57723 563.27814 96.49911Q562.79376 97.42098 561.8719 97.93661Q560.96564 98.43661 559.8719 98.43661Q558.1375 98.43661 557.0594 97.32723Q555.98126 96.20223 555.98126 94.09286ZM557.4344 94.09286Q557.4344 95.68661 558.1219 96.48348Q558.825 97.28036 559.8719 97.28036Q560.91876 97.28036 561.60626 96.48348Q562.3094 95.68661 562.3094 94.04598Q562.3094 92.51473 561.60626 91.71786Q560.91876 90.92098 559.8719 90.92098Q558.825 90.92098 558.1219 91.71786Q557.4344 92.49911 557.4344 94.09286ZM570.95 98.24911L570.95 97.03036Q569.98126 98.43661 568.3094 98.43661Q567.575 98.43661 566.9344 98.15536Q566.3094 97.87411 565.9969 97.45223Q565.6844 97.01473 565.5594 96.40536Q565.48126 95.98348 565.48126 95.09286L565.48126 89.95223L566.8875 89.95223L566.8875 94.54598Q566.8875 95.65536 566.96564 96.03036Q567.10626 96.59286 567.52814 96.90536Q567.96564 97.21786 568.59064 97.21786Q569.23126 97.21786 569.77814 96.90536Q570.34064 96.57723 570.5594 96.01473Q570.79376 95.45223 570.79376 94.38973L570.79376 89.95223L572.2 89.95223L572.2 98.24911L570.95 98.24911ZM573.95 95.76473L575.34064 95.54598Q575.45 96.38973 575.98126 96.84286Q576.52814 97.28036 577.48126 97.28036Q578.45 97.28036 578.91876 96.88973Q579.3875 96.48348 579.3875 95.95223Q579.3875 95.48348 578.98126 95.20223Q578.6844 95.01473 577.54376 94.73348Q575.9969 94.34286 575.3875 94.06161Q574.79376 93.76473 574.48126 93.26473Q574.1844 92.76473 574.1844 92.15536Q574.1844 91.59286 574.4344 91.12411Q574.6844 90.65536 575.1219 90.34286Q575.45 90.09286 576.0125 89.93661Q576.59064 89.76473 577.23126 89.76473Q578.21564 89.76473 578.95 90.04598Q579.6844 90.32723 580.02814 90.81161Q580.3875 91.28036 580.52814 92.09286L579.15314 92.28036Q579.0594 91.63973 578.60626 91.28036Q578.15314 90.92098 577.34064 90.92098Q576.3719 90.92098 575.95 91.24911Q575.54376 91.56161 575.54376 91.98348Q575.54376 92.26473 575.71564 92.48348Q575.8875 92.70223 576.2469 92.85848Q576.46564 92.93661 577.4969 93.21786Q578.98126 93.60848 579.575 93.87411Q580.16876 94.12411 580.4969 94.60848Q580.84064 95.09286 580.84064 95.81161Q580.84064 96.51473 580.41876 97.13973Q580.0125 97.74911 579.23126 98.09286Q578.46564 98.43661 577.4969 98.43661Q575.8719 98.43661 575.02814 97.76473Q574.1844 97.09286 573.95 95.76473Z" fill-rule="nonzero"/><path fill="#9e9e9e" d="M544.5125 118.88973L544.5125 120.24911L536.9344 120.24911Q536.91876 119.73348 537.10626 119.26473Q537.3875 118.49911 538.02814 117.74911Q538.66876 116.99911 539.8719 116.01473Q541.73126 114.48348 542.3875 113.59286Q543.04376 112.68661 543.04376 111.88973Q543.04376 111.06161 542.45 110.48348Q541.85626 109.90536 540.8875 109.90536Q539.8719 109.90536 539.2625 110.51473Q538.65314 111.12411 538.65314 112.20223L537.2 112.06161Q537.35626 110.43661 538.325 109.59286Q539.29376 108.74911 540.91876 108.74911Q542.575 108.74911 543.52814 109.67098Q544.4969 110.57723 544.4969 111.92098Q544.4969 112.60848 544.21564 113.28036Q543.9344 113.93661 543.27814 114.67098Q542.6219 115.40536 541.10626 116.68661Q539.84064 117.74911 539.48126 118.13973Q539.1219 118.51473 538.8875 118.88973L544.5125 118.88973ZM546.1219 117.24911L547.59064 117.12411Q547.7625 118.20223 548.35626 118.74911Q548.95 119.28036 549.79376 119.28036Q550.8094 119.28036 551.5125 118.51473Q552.21564 117.74911 552.21564 116.48348Q552.21564 115.28036 551.54376 114.59286Q550.8719 113.88973 549.77814 113.88973Q549.09064 113.88973 548.54376 114.20223Q547.9969 114.51473 547.6844 114.99911L546.3719 114.82723L547.48126 108.95223L553.16876 108.95223L553.16876 110.29598L548.60626 110.29598L547.98126 113.37411Q549.0125 112.65536 550.15314 112.65536Q551.65314 112.65536 552.6844 113.70223Q553.71564 114.73348 553.71564 116.35848Q553.71564 117.92098 552.8094 119.04598Q551.7 120.45223 549.79376 120.45223Q548.23126 120.45223 547.2469 119.57723Q546.2625 118.68661 546.1219 117.24911ZM555.90314 120.24911L555.90314 118.63973L557.5125 118.63973L557.5125 120.24911L555.90314 120.24911ZM559.1219 114.59286Q559.1219 112.56161 559.52814 111.32723Q559.95 110.09286 560.77814 109.42098Q561.60626 108.74911 562.85626 108.74911Q563.77814 108.74911 564.46564 109.12411Q565.16876 109.48348 565.6219 110.18661Q566.075 110.88973 566.325 111.88973Q566.59064 112.88973 566.59064 114.59286Q566.59064 116.60848 566.16876 117.85848Q565.7625 119.09286 564.9344 119.78036Q564.10626 120.45223 562.85626 120.45223Q561.2 120.45223 560.2469 119.24911Q559.1219 117.82723 559.1219 114.59286ZM560.5594 114.59286Q560.5594 117.42098 561.21564 118.35848Q561.8875 119.28036 562.85626 119.28036Q563.825 119.28036 564.48126 118.34286Q565.1375 117.40536 565.1375 114.59286Q565.1375 111.76473 564.48126 110.84286Q563.825 109.90536 562.84064 109.90536Q561.8719 109.90536 561.29376 110.73348Q560.5594 111.78036 560.5594 114.59286ZM568.3875 111.54598Q568.3875 110.31161 568.9969 109.45223Q569.6219 108.59286 570.79376 108.59286Q571.8719 108.59286 572.575 109.37411Q573.27814 110.13973 573.27814 111.62411Q573.27814 113.07723 572.5594 113.87411Q571.85626 114.65536 570.8094 114.65536Q569.7625 114.65536 569.075 113.88973Q568.3875 113.10848 568.3875 111.54598ZM570.825 109.56161Q570.3094 109.56161 569.95 110.01473Q569.60626 110.46786 569.60626 111.68661Q569.60626 112.78036 569.95 113.23348Q570.3094 113.68661 570.825 113.68661Q571.35626 113.68661 571.7 113.23348Q572.0594 112.78036 572.0594 111.57723Q572.0594 110.46786 571.7 110.01473Q571.35626 109.56161 570.825 109.56161ZM570.84064 120.67098L577.10626 108.59286L578.2469 108.59286L571.9969 120.67098L570.84064 120.67098ZM575.79376 117.56161Q575.79376 116.32723 576.40314 115.46786Q577.02814 114.60848 578.2 114.60848Q579.27814 114.60848 579.98126 115.38973Q580.7 116.15536 580.7 117.63973Q580.7 119.09286 579.98126 119.88973Q579.2625 120.67098 578.21564 120.67098Q577.16876 120.67098 576.48126 119.88973Q575.79376 119.10848 575.79376 117.56161ZM578.2469 115.57723Q577.71564 115.57723 577.35626 116.03036Q577.0125 116.48348 577.0125 117.70223Q577.0125 118.79598 577.35626 119.24911Q577.71564 119.70223 578.23126 119.70223Q578.77814 119.70223 579.1219 119.24911Q579.46564 118.79598 579.46564 117.59286Q579.46564 116.48348 579.10626 116.03036Q578.7625 115.57723 578.2469 115.57723Z" fill-rule="nonzero"/><path stroke="#757575" stroke-width="1.0" stroke-linecap="butt" d="M581.45 103.74911L454.76666 103.74911L399.93423 103.74911" fill-rule="nonzero"/><path fill="#9e9e9e" d="M401.93423 103.74911C401.93423 102.64454 401.0388 101.74911 399.93423 101.74911C398.82965 101.74911 397.93423 102.64454 397.93423 103.74911C397.93423 104.85368 398.82965 105.74911 399.93423 105.74911C401.0388 105.74911 401.93423 104.85368 401.93423 103.74911" fill-rule="nonzero"/><path fill="#f3f3f3" d="M271.26562 32.534374L273.15625 33.003124Q272.5625 35.346874 271.01562 36.58125Q269.46875 37.8 267.21875 37.8Q264.90625 37.8 263.45312 36.8625Q262.01562 35.909374 261.25 34.128124Q260.5 32.33125 260.5 30.284374Q260.5 28.05 261.34375 26.39375Q262.20312 24.721874 263.78125 23.8625Q265.35938 22.9875 267.25 22.9875Q269.40625 22.9875 270.85938 24.08125Q272.32812 25.175 272.90625 27.159374L271.04688 27.596874Q270.54688 26.034374 269.59375 25.33125Q268.65625 24.6125 267.21875 24.6125Q265.5625 24.6125 264.45312 25.409374Q263.34375 26.190624 262.89062 27.534374Q262.45312 28.8625 262.45312 30.26875Q262.45312 32.096874 262.98438 33.471874Q263.51562 34.83125 264.64062 35.503124Q265.76562 36.175 267.0625 36.175Q268.65625 36.175 269.76562 35.253124Q270.875 34.33125 271.26562 32.534374ZM281.59375 36.26875Q280.60938 37.096874 279.70312 37.440624Q278.79688 37.784374 277.76562 37.784374Q276.0625 37.784374 275.14062 36.95625Q274.21875 36.1125 274.21875 34.815624Q274.21875 34.05 274.5625 33.425Q274.92188 32.8 275.48438 32.425Q276.04688 32.034374 276.75 31.83125Q277.26562 31.70625 278.3125 31.565624Q280.4375 31.315624 281.4375 30.971874Q281.45312 30.6125 281.45312 30.503124Q281.45312 29.440624 280.95312 28.9875Q280.28125 28.39375 278.95312 28.39375Q277.70312 28.39375 277.10938 28.83125Q276.53125 29.26875 276.25 30.378124L274.53125 30.14375Q274.76562 29.034374 275.29688 28.3625Q275.82812 27.675 276.84375 27.315624Q277.85938 26.940624 279.20312 26.940624Q280.53125 26.940624 281.35938 27.253124Q282.1875 27.565624 282.57812 28.05Q282.96875 28.51875 283.125 29.2375Q283.21875 29.690624 283.21875 30.8625L283.21875 33.20625Q283.21875 35.659374 283.32812 36.315624Q283.4375 36.95625 283.78125 37.55L281.9375 37.55Q281.67188 37.003124 281.59375 36.26875ZM281.4375 32.346874Q280.48438 32.7375 278.5625 33.003124Q277.48438 33.159374 277.03125 33.3625Q276.59375 33.55 276.34375 33.925Q276.09375 34.3 276.09375 34.76875Q276.09375 35.471874 276.625 35.940624Q277.15625 36.409374 278.1875 36.409374Q279.20312 36.409374 279.98438 35.971874Q280.78125 35.51875 281.15625 34.753124Q281.4375 34.14375 281.4375 32.9875L281.4375 32.346874ZM289.65625 35.971874L289.90625 37.534374Q289.17188 37.690624 288.57812 37.690624Q287.625 37.690624 287.09375 37.39375Q286.57812 37.08125 286.35938 36.596874Q286.14062 36.096874 286.14062 34.51875L286.14062 28.55L284.85938 28.55L284.85938 27.175L286.14062 27.175L286.14062 24.6125L287.89062 23.55L287.89062 27.175L289.65625 27.175L289.65625 28.55L287.89062 28.55L287.89062 34.6125Q287.89062 35.3625 287.98438 35.58125Q288.07812 35.784374 288.28125 35.925Q288.5 36.05 288.89062 36.05Q289.17188 36.05 289.65625 35.971874ZM298.92188 34.20625L300.73438 34.440624Q300.3125 36.01875 299.14062 36.909374Q297.98438 37.784374 296.17188 37.784374Q293.90625 37.784374 292.5625 36.39375Q291.23438 34.9875 291.23438 32.45625Q291.23438 29.83125 292.57812 28.39375Q293.92188 26.940624 296.07812 26.940624Q298.15625 26.940624 299.46875 28.3625Q300.79688 29.76875 300.79688 32.346874Q300.79688 32.503124 300.78125 32.815624L293.04688 32.815624Q293.14062 34.51875 294.01562 35.425Q294.89062 36.33125 296.1875 36.33125Q297.15625 36.33125 297.82812 35.83125Q298.51562 35.315624 298.92188 34.20625ZM293.14062 31.3625L298.9375 31.3625Q298.82812 30.065624 298.28125 29.409374Q297.4375 28.39375 296.09375 28.39375Q294.89062 28.39375 294.0625 29.20625Q293.23438 30.003124 293.14062 31.3625ZM302.5 38.409374L304.20312 38.659374Q304.3125 39.45625 304.79688 39.815624Q305.45312 40.3 306.59375 40.3Q307.8125 40.3 308.46875 39.815624Q309.14062 39.33125 309.375 38.45625Q309.51562 37.909374 309.5 36.190624Q308.34375 37.55 306.625 37.55Q304.48438 37.55 303.3125 36.003124Q302.14062 34.45625 302.14062 32.3Q302.14062 30.815624 302.67188 29.565624Q303.21875 28.315624 304.23438 27.628124Q305.26562 26.940624 306.64062 26.940624Q308.46875 26.940624 309.67188 28.425L309.67188 27.175L311.28125 27.175L311.28125 36.14375Q311.28125 38.565624 310.78125 39.565624Q310.29688 40.58125 309.21875 41.159374Q308.15625 41.753124 306.59375 41.753124Q304.75 41.753124 303.59375 40.925Q302.45312 40.096874 302.5 38.409374ZM303.95312 32.175Q303.95312 34.221874 304.76562 35.159374Q305.57812 36.096874 306.79688 36.096874Q308.0 36.096874 308.8125 35.159374Q309.64062 34.221874 309.64062 32.2375Q309.64062 30.33125 308.79688 29.3625Q307.95312 28.39375 306.76562 28.39375Q305.59375 28.39375 304.76562 29.346874Q303.95312 30.3 303.95312 32.175ZM313.17188 32.3625Q313.17188 29.4875 314.76562 28.096874Q316.10938 26.940624 318.03125 26.940624Q320.17188 26.940624 321.51562 28.346874Q322.875 29.753124 322.875 32.221874Q322.875 34.221874 322.28125 35.378124Q321.6875 36.51875 320.53125 37.159374Q319.39062 37.784374 318.03125 37.784374Q315.84375 37.784374 314.5 36.39375Q313.17188 34.9875 313.17188 32.3625ZM314.96875 32.3625Q314.96875 34.3625 315.82812 35.346874Q316.70312 36.33125 318.03125 36.33125Q319.34375 36.33125 320.20312 35.346874Q321.07812 34.346874 321.07812 32.3Q321.07812 30.378124 320.20312 29.39375Q319.32812 28.39375 318.03125 28.39375Q316.70312 28.39375 315.82812 29.39375Q314.96875 30.378124 314.96875 32.3625ZM324.79688 37.55L324.79688 27.175L326.375 27.175L326.375 28.753124Q326.98438 27.64375 327.5 27.3Q328.01562 26.940624 328.625 26.940624Q329.51562 26.940624 330.4375 27.503124L329.82812 29.14375Q329.1875 28.753124 328.54688 28.753124Q327.96875 28.753124 327.5 29.1125Q327.04688 29.45625 326.84375 30.065624Q326.5625 31.003124 326.5625 32.1125L326.5625 37.55L324.79688 37.55ZM331.73438 41.55L331.54688 39.89375Q332.125 40.05 332.54688 40.05Q333.14062 40.05 333.48438 39.846874Q333.84375 39.659374 334.0625 39.315624Q334.23438 39.05 334.60938 38.003124Q334.65625 37.846874 334.76562 37.565624L330.82812 27.175L332.71875 27.175L334.875 33.190624Q335.29688 34.33125 335.625 35.58125Q335.9375 34.378124 336.34375 33.221874L338.5625 27.175L340.32812 27.175L336.375 37.721874Q335.75 39.440624 335.39062 40.08125Q334.92188 40.95625 334.3125 41.346874Q333.71875 41.753124 332.875 41.753124Q332.35938 41.753124 331.73438 41.55Z" fill-rule="nonzero"/></svg>